<svg width="800" height="400" xmlns="http://www.w3.org/2000/svg"><g transform="translate(50,20)"><g transform="translate(0,340)" fill="none" font-size="10" font-family="sans-serif" text-anchor="middle"><path class="domain" stroke="currentColor" d="M0.5,6V0.5H720.5V6"></path><g class="tick" opacity="1" transform="translate(7.509735744089013,0)"><line stroke="currentColor" y2="6"></line><text fill="currentColor" y="9" dy=".15em" style="text-anchor: end;" dx="-.8em" transform="rotate(-45)">06/01</text></g><g class="tick" opacity="1" transform="translate(31.543115438108483,0)"><line stroke="currentColor" y2="6"></line><text fill="currentColor" y="9" dy=".15em" style="text-anchor: end;" dx="-.8em" transform="rotate(-45)">06/02</text></g><g class="tick" opacity="1" transform="translate(55.57649513212795,0)"><line stroke="currentColor" y2="6"></line><text fill="currentColor" y="9" dy=".15em" style="text-anchor: end;" dx="-.8em" transform="rotate(-45)">06/03</text></g><g class="tick" opacity="1" transform="translate(79.60987482614743,0)"><line stroke="currentColor" y2="6"></line><text fill="currentColor" y="9" dy=".15em" style="text-anchor: end;" dx="-.8em" transform="rotate(-45)">06/04</text></g><g class="tick" opacity="1" transform="translate(103.64325452016689,0)"><line stroke="currentColor" y2="6"></line><text fill="currentColor" y="9" dy=".15em" style="text-anchor: end;" dx="-.8em" transform="rotate(-45)">06/05</text></g><g class="tick" opacity="1" transform="translate(127.67663421418636,0)"><line stroke="currentColor" y2="6"></line><text fill="currentColor" y="9" dy=".15em" style="text-anchor: end;" dx="-.8em" transform="rotate(-45)">06/06</text></g><g class="tick" opacity="1" transform="translate(151.71001390820584,0)"><line stroke="currentColor" y2="6"></line><text fill="currentColor" y="9" dy=".15em" style="text-anchor: end;" dx="-.8em" transform="rotate(-45)">06/07</text></g><g class="tick" opacity="1" transform="translate(175.7433936022253,0)"><line stroke="currentColor" y2="6"></line><text fill="currentColor" y="9" dy=".15em" style="text-anchor: end;" dx="-.8em" transform="rotate(-45)">06/08</text></g><g class="tick" opacity="1" transform="translate(199.77677329624478,0)"><line stroke="currentColor" y2="6"></line><text fill="currentColor" y="9" dy=".15em" style="text-anchor: end;" dx="-.8em" transform="rotate(-45)">06/09</text></g><g class="tick" opacity="1" transform="translate(223.81015299026427,0)"><line stroke="currentColor" y2="6"></line><text fill="currentColor" y="9" dy=".15em" style="text-anchor: end;" dx="-.8em" transform="rotate(-45)">06/10</text></g><g class="tick" opacity="1" transform="translate(247.84353268428373,0)"><line stroke="currentColor" y2="6"></line><text fill="currentColor" y="9" dy=".15em" style="text-anchor: end;" dx="-.8em" transform="rotate(-45)">06/11</text></g><g class="tick" opacity="1" transform="translate(271.8769123783032,0)"><line stroke="currentColor" y2="6"></line><text fill="currentColor" y="9" dy=".15em" style="text-anchor: end;" dx="-.8em" transform="rotate(-45)">06/12</text></g><g class="tick" opacity="1" transform="translate(295.9102920723227,0)"><line stroke="currentColor" y2="6"></line><text fill="currentColor" y="9" dy=".15em" style="text-anchor: end;" dx="-.8em" transform="rotate(-45)">06/13</text></g><g class="tick" opacity="1" transform="translate(319.9436717663421,0)"><line stroke="currentColor" y2="6"></line><text fill="currentColor" y="9" dy=".15em" style="text-anchor: end;" dx="-.8em" transform="rotate(-45)">06/14</text></g><g class="tick" opacity="1" transform="translate(343.9770514603616,0)"><line stroke="currentColor" y2="6"></line><text fill="currentColor" y="9" dy=".15em" style="text-anchor: end;" dx="-.8em" transform="rotate(-45)">06/15</text></g><g class="tick" opacity="1" transform="translate(368.01043115438114,0)"><line stroke="currentColor" y2="6"></line><text fill="currentColor" y="9" dy=".15em" style="text-anchor: end;" dx="-.8em" transform="rotate(-45)">06/16</text></g><g class="tick" opacity="1" transform="translate(392.0438108484006,0)"><line stroke="currentColor" y2="6"></line><text fill="currentColor" y="9" dy=".15em" style="text-anchor: end;" dx="-.8em" transform="rotate(-45)">06/17</text></g><g class="tick" opacity="1" transform="translate(416.07719054242,0)"><line stroke="currentColor" y2="6"></line><text fill="currentColor" y="9" dy=".15em" style="text-anchor: end;" dx="-.8em" transform="rotate(-45)">06/18</text></g><g class="tick" opacity="1" transform="translate(440.11057023643946,0)"><line stroke="currentColor" y2="6"></line><text fill="currentColor" y="9" dy=".15em" style="text-anchor: end;" dx="-.8em" transform="rotate(-45)">06/19</text></g><g class="tick" opacity="1" transform="translate(464.1439499304589,0)"><line stroke="currentColor" y2="6"></line><text fill="currentColor" y="9" dy=".15em" style="text-anchor: end;" dx="-.8em" transform="rotate(-45)">06/20</text></g><g class="tick" opacity="1" transform="translate(488.17732962447843,0)"><line stroke="currentColor" y2="6"></line><text fill="currentColor" y="9" dy=".15em" style="text-anchor: end;" dx="-.8em" transform="rotate(-45)">06/21</text></g><g class="tick" opacity="1" transform="translate(512.210709318498,0)"><line stroke="currentColor" y2="6"></line><text fill="currentColor" y="9" dy=".15em" style="text-anchor: end;" dx="-.8em" transform="rotate(-45)">06/22</text></g><g class="tick" opacity="1" transform="translate(536.2440890125174,0)"><line stroke="currentColor" y2="6"></line><text fill="currentColor" y="9" dy=".15em" style="text-anchor: end;" dx="-.8em" transform="rotate(-45)">06/23</text></g><g class="tick" opacity="1" transform="translate(560.2774687065369,0)"><line stroke="currentColor" y2="6"></line><text fill="currentColor" y="9" dy=".15em" style="text-anchor: end;" dx="-.8em" transform="rotate(-45)">06/24</text></g><g class="tick" opacity="1" transform="translate(584.3108484005563,0)"><line stroke="currentColor" y2="6"></line><text fill="currentColor" y="9" dy=".15em" style="text-anchor: end;" dx="-.8em" transform="rotate(-45)">06/25</text></g><g class="tick" opacity="1" transform="translate(608.3442280945758,0)"><line stroke="currentColor" y2="6"></line><text fill="currentColor" y="9" dy=".15em" style="text-anchor: end;" dx="-.8em" transform="rotate(-45)">06/26</text></g><g class="tick" opacity="1" transform="translate(632.3776077885952,0)"><line stroke="currentColor" y2="6"></line><text fill="currentColor" y="9" dy=".15em" style="text-anchor: end;" dx="-.8em" transform="rotate(-45)">06/27</text></g><g class="tick" opacity="1" transform="translate(656.4109874826147,0)"><line stroke="currentColor" y2="6"></line><text fill="currentColor" y="9" dy=".15em" style="text-anchor: end;" dx="-.8em" transform="rotate(-45)">06/28</text></g><g class="tick" opacity="1" transform="translate(680.4443671766343,0)"><line stroke="currentColor" y2="6"></line><text fill="currentColor" y="9" dy=".15em" style="text-anchor: end;" dx="-.8em" transform="rotate(-45)">06/29</text></g><g class="tick" opacity="1" transform="translate(704.4777468706537,0)"><line stroke="currentColor" y2="6"></line><text fill="currentColor" y="9" dy=".15em" style="text-anchor: end;" dx="-.8em" transform="rotate(-45)">06/30</text></g></g><g fill="none" font-size="10" font-family="sans-serif" text-anchor="end"><path class="domain" stroke="currentColor" d="M-6,340.5H0.5V0.5H-6"></path><g class="tick" opacity="1" transform="translate(0,340.5)"><line stroke="currentColor" x2="-6"></line><text fill="currentColor" x="-9" dy="0.32em">1.00%</text></g><g class="tick" opacity="1" transform="translate(0,298)"><line stroke="currentColor" x2="-6"></line><text fill="currentColor" x="-9" dy="0.32em">1.50%</text></g><g class="tick" opacity="1" transform="translate(0,255.5)"><line stroke="currentColor" x2="-6"></line><text fill="currentColor" x="-9" dy="0.32em">2.00%</text></g><g class="tick" opacity="1" transform="translate(0,213)"><line stroke="currentColor" x2="-6"></line><text fill="currentColor" x="-9" dy="0.32em">2.50%</text></g><g class="tick" opacity="1" transform="translate(0,170.50000000000003)"><line stroke="currentColor" x2="-6"></line><text fill="currentColor" x="-9" dy="0.32em">3.00%</text></g><g class="tick" opacity="1" transform="translate(0,128)"><line stroke="currentColor" x2="-6"></line><text fill="currentColor" x="-9" dy="0.32em">3.50%</text></g><g class="tick" opacity="1" transform="translate(0,85.5)"><line stroke="currentColor" x2="-6"></line><text fill="currentColor" x="-9" dy="0.32em">4.00%</text></g><g class="tick" opacity="1" transform="translate(0,43.000000000000036)"><line stroke="currentColor" x2="-6"></line><text fill="currentColor" x="-9" dy="0.32em">4.50%</text></g><g class="tick" opacity="1" transform="translate(0,0.5)"><line stroke="currentColor" x2="-6"></line><text fill="currentColor" x="-9" dy="0.32em">5.00%</text></g></g><text transform="rotate(-90)" y="-50" x="-170" dy="1em" style="text-anchor: middle; font-size: 12px; fill: #666;">Pre Rate (%)</text><text transform="translate(360, 380)" style="text-anchor: middle; font-size: 12px; fill: #666;">Time (UTC)</text><path fill="none" stroke="#2563eb" stroke-width="2" d="M0,170C0.334,170,0.668,170,1.001,170C1.335,170,1.669,0,2.003,0C2.337,0,2.67,0,3.004,0C3.338,0,3.672,0,4.006,0C4.339,0,4.673,0,5.007,0C5.341,0,5.675,0,6.008,0C6.342,0,6.676,0,7.01,0C7.344,0,7.677,0,8.011,0C8.345,0,8.679,170,9.013,170C9.346,170,9.68,170,10.014,170C10.348,170,10.682,0,11.015,0C11.349,0,11.683,0,12.017,0C12.35,0,12.684,170,13.018,170C13.352,170,13.686,170,14.019,170C14.353,170,14.687,170,15.021,170C15.355,170,15.688,170,16.022,170C16.356,170,16.69,170,17.024,170C17.357,170,17.691,170,18.025,170C18.359,170,18.693,170,19.026,170C19.36,170,19.694,170,20.028,170C20.362,170,20.695,170,21.029,170C21.363,170,21.697,170,22.031,170C22.364,170,22.698,170,23.032,170C23.366,170,23.7,170,24.033,170C24.367,170,24.701,170,25.035,170C25.369,170,25.702,255,26.036,255C26.37,255,26.704,255,27.038,255C27.371,255,27.705,255,28.039,255C28.373,255,28.707,255,29.04,255C29.374,255,29.708,255,30.042,255C30.376,255,30.709,255,31.043,255C31.377,255,31.711,222.7,32.045,222.7C32.378,222.7,32.712,255,33.046,255C33.38,255,33.713,255,34.047,255C34.381,255,34.715,212.5,35.049,212.5C35.382,212.5,35.716,212.5,36.05,212.5C36.384,212.5,36.718,212.5,37.051,212.5C37.385,212.5,37.719,212.5,38.053,212.5C38.387,212.5,38.72,212.5,39.054,212.5C39.388,212.5,39.722,170,40.056,170C40.389,170,40.723,170,41.057,170C41.391,170,41.725,172.833,42.058,178.5C42.392,184.167,42.726,212.5,43.06,212.5C43.394,212.5,43.727,212.5,44.061,212.5C44.395,212.5,44.729,212.5,45.063,212.5C45.396,212.5,45.73,171.417,46.064,170.85C46.398,170.283,46.732,170,47.065,170C47.399,170,47.733,170,48.067,170C48.401,170,48.734,0,49.068,0C49.402,0,49.736,0,50.07,0C50.403,0,50.737,0,51.071,0C51.405,0,51.739,0,52.072,0C52.406,0,52.74,0,53.074,0C53.408,0,53.741,0,54.075,0C54.409,0,54.743,0,55.076,0C55.41,0,55.744,0,56.078,0C56.412,0,56.745,0,57.079,0C57.413,0,57.747,0,58.081,0C58.414,0,58.748,0,59.082,0C59.416,0,59.75,0,60.083,0C60.417,0,60.751,0,61.085,0C61.419,0,61.752,0,62.086,0C62.42,0,62.754,0,63.088,0C63.421,0,63.755,0,64.089,0C64.423,0,64.757,0,65.09,0C65.424,0,65.758,0,66.092,0C66.426,0,66.759,0,67.093,0C67.427,0,67.761,0,68.095,0C68.428,0,68.762,0,69.096,0C69.43,0,69.764,170,70.097,170C70.431,170,70.765,0,71.099,0C71.433,0,71.766,0,72.1,0C72.434,0,72.768,170,73.102,170C73.435,170,73.769,0,74.103,0C74.437,0,74.771,0,75.104,0C75.438,0,75.772,0,76.106,0C76.439,0,76.773,0,77.107,0C77.441,0,77.775,0,78.108,0C78.442,0,78.776,0,79.11,0C79.444,0,79.777,0,80.111,0C80.445,0,80.779,0,81.113,0C81.446,0,81.78,0,82.114,0C82.448,0,82.782,0,83.115,0C83.449,0,83.783,0,84.117,0C84.451,0,84.784,0,85.118,0C85.452,0,85.786,0,86.12,0C86.453,0,86.787,0,87.121,0C87.455,0,87.789,0,88.122,0C88.456,0,88.79,0,89.124,0C89.458,0,89.791,0,90.125,0C90.459,0,90.793,0,91.127,0C91.46,0,91.794,170,92.128,170C92.462,170,92.796,170,93.129,170C93.463,170,93.797,170,94.131,170C94.465,170,94.798,170,95.132,170C95.466,170,95.8,170,96.134,170C96.467,170,96.801,170,97.135,170C97.469,170,97.803,170,98.136,170C98.47,170,98.804,170,99.138,170C99.471,170,99.805,170,100.139,170C100.473,170,100.807,170,101.14,170C101.474,170,101.808,170,102.142,170C102.476,170,102.809,170,103.143,170C103.477,170,103.811,170,104.145,170C104.478,170,104.812,0,105.146,0C105.48,0,105.814,0,106.147,0C106.481,0,106.815,0,107.149,0C107.483,0,107.816,0,108.15,0C108.484,0,108.818,0,109.152,0C109.485,0,109.819,0,110.153,0C110.487,0,110.821,0,111.154,0C111.488,0,111.822,0,112.156,0C112.49,0,112.823,0,113.157,0C113.491,0,113.825,0,114.159,0C114.492,0,114.826,0,115.16,0C115.494,0,115.828,184.167,116.161,212.5C116.495,240.833,116.829,255,117.163,255C117.497,255,117.83,255,118.164,255C118.498,255,118.832,255,119.166,255C119.499,255,119.833,255,120.167,255C120.501,255,120.834,255,121.168,255C121.502,255,121.836,255,122.17,255C122.503,255,122.837,221,123.171,221C123.505,221,123.839,221,124.172,221C124.506,221,124.84,221,125.174,221C125.508,221,125.841,255,126.175,255C126.509,255,126.843,212.5,127.177,212.5C127.51,212.5,127.844,212.5,128.178,212.5C128.512,212.5,128.846,0,129.179,0C129.513,0,129.847,141.667,130.181,170C130.515,198.333,130.848,212.5,131.182,212.5C131.516,212.5,131.85,0,132.184,0C132.517,0,132.851,170,133.185,170C133.519,170,133.853,170,134.186,170C134.52,170,134.854,0,135.188,0C135.522,0,135.855,136,136.189,178.5C136.523,221,136.857,255,137.191,255C137.524,255,137.858,255,138.192,255C138.526,255,138.86,255,139.193,255C139.527,255,139.861,255,140.195,255C140.529,255,140.862,255,141.196,255C141.53,255,141.864,255,142.197,255C142.531,255,142.865,255,143.199,255C143.533,255,143.866,255,144.2,255C144.534,255,144.868,255,145.202,255C145.535,255,145.869,255,146.203,255C146.537,255,146.871,255,147.204,255C147.538,255,147.872,255,148.206,255C148.54,255,148.873,255,149.207,255C149.541,255,149.875,255,150.209,255C150.542,255,150.876,0,151.21,0C151.544,0,151.878,0,152.211,0C152.545,0,152.879,0,153.213,0C153.547,0,153.88,0,154.214,0C154.548,0,154.882,0,155.216,0C155.549,0,155.883,0,156.217,0C156.551,0,156.885,0,157.218,0C157.552,0,157.886,0,158.22,0C158.554,0,158.887,0,159.221,0C159.555,0,159.889,0,160.223,0C160.556,0,160.89,0,161.224,0C161.558,0,161.892,0,162.225,0C162.559,0,162.893,0,163.227,0C163.561,0,163.894,0,164.228,0C164.562,0,164.896,0,165.229,0C165.563,0,165.897,0,166.231,0C166.565,0,166.898,0,167.232,0C167.566,0,167.9,0,168.234,0C168.567,0,168.901,0,169.235,0C169.569,0,169.903,0,170.236,0C170.57,0,170.904,0,171.238,0C171.572,0,171.905,0,172.239,0C172.573,0,172.907,0,173.241,0C173.574,0,173.908,0,174.242,0C174.576,0,174.91,0,175.243,0C175.577,0,175.911,0,176.245,0C176.579,0,176.912,0,177.246,0C177.58,0,177.914,0,178.248,0C178.581,0,178.915,0,179.249,0C179.583,0,179.917,0,180.25,0C180.584,0,180.918,0,181.252,0C181.586,0,181.919,0,182.253,0C182.587,0,182.921,0,183.255,0C183.588,0,183.922,0,184.256,0C184.59,0,184.924,0,185.257,0C185.591,0,185.925,0,186.259,0C186.592,0,186.926,0,187.26,0C187.594,0,187.928,0,188.261,0C188.595,0,188.929,0,189.263,0C189.597,0,189.93,0,190.264,0C190.598,0,190.932,0,191.266,0C191.599,0,191.933,0,192.267,0C192.601,0,192.935,0,193.268,0C193.602,0,193.936,0,194.27,0C194.604,0,194.937,0,195.271,0C195.605,0,195.939,0,196.273,0C196.606,0,196.94,0,197.274,0C197.608,0,197.942,0,198.275,0C198.609,0,198.943,0,199.277,0C199.611,0,199.944,340,200.278,340C200.612,340,200.946,340,201.28,340C201.613,340,201.947,0,202.281,0C202.615,0,202.949,0,203.282,0C203.616,0,203.95,0,204.284,0C204.618,0,204.951,0,205.285,0C205.619,0,205.953,0,206.287,0C206.62,0,206.954,0,207.288,0C207.622,0,207.955,0,208.289,0C208.623,0,208.957,0,209.291,0C209.624,0,209.958,0,210.292,0C210.626,0,210.96,0,211.293,0C211.627,0,211.961,0,212.295,0C212.629,0,212.962,0,213.296,0C213.63,0,213.964,0,214.298,0C214.631,0,214.965,0,215.299,0C215.633,0,215.967,0,216.3,0C216.634,0,216.968,0,217.302,0C217.636,0,217.969,0,218.303,0C218.637,0,218.971,0,219.305,0C219.638,0,219.972,0,220.306,0C220.64,0,220.974,0,221.307,0C221.641,0,221.975,0,222.309,0C222.643,0,222.976,0,223.31,0C223.644,0,223.978,0,224.312,0C224.645,0,224.979,0,225.313,0C225.647,0,225.981,0,226.314,0C226.648,0,226.982,0,227.316,0C227.65,0,227.983,0,228.317,0C228.651,0,228.985,0,229.318,0C229.652,0,229.986,0,230.32,0C230.654,0,230.987,0,231.321,0C231.655,0,231.989,0,232.323,0C232.656,0,232.99,0,233.324,0C233.658,0,233.992,0,234.325,0C234.659,0,234.993,0,235.327,0C235.661,0,235.994,0,236.328,0C236.662,0,236.996,0,237.33,0C237.663,0,237.997,0,238.331,0C238.665,0,238.999,0,239.332,0C239.666,0,240,0,240.334,0C240.668,0,241.001,0,241.335,0C241.669,0,242.003,0,242.337,0C242.67,0,243.004,0,243.338,0C243.672,0,244.006,0,244.339,0C244.673,0,245.007,0,245.341,0C245.675,0,246.008,0,246.342,0C246.676,0,247.01,0,247.344,0C247.677,0,248.011,0,248.345,0C248.679,0,249.013,0,249.346,0C249.68,0,250.014,0,250.348,0C250.682,0,251.015,0,251.349,0C251.683,0,252.017,0,252.35,0C252.684,0,253.018,0,253.352,0C253.686,0,254.019,0,254.353,0C254.687,0,255.021,0,255.355,0C255.688,0,256.022,0,256.356,0C256.69,0,257.024,0,257.357,0C257.691,0,258.025,0,258.359,0C258.693,0,259.026,0,259.36,0C259.694,0,260.028,0,260.362,0C260.695,0,261.029,0,261.363,0C261.697,0,262.031,0,262.364,0C262.698,0,263.032,0,263.366,0C263.7,0,264.033,0,264.367,0C264.701,0,265.035,0,265.369,0C265.702,0,266.036,0,266.37,0C266.704,0,267.038,0,267.371,0C267.705,0,268.039,0,268.373,0C268.707,0,269.04,0,269.374,0C269.708,0,270.042,0,270.376,0C270.709,0,271.043,0,271.377,0C271.711,0,272.045,0,272.378,0C272.712,0,273.046,0,273.38,0C273.713,0,274.047,0,274.381,0C274.715,0,275.049,0,275.382,0C275.716,0,276.05,0,276.384,0C276.718,0,277.051,0,277.385,0C277.719,0,278.053,0,278.387,0C278.72,0,279.054,0,279.388,0C279.722,0,280.056,0,280.389,0C280.723,0,281.057,0,281.391,0C281.725,0,282.058,0,282.392,0C282.726,0,283.06,0,283.394,0C283.727,0,284.061,0,284.395,0C284.729,0,285.063,0,285.396,0C285.73,0,286.064,0,286.398,0C286.732,0,287.065,0,287.399,0C287.733,0,288.067,0,288.401,0C288.734,0,289.068,0,289.402,0C289.736,0,290.07,0,290.403,0C290.737,0,291.071,0,291.405,0C291.739,0,292.072,0,292.406,0C292.74,0,293.074,0,293.408,0C293.741,0,294.075,0,294.409,0C294.743,0,295.076,0,295.41,0C295.744,0,296.078,0,296.412,0C296.745,0,297.079,0,297.413,0C297.747,0,298.081,0,298.414,0C298.748,0,299.082,0,299.416,0C299.75,0,300.083,0,300.417,0C300.751,0,301.085,0,301.419,0C301.752,0,302.086,0,302.42,0C302.754,0,303.088,0,303.421,0C303.755,0,304.089,0,304.423,0C304.757,0,305.09,0,305.424,0C305.758,0,306.092,0,306.426,0C306.759,0,307.093,0,307.427,0C307.761,0,308.095,0,308.428,0C308.762,0,309.096,0,309.43,0C309.764,0,310.097,0,310.431,0C310.765,0,311.099,0,311.433,0C311.766,0,312.1,0,312.434,0C312.768,0,313.102,0,313.435,0C313.769,0,314.103,0,314.437,0C314.771,0,315.104,0,315.438,0C315.772,0,316.106,0,316.439,0C316.773,0,317.107,0,317.441,0C317.775,0,318.108,0,318.442,0C318.776,0,319.11,0,319.444,0C319.777,0,320.111,0,320.445,0C320.779,0,321.113,0,321.446,0C321.78,0,322.114,0,322.448,0C322.782,0,323.115,0,323.449,0C323.783,0,324.117,0,324.451,0C324.784,0,325.118,0,325.452,0C325.786,0,326.12,0,326.453,0C326.787,0,327.121,0,327.455,0C327.789,0,328.122,0,328.456,0C328.79,0,329.124,0,329.458,0C329.791,0,330.125,0,330.459,0C330.793,0,331.127,0,331.46,0C331.794,0,332.128,0,332.462,0C332.796,0,333.129,0,333.463,0C333.797,0,334.131,0,334.465,0C334.798,0,335.132,0,335.466,0C335.8,0,336.134,0,336.467,0C336.801,0,337.135,0,337.469,0C337.803,0,338.136,0,338.47,0C338.804,0,339.138,0,339.471,0C339.805,0,340.139,0,340.473,0C340.807,0,341.14,0,341.474,0C341.808,0,342.142,0,342.476,0C342.809,0,343.143,0,343.477,0C343.811,0,344.145,0,344.478,0C344.812,0,345.146,0,345.48,0C345.814,0,346.147,0,346.481,0C346.815,0,347.149,0,347.483,0C347.816,0,348.15,0,348.484,0C348.818,0,349.152,0,349.485,0C349.819,0,350.153,0,350.487,0C350.821,0,351.154,0,351.488,0C351.822,0,352.156,0,352.49,0C352.823,0,353.157,0,353.491,0C353.825,0,354.159,0,354.492,0C354.826,0,355.16,0,355.494,0C355.828,0,356.161,0,356.495,0C356.829,0,357.163,0,357.497,0C357.83,0,358.164,0,358.498,0C358.832,0,359.166,0,359.499,0C359.833,0,360.167,0,360.501,0C360.834,0,361.168,0,361.502,0C361.836,0,362.17,0,362.503,0C362.837,0,363.171,0,363.505,0C363.839,0,364.172,0,364.506,0C364.84,0,365.174,0,365.508,0C365.841,0,366.175,0,366.509,0C366.843,0,367.177,0,367.51,0C367.844,0,368.178,0,368.512,0C368.846,0,369.179,0,369.513,0C369.847,0,370.181,0,370.515,0C370.848,0,371.182,0,371.516,0C371.85,0,372.184,0,372.517,0C372.851,0,373.185,0,373.519,0C373.853,0,374.186,0,374.52,0C374.854,0,375.188,0,375.522,0C375.855,0,376.189,0,376.523,0C376.857,0,377.191,0,377.524,0C377.858,0,378.192,0,378.526,0C378.86,0,379.193,0,379.527,0C379.861,0,380.195,0,380.529,0C380.862,0,381.196,0,381.53,0C381.864,0,382.197,0,382.531,0C382.865,0,383.199,0,383.533,0C383.866,0,384.2,0,384.534,0C384.868,0,385.202,0,385.535,0C385.869,0,386.203,0,386.537,0C386.871,0,387.204,0,387.538,0C387.872,0,388.206,0,388.54,0C388.873,0,389.207,0,389.541,0C389.875,0,390.209,0,390.542,0C390.876,0,391.21,0,391.544,0C391.878,0,392.211,0,392.545,0C392.879,0,393.213,0,393.547,0C393.88,0,394.214,0,394.548,0C394.882,0,395.216,0,395.549,0C395.883,0,396.217,0,396.551,0C396.885,0,397.218,0,397.552,0C397.886,0,398.22,0,398.554,0C398.887,0,399.221,0,399.555,0C399.889,0,400.223,0,400.556,0C400.89,0,401.224,0,401.558,0C401.892,0,402.225,0,402.559,0C402.893,0,403.227,0,403.561,0C403.894,0,404.228,0,404.562,0C404.896,0,405.229,0,405.563,0C405.897,0,406.231,0,406.565,0C406.898,0,407.232,0,407.566,0C407.9,0,408.234,0,408.567,0C408.901,0,409.235,0,409.569,0C409.903,0,410.236,0,410.57,0C410.904,0,411.238,0,411.572,0C411.905,0,412.239,0,412.573,0C412.907,0,413.241,0,413.574,0C413.908,0,414.242,0,414.576,0C414.91,0,415.243,0,415.577,0C415.911,0,416.245,0,416.579,0C416.912,0,417.246,0,417.58,0C417.914,0,418.248,0,418.581,0C418.915,0,419.249,0,419.583,0C419.917,0,420.25,0,420.584,0C420.918,0,421.252,0,421.586,0C421.919,0,422.253,0,422.587,0C422.921,0,423.255,0,423.588,0C423.922,0,424.256,0,424.59,0C424.924,0,425.257,0,425.591,0C425.925,0,426.259,0,426.592,0C426.926,0,427.26,0,427.594,0C427.928,0,428.261,0,428.595,0C428.929,0,429.263,0,429.597,0C429.93,0,430.264,0,430.598,0C430.932,0,431.266,0,431.599,0C431.933,0,432.267,0,432.601,0C432.935,0,433.268,0,433.602,0C433.936,0,434.27,0,434.604,0C434.937,0,435.271,0,435.605,0C435.939,0,436.273,0,436.606,0C436.94,0,437.274,0,437.608,0C437.942,0,438.275,0,438.609,0C438.943,0,439.277,0,439.611,0C439.944,0,440.278,0,440.612,0C440.946,0,441.28,0,441.613,0C441.947,0,442.281,0,442.615,0C442.949,0,443.282,0,443.616,0C443.95,0,444.284,0,444.618,0C444.951,0,445.285,0,445.619,0C445.953,0,446.287,0,446.62,0C446.954,0,447.288,0,447.622,0C447.955,0,448.289,0,448.623,0C448.957,0,449.291,0,449.624,0C449.958,0,450.292,0,450.626,0C450.96,0,451.293,0,451.627,0C451.961,0,452.295,0,452.629,0C452.962,0,453.296,0,453.63,0C453.964,0,454.298,0,454.631,0C454.965,0,455.299,0,455.633,0C455.967,0,456.3,0,456.634,0C456.968,0,457.302,0,457.636,0C457.969,0,458.303,0,458.637,0C458.971,0,459.305,0,459.638,0C459.972,0,460.306,0,460.64,0C460.974,0,461.307,0,461.641,0C461.975,0,462.309,0,462.643,0C462.976,0,463.31,0,463.644,0C463.978,0,464.312,0,464.645,0C464.979,0,465.313,0,465.647,0C465.981,0,466.314,0,466.648,0C466.982,0,467.316,0,467.65,0C467.983,0,468.317,0,468.651,0C468.985,0,469.318,0,469.652,0C469.986,0,470.32,0,470.654,0C470.987,0,471.321,0,471.655,0C471.989,0,472.323,0,472.656,0C472.99,0,473.324,0,473.658,0C473.992,0,474.325,0,474.659,0C474.993,0,475.327,0,475.661,0C475.994,0,476.328,0,476.662,0C476.996,0,477.33,0,477.663,0C477.997,0,478.331,340,478.665,340C478.999,340,479.332,340,479.666,340C480,340,480.334,340,480.668,340C481.001,340,481.335,340,481.669,340C482.003,340,482.337,0,482.67,0C483.004,0,483.338,0,483.672,0C484.006,0,484.339,0,484.673,0C485.007,0,485.341,0,485.675,0C486.008,0,486.342,0,486.676,0C487.01,0,487.344,0,487.677,0C488.011,0,488.345,0,488.679,0C489.013,0,489.346,0,489.68,0C490.014,0,490.348,0,490.682,0C491.015,0,491.349,0,491.683,0C492.017,0,492.35,0,492.684,0C493.018,0,493.352,0,493.686,0C494.019,0,494.353,340,494.687,340C495.021,340,495.355,0,495.688,0C496.022,0,496.356,340,496.69,340C497.024,340,497.357,340,497.691,340C498.025,340,498.359,340,498.693,340C499.026,340,499.36,340,499.694,340C500.028,340,500.362,340,500.695,340C501.029,340,501.363,340,501.697,340C502.031,340,502.364,340,502.698,340C503.032,340,503.366,340,503.7,340C504.033,340,504.367,340,504.701,340C505.035,340,505.369,340,505.702,340C506.036,340,506.37,340,506.704,340C507.038,340,507.371,340,507.705,340C508.039,340,508.373,340,508.707,340C509.04,340,509.374,340,509.708,340C510.042,340,510.376,340,510.709,340C511.043,340,511.377,340,511.711,340C512.045,340,512.378,340,512.712,340C513.046,340,513.38,340,513.713,340C514.047,340,514.381,340,514.715,340C515.049,340,515.382,340,515.716,340C516.05,340,516.384,340,516.718,340C517.051,340,517.385,340,517.719,340C518.053,340,518.387,340,518.72,340C519.054,340,519.388,0,519.722,0C520.056,0,520.389,0,520.723,0C521.057,0,521.391,0,521.725,0C522.058,0,522.392,0,522.726,0C523.06,0,523.394,0,523.727,0C524.061,0,524.395,0,524.729,0C525.063,0,525.396,0,525.73,0C526.064,0,526.398,0,526.732,0C527.065,0,527.399,0,527.733,0C528.067,0,528.401,0,528.734,0C529.068,0,529.402,0,529.736,0C530.07,0,530.403,340,530.737,340C531.071,340,531.405,340,531.739,340C532.072,340,532.406,340,532.74,340C533.074,340,533.408,340,533.741,340C534.075,340,534.409,340,534.743,340C535.076,340,535.41,340,535.744,340C536.078,340,536.412,340,536.745,340C537.079,340,537.413,340,537.747,340C538.081,340,538.414,340,538.748,340C539.082,340,539.416,340,539.75,340C540.083,340,540.417,340,540.751,340C541.085,340,541.419,340,541.752,340C542.086,340,542.42,340,542.754,340C543.088,340,543.421,340,543.755,340C544.089,340,544.423,340,544.757,340C545.09,340,545.424,340,545.758,340C546.092,340,546.426,340,546.759,340C547.093,340,547.427,340,547.761,340C548.095,340,548.428,340,548.762,340C549.096,340,549.43,340,549.764,340C550.097,340,550.431,340,550.765,340C551.099,340,551.433,340,551.766,340C552.1,340,552.434,340,552.768,340C553.102,340,553.435,340,553.769,340C554.103,340,554.437,340,554.771,340C555.104,340,555.438,340,555.772,340C556.106,340,556.439,340,556.773,340C557.107,340,557.441,340,557.775,340C558.108,340,558.442,340,558.776,340C559.11,340,559.444,340,559.777,340C560.111,340,560.445,340,560.779,340C561.113,340,561.446,340,561.78,340C562.114,340,562.448,340,562.782,340C563.115,340,563.449,0,563.783,0C564.117,0,564.451,340,564.784,340C565.118,340,565.452,340,565.786,340C566.12,340,566.453,340,566.787,340C567.121,340,567.455,340,567.789,340C568.122,340,568.456,340,568.79,340C569.124,340,569.458,340,569.791,340C570.125,340,570.459,0,570.793,0C571.127,0,571.46,340,571.794,340C572.128,340,572.462,0,572.796,0C573.129,0,573.463,340,573.797,340C574.131,340,574.465,340,574.798,340C575.132,340,575.466,340,575.8,340C576.134,340,576.467,340,576.801,340C577.135,340,577.469,340,577.803,340C578.136,340,578.47,340,578.804,340C579.138,340,579.471,0,579.805,0C580.139,0,580.473,340,580.807,340C581.14,340,581.474,340,581.808,340C582.142,340,582.476,0,582.809,0C583.143,0,583.477,0,583.811,0C584.145,0,584.478,0,584.812,0C585.146,0,585.48,340,585.814,340C586.147,340,586.481,340,586.815,340C587.149,340,587.483,0,587.816,0C588.15,0,588.484,340,588.818,340C589.152,340,589.485,0,589.819,0C590.153,0,590.487,0,590.821,0C591.154,0,591.488,340,591.822,340C592.156,340,592.49,340,592.823,340C593.157,340,593.491,340,593.825,340C594.159,340,594.492,340,594.826,340C595.16,340,595.494,340,595.828,340C596.161,340,596.495,340,596.829,340C597.163,340,597.497,340,597.83,340C598.164,340,598.498,340,598.832,340C599.166,340,599.499,340,599.833,340C600.167,340,600.501,340,600.834,340C601.168,340,601.502,340,601.836,340C602.17,340,602.503,340,602.837,340C603.171,340,603.505,340,603.839,340C604.172,340,604.506,340,604.84,340C605.174,340,605.508,340,605.841,340C606.175,340,606.509,340,606.843,340C607.177,340,607.51,340,607.844,340C608.178,340,608.512,340,608.846,340C609.179,340,609.513,340,609.847,340C610.181,340,610.515,340,610.848,340C611.182,340,611.516,340,611.85,340C612.184,340,612.517,340,612.851,340C613.185,340,613.519,340,613.853,340C614.186,340,614.52,340,614.854,340C615.188,340,615.522,340,615.855,340C616.189,340,616.523,340,616.857,340C617.191,340,617.524,340,617.858,340C618.192,340,618.526,340,618.86,340C619.193,340,619.527,340,619.861,340C620.195,340,620.529,340,620.862,340C621.196,340,621.53,340,621.864,340C622.197,340,622.531,340,622.865,340C623.199,340,623.533,340,623.866,340C624.2,340,624.534,340,624.868,340C625.202,340,625.535,340,625.869,340C626.203,340,626.537,340,626.871,340C627.204,340,627.538,340,627.872,340C628.206,340,628.54,340,628.873,340C629.207,340,629.541,340,629.875,340C630.209,340,630.542,340,630.876,340C631.21,340,631.544,340,631.878,340C632.211,340,632.545,340,632.879,340C633.213,340,633.547,340,633.88,340C634.214,340,634.548,340,634.882,340C635.216,340,635.549,340,635.883,340C636.217,340,636.551,340,636.885,340C637.218,340,637.552,340,637.886,340C638.22,340,638.554,340,638.887,340C639.221,340,639.555,340,639.889,340C640.223,340,640.556,340,640.89,340C641.224,340,641.558,340,641.892,340C642.225,340,642.559,340,642.893,340C643.227,340,643.561,340,643.894,340C644.228,340,644.562,340,644.896,340C645.229,340,645.563,340,645.897,340C646.231,340,646.565,340,646.898,340C647.232,340,647.566,340,647.9,340C648.234,340,648.567,340,648.901,340C649.235,340,649.569,340,649.903,340C650.236,340,650.57,340,650.904,340C651.238,340,651.572,340,651.905,340C652.239,340,652.573,340,652.907,340C653.241,340,653.574,340,653.908,340C654.242,340,654.576,340,654.91,340C655.243,340,655.577,340,655.911,340C656.245,340,656.579,340,656.912,340C657.246,340,657.58,340,657.914,340C658.248,340,658.581,340,658.915,340C659.249,340,659.583,340,659.917,340C660.25,340,660.584,340,660.918,340C661.252,340,661.586,340,661.919,340C662.253,340,662.587,340,662.921,340C663.255,340,663.588,340,663.922,340C664.256,340,664.59,340,664.924,340C665.257,340,665.591,340,665.925,340C666.259,340,666.592,340,666.926,340C667.26,340,667.594,340,667.928,340C668.261,340,668.595,340,668.929,340C669.263,340,669.597,340,669.93,340C670.264,340,670.598,340,670.932,340C671.266,340,671.599,340,671.933,340C672.267,340,672.601,340,672.935,340C673.268,340,673.602,340,673.936,340C674.27,340,674.604,340,674.937,340C675.271,340,675.605,340,675.939,340C676.273,340,676.606,340,676.94,340C677.274,340,677.608,340,677.942,340C678.275,340,678.609,340,678.943,340C679.277,340,679.611,340,679.944,340C680.278,340,680.612,340,680.946,340C681.28,340,681.613,340,681.947,340C682.281,340,682.615,0,682.949,0C683.282,0,683.616,0,683.95,0C684.284,0,684.618,340,684.951,340C685.285,340,685.619,340,685.953,340C686.287,340,686.62,340,686.954,340C687.288,340,687.622,340,687.955,340C688.289,340,688.623,340,688.957,340C689.291,340,689.624,340,689.958,340C690.292,340,690.626,340,690.96,340C691.293,340,691.627,340,691.961,340C692.295,340,692.629,340,692.962,340C693.296,340,693.63,340,693.964,340C694.298,340,694.631,340,694.965,340C695.299,340,695.633,340,695.967,340C696.3,340,696.634,340,696.968,340C697.302,340,697.636,0,697.969,0C698.303,0,698.637,0,698.971,0C699.305,0,699.638,340,699.972,340C700.306,340,700.64,0,700.974,0C701.307,0,701.641,0,701.975,0C702.309,0,702.643,0,702.976,0C703.31,0,703.644,340,703.978,340C704.312,340,704.645,0,704.979,0C705.313,0,705.647,340,705.981,340C706.314,340,706.648,0,706.982,0C707.316,0,707.65,0,707.983,0C708.317,0,708.651,0,708.985,0C709.318,0,709.652,0,709.986,0C710.32,0,710.654,0,710.987,0C711.321,0,711.655,340,711.989,340C712.323,340,712.656,0,712.99,0C713.324,0,713.658,0,713.992,0C714.325,0,714.659,0,714.993,0C715.327,0,715.661,0,715.994,0C716.328,0,716.662,0,716.996,0C717.33,0,717.663,0,717.997,0C718.331,0,718.665,0,718.999,0C719.332,0,719.666,0,720,0"></path><circle class="dot" cx="0" cy="170.00000000000003" r="3" fill="#2563eb"></circle><circle class="dot" cx="1.0013908205841446" cy="170.00000000000003" r="3" fill="#2563eb"></circle><circle class="dot" cx="2.0027816411682893" cy="0" r="3" fill="#2563eb"></circle><circle class="dot" cx="3.004172461752434" cy="0" r="3" fill="#2563eb"></circle><circle class="dot" cx="4.0055632823365785" cy="0" r="3" fill="#2563eb"></circle><circle class="dot" cx="5.006954102920724" cy="0" r="3" fill="#2563eb"></circle><circle class="dot" cx="6.008344923504868" cy="0" r="3" fill="#2563eb"></circle><circle class="dot" cx="7.009735744089013" cy="0" r="3" fill="#2563eb"></circle><circle class="dot" cx="8.011126564673157" cy="0" r="3" fill="#2563eb"></circle><circle class="dot" cx="9.0125173852573" cy="170.00000000000003" r="3" fill="#2563eb"></circle><circle class="dot" cx="10.013908205841448" cy="170.00000000000003" r="3" fill="#2563eb"></circle><circle class="dot" cx="11.015299026425591" cy="0" r="3" fill="#2563eb"></circle><circle class="dot" cx="12.016689847009737" cy="0" r="3" fill="#2563eb"></circle><circle class="dot" cx="13.018080667593882" cy="170.00000000000003" r="3" fill="#2563eb"></circle><circle class="dot" cx="14.019471488178025" cy="170.00000000000003" r="3" fill="#2563eb"></circle><circle class="dot" cx="15.02086230876217" cy="170.00000000000003" r="3" fill="#2563eb"></circle><circle class="dot" cx="16.022253129346314" cy="170.00000000000003" r="3" fill="#2563eb"></circle><circle class="dot" cx="17.02364394993046" cy="170.00000000000003" r="3" fill="#2563eb"></circle><circle class="dot" cx="18.0250347705146" cy="170.00000000000003" r="3" fill="#2563eb"></circle><circle class="dot" cx="19.026425591098747" cy="170.00000000000003" r="3" fill="#2563eb"></circle><circle class="dot" cx="20.027816411682895" cy="170.00000000000003" r="3" fill="#2563eb"></circle><circle class="dot" cx="21.029207232267037" cy="170.00000000000003" r="3" fill="#2563eb"></circle><circle class="dot" cx="22.030598052851182" cy="170.00000000000003" r="3" fill="#2563eb"></circle><circle class="dot" cx="23.031988873435328" cy="170.00000000000003" r="3" fill="#2563eb"></circle><circle class="dot" cx="24.033379694019473" cy="170.00000000000003" r="3" fill="#2563eb"></circle><circle class="dot" cx="25.034770514603615" cy="170.00000000000003" r="3" fill="#2563eb"></circle><circle class="dot" cx="26.036161335187764" cy="255" r="3" fill="#2563eb"></circle><circle class="dot" cx="27.037552155771905" cy="255" r="3" fill="#2563eb"></circle><circle class="dot" cx="28.03894297635605" cy="255" r="3" fill="#2563eb"></circle><circle class="dot" cx="29.040333796940192" cy="255" r="3" fill="#2563eb"></circle><circle class="dot" cx="30.04172461752434" cy="255" r="3" fill="#2563eb"></circle><circle class="dot" cx="31.043115438108483" cy="255" r="3" fill="#2563eb"></circle><circle class="dot" cx="32.04450625869263" cy="222.70000000000002" r="3" fill="#2563eb"></circle><circle class="dot" cx="33.04589707927678" cy="255" r="3" fill="#2563eb"></circle><circle class="dot" cx="34.04728789986092" cy="255" r="3" fill="#2563eb"></circle><circle class="dot" cx="35.04867872044506" cy="212.5" r="3" fill="#2563eb"></circle><circle class="dot" cx="36.0500695410292" cy="212.5" r="3" fill="#2563eb"></circle><circle class="dot" cx="37.05146036161335" cy="212.5" r="3" fill="#2563eb"></circle><circle class="dot" cx="38.05285118219749" cy="212.5" r="3" fill="#2563eb"></circle><circle class="dot" cx="39.05424200278164" cy="212.5" r="3" fill="#2563eb"></circle><circle class="dot" cx="40.05563282336579" cy="170.00000000000003" r="3" fill="#2563eb"></circle><circle class="dot" cx="41.05702364394993" cy="170.00000000000003" r="3" fill="#2563eb"></circle><circle class="dot" cx="42.058414464534074" cy="178.49999999999997" r="3" fill="#2563eb"></circle><circle class="dot" cx="43.059805285118216" cy="212.5" r="3" fill="#2563eb"></circle><circle class="dot" cx="44.061196105702365" cy="212.5" r="3" fill="#2563eb"></circle><circle class="dot" cx="45.06258692628651" cy="212.5" r="3" fill="#2563eb"></circle><circle class="dot" cx="46.063977746870655" cy="170.85" r="3" fill="#2563eb"></circle><circle class="dot" cx="47.0653685674548" cy="170.00000000000003" r="3" fill="#2563eb"></circle><circle class="dot" cx="48.066759388038946" cy="170.00000000000003" r="3" fill="#2563eb"></circle><circle class="dot" cx="49.068150208623095" cy="0" r="3" fill="#2563eb"></circle><circle class="dot" cx="50.06954102920723" cy="0" r="3" fill="#2563eb"></circle><circle class="dot" cx="51.07093184979138" cy="0" r="3" fill="#2563eb"></circle><circle class="dot" cx="52.07232267037553" cy="0" r="3" fill="#2563eb"></circle><circle class="dot" cx="53.07371349095966" cy="0" r="3" fill="#2563eb"></circle><circle class="dot" cx="54.07510431154381" cy="0" r="3" fill="#2563eb"></circle><circle class="dot" cx="55.07649513212795" cy="0" r="3" fill="#2563eb"></circle><circle class="dot" cx="56.0778859527121" cy="0" r="3" fill="#2563eb"></circle><circle class="dot" cx="57.07927677329625" cy="0" r="3" fill="#2563eb"></circle><circle class="dot" cx="58.080667593880385" cy="0" r="3" fill="#2563eb"></circle><circle class="dot" cx="59.082058414464534" cy="0" r="3" fill="#2563eb"></circle><circle class="dot" cx="60.08344923504868" cy="0" r="3" fill="#2563eb"></circle><circle class="dot" cx="61.08484005563282" cy="0" r="3" fill="#2563eb"></circle><circle class="dot" cx="62.086230876216966" cy="0" r="3" fill="#2563eb"></circle><circle class="dot" cx="63.087621696801115" cy="0" r="3" fill="#2563eb"></circle><circle class="dot" cx="64.08901251738526" cy="0" r="3" fill="#2563eb"></circle><circle class="dot" cx="65.0904033379694" cy="0" r="3" fill="#2563eb"></circle><circle class="dot" cx="66.09179415855355" cy="0" r="3" fill="#2563eb"></circle><circle class="dot" cx="67.09318497913769" cy="0" r="3" fill="#2563eb"></circle><circle class="dot" cx="68.09457579972184" cy="0" r="3" fill="#2563eb"></circle><circle class="dot" cx="69.09596662030599" cy="0" r="3" fill="#2563eb"></circle><circle class="dot" cx="70.09735744089012" cy="170.00000000000003" r="3" fill="#2563eb"></circle><circle class="dot" cx="71.09874826147427" cy="0" r="3" fill="#2563eb"></circle><circle class="dot" cx="72.1001390820584" cy="0" r="3" fill="#2563eb"></circle><circle class="dot" cx="73.10152990264255" cy="170.00000000000003" r="3" fill="#2563eb"></circle><circle class="dot" cx="74.1029207232267" cy="0" r="3" fill="#2563eb"></circle><circle class="dot" cx="75.10431154381084" cy="0" r="3" fill="#2563eb"></circle><circle class="dot" cx="76.10570236439499" cy="0" r="3" fill="#2563eb"></circle><circle class="dot" cx="77.10709318497914" cy="0" r="3" fill="#2563eb"></circle><circle class="dot" cx="78.10848400556328" cy="0" r="3" fill="#2563eb"></circle><circle class="dot" cx="79.10987482614743" cy="0" r="3" fill="#2563eb"></circle><circle class="dot" cx="80.11126564673158" cy="0" r="3" fill="#2563eb"></circle><circle class="dot" cx="81.11265646731572" cy="0" r="3" fill="#2563eb"></circle><circle class="dot" cx="82.11404728789987" cy="0" r="3" fill="#2563eb"></circle><circle class="dot" cx="83.11543810848401" cy="0" r="3" fill="#2563eb"></circle><circle class="dot" cx="84.11682892906815" cy="0" r="3" fill="#2563eb"></circle><circle class="dot" cx="85.1182197496523" cy="0" r="3" fill="#2563eb"></circle><circle class="dot" cx="86.11961057023643" cy="0" r="3" fill="#2563eb"></circle><circle class="dot" cx="87.12100139082058" cy="0" r="3" fill="#2563eb"></circle><circle class="dot" cx="88.12239221140473" cy="0" r="3" fill="#2563eb"></circle><circle class="dot" cx="89.12378303198886" cy="0" r="3" fill="#2563eb"></circle><circle class="dot" cx="90.12517385257301" cy="0" r="3" fill="#2563eb"></circle><circle class="dot" cx="91.12656467315716" cy="0" r="3" fill="#2563eb"></circle><circle class="dot" cx="92.12795549374131" cy="170.00000000000003" r="3" fill="#2563eb"></circle><circle class="dot" cx="93.12934631432545" cy="170.00000000000003" r="3" fill="#2563eb"></circle><circle class="dot" cx="94.1307371349096" cy="170.00000000000003" r="3" fill="#2563eb"></circle><circle class="dot" cx="95.13212795549374" cy="170.00000000000003" r="3" fill="#2563eb"></circle><circle class="dot" cx="96.13351877607789" cy="170.00000000000003" r="3" fill="#2563eb"></circle><circle class="dot" cx="97.13490959666203" cy="170.00000000000003" r="3" fill="#2563eb"></circle><circle class="dot" cx="98.13630041724619" cy="170.00000000000003" r="3" fill="#2563eb"></circle><circle class="dot" cx="99.13769123783032" cy="170.00000000000003" r="3" fill="#2563eb"></circle><circle class="dot" cx="100.13908205841446" cy="170.00000000000003" r="3" fill="#2563eb"></circle><circle class="dot" cx="101.14047287899862" cy="170.00000000000003" r="3" fill="#2563eb"></circle><circle class="dot" cx="102.14186369958276" cy="170.00000000000003" r="3" fill="#2563eb"></circle><circle class="dot" cx="103.14325452016689" cy="170.00000000000003" r="3" fill="#2563eb"></circle><circle class="dot" cx="104.14464534075105" cy="170.00000000000003" r="3" fill="#2563eb"></circle><circle class="dot" cx="105.14603616133519" cy="0" r="3" fill="#2563eb"></circle><circle class="dot" cx="106.14742698191932" cy="0" r="3" fill="#2563eb"></circle><circle class="dot" cx="107.14881780250349" cy="0" r="3" fill="#2563eb"></circle><circle class="dot" cx="108.15020862308762" cy="0" r="3" fill="#2563eb"></circle><circle class="dot" cx="109.15159944367176" cy="0" r="3" fill="#2563eb"></circle><circle class="dot" cx="110.1529902642559" cy="0" r="3" fill="#2563eb"></circle><circle class="dot" cx="111.15438108484005" cy="0" r="3" fill="#2563eb"></circle><circle class="dot" cx="112.1557719054242" cy="0" r="3" fill="#2563eb"></circle><circle class="dot" cx="113.15716272600834" cy="0" r="3" fill="#2563eb"></circle><circle class="dot" cx="114.1585535465925" cy="0" r="3" fill="#2563eb"></circle><circle class="dot" cx="115.15994436717664" cy="0" r="3" fill="#2563eb"></circle><circle class="dot" cx="116.16133518776077" cy="212.5" r="3" fill="#2563eb"></circle><circle class="dot" cx="117.16272600834493" cy="255" r="3" fill="#2563eb"></circle><circle class="dot" cx="118.16411682892907" cy="255" r="3" fill="#2563eb"></circle><circle class="dot" cx="119.1655076495132" cy="255" r="3" fill="#2563eb"></circle><circle class="dot" cx="120.16689847009737" cy="255" r="3" fill="#2563eb"></circle><circle class="dot" cx="121.1682892906815" cy="255" r="3" fill="#2563eb"></circle><circle class="dot" cx="122.16968011126563" cy="255" r="3" fill="#2563eb"></circle><circle class="dot" cx="123.1710709318498" cy="221" r="3" fill="#2563eb"></circle><circle class="dot" cx="124.17246175243393" cy="221" r="3" fill="#2563eb"></circle><circle class="dot" cx="125.17385257301808" cy="221" r="3" fill="#2563eb"></circle><circle class="dot" cx="126.17524339360223" cy="255" r="3" fill="#2563eb"></circle><circle class="dot" cx="127.17663421418636" cy="212.5" r="3" fill="#2563eb"></circle><circle class="dot" cx="128.1780250347705" cy="212.5" r="3" fill="#2563eb"></circle><circle class="dot" cx="129.17941585535468" cy="0" r="3" fill="#2563eb"></circle><circle class="dot" cx="130.1808066759388" cy="170.00000000000003" r="3" fill="#2563eb"></circle><circle class="dot" cx="131.18219749652295" cy="212.5" r="3" fill="#2563eb"></circle><circle class="dot" cx="132.1835883171071" cy="0" r="3" fill="#2563eb"></circle><circle class="dot" cx="133.18497913769124" cy="170.00000000000003" r="3" fill="#2563eb"></circle><circle class="dot" cx="134.18636995827538" cy="170.00000000000003" r="3" fill="#2563eb"></circle><circle class="dot" cx="135.18776077885954" cy="0" r="3" fill="#2563eb"></circle><circle class="dot" cx="136.18915159944368" cy="178.49999999999997" r="3" fill="#2563eb"></circle><circle class="dot" cx="137.1905424200278" cy="255" r="3" fill="#2563eb"></circle><circle class="dot" cx="138.19193324061197" cy="255" r="3" fill="#2563eb"></circle><circle class="dot" cx="139.1933240611961" cy="255" r="3" fill="#2563eb"></circle><circle class="dot" cx="140.19471488178024" cy="255" r="3" fill="#2563eb"></circle><circle class="dot" cx="141.19610570236438" cy="255" r="3" fill="#2563eb"></circle><circle class="dot" cx="142.19749652294854" cy="255" r="3" fill="#2563eb"></circle><circle class="dot" cx="143.19888734353268" cy="255" r="3" fill="#2563eb"></circle><circle class="dot" cx="144.2002781641168" cy="255" r="3" fill="#2563eb"></circle><circle class="dot" cx="145.20166898470097" cy="255" r="3" fill="#2563eb"></circle><circle class="dot" cx="146.2030598052851" cy="255" r="3" fill="#2563eb"></circle><circle class="dot" cx="147.20445062586924" cy="255" r="3" fill="#2563eb"></circle><circle class="dot" cx="148.2058414464534" cy="255" r="3" fill="#2563eb"></circle><circle class="dot" cx="149.20723226703754" cy="255" r="3" fill="#2563eb"></circle><circle class="dot" cx="150.20862308762167" cy="255" r="3" fill="#2563eb"></circle><circle class="dot" cx="151.21001390820584" cy="0" r="3" fill="#2563eb"></circle><circle class="dot" cx="152.21140472878997" cy="0" r="3" fill="#2563eb"></circle><circle class="dot" cx="153.21279554937414" cy="0" r="3" fill="#2563eb"></circle><circle class="dot" cx="154.21418636995827" cy="0" r="3" fill="#2563eb"></circle><circle class="dot" cx="155.21557719054243" cy="0" r="3" fill="#2563eb"></circle><circle class="dot" cx="156.21696801112657" cy="0" r="3" fill="#2563eb"></circle><circle class="dot" cx="157.2183588317107" cy="0" r="3" fill="#2563eb"></circle><circle class="dot" cx="158.21974965229487" cy="0" r="3" fill="#2563eb"></circle><circle class="dot" cx="159.221140472879" cy="0" r="3" fill="#2563eb"></circle><circle class="dot" cx="160.22253129346316" cy="0" r="3" fill="#2563eb"></circle><circle class="dot" cx="161.2239221140473" cy="0" r="3" fill="#2563eb"></circle><circle class="dot" cx="162.22531293463143" cy="0" r="3" fill="#2563eb"></circle><circle class="dot" cx="163.2267037552156" cy="0" r="3" fill="#2563eb"></circle><circle class="dot" cx="164.22809457579973" cy="0" r="3" fill="#2563eb"></circle><circle class="dot" cx="165.22948539638386" cy="0" r="3" fill="#2563eb"></circle><circle class="dot" cx="166.23087621696803" cy="0" r="3" fill="#2563eb"></circle><circle class="dot" cx="167.23226703755216" cy="0" r="3" fill="#2563eb"></circle><circle class="dot" cx="168.2336578581363" cy="0" r="3" fill="#2563eb"></circle><circle class="dot" cx="169.23504867872046" cy="0" r="3" fill="#2563eb"></circle><circle class="dot" cx="170.2364394993046" cy="0" r="3" fill="#2563eb"></circle><circle class="dot" cx="171.23783031988873" cy="0" r="3" fill="#2563eb"></circle><circle class="dot" cx="172.23922114047286" cy="0" r="3" fill="#2563eb"></circle><circle class="dot" cx="173.24061196105703" cy="0" r="3" fill="#2563eb"></circle><circle class="dot" cx="174.24200278164116" cy="0" r="3" fill="#2563eb"></circle><circle class="dot" cx="175.2433936022253" cy="0" r="3" fill="#2563eb"></circle><circle class="dot" cx="176.24478442280946" cy="0" r="3" fill="#2563eb"></circle><circle class="dot" cx="177.2461752433936" cy="0" r="3" fill="#2563eb"></circle><circle class="dot" cx="178.24756606397773" cy="0" r="3" fill="#2563eb"></circle><circle class="dot" cx="179.2489568845619" cy="0" r="3" fill="#2563eb"></circle><circle class="dot" cx="180.25034770514603" cy="0" r="3" fill="#2563eb"></circle><circle class="dot" cx="181.25173852573016" cy="0" r="3" fill="#2563eb"></circle><circle class="dot" cx="182.25312934631432" cy="0" r="3" fill="#2563eb"></circle><circle class="dot" cx="183.2545201668985" cy="0" r="3" fill="#2563eb"></circle><circle class="dot" cx="184.25591098748262" cy="0" r="3" fill="#2563eb"></circle><circle class="dot" cx="185.25730180806676" cy="0" r="3" fill="#2563eb"></circle><circle class="dot" cx="186.2586926286509" cy="0" r="3" fill="#2563eb"></circle><circle class="dot" cx="187.26008344923505" cy="0" r="3" fill="#2563eb"></circle><circle class="dot" cx="188.2614742698192" cy="0" r="3" fill="#2563eb"></circle><circle class="dot" cx="189.26286509040332" cy="0" r="3" fill="#2563eb"></circle><circle class="dot" cx="190.2642559109875" cy="0" r="3" fill="#2563eb"></circle><circle class="dot" cx="191.26564673157162" cy="0" r="3" fill="#2563eb"></circle><circle class="dot" cx="192.26703755215578" cy="0" r="3" fill="#2563eb"></circle><circle class="dot" cx="193.26842837273992" cy="0" r="3" fill="#2563eb"></circle><circle class="dot" cx="194.26981919332405" cy="0" r="3" fill="#2563eb"></circle><circle class="dot" cx="195.2712100139082" cy="0" r="3" fill="#2563eb"></circle><circle class="dot" cx="196.27260083449238" cy="0" r="3" fill="#2563eb"></circle><circle class="dot" cx="197.27399165507651" cy="0" r="3" fill="#2563eb"></circle><circle class="dot" cx="198.27538247566065" cy="0" r="3" fill="#2563eb"></circle><circle class="dot" cx="199.27677329624478" cy="0" r="3" fill="#2563eb"></circle><circle class="dot" cx="200.27816411682892" cy="340" r="3" fill="#2563eb"></circle><circle class="dot" cx="201.27955493741305" cy="340" r="3" fill="#2563eb"></circle><circle class="dot" cx="202.28094575799724" cy="0" r="3" fill="#2563eb"></circle><circle class="dot" cx="203.28233657858138" cy="0" r="3" fill="#2563eb"></circle><circle class="dot" cx="204.2837273991655" cy="0" r="3" fill="#2563eb"></circle><circle class="dot" cx="205.28511821974965" cy="0" r="3" fill="#2563eb"></circle><circle class="dot" cx="206.28650904033378" cy="0" r="3" fill="#2563eb"></circle><circle class="dot" cx="207.28789986091792" cy="0" r="3" fill="#2563eb"></circle><circle class="dot" cx="208.2892906815021" cy="0" r="3" fill="#2563eb"></circle><circle class="dot" cx="209.29068150208624" cy="0" r="3" fill="#2563eb"></circle><circle class="dot" cx="210.29207232267038" cy="0" r="3" fill="#2563eb"></circle><circle class="dot" cx="211.2934631432545" cy="0" r="3" fill="#2563eb"></circle><circle class="dot" cx="212.29485396383865" cy="0" r="3" fill="#2563eb"></circle><circle class="dot" cx="213.29624478442278" cy="0" r="3" fill="#2563eb"></circle><circle class="dot" cx="214.29763560500697" cy="0" r="3" fill="#2563eb"></circle><circle class="dot" cx="215.2990264255911" cy="0" r="3" fill="#2563eb"></circle><circle class="dot" cx="216.30041724617524" cy="0" r="3" fill="#2563eb"></circle><circle class="dot" cx="217.30180806675938" cy="0" r="3" fill="#2563eb"></circle><circle class="dot" cx="218.3031988873435" cy="0" r="3" fill="#2563eb"></circle><circle class="dot" cx="219.30458970792768" cy="0" r="3" fill="#2563eb"></circle><circle class="dot" cx="220.3059805285118" cy="0" r="3" fill="#2563eb"></circle><circle class="dot" cx="221.30737134909597" cy="0" r="3" fill="#2563eb"></circle><circle class="dot" cx="222.3087621696801" cy="0" r="3" fill="#2563eb"></circle><circle class="dot" cx="223.31015299026427" cy="0" r="3" fill="#2563eb"></circle><circle class="dot" cx="224.3115438108484" cy="0" r="3" fill="#2563eb"></circle><circle class="dot" cx="225.31293463143254" cy="0" r="3" fill="#2563eb"></circle><circle class="dot" cx="226.31432545201667" cy="0" r="3" fill="#2563eb"></circle><circle class="dot" cx="227.31571627260084" cy="0" r="3" fill="#2563eb"></circle><circle class="dot" cx="228.317107093185" cy="0" r="3" fill="#2563eb"></circle><circle class="dot" cx="229.31849791376914" cy="0" r="3" fill="#2563eb"></circle><circle class="dot" cx="230.31988873435327" cy="0" r="3" fill="#2563eb"></circle><circle class="dot" cx="231.3212795549374" cy="0" r="3" fill="#2563eb"></circle><circle class="dot" cx="232.32267037552154" cy="0" r="3" fill="#2563eb"></circle><circle class="dot" cx="233.32406119610573" cy="0" r="3" fill="#2563eb"></circle><circle class="dot" cx="234.32545201668987" cy="0" r="3" fill="#2563eb"></circle><circle class="dot" cx="235.326842837274" cy="0" r="3" fill="#2563eb"></circle><circle class="dot" cx="236.32823365785814" cy="0" r="3" fill="#2563eb"></circle><circle class="dot" cx="237.32962447844227" cy="0" r="3" fill="#2563eb"></circle><circle class="dot" cx="238.3310152990264" cy="0" r="3" fill="#2563eb"></circle><circle class="dot" cx="239.3324061196106" cy="0" r="3" fill="#2563eb"></circle><circle class="dot" cx="240.33379694019473" cy="0" r="3" fill="#2563eb"></circle><circle class="dot" cx="241.33518776077887" cy="0" r="3" fill="#2563eb"></circle><circle class="dot" cx="242.336578581363" cy="0" r="3" fill="#2563eb"></circle><circle class="dot" cx="243.33796940194713" cy="0" r="3" fill="#2563eb"></circle><circle class="dot" cx="244.33936022253127" cy="0" r="3" fill="#2563eb"></circle><circle class="dot" cx="245.34075104311546" cy="0" r="3" fill="#2563eb"></circle><circle class="dot" cx="246.3421418636996" cy="0" r="3" fill="#2563eb"></circle><circle class="dot" cx="247.34353268428373" cy="0" r="3" fill="#2563eb"></circle><circle class="dot" cx="248.34492350486786" cy="0" r="3" fill="#2563eb"></circle><circle class="dot" cx="249.346314325452" cy="0" r="3" fill="#2563eb"></circle><circle class="dot" cx="250.34770514603616" cy="0" r="3" fill="#2563eb"></circle><circle class="dot" cx="251.3490959666203" cy="0" r="3" fill="#2563eb"></circle><circle class="dot" cx="252.35048678720446" cy="0" r="3" fill="#2563eb"></circle><circle class="dot" cx="253.3518776077886" cy="0" r="3" fill="#2563eb"></circle><circle class="dot" cx="254.35326842837273" cy="0" r="3" fill="#2563eb"></circle><circle class="dot" cx="255.3546592489569" cy="0" r="3" fill="#2563eb"></circle><circle class="dot" cx="256.356050069541" cy="0" r="3" fill="#2563eb"></circle><circle class="dot" cx="257.35744089012513" cy="0" r="3" fill="#2563eb"></circle><circle class="dot" cx="258.35883171070935" cy="0" r="3" fill="#2563eb"></circle><circle class="dot" cx="259.36022253129346" cy="0" r="3" fill="#2563eb"></circle><circle class="dot" cx="260.3616133518776" cy="0" r="3" fill="#2563eb"></circle><circle class="dot" cx="261.36300417246173" cy="0" r="3" fill="#2563eb"></circle><circle class="dot" cx="262.3643949930459" cy="0" r="3" fill="#2563eb"></circle><circle class="dot" cx="263.36578581363" cy="0" r="3" fill="#2563eb"></circle><circle class="dot" cx="264.3671766342142" cy="0" r="3" fill="#2563eb"></circle><circle class="dot" cx="265.3685674547983" cy="0" r="3" fill="#2563eb"></circle><circle class="dot" cx="266.3699582753825" cy="0" r="3" fill="#2563eb"></circle><circle class="dot" cx="267.3713490959666" cy="0" r="3" fill="#2563eb"></circle><circle class="dot" cx="268.37273991655076" cy="0" r="3" fill="#2563eb"></circle><circle class="dot" cx="269.3741307371349" cy="0" r="3" fill="#2563eb"></circle><circle class="dot" cx="270.3755215577191" cy="0" r="3" fill="#2563eb"></circle><circle class="dot" cx="271.3769123783032" cy="0" r="3" fill="#2563eb"></circle><circle class="dot" cx="272.37830319888735" cy="0" r="3" fill="#2563eb"></circle><circle class="dot" cx="273.37969401947146" cy="0" r="3" fill="#2563eb"></circle><circle class="dot" cx="274.3810848400556" cy="0" r="3" fill="#2563eb"></circle><circle class="dot" cx="275.3824756606398" cy="0" r="3" fill="#2563eb"></circle><circle class="dot" cx="276.38386648122395" cy="0" r="3" fill="#2563eb"></circle><circle class="dot" cx="277.38525730180805" cy="0" r="3" fill="#2563eb"></circle><circle class="dot" cx="278.3866481223922" cy="0" r="3" fill="#2563eb"></circle><circle class="dot" cx="279.3880389429764" cy="0" r="3" fill="#2563eb"></circle><circle class="dot" cx="280.3894297635605" cy="0" r="3" fill="#2563eb"></circle><circle class="dot" cx="281.39082058414465" cy="0" r="3" fill="#2563eb"></circle><circle class="dot" cx="282.39221140472876" cy="0" r="3" fill="#2563eb"></circle><circle class="dot" cx="283.393602225313" cy="0" r="3" fill="#2563eb"></circle><circle class="dot" cx="284.3949930458971" cy="0" r="3" fill="#2563eb"></circle><circle class="dot" cx="285.39638386648124" cy="0" r="3" fill="#2563eb"></circle><circle class="dot" cx="286.39777468706535" cy="0" r="3" fill="#2563eb"></circle><circle class="dot" cx="287.3991655076495" cy="0" r="3" fill="#2563eb"></circle><circle class="dot" cx="288.4005563282336" cy="0" r="3" fill="#2563eb"></circle><circle class="dot" cx="289.40194714881784" cy="0" r="3" fill="#2563eb"></circle><circle class="dot" cx="290.40333796940195" cy="0" r="3" fill="#2563eb"></circle><circle class="dot" cx="291.4047287899861" cy="0" r="3" fill="#2563eb"></circle><circle class="dot" cx="292.4061196105702" cy="0" r="3" fill="#2563eb"></circle><circle class="dot" cx="293.4075104311544" cy="0" r="3" fill="#2563eb"></circle><circle class="dot" cx="294.4089012517385" cy="0" r="3" fill="#2563eb"></circle><circle class="dot" cx="295.4102920723227" cy="0" r="3" fill="#2563eb"></circle><circle class="dot" cx="296.4116828929068" cy="0" r="3" fill="#2563eb"></circle><circle class="dot" cx="297.413073713491" cy="0" r="3" fill="#2563eb"></circle><circle class="dot" cx="298.4144645340751" cy="0" r="3" fill="#2563eb"></circle><circle class="dot" cx="299.41585535465924" cy="0" r="3" fill="#2563eb"></circle><circle class="dot" cx="300.41724617524335" cy="0" r="3" fill="#2563eb"></circle><circle class="dot" cx="301.41863699582757" cy="0" r="3" fill="#2563eb"></circle><circle class="dot" cx="302.4200278164117" cy="0" r="3" fill="#2563eb"></circle><circle class="dot" cx="303.42141863699584" cy="0" r="3" fill="#2563eb"></circle><circle class="dot" cx="304.42280945757994" cy="0" r="3" fill="#2563eb"></circle><circle class="dot" cx="305.4242002781641" cy="0" r="3" fill="#2563eb"></circle><circle class="dot" cx="306.42559109874827" cy="0" r="3" fill="#2563eb"></circle><circle class="dot" cx="307.42698191933243" cy="0" r="3" fill="#2563eb"></circle><circle class="dot" cx="308.42837273991654" cy="0" r="3" fill="#2563eb"></circle><circle class="dot" cx="309.4297635605007" cy="0" r="3" fill="#2563eb"></circle><circle class="dot" cx="310.43115438108487" cy="0" r="3" fill="#2563eb"></circle><circle class="dot" cx="311.432545201669" cy="0" r="3" fill="#2563eb"></circle><circle class="dot" cx="312.43393602225314" cy="0" r="3" fill="#2563eb"></circle><circle class="dot" cx="313.43532684283724" cy="0" r="3" fill="#2563eb"></circle><circle class="dot" cx="314.4367176634214" cy="0" r="3" fill="#2563eb"></circle><circle class="dot" cx="315.43810848400557" cy="0" r="3" fill="#2563eb"></circle><circle class="dot" cx="316.43949930458973" cy="0" r="3" fill="#2563eb"></circle><circle class="dot" cx="317.44089012517384" cy="0" r="3" fill="#2563eb"></circle><circle class="dot" cx="318.442280945758" cy="0" r="3" fill="#2563eb"></circle><circle class="dot" cx="319.4436717663421" cy="0" r="3" fill="#2563eb"></circle><circle class="dot" cx="320.4450625869263" cy="0" r="3" fill="#2563eb"></circle><circle class="dot" cx="321.44645340751043" cy="0" r="3" fill="#2563eb"></circle><circle class="dot" cx="322.4478442280946" cy="0" r="3" fill="#2563eb"></circle><circle class="dot" cx="323.4492350486787" cy="0" r="3" fill="#2563eb"></circle><circle class="dot" cx="324.45062586926286" cy="0" r="3" fill="#2563eb"></circle><circle class="dot" cx="325.45201668984697" cy="0" r="3" fill="#2563eb"></circle><circle class="dot" cx="326.4534075104312" cy="0" r="3" fill="#2563eb"></circle><circle class="dot" cx="327.4547983310153" cy="0" r="3" fill="#2563eb"></circle><circle class="dot" cx="328.45618915159946" cy="0" r="3" fill="#2563eb"></circle><circle class="dot" cx="329.45757997218357" cy="0" r="3" fill="#2563eb"></circle><circle class="dot" cx="330.45897079276773" cy="0" r="3" fill="#2563eb"></circle><circle class="dot" cx="331.46036161335184" cy="0" r="3" fill="#2563eb"></circle><circle class="dot" cx="332.46175243393606" cy="0" r="3" fill="#2563eb"></circle><circle class="dot" cx="333.46314325452016" cy="0" r="3" fill="#2563eb"></circle><circle class="dot" cx="334.4645340751043" cy="0" r="3" fill="#2563eb"></circle><circle class="dot" cx="335.46592489568843" cy="0" r="3" fill="#2563eb"></circle><circle class="dot" cx="336.4673157162726" cy="0" r="3" fill="#2563eb"></circle><circle class="dot" cx="337.46870653685676" cy="0" r="3" fill="#2563eb"></circle><circle class="dot" cx="338.4700973574409" cy="0" r="3" fill="#2563eb"></circle><circle class="dot" cx="339.471488178025" cy="0" r="3" fill="#2563eb"></circle><circle class="dot" cx="340.4728789986092" cy="0" r="3" fill="#2563eb"></circle><circle class="dot" cx="341.4742698191933" cy="0" r="3" fill="#2563eb"></circle><circle class="dot" cx="342.47566063977746" cy="0" r="3" fill="#2563eb"></circle><circle class="dot" cx="343.4770514603616" cy="0" r="3" fill="#2563eb"></circle><circle class="dot" cx="344.4784422809457" cy="0" r="3" fill="#2563eb"></circle><circle class="dot" cx="345.4798331015299" cy="0" r="3" fill="#2563eb"></circle><circle class="dot" cx="346.48122392211405" cy="0" r="3" fill="#2563eb"></circle><circle class="dot" cx="347.4826147426982" cy="0" r="3" fill="#2563eb"></circle><circle class="dot" cx="348.4840055632823" cy="0" r="3" fill="#2563eb"></circle><circle class="dot" cx="349.4853963838665" cy="0" r="3" fill="#2563eb"></circle><circle class="dot" cx="350.4867872044506" cy="0" r="3" fill="#2563eb"></circle><circle class="dot" cx="351.4881780250348" cy="0" r="3" fill="#2563eb"></circle><circle class="dot" cx="352.4895688456189" cy="0" r="3" fill="#2563eb"></circle><circle class="dot" cx="353.4909596662031" cy="0" r="3" fill="#2563eb"></circle><circle class="dot" cx="354.4923504867872" cy="0" r="3" fill="#2563eb"></circle><circle class="dot" cx="355.49374130737135" cy="0" r="3" fill="#2563eb"></circle><circle class="dot" cx="356.49513212795546" cy="0" r="3" fill="#2563eb"></circle><circle class="dot" cx="357.4965229485397" cy="0" r="3" fill="#2563eb"></circle><circle class="dot" cx="358.4979137691238" cy="0" r="3" fill="#2563eb"></circle><circle class="dot" cx="359.49930458970795" cy="0" r="3" fill="#2563eb"></circle><circle class="dot" cx="360.50069541029205" cy="0" r="3" fill="#2563eb"></circle><circle class="dot" cx="361.5020862308762" cy="0" r="3" fill="#2563eb"></circle><circle class="dot" cx="362.5034770514603" cy="0" r="3" fill="#2563eb"></circle><circle class="dot" cx="363.5048678720445" cy="0" r="3" fill="#2563eb"></circle><circle class="dot" cx="364.50625869262865" cy="0" r="3" fill="#2563eb"></circle><circle class="dot" cx="365.50764951321275" cy="0" r="3" fill="#2563eb"></circle><circle class="dot" cx="366.509040333797" cy="0" r="3" fill="#2563eb"></circle><circle class="dot" cx="367.51043115438114" cy="0" r="3" fill="#2563eb"></circle><circle class="dot" cx="368.51182197496524" cy="0" r="3" fill="#2563eb"></circle><circle class="dot" cx="369.5132127955494" cy="0" r="3" fill="#2563eb"></circle><circle class="dot" cx="370.5146036161335" cy="0" r="3" fill="#2563eb"></circle><circle class="dot" cx="371.5159944367177" cy="0" r="3" fill="#2563eb"></circle><circle class="dot" cx="372.5173852573018" cy="0" r="3" fill="#2563eb"></circle><circle class="dot" cx="373.51877607788595" cy="0" r="3" fill="#2563eb"></circle><circle class="dot" cx="374.5201668984701" cy="0" r="3" fill="#2563eb"></circle><circle class="dot" cx="375.5215577190542" cy="0" r="3" fill="#2563eb"></circle><circle class="dot" cx="376.5229485396384" cy="0" r="3" fill="#2563eb"></circle><circle class="dot" cx="377.5243393602225" cy="0" r="3" fill="#2563eb"></circle><circle class="dot" cx="378.52573018080665" cy="0" r="3" fill="#2563eb"></circle><circle class="dot" cx="379.52712100139087" cy="0" r="3" fill="#2563eb"></circle><circle class="dot" cx="380.528511821975" cy="0" r="3" fill="#2563eb"></circle><circle class="dot" cx="381.52990264255914" cy="0" r="3" fill="#2563eb"></circle><circle class="dot" cx="382.53129346314324" cy="0" r="3" fill="#2563eb"></circle><circle class="dot" cx="383.5326842837274" cy="0" r="3" fill="#2563eb"></circle><circle class="dot" cx="384.53407510431157" cy="0" r="3" fill="#2563eb"></circle><circle class="dot" cx="385.5354659248957" cy="0" r="3" fill="#2563eb"></circle><circle class="dot" cx="386.53685674547984" cy="0" r="3" fill="#2563eb"></circle><circle class="dot" cx="387.53824756606394" cy="0" r="3" fill="#2563eb"></circle><circle class="dot" cx="388.5396383866481" cy="0" r="3" fill="#2563eb"></circle><circle class="dot" cx="389.5410292072322" cy="0" r="3" fill="#2563eb"></circle><circle class="dot" cx="390.5424200278164" cy="0" r="3" fill="#2563eb"></circle><circle class="dot" cx="391.5438108484006" cy="0" r="3" fill="#2563eb"></circle><circle class="dot" cx="392.54520166898476" cy="0" r="3" fill="#2563eb"></circle><circle class="dot" cx="393.54659248956887" cy="0" r="3" fill="#2563eb"></circle><circle class="dot" cx="394.54798331015303" cy="0" r="3" fill="#2563eb"></circle><circle class="dot" cx="395.54937413073714" cy="0" r="3" fill="#2563eb"></circle><circle class="dot" cx="396.5507649513213" cy="0" r="3" fill="#2563eb"></circle><circle class="dot" cx="397.5521557719054" cy="0" r="3" fill="#2563eb"></circle><circle class="dot" cx="398.55354659248957" cy="0" r="3" fill="#2563eb"></circle><circle class="dot" cx="399.5549374130737" cy="0" r="3" fill="#2563eb"></circle><circle class="dot" cx="400.55632823365784" cy="0" r="3" fill="#2563eb"></circle><circle class="dot" cx="401.557719054242" cy="0" r="3" fill="#2563eb"></circle><circle class="dot" cx="402.5591098748261" cy="0" r="3" fill="#2563eb"></circle><circle class="dot" cx="403.5605006954103" cy="0" r="3" fill="#2563eb"></circle><circle class="dot" cx="404.5618915159945" cy="0" r="3" fill="#2563eb"></circle><circle class="dot" cx="405.5632823365786" cy="0" r="3" fill="#2563eb"></circle><circle class="dot" cx="406.56467315716276" cy="0" r="3" fill="#2563eb"></circle><circle class="dot" cx="407.56606397774686" cy="0" r="3" fill="#2563eb"></circle><circle class="dot" cx="408.567454798331" cy="0" r="3" fill="#2563eb"></circle><circle class="dot" cx="409.56884561891513" cy="0" r="3" fill="#2563eb"></circle><circle class="dot" cx="410.5702364394993" cy="0" r="3" fill="#2563eb"></circle><circle class="dot" cx="411.57162726008346" cy="0" r="3" fill="#2563eb"></circle><circle class="dot" cx="412.57301808066757" cy="0" r="3" fill="#2563eb"></circle><circle class="dot" cx="413.57440890125173" cy="0" r="3" fill="#2563eb"></circle><circle class="dot" cx="414.57579972183584" cy="0" r="3" fill="#2563eb"></circle><circle class="dot" cx="415.57719054242" cy="0" r="3" fill="#2563eb"></circle><circle class="dot" cx="416.5785813630042" cy="0" r="3" fill="#2563eb"></circle><circle class="dot" cx="417.5799721835883" cy="0" r="3" fill="#2563eb"></circle><circle class="dot" cx="418.5813630041725" cy="0" r="3" fill="#2563eb"></circle><circle class="dot" cx="419.58275382475665" cy="0" r="3" fill="#2563eb"></circle><circle class="dot" cx="420.58414464534076" cy="0" r="3" fill="#2563eb"></circle><circle class="dot" cx="421.5855354659249" cy="0" r="3" fill="#2563eb"></circle><circle class="dot" cx="422.586926286509" cy="0" r="3" fill="#2563eb"></circle><circle class="dot" cx="423.5883171070932" cy="0" r="3" fill="#2563eb"></circle><circle class="dot" cx="424.5897079276773" cy="0" r="3" fill="#2563eb"></circle><circle class="dot" cx="425.59109874826146" cy="0" r="3" fill="#2563eb"></circle><circle class="dot" cx="426.59248956884556" cy="0" r="3" fill="#2563eb"></circle><circle class="dot" cx="427.5938803894297" cy="0" r="3" fill="#2563eb"></circle><circle class="dot" cx="428.59527121001395" cy="0" r="3" fill="#2563eb"></circle><circle class="dot" cx="429.5966620305981" cy="0" r="3" fill="#2563eb"></circle><circle class="dot" cx="430.5980528511822" cy="0" r="3" fill="#2563eb"></circle><circle class="dot" cx="431.5994436717664" cy="0" r="3" fill="#2563eb"></circle><circle class="dot" cx="432.6008344923505" cy="0" r="3" fill="#2563eb"></circle><circle class="dot" cx="433.60222531293465" cy="0" r="3" fill="#2563eb"></circle><circle class="dot" cx="434.60361613351876" cy="0" r="3" fill="#2563eb"></circle><circle class="dot" cx="435.6050069541029" cy="0" r="3" fill="#2563eb"></circle><circle class="dot" cx="436.606397774687" cy="0" r="3" fill="#2563eb"></circle><circle class="dot" cx="437.6077885952712" cy="0" r="3" fill="#2563eb"></circle><circle class="dot" cx="438.60917941585535" cy="0" r="3" fill="#2563eb"></circle><circle class="dot" cx="439.61057023643946" cy="0" r="3" fill="#2563eb"></circle><circle class="dot" cx="440.6119610570236" cy="0" r="3" fill="#2563eb"></circle><circle class="dot" cx="441.61335187760784" cy="0" r="3" fill="#2563eb"></circle><circle class="dot" cx="442.61474269819195" cy="0" r="3" fill="#2563eb"></circle><circle class="dot" cx="443.6161335187761" cy="0" r="3" fill="#2563eb"></circle><circle class="dot" cx="444.6175243393602" cy="0" r="3" fill="#2563eb"></circle><circle class="dot" cx="445.6189151599444" cy="0" r="3" fill="#2563eb"></circle><circle class="dot" cx="446.62030598052854" cy="0" r="3" fill="#2563eb"></circle><circle class="dot" cx="447.62169680111265" cy="0" r="3" fill="#2563eb"></circle><circle class="dot" cx="448.6230876216968" cy="0" r="3" fill="#2563eb"></circle><circle class="dot" cx="449.6244784422809" cy="0" r="3" fill="#2563eb"></circle><circle class="dot" cx="450.6258692628651" cy="0" r="3" fill="#2563eb"></circle><circle class="dot" cx="451.6272600834492" cy="0" r="3" fill="#2563eb"></circle><circle class="dot" cx="452.62865090403335" cy="0" r="3" fill="#2563eb"></circle><circle class="dot" cx="453.63004172461757" cy="0" r="3" fill="#2563eb"></circle><circle class="dot" cx="454.6314325452017" cy="0" r="3" fill="#2563eb"></circle><circle class="dot" cx="455.63282336578584" cy="0" r="3" fill="#2563eb"></circle><circle class="dot" cx="456.63421418637" cy="0" r="3" fill="#2563eb"></circle><circle class="dot" cx="457.6356050069541" cy="0" r="3" fill="#2563eb"></circle><circle class="dot" cx="458.63699582753827" cy="0" r="3" fill="#2563eb"></circle><circle class="dot" cx="459.6383866481224" cy="0" r="3" fill="#2563eb"></circle><circle class="dot" cx="460.63977746870654" cy="0" r="3" fill="#2563eb"></circle><circle class="dot" cx="461.64116828929065" cy="0" r="3" fill="#2563eb"></circle><circle class="dot" cx="462.6425591098748" cy="0" r="3" fill="#2563eb"></circle><circle class="dot" cx="463.6439499304589" cy="0" r="3" fill="#2563eb"></circle><circle class="dot" cx="464.6453407510431" cy="0" r="3" fill="#2563eb"></circle><circle class="dot" cx="465.6467315716273" cy="0" r="3" fill="#2563eb"></circle><circle class="dot" cx="466.64812239221146" cy="0" r="3" fill="#2563eb"></circle><circle class="dot" cx="467.64951321279557" cy="0" r="3" fill="#2563eb"></circle><circle class="dot" cx="468.65090403337973" cy="0" r="3" fill="#2563eb"></circle><circle class="dot" cx="469.65229485396384" cy="0" r="3" fill="#2563eb"></circle><circle class="dot" cx="470.653685674548" cy="0" r="3" fill="#2563eb"></circle><circle class="dot" cx="471.6550764951321" cy="0" r="3" fill="#2563eb"></circle><circle class="dot" cx="472.65646731571627" cy="0" r="3" fill="#2563eb"></circle><circle class="dot" cx="473.65785813630043" cy="0" r="3" fill="#2563eb"></circle><circle class="dot" cx="474.65924895688454" cy="0" r="3" fill="#2563eb"></circle><circle class="dot" cx="475.6606397774687" cy="0" r="3" fill="#2563eb"></circle><circle class="dot" cx="476.6620305980528" cy="0" r="3" fill="#2563eb"></circle><circle class="dot" cx="477.663421418637" cy="0" r="3" fill="#2563eb"></circle><circle class="dot" cx="478.6648122392212" cy="340" r="3" fill="#2563eb"></circle><circle class="dot" cx="479.6662030598053" cy="340" r="3" fill="#2563eb"></circle><circle class="dot" cx="480.66759388038946" cy="340" r="3" fill="#2563eb"></circle><circle class="dot" cx="481.66898470097357" cy="340" r="3" fill="#2563eb"></circle><circle class="dot" cx="482.67037552155773" cy="0" r="3" fill="#2563eb"></circle><circle class="dot" cx="483.6717663421419" cy="0" r="3" fill="#2563eb"></circle><circle class="dot" cx="484.673157162726" cy="0" r="3" fill="#2563eb"></circle><circle class="dot" cx="485.67454798331016" cy="0" r="3" fill="#2563eb"></circle><circle class="dot" cx="486.67593880389427" cy="0" r="3" fill="#2563eb"></circle><circle class="dot" cx="487.67732962447843" cy="0" r="3" fill="#2563eb"></circle><circle class="dot" cx="488.67872044506254" cy="0" r="3" fill="#2563eb"></circle><circle class="dot" cx="489.6801112656467" cy="0" r="3" fill="#2563eb"></circle><circle class="dot" cx="490.6815020862309" cy="0" r="3" fill="#2563eb"></circle><circle class="dot" cx="491.682892906815" cy="0" r="3" fill="#2563eb"></circle><circle class="dot" cx="492.6842837273992" cy="0" r="3" fill="#2563eb"></circle><circle class="dot" cx="493.68567454798335" cy="0" r="3" fill="#2563eb"></circle><circle class="dot" cx="494.68706536856746" cy="340" r="3" fill="#2563eb"></circle><circle class="dot" cx="495.6884561891516" cy="0" r="3" fill="#2563eb"></circle><circle class="dot" cx="496.68984700973573" cy="340" r="3" fill="#2563eb"></circle><circle class="dot" cx="497.6912378303199" cy="340" r="3" fill="#2563eb"></circle><circle class="dot" cx="498.692628650904" cy="340" r="3" fill="#2563eb"></circle><circle class="dot" cx="499.69401947148816" cy="340" r="3" fill="#2563eb"></circle><circle class="dot" cx="500.6954102920723" cy="340" r="3" fill="#2563eb"></circle><circle class="dot" cx="501.69680111265643" cy="340" r="3" fill="#2563eb"></circle><circle class="dot" cx="502.6981919332406" cy="340" r="3" fill="#2563eb"></circle><circle class="dot" cx="503.6995827538248" cy="340" r="3" fill="#2563eb"></circle><circle class="dot" cx="504.7009735744089" cy="340" r="3" fill="#2563eb"></circle><circle class="dot" cx="505.7023643949931" cy="340" r="3" fill="#2563eb"></circle><circle class="dot" cx="506.7037552155772" cy="340" r="3" fill="#2563eb"></circle><circle class="dot" cx="507.70514603616135" cy="340" r="3" fill="#2563eb"></circle><circle class="dot" cx="508.70653685674546" cy="340" r="3" fill="#2563eb"></circle><circle class="dot" cx="509.7079276773296" cy="340" r="3" fill="#2563eb"></circle><circle class="dot" cx="510.7093184979138" cy="340" r="3" fill="#2563eb"></circle><circle class="dot" cx="511.7107093184979" cy="340" r="3" fill="#2563eb"></circle><circle class="dot" cx="512.712100139082" cy="340" r="3" fill="#2563eb"></circle><circle class="dot" cx="513.7134909596662" cy="340" r="3" fill="#2563eb"></circle><circle class="dot" cx="514.7148817802503" cy="340" r="3" fill="#2563eb"></circle><circle class="dot" cx="515.7162726008345" cy="340" r="3" fill="#2563eb"></circle><circle class="dot" cx="516.7176634214187" cy="340" r="3" fill="#2563eb"></circle><circle class="dot" cx="517.7190542420028" cy="340" r="3" fill="#2563eb"></circle><circle class="dot" cx="518.7204450625869" cy="340" r="3" fill="#2563eb"></circle><circle class="dot" cx="519.721835883171" cy="0" r="3" fill="#2563eb"></circle><circle class="dot" cx="520.7232267037552" cy="0" r="3" fill="#2563eb"></circle><circle class="dot" cx="521.7246175243394" cy="0" r="3" fill="#2563eb"></circle><circle class="dot" cx="522.7260083449235" cy="0" r="3" fill="#2563eb"></circle><circle class="dot" cx="523.7273991655077" cy="0" r="3" fill="#2563eb"></circle><circle class="dot" cx="524.7287899860918" cy="0" r="3" fill="#2563eb"></circle><circle class="dot" cx="525.7301808066759" cy="0" r="3" fill="#2563eb"></circle><circle class="dot" cx="526.73157162726" cy="0" r="3" fill="#2563eb"></circle><circle class="dot" cx="527.7329624478442" cy="0" r="3" fill="#2563eb"></circle><circle class="dot" cx="528.7343532684284" cy="0" r="3" fill="#2563eb"></circle><circle class="dot" cx="529.7357440890125" cy="0" r="3" fill="#2563eb"></circle><circle class="dot" cx="530.7371349095966" cy="340" r="3" fill="#2563eb"></circle><circle class="dot" cx="531.7385257301809" cy="340" r="3" fill="#2563eb"></circle><circle class="dot" cx="532.739916550765" cy="340" r="3" fill="#2563eb"></circle><circle class="dot" cx="533.7413073713491" cy="340" r="3" fill="#2563eb"></circle><circle class="dot" cx="534.7426981919332" cy="340" r="3" fill="#2563eb"></circle><circle class="dot" cx="535.7440890125174" cy="340" r="3" fill="#2563eb"></circle><circle class="dot" cx="536.7454798331015" cy="340" r="3" fill="#2563eb"></circle><circle class="dot" cx="537.7468706536856" cy="340" r="3" fill="#2563eb"></circle><circle class="dot" cx="538.7482614742698" cy="340" r="3" fill="#2563eb"></circle><circle class="dot" cx="539.749652294854" cy="340" r="3" fill="#2563eb"></circle><circle class="dot" cx="540.7510431154382" cy="340" r="3" fill="#2563eb"></circle><circle class="dot" cx="541.7524339360223" cy="340" r="3" fill="#2563eb"></circle><circle class="dot" cx="542.7538247566064" cy="340" r="3" fill="#2563eb"></circle><circle class="dot" cx="543.7552155771906" cy="340" r="3" fill="#2563eb"></circle><circle class="dot" cx="544.7566063977747" cy="340" r="3" fill="#2563eb"></circle><circle class="dot" cx="545.7579972183588" cy="340" r="3" fill="#2563eb"></circle><circle class="dot" cx="546.7593880389429" cy="340" r="3" fill="#2563eb"></circle><circle class="dot" cx="547.7607788595271" cy="340" r="3" fill="#2563eb"></circle><circle class="dot" cx="548.7621696801112" cy="340" r="3" fill="#2563eb"></circle><circle class="dot" cx="549.7635605006953" cy="340" r="3" fill="#2563eb"></circle><circle class="dot" cx="550.7649513212796" cy="340" r="3" fill="#2563eb"></circle><circle class="dot" cx="551.7663421418637" cy="340" r="3" fill="#2563eb"></circle><circle class="dot" cx="552.7677329624479" cy="340" r="3" fill="#2563eb"></circle><circle class="dot" cx="553.769123783032" cy="340" r="3" fill="#2563eb"></circle><circle class="dot" cx="554.7705146036161" cy="340" r="3" fill="#2563eb"></circle><circle class="dot" cx="555.7719054242003" cy="340" r="3" fill="#2563eb"></circle><circle class="dot" cx="556.7732962447844" cy="340" r="3" fill="#2563eb"></circle><circle class="dot" cx="557.7746870653685" cy="340" r="3" fill="#2563eb"></circle><circle class="dot" cx="558.7760778859528" cy="340" r="3" fill="#2563eb"></circle><circle class="dot" cx="559.7774687065369" cy="340" r="3" fill="#2563eb"></circle><circle class="dot" cx="560.778859527121" cy="340" r="3" fill="#2563eb"></circle><circle class="dot" cx="561.7802503477051" cy="340" r="3" fill="#2563eb"></circle><circle class="dot" cx="562.7816411682893" cy="340" r="3" fill="#2563eb"></circle><circle class="dot" cx="563.7830319888734" cy="0" r="3" fill="#2563eb"></circle><circle class="dot" cx="564.7844228094575" cy="340" r="3" fill="#2563eb"></circle><circle class="dot" cx="565.7858136300417" cy="340" r="3" fill="#2563eb"></circle><circle class="dot" cx="566.787204450626" cy="340" r="3" fill="#2563eb"></circle><circle class="dot" cx="567.78859527121" cy="340" r="3" fill="#2563eb"></circle><circle class="dot" cx="568.7899860917942" cy="340" r="3" fill="#2563eb"></circle><circle class="dot" cx="569.7913769123783" cy="340" r="3" fill="#2563eb"></circle><circle class="dot" cx="570.7927677329625" cy="0" r="3" fill="#2563eb"></circle><circle class="dot" cx="571.7941585535466" cy="340" r="3" fill="#2563eb"></circle><circle class="dot" cx="572.7955493741307" cy="0" r="3" fill="#2563eb"></circle><circle class="dot" cx="573.7969401947148" cy="340" r="3" fill="#2563eb"></circle><circle class="dot" cx="574.798331015299" cy="340" r="3" fill="#2563eb"></circle><circle class="dot" cx="575.7997218358831" cy="340" r="3" fill="#2563eb"></circle><circle class="dot" cx="576.8011126564672" cy="340" r="3" fill="#2563eb"></circle><circle class="dot" cx="577.8025034770515" cy="340" r="3" fill="#2563eb"></circle><circle class="dot" cx="578.8038942976357" cy="340" r="3" fill="#2563eb"></circle><circle class="dot" cx="579.8052851182198" cy="0" r="3" fill="#2563eb"></circle><circle class="dot" cx="580.8066759388039" cy="340" r="3" fill="#2563eb"></circle><circle class="dot" cx="581.808066759388" cy="340" r="3" fill="#2563eb"></circle><circle class="dot" cx="582.8094575799722" cy="0" r="3" fill="#2563eb"></circle><circle class="dot" cx="583.8108484005563" cy="0" r="3" fill="#2563eb"></circle><circle class="dot" cx="584.8122392211404" cy="0" r="3" fill="#2563eb"></circle><circle class="dot" cx="585.8136300417247" cy="340" r="3" fill="#2563eb"></circle><circle class="dot" cx="586.8150208623088" cy="340" r="3" fill="#2563eb"></circle><circle class="dot" cx="587.8164116828929" cy="0" r="3" fill="#2563eb"></circle><circle class="dot" cx="588.817802503477" cy="340" r="3" fill="#2563eb"></circle><circle class="dot" cx="589.8191933240612" cy="0" r="3" fill="#2563eb"></circle><circle class="dot" cx="590.8205841446454" cy="0" r="3" fill="#2563eb"></circle><circle class="dot" cx="591.8219749652295" cy="340" r="3" fill="#2563eb"></circle><circle class="dot" cx="592.8233657858136" cy="340" r="3" fill="#2563eb"></circle><circle class="dot" cx="593.8247566063978" cy="340" r="3" fill="#2563eb"></circle><circle class="dot" cx="594.826147426982" cy="340" r="3" fill="#2563eb"></circle><circle class="dot" cx="595.827538247566" cy="340" r="3" fill="#2563eb"></circle><circle class="dot" cx="596.8289290681502" cy="340" r="3" fill="#2563eb"></circle><circle class="dot" cx="597.8303198887344" cy="340" r="3" fill="#2563eb"></circle><circle class="dot" cx="598.8317107093185" cy="340" r="3" fill="#2563eb"></circle><circle class="dot" cx="599.8331015299026" cy="340" r="3" fill="#2563eb"></circle><circle class="dot" cx="600.8344923504867" cy="340" r="3" fill="#2563eb"></circle><circle class="dot" cx="601.8358831710709" cy="340" r="3" fill="#2563eb"></circle><circle class="dot" cx="602.8372739916551" cy="340" r="3" fill="#2563eb"></circle><circle class="dot" cx="603.8386648122392" cy="340" r="3" fill="#2563eb"></circle><circle class="dot" cx="604.8400556328234" cy="340" r="3" fill="#2563eb"></circle><circle class="dot" cx="605.8414464534076" cy="340" r="3" fill="#2563eb"></circle><circle class="dot" cx="606.8428372739917" cy="340" r="3" fill="#2563eb"></circle><circle class="dot" cx="607.8442280945758" cy="340" r="3" fill="#2563eb"></circle><circle class="dot" cx="608.8456189151599" cy="340" r="3" fill="#2563eb"></circle><circle class="dot" cx="609.8470097357441" cy="340" r="3" fill="#2563eb"></circle><circle class="dot" cx="610.8484005563282" cy="340" r="3" fill="#2563eb"></circle><circle class="dot" cx="611.8497913769123" cy="340" r="3" fill="#2563eb"></circle><circle class="dot" cx="612.8511821974965" cy="340" r="3" fill="#2563eb"></circle><circle class="dot" cx="613.8525730180806" cy="340" r="3" fill="#2563eb"></circle><circle class="dot" cx="614.8539638386649" cy="340" r="3" fill="#2563eb"></circle><circle class="dot" cx="615.855354659249" cy="340" r="3" fill="#2563eb"></circle><circle class="dot" cx="616.8567454798331" cy="340" r="3" fill="#2563eb"></circle><circle class="dot" cx="617.8581363004173" cy="340" r="3" fill="#2563eb"></circle><circle class="dot" cx="618.8595271210014" cy="340" r="3" fill="#2563eb"></circle><circle class="dot" cx="619.8609179415855" cy="340" r="3" fill="#2563eb"></circle><circle class="dot" cx="620.8623087621697" cy="340" r="3" fill="#2563eb"></circle><circle class="dot" cx="621.8636995827538" cy="340" r="3" fill="#2563eb"></circle><circle class="dot" cx="622.865090403338" cy="340" r="3" fill="#2563eb"></circle><circle class="dot" cx="623.866481223922" cy="340" r="3" fill="#2563eb"></circle><circle class="dot" cx="624.8678720445063" cy="340" r="3" fill="#2563eb"></circle><circle class="dot" cx="625.8692628650904" cy="340" r="3" fill="#2563eb"></circle><circle class="dot" cx="626.8706536856745" cy="340" r="3" fill="#2563eb"></circle><circle class="dot" cx="627.8720445062587" cy="340" r="3" fill="#2563eb"></circle><circle class="dot" cx="628.8734353268428" cy="340" r="3" fill="#2563eb"></circle><circle class="dot" cx="629.874826147427" cy="340" r="3" fill="#2563eb"></circle><circle class="dot" cx="630.8762169680111" cy="340" r="3" fill="#2563eb"></circle><circle class="dot" cx="631.8776077885952" cy="340" r="3" fill="#2563eb"></circle><circle class="dot" cx="632.8789986091795" cy="340" r="3" fill="#2563eb"></circle><circle class="dot" cx="633.8803894297636" cy="340" r="3" fill="#2563eb"></circle><circle class="dot" cx="634.8817802503477" cy="340" r="3" fill="#2563eb"></circle><circle class="dot" cx="635.8831710709318" cy="340" r="3" fill="#2563eb"></circle><circle class="dot" cx="636.884561891516" cy="340" r="3" fill="#2563eb"></circle><circle class="dot" cx="637.8859527121001" cy="340" r="3" fill="#2563eb"></circle><circle class="dot" cx="638.8873435326842" cy="340" r="3" fill="#2563eb"></circle><circle class="dot" cx="639.8887343532684" cy="340" r="3" fill="#2563eb"></circle><circle class="dot" cx="640.8901251738527" cy="340" r="3" fill="#2563eb"></circle><circle class="dot" cx="641.8915159944368" cy="340" r="3" fill="#2563eb"></circle><circle class="dot" cx="642.8929068150209" cy="340" r="3" fill="#2563eb"></circle><circle class="dot" cx="643.894297635605" cy="340" r="3" fill="#2563eb"></circle><circle class="dot" cx="644.8956884561892" cy="340" r="3" fill="#2563eb"></circle><circle class="dot" cx="645.8970792767733" cy="340" r="3" fill="#2563eb"></circle><circle class="dot" cx="646.8984700973574" cy="340" r="3" fill="#2563eb"></circle><circle class="dot" cx="647.8998609179416" cy="340" r="3" fill="#2563eb"></circle><circle class="dot" cx="648.9012517385257" cy="340" r="3" fill="#2563eb"></circle><circle class="dot" cx="649.9026425591098" cy="340" r="3" fill="#2563eb"></circle><circle class="dot" cx="650.9040333796939" cy="340" r="3" fill="#2563eb"></circle><circle class="dot" cx="651.9054242002782" cy="340" r="3" fill="#2563eb"></circle><circle class="dot" cx="652.9068150208624" cy="340" r="3" fill="#2563eb"></circle><circle class="dot" cx="653.9082058414465" cy="340" r="3" fill="#2563eb"></circle><circle class="dot" cx="654.9095966620306" cy="340" r="3" fill="#2563eb"></circle><circle class="dot" cx="655.9109874826147" cy="340" r="3" fill="#2563eb"></circle><circle class="dot" cx="656.9123783031989" cy="340" r="3" fill="#2563eb"></circle><circle class="dot" cx="657.913769123783" cy="340" r="3" fill="#2563eb"></circle><circle class="dot" cx="658.9151599443671" cy="340" r="3" fill="#2563eb"></circle><circle class="dot" cx="659.9165507649514" cy="340" r="3" fill="#2563eb"></circle><circle class="dot" cx="660.9179415855355" cy="340" r="3" fill="#2563eb"></circle><circle class="dot" cx="661.9193324061196" cy="340" r="3" fill="#2563eb"></circle><circle class="dot" cx="662.9207232267037" cy="340" r="3" fill="#2563eb"></circle><circle class="dot" cx="663.9221140472879" cy="340" r="3" fill="#2563eb"></circle><circle class="dot" cx="664.9235048678721" cy="340" r="3" fill="#2563eb"></circle><circle class="dot" cx="665.9248956884562" cy="340" r="3" fill="#2563eb"></circle><circle class="dot" cx="666.9262865090403" cy="340" r="3" fill="#2563eb"></circle><circle class="dot" cx="667.9276773296245" cy="340" r="3" fill="#2563eb"></circle><circle class="dot" cx="668.9290681502086" cy="340" r="3" fill="#2563eb"></circle><circle class="dot" cx="669.9304589707928" cy="340" r="3" fill="#2563eb"></circle><circle class="dot" cx="670.9318497913769" cy="340" r="3" fill="#2563eb"></circle><circle class="dot" cx="671.9332406119611" cy="340" r="3" fill="#2563eb"></circle><circle class="dot" cx="672.9346314325452" cy="340" r="3" fill="#2563eb"></circle><circle class="dot" cx="673.9360222531293" cy="340" r="3" fill="#2563eb"></circle><circle class="dot" cx="674.9374130737135" cy="340" r="3" fill="#2563eb"></circle><circle class="dot" cx="675.9388038942976" cy="340" r="3" fill="#2563eb"></circle><circle class="dot" cx="676.9401947148818" cy="340" r="3" fill="#2563eb"></circle><circle class="dot" cx="677.941585535466" cy="340" r="3" fill="#2563eb"></circle><circle class="dot" cx="678.94297635605" cy="340" r="3" fill="#2563eb"></circle><circle class="dot" cx="679.9443671766343" cy="340" r="3" fill="#2563eb"></circle><circle class="dot" cx="680.9457579972184" cy="340" r="3" fill="#2563eb"></circle><circle class="dot" cx="681.9471488178025" cy="340" r="3" fill="#2563eb"></circle><circle class="dot" cx="682.9485396383866" cy="0" r="3" fill="#2563eb"></circle><circle class="dot" cx="683.9499304589708" cy="0" r="3" fill="#2563eb"></circle><circle class="dot" cx="684.9513212795549" cy="340" r="3" fill="#2563eb"></circle><circle class="dot" cx="685.952712100139" cy="340" r="3" fill="#2563eb"></circle><circle class="dot" cx="686.9541029207232" cy="340" r="3" fill="#2563eb"></circle><circle class="dot" cx="687.9554937413074" cy="340" r="3" fill="#2563eb"></circle><circle class="dot" cx="688.9568845618915" cy="340" r="3" fill="#2563eb"></circle><circle class="dot" cx="689.9582753824757" cy="340" r="3" fill="#2563eb"></circle><circle class="dot" cx="690.9596662030598" cy="340" r="3" fill="#2563eb"></circle><circle class="dot" cx="691.961057023644" cy="340" r="3" fill="#2563eb"></circle><circle class="dot" cx="692.9624478442281" cy="340" r="3" fill="#2563eb"></circle><circle class="dot" cx="693.9638386648122" cy="340" r="3" fill="#2563eb"></circle><circle class="dot" cx="694.9652294853964" cy="340" r="3" fill="#2563eb"></circle><circle class="dot" cx="695.9666203059805" cy="340" r="3" fill="#2563eb"></circle><circle class="dot" cx="696.9680111265646" cy="340" r="3" fill="#2563eb"></circle><circle class="dot" cx="697.9694019471488" cy="0" r="3" fill="#2563eb"></circle><circle class="dot" cx="698.970792767733" cy="0" r="3" fill="#2563eb"></circle><circle class="dot" cx="699.9721835883171" cy="340" r="3" fill="#2563eb"></circle><circle class="dot" cx="700.9735744089012" cy="0" r="3" fill="#2563eb"></circle><circle class="dot" cx="701.9749652294854" cy="0" r="3" fill="#2563eb"></circle><circle class="dot" cx="702.9763560500696" cy="0" r="3" fill="#2563eb"></circle><circle class="dot" cx="703.9777468706537" cy="340" r="3" fill="#2563eb"></circle><circle class="dot" cx="704.9791376912378" cy="0" r="3" fill="#2563eb"></circle><circle class="dot" cx="705.980528511822" cy="340" r="3" fill="#2563eb"></circle><circle class="dot" cx="706.9819193324062" cy="0" r="3" fill="#2563eb"></circle><circle class="dot" cx="707.9833101529903" cy="0" r="3" fill="#2563eb"></circle><circle class="dot" cx="708.9847009735744" cy="0" r="3" fill="#2563eb"></circle><circle class="dot" cx="709.9860917941585" cy="0" r="3" fill="#2563eb"></circle><circle class="dot" cx="710.9874826147427" cy="0" r="3" fill="#2563eb"></circle><circle class="dot" cx="711.9888734353268" cy="340" r="3" fill="#2563eb"></circle><circle class="dot" cx="712.9902642559109" cy="0" r="3" fill="#2563eb"></circle><circle class="dot" cx="713.9916550764951" cy="0" r="3" fill="#2563eb"></circle><circle class="dot" cx="714.9930458970794" cy="0" r="3" fill="#2563eb"></circle><circle class="dot" cx="715.9944367176635" cy="0" r="3" fill="#2563eb"></circle><circle class="dot" cx="716.9958275382476" cy="0" r="3" fill="#2563eb"></circle><circle class="dot" cx="717.9972183588317" cy="0" r="3" fill="#2563eb"></circle><circle class="dot" cx="718.9986091794159" cy="0" r="3" fill="#2563eb"></circle><circle class="dot" cx="720" cy="0" r="3" fill="#2563eb"></circle><g class="grid" transform="translate(0,340)" fill="none" font-size="10" font-family="sans-serif" text-anchor="middle" style="stroke-dasharray: 3,3; opacity: 0.3;"><path class="domain" stroke="currentColor" d="M0.5,-340V0.5H720.5V-340"></path><g class="tick" opacity="1" transform="translate(7.509735744089013,0)"><line stroke="currentColor" y2="-340"></line><text fill="currentColor" y="3" dy="0.71em"></text></g><g class="tick" opacity="1" transform="translate(31.543115438108483,0)"><line stroke="currentColor" y2="-340"></line><text fill="currentColor" y="3" dy="0.71em"></text></g><g class="tick" opacity="1" transform="translate(55.57649513212795,0)"><line stroke="currentColor" y2="-340"></line><text fill="currentColor" y="3" dy="0.71em"></text></g><g class="tick" opacity="1" transform="translate(79.60987482614743,0)"><line stroke="currentColor" y2="-340"></line><text fill="currentColor" y="3" dy="0.71em"></text></g><g class="tick" opacity="1" transform="translate(103.64325452016689,0)"><line stroke="currentColor" y2="-340"></line><text fill="currentColor" y="3" dy="0.71em"></text></g><g class="tick" opacity="1" transform="translate(127.67663421418636,0)"><line stroke="currentColor" y2="-340"></line><text fill="currentColor" y="3" dy="0.71em"></text></g><g class="tick" opacity="1" transform="translate(151.71001390820584,0)"><line stroke="currentColor" y2="-340"></line><text fill="currentColor" y="3" dy="0.71em"></text></g><g class="tick" opacity="1" transform="translate(175.7433936022253,0)"><line stroke="currentColor" y2="-340"></line><text fill="currentColor" y="3" dy="0.71em"></text></g><g class="tick" opacity="1" transform="translate(199.77677329624478,0)"><line stroke="currentColor" y2="-340"></line><text fill="currentColor" y="3" dy="0.71em"></text></g><g class="tick" opacity="1" transform="translate(223.81015299026427,0)"><line stroke="currentColor" y2="-340"></line><text fill="currentColor" y="3" dy="0.71em"></text></g><g class="tick" opacity="1" transform="translate(247.84353268428373,0)"><line stroke="currentColor" y2="-340"></line><text fill="currentColor" y="3" dy="0.71em"></text></g><g class="tick" opacity="1" transform="translate(271.8769123783032,0)"><line stroke="currentColor" y2="-340"></line><text fill="currentColor" y="3" dy="0.71em"></text></g><g class="tick" opacity="1" transform="translate(295.9102920723227,0)"><line stroke="currentColor" y2="-340"></line><text fill="currentColor" y="3" dy="0.71em"></text></g><g class="tick" opacity="1" transform="translate(319.9436717663421,0)"><line stroke="currentColor" y2="-340"></line><text fill="currentColor" y="3" dy="0.71em"></text></g><g class="tick" opacity="1" transform="translate(343.9770514603616,0)"><line stroke="currentColor" y2="-340"></line><text fill="currentColor" y="3" dy="0.71em"></text></g><g class="tick" opacity="1" transform="translate(368.01043115438114,0)"><line stroke="currentColor" y2="-340"></line><text fill="currentColor" y="3" dy="0.71em"></text></g><g class="tick" opacity="1" transform="translate(392.0438108484006,0)"><line stroke="currentColor" y2="-340"></line><text fill="currentColor" y="3" dy="0.71em"></text></g><g class="tick" opacity="1" transform="translate(416.07719054242,0)"><line stroke="currentColor" y2="-340"></line><text fill="currentColor" y="3" dy="0.71em"></text></g><g class="tick" opacity="1" transform="translate(440.11057023643946,0)"><line stroke="currentColor" y2="-340"></line><text fill="currentColor" y="3" dy="0.71em"></text></g><g class="tick" opacity="1" transform="translate(464.1439499304589,0)"><line stroke="currentColor" y2="-340"></line><text fill="currentColor" y="3" dy="0.71em"></text></g><g class="tick" opacity="1" transform="translate(488.17732962447843,0)"><line stroke="currentColor" y2="-340"></line><text fill="currentColor" y="3" dy="0.71em"></text></g><g class="tick" opacity="1" transform="translate(512.210709318498,0)"><line stroke="currentColor" y2="-340"></line><text fill="currentColor" y="3" dy="0.71em"></text></g><g class="tick" opacity="1" transform="translate(536.2440890125174,0)"><line stroke="currentColor" y2="-340"></line><text fill="currentColor" y="3" dy="0.71em"></text></g><g class="tick" opacity="1" transform="translate(560.2774687065369,0)"><line stroke="currentColor" y2="-340"></line><text fill="currentColor" y="3" dy="0.71em"></text></g><g class="tick" opacity="1" transform="translate(584.3108484005563,0)"><line stroke="currentColor" y2="-340"></line><text fill="currentColor" y="3" dy="0.71em"></text></g><g class="tick" opacity="1" transform="translate(608.3442280945758,0)"><line stroke="currentColor" y2="-340"></line><text fill="currentColor" y="3" dy="0.71em"></text></g><g class="tick" opacity="1" transform="translate(632.3776077885952,0)"><line stroke="currentColor" y2="-340"></line><text fill="currentColor" y="3" dy="0.71em"></text></g><g class="tick" opacity="1" transform="translate(656.4109874826147,0)"><line stroke="currentColor" y2="-340"></line><text fill="currentColor" y="3" dy="0.71em"></text></g><g class="tick" opacity="1" transform="translate(680.4443671766343,0)"><line stroke="currentColor" y2="-340"></line><text fill="currentColor" y="3" dy="0.71em"></text></g><g class="tick" opacity="1" transform="translate(704.4777468706537,0)"><line stroke="currentColor" y2="-340"></line><text fill="currentColor" y="3" dy="0.71em"></text></g></g><g class="grid" fill="none" font-size="10" font-family="sans-serif" text-anchor="end" style="stroke-dasharray: 3,3; opacity: 0.3;"><path class="domain" stroke="currentColor" d="M720,340.5H0.5V0.5H720"></path><g class="tick" opacity="1" transform="translate(0,340.5)"><line stroke="currentColor" x2="720"></line><text fill="currentColor" x="-3" dy="0.32em"></text></g><g class="tick" opacity="1" transform="translate(0,298)"><line stroke="currentColor" x2="720"></line><text fill="currentColor" x="-3" dy="0.32em"></text></g><g class="tick" opacity="1" transform="translate(0,255.5)"><line stroke="currentColor" x2="720"></line><text fill="currentColor" x="-3" dy="0.32em"></text></g><g class="tick" opacity="1" transform="translate(0,213)"><line stroke="currentColor" x2="720"></line><text fill="currentColor" x="-3" dy="0.32em"></text></g><g class="tick" opacity="1" transform="translate(0,170.50000000000003)"><line stroke="currentColor" x2="720"></line><text fill="currentColor" x="-3" dy="0.32em"></text></g><g class="tick" opacity="1" transform="translate(0,128)"><line stroke="currentColor" x2="720"></line><text fill="currentColor" x="-3" dy="0.32em"></text></g><g class="tick" opacity="1" transform="translate(0,85.5)"><line stroke="currentColor" x2="720"></line><text fill="currentColor" x="-3" dy="0.32em"></text></g><g class="tick" opacity="1" transform="translate(0,43.000000000000036)"><line stroke="currentColor" x2="720"></line><text fill="currentColor" x="-3" dy="0.32em"></text></g><g class="tick" opacity="1" transform="translate(0,0.5)"><line stroke="currentColor" x2="720"></line><text fill="currentColor" x="-3" dy="0.32em"></text></g></g></g><text x="400" y="10" text-anchor="middle" style="font-size: 16px; font-weight: bold; fill: #333;">OKX USDT Lending Rate - June 2025</text></svg>