<svg width="800" height="400" xmlns="http://www.w3.org/2000/svg"><g transform="translate(50,20)"><g transform="translate(0,340)" fill="none" font-size="10" font-family="sans-serif" text-anchor="middle"><path class="domain" stroke="currentColor" d="M0.5,6V0.5H720.5V6"></path><g class="tick" opacity="1" transform="translate(7.509735744089013,0)"><line stroke="currentColor" y2="6"></line><text fill="currentColor" y="9" dy="0.71em">04/01 00:00</text></g><g class="tick" opacity="1" transform="translate(55.57649513212795,0)"><line stroke="currentColor" y2="6"></line><text fill="currentColor" y="9" dy="0.71em">04/03 00:00</text></g><g class="tick" opacity="1" transform="translate(103.64325452016689,0)"><line stroke="currentColor" y2="6"></line><text fill="currentColor" y="9" dy="0.71em">04/05 00:00</text></g><g class="tick" opacity="1" transform="translate(151.71001390820584,0)"><line stroke="currentColor" y2="6"></line><text fill="currentColor" y="9" dy="0.71em">04/07 00:00</text></g><g class="tick" opacity="1" transform="translate(199.77677329624478,0)"><line stroke="currentColor" y2="6"></line><text fill="currentColor" y="9" dy="0.71em">04/09 00:00</text></g><g class="tick" opacity="1" transform="translate(247.84353268428373,0)"><line stroke="currentColor" y2="6"></line><text fill="currentColor" y="9" dy="0.71em">04/11 00:00</text></g><g class="tick" opacity="1" transform="translate(295.9102920723227,0)"><line stroke="currentColor" y2="6"></line><text fill="currentColor" y="9" dy="0.71em">04/13 00:00</text></g><g class="tick" opacity="1" transform="translate(343.9770514603616,0)"><line stroke="currentColor" y2="6"></line><text fill="currentColor" y="9" dy="0.71em">04/15 00:00</text></g><g class="tick" opacity="1" transform="translate(392.0438108484006,0)"><line stroke="currentColor" y2="6"></line><text fill="currentColor" y="9" dy="0.71em">04/17 00:00</text></g><g class="tick" opacity="1" transform="translate(440.11057023643946,0)"><line stroke="currentColor" y2="6"></line><text fill="currentColor" y="9" dy="0.71em">04/19 00:00</text></g><g class="tick" opacity="1" transform="translate(488.17732962447843,0)"><line stroke="currentColor" y2="6"></line><text fill="currentColor" y="9" dy="0.71em">04/21 00:00</text></g><g class="tick" opacity="1" transform="translate(536.2440890125174,0)"><line stroke="currentColor" y2="6"></line><text fill="currentColor" y="9" dy="0.71em">04/23 00:00</text></g><g class="tick" opacity="1" transform="translate(584.3108484005563,0)"><line stroke="currentColor" y2="6"></line><text fill="currentColor" y="9" dy="0.71em">04/25 00:00</text></g><g class="tick" opacity="1" transform="translate(632.3776077885952,0)"><line stroke="currentColor" y2="6"></line><text fill="currentColor" y="9" dy="0.71em">04/27 00:00</text></g><g class="tick" opacity="1" transform="translate(680.4443671766343,0)"><line stroke="currentColor" y2="6"></line><text fill="currentColor" y="9" dy="0.71em">04/29 00:00</text></g></g><g fill="none" font-size="10" font-family="sans-serif" text-anchor="end"><path class="domain" stroke="currentColor" d="M-6,340.5H0.5V0.5H-6"></path><g class="tick" opacity="1" transform="translate(0,340.5)"><line stroke="currentColor" x2="-6"></line><text fill="currentColor" x="-9" dy="0.32em">0.00%</text></g><g class="tick" opacity="1" transform="translate(0,306.5)"><line stroke="currentColor" x2="-6"></line><text fill="currentColor" x="-9" dy="0.32em">5.00%</text></g><g class="tick" opacity="1" transform="translate(0,272.5)"><line stroke="currentColor" x2="-6"></line><text fill="currentColor" x="-9" dy="0.32em">10.00%</text></g><g class="tick" opacity="1" transform="translate(0,238.49999999999997)"><line stroke="currentColor" x2="-6"></line><text fill="currentColor" x="-9" dy="0.32em">15.00%</text></g><g class="tick" opacity="1" transform="translate(0,204.5)"><line stroke="currentColor" x2="-6"></line><text fill="currentColor" x="-9" dy="0.32em">20.00%</text></g><g class="tick" opacity="1" transform="translate(0,170.5)"><line stroke="currentColor" x2="-6"></line><text fill="currentColor" x="-9" dy="0.32em">25.00%</text></g><g class="tick" opacity="1" transform="translate(0,136.5)"><line stroke="currentColor" x2="-6"></line><text fill="currentColor" x="-9" dy="0.32em">30.00%</text></g><g class="tick" opacity="1" transform="translate(0,102.50000000000001)"><line stroke="currentColor" x2="-6"></line><text fill="currentColor" x="-9" dy="0.32em">35.00%</text></g><g class="tick" opacity="1" transform="translate(0,68.49999999999999)"><line stroke="currentColor" x2="-6"></line><text fill="currentColor" x="-9" dy="0.32em">40.00%</text></g><g class="tick" opacity="1" transform="translate(0,34.49999999999999)"><line stroke="currentColor" x2="-6"></line><text fill="currentColor" x="-9" dy="0.32em">45.00%</text></g><g class="tick" opacity="1" transform="translate(0,0.5)"><line stroke="currentColor" x2="-6"></line><text fill="currentColor" x="-9" dy="0.32em">50.00%</text></g></g><text transform="rotate(-90)" y="-50" x="-170" dy="1em" style="text-anchor: middle; font-size: 12px; fill: #666;">Pre Rate (%)</text><text transform="translate(360, 380)" style="text-anchor: middle; font-size: 12px; fill: #666;">Time (UTC)</text><path fill="none" stroke="#2563eb" stroke-width="2" d="M0,326.4C0.334,326.4,0.668,326.4,1.001,326.4C1.335,326.4,1.669,326.4,2.003,326.4C2.337,326.4,2.67,326.4,3.004,326.4C3.338,326.4,3.672,326.4,4.006,326.4C4.339,326.4,4.673,326.4,5.007,326.4C5.341,326.4,5.675,326.4,6.008,326.4C6.342,326.4,6.676,306,7.01,306C7.344,306,7.677,326.4,8.011,326.4C8.345,326.4,8.679,326.4,9.013,326.4C9.346,326.4,9.68,326.4,10.014,326.4C10.348,326.4,10.682,326.4,11.015,326.4C11.349,326.4,11.683,326.4,12.017,326.4C12.35,326.4,12.684,326.4,13.018,326.4C13.352,326.4,13.686,326.4,14.019,326.4C14.353,326.4,14.687,326.4,15.021,326.4C15.355,326.4,15.688,306,16.022,306C16.356,306,16.69,306,17.024,306C17.357,306,17.691,326.4,18.025,326.4C18.359,326.4,18.693,326.4,19.026,326.4C19.36,326.4,19.694,326.4,20.028,326.4C20.362,326.4,20.695,326.4,21.029,326.4C21.363,326.4,21.697,326.4,22.031,326.4C22.364,326.4,22.698,326.4,23.032,326.4C23.366,326.4,23.7,326.4,24.033,326.4C24.367,326.4,24.701,326.4,25.035,326.4C25.369,326.4,25.702,326.4,26.036,326.4C26.37,326.4,26.704,326.4,27.038,326.4C27.371,326.4,27.705,326.4,28.039,326.4C28.373,326.4,28.707,326.4,29.04,326.4C29.374,326.4,29.708,326.4,30.042,326.4C30.376,326.4,30.709,326.4,31.043,326.4C31.377,326.4,31.711,326.4,32.045,326.4C32.378,326.4,32.712,326.4,33.046,326.4C33.38,326.4,33.713,326.4,34.047,326.4C34.381,326.4,34.715,326.4,35.049,326.4C35.382,326.4,35.716,326.4,36.05,326.4C36.384,326.4,36.718,326.4,37.051,326.4C37.385,326.4,37.719,326.4,38.053,326.4C38.387,326.4,38.72,326.4,39.054,326.4C39.388,326.4,39.722,326.4,40.056,326.4C40.389,326.4,40.723,326.4,41.057,326.4C41.391,326.4,41.725,326.4,42.058,326.4C42.392,326.4,42.726,326.4,43.06,326.4C43.394,326.4,43.727,326.4,44.061,326.4C44.395,326.4,44.729,326.4,45.063,326.4C45.396,326.4,45.73,326.4,46.064,326.4C46.398,326.4,46.732,326.4,47.065,326.4C47.399,326.4,47.733,326.4,48.067,326.4C48.401,326.4,48.734,326.4,49.068,326.4C49.402,326.4,49.736,326.4,50.07,326.4C50.403,326.4,50.737,326.4,51.071,326.4C51.405,326.4,51.739,326.4,52.072,326.4C52.406,326.4,52.74,326.4,53.074,326.4C53.408,326.4,53.741,326.4,54.075,326.4C54.409,326.4,54.743,326.4,55.076,326.4C55.41,326.4,55.744,326.4,56.078,326.4C56.412,326.4,56.745,326.4,57.079,326.4C57.413,326.4,57.747,306,58.081,306C58.414,306,58.748,306,59.082,306C59.416,306,59.75,306,60.083,306C60.417,306,60.751,306,61.085,306C61.419,306,61.752,306,62.086,306C62.42,306,62.754,306,63.088,306C63.421,306,63.755,306,64.089,306C64.423,306,64.757,326.4,65.09,326.4C65.424,326.4,65.758,326.4,66.092,326.4C66.426,326.4,66.759,326.4,67.093,326.4C67.427,326.4,67.761,326.4,68.095,326.4C68.428,326.4,68.762,326.4,69.096,326.4C69.43,326.4,69.764,326.4,70.097,326.4C70.431,326.4,70.765,326.4,71.099,326.4C71.433,326.4,71.766,326.4,72.1,326.4C72.434,326.4,72.768,326.4,73.102,326.4C73.435,326.4,73.769,326.4,74.103,326.4C74.437,326.4,74.771,326.4,75.104,326.4C75.438,326.4,75.772,326.4,76.106,326.4C76.439,326.4,76.773,326.4,77.107,326.4C77.441,326.4,77.775,326.4,78.108,326.4C78.442,326.4,78.776,326.4,79.11,326.4C79.444,326.4,79.777,326.4,80.111,326.4C80.445,326.4,80.779,306,81.113,306C81.446,306,81.78,306,82.114,306C82.448,306,82.782,306,83.115,306C83.449,306,83.783,306,84.117,306C84.451,306,84.784,306,85.118,306C85.452,306,85.786,306,86.12,306C86.453,306,86.787,306,87.121,306C87.455,306,87.789,306,88.122,306C88.456,306,88.79,306,89.124,306C89.458,306,89.791,306,90.125,306C90.459,306,90.793,306,91.127,306C91.46,306,91.794,326.4,92.128,326.4C92.462,326.4,92.796,326.4,93.129,326.4C93.463,326.4,93.797,326.4,94.131,326.4C94.465,326.4,94.798,326.4,95.132,326.4C95.466,326.4,95.8,326.4,96.134,326.4C96.467,326.4,96.801,326.4,97.135,326.4C97.469,326.4,97.803,326.4,98.136,326.4C98.47,326.4,98.804,326.4,99.138,326.4C99.471,326.4,99.805,326.4,100.139,326.4C100.473,326.4,100.807,326.4,101.14,326.4C101.474,326.4,101.808,326.4,102.142,326.4C102.476,326.4,102.809,326.4,103.143,326.4C103.477,326.4,103.811,326.4,104.145,326.4C104.478,326.4,104.812,326.4,105.146,326.4C105.48,326.4,105.814,326.4,106.147,326.4C106.481,326.4,106.815,326.4,107.149,326.4C107.483,326.4,107.816,326.4,108.15,326.4C108.484,326.4,108.818,326.4,109.152,326.4C109.485,326.4,109.819,326.4,110.153,326.4C110.487,326.4,110.821,326.4,111.154,326.4C111.488,326.4,111.822,326.4,112.156,326.4C112.49,326.4,112.823,326.4,113.157,326.4C113.491,326.4,113.825,326.4,114.159,326.4C114.492,326.4,114.826,306,115.16,306C115.494,306,115.828,326.4,116.161,326.4C116.495,326.4,116.829,326.4,117.163,326.4C117.497,326.4,117.83,326.4,118.164,326.4C118.498,326.4,118.832,326.4,119.166,326.4C119.499,326.4,119.833,326.4,120.167,326.4C120.501,326.4,120.834,326.4,121.168,326.4C121.502,326.4,121.836,306,122.17,306C122.503,306,122.837,306,123.171,306C123.505,306,123.839,306,124.172,306C124.506,306,124.84,306,125.174,306C125.508,306,125.841,306,126.175,306C126.509,306,126.843,306,127.177,306C127.51,306,127.844,306,128.178,306C128.512,306,128.846,306,129.179,306C129.513,306,129.847,306,130.181,306C130.515,306,130.848,306,131.182,306C131.516,306,131.85,306,132.184,306C132.517,306,132.851,306,133.185,306C133.519,306,133.853,306,134.186,306C134.52,306,134.854,306,135.188,306C135.522,306,135.855,306,136.189,306C136.523,306,136.857,306,137.191,306C137.524,306,137.858,306,138.192,306C138.526,306,138.86,326.4,139.193,326.4C139.527,326.4,139.861,326.4,140.195,326.4C140.529,326.4,140.862,326.4,141.196,326.4C141.53,326.4,141.864,326.4,142.197,326.4C142.531,326.4,142.865,326.4,143.199,326.4C143.533,326.4,143.866,326.4,144.2,326.4C144.534,326.4,144.868,326.4,145.202,326.4C145.535,326.4,145.869,326.4,146.203,326.4C146.537,326.4,146.871,329.8,147.204,329.8C147.538,329.8,147.872,329.8,148.206,329.8C148.54,329.8,148.873,329.8,149.207,329.8C149.541,329.8,149.875,326.74,150.209,326.74C150.542,326.74,150.876,333.2,151.21,333.2C151.544,333.2,151.878,333.2,152.211,333.2C152.545,333.2,152.879,333.2,153.213,333.2C153.547,333.2,153.88,333.2,154.214,333.2C154.548,333.2,154.882,333.2,155.216,333.2C155.549,333.2,155.883,333.2,156.217,333.2C156.551,333.2,156.885,333.2,157.218,333.2C157.552,333.2,157.886,333.2,158.22,333.2C158.554,333.2,158.887,333.2,159.221,333.2C159.555,333.2,159.889,333.2,160.223,333.2C160.556,333.2,160.89,333.2,161.224,333.2C161.558,333.2,161.892,333.2,162.225,333.2C162.559,333.2,162.893,333.2,163.227,333.2C163.561,333.2,163.894,333.2,164.228,333.2C164.562,333.2,164.896,333.2,165.229,333.2C165.563,333.2,165.897,333.2,166.231,333.2C166.565,333.2,166.898,333.2,167.232,333.2C167.566,333.2,167.9,333.2,168.234,333.2C168.567,333.2,168.901,333.2,169.235,333.2C169.569,333.2,169.903,333.2,170.236,333.2C170.57,333.2,170.904,333.2,171.238,333.2C171.572,333.2,171.905,333.2,172.239,333.2C172.573,333.2,172.907,333.2,173.241,333.2C173.574,333.2,173.908,333.2,174.242,333.2C174.576,333.2,174.91,333.2,175.243,333.2C175.577,333.2,175.911,333.2,176.245,333.2C176.579,333.2,176.912,333.2,177.246,333.2C177.58,333.2,177.914,333.2,178.248,333.2C178.581,333.2,178.915,333.2,179.249,333.2C179.583,333.2,179.917,333.2,180.25,333.2C180.584,333.2,180.918,333.2,181.252,333.2C181.586,333.2,181.919,333.2,182.253,333.2C182.587,333.2,182.921,333.2,183.255,333.2C183.588,333.2,183.922,333.2,184.256,333.2C184.59,333.2,184.924,333.2,185.257,333.2C185.591,333.2,185.925,333.2,186.259,333.2C186.592,333.2,186.926,333.2,187.26,333.2C187.594,333.2,187.928,333.2,188.261,333.2C188.595,333.2,188.929,333.2,189.263,333.2C189.597,333.2,189.93,333.2,190.264,333.2C190.598,333.2,190.932,333.2,191.266,333.2C191.599,333.2,191.933,333.2,192.267,333.2C192.601,333.2,192.935,333.2,193.268,333.2C193.602,333.2,193.936,333.2,194.27,333.2C194.604,333.2,194.937,333.2,195.271,333.2C195.605,333.2,195.939,333.2,196.273,333.2C196.606,333.2,196.94,333.2,197.274,333.2C197.608,333.2,197.942,333.2,198.275,333.2C198.609,333.2,198.943,333.2,199.277,333.2C199.611,333.2,199.944,333.2,200.278,333.2C200.612,333.2,200.946,333.2,201.28,333.2C201.613,333.2,201.947,333.2,202.281,333.2C202.615,333.2,202.949,333.2,203.282,333.2C203.616,333.2,203.95,333.2,204.284,333.2C204.618,333.2,204.951,333.2,205.285,333.2C205.619,333.2,205.953,333.2,206.287,333.2C206.62,333.2,206.954,333.2,207.288,333.2C207.622,333.2,207.955,333.2,208.289,333.2C208.623,333.2,208.957,332.067,209.291,329.8C209.624,327.533,209.958,306,210.292,306C210.626,306,210.96,306,211.293,306C211.627,306,211.961,306,212.295,306C212.629,306,212.962,306,213.296,306C213.63,306,213.964,326.4,214.298,326.4C214.631,326.4,214.965,326.4,215.299,326.4C215.633,326.4,215.967,326.4,216.3,326.4C216.634,326.4,216.968,326.4,217.302,326.4C217.636,326.4,217.969,326.4,218.303,326.4C218.637,326.4,218.971,326.4,219.305,326.4C219.638,326.4,219.972,326.4,220.306,326.4C220.64,326.4,220.974,326.4,221.307,326.4C221.641,326.4,221.975,306,222.309,306C222.643,306,222.976,306,223.31,306C223.644,306,223.978,306,224.312,306C224.645,306,224.979,306,225.313,306C225.647,306,225.981,306,226.314,306C226.648,306,226.982,306,227.316,306C227.65,306,227.983,306,228.317,306C228.651,306,228.985,326.4,229.318,326.4C229.652,326.4,229.986,306,230.32,306C230.654,306,230.987,326.4,231.321,326.4C231.655,326.4,231.989,326.4,232.323,326.4C232.656,326.4,232.99,326.4,233.324,326.4C233.658,326.4,233.992,326.4,234.325,326.4C234.659,326.4,234.993,326.4,235.327,326.4C235.661,326.4,235.994,326.4,236.328,326.4C236.662,326.4,236.996,326.4,237.33,326.4C237.663,326.4,237.997,326.4,238.331,326.4C238.665,326.4,238.999,326.4,239.332,326.4C239.666,326.4,240,329.8,240.334,329.8C240.668,329.8,241.001,329.8,241.335,329.8C241.669,329.8,242.003,327.76,242.337,327.76C242.67,327.76,243.004,329.8,243.338,329.8C243.672,329.8,244.006,327.148,244.339,327.148C244.673,327.148,245.007,327.76,245.341,327.76C245.675,327.76,246.008,326.4,246.342,326.4C246.676,326.4,247.01,326.4,247.344,326.4C247.677,326.4,248.011,329.8,248.345,329.8C248.679,329.8,249.013,326.4,249.346,326.4C249.68,326.4,250.014,326.4,250.348,326.4C250.682,326.4,251.015,326.4,251.349,326.4C251.683,326.4,252.017,329.8,252.35,329.8C252.684,329.8,253.018,329.8,253.352,329.8C253.686,329.8,254.019,326.4,254.353,326.4C254.687,326.4,255.021,329.007,255.355,329.324C255.688,329.641,256.022,329.8,256.356,329.8C256.69,329.8,257.024,326.4,257.357,326.4C257.691,326.4,258.025,326.4,258.359,326.4C258.693,326.4,259.026,326.4,259.36,326.4C259.694,326.4,260.028,329.8,260.362,329.8C260.695,329.8,261.029,329.8,261.363,329.8C261.697,329.8,262.031,327.76,262.364,327.76C262.698,327.76,263.032,327.76,263.366,327.76C263.7,327.76,264.033,329.324,264.367,329.324C264.701,329.324,265.035,327.08,265.369,327.08C265.702,327.08,266.036,327.08,266.37,327.08C266.704,327.08,267.038,329.8,267.371,329.8C267.705,329.8,268.039,329.8,268.373,329.8C268.707,329.8,269.04,326.4,269.374,326.4C269.708,326.4,270.042,329.8,270.376,329.8C270.709,329.8,271.043,329.8,271.377,329.8C271.711,329.8,272.045,329.8,272.378,329.8C272.712,329.8,273.046,329.8,273.38,329.8C273.713,329.8,274.047,329.8,274.381,329.8C274.715,329.8,275.049,329.8,275.382,329.8C275.716,329.8,276.05,333.087,276.384,333.132C276.718,333.177,277.051,333.2,277.385,333.2C277.719,333.2,278.053,329.8,278.387,329.8C278.72,329.8,279.054,329.8,279.388,329.8C279.722,329.8,280.056,329.8,280.389,329.8C280.723,329.8,281.057,329.8,281.391,329.8C281.725,329.8,282.058,329.8,282.392,329.8C282.726,329.8,283.06,329.8,283.394,329.8C283.727,329.8,284.061,333.132,284.395,333.132C284.729,333.132,285.063,329.8,285.396,329.8C285.73,329.8,286.064,329.8,286.398,329.8C286.732,329.8,287.065,329.8,287.399,329.8C287.733,329.8,288.067,329.8,288.401,329.8C288.734,329.8,289.068,329.8,289.402,329.8C289.736,329.8,290.07,329.8,290.403,329.8C290.737,329.8,291.071,329.8,291.405,329.8C291.739,329.8,292.072,329.8,292.406,329.8C292.74,329.8,293.074,329.8,293.408,329.8C293.741,329.8,294.075,326.4,294.409,326.4C294.743,326.4,295.076,327.42,295.41,327.76C295.744,328.1,296.078,328.44,296.412,328.44C296.745,328.44,297.079,326.4,297.413,326.4C297.747,326.4,298.081,326.4,298.414,326.4C298.748,326.4,299.082,326.4,299.416,326.4C299.75,326.4,300.083,327.193,300.417,327.76C300.751,328.327,301.085,329.8,301.419,329.8C301.752,329.8,302.086,329.8,302.42,329.8C302.754,329.8,303.088,329.823,303.421,329.868C303.755,329.913,304.089,330.48,304.423,330.48C304.757,330.48,305.09,330.48,305.424,330.48C305.758,330.48,306.092,329.8,306.426,329.8C306.759,329.8,307.093,333.2,307.427,333.2C307.761,333.2,308.095,333.2,308.428,333.2C308.762,333.2,309.096,333.2,309.43,333.2C309.764,333.2,310.097,333.2,310.431,333.2C310.765,333.2,311.099,333.2,311.433,333.2C311.766,333.2,312.1,333.2,312.434,333.2C312.768,333.2,313.102,333.2,313.435,333.2C313.769,333.2,314.103,333.2,314.437,333.2C314.771,333.2,315.104,333.2,315.438,333.2C315.772,333.2,316.106,333.2,316.439,333.2C316.773,333.2,317.107,333.2,317.441,333.2C317.775,333.2,318.108,333.2,318.442,333.2C318.776,333.2,319.11,333.2,319.444,333.2C319.777,333.2,320.111,333.2,320.445,333.2C320.779,333.2,321.113,333.2,321.446,333.2C321.78,333.2,322.114,333.2,322.448,333.2C322.782,333.2,323.115,333.2,323.449,333.2C323.783,333.2,324.117,333.2,324.451,333.2C324.784,333.2,325.118,333.2,325.452,333.2C325.786,333.2,326.12,333.2,326.453,333.2C326.787,333.2,327.121,333.2,327.455,333.2C327.789,333.2,328.122,333.2,328.456,333.2C328.79,333.2,329.124,333.2,329.458,333.2C329.791,333.2,330.125,333.2,330.459,333.2C330.793,333.2,331.127,333.2,331.46,333.2C331.794,333.2,332.128,333.2,332.462,333.2C332.796,333.2,333.129,333.2,333.463,333.2C333.797,333.2,334.131,333.2,334.465,333.2C334.798,333.2,335.132,333.2,335.466,333.2C335.8,333.2,336.134,333.2,336.467,333.2C336.801,333.2,337.135,333.2,337.469,333.2C337.803,333.2,338.136,333.2,338.47,333.2C338.804,333.2,339.138,333.2,339.471,333.2C339.805,333.2,340.139,333.2,340.473,333.2C340.807,333.2,341.14,333.2,341.474,333.2C341.808,333.2,342.142,333.2,342.476,333.2C342.809,333.2,343.143,333.2,343.477,333.2C343.811,333.2,344.145,333.2,344.478,333.2C344.812,333.2,345.146,333.2,345.48,333.2C345.814,333.2,346.147,333.2,346.481,333.2C346.815,333.2,347.149,333.2,347.483,333.2C347.816,333.2,348.15,333.2,348.484,333.2C348.818,333.2,349.152,333.2,349.485,333.2C349.819,333.2,350.153,333.2,350.487,333.2C350.821,333.2,351.154,333.2,351.488,333.2C351.822,333.2,352.156,333.2,352.49,333.2C352.823,333.2,353.157,333.2,353.491,333.2C353.825,333.2,354.159,333.2,354.492,333.2C354.826,333.2,355.16,333.2,355.494,333.2C355.828,333.2,356.161,333.2,356.495,333.2C356.829,333.2,357.163,333.2,357.497,333.2C357.83,333.2,358.164,333.2,358.498,333.2C358.832,333.2,359.166,333.2,359.499,333.2C359.833,333.2,360.167,333.2,360.501,333.2C360.834,333.2,361.168,333.2,361.502,333.2C361.836,333.2,362.17,333.2,362.503,333.2C362.837,333.2,363.171,333.2,363.505,333.2C363.839,333.2,364.172,333.2,364.506,333.2C364.84,333.2,365.174,333.2,365.508,333.2C365.841,333.2,366.175,333.2,366.509,333.2C366.843,333.2,367.177,333.2,367.51,333.2C367.844,333.2,368.178,333.2,368.512,333.2C368.846,333.2,369.179,333.2,369.513,333.2C369.847,333.2,370.181,333.2,370.515,333.2C370.848,333.2,371.182,333.2,371.516,333.2C371.85,333.2,372.184,333.2,372.517,333.2C372.851,333.2,373.185,333.2,373.519,333.2C373.853,333.2,374.186,333.2,374.52,333.2C374.854,333.2,375.188,333.2,375.522,333.2C375.855,333.2,376.189,333.2,376.523,333.2C376.857,333.2,377.191,333.2,377.524,333.2C377.858,333.2,378.192,333.2,378.526,333.2C378.86,333.2,379.193,333.2,379.527,333.2C379.861,333.2,380.195,333.2,380.529,333.2C380.862,333.2,381.196,333.2,381.53,333.2C381.864,333.2,382.197,333.2,382.531,333.2C382.865,333.2,383.199,333.2,383.533,333.2C383.866,333.2,384.2,333.2,384.534,333.2C384.868,333.2,385.202,333.2,385.535,333.2C385.869,333.2,386.203,333.2,386.537,333.2C386.871,333.2,387.204,333.2,387.538,333.2C387.872,333.2,388.206,333.2,388.54,333.2C388.873,333.2,389.207,333.2,389.541,333.2C389.875,333.2,390.209,333.2,390.542,333.2C390.876,333.2,391.21,333.2,391.544,333.2C391.878,333.2,392.211,333.2,392.545,333.2C392.879,333.2,393.213,333.2,393.547,333.2C393.88,333.2,394.214,333.2,394.548,333.2C394.882,333.2,395.216,333.2,395.549,333.2C395.883,333.2,396.217,333.2,396.551,333.2C396.885,333.2,397.218,333.2,397.552,333.2C397.886,333.2,398.22,333.2,398.554,333.2C398.887,333.2,399.221,333.2,399.555,333.2C399.889,333.2,400.223,333.2,400.556,333.2C400.89,333.2,401.224,333.2,401.558,333.2C401.892,333.2,402.225,333.2,402.559,333.2C402.893,333.2,403.227,333.2,403.561,333.2C403.894,333.2,404.228,333.2,404.562,333.2C404.896,333.2,405.229,333.2,405.563,333.2C405.897,333.2,406.231,333.2,406.565,333.2C406.898,333.2,407.232,333.2,407.566,333.2C407.9,333.2,408.234,333.2,408.567,333.2C408.901,333.2,409.235,333.2,409.569,333.2C409.903,333.2,410.236,333.2,410.57,333.2C410.904,333.2,411.238,333.2,411.572,333.2C411.905,333.2,412.239,333.2,412.573,333.2C412.907,333.2,413.241,333.2,413.574,333.2C413.908,333.2,414.242,333.2,414.576,333.2C414.91,333.2,415.243,333.2,415.577,333.2C415.911,333.2,416.245,333.2,416.579,333.2C416.912,333.2,417.246,333.2,417.58,333.2C417.914,333.2,418.248,333.2,418.581,333.2C418.915,333.2,419.249,333.2,419.583,333.2C419.917,333.2,420.25,333.2,420.584,333.2C420.918,333.2,421.252,333.2,421.586,333.2C421.919,333.2,422.253,333.2,422.587,333.2C422.921,333.2,423.255,333.2,423.588,333.2C423.922,333.2,424.256,333.2,424.59,333.2C424.924,333.2,425.257,333.2,425.591,333.2C425.925,333.2,426.259,333.2,426.592,333.2C426.926,333.2,427.26,333.2,427.594,333.2C427.928,333.2,428.261,333.2,428.595,333.2C428.929,333.2,429.263,333.2,429.597,333.2C429.93,333.2,430.264,333.2,430.598,333.2C430.932,333.2,431.266,333.2,431.599,333.2C431.933,333.2,432.267,333.2,432.601,333.2C432.935,333.2,433.268,333.2,433.602,333.2C433.936,333.2,434.27,333.2,434.604,333.2C434.937,333.2,435.271,333.2,435.605,333.2C435.939,333.2,436.273,333.2,436.606,333.2C436.94,333.2,437.274,333.2,437.608,333.2C437.942,333.2,438.275,333.2,438.609,333.2C438.943,333.2,439.277,333.2,439.611,333.2C439.944,333.2,440.278,333.2,440.612,333.2C440.946,333.2,441.28,333.2,441.613,333.2C441.947,333.2,442.281,333.2,442.615,333.2C442.949,333.2,443.282,333.2,443.616,333.2C443.95,333.2,444.284,333.2,444.618,333.2C444.951,333.2,445.285,333.2,445.619,333.2C445.953,333.2,446.287,333.2,446.62,333.2C446.954,333.2,447.288,333.2,447.622,333.2C447.955,333.2,448.289,333.2,448.623,333.2C448.957,333.2,449.291,333.2,449.624,333.2C449.958,333.2,450.292,333.2,450.626,333.2C450.96,333.2,451.293,333.2,451.627,333.2C451.961,333.2,452.295,333.2,452.629,333.2C452.962,333.2,453.296,333.2,453.63,333.2C453.964,333.2,454.298,333.2,454.631,333.2C454.965,333.2,455.299,333.2,455.633,333.2C455.967,333.2,456.3,333.2,456.634,333.2C456.968,333.2,457.302,333.2,457.636,333.2C457.969,333.2,458.303,333.2,458.637,333.2C458.971,333.2,459.305,333.2,459.638,333.2C459.972,333.2,460.306,333.2,460.64,333.2C460.974,333.2,461.307,333.2,461.641,333.2C461.975,333.2,462.309,333.2,462.643,333.2C462.976,333.2,463.31,333.2,463.644,333.2C463.978,333.2,464.312,332.52,464.645,332.52C464.979,332.52,465.313,333.2,465.647,333.2C465.981,333.2,466.314,333.132,466.648,333.132C466.982,333.132,467.316,333.2,467.65,333.2C467.983,333.2,468.317,333.2,468.651,333.2C468.985,333.2,469.318,333.2,469.652,333.2C469.986,333.2,470.32,333.2,470.654,333.2C470.987,333.2,471.321,333.2,471.655,333.2C471.989,333.2,472.323,333.2,472.656,333.2C472.99,333.2,473.324,333.2,473.658,333.2C473.992,333.2,474.325,333.2,474.659,333.2C474.993,333.2,475.327,333.2,475.661,333.2C475.994,333.2,476.328,333.2,476.662,333.2C476.996,333.2,477.33,333.2,477.663,333.2C477.997,333.2,478.331,333.2,478.665,333.2C478.999,333.2,479.332,333.2,479.666,333.2C480,333.2,480.334,333.2,480.668,333.2C481.001,333.2,481.335,333.2,481.669,333.2C482.003,333.2,482.337,330.933,482.67,326.4C483.004,321.867,483.338,306,483.672,306C484.006,306,484.339,306,484.673,306C485.007,306,485.341,306,485.675,306C486.008,306,486.342,306,486.676,306C487.01,306,487.344,306,487.677,306C488.011,306,488.345,306,488.679,306C489.013,306,489.346,306,489.68,306C490.014,306,490.348,306,490.682,306C491.015,306,491.349,306,491.683,306C492.017,306,492.35,306,492.684,306C493.018,306,493.352,306,493.686,306C494.019,306,494.353,306,494.687,306C495.021,306,495.355,306,495.688,306C496.022,306,496.356,306,496.69,306C497.024,306,497.357,306,497.691,306C498.025,306,498.359,326.4,498.693,326.4C499.026,326.4,499.36,326.4,499.694,326.4C500.028,326.4,500.362,326.4,500.695,326.4C501.029,326.4,501.363,329.8,501.697,329.8C502.031,329.8,502.364,329.8,502.698,329.8C503.032,329.8,503.366,329.8,503.7,329.8C504.033,329.8,504.367,329.8,504.701,329.8C505.035,329.8,505.369,329.8,505.702,329.8C506.036,329.8,506.37,326.4,506.704,326.4C507.038,326.4,507.371,326.4,507.705,326.4C508.039,326.4,508.373,326.4,508.707,326.4C509.04,326.4,509.374,326.4,509.708,326.4C510.042,326.4,510.376,326.4,510.709,326.4C511.043,326.4,511.377,326.4,511.711,326.4C512.045,326.4,512.378,306,512.712,306C513.046,306,513.38,306,513.713,306C514.047,306,514.381,306,514.715,306C515.049,306,515.382,306,515.716,306C516.05,306,516.384,306,516.718,306C517.051,306,517.385,306,517.719,306C518.053,306,518.387,306,518.72,306C519.054,306,519.388,306,519.722,306C520.056,306,520.389,306,520.723,306C521.057,306,521.391,306,521.725,306C522.058,306,522.392,306,522.726,306C523.06,306,523.394,306,523.727,306C524.061,306,524.395,306,524.729,306C525.063,306,525.396,306,525.73,306C526.064,306,526.398,306,526.732,306C527.065,306,527.399,306,527.733,306C528.067,306,528.401,306,528.734,306C529.068,306,529.402,306,529.736,306C530.07,306,530.403,306,530.737,306C531.071,306,531.405,306,531.739,306C532.072,306,532.406,306,532.74,306C533.074,306,533.408,306,533.741,306C534.075,306,534.409,306,534.743,306C535.076,306,535.41,306,535.744,306C536.078,306,536.412,74.8,536.745,74.8C537.079,74.8,537.413,306,537.747,306C538.081,306,538.414,306,538.748,306C539.082,306,539.416,306,539.75,306C540.083,306,540.417,306,540.751,306C541.085,306,541.419,306,541.752,306C542.086,306,542.42,306,542.754,306C543.088,306,543.421,306,543.755,306C544.089,306,544.423,306,544.757,306C545.09,306,545.424,306,545.758,306C546.092,306,546.426,306,546.759,306C547.093,306,547.427,306,547.761,306C548.095,306,548.428,306,548.762,306C549.096,306,549.43,306,549.764,306C550.097,306,550.431,306,550.765,306C551.099,306,551.433,306,551.766,306C552.1,306,552.434,306,552.768,306C553.102,306,553.435,306,553.769,306C554.103,306,554.437,306,554.771,306C555.104,306,555.438,306,555.772,306C556.106,306,556.439,306,556.773,306C557.107,306,557.441,306,557.775,306C558.108,306,558.442,306,558.776,306C559.11,306,559.444,306,559.777,306C560.111,306,560.445,306,560.779,306C561.113,306,561.446,306,561.78,306C562.114,306,562.448,306,562.782,306C563.115,306,563.449,306,563.783,306C564.117,306,564.451,306,564.784,306C565.118,306,565.452,306,565.786,306C566.12,306,566.453,306,566.787,306C567.121,306,567.455,306,567.789,306C568.122,306,568.456,306,568.79,306C569.124,306,569.458,306,569.791,306C570.125,306,570.459,306,570.793,306C571.127,306,571.46,306,571.794,306C572.128,306,572.462,306,572.796,306C573.129,306,573.463,306,573.797,306C574.131,306,574.465,306,574.798,306C575.132,306,575.466,306,575.8,306C576.134,306,576.467,306,576.801,306C577.135,306,577.469,306,577.803,306C578.136,306,578.47,306,578.804,306C579.138,306,579.471,306,579.805,306C580.139,306,580.473,306,580.807,306C581.14,306,581.474,306,581.808,306C582.142,306,582.476,306,582.809,306C583.143,306,583.477,27.2,583.811,27.2C584.145,27.2,584.478,27.2,584.812,27.2C585.146,27.2,585.48,306,585.814,306C586.147,306,586.481,306,586.815,306C587.149,306,587.483,306,587.816,306C588.15,306,588.484,306,588.818,306C589.152,306,589.485,306,589.819,306C590.153,306,590.487,306,590.821,306C591.154,306,591.488,306,591.822,306C592.156,306,592.49,306,592.823,306C593.157,306,593.491,306,593.825,306C594.159,306,594.492,306,594.826,306C595.16,306,595.494,306,595.828,306C596.161,306,596.495,306,596.829,306C597.163,306,597.497,306,597.83,306C598.164,306,598.498,306,598.832,306C599.166,306,599.499,306,599.833,306C600.167,306,600.501,306,600.834,306C601.168,306,601.502,306,601.836,306C602.17,306,602.503,306,602.837,306C603.171,306,603.505,306,603.839,306C604.172,306,604.506,306,604.84,306C605.174,306,605.508,306,605.841,306C606.175,306,606.509,306,606.843,306C607.177,306,607.51,306,607.844,306C608.178,306,608.512,306,608.846,306C609.179,306,609.513,306,609.847,306C610.181,306,610.515,306,610.848,306C611.182,306,611.516,306,611.85,306C612.184,306,612.517,306,612.851,306C613.185,306,613.519,306,613.853,306C614.186,306,614.52,306,614.854,306C615.188,306,615.522,326.4,615.855,326.4C616.189,326.4,616.523,326.4,616.857,326.4C617.191,326.4,617.524,326.4,617.858,326.4C618.192,326.4,618.526,326.4,618.86,326.4C619.193,326.4,619.527,326.4,619.861,326.4C620.195,326.4,620.529,326.4,620.862,326.4C621.196,326.4,621.53,326.4,621.864,326.4C622.197,326.4,622.531,326.4,622.865,326.4C623.199,326.4,623.533,326.4,623.866,326.4C624.2,326.4,624.534,326.4,624.868,326.4C625.202,326.4,625.535,326.4,625.869,326.4C626.203,326.4,626.537,326.4,626.871,326.4C627.204,326.4,627.538,326.4,627.872,326.4C628.206,326.4,628.54,326.4,628.873,326.4C629.207,326.4,629.541,326.4,629.875,326.4C630.209,326.4,630.542,326.4,630.876,326.4C631.21,326.4,631.544,326.4,631.878,326.4C632.211,326.4,632.545,326.4,632.879,326.4C633.213,326.4,633.547,326.4,633.88,326.4C634.214,326.4,634.548,326.4,634.882,326.4C635.216,326.4,635.549,326.4,635.883,326.4C636.217,326.4,636.551,326.4,636.885,326.4C637.218,326.4,637.552,326.4,637.886,326.4C638.22,326.4,638.554,326.4,638.887,326.4C639.221,326.4,639.555,326.4,639.889,326.4C640.223,326.4,640.556,326.4,640.89,326.4C641.224,326.4,641.558,326.4,641.892,326.4C642.225,326.4,642.559,326.4,642.893,326.4C643.227,326.4,643.561,326.4,643.894,326.4C644.228,326.4,644.562,326.4,644.896,326.4C645.229,326.4,645.563,326.4,645.897,326.4C646.231,326.4,646.565,326.4,646.898,326.4C647.232,326.4,647.566,326.4,647.9,326.4C648.234,326.4,648.567,326.4,648.901,326.4C649.235,326.4,649.569,326.4,649.903,326.4C650.236,326.4,650.57,326.4,650.904,326.4C651.238,326.4,651.572,326.4,651.905,326.4C652.239,326.4,652.573,326.4,652.907,326.4C653.241,326.4,653.574,326.4,653.908,326.4C654.242,326.4,654.576,326.4,654.91,326.4C655.243,326.4,655.577,326.4,655.911,326.4C656.245,326.4,656.579,326.4,656.912,326.4C657.246,326.4,657.58,326.4,657.914,326.4C658.248,326.4,658.581,326.4,658.915,326.4C659.249,326.4,659.583,306,659.917,306C660.25,306,660.584,306,660.918,306C661.252,306,661.586,326.4,661.919,326.4C662.253,326.4,662.587,326.4,662.921,326.4C663.255,326.4,663.588,326.4,663.922,326.4C664.256,326.4,664.59,326.4,664.924,326.4C665.257,326.4,665.591,326.4,665.925,326.4C666.259,326.4,666.592,326.4,666.926,326.4C667.26,326.4,667.594,326.4,667.928,326.4C668.261,326.4,668.595,326.4,668.929,326.4C669.263,326.4,669.597,326.4,669.93,326.4C670.264,326.4,670.598,326.4,670.932,326.4C671.266,326.4,671.599,306,671.933,306C672.267,306,672.601,326.4,672.935,326.4C673.268,326.4,673.602,306,673.936,306C674.27,306,674.604,326.4,674.937,326.4C675.271,326.4,675.605,326.4,675.939,326.4C676.273,326.4,676.606,326.4,676.94,326.4C677.274,326.4,677.608,326.4,677.942,326.4C678.275,326.4,678.609,306,678.943,306C679.277,306,679.611,306,679.944,306C680.278,306,680.612,306,680.946,306C681.28,306,681.613,306,681.947,306C682.281,306,682.615,306,682.949,306C683.282,306,683.616,306,683.95,306C684.284,306,684.618,326.4,684.951,326.4C685.285,326.4,685.619,326.4,685.953,326.4C686.287,326.4,686.62,326.4,686.954,326.4C687.288,326.4,687.622,326.4,687.955,326.4C688.289,326.4,688.623,326.4,688.957,326.4C689.291,326.4,689.624,326.4,689.958,326.4C690.292,326.4,690.626,326.4,690.96,326.4C691.293,326.4,691.627,326.4,691.961,326.4C692.295,326.4,692.629,326.4,692.962,326.4C693.296,326.4,693.63,326.4,693.964,326.4C694.298,326.4,694.631,326.4,694.965,326.4C695.299,326.4,695.633,326.4,695.967,326.4C696.3,326.4,696.634,327.08,696.968,327.08C697.302,327.08,697.636,327.08,697.969,327.08C698.303,327.08,698.637,327.08,698.971,327.08C699.305,327.08,699.638,326.4,699.972,326.4C700.306,326.4,700.64,327.08,700.974,327.08C701.307,327.08,701.641,326.4,701.975,326.4C702.309,326.4,702.643,326.4,702.976,326.4C703.31,326.4,703.644,326.4,703.978,326.4C704.312,326.4,704.645,326.4,704.979,326.4C705.313,326.4,705.647,326.4,705.981,326.4C706.314,326.4,706.648,326.4,706.982,326.4C707.316,326.4,707.65,326.4,707.983,326.4C708.317,326.4,708.651,326.4,708.985,326.4C709.318,326.4,709.652,326.4,709.986,326.4C710.32,326.4,710.654,327.193,710.987,327.76C711.321,328.327,711.655,329.8,711.989,329.8C712.323,329.8,712.656,329.8,712.99,329.8C713.324,329.8,713.658,329.8,713.992,329.8C714.325,329.8,714.659,329.8,714.993,329.8C715.327,329.8,715.661,329.8,715.994,329.8C716.328,329.8,716.662,329.8,716.996,329.8C717.33,329.8,717.663,327.76,717.997,327.76C718.331,327.76,718.665,327.76,718.999,327.76C719.332,327.76,719.666,327.76,720,327.76"></path><circle class="dot" cx="0" cy="326.4" r="3" fill="#2563eb"></circle><circle class="dot" cx="1.0013908205841446" cy="326.4" r="3" fill="#2563eb"></circle><circle class="dot" cx="2.0027816411682893" cy="326.4" r="3" fill="#2563eb"></circle><circle class="dot" cx="3.004172461752434" cy="326.4" r="3" fill="#2563eb"></circle><circle class="dot" cx="4.0055632823365785" cy="326.4" r="3" fill="#2563eb"></circle><circle class="dot" cx="5.006954102920724" cy="326.4" r="3" fill="#2563eb"></circle><circle class="dot" cx="6.008344923504868" cy="326.4" r="3" fill="#2563eb"></circle><circle class="dot" cx="7.009735744089013" cy="306" r="3" fill="#2563eb"></circle><circle class="dot" cx="8.011126564673157" cy="326.4" r="3" fill="#2563eb"></circle><circle class="dot" cx="9.0125173852573" cy="326.4" r="3" fill="#2563eb"></circle><circle class="dot" cx="10.013908205841448" cy="326.4" r="3" fill="#2563eb"></circle><circle class="dot" cx="11.015299026425591" cy="326.4" r="3" fill="#2563eb"></circle><circle class="dot" cx="12.016689847009737" cy="326.4" r="3" fill="#2563eb"></circle><circle class="dot" cx="13.018080667593882" cy="326.4" r="3" fill="#2563eb"></circle><circle class="dot" cx="14.019471488178025" cy="326.4" r="3" fill="#2563eb"></circle><circle class="dot" cx="15.02086230876217" cy="326.4" r="3" fill="#2563eb"></circle><circle class="dot" cx="16.022253129346314" cy="306" r="3" fill="#2563eb"></circle><circle class="dot" cx="17.02364394993046" cy="306" r="3" fill="#2563eb"></circle><circle class="dot" cx="18.0250347705146" cy="326.4" r="3" fill="#2563eb"></circle><circle class="dot" cx="19.026425591098747" cy="326.4" r="3" fill="#2563eb"></circle><circle class="dot" cx="20.027816411682895" cy="326.4" r="3" fill="#2563eb"></circle><circle class="dot" cx="21.029207232267037" cy="326.4" r="3" fill="#2563eb"></circle><circle class="dot" cx="22.030598052851182" cy="326.4" r="3" fill="#2563eb"></circle><circle class="dot" cx="23.031988873435328" cy="326.4" r="3" fill="#2563eb"></circle><circle class="dot" cx="24.033379694019473" cy="326.4" r="3" fill="#2563eb"></circle><circle class="dot" cx="25.034770514603615" cy="326.4" r="3" fill="#2563eb"></circle><circle class="dot" cx="26.036161335187764" cy="326.4" r="3" fill="#2563eb"></circle><circle class="dot" cx="27.037552155771905" cy="326.4" r="3" fill="#2563eb"></circle><circle class="dot" cx="28.03894297635605" cy="326.4" r="3" fill="#2563eb"></circle><circle class="dot" cx="29.040333796940192" cy="326.4" r="3" fill="#2563eb"></circle><circle class="dot" cx="30.04172461752434" cy="326.4" r="3" fill="#2563eb"></circle><circle class="dot" cx="31.043115438108483" cy="326.4" r="3" fill="#2563eb"></circle><circle class="dot" cx="32.04450625869263" cy="326.4" r="3" fill="#2563eb"></circle><circle class="dot" cx="33.04589707927678" cy="326.4" r="3" fill="#2563eb"></circle><circle class="dot" cx="34.04728789986092" cy="326.4" r="3" fill="#2563eb"></circle><circle class="dot" cx="35.04867872044506" cy="326.4" r="3" fill="#2563eb"></circle><circle class="dot" cx="36.0500695410292" cy="326.4" r="3" fill="#2563eb"></circle><circle class="dot" cx="37.05146036161335" cy="326.4" r="3" fill="#2563eb"></circle><circle class="dot" cx="38.05285118219749" cy="326.4" r="3" fill="#2563eb"></circle><circle class="dot" cx="39.05424200278164" cy="326.4" r="3" fill="#2563eb"></circle><circle class="dot" cx="40.05563282336579" cy="326.4" r="3" fill="#2563eb"></circle><circle class="dot" cx="41.05702364394993" cy="326.4" r="3" fill="#2563eb"></circle><circle class="dot" cx="42.058414464534074" cy="326.4" r="3" fill="#2563eb"></circle><circle class="dot" cx="43.059805285118216" cy="326.4" r="3" fill="#2563eb"></circle><circle class="dot" cx="44.061196105702365" cy="326.4" r="3" fill="#2563eb"></circle><circle class="dot" cx="45.06258692628651" cy="326.4" r="3" fill="#2563eb"></circle><circle class="dot" cx="46.063977746870655" cy="326.4" r="3" fill="#2563eb"></circle><circle class="dot" cx="47.0653685674548" cy="326.4" r="3" fill="#2563eb"></circle><circle class="dot" cx="48.066759388038946" cy="326.4" r="3" fill="#2563eb"></circle><circle class="dot" cx="49.068150208623095" cy="326.4" r="3" fill="#2563eb"></circle><circle class="dot" cx="50.06954102920723" cy="326.4" r="3" fill="#2563eb"></circle><circle class="dot" cx="51.07093184979138" cy="326.4" r="3" fill="#2563eb"></circle><circle class="dot" cx="52.07232267037553" cy="326.4" r="3" fill="#2563eb"></circle><circle class="dot" cx="53.07371349095966" cy="326.4" r="3" fill="#2563eb"></circle><circle class="dot" cx="54.07510431154381" cy="326.4" r="3" fill="#2563eb"></circle><circle class="dot" cx="55.07649513212795" cy="326.4" r="3" fill="#2563eb"></circle><circle class="dot" cx="56.0778859527121" cy="326.4" r="3" fill="#2563eb"></circle><circle class="dot" cx="57.07927677329625" cy="326.4" r="3" fill="#2563eb"></circle><circle class="dot" cx="58.080667593880385" cy="306" r="3" fill="#2563eb"></circle><circle class="dot" cx="59.082058414464534" cy="306" r="3" fill="#2563eb"></circle><circle class="dot" cx="60.08344923504868" cy="306" r="3" fill="#2563eb"></circle><circle class="dot" cx="61.08484005563282" cy="306" r="3" fill="#2563eb"></circle><circle class="dot" cx="62.086230876216966" cy="306" r="3" fill="#2563eb"></circle><circle class="dot" cx="63.087621696801115" cy="306" r="3" fill="#2563eb"></circle><circle class="dot" cx="64.08901251738526" cy="306" r="3" fill="#2563eb"></circle><circle class="dot" cx="65.0904033379694" cy="326.4" r="3" fill="#2563eb"></circle><circle class="dot" cx="66.09179415855355" cy="326.4" r="3" fill="#2563eb"></circle><circle class="dot" cx="67.09318497913769" cy="326.4" r="3" fill="#2563eb"></circle><circle class="dot" cx="68.09457579972184" cy="326.4" r="3" fill="#2563eb"></circle><circle class="dot" cx="69.09596662030599" cy="326.4" r="3" fill="#2563eb"></circle><circle class="dot" cx="70.09735744089012" cy="326.4" r="3" fill="#2563eb"></circle><circle class="dot" cx="71.09874826147427" cy="326.4" r="3" fill="#2563eb"></circle><circle class="dot" cx="72.1001390820584" cy="326.4" r="3" fill="#2563eb"></circle><circle class="dot" cx="73.10152990264255" cy="326.4" r="3" fill="#2563eb"></circle><circle class="dot" cx="74.1029207232267" cy="326.4" r="3" fill="#2563eb"></circle><circle class="dot" cx="75.10431154381084" cy="326.4" r="3" fill="#2563eb"></circle><circle class="dot" cx="76.10570236439499" cy="326.4" r="3" fill="#2563eb"></circle><circle class="dot" cx="77.10709318497914" cy="326.4" r="3" fill="#2563eb"></circle><circle class="dot" cx="78.10848400556328" cy="326.4" r="3" fill="#2563eb"></circle><circle class="dot" cx="79.10987482614743" cy="326.4" r="3" fill="#2563eb"></circle><circle class="dot" cx="80.11126564673158" cy="326.4" r="3" fill="#2563eb"></circle><circle class="dot" cx="81.11265646731572" cy="306" r="3" fill="#2563eb"></circle><circle class="dot" cx="82.11404728789987" cy="306" r="3" fill="#2563eb"></circle><circle class="dot" cx="83.11543810848401" cy="306" r="3" fill="#2563eb"></circle><circle class="dot" cx="84.11682892906815" cy="306" r="3" fill="#2563eb"></circle><circle class="dot" cx="85.1182197496523" cy="306" r="3" fill="#2563eb"></circle><circle class="dot" cx="86.11961057023643" cy="306" r="3" fill="#2563eb"></circle><circle class="dot" cx="87.12100139082058" cy="306" r="3" fill="#2563eb"></circle><circle class="dot" cx="88.12239221140473" cy="306" r="3" fill="#2563eb"></circle><circle class="dot" cx="89.12378303198886" cy="306" r="3" fill="#2563eb"></circle><circle class="dot" cx="90.12517385257301" cy="306" r="3" fill="#2563eb"></circle><circle class="dot" cx="91.12656467315716" cy="306" r="3" fill="#2563eb"></circle><circle class="dot" cx="92.12795549374131" cy="326.4" r="3" fill="#2563eb"></circle><circle class="dot" cx="93.12934631432545" cy="326.4" r="3" fill="#2563eb"></circle><circle class="dot" cx="94.1307371349096" cy="326.4" r="3" fill="#2563eb"></circle><circle class="dot" cx="95.13212795549374" cy="326.4" r="3" fill="#2563eb"></circle><circle class="dot" cx="96.13351877607789" cy="326.4" r="3" fill="#2563eb"></circle><circle class="dot" cx="97.13490959666203" cy="326.4" r="3" fill="#2563eb"></circle><circle class="dot" cx="98.13630041724619" cy="326.4" r="3" fill="#2563eb"></circle><circle class="dot" cx="99.13769123783032" cy="326.4" r="3" fill="#2563eb"></circle><circle class="dot" cx="100.13908205841446" cy="326.4" r="3" fill="#2563eb"></circle><circle class="dot" cx="101.14047287899862" cy="326.4" r="3" fill="#2563eb"></circle><circle class="dot" cx="102.14186369958276" cy="326.4" r="3" fill="#2563eb"></circle><circle class="dot" cx="103.14325452016689" cy="326.4" r="3" fill="#2563eb"></circle><circle class="dot" cx="104.14464534075105" cy="326.4" r="3" fill="#2563eb"></circle><circle class="dot" cx="105.14603616133519" cy="326.4" r="3" fill="#2563eb"></circle><circle class="dot" cx="106.14742698191932" cy="326.4" r="3" fill="#2563eb"></circle><circle class="dot" cx="107.14881780250349" cy="326.4" r="3" fill="#2563eb"></circle><circle class="dot" cx="108.15020862308762" cy="326.4" r="3" fill="#2563eb"></circle><circle class="dot" cx="109.15159944367176" cy="326.4" r="3" fill="#2563eb"></circle><circle class="dot" cx="110.1529902642559" cy="326.4" r="3" fill="#2563eb"></circle><circle class="dot" cx="111.15438108484005" cy="326.4" r="3" fill="#2563eb"></circle><circle class="dot" cx="112.1557719054242" cy="326.4" r="3" fill="#2563eb"></circle><circle class="dot" cx="113.15716272600834" cy="326.4" r="3" fill="#2563eb"></circle><circle class="dot" cx="114.1585535465925" cy="326.4" r="3" fill="#2563eb"></circle><circle class="dot" cx="115.15994436717664" cy="306" r="3" fill="#2563eb"></circle><circle class="dot" cx="116.16133518776077" cy="326.4" r="3" fill="#2563eb"></circle><circle class="dot" cx="117.16272600834493" cy="326.4" r="3" fill="#2563eb"></circle><circle class="dot" cx="118.16411682892907" cy="326.4" r="3" fill="#2563eb"></circle><circle class="dot" cx="119.1655076495132" cy="326.4" r="3" fill="#2563eb"></circle><circle class="dot" cx="120.16689847009737" cy="326.4" r="3" fill="#2563eb"></circle><circle class="dot" cx="121.1682892906815" cy="326.4" r="3" fill="#2563eb"></circle><circle class="dot" cx="122.16968011126563" cy="306" r="3" fill="#2563eb"></circle><circle class="dot" cx="123.1710709318498" cy="306" r="3" fill="#2563eb"></circle><circle class="dot" cx="124.17246175243393" cy="306" r="3" fill="#2563eb"></circle><circle class="dot" cx="125.17385257301808" cy="306" r="3" fill="#2563eb"></circle><circle class="dot" cx="126.17524339360223" cy="306" r="3" fill="#2563eb"></circle><circle class="dot" cx="127.17663421418636" cy="306" r="3" fill="#2563eb"></circle><circle class="dot" cx="128.1780250347705" cy="306" r="3" fill="#2563eb"></circle><circle class="dot" cx="129.17941585535468" cy="306" r="3" fill="#2563eb"></circle><circle class="dot" cx="130.1808066759388" cy="306" r="3" fill="#2563eb"></circle><circle class="dot" cx="131.18219749652295" cy="306" r="3" fill="#2563eb"></circle><circle class="dot" cx="132.1835883171071" cy="306" r="3" fill="#2563eb"></circle><circle class="dot" cx="133.18497913769124" cy="306" r="3" fill="#2563eb"></circle><circle class="dot" cx="134.18636995827538" cy="306" r="3" fill="#2563eb"></circle><circle class="dot" cx="135.18776077885954" cy="306" r="3" fill="#2563eb"></circle><circle class="dot" cx="136.18915159944368" cy="306" r="3" fill="#2563eb"></circle><circle class="dot" cx="137.1905424200278" cy="306" r="3" fill="#2563eb"></circle><circle class="dot" cx="138.19193324061197" cy="306" r="3" fill="#2563eb"></circle><circle class="dot" cx="139.1933240611961" cy="326.4" r="3" fill="#2563eb"></circle><circle class="dot" cx="140.19471488178024" cy="326.4" r="3" fill="#2563eb"></circle><circle class="dot" cx="141.19610570236438" cy="326.4" r="3" fill="#2563eb"></circle><circle class="dot" cx="142.19749652294854" cy="326.4" r="3" fill="#2563eb"></circle><circle class="dot" cx="143.19888734353268" cy="326.4" r="3" fill="#2563eb"></circle><circle class="dot" cx="144.2002781641168" cy="326.4" r="3" fill="#2563eb"></circle><circle class="dot" cx="145.20166898470097" cy="326.4" r="3" fill="#2563eb"></circle><circle class="dot" cx="146.2030598052851" cy="326.4" r="3" fill="#2563eb"></circle><circle class="dot" cx="147.20445062586924" cy="329.8" r="3" fill="#2563eb"></circle><circle class="dot" cx="148.2058414464534" cy="329.8" r="3" fill="#2563eb"></circle><circle class="dot" cx="149.20723226703754" cy="329.8" r="3" fill="#2563eb"></circle><circle class="dot" cx="150.20862308762167" cy="326.74" r="3" fill="#2563eb"></circle><circle class="dot" cx="151.21001390820584" cy="333.2" r="3" fill="#2563eb"></circle><circle class="dot" cx="152.21140472878997" cy="333.2" r="3" fill="#2563eb"></circle><circle class="dot" cx="153.21279554937414" cy="333.2" r="3" fill="#2563eb"></circle><circle class="dot" cx="154.21418636995827" cy="333.2" r="3" fill="#2563eb"></circle><circle class="dot" cx="155.21557719054243" cy="333.2" r="3" fill="#2563eb"></circle><circle class="dot" cx="156.21696801112657" cy="333.2" r="3" fill="#2563eb"></circle><circle class="dot" cx="157.2183588317107" cy="333.2" r="3" fill="#2563eb"></circle><circle class="dot" cx="158.21974965229487" cy="333.2" r="3" fill="#2563eb"></circle><circle class="dot" cx="159.221140472879" cy="333.2" r="3" fill="#2563eb"></circle><circle class="dot" cx="160.22253129346316" cy="333.2" r="3" fill="#2563eb"></circle><circle class="dot" cx="161.2239221140473" cy="333.2" r="3" fill="#2563eb"></circle><circle class="dot" cx="162.22531293463143" cy="333.2" r="3" fill="#2563eb"></circle><circle class="dot" cx="163.2267037552156" cy="333.2" r="3" fill="#2563eb"></circle><circle class="dot" cx="164.22809457579973" cy="333.2" r="3" fill="#2563eb"></circle><circle class="dot" cx="165.22948539638386" cy="333.2" r="3" fill="#2563eb"></circle><circle class="dot" cx="166.23087621696803" cy="333.2" r="3" fill="#2563eb"></circle><circle class="dot" cx="167.23226703755216" cy="333.2" r="3" fill="#2563eb"></circle><circle class="dot" cx="168.2336578581363" cy="333.2" r="3" fill="#2563eb"></circle><circle class="dot" cx="169.23504867872046" cy="333.2" r="3" fill="#2563eb"></circle><circle class="dot" cx="170.2364394993046" cy="333.2" r="3" fill="#2563eb"></circle><circle class="dot" cx="171.23783031988873" cy="333.2" r="3" fill="#2563eb"></circle><circle class="dot" cx="172.23922114047286" cy="333.2" r="3" fill="#2563eb"></circle><circle class="dot" cx="173.24061196105703" cy="333.2" r="3" fill="#2563eb"></circle><circle class="dot" cx="174.24200278164116" cy="333.2" r="3" fill="#2563eb"></circle><circle class="dot" cx="175.2433936022253" cy="333.2" r="3" fill="#2563eb"></circle><circle class="dot" cx="176.24478442280946" cy="333.2" r="3" fill="#2563eb"></circle><circle class="dot" cx="177.2461752433936" cy="333.2" r="3" fill="#2563eb"></circle><circle class="dot" cx="178.24756606397773" cy="333.2" r="3" fill="#2563eb"></circle><circle class="dot" cx="179.2489568845619" cy="333.2" r="3" fill="#2563eb"></circle><circle class="dot" cx="180.25034770514603" cy="333.2" r="3" fill="#2563eb"></circle><circle class="dot" cx="181.25173852573016" cy="333.2" r="3" fill="#2563eb"></circle><circle class="dot" cx="182.25312934631432" cy="333.2" r="3" fill="#2563eb"></circle><circle class="dot" cx="183.2545201668985" cy="333.2" r="3" fill="#2563eb"></circle><circle class="dot" cx="184.25591098748262" cy="333.2" r="3" fill="#2563eb"></circle><circle class="dot" cx="185.25730180806676" cy="333.2" r="3" fill="#2563eb"></circle><circle class="dot" cx="186.2586926286509" cy="333.2" r="3" fill="#2563eb"></circle><circle class="dot" cx="187.26008344923505" cy="333.2" r="3" fill="#2563eb"></circle><circle class="dot" cx="188.2614742698192" cy="333.2" r="3" fill="#2563eb"></circle><circle class="dot" cx="189.26286509040332" cy="333.2" r="3" fill="#2563eb"></circle><circle class="dot" cx="190.2642559109875" cy="333.2" r="3" fill="#2563eb"></circle><circle class="dot" cx="191.26564673157162" cy="333.2" r="3" fill="#2563eb"></circle><circle class="dot" cx="192.26703755215578" cy="333.2" r="3" fill="#2563eb"></circle><circle class="dot" cx="193.26842837273992" cy="333.2" r="3" fill="#2563eb"></circle><circle class="dot" cx="194.26981919332405" cy="333.2" r="3" fill="#2563eb"></circle><circle class="dot" cx="195.2712100139082" cy="333.2" r="3" fill="#2563eb"></circle><circle class="dot" cx="196.27260083449238" cy="333.2" r="3" fill="#2563eb"></circle><circle class="dot" cx="197.27399165507651" cy="333.2" r="3" fill="#2563eb"></circle><circle class="dot" cx="198.27538247566065" cy="333.2" r="3" fill="#2563eb"></circle><circle class="dot" cx="199.27677329624478" cy="333.2" r="3" fill="#2563eb"></circle><circle class="dot" cx="200.27816411682892" cy="333.2" r="3" fill="#2563eb"></circle><circle class="dot" cx="201.27955493741305" cy="333.2" r="3" fill="#2563eb"></circle><circle class="dot" cx="202.28094575799724" cy="333.2" r="3" fill="#2563eb"></circle><circle class="dot" cx="203.28233657858138" cy="333.2" r="3" fill="#2563eb"></circle><circle class="dot" cx="204.2837273991655" cy="333.2" r="3" fill="#2563eb"></circle><circle class="dot" cx="205.28511821974965" cy="333.2" r="3" fill="#2563eb"></circle><circle class="dot" cx="206.28650904033378" cy="333.2" r="3" fill="#2563eb"></circle><circle class="dot" cx="207.28789986091792" cy="333.2" r="3" fill="#2563eb"></circle><circle class="dot" cx="208.2892906815021" cy="333.2" r="3" fill="#2563eb"></circle><circle class="dot" cx="209.29068150208624" cy="329.8" r="3" fill="#2563eb"></circle><circle class="dot" cx="210.29207232267038" cy="306" r="3" fill="#2563eb"></circle><circle class="dot" cx="211.2934631432545" cy="306" r="3" fill="#2563eb"></circle><circle class="dot" cx="212.29485396383865" cy="306" r="3" fill="#2563eb"></circle><circle class="dot" cx="213.29624478442278" cy="306" r="3" fill="#2563eb"></circle><circle class="dot" cx="214.29763560500697" cy="326.4" r="3" fill="#2563eb"></circle><circle class="dot" cx="215.2990264255911" cy="326.4" r="3" fill="#2563eb"></circle><circle class="dot" cx="216.30041724617524" cy="326.4" r="3" fill="#2563eb"></circle><circle class="dot" cx="217.30180806675938" cy="326.4" r="3" fill="#2563eb"></circle><circle class="dot" cx="218.3031988873435" cy="326.4" r="3" fill="#2563eb"></circle><circle class="dot" cx="219.30458970792768" cy="326.4" r="3" fill="#2563eb"></circle><circle class="dot" cx="220.3059805285118" cy="326.4" r="3" fill="#2563eb"></circle><circle class="dot" cx="221.30737134909597" cy="326.4" r="3" fill="#2563eb"></circle><circle class="dot" cx="222.3087621696801" cy="306" r="3" fill="#2563eb"></circle><circle class="dot" cx="223.31015299026427" cy="306" r="3" fill="#2563eb"></circle><circle class="dot" cx="224.3115438108484" cy="306" r="3" fill="#2563eb"></circle><circle class="dot" cx="225.31293463143254" cy="306" r="3" fill="#2563eb"></circle><circle class="dot" cx="226.31432545201667" cy="306" r="3" fill="#2563eb"></circle><circle class="dot" cx="227.31571627260084" cy="306" r="3" fill="#2563eb"></circle><circle class="dot" cx="228.317107093185" cy="306" r="3" fill="#2563eb"></circle><circle class="dot" cx="229.31849791376914" cy="326.4" r="3" fill="#2563eb"></circle><circle class="dot" cx="230.31988873435327" cy="306" r="3" fill="#2563eb"></circle><circle class="dot" cx="231.3212795549374" cy="326.4" r="3" fill="#2563eb"></circle><circle class="dot" cx="232.32267037552154" cy="326.4" r="3" fill="#2563eb"></circle><circle class="dot" cx="233.32406119610573" cy="326.4" r="3" fill="#2563eb"></circle><circle class="dot" cx="234.32545201668987" cy="326.4" r="3" fill="#2563eb"></circle><circle class="dot" cx="235.326842837274" cy="326.4" r="3" fill="#2563eb"></circle><circle class="dot" cx="236.32823365785814" cy="326.4" r="3" fill="#2563eb"></circle><circle class="dot" cx="237.32962447844227" cy="326.4" r="3" fill="#2563eb"></circle><circle class="dot" cx="238.3310152990264" cy="326.4" r="3" fill="#2563eb"></circle><circle class="dot" cx="239.3324061196106" cy="326.4" r="3" fill="#2563eb"></circle><circle class="dot" cx="240.33379694019473" cy="329.8" r="3" fill="#2563eb"></circle><circle class="dot" cx="241.33518776077887" cy="329.8" r="3" fill="#2563eb"></circle><circle class="dot" cx="242.336578581363" cy="327.76" r="3" fill="#2563eb"></circle><circle class="dot" cx="243.33796940194713" cy="329.8" r="3" fill="#2563eb"></circle><circle class="dot" cx="244.33936022253127" cy="327.14799999999997" r="3" fill="#2563eb"></circle><circle class="dot" cx="245.34075104311546" cy="327.76" r="3" fill="#2563eb"></circle><circle class="dot" cx="246.3421418636996" cy="326.4" r="3" fill="#2563eb"></circle><circle class="dot" cx="247.34353268428373" cy="326.4" r="3" fill="#2563eb"></circle><circle class="dot" cx="248.34492350486786" cy="329.8" r="3" fill="#2563eb"></circle><circle class="dot" cx="249.346314325452" cy="326.4" r="3" fill="#2563eb"></circle><circle class="dot" cx="250.34770514603616" cy="326.4" r="3" fill="#2563eb"></circle><circle class="dot" cx="251.3490959666203" cy="326.4" r="3" fill="#2563eb"></circle><circle class="dot" cx="252.35048678720446" cy="329.8" r="3" fill="#2563eb"></circle><circle class="dot" cx="253.3518776077886" cy="329.8" r="3" fill="#2563eb"></circle><circle class="dot" cx="254.35326842837273" cy="326.4" r="3" fill="#2563eb"></circle><circle class="dot" cx="255.3546592489569" cy="329.324" r="3" fill="#2563eb"></circle><circle class="dot" cx="256.356050069541" cy="329.8" r="3" fill="#2563eb"></circle><circle class="dot" cx="257.35744089012513" cy="326.4" r="3" fill="#2563eb"></circle><circle class="dot" cx="258.35883171070935" cy="326.4" r="3" fill="#2563eb"></circle><circle class="dot" cx="259.36022253129346" cy="326.4" r="3" fill="#2563eb"></circle><circle class="dot" cx="260.3616133518776" cy="329.8" r="3" fill="#2563eb"></circle><circle class="dot" cx="261.36300417246173" cy="329.8" r="3" fill="#2563eb"></circle><circle class="dot" cx="262.3643949930459" cy="327.76" r="3" fill="#2563eb"></circle><circle class="dot" cx="263.36578581363" cy="327.76" r="3" fill="#2563eb"></circle><circle class="dot" cx="264.3671766342142" cy="329.324" r="3" fill="#2563eb"></circle><circle class="dot" cx="265.3685674547983" cy="327.08" r="3" fill="#2563eb"></circle><circle class="dot" cx="266.3699582753825" cy="327.08" r="3" fill="#2563eb"></circle><circle class="dot" cx="267.3713490959666" cy="329.8" r="3" fill="#2563eb"></circle><circle class="dot" cx="268.37273991655076" cy="329.8" r="3" fill="#2563eb"></circle><circle class="dot" cx="269.3741307371349" cy="326.4" r="3" fill="#2563eb"></circle><circle class="dot" cx="270.3755215577191" cy="329.8" r="3" fill="#2563eb"></circle><circle class="dot" cx="271.3769123783032" cy="329.8" r="3" fill="#2563eb"></circle><circle class="dot" cx="272.37830319888735" cy="329.8" r="3" fill="#2563eb"></circle><circle class="dot" cx="273.37969401947146" cy="329.8" r="3" fill="#2563eb"></circle><circle class="dot" cx="274.3810848400556" cy="329.8" r="3" fill="#2563eb"></circle><circle class="dot" cx="275.3824756606398" cy="329.8" r="3" fill="#2563eb"></circle><circle class="dot" cx="276.38386648122395" cy="333.132" r="3" fill="#2563eb"></circle><circle class="dot" cx="277.38525730180805" cy="333.2" r="3" fill="#2563eb"></circle><circle class="dot" cx="278.3866481223922" cy="329.8" r="3" fill="#2563eb"></circle><circle class="dot" cx="279.3880389429764" cy="329.8" r="3" fill="#2563eb"></circle><circle class="dot" cx="280.3894297635605" cy="329.8" r="3" fill="#2563eb"></circle><circle class="dot" cx="281.39082058414465" cy="329.8" r="3" fill="#2563eb"></circle><circle class="dot" cx="282.39221140472876" cy="329.8" r="3" fill="#2563eb"></circle><circle class="dot" cx="283.393602225313" cy="329.8" r="3" fill="#2563eb"></circle><circle class="dot" cx="284.3949930458971" cy="333.132" r="3" fill="#2563eb"></circle><circle class="dot" cx="285.39638386648124" cy="329.8" r="3" fill="#2563eb"></circle><circle class="dot" cx="286.39777468706535" cy="329.8" r="3" fill="#2563eb"></circle><circle class="dot" cx="287.3991655076495" cy="329.8" r="3" fill="#2563eb"></circle><circle class="dot" cx="288.4005563282336" cy="329.8" r="3" fill="#2563eb"></circle><circle class="dot" cx="289.40194714881784" cy="329.8" r="3" fill="#2563eb"></circle><circle class="dot" cx="290.40333796940195" cy="329.8" r="3" fill="#2563eb"></circle><circle class="dot" cx="291.4047287899861" cy="329.8" r="3" fill="#2563eb"></circle><circle class="dot" cx="292.4061196105702" cy="329.8" r="3" fill="#2563eb"></circle><circle class="dot" cx="293.4075104311544" cy="329.8" r="3" fill="#2563eb"></circle><circle class="dot" cx="294.4089012517385" cy="326.4" r="3" fill="#2563eb"></circle><circle class="dot" cx="295.4102920723227" cy="327.76" r="3" fill="#2563eb"></circle><circle class="dot" cx="296.4116828929068" cy="328.44" r="3" fill="#2563eb"></circle><circle class="dot" cx="297.413073713491" cy="326.4" r="3" fill="#2563eb"></circle><circle class="dot" cx="298.4144645340751" cy="326.4" r="3" fill="#2563eb"></circle><circle class="dot" cx="299.41585535465924" cy="326.4" r="3" fill="#2563eb"></circle><circle class="dot" cx="300.41724617524335" cy="327.76" r="3" fill="#2563eb"></circle><circle class="dot" cx="301.41863699582757" cy="329.8" r="3" fill="#2563eb"></circle><circle class="dot" cx="302.4200278164117" cy="329.8" r="3" fill="#2563eb"></circle><circle class="dot" cx="303.42141863699584" cy="329.868" r="3" fill="#2563eb"></circle><circle class="dot" cx="304.42280945757994" cy="330.48" r="3" fill="#2563eb"></circle><circle class="dot" cx="305.4242002781641" cy="330.48" r="3" fill="#2563eb"></circle><circle class="dot" cx="306.42559109874827" cy="329.8" r="3" fill="#2563eb"></circle><circle class="dot" cx="307.42698191933243" cy="333.2" r="3" fill="#2563eb"></circle><circle class="dot" cx="308.42837273991654" cy="333.2" r="3" fill="#2563eb"></circle><circle class="dot" cx="309.4297635605007" cy="333.2" r="3" fill="#2563eb"></circle><circle class="dot" cx="310.43115438108487" cy="333.2" r="3" fill="#2563eb"></circle><circle class="dot" cx="311.432545201669" cy="333.2" r="3" fill="#2563eb"></circle><circle class="dot" cx="312.43393602225314" cy="333.2" r="3" fill="#2563eb"></circle><circle class="dot" cx="313.43532684283724" cy="333.2" r="3" fill="#2563eb"></circle><circle class="dot" cx="314.4367176634214" cy="333.2" r="3" fill="#2563eb"></circle><circle class="dot" cx="315.43810848400557" cy="333.2" r="3" fill="#2563eb"></circle><circle class="dot" cx="316.43949930458973" cy="333.2" r="3" fill="#2563eb"></circle><circle class="dot" cx="317.44089012517384" cy="333.2" r="3" fill="#2563eb"></circle><circle class="dot" cx="318.442280945758" cy="333.2" r="3" fill="#2563eb"></circle><circle class="dot" cx="319.4436717663421" cy="333.2" r="3" fill="#2563eb"></circle><circle class="dot" cx="320.4450625869263" cy="333.2" r="3" fill="#2563eb"></circle><circle class="dot" cx="321.44645340751043" cy="333.2" r="3" fill="#2563eb"></circle><circle class="dot" cx="322.4478442280946" cy="333.2" r="3" fill="#2563eb"></circle><circle class="dot" cx="323.4492350486787" cy="333.2" r="3" fill="#2563eb"></circle><circle class="dot" cx="324.45062586926286" cy="333.2" r="3" fill="#2563eb"></circle><circle class="dot" cx="325.45201668984697" cy="333.2" r="3" fill="#2563eb"></circle><circle class="dot" cx="326.4534075104312" cy="333.2" r="3" fill="#2563eb"></circle><circle class="dot" cx="327.4547983310153" cy="333.2" r="3" fill="#2563eb"></circle><circle class="dot" cx="328.45618915159946" cy="333.2" r="3" fill="#2563eb"></circle><circle class="dot" cx="329.45757997218357" cy="333.2" r="3" fill="#2563eb"></circle><circle class="dot" cx="330.45897079276773" cy="333.2" r="3" fill="#2563eb"></circle><circle class="dot" cx="331.46036161335184" cy="333.2" r="3" fill="#2563eb"></circle><circle class="dot" cx="332.46175243393606" cy="333.2" r="3" fill="#2563eb"></circle><circle class="dot" cx="333.46314325452016" cy="333.2" r="3" fill="#2563eb"></circle><circle class="dot" cx="334.4645340751043" cy="333.2" r="3" fill="#2563eb"></circle><circle class="dot" cx="335.46592489568843" cy="333.2" r="3" fill="#2563eb"></circle><circle class="dot" cx="336.4673157162726" cy="333.2" r="3" fill="#2563eb"></circle><circle class="dot" cx="337.46870653685676" cy="333.2" r="3" fill="#2563eb"></circle><circle class="dot" cx="338.4700973574409" cy="333.2" r="3" fill="#2563eb"></circle><circle class="dot" cx="339.471488178025" cy="333.2" r="3" fill="#2563eb"></circle><circle class="dot" cx="340.4728789986092" cy="333.2" r="3" fill="#2563eb"></circle><circle class="dot" cx="341.4742698191933" cy="333.2" r="3" fill="#2563eb"></circle><circle class="dot" cx="342.47566063977746" cy="333.2" r="3" fill="#2563eb"></circle><circle class="dot" cx="343.4770514603616" cy="333.2" r="3" fill="#2563eb"></circle><circle class="dot" cx="344.4784422809457" cy="333.2" r="3" fill="#2563eb"></circle><circle class="dot" cx="345.4798331015299" cy="333.2" r="3" fill="#2563eb"></circle><circle class="dot" cx="346.48122392211405" cy="333.2" r="3" fill="#2563eb"></circle><circle class="dot" cx="347.4826147426982" cy="333.2" r="3" fill="#2563eb"></circle><circle class="dot" cx="348.4840055632823" cy="333.2" r="3" fill="#2563eb"></circle><circle class="dot" cx="349.4853963838665" cy="333.2" r="3" fill="#2563eb"></circle><circle class="dot" cx="350.4867872044506" cy="333.2" r="3" fill="#2563eb"></circle><circle class="dot" cx="351.4881780250348" cy="333.2" r="3" fill="#2563eb"></circle><circle class="dot" cx="352.4895688456189" cy="333.2" r="3" fill="#2563eb"></circle><circle class="dot" cx="353.4909596662031" cy="333.2" r="3" fill="#2563eb"></circle><circle class="dot" cx="354.4923504867872" cy="333.2" r="3" fill="#2563eb"></circle><circle class="dot" cx="355.49374130737135" cy="333.2" r="3" fill="#2563eb"></circle><circle class="dot" cx="356.49513212795546" cy="333.2" r="3" fill="#2563eb"></circle><circle class="dot" cx="357.4965229485397" cy="333.2" r="3" fill="#2563eb"></circle><circle class="dot" cx="358.4979137691238" cy="333.2" r="3" fill="#2563eb"></circle><circle class="dot" cx="359.49930458970795" cy="333.2" r="3" fill="#2563eb"></circle><circle class="dot" cx="360.50069541029205" cy="333.2" r="3" fill="#2563eb"></circle><circle class="dot" cx="361.5020862308762" cy="333.2" r="3" fill="#2563eb"></circle><circle class="dot" cx="362.5034770514603" cy="333.2" r="3" fill="#2563eb"></circle><circle class="dot" cx="363.5048678720445" cy="333.2" r="3" fill="#2563eb"></circle><circle class="dot" cx="364.50625869262865" cy="333.2" r="3" fill="#2563eb"></circle><circle class="dot" cx="365.50764951321275" cy="333.2" r="3" fill="#2563eb"></circle><circle class="dot" cx="366.509040333797" cy="333.2" r="3" fill="#2563eb"></circle><circle class="dot" cx="367.51043115438114" cy="333.2" r="3" fill="#2563eb"></circle><circle class="dot" cx="368.51182197496524" cy="333.2" r="3" fill="#2563eb"></circle><circle class="dot" cx="369.5132127955494" cy="333.2" r="3" fill="#2563eb"></circle><circle class="dot" cx="370.5146036161335" cy="333.2" r="3" fill="#2563eb"></circle><circle class="dot" cx="371.5159944367177" cy="333.2" r="3" fill="#2563eb"></circle><circle class="dot" cx="372.5173852573018" cy="333.2" r="3" fill="#2563eb"></circle><circle class="dot" cx="373.51877607788595" cy="333.2" r="3" fill="#2563eb"></circle><circle class="dot" cx="374.5201668984701" cy="333.2" r="3" fill="#2563eb"></circle><circle class="dot" cx="375.5215577190542" cy="333.2" r="3" fill="#2563eb"></circle><circle class="dot" cx="376.5229485396384" cy="333.2" r="3" fill="#2563eb"></circle><circle class="dot" cx="377.5243393602225" cy="333.2" r="3" fill="#2563eb"></circle><circle class="dot" cx="378.52573018080665" cy="333.2" r="3" fill="#2563eb"></circle><circle class="dot" cx="379.52712100139087" cy="333.2" r="3" fill="#2563eb"></circle><circle class="dot" cx="380.528511821975" cy="333.2" r="3" fill="#2563eb"></circle><circle class="dot" cx="381.52990264255914" cy="333.2" r="3" fill="#2563eb"></circle><circle class="dot" cx="382.53129346314324" cy="333.2" r="3" fill="#2563eb"></circle><circle class="dot" cx="383.5326842837274" cy="333.2" r="3" fill="#2563eb"></circle><circle class="dot" cx="384.53407510431157" cy="333.2" r="3" fill="#2563eb"></circle><circle class="dot" cx="385.5354659248957" cy="333.2" r="3" fill="#2563eb"></circle><circle class="dot" cx="386.53685674547984" cy="333.2" r="3" fill="#2563eb"></circle><circle class="dot" cx="387.53824756606394" cy="333.2" r="3" fill="#2563eb"></circle><circle class="dot" cx="388.5396383866481" cy="333.2" r="3" fill="#2563eb"></circle><circle class="dot" cx="389.5410292072322" cy="333.2" r="3" fill="#2563eb"></circle><circle class="dot" cx="390.5424200278164" cy="333.2" r="3" fill="#2563eb"></circle><circle class="dot" cx="391.5438108484006" cy="333.2" r="3" fill="#2563eb"></circle><circle class="dot" cx="392.54520166898476" cy="333.2" r="3" fill="#2563eb"></circle><circle class="dot" cx="393.54659248956887" cy="333.2" r="3" fill="#2563eb"></circle><circle class="dot" cx="394.54798331015303" cy="333.2" r="3" fill="#2563eb"></circle><circle class="dot" cx="395.54937413073714" cy="333.2" r="3" fill="#2563eb"></circle><circle class="dot" cx="396.5507649513213" cy="333.2" r="3" fill="#2563eb"></circle><circle class="dot" cx="397.5521557719054" cy="333.2" r="3" fill="#2563eb"></circle><circle class="dot" cx="398.55354659248957" cy="333.2" r="3" fill="#2563eb"></circle><circle class="dot" cx="399.5549374130737" cy="333.2" r="3" fill="#2563eb"></circle><circle class="dot" cx="400.55632823365784" cy="333.2" r="3" fill="#2563eb"></circle><circle class="dot" cx="401.557719054242" cy="333.2" r="3" fill="#2563eb"></circle><circle class="dot" cx="402.5591098748261" cy="333.2" r="3" fill="#2563eb"></circle><circle class="dot" cx="403.5605006954103" cy="333.2" r="3" fill="#2563eb"></circle><circle class="dot" cx="404.5618915159945" cy="333.2" r="3" fill="#2563eb"></circle><circle class="dot" cx="405.5632823365786" cy="333.2" r="3" fill="#2563eb"></circle><circle class="dot" cx="406.56467315716276" cy="333.2" r="3" fill="#2563eb"></circle><circle class="dot" cx="407.56606397774686" cy="333.2" r="3" fill="#2563eb"></circle><circle class="dot" cx="408.567454798331" cy="333.2" r="3" fill="#2563eb"></circle><circle class="dot" cx="409.56884561891513" cy="333.2" r="3" fill="#2563eb"></circle><circle class="dot" cx="410.5702364394993" cy="333.2" r="3" fill="#2563eb"></circle><circle class="dot" cx="411.57162726008346" cy="333.2" r="3" fill="#2563eb"></circle><circle class="dot" cx="412.57301808066757" cy="333.2" r="3" fill="#2563eb"></circle><circle class="dot" cx="413.57440890125173" cy="333.2" r="3" fill="#2563eb"></circle><circle class="dot" cx="414.57579972183584" cy="333.2" r="3" fill="#2563eb"></circle><circle class="dot" cx="415.57719054242" cy="333.2" r="3" fill="#2563eb"></circle><circle class="dot" cx="416.5785813630042" cy="333.2" r="3" fill="#2563eb"></circle><circle class="dot" cx="417.5799721835883" cy="333.2" r="3" fill="#2563eb"></circle><circle class="dot" cx="418.5813630041725" cy="333.2" r="3" fill="#2563eb"></circle><circle class="dot" cx="419.58275382475665" cy="333.2" r="3" fill="#2563eb"></circle><circle class="dot" cx="420.58414464534076" cy="333.2" r="3" fill="#2563eb"></circle><circle class="dot" cx="421.5855354659249" cy="333.2" r="3" fill="#2563eb"></circle><circle class="dot" cx="422.586926286509" cy="333.2" r="3" fill="#2563eb"></circle><circle class="dot" cx="423.5883171070932" cy="333.2" r="3" fill="#2563eb"></circle><circle class="dot" cx="424.5897079276773" cy="333.2" r="3" fill="#2563eb"></circle><circle class="dot" cx="425.59109874826146" cy="333.2" r="3" fill="#2563eb"></circle><circle class="dot" cx="426.59248956884556" cy="333.2" r="3" fill="#2563eb"></circle><circle class="dot" cx="427.5938803894297" cy="333.2" r="3" fill="#2563eb"></circle><circle class="dot" cx="428.59527121001395" cy="333.2" r="3" fill="#2563eb"></circle><circle class="dot" cx="429.5966620305981" cy="333.2" r="3" fill="#2563eb"></circle><circle class="dot" cx="430.5980528511822" cy="333.2" r="3" fill="#2563eb"></circle><circle class="dot" cx="431.5994436717664" cy="333.2" r="3" fill="#2563eb"></circle><circle class="dot" cx="432.6008344923505" cy="333.2" r="3" fill="#2563eb"></circle><circle class="dot" cx="433.60222531293465" cy="333.2" r="3" fill="#2563eb"></circle><circle class="dot" cx="434.60361613351876" cy="333.2" r="3" fill="#2563eb"></circle><circle class="dot" cx="435.6050069541029" cy="333.2" r="3" fill="#2563eb"></circle><circle class="dot" cx="436.606397774687" cy="333.2" r="3" fill="#2563eb"></circle><circle class="dot" cx="437.6077885952712" cy="333.2" r="3" fill="#2563eb"></circle><circle class="dot" cx="438.60917941585535" cy="333.2" r="3" fill="#2563eb"></circle><circle class="dot" cx="439.61057023643946" cy="333.2" r="3" fill="#2563eb"></circle><circle class="dot" cx="440.6119610570236" cy="333.2" r="3" fill="#2563eb"></circle><circle class="dot" cx="441.61335187760784" cy="333.2" r="3" fill="#2563eb"></circle><circle class="dot" cx="442.61474269819195" cy="333.2" r="3" fill="#2563eb"></circle><circle class="dot" cx="443.6161335187761" cy="333.2" r="3" fill="#2563eb"></circle><circle class="dot" cx="444.6175243393602" cy="333.2" r="3" fill="#2563eb"></circle><circle class="dot" cx="445.6189151599444" cy="333.2" r="3" fill="#2563eb"></circle><circle class="dot" cx="446.62030598052854" cy="333.2" r="3" fill="#2563eb"></circle><circle class="dot" cx="447.62169680111265" cy="333.2" r="3" fill="#2563eb"></circle><circle class="dot" cx="448.6230876216968" cy="333.2" r="3" fill="#2563eb"></circle><circle class="dot" cx="449.6244784422809" cy="333.2" r="3" fill="#2563eb"></circle><circle class="dot" cx="450.6258692628651" cy="333.2" r="3" fill="#2563eb"></circle><circle class="dot" cx="451.6272600834492" cy="333.2" r="3" fill="#2563eb"></circle><circle class="dot" cx="452.62865090403335" cy="333.2" r="3" fill="#2563eb"></circle><circle class="dot" cx="453.63004172461757" cy="333.2" r="3" fill="#2563eb"></circle><circle class="dot" cx="454.6314325452017" cy="333.2" r="3" fill="#2563eb"></circle><circle class="dot" cx="455.63282336578584" cy="333.2" r="3" fill="#2563eb"></circle><circle class="dot" cx="456.63421418637" cy="333.2" r="3" fill="#2563eb"></circle><circle class="dot" cx="457.6356050069541" cy="333.2" r="3" fill="#2563eb"></circle><circle class="dot" cx="458.63699582753827" cy="333.2" r="3" fill="#2563eb"></circle><circle class="dot" cx="459.6383866481224" cy="333.2" r="3" fill="#2563eb"></circle><circle class="dot" cx="460.63977746870654" cy="333.2" r="3" fill="#2563eb"></circle><circle class="dot" cx="461.64116828929065" cy="333.2" r="3" fill="#2563eb"></circle><circle class="dot" cx="462.6425591098748" cy="333.2" r="3" fill="#2563eb"></circle><circle class="dot" cx="463.6439499304589" cy="333.2" r="3" fill="#2563eb"></circle><circle class="dot" cx="464.6453407510431" cy="332.52" r="3" fill="#2563eb"></circle><circle class="dot" cx="465.6467315716273" cy="333.2" r="3" fill="#2563eb"></circle><circle class="dot" cx="466.64812239221146" cy="333.132" r="3" fill="#2563eb"></circle><circle class="dot" cx="467.64951321279557" cy="333.2" r="3" fill="#2563eb"></circle><circle class="dot" cx="468.65090403337973" cy="333.2" r="3" fill="#2563eb"></circle><circle class="dot" cx="469.65229485396384" cy="333.2" r="3" fill="#2563eb"></circle><circle class="dot" cx="470.653685674548" cy="333.2" r="3" fill="#2563eb"></circle><circle class="dot" cx="471.6550764951321" cy="333.2" r="3" fill="#2563eb"></circle><circle class="dot" cx="472.65646731571627" cy="333.2" r="3" fill="#2563eb"></circle><circle class="dot" cx="473.65785813630043" cy="333.2" r="3" fill="#2563eb"></circle><circle class="dot" cx="474.65924895688454" cy="333.2" r="3" fill="#2563eb"></circle><circle class="dot" cx="475.6606397774687" cy="333.2" r="3" fill="#2563eb"></circle><circle class="dot" cx="476.6620305980528" cy="333.2" r="3" fill="#2563eb"></circle><circle class="dot" cx="477.663421418637" cy="333.2" r="3" fill="#2563eb"></circle><circle class="dot" cx="478.6648122392212" cy="333.2" r="3" fill="#2563eb"></circle><circle class="dot" cx="479.6662030598053" cy="333.2" r="3" fill="#2563eb"></circle><circle class="dot" cx="480.66759388038946" cy="333.2" r="3" fill="#2563eb"></circle><circle class="dot" cx="481.66898470097357" cy="333.2" r="3" fill="#2563eb"></circle><circle class="dot" cx="482.67037552155773" cy="326.4" r="3" fill="#2563eb"></circle><circle class="dot" cx="483.6717663421419" cy="306" r="3" fill="#2563eb"></circle><circle class="dot" cx="484.673157162726" cy="306" r="3" fill="#2563eb"></circle><circle class="dot" cx="485.67454798331016" cy="306" r="3" fill="#2563eb"></circle><circle class="dot" cx="486.67593880389427" cy="306" r="3" fill="#2563eb"></circle><circle class="dot" cx="487.67732962447843" cy="306" r="3" fill="#2563eb"></circle><circle class="dot" cx="488.67872044506254" cy="306" r="3" fill="#2563eb"></circle><circle class="dot" cx="489.6801112656467" cy="306" r="3" fill="#2563eb"></circle><circle class="dot" cx="490.6815020862309" cy="306" r="3" fill="#2563eb"></circle><circle class="dot" cx="491.682892906815" cy="306" r="3" fill="#2563eb"></circle><circle class="dot" cx="492.6842837273992" cy="306" r="3" fill="#2563eb"></circle><circle class="dot" cx="493.68567454798335" cy="306" r="3" fill="#2563eb"></circle><circle class="dot" cx="494.68706536856746" cy="306" r="3" fill="#2563eb"></circle><circle class="dot" cx="495.6884561891516" cy="306" r="3" fill="#2563eb"></circle><circle class="dot" cx="496.68984700973573" cy="306" r="3" fill="#2563eb"></circle><circle class="dot" cx="497.6912378303199" cy="306" r="3" fill="#2563eb"></circle><circle class="dot" cx="498.692628650904" cy="326.4" r="3" fill="#2563eb"></circle><circle class="dot" cx="499.69401947148816" cy="326.4" r="3" fill="#2563eb"></circle><circle class="dot" cx="500.6954102920723" cy="326.4" r="3" fill="#2563eb"></circle><circle class="dot" cx="501.69680111265643" cy="329.8" r="3" fill="#2563eb"></circle><circle class="dot" cx="502.6981919332406" cy="329.8" r="3" fill="#2563eb"></circle><circle class="dot" cx="503.6995827538248" cy="329.8" r="3" fill="#2563eb"></circle><circle class="dot" cx="504.7009735744089" cy="329.8" r="3" fill="#2563eb"></circle><circle class="dot" cx="505.7023643949931" cy="329.8" r="3" fill="#2563eb"></circle><circle class="dot" cx="506.7037552155772" cy="326.4" r="3" fill="#2563eb"></circle><circle class="dot" cx="507.70514603616135" cy="326.4" r="3" fill="#2563eb"></circle><circle class="dot" cx="508.70653685674546" cy="326.4" r="3" fill="#2563eb"></circle><circle class="dot" cx="509.7079276773296" cy="326.4" r="3" fill="#2563eb"></circle><circle class="dot" cx="510.7093184979138" cy="326.4" r="3" fill="#2563eb"></circle><circle class="dot" cx="511.7107093184979" cy="326.4" r="3" fill="#2563eb"></circle><circle class="dot" cx="512.712100139082" cy="306" r="3" fill="#2563eb"></circle><circle class="dot" cx="513.7134909596662" cy="306" r="3" fill="#2563eb"></circle><circle class="dot" cx="514.7148817802503" cy="306" r="3" fill="#2563eb"></circle><circle class="dot" cx="515.7162726008345" cy="306" r="3" fill="#2563eb"></circle><circle class="dot" cx="516.7176634214187" cy="306" r="3" fill="#2563eb"></circle><circle class="dot" cx="517.7190542420028" cy="306" r="3" fill="#2563eb"></circle><circle class="dot" cx="518.7204450625869" cy="306" r="3" fill="#2563eb"></circle><circle class="dot" cx="519.721835883171" cy="306" r="3" fill="#2563eb"></circle><circle class="dot" cx="520.7232267037552" cy="306" r="3" fill="#2563eb"></circle><circle class="dot" cx="521.7246175243394" cy="306" r="3" fill="#2563eb"></circle><circle class="dot" cx="522.7260083449235" cy="306" r="3" fill="#2563eb"></circle><circle class="dot" cx="523.7273991655077" cy="306" r="3" fill="#2563eb"></circle><circle class="dot" cx="524.7287899860918" cy="306" r="3" fill="#2563eb"></circle><circle class="dot" cx="525.7301808066759" cy="306" r="3" fill="#2563eb"></circle><circle class="dot" cx="526.73157162726" cy="306" r="3" fill="#2563eb"></circle><circle class="dot" cx="527.7329624478442" cy="306" r="3" fill="#2563eb"></circle><circle class="dot" cx="528.7343532684284" cy="306" r="3" fill="#2563eb"></circle><circle class="dot" cx="529.7357440890125" cy="306" r="3" fill="#2563eb"></circle><circle class="dot" cx="530.7371349095966" cy="306" r="3" fill="#2563eb"></circle><circle class="dot" cx="531.7385257301809" cy="306" r="3" fill="#2563eb"></circle><circle class="dot" cx="532.739916550765" cy="306" r="3" fill="#2563eb"></circle><circle class="dot" cx="533.7413073713491" cy="306" r="3" fill="#2563eb"></circle><circle class="dot" cx="534.7426981919332" cy="306" r="3" fill="#2563eb"></circle><circle class="dot" cx="535.7440890125174" cy="306" r="3" fill="#2563eb"></circle><circle class="dot" cx="536.7454798331015" cy="74.8" r="3" fill="#2563eb"></circle><circle class="dot" cx="537.7468706536856" cy="306" r="3" fill="#2563eb"></circle><circle class="dot" cx="538.7482614742698" cy="306" r="3" fill="#2563eb"></circle><circle class="dot" cx="539.749652294854" cy="306" r="3" fill="#2563eb"></circle><circle class="dot" cx="540.7510431154382" cy="306" r="3" fill="#2563eb"></circle><circle class="dot" cx="541.7524339360223" cy="306" r="3" fill="#2563eb"></circle><circle class="dot" cx="542.7538247566064" cy="306" r="3" fill="#2563eb"></circle><circle class="dot" cx="543.7552155771906" cy="306" r="3" fill="#2563eb"></circle><circle class="dot" cx="544.7566063977747" cy="306" r="3" fill="#2563eb"></circle><circle class="dot" cx="545.7579972183588" cy="306" r="3" fill="#2563eb"></circle><circle class="dot" cx="546.7593880389429" cy="306" r="3" fill="#2563eb"></circle><circle class="dot" cx="547.7607788595271" cy="306" r="3" fill="#2563eb"></circle><circle class="dot" cx="548.7621696801112" cy="306" r="3" fill="#2563eb"></circle><circle class="dot" cx="549.7635605006953" cy="306" r="3" fill="#2563eb"></circle><circle class="dot" cx="550.7649513212796" cy="306" r="3" fill="#2563eb"></circle><circle class="dot" cx="551.7663421418637" cy="306" r="3" fill="#2563eb"></circle><circle class="dot" cx="552.7677329624479" cy="306" r="3" fill="#2563eb"></circle><circle class="dot" cx="553.769123783032" cy="306" r="3" fill="#2563eb"></circle><circle class="dot" cx="554.7705146036161" cy="306" r="3" fill="#2563eb"></circle><circle class="dot" cx="555.7719054242003" cy="306" r="3" fill="#2563eb"></circle><circle class="dot" cx="556.7732962447844" cy="306" r="3" fill="#2563eb"></circle><circle class="dot" cx="557.7746870653685" cy="306" r="3" fill="#2563eb"></circle><circle class="dot" cx="558.7760778859528" cy="306" r="3" fill="#2563eb"></circle><circle class="dot" cx="559.7774687065369" cy="306" r="3" fill="#2563eb"></circle><circle class="dot" cx="560.778859527121" cy="306" r="3" fill="#2563eb"></circle><circle class="dot" cx="561.7802503477051" cy="306" r="3" fill="#2563eb"></circle><circle class="dot" cx="562.7816411682893" cy="306" r="3" fill="#2563eb"></circle><circle class="dot" cx="563.7830319888734" cy="306" r="3" fill="#2563eb"></circle><circle class="dot" cx="564.7844228094575" cy="306" r="3" fill="#2563eb"></circle><circle class="dot" cx="565.7858136300417" cy="306" r="3" fill="#2563eb"></circle><circle class="dot" cx="566.787204450626" cy="306" r="3" fill="#2563eb"></circle><circle class="dot" cx="567.78859527121" cy="306" r="3" fill="#2563eb"></circle><circle class="dot" cx="568.7899860917942" cy="306" r="3" fill="#2563eb"></circle><circle class="dot" cx="569.7913769123783" cy="306" r="3" fill="#2563eb"></circle><circle class="dot" cx="570.7927677329625" cy="306" r="3" fill="#2563eb"></circle><circle class="dot" cx="571.7941585535466" cy="306" r="3" fill="#2563eb"></circle><circle class="dot" cx="572.7955493741307" cy="306" r="3" fill="#2563eb"></circle><circle class="dot" cx="573.7969401947148" cy="306" r="3" fill="#2563eb"></circle><circle class="dot" cx="574.798331015299" cy="306" r="3" fill="#2563eb"></circle><circle class="dot" cx="575.7997218358831" cy="306" r="3" fill="#2563eb"></circle><circle class="dot" cx="576.8011126564672" cy="306" r="3" fill="#2563eb"></circle><circle class="dot" cx="577.8025034770515" cy="306" r="3" fill="#2563eb"></circle><circle class="dot" cx="578.8038942976357" cy="306" r="3" fill="#2563eb"></circle><circle class="dot" cx="579.8052851182198" cy="306" r="3" fill="#2563eb"></circle><circle class="dot" cx="580.8066759388039" cy="306" r="3" fill="#2563eb"></circle><circle class="dot" cx="581.808066759388" cy="306" r="3" fill="#2563eb"></circle><circle class="dot" cx="582.8094575799722" cy="306" r="3" fill="#2563eb"></circle><circle class="dot" cx="583.8108484005563" cy="27.199999999999985" r="3" fill="#2563eb"></circle><circle class="dot" cx="584.8122392211404" cy="27.199999999999985" r="3" fill="#2563eb"></circle><circle class="dot" cx="585.8136300417247" cy="306" r="3" fill="#2563eb"></circle><circle class="dot" cx="586.8150208623088" cy="306" r="3" fill="#2563eb"></circle><circle class="dot" cx="587.8164116828929" cy="306" r="3" fill="#2563eb"></circle><circle class="dot" cx="588.817802503477" cy="306" r="3" fill="#2563eb"></circle><circle class="dot" cx="589.8191933240612" cy="306" r="3" fill="#2563eb"></circle><circle class="dot" cx="590.8205841446454" cy="306" r="3" fill="#2563eb"></circle><circle class="dot" cx="591.8219749652295" cy="306" r="3" fill="#2563eb"></circle><circle class="dot" cx="592.8233657858136" cy="306" r="3" fill="#2563eb"></circle><circle class="dot" cx="593.8247566063978" cy="306" r="3" fill="#2563eb"></circle><circle class="dot" cx="594.826147426982" cy="306" r="3" fill="#2563eb"></circle><circle class="dot" cx="595.827538247566" cy="306" r="3" fill="#2563eb"></circle><circle class="dot" cx="596.8289290681502" cy="306" r="3" fill="#2563eb"></circle><circle class="dot" cx="597.8303198887344" cy="306" r="3" fill="#2563eb"></circle><circle class="dot" cx="598.8317107093185" cy="306" r="3" fill="#2563eb"></circle><circle class="dot" cx="599.8331015299026" cy="306" r="3" fill="#2563eb"></circle><circle class="dot" cx="600.8344923504867" cy="306" r="3" fill="#2563eb"></circle><circle class="dot" cx="601.8358831710709" cy="306" r="3" fill="#2563eb"></circle><circle class="dot" cx="602.8372739916551" cy="306" r="3" fill="#2563eb"></circle><circle class="dot" cx="603.8386648122392" cy="306" r="3" fill="#2563eb"></circle><circle class="dot" cx="604.8400556328234" cy="306" r="3" fill="#2563eb"></circle><circle class="dot" cx="605.8414464534076" cy="306" r="3" fill="#2563eb"></circle><circle class="dot" cx="606.8428372739917" cy="306" r="3" fill="#2563eb"></circle><circle class="dot" cx="607.8442280945758" cy="306" r="3" fill="#2563eb"></circle><circle class="dot" cx="608.8456189151599" cy="306" r="3" fill="#2563eb"></circle><circle class="dot" cx="609.8470097357441" cy="306" r="3" fill="#2563eb"></circle><circle class="dot" cx="610.8484005563282" cy="306" r="3" fill="#2563eb"></circle><circle class="dot" cx="611.8497913769123" cy="306" r="3" fill="#2563eb"></circle><circle class="dot" cx="612.8511821974965" cy="306" r="3" fill="#2563eb"></circle><circle class="dot" cx="613.8525730180806" cy="306" r="3" fill="#2563eb"></circle><circle class="dot" cx="614.8539638386649" cy="306" r="3" fill="#2563eb"></circle><circle class="dot" cx="615.855354659249" cy="326.4" r="3" fill="#2563eb"></circle><circle class="dot" cx="616.8567454798331" cy="326.4" r="3" fill="#2563eb"></circle><circle class="dot" cx="617.8581363004173" cy="326.4" r="3" fill="#2563eb"></circle><circle class="dot" cx="618.8595271210014" cy="326.4" r="3" fill="#2563eb"></circle><circle class="dot" cx="619.8609179415855" cy="326.4" r="3" fill="#2563eb"></circle><circle class="dot" cx="620.8623087621697" cy="326.4" r="3" fill="#2563eb"></circle><circle class="dot" cx="621.8636995827538" cy="326.4" r="3" fill="#2563eb"></circle><circle class="dot" cx="622.865090403338" cy="326.4" r="3" fill="#2563eb"></circle><circle class="dot" cx="623.866481223922" cy="326.4" r="3" fill="#2563eb"></circle><circle class="dot" cx="624.8678720445063" cy="326.4" r="3" fill="#2563eb"></circle><circle class="dot" cx="625.8692628650904" cy="326.4" r="3" fill="#2563eb"></circle><circle class="dot" cx="626.8706536856745" cy="326.4" r="3" fill="#2563eb"></circle><circle class="dot" cx="627.8720445062587" cy="326.4" r="3" fill="#2563eb"></circle><circle class="dot" cx="628.8734353268428" cy="326.4" r="3" fill="#2563eb"></circle><circle class="dot" cx="629.874826147427" cy="326.4" r="3" fill="#2563eb"></circle><circle class="dot" cx="630.8762169680111" cy="326.4" r="3" fill="#2563eb"></circle><circle class="dot" cx="631.8776077885952" cy="326.4" r="3" fill="#2563eb"></circle><circle class="dot" cx="632.8789986091795" cy="326.4" r="3" fill="#2563eb"></circle><circle class="dot" cx="633.8803894297636" cy="326.4" r="3" fill="#2563eb"></circle><circle class="dot" cx="634.8817802503477" cy="326.4" r="3" fill="#2563eb"></circle><circle class="dot" cx="635.8831710709318" cy="326.4" r="3" fill="#2563eb"></circle><circle class="dot" cx="636.884561891516" cy="326.4" r="3" fill="#2563eb"></circle><circle class="dot" cx="637.8859527121001" cy="326.4" r="3" fill="#2563eb"></circle><circle class="dot" cx="638.8873435326842" cy="326.4" r="3" fill="#2563eb"></circle><circle class="dot" cx="639.8887343532684" cy="326.4" r="3" fill="#2563eb"></circle><circle class="dot" cx="640.8901251738527" cy="326.4" r="3" fill="#2563eb"></circle><circle class="dot" cx="641.8915159944368" cy="326.4" r="3" fill="#2563eb"></circle><circle class="dot" cx="642.8929068150209" cy="326.4" r="3" fill="#2563eb"></circle><circle class="dot" cx="643.894297635605" cy="326.4" r="3" fill="#2563eb"></circle><circle class="dot" cx="644.8956884561892" cy="326.4" r="3" fill="#2563eb"></circle><circle class="dot" cx="645.8970792767733" cy="326.4" r="3" fill="#2563eb"></circle><circle class="dot" cx="646.8984700973574" cy="326.4" r="3" fill="#2563eb"></circle><circle class="dot" cx="647.8998609179416" cy="326.4" r="3" fill="#2563eb"></circle><circle class="dot" cx="648.9012517385257" cy="326.4" r="3" fill="#2563eb"></circle><circle class="dot" cx="649.9026425591098" cy="326.4" r="3" fill="#2563eb"></circle><circle class="dot" cx="650.9040333796939" cy="326.4" r="3" fill="#2563eb"></circle><circle class="dot" cx="651.9054242002782" cy="326.4" r="3" fill="#2563eb"></circle><circle class="dot" cx="652.9068150208624" cy="326.4" r="3" fill="#2563eb"></circle><circle class="dot" cx="653.9082058414465" cy="326.4" r="3" fill="#2563eb"></circle><circle class="dot" cx="654.9095966620306" cy="326.4" r="3" fill="#2563eb"></circle><circle class="dot" cx="655.9109874826147" cy="326.4" r="3" fill="#2563eb"></circle><circle class="dot" cx="656.9123783031989" cy="326.4" r="3" fill="#2563eb"></circle><circle class="dot" cx="657.913769123783" cy="326.4" r="3" fill="#2563eb"></circle><circle class="dot" cx="658.9151599443671" cy="326.4" r="3" fill="#2563eb"></circle><circle class="dot" cx="659.9165507649514" cy="306" r="3" fill="#2563eb"></circle><circle class="dot" cx="660.9179415855355" cy="306" r="3" fill="#2563eb"></circle><circle class="dot" cx="661.9193324061196" cy="326.4" r="3" fill="#2563eb"></circle><circle class="dot" cx="662.9207232267037" cy="326.4" r="3" fill="#2563eb"></circle><circle class="dot" cx="663.9221140472879" cy="326.4" r="3" fill="#2563eb"></circle><circle class="dot" cx="664.9235048678721" cy="326.4" r="3" fill="#2563eb"></circle><circle class="dot" cx="665.9248956884562" cy="326.4" r="3" fill="#2563eb"></circle><circle class="dot" cx="666.9262865090403" cy="326.4" r="3" fill="#2563eb"></circle><circle class="dot" cx="667.9276773296245" cy="326.4" r="3" fill="#2563eb"></circle><circle class="dot" cx="668.9290681502086" cy="326.4" r="3" fill="#2563eb"></circle><circle class="dot" cx="669.9304589707928" cy="326.4" r="3" fill="#2563eb"></circle><circle class="dot" cx="670.9318497913769" cy="326.4" r="3" fill="#2563eb"></circle><circle class="dot" cx="671.9332406119611" cy="306" r="3" fill="#2563eb"></circle><circle class="dot" cx="672.9346314325452" cy="326.4" r="3" fill="#2563eb"></circle><circle class="dot" cx="673.9360222531293" cy="306" r="3" fill="#2563eb"></circle><circle class="dot" cx="674.9374130737135" cy="326.4" r="3" fill="#2563eb"></circle><circle class="dot" cx="675.9388038942976" cy="326.4" r="3" fill="#2563eb"></circle><circle class="dot" cx="676.9401947148818" cy="326.4" r="3" fill="#2563eb"></circle><circle class="dot" cx="677.941585535466" cy="326.4" r="3" fill="#2563eb"></circle><circle class="dot" cx="678.94297635605" cy="306" r="3" fill="#2563eb"></circle><circle class="dot" cx="679.9443671766343" cy="306" r="3" fill="#2563eb"></circle><circle class="dot" cx="680.9457579972184" cy="306" r="3" fill="#2563eb"></circle><circle class="dot" cx="681.9471488178025" cy="306" r="3" fill="#2563eb"></circle><circle class="dot" cx="682.9485396383866" cy="306" r="3" fill="#2563eb"></circle><circle class="dot" cx="683.9499304589708" cy="306" r="3" fill="#2563eb"></circle><circle class="dot" cx="684.9513212795549" cy="326.4" r="3" fill="#2563eb"></circle><circle class="dot" cx="685.952712100139" cy="326.4" r="3" fill="#2563eb"></circle><circle class="dot" cx="686.9541029207232" cy="326.4" r="3" fill="#2563eb"></circle><circle class="dot" cx="687.9554937413074" cy="326.4" r="3" fill="#2563eb"></circle><circle class="dot" cx="688.9568845618915" cy="326.4" r="3" fill="#2563eb"></circle><circle class="dot" cx="689.9582753824757" cy="326.4" r="3" fill="#2563eb"></circle><circle class="dot" cx="690.9596662030598" cy="326.4" r="3" fill="#2563eb"></circle><circle class="dot" cx="691.961057023644" cy="326.4" r="3" fill="#2563eb"></circle><circle class="dot" cx="692.9624478442281" cy="326.4" r="3" fill="#2563eb"></circle><circle class="dot" cx="693.9638386648122" cy="326.4" r="3" fill="#2563eb"></circle><circle class="dot" cx="694.9652294853964" cy="326.4" r="3" fill="#2563eb"></circle><circle class="dot" cx="695.9666203059805" cy="326.4" r="3" fill="#2563eb"></circle><circle class="dot" cx="696.9680111265646" cy="327.08" r="3" fill="#2563eb"></circle><circle class="dot" cx="697.9694019471488" cy="327.08" r="3" fill="#2563eb"></circle><circle class="dot" cx="698.970792767733" cy="327.08" r="3" fill="#2563eb"></circle><circle class="dot" cx="699.9721835883171" cy="326.4" r="3" fill="#2563eb"></circle><circle class="dot" cx="700.9735744089012" cy="327.08" r="3" fill="#2563eb"></circle><circle class="dot" cx="701.9749652294854" cy="326.4" r="3" fill="#2563eb"></circle><circle class="dot" cx="702.9763560500696" cy="326.4" r="3" fill="#2563eb"></circle><circle class="dot" cx="703.9777468706537" cy="326.4" r="3" fill="#2563eb"></circle><circle class="dot" cx="704.9791376912378" cy="326.4" r="3" fill="#2563eb"></circle><circle class="dot" cx="705.980528511822" cy="326.4" r="3" fill="#2563eb"></circle><circle class="dot" cx="706.9819193324062" cy="326.4" r="3" fill="#2563eb"></circle><circle class="dot" cx="707.9833101529903" cy="326.4" r="3" fill="#2563eb"></circle><circle class="dot" cx="708.9847009735744" cy="326.4" r="3" fill="#2563eb"></circle><circle class="dot" cx="709.9860917941585" cy="326.4" r="3" fill="#2563eb"></circle><circle class="dot" cx="710.9874826147427" cy="327.76" r="3" fill="#2563eb"></circle><circle class="dot" cx="711.9888734353268" cy="329.8" r="3" fill="#2563eb"></circle><circle class="dot" cx="712.9902642559109" cy="329.8" r="3" fill="#2563eb"></circle><circle class="dot" cx="713.9916550764951" cy="329.8" r="3" fill="#2563eb"></circle><circle class="dot" cx="714.9930458970794" cy="329.8" r="3" fill="#2563eb"></circle><circle class="dot" cx="715.9944367176635" cy="329.8" r="3" fill="#2563eb"></circle><circle class="dot" cx="716.9958275382476" cy="329.8" r="3" fill="#2563eb"></circle><circle class="dot" cx="717.9972183588317" cy="327.76" r="3" fill="#2563eb"></circle><circle class="dot" cx="718.9986091794159" cy="327.76" r="3" fill="#2563eb"></circle><circle class="dot" cx="720" cy="327.76" r="3" fill="#2563eb"></circle><g class="grid" transform="translate(0,340)" fill="none" font-size="10" font-family="sans-serif" text-anchor="middle" style="stroke-dasharray: 3,3; opacity: 0.3;"><path class="domain" stroke="currentColor" d="M0.5,-340V0.5H720.5V-340"></path><g class="tick" opacity="1" transform="translate(7.509735744089013,0)"><line stroke="currentColor" y2="-340"></line><text fill="currentColor" y="3" dy="0.71em"></text></g><g class="tick" opacity="1" transform="translate(55.57649513212795,0)"><line stroke="currentColor" y2="-340"></line><text fill="currentColor" y="3" dy="0.71em"></text></g><g class="tick" opacity="1" transform="translate(103.64325452016689,0)"><line stroke="currentColor" y2="-340"></line><text fill="currentColor" y="3" dy="0.71em"></text></g><g class="tick" opacity="1" transform="translate(151.71001390820584,0)"><line stroke="currentColor" y2="-340"></line><text fill="currentColor" y="3" dy="0.71em"></text></g><g class="tick" opacity="1" transform="translate(199.77677329624478,0)"><line stroke="currentColor" y2="-340"></line><text fill="currentColor" y="3" dy="0.71em"></text></g><g class="tick" opacity="1" transform="translate(247.84353268428373,0)"><line stroke="currentColor" y2="-340"></line><text fill="currentColor" y="3" dy="0.71em"></text></g><g class="tick" opacity="1" transform="translate(295.9102920723227,0)"><line stroke="currentColor" y2="-340"></line><text fill="currentColor" y="3" dy="0.71em"></text></g><g class="tick" opacity="1" transform="translate(343.9770514603616,0)"><line stroke="currentColor" y2="-340"></line><text fill="currentColor" y="3" dy="0.71em"></text></g><g class="tick" opacity="1" transform="translate(392.0438108484006,0)"><line stroke="currentColor" y2="-340"></line><text fill="currentColor" y="3" dy="0.71em"></text></g><g class="tick" opacity="1" transform="translate(440.11057023643946,0)"><line stroke="currentColor" y2="-340"></line><text fill="currentColor" y="3" dy="0.71em"></text></g><g class="tick" opacity="1" transform="translate(488.17732962447843,0)"><line stroke="currentColor" y2="-340"></line><text fill="currentColor" y="3" dy="0.71em"></text></g><g class="tick" opacity="1" transform="translate(536.2440890125174,0)"><line stroke="currentColor" y2="-340"></line><text fill="currentColor" y="3" dy="0.71em"></text></g><g class="tick" opacity="1" transform="translate(584.3108484005563,0)"><line stroke="currentColor" y2="-340"></line><text fill="currentColor" y="3" dy="0.71em"></text></g><g class="tick" opacity="1" transform="translate(632.3776077885952,0)"><line stroke="currentColor" y2="-340"></line><text fill="currentColor" y="3" dy="0.71em"></text></g><g class="tick" opacity="1" transform="translate(680.4443671766343,0)"><line stroke="currentColor" y2="-340"></line><text fill="currentColor" y="3" dy="0.71em"></text></g></g><g class="grid" fill="none" font-size="10" font-family="sans-serif" text-anchor="end" style="stroke-dasharray: 3,3; opacity: 0.3;"><path class="domain" stroke="currentColor" d="M720,340.5H0.5V0.5H720"></path><g class="tick" opacity="1" transform="translate(0,340.5)"><line stroke="currentColor" x2="720"></line><text fill="currentColor" x="-3" dy="0.32em"></text></g><g class="tick" opacity="1" transform="translate(0,306.5)"><line stroke="currentColor" x2="720"></line><text fill="currentColor" x="-3" dy="0.32em"></text></g><g class="tick" opacity="1" transform="translate(0,272.5)"><line stroke="currentColor" x2="720"></line><text fill="currentColor" x="-3" dy="0.32em"></text></g><g class="tick" opacity="1" transform="translate(0,238.49999999999997)"><line stroke="currentColor" x2="720"></line><text fill="currentColor" x="-3" dy="0.32em"></text></g><g class="tick" opacity="1" transform="translate(0,204.5)"><line stroke="currentColor" x2="720"></line><text fill="currentColor" x="-3" dy="0.32em"></text></g><g class="tick" opacity="1" transform="translate(0,170.5)"><line stroke="currentColor" x2="720"></line><text fill="currentColor" x="-3" dy="0.32em"></text></g><g class="tick" opacity="1" transform="translate(0,136.5)"><line stroke="currentColor" x2="720"></line><text fill="currentColor" x="-3" dy="0.32em"></text></g><g class="tick" opacity="1" transform="translate(0,102.50000000000001)"><line stroke="currentColor" x2="720"></line><text fill="currentColor" x="-3" dy="0.32em"></text></g><g class="tick" opacity="1" transform="translate(0,68.49999999999999)"><line stroke="currentColor" x2="720"></line><text fill="currentColor" x="-3" dy="0.32em"></text></g><g class="tick" opacity="1" transform="translate(0,34.49999999999999)"><line stroke="currentColor" x2="720"></line><text fill="currentColor" x="-3" dy="0.32em"></text></g><g class="tick" opacity="1" transform="translate(0,0.5)"><line stroke="currentColor" x2="720"></line><text fill="currentColor" x="-3" dy="0.32em"></text></g></g></g><text x="400" y="10" text-anchor="middle" style="font-size: 16px; font-weight: bold; fill: #333;">OKX USDT Lending Rate - April 2025</text></svg>