<svg width="800" height="400" xmlns="http://www.w3.org/2000/svg"><g transform="translate(50,20)"><g transform="translate(0,340)" fill="none" font-size="10" font-family="sans-serif" text-anchor="middle"><path class="domain" stroke="currentColor" d="M0.5,6V0.5H720.5V6"></path><g class="tick" opacity="1" transform="translate(0.5,0)"><line stroke="currentColor" y2="6"></line><text fill="currentColor" y="9" dy=".15em" style="text-anchor: end;" dx="-.8em" transform="rotate(-45)">08/01</text></g><g class="tick" opacity="1" transform="translate(27.374027993779162,0)"><line stroke="currentColor" y2="6"></line><text fill="currentColor" y="9" dy=".15em" style="text-anchor: end;" dx="-.8em" transform="rotate(-45)">08/02</text></g><g class="tick" opacity="1" transform="translate(54.248055987558324,0)"><line stroke="currentColor" y2="6"></line><text fill="currentColor" y="9" dy=".15em" style="text-anchor: end;" dx="-.8em" transform="rotate(-45)">08/03</text></g><g class="tick" opacity="1" transform="translate(81.12208398133748,0)"><line stroke="currentColor" y2="6"></line><text fill="currentColor" y="9" dy=".15em" style="text-anchor: end;" dx="-.8em" transform="rotate(-45)">08/04</text></g><g class="tick" opacity="1" transform="translate(107.99611197511665,0)"><line stroke="currentColor" y2="6"></line><text fill="currentColor" y="9" dy=".15em" style="text-anchor: end;" dx="-.8em" transform="rotate(-45)">08/05</text></g><g class="tick" opacity="1" transform="translate(134.8701399688958,0)"><line stroke="currentColor" y2="6"></line><text fill="currentColor" y="9" dy=".15em" style="text-anchor: end;" dx="-.8em" transform="rotate(-45)">08/06</text></g><g class="tick" opacity="1" transform="translate(161.74416796267496,0)"><line stroke="currentColor" y2="6"></line><text fill="currentColor" y="9" dy=".15em" style="text-anchor: end;" dx="-.8em" transform="rotate(-45)">08/07</text></g><g class="tick" opacity="1" transform="translate(188.61819595645412,0)"><line stroke="currentColor" y2="6"></line><text fill="currentColor" y="9" dy=".15em" style="text-anchor: end;" dx="-.8em" transform="rotate(-45)">08/08</text></g><g class="tick" opacity="1" transform="translate(215.4922239502333,0)"><line stroke="currentColor" y2="6"></line><text fill="currentColor" y="9" dy=".15em" style="text-anchor: end;" dx="-.8em" transform="rotate(-45)">08/09</text></g><g class="tick" opacity="1" transform="translate(242.36625194401245,0)"><line stroke="currentColor" y2="6"></line><text fill="currentColor" y="9" dy=".15em" style="text-anchor: end;" dx="-.8em" transform="rotate(-45)">08/10</text></g><g class="tick" opacity="1" transform="translate(269.2402799377916,0)"><line stroke="currentColor" y2="6"></line><text fill="currentColor" y="9" dy=".15em" style="text-anchor: end;" dx="-.8em" transform="rotate(-45)">08/11</text></g><g class="tick" opacity="1" transform="translate(296.1143079315708,0)"><line stroke="currentColor" y2="6"></line><text fill="currentColor" y="9" dy=".15em" style="text-anchor: end;" dx="-.8em" transform="rotate(-45)">08/12</text></g><g class="tick" opacity="1" transform="translate(322.98833592534993,0)"><line stroke="currentColor" y2="6"></line><text fill="currentColor" y="9" dy=".15em" style="text-anchor: end;" dx="-.8em" transform="rotate(-45)">08/13</text></g><g class="tick" opacity="1" transform="translate(349.8623639191291,0)"><line stroke="currentColor" y2="6"></line><text fill="currentColor" y="9" dy=".15em" style="text-anchor: end;" dx="-.8em" transform="rotate(-45)">08/14</text></g><g class="tick" opacity="1" transform="translate(376.73639191290823,0)"><line stroke="currentColor" y2="6"></line><text fill="currentColor" y="9" dy=".15em" style="text-anchor: end;" dx="-.8em" transform="rotate(-45)">08/15</text></g><g class="tick" opacity="1" transform="translate(403.6104199066874,0)"><line stroke="currentColor" y2="6"></line><text fill="currentColor" y="9" dy=".15em" style="text-anchor: end;" dx="-.8em" transform="rotate(-45)">08/16</text></g><g class="tick" opacity="1" transform="translate(430.4844479004666,0)"><line stroke="currentColor" y2="6"></line><text fill="currentColor" y="9" dy=".15em" style="text-anchor: end;" dx="-.8em" transform="rotate(-45)">08/17</text></g><g class="tick" opacity="1" transform="translate(457.3584758942457,0)"><line stroke="currentColor" y2="6"></line><text fill="currentColor" y="9" dy=".15em" style="text-anchor: end;" dx="-.8em" transform="rotate(-45)">08/18</text></g><g class="tick" opacity="1" transform="translate(484.2325038880249,0)"><line stroke="currentColor" y2="6"></line><text fill="currentColor" y="9" dy=".15em" style="text-anchor: end;" dx="-.8em" transform="rotate(-45)">08/19</text></g><g class="tick" opacity="1" transform="translate(511.106531881804,0)"><line stroke="currentColor" y2="6"></line><text fill="currentColor" y="9" dy=".15em" style="text-anchor: end;" dx="-.8em" transform="rotate(-45)">08/20</text></g><g class="tick" opacity="1" transform="translate(537.9805598755833,0)"><line stroke="currentColor" y2="6"></line><text fill="currentColor" y="9" dy=".15em" style="text-anchor: end;" dx="-.8em" transform="rotate(-45)">08/21</text></g><g class="tick" opacity="1" transform="translate(564.8545878693624,0)"><line stroke="currentColor" y2="6"></line><text fill="currentColor" y="9" dy=".15em" style="text-anchor: end;" dx="-.8em" transform="rotate(-45)">08/22</text></g><g class="tick" opacity="1" transform="translate(591.7286158631416,0)"><line stroke="currentColor" y2="6"></line><text fill="currentColor" y="9" dy=".15em" style="text-anchor: end;" dx="-.8em" transform="rotate(-45)">08/23</text></g><g class="tick" opacity="1" transform="translate(618.6026438569206,0)"><line stroke="currentColor" y2="6"></line><text fill="currentColor" y="9" dy=".15em" style="text-anchor: end;" dx="-.8em" transform="rotate(-45)">08/24</text></g><g class="tick" opacity="1" transform="translate(645.4766718506999,0)"><line stroke="currentColor" y2="6"></line><text fill="currentColor" y="9" dy=".15em" style="text-anchor: end;" dx="-.8em" transform="rotate(-45)">08/25</text></g><g class="tick" opacity="1" transform="translate(672.350699844479,0)"><line stroke="currentColor" y2="6"></line><text fill="currentColor" y="9" dy=".15em" style="text-anchor: end;" dx="-.8em" transform="rotate(-45)">08/26</text></g><g class="tick" opacity="1" transform="translate(699.2247278382582,0)"><line stroke="currentColor" y2="6"></line><text fill="currentColor" y="9" dy=".15em" style="text-anchor: end;" dx="-.8em" transform="rotate(-45)">08/27</text></g></g><g fill="none" font-size="10" font-family="sans-serif" text-anchor="end"><path class="domain" stroke="currentColor" d="M-6,340.5H0.5V0.5H-6"></path><g class="tick" opacity="1" transform="translate(0,340.5)"><line stroke="currentColor" x2="-6"></line><text fill="currentColor" x="-9" dy="0.32em">5.00%</text></g><g class="tick" opacity="1" transform="translate(0,302.72222222222223)"><line stroke="currentColor" x2="-6"></line><text fill="currentColor" x="-9" dy="0.32em">10.00%</text></g><g class="tick" opacity="1" transform="translate(0,264.94444444444446)"><line stroke="currentColor" x2="-6"></line><text fill="currentColor" x="-9" dy="0.32em">15.00%</text></g><g class="tick" opacity="1" transform="translate(0,227.16666666666666)"><line stroke="currentColor" x2="-6"></line><text fill="currentColor" x="-9" dy="0.32em">20.00%</text></g><g class="tick" opacity="1" transform="translate(0,189.38888888888889)"><line stroke="currentColor" x2="-6"></line><text fill="currentColor" x="-9" dy="0.32em">25.00%</text></g><g class="tick" opacity="1" transform="translate(0,151.61111111111111)"><line stroke="currentColor" x2="-6"></line><text fill="currentColor" x="-9" dy="0.32em">30.00%</text></g><g class="tick" opacity="1" transform="translate(0,113.83333333333334)"><line stroke="currentColor" x2="-6"></line><text fill="currentColor" x="-9" dy="0.32em">35.00%</text></g><g class="tick" opacity="1" transform="translate(0,76.05555555555556)"><line stroke="currentColor" x2="-6"></line><text fill="currentColor" x="-9" dy="0.32em">40.00%</text></g><g class="tick" opacity="1" transform="translate(0,38.27777777777776)"><line stroke="currentColor" x2="-6"></line><text fill="currentColor" x="-9" dy="0.32em">45.00%</text></g><g class="tick" opacity="1" transform="translate(0,0.5)"><line stroke="currentColor" x2="-6"></line><text fill="currentColor" x="-9" dy="0.32em">50.00%</text></g></g><text transform="rotate(-90)" y="-50" x="-170" dy="1em" style="text-anchor: middle; font-size: 12px; fill: #666;">Pre Rate (%)</text><text transform="translate(360, 380)" style="text-anchor: middle; font-size: 12px; fill: #666;">Time (UTC)</text><path fill="none" stroke="#2563eb" stroke-width="2" d="M0,340C0.373,340,0.747,340,1.12,340C1.493,340,1.866,340,2.24,340C2.613,340,2.986,340,3.359,340C3.733,340,4.106,340,4.479,340C4.852,340,5.226,340,5.599,340C5.972,340,6.345,340,6.719,340C7.092,340,7.465,340,7.838,340C8.212,340,8.585,340,8.958,340C9.331,340,9.705,340,10.078,340C10.451,340,10.824,340,11.198,340C11.571,340,11.944,340,12.317,340C12.691,340,13.064,340,13.437,340C13.81,340,14.184,340,14.557,340C14.93,340,15.303,340,15.677,340C16.05,340,16.423,340,16.796,340C17.17,340,17.543,340,17.916,340C18.289,340,18.663,340,19.036,340C19.409,340,19.782,340,20.156,340C20.529,340,20.902,340,21.275,340C21.649,340,22.022,340,22.395,340C22.768,340,23.142,340,23.515,340C23.888,340,24.261,340,24.635,340C25.008,340,25.381,340,25.754,340C26.128,340,26.501,340,26.874,340C27.247,340,27.621,340,27.994,340C28.367,340,28.74,340,29.114,340C29.487,340,29.86,340,30.233,340C30.607,340,30.98,340,31.353,340C31.726,340,32.1,340,32.473,340C32.846,340,33.219,340,33.593,340C33.966,340,34.339,340,34.712,340C35.086,340,35.459,340,35.832,340C36.205,340,36.579,340,36.952,340C37.325,340,37.698,340,38.072,340C38.445,340,38.818,340,39.191,340C39.565,340,39.938,340,40.311,340C40.684,340,41.058,340,41.431,340C41.804,340,42.177,340,42.551,340C42.924,340,43.297,340,43.67,340C44.044,340,44.417,340,44.79,340C45.163,340,45.537,340,45.91,340C46.283,340,46.656,340,47.03,340C47.403,340,47.776,340,48.149,340C48.523,340,48.896,340,49.269,340C49.642,340,50.016,340,50.389,340C50.762,340,51.135,340,51.509,340C51.882,340,52.255,340,52.628,340C53.002,340,53.375,340,53.748,340C54.121,340,54.495,340,54.868,340C55.241,340,55.614,340,55.988,340C56.361,340,56.734,340,57.107,340C57.481,340,57.854,340,58.227,340C58.6,340,58.974,340,59.347,340C59.72,340,60.093,340,60.467,340C60.84,340,61.213,340,61.586,340C61.96,340,62.333,340,62.706,340C63.079,340,63.453,340,63.826,340C64.199,340,64.572,340,64.946,340C65.319,340,65.692,340,66.065,340C66.439,340,66.812,340,67.185,340C67.558,340,67.932,340,68.305,340C68.678,340,69.051,340,69.425,340C69.798,340,70.171,340,70.544,340C70.918,340,71.291,340,71.664,340C72.037,340,72.411,340,72.784,340C73.157,340,73.53,340,73.904,340C74.277,340,74.65,340,75.023,340C75.397,340,75.77,340,76.143,340C76.516,340,76.89,340,77.263,340C77.636,340,78.009,340,78.383,340C78.756,340,79.129,340,79.502,340C79.876,340,80.249,340,80.622,340C80.995,340,81.369,340,81.742,340C82.115,340,82.488,340,82.862,340C83.235,340,83.608,340,83.981,340C84.355,340,84.728,340,85.101,340C85.474,340,85.848,340,86.221,340C86.594,340,86.967,340,87.341,340C87.714,340,88.087,340,88.46,340C88.834,340,89.207,340,89.58,340C89.953,340,90.327,340,90.7,340C91.073,340,91.446,340,91.82,340C92.193,340,92.566,340,92.939,340C93.313,340,93.686,340,94.059,340C94.432,340,94.806,340,95.179,340C95.552,340,95.925,340,96.299,340C96.672,340,97.045,340,97.418,340C97.792,340,98.165,340,98.538,340C98.911,340,99.285,340,99.658,340C100.031,340,100.404,340,100.778,340C101.151,340,101.524,340,101.897,340C102.271,340,102.644,340,103.017,340C103.39,340,103.764,340,104.137,340C104.51,340,104.883,340,105.257,340C105.63,340,106.003,340,106.376,340C106.75,340,107.123,340,107.496,340C107.869,340,108.243,340,108.616,340C108.989,340,109.362,340,109.736,340C110.109,340,110.482,340,110.855,340C111.229,340,111.602,340,111.975,340C112.348,340,112.722,340,113.095,340C113.468,340,113.841,340,114.215,340C114.588,340,114.961,340,115.334,340C115.708,340,116.081,340,116.454,340C116.827,340,117.201,340,117.574,340C117.947,340,118.32,340,118.694,340C119.067,340,119.44,340,119.813,340C120.187,340,120.56,340,120.933,340C121.306,340,121.68,340,122.053,340C122.426,340,122.799,340,123.173,340C123.546,340,123.919,340,124.292,340C124.666,340,125.039,340,125.412,340C125.785,340,126.159,340,126.532,340C126.905,340,127.278,340,127.652,340C128.025,340,128.398,340,128.771,340C129.145,340,129.518,340,129.891,340C130.264,340,130.638,340,131.011,340C131.384,340,131.757,340,132.131,340C132.504,340,132.877,340,133.25,340C133.624,340,133.997,340,134.37,340C134.743,340,135.117,340,135.49,340C135.863,340,136.236,340,136.61,340C136.983,340,137.356,340,137.729,340C138.103,340,138.476,340,138.849,340C139.222,340,139.596,340,139.969,340C140.342,340,140.715,340,141.089,340C141.462,340,141.835,340,142.208,340C142.582,340,142.955,340,143.328,340C143.701,340,144.075,340,144.448,340C144.821,340,145.194,340,145.568,340C145.941,340,146.314,340,146.687,340C147.061,340,147.434,340,147.807,340C148.18,340,148.554,340,148.927,340C149.3,340,149.673,340,150.047,340C150.42,340,150.793,340,151.166,340C151.54,340,151.913,340,152.286,340C152.659,340,153.033,340,153.406,340C153.779,340,154.152,340,154.526,340C154.899,340,155.272,340,155.645,340C156.019,340,156.392,340,156.765,340C157.138,340,157.512,340,157.885,340C158.258,340,158.631,340,159.005,340C159.378,340,159.751,340,160.124,340C160.498,340,160.871,340,161.244,340C161.617,340,161.991,340,162.364,340C162.737,340,163.11,340,163.484,340C163.857,340,164.23,340,164.603,340C164.977,340,165.35,340,165.723,340C166.096,340,166.47,340,166.843,340C167.216,340,167.589,340,167.963,340C168.336,340,168.709,340,169.082,340C169.456,340,169.829,340,170.202,340C170.575,340,170.949,340,171.322,340C171.695,340,172.068,340,172.442,340C172.815,340,173.188,340,173.561,340C173.935,340,174.308,340,174.681,340C175.054,340,175.428,90.667,175.801,90.667C176.174,90.667,176.547,340,176.921,340C177.294,340,177.667,340,178.04,340C178.414,340,178.787,340,179.16,340C179.533,340,179.907,340,180.28,340C180.653,340,181.026,340,181.4,340C181.773,340,182.146,340,182.519,340C182.893,340,183.266,340,183.639,340C184.012,340,184.386,340,184.759,340C185.132,340,185.505,340,185.879,340C186.252,340,186.625,340,186.998,340C187.372,340,187.745,340,188.118,340C188.491,340,188.865,340,189.238,340C189.611,340,189.984,340,190.358,340C190.731,340,191.104,340,191.477,340C191.851,340,192.224,83.111,192.597,83.111C192.97,83.111,193.344,340,193.717,340C194.09,340,194.463,340,194.837,340C195.21,340,195.583,68,195.956,68C196.33,68,196.703,75.556,197.076,90.667C197.449,105.778,197.823,340,198.196,340C198.569,340,198.942,340,199.316,340C199.689,340,200.062,340,200.435,340C200.809,340,201.182,340,201.555,340C201.928,340,202.302,340,202.675,340C203.048,340,203.421,83.111,203.795,83.111C204.168,83.111,204.541,340,204.914,340C205.288,340,205.661,340,206.034,340C206.407,340,206.781,340,207.154,340C207.527,340,207.9,83.111,208.274,83.111C208.647,83.111,209.02,88.148,209.393,90.667C209.767,93.185,210.14,93.185,210.513,98.222C210.886,103.259,211.26,340,211.633,340C212.006,340,212.379,340,212.753,340C213.126,340,213.499,340,213.872,340C214.246,340,214.619,340,214.992,340C215.365,340,215.739,340,216.112,340C216.485,340,216.858,340,217.232,340C217.605,340,217.978,340,218.351,340C218.725,340,219.098,83.111,219.471,83.111C219.844,83.111,220.218,90.667,220.591,90.667C220.964,90.667,221.337,22.667,221.711,22.667C222.084,22.667,222.457,75.556,222.83,75.556C223.204,75.556,223.577,75.556,223.95,75.556C224.323,75.556,224.697,340,225.07,340C225.443,340,225.816,340,226.19,340C226.563,340,226.936,340,227.309,340C227.683,340,228.056,340,228.429,340C228.802,340,229.176,340,229.549,340C229.922,340,230.295,340,230.669,340C231.042,340,231.415,340,231.788,340C232.162,340,232.535,83.111,232.908,83.111C233.281,83.111,233.655,98.222,234.028,98.222C234.401,98.222,234.774,83.111,235.148,83.111C235.521,83.111,235.894,83.111,236.267,83.111C236.641,83.111,237.014,90.667,237.387,90.667C237.76,90.667,238.134,90.667,238.507,90.667C238.88,90.667,239.253,340,239.627,340C240,340,240.373,340,240.747,340C241.12,340,241.493,340,241.866,340C242.24,340,242.613,75.556,242.986,75.556C243.359,75.556,243.733,340,244.106,340C244.479,340,244.852,340,245.226,340C245.599,340,245.972,75.556,246.345,75.556C246.719,75.556,247.092,78.074,247.465,83.111C247.838,88.148,248.212,340,248.585,340C248.958,340,249.331,340,249.705,340C250.078,340,250.451,340,250.824,340C251.198,340,251.571,340,251.944,340C252.317,340,252.691,340,253.064,340C253.437,340,253.81,340,254.184,340C254.557,340,254.93,340,255.303,340C255.677,340,256.05,340,256.423,340C256.796,340,257.17,340,257.543,340C257.916,340,258.289,340,258.663,340C259.036,340,259.409,340,259.782,340C260.156,340,260.529,340,260.902,340C261.275,340,261.649,340,262.022,340C262.395,340,262.768,340,263.142,340C263.515,340,263.888,340,264.261,340C264.635,340,265.008,340,265.381,340C265.754,340,266.128,340,266.501,340C266.874,340,267.247,340,267.621,340C267.994,340,268.367,340,268.74,340C269.114,340,269.487,340,269.86,340C270.233,340,270.607,340,270.98,340C271.353,340,271.726,340,272.1,340C272.473,340,272.846,90.667,273.219,90.667C273.593,90.667,273.966,340,274.339,340C274.712,340,275.086,340,275.459,340C275.832,340,276.205,340,276.579,340C276.952,340,277.325,340,277.698,340C278.072,340,278.445,340,278.818,340C279.191,340,279.565,340,279.938,340C280.311,340,280.684,340,281.058,340C281.431,340,281.804,340,282.177,340C282.551,340,282.924,340,283.297,340C283.67,340,284.044,340,284.417,340C284.79,340,285.163,340,285.537,340C285.91,340,286.283,340,286.656,340C287.03,340,287.403,340,287.776,340C288.149,340,288.523,340,288.896,340C289.269,340,289.642,340,290.016,340C290.389,340,290.762,340,291.135,340C291.509,340,291.882,340,292.255,340C292.628,340,293.002,340,293.375,340C293.748,340,294.121,340,294.495,340C294.868,340,295.241,340,295.614,340C295.988,340,296.361,340,296.734,340C297.107,340,297.481,340,297.854,340C298.227,340,298.6,340,298.974,340C299.347,340,299.72,340,300.093,340C300.467,340,300.84,340,301.213,340C301.586,340,301.96,340,302.333,340C302.706,340,303.079,340,303.453,340C303.826,340,304.199,340,304.572,340C304.946,340,305.319,340,305.692,340C306.065,340,306.439,340,306.812,340C307.185,340,307.558,340,307.932,340C308.305,340,308.678,340,309.051,340C309.425,340,309.798,90.667,310.171,90.667C310.544,90.667,310.918,340,311.291,340C311.664,340,312.037,340,312.411,340C312.784,340,313.157,68,313.53,68C313.904,68,314.277,78.074,314.65,98.222C315.023,118.37,315.397,340,315.77,340C316.143,340,316.516,340,316.89,340C317.263,340,317.636,118.37,318.009,83.111C318.383,47.852,318.756,30.222,319.129,30.222C319.502,30.222,319.876,55.407,320.249,60.444C320.622,65.481,320.995,62.963,321.369,68C321.742,73.037,322.115,90.667,322.488,90.667C322.862,90.667,323.235,83.111,323.608,83.111C323.981,83.111,324.355,340,324.728,340C325.101,340,325.474,83.111,325.848,83.111C326.221,83.111,326.594,98.222,326.967,98.222C327.341,98.222,327.714,98.222,328.087,98.222C328.46,98.222,328.834,332.444,329.207,332.444C329.58,332.444,329.953,332.444,330.327,332.444C330.7,332.444,331.073,52.889,331.446,52.889C331.82,52.889,332.193,75.556,332.566,75.556C332.939,75.556,333.313,68,333.686,68C334.059,68,334.432,332.444,334.806,332.444C335.179,332.444,335.552,332.444,335.925,332.444C336.299,332.444,336.672,332.444,337.045,332.444C337.418,332.444,337.792,332.444,338.165,332.444C338.538,332.444,338.911,332.444,339.285,332.444C339.658,332.444,340.031,332.444,340.404,332.444C340.778,332.444,341.151,332.444,341.524,332.444C341.897,332.444,342.271,332.444,342.644,332.444C343.017,332.444,343.39,332.444,343.764,332.444C344.137,332.444,344.51,332.444,344.883,332.444C345.257,332.444,345.63,332.444,346.003,332.444C346.376,332.444,346.75,332.444,347.123,332.444C347.496,332.444,347.869,332.444,348.243,332.444C348.616,332.444,348.989,332.444,349.362,332.444C349.736,332.444,350.109,332.444,350.482,332.444C350.855,332.444,351.229,332.444,351.602,332.444C351.975,332.444,352.348,52.889,352.722,52.889C353.095,52.889,353.468,332.444,353.841,332.444C354.215,332.444,354.588,332.444,354.961,332.444C355.334,332.444,355.708,332.444,356.081,332.444C356.454,332.444,356.827,68,357.201,68C357.574,68,357.947,78.074,358.32,98.222C358.694,118.37,359.067,332.444,359.44,332.444C359.813,332.444,360.187,332.444,360.56,332.444C360.933,332.444,361.306,332.444,361.68,332.444C362.053,332.444,362.426,332.444,362.799,332.444C363.173,332.444,363.546,332.444,363.919,332.444C364.292,332.444,364.666,332.444,365.039,332.444C365.412,332.444,365.785,332.444,366.159,332.444C366.532,332.444,366.905,332.444,367.278,332.444C367.652,332.444,368.025,332.444,368.398,332.444C368.771,332.444,369.145,332.444,369.518,332.444C369.891,332.444,370.264,332.444,370.638,332.444C371.011,332.444,371.384,332.444,371.757,332.444C372.131,332.444,372.504,332.444,372.877,332.444C373.25,332.444,373.624,332.444,373.997,332.444C374.37,332.444,374.743,332.444,375.117,332.444C375.49,332.444,375.863,332.444,376.236,332.444C376.61,332.444,376.983,332.444,377.356,332.444C377.729,332.444,378.103,332.444,378.476,332.444C378.849,332.444,379.222,332.444,379.596,332.444C379.969,332.444,380.342,332.444,380.715,332.444C381.089,332.444,381.462,332.444,381.835,332.444C382.208,332.444,382.582,332.444,382.955,332.444C383.328,332.444,383.701,332.444,384.075,332.444C384.448,332.444,384.821,332.444,385.194,332.444C385.568,332.444,385.941,332.444,386.314,332.444C386.687,332.444,387.061,332.444,387.434,332.444C387.807,332.444,388.18,332.444,388.554,332.444C388.927,332.444,389.3,332.444,389.673,332.444C390.047,332.444,390.42,332.444,390.793,332.444C391.166,332.444,391.54,332.444,391.913,332.444C392.286,332.444,392.659,332.444,393.033,332.444C393.406,332.444,393.779,332.444,394.152,332.444C394.526,332.444,394.899,332.444,395.272,332.444C395.645,332.444,396.019,332.444,396.392,332.444C396.765,332.444,397.138,332.444,397.512,332.444C397.885,332.444,398.258,332.444,398.631,332.444C399.005,332.444,399.378,332.444,399.751,332.444C400.124,332.444,400.498,332.444,400.871,332.444C401.244,332.444,401.617,332.444,401.991,332.444C402.364,332.444,402.737,332.444,403.11,332.444C403.484,332.444,403.857,332.444,404.23,332.444C404.603,332.444,404.977,332.444,405.35,332.444C405.723,332.444,406.096,332.444,406.47,332.444C406.843,332.444,407.216,332.444,407.589,332.444C407.963,332.444,408.336,332.444,408.709,332.444C409.082,332.444,409.456,332.444,409.829,332.444C410.202,332.444,410.575,332.444,410.949,332.444C411.322,332.444,411.695,332.444,412.068,332.444C412.442,332.444,412.815,332.444,413.188,332.444C413.561,332.444,413.935,332.444,414.308,332.444C414.681,332.444,415.054,332.444,415.428,332.444C415.801,332.444,416.174,332.444,416.547,332.444C416.921,332.444,417.294,332.444,417.667,332.444C418.04,332.444,418.414,332.444,418.787,332.444C419.16,332.444,419.533,332.444,419.907,332.444C420.28,332.444,420.653,332.444,421.026,332.444C421.4,332.444,421.773,332.444,422.146,332.444C422.519,332.444,422.893,332.444,423.266,332.444C423.639,332.444,424.012,332.444,424.386,332.444C424.759,332.444,425.132,332.444,425.505,332.444C425.879,332.444,426.252,332.444,426.625,332.444C426.998,332.444,427.372,332.444,427.745,332.444C428.118,332.444,428.491,332.444,428.865,332.444C429.238,332.444,429.611,332.444,429.984,332.444C430.358,332.444,430.731,332.444,431.104,332.444C431.477,332.444,431.851,332.444,432.224,332.444C432.597,332.444,432.97,332.444,433.344,332.444C433.717,332.444,434.09,332.444,434.463,332.444C434.837,332.444,435.21,332.444,435.583,332.444C435.956,332.444,436.33,332.444,436.703,332.444C437.076,332.444,437.449,332.444,437.823,332.444C438.196,332.444,438.569,332.444,438.942,332.444C439.316,332.444,439.689,332.444,440.062,332.444C440.435,332.444,440.809,332.444,441.182,332.444C441.555,332.444,441.928,332.444,442.302,332.444C442.675,332.444,443.048,332.444,443.421,332.444C443.795,332.444,444.168,332.444,444.541,332.444C444.914,332.444,445.288,332.444,445.661,332.444C446.034,332.444,446.407,332.444,446.781,332.444C447.154,332.444,447.527,332.444,447.9,332.444C448.274,332.444,448.647,332.444,449.02,332.444C449.393,332.444,449.767,332.444,450.14,332.444C450.513,332.444,450.886,332.444,451.26,332.444C451.633,332.444,452.006,332.444,452.379,332.444C452.753,332.444,453.126,332.444,453.499,332.444C453.872,332.444,454.246,332.444,454.619,332.444C454.992,332.444,455.365,332.444,455.739,332.444C456.112,332.444,456.485,332.444,456.858,332.444C457.232,332.444,457.605,332.444,457.978,332.444C458.351,332.444,458.725,332.444,459.098,332.444C459.471,332.444,459.844,332.444,460.218,332.444C460.591,332.444,460.964,332.444,461.337,332.444C461.711,332.444,462.084,332.444,462.457,332.444C462.83,332.444,463.204,332.444,463.577,332.444C463.95,332.444,464.323,332.444,464.697,332.444C465.07,332.444,465.443,332.444,465.816,332.444C466.19,332.444,466.563,332.444,466.936,332.444C467.309,332.444,467.683,332.444,468.056,332.444C468.429,332.444,468.802,332.444,469.176,332.444C469.549,332.444,469.922,332.444,470.295,332.444C470.669,332.444,471.042,332.444,471.415,332.444C471.788,332.444,472.162,332.444,472.535,332.444C472.908,332.444,473.281,332.444,473.655,332.444C474.028,332.444,474.401,332.444,474.774,332.444C475.148,332.444,475.521,332.444,475.894,332.444C476.267,332.444,476.641,332.444,477.014,332.444C477.387,332.444,477.76,332.444,478.134,332.444C478.507,332.444,478.88,332.444,479.253,332.444C479.627,332.444,480,332.444,480.373,332.444C480.747,332.444,481.12,332.444,481.493,332.444C481.866,332.444,482.24,332.444,482.613,332.444C482.986,332.444,483.359,332.444,483.733,332.444C484.106,332.444,484.479,332.444,484.852,332.444C485.226,332.444,485.599,332.444,485.972,332.444C486.345,332.444,486.719,332.444,487.092,332.444C487.465,332.444,487.838,332.444,488.212,332.444C488.585,332.444,488.958,332.444,489.331,332.444C489.705,332.444,490.078,332.444,490.451,332.444C490.824,332.444,491.198,332.444,491.571,332.444C491.944,332.444,492.317,332.444,492.691,332.444C493.064,332.444,493.437,332.444,493.81,332.444C494.184,332.444,494.557,332.444,494.93,332.444C495.303,332.444,495.677,332.444,496.05,332.444C496.423,332.444,496.796,332.444,497.17,332.444C497.543,332.444,497.916,332.444,498.289,332.444C498.663,332.444,499.036,332.444,499.409,332.444C499.782,332.444,500.156,332.444,500.529,332.444C500.902,332.444,501.275,332.444,501.649,332.444C502.022,332.444,502.395,332.444,502.768,332.444C503.142,332.444,503.515,332.444,503.888,332.444C504.261,332.444,504.635,332.444,505.008,332.444C505.381,332.444,505.754,332.444,506.128,332.444C506.501,332.444,506.874,332.444,507.247,332.444C507.621,332.444,507.994,332.444,508.367,332.444C508.74,332.444,509.114,332.444,509.487,332.444C509.86,332.444,510.233,332.444,510.607,332.444C510.98,332.444,511.353,332.444,511.726,332.444C512.1,332.444,512.473,332.444,512.846,332.444C513.219,332.444,513.593,332.444,513.966,332.444C514.339,332.444,514.712,332.444,515.086,332.444C515.459,332.444,515.832,332.444,516.205,332.444C516.579,332.444,516.952,332.444,517.325,332.444C517.698,332.444,518.072,332.444,518.445,332.444C518.818,332.444,519.191,332.444,519.565,332.444C519.938,332.444,520.311,332.444,520.684,332.444C521.058,332.444,521.431,332.444,521.804,332.444C522.177,332.444,522.551,332.444,522.924,332.444C523.297,332.444,523.67,332.444,524.044,332.444C524.417,332.444,524.79,340,525.163,340C525.537,340,525.91,340,526.283,340C526.656,340,527.03,340,527.403,340C527.776,340,528.149,340,528.523,340C528.896,340,529.269,340,529.642,340C530.016,340,530.389,340,530.762,340C531.135,340,531.509,340,531.882,340C532.255,340,532.628,340,533.002,340C533.375,340,533.748,340,534.121,340C534.495,340,534.868,340,535.241,340C535.614,340,535.988,340,536.361,340C536.734,340,537.107,340,537.481,340C537.854,340,538.227,340,538.6,340C538.974,340,539.347,340,539.72,340C540.093,340,540.467,340,540.84,340C541.213,340,541.586,340,541.96,340C542.333,340,542.706,340,543.079,340C543.453,340,543.826,340,544.199,340C544.572,340,544.946,340,545.319,340C545.692,340,546.065,340,546.439,340C546.812,340,547.185,340,547.558,340C547.932,340,548.305,340,548.678,340C549.051,340,549.425,340,549.798,340C550.171,340,550.544,340,550.918,340C551.291,340,551.664,340,552.037,340C552.411,340,552.784,340,553.157,340C553.53,340,553.904,340,554.277,340C554.65,340,555.023,340,555.397,340C555.77,340,556.143,340,556.516,340C556.89,340,557.263,340,557.636,340C558.009,340,558.383,340,558.756,340C559.129,340,559.502,340,559.876,340C560.249,340,560.622,340,560.995,340C561.369,340,561.742,340,562.115,340C562.488,340,562.862,340,563.235,340C563.608,340,563.981,340,564.355,340C564.728,340,565.101,340,565.474,340C565.848,340,566.221,340,566.594,340C566.967,340,567.341,340,567.714,340C568.087,340,568.46,340,568.834,340C569.207,340,569.58,340,569.953,340C570.327,340,570.7,340,571.073,340C571.446,340,571.82,340,572.193,340C572.566,340,572.939,340,573.313,340C573.686,340,574.059,340,574.432,340C574.806,340,575.179,340,575.552,340C575.925,340,576.299,340,576.672,340C577.045,340,577.418,340,577.792,340C578.165,340,578.538,319.852,578.911,309.778C579.285,299.704,579.658,299.704,580.031,279.556C580.404,259.407,580.778,0,581.151,0C581.524,0,581.897,113.333,582.271,113.333C582.644,113.333,583.017,98.222,583.39,98.222C583.764,98.222,584.137,105.778,584.51,113.333C584.883,120.889,585.257,130.963,585.63,143.556C586.003,156.148,586.376,188.889,586.75,188.889C587.123,188.889,587.496,181.333,587.869,181.333C588.243,181.333,588.616,181.333,588.989,181.333C589.362,181.333,589.736,226.667,590.109,226.667C590.482,226.667,590.855,219.111,591.229,219.111C591.602,219.111,591.975,251.852,592.348,264.444C592.722,277.037,593.095,282.074,593.468,294.667C593.841,307.259,594.215,340,594.588,340C594.961,340,595.334,340,595.708,340C596.081,340,596.454,313.556,596.827,302.222C597.201,290.889,597.574,272,597.947,272C598.32,272,598.694,300.963,599.067,309.778C599.44,318.593,599.813,319.852,600.187,324.889C600.56,329.926,600.933,340,601.306,340C601.68,340,602.053,332.444,602.426,332.444C602.799,332.444,603.173,340,603.546,340C603.919,340,604.292,340,604.666,340C605.039,340,605.412,340,605.785,340C606.159,340,606.532,340,606.905,340C607.278,340,607.652,332.444,608.025,332.444C608.398,332.444,608.771,340,609.145,340C609.518,340,609.891,334.963,610.264,332.444C610.638,329.926,611.011,324.889,611.384,324.889C611.757,324.889,612.131,340,612.504,340C612.877,340,613.25,324.889,613.624,324.889C613.997,324.889,614.37,329.926,614.743,332.444C615.117,334.963,615.49,340,615.863,340C616.236,340,616.61,309.778,616.983,309.778C617.356,309.778,617.729,317.333,618.103,317.333C618.476,317.333,618.849,294.667,619.222,294.667C619.596,294.667,619.969,312.296,620.342,317.333C620.715,322.37,621.089,324.889,621.462,324.889C621.835,324.889,622.208,324.889,622.582,324.889C622.955,324.889,623.328,332.444,623.701,332.444C624.075,332.444,624.448,332.444,624.821,332.444C625.194,332.444,625.568,340,625.941,340C626.314,340,626.687,340,627.061,340C627.434,340,627.807,340,628.18,340C628.554,340,628.927,340,629.3,340C629.673,340,630.047,340,630.42,340C630.793,340,631.166,340,631.54,340C631.913,340,632.286,340,632.659,340C633.033,340,633.406,326.148,633.779,317.333C634.152,308.519,634.526,287.111,634.899,287.111C635.272,287.111,635.645,294.667,636.019,294.667C636.392,294.667,636.765,289.63,637.138,279.556C637.512,269.481,637.885,211.556,638.258,196.444C638.631,181.333,639.005,173.778,639.378,173.778C639.751,173.778,640.124,340,640.498,340C640.871,340,641.244,340,641.617,340C641.991,340,642.364,340,642.737,340C643.11,340,643.484,340,643.857,340C644.23,340,644.603,340,644.977,340C645.35,340,645.723,340,646.096,340C646.47,340,646.843,340,647.216,340C647.589,340,647.963,340,648.336,340C648.709,340,649.082,340,649.456,340C649.829,340,650.202,340,650.575,340C650.949,340,651.322,340,651.695,340C652.068,340,652.442,340,652.815,340C653.188,340,653.561,340,653.935,340C654.308,340,654.681,340,655.054,340C655.428,340,655.801,340,656.174,340C656.547,340,656.921,340,657.294,340C657.667,340,658.04,340,658.414,340C658.787,340,659.16,340,659.533,340C659.907,340,660.28,340,660.653,340C661.026,340,661.4,340,661.773,340C662.146,340,662.519,340,662.893,340C663.266,340,663.639,340,664.012,340C664.386,340,664.759,340,665.132,340C665.505,340,665.879,340,666.252,340C666.625,340,666.998,340,667.372,340C667.745,340,668.118,340,668.491,340C668.865,340,669.238,340,669.611,340C669.984,340,670.358,340,670.731,340C671.104,340,671.477,340,671.851,340C672.224,340,672.597,340,672.97,340C673.344,340,673.717,340,674.09,340C674.463,340,674.837,340,675.21,340C675.583,340,675.956,340,676.33,340C676.703,340,677.076,340,677.449,340C677.823,340,678.196,340,678.569,340C678.942,340,679.316,340,679.689,340C680.062,340,680.435,340,680.809,340C681.182,340,681.555,340,681.928,340C682.302,340,682.675,340,683.048,340C683.421,340,683.795,340,684.168,340C684.541,340,684.914,340,685.288,340C685.661,340,686.034,340,686.407,340C686.781,340,687.154,340,687.527,340C687.9,340,688.274,340,688.647,340C689.02,340,689.393,340,689.767,340C690.14,340,690.513,340,690.886,340C691.26,340,691.633,340,692.006,340C692.379,340,692.753,340,693.126,340C693.499,340,693.872,340,694.246,340C694.619,340,694.992,340,695.365,340C695.739,340,696.112,340,696.485,340C696.858,340,697.232,340,697.605,340C697.978,340,698.351,340,698.725,340C699.098,340,699.471,340,699.844,340C700.218,340,700.591,340,700.964,340C701.337,340,701.711,340,702.084,340C702.457,340,702.83,340,703.204,340C703.577,340,703.95,340,704.323,340C704.697,340,705.07,340,705.443,340C705.816,340,706.19,340,706.563,340C706.936,340,707.309,340,707.683,340C708.056,340,708.429,340,708.802,340C709.176,340,709.549,340,709.922,340C710.295,340,710.669,340,711.042,340C711.415,340,711.788,340,712.162,340C712.535,340,712.908,340,713.281,340C713.655,340,714.028,340,714.401,340C714.774,340,715.148,340,715.521,340C715.894,340,716.267,340,716.641,340C717.014,340,717.387,340,717.76,340C718.134,340,718.507,340,718.88,340C719.253,340,719.627,340,720,340"></path><circle class="dot" cx="0" cy="340" r="3" fill="#2563eb"></circle><circle class="dot" cx="1.119751166407465" cy="340" r="3" fill="#2563eb"></circle><circle class="dot" cx="2.23950233281493" cy="340" r="3" fill="#2563eb"></circle><circle class="dot" cx="3.3592534992223952" cy="340" r="3" fill="#2563eb"></circle><circle class="dot" cx="4.47900466562986" cy="340" r="3" fill="#2563eb"></circle><circle class="dot" cx="5.598755832037325" cy="340" r="3" fill="#2563eb"></circle><circle class="dot" cx="6.7185069984447905" cy="340" r="3" fill="#2563eb"></circle><circle class="dot" cx="7.838258164852255" cy="340" r="3" fill="#2563eb"></circle><circle class="dot" cx="8.95800933125972" cy="340" r="3" fill="#2563eb"></circle><circle class="dot" cx="10.077760497667185" cy="340" r="3" fill="#2563eb"></circle><circle class="dot" cx="11.19751166407465" cy="340" r="3" fill="#2563eb"></circle><circle class="dot" cx="12.317262830482115" cy="340" r="3" fill="#2563eb"></circle><circle class="dot" cx="13.437013996889581" cy="340" r="3" fill="#2563eb"></circle><circle class="dot" cx="14.556765163297046" cy="340" r="3" fill="#2563eb"></circle><circle class="dot" cx="15.67651632970451" cy="340" r="3" fill="#2563eb"></circle><circle class="dot" cx="16.796267496111977" cy="340" r="3" fill="#2563eb"></circle><circle class="dot" cx="17.91601866251944" cy="340" r="3" fill="#2563eb"></circle><circle class="dot" cx="19.035769828926906" cy="340" r="3" fill="#2563eb"></circle><circle class="dot" cx="20.15552099533437" cy="340" r="3" fill="#2563eb"></circle><circle class="dot" cx="21.275272161741835" cy="340" r="3" fill="#2563eb"></circle><circle class="dot" cx="22.3950233281493" cy="340" r="3" fill="#2563eb"></circle><circle class="dot" cx="23.514774494556764" cy="340" r="3" fill="#2563eb"></circle><circle class="dot" cx="24.63452566096423" cy="340" r="3" fill="#2563eb"></circle><circle class="dot" cx="25.754276827371694" cy="340" r="3" fill="#2563eb"></circle><circle class="dot" cx="26.874027993779162" cy="340" r="3" fill="#2563eb"></circle><circle class="dot" cx="27.993779160186627" cy="340" r="3" fill="#2563eb"></circle><circle class="dot" cx="29.11353032659409" cy="340" r="3" fill="#2563eb"></circle><circle class="dot" cx="30.233281493001556" cy="340" r="3" fill="#2563eb"></circle><circle class="dot" cx="31.35303265940902" cy="340" r="3" fill="#2563eb"></circle><circle class="dot" cx="32.472783825816485" cy="340" r="3" fill="#2563eb"></circle><circle class="dot" cx="33.59253499222395" cy="340" r="3" fill="#2563eb"></circle><circle class="dot" cx="34.712286158631414" cy="340" r="3" fill="#2563eb"></circle><circle class="dot" cx="35.83203732503888" cy="340" r="3" fill="#2563eb"></circle><circle class="dot" cx="36.95178849144635" cy="340" r="3" fill="#2563eb"></circle><circle class="dot" cx="38.07153965785381" cy="340" r="3" fill="#2563eb"></circle><circle class="dot" cx="39.19129082426128" cy="340" r="3" fill="#2563eb"></circle><circle class="dot" cx="40.31104199066874" cy="340" r="3" fill="#2563eb"></circle><circle class="dot" cx="41.43079315707621" cy="340" r="3" fill="#2563eb"></circle><circle class="dot" cx="42.55054432348367" cy="340" r="3" fill="#2563eb"></circle><circle class="dot" cx="43.67029548989114" cy="340" r="3" fill="#2563eb"></circle><circle class="dot" cx="44.7900466562986" cy="340" r="3" fill="#2563eb"></circle><circle class="dot" cx="45.90979782270607" cy="340" r="3" fill="#2563eb"></circle><circle class="dot" cx="47.02954898911353" cy="340" r="3" fill="#2563eb"></circle><circle class="dot" cx="48.149300155521" cy="340" r="3" fill="#2563eb"></circle><circle class="dot" cx="49.26905132192846" cy="340" r="3" fill="#2563eb"></circle><circle class="dot" cx="50.38880248833593" cy="340" r="3" fill="#2563eb"></circle><circle class="dot" cx="51.50855365474339" cy="340" r="3" fill="#2563eb"></circle><circle class="dot" cx="52.628304821150856" cy="340" r="3" fill="#2563eb"></circle><circle class="dot" cx="53.748055987558324" cy="340" r="3" fill="#2563eb"></circle><circle class="dot" cx="54.867807153965785" cy="340" r="3" fill="#2563eb"></circle><circle class="dot" cx="55.98755832037325" cy="340" r="3" fill="#2563eb"></circle><circle class="dot" cx="57.107309486780714" cy="340" r="3" fill="#2563eb"></circle><circle class="dot" cx="58.22706065318818" cy="340" r="3" fill="#2563eb"></circle><circle class="dot" cx="59.346811819595644" cy="340" r="3" fill="#2563eb"></circle><circle class="dot" cx="60.46656298600311" cy="340" r="3" fill="#2563eb"></circle><circle class="dot" cx="61.58631415241057" cy="340" r="3" fill="#2563eb"></circle><circle class="dot" cx="62.70606531881804" cy="340" r="3" fill="#2563eb"></circle><circle class="dot" cx="63.8258164852255" cy="340" r="3" fill="#2563eb"></circle><circle class="dot" cx="64.94556765163297" cy="340" r="3" fill="#2563eb"></circle><circle class="dot" cx="66.06531881804044" cy="340" r="3" fill="#2563eb"></circle><circle class="dot" cx="67.1850699844479" cy="340" r="3" fill="#2563eb"></circle><circle class="dot" cx="68.30482115085536" cy="340" r="3" fill="#2563eb"></circle><circle class="dot" cx="69.42457231726283" cy="340" r="3" fill="#2563eb"></circle><circle class="dot" cx="70.5443234836703" cy="340" r="3" fill="#2563eb"></circle><circle class="dot" cx="71.66407465007777" cy="340" r="3" fill="#2563eb"></circle><circle class="dot" cx="72.78382581648522" cy="340" r="3" fill="#2563eb"></circle><circle class="dot" cx="73.9035769828927" cy="340" r="3" fill="#2563eb"></circle><circle class="dot" cx="75.02332814930016" cy="340" r="3" fill="#2563eb"></circle><circle class="dot" cx="76.14307931570762" cy="340" r="3" fill="#2563eb"></circle><circle class="dot" cx="77.26283048211508" cy="340" r="3" fill="#2563eb"></circle><circle class="dot" cx="78.38258164852256" cy="340" r="3" fill="#2563eb"></circle><circle class="dot" cx="79.50233281493001" cy="340" r="3" fill="#2563eb"></circle><circle class="dot" cx="80.62208398133748" cy="340" r="3" fill="#2563eb"></circle><circle class="dot" cx="81.74183514774495" cy="340" r="3" fill="#2563eb"></circle><circle class="dot" cx="82.86158631415242" cy="340" r="3" fill="#2563eb"></circle><circle class="dot" cx="83.98133748055987" cy="340" r="3" fill="#2563eb"></circle><circle class="dot" cx="85.10108864696734" cy="340" r="3" fill="#2563eb"></circle><circle class="dot" cx="86.22083981337481" cy="340" r="3" fill="#2563eb"></circle><circle class="dot" cx="87.34059097978228" cy="340" r="3" fill="#2563eb"></circle><circle class="dot" cx="88.46034214618973" cy="340" r="3" fill="#2563eb"></circle><circle class="dot" cx="89.5800933125972" cy="340" r="3" fill="#2563eb"></circle><circle class="dot" cx="90.69984447900467" cy="340" r="3" fill="#2563eb"></circle><circle class="dot" cx="91.81959564541214" cy="340" r="3" fill="#2563eb"></circle><circle class="dot" cx="92.93934681181959" cy="340" r="3" fill="#2563eb"></circle><circle class="dot" cx="94.05909797822706" cy="340" r="3" fill="#2563eb"></circle><circle class="dot" cx="95.17884914463451" cy="340" r="3" fill="#2563eb"></circle><circle class="dot" cx="96.298600311042" cy="340" r="3" fill="#2563eb"></circle><circle class="dot" cx="97.41835147744946" cy="340" r="3" fill="#2563eb"></circle><circle class="dot" cx="98.53810264385692" cy="340" r="3" fill="#2563eb"></circle><circle class="dot" cx="99.65785381026438" cy="340" r="3" fill="#2563eb"></circle><circle class="dot" cx="100.77760497667185" cy="340" r="3" fill="#2563eb"></circle><circle class="dot" cx="101.8973561430793" cy="340" r="3" fill="#2563eb"></circle><circle class="dot" cx="103.01710730948678" cy="340" r="3" fill="#2563eb"></circle><circle class="dot" cx="104.13685847589426" cy="340" r="3" fill="#2563eb"></circle><circle class="dot" cx="105.25660964230171" cy="340" r="3" fill="#2563eb"></circle><circle class="dot" cx="106.37636080870918" cy="340" r="3" fill="#2563eb"></circle><circle class="dot" cx="107.49611197511665" cy="340" r="3" fill="#2563eb"></circle><circle class="dot" cx="108.6158631415241" cy="340" r="3" fill="#2563eb"></circle><circle class="dot" cx="109.73561430793157" cy="340" r="3" fill="#2563eb"></circle><circle class="dot" cx="110.85536547433902" cy="340" r="3" fill="#2563eb"></circle><circle class="dot" cx="111.9751166407465" cy="340" r="3" fill="#2563eb"></circle><circle class="dot" cx="113.09486780715397" cy="340" r="3" fill="#2563eb"></circle><circle class="dot" cx="114.21461897356143" cy="340" r="3" fill="#2563eb"></circle><circle class="dot" cx="115.3343701399689" cy="340" r="3" fill="#2563eb"></circle><circle class="dot" cx="116.45412130637636" cy="340" r="3" fill="#2563eb"></circle><circle class="dot" cx="117.57387247278382" cy="340" r="3" fill="#2563eb"></circle><circle class="dot" cx="118.69362363919129" cy="340" r="3" fill="#2563eb"></circle><circle class="dot" cx="119.81337480559877" cy="340" r="3" fill="#2563eb"></circle><circle class="dot" cx="120.93312597200622" cy="340" r="3" fill="#2563eb"></circle><circle class="dot" cx="122.05287713841369" cy="340" r="3" fill="#2563eb"></circle><circle class="dot" cx="123.17262830482115" cy="340" r="3" fill="#2563eb"></circle><circle class="dot" cx="124.29237947122861" cy="340" r="3" fill="#2563eb"></circle><circle class="dot" cx="125.41213063763608" cy="340" r="3" fill="#2563eb"></circle><circle class="dot" cx="126.53188180404354" cy="340" r="3" fill="#2563eb"></circle><circle class="dot" cx="127.651632970451" cy="340" r="3" fill="#2563eb"></circle><circle class="dot" cx="128.77138413685847" cy="340" r="3" fill="#2563eb"></circle><circle class="dot" cx="129.89113530326594" cy="340" r="3" fill="#2563eb"></circle><circle class="dot" cx="131.0108864696734" cy="340" r="3" fill="#2563eb"></circle><circle class="dot" cx="132.13063763608088" cy="340" r="3" fill="#2563eb"></circle><circle class="dot" cx="133.25038880248832" cy="340" r="3" fill="#2563eb"></circle><circle class="dot" cx="134.3701399688958" cy="340" r="3" fill="#2563eb"></circle><circle class="dot" cx="135.48989113530328" cy="340" r="3" fill="#2563eb"></circle><circle class="dot" cx="136.60964230171072" cy="340" r="3" fill="#2563eb"></circle><circle class="dot" cx="137.7293934681182" cy="340" r="3" fill="#2563eb"></circle><circle class="dot" cx="138.84914463452566" cy="340" r="3" fill="#2563eb"></circle><circle class="dot" cx="139.96889580093313" cy="340" r="3" fill="#2563eb"></circle><circle class="dot" cx="141.0886469673406" cy="340" r="3" fill="#2563eb"></circle><circle class="dot" cx="142.20839813374806" cy="340" r="3" fill="#2563eb"></circle><circle class="dot" cx="143.32814930015553" cy="340" r="3" fill="#2563eb"></circle><circle class="dot" cx="144.447900466563" cy="340" r="3" fill="#2563eb"></circle><circle class="dot" cx="145.56765163297044" cy="340" r="3" fill="#2563eb"></circle><circle class="dot" cx="146.6874027993779" cy="340" r="3" fill="#2563eb"></circle><circle class="dot" cx="147.8071539657854" cy="340" r="3" fill="#2563eb"></circle><circle class="dot" cx="148.92690513219284" cy="340" r="3" fill="#2563eb"></circle><circle class="dot" cx="150.0466562986003" cy="340" r="3" fill="#2563eb"></circle><circle class="dot" cx="151.16640746500778" cy="340" r="3" fill="#2563eb"></circle><circle class="dot" cx="152.28615863141525" cy="340" r="3" fill="#2563eb"></circle><circle class="dot" cx="153.40590979782272" cy="340" r="3" fill="#2563eb"></circle><circle class="dot" cx="154.52566096423016" cy="340" r="3" fill="#2563eb"></circle><circle class="dot" cx="155.64541213063762" cy="340" r="3" fill="#2563eb"></circle><circle class="dot" cx="156.76516329704512" cy="340" r="3" fill="#2563eb"></circle><circle class="dot" cx="157.88491446345256" cy="340" r="3" fill="#2563eb"></circle><circle class="dot" cx="159.00466562986003" cy="340" r="3" fill="#2563eb"></circle><circle class="dot" cx="160.1244167962675" cy="340" r="3" fill="#2563eb"></circle><circle class="dot" cx="161.24416796267496" cy="340" r="3" fill="#2563eb"></circle><circle class="dot" cx="162.36391912908243" cy="340" r="3" fill="#2563eb"></circle><circle class="dot" cx="163.4836702954899" cy="340" r="3" fill="#2563eb"></circle><circle class="dot" cx="164.60342146189734" cy="340" r="3" fill="#2563eb"></circle><circle class="dot" cx="165.72317262830484" cy="340" r="3" fill="#2563eb"></circle><circle class="dot" cx="166.84292379471228" cy="340" r="3" fill="#2563eb"></circle><circle class="dot" cx="167.96267496111975" cy="340" r="3" fill="#2563eb"></circle><circle class="dot" cx="169.0824261275272" cy="340" r="3" fill="#2563eb"></circle><circle class="dot" cx="170.20217729393468" cy="340" r="3" fill="#2563eb"></circle><circle class="dot" cx="171.32192846034215" cy="340" r="3" fill="#2563eb"></circle><circle class="dot" cx="172.44167962674962" cy="340" r="3" fill="#2563eb"></circle><circle class="dot" cx="173.56143079315706" cy="340" r="3" fill="#2563eb"></circle><circle class="dot" cx="174.68118195956455" cy="340" r="3" fill="#2563eb"></circle><circle class="dot" cx="175.80093312597202" cy="90.66666666666664" r="3" fill="#2563eb"></circle><circle class="dot" cx="176.92068429237946" cy="340" r="3" fill="#2563eb"></circle><circle class="dot" cx="178.04043545878693" cy="340" r="3" fill="#2563eb"></circle><circle class="dot" cx="179.1601866251944" cy="340" r="3" fill="#2563eb"></circle><circle class="dot" cx="180.2799377916019" cy="340" r="3" fill="#2563eb"></circle><circle class="dot" cx="181.39968895800934" cy="340" r="3" fill="#2563eb"></circle><circle class="dot" cx="182.51944012441678" cy="340" r="3" fill="#2563eb"></circle><circle class="dot" cx="183.63919129082427" cy="340" r="3" fill="#2563eb"></circle><circle class="dot" cx="184.75894245723174" cy="340" r="3" fill="#2563eb"></circle><circle class="dot" cx="185.87869362363918" cy="340" r="3" fill="#2563eb"></circle><circle class="dot" cx="186.99844479004668" cy="340" r="3" fill="#2563eb"></circle><circle class="dot" cx="188.11819595645412" cy="340" r="3" fill="#2563eb"></circle><circle class="dot" cx="189.23794712286158" cy="340" r="3" fill="#2563eb"></circle><circle class="dot" cx="190.35769828926902" cy="340" r="3" fill="#2563eb"></circle><circle class="dot" cx="191.47744945567652" cy="340" r="3" fill="#2563eb"></circle><circle class="dot" cx="192.597200622084" cy="83.11111111111111" r="3" fill="#2563eb"></circle><circle class="dot" cx="193.71695178849143" cy="340" r="3" fill="#2563eb"></circle><circle class="dot" cx="194.83670295489893" cy="340" r="3" fill="#2563eb"></circle><circle class="dot" cx="195.95645412130636" cy="68.00000000000003" r="3" fill="#2563eb"></circle><circle class="dot" cx="197.07620528771383" cy="90.66666666666664" r="3" fill="#2563eb"></circle><circle class="dot" cx="198.19595645412133" cy="340" r="3" fill="#2563eb"></circle><circle class="dot" cx="199.31570762052877" cy="340" r="3" fill="#2563eb"></circle><circle class="dot" cx="200.4354587869362" cy="340" r="3" fill="#2563eb"></circle><circle class="dot" cx="201.5552099533437" cy="340" r="3" fill="#2563eb"></circle><circle class="dot" cx="202.67496111975117" cy="340" r="3" fill="#2563eb"></circle><circle class="dot" cx="203.7947122861586" cy="83.11111111111111" r="3" fill="#2563eb"></circle><circle class="dot" cx="204.9144634525661" cy="340" r="3" fill="#2563eb"></circle><circle class="dot" cx="206.03421461897355" cy="340" r="3" fill="#2563eb"></circle><circle class="dot" cx="207.15396578538102" cy="340" r="3" fill="#2563eb"></circle><circle class="dot" cx="208.27371695178851" cy="83.11111111111111" r="3" fill="#2563eb"></circle><circle class="dot" cx="209.39346811819595" cy="90.66666666666664" r="3" fill="#2563eb"></circle><circle class="dot" cx="210.51321928460342" cy="98.22222222222221" r="3" fill="#2563eb"></circle><circle class="dot" cx="211.6329704510109" cy="340" r="3" fill="#2563eb"></circle><circle class="dot" cx="212.75272161741836" cy="340" r="3" fill="#2563eb"></circle><circle class="dot" cx="213.8724727838258" cy="340" r="3" fill="#2563eb"></circle><circle class="dot" cx="214.9922239502333" cy="340" r="3" fill="#2563eb"></circle><circle class="dot" cx="216.11197511664076" cy="340" r="3" fill="#2563eb"></circle><circle class="dot" cx="217.2317262830482" cy="340" r="3" fill="#2563eb"></circle><circle class="dot" cx="218.35147744945567" cy="340" r="3" fill="#2563eb"></circle><circle class="dot" cx="219.47122861586314" cy="83.11111111111111" r="3" fill="#2563eb"></circle><circle class="dot" cx="220.5909797822706" cy="90.66666666666664" r="3" fill="#2563eb"></circle><circle class="dot" cx="221.71073094867805" cy="22.6666666666667" r="3" fill="#2563eb"></circle><circle class="dot" cx="222.83048211508554" cy="75.55555555555556" r="3" fill="#2563eb"></circle><circle class="dot" cx="223.950233281493" cy="75.55555555555556" r="3" fill="#2563eb"></circle><circle class="dot" cx="225.06998444790045" cy="340" r="3" fill="#2563eb"></circle><circle class="dot" cx="226.18973561430795" cy="340" r="3" fill="#2563eb"></circle><circle class="dot" cx="227.3094867807154" cy="340" r="3" fill="#2563eb"></circle><circle class="dot" cx="228.42923794712286" cy="340" r="3" fill="#2563eb"></circle><circle class="dot" cx="229.54898911353035" cy="340" r="3" fill="#2563eb"></circle><circle class="dot" cx="230.6687402799378" cy="340" r="3" fill="#2563eb"></circle><circle class="dot" cx="231.78849144634523" cy="340" r="3" fill="#2563eb"></circle><circle class="dot" cx="232.90824261275273" cy="83.11111111111111" r="3" fill="#2563eb"></circle><circle class="dot" cx="234.0279937791602" cy="98.22222222222221" r="3" fill="#2563eb"></circle><circle class="dot" cx="235.14774494556764" cy="83.11111111111111" r="3" fill="#2563eb"></circle><circle class="dot" cx="236.26749611197513" cy="83.11111111111111" r="3" fill="#2563eb"></circle><circle class="dot" cx="237.38724727838257" cy="90.66666666666664" r="3" fill="#2563eb"></circle><circle class="dot" cx="238.50699844479004" cy="90.66666666666664" r="3" fill="#2563eb"></circle><circle class="dot" cx="239.62674961119754" cy="340" r="3" fill="#2563eb"></circle><circle class="dot" cx="240.74650077760498" cy="340" r="3" fill="#2563eb"></circle><circle class="dot" cx="241.86625194401245" cy="340" r="3" fill="#2563eb"></circle><circle class="dot" cx="242.98600311041992" cy="75.55555555555556" r="3" fill="#2563eb"></circle><circle class="dot" cx="244.10575427682738" cy="340" r="3" fill="#2563eb"></circle><circle class="dot" cx="245.22550544323482" cy="340" r="3" fill="#2563eb"></circle><circle class="dot" cx="246.3452566096423" cy="75.55555555555556" r="3" fill="#2563eb"></circle><circle class="dot" cx="247.4650077760498" cy="83.11111111111111" r="3" fill="#2563eb"></circle><circle class="dot" cx="248.58475894245723" cy="340" r="3" fill="#2563eb"></circle><circle class="dot" cx="249.70451010886467" cy="340" r="3" fill="#2563eb"></circle><circle class="dot" cx="250.82426127527216" cy="340" r="3" fill="#2563eb"></circle><circle class="dot" cx="251.94401244167963" cy="340" r="3" fill="#2563eb"></circle><circle class="dot" cx="253.06376360808707" cy="340" r="3" fill="#2563eb"></circle><circle class="dot" cx="254.18351477449457" cy="340" r="3" fill="#2563eb"></circle><circle class="dot" cx="255.303265940902" cy="340" r="3" fill="#2563eb"></circle><circle class="dot" cx="256.4230171073095" cy="340" r="3" fill="#2563eb"></circle><circle class="dot" cx="257.54276827371694" cy="340" r="3" fill="#2563eb"></circle><circle class="dot" cx="258.6625194401244" cy="340" r="3" fill="#2563eb"></circle><circle class="dot" cx="259.7822706065319" cy="340" r="3" fill="#2563eb"></circle><circle class="dot" cx="260.90202177293935" cy="340" r="3" fill="#2563eb"></circle><circle class="dot" cx="262.0217729393468" cy="340" r="3" fill="#2563eb"></circle><circle class="dot" cx="263.1415241057543" cy="340" r="3" fill="#2563eb"></circle><circle class="dot" cx="264.26127527216175" cy="340" r="3" fill="#2563eb"></circle><circle class="dot" cx="265.3810264385692" cy="340" r="3" fill="#2563eb"></circle><circle class="dot" cx="266.50077760497663" cy="340" r="3" fill="#2563eb"></circle><circle class="dot" cx="267.62052877138416" cy="340" r="3" fill="#2563eb"></circle><circle class="dot" cx="268.7402799377916" cy="340" r="3" fill="#2563eb"></circle><circle class="dot" cx="269.86003110419904" cy="340" r="3" fill="#2563eb"></circle><circle class="dot" cx="270.97978227060656" cy="340" r="3" fill="#2563eb"></circle><circle class="dot" cx="272.099533437014" cy="340" r="3" fill="#2563eb"></circle><circle class="dot" cx="273.21928460342144" cy="90.66666666666664" r="3" fill="#2563eb"></circle><circle class="dot" cx="274.3390357698289" cy="340" r="3" fill="#2563eb"></circle><circle class="dot" cx="275.4587869362364" cy="340" r="3" fill="#2563eb"></circle><circle class="dot" cx="276.57853810264385" cy="340" r="3" fill="#2563eb"></circle><circle class="dot" cx="277.6982892690513" cy="340" r="3" fill="#2563eb"></circle><circle class="dot" cx="278.8180404354588" cy="340" r="3" fill="#2563eb"></circle><circle class="dot" cx="279.93779160186625" cy="340" r="3" fill="#2563eb"></circle><circle class="dot" cx="281.0575427682737" cy="340" r="3" fill="#2563eb"></circle><circle class="dot" cx="282.1772939346812" cy="340" r="3" fill="#2563eb"></circle><circle class="dot" cx="283.29704510108866" cy="340" r="3" fill="#2563eb"></circle><circle class="dot" cx="284.4167962674961" cy="340" r="3" fill="#2563eb"></circle><circle class="dot" cx="285.5365474339036" cy="340" r="3" fill="#2563eb"></circle><circle class="dot" cx="286.65629860031106" cy="340" r="3" fill="#2563eb"></circle><circle class="dot" cx="287.7760497667185" cy="340" r="3" fill="#2563eb"></circle><circle class="dot" cx="288.895800933126" cy="340" r="3" fill="#2563eb"></circle><circle class="dot" cx="290.01555209953347" cy="340" r="3" fill="#2563eb"></circle><circle class="dot" cx="291.1353032659409" cy="340" r="3" fill="#2563eb"></circle><circle class="dot" cx="292.2550544323484" cy="340" r="3" fill="#2563eb"></circle><circle class="dot" cx="293.3748055987558" cy="340" r="3" fill="#2563eb"></circle><circle class="dot" cx="294.4945567651633" cy="340" r="3" fill="#2563eb"></circle><circle class="dot" cx="295.6143079315708" cy="340" r="3" fill="#2563eb"></circle><circle class="dot" cx="296.7340590979782" cy="340" r="3" fill="#2563eb"></circle><circle class="dot" cx="297.8538102643857" cy="340" r="3" fill="#2563eb"></circle><circle class="dot" cx="298.97356143079315" cy="340" r="3" fill="#2563eb"></circle><circle class="dot" cx="300.0933125972006" cy="340" r="3" fill="#2563eb"></circle><circle class="dot" cx="301.2130637636081" cy="340" r="3" fill="#2563eb"></circle><circle class="dot" cx="302.33281493001556" cy="340" r="3" fill="#2563eb"></circle><circle class="dot" cx="303.452566096423" cy="340" r="3" fill="#2563eb"></circle><circle class="dot" cx="304.5723172628305" cy="340" r="3" fill="#2563eb"></circle><circle class="dot" cx="305.6920684292379" cy="340" r="3" fill="#2563eb"></circle><circle class="dot" cx="306.81181959564543" cy="340" r="3" fill="#2563eb"></circle><circle class="dot" cx="307.9315707620529" cy="340" r="3" fill="#2563eb"></circle><circle class="dot" cx="309.0513219284603" cy="340" r="3" fill="#2563eb"></circle><circle class="dot" cx="310.17107309486784" cy="90.66666666666664" r="3" fill="#2563eb"></circle><circle class="dot" cx="311.29082426127525" cy="340" r="3" fill="#2563eb"></circle><circle class="dot" cx="312.4105754276827" cy="340" r="3" fill="#2563eb"></circle><circle class="dot" cx="313.53032659409024" cy="68.00000000000003" r="3" fill="#2563eb"></circle><circle class="dot" cx="314.65007776049765" cy="98.22222222222221" r="3" fill="#2563eb"></circle><circle class="dot" cx="315.7698289269051" cy="340" r="3" fill="#2563eb"></circle><circle class="dot" cx="316.8895800933126" cy="340" r="3" fill="#2563eb"></circle><circle class="dot" cx="318.00933125972006" cy="83.11111111111111" r="3" fill="#2563eb"></circle><circle class="dot" cx="319.1290824261275" cy="30.22222222222219" r="3" fill="#2563eb"></circle><circle class="dot" cx="320.248833592535" cy="60.44444444444446" r="3" fill="#2563eb"></circle><circle class="dot" cx="321.36858475894246" cy="68.00000000000003" r="3" fill="#2563eb"></circle><circle class="dot" cx="322.48833592534993" cy="90.66666666666664" r="3" fill="#2563eb"></circle><circle class="dot" cx="323.6080870917574" cy="83.11111111111111" r="3" fill="#2563eb"></circle><circle class="dot" cx="324.72783825816487" cy="340" r="3" fill="#2563eb"></circle><circle class="dot" cx="325.84758942457233" cy="83.11111111111111" r="3" fill="#2563eb"></circle><circle class="dot" cx="326.9673405909798" cy="98.22222222222221" r="3" fill="#2563eb"></circle><circle class="dot" cx="328.08709175738727" cy="98.22222222222221" r="3" fill="#2563eb"></circle><circle class="dot" cx="329.2068429237947" cy="332.44444444444446" r="3" fill="#2563eb"></circle><circle class="dot" cx="330.3265940902022" cy="332.44444444444446" r="3" fill="#2563eb"></circle><circle class="dot" cx="331.4463452566097" cy="52.88888888888889" r="3" fill="#2563eb"></circle><circle class="dot" cx="332.5660964230171" cy="75.55555555555556" r="3" fill="#2563eb"></circle><circle class="dot" cx="333.68584758942455" cy="68.00000000000003" r="3" fill="#2563eb"></circle><circle class="dot" cx="334.805598755832" cy="332.44444444444446" r="3" fill="#2563eb"></circle><circle class="dot" cx="335.9253499222395" cy="332.44444444444446" r="3" fill="#2563eb"></circle><circle class="dot" cx="337.04510108864696" cy="332.44444444444446" r="3" fill="#2563eb"></circle><circle class="dot" cx="338.1648522550544" cy="332.44444444444446" r="3" fill="#2563eb"></circle><circle class="dot" cx="339.2846034214619" cy="332.44444444444446" r="3" fill="#2563eb"></circle><circle class="dot" cx="340.40435458786936" cy="332.44444444444446" r="3" fill="#2563eb"></circle><circle class="dot" cx="341.52410575427683" cy="332.44444444444446" r="3" fill="#2563eb"></circle><circle class="dot" cx="342.6438569206843" cy="332.44444444444446" r="3" fill="#2563eb"></circle><circle class="dot" cx="343.76360808709177" cy="332.44444444444446" r="3" fill="#2563eb"></circle><circle class="dot" cx="344.88335925349924" cy="332.44444444444446" r="3" fill="#2563eb"></circle><circle class="dot" cx="346.0031104199067" cy="332.44444444444446" r="3" fill="#2563eb"></circle><circle class="dot" cx="347.1228615863141" cy="332.44444444444446" r="3" fill="#2563eb"></circle><circle class="dot" cx="348.24261275272164" cy="332.44444444444446" r="3" fill="#2563eb"></circle><circle class="dot" cx="349.3623639191291" cy="332.44444444444446" r="3" fill="#2563eb"></circle><circle class="dot" cx="350.4821150855365" cy="332.44444444444446" r="3" fill="#2563eb"></circle><circle class="dot" cx="351.60186625194405" cy="332.44444444444446" r="3" fill="#2563eb"></circle><circle class="dot" cx="352.72161741835146" cy="52.88888888888889" r="3" fill="#2563eb"></circle><circle class="dot" cx="353.8413685847589" cy="332.44444444444446" r="3" fill="#2563eb"></circle><circle class="dot" cx="354.96111975116645" cy="332.44444444444446" r="3" fill="#2563eb"></circle><circle class="dot" cx="356.08087091757386" cy="332.44444444444446" r="3" fill="#2563eb"></circle><circle class="dot" cx="357.20062208398133" cy="68.00000000000003" r="3" fill="#2563eb"></circle><circle class="dot" cx="358.3203732503888" cy="98.22222222222221" r="3" fill="#2563eb"></circle><circle class="dot" cx="359.44012441679627" cy="332.44444444444446" r="3" fill="#2563eb"></circle><circle class="dot" cx="360.5598755832038" cy="332.44444444444446" r="3" fill="#2563eb"></circle><circle class="dot" cx="361.6796267496112" cy="332.44444444444446" r="3" fill="#2563eb"></circle><circle class="dot" cx="362.79937791601867" cy="332.44444444444446" r="3" fill="#2563eb"></circle><circle class="dot" cx="363.91912908242614" cy="332.44444444444446" r="3" fill="#2563eb"></circle><circle class="dot" cx="365.03888024883355" cy="332.44444444444446" r="3" fill="#2563eb"></circle><circle class="dot" cx="366.158631415241" cy="332.44444444444446" r="3" fill="#2563eb"></circle><circle class="dot" cx="367.27838258164854" cy="332.44444444444446" r="3" fill="#2563eb"></circle><circle class="dot" cx="368.398133748056" cy="332.44444444444446" r="3" fill="#2563eb"></circle><circle class="dot" cx="369.5178849144635" cy="332.44444444444446" r="3" fill="#2563eb"></circle><circle class="dot" cx="370.6376360808709" cy="332.44444444444446" r="3" fill="#2563eb"></circle><circle class="dot" cx="371.75738724727836" cy="332.44444444444446" r="3" fill="#2563eb"></circle><circle class="dot" cx="372.8771384136858" cy="332.44444444444446" r="3" fill="#2563eb"></circle><circle class="dot" cx="373.99688958009335" cy="332.44444444444446" r="3" fill="#2563eb"></circle><circle class="dot" cx="375.1166407465008" cy="332.44444444444446" r="3" fill="#2563eb"></circle><circle class="dot" cx="376.23639191290823" cy="332.44444444444446" r="3" fill="#2563eb"></circle><circle class="dot" cx="377.3561430793157" cy="332.44444444444446" r="3" fill="#2563eb"></circle><circle class="dot" cx="378.47589424572317" cy="332.44444444444446" r="3" fill="#2563eb"></circle><circle class="dot" cx="379.59564541213064" cy="332.44444444444446" r="3" fill="#2563eb"></circle><circle class="dot" cx="380.71539657853805" cy="332.44444444444446" r="3" fill="#2563eb"></circle><circle class="dot" cx="381.8351477449456" cy="332.44444444444446" r="3" fill="#2563eb"></circle><circle class="dot" cx="382.95489891135304" cy="332.44444444444446" r="3" fill="#2563eb"></circle><circle class="dot" cx="384.0746500777605" cy="332.44444444444446" r="3" fill="#2563eb"></circle><circle class="dot" cx="385.194401244168" cy="332.44444444444446" r="3" fill="#2563eb"></circle><circle class="dot" cx="386.3141524105754" cy="332.44444444444446" r="3" fill="#2563eb"></circle><circle class="dot" cx="387.43390357698286" cy="332.44444444444446" r="3" fill="#2563eb"></circle><circle class="dot" cx="388.5536547433904" cy="332.44444444444446" r="3" fill="#2563eb"></circle><circle class="dot" cx="389.67340590979785" cy="332.44444444444446" r="3" fill="#2563eb"></circle><circle class="dot" cx="390.7931570762053" cy="332.44444444444446" r="3" fill="#2563eb"></circle><circle class="dot" cx="391.91290824261273" cy="332.44444444444446" r="3" fill="#2563eb"></circle><circle class="dot" cx="393.0326594090202" cy="332.44444444444446" r="3" fill="#2563eb"></circle><circle class="dot" cx="394.15241057542767" cy="332.44444444444446" r="3" fill="#2563eb"></circle><circle class="dot" cx="395.2721617418352" cy="332.44444444444446" r="3" fill="#2563eb"></circle><circle class="dot" cx="396.39191290824266" cy="332.44444444444446" r="3" fill="#2563eb"></circle><circle class="dot" cx="397.51166407465007" cy="332.44444444444446" r="3" fill="#2563eb"></circle><circle class="dot" cx="398.63141524105754" cy="332.44444444444446" r="3" fill="#2563eb"></circle><circle class="dot" cx="399.751166407465" cy="332.44444444444446" r="3" fill="#2563eb"></circle><circle class="dot" cx="400.8709175738724" cy="332.44444444444446" r="3" fill="#2563eb"></circle><circle class="dot" cx="401.99066874028" cy="332.44444444444446" r="3" fill="#2563eb"></circle><circle class="dot" cx="403.1104199066874" cy="332.44444444444446" r="3" fill="#2563eb"></circle><circle class="dot" cx="404.2301710730949" cy="332.44444444444446" r="3" fill="#2563eb"></circle><circle class="dot" cx="405.34992223950235" cy="332.44444444444446" r="3" fill="#2563eb"></circle><circle class="dot" cx="406.46967340590976" cy="332.44444444444446" r="3" fill="#2563eb"></circle><circle class="dot" cx="407.5894245723172" cy="332.44444444444446" r="3" fill="#2563eb"></circle><circle class="dot" cx="408.7091757387247" cy="332.44444444444446" r="3" fill="#2563eb"></circle><circle class="dot" cx="409.8289269051322" cy="332.44444444444446" r="3" fill="#2563eb"></circle><circle class="dot" cx="410.9486780715397" cy="332.44444444444446" r="3" fill="#2563eb"></circle><circle class="dot" cx="412.0684292379471" cy="332.44444444444446" r="3" fill="#2563eb"></circle><circle class="dot" cx="413.18818040435457" cy="332.44444444444446" r="3" fill="#2563eb"></circle><circle class="dot" cx="414.30793157076204" cy="332.44444444444446" r="3" fill="#2563eb"></circle><circle class="dot" cx="415.4276827371695" cy="332.44444444444446" r="3" fill="#2563eb"></circle><circle class="dot" cx="416.54743390357703" cy="332.44444444444446" r="3" fill="#2563eb"></circle><circle class="dot" cx="417.66718506998444" cy="332.44444444444446" r="3" fill="#2563eb"></circle><circle class="dot" cx="418.7869362363919" cy="332.44444444444446" r="3" fill="#2563eb"></circle><circle class="dot" cx="419.9066874027994" cy="332.44444444444446" r="3" fill="#2563eb"></circle><circle class="dot" cx="421.02643856920685" cy="332.44444444444446" r="3" fill="#2563eb"></circle><circle class="dot" cx="422.14618973561426" cy="332.44444444444446" r="3" fill="#2563eb"></circle><circle class="dot" cx="423.2659409020218" cy="332.44444444444446" r="3" fill="#2563eb"></circle><circle class="dot" cx="424.38569206842925" cy="332.44444444444446" r="3" fill="#2563eb"></circle><circle class="dot" cx="425.5054432348367" cy="332.44444444444446" r="3" fill="#2563eb"></circle><circle class="dot" cx="426.6251944012442" cy="332.44444444444446" r="3" fill="#2563eb"></circle><circle class="dot" cx="427.7449455676516" cy="332.44444444444446" r="3" fill="#2563eb"></circle><circle class="dot" cx="428.86469673405907" cy="332.44444444444446" r="3" fill="#2563eb"></circle><circle class="dot" cx="429.9844479004666" cy="332.44444444444446" r="3" fill="#2563eb"></circle><circle class="dot" cx="431.10419906687406" cy="332.44444444444446" r="3" fill="#2563eb"></circle><circle class="dot" cx="432.2239502332815" cy="332.44444444444446" r="3" fill="#2563eb"></circle><circle class="dot" cx="433.34370139968894" cy="332.44444444444446" r="3" fill="#2563eb"></circle><circle class="dot" cx="434.4634525660964" cy="332.44444444444446" r="3" fill="#2563eb"></circle><circle class="dot" cx="435.5832037325039" cy="332.44444444444446" r="3" fill="#2563eb"></circle><circle class="dot" cx="436.70295489891134" cy="332.44444444444446" r="3" fill="#2563eb"></circle><circle class="dot" cx="437.82270606531887" cy="332.44444444444446" r="3" fill="#2563eb"></circle><circle class="dot" cx="438.9424572317263" cy="332.44444444444446" r="3" fill="#2563eb"></circle><circle class="dot" cx="440.06220839813375" cy="332.44444444444446" r="3" fill="#2563eb"></circle><circle class="dot" cx="441.1819595645412" cy="332.44444444444446" r="3" fill="#2563eb"></circle><circle class="dot" cx="442.3017107309487" cy="332.44444444444446" r="3" fill="#2563eb"></circle><circle class="dot" cx="443.4214618973561" cy="332.44444444444446" r="3" fill="#2563eb"></circle><circle class="dot" cx="444.5412130637636" cy="332.44444444444446" r="3" fill="#2563eb"></circle><circle class="dot" cx="445.6609642301711" cy="332.44444444444446" r="3" fill="#2563eb"></circle><circle class="dot" cx="446.78071539657856" cy="332.44444444444446" r="3" fill="#2563eb"></circle><circle class="dot" cx="447.900466562986" cy="332.44444444444446" r="3" fill="#2563eb"></circle><circle class="dot" cx="449.02021772939344" cy="332.44444444444446" r="3" fill="#2563eb"></circle><circle class="dot" cx="450.1399688958009" cy="332.44444444444446" r="3" fill="#2563eb"></circle><circle class="dot" cx="451.25972006220843" cy="332.44444444444446" r="3" fill="#2563eb"></circle><circle class="dot" cx="452.3794712286159" cy="332.44444444444446" r="3" fill="#2563eb"></circle><circle class="dot" cx="453.49922239502337" cy="332.44444444444446" r="3" fill="#2563eb"></circle><circle class="dot" cx="454.6189735614308" cy="332.44444444444446" r="3" fill="#2563eb"></circle><circle class="dot" cx="455.73872472783825" cy="332.44444444444446" r="3" fill="#2563eb"></circle><circle class="dot" cx="456.8584758942457" cy="332.44444444444446" r="3" fill="#2563eb"></circle><circle class="dot" cx="457.97822706065324" cy="332.44444444444446" r="3" fill="#2563eb"></circle><circle class="dot" cx="459.0979782270607" cy="332.44444444444446" r="3" fill="#2563eb"></circle><circle class="dot" cx="460.2177293934681" cy="332.44444444444446" r="3" fill="#2563eb"></circle><circle class="dot" cx="461.3374805598756" cy="332.44444444444446" r="3" fill="#2563eb"></circle><circle class="dot" cx="462.45723172628306" cy="332.44444444444446" r="3" fill="#2563eb"></circle><circle class="dot" cx="463.57698289269047" cy="332.44444444444446" r="3" fill="#2563eb"></circle><circle class="dot" cx="464.69673405909793" cy="332.44444444444446" r="3" fill="#2563eb"></circle><circle class="dot" cx="465.81648522550546" cy="332.44444444444446" r="3" fill="#2563eb"></circle><circle class="dot" cx="466.9362363919129" cy="332.44444444444446" r="3" fill="#2563eb"></circle><circle class="dot" cx="468.0559875583204" cy="332.44444444444446" r="3" fill="#2563eb"></circle><circle class="dot" cx="469.1757387247278" cy="332.44444444444446" r="3" fill="#2563eb"></circle><circle class="dot" cx="470.2954898911353" cy="332.44444444444446" r="3" fill="#2563eb"></circle><circle class="dot" cx="471.41524105754274" cy="332.44444444444446" r="3" fill="#2563eb"></circle><circle class="dot" cx="472.53499222395027" cy="332.44444444444446" r="3" fill="#2563eb"></circle><circle class="dot" cx="473.65474339035774" cy="332.44444444444446" r="3" fill="#2563eb"></circle><circle class="dot" cx="474.77449455676515" cy="332.44444444444446" r="3" fill="#2563eb"></circle><circle class="dot" cx="475.8942457231726" cy="332.44444444444446" r="3" fill="#2563eb"></circle><circle class="dot" cx="477.0139968895801" cy="332.44444444444446" r="3" fill="#2563eb"></circle><circle class="dot" cx="478.13374805598755" cy="332.44444444444446" r="3" fill="#2563eb"></circle><circle class="dot" cx="479.2534992223951" cy="332.44444444444446" r="3" fill="#2563eb"></circle><circle class="dot" cx="480.3732503888025" cy="332.44444444444446" r="3" fill="#2563eb"></circle><circle class="dot" cx="481.49300155520996" cy="332.44444444444446" r="3" fill="#2563eb"></circle><circle class="dot" cx="482.6127527216174" cy="332.44444444444446" r="3" fill="#2563eb"></circle><circle class="dot" cx="483.7325038880249" cy="332.44444444444446" r="3" fill="#2563eb"></circle><circle class="dot" cx="484.8522550544323" cy="332.44444444444446" r="3" fill="#2563eb"></circle><circle class="dot" cx="485.97200622083983" cy="332.44444444444446" r="3" fill="#2563eb"></circle><circle class="dot" cx="487.0917573872473" cy="332.44444444444446" r="3" fill="#2563eb"></circle><circle class="dot" cx="488.21150855365477" cy="332.44444444444446" r="3" fill="#2563eb"></circle><circle class="dot" cx="489.33125972006223" cy="332.44444444444446" r="3" fill="#2563eb"></circle><circle class="dot" cx="490.45101088646965" cy="332.44444444444446" r="3" fill="#2563eb"></circle><circle class="dot" cx="491.5707620528771" cy="332.44444444444446" r="3" fill="#2563eb"></circle><circle class="dot" cx="492.6905132192846" cy="332.44444444444446" r="3" fill="#2563eb"></circle><circle class="dot" cx="493.8102643856921" cy="332.44444444444446" r="3" fill="#2563eb"></circle><circle class="dot" cx="494.9300155520996" cy="332.44444444444446" r="3" fill="#2563eb"></circle><circle class="dot" cx="496.049766718507" cy="332.44444444444446" r="3" fill="#2563eb"></circle><circle class="dot" cx="497.16951788491446" cy="332.44444444444446" r="3" fill="#2563eb"></circle><circle class="dot" cx="498.2892690513219" cy="332.44444444444446" r="3" fill="#2563eb"></circle><circle class="dot" cx="499.40902021772933" cy="332.44444444444446" r="3" fill="#2563eb"></circle><circle class="dot" cx="500.5287713841369" cy="332.44444444444446" r="3" fill="#2563eb"></circle><circle class="dot" cx="501.6485225505443" cy="332.44444444444446" r="3" fill="#2563eb"></circle><circle class="dot" cx="502.7682737169518" cy="332.44444444444446" r="3" fill="#2563eb"></circle><circle class="dot" cx="503.88802488335926" cy="332.44444444444446" r="3" fill="#2563eb"></circle><circle class="dot" cx="505.0077760497667" cy="332.44444444444446" r="3" fill="#2563eb"></circle><circle class="dot" cx="506.12752721617414" cy="332.44444444444446" r="3" fill="#2563eb"></circle><circle class="dot" cx="507.24727838258167" cy="332.44444444444446" r="3" fill="#2563eb"></circle><circle class="dot" cx="508.36702954898914" cy="332.44444444444446" r="3" fill="#2563eb"></circle><circle class="dot" cx="509.4867807153966" cy="332.44444444444446" r="3" fill="#2563eb"></circle><circle class="dot" cx="510.606531881804" cy="332.44444444444446" r="3" fill="#2563eb"></circle><circle class="dot" cx="511.7262830482115" cy="332.44444444444446" r="3" fill="#2563eb"></circle><circle class="dot" cx="512.846034214619" cy="332.44444444444446" r="3" fill="#2563eb"></circle><circle class="dot" cx="513.9657853810264" cy="332.44444444444446" r="3" fill="#2563eb"></circle><circle class="dot" cx="515.0855365474339" cy="332.44444444444446" r="3" fill="#2563eb"></circle><circle class="dot" cx="516.2052877138414" cy="332.44444444444446" r="3" fill="#2563eb"></circle><circle class="dot" cx="517.3250388802488" cy="332.44444444444446" r="3" fill="#2563eb"></circle><circle class="dot" cx="518.4447900466563" cy="332.44444444444446" r="3" fill="#2563eb"></circle><circle class="dot" cx="519.5645412130638" cy="332.44444444444446" r="3" fill="#2563eb"></circle><circle class="dot" cx="520.6842923794712" cy="332.44444444444446" r="3" fill="#2563eb"></circle><circle class="dot" cx="521.8040435458787" cy="332.44444444444446" r="3" fill="#2563eb"></circle><circle class="dot" cx="522.9237947122862" cy="332.44444444444446" r="3" fill="#2563eb"></circle><circle class="dot" cx="524.0435458786936" cy="332.44444444444446" r="3" fill="#2563eb"></circle><circle class="dot" cx="525.1632970451011" cy="340" r="3" fill="#2563eb"></circle><circle class="dot" cx="526.2830482115086" cy="340" r="3" fill="#2563eb"></circle><circle class="dot" cx="527.4027993779159" cy="340" r="3" fill="#2563eb"></circle><circle class="dot" cx="528.5225505443235" cy="340" r="3" fill="#2563eb"></circle><circle class="dot" cx="529.642301710731" cy="340" r="3" fill="#2563eb"></circle><circle class="dot" cx="530.7620528771384" cy="340" r="3" fill="#2563eb"></circle><circle class="dot" cx="531.8818040435459" cy="340" r="3" fill="#2563eb"></circle><circle class="dot" cx="533.0015552099533" cy="340" r="3" fill="#2563eb"></circle><circle class="dot" cx="534.1213063763607" cy="340" r="3" fill="#2563eb"></circle><circle class="dot" cx="535.2410575427683" cy="340" r="3" fill="#2563eb"></circle><circle class="dot" cx="536.3608087091758" cy="340" r="3" fill="#2563eb"></circle><circle class="dot" cx="537.4805598755833" cy="340" r="3" fill="#2563eb"></circle><circle class="dot" cx="538.6003110419906" cy="340" r="3" fill="#2563eb"></circle><circle class="dot" cx="539.7200622083981" cy="340" r="3" fill="#2563eb"></circle><circle class="dot" cx="540.8398133748055" cy="340" r="3" fill="#2563eb"></circle><circle class="dot" cx="541.9595645412131" cy="340" r="3" fill="#2563eb"></circle><circle class="dot" cx="543.0793157076206" cy="340" r="3" fill="#2563eb"></circle><circle class="dot" cx="544.199066874028" cy="340" r="3" fill="#2563eb"></circle><circle class="dot" cx="545.3188180404354" cy="340" r="3" fill="#2563eb"></circle><circle class="dot" cx="546.4385692068429" cy="340" r="3" fill="#2563eb"></circle><circle class="dot" cx="547.5583203732504" cy="340" r="3" fill="#2563eb"></circle><circle class="dot" cx="548.6780715396578" cy="340" r="3" fill="#2563eb"></circle><circle class="dot" cx="549.7978227060653" cy="340" r="3" fill="#2563eb"></circle><circle class="dot" cx="550.9175738724728" cy="340" r="3" fill="#2563eb"></circle><circle class="dot" cx="552.0373250388802" cy="340" r="3" fill="#2563eb"></circle><circle class="dot" cx="553.1570762052877" cy="340" r="3" fill="#2563eb"></circle><circle class="dot" cx="554.2768273716952" cy="340" r="3" fill="#2563eb"></circle><circle class="dot" cx="555.3965785381026" cy="340" r="3" fill="#2563eb"></circle><circle class="dot" cx="556.5163297045101" cy="340" r="3" fill="#2563eb"></circle><circle class="dot" cx="557.6360808709176" cy="340" r="3" fill="#2563eb"></circle><circle class="dot" cx="558.755832037325" cy="340" r="3" fill="#2563eb"></circle><circle class="dot" cx="559.8755832037325" cy="340" r="3" fill="#2563eb"></circle><circle class="dot" cx="560.99533437014" cy="340" r="3" fill="#2563eb"></circle><circle class="dot" cx="562.1150855365474" cy="340" r="3" fill="#2563eb"></circle><circle class="dot" cx="563.2348367029549" cy="340" r="3" fill="#2563eb"></circle><circle class="dot" cx="564.3545878693624" cy="340" r="3" fill="#2563eb"></circle><circle class="dot" cx="565.4743390357698" cy="340" r="3" fill="#2563eb"></circle><circle class="dot" cx="566.5940902021773" cy="340" r="3" fill="#2563eb"></circle><circle class="dot" cx="567.7138413685848" cy="340" r="3" fill="#2563eb"></circle><circle class="dot" cx="568.8335925349922" cy="340" r="3" fill="#2563eb"></circle><circle class="dot" cx="569.9533437013997" cy="340" r="3" fill="#2563eb"></circle><circle class="dot" cx="571.0730948678072" cy="340" r="3" fill="#2563eb"></circle><circle class="dot" cx="572.1928460342147" cy="340" r="3" fill="#2563eb"></circle><circle class="dot" cx="573.3125972006221" cy="340" r="3" fill="#2563eb"></circle><circle class="dot" cx="574.4323483670296" cy="340" r="3" fill="#2563eb"></circle><circle class="dot" cx="575.552099533437" cy="340" r="3" fill="#2563eb"></circle><circle class="dot" cx="576.6718506998444" cy="340" r="3" fill="#2563eb"></circle><circle class="dot" cx="577.791601866252" cy="340" r="3" fill="#2563eb"></circle><circle class="dot" cx="578.9113530326595" cy="309.77777777777777" r="3" fill="#2563eb"></circle><circle class="dot" cx="580.0311041990669" cy="279.55555555555554" r="3" fill="#2563eb"></circle><circle class="dot" cx="581.1508553654743" cy="0" r="3" fill="#2563eb"></circle><circle class="dot" cx="582.2706065318818" cy="113.33333333333334" r="3" fill="#2563eb"></circle><circle class="dot" cx="583.3903576982892" cy="98.22222222222221" r="3" fill="#2563eb"></circle><circle class="dot" cx="584.5101088646968" cy="113.33333333333334" r="3" fill="#2563eb"></circle><circle class="dot" cx="585.6298600311043" cy="143.55555555555554" r="3" fill="#2563eb"></circle><circle class="dot" cx="586.7496111975116" cy="188.88888888888889" r="3" fill="#2563eb"></circle><circle class="dot" cx="587.8693623639191" cy="181.33333333333334" r="3" fill="#2563eb"></circle><circle class="dot" cx="588.9891135303266" cy="181.33333333333334" r="3" fill="#2563eb"></circle><circle class="dot" cx="590.108864696734" cy="226.66666666666666" r="3" fill="#2563eb"></circle><circle class="dot" cx="591.2286158631416" cy="219.11111111111111" r="3" fill="#2563eb"></circle><circle class="dot" cx="592.348367029549" cy="264.44444444444446" r="3" fill="#2563eb"></circle><circle class="dot" cx="593.4681181959564" cy="294.6666666666667" r="3" fill="#2563eb"></circle><circle class="dot" cx="594.5878693623639" cy="340" r="3" fill="#2563eb"></circle><circle class="dot" cx="595.7076205287714" cy="340" r="3" fill="#2563eb"></circle><circle class="dot" cx="596.8273716951788" cy="302.22222222222223" r="3" fill="#2563eb"></circle><circle class="dot" cx="597.9471228615863" cy="272" r="3" fill="#2563eb"></circle><circle class="dot" cx="599.0668740279938" cy="309.77777777777777" r="3" fill="#2563eb"></circle><circle class="dot" cx="600.1866251944012" cy="324.88888888888886" r="3" fill="#2563eb"></circle><circle class="dot" cx="601.3063763608087" cy="340" r="3" fill="#2563eb"></circle><circle class="dot" cx="602.4261275272162" cy="332.44444444444446" r="3" fill="#2563eb"></circle><circle class="dot" cx="603.5458786936236" cy="340" r="3" fill="#2563eb"></circle><circle class="dot" cx="604.6656298600311" cy="340" r="3" fill="#2563eb"></circle><circle class="dot" cx="605.7853810264386" cy="340" r="3" fill="#2563eb"></circle><circle class="dot" cx="606.905132192846" cy="340" r="3" fill="#2563eb"></circle><circle class="dot" cx="608.0248833592535" cy="332.44444444444446" r="3" fill="#2563eb"></circle><circle class="dot" cx="609.144634525661" cy="340" r="3" fill="#2563eb"></circle><circle class="dot" cx="610.2643856920685" cy="332.44444444444446" r="3" fill="#2563eb"></circle><circle class="dot" cx="611.3841368584758" cy="324.88888888888886" r="3" fill="#2563eb"></circle><circle class="dot" cx="612.5038880248834" cy="340" r="3" fill="#2563eb"></circle><circle class="dot" cx="613.6236391912909" cy="324.88888888888886" r="3" fill="#2563eb"></circle><circle class="dot" cx="614.7433903576983" cy="332.44444444444446" r="3" fill="#2563eb"></circle><circle class="dot" cx="615.8631415241058" cy="340" r="3" fill="#2563eb"></circle><circle class="dot" cx="616.9828926905132" cy="309.77777777777777" r="3" fill="#2563eb"></circle><circle class="dot" cx="618.1026438569206" cy="317.3333333333333" r="3" fill="#2563eb"></circle><circle class="dot" cx="619.2223950233282" cy="294.6666666666667" r="3" fill="#2563eb"></circle><circle class="dot" cx="620.3421461897357" cy="317.3333333333333" r="3" fill="#2563eb"></circle><circle class="dot" cx="621.4618973561431" cy="324.88888888888886" r="3" fill="#2563eb"></circle><circle class="dot" cx="622.5816485225505" cy="324.88888888888886" r="3" fill="#2563eb"></circle><circle class="dot" cx="623.701399688958" cy="332.44444444444446" r="3" fill="#2563eb"></circle><circle class="dot" cx="624.8211508553654" cy="332.44444444444446" r="3" fill="#2563eb"></circle><circle class="dot" cx="625.940902021773" cy="340" r="3" fill="#2563eb"></circle><circle class="dot" cx="627.0606531881805" cy="340" r="3" fill="#2563eb"></circle><circle class="dot" cx="628.1804043545878" cy="340" r="3" fill="#2563eb"></circle><circle class="dot" cx="629.3001555209953" cy="340" r="3" fill="#2563eb"></circle><circle class="dot" cx="630.4199066874028" cy="340" r="3" fill="#2563eb"></circle><circle class="dot" cx="631.5396578538102" cy="340" r="3" fill="#2563eb"></circle><circle class="dot" cx="632.6594090202178" cy="340" r="3" fill="#2563eb"></circle><circle class="dot" cx="633.7791601866252" cy="317.3333333333333" r="3" fill="#2563eb"></circle><circle class="dot" cx="634.8989113530326" cy="287.1111111111111" r="3" fill="#2563eb"></circle><circle class="dot" cx="636.0186625194401" cy="294.6666666666667" r="3" fill="#2563eb"></circle><circle class="dot" cx="637.1384136858476" cy="279.55555555555554" r="3" fill="#2563eb"></circle><circle class="dot" cx="638.258164852255" cy="196.44444444444443" r="3" fill="#2563eb"></circle><circle class="dot" cx="639.3779160186625" cy="173.77777777777777" r="3" fill="#2563eb"></circle><circle class="dot" cx="640.49766718507" cy="340" r="3" fill="#2563eb"></circle><circle class="dot" cx="641.6174183514775" cy="340" r="3" fill="#2563eb"></circle><circle class="dot" cx="642.7371695178849" cy="340" r="3" fill="#2563eb"></circle><circle class="dot" cx="643.8569206842924" cy="340" r="3" fill="#2563eb"></circle><circle class="dot" cx="644.9766718506999" cy="340" r="3" fill="#2563eb"></circle><circle class="dot" cx="646.0964230171073" cy="340" r="3" fill="#2563eb"></circle><circle class="dot" cx="647.2161741835148" cy="340" r="3" fill="#2563eb"></circle><circle class="dot" cx="648.3359253499223" cy="340" r="3" fill="#2563eb"></circle><circle class="dot" cx="649.4556765163297" cy="340" r="3" fill="#2563eb"></circle><circle class="dot" cx="650.5754276827372" cy="340" r="3" fill="#2563eb"></circle><circle class="dot" cx="651.6951788491447" cy="340" r="3" fill="#2563eb"></circle><circle class="dot" cx="652.814930015552" cy="340" r="3" fill="#2563eb"></circle><circle class="dot" cx="653.9346811819596" cy="340" r="3" fill="#2563eb"></circle><circle class="dot" cx="655.0544323483671" cy="340" r="3" fill="#2563eb"></circle><circle class="dot" cx="656.1741835147745" cy="340" r="3" fill="#2563eb"></circle><circle class="dot" cx="657.293934681182" cy="340" r="3" fill="#2563eb"></circle><circle class="dot" cx="658.4136858475894" cy="340" r="3" fill="#2563eb"></circle><circle class="dot" cx="659.5334370139968" cy="340" r="3" fill="#2563eb"></circle><circle class="dot" cx="660.6531881804044" cy="340" r="3" fill="#2563eb"></circle><circle class="dot" cx="661.7729393468119" cy="340" r="3" fill="#2563eb"></circle><circle class="dot" cx="662.8926905132193" cy="340" r="3" fill="#2563eb"></circle><circle class="dot" cx="664.0124416796267" cy="340" r="3" fill="#2563eb"></circle><circle class="dot" cx="665.1321928460342" cy="340" r="3" fill="#2563eb"></circle><circle class="dot" cx="666.2519440124416" cy="340" r="3" fill="#2563eb"></circle><circle class="dot" cx="667.3716951788491" cy="340" r="3" fill="#2563eb"></circle><circle class="dot" cx="668.4914463452567" cy="340" r="3" fill="#2563eb"></circle><circle class="dot" cx="669.611197511664" cy="340" r="3" fill="#2563eb"></circle><circle class="dot" cx="670.7309486780715" cy="340" r="3" fill="#2563eb"></circle><circle class="dot" cx="671.850699844479" cy="340" r="3" fill="#2563eb"></circle><circle class="dot" cx="672.9704510108864" cy="340" r="3" fill="#2563eb"></circle><circle class="dot" cx="674.0902021772939" cy="340" r="3" fill="#2563eb"></circle><circle class="dot" cx="675.2099533437014" cy="340" r="3" fill="#2563eb"></circle><circle class="dot" cx="676.3297045101089" cy="340" r="3" fill="#2563eb"></circle><circle class="dot" cx="677.4494556765163" cy="340" r="3" fill="#2563eb"></circle><circle class="dot" cx="678.5692068429238" cy="340" r="3" fill="#2563eb"></circle><circle class="dot" cx="679.6889580093313" cy="340" r="3" fill="#2563eb"></circle><circle class="dot" cx="680.8087091757387" cy="340" r="3" fill="#2563eb"></circle><circle class="dot" cx="681.9284603421462" cy="340" r="3" fill="#2563eb"></circle><circle class="dot" cx="683.0482115085537" cy="340" r="3" fill="#2563eb"></circle><circle class="dot" cx="684.1679626749611" cy="340" r="3" fill="#2563eb"></circle><circle class="dot" cx="685.2877138413686" cy="340" r="3" fill="#2563eb"></circle><circle class="dot" cx="686.4074650077761" cy="340" r="3" fill="#2563eb"></circle><circle class="dot" cx="687.5272161741835" cy="340" r="3" fill="#2563eb"></circle><circle class="dot" cx="688.646967340591" cy="340" r="3" fill="#2563eb"></circle><circle class="dot" cx="689.7667185069985" cy="340" r="3" fill="#2563eb"></circle><circle class="dot" cx="690.8864696734059" cy="340" r="3" fill="#2563eb"></circle><circle class="dot" cx="692.0062208398134" cy="340" r="3" fill="#2563eb"></circle><circle class="dot" cx="693.1259720062209" cy="340" r="3" fill="#2563eb"></circle><circle class="dot" cx="694.2457231726282" cy="340" r="3" fill="#2563eb"></circle><circle class="dot" cx="695.3654743390357" cy="340" r="3" fill="#2563eb"></circle><circle class="dot" cx="696.4852255054433" cy="340" r="3" fill="#2563eb"></circle><circle class="dot" cx="697.6049766718507" cy="340" r="3" fill="#2563eb"></circle><circle class="dot" cx="698.7247278382582" cy="340" r="3" fill="#2563eb"></circle><circle class="dot" cx="699.8444790046656" cy="340" r="3" fill="#2563eb"></circle><circle class="dot" cx="700.964230171073" cy="340" r="3" fill="#2563eb"></circle><circle class="dot" cx="702.0839813374805" cy="340" r="3" fill="#2563eb"></circle><circle class="dot" cx="703.2037325038881" cy="340" r="3" fill="#2563eb"></circle><circle class="dot" cx="704.3234836702956" cy="340" r="3" fill="#2563eb"></circle><circle class="dot" cx="705.4432348367029" cy="340" r="3" fill="#2563eb"></circle><circle class="dot" cx="706.5629860031104" cy="340" r="3" fill="#2563eb"></circle><circle class="dot" cx="707.6827371695178" cy="340" r="3" fill="#2563eb"></circle><circle class="dot" cx="708.8024883359253" cy="340" r="3" fill="#2563eb"></circle><circle class="dot" cx="709.9222395023329" cy="340" r="3" fill="#2563eb"></circle><circle class="dot" cx="711.0419906687403" cy="340" r="3" fill="#2563eb"></circle><circle class="dot" cx="712.1617418351477" cy="340" r="3" fill="#2563eb"></circle><circle class="dot" cx="713.2814930015552" cy="340" r="3" fill="#2563eb"></circle><circle class="dot" cx="714.4012441679627" cy="340" r="3" fill="#2563eb"></circle><circle class="dot" cx="715.5209953343701" cy="340" r="3" fill="#2563eb"></circle><circle class="dot" cx="716.6407465007776" cy="340" r="3" fill="#2563eb"></circle><circle class="dot" cx="717.7604976671851" cy="340" r="3" fill="#2563eb"></circle><circle class="dot" cx="718.8802488335925" cy="340" r="3" fill="#2563eb"></circle><circle class="dot" cx="720" cy="340" r="3" fill="#2563eb"></circle><g class="grid" transform="translate(0,340)" fill="none" font-size="10" font-family="sans-serif" text-anchor="middle" style="stroke-dasharray: 3,3; opacity: 0.3;"><path class="domain" stroke="currentColor" d="M0.5,-340V0.5H720.5V-340"></path><g class="tick" opacity="1" transform="translate(0.5,0)"><line stroke="currentColor" y2="-340"></line><text fill="currentColor" y="3" dy="0.71em"></text></g><g class="tick" opacity="1" transform="translate(27.374027993779162,0)"><line stroke="currentColor" y2="-340"></line><text fill="currentColor" y="3" dy="0.71em"></text></g><g class="tick" opacity="1" transform="translate(54.248055987558324,0)"><line stroke="currentColor" y2="-340"></line><text fill="currentColor" y="3" dy="0.71em"></text></g><g class="tick" opacity="1" transform="translate(81.12208398133748,0)"><line stroke="currentColor" y2="-340"></line><text fill="currentColor" y="3" dy="0.71em"></text></g><g class="tick" opacity="1" transform="translate(107.99611197511665,0)"><line stroke="currentColor" y2="-340"></line><text fill="currentColor" y="3" dy="0.71em"></text></g><g class="tick" opacity="1" transform="translate(134.8701399688958,0)"><line stroke="currentColor" y2="-340"></line><text fill="currentColor" y="3" dy="0.71em"></text></g><g class="tick" opacity="1" transform="translate(161.74416796267496,0)"><line stroke="currentColor" y2="-340"></line><text fill="currentColor" y="3" dy="0.71em"></text></g><g class="tick" opacity="1" transform="translate(188.61819595645412,0)"><line stroke="currentColor" y2="-340"></line><text fill="currentColor" y="3" dy="0.71em"></text></g><g class="tick" opacity="1" transform="translate(215.4922239502333,0)"><line stroke="currentColor" y2="-340"></line><text fill="currentColor" y="3" dy="0.71em"></text></g><g class="tick" opacity="1" transform="translate(242.36625194401245,0)"><line stroke="currentColor" y2="-340"></line><text fill="currentColor" y="3" dy="0.71em"></text></g><g class="tick" opacity="1" transform="translate(269.2402799377916,0)"><line stroke="currentColor" y2="-340"></line><text fill="currentColor" y="3" dy="0.71em"></text></g><g class="tick" opacity="1" transform="translate(296.1143079315708,0)"><line stroke="currentColor" y2="-340"></line><text fill="currentColor" y="3" dy="0.71em"></text></g><g class="tick" opacity="1" transform="translate(322.98833592534993,0)"><line stroke="currentColor" y2="-340"></line><text fill="currentColor" y="3" dy="0.71em"></text></g><g class="tick" opacity="1" transform="translate(349.8623639191291,0)"><line stroke="currentColor" y2="-340"></line><text fill="currentColor" y="3" dy="0.71em"></text></g><g class="tick" opacity="1" transform="translate(376.73639191290823,0)"><line stroke="currentColor" y2="-340"></line><text fill="currentColor" y="3" dy="0.71em"></text></g><g class="tick" opacity="1" transform="translate(403.6104199066874,0)"><line stroke="currentColor" y2="-340"></line><text fill="currentColor" y="3" dy="0.71em"></text></g><g class="tick" opacity="1" transform="translate(430.4844479004666,0)"><line stroke="currentColor" y2="-340"></line><text fill="currentColor" y="3" dy="0.71em"></text></g><g class="tick" opacity="1" transform="translate(457.3584758942457,0)"><line stroke="currentColor" y2="-340"></line><text fill="currentColor" y="3" dy="0.71em"></text></g><g class="tick" opacity="1" transform="translate(484.2325038880249,0)"><line stroke="currentColor" y2="-340"></line><text fill="currentColor" y="3" dy="0.71em"></text></g><g class="tick" opacity="1" transform="translate(511.106531881804,0)"><line stroke="currentColor" y2="-340"></line><text fill="currentColor" y="3" dy="0.71em"></text></g><g class="tick" opacity="1" transform="translate(537.9805598755833,0)"><line stroke="currentColor" y2="-340"></line><text fill="currentColor" y="3" dy="0.71em"></text></g><g class="tick" opacity="1" transform="translate(564.8545878693624,0)"><line stroke="currentColor" y2="-340"></line><text fill="currentColor" y="3" dy="0.71em"></text></g><g class="tick" opacity="1" transform="translate(591.7286158631416,0)"><line stroke="currentColor" y2="-340"></line><text fill="currentColor" y="3" dy="0.71em"></text></g><g class="tick" opacity="1" transform="translate(618.6026438569206,0)"><line stroke="currentColor" y2="-340"></line><text fill="currentColor" y="3" dy="0.71em"></text></g><g class="tick" opacity="1" transform="translate(645.4766718506999,0)"><line stroke="currentColor" y2="-340"></line><text fill="currentColor" y="3" dy="0.71em"></text></g><g class="tick" opacity="1" transform="translate(672.350699844479,0)"><line stroke="currentColor" y2="-340"></line><text fill="currentColor" y="3" dy="0.71em"></text></g><g class="tick" opacity="1" transform="translate(699.2247278382582,0)"><line stroke="currentColor" y2="-340"></line><text fill="currentColor" y="3" dy="0.71em"></text></g></g><g class="grid" fill="none" font-size="10" font-family="sans-serif" text-anchor="end" style="stroke-dasharray: 3,3; opacity: 0.3;"><path class="domain" stroke="currentColor" d="M720,340.5H0.5V0.5H720"></path><g class="tick" opacity="1" transform="translate(0,340.5)"><line stroke="currentColor" x2="720"></line><text fill="currentColor" x="-3" dy="0.32em"></text></g><g class="tick" opacity="1" transform="translate(0,302.72222222222223)"><line stroke="currentColor" x2="720"></line><text fill="currentColor" x="-3" dy="0.32em"></text></g><g class="tick" opacity="1" transform="translate(0,264.94444444444446)"><line stroke="currentColor" x2="720"></line><text fill="currentColor" x="-3" dy="0.32em"></text></g><g class="tick" opacity="1" transform="translate(0,227.16666666666666)"><line stroke="currentColor" x2="720"></line><text fill="currentColor" x="-3" dy="0.32em"></text></g><g class="tick" opacity="1" transform="translate(0,189.38888888888889)"><line stroke="currentColor" x2="720"></line><text fill="currentColor" x="-3" dy="0.32em"></text></g><g class="tick" opacity="1" transform="translate(0,151.61111111111111)"><line stroke="currentColor" x2="720"></line><text fill="currentColor" x="-3" dy="0.32em"></text></g><g class="tick" opacity="1" transform="translate(0,113.83333333333334)"><line stroke="currentColor" x2="720"></line><text fill="currentColor" x="-3" dy="0.32em"></text></g><g class="tick" opacity="1" transform="translate(0,76.05555555555556)"><line stroke="currentColor" x2="720"></line><text fill="currentColor" x="-3" dy="0.32em"></text></g><g class="tick" opacity="1" transform="translate(0,38.27777777777776)"><line stroke="currentColor" x2="720"></line><text fill="currentColor" x="-3" dy="0.32em"></text></g><g class="tick" opacity="1" transform="translate(0,0.5)"><line stroke="currentColor" x2="720"></line><text fill="currentColor" x="-3" dy="0.32em"></text></g></g></g><text x="400" y="10" text-anchor="middle" style="font-size: 16px; font-weight: bold; fill: #333;">OKX USDT Lending Rate - Current Month</text></svg>