<svg width="800" height="400" xmlns="http://www.w3.org/2000/svg"><g transform="translate(50,20)"><g transform="translate(0,340)" fill="none" font-size="10" font-family="sans-serif" text-anchor="middle"><path class="domain" stroke="currentColor" d="M0.5,6V0.5H720.5V6"></path><g class="tick" opacity="1" transform="translate(0.5,0)"><line stroke="currentColor" y2="6"></line><text fill="currentColor" y="9" dy=".15em" style="text-anchor: end;" dx="-.8em" transform="rotate(-45)">11/01</text></g><g class="tick" opacity="1" transform="translate(75.95851528384279,0)"><line stroke="currentColor" y2="6"></line><text fill="currentColor" y="9" dy=".15em" style="text-anchor: end;" dx="-.8em" transform="rotate(-45)">11/02</text></g><g class="tick" opacity="1" transform="translate(151.41703056768557,0)"><line stroke="currentColor" y2="6"></line><text fill="currentColor" y="9" dy=".15em" style="text-anchor: end;" dx="-.8em" transform="rotate(-45)">11/03</text></g><g class="tick" opacity="1" transform="translate(226.8755458515284,0)"><line stroke="currentColor" y2="6"></line><text fill="currentColor" y="9" dy=".15em" style="text-anchor: end;" dx="-.8em" transform="rotate(-45)">11/04</text></g><g class="tick" opacity="1" transform="translate(302.33406113537114,0)"><line stroke="currentColor" y2="6"></line><text fill="currentColor" y="9" dy=".15em" style="text-anchor: end;" dx="-.8em" transform="rotate(-45)">11/05</text></g><g class="tick" opacity="1" transform="translate(377.79257641921396,0)"><line stroke="currentColor" y2="6"></line><text fill="currentColor" y="9" dy=".15em" style="text-anchor: end;" dx="-.8em" transform="rotate(-45)">11/06</text></g><g class="tick" opacity="1" transform="translate(453.2510917030568,0)"><line stroke="currentColor" y2="6"></line><text fill="currentColor" y="9" dy=".15em" style="text-anchor: end;" dx="-.8em" transform="rotate(-45)">11/07</text></g><g class="tick" opacity="1" transform="translate(528.7096069868996,0)"><line stroke="currentColor" y2="6"></line><text fill="currentColor" y="9" dy=".15em" style="text-anchor: end;" dx="-.8em" transform="rotate(-45)">11/08</text></g><g class="tick" opacity="1" transform="translate(604.1681222707423,0)"><line stroke="currentColor" y2="6"></line><text fill="currentColor" y="9" dy=".15em" style="text-anchor: end;" dx="-.8em" transform="rotate(-45)">11/09</text></g><g class="tick" opacity="1" transform="translate(679.6266375545852,0)"><line stroke="currentColor" y2="6"></line><text fill="currentColor" y="9" dy=".15em" style="text-anchor: end;" dx="-.8em" transform="rotate(-45)">11/10</text></g></g><g fill="none" font-size="10" font-family="sans-serif" text-anchor="end"><path class="domain" stroke="currentColor" d="M-6,340.5H0.5V0.5H-6"></path><g class="tick" opacity="1" transform="translate(0,340.5)"><line stroke="currentColor" x2="-6"></line><text fill="currentColor" x="-9" dy="0.32em">1.00%</text></g><g class="tick" opacity="1" transform="translate(0,306.5)"><line stroke="currentColor" x2="-6"></line><text fill="currentColor" x="-9" dy="0.32em">1.20%</text></g><g class="tick" opacity="1" transform="translate(0,272.5)"><line stroke="currentColor" x2="-6"></line><text fill="currentColor" x="-9" dy="0.32em">1.40%</text></g><g class="tick" opacity="1" transform="translate(0,238.49999999999997)"><line stroke="currentColor" x2="-6"></line><text fill="currentColor" x="-9" dy="0.32em">1.60%</text></g><g class="tick" opacity="1" transform="translate(0,204.50000000000003)"><line stroke="currentColor" x2="-6"></line><text fill="currentColor" x="-9" dy="0.32em">1.80%</text></g><g class="tick" opacity="1" transform="translate(0,170.49999999999997)"><line stroke="currentColor" x2="-6"></line><text fill="currentColor" x="-9" dy="0.32em">2.00%</text></g><g class="tick" opacity="1" transform="translate(0,136.5)"><line stroke="currentColor" x2="-6"></line><text fill="currentColor" x="-9" dy="0.32em">2.20%</text></g><g class="tick" opacity="1" transform="translate(0,102.49999999999997)"><line stroke="currentColor" x2="-6"></line><text fill="currentColor" x="-9" dy="0.32em">2.40%</text></g><g class="tick" opacity="1" transform="translate(0,68.49999999999994)"><line stroke="currentColor" x2="-6"></line><text fill="currentColor" x="-9" dy="0.32em">2.60%</text></g><g class="tick" opacity="1" transform="translate(0,34.499999999999915)"><line stroke="currentColor" x2="-6"></line><text fill="currentColor" x="-9" dy="0.32em">2.80%</text></g><g class="tick" opacity="1" transform="translate(0,0.5)"><line stroke="currentColor" x2="-6"></line><text fill="currentColor" x="-9" dy="0.32em">3.00%</text></g></g><text transform="rotate(-90)" y="-50" x="-170" dy="1em" style="text-anchor: middle; font-size: 12px; fill: #666;">Pre Rate (%)</text><text transform="translate(360, 380)" style="text-anchor: middle; font-size: 12px; fill: #666;">Time (UTC)</text><path fill="none" stroke="#2563eb" stroke-width="2" d="M0,0C1.048,0,2.096,0,3.144,0C4.192,0,5.24,0,6.288,0C7.336,0,8.384,0,9.432,0C10.48,0,11.528,0,12.576,0C13.624,0,14.672,0,15.721,0C16.769,0,17.817,0,18.865,0C19.913,0,20.961,0,22.009,0C23.057,0,24.105,0,25.153,0C26.201,0,27.249,0,28.297,0C29.345,0,30.393,0,31.441,0C32.489,0,33.537,0,34.585,0C35.633,0,36.681,0,37.729,0C38.777,0,39.825,0,40.873,0C41.921,0,42.969,0,44.017,0C45.066,0,46.114,0,47.162,0C48.21,0,49.258,0,50.306,0C51.354,0,52.402,0,53.45,0C54.498,0,55.546,0,56.594,0C57.642,0,58.69,0,59.738,0C60.786,0,61.834,0,62.882,0C63.93,0,64.978,0,66.026,0C67.074,0,68.122,0,69.17,0C70.218,0,71.266,0,72.314,0C73.362,0,74.41,0,75.459,0C76.507,0,77.555,0,78.603,0C79.651,0,80.699,0,81.747,0C82.795,0,83.843,0,84.891,0C85.939,0,86.987,0,88.035,0C89.083,0,90.131,0,91.179,0C92.227,0,93.275,0,94.323,0C95.371,0,96.419,0,97.467,0C98.515,0,99.563,0,100.611,0C101.659,0,102.707,0,103.755,0C104.803,0,105.852,0,106.9,0C107.948,0,108.996,0,110.044,0C111.092,0,112.14,0,113.188,0C114.236,0,115.284,0,116.332,0C117.38,0,118.428,0,119.476,0C120.524,0,121.572,0,122.62,0C123.668,0,124.716,0,125.764,0C126.812,0,127.86,0,128.908,0C129.956,0,131.004,0,132.052,0C133.1,0,134.148,0,135.197,0C136.245,0,137.293,0,138.341,0C139.389,0,140.437,0,141.485,0C142.533,0,143.581,0,144.629,0C145.677,0,146.725,0,147.773,0C148.821,0,149.869,0,150.917,0C151.965,0,153.013,0,154.061,0C155.109,0,156.157,0,157.205,0C158.253,0,159.301,0,160.349,0C161.397,0,162.445,0,163.493,0C164.541,0,165.59,0,166.638,0C167.686,0,168.734,0,169.782,0C170.83,0,171.878,0,172.926,0C173.974,0,175.022,0,176.07,0C177.118,0,178.166,0,179.214,0C180.262,0,181.31,0,182.358,0C183.406,0,184.454,0,185.502,0C186.55,0,187.598,0,188.646,0C189.694,0,190.742,0,191.79,0C192.838,0,193.886,0,194.934,0C195.983,0,197.031,0,198.079,0C199.127,0,200.175,0,201.223,0C202.271,0,203.319,0,204.367,0C205.415,0,206.463,0,207.511,0C208.559,0,209.607,0,210.655,0C211.703,0,212.751,0,213.799,0C214.847,0,215.895,0,216.943,0C217.991,0,219.039,0,220.087,0C221.135,0,222.183,0,223.231,0C224.279,0,225.328,0,226.376,0C227.424,0,228.472,0,229.52,0C230.568,0,231.616,0,232.664,0C233.712,0,234.76,0,235.808,0C236.856,0,237.904,0,238.952,0C240,0,241.048,0,242.096,0C243.144,0,244.192,0,245.24,0C246.288,0,247.336,0,248.384,0C249.432,0,250.48,0,251.528,0C252.576,0,253.624,0,254.672,0C255.721,0,256.769,0,257.817,0C258.865,0,259.913,0,260.961,0C262.009,0,263.057,0,264.105,0C265.153,0,266.201,0,267.249,0C268.297,0,269.345,0,270.393,0C271.441,0,272.489,0,273.537,0C274.585,0,275.633,0,276.681,0C277.729,0,278.777,0,279.825,0C280.873,0,281.921,0,282.969,0C284.017,0,285.066,0,286.114,0C287.162,0,288.21,0,289.258,0C290.306,0,291.354,0,292.402,0C293.45,0,294.498,0,295.546,0C296.594,0,297.642,0,298.69,0C299.738,0,300.786,0,301.834,0C302.882,0,303.93,340,304.978,340C306.026,340,307.074,340,308.122,340C309.17,340,310.218,340,311.266,340C312.314,340,313.362,340,314.41,340C315.459,340,316.507,340,317.555,340C318.603,340,319.651,340,320.699,340C321.747,340,322.795,340,323.843,340C324.891,340,325.939,340,326.987,340C328.035,340,329.083,0,330.131,0C331.179,0,332.227,0,333.275,0C334.323,0,335.371,0,336.419,0C337.467,0,338.515,0,339.563,0C340.611,0,341.659,0,342.707,0C343.755,0,344.803,0,345.852,0C346.9,0,347.948,0,348.996,0C350.044,0,351.092,0,352.14,0C353.188,0,354.236,0,355.284,0C356.332,0,357.38,0,358.428,0C359.476,0,360.524,0,361.572,0C362.62,0,363.668,0,364.716,0C365.764,0,366.812,0,367.86,0C368.908,0,369.956,0,371.004,0C372.052,0,373.1,0,374.148,0C375.197,0,376.245,0,377.293,0C378.341,0,379.389,0,380.437,0C381.485,0,382.533,0,383.581,0C384.629,0,385.677,0,386.725,0C387.773,0,388.821,0,389.869,0C390.917,0,391.965,0,393.013,0C394.061,0,395.109,0,396.157,0C397.205,0,398.253,0,399.301,0C400.349,0,401.397,0,402.445,0C403.493,0,404.541,0,405.59,0C406.638,0,407.686,0,408.734,0C409.782,0,410.83,0,411.878,0C412.926,0,413.974,0,415.022,0C416.07,0,417.118,0,418.166,0C419.214,0,420.262,0,421.31,0C422.358,0,423.406,0,424.454,0C425.502,0,426.55,0,427.598,0C428.646,0,429.694,0,430.742,0C431.79,0,432.838,0,433.886,0C434.934,0,435.983,0,437.031,0C438.079,0,439.127,0,440.175,0C441.223,0,442.271,0,443.319,0C444.367,0,445.415,0,446.463,0C447.511,0,448.559,0,449.607,0C450.655,0,451.703,0,452.751,0C453.799,0,454.847,0,455.895,0C456.943,0,457.991,0,459.039,0C460.087,0,461.135,0,462.183,0C463.231,0,464.279,0,465.328,0C466.376,0,467.424,0,468.472,0C469.52,0,470.568,0,471.616,0C472.664,0,473.712,0,474.76,0C475.808,0,476.856,0,477.904,0C478.952,0,480,0,481.048,0C482.096,0,483.144,0,484.192,0C485.24,0,486.288,0,487.336,0C488.384,0,489.432,0,490.48,0C491.528,0,492.576,0,493.624,0C494.672,0,495.721,0,496.769,0C497.817,0,498.865,0,499.913,0C500.961,0,502.009,0,503.057,0C504.105,0,505.153,0,506.201,0C507.249,0,508.297,0,509.345,0C510.393,0,511.441,0,512.489,0C513.537,0,514.585,0,515.633,0C516.681,0,517.729,0,518.777,0C519.825,0,520.873,0,521.921,0C522.969,0,524.017,0,525.066,0C526.114,0,527.162,0,528.21,0C529.258,0,530.306,0,531.354,0C532.402,0,533.45,0,534.498,0C535.546,0,536.594,0,537.642,0C538.69,0,539.738,0,540.786,0C541.834,0,542.882,0,543.93,0C544.978,0,546.026,0,547.074,0C548.122,0,549.17,0,550.218,0C551.266,0,552.314,0,553.362,0C554.41,0,555.459,0,556.507,0C557.555,0,558.603,0,559.651,0C560.699,0,561.747,0,562.795,0C563.843,0,564.891,0,565.939,0C566.987,0,568.035,0,569.083,0C570.131,0,571.179,0,572.227,0C573.275,0,574.323,0,575.371,0C576.419,0,577.467,0,578.515,0C579.563,0,580.611,0,581.659,0C582.707,0,583.755,0,584.803,0C585.852,0,586.9,0,587.948,0C588.996,0,590.044,0,591.092,0C592.14,0,593.188,0,594.236,0C595.284,0,596.332,0,597.38,0C598.428,0,599.476,0,600.524,0C601.572,0,602.62,0,603.668,0C604.716,0,605.764,0,606.812,0C607.86,0,608.908,0,609.956,0C611.004,0,612.052,0,613.1,0C614.148,0,615.197,0,616.245,0C617.293,0,618.341,0,619.389,0C620.437,0,621.485,0,622.533,0C623.581,0,624.629,0,625.677,0C626.725,0,627.773,0,628.821,0C629.869,0,630.917,0,631.965,0C633.013,0,634.061,0,635.109,0C636.157,0,637.205,0,638.253,0C639.301,0,640.349,0,641.397,0C642.445,0,643.493,0,644.541,0C645.59,0,646.638,0,647.686,0C648.734,0,649.782,0,650.83,0C651.878,0,652.926,0,653.974,0C655.022,0,656.07,0,657.118,0C658.166,0,659.214,0,660.262,0C661.31,0,662.358,0,663.406,0C664.454,0,665.502,0,666.55,0C667.598,0,668.646,0,669.694,0C670.742,0,671.79,0,672.838,0C673.886,0,674.934,0,675.983,0C677.031,0,678.079,0,679.127,0C680.175,0,681.223,0,682.271,0C683.319,0,684.367,0,685.415,0C686.463,0,687.511,0,688.559,0C689.607,0,690.655,0,691.703,0C692.751,0,693.799,0,694.847,0C695.895,0,696.943,0,697.991,0C699.039,0,700.087,0,701.135,0C702.183,0,703.231,0,704.279,0C705.328,0,706.376,0,707.424,0C708.472,0,709.52,0,710.568,0C711.616,0,712.664,0,713.712,0C714.76,0,715.808,0,716.856,0C717.904,0,718.952,0,720,0"></path><circle class="dot" cx="0" cy="0" r="3" fill="#2563eb"></circle><circle class="dot" cx="3.1441048034934496" cy="0" r="3" fill="#2563eb"></circle><circle class="dot" cx="6.288209606986899" cy="0" r="3" fill="#2563eb"></circle><circle class="dot" cx="9.432314410480348" cy="0" r="3" fill="#2563eb"></circle><circle class="dot" cx="12.576419213973798" cy="0" r="3" fill="#2563eb"></circle><circle class="dot" cx="15.720524017467248" cy="0" r="3" fill="#2563eb"></circle><circle class="dot" cx="18.864628820960696" cy="0" r="3" fill="#2563eb"></circle><circle class="dot" cx="22.00873362445415" cy="0" r="3" fill="#2563eb"></circle><circle class="dot" cx="25.152838427947597" cy="0" r="3" fill="#2563eb"></circle><circle class="dot" cx="28.29694323144105" cy="0" r="3" fill="#2563eb"></circle><circle class="dot" cx="31.441048034934497" cy="0" r="3" fill="#2563eb"></circle><circle class="dot" cx="34.585152838427945" cy="0" r="3" fill="#2563eb"></circle><circle class="dot" cx="37.72925764192139" cy="0" r="3" fill="#2563eb"></circle><circle class="dot" cx="40.87336244541485" cy="0" r="3" fill="#2563eb"></circle><circle class="dot" cx="44.0174672489083" cy="0" r="3" fill="#2563eb"></circle><circle class="dot" cx="47.161572052401745" cy="0" r="3" fill="#2563eb"></circle><circle class="dot" cx="50.30567685589519" cy="0" r="3" fill="#2563eb"></circle><circle class="dot" cx="53.44978165938865" cy="0" r="3" fill="#2563eb"></circle><circle class="dot" cx="56.5938864628821" cy="0" r="3" fill="#2563eb"></circle><circle class="dot" cx="59.737991266375545" cy="0" r="3" fill="#2563eb"></circle><circle class="dot" cx="62.88209606986899" cy="0" r="3" fill="#2563eb"></circle><circle class="dot" cx="66.02620087336246" cy="0" r="3" fill="#2563eb"></circle><circle class="dot" cx="69.17030567685589" cy="0" r="3" fill="#2563eb"></circle><circle class="dot" cx="72.31441048034934" cy="0" r="3" fill="#2563eb"></circle><circle class="dot" cx="75.45851528384279" cy="0" r="3" fill="#2563eb"></circle><circle class="dot" cx="78.60262008733625" cy="0" r="3" fill="#2563eb"></circle><circle class="dot" cx="81.7467248908297" cy="0" r="3" fill="#2563eb"></circle><circle class="dot" cx="84.89082969432314" cy="0" r="3" fill="#2563eb"></circle><circle class="dot" cx="88.0349344978166" cy="0" r="3" fill="#2563eb"></circle><circle class="dot" cx="91.17903930131004" cy="0" r="3" fill="#2563eb"></circle><circle class="dot" cx="94.32314410480349" cy="0" r="3" fill="#2563eb"></circle><circle class="dot" cx="97.46724890829695" cy="0" r="3" fill="#2563eb"></circle><circle class="dot" cx="100.61135371179039" cy="0" r="3" fill="#2563eb"></circle><circle class="dot" cx="103.75545851528385" cy="0" r="3" fill="#2563eb"></circle><circle class="dot" cx="106.8995633187773" cy="0" r="3" fill="#2563eb"></circle><circle class="dot" cx="110.04366812227074" cy="0" r="3" fill="#2563eb"></circle><circle class="dot" cx="113.1877729257642" cy="0" r="3" fill="#2563eb"></circle><circle class="dot" cx="116.33187772925763" cy="0" r="3" fill="#2563eb"></circle><circle class="dot" cx="119.47598253275109" cy="0" r="3" fill="#2563eb"></circle><circle class="dot" cx="122.62008733624455" cy="0" r="3" fill="#2563eb"></circle><circle class="dot" cx="125.76419213973799" cy="0" r="3" fill="#2563eb"></circle><circle class="dot" cx="128.90829694323145" cy="0" r="3" fill="#2563eb"></circle><circle class="dot" cx="132.0524017467249" cy="0" r="3" fill="#2563eb"></circle><circle class="dot" cx="135.19650655021834" cy="0" r="3" fill="#2563eb"></circle><circle class="dot" cx="138.34061135371178" cy="0" r="3" fill="#2563eb"></circle><circle class="dot" cx="141.48471615720524" cy="0" r="3" fill="#2563eb"></circle><circle class="dot" cx="144.62882096069868" cy="0" r="3" fill="#2563eb"></circle><circle class="dot" cx="147.77292576419214" cy="0" r="3" fill="#2563eb"></circle><circle class="dot" cx="150.91703056768557" cy="0" r="3" fill="#2563eb"></circle><circle class="dot" cx="154.06113537117903" cy="0" r="3" fill="#2563eb"></circle><circle class="dot" cx="157.2052401746725" cy="0" r="3" fill="#2563eb"></circle><circle class="dot" cx="160.34934497816593" cy="0" r="3" fill="#2563eb"></circle><circle class="dot" cx="163.4934497816594" cy="0" r="3" fill="#2563eb"></circle><circle class="dot" cx="166.63755458515286" cy="0" r="3" fill="#2563eb"></circle><circle class="dot" cx="169.7816593886463" cy="0" r="3" fill="#2563eb"></circle><circle class="dot" cx="172.92576419213975" cy="0" r="3" fill="#2563eb"></circle><circle class="dot" cx="176.0698689956332" cy="0" r="3" fill="#2563eb"></circle><circle class="dot" cx="179.21397379912665" cy="0" r="3" fill="#2563eb"></circle><circle class="dot" cx="182.35807860262008" cy="0" r="3" fill="#2563eb"></circle><circle class="dot" cx="185.50218340611352" cy="0" r="3" fill="#2563eb"></circle><circle class="dot" cx="188.64628820960698" cy="0" r="3" fill="#2563eb"></circle><circle class="dot" cx="191.79039301310044" cy="0" r="3" fill="#2563eb"></circle><circle class="dot" cx="194.9344978165939" cy="0" r="3" fill="#2563eb"></circle><circle class="dot" cx="198.0786026200873" cy="0" r="3" fill="#2563eb"></circle><circle class="dot" cx="201.22270742358077" cy="0" r="3" fill="#2563eb"></circle><circle class="dot" cx="204.36681222707423" cy="0" r="3" fill="#2563eb"></circle><circle class="dot" cx="207.5109170305677" cy="0" r="3" fill="#2563eb"></circle><circle class="dot" cx="210.65502183406116" cy="0" r="3" fill="#2563eb"></circle><circle class="dot" cx="213.7991266375546" cy="0" r="3" fill="#2563eb"></circle><circle class="dot" cx="216.94323144104803" cy="0" r="3" fill="#2563eb"></circle><circle class="dot" cx="220.0873362445415" cy="0" r="3" fill="#2563eb"></circle><circle class="dot" cx="223.23144104803492" cy="0" r="3" fill="#2563eb"></circle><circle class="dot" cx="226.3755458515284" cy="0" r="3" fill="#2563eb"></circle><circle class="dot" cx="229.51965065502185" cy="0" r="3" fill="#2563eb"></circle><circle class="dot" cx="232.66375545851525" cy="0" r="3" fill="#2563eb"></circle><circle class="dot" cx="235.80786026200872" cy="0" r="3" fill="#2563eb"></circle><circle class="dot" cx="238.95196506550218" cy="0" r="3" fill="#2563eb"></circle><circle class="dot" cx="242.09606986899564" cy="0" r="3" fill="#2563eb"></circle><circle class="dot" cx="245.2401746724891" cy="0" r="3" fill="#2563eb"></circle><circle class="dot" cx="248.38427947598257" cy="0" r="3" fill="#2563eb"></circle><circle class="dot" cx="251.52838427947597" cy="0" r="3" fill="#2563eb"></circle><circle class="dot" cx="254.67248908296943" cy="0" r="3" fill="#2563eb"></circle><circle class="dot" cx="257.8165938864629" cy="0" r="3" fill="#2563eb"></circle><circle class="dot" cx="260.96069868995636" cy="0" r="3" fill="#2563eb"></circle><circle class="dot" cx="264.1048034934498" cy="0" r="3" fill="#2563eb"></circle><circle class="dot" cx="267.2489082969432" cy="0" r="3" fill="#2563eb"></circle><circle class="dot" cx="270.3930131004367" cy="0" r="3" fill="#2563eb"></circle><circle class="dot" cx="273.53711790393015" cy="0" r="3" fill="#2563eb"></circle><circle class="dot" cx="276.68122270742356" cy="0" r="3" fill="#2563eb"></circle><circle class="dot" cx="279.825327510917" cy="0" r="3" fill="#2563eb"></circle><circle class="dot" cx="282.9694323144105" cy="0" r="3" fill="#2563eb"></circle><circle class="dot" cx="286.11353711790395" cy="0" r="3" fill="#2563eb"></circle><circle class="dot" cx="289.25764192139735" cy="0" r="3" fill="#2563eb"></circle><circle class="dot" cx="292.4017467248908" cy="0" r="3" fill="#2563eb"></circle><circle class="dot" cx="295.5458515283843" cy="0" r="3" fill="#2563eb"></circle><circle class="dot" cx="298.68995633187774" cy="0" r="3" fill="#2563eb"></circle><circle class="dot" cx="301.83406113537114" cy="0" r="3" fill="#2563eb"></circle><circle class="dot" cx="304.9781659388646" cy="340" r="3" fill="#2563eb"></circle><circle class="dot" cx="308.12227074235807" cy="340" r="3" fill="#2563eb"></circle><circle class="dot" cx="311.26637554585153" cy="340" r="3" fill="#2563eb"></circle><circle class="dot" cx="314.410480349345" cy="340" r="3" fill="#2563eb"></circle><circle class="dot" cx="317.5545851528384" cy="340" r="3" fill="#2563eb"></circle><circle class="dot" cx="320.69868995633186" cy="340" r="3" fill="#2563eb"></circle><circle class="dot" cx="323.8427947598253" cy="340" r="3" fill="#2563eb"></circle><circle class="dot" cx="326.9868995633188" cy="340" r="3" fill="#2563eb"></circle><circle class="dot" cx="330.13100436681225" cy="0" r="3" fill="#2563eb"></circle><circle class="dot" cx="333.2751091703057" cy="0" r="3" fill="#2563eb"></circle><circle class="dot" cx="336.4192139737991" cy="0" r="3" fill="#2563eb"></circle><circle class="dot" cx="339.5633187772926" cy="0" r="3" fill="#2563eb"></circle><circle class="dot" cx="342.70742358078604" cy="0" r="3" fill="#2563eb"></circle><circle class="dot" cx="345.8515283842795" cy="0" r="3" fill="#2563eb"></circle><circle class="dot" cx="348.99563318777297" cy="0" r="3" fill="#2563eb"></circle><circle class="dot" cx="352.1397379912664" cy="0" r="3" fill="#2563eb"></circle><circle class="dot" cx="355.28384279475983" cy="0" r="3" fill="#2563eb"></circle><circle class="dot" cx="358.4279475982533" cy="0" r="3" fill="#2563eb"></circle><circle class="dot" cx="361.5720524017467" cy="0" r="3" fill="#2563eb"></circle><circle class="dot" cx="364.71615720524017" cy="0" r="3" fill="#2563eb"></circle><circle class="dot" cx="367.8602620087336" cy="0" r="3" fill="#2563eb"></circle><circle class="dot" cx="371.00436681222703" cy="0" r="3" fill="#2563eb"></circle><circle class="dot" cx="374.1484716157205" cy="0" r="3" fill="#2563eb"></circle><circle class="dot" cx="377.29257641921396" cy="0" r="3" fill="#2563eb"></circle><circle class="dot" cx="380.4366812227074" cy="0" r="3" fill="#2563eb"></circle><circle class="dot" cx="383.5807860262009" cy="0" r="3" fill="#2563eb"></circle><circle class="dot" cx="386.72489082969435" cy="0" r="3" fill="#2563eb"></circle><circle class="dot" cx="389.8689956331878" cy="0" r="3" fill="#2563eb"></circle><circle class="dot" cx="393.01310043668127" cy="0" r="3" fill="#2563eb"></circle><circle class="dot" cx="396.1572052401746" cy="0" r="3" fill="#2563eb"></circle><circle class="dot" cx="399.3013100436681" cy="0" r="3" fill="#2563eb"></circle><circle class="dot" cx="402.44541484716154" cy="0" r="3" fill="#2563eb"></circle><circle class="dot" cx="405.589519650655" cy="0" r="3" fill="#2563eb"></circle><circle class="dot" cx="408.73362445414847" cy="0" r="3" fill="#2563eb"></circle><circle class="dot" cx="411.87772925764193" cy="0" r="3" fill="#2563eb"></circle><circle class="dot" cx="415.0218340611354" cy="0" r="3" fill="#2563eb"></circle><circle class="dot" cx="418.16593886462886" cy="0" r="3" fill="#2563eb"></circle><circle class="dot" cx="421.3100436681223" cy="0" r="3" fill="#2563eb"></circle><circle class="dot" cx="424.4541484716157" cy="0" r="3" fill="#2563eb"></circle><circle class="dot" cx="427.5982532751092" cy="0" r="3" fill="#2563eb"></circle><circle class="dot" cx="430.7423580786026" cy="0" r="3" fill="#2563eb"></circle><circle class="dot" cx="433.88646288209605" cy="0" r="3" fill="#2563eb"></circle><circle class="dot" cx="437.0305676855895" cy="0" r="3" fill="#2563eb"></circle><circle class="dot" cx="440.174672489083" cy="0" r="3" fill="#2563eb"></circle><circle class="dot" cx="443.31877729257644" cy="0" r="3" fill="#2563eb"></circle><circle class="dot" cx="446.46288209606985" cy="0" r="3" fill="#2563eb"></circle><circle class="dot" cx="449.6069868995633" cy="0" r="3" fill="#2563eb"></circle><circle class="dot" cx="452.7510917030568" cy="0" r="3" fill="#2563eb"></circle><circle class="dot" cx="455.89519650655023" cy="0" r="3" fill="#2563eb"></circle><circle class="dot" cx="459.0393013100437" cy="0" r="3" fill="#2563eb"></circle><circle class="dot" cx="462.18340611353716" cy="0" r="3" fill="#2563eb"></circle><circle class="dot" cx="465.3275109170305" cy="0" r="3" fill="#2563eb"></circle><circle class="dot" cx="468.47161572052397" cy="0" r="3" fill="#2563eb"></circle><circle class="dot" cx="471.61572052401743" cy="0" r="3" fill="#2563eb"></circle><circle class="dot" cx="474.7598253275109" cy="0" r="3" fill="#2563eb"></circle><circle class="dot" cx="477.90393013100436" cy="0" r="3" fill="#2563eb"></circle><circle class="dot" cx="481.0480349344978" cy="0" r="3" fill="#2563eb"></circle><circle class="dot" cx="484.1921397379913" cy="0" r="3" fill="#2563eb"></circle><circle class="dot" cx="487.33624454148475" cy="0" r="3" fill="#2563eb"></circle><circle class="dot" cx="490.4803493449782" cy="0" r="3" fill="#2563eb"></circle><circle class="dot" cx="493.62445414847167" cy="0" r="3" fill="#2563eb"></circle><circle class="dot" cx="496.76855895196513" cy="0" r="3" fill="#2563eb"></circle><circle class="dot" cx="499.9126637554585" cy="0" r="3" fill="#2563eb"></circle><circle class="dot" cx="503.05676855895194" cy="0" r="3" fill="#2563eb"></circle><circle class="dot" cx="506.2008733624454" cy="0" r="3" fill="#2563eb"></circle><circle class="dot" cx="509.34497816593887" cy="0" r="3" fill="#2563eb"></circle><circle class="dot" cx="512.4890829694323" cy="0" r="3" fill="#2563eb"></circle><circle class="dot" cx="515.6331877729258" cy="0" r="3" fill="#2563eb"></circle><circle class="dot" cx="518.7772925764192" cy="0" r="3" fill="#2563eb"></circle><circle class="dot" cx="521.9213973799127" cy="0" r="3" fill="#2563eb"></circle><circle class="dot" cx="525.0655021834061" cy="0" r="3" fill="#2563eb"></circle><circle class="dot" cx="528.2096069868996" cy="0" r="3" fill="#2563eb"></circle><circle class="dot" cx="531.353711790393" cy="0" r="3" fill="#2563eb"></circle><circle class="dot" cx="534.4978165938865" cy="0" r="3" fill="#2563eb"></circle><circle class="dot" cx="537.6419213973799" cy="0" r="3" fill="#2563eb"></circle><circle class="dot" cx="540.7860262008734" cy="0" r="3" fill="#2563eb"></circle><circle class="dot" cx="543.9301310043668" cy="0" r="3" fill="#2563eb"></circle><circle class="dot" cx="547.0742358078603" cy="0" r="3" fill="#2563eb"></circle><circle class="dot" cx="550.2183406113537" cy="0" r="3" fill="#2563eb"></circle><circle class="dot" cx="553.3624454148471" cy="0" r="3" fill="#2563eb"></circle><circle class="dot" cx="556.5065502183406" cy="0" r="3" fill="#2563eb"></circle><circle class="dot" cx="559.650655021834" cy="0" r="3" fill="#2563eb"></circle><circle class="dot" cx="562.7947598253276" cy="0" r="3" fill="#2563eb"></circle><circle class="dot" cx="565.938864628821" cy="0" r="3" fill="#2563eb"></circle><circle class="dot" cx="569.0829694323144" cy="0" r="3" fill="#2563eb"></circle><circle class="dot" cx="572.2270742358079" cy="0" r="3" fill="#2563eb"></circle><circle class="dot" cx="575.3711790393013" cy="0" r="3" fill="#2563eb"></circle><circle class="dot" cx="578.5152838427947" cy="0" r="3" fill="#2563eb"></circle><circle class="dot" cx="581.6593886462882" cy="0" r="3" fill="#2563eb"></circle><circle class="dot" cx="584.8034934497816" cy="0" r="3" fill="#2563eb"></circle><circle class="dot" cx="587.9475982532751" cy="0" r="3" fill="#2563eb"></circle><circle class="dot" cx="591.0917030567686" cy="0" r="3" fill="#2563eb"></circle><circle class="dot" cx="594.2358078602621" cy="0" r="3" fill="#2563eb"></circle><circle class="dot" cx="597.3799126637555" cy="0" r="3" fill="#2563eb"></circle><circle class="dot" cx="600.5240174672489" cy="0" r="3" fill="#2563eb"></circle><circle class="dot" cx="603.6681222707423" cy="0" r="3" fill="#2563eb"></circle><circle class="dot" cx="606.8122270742358" cy="0" r="3" fill="#2563eb"></circle><circle class="dot" cx="609.9563318777292" cy="0" r="3" fill="#2563eb"></circle><circle class="dot" cx="613.1004366812227" cy="0" r="3" fill="#2563eb"></circle><circle class="dot" cx="616.2445414847161" cy="0" r="3" fill="#2563eb"></circle><circle class="dot" cx="619.3886462882097" cy="0" r="3" fill="#2563eb"></circle><circle class="dot" cx="622.5327510917031" cy="0" r="3" fill="#2563eb"></circle><circle class="dot" cx="625.6768558951966" cy="0" r="3" fill="#2563eb"></circle><circle class="dot" cx="628.82096069869" cy="0" r="3" fill="#2563eb"></circle><circle class="dot" cx="631.9650655021834" cy="0" r="3" fill="#2563eb"></circle><circle class="dot" cx="635.1091703056768" cy="0" r="3" fill="#2563eb"></circle><circle class="dot" cx="638.2532751091703" cy="0" r="3" fill="#2563eb"></circle><circle class="dot" cx="641.3973799126637" cy="0" r="3" fill="#2563eb"></circle><circle class="dot" cx="644.5414847161572" cy="0" r="3" fill="#2563eb"></circle><circle class="dot" cx="647.6855895196506" cy="0" r="3" fill="#2563eb"></circle><circle class="dot" cx="650.829694323144" cy="0" r="3" fill="#2563eb"></circle><circle class="dot" cx="653.9737991266376" cy="0" r="3" fill="#2563eb"></circle><circle class="dot" cx="657.117903930131" cy="0" r="3" fill="#2563eb"></circle><circle class="dot" cx="660.2620087336245" cy="0" r="3" fill="#2563eb"></circle><circle class="dot" cx="663.4061135371179" cy="0" r="3" fill="#2563eb"></circle><circle class="dot" cx="666.5502183406114" cy="0" r="3" fill="#2563eb"></circle><circle class="dot" cx="669.6943231441047" cy="0" r="3" fill="#2563eb"></circle><circle class="dot" cx="672.8384279475982" cy="0" r="3" fill="#2563eb"></circle><circle class="dot" cx="675.9825327510916" cy="0" r="3" fill="#2563eb"></circle><circle class="dot" cx="679.1266375545852" cy="0" r="3" fill="#2563eb"></circle><circle class="dot" cx="682.2707423580786" cy="0" r="3" fill="#2563eb"></circle><circle class="dot" cx="685.4148471615721" cy="0" r="3" fill="#2563eb"></circle><circle class="dot" cx="688.5589519650655" cy="0" r="3" fill="#2563eb"></circle><circle class="dot" cx="691.703056768559" cy="0" r="3" fill="#2563eb"></circle><circle class="dot" cx="694.8471615720524" cy="0" r="3" fill="#2563eb"></circle><circle class="dot" cx="697.9912663755459" cy="0" r="3" fill="#2563eb"></circle><circle class="dot" cx="701.1353711790393" cy="0" r="3" fill="#2563eb"></circle><circle class="dot" cx="704.2794759825327" cy="0" r="3" fill="#2563eb"></circle><circle class="dot" cx="707.4235807860262" cy="0" r="3" fill="#2563eb"></circle><circle class="dot" cx="710.5676855895197" cy="0" r="3" fill="#2563eb"></circle><circle class="dot" cx="713.7117903930131" cy="0" r="3" fill="#2563eb"></circle><circle class="dot" cx="716.8558951965066" cy="0" r="3" fill="#2563eb"></circle><circle class="dot" cx="720" cy="0" r="3" fill="#2563eb"></circle><g class="grid" transform="translate(0,340)" fill="none" font-size="10" font-family="sans-serif" text-anchor="middle" style="stroke-dasharray: 3,3; opacity: 0.3;"><path class="domain" stroke="currentColor" d="M0.5,-340V0.5H720.5V-340"></path><g class="tick" opacity="1" transform="translate(0.5,0)"><line stroke="currentColor" y2="-340"></line><text fill="currentColor" y="3" dy="0.71em"></text></g><g class="tick" opacity="1" transform="translate(75.95851528384279,0)"><line stroke="currentColor" y2="-340"></line><text fill="currentColor" y="3" dy="0.71em"></text></g><g class="tick" opacity="1" transform="translate(151.41703056768557,0)"><line stroke="currentColor" y2="-340"></line><text fill="currentColor" y="3" dy="0.71em"></text></g><g class="tick" opacity="1" transform="translate(226.8755458515284,0)"><line stroke="currentColor" y2="-340"></line><text fill="currentColor" y="3" dy="0.71em"></text></g><g class="tick" opacity="1" transform="translate(302.33406113537114,0)"><line stroke="currentColor" y2="-340"></line><text fill="currentColor" y="3" dy="0.71em"></text></g><g class="tick" opacity="1" transform="translate(377.79257641921396,0)"><line stroke="currentColor" y2="-340"></line><text fill="currentColor" y="3" dy="0.71em"></text></g><g class="tick" opacity="1" transform="translate(453.2510917030568,0)"><line stroke="currentColor" y2="-340"></line><text fill="currentColor" y="3" dy="0.71em"></text></g><g class="tick" opacity="1" transform="translate(528.7096069868996,0)"><line stroke="currentColor" y2="-340"></line><text fill="currentColor" y="3" dy="0.71em"></text></g><g class="tick" opacity="1" transform="translate(604.1681222707423,0)"><line stroke="currentColor" y2="-340"></line><text fill="currentColor" y="3" dy="0.71em"></text></g><g class="tick" opacity="1" transform="translate(679.6266375545852,0)"><line stroke="currentColor" y2="-340"></line><text fill="currentColor" y="3" dy="0.71em"></text></g></g><g class="grid" fill="none" font-size="10" font-family="sans-serif" text-anchor="end" style="stroke-dasharray: 3,3; opacity: 0.3;"><path class="domain" stroke="currentColor" d="M720,340.5H0.5V0.5H720"></path><g class="tick" opacity="1" transform="translate(0,340.5)"><line stroke="currentColor" x2="720"></line><text fill="currentColor" x="-3" dy="0.32em"></text></g><g class="tick" opacity="1" transform="translate(0,306.5)"><line stroke="currentColor" x2="720"></line><text fill="currentColor" x="-3" dy="0.32em"></text></g><g class="tick" opacity="1" transform="translate(0,272.5)"><line stroke="currentColor" x2="720"></line><text fill="currentColor" x="-3" dy="0.32em"></text></g><g class="tick" opacity="1" transform="translate(0,238.49999999999997)"><line stroke="currentColor" x2="720"></line><text fill="currentColor" x="-3" dy="0.32em"></text></g><g class="tick" opacity="1" transform="translate(0,204.50000000000003)"><line stroke="currentColor" x2="720"></line><text fill="currentColor" x="-3" dy="0.32em"></text></g><g class="tick" opacity="1" transform="translate(0,170.49999999999997)"><line stroke="currentColor" x2="720"></line><text fill="currentColor" x="-3" dy="0.32em"></text></g><g class="tick" opacity="1" transform="translate(0,136.5)"><line stroke="currentColor" x2="720"></line><text fill="currentColor" x="-3" dy="0.32em"></text></g><g class="tick" opacity="1" transform="translate(0,102.49999999999997)"><line stroke="currentColor" x2="720"></line><text fill="currentColor" x="-3" dy="0.32em"></text></g><g class="tick" opacity="1" transform="translate(0,68.49999999999994)"><line stroke="currentColor" x2="720"></line><text fill="currentColor" x="-3" dy="0.32em"></text></g><g class="tick" opacity="1" transform="translate(0,34.499999999999915)"><line stroke="currentColor" x2="720"></line><text fill="currentColor" x="-3" dy="0.32em"></text></g><g class="tick" opacity="1" transform="translate(0,0.5)"><line stroke="currentColor" x2="720"></line><text fill="currentColor" x="-3" dy="0.32em"></text></g></g></g><text x="400" y="10" text-anchor="middle" style="font-size: 16px; font-weight: bold; fill: #333;">OKX USDT Lending Rate - Current Month</text></svg>