<svg width="800" height="400" xmlns="http://www.w3.org/2000/svg"><g transform="translate(50,20)"><g transform="translate(0,340)" fill="none" font-size="10" font-family="sans-serif" text-anchor="middle"><path class="domain" stroke="currentColor" d="M0.5,6V0.5H720.5V6"></path><g class="tick" opacity="1" transform="translate(0.5,0)"><line stroke="currentColor" y2="6"></line><text fill="currentColor" y="9" dy=".15em" style="text-anchor: end;" dx="-.8em" transform="rotate(-45)">09/01</text></g><g class="tick" opacity="1" transform="translate(33.540152963671126,0)"><line stroke="currentColor" y2="6"></line><text fill="currentColor" y="9" dy=".15em" style="text-anchor: end;" dx="-.8em" transform="rotate(-45)">09/02</text></g><g class="tick" opacity="1" transform="translate(66.58030592734225,0)"><line stroke="currentColor" y2="6"></line><text fill="currentColor" y="9" dy=".15em" style="text-anchor: end;" dx="-.8em" transform="rotate(-45)">09/03</text></g><g class="tick" opacity="1" transform="translate(99.62045889101339,0)"><line stroke="currentColor" y2="6"></line><text fill="currentColor" y="9" dy=".15em" style="text-anchor: end;" dx="-.8em" transform="rotate(-45)">09/04</text></g><g class="tick" opacity="1" transform="translate(132.6606118546845,0)"><line stroke="currentColor" y2="6"></line><text fill="currentColor" y="9" dy=".15em" style="text-anchor: end;" dx="-.8em" transform="rotate(-45)">09/05</text></g><g class="tick" opacity="1" transform="translate(165.70076481835562,0)"><line stroke="currentColor" y2="6"></line><text fill="currentColor" y="9" dy=".15em" style="text-anchor: end;" dx="-.8em" transform="rotate(-45)">09/06</text></g><g class="tick" opacity="1" transform="translate(198.74091778202677,0)"><line stroke="currentColor" y2="6"></line><text fill="currentColor" y="9" dy=".15em" style="text-anchor: end;" dx="-.8em" transform="rotate(-45)">09/07</text></g><g class="tick" opacity="1" transform="translate(231.7810707456979,0)"><line stroke="currentColor" y2="6"></line><text fill="currentColor" y="9" dy=".15em" style="text-anchor: end;" dx="-.8em" transform="rotate(-45)">09/08</text></g><g class="tick" opacity="1" transform="translate(264.821223709369,0)"><line stroke="currentColor" y2="6"></line><text fill="currentColor" y="9" dy=".15em" style="text-anchor: end;" dx="-.8em" transform="rotate(-45)">09/09</text></g><g class="tick" opacity="1" transform="translate(297.8613766730401,0)"><line stroke="currentColor" y2="6"></line><text fill="currentColor" y="9" dy=".15em" style="text-anchor: end;" dx="-.8em" transform="rotate(-45)">09/10</text></g><g class="tick" opacity="1" transform="translate(330.90152963671125,0)"><line stroke="currentColor" y2="6"></line><text fill="currentColor" y="9" dy=".15em" style="text-anchor: end;" dx="-.8em" transform="rotate(-45)">09/11</text></g><g class="tick" opacity="1" transform="translate(363.94168260038236,0)"><line stroke="currentColor" y2="6"></line><text fill="currentColor" y="9" dy=".15em" style="text-anchor: end;" dx="-.8em" transform="rotate(-45)">09/12</text></g><g class="tick" opacity="1" transform="translate(396.98183556405354,0)"><line stroke="currentColor" y2="6"></line><text fill="currentColor" y="9" dy=".15em" style="text-anchor: end;" dx="-.8em" transform="rotate(-45)">09/13</text></g><g class="tick" opacity="1" transform="translate(430.0219885277247,0)"><line stroke="currentColor" y2="6"></line><text fill="currentColor" y="9" dy=".15em" style="text-anchor: end;" dx="-.8em" transform="rotate(-45)">09/14</text></g><g class="tick" opacity="1" transform="translate(463.0621414913958,0)"><line stroke="currentColor" y2="6"></line><text fill="currentColor" y="9" dy=".15em" style="text-anchor: end;" dx="-.8em" transform="rotate(-45)">09/15</text></g><g class="tick" opacity="1" transform="translate(496.1022944550669,0)"><line stroke="currentColor" y2="6"></line><text fill="currentColor" y="9" dy=".15em" style="text-anchor: end;" dx="-.8em" transform="rotate(-45)">09/16</text></g><g class="tick" opacity="1" transform="translate(529.142447418738,0)"><line stroke="currentColor" y2="6"></line><text fill="currentColor" y="9" dy=".15em" style="text-anchor: end;" dx="-.8em" transform="rotate(-45)">09/17</text></g><g class="tick" opacity="1" transform="translate(562.1826003824092,0)"><line stroke="currentColor" y2="6"></line><text fill="currentColor" y="9" dy=".15em" style="text-anchor: end;" dx="-.8em" transform="rotate(-45)">09/18</text></g><g class="tick" opacity="1" transform="translate(595.2227533460803,0)"><line stroke="currentColor" y2="6"></line><text fill="currentColor" y="9" dy=".15em" style="text-anchor: end;" dx="-.8em" transform="rotate(-45)">09/19</text></g><g class="tick" opacity="1" transform="translate(628.2629063097514,0)"><line stroke="currentColor" y2="6"></line><text fill="currentColor" y="9" dy=".15em" style="text-anchor: end;" dx="-.8em" transform="rotate(-45)">09/20</text></g><g class="tick" opacity="1" transform="translate(661.3030592734225,0)"><line stroke="currentColor" y2="6"></line><text fill="currentColor" y="9" dy=".15em" style="text-anchor: end;" dx="-.8em" transform="rotate(-45)">09/21</text></g><g class="tick" opacity="1" transform="translate(694.3432122370937,0)"><line stroke="currentColor" y2="6"></line><text fill="currentColor" y="9" dy=".15em" style="text-anchor: end;" dx="-.8em" transform="rotate(-45)">09/22</text></g></g><g fill="none" font-size="10" font-family="sans-serif" text-anchor="end"><path class="domain" stroke="currentColor" d="M-6,340.5H0.5V0.5H-6"></path><g class="tick" opacity="1" transform="translate(0,340.5)"><line stroke="currentColor" x2="-6"></line><text fill="currentColor" x="-9" dy="0.32em">4.00%</text></g><g class="tick" opacity="1" transform="translate(0,314.34615384615387)"><line stroke="currentColor" x2="-6"></line><text fill="currentColor" x="-9" dy="0.32em">6.00%</text></g><g class="tick" opacity="1" transform="translate(0,288.1923076923077)"><line stroke="currentColor" x2="-6"></line><text fill="currentColor" x="-9" dy="0.32em">8.00%</text></g><g class="tick" opacity="1" transform="translate(0,262.0384615384615)"><line stroke="currentColor" x2="-6"></line><text fill="currentColor" x="-9" dy="0.32em">10.00%</text></g><g class="tick" opacity="1" transform="translate(0,235.8846153846154)"><line stroke="currentColor" x2="-6"></line><text fill="currentColor" x="-9" dy="0.32em">12.00%</text></g><g class="tick" opacity="1" transform="translate(0,209.73076923076925)"><line stroke="currentColor" x2="-6"></line><text fill="currentColor" x="-9" dy="0.32em">14.00%</text></g><g class="tick" opacity="1" transform="translate(0,183.5769230769231)"><line stroke="currentColor" x2="-6"></line><text fill="currentColor" x="-9" dy="0.32em">16.00%</text></g><g class="tick" opacity="1" transform="translate(0,157.42307692307693)"><line stroke="currentColor" x2="-6"></line><text fill="currentColor" x="-9" dy="0.32em">18.00%</text></g><g class="tick" opacity="1" transform="translate(0,131.26923076923075)"><line stroke="currentColor" x2="-6"></line><text fill="currentColor" x="-9" dy="0.32em">20.00%</text></g><g class="tick" opacity="1" transform="translate(0,105.11538461538463)"><line stroke="currentColor" x2="-6"></line><text fill="currentColor" x="-9" dy="0.32em">22.00%</text></g><g class="tick" opacity="1" transform="translate(0,78.96153846153848)"><line stroke="currentColor" x2="-6"></line><text fill="currentColor" x="-9" dy="0.32em">24.00%</text></g><g class="tick" opacity="1" transform="translate(0,52.807692307692314)"><line stroke="currentColor" x2="-6"></line><text fill="currentColor" x="-9" dy="0.32em">26.00%</text></g><g class="tick" opacity="1" transform="translate(0,26.653846153846136)"><line stroke="currentColor" x2="-6"></line><text fill="currentColor" x="-9" dy="0.32em">28.00%</text></g><g class="tick" opacity="1" transform="translate(0,0.5)"><line stroke="currentColor" x2="-6"></line><text fill="currentColor" x="-9" dy="0.32em">30.00%</text></g></g><text transform="rotate(-90)" y="-50" x="-170" dy="1em" style="text-anchor: middle; font-size: 12px; fill: #666;">Pre Rate (%)</text><text transform="translate(360, 380)" style="text-anchor: middle; font-size: 12px; fill: #666;">Time (UTC)</text><path fill="none" stroke="#2563eb" stroke-width="2" d="M0,340C0.459,340,0.918,340,1.377,340C1.836,340,2.294,340,2.753,340C3.212,340,3.671,340,4.13,340C4.589,340,5.048,340,5.507,340C5.966,340,6.424,340,6.883,340C7.342,340,7.801,340,8.26,340C8.719,340,9.178,340,9.637,340C10.096,340,10.554,296.41,11.013,287.692C11.472,278.974,11.931,274.615,12.39,274.615C12.849,274.615,13.308,292.051,13.767,300.769C14.226,309.487,14.685,326.923,15.143,326.923C15.602,326.923,16.061,322.564,16.52,313.846C16.979,305.128,17.438,274.615,17.897,274.615C18.356,274.615,18.815,300.769,19.273,300.769C19.732,300.769,20.191,300.769,20.65,300.769C21.109,300.769,21.568,300.769,22.027,300.769C22.486,300.769,22.945,300.769,23.403,300.769C23.862,300.769,24.321,326.923,24.78,326.923C25.239,326.923,25.698,318.205,26.157,313.846C26.616,309.487,27.075,300.769,27.533,300.769C27.992,300.769,28.451,340,28.91,340C29.369,340,29.828,340,30.287,340C30.746,340,31.205,340,31.663,340C32.122,340,32.581,313.846,33.04,313.846C33.499,313.846,33.958,326.923,34.417,326.923C34.876,326.923,35.335,322.564,35.793,313.846C36.252,305.128,36.711,283.333,37.17,274.615C37.629,265.897,38.088,261.538,38.547,261.538C39.006,261.538,39.465,270.256,39.924,274.615C40.382,278.974,40.841,287.692,41.3,287.692C41.759,287.692,42.218,235.385,42.677,235.385C43.136,235.385,43.595,252.821,44.054,261.538C44.512,270.256,44.971,287.692,45.43,287.692C45.889,287.692,46.348,287.692,46.807,287.692C47.266,287.692,47.725,287.692,48.184,287.692C48.642,287.692,49.101,296.41,49.56,300.769C50.019,305.128,50.478,313.846,50.937,313.846C51.396,313.846,51.855,235.385,52.314,235.385C52.772,235.385,53.231,248.462,53.69,261.538C54.149,274.615,54.608,313.846,55.067,313.846C55.526,313.846,55.985,287.692,56.444,287.692C56.902,287.692,57.361,300.769,57.82,300.769C58.279,300.769,58.738,300.769,59.197,300.769C59.656,300.769,60.115,313.846,60.574,313.846C61.033,313.846,61.491,261.538,61.95,261.538C62.409,261.538,62.868,261.538,63.327,261.538C63.786,261.538,64.245,248.462,64.704,248.462C65.163,248.462,65.621,248.462,66.08,248.462C66.539,248.462,66.998,261.538,67.457,261.538C67.916,261.538,68.375,248.462,68.834,248.462C69.293,248.462,69.751,248.462,70.21,248.462C70.669,248.462,71.128,268.077,71.587,274.615C72.046,281.154,72.505,281.154,72.964,287.692C73.423,294.231,73.881,307.308,74.34,313.846C74.799,320.385,75.258,326.923,75.717,326.923C76.176,326.923,76.635,313.846,77.094,313.846C77.553,313.846,78.011,340,78.47,340C78.929,340,79.388,326.923,79.847,326.923C80.306,326.923,80.765,326.923,81.224,326.923C81.683,326.923,82.141,326.923,82.6,326.923C83.059,326.923,83.518,340,83.977,340C84.436,340,84.895,292.051,85.354,274.615C85.813,257.179,86.272,235.385,86.73,235.385C87.189,235.385,87.648,241.923,88.107,248.462C88.566,255,89.025,265.897,89.484,274.615C89.943,283.333,90.402,294.231,90.86,300.769C91.319,307.308,91.778,313.846,92.237,313.846C92.696,313.846,93.155,305.128,93.614,300.769C94.073,296.41,94.532,287.692,94.99,287.692C95.449,287.692,95.908,287.692,96.367,287.692C96.826,287.692,97.285,287.692,97.744,287.692C98.203,287.692,98.662,287.692,99.12,287.692C99.579,287.692,100.038,261.538,100.497,261.538C100.956,261.538,101.415,265.897,101.874,274.615C102.333,283.333,102.792,313.846,103.25,313.846C103.709,313.846,104.168,313.846,104.627,313.846C105.086,313.846,105.545,313.846,106.004,313.846C106.463,313.846,106.922,313.846,107.38,313.846C107.839,313.846,108.298,326.923,108.757,326.923C109.216,326.923,109.675,300.769,110.134,300.769C110.593,300.769,111.052,300.769,111.511,300.769C111.969,300.769,112.428,287.692,112.887,287.692C113.346,287.692,113.805,300.769,114.264,300.769C114.723,300.769,115.182,300.769,115.641,300.769C116.099,300.769,116.558,307.308,117.017,313.846C117.476,320.385,117.935,340,118.394,340C118.853,340,119.312,340,119.771,340C120.229,340,120.688,340,121.147,340C121.606,340,122.065,340,122.524,340C122.983,340,123.442,340,123.901,340C124.359,340,124.818,340,125.277,340C125.736,340,126.195,340,126.654,340C127.113,340,127.572,340,128.031,340C128.489,340,128.948,340,129.407,340C129.866,340,130.325,340,130.784,340C131.243,340,131.702,340,132.161,340C132.62,340,133.078,340,133.537,340C133.996,340,134.455,340,134.914,340C135.373,340,135.832,340,136.291,340C136.75,340,137.208,340,137.667,340C138.126,340,138.585,340,139.044,340C139.503,340,139.962,340,140.421,340C140.88,340,141.338,340,141.797,340C142.256,340,142.715,274.615,143.174,274.615C143.633,274.615,144.092,340,144.551,340C145.01,340,145.468,340,145.927,340C146.386,340,146.845,340,147.304,340C147.763,340,148.222,335.641,148.681,326.923C149.14,318.205,149.598,248.462,150.057,248.462C150.516,248.462,150.975,252.821,151.434,261.538C151.893,270.256,152.352,340,152.811,340C153.27,340,153.728,331.282,154.187,326.923C154.646,322.564,155.105,313.846,155.564,313.846C156.023,313.846,156.482,326.923,156.941,326.923C157.4,326.923,157.859,313.846,158.317,313.846C158.776,313.846,159.235,313.846,159.694,313.846C160.153,313.846,160.612,313.846,161.071,313.846C161.53,313.846,161.989,340,162.447,340C162.906,340,163.365,340,163.824,340C164.283,340,164.742,340,165.201,340C165.66,340,166.119,326.923,166.577,326.923C167.036,326.923,167.495,340,167.954,340C168.413,340,168.872,340,169.331,340C169.79,340,170.249,340,170.707,340C171.166,340,171.625,340,172.084,340C172.543,340,173.002,340,173.461,340C173.92,340,174.379,340,174.837,340C175.296,340,175.755,340,176.214,340C176.673,340,177.132,340,177.591,340C178.05,340,178.509,340,178.967,340C179.426,340,179.885,340,180.344,340C180.803,340,181.262,340,181.721,340C182.18,340,182.639,340,183.098,340C183.556,340,184.015,340,184.474,340C184.933,340,185.392,340,185.851,340C186.31,340,186.769,340,187.228,340C187.686,340,188.145,340,188.604,340C189.063,340,189.522,340,189.981,340C190.44,340,190.899,340,191.358,340C191.816,340,192.275,340,192.734,340C193.193,340,193.652,340,194.111,340C194.57,340,195.029,340,195.488,340C195.946,340,196.405,340,196.864,340C197.323,340,197.782,340,198.241,340C198.7,340,199.159,340,199.618,340C200.076,340,200.535,340,200.994,340C201.453,340,201.912,340,202.371,340C202.83,340,203.289,340,203.748,340C204.207,340,204.665,340,205.124,340C205.583,340,206.042,340,206.501,340C206.96,340,207.419,340,207.878,340C208.337,340,208.795,313.846,209.254,313.846C209.713,313.846,210.172,322.564,210.631,326.923C211.09,331.282,211.549,340,212.008,340C212.467,340,212.925,331.282,213.384,326.923C213.843,322.564,214.302,313.846,214.761,313.846C215.22,313.846,215.679,313.846,216.138,313.846C216.597,313.846,217.055,307.308,217.514,300.769C217.973,294.231,218.432,274.615,218.891,274.615C219.35,274.615,219.809,274.615,220.268,274.615C220.727,274.615,221.185,283.333,221.644,287.692C222.103,292.051,222.562,300.769,223.021,300.769C223.48,300.769,223.939,300.769,224.398,300.769C224.857,300.769,225.315,287.692,225.774,287.692C226.233,287.692,226.692,300.769,227.151,300.769C227.61,300.769,228.069,300.769,228.528,300.769C228.987,300.769,229.446,274.615,229.904,274.615C230.363,274.615,230.822,274.615,231.281,274.615C231.74,274.615,232.199,261.538,232.658,261.538C233.117,261.538,233.576,261.538,234.034,261.538C234.493,261.538,234.952,248.462,235.411,248.462C235.87,248.462,236.329,257.179,236.788,261.538C237.247,265.897,237.706,274.615,238.164,274.615C238.623,274.615,239.082,274.615,239.541,274.615C240,274.615,240.459,287.692,240.918,287.692C241.377,287.692,241.836,287.692,242.294,287.692C242.753,287.692,243.212,281.154,243.671,274.615C244.13,268.077,244.589,255,245.048,248.462C245.507,241.923,245.966,235.385,246.424,235.385C246.883,235.385,247.342,235.385,247.801,235.385C248.26,235.385,248.719,235.385,249.178,235.385C249.637,235.385,250.096,248.462,250.554,248.462C251.013,248.462,251.472,231.026,251.931,222.308C252.39,213.59,252.849,196.154,253.308,196.154C253.767,196.154,254.226,202.692,254.685,209.231C255.143,215.769,255.602,235.385,256.061,235.385C256.52,235.385,256.979,209.231,257.438,209.231C257.897,209.231,258.356,248.462,258.815,248.462C259.273,248.462,259.732,248.462,260.191,248.462C260.65,248.462,261.109,222.308,261.568,222.308C262.027,222.308,262.486,231.026,262.945,235.385C263.403,239.744,263.862,248.462,264.321,248.462C264.78,248.462,265.239,248.462,265.698,248.462C266.157,248.462,266.616,196.154,267.075,196.154C267.533,196.154,267.992,196.154,268.451,196.154C268.91,196.154,269.369,183.077,269.828,183.077C270.287,183.077,270.746,248.462,271.205,248.462C271.663,248.462,272.122,248.462,272.581,248.462C273.04,248.462,273.499,204.872,273.958,196.154C274.417,187.436,274.876,183.077,275.335,183.077C275.793,183.077,276.252,183.077,276.711,183.077C277.17,183.077,277.629,183.077,278.088,183.077C278.547,183.077,279.006,191.795,279.465,196.154C279.924,200.513,280.382,209.231,280.841,209.231C281.3,209.231,281.759,200.513,282.218,196.154C282.677,191.795,283.136,183.077,283.595,183.077C284.054,183.077,284.512,224.487,284.971,248.462C285.43,272.436,285.889,326.923,286.348,326.923C286.807,326.923,287.266,326.923,287.725,326.923C288.184,326.923,288.642,318.205,289.101,313.846C289.56,309.487,290.019,305.128,290.478,300.769C290.937,296.41,291.396,287.692,291.855,287.692C292.314,287.692,292.772,287.692,293.231,287.692C293.69,287.692,294.149,300.769,294.608,300.769C295.067,300.769,295.526,287.692,295.985,287.692C296.444,287.692,296.902,287.692,297.361,287.692C297.82,287.692,298.279,313.846,298.738,313.846C299.197,313.846,299.656,307.308,300.115,300.769C300.574,294.231,301.033,274.615,301.491,274.615C301.95,274.615,302.409,274.615,302.868,274.615C303.327,274.615,303.786,283.333,304.245,287.692C304.704,292.051,305.163,300.769,305.621,300.769C306.08,300.769,306.539,239.744,306.998,222.308C307.457,204.872,307.916,196.154,308.375,196.154C308.834,196.154,309.293,222.308,309.751,222.308C310.21,222.308,310.669,222.308,311.128,222.308C311.587,222.308,312.046,226.667,312.505,235.385C312.964,244.103,313.423,326.923,313.881,326.923C314.34,326.923,314.799,292.051,315.258,274.615C315.717,257.179,316.176,222.308,316.635,222.308C317.094,222.308,317.553,237.564,318.011,248.462C318.47,259.359,318.929,278.974,319.388,287.692C319.847,296.41,320.306,296.41,320.765,300.769C321.224,305.128,321.683,307.308,322.141,313.846C322.6,320.385,323.059,340,323.518,340C323.977,340,324.436,340,324.895,340C325.354,340,325.813,340,326.272,340C326.73,340,327.189,340,327.648,340C328.107,340,328.566,340,329.025,340C329.484,340,329.943,340,330.402,340C330.86,340,331.319,340,331.778,340C332.237,340,332.696,340,333.155,340C333.614,340,334.073,340,334.532,340C334.99,340,335.449,326.923,335.908,326.923C336.367,326.923,336.826,326.923,337.285,326.923C337.744,326.923,338.203,326.923,338.662,326.923C339.12,326.923,339.579,313.846,340.038,313.846C340.497,313.846,340.956,313.846,341.415,313.846C341.874,313.846,342.333,340,342.792,340C343.25,340,343.709,340,344.168,340C344.627,340,345.086,326.923,345.545,326.923C346.004,326.923,346.463,326.923,346.922,326.923C347.38,326.923,347.839,296.41,348.298,287.692C348.757,278.974,349.216,274.615,349.675,274.615C350.134,274.615,350.593,281.154,351.052,287.692C351.511,294.231,351.969,313.846,352.428,313.846C352.887,313.846,353.346,313.846,353.805,313.846C354.264,313.846,354.723,340,355.182,340C355.641,340,356.099,340,356.558,340C357.017,340,357.476,340,357.935,340C358.394,340,358.853,340,359.312,340C359.771,340,360.229,340,360.688,340C361.147,340,361.606,333.462,362.065,326.923C362.524,320.385,362.983,316.026,363.442,300.769C363.901,285.513,364.359,235.385,364.818,235.385C365.277,235.385,365.736,261.538,366.195,261.538C366.654,261.538,367.113,248.462,367.572,248.462C368.031,248.462,368.489,248.462,368.948,248.462C369.407,248.462,369.866,244.103,370.325,235.385C370.784,226.667,371.243,213.59,371.702,196.154C372.161,178.718,372.62,130.769,373.078,130.769C373.537,130.769,373.996,148.205,374.455,156.923C374.914,165.641,375.373,170,375.832,183.077C376.291,196.154,376.75,235.385,377.208,235.385C377.667,235.385,378.126,235.385,378.585,235.385C379.044,235.385,379.503,235.385,379.962,235.385C380.421,235.385,380.88,235.385,381.338,235.385C381.797,235.385,382.256,235.385,382.715,235.385C383.174,235.385,383.633,222.308,384.092,222.308C384.551,222.308,385.01,248.462,385.468,248.462C385.927,248.462,386.386,241.923,386.845,235.385C387.304,228.846,387.763,217.949,388.222,209.231C388.681,200.513,389.14,196.154,389.598,183.077C390.057,170,390.516,130.769,390.975,130.769C391.434,130.769,391.893,130.769,392.352,130.769C392.811,130.769,393.27,156.923,393.728,156.923C394.187,156.923,394.646,100.256,395.105,91.538C395.564,82.821,396.023,78.462,396.482,78.462C396.941,78.462,397.4,78.462,397.859,78.462C398.317,78.462,398.776,104.615,399.235,104.615C399.694,104.615,400.153,100.256,400.612,91.538C401.071,82.821,401.53,52.308,401.989,52.308C402.447,52.308,402.906,52.308,403.365,52.308C403.824,52.308,404.283,65.385,404.742,65.385C405.201,65.385,405.66,65.385,406.119,65.385C406.577,65.385,407.036,56.667,407.495,52.308C407.954,47.949,408.413,45.769,408.872,39.231C409.331,32.692,409.79,13.077,410.249,13.077C410.707,13.077,411.166,54.487,411.625,78.462C412.084,102.436,412.543,113.333,413.002,156.923C413.461,200.513,413.92,340,414.379,340C414.837,340,415.296,340,415.755,340C416.214,340,416.673,340,417.132,340C417.591,340,418.05,340,418.509,340C418.967,340,419.426,340,419.885,340C420.344,340,420.803,340,421.262,340C421.721,340,422.18,340,422.639,340C423.098,340,423.556,340,424.015,340C424.474,340,424.933,340,425.392,340C425.851,340,426.31,340,426.769,340C427.228,340,427.686,340,428.145,340C428.604,340,429.063,313.846,429.522,313.846C429.981,313.846,430.44,313.846,430.899,313.846C431.358,313.846,431.816,289.872,432.275,274.615C432.734,259.359,433.193,222.308,433.652,222.308C434.111,222.308,434.57,287.692,435.029,287.692C435.488,287.692,435.946,283.333,436.405,274.615C436.864,265.897,437.323,222.308,437.782,222.308C438.241,222.308,438.7,248.462,439.159,248.462C439.618,248.462,440.076,248.462,440.535,248.462C440.994,248.462,441.453,248.462,441.912,248.462C442.371,248.462,442.83,235.385,443.289,235.385C443.748,235.385,444.207,239.744,444.665,248.462C445.124,257.179,445.583,326.923,446.042,326.923C446.501,326.923,446.96,326.923,447.419,326.923C447.878,326.923,448.337,340,448.795,340C449.254,340,449.713,340,450.172,340C450.631,340,451.09,340,451.549,340C452.008,340,452.467,307.308,452.925,287.692C453.384,268.077,453.843,222.308,454.302,222.308C454.761,222.308,455.22,261.538,455.679,274.615C456.138,287.692,456.597,300.769,457.055,300.769C457.514,300.769,457.973,294.231,458.432,287.692C458.891,281.154,459.35,261.538,459.809,261.538C460.268,261.538,460.727,274.615,461.185,287.692C461.644,300.769,462.103,340,462.562,340C463.021,340,463.48,331.282,463.939,326.923C464.398,322.564,464.857,313.846,465.315,313.846C465.774,313.846,466.233,340,466.692,340C467.151,340,467.61,340,468.069,340C468.528,340,468.987,340,469.446,340C469.904,340,470.363,340,470.822,340C471.281,340,471.74,340,472.199,340C472.658,340,473.117,340,473.576,340C474.034,340,474.493,340,474.952,340C475.411,340,475.87,340,476.329,340C476.788,340,477.247,340,477.706,340C478.164,340,478.623,340,479.082,340C479.541,340,480,340,480.459,340C480.918,340,481.377,340,481.836,340C482.294,340,482.753,340,483.212,340C483.671,340,484.13,340,484.589,340C485.048,340,485.507,340,485.966,340C486.424,340,486.883,340,487.342,340C487.801,340,488.26,340,488.719,340C489.178,340,489.637,340,490.096,340C490.554,340,491.013,340,491.472,340C491.931,340,492.39,340,492.849,340C493.308,340,493.767,340,494.226,340C494.685,340,495.143,340,495.602,340C496.061,340,496.52,340,496.979,340C497.438,340,497.897,340,498.356,340C498.815,340,499.273,340,499.732,340C500.191,340,500.65,340,501.109,340C501.568,340,502.027,340,502.486,340C502.945,340,503.403,340,503.862,340C504.321,340,504.78,340,505.239,340C505.698,340,506.157,340,506.616,340C507.075,340,507.533,340,507.992,340C508.451,340,508.91,340,509.369,340C509.828,340,510.287,340,510.746,340C511.205,340,511.663,340,512.122,340C512.581,340,513.04,340,513.499,340C513.958,340,514.417,340,514.876,340C515.335,340,515.793,340,516.252,340C516.711,340,517.17,340,517.629,340C518.088,340,518.547,340,519.006,340C519.465,340,519.924,340,520.382,340C520.841,340,521.3,340,521.759,340C522.218,340,522.677,340,523.136,340C523.595,340,524.054,340,524.512,340C524.971,340,525.43,340,525.889,340C526.348,340,526.807,340,527.266,340C527.725,340,528.184,340,528.642,340C529.101,340,529.56,340,530.019,340C530.478,340,530.937,340,531.396,340C531.855,340,532.314,340,532.772,340C533.231,340,533.69,340,534.149,340C534.608,340,535.067,340,535.526,340C535.985,340,536.444,340,536.902,340C537.361,340,537.82,340,538.279,340C538.738,340,539.197,340,539.656,340C540.115,340,540.574,340,541.033,340C541.491,340,541.95,340,542.409,340C542.868,340,543.327,340,543.786,340C544.245,340,544.704,340,545.163,340C545.621,340,546.08,340,546.539,340C546.998,340,547.457,340,547.916,340C548.375,340,548.834,340,549.293,340C549.751,340,550.21,340,550.669,340C551.128,340,551.587,340,552.046,340C552.505,340,552.964,340,553.423,340C553.881,340,554.34,340,554.799,340C555.258,340,555.717,340,556.176,340C556.635,340,557.094,340,557.553,340C558.011,340,558.47,340,558.929,340C559.388,340,559.847,340,560.306,340C560.765,340,561.224,340,561.683,340C562.141,340,562.6,340,563.059,340C563.518,340,563.977,340,564.436,340C564.895,340,565.354,340,565.813,340C566.272,340,566.73,340,567.189,340C567.648,340,568.107,340,568.566,340C569.025,340,569.484,340,569.943,340C570.402,340,570.86,340,571.319,340C571.778,340,572.237,340,572.696,340C573.155,340,573.614,340,574.073,340C574.532,340,574.99,340,575.449,340C575.908,340,576.367,340,576.826,340C577.285,340,577.744,340,578.203,340C578.662,340,579.12,340,579.579,340C580.038,340,580.497,340,580.956,340C581.415,340,581.874,326.923,582.333,326.923C582.792,326.923,583.25,326.923,583.709,326.923C584.168,326.923,584.627,326.923,585.086,326.923C585.545,326.923,586.004,326.923,586.463,326.923C586.922,326.923,587.38,326.923,587.839,326.923C588.298,326.923,588.757,326.923,589.216,326.923C589.675,326.923,590.134,326.923,590.593,326.923C591.052,326.923,591.511,326.923,591.969,326.923C592.428,326.923,592.887,326.923,593.346,326.923C593.805,326.923,594.264,326.923,594.723,326.923C595.182,326.923,595.641,326.923,596.099,326.923C596.558,326.923,597.017,326.923,597.476,326.923C597.935,326.923,598.394,326.923,598.853,326.923C599.312,326.923,599.771,326.923,600.229,326.923C600.688,326.923,601.147,326.923,601.606,326.923C602.065,326.923,602.524,326.923,602.983,326.923C603.442,326.923,603.901,326.923,604.359,326.923C604.818,326.923,605.277,326.923,605.736,326.923C606.195,326.923,606.654,326.923,607.113,326.923C607.572,326.923,608.031,326.923,608.489,326.923C608.948,326.923,609.407,326.923,609.866,326.923C610.325,326.923,610.784,326.923,611.243,326.923C611.702,326.923,612.161,326.923,612.62,326.923C613.078,326.923,613.537,326.923,613.996,326.923C614.455,326.923,614.914,326.923,615.373,326.923C615.832,326.923,616.291,326.923,616.75,326.923C617.208,326.923,617.667,326.923,618.126,326.923C618.585,326.923,619.044,326.923,619.503,326.923C619.962,326.923,620.421,326.923,620.88,326.923C621.338,326.923,621.797,326.923,622.256,326.923C622.715,326.923,623.174,326.923,623.633,326.923C624.092,326.923,624.551,326.923,625.01,326.923C625.468,326.923,625.927,326.923,626.386,326.923C626.845,326.923,627.304,326.923,627.763,326.923C628.222,326.923,628.681,326.923,629.14,326.923C629.598,326.923,630.057,326.923,630.516,326.923C630.975,326.923,631.434,326.923,631.893,326.923C632.352,326.923,632.811,326.923,633.27,326.923C633.728,326.923,634.187,326.923,634.646,326.923C635.105,326.923,635.564,326.923,636.023,326.923C636.482,326.923,636.941,326.923,637.4,326.923C637.859,326.923,638.317,326.923,638.776,326.923C639.235,326.923,639.694,326.923,640.153,326.923C640.612,326.923,641.071,326.923,641.53,326.923C641.989,326.923,642.447,326.923,642.906,326.923C643.365,326.923,643.824,326.923,644.283,326.923C644.742,326.923,645.201,326.923,645.66,326.923C646.119,326.923,646.577,326.923,647.036,326.923C647.495,326.923,647.954,326.923,648.413,326.923C648.872,326.923,649.331,326.923,649.79,326.923C650.249,326.923,650.707,326.923,651.166,326.923C651.625,326.923,652.084,326.923,652.543,326.923C653.002,326.923,653.461,326.923,653.92,326.923C654.379,326.923,654.837,326.923,655.296,326.923C655.755,326.923,656.214,326.923,656.673,326.923C657.132,326.923,657.591,326.923,658.05,326.923C658.509,326.923,658.967,326.923,659.426,326.923C659.885,326.923,660.344,326.923,660.803,326.923C661.262,326.923,661.721,326.923,662.18,326.923C662.639,326.923,663.098,326.923,663.556,326.923C664.015,326.923,664.474,326.923,664.933,326.923C665.392,326.923,665.851,326.923,666.31,326.923C666.769,326.923,667.228,326.923,667.686,326.923C668.145,326.923,668.604,326.923,669.063,326.923C669.522,326.923,669.981,326.923,670.44,326.923C670.899,326.923,671.358,326.923,671.816,326.923C672.275,326.923,672.734,326.923,673.193,326.923C673.652,326.923,674.111,326.923,674.57,326.923C675.029,326.923,675.488,326.923,675.946,326.923C676.405,326.923,676.864,326.923,677.323,326.923C677.782,326.923,678.241,326.923,678.7,326.923C679.159,326.923,679.618,326.923,680.076,326.923C680.535,326.923,680.994,326.923,681.453,326.923C681.912,326.923,682.371,326.923,682.83,326.923C683.289,326.923,683.748,326.923,684.207,326.923C684.665,326.923,685.124,326.923,685.583,326.923C686.042,326.923,686.501,326.923,686.96,326.923C687.419,326.923,687.878,326.923,688.337,326.923C688.795,326.923,689.254,326.923,689.713,326.923C690.172,326.923,690.631,326.923,691.09,326.923C691.549,326.923,692.008,326.923,692.467,326.923C692.925,326.923,693.384,326.923,693.843,326.923C694.302,326.923,694.761,326.923,695.22,326.923C695.679,326.923,696.138,326.923,696.597,326.923C697.055,326.923,697.514,326.923,697.973,326.923C698.432,326.923,698.891,326.923,699.35,326.923C699.809,326.923,700.268,326.923,700.727,326.923C701.185,326.923,701.644,326.923,702.103,326.923C702.562,326.923,703.021,326.923,703.48,326.923C703.939,326.923,704.398,326.923,704.857,326.923C705.315,326.923,705.774,326.923,706.233,326.923C706.692,326.923,707.151,326.923,707.61,326.923C708.069,326.923,708.528,326.923,708.987,326.923C709.446,326.923,709.904,326.923,710.363,326.923C710.822,326.923,711.281,326.923,711.74,326.923C712.199,326.923,712.658,326.923,713.117,326.923C713.576,326.923,714.034,326.923,714.493,326.923C714.952,326.923,715.411,326.923,715.87,326.923C716.329,326.923,716.788,326.923,717.247,326.923C717.706,326.923,718.164,326.923,718.623,326.923C719.082,326.923,719.541,326.923,720,326.923"></path><circle class="dot" cx="0" cy="340" r="3" fill="#2563eb"></circle><circle class="dot" cx="1.3766730401529637" cy="340" r="3" fill="#2563eb"></circle><circle class="dot" cx="2.7533460803059273" cy="340" r="3" fill="#2563eb"></circle><circle class="dot" cx="4.130019120458891" cy="340" r="3" fill="#2563eb"></circle><circle class="dot" cx="5.506692160611855" cy="340" r="3" fill="#2563eb"></circle><circle class="dot" cx="6.8833652007648185" cy="340" r="3" fill="#2563eb"></circle><circle class="dot" cx="8.260038240917781" cy="340" r="3" fill="#2563eb"></circle><circle class="dot" cx="9.636711281070747" cy="340" r="3" fill="#2563eb"></circle><circle class="dot" cx="11.01338432122371" cy="287.6923076923077" r="3" fill="#2563eb"></circle><circle class="dot" cx="12.390057361376673" cy="274.61538461538464" r="3" fill="#2563eb"></circle><circle class="dot" cx="13.766730401529637" cy="300.7692307692308" r="3" fill="#2563eb"></circle><circle class="dot" cx="15.1434034416826" cy="326.9230769230769" r="3" fill="#2563eb"></circle><circle class="dot" cx="16.520076481835563" cy="313.84615384615387" r="3" fill="#2563eb"></circle><circle class="dot" cx="17.89674952198853" cy="274.61538461538464" r="3" fill="#2563eb"></circle><circle class="dot" cx="19.273422562141494" cy="300.7692307692308" r="3" fill="#2563eb"></circle><circle class="dot" cx="20.650095602294453" cy="300.7692307692308" r="3" fill="#2563eb"></circle><circle class="dot" cx="22.02676864244742" cy="300.7692307692308" r="3" fill="#2563eb"></circle><circle class="dot" cx="23.403441682600384" cy="300.7692307692308" r="3" fill="#2563eb"></circle><circle class="dot" cx="24.780114722753346" cy="326.9230769230769" r="3" fill="#2563eb"></circle><circle class="dot" cx="26.156787762906312" cy="313.84615384615387" r="3" fill="#2563eb"></circle><circle class="dot" cx="27.533460803059274" cy="300.7692307692308" r="3" fill="#2563eb"></circle><circle class="dot" cx="28.910133843212236" cy="340" r="3" fill="#2563eb"></circle><circle class="dot" cx="30.2868068833652" cy="340" r="3" fill="#2563eb"></circle><circle class="dot" cx="31.663479923518164" cy="340" r="3" fill="#2563eb"></circle><circle class="dot" cx="33.040152963671126" cy="313.84615384615387" r="3" fill="#2563eb"></circle><circle class="dot" cx="34.41682600382409" cy="326.9230769230769" r="3" fill="#2563eb"></circle><circle class="dot" cx="35.79349904397706" cy="313.84615384615387" r="3" fill="#2563eb"></circle><circle class="dot" cx="37.170172084130016" cy="274.61538461538464" r="3" fill="#2563eb"></circle><circle class="dot" cx="38.54684512428299" cy="261.5384615384615" r="3" fill="#2563eb"></circle><circle class="dot" cx="39.92351816443595" cy="274.61538461538464" r="3" fill="#2563eb"></circle><circle class="dot" cx="41.300191204588906" cy="287.6923076923077" r="3" fill="#2563eb"></circle><circle class="dot" cx="42.67686424474187" cy="235.3846153846154" r="3" fill="#2563eb"></circle><circle class="dot" cx="44.05353728489484" cy="261.5384615384615" r="3" fill="#2563eb"></circle><circle class="dot" cx="45.430210325047796" cy="287.6923076923077" r="3" fill="#2563eb"></circle><circle class="dot" cx="46.80688336520077" cy="287.6923076923077" r="3" fill="#2563eb"></circle><circle class="dot" cx="48.18355640535373" cy="287.6923076923077" r="3" fill="#2563eb"></circle><circle class="dot" cx="49.56022944550669" cy="300.7692307692308" r="3" fill="#2563eb"></circle><circle class="dot" cx="50.93690248565965" cy="313.84615384615387" r="3" fill="#2563eb"></circle><circle class="dot" cx="52.313575525812624" cy="235.3846153846154" r="3" fill="#2563eb"></circle><circle class="dot" cx="53.69024856596559" cy="261.5384615384615" r="3" fill="#2563eb"></circle><circle class="dot" cx="55.06692160611855" cy="313.84615384615387" r="3" fill="#2563eb"></circle><circle class="dot" cx="56.44359464627151" cy="287.6923076923077" r="3" fill="#2563eb"></circle><circle class="dot" cx="57.82026768642447" cy="300.7692307692308" r="3" fill="#2563eb"></circle><circle class="dot" cx="59.196940726577445" cy="300.7692307692308" r="3" fill="#2563eb"></circle><circle class="dot" cx="60.5736137667304" cy="313.84615384615387" r="3" fill="#2563eb"></circle><circle class="dot" cx="61.95028680688336" cy="261.5384615384615" r="3" fill="#2563eb"></circle><circle class="dot" cx="63.32695984703633" cy="261.5384615384615" r="3" fill="#2563eb"></circle><circle class="dot" cx="64.7036328871893" cy="248.46153846153845" r="3" fill="#2563eb"></circle><circle class="dot" cx="66.08030592734225" cy="248.46153846153845" r="3" fill="#2563eb"></circle><circle class="dot" cx="67.45697896749522" cy="261.5384615384615" r="3" fill="#2563eb"></circle><circle class="dot" cx="68.83365200764818" cy="248.46153846153845" r="3" fill="#2563eb"></circle><circle class="dot" cx="70.21032504780115" cy="248.46153846153845" r="3" fill="#2563eb"></circle><circle class="dot" cx="71.58699808795411" cy="274.61538461538464" r="3" fill="#2563eb"></circle><circle class="dot" cx="72.96367112810708" cy="287.6923076923077" r="3" fill="#2563eb"></circle><circle class="dot" cx="74.34034416826003" cy="313.84615384615387" r="3" fill="#2563eb"></circle><circle class="dot" cx="75.717017208413" cy="326.9230769230769" r="3" fill="#2563eb"></circle><circle class="dot" cx="77.09369024856598" cy="313.84615384615387" r="3" fill="#2563eb"></circle><circle class="dot" cx="78.47036328871893" cy="340" r="3" fill="#2563eb"></circle><circle class="dot" cx="79.8470363288719" cy="326.9230769230769" r="3" fill="#2563eb"></circle><circle class="dot" cx="81.22370936902486" cy="326.9230769230769" r="3" fill="#2563eb"></circle><circle class="dot" cx="82.60038240917781" cy="326.9230769230769" r="3" fill="#2563eb"></circle><circle class="dot" cx="83.97705544933079" cy="340" r="3" fill="#2563eb"></circle><circle class="dot" cx="85.35372848948374" cy="274.61538461538464" r="3" fill="#2563eb"></circle><circle class="dot" cx="86.73040152963671" cy="235.3846153846154" r="3" fill="#2563eb"></circle><circle class="dot" cx="88.10707456978967" cy="248.46153846153845" r="3" fill="#2563eb"></circle><circle class="dot" cx="89.48374760994264" cy="274.61538461538464" r="3" fill="#2563eb"></circle><circle class="dot" cx="90.86042065009559" cy="300.7692307692308" r="3" fill="#2563eb"></circle><circle class="dot" cx="92.23709369024857" cy="313.84615384615387" r="3" fill="#2563eb"></circle><circle class="dot" cx="93.61376673040154" cy="300.7692307692308" r="3" fill="#2563eb"></circle><circle class="dot" cx="94.99043977055449" cy="287.6923076923077" r="3" fill="#2563eb"></circle><circle class="dot" cx="96.36711281070745" cy="287.6923076923077" r="3" fill="#2563eb"></circle><circle class="dot" cx="97.7437858508604" cy="287.6923076923077" r="3" fill="#2563eb"></circle><circle class="dot" cx="99.12045889101339" cy="287.6923076923077" r="3" fill="#2563eb"></circle><circle class="dot" cx="100.49713193116635" cy="261.5384615384615" r="3" fill="#2563eb"></circle><circle class="dot" cx="101.8738049713193" cy="274.61538461538464" r="3" fill="#2563eb"></circle><circle class="dot" cx="103.25047801147228" cy="313.84615384615387" r="3" fill="#2563eb"></circle><circle class="dot" cx="104.62715105162525" cy="313.84615384615387" r="3" fill="#2563eb"></circle><circle class="dot" cx="106.0038240917782" cy="313.84615384615387" r="3" fill="#2563eb"></circle><circle class="dot" cx="107.38049713193118" cy="313.84615384615387" r="3" fill="#2563eb"></circle><circle class="dot" cx="108.75717017208413" cy="326.9230769230769" r="3" fill="#2563eb"></circle><circle class="dot" cx="110.1338432122371" cy="300.7692307692308" r="3" fill="#2563eb"></circle><circle class="dot" cx="111.51051625239006" cy="300.7692307692308" r="3" fill="#2563eb"></circle><circle class="dot" cx="112.88718929254301" cy="287.6923076923077" r="3" fill="#2563eb"></circle><circle class="dot" cx="114.263862332696" cy="300.7692307692308" r="3" fill="#2563eb"></circle><circle class="dot" cx="115.64053537284894" cy="300.7692307692308" r="3" fill="#2563eb"></circle><circle class="dot" cx="117.01720841300191" cy="313.84615384615387" r="3" fill="#2563eb"></circle><circle class="dot" cx="118.39388145315489" cy="340" r="3" fill="#2563eb"></circle><circle class="dot" cx="119.77055449330784" cy="340" r="3" fill="#2563eb"></circle><circle class="dot" cx="121.1472275334608" cy="340" r="3" fill="#2563eb"></circle><circle class="dot" cx="122.52390057361376" cy="340" r="3" fill="#2563eb"></circle><circle class="dot" cx="123.90057361376672" cy="340" r="3" fill="#2563eb"></circle><circle class="dot" cx="125.2772466539197" cy="340" r="3" fill="#2563eb"></circle><circle class="dot" cx="126.65391969407266" cy="340" r="3" fill="#2563eb"></circle><circle class="dot" cx="128.03059273422562" cy="340" r="3" fill="#2563eb"></circle><circle class="dot" cx="129.4072657743786" cy="340" r="3" fill="#2563eb"></circle><circle class="dot" cx="130.78393881453155" cy="340" r="3" fill="#2563eb"></circle><circle class="dot" cx="132.1606118546845" cy="340" r="3" fill="#2563eb"></circle><circle class="dot" cx="133.53728489483746" cy="340" r="3" fill="#2563eb"></circle><circle class="dot" cx="134.91395793499044" cy="340" r="3" fill="#2563eb"></circle><circle class="dot" cx="136.29063097514342" cy="340" r="3" fill="#2563eb"></circle><circle class="dot" cx="137.66730401529637" cy="340" r="3" fill="#2563eb"></circle><circle class="dot" cx="139.04397705544935" cy="340" r="3" fill="#2563eb"></circle><circle class="dot" cx="140.4206500956023" cy="340" r="3" fill="#2563eb"></circle><circle class="dot" cx="141.79732313575525" cy="340" r="3" fill="#2563eb"></circle><circle class="dot" cx="143.17399617590823" cy="274.61538461538464" r="3" fill="#2563eb"></circle><circle class="dot" cx="144.55066921606118" cy="340" r="3" fill="#2563eb"></circle><circle class="dot" cx="145.92734225621416" cy="340" r="3" fill="#2563eb"></circle><circle class="dot" cx="147.3040152963671" cy="340" r="3" fill="#2563eb"></circle><circle class="dot" cx="148.68068833652006" cy="326.9230769230769" r="3" fill="#2563eb"></circle><circle class="dot" cx="150.05736137667304" cy="248.46153846153845" r="3" fill="#2563eb"></circle><circle class="dot" cx="151.434034416826" cy="261.5384615384615" r="3" fill="#2563eb"></circle><circle class="dot" cx="152.81070745697897" cy="340" r="3" fill="#2563eb"></circle><circle class="dot" cx="154.18738049713195" cy="326.9230769230769" r="3" fill="#2563eb"></circle><circle class="dot" cx="155.5640535372849" cy="313.84615384615387" r="3" fill="#2563eb"></circle><circle class="dot" cx="156.94072657743786" cy="326.9230769230769" r="3" fill="#2563eb"></circle><circle class="dot" cx="158.3173996175908" cy="313.84615384615387" r="3" fill="#2563eb"></circle><circle class="dot" cx="159.6940726577438" cy="313.84615384615387" r="3" fill="#2563eb"></circle><circle class="dot" cx="161.07074569789677" cy="313.84615384615387" r="3" fill="#2563eb"></circle><circle class="dot" cx="162.44741873804972" cy="340" r="3" fill="#2563eb"></circle><circle class="dot" cx="163.82409177820267" cy="340" r="3" fill="#2563eb"></circle><circle class="dot" cx="165.20076481835562" cy="340" r="3" fill="#2563eb"></circle><circle class="dot" cx="166.5774378585086" cy="326.9230769230769" r="3" fill="#2563eb"></circle><circle class="dot" cx="167.95411089866158" cy="340" r="3" fill="#2563eb"></circle><circle class="dot" cx="169.33078393881453" cy="340" r="3" fill="#2563eb"></circle><circle class="dot" cx="170.70745697896749" cy="340" r="3" fill="#2563eb"></circle><circle class="dot" cx="172.08413001912044" cy="340" r="3" fill="#2563eb"></circle><circle class="dot" cx="173.46080305927342" cy="340" r="3" fill="#2563eb"></circle><circle class="dot" cx="174.8374760994264" cy="340" r="3" fill="#2563eb"></circle><circle class="dot" cx="176.21414913957935" cy="340" r="3" fill="#2563eb"></circle><circle class="dot" cx="177.59082217973233" cy="340" r="3" fill="#2563eb"></circle><circle class="dot" cx="178.96749521988528" cy="340" r="3" fill="#2563eb"></circle><circle class="dot" cx="180.34416826003823" cy="340" r="3" fill="#2563eb"></circle><circle class="dot" cx="181.72084130019118" cy="340" r="3" fill="#2563eb"></circle><circle class="dot" cx="183.0975143403442" cy="340" r="3" fill="#2563eb"></circle><circle class="dot" cx="184.47418738049714" cy="340" r="3" fill="#2563eb"></circle><circle class="dot" cx="185.8508604206501" cy="340" r="3" fill="#2563eb"></circle><circle class="dot" cx="187.22753346080307" cy="340" r="3" fill="#2563eb"></circle><circle class="dot" cx="188.60420650095602" cy="340" r="3" fill="#2563eb"></circle><circle class="dot" cx="189.98087954110898" cy="340" r="3" fill="#2563eb"></circle><circle class="dot" cx="191.35755258126196" cy="340" r="3" fill="#2563eb"></circle><circle class="dot" cx="192.7342256214149" cy="340" r="3" fill="#2563eb"></circle><circle class="dot" cx="194.11089866156786" cy="340" r="3" fill="#2563eb"></circle><circle class="dot" cx="195.4875717017208" cy="340" r="3" fill="#2563eb"></circle><circle class="dot" cx="196.86424474187382" cy="340" r="3" fill="#2563eb"></circle><circle class="dot" cx="198.24091778202677" cy="340" r="3" fill="#2563eb"></circle><circle class="dot" cx="199.61759082217972" cy="340" r="3" fill="#2563eb"></circle><circle class="dot" cx="200.9942638623327" cy="340" r="3" fill="#2563eb"></circle><circle class="dot" cx="202.37093690248565" cy="340" r="3" fill="#2563eb"></circle><circle class="dot" cx="203.7476099426386" cy="340" r="3" fill="#2563eb"></circle><circle class="dot" cx="205.1242829827916" cy="340" r="3" fill="#2563eb"></circle><circle class="dot" cx="206.50095602294456" cy="340" r="3" fill="#2563eb"></circle><circle class="dot" cx="207.87762906309752" cy="340" r="3" fill="#2563eb"></circle><circle class="dot" cx="209.2543021032505" cy="313.84615384615387" r="3" fill="#2563eb"></circle><circle class="dot" cx="210.63097514340345" cy="326.9230769230769" r="3" fill="#2563eb"></circle><circle class="dot" cx="212.0076481835564" cy="340" r="3" fill="#2563eb"></circle><circle class="dot" cx="213.38432122370935" cy="326.9230769230769" r="3" fill="#2563eb"></circle><circle class="dot" cx="214.76099426386236" cy="313.84615384615387" r="3" fill="#2563eb"></circle><circle class="dot" cx="216.13766730401528" cy="313.84615384615387" r="3" fill="#2563eb"></circle><circle class="dot" cx="217.51434034416826" cy="300.7692307692308" r="3" fill="#2563eb"></circle><circle class="dot" cx="218.89101338432124" cy="274.61538461538464" r="3" fill="#2563eb"></circle><circle class="dot" cx="220.2676864244742" cy="274.61538461538464" r="3" fill="#2563eb"></circle><circle class="dot" cx="221.64435946462714" cy="287.6923076923077" r="3" fill="#2563eb"></circle><circle class="dot" cx="223.02103250478012" cy="300.7692307692308" r="3" fill="#2563eb"></circle><circle class="dot" cx="224.39770554493307" cy="300.7692307692308" r="3" fill="#2563eb"></circle><circle class="dot" cx="225.77437858508603" cy="287.6923076923077" r="3" fill="#2563eb"></circle><circle class="dot" cx="227.15105162523898" cy="300.7692307692308" r="3" fill="#2563eb"></circle><circle class="dot" cx="228.527724665392" cy="300.7692307692308" r="3" fill="#2563eb"></circle><circle class="dot" cx="229.90439770554494" cy="274.61538461538464" r="3" fill="#2563eb"></circle><circle class="dot" cx="231.2810707456979" cy="274.61538461538464" r="3" fill="#2563eb"></circle><circle class="dot" cx="232.65774378585087" cy="261.5384615384615" r="3" fill="#2563eb"></circle><circle class="dot" cx="234.03441682600382" cy="261.5384615384615" r="3" fill="#2563eb"></circle><circle class="dot" cx="235.41108986615677" cy="248.46153846153845" r="3" fill="#2563eb"></circle><circle class="dot" cx="236.78776290630978" cy="261.5384615384615" r="3" fill="#2563eb"></circle><circle class="dot" cx="238.16443594646273" cy="274.61538461538464" r="3" fill="#2563eb"></circle><circle class="dot" cx="239.54110898661568" cy="274.61538461538464" r="3" fill="#2563eb"></circle><circle class="dot" cx="240.91778202676866" cy="287.6923076923077" r="3" fill="#2563eb"></circle><circle class="dot" cx="242.2944550669216" cy="287.6923076923077" r="3" fill="#2563eb"></circle><circle class="dot" cx="243.67112810707457" cy="274.61538461538464" r="3" fill="#2563eb"></circle><circle class="dot" cx="245.04780114722752" cy="248.46153846153845" r="3" fill="#2563eb"></circle><circle class="dot" cx="246.4244741873805" cy="235.3846153846154" r="3" fill="#2563eb"></circle><circle class="dot" cx="247.80114722753345" cy="235.3846153846154" r="3" fill="#2563eb"></circle><circle class="dot" cx="249.1778202676864" cy="235.3846153846154" r="3" fill="#2563eb"></circle><circle class="dot" cx="250.5544933078394" cy="248.46153846153845" r="3" fill="#2563eb"></circle><circle class="dot" cx="251.93116634799236" cy="222.30769230769232" r="3" fill="#2563eb"></circle><circle class="dot" cx="253.3078393881453" cy="196.15384615384616" r="3" fill="#2563eb"></circle><circle class="dot" cx="254.6845124282983" cy="209.23076923076925" r="3" fill="#2563eb"></circle><circle class="dot" cx="256.06118546845124" cy="235.3846153846154" r="3" fill="#2563eb"></circle><circle class="dot" cx="257.4378585086042" cy="209.23076923076925" r="3" fill="#2563eb"></circle><circle class="dot" cx="258.8145315487572" cy="248.46153846153845" r="3" fill="#2563eb"></circle><circle class="dot" cx="260.1912045889101" cy="248.46153846153845" r="3" fill="#2563eb"></circle><circle class="dot" cx="261.5678776290631" cy="222.30769230769232" r="3" fill="#2563eb"></circle><circle class="dot" cx="262.944550669216" cy="235.3846153846154" r="3" fill="#2563eb"></circle><circle class="dot" cx="264.321223709369" cy="248.46153846153845" r="3" fill="#2563eb"></circle><circle class="dot" cx="265.697896749522" cy="248.46153846153845" r="3" fill="#2563eb"></circle><circle class="dot" cx="267.0745697896749" cy="196.15384615384616" r="3" fill="#2563eb"></circle><circle class="dot" cx="268.45124282982795" cy="196.15384615384616" r="3" fill="#2563eb"></circle><circle class="dot" cx="269.82791586998087" cy="183.0769230769231" r="3" fill="#2563eb"></circle><circle class="dot" cx="271.20458891013385" cy="248.46153846153845" r="3" fill="#2563eb"></circle><circle class="dot" cx="272.58126195028683" cy="248.46153846153845" r="3" fill="#2563eb"></circle><circle class="dot" cx="273.95793499043975" cy="196.15384615384616" r="3" fill="#2563eb"></circle><circle class="dot" cx="275.33460803059273" cy="183.0769230769231" r="3" fill="#2563eb"></circle><circle class="dot" cx="276.71128107074566" cy="183.0769230769231" r="3" fill="#2563eb"></circle><circle class="dot" cx="278.0879541108987" cy="183.0769230769231" r="3" fill="#2563eb"></circle><circle class="dot" cx="279.4646271510516" cy="196.15384615384616" r="3" fill="#2563eb"></circle><circle class="dot" cx="280.8413001912046" cy="209.23076923076925" r="3" fill="#2563eb"></circle><circle class="dot" cx="282.2179732313576" cy="196.15384615384616" r="3" fill="#2563eb"></circle><circle class="dot" cx="283.5946462715105" cy="183.0769230769231" r="3" fill="#2563eb"></circle><circle class="dot" cx="284.9713193116635" cy="248.46153846153845" r="3" fill="#2563eb"></circle><circle class="dot" cx="286.34799235181646" cy="326.9230769230769" r="3" fill="#2563eb"></circle><circle class="dot" cx="287.72466539196944" cy="326.9230769230769" r="3" fill="#2563eb"></circle><circle class="dot" cx="289.10133843212236" cy="313.84615384615387" r="3" fill="#2563eb"></circle><circle class="dot" cx="290.47801147227534" cy="300.7692307692308" r="3" fill="#2563eb"></circle><circle class="dot" cx="291.8546845124283" cy="287.6923076923077" r="3" fill="#2563eb"></circle><circle class="dot" cx="293.23135755258124" cy="287.6923076923077" r="3" fill="#2563eb"></circle><circle class="dot" cx="294.6080305927342" cy="300.7692307692308" r="3" fill="#2563eb"></circle><circle class="dot" cx="295.9847036328872" cy="287.6923076923077" r="3" fill="#2563eb"></circle><circle class="dot" cx="297.3613766730401" cy="287.6923076923077" r="3" fill="#2563eb"></circle><circle class="dot" cx="298.7380497131931" cy="313.84615384615387" r="3" fill="#2563eb"></circle><circle class="dot" cx="300.1147227533461" cy="300.7692307692308" r="3" fill="#2563eb"></circle><circle class="dot" cx="301.49139579349907" cy="274.61538461538464" r="3" fill="#2563eb"></circle><circle class="dot" cx="302.868068833652" cy="274.61538461538464" r="3" fill="#2563eb"></circle><circle class="dot" cx="304.24474187380497" cy="287.6923076923077" r="3" fill="#2563eb"></circle><circle class="dot" cx="305.62141491395795" cy="300.7692307692308" r="3" fill="#2563eb"></circle><circle class="dot" cx="306.9980879541109" cy="222.30769230769232" r="3" fill="#2563eb"></circle><circle class="dot" cx="308.3747609942639" cy="196.15384615384616" r="3" fill="#2563eb"></circle><circle class="dot" cx="309.75143403441683" cy="222.30769230769232" r="3" fill="#2563eb"></circle><circle class="dot" cx="311.1281070745698" cy="222.30769230769232" r="3" fill="#2563eb"></circle><circle class="dot" cx="312.50478011472273" cy="235.3846153846154" r="3" fill="#2563eb"></circle><circle class="dot" cx="313.8814531548757" cy="326.9230769230769" r="3" fill="#2563eb"></circle><circle class="dot" cx="315.2581261950287" cy="274.61538461538464" r="3" fill="#2563eb"></circle><circle class="dot" cx="316.6347992351816" cy="222.30769230769232" r="3" fill="#2563eb"></circle><circle class="dot" cx="318.0114722753346" cy="248.46153846153845" r="3" fill="#2563eb"></circle><circle class="dot" cx="319.3881453154876" cy="287.6923076923077" r="3" fill="#2563eb"></circle><circle class="dot" cx="320.7648183556405" cy="300.7692307692308" r="3" fill="#2563eb"></circle><circle class="dot" cx="322.14149139579354" cy="313.84615384615387" r="3" fill="#2563eb"></circle><circle class="dot" cx="323.51816443594646" cy="340" r="3" fill="#2563eb"></circle><circle class="dot" cx="324.89483747609944" cy="340" r="3" fill="#2563eb"></circle><circle class="dot" cx="326.2715105162524" cy="340" r="3" fill="#2563eb"></circle><circle class="dot" cx="327.64818355640534" cy="340" r="3" fill="#2563eb"></circle><circle class="dot" cx="329.0248565965583" cy="340" r="3" fill="#2563eb"></circle><circle class="dot" cx="330.40152963671125" cy="340" r="3" fill="#2563eb"></circle><circle class="dot" cx="331.7782026768643" cy="340" r="3" fill="#2563eb"></circle><circle class="dot" cx="333.1548757170172" cy="340" r="3" fill="#2563eb"></circle><circle class="dot" cx="334.5315487571702" cy="340" r="3" fill="#2563eb"></circle><circle class="dot" cx="335.90822179732316" cy="326.9230769230769" r="3" fill="#2563eb"></circle><circle class="dot" cx="337.2848948374761" cy="326.9230769230769" r="3" fill="#2563eb"></circle><circle class="dot" cx="338.66156787762907" cy="326.9230769230769" r="3" fill="#2563eb"></circle><circle class="dot" cx="340.03824091778205" cy="313.84615384615387" r="3" fill="#2563eb"></circle><circle class="dot" cx="341.41491395793497" cy="313.84615384615387" r="3" fill="#2563eb"></circle><circle class="dot" cx="342.79158699808795" cy="340" r="3" fill="#2563eb"></circle><circle class="dot" cx="344.1682600382409" cy="340" r="3" fill="#2563eb"></circle><circle class="dot" cx="345.5449330783939" cy="326.9230769230769" r="3" fill="#2563eb"></circle><circle class="dot" cx="346.92160611854683" cy="326.9230769230769" r="3" fill="#2563eb"></circle><circle class="dot" cx="348.2982791586998" cy="287.6923076923077" r="3" fill="#2563eb"></circle><circle class="dot" cx="349.6749521988528" cy="274.61538461538464" r="3" fill="#2563eb"></circle><circle class="dot" cx="351.0516252390057" cy="287.6923076923077" r="3" fill="#2563eb"></circle><circle class="dot" cx="352.4282982791587" cy="313.84615384615387" r="3" fill="#2563eb"></circle><circle class="dot" cx="353.8049713193117" cy="313.84615384615387" r="3" fill="#2563eb"></circle><circle class="dot" cx="355.18164435946466" cy="340" r="3" fill="#2563eb"></circle><circle class="dot" cx="356.5583173996176" cy="340" r="3" fill="#2563eb"></circle><circle class="dot" cx="357.93499043977056" cy="340" r="3" fill="#2563eb"></circle><circle class="dot" cx="359.31166347992354" cy="340" r="3" fill="#2563eb"></circle><circle class="dot" cx="360.68833652007646" cy="340" r="3" fill="#2563eb"></circle><circle class="dot" cx="362.06500956022944" cy="326.9230769230769" r="3" fill="#2563eb"></circle><circle class="dot" cx="363.44168260038236" cy="300.7692307692308" r="3" fill="#2563eb"></circle><circle class="dot" cx="364.8183556405354" cy="235.3846153846154" r="3" fill="#2563eb"></circle><circle class="dot" cx="366.1950286806884" cy="261.5384615384615" r="3" fill="#2563eb"></circle><circle class="dot" cx="367.5717017208413" cy="248.46153846153845" r="3" fill="#2563eb"></circle><circle class="dot" cx="368.9483747609943" cy="248.46153846153845" r="3" fill="#2563eb"></circle><circle class="dot" cx="370.3250478011472" cy="235.3846153846154" r="3" fill="#2563eb"></circle><circle class="dot" cx="371.7017208413002" cy="196.15384615384616" r="3" fill="#2563eb"></circle><circle class="dot" cx="373.0783938814531" cy="130.76923076923075" r="3" fill="#2563eb"></circle><circle class="dot" cx="374.45506692160615" cy="156.92307692307693" r="3" fill="#2563eb"></circle><circle class="dot" cx="375.8317399617591" cy="183.0769230769231" r="3" fill="#2563eb"></circle><circle class="dot" cx="377.20841300191205" cy="235.3846153846154" r="3" fill="#2563eb"></circle><circle class="dot" cx="378.58508604206503" cy="235.3846153846154" r="3" fill="#2563eb"></circle><circle class="dot" cx="379.96175908221795" cy="235.3846153846154" r="3" fill="#2563eb"></circle><circle class="dot" cx="381.33843212237093" cy="235.3846153846154" r="3" fill="#2563eb"></circle><circle class="dot" cx="382.7151051625239" cy="235.3846153846154" r="3" fill="#2563eb"></circle><circle class="dot" cx="384.0917782026769" cy="222.30769230769232" r="3" fill="#2563eb"></circle><circle class="dot" cx="385.4684512428298" cy="248.46153846153845" r="3" fill="#2563eb"></circle><circle class="dot" cx="386.8451242829828" cy="235.3846153846154" r="3" fill="#2563eb"></circle><circle class="dot" cx="388.2217973231357" cy="209.23076923076925" r="3" fill="#2563eb"></circle><circle class="dot" cx="389.5984703632887" cy="183.0769230769231" r="3" fill="#2563eb"></circle><circle class="dot" cx="390.9751434034416" cy="130.76923076923075" r="3" fill="#2563eb"></circle><circle class="dot" cx="392.35181644359466" cy="130.76923076923075" r="3" fill="#2563eb"></circle><circle class="dot" cx="393.72848948374764" cy="156.92307692307693" r="3" fill="#2563eb"></circle><circle class="dot" cx="395.10516252390056" cy="91.53846153846155" r="3" fill="#2563eb"></circle><circle class="dot" cx="396.48183556405354" cy="78.46153846153848" r="3" fill="#2563eb"></circle><circle class="dot" cx="397.85850860420646" cy="78.46153846153848" r="3" fill="#2563eb"></circle><circle class="dot" cx="399.23518164435944" cy="104.61538461538463" r="3" fill="#2563eb"></circle><circle class="dot" cx="400.6118546845125" cy="91.53846153846155" r="3" fill="#2563eb"></circle><circle class="dot" cx="401.9885277246654" cy="52.307692307692314" r="3" fill="#2563eb"></circle><circle class="dot" cx="403.3652007648184" cy="52.307692307692314" r="3" fill="#2563eb"></circle><circle class="dot" cx="404.7418738049713" cy="65.38461538461542" r="3" fill="#2563eb"></circle><circle class="dot" cx="406.1185468451243" cy="65.38461538461542" r="3" fill="#2563eb"></circle><circle class="dot" cx="407.4952198852772" cy="52.307692307692314" r="3" fill="#2563eb"></circle><circle class="dot" cx="408.8718929254302" cy="39.23076923076924" r="3" fill="#2563eb"></circle><circle class="dot" cx="410.2485659655832" cy="13.076923076923105" r="3" fill="#2563eb"></circle><circle class="dot" cx="411.62523900573615" cy="78.46153846153848" r="3" fill="#2563eb"></circle><circle class="dot" cx="413.0019120458891" cy="156.92307692307693" r="3" fill="#2563eb"></circle><circle class="dot" cx="414.37858508604205" cy="340" r="3" fill="#2563eb"></circle><circle class="dot" cx="415.75525812619503" cy="340" r="3" fill="#2563eb"></circle><circle class="dot" cx="417.13193116634795" cy="340" r="3" fill="#2563eb"></circle><circle class="dot" cx="418.508604206501" cy="340" r="3" fill="#2563eb"></circle><circle class="dot" cx="419.88527724665397" cy="340" r="3" fill="#2563eb"></circle><circle class="dot" cx="421.2619502868069" cy="340" r="3" fill="#2563eb"></circle><circle class="dot" cx="422.6386233269599" cy="340" r="3" fill="#2563eb"></circle><circle class="dot" cx="424.0152963671128" cy="340" r="3" fill="#2563eb"></circle><circle class="dot" cx="425.3919694072658" cy="340" r="3" fill="#2563eb"></circle><circle class="dot" cx="426.7686424474187" cy="340" r="3" fill="#2563eb"></circle><circle class="dot" cx="428.14531548757174" cy="340" r="3" fill="#2563eb"></circle><circle class="dot" cx="429.5219885277247" cy="313.84615384615387" r="3" fill="#2563eb"></circle><circle class="dot" cx="430.89866156787764" cy="313.84615384615387" r="3" fill="#2563eb"></circle><circle class="dot" cx="432.27533460803056" cy="274.61538461538464" r="3" fill="#2563eb"></circle><circle class="dot" cx="433.65200764818354" cy="222.30769230769232" r="3" fill="#2563eb"></circle><circle class="dot" cx="435.0286806883365" cy="287.6923076923077" r="3" fill="#2563eb"></circle><circle class="dot" cx="436.40535372848944" cy="274.61538461538464" r="3" fill="#2563eb"></circle><circle class="dot" cx="437.7820267686425" cy="222.30769230769232" r="3" fill="#2563eb"></circle><circle class="dot" cx="439.1586998087954" cy="248.46153846153845" r="3" fill="#2563eb"></circle><circle class="dot" cx="440.5353728489484" cy="248.46153846153845" r="3" fill="#2563eb"></circle><circle class="dot" cx="441.9120458891013" cy="248.46153846153845" r="3" fill="#2563eb"></circle><circle class="dot" cx="443.2887189292543" cy="235.3846153846154" r="3" fill="#2563eb"></circle><circle class="dot" cx="444.6653919694072" cy="248.46153846153845" r="3" fill="#2563eb"></circle><circle class="dot" cx="446.04206500956025" cy="326.9230769230769" r="3" fill="#2563eb"></circle><circle class="dot" cx="447.4187380497132" cy="326.9230769230769" r="3" fill="#2563eb"></circle><circle class="dot" cx="448.79541108986615" cy="340" r="3" fill="#2563eb"></circle><circle class="dot" cx="450.17208413001913" cy="340" r="3" fill="#2563eb"></circle><circle class="dot" cx="451.54875717017205" cy="340" r="3" fill="#2563eb"></circle><circle class="dot" cx="452.92543021032503" cy="287.6923076923077" r="3" fill="#2563eb"></circle><circle class="dot" cx="454.30210325047796" cy="222.30769230769232" r="3" fill="#2563eb"></circle><circle class="dot" cx="455.678776290631" cy="274.61538461538464" r="3" fill="#2563eb"></circle><circle class="dot" cx="457.055449330784" cy="300.7692307692308" r="3" fill="#2563eb"></circle><circle class="dot" cx="458.4321223709369" cy="287.6923076923077" r="3" fill="#2563eb"></circle><circle class="dot" cx="459.8087954110899" cy="261.5384615384615" r="3" fill="#2563eb"></circle><circle class="dot" cx="461.1854684512428" cy="287.6923076923077" r="3" fill="#2563eb"></circle><circle class="dot" cx="462.5621414913958" cy="340" r="3" fill="#2563eb"></circle><circle class="dot" cx="463.9388145315488" cy="326.9230769230769" r="3" fill="#2563eb"></circle><circle class="dot" cx="465.31548757170174" cy="313.84615384615387" r="3" fill="#2563eb"></circle><circle class="dot" cx="466.6921606118547" cy="340" r="3" fill="#2563eb"></circle><circle class="dot" cx="468.06883365200764" cy="340" r="3" fill="#2563eb"></circle><circle class="dot" cx="469.4455066921606" cy="340" r="3" fill="#2563eb"></circle><circle class="dot" cx="470.82217973231354" cy="340" r="3" fill="#2563eb"></circle><circle class="dot" cx="472.1988527724665" cy="340" r="3" fill="#2563eb"></circle><circle class="dot" cx="473.57552581261956" cy="340" r="3" fill="#2563eb"></circle><circle class="dot" cx="474.9521988527725" cy="340" r="3" fill="#2563eb"></circle><circle class="dot" cx="476.32887189292546" cy="340" r="3" fill="#2563eb"></circle><circle class="dot" cx="477.7055449330784" cy="340" r="3" fill="#2563eb"></circle><circle class="dot" cx="479.08221797323137" cy="340" r="3" fill="#2563eb"></circle><circle class="dot" cx="480.4588910133843" cy="340" r="3" fill="#2563eb"></circle><circle class="dot" cx="481.8355640535373" cy="340" r="3" fill="#2563eb"></circle><circle class="dot" cx="483.21223709369025" cy="340" r="3" fill="#2563eb"></circle><circle class="dot" cx="484.5889101338432" cy="340" r="3" fill="#2563eb"></circle><circle class="dot" cx="485.96558317399615" cy="340" r="3" fill="#2563eb"></circle><circle class="dot" cx="487.34225621414913" cy="340" r="3" fill="#2563eb"></circle><circle class="dot" cx="488.71892925430205" cy="340" r="3" fill="#2563eb"></circle><circle class="dot" cx="490.09560229445503" cy="340" r="3" fill="#2563eb"></circle><circle class="dot" cx="491.47227533460807" cy="340" r="3" fill="#2563eb"></circle><circle class="dot" cx="492.848948374761" cy="340" r="3" fill="#2563eb"></circle><circle class="dot" cx="494.225621414914" cy="340" r="3" fill="#2563eb"></circle><circle class="dot" cx="495.6022944550669" cy="340" r="3" fill="#2563eb"></circle><circle class="dot" cx="496.9789674952199" cy="340" r="3" fill="#2563eb"></circle><circle class="dot" cx="498.3556405353728" cy="340" r="3" fill="#2563eb"></circle><circle class="dot" cx="499.73231357552584" cy="340" r="3" fill="#2563eb"></circle><circle class="dot" cx="501.1089866156788" cy="340" r="3" fill="#2563eb"></circle><circle class="dot" cx="502.48565965583174" cy="340" r="3" fill="#2563eb"></circle><circle class="dot" cx="503.8623326959847" cy="340" r="3" fill="#2563eb"></circle><circle class="dot" cx="505.23900573613764" cy="340" r="3" fill="#2563eb"></circle><circle class="dot" cx="506.6156787762906" cy="340" r="3" fill="#2563eb"></circle><circle class="dot" cx="507.99235181644354" cy="340" r="3" fill="#2563eb"></circle><circle class="dot" cx="509.3690248565966" cy="340" r="3" fill="#2563eb"></circle><circle class="dot" cx="510.74569789674956" cy="340" r="3" fill="#2563eb"></circle><circle class="dot" cx="512.1223709369025" cy="340" r="3" fill="#2563eb"></circle><circle class="dot" cx="513.4990439770554" cy="340" r="3" fill="#2563eb"></circle><circle class="dot" cx="514.8757170172084" cy="340" r="3" fill="#2563eb"></circle><circle class="dot" cx="516.2523900573614" cy="340" r="3" fill="#2563eb"></circle><circle class="dot" cx="517.6290630975144" cy="340" r="3" fill="#2563eb"></circle><circle class="dot" cx="519.0057361376673" cy="340" r="3" fill="#2563eb"></circle><circle class="dot" cx="520.3824091778203" cy="340" r="3" fill="#2563eb"></circle><circle class="dot" cx="521.7590822179733" cy="340" r="3" fill="#2563eb"></circle><circle class="dot" cx="523.1357552581262" cy="340" r="3" fill="#2563eb"></circle><circle class="dot" cx="524.5124282982791" cy="340" r="3" fill="#2563eb"></circle><circle class="dot" cx="525.889101338432" cy="340" r="3" fill="#2563eb"></circle><circle class="dot" cx="527.2657743785851" cy="340" r="3" fill="#2563eb"></circle><circle class="dot" cx="528.642447418738" cy="340" r="3" fill="#2563eb"></circle><circle class="dot" cx="530.019120458891" cy="340" r="3" fill="#2563eb"></circle><circle class="dot" cx="531.395793499044" cy="340" r="3" fill="#2563eb"></circle><circle class="dot" cx="532.7724665391969" cy="340" r="3" fill="#2563eb"></circle><circle class="dot" cx="534.1491395793498" cy="340" r="3" fill="#2563eb"></circle><circle class="dot" cx="535.5258126195029" cy="340" r="3" fill="#2563eb"></circle><circle class="dot" cx="536.9024856596559" cy="340" r="3" fill="#2563eb"></circle><circle class="dot" cx="538.2791586998088" cy="340" r="3" fill="#2563eb"></circle><circle class="dot" cx="539.6558317399617" cy="340" r="3" fill="#2563eb"></circle><circle class="dot" cx="541.0325047801147" cy="340" r="3" fill="#2563eb"></circle><circle class="dot" cx="542.4091778202677" cy="340" r="3" fill="#2563eb"></circle><circle class="dot" cx="543.7858508604206" cy="340" r="3" fill="#2563eb"></circle><circle class="dot" cx="545.1625239005737" cy="340" r="3" fill="#2563eb"></circle><circle class="dot" cx="546.5391969407266" cy="340" r="3" fill="#2563eb"></circle><circle class="dot" cx="547.9158699808795" cy="340" r="3" fill="#2563eb"></circle><circle class="dot" cx="549.2925430210325" cy="340" r="3" fill="#2563eb"></circle><circle class="dot" cx="550.6692160611855" cy="340" r="3" fill="#2563eb"></circle><circle class="dot" cx="552.0458891013384" cy="340" r="3" fill="#2563eb"></circle><circle class="dot" cx="553.4225621414913" cy="340" r="3" fill="#2563eb"></circle><circle class="dot" cx="554.7992351816443" cy="340" r="3" fill="#2563eb"></circle><circle class="dot" cx="556.1759082217974" cy="340" r="3" fill="#2563eb"></circle><circle class="dot" cx="557.5525812619503" cy="340" r="3" fill="#2563eb"></circle><circle class="dot" cx="558.9292543021032" cy="340" r="3" fill="#2563eb"></circle><circle class="dot" cx="560.3059273422562" cy="340" r="3" fill="#2563eb"></circle><circle class="dot" cx="561.6826003824092" cy="340" r="3" fill="#2563eb"></circle><circle class="dot" cx="563.0592734225622" cy="340" r="3" fill="#2563eb"></circle><circle class="dot" cx="564.4359464627152" cy="340" r="3" fill="#2563eb"></circle><circle class="dot" cx="565.8126195028681" cy="340" r="3" fill="#2563eb"></circle><circle class="dot" cx="567.189292543021" cy="340" r="3" fill="#2563eb"></circle><circle class="dot" cx="568.565965583174" cy="340" r="3" fill="#2563eb"></circle><circle class="dot" cx="569.942638623327" cy="340" r="3" fill="#2563eb"></circle><circle class="dot" cx="571.3193116634799" cy="340" r="3" fill="#2563eb"></circle><circle class="dot" cx="572.6959847036329" cy="340" r="3" fill="#2563eb"></circle><circle class="dot" cx="574.0726577437858" cy="340" r="3" fill="#2563eb"></circle><circle class="dot" cx="575.4493307839389" cy="340" r="3" fill="#2563eb"></circle><circle class="dot" cx="576.8260038240918" cy="340" r="3" fill="#2563eb"></circle><circle class="dot" cx="578.2026768642447" cy="340" r="3" fill="#2563eb"></circle><circle class="dot" cx="579.5793499043976" cy="340" r="3" fill="#2563eb"></circle><circle class="dot" cx="580.9560229445507" cy="340" r="3" fill="#2563eb"></circle><circle class="dot" cx="582.3326959847036" cy="326.9230769230769" r="3" fill="#2563eb"></circle><circle class="dot" cx="583.7093690248566" cy="326.9230769230769" r="3" fill="#2563eb"></circle><circle class="dot" cx="585.0860420650096" cy="326.9230769230769" r="3" fill="#2563eb"></circle><circle class="dot" cx="586.4627151051625" cy="326.9230769230769" r="3" fill="#2563eb"></circle><circle class="dot" cx="587.8393881453154" cy="326.9230769230769" r="3" fill="#2563eb"></circle><circle class="dot" cx="589.2160611854684" cy="326.9230769230769" r="3" fill="#2563eb"></circle><circle class="dot" cx="590.5927342256215" cy="326.9230769230769" r="3" fill="#2563eb"></circle><circle class="dot" cx="591.9694072657744" cy="326.9230769230769" r="3" fill="#2563eb"></circle><circle class="dot" cx="593.3460803059273" cy="326.9230769230769" r="3" fill="#2563eb"></circle><circle class="dot" cx="594.7227533460803" cy="326.9230769230769" r="3" fill="#2563eb"></circle><circle class="dot" cx="596.0994263862333" cy="326.9230769230769" r="3" fill="#2563eb"></circle><circle class="dot" cx="597.4760994263862" cy="326.9230769230769" r="3" fill="#2563eb"></circle><circle class="dot" cx="598.8527724665392" cy="326.9230769230769" r="3" fill="#2563eb"></circle><circle class="dot" cx="600.2294455066922" cy="326.9230769230769" r="3" fill="#2563eb"></circle><circle class="dot" cx="601.6061185468451" cy="326.9230769230769" r="3" fill="#2563eb"></circle><circle class="dot" cx="602.9827915869981" cy="326.9230769230769" r="3" fill="#2563eb"></circle><circle class="dot" cx="604.359464627151" cy="326.9230769230769" r="3" fill="#2563eb"></circle><circle class="dot" cx="605.736137667304" cy="326.9230769230769" r="3" fill="#2563eb"></circle><circle class="dot" cx="607.1128107074569" cy="326.9230769230769" r="3" fill="#2563eb"></circle><circle class="dot" cx="608.4894837476099" cy="326.9230769230769" r="3" fill="#2563eb"></circle><circle class="dot" cx="609.866156787763" cy="326.9230769230769" r="3" fill="#2563eb"></circle><circle class="dot" cx="611.2428298279159" cy="326.9230769230769" r="3" fill="#2563eb"></circle><circle class="dot" cx="612.6195028680688" cy="326.9230769230769" r="3" fill="#2563eb"></circle><circle class="dot" cx="613.9961759082217" cy="326.9230769230769" r="3" fill="#2563eb"></circle><circle class="dot" cx="615.3728489483748" cy="326.9230769230769" r="3" fill="#2563eb"></circle><circle class="dot" cx="616.7495219885278" cy="326.9230769230769" r="3" fill="#2563eb"></circle><circle class="dot" cx="618.1261950286807" cy="326.9230769230769" r="3" fill="#2563eb"></circle><circle class="dot" cx="619.5028680688337" cy="326.9230769230769" r="3" fill="#2563eb"></circle><circle class="dot" cx="620.8795411089866" cy="326.9230769230769" r="3" fill="#2563eb"></circle><circle class="dot" cx="622.2562141491396" cy="326.9230769230769" r="3" fill="#2563eb"></circle><circle class="dot" cx="623.6328871892925" cy="326.9230769230769" r="3" fill="#2563eb"></circle><circle class="dot" cx="625.0095602294455" cy="326.9230769230769" r="3" fill="#2563eb"></circle><circle class="dot" cx="626.3862332695985" cy="326.9230769230769" r="3" fill="#2563eb"></circle><circle class="dot" cx="627.7629063097514" cy="326.9230769230769" r="3" fill="#2563eb"></circle><circle class="dot" cx="629.1395793499044" cy="326.9230769230769" r="3" fill="#2563eb"></circle><circle class="dot" cx="630.5162523900574" cy="326.9230769230769" r="3" fill="#2563eb"></circle><circle class="dot" cx="631.8929254302103" cy="326.9230769230769" r="3" fill="#2563eb"></circle><circle class="dot" cx="633.2695984703632" cy="326.9230769230769" r="3" fill="#2563eb"></circle><circle class="dot" cx="634.6462715105163" cy="326.9230769230769" r="3" fill="#2563eb"></circle><circle class="dot" cx="636.0229445506692" cy="326.9230769230769" r="3" fill="#2563eb"></circle><circle class="dot" cx="637.3996175908222" cy="326.9230769230769" r="3" fill="#2563eb"></circle><circle class="dot" cx="638.7762906309752" cy="326.9230769230769" r="3" fill="#2563eb"></circle><circle class="dot" cx="640.1529636711281" cy="326.9230769230769" r="3" fill="#2563eb"></circle><circle class="dot" cx="641.529636711281" cy="326.9230769230769" r="3" fill="#2563eb"></circle><circle class="dot" cx="642.906309751434" cy="326.9230769230769" r="3" fill="#2563eb"></circle><circle class="dot" cx="644.2829827915871" cy="326.9230769230769" r="3" fill="#2563eb"></circle><circle class="dot" cx="645.65965583174" cy="326.9230769230769" r="3" fill="#2563eb"></circle><circle class="dot" cx="647.0363288718929" cy="326.9230769230769" r="3" fill="#2563eb"></circle><circle class="dot" cx="648.4130019120458" cy="326.9230769230769" r="3" fill="#2563eb"></circle><circle class="dot" cx="649.7896749521989" cy="326.9230769230769" r="3" fill="#2563eb"></circle><circle class="dot" cx="651.1663479923518" cy="326.9230769230769" r="3" fill="#2563eb"></circle><circle class="dot" cx="652.5430210325048" cy="326.9230769230769" r="3" fill="#2563eb"></circle><circle class="dot" cx="653.9196940726578" cy="326.9230769230769" r="3" fill="#2563eb"></circle><circle class="dot" cx="655.2963671128107" cy="326.9230769230769" r="3" fill="#2563eb"></circle><circle class="dot" cx="656.6730401529637" cy="326.9230769230769" r="3" fill="#2563eb"></circle><circle class="dot" cx="658.0497131931166" cy="326.9230769230769" r="3" fill="#2563eb"></circle><circle class="dot" cx="659.4263862332696" cy="326.9230769230769" r="3" fill="#2563eb"></circle><circle class="dot" cx="660.8030592734225" cy="326.9230769230769" r="3" fill="#2563eb"></circle><circle class="dot" cx="662.1797323135755" cy="326.9230769230769" r="3" fill="#2563eb"></circle><circle class="dot" cx="663.5564053537286" cy="326.9230769230769" r="3" fill="#2563eb"></circle><circle class="dot" cx="664.9330783938815" cy="326.9230769230769" r="3" fill="#2563eb"></circle><circle class="dot" cx="666.3097514340344" cy="326.9230769230769" r="3" fill="#2563eb"></circle><circle class="dot" cx="667.6864244741873" cy="326.9230769230769" r="3" fill="#2563eb"></circle><circle class="dot" cx="669.0630975143404" cy="326.9230769230769" r="3" fill="#2563eb"></circle><circle class="dot" cx="670.4397705544933" cy="326.9230769230769" r="3" fill="#2563eb"></circle><circle class="dot" cx="671.8164435946463" cy="326.9230769230769" r="3" fill="#2563eb"></circle><circle class="dot" cx="673.1931166347993" cy="326.9230769230769" r="3" fill="#2563eb"></circle><circle class="dot" cx="674.5697896749522" cy="326.9230769230769" r="3" fill="#2563eb"></circle><circle class="dot" cx="675.9464627151051" cy="326.9230769230769" r="3" fill="#2563eb"></circle><circle class="dot" cx="677.3231357552581" cy="326.9230769230769" r="3" fill="#2563eb"></circle><circle class="dot" cx="678.6998087954111" cy="326.9230769230769" r="3" fill="#2563eb"></circle><circle class="dot" cx="680.0764818355641" cy="326.9230769230769" r="3" fill="#2563eb"></circle><circle class="dot" cx="681.453154875717" cy="326.9230769230769" r="3" fill="#2563eb"></circle><circle class="dot" cx="682.8298279158699" cy="326.9230769230769" r="3" fill="#2563eb"></circle><circle class="dot" cx="684.206500956023" cy="326.9230769230769" r="3" fill="#2563eb"></circle><circle class="dot" cx="685.5831739961759" cy="326.9230769230769" r="3" fill="#2563eb"></circle><circle class="dot" cx="686.9598470363288" cy="326.9230769230769" r="3" fill="#2563eb"></circle><circle class="dot" cx="688.3365200764817" cy="326.9230769230769" r="3" fill="#2563eb"></circle><circle class="dot" cx="689.7131931166348" cy="326.9230769230769" r="3" fill="#2563eb"></circle><circle class="dot" cx="691.0898661567878" cy="326.9230769230769" r="3" fill="#2563eb"></circle><circle class="dot" cx="692.4665391969407" cy="326.9230769230769" r="3" fill="#2563eb"></circle><circle class="dot" cx="693.8432122370937" cy="326.9230769230769" r="3" fill="#2563eb"></circle><circle class="dot" cx="695.2198852772466" cy="326.9230769230769" r="3" fill="#2563eb"></circle><circle class="dot" cx="696.5965583173996" cy="326.9230769230769" r="3" fill="#2563eb"></circle><circle class="dot" cx="697.9732313575527" cy="326.9230769230769" r="3" fill="#2563eb"></circle><circle class="dot" cx="699.3499043977056" cy="326.9230769230769" r="3" fill="#2563eb"></circle><circle class="dot" cx="700.7265774378585" cy="326.9230769230769" r="3" fill="#2563eb"></circle><circle class="dot" cx="702.1032504780114" cy="326.9230769230769" r="3" fill="#2563eb"></circle><circle class="dot" cx="703.4799235181645" cy="326.9230769230769" r="3" fill="#2563eb"></circle><circle class="dot" cx="704.8565965583174" cy="326.9230769230769" r="3" fill="#2563eb"></circle><circle class="dot" cx="706.2332695984703" cy="326.9230769230769" r="3" fill="#2563eb"></circle><circle class="dot" cx="707.6099426386234" cy="326.9230769230769" r="3" fill="#2563eb"></circle><circle class="dot" cx="708.9866156787763" cy="326.9230769230769" r="3" fill="#2563eb"></circle><circle class="dot" cx="710.3632887189293" cy="326.9230769230769" r="3" fill="#2563eb"></circle><circle class="dot" cx="711.7399617590822" cy="326.9230769230769" r="3" fill="#2563eb"></circle><circle class="dot" cx="713.1166347992352" cy="326.9230769230769" r="3" fill="#2563eb"></circle><circle class="dot" cx="714.4933078393881" cy="326.9230769230769" r="3" fill="#2563eb"></circle><circle class="dot" cx="715.8699808795411" cy="326.9230769230769" r="3" fill="#2563eb"></circle><circle class="dot" cx="717.2466539196942" cy="326.9230769230769" r="3" fill="#2563eb"></circle><circle class="dot" cx="718.6233269598471" cy="326.9230769230769" r="3" fill="#2563eb"></circle><circle class="dot" cx="720" cy="326.9230769230769" r="3" fill="#2563eb"></circle><g class="grid" transform="translate(0,340)" fill="none" font-size="10" font-family="sans-serif" text-anchor="middle" style="stroke-dasharray: 3,3; opacity: 0.3;"><path class="domain" stroke="currentColor" d="M0.5,-340V0.5H720.5V-340"></path><g class="tick" opacity="1" transform="translate(0.5,0)"><line stroke="currentColor" y2="-340"></line><text fill="currentColor" y="3" dy="0.71em"></text></g><g class="tick" opacity="1" transform="translate(33.540152963671126,0)"><line stroke="currentColor" y2="-340"></line><text fill="currentColor" y="3" dy="0.71em"></text></g><g class="tick" opacity="1" transform="translate(66.58030592734225,0)"><line stroke="currentColor" y2="-340"></line><text fill="currentColor" y="3" dy="0.71em"></text></g><g class="tick" opacity="1" transform="translate(99.62045889101339,0)"><line stroke="currentColor" y2="-340"></line><text fill="currentColor" y="3" dy="0.71em"></text></g><g class="tick" opacity="1" transform="translate(132.6606118546845,0)"><line stroke="currentColor" y2="-340"></line><text fill="currentColor" y="3" dy="0.71em"></text></g><g class="tick" opacity="1" transform="translate(165.70076481835562,0)"><line stroke="currentColor" y2="-340"></line><text fill="currentColor" y="3" dy="0.71em"></text></g><g class="tick" opacity="1" transform="translate(198.74091778202677,0)"><line stroke="currentColor" y2="-340"></line><text fill="currentColor" y="3" dy="0.71em"></text></g><g class="tick" opacity="1" transform="translate(231.7810707456979,0)"><line stroke="currentColor" y2="-340"></line><text fill="currentColor" y="3" dy="0.71em"></text></g><g class="tick" opacity="1" transform="translate(264.821223709369,0)"><line stroke="currentColor" y2="-340"></line><text fill="currentColor" y="3" dy="0.71em"></text></g><g class="tick" opacity="1" transform="translate(297.8613766730401,0)"><line stroke="currentColor" y2="-340"></line><text fill="currentColor" y="3" dy="0.71em"></text></g><g class="tick" opacity="1" transform="translate(330.90152963671125,0)"><line stroke="currentColor" y2="-340"></line><text fill="currentColor" y="3" dy="0.71em"></text></g><g class="tick" opacity="1" transform="translate(363.94168260038236,0)"><line stroke="currentColor" y2="-340"></line><text fill="currentColor" y="3" dy="0.71em"></text></g><g class="tick" opacity="1" transform="translate(396.98183556405354,0)"><line stroke="currentColor" y2="-340"></line><text fill="currentColor" y="3" dy="0.71em"></text></g><g class="tick" opacity="1" transform="translate(430.0219885277247,0)"><line stroke="currentColor" y2="-340"></line><text fill="currentColor" y="3" dy="0.71em"></text></g><g class="tick" opacity="1" transform="translate(463.0621414913958,0)"><line stroke="currentColor" y2="-340"></line><text fill="currentColor" y="3" dy="0.71em"></text></g><g class="tick" opacity="1" transform="translate(496.1022944550669,0)"><line stroke="currentColor" y2="-340"></line><text fill="currentColor" y="3" dy="0.71em"></text></g><g class="tick" opacity="1" transform="translate(529.142447418738,0)"><line stroke="currentColor" y2="-340"></line><text fill="currentColor" y="3" dy="0.71em"></text></g><g class="tick" opacity="1" transform="translate(562.1826003824092,0)"><line stroke="currentColor" y2="-340"></line><text fill="currentColor" y="3" dy="0.71em"></text></g><g class="tick" opacity="1" transform="translate(595.2227533460803,0)"><line stroke="currentColor" y2="-340"></line><text fill="currentColor" y="3" dy="0.71em"></text></g><g class="tick" opacity="1" transform="translate(628.2629063097514,0)"><line stroke="currentColor" y2="-340"></line><text fill="currentColor" y="3" dy="0.71em"></text></g><g class="tick" opacity="1" transform="translate(661.3030592734225,0)"><line stroke="currentColor" y2="-340"></line><text fill="currentColor" y="3" dy="0.71em"></text></g><g class="tick" opacity="1" transform="translate(694.3432122370937,0)"><line stroke="currentColor" y2="-340"></line><text fill="currentColor" y="3" dy="0.71em"></text></g></g><g class="grid" fill="none" font-size="10" font-family="sans-serif" text-anchor="end" style="stroke-dasharray: 3,3; opacity: 0.3;"><path class="domain" stroke="currentColor" d="M720,340.5H0.5V0.5H720"></path><g class="tick" opacity="1" transform="translate(0,340.5)"><line stroke="currentColor" x2="720"></line><text fill="currentColor" x="-3" dy="0.32em"></text></g><g class="tick" opacity="1" transform="translate(0,314.34615384615387)"><line stroke="currentColor" x2="720"></line><text fill="currentColor" x="-3" dy="0.32em"></text></g><g class="tick" opacity="1" transform="translate(0,288.1923076923077)"><line stroke="currentColor" x2="720"></line><text fill="currentColor" x="-3" dy="0.32em"></text></g><g class="tick" opacity="1" transform="translate(0,262.0384615384615)"><line stroke="currentColor" x2="720"></line><text fill="currentColor" x="-3" dy="0.32em"></text></g><g class="tick" opacity="1" transform="translate(0,235.8846153846154)"><line stroke="currentColor" x2="720"></line><text fill="currentColor" x="-3" dy="0.32em"></text></g><g class="tick" opacity="1" transform="translate(0,209.73076923076925)"><line stroke="currentColor" x2="720"></line><text fill="currentColor" x="-3" dy="0.32em"></text></g><g class="tick" opacity="1" transform="translate(0,183.5769230769231)"><line stroke="currentColor" x2="720"></line><text fill="currentColor" x="-3" dy="0.32em"></text></g><g class="tick" opacity="1" transform="translate(0,157.42307692307693)"><line stroke="currentColor" x2="720"></line><text fill="currentColor" x="-3" dy="0.32em"></text></g><g class="tick" opacity="1" transform="translate(0,131.26923076923075)"><line stroke="currentColor" x2="720"></line><text fill="currentColor" x="-3" dy="0.32em"></text></g><g class="tick" opacity="1" transform="translate(0,105.11538461538463)"><line stroke="currentColor" x2="720"></line><text fill="currentColor" x="-3" dy="0.32em"></text></g><g class="tick" opacity="1" transform="translate(0,78.96153846153848)"><line stroke="currentColor" x2="720"></line><text fill="currentColor" x="-3" dy="0.32em"></text></g><g class="tick" opacity="1" transform="translate(0,52.807692307692314)"><line stroke="currentColor" x2="720"></line><text fill="currentColor" x="-3" dy="0.32em"></text></g><g class="tick" opacity="1" transform="translate(0,26.653846153846136)"><line stroke="currentColor" x2="720"></line><text fill="currentColor" x="-3" dy="0.32em"></text></g><g class="tick" opacity="1" transform="translate(0,0.5)"><line stroke="currentColor" x2="720"></line><text fill="currentColor" x="-3" dy="0.32em"></text></g></g></g><text x="400" y="10" text-anchor="middle" style="font-size: 16px; font-weight: bold; fill: #333;">OKX USDT Lending Rate - Current Month</text></svg>