<svg width="800" height="400" xmlns="http://www.w3.org/2000/svg"><g transform="translate(50,20)"><g transform="translate(0,340)" fill="none" font-size="10" font-family="sans-serif" text-anchor="middle"><path class="domain" stroke="currentColor" d="M0.5,6V0.5H720.5V6"></path><g class="tick" opacity="1" transform="translate(0.5,0)"><line stroke="currentColor" y2="6"></line><text fill="currentColor" y="9" dy=".15em" style="text-anchor: end;" dx="-.8em" transform="rotate(-45)">10/01</text></g><g class="tick" opacity="1" transform="translate(314.6818181818182,0)"><line stroke="currentColor" y2="6"></line><text fill="currentColor" y="9" dy=".15em" style="text-anchor: end;" dx="-.8em" transform="rotate(-45)">10/02</text></g><g class="tick" opacity="1" transform="translate(628.8636363636364,0)"><line stroke="currentColor" y2="6"></line><text fill="currentColor" y="9" dy=".15em" style="text-anchor: end;" dx="-.8em" transform="rotate(-45)">10/03</text></g></g><g fill="none" font-size="10" font-family="sans-serif" text-anchor="end"><path class="domain" stroke="currentColor" d="M-6,340.5H0.5V0.5H-6"></path><g class="tick" opacity="1" transform="translate(0,340.5)"><line stroke="currentColor" x2="-6"></line><text fill="currentColor" x="-9" dy="0.32em">0.00%</text></g><g class="tick" opacity="1" transform="translate(0,309.59090909090907)"><line stroke="currentColor" x2="-6"></line><text fill="currentColor" x="-9" dy="0.32em">10.00%</text></g><g class="tick" opacity="1" transform="translate(0,278.6818181818182)"><line stroke="currentColor" x2="-6"></line><text fill="currentColor" x="-9" dy="0.32em">20.00%</text></g><g class="tick" opacity="1" transform="translate(0,247.77272727272728)"><line stroke="currentColor" x2="-6"></line><text fill="currentColor" x="-9" dy="0.32em">30.00%</text></g><g class="tick" opacity="1" transform="translate(0,216.86363636363637)"><line stroke="currentColor" x2="-6"></line><text fill="currentColor" x="-9" dy="0.32em">40.00%</text></g><g class="tick" opacity="1" transform="translate(0,185.95454545454544)"><line stroke="currentColor" x2="-6"></line><text fill="currentColor" x="-9" dy="0.32em">50.00%</text></g><g class="tick" opacity="1" transform="translate(0,155.04545454545456)"><line stroke="currentColor" x2="-6"></line><text fill="currentColor" x="-9" dy="0.32em">60.00%</text></g><g class="tick" opacity="1" transform="translate(0,124.13636363636368)"><line stroke="currentColor" x2="-6"></line><text fill="currentColor" x="-9" dy="0.32em">70.00%</text></g><g class="tick" opacity="1" transform="translate(0,93.22727272727272)"><line stroke="currentColor" x2="-6"></line><text fill="currentColor" x="-9" dy="0.32em">80.00%</text></g><g class="tick" opacity="1" transform="translate(0,62.31818181818184)"><line stroke="currentColor" x2="-6"></line><text fill="currentColor" x="-9" dy="0.32em">90.00%</text></g><g class="tick" opacity="1" transform="translate(0,31.40909090909092)"><line stroke="currentColor" x2="-6"></line><text fill="currentColor" x="-9" dy="0.32em">100.00%</text></g><g class="tick" opacity="1" transform="translate(0,0.5)"><line stroke="currentColor" x2="-6"></line><text fill="currentColor" x="-9" dy="0.32em">110.00%</text></g></g><text transform="rotate(-90)" y="-50" x="-170" dy="1em" style="text-anchor: middle; font-size: 12px; fill: #666;">Pre Rate (%)</text><text transform="translate(360, 380)" style="text-anchor: middle; font-size: 12px; fill: #666;">Time (UTC)</text><path fill="none" stroke="#2563eb" stroke-width="2" d="M0,327.636C4.364,327.636,8.727,327.636,13.091,327.636C17.455,327.636,21.818,327.636,26.182,327.636C30.545,327.636,34.909,327.636,39.273,327.636C43.636,327.636,48,327.636,52.364,327.636C56.727,327.636,61.091,327.636,65.455,327.636C69.818,327.636,74.182,327.636,78.545,327.636C82.909,327.636,87.273,327.636,91.636,327.636C96,327.636,100.364,327.636,104.727,327.636C109.091,327.636,113.455,327.636,117.818,327.636C122.182,327.636,126.545,327.636,130.909,327.636C135.273,327.636,139.636,327.636,144,327.636C148.364,327.636,152.727,327.636,157.091,327.636C161.455,327.636,165.818,327.636,170.182,327.636C174.545,327.636,178.909,327.636,183.273,327.636C187.636,327.636,192,327.636,196.364,327.636C200.727,327.636,205.091,327.636,209.455,327.636C213.818,327.636,218.182,327.636,222.545,327.636C226.909,327.636,231.273,327.636,235.636,327.636C240,327.636,244.364,327.636,248.727,327.636C253.091,327.636,257.455,327.636,261.818,327.636C266.182,327.636,270.545,327.636,274.909,327.636C279.273,327.636,283.636,327.636,288,327.636C292.364,327.636,296.727,327.636,301.091,327.636C305.455,327.636,309.818,327.636,314.182,327.636C318.545,327.636,322.909,327.636,327.273,327.636C331.636,327.636,336,327.636,340.364,327.636C344.727,327.636,349.091,327.636,353.455,327.636C357.818,327.636,362.182,327.636,366.545,327.636C370.909,327.636,375.273,327.636,379.636,327.636C384,327.636,388.364,327.636,392.727,327.636C397.091,327.636,401.455,327.636,405.818,327.636C410.182,327.636,414.545,327.636,418.909,327.636C423.273,327.636,427.636,327.636,432,327.636C436.364,327.636,440.727,327.636,445.091,327.636C449.455,327.636,453.818,327.636,458.182,327.636C462.545,327.636,466.909,327.636,471.273,327.636C475.636,327.636,480,18.545,484.364,18.545C488.727,18.545,493.091,293.636,497.455,306C501.818,318.364,506.182,324.545,510.545,324.545C514.909,324.545,519.273,324.545,523.636,324.545C528,324.545,532.364,324.545,536.727,324.545C541.091,324.545,545.455,324.545,549.818,324.545C554.182,324.545,558.545,324.545,562.909,324.545C567.273,324.545,571.636,324.545,576,324.545C580.364,324.545,584.727,324.545,589.091,324.545C593.455,324.545,597.818,324.545,602.182,324.545C606.545,324.545,610.909,324.545,615.273,324.545C619.636,324.545,624,324.545,628.364,324.545C632.727,324.545,637.091,324.545,641.455,324.545C645.818,324.545,650.182,324.545,654.545,324.545C658.909,324.545,663.273,324.545,667.636,324.545C672,324.545,676.364,324.545,680.727,324.545C685.091,324.545,689.455,324.545,693.818,324.545C698.182,324.545,702.545,324.545,706.909,324.545C711.273,324.545,715.636,324.545,720,324.545"></path><circle class="dot" cx="0" cy="327.6363636363636" r="3" fill="#2563eb"></circle><circle class="dot" cx="13.09090909090909" cy="327.6363636363636" r="3" fill="#2563eb"></circle><circle class="dot" cx="26.18181818181818" cy="327.6363636363636" r="3" fill="#2563eb"></circle><circle class="dot" cx="39.27272727272727" cy="327.6363636363636" r="3" fill="#2563eb"></circle><circle class="dot" cx="52.36363636363636" cy="327.6363636363636" r="3" fill="#2563eb"></circle><circle class="dot" cx="65.45454545454545" cy="327.6363636363636" r="3" fill="#2563eb"></circle><circle class="dot" cx="78.54545454545455" cy="327.6363636363636" r="3" fill="#2563eb"></circle><circle class="dot" cx="91.63636363636363" cy="327.6363636363636" r="3" fill="#2563eb"></circle><circle class="dot" cx="104.72727272727272" cy="327.6363636363636" r="3" fill="#2563eb"></circle><circle class="dot" cx="117.81818181818181" cy="327.6363636363636" r="3" fill="#2563eb"></circle><circle class="dot" cx="130.9090909090909" cy="327.6363636363636" r="3" fill="#2563eb"></circle><circle class="dot" cx="144" cy="327.6363636363636" r="3" fill="#2563eb"></circle><circle class="dot" cx="157.0909090909091" cy="327.6363636363636" r="3" fill="#2563eb"></circle><circle class="dot" cx="170.1818181818182" cy="327.6363636363636" r="3" fill="#2563eb"></circle><circle class="dot" cx="183.27272727272725" cy="327.6363636363636" r="3" fill="#2563eb"></circle><circle class="dot" cx="196.36363636363635" cy="327.6363636363636" r="3" fill="#2563eb"></circle><circle class="dot" cx="209.45454545454544" cy="327.6363636363636" r="3" fill="#2563eb"></circle><circle class="dot" cx="222.54545454545453" cy="327.6363636363636" r="3" fill="#2563eb"></circle><circle class="dot" cx="235.63636363636363" cy="327.6363636363636" r="3" fill="#2563eb"></circle><circle class="dot" cx="248.72727272727272" cy="327.6363636363636" r="3" fill="#2563eb"></circle><circle class="dot" cx="261.8181818181818" cy="327.6363636363636" r="3" fill="#2563eb"></circle><circle class="dot" cx="274.90909090909093" cy="327.6363636363636" r="3" fill="#2563eb"></circle><circle class="dot" cx="288" cy="327.6363636363636" r="3" fill="#2563eb"></circle><circle class="dot" cx="301.09090909090907" cy="327.6363636363636" r="3" fill="#2563eb"></circle><circle class="dot" cx="314.1818181818182" cy="327.6363636363636" r="3" fill="#2563eb"></circle><circle class="dot" cx="327.27272727272725" cy="327.6363636363636" r="3" fill="#2563eb"></circle><circle class="dot" cx="340.3636363636364" cy="327.6363636363636" r="3" fill="#2563eb"></circle><circle class="dot" cx="353.45454545454544" cy="327.6363636363636" r="3" fill="#2563eb"></circle><circle class="dot" cx="366.5454545454545" cy="327.6363636363636" r="3" fill="#2563eb"></circle><circle class="dot" cx="379.6363636363636" cy="327.6363636363636" r="3" fill="#2563eb"></circle><circle class="dot" cx="392.7272727272727" cy="327.6363636363636" r="3" fill="#2563eb"></circle><circle class="dot" cx="405.8181818181818" cy="327.6363636363636" r="3" fill="#2563eb"></circle><circle class="dot" cx="418.9090909090909" cy="327.6363636363636" r="3" fill="#2563eb"></circle><circle class="dot" cx="432" cy="327.6363636363636" r="3" fill="#2563eb"></circle><circle class="dot" cx="445.09090909090907" cy="327.6363636363636" r="3" fill="#2563eb"></circle><circle class="dot" cx="458.1818181818182" cy="327.6363636363636" r="3" fill="#2563eb"></circle><circle class="dot" cx="471.27272727272725" cy="327.6363636363636" r="3" fill="#2563eb"></circle><circle class="dot" cx="484.3636363636364" cy="18.54545454545455" r="3" fill="#2563eb"></circle><circle class="dot" cx="497.45454545454544" cy="306" r="3" fill="#2563eb"></circle><circle class="dot" cx="510.54545454545456" cy="324.54545454545456" r="3" fill="#2563eb"></circle><circle class="dot" cx="523.6363636363636" cy="324.54545454545456" r="3" fill="#2563eb"></circle><circle class="dot" cx="536.7272727272727" cy="324.54545454545456" r="3" fill="#2563eb"></circle><circle class="dot" cx="549.8181818181819" cy="324.54545454545456" r="3" fill="#2563eb"></circle><circle class="dot" cx="562.909090909091" cy="324.54545454545456" r="3" fill="#2563eb"></circle><circle class="dot" cx="576" cy="324.54545454545456" r="3" fill="#2563eb"></circle><circle class="dot" cx="589.0909090909091" cy="324.54545454545456" r="3" fill="#2563eb"></circle><circle class="dot" cx="602.1818181818181" cy="324.54545454545456" r="3" fill="#2563eb"></circle><circle class="dot" cx="615.2727272727273" cy="324.54545454545456" r="3" fill="#2563eb"></circle><circle class="dot" cx="628.3636363636364" cy="324.54545454545456" r="3" fill="#2563eb"></circle><circle class="dot" cx="641.4545454545454" cy="324.54545454545456" r="3" fill="#2563eb"></circle><circle class="dot" cx="654.5454545454545" cy="324.54545454545456" r="3" fill="#2563eb"></circle><circle class="dot" cx="667.6363636363636" cy="324.54545454545456" r="3" fill="#2563eb"></circle><circle class="dot" cx="680.7272727272727" cy="324.54545454545456" r="3" fill="#2563eb"></circle><circle class="dot" cx="693.8181818181818" cy="324.54545454545456" r="3" fill="#2563eb"></circle><circle class="dot" cx="706.9090909090909" cy="324.54545454545456" r="3" fill="#2563eb"></circle><circle class="dot" cx="720" cy="324.54545454545456" r="3" fill="#2563eb"></circle><g class="grid" transform="translate(0,340)" fill="none" font-size="10" font-family="sans-serif" text-anchor="middle" style="stroke-dasharray: 3,3; opacity: 0.3;"><path class="domain" stroke="currentColor" d="M0.5,-340V0.5H720.5V-340"></path><g class="tick" opacity="1" transform="translate(0.5,0)"><line stroke="currentColor" y2="-340"></line><text fill="currentColor" y="3" dy="0.71em"></text></g><g class="tick" opacity="1" transform="translate(314.6818181818182,0)"><line stroke="currentColor" y2="-340"></line><text fill="currentColor" y="3" dy="0.71em"></text></g><g class="tick" opacity="1" transform="translate(628.8636363636364,0)"><line stroke="currentColor" y2="-340"></line><text fill="currentColor" y="3" dy="0.71em"></text></g></g><g class="grid" fill="none" font-size="10" font-family="sans-serif" text-anchor="end" style="stroke-dasharray: 3,3; opacity: 0.3;"><path class="domain" stroke="currentColor" d="M720,340.5H0.5V0.5H720"></path><g class="tick" opacity="1" transform="translate(0,340.5)"><line stroke="currentColor" x2="720"></line><text fill="currentColor" x="-3" dy="0.32em"></text></g><g class="tick" opacity="1" transform="translate(0,309.59090909090907)"><line stroke="currentColor" x2="720"></line><text fill="currentColor" x="-3" dy="0.32em"></text></g><g class="tick" opacity="1" transform="translate(0,278.6818181818182)"><line stroke="currentColor" x2="720"></line><text fill="currentColor" x="-3" dy="0.32em"></text></g><g class="tick" opacity="1" transform="translate(0,247.77272727272728)"><line stroke="currentColor" x2="720"></line><text fill="currentColor" x="-3" dy="0.32em"></text></g><g class="tick" opacity="1" transform="translate(0,216.86363636363637)"><line stroke="currentColor" x2="720"></line><text fill="currentColor" x="-3" dy="0.32em"></text></g><g class="tick" opacity="1" transform="translate(0,185.95454545454544)"><line stroke="currentColor" x2="720"></line><text fill="currentColor" x="-3" dy="0.32em"></text></g><g class="tick" opacity="1" transform="translate(0,155.04545454545456)"><line stroke="currentColor" x2="720"></line><text fill="currentColor" x="-3" dy="0.32em"></text></g><g class="tick" opacity="1" transform="translate(0,124.13636363636368)"><line stroke="currentColor" x2="720"></line><text fill="currentColor" x="-3" dy="0.32em"></text></g><g class="tick" opacity="1" transform="translate(0,93.22727272727272)"><line stroke="currentColor" x2="720"></line><text fill="currentColor" x="-3" dy="0.32em"></text></g><g class="tick" opacity="1" transform="translate(0,62.31818181818184)"><line stroke="currentColor" x2="720"></line><text fill="currentColor" x="-3" dy="0.32em"></text></g><g class="tick" opacity="1" transform="translate(0,31.40909090909092)"><line stroke="currentColor" x2="720"></line><text fill="currentColor" x="-3" dy="0.32em"></text></g><g class="tick" opacity="1" transform="translate(0,0.5)"><line stroke="currentColor" x2="720"></line><text fill="currentColor" x="-3" dy="0.32em"></text></g></g></g><text x="400" y="10" text-anchor="middle" style="font-size: 16px; font-weight: bold; fill: #333;">OKX USDT Lending Rate - Current Month</text></svg>