<svg width="800" height="400" xmlns="http://www.w3.org/2000/svg"><g transform="translate(50,20)"><g transform="translate(0,340)" fill="none" font-size="10" font-family="sans-serif" text-anchor="middle"><path class="domain" stroke="currentColor" d="M0.5,6V0.5H720.5V6"></path><g class="tick" opacity="1" transform="translate(0.5,0)"><line stroke="currentColor" y2="6"></line><text fill="currentColor" y="9" dy=".15em" style="text-anchor: end;" dx="-.8em" transform="rotate(-45)">08/01</text></g><g class="tick" opacity="1" transform="translate(34.25,0)"><line stroke="currentColor" y2="6"></line><text fill="currentColor" y="9" dy=".15em" style="text-anchor: end;" dx="-.8em" transform="rotate(-45)">08/02</text></g><g class="tick" opacity="1" transform="translate(68,0)"><line stroke="currentColor" y2="6"></line><text fill="currentColor" y="9" dy=".15em" style="text-anchor: end;" dx="-.8em" transform="rotate(-45)">08/03</text></g><g class="tick" opacity="1" transform="translate(101.75,0)"><line stroke="currentColor" y2="6"></line><text fill="currentColor" y="9" dy=".15em" style="text-anchor: end;" dx="-.8em" transform="rotate(-45)">08/04</text></g><g class="tick" opacity="1" transform="translate(135.5,0)"><line stroke="currentColor" y2="6"></line><text fill="currentColor" y="9" dy=".15em" style="text-anchor: end;" dx="-.8em" transform="rotate(-45)">08/05</text></g><g class="tick" opacity="1" transform="translate(169.25,0)"><line stroke="currentColor" y2="6"></line><text fill="currentColor" y="9" dy=".15em" style="text-anchor: end;" dx="-.8em" transform="rotate(-45)">08/06</text></g><g class="tick" opacity="1" transform="translate(203,0)"><line stroke="currentColor" y2="6"></line><text fill="currentColor" y="9" dy=".15em" style="text-anchor: end;" dx="-.8em" transform="rotate(-45)">08/07</text></g><g class="tick" opacity="1" transform="translate(236.75,0)"><line stroke="currentColor" y2="6"></line><text fill="currentColor" y="9" dy=".15em" style="text-anchor: end;" dx="-.8em" transform="rotate(-45)">08/08</text></g><g class="tick" opacity="1" transform="translate(270.5,0)"><line stroke="currentColor" y2="6"></line><text fill="currentColor" y="9" dy=".15em" style="text-anchor: end;" dx="-.8em" transform="rotate(-45)">08/09</text></g><g class="tick" opacity="1" transform="translate(304.25,0)"><line stroke="currentColor" y2="6"></line><text fill="currentColor" y="9" dy=".15em" style="text-anchor: end;" dx="-.8em" transform="rotate(-45)">08/10</text></g><g class="tick" opacity="1" transform="translate(338,0)"><line stroke="currentColor" y2="6"></line><text fill="currentColor" y="9" dy=".15em" style="text-anchor: end;" dx="-.8em" transform="rotate(-45)">08/11</text></g><g class="tick" opacity="1" transform="translate(371.75,0)"><line stroke="currentColor" y2="6"></line><text fill="currentColor" y="9" dy=".15em" style="text-anchor: end;" dx="-.8em" transform="rotate(-45)">08/12</text></g><g class="tick" opacity="1" transform="translate(405.5,0)"><line stroke="currentColor" y2="6"></line><text fill="currentColor" y="9" dy=".15em" style="text-anchor: end;" dx="-.8em" transform="rotate(-45)">08/13</text></g><g class="tick" opacity="1" transform="translate(439.25,0)"><line stroke="currentColor" y2="6"></line><text fill="currentColor" y="9" dy=".15em" style="text-anchor: end;" dx="-.8em" transform="rotate(-45)">08/14</text></g><g class="tick" opacity="1" transform="translate(473,0)"><line stroke="currentColor" y2="6"></line><text fill="currentColor" y="9" dy=".15em" style="text-anchor: end;" dx="-.8em" transform="rotate(-45)">08/15</text></g><g class="tick" opacity="1" transform="translate(506.75,0)"><line stroke="currentColor" y2="6"></line><text fill="currentColor" y="9" dy=".15em" style="text-anchor: end;" dx="-.8em" transform="rotate(-45)">08/16</text></g><g class="tick" opacity="1" transform="translate(540.5,0)"><line stroke="currentColor" y2="6"></line><text fill="currentColor" y="9" dy=".15em" style="text-anchor: end;" dx="-.8em" transform="rotate(-45)">08/17</text></g><g class="tick" opacity="1" transform="translate(574.25,0)"><line stroke="currentColor" y2="6"></line><text fill="currentColor" y="9" dy=".15em" style="text-anchor: end;" dx="-.8em" transform="rotate(-45)">08/18</text></g><g class="tick" opacity="1" transform="translate(608,0)"><line stroke="currentColor" y2="6"></line><text fill="currentColor" y="9" dy=".15em" style="text-anchor: end;" dx="-.8em" transform="rotate(-45)">08/19</text></g><g class="tick" opacity="1" transform="translate(641.75,0)"><line stroke="currentColor" y2="6"></line><text fill="currentColor" y="9" dy=".15em" style="text-anchor: end;" dx="-.8em" transform="rotate(-45)">08/20</text></g><g class="tick" opacity="1" transform="translate(675.5,0)"><line stroke="currentColor" y2="6"></line><text fill="currentColor" y="9" dy=".15em" style="text-anchor: end;" dx="-.8em" transform="rotate(-45)">08/21</text></g><g class="tick" opacity="1" transform="translate(709.25,0)"><line stroke="currentColor" y2="6"></line><text fill="currentColor" y="9" dy=".15em" style="text-anchor: end;" dx="-.8em" transform="rotate(-45)">08/22</text></g></g><g fill="none" font-size="10" font-family="sans-serif" text-anchor="end"><path class="domain" stroke="currentColor" d="M-6,340.5H0.5V0.5H-6"></path><g class="tick" opacity="1" transform="translate(0,340.5)"><line stroke="currentColor" x2="-6"></line><text fill="currentColor" x="-9" dy="0.32em">2.50%</text></g><g class="tick" opacity="1" transform="translate(0,302.72222222222223)"><line stroke="currentColor" x2="-6"></line><text fill="currentColor" x="-9" dy="0.32em">3.00%</text></g><g class="tick" opacity="1" transform="translate(0,264.94444444444446)"><line stroke="currentColor" x2="-6"></line><text fill="currentColor" x="-9" dy="0.32em">3.50%</text></g><g class="tick" opacity="1" transform="translate(0,227.16666666666669)"><line stroke="currentColor" x2="-6"></line><text fill="currentColor" x="-9" dy="0.32em">4.00%</text></g><g class="tick" opacity="1" transform="translate(0,189.38888888888894)"><line stroke="currentColor" x2="-6"></line><text fill="currentColor" x="-9" dy="0.32em">4.50%</text></g><g class="tick" opacity="1" transform="translate(0,151.61111111111114)"><line stroke="currentColor" x2="-6"></line><text fill="currentColor" x="-9" dy="0.32em">5.00%</text></g><g class="tick" opacity="1" transform="translate(0,113.83333333333339)"><line stroke="currentColor" x2="-6"></line><text fill="currentColor" x="-9" dy="0.32em">5.50%</text></g><g class="tick" opacity="1" transform="translate(0,76.05555555555563)"><line stroke="currentColor" x2="-6"></line><text fill="currentColor" x="-9" dy="0.32em">6.00%</text></g><g class="tick" opacity="1" transform="translate(0,38.27777777777779)"><line stroke="currentColor" x2="-6"></line><text fill="currentColor" x="-9" dy="0.32em">6.50%</text></g><g class="tick" opacity="1" transform="translate(0,0.5)"><line stroke="currentColor" x2="-6"></line><text fill="currentColor" x="-9" dy="0.32em">7.00%</text></g></g><text transform="rotate(-90)" y="-50" x="-170" dy="1em" style="text-anchor: middle; font-size: 12px; fill: #666;">Pre Rate (%)</text><text transform="translate(360, 380)" style="text-anchor: middle; font-size: 12px; fill: #666;">Time (UTC)</text><path fill="none" stroke="#2563eb" stroke-width="2" d="M0,340C0.469,340,0.938,340,1.406,340C1.875,340,2.344,340,2.813,340C3.281,340,3.75,340,4.219,340C4.688,340,5.156,340,5.625,340C6.094,340,6.563,340,7.031,340C7.5,340,7.969,340,8.438,340C8.906,340,9.375,340,9.844,340C10.313,340,10.781,340,11.25,340C11.719,340,12.188,340,12.656,340C13.125,340,13.594,340,14.063,340C14.531,340,15,340,15.469,340C15.938,340,16.406,340,16.875,340C17.344,340,17.813,340,18.281,340C18.75,340,19.219,340,19.688,340C20.156,340,20.625,340,21.094,340C21.563,340,22.031,340,22.5,340C22.969,340,23.438,340,23.906,340C24.375,340,24.844,340,25.313,340C25.781,340,26.25,340,26.719,340C27.188,340,27.656,340,28.125,340C28.594,340,29.063,340,29.531,340C30,340,30.469,340,30.938,340C31.406,340,31.875,340,32.344,340C32.813,340,33.281,340,33.75,340C34.219,340,34.688,340,35.156,340C35.625,340,36.094,340,36.563,340C37.031,340,37.5,340,37.969,340C38.438,340,38.906,340,39.375,340C39.844,340,40.313,340,40.781,340C41.25,340,41.719,340,42.188,340C42.656,340,43.125,340,43.594,340C44.063,340,44.531,340,45,340C45.469,340,45.938,340,46.406,340C46.875,340,47.344,340,47.813,340C48.281,340,48.75,340,49.219,340C49.688,340,50.156,340,50.625,340C51.094,340,51.563,340,52.031,340C52.5,340,52.969,340,53.438,340C53.906,340,54.375,340,54.844,340C55.313,340,55.781,340,56.25,340C56.719,340,57.188,340,57.656,340C58.125,340,58.594,340,59.063,340C59.531,340,60,340,60.469,340C60.938,340,61.406,340,61.875,340C62.344,340,62.813,340,63.281,340C63.75,340,64.219,340,64.688,340C65.156,340,65.625,340,66.094,340C66.563,340,67.031,340,67.5,340C67.969,340,68.438,340,68.906,340C69.375,340,69.844,340,70.313,340C70.781,340,71.25,340,71.719,340C72.188,340,72.656,340,73.125,340C73.594,340,74.063,340,74.531,340C75,340,75.469,340,75.938,340C76.406,340,76.875,340,77.344,340C77.813,340,78.281,340,78.75,340C79.219,340,79.688,340,80.156,340C80.625,340,81.094,340,81.563,340C82.031,340,82.5,340,82.969,340C83.438,340,83.906,340,84.375,340C84.844,340,85.313,340,85.781,340C86.25,340,86.719,340,87.188,340C87.656,340,88.125,340,88.594,340C89.063,340,89.531,340,90,340C90.469,340,90.938,340,91.406,340C91.875,340,92.344,340,92.813,340C93.281,340,93.75,340,94.219,340C94.688,340,95.156,340,95.625,340C96.094,340,96.563,340,97.031,340C97.5,340,97.969,340,98.438,340C98.906,340,99.375,340,99.844,340C100.313,340,100.781,340,101.25,340C101.719,340,102.188,340,102.656,340C103.125,340,103.594,340,104.063,340C104.531,340,105,340,105.469,340C105.938,340,106.406,340,106.875,340C107.344,340,107.813,340,108.281,340C108.75,340,109.219,340,109.688,340C110.156,340,110.625,340,111.094,340C111.563,340,112.031,340,112.5,340C112.969,340,113.438,340,113.906,340C114.375,340,114.844,340,115.313,340C115.781,340,116.25,340,116.719,340C117.188,340,117.656,340,118.125,340C118.594,340,119.063,340,119.531,340C120,340,120.469,340,120.938,340C121.406,340,121.875,340,122.344,340C122.813,340,123.281,340,123.75,340C124.219,340,124.688,340,125.156,340C125.625,340,126.094,340,126.563,340C127.031,340,127.5,340,127.969,340C128.438,340,128.906,340,129.375,340C129.844,340,130.313,340,130.781,340C131.25,340,131.719,340,132.188,340C132.656,340,133.125,340,133.594,340C134.063,340,134.531,340,135,340C135.469,340,135.938,340,136.406,340C136.875,340,137.344,340,137.813,340C138.281,340,138.75,340,139.219,340C139.688,340,140.156,340,140.625,340C141.094,340,141.563,340,142.031,340C142.5,340,142.969,340,143.438,340C143.906,340,144.375,317.333,144.844,317.333C145.313,317.333,145.781,317.333,146.25,317.333C146.719,317.333,147.188,317.333,147.656,317.333C148.125,317.333,148.594,317.333,149.063,317.333C149.531,317.333,150,317.333,150.469,317.333C150.938,317.333,151.406,317.333,151.875,317.333C152.344,317.333,152.813,317.333,153.281,317.333C153.75,317.333,154.219,317.333,154.688,317.333C155.156,317.333,155.625,317.333,156.094,317.333C156.563,317.333,157.031,317.333,157.5,317.333C157.969,317.333,158.438,317.333,158.906,317.333C159.375,317.333,159.844,317.333,160.313,317.333C160.781,317.333,161.25,317.333,161.719,317.333C162.188,317.333,162.656,317.333,163.125,317.333C163.594,317.333,164.063,317.333,164.531,317.333C165,317.333,165.469,317.333,165.938,317.333C166.406,317.333,166.875,317.333,167.344,317.333C167.813,317.333,168.281,317.333,168.75,317.333C169.219,317.333,169.688,317.333,170.156,317.333C170.625,317.333,171.094,317.333,171.563,317.333C172.031,317.333,172.5,317.333,172.969,317.333C173.438,317.333,173.906,317.333,174.375,317.333C174.844,317.333,175.313,317.333,175.781,317.333C176.25,317.333,176.719,317.333,177.188,317.333C177.656,317.333,178.125,317.333,178.594,317.333C179.063,317.333,179.531,317.333,180,317.333C180.469,317.333,180.938,317.333,181.406,317.333C181.875,317.333,182.344,317.333,182.813,317.333C183.281,317.333,183.75,317.333,184.219,317.333C184.688,317.333,185.156,317.333,185.625,317.333C186.094,317.333,186.563,317.333,187.031,317.333C187.5,317.333,187.969,317.333,188.438,317.333C188.906,317.333,189.375,317.333,189.844,317.333C190.313,317.333,190.781,317.333,191.25,317.333C191.719,317.333,192.188,317.333,192.656,317.333C193.125,317.333,193.594,317.333,194.063,317.333C194.531,317.333,195,317.333,195.469,317.333C195.938,317.333,196.406,317.333,196.875,317.333C197.344,317.333,197.813,317.333,198.281,317.333C198.75,317.333,199.219,317.333,199.688,317.333C200.156,317.333,200.625,317.333,201.094,317.333C201.563,317.333,202.031,317.333,202.5,317.333C202.969,317.333,203.438,317.333,203.906,317.333C204.375,317.333,204.844,317.333,205.313,317.333C205.781,317.333,206.25,317.333,206.719,317.333C207.188,317.333,207.656,317.333,208.125,317.333C208.594,317.333,209.063,317.333,209.531,317.333C210,317.333,210.469,317.333,210.938,317.333C211.406,317.333,211.875,317.333,212.344,317.333C212.813,317.333,213.281,317.333,213.75,317.333C214.219,317.333,214.688,317.333,215.156,317.333C215.625,317.333,216.094,317.333,216.563,317.333C217.031,317.333,217.5,317.333,217.969,317.333C218.438,317.333,218.906,317.333,219.375,317.333C219.844,317.333,220.313,317.333,220.781,317.333C221.25,317.333,221.719,317.333,222.188,317.333C222.656,317.333,223.125,317.333,223.594,317.333C224.063,317.333,224.531,317.333,225,317.333C225.469,317.333,225.938,317.333,226.406,317.333C226.875,317.333,227.344,317.333,227.813,317.333C228.281,317.333,228.75,317.333,229.219,317.333C229.688,317.333,230.156,317.333,230.625,317.333C231.094,317.333,231.563,317.333,232.031,317.333C232.5,317.333,232.969,317.333,233.438,317.333C233.906,317.333,234.375,317.333,234.844,317.333C235.313,317.333,235.781,317.333,236.25,317.333C236.719,317.333,237.188,317.333,237.656,317.333C238.125,317.333,238.594,317.333,239.063,317.333C239.531,317.333,240,317.333,240.469,317.333C240.938,317.333,241.406,317.333,241.875,317.333C242.344,317.333,242.813,317.333,243.281,317.333C243.75,317.333,244.219,317.333,244.688,317.333C245.156,317.333,245.625,317.333,246.094,317.333C246.563,317.333,247.031,317.333,247.5,317.333C247.969,317.333,248.438,317.333,248.906,317.333C249.375,317.333,249.844,317.333,250.313,317.333C250.781,317.333,251.25,317.333,251.719,317.333C252.188,317.333,252.656,317.333,253.125,317.333C253.594,317.333,254.063,317.333,254.531,317.333C255,317.333,255.469,317.333,255.938,317.333C256.406,317.333,256.875,317.333,257.344,317.333C257.813,317.333,258.281,317.333,258.75,317.333C259.219,317.333,259.688,317.333,260.156,317.333C260.625,317.333,261.094,317.333,261.563,317.333C262.031,317.333,262.5,317.333,262.969,317.333C263.438,317.333,263.906,317.333,264.375,317.333C264.844,317.333,265.313,317.333,265.781,317.333C266.25,317.333,266.719,317.333,267.188,317.333C267.656,317.333,268.125,317.333,268.594,317.333C269.063,317.333,269.531,317.333,270,317.333C270.469,317.333,270.938,317.333,271.406,317.333C271.875,317.333,272.344,317.333,272.813,317.333C273.281,317.333,273.75,317.333,274.219,317.333C274.688,317.333,275.156,317.333,275.625,317.333C276.094,317.333,276.563,317.333,277.031,317.333C277.5,317.333,277.969,317.333,278.438,317.333C278.906,317.333,279.375,317.333,279.844,317.333C280.313,317.333,280.781,317.333,281.25,317.333C281.719,317.333,282.188,317.333,282.656,317.333C283.125,317.333,283.594,317.333,284.063,317.333C284.531,317.333,285,317.333,285.469,317.333C285.938,317.333,286.406,317.333,286.875,317.333C287.344,317.333,287.813,317.333,288.281,317.333C288.75,317.333,289.219,317.333,289.688,317.333C290.156,317.333,290.625,317.333,291.094,317.333C291.563,317.333,292.031,317.333,292.5,317.333C292.969,317.333,293.438,317.333,293.906,317.333C294.375,317.333,294.844,317.333,295.313,317.333C295.781,317.333,296.25,317.333,296.719,317.333C297.188,317.333,297.656,317.333,298.125,317.333C298.594,317.333,299.063,317.333,299.531,317.333C300,317.333,300.469,317.333,300.938,317.333C301.406,317.333,301.875,317.333,302.344,317.333C302.813,317.333,303.281,317.333,303.75,317.333C304.219,317.333,304.688,317.333,305.156,317.333C305.625,317.333,306.094,317.333,306.563,317.333C307.031,317.333,307.5,317.333,307.969,317.333C308.438,317.333,308.906,317.333,309.375,317.333C309.844,317.333,310.313,317.333,310.781,317.333C311.25,317.333,311.719,317.333,312.188,317.333C312.656,317.333,313.125,317.333,313.594,317.333C314.063,317.333,314.531,317.333,315,317.333C315.469,317.333,315.938,317.333,316.406,317.333C316.875,317.333,317.344,317.333,317.813,317.333C318.281,317.333,318.75,317.333,319.219,317.333C319.688,317.333,320.156,317.333,320.625,317.333C321.094,317.333,321.563,317.333,322.031,317.333C322.5,317.333,322.969,317.333,323.438,317.333C323.906,317.333,324.375,317.333,324.844,317.333C325.313,317.333,325.781,317.333,326.25,317.333C326.719,317.333,327.188,317.333,327.656,317.333C328.125,317.333,328.594,317.333,329.063,317.333C329.531,317.333,330,317.333,330.469,317.333C330.938,317.333,331.406,317.333,331.875,317.333C332.344,317.333,332.813,317.333,333.281,317.333C333.75,317.333,334.219,317.333,334.688,317.333C335.156,317.333,335.625,317.333,336.094,317.333C336.563,317.333,337.031,317.333,337.5,317.333C337.969,317.333,338.438,317.333,338.906,317.333C339.375,317.333,339.844,317.333,340.313,317.333C340.781,317.333,341.25,317.333,341.719,317.333C342.188,317.333,342.656,317.333,343.125,317.333C343.594,317.333,344.063,317.333,344.531,317.333C345,317.333,345.469,317.333,345.938,317.333C346.406,317.333,346.875,317.333,347.344,317.333C347.813,317.333,348.281,317.333,348.75,317.333C349.219,317.333,349.688,317.333,350.156,317.333C350.625,317.333,351.094,317.333,351.563,317.333C352.031,317.333,352.5,317.333,352.969,317.333C353.438,317.333,353.906,317.333,354.375,317.333C354.844,317.333,355.313,317.333,355.781,317.333C356.25,317.333,356.719,317.333,357.188,317.333C357.656,317.333,358.125,317.333,358.594,317.333C359.063,317.333,359.531,317.333,360,317.333C360.469,317.333,360.938,317.333,361.406,317.333C361.875,317.333,362.344,317.333,362.813,317.333C363.281,317.333,363.75,317.333,364.219,317.333C364.688,317.333,365.156,317.333,365.625,317.333C366.094,317.333,366.563,317.333,367.031,317.333C367.5,317.333,367.969,317.333,368.438,317.333C368.906,317.333,369.375,317.333,369.844,317.333C370.313,317.333,370.781,317.333,371.25,317.333C371.719,317.333,372.188,317.333,372.656,317.333C373.125,317.333,373.594,317.333,374.063,317.333C374.531,317.333,375,317.333,375.469,317.333C375.938,317.333,376.406,317.333,376.875,317.333C377.344,317.333,377.813,317.333,378.281,317.333C378.75,317.333,379.219,317.333,379.688,317.333C380.156,317.333,380.625,317.333,381.094,317.333C381.563,317.333,382.031,317.333,382.5,317.333C382.969,317.333,383.438,317.333,383.906,317.333C384.375,317.333,384.844,317.333,385.313,317.333C385.781,317.333,386.25,317.333,386.719,317.333C387.188,317.333,387.656,317.333,388.125,317.333C388.594,317.333,389.063,317.333,389.531,317.333C390,317.333,390.469,317.333,390.938,317.333C391.406,317.333,391.875,317.333,392.344,317.333C392.813,317.333,393.281,317.333,393.75,317.333C394.219,317.333,394.688,317.333,395.156,317.333C395.625,317.333,396.094,317.333,396.563,317.333C397.031,317.333,397.5,317.333,397.969,317.333C398.438,317.333,398.906,317.333,399.375,317.333C399.844,317.333,400.313,317.333,400.781,317.333C401.25,317.333,401.719,317.333,402.188,317.333C402.656,317.333,403.125,317.333,403.594,317.333C404.063,317.333,404.531,317.333,405,317.333C405.469,317.333,405.938,317.333,406.406,317.333C406.875,317.333,407.344,317.333,407.813,317.333C408.281,317.333,408.75,317.333,409.219,317.333C409.688,317.333,410.156,317.333,410.625,317.333C411.094,317.333,411.563,317.333,412.031,317.333C412.5,317.333,412.969,317.333,413.438,317.333C413.906,317.333,414.375,317.333,414.844,317.333C415.313,317.333,415.781,317.333,416.25,317.333C416.719,317.333,417.188,317.333,417.656,317.333C418.125,317.333,418.594,317.333,419.063,317.333C419.531,317.333,420,317.333,420.469,317.333C420.938,317.333,421.406,317.333,421.875,317.333C422.344,317.333,422.813,317.333,423.281,317.333C423.75,317.333,424.219,317.333,424.688,317.333C425.156,317.333,425.625,317.333,426.094,317.333C426.563,317.333,427.031,317.333,427.5,317.333C427.969,317.333,428.438,317.333,428.906,317.333C429.375,317.333,429.844,317.333,430.313,317.333C430.781,317.333,431.25,317.333,431.719,317.333C432.188,317.333,432.656,317.333,433.125,317.333C433.594,317.333,434.063,317.333,434.531,317.333C435,317.333,435.469,317.333,435.938,317.333C436.406,317.333,436.875,317.333,437.344,317.333C437.813,317.333,438.281,317.333,438.75,317.333C439.219,317.333,439.688,317.333,440.156,317.333C440.625,317.333,441.094,317.333,441.563,317.333C442.031,317.333,442.5,317.333,442.969,317.333C443.438,317.333,443.906,317.333,444.375,317.333C444.844,317.333,445.313,317.333,445.781,317.333C446.25,317.333,446.719,317.333,447.188,317.333C447.656,317.333,448.125,317.333,448.594,317.333C449.063,317.333,449.531,317.333,450,317.333C450.469,317.333,450.938,317.333,451.406,317.333C451.875,317.333,452.344,317.333,452.813,317.333C453.281,317.333,453.75,317.333,454.219,317.333C454.688,317.333,455.156,317.333,455.625,317.333C456.094,317.333,456.563,317.333,457.031,317.333C457.5,317.333,457.969,317.333,458.438,317.333C458.906,317.333,459.375,317.333,459.844,317.333C460.313,317.333,460.781,317.333,461.25,317.333C461.719,317.333,462.188,317.333,462.656,317.333C463.125,317.333,463.594,317.333,464.063,317.333C464.531,317.333,465,317.333,465.469,317.333C465.938,317.333,466.406,317.333,466.875,317.333C467.344,317.333,467.813,317.333,468.281,317.333C468.75,317.333,469.219,317.333,469.688,317.333C470.156,317.333,470.625,317.333,471.094,317.333C471.563,317.333,472.031,317.333,472.5,317.333C472.969,317.333,473.438,317.333,473.906,317.333C474.375,317.333,474.844,317.333,475.313,317.333C475.781,317.333,476.25,317.333,476.719,317.333C477.188,317.333,477.656,317.333,478.125,317.333C478.594,317.333,479.063,317.333,479.531,317.333C480,317.333,480.469,317.333,480.938,317.333C481.406,317.333,481.875,317.333,482.344,317.333C482.813,317.333,483.281,317.333,483.75,317.333C484.219,317.333,484.688,317.333,485.156,317.333C485.625,317.333,486.094,317.333,486.563,317.333C487.031,317.333,487.5,317.333,487.969,317.333C488.438,317.333,488.906,317.333,489.375,317.333C489.844,317.333,490.313,317.333,490.781,317.333C491.25,317.333,491.719,317.333,492.188,317.333C492.656,317.333,493.125,317.333,493.594,317.333C494.063,317.333,494.531,317.333,495,317.333C495.469,317.333,495.938,317.333,496.406,317.333C496.875,317.333,497.344,317.333,497.813,317.333C498.281,317.333,498.75,317.333,499.219,317.333C499.688,317.333,500.156,317.333,500.625,317.333C501.094,317.333,501.563,317.333,502.031,317.333C502.5,317.333,502.969,317.333,503.438,317.333C503.906,317.333,504.375,317.333,504.844,317.333C505.313,317.333,505.781,317.333,506.25,317.333C506.719,317.333,507.188,317.333,507.656,317.333C508.125,317.333,508.594,317.333,509.063,317.333C509.531,317.333,510,317.333,510.469,317.333C510.938,317.333,511.406,317.333,511.875,317.333C512.344,317.333,512.813,317.333,513.281,317.333C513.75,317.333,514.219,317.333,514.688,317.333C515.156,317.333,515.625,317.333,516.094,317.333C516.563,317.333,517.031,317.333,517.5,317.333C517.969,317.333,518.438,317.333,518.906,317.333C519.375,317.333,519.844,317.333,520.313,317.333C520.781,317.333,521.25,317.333,521.719,317.333C522.188,317.333,522.656,317.333,523.125,317.333C523.594,317.333,524.063,317.333,524.531,317.333C525,317.333,525.469,317.333,525.938,317.333C526.406,317.333,526.875,317.333,527.344,317.333C527.813,317.333,528.281,317.333,528.75,317.333C529.219,317.333,529.688,317.333,530.156,317.333C530.625,317.333,531.094,317.333,531.563,317.333C532.031,317.333,532.5,317.333,532.969,317.333C533.438,317.333,533.906,317.333,534.375,317.333C534.844,317.333,535.313,317.333,535.781,317.333C536.25,317.333,536.719,317.333,537.188,317.333C537.656,317.333,538.125,317.333,538.594,317.333C539.063,317.333,539.531,317.333,540,317.333C540.469,317.333,540.938,317.333,541.406,317.333C541.875,317.333,542.344,317.333,542.813,317.333C543.281,317.333,543.75,317.333,544.219,317.333C544.688,317.333,545.156,317.333,545.625,317.333C546.094,317.333,546.563,317.333,547.031,317.333C547.5,317.333,547.969,317.333,548.438,317.333C548.906,317.333,549.375,317.333,549.844,317.333C550.313,317.333,550.781,317.333,551.25,317.333C551.719,317.333,552.188,317.333,552.656,317.333C553.125,317.333,553.594,317.333,554.063,317.333C554.531,317.333,555,317.333,555.469,317.333C555.938,317.333,556.406,317.333,556.875,317.333C557.344,317.333,557.813,317.333,558.281,317.333C558.75,317.333,559.219,317.333,559.688,317.333C560.156,317.333,560.625,317.333,561.094,317.333C561.563,317.333,562.031,317.333,562.5,317.333C562.969,317.333,563.438,317.333,563.906,317.333C564.375,317.333,564.844,317.333,565.313,317.333C565.781,317.333,566.25,317.333,566.719,317.333C567.188,317.333,567.656,317.333,568.125,317.333C568.594,317.333,569.063,317.333,569.531,317.333C570,317.333,570.469,317.333,570.938,317.333C571.406,317.333,571.875,317.333,572.344,317.333C572.813,317.333,573.281,317.333,573.75,317.333C574.219,317.333,574.688,317.333,575.156,317.333C575.625,317.333,576.094,317.333,576.563,317.333C577.031,317.333,577.5,317.333,577.969,317.333C578.438,317.333,578.906,317.333,579.375,317.333C579.844,317.333,580.313,317.333,580.781,317.333C581.25,317.333,581.719,317.333,582.188,317.333C582.656,317.333,583.125,317.333,583.594,317.333C584.063,317.333,584.531,317.333,585,317.333C585.469,317.333,585.938,317.333,586.406,317.333C586.875,317.333,587.344,317.333,587.813,317.333C588.281,317.333,588.75,317.333,589.219,317.333C589.688,317.333,590.156,317.333,590.625,317.333C591.094,317.333,591.563,317.333,592.031,317.333C592.5,317.333,592.969,317.333,593.438,317.333C593.906,317.333,594.375,317.333,594.844,317.333C595.313,317.333,595.781,317.333,596.25,317.333C596.719,317.333,597.188,317.333,597.656,317.333C598.125,317.333,598.594,317.333,599.063,317.333C599.531,317.333,600,317.333,600.469,317.333C600.938,317.333,601.406,317.333,601.875,317.333C602.344,317.333,602.813,317.333,603.281,317.333C603.75,317.333,604.219,317.333,604.688,317.333C605.156,317.333,605.625,317.333,606.094,317.333C606.563,317.333,607.031,317.333,607.5,317.333C607.969,317.333,608.438,317.333,608.906,317.333C609.375,317.333,609.844,317.333,610.313,317.333C610.781,317.333,611.25,317.333,611.719,317.333C612.188,317.333,612.656,302.222,613.125,302.222C613.594,302.222,614.063,302.222,614.531,302.222C615,302.222,615.469,302.222,615.938,302.222C616.406,302.222,616.875,302.222,617.344,302.222C617.813,302.222,618.281,302.222,618.75,302.222C619.219,302.222,619.688,302.222,620.156,302.222C620.625,302.222,621.094,302.222,621.563,302.222C622.031,302.222,622.5,302.222,622.969,302.222C623.438,302.222,623.906,302.222,624.375,302.222C624.844,302.222,625.313,302.222,625.781,302.222C626.25,302.222,626.719,302.222,627.188,302.222C627.656,302.222,628.125,302.222,628.594,302.222C629.063,302.222,629.531,302.222,630,302.222C630.469,302.222,630.938,302.222,631.406,302.222C631.875,302.222,632.344,302.222,632.813,302.222C633.281,302.222,633.75,302.222,634.219,302.222C634.688,302.222,635.156,302.222,635.625,302.222C636.094,302.222,636.563,302.222,637.031,302.222C637.5,302.222,637.969,302.222,638.438,302.222C638.906,302.222,639.375,302.222,639.844,302.222C640.313,302.222,640.781,302.222,641.25,302.222C641.719,302.222,642.188,302.222,642.656,302.222C643.125,302.222,643.594,302.222,644.063,302.222C644.531,302.222,645,302.222,645.469,302.222C645.938,302.222,646.406,302.222,646.875,302.222C647.344,302.222,647.813,302.222,648.281,302.222C648.75,302.222,649.219,302.222,649.688,302.222C650.156,302.222,650.625,302.222,651.094,302.222C651.563,302.222,652.031,299.704,652.5,294.667C652.969,289.63,653.438,249.333,653.906,249.333C654.375,249.333,654.844,302.222,655.313,302.222C655.781,302.222,656.25,302.222,656.719,302.222C657.188,302.222,657.656,302.222,658.125,302.222C658.594,302.222,659.063,302.222,659.531,302.222C660,302.222,660.469,302.222,660.938,302.222C661.406,302.222,661.875,302.222,662.344,302.222C662.813,302.222,663.281,302.222,663.75,302.222C664.219,302.222,664.688,302.222,665.156,302.222C665.625,302.222,666.094,302.222,666.563,302.222C667.031,302.222,667.5,302.222,667.969,302.222C668.438,302.222,668.906,302.222,669.375,302.222C669.844,302.222,670.313,302.222,670.781,302.222C671.25,302.222,671.719,302.222,672.188,302.222C672.656,302.222,673.125,302.222,673.594,302.222C674.063,302.222,674.531,302.222,675,302.222C675.469,302.222,675.938,302.222,676.406,302.222C676.875,302.222,677.344,302.222,677.813,302.222C678.281,302.222,678.75,302.222,679.219,302.222C679.688,302.222,680.156,302.222,680.625,302.222C681.094,302.222,681.563,302.222,682.031,302.222C682.5,302.222,682.969,302.222,683.438,302.222C683.906,302.222,684.375,302.222,684.844,302.222C685.313,302.222,685.781,185.111,686.25,136C686.719,86.889,687.188,7.556,687.656,7.556C688.125,7.556,688.594,239.259,689.063,264.444C689.531,289.63,690,302.222,690.469,302.222C690.938,302.222,691.406,302.222,691.875,302.222C692.344,302.222,692.813,302.222,693.281,302.222C693.75,302.222,694.219,302.222,694.688,302.222C695.156,302.222,695.625,302.222,696.094,302.222C696.563,302.222,697.031,302.222,697.5,302.222C697.969,302.222,698.438,302.222,698.906,302.222C699.375,302.222,699.844,302.222,700.313,302.222C700.781,302.222,701.25,302.222,701.719,302.222C702.188,302.222,702.656,302.222,703.125,302.222C703.594,302.222,704.063,302.222,704.531,302.222C705,302.222,705.469,302.222,705.938,302.222C706.406,302.222,706.875,264.444,707.344,264.444C707.813,264.444,708.281,279.556,708.75,279.556C709.219,279.556,709.688,279.556,710.156,279.556C710.625,279.556,711.094,279.556,711.563,279.556C712.031,279.556,712.5,156.148,712.969,151.111C713.438,146.074,713.906,148.593,714.375,143.556C714.844,138.519,715.313,30.222,715.781,30.222C716.25,30.222,716.719,302.222,717.188,302.222C717.656,302.222,718.125,302.222,718.594,302.222C719.063,302.222,719.531,264.444,720,226.667"></path><circle class="dot" cx="0" cy="340" r="3" fill="#2563eb"></circle><circle class="dot" cx="1.40625" cy="340" r="3" fill="#2563eb"></circle><circle class="dot" cx="2.8125" cy="340" r="3" fill="#2563eb"></circle><circle class="dot" cx="4.21875" cy="340" r="3" fill="#2563eb"></circle><circle class="dot" cx="5.625" cy="340" r="3" fill="#2563eb"></circle><circle class="dot" cx="7.03125" cy="340" r="3" fill="#2563eb"></circle><circle class="dot" cx="8.4375" cy="340" r="3" fill="#2563eb"></circle><circle class="dot" cx="9.84375" cy="340" r="3" fill="#2563eb"></circle><circle class="dot" cx="11.25" cy="340" r="3" fill="#2563eb"></circle><circle class="dot" cx="12.65625" cy="340" r="3" fill="#2563eb"></circle><circle class="dot" cx="14.0625" cy="340" r="3" fill="#2563eb"></circle><circle class="dot" cx="15.46875" cy="340" r="3" fill="#2563eb"></circle><circle class="dot" cx="16.875" cy="340" r="3" fill="#2563eb"></circle><circle class="dot" cx="18.28125" cy="340" r="3" fill="#2563eb"></circle><circle class="dot" cx="19.6875" cy="340" r="3" fill="#2563eb"></circle><circle class="dot" cx="21.09375" cy="340" r="3" fill="#2563eb"></circle><circle class="dot" cx="22.5" cy="340" r="3" fill="#2563eb"></circle><circle class="dot" cx="23.90625" cy="340" r="3" fill="#2563eb"></circle><circle class="dot" cx="25.3125" cy="340" r="3" fill="#2563eb"></circle><circle class="dot" cx="26.71875" cy="340" r="3" fill="#2563eb"></circle><circle class="dot" cx="28.125" cy="340" r="3" fill="#2563eb"></circle><circle class="dot" cx="29.53125" cy="340" r="3" fill="#2563eb"></circle><circle class="dot" cx="30.9375" cy="340" r="3" fill="#2563eb"></circle><circle class="dot" cx="32.34375" cy="340" r="3" fill="#2563eb"></circle><circle class="dot" cx="33.75" cy="340" r="3" fill="#2563eb"></circle><circle class="dot" cx="35.15625" cy="340" r="3" fill="#2563eb"></circle><circle class="dot" cx="36.5625" cy="340" r="3" fill="#2563eb"></circle><circle class="dot" cx="37.96875" cy="340" r="3" fill="#2563eb"></circle><circle class="dot" cx="39.375" cy="340" r="3" fill="#2563eb"></circle><circle class="dot" cx="40.78125" cy="340" r="3" fill="#2563eb"></circle><circle class="dot" cx="42.1875" cy="340" r="3" fill="#2563eb"></circle><circle class="dot" cx="43.59375" cy="340" r="3" fill="#2563eb"></circle><circle class="dot" cx="45" cy="340" r="3" fill="#2563eb"></circle><circle class="dot" cx="46.40625" cy="340" r="3" fill="#2563eb"></circle><circle class="dot" cx="47.8125" cy="340" r="3" fill="#2563eb"></circle><circle class="dot" cx="49.21875" cy="340" r="3" fill="#2563eb"></circle><circle class="dot" cx="50.625" cy="340" r="3" fill="#2563eb"></circle><circle class="dot" cx="52.03125" cy="340" r="3" fill="#2563eb"></circle><circle class="dot" cx="53.4375" cy="340" r="3" fill="#2563eb"></circle><circle class="dot" cx="54.84375" cy="340" r="3" fill="#2563eb"></circle><circle class="dot" cx="56.25" cy="340" r="3" fill="#2563eb"></circle><circle class="dot" cx="57.65625" cy="340" r="3" fill="#2563eb"></circle><circle class="dot" cx="59.0625" cy="340" r="3" fill="#2563eb"></circle><circle class="dot" cx="60.46875" cy="340" r="3" fill="#2563eb"></circle><circle class="dot" cx="61.875" cy="340" r="3" fill="#2563eb"></circle><circle class="dot" cx="63.28125" cy="340" r="3" fill="#2563eb"></circle><circle class="dot" cx="64.6875" cy="340" r="3" fill="#2563eb"></circle><circle class="dot" cx="66.09375" cy="340" r="3" fill="#2563eb"></circle><circle class="dot" cx="67.5" cy="340" r="3" fill="#2563eb"></circle><circle class="dot" cx="68.90625" cy="340" r="3" fill="#2563eb"></circle><circle class="dot" cx="70.3125" cy="340" r="3" fill="#2563eb"></circle><circle class="dot" cx="71.71875" cy="340" r="3" fill="#2563eb"></circle><circle class="dot" cx="73.125" cy="340" r="3" fill="#2563eb"></circle><circle class="dot" cx="74.53125" cy="340" r="3" fill="#2563eb"></circle><circle class="dot" cx="75.9375" cy="340" r="3" fill="#2563eb"></circle><circle class="dot" cx="77.34375" cy="340" r="3" fill="#2563eb"></circle><circle class="dot" cx="78.75" cy="340" r="3" fill="#2563eb"></circle><circle class="dot" cx="80.15625" cy="340" r="3" fill="#2563eb"></circle><circle class="dot" cx="81.5625" cy="340" r="3" fill="#2563eb"></circle><circle class="dot" cx="82.96875" cy="340" r="3" fill="#2563eb"></circle><circle class="dot" cx="84.375" cy="340" r="3" fill="#2563eb"></circle><circle class="dot" cx="85.78125" cy="340" r="3" fill="#2563eb"></circle><circle class="dot" cx="87.1875" cy="340" r="3" fill="#2563eb"></circle><circle class="dot" cx="88.59375" cy="340" r="3" fill="#2563eb"></circle><circle class="dot" cx="90" cy="340" r="3" fill="#2563eb"></circle><circle class="dot" cx="91.40625" cy="340" r="3" fill="#2563eb"></circle><circle class="dot" cx="92.8125" cy="340" r="3" fill="#2563eb"></circle><circle class="dot" cx="94.21875" cy="340" r="3" fill="#2563eb"></circle><circle class="dot" cx="95.625" cy="340" r="3" fill="#2563eb"></circle><circle class="dot" cx="97.03125" cy="340" r="3" fill="#2563eb"></circle><circle class="dot" cx="98.4375" cy="340" r="3" fill="#2563eb"></circle><circle class="dot" cx="99.84375" cy="340" r="3" fill="#2563eb"></circle><circle class="dot" cx="101.25" cy="340" r="3" fill="#2563eb"></circle><circle class="dot" cx="102.65625" cy="340" r="3" fill="#2563eb"></circle><circle class="dot" cx="104.0625" cy="340" r="3" fill="#2563eb"></circle><circle class="dot" cx="105.46875" cy="340" r="3" fill="#2563eb"></circle><circle class="dot" cx="106.875" cy="340" r="3" fill="#2563eb"></circle><circle class="dot" cx="108.28125" cy="340" r="3" fill="#2563eb"></circle><circle class="dot" cx="109.6875" cy="340" r="3" fill="#2563eb"></circle><circle class="dot" cx="111.09375" cy="340" r="3" fill="#2563eb"></circle><circle class="dot" cx="112.5" cy="340" r="3" fill="#2563eb"></circle><circle class="dot" cx="113.90625" cy="340" r="3" fill="#2563eb"></circle><circle class="dot" cx="115.3125" cy="340" r="3" fill="#2563eb"></circle><circle class="dot" cx="116.71875" cy="340" r="3" fill="#2563eb"></circle><circle class="dot" cx="118.125" cy="340" r="3" fill="#2563eb"></circle><circle class="dot" cx="119.53125" cy="340" r="3" fill="#2563eb"></circle><circle class="dot" cx="120.9375" cy="340" r="3" fill="#2563eb"></circle><circle class="dot" cx="122.34375" cy="340" r="3" fill="#2563eb"></circle><circle class="dot" cx="123.75" cy="340" r="3" fill="#2563eb"></circle><circle class="dot" cx="125.15625" cy="340" r="3" fill="#2563eb"></circle><circle class="dot" cx="126.5625" cy="340" r="3" fill="#2563eb"></circle><circle class="dot" cx="127.96875" cy="340" r="3" fill="#2563eb"></circle><circle class="dot" cx="129.375" cy="340" r="3" fill="#2563eb"></circle><circle class="dot" cx="130.78125" cy="340" r="3" fill="#2563eb"></circle><circle class="dot" cx="132.1875" cy="340" r="3" fill="#2563eb"></circle><circle class="dot" cx="133.59375" cy="340" r="3" fill="#2563eb"></circle><circle class="dot" cx="135" cy="340" r="3" fill="#2563eb"></circle><circle class="dot" cx="136.40625" cy="340" r="3" fill="#2563eb"></circle><circle class="dot" cx="137.8125" cy="340" r="3" fill="#2563eb"></circle><circle class="dot" cx="139.21875" cy="340" r="3" fill="#2563eb"></circle><circle class="dot" cx="140.625" cy="340" r="3" fill="#2563eb"></circle><circle class="dot" cx="142.03125" cy="340" r="3" fill="#2563eb"></circle><circle class="dot" cx="143.4375" cy="340" r="3" fill="#2563eb"></circle><circle class="dot" cx="144.84375" cy="317.3333333333333" r="3" fill="#2563eb"></circle><circle class="dot" cx="146.25" cy="317.3333333333333" r="3" fill="#2563eb"></circle><circle class="dot" cx="147.65625" cy="317.3333333333333" r="3" fill="#2563eb"></circle><circle class="dot" cx="149.0625" cy="317.3333333333333" r="3" fill="#2563eb"></circle><circle class="dot" cx="150.46875" cy="317.3333333333333" r="3" fill="#2563eb"></circle><circle class="dot" cx="151.875" cy="317.3333333333333" r="3" fill="#2563eb"></circle><circle class="dot" cx="153.28125" cy="317.3333333333333" r="3" fill="#2563eb"></circle><circle class="dot" cx="154.6875" cy="317.3333333333333" r="3" fill="#2563eb"></circle><circle class="dot" cx="156.09375" cy="317.3333333333333" r="3" fill="#2563eb"></circle><circle class="dot" cx="157.5" cy="317.3333333333333" r="3" fill="#2563eb"></circle><circle class="dot" cx="158.90625" cy="317.3333333333333" r="3" fill="#2563eb"></circle><circle class="dot" cx="160.3125" cy="317.3333333333333" r="3" fill="#2563eb"></circle><circle class="dot" cx="161.71875" cy="317.3333333333333" r="3" fill="#2563eb"></circle><circle class="dot" cx="163.125" cy="317.3333333333333" r="3" fill="#2563eb"></circle><circle class="dot" cx="164.53125" cy="317.3333333333333" r="3" fill="#2563eb"></circle><circle class="dot" cx="165.9375" cy="317.3333333333333" r="3" fill="#2563eb"></circle><circle class="dot" cx="167.34375" cy="317.3333333333333" r="3" fill="#2563eb"></circle><circle class="dot" cx="168.75" cy="317.3333333333333" r="3" fill="#2563eb"></circle><circle class="dot" cx="170.15625" cy="317.3333333333333" r="3" fill="#2563eb"></circle><circle class="dot" cx="171.5625" cy="317.3333333333333" r="3" fill="#2563eb"></circle><circle class="dot" cx="172.96875" cy="317.3333333333333" r="3" fill="#2563eb"></circle><circle class="dot" cx="174.375" cy="317.3333333333333" r="3" fill="#2563eb"></circle><circle class="dot" cx="175.78125" cy="317.3333333333333" r="3" fill="#2563eb"></circle><circle class="dot" cx="177.1875" cy="317.3333333333333" r="3" fill="#2563eb"></circle><circle class="dot" cx="178.59375" cy="317.3333333333333" r="3" fill="#2563eb"></circle><circle class="dot" cx="180" cy="317.3333333333333" r="3" fill="#2563eb"></circle><circle class="dot" cx="181.40625" cy="317.3333333333333" r="3" fill="#2563eb"></circle><circle class="dot" cx="182.8125" cy="317.3333333333333" r="3" fill="#2563eb"></circle><circle class="dot" cx="184.21875" cy="317.3333333333333" r="3" fill="#2563eb"></circle><circle class="dot" cx="185.625" cy="317.3333333333333" r="3" fill="#2563eb"></circle><circle class="dot" cx="187.03125" cy="317.3333333333333" r="3" fill="#2563eb"></circle><circle class="dot" cx="188.4375" cy="317.3333333333333" r="3" fill="#2563eb"></circle><circle class="dot" cx="189.84375" cy="317.3333333333333" r="3" fill="#2563eb"></circle><circle class="dot" cx="191.25" cy="317.3333333333333" r="3" fill="#2563eb"></circle><circle class="dot" cx="192.65625" cy="317.3333333333333" r="3" fill="#2563eb"></circle><circle class="dot" cx="194.0625" cy="317.3333333333333" r="3" fill="#2563eb"></circle><circle class="dot" cx="195.46875" cy="317.3333333333333" r="3" fill="#2563eb"></circle><circle class="dot" cx="196.875" cy="317.3333333333333" r="3" fill="#2563eb"></circle><circle class="dot" cx="198.28125" cy="317.3333333333333" r="3" fill="#2563eb"></circle><circle class="dot" cx="199.6875" cy="317.3333333333333" r="3" fill="#2563eb"></circle><circle class="dot" cx="201.09375" cy="317.3333333333333" r="3" fill="#2563eb"></circle><circle class="dot" cx="202.5" cy="317.3333333333333" r="3" fill="#2563eb"></circle><circle class="dot" cx="203.90625" cy="317.3333333333333" r="3" fill="#2563eb"></circle><circle class="dot" cx="205.3125" cy="317.3333333333333" r="3" fill="#2563eb"></circle><circle class="dot" cx="206.71875" cy="317.3333333333333" r="3" fill="#2563eb"></circle><circle class="dot" cx="208.125" cy="317.3333333333333" r="3" fill="#2563eb"></circle><circle class="dot" cx="209.53125" cy="317.3333333333333" r="3" fill="#2563eb"></circle><circle class="dot" cx="210.9375" cy="317.3333333333333" r="3" fill="#2563eb"></circle><circle class="dot" cx="212.34375" cy="317.3333333333333" r="3" fill="#2563eb"></circle><circle class="dot" cx="213.75" cy="317.3333333333333" r="3" fill="#2563eb"></circle><circle class="dot" cx="215.15625" cy="317.3333333333333" r="3" fill="#2563eb"></circle><circle class="dot" cx="216.5625" cy="317.3333333333333" r="3" fill="#2563eb"></circle><circle class="dot" cx="217.96875" cy="317.3333333333333" r="3" fill="#2563eb"></circle><circle class="dot" cx="219.375" cy="317.3333333333333" r="3" fill="#2563eb"></circle><circle class="dot" cx="220.78125" cy="317.3333333333333" r="3" fill="#2563eb"></circle><circle class="dot" cx="222.1875" cy="317.3333333333333" r="3" fill="#2563eb"></circle><circle class="dot" cx="223.59375" cy="317.3333333333333" r="3" fill="#2563eb"></circle><circle class="dot" cx="225" cy="317.3333333333333" r="3" fill="#2563eb"></circle><circle class="dot" cx="226.40625" cy="317.3333333333333" r="3" fill="#2563eb"></circle><circle class="dot" cx="227.8125" cy="317.3333333333333" r="3" fill="#2563eb"></circle><circle class="dot" cx="229.21875" cy="317.3333333333333" r="3" fill="#2563eb"></circle><circle class="dot" cx="230.625" cy="317.3333333333333" r="3" fill="#2563eb"></circle><circle class="dot" cx="232.03125" cy="317.3333333333333" r="3" fill="#2563eb"></circle><circle class="dot" cx="233.4375" cy="317.3333333333333" r="3" fill="#2563eb"></circle><circle class="dot" cx="234.84375" cy="317.3333333333333" r="3" fill="#2563eb"></circle><circle class="dot" cx="236.25" cy="317.3333333333333" r="3" fill="#2563eb"></circle><circle class="dot" cx="237.65625" cy="317.3333333333333" r="3" fill="#2563eb"></circle><circle class="dot" cx="239.0625" cy="317.3333333333333" r="3" fill="#2563eb"></circle><circle class="dot" cx="240.46875" cy="317.3333333333333" r="3" fill="#2563eb"></circle><circle class="dot" cx="241.875" cy="317.3333333333333" r="3" fill="#2563eb"></circle><circle class="dot" cx="243.28125" cy="317.3333333333333" r="3" fill="#2563eb"></circle><circle class="dot" cx="244.6875" cy="317.3333333333333" r="3" fill="#2563eb"></circle><circle class="dot" cx="246.09375" cy="317.3333333333333" r="3" fill="#2563eb"></circle><circle class="dot" cx="247.5" cy="317.3333333333333" r="3" fill="#2563eb"></circle><circle class="dot" cx="248.90625" cy="317.3333333333333" r="3" fill="#2563eb"></circle><circle class="dot" cx="250.3125" cy="317.3333333333333" r="3" fill="#2563eb"></circle><circle class="dot" cx="251.71875" cy="317.3333333333333" r="3" fill="#2563eb"></circle><circle class="dot" cx="253.125" cy="317.3333333333333" r="3" fill="#2563eb"></circle><circle class="dot" cx="254.53125" cy="317.3333333333333" r="3" fill="#2563eb"></circle><circle class="dot" cx="255.9375" cy="317.3333333333333" r="3" fill="#2563eb"></circle><circle class="dot" cx="257.34375" cy="317.3333333333333" r="3" fill="#2563eb"></circle><circle class="dot" cx="258.75" cy="317.3333333333333" r="3" fill="#2563eb"></circle><circle class="dot" cx="260.15625" cy="317.3333333333333" r="3" fill="#2563eb"></circle><circle class="dot" cx="261.5625" cy="317.3333333333333" r="3" fill="#2563eb"></circle><circle class="dot" cx="262.96875" cy="317.3333333333333" r="3" fill="#2563eb"></circle><circle class="dot" cx="264.375" cy="317.3333333333333" r="3" fill="#2563eb"></circle><circle class="dot" cx="265.78125" cy="317.3333333333333" r="3" fill="#2563eb"></circle><circle class="dot" cx="267.1875" cy="317.3333333333333" r="3" fill="#2563eb"></circle><circle class="dot" cx="268.59375" cy="317.3333333333333" r="3" fill="#2563eb"></circle><circle class="dot" cx="270" cy="317.3333333333333" r="3" fill="#2563eb"></circle><circle class="dot" cx="271.40625" cy="317.3333333333333" r="3" fill="#2563eb"></circle><circle class="dot" cx="272.8125" cy="317.3333333333333" r="3" fill="#2563eb"></circle><circle class="dot" cx="274.21875" cy="317.3333333333333" r="3" fill="#2563eb"></circle><circle class="dot" cx="275.625" cy="317.3333333333333" r="3" fill="#2563eb"></circle><circle class="dot" cx="277.03125" cy="317.3333333333333" r="3" fill="#2563eb"></circle><circle class="dot" cx="278.4375" cy="317.3333333333333" r="3" fill="#2563eb"></circle><circle class="dot" cx="279.84375" cy="317.3333333333333" r="3" fill="#2563eb"></circle><circle class="dot" cx="281.25" cy="317.3333333333333" r="3" fill="#2563eb"></circle><circle class="dot" cx="282.65625" cy="317.3333333333333" r="3" fill="#2563eb"></circle><circle class="dot" cx="284.0625" cy="317.3333333333333" r="3" fill="#2563eb"></circle><circle class="dot" cx="285.46875" cy="317.3333333333333" r="3" fill="#2563eb"></circle><circle class="dot" cx="286.875" cy="317.3333333333333" r="3" fill="#2563eb"></circle><circle class="dot" cx="288.28125" cy="317.3333333333333" r="3" fill="#2563eb"></circle><circle class="dot" cx="289.6875" cy="317.3333333333333" r="3" fill="#2563eb"></circle><circle class="dot" cx="291.09375" cy="317.3333333333333" r="3" fill="#2563eb"></circle><circle class="dot" cx="292.5" cy="317.3333333333333" r="3" fill="#2563eb"></circle><circle class="dot" cx="293.90625" cy="317.3333333333333" r="3" fill="#2563eb"></circle><circle class="dot" cx="295.3125" cy="317.3333333333333" r="3" fill="#2563eb"></circle><circle class="dot" cx="296.71875" cy="317.3333333333333" r="3" fill="#2563eb"></circle><circle class="dot" cx="298.125" cy="317.3333333333333" r="3" fill="#2563eb"></circle><circle class="dot" cx="299.53125" cy="317.3333333333333" r="3" fill="#2563eb"></circle><circle class="dot" cx="300.9375" cy="317.3333333333333" r="3" fill="#2563eb"></circle><circle class="dot" cx="302.34375" cy="317.3333333333333" r="3" fill="#2563eb"></circle><circle class="dot" cx="303.75" cy="317.3333333333333" r="3" fill="#2563eb"></circle><circle class="dot" cx="305.15625" cy="317.3333333333333" r="3" fill="#2563eb"></circle><circle class="dot" cx="306.5625" cy="317.3333333333333" r="3" fill="#2563eb"></circle><circle class="dot" cx="307.96875" cy="317.3333333333333" r="3" fill="#2563eb"></circle><circle class="dot" cx="309.375" cy="317.3333333333333" r="3" fill="#2563eb"></circle><circle class="dot" cx="310.78125" cy="317.3333333333333" r="3" fill="#2563eb"></circle><circle class="dot" cx="312.1875" cy="317.3333333333333" r="3" fill="#2563eb"></circle><circle class="dot" cx="313.59375" cy="317.3333333333333" r="3" fill="#2563eb"></circle><circle class="dot" cx="315" cy="317.3333333333333" r="3" fill="#2563eb"></circle><circle class="dot" cx="316.40625" cy="317.3333333333333" r="3" fill="#2563eb"></circle><circle class="dot" cx="317.8125" cy="317.3333333333333" r="3" fill="#2563eb"></circle><circle class="dot" cx="319.21875" cy="317.3333333333333" r="3" fill="#2563eb"></circle><circle class="dot" cx="320.625" cy="317.3333333333333" r="3" fill="#2563eb"></circle><circle class="dot" cx="322.03125" cy="317.3333333333333" r="3" fill="#2563eb"></circle><circle class="dot" cx="323.4375" cy="317.3333333333333" r="3" fill="#2563eb"></circle><circle class="dot" cx="324.84375" cy="317.3333333333333" r="3" fill="#2563eb"></circle><circle class="dot" cx="326.25" cy="317.3333333333333" r="3" fill="#2563eb"></circle><circle class="dot" cx="327.65625" cy="317.3333333333333" r="3" fill="#2563eb"></circle><circle class="dot" cx="329.0625" cy="317.3333333333333" r="3" fill="#2563eb"></circle><circle class="dot" cx="330.46875" cy="317.3333333333333" r="3" fill="#2563eb"></circle><circle class="dot" cx="331.875" cy="317.3333333333333" r="3" fill="#2563eb"></circle><circle class="dot" cx="333.28125" cy="317.3333333333333" r="3" fill="#2563eb"></circle><circle class="dot" cx="334.6875" cy="317.3333333333333" r="3" fill="#2563eb"></circle><circle class="dot" cx="336.09375" cy="317.3333333333333" r="3" fill="#2563eb"></circle><circle class="dot" cx="337.5" cy="317.3333333333333" r="3" fill="#2563eb"></circle><circle class="dot" cx="338.90625" cy="317.3333333333333" r="3" fill="#2563eb"></circle><circle class="dot" cx="340.3125" cy="317.3333333333333" r="3" fill="#2563eb"></circle><circle class="dot" cx="341.71875" cy="317.3333333333333" r="3" fill="#2563eb"></circle><circle class="dot" cx="343.125" cy="317.3333333333333" r="3" fill="#2563eb"></circle><circle class="dot" cx="344.53125" cy="317.3333333333333" r="3" fill="#2563eb"></circle><circle class="dot" cx="345.9375" cy="317.3333333333333" r="3" fill="#2563eb"></circle><circle class="dot" cx="347.34375" cy="317.3333333333333" r="3" fill="#2563eb"></circle><circle class="dot" cx="348.75" cy="317.3333333333333" r="3" fill="#2563eb"></circle><circle class="dot" cx="350.15625" cy="317.3333333333333" r="3" fill="#2563eb"></circle><circle class="dot" cx="351.5625" cy="317.3333333333333" r="3" fill="#2563eb"></circle><circle class="dot" cx="352.96875" cy="317.3333333333333" r="3" fill="#2563eb"></circle><circle class="dot" cx="354.375" cy="317.3333333333333" r="3" fill="#2563eb"></circle><circle class="dot" cx="355.78125" cy="317.3333333333333" r="3" fill="#2563eb"></circle><circle class="dot" cx="357.1875" cy="317.3333333333333" r="3" fill="#2563eb"></circle><circle class="dot" cx="358.59375" cy="317.3333333333333" r="3" fill="#2563eb"></circle><circle class="dot" cx="360" cy="317.3333333333333" r="3" fill="#2563eb"></circle><circle class="dot" cx="361.40625" cy="317.3333333333333" r="3" fill="#2563eb"></circle><circle class="dot" cx="362.8125" cy="317.3333333333333" r="3" fill="#2563eb"></circle><circle class="dot" cx="364.21875" cy="317.3333333333333" r="3" fill="#2563eb"></circle><circle class="dot" cx="365.625" cy="317.3333333333333" r="3" fill="#2563eb"></circle><circle class="dot" cx="367.03125" cy="317.3333333333333" r="3" fill="#2563eb"></circle><circle class="dot" cx="368.4375" cy="317.3333333333333" r="3" fill="#2563eb"></circle><circle class="dot" cx="369.84375" cy="317.3333333333333" r="3" fill="#2563eb"></circle><circle class="dot" cx="371.25" cy="317.3333333333333" r="3" fill="#2563eb"></circle><circle class="dot" cx="372.65625" cy="317.3333333333333" r="3" fill="#2563eb"></circle><circle class="dot" cx="374.0625" cy="317.3333333333333" r="3" fill="#2563eb"></circle><circle class="dot" cx="375.46875" cy="317.3333333333333" r="3" fill="#2563eb"></circle><circle class="dot" cx="376.875" cy="317.3333333333333" r="3" fill="#2563eb"></circle><circle class="dot" cx="378.28125" cy="317.3333333333333" r="3" fill="#2563eb"></circle><circle class="dot" cx="379.6875" cy="317.3333333333333" r="3" fill="#2563eb"></circle><circle class="dot" cx="381.09375" cy="317.3333333333333" r="3" fill="#2563eb"></circle><circle class="dot" cx="382.5" cy="317.3333333333333" r="3" fill="#2563eb"></circle><circle class="dot" cx="383.90625" cy="317.3333333333333" r="3" fill="#2563eb"></circle><circle class="dot" cx="385.3125" cy="317.3333333333333" r="3" fill="#2563eb"></circle><circle class="dot" cx="386.71875" cy="317.3333333333333" r="3" fill="#2563eb"></circle><circle class="dot" cx="388.125" cy="317.3333333333333" r="3" fill="#2563eb"></circle><circle class="dot" cx="389.53125" cy="317.3333333333333" r="3" fill="#2563eb"></circle><circle class="dot" cx="390.9375" cy="317.3333333333333" r="3" fill="#2563eb"></circle><circle class="dot" cx="392.34375" cy="317.3333333333333" r="3" fill="#2563eb"></circle><circle class="dot" cx="393.75" cy="317.3333333333333" r="3" fill="#2563eb"></circle><circle class="dot" cx="395.15625" cy="317.3333333333333" r="3" fill="#2563eb"></circle><circle class="dot" cx="396.5625" cy="317.3333333333333" r="3" fill="#2563eb"></circle><circle class="dot" cx="397.96875" cy="317.3333333333333" r="3" fill="#2563eb"></circle><circle class="dot" cx="399.375" cy="317.3333333333333" r="3" fill="#2563eb"></circle><circle class="dot" cx="400.78125" cy="317.3333333333333" r="3" fill="#2563eb"></circle><circle class="dot" cx="402.1875" cy="317.3333333333333" r="3" fill="#2563eb"></circle><circle class="dot" cx="403.59375" cy="317.3333333333333" r="3" fill="#2563eb"></circle><circle class="dot" cx="405" cy="317.3333333333333" r="3" fill="#2563eb"></circle><circle class="dot" cx="406.40625" cy="317.3333333333333" r="3" fill="#2563eb"></circle><circle class="dot" cx="407.8125" cy="317.3333333333333" r="3" fill="#2563eb"></circle><circle class="dot" cx="409.21875" cy="317.3333333333333" r="3" fill="#2563eb"></circle><circle class="dot" cx="410.625" cy="317.3333333333333" r="3" fill="#2563eb"></circle><circle class="dot" cx="412.03125" cy="317.3333333333333" r="3" fill="#2563eb"></circle><circle class="dot" cx="413.4375" cy="317.3333333333333" r="3" fill="#2563eb"></circle><circle class="dot" cx="414.84375" cy="317.3333333333333" r="3" fill="#2563eb"></circle><circle class="dot" cx="416.25" cy="317.3333333333333" r="3" fill="#2563eb"></circle><circle class="dot" cx="417.65625" cy="317.3333333333333" r="3" fill="#2563eb"></circle><circle class="dot" cx="419.0625" cy="317.3333333333333" r="3" fill="#2563eb"></circle><circle class="dot" cx="420.46875" cy="317.3333333333333" r="3" fill="#2563eb"></circle><circle class="dot" cx="421.875" cy="317.3333333333333" r="3" fill="#2563eb"></circle><circle class="dot" cx="423.28125" cy="317.3333333333333" r="3" fill="#2563eb"></circle><circle class="dot" cx="424.6875" cy="317.3333333333333" r="3" fill="#2563eb"></circle><circle class="dot" cx="426.09375" cy="317.3333333333333" r="3" fill="#2563eb"></circle><circle class="dot" cx="427.5" cy="317.3333333333333" r="3" fill="#2563eb"></circle><circle class="dot" cx="428.90625" cy="317.3333333333333" r="3" fill="#2563eb"></circle><circle class="dot" cx="430.3125" cy="317.3333333333333" r="3" fill="#2563eb"></circle><circle class="dot" cx="431.71875" cy="317.3333333333333" r="3" fill="#2563eb"></circle><circle class="dot" cx="433.125" cy="317.3333333333333" r="3" fill="#2563eb"></circle><circle class="dot" cx="434.53125" cy="317.3333333333333" r="3" fill="#2563eb"></circle><circle class="dot" cx="435.9375" cy="317.3333333333333" r="3" fill="#2563eb"></circle><circle class="dot" cx="437.34375" cy="317.3333333333333" r="3" fill="#2563eb"></circle><circle class="dot" cx="438.75" cy="317.3333333333333" r="3" fill="#2563eb"></circle><circle class="dot" cx="440.15625" cy="317.3333333333333" r="3" fill="#2563eb"></circle><circle class="dot" cx="441.5625" cy="317.3333333333333" r="3" fill="#2563eb"></circle><circle class="dot" cx="442.96875" cy="317.3333333333333" r="3" fill="#2563eb"></circle><circle class="dot" cx="444.375" cy="317.3333333333333" r="3" fill="#2563eb"></circle><circle class="dot" cx="445.78125" cy="317.3333333333333" r="3" fill="#2563eb"></circle><circle class="dot" cx="447.1875" cy="317.3333333333333" r="3" fill="#2563eb"></circle><circle class="dot" cx="448.59375" cy="317.3333333333333" r="3" fill="#2563eb"></circle><circle class="dot" cx="450" cy="317.3333333333333" r="3" fill="#2563eb"></circle><circle class="dot" cx="451.40625" cy="317.3333333333333" r="3" fill="#2563eb"></circle><circle class="dot" cx="452.8125" cy="317.3333333333333" r="3" fill="#2563eb"></circle><circle class="dot" cx="454.21875" cy="317.3333333333333" r="3" fill="#2563eb"></circle><circle class="dot" cx="455.625" cy="317.3333333333333" r="3" fill="#2563eb"></circle><circle class="dot" cx="457.03125" cy="317.3333333333333" r="3" fill="#2563eb"></circle><circle class="dot" cx="458.4375" cy="317.3333333333333" r="3" fill="#2563eb"></circle><circle class="dot" cx="459.84375" cy="317.3333333333333" r="3" fill="#2563eb"></circle><circle class="dot" cx="461.25" cy="317.3333333333333" r="3" fill="#2563eb"></circle><circle class="dot" cx="462.65625" cy="317.3333333333333" r="3" fill="#2563eb"></circle><circle class="dot" cx="464.0625" cy="317.3333333333333" r="3" fill="#2563eb"></circle><circle class="dot" cx="465.46875" cy="317.3333333333333" r="3" fill="#2563eb"></circle><circle class="dot" cx="466.875" cy="317.3333333333333" r="3" fill="#2563eb"></circle><circle class="dot" cx="468.28125" cy="317.3333333333333" r="3" fill="#2563eb"></circle><circle class="dot" cx="469.6875" cy="317.3333333333333" r="3" fill="#2563eb"></circle><circle class="dot" cx="471.09375" cy="317.3333333333333" r="3" fill="#2563eb"></circle><circle class="dot" cx="472.5" cy="317.3333333333333" r="3" fill="#2563eb"></circle><circle class="dot" cx="473.90625" cy="317.3333333333333" r="3" fill="#2563eb"></circle><circle class="dot" cx="475.3125" cy="317.3333333333333" r="3" fill="#2563eb"></circle><circle class="dot" cx="476.71875" cy="317.3333333333333" r="3" fill="#2563eb"></circle><circle class="dot" cx="478.125" cy="317.3333333333333" r="3" fill="#2563eb"></circle><circle class="dot" cx="479.53125" cy="317.3333333333333" r="3" fill="#2563eb"></circle><circle class="dot" cx="480.9375" cy="317.3333333333333" r="3" fill="#2563eb"></circle><circle class="dot" cx="482.34375" cy="317.3333333333333" r="3" fill="#2563eb"></circle><circle class="dot" cx="483.75" cy="317.3333333333333" r="3" fill="#2563eb"></circle><circle class="dot" cx="485.15625" cy="317.3333333333333" r="3" fill="#2563eb"></circle><circle class="dot" cx="486.5625" cy="317.3333333333333" r="3" fill="#2563eb"></circle><circle class="dot" cx="487.96875" cy="317.3333333333333" r="3" fill="#2563eb"></circle><circle class="dot" cx="489.375" cy="317.3333333333333" r="3" fill="#2563eb"></circle><circle class="dot" cx="490.78125" cy="317.3333333333333" r="3" fill="#2563eb"></circle><circle class="dot" cx="492.1875" cy="317.3333333333333" r="3" fill="#2563eb"></circle><circle class="dot" cx="493.59375" cy="317.3333333333333" r="3" fill="#2563eb"></circle><circle class="dot" cx="495" cy="317.3333333333333" r="3" fill="#2563eb"></circle><circle class="dot" cx="496.40625" cy="317.3333333333333" r="3" fill="#2563eb"></circle><circle class="dot" cx="497.8125" cy="317.3333333333333" r="3" fill="#2563eb"></circle><circle class="dot" cx="499.21875" cy="317.3333333333333" r="3" fill="#2563eb"></circle><circle class="dot" cx="500.625" cy="317.3333333333333" r="3" fill="#2563eb"></circle><circle class="dot" cx="502.03125" cy="317.3333333333333" r="3" fill="#2563eb"></circle><circle class="dot" cx="503.4375" cy="317.3333333333333" r="3" fill="#2563eb"></circle><circle class="dot" cx="504.84375" cy="317.3333333333333" r="3" fill="#2563eb"></circle><circle class="dot" cx="506.25" cy="317.3333333333333" r="3" fill="#2563eb"></circle><circle class="dot" cx="507.65625" cy="317.3333333333333" r="3" fill="#2563eb"></circle><circle class="dot" cx="509.0625" cy="317.3333333333333" r="3" fill="#2563eb"></circle><circle class="dot" cx="510.46875" cy="317.3333333333333" r="3" fill="#2563eb"></circle><circle class="dot" cx="511.875" cy="317.3333333333333" r="3" fill="#2563eb"></circle><circle class="dot" cx="513.28125" cy="317.3333333333333" r="3" fill="#2563eb"></circle><circle class="dot" cx="514.6875" cy="317.3333333333333" r="3" fill="#2563eb"></circle><circle class="dot" cx="516.09375" cy="317.3333333333333" r="3" fill="#2563eb"></circle><circle class="dot" cx="517.5" cy="317.3333333333333" r="3" fill="#2563eb"></circle><circle class="dot" cx="518.90625" cy="317.3333333333333" r="3" fill="#2563eb"></circle><circle class="dot" cx="520.3125" cy="317.3333333333333" r="3" fill="#2563eb"></circle><circle class="dot" cx="521.71875" cy="317.3333333333333" r="3" fill="#2563eb"></circle><circle class="dot" cx="523.125" cy="317.3333333333333" r="3" fill="#2563eb"></circle><circle class="dot" cx="524.53125" cy="317.3333333333333" r="3" fill="#2563eb"></circle><circle class="dot" cx="525.9375" cy="317.3333333333333" r="3" fill="#2563eb"></circle><circle class="dot" cx="527.34375" cy="317.3333333333333" r="3" fill="#2563eb"></circle><circle class="dot" cx="528.75" cy="317.3333333333333" r="3" fill="#2563eb"></circle><circle class="dot" cx="530.15625" cy="317.3333333333333" r="3" fill="#2563eb"></circle><circle class="dot" cx="531.5625" cy="317.3333333333333" r="3" fill="#2563eb"></circle><circle class="dot" cx="532.96875" cy="317.3333333333333" r="3" fill="#2563eb"></circle><circle class="dot" cx="534.375" cy="317.3333333333333" r="3" fill="#2563eb"></circle><circle class="dot" cx="535.78125" cy="317.3333333333333" r="3" fill="#2563eb"></circle><circle class="dot" cx="537.1875" cy="317.3333333333333" r="3" fill="#2563eb"></circle><circle class="dot" cx="538.59375" cy="317.3333333333333" r="3" fill="#2563eb"></circle><circle class="dot" cx="540" cy="317.3333333333333" r="3" fill="#2563eb"></circle><circle class="dot" cx="541.40625" cy="317.3333333333333" r="3" fill="#2563eb"></circle><circle class="dot" cx="542.8125" cy="317.3333333333333" r="3" fill="#2563eb"></circle><circle class="dot" cx="544.21875" cy="317.3333333333333" r="3" fill="#2563eb"></circle><circle class="dot" cx="545.625" cy="317.3333333333333" r="3" fill="#2563eb"></circle><circle class="dot" cx="547.03125" cy="317.3333333333333" r="3" fill="#2563eb"></circle><circle class="dot" cx="548.4375" cy="317.3333333333333" r="3" fill="#2563eb"></circle><circle class="dot" cx="549.84375" cy="317.3333333333333" r="3" fill="#2563eb"></circle><circle class="dot" cx="551.25" cy="317.3333333333333" r="3" fill="#2563eb"></circle><circle class="dot" cx="552.65625" cy="317.3333333333333" r="3" fill="#2563eb"></circle><circle class="dot" cx="554.0625" cy="317.3333333333333" r="3" fill="#2563eb"></circle><circle class="dot" cx="555.46875" cy="317.3333333333333" r="3" fill="#2563eb"></circle><circle class="dot" cx="556.875" cy="317.3333333333333" r="3" fill="#2563eb"></circle><circle class="dot" cx="558.28125" cy="317.3333333333333" r="3" fill="#2563eb"></circle><circle class="dot" cx="559.6875" cy="317.3333333333333" r="3" fill="#2563eb"></circle><circle class="dot" cx="561.09375" cy="317.3333333333333" r="3" fill="#2563eb"></circle><circle class="dot" cx="562.5" cy="317.3333333333333" r="3" fill="#2563eb"></circle><circle class="dot" cx="563.90625" cy="317.3333333333333" r="3" fill="#2563eb"></circle><circle class="dot" cx="565.3125" cy="317.3333333333333" r="3" fill="#2563eb"></circle><circle class="dot" cx="566.71875" cy="317.3333333333333" r="3" fill="#2563eb"></circle><circle class="dot" cx="568.125" cy="317.3333333333333" r="3" fill="#2563eb"></circle><circle class="dot" cx="569.53125" cy="317.3333333333333" r="3" fill="#2563eb"></circle><circle class="dot" cx="570.9375" cy="317.3333333333333" r="3" fill="#2563eb"></circle><circle class="dot" cx="572.34375" cy="317.3333333333333" r="3" fill="#2563eb"></circle><circle class="dot" cx="573.75" cy="317.3333333333333" r="3" fill="#2563eb"></circle><circle class="dot" cx="575.15625" cy="317.3333333333333" r="3" fill="#2563eb"></circle><circle class="dot" cx="576.5625" cy="317.3333333333333" r="3" fill="#2563eb"></circle><circle class="dot" cx="577.96875" cy="317.3333333333333" r="3" fill="#2563eb"></circle><circle class="dot" cx="579.375" cy="317.3333333333333" r="3" fill="#2563eb"></circle><circle class="dot" cx="580.78125" cy="317.3333333333333" r="3" fill="#2563eb"></circle><circle class="dot" cx="582.1875" cy="317.3333333333333" r="3" fill="#2563eb"></circle><circle class="dot" cx="583.59375" cy="317.3333333333333" r="3" fill="#2563eb"></circle><circle class="dot" cx="585" cy="317.3333333333333" r="3" fill="#2563eb"></circle><circle class="dot" cx="586.40625" cy="317.3333333333333" r="3" fill="#2563eb"></circle><circle class="dot" cx="587.8125" cy="317.3333333333333" r="3" fill="#2563eb"></circle><circle class="dot" cx="589.21875" cy="317.3333333333333" r="3" fill="#2563eb"></circle><circle class="dot" cx="590.625" cy="317.3333333333333" r="3" fill="#2563eb"></circle><circle class="dot" cx="592.03125" cy="317.3333333333333" r="3" fill="#2563eb"></circle><circle class="dot" cx="593.4375" cy="317.3333333333333" r="3" fill="#2563eb"></circle><circle class="dot" cx="594.84375" cy="317.3333333333333" r="3" fill="#2563eb"></circle><circle class="dot" cx="596.25" cy="317.3333333333333" r="3" fill="#2563eb"></circle><circle class="dot" cx="597.65625" cy="317.3333333333333" r="3" fill="#2563eb"></circle><circle class="dot" cx="599.0625" cy="317.3333333333333" r="3" fill="#2563eb"></circle><circle class="dot" cx="600.46875" cy="317.3333333333333" r="3" fill="#2563eb"></circle><circle class="dot" cx="601.875" cy="317.3333333333333" r="3" fill="#2563eb"></circle><circle class="dot" cx="603.28125" cy="317.3333333333333" r="3" fill="#2563eb"></circle><circle class="dot" cx="604.6875" cy="317.3333333333333" r="3" fill="#2563eb"></circle><circle class="dot" cx="606.09375" cy="317.3333333333333" r="3" fill="#2563eb"></circle><circle class="dot" cx="607.5" cy="317.3333333333333" r="3" fill="#2563eb"></circle><circle class="dot" cx="608.90625" cy="317.3333333333333" r="3" fill="#2563eb"></circle><circle class="dot" cx="610.3125" cy="317.3333333333333" r="3" fill="#2563eb"></circle><circle class="dot" cx="611.71875" cy="317.3333333333333" r="3" fill="#2563eb"></circle><circle class="dot" cx="613.125" cy="302.22222222222223" r="3" fill="#2563eb"></circle><circle class="dot" cx="614.53125" cy="302.22222222222223" r="3" fill="#2563eb"></circle><circle class="dot" cx="615.9375" cy="302.22222222222223" r="3" fill="#2563eb"></circle><circle class="dot" cx="617.34375" cy="302.22222222222223" r="3" fill="#2563eb"></circle><circle class="dot" cx="618.75" cy="302.22222222222223" r="3" fill="#2563eb"></circle><circle class="dot" cx="620.15625" cy="302.22222222222223" r="3" fill="#2563eb"></circle><circle class="dot" cx="621.5625" cy="302.22222222222223" r="3" fill="#2563eb"></circle><circle class="dot" cx="622.96875" cy="302.22222222222223" r="3" fill="#2563eb"></circle><circle class="dot" cx="624.375" cy="302.22222222222223" r="3" fill="#2563eb"></circle><circle class="dot" cx="625.78125" cy="302.22222222222223" r="3" fill="#2563eb"></circle><circle class="dot" cx="627.1875" cy="302.22222222222223" r="3" fill="#2563eb"></circle><circle class="dot" cx="628.59375" cy="302.22222222222223" r="3" fill="#2563eb"></circle><circle class="dot" cx="630" cy="302.22222222222223" r="3" fill="#2563eb"></circle><circle class="dot" cx="631.40625" cy="302.22222222222223" r="3" fill="#2563eb"></circle><circle class="dot" cx="632.8125" cy="302.22222222222223" r="3" fill="#2563eb"></circle><circle class="dot" cx="634.21875" cy="302.22222222222223" r="3" fill="#2563eb"></circle><circle class="dot" cx="635.625" cy="302.22222222222223" r="3" fill="#2563eb"></circle><circle class="dot" cx="637.03125" cy="302.22222222222223" r="3" fill="#2563eb"></circle><circle class="dot" cx="638.4375" cy="302.22222222222223" r="3" fill="#2563eb"></circle><circle class="dot" cx="639.84375" cy="302.22222222222223" r="3" fill="#2563eb"></circle><circle class="dot" cx="641.25" cy="302.22222222222223" r="3" fill="#2563eb"></circle><circle class="dot" cx="642.65625" cy="302.22222222222223" r="3" fill="#2563eb"></circle><circle class="dot" cx="644.0625" cy="302.22222222222223" r="3" fill="#2563eb"></circle><circle class="dot" cx="645.46875" cy="302.22222222222223" r="3" fill="#2563eb"></circle><circle class="dot" cx="646.875" cy="302.22222222222223" r="3" fill="#2563eb"></circle><circle class="dot" cx="648.28125" cy="302.22222222222223" r="3" fill="#2563eb"></circle><circle class="dot" cx="649.6875" cy="302.22222222222223" r="3" fill="#2563eb"></circle><circle class="dot" cx="651.09375" cy="302.22222222222223" r="3" fill="#2563eb"></circle><circle class="dot" cx="652.5" cy="294.6666666666667" r="3" fill="#2563eb"></circle><circle class="dot" cx="653.90625" cy="249.33333333333334" r="3" fill="#2563eb"></circle><circle class="dot" cx="655.3125" cy="302.22222222222223" r="3" fill="#2563eb"></circle><circle class="dot" cx="656.71875" cy="302.22222222222223" r="3" fill="#2563eb"></circle><circle class="dot" cx="658.125" cy="302.22222222222223" r="3" fill="#2563eb"></circle><circle class="dot" cx="659.53125" cy="302.22222222222223" r="3" fill="#2563eb"></circle><circle class="dot" cx="660.9375" cy="302.22222222222223" r="3" fill="#2563eb"></circle><circle class="dot" cx="662.34375" cy="302.22222222222223" r="3" fill="#2563eb"></circle><circle class="dot" cx="663.75" cy="302.22222222222223" r="3" fill="#2563eb"></circle><circle class="dot" cx="665.15625" cy="302.22222222222223" r="3" fill="#2563eb"></circle><circle class="dot" cx="666.5625" cy="302.22222222222223" r="3" fill="#2563eb"></circle><circle class="dot" cx="667.96875" cy="302.22222222222223" r="3" fill="#2563eb"></circle><circle class="dot" cx="669.375" cy="302.22222222222223" r="3" fill="#2563eb"></circle><circle class="dot" cx="670.78125" cy="302.22222222222223" r="3" fill="#2563eb"></circle><circle class="dot" cx="672.1875" cy="302.22222222222223" r="3" fill="#2563eb"></circle><circle class="dot" cx="673.59375" cy="302.22222222222223" r="3" fill="#2563eb"></circle><circle class="dot" cx="675" cy="302.22222222222223" r="3" fill="#2563eb"></circle><circle class="dot" cx="676.40625" cy="302.22222222222223" r="3" fill="#2563eb"></circle><circle class="dot" cx="677.8125" cy="302.22222222222223" r="3" fill="#2563eb"></circle><circle class="dot" cx="679.21875" cy="302.22222222222223" r="3" fill="#2563eb"></circle><circle class="dot" cx="680.625" cy="302.22222222222223" r="3" fill="#2563eb"></circle><circle class="dot" cx="682.03125" cy="302.22222222222223" r="3" fill="#2563eb"></circle><circle class="dot" cx="683.4375" cy="302.22222222222223" r="3" fill="#2563eb"></circle><circle class="dot" cx="684.84375" cy="302.22222222222223" r="3" fill="#2563eb"></circle><circle class="dot" cx="686.25" cy="136.00000000000006" r="3" fill="#2563eb"></circle><circle class="dot" cx="687.65625" cy="7.555555555555566" r="3" fill="#2563eb"></circle><circle class="dot" cx="689.0625" cy="264.44444444444446" r="3" fill="#2563eb"></circle><circle class="dot" cx="690.46875" cy="302.22222222222223" r="3" fill="#2563eb"></circle><circle class="dot" cx="691.875" cy="302.22222222222223" r="3" fill="#2563eb"></circle><circle class="dot" cx="693.28125" cy="302.22222222222223" r="3" fill="#2563eb"></circle><circle class="dot" cx="694.6875" cy="302.22222222222223" r="3" fill="#2563eb"></circle><circle class="dot" cx="696.09375" cy="302.22222222222223" r="3" fill="#2563eb"></circle><circle class="dot" cx="697.5" cy="302.22222222222223" r="3" fill="#2563eb"></circle><circle class="dot" cx="698.90625" cy="302.22222222222223" r="3" fill="#2563eb"></circle><circle class="dot" cx="700.3125" cy="302.22222222222223" r="3" fill="#2563eb"></circle><circle class="dot" cx="701.71875" cy="302.22222222222223" r="3" fill="#2563eb"></circle><circle class="dot" cx="703.125" cy="302.22222222222223" r="3" fill="#2563eb"></circle><circle class="dot" cx="704.53125" cy="302.22222222222223" r="3" fill="#2563eb"></circle><circle class="dot" cx="705.9375" cy="302.22222222222223" r="3" fill="#2563eb"></circle><circle class="dot" cx="707.34375" cy="264.44444444444446" r="3" fill="#2563eb"></circle><circle class="dot" cx="708.75" cy="279.55555555555554" r="3" fill="#2563eb"></circle><circle class="dot" cx="710.15625" cy="279.55555555555554" r="3" fill="#2563eb"></circle><circle class="dot" cx="711.5625" cy="279.55555555555554" r="3" fill="#2563eb"></circle><circle class="dot" cx="712.96875" cy="151.11111111111114" r="3" fill="#2563eb"></circle><circle class="dot" cx="714.375" cy="143.5555555555556" r="3" fill="#2563eb"></circle><circle class="dot" cx="715.78125" cy="30.22222222222223" r="3" fill="#2563eb"></circle><circle class="dot" cx="717.1875" cy="302.22222222222223" r="3" fill="#2563eb"></circle><circle class="dot" cx="718.59375" cy="302.22222222222223" r="3" fill="#2563eb"></circle><circle class="dot" cx="720" cy="226.66666666666669" r="3" fill="#2563eb"></circle><g class="grid" transform="translate(0,340)" fill="none" font-size="10" font-family="sans-serif" text-anchor="middle" style="stroke-dasharray: 3,3; opacity: 0.3;"><path class="domain" stroke="currentColor" d="M0.5,-340V0.5H720.5V-340"></path><g class="tick" opacity="1" transform="translate(0.5,0)"><line stroke="currentColor" y2="-340"></line><text fill="currentColor" y="3" dy="0.71em"></text></g><g class="tick" opacity="1" transform="translate(34.25,0)"><line stroke="currentColor" y2="-340"></line><text fill="currentColor" y="3" dy="0.71em"></text></g><g class="tick" opacity="1" transform="translate(68,0)"><line stroke="currentColor" y2="-340"></line><text fill="currentColor" y="3" dy="0.71em"></text></g><g class="tick" opacity="1" transform="translate(101.75,0)"><line stroke="currentColor" y2="-340"></line><text fill="currentColor" y="3" dy="0.71em"></text></g><g class="tick" opacity="1" transform="translate(135.5,0)"><line stroke="currentColor" y2="-340"></line><text fill="currentColor" y="3" dy="0.71em"></text></g><g class="tick" opacity="1" transform="translate(169.25,0)"><line stroke="currentColor" y2="-340"></line><text fill="currentColor" y="3" dy="0.71em"></text></g><g class="tick" opacity="1" transform="translate(203,0)"><line stroke="currentColor" y2="-340"></line><text fill="currentColor" y="3" dy="0.71em"></text></g><g class="tick" opacity="1" transform="translate(236.75,0)"><line stroke="currentColor" y2="-340"></line><text fill="currentColor" y="3" dy="0.71em"></text></g><g class="tick" opacity="1" transform="translate(270.5,0)"><line stroke="currentColor" y2="-340"></line><text fill="currentColor" y="3" dy="0.71em"></text></g><g class="tick" opacity="1" transform="translate(304.25,0)"><line stroke="currentColor" y2="-340"></line><text fill="currentColor" y="3" dy="0.71em"></text></g><g class="tick" opacity="1" transform="translate(338,0)"><line stroke="currentColor" y2="-340"></line><text fill="currentColor" y="3" dy="0.71em"></text></g><g class="tick" opacity="1" transform="translate(371.75,0)"><line stroke="currentColor" y2="-340"></line><text fill="currentColor" y="3" dy="0.71em"></text></g><g class="tick" opacity="1" transform="translate(405.5,0)"><line stroke="currentColor" y2="-340"></line><text fill="currentColor" y="3" dy="0.71em"></text></g><g class="tick" opacity="1" transform="translate(439.25,0)"><line stroke="currentColor" y2="-340"></line><text fill="currentColor" y="3" dy="0.71em"></text></g><g class="tick" opacity="1" transform="translate(473,0)"><line stroke="currentColor" y2="-340"></line><text fill="currentColor" y="3" dy="0.71em"></text></g><g class="tick" opacity="1" transform="translate(506.75,0)"><line stroke="currentColor" y2="-340"></line><text fill="currentColor" y="3" dy="0.71em"></text></g><g class="tick" opacity="1" transform="translate(540.5,0)"><line stroke="currentColor" y2="-340"></line><text fill="currentColor" y="3" dy="0.71em"></text></g><g class="tick" opacity="1" transform="translate(574.25,0)"><line stroke="currentColor" y2="-340"></line><text fill="currentColor" y="3" dy="0.71em"></text></g><g class="tick" opacity="1" transform="translate(608,0)"><line stroke="currentColor" y2="-340"></line><text fill="currentColor" y="3" dy="0.71em"></text></g><g class="tick" opacity="1" transform="translate(641.75,0)"><line stroke="currentColor" y2="-340"></line><text fill="currentColor" y="3" dy="0.71em"></text></g><g class="tick" opacity="1" transform="translate(675.5,0)"><line stroke="currentColor" y2="-340"></line><text fill="currentColor" y="3" dy="0.71em"></text></g><g class="tick" opacity="1" transform="translate(709.25,0)"><line stroke="currentColor" y2="-340"></line><text fill="currentColor" y="3" dy="0.71em"></text></g></g><g class="grid" fill="none" font-size="10" font-family="sans-serif" text-anchor="end" style="stroke-dasharray: 3,3; opacity: 0.3;"><path class="domain" stroke="currentColor" d="M720,340.5H0.5V0.5H720"></path><g class="tick" opacity="1" transform="translate(0,340.5)"><line stroke="currentColor" x2="720"></line><text fill="currentColor" x="-3" dy="0.32em"></text></g><g class="tick" opacity="1" transform="translate(0,302.72222222222223)"><line stroke="currentColor" x2="720"></line><text fill="currentColor" x="-3" dy="0.32em"></text></g><g class="tick" opacity="1" transform="translate(0,264.94444444444446)"><line stroke="currentColor" x2="720"></line><text fill="currentColor" x="-3" dy="0.32em"></text></g><g class="tick" opacity="1" transform="translate(0,227.16666666666669)"><line stroke="currentColor" x2="720"></line><text fill="currentColor" x="-3" dy="0.32em"></text></g><g class="tick" opacity="1" transform="translate(0,189.38888888888894)"><line stroke="currentColor" x2="720"></line><text fill="currentColor" x="-3" dy="0.32em"></text></g><g class="tick" opacity="1" transform="translate(0,151.61111111111114)"><line stroke="currentColor" x2="720"></line><text fill="currentColor" x="-3" dy="0.32em"></text></g><g class="tick" opacity="1" transform="translate(0,113.83333333333339)"><line stroke="currentColor" x2="720"></line><text fill="currentColor" x="-3" dy="0.32em"></text></g><g class="tick" opacity="1" transform="translate(0,76.05555555555563)"><line stroke="currentColor" x2="720"></line><text fill="currentColor" x="-3" dy="0.32em"></text></g><g class="tick" opacity="1" transform="translate(0,38.27777777777779)"><line stroke="currentColor" x2="720"></line><text fill="currentColor" x="-3" dy="0.32em"></text></g><g class="tick" opacity="1" transform="translate(0,0.5)"><line stroke="currentColor" x2="720"></line><text fill="currentColor" x="-3" dy="0.32em"></text></g></g></g><text x="400" y="10" text-anchor="middle" style="font-size: 16px; font-weight: bold; fill: #333;">OKX USDT Lending Rate - Current Month</text></svg>