<svg width="800" height="400" xmlns="http://www.w3.org/2000/svg"><g transform="translate(50,20)"><g transform="translate(0,340)" fill="none" font-size="10" font-family="sans-serif" text-anchor="middle"><path class="domain" stroke="currentColor" d="M0.5,6V0.5H720.5V6"></path><g class="tick" opacity="1" transform="translate(0.5,0)"><line stroke="currentColor" y2="6"></line><text fill="currentColor" y="9" dy=".15em" style="text-anchor: end;" dx="-.8em" transform="rotate(-45)">02/01</text></g><g class="tick" opacity="1" transform="translate(47.20270270270271,0)"><line stroke="currentColor" y2="6"></line><text fill="currentColor" y="9" dy=".15em" style="text-anchor: end;" dx="-.8em" transform="rotate(-45)">02/02</text></g><g class="tick" opacity="1" transform="translate(93.90540540540542,0)"><line stroke="currentColor" y2="6"></line><text fill="currentColor" y="9" dy=".15em" style="text-anchor: end;" dx="-.8em" transform="rotate(-45)">02/03</text></g><g class="tick" opacity="1" transform="translate(140.60810810810813,0)"><line stroke="currentColor" y2="6"></line><text fill="currentColor" y="9" dy=".15em" style="text-anchor: end;" dx="-.8em" transform="rotate(-45)">02/04</text></g><g class="tick" opacity="1" transform="translate(187.31081081081084,0)"><line stroke="currentColor" y2="6"></line><text fill="currentColor" y="9" dy=".15em" style="text-anchor: end;" dx="-.8em" transform="rotate(-45)">02/05</text></g><g class="tick" opacity="1" transform="translate(234.01351351351352,0)"><line stroke="currentColor" y2="6"></line><text fill="currentColor" y="9" dy=".15em" style="text-anchor: end;" dx="-.8em" transform="rotate(-45)">02/06</text></g><g class="tick" opacity="1" transform="translate(280.71621621621625,0)"><line stroke="currentColor" y2="6"></line><text fill="currentColor" y="9" dy=".15em" style="text-anchor: end;" dx="-.8em" transform="rotate(-45)">02/07</text></g><g class="tick" opacity="1" transform="translate(327.41891891891896,0)"><line stroke="currentColor" y2="6"></line><text fill="currentColor" y="9" dy=".15em" style="text-anchor: end;" dx="-.8em" transform="rotate(-45)">02/08</text></g><g class="tick" opacity="1" transform="translate(374.12162162162167,0)"><line stroke="currentColor" y2="6"></line><text fill="currentColor" y="9" dy=".15em" style="text-anchor: end;" dx="-.8em" transform="rotate(-45)">02/09</text></g><g class="tick" opacity="1" transform="translate(420.8243243243243,0)"><line stroke="currentColor" y2="6"></line><text fill="currentColor" y="9" dy=".15em" style="text-anchor: end;" dx="-.8em" transform="rotate(-45)">02/10</text></g><g class="tick" opacity="1" transform="translate(467.52702702702703,0)"><line stroke="currentColor" y2="6"></line><text fill="currentColor" y="9" dy=".15em" style="text-anchor: end;" dx="-.8em" transform="rotate(-45)">02/11</text></g><g class="tick" opacity="1" transform="translate(514.2297297297298,0)"><line stroke="currentColor" y2="6"></line><text fill="currentColor" y="9" dy=".15em" style="text-anchor: end;" dx="-.8em" transform="rotate(-45)">02/12</text></g><g class="tick" opacity="1" transform="translate(560.9324324324325,0)"><line stroke="currentColor" y2="6"></line><text fill="currentColor" y="9" dy=".15em" style="text-anchor: end;" dx="-.8em" transform="rotate(-45)">02/13</text></g><g class="tick" opacity="1" transform="translate(607.6351351351352,0)"><line stroke="currentColor" y2="6"></line><text fill="currentColor" y="9" dy=".15em" style="text-anchor: end;" dx="-.8em" transform="rotate(-45)">02/14</text></g><g class="tick" opacity="1" transform="translate(654.3378378378379,0)"><line stroke="currentColor" y2="6"></line><text fill="currentColor" y="9" dy=".15em" style="text-anchor: end;" dx="-.8em" transform="rotate(-45)">02/15</text></g><g class="tick" opacity="1" transform="translate(701.0405405405406,0)"><line stroke="currentColor" y2="6"></line><text fill="currentColor" y="9" dy=".15em" style="text-anchor: end;" dx="-.8em" transform="rotate(-45)">02/16</text></g></g><g fill="none" font-size="10" font-family="sans-serif" text-anchor="end"><path class="domain" stroke="currentColor" d="M-6,340.5H0.5V0.5H-6"></path><g class="tick" opacity="1" transform="translate(0,340.5)"><line stroke="currentColor" x2="-6"></line><text fill="currentColor" x="-9" dy="0.32em">3.00%</text></g><g class="tick" opacity="1" transform="translate(0,297.99999999999994)"><line stroke="currentColor" x2="-6"></line><text fill="currentColor" x="-9" dy="0.32em">3.10%</text></g><g class="tick" opacity="1" transform="translate(0,255.49999999999991)"><line stroke="currentColor" x2="-6"></line><text fill="currentColor" x="-9" dy="0.32em">3.20%</text></g><g class="tick" opacity="1" transform="translate(0,212.9999999999999)"><line stroke="currentColor" x2="-6"></line><text fill="currentColor" x="-9" dy="0.32em">3.30%</text></g><g class="tick" opacity="1" transform="translate(0,170.49999999999986)"><line stroke="currentColor" x2="-6"></line><text fill="currentColor" x="-9" dy="0.32em">3.40%</text></g><g class="tick" opacity="1" transform="translate(0,127.99999999999982)"><line stroke="currentColor" x2="-6"></line><text fill="currentColor" x="-9" dy="0.32em">3.50%</text></g><g class="tick" opacity="1" transform="translate(0,85.50000000000007)"><line stroke="currentColor" x2="-6"></line><text fill="currentColor" x="-9" dy="0.32em">3.60%</text></g><g class="tick" opacity="1" transform="translate(0,43.000000000000036)"><line stroke="currentColor" x2="-6"></line><text fill="currentColor" x="-9" dy="0.32em">3.70%</text></g><g class="tick" opacity="1" transform="translate(0,0.5)"><line stroke="currentColor" x2="-6"></line><text fill="currentColor" x="-9" dy="0.32em">3.80%</text></g></g><text transform="rotate(-90)" y="-50" x="-170" dy="1em" style="text-anchor: middle; font-size: 12px; fill: #666;">Pre Rate (%)</text><text transform="translate(360, 380)" style="text-anchor: middle; font-size: 12px; fill: #666;">Time (UTC)</text><path fill="none" stroke="#2563eb" stroke-width="2" d="M0,0C0.649,0,1.297,0,1.946,0C2.595,0,3.243,0,3.892,0C4.541,0,5.189,0,5.838,0C6.486,0,7.135,0,7.784,0C8.432,0,9.081,0,9.73,0C10.378,0,11.027,0,11.676,0C12.324,0,12.973,0,13.622,0C14.27,0,14.919,0,15.568,0C16.216,0,16.865,0,17.514,0C18.162,0,18.811,0,19.459,0C20.108,0,20.757,0,21.405,0C22.054,0,22.703,0,23.351,0C24,0,24.649,0,25.297,0C25.946,0,26.595,0,27.243,0C27.892,0,28.541,0,29.189,0C29.838,0,30.486,0,31.135,0C31.784,0,32.432,0,33.081,0C33.73,0,34.378,0,35.027,0C35.676,0,36.324,0,36.973,0C37.622,0,38.27,0,38.919,0C39.568,0,40.216,0,40.865,0C41.514,0,42.162,0,42.811,0C43.459,0,44.108,0,44.757,0C45.405,0,46.054,0,46.703,0C47.351,0,48,0,48.649,0C49.297,0,49.946,0,50.595,0C51.243,0,51.892,0,52.541,0C53.189,0,53.838,0,54.486,0C55.135,0,55.784,0,56.432,0C57.081,0,57.73,0,58.378,0C59.027,0,59.676,0,60.324,0C60.973,0,61.622,0,62.27,0C62.919,0,63.568,0,64.216,0C64.865,0,65.514,0,66.162,0C66.811,0,67.459,0,68.108,0C68.757,0,69.405,0,70.054,0C70.703,0,71.351,0,72,0C72.649,0,73.297,0,73.946,0C74.595,0,75.243,0,75.892,0C76.541,0,77.189,0,77.838,0C78.486,0,79.135,0,79.784,0C80.432,0,81.081,0,81.73,0C82.378,0,83.027,0,83.676,0C84.324,0,84.973,0,85.622,0C86.27,0,86.919,0,87.568,0C88.216,0,88.865,0,89.514,0C90.162,0,90.811,0,91.459,0C92.108,0,92.757,0,93.405,0C94.054,0,94.703,0,95.351,0C96,0,96.649,0,97.297,0C97.946,0,98.595,0,99.243,0C99.892,0,100.541,0,101.189,0C101.838,0,102.486,0,103.135,0C103.784,0,104.432,0,105.081,0C105.73,0,106.378,0,107.027,0C107.676,0,108.324,0,108.973,0C109.622,0,110.27,0,110.919,0C111.568,0,112.216,0,112.865,0C113.514,0,114.162,0,114.811,0C115.459,0,116.108,0,116.757,0C117.405,0,118.054,0,118.703,0C119.351,0,120,0,120.649,0C121.297,0,121.946,0,122.595,0C123.243,0,123.892,0,124.541,0C125.189,0,125.838,0,126.486,0C127.135,0,127.784,0,128.432,0C129.081,0,129.73,0,130.378,0C131.027,0,131.676,0,132.324,0C132.973,0,133.622,0,134.27,0C134.919,0,135.568,0,136.216,0C136.865,0,137.514,0,138.162,0C138.811,0,139.459,0,140.108,0C140.757,0,141.405,0,142.054,0C142.703,0,143.351,0,144,0C144.649,0,145.297,0,145.946,0C146.595,0,147.243,0,147.892,0C148.541,0,149.189,0,149.838,0C150.486,0,151.135,0,151.784,0C152.432,0,153.081,0,153.73,0C154.378,0,155.027,0,155.676,0C156.324,0,156.973,0,157.622,0C158.27,0,158.919,0,159.568,0C160.216,0,160.865,0,161.514,0C162.162,0,162.811,0,163.459,0C164.108,0,164.757,0,165.405,0C166.054,0,166.703,127.5,167.351,127.5C168,127.5,168.649,127.5,169.297,127.5C169.946,127.5,170.595,127.5,171.243,127.5C171.892,127.5,172.541,127.5,173.189,127.5C173.838,127.5,174.486,127.5,175.135,127.5C175.784,127.5,176.432,127.5,177.081,127.5C177.73,127.5,178.378,127.5,179.027,127.5C179.676,127.5,180.324,127.5,180.973,127.5C181.622,127.5,182.27,127.5,182.919,127.5C183.568,127.5,184.216,127.5,184.865,127.5C185.514,127.5,186.162,127.5,186.811,127.5C187.459,127.5,188.108,127.5,188.757,127.5C189.405,127.5,190.054,127.5,190.703,127.5C191.351,127.5,192,127.5,192.649,127.5C193.297,127.5,193.946,127.5,194.595,127.5C195.243,127.5,195.892,127.5,196.541,127.5C197.189,127.5,197.838,127.5,198.486,127.5C199.135,127.5,199.784,127.5,200.432,127.5C201.081,127.5,201.73,127.5,202.378,127.5C203.027,127.5,203.676,127.5,204.324,127.5C204.973,127.5,205.622,127.5,206.27,127.5C206.919,127.5,207.568,127.5,208.216,127.5C208.865,127.5,209.514,127.5,210.162,127.5C210.811,127.5,211.459,127.5,212.108,127.5C212.757,127.5,213.405,127.5,214.054,127.5C214.703,127.5,215.351,127.5,216,127.5C216.649,127.5,217.297,127.5,217.946,127.5C218.595,127.5,219.243,127.5,219.892,127.5C220.541,127.5,221.189,127.5,221.838,127.5C222.486,127.5,223.135,127.5,223.784,127.5C224.432,127.5,225.081,127.5,225.73,127.5C226.378,127.5,227.027,127.5,227.676,127.5C228.324,127.5,228.973,127.5,229.622,127.5C230.27,127.5,230.919,127.5,231.568,127.5C232.216,127.5,232.865,127.5,233.514,127.5C234.162,127.5,234.811,127.5,235.459,127.5C236.108,127.5,236.757,127.5,237.405,127.5C238.054,127.5,238.703,127.5,239.351,127.5C240,127.5,240.649,127.5,241.297,127.5C241.946,127.5,242.595,127.5,243.243,127.5C243.892,127.5,244.541,127.5,245.189,127.5C245.838,127.5,246.486,127.5,247.135,127.5C247.784,127.5,248.432,127.5,249.081,127.5C249.73,127.5,250.378,127.5,251.027,127.5C251.676,127.5,252.324,127.5,252.973,127.5C253.622,127.5,254.27,127.5,254.919,127.5C255.568,127.5,256.216,127.5,256.865,127.5C257.514,127.5,258.162,127.5,258.811,127.5C259.459,127.5,260.108,127.5,260.757,127.5C261.405,127.5,262.054,127.5,262.703,127.5C263.351,127.5,264,127.5,264.649,127.5C265.297,127.5,265.946,127.5,266.595,127.5C267.243,127.5,267.892,127.5,268.541,127.5C269.189,127.5,269.838,127.5,270.486,127.5C271.135,127.5,271.784,127.5,272.432,127.5C273.081,127.5,273.73,127.5,274.378,127.5C275.027,127.5,275.676,127.5,276.324,127.5C276.973,127.5,277.622,127.5,278.27,127.5C278.919,127.5,279.568,127.5,280.216,127.5C280.865,127.5,281.514,127.5,282.162,127.5C282.811,127.5,283.459,127.5,284.108,127.5C284.757,127.5,285.405,127.5,286.054,127.5C286.703,127.5,287.351,127.5,288,127.5C288.649,127.5,289.297,127.5,289.946,127.5C290.595,127.5,291.243,127.5,291.892,127.5C292.541,127.5,293.189,127.5,293.838,127.5C294.486,127.5,295.135,127.5,295.784,127.5C296.432,127.5,297.081,127.5,297.73,127.5C298.378,127.5,299.027,127.5,299.676,127.5C300.324,127.5,300.973,127.5,301.622,127.5C302.27,127.5,302.919,127.5,303.568,127.5C304.216,127.5,304.865,127.5,305.514,127.5C306.162,127.5,306.811,127.5,307.459,127.5C308.108,127.5,308.757,127.5,309.405,127.5C310.054,127.5,310.703,127.5,311.351,127.5C312,127.5,312.649,127.5,313.297,127.5C313.946,127.5,314.595,127.5,315.243,127.5C315.892,127.5,316.541,127.5,317.189,127.5C317.838,127.5,318.486,127.5,319.135,127.5C319.784,127.5,320.432,127.5,321.081,127.5C321.73,127.5,322.378,127.5,323.027,127.5C323.676,127.5,324.324,127.5,324.973,127.5C325.622,127.5,326.27,127.5,326.919,127.5C327.568,127.5,328.216,127.5,328.865,127.5C329.514,127.5,330.162,127.5,330.811,127.5C331.459,127.5,332.108,127.5,332.757,127.5C333.405,127.5,334.054,127.5,334.703,127.5C335.351,127.5,336,127.5,336.649,127.5C337.297,127.5,337.946,127.5,338.595,127.5C339.243,127.5,339.892,127.5,340.541,127.5C341.189,127.5,341.838,127.5,342.486,127.5C343.135,127.5,343.784,127.5,344.432,127.5C345.081,127.5,345.73,127.5,346.378,127.5C347.027,127.5,347.676,127.5,348.324,127.5C348.973,127.5,349.622,127.5,350.27,127.5C350.919,127.5,351.568,127.5,352.216,127.5C352.865,127.5,353.514,127.5,354.162,127.5C354.811,127.5,355.459,127.5,356.108,127.5C356.757,127.5,357.405,127.5,358.054,127.5C358.703,127.5,359.351,127.5,360,127.5C360.649,127.5,361.297,127.5,361.946,127.5C362.595,127.5,363.243,127.5,363.892,127.5C364.541,127.5,365.189,127.5,365.838,127.5C366.486,127.5,367.135,127.5,367.784,127.5C368.432,127.5,369.081,127.5,369.73,127.5C370.378,127.5,371.027,127.5,371.676,127.5C372.324,127.5,372.973,127.5,373.622,127.5C374.27,127.5,374.919,127.5,375.568,127.5C376.216,127.5,376.865,127.5,377.514,127.5C378.162,127.5,378.811,127.5,379.459,127.5C380.108,127.5,380.757,127.5,381.405,127.5C382.054,127.5,382.703,127.5,383.351,127.5C384,127.5,384.649,127.5,385.297,127.5C385.946,127.5,386.595,127.5,387.243,127.5C387.892,127.5,388.541,127.5,389.189,127.5C389.838,127.5,390.486,127.5,391.135,127.5C391.784,127.5,392.432,127.5,393.081,127.5C393.73,127.5,394.378,127.5,395.027,127.5C395.676,127.5,396.324,127.5,396.973,127.5C397.622,127.5,398.27,127.5,398.919,127.5C399.568,127.5,400.216,127.5,400.865,127.5C401.514,127.5,402.162,127.5,402.811,127.5C403.459,127.5,404.108,127.5,404.757,127.5C405.405,127.5,406.054,127.5,406.703,127.5C407.351,127.5,408,127.5,408.649,127.5C409.297,127.5,409.946,127.5,410.595,127.5C411.243,127.5,411.892,127.5,412.541,127.5C413.189,127.5,413.838,127.5,414.486,127.5C415.135,127.5,415.784,127.5,416.432,127.5C417.081,127.5,417.73,127.5,418.378,127.5C419.027,127.5,419.676,127.5,420.324,127.5C420.973,127.5,421.622,127.5,422.27,127.5C422.919,127.5,423.568,127.5,424.216,127.5C424.865,127.5,425.514,127.5,426.162,127.5C426.811,127.5,427.459,127.5,428.108,127.5C428.757,127.5,429.405,127.5,430.054,127.5C430.703,127.5,431.351,127.5,432,127.5C432.649,127.5,433.297,127.5,433.946,127.5C434.595,127.5,435.243,127.5,435.892,127.5C436.541,127.5,437.189,127.5,437.838,127.5C438.486,127.5,439.135,127.5,439.784,127.5C440.432,127.5,441.081,127.5,441.73,127.5C442.378,127.5,443.027,127.5,443.676,127.5C444.324,127.5,444.973,127.5,445.622,127.5C446.27,127.5,446.919,127.5,447.568,127.5C448.216,127.5,448.865,127.5,449.514,127.5C450.162,127.5,450.811,127.5,451.459,127.5C452.108,127.5,452.757,127.5,453.405,127.5C454.054,127.5,454.703,127.5,455.351,127.5C456,127.5,456.649,127.5,457.297,127.5C457.946,127.5,458.595,127.5,459.243,127.5C459.892,127.5,460.541,127.5,461.189,127.5C461.838,127.5,462.486,127.5,463.135,127.5C463.784,127.5,464.432,127.5,465.081,127.5C465.73,127.5,466.378,127.5,467.027,127.5C467.676,127.5,468.324,127.5,468.973,127.5C469.622,127.5,470.27,127.5,470.919,127.5C471.568,127.5,472.216,127.5,472.865,127.5C473.514,127.5,474.162,127.5,474.811,127.5C475.459,127.5,476.108,127.5,476.757,127.5C477.405,127.5,478.054,127.5,478.703,127.5C479.351,127.5,480,127.5,480.649,127.5C481.297,127.5,481.946,127.5,482.595,127.5C483.243,127.5,483.892,127.5,484.541,127.5C485.189,127.5,485.838,127.5,486.486,127.5C487.135,127.5,487.784,127.5,488.432,127.5C489.081,127.5,489.73,127.5,490.378,127.5C491.027,127.5,491.676,127.5,492.324,127.5C492.973,127.5,493.622,127.5,494.27,127.5C494.919,127.5,495.568,127.5,496.216,127.5C496.865,127.5,497.514,127.5,498.162,127.5C498.811,127.5,499.459,127.5,500.108,127.5C500.757,127.5,501.405,127.5,502.054,127.5C502.703,127.5,503.351,127.5,504,127.5C504.649,127.5,505.297,127.5,505.946,127.5C506.595,127.5,507.243,127.5,507.892,127.5C508.541,127.5,509.189,127.5,509.838,127.5C510.486,127.5,511.135,127.5,511.784,127.5C512.432,127.5,513.081,127.5,513.73,127.5C514.378,127.5,515.027,127.5,515.676,127.5C516.324,127.5,516.973,127.5,517.622,127.5C518.27,127.5,518.919,127.5,519.568,127.5C520.216,127.5,520.865,340,521.514,340C522.162,340,522.811,340,523.459,340C524.108,340,524.757,340,525.405,340C526.054,340,526.703,340,527.351,340C528,340,528.649,340,529.297,340C529.946,340,530.595,340,531.243,340C531.892,340,532.541,340,533.189,340C533.838,340,534.486,340,535.135,340C535.784,340,536.432,340,537.081,340C537.73,340,538.378,340,539.027,340C539.676,340,540.324,340,540.973,340C541.622,340,542.27,340,542.919,340C543.568,340,544.216,340,544.865,340C545.514,340,546.162,340,546.811,340C547.459,340,548.108,340,548.757,340C549.405,340,550.054,340,550.703,340C551.351,340,552,340,552.649,340C553.297,340,553.946,340,554.595,340C555.243,340,555.892,340,556.541,340C557.189,340,557.838,340,558.486,340C559.135,340,559.784,340,560.432,340C561.081,340,561.73,340,562.378,340C563.027,340,563.676,340,564.324,340C564.973,340,565.622,340,566.27,340C566.919,340,567.568,340,568.216,340C568.865,340,569.514,340,570.162,340C570.811,340,571.459,340,572.108,340C572.757,340,573.405,340,574.054,340C574.703,340,575.351,340,576,340C576.649,340,577.297,340,577.946,340C578.595,340,579.243,340,579.892,340C580.541,340,581.189,340,581.838,340C582.486,340,583.135,340,583.784,340C584.432,340,585.081,340,585.73,340C586.378,340,587.027,340,587.676,340C588.324,340,588.973,340,589.622,340C590.27,340,590.919,340,591.568,340C592.216,340,592.865,340,593.514,340C594.162,340,594.811,340,595.459,340C596.108,340,596.757,340,597.405,340C598.054,340,598.703,340,599.351,340C600,340,600.649,340,601.297,340C601.946,340,602.595,340,603.243,340C603.892,340,604.541,340,605.189,340C605.838,340,606.486,340,607.135,340C607.784,340,608.432,340,609.081,340C609.73,340,610.378,340,611.027,340C611.676,340,612.324,340,612.973,340C613.622,340,614.27,340,614.919,340C615.568,340,616.216,340,616.865,340C617.514,340,618.162,340,618.811,340C619.459,340,620.108,340,620.757,340C621.405,340,622.054,340,622.703,340C623.351,340,624,340,624.649,340C625.297,340,625.946,340,626.595,340C627.243,340,627.892,340,628.541,340C629.189,340,629.838,340,630.486,340C631.135,340,631.784,340,632.432,340C633.081,340,633.73,340,634.378,340C635.027,340,635.676,340,636.324,340C636.973,340,637.622,340,638.27,340C638.919,340,639.568,340,640.216,340C640.865,340,641.514,340,642.162,340C642.811,340,643.459,340,644.108,340C644.757,340,645.405,340,646.054,340C646.703,340,647.351,340,648,340C648.649,340,649.297,340,649.946,340C650.595,340,651.243,340,651.892,340C652.541,340,653.189,340,653.838,340C654.486,340,655.135,340,655.784,340C656.432,340,657.081,340,657.73,340C658.378,340,659.027,340,659.676,340C660.324,340,660.973,340,661.622,340C662.27,340,662.919,340,663.568,340C664.216,340,664.865,340,665.514,340C666.162,340,666.811,340,667.459,340C668.108,340,668.757,340,669.405,340C670.054,340,670.703,340,671.351,340C672,340,672.649,340,673.297,340C673.946,340,674.595,340,675.243,340C675.892,340,676.541,340,677.189,340C677.838,340,678.486,340,679.135,340C679.784,340,680.432,340,681.081,340C681.73,340,682.378,340,683.027,340C683.676,340,684.324,340,684.973,340C685.622,340,686.27,340,686.919,340C687.568,340,688.216,340,688.865,340C689.514,340,690.162,340,690.811,340C691.459,340,692.108,340,692.757,340C693.405,340,694.054,340,694.703,340C695.351,340,696,340,696.649,340C697.297,340,697.946,340,698.595,340C699.243,340,699.892,340,700.541,340C701.189,340,701.838,340,702.486,340C703.135,340,703.784,340,704.432,340C705.081,340,705.73,340,706.378,340C707.027,340,707.676,340,708.324,340C708.973,340,709.622,340,710.27,340C710.919,340,711.568,340,712.216,340C712.865,340,713.514,340,714.162,340C714.811,340,715.459,340,716.108,340C716.757,340,717.405,340,718.054,340C718.703,340,719.351,340,720,340"></path><circle class="dot" cx="0" cy="0" r="3" fill="#2563eb"></circle><circle class="dot" cx="1.945945945945946" cy="0" r="3" fill="#2563eb"></circle><circle class="dot" cx="3.891891891891892" cy="0" r="3" fill="#2563eb"></circle><circle class="dot" cx="5.837837837837839" cy="0" r="3" fill="#2563eb"></circle><circle class="dot" cx="7.783783783783784" cy="0" r="3" fill="#2563eb"></circle><circle class="dot" cx="9.72972972972973" cy="0" r="3" fill="#2563eb"></circle><circle class="dot" cx="11.675675675675677" cy="0" r="3" fill="#2563eb"></circle><circle class="dot" cx="13.621621621621623" cy="0" r="3" fill="#2563eb"></circle><circle class="dot" cx="15.567567567567568" cy="0" r="3" fill="#2563eb"></circle><circle class="dot" cx="17.513513513513516" cy="0" r="3" fill="#2563eb"></circle><circle class="dot" cx="19.45945945945946" cy="0" r="3" fill="#2563eb"></circle><circle class="dot" cx="21.405405405405407" cy="0" r="3" fill="#2563eb"></circle><circle class="dot" cx="23.351351351351354" cy="0" r="3" fill="#2563eb"></circle><circle class="dot" cx="25.2972972972973" cy="0" r="3" fill="#2563eb"></circle><circle class="dot" cx="27.243243243243246" cy="0" r="3" fill="#2563eb"></circle><circle class="dot" cx="29.18918918918919" cy="0" r="3" fill="#2563eb"></circle><circle class="dot" cx="31.135135135135137" cy="0" r="3" fill="#2563eb"></circle><circle class="dot" cx="33.08108108108108" cy="0" r="3" fill="#2563eb"></circle><circle class="dot" cx="35.02702702702703" cy="0" r="3" fill="#2563eb"></circle><circle class="dot" cx="36.972972972972975" cy="0" r="3" fill="#2563eb"></circle><circle class="dot" cx="38.91891891891892" cy="0" r="3" fill="#2563eb"></circle><circle class="dot" cx="40.86486486486487" cy="0" r="3" fill="#2563eb"></circle><circle class="dot" cx="42.810810810810814" cy="0" r="3" fill="#2563eb"></circle><circle class="dot" cx="44.75675675675676" cy="0" r="3" fill="#2563eb"></circle><circle class="dot" cx="46.70270270270271" cy="0" r="3" fill="#2563eb"></circle><circle class="dot" cx="48.64864864864865" cy="0" r="3" fill="#2563eb"></circle><circle class="dot" cx="50.5945945945946" cy="0" r="3" fill="#2563eb"></circle><circle class="dot" cx="52.54054054054054" cy="0" r="3" fill="#2563eb"></circle><circle class="dot" cx="54.48648648648649" cy="0" r="3" fill="#2563eb"></circle><circle class="dot" cx="56.432432432432435" cy="0" r="3" fill="#2563eb"></circle><circle class="dot" cx="58.37837837837838" cy="0" r="3" fill="#2563eb"></circle><circle class="dot" cx="60.32432432432433" cy="0" r="3" fill="#2563eb"></circle><circle class="dot" cx="62.270270270270274" cy="0" r="3" fill="#2563eb"></circle><circle class="dot" cx="64.21621621621622" cy="0" r="3" fill="#2563eb"></circle><circle class="dot" cx="66.16216216216216" cy="0" r="3" fill="#2563eb"></circle><circle class="dot" cx="68.10810810810811" cy="0" r="3" fill="#2563eb"></circle><circle class="dot" cx="70.05405405405406" cy="0" r="3" fill="#2563eb"></circle><circle class="dot" cx="72" cy="0" r="3" fill="#2563eb"></circle><circle class="dot" cx="73.94594594594595" cy="0" r="3" fill="#2563eb"></circle><circle class="dot" cx="75.8918918918919" cy="0" r="3" fill="#2563eb"></circle><circle class="dot" cx="77.83783783783784" cy="0" r="3" fill="#2563eb"></circle><circle class="dot" cx="79.78378378378379" cy="0" r="3" fill="#2563eb"></circle><circle class="dot" cx="81.72972972972974" cy="0" r="3" fill="#2563eb"></circle><circle class="dot" cx="83.67567567567568" cy="0" r="3" fill="#2563eb"></circle><circle class="dot" cx="85.62162162162163" cy="0" r="3" fill="#2563eb"></circle><circle class="dot" cx="87.56756756756758" cy="0" r="3" fill="#2563eb"></circle><circle class="dot" cx="89.51351351351352" cy="0" r="3" fill="#2563eb"></circle><circle class="dot" cx="91.45945945945947" cy="0" r="3" fill="#2563eb"></circle><circle class="dot" cx="93.40540540540542" cy="0" r="3" fill="#2563eb"></circle><circle class="dot" cx="95.35135135135135" cy="0" r="3" fill="#2563eb"></circle><circle class="dot" cx="97.2972972972973" cy="0" r="3" fill="#2563eb"></circle><circle class="dot" cx="99.24324324324324" cy="0" r="3" fill="#2563eb"></circle><circle class="dot" cx="101.1891891891892" cy="0" r="3" fill="#2563eb"></circle><circle class="dot" cx="103.13513513513514" cy="0" r="3" fill="#2563eb"></circle><circle class="dot" cx="105.08108108108108" cy="0" r="3" fill="#2563eb"></circle><circle class="dot" cx="107.02702702702703" cy="0" r="3" fill="#2563eb"></circle><circle class="dot" cx="108.97297297297298" cy="0" r="3" fill="#2563eb"></circle><circle class="dot" cx="110.91891891891892" cy="0" r="3" fill="#2563eb"></circle><circle class="dot" cx="112.86486486486487" cy="0" r="3" fill="#2563eb"></circle><circle class="dot" cx="114.81081081081082" cy="0" r="3" fill="#2563eb"></circle><circle class="dot" cx="116.75675675675676" cy="0" r="3" fill="#2563eb"></circle><circle class="dot" cx="118.70270270270271" cy="0" r="3" fill="#2563eb"></circle><circle class="dot" cx="120.64864864864866" cy="0" r="3" fill="#2563eb"></circle><circle class="dot" cx="122.5945945945946" cy="0" r="3" fill="#2563eb"></circle><circle class="dot" cx="124.54054054054055" cy="0" r="3" fill="#2563eb"></circle><circle class="dot" cx="126.4864864864865" cy="0" r="3" fill="#2563eb"></circle><circle class="dot" cx="128.43243243243245" cy="0" r="3" fill="#2563eb"></circle><circle class="dot" cx="130.3783783783784" cy="0" r="3" fill="#2563eb"></circle><circle class="dot" cx="132.32432432432432" cy="0" r="3" fill="#2563eb"></circle><circle class="dot" cx="134.2702702702703" cy="0" r="3" fill="#2563eb"></circle><circle class="dot" cx="136.21621621621622" cy="0" r="3" fill="#2563eb"></circle><circle class="dot" cx="138.16216216216216" cy="0" r="3" fill="#2563eb"></circle><circle class="dot" cx="140.10810810810813" cy="0" r="3" fill="#2563eb"></circle><circle class="dot" cx="142.05405405405406" cy="0" r="3" fill="#2563eb"></circle><circle class="dot" cx="144" cy="0" r="3" fill="#2563eb"></circle><circle class="dot" cx="145.94594594594597" cy="0" r="3" fill="#2563eb"></circle><circle class="dot" cx="147.8918918918919" cy="0" r="3" fill="#2563eb"></circle><circle class="dot" cx="149.83783783783784" cy="0" r="3" fill="#2563eb"></circle><circle class="dot" cx="151.7837837837838" cy="0" r="3" fill="#2563eb"></circle><circle class="dot" cx="153.72972972972974" cy="0" r="3" fill="#2563eb"></circle><circle class="dot" cx="155.67567567567568" cy="0" r="3" fill="#2563eb"></circle><circle class="dot" cx="157.62162162162164" cy="0" r="3" fill="#2563eb"></circle><circle class="dot" cx="159.56756756756758" cy="0" r="3" fill="#2563eb"></circle><circle class="dot" cx="161.51351351351352" cy="0" r="3" fill="#2563eb"></circle><circle class="dot" cx="163.45945945945948" cy="0" r="3" fill="#2563eb"></circle><circle class="dot" cx="165.40540540540542" cy="0" r="3" fill="#2563eb"></circle><circle class="dot" cx="167.35135135135135" cy="127.49999999999982" r="3" fill="#2563eb"></circle><circle class="dot" cx="169.29729729729732" cy="127.49999999999982" r="3" fill="#2563eb"></circle><circle class="dot" cx="171.24324324324326" cy="127.49999999999982" r="3" fill="#2563eb"></circle><circle class="dot" cx="173.1891891891892" cy="127.49999999999982" r="3" fill="#2563eb"></circle><circle class="dot" cx="175.13513513513516" cy="127.49999999999982" r="3" fill="#2563eb"></circle><circle class="dot" cx="177.0810810810811" cy="127.49999999999982" r="3" fill="#2563eb"></circle><circle class="dot" cx="179.02702702702703" cy="127.49999999999982" r="3" fill="#2563eb"></circle><circle class="dot" cx="180.97297297297297" cy="127.49999999999982" r="3" fill="#2563eb"></circle><circle class="dot" cx="182.91891891891893" cy="127.49999999999982" r="3" fill="#2563eb"></circle><circle class="dot" cx="184.86486486486484" cy="127.49999999999982" r="3" fill="#2563eb"></circle><circle class="dot" cx="186.81081081081084" cy="127.49999999999982" r="3" fill="#2563eb"></circle><circle class="dot" cx="188.75675675675674" cy="127.49999999999982" r="3" fill="#2563eb"></circle><circle class="dot" cx="190.7027027027027" cy="127.49999999999982" r="3" fill="#2563eb"></circle><circle class="dot" cx="192.64864864864865" cy="127.49999999999982" r="3" fill="#2563eb"></circle><circle class="dot" cx="194.5945945945946" cy="127.49999999999982" r="3" fill="#2563eb"></circle><circle class="dot" cx="196.54054054054052" cy="127.49999999999982" r="3" fill="#2563eb"></circle><circle class="dot" cx="198.48648648648648" cy="127.49999999999982" r="3" fill="#2563eb"></circle><circle class="dot" cx="200.43243243243242" cy="127.49999999999982" r="3" fill="#2563eb"></circle><circle class="dot" cx="202.3783783783784" cy="127.49999999999982" r="3" fill="#2563eb"></circle><circle class="dot" cx="204.32432432432432" cy="127.49999999999982" r="3" fill="#2563eb"></circle><circle class="dot" cx="206.2702702702703" cy="127.49999999999982" r="3" fill="#2563eb"></circle><circle class="dot" cx="208.2162162162162" cy="127.49999999999982" r="3" fill="#2563eb"></circle><circle class="dot" cx="210.16216216216216" cy="127.49999999999982" r="3" fill="#2563eb"></circle><circle class="dot" cx="212.1081081081081" cy="127.49999999999982" r="3" fill="#2563eb"></circle><circle class="dot" cx="214.05405405405406" cy="127.49999999999982" r="3" fill="#2563eb"></circle><circle class="dot" cx="216" cy="127.49999999999982" r="3" fill="#2563eb"></circle><circle class="dot" cx="217.94594594594597" cy="127.49999999999982" r="3" fill="#2563eb"></circle><circle class="dot" cx="219.89189189189187" cy="127.49999999999982" r="3" fill="#2563eb"></circle><circle class="dot" cx="221.83783783783784" cy="127.49999999999982" r="3" fill="#2563eb"></circle><circle class="dot" cx="223.78378378378378" cy="127.49999999999982" r="3" fill="#2563eb"></circle><circle class="dot" cx="225.72972972972974" cy="127.49999999999982" r="3" fill="#2563eb"></circle><circle class="dot" cx="227.67567567567568" cy="127.49999999999982" r="3" fill="#2563eb"></circle><circle class="dot" cx="229.62162162162164" cy="127.49999999999982" r="3" fill="#2563eb"></circle><circle class="dot" cx="231.56756756756755" cy="127.49999999999982" r="3" fill="#2563eb"></circle><circle class="dot" cx="233.51351351351352" cy="127.49999999999982" r="3" fill="#2563eb"></circle><circle class="dot" cx="235.45945945945945" cy="127.49999999999982" r="3" fill="#2563eb"></circle><circle class="dot" cx="237.40540540540542" cy="127.49999999999982" r="3" fill="#2563eb"></circle><circle class="dot" cx="239.35135135135135" cy="127.49999999999982" r="3" fill="#2563eb"></circle><circle class="dot" cx="241.29729729729732" cy="127.49999999999982" r="3" fill="#2563eb"></circle><circle class="dot" cx="243.24324324324323" cy="127.49999999999982" r="3" fill="#2563eb"></circle><circle class="dot" cx="245.1891891891892" cy="127.49999999999982" r="3" fill="#2563eb"></circle><circle class="dot" cx="247.13513513513513" cy="127.49999999999982" r="3" fill="#2563eb"></circle><circle class="dot" cx="249.0810810810811" cy="127.49999999999982" r="3" fill="#2563eb"></circle><circle class="dot" cx="251.02702702702703" cy="127.49999999999982" r="3" fill="#2563eb"></circle><circle class="dot" cx="252.972972972973" cy="127.49999999999982" r="3" fill="#2563eb"></circle><circle class="dot" cx="254.9189189189189" cy="127.49999999999982" r="3" fill="#2563eb"></circle><circle class="dot" cx="256.8648648648649" cy="127.49999999999982" r="3" fill="#2563eb"></circle><circle class="dot" cx="258.8108108108108" cy="127.49999999999982" r="3" fill="#2563eb"></circle><circle class="dot" cx="260.7567567567568" cy="127.49999999999982" r="3" fill="#2563eb"></circle><circle class="dot" cx="262.7027027027027" cy="127.49999999999982" r="3" fill="#2563eb"></circle><circle class="dot" cx="264.64864864864865" cy="127.49999999999982" r="3" fill="#2563eb"></circle><circle class="dot" cx="266.5945945945946" cy="127.49999999999982" r="3" fill="#2563eb"></circle><circle class="dot" cx="268.5405405405406" cy="127.49999999999982" r="3" fill="#2563eb"></circle><circle class="dot" cx="270.48648648648646" cy="127.49999999999982" r="3" fill="#2563eb"></circle><circle class="dot" cx="272.43243243243245" cy="127.49999999999982" r="3" fill="#2563eb"></circle><circle class="dot" cx="274.3783783783784" cy="127.49999999999982" r="3" fill="#2563eb"></circle><circle class="dot" cx="276.3243243243243" cy="127.49999999999982" r="3" fill="#2563eb"></circle><circle class="dot" cx="278.27027027027026" cy="127.49999999999982" r="3" fill="#2563eb"></circle><circle class="dot" cx="280.21621621621625" cy="127.49999999999982" r="3" fill="#2563eb"></circle><circle class="dot" cx="282.16216216216213" cy="127.49999999999982" r="3" fill="#2563eb"></circle><circle class="dot" cx="284.1081081081081" cy="127.49999999999982" r="3" fill="#2563eb"></circle><circle class="dot" cx="286.05405405405406" cy="127.49999999999982" r="3" fill="#2563eb"></circle><circle class="dot" cx="288" cy="127.49999999999982" r="3" fill="#2563eb"></circle><circle class="dot" cx="289.94594594594594" cy="127.49999999999982" r="3" fill="#2563eb"></circle><circle class="dot" cx="291.89189189189193" cy="127.49999999999982" r="3" fill="#2563eb"></circle><circle class="dot" cx="293.8378378378378" cy="127.49999999999982" r="3" fill="#2563eb"></circle><circle class="dot" cx="295.7837837837838" cy="127.49999999999982" r="3" fill="#2563eb"></circle><circle class="dot" cx="297.72972972972974" cy="127.49999999999982" r="3" fill="#2563eb"></circle><circle class="dot" cx="299.6756756756757" cy="127.49999999999982" r="3" fill="#2563eb"></circle><circle class="dot" cx="301.6216216216216" cy="127.49999999999982" r="3" fill="#2563eb"></circle><circle class="dot" cx="303.5675675675676" cy="127.49999999999982" r="3" fill="#2563eb"></circle><circle class="dot" cx="305.5135135135135" cy="127.49999999999982" r="3" fill="#2563eb"></circle><circle class="dot" cx="307.4594594594595" cy="127.49999999999982" r="3" fill="#2563eb"></circle><circle class="dot" cx="309.4054054054054" cy="127.49999999999982" r="3" fill="#2563eb"></circle><circle class="dot" cx="311.35135135135135" cy="127.49999999999982" r="3" fill="#2563eb"></circle><circle class="dot" cx="313.2972972972973" cy="127.49999999999982" r="3" fill="#2563eb"></circle><circle class="dot" cx="315.2432432432433" cy="127.49999999999982" r="3" fill="#2563eb"></circle><circle class="dot" cx="317.18918918918916" cy="127.49999999999982" r="3" fill="#2563eb"></circle><circle class="dot" cx="319.13513513513516" cy="127.49999999999982" r="3" fill="#2563eb"></circle><circle class="dot" cx="321.0810810810811" cy="127.49999999999982" r="3" fill="#2563eb"></circle><circle class="dot" cx="323.02702702702703" cy="127.49999999999982" r="3" fill="#2563eb"></circle><circle class="dot" cx="324.97297297297297" cy="127.49999999999982" r="3" fill="#2563eb"></circle><circle class="dot" cx="326.91891891891896" cy="127.49999999999982" r="3" fill="#2563eb"></circle><circle class="dot" cx="328.86486486486484" cy="127.49999999999982" r="3" fill="#2563eb"></circle><circle class="dot" cx="330.81081081081084" cy="127.49999999999982" r="3" fill="#2563eb"></circle><circle class="dot" cx="332.7567567567568" cy="127.49999999999982" r="3" fill="#2563eb"></circle><circle class="dot" cx="334.7027027027027" cy="127.49999999999982" r="3" fill="#2563eb"></circle><circle class="dot" cx="336.64864864864865" cy="127.49999999999982" r="3" fill="#2563eb"></circle><circle class="dot" cx="338.59459459459464" cy="127.49999999999982" r="3" fill="#2563eb"></circle><circle class="dot" cx="340.5405405405405" cy="127.49999999999982" r="3" fill="#2563eb"></circle><circle class="dot" cx="342.4864864864865" cy="127.49999999999982" r="3" fill="#2563eb"></circle><circle class="dot" cx="344.43243243243245" cy="127.49999999999982" r="3" fill="#2563eb"></circle><circle class="dot" cx="346.3783783783784" cy="127.49999999999982" r="3" fill="#2563eb"></circle><circle class="dot" cx="348.3243243243243" cy="127.49999999999982" r="3" fill="#2563eb"></circle><circle class="dot" cx="350.2702702702703" cy="127.49999999999982" r="3" fill="#2563eb"></circle><circle class="dot" cx="352.2162162162162" cy="127.49999999999982" r="3" fill="#2563eb"></circle><circle class="dot" cx="354.1621621621622" cy="127.49999999999982" r="3" fill="#2563eb"></circle><circle class="dot" cx="356.1081081081081" cy="127.49999999999982" r="3" fill="#2563eb"></circle><circle class="dot" cx="358.05405405405406" cy="127.49999999999982" r="3" fill="#2563eb"></circle><circle class="dot" cx="360" cy="127.49999999999982" r="3" fill="#2563eb"></circle><circle class="dot" cx="361.94594594594594" cy="127.49999999999982" r="3" fill="#2563eb"></circle><circle class="dot" cx="363.8918918918919" cy="127.49999999999982" r="3" fill="#2563eb"></circle><circle class="dot" cx="365.83783783783787" cy="127.49999999999982" r="3" fill="#2563eb"></circle><circle class="dot" cx="367.7837837837838" cy="127.49999999999982" r="3" fill="#2563eb"></circle><circle class="dot" cx="369.7297297297297" cy="127.49999999999982" r="3" fill="#2563eb"></circle><circle class="dot" cx="371.6756756756756" cy="127.49999999999982" r="3" fill="#2563eb"></circle><circle class="dot" cx="373.62162162162167" cy="127.49999999999982" r="3" fill="#2563eb"></circle><circle class="dot" cx="375.56756756756755" cy="127.49999999999982" r="3" fill="#2563eb"></circle><circle class="dot" cx="377.5135135135135" cy="127.49999999999982" r="3" fill="#2563eb"></circle><circle class="dot" cx="379.4594594594594" cy="127.49999999999982" r="3" fill="#2563eb"></circle><circle class="dot" cx="381.4054054054054" cy="127.49999999999982" r="3" fill="#2563eb"></circle><circle class="dot" cx="383.35135135135135" cy="127.49999999999982" r="3" fill="#2563eb"></circle><circle class="dot" cx="385.2972972972973" cy="127.49999999999982" r="3" fill="#2563eb"></circle><circle class="dot" cx="387.2432432432432" cy="127.49999999999982" r="3" fill="#2563eb"></circle><circle class="dot" cx="389.1891891891892" cy="127.49999999999982" r="3" fill="#2563eb"></circle><circle class="dot" cx="391.13513513513516" cy="127.49999999999982" r="3" fill="#2563eb"></circle><circle class="dot" cx="393.08108108108104" cy="127.49999999999982" r="3" fill="#2563eb"></circle><circle class="dot" cx="395.027027027027" cy="127.49999999999982" r="3" fill="#2563eb"></circle><circle class="dot" cx="396.97297297297297" cy="127.49999999999982" r="3" fill="#2563eb"></circle><circle class="dot" cx="398.9189189189189" cy="127.49999999999982" r="3" fill="#2563eb"></circle><circle class="dot" cx="400.86486486486484" cy="127.49999999999982" r="3" fill="#2563eb"></circle><circle class="dot" cx="402.8108108108108" cy="127.49999999999982" r="3" fill="#2563eb"></circle><circle class="dot" cx="404.7567567567568" cy="127.49999999999982" r="3" fill="#2563eb"></circle><circle class="dot" cx="406.7027027027027" cy="127.49999999999982" r="3" fill="#2563eb"></circle><circle class="dot" cx="408.64864864864865" cy="127.49999999999982" r="3" fill="#2563eb"></circle><circle class="dot" cx="410.5945945945946" cy="127.49999999999982" r="3" fill="#2563eb"></circle><circle class="dot" cx="412.5405405405406" cy="127.49999999999982" r="3" fill="#2563eb"></circle><circle class="dot" cx="414.4864864864865" cy="127.49999999999982" r="3" fill="#2563eb"></circle><circle class="dot" cx="416.4324324324324" cy="127.49999999999982" r="3" fill="#2563eb"></circle><circle class="dot" cx="418.37837837837833" cy="127.49999999999982" r="3" fill="#2563eb"></circle><circle class="dot" cx="420.3243243243243" cy="127.49999999999982" r="3" fill="#2563eb"></circle><circle class="dot" cx="422.27027027027026" cy="127.49999999999982" r="3" fill="#2563eb"></circle><circle class="dot" cx="424.2162162162162" cy="127.49999999999982" r="3" fill="#2563eb"></circle><circle class="dot" cx="426.16216216216213" cy="127.49999999999982" r="3" fill="#2563eb"></circle><circle class="dot" cx="428.1081081081081" cy="127.49999999999982" r="3" fill="#2563eb"></circle><circle class="dot" cx="430.05405405405406" cy="127.49999999999982" r="3" fill="#2563eb"></circle><circle class="dot" cx="432" cy="127.49999999999982" r="3" fill="#2563eb"></circle><circle class="dot" cx="433.94594594594594" cy="127.49999999999982" r="3" fill="#2563eb"></circle><circle class="dot" cx="435.89189189189193" cy="127.49999999999982" r="3" fill="#2563eb"></circle><circle class="dot" cx="437.83783783783787" cy="127.49999999999982" r="3" fill="#2563eb"></circle><circle class="dot" cx="439.78378378378375" cy="127.49999999999982" r="3" fill="#2563eb"></circle><circle class="dot" cx="441.7297297297297" cy="127.49999999999982" r="3" fill="#2563eb"></circle><circle class="dot" cx="443.6756756756757" cy="127.49999999999982" r="3" fill="#2563eb"></circle><circle class="dot" cx="445.6216216216216" cy="127.49999999999982" r="3" fill="#2563eb"></circle><circle class="dot" cx="447.56756756756755" cy="127.49999999999982" r="3" fill="#2563eb"></circle><circle class="dot" cx="449.5135135135135" cy="127.49999999999982" r="3" fill="#2563eb"></circle><circle class="dot" cx="451.4594594594595" cy="127.49999999999982" r="3" fill="#2563eb"></circle><circle class="dot" cx="453.4054054054054" cy="127.49999999999982" r="3" fill="#2563eb"></circle><circle class="dot" cx="455.35135135135135" cy="127.49999999999982" r="3" fill="#2563eb"></circle><circle class="dot" cx="457.2972972972973" cy="127.49999999999982" r="3" fill="#2563eb"></circle><circle class="dot" cx="459.2432432432433" cy="127.49999999999982" r="3" fill="#2563eb"></circle><circle class="dot" cx="461.1891891891892" cy="127.49999999999982" r="3" fill="#2563eb"></circle><circle class="dot" cx="463.1351351351351" cy="127.49999999999982" r="3" fill="#2563eb"></circle><circle class="dot" cx="465.08108108108104" cy="127.49999999999982" r="3" fill="#2563eb"></circle><circle class="dot" cx="467.02702702702703" cy="127.49999999999982" r="3" fill="#2563eb"></circle><circle class="dot" cx="468.97297297297297" cy="127.49999999999982" r="3" fill="#2563eb"></circle><circle class="dot" cx="470.9189189189189" cy="127.49999999999982" r="3" fill="#2563eb"></circle><circle class="dot" cx="472.86486486486484" cy="127.49999999999982" r="3" fill="#2563eb"></circle><circle class="dot" cx="474.81081081081084" cy="127.49999999999982" r="3" fill="#2563eb"></circle><circle class="dot" cx="476.7567567567568" cy="127.49999999999982" r="3" fill="#2563eb"></circle><circle class="dot" cx="478.7027027027027" cy="127.49999999999982" r="3" fill="#2563eb"></circle><circle class="dot" cx="480.6486486486486" cy="127.49999999999982" r="3" fill="#2563eb"></circle><circle class="dot" cx="482.59459459459464" cy="127.49999999999982" r="3" fill="#2563eb"></circle><circle class="dot" cx="484.5405405405405" cy="127.49999999999982" r="3" fill="#2563eb"></circle><circle class="dot" cx="486.48648648648646" cy="127.49999999999982" r="3" fill="#2563eb"></circle><circle class="dot" cx="488.4324324324324" cy="127.49999999999982" r="3" fill="#2563eb"></circle><circle class="dot" cx="490.3783783783784" cy="127.49999999999982" r="3" fill="#2563eb"></circle><circle class="dot" cx="492.3243243243243" cy="127.49999999999982" r="3" fill="#2563eb"></circle><circle class="dot" cx="494.27027027027026" cy="127.49999999999982" r="3" fill="#2563eb"></circle><circle class="dot" cx="496.2162162162162" cy="127.49999999999982" r="3" fill="#2563eb"></circle><circle class="dot" cx="498.1621621621622" cy="127.49999999999982" r="3" fill="#2563eb"></circle><circle class="dot" cx="500.1081081081081" cy="127.49999999999982" r="3" fill="#2563eb"></circle><circle class="dot" cx="502.05405405405406" cy="127.49999999999982" r="3" fill="#2563eb"></circle><circle class="dot" cx="503.99999999999994" cy="127.49999999999982" r="3" fill="#2563eb"></circle><circle class="dot" cx="505.945945945946" cy="127.49999999999982" r="3" fill="#2563eb"></circle><circle class="dot" cx="507.8918918918919" cy="127.49999999999982" r="3" fill="#2563eb"></circle><circle class="dot" cx="509.8378378378378" cy="127.49999999999982" r="3" fill="#2563eb"></circle><circle class="dot" cx="511.78378378378375" cy="127.49999999999982" r="3" fill="#2563eb"></circle><circle class="dot" cx="513.7297297297298" cy="127.49999999999982" r="3" fill="#2563eb"></circle><circle class="dot" cx="515.6756756756757" cy="127.49999999999982" r="3" fill="#2563eb"></circle><circle class="dot" cx="517.6216216216216" cy="127.49999999999982" r="3" fill="#2563eb"></circle><circle class="dot" cx="519.5675675675675" cy="127.49999999999982" r="3" fill="#2563eb"></circle><circle class="dot" cx="521.5135135135135" cy="340" r="3" fill="#2563eb"></circle><circle class="dot" cx="523.4594594594595" cy="340" r="3" fill="#2563eb"></circle><circle class="dot" cx="525.4054054054054" cy="340" r="3" fill="#2563eb"></circle><circle class="dot" cx="527.3513513513514" cy="340" r="3" fill="#2563eb"></circle><circle class="dot" cx="529.2972972972973" cy="340" r="3" fill="#2563eb"></circle><circle class="dot" cx="531.2432432432432" cy="340" r="3" fill="#2563eb"></circle><circle class="dot" cx="533.1891891891892" cy="340" r="3" fill="#2563eb"></circle><circle class="dot" cx="535.1351351351351" cy="340" r="3" fill="#2563eb"></circle><circle class="dot" cx="537.0810810810812" cy="340" r="3" fill="#2563eb"></circle><circle class="dot" cx="539.0270270270271" cy="340" r="3" fill="#2563eb"></circle><circle class="dot" cx="540.9729729729729" cy="340" r="3" fill="#2563eb"></circle><circle class="dot" cx="542.9189189189188" cy="340" r="3" fill="#2563eb"></circle><circle class="dot" cx="544.8648648648649" cy="340" r="3" fill="#2563eb"></circle><circle class="dot" cx="546.8108108108108" cy="340" r="3" fill="#2563eb"></circle><circle class="dot" cx="548.7567567567568" cy="340" r="3" fill="#2563eb"></circle><circle class="dot" cx="550.7027027027027" cy="340" r="3" fill="#2563eb"></circle><circle class="dot" cx="552.6486486486486" cy="340" r="3" fill="#2563eb"></circle><circle class="dot" cx="554.5945945945946" cy="340" r="3" fill="#2563eb"></circle><circle class="dot" cx="556.5405405405405" cy="340" r="3" fill="#2563eb"></circle><circle class="dot" cx="558.4864864864865" cy="340" r="3" fill="#2563eb"></circle><circle class="dot" cx="560.4324324324325" cy="340" r="3" fill="#2563eb"></circle><circle class="dot" cx="562.3783783783784" cy="340" r="3" fill="#2563eb"></circle><circle class="dot" cx="564.3243243243243" cy="340" r="3" fill="#2563eb"></circle><circle class="dot" cx="566.2702702702702" cy="340" r="3" fill="#2563eb"></circle><circle class="dot" cx="568.2162162162163" cy="340" r="3" fill="#2563eb"></circle><circle class="dot" cx="570.1621621621622" cy="340" r="3" fill="#2563eb"></circle><circle class="dot" cx="572.1081081081081" cy="340" r="3" fill="#2563eb"></circle><circle class="dot" cx="574.0540540540541" cy="340" r="3" fill="#2563eb"></circle><circle class="dot" cx="576" cy="340" r="3" fill="#2563eb"></circle><circle class="dot" cx="577.9459459459459" cy="340" r="3" fill="#2563eb"></circle><circle class="dot" cx="579.8918918918919" cy="340" r="3" fill="#2563eb"></circle><circle class="dot" cx="581.8378378378378" cy="340" r="3" fill="#2563eb"></circle><circle class="dot" cx="583.7837837837839" cy="340" r="3" fill="#2563eb"></circle><circle class="dot" cx="585.7297297297298" cy="340" r="3" fill="#2563eb"></circle><circle class="dot" cx="587.6756756756756" cy="340" r="3" fill="#2563eb"></circle><circle class="dot" cx="589.6216216216216" cy="340" r="3" fill="#2563eb"></circle><circle class="dot" cx="591.5675675675676" cy="340" r="3" fill="#2563eb"></circle><circle class="dot" cx="593.5135135135135" cy="340" r="3" fill="#2563eb"></circle><circle class="dot" cx="595.4594594594595" cy="340" r="3" fill="#2563eb"></circle><circle class="dot" cx="597.4054054054054" cy="340" r="3" fill="#2563eb"></circle><circle class="dot" cx="599.3513513513514" cy="340" r="3" fill="#2563eb"></circle><circle class="dot" cx="601.2972972972973" cy="340" r="3" fill="#2563eb"></circle><circle class="dot" cx="603.2432432432432" cy="340" r="3" fill="#2563eb"></circle><circle class="dot" cx="605.1891891891892" cy="340" r="3" fill="#2563eb"></circle><circle class="dot" cx="607.1351351351352" cy="340" r="3" fill="#2563eb"></circle><circle class="dot" cx="609.081081081081" cy="340" r="3" fill="#2563eb"></circle><circle class="dot" cx="611.027027027027" cy="340" r="3" fill="#2563eb"></circle><circle class="dot" cx="612.9729729729729" cy="340" r="3" fill="#2563eb"></circle><circle class="dot" cx="614.918918918919" cy="340" r="3" fill="#2563eb"></circle><circle class="dot" cx="616.8648648648649" cy="340" r="3" fill="#2563eb"></circle><circle class="dot" cx="618.8108108108108" cy="340" r="3" fill="#2563eb"></circle><circle class="dot" cx="620.7567567567568" cy="340" r="3" fill="#2563eb"></circle><circle class="dot" cx="622.7027027027027" cy="340" r="3" fill="#2563eb"></circle><circle class="dot" cx="624.6486486486486" cy="340" r="3" fill="#2563eb"></circle><circle class="dot" cx="626.5945945945946" cy="340" r="3" fill="#2563eb"></circle><circle class="dot" cx="628.5405405405405" cy="340" r="3" fill="#2563eb"></circle><circle class="dot" cx="630.4864864864866" cy="340" r="3" fill="#2563eb"></circle><circle class="dot" cx="632.4324324324324" cy="340" r="3" fill="#2563eb"></circle><circle class="dot" cx="634.3783783783783" cy="340" r="3" fill="#2563eb"></circle><circle class="dot" cx="636.3243243243243" cy="340" r="3" fill="#2563eb"></circle><circle class="dot" cx="638.2702702702703" cy="340" r="3" fill="#2563eb"></circle><circle class="dot" cx="640.2162162162163" cy="340" r="3" fill="#2563eb"></circle><circle class="dot" cx="642.1621621621622" cy="340" r="3" fill="#2563eb"></circle><circle class="dot" cx="644.1081081081081" cy="340" r="3" fill="#2563eb"></circle><circle class="dot" cx="646.0540540540541" cy="340" r="3" fill="#2563eb"></circle><circle class="dot" cx="648" cy="340" r="3" fill="#2563eb"></circle><circle class="dot" cx="649.9459459459459" cy="340" r="3" fill="#2563eb"></circle><circle class="dot" cx="651.8918918918919" cy="340" r="3" fill="#2563eb"></circle><circle class="dot" cx="653.8378378378379" cy="340" r="3" fill="#2563eb"></circle><circle class="dot" cx="655.7837837837837" cy="340" r="3" fill="#2563eb"></circle><circle class="dot" cx="657.7297297297297" cy="340" r="3" fill="#2563eb"></circle><circle class="dot" cx="659.6756756756756" cy="340" r="3" fill="#2563eb"></circle><circle class="dot" cx="661.6216216216217" cy="340" r="3" fill="#2563eb"></circle><circle class="dot" cx="663.5675675675676" cy="340" r="3" fill="#2563eb"></circle><circle class="dot" cx="665.5135135135135" cy="340" r="3" fill="#2563eb"></circle><circle class="dot" cx="667.4594594594595" cy="340" r="3" fill="#2563eb"></circle><circle class="dot" cx="669.4054054054054" cy="340" r="3" fill="#2563eb"></circle><circle class="dot" cx="671.3513513513514" cy="340" r="3" fill="#2563eb"></circle><circle class="dot" cx="673.2972972972973" cy="340" r="3" fill="#2563eb"></circle><circle class="dot" cx="675.2432432432432" cy="340" r="3" fill="#2563eb"></circle><circle class="dot" cx="677.1891891891893" cy="340" r="3" fill="#2563eb"></circle><circle class="dot" cx="679.1351351351351" cy="340" r="3" fill="#2563eb"></circle><circle class="dot" cx="681.081081081081" cy="340" r="3" fill="#2563eb"></circle><circle class="dot" cx="683.027027027027" cy="340" r="3" fill="#2563eb"></circle><circle class="dot" cx="684.972972972973" cy="340" r="3" fill="#2563eb"></circle><circle class="dot" cx="686.918918918919" cy="340" r="3" fill="#2563eb"></circle><circle class="dot" cx="688.8648648648649" cy="340" r="3" fill="#2563eb"></circle><circle class="dot" cx="690.8108108108108" cy="340" r="3" fill="#2563eb"></circle><circle class="dot" cx="692.7567567567568" cy="340" r="3" fill="#2563eb"></circle><circle class="dot" cx="694.7027027027027" cy="340" r="3" fill="#2563eb"></circle><circle class="dot" cx="696.6486486486486" cy="340" r="3" fill="#2563eb"></circle><circle class="dot" cx="698.5945945945946" cy="340" r="3" fill="#2563eb"></circle><circle class="dot" cx="700.5405405405406" cy="340" r="3" fill="#2563eb"></circle><circle class="dot" cx="702.4864864864865" cy="340" r="3" fill="#2563eb"></circle><circle class="dot" cx="704.4324324324324" cy="340" r="3" fill="#2563eb"></circle><circle class="dot" cx="706.3783783783783" cy="340" r="3" fill="#2563eb"></circle><circle class="dot" cx="708.3243243243244" cy="340" r="3" fill="#2563eb"></circle><circle class="dot" cx="710.2702702702703" cy="340" r="3" fill="#2563eb"></circle><circle class="dot" cx="712.2162162162163" cy="340" r="3" fill="#2563eb"></circle><circle class="dot" cx="714.1621621621622" cy="340" r="3" fill="#2563eb"></circle><circle class="dot" cx="716.1081081081081" cy="340" r="3" fill="#2563eb"></circle><circle class="dot" cx="718.0540540540541" cy="340" r="3" fill="#2563eb"></circle><circle class="dot" cx="720" cy="340" r="3" fill="#2563eb"></circle><g class="grid" transform="translate(0,340)" fill="none" font-size="10" font-family="sans-serif" text-anchor="middle" style="stroke-dasharray: 3,3; opacity: 0.3;"><path class="domain" stroke="currentColor" d="M0.5,-340V0.5H720.5V-340"></path><g class="tick" opacity="1" transform="translate(0.5,0)"><line stroke="currentColor" y2="-340"></line><text fill="currentColor" y="3" dy="0.71em"></text></g><g class="tick" opacity="1" transform="translate(47.20270270270271,0)"><line stroke="currentColor" y2="-340"></line><text fill="currentColor" y="3" dy="0.71em"></text></g><g class="tick" opacity="1" transform="translate(93.90540540540542,0)"><line stroke="currentColor" y2="-340"></line><text fill="currentColor" y="3" dy="0.71em"></text></g><g class="tick" opacity="1" transform="translate(140.60810810810813,0)"><line stroke="currentColor" y2="-340"></line><text fill="currentColor" y="3" dy="0.71em"></text></g><g class="tick" opacity="1" transform="translate(187.31081081081084,0)"><line stroke="currentColor" y2="-340"></line><text fill="currentColor" y="3" dy="0.71em"></text></g><g class="tick" opacity="1" transform="translate(234.01351351351352,0)"><line stroke="currentColor" y2="-340"></line><text fill="currentColor" y="3" dy="0.71em"></text></g><g class="tick" opacity="1" transform="translate(280.71621621621625,0)"><line stroke="currentColor" y2="-340"></line><text fill="currentColor" y="3" dy="0.71em"></text></g><g class="tick" opacity="1" transform="translate(327.41891891891896,0)"><line stroke="currentColor" y2="-340"></line><text fill="currentColor" y="3" dy="0.71em"></text></g><g class="tick" opacity="1" transform="translate(374.12162162162167,0)"><line stroke="currentColor" y2="-340"></line><text fill="currentColor" y="3" dy="0.71em"></text></g><g class="tick" opacity="1" transform="translate(420.8243243243243,0)"><line stroke="currentColor" y2="-340"></line><text fill="currentColor" y="3" dy="0.71em"></text></g><g class="tick" opacity="1" transform="translate(467.52702702702703,0)"><line stroke="currentColor" y2="-340"></line><text fill="currentColor" y="3" dy="0.71em"></text></g><g class="tick" opacity="1" transform="translate(514.2297297297298,0)"><line stroke="currentColor" y2="-340"></line><text fill="currentColor" y="3" dy="0.71em"></text></g><g class="tick" opacity="1" transform="translate(560.9324324324325,0)"><line stroke="currentColor" y2="-340"></line><text fill="currentColor" y="3" dy="0.71em"></text></g><g class="tick" opacity="1" transform="translate(607.6351351351352,0)"><line stroke="currentColor" y2="-340"></line><text fill="currentColor" y="3" dy="0.71em"></text></g><g class="tick" opacity="1" transform="translate(654.3378378378379,0)"><line stroke="currentColor" y2="-340"></line><text fill="currentColor" y="3" dy="0.71em"></text></g><g class="tick" opacity="1" transform="translate(701.0405405405406,0)"><line stroke="currentColor" y2="-340"></line><text fill="currentColor" y="3" dy="0.71em"></text></g></g><g class="grid" fill="none" font-size="10" font-family="sans-serif" text-anchor="end" style="stroke-dasharray: 3,3; opacity: 0.3;"><path class="domain" stroke="currentColor" d="M720,340.5H0.5V0.5H720"></path><g class="tick" opacity="1" transform="translate(0,340.5)"><line stroke="currentColor" x2="720"></line><text fill="currentColor" x="-3" dy="0.32em"></text></g><g class="tick" opacity="1" transform="translate(0,297.99999999999994)"><line stroke="currentColor" x2="720"></line><text fill="currentColor" x="-3" dy="0.32em"></text></g><g class="tick" opacity="1" transform="translate(0,255.49999999999991)"><line stroke="currentColor" x2="720"></line><text fill="currentColor" x="-3" dy="0.32em"></text></g><g class="tick" opacity="1" transform="translate(0,212.9999999999999)"><line stroke="currentColor" x2="720"></line><text fill="currentColor" x="-3" dy="0.32em"></text></g><g class="tick" opacity="1" transform="translate(0,170.49999999999986)"><line stroke="currentColor" x2="720"></line><text fill="currentColor" x="-3" dy="0.32em"></text></g><g class="tick" opacity="1" transform="translate(0,127.99999999999982)"><line stroke="currentColor" x2="720"></line><text fill="currentColor" x="-3" dy="0.32em"></text></g><g class="tick" opacity="1" transform="translate(0,85.50000000000007)"><line stroke="currentColor" x2="720"></line><text fill="currentColor" x="-3" dy="0.32em"></text></g><g class="tick" opacity="1" transform="translate(0,43.000000000000036)"><line stroke="currentColor" x2="720"></line><text fill="currentColor" x="-3" dy="0.32em"></text></g><g class="tick" opacity="1" transform="translate(0,0.5)"><line stroke="currentColor" x2="720"></line><text fill="currentColor" x="-3" dy="0.32em"></text></g></g></g><text x="400" y="10" text-anchor="middle" style="font-size: 16px; font-weight: bold; fill: #333;">OKX USDT Lending Rate - Current Month</text></svg>