<svg width="800" height="400" xmlns="http://www.w3.org/2000/svg"><g transform="translate(50,20)"><g transform="translate(0,340)" fill="none" font-size="10" font-family="sans-serif" text-anchor="middle"><path class="domain" stroke="currentColor" d="M0.5,6V0.5H720.5V6"></path><g class="tick" opacity="1" transform="translate(0.5,0)"><line stroke="currentColor" y2="6"></line><text fill="currentColor" y="9" dy=".15em" style="text-anchor: end;" dx="-.8em" transform="rotate(-45)">09/01</text></g><g class="tick" opacity="1" transform="translate(39.244394618834086,0)"><line stroke="currentColor" y2="6"></line><text fill="currentColor" y="9" dy=".15em" style="text-anchor: end;" dx="-.8em" transform="rotate(-45)">09/02</text></g><g class="tick" opacity="1" transform="translate(77.98878923766817,0)"><line stroke="currentColor" y2="6"></line><text fill="currentColor" y="9" dy=".15em" style="text-anchor: end;" dx="-.8em" transform="rotate(-45)">09/03</text></g><g class="tick" opacity="1" transform="translate(116.73318385650224,0)"><line stroke="currentColor" y2="6"></line><text fill="currentColor" y="9" dy=".15em" style="text-anchor: end;" dx="-.8em" transform="rotate(-45)">09/04</text></g><g class="tick" opacity="1" transform="translate(155.47757847533634,0)"><line stroke="currentColor" y2="6"></line><text fill="currentColor" y="9" dy=".15em" style="text-anchor: end;" dx="-.8em" transform="rotate(-45)">09/05</text></g><g class="tick" opacity="1" transform="translate(194.2219730941704,0)"><line stroke="currentColor" y2="6"></line><text fill="currentColor" y="9" dy=".15em" style="text-anchor: end;" dx="-.8em" transform="rotate(-45)">09/06</text></g><g class="tick" opacity="1" transform="translate(232.96636771300447,0)"><line stroke="currentColor" y2="6"></line><text fill="currentColor" y="9" dy=".15em" style="text-anchor: end;" dx="-.8em" transform="rotate(-45)">09/07</text></g><g class="tick" opacity="1" transform="translate(271.71076233183857,0)"><line stroke="currentColor" y2="6"></line><text fill="currentColor" y="9" dy=".15em" style="text-anchor: end;" dx="-.8em" transform="rotate(-45)">09/08</text></g><g class="tick" opacity="1" transform="translate(310.4551569506727,0)"><line stroke="currentColor" y2="6"></line><text fill="currentColor" y="9" dy=".15em" style="text-anchor: end;" dx="-.8em" transform="rotate(-45)">09/09</text></g><g class="tick" opacity="1" transform="translate(349.19955156950675,0)"><line stroke="currentColor" y2="6"></line><text fill="currentColor" y="9" dy=".15em" style="text-anchor: end;" dx="-.8em" transform="rotate(-45)">09/10</text></g><g class="tick" opacity="1" transform="translate(387.9439461883408,0)"><line stroke="currentColor" y2="6"></line><text fill="currentColor" y="9" dy=".15em" style="text-anchor: end;" dx="-.8em" transform="rotate(-45)">09/11</text></g><g class="tick" opacity="1" transform="translate(426.68834080717494,0)"><line stroke="currentColor" y2="6"></line><text fill="currentColor" y="9" dy=".15em" style="text-anchor: end;" dx="-.8em" transform="rotate(-45)">09/12</text></g><g class="tick" opacity="1" transform="translate(465.43273542600895,0)"><line stroke="currentColor" y2="6"></line><text fill="currentColor" y="9" dy=".15em" style="text-anchor: end;" dx="-.8em" transform="rotate(-45)">09/13</text></g><g class="tick" opacity="1" transform="translate(504.17713004484307,0)"><line stroke="currentColor" y2="6"></line><text fill="currentColor" y="9" dy=".15em" style="text-anchor: end;" dx="-.8em" transform="rotate(-45)">09/14</text></g><g class="tick" opacity="1" transform="translate(542.9215246636771,0)"><line stroke="currentColor" y2="6"></line><text fill="currentColor" y="9" dy=".15em" style="text-anchor: end;" dx="-.8em" transform="rotate(-45)">09/15</text></g><g class="tick" opacity="1" transform="translate(581.6659192825113,0)"><line stroke="currentColor" y2="6"></line><text fill="currentColor" y="9" dy=".15em" style="text-anchor: end;" dx="-.8em" transform="rotate(-45)">09/16</text></g><g class="tick" opacity="1" transform="translate(620.4103139013454,0)"><line stroke="currentColor" y2="6"></line><text fill="currentColor" y="9" dy=".15em" style="text-anchor: end;" dx="-.8em" transform="rotate(-45)">09/17</text></g><g class="tick" opacity="1" transform="translate(659.1547085201794,0)"><line stroke="currentColor" y2="6"></line><text fill="currentColor" y="9" dy=".15em" style="text-anchor: end;" dx="-.8em" transform="rotate(-45)">09/18</text></g><g class="tick" opacity="1" transform="translate(697.8991031390135,0)"><line stroke="currentColor" y2="6"></line><text fill="currentColor" y="9" dy=".15em" style="text-anchor: end;" dx="-.8em" transform="rotate(-45)">09/19</text></g></g><g fill="none" font-size="10" font-family="sans-serif" text-anchor="end"><path class="domain" stroke="currentColor" d="M-6,340.5H0.5V0.5H-6"></path><g class="tick" opacity="1" transform="translate(0,340.5)"><line stroke="currentColor" x2="-6"></line><text fill="currentColor" x="-9" dy="0.32em">4.00%</text></g><g class="tick" opacity="1" transform="translate(0,314.34615384615387)"><line stroke="currentColor" x2="-6"></line><text fill="currentColor" x="-9" dy="0.32em">6.00%</text></g><g class="tick" opacity="1" transform="translate(0,288.1923076923077)"><line stroke="currentColor" x2="-6"></line><text fill="currentColor" x="-9" dy="0.32em">8.00%</text></g><g class="tick" opacity="1" transform="translate(0,262.0384615384615)"><line stroke="currentColor" x2="-6"></line><text fill="currentColor" x="-9" dy="0.32em">10.00%</text></g><g class="tick" opacity="1" transform="translate(0,235.8846153846154)"><line stroke="currentColor" x2="-6"></line><text fill="currentColor" x="-9" dy="0.32em">12.00%</text></g><g class="tick" opacity="1" transform="translate(0,209.73076923076925)"><line stroke="currentColor" x2="-6"></line><text fill="currentColor" x="-9" dy="0.32em">14.00%</text></g><g class="tick" opacity="1" transform="translate(0,183.5769230769231)"><line stroke="currentColor" x2="-6"></line><text fill="currentColor" x="-9" dy="0.32em">16.00%</text></g><g class="tick" opacity="1" transform="translate(0,157.42307692307693)"><line stroke="currentColor" x2="-6"></line><text fill="currentColor" x="-9" dy="0.32em">18.00%</text></g><g class="tick" opacity="1" transform="translate(0,131.26923076923075)"><line stroke="currentColor" x2="-6"></line><text fill="currentColor" x="-9" dy="0.32em">20.00%</text></g><g class="tick" opacity="1" transform="translate(0,105.11538461538463)"><line stroke="currentColor" x2="-6"></line><text fill="currentColor" x="-9" dy="0.32em">22.00%</text></g><g class="tick" opacity="1" transform="translate(0,78.96153846153848)"><line stroke="currentColor" x2="-6"></line><text fill="currentColor" x="-9" dy="0.32em">24.00%</text></g><g class="tick" opacity="1" transform="translate(0,52.807692307692314)"><line stroke="currentColor" x2="-6"></line><text fill="currentColor" x="-9" dy="0.32em">26.00%</text></g><g class="tick" opacity="1" transform="translate(0,26.653846153846136)"><line stroke="currentColor" x2="-6"></line><text fill="currentColor" x="-9" dy="0.32em">28.00%</text></g><g class="tick" opacity="1" transform="translate(0,0.5)"><line stroke="currentColor" x2="-6"></line><text fill="currentColor" x="-9" dy="0.32em">30.00%</text></g></g><text transform="rotate(-90)" y="-50" x="-170" dy="1em" style="text-anchor: middle; font-size: 12px; fill: #666;">Pre Rate (%)</text><text transform="translate(360, 380)" style="text-anchor: middle; font-size: 12px; fill: #666;">Time (UTC)</text><path fill="none" stroke="#2563eb" stroke-width="2" d="M0,340C0.538,340,1.076,340,1.614,340C2.152,340,2.691,340,3.229,340C3.767,340,4.305,340,4.843,340C5.381,340,5.919,340,6.457,340C6.996,340,7.534,340,8.072,340C8.61,340,9.148,340,9.686,340C10.224,340,10.762,340,11.3,340C11.839,340,12.377,296.41,12.915,287.692C13.453,278.974,13.991,274.615,14.529,274.615C15.067,274.615,15.605,292.051,16.143,300.769C16.682,309.487,17.22,326.923,17.758,326.923C18.296,326.923,18.834,322.564,19.372,313.846C19.91,305.128,20.448,274.615,20.987,274.615C21.525,274.615,22.063,300.769,22.601,300.769C23.139,300.769,23.677,300.769,24.215,300.769C24.753,300.769,25.291,300.769,25.83,300.769C26.368,300.769,26.906,300.769,27.444,300.769C27.982,300.769,28.52,326.923,29.058,326.923C29.596,326.923,30.135,318.205,30.673,313.846C31.211,309.487,31.749,300.769,32.287,300.769C32.825,300.769,33.363,340,33.901,340C34.439,340,34.978,340,35.516,340C36.054,340,36.592,340,37.13,340C37.668,340,38.206,313.846,38.744,313.846C39.283,313.846,39.821,326.923,40.359,326.923C40.897,326.923,41.435,322.564,41.973,313.846C42.511,305.128,43.049,283.333,43.587,274.615C44.126,265.897,44.664,261.538,45.202,261.538C45.74,261.538,46.278,270.256,46.816,274.615C47.354,278.974,47.892,287.692,48.43,287.692C48.969,287.692,49.507,235.385,50.045,235.385C50.583,235.385,51.121,252.821,51.659,261.538C52.197,270.256,52.735,287.692,53.274,287.692C53.812,287.692,54.35,287.692,54.888,287.692C55.426,287.692,55.964,287.692,56.502,287.692C57.04,287.692,57.578,296.41,58.117,300.769C58.655,305.128,59.193,313.846,59.731,313.846C60.269,313.846,60.807,235.385,61.345,235.385C61.883,235.385,62.422,248.462,62.96,261.538C63.498,274.615,64.036,313.846,64.574,313.846C65.112,313.846,65.65,287.692,66.188,287.692C66.726,287.692,67.265,300.769,67.803,300.769C68.341,300.769,68.879,300.769,69.417,300.769C69.955,300.769,70.493,313.846,71.031,313.846C71.57,313.846,72.108,261.538,72.646,261.538C73.184,261.538,73.722,261.538,74.26,261.538C74.798,261.538,75.336,248.462,75.874,248.462C76.413,248.462,76.951,248.462,77.489,248.462C78.027,248.462,78.565,261.538,79.103,261.538C79.641,261.538,80.179,248.462,80.717,248.462C81.256,248.462,81.794,248.462,82.332,248.462C82.87,248.462,83.408,268.077,83.946,274.615C84.484,281.154,85.022,281.154,85.561,287.692C86.099,294.231,86.637,307.308,87.175,313.846C87.713,320.385,88.251,326.923,88.789,326.923C89.327,326.923,89.865,313.846,90.404,313.846C90.942,313.846,91.48,340,92.018,340C92.556,340,93.094,326.923,93.632,326.923C94.17,326.923,94.709,326.923,95.247,326.923C95.785,326.923,96.323,326.923,96.861,326.923C97.399,326.923,97.937,340,98.475,340C99.013,340,99.552,292.051,100.09,274.615C100.628,257.179,101.166,235.385,101.704,235.385C102.242,235.385,102.78,241.923,103.318,248.462C103.857,255,104.395,265.897,104.933,274.615C105.471,283.333,106.009,294.231,106.547,300.769C107.085,307.308,107.623,313.846,108.161,313.846C108.7,313.846,109.238,305.128,109.776,300.769C110.314,296.41,110.852,287.692,111.39,287.692C111.928,287.692,112.466,287.692,113.004,287.692C113.543,287.692,114.081,287.692,114.619,287.692C115.157,287.692,115.695,287.692,116.233,287.692C116.771,287.692,117.309,261.538,117.848,261.538C118.386,261.538,118.924,265.897,119.462,274.615C120,283.333,120.538,313.846,121.076,313.846C121.614,313.846,122.152,313.846,122.691,313.846C123.229,313.846,123.767,313.846,124.305,313.846C124.843,313.846,125.381,313.846,125.919,313.846C126.457,313.846,126.996,326.923,127.534,326.923C128.072,326.923,128.61,300.769,129.148,300.769C129.686,300.769,130.224,300.769,130.762,300.769C131.3,300.769,131.839,287.692,132.377,287.692C132.915,287.692,133.453,300.769,133.991,300.769C134.529,300.769,135.067,300.769,135.605,300.769C136.143,300.769,136.682,307.308,137.22,313.846C137.758,320.385,138.296,340,138.834,340C139.372,340,139.91,340,140.448,340C140.987,340,141.525,340,142.063,340C142.601,340,143.139,340,143.677,340C144.215,340,144.753,340,145.291,340C145.83,340,146.368,340,146.906,340C147.444,340,147.982,340,148.52,340C149.058,340,149.596,340,150.135,340C150.673,340,151.211,340,151.749,340C152.287,340,152.825,340,153.363,340C153.901,340,154.439,340,154.978,340C155.516,340,156.054,340,156.592,340C157.13,340,157.668,340,158.206,340C158.744,340,159.283,340,159.821,340C160.359,340,160.897,340,161.435,340C161.973,340,162.511,340,163.049,340C163.587,340,164.126,340,164.664,340C165.202,340,165.74,340,166.278,340C166.816,340,167.354,274.615,167.892,274.615C168.43,274.615,168.969,340,169.507,340C170.045,340,170.583,340,171.121,340C171.659,340,172.197,340,172.735,340C173.274,340,173.812,335.641,174.35,326.923C174.888,318.205,175.426,248.462,175.964,248.462C176.502,248.462,177.04,252.821,177.578,261.538C178.117,270.256,178.655,340,179.193,340C179.731,340,180.269,331.282,180.807,326.923C181.345,322.564,181.883,313.846,182.422,313.846C182.96,313.846,183.498,326.923,184.036,326.923C184.574,326.923,185.112,313.846,185.65,313.846C186.188,313.846,186.726,313.846,187.265,313.846C187.803,313.846,188.341,313.846,188.879,313.846C189.417,313.846,189.955,340,190.493,340C191.031,340,191.57,340,192.108,340C192.646,340,193.184,340,193.722,340C194.26,340,194.798,326.923,195.336,326.923C195.874,326.923,196.413,340,196.951,340C197.489,340,198.027,340,198.565,340C199.103,340,199.641,340,200.179,340C200.717,340,201.256,340,201.794,340C202.332,340,202.87,340,203.408,340C203.946,340,204.484,340,205.022,340C205.561,340,206.099,340,206.637,340C207.175,340,207.713,340,208.251,340C208.789,340,209.327,340,209.865,340C210.404,340,210.942,340,211.48,340C212.018,340,212.556,340,213.094,340C213.632,340,214.17,340,214.709,340C215.247,340,215.785,340,216.323,340C216.861,340,217.399,340,217.937,340C218.475,340,219.013,340,219.552,340C220.09,340,220.628,340,221.166,340C221.704,340,222.242,340,222.78,340C223.318,340,223.857,340,224.395,340C224.933,340,225.471,340,226.009,340C226.547,340,227.085,340,227.623,340C228.161,340,228.7,340,229.238,340C229.776,340,230.314,340,230.852,340C231.39,340,231.928,340,232.466,340C233.004,340,233.543,340,234.081,340C234.619,340,235.157,340,235.695,340C236.233,340,236.771,340,237.309,340C237.848,340,238.386,340,238.924,340C239.462,340,240,340,240.538,340C241.076,340,241.614,340,242.152,340C242.691,340,243.229,340,243.767,340C244.305,340,244.843,313.846,245.381,313.846C245.919,313.846,246.457,322.564,246.996,326.923C247.534,331.282,248.072,340,248.61,340C249.148,340,249.686,331.282,250.224,326.923C250.762,322.564,251.3,313.846,251.839,313.846C252.377,313.846,252.915,313.846,253.453,313.846C253.991,313.846,254.529,307.308,255.067,300.769C255.605,294.231,256.143,274.615,256.682,274.615C257.22,274.615,257.758,274.615,258.296,274.615C258.834,274.615,259.372,283.333,259.91,287.692C260.448,292.051,260.987,300.769,261.525,300.769C262.063,300.769,262.601,300.769,263.139,300.769C263.677,300.769,264.215,287.692,264.753,287.692C265.291,287.692,265.83,300.769,266.368,300.769C266.906,300.769,267.444,300.769,267.982,300.769C268.52,300.769,269.058,274.615,269.596,274.615C270.135,274.615,270.673,274.615,271.211,274.615C271.749,274.615,272.287,261.538,272.825,261.538C273.363,261.538,273.901,261.538,274.439,261.538C274.978,261.538,275.516,248.462,276.054,248.462C276.592,248.462,277.13,257.179,277.668,261.538C278.206,265.897,278.744,274.615,279.283,274.615C279.821,274.615,280.359,274.615,280.897,274.615C281.435,274.615,281.973,287.692,282.511,287.692C283.049,287.692,283.587,287.692,284.126,287.692C284.664,287.692,285.202,281.154,285.74,274.615C286.278,268.077,286.816,255,287.354,248.462C287.892,241.923,288.43,235.385,288.969,235.385C289.507,235.385,290.045,235.385,290.583,235.385C291.121,235.385,291.659,235.385,292.197,235.385C292.735,235.385,293.274,248.462,293.812,248.462C294.35,248.462,294.888,231.026,295.426,222.308C295.964,213.59,296.502,196.154,297.04,196.154C297.578,196.154,298.117,202.692,298.655,209.231C299.193,215.769,299.731,235.385,300.269,235.385C300.807,235.385,301.345,209.231,301.883,209.231C302.422,209.231,302.96,248.462,303.498,248.462C304.036,248.462,304.574,248.462,305.112,248.462C305.65,248.462,306.188,222.308,306.726,222.308C307.265,222.308,307.803,231.026,308.341,235.385C308.879,239.744,309.417,248.462,309.955,248.462C310.493,248.462,311.031,248.462,311.57,248.462C312.108,248.462,312.646,196.154,313.184,196.154C313.722,196.154,314.26,196.154,314.798,196.154C315.336,196.154,315.874,183.077,316.413,183.077C316.951,183.077,317.489,248.462,318.027,248.462C318.565,248.462,319.103,248.462,319.641,248.462C320.179,248.462,320.717,204.872,321.256,196.154C321.794,187.436,322.332,183.077,322.87,183.077C323.408,183.077,323.946,183.077,324.484,183.077C325.022,183.077,325.561,183.077,326.099,183.077C326.637,183.077,327.175,191.795,327.713,196.154C328.251,200.513,328.789,209.231,329.327,209.231C329.865,209.231,330.404,200.513,330.942,196.154C331.48,191.795,332.018,183.077,332.556,183.077C333.094,183.077,333.632,224.487,334.17,248.462C334.709,272.436,335.247,326.923,335.785,326.923C336.323,326.923,336.861,326.923,337.399,326.923C337.937,326.923,338.475,318.205,339.013,313.846C339.552,309.487,340.09,305.128,340.628,300.769C341.166,296.41,341.704,287.692,342.242,287.692C342.78,287.692,343.318,287.692,343.857,287.692C344.395,287.692,344.933,300.769,345.471,300.769C346.009,300.769,346.547,287.692,347.085,287.692C347.623,287.692,348.161,287.692,348.7,287.692C349.238,287.692,349.776,313.846,350.314,313.846C350.852,313.846,351.39,307.308,351.928,300.769C352.466,294.231,353.004,274.615,353.543,274.615C354.081,274.615,354.619,274.615,355.157,274.615C355.695,274.615,356.233,283.333,356.771,287.692C357.309,292.051,357.848,300.769,358.386,300.769C358.924,300.769,359.462,239.744,360,222.308C360.538,204.872,361.076,196.154,361.614,196.154C362.152,196.154,362.691,222.308,363.229,222.308C363.767,222.308,364.305,222.308,364.843,222.308C365.381,222.308,365.919,226.667,366.457,235.385C366.996,244.103,367.534,326.923,368.072,326.923C368.61,326.923,369.148,292.051,369.686,274.615C370.224,257.179,370.762,222.308,371.3,222.308C371.839,222.308,372.377,237.564,372.915,248.462C373.453,259.359,373.991,278.974,374.529,287.692C375.067,296.41,375.605,296.41,376.143,300.769C376.682,305.128,377.22,307.308,377.758,313.846C378.296,320.385,378.834,340,379.372,340C379.91,340,380.448,340,380.987,340C381.525,340,382.063,340,382.601,340C383.139,340,383.677,340,384.215,340C384.753,340,385.291,340,385.83,340C386.368,340,386.906,340,387.444,340C387.982,340,388.52,340,389.058,340C389.596,340,390.135,340,390.673,340C391.211,340,391.749,340,392.287,340C392.825,340,393.363,326.923,393.901,326.923C394.439,326.923,394.978,326.923,395.516,326.923C396.054,326.923,396.592,326.923,397.13,326.923C397.668,326.923,398.206,313.846,398.744,313.846C399.283,313.846,399.821,313.846,400.359,313.846C400.897,313.846,401.435,340,401.973,340C402.511,340,403.049,340,403.587,340C404.126,340,404.664,326.923,405.202,326.923C405.74,326.923,406.278,326.923,406.816,326.923C407.354,326.923,407.892,296.41,408.43,287.692C408.969,278.974,409.507,274.615,410.045,274.615C410.583,274.615,411.121,281.154,411.659,287.692C412.197,294.231,412.735,313.846,413.274,313.846C413.812,313.846,414.35,313.846,414.888,313.846C415.426,313.846,415.964,340,416.502,340C417.04,340,417.578,340,418.117,340C418.655,340,419.193,340,419.731,340C420.269,340,420.807,340,421.345,340C421.883,340,422.422,340,422.96,340C423.498,340,424.036,333.462,424.574,326.923C425.112,320.385,425.65,316.026,426.188,300.769C426.726,285.513,427.265,235.385,427.803,235.385C428.341,235.385,428.879,261.538,429.417,261.538C429.955,261.538,430.493,248.462,431.031,248.462C431.57,248.462,432.108,248.462,432.646,248.462C433.184,248.462,433.722,244.103,434.26,235.385C434.798,226.667,435.336,213.59,435.874,196.154C436.413,178.718,436.951,130.769,437.489,130.769C438.027,130.769,438.565,148.205,439.103,156.923C439.641,165.641,440.179,170,440.717,183.077C441.256,196.154,441.794,235.385,442.332,235.385C442.87,235.385,443.408,235.385,443.946,235.385C444.484,235.385,445.022,235.385,445.561,235.385C446.099,235.385,446.637,235.385,447.175,235.385C447.713,235.385,448.251,235.385,448.789,235.385C449.327,235.385,449.865,222.308,450.404,222.308C450.942,222.308,451.48,248.462,452.018,248.462C452.556,248.462,453.094,241.923,453.632,235.385C454.17,228.846,454.709,217.949,455.247,209.231C455.785,200.513,456.323,196.154,456.861,183.077C457.399,170,457.937,130.769,458.475,130.769C459.013,130.769,459.552,130.769,460.09,130.769C460.628,130.769,461.166,156.923,461.704,156.923C462.242,156.923,462.78,100.256,463.318,91.538C463.857,82.821,464.395,78.462,464.933,78.462C465.471,78.462,466.009,78.462,466.547,78.462C467.085,78.462,467.623,104.615,468.161,104.615C468.7,104.615,469.238,100.256,469.776,91.538C470.314,82.821,470.852,52.308,471.39,52.308C471.928,52.308,472.466,52.308,473.004,52.308C473.543,52.308,474.081,65.385,474.619,65.385C475.157,65.385,475.695,65.385,476.233,65.385C476.771,65.385,477.309,56.667,477.848,52.308C478.386,47.949,478.924,45.769,479.462,39.231C480,32.692,480.538,13.077,481.076,13.077C481.614,13.077,482.152,54.487,482.691,78.462C483.229,102.436,483.767,113.333,484.305,156.923C484.843,200.513,485.381,340,485.919,340C486.457,340,486.996,340,487.534,340C488.072,340,488.61,340,489.148,340C489.686,340,490.224,340,490.762,340C491.3,340,491.839,340,492.377,340C492.915,340,493.453,340,493.991,340C494.529,340,495.067,340,495.605,340C496.143,340,496.682,340,497.22,340C497.758,340,498.296,340,498.834,340C499.372,340,499.91,340,500.448,340C500.987,340,501.525,340,502.063,340C502.601,340,503.139,313.846,503.677,313.846C504.215,313.846,504.753,313.846,505.291,313.846C505.83,313.846,506.368,289.872,506.906,274.615C507.444,259.359,507.982,222.308,508.52,222.308C509.058,222.308,509.596,287.692,510.135,287.692C510.673,287.692,511.211,283.333,511.749,274.615C512.287,265.897,512.825,222.308,513.363,222.308C513.901,222.308,514.439,248.462,514.978,248.462C515.516,248.462,516.054,248.462,516.592,248.462C517.13,248.462,517.668,248.462,518.206,248.462C518.744,248.462,519.283,235.385,519.821,235.385C520.359,235.385,520.897,239.744,521.435,248.462C521.973,257.179,522.511,326.923,523.049,326.923C523.587,326.923,524.126,326.923,524.664,326.923C525.202,326.923,525.74,340,526.278,340C526.816,340,527.354,340,527.892,340C528.43,340,528.969,340,529.507,340C530.045,340,530.583,307.308,531.121,287.692C531.659,268.077,532.197,222.308,532.735,222.308C533.274,222.308,533.812,261.538,534.35,274.615C534.888,287.692,535.426,300.769,535.964,300.769C536.502,300.769,537.04,294.231,537.578,287.692C538.117,281.154,538.655,261.538,539.193,261.538C539.731,261.538,540.269,274.615,540.807,287.692C541.345,300.769,541.883,340,542.422,340C542.96,340,543.498,331.282,544.036,326.923C544.574,322.564,545.112,313.846,545.65,313.846C546.188,313.846,546.726,340,547.265,340C547.803,340,548.341,340,548.879,340C549.417,340,549.955,340,550.493,340C551.031,340,551.57,340,552.108,340C552.646,340,553.184,340,553.722,340C554.26,340,554.798,340,555.336,340C555.874,340,556.413,340,556.951,340C557.489,340,558.027,340,558.565,340C559.103,340,559.641,340,560.179,340C560.717,340,561.256,340,561.794,340C562.332,340,562.87,340,563.408,340C563.946,340,564.484,340,565.022,340C565.561,340,566.099,340,566.637,340C567.175,340,567.713,340,568.251,340C568.789,340,569.327,340,569.865,340C570.404,340,570.942,340,571.48,340C572.018,340,572.556,340,573.094,340C573.632,340,574.17,340,574.709,340C575.247,340,575.785,340,576.323,340C576.861,340,577.399,340,577.937,340C578.475,340,579.013,340,579.552,340C580.09,340,580.628,340,581.166,340C581.704,340,582.242,340,582.78,340C583.318,340,583.857,340,584.395,340C584.933,340,585.471,340,586.009,340C586.547,340,587.085,340,587.623,340C588.161,340,588.7,340,589.238,340C589.776,340,590.314,340,590.852,340C591.39,340,591.928,340,592.466,340C593.004,340,593.543,340,594.081,340C594.619,340,595.157,340,595.695,340C596.233,340,596.771,340,597.309,340C597.848,340,598.386,340,598.924,340C599.462,340,600,340,600.538,340C601.076,340,601.614,340,602.152,340C602.691,340,603.229,340,603.767,340C604.305,340,604.843,340,605.381,340C605.919,340,606.457,340,606.996,340C607.534,340,608.072,340,608.61,340C609.148,340,609.686,340,610.224,340C610.762,340,611.3,340,611.839,340C612.377,340,612.915,340,613.453,340C613.991,340,614.529,340,615.067,340C615.605,340,616.143,340,616.682,340C617.22,340,617.758,340,618.296,340C618.834,340,619.372,340,619.91,340C620.448,340,620.987,340,621.525,340C622.063,340,622.601,340,623.139,340C623.677,340,624.215,340,624.753,340C625.291,340,625.83,340,626.368,340C626.906,340,627.444,340,627.982,340C628.52,340,629.058,340,629.596,340C630.135,340,630.673,340,631.211,340C631.749,340,632.287,340,632.825,340C633.363,340,633.901,340,634.439,340C634.978,340,635.516,340,636.054,340C636.592,340,637.13,340,637.668,340C638.206,340,638.744,340,639.283,340C639.821,340,640.359,340,640.897,340C641.435,340,641.973,340,642.511,340C643.049,340,643.587,340,644.126,340C644.664,340,645.202,340,645.74,340C646.278,340,646.816,340,647.354,340C647.892,340,648.43,340,648.969,340C649.507,340,650.045,340,650.583,340C651.121,340,651.659,340,652.197,340C652.735,340,653.274,340,653.812,340C654.35,340,654.888,340,655.426,340C655.964,340,656.502,340,657.04,340C657.578,340,658.117,340,658.655,340C659.193,340,659.731,340,660.269,340C660.807,340,661.345,340,661.883,340C662.422,340,662.96,340,663.498,340C664.036,340,664.574,340,665.112,340C665.65,340,666.188,340,666.726,340C667.265,340,667.803,340,668.341,340C668.879,340,669.417,340,669.955,340C670.493,340,671.031,340,671.57,340C672.108,340,672.646,340,673.184,340C673.722,340,674.26,340,674.798,340C675.336,340,675.874,340,676.413,340C676.951,340,677.489,340,678.027,340C678.565,340,679.103,340,679.641,340C680.179,340,680.717,340,681.256,340C681.794,340,682.332,326.923,682.87,326.923C683.408,326.923,683.946,326.923,684.484,326.923C685.022,326.923,685.561,326.923,686.099,326.923C686.637,326.923,687.175,326.923,687.713,326.923C688.251,326.923,688.789,326.923,689.327,326.923C689.865,326.923,690.404,326.923,690.942,326.923C691.48,326.923,692.018,326.923,692.556,326.923C693.094,326.923,693.632,326.923,694.17,326.923C694.709,326.923,695.247,326.923,695.785,326.923C696.323,326.923,696.861,326.923,697.399,326.923C697.937,326.923,698.475,326.923,699.013,326.923C699.552,326.923,700.09,326.923,700.628,326.923C701.166,326.923,701.704,326.923,702.242,326.923C702.78,326.923,703.318,326.923,703.857,326.923C704.395,326.923,704.933,326.923,705.471,326.923C706.009,326.923,706.547,326.923,707.085,326.923C707.623,326.923,708.161,326.923,708.7,326.923C709.238,326.923,709.776,326.923,710.314,326.923C710.852,326.923,711.39,326.923,711.928,326.923C712.466,326.923,713.004,326.923,713.543,326.923C714.081,326.923,714.619,326.923,715.157,326.923C715.695,326.923,716.233,326.923,716.771,326.923C717.309,326.923,717.848,326.923,718.386,326.923C718.924,326.923,719.462,326.923,720,326.923"></path><circle class="dot" cx="0" cy="340" r="3" fill="#2563eb"></circle><circle class="dot" cx="1.6143497757847534" cy="340" r="3" fill="#2563eb"></circle><circle class="dot" cx="3.2286995515695067" cy="340" r="3" fill="#2563eb"></circle><circle class="dot" cx="4.843049327354261" cy="340" r="3" fill="#2563eb"></circle><circle class="dot" cx="6.457399103139013" cy="340" r="3" fill="#2563eb"></circle><circle class="dot" cx="8.071748878923767" cy="340" r="3" fill="#2563eb"></circle><circle class="dot" cx="9.686098654708521" cy="340" r="3" fill="#2563eb"></circle><circle class="dot" cx="11.300448430493274" cy="340" r="3" fill="#2563eb"></circle><circle class="dot" cx="12.914798206278027" cy="287.6923076923077" r="3" fill="#2563eb"></circle><circle class="dot" cx="14.52914798206278" cy="274.61538461538464" r="3" fill="#2563eb"></circle><circle class="dot" cx="16.143497757847534" cy="300.7692307692308" r="3" fill="#2563eb"></circle><circle class="dot" cx="17.757847533632287" cy="326.9230769230769" r="3" fill="#2563eb"></circle><circle class="dot" cx="19.372197309417043" cy="313.84615384615387" r="3" fill="#2563eb"></circle><circle class="dot" cx="20.986547085201796" cy="274.61538461538464" r="3" fill="#2563eb"></circle><circle class="dot" cx="22.60089686098655" cy="300.7692307692308" r="3" fill="#2563eb"></circle><circle class="dot" cx="24.2152466367713" cy="300.7692307692308" r="3" fill="#2563eb"></circle><circle class="dot" cx="25.829596412556054" cy="300.7692307692308" r="3" fill="#2563eb"></circle><circle class="dot" cx="27.443946188340806" cy="300.7692307692308" r="3" fill="#2563eb"></circle><circle class="dot" cx="29.05829596412556" cy="326.9230769230769" r="3" fill="#2563eb"></circle><circle class="dot" cx="30.672645739910312" cy="313.84615384615387" r="3" fill="#2563eb"></circle><circle class="dot" cx="32.28699551569507" cy="300.7692307692308" r="3" fill="#2563eb"></circle><circle class="dot" cx="33.90134529147982" cy="340" r="3" fill="#2563eb"></circle><circle class="dot" cx="35.51569506726457" cy="340" r="3" fill="#2563eb"></circle><circle class="dot" cx="37.130044843049326" cy="340" r="3" fill="#2563eb"></circle><circle class="dot" cx="38.744394618834086" cy="313.84615384615387" r="3" fill="#2563eb"></circle><circle class="dot" cx="40.35874439461884" cy="326.9230769230769" r="3" fill="#2563eb"></circle><circle class="dot" cx="41.97309417040359" cy="313.84615384615387" r="3" fill="#2563eb"></circle><circle class="dot" cx="43.587443946188344" cy="274.61538461538464" r="3" fill="#2563eb"></circle><circle class="dot" cx="45.2017937219731" cy="261.5384615384615" r="3" fill="#2563eb"></circle><circle class="dot" cx="46.81614349775784" cy="274.61538461538464" r="3" fill="#2563eb"></circle><circle class="dot" cx="48.4304932735426" cy="287.6923076923077" r="3" fill="#2563eb"></circle><circle class="dot" cx="50.04484304932736" cy="235.3846153846154" r="3" fill="#2563eb"></circle><circle class="dot" cx="51.65919282511211" cy="261.5384615384615" r="3" fill="#2563eb"></circle><circle class="dot" cx="53.27354260089687" cy="287.6923076923077" r="3" fill="#2563eb"></circle><circle class="dot" cx="54.88789237668161" cy="287.6923076923077" r="3" fill="#2563eb"></circle><circle class="dot" cx="56.50224215246637" cy="287.6923076923077" r="3" fill="#2563eb"></circle><circle class="dot" cx="58.11659192825112" cy="300.7692307692308" r="3" fill="#2563eb"></circle><circle class="dot" cx="59.73094170403588" cy="313.84615384615387" r="3" fill="#2563eb"></circle><circle class="dot" cx="61.345291479820624" cy="235.3846153846154" r="3" fill="#2563eb"></circle><circle class="dot" cx="62.95964125560538" cy="261.5384615384615" r="3" fill="#2563eb"></circle><circle class="dot" cx="64.57399103139014" cy="313.84615384615387" r="3" fill="#2563eb"></circle><circle class="dot" cx="66.1883408071749" cy="287.6923076923077" r="3" fill="#2563eb"></circle><circle class="dot" cx="67.80269058295964" cy="300.7692307692308" r="3" fill="#2563eb"></circle><circle class="dot" cx="69.4170403587444" cy="300.7692307692308" r="3" fill="#2563eb"></circle><circle class="dot" cx="71.03139013452915" cy="313.84615384615387" r="3" fill="#2563eb"></circle><circle class="dot" cx="72.6457399103139" cy="261.5384615384615" r="3" fill="#2563eb"></circle><circle class="dot" cx="74.26008968609865" cy="261.5384615384615" r="3" fill="#2563eb"></circle><circle class="dot" cx="75.87443946188341" cy="248.46153846153845" r="3" fill="#2563eb"></circle><circle class="dot" cx="77.48878923766817" cy="248.46153846153845" r="3" fill="#2563eb"></circle><circle class="dot" cx="79.10313901345292" cy="261.5384615384615" r="3" fill="#2563eb"></circle><circle class="dot" cx="80.71748878923768" cy="248.46153846153845" r="3" fill="#2563eb"></circle><circle class="dot" cx="82.33183856502242" cy="248.46153846153845" r="3" fill="#2563eb"></circle><circle class="dot" cx="83.94618834080718" cy="274.61538461538464" r="3" fill="#2563eb"></circle><circle class="dot" cx="85.56053811659193" cy="287.6923076923077" r="3" fill="#2563eb"></circle><circle class="dot" cx="87.17488789237669" cy="313.84615384615387" r="3" fill="#2563eb"></circle><circle class="dot" cx="88.78923766816143" cy="326.9230769230769" r="3" fill="#2563eb"></circle><circle class="dot" cx="90.4035874439462" cy="313.84615384615387" r="3" fill="#2563eb"></circle><circle class="dot" cx="92.01793721973095" cy="340" r="3" fill="#2563eb"></circle><circle class="dot" cx="93.63228699551568" cy="326.9230769230769" r="3" fill="#2563eb"></circle><circle class="dot" cx="95.24663677130044" cy="326.9230769230769" r="3" fill="#2563eb"></circle><circle class="dot" cx="96.8609865470852" cy="326.9230769230769" r="3" fill="#2563eb"></circle><circle class="dot" cx="98.47533632286996" cy="340" r="3" fill="#2563eb"></circle><circle class="dot" cx="100.08968609865472" cy="274.61538461538464" r="3" fill="#2563eb"></circle><circle class="dot" cx="101.70403587443946" cy="235.3846153846154" r="3" fill="#2563eb"></circle><circle class="dot" cx="103.31838565022422" cy="248.46153846153845" r="3" fill="#2563eb"></circle><circle class="dot" cx="104.93273542600897" cy="274.61538461538464" r="3" fill="#2563eb"></circle><circle class="dot" cx="106.54708520179373" cy="300.7692307692308" r="3" fill="#2563eb"></circle><circle class="dot" cx="108.16143497757847" cy="313.84615384615387" r="3" fill="#2563eb"></circle><circle class="dot" cx="109.77578475336323" cy="300.7692307692308" r="3" fill="#2563eb"></circle><circle class="dot" cx="111.39013452914799" cy="287.6923076923077" r="3" fill="#2563eb"></circle><circle class="dot" cx="113.00448430493275" cy="287.6923076923077" r="3" fill="#2563eb"></circle><circle class="dot" cx="114.61883408071748" cy="287.6923076923077" r="3" fill="#2563eb"></circle><circle class="dot" cx="116.23318385650224" cy="287.6923076923077" r="3" fill="#2563eb"></circle><circle class="dot" cx="117.847533632287" cy="261.5384615384615" r="3" fill="#2563eb"></circle><circle class="dot" cx="119.46188340807176" cy="274.61538461538464" r="3" fill="#2563eb"></circle><circle class="dot" cx="121.07623318385652" cy="313.84615384615387" r="3" fill="#2563eb"></circle><circle class="dot" cx="122.69058295964125" cy="313.84615384615387" r="3" fill="#2563eb"></circle><circle class="dot" cx="124.30493273542601" cy="313.84615384615387" r="3" fill="#2563eb"></circle><circle class="dot" cx="125.91928251121077" cy="313.84615384615387" r="3" fill="#2563eb"></circle><circle class="dot" cx="127.53363228699553" cy="326.9230769230769" r="3" fill="#2563eb"></circle><circle class="dot" cx="129.14798206278027" cy="300.7692307692308" r="3" fill="#2563eb"></circle><circle class="dot" cx="130.76233183856502" cy="300.7692307692308" r="3" fill="#2563eb"></circle><circle class="dot" cx="132.3766816143498" cy="287.6923076923077" r="3" fill="#2563eb"></circle><circle class="dot" cx="133.99103139013454" cy="300.7692307692308" r="3" fill="#2563eb"></circle><circle class="dot" cx="135.60538116591928" cy="300.7692307692308" r="3" fill="#2563eb"></circle><circle class="dot" cx="137.21973094170403" cy="313.84615384615387" r="3" fill="#2563eb"></circle><circle class="dot" cx="138.8340807174888" cy="340" r="3" fill="#2563eb"></circle><circle class="dot" cx="140.44843049327355" cy="340" r="3" fill="#2563eb"></circle><circle class="dot" cx="142.0627802690583" cy="340" r="3" fill="#2563eb"></circle><circle class="dot" cx="143.67713004484304" cy="340" r="3" fill="#2563eb"></circle><circle class="dot" cx="145.2914798206278" cy="340" r="3" fill="#2563eb"></circle><circle class="dot" cx="146.90582959641256" cy="340" r="3" fill="#2563eb"></circle><circle class="dot" cx="148.5201793721973" cy="340" r="3" fill="#2563eb"></circle><circle class="dot" cx="150.13452914798205" cy="340" r="3" fill="#2563eb"></circle><circle class="dot" cx="151.74887892376682" cy="340" r="3" fill="#2563eb"></circle><circle class="dot" cx="153.36322869955157" cy="340" r="3" fill="#2563eb"></circle><circle class="dot" cx="154.97757847533634" cy="340" r="3" fill="#2563eb"></circle><circle class="dot" cx="156.59192825112106" cy="340" r="3" fill="#2563eb"></circle><circle class="dot" cx="158.20627802690584" cy="340" r="3" fill="#2563eb"></circle><circle class="dot" cx="159.82062780269058" cy="340" r="3" fill="#2563eb"></circle><circle class="dot" cx="161.43497757847535" cy="340" r="3" fill="#2563eb"></circle><circle class="dot" cx="163.04932735426007" cy="340" r="3" fill="#2563eb"></circle><circle class="dot" cx="164.66367713004485" cy="340" r="3" fill="#2563eb"></circle><circle class="dot" cx="166.2780269058296" cy="340" r="3" fill="#2563eb"></circle><circle class="dot" cx="167.89237668161437" cy="274.61538461538464" r="3" fill="#2563eb"></circle><circle class="dot" cx="169.5067264573991" cy="340" r="3" fill="#2563eb"></circle><circle class="dot" cx="171.12107623318386" cy="340" r="3" fill="#2563eb"></circle><circle class="dot" cx="172.7354260089686" cy="340" r="3" fill="#2563eb"></circle><circle class="dot" cx="174.34977578475338" cy="326.9230769230769" r="3" fill="#2563eb"></circle><circle class="dot" cx="175.96412556053812" cy="248.46153846153845" r="3" fill="#2563eb"></circle><circle class="dot" cx="177.57847533632287" cy="261.5384615384615" r="3" fill="#2563eb"></circle><circle class="dot" cx="179.1928251121076" cy="340" r="3" fill="#2563eb"></circle><circle class="dot" cx="180.8071748878924" cy="326.9230769230769" r="3" fill="#2563eb"></circle><circle class="dot" cx="182.42152466367713" cy="313.84615384615387" r="3" fill="#2563eb"></circle><circle class="dot" cx="184.0358744394619" cy="326.9230769230769" r="3" fill="#2563eb"></circle><circle class="dot" cx="185.65022421524665" cy="313.84615384615387" r="3" fill="#2563eb"></circle><circle class="dot" cx="187.26457399103137" cy="313.84615384615387" r="3" fill="#2563eb"></circle><circle class="dot" cx="188.87892376681611" cy="313.84615384615387" r="3" fill="#2563eb"></circle><circle class="dot" cx="190.4932735426009" cy="340" r="3" fill="#2563eb"></circle><circle class="dot" cx="192.10762331838563" cy="340" r="3" fill="#2563eb"></circle><circle class="dot" cx="193.7219730941704" cy="340" r="3" fill="#2563eb"></circle><circle class="dot" cx="195.33632286995515" cy="326.9230769230769" r="3" fill="#2563eb"></circle><circle class="dot" cx="196.95067264573993" cy="340" r="3" fill="#2563eb"></circle><circle class="dot" cx="198.56502242152467" cy="340" r="3" fill="#2563eb"></circle><circle class="dot" cx="200.17937219730945" cy="340" r="3" fill="#2563eb"></circle><circle class="dot" cx="201.79372197309416" cy="340" r="3" fill="#2563eb"></circle><circle class="dot" cx="203.4080717488789" cy="340" r="3" fill="#2563eb"></circle><circle class="dot" cx="205.02242152466366" cy="340" r="3" fill="#2563eb"></circle><circle class="dot" cx="206.63677130044843" cy="340" r="3" fill="#2563eb"></circle><circle class="dot" cx="208.25112107623318" cy="340" r="3" fill="#2563eb"></circle><circle class="dot" cx="209.86547085201795" cy="340" r="3" fill="#2563eb"></circle><circle class="dot" cx="211.4798206278027" cy="340" r="3" fill="#2563eb"></circle><circle class="dot" cx="213.09417040358747" cy="340" r="3" fill="#2563eb"></circle><circle class="dot" cx="214.7085201793722" cy="340" r="3" fill="#2563eb"></circle><circle class="dot" cx="216.32286995515693" cy="340" r="3" fill="#2563eb"></circle><circle class="dot" cx="217.9372197309417" cy="340" r="3" fill="#2563eb"></circle><circle class="dot" cx="219.55156950672645" cy="340" r="3" fill="#2563eb"></circle><circle class="dot" cx="221.1659192825112" cy="340" r="3" fill="#2563eb"></circle><circle class="dot" cx="222.78026905829597" cy="340" r="3" fill="#2563eb"></circle><circle class="dot" cx="224.39461883408072" cy="340" r="3" fill="#2563eb"></circle><circle class="dot" cx="226.0089686098655" cy="340" r="3" fill="#2563eb"></circle><circle class="dot" cx="227.62331838565024" cy="340" r="3" fill="#2563eb"></circle><circle class="dot" cx="229.23766816143495" cy="340" r="3" fill="#2563eb"></circle><circle class="dot" cx="230.85201793721973" cy="340" r="3" fill="#2563eb"></circle><circle class="dot" cx="232.46636771300447" cy="340" r="3" fill="#2563eb"></circle><circle class="dot" cx="234.08071748878925" cy="340" r="3" fill="#2563eb"></circle><circle class="dot" cx="235.695067264574" cy="340" r="3" fill="#2563eb"></circle><circle class="dot" cx="237.30941704035874" cy="340" r="3" fill="#2563eb"></circle><circle class="dot" cx="238.9237668161435" cy="340" r="3" fill="#2563eb"></circle><circle class="dot" cx="240.53811659192826" cy="340" r="3" fill="#2563eb"></circle><circle class="dot" cx="242.15246636771303" cy="340" r="3" fill="#2563eb"></circle><circle class="dot" cx="243.76681614349775" cy="340" r="3" fill="#2563eb"></circle><circle class="dot" cx="245.3811659192825" cy="313.84615384615387" r="3" fill="#2563eb"></circle><circle class="dot" cx="246.99551569506727" cy="326.9230769230769" r="3" fill="#2563eb"></circle><circle class="dot" cx="248.60986547085201" cy="340" r="3" fill="#2563eb"></circle><circle class="dot" cx="250.2242152466368" cy="326.9230769230769" r="3" fill="#2563eb"></circle><circle class="dot" cx="251.83856502242153" cy="313.84615384615387" r="3" fill="#2563eb"></circle><circle class="dot" cx="253.45291479820628" cy="313.84615384615387" r="3" fill="#2563eb"></circle><circle class="dot" cx="255.06726457399105" cy="300.7692307692308" r="3" fill="#2563eb"></circle><circle class="dot" cx="256.68161434977577" cy="274.61538461538464" r="3" fill="#2563eb"></circle><circle class="dot" cx="258.29596412556054" cy="274.61538461538464" r="3" fill="#2563eb"></circle><circle class="dot" cx="259.91031390134526" cy="287.6923076923077" r="3" fill="#2563eb"></circle><circle class="dot" cx="261.52466367713004" cy="300.7692307692308" r="3" fill="#2563eb"></circle><circle class="dot" cx="263.1390134529148" cy="300.7692307692308" r="3" fill="#2563eb"></circle><circle class="dot" cx="264.7533632286996" cy="287.6923076923077" r="3" fill="#2563eb"></circle><circle class="dot" cx="266.3677130044843" cy="300.7692307692308" r="3" fill="#2563eb"></circle><circle class="dot" cx="267.9820627802691" cy="300.7692307692308" r="3" fill="#2563eb"></circle><circle class="dot" cx="269.59641255605385" cy="274.61538461538464" r="3" fill="#2563eb"></circle><circle class="dot" cx="271.21076233183857" cy="274.61538461538464" r="3" fill="#2563eb"></circle><circle class="dot" cx="272.8251121076233" cy="261.5384615384615" r="3" fill="#2563eb"></circle><circle class="dot" cx="274.43946188340806" cy="261.5384615384615" r="3" fill="#2563eb"></circle><circle class="dot" cx="276.05381165919283" cy="248.46153846153845" r="3" fill="#2563eb"></circle><circle class="dot" cx="277.6681614349776" cy="261.5384615384615" r="3" fill="#2563eb"></circle><circle class="dot" cx="279.2825112107623" cy="274.61538461538464" r="3" fill="#2563eb"></circle><circle class="dot" cx="280.8968609865471" cy="274.61538461538464" r="3" fill="#2563eb"></circle><circle class="dot" cx="282.51121076233187" cy="287.6923076923077" r="3" fill="#2563eb"></circle><circle class="dot" cx="284.1255605381166" cy="287.6923076923077" r="3" fill="#2563eb"></circle><circle class="dot" cx="285.7399103139013" cy="274.61538461538464" r="3" fill="#2563eb"></circle><circle class="dot" cx="287.3542600896861" cy="248.46153846153845" r="3" fill="#2563eb"></circle><circle class="dot" cx="288.96860986547085" cy="235.3846153846154" r="3" fill="#2563eb"></circle><circle class="dot" cx="290.5829596412556" cy="235.3846153846154" r="3" fill="#2563eb"></circle><circle class="dot" cx="292.19730941704034" cy="235.3846153846154" r="3" fill="#2563eb"></circle><circle class="dot" cx="293.8116591928251" cy="248.46153846153845" r="3" fill="#2563eb"></circle><circle class="dot" cx="295.4260089686099" cy="222.30769230769232" r="3" fill="#2563eb"></circle><circle class="dot" cx="297.0403587443946" cy="196.15384615384616" r="3" fill="#2563eb"></circle><circle class="dot" cx="298.6547085201794" cy="209.23076923076925" r="3" fill="#2563eb"></circle><circle class="dot" cx="300.2690582959641" cy="235.3846153846154" r="3" fill="#2563eb"></circle><circle class="dot" cx="301.8834080717489" cy="209.23076923076925" r="3" fill="#2563eb"></circle><circle class="dot" cx="303.49775784753365" cy="248.46153846153845" r="3" fill="#2563eb"></circle><circle class="dot" cx="305.11210762331837" cy="248.46153846153845" r="3" fill="#2563eb"></circle><circle class="dot" cx="306.72645739910314" cy="222.30769230769232" r="3" fill="#2563eb"></circle><circle class="dot" cx="308.3408071748879" cy="235.3846153846154" r="3" fill="#2563eb"></circle><circle class="dot" cx="309.9551569506727" cy="248.46153846153845" r="3" fill="#2563eb"></circle><circle class="dot" cx="311.5695067264574" cy="248.46153846153845" r="3" fill="#2563eb"></circle><circle class="dot" cx="313.1838565022421" cy="196.15384615384616" r="3" fill="#2563eb"></circle><circle class="dot" cx="314.7982062780269" cy="196.15384615384616" r="3" fill="#2563eb"></circle><circle class="dot" cx="316.41255605381167" cy="183.0769230769231" r="3" fill="#2563eb"></circle><circle class="dot" cx="318.0269058295964" cy="248.46153846153845" r="3" fill="#2563eb"></circle><circle class="dot" cx="319.64125560538116" cy="248.46153846153845" r="3" fill="#2563eb"></circle><circle class="dot" cx="321.25560538116594" cy="196.15384615384616" r="3" fill="#2563eb"></circle><circle class="dot" cx="322.8699551569507" cy="183.0769230769231" r="3" fill="#2563eb"></circle><circle class="dot" cx="324.4843049327354" cy="183.0769230769231" r="3" fill="#2563eb"></circle><circle class="dot" cx="326.09865470852014" cy="183.0769230769231" r="3" fill="#2563eb"></circle><circle class="dot" cx="327.7130044843049" cy="196.15384615384616" r="3" fill="#2563eb"></circle><circle class="dot" cx="329.3273542600897" cy="209.23076923076925" r="3" fill="#2563eb"></circle><circle class="dot" cx="330.9417040358744" cy="196.15384615384616" r="3" fill="#2563eb"></circle><circle class="dot" cx="332.5560538116592" cy="183.0769230769231" r="3" fill="#2563eb"></circle><circle class="dot" cx="334.17040358744396" cy="248.46153846153845" r="3" fill="#2563eb"></circle><circle class="dot" cx="335.78475336322873" cy="326.9230769230769" r="3" fill="#2563eb"></circle><circle class="dot" cx="337.39910313901345" cy="326.9230769230769" r="3" fill="#2563eb"></circle><circle class="dot" cx="339.0134529147982" cy="313.84615384615387" r="3" fill="#2563eb"></circle><circle class="dot" cx="340.62780269058294" cy="300.7692307692308" r="3" fill="#2563eb"></circle><circle class="dot" cx="342.2421524663677" cy="287.6923076923077" r="3" fill="#2563eb"></circle><circle class="dot" cx="343.8565022421525" cy="287.6923076923077" r="3" fill="#2563eb"></circle><circle class="dot" cx="345.4708520179372" cy="300.7692307692308" r="3" fill="#2563eb"></circle><circle class="dot" cx="347.085201793722" cy="287.6923076923077" r="3" fill="#2563eb"></circle><circle class="dot" cx="348.69955156950675" cy="287.6923076923077" r="3" fill="#2563eb"></circle><circle class="dot" cx="350.31390134529147" cy="313.84615384615387" r="3" fill="#2563eb"></circle><circle class="dot" cx="351.92825112107624" cy="300.7692307692308" r="3" fill="#2563eb"></circle><circle class="dot" cx="353.54260089686096" cy="274.61538461538464" r="3" fill="#2563eb"></circle><circle class="dot" cx="355.15695067264573" cy="274.61538461538464" r="3" fill="#2563eb"></circle><circle class="dot" cx="356.7713004484305" cy="287.6923076923077" r="3" fill="#2563eb"></circle><circle class="dot" cx="358.3856502242152" cy="300.7692307692308" r="3" fill="#2563eb"></circle><circle class="dot" cx="360" cy="222.30769230769232" r="3" fill="#2563eb"></circle><circle class="dot" cx="361.6143497757848" cy="196.15384615384616" r="3" fill="#2563eb"></circle><circle class="dot" cx="363.2286995515695" cy="222.30769230769232" r="3" fill="#2563eb"></circle><circle class="dot" cx="364.84304932735427" cy="222.30769230769232" r="3" fill="#2563eb"></circle><circle class="dot" cx="366.45739910313904" cy="235.3846153846154" r="3" fill="#2563eb"></circle><circle class="dot" cx="368.0717488789238" cy="326.9230769230769" r="3" fill="#2563eb"></circle><circle class="dot" cx="369.68609865470853" cy="274.61538461538464" r="3" fill="#2563eb"></circle><circle class="dot" cx="371.3004484304933" cy="222.30769230769232" r="3" fill="#2563eb"></circle><circle class="dot" cx="372.9147982062781" cy="248.46153846153845" r="3" fill="#2563eb"></circle><circle class="dot" cx="374.52914798206274" cy="287.6923076923077" r="3" fill="#2563eb"></circle><circle class="dot" cx="376.1434977578475" cy="300.7692307692308" r="3" fill="#2563eb"></circle><circle class="dot" cx="377.75784753363223" cy="313.84615384615387" r="3" fill="#2563eb"></circle><circle class="dot" cx="379.372197309417" cy="340" r="3" fill="#2563eb"></circle><circle class="dot" cx="380.9865470852018" cy="340" r="3" fill="#2563eb"></circle><circle class="dot" cx="382.60089686098655" cy="340" r="3" fill="#2563eb"></circle><circle class="dot" cx="384.21524663677127" cy="340" r="3" fill="#2563eb"></circle><circle class="dot" cx="385.82959641255604" cy="340" r="3" fill="#2563eb"></circle><circle class="dot" cx="387.4439461883408" cy="340" r="3" fill="#2563eb"></circle><circle class="dot" cx="389.0582959641256" cy="340" r="3" fill="#2563eb"></circle><circle class="dot" cx="390.6726457399103" cy="340" r="3" fill="#2563eb"></circle><circle class="dot" cx="392.2869955156951" cy="340" r="3" fill="#2563eb"></circle><circle class="dot" cx="393.90134529147986" cy="326.9230769230769" r="3" fill="#2563eb"></circle><circle class="dot" cx="395.5156950672646" cy="326.9230769230769" r="3" fill="#2563eb"></circle><circle class="dot" cx="397.13004484304935" cy="326.9230769230769" r="3" fill="#2563eb"></circle><circle class="dot" cx="398.7443946188341" cy="313.84615384615387" r="3" fill="#2563eb"></circle><circle class="dot" cx="400.3587443946189" cy="313.84615384615387" r="3" fill="#2563eb"></circle><circle class="dot" cx="401.97309417040356" cy="340" r="3" fill="#2563eb"></circle><circle class="dot" cx="403.58744394618833" cy="340" r="3" fill="#2563eb"></circle><circle class="dot" cx="405.20179372197305" cy="326.9230769230769" r="3" fill="#2563eb"></circle><circle class="dot" cx="406.8161434977578" cy="326.9230769230769" r="3" fill="#2563eb"></circle><circle class="dot" cx="408.4304932735426" cy="287.6923076923077" r="3" fill="#2563eb"></circle><circle class="dot" cx="410.0448430493273" cy="274.61538461538464" r="3" fill="#2563eb"></circle><circle class="dot" cx="411.6591928251121" cy="287.6923076923077" r="3" fill="#2563eb"></circle><circle class="dot" cx="413.27354260089686" cy="313.84615384615387" r="3" fill="#2563eb"></circle><circle class="dot" cx="414.88789237668163" cy="313.84615384615387" r="3" fill="#2563eb"></circle><circle class="dot" cx="416.50224215246635" cy="340" r="3" fill="#2563eb"></circle><circle class="dot" cx="418.1165919282511" cy="340" r="3" fill="#2563eb"></circle><circle class="dot" cx="419.7309417040359" cy="340" r="3" fill="#2563eb"></circle><circle class="dot" cx="421.3452914798206" cy="340" r="3" fill="#2563eb"></circle><circle class="dot" cx="422.9596412556054" cy="340" r="3" fill="#2563eb"></circle><circle class="dot" cx="424.57399103139016" cy="326.9230769230769" r="3" fill="#2563eb"></circle><circle class="dot" cx="426.18834080717494" cy="300.7692307692308" r="3" fill="#2563eb"></circle><circle class="dot" cx="427.80269058295966" cy="235.3846153846154" r="3" fill="#2563eb"></circle><circle class="dot" cx="429.4170403587444" cy="261.5384615384615" r="3" fill="#2563eb"></circle><circle class="dot" cx="431.0313901345291" cy="248.46153846153845" r="3" fill="#2563eb"></circle><circle class="dot" cx="432.64573991031386" cy="248.46153846153845" r="3" fill="#2563eb"></circle><circle class="dot" cx="434.26008968609864" cy="235.3846153846154" r="3" fill="#2563eb"></circle><circle class="dot" cx="435.8744394618834" cy="196.15384615384616" r="3" fill="#2563eb"></circle><circle class="dot" cx="437.48878923766813" cy="130.76923076923075" r="3" fill="#2563eb"></circle><circle class="dot" cx="439.1031390134529" cy="156.92307692307693" r="3" fill="#2563eb"></circle><circle class="dot" cx="440.7174887892377" cy="183.0769230769231" r="3" fill="#2563eb"></circle><circle class="dot" cx="442.3318385650224" cy="235.3846153846154" r="3" fill="#2563eb"></circle><circle class="dot" cx="443.94618834080717" cy="235.3846153846154" r="3" fill="#2563eb"></circle><circle class="dot" cx="445.56053811659194" cy="235.3846153846154" r="3" fill="#2563eb"></circle><circle class="dot" cx="447.1748878923767" cy="235.3846153846154" r="3" fill="#2563eb"></circle><circle class="dot" cx="448.78923766816143" cy="235.3846153846154" r="3" fill="#2563eb"></circle><circle class="dot" cx="450.4035874439462" cy="222.30769230769232" r="3" fill="#2563eb"></circle><circle class="dot" cx="452.017937219731" cy="248.46153846153845" r="3" fill="#2563eb"></circle><circle class="dot" cx="453.6322869955157" cy="235.3846153846154" r="3" fill="#2563eb"></circle><circle class="dot" cx="455.2466367713005" cy="209.23076923076925" r="3" fill="#2563eb"></circle><circle class="dot" cx="456.86098654708525" cy="183.0769230769231" r="3" fill="#2563eb"></circle><circle class="dot" cx="458.4753363228699" cy="130.76923076923075" r="3" fill="#2563eb"></circle><circle class="dot" cx="460.0896860986547" cy="130.76923076923075" r="3" fill="#2563eb"></circle><circle class="dot" cx="461.70403587443946" cy="156.92307692307693" r="3" fill="#2563eb"></circle><circle class="dot" cx="463.3183856502242" cy="91.53846153846155" r="3" fill="#2563eb"></circle><circle class="dot" cx="464.93273542600895" cy="78.46153846153848" r="3" fill="#2563eb"></circle><circle class="dot" cx="466.5470852017937" cy="78.46153846153848" r="3" fill="#2563eb"></circle><circle class="dot" cx="468.1614349775785" cy="104.61538461538463" r="3" fill="#2563eb"></circle><circle class="dot" cx="469.7757847533632" cy="91.53846153846155" r="3" fill="#2563eb"></circle><circle class="dot" cx="471.390134529148" cy="52.307692307692314" r="3" fill="#2563eb"></circle><circle class="dot" cx="473.00448430493276" cy="52.307692307692314" r="3" fill="#2563eb"></circle><circle class="dot" cx="474.6188340807175" cy="65.38461538461542" r="3" fill="#2563eb"></circle><circle class="dot" cx="476.23318385650225" cy="65.38461538461542" r="3" fill="#2563eb"></circle><circle class="dot" cx="477.847533632287" cy="52.307692307692314" r="3" fill="#2563eb"></circle><circle class="dot" cx="479.4618834080718" cy="39.23076923076924" r="3" fill="#2563eb"></circle><circle class="dot" cx="481.0762331838565" cy="13.076923076923105" r="3" fill="#2563eb"></circle><circle class="dot" cx="482.6905829596413" cy="78.46153846153848" r="3" fill="#2563eb"></circle><circle class="dot" cx="484.30493273542606" cy="156.92307692307693" r="3" fill="#2563eb"></circle><circle class="dot" cx="485.9192825112107" cy="340" r="3" fill="#2563eb"></circle><circle class="dot" cx="487.5336322869955" cy="340" r="3" fill="#2563eb"></circle><circle class="dot" cx="489.1479820627802" cy="340" r="3" fill="#2563eb"></circle><circle class="dot" cx="490.762331838565" cy="340" r="3" fill="#2563eb"></circle><circle class="dot" cx="492.37668161434976" cy="340" r="3" fill="#2563eb"></circle><circle class="dot" cx="493.99103139013454" cy="340" r="3" fill="#2563eb"></circle><circle class="dot" cx="495.60538116591925" cy="340" r="3" fill="#2563eb"></circle><circle class="dot" cx="497.21973094170403" cy="340" r="3" fill="#2563eb"></circle><circle class="dot" cx="498.8340807174888" cy="340" r="3" fill="#2563eb"></circle><circle class="dot" cx="500.4484304932736" cy="340" r="3" fill="#2563eb"></circle><circle class="dot" cx="502.0627802690583" cy="340" r="3" fill="#2563eb"></circle><circle class="dot" cx="503.67713004484307" cy="313.84615384615387" r="3" fill="#2563eb"></circle><circle class="dot" cx="505.29147982062784" cy="313.84615384615387" r="3" fill="#2563eb"></circle><circle class="dot" cx="506.90582959641256" cy="274.61538461538464" r="3" fill="#2563eb"></circle><circle class="dot" cx="508.52017937219733" cy="222.30769230769232" r="3" fill="#2563eb"></circle><circle class="dot" cx="510.1345291479821" cy="287.6923076923077" r="3" fill="#2563eb"></circle><circle class="dot" cx="511.7488789237669" cy="274.61538461538464" r="3" fill="#2563eb"></circle><circle class="dot" cx="513.3632286995515" cy="222.30769230769232" r="3" fill="#2563eb"></circle><circle class="dot" cx="514.9775784753363" cy="248.46153846153845" r="3" fill="#2563eb"></circle><circle class="dot" cx="516.5919282511211" cy="248.46153846153845" r="3" fill="#2563eb"></circle><circle class="dot" cx="518.2062780269058" cy="248.46153846153845" r="3" fill="#2563eb"></circle><circle class="dot" cx="519.8206278026905" cy="235.3846153846154" r="3" fill="#2563eb"></circle><circle class="dot" cx="521.4349775784754" cy="248.46153846153845" r="3" fill="#2563eb"></circle><circle class="dot" cx="523.0493273542601" cy="326.9230769230769" r="3" fill="#2563eb"></circle><circle class="dot" cx="524.6636771300448" cy="326.9230769230769" r="3" fill="#2563eb"></circle><circle class="dot" cx="526.2780269058296" cy="340" r="3" fill="#2563eb"></circle><circle class="dot" cx="527.8923766816143" cy="340" r="3" fill="#2563eb"></circle><circle class="dot" cx="529.5067264573992" cy="340" r="3" fill="#2563eb"></circle><circle class="dot" cx="531.1210762331839" cy="287.6923076923077" r="3" fill="#2563eb"></circle><circle class="dot" cx="532.7354260089686" cy="222.30769230769232" r="3" fill="#2563eb"></circle><circle class="dot" cx="534.3497757847534" cy="274.61538461538464" r="3" fill="#2563eb"></circle><circle class="dot" cx="535.9641255605382" cy="300.7692307692308" r="3" fill="#2563eb"></circle><circle class="dot" cx="537.5784753363229" cy="287.6923076923077" r="3" fill="#2563eb"></circle><circle class="dot" cx="539.1928251121077" cy="261.5384615384615" r="3" fill="#2563eb"></circle><circle class="dot" cx="540.8071748878923" cy="287.6923076923077" r="3" fill="#2563eb"></circle><circle class="dot" cx="542.4215246636771" cy="340" r="3" fill="#2563eb"></circle><circle class="dot" cx="544.0358744394618" cy="326.9230769230769" r="3" fill="#2563eb"></circle><circle class="dot" cx="545.6502242152466" cy="313.84615384615387" r="3" fill="#2563eb"></circle><circle class="dot" cx="547.2645739910314" cy="340" r="3" fill="#2563eb"></circle><circle class="dot" cx="548.8789237668161" cy="340" r="3" fill="#2563eb"></circle><circle class="dot" cx="550.4932735426008" cy="340" r="3" fill="#2563eb"></circle><circle class="dot" cx="552.1076233183857" cy="340" r="3" fill="#2563eb"></circle><circle class="dot" cx="553.7219730941704" cy="340" r="3" fill="#2563eb"></circle><circle class="dot" cx="555.3363228699552" cy="340" r="3" fill="#2563eb"></circle><circle class="dot" cx="556.9506726457399" cy="340" r="3" fill="#2563eb"></circle><circle class="dot" cx="558.5650224215246" cy="340" r="3" fill="#2563eb"></circle><circle class="dot" cx="560.1793721973095" cy="340" r="3" fill="#2563eb"></circle><circle class="dot" cx="561.7937219730942" cy="340" r="3" fill="#2563eb"></circle><circle class="dot" cx="563.4080717488789" cy="340" r="3" fill="#2563eb"></circle><circle class="dot" cx="565.0224215246637" cy="340" r="3" fill="#2563eb"></circle><circle class="dot" cx="566.6367713004485" cy="340" r="3" fill="#2563eb"></circle><circle class="dot" cx="568.2511210762332" cy="340" r="3" fill="#2563eb"></circle><circle class="dot" cx="569.8654708520179" cy="340" r="3" fill="#2563eb"></circle><circle class="dot" cx="571.4798206278026" cy="340" r="3" fill="#2563eb"></circle><circle class="dot" cx="573.0941704035874" cy="340" r="3" fill="#2563eb"></circle><circle class="dot" cx="574.7085201793722" cy="340" r="3" fill="#2563eb"></circle><circle class="dot" cx="576.322869955157" cy="340" r="3" fill="#2563eb"></circle><circle class="dot" cx="577.9372197309417" cy="340" r="3" fill="#2563eb"></circle><circle class="dot" cx="579.5515695067264" cy="340" r="3" fill="#2563eb"></circle><circle class="dot" cx="581.1659192825113" cy="340" r="3" fill="#2563eb"></circle><circle class="dot" cx="582.780269058296" cy="340" r="3" fill="#2563eb"></circle><circle class="dot" cx="584.3946188340807" cy="340" r="3" fill="#2563eb"></circle><circle class="dot" cx="586.0089686098655" cy="340" r="3" fill="#2563eb"></circle><circle class="dot" cx="587.6233183856502" cy="340" r="3" fill="#2563eb"></circle><circle class="dot" cx="589.237668161435" cy="340" r="3" fill="#2563eb"></circle><circle class="dot" cx="590.8520179372198" cy="340" r="3" fill="#2563eb"></circle><circle class="dot" cx="592.4663677130045" cy="340" r="3" fill="#2563eb"></circle><circle class="dot" cx="594.0807174887892" cy="340" r="3" fill="#2563eb"></circle><circle class="dot" cx="595.6950672645739" cy="340" r="3" fill="#2563eb"></circle><circle class="dot" cx="597.3094170403588" cy="340" r="3" fill="#2563eb"></circle><circle class="dot" cx="598.9237668161435" cy="340" r="3" fill="#2563eb"></circle><circle class="dot" cx="600.5381165919282" cy="340" r="3" fill="#2563eb"></circle><circle class="dot" cx="602.152466367713" cy="340" r="3" fill="#2563eb"></circle><circle class="dot" cx="603.7668161434977" cy="340" r="3" fill="#2563eb"></circle><circle class="dot" cx="605.3811659192825" cy="340" r="3" fill="#2563eb"></circle><circle class="dot" cx="606.9955156950673" cy="340" r="3" fill="#2563eb"></circle><circle class="dot" cx="608.609865470852" cy="340" r="3" fill="#2563eb"></circle><circle class="dot" cx="610.2242152466367" cy="340" r="3" fill="#2563eb"></circle><circle class="dot" cx="611.8385650224216" cy="340" r="3" fill="#2563eb"></circle><circle class="dot" cx="613.4529147982063" cy="340" r="3" fill="#2563eb"></circle><circle class="dot" cx="615.067264573991" cy="340" r="3" fill="#2563eb"></circle><circle class="dot" cx="616.6816143497758" cy="340" r="3" fill="#2563eb"></circle><circle class="dot" cx="618.2959641255605" cy="340" r="3" fill="#2563eb"></circle><circle class="dot" cx="619.9103139013454" cy="340" r="3" fill="#2563eb"></circle><circle class="dot" cx="621.5246636771301" cy="340" r="3" fill="#2563eb"></circle><circle class="dot" cx="623.1390134529148" cy="340" r="3" fill="#2563eb"></circle><circle class="dot" cx="624.7533632286995" cy="340" r="3" fill="#2563eb"></circle><circle class="dot" cx="626.3677130044842" cy="340" r="3" fill="#2563eb"></circle><circle class="dot" cx="627.9820627802691" cy="340" r="3" fill="#2563eb"></circle><circle class="dot" cx="629.5964125560538" cy="340" r="3" fill="#2563eb"></circle><circle class="dot" cx="631.2107623318385" cy="340" r="3" fill="#2563eb"></circle><circle class="dot" cx="632.8251121076233" cy="340" r="3" fill="#2563eb"></circle><circle class="dot" cx="634.4394618834081" cy="340" r="3" fill="#2563eb"></circle><circle class="dot" cx="636.0538116591928" cy="340" r="3" fill="#2563eb"></circle><circle class="dot" cx="637.6681614349776" cy="340" r="3" fill="#2563eb"></circle><circle class="dot" cx="639.2825112107623" cy="340" r="3" fill="#2563eb"></circle><circle class="dot" cx="640.8968609865472" cy="340" r="3" fill="#2563eb"></circle><circle class="dot" cx="642.5112107623319" cy="340" r="3" fill="#2563eb"></circle><circle class="dot" cx="644.1255605381166" cy="340" r="3" fill="#2563eb"></circle><circle class="dot" cx="645.7399103139014" cy="340" r="3" fill="#2563eb"></circle><circle class="dot" cx="647.3542600896861" cy="340" r="3" fill="#2563eb"></circle><circle class="dot" cx="648.9686098654709" cy="340" r="3" fill="#2563eb"></circle><circle class="dot" cx="650.5829596412557" cy="340" r="3" fill="#2563eb"></circle><circle class="dot" cx="652.1973094170403" cy="340" r="3" fill="#2563eb"></circle><circle class="dot" cx="653.8116591928251" cy="340" r="3" fill="#2563eb"></circle><circle class="dot" cx="655.4260089686098" cy="340" r="3" fill="#2563eb"></circle><circle class="dot" cx="657.0403587443946" cy="340" r="3" fill="#2563eb"></circle><circle class="dot" cx="658.6547085201794" cy="340" r="3" fill="#2563eb"></circle><circle class="dot" cx="660.2690582959641" cy="340" r="3" fill="#2563eb"></circle><circle class="dot" cx="661.8834080717488" cy="340" r="3" fill="#2563eb"></circle><circle class="dot" cx="663.4977578475336" cy="340" r="3" fill="#2563eb"></circle><circle class="dot" cx="665.1121076233184" cy="340" r="3" fill="#2563eb"></circle><circle class="dot" cx="666.7264573991032" cy="340" r="3" fill="#2563eb"></circle><circle class="dot" cx="668.3408071748879" cy="340" r="3" fill="#2563eb"></circle><circle class="dot" cx="669.9551569506726" cy="340" r="3" fill="#2563eb"></circle><circle class="dot" cx="671.5695067264575" cy="340" r="3" fill="#2563eb"></circle><circle class="dot" cx="673.1838565022422" cy="340" r="3" fill="#2563eb"></circle><circle class="dot" cx="674.7982062780269" cy="340" r="3" fill="#2563eb"></circle><circle class="dot" cx="676.4125560538117" cy="340" r="3" fill="#2563eb"></circle><circle class="dot" cx="678.0269058295964" cy="340" r="3" fill="#2563eb"></circle><circle class="dot" cx="679.6412556053812" cy="340" r="3" fill="#2563eb"></circle><circle class="dot" cx="681.2556053811659" cy="340" r="3" fill="#2563eb"></circle><circle class="dot" cx="682.8699551569506" cy="326.9230769230769" r="3" fill="#2563eb"></circle><circle class="dot" cx="684.4843049327354" cy="326.9230769230769" r="3" fill="#2563eb"></circle><circle class="dot" cx="686.0986547085201" cy="326.9230769230769" r="3" fill="#2563eb"></circle><circle class="dot" cx="687.713004484305" cy="326.9230769230769" r="3" fill="#2563eb"></circle><circle class="dot" cx="689.3273542600897" cy="326.9230769230769" r="3" fill="#2563eb"></circle><circle class="dot" cx="690.9417040358744" cy="326.9230769230769" r="3" fill="#2563eb"></circle><circle class="dot" cx="692.5560538116592" cy="326.9230769230769" r="3" fill="#2563eb"></circle><circle class="dot" cx="694.170403587444" cy="326.9230769230769" r="3" fill="#2563eb"></circle><circle class="dot" cx="695.7847533632287" cy="326.9230769230769" r="3" fill="#2563eb"></circle><circle class="dot" cx="697.3991031390135" cy="326.9230769230769" r="3" fill="#2563eb"></circle><circle class="dot" cx="699.0134529147982" cy="326.9230769230769" r="3" fill="#2563eb"></circle><circle class="dot" cx="700.6278026905829" cy="326.9230769230769" r="3" fill="#2563eb"></circle><circle class="dot" cx="702.2421524663678" cy="326.9230769230769" r="3" fill="#2563eb"></circle><circle class="dot" cx="703.8565022421525" cy="326.9230769230769" r="3" fill="#2563eb"></circle><circle class="dot" cx="705.4708520179372" cy="326.9230769230769" r="3" fill="#2563eb"></circle><circle class="dot" cx="707.0852017937219" cy="326.9230769230769" r="3" fill="#2563eb"></circle><circle class="dot" cx="708.6995515695066" cy="326.9230769230769" r="3" fill="#2563eb"></circle><circle class="dot" cx="710.3139013452915" cy="326.9230769230769" r="3" fill="#2563eb"></circle><circle class="dot" cx="711.9282511210762" cy="326.9230769230769" r="3" fill="#2563eb"></circle><circle class="dot" cx="713.542600896861" cy="326.9230769230769" r="3" fill="#2563eb"></circle><circle class="dot" cx="715.1569506726457" cy="326.9230769230769" r="3" fill="#2563eb"></circle><circle class="dot" cx="716.7713004484305" cy="326.9230769230769" r="3" fill="#2563eb"></circle><circle class="dot" cx="718.3856502242153" cy="326.9230769230769" r="3" fill="#2563eb"></circle><circle class="dot" cx="720" cy="326.9230769230769" r="3" fill="#2563eb"></circle><g class="grid" transform="translate(0,340)" fill="none" font-size="10" font-family="sans-serif" text-anchor="middle" style="stroke-dasharray: 3,3; opacity: 0.3;"><path class="domain" stroke="currentColor" d="M0.5,-340V0.5H720.5V-340"></path><g class="tick" opacity="1" transform="translate(0.5,0)"><line stroke="currentColor" y2="-340"></line><text fill="currentColor" y="3" dy="0.71em"></text></g><g class="tick" opacity="1" transform="translate(39.244394618834086,0)"><line stroke="currentColor" y2="-340"></line><text fill="currentColor" y="3" dy="0.71em"></text></g><g class="tick" opacity="1" transform="translate(77.98878923766817,0)"><line stroke="currentColor" y2="-340"></line><text fill="currentColor" y="3" dy="0.71em"></text></g><g class="tick" opacity="1" transform="translate(116.73318385650224,0)"><line stroke="currentColor" y2="-340"></line><text fill="currentColor" y="3" dy="0.71em"></text></g><g class="tick" opacity="1" transform="translate(155.47757847533634,0)"><line stroke="currentColor" y2="-340"></line><text fill="currentColor" y="3" dy="0.71em"></text></g><g class="tick" opacity="1" transform="translate(194.2219730941704,0)"><line stroke="currentColor" y2="-340"></line><text fill="currentColor" y="3" dy="0.71em"></text></g><g class="tick" opacity="1" transform="translate(232.96636771300447,0)"><line stroke="currentColor" y2="-340"></line><text fill="currentColor" y="3" dy="0.71em"></text></g><g class="tick" opacity="1" transform="translate(271.71076233183857,0)"><line stroke="currentColor" y2="-340"></line><text fill="currentColor" y="3" dy="0.71em"></text></g><g class="tick" opacity="1" transform="translate(310.4551569506727,0)"><line stroke="currentColor" y2="-340"></line><text fill="currentColor" y="3" dy="0.71em"></text></g><g class="tick" opacity="1" transform="translate(349.19955156950675,0)"><line stroke="currentColor" y2="-340"></line><text fill="currentColor" y="3" dy="0.71em"></text></g><g class="tick" opacity="1" transform="translate(387.9439461883408,0)"><line stroke="currentColor" y2="-340"></line><text fill="currentColor" y="3" dy="0.71em"></text></g><g class="tick" opacity="1" transform="translate(426.68834080717494,0)"><line stroke="currentColor" y2="-340"></line><text fill="currentColor" y="3" dy="0.71em"></text></g><g class="tick" opacity="1" transform="translate(465.43273542600895,0)"><line stroke="currentColor" y2="-340"></line><text fill="currentColor" y="3" dy="0.71em"></text></g><g class="tick" opacity="1" transform="translate(504.17713004484307,0)"><line stroke="currentColor" y2="-340"></line><text fill="currentColor" y="3" dy="0.71em"></text></g><g class="tick" opacity="1" transform="translate(542.9215246636771,0)"><line stroke="currentColor" y2="-340"></line><text fill="currentColor" y="3" dy="0.71em"></text></g><g class="tick" opacity="1" transform="translate(581.6659192825113,0)"><line stroke="currentColor" y2="-340"></line><text fill="currentColor" y="3" dy="0.71em"></text></g><g class="tick" opacity="1" transform="translate(620.4103139013454,0)"><line stroke="currentColor" y2="-340"></line><text fill="currentColor" y="3" dy="0.71em"></text></g><g class="tick" opacity="1" transform="translate(659.1547085201794,0)"><line stroke="currentColor" y2="-340"></line><text fill="currentColor" y="3" dy="0.71em"></text></g><g class="tick" opacity="1" transform="translate(697.8991031390135,0)"><line stroke="currentColor" y2="-340"></line><text fill="currentColor" y="3" dy="0.71em"></text></g></g><g class="grid" fill="none" font-size="10" font-family="sans-serif" text-anchor="end" style="stroke-dasharray: 3,3; opacity: 0.3;"><path class="domain" stroke="currentColor" d="M720,340.5H0.5V0.5H720"></path><g class="tick" opacity="1" transform="translate(0,340.5)"><line stroke="currentColor" x2="720"></line><text fill="currentColor" x="-3" dy="0.32em"></text></g><g class="tick" opacity="1" transform="translate(0,314.34615384615387)"><line stroke="currentColor" x2="720"></line><text fill="currentColor" x="-3" dy="0.32em"></text></g><g class="tick" opacity="1" transform="translate(0,288.1923076923077)"><line stroke="currentColor" x2="720"></line><text fill="currentColor" x="-3" dy="0.32em"></text></g><g class="tick" opacity="1" transform="translate(0,262.0384615384615)"><line stroke="currentColor" x2="720"></line><text fill="currentColor" x="-3" dy="0.32em"></text></g><g class="tick" opacity="1" transform="translate(0,235.8846153846154)"><line stroke="currentColor" x2="720"></line><text fill="currentColor" x="-3" dy="0.32em"></text></g><g class="tick" opacity="1" transform="translate(0,209.73076923076925)"><line stroke="currentColor" x2="720"></line><text fill="currentColor" x="-3" dy="0.32em"></text></g><g class="tick" opacity="1" transform="translate(0,183.5769230769231)"><line stroke="currentColor" x2="720"></line><text fill="currentColor" x="-3" dy="0.32em"></text></g><g class="tick" opacity="1" transform="translate(0,157.42307692307693)"><line stroke="currentColor" x2="720"></line><text fill="currentColor" x="-3" dy="0.32em"></text></g><g class="tick" opacity="1" transform="translate(0,131.26923076923075)"><line stroke="currentColor" x2="720"></line><text fill="currentColor" x="-3" dy="0.32em"></text></g><g class="tick" opacity="1" transform="translate(0,105.11538461538463)"><line stroke="currentColor" x2="720"></line><text fill="currentColor" x="-3" dy="0.32em"></text></g><g class="tick" opacity="1" transform="translate(0,78.96153846153848)"><line stroke="currentColor" x2="720"></line><text fill="currentColor" x="-3" dy="0.32em"></text></g><g class="tick" opacity="1" transform="translate(0,52.807692307692314)"><line stroke="currentColor" x2="720"></line><text fill="currentColor" x="-3" dy="0.32em"></text></g><g class="tick" opacity="1" transform="translate(0,26.653846153846136)"><line stroke="currentColor" x2="720"></line><text fill="currentColor" x="-3" dy="0.32em"></text></g><g class="tick" opacity="1" transform="translate(0,0.5)"><line stroke="currentColor" x2="720"></line><text fill="currentColor" x="-3" dy="0.32em"></text></g></g></g><text x="400" y="10" text-anchor="middle" style="font-size: 16px; font-weight: bold; fill: #333;">OKX USDT Lending Rate - Current Month</text></svg>