<svg width="800" height="400" xmlns="http://www.w3.org/2000/svg"><g transform="translate(50,20)"><g transform="translate(0,340)" fill="none" font-size="10" font-family="sans-serif" text-anchor="middle"><path class="domain" stroke="currentColor" d="M0.5,6V0.5H720.5V6"></path><g class="tick" opacity="1" transform="translate(0.5,0)"><line stroke="currentColor" y2="6"></line><text fill="currentColor" y="9" dy=".15em" style="text-anchor: end;" dx="-.8em" transform="rotate(-45)">12/01</text></g><g class="tick" opacity="1" transform="translate(70.7439024390244,0)"><line stroke="currentColor" y2="6"></line><text fill="currentColor" y="9" dy=".15em" style="text-anchor: end;" dx="-.8em" transform="rotate(-45)">12/02</text></g><g class="tick" opacity="1" transform="translate(140.9878048780488,0)"><line stroke="currentColor" y2="6"></line><text fill="currentColor" y="9" dy=".15em" style="text-anchor: end;" dx="-.8em" transform="rotate(-45)">12/03</text></g><g class="tick" opacity="1" transform="translate(211.23170731707316,0)"><line stroke="currentColor" y2="6"></line><text fill="currentColor" y="9" dy=".15em" style="text-anchor: end;" dx="-.8em" transform="rotate(-45)">12/04</text></g><g class="tick" opacity="1" transform="translate(281.4756097560976,0)"><line stroke="currentColor" y2="6"></line><text fill="currentColor" y="9" dy=".15em" style="text-anchor: end;" dx="-.8em" transform="rotate(-45)">12/05</text></g><g class="tick" opacity="1" transform="translate(351.7195121951219,0)"><line stroke="currentColor" y2="6"></line><text fill="currentColor" y="9" dy=".15em" style="text-anchor: end;" dx="-.8em" transform="rotate(-45)">12/06</text></g><g class="tick" opacity="1" transform="translate(421.9634146341463,0)"><line stroke="currentColor" y2="6"></line><text fill="currentColor" y="9" dy=".15em" style="text-anchor: end;" dx="-.8em" transform="rotate(-45)">12/07</text></g><g class="tick" opacity="1" transform="translate(492.20731707317077,0)"><line stroke="currentColor" y2="6"></line><text fill="currentColor" y="9" dy=".15em" style="text-anchor: end;" dx="-.8em" transform="rotate(-45)">12/08</text></g><g class="tick" opacity="1" transform="translate(562.4512195121952,0)"><line stroke="currentColor" y2="6"></line><text fill="currentColor" y="9" dy=".15em" style="text-anchor: end;" dx="-.8em" transform="rotate(-45)">12/09</text></g><g class="tick" opacity="1" transform="translate(632.6951219512196,0)"><line stroke="currentColor" y2="6"></line><text fill="currentColor" y="9" dy=".15em" style="text-anchor: end;" dx="-.8em" transform="rotate(-45)">12/10</text></g><g class="tick" opacity="1" transform="translate(702.9390243902438,0)"><line stroke="currentColor" y2="6"></line><text fill="currentColor" y="9" dy=".15em" style="text-anchor: end;" dx="-.8em" transform="rotate(-45)">12/11</text></g></g><g fill="none" font-size="10" font-family="sans-serif" text-anchor="end"><path class="domain" stroke="currentColor" d="M-6,340.5H0.5V0.5H-6"></path><g class="tick" opacity="1" transform="translate(0,170.5)"><line stroke="currentColor" x2="-6"></line><text fill="currentColor" x="-9" dy="0.32em">3.50%</text></g></g><text transform="rotate(-90)" y="-50" x="-170" dy="1em" style="text-anchor: middle; font-size: 12px; fill: #666;">Pre Rate (%)</text><text transform="translate(360, 380)" style="text-anchor: middle; font-size: 12px; fill: #666;">Time (UTC)</text><path fill="none" stroke="#2563eb" stroke-width="2" d="M0,170C0.976,170,1.951,170,2.927,170C3.902,170,4.878,170,5.854,170C6.829,170,7.805,170,8.78,170C9.756,170,10.732,170,11.707,170C12.683,170,13.659,170,14.634,170C15.61,170,16.585,170,17.561,170C18.537,170,19.512,170,20.488,170C21.463,170,22.439,170,23.415,170C24.39,170,25.366,170,26.341,170C27.317,170,28.293,170,29.268,170C30.244,170,31.22,170,32.195,170C33.171,170,34.146,170,35.122,170C36.098,170,37.073,170,38.049,170C39.024,170,40,170,40.976,170C41.951,170,42.927,170,43.902,170C44.878,170,45.854,170,46.829,170C47.805,170,48.78,170,49.756,170C50.732,170,51.707,170,52.683,170C53.659,170,54.634,170,55.61,170C56.585,170,57.561,170,58.537,170C59.512,170,60.488,170,61.463,170C62.439,170,63.415,170,64.39,170C65.366,170,66.341,170,67.317,170C68.293,170,69.268,170,70.244,170C71.22,170,72.195,170,73.171,170C74.146,170,75.122,170,76.098,170C77.073,170,78.049,170,79.024,170C80,170,80.976,170,81.951,170C82.927,170,83.902,170,84.878,170C85.854,170,86.829,170,87.805,170C88.78,170,89.756,170,90.732,170C91.707,170,92.683,170,93.659,170C94.634,170,95.61,170,96.585,170C97.561,170,98.537,170,99.512,170C100.488,170,101.463,170,102.439,170C103.415,170,104.39,170,105.366,170C106.341,170,107.317,170,108.293,170C109.268,170,110.244,170,111.22,170C112.195,170,113.171,170,114.146,170C115.122,170,116.098,170,117.073,170C118.049,170,119.024,170,120,170C120.976,170,121.951,170,122.927,170C123.902,170,124.878,170,125.854,170C126.829,170,127.805,170,128.78,170C129.756,170,130.732,170,131.707,170C132.683,170,133.659,170,134.634,170C135.61,170,136.585,170,137.561,170C138.537,170,139.512,170,140.488,170C141.463,170,142.439,170,143.415,170C144.39,170,145.366,170,146.341,170C147.317,170,148.293,170,149.268,170C150.244,170,151.22,170,152.195,170C153.171,170,154.146,170,155.122,170C156.098,170,157.073,170,158.049,170C159.024,170,160,170,160.976,170C161.951,170,162.927,170,163.902,170C164.878,170,165.854,170,166.829,170C167.805,170,168.78,170,169.756,170C170.732,170,171.707,170,172.683,170C173.659,170,174.634,170,175.61,170C176.585,170,177.561,170,178.537,170C179.512,170,180.488,170,181.463,170C182.439,170,183.415,170,184.39,170C185.366,170,186.341,170,187.317,170C188.293,170,189.268,170,190.244,170C191.22,170,192.195,170,193.171,170C194.146,170,195.122,170,196.098,170C197.073,170,198.049,170,199.024,170C200,170,200.976,170,201.951,170C202.927,170,203.902,170,204.878,170C205.854,170,206.829,170,207.805,170C208.78,170,209.756,170,210.732,170C211.707,170,212.683,170,213.659,170C214.634,170,215.61,170,216.585,170C217.561,170,218.537,170,219.512,170C220.488,170,221.463,170,222.439,170C223.415,170,224.39,170,225.366,170C226.341,170,227.317,170,228.293,170C229.268,170,230.244,170,231.22,170C232.195,170,233.171,170,234.146,170C235.122,170,236.098,170,237.073,170C238.049,170,239.024,170,240,170C240.976,170,241.951,170,242.927,170C243.902,170,244.878,170,245.854,170C246.829,170,247.805,170,248.78,170C249.756,170,250.732,170,251.707,170C252.683,170,253.659,170,254.634,170C255.61,170,256.585,170,257.561,170C258.537,170,259.512,170,260.488,170C261.463,170,262.439,170,263.415,170C264.39,170,265.366,170,266.341,170C267.317,170,268.293,170,269.268,170C270.244,170,271.22,170,272.195,170C273.171,170,274.146,170,275.122,170C276.098,170,277.073,170,278.049,170C279.024,170,280,170,280.976,170C281.951,170,282.927,170,283.902,170C284.878,170,285.854,170,286.829,170C287.805,170,288.78,170,289.756,170C290.732,170,291.707,170,292.683,170C293.659,170,294.634,170,295.61,170C296.585,170,297.561,170,298.537,170C299.512,170,300.488,170,301.463,170C302.439,170,303.415,170,304.39,170C305.366,170,306.341,170,307.317,170C308.293,170,309.268,170,310.244,170C311.22,170,312.195,170,313.171,170C314.146,170,315.122,170,316.098,170C317.073,170,318.049,170,319.024,170C320,170,320.976,170,321.951,170C322.927,170,323.902,170,324.878,170C325.854,170,326.829,170,327.805,170C328.78,170,329.756,170,330.732,170C331.707,170,332.683,170,333.659,170C334.634,170,335.61,170,336.585,170C337.561,170,338.537,170,339.512,170C340.488,170,341.463,170,342.439,170C343.415,170,344.39,170,345.366,170C346.341,170,347.317,170,348.293,170C349.268,170,350.244,170,351.22,170C352.195,170,353.171,170,354.146,170C355.122,170,356.098,170,357.073,170C358.049,170,359.024,170,360,170C360.976,170,361.951,170,362.927,170C363.902,170,364.878,170,365.854,170C366.829,170,367.805,170,368.78,170C369.756,170,370.732,170,371.707,170C372.683,170,373.659,170,374.634,170C375.61,170,376.585,170,377.561,170C378.537,170,379.512,170,380.488,170C381.463,170,382.439,170,383.415,170C384.39,170,385.366,170,386.341,170C387.317,170,388.293,170,389.268,170C390.244,170,391.22,170,392.195,170C393.171,170,394.146,170,395.122,170C396.098,170,397.073,170,398.049,170C399.024,170,400,170,400.976,170C401.951,170,402.927,170,403.902,170C404.878,170,405.854,170,406.829,170C407.805,170,408.78,170,409.756,170C410.732,170,411.707,170,412.683,170C413.659,170,414.634,170,415.61,170C416.585,170,417.561,170,418.537,170C419.512,170,420.488,170,421.463,170C422.439,170,423.415,170,424.39,170C425.366,170,426.341,170,427.317,170C428.293,170,429.268,170,430.244,170C431.22,170,432.195,170,433.171,170C434.146,170,435.122,170,436.098,170C437.073,170,438.049,170,439.024,170C440,170,440.976,170,441.951,170C442.927,170,443.902,170,444.878,170C445.854,170,446.829,170,447.805,170C448.78,170,449.756,170,450.732,170C451.707,170,452.683,170,453.659,170C454.634,170,455.61,170,456.585,170C457.561,170,458.537,170,459.512,170C460.488,170,461.463,170,462.439,170C463.415,170,464.39,170,465.366,170C466.341,170,467.317,170,468.293,170C469.268,170,470.244,170,471.22,170C472.195,170,473.171,170,474.146,170C475.122,170,476.098,170,477.073,170C478.049,170,479.024,170,480,170C480.976,170,481.951,170,482.927,170C483.902,170,484.878,170,485.854,170C486.829,170,487.805,170,488.78,170C489.756,170,490.732,170,491.707,170C492.683,170,493.659,170,494.634,170C495.61,170,496.585,170,497.561,170C498.537,170,499.512,170,500.488,170C501.463,170,502.439,170,503.415,170C504.39,170,505.366,170,506.341,170C507.317,170,508.293,170,509.268,170C510.244,170,511.22,170,512.195,170C513.171,170,514.146,170,515.122,170C516.098,170,517.073,170,518.049,170C519.024,170,520,170,520.976,170C521.951,170,522.927,170,523.902,170C524.878,170,525.854,170,526.829,170C527.805,170,528.78,170,529.756,170C530.732,170,531.707,170,532.683,170C533.659,170,534.634,170,535.61,170C536.585,170,537.561,170,538.537,170C539.512,170,540.488,170,541.463,170C542.439,170,543.415,170,544.39,170C545.366,170,546.341,170,547.317,170C548.293,170,549.268,170,550.244,170C551.22,170,552.195,170,553.171,170C554.146,170,555.122,170,556.098,170C557.073,170,558.049,170,559.024,170C560,170,560.976,170,561.951,170C562.927,170,563.902,170,564.878,170C565.854,170,566.829,170,567.805,170C568.78,170,569.756,170,570.732,170C571.707,170,572.683,170,573.659,170C574.634,170,575.61,170,576.585,170C577.561,170,578.537,170,579.512,170C580.488,170,581.463,170,582.439,170C583.415,170,584.39,170,585.366,170C586.341,170,587.317,170,588.293,170C589.268,170,590.244,170,591.22,170C592.195,170,593.171,170,594.146,170C595.122,170,596.098,170,597.073,170C598.049,170,599.024,170,600,170C600.976,170,601.951,170,602.927,170C603.902,170,604.878,170,605.854,170C606.829,170,607.805,170,608.78,170C609.756,170,610.732,170,611.707,170C612.683,170,613.659,170,614.634,170C615.61,170,616.585,170,617.561,170C618.537,170,619.512,170,620.488,170C621.463,170,622.439,170,623.415,170C624.39,170,625.366,170,626.341,170C627.317,170,628.293,170,629.268,170C630.244,170,631.22,170,632.195,170C633.171,170,634.146,170,635.122,170C636.098,170,637.073,170,638.049,170C639.024,170,640,170,640.976,170C641.951,170,642.927,170,643.902,170C644.878,170,645.854,170,646.829,170C647.805,170,648.78,170,649.756,170C650.732,170,651.707,170,652.683,170C653.659,170,654.634,170,655.61,170C656.585,170,657.561,170,658.537,170C659.512,170,660.488,170,661.463,170C662.439,170,663.415,170,664.39,170C665.366,170,666.341,170,667.317,170C668.293,170,669.268,170,670.244,170C671.22,170,672.195,170,673.171,170C674.146,170,675.122,170,676.098,170C677.073,170,678.049,170,679.024,170C680,170,680.976,170,681.951,170C682.927,170,683.902,170,684.878,170C685.854,170,686.829,170,687.805,170C688.78,170,689.756,170,690.732,170C691.707,170,692.683,170,693.659,170C694.634,170,695.61,170,696.585,170C697.561,170,698.537,170,699.512,170C700.488,170,701.463,170,702.439,170C703.415,170,704.39,170,705.366,170C706.341,170,707.317,170,708.293,170C709.268,170,710.244,170,711.22,170C712.195,170,713.171,170,714.146,170C715.122,170,716.098,170,717.073,170C718.049,170,719.024,170,720,170"></path><circle class="dot" cx="0" cy="170" r="3" fill="#2563eb"></circle><circle class="dot" cx="2.9268292682926833" cy="170" r="3" fill="#2563eb"></circle><circle class="dot" cx="5.853658536585367" cy="170" r="3" fill="#2563eb"></circle><circle class="dot" cx="8.78048780487805" cy="170" r="3" fill="#2563eb"></circle><circle class="dot" cx="11.707317073170733" cy="170" r="3" fill="#2563eb"></circle><circle class="dot" cx="14.634146341463413" cy="170" r="3" fill="#2563eb"></circle><circle class="dot" cx="17.5609756097561" cy="170" r="3" fill="#2563eb"></circle><circle class="dot" cx="20.48780487804878" cy="170" r="3" fill="#2563eb"></circle><circle class="dot" cx="23.414634146341466" cy="170" r="3" fill="#2563eb"></circle><circle class="dot" cx="26.341463414634145" cy="170" r="3" fill="#2563eb"></circle><circle class="dot" cx="29.268292682926827" cy="170" r="3" fill="#2563eb"></circle><circle class="dot" cx="32.19512195121951" cy="170" r="3" fill="#2563eb"></circle><circle class="dot" cx="35.1219512195122" cy="170" r="3" fill="#2563eb"></circle><circle class="dot" cx="38.04878048780488" cy="170" r="3" fill="#2563eb"></circle><circle class="dot" cx="40.97560975609756" cy="170" r="3" fill="#2563eb"></circle><circle class="dot" cx="43.90243902439024" cy="170" r="3" fill="#2563eb"></circle><circle class="dot" cx="46.82926829268293" cy="170" r="3" fill="#2563eb"></circle><circle class="dot" cx="49.75609756097561" cy="170" r="3" fill="#2563eb"></circle><circle class="dot" cx="52.68292682926829" cy="170" r="3" fill="#2563eb"></circle><circle class="dot" cx="55.609756097560975" cy="170" r="3" fill="#2563eb"></circle><circle class="dot" cx="58.536585365853654" cy="170" r="3" fill="#2563eb"></circle><circle class="dot" cx="61.463414634146346" cy="170" r="3" fill="#2563eb"></circle><circle class="dot" cx="64.39024390243902" cy="170" r="3" fill="#2563eb"></circle><circle class="dot" cx="67.3170731707317" cy="170" r="3" fill="#2563eb"></circle><circle class="dot" cx="70.2439024390244" cy="170" r="3" fill="#2563eb"></circle><circle class="dot" cx="73.17073170731707" cy="170" r="3" fill="#2563eb"></circle><circle class="dot" cx="76.09756097560977" cy="170" r="3" fill="#2563eb"></circle><circle class="dot" cx="79.02439024390245" cy="170" r="3" fill="#2563eb"></circle><circle class="dot" cx="81.95121951219512" cy="170" r="3" fill="#2563eb"></circle><circle class="dot" cx="84.8780487804878" cy="170" r="3" fill="#2563eb"></circle><circle class="dot" cx="87.80487804878048" cy="170" r="3" fill="#2563eb"></circle><circle class="dot" cx="90.73170731707316" cy="170" r="3" fill="#2563eb"></circle><circle class="dot" cx="93.65853658536587" cy="170" r="3" fill="#2563eb"></circle><circle class="dot" cx="96.58536585365854" cy="170" r="3" fill="#2563eb"></circle><circle class="dot" cx="99.51219512195122" cy="170" r="3" fill="#2563eb"></circle><circle class="dot" cx="102.4390243902439" cy="170" r="3" fill="#2563eb"></circle><circle class="dot" cx="105.36585365853658" cy="170" r="3" fill="#2563eb"></circle><circle class="dot" cx="108.29268292682927" cy="170" r="3" fill="#2563eb"></circle><circle class="dot" cx="111.21951219512195" cy="170" r="3" fill="#2563eb"></circle><circle class="dot" cx="114.14634146341463" cy="170" r="3" fill="#2563eb"></circle><circle class="dot" cx="117.07317073170731" cy="170" r="3" fill="#2563eb"></circle><circle class="dot" cx="120" cy="170" r="3" fill="#2563eb"></circle><circle class="dot" cx="122.92682926829269" cy="170" r="3" fill="#2563eb"></circle><circle class="dot" cx="125.85365853658537" cy="170" r="3" fill="#2563eb"></circle><circle class="dot" cx="128.78048780487805" cy="170" r="3" fill="#2563eb"></circle><circle class="dot" cx="131.70731707317074" cy="170" r="3" fill="#2563eb"></circle><circle class="dot" cx="134.6341463414634" cy="170" r="3" fill="#2563eb"></circle><circle class="dot" cx="137.5609756097561" cy="170" r="3" fill="#2563eb"></circle><circle class="dot" cx="140.4878048780488" cy="170" r="3" fill="#2563eb"></circle><circle class="dot" cx="143.41463414634146" cy="170" r="3" fill="#2563eb"></circle><circle class="dot" cx="146.34146341463415" cy="170" r="3" fill="#2563eb"></circle><circle class="dot" cx="149.2682926829268" cy="170" r="3" fill="#2563eb"></circle><circle class="dot" cx="152.19512195121953" cy="170" r="3" fill="#2563eb"></circle><circle class="dot" cx="155.1219512195122" cy="170" r="3" fill="#2563eb"></circle><circle class="dot" cx="158.0487804878049" cy="170" r="3" fill="#2563eb"></circle><circle class="dot" cx="160.97560975609755" cy="170" r="3" fill="#2563eb"></circle><circle class="dot" cx="163.90243902439025" cy="170" r="3" fill="#2563eb"></circle><circle class="dot" cx="166.82926829268294" cy="170" r="3" fill="#2563eb"></circle><circle class="dot" cx="169.7560975609756" cy="170" r="3" fill="#2563eb"></circle><circle class="dot" cx="172.6829268292683" cy="170" r="3" fill="#2563eb"></circle><circle class="dot" cx="175.60975609756096" cy="170" r="3" fill="#2563eb"></circle><circle class="dot" cx="178.53658536585365" cy="170" r="3" fill="#2563eb"></circle><circle class="dot" cx="181.46341463414632" cy="170" r="3" fill="#2563eb"></circle><circle class="dot" cx="184.39024390243904" cy="170" r="3" fill="#2563eb"></circle><circle class="dot" cx="187.31707317073173" cy="170" r="3" fill="#2563eb"></circle><circle class="dot" cx="190.2439024390244" cy="170" r="3" fill="#2563eb"></circle><circle class="dot" cx="193.1707317073171" cy="170" r="3" fill="#2563eb"></circle><circle class="dot" cx="196.09756097560975" cy="170" r="3" fill="#2563eb"></circle><circle class="dot" cx="199.02439024390245" cy="170" r="3" fill="#2563eb"></circle><circle class="dot" cx="201.95121951219514" cy="170" r="3" fill="#2563eb"></circle><circle class="dot" cx="204.8780487804878" cy="170" r="3" fill="#2563eb"></circle><circle class="dot" cx="207.8048780487805" cy="170" r="3" fill="#2563eb"></circle><circle class="dot" cx="210.73170731707316" cy="170" r="3" fill="#2563eb"></circle><circle class="dot" cx="213.65853658536585" cy="170" r="3" fill="#2563eb"></circle><circle class="dot" cx="216.58536585365854" cy="170" r="3" fill="#2563eb"></circle><circle class="dot" cx="219.5121951219512" cy="170" r="3" fill="#2563eb"></circle><circle class="dot" cx="222.4390243902439" cy="170" r="3" fill="#2563eb"></circle><circle class="dot" cx="225.36585365853657" cy="170" r="3" fill="#2563eb"></circle><circle class="dot" cx="228.29268292682926" cy="170" r="3" fill="#2563eb"></circle><circle class="dot" cx="231.21951219512198" cy="170" r="3" fill="#2563eb"></circle><circle class="dot" cx="234.14634146341461" cy="170" r="3" fill="#2563eb"></circle><circle class="dot" cx="237.07317073170734" cy="170" r="3" fill="#2563eb"></circle><circle class="dot" cx="240" cy="170" r="3" fill="#2563eb"></circle><circle class="dot" cx="242.9268292682927" cy="170" r="3" fill="#2563eb"></circle><circle class="dot" cx="245.85365853658539" cy="170" r="3" fill="#2563eb"></circle><circle class="dot" cx="248.78048780487805" cy="170" r="3" fill="#2563eb"></circle><circle class="dot" cx="251.70731707317074" cy="170" r="3" fill="#2563eb"></circle><circle class="dot" cx="254.6341463414634" cy="170" r="3" fill="#2563eb"></circle><circle class="dot" cx="257.5609756097561" cy="170" r="3" fill="#2563eb"></circle><circle class="dot" cx="260.4878048780488" cy="170" r="3" fill="#2563eb"></circle><circle class="dot" cx="263.4146341463415" cy="170" r="3" fill="#2563eb"></circle><circle class="dot" cx="266.3414634146342" cy="170" r="3" fill="#2563eb"></circle><circle class="dot" cx="269.2682926829268" cy="170" r="3" fill="#2563eb"></circle><circle class="dot" cx="272.1951219512195" cy="170" r="3" fill="#2563eb"></circle><circle class="dot" cx="275.1219512195122" cy="170" r="3" fill="#2563eb"></circle><circle class="dot" cx="278.0487804878049" cy="170" r="3" fill="#2563eb"></circle><circle class="dot" cx="280.9756097560976" cy="170" r="3" fill="#2563eb"></circle><circle class="dot" cx="283.9024390243902" cy="170" r="3" fill="#2563eb"></circle><circle class="dot" cx="286.8292682926829" cy="170" r="3" fill="#2563eb"></circle><circle class="dot" cx="289.7560975609756" cy="170" r="3" fill="#2563eb"></circle><circle class="dot" cx="292.6829268292683" cy="170" r="3" fill="#2563eb"></circle><circle class="dot" cx="295.609756097561" cy="170" r="3" fill="#2563eb"></circle><circle class="dot" cx="298.5365853658536" cy="170" r="3" fill="#2563eb"></circle><circle class="dot" cx="301.4634146341463" cy="170" r="3" fill="#2563eb"></circle><circle class="dot" cx="304.39024390243907" cy="170" r="3" fill="#2563eb"></circle><circle class="dot" cx="307.3170731707317" cy="170" r="3" fill="#2563eb"></circle><circle class="dot" cx="310.2439024390244" cy="170" r="3" fill="#2563eb"></circle><circle class="dot" cx="313.17073170731703" cy="170" r="3" fill="#2563eb"></circle><circle class="dot" cx="316.0975609756098" cy="170" r="3" fill="#2563eb"></circle><circle class="dot" cx="319.0243902439025" cy="170" r="3" fill="#2563eb"></circle><circle class="dot" cx="321.9512195121951" cy="170" r="3" fill="#2563eb"></circle><circle class="dot" cx="324.8780487804878" cy="170" r="3" fill="#2563eb"></circle><circle class="dot" cx="327.8048780487805" cy="170" r="3" fill="#2563eb"></circle><circle class="dot" cx="330.7317073170732" cy="170" r="3" fill="#2563eb"></circle><circle class="dot" cx="333.6585365853659" cy="170" r="3" fill="#2563eb"></circle><circle class="dot" cx="336.5853658536585" cy="170" r="3" fill="#2563eb"></circle><circle class="dot" cx="339.5121951219512" cy="170" r="3" fill="#2563eb"></circle><circle class="dot" cx="342.4390243902439" cy="170" r="3" fill="#2563eb"></circle><circle class="dot" cx="345.3658536585366" cy="170" r="3" fill="#2563eb"></circle><circle class="dot" cx="348.2926829268293" cy="170" r="3" fill="#2563eb"></circle><circle class="dot" cx="351.2195121951219" cy="170" r="3" fill="#2563eb"></circle><circle class="dot" cx="354.1463414634146" cy="170" r="3" fill="#2563eb"></circle><circle class="dot" cx="357.0731707317073" cy="170" r="3" fill="#2563eb"></circle><circle class="dot" cx="360" cy="170" r="3" fill="#2563eb"></circle><circle class="dot" cx="362.92682926829264" cy="170" r="3" fill="#2563eb"></circle><circle class="dot" cx="365.8536585365854" cy="170" r="3" fill="#2563eb"></circle><circle class="dot" cx="368.7804878048781" cy="170" r="3" fill="#2563eb"></circle><circle class="dot" cx="371.7073170731707" cy="170" r="3" fill="#2563eb"></circle><circle class="dot" cx="374.63414634146346" cy="170" r="3" fill="#2563eb"></circle><circle class="dot" cx="377.5609756097561" cy="170" r="3" fill="#2563eb"></circle><circle class="dot" cx="380.4878048780488" cy="170" r="3" fill="#2563eb"></circle><circle class="dot" cx="383.4146341463414" cy="170" r="3" fill="#2563eb"></circle><circle class="dot" cx="386.3414634146342" cy="170" r="3" fill="#2563eb"></circle><circle class="dot" cx="389.2682926829268" cy="170" r="3" fill="#2563eb"></circle><circle class="dot" cx="392.1951219512195" cy="170" r="3" fill="#2563eb"></circle><circle class="dot" cx="395.1219512195122" cy="170" r="3" fill="#2563eb"></circle><circle class="dot" cx="398.0487804878049" cy="170" r="3" fill="#2563eb"></circle><circle class="dot" cx="400.9756097560975" cy="170" r="3" fill="#2563eb"></circle><circle class="dot" cx="403.9024390243903" cy="170" r="3" fill="#2563eb"></circle><circle class="dot" cx="406.82926829268297" cy="170" r="3" fill="#2563eb"></circle><circle class="dot" cx="409.7560975609756" cy="170" r="3" fill="#2563eb"></circle><circle class="dot" cx="412.68292682926824" cy="170" r="3" fill="#2563eb"></circle><circle class="dot" cx="415.609756097561" cy="170" r="3" fill="#2563eb"></circle><circle class="dot" cx="418.5365853658537" cy="170" r="3" fill="#2563eb"></circle><circle class="dot" cx="421.4634146341463" cy="170" r="3" fill="#2563eb"></circle><circle class="dot" cx="424.39024390243907" cy="170" r="3" fill="#2563eb"></circle><circle class="dot" cx="427.3170731707317" cy="170" r="3" fill="#2563eb"></circle><circle class="dot" cx="430.2439024390244" cy="170" r="3" fill="#2563eb"></circle><circle class="dot" cx="433.1707317073171" cy="170" r="3" fill="#2563eb"></circle><circle class="dot" cx="436.0975609756098" cy="170" r="3" fill="#2563eb"></circle><circle class="dot" cx="439.0243902439024" cy="170" r="3" fill="#2563eb"></circle><circle class="dot" cx="441.9512195121951" cy="170" r="3" fill="#2563eb"></circle><circle class="dot" cx="444.8780487804878" cy="170" r="3" fill="#2563eb"></circle><circle class="dot" cx="447.8048780487805" cy="170" r="3" fill="#2563eb"></circle><circle class="dot" cx="450.73170731707313" cy="170" r="3" fill="#2563eb"></circle><circle class="dot" cx="453.6585365853659" cy="170" r="3" fill="#2563eb"></circle><circle class="dot" cx="456.5853658536585" cy="170" r="3" fill="#2563eb"></circle><circle class="dot" cx="459.5121951219512" cy="170" r="3" fill="#2563eb"></circle><circle class="dot" cx="462.43902439024396" cy="170" r="3" fill="#2563eb"></circle><circle class="dot" cx="465.3658536585366" cy="170" r="3" fill="#2563eb"></circle><circle class="dot" cx="468.29268292682923" cy="170" r="3" fill="#2563eb"></circle><circle class="dot" cx="471.2195121951219" cy="170" r="3" fill="#2563eb"></circle><circle class="dot" cx="474.1463414634147" cy="170" r="3" fill="#2563eb"></circle><circle class="dot" cx="477.0731707317073" cy="170" r="3" fill="#2563eb"></circle><circle class="dot" cx="480" cy="170" r="3" fill="#2563eb"></circle><circle class="dot" cx="482.9268292682927" cy="170" r="3" fill="#2563eb"></circle><circle class="dot" cx="485.8536585365854" cy="170" r="3" fill="#2563eb"></circle><circle class="dot" cx="488.780487804878" cy="170" r="3" fill="#2563eb"></circle><circle class="dot" cx="491.70731707317077" cy="170" r="3" fill="#2563eb"></circle><circle class="dot" cx="494.6341463414634" cy="170" r="3" fill="#2563eb"></circle><circle class="dot" cx="497.5609756097561" cy="170" r="3" fill="#2563eb"></circle><circle class="dot" cx="500.48780487804873" cy="170" r="3" fill="#2563eb"></circle><circle class="dot" cx="503.4146341463415" cy="170" r="3" fill="#2563eb"></circle><circle class="dot" cx="506.3414634146341" cy="170" r="3" fill="#2563eb"></circle><circle class="dot" cx="509.2682926829268" cy="170" r="3" fill="#2563eb"></circle><circle class="dot" cx="512.1951219512196" cy="170" r="3" fill="#2563eb"></circle><circle class="dot" cx="515.1219512195122" cy="170" r="3" fill="#2563eb"></circle><circle class="dot" cx="518.0487804878048" cy="170" r="3" fill="#2563eb"></circle><circle class="dot" cx="520.9756097560976" cy="170" r="3" fill="#2563eb"></circle><circle class="dot" cx="523.9024390243902" cy="170" r="3" fill="#2563eb"></circle><circle class="dot" cx="526.829268292683" cy="170" r="3" fill="#2563eb"></circle><circle class="dot" cx="529.7560975609756" cy="170" r="3" fill="#2563eb"></circle><circle class="dot" cx="532.6829268292684" cy="170" r="3" fill="#2563eb"></circle><circle class="dot" cx="535.609756097561" cy="170" r="3" fill="#2563eb"></circle><circle class="dot" cx="538.5365853658536" cy="170" r="3" fill="#2563eb"></circle><circle class="dot" cx="541.4634146341464" cy="170" r="3" fill="#2563eb"></circle><circle class="dot" cx="544.390243902439" cy="170" r="3" fill="#2563eb"></circle><circle class="dot" cx="547.3170731707316" cy="170" r="3" fill="#2563eb"></circle><circle class="dot" cx="550.2439024390244" cy="170" r="3" fill="#2563eb"></circle><circle class="dot" cx="553.170731707317" cy="170" r="3" fill="#2563eb"></circle><circle class="dot" cx="556.0975609756098" cy="170" r="3" fill="#2563eb"></circle><circle class="dot" cx="559.0243902439024" cy="170" r="3" fill="#2563eb"></circle><circle class="dot" cx="561.9512195121952" cy="170" r="3" fill="#2563eb"></circle><circle class="dot" cx="564.8780487804878" cy="170" r="3" fill="#2563eb"></circle><circle class="dot" cx="567.8048780487804" cy="170" r="3" fill="#2563eb"></circle><circle class="dot" cx="570.7317073170732" cy="170" r="3" fill="#2563eb"></circle><circle class="dot" cx="573.6585365853658" cy="170" r="3" fill="#2563eb"></circle><circle class="dot" cx="576.5853658536585" cy="170" r="3" fill="#2563eb"></circle><circle class="dot" cx="579.5121951219512" cy="170" r="3" fill="#2563eb"></circle><circle class="dot" cx="582.439024390244" cy="170" r="3" fill="#2563eb"></circle><circle class="dot" cx="585.3658536585366" cy="170" r="3" fill="#2563eb"></circle><circle class="dot" cx="588.2926829268292" cy="170" r="3" fill="#2563eb"></circle><circle class="dot" cx="591.219512195122" cy="170" r="3" fill="#2563eb"></circle><circle class="dot" cx="594.1463414634146" cy="170" r="3" fill="#2563eb"></circle><circle class="dot" cx="597.0731707317073" cy="170" r="3" fill="#2563eb"></circle><circle class="dot" cx="600" cy="170" r="3" fill="#2563eb"></circle><circle class="dot" cx="602.9268292682926" cy="170" r="3" fill="#2563eb"></circle><circle class="dot" cx="605.8536585365854" cy="170" r="3" fill="#2563eb"></circle><circle class="dot" cx="608.7804878048781" cy="170" r="3" fill="#2563eb"></circle><circle class="dot" cx="611.7073170731708" cy="170" r="3" fill="#2563eb"></circle><circle class="dot" cx="614.6341463414634" cy="170" r="3" fill="#2563eb"></circle><circle class="dot" cx="617.560975609756" cy="170" r="3" fill="#2563eb"></circle><circle class="dot" cx="620.4878048780488" cy="170" r="3" fill="#2563eb"></circle><circle class="dot" cx="623.4146341463414" cy="170" r="3" fill="#2563eb"></circle><circle class="dot" cx="626.3414634146341" cy="170" r="3" fill="#2563eb"></circle><circle class="dot" cx="629.2682926829268" cy="170" r="3" fill="#2563eb"></circle><circle class="dot" cx="632.1951219512196" cy="170" r="3" fill="#2563eb"></circle><circle class="dot" cx="635.1219512195122" cy="170" r="3" fill="#2563eb"></circle><circle class="dot" cx="638.048780487805" cy="170" r="3" fill="#2563eb"></circle><circle class="dot" cx="640.9756097560976" cy="170" r="3" fill="#2563eb"></circle><circle class="dot" cx="643.9024390243902" cy="170" r="3" fill="#2563eb"></circle><circle class="dot" cx="646.8292682926829" cy="170" r="3" fill="#2563eb"></circle><circle class="dot" cx="649.7560975609756" cy="170" r="3" fill="#2563eb"></circle><circle class="dot" cx="652.6829268292682" cy="170" r="3" fill="#2563eb"></circle><circle class="dot" cx="655.609756097561" cy="170" r="3" fill="#2563eb"></circle><circle class="dot" cx="658.5365853658537" cy="170" r="3" fill="#2563eb"></circle><circle class="dot" cx="661.4634146341464" cy="170" r="3" fill="#2563eb"></circle><circle class="dot" cx="664.390243902439" cy="170" r="3" fill="#2563eb"></circle><circle class="dot" cx="667.3170731707318" cy="170" r="3" fill="#2563eb"></circle><circle class="dot" cx="670.2439024390244" cy="170" r="3" fill="#2563eb"></circle><circle class="dot" cx="673.170731707317" cy="170" r="3" fill="#2563eb"></circle><circle class="dot" cx="676.0975609756097" cy="170" r="3" fill="#2563eb"></circle><circle class="dot" cx="679.0243902439024" cy="170" r="3" fill="#2563eb"></circle><circle class="dot" cx="681.9512195121952" cy="170" r="3" fill="#2563eb"></circle><circle class="dot" cx="684.8780487804878" cy="170" r="3" fill="#2563eb"></circle><circle class="dot" cx="687.8048780487806" cy="170" r="3" fill="#2563eb"></circle><circle class="dot" cx="690.7317073170732" cy="170" r="3" fill="#2563eb"></circle><circle class="dot" cx="693.6585365853658" cy="170" r="3" fill="#2563eb"></circle><circle class="dot" cx="696.5853658536586" cy="170" r="3" fill="#2563eb"></circle><circle class="dot" cx="699.5121951219512" cy="170" r="3" fill="#2563eb"></circle><circle class="dot" cx="702.4390243902438" cy="170" r="3" fill="#2563eb"></circle><circle class="dot" cx="705.3658536585366" cy="170" r="3" fill="#2563eb"></circle><circle class="dot" cx="708.2926829268292" cy="170" r="3" fill="#2563eb"></circle><circle class="dot" cx="711.219512195122" cy="170" r="3" fill="#2563eb"></circle><circle class="dot" cx="714.1463414634146" cy="170" r="3" fill="#2563eb"></circle><circle class="dot" cx="717.0731707317074" cy="170" r="3" fill="#2563eb"></circle><circle class="dot" cx="720" cy="170" r="3" fill="#2563eb"></circle><g class="grid" transform="translate(0,340)" fill="none" font-size="10" font-family="sans-serif" text-anchor="middle" style="stroke-dasharray: 3,3; opacity: 0.3;"><path class="domain" stroke="currentColor" d="M0.5,-340V0.5H720.5V-340"></path><g class="tick" opacity="1" transform="translate(0.5,0)"><line stroke="currentColor" y2="-340"></line><text fill="currentColor" y="3" dy="0.71em"></text></g><g class="tick" opacity="1" transform="translate(70.7439024390244,0)"><line stroke="currentColor" y2="-340"></line><text fill="currentColor" y="3" dy="0.71em"></text></g><g class="tick" opacity="1" transform="translate(140.9878048780488,0)"><line stroke="currentColor" y2="-340"></line><text fill="currentColor" y="3" dy="0.71em"></text></g><g class="tick" opacity="1" transform="translate(211.23170731707316,0)"><line stroke="currentColor" y2="-340"></line><text fill="currentColor" y="3" dy="0.71em"></text></g><g class="tick" opacity="1" transform="translate(281.4756097560976,0)"><line stroke="currentColor" y2="-340"></line><text fill="currentColor" y="3" dy="0.71em"></text></g><g class="tick" opacity="1" transform="translate(351.7195121951219,0)"><line stroke="currentColor" y2="-340"></line><text fill="currentColor" y="3" dy="0.71em"></text></g><g class="tick" opacity="1" transform="translate(421.9634146341463,0)"><line stroke="currentColor" y2="-340"></line><text fill="currentColor" y="3" dy="0.71em"></text></g><g class="tick" opacity="1" transform="translate(492.20731707317077,0)"><line stroke="currentColor" y2="-340"></line><text fill="currentColor" y="3" dy="0.71em"></text></g><g class="tick" opacity="1" transform="translate(562.4512195121952,0)"><line stroke="currentColor" y2="-340"></line><text fill="currentColor" y="3" dy="0.71em"></text></g><g class="tick" opacity="1" transform="translate(632.6951219512196,0)"><line stroke="currentColor" y2="-340"></line><text fill="currentColor" y="3" dy="0.71em"></text></g><g class="tick" opacity="1" transform="translate(702.9390243902438,0)"><line stroke="currentColor" y2="-340"></line><text fill="currentColor" y="3" dy="0.71em"></text></g></g><g class="grid" fill="none" font-size="10" font-family="sans-serif" text-anchor="end" style="stroke-dasharray: 3,3; opacity: 0.3;"><path class="domain" stroke="currentColor" d="M720,340.5H0.5V0.5H720"></path><g class="tick" opacity="1" transform="translate(0,170.5)"><line stroke="currentColor" x2="720"></line><text fill="currentColor" x="-3" dy="0.32em"></text></g></g></g><text x="400" y="10" text-anchor="middle" style="font-size: 16px; font-weight: bold; fill: #333;">OKX USDT Lending Rate - Current Month</text></svg>