<svg width="800" height="400" xmlns="http://www.w3.org/2000/svg"><g transform="translate(50,20)"><g transform="translate(0,340)" fill="none" font-size="10" font-family="sans-serif" text-anchor="middle"><path class="domain" stroke="currentColor" d="M0.5,6V0.5H720.5V6"></path><g class="tick" opacity="1" transform="translate(0.5,0)"><line stroke="currentColor" y2="6"></line><text fill="currentColor" y="9" dy=".15em" style="text-anchor: end;" dx="-.8em" transform="rotate(-45)">10/01</text></g><g class="tick" opacity="1" transform="translate(43.27227722772277,0)"><line stroke="currentColor" y2="6"></line><text fill="currentColor" y="9" dy=".15em" style="text-anchor: end;" dx="-.8em" transform="rotate(-45)">10/02</text></g><g class="tick" opacity="1" transform="translate(86.04455445544554,0)"><line stroke="currentColor" y2="6"></line><text fill="currentColor" y="9" dy=".15em" style="text-anchor: end;" dx="-.8em" transform="rotate(-45)">10/03</text></g><g class="tick" opacity="1" transform="translate(128.81683168316832,0)"><line stroke="currentColor" y2="6"></line><text fill="currentColor" y="9" dy=".15em" style="text-anchor: end;" dx="-.8em" transform="rotate(-45)">10/04</text></g><g class="tick" opacity="1" transform="translate(171.58910891089107,0)"><line stroke="currentColor" y2="6"></line><text fill="currentColor" y="9" dy=".15em" style="text-anchor: end;" dx="-.8em" transform="rotate(-45)">10/05</text></g><g class="tick" opacity="1" transform="translate(214.36138613861385,0)"><line stroke="currentColor" y2="6"></line><text fill="currentColor" y="9" dy=".15em" style="text-anchor: end;" dx="-.8em" transform="rotate(-45)">10/06</text></g><g class="tick" opacity="1" transform="translate(257.13366336633663,0)"><line stroke="currentColor" y2="6"></line><text fill="currentColor" y="9" dy=".15em" style="text-anchor: end;" dx="-.8em" transform="rotate(-45)">10/07</text></g><g class="tick" opacity="1" transform="translate(299.9059405940594,0)"><line stroke="currentColor" y2="6"></line><text fill="currentColor" y="9" dy=".15em" style="text-anchor: end;" dx="-.8em" transform="rotate(-45)">10/08</text></g><g class="tick" opacity="1" transform="translate(342.67821782178214,0)"><line stroke="currentColor" y2="6"></line><text fill="currentColor" y="9" dy=".15em" style="text-anchor: end;" dx="-.8em" transform="rotate(-45)">10/09</text></g><g class="tick" opacity="1" transform="translate(385.450495049505,0)"><line stroke="currentColor" y2="6"></line><text fill="currentColor" y="9" dy=".15em" style="text-anchor: end;" dx="-.8em" transform="rotate(-45)">10/10</text></g><g class="tick" opacity="1" transform="translate(428.2227722772277,0)"><line stroke="currentColor" y2="6"></line><text fill="currentColor" y="9" dy=".15em" style="text-anchor: end;" dx="-.8em" transform="rotate(-45)">10/11</text></g><g class="tick" opacity="1" transform="translate(470.9950495049505,0)"><line stroke="currentColor" y2="6"></line><text fill="currentColor" y="9" dy=".15em" style="text-anchor: end;" dx="-.8em" transform="rotate(-45)">10/12</text></g><g class="tick" opacity="1" transform="translate(513.7673267326733,0)"><line stroke="currentColor" y2="6"></line><text fill="currentColor" y="9" dy=".15em" style="text-anchor: end;" dx="-.8em" transform="rotate(-45)">10/13</text></g><g class="tick" opacity="1" transform="translate(556.5396039603961,0)"><line stroke="currentColor" y2="6"></line><text fill="currentColor" y="9" dy=".15em" style="text-anchor: end;" dx="-.8em" transform="rotate(-45)">10/14</text></g><g class="tick" opacity="1" transform="translate(599.3118811881188,0)"><line stroke="currentColor" y2="6"></line><text fill="currentColor" y="9" dy=".15em" style="text-anchor: end;" dx="-.8em" transform="rotate(-45)">10/15</text></g><g class="tick" opacity="1" transform="translate(642.0841584158416,0)"><line stroke="currentColor" y2="6"></line><text fill="currentColor" y="9" dy=".15em" style="text-anchor: end;" dx="-.8em" transform="rotate(-45)">10/16</text></g><g class="tick" opacity="1" transform="translate(684.8564356435643,0)"><line stroke="currentColor" y2="6"></line><text fill="currentColor" y="9" dy=".15em" style="text-anchor: end;" dx="-.8em" transform="rotate(-45)">10/17</text></g></g><g fill="none" font-size="10" font-family="sans-serif" text-anchor="end"><path class="domain" stroke="currentColor" d="M-6,340.5H0.5V0.5H-6"></path><g class="tick" opacity="1" transform="translate(0,340.5)"><line stroke="currentColor" x2="-6"></line><text fill="currentColor" x="-9" dy="0.32em">0.00%</text></g><g class="tick" opacity="1" transform="translate(0,309.59090909090907)"><line stroke="currentColor" x2="-6"></line><text fill="currentColor" x="-9" dy="0.32em">10.00%</text></g><g class="tick" opacity="1" transform="translate(0,278.6818181818182)"><line stroke="currentColor" x2="-6"></line><text fill="currentColor" x="-9" dy="0.32em">20.00%</text></g><g class="tick" opacity="1" transform="translate(0,247.77272727272728)"><line stroke="currentColor" x2="-6"></line><text fill="currentColor" x="-9" dy="0.32em">30.00%</text></g><g class="tick" opacity="1" transform="translate(0,216.86363636363637)"><line stroke="currentColor" x2="-6"></line><text fill="currentColor" x="-9" dy="0.32em">40.00%</text></g><g class="tick" opacity="1" transform="translate(0,185.95454545454544)"><line stroke="currentColor" x2="-6"></line><text fill="currentColor" x="-9" dy="0.32em">50.00%</text></g><g class="tick" opacity="1" transform="translate(0,155.04545454545456)"><line stroke="currentColor" x2="-6"></line><text fill="currentColor" x="-9" dy="0.32em">60.00%</text></g><g class="tick" opacity="1" transform="translate(0,124.13636363636368)"><line stroke="currentColor" x2="-6"></line><text fill="currentColor" x="-9" dy="0.32em">70.00%</text></g><g class="tick" opacity="1" transform="translate(0,93.22727272727272)"><line stroke="currentColor" x2="-6"></line><text fill="currentColor" x="-9" dy="0.32em">80.00%</text></g><g class="tick" opacity="1" transform="translate(0,62.31818181818184)"><line stroke="currentColor" x2="-6"></line><text fill="currentColor" x="-9" dy="0.32em">90.00%</text></g><g class="tick" opacity="1" transform="translate(0,31.40909090909092)"><line stroke="currentColor" x2="-6"></line><text fill="currentColor" x="-9" dy="0.32em">100.00%</text></g><g class="tick" opacity="1" transform="translate(0,0.5)"><line stroke="currentColor" x2="-6"></line><text fill="currentColor" x="-9" dy="0.32em">110.00%</text></g></g><text transform="rotate(-90)" y="-50" x="-170" dy="1em" style="text-anchor: middle; font-size: 12px; fill: #666;">Pre Rate (%)</text><text transform="translate(360, 380)" style="text-anchor: middle; font-size: 12px; fill: #666;">Time (UTC)</text><path fill="none" stroke="#2563eb" stroke-width="2" d="M0,327.636C0.594,327.636,1.188,327.636,1.782,327.636C2.376,327.636,2.97,327.636,3.564,327.636C4.158,327.636,4.752,327.636,5.347,327.636C5.941,327.636,6.535,327.636,7.129,327.636C7.723,327.636,8.317,327.636,8.911,327.636C9.505,327.636,10.099,327.636,10.693,327.636C11.287,327.636,11.881,327.636,12.475,327.636C13.069,327.636,13.663,327.636,14.257,327.636C14.851,327.636,15.446,327.636,16.04,327.636C16.634,327.636,17.228,327.636,17.822,327.636C18.416,327.636,19.01,327.636,19.604,327.636C20.198,327.636,20.792,327.636,21.386,327.636C21.98,327.636,22.574,327.636,23.168,327.636C23.762,327.636,24.356,327.636,24.95,327.636C25.545,327.636,26.139,327.636,26.733,327.636C27.327,327.636,27.921,327.636,28.515,327.636C29.109,327.636,29.703,327.636,30.297,327.636C30.891,327.636,31.485,327.636,32.079,327.636C32.673,327.636,33.267,327.636,33.861,327.636C34.455,327.636,35.05,327.636,35.644,327.636C36.238,327.636,36.832,327.636,37.426,327.636C38.02,327.636,38.614,327.636,39.208,327.636C39.802,327.636,40.396,327.636,40.99,327.636C41.584,327.636,42.178,327.636,42.772,327.636C43.366,327.636,43.96,327.636,44.554,327.636C45.149,327.636,45.743,327.636,46.337,327.636C46.931,327.636,47.525,327.636,48.119,327.636C48.713,327.636,49.307,327.636,49.901,327.636C50.495,327.636,51.089,327.636,51.683,327.636C52.277,327.636,52.871,327.636,53.465,327.636C54.059,327.636,54.653,327.636,55.248,327.636C55.842,327.636,56.436,327.636,57.03,327.636C57.624,327.636,58.218,327.636,58.812,327.636C59.406,327.636,60,327.636,60.594,327.636C61.188,327.636,61.782,327.636,62.376,327.636C62.97,327.636,63.564,327.636,64.158,327.636C64.752,327.636,65.347,18.545,65.941,18.545C66.535,18.545,67.129,293.636,67.723,306C68.317,318.364,68.911,324.545,69.505,324.545C70.099,324.545,70.693,324.545,71.287,324.545C71.881,324.545,72.475,324.545,73.069,324.545C73.663,324.545,74.257,324.545,74.851,324.545C75.446,324.545,76.04,324.545,76.634,324.545C77.228,324.545,77.822,324.545,78.416,324.545C79.01,324.545,79.604,324.545,80.198,324.545C80.792,324.545,81.386,324.545,81.98,324.545C82.574,324.545,83.168,324.545,83.762,324.545C84.356,324.545,84.95,324.545,85.545,324.545C86.139,324.545,86.733,324.545,87.327,324.545C87.921,324.545,88.515,324.545,89.109,324.545C89.703,324.545,90.297,324.545,90.891,324.545C91.485,324.545,92.079,324.545,92.673,324.545C93.267,324.545,93.861,324.545,94.455,324.545C95.05,324.545,95.644,324.545,96.238,324.545C96.832,324.545,97.426,324.545,98.02,324.545C98.614,324.545,99.208,324.545,99.802,324.545C100.396,324.545,100.99,324.545,101.584,324.545C102.178,324.545,102.772,324.545,103.366,324.545C103.96,324.545,104.554,324.545,105.149,324.545C105.743,324.545,106.337,324.545,106.931,324.545C107.525,324.545,108.119,324.545,108.713,324.545C109.307,324.545,109.901,324.545,110.495,324.545C111.089,324.545,111.683,324.545,112.277,324.545C112.871,324.545,113.465,324.545,114.059,324.545C114.653,324.545,115.248,324.545,115.842,324.545C116.436,324.545,117.03,324.545,117.624,324.545C118.218,324.545,118.812,324.545,119.406,324.545C120,324.545,120.594,324.545,121.188,324.545C121.782,324.545,122.376,324.545,122.97,324.545C123.564,324.545,124.158,324.545,124.752,324.545C125.347,324.545,125.941,324.545,126.535,324.545C127.129,324.545,127.723,324.545,128.317,324.545C128.911,324.545,129.505,324.545,130.099,324.545C130.693,324.545,131.287,324.545,131.881,324.545C132.475,324.545,133.069,324.545,133.663,324.545C134.257,324.545,134.851,324.545,135.446,324.545C136.04,324.545,136.634,324.545,137.228,324.545C137.822,324.545,138.416,324.545,139.01,324.545C139.604,324.545,140.198,324.545,140.792,324.545C141.386,324.545,141.98,324.545,142.574,324.545C143.168,324.545,143.762,324.545,144.356,324.545C144.95,324.545,145.545,324.545,146.139,324.545C146.733,324.545,147.327,324.545,147.921,324.545C148.515,324.545,149.109,324.545,149.703,324.545C150.297,324.545,150.891,324.545,151.485,324.545C152.079,324.545,152.673,324.545,153.267,324.545C153.861,324.545,154.455,324.545,155.05,324.545C155.644,324.545,156.238,324.545,156.832,324.545C157.426,324.545,158.02,324.545,158.614,324.545C159.208,324.545,159.802,324.545,160.396,324.545C160.99,324.545,161.584,324.545,162.178,324.545C162.772,324.545,163.366,324.545,163.96,324.545C164.554,324.545,165.149,324.545,165.743,324.545C166.337,324.545,166.931,324.545,167.525,324.545C168.119,324.545,168.713,324.545,169.307,324.545C169.901,324.545,170.495,324.545,171.089,324.545C171.683,324.545,172.277,324.545,172.871,324.545C173.465,324.545,174.059,324.545,174.653,324.545C175.248,324.545,175.842,324.545,176.436,324.545C177.03,324.545,177.624,324.545,178.218,324.545C178.812,324.545,179.406,321.455,180,321.455C180.594,321.455,181.188,324.545,181.782,324.545C182.376,324.545,182.97,324.545,183.564,324.545C184.158,324.545,184.752,309.091,185.347,309.091C185.941,309.091,186.535,312.697,187.129,315.273C187.723,317.848,188.317,324.545,188.911,324.545C189.505,324.545,190.099,324.545,190.693,324.545C191.287,324.545,191.881,321.455,192.475,321.455C193.069,321.455,193.663,324.545,194.257,324.545C194.851,324.545,195.446,318.364,196.04,318.364C196.634,318.364,197.228,318.364,197.822,318.364C198.416,318.364,199.01,316.303,199.604,315.273C200.198,314.242,200.792,312.182,201.386,312.182C201.98,312.182,202.574,316.303,203.168,318.364C203.762,320.424,204.356,324.545,204.95,324.545C205.545,324.545,206.139,324.545,206.733,324.545C207.327,324.545,207.921,324.545,208.515,324.545C209.109,324.545,209.703,324.545,210.297,324.545C210.891,324.545,211.485,324.545,212.079,324.545C212.673,324.545,213.267,315.273,213.861,315.273C214.455,315.273,215.05,318.364,215.644,318.364C216.238,318.364,216.832,316.818,217.426,315.273C218.02,313.727,218.614,309.091,219.208,309.091C219.802,309.091,220.396,310.636,220.99,312.182C221.584,313.727,222.178,318.364,222.772,318.364C223.366,318.364,223.96,315.788,224.554,312.182C225.149,308.576,225.743,296.727,226.337,296.727C226.931,296.727,227.525,312.182,228.119,312.182C228.713,312.182,229.307,299.818,229.901,299.818C230.495,299.818,231.089,306,231.683,306C232.277,306,232.871,306,233.465,306C234.059,306,234.653,309.091,235.248,309.091C235.842,309.091,236.436,307.03,237.03,302.909C237.624,298.788,238.218,284.364,238.812,284.364C239.406,284.364,240,284.364,240.594,284.364C241.188,284.364,241.782,287.455,242.376,290.545C242.97,293.636,243.564,302.909,244.158,302.909C244.752,302.909,245.347,296.727,245.941,296.727C246.535,296.727,247.129,296.727,247.723,296.727C248.317,296.727,248.911,299.303,249.505,302.909C250.099,306.515,250.693,318.364,251.287,318.364C251.881,318.364,252.475,312.182,253.069,312.182C253.663,312.182,254.257,312.182,254.851,312.182C255.446,312.182,256.04,321.455,256.634,321.455C257.228,321.455,257.822,318.364,258.416,318.364C259.01,318.364,259.604,324.545,260.198,324.545C260.792,324.545,261.386,324.545,261.98,324.545C262.574,324.545,263.168,324.545,263.762,324.545C264.356,324.545,264.95,321.455,265.545,321.455C266.139,321.455,266.733,324.545,267.327,324.545C267.921,324.545,268.515,324.545,269.109,324.545C269.703,324.545,270.297,324.545,270.891,324.545C271.485,324.545,272.079,324.545,272.673,324.545C273.267,324.545,273.861,324.545,274.455,324.545C275.05,324.545,275.644,324.545,276.238,324.545C276.832,324.545,277.426,324.545,278.02,324.545C278.614,324.545,279.208,324.545,279.802,324.545C280.396,324.545,280.99,324.545,281.584,324.545C282.178,324.545,282.772,324.545,283.366,324.545C283.96,324.545,284.554,324.545,285.149,324.545C285.743,324.545,286.337,324.545,286.931,324.545C287.525,324.545,288.119,324.545,288.713,324.545C289.307,324.545,289.901,324.545,290.495,324.545C291.089,324.545,291.683,324.545,292.277,324.545C292.871,324.545,293.465,324.545,294.059,324.545C294.653,324.545,295.248,324.545,295.842,324.545C296.436,324.545,297.03,324.545,297.624,324.545C298.218,324.545,298.812,324.545,299.406,324.545C300,324.545,300.594,324.545,301.188,324.545C301.782,324.545,302.376,324.545,302.97,324.545C303.564,324.545,304.158,324.545,304.752,324.545C305.347,324.545,305.941,324.545,306.535,324.545C307.129,324.545,307.723,324.545,308.317,324.545C308.911,324.545,309.505,324.545,310.099,324.545C310.693,324.545,311.287,324.545,311.881,324.545C312.475,324.545,313.069,324.545,313.663,324.545C314.257,324.545,314.851,324.545,315.446,324.545C316.04,324.545,316.634,324.545,317.228,324.545C317.822,324.545,318.416,324.545,319.01,324.545C319.604,324.545,320.198,324.545,320.792,324.545C321.386,324.545,321.98,324.545,322.574,324.545C323.168,324.545,323.762,324.545,324.356,324.545C324.95,324.545,325.545,324.545,326.139,324.545C326.733,324.545,327.327,324.545,327.921,324.545C328.515,324.545,329.109,324.545,329.703,324.545C330.297,324.545,330.891,324.545,331.485,324.545C332.079,324.545,332.673,324.545,333.267,324.545C333.861,324.545,334.455,324.545,335.05,324.545C335.644,324.545,336.238,324.545,336.832,324.545C337.426,324.545,338.02,324.545,338.614,324.545C339.208,324.545,339.802,324.545,340.396,324.545C340.99,324.545,341.584,324.545,342.178,324.545C342.772,324.545,343.366,324.545,343.96,324.545C344.554,324.545,345.149,324.545,345.743,324.545C346.337,324.545,346.931,324.545,347.525,324.545C348.119,324.545,348.713,324.545,349.307,324.545C349.901,324.545,350.495,324.545,351.089,324.545C351.683,324.545,352.277,324.545,352.871,324.545C353.465,324.545,354.059,324.545,354.653,324.545C355.248,324.545,355.842,324.545,356.436,324.545C357.03,324.545,357.624,324.545,358.218,324.545C358.812,324.545,359.406,324.545,360,324.545C360.594,324.545,361.188,324.545,361.782,324.545C362.376,324.545,362.97,324.545,363.564,324.545C364.158,324.545,364.752,324.545,365.347,324.545C365.941,324.545,366.535,324.545,367.129,324.545C367.723,324.545,368.317,324.545,368.911,324.545C369.505,324.545,370.099,324.545,370.693,324.545C371.287,324.545,371.881,324.545,372.475,324.545C373.069,324.545,373.663,324.545,374.257,324.545C374.851,324.545,375.446,324.545,376.04,324.545C376.634,324.545,377.228,324.545,377.822,324.545C378.416,324.545,379.01,324.545,379.604,324.545C380.198,324.545,380.792,324.545,381.386,324.545C381.98,324.545,382.574,324.545,383.168,324.545C383.762,324.545,384.356,324.545,384.95,324.545C385.545,324.545,386.139,324.545,386.733,324.545C387.327,324.545,387.921,324.545,388.515,324.545C389.109,324.545,389.703,324.545,390.297,324.545C390.891,324.545,391.485,324.545,392.079,324.545C392.673,324.545,393.267,324.545,393.861,324.545C394.455,324.545,395.05,324.545,395.644,324.545C396.238,324.545,396.832,324.545,397.426,324.545C398.02,324.545,398.614,324.545,399.208,324.545C399.802,324.545,400.396,324.545,400.99,324.545C401.584,324.545,402.178,324.545,402.772,324.545C403.366,324.545,403.96,324.545,404.554,324.545C405.149,324.545,405.743,324.545,406.337,324.545C406.931,324.545,407.525,324.545,408.119,324.545C408.713,324.545,409.307,324.545,409.901,324.545C410.495,324.545,411.089,324.545,411.683,324.545C412.277,324.545,412.871,324.545,413.465,324.545C414.059,324.545,414.653,324.545,415.248,324.545C415.842,324.545,416.436,324.545,417.03,324.545C417.624,324.545,418.218,324.545,418.812,324.545C419.406,324.545,420,324.545,420.594,324.545C421.188,324.545,421.782,324.545,422.376,324.545C422.97,324.545,423.564,336.909,424.158,336.909C424.752,336.909,425.347,336.909,425.941,336.909C426.535,336.909,427.129,336.909,427.723,336.909C428.317,336.909,428.911,336.909,429.505,336.909C430.099,336.909,430.693,336.909,431.287,336.909C431.881,336.909,432.475,336.909,433.069,336.909C433.663,336.909,434.257,336.909,434.851,336.909C435.446,336.909,436.04,336.909,436.634,336.909C437.228,336.909,437.822,336.909,438.416,336.909C439.01,336.909,439.604,336.909,440.198,336.909C440.792,336.909,441.386,336.909,441.98,336.909C442.574,336.909,443.168,336.909,443.762,336.909C444.356,336.909,444.95,336.909,445.545,336.909C446.139,336.909,446.733,336.909,447.327,336.909C447.921,336.909,448.515,336.909,449.109,336.909C449.703,336.909,450.297,336.909,450.891,336.909C451.485,336.909,452.079,336.909,452.673,336.909C453.267,336.909,453.861,336.909,454.455,336.909C455.05,336.909,455.644,336.909,456.238,336.909C456.832,336.909,457.426,336.909,458.02,336.909C458.614,336.909,459.208,336.909,459.802,336.909C460.396,336.909,460.99,336.909,461.584,336.909C462.178,336.909,462.772,336.909,463.366,336.909C463.96,336.909,464.554,336.909,465.149,336.909C465.743,336.909,466.337,336.909,466.931,336.909C467.525,336.909,468.119,336.909,468.713,336.909C469.307,336.909,469.901,336.909,470.495,336.909C471.089,336.909,471.683,336.909,472.277,336.909C472.871,336.909,473.465,336.909,474.059,336.909C474.653,336.909,475.248,336.909,475.842,336.909C476.436,336.909,477.03,336.909,477.624,336.909C478.218,336.909,478.812,336.909,479.406,336.909C480,336.909,480.594,336.909,481.188,336.909C481.782,336.909,482.376,336.909,482.97,336.909C483.564,336.909,484.158,336.909,484.752,336.909C485.347,336.909,485.941,336.909,486.535,336.909C487.129,336.909,487.723,336.909,488.317,336.909C488.911,336.909,489.505,336.909,490.099,336.909C490.693,336.909,491.287,336.909,491.881,336.909C492.475,336.909,493.069,336.909,493.663,336.909C494.257,336.909,494.851,336.909,495.446,336.909C496.04,336.909,496.634,336.909,497.228,336.909C497.822,336.909,498.416,336.909,499.01,336.909C499.604,336.909,500.198,336.909,500.792,336.909C501.386,336.909,501.98,336.909,502.574,336.909C503.168,336.909,503.762,336.909,504.356,336.909C504.95,336.909,505.545,336.909,506.139,336.909C506.733,336.909,507.327,336.909,507.921,336.909C508.515,336.909,509.109,336.909,509.703,336.909C510.297,336.909,510.891,336.909,511.485,336.909C512.079,336.909,512.673,336.909,513.267,336.909C513.861,336.909,514.455,336.909,515.05,336.909C515.644,336.909,516.238,336.909,516.832,336.909C517.426,336.909,518.02,336.909,518.614,336.909C519.208,336.909,519.802,336.909,520.396,336.909C520.99,336.909,521.584,336.909,522.178,336.909C522.772,336.909,523.366,336.909,523.96,336.909C524.554,336.909,525.149,336.909,525.743,336.909C526.337,336.909,526.931,336.909,527.525,336.909C528.119,336.909,528.713,336.909,529.307,336.909C529.901,336.909,530.495,336.909,531.089,336.909C531.683,336.909,532.277,336.909,532.871,336.909C533.465,336.909,534.059,336.909,534.653,336.909C535.248,336.909,535.842,336.909,536.436,336.909C537.03,336.909,537.624,336.909,538.218,336.909C538.812,336.909,539.406,336.909,540,336.909C540.594,336.909,541.188,336.909,541.782,336.909C542.376,336.909,542.97,336.909,543.564,336.909C544.158,336.909,544.752,336.909,545.347,336.909C545.941,336.909,546.535,336.909,547.129,336.909C547.723,336.909,548.317,336.909,548.911,336.909C549.505,336.909,550.099,336.909,550.693,336.909C551.287,336.909,551.881,336.909,552.475,336.909C553.069,336.909,553.663,336.909,554.257,336.909C554.851,336.909,555.446,336.909,556.04,336.909C556.634,336.909,557.228,336.909,557.822,336.909C558.416,336.909,559.01,336.909,559.604,336.909C560.198,336.909,560.792,336.909,561.386,336.909C561.98,336.909,562.574,336.909,563.168,336.909C563.762,336.909,564.356,336.909,564.95,336.909C565.545,336.909,566.139,336.909,566.733,336.909C567.327,336.909,567.921,336.909,568.515,336.909C569.109,336.909,569.703,336.909,570.297,336.909C570.891,336.909,571.485,336.909,572.079,336.909C572.673,336.909,573.267,336.909,573.861,336.909C574.455,336.909,575.05,336.909,575.644,336.909C576.238,336.909,576.832,336.909,577.426,336.909C578.02,336.909,578.614,336.909,579.208,336.909C579.802,336.909,580.396,336.909,580.99,336.909C581.584,336.909,582.178,336.909,582.772,336.909C583.366,336.909,583.96,336.909,584.554,336.909C585.149,336.909,585.743,336.909,586.337,336.909C586.931,336.909,587.525,336.909,588.119,336.909C588.713,336.909,589.307,336.909,589.901,336.909C590.495,336.909,591.089,336.909,591.683,336.909C592.277,336.909,592.871,336.909,593.465,336.909C594.059,336.909,594.653,336.909,595.248,336.909C595.842,336.909,596.436,336.909,597.03,336.909C597.624,336.909,598.218,336.909,598.812,336.909C599.406,336.909,600,336.909,600.594,336.909C601.188,336.909,601.782,336.909,602.376,336.909C602.97,336.909,603.564,336.909,604.158,336.909C604.752,336.909,605.347,336.909,605.941,336.909C606.535,336.909,607.129,336.909,607.723,336.909C608.317,336.909,608.911,336.909,609.505,336.909C610.099,336.909,610.693,336.909,611.287,336.909C611.881,336.909,612.475,336.909,613.069,336.909C613.663,336.909,614.257,336.909,614.851,336.909C615.446,336.909,616.04,336.909,616.634,336.909C617.228,336.909,617.822,336.909,618.416,336.909C619.01,336.909,619.604,336.909,620.198,336.909C620.792,336.909,621.386,336.909,621.98,336.909C622.574,336.909,623.168,336.909,623.762,336.909C624.356,336.909,624.95,336.909,625.545,336.909C626.139,336.909,626.733,336.909,627.327,336.909C627.921,336.909,628.515,336.909,629.109,336.909C629.703,336.909,630.297,336.909,630.891,336.909C631.485,336.909,632.079,336.909,632.673,336.909C633.267,336.909,633.861,336.909,634.455,336.909C635.05,336.909,635.644,336.909,636.238,336.909C636.832,336.909,637.426,336.909,638.02,336.909C638.614,336.909,639.208,336.909,639.802,336.909C640.396,336.909,640.99,336.909,641.584,336.909C642.178,336.909,642.772,336.909,643.366,336.909C643.96,336.909,644.554,336.909,645.149,336.909C645.743,336.909,646.337,336.909,646.931,336.909C647.525,336.909,648.119,336.909,648.713,336.909C649.307,336.909,649.901,336.909,650.495,336.909C651.089,336.909,651.683,336.909,652.277,336.909C652.871,336.909,653.465,336.909,654.059,336.909C654.653,336.909,655.248,336.909,655.842,336.909C656.436,336.909,657.03,336.909,657.624,336.909C658.218,336.909,658.812,336.909,659.406,336.909C660,336.909,660.594,336.909,661.188,336.909C661.782,336.909,662.376,336.909,662.97,336.909C663.564,336.909,664.158,336.909,664.752,336.909C665.347,336.909,665.941,336.909,666.535,336.909C667.129,336.909,667.723,336.909,668.317,336.909C668.911,336.909,669.505,336.909,670.099,336.909C670.693,336.909,671.287,336.909,671.881,336.909C672.475,336.909,673.069,336.909,673.663,336.909C674.257,336.909,674.851,336.909,675.446,336.909C676.04,336.909,676.634,336.909,677.228,336.909C677.822,336.909,678.416,336.909,679.01,336.909C679.604,336.909,680.198,336.909,680.792,336.909C681.386,336.909,681.98,336.909,682.574,336.909C683.168,336.909,683.762,336.909,684.356,336.909C684.95,336.909,685.545,336.909,686.139,336.909C686.733,336.909,687.327,336.909,687.921,336.909C688.515,336.909,689.109,336.909,689.703,336.909C690.297,336.909,690.891,336.909,691.485,336.909C692.079,336.909,692.673,336.909,693.267,336.909C693.861,336.909,694.455,336.909,695.05,336.909C695.644,336.909,696.238,336.909,696.832,336.909C697.426,336.909,698.02,336.909,698.614,336.909C699.208,336.909,699.802,336.909,700.396,336.909C700.99,336.909,701.584,336.909,702.178,336.909C702.772,336.909,703.366,336.909,703.96,336.909C704.554,336.909,705.149,336.909,705.743,336.909C706.337,336.909,706.931,336.909,707.525,336.909C708.119,336.909,708.713,336.909,709.307,336.909C709.901,336.909,710.495,336.909,711.089,336.909C711.683,336.909,712.277,336.909,712.871,336.909C713.465,336.909,714.059,336.909,714.653,336.909C715.248,336.909,715.842,336.909,716.436,336.909C717.03,336.909,717.624,336.909,718.218,336.909C718.812,336.909,719.406,336.909,720,336.909"></path><circle class="dot" cx="0" cy="327.6363636363636" r="3" fill="#2563eb"></circle><circle class="dot" cx="1.7821782178217822" cy="327.6363636363636" r="3" fill="#2563eb"></circle><circle class="dot" cx="3.5643564356435644" cy="327.6363636363636" r="3" fill="#2563eb"></circle><circle class="dot" cx="5.346534653465346" cy="327.6363636363636" r="3" fill="#2563eb"></circle><circle class="dot" cx="7.128712871287129" cy="327.6363636363636" r="3" fill="#2563eb"></circle><circle class="dot" cx="8.910891089108912" cy="327.6363636363636" r="3" fill="#2563eb"></circle><circle class="dot" cx="10.693069306930692" cy="327.6363636363636" r="3" fill="#2563eb"></circle><circle class="dot" cx="12.475247524752476" cy="327.6363636363636" r="3" fill="#2563eb"></circle><circle class="dot" cx="14.257425742574258" cy="327.6363636363636" r="3" fill="#2563eb"></circle><circle class="dot" cx="16.03960396039604" cy="327.6363636363636" r="3" fill="#2563eb"></circle><circle class="dot" cx="17.821782178217823" cy="327.6363636363636" r="3" fill="#2563eb"></circle><circle class="dot" cx="19.603960396039604" cy="327.6363636363636" r="3" fill="#2563eb"></circle><circle class="dot" cx="21.386138613861384" cy="327.6363636363636" r="3" fill="#2563eb"></circle><circle class="dot" cx="23.168316831683168" cy="327.6363636363636" r="3" fill="#2563eb"></circle><circle class="dot" cx="24.95049504950495" cy="327.6363636363636" r="3" fill="#2563eb"></circle><circle class="dot" cx="26.73267326732673" cy="327.6363636363636" r="3" fill="#2563eb"></circle><circle class="dot" cx="28.514851485148515" cy="327.6363636363636" r="3" fill="#2563eb"></circle><circle class="dot" cx="30.2970297029703" cy="327.6363636363636" r="3" fill="#2563eb"></circle><circle class="dot" cx="32.07920792079208" cy="327.6363636363636" r="3" fill="#2563eb"></circle><circle class="dot" cx="33.86138613861386" cy="327.6363636363636" r="3" fill="#2563eb"></circle><circle class="dot" cx="35.64356435643565" cy="327.6363636363636" r="3" fill="#2563eb"></circle><circle class="dot" cx="37.42574257425743" cy="327.6363636363636" r="3" fill="#2563eb"></circle><circle class="dot" cx="39.20792079207921" cy="327.6363636363636" r="3" fill="#2563eb"></circle><circle class="dot" cx="40.990099009900995" cy="327.6363636363636" r="3" fill="#2563eb"></circle><circle class="dot" cx="42.77227722772277" cy="327.6363636363636" r="3" fill="#2563eb"></circle><circle class="dot" cx="44.554455445544555" cy="327.6363636363636" r="3" fill="#2563eb"></circle><circle class="dot" cx="46.336633663366335" cy="327.6363636363636" r="3" fill="#2563eb"></circle><circle class="dot" cx="48.11881188118812" cy="327.6363636363636" r="3" fill="#2563eb"></circle><circle class="dot" cx="49.9009900990099" cy="327.6363636363636" r="3" fill="#2563eb"></circle><circle class="dot" cx="51.683168316831676" cy="327.6363636363636" r="3" fill="#2563eb"></circle><circle class="dot" cx="53.46534653465346" cy="327.6363636363636" r="3" fill="#2563eb"></circle><circle class="dot" cx="55.24752475247524" cy="327.6363636363636" r="3" fill="#2563eb"></circle><circle class="dot" cx="57.02970297029703" cy="327.6363636363636" r="3" fill="#2563eb"></circle><circle class="dot" cx="58.81188118811881" cy="327.6363636363636" r="3" fill="#2563eb"></circle><circle class="dot" cx="60.5940594059406" cy="327.6363636363636" r="3" fill="#2563eb"></circle><circle class="dot" cx="62.37623762376237" cy="327.6363636363636" r="3" fill="#2563eb"></circle><circle class="dot" cx="64.15841584158416" cy="327.6363636363636" r="3" fill="#2563eb"></circle><circle class="dot" cx="65.94059405940594" cy="18.54545454545455" r="3" fill="#2563eb"></circle><circle class="dot" cx="67.72277227722772" cy="306" r="3" fill="#2563eb"></circle><circle class="dot" cx="69.50495049504951" cy="324.54545454545456" r="3" fill="#2563eb"></circle><circle class="dot" cx="71.2871287128713" cy="324.54545454545456" r="3" fill="#2563eb"></circle><circle class="dot" cx="73.06930693069307" cy="324.54545454545456" r="3" fill="#2563eb"></circle><circle class="dot" cx="74.85148514851485" cy="324.54545454545456" r="3" fill="#2563eb"></circle><circle class="dot" cx="76.63366336633663" cy="324.54545454545456" r="3" fill="#2563eb"></circle><circle class="dot" cx="78.41584158415841" cy="324.54545454545456" r="3" fill="#2563eb"></circle><circle class="dot" cx="80.1980198019802" cy="324.54545454545456" r="3" fill="#2563eb"></circle><circle class="dot" cx="81.98019801980199" cy="324.54545454545456" r="3" fill="#2563eb"></circle><circle class="dot" cx="83.76237623762377" cy="324.54545454545456" r="3" fill="#2563eb"></circle><circle class="dot" cx="85.54455445544554" cy="324.54545454545456" r="3" fill="#2563eb"></circle><circle class="dot" cx="87.32673267326733" cy="324.54545454545456" r="3" fill="#2563eb"></circle><circle class="dot" cx="89.10891089108911" cy="324.54545454545456" r="3" fill="#2563eb"></circle><circle class="dot" cx="90.89108910891089" cy="324.54545454545456" r="3" fill="#2563eb"></circle><circle class="dot" cx="92.67326732673267" cy="324.54545454545456" r="3" fill="#2563eb"></circle><circle class="dot" cx="94.45544554455446" cy="324.54545454545456" r="3" fill="#2563eb"></circle><circle class="dot" cx="96.23762376237624" cy="324.54545454545456" r="3" fill="#2563eb"></circle><circle class="dot" cx="98.01980198019803" cy="324.54545454545456" r="3" fill="#2563eb"></circle><circle class="dot" cx="99.8019801980198" cy="324.54545454545456" r="3" fill="#2563eb"></circle><circle class="dot" cx="101.58415841584157" cy="324.54545454545456" r="3" fill="#2563eb"></circle><circle class="dot" cx="103.36633663366335" cy="324.54545454545456" r="3" fill="#2563eb"></circle><circle class="dot" cx="105.14851485148515" cy="324.54545454545456" r="3" fill="#2563eb"></circle><circle class="dot" cx="106.93069306930693" cy="324.54545454545456" r="3" fill="#2563eb"></circle><circle class="dot" cx="108.7128712871287" cy="324.54545454545456" r="3" fill="#2563eb"></circle><circle class="dot" cx="110.49504950495049" cy="324.54545454545456" r="3" fill="#2563eb"></circle><circle class="dot" cx="112.27722772277228" cy="324.54545454545456" r="3" fill="#2563eb"></circle><circle class="dot" cx="114.05940594059406" cy="324.54545454545456" r="3" fill="#2563eb"></circle><circle class="dot" cx="115.84158415841584" cy="324.54545454545456" r="3" fill="#2563eb"></circle><circle class="dot" cx="117.62376237623762" cy="324.54545454545456" r="3" fill="#2563eb"></circle><circle class="dot" cx="119.40594059405942" cy="324.54545454545456" r="3" fill="#2563eb"></circle><circle class="dot" cx="121.1881188118812" cy="324.54545454545456" r="3" fill="#2563eb"></circle><circle class="dot" cx="122.97029702970298" cy="324.54545454545456" r="3" fill="#2563eb"></circle><circle class="dot" cx="124.75247524752474" cy="324.54545454545456" r="3" fill="#2563eb"></circle><circle class="dot" cx="126.53465346534652" cy="324.54545454545456" r="3" fill="#2563eb"></circle><circle class="dot" cx="128.31683168316832" cy="324.54545454545456" r="3" fill="#2563eb"></circle><circle class="dot" cx="130.0990099009901" cy="324.54545454545456" r="3" fill="#2563eb"></circle><circle class="dot" cx="131.88118811881188" cy="324.54545454545456" r="3" fill="#2563eb"></circle><circle class="dot" cx="133.66336633663366" cy="324.54545454545456" r="3" fill="#2563eb"></circle><circle class="dot" cx="135.44554455445544" cy="324.54545454545456" r="3" fill="#2563eb"></circle><circle class="dot" cx="137.22772277227722" cy="324.54545454545456" r="3" fill="#2563eb"></circle><circle class="dot" cx="139.00990099009903" cy="324.54545454545456" r="3" fill="#2563eb"></circle><circle class="dot" cx="140.7920792079208" cy="324.54545454545456" r="3" fill="#2563eb"></circle><circle class="dot" cx="142.5742574257426" cy="324.54545454545456" r="3" fill="#2563eb"></circle><circle class="dot" cx="144.35643564356437" cy="324.54545454545456" r="3" fill="#2563eb"></circle><circle class="dot" cx="146.13861386138615" cy="324.54545454545456" r="3" fill="#2563eb"></circle><circle class="dot" cx="147.9207920792079" cy="324.54545454545456" r="3" fill="#2563eb"></circle><circle class="dot" cx="149.7029702970297" cy="324.54545454545456" r="3" fill="#2563eb"></circle><circle class="dot" cx="151.4851485148515" cy="324.54545454545456" r="3" fill="#2563eb"></circle><circle class="dot" cx="153.26732673267327" cy="324.54545454545456" r="3" fill="#2563eb"></circle><circle class="dot" cx="155.04950495049505" cy="324.54545454545456" r="3" fill="#2563eb"></circle><circle class="dot" cx="156.83168316831683" cy="324.54545454545456" r="3" fill="#2563eb"></circle><circle class="dot" cx="158.6138613861386" cy="324.54545454545456" r="3" fill="#2563eb"></circle><circle class="dot" cx="160.3960396039604" cy="324.54545454545456" r="3" fill="#2563eb"></circle><circle class="dot" cx="162.17821782178217" cy="324.54545454545456" r="3" fill="#2563eb"></circle><circle class="dot" cx="163.96039603960398" cy="324.54545454545456" r="3" fill="#2563eb"></circle><circle class="dot" cx="165.74257425742576" cy="324.54545454545456" r="3" fill="#2563eb"></circle><circle class="dot" cx="167.52475247524754" cy="324.54545454545456" r="3" fill="#2563eb"></circle><circle class="dot" cx="169.3069306930693" cy="324.54545454545456" r="3" fill="#2563eb"></circle><circle class="dot" cx="171.08910891089107" cy="324.54545454545456" r="3" fill="#2563eb"></circle><circle class="dot" cx="172.87128712871288" cy="324.54545454545456" r="3" fill="#2563eb"></circle><circle class="dot" cx="174.65346534653466" cy="324.54545454545456" r="3" fill="#2563eb"></circle><circle class="dot" cx="176.43564356435644" cy="324.54545454545456" r="3" fill="#2563eb"></circle><circle class="dot" cx="178.21782178217822" cy="324.54545454545456" r="3" fill="#2563eb"></circle><circle class="dot" cx="180" cy="321.45454545454544" r="3" fill="#2563eb"></circle><circle class="dot" cx="181.78217821782178" cy="324.54545454545456" r="3" fill="#2563eb"></circle><circle class="dot" cx="183.56435643564356" cy="324.54545454545456" r="3" fill="#2563eb"></circle><circle class="dot" cx="185.34653465346534" cy="309.09090909090907" r="3" fill="#2563eb"></circle><circle class="dot" cx="187.12871287128712" cy="315.27272727272725" r="3" fill="#2563eb"></circle><circle class="dot" cx="188.91089108910893" cy="324.54545454545456" r="3" fill="#2563eb"></circle><circle class="dot" cx="190.6930693069307" cy="324.54545454545456" r="3" fill="#2563eb"></circle><circle class="dot" cx="192.4752475247525" cy="321.45454545454544" r="3" fill="#2563eb"></circle><circle class="dot" cx="194.25742574257427" cy="324.54545454545456" r="3" fill="#2563eb"></circle><circle class="dot" cx="196.03960396039605" cy="318.3636363636364" r="3" fill="#2563eb"></circle><circle class="dot" cx="197.82178217821783" cy="318.3636363636364" r="3" fill="#2563eb"></circle><circle class="dot" cx="199.6039603960396" cy="315.27272727272725" r="3" fill="#2563eb"></circle><circle class="dot" cx="201.38613861386142" cy="312.1818181818182" r="3" fill="#2563eb"></circle><circle class="dot" cx="203.16831683168314" cy="318.3636363636364" r="3" fill="#2563eb"></circle><circle class="dot" cx="204.95049504950492" cy="324.54545454545456" r="3" fill="#2563eb"></circle><circle class="dot" cx="206.7326732673267" cy="324.54545454545456" r="3" fill="#2563eb"></circle><circle class="dot" cx="208.5148514851485" cy="324.54545454545456" r="3" fill="#2563eb"></circle><circle class="dot" cx="210.2970297029703" cy="324.54545454545456" r="3" fill="#2563eb"></circle><circle class="dot" cx="212.07920792079207" cy="324.54545454545456" r="3" fill="#2563eb"></circle><circle class="dot" cx="213.86138613861385" cy="315.27272727272725" r="3" fill="#2563eb"></circle><circle class="dot" cx="215.64356435643563" cy="318.3636363636364" r="3" fill="#2563eb"></circle><circle class="dot" cx="217.4257425742574" cy="315.27272727272725" r="3" fill="#2563eb"></circle><circle class="dot" cx="219.2079207920792" cy="309.09090909090907" r="3" fill="#2563eb"></circle><circle class="dot" cx="220.99009900990097" cy="312.1818181818182" r="3" fill="#2563eb"></circle><circle class="dot" cx="222.77227722772278" cy="318.3636363636364" r="3" fill="#2563eb"></circle><circle class="dot" cx="224.55445544554456" cy="312.1818181818182" r="3" fill="#2563eb"></circle><circle class="dot" cx="226.33663366336634" cy="296.7272727272727" r="3" fill="#2563eb"></circle><circle class="dot" cx="228.11881188118812" cy="312.1818181818182" r="3" fill="#2563eb"></circle><circle class="dot" cx="229.9009900990099" cy="299.8181818181818" r="3" fill="#2563eb"></circle><circle class="dot" cx="231.68316831683168" cy="306" r="3" fill="#2563eb"></circle><circle class="dot" cx="233.46534653465346" cy="306" r="3" fill="#2563eb"></circle><circle class="dot" cx="235.24752475247524" cy="309.09090909090907" r="3" fill="#2563eb"></circle><circle class="dot" cx="237.02970297029705" cy="302.9090909090909" r="3" fill="#2563eb"></circle><circle class="dot" cx="238.81188118811883" cy="284.3636363636364" r="3" fill="#2563eb"></circle><circle class="dot" cx="240.5940594059406" cy="284.3636363636364" r="3" fill="#2563eb"></circle><circle class="dot" cx="242.3762376237624" cy="290.5454545454545" r="3" fill="#2563eb"></circle><circle class="dot" cx="244.15841584158417" cy="302.9090909090909" r="3" fill="#2563eb"></circle><circle class="dot" cx="245.94059405940595" cy="296.7272727272727" r="3" fill="#2563eb"></circle><circle class="dot" cx="247.7227722772277" cy="296.7272727272727" r="3" fill="#2563eb"></circle><circle class="dot" cx="249.50495049504948" cy="302.9090909090909" r="3" fill="#2563eb"></circle><circle class="dot" cx="251.28712871287127" cy="318.3636363636364" r="3" fill="#2563eb"></circle><circle class="dot" cx="253.06930693069305" cy="312.1818181818182" r="3" fill="#2563eb"></circle><circle class="dot" cx="254.85148514851483" cy="312.1818181818182" r="3" fill="#2563eb"></circle><circle class="dot" cx="256.63366336633663" cy="321.45454545454544" r="3" fill="#2563eb"></circle><circle class="dot" cx="258.4158415841584" cy="318.3636363636364" r="3" fill="#2563eb"></circle><circle class="dot" cx="260.1980198019802" cy="324.54545454545456" r="3" fill="#2563eb"></circle><circle class="dot" cx="261.98019801980195" cy="324.54545454545456" r="3" fill="#2563eb"></circle><circle class="dot" cx="263.76237623762376" cy="324.54545454545456" r="3" fill="#2563eb"></circle><circle class="dot" cx="265.54455445544556" cy="321.45454545454544" r="3" fill="#2563eb"></circle><circle class="dot" cx="267.3267326732673" cy="324.54545454545456" r="3" fill="#2563eb"></circle><circle class="dot" cx="269.1089108910891" cy="324.54545454545456" r="3" fill="#2563eb"></circle><circle class="dot" cx="270.8910891089109" cy="324.54545454545456" r="3" fill="#2563eb"></circle><circle class="dot" cx="272.6732673267327" cy="324.54545454545456" r="3" fill="#2563eb"></circle><circle class="dot" cx="274.45544554455444" cy="324.54545454545456" r="3" fill="#2563eb"></circle><circle class="dot" cx="276.23762376237624" cy="324.54545454545456" r="3" fill="#2563eb"></circle><circle class="dot" cx="278.01980198019805" cy="324.54545454545456" r="3" fill="#2563eb"></circle><circle class="dot" cx="279.8019801980198" cy="324.54545454545456" r="3" fill="#2563eb"></circle><circle class="dot" cx="281.5841584158416" cy="324.54545454545456" r="3" fill="#2563eb"></circle><circle class="dot" cx="283.36633663366337" cy="324.54545454545456" r="3" fill="#2563eb"></circle><circle class="dot" cx="285.1485148514852" cy="324.54545454545456" r="3" fill="#2563eb"></circle><circle class="dot" cx="286.9306930693069" cy="324.54545454545456" r="3" fill="#2563eb"></circle><circle class="dot" cx="288.71287128712873" cy="324.54545454545456" r="3" fill="#2563eb"></circle><circle class="dot" cx="290.4950495049505" cy="324.54545454545456" r="3" fill="#2563eb"></circle><circle class="dot" cx="292.2772277227723" cy="324.54545454545456" r="3" fill="#2563eb"></circle><circle class="dot" cx="294.05940594059405" cy="324.54545454545456" r="3" fill="#2563eb"></circle><circle class="dot" cx="295.8415841584158" cy="324.54545454545456" r="3" fill="#2563eb"></circle><circle class="dot" cx="297.6237623762376" cy="324.54545454545456" r="3" fill="#2563eb"></circle><circle class="dot" cx="299.4059405940594" cy="324.54545454545456" r="3" fill="#2563eb"></circle><circle class="dot" cx="301.18811881188117" cy="324.54545454545456" r="3" fill="#2563eb"></circle><circle class="dot" cx="302.970297029703" cy="324.54545454545456" r="3" fill="#2563eb"></circle><circle class="dot" cx="304.7524752475247" cy="324.54545454545456" r="3" fill="#2563eb"></circle><circle class="dot" cx="306.53465346534654" cy="324.54545454545456" r="3" fill="#2563eb"></circle><circle class="dot" cx="308.3168316831683" cy="324.54545454545456" r="3" fill="#2563eb"></circle><circle class="dot" cx="310.0990099009901" cy="324.54545454545456" r="3" fill="#2563eb"></circle><circle class="dot" cx="311.8811881188119" cy="324.54545454545456" r="3" fill="#2563eb"></circle><circle class="dot" cx="313.66336633663366" cy="324.54545454545456" r="3" fill="#2563eb"></circle><circle class="dot" cx="315.44554455445547" cy="324.54545454545456" r="3" fill="#2563eb"></circle><circle class="dot" cx="317.2277227722772" cy="324.54545454545456" r="3" fill="#2563eb"></circle><circle class="dot" cx="319.009900990099" cy="324.54545454545456" r="3" fill="#2563eb"></circle><circle class="dot" cx="320.7920792079208" cy="324.54545454545456" r="3" fill="#2563eb"></circle><circle class="dot" cx="322.5742574257426" cy="324.54545454545456" r="3" fill="#2563eb"></circle><circle class="dot" cx="324.35643564356434" cy="324.54545454545456" r="3" fill="#2563eb"></circle><circle class="dot" cx="326.13861386138615" cy="324.54545454545456" r="3" fill="#2563eb"></circle><circle class="dot" cx="327.92079207920796" cy="324.54545454545456" r="3" fill="#2563eb"></circle><circle class="dot" cx="329.7029702970297" cy="324.54545454545456" r="3" fill="#2563eb"></circle><circle class="dot" cx="331.4851485148515" cy="324.54545454545456" r="3" fill="#2563eb"></circle><circle class="dot" cx="333.26732673267327" cy="324.54545454545456" r="3" fill="#2563eb"></circle><circle class="dot" cx="335.0495049504951" cy="324.54545454545456" r="3" fill="#2563eb"></circle><circle class="dot" cx="336.83168316831683" cy="324.54545454545456" r="3" fill="#2563eb"></circle><circle class="dot" cx="338.6138613861386" cy="324.54545454545456" r="3" fill="#2563eb"></circle><circle class="dot" cx="340.3960396039604" cy="324.54545454545456" r="3" fill="#2563eb"></circle><circle class="dot" cx="342.17821782178214" cy="324.54545454545456" r="3" fill="#2563eb"></circle><circle class="dot" cx="343.96039603960395" cy="324.54545454545456" r="3" fill="#2563eb"></circle><circle class="dot" cx="345.74257425742576" cy="324.54545454545456" r="3" fill="#2563eb"></circle><circle class="dot" cx="347.5247524752475" cy="324.54545454545456" r="3" fill="#2563eb"></circle><circle class="dot" cx="349.3069306930693" cy="324.54545454545456" r="3" fill="#2563eb"></circle><circle class="dot" cx="351.08910891089107" cy="324.54545454545456" r="3" fill="#2563eb"></circle><circle class="dot" cx="352.8712871287129" cy="324.54545454545456" r="3" fill="#2563eb"></circle><circle class="dot" cx="354.65346534653463" cy="324.54545454545456" r="3" fill="#2563eb"></circle><circle class="dot" cx="356.43564356435644" cy="324.54545454545456" r="3" fill="#2563eb"></circle><circle class="dot" cx="358.2178217821782" cy="324.54545454545456" r="3" fill="#2563eb"></circle><circle class="dot" cx="360" cy="324.54545454545456" r="3" fill="#2563eb"></circle><circle class="dot" cx="361.7821782178218" cy="324.54545454545456" r="3" fill="#2563eb"></circle><circle class="dot" cx="363.56435643564356" cy="324.54545454545456" r="3" fill="#2563eb"></circle><circle class="dot" cx="365.34653465346537" cy="324.54545454545456" r="3" fill="#2563eb"></circle><circle class="dot" cx="367.1287128712871" cy="324.54545454545456" r="3" fill="#2563eb"></circle><circle class="dot" cx="368.91089108910893" cy="324.54545454545456" r="3" fill="#2563eb"></circle><circle class="dot" cx="370.6930693069307" cy="324.54545454545456" r="3" fill="#2563eb"></circle><circle class="dot" cx="372.4752475247525" cy="324.54545454545456" r="3" fill="#2563eb"></circle><circle class="dot" cx="374.25742574257424" cy="324.54545454545456" r="3" fill="#2563eb"></circle><circle class="dot" cx="376.03960396039605" cy="324.54545454545456" r="3" fill="#2563eb"></circle><circle class="dot" cx="377.82178217821786" cy="324.54545454545456" r="3" fill="#2563eb"></circle><circle class="dot" cx="379.6039603960396" cy="324.54545454545456" r="3" fill="#2563eb"></circle><circle class="dot" cx="381.3861386138614" cy="324.54545454545456" r="3" fill="#2563eb"></circle><circle class="dot" cx="383.16831683168317" cy="324.54545454545456" r="3" fill="#2563eb"></circle><circle class="dot" cx="384.950495049505" cy="324.54545454545456" r="3" fill="#2563eb"></circle><circle class="dot" cx="386.73267326732673" cy="324.54545454545456" r="3" fill="#2563eb"></circle><circle class="dot" cx="388.51485148514854" cy="324.54545454545456" r="3" fill="#2563eb"></circle><circle class="dot" cx="390.29702970297035" cy="324.54545454545456" r="3" fill="#2563eb"></circle><circle class="dot" cx="392.0792079207921" cy="324.54545454545456" r="3" fill="#2563eb"></circle><circle class="dot" cx="393.8613861386139" cy="324.54545454545456" r="3" fill="#2563eb"></circle><circle class="dot" cx="395.64356435643566" cy="324.54545454545456" r="3" fill="#2563eb"></circle><circle class="dot" cx="397.42574257425747" cy="324.54545454545456" r="3" fill="#2563eb"></circle><circle class="dot" cx="399.2079207920792" cy="324.54545454545456" r="3" fill="#2563eb"></circle><circle class="dot" cx="400.99009900990103" cy="324.54545454545456" r="3" fill="#2563eb"></circle><circle class="dot" cx="402.77227722772284" cy="324.54545454545456" r="3" fill="#2563eb"></circle><circle class="dot" cx="404.5544554455446" cy="324.54545454545456" r="3" fill="#2563eb"></circle><circle class="dot" cx="406.3366336633663" cy="324.54545454545456" r="3" fill="#2563eb"></circle><circle class="dot" cx="408.1188118811881" cy="324.54545454545456" r="3" fill="#2563eb"></circle><circle class="dot" cx="409.90099009900985" cy="324.54545454545456" r="3" fill="#2563eb"></circle><circle class="dot" cx="411.68316831683165" cy="324.54545454545456" r="3" fill="#2563eb"></circle><circle class="dot" cx="413.4653465346534" cy="324.54545454545456" r="3" fill="#2563eb"></circle><circle class="dot" cx="415.2475247524752" cy="324.54545454545456" r="3" fill="#2563eb"></circle><circle class="dot" cx="417.029702970297" cy="324.54545454545456" r="3" fill="#2563eb"></circle><circle class="dot" cx="418.8118811881188" cy="324.54545454545456" r="3" fill="#2563eb"></circle><circle class="dot" cx="420.5940594059406" cy="324.54545454545456" r="3" fill="#2563eb"></circle><circle class="dot" cx="422.37623762376234" cy="324.54545454545456" r="3" fill="#2563eb"></circle><circle class="dot" cx="424.15841584158414" cy="336.90909090909093" r="3" fill="#2563eb"></circle><circle class="dot" cx="425.9405940594059" cy="336.90909090909093" r="3" fill="#2563eb"></circle><circle class="dot" cx="427.7227722772277" cy="336.90909090909093" r="3" fill="#2563eb"></circle><circle class="dot" cx="429.5049504950495" cy="336.90909090909093" r="3" fill="#2563eb"></circle><circle class="dot" cx="431.28712871287127" cy="336.90909090909093" r="3" fill="#2563eb"></circle><circle class="dot" cx="433.0693069306931" cy="336.90909090909093" r="3" fill="#2563eb"></circle><circle class="dot" cx="434.8514851485148" cy="336.90909090909093" r="3" fill="#2563eb"></circle><circle class="dot" cx="436.63366336633663" cy="336.90909090909093" r="3" fill="#2563eb"></circle><circle class="dot" cx="438.4158415841584" cy="336.90909090909093" r="3" fill="#2563eb"></circle><circle class="dot" cx="440.1980198019802" cy="336.90909090909093" r="3" fill="#2563eb"></circle><circle class="dot" cx="441.98019801980195" cy="336.90909090909093" r="3" fill="#2563eb"></circle><circle class="dot" cx="443.76237623762376" cy="336.90909090909093" r="3" fill="#2563eb"></circle><circle class="dot" cx="445.54455445544556" cy="336.90909090909093" r="3" fill="#2563eb"></circle><circle class="dot" cx="447.3267326732673" cy="336.90909090909093" r="3" fill="#2563eb"></circle><circle class="dot" cx="449.1089108910891" cy="336.90909090909093" r="3" fill="#2563eb"></circle><circle class="dot" cx="450.8910891089109" cy="336.90909090909093" r="3" fill="#2563eb"></circle><circle class="dot" cx="452.6732673267327" cy="336.90909090909093" r="3" fill="#2563eb"></circle><circle class="dot" cx="454.45544554455444" cy="336.90909090909093" r="3" fill="#2563eb"></circle><circle class="dot" cx="456.23762376237624" cy="336.90909090909093" r="3" fill="#2563eb"></circle><circle class="dot" cx="458.01980198019805" cy="336.90909090909093" r="3" fill="#2563eb"></circle><circle class="dot" cx="459.8019801980198" cy="336.90909090909093" r="3" fill="#2563eb"></circle><circle class="dot" cx="461.5841584158416" cy="336.90909090909093" r="3" fill="#2563eb"></circle><circle class="dot" cx="463.36633663366337" cy="336.90909090909093" r="3" fill="#2563eb"></circle><circle class="dot" cx="465.1485148514852" cy="336.90909090909093" r="3" fill="#2563eb"></circle><circle class="dot" cx="466.9306930693069" cy="336.90909090909093" r="3" fill="#2563eb"></circle><circle class="dot" cx="468.71287128712873" cy="336.90909090909093" r="3" fill="#2563eb"></circle><circle class="dot" cx="470.4950495049505" cy="336.90909090909093" r="3" fill="#2563eb"></circle><circle class="dot" cx="472.2772277227723" cy="336.90909090909093" r="3" fill="#2563eb"></circle><circle class="dot" cx="474.0594059405941" cy="336.90909090909093" r="3" fill="#2563eb"></circle><circle class="dot" cx="475.84158415841586" cy="336.90909090909093" r="3" fill="#2563eb"></circle><circle class="dot" cx="477.62376237623766" cy="336.90909090909093" r="3" fill="#2563eb"></circle><circle class="dot" cx="479.4059405940594" cy="336.90909090909093" r="3" fill="#2563eb"></circle><circle class="dot" cx="481.1881188118812" cy="336.90909090909093" r="3" fill="#2563eb"></circle><circle class="dot" cx="482.970297029703" cy="336.90909090909093" r="3" fill="#2563eb"></circle><circle class="dot" cx="484.7524752475248" cy="336.90909090909093" r="3" fill="#2563eb"></circle><circle class="dot" cx="486.5346534653466" cy="336.90909090909093" r="3" fill="#2563eb"></circle><circle class="dot" cx="488.31683168316835" cy="336.90909090909093" r="3" fill="#2563eb"></circle><circle class="dot" cx="490.09900990099015" cy="336.90909090909093" r="3" fill="#2563eb"></circle><circle class="dot" cx="491.8811881188119" cy="336.90909090909093" r="3" fill="#2563eb"></circle><circle class="dot" cx="493.6633663366337" cy="336.90909090909093" r="3" fill="#2563eb"></circle><circle class="dot" cx="495.4455445544554" cy="336.90909090909093" r="3" fill="#2563eb"></circle><circle class="dot" cx="497.22772277227716" cy="336.90909090909093" r="3" fill="#2563eb"></circle><circle class="dot" cx="499.00990099009897" cy="336.90909090909093" r="3" fill="#2563eb"></circle><circle class="dot" cx="500.7920792079208" cy="336.90909090909093" r="3" fill="#2563eb"></circle><circle class="dot" cx="502.57425742574253" cy="336.90909090909093" r="3" fill="#2563eb"></circle><circle class="dot" cx="504.35643564356434" cy="336.90909090909093" r="3" fill="#2563eb"></circle><circle class="dot" cx="506.1386138613861" cy="336.90909090909093" r="3" fill="#2563eb"></circle><circle class="dot" cx="507.9207920792079" cy="336.90909090909093" r="3" fill="#2563eb"></circle><circle class="dot" cx="509.70297029702965" cy="336.90909090909093" r="3" fill="#2563eb"></circle><circle class="dot" cx="511.48514851485146" cy="336.90909090909093" r="3" fill="#2563eb"></circle><circle class="dot" cx="513.2673267326733" cy="336.90909090909093" r="3" fill="#2563eb"></circle><circle class="dot" cx="515.049504950495" cy="336.90909090909093" r="3" fill="#2563eb"></circle><circle class="dot" cx="516.8316831683168" cy="336.90909090909093" r="3" fill="#2563eb"></circle><circle class="dot" cx="518.6138613861386" cy="336.90909090909093" r="3" fill="#2563eb"></circle><circle class="dot" cx="520.3960396039604" cy="336.90909090909093" r="3" fill="#2563eb"></circle><circle class="dot" cx="522.1782178217821" cy="336.90909090909093" r="3" fill="#2563eb"></circle><circle class="dot" cx="523.9603960396039" cy="336.90909090909093" r="3" fill="#2563eb"></circle><circle class="dot" cx="525.7425742574258" cy="336.90909090909093" r="3" fill="#2563eb"></circle><circle class="dot" cx="527.5247524752475" cy="336.90909090909093" r="3" fill="#2563eb"></circle><circle class="dot" cx="529.3069306930693" cy="336.90909090909093" r="3" fill="#2563eb"></circle><circle class="dot" cx="531.0891089108911" cy="336.90909090909093" r="3" fill="#2563eb"></circle><circle class="dot" cx="532.8712871287129" cy="336.90909090909093" r="3" fill="#2563eb"></circle><circle class="dot" cx="534.6534653465346" cy="336.90909090909093" r="3" fill="#2563eb"></circle><circle class="dot" cx="536.4356435643564" cy="336.90909090909093" r="3" fill="#2563eb"></circle><circle class="dot" cx="538.2178217821782" cy="336.90909090909093" r="3" fill="#2563eb"></circle><circle class="dot" cx="540" cy="336.90909090909093" r="3" fill="#2563eb"></circle><circle class="dot" cx="541.7821782178218" cy="336.90909090909093" r="3" fill="#2563eb"></circle><circle class="dot" cx="543.5643564356436" cy="336.90909090909093" r="3" fill="#2563eb"></circle><circle class="dot" cx="545.3465346534654" cy="336.90909090909093" r="3" fill="#2563eb"></circle><circle class="dot" cx="547.1287128712871" cy="336.90909090909093" r="3" fill="#2563eb"></circle><circle class="dot" cx="548.9108910891089" cy="336.90909090909093" r="3" fill="#2563eb"></circle><circle class="dot" cx="550.6930693069307" cy="336.90909090909093" r="3" fill="#2563eb"></circle><circle class="dot" cx="552.4752475247525" cy="336.90909090909093" r="3" fill="#2563eb"></circle><circle class="dot" cx="554.2574257425742" cy="336.90909090909093" r="3" fill="#2563eb"></circle><circle class="dot" cx="556.0396039603961" cy="336.90909090909093" r="3" fill="#2563eb"></circle><circle class="dot" cx="557.8217821782179" cy="336.90909090909093" r="3" fill="#2563eb"></circle><circle class="dot" cx="559.6039603960396" cy="336.90909090909093" r="3" fill="#2563eb"></circle><circle class="dot" cx="561.3861386138614" cy="336.90909090909093" r="3" fill="#2563eb"></circle><circle class="dot" cx="563.1683168316832" cy="336.90909090909093" r="3" fill="#2563eb"></circle><circle class="dot" cx="564.950495049505" cy="336.90909090909093" r="3" fill="#2563eb"></circle><circle class="dot" cx="566.7326732673267" cy="336.90909090909093" r="3" fill="#2563eb"></circle><circle class="dot" cx="568.5148514851485" cy="336.90909090909093" r="3" fill="#2563eb"></circle><circle class="dot" cx="570.2970297029703" cy="336.90909090909093" r="3" fill="#2563eb"></circle><circle class="dot" cx="572.0792079207921" cy="336.90909090909093" r="3" fill="#2563eb"></circle><circle class="dot" cx="573.8613861386139" cy="336.90909090909093" r="3" fill="#2563eb"></circle><circle class="dot" cx="575.6435643564357" cy="336.90909090909093" r="3" fill="#2563eb"></circle><circle class="dot" cx="577.4257425742575" cy="336.90909090909093" r="3" fill="#2563eb"></circle><circle class="dot" cx="579.2079207920792" cy="336.90909090909093" r="3" fill="#2563eb"></circle><circle class="dot" cx="580.990099009901" cy="336.90909090909093" r="3" fill="#2563eb"></circle><circle class="dot" cx="582.7722772277228" cy="336.90909090909093" r="3" fill="#2563eb"></circle><circle class="dot" cx="584.5544554455446" cy="336.90909090909093" r="3" fill="#2563eb"></circle><circle class="dot" cx="586.3366336633663" cy="336.90909090909093" r="3" fill="#2563eb"></circle><circle class="dot" cx="588.1188118811881" cy="336.90909090909093" r="3" fill="#2563eb"></circle><circle class="dot" cx="589.9009900990098" cy="336.90909090909093" r="3" fill="#2563eb"></circle><circle class="dot" cx="591.6831683168316" cy="336.90909090909093" r="3" fill="#2563eb"></circle><circle class="dot" cx="593.4653465346535" cy="336.90909090909093" r="3" fill="#2563eb"></circle><circle class="dot" cx="595.2475247524752" cy="336.90909090909093" r="3" fill="#2563eb"></circle><circle class="dot" cx="597.029702970297" cy="336.90909090909093" r="3" fill="#2563eb"></circle><circle class="dot" cx="598.8118811881188" cy="336.90909090909093" r="3" fill="#2563eb"></circle><circle class="dot" cx="600.5940594059406" cy="336.90909090909093" r="3" fill="#2563eb"></circle><circle class="dot" cx="602.3762376237623" cy="336.90909090909093" r="3" fill="#2563eb"></circle><circle class="dot" cx="604.1584158415841" cy="336.90909090909093" r="3" fill="#2563eb"></circle><circle class="dot" cx="605.940594059406" cy="336.90909090909093" r="3" fill="#2563eb"></circle><circle class="dot" cx="607.7227722772277" cy="336.90909090909093" r="3" fill="#2563eb"></circle><circle class="dot" cx="609.5049504950495" cy="336.90909090909093" r="3" fill="#2563eb"></circle><circle class="dot" cx="611.2871287128713" cy="336.90909090909093" r="3" fill="#2563eb"></circle><circle class="dot" cx="613.0693069306931" cy="336.90909090909093" r="3" fill="#2563eb"></circle><circle class="dot" cx="614.8514851485148" cy="336.90909090909093" r="3" fill="#2563eb"></circle><circle class="dot" cx="616.6336633663366" cy="336.90909090909093" r="3" fill="#2563eb"></circle><circle class="dot" cx="618.4158415841584" cy="336.90909090909093" r="3" fill="#2563eb"></circle><circle class="dot" cx="620.1980198019802" cy="336.90909090909093" r="3" fill="#2563eb"></circle><circle class="dot" cx="621.980198019802" cy="336.90909090909093" r="3" fill="#2563eb"></circle><circle class="dot" cx="623.7623762376238" cy="336.90909090909093" r="3" fill="#2563eb"></circle><circle class="dot" cx="625.5445544554456" cy="336.90909090909093" r="3" fill="#2563eb"></circle><circle class="dot" cx="627.3267326732673" cy="336.90909090909093" r="3" fill="#2563eb"></circle><circle class="dot" cx="629.1089108910891" cy="336.90909090909093" r="3" fill="#2563eb"></circle><circle class="dot" cx="630.8910891089109" cy="336.90909090909093" r="3" fill="#2563eb"></circle><circle class="dot" cx="632.6732673267327" cy="336.90909090909093" r="3" fill="#2563eb"></circle><circle class="dot" cx="634.4554455445544" cy="336.90909090909093" r="3" fill="#2563eb"></circle><circle class="dot" cx="636.2376237623762" cy="336.90909090909093" r="3" fill="#2563eb"></circle><circle class="dot" cx="638.019801980198" cy="336.90909090909093" r="3" fill="#2563eb"></circle><circle class="dot" cx="639.8019801980198" cy="336.90909090909093" r="3" fill="#2563eb"></circle><circle class="dot" cx="641.5841584158416" cy="336.90909090909093" r="3" fill="#2563eb"></circle><circle class="dot" cx="643.3663366336634" cy="336.90909090909093" r="3" fill="#2563eb"></circle><circle class="dot" cx="645.1485148514852" cy="336.90909090909093" r="3" fill="#2563eb"></circle><circle class="dot" cx="646.9306930693069" cy="336.90909090909093" r="3" fill="#2563eb"></circle><circle class="dot" cx="648.7128712871287" cy="336.90909090909093" r="3" fill="#2563eb"></circle><circle class="dot" cx="650.4950495049505" cy="336.90909090909093" r="3" fill="#2563eb"></circle><circle class="dot" cx="652.2772277227723" cy="336.90909090909093" r="3" fill="#2563eb"></circle><circle class="dot" cx="654.059405940594" cy="336.90909090909093" r="3" fill="#2563eb"></circle><circle class="dot" cx="655.8415841584159" cy="336.90909090909093" r="3" fill="#2563eb"></circle><circle class="dot" cx="657.6237623762377" cy="336.90909090909093" r="3" fill="#2563eb"></circle><circle class="dot" cx="659.4059405940594" cy="336.90909090909093" r="3" fill="#2563eb"></circle><circle class="dot" cx="661.1881188118812" cy="336.90909090909093" r="3" fill="#2563eb"></circle><circle class="dot" cx="662.970297029703" cy="336.90909090909093" r="3" fill="#2563eb"></circle><circle class="dot" cx="664.7524752475248" cy="336.90909090909093" r="3" fill="#2563eb"></circle><circle class="dot" cx="666.5346534653465" cy="336.90909090909093" r="3" fill="#2563eb"></circle><circle class="dot" cx="668.3168316831684" cy="336.90909090909093" r="3" fill="#2563eb"></circle><circle class="dot" cx="670.0990099009902" cy="336.90909090909093" r="3" fill="#2563eb"></circle><circle class="dot" cx="671.8811881188119" cy="336.90909090909093" r="3" fill="#2563eb"></circle><circle class="dot" cx="673.6633663366337" cy="336.90909090909093" r="3" fill="#2563eb"></circle><circle class="dot" cx="675.4455445544554" cy="336.90909090909093" r="3" fill="#2563eb"></circle><circle class="dot" cx="677.2277227722772" cy="336.90909090909093" r="3" fill="#2563eb"></circle><circle class="dot" cx="679.009900990099" cy="336.90909090909093" r="3" fill="#2563eb"></circle><circle class="dot" cx="680.7920792079208" cy="336.90909090909093" r="3" fill="#2563eb"></circle><circle class="dot" cx="682.5742574257425" cy="336.90909090909093" r="3" fill="#2563eb"></circle><circle class="dot" cx="684.3564356435643" cy="336.90909090909093" r="3" fill="#2563eb"></circle><circle class="dot" cx="686.1386138613861" cy="336.90909090909093" r="3" fill="#2563eb"></circle><circle class="dot" cx="687.9207920792079" cy="336.90909090909093" r="3" fill="#2563eb"></circle><circle class="dot" cx="689.7029702970297" cy="336.90909090909093" r="3" fill="#2563eb"></circle><circle class="dot" cx="691.4851485148515" cy="336.90909090909093" r="3" fill="#2563eb"></circle><circle class="dot" cx="693.2673267326733" cy="336.90909090909093" r="3" fill="#2563eb"></circle><circle class="dot" cx="695.049504950495" cy="336.90909090909093" r="3" fill="#2563eb"></circle><circle class="dot" cx="696.8316831683168" cy="336.90909090909093" r="3" fill="#2563eb"></circle><circle class="dot" cx="698.6138613861386" cy="336.90909090909093" r="3" fill="#2563eb"></circle><circle class="dot" cx="700.3960396039604" cy="336.90909090909093" r="3" fill="#2563eb"></circle><circle class="dot" cx="702.1782178217821" cy="336.90909090909093" r="3" fill="#2563eb"></circle><circle class="dot" cx="703.9603960396039" cy="336.90909090909093" r="3" fill="#2563eb"></circle><circle class="dot" cx="705.7425742574258" cy="336.90909090909093" r="3" fill="#2563eb"></circle><circle class="dot" cx="707.5247524752475" cy="336.90909090909093" r="3" fill="#2563eb"></circle><circle class="dot" cx="709.3069306930693" cy="336.90909090909093" r="3" fill="#2563eb"></circle><circle class="dot" cx="711.0891089108911" cy="336.90909090909093" r="3" fill="#2563eb"></circle><circle class="dot" cx="712.8712871287129" cy="336.90909090909093" r="3" fill="#2563eb"></circle><circle class="dot" cx="714.6534653465346" cy="336.90909090909093" r="3" fill="#2563eb"></circle><circle class="dot" cx="716.4356435643564" cy="336.90909090909093" r="3" fill="#2563eb"></circle><circle class="dot" cx="718.2178217821782" cy="336.90909090909093" r="3" fill="#2563eb"></circle><circle class="dot" cx="720" cy="336.90909090909093" r="3" fill="#2563eb"></circle><g class="grid" transform="translate(0,340)" fill="none" font-size="10" font-family="sans-serif" text-anchor="middle" style="stroke-dasharray: 3,3; opacity: 0.3;"><path class="domain" stroke="currentColor" d="M0.5,-340V0.5H720.5V-340"></path><g class="tick" opacity="1" transform="translate(0.5,0)"><line stroke="currentColor" y2="-340"></line><text fill="currentColor" y="3" dy="0.71em"></text></g><g class="tick" opacity="1" transform="translate(43.27227722772277,0)"><line stroke="currentColor" y2="-340"></line><text fill="currentColor" y="3" dy="0.71em"></text></g><g class="tick" opacity="1" transform="translate(86.04455445544554,0)"><line stroke="currentColor" y2="-340"></line><text fill="currentColor" y="3" dy="0.71em"></text></g><g class="tick" opacity="1" transform="translate(128.81683168316832,0)"><line stroke="currentColor" y2="-340"></line><text fill="currentColor" y="3" dy="0.71em"></text></g><g class="tick" opacity="1" transform="translate(171.58910891089107,0)"><line stroke="currentColor" y2="-340"></line><text fill="currentColor" y="3" dy="0.71em"></text></g><g class="tick" opacity="1" transform="translate(214.36138613861385,0)"><line stroke="currentColor" y2="-340"></line><text fill="currentColor" y="3" dy="0.71em"></text></g><g class="tick" opacity="1" transform="translate(257.13366336633663,0)"><line stroke="currentColor" y2="-340"></line><text fill="currentColor" y="3" dy="0.71em"></text></g><g class="tick" opacity="1" transform="translate(299.9059405940594,0)"><line stroke="currentColor" y2="-340"></line><text fill="currentColor" y="3" dy="0.71em"></text></g><g class="tick" opacity="1" transform="translate(342.67821782178214,0)"><line stroke="currentColor" y2="-340"></line><text fill="currentColor" y="3" dy="0.71em"></text></g><g class="tick" opacity="1" transform="translate(385.450495049505,0)"><line stroke="currentColor" y2="-340"></line><text fill="currentColor" y="3" dy="0.71em"></text></g><g class="tick" opacity="1" transform="translate(428.2227722772277,0)"><line stroke="currentColor" y2="-340"></line><text fill="currentColor" y="3" dy="0.71em"></text></g><g class="tick" opacity="1" transform="translate(470.9950495049505,0)"><line stroke="currentColor" y2="-340"></line><text fill="currentColor" y="3" dy="0.71em"></text></g><g class="tick" opacity="1" transform="translate(513.7673267326733,0)"><line stroke="currentColor" y2="-340"></line><text fill="currentColor" y="3" dy="0.71em"></text></g><g class="tick" opacity="1" transform="translate(556.5396039603961,0)"><line stroke="currentColor" y2="-340"></line><text fill="currentColor" y="3" dy="0.71em"></text></g><g class="tick" opacity="1" transform="translate(599.3118811881188,0)"><line stroke="currentColor" y2="-340"></line><text fill="currentColor" y="3" dy="0.71em"></text></g><g class="tick" opacity="1" transform="translate(642.0841584158416,0)"><line stroke="currentColor" y2="-340"></line><text fill="currentColor" y="3" dy="0.71em"></text></g><g class="tick" opacity="1" transform="translate(684.8564356435643,0)"><line stroke="currentColor" y2="-340"></line><text fill="currentColor" y="3" dy="0.71em"></text></g></g><g class="grid" fill="none" font-size="10" font-family="sans-serif" text-anchor="end" style="stroke-dasharray: 3,3; opacity: 0.3;"><path class="domain" stroke="currentColor" d="M720,340.5H0.5V0.5H720"></path><g class="tick" opacity="1" transform="translate(0,340.5)"><line stroke="currentColor" x2="720"></line><text fill="currentColor" x="-3" dy="0.32em"></text></g><g class="tick" opacity="1" transform="translate(0,309.59090909090907)"><line stroke="currentColor" x2="720"></line><text fill="currentColor" x="-3" dy="0.32em"></text></g><g class="tick" opacity="1" transform="translate(0,278.6818181818182)"><line stroke="currentColor" x2="720"></line><text fill="currentColor" x="-3" dy="0.32em"></text></g><g class="tick" opacity="1" transform="translate(0,247.77272727272728)"><line stroke="currentColor" x2="720"></line><text fill="currentColor" x="-3" dy="0.32em"></text></g><g class="tick" opacity="1" transform="translate(0,216.86363636363637)"><line stroke="currentColor" x2="720"></line><text fill="currentColor" x="-3" dy="0.32em"></text></g><g class="tick" opacity="1" transform="translate(0,185.95454545454544)"><line stroke="currentColor" x2="720"></line><text fill="currentColor" x="-3" dy="0.32em"></text></g><g class="tick" opacity="1" transform="translate(0,155.04545454545456)"><line stroke="currentColor" x2="720"></line><text fill="currentColor" x="-3" dy="0.32em"></text></g><g class="tick" opacity="1" transform="translate(0,124.13636363636368)"><line stroke="currentColor" x2="720"></line><text fill="currentColor" x="-3" dy="0.32em"></text></g><g class="tick" opacity="1" transform="translate(0,93.22727272727272)"><line stroke="currentColor" x2="720"></line><text fill="currentColor" x="-3" dy="0.32em"></text></g><g class="tick" opacity="1" transform="translate(0,62.31818181818184)"><line stroke="currentColor" x2="720"></line><text fill="currentColor" x="-3" dy="0.32em"></text></g><g class="tick" opacity="1" transform="translate(0,31.40909090909092)"><line stroke="currentColor" x2="720"></line><text fill="currentColor" x="-3" dy="0.32em"></text></g><g class="tick" opacity="1" transform="translate(0,0.5)"><line stroke="currentColor" x2="720"></line><text fill="currentColor" x="-3" dy="0.32em"></text></g></g></g><text x="400" y="10" text-anchor="middle" style="font-size: 16px; font-weight: bold; fill: #333;">OKX USDT Lending Rate - Current Month</text></svg>