<svg width="800" height="400" xmlns="http://www.w3.org/2000/svg"><g transform="translate(50,20)"><g transform="translate(0,340)" fill="none" font-size="10" font-family="sans-serif" text-anchor="middle"><path class="domain" stroke="currentColor" d="M0.5,6V0.5H720.5V6"></path><g class="tick" opacity="1" transform="translate(0.5,0)"><line stroke="currentColor" y2="6"></line><text fill="currentColor" y="9" dy=".15em" style="text-anchor: end;" dx="-.8em" transform="rotate(-45)">12/01</text></g><g class="tick" opacity="1" transform="translate(111.26923076923077,0)"><line stroke="currentColor" y2="6"></line><text fill="currentColor" y="9" dy=".15em" style="text-anchor: end;" dx="-.8em" transform="rotate(-45)">12/02</text></g><g class="tick" opacity="1" transform="translate(222.03846153846155,0)"><line stroke="currentColor" y2="6"></line><text fill="currentColor" y="9" dy=".15em" style="text-anchor: end;" dx="-.8em" transform="rotate(-45)">12/03</text></g><g class="tick" opacity="1" transform="translate(332.8076923076923,0)"><line stroke="currentColor" y2="6"></line><text fill="currentColor" y="9" dy=".15em" style="text-anchor: end;" dx="-.8em" transform="rotate(-45)">12/04</text></g><g class="tick" opacity="1" transform="translate(443.5769230769231,0)"><line stroke="currentColor" y2="6"></line><text fill="currentColor" y="9" dy=".15em" style="text-anchor: end;" dx="-.8em" transform="rotate(-45)">12/05</text></g><g class="tick" opacity="1" transform="translate(554.3461538461539,0)"><line stroke="currentColor" y2="6"></line><text fill="currentColor" y="9" dy=".15em" style="text-anchor: end;" dx="-.8em" transform="rotate(-45)">12/06</text></g><g class="tick" opacity="1" transform="translate(665.1153846153846,0)"><line stroke="currentColor" y2="6"></line><text fill="currentColor" y="9" dy=".15em" style="text-anchor: end;" dx="-.8em" transform="rotate(-45)">12/07</text></g></g><g fill="none" font-size="10" font-family="sans-serif" text-anchor="end"><path class="domain" stroke="currentColor" d="M-6,340.5H0.5V0.5H-6"></path><g class="tick" opacity="1" transform="translate(0,170.5)"><line stroke="currentColor" x2="-6"></line><text fill="currentColor" x="-9" dy="0.32em">3.50%</text></g></g><text transform="rotate(-90)" y="-50" x="-170" dy="1em" style="text-anchor: middle; font-size: 12px; fill: #666;">Pre Rate (%)</text><text transform="translate(360, 380)" style="text-anchor: middle; font-size: 12px; fill: #666;">Time (UTC)</text><path fill="none" stroke="#2563eb" stroke-width="2" d="M0,170C1.538,170,3.077,170,4.615,170C6.154,170,7.692,170,9.231,170C10.769,170,12.308,170,13.846,170C15.385,170,16.923,170,18.462,170C20,170,21.538,170,23.077,170C24.615,170,26.154,170,27.692,170C29.231,170,30.769,170,32.308,170C33.846,170,35.385,170,36.923,170C38.462,170,40,170,41.538,170C43.077,170,44.615,170,46.154,170C47.692,170,49.231,170,50.769,170C52.308,170,53.846,170,55.385,170C56.923,170,58.462,170,60,170C61.538,170,63.077,170,64.615,170C66.154,170,67.692,170,69.231,170C70.769,170,72.308,170,73.846,170C75.385,170,76.923,170,78.462,170C80,170,81.538,170,83.077,170C84.615,170,86.154,170,87.692,170C89.231,170,90.769,170,92.308,170C93.846,170,95.385,170,96.923,170C98.462,170,100,170,101.538,170C103.077,170,104.615,170,106.154,170C107.692,170,109.231,170,110.769,170C112.308,170,113.846,170,115.385,170C116.923,170,118.462,170,120,170C121.538,170,123.077,170,124.615,170C126.154,170,127.692,170,129.231,170C130.769,170,132.308,170,133.846,170C135.385,170,136.923,170,138.462,170C140,170,141.538,170,143.077,170C144.615,170,146.154,170,147.692,170C149.231,170,150.769,170,152.308,170C153.846,170,155.385,170,156.923,170C158.462,170,160,170,161.538,170C163.077,170,164.615,170,166.154,170C167.692,170,169.231,170,170.769,170C172.308,170,173.846,170,175.385,170C176.923,170,178.462,170,180,170C181.538,170,183.077,170,184.615,170C186.154,170,187.692,170,189.231,170C190.769,170,192.308,170,193.846,170C195.385,170,196.923,170,198.462,170C200,170,201.538,170,203.077,170C204.615,170,206.154,170,207.692,170C209.231,170,210.769,170,212.308,170C213.846,170,215.385,170,216.923,170C218.462,170,220,170,221.538,170C223.077,170,224.615,170,226.154,170C227.692,170,229.231,170,230.769,170C232.308,170,233.846,170,235.385,170C236.923,170,238.462,170,240,170C241.538,170,243.077,170,244.615,170C246.154,170,247.692,170,249.231,170C250.769,170,252.308,170,253.846,170C255.385,170,256.923,170,258.462,170C260,170,261.538,170,263.077,170C264.615,170,266.154,170,267.692,170C269.231,170,270.769,170,272.308,170C273.846,170,275.385,170,276.923,170C278.462,170,280,170,281.538,170C283.077,170,284.615,170,286.154,170C287.692,170,289.231,170,290.769,170C292.308,170,293.846,170,295.385,170C296.923,170,298.462,170,300,170C301.538,170,303.077,170,304.615,170C306.154,170,307.692,170,309.231,170C310.769,170,312.308,170,313.846,170C315.385,170,316.923,170,318.462,170C320,170,321.538,170,323.077,170C324.615,170,326.154,170,327.692,170C329.231,170,330.769,170,332.308,170C333.846,170,335.385,170,336.923,170C338.462,170,340,170,341.538,170C343.077,170,344.615,170,346.154,170C347.692,170,349.231,170,350.769,170C352.308,170,353.846,170,355.385,170C356.923,170,358.462,170,360,170C361.538,170,363.077,170,364.615,170C366.154,170,367.692,170,369.231,170C370.769,170,372.308,170,373.846,170C375.385,170,376.923,170,378.462,170C380,170,381.538,170,383.077,170C384.615,170,386.154,170,387.692,170C389.231,170,390.769,170,392.308,170C393.846,170,395.385,170,396.923,170C398.462,170,400,170,401.538,170C403.077,170,404.615,170,406.154,170C407.692,170,409.231,170,410.769,170C412.308,170,413.846,170,415.385,170C416.923,170,418.462,170,420,170C421.538,170,423.077,170,424.615,170C426.154,170,427.692,170,429.231,170C430.769,170,432.308,170,433.846,170C435.385,170,436.923,170,438.462,170C440,170,441.538,170,443.077,170C444.615,170,446.154,170,447.692,170C449.231,170,450.769,170,452.308,170C453.846,170,455.385,170,456.923,170C458.462,170,460,170,461.538,170C463.077,170,464.615,170,466.154,170C467.692,170,469.231,170,470.769,170C472.308,170,473.846,170,475.385,170C476.923,170,478.462,170,480,170C481.538,170,483.077,170,484.615,170C486.154,170,487.692,170,489.231,170C490.769,170,492.308,170,493.846,170C495.385,170,496.923,170,498.462,170C500,170,501.538,170,503.077,170C504.615,170,506.154,170,507.692,170C509.231,170,510.769,170,512.308,170C513.846,170,515.385,170,516.923,170C518.462,170,520,170,521.538,170C523.077,170,524.615,170,526.154,170C527.692,170,529.231,170,530.769,170C532.308,170,533.846,170,535.385,170C536.923,170,538.462,170,540,170C541.538,170,543.077,170,544.615,170C546.154,170,547.692,170,549.231,170C550.769,170,552.308,170,553.846,170C555.385,170,556.923,170,558.462,170C560,170,561.538,170,563.077,170C564.615,170,566.154,170,567.692,170C569.231,170,570.769,170,572.308,170C573.846,170,575.385,170,576.923,170C578.462,170,580,170,581.538,170C583.077,170,584.615,170,586.154,170C587.692,170,589.231,170,590.769,170C592.308,170,593.846,170,595.385,170C596.923,170,598.462,170,600,170C601.538,170,603.077,170,604.615,170C606.154,170,607.692,170,609.231,170C610.769,170,612.308,170,613.846,170C615.385,170,616.923,170,618.462,170C620,170,621.538,170,623.077,170C624.615,170,626.154,170,627.692,170C629.231,170,630.769,170,632.308,170C633.846,170,635.385,170,636.923,170C638.462,170,640,170,641.538,170C643.077,170,644.615,170,646.154,170C647.692,170,649.231,170,650.769,170C652.308,170,653.846,170,655.385,170C656.923,170,658.462,170,660,170C661.538,170,663.077,170,664.615,170C666.154,170,667.692,170,669.231,170C670.769,170,672.308,170,673.846,170C675.385,170,676.923,170,678.462,170C680,170,681.538,170,683.077,170C684.615,170,686.154,170,687.692,170C689.231,170,690.769,170,692.308,170C693.846,170,695.385,170,696.923,170C698.462,170,700,170,701.538,170C703.077,170,704.615,170,706.154,170C707.692,170,709.231,170,710.769,170C712.308,170,713.846,170,715.385,170C716.923,170,718.462,170,720,170"></path><circle class="dot" cx="0" cy="170" r="3" fill="#2563eb"></circle><circle class="dot" cx="4.615384615384615" cy="170" r="3" fill="#2563eb"></circle><circle class="dot" cx="9.23076923076923" cy="170" r="3" fill="#2563eb"></circle><circle class="dot" cx="13.846153846153847" cy="170" r="3" fill="#2563eb"></circle><circle class="dot" cx="18.46153846153846" cy="170" r="3" fill="#2563eb"></circle><circle class="dot" cx="23.076923076923073" cy="170" r="3" fill="#2563eb"></circle><circle class="dot" cx="27.692307692307693" cy="170" r="3" fill="#2563eb"></circle><circle class="dot" cx="32.30769230769231" cy="170" r="3" fill="#2563eb"></circle><circle class="dot" cx="36.92307692307692" cy="170" r="3" fill="#2563eb"></circle><circle class="dot" cx="41.53846153846154" cy="170" r="3" fill="#2563eb"></circle><circle class="dot" cx="46.153846153846146" cy="170" r="3" fill="#2563eb"></circle><circle class="dot" cx="50.76923076923077" cy="170" r="3" fill="#2563eb"></circle><circle class="dot" cx="55.38461538461539" cy="170" r="3" fill="#2563eb"></circle><circle class="dot" cx="60" cy="170" r="3" fill="#2563eb"></circle><circle class="dot" cx="64.61538461538461" cy="170" r="3" fill="#2563eb"></circle><circle class="dot" cx="69.23076923076924" cy="170" r="3" fill="#2563eb"></circle><circle class="dot" cx="73.84615384615384" cy="170" r="3" fill="#2563eb"></circle><circle class="dot" cx="78.46153846153847" cy="170" r="3" fill="#2563eb"></circle><circle class="dot" cx="83.07692307692308" cy="170" r="3" fill="#2563eb"></circle><circle class="dot" cx="87.6923076923077" cy="170" r="3" fill="#2563eb"></circle><circle class="dot" cx="92.30769230769229" cy="170" r="3" fill="#2563eb"></circle><circle class="dot" cx="96.92307692307692" cy="170" r="3" fill="#2563eb"></circle><circle class="dot" cx="101.53846153846153" cy="170" r="3" fill="#2563eb"></circle><circle class="dot" cx="106.15384615384616" cy="170" r="3" fill="#2563eb"></circle><circle class="dot" cx="110.76923076923077" cy="170" r="3" fill="#2563eb"></circle><circle class="dot" cx="115.3846153846154" cy="170" r="3" fill="#2563eb"></circle><circle class="dot" cx="120" cy="170" r="3" fill="#2563eb"></circle><circle class="dot" cx="124.61538461538461" cy="170" r="3" fill="#2563eb"></circle><circle class="dot" cx="129.23076923076923" cy="170" r="3" fill="#2563eb"></circle><circle class="dot" cx="133.84615384615384" cy="170" r="3" fill="#2563eb"></circle><circle class="dot" cx="138.46153846153848" cy="170" r="3" fill="#2563eb"></circle><circle class="dot" cx="143.07692307692307" cy="170" r="3" fill="#2563eb"></circle><circle class="dot" cx="147.69230769230768" cy="170" r="3" fill="#2563eb"></circle><circle class="dot" cx="152.3076923076923" cy="170" r="3" fill="#2563eb"></circle><circle class="dot" cx="156.92307692307693" cy="170" r="3" fill="#2563eb"></circle><circle class="dot" cx="161.53846153846155" cy="170" r="3" fill="#2563eb"></circle><circle class="dot" cx="166.15384615384616" cy="170" r="3" fill="#2563eb"></circle><circle class="dot" cx="170.76923076923077" cy="170" r="3" fill="#2563eb"></circle><circle class="dot" cx="175.3846153846154" cy="170" r="3" fill="#2563eb"></circle><circle class="dot" cx="180" cy="170" r="3" fill="#2563eb"></circle><circle class="dot" cx="184.61538461538458" cy="170" r="3" fill="#2563eb"></circle><circle class="dot" cx="189.23076923076923" cy="170" r="3" fill="#2563eb"></circle><circle class="dot" cx="193.84615384615384" cy="170" r="3" fill="#2563eb"></circle><circle class="dot" cx="198.46153846153848" cy="170" r="3" fill="#2563eb"></circle><circle class="dot" cx="203.07692307692307" cy="170" r="3" fill="#2563eb"></circle><circle class="dot" cx="207.69230769230768" cy="170" r="3" fill="#2563eb"></circle><circle class="dot" cx="212.30769230769232" cy="170" r="3" fill="#2563eb"></circle><circle class="dot" cx="216.9230769230769" cy="170" r="3" fill="#2563eb"></circle><circle class="dot" cx="221.53846153846155" cy="170" r="3" fill="#2563eb"></circle><circle class="dot" cx="226.15384615384616" cy="170" r="3" fill="#2563eb"></circle><circle class="dot" cx="230.7692307692308" cy="170" r="3" fill="#2563eb"></circle><circle class="dot" cx="235.3846153846154" cy="170" r="3" fill="#2563eb"></circle><circle class="dot" cx="240" cy="170" r="3" fill="#2563eb"></circle><circle class="dot" cx="244.6153846153846" cy="170" r="3" fill="#2563eb"></circle><circle class="dot" cx="249.23076923076923" cy="170" r="3" fill="#2563eb"></circle><circle class="dot" cx="253.84615384615387" cy="170" r="3" fill="#2563eb"></circle><circle class="dot" cx="258.46153846153845" cy="170" r="3" fill="#2563eb"></circle><circle class="dot" cx="263.07692307692304" cy="170" r="3" fill="#2563eb"></circle><circle class="dot" cx="267.6923076923077" cy="170" r="3" fill="#2563eb"></circle><circle class="dot" cx="272.3076923076923" cy="170" r="3" fill="#2563eb"></circle><circle class="dot" cx="276.92307692307696" cy="170" r="3" fill="#2563eb"></circle><circle class="dot" cx="281.53846153846155" cy="170" r="3" fill="#2563eb"></circle><circle class="dot" cx="286.15384615384613" cy="170" r="3" fill="#2563eb"></circle><circle class="dot" cx="290.7692307692308" cy="170" r="3" fill="#2563eb"></circle><circle class="dot" cx="295.38461538461536" cy="170" r="3" fill="#2563eb"></circle><circle class="dot" cx="300" cy="170" r="3" fill="#2563eb"></circle><circle class="dot" cx="304.6153846153846" cy="170" r="3" fill="#2563eb"></circle><circle class="dot" cx="309.2307692307692" cy="170" r="3" fill="#2563eb"></circle><circle class="dot" cx="313.84615384615387" cy="170" r="3" fill="#2563eb"></circle><circle class="dot" cx="318.46153846153845" cy="170" r="3" fill="#2563eb"></circle><circle class="dot" cx="323.0769230769231" cy="170" r="3" fill="#2563eb"></circle><circle class="dot" cx="327.6923076923077" cy="170" r="3" fill="#2563eb"></circle><circle class="dot" cx="332.3076923076923" cy="170" r="3" fill="#2563eb"></circle><circle class="dot" cx="336.9230769230769" cy="170" r="3" fill="#2563eb"></circle><circle class="dot" cx="341.53846153846155" cy="170" r="3" fill="#2563eb"></circle><circle class="dot" cx="346.1538461538462" cy="170" r="3" fill="#2563eb"></circle><circle class="dot" cx="350.7692307692308" cy="170" r="3" fill="#2563eb"></circle><circle class="dot" cx="355.3846153846154" cy="170" r="3" fill="#2563eb"></circle><circle class="dot" cx="360" cy="170" r="3" fill="#2563eb"></circle><circle class="dot" cx="364.6153846153846" cy="170" r="3" fill="#2563eb"></circle><circle class="dot" cx="369.23076923076917" cy="170" r="3" fill="#2563eb"></circle><circle class="dot" cx="373.84615384615387" cy="170" r="3" fill="#2563eb"></circle><circle class="dot" cx="378.46153846153845" cy="170" r="3" fill="#2563eb"></circle><circle class="dot" cx="383.0769230769231" cy="170" r="3" fill="#2563eb"></circle><circle class="dot" cx="387.6923076923077" cy="170" r="3" fill="#2563eb"></circle><circle class="dot" cx="392.30769230769226" cy="170" r="3" fill="#2563eb"></circle><circle class="dot" cx="396.92307692307696" cy="170" r="3" fill="#2563eb"></circle><circle class="dot" cx="401.53846153846155" cy="170" r="3" fill="#2563eb"></circle><circle class="dot" cx="406.15384615384613" cy="170" r="3" fill="#2563eb"></circle><circle class="dot" cx="410.7692307692308" cy="170" r="3" fill="#2563eb"></circle><circle class="dot" cx="415.38461538461536" cy="170" r="3" fill="#2563eb"></circle><circle class="dot" cx="420" cy="170" r="3" fill="#2563eb"></circle><circle class="dot" cx="424.61538461538464" cy="170" r="3" fill="#2563eb"></circle><circle class="dot" cx="429.2307692307692" cy="170" r="3" fill="#2563eb"></circle><circle class="dot" cx="433.8461538461538" cy="170" r="3" fill="#2563eb"></circle><circle class="dot" cx="438.4615384615384" cy="170" r="3" fill="#2563eb"></circle><circle class="dot" cx="443.0769230769231" cy="170" r="3" fill="#2563eb"></circle><circle class="dot" cx="447.6923076923077" cy="170" r="3" fill="#2563eb"></circle><circle class="dot" cx="452.3076923076923" cy="170" r="3" fill="#2563eb"></circle><circle class="dot" cx="456.9230769230769" cy="170" r="3" fill="#2563eb"></circle><circle class="dot" cx="461.5384615384616" cy="170" r="3" fill="#2563eb"></circle><circle class="dot" cx="466.1538461538462" cy="170" r="3" fill="#2563eb"></circle><circle class="dot" cx="470.7692307692308" cy="170" r="3" fill="#2563eb"></circle><circle class="dot" cx="475.38461538461536" cy="170" r="3" fill="#2563eb"></circle><circle class="dot" cx="480" cy="170" r="3" fill="#2563eb"></circle><circle class="dot" cx="484.61538461538464" cy="170" r="3" fill="#2563eb"></circle><circle class="dot" cx="489.2307692307692" cy="170" r="3" fill="#2563eb"></circle><circle class="dot" cx="493.84615384615387" cy="170" r="3" fill="#2563eb"></circle><circle class="dot" cx="498.46153846153845" cy="170" r="3" fill="#2563eb"></circle><circle class="dot" cx="503.07692307692304" cy="170" r="3" fill="#2563eb"></circle><circle class="dot" cx="507.69230769230774" cy="170" r="3" fill="#2563eb"></circle><circle class="dot" cx="512.3076923076924" cy="170" r="3" fill="#2563eb"></circle><circle class="dot" cx="516.9230769230769" cy="170" r="3" fill="#2563eb"></circle><circle class="dot" cx="521.5384615384615" cy="170" r="3" fill="#2563eb"></circle><circle class="dot" cx="526.1538461538461" cy="170" r="3" fill="#2563eb"></circle><circle class="dot" cx="530.7692307692308" cy="170" r="3" fill="#2563eb"></circle><circle class="dot" cx="535.3846153846154" cy="170" r="3" fill="#2563eb"></circle><circle class="dot" cx="540" cy="170" r="3" fill="#2563eb"></circle><circle class="dot" cx="544.6153846153846" cy="170" r="3" fill="#2563eb"></circle><circle class="dot" cx="549.2307692307692" cy="170" r="3" fill="#2563eb"></circle><circle class="dot" cx="553.8461538461539" cy="170" r="3" fill="#2563eb"></circle><circle class="dot" cx="558.4615384615385" cy="170" r="3" fill="#2563eb"></circle><circle class="dot" cx="563.0769230769231" cy="170" r="3" fill="#2563eb"></circle><circle class="dot" cx="567.6923076923076" cy="170" r="3" fill="#2563eb"></circle><circle class="dot" cx="572.3076923076923" cy="170" r="3" fill="#2563eb"></circle><circle class="dot" cx="576.9230769230769" cy="170" r="3" fill="#2563eb"></circle><circle class="dot" cx="581.5384615384615" cy="170" r="3" fill="#2563eb"></circle><circle class="dot" cx="586.1538461538462" cy="170" r="3" fill="#2563eb"></circle><circle class="dot" cx="590.7692307692307" cy="170" r="3" fill="#2563eb"></circle><circle class="dot" cx="595.3846153846154" cy="170" r="3" fill="#2563eb"></circle><circle class="dot" cx="600" cy="170" r="3" fill="#2563eb"></circle><circle class="dot" cx="604.6153846153846" cy="170" r="3" fill="#2563eb"></circle><circle class="dot" cx="609.2307692307692" cy="170" r="3" fill="#2563eb"></circle><circle class="dot" cx="613.8461538461538" cy="170" r="3" fill="#2563eb"></circle><circle class="dot" cx="618.4615384615385" cy="170" r="3" fill="#2563eb"></circle><circle class="dot" cx="623.0769230769231" cy="170" r="3" fill="#2563eb"></circle><circle class="dot" cx="627.6923076923077" cy="170" r="3" fill="#2563eb"></circle><circle class="dot" cx="632.3076923076923" cy="170" r="3" fill="#2563eb"></circle><circle class="dot" cx="636.9230769230769" cy="170" r="3" fill="#2563eb"></circle><circle class="dot" cx="641.5384615384615" cy="170" r="3" fill="#2563eb"></circle><circle class="dot" cx="646.1538461538462" cy="170" r="3" fill="#2563eb"></circle><circle class="dot" cx="650.7692307692308" cy="170" r="3" fill="#2563eb"></circle><circle class="dot" cx="655.3846153846154" cy="170" r="3" fill="#2563eb"></circle><circle class="dot" cx="660" cy="170" r="3" fill="#2563eb"></circle><circle class="dot" cx="664.6153846153846" cy="170" r="3" fill="#2563eb"></circle><circle class="dot" cx="669.2307692307693" cy="170" r="3" fill="#2563eb"></circle><circle class="dot" cx="673.8461538461538" cy="170" r="3" fill="#2563eb"></circle><circle class="dot" cx="678.4615384615385" cy="170" r="3" fill="#2563eb"></circle><circle class="dot" cx="683.0769230769231" cy="170" r="3" fill="#2563eb"></circle><circle class="dot" cx="687.6923076923077" cy="170" r="3" fill="#2563eb"></circle><circle class="dot" cx="692.3076923076924" cy="170" r="3" fill="#2563eb"></circle><circle class="dot" cx="696.9230769230769" cy="170" r="3" fill="#2563eb"></circle><circle class="dot" cx="701.5384615384615" cy="170" r="3" fill="#2563eb"></circle><circle class="dot" cx="706.1538461538461" cy="170" r="3" fill="#2563eb"></circle><circle class="dot" cx="710.7692307692308" cy="170" r="3" fill="#2563eb"></circle><circle class="dot" cx="715.3846153846154" cy="170" r="3" fill="#2563eb"></circle><circle class="dot" cx="720" cy="170" r="3" fill="#2563eb"></circle><g class="grid" transform="translate(0,340)" fill="none" font-size="10" font-family="sans-serif" text-anchor="middle" style="stroke-dasharray: 3,3; opacity: 0.3;"><path class="domain" stroke="currentColor" d="M0.5,-340V0.5H720.5V-340"></path><g class="tick" opacity="1" transform="translate(0.5,0)"><line stroke="currentColor" y2="-340"></line><text fill="currentColor" y="3" dy="0.71em"></text></g><g class="tick" opacity="1" transform="translate(111.26923076923077,0)"><line stroke="currentColor" y2="-340"></line><text fill="currentColor" y="3" dy="0.71em"></text></g><g class="tick" opacity="1" transform="translate(222.03846153846155,0)"><line stroke="currentColor" y2="-340"></line><text fill="currentColor" y="3" dy="0.71em"></text></g><g class="tick" opacity="1" transform="translate(332.8076923076923,0)"><line stroke="currentColor" y2="-340"></line><text fill="currentColor" y="3" dy="0.71em"></text></g><g class="tick" opacity="1" transform="translate(443.5769230769231,0)"><line stroke="currentColor" y2="-340"></line><text fill="currentColor" y="3" dy="0.71em"></text></g><g class="tick" opacity="1" transform="translate(554.3461538461539,0)"><line stroke="currentColor" y2="-340"></line><text fill="currentColor" y="3" dy="0.71em"></text></g><g class="tick" opacity="1" transform="translate(665.1153846153846,0)"><line stroke="currentColor" y2="-340"></line><text fill="currentColor" y="3" dy="0.71em"></text></g></g><g class="grid" fill="none" font-size="10" font-family="sans-serif" text-anchor="end" style="stroke-dasharray: 3,3; opacity: 0.3;"><path class="domain" stroke="currentColor" d="M720,340.5H0.5V0.5H720"></path><g class="tick" opacity="1" transform="translate(0,170.5)"><line stroke="currentColor" x2="720"></line><text fill="currentColor" x="-3" dy="0.32em"></text></g></g></g><text x="400" y="10" text-anchor="middle" style="font-size: 16px; font-weight: bold; fill: #333;">OKX USDT Lending Rate - Current Month</text></svg>