<svg width="800" height="400" xmlns="http://www.w3.org/2000/svg"><g transform="translate(50,20)"><g transform="translate(0,340)" fill="none" font-size="10" font-family="sans-serif" text-anchor="middle"><path class="domain" stroke="currentColor" d="M0.5,6V0.5H720.5V6"></path><g class="tick" opacity="1" transform="translate(0.5,0)"><line stroke="currentColor" y2="6"></line><text fill="currentColor" y="9" dy=".15em" style="text-anchor: end;" dx="-.8em" transform="rotate(-45)">01/01</text></g><g class="tick" opacity="1" transform="translate(29.937819420783644,0)"><line stroke="currentColor" y2="6"></line><text fill="currentColor" y="9" dy=".15em" style="text-anchor: end;" dx="-.8em" transform="rotate(-45)">01/02</text></g><g class="tick" opacity="1" transform="translate(59.37563884156729,0)"><line stroke="currentColor" y2="6"></line><text fill="currentColor" y="9" dy=".15em" style="text-anchor: end;" dx="-.8em" transform="rotate(-45)">01/03</text></g><g class="tick" opacity="1" transform="translate(88.81345826235093,0)"><line stroke="currentColor" y2="6"></line><text fill="currentColor" y="9" dy=".15em" style="text-anchor: end;" dx="-.8em" transform="rotate(-45)">01/04</text></g><g class="tick" opacity="1" transform="translate(118.25127768313457,0)"><line stroke="currentColor" y2="6"></line><text fill="currentColor" y="9" dy=".15em" style="text-anchor: end;" dx="-.8em" transform="rotate(-45)">01/05</text></g><g class="tick" opacity="1" transform="translate(147.68909710391821,0)"><line stroke="currentColor" y2="6"></line><text fill="currentColor" y="9" dy=".15em" style="text-anchor: end;" dx="-.8em" transform="rotate(-45)">01/06</text></g><g class="tick" opacity="1" transform="translate(177.12691652470187,0)"><line stroke="currentColor" y2="6"></line><text fill="currentColor" y="9" dy=".15em" style="text-anchor: end;" dx="-.8em" transform="rotate(-45)">01/07</text></g><g class="tick" opacity="1" transform="translate(206.56473594548552,0)"><line stroke="currentColor" y2="6"></line><text fill="currentColor" y="9" dy=".15em" style="text-anchor: end;" dx="-.8em" transform="rotate(-45)">01/08</text></g><g class="tick" opacity="1" transform="translate(236.00255536626915,0)"><line stroke="currentColor" y2="6"></line><text fill="currentColor" y="9" dy=".15em" style="text-anchor: end;" dx="-.8em" transform="rotate(-45)">01/09</text></g><g class="tick" opacity="1" transform="translate(265.4403747870528,0)"><line stroke="currentColor" y2="6"></line><text fill="currentColor" y="9" dy=".15em" style="text-anchor: end;" dx="-.8em" transform="rotate(-45)">01/10</text></g><g class="tick" opacity="1" transform="translate(294.87819420783643,0)"><line stroke="currentColor" y2="6"></line><text fill="currentColor" y="9" dy=".15em" style="text-anchor: end;" dx="-.8em" transform="rotate(-45)">01/11</text></g><g class="tick" opacity="1" transform="translate(324.3160136286201,0)"><line stroke="currentColor" y2="6"></line><text fill="currentColor" y="9" dy=".15em" style="text-anchor: end;" dx="-.8em" transform="rotate(-45)">01/12</text></g><g class="tick" opacity="1" transform="translate(353.75383304940374,0)"><line stroke="currentColor" y2="6"></line><text fill="currentColor" y="9" dy=".15em" style="text-anchor: end;" dx="-.8em" transform="rotate(-45)">01/13</text></g><g class="tick" opacity="1" transform="translate(383.19165247018736,0)"><line stroke="currentColor" y2="6"></line><text fill="currentColor" y="9" dy=".15em" style="text-anchor: end;" dx="-.8em" transform="rotate(-45)">01/14</text></g><g class="tick" opacity="1" transform="translate(412.62947189097105,0)"><line stroke="currentColor" y2="6"></line><text fill="currentColor" y="9" dy=".15em" style="text-anchor: end;" dx="-.8em" transform="rotate(-45)">01/15</text></g><g class="tick" opacity="1" transform="translate(442.06729131175473,0)"><line stroke="currentColor" y2="6"></line><text fill="currentColor" y="9" dy=".15em" style="text-anchor: end;" dx="-.8em" transform="rotate(-45)">01/16</text></g><g class="tick" opacity="1" transform="translate(471.5051107325383,0)"><line stroke="currentColor" y2="6"></line><text fill="currentColor" y="9" dy=".15em" style="text-anchor: end;" dx="-.8em" transform="rotate(-45)">01/17</text></g><g class="tick" opacity="1" transform="translate(500.942930153322,0)"><line stroke="currentColor" y2="6"></line><text fill="currentColor" y="9" dy=".15em" style="text-anchor: end;" dx="-.8em" transform="rotate(-45)">01/18</text></g><g class="tick" opacity="1" transform="translate(530.3807495741056,0)"><line stroke="currentColor" y2="6"></line><text fill="currentColor" y="9" dy=".15em" style="text-anchor: end;" dx="-.8em" transform="rotate(-45)">01/19</text></g><g class="tick" opacity="1" transform="translate(559.8185689948893,0)"><line stroke="currentColor" y2="6"></line><text fill="currentColor" y="9" dy=".15em" style="text-anchor: end;" dx="-.8em" transform="rotate(-45)">01/20</text></g><g class="tick" opacity="1" transform="translate(589.2563884156729,0)"><line stroke="currentColor" y2="6"></line><text fill="currentColor" y="9" dy=".15em" style="text-anchor: end;" dx="-.8em" transform="rotate(-45)">01/21</text></g><g class="tick" opacity="1" transform="translate(618.6942078364566,0)"><line stroke="currentColor" y2="6"></line><text fill="currentColor" y="9" dy=".15em" style="text-anchor: end;" dx="-.8em" transform="rotate(-45)">01/22</text></g><g class="tick" opacity="1" transform="translate(648.1320272572402,0)"><line stroke="currentColor" y2="6"></line><text fill="currentColor" y="9" dy=".15em" style="text-anchor: end;" dx="-.8em" transform="rotate(-45)">01/23</text></g><g class="tick" opacity="1" transform="translate(677.5698466780239,0)"><line stroke="currentColor" y2="6"></line><text fill="currentColor" y="9" dy=".15em" style="text-anchor: end;" dx="-.8em" transform="rotate(-45)">01/24</text></g><g class="tick" opacity="1" transform="translate(707.0076660988075,0)"><line stroke="currentColor" y2="6"></line><text fill="currentColor" y="9" dy=".15em" style="text-anchor: end;" dx="-.8em" transform="rotate(-45)">01/25</text></g></g><g fill="none" font-size="10" font-family="sans-serif" text-anchor="end"><path class="domain" stroke="currentColor" d="M-6,340.5H0.5V0.5H-6"></path><g class="tick" opacity="1" transform="translate(0,340.5)"><line stroke="currentColor" x2="-6"></line><text fill="currentColor" x="-9" dy="0.32em">3.20%</text></g><g class="tick" opacity="1" transform="translate(0,312.16666666666663)"><line stroke="currentColor" x2="-6"></line><text fill="currentColor" x="-9" dy="0.32em">3.25%</text></g><g class="tick" opacity="1" transform="translate(0,283.83333333333326)"><line stroke="currentColor" x2="-6"></line><text fill="currentColor" x="-9" dy="0.32em">3.30%</text></g><g class="tick" opacity="1" transform="translate(0,255.49999999999991)"><line stroke="currentColor" x2="-6"></line><text fill="currentColor" x="-9" dy="0.32em">3.35%</text></g><g class="tick" opacity="1" transform="translate(0,227.16666666666654)"><line stroke="currentColor" x2="-6"></line><text fill="currentColor" x="-9" dy="0.32em">3.40%</text></g><g class="tick" opacity="1" transform="translate(0,198.83333333333314)"><line stroke="currentColor" x2="-6"></line><text fill="currentColor" x="-9" dy="0.32em">3.45%</text></g><g class="tick" opacity="1" transform="translate(0,170.4999999999998)"><line stroke="currentColor" x2="-6"></line><text fill="currentColor" x="-9" dy="0.32em">3.50%</text></g><g class="tick" opacity="1" transform="translate(0,142.16666666666686)"><line stroke="currentColor" x2="-6"></line><text fill="currentColor" x="-9" dy="0.32em">3.55%</text></g><g class="tick" opacity="1" transform="translate(0,113.83333333333346)"><line stroke="currentColor" x2="-6"></line><text fill="currentColor" x="-9" dy="0.32em">3.60%</text></g><g class="tick" opacity="1" transform="translate(0,85.50000000000011)"><line stroke="currentColor" x2="-6"></line><text fill="currentColor" x="-9" dy="0.32em">3.65%</text></g><g class="tick" opacity="1" transform="translate(0,57.16666666666673)"><line stroke="currentColor" x2="-6"></line><text fill="currentColor" x="-9" dy="0.32em">3.70%</text></g><g class="tick" opacity="1" transform="translate(0,28.833333333333385)"><line stroke="currentColor" x2="-6"></line><text fill="currentColor" x="-9" dy="0.32em">3.75%</text></g><g class="tick" opacity="1" transform="translate(0,0.5)"><line stroke="currentColor" x2="-6"></line><text fill="currentColor" x="-9" dy="0.32em">3.80%</text></g></g><text transform="rotate(-90)" y="-50" x="-170" dy="1em" style="text-anchor: middle; font-size: 12px; fill: #666;">Pre Rate (%)</text><text transform="translate(360, 380)" style="text-anchor: middle; font-size: 12px; fill: #666;">Time (UTC)</text><path fill="none" stroke="#2563eb" stroke-width="2" d="M0,340C0.409,340,0.818,340,1.227,340C1.635,340,2.044,340,2.453,340C2.862,340,3.271,340,3.68,340C4.089,340,4.497,340,4.906,340C5.315,340,5.724,340,6.133,340C6.542,340,6.951,340,7.359,340C7.768,340,8.177,340,8.586,340C8.995,340,9.404,340,9.813,340C10.221,340,10.63,340,11.039,340C11.448,340,11.857,340,12.266,340C12.675,340,13.083,340,13.492,340C13.901,340,14.31,340,14.719,340C15.128,340,15.537,340,15.945,340C16.354,340,16.763,340,17.172,340C17.581,340,17.99,340,18.399,340C18.807,340,19.216,340,19.625,340C20.034,340,20.443,340,20.852,340C21.261,340,21.67,340,22.078,340C22.487,340,22.896,340,23.305,340C23.714,340,24.123,340,24.532,340C24.94,340,25.349,340,25.758,340C26.167,340,26.576,340,26.985,340C27.394,340,27.802,340,28.211,340C28.62,340,29.029,340,29.438,340C29.847,340,30.256,340,30.664,340C31.073,340,31.482,340,31.891,340C32.3,340,32.709,340,33.118,340C33.526,340,33.935,340,34.344,340C34.753,340,35.162,340,35.571,340C35.98,340,36.388,340,36.797,340C37.206,340,37.615,340,38.024,340C38.433,340,38.842,340,39.25,340C39.659,340,40.068,340,40.477,340C40.886,340,41.295,340,41.704,340C42.112,340,42.521,340,42.93,340C43.339,340,43.748,340,44.157,340C44.566,340,44.974,340,45.383,340C45.792,340,46.201,340,46.61,340C47.019,340,47.428,340,47.836,340C48.245,340,48.654,340,49.063,340C49.472,340,49.881,340,50.29,340C50.698,340,51.107,340,51.516,340C51.925,340,52.334,340,52.743,340C53.152,340,53.56,340,53.969,340C54.378,340,54.787,340,55.196,340C55.605,340,56.014,340,56.422,340C56.831,340,57.24,340,57.649,340C58.058,340,58.467,340,58.876,340C59.284,340,59.693,340,60.102,340C60.511,340,60.92,340,61.329,340C61.738,340,62.147,340,62.555,340C62.964,340,63.373,340,63.782,340C64.191,340,64.6,340,65.009,340C65.417,340,65.826,340,66.235,340C66.644,340,67.053,340,67.462,340C67.871,340,68.279,340,68.688,340C69.097,340,69.506,340,69.915,340C70.324,340,70.733,340,71.141,340C71.55,340,71.959,340,72.368,340C72.777,340,73.186,340,73.595,340C74.003,340,74.412,340,74.821,340C75.23,340,75.639,340,76.048,340C76.457,340,76.865,340,77.274,340C77.683,340,78.092,340,78.501,340C78.91,340,79.319,340,79.727,340C80.136,340,80.545,340,80.954,340C81.363,340,81.772,340,82.181,340C82.589,340,82.998,340,83.407,340C83.816,340,84.225,340,84.634,340C85.043,340,85.451,340,85.86,340C86.269,340,86.678,340,87.087,340C87.496,340,87.905,340,88.313,340C88.722,340,89.131,340,89.54,340C89.949,340,90.358,340,90.767,340C91.175,340,91.584,340,91.993,340C92.402,340,92.811,340,93.22,340C93.629,340,94.037,340,94.446,340C94.855,340,95.264,340,95.673,340C96.082,340,96.491,340,96.899,340C97.308,340,97.717,340,98.126,340C98.535,340,98.944,340,99.353,340C99.761,340,100.17,340,100.579,340C100.988,340,101.397,340,101.806,340C102.215,340,102.624,340,103.032,340C103.441,340,103.85,340,104.259,340C104.668,340,105.077,340,105.486,340C105.894,340,106.303,340,106.712,340C107.121,340,107.53,340,107.939,340C108.348,340,108.756,340,109.165,340C109.574,340,109.983,340,110.392,340C110.801,340,111.21,340,111.618,340C112.027,340,112.436,340,112.845,340C113.254,340,113.663,340,114.072,340C114.48,340,114.889,340,115.298,340C115.707,340,116.116,340,116.525,340C116.934,340,117.342,340,117.751,340C118.16,340,118.569,340,118.978,340C119.387,340,119.796,340,120.204,340C120.613,340,121.022,340,121.431,340C121.84,340,122.249,340,122.658,340C123.066,340,123.475,340,123.884,340C124.293,340,124.702,340,125.111,340C125.52,340,125.928,340,126.337,340C126.746,340,127.155,340,127.564,340C127.973,340,128.382,340,128.79,340C129.199,340,129.608,340,130.017,340C130.426,340,130.835,340,131.244,340C131.652,340,132.061,340,132.47,340C132.879,340,133.288,340,133.697,340C134.106,340,134.514,340,134.923,340C135.332,340,135.741,340,136.15,340C136.559,340,136.968,340,137.376,340C137.785,340,138.194,340,138.603,340C139.012,340,139.421,340,139.83,340C140.239,340,140.647,340,141.056,340C141.465,340,141.874,340,142.283,340C142.692,340,143.101,340,143.509,340C143.918,340,144.327,340,144.736,340C145.145,340,145.554,340,145.963,340C146.371,340,146.78,340,147.189,340C147.598,340,148.007,340,148.416,340C148.825,340,149.233,340,149.642,340C150.051,340,150.46,340,150.869,340C151.278,340,151.687,340,152.095,340C152.504,340,152.913,340,153.322,340C153.731,340,154.14,340,154.549,340C154.957,340,155.366,340,155.775,340C156.184,340,156.593,340,157.002,340C157.411,340,157.819,340,158.228,340C158.637,340,159.046,340,159.455,340C159.864,340,160.273,340,160.681,340C161.09,340,161.499,340,161.908,340C162.317,340,162.726,340,163.135,340C163.543,340,163.952,340,164.361,340C164.77,340,165.179,340,165.588,340C165.997,340,166.405,340,166.814,340C167.223,340,167.632,340,168.041,340C168.45,340,168.859,340,169.267,340C169.676,340,170.085,340,170.494,340C170.903,340,171.312,340,171.721,340C172.129,340,172.538,340,172.947,340C173.356,340,173.765,340,174.174,340C174.583,340,174.991,340,175.4,340C175.809,340,176.218,340,176.627,340C177.036,340,177.445,340,177.853,340C178.262,340,178.671,340,179.08,340C179.489,340,179.898,340,180.307,340C180.716,340,181.124,340,181.533,340C181.942,340,182.351,340,182.76,340C183.169,340,183.578,340,183.986,340C184.395,340,184.804,340,185.213,340C185.622,340,186.031,340,186.44,340C186.848,340,187.257,340,187.666,340C188.075,340,188.484,340,188.893,340C189.302,340,189.71,340,190.119,340C190.528,340,190.937,340,191.346,340C191.755,340,192.164,340,192.572,340C192.981,340,193.39,340,193.799,340C194.208,340,194.617,340,195.026,340C195.434,340,195.843,340,196.252,340C196.661,340,197.07,340,197.479,340C197.888,340,198.296,340,198.705,340C199.114,340,199.523,340,199.932,340C200.341,340,200.75,340,201.158,340C201.567,340,201.976,340,202.385,340C202.794,340,203.203,340,203.612,340C204.02,340,204.429,340,204.838,340C205.247,340,205.656,340,206.065,340C206.474,340,206.882,340,207.291,340C207.7,340,208.109,340,208.518,340C208.927,340,209.336,340,209.744,340C210.153,340,210.562,340,210.971,340C211.38,340,211.789,340,212.198,340C212.606,340,213.015,340,213.424,340C213.833,340,214.242,340,214.651,340C215.06,340,215.468,340,215.877,340C216.286,340,216.695,340,217.104,340C217.513,340,217.922,340,218.33,340C218.739,340,219.148,340,219.557,340C219.966,340,220.375,340,220.784,340C221.193,340,221.601,340,222.01,340C222.419,340,222.828,340,223.237,340C223.646,340,224.055,340,224.463,340C224.872,340,225.281,340,225.69,340C226.099,340,226.508,340,226.917,340C227.325,340,227.734,340,228.143,340C228.552,340,228.961,340,229.37,340C229.779,340,230.187,340,230.596,340C231.005,340,231.414,340,231.823,340C232.232,340,232.641,340,233.049,340C233.458,340,233.867,340,234.276,340C234.685,340,235.094,340,235.503,340C235.911,340,236.32,340,236.729,340C237.138,340,237.547,340,237.956,340C238.365,340,238.773,340,239.182,340C239.591,340,240,340,240.409,340C240.818,340,241.227,340,241.635,340C242.044,340,242.453,340,242.862,340C243.271,340,243.68,340,244.089,340C244.497,340,244.906,340,245.315,340C245.724,340,246.133,340,246.542,340C246.951,340,247.359,340,247.768,340C248.177,340,248.586,340,248.995,340C249.404,340,249.813,340,250.221,340C250.63,340,251.039,340,251.448,340C251.857,340,252.266,340,252.675,340C253.083,340,253.492,340,253.901,340C254.31,340,254.719,340,255.128,340C255.537,340,255.945,340,256.354,340C256.763,340,257.172,340,257.581,340C257.99,340,258.399,340,258.807,340C259.216,340,259.625,340,260.034,340C260.443,340,260.852,340,261.261,340C261.67,340,262.078,340,262.487,340C262.896,340,263.305,340,263.714,340C264.123,340,264.532,340,264.94,340C265.349,340,265.758,340,266.167,340C266.576,340,266.985,340,267.394,340C267.802,340,268.211,340,268.62,340C269.029,340,269.438,340,269.847,340C270.256,340,270.664,340,271.073,340C271.482,340,271.891,340,272.3,340C272.709,340,273.118,340,273.526,340C273.935,340,274.344,340,274.753,340C275.162,340,275.571,340,275.98,340C276.388,340,276.797,340,277.206,340C277.615,340,278.024,340,278.433,340C278.842,340,279.25,340,279.659,340C280.068,340,280.477,340,280.886,340C281.295,340,281.704,340,282.112,340C282.521,340,282.93,340,283.339,340C283.748,340,284.157,340,284.566,340C284.974,340,285.383,340,285.792,340C286.201,340,286.61,340,287.019,340C287.428,340,287.836,340,288.245,340C288.654,340,289.063,340,289.472,340C289.881,340,290.29,340,290.698,340C291.107,340,291.516,340,291.925,340C292.334,340,292.743,340,293.152,340C293.56,340,293.969,340,294.378,340C294.787,340,295.196,340,295.605,340C296.014,340,296.422,340,296.831,340C297.24,340,297.649,340,298.058,340C298.467,340,298.876,340,299.284,340C299.693,340,300.102,340,300.511,340C300.92,340,301.329,340,301.738,340C302.147,340,302.555,340,302.964,340C303.373,340,303.782,340,304.191,340C304.6,340,305.009,340,305.417,340C305.826,340,306.235,340,306.644,340C307.053,340,307.462,340,307.871,340C308.279,340,308.688,340,309.097,340C309.506,340,309.915,340,310.324,340C310.733,340,311.141,340,311.55,340C311.959,340,312.368,340,312.777,340C313.186,340,313.595,340,314.003,340C314.412,340,314.821,340,315.23,340C315.639,340,316.048,340,316.457,340C316.865,340,317.274,340,317.683,340C318.092,340,318.501,340,318.91,340C319.319,340,319.727,340,320.136,340C320.545,340,320.954,340,321.363,340C321.772,340,322.181,340,322.589,340C322.998,340,323.407,340,323.816,340C324.225,340,324.634,340,325.043,340C325.451,340,325.86,340,326.269,340C326.678,340,327.087,340,327.496,340C327.905,340,328.313,340,328.722,340C329.131,340,329.54,340,329.949,340C330.358,340,330.767,340,331.175,340C331.584,340,331.993,340,332.402,340C332.811,340,333.22,340,333.629,340C334.037,340,334.446,340,334.855,340C335.264,340,335.673,340,336.082,340C336.491,340,336.899,340,337.308,340C337.717,340,338.126,340,338.535,340C338.944,340,339.353,340,339.761,340C340.17,340,340.579,340,340.988,340C341.397,340,341.806,340,342.215,340C342.624,340,343.032,340,343.441,340C343.85,340,344.259,340,344.668,340C345.077,340,345.486,340,345.894,340C346.303,340,346.712,340,347.121,340C347.53,340,347.939,340,348.348,340C348.756,340,349.165,340,349.574,340C349.983,340,350.392,340,350.801,340C351.21,340,351.618,340,352.027,340C352.436,340,352.845,340,353.254,340C353.663,340,354.072,340,354.48,340C354.889,340,355.298,340,355.707,340C356.116,340,356.525,340,356.934,340C357.342,340,357.751,340,358.16,340C358.569,340,358.978,340,359.387,340C359.796,340,360.204,340,360.613,340C361.022,340,361.431,340,361.84,340C362.249,340,362.658,340,363.066,340C363.475,340,363.884,340,364.293,340C364.702,340,365.111,340,365.52,340C365.928,340,366.337,340,366.746,340C367.155,340,367.564,340,367.973,340C368.382,340,368.79,340,369.199,340C369.608,340,370.017,340,370.426,340C370.835,340,371.244,340,371.652,340C372.061,340,372.47,340,372.879,340C373.288,340,373.697,340,374.106,340C374.514,340,374.923,340,375.332,340C375.741,340,376.15,340,376.559,340C376.968,340,377.376,340,377.785,340C378.194,340,378.603,340,379.012,340C379.421,340,379.83,340,380.239,340C380.647,340,381.056,340,381.465,340C381.874,340,382.283,340,382.692,340C383.101,340,383.509,340,383.918,340C384.327,340,384.736,340,385.145,340C385.554,340,385.963,340,386.371,340C386.78,340,387.189,340,387.598,340C388.007,340,388.416,340,388.825,340C389.233,340,389.642,340,390.051,340C390.46,340,390.869,340,391.278,340C391.687,340,392.095,340,392.504,340C392.913,340,393.322,340,393.731,340C394.14,340,394.549,340,394.957,340C395.366,340,395.775,340,396.184,340C396.593,340,397.002,340,397.411,340C397.819,340,398.228,340,398.637,340C399.046,340,399.455,340,399.864,340C400.273,340,400.681,340,401.09,340C401.499,340,401.908,340,402.317,340C402.726,340,403.135,340,403.543,340C403.952,340,404.361,340,404.77,340C405.179,340,405.588,340,405.997,340C406.405,340,406.814,340,407.223,340C407.632,340,408.041,340,408.45,340C408.859,340,409.267,340,409.676,340C410.085,340,410.494,340,410.903,340C411.312,340,411.721,340,412.129,340C412.538,340,412.947,340,413.356,340C413.765,340,414.174,0,414.583,0C414.991,0,415.4,0,415.809,0C416.218,0,416.627,0,417.036,0C417.445,0,417.853,0,418.262,0C418.671,0,419.08,0,419.489,0C419.898,0,420.307,0,420.716,0C421.124,0,421.533,0,421.942,0C422.351,0,422.76,0,423.169,0C423.578,0,423.986,0,424.395,0C424.804,0,425.213,0,425.622,0C426.031,0,426.44,0,426.848,0C427.257,0,427.666,0,428.075,0C428.484,0,428.893,0,429.302,0C429.71,0,430.119,0,430.528,0C430.937,0,431.346,0,431.755,0C432.164,0,432.572,0,432.981,0C433.39,0,433.799,0,434.208,0C434.617,0,435.026,0,435.434,0C435.843,0,436.252,0,436.661,0C437.07,0,437.479,0,437.888,0C438.296,0,438.705,0,439.114,0C439.523,0,439.932,0,440.341,0C440.75,0,441.158,0,441.567,0C441.976,0,442.385,0,442.794,0C443.203,0,443.612,0,444.02,0C444.429,0,444.838,0,445.247,0C445.656,0,446.065,0,446.474,0C446.882,0,447.291,0,447.7,0C448.109,0,448.518,0,448.927,0C449.336,0,449.744,0,450.153,0C450.562,0,450.971,0,451.38,0C451.789,0,452.198,0,452.606,0C453.015,0,453.424,0,453.833,0C454.242,0,454.651,0,455.06,0C455.468,0,455.877,0,456.286,0C456.695,0,457.104,0,457.513,0C457.922,0,458.33,0,458.739,0C459.148,0,459.557,0,459.966,0C460.375,0,460.784,0,461.193,0C461.601,0,462.01,0,462.419,0C462.828,0,463.237,0,463.646,0C464.055,0,464.463,0,464.872,0C465.281,0,465.69,0,466.099,0C466.508,0,466.917,0,467.325,0C467.734,0,468.143,0,468.552,0C468.961,0,469.37,0,469.779,0C470.187,0,470.596,0,471.005,0C471.414,0,471.823,0,472.232,0C472.641,0,473.049,0,473.458,0C473.867,0,474.276,0,474.685,0C475.094,0,475.503,0,475.911,0C476.32,0,476.729,0,477.138,0C477.547,0,477.956,0,478.365,0C478.773,0,479.182,0,479.591,0C480,0,480.409,0,480.818,0C481.227,0,481.635,0,482.044,0C482.453,0,482.862,0,483.271,0C483.68,0,484.089,0,484.497,0C484.906,0,485.315,0,485.724,0C486.133,0,486.542,0,486.951,0C487.359,0,487.768,0,488.177,0C488.586,0,488.995,0,489.404,0C489.813,0,490.221,0,490.63,0C491.039,0,491.448,0,491.857,0C492.266,0,492.675,0,493.083,0C493.492,0,493.901,0,494.31,0C494.719,0,495.128,0,495.537,0C495.945,0,496.354,0,496.763,0C497.172,0,497.581,0,497.99,0C498.399,0,498.807,0,499.216,0C499.625,0,500.034,0,500.443,0C500.852,0,501.261,0,501.67,0C502.078,0,502.487,0,502.896,0C503.305,0,503.714,0,504.123,0C504.532,0,504.94,0,505.349,0C505.758,0,506.167,0,506.576,0C506.985,0,507.394,0,507.802,0C508.211,0,508.62,0,509.029,0C509.438,0,509.847,0,510.256,0C510.664,0,511.073,0,511.482,0C511.891,0,512.3,0,512.709,0C513.118,0,513.526,0,513.935,0C514.344,0,514.753,0,515.162,0C515.571,0,515.98,0,516.388,0C516.797,0,517.206,0,517.615,0C518.024,0,518.433,0,518.842,0C519.25,0,519.659,0,520.068,0C520.477,0,520.886,0,521.295,0C521.704,0,522.112,0,522.521,0C522.93,0,523.339,0,523.748,0C524.157,0,524.566,0,524.974,0C525.383,0,525.792,0,526.201,0C526.61,0,527.019,0,527.428,0C527.836,0,528.245,0,528.654,0C529.063,0,529.472,0,529.881,0C530.29,0,530.698,0,531.107,0C531.516,0,531.925,0,532.334,0C532.743,0,533.152,0,533.56,0C533.969,0,534.378,0,534.787,0C535.196,0,535.605,0,536.014,0C536.422,0,536.831,0,537.24,0C537.649,0,538.058,0,538.467,0C538.876,0,539.284,0,539.693,0C540.102,0,540.511,0,540.92,0C541.329,0,541.738,0,542.147,0C542.555,0,542.964,0,543.373,0C543.782,0,544.191,0,544.6,0C545.009,0,545.417,0,545.826,0C546.235,0,546.644,0,547.053,0C547.462,0,547.871,0,548.279,0C548.688,0,549.097,0,549.506,0C549.915,0,550.324,0,550.733,0C551.141,0,551.55,0,551.959,0C552.368,0,552.777,0,553.186,0C553.595,0,554.003,0,554.412,0C554.821,0,555.23,0,555.639,0C556.048,0,556.457,0,556.865,0C557.274,0,557.683,0,558.092,0C558.501,0,558.91,0,559.319,0C559.727,0,560.136,0,560.545,0C560.954,0,561.363,0,561.772,0C562.181,0,562.589,0,562.998,0C563.407,0,563.816,0,564.225,0C564.634,0,565.043,0,565.451,0C565.86,0,566.269,0,566.678,0C567.087,0,567.496,0,567.905,0C568.313,0,568.722,0,569.131,0C569.54,0,569.949,0,570.358,0C570.767,0,571.175,0,571.584,0C571.993,0,572.402,0,572.811,0C573.22,0,573.629,0,574.037,0C574.446,0,574.855,0,575.264,0C575.673,0,576.082,0,576.491,0C576.899,0,577.308,0,577.717,0C578.126,0,578.535,0,578.944,0C579.353,0,579.761,0,580.17,0C580.579,0,580.988,0,581.397,0C581.806,0,582.215,0,582.624,0C583.032,0,583.441,0,583.85,0C584.259,0,584.668,0,585.077,0C585.486,0,585.894,0,586.303,0C586.712,0,587.121,0,587.53,0C587.939,0,588.348,0,588.756,0C589.165,0,589.574,0,589.983,0C590.392,0,590.801,0,591.21,0C591.618,0,592.027,0,592.436,0C592.845,0,593.254,0,593.663,0C594.072,0,594.48,0,594.889,0C595.298,0,595.707,0,596.116,0C596.525,0,596.934,0,597.342,0C597.751,0,598.16,0,598.569,0C598.978,0,599.387,0,599.796,0C600.204,0,600.613,0,601.022,0C601.431,0,601.84,0,602.249,0C602.658,0,603.066,0,603.475,0C603.884,0,604.293,0,604.702,0C605.111,0,605.52,0,605.928,0C606.337,0,606.746,0,607.155,0C607.564,0,607.973,0,608.382,0C608.79,0,609.199,0,609.608,0C610.017,0,610.426,0,610.835,0C611.244,0,611.652,0,612.061,0C612.47,0,612.879,0,613.288,0C613.697,0,614.106,0,614.514,0C614.923,0,615.332,0,615.741,0C616.15,0,616.559,0,616.968,0C617.376,0,617.785,0,618.194,0C618.603,0,619.012,0,619.421,0C619.83,0,620.239,0,620.647,0C621.056,0,621.465,0,621.874,0C622.283,0,622.692,0,623.101,0C623.509,0,623.918,0,624.327,0C624.736,0,625.145,0,625.554,0C625.963,0,626.371,0,626.78,0C627.189,0,627.598,0,628.007,0C628.416,0,628.825,0,629.233,0C629.642,0,630.051,0,630.46,0C630.869,0,631.278,0,631.687,0C632.095,0,632.504,0,632.913,0C633.322,0,633.731,0,634.14,0C634.549,0,634.957,0,635.366,0C635.775,0,636.184,0,636.593,0C637.002,0,637.411,0,637.819,0C638.228,0,638.637,0,639.046,0C639.455,0,639.864,0,640.273,0C640.681,0,641.09,0,641.499,0C641.908,0,642.317,0,642.726,0C643.135,0,643.543,0,643.952,0C644.361,0,644.77,0,645.179,0C645.588,0,645.997,0,646.405,0C646.814,0,647.223,0,647.632,0C648.041,0,648.45,0,648.859,0C649.267,0,649.676,0,650.085,0C650.494,0,650.903,0,651.312,0C651.721,0,652.129,0,652.538,0C652.947,0,653.356,0,653.765,0C654.174,0,654.583,0,654.991,0C655.4,0,655.809,0,656.218,0C656.627,0,657.036,0,657.445,0C657.853,0,658.262,0,658.671,0C659.08,0,659.489,0,659.898,0C660.307,0,660.716,0,661.124,0C661.533,0,661.942,0,662.351,0C662.76,0,663.169,0,663.578,0C663.986,0,664.395,0,664.804,0C665.213,0,665.622,0,666.031,0C666.44,0,666.848,0,667.257,0C667.666,0,668.075,0,668.484,0C668.893,0,669.302,0,669.71,0C670.119,0,670.528,0,670.937,0C671.346,0,671.755,0,672.164,0C672.572,0,672.981,0,673.39,0C673.799,0,674.208,0,674.617,0C675.026,0,675.434,0,675.843,0C676.252,0,676.661,0,677.07,0C677.479,0,677.888,0,678.296,0C678.705,0,679.114,0,679.523,0C679.932,0,680.341,0,680.75,0C681.158,0,681.567,0,681.976,0C682.385,0,682.794,0,683.203,0C683.612,0,684.02,0,684.429,0C684.838,0,685.247,0,685.656,0C686.065,0,686.474,0,686.882,0C687.291,0,687.7,0,688.109,0C688.518,0,688.927,0,689.336,0C689.744,0,690.153,0,690.562,0C690.971,0,691.38,0,691.789,0C692.198,0,692.606,0,693.015,0C693.424,0,693.833,0,694.242,0C694.651,0,695.06,0,695.468,0C695.877,0,696.286,0,696.695,0C697.104,0,697.513,0,697.922,0C698.33,0,698.739,0,699.148,0C699.557,0,699.966,0,700.375,0C700.784,0,701.193,0,701.601,0C702.01,0,702.419,0,702.828,0C703.237,0,703.646,0,704.055,0C704.463,0,704.872,0,705.281,0C705.69,0,706.099,0,706.508,0C706.917,0,707.325,0,707.734,0C708.143,0,708.552,0,708.961,0C709.37,0,709.779,0,710.187,0C710.596,0,711.005,0,711.414,0C711.823,0,712.232,0,712.641,0C713.049,0,713.458,0,713.867,0C714.276,0,714.685,0,715.094,0C715.503,0,715.911,0,716.32,0C716.729,0,717.138,0,717.547,0C717.956,0,718.365,0,718.773,0C719.182,0,719.591,0,720,0"></path><circle class="dot" cx="0" cy="340" r="3" fill="#2563eb"></circle><circle class="dot" cx="1.2265758091993186" cy="340" r="3" fill="#2563eb"></circle><circle class="dot" cx="2.4531516183986373" cy="340" r="3" fill="#2563eb"></circle><circle class="dot" cx="3.6797274275979555" cy="340" r="3" fill="#2563eb"></circle><circle class="dot" cx="4.9063032367972745" cy="340" r="3" fill="#2563eb"></circle><circle class="dot" cx="6.132879045996592" cy="340" r="3" fill="#2563eb"></circle><circle class="dot" cx="7.359454855195911" cy="340" r="3" fill="#2563eb"></circle><circle class="dot" cx="8.58603066439523" cy="340" r="3" fill="#2563eb"></circle><circle class="dot" cx="9.812606473594549" cy="340" r="3" fill="#2563eb"></circle><circle class="dot" cx="11.039182282793867" cy="340" r="3" fill="#2563eb"></circle><circle class="dot" cx="12.265758091993185" cy="340" r="3" fill="#2563eb"></circle><circle class="dot" cx="13.492333901192504" cy="340" r="3" fill="#2563eb"></circle><circle class="dot" cx="14.718909710391822" cy="340" r="3" fill="#2563eb"></circle><circle class="dot" cx="15.945485519591141" cy="340" r="3" fill="#2563eb"></circle><circle class="dot" cx="17.17206132879046" cy="340" r="3" fill="#2563eb"></circle><circle class="dot" cx="18.398637137989777" cy="340" r="3" fill="#2563eb"></circle><circle class="dot" cx="19.625212947189098" cy="340" r="3" fill="#2563eb"></circle><circle class="dot" cx="20.851788756388416" cy="340" r="3" fill="#2563eb"></circle><circle class="dot" cx="22.078364565587734" cy="340" r="3" fill="#2563eb"></circle><circle class="dot" cx="23.30494037478705" cy="340" r="3" fill="#2563eb"></circle><circle class="dot" cx="24.53151618398637" cy="340" r="3" fill="#2563eb"></circle><circle class="dot" cx="25.75809199318569" cy="340" r="3" fill="#2563eb"></circle><circle class="dot" cx="26.984667802385008" cy="340" r="3" fill="#2563eb"></circle><circle class="dot" cx="28.21124361158433" cy="340" r="3" fill="#2563eb"></circle><circle class="dot" cx="29.437819420783644" cy="340" r="3" fill="#2563eb"></circle><circle class="dot" cx="30.66439522998296" cy="340" r="3" fill="#2563eb"></circle><circle class="dot" cx="31.890971039182283" cy="340" r="3" fill="#2563eb"></circle><circle class="dot" cx="33.1175468483816" cy="340" r="3" fill="#2563eb"></circle><circle class="dot" cx="34.34412265758092" cy="340" r="3" fill="#2563eb"></circle><circle class="dot" cx="35.570698466780236" cy="340" r="3" fill="#2563eb"></circle><circle class="dot" cx="36.797274275979554" cy="340" r="3" fill="#2563eb"></circle><circle class="dot" cx="38.02385008517888" cy="340" r="3" fill="#2563eb"></circle><circle class="dot" cx="39.250425894378196" cy="340" r="3" fill="#2563eb"></circle><circle class="dot" cx="40.477001703577514" cy="340" r="3" fill="#2563eb"></circle><circle class="dot" cx="41.70357751277683" cy="340" r="3" fill="#2563eb"></circle><circle class="dot" cx="42.93015332197615" cy="340" r="3" fill="#2563eb"></circle><circle class="dot" cx="44.15672913117547" cy="340" r="3" fill="#2563eb"></circle><circle class="dot" cx="45.383304940374785" cy="340" r="3" fill="#2563eb"></circle><circle class="dot" cx="46.6098807495741" cy="340" r="3" fill="#2563eb"></circle><circle class="dot" cx="47.83645655877342" cy="340" r="3" fill="#2563eb"></circle><circle class="dot" cx="49.06303236797274" cy="340" r="3" fill="#2563eb"></circle><circle class="dot" cx="50.28960817717206" cy="340" r="3" fill="#2563eb"></circle><circle class="dot" cx="51.51618398637138" cy="340" r="3" fill="#2563eb"></circle><circle class="dot" cx="52.7427597955707" cy="340" r="3" fill="#2563eb"></circle><circle class="dot" cx="53.969335604770016" cy="340" r="3" fill="#2563eb"></circle><circle class="dot" cx="55.19591141396934" cy="340" r="3" fill="#2563eb"></circle><circle class="dot" cx="56.42248722316866" cy="340" r="3" fill="#2563eb"></circle><circle class="dot" cx="57.64906303236798" cy="340" r="3" fill="#2563eb"></circle><circle class="dot" cx="58.87563884156729" cy="340" r="3" fill="#2563eb"></circle><circle class="dot" cx="60.102214650766605" cy="340" r="3" fill="#2563eb"></circle><circle class="dot" cx="61.32879045996592" cy="340" r="3" fill="#2563eb"></circle><circle class="dot" cx="62.55536626916525" cy="340" r="3" fill="#2563eb"></circle><circle class="dot" cx="63.781942078364565" cy="340" r="3" fill="#2563eb"></circle><circle class="dot" cx="65.00851788756388" cy="340" r="3" fill="#2563eb"></circle><circle class="dot" cx="66.2350936967632" cy="340" r="3" fill="#2563eb"></circle><circle class="dot" cx="67.46166950596252" cy="340" r="3" fill="#2563eb"></circle><circle class="dot" cx="68.68824531516184" cy="340" r="3" fill="#2563eb"></circle><circle class="dot" cx="69.91482112436117" cy="340" r="3" fill="#2563eb"></circle><circle class="dot" cx="71.14139693356047" cy="340" r="3" fill="#2563eb"></circle><circle class="dot" cx="72.36797274275979" cy="340" r="3" fill="#2563eb"></circle><circle class="dot" cx="73.59454855195911" cy="340" r="3" fill="#2563eb"></circle><circle class="dot" cx="74.82112436115843" cy="340" r="3" fill="#2563eb"></circle><circle class="dot" cx="76.04770017035776" cy="340" r="3" fill="#2563eb"></circle><circle class="dot" cx="77.27427597955707" cy="340" r="3" fill="#2563eb"></circle><circle class="dot" cx="78.50085178875639" cy="340" r="3" fill="#2563eb"></circle><circle class="dot" cx="79.72742759795571" cy="340" r="3" fill="#2563eb"></circle><circle class="dot" cx="80.95400340715503" cy="340" r="3" fill="#2563eb"></circle><circle class="dot" cx="82.18057921635435" cy="340" r="3" fill="#2563eb"></circle><circle class="dot" cx="83.40715502555366" cy="340" r="3" fill="#2563eb"></circle><circle class="dot" cx="84.63373083475298" cy="340" r="3" fill="#2563eb"></circle><circle class="dot" cx="85.8603066439523" cy="340" r="3" fill="#2563eb"></circle><circle class="dot" cx="87.08688245315162" cy="340" r="3" fill="#2563eb"></circle><circle class="dot" cx="88.31345826235093" cy="340" r="3" fill="#2563eb"></circle><circle class="dot" cx="89.54003407155025" cy="340" r="3" fill="#2563eb"></circle><circle class="dot" cx="90.76660988074957" cy="340" r="3" fill="#2563eb"></circle><circle class="dot" cx="91.99318568994889" cy="340" r="3" fill="#2563eb"></circle><circle class="dot" cx="93.2197614991482" cy="340" r="3" fill="#2563eb"></circle><circle class="dot" cx="94.44633730834752" cy="340" r="3" fill="#2563eb"></circle><circle class="dot" cx="95.67291311754684" cy="340" r="3" fill="#2563eb"></circle><circle class="dot" cx="96.89948892674616" cy="340" r="3" fill="#2563eb"></circle><circle class="dot" cx="98.12606473594548" cy="340" r="3" fill="#2563eb"></circle><circle class="dot" cx="99.3526405451448" cy="340" r="3" fill="#2563eb"></circle><circle class="dot" cx="100.57921635434413" cy="340" r="3" fill="#2563eb"></circle><circle class="dot" cx="101.80579216354344" cy="340" r="3" fill="#2563eb"></circle><circle class="dot" cx="103.03236797274276" cy="340" r="3" fill="#2563eb"></circle><circle class="dot" cx="104.25894378194208" cy="340" r="3" fill="#2563eb"></circle><circle class="dot" cx="105.4855195911414" cy="340" r="3" fill="#2563eb"></circle><circle class="dot" cx="106.71209540034071" cy="340" r="3" fill="#2563eb"></circle><circle class="dot" cx="107.93867120954003" cy="340" r="3" fill="#2563eb"></circle><circle class="dot" cx="109.16524701873936" cy="340" r="3" fill="#2563eb"></circle><circle class="dot" cx="110.39182282793868" cy="340" r="3" fill="#2563eb"></circle><circle class="dot" cx="111.618398637138" cy="340" r="3" fill="#2563eb"></circle><circle class="dot" cx="112.84497444633732" cy="340" r="3" fill="#2563eb"></circle><circle class="dot" cx="114.07155025553664" cy="340" r="3" fill="#2563eb"></circle><circle class="dot" cx="115.29812606473595" cy="340" r="3" fill="#2563eb"></circle><circle class="dot" cx="116.52470187393526" cy="340" r="3" fill="#2563eb"></circle><circle class="dot" cx="117.75127768313457" cy="340" r="3" fill="#2563eb"></circle><circle class="dot" cx="118.97785349233389" cy="340" r="3" fill="#2563eb"></circle><circle class="dot" cx="120.20442930153321" cy="340" r="3" fill="#2563eb"></circle><circle class="dot" cx="121.43100511073253" cy="340" r="3" fill="#2563eb"></circle><circle class="dot" cx="122.65758091993185" cy="340" r="3" fill="#2563eb"></circle><circle class="dot" cx="123.88415672913118" cy="340" r="3" fill="#2563eb"></circle><circle class="dot" cx="125.1107325383305" cy="340" r="3" fill="#2563eb"></circle><circle class="dot" cx="126.33730834752981" cy="340" r="3" fill="#2563eb"></circle><circle class="dot" cx="127.56388415672913" cy="340" r="3" fill="#2563eb"></circle><circle class="dot" cx="128.79045996592845" cy="340" r="3" fill="#2563eb"></circle><circle class="dot" cx="130.01703577512777" cy="340" r="3" fill="#2563eb"></circle><circle class="dot" cx="131.24361158432708" cy="340" r="3" fill="#2563eb"></circle><circle class="dot" cx="132.4701873935264" cy="340" r="3" fill="#2563eb"></circle><circle class="dot" cx="133.69676320272572" cy="340" r="3" fill="#2563eb"></circle><circle class="dot" cx="134.92333901192504" cy="340" r="3" fill="#2563eb"></circle><circle class="dot" cx="136.14991482112436" cy="340" r="3" fill="#2563eb"></circle><circle class="dot" cx="137.37649063032367" cy="340" r="3" fill="#2563eb"></circle><circle class="dot" cx="138.60306643952302" cy="340" r="3" fill="#2563eb"></circle><circle class="dot" cx="139.82964224872234" cy="340" r="3" fill="#2563eb"></circle><circle class="dot" cx="141.05621805792165" cy="340" r="3" fill="#2563eb"></circle><circle class="dot" cx="142.28279386712094" cy="340" r="3" fill="#2563eb"></circle><circle class="dot" cx="143.50936967632026" cy="340" r="3" fill="#2563eb"></circle><circle class="dot" cx="144.73594548551958" cy="340" r="3" fill="#2563eb"></circle><circle class="dot" cx="145.9625212947189" cy="340" r="3" fill="#2563eb"></circle><circle class="dot" cx="147.18909710391821" cy="340" r="3" fill="#2563eb"></circle><circle class="dot" cx="148.41567291311753" cy="340" r="3" fill="#2563eb"></circle><circle class="dot" cx="149.64224872231685" cy="340" r="3" fill="#2563eb"></circle><circle class="dot" cx="150.86882453151617" cy="340" r="3" fill="#2563eb"></circle><circle class="dot" cx="152.0954003407155" cy="340" r="3" fill="#2563eb"></circle><circle class="dot" cx="153.32197614991483" cy="340" r="3" fill="#2563eb"></circle><circle class="dot" cx="154.54855195911415" cy="340" r="3" fill="#2563eb"></circle><circle class="dot" cx="155.77512776831347" cy="340" r="3" fill="#2563eb"></circle><circle class="dot" cx="157.00170357751279" cy="340" r="3" fill="#2563eb"></circle><circle class="dot" cx="158.2282793867121" cy="340" r="3" fill="#2563eb"></circle><circle class="dot" cx="159.45485519591142" cy="340" r="3" fill="#2563eb"></circle><circle class="dot" cx="160.68143100511074" cy="340" r="3" fill="#2563eb"></circle><circle class="dot" cx="161.90800681431006" cy="340" r="3" fill="#2563eb"></circle><circle class="dot" cx="163.13458262350937" cy="340" r="3" fill="#2563eb"></circle><circle class="dot" cx="164.3611584327087" cy="340" r="3" fill="#2563eb"></circle><circle class="dot" cx="165.587734241908" cy="340" r="3" fill="#2563eb"></circle><circle class="dot" cx="166.81431005110733" cy="340" r="3" fill="#2563eb"></circle><circle class="dot" cx="168.04088586030664" cy="340" r="3" fill="#2563eb"></circle><circle class="dot" cx="169.26746166950596" cy="340" r="3" fill="#2563eb"></circle><circle class="dot" cx="170.49403747870528" cy="340" r="3" fill="#2563eb"></circle><circle class="dot" cx="171.7206132879046" cy="340" r="3" fill="#2563eb"></circle><circle class="dot" cx="172.94718909710392" cy="340" r="3" fill="#2563eb"></circle><circle class="dot" cx="174.17376490630323" cy="340" r="3" fill="#2563eb"></circle><circle class="dot" cx="175.40034071550255" cy="340" r="3" fill="#2563eb"></circle><circle class="dot" cx="176.62691652470187" cy="340" r="3" fill="#2563eb"></circle><circle class="dot" cx="177.8534923339012" cy="340" r="3" fill="#2563eb"></circle><circle class="dot" cx="179.0800681431005" cy="340" r="3" fill="#2563eb"></circle><circle class="dot" cx="180.30664395229982" cy="340" r="3" fill="#2563eb"></circle><circle class="dot" cx="181.53321976149914" cy="340" r="3" fill="#2563eb"></circle><circle class="dot" cx="182.75979557069846" cy="340" r="3" fill="#2563eb"></circle><circle class="dot" cx="183.98637137989778" cy="340" r="3" fill="#2563eb"></circle><circle class="dot" cx="185.2129471890971" cy="340" r="3" fill="#2563eb"></circle><circle class="dot" cx="186.4395229982964" cy="340" r="3" fill="#2563eb"></circle><circle class="dot" cx="187.66609880749573" cy="340" r="3" fill="#2563eb"></circle><circle class="dot" cx="188.89267461669505" cy="340" r="3" fill="#2563eb"></circle><circle class="dot" cx="190.11925042589436" cy="340" r="3" fill="#2563eb"></circle><circle class="dot" cx="191.34582623509368" cy="340" r="3" fill="#2563eb"></circle><circle class="dot" cx="192.572402044293" cy="340" r="3" fill="#2563eb"></circle><circle class="dot" cx="193.79897785349232" cy="340" r="3" fill="#2563eb"></circle><circle class="dot" cx="195.02555366269164" cy="340" r="3" fill="#2563eb"></circle><circle class="dot" cx="196.25212947189095" cy="340" r="3" fill="#2563eb"></circle><circle class="dot" cx="197.47870528109027" cy="340" r="3" fill="#2563eb"></circle><circle class="dot" cx="198.7052810902896" cy="340" r="3" fill="#2563eb"></circle><circle class="dot" cx="199.93185689948893" cy="340" r="3" fill="#2563eb"></circle><circle class="dot" cx="201.15843270868825" cy="340" r="3" fill="#2563eb"></circle><circle class="dot" cx="202.38500851788757" cy="340" r="3" fill="#2563eb"></circle><circle class="dot" cx="203.6115843270869" cy="340" r="3" fill="#2563eb"></circle><circle class="dot" cx="204.8381601362862" cy="340" r="3" fill="#2563eb"></circle><circle class="dot" cx="206.06473594548552" cy="340" r="3" fill="#2563eb"></circle><circle class="dot" cx="207.29131175468484" cy="340" r="3" fill="#2563eb"></circle><circle class="dot" cx="208.51788756388416" cy="340" r="3" fill="#2563eb"></circle><circle class="dot" cx="209.74446337308348" cy="340" r="3" fill="#2563eb"></circle><circle class="dot" cx="210.9710391822828" cy="340" r="3" fill="#2563eb"></circle><circle class="dot" cx="212.1976149914821" cy="340" r="3" fill="#2563eb"></circle><circle class="dot" cx="213.42419080068143" cy="340" r="3" fill="#2563eb"></circle><circle class="dot" cx="214.65076660988075" cy="340" r="3" fill="#2563eb"></circle><circle class="dot" cx="215.87734241908007" cy="340" r="3" fill="#2563eb"></circle><circle class="dot" cx="217.10391822827938" cy="340" r="3" fill="#2563eb"></circle><circle class="dot" cx="218.33049403747873" cy="340" r="3" fill="#2563eb"></circle><circle class="dot" cx="219.55706984667805" cy="340" r="3" fill="#2563eb"></circle><circle class="dot" cx="220.78364565587736" cy="340" r="3" fill="#2563eb"></circle><circle class="dot" cx="222.01022146507668" cy="340" r="3" fill="#2563eb"></circle><circle class="dot" cx="223.236797274276" cy="340" r="3" fill="#2563eb"></circle><circle class="dot" cx="224.46337308347532" cy="340" r="3" fill="#2563eb"></circle><circle class="dot" cx="225.68994889267464" cy="340" r="3" fill="#2563eb"></circle><circle class="dot" cx="226.91652470187395" cy="340" r="3" fill="#2563eb"></circle><circle class="dot" cx="228.14310051107327" cy="340" r="3" fill="#2563eb"></circle><circle class="dot" cx="229.3696763202726" cy="340" r="3" fill="#2563eb"></circle><circle class="dot" cx="230.5962521294719" cy="340" r="3" fill="#2563eb"></circle><circle class="dot" cx="231.8228279386712" cy="340" r="3" fill="#2563eb"></circle><circle class="dot" cx="233.0494037478705" cy="340" r="3" fill="#2563eb"></circle><circle class="dot" cx="234.27597955706983" cy="340" r="3" fill="#2563eb"></circle><circle class="dot" cx="235.50255536626915" cy="340" r="3" fill="#2563eb"></circle><circle class="dot" cx="236.72913117546847" cy="340" r="3" fill="#2563eb"></circle><circle class="dot" cx="237.95570698466778" cy="340" r="3" fill="#2563eb"></circle><circle class="dot" cx="239.1822827938671" cy="340" r="3" fill="#2563eb"></circle><circle class="dot" cx="240.40885860306642" cy="340" r="3" fill="#2563eb"></circle><circle class="dot" cx="241.63543441226574" cy="340" r="3" fill="#2563eb"></circle><circle class="dot" cx="242.86201022146506" cy="340" r="3" fill="#2563eb"></circle><circle class="dot" cx="244.08858603066437" cy="340" r="3" fill="#2563eb"></circle><circle class="dot" cx="245.3151618398637" cy="340" r="3" fill="#2563eb"></circle><circle class="dot" cx="246.54173764906304" cy="340" r="3" fill="#2563eb"></circle><circle class="dot" cx="247.76831345826236" cy="340" r="3" fill="#2563eb"></circle><circle class="dot" cx="248.99488926746167" cy="340" r="3" fill="#2563eb"></circle><circle class="dot" cx="250.221465076661" cy="340" r="3" fill="#2563eb"></circle><circle class="dot" cx="251.4480408858603" cy="340" r="3" fill="#2563eb"></circle><circle class="dot" cx="252.67461669505963" cy="340" r="3" fill="#2563eb"></circle><circle class="dot" cx="253.90119250425894" cy="340" r="3" fill="#2563eb"></circle><circle class="dot" cx="255.12776831345826" cy="340" r="3" fill="#2563eb"></circle><circle class="dot" cx="256.3543441226576" cy="340" r="3" fill="#2563eb"></circle><circle class="dot" cx="257.5809199318569" cy="340" r="3" fill="#2563eb"></circle><circle class="dot" cx="258.80749574105624" cy="340" r="3" fill="#2563eb"></circle><circle class="dot" cx="260.03407155025553" cy="340" r="3" fill="#2563eb"></circle><circle class="dot" cx="261.2606473594549" cy="340" r="3" fill="#2563eb"></circle><circle class="dot" cx="262.48722316865417" cy="340" r="3" fill="#2563eb"></circle><circle class="dot" cx="263.7137989778535" cy="340" r="3" fill="#2563eb"></circle><circle class="dot" cx="264.9403747870528" cy="340" r="3" fill="#2563eb"></circle><circle class="dot" cx="266.16695059625215" cy="340" r="3" fill="#2563eb"></circle><circle class="dot" cx="267.39352640545144" cy="340" r="3" fill="#2563eb"></circle><circle class="dot" cx="268.6201022146508" cy="340" r="3" fill="#2563eb"></circle><circle class="dot" cx="269.8466780238501" cy="340" r="3" fill="#2563eb"></circle><circle class="dot" cx="271.0732538330494" cy="340" r="3" fill="#2563eb"></circle><circle class="dot" cx="272.2998296422487" cy="340" r="3" fill="#2563eb"></circle><circle class="dot" cx="273.52640545144806" cy="340" r="3" fill="#2563eb"></circle><circle class="dot" cx="274.75298126064735" cy="340" r="3" fill="#2563eb"></circle><circle class="dot" cx="275.9795570698467" cy="340" r="3" fill="#2563eb"></circle><circle class="dot" cx="277.20613287904604" cy="340" r="3" fill="#2563eb"></circle><circle class="dot" cx="278.4327086882453" cy="340" r="3" fill="#2563eb"></circle><circle class="dot" cx="279.6592844974447" cy="340" r="3" fill="#2563eb"></circle><circle class="dot" cx="280.88586030664396" cy="340" r="3" fill="#2563eb"></circle><circle class="dot" cx="282.1124361158433" cy="340" r="3" fill="#2563eb"></circle><circle class="dot" cx="283.33901192504254" cy="340" r="3" fill="#2563eb"></circle><circle class="dot" cx="284.5655877342419" cy="340" r="3" fill="#2563eb"></circle><circle class="dot" cx="285.79216354344123" cy="340" r="3" fill="#2563eb"></circle><circle class="dot" cx="287.0187393526405" cy="340" r="3" fill="#2563eb"></circle><circle class="dot" cx="288.24531516183987" cy="340" r="3" fill="#2563eb"></circle><circle class="dot" cx="289.47189097103916" cy="340" r="3" fill="#2563eb"></circle><circle class="dot" cx="290.6984667802385" cy="340" r="3" fill="#2563eb"></circle><circle class="dot" cx="291.9250425894378" cy="340" r="3" fill="#2563eb"></circle><circle class="dot" cx="293.15161839863714" cy="340" r="3" fill="#2563eb"></circle><circle class="dot" cx="294.37819420783643" cy="340" r="3" fill="#2563eb"></circle><circle class="dot" cx="295.6047700170358" cy="340" r="3" fill="#2563eb"></circle><circle class="dot" cx="296.83134582623507" cy="340" r="3" fill="#2563eb"></circle><circle class="dot" cx="298.0579216354344" cy="340" r="3" fill="#2563eb"></circle><circle class="dot" cx="299.2844974446337" cy="340" r="3" fill="#2563eb"></circle><circle class="dot" cx="300.51107325383305" cy="340" r="3" fill="#2563eb"></circle><circle class="dot" cx="301.73764906303234" cy="340" r="3" fill="#2563eb"></circle><circle class="dot" cx="302.9642248722317" cy="340" r="3" fill="#2563eb"></circle><circle class="dot" cx="304.190800681431" cy="340" r="3" fill="#2563eb"></circle><circle class="dot" cx="305.4173764906303" cy="340" r="3" fill="#2563eb"></circle><circle class="dot" cx="306.64395229982966" cy="340" r="3" fill="#2563eb"></circle><circle class="dot" cx="307.87052810902895" cy="340" r="3" fill="#2563eb"></circle><circle class="dot" cx="309.0971039182283" cy="340" r="3" fill="#2563eb"></circle><circle class="dot" cx="310.3236797274276" cy="340" r="3" fill="#2563eb"></circle><circle class="dot" cx="311.55025553662693" cy="340" r="3" fill="#2563eb"></circle><circle class="dot" cx="312.7768313458262" cy="340" r="3" fill="#2563eb"></circle><circle class="dot" cx="314.00340715502557" cy="340" r="3" fill="#2563eb"></circle><circle class="dot" cx="315.22998296422486" cy="340" r="3" fill="#2563eb"></circle><circle class="dot" cx="316.4565587734242" cy="340" r="3" fill="#2563eb"></circle><circle class="dot" cx="317.6831345826235" cy="340" r="3" fill="#2563eb"></circle><circle class="dot" cx="318.90971039182284" cy="340" r="3" fill="#2563eb"></circle><circle class="dot" cx="320.13628620102213" cy="340" r="3" fill="#2563eb"></circle><circle class="dot" cx="321.3628620102215" cy="340" r="3" fill="#2563eb"></circle><circle class="dot" cx="322.5894378194208" cy="340" r="3" fill="#2563eb"></circle><circle class="dot" cx="323.8160136286201" cy="340" r="3" fill="#2563eb"></circle><circle class="dot" cx="325.04258943781946" cy="340" r="3" fill="#2563eb"></circle><circle class="dot" cx="326.26916524701875" cy="340" r="3" fill="#2563eb"></circle><circle class="dot" cx="327.4957410562181" cy="340" r="3" fill="#2563eb"></circle><circle class="dot" cx="328.7223168654174" cy="340" r="3" fill="#2563eb"></circle><circle class="dot" cx="329.94889267461673" cy="340" r="3" fill="#2563eb"></circle><circle class="dot" cx="331.175468483816" cy="340" r="3" fill="#2563eb"></circle><circle class="dot" cx="332.40204429301536" cy="340" r="3" fill="#2563eb"></circle><circle class="dot" cx="333.62862010221465" cy="340" r="3" fill="#2563eb"></circle><circle class="dot" cx="334.85519591141394" cy="340" r="3" fill="#2563eb"></circle><circle class="dot" cx="336.0817717206133" cy="340" r="3" fill="#2563eb"></circle><circle class="dot" cx="337.3083475298126" cy="340" r="3" fill="#2563eb"></circle><circle class="dot" cx="338.5349233390119" cy="340" r="3" fill="#2563eb"></circle><circle class="dot" cx="339.7614991482112" cy="340" r="3" fill="#2563eb"></circle><circle class="dot" cx="340.98807495741056" cy="340" r="3" fill="#2563eb"></circle><circle class="dot" cx="342.21465076660985" cy="340" r="3" fill="#2563eb"></circle><circle class="dot" cx="343.4412265758092" cy="340" r="3" fill="#2563eb"></circle><circle class="dot" cx="344.6678023850085" cy="340" r="3" fill="#2563eb"></circle><circle class="dot" cx="345.89437819420783" cy="340" r="3" fill="#2563eb"></circle><circle class="dot" cx="347.1209540034071" cy="340" r="3" fill="#2563eb"></circle><circle class="dot" cx="348.34752981260647" cy="340" r="3" fill="#2563eb"></circle><circle class="dot" cx="349.57410562180576" cy="340" r="3" fill="#2563eb"></circle><circle class="dot" cx="350.8006814310051" cy="340" r="3" fill="#2563eb"></circle><circle class="dot" cx="352.02725724020445" cy="340" r="3" fill="#2563eb"></circle><circle class="dot" cx="353.25383304940374" cy="340" r="3" fill="#2563eb"></circle><circle class="dot" cx="354.4804088586031" cy="340" r="3" fill="#2563eb"></circle><circle class="dot" cx="355.7069846678024" cy="340" r="3" fill="#2563eb"></circle><circle class="dot" cx="356.9335604770017" cy="340" r="3" fill="#2563eb"></circle><circle class="dot" cx="358.160136286201" cy="340" r="3" fill="#2563eb"></circle><circle class="dot" cx="359.38671209540036" cy="340" r="3" fill="#2563eb"></circle><circle class="dot" cx="360.61328790459964" cy="340" r="3" fill="#2563eb"></circle><circle class="dot" cx="361.83986371379893" cy="340" r="3" fill="#2563eb"></circle><circle class="dot" cx="363.0664395229983" cy="340" r="3" fill="#2563eb"></circle><circle class="dot" cx="364.29301533219757" cy="340" r="3" fill="#2563eb"></circle><circle class="dot" cx="365.5195911413969" cy="340" r="3" fill="#2563eb"></circle><circle class="dot" cx="366.7461669505962" cy="340" r="3" fill="#2563eb"></circle><circle class="dot" cx="367.97274275979555" cy="340" r="3" fill="#2563eb"></circle><circle class="dot" cx="369.19931856899484" cy="340" r="3" fill="#2563eb"></circle><circle class="dot" cx="370.4258943781942" cy="340" r="3" fill="#2563eb"></circle><circle class="dot" cx="371.6524701873935" cy="340" r="3" fill="#2563eb"></circle><circle class="dot" cx="372.8790459965928" cy="340" r="3" fill="#2563eb"></circle><circle class="dot" cx="374.1056218057921" cy="340" r="3" fill="#2563eb"></circle><circle class="dot" cx="375.33219761499146" cy="340" r="3" fill="#2563eb"></circle><circle class="dot" cx="376.55877342419075" cy="340" r="3" fill="#2563eb"></circle><circle class="dot" cx="377.7853492333901" cy="340" r="3" fill="#2563eb"></circle><circle class="dot" cx="379.01192504258944" cy="340" r="3" fill="#2563eb"></circle><circle class="dot" cx="380.23850085178873" cy="340" r="3" fill="#2563eb"></circle><circle class="dot" cx="381.4650766609881" cy="340" r="3" fill="#2563eb"></circle><circle class="dot" cx="382.69165247018736" cy="340" r="3" fill="#2563eb"></circle><circle class="dot" cx="383.9182282793867" cy="340" r="3" fill="#2563eb"></circle><circle class="dot" cx="385.144804088586" cy="340" r="3" fill="#2563eb"></circle><circle class="dot" cx="386.37137989778535" cy="340" r="3" fill="#2563eb"></circle><circle class="dot" cx="387.59795570698464" cy="340" r="3" fill="#2563eb"></circle><circle class="dot" cx="388.824531516184" cy="340" r="3" fill="#2563eb"></circle><circle class="dot" cx="390.05110732538327" cy="340" r="3" fill="#2563eb"></circle><circle class="dot" cx="391.2776831345826" cy="340" r="3" fill="#2563eb"></circle><circle class="dot" cx="392.5042589437819" cy="340" r="3" fill="#2563eb"></circle><circle class="dot" cx="393.73083475298125" cy="340" r="3" fill="#2563eb"></circle><circle class="dot" cx="394.95741056218054" cy="340" r="3" fill="#2563eb"></circle><circle class="dot" cx="396.1839863713799" cy="340" r="3" fill="#2563eb"></circle><circle class="dot" cx="397.4105621805792" cy="340" r="3" fill="#2563eb"></circle><circle class="dot" cx="398.6371379897785" cy="340" r="3" fill="#2563eb"></circle><circle class="dot" cx="399.86371379897787" cy="340" r="3" fill="#2563eb"></circle><circle class="dot" cx="401.09028960817716" cy="340" r="3" fill="#2563eb"></circle><circle class="dot" cx="402.3168654173765" cy="340" r="3" fill="#2563eb"></circle><circle class="dot" cx="403.5434412265758" cy="340" r="3" fill="#2563eb"></circle><circle class="dot" cx="404.77001703577514" cy="340" r="3" fill="#2563eb"></circle><circle class="dot" cx="405.99659284497443" cy="340" r="3" fill="#2563eb"></circle><circle class="dot" cx="407.2231686541738" cy="340" r="3" fill="#2563eb"></circle><circle class="dot" cx="408.44974446337307" cy="340" r="3" fill="#2563eb"></circle><circle class="dot" cx="409.6763202725724" cy="340" r="3" fill="#2563eb"></circle><circle class="dot" cx="410.9028960817717" cy="340" r="3" fill="#2563eb"></circle><circle class="dot" cx="412.12947189097105" cy="340" r="3" fill="#2563eb"></circle><circle class="dot" cx="413.35604770017034" cy="340" r="3" fill="#2563eb"></circle><circle class="dot" cx="414.5826235093697" cy="0" r="3" fill="#2563eb"></circle><circle class="dot" cx="415.809199318569" cy="0" r="3" fill="#2563eb"></circle><circle class="dot" cx="417.0357751277683" cy="0" r="3" fill="#2563eb"></circle><circle class="dot" cx="418.26235093696766" cy="0" r="3" fill="#2563eb"></circle><circle class="dot" cx="419.48892674616695" cy="0" r="3" fill="#2563eb"></circle><circle class="dot" cx="420.7155025553663" cy="0" r="3" fill="#2563eb"></circle><circle class="dot" cx="421.9420783645656" cy="0" r="3" fill="#2563eb"></circle><circle class="dot" cx="423.16865417376493" cy="0" r="3" fill="#2563eb"></circle><circle class="dot" cx="424.3952299829642" cy="0" r="3" fill="#2563eb"></circle><circle class="dot" cx="425.62180579216357" cy="0" r="3" fill="#2563eb"></circle><circle class="dot" cx="426.84838160136286" cy="0" r="3" fill="#2563eb"></circle><circle class="dot" cx="428.0749574105622" cy="0" r="3" fill="#2563eb"></circle><circle class="dot" cx="429.3015332197615" cy="0" r="3" fill="#2563eb"></circle><circle class="dot" cx="430.52810902896084" cy="0" r="3" fill="#2563eb"></circle><circle class="dot" cx="431.75468483816013" cy="0" r="3" fill="#2563eb"></circle><circle class="dot" cx="432.9812606473595" cy="0" r="3" fill="#2563eb"></circle><circle class="dot" cx="434.20783645655877" cy="0" r="3" fill="#2563eb"></circle><circle class="dot" cx="435.4344122657581" cy="0" r="3" fill="#2563eb"></circle><circle class="dot" cx="436.66098807495746" cy="0" r="3" fill="#2563eb"></circle><circle class="dot" cx="437.88756388415675" cy="0" r="3" fill="#2563eb"></circle><circle class="dot" cx="439.1141396933561" cy="0" r="3" fill="#2563eb"></circle><circle class="dot" cx="440.3407155025554" cy="0" r="3" fill="#2563eb"></circle><circle class="dot" cx="441.56729131175473" cy="0" r="3" fill="#2563eb"></circle><circle class="dot" cx="442.793867120954" cy="0" r="3" fill="#2563eb"></circle><circle class="dot" cx="444.02044293015337" cy="0" r="3" fill="#2563eb"></circle><circle class="dot" cx="445.24701873935265" cy="0" r="3" fill="#2563eb"></circle><circle class="dot" cx="446.473594548552" cy="0" r="3" fill="#2563eb"></circle><circle class="dot" cx="447.7001703577513" cy="0" r="3" fill="#2563eb"></circle><circle class="dot" cx="448.92674616695064" cy="0" r="3" fill="#2563eb"></circle><circle class="dot" cx="450.1533219761499" cy="0" r="3" fill="#2563eb"></circle><circle class="dot" cx="451.37989778534927" cy="0" r="3" fill="#2563eb"></circle><circle class="dot" cx="452.60647359454856" cy="0" r="3" fill="#2563eb"></circle><circle class="dot" cx="453.8330494037479" cy="0" r="3" fill="#2563eb"></circle><circle class="dot" cx="455.0596252129472" cy="0" r="3" fill="#2563eb"></circle><circle class="dot" cx="456.28620102214654" cy="0" r="3" fill="#2563eb"></circle><circle class="dot" cx="457.5127768313459" cy="0" r="3" fill="#2563eb"></circle><circle class="dot" cx="458.7393526405452" cy="0" r="3" fill="#2563eb"></circle><circle class="dot" cx="459.9659284497445" cy="0" r="3" fill="#2563eb"></circle><circle class="dot" cx="461.1925042589438" cy="0" r="3" fill="#2563eb"></circle><circle class="dot" cx="462.41908006814316" cy="0" r="3" fill="#2563eb"></circle><circle class="dot" cx="463.6456558773424" cy="0" r="3" fill="#2563eb"></circle><circle class="dot" cx="464.8722316865417" cy="0" r="3" fill="#2563eb"></circle><circle class="dot" cx="466.098807495741" cy="0" r="3" fill="#2563eb"></circle><circle class="dot" cx="467.3253833049403" cy="0" r="3" fill="#2563eb"></circle><circle class="dot" cx="468.55195911413966" cy="0" r="3" fill="#2563eb"></circle><circle class="dot" cx="469.77853492333895" cy="0" r="3" fill="#2563eb"></circle><circle class="dot" cx="471.0051107325383" cy="0" r="3" fill="#2563eb"></circle><circle class="dot" cx="472.23168654173764" cy="0" r="3" fill="#2563eb"></circle><circle class="dot" cx="473.45826235093693" cy="0" r="3" fill="#2563eb"></circle><circle class="dot" cx="474.6848381601363" cy="0" r="3" fill="#2563eb"></circle><circle class="dot" cx="475.91141396933557" cy="0" r="3" fill="#2563eb"></circle><circle class="dot" cx="477.1379897785349" cy="0" r="3" fill="#2563eb"></circle><circle class="dot" cx="478.3645655877342" cy="0" r="3" fill="#2563eb"></circle><circle class="dot" cx="479.59114139693355" cy="0" r="3" fill="#2563eb"></circle><circle class="dot" cx="480.81771720613284" cy="0" r="3" fill="#2563eb"></circle><circle class="dot" cx="482.0442930153322" cy="0" r="3" fill="#2563eb"></circle><circle class="dot" cx="483.2708688245315" cy="0" r="3" fill="#2563eb"></circle><circle class="dot" cx="484.4974446337308" cy="0" r="3" fill="#2563eb"></circle><circle class="dot" cx="485.7240204429301" cy="0" r="3" fill="#2563eb"></circle><circle class="dot" cx="486.95059625212946" cy="0" r="3" fill="#2563eb"></circle><circle class="dot" cx="488.17717206132875" cy="0" r="3" fill="#2563eb"></circle><circle class="dot" cx="489.4037478705281" cy="0" r="3" fill="#2563eb"></circle><circle class="dot" cx="490.6303236797274" cy="0" r="3" fill="#2563eb"></circle><circle class="dot" cx="491.85689948892673" cy="0" r="3" fill="#2563eb"></circle><circle class="dot" cx="493.0834752981261" cy="0" r="3" fill="#2563eb"></circle><circle class="dot" cx="494.31005110732536" cy="0" r="3" fill="#2563eb"></circle><circle class="dot" cx="495.5366269165247" cy="0" r="3" fill="#2563eb"></circle><circle class="dot" cx="496.763202725724" cy="0" r="3" fill="#2563eb"></circle><circle class="dot" cx="497.98977853492335" cy="0" r="3" fill="#2563eb"></circle><circle class="dot" cx="499.21635434412264" cy="0" r="3" fill="#2563eb"></circle><circle class="dot" cx="500.442930153322" cy="0" r="3" fill="#2563eb"></circle><circle class="dot" cx="501.66950596252127" cy="0" r="3" fill="#2563eb"></circle><circle class="dot" cx="502.8960817717206" cy="0" r="3" fill="#2563eb"></circle><circle class="dot" cx="504.1226575809199" cy="0" r="3" fill="#2563eb"></circle><circle class="dot" cx="505.34923339011925" cy="0" r="3" fill="#2563eb"></circle><circle class="dot" cx="506.57580919931854" cy="0" r="3" fill="#2563eb"></circle><circle class="dot" cx="507.8023850085179" cy="0" r="3" fill="#2563eb"></circle><circle class="dot" cx="509.0289608177172" cy="0" r="3" fill="#2563eb"></circle><circle class="dot" cx="510.2555366269165" cy="0" r="3" fill="#2563eb"></circle><circle class="dot" cx="511.4821124361158" cy="0" r="3" fill="#2563eb"></circle><circle class="dot" cx="512.7086882453152" cy="0" r="3" fill="#2563eb"></circle><circle class="dot" cx="513.9352640545145" cy="0" r="3" fill="#2563eb"></circle><circle class="dot" cx="515.1618398637138" cy="0" r="3" fill="#2563eb"></circle><circle class="dot" cx="516.3884156729131" cy="0" r="3" fill="#2563eb"></circle><circle class="dot" cx="517.6149914821125" cy="0" r="3" fill="#2563eb"></circle><circle class="dot" cx="518.8415672913118" cy="0" r="3" fill="#2563eb"></circle><circle class="dot" cx="520.0681431005111" cy="0" r="3" fill="#2563eb"></circle><circle class="dot" cx="521.2947189097104" cy="0" r="3" fill="#2563eb"></circle><circle class="dot" cx="522.5212947189098" cy="0" r="3" fill="#2563eb"></circle><circle class="dot" cx="523.747870528109" cy="0" r="3" fill="#2563eb"></circle><circle class="dot" cx="524.9744463373083" cy="0" r="3" fill="#2563eb"></circle><circle class="dot" cx="526.2010221465076" cy="0" r="3" fill="#2563eb"></circle><circle class="dot" cx="527.427597955707" cy="0" r="3" fill="#2563eb"></circle><circle class="dot" cx="528.6541737649063" cy="0" r="3" fill="#2563eb"></circle><circle class="dot" cx="529.8807495741056" cy="0" r="3" fill="#2563eb"></circle><circle class="dot" cx="531.1073253833049" cy="0" r="3" fill="#2563eb"></circle><circle class="dot" cx="532.3339011925043" cy="0" r="3" fill="#2563eb"></circle><circle class="dot" cx="533.5604770017036" cy="0" r="3" fill="#2563eb"></circle><circle class="dot" cx="534.7870528109029" cy="0" r="3" fill="#2563eb"></circle><circle class="dot" cx="536.0136286201023" cy="0" r="3" fill="#2563eb"></circle><circle class="dot" cx="537.2402044293016" cy="0" r="3" fill="#2563eb"></circle><circle class="dot" cx="538.4667802385009" cy="0" r="3" fill="#2563eb"></circle><circle class="dot" cx="539.6933560477001" cy="0" r="3" fill="#2563eb"></circle><circle class="dot" cx="540.9199318568996" cy="0" r="3" fill="#2563eb"></circle><circle class="dot" cx="542.1465076660988" cy="0" r="3" fill="#2563eb"></circle><circle class="dot" cx="543.3730834752981" cy="0" r="3" fill="#2563eb"></circle><circle class="dot" cx="544.5996592844974" cy="0" r="3" fill="#2563eb"></circle><circle class="dot" cx="545.8262350936968" cy="0" r="3" fill="#2563eb"></circle><circle class="dot" cx="547.0528109028961" cy="0" r="3" fill="#2563eb"></circle><circle class="dot" cx="548.2793867120954" cy="0" r="3" fill="#2563eb"></circle><circle class="dot" cx="549.5059625212947" cy="0" r="3" fill="#2563eb"></circle><circle class="dot" cx="550.7325383304941" cy="0" r="3" fill="#2563eb"></circle><circle class="dot" cx="551.9591141396934" cy="0" r="3" fill="#2563eb"></circle><circle class="dot" cx="553.1856899488927" cy="0" r="3" fill="#2563eb"></circle><circle class="dot" cx="554.4122657580921" cy="0" r="3" fill="#2563eb"></circle><circle class="dot" cx="555.6388415672914" cy="0" r="3" fill="#2563eb"></circle><circle class="dot" cx="556.8654173764907" cy="0" r="3" fill="#2563eb"></circle><circle class="dot" cx="558.09199318569" cy="0" r="3" fill="#2563eb"></circle><circle class="dot" cx="559.3185689948893" cy="0" r="3" fill="#2563eb"></circle><circle class="dot" cx="560.5451448040886" cy="0" r="3" fill="#2563eb"></circle><circle class="dot" cx="561.7717206132879" cy="0" r="3" fill="#2563eb"></circle><circle class="dot" cx="562.9982964224872" cy="0" r="3" fill="#2563eb"></circle><circle class="dot" cx="564.2248722316866" cy="0" r="3" fill="#2563eb"></circle><circle class="dot" cx="565.4514480408859" cy="0" r="3" fill="#2563eb"></circle><circle class="dot" cx="566.6780238500851" cy="0" r="3" fill="#2563eb"></circle><circle class="dot" cx="567.9045996592845" cy="0" r="3" fill="#2563eb"></circle><circle class="dot" cx="569.1311754684838" cy="0" r="3" fill="#2563eb"></circle><circle class="dot" cx="570.3577512776831" cy="0" r="3" fill="#2563eb"></circle><circle class="dot" cx="571.5843270868825" cy="0" r="3" fill="#2563eb"></circle><circle class="dot" cx="572.8109028960818" cy="0" r="3" fill="#2563eb"></circle><circle class="dot" cx="574.037478705281" cy="0" r="3" fill="#2563eb"></circle><circle class="dot" cx="575.2640545144803" cy="0" r="3" fill="#2563eb"></circle><circle class="dot" cx="576.4906303236797" cy="0" r="3" fill="#2563eb"></circle><circle class="dot" cx="577.717206132879" cy="0" r="3" fill="#2563eb"></circle><circle class="dot" cx="578.9437819420783" cy="0" r="3" fill="#2563eb"></circle><circle class="dot" cx="580.1703577512776" cy="0" r="3" fill="#2563eb"></circle><circle class="dot" cx="581.396933560477" cy="0" r="3" fill="#2563eb"></circle><circle class="dot" cx="582.6235093696763" cy="0" r="3" fill="#2563eb"></circle><circle class="dot" cx="583.8500851788756" cy="0" r="3" fill="#2563eb"></circle><circle class="dot" cx="585.0766609880749" cy="0" r="3" fill="#2563eb"></circle><circle class="dot" cx="586.3032367972743" cy="0" r="3" fill="#2563eb"></circle><circle class="dot" cx="587.5298126064736" cy="0" r="3" fill="#2563eb"></circle><circle class="dot" cx="588.7563884156729" cy="0" r="3" fill="#2563eb"></circle><circle class="dot" cx="589.9829642248723" cy="0" r="3" fill="#2563eb"></circle><circle class="dot" cx="591.2095400340716" cy="0" r="3" fill="#2563eb"></circle><circle class="dot" cx="592.4361158432708" cy="0" r="3" fill="#2563eb"></circle><circle class="dot" cx="593.6626916524701" cy="0" r="3" fill="#2563eb"></circle><circle class="dot" cx="594.8892674616695" cy="0" r="3" fill="#2563eb"></circle><circle class="dot" cx="596.1158432708688" cy="0" r="3" fill="#2563eb"></circle><circle class="dot" cx="597.3424190800681" cy="0" r="3" fill="#2563eb"></circle><circle class="dot" cx="598.5689948892674" cy="0" r="3" fill="#2563eb"></circle><circle class="dot" cx="599.7955706984668" cy="0" r="3" fill="#2563eb"></circle><circle class="dot" cx="601.0221465076661" cy="0" r="3" fill="#2563eb"></circle><circle class="dot" cx="602.2487223168654" cy="0" r="3" fill="#2563eb"></circle><circle class="dot" cx="603.4752981260647" cy="0" r="3" fill="#2563eb"></circle><circle class="dot" cx="604.7018739352641" cy="0" r="3" fill="#2563eb"></circle><circle class="dot" cx="605.9284497444634" cy="0" r="3" fill="#2563eb"></circle><circle class="dot" cx="607.1550255536627" cy="0" r="3" fill="#2563eb"></circle><circle class="dot" cx="608.381601362862" cy="0" r="3" fill="#2563eb"></circle><circle class="dot" cx="609.6081771720613" cy="0" r="3" fill="#2563eb"></circle><circle class="dot" cx="610.8347529812606" cy="0" r="3" fill="#2563eb"></circle><circle class="dot" cx="612.0613287904599" cy="0" r="3" fill="#2563eb"></circle><circle class="dot" cx="613.2879045996593" cy="0" r="3" fill="#2563eb"></circle><circle class="dot" cx="614.5144804088586" cy="0" r="3" fill="#2563eb"></circle><circle class="dot" cx="615.7410562180579" cy="0" r="3" fill="#2563eb"></circle><circle class="dot" cx="616.9676320272572" cy="0" r="3" fill="#2563eb"></circle><circle class="dot" cx="618.1942078364566" cy="0" r="3" fill="#2563eb"></circle><circle class="dot" cx="619.4207836456559" cy="0" r="3" fill="#2563eb"></circle><circle class="dot" cx="620.6473594548552" cy="0" r="3" fill="#2563eb"></circle><circle class="dot" cx="621.8739352640545" cy="0" r="3" fill="#2563eb"></circle><circle class="dot" cx="623.1005110732539" cy="0" r="3" fill="#2563eb"></circle><circle class="dot" cx="624.3270868824532" cy="0" r="3" fill="#2563eb"></circle><circle class="dot" cx="625.5536626916524" cy="0" r="3" fill="#2563eb"></circle><circle class="dot" cx="626.7802385008519" cy="0" r="3" fill="#2563eb"></circle><circle class="dot" cx="628.0068143100511" cy="0" r="3" fill="#2563eb"></circle><circle class="dot" cx="629.2333901192504" cy="0" r="3" fill="#2563eb"></circle><circle class="dot" cx="630.4599659284497" cy="0" r="3" fill="#2563eb"></circle><circle class="dot" cx="631.6865417376491" cy="0" r="3" fill="#2563eb"></circle><circle class="dot" cx="632.9131175468484" cy="0" r="3" fill="#2563eb"></circle><circle class="dot" cx="634.1396933560477" cy="0" r="3" fill="#2563eb"></circle><circle class="dot" cx="635.366269165247" cy="0" r="3" fill="#2563eb"></circle><circle class="dot" cx="636.5928449744464" cy="0" r="3" fill="#2563eb"></circle><circle class="dot" cx="637.8194207836457" cy="0" r="3" fill="#2563eb"></circle><circle class="dot" cx="639.045996592845" cy="0" r="3" fill="#2563eb"></circle><circle class="dot" cx="640.2725724020443" cy="0" r="3" fill="#2563eb"></circle><circle class="dot" cx="641.4991482112437" cy="0" r="3" fill="#2563eb"></circle><circle class="dot" cx="642.725724020443" cy="0" r="3" fill="#2563eb"></circle><circle class="dot" cx="643.9522998296422" cy="0" r="3" fill="#2563eb"></circle><circle class="dot" cx="645.1788756388416" cy="0" r="3" fill="#2563eb"></circle><circle class="dot" cx="646.4054514480409" cy="0" r="3" fill="#2563eb"></circle><circle class="dot" cx="647.6320272572402" cy="0" r="3" fill="#2563eb"></circle><circle class="dot" cx="648.8586030664395" cy="0" r="3" fill="#2563eb"></circle><circle class="dot" cx="650.0851788756389" cy="0" r="3" fill="#2563eb"></circle><circle class="dot" cx="651.3117546848382" cy="0" r="3" fill="#2563eb"></circle><circle class="dot" cx="652.5383304940375" cy="0" r="3" fill="#2563eb"></circle><circle class="dot" cx="653.7649063032368" cy="0" r="3" fill="#2563eb"></circle><circle class="dot" cx="654.9914821124362" cy="0" r="3" fill="#2563eb"></circle><circle class="dot" cx="656.2180579216355" cy="0" r="3" fill="#2563eb"></circle><circle class="dot" cx="657.4446337308348" cy="0" r="3" fill="#2563eb"></circle><circle class="dot" cx="658.671209540034" cy="0" r="3" fill="#2563eb"></circle><circle class="dot" cx="659.8977853492335" cy="0" r="3" fill="#2563eb"></circle><circle class="dot" cx="661.1243611584327" cy="0" r="3" fill="#2563eb"></circle><circle class="dot" cx="662.350936967632" cy="0" r="3" fill="#2563eb"></circle><circle class="dot" cx="663.5775127768313" cy="0" r="3" fill="#2563eb"></circle><circle class="dot" cx="664.8040885860307" cy="0" r="3" fill="#2563eb"></circle><circle class="dot" cx="666.03066439523" cy="0" r="3" fill="#2563eb"></circle><circle class="dot" cx="667.2572402044293" cy="0" r="3" fill="#2563eb"></circle><circle class="dot" cx="668.4838160136287" cy="0" r="3" fill="#2563eb"></circle><circle class="dot" cx="669.7103918228279" cy="0" r="3" fill="#2563eb"></circle><circle class="dot" cx="670.9369676320272" cy="0" r="3" fill="#2563eb"></circle><circle class="dot" cx="672.1635434412266" cy="0" r="3" fill="#2563eb"></circle><circle class="dot" cx="673.3901192504259" cy="0" r="3" fill="#2563eb"></circle><circle class="dot" cx="674.6166950596252" cy="0" r="3" fill="#2563eb"></circle><circle class="dot" cx="675.8432708688244" cy="0" r="3" fill="#2563eb"></circle><circle class="dot" cx="677.0698466780239" cy="0" r="3" fill="#2563eb"></circle><circle class="dot" cx="678.2964224872231" cy="0" r="3" fill="#2563eb"></circle><circle class="dot" cx="679.5229982964224" cy="0" r="3" fill="#2563eb"></circle><circle class="dot" cx="680.7495741056218" cy="0" r="3" fill="#2563eb"></circle><circle class="dot" cx="681.9761499148211" cy="0" r="3" fill="#2563eb"></circle><circle class="dot" cx="683.2027257240204" cy="0" r="3" fill="#2563eb"></circle><circle class="dot" cx="684.4293015332197" cy="0" r="3" fill="#2563eb"></circle><circle class="dot" cx="685.6558773424191" cy="0" r="3" fill="#2563eb"></circle><circle class="dot" cx="686.8824531516184" cy="0" r="3" fill="#2563eb"></circle><circle class="dot" cx="688.1090289608177" cy="0" r="3" fill="#2563eb"></circle><circle class="dot" cx="689.335604770017" cy="0" r="3" fill="#2563eb"></circle><circle class="dot" cx="690.5621805792164" cy="0" r="3" fill="#2563eb"></circle><circle class="dot" cx="691.7887563884157" cy="0" r="3" fill="#2563eb"></circle><circle class="dot" cx="693.015332197615" cy="0" r="3" fill="#2563eb"></circle><circle class="dot" cx="694.2419080068142" cy="0" r="3" fill="#2563eb"></circle><circle class="dot" cx="695.4684838160136" cy="0" r="3" fill="#2563eb"></circle><circle class="dot" cx="696.6950596252129" cy="0" r="3" fill="#2563eb"></circle><circle class="dot" cx="697.9216354344122" cy="0" r="3" fill="#2563eb"></circle><circle class="dot" cx="699.1482112436115" cy="0" r="3" fill="#2563eb"></circle><circle class="dot" cx="700.3747870528109" cy="0" r="3" fill="#2563eb"></circle><circle class="dot" cx="701.6013628620102" cy="0" r="3" fill="#2563eb"></circle><circle class="dot" cx="702.8279386712095" cy="0" r="3" fill="#2563eb"></circle><circle class="dot" cx="704.0545144804089" cy="0" r="3" fill="#2563eb"></circle><circle class="dot" cx="705.2810902896082" cy="0" r="3" fill="#2563eb"></circle><circle class="dot" cx="706.5076660988075" cy="0" r="3" fill="#2563eb"></circle><circle class="dot" cx="707.7342419080068" cy="0" r="3" fill="#2563eb"></circle><circle class="dot" cx="708.9608177172062" cy="0" r="3" fill="#2563eb"></circle><circle class="dot" cx="710.1873935264055" cy="0" r="3" fill="#2563eb"></circle><circle class="dot" cx="711.4139693356047" cy="0" r="3" fill="#2563eb"></circle><circle class="dot" cx="712.640545144804" cy="0" r="3" fill="#2563eb"></circle><circle class="dot" cx="713.8671209540034" cy="0" r="3" fill="#2563eb"></circle><circle class="dot" cx="715.0936967632027" cy="0" r="3" fill="#2563eb"></circle><circle class="dot" cx="716.320272572402" cy="0" r="3" fill="#2563eb"></circle><circle class="dot" cx="717.5468483816013" cy="0" r="3" fill="#2563eb"></circle><circle class="dot" cx="718.7734241908007" cy="0" r="3" fill="#2563eb"></circle><circle class="dot" cx="720" cy="0" r="3" fill="#2563eb"></circle><g class="grid" transform="translate(0,340)" fill="none" font-size="10" font-family="sans-serif" text-anchor="middle" style="stroke-dasharray: 3,3; opacity: 0.3;"><path class="domain" stroke="currentColor" d="M0.5,-340V0.5H720.5V-340"></path><g class="tick" opacity="1" transform="translate(0.5,0)"><line stroke="currentColor" y2="-340"></line><text fill="currentColor" y="3" dy="0.71em"></text></g><g class="tick" opacity="1" transform="translate(29.937819420783644,0)"><line stroke="currentColor" y2="-340"></line><text fill="currentColor" y="3" dy="0.71em"></text></g><g class="tick" opacity="1" transform="translate(59.37563884156729,0)"><line stroke="currentColor" y2="-340"></line><text fill="currentColor" y="3" dy="0.71em"></text></g><g class="tick" opacity="1" transform="translate(88.81345826235093,0)"><line stroke="currentColor" y2="-340"></line><text fill="currentColor" y="3" dy="0.71em"></text></g><g class="tick" opacity="1" transform="translate(118.25127768313457,0)"><line stroke="currentColor" y2="-340"></line><text fill="currentColor" y="3" dy="0.71em"></text></g><g class="tick" opacity="1" transform="translate(147.68909710391821,0)"><line stroke="currentColor" y2="-340"></line><text fill="currentColor" y="3" dy="0.71em"></text></g><g class="tick" opacity="1" transform="translate(177.12691652470187,0)"><line stroke="currentColor" y2="-340"></line><text fill="currentColor" y="3" dy="0.71em"></text></g><g class="tick" opacity="1" transform="translate(206.56473594548552,0)"><line stroke="currentColor" y2="-340"></line><text fill="currentColor" y="3" dy="0.71em"></text></g><g class="tick" opacity="1" transform="translate(236.00255536626915,0)"><line stroke="currentColor" y2="-340"></line><text fill="currentColor" y="3" dy="0.71em"></text></g><g class="tick" opacity="1" transform="translate(265.4403747870528,0)"><line stroke="currentColor" y2="-340"></line><text fill="currentColor" y="3" dy="0.71em"></text></g><g class="tick" opacity="1" transform="translate(294.87819420783643,0)"><line stroke="currentColor" y2="-340"></line><text fill="currentColor" y="3" dy="0.71em"></text></g><g class="tick" opacity="1" transform="translate(324.3160136286201,0)"><line stroke="currentColor" y2="-340"></line><text fill="currentColor" y="3" dy="0.71em"></text></g><g class="tick" opacity="1" transform="translate(353.75383304940374,0)"><line stroke="currentColor" y2="-340"></line><text fill="currentColor" y="3" dy="0.71em"></text></g><g class="tick" opacity="1" transform="translate(383.19165247018736,0)"><line stroke="currentColor" y2="-340"></line><text fill="currentColor" y="3" dy="0.71em"></text></g><g class="tick" opacity="1" transform="translate(412.62947189097105,0)"><line stroke="currentColor" y2="-340"></line><text fill="currentColor" y="3" dy="0.71em"></text></g><g class="tick" opacity="1" transform="translate(442.06729131175473,0)"><line stroke="currentColor" y2="-340"></line><text fill="currentColor" y="3" dy="0.71em"></text></g><g class="tick" opacity="1" transform="translate(471.5051107325383,0)"><line stroke="currentColor" y2="-340"></line><text fill="currentColor" y="3" dy="0.71em"></text></g><g class="tick" opacity="1" transform="translate(500.942930153322,0)"><line stroke="currentColor" y2="-340"></line><text fill="currentColor" y="3" dy="0.71em"></text></g><g class="tick" opacity="1" transform="translate(530.3807495741056,0)"><line stroke="currentColor" y2="-340"></line><text fill="currentColor" y="3" dy="0.71em"></text></g><g class="tick" opacity="1" transform="translate(559.8185689948893,0)"><line stroke="currentColor" y2="-340"></line><text fill="currentColor" y="3" dy="0.71em"></text></g><g class="tick" opacity="1" transform="translate(589.2563884156729,0)"><line stroke="currentColor" y2="-340"></line><text fill="currentColor" y="3" dy="0.71em"></text></g><g class="tick" opacity="1" transform="translate(618.6942078364566,0)"><line stroke="currentColor" y2="-340"></line><text fill="currentColor" y="3" dy="0.71em"></text></g><g class="tick" opacity="1" transform="translate(648.1320272572402,0)"><line stroke="currentColor" y2="-340"></line><text fill="currentColor" y="3" dy="0.71em"></text></g><g class="tick" opacity="1" transform="translate(677.5698466780239,0)"><line stroke="currentColor" y2="-340"></line><text fill="currentColor" y="3" dy="0.71em"></text></g><g class="tick" opacity="1" transform="translate(707.0076660988075,0)"><line stroke="currentColor" y2="-340"></line><text fill="currentColor" y="3" dy="0.71em"></text></g></g><g class="grid" fill="none" font-size="10" font-family="sans-serif" text-anchor="end" style="stroke-dasharray: 3,3; opacity: 0.3;"><path class="domain" stroke="currentColor" d="M720,340.5H0.5V0.5H720"></path><g class="tick" opacity="1" transform="translate(0,340.5)"><line stroke="currentColor" x2="720"></line><text fill="currentColor" x="-3" dy="0.32em"></text></g><g class="tick" opacity="1" transform="translate(0,312.16666666666663)"><line stroke="currentColor" x2="720"></line><text fill="currentColor" x="-3" dy="0.32em"></text></g><g class="tick" opacity="1" transform="translate(0,283.83333333333326)"><line stroke="currentColor" x2="720"></line><text fill="currentColor" x="-3" dy="0.32em"></text></g><g class="tick" opacity="1" transform="translate(0,255.49999999999991)"><line stroke="currentColor" x2="720"></line><text fill="currentColor" x="-3" dy="0.32em"></text></g><g class="tick" opacity="1" transform="translate(0,227.16666666666654)"><line stroke="currentColor" x2="720"></line><text fill="currentColor" x="-3" dy="0.32em"></text></g><g class="tick" opacity="1" transform="translate(0,198.83333333333314)"><line stroke="currentColor" x2="720"></line><text fill="currentColor" x="-3" dy="0.32em"></text></g><g class="tick" opacity="1" transform="translate(0,170.4999999999998)"><line stroke="currentColor" x2="720"></line><text fill="currentColor" x="-3" dy="0.32em"></text></g><g class="tick" opacity="1" transform="translate(0,142.16666666666686)"><line stroke="currentColor" x2="720"></line><text fill="currentColor" x="-3" dy="0.32em"></text></g><g class="tick" opacity="1" transform="translate(0,113.83333333333346)"><line stroke="currentColor" x2="720"></line><text fill="currentColor" x="-3" dy="0.32em"></text></g><g class="tick" opacity="1" transform="translate(0,85.50000000000011)"><line stroke="currentColor" x2="720"></line><text fill="currentColor" x="-3" dy="0.32em"></text></g><g class="tick" opacity="1" transform="translate(0,57.16666666666673)"><line stroke="currentColor" x2="720"></line><text fill="currentColor" x="-3" dy="0.32em"></text></g><g class="tick" opacity="1" transform="translate(0,28.833333333333385)"><line stroke="currentColor" x2="720"></line><text fill="currentColor" x="-3" dy="0.32em"></text></g><g class="tick" opacity="1" transform="translate(0,0.5)"><line stroke="currentColor" x2="720"></line><text fill="currentColor" x="-3" dy="0.32em"></text></g></g></g><text x="400" y="10" text-anchor="middle" style="font-size: 16px; font-weight: bold; fill: #333;">OKX USDT Lending Rate - Current Month</text></svg>