<svg width="800" height="400" xmlns="http://www.w3.org/2000/svg"><g transform="translate(50,20)"><g transform="translate(0,340)" fill="none" font-size="10" font-family="sans-serif" text-anchor="middle"><path class="domain" stroke="currentColor" d="M0.5,6V0.5H720.5V6"></path><g class="tick" opacity="1" transform="translate(0.5,0)"><line stroke="currentColor" y2="6"></line><text fill="currentColor" y="9" dy=".15em" style="text-anchor: end;" dx="-.8em" transform="rotate(-45)">04/01</text></g><g class="tick" opacity="1" transform="translate(41.447867298578196,0)"><line stroke="currentColor" y2="6"></line><text fill="currentColor" y="9" dy=".15em" style="text-anchor: end;" dx="-.8em" transform="rotate(-45)">04/02</text></g><g class="tick" opacity="1" transform="translate(82.39573459715639,0)"><line stroke="currentColor" y2="6"></line><text fill="currentColor" y="9" dy=".15em" style="text-anchor: end;" dx="-.8em" transform="rotate(-45)">04/03</text></g><g class="tick" opacity="1" transform="translate(123.34360189573461,0)"><line stroke="currentColor" y2="6"></line><text fill="currentColor" y="9" dy=".15em" style="text-anchor: end;" dx="-.8em" transform="rotate(-45)">04/04</text></g><g class="tick" opacity="1" transform="translate(164.29146919431278,0)"><line stroke="currentColor" y2="6"></line><text fill="currentColor" y="9" dy=".15em" style="text-anchor: end;" dx="-.8em" transform="rotate(-45)">04/05</text></g><g class="tick" opacity="1" transform="translate(205.239336492891,0)"><line stroke="currentColor" y2="6"></line><text fill="currentColor" y="9" dy=".15em" style="text-anchor: end;" dx="-.8em" transform="rotate(-45)">04/06</text></g><g class="tick" opacity="1" transform="translate(246.18720379146922,0)"><line stroke="currentColor" y2="6"></line><text fill="currentColor" y="9" dy=".15em" style="text-anchor: end;" dx="-.8em" transform="rotate(-45)">04/07</text></g><g class="tick" opacity="1" transform="translate(287.1350710900474,0)"><line stroke="currentColor" y2="6"></line><text fill="currentColor" y="9" dy=".15em" style="text-anchor: end;" dx="-.8em" transform="rotate(-45)">04/08</text></g><g class="tick" opacity="1" transform="translate(328.08293838862556,0)"><line stroke="currentColor" y2="6"></line><text fill="currentColor" y="9" dy=".15em" style="text-anchor: end;" dx="-.8em" transform="rotate(-45)">04/09</text></g><g class="tick" opacity="1" transform="translate(369.0308056872038,0)"><line stroke="currentColor" y2="6"></line><text fill="currentColor" y="9" dy=".15em" style="text-anchor: end;" dx="-.8em" transform="rotate(-45)">04/10</text></g><g class="tick" opacity="1" transform="translate(409.978672985782,0)"><line stroke="currentColor" y2="6"></line><text fill="currentColor" y="9" dy=".15em" style="text-anchor: end;" dx="-.8em" transform="rotate(-45)">04/11</text></g><g class="tick" opacity="1" transform="translate(450.9265402843602,0)"><line stroke="currentColor" y2="6"></line><text fill="currentColor" y="9" dy=".15em" style="text-anchor: end;" dx="-.8em" transform="rotate(-45)">04/12</text></g><g class="tick" opacity="1" transform="translate(491.87440758293843,0)"><line stroke="currentColor" y2="6"></line><text fill="currentColor" y="9" dy=".15em" style="text-anchor: end;" dx="-.8em" transform="rotate(-45)">04/13</text></g><g class="tick" opacity="1" transform="translate(532.8222748815166,0)"><line stroke="currentColor" y2="6"></line><text fill="currentColor" y="9" dy=".15em" style="text-anchor: end;" dx="-.8em" transform="rotate(-45)">04/14</text></g><g class="tick" opacity="1" transform="translate(573.7701421800948,0)"><line stroke="currentColor" y2="6"></line><text fill="currentColor" y="9" dy=".15em" style="text-anchor: end;" dx="-.8em" transform="rotate(-45)">04/15</text></g><g class="tick" opacity="1" transform="translate(614.718009478673,0)"><line stroke="currentColor" y2="6"></line><text fill="currentColor" y="9" dy=".15em" style="text-anchor: end;" dx="-.8em" transform="rotate(-45)">04/16</text></g><g class="tick" opacity="1" transform="translate(655.6658767772511,0)"><line stroke="currentColor" y2="6"></line><text fill="currentColor" y="9" dy=".15em" style="text-anchor: end;" dx="-.8em" transform="rotate(-45)">04/17</text></g><g class="tick" opacity="1" transform="translate(696.6137440758293,0)"><line stroke="currentColor" y2="6"></line><text fill="currentColor" y="9" dy=".15em" style="text-anchor: end;" dx="-.8em" transform="rotate(-45)">04/18</text></g></g><g fill="none" font-size="10" font-family="sans-serif" text-anchor="end"><path class="domain" stroke="currentColor" d="M-6,340.5H0.5V0.5H-6"></path><g class="tick" opacity="1" transform="translate(0,170.5)"><line stroke="currentColor" x2="-6"></line><text fill="currentColor" x="-9" dy="0.32em">2.50%</text></g></g><text transform="rotate(-90)" y="-50" x="-170" dy="1em" style="text-anchor: middle; font-size: 12px; fill: #666;">Pre Rate (%)</text><text transform="translate(360, 380)" style="text-anchor: middle; font-size: 12px; fill: #666;">Time (UTC)</text><path fill="none" stroke="#2563eb" stroke-width="2" d="M0,170C0.569,170,1.137,170,1.706,170C2.275,170,2.844,170,3.412,170C3.981,170,4.55,170,5.118,170C5.687,170,6.256,170,6.825,170C7.393,170,7.962,170,8.531,170C9.1,170,9.668,170,10.237,170C10.806,170,11.374,170,11.943,170C12.512,170,13.081,170,13.649,170C14.218,170,14.787,170,15.355,170C15.924,170,16.493,170,17.062,170C17.63,170,18.199,170,18.768,170C19.336,170,19.905,170,20.474,170C21.043,170,21.611,170,22.18,170C22.749,170,23.318,170,23.886,170C24.455,170,25.024,170,25.592,170C26.161,170,26.73,170,27.299,170C27.867,170,28.436,170,29.005,170C29.573,170,30.142,170,30.711,170C31.28,170,31.848,170,32.417,170C32.986,170,33.555,170,34.123,170C34.692,170,35.261,170,35.829,170C36.398,170,36.967,170,37.536,170C38.104,170,38.673,170,39.242,170C39.81,170,40.379,170,40.948,170C41.517,170,42.085,170,42.654,170C43.223,170,43.791,170,44.36,170C44.929,170,45.498,170,46.066,170C46.635,170,47.204,170,47.773,170C48.341,170,48.91,170,49.479,170C50.047,170,50.616,170,51.185,170C51.754,170,52.322,170,52.891,170C53.46,170,54.028,170,54.597,170C55.166,170,55.735,170,56.303,170C56.872,170,57.441,170,58.009,170C58.578,170,59.147,170,59.716,170C60.284,170,60.853,170,61.422,170C61.991,170,62.559,170,63.128,170C63.697,170,64.265,170,64.834,170C65.403,170,65.972,170,66.54,170C67.109,170,67.678,170,68.246,170C68.815,170,69.384,170,69.953,170C70.521,170,71.09,170,71.659,170C72.227,170,72.796,170,73.365,170C73.934,170,74.502,170,75.071,170C75.64,170,76.209,170,76.777,170C77.346,170,77.915,170,78.483,170C79.052,170,79.621,170,80.19,170C80.758,170,81.327,170,81.896,170C82.464,170,83.033,170,83.602,170C84.171,170,84.739,170,85.308,170C85.877,170,86.445,170,87.014,170C87.583,170,88.152,170,88.72,170C89.289,170,89.858,170,90.427,170C90.995,170,91.564,170,92.133,170C92.701,170,93.27,170,93.839,170C94.408,170,94.976,170,95.545,170C96.114,170,96.682,170,97.251,170C97.82,170,98.389,170,98.957,170C99.526,170,100.095,170,100.664,170C101.232,170,101.801,170,102.37,170C102.938,170,103.507,170,104.076,170C104.645,170,105.213,170,105.782,170C106.351,170,106.919,170,107.488,170C108.057,170,108.626,170,109.194,170C109.763,170,110.332,170,110.9,170C111.469,170,112.038,170,112.607,170C113.175,170,113.744,170,114.313,170C114.882,170,115.45,170,116.019,170C116.588,170,117.156,170,117.725,170C118.294,170,118.863,170,119.431,170C120,170,120.569,170,121.137,170C121.706,170,122.275,170,122.844,170C123.412,170,123.981,170,124.55,170C125.118,170,125.687,170,126.256,170C126.825,170,127.393,170,127.962,170C128.531,170,129.1,170,129.668,170C130.237,170,130.806,170,131.374,170C131.943,170,132.512,170,133.081,170C133.649,170,134.218,170,134.787,170C135.355,170,135.924,170,136.493,170C137.062,170,137.63,170,138.199,170C138.768,170,139.336,170,139.905,170C140.474,170,141.043,170,141.611,170C142.18,170,142.749,170,143.318,170C143.886,170,144.455,170,145.024,170C145.592,170,146.161,170,146.73,170C147.299,170,147.867,170,148.436,170C149.005,170,149.573,170,150.142,170C150.711,170,151.28,170,151.848,170C152.417,170,152.986,170,153.555,170C154.123,170,154.692,170,155.261,170C155.829,170,156.398,170,156.967,170C157.536,170,158.104,170,158.673,170C159.242,170,159.81,170,160.379,170C160.948,170,161.517,170,162.085,170C162.654,170,163.223,170,163.791,170C164.36,170,164.929,170,165.498,170C166.066,170,166.635,170,167.204,170C167.773,170,168.341,170,168.91,170C169.479,170,170.047,170,170.616,170C171.185,170,171.754,170,172.322,170C172.891,170,173.46,170,174.028,170C174.597,170,175.166,170,175.735,170C176.303,170,176.872,170,177.441,170C178.009,170,178.578,170,179.147,170C179.716,170,180.284,170,180.853,170C181.422,170,181.991,170,182.559,170C183.128,170,183.697,170,184.265,170C184.834,170,185.403,170,185.972,170C186.54,170,187.109,170,187.678,170C188.246,170,188.815,170,189.384,170C189.953,170,190.521,170,191.09,170C191.659,170,192.227,170,192.796,170C193.365,170,193.934,170,194.502,170C195.071,170,195.64,170,196.209,170C196.777,170,197.346,170,197.915,170C198.483,170,199.052,170,199.621,170C200.19,170,200.758,170,201.327,170C201.896,170,202.464,170,203.033,170C203.602,170,204.171,170,204.739,170C205.308,170,205.877,170,206.445,170C207.014,170,207.583,170,208.152,170C208.72,170,209.289,170,209.858,170C210.427,170,210.995,170,211.564,170C212.133,170,212.701,170,213.27,170C213.839,170,214.408,170,214.976,170C215.545,170,216.114,170,216.682,170C217.251,170,217.82,170,218.389,170C218.957,170,219.526,170,220.095,170C220.664,170,221.232,170,221.801,170C222.37,170,222.938,170,223.507,170C224.076,170,224.645,170,225.213,170C225.782,170,226.351,170,226.919,170C227.488,170,228.057,170,228.626,170C229.194,170,229.763,170,230.332,170C230.9,170,231.469,170,232.038,170C232.607,170,233.175,170,233.744,170C234.313,170,234.882,170,235.45,170C236.019,170,236.588,170,237.156,170C237.725,170,238.294,170,238.863,170C239.431,170,240,170,240.569,170C241.137,170,241.706,170,242.275,170C242.844,170,243.412,170,243.981,170C244.55,170,245.118,170,245.687,170C246.256,170,246.825,170,247.393,170C247.962,170,248.531,170,249.1,170C249.668,170,250.237,170,250.806,170C251.374,170,251.943,170,252.512,170C253.081,170,253.649,170,254.218,170C254.787,170,255.355,170,255.924,170C256.493,170,257.062,170,257.63,170C258.199,170,258.768,170,259.336,170C259.905,170,260.474,170,261.043,170C261.611,170,262.18,170,262.749,170C263.318,170,263.886,170,264.455,170C265.024,170,265.592,170,266.161,170C266.73,170,267.299,170,267.867,170C268.436,170,269.005,170,269.573,170C270.142,170,270.711,170,271.28,170C271.848,170,272.417,170,272.986,170C273.555,170,274.123,170,274.692,170C275.261,170,275.829,170,276.398,170C276.967,170,277.536,170,278.104,170C278.673,170,279.242,170,279.81,170C280.379,170,280.948,170,281.517,170C282.085,170,282.654,170,283.223,170C283.791,170,284.36,170,284.929,170C285.498,170,286.066,170,286.635,170C287.204,170,287.773,170,288.341,170C288.91,170,289.479,170,290.047,170C290.616,170,291.185,170,291.754,170C292.322,170,292.891,170,293.46,170C294.028,170,294.597,170,295.166,170C295.735,170,296.303,170,296.872,170C297.441,170,298.009,170,298.578,170C299.147,170,299.716,170,300.284,170C300.853,170,301.422,170,301.991,170C302.559,170,303.128,170,303.697,170C304.265,170,304.834,170,305.403,170C305.972,170,306.54,170,307.109,170C307.678,170,308.246,170,308.815,170C309.384,170,309.953,170,310.521,170C311.09,170,311.659,170,312.227,170C312.796,170,313.365,170,313.934,170C314.502,170,315.071,170,315.64,170C316.209,170,316.777,170,317.346,170C317.915,170,318.483,170,319.052,170C319.621,170,320.19,170,320.758,170C321.327,170,321.896,170,322.464,170C323.033,170,323.602,170,324.171,170C324.739,170,325.308,170,325.877,170C326.445,170,327.014,170,327.583,170C328.152,170,328.72,170,329.289,170C329.858,170,330.427,170,330.995,170C331.564,170,332.133,170,332.701,170C333.27,170,333.839,170,334.408,170C334.976,170,335.545,170,336.114,170C336.682,170,337.251,170,337.82,170C338.389,170,338.957,170,339.526,170C340.095,170,340.664,170,341.232,170C341.801,170,342.37,170,342.938,170C343.507,170,344.076,170,344.645,170C345.213,170,345.782,170,346.351,170C346.919,170,347.488,170,348.057,170C348.626,170,349.194,170,349.763,170C350.332,170,350.9,170,351.469,170C352.038,170,352.607,170,353.175,170C353.744,170,354.313,170,354.882,170C355.45,170,356.019,170,356.588,170C357.156,170,357.725,170,358.294,170C358.863,170,359.431,170,360,170C360.569,170,361.137,170,361.706,170C362.275,170,362.844,170,363.412,170C363.981,170,364.55,170,365.118,170C365.687,170,366.256,170,366.825,170C367.393,170,367.962,170,368.531,170C369.1,170,369.668,170,370.237,170C370.806,170,371.374,170,371.943,170C372.512,170,373.081,170,373.649,170C374.218,170,374.787,170,375.355,170C375.924,170,376.493,170,377.062,170C377.63,170,378.199,170,378.768,170C379.336,170,379.905,170,380.474,170C381.043,170,381.611,170,382.18,170C382.749,170,383.318,170,383.886,170C384.455,170,385.024,170,385.592,170C386.161,170,386.73,170,387.299,170C387.867,170,388.436,170,389.005,170C389.573,170,390.142,170,390.711,170C391.28,170,391.848,170,392.417,170C392.986,170,393.555,170,394.123,170C394.692,170,395.261,170,395.829,170C396.398,170,396.967,170,397.536,170C398.104,170,398.673,170,399.242,170C399.81,170,400.379,170,400.948,170C401.517,170,402.085,170,402.654,170C403.223,170,403.791,170,404.36,170C404.929,170,405.498,170,406.066,170C406.635,170,407.204,170,407.773,170C408.341,170,408.91,170,409.479,170C410.047,170,410.616,170,411.185,170C411.754,170,412.322,170,412.891,170C413.46,170,414.028,170,414.597,170C415.166,170,415.735,170,416.303,170C416.872,170,417.441,170,418.009,170C418.578,170,419.147,170,419.716,170C420.284,170,420.853,170,421.422,170C421.991,170,422.559,170,423.128,170C423.697,170,424.265,170,424.834,170C425.403,170,425.972,170,426.54,170C427.109,170,427.678,170,428.246,170C428.815,170,429.384,170,429.953,170C430.521,170,431.09,170,431.659,170C432.227,170,432.796,170,433.365,170C433.934,170,434.502,170,435.071,170C435.64,170,436.209,170,436.777,170C437.346,170,437.915,170,438.483,170C439.052,170,439.621,170,440.19,170C440.758,170,441.327,170,441.896,170C442.464,170,443.033,170,443.602,170C444.171,170,444.739,170,445.308,170C445.877,170,446.445,170,447.014,170C447.583,170,448.152,170,448.72,170C449.289,170,449.858,170,450.427,170C450.995,170,451.564,170,452.133,170C452.701,170,453.27,170,453.839,170C454.408,170,454.976,170,455.545,170C456.114,170,456.682,170,457.251,170C457.82,170,458.389,170,458.957,170C459.526,170,460.095,170,460.664,170C461.232,170,461.801,170,462.37,170C462.938,170,463.507,170,464.076,170C464.645,170,465.213,170,465.782,170C466.351,170,466.919,170,467.488,170C468.057,170,468.626,170,469.194,170C469.763,170,470.332,170,470.9,170C471.469,170,472.038,170,472.607,170C473.175,170,473.744,170,474.313,170C474.882,170,475.45,170,476.019,170C476.588,170,477.156,170,477.725,170C478.294,170,478.863,170,479.431,170C480,170,480.569,170,481.137,170C481.706,170,482.275,170,482.844,170C483.412,170,483.981,170,484.55,170C485.118,170,485.687,170,486.256,170C486.825,170,487.393,170,487.962,170C488.531,170,489.1,170,489.668,170C490.237,170,490.806,170,491.374,170C491.943,170,492.512,170,493.081,170C493.649,170,494.218,170,494.787,170C495.355,170,495.924,170,496.493,170C497.062,170,497.63,170,498.199,170C498.768,170,499.336,170,499.905,170C500.474,170,501.043,170,501.611,170C502.18,170,502.749,170,503.318,170C503.886,170,504.455,170,505.024,170C505.592,170,506.161,170,506.73,170C507.299,170,507.867,170,508.436,170C509.005,170,509.573,170,510.142,170C510.711,170,511.28,170,511.848,170C512.417,170,512.986,170,513.555,170C514.123,170,514.692,170,515.261,170C515.829,170,516.398,170,516.967,170C517.536,170,518.104,170,518.673,170C519.242,170,519.81,170,520.379,170C520.948,170,521.517,170,522.085,170C522.654,170,523.223,170,523.791,170C524.36,170,524.929,170,525.498,170C526.066,170,526.635,170,527.204,170C527.773,170,528.341,170,528.91,170C529.479,170,530.047,170,530.616,170C531.185,170,531.754,170,532.322,170C532.891,170,533.46,170,534.028,170C534.597,170,535.166,170,535.735,170C536.303,170,536.872,170,537.441,170C538.009,170,538.578,170,539.147,170C539.716,170,540.284,170,540.853,170C541.422,170,541.991,170,542.559,170C543.128,170,543.697,170,544.265,170C544.834,170,545.403,170,545.972,170C546.54,170,547.109,170,547.678,170C548.246,170,548.815,170,549.384,170C549.953,170,550.521,170,551.09,170C551.659,170,552.227,170,552.796,170C553.365,170,553.934,170,554.502,170C555.071,170,555.64,170,556.209,170C556.777,170,557.346,170,557.915,170C558.483,170,559.052,170,559.621,170C560.19,170,560.758,170,561.327,170C561.896,170,562.464,170,563.033,170C563.602,170,564.171,170,564.739,170C565.308,170,565.877,170,566.445,170C567.014,170,567.583,170,568.152,170C568.72,170,569.289,170,569.858,170C570.427,170,570.995,170,571.564,170C572.133,170,572.701,170,573.27,170C573.839,170,574.408,170,574.976,170C575.545,170,576.114,170,576.682,170C577.251,170,577.82,170,578.389,170C578.957,170,579.526,170,580.095,170C580.664,170,581.232,170,581.801,170C582.37,170,582.938,170,583.507,170C584.076,170,584.645,170,585.213,170C585.782,170,586.351,170,586.919,170C587.488,170,588.057,170,588.626,170C589.194,170,589.763,170,590.332,170C590.9,170,591.469,170,592.038,170C592.607,170,593.175,170,593.744,170C594.313,170,594.882,170,595.45,170C596.019,170,596.588,170,597.156,170C597.725,170,598.294,170,598.863,170C599.431,170,600,170,600.569,170C601.137,170,601.706,170,602.275,170C602.844,170,603.412,170,603.981,170C604.55,170,605.118,170,605.687,170C606.256,170,606.825,170,607.393,170C607.962,170,608.531,170,609.1,170C609.668,170,610.237,170,610.806,170C611.374,170,611.943,170,612.512,170C613.081,170,613.649,170,614.218,170C614.787,170,615.355,170,615.924,170C616.493,170,617.062,170,617.63,170C618.199,170,618.768,170,619.336,170C619.905,170,620.474,170,621.043,170C621.611,170,622.18,170,622.749,170C623.318,170,623.886,170,624.455,170C625.024,170,625.592,170,626.161,170C626.73,170,627.299,170,627.867,170C628.436,170,629.005,170,629.573,170C630.142,170,630.711,170,631.28,170C631.848,170,632.417,170,632.986,170C633.555,170,634.123,170,634.692,170C635.261,170,635.829,170,636.398,170C636.967,170,637.536,170,638.104,170C638.673,170,639.242,170,639.81,170C640.379,170,640.948,170,641.517,170C642.085,170,642.654,170,643.223,170C643.791,170,644.36,170,644.929,170C645.498,170,646.066,170,646.635,170C647.204,170,647.773,170,648.341,170C648.91,170,649.479,170,650.047,170C650.616,170,651.185,170,651.754,170C652.322,170,652.891,170,653.46,170C654.028,170,654.597,170,655.166,170C655.735,170,656.303,170,656.872,170C657.441,170,658.009,170,658.578,170C659.147,170,659.716,170,660.284,170C660.853,170,661.422,170,661.991,170C662.559,170,663.128,170,663.697,170C664.265,170,664.834,170,665.403,170C665.972,170,666.54,170,667.109,170C667.678,170,668.246,170,668.815,170C669.384,170,669.953,170,670.521,170C671.09,170,671.659,170,672.227,170C672.796,170,673.365,170,673.934,170C674.502,170,675.071,170,675.64,170C676.209,170,676.777,170,677.346,170C677.915,170,678.483,170,679.052,170C679.621,170,680.19,170,680.758,170C681.327,170,681.896,170,682.464,170C683.033,170,683.602,170,684.171,170C684.739,170,685.308,170,685.877,170C686.445,170,687.014,170,687.583,170C688.152,170,688.72,170,689.289,170C689.858,170,690.427,170,690.995,170C691.564,170,692.133,170,692.701,170C693.27,170,693.839,170,694.408,170C694.976,170,695.545,170,696.114,170C696.682,170,697.251,170,697.82,170C698.389,170,698.957,170,699.526,170C700.095,170,700.664,170,701.232,170C701.801,170,702.37,170,702.938,170C703.507,170,704.076,170,704.645,170C705.213,170,705.782,170,706.351,170C706.919,170,707.488,170,708.057,170C708.626,170,709.194,170,709.763,170C710.332,170,710.9,170,711.469,170C712.038,170,712.607,170,713.175,170C713.744,170,714.313,170,714.882,170C715.45,170,716.019,170,716.588,170C717.156,170,717.725,170,718.294,170C718.863,170,719.431,170,720,170"></path><circle class="dot" cx="0" cy="170" r="3" fill="#2563eb"></circle><circle class="dot" cx="1.7061611374407584" cy="170" r="3" fill="#2563eb"></circle><circle class="dot" cx="3.4123222748815167" cy="170" r="3" fill="#2563eb"></circle><circle class="dot" cx="5.118483412322274" cy="170" r="3" fill="#2563eb"></circle><circle class="dot" cx="6.8246445497630335" cy="170" r="3" fill="#2563eb"></circle><circle class="dot" cx="8.530805687203792" cy="170" r="3" fill="#2563eb"></circle><circle class="dot" cx="10.236966824644549" cy="170" r="3" fill="#2563eb"></circle><circle class="dot" cx="11.94312796208531" cy="170" r="3" fill="#2563eb"></circle><circle class="dot" cx="13.649289099526067" cy="170" r="3" fill="#2563eb"></circle><circle class="dot" cx="15.355450236966826" cy="170" r="3" fill="#2563eb"></circle><circle class="dot" cx="17.061611374407583" cy="170" r="3" fill="#2563eb"></circle><circle class="dot" cx="18.76777251184834" cy="170" r="3" fill="#2563eb"></circle><circle class="dot" cx="20.473933649289098" cy="170" r="3" fill="#2563eb"></circle><circle class="dot" cx="22.180094786729857" cy="170" r="3" fill="#2563eb"></circle><circle class="dot" cx="23.88625592417062" cy="170" r="3" fill="#2563eb"></circle><circle class="dot" cx="25.592417061611375" cy="170" r="3" fill="#2563eb"></circle><circle class="dot" cx="27.298578199052134" cy="170" r="3" fill="#2563eb"></circle><circle class="dot" cx="29.00473933649289" cy="170" r="3" fill="#2563eb"></circle><circle class="dot" cx="30.710900473933652" cy="170" r="3" fill="#2563eb"></circle><circle class="dot" cx="32.41706161137441" cy="170" r="3" fill="#2563eb"></circle><circle class="dot" cx="34.12322274881517" cy="170" r="3" fill="#2563eb"></circle><circle class="dot" cx="35.829383886255926" cy="170" r="3" fill="#2563eb"></circle><circle class="dot" cx="37.53554502369668" cy="170" r="3" fill="#2563eb"></circle><circle class="dot" cx="39.241706161137444" cy="170" r="3" fill="#2563eb"></circle><circle class="dot" cx="40.947867298578196" cy="170" r="3" fill="#2563eb"></circle><circle class="dot" cx="42.65402843601896" cy="170" r="3" fill="#2563eb"></circle><circle class="dot" cx="44.360189573459714" cy="170" r="3" fill="#2563eb"></circle><circle class="dot" cx="46.06635071090047" cy="170" r="3" fill="#2563eb"></circle><circle class="dot" cx="47.77251184834124" cy="170" r="3" fill="#2563eb"></circle><circle class="dot" cx="49.47867298578199" cy="170" r="3" fill="#2563eb"></circle><circle class="dot" cx="51.18483412322275" cy="170" r="3" fill="#2563eb"></circle><circle class="dot" cx="52.8909952606635" cy="170" r="3" fill="#2563eb"></circle><circle class="dot" cx="54.59715639810427" cy="170" r="3" fill="#2563eb"></circle><circle class="dot" cx="56.30331753554503" cy="170" r="3" fill="#2563eb"></circle><circle class="dot" cx="58.00947867298578" cy="170" r="3" fill="#2563eb"></circle><circle class="dot" cx="59.71563981042654" cy="170" r="3" fill="#2563eb"></circle><circle class="dot" cx="61.421800947867304" cy="170" r="3" fill="#2563eb"></circle><circle class="dot" cx="63.127962085308056" cy="170" r="3" fill="#2563eb"></circle><circle class="dot" cx="64.83412322274881" cy="170" r="3" fill="#2563eb"></circle><circle class="dot" cx="66.54028436018957" cy="170" r="3" fill="#2563eb"></circle><circle class="dot" cx="68.24644549763033" cy="170" r="3" fill="#2563eb"></circle><circle class="dot" cx="69.95260663507109" cy="170" r="3" fill="#2563eb"></circle><circle class="dot" cx="71.65876777251185" cy="170" r="3" fill="#2563eb"></circle><circle class="dot" cx="73.36492890995261" cy="170" r="3" fill="#2563eb"></circle><circle class="dot" cx="75.07109004739335" cy="170" r="3" fill="#2563eb"></circle><circle class="dot" cx="76.77725118483413" cy="170" r="3" fill="#2563eb"></circle><circle class="dot" cx="78.48341232227489" cy="170" r="3" fill="#2563eb"></circle><circle class="dot" cx="80.18957345971563" cy="170" r="3" fill="#2563eb"></circle><circle class="dot" cx="81.89573459715639" cy="170" r="3" fill="#2563eb"></circle><circle class="dot" cx="83.60189573459716" cy="170" r="3" fill="#2563eb"></circle><circle class="dot" cx="85.30805687203792" cy="170" r="3" fill="#2563eb"></circle><circle class="dot" cx="87.01421800947867" cy="170" r="3" fill="#2563eb"></circle><circle class="dot" cx="88.72037914691943" cy="170" r="3" fill="#2563eb"></circle><circle class="dot" cx="90.42654028436019" cy="170" r="3" fill="#2563eb"></circle><circle class="dot" cx="92.13270142180095" cy="170" r="3" fill="#2563eb"></circle><circle class="dot" cx="93.83886255924172" cy="170" r="3" fill="#2563eb"></circle><circle class="dot" cx="95.54502369668248" cy="170" r="3" fill="#2563eb"></circle><circle class="dot" cx="97.25118483412322" cy="170" r="3" fill="#2563eb"></circle><circle class="dot" cx="98.95734597156398" cy="170" r="3" fill="#2563eb"></circle><circle class="dot" cx="100.66350710900474" cy="170" r="3" fill="#2563eb"></circle><circle class="dot" cx="102.3696682464455" cy="170" r="3" fill="#2563eb"></circle><circle class="dot" cx="104.07582938388626" cy="170" r="3" fill="#2563eb"></circle><circle class="dot" cx="105.781990521327" cy="170" r="3" fill="#2563eb"></circle><circle class="dot" cx="107.48815165876776" cy="170" r="3" fill="#2563eb"></circle><circle class="dot" cx="109.19431279620854" cy="170" r="3" fill="#2563eb"></circle><circle class="dot" cx="110.9004739336493" cy="170" r="3" fill="#2563eb"></circle><circle class="dot" cx="112.60663507109005" cy="170" r="3" fill="#2563eb"></circle><circle class="dot" cx="114.31279620853081" cy="170" r="3" fill="#2563eb"></circle><circle class="dot" cx="116.01895734597156" cy="170" r="3" fill="#2563eb"></circle><circle class="dot" cx="117.72511848341232" cy="170" r="3" fill="#2563eb"></circle><circle class="dot" cx="119.43127962085308" cy="170" r="3" fill="#2563eb"></circle><circle class="dot" cx="121.13744075829383" cy="170" r="3" fill="#2563eb"></circle><circle class="dot" cx="122.84360189573461" cy="170" r="3" fill="#2563eb"></circle><circle class="dot" cx="124.54976303317537" cy="170" r="3" fill="#2563eb"></circle><circle class="dot" cx="126.25592417061611" cy="170" r="3" fill="#2563eb"></circle><circle class="dot" cx="127.96208530805687" cy="170" r="3" fill="#2563eb"></circle><circle class="dot" cx="129.66824644549763" cy="170" r="3" fill="#2563eb"></circle><circle class="dot" cx="131.37440758293837" cy="170" r="3" fill="#2563eb"></circle><circle class="dot" cx="133.08056872037915" cy="170" r="3" fill="#2563eb"></circle><circle class="dot" cx="134.7867298578199" cy="170" r="3" fill="#2563eb"></circle><circle class="dot" cx="136.49289099526067" cy="170" r="3" fill="#2563eb"></circle><circle class="dot" cx="138.19905213270144" cy="170" r="3" fill="#2563eb"></circle><circle class="dot" cx="139.90521327014218" cy="170" r="3" fill="#2563eb"></circle><circle class="dot" cx="141.61137440758293" cy="170" r="3" fill="#2563eb"></circle><circle class="dot" cx="143.3175355450237" cy="170" r="3" fill="#2563eb"></circle><circle class="dot" cx="145.02369668246445" cy="170" r="3" fill="#2563eb"></circle><circle class="dot" cx="146.72985781990522" cy="170" r="3" fill="#2563eb"></circle><circle class="dot" cx="148.43601895734596" cy="170" r="3" fill="#2563eb"></circle><circle class="dot" cx="150.1421800947867" cy="170" r="3" fill="#2563eb"></circle><circle class="dot" cx="151.84834123222748" cy="170" r="3" fill="#2563eb"></circle><circle class="dot" cx="153.55450236966826" cy="170" r="3" fill="#2563eb"></circle><circle class="dot" cx="155.260663507109" cy="170" r="3" fill="#2563eb"></circle><circle class="dot" cx="156.96682464454977" cy="170" r="3" fill="#2563eb"></circle><circle class="dot" cx="158.67298578199052" cy="170" r="3" fill="#2563eb"></circle><circle class="dot" cx="160.37914691943126" cy="170" r="3" fill="#2563eb"></circle><circle class="dot" cx="162.08530805687204" cy="170" r="3" fill="#2563eb"></circle><circle class="dot" cx="163.79146919431278" cy="170" r="3" fill="#2563eb"></circle><circle class="dot" cx="165.49763033175356" cy="170" r="3" fill="#2563eb"></circle><circle class="dot" cx="167.20379146919433" cy="170" r="3" fill="#2563eb"></circle><circle class="dot" cx="168.90995260663507" cy="170" r="3" fill="#2563eb"></circle><circle class="dot" cx="170.61611374407585" cy="170" r="3" fill="#2563eb"></circle><circle class="dot" cx="172.3222748815166" cy="170" r="3" fill="#2563eb"></circle><circle class="dot" cx="174.02843601895734" cy="170" r="3" fill="#2563eb"></circle><circle class="dot" cx="175.7345971563981" cy="170" r="3" fill="#2563eb"></circle><circle class="dot" cx="177.44075829383885" cy="170" r="3" fill="#2563eb"></circle><circle class="dot" cx="179.1469194312796" cy="170" r="3" fill="#2563eb"></circle><circle class="dot" cx="180.85308056872037" cy="170" r="3" fill="#2563eb"></circle><circle class="dot" cx="182.55924170616115" cy="170" r="3" fill="#2563eb"></circle><circle class="dot" cx="184.2654028436019" cy="170" r="3" fill="#2563eb"></circle><circle class="dot" cx="185.97156398104266" cy="170" r="3" fill="#2563eb"></circle><circle class="dot" cx="187.67772511848344" cy="170" r="3" fill="#2563eb"></circle><circle class="dot" cx="189.38388625592415" cy="170" r="3" fill="#2563eb"></circle><circle class="dot" cx="191.09004739336496" cy="170" r="3" fill="#2563eb"></circle><circle class="dot" cx="192.79620853080567" cy="170" r="3" fill="#2563eb"></circle><circle class="dot" cx="194.50236966824644" cy="170" r="3" fill="#2563eb"></circle><circle class="dot" cx="196.2085308056872" cy="170" r="3" fill="#2563eb"></circle><circle class="dot" cx="197.91469194312796" cy="170" r="3" fill="#2563eb"></circle><circle class="dot" cx="199.6208530805687" cy="170" r="3" fill="#2563eb"></circle><circle class="dot" cx="201.32701421800948" cy="170" r="3" fill="#2563eb"></circle><circle class="dot" cx="203.03317535545025" cy="170" r="3" fill="#2563eb"></circle><circle class="dot" cx="204.739336492891" cy="170" r="3" fill="#2563eb"></circle><circle class="dot" cx="206.44549763033177" cy="170" r="3" fill="#2563eb"></circle><circle class="dot" cx="208.15165876777252" cy="170" r="3" fill="#2563eb"></circle><circle class="dot" cx="209.8578199052133" cy="170" r="3" fill="#2563eb"></circle><circle class="dot" cx="211.563981042654" cy="170" r="3" fill="#2563eb"></circle><circle class="dot" cx="213.27014218009478" cy="170" r="3" fill="#2563eb"></circle><circle class="dot" cx="214.97630331753552" cy="170" r="3" fill="#2563eb"></circle><circle class="dot" cx="216.6824644549763" cy="170" r="3" fill="#2563eb"></circle><circle class="dot" cx="218.38862559241707" cy="170" r="3" fill="#2563eb"></circle><circle class="dot" cx="220.09478672985782" cy="170" r="3" fill="#2563eb"></circle><circle class="dot" cx="221.8009478672986" cy="170" r="3" fill="#2563eb"></circle><circle class="dot" cx="223.50710900473933" cy="170" r="3" fill="#2563eb"></circle><circle class="dot" cx="225.2132701421801" cy="170" r="3" fill="#2563eb"></circle><circle class="dot" cx="226.91943127962082" cy="170" r="3" fill="#2563eb"></circle><circle class="dot" cx="228.62559241706163" cy="170" r="3" fill="#2563eb"></circle><circle class="dot" cx="230.33175355450234" cy="170" r="3" fill="#2563eb"></circle><circle class="dot" cx="232.03791469194312" cy="170" r="3" fill="#2563eb"></circle><circle class="dot" cx="233.7440758293839" cy="170" r="3" fill="#2563eb"></circle><circle class="dot" cx="235.45023696682463" cy="170" r="3" fill="#2563eb"></circle><circle class="dot" cx="237.1563981042654" cy="170" r="3" fill="#2563eb"></circle><circle class="dot" cx="238.86255924170615" cy="170" r="3" fill="#2563eb"></circle><circle class="dot" cx="240.56872037914692" cy="170" r="3" fill="#2563eb"></circle><circle class="dot" cx="242.27488151658767" cy="170" r="3" fill="#2563eb"></circle><circle class="dot" cx="243.98104265402844" cy="170" r="3" fill="#2563eb"></circle><circle class="dot" cx="245.68720379146922" cy="170" r="3" fill="#2563eb"></circle><circle class="dot" cx="247.39336492890996" cy="170" r="3" fill="#2563eb"></circle><circle class="dot" cx="249.09952606635073" cy="170" r="3" fill="#2563eb"></circle><circle class="dot" cx="250.80568720379145" cy="170" r="3" fill="#2563eb"></circle><circle class="dot" cx="252.51184834123222" cy="170" r="3" fill="#2563eb"></circle><circle class="dot" cx="254.21800947867297" cy="170" r="3" fill="#2563eb"></circle><circle class="dot" cx="255.92417061611374" cy="170" r="3" fill="#2563eb"></circle><circle class="dot" cx="257.63033175355446" cy="170" r="3" fill="#2563eb"></circle><circle class="dot" cx="259.33649289099526" cy="170" r="3" fill="#2563eb"></circle><circle class="dot" cx="261.04265402843606" cy="170" r="3" fill="#2563eb"></circle><circle class="dot" cx="262.74881516587675" cy="170" r="3" fill="#2563eb"></circle><circle class="dot" cx="264.45497630331755" cy="170" r="3" fill="#2563eb"></circle><circle class="dot" cx="266.1611374407583" cy="170" r="3" fill="#2563eb"></circle><circle class="dot" cx="267.86729857819904" cy="170" r="3" fill="#2563eb"></circle><circle class="dot" cx="269.5734597156398" cy="170" r="3" fill="#2563eb"></circle><circle class="dot" cx="271.2796208530806" cy="170" r="3" fill="#2563eb"></circle><circle class="dot" cx="272.98578199052133" cy="170" r="3" fill="#2563eb"></circle><circle class="dot" cx="274.6919431279621" cy="170" r="3" fill="#2563eb"></circle><circle class="dot" cx="276.3981042654029" cy="170" r="3" fill="#2563eb"></circle><circle class="dot" cx="278.1042654028436" cy="170" r="3" fill="#2563eb"></circle><circle class="dot" cx="279.81042654028437" cy="170" r="3" fill="#2563eb"></circle><circle class="dot" cx="281.5165876777251" cy="170" r="3" fill="#2563eb"></circle><circle class="dot" cx="283.22274881516586" cy="170" r="3" fill="#2563eb"></circle><circle class="dot" cx="284.9289099526066" cy="170" r="3" fill="#2563eb"></circle><circle class="dot" cx="286.6350710900474" cy="170" r="3" fill="#2563eb"></circle><circle class="dot" cx="288.34123222748815" cy="170" r="3" fill="#2563eb"></circle><circle class="dot" cx="290.0473933649289" cy="170" r="3" fill="#2563eb"></circle><circle class="dot" cx="291.7535545023697" cy="170" r="3" fill="#2563eb"></circle><circle class="dot" cx="293.45971563981044" cy="170" r="3" fill="#2563eb"></circle><circle class="dot" cx="295.1658767772512" cy="170" r="3" fill="#2563eb"></circle><circle class="dot" cx="296.87203791469193" cy="170" r="3" fill="#2563eb"></circle><circle class="dot" cx="298.57819905213273" cy="170" r="3" fill="#2563eb"></circle><circle class="dot" cx="300.2843601895734" cy="170" r="3" fill="#2563eb"></circle><circle class="dot" cx="301.9905213270142" cy="170" r="3" fill="#2563eb"></circle><circle class="dot" cx="303.69668246445497" cy="170" r="3" fill="#2563eb"></circle><circle class="dot" cx="305.4028436018957" cy="170" r="3" fill="#2563eb"></circle><circle class="dot" cx="307.1090047393365" cy="170" r="3" fill="#2563eb"></circle><circle class="dot" cx="308.81516587677726" cy="170" r="3" fill="#2563eb"></circle><circle class="dot" cx="310.521327014218" cy="170" r="3" fill="#2563eb"></circle><circle class="dot" cx="312.22748815165875" cy="170" r="3" fill="#2563eb"></circle><circle class="dot" cx="313.93364928909955" cy="170" r="3" fill="#2563eb"></circle><circle class="dot" cx="315.6398104265403" cy="170" r="3" fill="#2563eb"></circle><circle class="dot" cx="317.34597156398104" cy="170" r="3" fill="#2563eb"></circle><circle class="dot" cx="319.05213270142184" cy="170" r="3" fill="#2563eb"></circle><circle class="dot" cx="320.7582938388625" cy="170" r="3" fill="#2563eb"></circle><circle class="dot" cx="322.46445497630333" cy="170" r="3" fill="#2563eb"></circle><circle class="dot" cx="324.1706161137441" cy="170" r="3" fill="#2563eb"></circle><circle class="dot" cx="325.8767772511848" cy="170" r="3" fill="#2563eb"></circle><circle class="dot" cx="327.58293838862556" cy="170" r="3" fill="#2563eb"></circle><circle class="dot" cx="329.28909952606637" cy="170" r="3" fill="#2563eb"></circle><circle class="dot" cx="330.9952606635071" cy="170" r="3" fill="#2563eb"></circle><circle class="dot" cx="332.70142180094786" cy="170" r="3" fill="#2563eb"></circle><circle class="dot" cx="334.40758293838866" cy="170" r="3" fill="#2563eb"></circle><circle class="dot" cx="336.1137440758294" cy="170" r="3" fill="#2563eb"></circle><circle class="dot" cx="337.81990521327015" cy="170" r="3" fill="#2563eb"></circle><circle class="dot" cx="339.5260663507109" cy="170" r="3" fill="#2563eb"></circle><circle class="dot" cx="341.2322274881517" cy="170" r="3" fill="#2563eb"></circle><circle class="dot" cx="342.9383886255924" cy="170" r="3" fill="#2563eb"></circle><circle class="dot" cx="344.6445497630332" cy="170" r="3" fill="#2563eb"></circle><circle class="dot" cx="346.3507109004739" cy="170" r="3" fill="#2563eb"></circle><circle class="dot" cx="348.0568720379147" cy="170" r="3" fill="#2563eb"></circle><circle class="dot" cx="349.7630331753555" cy="170" r="3" fill="#2563eb"></circle><circle class="dot" cx="351.4691943127962" cy="170" r="3" fill="#2563eb"></circle><circle class="dot" cx="353.17535545023696" cy="170" r="3" fill="#2563eb"></circle><circle class="dot" cx="354.8815165876777" cy="170" r="3" fill="#2563eb"></circle><circle class="dot" cx="356.5876777251185" cy="170" r="3" fill="#2563eb"></circle><circle class="dot" cx="358.2938388625592" cy="170" r="3" fill="#2563eb"></circle><circle class="dot" cx="360" cy="170" r="3" fill="#2563eb"></circle><circle class="dot" cx="361.70616113744074" cy="170" r="3" fill="#2563eb"></circle><circle class="dot" cx="363.41232227488155" cy="170" r="3" fill="#2563eb"></circle><circle class="dot" cx="365.1184834123223" cy="170" r="3" fill="#2563eb"></circle><circle class="dot" cx="366.82464454976304" cy="170" r="3" fill="#2563eb"></circle><circle class="dot" cx="368.5308056872038" cy="170" r="3" fill="#2563eb"></circle><circle class="dot" cx="370.2369668246446" cy="170" r="3" fill="#2563eb"></circle><circle class="dot" cx="371.9431279620853" cy="170" r="3" fill="#2563eb"></circle><circle class="dot" cx="373.6492890995261" cy="170" r="3" fill="#2563eb"></circle><circle class="dot" cx="375.3554502369669" cy="170" r="3" fill="#2563eb"></circle><circle class="dot" cx="377.0616113744076" cy="170" r="3" fill="#2563eb"></circle><circle class="dot" cx="378.7677725118483" cy="170" r="3" fill="#2563eb"></circle><circle class="dot" cx="380.47393364928905" cy="170" r="3" fill="#2563eb"></circle><circle class="dot" cx="382.1800947867299" cy="170" r="3" fill="#2563eb"></circle><circle class="dot" cx="383.8862559241706" cy="170" r="3" fill="#2563eb"></circle><circle class="dot" cx="385.59241706161134" cy="170" r="3" fill="#2563eb"></circle><circle class="dot" cx="387.2985781990521" cy="170" r="3" fill="#2563eb"></circle><circle class="dot" cx="389.0047393364929" cy="170" r="3" fill="#2563eb"></circle><circle class="dot" cx="390.71090047393363" cy="170" r="3" fill="#2563eb"></circle><circle class="dot" cx="392.4170616113744" cy="170" r="3" fill="#2563eb"></circle><circle class="dot" cx="394.1232227488152" cy="170" r="3" fill="#2563eb"></circle><circle class="dot" cx="395.8293838862559" cy="170" r="3" fill="#2563eb"></circle><circle class="dot" cx="397.53554502369667" cy="170" r="3" fill="#2563eb"></circle><circle class="dot" cx="399.2417061611374" cy="170" r="3" fill="#2563eb"></circle><circle class="dot" cx="400.9478672985782" cy="170" r="3" fill="#2563eb"></circle><circle class="dot" cx="402.65402843601896" cy="170" r="3" fill="#2563eb"></circle><circle class="dot" cx="404.3601895734597" cy="170" r="3" fill="#2563eb"></circle><circle class="dot" cx="406.0663507109005" cy="170" r="3" fill="#2563eb"></circle><circle class="dot" cx="407.77251184834125" cy="170" r="3" fill="#2563eb"></circle><circle class="dot" cx="409.478672985782" cy="170" r="3" fill="#2563eb"></circle><circle class="dot" cx="411.18483412322274" cy="170" r="3" fill="#2563eb"></circle><circle class="dot" cx="412.89099526066354" cy="170" r="3" fill="#2563eb"></circle><circle class="dot" cx="414.5971563981043" cy="170" r="3" fill="#2563eb"></circle><circle class="dot" cx="416.30331753554503" cy="170" r="3" fill="#2563eb"></circle><circle class="dot" cx="418.00947867298584" cy="170" r="3" fill="#2563eb"></circle><circle class="dot" cx="419.7156398104266" cy="170" r="3" fill="#2563eb"></circle><circle class="dot" cx="421.42180094786727" cy="170" r="3" fill="#2563eb"></circle><circle class="dot" cx="423.127962085308" cy="170" r="3" fill="#2563eb"></circle><circle class="dot" cx="424.8341232227489" cy="170" r="3" fill="#2563eb"></circle><circle class="dot" cx="426.54028436018956" cy="170" r="3" fill="#2563eb"></circle><circle class="dot" cx="428.2464454976303" cy="170" r="3" fill="#2563eb"></circle><circle class="dot" cx="429.95260663507105" cy="170" r="3" fill="#2563eb"></circle><circle class="dot" cx="431.65876777251185" cy="170" r="3" fill="#2563eb"></circle><circle class="dot" cx="433.3649289099526" cy="170" r="3" fill="#2563eb"></circle><circle class="dot" cx="435.07109004739334" cy="170" r="3" fill="#2563eb"></circle><circle class="dot" cx="436.77725118483414" cy="170" r="3" fill="#2563eb"></circle><circle class="dot" cx="438.4834123222749" cy="170" r="3" fill="#2563eb"></circle><circle class="dot" cx="440.18957345971563" cy="170" r="3" fill="#2563eb"></circle><circle class="dot" cx="441.8957345971564" cy="170" r="3" fill="#2563eb"></circle><circle class="dot" cx="443.6018957345972" cy="170" r="3" fill="#2563eb"></circle><circle class="dot" cx="445.3080568720379" cy="170" r="3" fill="#2563eb"></circle><circle class="dot" cx="447.01421800947867" cy="170" r="3" fill="#2563eb"></circle><circle class="dot" cx="448.72037914691947" cy="170" r="3" fill="#2563eb"></circle><circle class="dot" cx="450.4265402843602" cy="170" r="3" fill="#2563eb"></circle><circle class="dot" cx="452.13270142180096" cy="170" r="3" fill="#2563eb"></circle><circle class="dot" cx="453.83886255924165" cy="170" r="3" fill="#2563eb"></circle><circle class="dot" cx="455.5450236966825" cy="170" r="3" fill="#2563eb"></circle><circle class="dot" cx="457.25118483412325" cy="170" r="3" fill="#2563eb"></circle><circle class="dot" cx="458.95734597156394" cy="170" r="3" fill="#2563eb"></circle><circle class="dot" cx="460.6635071090047" cy="170" r="3" fill="#2563eb"></circle><circle class="dot" cx="462.36966824644554" cy="170" r="3" fill="#2563eb"></circle><circle class="dot" cx="464.07582938388623" cy="170" r="3" fill="#2563eb"></circle><circle class="dot" cx="465.781990521327" cy="170" r="3" fill="#2563eb"></circle><circle class="dot" cx="467.4881516587678" cy="170" r="3" fill="#2563eb"></circle><circle class="dot" cx="469.1943127962085" cy="170" r="3" fill="#2563eb"></circle><circle class="dot" cx="470.90047393364927" cy="170" r="3" fill="#2563eb"></circle><circle class="dot" cx="472.60663507109" cy="170" r="3" fill="#2563eb"></circle><circle class="dot" cx="474.3127962085308" cy="170" r="3" fill="#2563eb"></circle><circle class="dot" cx="476.01895734597156" cy="170" r="3" fill="#2563eb"></circle><circle class="dot" cx="477.7251184834123" cy="170" r="3" fill="#2563eb"></circle><circle class="dot" cx="479.4312796208531" cy="170" r="3" fill="#2563eb"></circle><circle class="dot" cx="481.13744075829385" cy="170" r="3" fill="#2563eb"></circle><circle class="dot" cx="482.8436018957346" cy="170" r="3" fill="#2563eb"></circle><circle class="dot" cx="484.54976303317534" cy="170" r="3" fill="#2563eb"></circle><circle class="dot" cx="486.25592417061614" cy="170" r="3" fill="#2563eb"></circle><circle class="dot" cx="487.9620853080569" cy="170" r="3" fill="#2563eb"></circle><circle class="dot" cx="489.66824644549763" cy="170" r="3" fill="#2563eb"></circle><circle class="dot" cx="491.37440758293843" cy="170" r="3" fill="#2563eb"></circle><circle class="dot" cx="493.0805687203792" cy="170" r="3" fill="#2563eb"></circle><circle class="dot" cx="494.7867298578199" cy="170" r="3" fill="#2563eb"></circle><circle class="dot" cx="496.4928909952606" cy="170" r="3" fill="#2563eb"></circle><circle class="dot" cx="498.19905213270147" cy="170" r="3" fill="#2563eb"></circle><circle class="dot" cx="499.9052132701422" cy="170" r="3" fill="#2563eb"></circle><circle class="dot" cx="501.6113744075829" cy="170" r="3" fill="#2563eb"></circle><circle class="dot" cx="503.31753554502365" cy="170" r="3" fill="#2563eb"></circle><circle class="dot" cx="505.02369668246445" cy="170" r="3" fill="#2563eb"></circle><circle class="dot" cx="506.7298578199052" cy="170" r="3" fill="#2563eb"></circle><circle class="dot" cx="508.43601895734594" cy="170" r="3" fill="#2563eb"></circle><circle class="dot" cx="510.14218009478674" cy="170" r="3" fill="#2563eb"></circle><circle class="dot" cx="511.8483412322275" cy="170" r="3" fill="#2563eb"></circle><circle class="dot" cx="513.5545023696683" cy="170" r="3" fill="#2563eb"></circle><circle class="dot" cx="515.2606635071089" cy="170" r="3" fill="#2563eb"></circle><circle class="dot" cx="516.9668246445498" cy="170" r="3" fill="#2563eb"></circle><circle class="dot" cx="518.6729857819905" cy="170" r="3" fill="#2563eb"></circle><circle class="dot" cx="520.3791469194313" cy="170" r="3" fill="#2563eb"></circle><circle class="dot" cx="522.0853080568721" cy="170" r="3" fill="#2563eb"></circle><circle class="dot" cx="523.7914691943128" cy="170" r="3" fill="#2563eb"></circle><circle class="dot" cx="525.4976303317535" cy="170" r="3" fill="#2563eb"></circle><circle class="dot" cx="527.2037914691942" cy="170" r="3" fill="#2563eb"></circle><circle class="dot" cx="528.9099526066351" cy="170" r="3" fill="#2563eb"></circle><circle class="dot" cx="530.6161137440758" cy="170" r="3" fill="#2563eb"></circle><circle class="dot" cx="532.3222748815166" cy="170" r="3" fill="#2563eb"></circle><circle class="dot" cx="534.0284360189573" cy="170" r="3" fill="#2563eb"></circle><circle class="dot" cx="535.7345971563981" cy="170" r="3" fill="#2563eb"></circle><circle class="dot" cx="537.4407582938388" cy="170" r="3" fill="#2563eb"></circle><circle class="dot" cx="539.1469194312796" cy="170" r="3" fill="#2563eb"></circle><circle class="dot" cx="540.8530805687204" cy="170" r="3" fill="#2563eb"></circle><circle class="dot" cx="542.5592417061612" cy="170" r="3" fill="#2563eb"></circle><circle class="dot" cx="544.2654028436019" cy="170" r="3" fill="#2563eb"></circle><circle class="dot" cx="545.9715639810427" cy="170" r="3" fill="#2563eb"></circle><circle class="dot" cx="547.6777251184834" cy="170" r="3" fill="#2563eb"></circle><circle class="dot" cx="549.3838862559242" cy="170" r="3" fill="#2563eb"></circle><circle class="dot" cx="551.0900473933649" cy="170" r="3" fill="#2563eb"></circle><circle class="dot" cx="552.7962085308058" cy="170" r="3" fill="#2563eb"></circle><circle class="dot" cx="554.5023696682465" cy="170" r="3" fill="#2563eb"></circle><circle class="dot" cx="556.2085308056872" cy="170" r="3" fill="#2563eb"></circle><circle class="dot" cx="557.9146919431279" cy="170" r="3" fill="#2563eb"></circle><circle class="dot" cx="559.6208530805687" cy="170" r="3" fill="#2563eb"></circle><circle class="dot" cx="561.3270142180095" cy="170" r="3" fill="#2563eb"></circle><circle class="dot" cx="563.0331753554502" cy="170" r="3" fill="#2563eb"></circle><circle class="dot" cx="564.7393364928911" cy="170" r="3" fill="#2563eb"></circle><circle class="dot" cx="566.4454976303317" cy="170" r="3" fill="#2563eb"></circle><circle class="dot" cx="568.1516587677725" cy="170" r="3" fill="#2563eb"></circle><circle class="dot" cx="569.8578199052132" cy="170" r="3" fill="#2563eb"></circle><circle class="dot" cx="571.5639810426541" cy="170" r="3" fill="#2563eb"></circle><circle class="dot" cx="573.2701421800948" cy="170" r="3" fill="#2563eb"></circle><circle class="dot" cx="574.9763033175356" cy="170" r="3" fill="#2563eb"></circle><circle class="dot" cx="576.6824644549763" cy="170" r="3" fill="#2563eb"></circle><circle class="dot" cx="578.388625592417" cy="170" r="3" fill="#2563eb"></circle><circle class="dot" cx="580.0947867298578" cy="170" r="3" fill="#2563eb"></circle><circle class="dot" cx="581.8009478672985" cy="170" r="3" fill="#2563eb"></circle><circle class="dot" cx="583.5071090047394" cy="170" r="3" fill="#2563eb"></circle><circle class="dot" cx="585.2132701421801" cy="170" r="3" fill="#2563eb"></circle><circle class="dot" cx="586.9194312796209" cy="170" r="3" fill="#2563eb"></circle><circle class="dot" cx="588.6255924170616" cy="170" r="3" fill="#2563eb"></circle><circle class="dot" cx="590.3317535545024" cy="170" r="3" fill="#2563eb"></circle><circle class="dot" cx="592.0379146919431" cy="170" r="3" fill="#2563eb"></circle><circle class="dot" cx="593.7440758293839" cy="170" r="3" fill="#2563eb"></circle><circle class="dot" cx="595.4502369668247" cy="170" r="3" fill="#2563eb"></circle><circle class="dot" cx="597.1563981042655" cy="170" r="3" fill="#2563eb"></circle><circle class="dot" cx="598.8625592417061" cy="170" r="3" fill="#2563eb"></circle><circle class="dot" cx="600.5687203791468" cy="170" r="3" fill="#2563eb"></circle><circle class="dot" cx="602.2748815165877" cy="170" r="3" fill="#2563eb"></circle><circle class="dot" cx="603.9810426540284" cy="170" r="3" fill="#2563eb"></circle><circle class="dot" cx="605.6872037914692" cy="170" r="3" fill="#2563eb"></circle><circle class="dot" cx="607.3933649289099" cy="170" r="3" fill="#2563eb"></circle><circle class="dot" cx="609.0995260663507" cy="170" r="3" fill="#2563eb"></circle><circle class="dot" cx="610.8056872037914" cy="170" r="3" fill="#2563eb"></circle><circle class="dot" cx="612.5118483412322" cy="170" r="3" fill="#2563eb"></circle><circle class="dot" cx="614.218009478673" cy="170" r="3" fill="#2563eb"></circle><circle class="dot" cx="615.9241706161138" cy="170" r="3" fill="#2563eb"></circle><circle class="dot" cx="617.6303317535545" cy="170" r="3" fill="#2563eb"></circle><circle class="dot" cx="619.3364928909953" cy="170" r="3" fill="#2563eb"></circle><circle class="dot" cx="621.042654028436" cy="170" r="3" fill="#2563eb"></circle><circle class="dot" cx="622.7488151658767" cy="170" r="3" fill="#2563eb"></circle><circle class="dot" cx="624.4549763033175" cy="170" r="3" fill="#2563eb"></circle><circle class="dot" cx="626.1611374407584" cy="170" r="3" fill="#2563eb"></circle><circle class="dot" cx="627.8672985781991" cy="170" r="3" fill="#2563eb"></circle><circle class="dot" cx="629.5734597156398" cy="170" r="3" fill="#2563eb"></circle><circle class="dot" cx="631.2796208530806" cy="170" r="3" fill="#2563eb"></circle><circle class="dot" cx="632.9857819905213" cy="170" r="3" fill="#2563eb"></circle><circle class="dot" cx="634.6919431279621" cy="170" r="3" fill="#2563eb"></circle><circle class="dot" cx="636.3981042654028" cy="170" r="3" fill="#2563eb"></circle><circle class="dot" cx="638.1042654028437" cy="170" r="3" fill="#2563eb"></circle><circle class="dot" cx="639.8104265402844" cy="170" r="3" fill="#2563eb"></circle><circle class="dot" cx="641.516587677725" cy="170" r="3" fill="#2563eb"></circle><circle class="dot" cx="643.2227488151658" cy="170" r="3" fill="#2563eb"></circle><circle class="dot" cx="644.9289099526067" cy="170" r="3" fill="#2563eb"></circle><circle class="dot" cx="646.6350710900474" cy="170" r="3" fill="#2563eb"></circle><circle class="dot" cx="648.3412322274881" cy="170" r="3" fill="#2563eb"></circle><circle class="dot" cx="650.0473933649289" cy="170" r="3" fill="#2563eb"></circle><circle class="dot" cx="651.7535545023696" cy="170" r="3" fill="#2563eb"></circle><circle class="dot" cx="653.4597156398104" cy="170" r="3" fill="#2563eb"></circle><circle class="dot" cx="655.1658767772511" cy="170" r="3" fill="#2563eb"></circle><circle class="dot" cx="656.872037914692" cy="170" r="3" fill="#2563eb"></circle><circle class="dot" cx="658.5781990521327" cy="170" r="3" fill="#2563eb"></circle><circle class="dot" cx="660.2843601895735" cy="170" r="3" fill="#2563eb"></circle><circle class="dot" cx="661.9905213270142" cy="170" r="3" fill="#2563eb"></circle><circle class="dot" cx="663.696682464455" cy="170" r="3" fill="#2563eb"></circle><circle class="dot" cx="665.4028436018957" cy="170" r="3" fill="#2563eb"></circle><circle class="dot" cx="667.1090047393365" cy="170" r="3" fill="#2563eb"></circle><circle class="dot" cx="668.8151658767773" cy="170" r="3" fill="#2563eb"></circle><circle class="dot" cx="670.5213270142181" cy="170" r="3" fill="#2563eb"></circle><circle class="dot" cx="672.2274881516588" cy="170" r="3" fill="#2563eb"></circle><circle class="dot" cx="673.9336492890994" cy="170" r="3" fill="#2563eb"></circle><circle class="dot" cx="675.6398104265403" cy="170" r="3" fill="#2563eb"></circle><circle class="dot" cx="677.345971563981" cy="170" r="3" fill="#2563eb"></circle><circle class="dot" cx="679.0521327014218" cy="170" r="3" fill="#2563eb"></circle><circle class="dot" cx="680.7582938388626" cy="170" r="3" fill="#2563eb"></circle><circle class="dot" cx="682.4644549763034" cy="170" r="3" fill="#2563eb"></circle><circle class="dot" cx="684.170616113744" cy="170" r="3" fill="#2563eb"></circle><circle class="dot" cx="685.8767772511848" cy="170" r="3" fill="#2563eb"></circle><circle class="dot" cx="687.5829383886256" cy="170" r="3" fill="#2563eb"></circle><circle class="dot" cx="689.2890995260664" cy="170" r="3" fill="#2563eb"></circle><circle class="dot" cx="690.9952606635071" cy="170" r="3" fill="#2563eb"></circle><circle class="dot" cx="692.7014218009479" cy="170" r="3" fill="#2563eb"></circle><circle class="dot" cx="694.4075829383886" cy="170" r="3" fill="#2563eb"></circle><circle class="dot" cx="696.1137440758293" cy="170" r="3" fill="#2563eb"></circle><circle class="dot" cx="697.8199052132701" cy="170" r="3" fill="#2563eb"></circle><circle class="dot" cx="699.526066350711" cy="170" r="3" fill="#2563eb"></circle><circle class="dot" cx="701.2322274881517" cy="170" r="3" fill="#2563eb"></circle><circle class="dot" cx="702.9383886255924" cy="170" r="3" fill="#2563eb"></circle><circle class="dot" cx="704.6445497630332" cy="170" r="3" fill="#2563eb"></circle><circle class="dot" cx="706.3507109004739" cy="170" r="3" fill="#2563eb"></circle><circle class="dot" cx="708.0568720379147" cy="170" r="3" fill="#2563eb"></circle><circle class="dot" cx="709.7630331753554" cy="170" r="3" fill="#2563eb"></circle><circle class="dot" cx="711.4691943127963" cy="170" r="3" fill="#2563eb"></circle><circle class="dot" cx="713.175355450237" cy="170" r="3" fill="#2563eb"></circle><circle class="dot" cx="714.8815165876778" cy="170" r="3" fill="#2563eb"></circle><circle class="dot" cx="716.5876777251184" cy="170" r="3" fill="#2563eb"></circle><circle class="dot" cx="718.2938388625593" cy="170" r="3" fill="#2563eb"></circle><circle class="dot" cx="720" cy="170" r="3" fill="#2563eb"></circle><g class="grid" transform="translate(0,340)" fill="none" font-size="10" font-family="sans-serif" text-anchor="middle" style="stroke-dasharray: 3,3; opacity: 0.3;"><path class="domain" stroke="currentColor" d="M0.5,-340V0.5H720.5V-340"></path><g class="tick" opacity="1" transform="translate(0.5,0)"><line stroke="currentColor" y2="-340"></line><text fill="currentColor" y="3" dy="0.71em"></text></g><g class="tick" opacity="1" transform="translate(41.447867298578196,0)"><line stroke="currentColor" y2="-340"></line><text fill="currentColor" y="3" dy="0.71em"></text></g><g class="tick" opacity="1" transform="translate(82.39573459715639,0)"><line stroke="currentColor" y2="-340"></line><text fill="currentColor" y="3" dy="0.71em"></text></g><g class="tick" opacity="1" transform="translate(123.34360189573461,0)"><line stroke="currentColor" y2="-340"></line><text fill="currentColor" y="3" dy="0.71em"></text></g><g class="tick" opacity="1" transform="translate(164.29146919431278,0)"><line stroke="currentColor" y2="-340"></line><text fill="currentColor" y="3" dy="0.71em"></text></g><g class="tick" opacity="1" transform="translate(205.239336492891,0)"><line stroke="currentColor" y2="-340"></line><text fill="currentColor" y="3" dy="0.71em"></text></g><g class="tick" opacity="1" transform="translate(246.18720379146922,0)"><line stroke="currentColor" y2="-340"></line><text fill="currentColor" y="3" dy="0.71em"></text></g><g class="tick" opacity="1" transform="translate(287.1350710900474,0)"><line stroke="currentColor" y2="-340"></line><text fill="currentColor" y="3" dy="0.71em"></text></g><g class="tick" opacity="1" transform="translate(328.08293838862556,0)"><line stroke="currentColor" y2="-340"></line><text fill="currentColor" y="3" dy="0.71em"></text></g><g class="tick" opacity="1" transform="translate(369.0308056872038,0)"><line stroke="currentColor" y2="-340"></line><text fill="currentColor" y="3" dy="0.71em"></text></g><g class="tick" opacity="1" transform="translate(409.978672985782,0)"><line stroke="currentColor" y2="-340"></line><text fill="currentColor" y="3" dy="0.71em"></text></g><g class="tick" opacity="1" transform="translate(450.9265402843602,0)"><line stroke="currentColor" y2="-340"></line><text fill="currentColor" y="3" dy="0.71em"></text></g><g class="tick" opacity="1" transform="translate(491.87440758293843,0)"><line stroke="currentColor" y2="-340"></line><text fill="currentColor" y="3" dy="0.71em"></text></g><g class="tick" opacity="1" transform="translate(532.8222748815166,0)"><line stroke="currentColor" y2="-340"></line><text fill="currentColor" y="3" dy="0.71em"></text></g><g class="tick" opacity="1" transform="translate(573.7701421800948,0)"><line stroke="currentColor" y2="-340"></line><text fill="currentColor" y="3" dy="0.71em"></text></g><g class="tick" opacity="1" transform="translate(614.718009478673,0)"><line stroke="currentColor" y2="-340"></line><text fill="currentColor" y="3" dy="0.71em"></text></g><g class="tick" opacity="1" transform="translate(655.6658767772511,0)"><line stroke="currentColor" y2="-340"></line><text fill="currentColor" y="3" dy="0.71em"></text></g><g class="tick" opacity="1" transform="translate(696.6137440758293,0)"><line stroke="currentColor" y2="-340"></line><text fill="currentColor" y="3" dy="0.71em"></text></g></g><g class="grid" fill="none" font-size="10" font-family="sans-serif" text-anchor="end" style="stroke-dasharray: 3,3; opacity: 0.3;"><path class="domain" stroke="currentColor" d="M720,340.5H0.5V0.5H720"></path><g class="tick" opacity="1" transform="translate(0,170.5)"><line stroke="currentColor" x2="720"></line><text fill="currentColor" x="-3" dy="0.32em"></text></g></g></g><text x="400" y="10" text-anchor="middle" style="font-size: 16px; font-weight: bold; fill: #333;">OKX USDT Lending Rate - Current Month</text></svg>