<svg width="800" height="400" xmlns="http://www.w3.org/2000/svg"><g transform="translate(50,20)"><g transform="translate(0,340)" fill="none" font-size="10" font-family="sans-serif" text-anchor="middle"><path class="domain" stroke="currentColor" d="M0.5,6V0.5H720.5V6"></path><g class="tick" opacity="1" transform="translate(0.5,0)"><line stroke="currentColor" y2="6"></line><text fill="currentColor" y="9" dy=".15em" style="text-anchor: end;" dx="-.8em" transform="rotate(-45)">09/01</text></g><g class="tick" opacity="1" transform="translate(59.27551020408163,0)"><line stroke="currentColor" y2="6"></line><text fill="currentColor" y="9" dy=".15em" style="text-anchor: end;" dx="-.8em" transform="rotate(-45)">09/02</text></g><g class="tick" opacity="1" transform="translate(118.05102040816325,0)"><line stroke="currentColor" y2="6"></line><text fill="currentColor" y="9" dy=".15em" style="text-anchor: end;" dx="-.8em" transform="rotate(-45)">09/03</text></g><g class="tick" opacity="1" transform="translate(176.82653061224488,0)"><line stroke="currentColor" y2="6"></line><text fill="currentColor" y="9" dy=".15em" style="text-anchor: end;" dx="-.8em" transform="rotate(-45)">09/04</text></g><g class="tick" opacity="1" transform="translate(235.6020408163265,0)"><line stroke="currentColor" y2="6"></line><text fill="currentColor" y="9" dy=".15em" style="text-anchor: end;" dx="-.8em" transform="rotate(-45)">09/05</text></g><g class="tick" opacity="1" transform="translate(294.3775510204082,0)"><line stroke="currentColor" y2="6"></line><text fill="currentColor" y="9" dy=".15em" style="text-anchor: end;" dx="-.8em" transform="rotate(-45)">09/06</text></g><g class="tick" opacity="1" transform="translate(353.15306122448976,0)"><line stroke="currentColor" y2="6"></line><text fill="currentColor" y="9" dy=".15em" style="text-anchor: end;" dx="-.8em" transform="rotate(-45)">09/07</text></g><g class="tick" opacity="1" transform="translate(411.9285714285714,0)"><line stroke="currentColor" y2="6"></line><text fill="currentColor" y="9" dy=".15em" style="text-anchor: end;" dx="-.8em" transform="rotate(-45)">09/08</text></g><g class="tick" opacity="1" transform="translate(470.704081632653,0)"><line stroke="currentColor" y2="6"></line><text fill="currentColor" y="9" dy=".15em" style="text-anchor: end;" dx="-.8em" transform="rotate(-45)">09/09</text></g><g class="tick" opacity="1" transform="translate(529.4795918367347,0)"><line stroke="currentColor" y2="6"></line><text fill="currentColor" y="9" dy=".15em" style="text-anchor: end;" dx="-.8em" transform="rotate(-45)">09/10</text></g><g class="tick" opacity="1" transform="translate(588.2551020408164,0)"><line stroke="currentColor" y2="6"></line><text fill="currentColor" y="9" dy=".15em" style="text-anchor: end;" dx="-.8em" transform="rotate(-45)">09/11</text></g><g class="tick" opacity="1" transform="translate(647.030612244898,0)"><line stroke="currentColor" y2="6"></line><text fill="currentColor" y="9" dy=".15em" style="text-anchor: end;" dx="-.8em" transform="rotate(-45)">09/12</text></g><g class="tick" opacity="1" transform="translate(705.8061224489795,0)"><line stroke="currentColor" y2="6"></line><text fill="currentColor" y="9" dy=".15em" style="text-anchor: end;" dx="-.8em" transform="rotate(-45)">09/13</text></g></g><g fill="none" font-size="10" font-family="sans-serif" text-anchor="end"><path class="domain" stroke="currentColor" d="M-6,340.5H0.5V0.5H-6"></path><g class="tick" opacity="1" transform="translate(0,340.5)"><line stroke="currentColor" x2="-6"></line><text fill="currentColor" x="-9" dy="0.32em">4.00%</text></g><g class="tick" opacity="1" transform="translate(0,309.59090909090907)"><line stroke="currentColor" x2="-6"></line><text fill="currentColor" x="-9" dy="0.32em">6.00%</text></g><g class="tick" opacity="1" transform="translate(0,278.6818181818182)"><line stroke="currentColor" x2="-6"></line><text fill="currentColor" x="-9" dy="0.32em">8.00%</text></g><g class="tick" opacity="1" transform="translate(0,247.77272727272728)"><line stroke="currentColor" x2="-6"></line><text fill="currentColor" x="-9" dy="0.32em">10.00%</text></g><g class="tick" opacity="1" transform="translate(0,216.8636363636364)"><line stroke="currentColor" x2="-6"></line><text fill="currentColor" x="-9" dy="0.32em">12.00%</text></g><g class="tick" opacity="1" transform="translate(0,185.95454545454544)"><line stroke="currentColor" x2="-6"></line><text fill="currentColor" x="-9" dy="0.32em">14.00%</text></g><g class="tick" opacity="1" transform="translate(0,155.04545454545456)"><line stroke="currentColor" x2="-6"></line><text fill="currentColor" x="-9" dy="0.32em">16.00%</text></g><g class="tick" opacity="1" transform="translate(0,124.13636363636368)"><line stroke="currentColor" x2="-6"></line><text fill="currentColor" x="-9" dy="0.32em">18.00%</text></g><g class="tick" opacity="1" transform="translate(0,93.22727272727272)"><line stroke="currentColor" x2="-6"></line><text fill="currentColor" x="-9" dy="0.32em">20.00%</text></g><g class="tick" opacity="1" transform="translate(0,62.31818181818184)"><line stroke="currentColor" x2="-6"></line><text fill="currentColor" x="-9" dy="0.32em">22.00%</text></g><g class="tick" opacity="1" transform="translate(0,31.40909090909092)"><line stroke="currentColor" x2="-6"></line><text fill="currentColor" x="-9" dy="0.32em">24.00%</text></g><g class="tick" opacity="1" transform="translate(0,0.5)"><line stroke="currentColor" x2="-6"></line><text fill="currentColor" x="-9" dy="0.32em">26.00%</text></g></g><text transform="rotate(-90)" y="-50" x="-170" dy="1em" style="text-anchor: middle; font-size: 12px; fill: #666;">Pre Rate (%)</text><text transform="translate(360, 380)" style="text-anchor: middle; font-size: 12px; fill: #666;">Time (UTC)</text><path fill="none" stroke="#2563eb" stroke-width="2" d="M0,340C0.816,340,1.633,340,2.449,340C3.265,340,4.082,340,4.898,340C5.714,340,6.531,340,7.347,340C8.163,340,8.98,340,9.796,340C10.612,340,11.429,340,12.245,340C13.061,340,13.878,340,14.694,340C15.51,340,16.327,340,17.143,340C17.959,340,18.776,288.485,19.592,278.182C20.408,267.879,21.224,262.727,22.041,262.727C22.857,262.727,23.673,283.333,24.49,293.636C25.306,303.939,26.122,324.545,26.939,324.545C27.755,324.545,28.571,319.394,29.388,309.091C30.204,298.788,31.02,262.727,31.837,262.727C32.653,262.727,33.469,293.636,34.286,293.636C35.102,293.636,35.918,293.636,36.735,293.636C37.551,293.636,38.367,293.636,39.184,293.636C40,293.636,40.816,293.636,41.633,293.636C42.449,293.636,43.265,324.545,44.082,324.545C44.898,324.545,45.714,314.242,46.531,309.091C47.347,303.939,48.163,293.636,48.98,293.636C49.796,293.636,50.612,340,51.429,340C52.245,340,53.061,340,53.878,340C54.694,340,55.51,340,56.327,340C57.143,340,57.959,309.091,58.776,309.091C59.592,309.091,60.408,324.545,61.224,324.545C62.041,324.545,62.857,319.394,63.673,309.091C64.49,298.788,65.306,273.03,66.122,262.727C66.939,252.424,67.755,247.273,68.571,247.273C69.388,247.273,70.204,257.576,71.02,262.727C71.837,267.879,72.653,278.182,73.469,278.182C74.286,278.182,75.102,216.364,75.918,216.364C76.735,216.364,77.551,236.97,78.367,247.273C79.184,257.576,80,278.182,80.816,278.182C81.633,278.182,82.449,278.182,83.265,278.182C84.082,278.182,84.898,278.182,85.714,278.182C86.531,278.182,87.347,288.485,88.163,293.636C88.98,298.788,89.796,309.091,90.612,309.091C91.429,309.091,92.245,216.364,93.061,216.364C93.878,216.364,94.694,231.818,95.51,247.273C96.327,262.727,97.143,309.091,97.959,309.091C98.776,309.091,99.592,278.182,100.408,278.182C101.224,278.182,102.041,293.636,102.857,293.636C103.673,293.636,104.49,293.636,105.306,293.636C106.122,293.636,106.939,309.091,107.755,309.091C108.571,309.091,109.388,247.273,110.204,247.273C111.02,247.273,111.837,247.273,112.653,247.273C113.469,247.273,114.286,231.818,115.102,231.818C115.918,231.818,116.735,231.818,117.551,231.818C118.367,231.818,119.184,247.273,120,247.273C120.816,247.273,121.633,231.818,122.449,231.818C123.265,231.818,124.082,231.818,124.898,231.818C125.714,231.818,126.531,255,127.347,262.727C128.163,270.455,128.98,270.455,129.796,278.182C130.612,285.909,131.429,301.364,132.245,309.091C133.061,316.818,133.878,324.545,134.694,324.545C135.51,324.545,136.327,309.091,137.143,309.091C137.959,309.091,138.776,340,139.592,340C140.408,340,141.224,324.545,142.041,324.545C142.857,324.545,143.673,324.545,144.49,324.545C145.306,324.545,146.122,324.545,146.939,324.545C147.755,324.545,148.571,340,149.388,340C150.204,340,151.02,283.333,151.837,262.727C152.653,242.121,153.469,216.364,154.286,216.364C155.102,216.364,155.918,224.091,156.735,231.818C157.551,239.545,158.367,252.424,159.184,262.727C160,273.03,160.816,285.909,161.633,293.636C162.449,301.364,163.265,309.091,164.082,309.091C164.898,309.091,165.714,298.788,166.531,293.636C167.347,288.485,168.163,278.182,168.98,278.182C169.796,278.182,170.612,278.182,171.429,278.182C172.245,278.182,173.061,278.182,173.878,278.182C174.694,278.182,175.51,278.182,176.327,278.182C177.143,278.182,177.959,247.273,178.776,247.273C179.592,247.273,180.408,252.424,181.224,262.727C182.041,273.03,182.857,309.091,183.673,309.091C184.49,309.091,185.306,309.091,186.122,309.091C186.939,309.091,187.755,309.091,188.571,309.091C189.388,309.091,190.204,309.091,191.02,309.091C191.837,309.091,192.653,324.545,193.469,324.545C194.286,324.545,195.102,293.636,195.918,293.636C196.735,293.636,197.551,293.636,198.367,293.636C199.184,293.636,200,278.182,200.816,278.182C201.633,278.182,202.449,293.636,203.265,293.636C204.082,293.636,204.898,293.636,205.714,293.636C206.531,293.636,207.347,301.364,208.163,309.091C208.98,316.818,209.796,340,210.612,340C211.429,340,212.245,340,213.061,340C213.878,340,214.694,340,215.51,340C216.327,340,217.143,340,217.959,340C218.776,340,219.592,340,220.408,340C221.224,340,222.041,340,222.857,340C223.673,340,224.49,340,225.306,340C226.122,340,226.939,340,227.755,340C228.571,340,229.388,340,230.204,340C231.02,340,231.837,340,232.653,340C233.469,340,234.286,340,235.102,340C235.918,340,236.735,340,237.551,340C238.367,340,239.184,340,240,340C240.816,340,241.633,340,242.449,340C243.265,340,244.082,340,244.898,340C245.714,340,246.531,340,247.347,340C248.163,340,248.98,340,249.796,340C250.612,340,251.429,340,252.245,340C253.061,340,253.878,262.727,254.694,262.727C255.51,262.727,256.327,340,257.143,340C257.959,340,258.776,340,259.592,340C260.408,340,261.224,340,262.041,340C262.857,340,263.673,334.848,264.49,324.545C265.306,314.242,266.122,231.818,266.939,231.818C267.755,231.818,268.571,236.97,269.388,247.273C270.204,257.576,271.02,340,271.837,340C272.653,340,273.469,329.697,274.286,324.545C275.102,319.394,275.918,309.091,276.735,309.091C277.551,309.091,278.367,324.545,279.184,324.545C280,324.545,280.816,309.091,281.633,309.091C282.449,309.091,283.265,309.091,284.082,309.091C284.898,309.091,285.714,309.091,286.531,309.091C287.347,309.091,288.163,340,288.98,340C289.796,340,290.612,340,291.429,340C292.245,340,293.061,340,293.878,340C294.694,340,295.51,324.545,296.327,324.545C297.143,324.545,297.959,340,298.776,340C299.592,340,300.408,340,301.224,340C302.041,340,302.857,340,303.673,340C304.49,340,305.306,340,306.122,340C306.939,340,307.755,340,308.571,340C309.388,340,310.204,340,311.02,340C311.837,340,312.653,340,313.469,340C314.286,340,315.102,340,315.918,340C316.735,340,317.551,340,318.367,340C319.184,340,320,340,320.816,340C321.633,340,322.449,340,323.265,340C324.082,340,324.898,340,325.714,340C326.531,340,327.347,340,328.163,340C328.98,340,329.796,340,330.612,340C331.429,340,332.245,340,333.061,340C333.878,340,334.694,340,335.51,340C336.327,340,337.143,340,337.959,340C338.776,340,339.592,340,340.408,340C341.224,340,342.041,340,342.857,340C343.673,340,344.49,340,345.306,340C346.122,340,346.939,340,347.755,340C348.571,340,349.388,340,350.204,340C351.02,340,351.837,340,352.653,340C353.469,340,354.286,340,355.102,340C355.918,340,356.735,340,357.551,340C358.367,340,359.184,340,360,340C360.816,340,361.633,340,362.449,340C363.265,340,364.082,340,364.898,340C365.714,340,366.531,340,367.347,340C368.163,340,368.98,340,369.796,340C370.612,340,371.429,309.091,372.245,309.091C373.061,309.091,373.878,319.394,374.694,324.545C375.51,329.697,376.327,340,377.143,340C377.959,340,378.776,329.697,379.592,324.545C380.408,319.394,381.224,309.091,382.041,309.091C382.857,309.091,383.673,309.091,384.49,309.091C385.306,309.091,386.122,301.364,386.939,293.636C387.755,285.909,388.571,262.727,389.388,262.727C390.204,262.727,391.02,262.727,391.837,262.727C392.653,262.727,393.469,273.03,394.286,278.182C395.102,283.333,395.918,293.636,396.735,293.636C397.551,293.636,398.367,293.636,399.184,293.636C400,293.636,400.816,278.182,401.633,278.182C402.449,278.182,403.265,293.636,404.082,293.636C404.898,293.636,405.714,293.636,406.531,293.636C407.347,293.636,408.163,262.727,408.98,262.727C409.796,262.727,410.612,262.727,411.429,262.727C412.245,262.727,413.061,247.273,413.878,247.273C414.694,247.273,415.51,247.273,416.327,247.273C417.143,247.273,417.959,231.818,418.776,231.818C419.592,231.818,420.408,242.121,421.224,247.273C422.041,252.424,422.857,262.727,423.673,262.727C424.49,262.727,425.306,262.727,426.122,262.727C426.939,262.727,427.755,278.182,428.571,278.182C429.388,278.182,430.204,278.182,431.02,278.182C431.837,278.182,432.653,270.455,433.469,262.727C434.286,255,435.102,239.545,435.918,231.818C436.735,224.091,437.551,216.364,438.367,216.364C439.184,216.364,440,216.364,440.816,216.364C441.633,216.364,442.449,216.364,443.265,216.364C444.082,216.364,444.898,231.818,445.714,231.818C446.531,231.818,447.347,211.212,448.163,200.909C448.98,190.606,449.796,170,450.612,170C451.429,170,452.245,177.727,453.061,185.455C453.878,193.182,454.694,216.364,455.51,216.364C456.327,216.364,457.143,185.455,457.959,185.455C458.776,185.455,459.592,231.818,460.408,231.818C461.224,231.818,462.041,231.818,462.857,231.818C463.673,231.818,464.49,200.909,465.306,200.909C466.122,200.909,466.939,211.212,467.755,216.364C468.571,221.515,469.388,231.818,470.204,231.818C471.02,231.818,471.837,231.818,472.653,231.818C473.469,231.818,474.286,170,475.102,170C475.918,170,476.735,170,477.551,170C478.367,170,479.184,154.545,480,154.545C480.816,154.545,481.633,231.818,482.449,231.818C483.265,231.818,484.082,231.818,484.898,231.818C485.714,231.818,486.531,180.303,487.347,170C488.163,159.697,488.98,154.545,489.796,154.545C490.612,154.545,491.429,154.545,492.245,154.545C493.061,154.545,493.878,154.545,494.694,154.545C495.51,154.545,496.327,164.848,497.143,170C497.959,175.152,498.776,185.455,499.592,185.455C500.408,185.455,501.224,175.152,502.041,170C502.857,164.848,503.673,154.545,504.49,154.545C505.306,154.545,506.122,203.485,506.939,231.818C507.755,260.152,508.571,324.545,509.388,324.545C510.204,324.545,511.02,324.545,511.837,324.545C512.653,324.545,513.469,314.242,514.286,309.091C515.102,303.939,515.918,298.788,516.735,293.636C517.551,288.485,518.367,278.182,519.184,278.182C520,278.182,520.816,278.182,521.633,278.182C522.449,278.182,523.265,293.636,524.082,293.636C524.898,293.636,525.714,278.182,526.531,278.182C527.347,278.182,528.163,278.182,528.98,278.182C529.796,278.182,530.612,309.091,531.429,309.091C532.245,309.091,533.061,301.364,533.878,293.636C534.694,285.909,535.51,262.727,536.327,262.727C537.143,262.727,537.959,262.727,538.776,262.727C539.592,262.727,540.408,273.03,541.224,278.182C542.041,283.333,542.857,293.636,543.673,293.636C544.49,293.636,545.306,221.515,546.122,200.909C546.939,180.303,547.755,170,548.571,170C549.388,170,550.204,200.909,551.02,200.909C551.837,200.909,552.653,200.909,553.469,200.909C554.286,200.909,555.102,206.061,555.918,216.364C556.735,226.667,557.551,324.545,558.367,324.545C559.184,324.545,560,283.333,560.816,262.727C561.633,242.121,562.449,200.909,563.265,200.909C564.082,200.909,564.898,218.939,565.714,231.818C566.531,244.697,567.347,267.879,568.163,278.182C568.98,288.485,569.796,288.485,570.612,293.636C571.429,298.788,572.245,301.364,573.061,309.091C573.878,316.818,574.694,340,575.51,340C576.327,340,577.143,340,577.959,340C578.776,340,579.592,340,580.408,340C581.224,340,582.041,340,582.857,340C583.673,340,584.49,340,585.306,340C586.122,340,586.939,340,587.755,340C588.571,340,589.388,340,590.204,340C591.02,340,591.837,340,592.653,340C593.469,340,594.286,340,595.102,340C595.918,340,596.735,324.545,597.551,324.545C598.367,324.545,599.184,324.545,600,324.545C600.816,324.545,601.633,324.545,602.449,324.545C603.265,324.545,604.082,309.091,604.898,309.091C605.714,309.091,606.531,309.091,607.347,309.091C608.163,309.091,608.98,340,609.796,340C610.612,340,611.429,340,612.245,340C613.061,340,613.878,324.545,614.694,324.545C615.51,324.545,616.327,324.545,617.143,324.545C617.959,324.545,618.776,288.485,619.592,278.182C620.408,267.879,621.224,262.727,622.041,262.727C622.857,262.727,623.673,270.455,624.49,278.182C625.306,285.909,626.122,309.091,626.939,309.091C627.755,309.091,628.571,309.091,629.388,309.091C630.204,309.091,631.02,340,631.837,340C632.653,340,633.469,340,634.286,340C635.102,340,635.918,340,636.735,340C637.551,340,638.367,340,639.184,340C640,340,640.816,340,641.633,340C642.449,340,643.265,332.273,644.082,324.545C644.898,316.818,645.714,311.667,646.531,293.636C647.347,275.606,648.163,216.364,648.98,216.364C649.796,216.364,650.612,247.273,651.429,247.273C652.245,247.273,653.061,231.818,653.878,231.818C654.694,231.818,655.51,231.818,656.327,231.818C657.143,231.818,657.959,226.667,658.776,216.364C659.592,206.061,660.408,190.606,661.224,170C662.041,149.394,662.857,92.727,663.673,92.727C664.49,92.727,665.306,113.333,666.122,123.636C666.939,133.939,667.755,139.091,668.571,154.545C669.388,170,670.204,216.364,671.02,216.364C671.837,216.364,672.653,216.364,673.469,216.364C674.286,216.364,675.102,216.364,675.918,216.364C676.735,216.364,677.551,216.364,678.367,216.364C679.184,216.364,680,216.364,680.816,216.364C681.633,216.364,682.449,200.909,683.265,200.909C684.082,200.909,684.898,231.818,685.714,231.818C686.531,231.818,687.347,224.091,688.163,216.364C688.98,208.636,689.796,195.758,690.612,185.455C691.429,175.152,692.245,170,693.061,154.545C693.878,139.091,694.694,92.727,695.51,92.727C696.327,92.727,697.143,92.727,697.959,92.727C698.776,92.727,699.592,123.636,700.408,123.636C701.224,123.636,702.041,56.667,702.857,46.364C703.673,36.061,704.49,30.909,705.306,30.909C706.122,30.909,706.939,30.909,707.755,30.909C708.571,30.909,709.388,61.818,710.204,61.818C711.02,61.818,711.837,56.667,712.653,46.364C713.469,36.061,714.286,0,715.102,0C715.918,0,716.735,0,717.551,0C718.367,0,719.184,7.727,720,15.455"></path><circle class="dot" cx="0" cy="340" r="3" fill="#2563eb"></circle><circle class="dot" cx="2.4489795918367347" cy="340" r="3" fill="#2563eb"></circle><circle class="dot" cx="4.8979591836734695" cy="340" r="3" fill="#2563eb"></circle><circle class="dot" cx="7.346938775510203" cy="340" r="3" fill="#2563eb"></circle><circle class="dot" cx="9.795918367346939" cy="340" r="3" fill="#2563eb"></circle><circle class="dot" cx="12.244897959183675" cy="340" r="3" fill="#2563eb"></circle><circle class="dot" cx="14.693877551020407" cy="340" r="3" fill="#2563eb"></circle><circle class="dot" cx="17.142857142857142" cy="340" r="3" fill="#2563eb"></circle><circle class="dot" cx="19.591836734693878" cy="278.1818181818182" r="3" fill="#2563eb"></circle><circle class="dot" cx="22.04081632653061" cy="262.72727272727275" r="3" fill="#2563eb"></circle><circle class="dot" cx="24.48979591836735" cy="293.6363636363636" r="3" fill="#2563eb"></circle><circle class="dot" cx="26.93877551020408" cy="324.54545454545456" r="3" fill="#2563eb"></circle><circle class="dot" cx="29.387755102040813" cy="309.09090909090907" r="3" fill="#2563eb"></circle><circle class="dot" cx="31.836734693877553" cy="262.72727272727275" r="3" fill="#2563eb"></circle><circle class="dot" cx="34.285714285714285" cy="293.6363636363636" r="3" fill="#2563eb"></circle><circle class="dot" cx="36.734693877551024" cy="293.6363636363636" r="3" fill="#2563eb"></circle><circle class="dot" cx="39.183673469387756" cy="293.6363636363636" r="3" fill="#2563eb"></circle><circle class="dot" cx="41.63265306122449" cy="293.6363636363636" r="3" fill="#2563eb"></circle><circle class="dot" cx="44.08163265306122" cy="324.54545454545456" r="3" fill="#2563eb"></circle><circle class="dot" cx="46.53061224489796" cy="309.09090909090907" r="3" fill="#2563eb"></circle><circle class="dot" cx="48.9795918367347" cy="293.6363636363636" r="3" fill="#2563eb"></circle><circle class="dot" cx="51.42857142857142" cy="340" r="3" fill="#2563eb"></circle><circle class="dot" cx="53.87755102040816" cy="340" r="3" fill="#2563eb"></circle><circle class="dot" cx="56.3265306122449" cy="340" r="3" fill="#2563eb"></circle><circle class="dot" cx="58.77551020408163" cy="309.09090909090907" r="3" fill="#2563eb"></circle><circle class="dot" cx="61.224489795918366" cy="324.54545454545456" r="3" fill="#2563eb"></circle><circle class="dot" cx="63.673469387755105" cy="309.09090909090907" r="3" fill="#2563eb"></circle><circle class="dot" cx="66.12244897959184" cy="262.72727272727275" r="3" fill="#2563eb"></circle><circle class="dot" cx="68.57142857142857" cy="247.27272727272728" r="3" fill="#2563eb"></circle><circle class="dot" cx="71.0204081632653" cy="262.72727272727275" r="3" fill="#2563eb"></circle><circle class="dot" cx="73.46938775510205" cy="278.1818181818182" r="3" fill="#2563eb"></circle><circle class="dot" cx="75.91836734693878" cy="216.3636363636364" r="3" fill="#2563eb"></circle><circle class="dot" cx="78.36734693877551" cy="247.27272727272728" r="3" fill="#2563eb"></circle><circle class="dot" cx="80.81632653061224" cy="278.1818181818182" r="3" fill="#2563eb"></circle><circle class="dot" cx="83.26530612244898" cy="278.1818181818182" r="3" fill="#2563eb"></circle><circle class="dot" cx="85.71428571428571" cy="278.1818181818182" r="3" fill="#2563eb"></circle><circle class="dot" cx="88.16326530612244" cy="293.6363636363636" r="3" fill="#2563eb"></circle><circle class="dot" cx="90.61224489795919" cy="309.09090909090907" r="3" fill="#2563eb"></circle><circle class="dot" cx="93.06122448979592" cy="216.3636363636364" r="3" fill="#2563eb"></circle><circle class="dot" cx="95.51020408163266" cy="247.27272727272728" r="3" fill="#2563eb"></circle><circle class="dot" cx="97.9591836734694" cy="309.09090909090907" r="3" fill="#2563eb"></circle><circle class="dot" cx="100.40816326530611" cy="278.1818181818182" r="3" fill="#2563eb"></circle><circle class="dot" cx="102.85714285714285" cy="293.6363636363636" r="3" fill="#2563eb"></circle><circle class="dot" cx="105.3061224489796" cy="293.6363636363636" r="3" fill="#2563eb"></circle><circle class="dot" cx="107.75510204081633" cy="309.09090909090907" r="3" fill="#2563eb"></circle><circle class="dot" cx="110.20408163265306" cy="247.27272727272728" r="3" fill="#2563eb"></circle><circle class="dot" cx="112.6530612244898" cy="247.27272727272728" r="3" fill="#2563eb"></circle><circle class="dot" cx="115.10204081632654" cy="231.8181818181818" r="3" fill="#2563eb"></circle><circle class="dot" cx="117.55102040816325" cy="231.8181818181818" r="3" fill="#2563eb"></circle><circle class="dot" cx="120" cy="247.27272727272728" r="3" fill="#2563eb"></circle><circle class="dot" cx="122.44897959183673" cy="231.8181818181818" r="3" fill="#2563eb"></circle><circle class="dot" cx="124.89795918367346" cy="231.8181818181818" r="3" fill="#2563eb"></circle><circle class="dot" cx="127.34693877551021" cy="262.72727272727275" r="3" fill="#2563eb"></circle><circle class="dot" cx="129.79591836734696" cy="278.1818181818182" r="3" fill="#2563eb"></circle><circle class="dot" cx="132.24489795918367" cy="309.09090909090907" r="3" fill="#2563eb"></circle><circle class="dot" cx="134.69387755102042" cy="324.54545454545456" r="3" fill="#2563eb"></circle><circle class="dot" cx="137.14285714285714" cy="309.09090909090907" r="3" fill="#2563eb"></circle><circle class="dot" cx="139.59183673469389" cy="340" r="3" fill="#2563eb"></circle><circle class="dot" cx="142.0408163265306" cy="324.54545454545456" r="3" fill="#2563eb"></circle><circle class="dot" cx="144.48979591836735" cy="324.54545454545456" r="3" fill="#2563eb"></circle><circle class="dot" cx="146.9387755102041" cy="324.54545454545456" r="3" fill="#2563eb"></circle><circle class="dot" cx="149.3877551020408" cy="340" r="3" fill="#2563eb"></circle><circle class="dot" cx="151.83673469387756" cy="262.72727272727275" r="3" fill="#2563eb"></circle><circle class="dot" cx="154.28571428571428" cy="216.3636363636364" r="3" fill="#2563eb"></circle><circle class="dot" cx="156.73469387755102" cy="231.8181818181818" r="3" fill="#2563eb"></circle><circle class="dot" cx="159.18367346938774" cy="262.72727272727275" r="3" fill="#2563eb"></circle><circle class="dot" cx="161.6326530612245" cy="293.6363636363636" r="3" fill="#2563eb"></circle><circle class="dot" cx="164.08163265306123" cy="309.09090909090907" r="3" fill="#2563eb"></circle><circle class="dot" cx="166.53061224489795" cy="293.6363636363636" r="3" fill="#2563eb"></circle><circle class="dot" cx="168.9795918367347" cy="278.1818181818182" r="3" fill="#2563eb"></circle><circle class="dot" cx="171.42857142857142" cy="278.1818181818182" r="3" fill="#2563eb"></circle><circle class="dot" cx="173.87755102040816" cy="278.1818181818182" r="3" fill="#2563eb"></circle><circle class="dot" cx="176.32653061224488" cy="278.1818181818182" r="3" fill="#2563eb"></circle><circle class="dot" cx="178.77551020408163" cy="247.27272727272728" r="3" fill="#2563eb"></circle><circle class="dot" cx="181.22448979591837" cy="262.72727272727275" r="3" fill="#2563eb"></circle><circle class="dot" cx="183.67346938775512" cy="309.09090909090907" r="3" fill="#2563eb"></circle><circle class="dot" cx="186.12244897959184" cy="309.09090909090907" r="3" fill="#2563eb"></circle><circle class="dot" cx="188.57142857142858" cy="309.09090909090907" r="3" fill="#2563eb"></circle><circle class="dot" cx="191.02040816326533" cy="309.09090909090907" r="3" fill="#2563eb"></circle><circle class="dot" cx="193.46938775510205" cy="324.54545454545456" r="3" fill="#2563eb"></circle><circle class="dot" cx="195.9183673469388" cy="293.6363636363636" r="3" fill="#2563eb"></circle><circle class="dot" cx="198.36734693877548" cy="293.6363636363636" r="3" fill="#2563eb"></circle><circle class="dot" cx="200.81632653061223" cy="278.1818181818182" r="3" fill="#2563eb"></circle><circle class="dot" cx="203.26530612244898" cy="293.6363636363636" r="3" fill="#2563eb"></circle><circle class="dot" cx="205.7142857142857" cy="293.6363636363636" r="3" fill="#2563eb"></circle><circle class="dot" cx="208.16326530612244" cy="309.09090909090907" r="3" fill="#2563eb"></circle><circle class="dot" cx="210.6122448979592" cy="340" r="3" fill="#2563eb"></circle><circle class="dot" cx="213.0612244897959" cy="340" r="3" fill="#2563eb"></circle><circle class="dot" cx="215.51020408163265" cy="340" r="3" fill="#2563eb"></circle><circle class="dot" cx="217.9591836734694" cy="340" r="3" fill="#2563eb"></circle><circle class="dot" cx="220.40816326530611" cy="340" r="3" fill="#2563eb"></circle><circle class="dot" cx="222.85714285714286" cy="340" r="3" fill="#2563eb"></circle><circle class="dot" cx="225.3061224489796" cy="340" r="3" fill="#2563eb"></circle><circle class="dot" cx="227.75510204081633" cy="340" r="3" fill="#2563eb"></circle><circle class="dot" cx="230.20408163265307" cy="340" r="3" fill="#2563eb"></circle><circle class="dot" cx="232.65306122448982" cy="340" r="3" fill="#2563eb"></circle><circle class="dot" cx="235.1020408163265" cy="340" r="3" fill="#2563eb"></circle><circle class="dot" cx="237.55102040816325" cy="340" r="3" fill="#2563eb"></circle><circle class="dot" cx="240" cy="340" r="3" fill="#2563eb"></circle><circle class="dot" cx="242.44897959183672" cy="340" r="3" fill="#2563eb"></circle><circle class="dot" cx="244.89795918367346" cy="340" r="3" fill="#2563eb"></circle><circle class="dot" cx="247.3469387755102" cy="340" r="3" fill="#2563eb"></circle><circle class="dot" cx="249.79591836734693" cy="340" r="3" fill="#2563eb"></circle><circle class="dot" cx="252.24489795918367" cy="340" r="3" fill="#2563eb"></circle><circle class="dot" cx="254.69387755102042" cy="262.72727272727275" r="3" fill="#2563eb"></circle><circle class="dot" cx="257.14285714285717" cy="340" r="3" fill="#2563eb"></circle><circle class="dot" cx="259.5918367346939" cy="340" r="3" fill="#2563eb"></circle><circle class="dot" cx="262.0408163265306" cy="340" r="3" fill="#2563eb"></circle><circle class="dot" cx="264.48979591836735" cy="324.54545454545456" r="3" fill="#2563eb"></circle><circle class="dot" cx="266.9387755102041" cy="231.8181818181818" r="3" fill="#2563eb"></circle><circle class="dot" cx="269.38775510204084" cy="247.27272727272728" r="3" fill="#2563eb"></circle><circle class="dot" cx="271.83673469387753" cy="340" r="3" fill="#2563eb"></circle><circle class="dot" cx="274.2857142857143" cy="324.54545454545456" r="3" fill="#2563eb"></circle><circle class="dot" cx="276.734693877551" cy="309.09090909090907" r="3" fill="#2563eb"></circle><circle class="dot" cx="279.18367346938777" cy="324.54545454545456" r="3" fill="#2563eb"></circle><circle class="dot" cx="281.63265306122446" cy="309.09090909090907" r="3" fill="#2563eb"></circle><circle class="dot" cx="284.0816326530612" cy="309.09090909090907" r="3" fill="#2563eb"></circle><circle class="dot" cx="286.53061224489795" cy="309.09090909090907" r="3" fill="#2563eb"></circle><circle class="dot" cx="288.9795918367347" cy="340" r="3" fill="#2563eb"></circle><circle class="dot" cx="291.42857142857144" cy="340" r="3" fill="#2563eb"></circle><circle class="dot" cx="293.8775510204082" cy="340" r="3" fill="#2563eb"></circle><circle class="dot" cx="296.3265306122449" cy="324.54545454545456" r="3" fill="#2563eb"></circle><circle class="dot" cx="298.7755102040816" cy="340" r="3" fill="#2563eb"></circle><circle class="dot" cx="301.2244897959184" cy="340" r="3" fill="#2563eb"></circle><circle class="dot" cx="303.6734693877551" cy="340" r="3" fill="#2563eb"></circle><circle class="dot" cx="306.1224489795918" cy="340" r="3" fill="#2563eb"></circle><circle class="dot" cx="308.57142857142856" cy="340" r="3" fill="#2563eb"></circle><circle class="dot" cx="311.0204081632653" cy="340" r="3" fill="#2563eb"></circle><circle class="dot" cx="313.46938775510205" cy="340" r="3" fill="#2563eb"></circle><circle class="dot" cx="315.9183673469388" cy="340" r="3" fill="#2563eb"></circle><circle class="dot" cx="318.3673469387755" cy="340" r="3" fill="#2563eb"></circle><circle class="dot" cx="320.81632653061223" cy="340" r="3" fill="#2563eb"></circle><circle class="dot" cx="323.265306122449" cy="340" r="3" fill="#2563eb"></circle><circle class="dot" cx="325.7142857142857" cy="340" r="3" fill="#2563eb"></circle><circle class="dot" cx="328.16326530612247" cy="340" r="3" fill="#2563eb"></circle><circle class="dot" cx="330.6122448979592" cy="340" r="3" fill="#2563eb"></circle><circle class="dot" cx="333.0612244897959" cy="340" r="3" fill="#2563eb"></circle><circle class="dot" cx="335.51020408163265" cy="340" r="3" fill="#2563eb"></circle><circle class="dot" cx="337.9591836734694" cy="340" r="3" fill="#2563eb"></circle><circle class="dot" cx="340.40816326530614" cy="340" r="3" fill="#2563eb"></circle><circle class="dot" cx="342.85714285714283" cy="340" r="3" fill="#2563eb"></circle><circle class="dot" cx="345.3061224489796" cy="340" r="3" fill="#2563eb"></circle><circle class="dot" cx="347.7551020408163" cy="340" r="3" fill="#2563eb"></circle><circle class="dot" cx="350.2040816326531" cy="340" r="3" fill="#2563eb"></circle><circle class="dot" cx="352.65306122448976" cy="340" r="3" fill="#2563eb"></circle><circle class="dot" cx="355.1020408163265" cy="340" r="3" fill="#2563eb"></circle><circle class="dot" cx="357.55102040816325" cy="340" r="3" fill="#2563eb"></circle><circle class="dot" cx="360" cy="340" r="3" fill="#2563eb"></circle><circle class="dot" cx="362.44897959183675" cy="340" r="3" fill="#2563eb"></circle><circle class="dot" cx="364.8979591836735" cy="340" r="3" fill="#2563eb"></circle><circle class="dot" cx="367.34693877551024" cy="340" r="3" fill="#2563eb"></circle><circle class="dot" cx="369.7959183673469" cy="340" r="3" fill="#2563eb"></circle><circle class="dot" cx="372.2448979591837" cy="309.09090909090907" r="3" fill="#2563eb"></circle><circle class="dot" cx="374.6938775510204" cy="324.54545454545456" r="3" fill="#2563eb"></circle><circle class="dot" cx="377.14285714285717" cy="340" r="3" fill="#2563eb"></circle><circle class="dot" cx="379.5918367346939" cy="324.54545454545456" r="3" fill="#2563eb"></circle><circle class="dot" cx="382.04081632653066" cy="309.09090909090907" r="3" fill="#2563eb"></circle><circle class="dot" cx="384.48979591836735" cy="309.09090909090907" r="3" fill="#2563eb"></circle><circle class="dot" cx="386.9387755102041" cy="293.6363636363636" r="3" fill="#2563eb"></circle><circle class="dot" cx="389.38775510204084" cy="262.72727272727275" r="3" fill="#2563eb"></circle><circle class="dot" cx="391.8367346938776" cy="262.72727272727275" r="3" fill="#2563eb"></circle><circle class="dot" cx="394.28571428571433" cy="278.1818181818182" r="3" fill="#2563eb"></circle><circle class="dot" cx="396.73469387755097" cy="293.6363636363636" r="3" fill="#2563eb"></circle><circle class="dot" cx="399.1836734693877" cy="293.6363636363636" r="3" fill="#2563eb"></circle><circle class="dot" cx="401.63265306122446" cy="278.1818181818182" r="3" fill="#2563eb"></circle><circle class="dot" cx="404.0816326530612" cy="293.6363636363636" r="3" fill="#2563eb"></circle><circle class="dot" cx="406.53061224489795" cy="293.6363636363636" r="3" fill="#2563eb"></circle><circle class="dot" cx="408.97959183673464" cy="262.72727272727275" r="3" fill="#2563eb"></circle><circle class="dot" cx="411.4285714285714" cy="262.72727272727275" r="3" fill="#2563eb"></circle><circle class="dot" cx="413.87755102040813" cy="247.27272727272728" r="3" fill="#2563eb"></circle><circle class="dot" cx="416.3265306122449" cy="247.27272727272728" r="3" fill="#2563eb"></circle><circle class="dot" cx="418.7755102040816" cy="231.8181818181818" r="3" fill="#2563eb"></circle><circle class="dot" cx="421.2244897959184" cy="247.27272727272728" r="3" fill="#2563eb"></circle><circle class="dot" cx="423.6734693877551" cy="262.72727272727275" r="3" fill="#2563eb"></circle><circle class="dot" cx="426.1224489795918" cy="262.72727272727275" r="3" fill="#2563eb"></circle><circle class="dot" cx="428.57142857142856" cy="278.1818181818182" r="3" fill="#2563eb"></circle><circle class="dot" cx="431.0204081632653" cy="278.1818181818182" r="3" fill="#2563eb"></circle><circle class="dot" cx="433.46938775510205" cy="262.72727272727275" r="3" fill="#2563eb"></circle><circle class="dot" cx="435.9183673469388" cy="231.8181818181818" r="3" fill="#2563eb"></circle><circle class="dot" cx="438.36734693877554" cy="216.3636363636364" r="3" fill="#2563eb"></circle><circle class="dot" cx="440.81632653061223" cy="216.3636363636364" r="3" fill="#2563eb"></circle><circle class="dot" cx="443.265306122449" cy="216.3636363636364" r="3" fill="#2563eb"></circle><circle class="dot" cx="445.7142857142857" cy="231.8181818181818" r="3" fill="#2563eb"></circle><circle class="dot" cx="448.16326530612247" cy="200.9090909090909" r="3" fill="#2563eb"></circle><circle class="dot" cx="450.6122448979592" cy="170" r="3" fill="#2563eb"></circle><circle class="dot" cx="453.06122448979596" cy="185.45454545454544" r="3" fill="#2563eb"></circle><circle class="dot" cx="455.51020408163265" cy="216.3636363636364" r="3" fill="#2563eb"></circle><circle class="dot" cx="457.9591836734694" cy="185.45454545454544" r="3" fill="#2563eb"></circle><circle class="dot" cx="460.40816326530614" cy="231.8181818181818" r="3" fill="#2563eb"></circle><circle class="dot" cx="462.8571428571429" cy="231.8181818181818" r="3" fill="#2563eb"></circle><circle class="dot" cx="465.30612244897964" cy="200.9090909090909" r="3" fill="#2563eb"></circle><circle class="dot" cx="467.7551020408164" cy="216.3636363636364" r="3" fill="#2563eb"></circle><circle class="dot" cx="470.204081632653" cy="231.8181818181818" r="3" fill="#2563eb"></circle><circle class="dot" cx="472.65306122448976" cy="231.8181818181818" r="3" fill="#2563eb"></circle><circle class="dot" cx="475.1020408163265" cy="170" r="3" fill="#2563eb"></circle><circle class="dot" cx="477.55102040816325" cy="170" r="3" fill="#2563eb"></circle><circle class="dot" cx="480" cy="154.54545454545456" r="3" fill="#2563eb"></circle><circle class="dot" cx="482.4489795918367" cy="231.8181818181818" r="3" fill="#2563eb"></circle><circle class="dot" cx="484.89795918367344" cy="231.8181818181818" r="3" fill="#2563eb"></circle><circle class="dot" cx="487.3469387755102" cy="170" r="3" fill="#2563eb"></circle><circle class="dot" cx="489.7959183673469" cy="154.54545454545456" r="3" fill="#2563eb"></circle><circle class="dot" cx="492.2448979591837" cy="154.54545454545456" r="3" fill="#2563eb"></circle><circle class="dot" cx="494.6938775510204" cy="154.54545454545456" r="3" fill="#2563eb"></circle><circle class="dot" cx="497.1428571428571" cy="170" r="3" fill="#2563eb"></circle><circle class="dot" cx="499.59183673469386" cy="185.45454545454544" r="3" fill="#2563eb"></circle><circle class="dot" cx="502.0408163265306" cy="170" r="3" fill="#2563eb"></circle><circle class="dot" cx="504.48979591836735" cy="154.54545454545456" r="3" fill="#2563eb"></circle><circle class="dot" cx="506.9387755102041" cy="231.8181818181818" r="3" fill="#2563eb"></circle><circle class="dot" cx="509.38775510204084" cy="324.54545454545456" r="3" fill="#2563eb"></circle><circle class="dot" cx="511.8367346938776" cy="324.54545454545456" r="3" fill="#2563eb"></circle><circle class="dot" cx="514.2857142857143" cy="309.09090909090907" r="3" fill="#2563eb"></circle><circle class="dot" cx="516.7346938775511" cy="293.6363636363636" r="3" fill="#2563eb"></circle><circle class="dot" cx="519.1836734693878" cy="278.1818181818182" r="3" fill="#2563eb"></circle><circle class="dot" cx="521.6326530612245" cy="278.1818181818182" r="3" fill="#2563eb"></circle><circle class="dot" cx="524.0816326530612" cy="293.6363636363636" r="3" fill="#2563eb"></circle><circle class="dot" cx="526.530612244898" cy="278.1818181818182" r="3" fill="#2563eb"></circle><circle class="dot" cx="528.9795918367347" cy="278.1818181818182" r="3" fill="#2563eb"></circle><circle class="dot" cx="531.4285714285714" cy="309.09090909090907" r="3" fill="#2563eb"></circle><circle class="dot" cx="533.8775510204082" cy="293.6363636363636" r="3" fill="#2563eb"></circle><circle class="dot" cx="536.3265306122449" cy="262.72727272727275" r="3" fill="#2563eb"></circle><circle class="dot" cx="538.7755102040817" cy="262.72727272727275" r="3" fill="#2563eb"></circle><circle class="dot" cx="541.2244897959183" cy="278.1818181818182" r="3" fill="#2563eb"></circle><circle class="dot" cx="543.6734693877551" cy="293.6363636363636" r="3" fill="#2563eb"></circle><circle class="dot" cx="546.1224489795918" cy="200.9090909090909" r="3" fill="#2563eb"></circle><circle class="dot" cx="548.5714285714286" cy="170" r="3" fill="#2563eb"></circle><circle class="dot" cx="551.0204081632653" cy="200.9090909090909" r="3" fill="#2563eb"></circle><circle class="dot" cx="553.469387755102" cy="200.9090909090909" r="3" fill="#2563eb"></circle><circle class="dot" cx="555.9183673469388" cy="216.3636363636364" r="3" fill="#2563eb"></circle><circle class="dot" cx="558.3673469387755" cy="324.54545454545456" r="3" fill="#2563eb"></circle><circle class="dot" cx="560.8163265306122" cy="262.72727272727275" r="3" fill="#2563eb"></circle><circle class="dot" cx="563.2653061224489" cy="200.9090909090909" r="3" fill="#2563eb"></circle><circle class="dot" cx="565.7142857142857" cy="231.8181818181818" r="3" fill="#2563eb"></circle><circle class="dot" cx="568.1632653061224" cy="278.1818181818182" r="3" fill="#2563eb"></circle><circle class="dot" cx="570.6122448979592" cy="293.6363636363636" r="3" fill="#2563eb"></circle><circle class="dot" cx="573.0612244897959" cy="309.09090909090907" r="3" fill="#2563eb"></circle><circle class="dot" cx="575.5102040816327" cy="340" r="3" fill="#2563eb"></circle><circle class="dot" cx="577.9591836734694" cy="340" r="3" fill="#2563eb"></circle><circle class="dot" cx="580.4081632653061" cy="340" r="3" fill="#2563eb"></circle><circle class="dot" cx="582.8571428571429" cy="340" r="3" fill="#2563eb"></circle><circle class="dot" cx="585.3061224489796" cy="340" r="3" fill="#2563eb"></circle><circle class="dot" cx="587.7551020408164" cy="340" r="3" fill="#2563eb"></circle><circle class="dot" cx="590.2040816326531" cy="340" r="3" fill="#2563eb"></circle><circle class="dot" cx="592.6530612244898" cy="340" r="3" fill="#2563eb"></circle><circle class="dot" cx="595.1020408163265" cy="340" r="3" fill="#2563eb"></circle><circle class="dot" cx="597.5510204081633" cy="324.54545454545456" r="3" fill="#2563eb"></circle><circle class="dot" cx="600" cy="324.54545454545456" r="3" fill="#2563eb"></circle><circle class="dot" cx="602.4489795918367" cy="324.54545454545456" r="3" fill="#2563eb"></circle><circle class="dot" cx="604.8979591836735" cy="309.09090909090907" r="3" fill="#2563eb"></circle><circle class="dot" cx="607.3469387755102" cy="309.09090909090907" r="3" fill="#2563eb"></circle><circle class="dot" cx="609.795918367347" cy="340" r="3" fill="#2563eb"></circle><circle class="dot" cx="612.2448979591836" cy="340" r="3" fill="#2563eb"></circle><circle class="dot" cx="614.6938775510204" cy="324.54545454545456" r="3" fill="#2563eb"></circle><circle class="dot" cx="617.1428571428571" cy="324.54545454545456" r="3" fill="#2563eb"></circle><circle class="dot" cx="619.5918367346939" cy="278.1818181818182" r="3" fill="#2563eb"></circle><circle class="dot" cx="622.0408163265306" cy="262.72727272727275" r="3" fill="#2563eb"></circle><circle class="dot" cx="624.4897959183673" cy="278.1818181818182" r="3" fill="#2563eb"></circle><circle class="dot" cx="626.9387755102041" cy="309.09090909090907" r="3" fill="#2563eb"></circle><circle class="dot" cx="629.3877551020408" cy="309.09090909090907" r="3" fill="#2563eb"></circle><circle class="dot" cx="631.8367346938776" cy="340" r="3" fill="#2563eb"></circle><circle class="dot" cx="634.2857142857142" cy="340" r="3" fill="#2563eb"></circle><circle class="dot" cx="636.734693877551" cy="340" r="3" fill="#2563eb"></circle><circle class="dot" cx="639.1836734693877" cy="340" r="3" fill="#2563eb"></circle><circle class="dot" cx="641.6326530612245" cy="340" r="3" fill="#2563eb"></circle><circle class="dot" cx="644.0816326530612" cy="324.54545454545456" r="3" fill="#2563eb"></circle><circle class="dot" cx="646.530612244898" cy="293.6363636363636" r="3" fill="#2563eb"></circle><circle class="dot" cx="648.9795918367347" cy="216.3636363636364" r="3" fill="#2563eb"></circle><circle class="dot" cx="651.4285714285714" cy="247.27272727272728" r="3" fill="#2563eb"></circle><circle class="dot" cx="653.8775510204082" cy="231.8181818181818" r="3" fill="#2563eb"></circle><circle class="dot" cx="656.3265306122449" cy="231.8181818181818" r="3" fill="#2563eb"></circle><circle class="dot" cx="658.7755102040817" cy="216.3636363636364" r="3" fill="#2563eb"></circle><circle class="dot" cx="661.2244897959184" cy="170" r="3" fill="#2563eb"></circle><circle class="dot" cx="663.6734693877552" cy="92.72727272727272" r="3" fill="#2563eb"></circle><circle class="dot" cx="666.1224489795918" cy="123.63636363636368" r="3" fill="#2563eb"></circle><circle class="dot" cx="668.5714285714286" cy="154.54545454545456" r="3" fill="#2563eb"></circle><circle class="dot" cx="671.0204081632653" cy="216.3636363636364" r="3" fill="#2563eb"></circle><circle class="dot" cx="673.469387755102" cy="216.3636363636364" r="3" fill="#2563eb"></circle><circle class="dot" cx="675.9183673469388" cy="216.3636363636364" r="3" fill="#2563eb"></circle><circle class="dot" cx="678.3673469387755" cy="216.3636363636364" r="3" fill="#2563eb"></circle><circle class="dot" cx="680.8163265306123" cy="216.3636363636364" r="3" fill="#2563eb"></circle><circle class="dot" cx="683.265306122449" cy="200.9090909090909" r="3" fill="#2563eb"></circle><circle class="dot" cx="685.7142857142857" cy="231.8181818181818" r="3" fill="#2563eb"></circle><circle class="dot" cx="688.1632653061224" cy="216.3636363636364" r="3" fill="#2563eb"></circle><circle class="dot" cx="690.6122448979592" cy="185.45454545454544" r="3" fill="#2563eb"></circle><circle class="dot" cx="693.0612244897959" cy="154.54545454545456" r="3" fill="#2563eb"></circle><circle class="dot" cx="695.5102040816327" cy="92.72727272727272" r="3" fill="#2563eb"></circle><circle class="dot" cx="697.9591836734694" cy="92.72727272727272" r="3" fill="#2563eb"></circle><circle class="dot" cx="700.4081632653061" cy="123.63636363636368" r="3" fill="#2563eb"></circle><circle class="dot" cx="702.8571428571429" cy="46.36363636363636" r="3" fill="#2563eb"></circle><circle class="dot" cx="705.3061224489795" cy="30.90909090909092" r="3" fill="#2563eb"></circle><circle class="dot" cx="707.7551020408163" cy="30.90909090909092" r="3" fill="#2563eb"></circle><circle class="dot" cx="710.204081632653" cy="61.81818181818184" r="3" fill="#2563eb"></circle><circle class="dot" cx="712.6530612244898" cy="46.36363636363636" r="3" fill="#2563eb"></circle><circle class="dot" cx="715.1020408163265" cy="0" r="3" fill="#2563eb"></circle><circle class="dot" cx="717.5510204081633" cy="0" r="3" fill="#2563eb"></circle><circle class="dot" cx="720" cy="15.454545454545478" r="3" fill="#2563eb"></circle><g class="grid" transform="translate(0,340)" fill="none" font-size="10" font-family="sans-serif" text-anchor="middle" style="stroke-dasharray: 3,3; opacity: 0.3;"><path class="domain" stroke="currentColor" d="M0.5,-340V0.5H720.5V-340"></path><g class="tick" opacity="1" transform="translate(0.5,0)"><line stroke="currentColor" y2="-340"></line><text fill="currentColor" y="3" dy="0.71em"></text></g><g class="tick" opacity="1" transform="translate(59.27551020408163,0)"><line stroke="currentColor" y2="-340"></line><text fill="currentColor" y="3" dy="0.71em"></text></g><g class="tick" opacity="1" transform="translate(118.05102040816325,0)"><line stroke="currentColor" y2="-340"></line><text fill="currentColor" y="3" dy="0.71em"></text></g><g class="tick" opacity="1" transform="translate(176.82653061224488,0)"><line stroke="currentColor" y2="-340"></line><text fill="currentColor" y="3" dy="0.71em"></text></g><g class="tick" opacity="1" transform="translate(235.6020408163265,0)"><line stroke="currentColor" y2="-340"></line><text fill="currentColor" y="3" dy="0.71em"></text></g><g class="tick" opacity="1" transform="translate(294.3775510204082,0)"><line stroke="currentColor" y2="-340"></line><text fill="currentColor" y="3" dy="0.71em"></text></g><g class="tick" opacity="1" transform="translate(353.15306122448976,0)"><line stroke="currentColor" y2="-340"></line><text fill="currentColor" y="3" dy="0.71em"></text></g><g class="tick" opacity="1" transform="translate(411.9285714285714,0)"><line stroke="currentColor" y2="-340"></line><text fill="currentColor" y="3" dy="0.71em"></text></g><g class="tick" opacity="1" transform="translate(470.704081632653,0)"><line stroke="currentColor" y2="-340"></line><text fill="currentColor" y="3" dy="0.71em"></text></g><g class="tick" opacity="1" transform="translate(529.4795918367347,0)"><line stroke="currentColor" y2="-340"></line><text fill="currentColor" y="3" dy="0.71em"></text></g><g class="tick" opacity="1" transform="translate(588.2551020408164,0)"><line stroke="currentColor" y2="-340"></line><text fill="currentColor" y="3" dy="0.71em"></text></g><g class="tick" opacity="1" transform="translate(647.030612244898,0)"><line stroke="currentColor" y2="-340"></line><text fill="currentColor" y="3" dy="0.71em"></text></g><g class="tick" opacity="1" transform="translate(705.8061224489795,0)"><line stroke="currentColor" y2="-340"></line><text fill="currentColor" y="3" dy="0.71em"></text></g></g><g class="grid" fill="none" font-size="10" font-family="sans-serif" text-anchor="end" style="stroke-dasharray: 3,3; opacity: 0.3;"><path class="domain" stroke="currentColor" d="M720,340.5H0.5V0.5H720"></path><g class="tick" opacity="1" transform="translate(0,340.5)"><line stroke="currentColor" x2="720"></line><text fill="currentColor" x="-3" dy="0.32em"></text></g><g class="tick" opacity="1" transform="translate(0,309.59090909090907)"><line stroke="currentColor" x2="720"></line><text fill="currentColor" x="-3" dy="0.32em"></text></g><g class="tick" opacity="1" transform="translate(0,278.6818181818182)"><line stroke="currentColor" x2="720"></line><text fill="currentColor" x="-3" dy="0.32em"></text></g><g class="tick" opacity="1" transform="translate(0,247.77272727272728)"><line stroke="currentColor" x2="720"></line><text fill="currentColor" x="-3" dy="0.32em"></text></g><g class="tick" opacity="1" transform="translate(0,216.8636363636364)"><line stroke="currentColor" x2="720"></line><text fill="currentColor" x="-3" dy="0.32em"></text></g><g class="tick" opacity="1" transform="translate(0,185.95454545454544)"><line stroke="currentColor" x2="720"></line><text fill="currentColor" x="-3" dy="0.32em"></text></g><g class="tick" opacity="1" transform="translate(0,155.04545454545456)"><line stroke="currentColor" x2="720"></line><text fill="currentColor" x="-3" dy="0.32em"></text></g><g class="tick" opacity="1" transform="translate(0,124.13636363636368)"><line stroke="currentColor" x2="720"></line><text fill="currentColor" x="-3" dy="0.32em"></text></g><g class="tick" opacity="1" transform="translate(0,93.22727272727272)"><line stroke="currentColor" x2="720"></line><text fill="currentColor" x="-3" dy="0.32em"></text></g><g class="tick" opacity="1" transform="translate(0,62.31818181818184)"><line stroke="currentColor" x2="720"></line><text fill="currentColor" x="-3" dy="0.32em"></text></g><g class="tick" opacity="1" transform="translate(0,31.40909090909092)"><line stroke="currentColor" x2="720"></line><text fill="currentColor" x="-3" dy="0.32em"></text></g><g class="tick" opacity="1" transform="translate(0,0.5)"><line stroke="currentColor" x2="720"></line><text fill="currentColor" x="-3" dy="0.32em"></text></g></g></g><text x="400" y="10" text-anchor="middle" style="font-size: 16px; font-weight: bold; fill: #333;">OKX USDT Lending Rate - Current Month</text></svg>