<svg width="800" height="400" xmlns="http://www.w3.org/2000/svg"><g transform="translate(50,20)"><g transform="translate(0,340)" fill="none" font-size="10" font-family="sans-serif" text-anchor="middle"><path class="domain" stroke="currentColor" d="M0.5,6V0.5H720.5V6"></path><g class="tick" opacity="1" transform="translate(0.5,0)"><line stroke="currentColor" y2="6"></line><text fill="currentColor" y="9" dy=".15em" style="text-anchor: end;" dx="-.8em" transform="rotate(-45)">02/01</text></g><g class="tick" opacity="1" transform="translate(35.12925851703407,0)"><line stroke="currentColor" y2="6"></line><text fill="currentColor" y="9" dy=".15em" style="text-anchor: end;" dx="-.8em" transform="rotate(-45)">02/02</text></g><g class="tick" opacity="1" transform="translate(69.75851703406813,0)"><line stroke="currentColor" y2="6"></line><text fill="currentColor" y="9" dy=".15em" style="text-anchor: end;" dx="-.8em" transform="rotate(-45)">02/03</text></g><g class="tick" opacity="1" transform="translate(104.38777555110221,0)"><line stroke="currentColor" y2="6"></line><text fill="currentColor" y="9" dy=".15em" style="text-anchor: end;" dx="-.8em" transform="rotate(-45)">02/04</text></g><g class="tick" opacity="1" transform="translate(139.01703406813627,0)"><line stroke="currentColor" y2="6"></line><text fill="currentColor" y="9" dy=".15em" style="text-anchor: end;" dx="-.8em" transform="rotate(-45)">02/05</text></g><g class="tick" opacity="1" transform="translate(173.64629258517033,0)"><line stroke="currentColor" y2="6"></line><text fill="currentColor" y="9" dy=".15em" style="text-anchor: end;" dx="-.8em" transform="rotate(-45)">02/06</text></g><g class="tick" opacity="1" transform="translate(208.27555110220442,0)"><line stroke="currentColor" y2="6"></line><text fill="currentColor" y="9" dy=".15em" style="text-anchor: end;" dx="-.8em" transform="rotate(-45)">02/07</text></g><g class="tick" opacity="1" transform="translate(242.90480961923848,0)"><line stroke="currentColor" y2="6"></line><text fill="currentColor" y="9" dy=".15em" style="text-anchor: end;" dx="-.8em" transform="rotate(-45)">02/08</text></g><g class="tick" opacity="1" transform="translate(277.53406813627254,0)"><line stroke="currentColor" y2="6"></line><text fill="currentColor" y="9" dy=".15em" style="text-anchor: end;" dx="-.8em" transform="rotate(-45)">02/09</text></g><g class="tick" opacity="1" transform="translate(312.1633266533066,0)"><line stroke="currentColor" y2="6"></line><text fill="currentColor" y="9" dy=".15em" style="text-anchor: end;" dx="-.8em" transform="rotate(-45)">02/10</text></g><g class="tick" opacity="1" transform="translate(346.79258517034066,0)"><line stroke="currentColor" y2="6"></line><text fill="currentColor" y="9" dy=".15em" style="text-anchor: end;" dx="-.8em" transform="rotate(-45)">02/11</text></g><g class="tick" opacity="1" transform="translate(381.42184368737475,0)"><line stroke="currentColor" y2="6"></line><text fill="currentColor" y="9" dy=".15em" style="text-anchor: end;" dx="-.8em" transform="rotate(-45)">02/12</text></g><g class="tick" opacity="1" transform="translate(416.05110220440883,0)"><line stroke="currentColor" y2="6"></line><text fill="currentColor" y="9" dy=".15em" style="text-anchor: end;" dx="-.8em" transform="rotate(-45)">02/13</text></g><g class="tick" opacity="1" transform="translate(450.68036072144287,0)"><line stroke="currentColor" y2="6"></line><text fill="currentColor" y="9" dy=".15em" style="text-anchor: end;" dx="-.8em" transform="rotate(-45)">02/14</text></g><g class="tick" opacity="1" transform="translate(485.30961923847696,0)"><line stroke="currentColor" y2="6"></line><text fill="currentColor" y="9" dy=".15em" style="text-anchor: end;" dx="-.8em" transform="rotate(-45)">02/15</text></g><g class="tick" opacity="1" transform="translate(519.938877755511,0)"><line stroke="currentColor" y2="6"></line><text fill="currentColor" y="9" dy=".15em" style="text-anchor: end;" dx="-.8em" transform="rotate(-45)">02/16</text></g><g class="tick" opacity="1" transform="translate(554.5681362725451,0)"><line stroke="currentColor" y2="6"></line><text fill="currentColor" y="9" dy=".15em" style="text-anchor: end;" dx="-.8em" transform="rotate(-45)">02/17</text></g><g class="tick" opacity="1" transform="translate(589.1973947895792,0)"><line stroke="currentColor" y2="6"></line><text fill="currentColor" y="9" dy=".15em" style="text-anchor: end;" dx="-.8em" transform="rotate(-45)">02/18</text></g><g class="tick" opacity="1" transform="translate(623.8266533066133,0)"><line stroke="currentColor" y2="6"></line><text fill="currentColor" y="9" dy=".15em" style="text-anchor: end;" dx="-.8em" transform="rotate(-45)">02/19</text></g><g class="tick" opacity="1" transform="translate(658.4559118236473,0)"><line stroke="currentColor" y2="6"></line><text fill="currentColor" y="9" dy=".15em" style="text-anchor: end;" dx="-.8em" transform="rotate(-45)">02/20</text></g><g class="tick" opacity="1" transform="translate(693.0851703406813,0)"><line stroke="currentColor" y2="6"></line><text fill="currentColor" y="9" dy=".15em" style="text-anchor: end;" dx="-.8em" transform="rotate(-45)">02/21</text></g></g><g fill="none" font-size="10" font-family="sans-serif" text-anchor="end"><path class="domain" stroke="currentColor" d="M-6,340.5H0.5V0.5H-6"></path><g class="tick" opacity="1" transform="translate(0,340.5)"><line stroke="currentColor" x2="-6"></line><text fill="currentColor" x="-9" dy="0.32em">3.00%</text></g><g class="tick" opacity="1" transform="translate(0,297.99999999999994)"><line stroke="currentColor" x2="-6"></line><text fill="currentColor" x="-9" dy="0.32em">3.10%</text></g><g class="tick" opacity="1" transform="translate(0,255.49999999999991)"><line stroke="currentColor" x2="-6"></line><text fill="currentColor" x="-9" dy="0.32em">3.20%</text></g><g class="tick" opacity="1" transform="translate(0,212.9999999999999)"><line stroke="currentColor" x2="-6"></line><text fill="currentColor" x="-9" dy="0.32em">3.30%</text></g><g class="tick" opacity="1" transform="translate(0,170.49999999999986)"><line stroke="currentColor" x2="-6"></line><text fill="currentColor" x="-9" dy="0.32em">3.40%</text></g><g class="tick" opacity="1" transform="translate(0,127.99999999999982)"><line stroke="currentColor" x2="-6"></line><text fill="currentColor" x="-9" dy="0.32em">3.50%</text></g><g class="tick" opacity="1" transform="translate(0,85.50000000000007)"><line stroke="currentColor" x2="-6"></line><text fill="currentColor" x="-9" dy="0.32em">3.60%</text></g><g class="tick" opacity="1" transform="translate(0,43.000000000000036)"><line stroke="currentColor" x2="-6"></line><text fill="currentColor" x="-9" dy="0.32em">3.70%</text></g><g class="tick" opacity="1" transform="translate(0,0.5)"><line stroke="currentColor" x2="-6"></line><text fill="currentColor" x="-9" dy="0.32em">3.80%</text></g></g><text transform="rotate(-90)" y="-50" x="-170" dy="1em" style="text-anchor: middle; font-size: 12px; fill: #666;">Pre Rate (%)</text><text transform="translate(360, 380)" style="text-anchor: middle; font-size: 12px; fill: #666;">Time (UTC)</text><path fill="none" stroke="#2563eb" stroke-width="2" d="M0,0C0.481,0,0.962,0,1.443,0C1.924,0,2.405,0,2.886,0C3.367,0,3.848,0,4.329,0C4.81,0,5.291,0,5.772,0C6.253,0,6.733,0,7.214,0C7.695,0,8.176,0,8.657,0C9.138,0,9.619,0,10.1,0C10.581,0,11.062,0,11.543,0C12.024,0,12.505,0,12.986,0C13.467,0,13.948,0,14.429,0C14.91,0,15.391,0,15.872,0C16.353,0,16.834,0,17.315,0C17.796,0,18.277,0,18.758,0C19.238,0,19.719,0,20.2,0C20.681,0,21.162,0,21.643,0C22.124,0,22.605,0,23.086,0C23.567,0,24.048,0,24.529,0C25.01,0,25.491,0,25.972,0C26.453,0,26.934,0,27.415,0C27.896,0,28.377,0,28.858,0C29.339,0,29.82,0,30.301,0C30.782,0,31.263,0,31.743,0C32.224,0,32.705,0,33.186,0C33.667,0,34.148,0,34.629,0C35.11,0,35.591,0,36.072,0C36.553,0,37.034,0,37.515,0C37.996,0,38.477,0,38.958,0C39.439,0,39.92,0,40.401,0C40.882,0,41.363,0,41.844,0C42.325,0,42.806,0,43.287,0C43.768,0,44.248,0,44.729,0C45.21,0,45.691,0,46.172,0C46.653,0,47.134,0,47.615,0C48.096,0,48.577,0,49.058,0C49.539,0,50.02,0,50.501,0C50.982,0,51.463,0,51.944,0C52.425,0,52.906,0,53.387,0C53.868,0,54.349,0,54.83,0C55.311,0,55.792,0,56.273,0C56.754,0,57.234,0,57.715,0C58.196,0,58.677,0,59.158,0C59.639,0,60.12,0,60.601,0C61.082,0,61.563,0,62.044,0C62.525,0,63.006,0,63.487,0C63.968,0,64.449,0,64.93,0C65.411,0,65.892,0,66.373,0C66.854,0,67.335,0,67.816,0C68.297,0,68.778,0,69.259,0C69.739,0,70.22,0,70.701,0C71.182,0,71.663,0,72.144,0C72.625,0,73.106,0,73.587,0C74.068,0,74.549,0,75.03,0C75.511,0,75.992,0,76.473,0C76.954,0,77.435,0,77.916,0C78.397,0,78.878,0,79.359,0C79.84,0,80.321,0,80.802,0C81.283,0,81.764,0,82.244,0C82.725,0,83.206,0,83.687,0C84.168,0,84.649,0,85.13,0C85.611,0,86.092,0,86.573,0C87.054,0,87.535,0,88.016,0C88.497,0,88.978,0,89.459,0C89.94,0,90.421,0,90.902,0C91.383,0,91.864,0,92.345,0C92.826,0,93.307,0,93.788,0C94.269,0,94.749,0,95.23,0C95.711,0,96.192,0,96.673,0C97.154,0,97.635,0,98.116,0C98.597,0,99.078,0,99.559,0C100.04,0,100.521,0,101.002,0C101.483,0,101.964,0,102.445,0C102.926,0,103.407,0,103.888,0C104.369,0,104.85,0,105.331,0C105.812,0,106.293,0,106.774,0C107.255,0,107.735,0,108.216,0C108.697,0,109.178,0,109.659,0C110.14,0,110.621,0,111.102,0C111.583,0,112.064,0,112.545,0C113.026,0,113.507,0,113.988,0C114.469,0,114.95,0,115.431,0C115.912,0,116.393,0,116.874,0C117.355,0,117.836,0,118.317,0C118.798,0,119.279,0,119.76,0C120.24,0,120.721,0,121.202,0C121.683,0,122.164,0,122.645,0C123.126,0,123.607,127.5,124.088,127.5C124.569,127.5,125.05,127.5,125.531,127.5C126.012,127.5,126.493,127.5,126.974,127.5C127.455,127.5,127.936,127.5,128.417,127.5C128.898,127.5,129.379,127.5,129.86,127.5C130.341,127.5,130.822,127.5,131.303,127.5C131.784,127.5,132.265,127.5,132.745,127.5C133.226,127.5,133.707,127.5,134.188,127.5C134.669,127.5,135.15,127.5,135.631,127.5C136.112,127.5,136.593,127.5,137.074,127.5C137.555,127.5,138.036,127.5,138.517,127.5C138.998,127.5,139.479,127.5,139.96,127.5C140.441,127.5,140.922,127.5,141.403,127.5C141.884,127.5,142.365,127.5,142.846,127.5C143.327,127.5,143.808,127.5,144.289,127.5C144.77,127.5,145.251,127.5,145.731,127.5C146.212,127.5,146.693,127.5,147.174,127.5C147.655,127.5,148.136,127.5,148.617,127.5C149.098,127.5,149.579,127.5,150.06,127.5C150.541,127.5,151.022,127.5,151.503,127.5C151.984,127.5,152.465,127.5,152.946,127.5C153.427,127.5,153.908,127.5,154.389,127.5C154.87,127.5,155.351,127.5,155.832,127.5C156.313,127.5,156.794,127.5,157.275,127.5C157.756,127.5,158.236,127.5,158.717,127.5C159.198,127.5,159.679,127.5,160.16,127.5C160.641,127.5,161.122,127.5,161.603,127.5C162.084,127.5,162.565,127.5,163.046,127.5C163.527,127.5,164.008,127.5,164.489,127.5C164.97,127.5,165.451,127.5,165.932,127.5C166.413,127.5,166.894,127.5,167.375,127.5C167.856,127.5,168.337,127.5,168.818,127.5C169.299,127.5,169.78,127.5,170.261,127.5C170.741,127.5,171.222,127.5,171.703,127.5C172.184,127.5,172.665,127.5,173.146,127.5C173.627,127.5,174.108,127.5,174.589,127.5C175.07,127.5,175.551,127.5,176.032,127.5C176.513,127.5,176.994,127.5,177.475,127.5C177.956,127.5,178.437,127.5,178.918,127.5C179.399,127.5,179.88,127.5,180.361,127.5C180.842,127.5,181.323,127.5,181.804,127.5C182.285,127.5,182.766,127.5,183.246,127.5C183.727,127.5,184.208,127.5,184.689,127.5C185.17,127.5,185.651,127.5,186.132,127.5C186.613,127.5,187.094,127.5,187.575,127.5C188.056,127.5,188.537,127.5,189.018,127.5C189.499,127.5,189.98,127.5,190.461,127.5C190.942,127.5,191.423,127.5,191.904,127.5C192.385,127.5,192.866,127.5,193.347,127.5C193.828,127.5,194.309,127.5,194.79,127.5C195.271,127.5,195.752,127.5,196.232,127.5C196.713,127.5,197.194,127.5,197.675,127.5C198.156,127.5,198.637,127.5,199.118,127.5C199.599,127.5,200.08,127.5,200.561,127.5C201.042,127.5,201.523,127.5,202.004,127.5C202.485,127.5,202.966,127.5,203.447,127.5C203.928,127.5,204.409,127.5,204.89,127.5C205.371,127.5,205.852,127.5,206.333,127.5C206.814,127.5,207.295,127.5,207.776,127.5C208.257,127.5,208.737,127.5,209.218,127.5C209.699,127.5,210.18,127.5,210.661,127.5C211.142,127.5,211.623,127.5,212.104,127.5C212.585,127.5,213.066,127.5,213.547,127.5C214.028,127.5,214.509,127.5,214.99,127.5C215.471,127.5,215.952,127.5,216.433,127.5C216.914,127.5,217.395,127.5,217.876,127.5C218.357,127.5,218.838,127.5,219.319,127.5C219.8,127.5,220.281,127.5,220.762,127.5C221.242,127.5,221.723,127.5,222.204,127.5C222.685,127.5,223.166,127.5,223.647,127.5C224.128,127.5,224.609,127.5,225.09,127.5C225.571,127.5,226.052,127.5,226.533,127.5C227.014,127.5,227.495,127.5,227.976,127.5C228.457,127.5,228.938,127.5,229.419,127.5C229.9,127.5,230.381,127.5,230.862,127.5C231.343,127.5,231.824,127.5,232.305,127.5C232.786,127.5,233.267,127.5,233.747,127.5C234.228,127.5,234.709,127.5,235.19,127.5C235.671,127.5,236.152,127.5,236.633,127.5C237.114,127.5,237.595,127.5,238.076,127.5C238.557,127.5,239.038,127.5,239.519,127.5C240,127.5,240.481,127.5,240.962,127.5C241.443,127.5,241.924,127.5,242.405,127.5C242.886,127.5,243.367,127.5,243.848,127.5C244.329,127.5,244.81,127.5,245.291,127.5C245.772,127.5,246.253,127.5,246.733,127.5C247.214,127.5,247.695,127.5,248.176,127.5C248.657,127.5,249.138,127.5,249.619,127.5C250.1,127.5,250.581,127.5,251.062,127.5C251.543,127.5,252.024,127.5,252.505,127.5C252.986,127.5,253.467,127.5,253.948,127.5C254.429,127.5,254.91,127.5,255.391,127.5C255.872,127.5,256.353,127.5,256.834,127.5C257.315,127.5,257.796,127.5,258.277,127.5C258.758,127.5,259.238,127.5,259.719,127.5C260.2,127.5,260.681,127.5,261.162,127.5C261.643,127.5,262.124,127.5,262.605,127.5C263.086,127.5,263.567,127.5,264.048,127.5C264.529,127.5,265.01,127.5,265.491,127.5C265.972,127.5,266.453,127.5,266.934,127.5C267.415,127.5,267.896,127.5,268.377,127.5C268.858,127.5,269.339,127.5,269.82,127.5C270.301,127.5,270.782,127.5,271.263,127.5C271.743,127.5,272.224,127.5,272.705,127.5C273.186,127.5,273.667,127.5,274.148,127.5C274.629,127.5,275.11,127.5,275.591,127.5C276.072,127.5,276.553,127.5,277.034,127.5C277.515,127.5,277.996,127.5,278.477,127.5C278.958,127.5,279.439,127.5,279.92,127.5C280.401,127.5,280.882,127.5,281.363,127.5C281.844,127.5,282.325,127.5,282.806,127.5C283.287,127.5,283.768,127.5,284.248,127.5C284.729,127.5,285.21,127.5,285.691,127.5C286.172,127.5,286.653,127.5,287.134,127.5C287.615,127.5,288.096,127.5,288.577,127.5C289.058,127.5,289.539,127.5,290.02,127.5C290.501,127.5,290.982,127.5,291.463,127.5C291.944,127.5,292.425,127.5,292.906,127.5C293.387,127.5,293.868,127.5,294.349,127.5C294.83,127.5,295.311,127.5,295.792,127.5C296.273,127.5,296.754,127.5,297.234,127.5C297.715,127.5,298.196,127.5,298.677,127.5C299.158,127.5,299.639,127.5,300.12,127.5C300.601,127.5,301.082,127.5,301.563,127.5C302.044,127.5,302.525,127.5,303.006,127.5C303.487,127.5,303.968,127.5,304.449,127.5C304.93,127.5,305.411,127.5,305.892,127.5C306.373,127.5,306.854,127.5,307.335,127.5C307.816,127.5,308.297,127.5,308.778,127.5C309.259,127.5,309.739,127.5,310.22,127.5C310.701,127.5,311.182,127.5,311.663,127.5C312.144,127.5,312.625,127.5,313.106,127.5C313.587,127.5,314.068,127.5,314.549,127.5C315.03,127.5,315.511,127.5,315.992,127.5C316.473,127.5,316.954,127.5,317.435,127.5C317.916,127.5,318.397,127.5,318.878,127.5C319.359,127.5,319.84,127.5,320.321,127.5C320.802,127.5,321.283,127.5,321.764,127.5C322.244,127.5,322.725,127.5,323.206,127.5C323.687,127.5,324.168,127.5,324.649,127.5C325.13,127.5,325.611,127.5,326.092,127.5C326.573,127.5,327.054,127.5,327.535,127.5C328.016,127.5,328.497,127.5,328.978,127.5C329.459,127.5,329.94,127.5,330.421,127.5C330.902,127.5,331.383,127.5,331.864,127.5C332.345,127.5,332.826,127.5,333.307,127.5C333.788,127.5,334.269,127.5,334.749,127.5C335.23,127.5,335.711,127.5,336.192,127.5C336.673,127.5,337.154,127.5,337.635,127.5C338.116,127.5,338.597,127.5,339.078,127.5C339.559,127.5,340.04,127.5,340.521,127.5C341.002,127.5,341.483,127.5,341.964,127.5C342.445,127.5,342.926,127.5,343.407,127.5C343.888,127.5,344.369,127.5,344.85,127.5C345.331,127.5,345.812,127.5,346.293,127.5C346.774,127.5,347.255,127.5,347.735,127.5C348.216,127.5,348.697,127.5,349.178,127.5C349.659,127.5,350.14,127.5,350.621,127.5C351.102,127.5,351.583,127.5,352.064,127.5C352.545,127.5,353.026,127.5,353.507,127.5C353.988,127.5,354.469,127.5,354.95,127.5C355.431,127.5,355.912,127.5,356.393,127.5C356.874,127.5,357.355,127.5,357.836,127.5C358.317,127.5,358.798,127.5,359.279,127.5C359.76,127.5,360.24,127.5,360.721,127.5C361.202,127.5,361.683,127.5,362.164,127.5C362.645,127.5,363.126,127.5,363.607,127.5C364.088,127.5,364.569,127.5,365.05,127.5C365.531,127.5,366.012,127.5,366.493,127.5C366.974,127.5,367.455,127.5,367.936,127.5C368.417,127.5,368.898,127.5,369.379,127.5C369.86,127.5,370.341,127.5,370.822,127.5C371.303,127.5,371.784,127.5,372.265,127.5C372.745,127.5,373.226,127.5,373.707,127.5C374.188,127.5,374.669,127.5,375.15,127.5C375.631,127.5,376.112,127.5,376.593,127.5C377.074,127.5,377.555,127.5,378.036,127.5C378.517,127.5,378.998,127.5,379.479,127.5C379.96,127.5,380.441,127.5,380.922,127.5C381.403,127.5,381.884,127.5,382.365,127.5C382.846,127.5,383.327,127.5,383.808,127.5C384.289,127.5,384.77,127.5,385.251,127.5C385.731,127.5,386.212,340,386.693,340C387.174,340,387.655,340,388.136,340C388.617,340,389.098,340,389.579,340C390.06,340,390.541,340,391.022,340C391.503,340,391.984,340,392.465,340C392.946,340,393.427,340,393.908,340C394.389,340,394.87,340,395.351,340C395.832,340,396.313,340,396.794,340C397.275,340,397.756,340,398.236,340C398.717,340,399.198,340,399.679,340C400.16,340,400.641,340,401.122,340C401.603,340,402.084,340,402.565,340C403.046,340,403.527,340,404.008,340C404.489,340,404.97,340,405.451,340C405.932,340,406.413,340,406.894,340C407.375,340,407.856,340,408.337,340C408.818,340,409.299,340,409.78,340C410.261,340,410.741,340,411.222,340C411.703,340,412.184,340,412.665,340C413.146,340,413.627,340,414.108,340C414.589,340,415.07,340,415.551,340C416.032,340,416.513,340,416.994,340C417.475,340,417.956,340,418.437,340C418.918,340,419.399,340,419.88,340C420.361,340,420.842,340,421.323,340C421.804,340,422.285,340,422.766,340C423.246,340,423.727,340,424.208,340C424.689,340,425.17,340,425.651,340C426.132,340,426.613,340,427.094,340C427.575,340,428.056,340,428.537,340C429.018,340,429.499,340,429.98,340C430.461,340,430.942,340,431.423,340C431.904,340,432.385,340,432.866,340C433.347,340,433.828,340,434.309,340C434.79,340,435.271,340,435.752,340C436.232,340,436.713,340,437.194,340C437.675,340,438.156,340,438.637,340C439.118,340,439.599,340,440.08,340C440.561,340,441.042,340,441.523,340C442.004,340,442.485,340,442.966,340C443.447,340,443.928,340,444.409,340C444.89,340,445.371,340,445.852,340C446.333,340,446.814,340,447.295,340C447.776,340,448.257,340,448.737,340C449.218,340,449.699,340,450.18,340C450.661,340,451.142,340,451.623,340C452.104,340,452.585,340,453.066,340C453.547,340,454.028,340,454.509,340C454.99,340,455.471,340,455.952,340C456.433,340,456.914,340,457.395,340C457.876,340,458.357,340,458.838,340C459.319,340,459.8,340,460.281,340C460.762,340,461.242,340,461.723,340C462.204,340,462.685,340,463.166,340C463.647,340,464.128,340,464.609,340C465.09,340,465.571,340,466.052,340C466.533,340,467.014,340,467.495,340C467.976,340,468.457,340,468.938,340C469.419,340,469.9,340,470.381,340C470.862,340,471.343,340,471.824,340C472.305,340,472.786,340,473.267,340C473.747,340,474.228,340,474.709,340C475.19,340,475.671,340,476.152,340C476.633,340,477.114,340,477.595,340C478.076,340,478.557,340,479.038,340C479.519,340,480,340,480.481,340C480.962,340,481.443,340,481.924,340C482.405,340,482.886,340,483.367,340C483.848,340,484.329,340,484.81,340C485.291,340,485.772,340,486.253,340C486.733,340,487.214,340,487.695,340C488.176,340,488.657,340,489.138,340C489.619,340,490.1,340,490.581,340C491.062,340,491.543,340,492.024,340C492.505,340,492.986,340,493.467,340C493.948,340,494.429,340,494.91,340C495.391,340,495.872,340,496.353,340C496.834,340,497.315,340,497.796,340C498.277,340,498.758,340,499.238,340C499.719,340,500.2,340,500.681,340C501.162,340,501.643,340,502.124,340C502.605,340,503.086,340,503.567,340C504.048,340,504.529,340,505.01,340C505.491,340,505.972,340,506.453,340C506.934,340,507.415,340,507.896,340C508.377,340,508.858,340,509.339,340C509.82,340,510.301,340,510.782,340C511.263,340,511.743,340,512.224,340C512.705,340,513.186,340,513.667,340C514.148,340,514.629,340,515.11,340C515.591,340,516.072,340,516.553,340C517.034,340,517.515,340,517.996,340C518.477,340,518.958,340,519.439,340C519.92,340,520.401,340,520.882,340C521.363,340,521.844,340,522.325,340C522.806,340,523.287,340,523.768,340C524.248,340,524.729,340,525.21,340C525.691,340,526.172,340,526.653,340C527.134,340,527.615,340,528.096,340C528.577,340,529.058,340,529.539,340C530.02,340,530.501,340,530.982,340C531.463,340,531.944,340,532.425,340C532.906,340,533.387,340,533.868,340C534.349,340,534.83,340,535.311,340C535.792,340,536.273,340,536.754,340C537.234,340,537.715,340,538.196,340C538.677,340,539.158,340,539.639,340C540.12,340,540.601,340,541.082,340C541.563,340,542.044,340,542.525,340C543.006,340,543.487,340,543.968,340C544.449,340,544.93,340,545.411,340C545.892,340,546.373,340,546.854,340C547.335,340,547.816,340,548.297,340C548.778,340,549.259,340,549.739,340C550.22,340,550.701,340,551.182,340C551.663,340,552.144,340,552.625,340C553.106,340,553.587,340,554.068,340C554.549,340,555.03,340,555.511,340C555.992,340,556.473,340,556.954,340C557.435,340,557.916,340,558.397,340C558.878,340,559.359,340,559.84,340C560.321,340,560.802,340,561.283,340C561.764,340,562.244,340,562.725,340C563.206,340,563.687,340,564.168,340C564.649,340,565.13,340,565.611,340C566.092,340,566.573,340,567.054,340C567.535,340,568.016,340,568.497,340C568.978,340,569.459,340,569.94,340C570.421,340,570.902,340,571.383,340C571.864,340,572.345,340,572.826,340C573.307,340,573.788,340,574.269,340C574.749,340,575.23,340,575.711,340C576.192,340,576.673,340,577.154,340C577.635,340,578.116,340,578.597,340C579.078,340,579.559,340,580.04,340C580.521,340,581.002,340,581.483,340C581.964,340,582.445,340,582.926,340C583.407,340,583.888,340,584.369,340C584.85,340,585.331,340,585.812,340C586.293,340,586.774,340,587.255,340C587.735,340,588.216,340,588.697,340C589.178,340,589.659,340,590.14,340C590.621,340,591.102,340,591.583,340C592.064,340,592.545,340,593.026,340C593.507,340,593.988,340,594.469,340C594.95,340,595.431,340,595.912,340C596.393,340,596.874,340,597.355,340C597.836,340,598.317,340,598.798,340C599.279,340,599.76,340,600.24,340C600.721,340,601.202,340,601.683,340C602.164,340,602.645,340,603.126,340C603.607,340,604.088,340,604.569,340C605.05,340,605.531,340,606.012,340C606.493,340,606.974,340,607.455,340C607.936,340,608.417,340,608.898,340C609.379,340,609.86,340,610.341,340C610.822,340,611.303,340,611.784,340C612.265,340,612.745,340,613.226,340C613.707,340,614.188,340,614.669,340C615.15,340,615.631,340,616.112,340C616.593,340,617.074,340,617.555,340C618.036,340,618.517,340,618.998,340C619.479,340,619.96,340,620.441,340C620.922,340,621.403,340,621.884,340C622.365,340,622.846,340,623.327,340C623.808,340,624.289,340,624.77,340C625.251,340,625.731,340,626.212,340C626.693,340,627.174,340,627.655,340C628.136,340,628.617,340,629.098,340C629.579,340,630.06,340,630.541,340C631.022,340,631.503,340,631.984,340C632.465,340,632.946,340,633.427,340C633.908,340,634.389,340,634.87,340C635.351,340,635.832,340,636.313,340C636.794,340,637.275,340,637.756,340C638.236,340,638.717,340,639.198,340C639.679,340,640.16,340,640.641,340C641.122,340,641.603,340,642.084,340C642.565,340,643.046,340,643.527,340C644.008,340,644.489,340,644.97,340C645.451,340,645.932,340,646.413,340C646.894,340,647.375,340,647.856,340C648.337,340,648.818,340,649.299,340C649.78,340,650.261,340,650.741,340C651.222,340,651.703,340,652.184,340C652.665,340,653.146,340,653.627,340C654.108,340,654.589,340,655.07,340C655.551,340,656.032,340,656.513,340C656.994,340,657.475,340,657.956,340C658.437,340,658.918,340,659.399,340C659.88,340,660.361,340,660.842,340C661.323,340,661.804,340,662.285,340C662.766,340,663.246,340,663.727,340C664.208,340,664.689,340,665.17,340C665.651,340,666.132,340,666.613,340C667.094,340,667.575,340,668.056,340C668.537,340,669.018,340,669.499,340C669.98,340,670.461,340,670.942,340C671.423,340,671.904,340,672.385,340C672.866,340,673.347,340,673.828,340C674.309,340,674.79,340,675.271,340C675.752,340,676.232,340,676.713,340C677.194,340,677.675,340,678.156,340C678.637,340,679.118,340,679.599,340C680.08,340,680.561,340,681.042,340C681.523,340,682.004,340,682.485,340C682.966,340,683.447,340,683.928,340C684.409,340,684.89,340,685.371,340C685.852,340,686.333,340,686.814,340C687.295,340,687.776,340,688.257,340C688.737,340,689.218,340,689.699,340C690.18,340,690.661,340,691.142,340C691.623,340,692.104,340,692.585,340C693.066,340,693.547,340,694.028,340C694.509,340,694.99,340,695.471,340C695.952,340,696.433,340,696.914,340C697.395,340,697.876,340,698.357,340C698.838,340,699.319,340,699.8,340C700.281,340,700.762,340,701.242,340C701.723,340,702.204,340,702.685,340C703.166,340,703.647,340,704.128,340C704.609,340,705.09,340,705.571,340C706.052,340,706.533,340,707.014,340C707.495,340,707.976,340,708.457,340C708.938,340,709.419,340,709.9,340C710.381,340,710.862,340,711.343,340C711.824,340,712.305,340,712.786,340C713.267,340,713.747,340,714.228,340C714.709,340,715.19,340,715.671,340C716.152,340,716.633,340,717.114,340C717.595,340,718.076,340,718.557,340C719.038,340,719.519,340,720,340"></path><circle class="dot" cx="0" cy="0" r="3" fill="#2563eb"></circle><circle class="dot" cx="1.442885771543086" cy="0" r="3" fill="#2563eb"></circle><circle class="dot" cx="2.885771543086172" cy="0" r="3" fill="#2563eb"></circle><circle class="dot" cx="4.328657314629258" cy="0" r="3" fill="#2563eb"></circle><circle class="dot" cx="5.771543086172344" cy="0" r="3" fill="#2563eb"></circle><circle class="dot" cx="7.214428857715431" cy="0" r="3" fill="#2563eb"></circle><circle class="dot" cx="8.657314629258517" cy="0" r="3" fill="#2563eb"></circle><circle class="dot" cx="10.100200400801603" cy="0" r="3" fill="#2563eb"></circle><circle class="dot" cx="11.543086172344688" cy="0" r="3" fill="#2563eb"></circle><circle class="dot" cx="12.985971943887776" cy="0" r="3" fill="#2563eb"></circle><circle class="dot" cx="14.428857715430862" cy="0" r="3" fill="#2563eb"></circle><circle class="dot" cx="15.87174348697395" cy="0" r="3" fill="#2563eb"></circle><circle class="dot" cx="17.314629258517034" cy="0" r="3" fill="#2563eb"></circle><circle class="dot" cx="18.75751503006012" cy="0" r="3" fill="#2563eb"></circle><circle class="dot" cx="20.200400801603205" cy="0" r="3" fill="#2563eb"></circle><circle class="dot" cx="21.64328657314629" cy="0" r="3" fill="#2563eb"></circle><circle class="dot" cx="23.086172344689377" cy="0" r="3" fill="#2563eb"></circle><circle class="dot" cx="24.529058116232463" cy="0" r="3" fill="#2563eb"></circle><circle class="dot" cx="25.971943887775552" cy="0" r="3" fill="#2563eb"></circle><circle class="dot" cx="27.414829659318638" cy="0" r="3" fill="#2563eb"></circle><circle class="dot" cx="28.857715430861724" cy="0" r="3" fill="#2563eb"></circle><circle class="dot" cx="30.30060120240481" cy="0" r="3" fill="#2563eb"></circle><circle class="dot" cx="31.7434869739479" cy="0" r="3" fill="#2563eb"></circle><circle class="dot" cx="33.18637274549098" cy="0" r="3" fill="#2563eb"></circle><circle class="dot" cx="34.62925851703407" cy="0" r="3" fill="#2563eb"></circle><circle class="dot" cx="36.07214428857716" cy="0" r="3" fill="#2563eb"></circle><circle class="dot" cx="37.51503006012024" cy="0" r="3" fill="#2563eb"></circle><circle class="dot" cx="38.95791583166333" cy="0" r="3" fill="#2563eb"></circle><circle class="dot" cx="40.40080160320641" cy="0" r="3" fill="#2563eb"></circle><circle class="dot" cx="41.8436873747495" cy="0" r="3" fill="#2563eb"></circle><circle class="dot" cx="43.28657314629258" cy="0" r="3" fill="#2563eb"></circle><circle class="dot" cx="44.72945891783567" cy="0" r="3" fill="#2563eb"></circle><circle class="dot" cx="46.172344689378754" cy="0" r="3" fill="#2563eb"></circle><circle class="dot" cx="47.61523046092184" cy="0" r="3" fill="#2563eb"></circle><circle class="dot" cx="49.058116232464926" cy="0" r="3" fill="#2563eb"></circle><circle class="dot" cx="50.501002004008015" cy="0" r="3" fill="#2563eb"></circle><circle class="dot" cx="51.943887775551104" cy="0" r="3" fill="#2563eb"></circle><circle class="dot" cx="53.386773547094194" cy="0" r="3" fill="#2563eb"></circle><circle class="dot" cx="54.829659318637276" cy="0" r="3" fill="#2563eb"></circle><circle class="dot" cx="56.27254509018036" cy="0" r="3" fill="#2563eb"></circle><circle class="dot" cx="57.71543086172345" cy="0" r="3" fill="#2563eb"></circle><circle class="dot" cx="59.15831663326653" cy="0" r="3" fill="#2563eb"></circle><circle class="dot" cx="60.60120240480962" cy="0" r="3" fill="#2563eb"></circle><circle class="dot" cx="62.04408817635271" cy="0" r="3" fill="#2563eb"></circle><circle class="dot" cx="63.4869739478958" cy="0" r="3" fill="#2563eb"></circle><circle class="dot" cx="64.92985971943888" cy="0" r="3" fill="#2563eb"></circle><circle class="dot" cx="66.37274549098196" cy="0" r="3" fill="#2563eb"></circle><circle class="dot" cx="67.81563126252505" cy="0" r="3" fill="#2563eb"></circle><circle class="dot" cx="69.25851703406813" cy="0" r="3" fill="#2563eb"></circle><circle class="dot" cx="70.70140280561122" cy="0" r="3" fill="#2563eb"></circle><circle class="dot" cx="72.14428857715431" cy="0" r="3" fill="#2563eb"></circle><circle class="dot" cx="73.5871743486974" cy="0" r="3" fill="#2563eb"></circle><circle class="dot" cx="75.03006012024048" cy="0" r="3" fill="#2563eb"></circle><circle class="dot" cx="76.47294589178357" cy="0" r="3" fill="#2563eb"></circle><circle class="dot" cx="77.91583166332666" cy="0" r="3" fill="#2563eb"></circle><circle class="dot" cx="79.35871743486973" cy="0" r="3" fill="#2563eb"></circle><circle class="dot" cx="80.80160320641282" cy="0" r="3" fill="#2563eb"></circle><circle class="dot" cx="82.24448897795591" cy="0" r="3" fill="#2563eb"></circle><circle class="dot" cx="83.687374749499" cy="0" r="3" fill="#2563eb"></circle><circle class="dot" cx="85.13026052104208" cy="0" r="3" fill="#2563eb"></circle><circle class="dot" cx="86.57314629258516" cy="0" r="3" fill="#2563eb"></circle><circle class="dot" cx="88.01603206412825" cy="0" r="3" fill="#2563eb"></circle><circle class="dot" cx="89.45891783567134" cy="0" r="3" fill="#2563eb"></circle><circle class="dot" cx="90.90180360721442" cy="0" r="3" fill="#2563eb"></circle><circle class="dot" cx="92.34468937875751" cy="0" r="3" fill="#2563eb"></circle><circle class="dot" cx="93.7875751503006" cy="0" r="3" fill="#2563eb"></circle><circle class="dot" cx="95.23046092184369" cy="0" r="3" fill="#2563eb"></circle><circle class="dot" cx="96.67334669338678" cy="0" r="3" fill="#2563eb"></circle><circle class="dot" cx="98.11623246492985" cy="0" r="3" fill="#2563eb"></circle><circle class="dot" cx="99.55911823647294" cy="0" r="3" fill="#2563eb"></circle><circle class="dot" cx="101.00200400801603" cy="0" r="3" fill="#2563eb"></circle><circle class="dot" cx="102.44488977955912" cy="0" r="3" fill="#2563eb"></circle><circle class="dot" cx="103.88777555110221" cy="0" r="3" fill="#2563eb"></circle><circle class="dot" cx="105.3306613226453" cy="0" r="3" fill="#2563eb"></circle><circle class="dot" cx="106.77354709418839" cy="0" r="3" fill="#2563eb"></circle><circle class="dot" cx="108.21643286573148" cy="0" r="3" fill="#2563eb"></circle><circle class="dot" cx="109.65931863727455" cy="0" r="3" fill="#2563eb"></circle><circle class="dot" cx="111.10220440881763" cy="0" r="3" fill="#2563eb"></circle><circle class="dot" cx="112.54509018036072" cy="0" r="3" fill="#2563eb"></circle><circle class="dot" cx="113.9879759519038" cy="0" r="3" fill="#2563eb"></circle><circle class="dot" cx="115.4308617234469" cy="0" r="3" fill="#2563eb"></circle><circle class="dot" cx="116.87374749498997" cy="0" r="3" fill="#2563eb"></circle><circle class="dot" cx="118.31663326653306" cy="0" r="3" fill="#2563eb"></circle><circle class="dot" cx="119.75951903807615" cy="0" r="3" fill="#2563eb"></circle><circle class="dot" cx="121.20240480961924" cy="0" r="3" fill="#2563eb"></circle><circle class="dot" cx="122.64529058116233" cy="0" r="3" fill="#2563eb"></circle><circle class="dot" cx="124.08817635270542" cy="127.49999999999982" r="3" fill="#2563eb"></circle><circle class="dot" cx="125.5310621242485" cy="127.49999999999982" r="3" fill="#2563eb"></circle><circle class="dot" cx="126.9739478957916" cy="127.49999999999982" r="3" fill="#2563eb"></circle><circle class="dot" cx="128.41683366733469" cy="127.49999999999982" r="3" fill="#2563eb"></circle><circle class="dot" cx="129.85971943887776" cy="127.49999999999982" r="3" fill="#2563eb"></circle><circle class="dot" cx="131.30260521042084" cy="127.49999999999982" r="3" fill="#2563eb"></circle><circle class="dot" cx="132.7454909819639" cy="127.49999999999982" r="3" fill="#2563eb"></circle><circle class="dot" cx="134.18837675350701" cy="127.49999999999982" r="3" fill="#2563eb"></circle><circle class="dot" cx="135.6312625250501" cy="127.49999999999982" r="3" fill="#2563eb"></circle><circle class="dot" cx="137.0741482965932" cy="127.49999999999982" r="3" fill="#2563eb"></circle><circle class="dot" cx="138.51703406813627" cy="127.49999999999982" r="3" fill="#2563eb"></circle><circle class="dot" cx="139.95991983967937" cy="127.49999999999982" r="3" fill="#2563eb"></circle><circle class="dot" cx="141.40280561122245" cy="127.49999999999982" r="3" fill="#2563eb"></circle><circle class="dot" cx="142.84569138276552" cy="127.49999999999982" r="3" fill="#2563eb"></circle><circle class="dot" cx="144.28857715430863" cy="127.49999999999982" r="3" fill="#2563eb"></circle><circle class="dot" cx="145.7314629258517" cy="127.49999999999982" r="3" fill="#2563eb"></circle><circle class="dot" cx="147.1743486973948" cy="127.49999999999982" r="3" fill="#2563eb"></circle><circle class="dot" cx="148.61723446893788" cy="127.49999999999982" r="3" fill="#2563eb"></circle><circle class="dot" cx="150.06012024048096" cy="127.49999999999982" r="3" fill="#2563eb"></circle><circle class="dot" cx="151.50300601202403" cy="127.49999999999982" r="3" fill="#2563eb"></circle><circle class="dot" cx="152.94589178356713" cy="127.49999999999982" r="3" fill="#2563eb"></circle><circle class="dot" cx="154.3887775551102" cy="127.49999999999982" r="3" fill="#2563eb"></circle><circle class="dot" cx="155.8316633266533" cy="127.49999999999982" r="3" fill="#2563eb"></circle><circle class="dot" cx="157.2745490981964" cy="127.49999999999982" r="3" fill="#2563eb"></circle><circle class="dot" cx="158.71743486973946" cy="127.49999999999982" r="3" fill="#2563eb"></circle><circle class="dot" cx="160.16032064128257" cy="127.49999999999982" r="3" fill="#2563eb"></circle><circle class="dot" cx="161.60320641282564" cy="127.49999999999982" r="3" fill="#2563eb"></circle><circle class="dot" cx="163.04609218436875" cy="127.49999999999982" r="3" fill="#2563eb"></circle><circle class="dot" cx="164.48897795591182" cy="127.49999999999982" r="3" fill="#2563eb"></circle><circle class="dot" cx="165.93186372745492" cy="127.49999999999982" r="3" fill="#2563eb"></circle><circle class="dot" cx="167.374749498998" cy="127.49999999999982" r="3" fill="#2563eb"></circle><circle class="dot" cx="168.8176352705411" cy="127.49999999999982" r="3" fill="#2563eb"></circle><circle class="dot" cx="170.26052104208415" cy="127.49999999999982" r="3" fill="#2563eb"></circle><circle class="dot" cx="171.70340681362725" cy="127.49999999999982" r="3" fill="#2563eb"></circle><circle class="dot" cx="173.14629258517033" cy="127.49999999999982" r="3" fill="#2563eb"></circle><circle class="dot" cx="174.58917835671343" cy="127.49999999999982" r="3" fill="#2563eb"></circle><circle class="dot" cx="176.0320641282565" cy="127.49999999999982" r="3" fill="#2563eb"></circle><circle class="dot" cx="177.47494989979958" cy="127.49999999999982" r="3" fill="#2563eb"></circle><circle class="dot" cx="178.9178356713427" cy="127.49999999999982" r="3" fill="#2563eb"></circle><circle class="dot" cx="180.36072144288576" cy="127.49999999999982" r="3" fill="#2563eb"></circle><circle class="dot" cx="181.80360721442884" cy="127.49999999999982" r="3" fill="#2563eb"></circle><circle class="dot" cx="183.24649298597194" cy="127.49999999999982" r="3" fill="#2563eb"></circle><circle class="dot" cx="184.68937875751502" cy="127.49999999999982" r="3" fill="#2563eb"></circle><circle class="dot" cx="186.1322645290581" cy="127.49999999999982" r="3" fill="#2563eb"></circle><circle class="dot" cx="187.5751503006012" cy="127.49999999999982" r="3" fill="#2563eb"></circle><circle class="dot" cx="189.01803607214427" cy="127.49999999999982" r="3" fill="#2563eb"></circle><circle class="dot" cx="190.46092184368737" cy="127.49999999999982" r="3" fill="#2563eb"></circle><circle class="dot" cx="191.90380761523045" cy="127.49999999999982" r="3" fill="#2563eb"></circle><circle class="dot" cx="193.34669338677355" cy="127.49999999999982" r="3" fill="#2563eb"></circle><circle class="dot" cx="194.78957915831663" cy="127.49999999999982" r="3" fill="#2563eb"></circle><circle class="dot" cx="196.2324649298597" cy="127.49999999999982" r="3" fill="#2563eb"></circle><circle class="dot" cx="197.6753507014028" cy="127.49999999999982" r="3" fill="#2563eb"></circle><circle class="dot" cx="199.11823647294588" cy="127.49999999999982" r="3" fill="#2563eb"></circle><circle class="dot" cx="200.56112224448898" cy="127.49999999999982" r="3" fill="#2563eb"></circle><circle class="dot" cx="202.00400801603206" cy="127.49999999999982" r="3" fill="#2563eb"></circle><circle class="dot" cx="203.44689378757516" cy="127.49999999999982" r="3" fill="#2563eb"></circle><circle class="dot" cx="204.88977955911824" cy="127.49999999999982" r="3" fill="#2563eb"></circle><circle class="dot" cx="206.33266533066134" cy="127.49999999999982" r="3" fill="#2563eb"></circle><circle class="dot" cx="207.77555110220442" cy="127.49999999999982" r="3" fill="#2563eb"></circle><circle class="dot" cx="209.2184368737475" cy="127.49999999999982" r="3" fill="#2563eb"></circle><circle class="dot" cx="210.6613226452906" cy="127.49999999999982" r="3" fill="#2563eb"></circle><circle class="dot" cx="212.10420841683367" cy="127.49999999999982" r="3" fill="#2563eb"></circle><circle class="dot" cx="213.54709418837678" cy="127.49999999999982" r="3" fill="#2563eb"></circle><circle class="dot" cx="214.98997995991985" cy="127.49999999999982" r="3" fill="#2563eb"></circle><circle class="dot" cx="216.43286573146295" cy="127.49999999999982" r="3" fill="#2563eb"></circle><circle class="dot" cx="217.87575150300603" cy="127.49999999999982" r="3" fill="#2563eb"></circle><circle class="dot" cx="219.3186372745491" cy="127.49999999999982" r="3" fill="#2563eb"></circle><circle class="dot" cx="220.76152304609218" cy="127.49999999999982" r="3" fill="#2563eb"></circle><circle class="dot" cx="222.20440881763525" cy="127.49999999999982" r="3" fill="#2563eb"></circle><circle class="dot" cx="223.64729458917833" cy="127.49999999999982" r="3" fill="#2563eb"></circle><circle class="dot" cx="225.09018036072143" cy="127.49999999999982" r="3" fill="#2563eb"></circle><circle class="dot" cx="226.5330661322645" cy="127.49999999999982" r="3" fill="#2563eb"></circle><circle class="dot" cx="227.9759519038076" cy="127.49999999999982" r="3" fill="#2563eb"></circle><circle class="dot" cx="229.4188376753507" cy="127.49999999999982" r="3" fill="#2563eb"></circle><circle class="dot" cx="230.8617234468938" cy="127.49999999999982" r="3" fill="#2563eb"></circle><circle class="dot" cx="232.30460921843687" cy="127.49999999999982" r="3" fill="#2563eb"></circle><circle class="dot" cx="233.74749498997994" cy="127.49999999999982" r="3" fill="#2563eb"></circle><circle class="dot" cx="235.19038076152304" cy="127.49999999999982" r="3" fill="#2563eb"></circle><circle class="dot" cx="236.63326653306612" cy="127.49999999999982" r="3" fill="#2563eb"></circle><circle class="dot" cx="238.07615230460922" cy="127.49999999999982" r="3" fill="#2563eb"></circle><circle class="dot" cx="239.5190380761523" cy="127.49999999999982" r="3" fill="#2563eb"></circle><circle class="dot" cx="240.9619238476954" cy="127.49999999999982" r="3" fill="#2563eb"></circle><circle class="dot" cx="242.40480961923848" cy="127.49999999999982" r="3" fill="#2563eb"></circle><circle class="dot" cx="243.84769539078155" cy="127.49999999999982" r="3" fill="#2563eb"></circle><circle class="dot" cx="245.29058116232466" cy="127.49999999999982" r="3" fill="#2563eb"></circle><circle class="dot" cx="246.73346693386773" cy="127.49999999999982" r="3" fill="#2563eb"></circle><circle class="dot" cx="248.17635270541084" cy="127.49999999999982" r="3" fill="#2563eb"></circle><circle class="dot" cx="249.6192384769539" cy="127.49999999999982" r="3" fill="#2563eb"></circle><circle class="dot" cx="251.062124248497" cy="127.49999999999982" r="3" fill="#2563eb"></circle><circle class="dot" cx="252.5050100200401" cy="127.49999999999982" r="3" fill="#2563eb"></circle><circle class="dot" cx="253.9478957915832" cy="127.49999999999982" r="3" fill="#2563eb"></circle><circle class="dot" cx="255.39078156312627" cy="127.49999999999982" r="3" fill="#2563eb"></circle><circle class="dot" cx="256.83366733466937" cy="127.49999999999982" r="3" fill="#2563eb"></circle><circle class="dot" cx="258.2765531062124" cy="127.49999999999982" r="3" fill="#2563eb"></circle><circle class="dot" cx="259.7194388777555" cy="127.49999999999982" r="3" fill="#2563eb"></circle><circle class="dot" cx="261.16232464929857" cy="127.49999999999982" r="3" fill="#2563eb"></circle><circle class="dot" cx="262.6052104208417" cy="127.49999999999982" r="3" fill="#2563eb"></circle><circle class="dot" cx="264.0480961923848" cy="127.49999999999982" r="3" fill="#2563eb"></circle><circle class="dot" cx="265.4909819639278" cy="127.49999999999982" r="3" fill="#2563eb"></circle><circle class="dot" cx="266.9338677354709" cy="127.49999999999982" r="3" fill="#2563eb"></circle><circle class="dot" cx="268.37675350701403" cy="127.49999999999982" r="3" fill="#2563eb"></circle><circle class="dot" cx="269.8196392785571" cy="127.49999999999982" r="3" fill="#2563eb"></circle><circle class="dot" cx="271.2625250501002" cy="127.49999999999982" r="3" fill="#2563eb"></circle><circle class="dot" cx="272.7054108216433" cy="127.49999999999982" r="3" fill="#2563eb"></circle><circle class="dot" cx="274.1482965931864" cy="127.49999999999982" r="3" fill="#2563eb"></circle><circle class="dot" cx="275.59118236472943" cy="127.49999999999982" r="3" fill="#2563eb"></circle><circle class="dot" cx="277.03406813627254" cy="127.49999999999982" r="3" fill="#2563eb"></circle><circle class="dot" cx="278.47695390781564" cy="127.49999999999982" r="3" fill="#2563eb"></circle><circle class="dot" cx="279.91983967935874" cy="127.49999999999982" r="3" fill="#2563eb"></circle><circle class="dot" cx="281.3627254509018" cy="127.49999999999982" r="3" fill="#2563eb"></circle><circle class="dot" cx="282.8056112224449" cy="127.49999999999982" r="3" fill="#2563eb"></circle><circle class="dot" cx="284.248496993988" cy="127.49999999999982" r="3" fill="#2563eb"></circle><circle class="dot" cx="285.69138276553105" cy="127.49999999999982" r="3" fill="#2563eb"></circle><circle class="dot" cx="287.13426853707415" cy="127.49999999999982" r="3" fill="#2563eb"></circle><circle class="dot" cx="288.57715430861725" cy="127.49999999999982" r="3" fill="#2563eb"></circle><circle class="dot" cx="290.02004008016036" cy="127.49999999999982" r="3" fill="#2563eb"></circle><circle class="dot" cx="291.4629258517034" cy="127.49999999999982" r="3" fill="#2563eb"></circle><circle class="dot" cx="292.9058116232465" cy="127.49999999999982" r="3" fill="#2563eb"></circle><circle class="dot" cx="294.3486973947896" cy="127.49999999999982" r="3" fill="#2563eb"></circle><circle class="dot" cx="295.79158316633266" cy="127.49999999999982" r="3" fill="#2563eb"></circle><circle class="dot" cx="297.23446893787576" cy="127.49999999999982" r="3" fill="#2563eb"></circle><circle class="dot" cx="298.67735470941886" cy="127.49999999999982" r="3" fill="#2563eb"></circle><circle class="dot" cx="300.1202404809619" cy="127.49999999999982" r="3" fill="#2563eb"></circle><circle class="dot" cx="301.563126252505" cy="127.49999999999982" r="3" fill="#2563eb"></circle><circle class="dot" cx="303.00601202404806" cy="127.49999999999982" r="3" fill="#2563eb"></circle><circle class="dot" cx="304.44889779559117" cy="127.49999999999982" r="3" fill="#2563eb"></circle><circle class="dot" cx="305.89178356713427" cy="127.49999999999982" r="3" fill="#2563eb"></circle><circle class="dot" cx="307.3346693386773" cy="127.49999999999982" r="3" fill="#2563eb"></circle><circle class="dot" cx="308.7775551102204" cy="127.49999999999982" r="3" fill="#2563eb"></circle><circle class="dot" cx="310.2204408817635" cy="127.49999999999982" r="3" fill="#2563eb"></circle><circle class="dot" cx="311.6633266533066" cy="127.49999999999982" r="3" fill="#2563eb"></circle><circle class="dot" cx="313.1062124248497" cy="127.49999999999982" r="3" fill="#2563eb"></circle><circle class="dot" cx="314.5490981963928" cy="127.49999999999982" r="3" fill="#2563eb"></circle><circle class="dot" cx="315.9919839679359" cy="127.49999999999982" r="3" fill="#2563eb"></circle><circle class="dot" cx="317.4348697394789" cy="127.49999999999982" r="3" fill="#2563eb"></circle><circle class="dot" cx="318.87775551102203" cy="127.49999999999982" r="3" fill="#2563eb"></circle><circle class="dot" cx="320.32064128256513" cy="127.49999999999982" r="3" fill="#2563eb"></circle><circle class="dot" cx="321.76352705410824" cy="127.49999999999982" r="3" fill="#2563eb"></circle><circle class="dot" cx="323.2064128256513" cy="127.49999999999982" r="3" fill="#2563eb"></circle><circle class="dot" cx="324.6492985971944" cy="127.49999999999982" r="3" fill="#2563eb"></circle><circle class="dot" cx="326.0921843687375" cy="127.49999999999982" r="3" fill="#2563eb"></circle><circle class="dot" cx="327.5350701402806" cy="127.49999999999982" r="3" fill="#2563eb"></circle><circle class="dot" cx="328.97795591182364" cy="127.49999999999982" r="3" fill="#2563eb"></circle><circle class="dot" cx="330.42084168336675" cy="127.49999999999982" r="3" fill="#2563eb"></circle><circle class="dot" cx="331.86372745490985" cy="127.49999999999982" r="3" fill="#2563eb"></circle><circle class="dot" cx="333.3066132264529" cy="127.49999999999982" r="3" fill="#2563eb"></circle><circle class="dot" cx="334.749498997996" cy="127.49999999999982" r="3" fill="#2563eb"></circle><circle class="dot" cx="336.1923847695391" cy="127.49999999999982" r="3" fill="#2563eb"></circle><circle class="dot" cx="337.6352705410822" cy="127.49999999999982" r="3" fill="#2563eb"></circle><circle class="dot" cx="339.07815631262525" cy="127.49999999999982" r="3" fill="#2563eb"></circle><circle class="dot" cx="340.5210420841683" cy="127.49999999999982" r="3" fill="#2563eb"></circle><circle class="dot" cx="341.9639278557114" cy="127.49999999999982" r="3" fill="#2563eb"></circle><circle class="dot" cx="343.4068136272545" cy="127.49999999999982" r="3" fill="#2563eb"></circle><circle class="dot" cx="344.84969939879755" cy="127.49999999999982" r="3" fill="#2563eb"></circle><circle class="dot" cx="346.29258517034066" cy="127.49999999999982" r="3" fill="#2563eb"></circle><circle class="dot" cx="347.73547094188376" cy="127.49999999999982" r="3" fill="#2563eb"></circle><circle class="dot" cx="349.17835671342687" cy="127.49999999999982" r="3" fill="#2563eb"></circle><circle class="dot" cx="350.6212424849699" cy="127.49999999999982" r="3" fill="#2563eb"></circle><circle class="dot" cx="352.064128256513" cy="127.49999999999982" r="3" fill="#2563eb"></circle><circle class="dot" cx="353.5070140280561" cy="127.49999999999982" r="3" fill="#2563eb"></circle><circle class="dot" cx="354.94989979959917" cy="127.49999999999982" r="3" fill="#2563eb"></circle><circle class="dot" cx="356.39278557114227" cy="127.49999999999982" r="3" fill="#2563eb"></circle><circle class="dot" cx="357.8356713426854" cy="127.49999999999982" r="3" fill="#2563eb"></circle><circle class="dot" cx="359.2785571142285" cy="127.49999999999982" r="3" fill="#2563eb"></circle><circle class="dot" cx="360.7214428857715" cy="127.49999999999982" r="3" fill="#2563eb"></circle><circle class="dot" cx="362.16432865731457" cy="127.49999999999982" r="3" fill="#2563eb"></circle><circle class="dot" cx="363.6072144288577" cy="127.49999999999982" r="3" fill="#2563eb"></circle><circle class="dot" cx="365.0501002004008" cy="127.49999999999982" r="3" fill="#2563eb"></circle><circle class="dot" cx="366.4929859719439" cy="127.49999999999982" r="3" fill="#2563eb"></circle><circle class="dot" cx="367.9358717434869" cy="127.49999999999982" r="3" fill="#2563eb"></circle><circle class="dot" cx="369.37875751503003" cy="127.49999999999982" r="3" fill="#2563eb"></circle><circle class="dot" cx="370.82164328657313" cy="127.49999999999982" r="3" fill="#2563eb"></circle><circle class="dot" cx="372.2645290581162" cy="127.49999999999982" r="3" fill="#2563eb"></circle><circle class="dot" cx="373.7074148296593" cy="127.49999999999982" r="3" fill="#2563eb"></circle><circle class="dot" cx="375.1503006012024" cy="127.49999999999982" r="3" fill="#2563eb"></circle><circle class="dot" cx="376.5931863727455" cy="127.49999999999982" r="3" fill="#2563eb"></circle><circle class="dot" cx="378.03607214428854" cy="127.49999999999982" r="3" fill="#2563eb"></circle><circle class="dot" cx="379.47895791583164" cy="127.49999999999982" r="3" fill="#2563eb"></circle><circle class="dot" cx="380.92184368737475" cy="127.49999999999982" r="3" fill="#2563eb"></circle><circle class="dot" cx="382.3647294589178" cy="127.49999999999982" r="3" fill="#2563eb"></circle><circle class="dot" cx="383.8076152304609" cy="127.49999999999982" r="3" fill="#2563eb"></circle><circle class="dot" cx="385.250501002004" cy="127.49999999999982" r="3" fill="#2563eb"></circle><circle class="dot" cx="386.6933867735471" cy="340" r="3" fill="#2563eb"></circle><circle class="dot" cx="388.13627254509015" cy="340" r="3" fill="#2563eb"></circle><circle class="dot" cx="389.57915831663325" cy="340" r="3" fill="#2563eb"></circle><circle class="dot" cx="391.02204408817636" cy="340" r="3" fill="#2563eb"></circle><circle class="dot" cx="392.4649298597194" cy="340" r="3" fill="#2563eb"></circle><circle class="dot" cx="393.9078156312625" cy="340" r="3" fill="#2563eb"></circle><circle class="dot" cx="395.3507014028056" cy="340" r="3" fill="#2563eb"></circle><circle class="dot" cx="396.7935871743487" cy="340" r="3" fill="#2563eb"></circle><circle class="dot" cx="398.23647294589176" cy="340" r="3" fill="#2563eb"></circle><circle class="dot" cx="399.67935871743487" cy="340" r="3" fill="#2563eb"></circle><circle class="dot" cx="401.12224448897797" cy="340" r="3" fill="#2563eb"></circle><circle class="dot" cx="402.5651302605211" cy="340" r="3" fill="#2563eb"></circle><circle class="dot" cx="404.0080160320641" cy="340" r="3" fill="#2563eb"></circle><circle class="dot" cx="405.4509018036072" cy="340" r="3" fill="#2563eb"></circle><circle class="dot" cx="406.8937875751503" cy="340" r="3" fill="#2563eb"></circle><circle class="dot" cx="408.3366733466934" cy="340" r="3" fill="#2563eb"></circle><circle class="dot" cx="409.7795591182365" cy="340" r="3" fill="#2563eb"></circle><circle class="dot" cx="411.2224448897796" cy="340" r="3" fill="#2563eb"></circle><circle class="dot" cx="412.6653306613227" cy="340" r="3" fill="#2563eb"></circle><circle class="dot" cx="414.10821643286573" cy="340" r="3" fill="#2563eb"></circle><circle class="dot" cx="415.55110220440883" cy="340" r="3" fill="#2563eb"></circle><circle class="dot" cx="416.99398797595194" cy="340" r="3" fill="#2563eb"></circle><circle class="dot" cx="418.436873747495" cy="340" r="3" fill="#2563eb"></circle><circle class="dot" cx="419.8797595190381" cy="340" r="3" fill="#2563eb"></circle><circle class="dot" cx="421.3226452905812" cy="340" r="3" fill="#2563eb"></circle><circle class="dot" cx="422.7655310621243" cy="340" r="3" fill="#2563eb"></circle><circle class="dot" cx="424.20841683366734" cy="340" r="3" fill="#2563eb"></circle><circle class="dot" cx="425.65130260521045" cy="340" r="3" fill="#2563eb"></circle><circle class="dot" cx="427.09418837675355" cy="340" r="3" fill="#2563eb"></circle><circle class="dot" cx="428.5370741482966" cy="340" r="3" fill="#2563eb"></circle><circle class="dot" cx="429.9799599198397" cy="340" r="3" fill="#2563eb"></circle><circle class="dot" cx="431.4228456913828" cy="340" r="3" fill="#2563eb"></circle><circle class="dot" cx="432.8657314629259" cy="340" r="3" fill="#2563eb"></circle><circle class="dot" cx="434.30861723446895" cy="340" r="3" fill="#2563eb"></circle><circle class="dot" cx="435.75150300601206" cy="340" r="3" fill="#2563eb"></circle><circle class="dot" cx="437.19438877755516" cy="340" r="3" fill="#2563eb"></circle><circle class="dot" cx="438.6372745490982" cy="340" r="3" fill="#2563eb"></circle><circle class="dot" cx="440.08016032064126" cy="340" r="3" fill="#2563eb"></circle><circle class="dot" cx="441.52304609218436" cy="340" r="3" fill="#2563eb"></circle><circle class="dot" cx="442.9659318637274" cy="340" r="3" fill="#2563eb"></circle><circle class="dot" cx="444.4088176352705" cy="340" r="3" fill="#2563eb"></circle><circle class="dot" cx="445.8517034068136" cy="340" r="3" fill="#2563eb"></circle><circle class="dot" cx="447.29458917835666" cy="340" r="3" fill="#2563eb"></circle><circle class="dot" cx="448.73747494989976" cy="340" r="3" fill="#2563eb"></circle><circle class="dot" cx="450.18036072144287" cy="340" r="3" fill="#2563eb"></circle><circle class="dot" cx="451.62324649298597" cy="340" r="3" fill="#2563eb"></circle><circle class="dot" cx="453.066132264529" cy="340" r="3" fill="#2563eb"></circle><circle class="dot" cx="454.5090180360721" cy="340" r="3" fill="#2563eb"></circle><circle class="dot" cx="455.9519038076152" cy="340" r="3" fill="#2563eb"></circle><circle class="dot" cx="457.39478957915827" cy="340" r="3" fill="#2563eb"></circle><circle class="dot" cx="458.8376753507014" cy="340" r="3" fill="#2563eb"></circle><circle class="dot" cx="460.2805611222445" cy="340" r="3" fill="#2563eb"></circle><circle class="dot" cx="461.7234468937876" cy="340" r="3" fill="#2563eb"></circle><circle class="dot" cx="463.16633266533063" cy="340" r="3" fill="#2563eb"></circle><circle class="dot" cx="464.60921843687373" cy="340" r="3" fill="#2563eb"></circle><circle class="dot" cx="466.05210420841684" cy="340" r="3" fill="#2563eb"></circle><circle class="dot" cx="467.4949899799599" cy="340" r="3" fill="#2563eb"></circle><circle class="dot" cx="468.937875751503" cy="340" r="3" fill="#2563eb"></circle><circle class="dot" cx="470.3807615230461" cy="340" r="3" fill="#2563eb"></circle><circle class="dot" cx="471.8236472945892" cy="340" r="3" fill="#2563eb"></circle><circle class="dot" cx="473.26653306613224" cy="340" r="3" fill="#2563eb"></circle><circle class="dot" cx="474.70941883767534" cy="340" r="3" fill="#2563eb"></circle><circle class="dot" cx="476.15230460921845" cy="340" r="3" fill="#2563eb"></circle><circle class="dot" cx="477.5951903807615" cy="340" r="3" fill="#2563eb"></circle><circle class="dot" cx="479.0380761523046" cy="340" r="3" fill="#2563eb"></circle><circle class="dot" cx="480.4809619238477" cy="340" r="3" fill="#2563eb"></circle><circle class="dot" cx="481.9238476953908" cy="340" r="3" fill="#2563eb"></circle><circle class="dot" cx="483.36673346693385" cy="340" r="3" fill="#2563eb"></circle><circle class="dot" cx="484.80961923847696" cy="340" r="3" fill="#2563eb"></circle><circle class="dot" cx="486.25250501002006" cy="340" r="3" fill="#2563eb"></circle><circle class="dot" cx="487.6953907815631" cy="340" r="3" fill="#2563eb"></circle><circle class="dot" cx="489.1382765531062" cy="340" r="3" fill="#2563eb"></circle><circle class="dot" cx="490.5811623246493" cy="340" r="3" fill="#2563eb"></circle><circle class="dot" cx="492.0240480961924" cy="340" r="3" fill="#2563eb"></circle><circle class="dot" cx="493.46693386773546" cy="340" r="3" fill="#2563eb"></circle><circle class="dot" cx="494.90981963927857" cy="340" r="3" fill="#2563eb"></circle><circle class="dot" cx="496.35270541082167" cy="340" r="3" fill="#2563eb"></circle><circle class="dot" cx="497.7955911823648" cy="340" r="3" fill="#2563eb"></circle><circle class="dot" cx="499.2384769539078" cy="340" r="3" fill="#2563eb"></circle><circle class="dot" cx="500.6813627254509" cy="340" r="3" fill="#2563eb"></circle><circle class="dot" cx="502.124248496994" cy="340" r="3" fill="#2563eb"></circle><circle class="dot" cx="503.5671342685371" cy="340" r="3" fill="#2563eb"></circle><circle class="dot" cx="505.0100200400802" cy="340" r="3" fill="#2563eb"></circle><circle class="dot" cx="506.4529058116233" cy="340" r="3" fill="#2563eb"></circle><circle class="dot" cx="507.8957915831664" cy="340" r="3" fill="#2563eb"></circle><circle class="dot" cx="509.33867735470943" cy="340" r="3" fill="#2563eb"></circle><circle class="dot" cx="510.78156312625254" cy="340" r="3" fill="#2563eb"></circle><circle class="dot" cx="512.2244488977956" cy="340" r="3" fill="#2563eb"></circle><circle class="dot" cx="513.6673346693387" cy="340" r="3" fill="#2563eb"></circle><circle class="dot" cx="515.1102204408818" cy="340" r="3" fill="#2563eb"></circle><circle class="dot" cx="516.5531062124248" cy="340" r="3" fill="#2563eb"></circle><circle class="dot" cx="517.995991983968" cy="340" r="3" fill="#2563eb"></circle><circle class="dot" cx="519.438877755511" cy="340" r="3" fill="#2563eb"></circle><circle class="dot" cx="520.8817635270541" cy="340" r="3" fill="#2563eb"></circle><circle class="dot" cx="522.3246492985971" cy="340" r="3" fill="#2563eb"></circle><circle class="dot" cx="523.7675350701403" cy="340" r="3" fill="#2563eb"></circle><circle class="dot" cx="525.2104208416833" cy="340" r="3" fill="#2563eb"></circle><circle class="dot" cx="526.6533066132264" cy="340" r="3" fill="#2563eb"></circle><circle class="dot" cx="528.0961923847696" cy="340" r="3" fill="#2563eb"></circle><circle class="dot" cx="529.5390781563126" cy="340" r="3" fill="#2563eb"></circle><circle class="dot" cx="530.9819639278556" cy="340" r="3" fill="#2563eb"></circle><circle class="dot" cx="532.4248496993988" cy="340" r="3" fill="#2563eb"></circle><circle class="dot" cx="533.8677354709419" cy="340" r="3" fill="#2563eb"></circle><circle class="dot" cx="535.3106212424849" cy="340" r="3" fill="#2563eb"></circle><circle class="dot" cx="536.7535070140281" cy="340" r="3" fill="#2563eb"></circle><circle class="dot" cx="538.1963927855711" cy="340" r="3" fill="#2563eb"></circle><circle class="dot" cx="539.6392785571142" cy="340" r="3" fill="#2563eb"></circle><circle class="dot" cx="541.0821643286573" cy="340" r="3" fill="#2563eb"></circle><circle class="dot" cx="542.5250501002004" cy="340" r="3" fill="#2563eb"></circle><circle class="dot" cx="543.9679358717435" cy="340" r="3" fill="#2563eb"></circle><circle class="dot" cx="545.4108216432866" cy="340" r="3" fill="#2563eb"></circle><circle class="dot" cx="546.8537074148296" cy="340" r="3" fill="#2563eb"></circle><circle class="dot" cx="548.2965931863728" cy="340" r="3" fill="#2563eb"></circle><circle class="dot" cx="549.7394789579158" cy="340" r="3" fill="#2563eb"></circle><circle class="dot" cx="551.1823647294589" cy="340" r="3" fill="#2563eb"></circle><circle class="dot" cx="552.625250501002" cy="340" r="3" fill="#2563eb"></circle><circle class="dot" cx="554.0681362725451" cy="340" r="3" fill="#2563eb"></circle><circle class="dot" cx="555.5110220440881" cy="340" r="3" fill="#2563eb"></circle><circle class="dot" cx="556.9539078156313" cy="340" r="3" fill="#2563eb"></circle><circle class="dot" cx="558.3967935871743" cy="340" r="3" fill="#2563eb"></circle><circle class="dot" cx="559.8396793587175" cy="340" r="3" fill="#2563eb"></circle><circle class="dot" cx="561.2825651302605" cy="340" r="3" fill="#2563eb"></circle><circle class="dot" cx="562.7254509018036" cy="340" r="3" fill="#2563eb"></circle><circle class="dot" cx="564.1683366733467" cy="340" r="3" fill="#2563eb"></circle><circle class="dot" cx="565.6112224448898" cy="340" r="3" fill="#2563eb"></circle><circle class="dot" cx="567.0541082164328" cy="340" r="3" fill="#2563eb"></circle><circle class="dot" cx="568.496993987976" cy="340" r="3" fill="#2563eb"></circle><circle class="dot" cx="569.939879759519" cy="340" r="3" fill="#2563eb"></circle><circle class="dot" cx="571.3827655310621" cy="340" r="3" fill="#2563eb"></circle><circle class="dot" cx="572.8256513026053" cy="340" r="3" fill="#2563eb"></circle><circle class="dot" cx="574.2685370741483" cy="340" r="3" fill="#2563eb"></circle><circle class="dot" cx="575.7114228456913" cy="340" r="3" fill="#2563eb"></circle><circle class="dot" cx="577.1543086172345" cy="340" r="3" fill="#2563eb"></circle><circle class="dot" cx="578.5971943887776" cy="340" r="3" fill="#2563eb"></circle><circle class="dot" cx="580.0400801603207" cy="340" r="3" fill="#2563eb"></circle><circle class="dot" cx="581.4829659318638" cy="340" r="3" fill="#2563eb"></circle><circle class="dot" cx="582.9258517034068" cy="340" r="3" fill="#2563eb"></circle><circle class="dot" cx="584.36873747495" cy="340" r="3" fill="#2563eb"></circle><circle class="dot" cx="585.811623246493" cy="340" r="3" fill="#2563eb"></circle><circle class="dot" cx="587.2545090180361" cy="340" r="3" fill="#2563eb"></circle><circle class="dot" cx="588.6973947895792" cy="340" r="3" fill="#2563eb"></circle><circle class="dot" cx="590.1402805611223" cy="340" r="3" fill="#2563eb"></circle><circle class="dot" cx="591.5831663326653" cy="340" r="3" fill="#2563eb"></circle><circle class="dot" cx="593.0260521042085" cy="340" r="3" fill="#2563eb"></circle><circle class="dot" cx="594.4689378757515" cy="340" r="3" fill="#2563eb"></circle><circle class="dot" cx="595.9118236472946" cy="340" r="3" fill="#2563eb"></circle><circle class="dot" cx="597.3547094188377" cy="340" r="3" fill="#2563eb"></circle><circle class="dot" cx="598.7975951903808" cy="340" r="3" fill="#2563eb"></circle><circle class="dot" cx="600.2404809619238" cy="340" r="3" fill="#2563eb"></circle><circle class="dot" cx="601.6833667334669" cy="340" r="3" fill="#2563eb"></circle><circle class="dot" cx="603.12625250501" cy="340" r="3" fill="#2563eb"></circle><circle class="dot" cx="604.5691382765531" cy="340" r="3" fill="#2563eb"></circle><circle class="dot" cx="606.0120240480961" cy="340" r="3" fill="#2563eb"></circle><circle class="dot" cx="607.4549098196393" cy="340" r="3" fill="#2563eb"></circle><circle class="dot" cx="608.8977955911823" cy="340" r="3" fill="#2563eb"></circle><circle class="dot" cx="610.3406813627254" cy="340" r="3" fill="#2563eb"></circle><circle class="dot" cx="611.7835671342685" cy="340" r="3" fill="#2563eb"></circle><circle class="dot" cx="613.2264529058116" cy="340" r="3" fill="#2563eb"></circle><circle class="dot" cx="614.6693386773546" cy="340" r="3" fill="#2563eb"></circle><circle class="dot" cx="616.1122244488978" cy="340" r="3" fill="#2563eb"></circle><circle class="dot" cx="617.5551102204408" cy="340" r="3" fill="#2563eb"></circle><circle class="dot" cx="618.997995991984" cy="340" r="3" fill="#2563eb"></circle><circle class="dot" cx="620.440881763527" cy="340" r="3" fill="#2563eb"></circle><circle class="dot" cx="621.8837675350701" cy="340" r="3" fill="#2563eb"></circle><circle class="dot" cx="623.3266533066133" cy="340" r="3" fill="#2563eb"></circle><circle class="dot" cx="624.7695390781563" cy="340" r="3" fill="#2563eb"></circle><circle class="dot" cx="626.2124248496993" cy="340" r="3" fill="#2563eb"></circle><circle class="dot" cx="627.6553106212425" cy="340" r="3" fill="#2563eb"></circle><circle class="dot" cx="629.0981963927856" cy="340" r="3" fill="#2563eb"></circle><circle class="dot" cx="630.5410821643286" cy="340" r="3" fill="#2563eb"></circle><circle class="dot" cx="631.9839679358718" cy="340" r="3" fill="#2563eb"></circle><circle class="dot" cx="633.4268537074148" cy="340" r="3" fill="#2563eb"></circle><circle class="dot" cx="634.8697394789579" cy="340" r="3" fill="#2563eb"></circle><circle class="dot" cx="636.312625250501" cy="340" r="3" fill="#2563eb"></circle><circle class="dot" cx="637.7555110220441" cy="340" r="3" fill="#2563eb"></circle><circle class="dot" cx="639.1983967935872" cy="340" r="3" fill="#2563eb"></circle><circle class="dot" cx="640.6412825651303" cy="340" r="3" fill="#2563eb"></circle><circle class="dot" cx="642.0841683366733" cy="340" r="3" fill="#2563eb"></circle><circle class="dot" cx="643.5270541082165" cy="340" r="3" fill="#2563eb"></circle><circle class="dot" cx="644.9699398797595" cy="340" r="3" fill="#2563eb"></circle><circle class="dot" cx="646.4128256513026" cy="340" r="3" fill="#2563eb"></circle><circle class="dot" cx="647.8557114228457" cy="340" r="3" fill="#2563eb"></circle><circle class="dot" cx="649.2985971943888" cy="340" r="3" fill="#2563eb"></circle><circle class="dot" cx="650.7414829659318" cy="340" r="3" fill="#2563eb"></circle><circle class="dot" cx="652.184368737475" cy="340" r="3" fill="#2563eb"></circle><circle class="dot" cx="653.627254509018" cy="340" r="3" fill="#2563eb"></circle><circle class="dot" cx="655.0701402805612" cy="340" r="3" fill="#2563eb"></circle><circle class="dot" cx="656.5130260521042" cy="340" r="3" fill="#2563eb"></circle><circle class="dot" cx="657.9559118236473" cy="340" r="3" fill="#2563eb"></circle><circle class="dot" cx="659.3987975951904" cy="340" r="3" fill="#2563eb"></circle><circle class="dot" cx="660.8416833667335" cy="340" r="3" fill="#2563eb"></circle><circle class="dot" cx="662.2845691382765" cy="340" r="3" fill="#2563eb"></circle><circle class="dot" cx="663.7274549098197" cy="340" r="3" fill="#2563eb"></circle><circle class="dot" cx="665.1703406813627" cy="340" r="3" fill="#2563eb"></circle><circle class="dot" cx="666.6132264529058" cy="340" r="3" fill="#2563eb"></circle><circle class="dot" cx="668.056112224449" cy="340" r="3" fill="#2563eb"></circle><circle class="dot" cx="669.498997995992" cy="340" r="3" fill="#2563eb"></circle><circle class="dot" cx="670.941883767535" cy="340" r="3" fill="#2563eb"></circle><circle class="dot" cx="672.3847695390782" cy="340" r="3" fill="#2563eb"></circle><circle class="dot" cx="673.8276553106213" cy="340" r="3" fill="#2563eb"></circle><circle class="dot" cx="675.2705410821644" cy="340" r="3" fill="#2563eb"></circle><circle class="dot" cx="676.7134268537075" cy="340" r="3" fill="#2563eb"></circle><circle class="dot" cx="678.1563126252505" cy="340" r="3" fill="#2563eb"></circle><circle class="dot" cx="679.5991983967937" cy="340" r="3" fill="#2563eb"></circle><circle class="dot" cx="681.0420841683366" cy="340" r="3" fill="#2563eb"></circle><circle class="dot" cx="682.4849699398798" cy="340" r="3" fill="#2563eb"></circle><circle class="dot" cx="683.9278557114228" cy="340" r="3" fill="#2563eb"></circle><circle class="dot" cx="685.3707414829659" cy="340" r="3" fill="#2563eb"></circle><circle class="dot" cx="686.813627254509" cy="340" r="3" fill="#2563eb"></circle><circle class="dot" cx="688.2565130260521" cy="340" r="3" fill="#2563eb"></circle><circle class="dot" cx="689.6993987975951" cy="340" r="3" fill="#2563eb"></circle><circle class="dot" cx="691.1422845691383" cy="340" r="3" fill="#2563eb"></circle><circle class="dot" cx="692.5851703406813" cy="340" r="3" fill="#2563eb"></circle><circle class="dot" cx="694.0280561122245" cy="340" r="3" fill="#2563eb"></circle><circle class="dot" cx="695.4709418837675" cy="340" r="3" fill="#2563eb"></circle><circle class="dot" cx="696.9138276553106" cy="340" r="3" fill="#2563eb"></circle><circle class="dot" cx="698.3567134268537" cy="340" r="3" fill="#2563eb"></circle><circle class="dot" cx="699.7995991983968" cy="340" r="3" fill="#2563eb"></circle><circle class="dot" cx="701.2424849699398" cy="340" r="3" fill="#2563eb"></circle><circle class="dot" cx="702.685370741483" cy="340" r="3" fill="#2563eb"></circle><circle class="dot" cx="704.128256513026" cy="340" r="3" fill="#2563eb"></circle><circle class="dot" cx="705.5711422845691" cy="340" r="3" fill="#2563eb"></circle><circle class="dot" cx="707.0140280561122" cy="340" r="3" fill="#2563eb"></circle><circle class="dot" cx="708.4569138276553" cy="340" r="3" fill="#2563eb"></circle><circle class="dot" cx="709.8997995991983" cy="340" r="3" fill="#2563eb"></circle><circle class="dot" cx="711.3426853707415" cy="340" r="3" fill="#2563eb"></circle><circle class="dot" cx="712.7855711422845" cy="340" r="3" fill="#2563eb"></circle><circle class="dot" cx="714.2284569138277" cy="340" r="3" fill="#2563eb"></circle><circle class="dot" cx="715.6713426853707" cy="340" r="3" fill="#2563eb"></circle><circle class="dot" cx="717.1142284569138" cy="340" r="3" fill="#2563eb"></circle><circle class="dot" cx="718.557114228457" cy="340" r="3" fill="#2563eb"></circle><circle class="dot" cx="720" cy="340" r="3" fill="#2563eb"></circle><g class="grid" transform="translate(0,340)" fill="none" font-size="10" font-family="sans-serif" text-anchor="middle" style="stroke-dasharray: 3,3; opacity: 0.3;"><path class="domain" stroke="currentColor" d="M0.5,-340V0.5H720.5V-340"></path><g class="tick" opacity="1" transform="translate(0.5,0)"><line stroke="currentColor" y2="-340"></line><text fill="currentColor" y="3" dy="0.71em"></text></g><g class="tick" opacity="1" transform="translate(35.12925851703407,0)"><line stroke="currentColor" y2="-340"></line><text fill="currentColor" y="3" dy="0.71em"></text></g><g class="tick" opacity="1" transform="translate(69.75851703406813,0)"><line stroke="currentColor" y2="-340"></line><text fill="currentColor" y="3" dy="0.71em"></text></g><g class="tick" opacity="1" transform="translate(104.38777555110221,0)"><line stroke="currentColor" y2="-340"></line><text fill="currentColor" y="3" dy="0.71em"></text></g><g class="tick" opacity="1" transform="translate(139.01703406813627,0)"><line stroke="currentColor" y2="-340"></line><text fill="currentColor" y="3" dy="0.71em"></text></g><g class="tick" opacity="1" transform="translate(173.64629258517033,0)"><line stroke="currentColor" y2="-340"></line><text fill="currentColor" y="3" dy="0.71em"></text></g><g class="tick" opacity="1" transform="translate(208.27555110220442,0)"><line stroke="currentColor" y2="-340"></line><text fill="currentColor" y="3" dy="0.71em"></text></g><g class="tick" opacity="1" transform="translate(242.90480961923848,0)"><line stroke="currentColor" y2="-340"></line><text fill="currentColor" y="3" dy="0.71em"></text></g><g class="tick" opacity="1" transform="translate(277.53406813627254,0)"><line stroke="currentColor" y2="-340"></line><text fill="currentColor" y="3" dy="0.71em"></text></g><g class="tick" opacity="1" transform="translate(312.1633266533066,0)"><line stroke="currentColor" y2="-340"></line><text fill="currentColor" y="3" dy="0.71em"></text></g><g class="tick" opacity="1" transform="translate(346.79258517034066,0)"><line stroke="currentColor" y2="-340"></line><text fill="currentColor" y="3" dy="0.71em"></text></g><g class="tick" opacity="1" transform="translate(381.42184368737475,0)"><line stroke="currentColor" y2="-340"></line><text fill="currentColor" y="3" dy="0.71em"></text></g><g class="tick" opacity="1" transform="translate(416.05110220440883,0)"><line stroke="currentColor" y2="-340"></line><text fill="currentColor" y="3" dy="0.71em"></text></g><g class="tick" opacity="1" transform="translate(450.68036072144287,0)"><line stroke="currentColor" y2="-340"></line><text fill="currentColor" y="3" dy="0.71em"></text></g><g class="tick" opacity="1" transform="translate(485.30961923847696,0)"><line stroke="currentColor" y2="-340"></line><text fill="currentColor" y="3" dy="0.71em"></text></g><g class="tick" opacity="1" transform="translate(519.938877755511,0)"><line stroke="currentColor" y2="-340"></line><text fill="currentColor" y="3" dy="0.71em"></text></g><g class="tick" opacity="1" transform="translate(554.5681362725451,0)"><line stroke="currentColor" y2="-340"></line><text fill="currentColor" y="3" dy="0.71em"></text></g><g class="tick" opacity="1" transform="translate(589.1973947895792,0)"><line stroke="currentColor" y2="-340"></line><text fill="currentColor" y="3" dy="0.71em"></text></g><g class="tick" opacity="1" transform="translate(623.8266533066133,0)"><line stroke="currentColor" y2="-340"></line><text fill="currentColor" y="3" dy="0.71em"></text></g><g class="tick" opacity="1" transform="translate(658.4559118236473,0)"><line stroke="currentColor" y2="-340"></line><text fill="currentColor" y="3" dy="0.71em"></text></g><g class="tick" opacity="1" transform="translate(693.0851703406813,0)"><line stroke="currentColor" y2="-340"></line><text fill="currentColor" y="3" dy="0.71em"></text></g></g><g class="grid" fill="none" font-size="10" font-family="sans-serif" text-anchor="end" style="stroke-dasharray: 3,3; opacity: 0.3;"><path class="domain" stroke="currentColor" d="M720,340.5H0.5V0.5H720"></path><g class="tick" opacity="1" transform="translate(0,340.5)"><line stroke="currentColor" x2="720"></line><text fill="currentColor" x="-3" dy="0.32em"></text></g><g class="tick" opacity="1" transform="translate(0,297.99999999999994)"><line stroke="currentColor" x2="720"></line><text fill="currentColor" x="-3" dy="0.32em"></text></g><g class="tick" opacity="1" transform="translate(0,255.49999999999991)"><line stroke="currentColor" x2="720"></line><text fill="currentColor" x="-3" dy="0.32em"></text></g><g class="tick" opacity="1" transform="translate(0,212.9999999999999)"><line stroke="currentColor" x2="720"></line><text fill="currentColor" x="-3" dy="0.32em"></text></g><g class="tick" opacity="1" transform="translate(0,170.49999999999986)"><line stroke="currentColor" x2="720"></line><text fill="currentColor" x="-3" dy="0.32em"></text></g><g class="tick" opacity="1" transform="translate(0,127.99999999999982)"><line stroke="currentColor" x2="720"></line><text fill="currentColor" x="-3" dy="0.32em"></text></g><g class="tick" opacity="1" transform="translate(0,85.50000000000007)"><line stroke="currentColor" x2="720"></line><text fill="currentColor" x="-3" dy="0.32em"></text></g><g class="tick" opacity="1" transform="translate(0,43.000000000000036)"><line stroke="currentColor" x2="720"></line><text fill="currentColor" x="-3" dy="0.32em"></text></g><g class="tick" opacity="1" transform="translate(0,0.5)"><line stroke="currentColor" x2="720"></line><text fill="currentColor" x="-3" dy="0.32em"></text></g></g></g><text x="400" y="10" text-anchor="middle" style="font-size: 16px; font-weight: bold; fill: #333;">OKX USDT Lending Rate - Current Month</text></svg>