<svg width="800" height="400" xmlns="http://www.w3.org/2000/svg"><g transform="translate(50,20)"><g transform="translate(0,340)" fill="none" font-size="10" font-family="sans-serif" text-anchor="middle"><path class="domain" stroke="currentColor" d="M0.5,6V0.5H720.5V6"></path><g class="tick" opacity="1" transform="translate(0.5,0)"><line stroke="currentColor" y2="6"></line><text fill="currentColor" y="9" dy=".15em" style="text-anchor: end;" dx="-.8em" transform="rotate(-45)">09/01</text></g><g class="tick" opacity="1" transform="translate(35.06,0)"><line stroke="currentColor" y2="6"></line><text fill="currentColor" y="9" dy=".15em" style="text-anchor: end;" dx="-.8em" transform="rotate(-45)">09/02</text></g><g class="tick" opacity="1" transform="translate(69.62,0)"><line stroke="currentColor" y2="6"></line><text fill="currentColor" y="9" dy=".15em" style="text-anchor: end;" dx="-.8em" transform="rotate(-45)">09/03</text></g><g class="tick" opacity="1" transform="translate(104.17999999999999,0)"><line stroke="currentColor" y2="6"></line><text fill="currentColor" y="9" dy=".15em" style="text-anchor: end;" dx="-.8em" transform="rotate(-45)">09/04</text></g><g class="tick" opacity="1" transform="translate(138.74,0)"><line stroke="currentColor" y2="6"></line><text fill="currentColor" y="9" dy=".15em" style="text-anchor: end;" dx="-.8em" transform="rotate(-45)">09/05</text></g><g class="tick" opacity="1" transform="translate(173.29999999999998,0)"><line stroke="currentColor" y2="6"></line><text fill="currentColor" y="9" dy=".15em" style="text-anchor: end;" dx="-.8em" transform="rotate(-45)">09/06</text></g><g class="tick" opacity="1" transform="translate(207.85999999999999,0)"><line stroke="currentColor" y2="6"></line><text fill="currentColor" y="9" dy=".15em" style="text-anchor: end;" dx="-.8em" transform="rotate(-45)">09/07</text></g><g class="tick" opacity="1" transform="translate(242.42000000000002,0)"><line stroke="currentColor" y2="6"></line><text fill="currentColor" y="9" dy=".15em" style="text-anchor: end;" dx="-.8em" transform="rotate(-45)">09/08</text></g><g class="tick" opacity="1" transform="translate(276.98,0)"><line stroke="currentColor" y2="6"></line><text fill="currentColor" y="9" dy=".15em" style="text-anchor: end;" dx="-.8em" transform="rotate(-45)">09/09</text></g><g class="tick" opacity="1" transform="translate(311.54,0)"><line stroke="currentColor" y2="6"></line><text fill="currentColor" y="9" dy=".15em" style="text-anchor: end;" dx="-.8em" transform="rotate(-45)">09/10</text></g><g class="tick" opacity="1" transform="translate(346.09999999999997,0)"><line stroke="currentColor" y2="6"></line><text fill="currentColor" y="9" dy=".15em" style="text-anchor: end;" dx="-.8em" transform="rotate(-45)">09/11</text></g><g class="tick" opacity="1" transform="translate(380.66,0)"><line stroke="currentColor" y2="6"></line><text fill="currentColor" y="9" dy=".15em" style="text-anchor: end;" dx="-.8em" transform="rotate(-45)">09/12</text></g><g class="tick" opacity="1" transform="translate(415.21999999999997,0)"><line stroke="currentColor" y2="6"></line><text fill="currentColor" y="9" dy=".15em" style="text-anchor: end;" dx="-.8em" transform="rotate(-45)">09/13</text></g><g class="tick" opacity="1" transform="translate(449.78,0)"><line stroke="currentColor" y2="6"></line><text fill="currentColor" y="9" dy=".15em" style="text-anchor: end;" dx="-.8em" transform="rotate(-45)">09/14</text></g><g class="tick" opacity="1" transform="translate(484.34000000000003,0)"><line stroke="currentColor" y2="6"></line><text fill="currentColor" y="9" dy=".15em" style="text-anchor: end;" dx="-.8em" transform="rotate(-45)">09/15</text></g><g class="tick" opacity="1" transform="translate(518.9,0)"><line stroke="currentColor" y2="6"></line><text fill="currentColor" y="9" dy=".15em" style="text-anchor: end;" dx="-.8em" transform="rotate(-45)">09/16</text></g><g class="tick" opacity="1" transform="translate(553.46,0)"><line stroke="currentColor" y2="6"></line><text fill="currentColor" y="9" dy=".15em" style="text-anchor: end;" dx="-.8em" transform="rotate(-45)">09/17</text></g><g class="tick" opacity="1" transform="translate(588.02,0)"><line stroke="currentColor" y2="6"></line><text fill="currentColor" y="9" dy=".15em" style="text-anchor: end;" dx="-.8em" transform="rotate(-45)">09/18</text></g><g class="tick" opacity="1" transform="translate(622.58,0)"><line stroke="currentColor" y2="6"></line><text fill="currentColor" y="9" dy=".15em" style="text-anchor: end;" dx="-.8em" transform="rotate(-45)">09/19</text></g><g class="tick" opacity="1" transform="translate(657.14,0)"><line stroke="currentColor" y2="6"></line><text fill="currentColor" y="9" dy=".15em" style="text-anchor: end;" dx="-.8em" transform="rotate(-45)">09/20</text></g><g class="tick" opacity="1" transform="translate(691.6999999999999,0)"><line stroke="currentColor" y2="6"></line><text fill="currentColor" y="9" dy=".15em" style="text-anchor: end;" dx="-.8em" transform="rotate(-45)">09/21</text></g></g><g fill="none" font-size="10" font-family="sans-serif" text-anchor="end"><path class="domain" stroke="currentColor" d="M-6,340.5H0.5V0.5H-6"></path><g class="tick" opacity="1" transform="translate(0,340.5)"><line stroke="currentColor" x2="-6"></line><text fill="currentColor" x="-9" dy="0.32em">4.00%</text></g><g class="tick" opacity="1" transform="translate(0,314.34615384615387)"><line stroke="currentColor" x2="-6"></line><text fill="currentColor" x="-9" dy="0.32em">6.00%</text></g><g class="tick" opacity="1" transform="translate(0,288.1923076923077)"><line stroke="currentColor" x2="-6"></line><text fill="currentColor" x="-9" dy="0.32em">8.00%</text></g><g class="tick" opacity="1" transform="translate(0,262.0384615384615)"><line stroke="currentColor" x2="-6"></line><text fill="currentColor" x="-9" dy="0.32em">10.00%</text></g><g class="tick" opacity="1" transform="translate(0,235.8846153846154)"><line stroke="currentColor" x2="-6"></line><text fill="currentColor" x="-9" dy="0.32em">12.00%</text></g><g class="tick" opacity="1" transform="translate(0,209.73076923076925)"><line stroke="currentColor" x2="-6"></line><text fill="currentColor" x="-9" dy="0.32em">14.00%</text></g><g class="tick" opacity="1" transform="translate(0,183.5769230769231)"><line stroke="currentColor" x2="-6"></line><text fill="currentColor" x="-9" dy="0.32em">16.00%</text></g><g class="tick" opacity="1" transform="translate(0,157.42307692307693)"><line stroke="currentColor" x2="-6"></line><text fill="currentColor" x="-9" dy="0.32em">18.00%</text></g><g class="tick" opacity="1" transform="translate(0,131.26923076923075)"><line stroke="currentColor" x2="-6"></line><text fill="currentColor" x="-9" dy="0.32em">20.00%</text></g><g class="tick" opacity="1" transform="translate(0,105.11538461538463)"><line stroke="currentColor" x2="-6"></line><text fill="currentColor" x="-9" dy="0.32em">22.00%</text></g><g class="tick" opacity="1" transform="translate(0,78.96153846153848)"><line stroke="currentColor" x2="-6"></line><text fill="currentColor" x="-9" dy="0.32em">24.00%</text></g><g class="tick" opacity="1" transform="translate(0,52.807692307692314)"><line stroke="currentColor" x2="-6"></line><text fill="currentColor" x="-9" dy="0.32em">26.00%</text></g><g class="tick" opacity="1" transform="translate(0,26.653846153846136)"><line stroke="currentColor" x2="-6"></line><text fill="currentColor" x="-9" dy="0.32em">28.00%</text></g><g class="tick" opacity="1" transform="translate(0,0.5)"><line stroke="currentColor" x2="-6"></line><text fill="currentColor" x="-9" dy="0.32em">30.00%</text></g></g><text transform="rotate(-90)" y="-50" x="-170" dy="1em" style="text-anchor: middle; font-size: 12px; fill: #666;">Pre Rate (%)</text><text transform="translate(360, 380)" style="text-anchor: middle; font-size: 12px; fill: #666;">Time (UTC)</text><path fill="none" stroke="#2563eb" stroke-width="2" d="M0,340C0.48,340,0.96,340,1.44,340C1.92,340,2.4,340,2.88,340C3.36,340,3.84,340,4.32,340C4.8,340,5.28,340,5.76,340C6.24,340,6.72,340,7.2,340C7.68,340,8.16,340,8.64,340C9.12,340,9.6,340,10.08,340C10.56,340,11.04,296.41,11.52,287.692C12,278.974,12.48,274.615,12.96,274.615C13.44,274.615,13.92,292.051,14.4,300.769C14.88,309.487,15.36,326.923,15.84,326.923C16.32,326.923,16.8,322.564,17.28,313.846C17.76,305.128,18.24,274.615,18.72,274.615C19.2,274.615,19.68,300.769,20.16,300.769C20.64,300.769,21.12,300.769,21.6,300.769C22.08,300.769,22.56,300.769,23.04,300.769C23.52,300.769,24,300.769,24.48,300.769C24.96,300.769,25.44,326.923,25.92,326.923C26.4,326.923,26.88,318.205,27.36,313.846C27.84,309.487,28.32,300.769,28.8,300.769C29.28,300.769,29.76,340,30.24,340C30.72,340,31.2,340,31.68,340C32.16,340,32.64,340,33.12,340C33.6,340,34.08,313.846,34.56,313.846C35.04,313.846,35.52,326.923,36,326.923C36.48,326.923,36.96,322.564,37.44,313.846C37.92,305.128,38.4,283.333,38.88,274.615C39.36,265.897,39.84,261.538,40.32,261.538C40.8,261.538,41.28,270.256,41.76,274.615C42.24,278.974,42.72,287.692,43.2,287.692C43.68,287.692,44.16,235.385,44.64,235.385C45.12,235.385,45.6,252.821,46.08,261.538C46.56,270.256,47.04,287.692,47.52,287.692C48,287.692,48.48,287.692,48.96,287.692C49.44,287.692,49.92,287.692,50.4,287.692C50.88,287.692,51.36,296.41,51.84,300.769C52.32,305.128,52.8,313.846,53.28,313.846C53.76,313.846,54.24,235.385,54.72,235.385C55.2,235.385,55.68,248.462,56.16,261.538C56.64,274.615,57.12,313.846,57.6,313.846C58.08,313.846,58.56,287.692,59.04,287.692C59.52,287.692,60,300.769,60.48,300.769C60.96,300.769,61.44,300.769,61.92,300.769C62.4,300.769,62.88,313.846,63.36,313.846C63.84,313.846,64.32,261.538,64.8,261.538C65.28,261.538,65.76,261.538,66.24,261.538C66.72,261.538,67.2,248.462,67.68,248.462C68.16,248.462,68.64,248.462,69.12,248.462C69.6,248.462,70.08,261.538,70.56,261.538C71.04,261.538,71.52,248.462,72,248.462C72.48,248.462,72.96,248.462,73.44,248.462C73.92,248.462,74.4,268.077,74.88,274.615C75.36,281.154,75.84,281.154,76.32,287.692C76.8,294.231,77.28,307.308,77.76,313.846C78.24,320.385,78.72,326.923,79.2,326.923C79.68,326.923,80.16,313.846,80.64,313.846C81.12,313.846,81.6,340,82.08,340C82.56,340,83.04,326.923,83.52,326.923C84,326.923,84.48,326.923,84.96,326.923C85.44,326.923,85.92,326.923,86.4,326.923C86.88,326.923,87.36,340,87.84,340C88.32,340,88.8,292.051,89.28,274.615C89.76,257.179,90.24,235.385,90.72,235.385C91.2,235.385,91.68,241.923,92.16,248.462C92.64,255,93.12,265.897,93.6,274.615C94.08,283.333,94.56,294.231,95.04,300.769C95.52,307.308,96,313.846,96.48,313.846C96.96,313.846,97.44,305.128,97.92,300.769C98.4,296.41,98.88,287.692,99.36,287.692C99.84,287.692,100.32,287.692,100.8,287.692C101.28,287.692,101.76,287.692,102.24,287.692C102.72,287.692,103.2,287.692,103.68,287.692C104.16,287.692,104.64,261.538,105.12,261.538C105.6,261.538,106.08,265.897,106.56,274.615C107.04,283.333,107.52,313.846,108,313.846C108.48,313.846,108.96,313.846,109.44,313.846C109.92,313.846,110.4,313.846,110.88,313.846C111.36,313.846,111.84,313.846,112.32,313.846C112.8,313.846,113.28,326.923,113.76,326.923C114.24,326.923,114.72,300.769,115.2,300.769C115.68,300.769,116.16,300.769,116.64,300.769C117.12,300.769,117.6,287.692,118.08,287.692C118.56,287.692,119.04,300.769,119.52,300.769C120,300.769,120.48,300.769,120.96,300.769C121.44,300.769,121.92,307.308,122.4,313.846C122.88,320.385,123.36,340,123.84,340C124.32,340,124.8,340,125.28,340C125.76,340,126.24,340,126.72,340C127.2,340,127.68,340,128.16,340C128.64,340,129.12,340,129.6,340C130.08,340,130.56,340,131.04,340C131.52,340,132,340,132.48,340C132.96,340,133.44,340,133.92,340C134.4,340,134.88,340,135.36,340C135.84,340,136.32,340,136.8,340C137.28,340,137.76,340,138.24,340C138.72,340,139.2,340,139.68,340C140.16,340,140.64,340,141.12,340C141.6,340,142.08,340,142.56,340C143.04,340,143.52,340,144,340C144.48,340,144.96,340,145.44,340C145.92,340,146.4,340,146.88,340C147.36,340,147.84,340,148.32,340C148.8,340,149.28,274.615,149.76,274.615C150.24,274.615,150.72,340,151.2,340C151.68,340,152.16,340,152.64,340C153.12,340,153.6,340,154.08,340C154.56,340,155.04,335.641,155.52,326.923C156,318.205,156.48,248.462,156.96,248.462C157.44,248.462,157.92,252.821,158.4,261.538C158.88,270.256,159.36,340,159.84,340C160.32,340,160.8,331.282,161.28,326.923C161.76,322.564,162.24,313.846,162.72,313.846C163.2,313.846,163.68,326.923,164.16,326.923C164.64,326.923,165.12,313.846,165.6,313.846C166.08,313.846,166.56,313.846,167.04,313.846C167.52,313.846,168,313.846,168.48,313.846C168.96,313.846,169.44,340,169.92,340C170.4,340,170.88,340,171.36,340C171.84,340,172.32,340,172.8,340C173.28,340,173.76,326.923,174.24,326.923C174.72,326.923,175.2,340,175.68,340C176.16,340,176.64,340,177.12,340C177.6,340,178.08,340,178.56,340C179.04,340,179.52,340,180,340C180.48,340,180.96,340,181.44,340C181.92,340,182.4,340,182.88,340C183.36,340,183.84,340,184.32,340C184.8,340,185.28,340,185.76,340C186.24,340,186.72,340,187.2,340C187.68,340,188.16,340,188.64,340C189.12,340,189.6,340,190.08,340C190.56,340,191.04,340,191.52,340C192,340,192.48,340,192.96,340C193.44,340,193.92,340,194.4,340C194.88,340,195.36,340,195.84,340C196.32,340,196.8,340,197.28,340C197.76,340,198.24,340,198.72,340C199.2,340,199.68,340,200.16,340C200.64,340,201.12,340,201.6,340C202.08,340,202.56,340,203.04,340C203.52,340,204,340,204.48,340C204.96,340,205.44,340,205.92,340C206.4,340,206.88,340,207.36,340C207.84,340,208.32,340,208.8,340C209.28,340,209.76,340,210.24,340C210.72,340,211.2,340,211.68,340C212.16,340,212.64,340,213.12,340C213.6,340,214.08,340,214.56,340C215.04,340,215.52,340,216,340C216.48,340,216.96,340,217.44,340C217.92,340,218.4,313.846,218.88,313.846C219.36,313.846,219.84,322.564,220.32,326.923C220.8,331.282,221.28,340,221.76,340C222.24,340,222.72,331.282,223.2,326.923C223.68,322.564,224.16,313.846,224.64,313.846C225.12,313.846,225.6,313.846,226.08,313.846C226.56,313.846,227.04,307.308,227.52,300.769C228,294.231,228.48,274.615,228.96,274.615C229.44,274.615,229.92,274.615,230.4,274.615C230.88,274.615,231.36,283.333,231.84,287.692C232.32,292.051,232.8,300.769,233.28,300.769C233.76,300.769,234.24,300.769,234.72,300.769C235.2,300.769,235.68,287.692,236.16,287.692C236.64,287.692,237.12,300.769,237.6,300.769C238.08,300.769,238.56,300.769,239.04,300.769C239.52,300.769,240,274.615,240.48,274.615C240.96,274.615,241.44,274.615,241.92,274.615C242.4,274.615,242.88,261.538,243.36,261.538C243.84,261.538,244.32,261.538,244.8,261.538C245.28,261.538,245.76,248.462,246.24,248.462C246.72,248.462,247.2,257.179,247.68,261.538C248.16,265.897,248.64,274.615,249.12,274.615C249.6,274.615,250.08,274.615,250.56,274.615C251.04,274.615,251.52,287.692,252,287.692C252.48,287.692,252.96,287.692,253.44,287.692C253.92,287.692,254.4,281.154,254.88,274.615C255.36,268.077,255.84,255,256.32,248.462C256.8,241.923,257.28,235.385,257.76,235.385C258.24,235.385,258.72,235.385,259.2,235.385C259.68,235.385,260.16,235.385,260.64,235.385C261.12,235.385,261.6,248.462,262.08,248.462C262.56,248.462,263.04,231.026,263.52,222.308C264,213.59,264.48,196.154,264.96,196.154C265.44,196.154,265.92,202.692,266.4,209.231C266.88,215.769,267.36,235.385,267.84,235.385C268.32,235.385,268.8,209.231,269.28,209.231C269.76,209.231,270.24,248.462,270.72,248.462C271.2,248.462,271.68,248.462,272.16,248.462C272.64,248.462,273.12,222.308,273.6,222.308C274.08,222.308,274.56,231.026,275.04,235.385C275.52,239.744,276,248.462,276.48,248.462C276.96,248.462,277.44,248.462,277.92,248.462C278.4,248.462,278.88,196.154,279.36,196.154C279.84,196.154,280.32,196.154,280.8,196.154C281.28,196.154,281.76,183.077,282.24,183.077C282.72,183.077,283.2,248.462,283.68,248.462C284.16,248.462,284.64,248.462,285.12,248.462C285.6,248.462,286.08,204.872,286.56,196.154C287.04,187.436,287.52,183.077,288,183.077C288.48,183.077,288.96,183.077,289.44,183.077C289.92,183.077,290.4,183.077,290.88,183.077C291.36,183.077,291.84,191.795,292.32,196.154C292.8,200.513,293.28,209.231,293.76,209.231C294.24,209.231,294.72,200.513,295.2,196.154C295.68,191.795,296.16,183.077,296.64,183.077C297.12,183.077,297.6,224.487,298.08,248.462C298.56,272.436,299.04,326.923,299.52,326.923C300,326.923,300.48,326.923,300.96,326.923C301.44,326.923,301.92,318.205,302.4,313.846C302.88,309.487,303.36,305.128,303.84,300.769C304.32,296.41,304.8,287.692,305.28,287.692C305.76,287.692,306.24,287.692,306.72,287.692C307.2,287.692,307.68,300.769,308.16,300.769C308.64,300.769,309.12,287.692,309.6,287.692C310.08,287.692,310.56,287.692,311.04,287.692C311.52,287.692,312,313.846,312.48,313.846C312.96,313.846,313.44,307.308,313.92,300.769C314.4,294.231,314.88,274.615,315.36,274.615C315.84,274.615,316.32,274.615,316.8,274.615C317.28,274.615,317.76,283.333,318.24,287.692C318.72,292.051,319.2,300.769,319.68,300.769C320.16,300.769,320.64,239.744,321.12,222.308C321.6,204.872,322.08,196.154,322.56,196.154C323.04,196.154,323.52,222.308,324,222.308C324.48,222.308,324.96,222.308,325.44,222.308C325.92,222.308,326.4,226.667,326.88,235.385C327.36,244.103,327.84,326.923,328.32,326.923C328.8,326.923,329.28,292.051,329.76,274.615C330.24,257.179,330.72,222.308,331.2,222.308C331.68,222.308,332.16,237.564,332.64,248.462C333.12,259.359,333.6,278.974,334.08,287.692C334.56,296.41,335.04,296.41,335.52,300.769C336,305.128,336.48,307.308,336.96,313.846C337.44,320.385,337.92,340,338.4,340C338.88,340,339.36,340,339.84,340C340.32,340,340.8,340,341.28,340C341.76,340,342.24,340,342.72,340C343.2,340,343.68,340,344.16,340C344.64,340,345.12,340,345.6,340C346.08,340,346.56,340,347.04,340C347.52,340,348,340,348.48,340C348.96,340,349.44,340,349.92,340C350.4,340,350.88,326.923,351.36,326.923C351.84,326.923,352.32,326.923,352.8,326.923C353.28,326.923,353.76,326.923,354.24,326.923C354.72,326.923,355.2,313.846,355.68,313.846C356.16,313.846,356.64,313.846,357.12,313.846C357.6,313.846,358.08,340,358.56,340C359.04,340,359.52,340,360,340C360.48,340,360.96,326.923,361.44,326.923C361.92,326.923,362.4,326.923,362.88,326.923C363.36,326.923,363.84,296.41,364.32,287.692C364.8,278.974,365.28,274.615,365.76,274.615C366.24,274.615,366.72,281.154,367.2,287.692C367.68,294.231,368.16,313.846,368.64,313.846C369.12,313.846,369.6,313.846,370.08,313.846C370.56,313.846,371.04,340,371.52,340C372,340,372.48,340,372.96,340C373.44,340,373.92,340,374.4,340C374.88,340,375.36,340,375.84,340C376.32,340,376.8,340,377.28,340C377.76,340,378.24,333.462,378.72,326.923C379.2,320.385,379.68,316.026,380.16,300.769C380.64,285.513,381.12,235.385,381.6,235.385C382.08,235.385,382.56,261.538,383.04,261.538C383.52,261.538,384,248.462,384.48,248.462C384.96,248.462,385.44,248.462,385.92,248.462C386.4,248.462,386.88,244.103,387.36,235.385C387.84,226.667,388.32,213.59,388.8,196.154C389.28,178.718,389.76,130.769,390.24,130.769C390.72,130.769,391.2,148.205,391.68,156.923C392.16,165.641,392.64,170,393.12,183.077C393.6,196.154,394.08,235.385,394.56,235.385C395.04,235.385,395.52,235.385,396,235.385C396.48,235.385,396.96,235.385,397.44,235.385C397.92,235.385,398.4,235.385,398.88,235.385C399.36,235.385,399.84,235.385,400.32,235.385C400.8,235.385,401.28,222.308,401.76,222.308C402.24,222.308,402.72,248.462,403.2,248.462C403.68,248.462,404.16,241.923,404.64,235.385C405.12,228.846,405.6,217.949,406.08,209.231C406.56,200.513,407.04,196.154,407.52,183.077C408,170,408.48,130.769,408.96,130.769C409.44,130.769,409.92,130.769,410.4,130.769C410.88,130.769,411.36,156.923,411.84,156.923C412.32,156.923,412.8,100.256,413.28,91.538C413.76,82.821,414.24,78.462,414.72,78.462C415.2,78.462,415.68,78.462,416.16,78.462C416.64,78.462,417.12,104.615,417.6,104.615C418.08,104.615,418.56,100.256,419.04,91.538C419.52,82.821,420,52.308,420.48,52.308C420.96,52.308,421.44,52.308,421.92,52.308C422.4,52.308,422.88,65.385,423.36,65.385C423.84,65.385,424.32,65.385,424.8,65.385C425.28,65.385,425.76,56.667,426.24,52.308C426.72,47.949,427.2,45.769,427.68,39.231C428.16,32.692,428.64,13.077,429.12,13.077C429.6,13.077,430.08,54.487,430.56,78.462C431.04,102.436,431.52,113.333,432,156.923C432.48,200.513,432.96,340,433.44,340C433.92,340,434.4,340,434.88,340C435.36,340,435.84,340,436.32,340C436.8,340,437.28,340,437.76,340C438.24,340,438.72,340,439.2,340C439.68,340,440.16,340,440.64,340C441.12,340,441.6,340,442.08,340C442.56,340,443.04,340,443.52,340C444,340,444.48,340,444.96,340C445.44,340,445.92,340,446.4,340C446.88,340,447.36,340,447.84,340C448.32,340,448.8,313.846,449.28,313.846C449.76,313.846,450.24,313.846,450.72,313.846C451.2,313.846,451.68,289.872,452.16,274.615C452.64,259.359,453.12,222.308,453.6,222.308C454.08,222.308,454.56,287.692,455.04,287.692C455.52,287.692,456,283.333,456.48,274.615C456.96,265.897,457.44,222.308,457.92,222.308C458.4,222.308,458.88,248.462,459.36,248.462C459.84,248.462,460.32,248.462,460.8,248.462C461.28,248.462,461.76,248.462,462.24,248.462C462.72,248.462,463.2,235.385,463.68,235.385C464.16,235.385,464.64,239.744,465.12,248.462C465.6,257.179,466.08,326.923,466.56,326.923C467.04,326.923,467.52,326.923,468,326.923C468.48,326.923,468.96,340,469.44,340C469.92,340,470.4,340,470.88,340C471.36,340,471.84,340,472.32,340C472.8,340,473.28,307.308,473.76,287.692C474.24,268.077,474.72,222.308,475.2,222.308C475.68,222.308,476.16,261.538,476.64,274.615C477.12,287.692,477.6,300.769,478.08,300.769C478.56,300.769,479.04,294.231,479.52,287.692C480,281.154,480.48,261.538,480.96,261.538C481.44,261.538,481.92,274.615,482.4,287.692C482.88,300.769,483.36,340,483.84,340C484.32,340,484.8,331.282,485.28,326.923C485.76,322.564,486.24,313.846,486.72,313.846C487.2,313.846,487.68,340,488.16,340C488.64,340,489.12,340,489.6,340C490.08,340,490.56,340,491.04,340C491.52,340,492,340,492.48,340C492.96,340,493.44,340,493.92,340C494.4,340,494.88,340,495.36,340C495.84,340,496.32,340,496.8,340C497.28,340,497.76,340,498.24,340C498.72,340,499.2,340,499.68,340C500.16,340,500.64,340,501.12,340C501.6,340,502.08,340,502.56,340C503.04,340,503.52,340,504,340C504.48,340,504.96,340,505.44,340C505.92,340,506.4,340,506.88,340C507.36,340,507.84,340,508.32,340C508.8,340,509.28,340,509.76,340C510.24,340,510.72,340,511.2,340C511.68,340,512.16,340,512.64,340C513.12,340,513.6,340,514.08,340C514.56,340,515.04,340,515.52,340C516,340,516.48,340,516.96,340C517.44,340,517.92,340,518.4,340C518.88,340,519.36,340,519.84,340C520.32,340,520.8,340,521.28,340C521.76,340,522.24,340,522.72,340C523.2,340,523.68,340,524.16,340C524.64,340,525.12,340,525.6,340C526.08,340,526.56,340,527.04,340C527.52,340,528,340,528.48,340C528.96,340,529.44,340,529.92,340C530.4,340,530.88,340,531.36,340C531.84,340,532.32,340,532.8,340C533.28,340,533.76,340,534.24,340C534.72,340,535.2,340,535.68,340C536.16,340,536.64,340,537.12,340C537.6,340,538.08,340,538.56,340C539.04,340,539.52,340,540,340C540.48,340,540.96,340,541.44,340C541.92,340,542.4,340,542.88,340C543.36,340,543.84,340,544.32,340C544.8,340,545.28,340,545.76,340C546.24,340,546.72,340,547.2,340C547.68,340,548.16,340,548.64,340C549.12,340,549.6,340,550.08,340C550.56,340,551.04,340,551.52,340C552,340,552.48,340,552.96,340C553.44,340,553.92,340,554.4,340C554.88,340,555.36,340,555.84,340C556.32,340,556.8,340,557.28,340C557.76,340,558.24,340,558.72,340C559.2,340,559.68,340,560.16,340C560.64,340,561.12,340,561.6,340C562.08,340,562.56,340,563.04,340C563.52,340,564,340,564.48,340C564.96,340,565.44,340,565.92,340C566.4,340,566.88,340,567.36,340C567.84,340,568.32,340,568.8,340C569.28,340,569.76,340,570.24,340C570.72,340,571.2,340,571.68,340C572.16,340,572.64,340,573.12,340C573.6,340,574.08,340,574.56,340C575.04,340,575.52,340,576,340C576.48,340,576.96,340,577.44,340C577.92,340,578.4,340,578.88,340C579.36,340,579.84,340,580.32,340C580.8,340,581.28,340,581.76,340C582.24,340,582.72,340,583.2,340C583.68,340,584.16,340,584.64,340C585.12,340,585.6,340,586.08,340C586.56,340,587.04,340,587.52,340C588,340,588.48,340,588.96,340C589.44,340,589.92,340,590.4,340C590.88,340,591.36,340,591.84,340C592.32,340,592.8,340,593.28,340C593.76,340,594.24,340,594.72,340C595.2,340,595.68,340,596.16,340C596.64,340,597.12,340,597.6,340C598.08,340,598.56,340,599.04,340C599.52,340,600,340,600.48,340C600.96,340,601.44,340,601.92,340C602.4,340,602.88,340,603.36,340C603.84,340,604.32,340,604.8,340C605.28,340,605.76,340,606.24,340C606.72,340,607.2,340,607.68,340C608.16,340,608.64,326.923,609.12,326.923C609.6,326.923,610.08,326.923,610.56,326.923C611.04,326.923,611.52,326.923,612,326.923C612.48,326.923,612.96,326.923,613.44,326.923C613.92,326.923,614.4,326.923,614.88,326.923C615.36,326.923,615.84,326.923,616.32,326.923C616.8,326.923,617.28,326.923,617.76,326.923C618.24,326.923,618.72,326.923,619.2,326.923C619.68,326.923,620.16,326.923,620.64,326.923C621.12,326.923,621.6,326.923,622.08,326.923C622.56,326.923,623.04,326.923,623.52,326.923C624,326.923,624.48,326.923,624.96,326.923C625.44,326.923,625.92,326.923,626.4,326.923C626.88,326.923,627.36,326.923,627.84,326.923C628.32,326.923,628.8,326.923,629.28,326.923C629.76,326.923,630.24,326.923,630.72,326.923C631.2,326.923,631.68,326.923,632.16,326.923C632.64,326.923,633.12,326.923,633.6,326.923C634.08,326.923,634.56,326.923,635.04,326.923C635.52,326.923,636,326.923,636.48,326.923C636.96,326.923,637.44,326.923,637.92,326.923C638.4,326.923,638.88,326.923,639.36,326.923C639.84,326.923,640.32,326.923,640.8,326.923C641.28,326.923,641.76,326.923,642.24,326.923C642.72,326.923,643.2,326.923,643.68,326.923C644.16,326.923,644.64,326.923,645.12,326.923C645.6,326.923,646.08,326.923,646.56,326.923C647.04,326.923,647.52,326.923,648,326.923C648.48,326.923,648.96,326.923,649.44,326.923C649.92,326.923,650.4,326.923,650.88,326.923C651.36,326.923,651.84,326.923,652.32,326.923C652.8,326.923,653.28,326.923,653.76,326.923C654.24,326.923,654.72,326.923,655.2,326.923C655.68,326.923,656.16,326.923,656.64,326.923C657.12,326.923,657.6,326.923,658.08,326.923C658.56,326.923,659.04,326.923,659.52,326.923C660,326.923,660.48,326.923,660.96,326.923C661.44,326.923,661.92,326.923,662.4,326.923C662.88,326.923,663.36,326.923,663.84,326.923C664.32,326.923,664.8,326.923,665.28,326.923C665.76,326.923,666.24,326.923,666.72,326.923C667.2,326.923,667.68,326.923,668.16,326.923C668.64,326.923,669.12,326.923,669.6,326.923C670.08,326.923,670.56,326.923,671.04,326.923C671.52,326.923,672,326.923,672.48,326.923C672.96,326.923,673.44,326.923,673.92,326.923C674.4,326.923,674.88,326.923,675.36,326.923C675.84,326.923,676.32,326.923,676.8,326.923C677.28,326.923,677.76,326.923,678.24,326.923C678.72,326.923,679.2,326.923,679.68,326.923C680.16,326.923,680.64,326.923,681.12,326.923C681.6,326.923,682.08,326.923,682.56,326.923C683.04,326.923,683.52,326.923,684,326.923C684.48,326.923,684.96,326.923,685.44,326.923C685.92,326.923,686.4,326.923,686.88,326.923C687.36,326.923,687.84,326.923,688.32,326.923C688.8,326.923,689.28,326.923,689.76,326.923C690.24,326.923,690.72,326.923,691.2,326.923C691.68,326.923,692.16,326.923,692.64,326.923C693.12,326.923,693.6,326.923,694.08,326.923C694.56,326.923,695.04,326.923,695.52,326.923C696,326.923,696.48,326.923,696.96,326.923C697.44,326.923,697.92,326.923,698.4,326.923C698.88,326.923,699.36,326.923,699.84,326.923C700.32,326.923,700.8,326.923,701.28,326.923C701.76,326.923,702.24,326.923,702.72,326.923C703.2,326.923,703.68,326.923,704.16,326.923C704.64,326.923,705.12,326.923,705.6,326.923C706.08,326.923,706.56,326.923,707.04,326.923C707.52,326.923,708,326.923,708.48,326.923C708.96,326.923,709.44,326.923,709.92,326.923C710.4,326.923,710.88,326.923,711.36,326.923C711.84,326.923,712.32,326.923,712.8,326.923C713.28,326.923,713.76,326.923,714.24,326.923C714.72,326.923,715.2,326.923,715.68,326.923C716.16,326.923,716.64,326.923,717.12,326.923C717.6,326.923,718.08,326.923,718.56,326.923C719.04,326.923,719.52,326.923,720,326.923"></path><circle class="dot" cx="0" cy="340" r="3" fill="#2563eb"></circle><circle class="dot" cx="1.44" cy="340" r="3" fill="#2563eb"></circle><circle class="dot" cx="2.88" cy="340" r="3" fill="#2563eb"></circle><circle class="dot" cx="4.32" cy="340" r="3" fill="#2563eb"></circle><circle class="dot" cx="5.76" cy="340" r="3" fill="#2563eb"></circle><circle class="dot" cx="7.2" cy="340" r="3" fill="#2563eb"></circle><circle class="dot" cx="8.64" cy="340" r="3" fill="#2563eb"></circle><circle class="dot" cx="10.08" cy="340" r="3" fill="#2563eb"></circle><circle class="dot" cx="11.52" cy="287.6923076923077" r="3" fill="#2563eb"></circle><circle class="dot" cx="12.959999999999999" cy="274.61538461538464" r="3" fill="#2563eb"></circle><circle class="dot" cx="14.4" cy="300.7692307692308" r="3" fill="#2563eb"></circle><circle class="dot" cx="15.84" cy="326.9230769230769" r="3" fill="#2563eb"></circle><circle class="dot" cx="17.28" cy="313.84615384615387" r="3" fill="#2563eb"></circle><circle class="dot" cx="18.72" cy="274.61538461538464" r="3" fill="#2563eb"></circle><circle class="dot" cx="20.16" cy="300.7692307692308" r="3" fill="#2563eb"></circle><circle class="dot" cx="21.599999999999998" cy="300.7692307692308" r="3" fill="#2563eb"></circle><circle class="dot" cx="23.04" cy="300.7692307692308" r="3" fill="#2563eb"></circle><circle class="dot" cx="24.48" cy="300.7692307692308" r="3" fill="#2563eb"></circle><circle class="dot" cx="25.919999999999998" cy="326.9230769230769" r="3" fill="#2563eb"></circle><circle class="dot" cx="27.36" cy="313.84615384615387" r="3" fill="#2563eb"></circle><circle class="dot" cx="28.8" cy="300.7692307692308" r="3" fill="#2563eb"></circle><circle class="dot" cx="30.240000000000002" cy="340" r="3" fill="#2563eb"></circle><circle class="dot" cx="31.68" cy="340" r="3" fill="#2563eb"></circle><circle class="dot" cx="33.12" cy="340" r="3" fill="#2563eb"></circle><circle class="dot" cx="34.56" cy="313.84615384615387" r="3" fill="#2563eb"></circle><circle class="dot" cx="36" cy="326.9230769230769" r="3" fill="#2563eb"></circle><circle class="dot" cx="37.44" cy="313.84615384615387" r="3" fill="#2563eb"></circle><circle class="dot" cx="38.88" cy="274.61538461538464" r="3" fill="#2563eb"></circle><circle class="dot" cx="40.32" cy="261.5384615384615" r="3" fill="#2563eb"></circle><circle class="dot" cx="41.760000000000005" cy="274.61538461538464" r="3" fill="#2563eb"></circle><circle class="dot" cx="43.199999999999996" cy="287.6923076923077" r="3" fill="#2563eb"></circle><circle class="dot" cx="44.64" cy="235.3846153846154" r="3" fill="#2563eb"></circle><circle class="dot" cx="46.08" cy="261.5384615384615" r="3" fill="#2563eb"></circle><circle class="dot" cx="47.52" cy="287.6923076923077" r="3" fill="#2563eb"></circle><circle class="dot" cx="48.96" cy="287.6923076923077" r="3" fill="#2563eb"></circle><circle class="dot" cx="50.400000000000006" cy="287.6923076923077" r="3" fill="#2563eb"></circle><circle class="dot" cx="51.839999999999996" cy="300.7692307692308" r="3" fill="#2563eb"></circle><circle class="dot" cx="53.279999999999994" cy="313.84615384615387" r="3" fill="#2563eb"></circle><circle class="dot" cx="54.72" cy="235.3846153846154" r="3" fill="#2563eb"></circle><circle class="dot" cx="56.16" cy="261.5384615384615" r="3" fill="#2563eb"></circle><circle class="dot" cx="57.6" cy="313.84615384615387" r="3" fill="#2563eb"></circle><circle class="dot" cx="59.04" cy="287.6923076923077" r="3" fill="#2563eb"></circle><circle class="dot" cx="60.480000000000004" cy="300.7692307692308" r="3" fill="#2563eb"></circle><circle class="dot" cx="61.919999999999995" cy="300.7692307692308" r="3" fill="#2563eb"></circle><circle class="dot" cx="63.36" cy="313.84615384615387" r="3" fill="#2563eb"></circle><circle class="dot" cx="64.8" cy="261.5384615384615" r="3" fill="#2563eb"></circle><circle class="dot" cx="66.24" cy="261.5384615384615" r="3" fill="#2563eb"></circle><circle class="dot" cx="67.68" cy="248.46153846153845" r="3" fill="#2563eb"></circle><circle class="dot" cx="69.12" cy="248.46153846153845" r="3" fill="#2563eb"></circle><circle class="dot" cx="70.56" cy="261.5384615384615" r="3" fill="#2563eb"></circle><circle class="dot" cx="72" cy="248.46153846153845" r="3" fill="#2563eb"></circle><circle class="dot" cx="73.44" cy="248.46153846153845" r="3" fill="#2563eb"></circle><circle class="dot" cx="74.88" cy="274.61538461538464" r="3" fill="#2563eb"></circle><circle class="dot" cx="76.32" cy="287.6923076923077" r="3" fill="#2563eb"></circle><circle class="dot" cx="77.76" cy="313.84615384615387" r="3" fill="#2563eb"></circle><circle class="dot" cx="79.2" cy="326.9230769230769" r="3" fill="#2563eb"></circle><circle class="dot" cx="80.64" cy="313.84615384615387" r="3" fill="#2563eb"></circle><circle class="dot" cx="82.08" cy="340" r="3" fill="#2563eb"></circle><circle class="dot" cx="83.52000000000001" cy="326.9230769230769" r="3" fill="#2563eb"></circle><circle class="dot" cx="84.96" cy="326.9230769230769" r="3" fill="#2563eb"></circle><circle class="dot" cx="86.39999999999999" cy="326.9230769230769" r="3" fill="#2563eb"></circle><circle class="dot" cx="87.84" cy="340" r="3" fill="#2563eb"></circle><circle class="dot" cx="89.28" cy="274.61538461538464" r="3" fill="#2563eb"></circle><circle class="dot" cx="90.72" cy="235.3846153846154" r="3" fill="#2563eb"></circle><circle class="dot" cx="92.16" cy="248.46153846153845" r="3" fill="#2563eb"></circle><circle class="dot" cx="93.60000000000001" cy="274.61538461538464" r="3" fill="#2563eb"></circle><circle class="dot" cx="95.04" cy="300.7692307692308" r="3" fill="#2563eb"></circle><circle class="dot" cx="96.48" cy="313.84615384615387" r="3" fill="#2563eb"></circle><circle class="dot" cx="97.92" cy="300.7692307692308" r="3" fill="#2563eb"></circle><circle class="dot" cx="99.36000000000001" cy="287.6923076923077" r="3" fill="#2563eb"></circle><circle class="dot" cx="100.80000000000001" cy="287.6923076923077" r="3" fill="#2563eb"></circle><circle class="dot" cx="102.24" cy="287.6923076923077" r="3" fill="#2563eb"></circle><circle class="dot" cx="103.67999999999999" cy="287.6923076923077" r="3" fill="#2563eb"></circle><circle class="dot" cx="105.11999999999999" cy="261.5384615384615" r="3" fill="#2563eb"></circle><circle class="dot" cx="106.55999999999999" cy="274.61538461538464" r="3" fill="#2563eb"></circle><circle class="dot" cx="108" cy="313.84615384615387" r="3" fill="#2563eb"></circle><circle class="dot" cx="109.44" cy="313.84615384615387" r="3" fill="#2563eb"></circle><circle class="dot" cx="110.88" cy="313.84615384615387" r="3" fill="#2563eb"></circle><circle class="dot" cx="112.32" cy="313.84615384615387" r="3" fill="#2563eb"></circle><circle class="dot" cx="113.76" cy="326.9230769230769" r="3" fill="#2563eb"></circle><circle class="dot" cx="115.2" cy="300.7692307692308" r="3" fill="#2563eb"></circle><circle class="dot" cx="116.64" cy="300.7692307692308" r="3" fill="#2563eb"></circle><circle class="dot" cx="118.08" cy="287.6923076923077" r="3" fill="#2563eb"></circle><circle class="dot" cx="119.52000000000001" cy="300.7692307692308" r="3" fill="#2563eb"></circle><circle class="dot" cx="120.96000000000001" cy="300.7692307692308" r="3" fill="#2563eb"></circle><circle class="dot" cx="122.4" cy="313.84615384615387" r="3" fill="#2563eb"></circle><circle class="dot" cx="123.83999999999999" cy="340" r="3" fill="#2563eb"></circle><circle class="dot" cx="125.27999999999999" cy="340" r="3" fill="#2563eb"></circle><circle class="dot" cx="126.72" cy="340" r="3" fill="#2563eb"></circle><circle class="dot" cx="128.16" cy="340" r="3" fill="#2563eb"></circle><circle class="dot" cx="129.6" cy="340" r="3" fill="#2563eb"></circle><circle class="dot" cx="131.04" cy="340" r="3" fill="#2563eb"></circle><circle class="dot" cx="132.48" cy="340" r="3" fill="#2563eb"></circle><circle class="dot" cx="133.92" cy="340" r="3" fill="#2563eb"></circle><circle class="dot" cx="135.36" cy="340" r="3" fill="#2563eb"></circle><circle class="dot" cx="136.8" cy="340" r="3" fill="#2563eb"></circle><circle class="dot" cx="138.24" cy="340" r="3" fill="#2563eb"></circle><circle class="dot" cx="139.68" cy="340" r="3" fill="#2563eb"></circle><circle class="dot" cx="141.12" cy="340" r="3" fill="#2563eb"></circle><circle class="dot" cx="142.56" cy="340" r="3" fill="#2563eb"></circle><circle class="dot" cx="144" cy="340" r="3" fill="#2563eb"></circle><circle class="dot" cx="145.44" cy="340" r="3" fill="#2563eb"></circle><circle class="dot" cx="146.88" cy="340" r="3" fill="#2563eb"></circle><circle class="dot" cx="148.32" cy="340" r="3" fill="#2563eb"></circle><circle class="dot" cx="149.76" cy="274.61538461538464" r="3" fill="#2563eb"></circle><circle class="dot" cx="151.2" cy="340" r="3" fill="#2563eb"></circle><circle class="dot" cx="152.64" cy="340" r="3" fill="#2563eb"></circle><circle class="dot" cx="154.07999999999998" cy="340" r="3" fill="#2563eb"></circle><circle class="dot" cx="155.52" cy="326.9230769230769" r="3" fill="#2563eb"></circle><circle class="dot" cx="156.96" cy="248.46153846153845" r="3" fill="#2563eb"></circle><circle class="dot" cx="158.4" cy="261.5384615384615" r="3" fill="#2563eb"></circle><circle class="dot" cx="159.84" cy="340" r="3" fill="#2563eb"></circle><circle class="dot" cx="161.28" cy="326.9230769230769" r="3" fill="#2563eb"></circle><circle class="dot" cx="162.72" cy="313.84615384615387" r="3" fill="#2563eb"></circle><circle class="dot" cx="164.16" cy="326.9230769230769" r="3" fill="#2563eb"></circle><circle class="dot" cx="165.6" cy="313.84615384615387" r="3" fill="#2563eb"></circle><circle class="dot" cx="167.04000000000002" cy="313.84615384615387" r="3" fill="#2563eb"></circle><circle class="dot" cx="168.48000000000002" cy="313.84615384615387" r="3" fill="#2563eb"></circle><circle class="dot" cx="169.92" cy="340" r="3" fill="#2563eb"></circle><circle class="dot" cx="171.35999999999999" cy="340" r="3" fill="#2563eb"></circle><circle class="dot" cx="172.79999999999998" cy="340" r="3" fill="#2563eb"></circle><circle class="dot" cx="174.24" cy="326.9230769230769" r="3" fill="#2563eb"></circle><circle class="dot" cx="175.68" cy="340" r="3" fill="#2563eb"></circle><circle class="dot" cx="177.12" cy="340" r="3" fill="#2563eb"></circle><circle class="dot" cx="178.56" cy="340" r="3" fill="#2563eb"></circle><circle class="dot" cx="180" cy="340" r="3" fill="#2563eb"></circle><circle class="dot" cx="181.44" cy="340" r="3" fill="#2563eb"></circle><circle class="dot" cx="182.88" cy="340" r="3" fill="#2563eb"></circle><circle class="dot" cx="184.32" cy="340" r="3" fill="#2563eb"></circle><circle class="dot" cx="185.76" cy="340" r="3" fill="#2563eb"></circle><circle class="dot" cx="187.20000000000002" cy="340" r="3" fill="#2563eb"></circle><circle class="dot" cx="188.64000000000001" cy="340" r="3" fill="#2563eb"></circle><circle class="dot" cx="190.08" cy="340" r="3" fill="#2563eb"></circle><circle class="dot" cx="191.52" cy="340" r="3" fill="#2563eb"></circle><circle class="dot" cx="192.96" cy="340" r="3" fill="#2563eb"></circle><circle class="dot" cx="194.4" cy="340" r="3" fill="#2563eb"></circle><circle class="dot" cx="195.84" cy="340" r="3" fill="#2563eb"></circle><circle class="dot" cx="197.28000000000003" cy="340" r="3" fill="#2563eb"></circle><circle class="dot" cx="198.72000000000003" cy="340" r="3" fill="#2563eb"></circle><circle class="dot" cx="200.16000000000003" cy="340" r="3" fill="#2563eb"></circle><circle class="dot" cx="201.60000000000002" cy="340" r="3" fill="#2563eb"></circle><circle class="dot" cx="203.04" cy="340" r="3" fill="#2563eb"></circle><circle class="dot" cx="204.48" cy="340" r="3" fill="#2563eb"></circle><circle class="dot" cx="205.92" cy="340" r="3" fill="#2563eb"></circle><circle class="dot" cx="207.35999999999999" cy="340" r="3" fill="#2563eb"></circle><circle class="dot" cx="208.79999999999998" cy="340" r="3" fill="#2563eb"></circle><circle class="dot" cx="210.23999999999998" cy="340" r="3" fill="#2563eb"></circle><circle class="dot" cx="211.67999999999998" cy="340" r="3" fill="#2563eb"></circle><circle class="dot" cx="213.11999999999998" cy="340" r="3" fill="#2563eb"></circle><circle class="dot" cx="214.56" cy="340" r="3" fill="#2563eb"></circle><circle class="dot" cx="216" cy="340" r="3" fill="#2563eb"></circle><circle class="dot" cx="217.44" cy="340" r="3" fill="#2563eb"></circle><circle class="dot" cx="218.88" cy="313.84615384615387" r="3" fill="#2563eb"></circle><circle class="dot" cx="220.32" cy="326.9230769230769" r="3" fill="#2563eb"></circle><circle class="dot" cx="221.76" cy="340" r="3" fill="#2563eb"></circle><circle class="dot" cx="223.2" cy="326.9230769230769" r="3" fill="#2563eb"></circle><circle class="dot" cx="224.64" cy="313.84615384615387" r="3" fill="#2563eb"></circle><circle class="dot" cx="226.08" cy="313.84615384615387" r="3" fill="#2563eb"></circle><circle class="dot" cx="227.52" cy="300.7692307692308" r="3" fill="#2563eb"></circle><circle class="dot" cx="228.96" cy="274.61538461538464" r="3" fill="#2563eb"></circle><circle class="dot" cx="230.4" cy="274.61538461538464" r="3" fill="#2563eb"></circle><circle class="dot" cx="231.84" cy="287.6923076923077" r="3" fill="#2563eb"></circle><circle class="dot" cx="233.28" cy="300.7692307692308" r="3" fill="#2563eb"></circle><circle class="dot" cx="234.72" cy="300.7692307692308" r="3" fill="#2563eb"></circle><circle class="dot" cx="236.16" cy="287.6923076923077" r="3" fill="#2563eb"></circle><circle class="dot" cx="237.60000000000002" cy="300.7692307692308" r="3" fill="#2563eb"></circle><circle class="dot" cx="239.04000000000002" cy="300.7692307692308" r="3" fill="#2563eb"></circle><circle class="dot" cx="240.48000000000002" cy="274.61538461538464" r="3" fill="#2563eb"></circle><circle class="dot" cx="241.92000000000002" cy="274.61538461538464" r="3" fill="#2563eb"></circle><circle class="dot" cx="243.36" cy="261.5384615384615" r="3" fill="#2563eb"></circle><circle class="dot" cx="244.8" cy="261.5384615384615" r="3" fill="#2563eb"></circle><circle class="dot" cx="246.24" cy="248.46153846153845" r="3" fill="#2563eb"></circle><circle class="dot" cx="247.67999999999998" cy="261.5384615384615" r="3" fill="#2563eb"></circle><circle class="dot" cx="249.11999999999998" cy="274.61538461538464" r="3" fill="#2563eb"></circle><circle class="dot" cx="250.55999999999997" cy="274.61538461538464" r="3" fill="#2563eb"></circle><circle class="dot" cx="251.99999999999997" cy="287.6923076923077" r="3" fill="#2563eb"></circle><circle class="dot" cx="253.44" cy="287.6923076923077" r="3" fill="#2563eb"></circle><circle class="dot" cx="254.88" cy="274.61538461538464" r="3" fill="#2563eb"></circle><circle class="dot" cx="256.32" cy="248.46153846153845" r="3" fill="#2563eb"></circle><circle class="dot" cx="257.76" cy="235.3846153846154" r="3" fill="#2563eb"></circle><circle class="dot" cx="259.2" cy="235.3846153846154" r="3" fill="#2563eb"></circle><circle class="dot" cx="260.64" cy="235.3846153846154" r="3" fill="#2563eb"></circle><circle class="dot" cx="262.08" cy="248.46153846153845" r="3" fill="#2563eb"></circle><circle class="dot" cx="263.52" cy="222.30769230769232" r="3" fill="#2563eb"></circle><circle class="dot" cx="264.96" cy="196.15384615384616" r="3" fill="#2563eb"></circle><circle class="dot" cx="266.4" cy="209.23076923076925" r="3" fill="#2563eb"></circle><circle class="dot" cx="267.84" cy="235.3846153846154" r="3" fill="#2563eb"></circle><circle class="dot" cx="269.28" cy="209.23076923076925" r="3" fill="#2563eb"></circle><circle class="dot" cx="270.72" cy="248.46153846153845" r="3" fill="#2563eb"></circle><circle class="dot" cx="272.16" cy="248.46153846153845" r="3" fill="#2563eb"></circle><circle class="dot" cx="273.6" cy="222.30769230769232" r="3" fill="#2563eb"></circle><circle class="dot" cx="275.04" cy="235.3846153846154" r="3" fill="#2563eb"></circle><circle class="dot" cx="276.48" cy="248.46153846153845" r="3" fill="#2563eb"></circle><circle class="dot" cx="277.92" cy="248.46153846153845" r="3" fill="#2563eb"></circle><circle class="dot" cx="279.36" cy="196.15384615384616" r="3" fill="#2563eb"></circle><circle class="dot" cx="280.8" cy="196.15384615384616" r="3" fill="#2563eb"></circle><circle class="dot" cx="282.24" cy="183.0769230769231" r="3" fill="#2563eb"></circle><circle class="dot" cx="283.68" cy="248.46153846153845" r="3" fill="#2563eb"></circle><circle class="dot" cx="285.12" cy="248.46153846153845" r="3" fill="#2563eb"></circle><circle class="dot" cx="286.56" cy="196.15384615384616" r="3" fill="#2563eb"></circle><circle class="dot" cx="288" cy="183.0769230769231" r="3" fill="#2563eb"></circle><circle class="dot" cx="289.44" cy="183.0769230769231" r="3" fill="#2563eb"></circle><circle class="dot" cx="290.88" cy="183.0769230769231" r="3" fill="#2563eb"></circle><circle class="dot" cx="292.32" cy="196.15384615384616" r="3" fill="#2563eb"></circle><circle class="dot" cx="293.76" cy="209.23076923076925" r="3" fill="#2563eb"></circle><circle class="dot" cx="295.2" cy="196.15384615384616" r="3" fill="#2563eb"></circle><circle class="dot" cx="296.64" cy="183.0769230769231" r="3" fill="#2563eb"></circle><circle class="dot" cx="298.08" cy="248.46153846153845" r="3" fill="#2563eb"></circle><circle class="dot" cx="299.52" cy="326.9230769230769" r="3" fill="#2563eb"></circle><circle class="dot" cx="300.96" cy="326.9230769230769" r="3" fill="#2563eb"></circle><circle class="dot" cx="302.4" cy="313.84615384615387" r="3" fill="#2563eb"></circle><circle class="dot" cx="303.84" cy="300.7692307692308" r="3" fill="#2563eb"></circle><circle class="dot" cx="305.28" cy="287.6923076923077" r="3" fill="#2563eb"></circle><circle class="dot" cx="306.71999999999997" cy="287.6923076923077" r="3" fill="#2563eb"></circle><circle class="dot" cx="308.15999999999997" cy="300.7692307692308" r="3" fill="#2563eb"></circle><circle class="dot" cx="309.6" cy="287.6923076923077" r="3" fill="#2563eb"></circle><circle class="dot" cx="311.04" cy="287.6923076923077" r="3" fill="#2563eb"></circle><circle class="dot" cx="312.48" cy="313.84615384615387" r="3" fill="#2563eb"></circle><circle class="dot" cx="313.92" cy="300.7692307692308" r="3" fill="#2563eb"></circle><circle class="dot" cx="315.36" cy="274.61538461538464" r="3" fill="#2563eb"></circle><circle class="dot" cx="316.8" cy="274.61538461538464" r="3" fill="#2563eb"></circle><circle class="dot" cx="318.24" cy="287.6923076923077" r="3" fill="#2563eb"></circle><circle class="dot" cx="319.68" cy="300.7692307692308" r="3" fill="#2563eb"></circle><circle class="dot" cx="321.12" cy="222.30769230769232" r="3" fill="#2563eb"></circle><circle class="dot" cx="322.56" cy="196.15384615384616" r="3" fill="#2563eb"></circle><circle class="dot" cx="324" cy="222.30769230769232" r="3" fill="#2563eb"></circle><circle class="dot" cx="325.44" cy="222.30769230769232" r="3" fill="#2563eb"></circle><circle class="dot" cx="326.88" cy="235.3846153846154" r="3" fill="#2563eb"></circle><circle class="dot" cx="328.32" cy="326.9230769230769" r="3" fill="#2563eb"></circle><circle class="dot" cx="329.76" cy="274.61538461538464" r="3" fill="#2563eb"></circle><circle class="dot" cx="331.2" cy="222.30769230769232" r="3" fill="#2563eb"></circle><circle class="dot" cx="332.64000000000004" cy="248.46153846153845" r="3" fill="#2563eb"></circle><circle class="dot" cx="334.08000000000004" cy="287.6923076923077" r="3" fill="#2563eb"></circle><circle class="dot" cx="335.52000000000004" cy="300.7692307692308" r="3" fill="#2563eb"></circle><circle class="dot" cx="336.96000000000004" cy="313.84615384615387" r="3" fill="#2563eb"></circle><circle class="dot" cx="338.4" cy="340" r="3" fill="#2563eb"></circle><circle class="dot" cx="339.84" cy="340" r="3" fill="#2563eb"></circle><circle class="dot" cx="341.28" cy="340" r="3" fill="#2563eb"></circle><circle class="dot" cx="342.71999999999997" cy="340" r="3" fill="#2563eb"></circle><circle class="dot" cx="344.15999999999997" cy="340" r="3" fill="#2563eb"></circle><circle class="dot" cx="345.59999999999997" cy="340" r="3" fill="#2563eb"></circle><circle class="dot" cx="347.03999999999996" cy="340" r="3" fill="#2563eb"></circle><circle class="dot" cx="348.48" cy="340" r="3" fill="#2563eb"></circle><circle class="dot" cx="349.92" cy="340" r="3" fill="#2563eb"></circle><circle class="dot" cx="351.36" cy="326.9230769230769" r="3" fill="#2563eb"></circle><circle class="dot" cx="352.8" cy="326.9230769230769" r="3" fill="#2563eb"></circle><circle class="dot" cx="354.24" cy="326.9230769230769" r="3" fill="#2563eb"></circle><circle class="dot" cx="355.68" cy="313.84615384615387" r="3" fill="#2563eb"></circle><circle class="dot" cx="357.12" cy="313.84615384615387" r="3" fill="#2563eb"></circle><circle class="dot" cx="358.56" cy="340" r="3" fill="#2563eb"></circle><circle class="dot" cx="360" cy="340" r="3" fill="#2563eb"></circle><circle class="dot" cx="361.44" cy="326.9230769230769" r="3" fill="#2563eb"></circle><circle class="dot" cx="362.88" cy="326.9230769230769" r="3" fill="#2563eb"></circle><circle class="dot" cx="364.32" cy="287.6923076923077" r="3" fill="#2563eb"></circle><circle class="dot" cx="365.76" cy="274.61538461538464" r="3" fill="#2563eb"></circle><circle class="dot" cx="367.2" cy="287.6923076923077" r="3" fill="#2563eb"></circle><circle class="dot" cx="368.64" cy="313.84615384615387" r="3" fill="#2563eb"></circle><circle class="dot" cx="370.08" cy="313.84615384615387" r="3" fill="#2563eb"></circle><circle class="dot" cx="371.52" cy="340" r="3" fill="#2563eb"></circle><circle class="dot" cx="372.96000000000004" cy="340" r="3" fill="#2563eb"></circle><circle class="dot" cx="374.40000000000003" cy="340" r="3" fill="#2563eb"></circle><circle class="dot" cx="375.84000000000003" cy="340" r="3" fill="#2563eb"></circle><circle class="dot" cx="377.28000000000003" cy="340" r="3" fill="#2563eb"></circle><circle class="dot" cx="378.72" cy="326.9230769230769" r="3" fill="#2563eb"></circle><circle class="dot" cx="380.16" cy="300.7692307692308" r="3" fill="#2563eb"></circle><circle class="dot" cx="381.6" cy="235.3846153846154" r="3" fill="#2563eb"></circle><circle class="dot" cx="383.04" cy="261.5384615384615" r="3" fill="#2563eb"></circle><circle class="dot" cx="384.48" cy="248.46153846153845" r="3" fill="#2563eb"></circle><circle class="dot" cx="385.92" cy="248.46153846153845" r="3" fill="#2563eb"></circle><circle class="dot" cx="387.36" cy="235.3846153846154" r="3" fill="#2563eb"></circle><circle class="dot" cx="388.8" cy="196.15384615384616" r="3" fill="#2563eb"></circle><circle class="dot" cx="390.24" cy="130.76923076923075" r="3" fill="#2563eb"></circle><circle class="dot" cx="391.68" cy="156.92307692307693" r="3" fill="#2563eb"></circle><circle class="dot" cx="393.12" cy="183.0769230769231" r="3" fill="#2563eb"></circle><circle class="dot" cx="394.56000000000006" cy="235.3846153846154" r="3" fill="#2563eb"></circle><circle class="dot" cx="396.00000000000006" cy="235.3846153846154" r="3" fill="#2563eb"></circle><circle class="dot" cx="397.44000000000005" cy="235.3846153846154" r="3" fill="#2563eb"></circle><circle class="dot" cx="398.88000000000005" cy="235.3846153846154" r="3" fill="#2563eb"></circle><circle class="dot" cx="400.32000000000005" cy="235.3846153846154" r="3" fill="#2563eb"></circle><circle class="dot" cx="401.76000000000005" cy="222.30769230769232" r="3" fill="#2563eb"></circle><circle class="dot" cx="403.20000000000005" cy="248.46153846153845" r="3" fill="#2563eb"></circle><circle class="dot" cx="404.64000000000004" cy="235.3846153846154" r="3" fill="#2563eb"></circle><circle class="dot" cx="406.08" cy="209.23076923076925" r="3" fill="#2563eb"></circle><circle class="dot" cx="407.52" cy="183.0769230769231" r="3" fill="#2563eb"></circle><circle class="dot" cx="408.96" cy="130.76923076923075" r="3" fill="#2563eb"></circle><circle class="dot" cx="410.4" cy="130.76923076923075" r="3" fill="#2563eb"></circle><circle class="dot" cx="411.84" cy="156.92307692307693" r="3" fill="#2563eb"></circle><circle class="dot" cx="413.28" cy="91.53846153846155" r="3" fill="#2563eb"></circle><circle class="dot" cx="414.71999999999997" cy="78.46153846153848" r="3" fill="#2563eb"></circle><circle class="dot" cx="416.15999999999997" cy="78.46153846153848" r="3" fill="#2563eb"></circle><circle class="dot" cx="417.59999999999997" cy="104.61538461538463" r="3" fill="#2563eb"></circle><circle class="dot" cx="419.03999999999996" cy="91.53846153846155" r="3" fill="#2563eb"></circle><circle class="dot" cx="420.47999999999996" cy="52.307692307692314" r="3" fill="#2563eb"></circle><circle class="dot" cx="421.91999999999996" cy="52.307692307692314" r="3" fill="#2563eb"></circle><circle class="dot" cx="423.35999999999996" cy="65.38461538461542" r="3" fill="#2563eb"></circle><circle class="dot" cx="424.79999999999995" cy="65.38461538461542" r="3" fill="#2563eb"></circle><circle class="dot" cx="426.23999999999995" cy="52.307692307692314" r="3" fill="#2563eb"></circle><circle class="dot" cx="427.68" cy="39.23076923076924" r="3" fill="#2563eb"></circle><circle class="dot" cx="429.12" cy="13.076923076923105" r="3" fill="#2563eb"></circle><circle class="dot" cx="430.56" cy="78.46153846153848" r="3" fill="#2563eb"></circle><circle class="dot" cx="432" cy="156.92307692307693" r="3" fill="#2563eb"></circle><circle class="dot" cx="433.44" cy="340" r="3" fill="#2563eb"></circle><circle class="dot" cx="434.88" cy="340" r="3" fill="#2563eb"></circle><circle class="dot" cx="436.32" cy="340" r="3" fill="#2563eb"></circle><circle class="dot" cx="437.76" cy="340" r="3" fill="#2563eb"></circle><circle class="dot" cx="439.2" cy="340" r="3" fill="#2563eb"></circle><circle class="dot" cx="440.64" cy="340" r="3" fill="#2563eb"></circle><circle class="dot" cx="442.08" cy="340" r="3" fill="#2563eb"></circle><circle class="dot" cx="443.52" cy="340" r="3" fill="#2563eb"></circle><circle class="dot" cx="444.96" cy="340" r="3" fill="#2563eb"></circle><circle class="dot" cx="446.4" cy="340" r="3" fill="#2563eb"></circle><circle class="dot" cx="447.84" cy="340" r="3" fill="#2563eb"></circle><circle class="dot" cx="449.28" cy="313.84615384615387" r="3" fill="#2563eb"></circle><circle class="dot" cx="450.72" cy="313.84615384615387" r="3" fill="#2563eb"></circle><circle class="dot" cx="452.16" cy="274.61538461538464" r="3" fill="#2563eb"></circle><circle class="dot" cx="453.6" cy="222.30769230769232" r="3" fill="#2563eb"></circle><circle class="dot" cx="455.04" cy="287.6923076923077" r="3" fill="#2563eb"></circle><circle class="dot" cx="456.48" cy="274.61538461538464" r="3" fill="#2563eb"></circle><circle class="dot" cx="457.92" cy="222.30769230769232" r="3" fill="#2563eb"></circle><circle class="dot" cx="459.36" cy="248.46153846153845" r="3" fill="#2563eb"></circle><circle class="dot" cx="460.8" cy="248.46153846153845" r="3" fill="#2563eb"></circle><circle class="dot" cx="462.24" cy="248.46153846153845" r="3" fill="#2563eb"></circle><circle class="dot" cx="463.68" cy="235.3846153846154" r="3" fill="#2563eb"></circle><circle class="dot" cx="465.12" cy="248.46153846153845" r="3" fill="#2563eb"></circle><circle class="dot" cx="466.56" cy="326.9230769230769" r="3" fill="#2563eb"></circle><circle class="dot" cx="468" cy="326.9230769230769" r="3" fill="#2563eb"></circle><circle class="dot" cx="469.44" cy="340" r="3" fill="#2563eb"></circle><circle class="dot" cx="470.88" cy="340" r="3" fill="#2563eb"></circle><circle class="dot" cx="472.32" cy="340" r="3" fill="#2563eb"></circle><circle class="dot" cx="473.76000000000005" cy="287.6923076923077" r="3" fill="#2563eb"></circle><circle class="dot" cx="475.20000000000005" cy="222.30769230769232" r="3" fill="#2563eb"></circle><circle class="dot" cx="476.64000000000004" cy="274.61538461538464" r="3" fill="#2563eb"></circle><circle class="dot" cx="478.08000000000004" cy="300.7692307692308" r="3" fill="#2563eb"></circle><circle class="dot" cx="479.52000000000004" cy="287.6923076923077" r="3" fill="#2563eb"></circle><circle class="dot" cx="480.96000000000004" cy="261.5384615384615" r="3" fill="#2563eb"></circle><circle class="dot" cx="482.40000000000003" cy="287.6923076923077" r="3" fill="#2563eb"></circle><circle class="dot" cx="483.84000000000003" cy="340" r="3" fill="#2563eb"></circle><circle class="dot" cx="485.28000000000003" cy="326.9230769230769" r="3" fill="#2563eb"></circle><circle class="dot" cx="486.72" cy="313.84615384615387" r="3" fill="#2563eb"></circle><circle class="dot" cx="488.16" cy="340" r="3" fill="#2563eb"></circle><circle class="dot" cx="489.6" cy="340" r="3" fill="#2563eb"></circle><circle class="dot" cx="491.04" cy="340" r="3" fill="#2563eb"></circle><circle class="dot" cx="492.48" cy="340" r="3" fill="#2563eb"></circle><circle class="dot" cx="493.92" cy="340" r="3" fill="#2563eb"></circle><circle class="dot" cx="495.35999999999996" cy="340" r="3" fill="#2563eb"></circle><circle class="dot" cx="496.79999999999995" cy="340" r="3" fill="#2563eb"></circle><circle class="dot" cx="498.23999999999995" cy="340" r="3" fill="#2563eb"></circle><circle class="dot" cx="499.67999999999995" cy="340" r="3" fill="#2563eb"></circle><circle class="dot" cx="501.11999999999995" cy="340" r="3" fill="#2563eb"></circle><circle class="dot" cx="502.55999999999995" cy="340" r="3" fill="#2563eb"></circle><circle class="dot" cx="503.99999999999994" cy="340" r="3" fill="#2563eb"></circle><circle class="dot" cx="505.43999999999994" cy="340" r="3" fill="#2563eb"></circle><circle class="dot" cx="506.88" cy="340" r="3" fill="#2563eb"></circle><circle class="dot" cx="508.32" cy="340" r="3" fill="#2563eb"></circle><circle class="dot" cx="509.76" cy="340" r="3" fill="#2563eb"></circle><circle class="dot" cx="511.2" cy="340" r="3" fill="#2563eb"></circle><circle class="dot" cx="512.64" cy="340" r="3" fill="#2563eb"></circle><circle class="dot" cx="514.0799999999999" cy="340" r="3" fill="#2563eb"></circle><circle class="dot" cx="515.52" cy="340" r="3" fill="#2563eb"></circle><circle class="dot" cx="516.96" cy="340" r="3" fill="#2563eb"></circle><circle class="dot" cx="518.4" cy="340" r="3" fill="#2563eb"></circle><circle class="dot" cx="519.84" cy="340" r="3" fill="#2563eb"></circle><circle class="dot" cx="521.28" cy="340" r="3" fill="#2563eb"></circle><circle class="dot" cx="522.72" cy="340" r="3" fill="#2563eb"></circle><circle class="dot" cx="524.16" cy="340" r="3" fill="#2563eb"></circle><circle class="dot" cx="525.6" cy="340" r="3" fill="#2563eb"></circle><circle class="dot" cx="527.04" cy="340" r="3" fill="#2563eb"></circle><circle class="dot" cx="528.48" cy="340" r="3" fill="#2563eb"></circle><circle class="dot" cx="529.92" cy="340" r="3" fill="#2563eb"></circle><circle class="dot" cx="531.36" cy="340" r="3" fill="#2563eb"></circle><circle class="dot" cx="532.8" cy="340" r="3" fill="#2563eb"></circle><circle class="dot" cx="534.24" cy="340" r="3" fill="#2563eb"></circle><circle class="dot" cx="535.68" cy="340" r="3" fill="#2563eb"></circle><circle class="dot" cx="537.12" cy="340" r="3" fill="#2563eb"></circle><circle class="dot" cx="538.56" cy="340" r="3" fill="#2563eb"></circle><circle class="dot" cx="540" cy="340" r="3" fill="#2563eb"></circle><circle class="dot" cx="541.44" cy="340" r="3" fill="#2563eb"></circle><circle class="dot" cx="542.88" cy="340" r="3" fill="#2563eb"></circle><circle class="dot" cx="544.32" cy="340" r="3" fill="#2563eb"></circle><circle class="dot" cx="545.76" cy="340" r="3" fill="#2563eb"></circle><circle class="dot" cx="547.2" cy="340" r="3" fill="#2563eb"></circle><circle class="dot" cx="548.64" cy="340" r="3" fill="#2563eb"></circle><circle class="dot" cx="550.08" cy="340" r="3" fill="#2563eb"></circle><circle class="dot" cx="551.52" cy="340" r="3" fill="#2563eb"></circle><circle class="dot" cx="552.96" cy="340" r="3" fill="#2563eb"></circle><circle class="dot" cx="554.4" cy="340" r="3" fill="#2563eb"></circle><circle class="dot" cx="555.84" cy="340" r="3" fill="#2563eb"></circle><circle class="dot" cx="557.28" cy="340" r="3" fill="#2563eb"></circle><circle class="dot" cx="558.72" cy="340" r="3" fill="#2563eb"></circle><circle class="dot" cx="560.16" cy="340" r="3" fill="#2563eb"></circle><circle class="dot" cx="561.6" cy="340" r="3" fill="#2563eb"></circle><circle class="dot" cx="563.04" cy="340" r="3" fill="#2563eb"></circle><circle class="dot" cx="564.48" cy="340" r="3" fill="#2563eb"></circle><circle class="dot" cx="565.9200000000001" cy="340" r="3" fill="#2563eb"></circle><circle class="dot" cx="567.36" cy="340" r="3" fill="#2563eb"></circle><circle class="dot" cx="568.8000000000001" cy="340" r="3" fill="#2563eb"></circle><circle class="dot" cx="570.24" cy="340" r="3" fill="#2563eb"></circle><circle class="dot" cx="571.6800000000001" cy="340" r="3" fill="#2563eb"></circle><circle class="dot" cx="573.12" cy="340" r="3" fill="#2563eb"></circle><circle class="dot" cx="574.5600000000001" cy="340" r="3" fill="#2563eb"></circle><circle class="dot" cx="576" cy="340" r="3" fill="#2563eb"></circle><circle class="dot" cx="577.44" cy="340" r="3" fill="#2563eb"></circle><circle class="dot" cx="578.88" cy="340" r="3" fill="#2563eb"></circle><circle class="dot" cx="580.32" cy="340" r="3" fill="#2563eb"></circle><circle class="dot" cx="581.76" cy="340" r="3" fill="#2563eb"></circle><circle class="dot" cx="583.2" cy="340" r="3" fill="#2563eb"></circle><circle class="dot" cx="584.64" cy="340" r="3" fill="#2563eb"></circle><circle class="dot" cx="586.0799999999999" cy="340" r="3" fill="#2563eb"></circle><circle class="dot" cx="587.52" cy="340" r="3" fill="#2563eb"></circle><circle class="dot" cx="588.9599999999999" cy="340" r="3" fill="#2563eb"></circle><circle class="dot" cx="590.4" cy="340" r="3" fill="#2563eb"></circle><circle class="dot" cx="591.8399999999999" cy="340" r="3" fill="#2563eb"></circle><circle class="dot" cx="593.28" cy="340" r="3" fill="#2563eb"></circle><circle class="dot" cx="594.7199999999999" cy="340" r="3" fill="#2563eb"></circle><circle class="dot" cx="596.16" cy="340" r="3" fill="#2563eb"></circle><circle class="dot" cx="597.6" cy="340" r="3" fill="#2563eb"></circle><circle class="dot" cx="599.04" cy="340" r="3" fill="#2563eb"></circle><circle class="dot" cx="600.48" cy="340" r="3" fill="#2563eb"></circle><circle class="dot" cx="601.92" cy="340" r="3" fill="#2563eb"></circle><circle class="dot" cx="603.36" cy="340" r="3" fill="#2563eb"></circle><circle class="dot" cx="604.8" cy="340" r="3" fill="#2563eb"></circle><circle class="dot" cx="606.24" cy="340" r="3" fill="#2563eb"></circle><circle class="dot" cx="607.68" cy="340" r="3" fill="#2563eb"></circle><circle class="dot" cx="609.12" cy="326.9230769230769" r="3" fill="#2563eb"></circle><circle class="dot" cx="610.56" cy="326.9230769230769" r="3" fill="#2563eb"></circle><circle class="dot" cx="612" cy="326.9230769230769" r="3" fill="#2563eb"></circle><circle class="dot" cx="613.4399999999999" cy="326.9230769230769" r="3" fill="#2563eb"></circle><circle class="dot" cx="614.88" cy="326.9230769230769" r="3" fill="#2563eb"></circle><circle class="dot" cx="616.3199999999999" cy="326.9230769230769" r="3" fill="#2563eb"></circle><circle class="dot" cx="617.76" cy="326.9230769230769" r="3" fill="#2563eb"></circle><circle class="dot" cx="619.2" cy="326.9230769230769" r="3" fill="#2563eb"></circle><circle class="dot" cx="620.64" cy="326.9230769230769" r="3" fill="#2563eb"></circle><circle class="dot" cx="622.08" cy="326.9230769230769" r="3" fill="#2563eb"></circle><circle class="dot" cx="623.52" cy="326.9230769230769" r="3" fill="#2563eb"></circle><circle class="dot" cx="624.96" cy="326.9230769230769" r="3" fill="#2563eb"></circle><circle class="dot" cx="626.4" cy="326.9230769230769" r="3" fill="#2563eb"></circle><circle class="dot" cx="627.84" cy="326.9230769230769" r="3" fill="#2563eb"></circle><circle class="dot" cx="629.28" cy="326.9230769230769" r="3" fill="#2563eb"></circle><circle class="dot" cx="630.72" cy="326.9230769230769" r="3" fill="#2563eb"></circle><circle class="dot" cx="632.16" cy="326.9230769230769" r="3" fill="#2563eb"></circle><circle class="dot" cx="633.6" cy="326.9230769230769" r="3" fill="#2563eb"></circle><circle class="dot" cx="635.04" cy="326.9230769230769" r="3" fill="#2563eb"></circle><circle class="dot" cx="636.48" cy="326.9230769230769" r="3" fill="#2563eb"></circle><circle class="dot" cx="637.92" cy="326.9230769230769" r="3" fill="#2563eb"></circle><circle class="dot" cx="639.36" cy="326.9230769230769" r="3" fill="#2563eb"></circle><circle class="dot" cx="640.8" cy="326.9230769230769" r="3" fill="#2563eb"></circle><circle class="dot" cx="642.24" cy="326.9230769230769" r="3" fill="#2563eb"></circle><circle class="dot" cx="643.6800000000001" cy="326.9230769230769" r="3" fill="#2563eb"></circle><circle class="dot" cx="645.12" cy="326.9230769230769" r="3" fill="#2563eb"></circle><circle class="dot" cx="646.5600000000001" cy="326.9230769230769" r="3" fill="#2563eb"></circle><circle class="dot" cx="648" cy="326.9230769230769" r="3" fill="#2563eb"></circle><circle class="dot" cx="649.44" cy="326.9230769230769" r="3" fill="#2563eb"></circle><circle class="dot" cx="650.88" cy="326.9230769230769" r="3" fill="#2563eb"></circle><circle class="dot" cx="652.32" cy="326.9230769230769" r="3" fill="#2563eb"></circle><circle class="dot" cx="653.76" cy="326.9230769230769" r="3" fill="#2563eb"></circle><circle class="dot" cx="655.2" cy="326.9230769230769" r="3" fill="#2563eb"></circle><circle class="dot" cx="656.64" cy="326.9230769230769" r="3" fill="#2563eb"></circle><circle class="dot" cx="658.08" cy="326.9230769230769" r="3" fill="#2563eb"></circle><circle class="dot" cx="659.52" cy="326.9230769230769" r="3" fill="#2563eb"></circle><circle class="dot" cx="660.96" cy="326.9230769230769" r="3" fill="#2563eb"></circle><circle class="dot" cx="662.4" cy="326.9230769230769" r="3" fill="#2563eb"></circle><circle class="dot" cx="663.84" cy="326.9230769230769" r="3" fill="#2563eb"></circle><circle class="dot" cx="665.2800000000001" cy="326.9230769230769" r="3" fill="#2563eb"></circle><circle class="dot" cx="666.72" cy="326.9230769230769" r="3" fill="#2563eb"></circle><circle class="dot" cx="668.1600000000001" cy="326.9230769230769" r="3" fill="#2563eb"></circle><circle class="dot" cx="669.6" cy="326.9230769230769" r="3" fill="#2563eb"></circle><circle class="dot" cx="671.0400000000001" cy="326.9230769230769" r="3" fill="#2563eb"></circle><circle class="dot" cx="672.48" cy="326.9230769230769" r="3" fill="#2563eb"></circle><circle class="dot" cx="673.9200000000001" cy="326.9230769230769" r="3" fill="#2563eb"></circle><circle class="dot" cx="675.36" cy="326.9230769230769" r="3" fill="#2563eb"></circle><circle class="dot" cx="676.8" cy="326.9230769230769" r="3" fill="#2563eb"></circle><circle class="dot" cx="678.24" cy="326.9230769230769" r="3" fill="#2563eb"></circle><circle class="dot" cx="679.68" cy="326.9230769230769" r="3" fill="#2563eb"></circle><circle class="dot" cx="681.12" cy="326.9230769230769" r="3" fill="#2563eb"></circle><circle class="dot" cx="682.56" cy="326.9230769230769" r="3" fill="#2563eb"></circle><circle class="dot" cx="684" cy="326.9230769230769" r="3" fill="#2563eb"></circle><circle class="dot" cx="685.4399999999999" cy="326.9230769230769" r="3" fill="#2563eb"></circle><circle class="dot" cx="686.88" cy="326.9230769230769" r="3" fill="#2563eb"></circle><circle class="dot" cx="688.3199999999999" cy="326.9230769230769" r="3" fill="#2563eb"></circle><circle class="dot" cx="689.76" cy="326.9230769230769" r="3" fill="#2563eb"></circle><circle class="dot" cx="691.1999999999999" cy="326.9230769230769" r="3" fill="#2563eb"></circle><circle class="dot" cx="692.64" cy="326.9230769230769" r="3" fill="#2563eb"></circle><circle class="dot" cx="694.0799999999999" cy="326.9230769230769" r="3" fill="#2563eb"></circle><circle class="dot" cx="695.52" cy="326.9230769230769" r="3" fill="#2563eb"></circle><circle class="dot" cx="696.96" cy="326.9230769230769" r="3" fill="#2563eb"></circle><circle class="dot" cx="698.4" cy="326.9230769230769" r="3" fill="#2563eb"></circle><circle class="dot" cx="699.84" cy="326.9230769230769" r="3" fill="#2563eb"></circle><circle class="dot" cx="701.28" cy="326.9230769230769" r="3" fill="#2563eb"></circle><circle class="dot" cx="702.72" cy="326.9230769230769" r="3" fill="#2563eb"></circle><circle class="dot" cx="704.16" cy="326.9230769230769" r="3" fill="#2563eb"></circle><circle class="dot" cx="705.6" cy="326.9230769230769" r="3" fill="#2563eb"></circle><circle class="dot" cx="707.04" cy="326.9230769230769" r="3" fill="#2563eb"></circle><circle class="dot" cx="708.48" cy="326.9230769230769" r="3" fill="#2563eb"></circle><circle class="dot" cx="709.92" cy="326.9230769230769" r="3" fill="#2563eb"></circle><circle class="dot" cx="711.36" cy="326.9230769230769" r="3" fill="#2563eb"></circle><circle class="dot" cx="712.8" cy="326.9230769230769" r="3" fill="#2563eb"></circle><circle class="dot" cx="714.24" cy="326.9230769230769" r="3" fill="#2563eb"></circle><circle class="dot" cx="715.68" cy="326.9230769230769" r="3" fill="#2563eb"></circle><circle class="dot" cx="717.12" cy="326.9230769230769" r="3" fill="#2563eb"></circle><circle class="dot" cx="718.56" cy="326.9230769230769" r="3" fill="#2563eb"></circle><circle class="dot" cx="720" cy="326.9230769230769" r="3" fill="#2563eb"></circle><g class="grid" transform="translate(0,340)" fill="none" font-size="10" font-family="sans-serif" text-anchor="middle" style="stroke-dasharray: 3,3; opacity: 0.3;"><path class="domain" stroke="currentColor" d="M0.5,-340V0.5H720.5V-340"></path><g class="tick" opacity="1" transform="translate(0.5,0)"><line stroke="currentColor" y2="-340"></line><text fill="currentColor" y="3" dy="0.71em"></text></g><g class="tick" opacity="1" transform="translate(35.06,0)"><line stroke="currentColor" y2="-340"></line><text fill="currentColor" y="3" dy="0.71em"></text></g><g class="tick" opacity="1" transform="translate(69.62,0)"><line stroke="currentColor" y2="-340"></line><text fill="currentColor" y="3" dy="0.71em"></text></g><g class="tick" opacity="1" transform="translate(104.17999999999999,0)"><line stroke="currentColor" y2="-340"></line><text fill="currentColor" y="3" dy="0.71em"></text></g><g class="tick" opacity="1" transform="translate(138.74,0)"><line stroke="currentColor" y2="-340"></line><text fill="currentColor" y="3" dy="0.71em"></text></g><g class="tick" opacity="1" transform="translate(173.29999999999998,0)"><line stroke="currentColor" y2="-340"></line><text fill="currentColor" y="3" dy="0.71em"></text></g><g class="tick" opacity="1" transform="translate(207.85999999999999,0)"><line stroke="currentColor" y2="-340"></line><text fill="currentColor" y="3" dy="0.71em"></text></g><g class="tick" opacity="1" transform="translate(242.42000000000002,0)"><line stroke="currentColor" y2="-340"></line><text fill="currentColor" y="3" dy="0.71em"></text></g><g class="tick" opacity="1" transform="translate(276.98,0)"><line stroke="currentColor" y2="-340"></line><text fill="currentColor" y="3" dy="0.71em"></text></g><g class="tick" opacity="1" transform="translate(311.54,0)"><line stroke="currentColor" y2="-340"></line><text fill="currentColor" y="3" dy="0.71em"></text></g><g class="tick" opacity="1" transform="translate(346.09999999999997,0)"><line stroke="currentColor" y2="-340"></line><text fill="currentColor" y="3" dy="0.71em"></text></g><g class="tick" opacity="1" transform="translate(380.66,0)"><line stroke="currentColor" y2="-340"></line><text fill="currentColor" y="3" dy="0.71em"></text></g><g class="tick" opacity="1" transform="translate(415.21999999999997,0)"><line stroke="currentColor" y2="-340"></line><text fill="currentColor" y="3" dy="0.71em"></text></g><g class="tick" opacity="1" transform="translate(449.78,0)"><line stroke="currentColor" y2="-340"></line><text fill="currentColor" y="3" dy="0.71em"></text></g><g class="tick" opacity="1" transform="translate(484.34000000000003,0)"><line stroke="currentColor" y2="-340"></line><text fill="currentColor" y="3" dy="0.71em"></text></g><g class="tick" opacity="1" transform="translate(518.9,0)"><line stroke="currentColor" y2="-340"></line><text fill="currentColor" y="3" dy="0.71em"></text></g><g class="tick" opacity="1" transform="translate(553.46,0)"><line stroke="currentColor" y2="-340"></line><text fill="currentColor" y="3" dy="0.71em"></text></g><g class="tick" opacity="1" transform="translate(588.02,0)"><line stroke="currentColor" y2="-340"></line><text fill="currentColor" y="3" dy="0.71em"></text></g><g class="tick" opacity="1" transform="translate(622.58,0)"><line stroke="currentColor" y2="-340"></line><text fill="currentColor" y="3" dy="0.71em"></text></g><g class="tick" opacity="1" transform="translate(657.14,0)"><line stroke="currentColor" y2="-340"></line><text fill="currentColor" y="3" dy="0.71em"></text></g><g class="tick" opacity="1" transform="translate(691.6999999999999,0)"><line stroke="currentColor" y2="-340"></line><text fill="currentColor" y="3" dy="0.71em"></text></g></g><g class="grid" fill="none" font-size="10" font-family="sans-serif" text-anchor="end" style="stroke-dasharray: 3,3; opacity: 0.3;"><path class="domain" stroke="currentColor" d="M720,340.5H0.5V0.5H720"></path><g class="tick" opacity="1" transform="translate(0,340.5)"><line stroke="currentColor" x2="720"></line><text fill="currentColor" x="-3" dy="0.32em"></text></g><g class="tick" opacity="1" transform="translate(0,314.34615384615387)"><line stroke="currentColor" x2="720"></line><text fill="currentColor" x="-3" dy="0.32em"></text></g><g class="tick" opacity="1" transform="translate(0,288.1923076923077)"><line stroke="currentColor" x2="720"></line><text fill="currentColor" x="-3" dy="0.32em"></text></g><g class="tick" opacity="1" transform="translate(0,262.0384615384615)"><line stroke="currentColor" x2="720"></line><text fill="currentColor" x="-3" dy="0.32em"></text></g><g class="tick" opacity="1" transform="translate(0,235.8846153846154)"><line stroke="currentColor" x2="720"></line><text fill="currentColor" x="-3" dy="0.32em"></text></g><g class="tick" opacity="1" transform="translate(0,209.73076923076925)"><line stroke="currentColor" x2="720"></line><text fill="currentColor" x="-3" dy="0.32em"></text></g><g class="tick" opacity="1" transform="translate(0,183.5769230769231)"><line stroke="currentColor" x2="720"></line><text fill="currentColor" x="-3" dy="0.32em"></text></g><g class="tick" opacity="1" transform="translate(0,157.42307692307693)"><line stroke="currentColor" x2="720"></line><text fill="currentColor" x="-3" dy="0.32em"></text></g><g class="tick" opacity="1" transform="translate(0,131.26923076923075)"><line stroke="currentColor" x2="720"></line><text fill="currentColor" x="-3" dy="0.32em"></text></g><g class="tick" opacity="1" transform="translate(0,105.11538461538463)"><line stroke="currentColor" x2="720"></line><text fill="currentColor" x="-3" dy="0.32em"></text></g><g class="tick" opacity="1" transform="translate(0,78.96153846153848)"><line stroke="currentColor" x2="720"></line><text fill="currentColor" x="-3" dy="0.32em"></text></g><g class="tick" opacity="1" transform="translate(0,52.807692307692314)"><line stroke="currentColor" x2="720"></line><text fill="currentColor" x="-3" dy="0.32em"></text></g><g class="tick" opacity="1" transform="translate(0,26.653846153846136)"><line stroke="currentColor" x2="720"></line><text fill="currentColor" x="-3" dy="0.32em"></text></g><g class="tick" opacity="1" transform="translate(0,0.5)"><line stroke="currentColor" x2="720"></line><text fill="currentColor" x="-3" dy="0.32em"></text></g></g></g><text x="400" y="10" text-anchor="middle" style="font-size: 16px; font-weight: bold; fill: #333;">OKX USDT Lending Rate - Current Month</text></svg>