<svg width="800" height="400" xmlns="http://www.w3.org/2000/svg"><g transform="translate(50,20)"><g transform="translate(0,340)" fill="none" font-size="10" font-family="sans-serif" text-anchor="middle"><path class="domain" stroke="currentColor" d="M0.5,6V0.5H720.5V6"></path><g class="tick" opacity="1" transform="translate(0.5,0)"><line stroke="currentColor" y2="6"></line><text fill="currentColor" y="9" dy=".15em" style="text-anchor: end;" dx="-.8em" transform="rotate(-45)">08/01</text></g><g class="tick" opacity="1" transform="translate(29.788135593220336,0)"><line stroke="currentColor" y2="6"></line><text fill="currentColor" y="9" dy=".15em" style="text-anchor: end;" dx="-.8em" transform="rotate(-45)">08/02</text></g><g class="tick" opacity="1" transform="translate(59.07627118644067,0)"><line stroke="currentColor" y2="6"></line><text fill="currentColor" y="9" dy=".15em" style="text-anchor: end;" dx="-.8em" transform="rotate(-45)">08/03</text></g><g class="tick" opacity="1" transform="translate(88.36440677966102,0)"><line stroke="currentColor" y2="6"></line><text fill="currentColor" y="9" dy=".15em" style="text-anchor: end;" dx="-.8em" transform="rotate(-45)">08/04</text></g><g class="tick" opacity="1" transform="translate(117.65254237288134,0)"><line stroke="currentColor" y2="6"></line><text fill="currentColor" y="9" dy=".15em" style="text-anchor: end;" dx="-.8em" transform="rotate(-45)">08/05</text></g><g class="tick" opacity="1" transform="translate(146.9406779661017,0)"><line stroke="currentColor" y2="6"></line><text fill="currentColor" y="9" dy=".15em" style="text-anchor: end;" dx="-.8em" transform="rotate(-45)">08/06</text></g><g class="tick" opacity="1" transform="translate(176.22881355932205,0)"><line stroke="currentColor" y2="6"></line><text fill="currentColor" y="9" dy=".15em" style="text-anchor: end;" dx="-.8em" transform="rotate(-45)">08/07</text></g><g class="tick" opacity="1" transform="translate(205.51694915254237,0)"><line stroke="currentColor" y2="6"></line><text fill="currentColor" y="9" dy=".15em" style="text-anchor: end;" dx="-.8em" transform="rotate(-45)">08/08</text></g><g class="tick" opacity="1" transform="translate(234.80508474576268,0)"><line stroke="currentColor" y2="6"></line><text fill="currentColor" y="9" dy=".15em" style="text-anchor: end;" dx="-.8em" transform="rotate(-45)">08/09</text></g><g class="tick" opacity="1" transform="translate(264.09322033898303,0)"><line stroke="currentColor" y2="6"></line><text fill="currentColor" y="9" dy=".15em" style="text-anchor: end;" dx="-.8em" transform="rotate(-45)">08/10</text></g><g class="tick" opacity="1" transform="translate(293.3813559322034,0)"><line stroke="currentColor" y2="6"></line><text fill="currentColor" y="9" dy=".15em" style="text-anchor: end;" dx="-.8em" transform="rotate(-45)">08/11</text></g><g class="tick" opacity="1" transform="translate(322.6694915254237,0)"><line stroke="currentColor" y2="6"></line><text fill="currentColor" y="9" dy=".15em" style="text-anchor: end;" dx="-.8em" transform="rotate(-45)">08/12</text></g><g class="tick" opacity="1" transform="translate(351.9576271186441,0)"><line stroke="currentColor" y2="6"></line><text fill="currentColor" y="9" dy=".15em" style="text-anchor: end;" dx="-.8em" transform="rotate(-45)">08/13</text></g><g class="tick" opacity="1" transform="translate(381.2457627118644,0)"><line stroke="currentColor" y2="6"></line><text fill="currentColor" y="9" dy=".15em" style="text-anchor: end;" dx="-.8em" transform="rotate(-45)">08/14</text></g><g class="tick" opacity="1" transform="translate(410.53389830508473,0)"><line stroke="currentColor" y2="6"></line><text fill="currentColor" y="9" dy=".15em" style="text-anchor: end;" dx="-.8em" transform="rotate(-45)">08/15</text></g><g class="tick" opacity="1" transform="translate(439.8220338983051,0)"><line stroke="currentColor" y2="6"></line><text fill="currentColor" y="9" dy=".15em" style="text-anchor: end;" dx="-.8em" transform="rotate(-45)">08/16</text></g><g class="tick" opacity="1" transform="translate(469.11016949152537,0)"><line stroke="currentColor" y2="6"></line><text fill="currentColor" y="9" dy=".15em" style="text-anchor: end;" dx="-.8em" transform="rotate(-45)">08/17</text></g><g class="tick" opacity="1" transform="translate(498.39830508474574,0)"><line stroke="currentColor" y2="6"></line><text fill="currentColor" y="9" dy=".15em" style="text-anchor: end;" dx="-.8em" transform="rotate(-45)">08/18</text></g><g class="tick" opacity="1" transform="translate(527.6864406779661,0)"><line stroke="currentColor" y2="6"></line><text fill="currentColor" y="9" dy=".15em" style="text-anchor: end;" dx="-.8em" transform="rotate(-45)">08/19</text></g><g class="tick" opacity="1" transform="translate(556.9745762711865,0)"><line stroke="currentColor" y2="6"></line><text fill="currentColor" y="9" dy=".15em" style="text-anchor: end;" dx="-.8em" transform="rotate(-45)">08/20</text></g><g class="tick" opacity="1" transform="translate(586.2627118644068,0)"><line stroke="currentColor" y2="6"></line><text fill="currentColor" y="9" dy=".15em" style="text-anchor: end;" dx="-.8em" transform="rotate(-45)">08/21</text></g><g class="tick" opacity="1" transform="translate(615.5508474576271,0)"><line stroke="currentColor" y2="6"></line><text fill="currentColor" y="9" dy=".15em" style="text-anchor: end;" dx="-.8em" transform="rotate(-45)">08/22</text></g><g class="tick" opacity="1" transform="translate(644.8389830508474,0)"><line stroke="currentColor" y2="6"></line><text fill="currentColor" y="9" dy=".15em" style="text-anchor: end;" dx="-.8em" transform="rotate(-45)">08/23</text></g><g class="tick" opacity="1" transform="translate(674.1271186440678,0)"><line stroke="currentColor" y2="6"></line><text fill="currentColor" y="9" dy=".15em" style="text-anchor: end;" dx="-.8em" transform="rotate(-45)">08/24</text></g><g class="tick" opacity="1" transform="translate(703.4152542372882,0)"><line stroke="currentColor" y2="6"></line><text fill="currentColor" y="9" dy=".15em" style="text-anchor: end;" dx="-.8em" transform="rotate(-45)">08/25</text></g></g><g fill="none" font-size="10" font-family="sans-serif" text-anchor="end"><path class="domain" stroke="currentColor" d="M-6,340.5H0.5V0.5H-6"></path><g class="tick" opacity="1" transform="translate(0,340.5)"><line stroke="currentColor" x2="-6"></line><text fill="currentColor" x="-9" dy="0.32em">5.00%</text></g><g class="tick" opacity="1" transform="translate(0,302.72222222222223)"><line stroke="currentColor" x2="-6"></line><text fill="currentColor" x="-9" dy="0.32em">10.00%</text></g><g class="tick" opacity="1" transform="translate(0,264.94444444444446)"><line stroke="currentColor" x2="-6"></line><text fill="currentColor" x="-9" dy="0.32em">15.00%</text></g><g class="tick" opacity="1" transform="translate(0,227.16666666666666)"><line stroke="currentColor" x2="-6"></line><text fill="currentColor" x="-9" dy="0.32em">20.00%</text></g><g class="tick" opacity="1" transform="translate(0,189.38888888888889)"><line stroke="currentColor" x2="-6"></line><text fill="currentColor" x="-9" dy="0.32em">25.00%</text></g><g class="tick" opacity="1" transform="translate(0,151.61111111111111)"><line stroke="currentColor" x2="-6"></line><text fill="currentColor" x="-9" dy="0.32em">30.00%</text></g><g class="tick" opacity="1" transform="translate(0,113.83333333333334)"><line stroke="currentColor" x2="-6"></line><text fill="currentColor" x="-9" dy="0.32em">35.00%</text></g><g class="tick" opacity="1" transform="translate(0,76.05555555555556)"><line stroke="currentColor" x2="-6"></line><text fill="currentColor" x="-9" dy="0.32em">40.00%</text></g><g class="tick" opacity="1" transform="translate(0,38.27777777777776)"><line stroke="currentColor" x2="-6"></line><text fill="currentColor" x="-9" dy="0.32em">45.00%</text></g><g class="tick" opacity="1" transform="translate(0,0.5)"><line stroke="currentColor" x2="-6"></line><text fill="currentColor" x="-9" dy="0.32em">50.00%</text></g></g><text transform="rotate(-90)" y="-50" x="-170" dy="1em" style="text-anchor: middle; font-size: 12px; fill: #666;">Pre Rate (%)</text><text transform="translate(360, 380)" style="text-anchor: middle; font-size: 12px; fill: #666;">Time (UTC)</text><path fill="none" stroke="#2563eb" stroke-width="2" d="M0,340C0.407,340,0.814,340,1.22,340C1.627,340,2.034,340,2.441,340C2.847,340,3.254,340,3.661,340C4.068,340,4.475,340,4.881,340C5.288,340,5.695,340,6.102,340C6.508,340,6.915,340,7.322,340C7.729,340,8.136,340,8.542,340C8.949,340,9.356,340,9.763,340C10.169,340,10.576,340,10.983,340C11.39,340,11.797,340,12.203,340C12.61,340,13.017,340,13.424,340C13.831,340,14.237,340,14.644,340C15.051,340,15.458,340,15.864,340C16.271,340,16.678,340,17.085,340C17.492,340,17.898,340,18.305,340C18.712,340,19.119,340,19.525,340C19.932,340,20.339,340,20.746,340C21.153,340,21.559,340,21.966,340C22.373,340,22.78,340,23.186,340C23.593,340,24,340,24.407,340C24.814,340,25.22,340,25.627,340C26.034,340,26.441,340,26.847,340C27.254,340,27.661,340,28.068,340C28.475,340,28.881,340,29.288,340C29.695,340,30.102,340,30.508,340C30.915,340,31.322,340,31.729,340C32.136,340,32.542,340,32.949,340C33.356,340,33.763,340,34.169,340C34.576,340,34.983,340,35.39,340C35.797,340,36.203,340,36.61,340C37.017,340,37.424,340,37.831,340C38.237,340,38.644,340,39.051,340C39.458,340,39.864,340,40.271,340C40.678,340,41.085,340,41.492,340C41.898,340,42.305,340,42.712,340C43.119,340,43.525,340,43.932,340C44.339,340,44.746,340,45.153,340C45.559,340,45.966,340,46.373,340C46.78,340,47.186,340,47.593,340C48,340,48.407,340,48.814,340C49.22,340,49.627,340,50.034,340C50.441,340,50.847,340,51.254,340C51.661,340,52.068,340,52.475,340C52.881,340,53.288,340,53.695,340C54.102,340,54.508,340,54.915,340C55.322,340,55.729,340,56.136,340C56.542,340,56.949,340,57.356,340C57.763,340,58.169,340,58.576,340C58.983,340,59.39,340,59.797,340C60.203,340,60.61,340,61.017,340C61.424,340,61.831,340,62.237,340C62.644,340,63.051,340,63.458,340C63.864,340,64.271,340,64.678,340C65.085,340,65.492,340,65.898,340C66.305,340,66.712,340,67.119,340C67.525,340,67.932,340,68.339,340C68.746,340,69.153,340,69.559,340C69.966,340,70.373,340,70.78,340C71.186,340,71.593,340,72,340C72.407,340,72.814,340,73.22,340C73.627,340,74.034,340,74.441,340C74.847,340,75.254,340,75.661,340C76.068,340,76.475,340,76.881,340C77.288,340,77.695,340,78.102,340C78.508,340,78.915,340,79.322,340C79.729,340,80.136,340,80.542,340C80.949,340,81.356,340,81.763,340C82.169,340,82.576,340,82.983,340C83.39,340,83.797,340,84.203,340C84.61,340,85.017,340,85.424,340C85.831,340,86.237,340,86.644,340C87.051,340,87.458,340,87.864,340C88.271,340,88.678,340,89.085,340C89.492,340,89.898,340,90.305,340C90.712,340,91.119,340,91.525,340C91.932,340,92.339,340,92.746,340C93.153,340,93.559,340,93.966,340C94.373,340,94.78,340,95.186,340C95.593,340,96,340,96.407,340C96.814,340,97.22,340,97.627,340C98.034,340,98.441,340,98.847,340C99.254,340,99.661,340,100.068,340C100.475,340,100.881,340,101.288,340C101.695,340,102.102,340,102.508,340C102.915,340,103.322,340,103.729,340C104.136,340,104.542,340,104.949,340C105.356,340,105.763,340,106.169,340C106.576,340,106.983,340,107.39,340C107.797,340,108.203,340,108.61,340C109.017,340,109.424,340,109.831,340C110.237,340,110.644,340,111.051,340C111.458,340,111.864,340,112.271,340C112.678,340,113.085,340,113.492,340C113.898,340,114.305,340,114.712,340C115.119,340,115.525,340,115.932,340C116.339,340,116.746,340,117.153,340C117.559,340,117.966,340,118.373,340C118.78,340,119.186,340,119.593,340C120,340,120.407,340,120.814,340C121.22,340,121.627,340,122.034,340C122.441,340,122.847,340,123.254,340C123.661,340,124.068,340,124.475,340C124.881,340,125.288,340,125.695,340C126.102,340,126.508,340,126.915,340C127.322,340,127.729,340,128.136,340C128.542,340,128.949,340,129.356,340C129.763,340,130.169,340,130.576,340C130.983,340,131.39,340,131.797,340C132.203,340,132.61,340,133.017,340C133.424,340,133.831,340,134.237,340C134.644,340,135.051,340,135.458,340C135.864,340,136.271,340,136.678,340C137.085,340,137.492,340,137.898,340C138.305,340,138.712,340,139.119,340C139.525,340,139.932,340,140.339,340C140.746,340,141.153,340,141.559,340C141.966,340,142.373,340,142.78,340C143.186,340,143.593,340,144,340C144.407,340,144.814,340,145.22,340C145.627,340,146.034,340,146.441,340C146.847,340,147.254,340,147.661,340C148.068,340,148.475,340,148.881,340C149.288,340,149.695,340,150.102,340C150.508,340,150.915,340,151.322,340C151.729,340,152.136,340,152.542,340C152.949,340,153.356,340,153.763,340C154.169,340,154.576,340,154.983,340C155.39,340,155.797,340,156.203,340C156.61,340,157.017,340,157.424,340C157.831,340,158.237,340,158.644,340C159.051,340,159.458,340,159.864,340C160.271,340,160.678,340,161.085,340C161.492,340,161.898,340,162.305,340C162.712,340,163.119,340,163.525,340C163.932,340,164.339,340,164.746,340C165.153,340,165.559,340,165.966,340C166.373,340,166.78,340,167.186,340C167.593,340,168,340,168.407,340C168.814,340,169.22,340,169.627,340C170.034,340,170.441,340,170.847,340C171.254,340,171.661,340,172.068,340C172.475,340,172.881,340,173.288,340C173.695,340,174.102,340,174.508,340C174.915,340,175.322,340,175.729,340C176.136,340,176.542,340,176.949,340C177.356,340,177.763,340,178.169,340C178.576,340,178.983,340,179.39,340C179.797,340,180.203,340,180.61,340C181.017,340,181.424,340,181.831,340C182.237,340,182.644,340,183.051,340C183.458,340,183.864,340,184.271,340C184.678,340,185.085,340,185.492,340C185.898,340,186.305,340,186.712,340C187.119,340,187.525,340,187.932,340C188.339,340,188.746,340,189.153,340C189.559,340,189.966,340,190.373,340C190.78,340,191.186,90.667,191.593,90.667C192,90.667,192.407,340,192.814,340C193.22,340,193.627,340,194.034,340C194.441,340,194.847,340,195.254,340C195.661,340,196.068,340,196.475,340C196.881,340,197.288,340,197.695,340C198.102,340,198.508,340,198.915,340C199.322,340,199.729,340,200.136,340C200.542,340,200.949,340,201.356,340C201.763,340,202.169,340,202.576,340C202.983,340,203.39,340,203.797,340C204.203,340,204.61,340,205.017,340C205.424,340,205.831,340,206.237,340C206.644,340,207.051,340,207.458,340C207.864,340,208.271,340,208.678,340C209.085,340,209.492,83.111,209.898,83.111C210.305,83.111,210.712,340,211.119,340C211.525,340,211.932,340,212.339,340C212.746,340,213.153,68,213.559,68C213.966,68,214.373,75.556,214.78,90.667C215.186,105.778,215.593,340,216,340C216.407,340,216.814,340,217.22,340C217.627,340,218.034,340,218.441,340C218.847,340,219.254,340,219.661,340C220.068,340,220.475,340,220.881,340C221.288,340,221.695,83.111,222.102,83.111C222.508,83.111,222.915,340,223.322,340C223.729,340,224.136,340,224.542,340C224.949,340,225.356,340,225.763,340C226.169,340,226.576,83.111,226.983,83.111C227.39,83.111,227.797,88.148,228.203,90.667C228.61,93.185,229.017,93.185,229.424,98.222C229.831,103.259,230.237,340,230.644,340C231.051,340,231.458,340,231.864,340C232.271,340,232.678,340,233.085,340C233.492,340,233.898,340,234.305,340C234.712,340,235.119,340,235.525,340C235.932,340,236.339,340,236.746,340C237.153,340,237.559,340,237.966,340C238.373,340,238.78,83.111,239.186,83.111C239.593,83.111,240,90.667,240.407,90.667C240.814,90.667,241.22,22.667,241.627,22.667C242.034,22.667,242.441,75.556,242.847,75.556C243.254,75.556,243.661,75.556,244.068,75.556C244.475,75.556,244.881,340,245.288,340C245.695,340,246.102,340,246.508,340C246.915,340,247.322,340,247.729,340C248.136,340,248.542,340,248.949,340C249.356,340,249.763,340,250.169,340C250.576,340,250.983,340,251.39,340C251.797,340,252.203,340,252.61,340C253.017,340,253.424,83.111,253.831,83.111C254.237,83.111,254.644,98.222,255.051,98.222C255.458,98.222,255.864,83.111,256.271,83.111C256.678,83.111,257.085,83.111,257.492,83.111C257.898,83.111,258.305,90.667,258.712,90.667C259.119,90.667,259.525,90.667,259.932,90.667C260.339,90.667,260.746,340,261.153,340C261.559,340,261.966,340,262.373,340C262.78,340,263.186,340,263.593,340C264,340,264.407,75.556,264.814,75.556C265.22,75.556,265.627,340,266.034,340C266.441,340,266.847,340,267.254,340C267.661,340,268.068,75.556,268.475,75.556C268.881,75.556,269.288,78.074,269.695,83.111C270.102,88.148,270.508,340,270.915,340C271.322,340,271.729,340,272.136,340C272.542,340,272.949,340,273.356,340C273.763,340,274.169,340,274.576,340C274.983,340,275.39,340,275.797,340C276.203,340,276.61,340,277.017,340C277.424,340,277.831,340,278.237,340C278.644,340,279.051,340,279.458,340C279.864,340,280.271,340,280.678,340C281.085,340,281.492,340,281.898,340C282.305,340,282.712,340,283.119,340C283.525,340,283.932,340,284.339,340C284.746,340,285.153,340,285.559,340C285.966,340,286.373,340,286.78,340C287.186,340,287.593,340,288,340C288.407,340,288.814,340,289.22,340C289.627,340,290.034,340,290.441,340C290.847,340,291.254,340,291.661,340C292.068,340,292.475,340,292.881,340C293.288,340,293.695,340,294.102,340C294.508,340,294.915,340,295.322,340C295.729,340,296.136,340,296.542,340C296.949,340,297.356,90.667,297.763,90.667C298.169,90.667,298.576,340,298.983,340C299.39,340,299.797,340,300.203,340C300.61,340,301.017,340,301.424,340C301.831,340,302.237,340,302.644,340C303.051,340,303.458,340,303.864,340C304.271,340,304.678,340,305.085,340C305.492,340,305.898,340,306.305,340C306.712,340,307.119,340,307.525,340C307.932,340,308.339,340,308.746,340C309.153,340,309.559,340,309.966,340C310.373,340,310.78,340,311.186,340C311.593,340,312,340,312.407,340C312.814,340,313.22,340,313.627,340C314.034,340,314.441,340,314.847,340C315.254,340,315.661,340,316.068,340C316.475,340,316.881,340,317.288,340C317.695,340,318.102,340,318.508,340C318.915,340,319.322,340,319.729,340C320.136,340,320.542,340,320.949,340C321.356,340,321.763,340,322.169,340C322.576,340,322.983,340,323.39,340C323.797,340,324.203,340,324.61,340C325.017,340,325.424,340,325.831,340C326.237,340,326.644,340,327.051,340C327.458,340,327.864,340,328.271,340C328.678,340,329.085,340,329.492,340C329.898,340,330.305,340,330.712,340C331.119,340,331.525,340,331.932,340C332.339,340,332.746,340,333.153,340C333.559,340,333.966,340,334.373,340C334.78,340,335.186,340,335.593,340C336,340,336.407,340,336.814,340C337.22,340,337.627,90.667,338.034,90.667C338.441,90.667,338.847,340,339.254,340C339.661,340,340.068,340,340.475,340C340.881,340,341.288,68,341.695,68C342.102,68,342.508,78.074,342.915,98.222C343.322,118.37,343.729,340,344.136,340C344.542,340,344.949,340,345.356,340C345.763,340,346.169,118.37,346.576,83.111C346.983,47.852,347.39,30.222,347.797,30.222C348.203,30.222,348.61,55.407,349.017,60.444C349.424,65.481,349.831,62.963,350.237,68C350.644,73.037,351.051,90.667,351.458,90.667C351.864,90.667,352.271,83.111,352.678,83.111C353.085,83.111,353.492,340,353.898,340C354.305,340,354.712,83.111,355.119,83.111C355.525,83.111,355.932,98.222,356.339,98.222C356.746,98.222,357.153,98.222,357.559,98.222C357.966,98.222,358.373,332.444,358.78,332.444C359.186,332.444,359.593,332.444,360,332.444C360.407,332.444,360.814,52.889,361.22,52.889C361.627,52.889,362.034,75.556,362.441,75.556C362.847,75.556,363.254,68,363.661,68C364.068,68,364.475,332.444,364.881,332.444C365.288,332.444,365.695,332.444,366.102,332.444C366.508,332.444,366.915,332.444,367.322,332.444C367.729,332.444,368.136,332.444,368.542,332.444C368.949,332.444,369.356,332.444,369.763,332.444C370.169,332.444,370.576,332.444,370.983,332.444C371.39,332.444,371.797,332.444,372.203,332.444C372.61,332.444,373.017,332.444,373.424,332.444C373.831,332.444,374.237,332.444,374.644,332.444C375.051,332.444,375.458,332.444,375.864,332.444C376.271,332.444,376.678,332.444,377.085,332.444C377.492,332.444,377.898,332.444,378.305,332.444C378.712,332.444,379.119,332.444,379.525,332.444C379.932,332.444,380.339,332.444,380.746,332.444C381.153,332.444,381.559,332.444,381.966,332.444C382.373,332.444,382.78,332.444,383.186,332.444C383.593,332.444,384,52.889,384.407,52.889C384.814,52.889,385.22,332.444,385.627,332.444C386.034,332.444,386.441,332.444,386.847,332.444C387.254,332.444,387.661,332.444,388.068,332.444C388.475,332.444,388.881,68,389.288,68C389.695,68,390.102,78.074,390.508,98.222C390.915,118.37,391.322,332.444,391.729,332.444C392.136,332.444,392.542,332.444,392.949,332.444C393.356,332.444,393.763,332.444,394.169,332.444C394.576,332.444,394.983,332.444,395.39,332.444C395.797,332.444,396.203,332.444,396.61,332.444C397.017,332.444,397.424,332.444,397.831,332.444C398.237,332.444,398.644,332.444,399.051,332.444C399.458,332.444,399.864,332.444,400.271,332.444C400.678,332.444,401.085,332.444,401.492,332.444C401.898,332.444,402.305,332.444,402.712,332.444C403.119,332.444,403.525,332.444,403.932,332.444C404.339,332.444,404.746,332.444,405.153,332.444C405.559,332.444,405.966,332.444,406.373,332.444C406.78,332.444,407.186,332.444,407.593,332.444C408,332.444,408.407,332.444,408.814,332.444C409.22,332.444,409.627,332.444,410.034,332.444C410.441,332.444,410.847,332.444,411.254,332.444C411.661,332.444,412.068,332.444,412.475,332.444C412.881,332.444,413.288,332.444,413.695,332.444C414.102,332.444,414.508,332.444,414.915,332.444C415.322,332.444,415.729,332.444,416.136,332.444C416.542,332.444,416.949,332.444,417.356,332.444C417.763,332.444,418.169,332.444,418.576,332.444C418.983,332.444,419.39,332.444,419.797,332.444C420.203,332.444,420.61,332.444,421.017,332.444C421.424,332.444,421.831,332.444,422.237,332.444C422.644,332.444,423.051,332.444,423.458,332.444C423.864,332.444,424.271,332.444,424.678,332.444C425.085,332.444,425.492,332.444,425.898,332.444C426.305,332.444,426.712,332.444,427.119,332.444C427.525,332.444,427.932,332.444,428.339,332.444C428.746,332.444,429.153,332.444,429.559,332.444C429.966,332.444,430.373,332.444,430.78,332.444C431.186,332.444,431.593,332.444,432,332.444C432.407,332.444,432.814,332.444,433.22,332.444C433.627,332.444,434.034,332.444,434.441,332.444C434.847,332.444,435.254,332.444,435.661,332.444C436.068,332.444,436.475,332.444,436.881,332.444C437.288,332.444,437.695,332.444,438.102,332.444C438.508,332.444,438.915,332.444,439.322,332.444C439.729,332.444,440.136,332.444,440.542,332.444C440.949,332.444,441.356,332.444,441.763,332.444C442.169,332.444,442.576,332.444,442.983,332.444C443.39,332.444,443.797,332.444,444.203,332.444C444.61,332.444,445.017,332.444,445.424,332.444C445.831,332.444,446.237,332.444,446.644,332.444C447.051,332.444,447.458,332.444,447.864,332.444C448.271,332.444,448.678,332.444,449.085,332.444C449.492,332.444,449.898,332.444,450.305,332.444C450.712,332.444,451.119,332.444,451.525,332.444C451.932,332.444,452.339,332.444,452.746,332.444C453.153,332.444,453.559,332.444,453.966,332.444C454.373,332.444,454.78,332.444,455.186,332.444C455.593,332.444,456,332.444,456.407,332.444C456.814,332.444,457.22,332.444,457.627,332.444C458.034,332.444,458.441,332.444,458.847,332.444C459.254,332.444,459.661,332.444,460.068,332.444C460.475,332.444,460.881,332.444,461.288,332.444C461.695,332.444,462.102,332.444,462.508,332.444C462.915,332.444,463.322,332.444,463.729,332.444C464.136,332.444,464.542,332.444,464.949,332.444C465.356,332.444,465.763,332.444,466.169,332.444C466.576,332.444,466.983,332.444,467.39,332.444C467.797,332.444,468.203,332.444,468.61,332.444C469.017,332.444,469.424,332.444,469.831,332.444C470.237,332.444,470.644,332.444,471.051,332.444C471.458,332.444,471.864,332.444,472.271,332.444C472.678,332.444,473.085,332.444,473.492,332.444C473.898,332.444,474.305,332.444,474.712,332.444C475.119,332.444,475.525,332.444,475.932,332.444C476.339,332.444,476.746,332.444,477.153,332.444C477.559,332.444,477.966,332.444,478.373,332.444C478.78,332.444,479.186,332.444,479.593,332.444C480,332.444,480.407,332.444,480.814,332.444C481.22,332.444,481.627,332.444,482.034,332.444C482.441,332.444,482.847,332.444,483.254,332.444C483.661,332.444,484.068,332.444,484.475,332.444C484.881,332.444,485.288,332.444,485.695,332.444C486.102,332.444,486.508,332.444,486.915,332.444C487.322,332.444,487.729,332.444,488.136,332.444C488.542,332.444,488.949,332.444,489.356,332.444C489.763,332.444,490.169,332.444,490.576,332.444C490.983,332.444,491.39,332.444,491.797,332.444C492.203,332.444,492.61,332.444,493.017,332.444C493.424,332.444,493.831,332.444,494.237,332.444C494.644,332.444,495.051,332.444,495.458,332.444C495.864,332.444,496.271,332.444,496.678,332.444C497.085,332.444,497.492,332.444,497.898,332.444C498.305,332.444,498.712,332.444,499.119,332.444C499.525,332.444,499.932,332.444,500.339,332.444C500.746,332.444,501.153,332.444,501.559,332.444C501.966,332.444,502.373,332.444,502.78,332.444C503.186,332.444,503.593,332.444,504,332.444C504.407,332.444,504.814,332.444,505.22,332.444C505.627,332.444,506.034,332.444,506.441,332.444C506.847,332.444,507.254,332.444,507.661,332.444C508.068,332.444,508.475,332.444,508.881,332.444C509.288,332.444,509.695,332.444,510.102,332.444C510.508,332.444,510.915,332.444,511.322,332.444C511.729,332.444,512.136,332.444,512.542,332.444C512.949,332.444,513.356,332.444,513.763,332.444C514.169,332.444,514.576,332.444,514.983,332.444C515.39,332.444,515.797,332.444,516.203,332.444C516.61,332.444,517.017,332.444,517.424,332.444C517.831,332.444,518.237,332.444,518.644,332.444C519.051,332.444,519.458,332.444,519.864,332.444C520.271,332.444,520.678,332.444,521.085,332.444C521.492,332.444,521.898,332.444,522.305,332.444C522.712,332.444,523.119,332.444,523.525,332.444C523.932,332.444,524.339,332.444,524.746,332.444C525.153,332.444,525.559,332.444,525.966,332.444C526.373,332.444,526.78,332.444,527.186,332.444C527.593,332.444,528,332.444,528.407,332.444C528.814,332.444,529.22,332.444,529.627,332.444C530.034,332.444,530.441,332.444,530.847,332.444C531.254,332.444,531.661,332.444,532.068,332.444C532.475,332.444,532.881,332.444,533.288,332.444C533.695,332.444,534.102,332.444,534.508,332.444C534.915,332.444,535.322,332.444,535.729,332.444C536.136,332.444,536.542,332.444,536.949,332.444C537.356,332.444,537.763,332.444,538.169,332.444C538.576,332.444,538.983,332.444,539.39,332.444C539.797,332.444,540.203,332.444,540.61,332.444C541.017,332.444,541.424,332.444,541.831,332.444C542.237,332.444,542.644,332.444,543.051,332.444C543.458,332.444,543.864,332.444,544.271,332.444C544.678,332.444,545.085,332.444,545.492,332.444C545.898,332.444,546.305,332.444,546.712,332.444C547.119,332.444,547.525,332.444,547.932,332.444C548.339,332.444,548.746,332.444,549.153,332.444C549.559,332.444,549.966,332.444,550.373,332.444C550.78,332.444,551.186,332.444,551.593,332.444C552,332.444,552.407,332.444,552.814,332.444C553.22,332.444,553.627,332.444,554.034,332.444C554.441,332.444,554.847,332.444,555.254,332.444C555.661,332.444,556.068,332.444,556.475,332.444C556.881,332.444,557.288,332.444,557.695,332.444C558.102,332.444,558.508,332.444,558.915,332.444C559.322,332.444,559.729,332.444,560.136,332.444C560.542,332.444,560.949,332.444,561.356,332.444C561.763,332.444,562.169,332.444,562.576,332.444C562.983,332.444,563.39,332.444,563.797,332.444C564.203,332.444,564.61,332.444,565.017,332.444C565.424,332.444,565.831,332.444,566.237,332.444C566.644,332.444,567.051,332.444,567.458,332.444C567.864,332.444,568.271,332.444,568.678,332.444C569.085,332.444,569.492,332.444,569.898,332.444C570.305,332.444,570.712,332.444,571.119,332.444C571.525,332.444,571.932,340,572.339,340C572.746,340,573.153,340,573.559,340C573.966,340,574.373,340,574.78,340C575.186,340,575.593,340,576,340C576.407,340,576.814,340,577.22,340C577.627,340,578.034,340,578.441,340C578.847,340,579.254,340,579.661,340C580.068,340,580.475,340,580.881,340C581.288,340,581.695,340,582.102,340C582.508,340,582.915,340,583.322,340C583.729,340,584.136,340,584.542,340C584.949,340,585.356,340,585.763,340C586.169,340,586.576,340,586.983,340C587.39,340,587.797,340,588.203,340C588.61,340,589.017,340,589.424,340C589.831,340,590.237,340,590.644,340C591.051,340,591.458,340,591.864,340C592.271,340,592.678,340,593.085,340C593.492,340,593.898,340,594.305,340C594.712,340,595.119,340,595.525,340C595.932,340,596.339,340,596.746,340C597.153,340,597.559,340,597.966,340C598.373,340,598.78,340,599.186,340C599.593,340,600,340,600.407,340C600.814,340,601.22,340,601.627,340C602.034,340,602.441,340,602.847,340C603.254,340,603.661,340,604.068,340C604.475,340,604.881,340,605.288,340C605.695,340,606.102,340,606.508,340C606.915,340,607.322,340,607.729,340C608.136,340,608.542,340,608.949,340C609.356,340,609.763,340,610.169,340C610.576,340,610.983,340,611.39,340C611.797,340,612.203,340,612.61,340C613.017,340,613.424,340,613.831,340C614.237,340,614.644,340,615.051,340C615.458,340,615.864,340,616.271,340C616.678,340,617.085,340,617.492,340C617.898,340,618.305,340,618.712,340C619.119,340,619.525,340,619.932,340C620.339,340,620.746,340,621.153,340C621.559,340,621.966,340,622.373,340C622.78,340,623.186,340,623.593,340C624,340,624.407,340,624.814,340C625.22,340,625.627,340,626.034,340C626.441,340,626.847,340,627.254,340C627.661,340,628.068,340,628.475,340C628.881,340,629.288,340,629.695,340C630.102,340,630.508,319.852,630.915,309.778C631.322,299.704,631.729,299.704,632.136,279.556C632.542,259.407,632.949,0,633.356,0C633.763,0,634.169,113.333,634.576,113.333C634.983,113.333,635.39,98.222,635.797,98.222C636.203,98.222,636.61,105.778,637.017,113.333C637.424,120.889,637.831,130.963,638.237,143.556C638.644,156.148,639.051,188.889,639.458,188.889C639.864,188.889,640.271,181.333,640.678,181.333C641.085,181.333,641.492,181.333,641.898,181.333C642.305,181.333,642.712,226.667,643.119,226.667C643.525,226.667,643.932,219.111,644.339,219.111C644.746,219.111,645.153,251.852,645.559,264.444C645.966,277.037,646.373,282.074,646.78,294.667C647.186,307.259,647.593,340,648,340C648.407,340,648.814,340,649.22,340C649.627,340,650.034,313.556,650.441,302.222C650.847,290.889,651.254,272,651.661,272C652.068,272,652.475,300.963,652.881,309.778C653.288,318.593,653.695,319.852,654.102,324.889C654.508,329.926,654.915,340,655.322,340C655.729,340,656.136,332.444,656.542,332.444C656.949,332.444,657.356,340,657.763,340C658.169,340,658.576,340,658.983,340C659.39,340,659.797,340,660.203,340C660.61,340,661.017,340,661.424,340C661.831,340,662.237,332.444,662.644,332.444C663.051,332.444,663.458,340,663.864,340C664.271,340,664.678,334.963,665.085,332.444C665.492,329.926,665.898,324.889,666.305,324.889C666.712,324.889,667.119,340,667.525,340C667.932,340,668.339,324.889,668.746,324.889C669.153,324.889,669.559,329.926,669.966,332.444C670.373,334.963,670.78,340,671.186,340C671.593,340,672,309.778,672.407,309.778C672.814,309.778,673.22,317.333,673.627,317.333C674.034,317.333,674.441,294.667,674.847,294.667C675.254,294.667,675.661,312.296,676.068,317.333C676.475,322.37,676.881,324.889,677.288,324.889C677.695,324.889,678.102,324.889,678.508,324.889C678.915,324.889,679.322,332.444,679.729,332.444C680.136,332.444,680.542,332.444,680.949,332.444C681.356,332.444,681.763,340,682.169,340C682.576,340,682.983,340,683.39,340C683.797,340,684.203,340,684.61,340C685.017,340,685.424,340,685.831,340C686.237,340,686.644,340,687.051,340C687.458,340,687.864,340,688.271,340C688.678,340,689.085,340,689.492,340C689.898,340,690.305,326.148,690.712,317.333C691.119,308.519,691.525,287.111,691.932,287.111C692.339,287.111,692.746,294.667,693.153,294.667C693.559,294.667,693.966,289.63,694.373,279.556C694.78,269.481,695.186,211.556,695.593,196.444C696,181.333,696.407,173.778,696.814,173.778C697.22,173.778,697.627,340,698.034,340C698.441,340,698.847,340,699.254,340C699.661,340,700.068,340,700.475,340C700.881,340,701.288,340,701.695,340C702.102,340,702.508,340,702.915,340C703.322,340,703.729,340,704.136,340C704.542,340,704.949,340,705.356,340C705.763,340,706.169,340,706.576,340C706.983,340,707.39,340,707.797,340C708.203,340,708.61,340,709.017,340C709.424,340,709.831,340,710.237,340C710.644,340,711.051,340,711.458,340C711.864,340,712.271,340,712.678,340C713.085,340,713.492,340,713.898,340C714.305,340,714.712,340,715.119,340C715.525,340,715.932,340,716.339,340C716.746,340,717.153,340,717.559,340C717.966,340,718.373,340,718.78,340C719.186,340,719.593,340,720,340"></path><circle class="dot" cx="0" cy="340" r="3" fill="#2563eb"></circle><circle class="dot" cx="1.2203389830508473" cy="340" r="3" fill="#2563eb"></circle><circle class="dot" cx="2.4406779661016946" cy="340" r="3" fill="#2563eb"></circle><circle class="dot" cx="3.661016949152542" cy="340" r="3" fill="#2563eb"></circle><circle class="dot" cx="4.881355932203389" cy="340" r="3" fill="#2563eb"></circle><circle class="dot" cx="6.101694915254237" cy="340" r="3" fill="#2563eb"></circle><circle class="dot" cx="7.322033898305084" cy="340" r="3" fill="#2563eb"></circle><circle class="dot" cx="8.542372881355933" cy="340" r="3" fill="#2563eb"></circle><circle class="dot" cx="9.762711864406779" cy="340" r="3" fill="#2563eb"></circle><circle class="dot" cx="10.983050847457628" cy="340" r="3" fill="#2563eb"></circle><circle class="dot" cx="12.203389830508474" cy="340" r="3" fill="#2563eb"></circle><circle class="dot" cx="13.423728813559324" cy="340" r="3" fill="#2563eb"></circle><circle class="dot" cx="14.644067796610168" cy="340" r="3" fill="#2563eb"></circle><circle class="dot" cx="15.864406779661017" cy="340" r="3" fill="#2563eb"></circle><circle class="dot" cx="17.084745762711865" cy="340" r="3" fill="#2563eb"></circle><circle class="dot" cx="18.305084745762713" cy="340" r="3" fill="#2563eb"></circle><circle class="dot" cx="19.525423728813557" cy="340" r="3" fill="#2563eb"></circle><circle class="dot" cx="20.74576271186441" cy="340" r="3" fill="#2563eb"></circle><circle class="dot" cx="21.966101694915256" cy="340" r="3" fill="#2563eb"></circle><circle class="dot" cx="23.1864406779661" cy="340" r="3" fill="#2563eb"></circle><circle class="dot" cx="24.406779661016948" cy="340" r="3" fill="#2563eb"></circle><circle class="dot" cx="25.627118644067796" cy="340" r="3" fill="#2563eb"></circle><circle class="dot" cx="26.847457627118647" cy="340" r="3" fill="#2563eb"></circle><circle class="dot" cx="28.067796610169495" cy="340" r="3" fill="#2563eb"></circle><circle class="dot" cx="29.288135593220336" cy="340" r="3" fill="#2563eb"></circle><circle class="dot" cx="30.508474576271183" cy="340" r="3" fill="#2563eb"></circle><circle class="dot" cx="31.728813559322035" cy="340" r="3" fill="#2563eb"></circle><circle class="dot" cx="32.94915254237288" cy="340" r="3" fill="#2563eb"></circle><circle class="dot" cx="34.16949152542373" cy="340" r="3" fill="#2563eb"></circle><circle class="dot" cx="35.389830508474574" cy="340" r="3" fill="#2563eb"></circle><circle class="dot" cx="36.610169491525426" cy="340" r="3" fill="#2563eb"></circle><circle class="dot" cx="37.83050847457627" cy="340" r="3" fill="#2563eb"></circle><circle class="dot" cx="39.050847457627114" cy="340" r="3" fill="#2563eb"></circle><circle class="dot" cx="40.271186440677965" cy="340" r="3" fill="#2563eb"></circle><circle class="dot" cx="41.49152542372882" cy="340" r="3" fill="#2563eb"></circle><circle class="dot" cx="42.71186440677966" cy="340" r="3" fill="#2563eb"></circle><circle class="dot" cx="43.93220338983051" cy="340" r="3" fill="#2563eb"></circle><circle class="dot" cx="45.152542372881356" cy="340" r="3" fill="#2563eb"></circle><circle class="dot" cx="46.3728813559322" cy="340" r="3" fill="#2563eb"></circle><circle class="dot" cx="47.59322033898305" cy="340" r="3" fill="#2563eb"></circle><circle class="dot" cx="48.813559322033896" cy="340" r="3" fill="#2563eb"></circle><circle class="dot" cx="50.03389830508475" cy="340" r="3" fill="#2563eb"></circle><circle class="dot" cx="51.25423728813559" cy="340" r="3" fill="#2563eb"></circle><circle class="dot" cx="52.47457627118644" cy="340" r="3" fill="#2563eb"></circle><circle class="dot" cx="53.694915254237294" cy="340" r="3" fill="#2563eb"></circle><circle class="dot" cx="54.91525423728814" cy="340" r="3" fill="#2563eb"></circle><circle class="dot" cx="56.13559322033899" cy="340" r="3" fill="#2563eb"></circle><circle class="dot" cx="57.35593220338983" cy="340" r="3" fill="#2563eb"></circle><circle class="dot" cx="58.57627118644067" cy="340" r="3" fill="#2563eb"></circle><circle class="dot" cx="59.79661016949152" cy="340" r="3" fill="#2563eb"></circle><circle class="dot" cx="61.01694915254237" cy="340" r="3" fill="#2563eb"></circle><circle class="dot" cx="62.23728813559322" cy="340" r="3" fill="#2563eb"></circle><circle class="dot" cx="63.45762711864407" cy="340" r="3" fill="#2563eb"></circle><circle class="dot" cx="64.67796610169492" cy="340" r="3" fill="#2563eb"></circle><circle class="dot" cx="65.89830508474576" cy="340" r="3" fill="#2563eb"></circle><circle class="dot" cx="67.11864406779661" cy="340" r="3" fill="#2563eb"></circle><circle class="dot" cx="68.33898305084746" cy="340" r="3" fill="#2563eb"></circle><circle class="dot" cx="69.55932203389831" cy="340" r="3" fill="#2563eb"></circle><circle class="dot" cx="70.77966101694915" cy="340" r="3" fill="#2563eb"></circle><circle class="dot" cx="72" cy="340" r="3" fill="#2563eb"></circle><circle class="dot" cx="73.22033898305085" cy="340" r="3" fill="#2563eb"></circle><circle class="dot" cx="74.44067796610169" cy="340" r="3" fill="#2563eb"></circle><circle class="dot" cx="75.66101694915254" cy="340" r="3" fill="#2563eb"></circle><circle class="dot" cx="76.88135593220339" cy="340" r="3" fill="#2563eb"></circle><circle class="dot" cx="78.10169491525423" cy="340" r="3" fill="#2563eb"></circle><circle class="dot" cx="79.32203389830508" cy="340" r="3" fill="#2563eb"></circle><circle class="dot" cx="80.54237288135593" cy="340" r="3" fill="#2563eb"></circle><circle class="dot" cx="81.76271186440678" cy="340" r="3" fill="#2563eb"></circle><circle class="dot" cx="82.98305084745763" cy="340" r="3" fill="#2563eb"></circle><circle class="dot" cx="84.20338983050847" cy="340" r="3" fill="#2563eb"></circle><circle class="dot" cx="85.42372881355932" cy="340" r="3" fill="#2563eb"></circle><circle class="dot" cx="86.64406779661017" cy="340" r="3" fill="#2563eb"></circle><circle class="dot" cx="87.86440677966102" cy="340" r="3" fill="#2563eb"></circle><circle class="dot" cx="89.08474576271188" cy="340" r="3" fill="#2563eb"></circle><circle class="dot" cx="90.30508474576271" cy="340" r="3" fill="#2563eb"></circle><circle class="dot" cx="91.52542372881355" cy="340" r="3" fill="#2563eb"></circle><circle class="dot" cx="92.7457627118644" cy="340" r="3" fill="#2563eb"></circle><circle class="dot" cx="93.96610169491525" cy="340" r="3" fill="#2563eb"></circle><circle class="dot" cx="95.1864406779661" cy="340" r="3" fill="#2563eb"></circle><circle class="dot" cx="96.40677966101694" cy="340" r="3" fill="#2563eb"></circle><circle class="dot" cx="97.62711864406779" cy="340" r="3" fill="#2563eb"></circle><circle class="dot" cx="98.84745762711864" cy="340" r="3" fill="#2563eb"></circle><circle class="dot" cx="100.0677966101695" cy="340" r="3" fill="#2563eb"></circle><circle class="dot" cx="101.28813559322035" cy="340" r="3" fill="#2563eb"></circle><circle class="dot" cx="102.50847457627118" cy="340" r="3" fill="#2563eb"></circle><circle class="dot" cx="103.72881355932203" cy="340" r="3" fill="#2563eb"></circle><circle class="dot" cx="104.94915254237289" cy="340" r="3" fill="#2563eb"></circle><circle class="dot" cx="106.16949152542374" cy="340" r="3" fill="#2563eb"></circle><circle class="dot" cx="107.38983050847459" cy="340" r="3" fill="#2563eb"></circle><circle class="dot" cx="108.61016949152543" cy="340" r="3" fill="#2563eb"></circle><circle class="dot" cx="109.83050847457628" cy="340" r="3" fill="#2563eb"></circle><circle class="dot" cx="111.05084745762713" cy="340" r="3" fill="#2563eb"></circle><circle class="dot" cx="112.27118644067798" cy="340" r="3" fill="#2563eb"></circle><circle class="dot" cx="113.49152542372882" cy="340" r="3" fill="#2563eb"></circle><circle class="dot" cx="114.71186440677965" cy="340" r="3" fill="#2563eb"></circle><circle class="dot" cx="115.9322033898305" cy="340" r="3" fill="#2563eb"></circle><circle class="dot" cx="117.15254237288134" cy="340" r="3" fill="#2563eb"></circle><circle class="dot" cx="118.3728813559322" cy="340" r="3" fill="#2563eb"></circle><circle class="dot" cx="119.59322033898304" cy="340" r="3" fill="#2563eb"></circle><circle class="dot" cx="120.8135593220339" cy="340" r="3" fill="#2563eb"></circle><circle class="dot" cx="122.03389830508473" cy="340" r="3" fill="#2563eb"></circle><circle class="dot" cx="123.25423728813558" cy="340" r="3" fill="#2563eb"></circle><circle class="dot" cx="124.47457627118644" cy="340" r="3" fill="#2563eb"></circle><circle class="dot" cx="125.69491525423729" cy="340" r="3" fill="#2563eb"></circle><circle class="dot" cx="126.91525423728814" cy="340" r="3" fill="#2563eb"></circle><circle class="dot" cx="128.135593220339" cy="340" r="3" fill="#2563eb"></circle><circle class="dot" cx="129.35593220338984" cy="340" r="3" fill="#2563eb"></circle><circle class="dot" cx="130.57627118644066" cy="340" r="3" fill="#2563eb"></circle><circle class="dot" cx="131.79661016949152" cy="340" r="3" fill="#2563eb"></circle><circle class="dot" cx="133.01694915254237" cy="340" r="3" fill="#2563eb"></circle><circle class="dot" cx="134.23728813559322" cy="340" r="3" fill="#2563eb"></circle><circle class="dot" cx="135.45762711864407" cy="340" r="3" fill="#2563eb"></circle><circle class="dot" cx="136.67796610169492" cy="340" r="3" fill="#2563eb"></circle><circle class="dot" cx="137.89830508474577" cy="340" r="3" fill="#2563eb"></circle><circle class="dot" cx="139.11864406779662" cy="340" r="3" fill="#2563eb"></circle><circle class="dot" cx="140.33898305084747" cy="340" r="3" fill="#2563eb"></circle><circle class="dot" cx="141.5593220338983" cy="340" r="3" fill="#2563eb"></circle><circle class="dot" cx="142.77966101694915" cy="340" r="3" fill="#2563eb"></circle><circle class="dot" cx="144" cy="340" r="3" fill="#2563eb"></circle><circle class="dot" cx="145.22033898305085" cy="340" r="3" fill="#2563eb"></circle><circle class="dot" cx="146.4406779661017" cy="340" r="3" fill="#2563eb"></circle><circle class="dot" cx="147.66101694915253" cy="340" r="3" fill="#2563eb"></circle><circle class="dot" cx="148.88135593220338" cy="340" r="3" fill="#2563eb"></circle><circle class="dot" cx="150.10169491525423" cy="340" r="3" fill="#2563eb"></circle><circle class="dot" cx="151.32203389830508" cy="340" r="3" fill="#2563eb"></circle><circle class="dot" cx="152.54237288135593" cy="340" r="3" fill="#2563eb"></circle><circle class="dot" cx="153.76271186440678" cy="340" r="3" fill="#2563eb"></circle><circle class="dot" cx="154.98305084745763" cy="340" r="3" fill="#2563eb"></circle><circle class="dot" cx="156.20338983050846" cy="340" r="3" fill="#2563eb"></circle><circle class="dot" cx="157.4237288135593" cy="340" r="3" fill="#2563eb"></circle><circle class="dot" cx="158.64406779661016" cy="340" r="3" fill="#2563eb"></circle><circle class="dot" cx="159.864406779661" cy="340" r="3" fill="#2563eb"></circle><circle class="dot" cx="161.08474576271186" cy="340" r="3" fill="#2563eb"></circle><circle class="dot" cx="162.3050847457627" cy="340" r="3" fill="#2563eb"></circle><circle class="dot" cx="163.52542372881356" cy="340" r="3" fill="#2563eb"></circle><circle class="dot" cx="164.74576271186442" cy="340" r="3" fill="#2563eb"></circle><circle class="dot" cx="165.96610169491527" cy="340" r="3" fill="#2563eb"></circle><circle class="dot" cx="167.18644067796612" cy="340" r="3" fill="#2563eb"></circle><circle class="dot" cx="168.40677966101694" cy="340" r="3" fill="#2563eb"></circle><circle class="dot" cx="169.6271186440678" cy="340" r="3" fill="#2563eb"></circle><circle class="dot" cx="170.84745762711864" cy="340" r="3" fill="#2563eb"></circle><circle class="dot" cx="172.0677966101695" cy="340" r="3" fill="#2563eb"></circle><circle class="dot" cx="173.28813559322035" cy="340" r="3" fill="#2563eb"></circle><circle class="dot" cx="174.5084745762712" cy="340" r="3" fill="#2563eb"></circle><circle class="dot" cx="175.72881355932205" cy="340" r="3" fill="#2563eb"></circle><circle class="dot" cx="176.9491525423729" cy="340" r="3" fill="#2563eb"></circle><circle class="dot" cx="178.16949152542375" cy="340" r="3" fill="#2563eb"></circle><circle class="dot" cx="179.38983050847457" cy="340" r="3" fill="#2563eb"></circle><circle class="dot" cx="180.61016949152543" cy="340" r="3" fill="#2563eb"></circle><circle class="dot" cx="181.83050847457628" cy="340" r="3" fill="#2563eb"></circle><circle class="dot" cx="183.0508474576271" cy="340" r="3" fill="#2563eb"></circle><circle class="dot" cx="184.27118644067798" cy="340" r="3" fill="#2563eb"></circle><circle class="dot" cx="185.4915254237288" cy="340" r="3" fill="#2563eb"></circle><circle class="dot" cx="186.71186440677968" cy="340" r="3" fill="#2563eb"></circle><circle class="dot" cx="187.9322033898305" cy="340" r="3" fill="#2563eb"></circle><circle class="dot" cx="189.15254237288138" cy="340" r="3" fill="#2563eb"></circle><circle class="dot" cx="190.3728813559322" cy="340" r="3" fill="#2563eb"></circle><circle class="dot" cx="191.59322033898306" cy="90.66666666666664" r="3" fill="#2563eb"></circle><circle class="dot" cx="192.81355932203388" cy="340" r="3" fill="#2563eb"></circle><circle class="dot" cx="194.03389830508476" cy="340" r="3" fill="#2563eb"></circle><circle class="dot" cx="195.25423728813558" cy="340" r="3" fill="#2563eb"></circle><circle class="dot" cx="196.4745762711864" cy="340" r="3" fill="#2563eb"></circle><circle class="dot" cx="197.6949152542373" cy="340" r="3" fill="#2563eb"></circle><circle class="dot" cx="198.9152542372881" cy="340" r="3" fill="#2563eb"></circle><circle class="dot" cx="200.135593220339" cy="340" r="3" fill="#2563eb"></circle><circle class="dot" cx="201.3559322033898" cy="340" r="3" fill="#2563eb"></circle><circle class="dot" cx="202.5762711864407" cy="340" r="3" fill="#2563eb"></circle><circle class="dot" cx="203.79661016949152" cy="340" r="3" fill="#2563eb"></circle><circle class="dot" cx="205.01694915254237" cy="340" r="3" fill="#2563eb"></circle><circle class="dot" cx="206.23728813559322" cy="340" r="3" fill="#2563eb"></circle><circle class="dot" cx="207.45762711864407" cy="340" r="3" fill="#2563eb"></circle><circle class="dot" cx="208.6779661016949" cy="340" r="3" fill="#2563eb"></circle><circle class="dot" cx="209.89830508474577" cy="83.11111111111111" r="3" fill="#2563eb"></circle><circle class="dot" cx="211.1186440677966" cy="340" r="3" fill="#2563eb"></circle><circle class="dot" cx="212.33898305084747" cy="340" r="3" fill="#2563eb"></circle><circle class="dot" cx="213.5593220338983" cy="68.00000000000003" r="3" fill="#2563eb"></circle><circle class="dot" cx="214.77966101694918" cy="90.66666666666664" r="3" fill="#2563eb"></circle><circle class="dot" cx="216" cy="340" r="3" fill="#2563eb"></circle><circle class="dot" cx="217.22033898305085" cy="340" r="3" fill="#2563eb"></circle><circle class="dot" cx="218.4406779661017" cy="340" r="3" fill="#2563eb"></circle><circle class="dot" cx="219.66101694915255" cy="340" r="3" fill="#2563eb"></circle><circle class="dot" cx="220.88135593220338" cy="340" r="3" fill="#2563eb"></circle><circle class="dot" cx="222.10169491525426" cy="83.11111111111111" r="3" fill="#2563eb"></circle><circle class="dot" cx="223.32203389830508" cy="340" r="3" fill="#2563eb"></circle><circle class="dot" cx="224.54237288135596" cy="340" r="3" fill="#2563eb"></circle><circle class="dot" cx="225.76271186440678" cy="340" r="3" fill="#2563eb"></circle><circle class="dot" cx="226.98305084745763" cy="83.11111111111111" r="3" fill="#2563eb"></circle><circle class="dot" cx="228.20338983050848" cy="90.66666666666664" r="3" fill="#2563eb"></circle><circle class="dot" cx="229.4237288135593" cy="98.22222222222221" r="3" fill="#2563eb"></circle><circle class="dot" cx="230.64406779661016" cy="340" r="3" fill="#2563eb"></circle><circle class="dot" cx="231.864406779661" cy="340" r="3" fill="#2563eb"></circle><circle class="dot" cx="233.08474576271186" cy="340" r="3" fill="#2563eb"></circle><circle class="dot" cx="234.30508474576268" cy="340" r="3" fill="#2563eb"></circle><circle class="dot" cx="235.52542372881356" cy="340" r="3" fill="#2563eb"></circle><circle class="dot" cx="236.7457627118644" cy="340" r="3" fill="#2563eb"></circle><circle class="dot" cx="237.96610169491527" cy="340" r="3" fill="#2563eb"></circle><circle class="dot" cx="239.1864406779661" cy="83.11111111111111" r="3" fill="#2563eb"></circle><circle class="dot" cx="240.40677966101697" cy="90.66666666666664" r="3" fill="#2563eb"></circle><circle class="dot" cx="241.6271186440678" cy="22.6666666666667" r="3" fill="#2563eb"></circle><circle class="dot" cx="242.84745762711864" cy="75.55555555555556" r="3" fill="#2563eb"></circle><circle class="dot" cx="244.06779661016947" cy="75.55555555555556" r="3" fill="#2563eb"></circle><circle class="dot" cx="245.28813559322035" cy="340" r="3" fill="#2563eb"></circle><circle class="dot" cx="246.50847457627117" cy="340" r="3" fill="#2563eb"></circle><circle class="dot" cx="247.72881355932205" cy="340" r="3" fill="#2563eb"></circle><circle class="dot" cx="248.94915254237287" cy="340" r="3" fill="#2563eb"></circle><circle class="dot" cx="250.16949152542375" cy="340" r="3" fill="#2563eb"></circle><circle class="dot" cx="251.38983050847457" cy="340" r="3" fill="#2563eb"></circle><circle class="dot" cx="252.61016949152543" cy="340" r="3" fill="#2563eb"></circle><circle class="dot" cx="253.83050847457628" cy="83.11111111111111" r="3" fill="#2563eb"></circle><circle class="dot" cx="255.05084745762713" cy="98.22222222222221" r="3" fill="#2563eb"></circle><circle class="dot" cx="256.271186440678" cy="83.11111111111111" r="3" fill="#2563eb"></circle><circle class="dot" cx="257.49152542372883" cy="83.11111111111111" r="3" fill="#2563eb"></circle><circle class="dot" cx="258.7118644067797" cy="90.66666666666664" r="3" fill="#2563eb"></circle><circle class="dot" cx="259.93220338983053" cy="90.66666666666664" r="3" fill="#2563eb"></circle><circle class="dot" cx="261.1525423728813" cy="340" r="3" fill="#2563eb"></circle><circle class="dot" cx="262.3728813559322" cy="340" r="3" fill="#2563eb"></circle><circle class="dot" cx="263.59322033898303" cy="340" r="3" fill="#2563eb"></circle><circle class="dot" cx="264.8135593220339" cy="75.55555555555556" r="3" fill="#2563eb"></circle><circle class="dot" cx="266.03389830508473" cy="340" r="3" fill="#2563eb"></circle><circle class="dot" cx="267.2542372881356" cy="340" r="3" fill="#2563eb"></circle><circle class="dot" cx="268.47457627118644" cy="75.55555555555556" r="3" fill="#2563eb"></circle><circle class="dot" cx="269.6949152542373" cy="83.11111111111111" r="3" fill="#2563eb"></circle><circle class="dot" cx="270.91525423728814" cy="340" r="3" fill="#2563eb"></circle><circle class="dot" cx="272.135593220339" cy="340" r="3" fill="#2563eb"></circle><circle class="dot" cx="273.35593220338984" cy="340" r="3" fill="#2563eb"></circle><circle class="dot" cx="274.5762711864407" cy="340" r="3" fill="#2563eb"></circle><circle class="dot" cx="275.79661016949154" cy="340" r="3" fill="#2563eb"></circle><circle class="dot" cx="277.01694915254234" cy="340" r="3" fill="#2563eb"></circle><circle class="dot" cx="278.23728813559325" cy="340" r="3" fill="#2563eb"></circle><circle class="dot" cx="279.45762711864404" cy="340" r="3" fill="#2563eb"></circle><circle class="dot" cx="280.67796610169495" cy="340" r="3" fill="#2563eb"></circle><circle class="dot" cx="281.89830508474574" cy="340" r="3" fill="#2563eb"></circle><circle class="dot" cx="283.1186440677966" cy="340" r="3" fill="#2563eb"></circle><circle class="dot" cx="284.33898305084745" cy="340" r="3" fill="#2563eb"></circle><circle class="dot" cx="285.5593220338983" cy="340" r="3" fill="#2563eb"></circle><circle class="dot" cx="286.77966101694915" cy="340" r="3" fill="#2563eb"></circle><circle class="dot" cx="288" cy="340" r="3" fill="#2563eb"></circle><circle class="dot" cx="289.22033898305085" cy="340" r="3" fill="#2563eb"></circle><circle class="dot" cx="290.4406779661017" cy="340" r="3" fill="#2563eb"></circle><circle class="dot" cx="291.66101694915255" cy="340" r="3" fill="#2563eb"></circle><circle class="dot" cx="292.8813559322034" cy="340" r="3" fill="#2563eb"></circle><circle class="dot" cx="294.10169491525426" cy="340" r="3" fill="#2563eb"></circle><circle class="dot" cx="295.32203389830505" cy="340" r="3" fill="#2563eb"></circle><circle class="dot" cx="296.54237288135596" cy="340" r="3" fill="#2563eb"></circle><circle class="dot" cx="297.76271186440675" cy="90.66666666666664" r="3" fill="#2563eb"></circle><circle class="dot" cx="298.9830508474576" cy="340" r="3" fill="#2563eb"></circle><circle class="dot" cx="300.20338983050846" cy="340" r="3" fill="#2563eb"></circle><circle class="dot" cx="301.4237288135593" cy="340" r="3" fill="#2563eb"></circle><circle class="dot" cx="302.64406779661016" cy="340" r="3" fill="#2563eb"></circle><circle class="dot" cx="303.864406779661" cy="340" r="3" fill="#2563eb"></circle><circle class="dot" cx="305.08474576271186" cy="340" r="3" fill="#2563eb"></circle><circle class="dot" cx="306.3050847457627" cy="340" r="3" fill="#2563eb"></circle><circle class="dot" cx="307.52542372881356" cy="340" r="3" fill="#2563eb"></circle><circle class="dot" cx="308.7457627118644" cy="340" r="3" fill="#2563eb"></circle><circle class="dot" cx="309.96610169491527" cy="340" r="3" fill="#2563eb"></circle><circle class="dot" cx="311.1864406779661" cy="340" r="3" fill="#2563eb"></circle><circle class="dot" cx="312.4067796610169" cy="340" r="3" fill="#2563eb"></circle><circle class="dot" cx="313.6271186440678" cy="340" r="3" fill="#2563eb"></circle><circle class="dot" cx="314.8474576271186" cy="340" r="3" fill="#2563eb"></circle><circle class="dot" cx="316.0677966101695" cy="340" r="3" fill="#2563eb"></circle><circle class="dot" cx="317.2881355932203" cy="340" r="3" fill="#2563eb"></circle><circle class="dot" cx="318.5084745762712" cy="340" r="3" fill="#2563eb"></circle><circle class="dot" cx="319.728813559322" cy="340" r="3" fill="#2563eb"></circle><circle class="dot" cx="320.9491525423729" cy="340" r="3" fill="#2563eb"></circle><circle class="dot" cx="322.1694915254237" cy="340" r="3" fill="#2563eb"></circle><circle class="dot" cx="323.3898305084746" cy="340" r="3" fill="#2563eb"></circle><circle class="dot" cx="324.6101694915254" cy="340" r="3" fill="#2563eb"></circle><circle class="dot" cx="325.8305084745763" cy="340" r="3" fill="#2563eb"></circle><circle class="dot" cx="327.0508474576271" cy="340" r="3" fill="#2563eb"></circle><circle class="dot" cx="328.2711864406779" cy="340" r="3" fill="#2563eb"></circle><circle class="dot" cx="329.49152542372883" cy="340" r="3" fill="#2563eb"></circle><circle class="dot" cx="330.7118644067796" cy="340" r="3" fill="#2563eb"></circle><circle class="dot" cx="331.93220338983053" cy="340" r="3" fill="#2563eb"></circle><circle class="dot" cx="333.1525423728813" cy="340" r="3" fill="#2563eb"></circle><circle class="dot" cx="334.37288135593224" cy="340" r="3" fill="#2563eb"></circle><circle class="dot" cx="335.59322033898303" cy="340" r="3" fill="#2563eb"></circle><circle class="dot" cx="336.8135593220339" cy="340" r="3" fill="#2563eb"></circle><circle class="dot" cx="338.03389830508473" cy="90.66666666666664" r="3" fill="#2563eb"></circle><circle class="dot" cx="339.2542372881356" cy="340" r="3" fill="#2563eb"></circle><circle class="dot" cx="340.47457627118644" cy="340" r="3" fill="#2563eb"></circle><circle class="dot" cx="341.6949152542373" cy="68.00000000000003" r="3" fill="#2563eb"></circle><circle class="dot" cx="342.91525423728814" cy="98.22222222222221" r="3" fill="#2563eb"></circle><circle class="dot" cx="344.135593220339" cy="340" r="3" fill="#2563eb"></circle><circle class="dot" cx="345.35593220338984" cy="340" r="3" fill="#2563eb"></circle><circle class="dot" cx="346.5762711864407" cy="83.11111111111111" r="3" fill="#2563eb"></circle><circle class="dot" cx="347.79661016949154" cy="30.22222222222219" r="3" fill="#2563eb"></circle><circle class="dot" cx="349.0169491525424" cy="60.44444444444446" r="3" fill="#2563eb"></circle><circle class="dot" cx="350.2372881355932" cy="68.00000000000003" r="3" fill="#2563eb"></circle><circle class="dot" cx="351.4576271186441" cy="90.66666666666664" r="3" fill="#2563eb"></circle><circle class="dot" cx="352.6779661016949" cy="83.11111111111111" r="3" fill="#2563eb"></circle><circle class="dot" cx="353.8983050847458" cy="340" r="3" fill="#2563eb"></circle><circle class="dot" cx="355.1186440677966" cy="83.11111111111111" r="3" fill="#2563eb"></circle><circle class="dot" cx="356.3389830508475" cy="98.22222222222221" r="3" fill="#2563eb"></circle><circle class="dot" cx="357.5593220338983" cy="98.22222222222221" r="3" fill="#2563eb"></circle><circle class="dot" cx="358.77966101694915" cy="332.44444444444446" r="3" fill="#2563eb"></circle><circle class="dot" cx="360" cy="332.44444444444446" r="3" fill="#2563eb"></circle><circle class="dot" cx="361.22033898305085" cy="52.88888888888889" r="3" fill="#2563eb"></circle><circle class="dot" cx="362.44067796610165" cy="75.55555555555556" r="3" fill="#2563eb"></circle><circle class="dot" cx="363.66101694915255" cy="68.00000000000003" r="3" fill="#2563eb"></circle><circle class="dot" cx="364.8813559322034" cy="332.44444444444446" r="3" fill="#2563eb"></circle><circle class="dot" cx="366.1016949152542" cy="332.44444444444446" r="3" fill="#2563eb"></circle><circle class="dot" cx="367.32203389830505" cy="332.44444444444446" r="3" fill="#2563eb"></circle><circle class="dot" cx="368.54237288135596" cy="332.44444444444446" r="3" fill="#2563eb"></circle><circle class="dot" cx="369.7627118644068" cy="332.44444444444446" r="3" fill="#2563eb"></circle><circle class="dot" cx="370.9830508474576" cy="332.44444444444446" r="3" fill="#2563eb"></circle><circle class="dot" cx="372.20338983050846" cy="332.44444444444446" r="3" fill="#2563eb"></circle><circle class="dot" cx="373.42372881355936" cy="332.44444444444446" r="3" fill="#2563eb"></circle><circle class="dot" cx="374.64406779661016" cy="332.44444444444446" r="3" fill="#2563eb"></circle><circle class="dot" cx="375.864406779661" cy="332.44444444444446" r="3" fill="#2563eb"></circle><circle class="dot" cx="377.08474576271186" cy="332.44444444444446" r="3" fill="#2563eb"></circle><circle class="dot" cx="378.30508474576277" cy="332.44444444444446" r="3" fill="#2563eb"></circle><circle class="dot" cx="379.52542372881356" cy="332.44444444444446" r="3" fill="#2563eb"></circle><circle class="dot" cx="380.7457627118644" cy="332.44444444444446" r="3" fill="#2563eb"></circle><circle class="dot" cx="381.9661016949152" cy="332.44444444444446" r="3" fill="#2563eb"></circle><circle class="dot" cx="383.1864406779661" cy="332.44444444444446" r="3" fill="#2563eb"></circle><circle class="dot" cx="384.40677966101697" cy="52.88888888888889" r="3" fill="#2563eb"></circle><circle class="dot" cx="385.62711864406776" cy="332.44444444444446" r="3" fill="#2563eb"></circle><circle class="dot" cx="386.8474576271186" cy="332.44444444444446" r="3" fill="#2563eb"></circle><circle class="dot" cx="388.0677966101695" cy="332.44444444444446" r="3" fill="#2563eb"></circle><circle class="dot" cx="389.2881355932204" cy="68.00000000000003" r="3" fill="#2563eb"></circle><circle class="dot" cx="390.50847457627117" cy="98.22222222222221" r="3" fill="#2563eb"></circle><circle class="dot" cx="391.728813559322" cy="332.44444444444446" r="3" fill="#2563eb"></circle><circle class="dot" cx="392.9491525423728" cy="332.44444444444446" r="3" fill="#2563eb"></circle><circle class="dot" cx="394.1694915254237" cy="332.44444444444446" r="3" fill="#2563eb"></circle><circle class="dot" cx="395.3898305084746" cy="332.44444444444446" r="3" fill="#2563eb"></circle><circle class="dot" cx="396.6101694915254" cy="332.44444444444446" r="3" fill="#2563eb"></circle><circle class="dot" cx="397.8305084745762" cy="332.44444444444446" r="3" fill="#2563eb"></circle><circle class="dot" cx="399.0508474576271" cy="332.44444444444446" r="3" fill="#2563eb"></circle><circle class="dot" cx="400.271186440678" cy="332.44444444444446" r="3" fill="#2563eb"></circle><circle class="dot" cx="401.4915254237288" cy="332.44444444444446" r="3" fill="#2563eb"></circle><circle class="dot" cx="402.7118644067796" cy="332.44444444444446" r="3" fill="#2563eb"></circle><circle class="dot" cx="403.93220338983053" cy="332.44444444444446" r="3" fill="#2563eb"></circle><circle class="dot" cx="405.1525423728814" cy="332.44444444444446" r="3" fill="#2563eb"></circle><circle class="dot" cx="406.3728813559322" cy="332.44444444444446" r="3" fill="#2563eb"></circle><circle class="dot" cx="407.59322033898303" cy="332.44444444444446" r="3" fill="#2563eb"></circle><circle class="dot" cx="408.81355932203394" cy="332.44444444444446" r="3" fill="#2563eb"></circle><circle class="dot" cx="410.03389830508473" cy="332.44444444444446" r="3" fill="#2563eb"></circle><circle class="dot" cx="411.2542372881356" cy="332.44444444444446" r="3" fill="#2563eb"></circle><circle class="dot" cx="412.47457627118644" cy="332.44444444444446" r="3" fill="#2563eb"></circle><circle class="dot" cx="413.69491525423734" cy="332.44444444444446" r="3" fill="#2563eb"></circle><circle class="dot" cx="414.91525423728814" cy="332.44444444444446" r="3" fill="#2563eb"></circle><circle class="dot" cx="416.135593220339" cy="332.44444444444446" r="3" fill="#2563eb"></circle><circle class="dot" cx="417.3559322033898" cy="332.44444444444446" r="3" fill="#2563eb"></circle><circle class="dot" cx="418.5762711864407" cy="332.44444444444446" r="3" fill="#2563eb"></circle><circle class="dot" cx="419.79661016949154" cy="332.44444444444446" r="3" fill="#2563eb"></circle><circle class="dot" cx="421.0169491525424" cy="332.44444444444446" r="3" fill="#2563eb"></circle><circle class="dot" cx="422.2372881355932" cy="332.44444444444446" r="3" fill="#2563eb"></circle><circle class="dot" cx="423.4576271186441" cy="332.44444444444446" r="3" fill="#2563eb"></circle><circle class="dot" cx="424.67796610169495" cy="332.44444444444446" r="3" fill="#2563eb"></circle><circle class="dot" cx="425.89830508474574" cy="332.44444444444446" r="3" fill="#2563eb"></circle><circle class="dot" cx="427.1186440677966" cy="332.44444444444446" r="3" fill="#2563eb"></circle><circle class="dot" cx="428.33898305084745" cy="332.44444444444446" r="3" fill="#2563eb"></circle><circle class="dot" cx="429.55932203389835" cy="332.44444444444446" r="3" fill="#2563eb"></circle><circle class="dot" cx="430.77966101694915" cy="332.44444444444446" r="3" fill="#2563eb"></circle><circle class="dot" cx="432" cy="332.44444444444446" r="3" fill="#2563eb"></circle><circle class="dot" cx="433.2203389830508" cy="332.44444444444446" r="3" fill="#2563eb"></circle><circle class="dot" cx="434.4406779661017" cy="332.44444444444446" r="3" fill="#2563eb"></circle><circle class="dot" cx="435.66101694915255" cy="332.44444444444446" r="3" fill="#2563eb"></circle><circle class="dot" cx="436.8813559322034" cy="332.44444444444446" r="3" fill="#2563eb"></circle><circle class="dot" cx="438.1016949152542" cy="332.44444444444446" r="3" fill="#2563eb"></circle><circle class="dot" cx="439.3220338983051" cy="332.44444444444446" r="3" fill="#2563eb"></circle><circle class="dot" cx="440.54237288135596" cy="332.44444444444446" r="3" fill="#2563eb"></circle><circle class="dot" cx="441.76271186440675" cy="332.44444444444446" r="3" fill="#2563eb"></circle><circle class="dot" cx="442.9830508474576" cy="332.44444444444446" r="3" fill="#2563eb"></circle><circle class="dot" cx="444.2033898305085" cy="332.44444444444446" r="3" fill="#2563eb"></circle><circle class="dot" cx="445.4237288135593" cy="332.44444444444446" r="3" fill="#2563eb"></circle><circle class="dot" cx="446.64406779661016" cy="332.44444444444446" r="3" fill="#2563eb"></circle><circle class="dot" cx="447.864406779661" cy="332.44444444444446" r="3" fill="#2563eb"></circle><circle class="dot" cx="449.0847457627119" cy="332.44444444444446" r="3" fill="#2563eb"></circle><circle class="dot" cx="450.3050847457627" cy="332.44444444444446" r="3" fill="#2563eb"></circle><circle class="dot" cx="451.52542372881356" cy="332.44444444444446" r="3" fill="#2563eb"></circle><circle class="dot" cx="452.74576271186436" cy="332.44444444444446" r="3" fill="#2563eb"></circle><circle class="dot" cx="453.96610169491527" cy="332.44444444444446" r="3" fill="#2563eb"></circle><circle class="dot" cx="455.1864406779661" cy="332.44444444444446" r="3" fill="#2563eb"></circle><circle class="dot" cx="456.40677966101697" cy="332.44444444444446" r="3" fill="#2563eb"></circle><circle class="dot" cx="457.62711864406776" cy="332.44444444444446" r="3" fill="#2563eb"></circle><circle class="dot" cx="458.8474576271186" cy="332.44444444444446" r="3" fill="#2563eb"></circle><circle class="dot" cx="460.0677966101695" cy="332.44444444444446" r="3" fill="#2563eb"></circle><circle class="dot" cx="461.2881355932203" cy="332.44444444444446" r="3" fill="#2563eb"></circle><circle class="dot" cx="462.50847457627117" cy="332.44444444444446" r="3" fill="#2563eb"></circle><circle class="dot" cx="463.728813559322" cy="332.44444444444446" r="3" fill="#2563eb"></circle><circle class="dot" cx="464.94915254237293" cy="332.44444444444446" r="3" fill="#2563eb"></circle><circle class="dot" cx="466.1694915254237" cy="332.44444444444446" r="3" fill="#2563eb"></circle><circle class="dot" cx="467.3898305084746" cy="332.44444444444446" r="3" fill="#2563eb"></circle><circle class="dot" cx="468.61016949152537" cy="332.44444444444446" r="3" fill="#2563eb"></circle><circle class="dot" cx="469.8305084745763" cy="332.44444444444446" r="3" fill="#2563eb"></circle><circle class="dot" cx="471.0508474576271" cy="332.44444444444446" r="3" fill="#2563eb"></circle><circle class="dot" cx="472.271186440678" cy="332.44444444444446" r="3" fill="#2563eb"></circle><circle class="dot" cx="473.4915254237288" cy="332.44444444444446" r="3" fill="#2563eb"></circle><circle class="dot" cx="474.7118644067797" cy="332.44444444444446" r="3" fill="#2563eb"></circle><circle class="dot" cx="475.93220338983053" cy="332.44444444444446" r="3" fill="#2563eb"></circle><circle class="dot" cx="477.1525423728813" cy="332.44444444444446" r="3" fill="#2563eb"></circle><circle class="dot" cx="478.3728813559322" cy="332.44444444444446" r="3" fill="#2563eb"></circle><circle class="dot" cx="479.5932203389831" cy="332.44444444444446" r="3" fill="#2563eb"></circle><circle class="dot" cx="480.81355932203394" cy="332.44444444444446" r="3" fill="#2563eb"></circle><circle class="dot" cx="482.03389830508473" cy="332.44444444444446" r="3" fill="#2563eb"></circle><circle class="dot" cx="483.2542372881356" cy="332.44444444444446" r="3" fill="#2563eb"></circle><circle class="dot" cx="484.4745762711865" cy="332.44444444444446" r="3" fill="#2563eb"></circle><circle class="dot" cx="485.6949152542373" cy="332.44444444444446" r="3" fill="#2563eb"></circle><circle class="dot" cx="486.91525423728814" cy="332.44444444444446" r="3" fill="#2563eb"></circle><circle class="dot" cx="488.13559322033893" cy="332.44444444444446" r="3" fill="#2563eb"></circle><circle class="dot" cx="489.3559322033899" cy="332.44444444444446" r="3" fill="#2563eb"></circle><circle class="dot" cx="490.5762711864407" cy="332.44444444444446" r="3" fill="#2563eb"></circle><circle class="dot" cx="491.79661016949154" cy="332.44444444444446" r="3" fill="#2563eb"></circle><circle class="dot" cx="493.01694915254234" cy="332.44444444444446" r="3" fill="#2563eb"></circle><circle class="dot" cx="494.2372881355932" cy="332.44444444444446" r="3" fill="#2563eb"></circle><circle class="dot" cx="495.4576271186441" cy="332.44444444444446" r="3" fill="#2563eb"></circle><circle class="dot" cx="496.6779661016949" cy="332.44444444444446" r="3" fill="#2563eb"></circle><circle class="dot" cx="497.89830508474574" cy="332.44444444444446" r="3" fill="#2563eb"></circle><circle class="dot" cx="499.1186440677966" cy="332.44444444444446" r="3" fill="#2563eb"></circle><circle class="dot" cx="500.3389830508475" cy="332.44444444444446" r="3" fill="#2563eb"></circle><circle class="dot" cx="501.5593220338983" cy="332.44444444444446" r="3" fill="#2563eb"></circle><circle class="dot" cx="502.77966101694915" cy="332.44444444444446" r="3" fill="#2563eb"></circle><circle class="dot" cx="503.99999999999994" cy="332.44444444444446" r="3" fill="#2563eb"></circle><circle class="dot" cx="505.22033898305085" cy="332.44444444444446" r="3" fill="#2563eb"></circle><circle class="dot" cx="506.4406779661017" cy="332.44444444444446" r="3" fill="#2563eb"></circle><circle class="dot" cx="507.66101694915255" cy="332.44444444444446" r="3" fill="#2563eb"></circle><circle class="dot" cx="508.88135593220335" cy="332.44444444444446" r="3" fill="#2563eb"></circle><circle class="dot" cx="510.10169491525426" cy="332.44444444444446" r="3" fill="#2563eb"></circle><circle class="dot" cx="511.3220338983051" cy="332.44444444444446" r="3" fill="#2563eb"></circle><circle class="dot" cx="512.542372881356" cy="332.44444444444446" r="3" fill="#2563eb"></circle><circle class="dot" cx="513.7627118644068" cy="332.44444444444446" r="3" fill="#2563eb"></circle><circle class="dot" cx="514.9830508474577" cy="332.44444444444446" r="3" fill="#2563eb"></circle><circle class="dot" cx="516.2033898305085" cy="332.44444444444446" r="3" fill="#2563eb"></circle><circle class="dot" cx="517.4237288135594" cy="332.44444444444446" r="3" fill="#2563eb"></circle><circle class="dot" cx="518.6440677966101" cy="332.44444444444446" r="3" fill="#2563eb"></circle><circle class="dot" cx="519.8644067796611" cy="332.44444444444446" r="3" fill="#2563eb"></circle><circle class="dot" cx="521.0847457627119" cy="332.44444444444446" r="3" fill="#2563eb"></circle><circle class="dot" cx="522.3050847457627" cy="332.44444444444446" r="3" fill="#2563eb"></circle><circle class="dot" cx="523.5254237288135" cy="332.44444444444446" r="3" fill="#2563eb"></circle><circle class="dot" cx="524.7457627118644" cy="332.44444444444446" r="3" fill="#2563eb"></circle><circle class="dot" cx="525.9661016949153" cy="332.44444444444446" r="3" fill="#2563eb"></circle><circle class="dot" cx="527.1864406779661" cy="332.44444444444446" r="3" fill="#2563eb"></circle><circle class="dot" cx="528.4067796610169" cy="332.44444444444446" r="3" fill="#2563eb"></circle><circle class="dot" cx="529.6271186440678" cy="332.44444444444446" r="3" fill="#2563eb"></circle><circle class="dot" cx="530.8474576271186" cy="332.44444444444446" r="3" fill="#2563eb"></circle><circle class="dot" cx="532.0677966101695" cy="332.44444444444446" r="3" fill="#2563eb"></circle><circle class="dot" cx="533.2881355932203" cy="332.44444444444446" r="3" fill="#2563eb"></circle><circle class="dot" cx="534.5084745762712" cy="332.44444444444446" r="3" fill="#2563eb"></circle><circle class="dot" cx="535.728813559322" cy="332.44444444444446" r="3" fill="#2563eb"></circle><circle class="dot" cx="536.9491525423729" cy="332.44444444444446" r="3" fill="#2563eb"></circle><circle class="dot" cx="538.1694915254237" cy="332.44444444444446" r="3" fill="#2563eb"></circle><circle class="dot" cx="539.3898305084746" cy="332.44444444444446" r="3" fill="#2563eb"></circle><circle class="dot" cx="540.6101694915254" cy="332.44444444444446" r="3" fill="#2563eb"></circle><circle class="dot" cx="541.8305084745763" cy="332.44444444444446" r="3" fill="#2563eb"></circle><circle class="dot" cx="543.0508474576271" cy="332.44444444444446" r="3" fill="#2563eb"></circle><circle class="dot" cx="544.271186440678" cy="332.44444444444446" r="3" fill="#2563eb"></circle><circle class="dot" cx="545.4915254237288" cy="332.44444444444446" r="3" fill="#2563eb"></circle><circle class="dot" cx="546.7118644067797" cy="332.44444444444446" r="3" fill="#2563eb"></circle><circle class="dot" cx="547.9322033898305" cy="332.44444444444446" r="3" fill="#2563eb"></circle><circle class="dot" cx="549.1525423728814" cy="332.44444444444446" r="3" fill="#2563eb"></circle><circle class="dot" cx="550.3728813559322" cy="332.44444444444446" r="3" fill="#2563eb"></circle><circle class="dot" cx="551.5932203389831" cy="332.44444444444446" r="3" fill="#2563eb"></circle><circle class="dot" cx="552.8135593220339" cy="332.44444444444446" r="3" fill="#2563eb"></circle><circle class="dot" cx="554.0338983050847" cy="332.44444444444446" r="3" fill="#2563eb"></circle><circle class="dot" cx="555.2542372881356" cy="332.44444444444446" r="3" fill="#2563eb"></circle><circle class="dot" cx="556.4745762711865" cy="332.44444444444446" r="3" fill="#2563eb"></circle><circle class="dot" cx="557.6949152542373" cy="332.44444444444446" r="3" fill="#2563eb"></circle><circle class="dot" cx="558.9152542372881" cy="332.44444444444446" r="3" fill="#2563eb"></circle><circle class="dot" cx="560.1355932203389" cy="332.44444444444446" r="3" fill="#2563eb"></circle><circle class="dot" cx="561.3559322033899" cy="332.44444444444446" r="3" fill="#2563eb"></circle><circle class="dot" cx="562.5762711864406" cy="332.44444444444446" r="3" fill="#2563eb"></circle><circle class="dot" cx="563.7966101694915" cy="332.44444444444446" r="3" fill="#2563eb"></circle><circle class="dot" cx="565.0169491525423" cy="332.44444444444446" r="3" fill="#2563eb"></circle><circle class="dot" cx="566.2372881355932" cy="332.44444444444446" r="3" fill="#2563eb"></circle><circle class="dot" cx="567.457627118644" cy="332.44444444444446" r="3" fill="#2563eb"></circle><circle class="dot" cx="568.6779661016949" cy="332.44444444444446" r="3" fill="#2563eb"></circle><circle class="dot" cx="569.8983050847457" cy="332.44444444444446" r="3" fill="#2563eb"></circle><circle class="dot" cx="571.1186440677966" cy="332.44444444444446" r="3" fill="#2563eb"></circle><circle class="dot" cx="572.3389830508474" cy="340" r="3" fill="#2563eb"></circle><circle class="dot" cx="573.5593220338983" cy="340" r="3" fill="#2563eb"></circle><circle class="dot" cx="574.7796610169491" cy="340" r="3" fill="#2563eb"></circle><circle class="dot" cx="576" cy="340" r="3" fill="#2563eb"></circle><circle class="dot" cx="577.2203389830509" cy="340" r="3" fill="#2563eb"></circle><circle class="dot" cx="578.4406779661017" cy="340" r="3" fill="#2563eb"></circle><circle class="dot" cx="579.6610169491526" cy="340" r="3" fill="#2563eb"></circle><circle class="dot" cx="580.8813559322034" cy="340" r="3" fill="#2563eb"></circle><circle class="dot" cx="582.1016949152543" cy="340" r="3" fill="#2563eb"></circle><circle class="dot" cx="583.3220338983051" cy="340" r="3" fill="#2563eb"></circle><circle class="dot" cx="584.542372881356" cy="340" r="3" fill="#2563eb"></circle><circle class="dot" cx="585.7627118644068" cy="340" r="3" fill="#2563eb"></circle><circle class="dot" cx="586.9830508474577" cy="340" r="3" fill="#2563eb"></circle><circle class="dot" cx="588.2033898305085" cy="340" r="3" fill="#2563eb"></circle><circle class="dot" cx="589.4237288135593" cy="340" r="3" fill="#2563eb"></circle><circle class="dot" cx="590.6440677966101" cy="340" r="3" fill="#2563eb"></circle><circle class="dot" cx="591.8644067796611" cy="340" r="3" fill="#2563eb"></circle><circle class="dot" cx="593.0847457627119" cy="340" r="3" fill="#2563eb"></circle><circle class="dot" cx="594.3050847457627" cy="340" r="3" fill="#2563eb"></circle><circle class="dot" cx="595.5254237288135" cy="340" r="3" fill="#2563eb"></circle><circle class="dot" cx="596.7457627118645" cy="340" r="3" fill="#2563eb"></circle><circle class="dot" cx="597.9661016949152" cy="340" r="3" fill="#2563eb"></circle><circle class="dot" cx="599.1864406779661" cy="340" r="3" fill="#2563eb"></circle><circle class="dot" cx="600.4067796610169" cy="340" r="3" fill="#2563eb"></circle><circle class="dot" cx="601.6271186440679" cy="340" r="3" fill="#2563eb"></circle><circle class="dot" cx="602.8474576271186" cy="340" r="3" fill="#2563eb"></circle><circle class="dot" cx="604.0677966101695" cy="340" r="3" fill="#2563eb"></circle><circle class="dot" cx="605.2881355932203" cy="340" r="3" fill="#2563eb"></circle><circle class="dot" cx="606.5084745762712" cy="340" r="3" fill="#2563eb"></circle><circle class="dot" cx="607.728813559322" cy="340" r="3" fill="#2563eb"></circle><circle class="dot" cx="608.9491525423729" cy="340" r="3" fill="#2563eb"></circle><circle class="dot" cx="610.1694915254237" cy="340" r="3" fill="#2563eb"></circle><circle class="dot" cx="611.3898305084746" cy="340" r="3" fill="#2563eb"></circle><circle class="dot" cx="612.6101694915254" cy="340" r="3" fill="#2563eb"></circle><circle class="dot" cx="613.8305084745763" cy="340" r="3" fill="#2563eb"></circle><circle class="dot" cx="615.0508474576271" cy="340" r="3" fill="#2563eb"></circle><circle class="dot" cx="616.271186440678" cy="340" r="3" fill="#2563eb"></circle><circle class="dot" cx="617.4915254237288" cy="340" r="3" fill="#2563eb"></circle><circle class="dot" cx="618.7118644067797" cy="340" r="3" fill="#2563eb"></circle><circle class="dot" cx="619.9322033898305" cy="340" r="3" fill="#2563eb"></circle><circle class="dot" cx="621.1525423728814" cy="340" r="3" fill="#2563eb"></circle><circle class="dot" cx="622.3728813559322" cy="340" r="3" fill="#2563eb"></circle><circle class="dot" cx="623.5932203389831" cy="340" r="3" fill="#2563eb"></circle><circle class="dot" cx="624.8135593220338" cy="340" r="3" fill="#2563eb"></circle><circle class="dot" cx="626.0338983050847" cy="340" r="3" fill="#2563eb"></circle><circle class="dot" cx="627.2542372881356" cy="340" r="3" fill="#2563eb"></circle><circle class="dot" cx="628.4745762711865" cy="340" r="3" fill="#2563eb"></circle><circle class="dot" cx="629.6949152542372" cy="340" r="3" fill="#2563eb"></circle><circle class="dot" cx="630.9152542372881" cy="309.77777777777777" r="3" fill="#2563eb"></circle><circle class="dot" cx="632.135593220339" cy="279.55555555555554" r="3" fill="#2563eb"></circle><circle class="dot" cx="633.3559322033898" cy="0" r="3" fill="#2563eb"></circle><circle class="dot" cx="634.5762711864406" cy="113.33333333333334" r="3" fill="#2563eb"></circle><circle class="dot" cx="635.7966101694915" cy="98.22222222222221" r="3" fill="#2563eb"></circle><circle class="dot" cx="637.0169491525425" cy="113.33333333333334" r="3" fill="#2563eb"></circle><circle class="dot" cx="638.2372881355932" cy="143.55555555555554" r="3" fill="#2563eb"></circle><circle class="dot" cx="639.457627118644" cy="188.88888888888889" r="3" fill="#2563eb"></circle><circle class="dot" cx="640.6779661016949" cy="181.33333333333334" r="3" fill="#2563eb"></circle><circle class="dot" cx="641.8983050847457" cy="181.33333333333334" r="3" fill="#2563eb"></circle><circle class="dot" cx="643.1186440677966" cy="226.66666666666666" r="3" fill="#2563eb"></circle><circle class="dot" cx="644.3389830508474" cy="219.11111111111111" r="3" fill="#2563eb"></circle><circle class="dot" cx="645.5593220338983" cy="264.44444444444446" r="3" fill="#2563eb"></circle><circle class="dot" cx="646.7796610169491" cy="294.6666666666667" r="3" fill="#2563eb"></circle><circle class="dot" cx="648" cy="340" r="3" fill="#2563eb"></circle><circle class="dot" cx="649.2203389830509" cy="340" r="3" fill="#2563eb"></circle><circle class="dot" cx="650.4406779661017" cy="302.22222222222223" r="3" fill="#2563eb"></circle><circle class="dot" cx="651.6610169491526" cy="272" r="3" fill="#2563eb"></circle><circle class="dot" cx="652.8813559322034" cy="309.77777777777777" r="3" fill="#2563eb"></circle><circle class="dot" cx="654.1016949152543" cy="324.88888888888886" r="3" fill="#2563eb"></circle><circle class="dot" cx="655.3220338983051" cy="340" r="3" fill="#2563eb"></circle><circle class="dot" cx="656.5423728813558" cy="332.44444444444446" r="3" fill="#2563eb"></circle><circle class="dot" cx="657.7627118644068" cy="340" r="3" fill="#2563eb"></circle><circle class="dot" cx="658.9830508474577" cy="340" r="3" fill="#2563eb"></circle><circle class="dot" cx="660.2033898305085" cy="340" r="3" fill="#2563eb"></circle><circle class="dot" cx="661.4237288135593" cy="340" r="3" fill="#2563eb"></circle><circle class="dot" cx="662.6440677966102" cy="332.44444444444446" r="3" fill="#2563eb"></circle><circle class="dot" cx="663.8644067796611" cy="340" r="3" fill="#2563eb"></circle><circle class="dot" cx="665.0847457627118" cy="332.44444444444446" r="3" fill="#2563eb"></circle><circle class="dot" cx="666.3050847457627" cy="324.88888888888886" r="3" fill="#2563eb"></circle><circle class="dot" cx="667.5254237288136" cy="340" r="3" fill="#2563eb"></circle><circle class="dot" cx="668.7457627118645" cy="324.88888888888886" r="3" fill="#2563eb"></circle><circle class="dot" cx="669.9661016949152" cy="332.44444444444446" r="3" fill="#2563eb"></circle><circle class="dot" cx="671.1864406779661" cy="340" r="3" fill="#2563eb"></circle><circle class="dot" cx="672.406779661017" cy="309.77777777777777" r="3" fill="#2563eb"></circle><circle class="dot" cx="673.6271186440678" cy="317.3333333333333" r="3" fill="#2563eb"></circle><circle class="dot" cx="674.8474576271186" cy="294.6666666666667" r="3" fill="#2563eb"></circle><circle class="dot" cx="676.0677966101695" cy="317.3333333333333" r="3" fill="#2563eb"></circle><circle class="dot" cx="677.2881355932203" cy="324.88888888888886" r="3" fill="#2563eb"></circle><circle class="dot" cx="678.5084745762712" cy="324.88888888888886" r="3" fill="#2563eb"></circle><circle class="dot" cx="679.728813559322" cy="332.44444444444446" r="3" fill="#2563eb"></circle><circle class="dot" cx="680.9491525423729" cy="332.44444444444446" r="3" fill="#2563eb"></circle><circle class="dot" cx="682.1694915254237" cy="340" r="3" fill="#2563eb"></circle><circle class="dot" cx="683.3898305084746" cy="340" r="3" fill="#2563eb"></circle><circle class="dot" cx="684.6101694915254" cy="340" r="3" fill="#2563eb"></circle><circle class="dot" cx="685.8305084745763" cy="340" r="3" fill="#2563eb"></circle><circle class="dot" cx="687.0508474576271" cy="340" r="3" fill="#2563eb"></circle><circle class="dot" cx="688.271186440678" cy="340" r="3" fill="#2563eb"></circle><circle class="dot" cx="689.4915254237288" cy="340" r="3" fill="#2563eb"></circle><circle class="dot" cx="690.7118644067797" cy="317.3333333333333" r="3" fill="#2563eb"></circle><circle class="dot" cx="691.9322033898304" cy="287.1111111111111" r="3" fill="#2563eb"></circle><circle class="dot" cx="693.1525423728814" cy="294.6666666666667" r="3" fill="#2563eb"></circle><circle class="dot" cx="694.3728813559322" cy="279.55555555555554" r="3" fill="#2563eb"></circle><circle class="dot" cx="695.5932203389831" cy="196.44444444444443" r="3" fill="#2563eb"></circle><circle class="dot" cx="696.8135593220338" cy="173.77777777777777" r="3" fill="#2563eb"></circle><circle class="dot" cx="698.0338983050848" cy="340" r="3" fill="#2563eb"></circle><circle class="dot" cx="699.2542372881356" cy="340" r="3" fill="#2563eb"></circle><circle class="dot" cx="700.4745762711864" cy="340" r="3" fill="#2563eb"></circle><circle class="dot" cx="701.6949152542372" cy="340" r="3" fill="#2563eb"></circle><circle class="dot" cx="702.9152542372882" cy="340" r="3" fill="#2563eb"></circle><circle class="dot" cx="704.135593220339" cy="340" r="3" fill="#2563eb"></circle><circle class="dot" cx="705.3559322033898" cy="340" r="3" fill="#2563eb"></circle><circle class="dot" cx="706.5762711864406" cy="340" r="3" fill="#2563eb"></circle><circle class="dot" cx="707.7966101694916" cy="340" r="3" fill="#2563eb"></circle><circle class="dot" cx="709.0169491525423" cy="340" r="3" fill="#2563eb"></circle><circle class="dot" cx="710.2372881355932" cy="340" r="3" fill="#2563eb"></circle><circle class="dot" cx="711.457627118644" cy="340" r="3" fill="#2563eb"></circle><circle class="dot" cx="712.677966101695" cy="340" r="3" fill="#2563eb"></circle><circle class="dot" cx="713.8983050847457" cy="340" r="3" fill="#2563eb"></circle><circle class="dot" cx="715.1186440677966" cy="340" r="3" fill="#2563eb"></circle><circle class="dot" cx="716.3389830508474" cy="340" r="3" fill="#2563eb"></circle><circle class="dot" cx="717.5593220338983" cy="340" r="3" fill="#2563eb"></circle><circle class="dot" cx="718.7796610169491" cy="340" r="3" fill="#2563eb"></circle><circle class="dot" cx="720" cy="340" r="3" fill="#2563eb"></circle><g class="grid" transform="translate(0,340)" fill="none" font-size="10" font-family="sans-serif" text-anchor="middle" style="stroke-dasharray: 3,3; opacity: 0.3;"><path class="domain" stroke="currentColor" d="M0.5,-340V0.5H720.5V-340"></path><g class="tick" opacity="1" transform="translate(0.5,0)"><line stroke="currentColor" y2="-340"></line><text fill="currentColor" y="3" dy="0.71em"></text></g><g class="tick" opacity="1" transform="translate(29.788135593220336,0)"><line stroke="currentColor" y2="-340"></line><text fill="currentColor" y="3" dy="0.71em"></text></g><g class="tick" opacity="1" transform="translate(59.07627118644067,0)"><line stroke="currentColor" y2="-340"></line><text fill="currentColor" y="3" dy="0.71em"></text></g><g class="tick" opacity="1" transform="translate(88.36440677966102,0)"><line stroke="currentColor" y2="-340"></line><text fill="currentColor" y="3" dy="0.71em"></text></g><g class="tick" opacity="1" transform="translate(117.65254237288134,0)"><line stroke="currentColor" y2="-340"></line><text fill="currentColor" y="3" dy="0.71em"></text></g><g class="tick" opacity="1" transform="translate(146.9406779661017,0)"><line stroke="currentColor" y2="-340"></line><text fill="currentColor" y="3" dy="0.71em"></text></g><g class="tick" opacity="1" transform="translate(176.22881355932205,0)"><line stroke="currentColor" y2="-340"></line><text fill="currentColor" y="3" dy="0.71em"></text></g><g class="tick" opacity="1" transform="translate(205.51694915254237,0)"><line stroke="currentColor" y2="-340"></line><text fill="currentColor" y="3" dy="0.71em"></text></g><g class="tick" opacity="1" transform="translate(234.80508474576268,0)"><line stroke="currentColor" y2="-340"></line><text fill="currentColor" y="3" dy="0.71em"></text></g><g class="tick" opacity="1" transform="translate(264.09322033898303,0)"><line stroke="currentColor" y2="-340"></line><text fill="currentColor" y="3" dy="0.71em"></text></g><g class="tick" opacity="1" transform="translate(293.3813559322034,0)"><line stroke="currentColor" y2="-340"></line><text fill="currentColor" y="3" dy="0.71em"></text></g><g class="tick" opacity="1" transform="translate(322.6694915254237,0)"><line stroke="currentColor" y2="-340"></line><text fill="currentColor" y="3" dy="0.71em"></text></g><g class="tick" opacity="1" transform="translate(351.9576271186441,0)"><line stroke="currentColor" y2="-340"></line><text fill="currentColor" y="3" dy="0.71em"></text></g><g class="tick" opacity="1" transform="translate(381.2457627118644,0)"><line stroke="currentColor" y2="-340"></line><text fill="currentColor" y="3" dy="0.71em"></text></g><g class="tick" opacity="1" transform="translate(410.53389830508473,0)"><line stroke="currentColor" y2="-340"></line><text fill="currentColor" y="3" dy="0.71em"></text></g><g class="tick" opacity="1" transform="translate(439.8220338983051,0)"><line stroke="currentColor" y2="-340"></line><text fill="currentColor" y="3" dy="0.71em"></text></g><g class="tick" opacity="1" transform="translate(469.11016949152537,0)"><line stroke="currentColor" y2="-340"></line><text fill="currentColor" y="3" dy="0.71em"></text></g><g class="tick" opacity="1" transform="translate(498.39830508474574,0)"><line stroke="currentColor" y2="-340"></line><text fill="currentColor" y="3" dy="0.71em"></text></g><g class="tick" opacity="1" transform="translate(527.6864406779661,0)"><line stroke="currentColor" y2="-340"></line><text fill="currentColor" y="3" dy="0.71em"></text></g><g class="tick" opacity="1" transform="translate(556.9745762711865,0)"><line stroke="currentColor" y2="-340"></line><text fill="currentColor" y="3" dy="0.71em"></text></g><g class="tick" opacity="1" transform="translate(586.2627118644068,0)"><line stroke="currentColor" y2="-340"></line><text fill="currentColor" y="3" dy="0.71em"></text></g><g class="tick" opacity="1" transform="translate(615.5508474576271,0)"><line stroke="currentColor" y2="-340"></line><text fill="currentColor" y="3" dy="0.71em"></text></g><g class="tick" opacity="1" transform="translate(644.8389830508474,0)"><line stroke="currentColor" y2="-340"></line><text fill="currentColor" y="3" dy="0.71em"></text></g><g class="tick" opacity="1" transform="translate(674.1271186440678,0)"><line stroke="currentColor" y2="-340"></line><text fill="currentColor" y="3" dy="0.71em"></text></g><g class="tick" opacity="1" transform="translate(703.4152542372882,0)"><line stroke="currentColor" y2="-340"></line><text fill="currentColor" y="3" dy="0.71em"></text></g></g><g class="grid" fill="none" font-size="10" font-family="sans-serif" text-anchor="end" style="stroke-dasharray: 3,3; opacity: 0.3;"><path class="domain" stroke="currentColor" d="M720,340.5H0.5V0.5H720"></path><g class="tick" opacity="1" transform="translate(0,340.5)"><line stroke="currentColor" x2="720"></line><text fill="currentColor" x="-3" dy="0.32em"></text></g><g class="tick" opacity="1" transform="translate(0,302.72222222222223)"><line stroke="currentColor" x2="720"></line><text fill="currentColor" x="-3" dy="0.32em"></text></g><g class="tick" opacity="1" transform="translate(0,264.94444444444446)"><line stroke="currentColor" x2="720"></line><text fill="currentColor" x="-3" dy="0.32em"></text></g><g class="tick" opacity="1" transform="translate(0,227.16666666666666)"><line stroke="currentColor" x2="720"></line><text fill="currentColor" x="-3" dy="0.32em"></text></g><g class="tick" opacity="1" transform="translate(0,189.38888888888889)"><line stroke="currentColor" x2="720"></line><text fill="currentColor" x="-3" dy="0.32em"></text></g><g class="tick" opacity="1" transform="translate(0,151.61111111111111)"><line stroke="currentColor" x2="720"></line><text fill="currentColor" x="-3" dy="0.32em"></text></g><g class="tick" opacity="1" transform="translate(0,113.83333333333334)"><line stroke="currentColor" x2="720"></line><text fill="currentColor" x="-3" dy="0.32em"></text></g><g class="tick" opacity="1" transform="translate(0,76.05555555555556)"><line stroke="currentColor" x2="720"></line><text fill="currentColor" x="-3" dy="0.32em"></text></g><g class="tick" opacity="1" transform="translate(0,38.27777777777776)"><line stroke="currentColor" x2="720"></line><text fill="currentColor" x="-3" dy="0.32em"></text></g><g class="tick" opacity="1" transform="translate(0,0.5)"><line stroke="currentColor" x2="720"></line><text fill="currentColor" x="-3" dy="0.32em"></text></g></g></g><text x="400" y="10" text-anchor="middle" style="font-size: 16px; font-weight: bold; fill: #333;">OKX USDT Lending Rate - Current Month</text></svg>