<svg width="800" height="400" xmlns="http://www.w3.org/2000/svg"><g transform="translate(50,20)"><g transform="translate(0,340)" fill="none" font-size="10" font-family="sans-serif" text-anchor="middle"><path class="domain" stroke="currentColor" d="M0.5,6V0.5H720.5V6"></path><g class="tick" opacity="1" transform="translate(0.5,0)"><line stroke="currentColor" y2="6"></line><text fill="currentColor" y="9" dy=".15em" style="text-anchor: end;" dx="-.8em" transform="rotate(-45)">02/01</text></g><g class="tick" opacity="1" transform="translate(78.69004524886878,0)"><line stroke="currentColor" y2="6"></line><text fill="currentColor" y="9" dy=".15em" style="text-anchor: end;" dx="-.8em" transform="rotate(-45)">02/02</text></g><g class="tick" opacity="1" transform="translate(156.88009049773757,0)"><line stroke="currentColor" y2="6"></line><text fill="currentColor" y="9" dy=".15em" style="text-anchor: end;" dx="-.8em" transform="rotate(-45)">02/03</text></g><g class="tick" opacity="1" transform="translate(235.07013574660635,0)"><line stroke="currentColor" y2="6"></line><text fill="currentColor" y="9" dy=".15em" style="text-anchor: end;" dx="-.8em" transform="rotate(-45)">02/04</text></g><g class="tick" opacity="1" transform="translate(313.26018099547514,0)"><line stroke="currentColor" y2="6"></line><text fill="currentColor" y="9" dy=".15em" style="text-anchor: end;" dx="-.8em" transform="rotate(-45)">02/05</text></g><g class="tick" opacity="1" transform="translate(391.45022624434387,0)"><line stroke="currentColor" y2="6"></line><text fill="currentColor" y="9" dy=".15em" style="text-anchor: end;" dx="-.8em" transform="rotate(-45)">02/06</text></g><g class="tick" opacity="1" transform="translate(469.6402714932127,0)"><line stroke="currentColor" y2="6"></line><text fill="currentColor" y="9" dy=".15em" style="text-anchor: end;" dx="-.8em" transform="rotate(-45)">02/07</text></g><g class="tick" opacity="1" transform="translate(547.8303167420814,0)"><line stroke="currentColor" y2="6"></line><text fill="currentColor" y="9" dy=".15em" style="text-anchor: end;" dx="-.8em" transform="rotate(-45)">02/08</text></g><g class="tick" opacity="1" transform="translate(626.0203619909503,0)"><line stroke="currentColor" y2="6"></line><text fill="currentColor" y="9" dy=".15em" style="text-anchor: end;" dx="-.8em" transform="rotate(-45)">02/09</text></g><g class="tick" opacity="1" transform="translate(704.210407239819,0)"><line stroke="currentColor" y2="6"></line><text fill="currentColor" y="9" dy=".15em" style="text-anchor: end;" dx="-.8em" transform="rotate(-45)">02/10</text></g></g><g fill="none" font-size="10" font-family="sans-serif" text-anchor="end"><path class="domain" stroke="currentColor" d="M-6,340.5H0.5V0.5H-6"></path><g class="tick" opacity="1" transform="translate(0,340.5)"><line stroke="currentColor" x2="-6"></line><text fill="currentColor" x="-9" dy="0.32em">3.50%</text></g><g class="tick" opacity="1" transform="translate(0,317.8333333333334)"><line stroke="currentColor" x2="-6"></line><text fill="currentColor" x="-9" dy="0.32em">3.52%</text></g><g class="tick" opacity="1" transform="translate(0,295.16666666666686)"><line stroke="currentColor" x2="-6"></line><text fill="currentColor" x="-9" dy="0.32em">3.54%</text></g><g class="tick" opacity="1" transform="translate(0,272.50000000000034)"><line stroke="currentColor" x2="-6"></line><text fill="currentColor" x="-9" dy="0.32em">3.56%</text></g><g class="tick" opacity="1" transform="translate(0,249.83333333333374)"><line stroke="currentColor" x2="-6"></line><text fill="currentColor" x="-9" dy="0.32em">3.58%</text></g><g class="tick" opacity="1" transform="translate(0,227.16666666666717)"><line stroke="currentColor" x2="-6"></line><text fill="currentColor" x="-9" dy="0.32em">3.60%</text></g><g class="tick" opacity="1" transform="translate(0,204.49999999999983)"><line stroke="currentColor" x2="-6"></line><text fill="currentColor" x="-9" dy="0.32em">3.62%</text></g><g class="tick" opacity="1" transform="translate(0,181.8333333333333)"><line stroke="currentColor" x2="-6"></line><text fill="currentColor" x="-9" dy="0.32em">3.64%</text></g><g class="tick" opacity="1" transform="translate(0,159.1666666666667)"><line stroke="currentColor" x2="-6"></line><text fill="currentColor" x="-9" dy="0.32em">3.66%</text></g><g class="tick" opacity="1" transform="translate(0,136.50000000000017)"><line stroke="currentColor" x2="-6"></line><text fill="currentColor" x="-9" dy="0.32em">3.68%</text></g><g class="tick" opacity="1" transform="translate(0,113.83333333333361)"><line stroke="currentColor" x2="-6"></line><text fill="currentColor" x="-9" dy="0.32em">3.70%</text></g><g class="tick" opacity="1" transform="translate(0,91.16666666666703)"><line stroke="currentColor" x2="-6"></line><text fill="currentColor" x="-9" dy="0.32em">3.72%</text></g><g class="tick" opacity="1" transform="translate(0,68.49999999999969)"><line stroke="currentColor" x2="-6"></line><text fill="currentColor" x="-9" dy="0.32em">3.74%</text></g><g class="tick" opacity="1" transform="translate(0,45.83333333333314)"><line stroke="currentColor" x2="-6"></line><text fill="currentColor" x="-9" dy="0.32em">3.76%</text></g><g class="tick" opacity="1" transform="translate(0,23.166666666666547)"><line stroke="currentColor" x2="-6"></line><text fill="currentColor" x="-9" dy="0.32em">3.78%</text></g><g class="tick" opacity="1" transform="translate(0,0.5)"><line stroke="currentColor" x2="-6"></line><text fill="currentColor" x="-9" dy="0.32em">3.80%</text></g></g><text transform="rotate(-90)" y="-50" x="-170" dy="1em" style="text-anchor: middle; font-size: 12px; fill: #666;">Pre Rate (%)</text><text transform="translate(360, 380)" style="text-anchor: middle; font-size: 12px; fill: #666;">Time (UTC)</text><path fill="none" stroke="#2563eb" stroke-width="2" d="M0,0C1.086,0,2.172,0,3.258,0C4.344,0,5.43,0,6.516,0C7.602,0,8.688,0,9.774,0C10.86,0,11.946,0,13.032,0C14.118,0,15.204,0,16.29,0C17.376,0,18.462,0,19.548,0C20.633,0,21.719,0,22.805,0C23.891,0,24.977,0,26.063,0C27.149,0,28.235,0,29.321,0C30.407,0,31.493,0,32.579,0C33.665,0,34.751,0,35.837,0C36.923,0,38.009,0,39.095,0C40.181,0,41.267,0,42.353,0C43.439,0,44.525,0,45.611,0C46.697,0,47.783,0,48.869,0C49.955,0,51.041,0,52.127,0C53.213,0,54.299,0,55.385,0C56.471,0,57.557,0,58.643,0C59.729,0,60.814,0,61.9,0C62.986,0,64.072,0,65.158,0C66.244,0,67.33,0,68.416,0C69.502,0,70.588,0,71.674,0C72.76,0,73.846,0,74.932,0C76.018,0,77.104,0,78.19,0C79.276,0,80.362,0,81.448,0C82.534,0,83.62,0,84.706,0C85.792,0,86.878,0,87.964,0C89.05,0,90.136,0,91.222,0C92.308,0,93.394,0,94.48,0C95.566,0,96.652,0,97.738,0C98.824,0,99.91,0,100.995,0C102.081,0,103.167,0,104.253,0C105.339,0,106.425,0,107.511,0C108.597,0,109.683,0,110.769,0C111.855,0,112.941,0,114.027,0C115.113,0,116.199,0,117.285,0C118.371,0,119.457,0,120.543,0C121.629,0,122.715,0,123.801,0C124.887,0,125.973,0,127.059,0C128.145,0,129.231,0,130.317,0C131.403,0,132.489,0,133.575,0C134.661,0,135.747,0,136.833,0C137.919,0,139.005,0,140.09,0C141.176,0,142.262,0,143.348,0C144.434,0,145.52,0,146.606,0C147.692,0,148.778,0,149.864,0C150.95,0,152.036,0,153.122,0C154.208,0,155.294,0,156.38,0C157.466,0,158.552,0,159.638,0C160.724,0,161.81,0,162.896,0C163.982,0,165.068,0,166.154,0C167.24,0,168.326,0,169.412,0C170.498,0,171.584,0,172.67,0C173.756,0,174.842,0,175.928,0C177.014,0,178.1,0,179.186,0C180.271,0,181.357,0,182.443,0C183.529,0,184.615,0,185.701,0C186.787,0,187.873,0,188.959,0C190.045,0,191.131,0,192.217,0C193.303,0,194.389,0,195.475,0C196.561,0,197.647,0,198.733,0C199.819,0,200.905,0,201.991,0C203.077,0,204.163,0,205.249,0C206.335,0,207.421,0,208.507,0C209.593,0,210.679,0,211.765,0C212.851,0,213.937,0,215.023,0C216.109,0,217.195,0,218.281,0C219.367,0,220.452,0,221.538,0C222.624,0,223.71,0,224.796,0C225.882,0,226.968,0,228.054,0C229.14,0,230.226,0,231.312,0C232.398,0,233.484,0,234.57,0C235.656,0,236.742,0,237.828,0C238.914,0,240,0,241.086,0C242.172,0,243.258,0,244.344,0C245.43,0,246.516,0,247.602,0C248.688,0,249.774,0,250.86,0C251.946,0,253.032,0,254.118,0C255.204,0,256.29,0,257.376,0C258.462,0,259.548,0,260.633,0C261.719,0,262.805,0,263.891,0C264.977,0,266.063,0,267.149,0C268.235,0,269.321,0,270.407,0C271.493,0,272.579,0,273.665,0C274.751,0,275.837,0,276.923,0C278.009,0,279.095,340,280.181,340C281.267,340,282.353,340,283.439,340C284.525,340,285.611,340,286.697,340C287.783,340,288.869,340,289.955,340C291.041,340,292.127,340,293.213,340C294.299,340,295.385,340,296.471,340C297.557,340,298.643,340,299.729,340C300.814,340,301.9,340,302.986,340C304.072,340,305.158,340,306.244,340C307.33,340,308.416,340,309.502,340C310.588,340,311.674,340,312.76,340C313.846,340,314.932,340,316.018,340C317.104,340,318.19,340,319.276,340C320.362,340,321.448,340,322.534,340C323.62,340,324.706,340,325.792,340C326.878,340,327.964,340,329.05,340C330.136,340,331.222,340,332.308,340C333.394,340,334.48,340,335.566,340C336.652,340,337.738,340,338.824,340C339.91,340,340.995,340,342.081,340C343.167,340,344.253,340,345.339,340C346.425,340,347.511,340,348.597,340C349.683,340,350.769,340,351.855,340C352.941,340,354.027,340,355.113,340C356.199,340,357.285,340,358.371,340C359.457,340,360.543,340,361.629,340C362.715,340,363.801,340,364.887,340C365.973,340,367.059,340,368.145,340C369.231,340,370.317,340,371.403,340C372.489,340,373.575,340,374.661,340C375.747,340,376.833,340,377.919,340C379.005,340,380.09,340,381.176,340C382.262,340,383.348,340,384.434,340C385.52,340,386.606,340,387.692,340C388.778,340,389.864,340,390.95,340C392.036,340,393.122,340,394.208,340C395.294,340,396.38,340,397.466,340C398.552,340,399.638,340,400.724,340C401.81,340,402.896,340,403.982,340C405.068,340,406.154,340,407.24,340C408.326,340,409.412,340,410.498,340C411.584,340,412.67,340,413.756,340C414.842,340,415.928,340,417.014,340C418.1,340,419.186,340,420.271,340C421.357,340,422.443,340,423.529,340C424.615,340,425.701,340,426.787,340C427.873,340,428.959,340,430.045,340C431.131,340,432.217,340,433.303,340C434.389,340,435.475,340,436.561,340C437.647,340,438.733,340,439.819,340C440.905,340,441.991,340,443.077,340C444.163,340,445.249,340,446.335,340C447.421,340,448.507,340,449.593,340C450.679,340,451.765,340,452.851,340C453.937,340,455.023,340,456.109,340C457.195,340,458.281,340,459.367,340C460.452,340,461.538,340,462.624,340C463.71,340,464.796,340,465.882,340C466.968,340,468.054,340,469.14,340C470.226,340,471.312,340,472.398,340C473.484,340,474.57,340,475.656,340C476.742,340,477.828,340,478.914,340C480,340,481.086,340,482.172,340C483.258,340,484.344,340,485.43,340C486.516,340,487.602,340,488.688,340C489.774,340,490.86,340,491.946,340C493.032,340,494.118,340,495.204,340C496.29,340,497.376,340,498.462,340C499.548,340,500.633,340,501.719,340C502.805,340,503.891,340,504.977,340C506.063,340,507.149,340,508.235,340C509.321,340,510.407,340,511.493,340C512.579,340,513.665,340,514.751,340C515.837,340,516.923,340,518.009,340C519.095,340,520.181,340,521.267,340C522.353,340,523.439,340,524.525,340C525.611,340,526.697,340,527.783,340C528.869,340,529.955,340,531.041,340C532.127,340,533.213,340,534.299,340C535.385,340,536.471,340,537.557,340C538.643,340,539.729,340,540.814,340C541.9,340,542.986,340,544.072,340C545.158,340,546.244,340,547.33,340C548.416,340,549.502,340,550.588,340C551.674,340,552.76,340,553.846,340C554.932,340,556.018,340,557.104,340C558.19,340,559.276,340,560.362,340C561.448,340,562.534,340,563.62,340C564.706,340,565.792,340,566.878,340C567.964,340,569.05,340,570.136,340C571.222,340,572.308,340,573.394,340C574.48,340,575.566,340,576.652,340C577.738,340,578.824,340,579.91,340C580.995,340,582.081,340,583.167,340C584.253,340,585.339,340,586.425,340C587.511,340,588.597,340,589.683,340C590.769,340,591.855,340,592.941,340C594.027,340,595.113,340,596.199,340C597.285,340,598.371,340,599.457,340C600.543,340,601.629,340,602.715,340C603.801,340,604.887,340,605.973,340C607.059,340,608.145,340,609.231,340C610.317,340,611.403,340,612.489,340C613.575,340,614.661,340,615.747,340C616.833,340,617.919,340,619.005,340C620.09,340,621.176,340,622.262,340C623.348,340,624.434,340,625.52,340C626.606,340,627.692,340,628.778,340C629.864,340,630.95,340,632.036,340C633.122,340,634.208,340,635.294,340C636.38,340,637.466,340,638.552,340C639.638,340,640.724,340,641.81,340C642.896,340,643.982,340,645.068,340C646.154,340,647.24,340,648.326,340C649.412,340,650.498,340,651.584,340C652.67,340,653.756,340,654.842,340C655.928,340,657.014,340,658.1,340C659.186,340,660.271,340,661.357,340C662.443,340,663.529,340,664.615,340C665.701,340,666.787,340,667.873,340C668.959,340,670.045,340,671.131,340C672.217,340,673.303,340,674.389,340C675.475,340,676.561,340,677.647,340C678.733,340,679.819,340,680.905,340C681.991,340,683.077,340,684.163,340C685.249,340,686.335,340,687.421,340C688.507,340,689.593,340,690.679,340C691.765,340,692.851,340,693.937,340C695.023,340,696.109,340,697.195,340C698.281,340,699.367,340,700.452,340C701.538,340,702.624,340,703.71,340C704.796,340,705.882,340,706.968,340C708.054,340,709.14,340,710.226,340C711.312,340,712.398,340,713.484,340C714.57,340,715.656,340,716.742,340C717.828,340,718.914,340,720,340"></path><circle class="dot" cx="0" cy="0" r="3" fill="#2563eb"></circle><circle class="dot" cx="3.2579185520361995" cy="0" r="3" fill="#2563eb"></circle><circle class="dot" cx="6.515837104072399" cy="0" r="3" fill="#2563eb"></circle><circle class="dot" cx="9.773755656108598" cy="0" r="3" fill="#2563eb"></circle><circle class="dot" cx="13.031674208144798" cy="0" r="3" fill="#2563eb"></circle><circle class="dot" cx="16.289592760180994" cy="0" r="3" fill="#2563eb"></circle><circle class="dot" cx="19.547511312217196" cy="0" r="3" fill="#2563eb"></circle><circle class="dot" cx="22.80542986425339" cy="0" r="3" fill="#2563eb"></circle><circle class="dot" cx="26.063348416289596" cy="0" r="3" fill="#2563eb"></circle><circle class="dot" cx="29.321266968325794" cy="0" r="3" fill="#2563eb"></circle><circle class="dot" cx="32.57918552036199" cy="0" r="3" fill="#2563eb"></circle><circle class="dot" cx="35.83710407239819" cy="0" r="3" fill="#2563eb"></circle><circle class="dot" cx="39.09502262443439" cy="0" r="3" fill="#2563eb"></circle><circle class="dot" cx="42.35294117647059" cy="0" r="3" fill="#2563eb"></circle><circle class="dot" cx="45.61085972850678" cy="0" r="3" fill="#2563eb"></circle><circle class="dot" cx="48.86877828054298" cy="0" r="3" fill="#2563eb"></circle><circle class="dot" cx="52.12669683257919" cy="0" r="3" fill="#2563eb"></circle><circle class="dot" cx="55.38461538461539" cy="0" r="3" fill="#2563eb"></circle><circle class="dot" cx="58.64253393665159" cy="0" r="3" fill="#2563eb"></circle><circle class="dot" cx="61.90045248868778" cy="0" r="3" fill="#2563eb"></circle><circle class="dot" cx="65.15837104072398" cy="0" r="3" fill="#2563eb"></circle><circle class="dot" cx="68.41628959276018" cy="0" r="3" fill="#2563eb"></circle><circle class="dot" cx="71.67420814479638" cy="0" r="3" fill="#2563eb"></circle><circle class="dot" cx="74.93212669683258" cy="0" r="3" fill="#2563eb"></circle><circle class="dot" cx="78.19004524886878" cy="0" r="3" fill="#2563eb"></circle><circle class="dot" cx="81.44796380090497" cy="0" r="3" fill="#2563eb"></circle><circle class="dot" cx="84.70588235294117" cy="0" r="3" fill="#2563eb"></circle><circle class="dot" cx="87.96380090497738" cy="0" r="3" fill="#2563eb"></circle><circle class="dot" cx="91.22171945701356" cy="0" r="3" fill="#2563eb"></circle><circle class="dot" cx="94.47963800904978" cy="0" r="3" fill="#2563eb"></circle><circle class="dot" cx="97.73755656108597" cy="0" r="3" fill="#2563eb"></circle><circle class="dot" cx="100.99547511312217" cy="0" r="3" fill="#2563eb"></circle><circle class="dot" cx="104.25339366515838" cy="0" r="3" fill="#2563eb"></circle><circle class="dot" cx="107.51131221719457" cy="0" r="3" fill="#2563eb"></circle><circle class="dot" cx="110.76923076923077" cy="0" r="3" fill="#2563eb"></circle><circle class="dot" cx="114.02714932126696" cy="0" r="3" fill="#2563eb"></circle><circle class="dot" cx="117.28506787330318" cy="0" r="3" fill="#2563eb"></circle><circle class="dot" cx="120.54298642533936" cy="0" r="3" fill="#2563eb"></circle><circle class="dot" cx="123.80090497737557" cy="0" r="3" fill="#2563eb"></circle><circle class="dot" cx="127.05882352941177" cy="0" r="3" fill="#2563eb"></circle><circle class="dot" cx="130.31674208144796" cy="0" r="3" fill="#2563eb"></circle><circle class="dot" cx="133.57466063348417" cy="0" r="3" fill="#2563eb"></circle><circle class="dot" cx="136.83257918552036" cy="0" r="3" fill="#2563eb"></circle><circle class="dot" cx="140.09049773755657" cy="0" r="3" fill="#2563eb"></circle><circle class="dot" cx="143.34841628959276" cy="0" r="3" fill="#2563eb"></circle><circle class="dot" cx="146.60633484162895" cy="0" r="3" fill="#2563eb"></circle><circle class="dot" cx="149.86425339366517" cy="0" r="3" fill="#2563eb"></circle><circle class="dot" cx="153.12217194570135" cy="0" r="3" fill="#2563eb"></circle><circle class="dot" cx="156.38009049773757" cy="0" r="3" fill="#2563eb"></circle><circle class="dot" cx="159.63800904977376" cy="0" r="3" fill="#2563eb"></circle><circle class="dot" cx="162.89592760180994" cy="0" r="3" fill="#2563eb"></circle><circle class="dot" cx="166.15384615384616" cy="0" r="3" fill="#2563eb"></circle><circle class="dot" cx="169.41176470588235" cy="0" r="3" fill="#2563eb"></circle><circle class="dot" cx="172.66968325791856" cy="0" r="3" fill="#2563eb"></circle><circle class="dot" cx="175.92760180995475" cy="0" r="3" fill="#2563eb"></circle><circle class="dot" cx="179.18552036199094" cy="0" r="3" fill="#2563eb"></circle><circle class="dot" cx="182.44343891402713" cy="0" r="3" fill="#2563eb"></circle><circle class="dot" cx="185.70135746606337" cy="0" r="3" fill="#2563eb"></circle><circle class="dot" cx="188.95927601809956" cy="0" r="3" fill="#2563eb"></circle><circle class="dot" cx="192.21719457013575" cy="0" r="3" fill="#2563eb"></circle><circle class="dot" cx="195.47511312217193" cy="0" r="3" fill="#2563eb"></circle><circle class="dot" cx="198.73303167420815" cy="0" r="3" fill="#2563eb"></circle><circle class="dot" cx="201.99095022624434" cy="0" r="3" fill="#2563eb"></circle><circle class="dot" cx="205.24886877828052" cy="0" r="3" fill="#2563eb"></circle><circle class="dot" cx="208.50678733031677" cy="0" r="3" fill="#2563eb"></circle><circle class="dot" cx="211.76470588235296" cy="0" r="3" fill="#2563eb"></circle><circle class="dot" cx="215.02262443438914" cy="0" r="3" fill="#2563eb"></circle><circle class="dot" cx="218.28054298642533" cy="0" r="3" fill="#2563eb"></circle><circle class="dot" cx="221.53846153846155" cy="0" r="3" fill="#2563eb"></circle><circle class="dot" cx="224.79638009049773" cy="0" r="3" fill="#2563eb"></circle><circle class="dot" cx="228.05429864253392" cy="0" r="3" fill="#2563eb"></circle><circle class="dot" cx="231.31221719457017" cy="0" r="3" fill="#2563eb"></circle><circle class="dot" cx="234.57013574660635" cy="0" r="3" fill="#2563eb"></circle><circle class="dot" cx="237.82805429864254" cy="0" r="3" fill="#2563eb"></circle><circle class="dot" cx="241.08597285067873" cy="0" r="3" fill="#2563eb"></circle><circle class="dot" cx="244.34389140271495" cy="0" r="3" fill="#2563eb"></circle><circle class="dot" cx="247.60180995475113" cy="0" r="3" fill="#2563eb"></circle><circle class="dot" cx="250.85972850678732" cy="0" r="3" fill="#2563eb"></circle><circle class="dot" cx="254.11764705882354" cy="0" r="3" fill="#2563eb"></circle><circle class="dot" cx="257.3755656108597" cy="0" r="3" fill="#2563eb"></circle><circle class="dot" cx="260.6334841628959" cy="0" r="3" fill="#2563eb"></circle><circle class="dot" cx="263.8914027149321" cy="0" r="3" fill="#2563eb"></circle><circle class="dot" cx="267.14932126696834" cy="0" r="3" fill="#2563eb"></circle><circle class="dot" cx="270.40723981900453" cy="0" r="3" fill="#2563eb"></circle><circle class="dot" cx="273.6651583710407" cy="0" r="3" fill="#2563eb"></circle><circle class="dot" cx="276.92307692307696" cy="0" r="3" fill="#2563eb"></circle><circle class="dot" cx="280.18099547511315" cy="340" r="3" fill="#2563eb"></circle><circle class="dot" cx="283.43891402714934" cy="340" r="3" fill="#2563eb"></circle><circle class="dot" cx="286.6968325791855" cy="340" r="3" fill="#2563eb"></circle><circle class="dot" cx="289.9547511312217" cy="340" r="3" fill="#2563eb"></circle><circle class="dot" cx="293.2126696832579" cy="340" r="3" fill="#2563eb"></circle><circle class="dot" cx="296.4705882352941" cy="340" r="3" fill="#2563eb"></circle><circle class="dot" cx="299.72850678733033" cy="340" r="3" fill="#2563eb"></circle><circle class="dot" cx="302.9864253393665" cy="340" r="3" fill="#2563eb"></circle><circle class="dot" cx="306.2443438914027" cy="340" r="3" fill="#2563eb"></circle><circle class="dot" cx="309.50226244343895" cy="340" r="3" fill="#2563eb"></circle><circle class="dot" cx="312.76018099547514" cy="340" r="3" fill="#2563eb"></circle><circle class="dot" cx="316.0180995475113" cy="340" r="3" fill="#2563eb"></circle><circle class="dot" cx="319.2760180995475" cy="340" r="3" fill="#2563eb"></circle><circle class="dot" cx="322.5339366515837" cy="340" r="3" fill="#2563eb"></circle><circle class="dot" cx="325.7918552036199" cy="340" r="3" fill="#2563eb"></circle><circle class="dot" cx="329.0497737556561" cy="340" r="3" fill="#2563eb"></circle><circle class="dot" cx="332.3076923076923" cy="340" r="3" fill="#2563eb"></circle><circle class="dot" cx="335.5656108597285" cy="340" r="3" fill="#2563eb"></circle><circle class="dot" cx="338.8235294117647" cy="340" r="3" fill="#2563eb"></circle><circle class="dot" cx="342.0814479638009" cy="340" r="3" fill="#2563eb"></circle><circle class="dot" cx="345.3393665158371" cy="340" r="3" fill="#2563eb"></circle><circle class="dot" cx="348.5972850678733" cy="340" r="3" fill="#2563eb"></circle><circle class="dot" cx="351.8552036199095" cy="340" r="3" fill="#2563eb"></circle><circle class="dot" cx="355.11312217194575" cy="340" r="3" fill="#2563eb"></circle><circle class="dot" cx="358.3710407239819" cy="340" r="3" fill="#2563eb"></circle><circle class="dot" cx="361.6289592760181" cy="340" r="3" fill="#2563eb"></circle><circle class="dot" cx="364.88687782805425" cy="340" r="3" fill="#2563eb"></circle><circle class="dot" cx="368.1447963800905" cy="340" r="3" fill="#2563eb"></circle><circle class="dot" cx="371.40271493212674" cy="340" r="3" fill="#2563eb"></circle><circle class="dot" cx="374.66063348416293" cy="340" r="3" fill="#2563eb"></circle><circle class="dot" cx="377.9185520361991" cy="340" r="3" fill="#2563eb"></circle><circle class="dot" cx="381.1764705882353" cy="340" r="3" fill="#2563eb"></circle><circle class="dot" cx="384.4343891402715" cy="340" r="3" fill="#2563eb"></circle><circle class="dot" cx="387.6923076923077" cy="340" r="3" fill="#2563eb"></circle><circle class="dot" cx="390.95022624434387" cy="340" r="3" fill="#2563eb"></circle><circle class="dot" cx="394.2081447963801" cy="340" r="3" fill="#2563eb"></circle><circle class="dot" cx="397.4660633484163" cy="340" r="3" fill="#2563eb"></circle><circle class="dot" cx="400.7239819004525" cy="340" r="3" fill="#2563eb"></circle><circle class="dot" cx="403.9819004524887" cy="340" r="3" fill="#2563eb"></circle><circle class="dot" cx="407.23981900452486" cy="340" r="3" fill="#2563eb"></circle><circle class="dot" cx="410.49773755656105" cy="340" r="3" fill="#2563eb"></circle><circle class="dot" cx="413.75565610859724" cy="340" r="3" fill="#2563eb"></circle><circle class="dot" cx="417.01357466063354" cy="340" r="3" fill="#2563eb"></circle><circle class="dot" cx="420.2714932126697" cy="340" r="3" fill="#2563eb"></circle><circle class="dot" cx="423.5294117647059" cy="340" r="3" fill="#2563eb"></circle><circle class="dot" cx="426.7873303167421" cy="340" r="3" fill="#2563eb"></circle><circle class="dot" cx="430.0452488687783" cy="340" r="3" fill="#2563eb"></circle><circle class="dot" cx="433.3031674208145" cy="340" r="3" fill="#2563eb"></circle><circle class="dot" cx="436.56108597285066" cy="340" r="3" fill="#2563eb"></circle><circle class="dot" cx="439.8190045248869" cy="340" r="3" fill="#2563eb"></circle><circle class="dot" cx="443.0769230769231" cy="340" r="3" fill="#2563eb"></circle><circle class="dot" cx="446.3348416289593" cy="340" r="3" fill="#2563eb"></circle><circle class="dot" cx="449.59276018099547" cy="340" r="3" fill="#2563eb"></circle><circle class="dot" cx="452.85067873303166" cy="340" r="3" fill="#2563eb"></circle><circle class="dot" cx="456.10859728506784" cy="340" r="3" fill="#2563eb"></circle><circle class="dot" cx="459.36651583710403" cy="340" r="3" fill="#2563eb"></circle><circle class="dot" cx="462.62443438914033" cy="340" r="3" fill="#2563eb"></circle><circle class="dot" cx="465.8823529411765" cy="340" r="3" fill="#2563eb"></circle><circle class="dot" cx="469.1402714932127" cy="340" r="3" fill="#2563eb"></circle><circle class="dot" cx="472.3981900452489" cy="340" r="3" fill="#2563eb"></circle><circle class="dot" cx="475.6561085972851" cy="340" r="3" fill="#2563eb"></circle><circle class="dot" cx="478.91402714932127" cy="340" r="3" fill="#2563eb"></circle><circle class="dot" cx="482.17194570135746" cy="340" r="3" fill="#2563eb"></circle><circle class="dot" cx="485.4298642533937" cy="340" r="3" fill="#2563eb"></circle><circle class="dot" cx="488.6877828054299" cy="340" r="3" fill="#2563eb"></circle><circle class="dot" cx="491.9457013574661" cy="340" r="3" fill="#2563eb"></circle><circle class="dot" cx="495.20361990950227" cy="340" r="3" fill="#2563eb"></circle><circle class="dot" cx="498.46153846153845" cy="340" r="3" fill="#2563eb"></circle><circle class="dot" cx="501.71945701357464" cy="340" r="3" fill="#2563eb"></circle><circle class="dot" cx="504.9773755656108" cy="340" r="3" fill="#2563eb"></circle><circle class="dot" cx="508.2352941176471" cy="340" r="3" fill="#2563eb"></circle><circle class="dot" cx="511.49321266968326" cy="340" r="3" fill="#2563eb"></circle><circle class="dot" cx="514.7511312217194" cy="340" r="3" fill="#2563eb"></circle><circle class="dot" cx="518.0090497737557" cy="340" r="3" fill="#2563eb"></circle><circle class="dot" cx="521.2669683257918" cy="340" r="3" fill="#2563eb"></circle><circle class="dot" cx="524.5248868778281" cy="340" r="3" fill="#2563eb"></circle><circle class="dot" cx="527.7828054298642" cy="340" r="3" fill="#2563eb"></circle><circle class="dot" cx="531.0407239819004" cy="340" r="3" fill="#2563eb"></circle><circle class="dot" cx="534.2986425339367" cy="340" r="3" fill="#2563eb"></circle><circle class="dot" cx="537.5565610859728" cy="340" r="3" fill="#2563eb"></circle><circle class="dot" cx="540.8144796380091" cy="340" r="3" fill="#2563eb"></circle><circle class="dot" cx="544.0723981900452" cy="340" r="3" fill="#2563eb"></circle><circle class="dot" cx="547.3303167420814" cy="340" r="3" fill="#2563eb"></circle><circle class="dot" cx="550.5882352941176" cy="340" r="3" fill="#2563eb"></circle><circle class="dot" cx="553.8461538461539" cy="340" r="3" fill="#2563eb"></circle><circle class="dot" cx="557.10407239819" cy="340" r="3" fill="#2563eb"></circle><circle class="dot" cx="560.3619909502263" cy="340" r="3" fill="#2563eb"></circle><circle class="dot" cx="563.6199095022624" cy="340" r="3" fill="#2563eb"></circle><circle class="dot" cx="566.8778280542987" cy="340" r="3" fill="#2563eb"></circle><circle class="dot" cx="570.1357466063348" cy="340" r="3" fill="#2563eb"></circle><circle class="dot" cx="573.393665158371" cy="340" r="3" fill="#2563eb"></circle><circle class="dot" cx="576.6515837104073" cy="340" r="3" fill="#2563eb"></circle><circle class="dot" cx="579.9095022624434" cy="340" r="3" fill="#2563eb"></circle><circle class="dot" cx="583.1674208144797" cy="340" r="3" fill="#2563eb"></circle><circle class="dot" cx="586.4253393665158" cy="340" r="3" fill="#2563eb"></circle><circle class="dot" cx="589.683257918552" cy="340" r="3" fill="#2563eb"></circle><circle class="dot" cx="592.9411764705882" cy="340" r="3" fill="#2563eb"></circle><circle class="dot" cx="596.1990950226244" cy="340" r="3" fill="#2563eb"></circle><circle class="dot" cx="599.4570135746607" cy="340" r="3" fill="#2563eb"></circle><circle class="dot" cx="602.7149321266968" cy="340" r="3" fill="#2563eb"></circle><circle class="dot" cx="605.972850678733" cy="340" r="3" fill="#2563eb"></circle><circle class="dot" cx="609.2307692307692" cy="340" r="3" fill="#2563eb"></circle><circle class="dot" cx="612.4886877828054" cy="340" r="3" fill="#2563eb"></circle><circle class="dot" cx="615.7466063348415" cy="340" r="3" fill="#2563eb"></circle><circle class="dot" cx="619.0045248868779" cy="340" r="3" fill="#2563eb"></circle><circle class="dot" cx="622.262443438914" cy="340" r="3" fill="#2563eb"></circle><circle class="dot" cx="625.5203619909503" cy="340" r="3" fill="#2563eb"></circle><circle class="dot" cx="628.7782805429864" cy="340" r="3" fill="#2563eb"></circle><circle class="dot" cx="632.0361990950227" cy="340" r="3" fill="#2563eb"></circle><circle class="dot" cx="635.2941176470588" cy="340" r="3" fill="#2563eb"></circle><circle class="dot" cx="638.552036199095" cy="340" r="3" fill="#2563eb"></circle><circle class="dot" cx="641.8099547511313" cy="340" r="3" fill="#2563eb"></circle><circle class="dot" cx="645.0678733031674" cy="340" r="3" fill="#2563eb"></circle><circle class="dot" cx="648.3257918552036" cy="340" r="3" fill="#2563eb"></circle><circle class="dot" cx="651.5837104072398" cy="340" r="3" fill="#2563eb"></circle><circle class="dot" cx="654.841628959276" cy="340" r="3" fill="#2563eb"></circle><circle class="dot" cx="658.0995475113122" cy="340" r="3" fill="#2563eb"></circle><circle class="dot" cx="661.3574660633484" cy="340" r="3" fill="#2563eb"></circle><circle class="dot" cx="664.6153846153846" cy="340" r="3" fill="#2563eb"></circle><circle class="dot" cx="667.8733031674209" cy="340" r="3" fill="#2563eb"></circle><circle class="dot" cx="671.131221719457" cy="340" r="3" fill="#2563eb"></circle><circle class="dot" cx="674.3891402714933" cy="340" r="3" fill="#2563eb"></circle><circle class="dot" cx="677.6470588235294" cy="340" r="3" fill="#2563eb"></circle><circle class="dot" cx="680.9049773755656" cy="340" r="3" fill="#2563eb"></circle><circle class="dot" cx="684.1628959276018" cy="340" r="3" fill="#2563eb"></circle><circle class="dot" cx="687.420814479638" cy="340" r="3" fill="#2563eb"></circle><circle class="dot" cx="690.6787330316743" cy="340" r="3" fill="#2563eb"></circle><circle class="dot" cx="693.9366515837104" cy="340" r="3" fill="#2563eb"></circle><circle class="dot" cx="697.1945701357466" cy="340" r="3" fill="#2563eb"></circle><circle class="dot" cx="700.4524886877828" cy="340" r="3" fill="#2563eb"></circle><circle class="dot" cx="703.710407239819" cy="340" r="3" fill="#2563eb"></circle><circle class="dot" cx="706.9683257918551" cy="340" r="3" fill="#2563eb"></circle><circle class="dot" cx="710.2262443438915" cy="340" r="3" fill="#2563eb"></circle><circle class="dot" cx="713.4841628959276" cy="340" r="3" fill="#2563eb"></circle><circle class="dot" cx="716.7420814479638" cy="340" r="3" fill="#2563eb"></circle><circle class="dot" cx="720" cy="340" r="3" fill="#2563eb"></circle><g class="grid" transform="translate(0,340)" fill="none" font-size="10" font-family="sans-serif" text-anchor="middle" style="stroke-dasharray: 3,3; opacity: 0.3;"><path class="domain" stroke="currentColor" d="M0.5,-340V0.5H720.5V-340"></path><g class="tick" opacity="1" transform="translate(0.5,0)"><line stroke="currentColor" y2="-340"></line><text fill="currentColor" y="3" dy="0.71em"></text></g><g class="tick" opacity="1" transform="translate(78.69004524886878,0)"><line stroke="currentColor" y2="-340"></line><text fill="currentColor" y="3" dy="0.71em"></text></g><g class="tick" opacity="1" transform="translate(156.88009049773757,0)"><line stroke="currentColor" y2="-340"></line><text fill="currentColor" y="3" dy="0.71em"></text></g><g class="tick" opacity="1" transform="translate(235.07013574660635,0)"><line stroke="currentColor" y2="-340"></line><text fill="currentColor" y="3" dy="0.71em"></text></g><g class="tick" opacity="1" transform="translate(313.26018099547514,0)"><line stroke="currentColor" y2="-340"></line><text fill="currentColor" y="3" dy="0.71em"></text></g><g class="tick" opacity="1" transform="translate(391.45022624434387,0)"><line stroke="currentColor" y2="-340"></line><text fill="currentColor" y="3" dy="0.71em"></text></g><g class="tick" opacity="1" transform="translate(469.6402714932127,0)"><line stroke="currentColor" y2="-340"></line><text fill="currentColor" y="3" dy="0.71em"></text></g><g class="tick" opacity="1" transform="translate(547.8303167420814,0)"><line stroke="currentColor" y2="-340"></line><text fill="currentColor" y="3" dy="0.71em"></text></g><g class="tick" opacity="1" transform="translate(626.0203619909503,0)"><line stroke="currentColor" y2="-340"></line><text fill="currentColor" y="3" dy="0.71em"></text></g><g class="tick" opacity="1" transform="translate(704.210407239819,0)"><line stroke="currentColor" y2="-340"></line><text fill="currentColor" y="3" dy="0.71em"></text></g></g><g class="grid" fill="none" font-size="10" font-family="sans-serif" text-anchor="end" style="stroke-dasharray: 3,3; opacity: 0.3;"><path class="domain" stroke="currentColor" d="M720,340.5H0.5V0.5H720"></path><g class="tick" opacity="1" transform="translate(0,340.5)"><line stroke="currentColor" x2="720"></line><text fill="currentColor" x="-3" dy="0.32em"></text></g><g class="tick" opacity="1" transform="translate(0,317.8333333333334)"><line stroke="currentColor" x2="720"></line><text fill="currentColor" x="-3" dy="0.32em"></text></g><g class="tick" opacity="1" transform="translate(0,295.16666666666686)"><line stroke="currentColor" x2="720"></line><text fill="currentColor" x="-3" dy="0.32em"></text></g><g class="tick" opacity="1" transform="translate(0,272.50000000000034)"><line stroke="currentColor" x2="720"></line><text fill="currentColor" x="-3" dy="0.32em"></text></g><g class="tick" opacity="1" transform="translate(0,249.83333333333374)"><line stroke="currentColor" x2="720"></line><text fill="currentColor" x="-3" dy="0.32em"></text></g><g class="tick" opacity="1" transform="translate(0,227.16666666666717)"><line stroke="currentColor" x2="720"></line><text fill="currentColor" x="-3" dy="0.32em"></text></g><g class="tick" opacity="1" transform="translate(0,204.49999999999983)"><line stroke="currentColor" x2="720"></line><text fill="currentColor" x="-3" dy="0.32em"></text></g><g class="tick" opacity="1" transform="translate(0,181.8333333333333)"><line stroke="currentColor" x2="720"></line><text fill="currentColor" x="-3" dy="0.32em"></text></g><g class="tick" opacity="1" transform="translate(0,159.1666666666667)"><line stroke="currentColor" x2="720"></line><text fill="currentColor" x="-3" dy="0.32em"></text></g><g class="tick" opacity="1" transform="translate(0,136.50000000000017)"><line stroke="currentColor" x2="720"></line><text fill="currentColor" x="-3" dy="0.32em"></text></g><g class="tick" opacity="1" transform="translate(0,113.83333333333361)"><line stroke="currentColor" x2="720"></line><text fill="currentColor" x="-3" dy="0.32em"></text></g><g class="tick" opacity="1" transform="translate(0,91.16666666666703)"><line stroke="currentColor" x2="720"></line><text fill="currentColor" x="-3" dy="0.32em"></text></g><g class="tick" opacity="1" transform="translate(0,68.49999999999969)"><line stroke="currentColor" x2="720"></line><text fill="currentColor" x="-3" dy="0.32em"></text></g><g class="tick" opacity="1" transform="translate(0,45.83333333333314)"><line stroke="currentColor" x2="720"></line><text fill="currentColor" x="-3" dy="0.32em"></text></g><g class="tick" opacity="1" transform="translate(0,23.166666666666547)"><line stroke="currentColor" x2="720"></line><text fill="currentColor" x="-3" dy="0.32em"></text></g><g class="tick" opacity="1" transform="translate(0,0.5)"><line stroke="currentColor" x2="720"></line><text fill="currentColor" x="-3" dy="0.32em"></text></g></g></g><text x="400" y="10" text-anchor="middle" style="font-size: 16px; font-weight: bold; fill: #333;">OKX USDT Lending Rate - Current Month</text></svg>