<svg width="800" height="400" xmlns="http://www.w3.org/2000/svg"><g transform="translate(50,20)"><g transform="translate(0,340)" fill="none" font-size="10" font-family="sans-serif" text-anchor="middle"><path class="domain" stroke="currentColor" d="M0.5,6V0.5H720.5V6"></path><g class="tick" opacity="1" transform="translate(0.5,0)"><line stroke="currentColor" y2="6"></line><text fill="currentColor" y="9" dy=".15em" style="text-anchor: end;" dx="-.8em" transform="rotate(-45)">01/01</text></g><g class="tick" opacity="1" transform="translate(31.412343470483002,0)"><line stroke="currentColor" y2="6"></line><text fill="currentColor" y="9" dy=".15em" style="text-anchor: end;" dx="-.8em" transform="rotate(-45)">01/02</text></g><g class="tick" opacity="1" transform="translate(62.324686940966004,0)"><line stroke="currentColor" y2="6"></line><text fill="currentColor" y="9" dy=".15em" style="text-anchor: end;" dx="-.8em" transform="rotate(-45)">01/03</text></g><g class="tick" opacity="1" transform="translate(93.23703041144903,0)"><line stroke="currentColor" y2="6"></line><text fill="currentColor" y="9" dy=".15em" style="text-anchor: end;" dx="-.8em" transform="rotate(-45)">01/04</text></g><g class="tick" opacity="1" transform="translate(124.14937388193201,0)"><line stroke="currentColor" y2="6"></line><text fill="currentColor" y="9" dy=".15em" style="text-anchor: end;" dx="-.8em" transform="rotate(-45)">01/05</text></g><g class="tick" opacity="1" transform="translate(155.06171735241503,0)"><line stroke="currentColor" y2="6"></line><text fill="currentColor" y="9" dy=".15em" style="text-anchor: end;" dx="-.8em" transform="rotate(-45)">01/06</text></g><g class="tick" opacity="1" transform="translate(185.97406082289805,0)"><line stroke="currentColor" y2="6"></line><text fill="currentColor" y="9" dy=".15em" style="text-anchor: end;" dx="-.8em" transform="rotate(-45)">01/07</text></g><g class="tick" opacity="1" transform="translate(216.88640429338105,0)"><line stroke="currentColor" y2="6"></line><text fill="currentColor" y="9" dy=".15em" style="text-anchor: end;" dx="-.8em" transform="rotate(-45)">01/08</text></g><g class="tick" opacity="1" transform="translate(247.79874776386401,0)"><line stroke="currentColor" y2="6"></line><text fill="currentColor" y="9" dy=".15em" style="text-anchor: end;" dx="-.8em" transform="rotate(-45)">01/09</text></g><g class="tick" opacity="1" transform="translate(278.711091234347,0)"><line stroke="currentColor" y2="6"></line><text fill="currentColor" y="9" dy=".15em" style="text-anchor: end;" dx="-.8em" transform="rotate(-45)">01/10</text></g><g class="tick" opacity="1" transform="translate(309.62343470483006,0)"><line stroke="currentColor" y2="6"></line><text fill="currentColor" y="9" dy=".15em" style="text-anchor: end;" dx="-.8em" transform="rotate(-45)">01/11</text></g><g class="tick" opacity="1" transform="translate(340.53577817531306,0)"><line stroke="currentColor" y2="6"></line><text fill="currentColor" y="9" dy=".15em" style="text-anchor: end;" dx="-.8em" transform="rotate(-45)">01/12</text></g><g class="tick" opacity="1" transform="translate(371.4481216457961,0)"><line stroke="currentColor" y2="6"></line><text fill="currentColor" y="9" dy=".15em" style="text-anchor: end;" dx="-.8em" transform="rotate(-45)">01/13</text></g><g class="tick" opacity="1" transform="translate(402.36046511627904,0)"><line stroke="currentColor" y2="6"></line><text fill="currentColor" y="9" dy=".15em" style="text-anchor: end;" dx="-.8em" transform="rotate(-45)">01/14</text></g><g class="tick" opacity="1" transform="translate(433.2728085867621,0)"><line stroke="currentColor" y2="6"></line><text fill="currentColor" y="9" dy=".15em" style="text-anchor: end;" dx="-.8em" transform="rotate(-45)">01/15</text></g><g class="tick" opacity="1" transform="translate(464.1851520572451,0)"><line stroke="currentColor" y2="6"></line><text fill="currentColor" y="9" dy=".15em" style="text-anchor: end;" dx="-.8em" transform="rotate(-45)">01/16</text></g><g class="tick" opacity="1" transform="translate(495.09749552772803,0)"><line stroke="currentColor" y2="6"></line><text fill="currentColor" y="9" dy=".15em" style="text-anchor: end;" dx="-.8em" transform="rotate(-45)">01/17</text></g><g class="tick" opacity="1" transform="translate(526.0098389982111,0)"><line stroke="currentColor" y2="6"></line><text fill="currentColor" y="9" dy=".15em" style="text-anchor: end;" dx="-.8em" transform="rotate(-45)">01/18</text></g><g class="tick" opacity="1" transform="translate(556.922182468694,0)"><line stroke="currentColor" y2="6"></line><text fill="currentColor" y="9" dy=".15em" style="text-anchor: end;" dx="-.8em" transform="rotate(-45)">01/19</text></g><g class="tick" opacity="1" transform="translate(587.8345259391771,0)"><line stroke="currentColor" y2="6"></line><text fill="currentColor" y="9" dy=".15em" style="text-anchor: end;" dx="-.8em" transform="rotate(-45)">01/20</text></g><g class="tick" opacity="1" transform="translate(618.7468694096601,0)"><line stroke="currentColor" y2="6"></line><text fill="currentColor" y="9" dy=".15em" style="text-anchor: end;" dx="-.8em" transform="rotate(-45)">01/21</text></g><g class="tick" opacity="1" transform="translate(649.6592128801432,0)"><line stroke="currentColor" y2="6"></line><text fill="currentColor" y="9" dy=".15em" style="text-anchor: end;" dx="-.8em" transform="rotate(-45)">01/22</text></g><g class="tick" opacity="1" transform="translate(680.5715563506261,0)"><line stroke="currentColor" y2="6"></line><text fill="currentColor" y="9" dy=".15em" style="text-anchor: end;" dx="-.8em" transform="rotate(-45)">01/23</text></g><g class="tick" opacity="1" transform="translate(711.4838998211092,0)"><line stroke="currentColor" y2="6"></line><text fill="currentColor" y="9" dy=".15em" style="text-anchor: end;" dx="-.8em" transform="rotate(-45)">01/24</text></g></g><g fill="none" font-size="10" font-family="sans-serif" text-anchor="end"><path class="domain" stroke="currentColor" d="M-6,340.5H0.5V0.5H-6"></path><g class="tick" opacity="1" transform="translate(0,340.5)"><line stroke="currentColor" x2="-6"></line><text fill="currentColor" x="-9" dy="0.32em">3.20%</text></g><g class="tick" opacity="1" transform="translate(0,312.16666666666663)"><line stroke="currentColor" x2="-6"></line><text fill="currentColor" x="-9" dy="0.32em">3.25%</text></g><g class="tick" opacity="1" transform="translate(0,283.83333333333326)"><line stroke="currentColor" x2="-6"></line><text fill="currentColor" x="-9" dy="0.32em">3.30%</text></g><g class="tick" opacity="1" transform="translate(0,255.49999999999991)"><line stroke="currentColor" x2="-6"></line><text fill="currentColor" x="-9" dy="0.32em">3.35%</text></g><g class="tick" opacity="1" transform="translate(0,227.16666666666654)"><line stroke="currentColor" x2="-6"></line><text fill="currentColor" x="-9" dy="0.32em">3.40%</text></g><g class="tick" opacity="1" transform="translate(0,198.83333333333314)"><line stroke="currentColor" x2="-6"></line><text fill="currentColor" x="-9" dy="0.32em">3.45%</text></g><g class="tick" opacity="1" transform="translate(0,170.4999999999998)"><line stroke="currentColor" x2="-6"></line><text fill="currentColor" x="-9" dy="0.32em">3.50%</text></g><g class="tick" opacity="1" transform="translate(0,142.16666666666686)"><line stroke="currentColor" x2="-6"></line><text fill="currentColor" x="-9" dy="0.32em">3.55%</text></g><g class="tick" opacity="1" transform="translate(0,113.83333333333346)"><line stroke="currentColor" x2="-6"></line><text fill="currentColor" x="-9" dy="0.32em">3.60%</text></g><g class="tick" opacity="1" transform="translate(0,85.50000000000011)"><line stroke="currentColor" x2="-6"></line><text fill="currentColor" x="-9" dy="0.32em">3.65%</text></g><g class="tick" opacity="1" transform="translate(0,57.16666666666673)"><line stroke="currentColor" x2="-6"></line><text fill="currentColor" x="-9" dy="0.32em">3.70%</text></g><g class="tick" opacity="1" transform="translate(0,28.833333333333385)"><line stroke="currentColor" x2="-6"></line><text fill="currentColor" x="-9" dy="0.32em">3.75%</text></g><g class="tick" opacity="1" transform="translate(0,0.5)"><line stroke="currentColor" x2="-6"></line><text fill="currentColor" x="-9" dy="0.32em">3.80%</text></g></g><text transform="rotate(-90)" y="-50" x="-170" dy="1em" style="text-anchor: middle; font-size: 12px; fill: #666;">Pre Rate (%)</text><text transform="translate(360, 380)" style="text-anchor: middle; font-size: 12px; fill: #666;">Time (UTC)</text><path fill="none" stroke="#2563eb" stroke-width="2" d="M0,340C0.429,340,0.859,340,1.288,340C1.717,340,2.147,340,2.576,340C3.005,340,3.435,340,3.864,340C4.293,340,4.723,340,5.152,340C5.581,340,6.011,340,6.44,340C6.869,340,7.299,340,7.728,340C8.157,340,8.587,340,9.016,340C9.445,340,9.875,340,10.304,340C10.733,340,11.163,340,11.592,340C12.021,340,12.451,340,12.88,340C13.309,340,13.739,340,14.168,340C14.597,340,15.027,340,15.456,340C15.886,340,16.315,340,16.744,340C17.174,340,17.603,340,18.032,340C18.462,340,18.891,340,19.32,340C19.75,340,20.179,340,20.608,340C21.038,340,21.467,340,21.896,340C22.326,340,22.755,340,23.184,340C23.614,340,24.043,340,24.472,340C24.902,340,25.331,340,25.76,340C26.19,340,26.619,340,27.048,340C27.478,340,27.907,340,28.336,340C28.766,340,29.195,340,29.624,340C30.054,340,30.483,340,30.912,340C31.342,340,31.771,340,32.2,340C32.63,340,33.059,340,33.488,340C33.918,340,34.347,340,34.776,340C35.206,340,35.635,340,36.064,340C36.494,340,36.923,340,37.352,340C37.782,340,38.211,340,38.64,340C39.07,340,39.499,340,39.928,340C40.358,340,40.787,340,41.216,340C41.646,340,42.075,340,42.504,340C42.934,340,43.363,340,43.792,340C44.222,340,44.651,340,45.081,340C45.51,340,45.939,340,46.369,340C46.798,340,47.227,340,47.657,340C48.086,340,48.515,340,48.945,340C49.374,340,49.803,340,50.233,340C50.662,340,51.091,340,51.521,340C51.95,340,52.379,340,52.809,340C53.238,340,53.667,340,54.097,340C54.526,340,54.955,340,55.385,340C55.814,340,56.243,340,56.673,340C57.102,340,57.531,340,57.961,340C58.39,340,58.819,340,59.249,340C59.678,340,60.107,340,60.537,340C60.966,340,61.395,340,61.825,340C62.254,340,62.683,340,63.113,340C63.542,340,63.971,340,64.401,340C64.83,340,65.259,340,65.689,340C66.118,340,66.547,340,66.977,340C67.406,340,67.835,340,68.265,340C68.694,340,69.123,340,69.553,340C69.982,340,70.411,340,70.841,340C71.27,340,71.699,340,72.129,340C72.558,340,72.987,340,73.417,340C73.846,340,74.275,340,74.705,340C75.134,340,75.564,340,75.993,340C76.422,340,76.852,340,77.281,340C77.71,340,78.14,340,78.569,340C78.998,340,79.428,340,79.857,340C80.286,340,80.716,340,81.145,340C81.574,340,82.004,340,82.433,340C82.862,340,83.292,340,83.721,340C84.15,340,84.58,340,85.009,340C85.438,340,85.868,340,86.297,340C86.726,340,87.156,340,87.585,340C88.014,340,88.444,340,88.873,340C89.302,340,89.732,340,90.161,340C90.59,340,91.02,340,91.449,340C91.878,340,92.308,340,92.737,340C93.166,340,93.596,340,94.025,340C94.454,340,94.884,340,95.313,340C95.742,340,96.172,340,96.601,340C97.03,340,97.46,340,97.889,340C98.318,340,98.748,340,99.177,340C99.606,340,100.036,340,100.465,340C100.894,340,101.324,340,101.753,340C102.182,340,102.612,340,103.041,340C103.47,340,103.9,340,104.329,340C104.758,340,105.188,340,105.617,340C106.047,340,106.476,340,106.905,340C107.335,340,107.764,340,108.193,340C108.623,340,109.052,340,109.481,340C109.911,340,110.34,340,110.769,340C111.199,340,111.628,340,112.057,340C112.487,340,112.916,340,113.345,340C113.775,340,114.204,340,114.633,340C115.063,340,115.492,340,115.921,340C116.351,340,116.78,340,117.209,340C117.639,340,118.068,340,118.497,340C118.927,340,119.356,340,119.785,340C120.215,340,120.644,340,121.073,340C121.503,340,121.932,340,122.361,340C122.791,340,123.22,340,123.649,340C124.079,340,124.508,340,124.937,340C125.367,340,125.796,340,126.225,340C126.655,340,127.084,340,127.513,340C127.943,340,128.372,340,128.801,340C129.231,340,129.66,340,130.089,340C130.519,340,130.948,340,131.377,340C131.807,340,132.236,340,132.665,340C133.095,340,133.524,340,133.953,340C134.383,340,134.812,340,135.242,340C135.671,340,136.1,340,136.53,340C136.959,340,137.388,340,137.818,340C138.247,340,138.676,340,139.106,340C139.535,340,139.964,340,140.394,340C140.823,340,141.252,340,141.682,340C142.111,340,142.54,340,142.97,340C143.399,340,143.828,340,144.258,340C144.687,340,145.116,340,145.546,340C145.975,340,146.404,340,146.834,340C147.263,340,147.692,340,148.122,340C148.551,340,148.98,340,149.41,340C149.839,340,150.268,340,150.698,340C151.127,340,151.556,340,151.986,340C152.415,340,152.844,340,153.274,340C153.703,340,154.132,340,154.562,340C154.991,340,155.42,340,155.85,340C156.279,340,156.708,340,157.138,340C157.567,340,157.996,340,158.426,340C158.855,340,159.284,340,159.714,340C160.143,340,160.572,340,161.002,340C161.431,340,161.86,340,162.29,340C162.719,340,163.148,340,163.578,340C164.007,340,164.436,340,164.866,340C165.295,340,165.725,340,166.154,340C166.583,340,167.013,340,167.442,340C167.871,340,168.301,340,168.73,340C169.159,340,169.589,340,170.018,340C170.447,340,170.877,340,171.306,340C171.735,340,172.165,340,172.594,340C173.023,340,173.453,340,173.882,340C174.311,340,174.741,340,175.17,340C175.599,340,176.029,340,176.458,340C176.887,340,177.317,340,177.746,340C178.175,340,178.605,340,179.034,340C179.463,340,179.893,340,180.322,340C180.751,340,181.181,340,181.61,340C182.039,340,182.469,340,182.898,340C183.327,340,183.757,340,184.186,340C184.615,340,185.045,340,185.474,340C185.903,340,186.333,340,186.762,340C187.191,340,187.621,340,188.05,340C188.479,340,188.909,340,189.338,340C189.767,340,190.197,340,190.626,340C191.055,340,191.485,340,191.914,340C192.343,340,192.773,340,193.202,340C193.631,340,194.061,340,194.49,340C194.919,340,195.349,340,195.778,340C196.208,340,196.637,340,197.066,340C197.496,340,197.925,340,198.354,340C198.784,340,199.213,340,199.642,340C200.072,340,200.501,340,200.93,340C201.36,340,201.789,340,202.218,340C202.648,340,203.077,340,203.506,340C203.936,340,204.365,340,204.794,340C205.224,340,205.653,340,206.082,340C206.512,340,206.941,340,207.37,340C207.8,340,208.229,340,208.658,340C209.088,340,209.517,340,209.946,340C210.376,340,210.805,340,211.234,340C211.664,340,212.093,340,212.522,340C212.952,340,213.381,340,213.81,340C214.24,340,214.669,340,215.098,340C215.528,340,215.957,340,216.386,340C216.816,340,217.245,340,217.674,340C218.104,340,218.533,340,218.962,340C219.392,340,219.821,340,220.25,340C220.68,340,221.109,340,221.538,340C221.968,340,222.397,340,222.826,340C223.256,340,223.685,340,224.114,340C224.544,340,224.973,340,225.403,340C225.832,340,226.261,340,226.691,340C227.12,340,227.549,340,227.979,340C228.408,340,228.837,340,229.267,340C229.696,340,230.125,340,230.555,340C230.984,340,231.413,340,231.843,340C232.272,340,232.701,340,233.131,340C233.56,340,233.989,340,234.419,340C234.848,340,235.277,340,235.707,340C236.136,340,236.565,340,236.995,340C237.424,340,237.853,340,238.283,340C238.712,340,239.141,340,239.571,340C240,340,240.429,340,240.859,340C241.288,340,241.717,340,242.147,340C242.576,340,243.005,340,243.435,340C243.864,340,244.293,340,244.723,340C245.152,340,245.581,340,246.011,340C246.44,340,246.869,340,247.299,340C247.728,340,248.157,340,248.587,340C249.016,340,249.445,340,249.875,340C250.304,340,250.733,340,251.163,340C251.592,340,252.021,340,252.451,340C252.88,340,253.309,340,253.739,340C254.168,340,254.597,340,255.027,340C255.456,340,255.886,340,256.315,340C256.744,340,257.174,340,257.603,340C258.032,340,258.462,340,258.891,340C259.32,340,259.75,340,260.179,340C260.608,340,261.038,340,261.467,340C261.896,340,262.326,340,262.755,340C263.184,340,263.614,340,264.043,340C264.472,340,264.902,340,265.331,340C265.76,340,266.19,340,266.619,340C267.048,340,267.478,340,267.907,340C268.336,340,268.766,340,269.195,340C269.624,340,270.054,340,270.483,340C270.912,340,271.342,340,271.771,340C272.2,340,272.63,340,273.059,340C273.488,340,273.918,340,274.347,340C274.776,340,275.206,340,275.635,340C276.064,340,276.494,340,276.923,340C277.352,340,277.782,340,278.211,340C278.64,340,279.07,340,279.499,340C279.928,340,280.358,340,280.787,340C281.216,340,281.646,340,282.075,340C282.504,340,282.934,340,283.363,340C283.792,340,284.222,340,284.651,340C285.081,340,285.51,340,285.939,340C286.369,340,286.798,340,287.227,340C287.657,340,288.086,340,288.515,340C288.945,340,289.374,340,289.803,340C290.233,340,290.662,340,291.091,340C291.521,340,291.95,340,292.379,340C292.809,340,293.238,340,293.667,340C294.097,340,294.526,340,294.955,340C295.385,340,295.814,340,296.243,340C296.673,340,297.102,340,297.531,340C297.961,340,298.39,340,298.819,340C299.249,340,299.678,340,300.107,340C300.537,340,300.966,340,301.395,340C301.825,340,302.254,340,302.683,340C303.113,340,303.542,340,303.971,340C304.401,340,304.83,340,305.259,340C305.689,340,306.118,340,306.547,340C306.977,340,307.406,340,307.835,340C308.265,340,308.694,340,309.123,340C309.553,340,309.982,340,310.411,340C310.841,340,311.27,340,311.699,340C312.129,340,312.558,340,312.987,340C313.417,340,313.846,340,314.275,340C314.705,340,315.134,340,315.564,340C315.993,340,316.422,340,316.852,340C317.281,340,317.71,340,318.14,340C318.569,340,318.998,340,319.428,340C319.857,340,320.286,340,320.716,340C321.145,340,321.574,340,322.004,340C322.433,340,322.862,340,323.292,340C323.721,340,324.15,340,324.58,340C325.009,340,325.438,340,325.868,340C326.297,340,326.726,340,327.156,340C327.585,340,328.014,340,328.444,340C328.873,340,329.302,340,329.732,340C330.161,340,330.59,340,331.02,340C331.449,340,331.878,340,332.308,340C332.737,340,333.166,340,333.596,340C334.025,340,334.454,340,334.884,340C335.313,340,335.742,340,336.172,340C336.601,340,337.03,340,337.46,340C337.889,340,338.318,340,338.748,340C339.177,340,339.606,340,340.036,340C340.465,340,340.894,340,341.324,340C341.753,340,342.182,340,342.612,340C343.041,340,343.47,340,343.9,340C344.329,340,344.758,340,345.188,340C345.617,340,346.047,340,346.476,340C346.905,340,347.335,340,347.764,340C348.193,340,348.623,340,349.052,340C349.481,340,349.911,340,350.34,340C350.769,340,351.199,340,351.628,340C352.057,340,352.487,340,352.916,340C353.345,340,353.775,340,354.204,340C354.633,340,355.063,340,355.492,340C355.921,340,356.351,340,356.78,340C357.209,340,357.639,340,358.068,340C358.497,340,358.927,340,359.356,340C359.785,340,360.215,340,360.644,340C361.073,340,361.503,340,361.932,340C362.361,340,362.791,340,363.22,340C363.649,340,364.079,340,364.508,340C364.937,340,365.367,340,365.796,340C366.225,340,366.655,340,367.084,340C367.513,340,367.943,340,368.372,340C368.801,340,369.231,340,369.66,340C370.089,340,370.519,340,370.948,340C371.377,340,371.807,340,372.236,340C372.665,340,373.095,340,373.524,340C373.953,340,374.383,340,374.812,340C375.242,340,375.671,340,376.1,340C376.53,340,376.959,340,377.388,340C377.818,340,378.247,340,378.676,340C379.106,340,379.535,340,379.964,340C380.394,340,380.823,340,381.252,340C381.682,340,382.111,340,382.54,340C382.97,340,383.399,340,383.828,340C384.258,340,384.687,340,385.116,340C385.546,340,385.975,340,386.404,340C386.834,340,387.263,340,387.692,340C388.122,340,388.551,340,388.98,340C389.41,340,389.839,340,390.268,340C390.698,340,391.127,340,391.556,340C391.986,340,392.415,340,392.844,340C393.274,340,393.703,340,394.132,340C394.562,340,394.991,340,395.42,340C395.85,340,396.279,340,396.708,340C397.138,340,397.567,340,397.996,340C398.426,340,398.855,340,399.284,340C399.714,340,400.143,340,400.572,340C401.002,340,401.431,340,401.86,340C402.29,340,402.719,340,403.148,340C403.578,340,404.007,340,404.436,340C404.866,340,405.295,340,405.725,340C406.154,340,406.583,340,407.013,340C407.442,340,407.871,340,408.301,340C408.73,340,409.159,340,409.589,340C410.018,340,410.447,340,410.877,340C411.306,340,411.735,340,412.165,340C412.594,340,413.023,340,413.453,340C413.882,340,414.311,340,414.741,340C415.17,340,415.599,340,416.029,340C416.458,340,416.887,340,417.317,340C417.746,340,418.175,340,418.605,340C419.034,340,419.463,340,419.893,340C420.322,340,420.751,340,421.181,340C421.61,340,422.039,340,422.469,340C422.898,340,423.327,340,423.757,340C424.186,340,424.615,340,425.045,340C425.474,340,425.903,340,426.333,340C426.762,340,427.191,340,427.621,340C428.05,340,428.479,340,428.909,340C429.338,340,429.767,340,430.197,340C430.626,340,431.055,340,431.485,340C431.914,340,432.343,340,432.773,340C433.202,340,433.631,340,434.061,340C434.49,340,434.919,0,435.349,0C435.778,0,436.208,0,436.637,0C437.066,0,437.496,0,437.925,0C438.354,0,438.784,0,439.213,0C439.642,0,440.072,0,440.501,0C440.93,0,441.36,0,441.789,0C442.218,0,442.648,0,443.077,0C443.506,0,443.936,0,444.365,0C444.794,0,445.224,0,445.653,0C446.082,0,446.512,0,446.941,0C447.37,0,447.8,0,448.229,0C448.658,0,449.088,0,449.517,0C449.946,0,450.376,0,450.805,0C451.234,0,451.664,0,452.093,0C452.522,0,452.952,0,453.381,0C453.81,0,454.24,0,454.669,0C455.098,0,455.528,0,455.957,0C456.386,0,456.816,0,457.245,0C457.674,0,458.104,0,458.533,0C458.962,0,459.392,0,459.821,0C460.25,0,460.68,0,461.109,0C461.538,0,461.968,0,462.397,0C462.826,0,463.256,0,463.685,0C464.114,0,464.544,0,464.973,0C465.403,0,465.832,0,466.261,0C466.691,0,467.12,0,467.549,0C467.979,0,468.408,0,468.837,0C469.267,0,469.696,0,470.125,0C470.555,0,470.984,0,471.413,0C471.843,0,472.272,0,472.701,0C473.131,0,473.56,0,473.989,0C474.419,0,474.848,0,475.277,0C475.707,0,476.136,0,476.565,0C476.995,0,477.424,0,477.853,0C478.283,0,478.712,0,479.141,0C479.571,0,480,0,480.429,0C480.859,0,481.288,0,481.717,0C482.147,0,482.576,0,483.005,0C483.435,0,483.864,0,484.293,0C484.723,0,485.152,0,485.581,0C486.011,0,486.44,0,486.869,0C487.299,0,487.728,0,488.157,0C488.587,0,489.016,0,489.445,0C489.875,0,490.304,0,490.733,0C491.163,0,491.592,0,492.021,0C492.451,0,492.88,0,493.309,0C493.739,0,494.168,0,494.597,0C495.027,0,495.456,0,495.886,0C496.315,0,496.744,0,497.174,0C497.603,0,498.032,0,498.462,0C498.891,0,499.32,0,499.75,0C500.179,0,500.608,0,501.038,0C501.467,0,501.896,0,502.326,0C502.755,0,503.184,0,503.614,0C504.043,0,504.472,0,504.902,0C505.331,0,505.76,0,506.19,0C506.619,0,507.048,0,507.478,0C507.907,0,508.336,0,508.766,0C509.195,0,509.624,0,510.054,0C510.483,0,510.912,0,511.342,0C511.771,0,512.2,0,512.63,0C513.059,0,513.488,0,513.918,0C514.347,0,514.776,0,515.206,0C515.635,0,516.064,0,516.494,0C516.923,0,517.352,0,517.782,0C518.211,0,518.64,0,519.07,0C519.499,0,519.928,0,520.358,0C520.787,0,521.216,0,521.646,0C522.075,0,522.504,0,522.934,0C523.363,0,523.792,0,524.222,0C524.651,0,525.081,0,525.51,0C525.939,0,526.369,0,526.798,0C527.227,0,527.657,0,528.086,0C528.515,0,528.945,0,529.374,0C529.803,0,530.233,0,530.662,0C531.091,0,531.521,0,531.95,0C532.379,0,532.809,0,533.238,0C533.667,0,534.097,0,534.526,0C534.955,0,535.385,0,535.814,0C536.243,0,536.673,0,537.102,0C537.531,0,537.961,0,538.39,0C538.819,0,539.249,0,539.678,0C540.107,0,540.537,0,540.966,0C541.395,0,541.825,0,542.254,0C542.683,0,543.113,0,543.542,0C543.971,0,544.401,0,544.83,0C545.259,0,545.689,0,546.118,0C546.547,0,546.977,0,547.406,0C547.835,0,548.265,0,548.694,0C549.123,0,549.553,0,549.982,0C550.411,0,550.841,0,551.27,0C551.699,0,552.129,0,552.558,0C552.987,0,553.417,0,553.846,0C554.275,0,554.705,0,555.134,0C555.564,0,555.993,0,556.422,0C556.852,0,557.281,0,557.71,0C558.14,0,558.569,0,558.998,0C559.428,0,559.857,0,560.286,0C560.716,0,561.145,0,561.574,0C562.004,0,562.433,0,562.862,0C563.292,0,563.721,0,564.15,0C564.58,0,565.009,0,565.438,0C565.868,0,566.297,0,566.726,0C567.156,0,567.585,0,568.014,0C568.444,0,568.873,0,569.302,0C569.732,0,570.161,0,570.59,0C571.02,0,571.449,0,571.878,0C572.308,0,572.737,0,573.166,0C573.596,0,574.025,0,574.454,0C574.884,0,575.313,0,575.742,0C576.172,0,576.601,0,577.03,0C577.46,0,577.889,0,578.318,0C578.748,0,579.177,0,579.606,0C580.036,0,580.465,0,580.894,0C581.324,0,581.753,0,582.182,0C582.612,0,583.041,0,583.47,0C583.9,0,584.329,0,584.758,0C585.188,0,585.617,0,586.047,0C586.476,0,586.905,0,587.335,0C587.764,0,588.193,0,588.623,0C589.052,0,589.481,0,589.911,0C590.34,0,590.769,0,591.199,0C591.628,0,592.057,0,592.487,0C592.916,0,593.345,0,593.775,0C594.204,0,594.633,0,595.063,0C595.492,0,595.921,0,596.351,0C596.78,0,597.209,0,597.639,0C598.068,0,598.497,0,598.927,0C599.356,0,599.785,0,600.215,0C600.644,0,601.073,0,601.503,0C601.932,0,602.361,0,602.791,0C603.22,0,603.649,0,604.079,0C604.508,0,604.937,0,605.367,0C605.796,0,606.225,0,606.655,0C607.084,0,607.513,0,607.943,0C608.372,0,608.801,0,609.231,0C609.66,0,610.089,0,610.519,0C610.948,0,611.377,0,611.807,0C612.236,0,612.665,0,613.095,0C613.524,0,613.953,0,614.383,0C614.812,0,615.242,0,615.671,0C616.1,0,616.53,0,616.959,0C617.388,0,617.818,0,618.247,0C618.676,0,619.106,0,619.535,0C619.964,0,620.394,0,620.823,0C621.252,0,621.682,0,622.111,0C622.54,0,622.97,0,623.399,0C623.828,0,624.258,0,624.687,0C625.116,0,625.546,0,625.975,0C626.404,0,626.834,0,627.263,0C627.692,0,628.122,0,628.551,0C628.98,0,629.41,0,629.839,0C630.268,0,630.698,0,631.127,0C631.556,0,631.986,0,632.415,0C632.844,0,633.274,0,633.703,0C634.132,0,634.562,0,634.991,0C635.42,0,635.85,0,636.279,0C636.708,0,637.138,0,637.567,0C637.996,0,638.426,0,638.855,0C639.284,0,639.714,0,640.143,0C640.572,0,641.002,0,641.431,0C641.86,0,642.29,0,642.719,0C643.148,0,643.578,0,644.007,0C644.436,0,644.866,0,645.295,0C645.725,0,646.154,0,646.583,0C647.013,0,647.442,0,647.871,0C648.301,0,648.73,0,649.159,0C649.589,0,650.018,0,650.447,0C650.877,0,651.306,0,651.735,0C652.165,0,652.594,0,653.023,0C653.453,0,653.882,0,654.311,0C654.741,0,655.17,0,655.599,0C656.029,0,656.458,0,656.887,0C657.317,0,657.746,0,658.175,0C658.605,0,659.034,0,659.463,0C659.893,0,660.322,0,660.751,0C661.181,0,661.61,0,662.039,0C662.469,0,662.898,0,663.327,0C663.757,0,664.186,0,664.615,0C665.045,0,665.474,0,665.903,0C666.333,0,666.762,0,667.191,0C667.621,0,668.05,0,668.479,0C668.909,0,669.338,0,669.767,0C670.197,0,670.626,0,671.055,0C671.485,0,671.914,0,672.343,0C672.773,0,673.202,0,673.631,0C674.061,0,674.49,0,674.919,0C675.349,0,675.778,0,676.208,0C676.637,0,677.066,0,677.496,0C677.925,0,678.354,0,678.784,0C679.213,0,679.642,0,680.072,0C680.501,0,680.93,0,681.36,0C681.789,0,682.218,0,682.648,0C683.077,0,683.506,0,683.936,0C684.365,0,684.794,0,685.224,0C685.653,0,686.082,0,686.512,0C686.941,0,687.37,0,687.8,0C688.229,0,688.658,0,689.088,0C689.517,0,689.946,0,690.376,0C690.805,0,691.234,0,691.664,0C692.093,0,692.522,0,692.952,0C693.381,0,693.81,0,694.24,0C694.669,0,695.098,0,695.528,0C695.957,0,696.386,0,696.816,0C697.245,0,697.674,0,698.104,0C698.533,0,698.962,0,699.392,0C699.821,0,700.25,0,700.68,0C701.109,0,701.538,0,701.968,0C702.397,0,702.826,0,703.256,0C703.685,0,704.114,0,704.544,0C704.973,0,705.403,0,705.832,0C706.261,0,706.691,0,707.12,0C707.549,0,707.979,0,708.408,0C708.837,0,709.267,0,709.696,0C710.125,0,710.555,0,710.984,0C711.413,0,711.843,0,712.272,0C712.701,0,713.131,0,713.56,0C713.989,0,714.419,0,714.848,0C715.277,0,715.707,0,716.136,0C716.565,0,716.995,0,717.424,0C717.853,0,718.283,0,718.712,0C719.141,0,719.571,0,720,0"></path><circle class="dot" cx="0" cy="340" r="3" fill="#2563eb"></circle><circle class="dot" cx="1.2880143112701252" cy="340" r="3" fill="#2563eb"></circle><circle class="dot" cx="2.5760286225402504" cy="340" r="3" fill="#2563eb"></circle><circle class="dot" cx="3.8640429338103752" cy="340" r="3" fill="#2563eb"></circle><circle class="dot" cx="5.152057245080501" cy="340" r="3" fill="#2563eb"></circle><circle class="dot" cx="6.440071556350626" cy="340" r="3" fill="#2563eb"></circle><circle class="dot" cx="7.7280858676207504" cy="340" r="3" fill="#2563eb"></circle><circle class="dot" cx="9.016100178890877" cy="340" r="3" fill="#2563eb"></circle><circle class="dot" cx="10.304114490161002" cy="340" r="3" fill="#2563eb"></circle><circle class="dot" cx="11.592128801431128" cy="340" r="3" fill="#2563eb"></circle><circle class="dot" cx="12.880143112701251" cy="340" r="3" fill="#2563eb"></circle><circle class="dot" cx="14.168157423971378" cy="340" r="3" fill="#2563eb"></circle><circle class="dot" cx="15.456171735241501" cy="340" r="3" fill="#2563eb"></circle><circle class="dot" cx="16.74418604651163" cy="340" r="3" fill="#2563eb"></circle><circle class="dot" cx="18.032200357781754" cy="340" r="3" fill="#2563eb"></circle><circle class="dot" cx="19.32021466905188" cy="340" r="3" fill="#2563eb"></circle><circle class="dot" cx="20.608228980322004" cy="340" r="3" fill="#2563eb"></circle><circle class="dot" cx="21.89624329159213" cy="340" r="3" fill="#2563eb"></circle><circle class="dot" cx="23.184257602862257" cy="340" r="3" fill="#2563eb"></circle><circle class="dot" cx="24.472271914132378" cy="340" r="3" fill="#2563eb"></circle><circle class="dot" cx="25.760286225402503" cy="340" r="3" fill="#2563eb"></circle><circle class="dot" cx="27.04830053667263" cy="340" r="3" fill="#2563eb"></circle><circle class="dot" cx="28.336314847942756" cy="340" r="3" fill="#2563eb"></circle><circle class="dot" cx="29.62432915921288" cy="340" r="3" fill="#2563eb"></circle><circle class="dot" cx="30.912343470483002" cy="340" r="3" fill="#2563eb"></circle><circle class="dot" cx="32.200357781753134" cy="340" r="3" fill="#2563eb"></circle><circle class="dot" cx="33.48837209302326" cy="340" r="3" fill="#2563eb"></circle><circle class="dot" cx="34.776386404293376" cy="340" r="3" fill="#2563eb"></circle><circle class="dot" cx="36.06440071556351" cy="340" r="3" fill="#2563eb"></circle><circle class="dot" cx="37.35241502683363" cy="340" r="3" fill="#2563eb"></circle><circle class="dot" cx="38.64042933810376" cy="340" r="3" fill="#2563eb"></circle><circle class="dot" cx="39.92844364937388" cy="340" r="3" fill="#2563eb"></circle><circle class="dot" cx="41.21645796064401" cy="340" r="3" fill="#2563eb"></circle><circle class="dot" cx="42.50447227191413" cy="340" r="3" fill="#2563eb"></circle><circle class="dot" cx="43.79248658318426" cy="340" r="3" fill="#2563eb"></circle><circle class="dot" cx="45.08050089445438" cy="340" r="3" fill="#2563eb"></circle><circle class="dot" cx="46.36851520572451" cy="340" r="3" fill="#2563eb"></circle><circle class="dot" cx="47.65652951699464" cy="340" r="3" fill="#2563eb"></circle><circle class="dot" cx="48.944543828264756" cy="340" r="3" fill="#2563eb"></circle><circle class="dot" cx="50.23255813953488" cy="340" r="3" fill="#2563eb"></circle><circle class="dot" cx="51.520572450805005" cy="340" r="3" fill="#2563eb"></circle><circle class="dot" cx="52.80858676207513" cy="340" r="3" fill="#2563eb"></circle><circle class="dot" cx="54.09660107334526" cy="340" r="3" fill="#2563eb"></circle><circle class="dot" cx="55.38461538461539" cy="340" r="3" fill="#2563eb"></circle><circle class="dot" cx="56.67262969588551" cy="340" r="3" fill="#2563eb"></circle><circle class="dot" cx="57.960644007155636" cy="340" r="3" fill="#2563eb"></circle><circle class="dot" cx="59.24865831842576" cy="340" r="3" fill="#2563eb"></circle><circle class="dot" cx="60.536672629695886" cy="340" r="3" fill="#2563eb"></circle><circle class="dot" cx="61.824686940966004" cy="340" r="3" fill="#2563eb"></circle><circle class="dot" cx="63.11270125223614" cy="340" r="3" fill="#2563eb"></circle><circle class="dot" cx="64.40071556350627" cy="340" r="3" fill="#2563eb"></circle><circle class="dot" cx="65.68872987477639" cy="340" r="3" fill="#2563eb"></circle><circle class="dot" cx="66.97674418604652" cy="340" r="3" fill="#2563eb"></circle><circle class="dot" cx="68.26475849731663" cy="340" r="3" fill="#2563eb"></circle><circle class="dot" cx="69.55277280858675" cy="340" r="3" fill="#2563eb"></circle><circle class="dot" cx="70.8407871198569" cy="340" r="3" fill="#2563eb"></circle><circle class="dot" cx="72.12880143112702" cy="340" r="3" fill="#2563eb"></circle><circle class="dot" cx="73.41681574239713" cy="340" r="3" fill="#2563eb"></circle><circle class="dot" cx="74.70483005366727" cy="340" r="3" fill="#2563eb"></circle><circle class="dot" cx="75.99284436493738" cy="340" r="3" fill="#2563eb"></circle><circle class="dot" cx="77.28085867620752" cy="340" r="3" fill="#2563eb"></circle><circle class="dot" cx="78.56887298747763" cy="340" r="3" fill="#2563eb"></circle><circle class="dot" cx="79.85688729874776" cy="340" r="3" fill="#2563eb"></circle><circle class="dot" cx="81.1449016100179" cy="340" r="3" fill="#2563eb"></circle><circle class="dot" cx="82.43291592128801" cy="340" r="3" fill="#2563eb"></circle><circle class="dot" cx="83.72093023255813" cy="340" r="3" fill="#2563eb"></circle><circle class="dot" cx="85.00894454382826" cy="340" r="3" fill="#2563eb"></circle><circle class="dot" cx="86.29695885509838" cy="340" r="3" fill="#2563eb"></circle><circle class="dot" cx="87.58497316636851" cy="340" r="3" fill="#2563eb"></circle><circle class="dot" cx="88.87298747763865" cy="340" r="3" fill="#2563eb"></circle><circle class="dot" cx="90.16100178890876" cy="340" r="3" fill="#2563eb"></circle><circle class="dot" cx="91.4490161001789" cy="340" r="3" fill="#2563eb"></circle><circle class="dot" cx="92.73703041144903" cy="340" r="3" fill="#2563eb"></circle><circle class="dot" cx="94.02504472271914" cy="340" r="3" fill="#2563eb"></circle><circle class="dot" cx="95.31305903398928" cy="340" r="3" fill="#2563eb"></circle><circle class="dot" cx="96.60107334525938" cy="340" r="3" fill="#2563eb"></circle><circle class="dot" cx="97.88908765652951" cy="340" r="3" fill="#2563eb"></circle><circle class="dot" cx="99.17710196779963" cy="340" r="3" fill="#2563eb"></circle><circle class="dot" cx="100.46511627906976" cy="340" r="3" fill="#2563eb"></circle><circle class="dot" cx="101.7531305903399" cy="340" r="3" fill="#2563eb"></circle><circle class="dot" cx="103.04114490161001" cy="340" r="3" fill="#2563eb"></circle><circle class="dot" cx="104.32915921288014" cy="340" r="3" fill="#2563eb"></circle><circle class="dot" cx="105.61717352415026" cy="340" r="3" fill="#2563eb"></circle><circle class="dot" cx="106.90518783542039" cy="340" r="3" fill="#2563eb"></circle><circle class="dot" cx="108.19320214669052" cy="340" r="3" fill="#2563eb"></circle><circle class="dot" cx="109.48121645796064" cy="340" r="3" fill="#2563eb"></circle><circle class="dot" cx="110.76923076923077" cy="340" r="3" fill="#2563eb"></circle><circle class="dot" cx="112.05724508050089" cy="340" r="3" fill="#2563eb"></circle><circle class="dot" cx="113.34525939177102" cy="340" r="3" fill="#2563eb"></circle><circle class="dot" cx="114.63327370304114" cy="340" r="3" fill="#2563eb"></circle><circle class="dot" cx="115.92128801431127" cy="340" r="3" fill="#2563eb"></circle><circle class="dot" cx="117.2093023255814" cy="340" r="3" fill="#2563eb"></circle><circle class="dot" cx="118.49731663685152" cy="340" r="3" fill="#2563eb"></circle><circle class="dot" cx="119.78533094812165" cy="340" r="3" fill="#2563eb"></circle><circle class="dot" cx="121.07334525939177" cy="340" r="3" fill="#2563eb"></circle><circle class="dot" cx="122.3613595706619" cy="340" r="3" fill="#2563eb"></circle><circle class="dot" cx="123.64937388193201" cy="340" r="3" fill="#2563eb"></circle><circle class="dot" cx="124.93738819320214" cy="340" r="3" fill="#2563eb"></circle><circle class="dot" cx="126.22540250447229" cy="340" r="3" fill="#2563eb"></circle><circle class="dot" cx="127.51341681574239" cy="340" r="3" fill="#2563eb"></circle><circle class="dot" cx="128.80143112701253" cy="340" r="3" fill="#2563eb"></circle><circle class="dot" cx="130.08944543828264" cy="340" r="3" fill="#2563eb"></circle><circle class="dot" cx="131.37745974955277" cy="340" r="3" fill="#2563eb"></circle><circle class="dot" cx="132.6654740608229" cy="340" r="3" fill="#2563eb"></circle><circle class="dot" cx="133.95348837209303" cy="340" r="3" fill="#2563eb"></circle><circle class="dot" cx="135.24150268336317" cy="340" r="3" fill="#2563eb"></circle><circle class="dot" cx="136.52951699463327" cy="340" r="3" fill="#2563eb"></circle><circle class="dot" cx="137.8175313059034" cy="340" r="3" fill="#2563eb"></circle><circle class="dot" cx="139.1055456171735" cy="340" r="3" fill="#2563eb"></circle><circle class="dot" cx="140.39355992844364" cy="340" r="3" fill="#2563eb"></circle><circle class="dot" cx="141.6815742397138" cy="340" r="3" fill="#2563eb"></circle><circle class="dot" cx="142.9695885509839" cy="340" r="3" fill="#2563eb"></circle><circle class="dot" cx="144.25760286225403" cy="340" r="3" fill="#2563eb"></circle><circle class="dot" cx="145.54561717352414" cy="340" r="3" fill="#2563eb"></circle><circle class="dot" cx="146.83363148479427" cy="340" r="3" fill="#2563eb"></circle><circle class="dot" cx="148.1216457960644" cy="340" r="3" fill="#2563eb"></circle><circle class="dot" cx="149.40966010733453" cy="340" r="3" fill="#2563eb"></circle><circle class="dot" cx="150.69767441860466" cy="340" r="3" fill="#2563eb"></circle><circle class="dot" cx="151.98568872987477" cy="340" r="3" fill="#2563eb"></circle><circle class="dot" cx="153.2737030411449" cy="340" r="3" fill="#2563eb"></circle><circle class="dot" cx="154.56171735241503" cy="340" r="3" fill="#2563eb"></circle><circle class="dot" cx="155.84973166368516" cy="340" r="3" fill="#2563eb"></circle><circle class="dot" cx="157.13774597495527" cy="340" r="3" fill="#2563eb"></circle><circle class="dot" cx="158.4257602862254" cy="340" r="3" fill="#2563eb"></circle><circle class="dot" cx="159.71377459749553" cy="340" r="3" fill="#2563eb"></circle><circle class="dot" cx="161.00178890876566" cy="340" r="3" fill="#2563eb"></circle><circle class="dot" cx="162.2898032200358" cy="340" r="3" fill="#2563eb"></circle><circle class="dot" cx="163.5778175313059" cy="340" r="3" fill="#2563eb"></circle><circle class="dot" cx="164.86583184257603" cy="340" r="3" fill="#2563eb"></circle><circle class="dot" cx="166.15384615384616" cy="340" r="3" fill="#2563eb"></circle><circle class="dot" cx="167.44186046511626" cy="340" r="3" fill="#2563eb"></circle><circle class="dot" cx="168.72987477638642" cy="340" r="3" fill="#2563eb"></circle><circle class="dot" cx="170.01788908765653" cy="340" r="3" fill="#2563eb"></circle><circle class="dot" cx="171.30590339892666" cy="340" r="3" fill="#2563eb"></circle><circle class="dot" cx="172.59391771019676" cy="340" r="3" fill="#2563eb"></circle><circle class="dot" cx="173.8819320214669" cy="340" r="3" fill="#2563eb"></circle><circle class="dot" cx="175.16994633273703" cy="340" r="3" fill="#2563eb"></circle><circle class="dot" cx="176.45796064400716" cy="340" r="3" fill="#2563eb"></circle><circle class="dot" cx="177.7459749552773" cy="340" r="3" fill="#2563eb"></circle><circle class="dot" cx="179.0339892665474" cy="340" r="3" fill="#2563eb"></circle><circle class="dot" cx="180.32200357781753" cy="340" r="3" fill="#2563eb"></circle><circle class="dot" cx="181.61001788908766" cy="340" r="3" fill="#2563eb"></circle><circle class="dot" cx="182.8980322003578" cy="340" r="3" fill="#2563eb"></circle><circle class="dot" cx="184.18604651162792" cy="340" r="3" fill="#2563eb"></circle><circle class="dot" cx="185.47406082289805" cy="340" r="3" fill="#2563eb"></circle><circle class="dot" cx="186.76207513416813" cy="340" r="3" fill="#2563eb"></circle><circle class="dot" cx="188.0500894454383" cy="340" r="3" fill="#2563eb"></circle><circle class="dot" cx="189.33810375670842" cy="340" r="3" fill="#2563eb"></circle><circle class="dot" cx="190.62611806797855" cy="340" r="3" fill="#2563eb"></circle><circle class="dot" cx="191.91413237924868" cy="340" r="3" fill="#2563eb"></circle><circle class="dot" cx="193.20214669051876" cy="340" r="3" fill="#2563eb"></circle><circle class="dot" cx="194.4901610017889" cy="340" r="3" fill="#2563eb"></circle><circle class="dot" cx="195.77817531305902" cy="340" r="3" fill="#2563eb"></circle><circle class="dot" cx="197.06618962432918" cy="340" r="3" fill="#2563eb"></circle><circle class="dot" cx="198.35420393559926" cy="340" r="3" fill="#2563eb"></circle><circle class="dot" cx="199.6422182468694" cy="340" r="3" fill="#2563eb"></circle><circle class="dot" cx="200.93023255813952" cy="340" r="3" fill="#2563eb"></circle><circle class="dot" cx="202.21824686940965" cy="340" r="3" fill="#2563eb"></circle><circle class="dot" cx="203.5062611806798" cy="340" r="3" fill="#2563eb"></circle><circle class="dot" cx="204.7942754919499" cy="340" r="3" fill="#2563eb"></circle><circle class="dot" cx="206.08228980322002" cy="340" r="3" fill="#2563eb"></circle><circle class="dot" cx="207.37030411449015" cy="340" r="3" fill="#2563eb"></circle><circle class="dot" cx="208.65831842576029" cy="340" r="3" fill="#2563eb"></circle><circle class="dot" cx="209.94633273703042" cy="340" r="3" fill="#2563eb"></circle><circle class="dot" cx="211.23434704830052" cy="340" r="3" fill="#2563eb"></circle><circle class="dot" cx="212.52236135957065" cy="340" r="3" fill="#2563eb"></circle><circle class="dot" cx="213.81037567084078" cy="340" r="3" fill="#2563eb"></circle><circle class="dot" cx="215.09838998211092" cy="340" r="3" fill="#2563eb"></circle><circle class="dot" cx="216.38640429338105" cy="340" r="3" fill="#2563eb"></circle><circle class="dot" cx="217.67441860465115" cy="340" r="3" fill="#2563eb"></circle><circle class="dot" cx="218.96243291592128" cy="340" r="3" fill="#2563eb"></circle><circle class="dot" cx="220.25044722719142" cy="340" r="3" fill="#2563eb"></circle><circle class="dot" cx="221.53846153846155" cy="340" r="3" fill="#2563eb"></circle><circle class="dot" cx="222.82647584973165" cy="340" r="3" fill="#2563eb"></circle><circle class="dot" cx="224.11449016100178" cy="340" r="3" fill="#2563eb"></circle><circle class="dot" cx="225.40250447227191" cy="340" r="3" fill="#2563eb"></circle><circle class="dot" cx="226.69051878354205" cy="340" r="3" fill="#2563eb"></circle><circle class="dot" cx="227.97853309481218" cy="340" r="3" fill="#2563eb"></circle><circle class="dot" cx="229.26654740608228" cy="340" r="3" fill="#2563eb"></circle><circle class="dot" cx="230.5545617173524" cy="340" r="3" fill="#2563eb"></circle><circle class="dot" cx="231.84257602862255" cy="340" r="3" fill="#2563eb"></circle><circle class="dot" cx="233.13059033989268" cy="340" r="3" fill="#2563eb"></circle><circle class="dot" cx="234.4186046511628" cy="340" r="3" fill="#2563eb"></circle><circle class="dot" cx="235.7066189624329" cy="340" r="3" fill="#2563eb"></circle><circle class="dot" cx="236.99463327370304" cy="340" r="3" fill="#2563eb"></circle><circle class="dot" cx="238.28264758497318" cy="340" r="3" fill="#2563eb"></circle><circle class="dot" cx="239.5706618962433" cy="340" r="3" fill="#2563eb"></circle><circle class="dot" cx="240.85867620751344" cy="340" r="3" fill="#2563eb"></circle><circle class="dot" cx="242.14669051878354" cy="340" r="3" fill="#2563eb"></circle><circle class="dot" cx="243.43470483005368" cy="340" r="3" fill="#2563eb"></circle><circle class="dot" cx="244.7227191413238" cy="340" r="3" fill="#2563eb"></circle><circle class="dot" cx="246.01073345259394" cy="340" r="3" fill="#2563eb"></circle><circle class="dot" cx="247.29874776386401" cy="340" r="3" fill="#2563eb"></circle><circle class="dot" cx="248.58676207513415" cy="340" r="3" fill="#2563eb"></circle><circle class="dot" cx="249.87477638640428" cy="340" r="3" fill="#2563eb"></circle><circle class="dot" cx="251.16279069767444" cy="340" r="3" fill="#2563eb"></circle><circle class="dot" cx="252.45080500894457" cy="340" r="3" fill="#2563eb"></circle><circle class="dot" cx="253.73881932021465" cy="340" r="3" fill="#2563eb"></circle><circle class="dot" cx="255.02683363148478" cy="340" r="3" fill="#2563eb"></circle><circle class="dot" cx="256.3148479427549" cy="340" r="3" fill="#2563eb"></circle><circle class="dot" cx="257.60286225402507" cy="340" r="3" fill="#2563eb"></circle><circle class="dot" cx="258.8908765652952" cy="340" r="3" fill="#2563eb"></circle><circle class="dot" cx="260.1788908765653" cy="340" r="3" fill="#2563eb"></circle><circle class="dot" cx="261.46690518783544" cy="340" r="3" fill="#2563eb"></circle><circle class="dot" cx="262.75491949910554" cy="340" r="3" fill="#2563eb"></circle><circle class="dot" cx="264.0429338103757" cy="340" r="3" fill="#2563eb"></circle><circle class="dot" cx="265.3309481216458" cy="340" r="3" fill="#2563eb"></circle><circle class="dot" cx="266.6189624329159" cy="340" r="3" fill="#2563eb"></circle><circle class="dot" cx="267.90697674418607" cy="340" r="3" fill="#2563eb"></circle><circle class="dot" cx="269.19499105545617" cy="340" r="3" fill="#2563eb"></circle><circle class="dot" cx="270.48300536672633" cy="340" r="3" fill="#2563eb"></circle><circle class="dot" cx="271.7710196779964" cy="340" r="3" fill="#2563eb"></circle><circle class="dot" cx="273.05903398926654" cy="340" r="3" fill="#2563eb"></circle><circle class="dot" cx="274.3470483005367" cy="340" r="3" fill="#2563eb"></circle><circle class="dot" cx="275.6350626118068" cy="340" r="3" fill="#2563eb"></circle><circle class="dot" cx="276.92307692307696" cy="340" r="3" fill="#2563eb"></circle><circle class="dot" cx="278.211091234347" cy="340" r="3" fill="#2563eb"></circle><circle class="dot" cx="279.49910554561717" cy="340" r="3" fill="#2563eb"></circle><circle class="dot" cx="280.7871198568873" cy="340" r="3" fill="#2563eb"></circle><circle class="dot" cx="282.07513416815743" cy="340" r="3" fill="#2563eb"></circle><circle class="dot" cx="283.3631484794276" cy="340" r="3" fill="#2563eb"></circle><circle class="dot" cx="284.65116279069764" cy="340" r="3" fill="#2563eb"></circle><circle class="dot" cx="285.9391771019678" cy="340" r="3" fill="#2563eb"></circle><circle class="dot" cx="287.2271914132379" cy="340" r="3" fill="#2563eb"></circle><circle class="dot" cx="288.51520572450806" cy="340" r="3" fill="#2563eb"></circle><circle class="dot" cx="289.80322003577817" cy="340" r="3" fill="#2563eb"></circle><circle class="dot" cx="291.09123434704827" cy="340" r="3" fill="#2563eb"></circle><circle class="dot" cx="292.37924865831843" cy="340" r="3" fill="#2563eb"></circle><circle class="dot" cx="293.66726296958853" cy="340" r="3" fill="#2563eb"></circle><circle class="dot" cx="294.9552772808587" cy="340" r="3" fill="#2563eb"></circle><circle class="dot" cx="296.2432915921288" cy="340" r="3" fill="#2563eb"></circle><circle class="dot" cx="297.5313059033989" cy="340" r="3" fill="#2563eb"></circle><circle class="dot" cx="298.81932021466906" cy="340" r="3" fill="#2563eb"></circle><circle class="dot" cx="300.10733452593917" cy="340" r="3" fill="#2563eb"></circle><circle class="dot" cx="301.3953488372093" cy="340" r="3" fill="#2563eb"></circle><circle class="dot" cx="302.68336314847943" cy="340" r="3" fill="#2563eb"></circle><circle class="dot" cx="303.97137745974953" cy="340" r="3" fill="#2563eb"></circle><circle class="dot" cx="305.2593917710197" cy="340" r="3" fill="#2563eb"></circle><circle class="dot" cx="306.5474060822898" cy="340" r="3" fill="#2563eb"></circle><circle class="dot" cx="307.83542039355996" cy="340" r="3" fill="#2563eb"></circle><circle class="dot" cx="309.12343470483006" cy="340" r="3" fill="#2563eb"></circle><circle class="dot" cx="310.41144901610016" cy="340" r="3" fill="#2563eb"></circle><circle class="dot" cx="311.6994633273703" cy="340" r="3" fill="#2563eb"></circle><circle class="dot" cx="312.9874776386404" cy="340" r="3" fill="#2563eb"></circle><circle class="dot" cx="314.27549194991053" cy="340" r="3" fill="#2563eb"></circle><circle class="dot" cx="315.5635062611807" cy="340" r="3" fill="#2563eb"></circle><circle class="dot" cx="316.8515205724508" cy="340" r="3" fill="#2563eb"></circle><circle class="dot" cx="318.13953488372096" cy="340" r="3" fill="#2563eb"></circle><circle class="dot" cx="319.42754919499106" cy="340" r="3" fill="#2563eb"></circle><circle class="dot" cx="320.71556350626116" cy="340" r="3" fill="#2563eb"></circle><circle class="dot" cx="322.0035778175313" cy="340" r="3" fill="#2563eb"></circle><circle class="dot" cx="323.2915921288014" cy="340" r="3" fill="#2563eb"></circle><circle class="dot" cx="324.5796064400716" cy="340" r="3" fill="#2563eb"></circle><circle class="dot" cx="325.8676207513417" cy="340" r="3" fill="#2563eb"></circle><circle class="dot" cx="327.1556350626118" cy="340" r="3" fill="#2563eb"></circle><circle class="dot" cx="328.44364937388195" cy="340" r="3" fill="#2563eb"></circle><circle class="dot" cx="329.73166368515206" cy="340" r="3" fill="#2563eb"></circle><circle class="dot" cx="331.0196779964222" cy="340" r="3" fill="#2563eb"></circle><circle class="dot" cx="332.3076923076923" cy="340" r="3" fill="#2563eb"></circle><circle class="dot" cx="333.5957066189624" cy="340" r="3" fill="#2563eb"></circle><circle class="dot" cx="334.8837209302325" cy="340" r="3" fill="#2563eb"></circle><circle class="dot" cx="336.1717352415027" cy="340" r="3" fill="#2563eb"></circle><circle class="dot" cx="337.45974955277285" cy="340" r="3" fill="#2563eb"></circle><circle class="dot" cx="338.7477638640429" cy="340" r="3" fill="#2563eb"></circle><circle class="dot" cx="340.03577817531306" cy="340" r="3" fill="#2563eb"></circle><circle class="dot" cx="341.32379248658316" cy="340" r="3" fill="#2563eb"></circle><circle class="dot" cx="342.6118067978533" cy="340" r="3" fill="#2563eb"></circle><circle class="dot" cx="343.8998211091234" cy="340" r="3" fill="#2563eb"></circle><circle class="dot" cx="345.1878354203935" cy="340" r="3" fill="#2563eb"></circle><circle class="dot" cx="346.4758497316637" cy="340" r="3" fill="#2563eb"></circle><circle class="dot" cx="347.7638640429338" cy="340" r="3" fill="#2563eb"></circle><circle class="dot" cx="349.05187835420395" cy="340" r="3" fill="#2563eb"></circle><circle class="dot" cx="350.33989266547405" cy="340" r="3" fill="#2563eb"></circle><circle class="dot" cx="351.62790697674416" cy="340" r="3" fill="#2563eb"></circle><circle class="dot" cx="352.9159212880143" cy="340" r="3" fill="#2563eb"></circle><circle class="dot" cx="354.2039355992844" cy="340" r="3" fill="#2563eb"></circle><circle class="dot" cx="355.4919499105546" cy="340" r="3" fill="#2563eb"></circle><circle class="dot" cx="356.7799642218247" cy="340" r="3" fill="#2563eb"></circle><circle class="dot" cx="358.0679785330948" cy="340" r="3" fill="#2563eb"></circle><circle class="dot" cx="359.35599284436495" cy="340" r="3" fill="#2563eb"></circle><circle class="dot" cx="360.64400715563505" cy="340" r="3" fill="#2563eb"></circle><circle class="dot" cx="361.93202146690516" cy="340" r="3" fill="#2563eb"></circle><circle class="dot" cx="363.2200357781753" cy="340" r="3" fill="#2563eb"></circle><circle class="dot" cx="364.5080500894454" cy="340" r="3" fill="#2563eb"></circle><circle class="dot" cx="365.7960644007156" cy="340" r="3" fill="#2563eb"></circle><circle class="dot" cx="367.0840787119857" cy="340" r="3" fill="#2563eb"></circle><circle class="dot" cx="368.37209302325584" cy="340" r="3" fill="#2563eb"></circle><circle class="dot" cx="369.66010733452595" cy="340" r="3" fill="#2563eb"></circle><circle class="dot" cx="370.9481216457961" cy="340" r="3" fill="#2563eb"></circle><circle class="dot" cx="372.23613595706615" cy="340" r="3" fill="#2563eb"></circle><circle class="dot" cx="373.52415026833626" cy="340" r="3" fill="#2563eb"></circle><circle class="dot" cx="374.8121645796064" cy="340" r="3" fill="#2563eb"></circle><circle class="dot" cx="376.1001788908766" cy="340" r="3" fill="#2563eb"></circle><circle class="dot" cx="377.3881932021467" cy="340" r="3" fill="#2563eb"></circle><circle class="dot" cx="378.67620751341684" cy="340" r="3" fill="#2563eb"></circle><circle class="dot" cx="379.96422182468694" cy="340" r="3" fill="#2563eb"></circle><circle class="dot" cx="381.2522361359571" cy="340" r="3" fill="#2563eb"></circle><circle class="dot" cx="382.5402504472272" cy="340" r="3" fill="#2563eb"></circle><circle class="dot" cx="383.82826475849737" cy="340" r="3" fill="#2563eb"></circle><circle class="dot" cx="385.1162790697674" cy="340" r="3" fill="#2563eb"></circle><circle class="dot" cx="386.4042933810375" cy="340" r="3" fill="#2563eb"></circle><circle class="dot" cx="387.6923076923077" cy="340" r="3" fill="#2563eb"></circle><circle class="dot" cx="388.9803220035778" cy="340" r="3" fill="#2563eb"></circle><circle class="dot" cx="390.26833631484794" cy="340" r="3" fill="#2563eb"></circle><circle class="dot" cx="391.55635062611805" cy="340" r="3" fill="#2563eb"></circle><circle class="dot" cx="392.8443649373882" cy="340" r="3" fill="#2563eb"></circle><circle class="dot" cx="394.13237924865837" cy="340" r="3" fill="#2563eb"></circle><circle class="dot" cx="395.42039355992847" cy="340" r="3" fill="#2563eb"></circle><circle class="dot" cx="396.7084078711985" cy="340" r="3" fill="#2563eb"></circle><circle class="dot" cx="397.9964221824687" cy="340" r="3" fill="#2563eb"></circle><circle class="dot" cx="399.2844364937388" cy="340" r="3" fill="#2563eb"></circle><circle class="dot" cx="400.57245080500894" cy="340" r="3" fill="#2563eb"></circle><circle class="dot" cx="401.86046511627904" cy="340" r="3" fill="#2563eb"></circle><circle class="dot" cx="403.1484794275492" cy="340" r="3" fill="#2563eb"></circle><circle class="dot" cx="404.4364937388193" cy="340" r="3" fill="#2563eb"></circle><circle class="dot" cx="405.72450805008947" cy="340" r="3" fill="#2563eb"></circle><circle class="dot" cx="407.0125223613596" cy="340" r="3" fill="#2563eb"></circle><circle class="dot" cx="408.30053667262973" cy="340" r="3" fill="#2563eb"></circle><circle class="dot" cx="409.5885509838998" cy="340" r="3" fill="#2563eb"></circle><circle class="dot" cx="410.87656529516994" cy="340" r="3" fill="#2563eb"></circle><circle class="dot" cx="412.16457960644004" cy="340" r="3" fill="#2563eb"></circle><circle class="dot" cx="413.4525939177102" cy="340" r="3" fill="#2563eb"></circle><circle class="dot" cx="414.7406082289803" cy="340" r="3" fill="#2563eb"></circle><circle class="dot" cx="416.02862254025047" cy="340" r="3" fill="#2563eb"></circle><circle class="dot" cx="417.31663685152057" cy="340" r="3" fill="#2563eb"></circle><circle class="dot" cx="418.60465116279073" cy="340" r="3" fill="#2563eb"></circle><circle class="dot" cx="419.89266547406083" cy="340" r="3" fill="#2563eb"></circle><circle class="dot" cx="421.1806797853309" cy="340" r="3" fill="#2563eb"></circle><circle class="dot" cx="422.46869409660104" cy="340" r="3" fill="#2563eb"></circle><circle class="dot" cx="423.7567084078712" cy="340" r="3" fill="#2563eb"></circle><circle class="dot" cx="425.0447227191413" cy="340" r="3" fill="#2563eb"></circle><circle class="dot" cx="426.33273703041147" cy="340" r="3" fill="#2563eb"></circle><circle class="dot" cx="427.62075134168157" cy="340" r="3" fill="#2563eb"></circle><circle class="dot" cx="428.90876565295173" cy="340" r="3" fill="#2563eb"></circle><circle class="dot" cx="430.19677996422183" cy="340" r="3" fill="#2563eb"></circle><circle class="dot" cx="431.484794275492" cy="340" r="3" fill="#2563eb"></circle><circle class="dot" cx="432.7728085867621" cy="340" r="3" fill="#2563eb"></circle><circle class="dot" cx="434.06082289803214" cy="340" r="3" fill="#2563eb"></circle><circle class="dot" cx="435.3488372093023" cy="0" r="3" fill="#2563eb"></circle><circle class="dot" cx="436.6368515205724" cy="0" r="3" fill="#2563eb"></circle><circle class="dot" cx="437.92486583184257" cy="0" r="3" fill="#2563eb"></circle><circle class="dot" cx="439.2128801431127" cy="0" r="3" fill="#2563eb"></circle><circle class="dot" cx="440.50089445438283" cy="0" r="3" fill="#2563eb"></circle><circle class="dot" cx="441.788908765653" cy="0" r="3" fill="#2563eb"></circle><circle class="dot" cx="443.0769230769231" cy="0" r="3" fill="#2563eb"></circle><circle class="dot" cx="444.36493738819325" cy="0" r="3" fill="#2563eb"></circle><circle class="dot" cx="445.6529516994633" cy="0" r="3" fill="#2563eb"></circle><circle class="dot" cx="446.9409660107334" cy="0" r="3" fill="#2563eb"></circle><circle class="dot" cx="448.22898032200357" cy="0" r="3" fill="#2563eb"></circle><circle class="dot" cx="449.51699463327367" cy="0" r="3" fill="#2563eb"></circle><circle class="dot" cx="450.80500894454383" cy="0" r="3" fill="#2563eb"></circle><circle class="dot" cx="452.09302325581393" cy="0" r="3" fill="#2563eb"></circle><circle class="dot" cx="453.3810375670841" cy="0" r="3" fill="#2563eb"></circle><circle class="dot" cx="454.66905187835425" cy="0" r="3" fill="#2563eb"></circle><circle class="dot" cx="455.95706618962436" cy="0" r="3" fill="#2563eb"></circle><circle class="dot" cx="457.2450805008945" cy="0" r="3" fill="#2563eb"></circle><circle class="dot" cx="458.53309481216456" cy="0" r="3" fill="#2563eb"></circle><circle class="dot" cx="459.82110912343467" cy="0" r="3" fill="#2563eb"></circle><circle class="dot" cx="461.1091234347048" cy="0" r="3" fill="#2563eb"></circle><circle class="dot" cx="462.39713774597493" cy="0" r="3" fill="#2563eb"></circle><circle class="dot" cx="463.6851520572451" cy="0" r="3" fill="#2563eb"></circle><circle class="dot" cx="464.9731663685152" cy="0" r="3" fill="#2563eb"></circle><circle class="dot" cx="466.26118067978535" cy="0" r="3" fill="#2563eb"></circle><circle class="dot" cx="467.54919499105546" cy="0" r="3" fill="#2563eb"></circle><circle class="dot" cx="468.8372093023256" cy="0" r="3" fill="#2563eb"></circle><circle class="dot" cx="470.12522361359567" cy="0" r="3" fill="#2563eb"></circle><circle class="dot" cx="471.4132379248658" cy="0" r="3" fill="#2563eb"></circle><circle class="dot" cx="472.70125223613593" cy="0" r="3" fill="#2563eb"></circle><circle class="dot" cx="473.9892665474061" cy="0" r="3" fill="#2563eb"></circle><circle class="dot" cx="475.2772808586762" cy="0" r="3" fill="#2563eb"></circle><circle class="dot" cx="476.56529516994635" cy="0" r="3" fill="#2563eb"></circle><circle class="dot" cx="477.85330948121646" cy="0" r="3" fill="#2563eb"></circle><circle class="dot" cx="479.1413237924866" cy="0" r="3" fill="#2563eb"></circle><circle class="dot" cx="480.4293381037567" cy="0" r="3" fill="#2563eb"></circle><circle class="dot" cx="481.7173524150269" cy="0" r="3" fill="#2563eb"></circle><circle class="dot" cx="483.0053667262969" cy="0" r="3" fill="#2563eb"></circle><circle class="dot" cx="484.2933810375671" cy="0" r="3" fill="#2563eb"></circle><circle class="dot" cx="485.5813953488372" cy="0" r="3" fill="#2563eb"></circle><circle class="dot" cx="486.86940966010735" cy="0" r="3" fill="#2563eb"></circle><circle class="dot" cx="488.15742397137745" cy="0" r="3" fill="#2563eb"></circle><circle class="dot" cx="489.4454382826476" cy="0" r="3" fill="#2563eb"></circle><circle class="dot" cx="490.7334525939177" cy="0" r="3" fill="#2563eb"></circle><circle class="dot" cx="492.0214669051879" cy="0" r="3" fill="#2563eb"></circle><circle class="dot" cx="493.309481216458" cy="0" r="3" fill="#2563eb"></circle><circle class="dot" cx="494.59749552772803" cy="0" r="3" fill="#2563eb"></circle><circle class="dot" cx="495.8855098389982" cy="0" r="3" fill="#2563eb"></circle><circle class="dot" cx="497.1735241502683" cy="0" r="3" fill="#2563eb"></circle><circle class="dot" cx="498.46153846153845" cy="0" r="3" fill="#2563eb"></circle><circle class="dot" cx="499.74955277280856" cy="0" r="3" fill="#2563eb"></circle><circle class="dot" cx="501.0375670840787" cy="0" r="3" fill="#2563eb"></circle><circle class="dot" cx="502.3255813953489" cy="0" r="3" fill="#2563eb"></circle><circle class="dot" cx="503.613595706619" cy="0" r="3" fill="#2563eb"></circle><circle class="dot" cx="504.90161001788914" cy="0" r="3" fill="#2563eb"></circle><circle class="dot" cx="506.18962432915924" cy="0" r="3" fill="#2563eb"></circle><circle class="dot" cx="507.4776386404293" cy="0" r="3" fill="#2563eb"></circle><circle class="dot" cx="508.76565295169945" cy="0" r="3" fill="#2563eb"></circle><circle class="dot" cx="510.05366726296955" cy="0" r="3" fill="#2563eb"></circle><circle class="dot" cx="511.3416815742397" cy="0" r="3" fill="#2563eb"></circle><circle class="dot" cx="512.6296958855098" cy="0" r="3" fill="#2563eb"></circle><circle class="dot" cx="513.9177101967799" cy="0" r="3" fill="#2563eb"></circle><circle class="dot" cx="515.2057245080501" cy="0" r="3" fill="#2563eb"></circle><circle class="dot" cx="516.4937388193202" cy="0" r="3" fill="#2563eb"></circle><circle class="dot" cx="517.7817531305903" cy="0" r="3" fill="#2563eb"></circle><circle class="dot" cx="519.0697674418604" cy="0" r="3" fill="#2563eb"></circle><circle class="dot" cx="520.3577817531306" cy="0" r="3" fill="#2563eb"></circle><circle class="dot" cx="521.6457960644007" cy="0" r="3" fill="#2563eb"></circle><circle class="dot" cx="522.9338103756709" cy="0" r="3" fill="#2563eb"></circle><circle class="dot" cx="524.221824686941" cy="0" r="3" fill="#2563eb"></circle><circle class="dot" cx="525.5098389982111" cy="0" r="3" fill="#2563eb"></circle><circle class="dot" cx="526.7978533094812" cy="0" r="3" fill="#2563eb"></circle><circle class="dot" cx="528.0858676207514" cy="0" r="3" fill="#2563eb"></circle><circle class="dot" cx="529.3738819320215" cy="0" r="3" fill="#2563eb"></circle><circle class="dot" cx="530.6618962432916" cy="0" r="3" fill="#2563eb"></circle><circle class="dot" cx="531.9499105545617" cy="0" r="3" fill="#2563eb"></circle><circle class="dot" cx="533.2379248658318" cy="0" r="3" fill="#2563eb"></circle><circle class="dot" cx="534.5259391771019" cy="0" r="3" fill="#2563eb"></circle><circle class="dot" cx="535.8139534883721" cy="0" r="3" fill="#2563eb"></circle><circle class="dot" cx="537.1019677996422" cy="0" r="3" fill="#2563eb"></circle><circle class="dot" cx="538.3899821109123" cy="0" r="3" fill="#2563eb"></circle><circle class="dot" cx="539.6779964221824" cy="0" r="3" fill="#2563eb"></circle><circle class="dot" cx="540.9660107334527" cy="0" r="3" fill="#2563eb"></circle><circle class="dot" cx="542.2540250447228" cy="0" r="3" fill="#2563eb"></circle><circle class="dot" cx="543.5420393559928" cy="0" r="3" fill="#2563eb"></circle><circle class="dot" cx="544.830053667263" cy="0" r="3" fill="#2563eb"></circle><circle class="dot" cx="546.1180679785331" cy="0" r="3" fill="#2563eb"></circle><circle class="dot" cx="547.4060822898032" cy="0" r="3" fill="#2563eb"></circle><circle class="dot" cx="548.6940966010734" cy="0" r="3" fill="#2563eb"></circle><circle class="dot" cx="549.9821109123435" cy="0" r="3" fill="#2563eb"></circle><circle class="dot" cx="551.2701252236136" cy="0" r="3" fill="#2563eb"></circle><circle class="dot" cx="552.5581395348837" cy="0" r="3" fill="#2563eb"></circle><circle class="dot" cx="553.8461538461539" cy="0" r="3" fill="#2563eb"></circle><circle class="dot" cx="555.134168157424" cy="0" r="3" fill="#2563eb"></circle><circle class="dot" cx="556.422182468694" cy="0" r="3" fill="#2563eb"></circle><circle class="dot" cx="557.7101967799642" cy="0" r="3" fill="#2563eb"></circle><circle class="dot" cx="558.9982110912343" cy="0" r="3" fill="#2563eb"></circle><circle class="dot" cx="560.2862254025044" cy="0" r="3" fill="#2563eb"></circle><circle class="dot" cx="561.5742397137745" cy="0" r="3" fill="#2563eb"></circle><circle class="dot" cx="562.8622540250448" cy="0" r="3" fill="#2563eb"></circle><circle class="dot" cx="564.1502683363149" cy="0" r="3" fill="#2563eb"></circle><circle class="dot" cx="565.438282647585" cy="0" r="3" fill="#2563eb"></circle><circle class="dot" cx="566.7262969588552" cy="0" r="3" fill="#2563eb"></circle><circle class="dot" cx="568.0143112701252" cy="0" r="3" fill="#2563eb"></circle><circle class="dot" cx="569.3023255813953" cy="0" r="3" fill="#2563eb"></circle><circle class="dot" cx="570.5903398926655" cy="0" r="3" fill="#2563eb"></circle><circle class="dot" cx="571.8783542039356" cy="0" r="3" fill="#2563eb"></circle><circle class="dot" cx="573.1663685152057" cy="0" r="3" fill="#2563eb"></circle><circle class="dot" cx="574.4543828264758" cy="0" r="3" fill="#2563eb"></circle><circle class="dot" cx="575.742397137746" cy="0" r="3" fill="#2563eb"></circle><circle class="dot" cx="577.0304114490161" cy="0" r="3" fill="#2563eb"></circle><circle class="dot" cx="578.3184257602862" cy="0" r="3" fill="#2563eb"></circle><circle class="dot" cx="579.6064400715563" cy="0" r="3" fill="#2563eb"></circle><circle class="dot" cx="580.8944543828264" cy="0" r="3" fill="#2563eb"></circle><circle class="dot" cx="582.1824686940965" cy="0" r="3" fill="#2563eb"></circle><circle class="dot" cx="583.4704830053668" cy="0" r="3" fill="#2563eb"></circle><circle class="dot" cx="584.7584973166369" cy="0" r="3" fill="#2563eb"></circle><circle class="dot" cx="586.046511627907" cy="0" r="3" fill="#2563eb"></circle><circle class="dot" cx="587.3345259391771" cy="0" r="3" fill="#2563eb"></circle><circle class="dot" cx="588.6225402504473" cy="0" r="3" fill="#2563eb"></circle><circle class="dot" cx="589.9105545617174" cy="0" r="3" fill="#2563eb"></circle><circle class="dot" cx="591.1985688729875" cy="0" r="3" fill="#2563eb"></circle><circle class="dot" cx="592.4865831842576" cy="0" r="3" fill="#2563eb"></circle><circle class="dot" cx="593.7745974955277" cy="0" r="3" fill="#2563eb"></circle><circle class="dot" cx="595.0626118067978" cy="0" r="3" fill="#2563eb"></circle><circle class="dot" cx="596.350626118068" cy="0" r="3" fill="#2563eb"></circle><circle class="dot" cx="597.6386404293381" cy="0" r="3" fill="#2563eb"></circle><circle class="dot" cx="598.9266547406082" cy="0" r="3" fill="#2563eb"></circle><circle class="dot" cx="600.2146690518783" cy="0" r="3" fill="#2563eb"></circle><circle class="dot" cx="601.5026833631485" cy="0" r="3" fill="#2563eb"></circle><circle class="dot" cx="602.7906976744187" cy="0" r="3" fill="#2563eb"></circle><circle class="dot" cx="604.0787119856886" cy="0" r="3" fill="#2563eb"></circle><circle class="dot" cx="605.3667262969589" cy="0" r="3" fill="#2563eb"></circle><circle class="dot" cx="606.654740608229" cy="0" r="3" fill="#2563eb"></circle><circle class="dot" cx="607.9427549194991" cy="0" r="3" fill="#2563eb"></circle><circle class="dot" cx="609.2307692307692" cy="0" r="3" fill="#2563eb"></circle><circle class="dot" cx="610.5187835420394" cy="0" r="3" fill="#2563eb"></circle><circle class="dot" cx="611.8067978533095" cy="0" r="3" fill="#2563eb"></circle><circle class="dot" cx="613.0948121645796" cy="0" r="3" fill="#2563eb"></circle><circle class="dot" cx="614.3828264758498" cy="0" r="3" fill="#2563eb"></circle><circle class="dot" cx="615.6708407871199" cy="0" r="3" fill="#2563eb"></circle><circle class="dot" cx="616.9588550983899" cy="0" r="3" fill="#2563eb"></circle><circle class="dot" cx="618.2468694096601" cy="0" r="3" fill="#2563eb"></circle><circle class="dot" cx="619.5348837209302" cy="0" r="3" fill="#2563eb"></circle><circle class="dot" cx="620.8228980322003" cy="0" r="3" fill="#2563eb"></circle><circle class="dot" cx="622.1109123434704" cy="0" r="3" fill="#2563eb"></circle><circle class="dot" cx="623.3989266547406" cy="0" r="3" fill="#2563eb"></circle><circle class="dot" cx="624.6869409660108" cy="0" r="3" fill="#2563eb"></circle><circle class="dot" cx="625.9749552772809" cy="0" r="3" fill="#2563eb"></circle><circle class="dot" cx="627.262969588551" cy="0" r="3" fill="#2563eb"></circle><circle class="dot" cx="628.5509838998211" cy="0" r="3" fill="#2563eb"></circle><circle class="dot" cx="629.8389982110912" cy="0" r="3" fill="#2563eb"></circle><circle class="dot" cx="631.1270125223614" cy="0" r="3" fill="#2563eb"></circle><circle class="dot" cx="632.4150268336315" cy="0" r="3" fill="#2563eb"></circle><circle class="dot" cx="633.7030411449016" cy="0" r="3" fill="#2563eb"></circle><circle class="dot" cx="634.9910554561717" cy="0" r="3" fill="#2563eb"></circle><circle class="dot" cx="636.2790697674419" cy="0" r="3" fill="#2563eb"></circle><circle class="dot" cx="637.567084078712" cy="0" r="3" fill="#2563eb"></circle><circle class="dot" cx="638.8550983899821" cy="0" r="3" fill="#2563eb"></circle><circle class="dot" cx="640.1431127012522" cy="0" r="3" fill="#2563eb"></circle><circle class="dot" cx="641.4311270125223" cy="0" r="3" fill="#2563eb"></circle><circle class="dot" cx="642.7191413237924" cy="0" r="3" fill="#2563eb"></circle><circle class="dot" cx="644.0071556350626" cy="0" r="3" fill="#2563eb"></circle><circle class="dot" cx="645.2951699463327" cy="0" r="3" fill="#2563eb"></circle><circle class="dot" cx="646.5831842576029" cy="0" r="3" fill="#2563eb"></circle><circle class="dot" cx="647.871198568873" cy="0" r="3" fill="#2563eb"></circle><circle class="dot" cx="649.1592128801432" cy="0" r="3" fill="#2563eb"></circle><circle class="dot" cx="650.4472271914133" cy="0" r="3" fill="#2563eb"></circle><circle class="dot" cx="651.7352415026834" cy="0" r="3" fill="#2563eb"></circle><circle class="dot" cx="653.0232558139535" cy="0" r="3" fill="#2563eb"></circle><circle class="dot" cx="654.3112701252236" cy="0" r="3" fill="#2563eb"></circle><circle class="dot" cx="655.5992844364937" cy="0" r="3" fill="#2563eb"></circle><circle class="dot" cx="656.8872987477639" cy="0" r="3" fill="#2563eb"></circle><circle class="dot" cx="658.175313059034" cy="0" r="3" fill="#2563eb"></circle><circle class="dot" cx="659.4633273703041" cy="0" r="3" fill="#2563eb"></circle><circle class="dot" cx="660.7513416815742" cy="0" r="3" fill="#2563eb"></circle><circle class="dot" cx="662.0393559928444" cy="0" r="3" fill="#2563eb"></circle><circle class="dot" cx="663.3273703041145" cy="0" r="3" fill="#2563eb"></circle><circle class="dot" cx="664.6153846153846" cy="0" r="3" fill="#2563eb"></circle><circle class="dot" cx="665.9033989266547" cy="0" r="3" fill="#2563eb"></circle><circle class="dot" cx="667.1914132379248" cy="0" r="3" fill="#2563eb"></circle><circle class="dot" cx="668.479427549195" cy="0" r="3" fill="#2563eb"></circle><circle class="dot" cx="669.767441860465" cy="0" r="3" fill="#2563eb"></circle><circle class="dot" cx="671.0554561717353" cy="0" r="3" fill="#2563eb"></circle><circle class="dot" cx="672.3434704830054" cy="0" r="3" fill="#2563eb"></circle><circle class="dot" cx="673.6314847942755" cy="0" r="3" fill="#2563eb"></circle><circle class="dot" cx="674.9194991055457" cy="0" r="3" fill="#2563eb"></circle><circle class="dot" cx="676.2075134168158" cy="0" r="3" fill="#2563eb"></circle><circle class="dot" cx="677.4955277280858" cy="0" r="3" fill="#2563eb"></circle><circle class="dot" cx="678.783542039356" cy="0" r="3" fill="#2563eb"></circle><circle class="dot" cx="680.0715563506261" cy="0" r="3" fill="#2563eb"></circle><circle class="dot" cx="681.3595706618962" cy="0" r="3" fill="#2563eb"></circle><circle class="dot" cx="682.6475849731663" cy="0" r="3" fill="#2563eb"></circle><circle class="dot" cx="683.9355992844365" cy="0" r="3" fill="#2563eb"></circle><circle class="dot" cx="685.2236135957066" cy="0" r="3" fill="#2563eb"></circle><circle class="dot" cx="686.5116279069767" cy="0" r="3" fill="#2563eb"></circle><circle class="dot" cx="687.7996422182468" cy="0" r="3" fill="#2563eb"></circle><circle class="dot" cx="689.0876565295171" cy="0" r="3" fill="#2563eb"></circle><circle class="dot" cx="690.375670840787" cy="0" r="3" fill="#2563eb"></circle><circle class="dot" cx="691.6636851520573" cy="0" r="3" fill="#2563eb"></circle><circle class="dot" cx="692.9516994633274" cy="0" r="3" fill="#2563eb"></circle><circle class="dot" cx="694.2397137745975" cy="0" r="3" fill="#2563eb"></circle><circle class="dot" cx="695.5277280858676" cy="0" r="3" fill="#2563eb"></circle><circle class="dot" cx="696.8157423971378" cy="0" r="3" fill="#2563eb"></circle><circle class="dot" cx="698.1037567084079" cy="0" r="3" fill="#2563eb"></circle><circle class="dot" cx="699.391771019678" cy="0" r="3" fill="#2563eb"></circle><circle class="dot" cx="700.6797853309481" cy="0" r="3" fill="#2563eb"></circle><circle class="dot" cx="701.9677996422182" cy="0" r="3" fill="#2563eb"></circle><circle class="dot" cx="703.2558139534883" cy="0" r="3" fill="#2563eb"></circle><circle class="dot" cx="704.5438282647585" cy="0" r="3" fill="#2563eb"></circle><circle class="dot" cx="705.8318425760286" cy="0" r="3" fill="#2563eb"></circle><circle class="dot" cx="707.1198568872987" cy="0" r="3" fill="#2563eb"></circle><circle class="dot" cx="708.4078711985688" cy="0" r="3" fill="#2563eb"></circle><circle class="dot" cx="709.6958855098391" cy="0" r="3" fill="#2563eb"></circle><circle class="dot" cx="710.9838998211092" cy="0" r="3" fill="#2563eb"></circle><circle class="dot" cx="712.2719141323793" cy="0" r="3" fill="#2563eb"></circle><circle class="dot" cx="713.5599284436494" cy="0" r="3" fill="#2563eb"></circle><circle class="dot" cx="714.8479427549195" cy="0" r="3" fill="#2563eb"></circle><circle class="dot" cx="716.1359570661896" cy="0" r="3" fill="#2563eb"></circle><circle class="dot" cx="717.4239713774597" cy="0" r="3" fill="#2563eb"></circle><circle class="dot" cx="718.7119856887299" cy="0" r="3" fill="#2563eb"></circle><circle class="dot" cx="720" cy="0" r="3" fill="#2563eb"></circle><g class="grid" transform="translate(0,340)" fill="none" font-size="10" font-family="sans-serif" text-anchor="middle" style="stroke-dasharray: 3,3; opacity: 0.3;"><path class="domain" stroke="currentColor" d="M0.5,-340V0.5H720.5V-340"></path><g class="tick" opacity="1" transform="translate(0.5,0)"><line stroke="currentColor" y2="-340"></line><text fill="currentColor" y="3" dy="0.71em"></text></g><g class="tick" opacity="1" transform="translate(31.412343470483002,0)"><line stroke="currentColor" y2="-340"></line><text fill="currentColor" y="3" dy="0.71em"></text></g><g class="tick" opacity="1" transform="translate(62.324686940966004,0)"><line stroke="currentColor" y2="-340"></line><text fill="currentColor" y="3" dy="0.71em"></text></g><g class="tick" opacity="1" transform="translate(93.23703041144903,0)"><line stroke="currentColor" y2="-340"></line><text fill="currentColor" y="3" dy="0.71em"></text></g><g class="tick" opacity="1" transform="translate(124.14937388193201,0)"><line stroke="currentColor" y2="-340"></line><text fill="currentColor" y="3" dy="0.71em"></text></g><g class="tick" opacity="1" transform="translate(155.06171735241503,0)"><line stroke="currentColor" y2="-340"></line><text fill="currentColor" y="3" dy="0.71em"></text></g><g class="tick" opacity="1" transform="translate(185.97406082289805,0)"><line stroke="currentColor" y2="-340"></line><text fill="currentColor" y="3" dy="0.71em"></text></g><g class="tick" opacity="1" transform="translate(216.88640429338105,0)"><line stroke="currentColor" y2="-340"></line><text fill="currentColor" y="3" dy="0.71em"></text></g><g class="tick" opacity="1" transform="translate(247.79874776386401,0)"><line stroke="currentColor" y2="-340"></line><text fill="currentColor" y="3" dy="0.71em"></text></g><g class="tick" opacity="1" transform="translate(278.711091234347,0)"><line stroke="currentColor" y2="-340"></line><text fill="currentColor" y="3" dy="0.71em"></text></g><g class="tick" opacity="1" transform="translate(309.62343470483006,0)"><line stroke="currentColor" y2="-340"></line><text fill="currentColor" y="3" dy="0.71em"></text></g><g class="tick" opacity="1" transform="translate(340.53577817531306,0)"><line stroke="currentColor" y2="-340"></line><text fill="currentColor" y="3" dy="0.71em"></text></g><g class="tick" opacity="1" transform="translate(371.4481216457961,0)"><line stroke="currentColor" y2="-340"></line><text fill="currentColor" y="3" dy="0.71em"></text></g><g class="tick" opacity="1" transform="translate(402.36046511627904,0)"><line stroke="currentColor" y2="-340"></line><text fill="currentColor" y="3" dy="0.71em"></text></g><g class="tick" opacity="1" transform="translate(433.2728085867621,0)"><line stroke="currentColor" y2="-340"></line><text fill="currentColor" y="3" dy="0.71em"></text></g><g class="tick" opacity="1" transform="translate(464.1851520572451,0)"><line stroke="currentColor" y2="-340"></line><text fill="currentColor" y="3" dy="0.71em"></text></g><g class="tick" opacity="1" transform="translate(495.09749552772803,0)"><line stroke="currentColor" y2="-340"></line><text fill="currentColor" y="3" dy="0.71em"></text></g><g class="tick" opacity="1" transform="translate(526.0098389982111,0)"><line stroke="currentColor" y2="-340"></line><text fill="currentColor" y="3" dy="0.71em"></text></g><g class="tick" opacity="1" transform="translate(556.922182468694,0)"><line stroke="currentColor" y2="-340"></line><text fill="currentColor" y="3" dy="0.71em"></text></g><g class="tick" opacity="1" transform="translate(587.8345259391771,0)"><line stroke="currentColor" y2="-340"></line><text fill="currentColor" y="3" dy="0.71em"></text></g><g class="tick" opacity="1" transform="translate(618.7468694096601,0)"><line stroke="currentColor" y2="-340"></line><text fill="currentColor" y="3" dy="0.71em"></text></g><g class="tick" opacity="1" transform="translate(649.6592128801432,0)"><line stroke="currentColor" y2="-340"></line><text fill="currentColor" y="3" dy="0.71em"></text></g><g class="tick" opacity="1" transform="translate(680.5715563506261,0)"><line stroke="currentColor" y2="-340"></line><text fill="currentColor" y="3" dy="0.71em"></text></g><g class="tick" opacity="1" transform="translate(711.4838998211092,0)"><line stroke="currentColor" y2="-340"></line><text fill="currentColor" y="3" dy="0.71em"></text></g></g><g class="grid" fill="none" font-size="10" font-family="sans-serif" text-anchor="end" style="stroke-dasharray: 3,3; opacity: 0.3;"><path class="domain" stroke="currentColor" d="M720,340.5H0.5V0.5H720"></path><g class="tick" opacity="1" transform="translate(0,340.5)"><line stroke="currentColor" x2="720"></line><text fill="currentColor" x="-3" dy="0.32em"></text></g><g class="tick" opacity="1" transform="translate(0,312.16666666666663)"><line stroke="currentColor" x2="720"></line><text fill="currentColor" x="-3" dy="0.32em"></text></g><g class="tick" opacity="1" transform="translate(0,283.83333333333326)"><line stroke="currentColor" x2="720"></line><text fill="currentColor" x="-3" dy="0.32em"></text></g><g class="tick" opacity="1" transform="translate(0,255.49999999999991)"><line stroke="currentColor" x2="720"></line><text fill="currentColor" x="-3" dy="0.32em"></text></g><g class="tick" opacity="1" transform="translate(0,227.16666666666654)"><line stroke="currentColor" x2="720"></line><text fill="currentColor" x="-3" dy="0.32em"></text></g><g class="tick" opacity="1" transform="translate(0,198.83333333333314)"><line stroke="currentColor" x2="720"></line><text fill="currentColor" x="-3" dy="0.32em"></text></g><g class="tick" opacity="1" transform="translate(0,170.4999999999998)"><line stroke="currentColor" x2="720"></line><text fill="currentColor" x="-3" dy="0.32em"></text></g><g class="tick" opacity="1" transform="translate(0,142.16666666666686)"><line stroke="currentColor" x2="720"></line><text fill="currentColor" x="-3" dy="0.32em"></text></g><g class="tick" opacity="1" transform="translate(0,113.83333333333346)"><line stroke="currentColor" x2="720"></line><text fill="currentColor" x="-3" dy="0.32em"></text></g><g class="tick" opacity="1" transform="translate(0,85.50000000000011)"><line stroke="currentColor" x2="720"></line><text fill="currentColor" x="-3" dy="0.32em"></text></g><g class="tick" opacity="1" transform="translate(0,57.16666666666673)"><line stroke="currentColor" x2="720"></line><text fill="currentColor" x="-3" dy="0.32em"></text></g><g class="tick" opacity="1" transform="translate(0,28.833333333333385)"><line stroke="currentColor" x2="720"></line><text fill="currentColor" x="-3" dy="0.32em"></text></g><g class="tick" opacity="1" transform="translate(0,0.5)"><line stroke="currentColor" x2="720"></line><text fill="currentColor" x="-3" dy="0.32em"></text></g></g></g><text x="400" y="10" text-anchor="middle" style="font-size: 16px; font-weight: bold; fill: #333;">OKX USDT Lending Rate - Current Month</text></svg>