<svg width="800" height="400" xmlns="http://www.w3.org/2000/svg"><g transform="translate(50,20)"><g transform="translate(0,340)" fill="none" font-size="10" font-family="sans-serif" text-anchor="middle"><path class="domain" stroke="currentColor" d="M0.5,6V0.5H720.5V6"></path><g class="tick" opacity="1" transform="translate(0.5,0)"><line stroke="currentColor" y2="6"></line><text fill="currentColor" y="9" dy=".15em" style="text-anchor: end;" dx="-.8em" transform="rotate(-45)">11/01</text></g><g class="tick" opacity="1" transform="translate(138.74,0)"><line stroke="currentColor" y2="6"></line><text fill="currentColor" y="9" dy=".15em" style="text-anchor: end;" dx="-.8em" transform="rotate(-45)">11/02</text></g><g class="tick" opacity="1" transform="translate(276.98,0)"><line stroke="currentColor" y2="6"></line><text fill="currentColor" y="9" dy=".15em" style="text-anchor: end;" dx="-.8em" transform="rotate(-45)">11/03</text></g><g class="tick" opacity="1" transform="translate(415.21999999999997,0)"><line stroke="currentColor" y2="6"></line><text fill="currentColor" y="9" dy=".15em" style="text-anchor: end;" dx="-.8em" transform="rotate(-45)">11/04</text></g><g class="tick" opacity="1" transform="translate(553.46,0)"><line stroke="currentColor" y2="6"></line><text fill="currentColor" y="9" dy=".15em" style="text-anchor: end;" dx="-.8em" transform="rotate(-45)">11/05</text></g><g class="tick" opacity="1" transform="translate(691.6999999999999,0)"><line stroke="currentColor" y2="6"></line><text fill="currentColor" y="9" dy=".15em" style="text-anchor: end;" dx="-.8em" transform="rotate(-45)">11/06</text></g></g><g fill="none" font-size="10" font-family="sans-serif" text-anchor="end"><path class="domain" stroke="currentColor" d="M-6,340.5H0.5V0.5H-6"></path><g class="tick" opacity="1" transform="translate(0,340.5)"><line stroke="currentColor" x2="-6"></line><text fill="currentColor" x="-9" dy="0.32em">1.00%</text></g><g class="tick" opacity="1" transform="translate(0,306.5)"><line stroke="currentColor" x2="-6"></line><text fill="currentColor" x="-9" dy="0.32em">1.20%</text></g><g class="tick" opacity="1" transform="translate(0,272.5)"><line stroke="currentColor" x2="-6"></line><text fill="currentColor" x="-9" dy="0.32em">1.40%</text></g><g class="tick" opacity="1" transform="translate(0,238.49999999999997)"><line stroke="currentColor" x2="-6"></line><text fill="currentColor" x="-9" dy="0.32em">1.60%</text></g><g class="tick" opacity="1" transform="translate(0,204.50000000000003)"><line stroke="currentColor" x2="-6"></line><text fill="currentColor" x="-9" dy="0.32em">1.80%</text></g><g class="tick" opacity="1" transform="translate(0,170.49999999999997)"><line stroke="currentColor" x2="-6"></line><text fill="currentColor" x="-9" dy="0.32em">2.00%</text></g><g class="tick" opacity="1" transform="translate(0,136.5)"><line stroke="currentColor" x2="-6"></line><text fill="currentColor" x="-9" dy="0.32em">2.20%</text></g><g class="tick" opacity="1" transform="translate(0,102.49999999999997)"><line stroke="currentColor" x2="-6"></line><text fill="currentColor" x="-9" dy="0.32em">2.40%</text></g><g class="tick" opacity="1" transform="translate(0,68.49999999999994)"><line stroke="currentColor" x2="-6"></line><text fill="currentColor" x="-9" dy="0.32em">2.60%</text></g><g class="tick" opacity="1" transform="translate(0,34.499999999999915)"><line stroke="currentColor" x2="-6"></line><text fill="currentColor" x="-9" dy="0.32em">2.80%</text></g><g class="tick" opacity="1" transform="translate(0,0.5)"><line stroke="currentColor" x2="-6"></line><text fill="currentColor" x="-9" dy="0.32em">3.00%</text></g></g><text transform="rotate(-90)" y="-50" x="-170" dy="1em" style="text-anchor: middle; font-size: 12px; fill: #666;">Pre Rate (%)</text><text transform="translate(360, 380)" style="text-anchor: middle; font-size: 12px; fill: #666;">Time (UTC)</text><path fill="none" stroke="#2563eb" stroke-width="2" d="M0,0C1.92,0,3.84,0,5.76,0C7.68,0,9.6,0,11.52,0C13.44,0,15.36,0,17.28,0C19.2,0,21.12,0,23.04,0C24.96,0,26.88,0,28.8,0C30.72,0,32.64,0,34.56,0C36.48,0,38.4,0,40.32,0C42.24,0,44.16,0,46.08,0C48,0,49.92,0,51.84,0C53.76,0,55.68,0,57.6,0C59.52,0,61.44,0,63.36,0C65.28,0,67.2,0,69.12,0C71.04,0,72.96,0,74.88,0C76.8,0,78.72,0,80.64,0C82.56,0,84.48,0,86.4,0C88.32,0,90.24,0,92.16,0C94.08,0,96,0,97.92,0C99.84,0,101.76,0,103.68,0C105.6,0,107.52,0,109.44,0C111.36,0,113.28,0,115.2,0C117.12,0,119.04,0,120.96,0C122.88,0,124.8,0,126.72,0C128.64,0,130.56,0,132.48,0C134.4,0,136.32,0,138.24,0C140.16,0,142.08,0,144,0C145.92,0,147.84,0,149.76,0C151.68,0,153.6,0,155.52,0C157.44,0,159.36,0,161.28,0C163.2,0,165.12,0,167.04,0C168.96,0,170.88,0,172.8,0C174.72,0,176.64,0,178.56,0C180.48,0,182.4,0,184.32,0C186.24,0,188.16,0,190.08,0C192,0,193.92,0,195.84,0C197.76,0,199.68,0,201.6,0C203.52,0,205.44,0,207.36,0C209.28,0,211.2,0,213.12,0C215.04,0,216.96,0,218.88,0C220.8,0,222.72,0,224.64,0C226.56,0,228.48,0,230.4,0C232.32,0,234.24,0,236.16,0C238.08,0,240,0,241.92,0C243.84,0,245.76,0,247.68,0C249.6,0,251.52,0,253.44,0C255.36,0,257.28,0,259.2,0C261.12,0,263.04,0,264.96,0C266.88,0,268.8,0,270.72,0C272.64,0,274.56,0,276.48,0C278.4,0,280.32,0,282.24,0C284.16,0,286.08,0,288,0C289.92,0,291.84,0,293.76,0C295.68,0,297.6,0,299.52,0C301.44,0,303.36,0,305.28,0C307.2,0,309.12,0,311.04,0C312.96,0,314.88,0,316.8,0C318.72,0,320.64,0,322.56,0C324.48,0,326.4,0,328.32,0C330.24,0,332.16,0,334.08,0C336,0,337.92,0,339.84,0C341.76,0,343.68,0,345.6,0C347.52,0,349.44,0,351.36,0C353.28,0,355.2,0,357.12,0C359.04,0,360.96,0,362.88,0C364.8,0,366.72,0,368.64,0C370.56,0,372.48,0,374.4,0C376.32,0,378.24,0,380.16,0C382.08,0,384,0,385.92,0C387.84,0,389.76,0,391.68,0C393.6,0,395.52,0,397.44,0C399.36,0,401.28,0,403.2,0C405.12,0,407.04,0,408.96,0C410.88,0,412.8,0,414.72,0C416.64,0,418.56,0,420.48,0C422.4,0,424.32,0,426.24,0C428.16,0,430.08,0,432,0C433.92,0,435.84,0,437.76,0C439.68,0,441.6,0,443.52,0C445.44,0,447.36,0,449.28,0C451.2,0,453.12,0,455.04,0C456.96,0,458.88,0,460.8,0C462.72,0,464.64,0,466.56,0C468.48,0,470.4,0,472.32,0C474.24,0,476.16,0,478.08,0C480,0,481.92,0,483.84,0C485.76,0,487.68,0,489.6,0C491.52,0,493.44,0,495.36,0C497.28,0,499.2,0,501.12,0C503.04,0,504.96,0,506.88,0C508.8,0,510.72,0,512.64,0C514.56,0,516.48,0,518.4,0C520.32,0,522.24,0,524.16,0C526.08,0,528,0,529.92,0C531.84,0,533.76,0,535.68,0C537.6,0,539.52,0,541.44,0C543.36,0,545.28,0,547.2,0C549.12,0,551.04,0,552.96,0C554.88,0,556.8,340,558.72,340C560.64,340,562.56,340,564.48,340C566.4,340,568.32,340,570.24,340C572.16,340,574.08,340,576,340C577.92,340,579.84,340,581.76,340C583.68,340,585.6,340,587.52,340C589.44,340,591.36,340,593.28,340C595.2,340,597.12,340,599.04,340C600.96,340,602.88,0,604.8,0C606.72,0,608.64,0,610.56,0C612.48,0,614.4,0,616.32,0C618.24,0,620.16,0,622.08,0C624,0,625.92,0,627.84,0C629.76,0,631.68,0,633.6,0C635.52,0,637.44,0,639.36,0C641.28,0,643.2,0,645.12,0C647.04,0,648.96,0,650.88,0C652.8,0,654.72,0,656.64,0C658.56,0,660.48,0,662.4,0C664.32,0,666.24,0,668.16,0C670.08,0,672,0,673.92,0C675.84,0,677.76,0,679.68,0C681.6,0,683.52,0,685.44,0C687.36,0,689.28,0,691.2,0C693.12,0,695.04,0,696.96,0C698.88,0,700.8,0,702.72,0C704.64,0,706.56,0,708.48,0C710.4,0,712.32,0,714.24,0C716.16,0,718.08,0,720,0"></path><circle class="dot" cx="0" cy="0" r="3" fill="#2563eb"></circle><circle class="dot" cx="5.76" cy="0" r="3" fill="#2563eb"></circle><circle class="dot" cx="11.52" cy="0" r="3" fill="#2563eb"></circle><circle class="dot" cx="17.28" cy="0" r="3" fill="#2563eb"></circle><circle class="dot" cx="23.04" cy="0" r="3" fill="#2563eb"></circle><circle class="dot" cx="28.8" cy="0" r="3" fill="#2563eb"></circle><circle class="dot" cx="34.56" cy="0" r="3" fill="#2563eb"></circle><circle class="dot" cx="40.32" cy="0" r="3" fill="#2563eb"></circle><circle class="dot" cx="46.08" cy="0" r="3" fill="#2563eb"></circle><circle class="dot" cx="51.839999999999996" cy="0" r="3" fill="#2563eb"></circle><circle class="dot" cx="57.6" cy="0" r="3" fill="#2563eb"></circle><circle class="dot" cx="63.36" cy="0" r="3" fill="#2563eb"></circle><circle class="dot" cx="69.12" cy="0" r="3" fill="#2563eb"></circle><circle class="dot" cx="74.88" cy="0" r="3" fill="#2563eb"></circle><circle class="dot" cx="80.64" cy="0" r="3" fill="#2563eb"></circle><circle class="dot" cx="86.39999999999999" cy="0" r="3" fill="#2563eb"></circle><circle class="dot" cx="92.16" cy="0" r="3" fill="#2563eb"></circle><circle class="dot" cx="97.92" cy="0" r="3" fill="#2563eb"></circle><circle class="dot" cx="103.67999999999999" cy="0" r="3" fill="#2563eb"></circle><circle class="dot" cx="109.44" cy="0" r="3" fill="#2563eb"></circle><circle class="dot" cx="115.2" cy="0" r="3" fill="#2563eb"></circle><circle class="dot" cx="120.96000000000001" cy="0" r="3" fill="#2563eb"></circle><circle class="dot" cx="126.72" cy="0" r="3" fill="#2563eb"></circle><circle class="dot" cx="132.48" cy="0" r="3" fill="#2563eb"></circle><circle class="dot" cx="138.24" cy="0" r="3" fill="#2563eb"></circle><circle class="dot" cx="144" cy="0" r="3" fill="#2563eb"></circle><circle class="dot" cx="149.76" cy="0" r="3" fill="#2563eb"></circle><circle class="dot" cx="155.52" cy="0" r="3" fill="#2563eb"></circle><circle class="dot" cx="161.28" cy="0" r="3" fill="#2563eb"></circle><circle class="dot" cx="167.04000000000002" cy="0" r="3" fill="#2563eb"></circle><circle class="dot" cx="172.79999999999998" cy="0" r="3" fill="#2563eb"></circle><circle class="dot" cx="178.56" cy="0" r="3" fill="#2563eb"></circle><circle class="dot" cx="184.32" cy="0" r="3" fill="#2563eb"></circle><circle class="dot" cx="190.08" cy="0" r="3" fill="#2563eb"></circle><circle class="dot" cx="195.84" cy="0" r="3" fill="#2563eb"></circle><circle class="dot" cx="201.60000000000002" cy="0" r="3" fill="#2563eb"></circle><circle class="dot" cx="207.35999999999999" cy="0" r="3" fill="#2563eb"></circle><circle class="dot" cx="213.11999999999998" cy="0" r="3" fill="#2563eb"></circle><circle class="dot" cx="218.88" cy="0" r="3" fill="#2563eb"></circle><circle class="dot" cx="224.64" cy="0" r="3" fill="#2563eb"></circle><circle class="dot" cx="230.4" cy="0" r="3" fill="#2563eb"></circle><circle class="dot" cx="236.16" cy="0" r="3" fill="#2563eb"></circle><circle class="dot" cx="241.92000000000002" cy="0" r="3" fill="#2563eb"></circle><circle class="dot" cx="247.67999999999998" cy="0" r="3" fill="#2563eb"></circle><circle class="dot" cx="253.44" cy="0" r="3" fill="#2563eb"></circle><circle class="dot" cx="259.2" cy="0" r="3" fill="#2563eb"></circle><circle class="dot" cx="264.96" cy="0" r="3" fill="#2563eb"></circle><circle class="dot" cx="270.72" cy="0" r="3" fill="#2563eb"></circle><circle class="dot" cx="276.48" cy="0" r="3" fill="#2563eb"></circle><circle class="dot" cx="282.24" cy="0" r="3" fill="#2563eb"></circle><circle class="dot" cx="288" cy="0" r="3" fill="#2563eb"></circle><circle class="dot" cx="293.76" cy="0" r="3" fill="#2563eb"></circle><circle class="dot" cx="299.52" cy="0" r="3" fill="#2563eb"></circle><circle class="dot" cx="305.28" cy="0" r="3" fill="#2563eb"></circle><circle class="dot" cx="311.04" cy="0" r="3" fill="#2563eb"></circle><circle class="dot" cx="316.8" cy="0" r="3" fill="#2563eb"></circle><circle class="dot" cx="322.56" cy="0" r="3" fill="#2563eb"></circle><circle class="dot" cx="328.32" cy="0" r="3" fill="#2563eb"></circle><circle class="dot" cx="334.08000000000004" cy="0" r="3" fill="#2563eb"></circle><circle class="dot" cx="339.84" cy="0" r="3" fill="#2563eb"></circle><circle class="dot" cx="345.59999999999997" cy="0" r="3" fill="#2563eb"></circle><circle class="dot" cx="351.36" cy="0" r="3" fill="#2563eb"></circle><circle class="dot" cx="357.12" cy="0" r="3" fill="#2563eb"></circle><circle class="dot" cx="362.88" cy="0" r="3" fill="#2563eb"></circle><circle class="dot" cx="368.64" cy="0" r="3" fill="#2563eb"></circle><circle class="dot" cx="374.40000000000003" cy="0" r="3" fill="#2563eb"></circle><circle class="dot" cx="380.16" cy="0" r="3" fill="#2563eb"></circle><circle class="dot" cx="385.92" cy="0" r="3" fill="#2563eb"></circle><circle class="dot" cx="391.68" cy="0" r="3" fill="#2563eb"></circle><circle class="dot" cx="397.44000000000005" cy="0" r="3" fill="#2563eb"></circle><circle class="dot" cx="403.20000000000005" cy="0" r="3" fill="#2563eb"></circle><circle class="dot" cx="408.96" cy="0" r="3" fill="#2563eb"></circle><circle class="dot" cx="414.71999999999997" cy="0" r="3" fill="#2563eb"></circle><circle class="dot" cx="420.47999999999996" cy="0" r="3" fill="#2563eb"></circle><circle class="dot" cx="426.23999999999995" cy="0" r="3" fill="#2563eb"></circle><circle class="dot" cx="432" cy="0" r="3" fill="#2563eb"></circle><circle class="dot" cx="437.76" cy="0" r="3" fill="#2563eb"></circle><circle class="dot" cx="443.52" cy="0" r="3" fill="#2563eb"></circle><circle class="dot" cx="449.28" cy="0" r="3" fill="#2563eb"></circle><circle class="dot" cx="455.04" cy="0" r="3" fill="#2563eb"></circle><circle class="dot" cx="460.8" cy="0" r="3" fill="#2563eb"></circle><circle class="dot" cx="466.56" cy="0" r="3" fill="#2563eb"></circle><circle class="dot" cx="472.32" cy="0" r="3" fill="#2563eb"></circle><circle class="dot" cx="478.08000000000004" cy="0" r="3" fill="#2563eb"></circle><circle class="dot" cx="483.84000000000003" cy="0" r="3" fill="#2563eb"></circle><circle class="dot" cx="489.6" cy="0" r="3" fill="#2563eb"></circle><circle class="dot" cx="495.35999999999996" cy="0" r="3" fill="#2563eb"></circle><circle class="dot" cx="501.11999999999995" cy="0" r="3" fill="#2563eb"></circle><circle class="dot" cx="506.88" cy="0" r="3" fill="#2563eb"></circle><circle class="dot" cx="512.64" cy="0" r="3" fill="#2563eb"></circle><circle class="dot" cx="518.4" cy="0" r="3" fill="#2563eb"></circle><circle class="dot" cx="524.16" cy="0" r="3" fill="#2563eb"></circle><circle class="dot" cx="529.92" cy="0" r="3" fill="#2563eb"></circle><circle class="dot" cx="535.68" cy="0" r="3" fill="#2563eb"></circle><circle class="dot" cx="541.44" cy="0" r="3" fill="#2563eb"></circle><circle class="dot" cx="547.2" cy="0" r="3" fill="#2563eb"></circle><circle class="dot" cx="552.96" cy="0" r="3" fill="#2563eb"></circle><circle class="dot" cx="558.72" cy="340" r="3" fill="#2563eb"></circle><circle class="dot" cx="564.48" cy="340" r="3" fill="#2563eb"></circle><circle class="dot" cx="570.24" cy="340" r="3" fill="#2563eb"></circle><circle class="dot" cx="576" cy="340" r="3" fill="#2563eb"></circle><circle class="dot" cx="581.76" cy="340" r="3" fill="#2563eb"></circle><circle class="dot" cx="587.52" cy="340" r="3" fill="#2563eb"></circle><circle class="dot" cx="593.28" cy="340" r="3" fill="#2563eb"></circle><circle class="dot" cx="599.04" cy="340" r="3" fill="#2563eb"></circle><circle class="dot" cx="604.8" cy="0" r="3" fill="#2563eb"></circle><circle class="dot" cx="610.56" cy="0" r="3" fill="#2563eb"></circle><circle class="dot" cx="616.3199999999999" cy="0" r="3" fill="#2563eb"></circle><circle class="dot" cx="622.08" cy="0" r="3" fill="#2563eb"></circle><circle class="dot" cx="627.84" cy="0" r="3" fill="#2563eb"></circle><circle class="dot" cx="633.6" cy="0" r="3" fill="#2563eb"></circle><circle class="dot" cx="639.36" cy="0" r="3" fill="#2563eb"></circle><circle class="dot" cx="645.12" cy="0" r="3" fill="#2563eb"></circle><circle class="dot" cx="650.88" cy="0" r="3" fill="#2563eb"></circle><circle class="dot" cx="656.64" cy="0" r="3" fill="#2563eb"></circle><circle class="dot" cx="662.4" cy="0" r="3" fill="#2563eb"></circle><circle class="dot" cx="668.1600000000001" cy="0" r="3" fill="#2563eb"></circle><circle class="dot" cx="673.9200000000001" cy="0" r="3" fill="#2563eb"></circle><circle class="dot" cx="679.68" cy="0" r="3" fill="#2563eb"></circle><circle class="dot" cx="685.4399999999999" cy="0" r="3" fill="#2563eb"></circle><circle class="dot" cx="691.1999999999999" cy="0" r="3" fill="#2563eb"></circle><circle class="dot" cx="696.96" cy="0" r="3" fill="#2563eb"></circle><circle class="dot" cx="702.72" cy="0" r="3" fill="#2563eb"></circle><circle class="dot" cx="708.48" cy="0" r="3" fill="#2563eb"></circle><circle class="dot" cx="714.24" cy="0" r="3" fill="#2563eb"></circle><circle class="dot" cx="720" cy="0" r="3" fill="#2563eb"></circle><g class="grid" transform="translate(0,340)" fill="none" font-size="10" font-family="sans-serif" text-anchor="middle" style="stroke-dasharray: 3,3; opacity: 0.3;"><path class="domain" stroke="currentColor" d="M0.5,-340V0.5H720.5V-340"></path><g class="tick" opacity="1" transform="translate(0.5,0)"><line stroke="currentColor" y2="-340"></line><text fill="currentColor" y="3" dy="0.71em"></text></g><g class="tick" opacity="1" transform="translate(138.74,0)"><line stroke="currentColor" y2="-340"></line><text fill="currentColor" y="3" dy="0.71em"></text></g><g class="tick" opacity="1" transform="translate(276.98,0)"><line stroke="currentColor" y2="-340"></line><text fill="currentColor" y="3" dy="0.71em"></text></g><g class="tick" opacity="1" transform="translate(415.21999999999997,0)"><line stroke="currentColor" y2="-340"></line><text fill="currentColor" y="3" dy="0.71em"></text></g><g class="tick" opacity="1" transform="translate(553.46,0)"><line stroke="currentColor" y2="-340"></line><text fill="currentColor" y="3" dy="0.71em"></text></g><g class="tick" opacity="1" transform="translate(691.6999999999999,0)"><line stroke="currentColor" y2="-340"></line><text fill="currentColor" y="3" dy="0.71em"></text></g></g><g class="grid" fill="none" font-size="10" font-family="sans-serif" text-anchor="end" style="stroke-dasharray: 3,3; opacity: 0.3;"><path class="domain" stroke="currentColor" d="M720,340.5H0.5V0.5H720"></path><g class="tick" opacity="1" transform="translate(0,340.5)"><line stroke="currentColor" x2="720"></line><text fill="currentColor" x="-3" dy="0.32em"></text></g><g class="tick" opacity="1" transform="translate(0,306.5)"><line stroke="currentColor" x2="720"></line><text fill="currentColor" x="-3" dy="0.32em"></text></g><g class="tick" opacity="1" transform="translate(0,272.5)"><line stroke="currentColor" x2="720"></line><text fill="currentColor" x="-3" dy="0.32em"></text></g><g class="tick" opacity="1" transform="translate(0,238.49999999999997)"><line stroke="currentColor" x2="720"></line><text fill="currentColor" x="-3" dy="0.32em"></text></g><g class="tick" opacity="1" transform="translate(0,204.50000000000003)"><line stroke="currentColor" x2="720"></line><text fill="currentColor" x="-3" dy="0.32em"></text></g><g class="tick" opacity="1" transform="translate(0,170.49999999999997)"><line stroke="currentColor" x2="720"></line><text fill="currentColor" x="-3" dy="0.32em"></text></g><g class="tick" opacity="1" transform="translate(0,136.5)"><line stroke="currentColor" x2="720"></line><text fill="currentColor" x="-3" dy="0.32em"></text></g><g class="tick" opacity="1" transform="translate(0,102.49999999999997)"><line stroke="currentColor" x2="720"></line><text fill="currentColor" x="-3" dy="0.32em"></text></g><g class="tick" opacity="1" transform="translate(0,68.49999999999994)"><line stroke="currentColor" x2="720"></line><text fill="currentColor" x="-3" dy="0.32em"></text></g><g class="tick" opacity="1" transform="translate(0,34.499999999999915)"><line stroke="currentColor" x2="720"></line><text fill="currentColor" x="-3" dy="0.32em"></text></g><g class="tick" opacity="1" transform="translate(0,0.5)"><line stroke="currentColor" x2="720"></line><text fill="currentColor" x="-3" dy="0.32em"></text></g></g></g><text x="400" y="10" text-anchor="middle" style="font-size: 16px; font-weight: bold; fill: #333;">OKX USDT Lending Rate - Current Month</text></svg>