<svg width="800" height="400" xmlns="http://www.w3.org/2000/svg"><g transform="translate(50,20)"><g transform="translate(0,340)" fill="none" font-size="10" font-family="sans-serif" text-anchor="middle"><path class="domain" stroke="currentColor" d="M0.5,6V0.5H720.5V6"></path><g class="tick" opacity="1" transform="translate(0.5,0)"><line stroke="currentColor" y2="6"></line><text fill="currentColor" y="9" dy=".15em" style="text-anchor: end;" dx="-.8em" transform="rotate(-45)">10/01</text></g><g class="tick" opacity="1" transform="translate(51.775964391691396,0)"><line stroke="currentColor" y2="6"></line><text fill="currentColor" y="9" dy=".15em" style="text-anchor: end;" dx="-.8em" transform="rotate(-45)">10/02</text></g><g class="tick" opacity="1" transform="translate(103.05192878338279,0)"><line stroke="currentColor" y2="6"></line><text fill="currentColor" y="9" dy=".15em" style="text-anchor: end;" dx="-.8em" transform="rotate(-45)">10/03</text></g><g class="tick" opacity="1" transform="translate(154.32789317507417,0)"><line stroke="currentColor" y2="6"></line><text fill="currentColor" y="9" dy=".15em" style="text-anchor: end;" dx="-.8em" transform="rotate(-45)">10/04</text></g><g class="tick" opacity="1" transform="translate(205.60385756676558,0)"><line stroke="currentColor" y2="6"></line><text fill="currentColor" y="9" dy=".15em" style="text-anchor: end;" dx="-.8em" transform="rotate(-45)">10/05</text></g><g class="tick" opacity="1" transform="translate(256.879821958457,0)"><line stroke="currentColor" y2="6"></line><text fill="currentColor" y="9" dy=".15em" style="text-anchor: end;" dx="-.8em" transform="rotate(-45)">10/06</text></g><g class="tick" opacity="1" transform="translate(308.15578635014833,0)"><line stroke="currentColor" y2="6"></line><text fill="currentColor" y="9" dy=".15em" style="text-anchor: end;" dx="-.8em" transform="rotate(-45)">10/07</text></g><g class="tick" opacity="1" transform="translate(359.4317507418398,0)"><line stroke="currentColor" y2="6"></line><text fill="currentColor" y="9" dy=".15em" style="text-anchor: end;" dx="-.8em" transform="rotate(-45)">10/08</text></g><g class="tick" opacity="1" transform="translate(410.70771513353117,0)"><line stroke="currentColor" y2="6"></line><text fill="currentColor" y="9" dy=".15em" style="text-anchor: end;" dx="-.8em" transform="rotate(-45)">10/09</text></g><g class="tick" opacity="1" transform="translate(461.98367952522256,0)"><line stroke="currentColor" y2="6"></line><text fill="currentColor" y="9" dy=".15em" style="text-anchor: end;" dx="-.8em" transform="rotate(-45)">10/10</text></g><g class="tick" opacity="1" transform="translate(513.259643916914,0)"><line stroke="currentColor" y2="6"></line><text fill="currentColor" y="9" dy=".15em" style="text-anchor: end;" dx="-.8em" transform="rotate(-45)">10/11</text></g><g class="tick" opacity="1" transform="translate(564.5356083086053,0)"><line stroke="currentColor" y2="6"></line><text fill="currentColor" y="9" dy=".15em" style="text-anchor: end;" dx="-.8em" transform="rotate(-45)">10/12</text></g><g class="tick" opacity="1" transform="translate(615.8115727002967,0)"><line stroke="currentColor" y2="6"></line><text fill="currentColor" y="9" dy=".15em" style="text-anchor: end;" dx="-.8em" transform="rotate(-45)">10/13</text></g><g class="tick" opacity="1" transform="translate(667.0875370919881,0)"><line stroke="currentColor" y2="6"></line><text fill="currentColor" y="9" dy=".15em" style="text-anchor: end;" dx="-.8em" transform="rotate(-45)">10/14</text></g><g class="tick" opacity="1" transform="translate(718.3635014836796,0)"><line stroke="currentColor" y2="6"></line><text fill="currentColor" y="9" dy=".15em" style="text-anchor: end;" dx="-.8em" transform="rotate(-45)">10/15</text></g></g><g fill="none" font-size="10" font-family="sans-serif" text-anchor="end"><path class="domain" stroke="currentColor" d="M-6,340.5H0.5V0.5H-6"></path><g class="tick" opacity="1" transform="translate(0,340.5)"><line stroke="currentColor" x2="-6"></line><text fill="currentColor" x="-9" dy="0.32em">0.00%</text></g><g class="tick" opacity="1" transform="translate(0,309.59090909090907)"><line stroke="currentColor" x2="-6"></line><text fill="currentColor" x="-9" dy="0.32em">10.00%</text></g><g class="tick" opacity="1" transform="translate(0,278.6818181818182)"><line stroke="currentColor" x2="-6"></line><text fill="currentColor" x="-9" dy="0.32em">20.00%</text></g><g class="tick" opacity="1" transform="translate(0,247.77272727272728)"><line stroke="currentColor" x2="-6"></line><text fill="currentColor" x="-9" dy="0.32em">30.00%</text></g><g class="tick" opacity="1" transform="translate(0,216.86363636363637)"><line stroke="currentColor" x2="-6"></line><text fill="currentColor" x="-9" dy="0.32em">40.00%</text></g><g class="tick" opacity="1" transform="translate(0,185.95454545454544)"><line stroke="currentColor" x2="-6"></line><text fill="currentColor" x="-9" dy="0.32em">50.00%</text></g><g class="tick" opacity="1" transform="translate(0,155.04545454545456)"><line stroke="currentColor" x2="-6"></line><text fill="currentColor" x="-9" dy="0.32em">60.00%</text></g><g class="tick" opacity="1" transform="translate(0,124.13636363636368)"><line stroke="currentColor" x2="-6"></line><text fill="currentColor" x="-9" dy="0.32em">70.00%</text></g><g class="tick" opacity="1" transform="translate(0,93.22727272727272)"><line stroke="currentColor" x2="-6"></line><text fill="currentColor" x="-9" dy="0.32em">80.00%</text></g><g class="tick" opacity="1" transform="translate(0,62.31818181818184)"><line stroke="currentColor" x2="-6"></line><text fill="currentColor" x="-9" dy="0.32em">90.00%</text></g><g class="tick" opacity="1" transform="translate(0,31.40909090909092)"><line stroke="currentColor" x2="-6"></line><text fill="currentColor" x="-9" dy="0.32em">100.00%</text></g><g class="tick" opacity="1" transform="translate(0,0.5)"><line stroke="currentColor" x2="-6"></line><text fill="currentColor" x="-9" dy="0.32em">110.00%</text></g></g><text transform="rotate(-90)" y="-50" x="-170" dy="1em" style="text-anchor: middle; font-size: 12px; fill: #666;">Pre Rate (%)</text><text transform="translate(360, 380)" style="text-anchor: middle; font-size: 12px; fill: #666;">Time (UTC)</text><path fill="none" stroke="#2563eb" stroke-width="2" d="M0,327.636C0.712,327.636,1.424,327.636,2.136,327.636C2.849,327.636,3.561,327.636,4.273,327.636C4.985,327.636,5.697,327.636,6.409,327.636C7.122,327.636,7.834,327.636,8.546,327.636C9.258,327.636,9.97,327.636,10.682,327.636C11.395,327.636,12.107,327.636,12.819,327.636C13.531,327.636,14.243,327.636,14.955,327.636C15.668,327.636,16.38,327.636,17.092,327.636C17.804,327.636,18.516,327.636,19.228,327.636C19.941,327.636,20.653,327.636,21.365,327.636C22.077,327.636,22.789,327.636,23.501,327.636C24.214,327.636,24.926,327.636,25.638,327.636C26.35,327.636,27.062,327.636,27.774,327.636C28.487,327.636,29.199,327.636,29.911,327.636C30.623,327.636,31.335,327.636,32.047,327.636C32.76,327.636,33.472,327.636,34.184,327.636C34.896,327.636,35.608,327.636,36.32,327.636C37.033,327.636,37.745,327.636,38.457,327.636C39.169,327.636,39.881,327.636,40.593,327.636C41.306,327.636,42.018,327.636,42.73,327.636C43.442,327.636,44.154,327.636,44.866,327.636C45.579,327.636,46.291,327.636,47.003,327.636C47.715,327.636,48.427,327.636,49.139,327.636C49.852,327.636,50.564,327.636,51.276,327.636C51.988,327.636,52.7,327.636,53.412,327.636C54.125,327.636,54.837,327.636,55.549,327.636C56.261,327.636,56.973,327.636,57.685,327.636C58.398,327.636,59.11,327.636,59.822,327.636C60.534,327.636,61.246,327.636,61.958,327.636C62.671,327.636,63.383,327.636,64.095,327.636C64.807,327.636,65.519,327.636,66.231,327.636C66.944,327.636,67.656,327.636,68.368,327.636C69.08,327.636,69.792,327.636,70.504,327.636C71.217,327.636,71.929,327.636,72.641,327.636C73.353,327.636,74.065,327.636,74.777,327.636C75.49,327.636,76.202,327.636,76.914,327.636C77.626,327.636,78.338,18.545,79.05,18.545C79.763,18.545,80.475,293.636,81.187,306C81.899,318.364,82.611,324.545,83.323,324.545C84.036,324.545,84.748,324.545,85.46,324.545C86.172,324.545,86.884,324.545,87.596,324.545C88.309,324.545,89.021,324.545,89.733,324.545C90.445,324.545,91.157,324.545,91.869,324.545C92.582,324.545,93.294,324.545,94.006,324.545C94.718,324.545,95.43,324.545,96.142,324.545C96.855,324.545,97.567,324.545,98.279,324.545C98.991,324.545,99.703,324.545,100.415,324.545C101.128,324.545,101.84,324.545,102.552,324.545C103.264,324.545,103.976,324.545,104.688,324.545C105.401,324.545,106.113,324.545,106.825,324.545C107.537,324.545,108.249,324.545,108.961,324.545C109.674,324.545,110.386,324.545,111.098,324.545C111.81,324.545,112.522,324.545,113.234,324.545C113.947,324.545,114.659,324.545,115.371,324.545C116.083,324.545,116.795,324.545,117.507,324.545C118.22,324.545,118.932,324.545,119.644,324.545C120.356,324.545,121.068,324.545,121.78,324.545C122.493,324.545,123.205,324.545,123.917,324.545C124.629,324.545,125.341,324.545,126.053,324.545C126.766,324.545,127.478,324.545,128.19,324.545C128.902,324.545,129.614,324.545,130.326,324.545C131.039,324.545,131.751,324.545,132.463,324.545C133.175,324.545,133.887,324.545,134.599,324.545C135.312,324.545,136.024,324.545,136.736,324.545C137.448,324.545,138.16,324.545,138.872,324.545C139.585,324.545,140.297,324.545,141.009,324.545C141.721,324.545,142.433,324.545,143.145,324.545C143.858,324.545,144.57,324.545,145.282,324.545C145.994,324.545,146.706,324.545,147.418,324.545C148.131,324.545,148.843,324.545,149.555,324.545C150.267,324.545,150.979,324.545,151.691,324.545C152.404,324.545,153.116,324.545,153.828,324.545C154.54,324.545,155.252,324.545,155.964,324.545C156.677,324.545,157.389,324.545,158.101,324.545C158.813,324.545,159.525,324.545,160.237,324.545C160.95,324.545,161.662,324.545,162.374,324.545C163.086,324.545,163.798,324.545,164.51,324.545C165.223,324.545,165.935,324.545,166.647,324.545C167.359,324.545,168.071,324.545,168.783,324.545C169.496,324.545,170.208,324.545,170.92,324.545C171.632,324.545,172.344,324.545,173.056,324.545C173.769,324.545,174.481,324.545,175.193,324.545C175.905,324.545,176.617,324.545,177.329,324.545C178.042,324.545,178.754,324.545,179.466,324.545C180.178,324.545,180.89,324.545,181.602,324.545C182.315,324.545,183.027,324.545,183.739,324.545C184.451,324.545,185.163,324.545,185.875,324.545C186.588,324.545,187.3,324.545,188.012,324.545C188.724,324.545,189.436,324.545,190.148,324.545C190.861,324.545,191.573,324.545,192.285,324.545C192.997,324.545,193.709,324.545,194.421,324.545C195.134,324.545,195.846,324.545,196.558,324.545C197.27,324.545,197.982,324.545,198.694,324.545C199.407,324.545,200.119,324.545,200.831,324.545C201.543,324.545,202.255,324.545,202.967,324.545C203.68,324.545,204.392,324.545,205.104,324.545C205.816,324.545,206.528,324.545,207.24,324.545C207.953,324.545,208.665,324.545,209.377,324.545C210.089,324.545,210.801,324.545,211.513,324.545C212.226,324.545,212.938,324.545,213.65,324.545C214.362,324.545,215.074,321.455,215.786,321.455C216.499,321.455,217.211,324.545,217.923,324.545C218.635,324.545,219.347,324.545,220.059,324.545C220.772,324.545,221.484,309.091,222.196,309.091C222.908,309.091,223.62,312.697,224.332,315.273C225.045,317.848,225.757,324.545,226.469,324.545C227.181,324.545,227.893,324.545,228.605,324.545C229.318,324.545,230.03,321.455,230.742,321.455C231.454,321.455,232.166,324.545,232.878,324.545C233.591,324.545,234.303,318.364,235.015,318.364C235.727,318.364,236.439,318.364,237.151,318.364C237.864,318.364,238.576,316.303,239.288,315.273C240,314.242,240.712,312.182,241.424,312.182C242.136,312.182,242.849,316.303,243.561,318.364C244.273,320.424,244.985,324.545,245.697,324.545C246.409,324.545,247.122,324.545,247.834,324.545C248.546,324.545,249.258,324.545,249.97,324.545C250.682,324.545,251.395,324.545,252.107,324.545C252.819,324.545,253.531,324.545,254.243,324.545C254.955,324.545,255.668,315.273,256.38,315.273C257.092,315.273,257.804,318.364,258.516,318.364C259.228,318.364,259.941,316.818,260.653,315.273C261.365,313.727,262.077,309.091,262.789,309.091C263.501,309.091,264.214,310.636,264.926,312.182C265.638,313.727,266.35,318.364,267.062,318.364C267.774,318.364,268.487,315.788,269.199,312.182C269.911,308.576,270.623,296.727,271.335,296.727C272.047,296.727,272.76,312.182,273.472,312.182C274.184,312.182,274.896,299.818,275.608,299.818C276.32,299.818,277.033,306,277.745,306C278.457,306,279.169,306,279.881,306C280.593,306,281.306,309.091,282.018,309.091C282.73,309.091,283.442,307.03,284.154,302.909C284.866,298.788,285.579,284.364,286.291,284.364C287.003,284.364,287.715,284.364,288.427,284.364C289.139,284.364,289.852,287.455,290.564,290.545C291.276,293.636,291.988,302.909,292.7,302.909C293.412,302.909,294.125,296.727,294.837,296.727C295.549,296.727,296.261,296.727,296.973,296.727C297.685,296.727,298.398,299.303,299.11,302.909C299.822,306.515,300.534,318.364,301.246,318.364C301.958,318.364,302.671,312.182,303.383,312.182C304.095,312.182,304.807,312.182,305.519,312.182C306.231,312.182,306.944,321.455,307.656,321.455C308.368,321.455,309.08,318.364,309.792,318.364C310.504,318.364,311.217,324.545,311.929,324.545C312.641,324.545,313.353,324.545,314.065,324.545C314.777,324.545,315.49,324.545,316.202,324.545C316.914,324.545,317.626,321.455,318.338,321.455C319.05,321.455,319.763,324.545,320.475,324.545C321.187,324.545,321.899,324.545,322.611,324.545C323.323,324.545,324.036,324.545,324.748,324.545C325.46,324.545,326.172,324.545,326.884,324.545C327.596,324.545,328.309,324.545,329.021,324.545C329.733,324.545,330.445,324.545,331.157,324.545C331.869,324.545,332.582,324.545,333.294,324.545C334.006,324.545,334.718,324.545,335.43,324.545C336.142,324.545,336.855,324.545,337.567,324.545C338.279,324.545,338.991,324.545,339.703,324.545C340.415,324.545,341.128,324.545,341.84,324.545C342.552,324.545,343.264,324.545,343.976,324.545C344.688,324.545,345.401,324.545,346.113,324.545C346.825,324.545,347.537,324.545,348.249,324.545C348.961,324.545,349.674,324.545,350.386,324.545C351.098,324.545,351.81,324.545,352.522,324.545C353.234,324.545,353.947,324.545,354.659,324.545C355.371,324.545,356.083,324.545,356.795,324.545C357.507,324.545,358.22,324.545,358.932,324.545C359.644,324.545,360.356,324.545,361.068,324.545C361.78,324.545,362.493,324.545,363.205,324.545C363.917,324.545,364.629,324.545,365.341,324.545C366.053,324.545,366.766,324.545,367.478,324.545C368.19,324.545,368.902,324.545,369.614,324.545C370.326,324.545,371.039,324.545,371.751,324.545C372.463,324.545,373.175,324.545,373.887,324.545C374.599,324.545,375.312,324.545,376.024,324.545C376.736,324.545,377.448,324.545,378.16,324.545C378.872,324.545,379.585,324.545,380.297,324.545C381.009,324.545,381.721,324.545,382.433,324.545C383.145,324.545,383.858,324.545,384.57,324.545C385.282,324.545,385.994,324.545,386.706,324.545C387.418,324.545,388.131,324.545,388.843,324.545C389.555,324.545,390.267,324.545,390.979,324.545C391.691,324.545,392.404,324.545,393.116,324.545C393.828,324.545,394.54,324.545,395.252,324.545C395.964,324.545,396.677,324.545,397.389,324.545C398.101,324.545,398.813,324.545,399.525,324.545C400.237,324.545,400.95,324.545,401.662,324.545C402.374,324.545,403.086,324.545,403.798,324.545C404.51,324.545,405.223,324.545,405.935,324.545C406.647,324.545,407.359,324.545,408.071,324.545C408.783,324.545,409.496,324.545,410.208,324.545C410.92,324.545,411.632,324.545,412.344,324.545C413.056,324.545,413.769,324.545,414.481,324.545C415.193,324.545,415.905,324.545,416.617,324.545C417.329,324.545,418.042,324.545,418.754,324.545C419.466,324.545,420.178,324.545,420.89,324.545C421.602,324.545,422.315,324.545,423.027,324.545C423.739,324.545,424.451,324.545,425.163,324.545C425.875,324.545,426.588,324.545,427.3,324.545C428.012,324.545,428.724,324.545,429.436,324.545C430.148,324.545,430.861,324.545,431.573,324.545C432.285,324.545,432.997,324.545,433.709,324.545C434.421,324.545,435.134,324.545,435.846,324.545C436.558,324.545,437.27,324.545,437.982,324.545C438.694,324.545,439.407,324.545,440.119,324.545C440.831,324.545,441.543,324.545,442.255,324.545C442.967,324.545,443.68,324.545,444.392,324.545C445.104,324.545,445.816,324.545,446.528,324.545C447.24,324.545,447.953,324.545,448.665,324.545C449.377,324.545,450.089,324.545,450.801,324.545C451.513,324.545,452.226,324.545,452.938,324.545C453.65,324.545,454.362,324.545,455.074,324.545C455.786,324.545,456.499,324.545,457.211,324.545C457.923,324.545,458.635,324.545,459.347,324.545C460.059,324.545,460.772,324.545,461.484,324.545C462.196,324.545,462.908,324.545,463.62,324.545C464.332,324.545,465.045,324.545,465.757,324.545C466.469,324.545,467.181,324.545,467.893,324.545C468.605,324.545,469.318,324.545,470.03,324.545C470.742,324.545,471.454,324.545,472.166,324.545C472.878,324.545,473.591,324.545,474.303,324.545C475.015,324.545,475.727,324.545,476.439,324.545C477.151,324.545,477.864,324.545,478.576,324.545C479.288,324.545,480,324.545,480.712,324.545C481.424,324.545,482.136,324.545,482.849,324.545C483.561,324.545,484.273,324.545,484.985,324.545C485.697,324.545,486.409,324.545,487.122,324.545C487.834,324.545,488.546,324.545,489.258,324.545C489.97,324.545,490.682,324.545,491.395,324.545C492.107,324.545,492.819,324.545,493.531,324.545C494.243,324.545,494.955,324.545,495.668,324.545C496.38,324.545,497.092,324.545,497.804,324.545C498.516,324.545,499.228,324.545,499.941,324.545C500.653,324.545,501.365,324.545,502.077,324.545C502.789,324.545,503.501,324.545,504.214,324.545C504.926,324.545,505.638,324.545,506.35,324.545C507.062,324.545,507.774,336.909,508.487,336.909C509.199,336.909,509.911,336.909,510.623,336.909C511.335,336.909,512.047,336.909,512.76,336.909C513.472,336.909,514.184,336.909,514.896,336.909C515.608,336.909,516.32,336.909,517.033,336.909C517.745,336.909,518.457,336.909,519.169,336.909C519.881,336.909,520.593,336.909,521.306,336.909C522.018,336.909,522.73,336.909,523.442,336.909C524.154,336.909,524.866,336.909,525.579,336.909C526.291,336.909,527.003,336.909,527.715,336.909C528.427,336.909,529.139,336.909,529.852,336.909C530.564,336.909,531.276,336.909,531.988,336.909C532.7,336.909,533.412,336.909,534.125,336.909C534.837,336.909,535.549,336.909,536.261,336.909C536.973,336.909,537.685,336.909,538.398,336.909C539.11,336.909,539.822,336.909,540.534,336.909C541.246,336.909,541.958,336.909,542.671,336.909C543.383,336.909,544.095,336.909,544.807,336.909C545.519,336.909,546.231,336.909,546.944,336.909C547.656,336.909,548.368,336.909,549.08,336.909C549.792,336.909,550.504,336.909,551.217,336.909C551.929,336.909,552.641,336.909,553.353,336.909C554.065,336.909,554.777,336.909,555.49,336.909C556.202,336.909,556.914,336.909,557.626,336.909C558.338,336.909,559.05,336.909,559.763,336.909C560.475,336.909,561.187,336.909,561.899,336.909C562.611,336.909,563.323,336.909,564.036,336.909C564.748,336.909,565.46,336.909,566.172,336.909C566.884,336.909,567.596,336.909,568.309,336.909C569.021,336.909,569.733,336.909,570.445,336.909C571.157,336.909,571.869,336.909,572.582,336.909C573.294,336.909,574.006,336.909,574.718,336.909C575.43,336.909,576.142,336.909,576.855,336.909C577.567,336.909,578.279,336.909,578.991,336.909C579.703,336.909,580.415,336.909,581.128,336.909C581.84,336.909,582.552,336.909,583.264,336.909C583.976,336.909,584.688,336.909,585.401,336.909C586.113,336.909,586.825,336.909,587.537,336.909C588.249,336.909,588.961,336.909,589.674,336.909C590.386,336.909,591.098,336.909,591.81,336.909C592.522,336.909,593.234,336.909,593.947,336.909C594.659,336.909,595.371,336.909,596.083,336.909C596.795,336.909,597.507,336.909,598.22,336.909C598.932,336.909,599.644,336.909,600.356,336.909C601.068,336.909,601.78,336.909,602.493,336.909C603.205,336.909,603.917,336.909,604.629,336.909C605.341,336.909,606.053,336.909,606.766,336.909C607.478,336.909,608.19,336.909,608.902,336.909C609.614,336.909,610.326,336.909,611.039,336.909C611.751,336.909,612.463,336.909,613.175,336.909C613.887,336.909,614.599,336.909,615.312,336.909C616.024,336.909,616.736,336.909,617.448,336.909C618.16,336.909,618.872,336.909,619.585,336.909C620.297,336.909,621.009,336.909,621.721,336.909C622.433,336.909,623.145,336.909,623.858,336.909C624.57,336.909,625.282,336.909,625.994,336.909C626.706,336.909,627.418,336.909,628.131,336.909C628.843,336.909,629.555,336.909,630.267,336.909C630.979,336.909,631.691,336.909,632.404,336.909C633.116,336.909,633.828,336.909,634.54,336.909C635.252,336.909,635.964,336.909,636.677,336.909C637.389,336.909,638.101,336.909,638.813,336.909C639.525,336.909,640.237,336.909,640.95,336.909C641.662,336.909,642.374,336.909,643.086,336.909C643.798,336.909,644.51,336.909,645.223,336.909C645.935,336.909,646.647,336.909,647.359,336.909C648.071,336.909,648.783,336.909,649.496,336.909C650.208,336.909,650.92,336.909,651.632,336.909C652.344,336.909,653.056,336.909,653.769,336.909C654.481,336.909,655.193,336.909,655.905,336.909C656.617,336.909,657.329,336.909,658.042,336.909C658.754,336.909,659.466,336.909,660.178,336.909C660.89,336.909,661.602,336.909,662.315,336.909C663.027,336.909,663.739,336.909,664.451,336.909C665.163,336.909,665.875,336.909,666.588,336.909C667.3,336.909,668.012,336.909,668.724,336.909C669.436,336.909,670.148,336.909,670.861,336.909C671.573,336.909,672.285,336.909,672.997,336.909C673.709,336.909,674.421,336.909,675.134,336.909C675.846,336.909,676.558,336.909,677.27,336.909C677.982,336.909,678.694,336.909,679.407,336.909C680.119,336.909,680.831,336.909,681.543,336.909C682.255,336.909,682.967,336.909,683.68,336.909C684.392,336.909,685.104,336.909,685.816,336.909C686.528,336.909,687.24,336.909,687.953,336.909C688.665,336.909,689.377,336.909,690.089,336.909C690.801,336.909,691.513,336.909,692.226,336.909C692.938,336.909,693.65,336.909,694.362,336.909C695.074,336.909,695.786,336.909,696.499,336.909C697.211,336.909,697.923,336.909,698.635,336.909C699.347,336.909,700.059,336.909,700.772,336.909C701.484,336.909,702.196,336.909,702.908,336.909C703.62,336.909,704.332,336.909,705.045,336.909C705.757,336.909,706.469,336.909,707.181,336.909C707.893,336.909,708.605,336.909,709.318,336.909C710.03,336.909,710.742,336.909,711.454,336.909C712.166,336.909,712.878,336.909,713.591,336.909C714.303,336.909,715.015,336.909,715.727,336.909C716.439,336.909,717.151,336.909,717.864,336.909C718.576,336.909,719.288,336.909,720,336.909"></path><circle class="dot" cx="0" cy="327.6363636363636" r="3" fill="#2563eb"></circle><circle class="dot" cx="2.136498516320475" cy="327.6363636363636" r="3" fill="#2563eb"></circle><circle class="dot" cx="4.27299703264095" cy="327.6363636363636" r="3" fill="#2563eb"></circle><circle class="dot" cx="6.4094955489614245" cy="327.6363636363636" r="3" fill="#2563eb"></circle><circle class="dot" cx="8.5459940652819" cy="327.6363636363636" r="3" fill="#2563eb"></circle><circle class="dot" cx="10.682492581602375" cy="327.6363636363636" r="3" fill="#2563eb"></circle><circle class="dot" cx="12.818991097922849" cy="327.6363636363636" r="3" fill="#2563eb"></circle><circle class="dot" cx="14.955489614243323" cy="327.6363636363636" r="3" fill="#2563eb"></circle><circle class="dot" cx="17.0919881305638" cy="327.6363636363636" r="3" fill="#2563eb"></circle><circle class="dot" cx="19.22848664688427" cy="327.6363636363636" r="3" fill="#2563eb"></circle><circle class="dot" cx="21.36498516320475" cy="327.6363636363636" r="3" fill="#2563eb"></circle><circle class="dot" cx="23.501483679525226" cy="327.6363636363636" r="3" fill="#2563eb"></circle><circle class="dot" cx="25.637982195845698" cy="327.6363636363636" r="3" fill="#2563eb"></circle><circle class="dot" cx="27.774480712166174" cy="327.6363636363636" r="3" fill="#2563eb"></circle><circle class="dot" cx="29.910979228486646" cy="327.6363636363636" r="3" fill="#2563eb"></circle><circle class="dot" cx="32.047477744807125" cy="327.6363636363636" r="3" fill="#2563eb"></circle><circle class="dot" cx="34.1839762611276" cy="327.6363636363636" r="3" fill="#2563eb"></circle><circle class="dot" cx="36.32047477744807" cy="327.6363636363636" r="3" fill="#2563eb"></circle><circle class="dot" cx="38.45697329376854" cy="327.6363636363636" r="3" fill="#2563eb"></circle><circle class="dot" cx="40.59347181008902" cy="327.6363636363636" r="3" fill="#2563eb"></circle><circle class="dot" cx="42.7299703264095" cy="327.6363636363636" r="3" fill="#2563eb"></circle><circle class="dot" cx="44.86646884272997" cy="327.6363636363636" r="3" fill="#2563eb"></circle><circle class="dot" cx="47.00296735905045" cy="327.6363636363636" r="3" fill="#2563eb"></circle><circle class="dot" cx="49.13946587537092" cy="327.6363636363636" r="3" fill="#2563eb"></circle><circle class="dot" cx="51.275964391691396" cy="327.6363636363636" r="3" fill="#2563eb"></circle><circle class="dot" cx="53.41246290801187" cy="327.6363636363636" r="3" fill="#2563eb"></circle><circle class="dot" cx="55.54896142433235" cy="327.6363636363636" r="3" fill="#2563eb"></circle><circle class="dot" cx="57.68545994065282" cy="327.6363636363636" r="3" fill="#2563eb"></circle><circle class="dot" cx="59.82195845697329" cy="327.6363636363636" r="3" fill="#2563eb"></circle><circle class="dot" cx="61.95845697329377" cy="327.6363636363636" r="3" fill="#2563eb"></circle><circle class="dot" cx="64.09495548961425" cy="327.6363636363636" r="3" fill="#2563eb"></circle><circle class="dot" cx="66.23145400593472" cy="327.6363636363636" r="3" fill="#2563eb"></circle><circle class="dot" cx="68.3679525222552" cy="327.6363636363636" r="3" fill="#2563eb"></circle><circle class="dot" cx="70.50445103857567" cy="327.6363636363636" r="3" fill="#2563eb"></circle><circle class="dot" cx="72.64094955489614" cy="327.6363636363636" r="3" fill="#2563eb"></circle><circle class="dot" cx="74.77744807121663" cy="327.6363636363636" r="3" fill="#2563eb"></circle><circle class="dot" cx="76.91394658753708" cy="327.6363636363636" r="3" fill="#2563eb"></circle><circle class="dot" cx="79.05044510385757" cy="18.54545454545455" r="3" fill="#2563eb"></circle><circle class="dot" cx="81.18694362017804" cy="306" r="3" fill="#2563eb"></circle><circle class="dot" cx="83.32344213649851" cy="324.54545454545456" r="3" fill="#2563eb"></circle><circle class="dot" cx="85.459940652819" cy="324.54545454545456" r="3" fill="#2563eb"></circle><circle class="dot" cx="87.59643916913946" cy="324.54545454545456" r="3" fill="#2563eb"></circle><circle class="dot" cx="89.73293768545994" cy="324.54545454545456" r="3" fill="#2563eb"></circle><circle class="dot" cx="91.86943620178042" cy="324.54545454545456" r="3" fill="#2563eb"></circle><circle class="dot" cx="94.0059347181009" cy="324.54545454545456" r="3" fill="#2563eb"></circle><circle class="dot" cx="96.14243323442136" cy="324.54545454545456" r="3" fill="#2563eb"></circle><circle class="dot" cx="98.27893175074183" cy="324.54545454545456" r="3" fill="#2563eb"></circle><circle class="dot" cx="100.41543026706232" cy="324.54545454545456" r="3" fill="#2563eb"></circle><circle class="dot" cx="102.55192878338279" cy="324.54545454545456" r="3" fill="#2563eb"></circle><circle class="dot" cx="104.68842729970326" cy="324.54545454545456" r="3" fill="#2563eb"></circle><circle class="dot" cx="106.82492581602374" cy="324.54545454545456" r="3" fill="#2563eb"></circle><circle class="dot" cx="108.96142433234422" cy="324.54545454545456" r="3" fill="#2563eb"></circle><circle class="dot" cx="111.0979228486647" cy="324.54545454545456" r="3" fill="#2563eb"></circle><circle class="dot" cx="113.23442136498515" cy="324.54545454545456" r="3" fill="#2563eb"></circle><circle class="dot" cx="115.37091988130564" cy="324.54545454545456" r="3" fill="#2563eb"></circle><circle class="dot" cx="117.50741839762611" cy="324.54545454545456" r="3" fill="#2563eb"></circle><circle class="dot" cx="119.64391691394658" cy="324.54545454545456" r="3" fill="#2563eb"></circle><circle class="dot" cx="121.78041543026707" cy="324.54545454545456" r="3" fill="#2563eb"></circle><circle class="dot" cx="123.91691394658754" cy="324.54545454545456" r="3" fill="#2563eb"></circle><circle class="dot" cx="126.05341246290801" cy="324.54545454545456" r="3" fill="#2563eb"></circle><circle class="dot" cx="128.1899109792285" cy="324.54545454545456" r="3" fill="#2563eb"></circle><circle class="dot" cx="130.32640949554897" cy="324.54545454545456" r="3" fill="#2563eb"></circle><circle class="dot" cx="132.46290801186944" cy="324.54545454545456" r="3" fill="#2563eb"></circle><circle class="dot" cx="134.5994065281899" cy="324.54545454545456" r="3" fill="#2563eb"></circle><circle class="dot" cx="136.7359050445104" cy="324.54545454545456" r="3" fill="#2563eb"></circle><circle class="dot" cx="138.87240356083086" cy="324.54545454545456" r="3" fill="#2563eb"></circle><circle class="dot" cx="141.00890207715133" cy="324.54545454545456" r="3" fill="#2563eb"></circle><circle class="dot" cx="143.1454005934718" cy="324.54545454545456" r="3" fill="#2563eb"></circle><circle class="dot" cx="145.28189910979228" cy="324.54545454545456" r="3" fill="#2563eb"></circle><circle class="dot" cx="147.41839762611275" cy="324.54545454545456" r="3" fill="#2563eb"></circle><circle class="dot" cx="149.55489614243325" cy="324.54545454545456" r="3" fill="#2563eb"></circle><circle class="dot" cx="151.69139465875372" cy="324.54545454545456" r="3" fill="#2563eb"></circle><circle class="dot" cx="153.82789317507417" cy="324.54545454545456" r="3" fill="#2563eb"></circle><circle class="dot" cx="155.96439169139467" cy="324.54545454545456" r="3" fill="#2563eb"></circle><circle class="dot" cx="158.10089020771514" cy="324.54545454545456" r="3" fill="#2563eb"></circle><circle class="dot" cx="160.2373887240356" cy="324.54545454545456" r="3" fill="#2563eb"></circle><circle class="dot" cx="162.37388724035608" cy="324.54545454545456" r="3" fill="#2563eb"></circle><circle class="dot" cx="164.51038575667656" cy="324.54545454545456" r="3" fill="#2563eb"></circle><circle class="dot" cx="166.64688427299703" cy="324.54545454545456" r="3" fill="#2563eb"></circle><circle class="dot" cx="168.7833827893175" cy="324.54545454545456" r="3" fill="#2563eb"></circle><circle class="dot" cx="170.919881305638" cy="324.54545454545456" r="3" fill="#2563eb"></circle><circle class="dot" cx="173.05637982195844" cy="324.54545454545456" r="3" fill="#2563eb"></circle><circle class="dot" cx="175.19287833827892" cy="324.54545454545456" r="3" fill="#2563eb"></circle><circle class="dot" cx="177.32937685459942" cy="324.54545454545456" r="3" fill="#2563eb"></circle><circle class="dot" cx="179.4658753709199" cy="324.54545454545456" r="3" fill="#2563eb"></circle><circle class="dot" cx="181.60237388724036" cy="324.54545454545456" r="3" fill="#2563eb"></circle><circle class="dot" cx="183.73887240356083" cy="324.54545454545456" r="3" fill="#2563eb"></circle><circle class="dot" cx="185.87537091988128" cy="324.54545454545456" r="3" fill="#2563eb"></circle><circle class="dot" cx="188.0118694362018" cy="324.54545454545456" r="3" fill="#2563eb"></circle><circle class="dot" cx="190.14836795252228" cy="324.54545454545456" r="3" fill="#2563eb"></circle><circle class="dot" cx="192.28486646884272" cy="324.54545454545456" r="3" fill="#2563eb"></circle><circle class="dot" cx="194.4213649851632" cy="324.54545454545456" r="3" fill="#2563eb"></circle><circle class="dot" cx="196.55786350148367" cy="324.54545454545456" r="3" fill="#2563eb"></circle><circle class="dot" cx="198.69436201780414" cy="324.54545454545456" r="3" fill="#2563eb"></circle><circle class="dot" cx="200.83086053412464" cy="324.54545454545456" r="3" fill="#2563eb"></circle><circle class="dot" cx="202.9673590504451" cy="324.54545454545456" r="3" fill="#2563eb"></circle><circle class="dot" cx="205.10385756676558" cy="324.54545454545456" r="3" fill="#2563eb"></circle><circle class="dot" cx="207.24035608308606" cy="324.54545454545456" r="3" fill="#2563eb"></circle><circle class="dot" cx="209.37685459940653" cy="324.54545454545456" r="3" fill="#2563eb"></circle><circle class="dot" cx="211.513353115727" cy="324.54545454545456" r="3" fill="#2563eb"></circle><circle class="dot" cx="213.64985163204747" cy="324.54545454545456" r="3" fill="#2563eb"></circle><circle class="dot" cx="215.78635014836797" cy="321.45454545454544" r="3" fill="#2563eb"></circle><circle class="dot" cx="217.92284866468844" cy="324.54545454545456" r="3" fill="#2563eb"></circle><circle class="dot" cx="220.05934718100892" cy="324.54545454545456" r="3" fill="#2563eb"></circle><circle class="dot" cx="222.1958456973294" cy="309.09090909090907" r="3" fill="#2563eb"></circle><circle class="dot" cx="224.33234421364983" cy="315.27272727272725" r="3" fill="#2563eb"></circle><circle class="dot" cx="226.4688427299703" cy="324.54545454545456" r="3" fill="#2563eb"></circle><circle class="dot" cx="228.60534124629083" cy="324.54545454545456" r="3" fill="#2563eb"></circle><circle class="dot" cx="230.74183976261128" cy="321.45454545454544" r="3" fill="#2563eb"></circle><circle class="dot" cx="232.87833827893175" cy="324.54545454545456" r="3" fill="#2563eb"></circle><circle class="dot" cx="235.01483679525222" cy="318.3636363636364" r="3" fill="#2563eb"></circle><circle class="dot" cx="237.1513353115727" cy="318.3636363636364" r="3" fill="#2563eb"></circle><circle class="dot" cx="239.28783382789317" cy="315.27272727272725" r="3" fill="#2563eb"></circle><circle class="dot" cx="241.42433234421364" cy="312.1818181818182" r="3" fill="#2563eb"></circle><circle class="dot" cx="243.56083086053414" cy="318.3636363636364" r="3" fill="#2563eb"></circle><circle class="dot" cx="245.6973293768546" cy="324.54545454545456" r="3" fill="#2563eb"></circle><circle class="dot" cx="247.83382789317508" cy="324.54545454545456" r="3" fill="#2563eb"></circle><circle class="dot" cx="249.97032640949556" cy="324.54545454545456" r="3" fill="#2563eb"></circle><circle class="dot" cx="252.10682492581603" cy="324.54545454545456" r="3" fill="#2563eb"></circle><circle class="dot" cx="254.24332344213647" cy="324.54545454545456" r="3" fill="#2563eb"></circle><circle class="dot" cx="256.379821958457" cy="315.27272727272725" r="3" fill="#2563eb"></circle><circle class="dot" cx="258.51632047477744" cy="318.3636363636364" r="3" fill="#2563eb"></circle><circle class="dot" cx="260.65281899109794" cy="315.27272727272725" r="3" fill="#2563eb"></circle><circle class="dot" cx="262.7893175074184" cy="309.09090909090907" r="3" fill="#2563eb"></circle><circle class="dot" cx="264.9258160237389" cy="312.1818181818182" r="3" fill="#2563eb"></circle><circle class="dot" cx="267.06231454005933" cy="318.3636363636364" r="3" fill="#2563eb"></circle><circle class="dot" cx="269.1988130563798" cy="312.1818181818182" r="3" fill="#2563eb"></circle><circle class="dot" cx="271.33531157270033" cy="296.7272727272727" r="3" fill="#2563eb"></circle><circle class="dot" cx="273.4718100890208" cy="312.1818181818182" r="3" fill="#2563eb"></circle><circle class="dot" cx="275.6083086053412" cy="299.8181818181818" r="3" fill="#2563eb"></circle><circle class="dot" cx="277.7448071216617" cy="306" r="3" fill="#2563eb"></circle><circle class="dot" cx="279.88130563798217" cy="306" r="3" fill="#2563eb"></circle><circle class="dot" cx="282.01780415430267" cy="309.09090909090907" r="3" fill="#2563eb"></circle><circle class="dot" cx="284.15430267062317" cy="302.9090909090909" r="3" fill="#2563eb"></circle><circle class="dot" cx="286.2908011869436" cy="284.3636363636364" r="3" fill="#2563eb"></circle><circle class="dot" cx="288.4272997032641" cy="284.3636363636364" r="3" fill="#2563eb"></circle><circle class="dot" cx="290.56379821958456" cy="290.5454545454545" r="3" fill="#2563eb"></circle><circle class="dot" cx="292.70029673590506" cy="302.9090909090909" r="3" fill="#2563eb"></circle><circle class="dot" cx="294.8367952522255" cy="296.7272727272727" r="3" fill="#2563eb"></circle><circle class="dot" cx="296.973293768546" cy="296.7272727272727" r="3" fill="#2563eb"></circle><circle class="dot" cx="299.1097922848665" cy="302.9090909090909" r="3" fill="#2563eb"></circle><circle class="dot" cx="301.24629080118694" cy="318.3636363636364" r="3" fill="#2563eb"></circle><circle class="dot" cx="303.38278931750745" cy="312.1818181818182" r="3" fill="#2563eb"></circle><circle class="dot" cx="305.5192878338279" cy="312.1818181818182" r="3" fill="#2563eb"></circle><circle class="dot" cx="307.65578635014833" cy="321.45454545454544" r="3" fill="#2563eb"></circle><circle class="dot" cx="309.79228486646883" cy="318.3636363636364" r="3" fill="#2563eb"></circle><circle class="dot" cx="311.92878338278933" cy="324.54545454545456" r="3" fill="#2563eb"></circle><circle class="dot" cx="314.0652818991098" cy="324.54545454545456" r="3" fill="#2563eb"></circle><circle class="dot" cx="316.2017804154303" cy="324.54545454545456" r="3" fill="#2563eb"></circle><circle class="dot" cx="318.3382789317507" cy="321.45454545454544" r="3" fill="#2563eb"></circle><circle class="dot" cx="320.4747774480712" cy="324.54545454545456" r="3" fill="#2563eb"></circle><circle class="dot" cx="322.61127596439167" cy="324.54545454545456" r="3" fill="#2563eb"></circle><circle class="dot" cx="324.74777448071217" cy="324.54545454545456" r="3" fill="#2563eb"></circle><circle class="dot" cx="326.88427299703267" cy="324.54545454545456" r="3" fill="#2563eb"></circle><circle class="dot" cx="329.0207715133531" cy="324.54545454545456" r="3" fill="#2563eb"></circle><circle class="dot" cx="331.1572700296736" cy="324.54545454545456" r="3" fill="#2563eb"></circle><circle class="dot" cx="333.29376854599406" cy="324.54545454545456" r="3" fill="#2563eb"></circle><circle class="dot" cx="335.43026706231456" cy="324.54545454545456" r="3" fill="#2563eb"></circle><circle class="dot" cx="337.566765578635" cy="324.54545454545456" r="3" fill="#2563eb"></circle><circle class="dot" cx="339.7032640949555" cy="324.54545454545456" r="3" fill="#2563eb"></circle><circle class="dot" cx="341.839762611276" cy="324.54545454545456" r="3" fill="#2563eb"></circle><circle class="dot" cx="343.97626112759644" cy="324.54545454545456" r="3" fill="#2563eb"></circle><circle class="dot" cx="346.1127596439169" cy="324.54545454545456" r="3" fill="#2563eb"></circle><circle class="dot" cx="348.2492581602374" cy="324.54545454545456" r="3" fill="#2563eb"></circle><circle class="dot" cx="350.38575667655783" cy="324.54545454545456" r="3" fill="#2563eb"></circle><circle class="dot" cx="352.52225519287833" cy="324.54545454545456" r="3" fill="#2563eb"></circle><circle class="dot" cx="354.65875370919883" cy="324.54545454545456" r="3" fill="#2563eb"></circle><circle class="dot" cx="356.7952522255193" cy="324.54545454545456" r="3" fill="#2563eb"></circle><circle class="dot" cx="358.9317507418398" cy="324.54545454545456" r="3" fill="#2563eb"></circle><circle class="dot" cx="361.0682492581602" cy="324.54545454545456" r="3" fill="#2563eb"></circle><circle class="dot" cx="363.2047477744807" cy="324.54545454545456" r="3" fill="#2563eb"></circle><circle class="dot" cx="365.34124629080117" cy="324.54545454545456" r="3" fill="#2563eb"></circle><circle class="dot" cx="367.47774480712167" cy="324.54545454545456" r="3" fill="#2563eb"></circle><circle class="dot" cx="369.6142433234421" cy="324.54545454545456" r="3" fill="#2563eb"></circle><circle class="dot" cx="371.75074183976255" cy="324.54545454545456" r="3" fill="#2563eb"></circle><circle class="dot" cx="373.8872403560831" cy="324.54545454545456" r="3" fill="#2563eb"></circle><circle class="dot" cx="376.0237388724036" cy="324.54545454545456" r="3" fill="#2563eb"></circle><circle class="dot" cx="378.16023738872406" cy="324.54545454545456" r="3" fill="#2563eb"></circle><circle class="dot" cx="380.29673590504456" cy="324.54545454545456" r="3" fill="#2563eb"></circle><circle class="dot" cx="382.433234421365" cy="324.54545454545456" r="3" fill="#2563eb"></circle><circle class="dot" cx="384.56973293768544" cy="324.54545454545456" r="3" fill="#2563eb"></circle><circle class="dot" cx="386.70623145400594" cy="324.54545454545456" r="3" fill="#2563eb"></circle><circle class="dot" cx="388.8427299703264" cy="324.54545454545456" r="3" fill="#2563eb"></circle><circle class="dot" cx="390.9792284866469" cy="324.54545454545456" r="3" fill="#2563eb"></circle><circle class="dot" cx="393.11572700296733" cy="324.54545454545456" r="3" fill="#2563eb"></circle><circle class="dot" cx="395.25222551928783" cy="324.54545454545456" r="3" fill="#2563eb"></circle><circle class="dot" cx="397.3887240356083" cy="324.54545454545456" r="3" fill="#2563eb"></circle><circle class="dot" cx="399.5252225519288" cy="324.54545454545456" r="3" fill="#2563eb"></circle><circle class="dot" cx="401.6617210682493" cy="324.54545454545456" r="3" fill="#2563eb"></circle><circle class="dot" cx="403.7982195845698" cy="324.54545454545456" r="3" fill="#2563eb"></circle><circle class="dot" cx="405.9347181008902" cy="324.54545454545456" r="3" fill="#2563eb"></circle><circle class="dot" cx="408.0712166172107" cy="324.54545454545456" r="3" fill="#2563eb"></circle><circle class="dot" cx="410.20771513353117" cy="324.54545454545456" r="3" fill="#2563eb"></circle><circle class="dot" cx="412.34421364985167" cy="324.54545454545456" r="3" fill="#2563eb"></circle><circle class="dot" cx="414.4807121661721" cy="324.54545454545456" r="3" fill="#2563eb"></circle><circle class="dot" cx="416.61721068249255" cy="324.54545454545456" r="3" fill="#2563eb"></circle><circle class="dot" cx="418.75370919881306" cy="324.54545454545456" r="3" fill="#2563eb"></circle><circle class="dot" cx="420.8902077151335" cy="324.54545454545456" r="3" fill="#2563eb"></circle><circle class="dot" cx="423.026706231454" cy="324.54545454545456" r="3" fill="#2563eb"></circle><circle class="dot" cx="425.16320474777444" cy="324.54545454545456" r="3" fill="#2563eb"></circle><circle class="dot" cx="427.29970326409494" cy="324.54545454545456" r="3" fill="#2563eb"></circle><circle class="dot" cx="429.43620178041544" cy="324.54545454545456" r="3" fill="#2563eb"></circle><circle class="dot" cx="431.57270029673595" cy="324.54545454545456" r="3" fill="#2563eb"></circle><circle class="dot" cx="433.7091988130564" cy="324.54545454545456" r="3" fill="#2563eb"></circle><circle class="dot" cx="435.8456973293769" cy="324.54545454545456" r="3" fill="#2563eb"></circle><circle class="dot" cx="437.98219584569733" cy="324.54545454545456" r="3" fill="#2563eb"></circle><circle class="dot" cx="440.11869436201783" cy="324.54545454545456" r="3" fill="#2563eb"></circle><circle class="dot" cx="442.2551928783383" cy="324.54545454545456" r="3" fill="#2563eb"></circle><circle class="dot" cx="444.3916913946588" cy="324.54545454545456" r="3" fill="#2563eb"></circle><circle class="dot" cx="446.5281899109792" cy="324.54545454545456" r="3" fill="#2563eb"></circle><circle class="dot" cx="448.66468842729967" cy="324.54545454545456" r="3" fill="#2563eb"></circle><circle class="dot" cx="450.80118694362017" cy="324.54545454545456" r="3" fill="#2563eb"></circle><circle class="dot" cx="452.9376854599406" cy="324.54545454545456" r="3" fill="#2563eb"></circle><circle class="dot" cx="455.0741839762611" cy="324.54545454545456" r="3" fill="#2563eb"></circle><circle class="dot" cx="457.21068249258167" cy="324.54545454545456" r="3" fill="#2563eb"></circle><circle class="dot" cx="459.3471810089021" cy="324.54545454545456" r="3" fill="#2563eb"></circle><circle class="dot" cx="461.48367952522256" cy="324.54545454545456" r="3" fill="#2563eb"></circle><circle class="dot" cx="463.62017804154306" cy="324.54545454545456" r="3" fill="#2563eb"></circle><circle class="dot" cx="465.7566765578635" cy="324.54545454545456" r="3" fill="#2563eb"></circle><circle class="dot" cx="467.893175074184" cy="324.54545454545456" r="3" fill="#2563eb"></circle><circle class="dot" cx="470.02967359050444" cy="324.54545454545456" r="3" fill="#2563eb"></circle><circle class="dot" cx="472.16617210682494" cy="324.54545454545456" r="3" fill="#2563eb"></circle><circle class="dot" cx="474.3026706231454" cy="324.54545454545456" r="3" fill="#2563eb"></circle><circle class="dot" cx="476.43916913946583" cy="324.54545454545456" r="3" fill="#2563eb"></circle><circle class="dot" cx="478.57566765578633" cy="324.54545454545456" r="3" fill="#2563eb"></circle><circle class="dot" cx="480.7121661721068" cy="324.54545454545456" r="3" fill="#2563eb"></circle><circle class="dot" cx="482.8486646884273" cy="324.54545454545456" r="3" fill="#2563eb"></circle><circle class="dot" cx="484.98516320474783" cy="324.54545454545456" r="3" fill="#2563eb"></circle><circle class="dot" cx="487.1216617210683" cy="324.54545454545456" r="3" fill="#2563eb"></circle><circle class="dot" cx="489.2581602373888" cy="324.54545454545456" r="3" fill="#2563eb"></circle><circle class="dot" cx="491.3946587537092" cy="324.54545454545456" r="3" fill="#2563eb"></circle><circle class="dot" cx="493.53115727002967" cy="324.54545454545456" r="3" fill="#2563eb"></circle><circle class="dot" cx="495.66765578635017" cy="324.54545454545456" r="3" fill="#2563eb"></circle><circle class="dot" cx="497.8041543026706" cy="324.54545454545456" r="3" fill="#2563eb"></circle><circle class="dot" cx="499.9406528189911" cy="324.54545454545456" r="3" fill="#2563eb"></circle><circle class="dot" cx="502.07715133531156" cy="324.54545454545456" r="3" fill="#2563eb"></circle><circle class="dot" cx="504.21364985163206" cy="324.54545454545456" r="3" fill="#2563eb"></circle><circle class="dot" cx="506.3501483679525" cy="324.54545454545456" r="3" fill="#2563eb"></circle><circle class="dot" cx="508.48664688427294" cy="336.90909090909093" r="3" fill="#2563eb"></circle><circle class="dot" cx="510.62314540059344" cy="336.90909090909093" r="3" fill="#2563eb"></circle><circle class="dot" cx="512.759643916914" cy="336.90909090909093" r="3" fill="#2563eb"></circle><circle class="dot" cx="514.8961424332344" cy="336.90909090909093" r="3" fill="#2563eb"></circle><circle class="dot" cx="517.0326409495549" cy="336.90909090909093" r="3" fill="#2563eb"></circle><circle class="dot" cx="519.1691394658754" cy="336.90909090909093" r="3" fill="#2563eb"></circle><circle class="dot" cx="521.3056379821959" cy="336.90909090909093" r="3" fill="#2563eb"></circle><circle class="dot" cx="523.4421364985163" cy="336.90909090909093" r="3" fill="#2563eb"></circle><circle class="dot" cx="525.5786350148368" cy="336.90909090909093" r="3" fill="#2563eb"></circle><circle class="dot" cx="527.7151335311572" cy="336.90909090909093" r="3" fill="#2563eb"></circle><circle class="dot" cx="529.8516320474778" cy="336.90909090909093" r="3" fill="#2563eb"></circle><circle class="dot" cx="531.9881305637982" cy="336.90909090909093" r="3" fill="#2563eb"></circle><circle class="dot" cx="534.1246290801187" cy="336.90909090909093" r="3" fill="#2563eb"></circle><circle class="dot" cx="536.2611275964391" cy="336.90909090909093" r="3" fill="#2563eb"></circle><circle class="dot" cx="538.3976261127596" cy="336.90909090909093" r="3" fill="#2563eb"></circle><circle class="dot" cx="540.5341246290801" cy="336.90909090909093" r="3" fill="#2563eb"></circle><circle class="dot" cx="542.6706231454007" cy="336.90909090909093" r="3" fill="#2563eb"></circle><circle class="dot" cx="544.8071216617211" cy="336.90909090909093" r="3" fill="#2563eb"></circle><circle class="dot" cx="546.9436201780416" cy="336.90909090909093" r="3" fill="#2563eb"></circle><circle class="dot" cx="549.080118694362" cy="336.90909090909093" r="3" fill="#2563eb"></circle><circle class="dot" cx="551.2166172106824" cy="336.90909090909093" r="3" fill="#2563eb"></circle><circle class="dot" cx="553.353115727003" cy="336.90909090909093" r="3" fill="#2563eb"></circle><circle class="dot" cx="555.4896142433234" cy="336.90909090909093" r="3" fill="#2563eb"></circle><circle class="dot" cx="557.6261127596439" cy="336.90909090909093" r="3" fill="#2563eb"></circle><circle class="dot" cx="559.7626112759643" cy="336.90909090909093" r="3" fill="#2563eb"></circle><circle class="dot" cx="561.8991097922849" cy="336.90909090909093" r="3" fill="#2563eb"></circle><circle class="dot" cx="564.0356083086053" cy="336.90909090909093" r="3" fill="#2563eb"></circle><circle class="dot" cx="566.1721068249258" cy="336.90909090909093" r="3" fill="#2563eb"></circle><circle class="dot" cx="568.3086053412463" cy="336.90909090909093" r="3" fill="#2563eb"></circle><circle class="dot" cx="570.4451038575668" cy="336.90909090909093" r="3" fill="#2563eb"></circle><circle class="dot" cx="572.5816023738872" cy="336.90909090909093" r="3" fill="#2563eb"></circle><circle class="dot" cx="574.7181008902078" cy="336.90909090909093" r="3" fill="#2563eb"></circle><circle class="dot" cx="576.8545994065282" cy="336.90909090909093" r="3" fill="#2563eb"></circle><circle class="dot" cx="578.9910979228487" cy="336.90909090909093" r="3" fill="#2563eb"></circle><circle class="dot" cx="581.1275964391691" cy="336.90909090909093" r="3" fill="#2563eb"></circle><circle class="dot" cx="583.2640949554896" cy="336.90909090909093" r="3" fill="#2563eb"></circle><circle class="dot" cx="585.4005934718101" cy="336.90909090909093" r="3" fill="#2563eb"></circle><circle class="dot" cx="587.5370919881306" cy="336.90909090909093" r="3" fill="#2563eb"></circle><circle class="dot" cx="589.673590504451" cy="336.90909090909093" r="3" fill="#2563eb"></circle><circle class="dot" cx="591.8100890207714" cy="336.90909090909093" r="3" fill="#2563eb"></circle><circle class="dot" cx="593.946587537092" cy="336.90909090909093" r="3" fill="#2563eb"></circle><circle class="dot" cx="596.0830860534124" cy="336.90909090909093" r="3" fill="#2563eb"></circle><circle class="dot" cx="598.219584569733" cy="336.90909090909093" r="3" fill="#2563eb"></circle><circle class="dot" cx="600.3560830860534" cy="336.90909090909093" r="3" fill="#2563eb"></circle><circle class="dot" cx="602.4925816023739" cy="336.90909090909093" r="3" fill="#2563eb"></circle><circle class="dot" cx="604.6290801186943" cy="336.90909090909093" r="3" fill="#2563eb"></circle><circle class="dot" cx="606.7655786350149" cy="336.90909090909093" r="3" fill="#2563eb"></circle><circle class="dot" cx="608.9020771513353" cy="336.90909090909093" r="3" fill="#2563eb"></circle><circle class="dot" cx="611.0385756676558" cy="336.90909090909093" r="3" fill="#2563eb"></circle><circle class="dot" cx="613.1750741839762" cy="336.90909090909093" r="3" fill="#2563eb"></circle><circle class="dot" cx="615.3115727002967" cy="336.90909090909093" r="3" fill="#2563eb"></circle><circle class="dot" cx="617.4480712166172" cy="336.90909090909093" r="3" fill="#2563eb"></circle><circle class="dot" cx="619.5845697329377" cy="336.90909090909093" r="3" fill="#2563eb"></circle><circle class="dot" cx="621.7210682492581" cy="336.90909090909093" r="3" fill="#2563eb"></circle><circle class="dot" cx="623.8575667655787" cy="336.90909090909093" r="3" fill="#2563eb"></circle><circle class="dot" cx="625.9940652818991" cy="336.90909090909093" r="3" fill="#2563eb"></circle><circle class="dot" cx="628.1305637982196" cy="336.90909090909093" r="3" fill="#2563eb"></circle><circle class="dot" cx="630.2670623145401" cy="336.90909090909093" r="3" fill="#2563eb"></circle><circle class="dot" cx="632.4035608308606" cy="336.90909090909093" r="3" fill="#2563eb"></circle><circle class="dot" cx="634.540059347181" cy="336.90909090909093" r="3" fill="#2563eb"></circle><circle class="dot" cx="636.6765578635014" cy="336.90909090909093" r="3" fill="#2563eb"></circle><circle class="dot" cx="638.813056379822" cy="336.90909090909093" r="3" fill="#2563eb"></circle><circle class="dot" cx="640.9495548961424" cy="336.90909090909093" r="3" fill="#2563eb"></circle><circle class="dot" cx="643.0860534124629" cy="336.90909090909093" r="3" fill="#2563eb"></circle><circle class="dot" cx="645.2225519287833" cy="336.90909090909093" r="3" fill="#2563eb"></circle><circle class="dot" cx="647.3590504451038" cy="336.90909090909093" r="3" fill="#2563eb"></circle><circle class="dot" cx="649.4955489614243" cy="336.90909090909093" r="3" fill="#2563eb"></circle><circle class="dot" cx="651.6320474777449" cy="336.90909090909093" r="3" fill="#2563eb"></circle><circle class="dot" cx="653.7685459940653" cy="336.90909090909093" r="3" fill="#2563eb"></circle><circle class="dot" cx="655.9050445103858" cy="336.90909090909093" r="3" fill="#2563eb"></circle><circle class="dot" cx="658.0415430267062" cy="336.90909090909093" r="3" fill="#2563eb"></circle><circle class="dot" cx="660.1780415430267" cy="336.90909090909093" r="3" fill="#2563eb"></circle><circle class="dot" cx="662.3145400593472" cy="336.90909090909093" r="3" fill="#2563eb"></circle><circle class="dot" cx="664.4510385756677" cy="336.90909090909093" r="3" fill="#2563eb"></circle><circle class="dot" cx="666.5875370919881" cy="336.90909090909093" r="3" fill="#2563eb"></circle><circle class="dot" cx="668.7240356083086" cy="336.90909090909093" r="3" fill="#2563eb"></circle><circle class="dot" cx="670.8605341246291" cy="336.90909090909093" r="3" fill="#2563eb"></circle><circle class="dot" cx="672.9970326409496" cy="336.90909090909093" r="3" fill="#2563eb"></circle><circle class="dot" cx="675.13353115727" cy="336.90909090909093" r="3" fill="#2563eb"></circle><circle class="dot" cx="677.2700296735904" cy="336.90909090909093" r="3" fill="#2563eb"></circle><circle class="dot" cx="679.406528189911" cy="336.90909090909093" r="3" fill="#2563eb"></circle><circle class="dot" cx="681.5430267062314" cy="336.90909090909093" r="3" fill="#2563eb"></circle><circle class="dot" cx="683.679525222552" cy="336.90909090909093" r="3" fill="#2563eb"></circle><circle class="dot" cx="685.8160237388724" cy="336.90909090909093" r="3" fill="#2563eb"></circle><circle class="dot" cx="687.9525222551929" cy="336.90909090909093" r="3" fill="#2563eb"></circle><circle class="dot" cx="690.0890207715133" cy="336.90909090909093" r="3" fill="#2563eb"></circle><circle class="dot" cx="692.2255192878338" cy="336.90909090909093" r="3" fill="#2563eb"></circle><circle class="dot" cx="694.3620178041543" cy="336.90909090909093" r="3" fill="#2563eb"></circle><circle class="dot" cx="696.4985163204748" cy="336.90909090909093" r="3" fill="#2563eb"></circle><circle class="dot" cx="698.6350148367952" cy="336.90909090909093" r="3" fill="#2563eb"></circle><circle class="dot" cx="700.7715133531157" cy="336.90909090909093" r="3" fill="#2563eb"></circle><circle class="dot" cx="702.9080118694362" cy="336.90909090909093" r="3" fill="#2563eb"></circle><circle class="dot" cx="705.0445103857567" cy="336.90909090909093" r="3" fill="#2563eb"></circle><circle class="dot" cx="707.1810089020772" cy="336.90909090909093" r="3" fill="#2563eb"></circle><circle class="dot" cx="709.3175074183977" cy="336.90909090909093" r="3" fill="#2563eb"></circle><circle class="dot" cx="711.4540059347181" cy="336.90909090909093" r="3" fill="#2563eb"></circle><circle class="dot" cx="713.5905044510386" cy="336.90909090909093" r="3" fill="#2563eb"></circle><circle class="dot" cx="715.7270029673591" cy="336.90909090909093" r="3" fill="#2563eb"></circle><circle class="dot" cx="717.8635014836796" cy="336.90909090909093" r="3" fill="#2563eb"></circle><circle class="dot" cx="720" cy="336.90909090909093" r="3" fill="#2563eb"></circle><g class="grid" transform="translate(0,340)" fill="none" font-size="10" font-family="sans-serif" text-anchor="middle" style="stroke-dasharray: 3,3; opacity: 0.3;"><path class="domain" stroke="currentColor" d="M0.5,-340V0.5H720.5V-340"></path><g class="tick" opacity="1" transform="translate(0.5,0)"><line stroke="currentColor" y2="-340"></line><text fill="currentColor" y="3" dy="0.71em"></text></g><g class="tick" opacity="1" transform="translate(51.775964391691396,0)"><line stroke="currentColor" y2="-340"></line><text fill="currentColor" y="3" dy="0.71em"></text></g><g class="tick" opacity="1" transform="translate(103.05192878338279,0)"><line stroke="currentColor" y2="-340"></line><text fill="currentColor" y="3" dy="0.71em"></text></g><g class="tick" opacity="1" transform="translate(154.32789317507417,0)"><line stroke="currentColor" y2="-340"></line><text fill="currentColor" y="3" dy="0.71em"></text></g><g class="tick" opacity="1" transform="translate(205.60385756676558,0)"><line stroke="currentColor" y2="-340"></line><text fill="currentColor" y="3" dy="0.71em"></text></g><g class="tick" opacity="1" transform="translate(256.879821958457,0)"><line stroke="currentColor" y2="-340"></line><text fill="currentColor" y="3" dy="0.71em"></text></g><g class="tick" opacity="1" transform="translate(308.15578635014833,0)"><line stroke="currentColor" y2="-340"></line><text fill="currentColor" y="3" dy="0.71em"></text></g><g class="tick" opacity="1" transform="translate(359.4317507418398,0)"><line stroke="currentColor" y2="-340"></line><text fill="currentColor" y="3" dy="0.71em"></text></g><g class="tick" opacity="1" transform="translate(410.70771513353117,0)"><line stroke="currentColor" y2="-340"></line><text fill="currentColor" y="3" dy="0.71em"></text></g><g class="tick" opacity="1" transform="translate(461.98367952522256,0)"><line stroke="currentColor" y2="-340"></line><text fill="currentColor" y="3" dy="0.71em"></text></g><g class="tick" opacity="1" transform="translate(513.259643916914,0)"><line stroke="currentColor" y2="-340"></line><text fill="currentColor" y="3" dy="0.71em"></text></g><g class="tick" opacity="1" transform="translate(564.5356083086053,0)"><line stroke="currentColor" y2="-340"></line><text fill="currentColor" y="3" dy="0.71em"></text></g><g class="tick" opacity="1" transform="translate(615.8115727002967,0)"><line stroke="currentColor" y2="-340"></line><text fill="currentColor" y="3" dy="0.71em"></text></g><g class="tick" opacity="1" transform="translate(667.0875370919881,0)"><line stroke="currentColor" y2="-340"></line><text fill="currentColor" y="3" dy="0.71em"></text></g><g class="tick" opacity="1" transform="translate(718.3635014836796,0)"><line stroke="currentColor" y2="-340"></line><text fill="currentColor" y="3" dy="0.71em"></text></g></g><g class="grid" fill="none" font-size="10" font-family="sans-serif" text-anchor="end" style="stroke-dasharray: 3,3; opacity: 0.3;"><path class="domain" stroke="currentColor" d="M720,340.5H0.5V0.5H720"></path><g class="tick" opacity="1" transform="translate(0,340.5)"><line stroke="currentColor" x2="720"></line><text fill="currentColor" x="-3" dy="0.32em"></text></g><g class="tick" opacity="1" transform="translate(0,309.59090909090907)"><line stroke="currentColor" x2="720"></line><text fill="currentColor" x="-3" dy="0.32em"></text></g><g class="tick" opacity="1" transform="translate(0,278.6818181818182)"><line stroke="currentColor" x2="720"></line><text fill="currentColor" x="-3" dy="0.32em"></text></g><g class="tick" opacity="1" transform="translate(0,247.77272727272728)"><line stroke="currentColor" x2="720"></line><text fill="currentColor" x="-3" dy="0.32em"></text></g><g class="tick" opacity="1" transform="translate(0,216.86363636363637)"><line stroke="currentColor" x2="720"></line><text fill="currentColor" x="-3" dy="0.32em"></text></g><g class="tick" opacity="1" transform="translate(0,185.95454545454544)"><line stroke="currentColor" x2="720"></line><text fill="currentColor" x="-3" dy="0.32em"></text></g><g class="tick" opacity="1" transform="translate(0,155.04545454545456)"><line stroke="currentColor" x2="720"></line><text fill="currentColor" x="-3" dy="0.32em"></text></g><g class="tick" opacity="1" transform="translate(0,124.13636363636368)"><line stroke="currentColor" x2="720"></line><text fill="currentColor" x="-3" dy="0.32em"></text></g><g class="tick" opacity="1" transform="translate(0,93.22727272727272)"><line stroke="currentColor" x2="720"></line><text fill="currentColor" x="-3" dy="0.32em"></text></g><g class="tick" opacity="1" transform="translate(0,62.31818181818184)"><line stroke="currentColor" x2="720"></line><text fill="currentColor" x="-3" dy="0.32em"></text></g><g class="tick" opacity="1" transform="translate(0,31.40909090909092)"><line stroke="currentColor" x2="720"></line><text fill="currentColor" x="-3" dy="0.32em"></text></g><g class="tick" opacity="1" transform="translate(0,0.5)"><line stroke="currentColor" x2="720"></line><text fill="currentColor" x="-3" dy="0.32em"></text></g></g></g><text x="400" y="10" text-anchor="middle" style="font-size: 16px; font-weight: bold; fill: #333;">OKX USDT Lending Rate - Current Month</text></svg>