<svg width="800" height="400" xmlns="http://www.w3.org/2000/svg"><g transform="translate(50,20)"><g transform="translate(0,340)" fill="none" font-size="10" font-family="sans-serif" text-anchor="middle"><path class="domain" stroke="currentColor" d="M0.5,6V0.5H720.5V6"></path><g class="tick" opacity="1" transform="translate(0.5,0)"><line stroke="currentColor" y2="6"></line><text fill="currentColor" y="9" dy=".15em" style="text-anchor: end;" dx="-.8em" transform="rotate(-45)">12/01</text></g><g class="tick" opacity="1" transform="translate(45.266839378238345,0)"><line stroke="currentColor" y2="6"></line><text fill="currentColor" y="9" dy=".15em" style="text-anchor: end;" dx="-.8em" transform="rotate(-45)">12/02</text></g><g class="tick" opacity="1" transform="translate(90.03367875647669,0)"><line stroke="currentColor" y2="6"></line><text fill="currentColor" y="9" dy=".15em" style="text-anchor: end;" dx="-.8em" transform="rotate(-45)">12/03</text></g><g class="tick" opacity="1" transform="translate(134.80051813471502,0)"><line stroke="currentColor" y2="6"></line><text fill="currentColor" y="9" dy=".15em" style="text-anchor: end;" dx="-.8em" transform="rotate(-45)">12/04</text></g><g class="tick" opacity="1" transform="translate(179.56735751295338,0)"><line stroke="currentColor" y2="6"></line><text fill="currentColor" y="9" dy=".15em" style="text-anchor: end;" dx="-.8em" transform="rotate(-45)">12/05</text></g><g class="tick" opacity="1" transform="translate(224.3341968911917,0)"><line stroke="currentColor" y2="6"></line><text fill="currentColor" y="9" dy=".15em" style="text-anchor: end;" dx="-.8em" transform="rotate(-45)">12/06</text></g><g class="tick" opacity="1" transform="translate(269.10103626943004,0)"><line stroke="currentColor" y2="6"></line><text fill="currentColor" y="9" dy=".15em" style="text-anchor: end;" dx="-.8em" transform="rotate(-45)">12/07</text></g><g class="tick" opacity="1" transform="translate(313.86787564766837,0)"><line stroke="currentColor" y2="6"></line><text fill="currentColor" y="9" dy=".15em" style="text-anchor: end;" dx="-.8em" transform="rotate(-45)">12/08</text></g><g class="tick" opacity="1" transform="translate(358.63471502590676,0)"><line stroke="currentColor" y2="6"></line><text fill="currentColor" y="9" dy=".15em" style="text-anchor: end;" dx="-.8em" transform="rotate(-45)">12/09</text></g><g class="tick" opacity="1" transform="translate(403.4015544041451,0)"><line stroke="currentColor" y2="6"></line><text fill="currentColor" y="9" dy=".15em" style="text-anchor: end;" dx="-.8em" transform="rotate(-45)">12/10</text></g><g class="tick" opacity="1" transform="translate(448.1683937823834,0)"><line stroke="currentColor" y2="6"></line><text fill="currentColor" y="9" dy=".15em" style="text-anchor: end;" dx="-.8em" transform="rotate(-45)">12/11</text></g><g class="tick" opacity="1" transform="translate(492.93523316062175,0)"><line stroke="currentColor" y2="6"></line><text fill="currentColor" y="9" dy=".15em" style="text-anchor: end;" dx="-.8em" transform="rotate(-45)">12/12</text></g><g class="tick" opacity="1" transform="translate(537.7020725388601,0)"><line stroke="currentColor" y2="6"></line><text fill="currentColor" y="9" dy=".15em" style="text-anchor: end;" dx="-.8em" transform="rotate(-45)">12/13</text></g><g class="tick" opacity="1" transform="translate(582.4689119170985,0)"><line stroke="currentColor" y2="6"></line><text fill="currentColor" y="9" dy=".15em" style="text-anchor: end;" dx="-.8em" transform="rotate(-45)">12/14</text></g><g class="tick" opacity="1" transform="translate(627.2357512953367,0)"><line stroke="currentColor" y2="6"></line><text fill="currentColor" y="9" dy=".15em" style="text-anchor: end;" dx="-.8em" transform="rotate(-45)">12/15</text></g><g class="tick" opacity="1" transform="translate(672.0025906735751,0)"><line stroke="currentColor" y2="6"></line><text fill="currentColor" y="9" dy=".15em" style="text-anchor: end;" dx="-.8em" transform="rotate(-45)">12/16</text></g><g class="tick" opacity="1" transform="translate(716.7694300518135,0)"><line stroke="currentColor" y2="6"></line><text fill="currentColor" y="9" dy=".15em" style="text-anchor: end;" dx="-.8em" transform="rotate(-45)">12/17</text></g></g><g fill="none" font-size="10" font-family="sans-serif" text-anchor="end"><path class="domain" stroke="currentColor" d="M-6,340.5H0.5V0.5H-6"></path><g class="tick" opacity="1" transform="translate(0,170.5)"><line stroke="currentColor" x2="-6"></line><text fill="currentColor" x="-9" dy="0.32em">3.50%</text></g></g><text transform="rotate(-90)" y="-50" x="-170" dy="1em" style="text-anchor: middle; font-size: 12px; fill: #666;">Pre Rate (%)</text><text transform="translate(360, 380)" style="text-anchor: middle; font-size: 12px; fill: #666;">Time (UTC)</text><path fill="none" stroke="#2563eb" stroke-width="2" d="M0,170C0.622,170,1.244,170,1.865,170C2.487,170,3.109,170,3.731,170C4.352,170,4.974,170,5.596,170C6.218,170,6.839,170,7.461,170C8.083,170,8.705,170,9.326,170C9.948,170,10.57,170,11.192,170C11.813,170,12.435,170,13.057,170C13.679,170,14.301,170,14.922,170C15.544,170,16.166,170,16.788,170C17.409,170,18.031,170,18.653,170C19.275,170,19.896,170,20.518,170C21.14,170,21.762,170,22.383,170C23.005,170,23.627,170,24.249,170C24.87,170,25.492,170,26.114,170C26.736,170,27.358,170,27.979,170C28.601,170,29.223,170,29.845,170C30.466,170,31.088,170,31.71,170C32.332,170,32.953,170,33.575,170C34.197,170,34.819,170,35.44,170C36.062,170,36.684,170,37.306,170C37.927,170,38.549,170,39.171,170C39.793,170,40.415,170,41.036,170C41.658,170,42.28,170,42.902,170C43.523,170,44.145,170,44.767,170C45.389,170,46.01,170,46.632,170C47.254,170,47.876,170,48.497,170C49.119,170,49.741,170,50.363,170C50.984,170,51.606,170,52.228,170C52.85,170,53.472,170,54.093,170C54.715,170,55.337,170,55.959,170C56.58,170,57.202,170,57.824,170C58.446,170,59.067,170,59.689,170C60.311,170,60.933,170,61.554,170C62.176,170,62.798,170,63.42,170C64.041,170,64.663,170,65.285,170C65.907,170,66.528,170,67.15,170C67.772,170,68.394,170,69.016,170C69.637,170,70.259,170,70.881,170C71.503,170,72.124,170,72.746,170C73.368,170,73.99,170,74.611,170C75.233,170,75.855,170,76.477,170C77.098,170,77.72,170,78.342,170C78.964,170,79.585,170,80.207,170C80.829,170,81.451,170,82.073,170C82.694,170,83.316,170,83.938,170C84.56,170,85.181,170,85.803,170C86.425,170,87.047,170,87.668,170C88.29,170,88.912,170,89.534,170C90.155,170,90.777,170,91.399,170C92.021,170,92.642,170,93.264,170C93.886,170,94.508,170,95.13,170C95.751,170,96.373,170,96.995,170C97.617,170,98.238,170,98.86,170C99.482,170,100.104,170,100.725,170C101.347,170,101.969,170,102.591,170C103.212,170,103.834,170,104.456,170C105.078,170,105.699,170,106.321,170C106.943,170,107.565,170,108.187,170C108.808,170,109.43,170,110.052,170C110.674,170,111.295,170,111.917,170C112.539,170,113.161,170,113.782,170C114.404,170,115.026,170,115.648,170C116.269,170,116.891,170,117.513,170C118.135,170,118.756,170,119.378,170C120,170,120.622,170,121.244,170C121.865,170,122.487,170,123.109,170C123.731,170,124.352,170,124.974,170C125.596,170,126.218,170,126.839,170C127.461,170,128.083,170,128.705,170C129.326,170,129.948,170,130.57,170C131.192,170,131.813,170,132.435,170C133.057,170,133.679,170,134.301,170C134.922,170,135.544,170,136.166,170C136.788,170,137.409,170,138.031,170C138.653,170,139.275,170,139.896,170C140.518,170,141.14,170,141.762,170C142.383,170,143.005,170,143.627,170C144.249,170,144.87,170,145.492,170C146.114,170,146.736,170,147.358,170C147.979,170,148.601,170,149.223,170C149.845,170,150.466,170,151.088,170C151.71,170,152.332,170,152.953,170C153.575,170,154.197,170,154.819,170C155.44,170,156.062,170,156.684,170C157.306,170,157.927,170,158.549,170C159.171,170,159.793,170,160.415,170C161.036,170,161.658,170,162.28,170C162.902,170,163.523,170,164.145,170C164.767,170,165.389,170,166.01,170C166.632,170,167.254,170,167.876,170C168.497,170,169.119,170,169.741,170C170.363,170,170.984,170,171.606,170C172.228,170,172.85,170,173.472,170C174.093,170,174.715,170,175.337,170C175.959,170,176.58,170,177.202,170C177.824,170,178.446,170,179.067,170C179.689,170,180.311,170,180.933,170C181.554,170,182.176,170,182.798,170C183.42,170,184.041,170,184.663,170C185.285,170,185.907,170,186.528,170C187.15,170,187.772,170,188.394,170C189.016,170,189.637,170,190.259,170C190.881,170,191.503,170,192.124,170C192.746,170,193.368,170,193.99,170C194.611,170,195.233,170,195.855,170C196.477,170,197.098,170,197.72,170C198.342,170,198.964,170,199.585,170C200.207,170,200.829,170,201.451,170C202.073,170,202.694,170,203.316,170C203.938,170,204.56,170,205.181,170C205.803,170,206.425,170,207.047,170C207.668,170,208.29,170,208.912,170C209.534,170,210.155,170,210.777,170C211.399,170,212.021,170,212.642,170C213.264,170,213.886,170,214.508,170C215.13,170,215.751,170,216.373,170C216.995,170,217.617,170,218.238,170C218.86,170,219.482,170,220.104,170C220.725,170,221.347,170,221.969,170C222.591,170,223.212,170,223.834,170C224.456,170,225.078,170,225.699,170C226.321,170,226.943,170,227.565,170C228.187,170,228.808,170,229.43,170C230.052,170,230.674,170,231.295,170C231.917,170,232.539,170,233.161,170C233.782,170,234.404,170,235.026,170C235.648,170,236.269,170,236.891,170C237.513,170,238.135,170,238.756,170C239.378,170,240,170,240.622,170C241.244,170,241.865,170,242.487,170C243.109,170,243.731,170,244.352,170C244.974,170,245.596,170,246.218,170C246.839,170,247.461,170,248.083,170C248.705,170,249.326,170,249.948,170C250.57,170,251.192,170,251.813,170C252.435,170,253.057,170,253.679,170C254.301,170,254.922,170,255.544,170C256.166,170,256.788,170,257.409,170C258.031,170,258.653,170,259.275,170C259.896,170,260.518,170,261.14,170C261.762,170,262.383,170,263.005,170C263.627,170,264.249,170,264.87,170C265.492,170,266.114,170,266.736,170C267.358,170,267.979,170,268.601,170C269.223,170,269.845,170,270.466,170C271.088,170,271.71,170,272.332,170C272.953,170,273.575,170,274.197,170C274.819,170,275.44,170,276.062,170C276.684,170,277.306,170,277.927,170C278.549,170,279.171,170,279.793,170C280.415,170,281.036,170,281.658,170C282.28,170,282.902,170,283.523,170C284.145,170,284.767,170,285.389,170C286.01,170,286.632,170,287.254,170C287.876,170,288.497,170,289.119,170C289.741,170,290.363,170,290.984,170C291.606,170,292.228,170,292.85,170C293.472,170,294.093,170,294.715,170C295.337,170,295.959,170,296.58,170C297.202,170,297.824,170,298.446,170C299.067,170,299.689,170,300.311,170C300.933,170,301.554,170,302.176,170C302.798,170,303.42,170,304.041,170C304.663,170,305.285,170,305.907,170C306.528,170,307.15,170,307.772,170C308.394,170,309.016,170,309.637,170C310.259,170,310.881,170,311.503,170C312.124,170,312.746,170,313.368,170C313.99,170,314.611,170,315.233,170C315.855,170,316.477,170,317.098,170C317.72,170,318.342,170,318.964,170C319.585,170,320.207,170,320.829,170C321.451,170,322.073,170,322.694,170C323.316,170,323.938,170,324.56,170C325.181,170,325.803,170,326.425,170C327.047,170,327.668,170,328.29,170C328.912,170,329.534,170,330.155,170C330.777,170,331.399,170,332.021,170C332.642,170,333.264,170,333.886,170C334.508,170,335.13,170,335.751,170C336.373,170,336.995,170,337.617,170C338.238,170,338.86,170,339.482,170C340.104,170,340.725,170,341.347,170C341.969,170,342.591,170,343.212,170C343.834,170,344.456,170,345.078,170C345.699,170,346.321,170,346.943,170C347.565,170,348.187,170,348.808,170C349.43,170,350.052,170,350.674,170C351.295,170,351.917,170,352.539,170C353.161,170,353.782,170,354.404,170C355.026,170,355.648,170,356.269,170C356.891,170,357.513,170,358.135,170C358.756,170,359.378,170,360,170C360.622,170,361.244,170,361.865,170C362.487,170,363.109,170,363.731,170C364.352,170,364.974,170,365.596,170C366.218,170,366.839,170,367.461,170C368.083,170,368.705,170,369.326,170C369.948,170,370.57,170,371.192,170C371.813,170,372.435,170,373.057,170C373.679,170,374.301,170,374.922,170C375.544,170,376.166,170,376.788,170C377.409,170,378.031,170,378.653,170C379.275,170,379.896,170,380.518,170C381.14,170,381.762,170,382.383,170C383.005,170,383.627,170,384.249,170C384.87,170,385.492,170,386.114,170C386.736,170,387.358,170,387.979,170C388.601,170,389.223,170,389.845,170C390.466,170,391.088,170,391.71,170C392.332,170,392.953,170,393.575,170C394.197,170,394.819,170,395.44,170C396.062,170,396.684,170,397.306,170C397.927,170,398.549,170,399.171,170C399.793,170,400.415,170,401.036,170C401.658,170,402.28,170,402.902,170C403.523,170,404.145,170,404.767,170C405.389,170,406.01,170,406.632,170C407.254,170,407.876,170,408.497,170C409.119,170,409.741,170,410.363,170C410.984,170,411.606,170,412.228,170C412.85,170,413.472,170,414.093,170C414.715,170,415.337,170,415.959,170C416.58,170,417.202,170,417.824,170C418.446,170,419.067,170,419.689,170C420.311,170,420.933,170,421.554,170C422.176,170,422.798,170,423.42,170C424.041,170,424.663,170,425.285,170C425.907,170,426.528,170,427.15,170C427.772,170,428.394,170,429.016,170C429.637,170,430.259,170,430.881,170C431.503,170,432.124,170,432.746,170C433.368,170,433.99,170,434.611,170C435.233,170,435.855,170,436.477,170C437.098,170,437.72,170,438.342,170C438.964,170,439.585,170,440.207,170C440.829,170,441.451,170,442.073,170C442.694,170,443.316,170,443.938,170C444.56,170,445.181,170,445.803,170C446.425,170,447.047,170,447.668,170C448.29,170,448.912,170,449.534,170C450.155,170,450.777,170,451.399,170C452.021,170,452.642,170,453.264,170C453.886,170,454.508,170,455.13,170C455.751,170,456.373,170,456.995,170C457.617,170,458.238,170,458.86,170C459.482,170,460.104,170,460.725,170C461.347,170,461.969,170,462.591,170C463.212,170,463.834,170,464.456,170C465.078,170,465.699,170,466.321,170C466.943,170,467.565,170,468.187,170C468.808,170,469.43,170,470.052,170C470.674,170,471.295,170,471.917,170C472.539,170,473.161,170,473.782,170C474.404,170,475.026,170,475.648,170C476.269,170,476.891,170,477.513,170C478.135,170,478.756,170,479.378,170C480,170,480.622,170,481.244,170C481.865,170,482.487,170,483.109,170C483.731,170,484.352,170,484.974,170C485.596,170,486.218,170,486.839,170C487.461,170,488.083,170,488.705,170C489.326,170,489.948,170,490.57,170C491.192,170,491.813,170,492.435,170C493.057,170,493.679,170,494.301,170C494.922,170,495.544,170,496.166,170C496.788,170,497.409,170,498.031,170C498.653,170,499.275,170,499.896,170C500.518,170,501.14,170,501.762,170C502.383,170,503.005,170,503.627,170C504.249,170,504.87,170,505.492,170C506.114,170,506.736,170,507.358,170C507.979,170,508.601,170,509.223,170C509.845,170,510.466,170,511.088,170C511.71,170,512.332,170,512.953,170C513.575,170,514.197,170,514.819,170C515.44,170,516.062,170,516.684,170C517.306,170,517.927,170,518.549,170C519.171,170,519.793,170,520.415,170C521.036,170,521.658,170,522.28,170C522.902,170,523.523,170,524.145,170C524.767,170,525.389,170,526.01,170C526.632,170,527.254,170,527.876,170C528.497,170,529.119,170,529.741,170C530.363,170,530.984,170,531.606,170C532.228,170,532.85,170,533.472,170C534.093,170,534.715,170,535.337,170C535.959,170,536.58,170,537.202,170C537.824,170,538.446,170,539.067,170C539.689,170,540.311,170,540.933,170C541.554,170,542.176,170,542.798,170C543.42,170,544.041,170,544.663,170C545.285,170,545.907,170,546.528,170C547.15,170,547.772,170,548.394,170C549.016,170,549.637,170,550.259,170C550.881,170,551.503,170,552.124,170C552.746,170,553.368,170,553.99,170C554.611,170,555.233,170,555.855,170C556.477,170,557.098,170,557.72,170C558.342,170,558.964,170,559.585,170C560.207,170,560.829,170,561.451,170C562.073,170,562.694,170,563.316,170C563.938,170,564.56,170,565.181,170C565.803,170,566.425,170,567.047,170C567.668,170,568.29,170,568.912,170C569.534,170,570.155,170,570.777,170C571.399,170,572.021,170,572.642,170C573.264,170,573.886,170,574.508,170C575.13,170,575.751,170,576.373,170C576.995,170,577.617,170,578.238,170C578.86,170,579.482,170,580.104,170C580.725,170,581.347,170,581.969,170C582.591,170,583.212,170,583.834,170C584.456,170,585.078,170,585.699,170C586.321,170,586.943,170,587.565,170C588.187,170,588.808,170,589.43,170C590.052,170,590.674,170,591.295,170C591.917,170,592.539,170,593.161,170C593.782,170,594.404,170,595.026,170C595.648,170,596.269,170,596.891,170C597.513,170,598.135,170,598.756,170C599.378,170,600,170,600.622,170C601.244,170,601.865,170,602.487,170C603.109,170,603.731,170,604.352,170C604.974,170,605.596,170,606.218,170C606.839,170,607.461,170,608.083,170C608.705,170,609.326,170,609.948,170C610.57,170,611.192,170,611.813,170C612.435,170,613.057,170,613.679,170C614.301,170,614.922,170,615.544,170C616.166,170,616.788,170,617.409,170C618.031,170,618.653,170,619.275,170C619.896,170,620.518,170,621.14,170C621.762,170,622.383,170,623.005,170C623.627,170,624.249,170,624.87,170C625.492,170,626.114,170,626.736,170C627.358,170,627.979,170,628.601,170C629.223,170,629.845,170,630.466,170C631.088,170,631.71,170,632.332,170C632.953,170,633.575,170,634.197,170C634.819,170,635.44,170,636.062,170C636.684,170,637.306,170,637.927,170C638.549,170,639.171,170,639.793,170C640.415,170,641.036,170,641.658,170C642.28,170,642.902,170,643.523,170C644.145,170,644.767,170,645.389,170C646.01,170,646.632,170,647.254,170C647.876,170,648.497,170,649.119,170C649.741,170,650.363,170,650.984,170C651.606,170,652.228,170,652.85,170C653.472,170,654.093,170,654.715,170C655.337,170,655.959,170,656.58,170C657.202,170,657.824,170,658.446,170C659.067,170,659.689,170,660.311,170C660.933,170,661.554,170,662.176,170C662.798,170,663.42,170,664.041,170C664.663,170,665.285,170,665.907,170C666.528,170,667.15,170,667.772,170C668.394,170,669.016,170,669.637,170C670.259,170,670.881,170,671.503,170C672.124,170,672.746,170,673.368,170C673.99,170,674.611,170,675.233,170C675.855,170,676.477,170,677.098,170C677.72,170,678.342,170,678.964,170C679.585,170,680.207,170,680.829,170C681.451,170,682.073,170,682.694,170C683.316,170,683.938,170,684.56,170C685.181,170,685.803,170,686.425,170C687.047,170,687.668,170,688.29,170C688.912,170,689.534,170,690.155,170C690.777,170,691.399,170,692.021,170C692.642,170,693.264,170,693.886,170C694.508,170,695.13,170,695.751,170C696.373,170,696.995,170,697.617,170C698.238,170,698.86,170,699.482,170C700.104,170,700.725,170,701.347,170C701.969,170,702.591,170,703.212,170C703.834,170,704.456,170,705.078,170C705.699,170,706.321,170,706.943,170C707.565,170,708.187,170,708.808,170C709.43,170,710.052,170,710.674,170C711.295,170,711.917,170,712.539,170C713.161,170,713.782,170,714.404,170C715.026,170,715.648,170,716.269,170C716.891,170,717.513,170,718.135,170C718.756,170,719.378,170,720,170"></path><circle class="dot" cx="0" cy="170" r="3" fill="#2563eb"></circle><circle class="dot" cx="1.8652849740932642" cy="170" r="3" fill="#2563eb"></circle><circle class="dot" cx="3.7305699481865284" cy="170" r="3" fill="#2563eb"></circle><circle class="dot" cx="5.595854922279793" cy="170" r="3" fill="#2563eb"></circle><circle class="dot" cx="7.461139896373057" cy="170" r="3" fill="#2563eb"></circle><circle class="dot" cx="9.32642487046632" cy="170" r="3" fill="#2563eb"></circle><circle class="dot" cx="11.191709844559586" cy="170" r="3" fill="#2563eb"></circle><circle class="dot" cx="13.056994818652848" cy="170" r="3" fill="#2563eb"></circle><circle class="dot" cx="14.922279792746114" cy="170" r="3" fill="#2563eb"></circle><circle class="dot" cx="16.787564766839377" cy="170" r="3" fill="#2563eb"></circle><circle class="dot" cx="18.65284974093264" cy="170" r="3" fill="#2563eb"></circle><circle class="dot" cx="20.51813471502591" cy="170" r="3" fill="#2563eb"></circle><circle class="dot" cx="22.383419689119172" cy="170" r="3" fill="#2563eb"></circle><circle class="dot" cx="24.248704663212436" cy="170" r="3" fill="#2563eb"></circle><circle class="dot" cx="26.113989637305696" cy="170" r="3" fill="#2563eb"></circle><circle class="dot" cx="27.979274611398964" cy="170" r="3" fill="#2563eb"></circle><circle class="dot" cx="29.844559585492227" cy="170" r="3" fill="#2563eb"></circle><circle class="dot" cx="31.70984455958549" cy="170" r="3" fill="#2563eb"></circle><circle class="dot" cx="33.575129533678755" cy="170" r="3" fill="#2563eb"></circle><circle class="dot" cx="35.44041450777202" cy="170" r="3" fill="#2563eb"></circle><circle class="dot" cx="37.30569948186528" cy="170" r="3" fill="#2563eb"></circle><circle class="dot" cx="39.170984455958546" cy="170" r="3" fill="#2563eb"></circle><circle class="dot" cx="41.03626943005182" cy="170" r="3" fill="#2563eb"></circle><circle class="dot" cx="42.901554404145074" cy="170" r="3" fill="#2563eb"></circle><circle class="dot" cx="44.766839378238345" cy="170" r="3" fill="#2563eb"></circle><circle class="dot" cx="46.6321243523316" cy="170" r="3" fill="#2563eb"></circle><circle class="dot" cx="48.49740932642487" cy="170" r="3" fill="#2563eb"></circle><circle class="dot" cx="50.362694300518136" cy="170" r="3" fill="#2563eb"></circle><circle class="dot" cx="52.22797927461139" cy="170" r="3" fill="#2563eb"></circle><circle class="dot" cx="54.09326424870466" cy="170" r="3" fill="#2563eb"></circle><circle class="dot" cx="55.95854922279793" cy="170" r="3" fill="#2563eb"></circle><circle class="dot" cx="57.823834196891184" cy="170" r="3" fill="#2563eb"></circle><circle class="dot" cx="59.689119170984455" cy="170" r="3" fill="#2563eb"></circle><circle class="dot" cx="61.55440414507772" cy="170" r="3" fill="#2563eb"></circle><circle class="dot" cx="63.41968911917098" cy="170" r="3" fill="#2563eb"></circle><circle class="dot" cx="65.28497409326425" cy="170" r="3" fill="#2563eb"></circle><circle class="dot" cx="67.15025906735751" cy="170" r="3" fill="#2563eb"></circle><circle class="dot" cx="69.01554404145077" cy="170" r="3" fill="#2563eb"></circle><circle class="dot" cx="70.88082901554404" cy="170" r="3" fill="#2563eb"></circle><circle class="dot" cx="72.74611398963731" cy="170" r="3" fill="#2563eb"></circle><circle class="dot" cx="74.61139896373057" cy="170" r="3" fill="#2563eb"></circle><circle class="dot" cx="76.47668393782384" cy="170" r="3" fill="#2563eb"></circle><circle class="dot" cx="78.34196891191709" cy="170" r="3" fill="#2563eb"></circle><circle class="dot" cx="80.20725388601036" cy="170" r="3" fill="#2563eb"></circle><circle class="dot" cx="82.07253886010363" cy="170" r="3" fill="#2563eb"></circle><circle class="dot" cx="83.93782383419689" cy="170" r="3" fill="#2563eb"></circle><circle class="dot" cx="85.80310880829015" cy="170" r="3" fill="#2563eb"></circle><circle class="dot" cx="87.66839378238342" cy="170" r="3" fill="#2563eb"></circle><circle class="dot" cx="89.53367875647669" cy="170" r="3" fill="#2563eb"></circle><circle class="dot" cx="91.39896373056996" cy="170" r="3" fill="#2563eb"></circle><circle class="dot" cx="93.2642487046632" cy="170" r="3" fill="#2563eb"></circle><circle class="dot" cx="95.12953367875647" cy="170" r="3" fill="#2563eb"></circle><circle class="dot" cx="96.99481865284974" cy="170" r="3" fill="#2563eb"></circle><circle class="dot" cx="98.860103626943" cy="170" r="3" fill="#2563eb"></circle><circle class="dot" cx="100.72538860103627" cy="170" r="3" fill="#2563eb"></circle><circle class="dot" cx="102.59067357512954" cy="170" r="3" fill="#2563eb"></circle><circle class="dot" cx="104.45595854922279" cy="170" r="3" fill="#2563eb"></circle><circle class="dot" cx="106.32124352331606" cy="170" r="3" fill="#2563eb"></circle><circle class="dot" cx="108.18652849740933" cy="170" r="3" fill="#2563eb"></circle><circle class="dot" cx="110.05181347150258" cy="170" r="3" fill="#2563eb"></circle><circle class="dot" cx="111.91709844559585" cy="170" r="3" fill="#2563eb"></circle><circle class="dot" cx="113.78238341968913" cy="170" r="3" fill="#2563eb"></circle><circle class="dot" cx="115.64766839378237" cy="170" r="3" fill="#2563eb"></circle><circle class="dot" cx="117.51295336787564" cy="170" r="3" fill="#2563eb"></circle><circle class="dot" cx="119.37823834196891" cy="170" r="3" fill="#2563eb"></circle><circle class="dot" cx="121.24352331606217" cy="170" r="3" fill="#2563eb"></circle><circle class="dot" cx="123.10880829015544" cy="170" r="3" fill="#2563eb"></circle><circle class="dot" cx="124.97409326424871" cy="170" r="3" fill="#2563eb"></circle><circle class="dot" cx="126.83937823834196" cy="170" r="3" fill="#2563eb"></circle><circle class="dot" cx="128.70466321243524" cy="170" r="3" fill="#2563eb"></circle><circle class="dot" cx="130.5699481865285" cy="170" r="3" fill="#2563eb"></circle><circle class="dot" cx="132.43523316062175" cy="170" r="3" fill="#2563eb"></circle><circle class="dot" cx="134.30051813471502" cy="170" r="3" fill="#2563eb"></circle><circle class="dot" cx="136.1658031088083" cy="170" r="3" fill="#2563eb"></circle><circle class="dot" cx="138.03108808290153" cy="170" r="3" fill="#2563eb"></circle><circle class="dot" cx="139.8963730569948" cy="170" r="3" fill="#2563eb"></circle><circle class="dot" cx="141.76165803108807" cy="170" r="3" fill="#2563eb"></circle><circle class="dot" cx="143.62694300518135" cy="170" r="3" fill="#2563eb"></circle><circle class="dot" cx="145.49222797927462" cy="170" r="3" fill="#2563eb"></circle><circle class="dot" cx="147.3575129533679" cy="170" r="3" fill="#2563eb"></circle><circle class="dot" cx="149.22279792746113" cy="170" r="3" fill="#2563eb"></circle><circle class="dot" cx="151.0880829015544" cy="170" r="3" fill="#2563eb"></circle><circle class="dot" cx="152.95336787564767" cy="170" r="3" fill="#2563eb"></circle><circle class="dot" cx="154.81865284974091" cy="170" r="3" fill="#2563eb"></circle><circle class="dot" cx="156.68393782383419" cy="170" r="3" fill="#2563eb"></circle><circle class="dot" cx="158.54922279792746" cy="170" r="3" fill="#2563eb"></circle><circle class="dot" cx="160.41450777202073" cy="170" r="3" fill="#2563eb"></circle><circle class="dot" cx="162.279792746114" cy="170" r="3" fill="#2563eb"></circle><circle class="dot" cx="164.14507772020727" cy="170" r="3" fill="#2563eb"></circle><circle class="dot" cx="166.0103626943005" cy="170" r="3" fill="#2563eb"></circle><circle class="dot" cx="167.87564766839378" cy="170" r="3" fill="#2563eb"></circle><circle class="dot" cx="169.74093264248705" cy="170" r="3" fill="#2563eb"></circle><circle class="dot" cx="171.6062176165803" cy="170" r="3" fill="#2563eb"></circle><circle class="dot" cx="173.47150259067357" cy="170" r="3" fill="#2563eb"></circle><circle class="dot" cx="175.33678756476684" cy="170" r="3" fill="#2563eb"></circle><circle class="dot" cx="177.20207253886008" cy="170" r="3" fill="#2563eb"></circle><circle class="dot" cx="179.06735751295338" cy="170" r="3" fill="#2563eb"></circle><circle class="dot" cx="180.93264248704662" cy="170" r="3" fill="#2563eb"></circle><circle class="dot" cx="182.79792746113992" cy="170" r="3" fill="#2563eb"></circle><circle class="dot" cx="184.66321243523316" cy="170" r="3" fill="#2563eb"></circle><circle class="dot" cx="186.5284974093264" cy="170" r="3" fill="#2563eb"></circle><circle class="dot" cx="188.39378238341968" cy="170" r="3" fill="#2563eb"></circle><circle class="dot" cx="190.25906735751295" cy="170" r="3" fill="#2563eb"></circle><circle class="dot" cx="192.12435233160622" cy="170" r="3" fill="#2563eb"></circle><circle class="dot" cx="193.9896373056995" cy="170" r="3" fill="#2563eb"></circle><circle class="dot" cx="195.85492227979276" cy="170" r="3" fill="#2563eb"></circle><circle class="dot" cx="197.720207253886" cy="170" r="3" fill="#2563eb"></circle><circle class="dot" cx="199.58549222797927" cy="170" r="3" fill="#2563eb"></circle><circle class="dot" cx="201.45077720207254" cy="170" r="3" fill="#2563eb"></circle><circle class="dot" cx="203.31606217616581" cy="170" r="3" fill="#2563eb"></circle><circle class="dot" cx="205.18134715025909" cy="170" r="3" fill="#2563eb"></circle><circle class="dot" cx="207.04663212435236" cy="170" r="3" fill="#2563eb"></circle><circle class="dot" cx="208.91191709844557" cy="170" r="3" fill="#2563eb"></circle><circle class="dot" cx="210.77720207253884" cy="170" r="3" fill="#2563eb"></circle><circle class="dot" cx="212.6424870466321" cy="170" r="3" fill="#2563eb"></circle><circle class="dot" cx="214.50777202072538" cy="170" r="3" fill="#2563eb"></circle><circle class="dot" cx="216.37305699481865" cy="170" r="3" fill="#2563eb"></circle><circle class="dot" cx="218.23834196891193" cy="170" r="3" fill="#2563eb"></circle><circle class="dot" cx="220.10362694300517" cy="170" r="3" fill="#2563eb"></circle><circle class="dot" cx="221.96891191709844" cy="170" r="3" fill="#2563eb"></circle><circle class="dot" cx="223.8341968911917" cy="170" r="3" fill="#2563eb"></circle><circle class="dot" cx="225.69948186528498" cy="170" r="3" fill="#2563eb"></circle><circle class="dot" cx="227.56476683937825" cy="170" r="3" fill="#2563eb"></circle><circle class="dot" cx="229.43005181347152" cy="170" r="3" fill="#2563eb"></circle><circle class="dot" cx="231.29533678756474" cy="170" r="3" fill="#2563eb"></circle><circle class="dot" cx="233.160621761658" cy="170" r="3" fill="#2563eb"></circle><circle class="dot" cx="235.02590673575128" cy="170" r="3" fill="#2563eb"></circle><circle class="dot" cx="236.89119170984455" cy="170" r="3" fill="#2563eb"></circle><circle class="dot" cx="238.75647668393782" cy="170" r="3" fill="#2563eb"></circle><circle class="dot" cx="240.6217616580311" cy="170" r="3" fill="#2563eb"></circle><circle class="dot" cx="242.48704663212433" cy="170" r="3" fill="#2563eb"></circle><circle class="dot" cx="244.3523316062176" cy="170" r="3" fill="#2563eb"></circle><circle class="dot" cx="246.21761658031087" cy="170" r="3" fill="#2563eb"></circle><circle class="dot" cx="248.08290155440415" cy="170" r="3" fill="#2563eb"></circle><circle class="dot" cx="249.94818652849742" cy="170" r="3" fill="#2563eb"></circle><circle class="dot" cx="251.8134715025907" cy="170" r="3" fill="#2563eb"></circle><circle class="dot" cx="253.67875647668393" cy="170" r="3" fill="#2563eb"></circle><circle class="dot" cx="255.5440414507772" cy="170" r="3" fill="#2563eb"></circle><circle class="dot" cx="257.40932642487047" cy="170" r="3" fill="#2563eb"></circle><circle class="dot" cx="259.2746113989637" cy="170" r="3" fill="#2563eb"></circle><circle class="dot" cx="261.139896373057" cy="170" r="3" fill="#2563eb"></circle><circle class="dot" cx="263.00518134715026" cy="170" r="3" fill="#2563eb"></circle><circle class="dot" cx="264.8704663212435" cy="170" r="3" fill="#2563eb"></circle><circle class="dot" cx="266.7357512953368" cy="170" r="3" fill="#2563eb"></circle><circle class="dot" cx="268.60103626943004" cy="170" r="3" fill="#2563eb"></circle><circle class="dot" cx="270.46632124352334" cy="170" r="3" fill="#2563eb"></circle><circle class="dot" cx="272.3316062176166" cy="170" r="3" fill="#2563eb"></circle><circle class="dot" cx="274.1968911917099" cy="170" r="3" fill="#2563eb"></circle><circle class="dot" cx="276.06217616580307" cy="170" r="3" fill="#2563eb"></circle><circle class="dot" cx="277.92746113989637" cy="170" r="3" fill="#2563eb"></circle><circle class="dot" cx="279.7927461139896" cy="170" r="3" fill="#2563eb"></circle><circle class="dot" cx="281.6580310880829" cy="170" r="3" fill="#2563eb"></circle><circle class="dot" cx="283.52331606217615" cy="170" r="3" fill="#2563eb"></circle><circle class="dot" cx="285.38860103626945" cy="170" r="3" fill="#2563eb"></circle><circle class="dot" cx="287.2538860103627" cy="170" r="3" fill="#2563eb"></circle><circle class="dot" cx="289.11917098445593" cy="170" r="3" fill="#2563eb"></circle><circle class="dot" cx="290.98445595854923" cy="170" r="3" fill="#2563eb"></circle><circle class="dot" cx="292.8497409326425" cy="170" r="3" fill="#2563eb"></circle><circle class="dot" cx="294.7150259067358" cy="170" r="3" fill="#2563eb"></circle><circle class="dot" cx="296.580310880829" cy="170" r="3" fill="#2563eb"></circle><circle class="dot" cx="298.44559585492226" cy="170" r="3" fill="#2563eb"></circle><circle class="dot" cx="300.31088082901556" cy="170" r="3" fill="#2563eb"></circle><circle class="dot" cx="302.1761658031088" cy="170" r="3" fill="#2563eb"></circle><circle class="dot" cx="304.0414507772021" cy="170" r="3" fill="#2563eb"></circle><circle class="dot" cx="305.90673575129534" cy="170" r="3" fill="#2563eb"></circle><circle class="dot" cx="307.77202072538864" cy="170" r="3" fill="#2563eb"></circle><circle class="dot" cx="309.63730569948183" cy="170" r="3" fill="#2563eb"></circle><circle class="dot" cx="311.5025906735751" cy="170" r="3" fill="#2563eb"></circle><circle class="dot" cx="313.36787564766837" cy="170" r="3" fill="#2563eb"></circle><circle class="dot" cx="315.23316062176167" cy="170" r="3" fill="#2563eb"></circle><circle class="dot" cx="317.0984455958549" cy="170" r="3" fill="#2563eb"></circle><circle class="dot" cx="318.9637305699482" cy="170" r="3" fill="#2563eb"></circle><circle class="dot" cx="320.82901554404145" cy="170" r="3" fill="#2563eb"></circle><circle class="dot" cx="322.6943005181347" cy="170" r="3" fill="#2563eb"></circle><circle class="dot" cx="324.559585492228" cy="170" r="3" fill="#2563eb"></circle><circle class="dot" cx="326.42487046632124" cy="170" r="3" fill="#2563eb"></circle><circle class="dot" cx="328.29015544041454" cy="170" r="3" fill="#2563eb"></circle><circle class="dot" cx="330.1554404145078" cy="170" r="3" fill="#2563eb"></circle><circle class="dot" cx="332.020725388601" cy="170" r="3" fill="#2563eb"></circle><circle class="dot" cx="333.88601036269426" cy="170" r="3" fill="#2563eb"></circle><circle class="dot" cx="335.75129533678756" cy="170" r="3" fill="#2563eb"></circle><circle class="dot" cx="337.6165803108808" cy="170" r="3" fill="#2563eb"></circle><circle class="dot" cx="339.4818652849741" cy="170" r="3" fill="#2563eb"></circle><circle class="dot" cx="341.34715025906735" cy="170" r="3" fill="#2563eb"></circle><circle class="dot" cx="343.2124352331606" cy="170" r="3" fill="#2563eb"></circle><circle class="dot" cx="345.0777202072539" cy="170" r="3" fill="#2563eb"></circle><circle class="dot" cx="346.94300518134713" cy="170" r="3" fill="#2563eb"></circle><circle class="dot" cx="348.80829015544043" cy="170" r="3" fill="#2563eb"></circle><circle class="dot" cx="350.6735751295337" cy="170" r="3" fill="#2563eb"></circle><circle class="dot" cx="352.538860103627" cy="170" r="3" fill="#2563eb"></circle><circle class="dot" cx="354.40414507772016" cy="170" r="3" fill="#2563eb"></circle><circle class="dot" cx="356.26943005181346" cy="170" r="3" fill="#2563eb"></circle><circle class="dot" cx="358.13471502590676" cy="170" r="3" fill="#2563eb"></circle><circle class="dot" cx="360" cy="170" r="3" fill="#2563eb"></circle><circle class="dot" cx="361.86528497409324" cy="170" r="3" fill="#2563eb"></circle><circle class="dot" cx="363.73056994818654" cy="170" r="3" fill="#2563eb"></circle><circle class="dot" cx="365.59585492227984" cy="170" r="3" fill="#2563eb"></circle><circle class="dot" cx="367.4611398963731" cy="170" r="3" fill="#2563eb"></circle><circle class="dot" cx="369.3264248704663" cy="170" r="3" fill="#2563eb"></circle><circle class="dot" cx="371.1917098445596" cy="170" r="3" fill="#2563eb"></circle><circle class="dot" cx="373.0569948186528" cy="170" r="3" fill="#2563eb"></circle><circle class="dot" cx="374.9222797927461" cy="170" r="3" fill="#2563eb"></circle><circle class="dot" cx="376.78756476683935" cy="170" r="3" fill="#2563eb"></circle><circle class="dot" cx="378.65284974093265" cy="170" r="3" fill="#2563eb"></circle><circle class="dot" cx="380.5181347150259" cy="170" r="3" fill="#2563eb"></circle><circle class="dot" cx="382.3834196891192" cy="170" r="3" fill="#2563eb"></circle><circle class="dot" cx="384.24870466321244" cy="170" r="3" fill="#2563eb"></circle><circle class="dot" cx="386.11398963730574" cy="170" r="3" fill="#2563eb"></circle><circle class="dot" cx="387.979274611399" cy="170" r="3" fill="#2563eb"></circle><circle class="dot" cx="389.8445595854923" cy="170" r="3" fill="#2563eb"></circle><circle class="dot" cx="391.7098445595855" cy="170" r="3" fill="#2563eb"></circle><circle class="dot" cx="393.5751295336788" cy="170" r="3" fill="#2563eb"></circle><circle class="dot" cx="395.440414507772" cy="170" r="3" fill="#2563eb"></circle><circle class="dot" cx="397.30569948186525" cy="170" r="3" fill="#2563eb"></circle><circle class="dot" cx="399.17098445595855" cy="170" r="3" fill="#2563eb"></circle><circle class="dot" cx="401.0362694300518" cy="170" r="3" fill="#2563eb"></circle><circle class="dot" cx="402.9015544041451" cy="170" r="3" fill="#2563eb"></circle><circle class="dot" cx="404.76683937823833" cy="170" r="3" fill="#2563eb"></circle><circle class="dot" cx="406.63212435233163" cy="170" r="3" fill="#2563eb"></circle><circle class="dot" cx="408.4974093264249" cy="170" r="3" fill="#2563eb"></circle><circle class="dot" cx="410.36269430051817" cy="170" r="3" fill="#2563eb"></circle><circle class="dot" cx="412.2279792746114" cy="170" r="3" fill="#2563eb"></circle><circle class="dot" cx="414.0932642487047" cy="170" r="3" fill="#2563eb"></circle><circle class="dot" cx="415.95854922279796" cy="170" r="3" fill="#2563eb"></circle><circle class="dot" cx="417.82383419689114" cy="170" r="3" fill="#2563eb"></circle><circle class="dot" cx="419.68911917098444" cy="170" r="3" fill="#2563eb"></circle><circle class="dot" cx="421.5544041450777" cy="170" r="3" fill="#2563eb"></circle><circle class="dot" cx="423.419689119171" cy="170" r="3" fill="#2563eb"></circle><circle class="dot" cx="425.2849740932642" cy="170" r="3" fill="#2563eb"></circle><circle class="dot" cx="427.1502590673575" cy="170" r="3" fill="#2563eb"></circle><circle class="dot" cx="429.01554404145077" cy="170" r="3" fill="#2563eb"></circle><circle class="dot" cx="430.88082901554407" cy="170" r="3" fill="#2563eb"></circle><circle class="dot" cx="432.7461139896373" cy="170" r="3" fill="#2563eb"></circle><circle class="dot" cx="434.6113989637306" cy="170" r="3" fill="#2563eb"></circle><circle class="dot" cx="436.47668393782385" cy="170" r="3" fill="#2563eb"></circle><circle class="dot" cx="438.34196891191715" cy="170" r="3" fill="#2563eb"></circle><circle class="dot" cx="440.20725388601034" cy="170" r="3" fill="#2563eb"></circle><circle class="dot" cx="442.0725388601036" cy="170" r="3" fill="#2563eb"></circle><circle class="dot" cx="443.9378238341969" cy="170" r="3" fill="#2563eb"></circle><circle class="dot" cx="445.8031088082901" cy="170" r="3" fill="#2563eb"></circle><circle class="dot" cx="447.6683937823834" cy="170" r="3" fill="#2563eb"></circle><circle class="dot" cx="449.53367875647666" cy="170" r="3" fill="#2563eb"></circle><circle class="dot" cx="451.39896373056996" cy="170" r="3" fill="#2563eb"></circle><circle class="dot" cx="453.2642487046632" cy="170" r="3" fill="#2563eb"></circle><circle class="dot" cx="455.1295336787565" cy="170" r="3" fill="#2563eb"></circle><circle class="dot" cx="456.99481865284974" cy="170" r="3" fill="#2563eb"></circle><circle class="dot" cx="458.86010362694304" cy="170" r="3" fill="#2563eb"></circle><circle class="dot" cx="460.7253886010363" cy="170" r="3" fill="#2563eb"></circle><circle class="dot" cx="462.5906735751295" cy="170" r="3" fill="#2563eb"></circle><circle class="dot" cx="464.45595854922277" cy="170" r="3" fill="#2563eb"></circle><circle class="dot" cx="466.321243523316" cy="170" r="3" fill="#2563eb"></circle><circle class="dot" cx="468.1865284974093" cy="170" r="3" fill="#2563eb"></circle><circle class="dot" cx="470.05181347150256" cy="170" r="3" fill="#2563eb"></circle><circle class="dot" cx="471.91709844559585" cy="170" r="3" fill="#2563eb"></circle><circle class="dot" cx="473.7823834196891" cy="170" r="3" fill="#2563eb"></circle><circle class="dot" cx="475.6476683937824" cy="170" r="3" fill="#2563eb"></circle><circle class="dot" cx="477.51295336787564" cy="170" r="3" fill="#2563eb"></circle><circle class="dot" cx="479.37823834196894" cy="170" r="3" fill="#2563eb"></circle><circle class="dot" cx="481.2435233160622" cy="170" r="3" fill="#2563eb"></circle><circle class="dot" cx="483.1088082901555" cy="170" r="3" fill="#2563eb"></circle><circle class="dot" cx="484.97409326424867" cy="170" r="3" fill="#2563eb"></circle><circle class="dot" cx="486.83937823834196" cy="170" r="3" fill="#2563eb"></circle><circle class="dot" cx="488.7046632124352" cy="170" r="3" fill="#2563eb"></circle><circle class="dot" cx="490.5699481865285" cy="170" r="3" fill="#2563eb"></circle><circle class="dot" cx="492.43523316062175" cy="170" r="3" fill="#2563eb"></circle><circle class="dot" cx="494.30051813471505" cy="170" r="3" fill="#2563eb"></circle><circle class="dot" cx="496.1658031088083" cy="170" r="3" fill="#2563eb"></circle><circle class="dot" cx="498.0310880829016" cy="170" r="3" fill="#2563eb"></circle><circle class="dot" cx="499.89637305699483" cy="170" r="3" fill="#2563eb"></circle><circle class="dot" cx="501.76165803108813" cy="170" r="3" fill="#2563eb"></circle><circle class="dot" cx="503.6269430051814" cy="170" r="3" fill="#2563eb"></circle><circle class="dot" cx="505.4922279792747" cy="170" r="3" fill="#2563eb"></circle><circle class="dot" cx="507.35751295336786" cy="170" r="3" fill="#2563eb"></circle><circle class="dot" cx="509.2227979274611" cy="170" r="3" fill="#2563eb"></circle><circle class="dot" cx="511.0880829015544" cy="170" r="3" fill="#2563eb"></circle><circle class="dot" cx="512.9533678756477" cy="170" r="3" fill="#2563eb"></circle><circle class="dot" cx="514.8186528497409" cy="170" r="3" fill="#2563eb"></circle><circle class="dot" cx="516.6839378238342" cy="170" r="3" fill="#2563eb"></circle><circle class="dot" cx="518.5492227979274" cy="170" r="3" fill="#2563eb"></circle><circle class="dot" cx="520.4145077720208" cy="170" r="3" fill="#2563eb"></circle><circle class="dot" cx="522.279792746114" cy="170" r="3" fill="#2563eb"></circle><circle class="dot" cx="524.1450777202073" cy="170" r="3" fill="#2563eb"></circle><circle class="dot" cx="526.0103626943005" cy="170" r="3" fill="#2563eb"></circle><circle class="dot" cx="527.8756476683939" cy="170" r="3" fill="#2563eb"></circle><circle class="dot" cx="529.740932642487" cy="170" r="3" fill="#2563eb"></circle><circle class="dot" cx="531.6062176165802" cy="170" r="3" fill="#2563eb"></circle><circle class="dot" cx="533.4715025906736" cy="170" r="3" fill="#2563eb"></circle><circle class="dot" cx="535.3367875647668" cy="170" r="3" fill="#2563eb"></circle><circle class="dot" cx="537.2020725388601" cy="170" r="3" fill="#2563eb"></circle><circle class="dot" cx="539.0673575129533" cy="170" r="3" fill="#2563eb"></circle><circle class="dot" cx="540.9326424870467" cy="170" r="3" fill="#2563eb"></circle><circle class="dot" cx="542.7979274611399" cy="170" r="3" fill="#2563eb"></circle><circle class="dot" cx="544.6632124352332" cy="170" r="3" fill="#2563eb"></circle><circle class="dot" cx="546.5284974093264" cy="170" r="3" fill="#2563eb"></circle><circle class="dot" cx="548.3937823834198" cy="170" r="3" fill="#2563eb"></circle><circle class="dot" cx="550.259067357513" cy="170" r="3" fill="#2563eb"></circle><circle class="dot" cx="552.1243523316061" cy="170" r="3" fill="#2563eb"></circle><circle class="dot" cx="553.9896373056995" cy="170" r="3" fill="#2563eb"></circle><circle class="dot" cx="555.8549222797927" cy="170" r="3" fill="#2563eb"></circle><circle class="dot" cx="557.720207253886" cy="170" r="3" fill="#2563eb"></circle><circle class="dot" cx="559.5854922279792" cy="170" r="3" fill="#2563eb"></circle><circle class="dot" cx="561.4507772020726" cy="170" r="3" fill="#2563eb"></circle><circle class="dot" cx="563.3160621761658" cy="170" r="3" fill="#2563eb"></circle><circle class="dot" cx="565.1813471502591" cy="170" r="3" fill="#2563eb"></circle><circle class="dot" cx="567.0466321243523" cy="170" r="3" fill="#2563eb"></circle><circle class="dot" cx="568.9119170984457" cy="170" r="3" fill="#2563eb"></circle><circle class="dot" cx="570.7772020725389" cy="170" r="3" fill="#2563eb"></circle><circle class="dot" cx="572.6424870466321" cy="170" r="3" fill="#2563eb"></circle><circle class="dot" cx="574.5077720207254" cy="170" r="3" fill="#2563eb"></circle><circle class="dot" cx="576.3730569948186" cy="170" r="3" fill="#2563eb"></circle><circle class="dot" cx="578.2383419689119" cy="170" r="3" fill="#2563eb"></circle><circle class="dot" cx="580.1036269430051" cy="170" r="3" fill="#2563eb"></circle><circle class="dot" cx="581.9689119170985" cy="170" r="3" fill="#2563eb"></circle><circle class="dot" cx="583.8341968911917" cy="170" r="3" fill="#2563eb"></circle><circle class="dot" cx="585.699481865285" cy="170" r="3" fill="#2563eb"></circle><circle class="dot" cx="587.5647668393782" cy="170" r="3" fill="#2563eb"></circle><circle class="dot" cx="589.4300518134716" cy="170" r="3" fill="#2563eb"></circle><circle class="dot" cx="591.2953367875648" cy="170" r="3" fill="#2563eb"></circle><circle class="dot" cx="593.160621761658" cy="170" r="3" fill="#2563eb"></circle><circle class="dot" cx="595.0259067357513" cy="170" r="3" fill="#2563eb"></circle><circle class="dot" cx="596.8911917098445" cy="170" r="3" fill="#2563eb"></circle><circle class="dot" cx="598.7564766839378" cy="170" r="3" fill="#2563eb"></circle><circle class="dot" cx="600.6217616580311" cy="170" r="3" fill="#2563eb"></circle><circle class="dot" cx="602.4870466321244" cy="170" r="3" fill="#2563eb"></circle><circle class="dot" cx="604.3523316062176" cy="170" r="3" fill="#2563eb"></circle><circle class="dot" cx="606.2176165803108" cy="170" r="3" fill="#2563eb"></circle><circle class="dot" cx="608.0829015544042" cy="170" r="3" fill="#2563eb"></circle><circle class="dot" cx="609.9481865284974" cy="170" r="3" fill="#2563eb"></circle><circle class="dot" cx="611.8134715025907" cy="170" r="3" fill="#2563eb"></circle><circle class="dot" cx="613.6787564766839" cy="170" r="3" fill="#2563eb"></circle><circle class="dot" cx="615.5440414507773" cy="170" r="3" fill="#2563eb"></circle><circle class="dot" cx="617.4093264248705" cy="170" r="3" fill="#2563eb"></circle><circle class="dot" cx="619.2746113989637" cy="170" r="3" fill="#2563eb"></circle><circle class="dot" cx="621.139896373057" cy="170" r="3" fill="#2563eb"></circle><circle class="dot" cx="623.0051813471503" cy="170" r="3" fill="#2563eb"></circle><circle class="dot" cx="624.8704663212435" cy="170" r="3" fill="#2563eb"></circle><circle class="dot" cx="626.7357512953367" cy="170" r="3" fill="#2563eb"></circle><circle class="dot" cx="628.6010362694301" cy="170" r="3" fill="#2563eb"></circle><circle class="dot" cx="630.4663212435233" cy="170" r="3" fill="#2563eb"></circle><circle class="dot" cx="632.3316062176166" cy="170" r="3" fill="#2563eb"></circle><circle class="dot" cx="634.1968911917098" cy="170" r="3" fill="#2563eb"></circle><circle class="dot" cx="636.0621761658032" cy="170" r="3" fill="#2563eb"></circle><circle class="dot" cx="637.9274611398964" cy="170" r="3" fill="#2563eb"></circle><circle class="dot" cx="639.7927461139897" cy="170" r="3" fill="#2563eb"></circle><circle class="dot" cx="641.6580310880829" cy="170" r="3" fill="#2563eb"></circle><circle class="dot" cx="643.5233160621761" cy="170" r="3" fill="#2563eb"></circle><circle class="dot" cx="645.3886010362694" cy="170" r="3" fill="#2563eb"></circle><circle class="dot" cx="647.2538860103626" cy="170" r="3" fill="#2563eb"></circle><circle class="dot" cx="649.119170984456" cy="170" r="3" fill="#2563eb"></circle><circle class="dot" cx="650.9844559585492" cy="170" r="3" fill="#2563eb"></circle><circle class="dot" cx="652.8497409326425" cy="170" r="3" fill="#2563eb"></circle><circle class="dot" cx="654.7150259067357" cy="170" r="3" fill="#2563eb"></circle><circle class="dot" cx="656.5803108808291" cy="170" r="3" fill="#2563eb"></circle><circle class="dot" cx="658.4455958549223" cy="170" r="3" fill="#2563eb"></circle><circle class="dot" cx="660.3108808290156" cy="170" r="3" fill="#2563eb"></circle><circle class="dot" cx="662.1761658031088" cy="170" r="3" fill="#2563eb"></circle><circle class="dot" cx="664.041450777202" cy="170" r="3" fill="#2563eb"></circle><circle class="dot" cx="665.9067357512953" cy="170" r="3" fill="#2563eb"></circle><circle class="dot" cx="667.7720207253885" cy="170" r="3" fill="#2563eb"></circle><circle class="dot" cx="669.6373056994819" cy="170" r="3" fill="#2563eb"></circle><circle class="dot" cx="671.5025906735751" cy="170" r="3" fill="#2563eb"></circle><circle class="dot" cx="673.3678756476684" cy="170" r="3" fill="#2563eb"></circle><circle class="dot" cx="675.2331606217616" cy="170" r="3" fill="#2563eb"></circle><circle class="dot" cx="677.098445595855" cy="170" r="3" fill="#2563eb"></circle><circle class="dot" cx="678.9637305699482" cy="170" r="3" fill="#2563eb"></circle><circle class="dot" cx="680.8290155440415" cy="170" r="3" fill="#2563eb"></circle><circle class="dot" cx="682.6943005181347" cy="170" r="3" fill="#2563eb"></circle><circle class="dot" cx="684.559585492228" cy="170" r="3" fill="#2563eb"></circle><circle class="dot" cx="686.4248704663212" cy="170" r="3" fill="#2563eb"></circle><circle class="dot" cx="688.2901554404144" cy="170" r="3" fill="#2563eb"></circle><circle class="dot" cx="690.1554404145078" cy="170" r="3" fill="#2563eb"></circle><circle class="dot" cx="692.020725388601" cy="170" r="3" fill="#2563eb"></circle><circle class="dot" cx="693.8860103626943" cy="170" r="3" fill="#2563eb"></circle><circle class="dot" cx="695.7512953367875" cy="170" r="3" fill="#2563eb"></circle><circle class="dot" cx="697.6165803108809" cy="170" r="3" fill="#2563eb"></circle><circle class="dot" cx="699.4818652849741" cy="170" r="3" fill="#2563eb"></circle><circle class="dot" cx="701.3471502590673" cy="170" r="3" fill="#2563eb"></circle><circle class="dot" cx="703.2124352331606" cy="170" r="3" fill="#2563eb"></circle><circle class="dot" cx="705.077720207254" cy="170" r="3" fill="#2563eb"></circle><circle class="dot" cx="706.9430051813472" cy="170" r="3" fill="#2563eb"></circle><circle class="dot" cx="708.8082901554403" cy="170" r="3" fill="#2563eb"></circle><circle class="dot" cx="710.6735751295337" cy="170" r="3" fill="#2563eb"></circle><circle class="dot" cx="712.5388601036269" cy="170" r="3" fill="#2563eb"></circle><circle class="dot" cx="714.4041450777202" cy="170" r="3" fill="#2563eb"></circle><circle class="dot" cx="716.2694300518135" cy="170" r="3" fill="#2563eb"></circle><circle class="dot" cx="718.1347150259068" cy="170" r="3" fill="#2563eb"></circle><circle class="dot" cx="720" cy="170" r="3" fill="#2563eb"></circle><g class="grid" transform="translate(0,340)" fill="none" font-size="10" font-family="sans-serif" text-anchor="middle" style="stroke-dasharray: 3,3; opacity: 0.3;"><path class="domain" stroke="currentColor" d="M0.5,-340V0.5H720.5V-340"></path><g class="tick" opacity="1" transform="translate(0.5,0)"><line stroke="currentColor" y2="-340"></line><text fill="currentColor" y="3" dy="0.71em"></text></g><g class="tick" opacity="1" transform="translate(45.266839378238345,0)"><line stroke="currentColor" y2="-340"></line><text fill="currentColor" y="3" dy="0.71em"></text></g><g class="tick" opacity="1" transform="translate(90.03367875647669,0)"><line stroke="currentColor" y2="-340"></line><text fill="currentColor" y="3" dy="0.71em"></text></g><g class="tick" opacity="1" transform="translate(134.80051813471502,0)"><line stroke="currentColor" y2="-340"></line><text fill="currentColor" y="3" dy="0.71em"></text></g><g class="tick" opacity="1" transform="translate(179.56735751295338,0)"><line stroke="currentColor" y2="-340"></line><text fill="currentColor" y="3" dy="0.71em"></text></g><g class="tick" opacity="1" transform="translate(224.3341968911917,0)"><line stroke="currentColor" y2="-340"></line><text fill="currentColor" y="3" dy="0.71em"></text></g><g class="tick" opacity="1" transform="translate(269.10103626943004,0)"><line stroke="currentColor" y2="-340"></line><text fill="currentColor" y="3" dy="0.71em"></text></g><g class="tick" opacity="1" transform="translate(313.86787564766837,0)"><line stroke="currentColor" y2="-340"></line><text fill="currentColor" y="3" dy="0.71em"></text></g><g class="tick" opacity="1" transform="translate(358.63471502590676,0)"><line stroke="currentColor" y2="-340"></line><text fill="currentColor" y="3" dy="0.71em"></text></g><g class="tick" opacity="1" transform="translate(403.4015544041451,0)"><line stroke="currentColor" y2="-340"></line><text fill="currentColor" y="3" dy="0.71em"></text></g><g class="tick" opacity="1" transform="translate(448.1683937823834,0)"><line stroke="currentColor" y2="-340"></line><text fill="currentColor" y="3" dy="0.71em"></text></g><g class="tick" opacity="1" transform="translate(492.93523316062175,0)"><line stroke="currentColor" y2="-340"></line><text fill="currentColor" y="3" dy="0.71em"></text></g><g class="tick" opacity="1" transform="translate(537.7020725388601,0)"><line stroke="currentColor" y2="-340"></line><text fill="currentColor" y="3" dy="0.71em"></text></g><g class="tick" opacity="1" transform="translate(582.4689119170985,0)"><line stroke="currentColor" y2="-340"></line><text fill="currentColor" y="3" dy="0.71em"></text></g><g class="tick" opacity="1" transform="translate(627.2357512953367,0)"><line stroke="currentColor" y2="-340"></line><text fill="currentColor" y="3" dy="0.71em"></text></g><g class="tick" opacity="1" transform="translate(672.0025906735751,0)"><line stroke="currentColor" y2="-340"></line><text fill="currentColor" y="3" dy="0.71em"></text></g><g class="tick" opacity="1" transform="translate(716.7694300518135,0)"><line stroke="currentColor" y2="-340"></line><text fill="currentColor" y="3" dy="0.71em"></text></g></g><g class="grid" fill="none" font-size="10" font-family="sans-serif" text-anchor="end" style="stroke-dasharray: 3,3; opacity: 0.3;"><path class="domain" stroke="currentColor" d="M720,340.5H0.5V0.5H720"></path><g class="tick" opacity="1" transform="translate(0,170.5)"><line stroke="currentColor" x2="720"></line><text fill="currentColor" x="-3" dy="0.32em"></text></g></g></g><text x="400" y="10" text-anchor="middle" style="font-size: 16px; font-weight: bold; fill: #333;">OKX USDT Lending Rate - Current Month</text></svg>