<svg width="800" height="400" xmlns="http://www.w3.org/2000/svg"><g transform="translate(50,20)"><g transform="translate(0,340)" fill="none" font-size="10" font-family="sans-serif" text-anchor="middle"><path class="domain" stroke="currentColor" d="M0.5,6V0.5H720.5V6"></path><g class="tick" opacity="1" transform="translate(0.5,0)"><line stroke="currentColor" y2="6"></line><text fill="currentColor" y="9" dy=".15em" style="text-anchor: end;" dx="-.8em" transform="rotate(-45)">09/01</text></g><g class="tick" opacity="1" transform="translate(32.73880597014925,0)"><line stroke="currentColor" y2="6"></line><text fill="currentColor" y="9" dy=".15em" style="text-anchor: end;" dx="-.8em" transform="rotate(-45)">09/02</text></g><g class="tick" opacity="1" transform="translate(64.9776119402985,0)"><line stroke="currentColor" y2="6"></line><text fill="currentColor" y="9" dy=".15em" style="text-anchor: end;" dx="-.8em" transform="rotate(-45)">09/03</text></g><g class="tick" opacity="1" transform="translate(97.21641791044776,0)"><line stroke="currentColor" y2="6"></line><text fill="currentColor" y="9" dy=".15em" style="text-anchor: end;" dx="-.8em" transform="rotate(-45)">09/04</text></g><g class="tick" opacity="1" transform="translate(129.455223880597,0)"><line stroke="currentColor" y2="6"></line><text fill="currentColor" y="9" dy=".15em" style="text-anchor: end;" dx="-.8em" transform="rotate(-45)">09/05</text></g><g class="tick" opacity="1" transform="translate(161.69402985074626,0)"><line stroke="currentColor" y2="6"></line><text fill="currentColor" y="9" dy=".15em" style="text-anchor: end;" dx="-.8em" transform="rotate(-45)">09/06</text></g><g class="tick" opacity="1" transform="translate(193.93283582089552,0)"><line stroke="currentColor" y2="6"></line><text fill="currentColor" y="9" dy=".15em" style="text-anchor: end;" dx="-.8em" transform="rotate(-45)">09/07</text></g><g class="tick" opacity="1" transform="translate(226.17164179104478,0)"><line stroke="currentColor" y2="6"></line><text fill="currentColor" y="9" dy=".15em" style="text-anchor: end;" dx="-.8em" transform="rotate(-45)">09/08</text></g><g class="tick" opacity="1" transform="translate(258.410447761194,0)"><line stroke="currentColor" y2="6"></line><text fill="currentColor" y="9" dy=".15em" style="text-anchor: end;" dx="-.8em" transform="rotate(-45)">09/09</text></g><g class="tick" opacity="1" transform="translate(290.64925373134326,0)"><line stroke="currentColor" y2="6"></line><text fill="currentColor" y="9" dy=".15em" style="text-anchor: end;" dx="-.8em" transform="rotate(-45)">09/10</text></g><g class="tick" opacity="1" transform="translate(322.8880597014925,0)"><line stroke="currentColor" y2="6"></line><text fill="currentColor" y="9" dy=".15em" style="text-anchor: end;" dx="-.8em" transform="rotate(-45)">09/11</text></g><g class="tick" opacity="1" transform="translate(355.1268656716418,0)"><line stroke="currentColor" y2="6"></line><text fill="currentColor" y="9" dy=".15em" style="text-anchor: end;" dx="-.8em" transform="rotate(-45)">09/12</text></g><g class="tick" opacity="1" transform="translate(387.36567164179104,0)"><line stroke="currentColor" y2="6"></line><text fill="currentColor" y="9" dy=".15em" style="text-anchor: end;" dx="-.8em" transform="rotate(-45)">09/13</text></g><g class="tick" opacity="1" transform="translate(419.6044776119403,0)"><line stroke="currentColor" y2="6"></line><text fill="currentColor" y="9" dy=".15em" style="text-anchor: end;" dx="-.8em" transform="rotate(-45)">09/14</text></g><g class="tick" opacity="1" transform="translate(451.84328358208955,0)"><line stroke="currentColor" y2="6"></line><text fill="currentColor" y="9" dy=".15em" style="text-anchor: end;" dx="-.8em" transform="rotate(-45)">09/15</text></g><g class="tick" opacity="1" transform="translate(484.08208955223887,0)"><line stroke="currentColor" y2="6"></line><text fill="currentColor" y="9" dy=".15em" style="text-anchor: end;" dx="-.8em" transform="rotate(-45)">09/16</text></g><g class="tick" opacity="1" transform="translate(516.320895522388,0)"><line stroke="currentColor" y2="6"></line><text fill="currentColor" y="9" dy=".15em" style="text-anchor: end;" dx="-.8em" transform="rotate(-45)">09/17</text></g><g class="tick" opacity="1" transform="translate(548.5597014925373,0)"><line stroke="currentColor" y2="6"></line><text fill="currentColor" y="9" dy=".15em" style="text-anchor: end;" dx="-.8em" transform="rotate(-45)">09/18</text></g><g class="tick" opacity="1" transform="translate(580.7985074626865,0)"><line stroke="currentColor" y2="6"></line><text fill="currentColor" y="9" dy=".15em" style="text-anchor: end;" dx="-.8em" transform="rotate(-45)">09/19</text></g><g class="tick" opacity="1" transform="translate(613.0373134328358,0)"><line stroke="currentColor" y2="6"></line><text fill="currentColor" y="9" dy=".15em" style="text-anchor: end;" dx="-.8em" transform="rotate(-45)">09/20</text></g><g class="tick" opacity="1" transform="translate(645.276119402985,0)"><line stroke="currentColor" y2="6"></line><text fill="currentColor" y="9" dy=".15em" style="text-anchor: end;" dx="-.8em" transform="rotate(-45)">09/21</text></g><g class="tick" opacity="1" transform="translate(677.5149253731344,0)"><line stroke="currentColor" y2="6"></line><text fill="currentColor" y="9" dy=".15em" style="text-anchor: end;" dx="-.8em" transform="rotate(-45)">09/22</text></g><g class="tick" opacity="1" transform="translate(709.7537313432836,0)"><line stroke="currentColor" y2="6"></line><text fill="currentColor" y="9" dy=".15em" style="text-anchor: end;" dx="-.8em" transform="rotate(-45)">09/23</text></g></g><g fill="none" font-size="10" font-family="sans-serif" text-anchor="end"><path class="domain" stroke="currentColor" d="M-6,340.5H0.5V0.5H-6"></path><g class="tick" opacity="1" transform="translate(0,340.5)"><line stroke="currentColor" x2="-6"></line><text fill="currentColor" x="-9" dy="0.32em">4.00%</text></g><g class="tick" opacity="1" transform="translate(0,314.34615384615387)"><line stroke="currentColor" x2="-6"></line><text fill="currentColor" x="-9" dy="0.32em">6.00%</text></g><g class="tick" opacity="1" transform="translate(0,288.1923076923077)"><line stroke="currentColor" x2="-6"></line><text fill="currentColor" x="-9" dy="0.32em">8.00%</text></g><g class="tick" opacity="1" transform="translate(0,262.0384615384615)"><line stroke="currentColor" x2="-6"></line><text fill="currentColor" x="-9" dy="0.32em">10.00%</text></g><g class="tick" opacity="1" transform="translate(0,235.8846153846154)"><line stroke="currentColor" x2="-6"></line><text fill="currentColor" x="-9" dy="0.32em">12.00%</text></g><g class="tick" opacity="1" transform="translate(0,209.73076923076925)"><line stroke="currentColor" x2="-6"></line><text fill="currentColor" x="-9" dy="0.32em">14.00%</text></g><g class="tick" opacity="1" transform="translate(0,183.5769230769231)"><line stroke="currentColor" x2="-6"></line><text fill="currentColor" x="-9" dy="0.32em">16.00%</text></g><g class="tick" opacity="1" transform="translate(0,157.42307692307693)"><line stroke="currentColor" x2="-6"></line><text fill="currentColor" x="-9" dy="0.32em">18.00%</text></g><g class="tick" opacity="1" transform="translate(0,131.26923076923075)"><line stroke="currentColor" x2="-6"></line><text fill="currentColor" x="-9" dy="0.32em">20.00%</text></g><g class="tick" opacity="1" transform="translate(0,105.11538461538463)"><line stroke="currentColor" x2="-6"></line><text fill="currentColor" x="-9" dy="0.32em">22.00%</text></g><g class="tick" opacity="1" transform="translate(0,78.96153846153848)"><line stroke="currentColor" x2="-6"></line><text fill="currentColor" x="-9" dy="0.32em">24.00%</text></g><g class="tick" opacity="1" transform="translate(0,52.807692307692314)"><line stroke="currentColor" x2="-6"></line><text fill="currentColor" x="-9" dy="0.32em">26.00%</text></g><g class="tick" opacity="1" transform="translate(0,26.653846153846136)"><line stroke="currentColor" x2="-6"></line><text fill="currentColor" x="-9" dy="0.32em">28.00%</text></g><g class="tick" opacity="1" transform="translate(0,0.5)"><line stroke="currentColor" x2="-6"></line><text fill="currentColor" x="-9" dy="0.32em">30.00%</text></g></g><text transform="rotate(-90)" y="-50" x="-170" dy="1em" style="text-anchor: middle; font-size: 12px; fill: #666;">Pre Rate (%)</text><text transform="translate(360, 380)" style="text-anchor: middle; font-size: 12px; fill: #666;">Time (UTC)</text><path fill="none" stroke="#2563eb" stroke-width="2" d="M0,340C0.448,340,0.896,340,1.343,340C1.791,340,2.239,340,2.687,340C3.134,340,3.582,340,4.03,340C4.478,340,4.925,340,5.373,340C5.821,340,6.269,340,6.716,340C7.164,340,7.612,340,8.06,340C8.507,340,8.955,340,9.403,340C9.851,340,10.299,296.41,10.746,287.692C11.194,278.974,11.642,274.615,12.09,274.615C12.537,274.615,12.985,292.051,13.433,300.769C13.881,309.487,14.328,326.923,14.776,326.923C15.224,326.923,15.672,322.564,16.119,313.846C16.567,305.128,17.015,274.615,17.463,274.615C17.91,274.615,18.358,300.769,18.806,300.769C19.254,300.769,19.701,300.769,20.149,300.769C20.597,300.769,21.045,300.769,21.493,300.769C21.94,300.769,22.388,300.769,22.836,300.769C23.284,300.769,23.731,326.923,24.179,326.923C24.627,326.923,25.075,318.205,25.522,313.846C25.97,309.487,26.418,300.769,26.866,300.769C27.313,300.769,27.761,340,28.209,340C28.657,340,29.104,340,29.552,340C30,340,30.448,340,30.896,340C31.343,340,31.791,313.846,32.239,313.846C32.687,313.846,33.134,326.923,33.582,326.923C34.03,326.923,34.478,322.564,34.925,313.846C35.373,305.128,35.821,283.333,36.269,274.615C36.716,265.897,37.164,261.538,37.612,261.538C38.06,261.538,38.507,270.256,38.955,274.615C39.403,278.974,39.851,287.692,40.299,287.692C40.746,287.692,41.194,235.385,41.642,235.385C42.09,235.385,42.537,252.821,42.985,261.538C43.433,270.256,43.881,287.692,44.328,287.692C44.776,287.692,45.224,287.692,45.672,287.692C46.119,287.692,46.567,287.692,47.015,287.692C47.463,287.692,47.91,296.41,48.358,300.769C48.806,305.128,49.254,313.846,49.701,313.846C50.149,313.846,50.597,235.385,51.045,235.385C51.493,235.385,51.94,248.462,52.388,261.538C52.836,274.615,53.284,313.846,53.731,313.846C54.179,313.846,54.627,287.692,55.075,287.692C55.522,287.692,55.97,300.769,56.418,300.769C56.866,300.769,57.313,300.769,57.761,300.769C58.209,300.769,58.657,313.846,59.104,313.846C59.552,313.846,60,261.538,60.448,261.538C60.896,261.538,61.343,261.538,61.791,261.538C62.239,261.538,62.687,248.462,63.134,248.462C63.582,248.462,64.03,248.462,64.478,248.462C64.925,248.462,65.373,261.538,65.821,261.538C66.269,261.538,66.716,248.462,67.164,248.462C67.612,248.462,68.06,248.462,68.507,248.462C68.955,248.462,69.403,268.077,69.851,274.615C70.299,281.154,70.746,281.154,71.194,287.692C71.642,294.231,72.09,307.308,72.537,313.846C72.985,320.385,73.433,326.923,73.881,326.923C74.328,326.923,74.776,313.846,75.224,313.846C75.672,313.846,76.119,340,76.567,340C77.015,340,77.463,326.923,77.91,326.923C78.358,326.923,78.806,326.923,79.254,326.923C79.701,326.923,80.149,326.923,80.597,326.923C81.045,326.923,81.493,340,81.94,340C82.388,340,82.836,292.051,83.284,274.615C83.731,257.179,84.179,235.385,84.627,235.385C85.075,235.385,85.522,241.923,85.97,248.462C86.418,255,86.866,265.897,87.313,274.615C87.761,283.333,88.209,294.231,88.657,300.769C89.104,307.308,89.552,313.846,90,313.846C90.448,313.846,90.896,305.128,91.343,300.769C91.791,296.41,92.239,287.692,92.687,287.692C93.134,287.692,93.582,287.692,94.03,287.692C94.478,287.692,94.925,287.692,95.373,287.692C95.821,287.692,96.269,287.692,96.716,287.692C97.164,287.692,97.612,261.538,98.06,261.538C98.507,261.538,98.955,265.897,99.403,274.615C99.851,283.333,100.299,313.846,100.746,313.846C101.194,313.846,101.642,313.846,102.09,313.846C102.537,313.846,102.985,313.846,103.433,313.846C103.881,313.846,104.328,313.846,104.776,313.846C105.224,313.846,105.672,326.923,106.119,326.923C106.567,326.923,107.015,300.769,107.463,300.769C107.91,300.769,108.358,300.769,108.806,300.769C109.254,300.769,109.701,287.692,110.149,287.692C110.597,287.692,111.045,300.769,111.493,300.769C111.94,300.769,112.388,300.769,112.836,300.769C113.284,300.769,113.731,307.308,114.179,313.846C114.627,320.385,115.075,340,115.522,340C115.97,340,116.418,340,116.866,340C117.313,340,117.761,340,118.209,340C118.657,340,119.104,340,119.552,340C120,340,120.448,340,120.896,340C121.343,340,121.791,340,122.239,340C122.687,340,123.134,340,123.582,340C124.03,340,124.478,340,124.925,340C125.373,340,125.821,340,126.269,340C126.716,340,127.164,340,127.612,340C128.06,340,128.507,340,128.955,340C129.403,340,129.851,340,130.299,340C130.746,340,131.194,340,131.642,340C132.09,340,132.537,340,132.985,340C133.433,340,133.881,340,134.328,340C134.776,340,135.224,340,135.672,340C136.119,340,136.567,340,137.015,340C137.463,340,137.91,340,138.358,340C138.806,340,139.254,274.615,139.701,274.615C140.149,274.615,140.597,340,141.045,340C141.493,340,141.94,340,142.388,340C142.836,340,143.284,340,143.731,340C144.179,340,144.627,335.641,145.075,326.923C145.522,318.205,145.97,248.462,146.418,248.462C146.866,248.462,147.313,252.821,147.761,261.538C148.209,270.256,148.657,340,149.104,340C149.552,340,150,331.282,150.448,326.923C150.896,322.564,151.343,313.846,151.791,313.846C152.239,313.846,152.687,326.923,153.134,326.923C153.582,326.923,154.03,313.846,154.478,313.846C154.925,313.846,155.373,313.846,155.821,313.846C156.269,313.846,156.716,313.846,157.164,313.846C157.612,313.846,158.06,340,158.507,340C158.955,340,159.403,340,159.851,340C160.299,340,160.746,340,161.194,340C161.642,340,162.09,326.923,162.537,326.923C162.985,326.923,163.433,340,163.881,340C164.328,340,164.776,340,165.224,340C165.672,340,166.119,340,166.567,340C167.015,340,167.463,340,167.91,340C168.358,340,168.806,340,169.254,340C169.701,340,170.149,340,170.597,340C171.045,340,171.493,340,171.94,340C172.388,340,172.836,340,173.284,340C173.731,340,174.179,340,174.627,340C175.075,340,175.522,340,175.97,340C176.418,340,176.866,340,177.313,340C177.761,340,178.209,340,178.657,340C179.104,340,179.552,340,180,340C180.448,340,180.896,340,181.343,340C181.791,340,182.239,340,182.687,340C183.134,340,183.582,340,184.03,340C184.478,340,184.925,340,185.373,340C185.821,340,186.269,340,186.716,340C187.164,340,187.612,340,188.06,340C188.507,340,188.955,340,189.403,340C189.851,340,190.299,340,190.746,340C191.194,340,191.642,340,192.09,340C192.537,340,192.985,340,193.433,340C193.881,340,194.328,340,194.776,340C195.224,340,195.672,340,196.119,340C196.567,340,197.015,340,197.463,340C197.91,340,198.358,340,198.806,340C199.254,340,199.701,340,200.149,340C200.597,340,201.045,340,201.493,340C201.94,340,202.388,340,202.836,340C203.284,340,203.731,313.846,204.179,313.846C204.627,313.846,205.075,322.564,205.522,326.923C205.97,331.282,206.418,340,206.866,340C207.313,340,207.761,331.282,208.209,326.923C208.657,322.564,209.104,313.846,209.552,313.846C210,313.846,210.448,313.846,210.896,313.846C211.343,313.846,211.791,307.308,212.239,300.769C212.687,294.231,213.134,274.615,213.582,274.615C214.03,274.615,214.478,274.615,214.925,274.615C215.373,274.615,215.821,283.333,216.269,287.692C216.716,292.051,217.164,300.769,217.612,300.769C218.06,300.769,218.507,300.769,218.955,300.769C219.403,300.769,219.851,287.692,220.299,287.692C220.746,287.692,221.194,300.769,221.642,300.769C222.09,300.769,222.537,300.769,222.985,300.769C223.433,300.769,223.881,274.615,224.328,274.615C224.776,274.615,225.224,274.615,225.672,274.615C226.119,274.615,226.567,261.538,227.015,261.538C227.463,261.538,227.91,261.538,228.358,261.538C228.806,261.538,229.254,248.462,229.701,248.462C230.149,248.462,230.597,257.179,231.045,261.538C231.493,265.897,231.94,274.615,232.388,274.615C232.836,274.615,233.284,274.615,233.731,274.615C234.179,274.615,234.627,287.692,235.075,287.692C235.522,287.692,235.97,287.692,236.418,287.692C236.866,287.692,237.313,281.154,237.761,274.615C238.209,268.077,238.657,255,239.104,248.462C239.552,241.923,240,235.385,240.448,235.385C240.896,235.385,241.343,235.385,241.791,235.385C242.239,235.385,242.687,235.385,243.134,235.385C243.582,235.385,244.03,248.462,244.478,248.462C244.925,248.462,245.373,231.026,245.821,222.308C246.269,213.59,246.716,196.154,247.164,196.154C247.612,196.154,248.06,202.692,248.507,209.231C248.955,215.769,249.403,235.385,249.851,235.385C250.299,235.385,250.746,209.231,251.194,209.231C251.642,209.231,252.09,248.462,252.537,248.462C252.985,248.462,253.433,248.462,253.881,248.462C254.328,248.462,254.776,222.308,255.224,222.308C255.672,222.308,256.119,231.026,256.567,235.385C257.015,239.744,257.463,248.462,257.91,248.462C258.358,248.462,258.806,248.462,259.254,248.462C259.701,248.462,260.149,196.154,260.597,196.154C261.045,196.154,261.493,196.154,261.94,196.154C262.388,196.154,262.836,183.077,263.284,183.077C263.731,183.077,264.179,248.462,264.627,248.462C265.075,248.462,265.522,248.462,265.97,248.462C266.418,248.462,266.866,204.872,267.313,196.154C267.761,187.436,268.209,183.077,268.657,183.077C269.104,183.077,269.552,183.077,270,183.077C270.448,183.077,270.896,183.077,271.343,183.077C271.791,183.077,272.239,191.795,272.687,196.154C273.134,200.513,273.582,209.231,274.03,209.231C274.478,209.231,274.925,200.513,275.373,196.154C275.821,191.795,276.269,183.077,276.716,183.077C277.164,183.077,277.612,224.487,278.06,248.462C278.507,272.436,278.955,326.923,279.403,326.923C279.851,326.923,280.299,326.923,280.746,326.923C281.194,326.923,281.642,318.205,282.09,313.846C282.537,309.487,282.985,305.128,283.433,300.769C283.881,296.41,284.328,287.692,284.776,287.692C285.224,287.692,285.672,287.692,286.119,287.692C286.567,287.692,287.015,300.769,287.463,300.769C287.91,300.769,288.358,287.692,288.806,287.692C289.254,287.692,289.701,287.692,290.149,287.692C290.597,287.692,291.045,313.846,291.493,313.846C291.94,313.846,292.388,307.308,292.836,300.769C293.284,294.231,293.731,274.615,294.179,274.615C294.627,274.615,295.075,274.615,295.522,274.615C295.97,274.615,296.418,283.333,296.866,287.692C297.313,292.051,297.761,300.769,298.209,300.769C298.657,300.769,299.104,239.744,299.552,222.308C300,204.872,300.448,196.154,300.896,196.154C301.343,196.154,301.791,222.308,302.239,222.308C302.687,222.308,303.134,222.308,303.582,222.308C304.03,222.308,304.478,226.667,304.925,235.385C305.373,244.103,305.821,326.923,306.269,326.923C306.716,326.923,307.164,292.051,307.612,274.615C308.06,257.179,308.507,222.308,308.955,222.308C309.403,222.308,309.851,237.564,310.299,248.462C310.746,259.359,311.194,278.974,311.642,287.692C312.09,296.41,312.537,296.41,312.985,300.769C313.433,305.128,313.881,307.308,314.328,313.846C314.776,320.385,315.224,340,315.672,340C316.119,340,316.567,340,317.015,340C317.463,340,317.91,340,318.358,340C318.806,340,319.254,340,319.701,340C320.149,340,320.597,340,321.045,340C321.493,340,321.94,340,322.388,340C322.836,340,323.284,340,323.731,340C324.179,340,324.627,340,325.075,340C325.522,340,325.97,340,326.418,340C326.866,340,327.313,326.923,327.761,326.923C328.209,326.923,328.657,326.923,329.104,326.923C329.552,326.923,330,326.923,330.448,326.923C330.896,326.923,331.343,313.846,331.791,313.846C332.239,313.846,332.687,313.846,333.134,313.846C333.582,313.846,334.03,340,334.478,340C334.925,340,335.373,340,335.821,340C336.269,340,336.716,326.923,337.164,326.923C337.612,326.923,338.06,326.923,338.507,326.923C338.955,326.923,339.403,296.41,339.851,287.692C340.299,278.974,340.746,274.615,341.194,274.615C341.642,274.615,342.09,281.154,342.537,287.692C342.985,294.231,343.433,313.846,343.881,313.846C344.328,313.846,344.776,313.846,345.224,313.846C345.672,313.846,346.119,340,346.567,340C347.015,340,347.463,340,347.91,340C348.358,340,348.806,340,349.254,340C349.701,340,350.149,340,350.597,340C351.045,340,351.493,340,351.94,340C352.388,340,352.836,333.462,353.284,326.923C353.731,320.385,354.179,316.026,354.627,300.769C355.075,285.513,355.522,235.385,355.97,235.385C356.418,235.385,356.866,261.538,357.313,261.538C357.761,261.538,358.209,248.462,358.657,248.462C359.104,248.462,359.552,248.462,360,248.462C360.448,248.462,360.896,244.103,361.343,235.385C361.791,226.667,362.239,213.59,362.687,196.154C363.134,178.718,363.582,130.769,364.03,130.769C364.478,130.769,364.925,148.205,365.373,156.923C365.821,165.641,366.269,170,366.716,183.077C367.164,196.154,367.612,235.385,368.06,235.385C368.507,235.385,368.955,235.385,369.403,235.385C369.851,235.385,370.299,235.385,370.746,235.385C371.194,235.385,371.642,235.385,372.09,235.385C372.537,235.385,372.985,235.385,373.433,235.385C373.881,235.385,374.328,222.308,374.776,222.308C375.224,222.308,375.672,248.462,376.119,248.462C376.567,248.462,377.015,241.923,377.463,235.385C377.91,228.846,378.358,217.949,378.806,209.231C379.254,200.513,379.701,196.154,380.149,183.077C380.597,170,381.045,130.769,381.493,130.769C381.94,130.769,382.388,130.769,382.836,130.769C383.284,130.769,383.731,156.923,384.179,156.923C384.627,156.923,385.075,100.256,385.522,91.538C385.97,82.821,386.418,78.462,386.866,78.462C387.313,78.462,387.761,78.462,388.209,78.462C388.657,78.462,389.104,104.615,389.552,104.615C390,104.615,390.448,100.256,390.896,91.538C391.343,82.821,391.791,52.308,392.239,52.308C392.687,52.308,393.134,52.308,393.582,52.308C394.03,52.308,394.478,65.385,394.925,65.385C395.373,65.385,395.821,65.385,396.269,65.385C396.716,65.385,397.164,56.667,397.612,52.308C398.06,47.949,398.507,45.769,398.955,39.231C399.403,32.692,399.851,13.077,400.299,13.077C400.746,13.077,401.194,54.487,401.642,78.462C402.09,102.436,402.537,113.333,402.985,156.923C403.433,200.513,403.881,340,404.328,340C404.776,340,405.224,340,405.672,340C406.119,340,406.567,340,407.015,340C407.463,340,407.91,340,408.358,340C408.806,340,409.254,340,409.701,340C410.149,340,410.597,340,411.045,340C411.493,340,411.94,340,412.388,340C412.836,340,413.284,340,413.731,340C414.179,340,414.627,340,415.075,340C415.522,340,415.97,340,416.418,340C416.866,340,417.313,340,417.761,340C418.209,340,418.657,313.846,419.104,313.846C419.552,313.846,420,313.846,420.448,313.846C420.896,313.846,421.343,289.872,421.791,274.615C422.239,259.359,422.687,222.308,423.134,222.308C423.582,222.308,424.03,287.692,424.478,287.692C424.925,287.692,425.373,283.333,425.821,274.615C426.269,265.897,426.716,222.308,427.164,222.308C427.612,222.308,428.06,248.462,428.507,248.462C428.955,248.462,429.403,248.462,429.851,248.462C430.299,248.462,430.746,248.462,431.194,248.462C431.642,248.462,432.09,235.385,432.537,235.385C432.985,235.385,433.433,239.744,433.881,248.462C434.328,257.179,434.776,326.923,435.224,326.923C435.672,326.923,436.119,326.923,436.567,326.923C437.015,326.923,437.463,340,437.91,340C438.358,340,438.806,340,439.254,340C439.701,340,440.149,340,440.597,340C441.045,340,441.493,307.308,441.94,287.692C442.388,268.077,442.836,222.308,443.284,222.308C443.731,222.308,444.179,261.538,444.627,274.615C445.075,287.692,445.522,300.769,445.97,300.769C446.418,300.769,446.866,294.231,447.313,287.692C447.761,281.154,448.209,261.538,448.657,261.538C449.104,261.538,449.552,274.615,450,287.692C450.448,300.769,450.896,340,451.343,340C451.791,340,452.239,331.282,452.687,326.923C453.134,322.564,453.582,313.846,454.03,313.846C454.478,313.846,454.925,340,455.373,340C455.821,340,456.269,340,456.716,340C457.164,340,457.612,340,458.06,340C458.507,340,458.955,340,459.403,340C459.851,340,460.299,340,460.746,340C461.194,340,461.642,340,462.09,340C462.537,340,462.985,340,463.433,340C463.881,340,464.328,340,464.776,340C465.224,340,465.672,340,466.119,340C466.567,340,467.015,340,467.463,340C467.91,340,468.358,340,468.806,340C469.254,340,469.701,340,470.149,340C470.597,340,471.045,340,471.493,340C471.94,340,472.388,340,472.836,340C473.284,340,473.731,340,474.179,340C474.627,340,475.075,340,475.522,340C475.97,340,476.418,340,476.866,340C477.313,340,477.761,340,478.209,340C478.657,340,479.104,340,479.552,340C480,340,480.448,340,480.896,340C481.343,340,481.791,340,482.239,340C482.687,340,483.134,340,483.582,340C484.03,340,484.478,340,484.925,340C485.373,340,485.821,340,486.269,340C486.716,340,487.164,340,487.612,340C488.06,340,488.507,340,488.955,340C489.403,340,489.851,340,490.299,340C490.746,340,491.194,340,491.642,340C492.09,340,492.537,340,492.985,340C493.433,340,493.881,340,494.328,340C494.776,340,495.224,340,495.672,340C496.119,340,496.567,340,497.015,340C497.463,340,497.91,340,498.358,340C498.806,340,499.254,340,499.701,340C500.149,340,500.597,340,501.045,340C501.493,340,501.94,340,502.388,340C502.836,340,503.284,340,503.731,340C504.179,340,504.627,340,505.075,340C505.522,340,505.97,340,506.418,340C506.866,340,507.313,340,507.761,340C508.209,340,508.657,340,509.104,340C509.552,340,510,340,510.448,340C510.896,340,511.343,340,511.791,340C512.239,340,512.687,340,513.134,340C513.582,340,514.03,340,514.478,340C514.925,340,515.373,340,515.821,340C516.269,340,516.716,340,517.164,340C517.612,340,518.06,340,518.507,340C518.955,340,519.403,340,519.851,340C520.299,340,520.746,340,521.194,340C521.642,340,522.09,340,522.537,340C522.985,340,523.433,340,523.881,340C524.328,340,524.776,340,525.224,340C525.672,340,526.119,340,526.567,340C527.015,340,527.463,340,527.91,340C528.358,340,528.806,340,529.254,340C529.701,340,530.149,340,530.597,340C531.045,340,531.493,340,531.94,340C532.388,340,532.836,340,533.284,340C533.731,340,534.179,340,534.627,340C535.075,340,535.522,340,535.97,340C536.418,340,536.866,340,537.313,340C537.761,340,538.209,340,538.657,340C539.104,340,539.552,340,540,340C540.448,340,540.896,340,541.343,340C541.791,340,542.239,340,542.687,340C543.134,340,543.582,340,544.03,340C544.478,340,544.925,340,545.373,340C545.821,340,546.269,340,546.716,340C547.164,340,547.612,340,548.06,340C548.507,340,548.955,340,549.403,340C549.851,340,550.299,340,550.746,340C551.194,340,551.642,340,552.09,340C552.537,340,552.985,340,553.433,340C553.881,340,554.328,340,554.776,340C555.224,340,555.672,340,556.119,340C556.567,340,557.015,340,557.463,340C557.91,340,558.358,340,558.806,340C559.254,340,559.701,340,560.149,340C560.597,340,561.045,340,561.493,340C561.94,340,562.388,340,562.836,340C563.284,340,563.731,340,564.179,340C564.627,340,565.075,340,565.522,340C565.97,340,566.418,340,566.866,340C567.313,340,567.761,326.923,568.209,326.923C568.657,326.923,569.104,326.923,569.552,326.923C570,326.923,570.448,326.923,570.896,326.923C571.343,326.923,571.791,326.923,572.239,326.923C572.687,326.923,573.134,326.923,573.582,326.923C574.03,326.923,574.478,326.923,574.925,326.923C575.373,326.923,575.821,326.923,576.269,326.923C576.716,326.923,577.164,326.923,577.612,326.923C578.06,326.923,578.507,326.923,578.955,326.923C579.403,326.923,579.851,326.923,580.299,326.923C580.746,326.923,581.194,326.923,581.642,326.923C582.09,326.923,582.537,326.923,582.985,326.923C583.433,326.923,583.881,326.923,584.328,326.923C584.776,326.923,585.224,326.923,585.672,326.923C586.119,326.923,586.567,326.923,587.015,326.923C587.463,326.923,587.91,326.923,588.358,326.923C588.806,326.923,589.254,326.923,589.701,326.923C590.149,326.923,590.597,326.923,591.045,326.923C591.493,326.923,591.94,326.923,592.388,326.923C592.836,326.923,593.284,326.923,593.731,326.923C594.179,326.923,594.627,326.923,595.075,326.923C595.522,326.923,595.97,326.923,596.418,326.923C596.866,326.923,597.313,326.923,597.761,326.923C598.209,326.923,598.657,326.923,599.104,326.923C599.552,326.923,600,326.923,600.448,326.923C600.896,326.923,601.343,326.923,601.791,326.923C602.239,326.923,602.687,326.923,603.134,326.923C603.582,326.923,604.03,326.923,604.478,326.923C604.925,326.923,605.373,326.923,605.821,326.923C606.269,326.923,606.716,326.923,607.164,326.923C607.612,326.923,608.06,326.923,608.507,326.923C608.955,326.923,609.403,326.923,609.851,326.923C610.299,326.923,610.746,326.923,611.194,326.923C611.642,326.923,612.09,326.923,612.537,326.923C612.985,326.923,613.433,326.923,613.881,326.923C614.328,326.923,614.776,326.923,615.224,326.923C615.672,326.923,616.119,326.923,616.567,326.923C617.015,326.923,617.463,326.923,617.91,326.923C618.358,326.923,618.806,326.923,619.254,326.923C619.701,326.923,620.149,326.923,620.597,326.923C621.045,326.923,621.493,326.923,621.94,326.923C622.388,326.923,622.836,326.923,623.284,326.923C623.731,326.923,624.179,326.923,624.627,326.923C625.075,326.923,625.522,326.923,625.97,326.923C626.418,326.923,626.866,326.923,627.313,326.923C627.761,326.923,628.209,326.923,628.657,326.923C629.104,326.923,629.552,326.923,630,326.923C630.448,326.923,630.896,326.923,631.343,326.923C631.791,326.923,632.239,326.923,632.687,326.923C633.134,326.923,633.582,326.923,634.03,326.923C634.478,326.923,634.925,326.923,635.373,326.923C635.821,326.923,636.269,326.923,636.716,326.923C637.164,326.923,637.612,326.923,638.06,326.923C638.507,326.923,638.955,326.923,639.403,326.923C639.851,326.923,640.299,326.923,640.746,326.923C641.194,326.923,641.642,326.923,642.09,326.923C642.537,326.923,642.985,326.923,643.433,326.923C643.881,326.923,644.328,326.923,644.776,326.923C645.224,326.923,645.672,326.923,646.119,326.923C646.567,326.923,647.015,326.923,647.463,326.923C647.91,326.923,648.358,326.923,648.806,326.923C649.254,326.923,649.701,326.923,650.149,326.923C650.597,326.923,651.045,326.923,651.493,326.923C651.94,326.923,652.388,326.923,652.836,326.923C653.284,326.923,653.731,326.923,654.179,326.923C654.627,326.923,655.075,326.923,655.522,326.923C655.97,326.923,656.418,326.923,656.866,326.923C657.313,326.923,657.761,326.923,658.209,326.923C658.657,326.923,659.104,326.923,659.552,326.923C660,326.923,660.448,326.923,660.896,326.923C661.343,326.923,661.791,326.923,662.239,326.923C662.687,326.923,663.134,326.923,663.582,326.923C664.03,326.923,664.478,326.923,664.925,326.923C665.373,326.923,665.821,326.923,666.269,326.923C666.716,326.923,667.164,326.923,667.612,326.923C668.06,326.923,668.507,326.923,668.955,326.923C669.403,326.923,669.851,326.923,670.299,326.923C670.746,326.923,671.194,326.923,671.642,326.923C672.09,326.923,672.537,326.923,672.985,326.923C673.433,326.923,673.881,326.923,674.328,326.923C674.776,326.923,675.224,326.923,675.672,326.923C676.119,326.923,676.567,326.923,677.015,326.923C677.463,326.923,677.91,326.923,678.358,326.923C678.806,326.923,679.254,326.923,679.701,326.923C680.149,326.923,680.597,326.923,681.045,326.923C681.493,326.923,681.94,326.923,682.388,326.923C682.836,326.923,683.284,326.923,683.731,326.923C684.179,326.923,684.627,326.923,685.075,326.923C685.522,326.923,685.97,326.923,686.418,326.923C686.866,326.923,687.313,326.923,687.761,326.923C688.209,326.923,688.657,326.923,689.104,326.923C689.552,326.923,690,326.923,690.448,326.923C690.896,326.923,691.343,326.923,691.791,326.923C692.239,326.923,692.687,326.923,693.134,326.923C693.582,326.923,694.03,326.923,694.478,326.923C694.925,326.923,695.373,326.923,695.821,326.923C696.269,326.923,696.716,326.923,697.164,326.923C697.612,326.923,698.06,326.923,698.507,326.923C698.955,326.923,699.403,326.923,699.851,326.923C700.299,326.923,700.746,326.923,701.194,326.923C701.642,326.923,702.09,326.923,702.537,326.923C702.985,326.923,703.433,326.923,703.881,326.923C704.328,326.923,704.776,326.923,705.224,326.923C705.672,326.923,706.119,326.923,706.567,326.923C707.015,326.923,707.463,326.923,707.91,326.923C708.358,326.923,708.806,326.923,709.254,326.923C709.701,326.923,710.149,326.923,710.597,326.923C711.045,326.923,711.493,326.923,711.94,326.923C712.388,326.923,712.836,326.923,713.284,326.923C713.731,326.923,714.179,326.923,714.627,326.923C715.075,326.923,715.522,326.923,715.97,326.923C716.418,326.923,716.866,326.923,717.313,326.923C717.761,326.923,718.209,326.923,718.657,326.923C719.104,326.923,719.552,326.923,720,326.923"></path><circle class="dot" cx="0" cy="340" r="3" fill="#2563eb"></circle><circle class="dot" cx="1.3432835820895521" cy="340" r="3" fill="#2563eb"></circle><circle class="dot" cx="2.6865671641791042" cy="340" r="3" fill="#2563eb"></circle><circle class="dot" cx="4.029850746268656" cy="340" r="3" fill="#2563eb"></circle><circle class="dot" cx="5.3731343283582085" cy="340" r="3" fill="#2563eb"></circle><circle class="dot" cx="6.716417910447761" cy="340" r="3" fill="#2563eb"></circle><circle class="dot" cx="8.059701492537313" cy="340" r="3" fill="#2563eb"></circle><circle class="dot" cx="9.402985074626866" cy="340" r="3" fill="#2563eb"></circle><circle class="dot" cx="10.746268656716417" cy="287.6923076923077" r="3" fill="#2563eb"></circle><circle class="dot" cx="12.08955223880597" cy="274.61538461538464" r="3" fill="#2563eb"></circle><circle class="dot" cx="13.432835820895521" cy="300.7692307692308" r="3" fill="#2563eb"></circle><circle class="dot" cx="14.776119402985074" cy="326.9230769230769" r="3" fill="#2563eb"></circle><circle class="dot" cx="16.119402985074625" cy="313.84615384615387" r="3" fill="#2563eb"></circle><circle class="dot" cx="17.46268656716418" cy="274.61538461538464" r="3" fill="#2563eb"></circle><circle class="dot" cx="18.80597014925373" cy="300.7692307692308" r="3" fill="#2563eb"></circle><circle class="dot" cx="20.149253731343283" cy="300.7692307692308" r="3" fill="#2563eb"></circle><circle class="dot" cx="21.492537313432834" cy="300.7692307692308" r="3" fill="#2563eb"></circle><circle class="dot" cx="22.83582089552239" cy="300.7692307692308" r="3" fill="#2563eb"></circle><circle class="dot" cx="24.17910447761194" cy="326.9230769230769" r="3" fill="#2563eb"></circle><circle class="dot" cx="25.52238805970149" cy="313.84615384615387" r="3" fill="#2563eb"></circle><circle class="dot" cx="26.865671641791042" cy="300.7692307692308" r="3" fill="#2563eb"></circle><circle class="dot" cx="28.208955223880597" cy="340" r="3" fill="#2563eb"></circle><circle class="dot" cx="29.55223880597015" cy="340" r="3" fill="#2563eb"></circle><circle class="dot" cx="30.8955223880597" cy="340" r="3" fill="#2563eb"></circle><circle class="dot" cx="32.23880597014925" cy="313.84615384615387" r="3" fill="#2563eb"></circle><circle class="dot" cx="33.582089552238806" cy="326.9230769230769" r="3" fill="#2563eb"></circle><circle class="dot" cx="34.92537313432836" cy="313.84615384615387" r="3" fill="#2563eb"></circle><circle class="dot" cx="36.26865671641791" cy="274.61538461538464" r="3" fill="#2563eb"></circle><circle class="dot" cx="37.61194029850746" cy="261.5384615384615" r="3" fill="#2563eb"></circle><circle class="dot" cx="38.95522388059701" cy="274.61538461538464" r="3" fill="#2563eb"></circle><circle class="dot" cx="40.298507462686565" cy="287.6923076923077" r="3" fill="#2563eb"></circle><circle class="dot" cx="41.64179104477612" cy="235.3846153846154" r="3" fill="#2563eb"></circle><circle class="dot" cx="42.98507462686567" cy="261.5384615384615" r="3" fill="#2563eb"></circle><circle class="dot" cx="44.32835820895522" cy="287.6923076923077" r="3" fill="#2563eb"></circle><circle class="dot" cx="45.67164179104478" cy="287.6923076923077" r="3" fill="#2563eb"></circle><circle class="dot" cx="47.014925373134325" cy="287.6923076923077" r="3" fill="#2563eb"></circle><circle class="dot" cx="48.35820895522388" cy="300.7692307692308" r="3" fill="#2563eb"></circle><circle class="dot" cx="49.701492537313435" cy="313.84615384615387" r="3" fill="#2563eb"></circle><circle class="dot" cx="51.04477611940298" cy="235.3846153846154" r="3" fill="#2563eb"></circle><circle class="dot" cx="52.38805970149254" cy="261.5384615384615" r="3" fill="#2563eb"></circle><circle class="dot" cx="53.731343283582085" cy="313.84615384615387" r="3" fill="#2563eb"></circle><circle class="dot" cx="55.07462686567164" cy="287.6923076923077" r="3" fill="#2563eb"></circle><circle class="dot" cx="56.417910447761194" cy="300.7692307692308" r="3" fill="#2563eb"></circle><circle class="dot" cx="57.76119402985074" cy="300.7692307692308" r="3" fill="#2563eb"></circle><circle class="dot" cx="59.1044776119403" cy="313.84615384615387" r="3" fill="#2563eb"></circle><circle class="dot" cx="60.44776119402986" cy="261.5384615384615" r="3" fill="#2563eb"></circle><circle class="dot" cx="61.7910447761194" cy="261.5384615384615" r="3" fill="#2563eb"></circle><circle class="dot" cx="63.13432835820896" cy="248.46153846153845" r="3" fill="#2563eb"></circle><circle class="dot" cx="64.4776119402985" cy="248.46153846153845" r="3" fill="#2563eb"></circle><circle class="dot" cx="65.82089552238806" cy="261.5384615384615" r="3" fill="#2563eb"></circle><circle class="dot" cx="67.16417910447761" cy="248.46153846153845" r="3" fill="#2563eb"></circle><circle class="dot" cx="68.50746268656717" cy="248.46153846153845" r="3" fill="#2563eb"></circle><circle class="dot" cx="69.85074626865672" cy="274.61538461538464" r="3" fill="#2563eb"></circle><circle class="dot" cx="71.19402985074626" cy="287.6923076923077" r="3" fill="#2563eb"></circle><circle class="dot" cx="72.53731343283582" cy="313.84615384615387" r="3" fill="#2563eb"></circle><circle class="dot" cx="73.88059701492537" cy="326.9230769230769" r="3" fill="#2563eb"></circle><circle class="dot" cx="75.22388059701493" cy="313.84615384615387" r="3" fill="#2563eb"></circle><circle class="dot" cx="76.56716417910448" cy="340" r="3" fill="#2563eb"></circle><circle class="dot" cx="77.91044776119402" cy="326.9230769230769" r="3" fill="#2563eb"></circle><circle class="dot" cx="79.25373134328358" cy="326.9230769230769" r="3" fill="#2563eb"></circle><circle class="dot" cx="80.59701492537313" cy="326.9230769230769" r="3" fill="#2563eb"></circle><circle class="dot" cx="81.94029850746269" cy="340" r="3" fill="#2563eb"></circle><circle class="dot" cx="83.28358208955224" cy="274.61538461538464" r="3" fill="#2563eb"></circle><circle class="dot" cx="84.6268656716418" cy="235.3846153846154" r="3" fill="#2563eb"></circle><circle class="dot" cx="85.97014925373134" cy="248.46153846153845" r="3" fill="#2563eb"></circle><circle class="dot" cx="87.3134328358209" cy="274.61538461538464" r="3" fill="#2563eb"></circle><circle class="dot" cx="88.65671641791045" cy="300.7692307692308" r="3" fill="#2563eb"></circle><circle class="dot" cx="90" cy="313.84615384615387" r="3" fill="#2563eb"></circle><circle class="dot" cx="91.34328358208955" cy="300.7692307692308" r="3" fill="#2563eb"></circle><circle class="dot" cx="92.68656716417911" cy="287.6923076923077" r="3" fill="#2563eb"></circle><circle class="dot" cx="94.02985074626865" cy="287.6923076923077" r="3" fill="#2563eb"></circle><circle class="dot" cx="95.3731343283582" cy="287.6923076923077" r="3" fill="#2563eb"></circle><circle class="dot" cx="96.71641791044776" cy="287.6923076923077" r="3" fill="#2563eb"></circle><circle class="dot" cx="98.05970149253731" cy="261.5384615384615" r="3" fill="#2563eb"></circle><circle class="dot" cx="99.40298507462687" cy="274.61538461538464" r="3" fill="#2563eb"></circle><circle class="dot" cx="100.74626865671641" cy="313.84615384615387" r="3" fill="#2563eb"></circle><circle class="dot" cx="102.08955223880596" cy="313.84615384615387" r="3" fill="#2563eb"></circle><circle class="dot" cx="103.43283582089552" cy="313.84615384615387" r="3" fill="#2563eb"></circle><circle class="dot" cx="104.77611940298507" cy="313.84615384615387" r="3" fill="#2563eb"></circle><circle class="dot" cx="106.11940298507463" cy="326.9230769230769" r="3" fill="#2563eb"></circle><circle class="dot" cx="107.46268656716417" cy="300.7692307692308" r="3" fill="#2563eb"></circle><circle class="dot" cx="108.80597014925372" cy="300.7692307692308" r="3" fill="#2563eb"></circle><circle class="dot" cx="110.14925373134328" cy="287.6923076923077" r="3" fill="#2563eb"></circle><circle class="dot" cx="111.49253731343283" cy="300.7692307692308" r="3" fill="#2563eb"></circle><circle class="dot" cx="112.83582089552239" cy="300.7692307692308" r="3" fill="#2563eb"></circle><circle class="dot" cx="114.17910447761194" cy="313.84615384615387" r="3" fill="#2563eb"></circle><circle class="dot" cx="115.52238805970148" cy="340" r="3" fill="#2563eb"></circle><circle class="dot" cx="116.86567164179104" cy="340" r="3" fill="#2563eb"></circle><circle class="dot" cx="118.2089552238806" cy="340" r="3" fill="#2563eb"></circle><circle class="dot" cx="119.55223880597015" cy="340" r="3" fill="#2563eb"></circle><circle class="dot" cx="120.89552238805972" cy="340" r="3" fill="#2563eb"></circle><circle class="dot" cx="122.23880597014924" cy="340" r="3" fill="#2563eb"></circle><circle class="dot" cx="123.5820895522388" cy="340" r="3" fill="#2563eb"></circle><circle class="dot" cx="124.92537313432835" cy="340" r="3" fill="#2563eb"></circle><circle class="dot" cx="126.26865671641792" cy="340" r="3" fill="#2563eb"></circle><circle class="dot" cx="127.61194029850748" cy="340" r="3" fill="#2563eb"></circle><circle class="dot" cx="128.955223880597" cy="340" r="3" fill="#2563eb"></circle><circle class="dot" cx="130.29850746268656" cy="340" r="3" fill="#2563eb"></circle><circle class="dot" cx="131.6417910447761" cy="340" r="3" fill="#2563eb"></circle><circle class="dot" cx="132.98507462686567" cy="340" r="3" fill="#2563eb"></circle><circle class="dot" cx="134.32835820895522" cy="340" r="3" fill="#2563eb"></circle><circle class="dot" cx="135.67164179104478" cy="340" r="3" fill="#2563eb"></circle><circle class="dot" cx="137.01492537313433" cy="340" r="3" fill="#2563eb"></circle><circle class="dot" cx="138.3582089552239" cy="340" r="3" fill="#2563eb"></circle><circle class="dot" cx="139.70149253731344" cy="274.61538461538464" r="3" fill="#2563eb"></circle><circle class="dot" cx="141.044776119403" cy="340" r="3" fill="#2563eb"></circle><circle class="dot" cx="142.38805970149252" cy="340" r="3" fill="#2563eb"></circle><circle class="dot" cx="143.73134328358208" cy="340" r="3" fill="#2563eb"></circle><circle class="dot" cx="145.07462686567163" cy="326.9230769230769" r="3" fill="#2563eb"></circle><circle class="dot" cx="146.4179104477612" cy="248.46153846153845" r="3" fill="#2563eb"></circle><circle class="dot" cx="147.76119402985074" cy="261.5384615384615" r="3" fill="#2563eb"></circle><circle class="dot" cx="149.1044776119403" cy="340" r="3" fill="#2563eb"></circle><circle class="dot" cx="150.44776119402985" cy="326.9230769230769" r="3" fill="#2563eb"></circle><circle class="dot" cx="151.7910447761194" cy="313.84615384615387" r="3" fill="#2563eb"></circle><circle class="dot" cx="153.13432835820896" cy="326.9230769230769" r="3" fill="#2563eb"></circle><circle class="dot" cx="154.47761194029852" cy="313.84615384615387" r="3" fill="#2563eb"></circle><circle class="dot" cx="155.82089552238804" cy="313.84615384615387" r="3" fill="#2563eb"></circle><circle class="dot" cx="157.1641791044776" cy="313.84615384615387" r="3" fill="#2563eb"></circle><circle class="dot" cx="158.50746268656715" cy="340" r="3" fill="#2563eb"></circle><circle class="dot" cx="159.8507462686567" cy="340" r="3" fill="#2563eb"></circle><circle class="dot" cx="161.19402985074626" cy="340" r="3" fill="#2563eb"></circle><circle class="dot" cx="162.53731343283584" cy="326.9230769230769" r="3" fill="#2563eb"></circle><circle class="dot" cx="163.88059701492537" cy="340" r="3" fill="#2563eb"></circle><circle class="dot" cx="165.22388059701493" cy="340" r="3" fill="#2563eb"></circle><circle class="dot" cx="166.56716417910448" cy="340" r="3" fill="#2563eb"></circle><circle class="dot" cx="167.91044776119404" cy="340" r="3" fill="#2563eb"></circle><circle class="dot" cx="169.2537313432836" cy="340" r="3" fill="#2563eb"></circle><circle class="dot" cx="170.59701492537312" cy="340" r="3" fill="#2563eb"></circle><circle class="dot" cx="171.94029850746267" cy="340" r="3" fill="#2563eb"></circle><circle class="dot" cx="173.28358208955223" cy="340" r="3" fill="#2563eb"></circle><circle class="dot" cx="174.6268656716418" cy="340" r="3" fill="#2563eb"></circle><circle class="dot" cx="175.97014925373136" cy="340" r="3" fill="#2563eb"></circle><circle class="dot" cx="177.3134328358209" cy="340" r="3" fill="#2563eb"></circle><circle class="dot" cx="178.65671641791045" cy="340" r="3" fill="#2563eb"></circle><circle class="dot" cx="180" cy="340" r="3" fill="#2563eb"></circle><circle class="dot" cx="181.34328358208953" cy="340" r="3" fill="#2563eb"></circle><circle class="dot" cx="182.6865671641791" cy="340" r="3" fill="#2563eb"></circle><circle class="dot" cx="184.02985074626864" cy="340" r="3" fill="#2563eb"></circle><circle class="dot" cx="185.37313432835822" cy="340" r="3" fill="#2563eb"></circle><circle class="dot" cx="186.71641791044777" cy="340" r="3" fill="#2563eb"></circle><circle class="dot" cx="188.0597014925373" cy="340" r="3" fill="#2563eb"></circle><circle class="dot" cx="189.40298507462688" cy="340" r="3" fill="#2563eb"></circle><circle class="dot" cx="190.7462686567164" cy="340" r="3" fill="#2563eb"></circle><circle class="dot" cx="192.089552238806" cy="340" r="3" fill="#2563eb"></circle><circle class="dot" cx="193.43283582089552" cy="340" r="3" fill="#2563eb"></circle><circle class="dot" cx="194.77611940298505" cy="340" r="3" fill="#2563eb"></circle><circle class="dot" cx="196.11940298507463" cy="340" r="3" fill="#2563eb"></circle><circle class="dot" cx="197.46268656716416" cy="340" r="3" fill="#2563eb"></circle><circle class="dot" cx="198.80597014925374" cy="340" r="3" fill="#2563eb"></circle><circle class="dot" cx="200.1492537313433" cy="340" r="3" fill="#2563eb"></circle><circle class="dot" cx="201.49253731343282" cy="340" r="3" fill="#2563eb"></circle><circle class="dot" cx="202.8358208955224" cy="340" r="3" fill="#2563eb"></circle><circle class="dot" cx="204.17910447761193" cy="313.84615384615387" r="3" fill="#2563eb"></circle><circle class="dot" cx="205.5223880597015" cy="326.9230769230769" r="3" fill="#2563eb"></circle><circle class="dot" cx="206.86567164179104" cy="340" r="3" fill="#2563eb"></circle><circle class="dot" cx="208.20895522388057" cy="326.9230769230769" r="3" fill="#2563eb"></circle><circle class="dot" cx="209.55223880597015" cy="313.84615384615387" r="3" fill="#2563eb"></circle><circle class="dot" cx="210.8955223880597" cy="313.84615384615387" r="3" fill="#2563eb"></circle><circle class="dot" cx="212.23880597014926" cy="300.7692307692308" r="3" fill="#2563eb"></circle><circle class="dot" cx="213.5820895522388" cy="274.61538461538464" r="3" fill="#2563eb"></circle><circle class="dot" cx="214.92537313432834" cy="274.61538461538464" r="3" fill="#2563eb"></circle><circle class="dot" cx="216.26865671641792" cy="287.6923076923077" r="3" fill="#2563eb"></circle><circle class="dot" cx="217.61194029850745" cy="300.7692307692308" r="3" fill="#2563eb"></circle><circle class="dot" cx="218.95522388059703" cy="300.7692307692308" r="3" fill="#2563eb"></circle><circle class="dot" cx="220.29850746268656" cy="287.6923076923077" r="3" fill="#2563eb"></circle><circle class="dot" cx="221.6417910447761" cy="300.7692307692308" r="3" fill="#2563eb"></circle><circle class="dot" cx="222.98507462686567" cy="300.7692307692308" r="3" fill="#2563eb"></circle><circle class="dot" cx="224.32835820895522" cy="274.61538461538464" r="3" fill="#2563eb"></circle><circle class="dot" cx="225.67164179104478" cy="274.61538461538464" r="3" fill="#2563eb"></circle><circle class="dot" cx="227.01492537313433" cy="261.5384615384615" r="3" fill="#2563eb"></circle><circle class="dot" cx="228.3582089552239" cy="261.5384615384615" r="3" fill="#2563eb"></circle><circle class="dot" cx="229.70149253731344" cy="248.46153846153845" r="3" fill="#2563eb"></circle><circle class="dot" cx="231.04477611940297" cy="261.5384615384615" r="3" fill="#2563eb"></circle><circle class="dot" cx="232.38805970149255" cy="274.61538461538464" r="3" fill="#2563eb"></circle><circle class="dot" cx="233.73134328358208" cy="274.61538461538464" r="3" fill="#2563eb"></circle><circle class="dot" cx="235.07462686567166" cy="287.6923076923077" r="3" fill="#2563eb"></circle><circle class="dot" cx="236.4179104477612" cy="287.6923076923077" r="3" fill="#2563eb"></circle><circle class="dot" cx="237.76119402985074" cy="274.61538461538464" r="3" fill="#2563eb"></circle><circle class="dot" cx="239.1044776119403" cy="248.46153846153845" r="3" fill="#2563eb"></circle><circle class="dot" cx="240.44776119402985" cy="235.3846153846154" r="3" fill="#2563eb"></circle><circle class="dot" cx="241.79104477611943" cy="235.3846153846154" r="3" fill="#2563eb"></circle><circle class="dot" cx="243.13432835820896" cy="235.3846153846154" r="3" fill="#2563eb"></circle><circle class="dot" cx="244.4776119402985" cy="248.46153846153845" r="3" fill="#2563eb"></circle><circle class="dot" cx="245.82089552238807" cy="222.30769230769232" r="3" fill="#2563eb"></circle><circle class="dot" cx="247.1641791044776" cy="196.15384615384616" r="3" fill="#2563eb"></circle><circle class="dot" cx="248.50746268656718" cy="209.23076923076925" r="3" fill="#2563eb"></circle><circle class="dot" cx="249.8507462686567" cy="235.3846153846154" r="3" fill="#2563eb"></circle><circle class="dot" cx="251.19402985074626" cy="209.23076923076925" r="3" fill="#2563eb"></circle><circle class="dot" cx="252.53731343283584" cy="248.46153846153845" r="3" fill="#2563eb"></circle><circle class="dot" cx="253.88059701492537" cy="248.46153846153845" r="3" fill="#2563eb"></circle><circle class="dot" cx="255.22388059701495" cy="222.30769230769232" r="3" fill="#2563eb"></circle><circle class="dot" cx="256.56716417910445" cy="235.3846153846154" r="3" fill="#2563eb"></circle><circle class="dot" cx="257.910447761194" cy="248.46153846153845" r="3" fill="#2563eb"></circle><circle class="dot" cx="259.2537313432836" cy="248.46153846153845" r="3" fill="#2563eb"></circle><circle class="dot" cx="260.5970149253731" cy="196.15384615384616" r="3" fill="#2563eb"></circle><circle class="dot" cx="261.9402985074627" cy="196.15384615384616" r="3" fill="#2563eb"></circle><circle class="dot" cx="263.2835820895522" cy="183.0769230769231" r="3" fill="#2563eb"></circle><circle class="dot" cx="264.6268656716418" cy="248.46153846153845" r="3" fill="#2563eb"></circle><circle class="dot" cx="265.97014925373134" cy="248.46153846153845" r="3" fill="#2563eb"></circle><circle class="dot" cx="267.3134328358209" cy="196.15384615384616" r="3" fill="#2563eb"></circle><circle class="dot" cx="268.65671641791045" cy="183.0769230769231" r="3" fill="#2563eb"></circle><circle class="dot" cx="270" cy="183.0769230769231" r="3" fill="#2563eb"></circle><circle class="dot" cx="271.34328358208955" cy="183.0769230769231" r="3" fill="#2563eb"></circle><circle class="dot" cx="272.6865671641791" cy="196.15384615384616" r="3" fill="#2563eb"></circle><circle class="dot" cx="274.02985074626866" cy="209.23076923076925" r="3" fill="#2563eb"></circle><circle class="dot" cx="275.3731343283582" cy="196.15384615384616" r="3" fill="#2563eb"></circle><circle class="dot" cx="276.7164179104478" cy="183.0769230769231" r="3" fill="#2563eb"></circle><circle class="dot" cx="278.0597014925373" cy="248.46153846153845" r="3" fill="#2563eb"></circle><circle class="dot" cx="279.4029850746269" cy="326.9230769230769" r="3" fill="#2563eb"></circle><circle class="dot" cx="280.7462686567164" cy="326.9230769230769" r="3" fill="#2563eb"></circle><circle class="dot" cx="282.089552238806" cy="313.84615384615387" r="3" fill="#2563eb"></circle><circle class="dot" cx="283.43283582089555" cy="300.7692307692308" r="3" fill="#2563eb"></circle><circle class="dot" cx="284.77611940298505" cy="287.6923076923077" r="3" fill="#2563eb"></circle><circle class="dot" cx="286.11940298507466" cy="287.6923076923077" r="3" fill="#2563eb"></circle><circle class="dot" cx="287.46268656716416" cy="300.7692307692308" r="3" fill="#2563eb"></circle><circle class="dot" cx="288.80597014925377" cy="287.6923076923077" r="3" fill="#2563eb"></circle><circle class="dot" cx="290.14925373134326" cy="287.6923076923077" r="3" fill="#2563eb"></circle><circle class="dot" cx="291.4925373134328" cy="313.84615384615387" r="3" fill="#2563eb"></circle><circle class="dot" cx="292.8358208955224" cy="300.7692307692308" r="3" fill="#2563eb"></circle><circle class="dot" cx="294.17910447761193" cy="274.61538461538464" r="3" fill="#2563eb"></circle><circle class="dot" cx="295.5223880597015" cy="274.61538461538464" r="3" fill="#2563eb"></circle><circle class="dot" cx="296.86567164179104" cy="287.6923076923077" r="3" fill="#2563eb"></circle><circle class="dot" cx="298.2089552238806" cy="300.7692307692308" r="3" fill="#2563eb"></circle><circle class="dot" cx="299.55223880597015" cy="222.30769230769232" r="3" fill="#2563eb"></circle><circle class="dot" cx="300.8955223880597" cy="196.15384615384616" r="3" fill="#2563eb"></circle><circle class="dot" cx="302.23880597014926" cy="222.30769230769232" r="3" fill="#2563eb"></circle><circle class="dot" cx="303.5820895522388" cy="222.30769230769232" r="3" fill="#2563eb"></circle><circle class="dot" cx="304.9253731343283" cy="235.3846153846154" r="3" fill="#2563eb"></circle><circle class="dot" cx="306.2686567164179" cy="326.9230769230769" r="3" fill="#2563eb"></circle><circle class="dot" cx="307.6119402985075" cy="274.61538461538464" r="3" fill="#2563eb"></circle><circle class="dot" cx="308.95522388059703" cy="222.30769230769232" r="3" fill="#2563eb"></circle><circle class="dot" cx="310.2985074626866" cy="248.46153846153845" r="3" fill="#2563eb"></circle><circle class="dot" cx="311.6417910447761" cy="287.6923076923077" r="3" fill="#2563eb"></circle><circle class="dot" cx="312.9850746268657" cy="300.7692307692308" r="3" fill="#2563eb"></circle><circle class="dot" cx="314.3283582089552" cy="313.84615384615387" r="3" fill="#2563eb"></circle><circle class="dot" cx="315.6716417910448" cy="340" r="3" fill="#2563eb"></circle><circle class="dot" cx="317.0149253731343" cy="340" r="3" fill="#2563eb"></circle><circle class="dot" cx="318.3582089552239" cy="340" r="3" fill="#2563eb"></circle><circle class="dot" cx="319.7014925373134" cy="340" r="3" fill="#2563eb"></circle><circle class="dot" cx="321.04477611940297" cy="340" r="3" fill="#2563eb"></circle><circle class="dot" cx="322.3880597014925" cy="340" r="3" fill="#2563eb"></circle><circle class="dot" cx="323.7313432835821" cy="340" r="3" fill="#2563eb"></circle><circle class="dot" cx="325.0746268656717" cy="340" r="3" fill="#2563eb"></circle><circle class="dot" cx="326.4179104477612" cy="340" r="3" fill="#2563eb"></circle><circle class="dot" cx="327.76119402985074" cy="326.9230769230769" r="3" fill="#2563eb"></circle><circle class="dot" cx="329.1044776119403" cy="326.9230769230769" r="3" fill="#2563eb"></circle><circle class="dot" cx="330.44776119402985" cy="326.9230769230769" r="3" fill="#2563eb"></circle><circle class="dot" cx="331.7910447761194" cy="313.84615384615387" r="3" fill="#2563eb"></circle><circle class="dot" cx="333.13432835820896" cy="313.84615384615387" r="3" fill="#2563eb"></circle><circle class="dot" cx="334.4776119402985" cy="340" r="3" fill="#2563eb"></circle><circle class="dot" cx="335.82089552238807" cy="340" r="3" fill="#2563eb"></circle><circle class="dot" cx="337.1641791044776" cy="326.9230769230769" r="3" fill="#2563eb"></circle><circle class="dot" cx="338.5074626865672" cy="326.9230769230769" r="3" fill="#2563eb"></circle><circle class="dot" cx="339.85074626865674" cy="287.6923076923077" r="3" fill="#2563eb"></circle><circle class="dot" cx="341.19402985074623" cy="274.61538461538464" r="3" fill="#2563eb"></circle><circle class="dot" cx="342.53731343283584" cy="287.6923076923077" r="3" fill="#2563eb"></circle><circle class="dot" cx="343.88059701492534" cy="313.84615384615387" r="3" fill="#2563eb"></circle><circle class="dot" cx="345.22388059701495" cy="313.84615384615387" r="3" fill="#2563eb"></circle><circle class="dot" cx="346.56716417910445" cy="340" r="3" fill="#2563eb"></circle><circle class="dot" cx="347.910447761194" cy="340" r="3" fill="#2563eb"></circle><circle class="dot" cx="349.2537313432836" cy="340" r="3" fill="#2563eb"></circle><circle class="dot" cx="350.5970149253731" cy="340" r="3" fill="#2563eb"></circle><circle class="dot" cx="351.9402985074627" cy="340" r="3" fill="#2563eb"></circle><circle class="dot" cx="353.2835820895522" cy="326.9230769230769" r="3" fill="#2563eb"></circle><circle class="dot" cx="354.6268656716418" cy="300.7692307692308" r="3" fill="#2563eb"></circle><circle class="dot" cx="355.97014925373134" cy="235.3846153846154" r="3" fill="#2563eb"></circle><circle class="dot" cx="357.3134328358209" cy="261.5384615384615" r="3" fill="#2563eb"></circle><circle class="dot" cx="358.65671641791045" cy="248.46153846153845" r="3" fill="#2563eb"></circle><circle class="dot" cx="360" cy="248.46153846153845" r="3" fill="#2563eb"></circle><circle class="dot" cx="361.34328358208955" cy="235.3846153846154" r="3" fill="#2563eb"></circle><circle class="dot" cx="362.68656716417905" cy="196.15384615384616" r="3" fill="#2563eb"></circle><circle class="dot" cx="364.02985074626866" cy="130.76923076923075" r="3" fill="#2563eb"></circle><circle class="dot" cx="365.3731343283582" cy="156.92307692307693" r="3" fill="#2563eb"></circle><circle class="dot" cx="366.7164179104478" cy="183.0769230769231" r="3" fill="#2563eb"></circle><circle class="dot" cx="368.0597014925373" cy="235.3846153846154" r="3" fill="#2563eb"></circle><circle class="dot" cx="369.4029850746269" cy="235.3846153846154" r="3" fill="#2563eb"></circle><circle class="dot" cx="370.74626865671644" cy="235.3846153846154" r="3" fill="#2563eb"></circle><circle class="dot" cx="372.08955223880594" cy="235.3846153846154" r="3" fill="#2563eb"></circle><circle class="dot" cx="373.43283582089555" cy="235.3846153846154" r="3" fill="#2563eb"></circle><circle class="dot" cx="374.7761194029851" cy="222.30769230769232" r="3" fill="#2563eb"></circle><circle class="dot" cx="376.1194029850746" cy="248.46153846153845" r="3" fill="#2563eb"></circle><circle class="dot" cx="377.46268656716416" cy="235.3846153846154" r="3" fill="#2563eb"></circle><circle class="dot" cx="378.80597014925377" cy="209.23076923076925" r="3" fill="#2563eb"></circle><circle class="dot" cx="380.1492537313433" cy="183.0769230769231" r="3" fill="#2563eb"></circle><circle class="dot" cx="381.4925373134328" cy="130.76923076923075" r="3" fill="#2563eb"></circle><circle class="dot" cx="382.8358208955224" cy="130.76923076923075" r="3" fill="#2563eb"></circle><circle class="dot" cx="384.179104477612" cy="156.92307692307693" r="3" fill="#2563eb"></circle><circle class="dot" cx="385.5223880597015" cy="91.53846153846155" r="3" fill="#2563eb"></circle><circle class="dot" cx="386.86567164179104" cy="78.46153846153848" r="3" fill="#2563eb"></circle><circle class="dot" cx="388.2089552238806" cy="78.46153846153848" r="3" fill="#2563eb"></circle><circle class="dot" cx="389.5522388059701" cy="104.61538461538463" r="3" fill="#2563eb"></circle><circle class="dot" cx="390.8955223880597" cy="91.53846153846155" r="3" fill="#2563eb"></circle><circle class="dot" cx="392.23880597014926" cy="52.307692307692314" r="3" fill="#2563eb"></circle><circle class="dot" cx="393.58208955223887" cy="52.307692307692314" r="3" fill="#2563eb"></circle><circle class="dot" cx="394.9253731343283" cy="65.38461538461542" r="3" fill="#2563eb"></circle><circle class="dot" cx="396.2686567164179" cy="65.38461538461542" r="3" fill="#2563eb"></circle><circle class="dot" cx="397.6119402985075" cy="52.307692307692314" r="3" fill="#2563eb"></circle><circle class="dot" cx="398.955223880597" cy="39.23076923076924" r="3" fill="#2563eb"></circle><circle class="dot" cx="400.2985074626866" cy="13.076923076923105" r="3" fill="#2563eb"></circle><circle class="dot" cx="401.64179104477614" cy="78.46153846153848" r="3" fill="#2563eb"></circle><circle class="dot" cx="402.98507462686564" cy="156.92307692307693" r="3" fill="#2563eb"></circle><circle class="dot" cx="404.3283582089552" cy="340" r="3" fill="#2563eb"></circle><circle class="dot" cx="405.6716417910448" cy="340" r="3" fill="#2563eb"></circle><circle class="dot" cx="407.01492537313436" cy="340" r="3" fill="#2563eb"></circle><circle class="dot" cx="408.35820895522386" cy="340" r="3" fill="#2563eb"></circle><circle class="dot" cx="409.7014925373134" cy="340" r="3" fill="#2563eb"></circle><circle class="dot" cx="411.044776119403" cy="340" r="3" fill="#2563eb"></circle><circle class="dot" cx="412.3880597014925" cy="340" r="3" fill="#2563eb"></circle><circle class="dot" cx="413.7313432835821" cy="340" r="3" fill="#2563eb"></circle><circle class="dot" cx="415.0746268656717" cy="340" r="3" fill="#2563eb"></circle><circle class="dot" cx="416.41791044776113" cy="340" r="3" fill="#2563eb"></circle><circle class="dot" cx="417.76119402985074" cy="340" r="3" fill="#2563eb"></circle><circle class="dot" cx="419.1044776119403" cy="313.84615384615387" r="3" fill="#2563eb"></circle><circle class="dot" cx="420.4477611940299" cy="313.84615384615387" r="3" fill="#2563eb"></circle><circle class="dot" cx="421.7910447761194" cy="274.61538461538464" r="3" fill="#2563eb"></circle><circle class="dot" cx="423.13432835820896" cy="222.30769230769232" r="3" fill="#2563eb"></circle><circle class="dot" cx="424.4776119402985" cy="287.6923076923077" r="3" fill="#2563eb"></circle><circle class="dot" cx="425.820895522388" cy="274.61538461538464" r="3" fill="#2563eb"></circle><circle class="dot" cx="427.1641791044776" cy="222.30769230769232" r="3" fill="#2563eb"></circle><circle class="dot" cx="428.5074626865672" cy="248.46153846153845" r="3" fill="#2563eb"></circle><circle class="dot" cx="429.8507462686567" cy="248.46153846153845" r="3" fill="#2563eb"></circle><circle class="dot" cx="431.19402985074623" cy="248.46153846153845" r="3" fill="#2563eb"></circle><circle class="dot" cx="432.53731343283584" cy="235.3846153846154" r="3" fill="#2563eb"></circle><circle class="dot" cx="433.8805970149254" cy="248.46153846153845" r="3" fill="#2563eb"></circle><circle class="dot" cx="435.2238805970149" cy="326.9230769230769" r="3" fill="#2563eb"></circle><circle class="dot" cx="436.56716417910445" cy="326.9230769230769" r="3" fill="#2563eb"></circle><circle class="dot" cx="437.91044776119406" cy="340" r="3" fill="#2563eb"></circle><circle class="dot" cx="439.25373134328356" cy="340" r="3" fill="#2563eb"></circle><circle class="dot" cx="440.5970149253731" cy="340" r="3" fill="#2563eb"></circle><circle class="dot" cx="441.9402985074627" cy="287.6923076923077" r="3" fill="#2563eb"></circle><circle class="dot" cx="443.2835820895522" cy="222.30769230769232" r="3" fill="#2563eb"></circle><circle class="dot" cx="444.6268656716418" cy="274.61538461538464" r="3" fill="#2563eb"></circle><circle class="dot" cx="445.97014925373134" cy="300.7692307692308" r="3" fill="#2563eb"></circle><circle class="dot" cx="447.31343283582095" cy="287.6923076923077" r="3" fill="#2563eb"></circle><circle class="dot" cx="448.65671641791045" cy="261.5384615384615" r="3" fill="#2563eb"></circle><circle class="dot" cx="450" cy="287.6923076923077" r="3" fill="#2563eb"></circle><circle class="dot" cx="451.34328358208955" cy="340" r="3" fill="#2563eb"></circle><circle class="dot" cx="452.68656716417905" cy="326.9230769230769" r="3" fill="#2563eb"></circle><circle class="dot" cx="454.02985074626866" cy="313.84615384615387" r="3" fill="#2563eb"></circle><circle class="dot" cx="455.3731343283582" cy="340" r="3" fill="#2563eb"></circle><circle class="dot" cx="456.7164179104478" cy="340" r="3" fill="#2563eb"></circle><circle class="dot" cx="458.0597014925373" cy="340" r="3" fill="#2563eb"></circle><circle class="dot" cx="459.4029850746269" cy="340" r="3" fill="#2563eb"></circle><circle class="dot" cx="460.74626865671644" cy="340" r="3" fill="#2563eb"></circle><circle class="dot" cx="462.08955223880594" cy="340" r="3" fill="#2563eb"></circle><circle class="dot" cx="463.43283582089555" cy="340" r="3" fill="#2563eb"></circle><circle class="dot" cx="464.7761194029851" cy="340" r="3" fill="#2563eb"></circle><circle class="dot" cx="466.1194029850746" cy="340" r="3" fill="#2563eb"></circle><circle class="dot" cx="467.46268656716416" cy="340" r="3" fill="#2563eb"></circle><circle class="dot" cx="468.80597014925377" cy="340" r="3" fill="#2563eb"></circle><circle class="dot" cx="470.1492537313433" cy="340" r="3" fill="#2563eb"></circle><circle class="dot" cx="471.4925373134328" cy="340" r="3" fill="#2563eb"></circle><circle class="dot" cx="472.8358208955224" cy="340" r="3" fill="#2563eb"></circle><circle class="dot" cx="474.179104477612" cy="340" r="3" fill="#2563eb"></circle><circle class="dot" cx="475.5223880597015" cy="340" r="3" fill="#2563eb"></circle><circle class="dot" cx="476.86567164179104" cy="340" r="3" fill="#2563eb"></circle><circle class="dot" cx="478.2089552238806" cy="340" r="3" fill="#2563eb"></circle><circle class="dot" cx="479.5522388059701" cy="340" r="3" fill="#2563eb"></circle><circle class="dot" cx="480.8955223880597" cy="340" r="3" fill="#2563eb"></circle><circle class="dot" cx="482.23880597014926" cy="340" r="3" fill="#2563eb"></circle><circle class="dot" cx="483.58208955223887" cy="340" r="3" fill="#2563eb"></circle><circle class="dot" cx="484.9253731343283" cy="340" r="3" fill="#2563eb"></circle><circle class="dot" cx="486.2686567164179" cy="340" r="3" fill="#2563eb"></circle><circle class="dot" cx="487.6119402985075" cy="340" r="3" fill="#2563eb"></circle><circle class="dot" cx="488.955223880597" cy="340" r="3" fill="#2563eb"></circle><circle class="dot" cx="490.2985074626866" cy="340" r="3" fill="#2563eb"></circle><circle class="dot" cx="491.64179104477614" cy="340" r="3" fill="#2563eb"></circle><circle class="dot" cx="492.98507462686564" cy="340" r="3" fill="#2563eb"></circle><circle class="dot" cx="494.3283582089552" cy="340" r="3" fill="#2563eb"></circle><circle class="dot" cx="495.6716417910448" cy="340" r="3" fill="#2563eb"></circle><circle class="dot" cx="497.01492537313436" cy="340" r="3" fill="#2563eb"></circle><circle class="dot" cx="498.35820895522386" cy="340" r="3" fill="#2563eb"></circle><circle class="dot" cx="499.7014925373134" cy="340" r="3" fill="#2563eb"></circle><circle class="dot" cx="501.044776119403" cy="340" r="3" fill="#2563eb"></circle><circle class="dot" cx="502.3880597014925" cy="340" r="3" fill="#2563eb"></circle><circle class="dot" cx="503.7313432835821" cy="340" r="3" fill="#2563eb"></circle><circle class="dot" cx="505.0746268656717" cy="340" r="3" fill="#2563eb"></circle><circle class="dot" cx="506.41791044776113" cy="340" r="3" fill="#2563eb"></circle><circle class="dot" cx="507.76119402985074" cy="340" r="3" fill="#2563eb"></circle><circle class="dot" cx="509.1044776119403" cy="340" r="3" fill="#2563eb"></circle><circle class="dot" cx="510.4477611940299" cy="340" r="3" fill="#2563eb"></circle><circle class="dot" cx="511.7910447761194" cy="340" r="3" fill="#2563eb"></circle><circle class="dot" cx="513.1343283582089" cy="340" r="3" fill="#2563eb"></circle><circle class="dot" cx="514.4776119402985" cy="340" r="3" fill="#2563eb"></circle><circle class="dot" cx="515.820895522388" cy="340" r="3" fill="#2563eb"></circle><circle class="dot" cx="517.1641791044776" cy="340" r="3" fill="#2563eb"></circle><circle class="dot" cx="518.5074626865672" cy="340" r="3" fill="#2563eb"></circle><circle class="dot" cx="519.8507462686566" cy="340" r="3" fill="#2563eb"></circle><circle class="dot" cx="521.1940298507462" cy="340" r="3" fill="#2563eb"></circle><circle class="dot" cx="522.5373134328358" cy="340" r="3" fill="#2563eb"></circle><circle class="dot" cx="523.8805970149255" cy="340" r="3" fill="#2563eb"></circle><circle class="dot" cx="525.223880597015" cy="340" r="3" fill="#2563eb"></circle><circle class="dot" cx="526.5671641791045" cy="340" r="3" fill="#2563eb"></circle><circle class="dot" cx="527.9104477611941" cy="340" r="3" fill="#2563eb"></circle><circle class="dot" cx="529.2537313432836" cy="340" r="3" fill="#2563eb"></circle><circle class="dot" cx="530.5970149253732" cy="340" r="3" fill="#2563eb"></circle><circle class="dot" cx="531.9402985074627" cy="340" r="3" fill="#2563eb"></circle><circle class="dot" cx="533.2835820895522" cy="340" r="3" fill="#2563eb"></circle><circle class="dot" cx="534.6268656716418" cy="340" r="3" fill="#2563eb"></circle><circle class="dot" cx="535.9701492537314" cy="340" r="3" fill="#2563eb"></circle><circle class="dot" cx="537.3134328358209" cy="340" r="3" fill="#2563eb"></circle><circle class="dot" cx="538.6567164179104" cy="340" r="3" fill="#2563eb"></circle><circle class="dot" cx="540" cy="340" r="3" fill="#2563eb"></circle><circle class="dot" cx="541.3432835820896" cy="340" r="3" fill="#2563eb"></circle><circle class="dot" cx="542.6865671641791" cy="340" r="3" fill="#2563eb"></circle><circle class="dot" cx="544.0298507462686" cy="340" r="3" fill="#2563eb"></circle><circle class="dot" cx="545.3731343283582" cy="340" r="3" fill="#2563eb"></circle><circle class="dot" cx="546.7164179104478" cy="340" r="3" fill="#2563eb"></circle><circle class="dot" cx="548.0597014925373" cy="340" r="3" fill="#2563eb"></circle><circle class="dot" cx="549.4029850746268" cy="340" r="3" fill="#2563eb"></circle><circle class="dot" cx="550.7462686567164" cy="340" r="3" fill="#2563eb"></circle><circle class="dot" cx="552.0895522388059" cy="340" r="3" fill="#2563eb"></circle><circle class="dot" cx="553.4328358208955" cy="340" r="3" fill="#2563eb"></circle><circle class="dot" cx="554.776119402985" cy="340" r="3" fill="#2563eb"></circle><circle class="dot" cx="556.1194029850745" cy="340" r="3" fill="#2563eb"></circle><circle class="dot" cx="557.4626865671642" cy="340" r="3" fill="#2563eb"></circle><circle class="dot" cx="558.8059701492538" cy="340" r="3" fill="#2563eb"></circle><circle class="dot" cx="560.1492537313434" cy="340" r="3" fill="#2563eb"></circle><circle class="dot" cx="561.4925373134328" cy="340" r="3" fill="#2563eb"></circle><circle class="dot" cx="562.8358208955224" cy="340" r="3" fill="#2563eb"></circle><circle class="dot" cx="564.179104477612" cy="340" r="3" fill="#2563eb"></circle><circle class="dot" cx="565.5223880597015" cy="340" r="3" fill="#2563eb"></circle><circle class="dot" cx="566.8656716417911" cy="340" r="3" fill="#2563eb"></circle><circle class="dot" cx="568.2089552238806" cy="326.9230769230769" r="3" fill="#2563eb"></circle><circle class="dot" cx="569.5522388059701" cy="326.9230769230769" r="3" fill="#2563eb"></circle><circle class="dot" cx="570.8955223880597" cy="326.9230769230769" r="3" fill="#2563eb"></circle><circle class="dot" cx="572.2388059701493" cy="326.9230769230769" r="3" fill="#2563eb"></circle><circle class="dot" cx="573.5820895522388" cy="326.9230769230769" r="3" fill="#2563eb"></circle><circle class="dot" cx="574.9253731343283" cy="326.9230769230769" r="3" fill="#2563eb"></circle><circle class="dot" cx="576.2686567164179" cy="326.9230769230769" r="3" fill="#2563eb"></circle><circle class="dot" cx="577.6119402985075" cy="326.9230769230769" r="3" fill="#2563eb"></circle><circle class="dot" cx="578.955223880597" cy="326.9230769230769" r="3" fill="#2563eb"></circle><circle class="dot" cx="580.2985074626865" cy="326.9230769230769" r="3" fill="#2563eb"></circle><circle class="dot" cx="581.6417910447761" cy="326.9230769230769" r="3" fill="#2563eb"></circle><circle class="dot" cx="582.9850746268656" cy="326.9230769230769" r="3" fill="#2563eb"></circle><circle class="dot" cx="584.3283582089553" cy="326.9230769230769" r="3" fill="#2563eb"></circle><circle class="dot" cx="585.6716417910447" cy="326.9230769230769" r="3" fill="#2563eb"></circle><circle class="dot" cx="587.0149253731344" cy="326.9230769230769" r="3" fill="#2563eb"></circle><circle class="dot" cx="588.3582089552239" cy="326.9230769230769" r="3" fill="#2563eb"></circle><circle class="dot" cx="589.7014925373135" cy="326.9230769230769" r="3" fill="#2563eb"></circle><circle class="dot" cx="591.044776119403" cy="326.9230769230769" r="3" fill="#2563eb"></circle><circle class="dot" cx="592.3880597014925" cy="326.9230769230769" r="3" fill="#2563eb"></circle><circle class="dot" cx="593.7313432835821" cy="326.9230769230769" r="3" fill="#2563eb"></circle><circle class="dot" cx="595.0746268656717" cy="326.9230769230769" r="3" fill="#2563eb"></circle><circle class="dot" cx="596.4179104477612" cy="326.9230769230769" r="3" fill="#2563eb"></circle><circle class="dot" cx="597.7611940298507" cy="326.9230769230769" r="3" fill="#2563eb"></circle><circle class="dot" cx="599.1044776119403" cy="326.9230769230769" r="3" fill="#2563eb"></circle><circle class="dot" cx="600.4477611940299" cy="326.9230769230769" r="3" fill="#2563eb"></circle><circle class="dot" cx="601.7910447761194" cy="326.9230769230769" r="3" fill="#2563eb"></circle><circle class="dot" cx="603.1343283582089" cy="326.9230769230769" r="3" fill="#2563eb"></circle><circle class="dot" cx="604.4776119402985" cy="326.9230769230769" r="3" fill="#2563eb"></circle><circle class="dot" cx="605.820895522388" cy="326.9230769230769" r="3" fill="#2563eb"></circle><circle class="dot" cx="607.1641791044776" cy="326.9230769230769" r="3" fill="#2563eb"></circle><circle class="dot" cx="608.5074626865672" cy="326.9230769230769" r="3" fill="#2563eb"></circle><circle class="dot" cx="609.8507462686566" cy="326.9230769230769" r="3" fill="#2563eb"></circle><circle class="dot" cx="611.1940298507462" cy="326.9230769230769" r="3" fill="#2563eb"></circle><circle class="dot" cx="612.5373134328358" cy="326.9230769230769" r="3" fill="#2563eb"></circle><circle class="dot" cx="613.8805970149255" cy="326.9230769230769" r="3" fill="#2563eb"></circle><circle class="dot" cx="615.223880597015" cy="326.9230769230769" r="3" fill="#2563eb"></circle><circle class="dot" cx="616.5671641791045" cy="326.9230769230769" r="3" fill="#2563eb"></circle><circle class="dot" cx="617.9104477611941" cy="326.9230769230769" r="3" fill="#2563eb"></circle><circle class="dot" cx="619.2537313432836" cy="326.9230769230769" r="3" fill="#2563eb"></circle><circle class="dot" cx="620.5970149253732" cy="326.9230769230769" r="3" fill="#2563eb"></circle><circle class="dot" cx="621.9402985074627" cy="326.9230769230769" r="3" fill="#2563eb"></circle><circle class="dot" cx="623.2835820895522" cy="326.9230769230769" r="3" fill="#2563eb"></circle><circle class="dot" cx="624.6268656716418" cy="326.9230769230769" r="3" fill="#2563eb"></circle><circle class="dot" cx="625.9701492537314" cy="326.9230769230769" r="3" fill="#2563eb"></circle><circle class="dot" cx="627.3134328358209" cy="326.9230769230769" r="3" fill="#2563eb"></circle><circle class="dot" cx="628.6567164179104" cy="326.9230769230769" r="3" fill="#2563eb"></circle><circle class="dot" cx="630" cy="326.9230769230769" r="3" fill="#2563eb"></circle><circle class="dot" cx="631.3432835820896" cy="326.9230769230769" r="3" fill="#2563eb"></circle><circle class="dot" cx="632.6865671641791" cy="326.9230769230769" r="3" fill="#2563eb"></circle><circle class="dot" cx="634.0298507462686" cy="326.9230769230769" r="3" fill="#2563eb"></circle><circle class="dot" cx="635.3731343283582" cy="326.9230769230769" r="3" fill="#2563eb"></circle><circle class="dot" cx="636.7164179104478" cy="326.9230769230769" r="3" fill="#2563eb"></circle><circle class="dot" cx="638.0597014925373" cy="326.9230769230769" r="3" fill="#2563eb"></circle><circle class="dot" cx="639.4029850746268" cy="326.9230769230769" r="3" fill="#2563eb"></circle><circle class="dot" cx="640.7462686567164" cy="326.9230769230769" r="3" fill="#2563eb"></circle><circle class="dot" cx="642.0895522388059" cy="326.9230769230769" r="3" fill="#2563eb"></circle><circle class="dot" cx="643.4328358208955" cy="326.9230769230769" r="3" fill="#2563eb"></circle><circle class="dot" cx="644.776119402985" cy="326.9230769230769" r="3" fill="#2563eb"></circle><circle class="dot" cx="646.1194029850745" cy="326.9230769230769" r="3" fill="#2563eb"></circle><circle class="dot" cx="647.4626865671642" cy="326.9230769230769" r="3" fill="#2563eb"></circle><circle class="dot" cx="648.8059701492538" cy="326.9230769230769" r="3" fill="#2563eb"></circle><circle class="dot" cx="650.1492537313434" cy="326.9230769230769" r="3" fill="#2563eb"></circle><circle class="dot" cx="651.4925373134328" cy="326.9230769230769" r="3" fill="#2563eb"></circle><circle class="dot" cx="652.8358208955224" cy="326.9230769230769" r="3" fill="#2563eb"></circle><circle class="dot" cx="654.179104477612" cy="326.9230769230769" r="3" fill="#2563eb"></circle><circle class="dot" cx="655.5223880597015" cy="326.9230769230769" r="3" fill="#2563eb"></circle><circle class="dot" cx="656.8656716417911" cy="326.9230769230769" r="3" fill="#2563eb"></circle><circle class="dot" cx="658.2089552238806" cy="326.9230769230769" r="3" fill="#2563eb"></circle><circle class="dot" cx="659.5522388059701" cy="326.9230769230769" r="3" fill="#2563eb"></circle><circle class="dot" cx="660.8955223880597" cy="326.9230769230769" r="3" fill="#2563eb"></circle><circle class="dot" cx="662.2388059701493" cy="326.9230769230769" r="3" fill="#2563eb"></circle><circle class="dot" cx="663.5820895522388" cy="326.9230769230769" r="3" fill="#2563eb"></circle><circle class="dot" cx="664.9253731343283" cy="326.9230769230769" r="3" fill="#2563eb"></circle><circle class="dot" cx="666.2686567164179" cy="326.9230769230769" r="3" fill="#2563eb"></circle><circle class="dot" cx="667.6119402985075" cy="326.9230769230769" r="3" fill="#2563eb"></circle><circle class="dot" cx="668.955223880597" cy="326.9230769230769" r="3" fill="#2563eb"></circle><circle class="dot" cx="670.2985074626865" cy="326.9230769230769" r="3" fill="#2563eb"></circle><circle class="dot" cx="671.6417910447761" cy="326.9230769230769" r="3" fill="#2563eb"></circle><circle class="dot" cx="672.9850746268656" cy="326.9230769230769" r="3" fill="#2563eb"></circle><circle class="dot" cx="674.3283582089553" cy="326.9230769230769" r="3" fill="#2563eb"></circle><circle class="dot" cx="675.6716417910447" cy="326.9230769230769" r="3" fill="#2563eb"></circle><circle class="dot" cx="677.0149253731344" cy="326.9230769230769" r="3" fill="#2563eb"></circle><circle class="dot" cx="678.3582089552239" cy="326.9230769230769" r="3" fill="#2563eb"></circle><circle class="dot" cx="679.7014925373135" cy="326.9230769230769" r="3" fill="#2563eb"></circle><circle class="dot" cx="681.044776119403" cy="326.9230769230769" r="3" fill="#2563eb"></circle><circle class="dot" cx="682.3880597014925" cy="326.9230769230769" r="3" fill="#2563eb"></circle><circle class="dot" cx="683.7313432835821" cy="326.9230769230769" r="3" fill="#2563eb"></circle><circle class="dot" cx="685.0746268656717" cy="326.9230769230769" r="3" fill="#2563eb"></circle><circle class="dot" cx="686.4179104477612" cy="326.9230769230769" r="3" fill="#2563eb"></circle><circle class="dot" cx="687.7611940298507" cy="326.9230769230769" r="3" fill="#2563eb"></circle><circle class="dot" cx="689.1044776119403" cy="326.9230769230769" r="3" fill="#2563eb"></circle><circle class="dot" cx="690.4477611940299" cy="326.9230769230769" r="3" fill="#2563eb"></circle><circle class="dot" cx="691.7910447761194" cy="326.9230769230769" r="3" fill="#2563eb"></circle><circle class="dot" cx="693.1343283582089" cy="326.9230769230769" r="3" fill="#2563eb"></circle><circle class="dot" cx="694.4776119402985" cy="326.9230769230769" r="3" fill="#2563eb"></circle><circle class="dot" cx="695.820895522388" cy="326.9230769230769" r="3" fill="#2563eb"></circle><circle class="dot" cx="697.1641791044776" cy="326.9230769230769" r="3" fill="#2563eb"></circle><circle class="dot" cx="698.5074626865672" cy="326.9230769230769" r="3" fill="#2563eb"></circle><circle class="dot" cx="699.8507462686566" cy="326.9230769230769" r="3" fill="#2563eb"></circle><circle class="dot" cx="701.1940298507462" cy="326.9230769230769" r="3" fill="#2563eb"></circle><circle class="dot" cx="702.5373134328358" cy="326.9230769230769" r="3" fill="#2563eb"></circle><circle class="dot" cx="703.8805970149255" cy="326.9230769230769" r="3" fill="#2563eb"></circle><circle class="dot" cx="705.223880597015" cy="326.9230769230769" r="3" fill="#2563eb"></circle><circle class="dot" cx="706.5671641791045" cy="326.9230769230769" r="3" fill="#2563eb"></circle><circle class="dot" cx="707.9104477611941" cy="326.9230769230769" r="3" fill="#2563eb"></circle><circle class="dot" cx="709.2537313432836" cy="326.9230769230769" r="3" fill="#2563eb"></circle><circle class="dot" cx="710.5970149253732" cy="326.9230769230769" r="3" fill="#2563eb"></circle><circle class="dot" cx="711.9402985074627" cy="326.9230769230769" r="3" fill="#2563eb"></circle><circle class="dot" cx="713.2835820895522" cy="326.9230769230769" r="3" fill="#2563eb"></circle><circle class="dot" cx="714.6268656716418" cy="326.9230769230769" r="3" fill="#2563eb"></circle><circle class="dot" cx="715.9701492537314" cy="326.9230769230769" r="3" fill="#2563eb"></circle><circle class="dot" cx="717.3134328358209" cy="326.9230769230769" r="3" fill="#2563eb"></circle><circle class="dot" cx="718.6567164179104" cy="326.9230769230769" r="3" fill="#2563eb"></circle><circle class="dot" cx="720" cy="326.9230769230769" r="3" fill="#2563eb"></circle><g class="grid" transform="translate(0,340)" fill="none" font-size="10" font-family="sans-serif" text-anchor="middle" style="stroke-dasharray: 3,3; opacity: 0.3;"><path class="domain" stroke="currentColor" d="M0.5,-340V0.5H720.5V-340"></path><g class="tick" opacity="1" transform="translate(0.5,0)"><line stroke="currentColor" y2="-340"></line><text fill="currentColor" y="3" dy="0.71em"></text></g><g class="tick" opacity="1" transform="translate(32.73880597014925,0)"><line stroke="currentColor" y2="-340"></line><text fill="currentColor" y="3" dy="0.71em"></text></g><g class="tick" opacity="1" transform="translate(64.9776119402985,0)"><line stroke="currentColor" y2="-340"></line><text fill="currentColor" y="3" dy="0.71em"></text></g><g class="tick" opacity="1" transform="translate(97.21641791044776,0)"><line stroke="currentColor" y2="-340"></line><text fill="currentColor" y="3" dy="0.71em"></text></g><g class="tick" opacity="1" transform="translate(129.455223880597,0)"><line stroke="currentColor" y2="-340"></line><text fill="currentColor" y="3" dy="0.71em"></text></g><g class="tick" opacity="1" transform="translate(161.69402985074626,0)"><line stroke="currentColor" y2="-340"></line><text fill="currentColor" y="3" dy="0.71em"></text></g><g class="tick" opacity="1" transform="translate(193.93283582089552,0)"><line stroke="currentColor" y2="-340"></line><text fill="currentColor" y="3" dy="0.71em"></text></g><g class="tick" opacity="1" transform="translate(226.17164179104478,0)"><line stroke="currentColor" y2="-340"></line><text fill="currentColor" y="3" dy="0.71em"></text></g><g class="tick" opacity="1" transform="translate(258.410447761194,0)"><line stroke="currentColor" y2="-340"></line><text fill="currentColor" y="3" dy="0.71em"></text></g><g class="tick" opacity="1" transform="translate(290.64925373134326,0)"><line stroke="currentColor" y2="-340"></line><text fill="currentColor" y="3" dy="0.71em"></text></g><g class="tick" opacity="1" transform="translate(322.8880597014925,0)"><line stroke="currentColor" y2="-340"></line><text fill="currentColor" y="3" dy="0.71em"></text></g><g class="tick" opacity="1" transform="translate(355.1268656716418,0)"><line stroke="currentColor" y2="-340"></line><text fill="currentColor" y="3" dy="0.71em"></text></g><g class="tick" opacity="1" transform="translate(387.36567164179104,0)"><line stroke="currentColor" y2="-340"></line><text fill="currentColor" y="3" dy="0.71em"></text></g><g class="tick" opacity="1" transform="translate(419.6044776119403,0)"><line stroke="currentColor" y2="-340"></line><text fill="currentColor" y="3" dy="0.71em"></text></g><g class="tick" opacity="1" transform="translate(451.84328358208955,0)"><line stroke="currentColor" y2="-340"></line><text fill="currentColor" y="3" dy="0.71em"></text></g><g class="tick" opacity="1" transform="translate(484.08208955223887,0)"><line stroke="currentColor" y2="-340"></line><text fill="currentColor" y="3" dy="0.71em"></text></g><g class="tick" opacity="1" transform="translate(516.320895522388,0)"><line stroke="currentColor" y2="-340"></line><text fill="currentColor" y="3" dy="0.71em"></text></g><g class="tick" opacity="1" transform="translate(548.5597014925373,0)"><line stroke="currentColor" y2="-340"></line><text fill="currentColor" y="3" dy="0.71em"></text></g><g class="tick" opacity="1" transform="translate(580.7985074626865,0)"><line stroke="currentColor" y2="-340"></line><text fill="currentColor" y="3" dy="0.71em"></text></g><g class="tick" opacity="1" transform="translate(613.0373134328358,0)"><line stroke="currentColor" y2="-340"></line><text fill="currentColor" y="3" dy="0.71em"></text></g><g class="tick" opacity="1" transform="translate(645.276119402985,0)"><line stroke="currentColor" y2="-340"></line><text fill="currentColor" y="3" dy="0.71em"></text></g><g class="tick" opacity="1" transform="translate(677.5149253731344,0)"><line stroke="currentColor" y2="-340"></line><text fill="currentColor" y="3" dy="0.71em"></text></g><g class="tick" opacity="1" transform="translate(709.7537313432836,0)"><line stroke="currentColor" y2="-340"></line><text fill="currentColor" y="3" dy="0.71em"></text></g></g><g class="grid" fill="none" font-size="10" font-family="sans-serif" text-anchor="end" style="stroke-dasharray: 3,3; opacity: 0.3;"><path class="domain" stroke="currentColor" d="M720,340.5H0.5V0.5H720"></path><g class="tick" opacity="1" transform="translate(0,340.5)"><line stroke="currentColor" x2="720"></line><text fill="currentColor" x="-3" dy="0.32em"></text></g><g class="tick" opacity="1" transform="translate(0,314.34615384615387)"><line stroke="currentColor" x2="720"></line><text fill="currentColor" x="-3" dy="0.32em"></text></g><g class="tick" opacity="1" transform="translate(0,288.1923076923077)"><line stroke="currentColor" x2="720"></line><text fill="currentColor" x="-3" dy="0.32em"></text></g><g class="tick" opacity="1" transform="translate(0,262.0384615384615)"><line stroke="currentColor" x2="720"></line><text fill="currentColor" x="-3" dy="0.32em"></text></g><g class="tick" opacity="1" transform="translate(0,235.8846153846154)"><line stroke="currentColor" x2="720"></line><text fill="currentColor" x="-3" dy="0.32em"></text></g><g class="tick" opacity="1" transform="translate(0,209.73076923076925)"><line stroke="currentColor" x2="720"></line><text fill="currentColor" x="-3" dy="0.32em"></text></g><g class="tick" opacity="1" transform="translate(0,183.5769230769231)"><line stroke="currentColor" x2="720"></line><text fill="currentColor" x="-3" dy="0.32em"></text></g><g class="tick" opacity="1" transform="translate(0,157.42307692307693)"><line stroke="currentColor" x2="720"></line><text fill="currentColor" x="-3" dy="0.32em"></text></g><g class="tick" opacity="1" transform="translate(0,131.26923076923075)"><line stroke="currentColor" x2="720"></line><text fill="currentColor" x="-3" dy="0.32em"></text></g><g class="tick" opacity="1" transform="translate(0,105.11538461538463)"><line stroke="currentColor" x2="720"></line><text fill="currentColor" x="-3" dy="0.32em"></text></g><g class="tick" opacity="1" transform="translate(0,78.96153846153848)"><line stroke="currentColor" x2="720"></line><text fill="currentColor" x="-3" dy="0.32em"></text></g><g class="tick" opacity="1" transform="translate(0,52.807692307692314)"><line stroke="currentColor" x2="720"></line><text fill="currentColor" x="-3" dy="0.32em"></text></g><g class="tick" opacity="1" transform="translate(0,26.653846153846136)"><line stroke="currentColor" x2="720"></line><text fill="currentColor" x="-3" dy="0.32em"></text></g><g class="tick" opacity="1" transform="translate(0,0.5)"><line stroke="currentColor" x2="720"></line><text fill="currentColor" x="-3" dy="0.32em"></text></g></g></g><text x="400" y="10" text-anchor="middle" style="font-size: 16px; font-weight: bold; fill: #333;">OKX USDT Lending Rate - Current Month</text></svg>