<svg width="800" height="400" xmlns="http://www.w3.org/2000/svg"><g transform="translate(50,20)"><g transform="translate(0,340)" fill="none" font-size="10" font-family="sans-serif" text-anchor="middle"><path class="domain" stroke="currentColor" d="M0.5,6V0.5H720.5V6"></path><g class="tick" opacity="1" transform="translate(0.5,0)"><line stroke="currentColor" y2="6"></line><text fill="currentColor" y="9" dy=".15em" style="text-anchor: end;" dx="-.8em" transform="rotate(-45)">04/01</text></g><g class="tick" opacity="1" transform="translate(24.533379694019473,0)"><line stroke="currentColor" y2="6"></line><text fill="currentColor" y="9" dy=".15em" style="text-anchor: end;" dx="-.8em" transform="rotate(-45)">04/02</text></g><g class="tick" opacity="1" transform="translate(48.566759388038946,0)"><line stroke="currentColor" y2="6"></line><text fill="currentColor" y="9" dy=".15em" style="text-anchor: end;" dx="-.8em" transform="rotate(-45)">04/03</text></g><g class="tick" opacity="1" transform="translate(72.6001390820584,0)"><line stroke="currentColor" y2="6"></line><text fill="currentColor" y="9" dy=".15em" style="text-anchor: end;" dx="-.8em" transform="rotate(-45)">04/04</text></g><g class="tick" opacity="1" transform="translate(96.63351877607789,0)"><line stroke="currentColor" y2="6"></line><text fill="currentColor" y="9" dy=".15em" style="text-anchor: end;" dx="-.8em" transform="rotate(-45)">04/05</text></g><g class="tick" opacity="1" transform="translate(120.66689847009737,0)"><line stroke="currentColor" y2="6"></line><text fill="currentColor" y="9" dy=".15em" style="text-anchor: end;" dx="-.8em" transform="rotate(-45)">04/06</text></g><g class="tick" opacity="1" transform="translate(144.7002781641168,0)"><line stroke="currentColor" y2="6"></line><text fill="currentColor" y="9" dy=".15em" style="text-anchor: end;" dx="-.8em" transform="rotate(-45)">04/07</text></g><g class="tick" opacity="1" transform="translate(168.7336578581363,0)"><line stroke="currentColor" y2="6"></line><text fill="currentColor" y="9" dy=".15em" style="text-anchor: end;" dx="-.8em" transform="rotate(-45)">04/08</text></g><g class="tick" opacity="1" transform="translate(192.76703755215578,0)"><line stroke="currentColor" y2="6"></line><text fill="currentColor" y="9" dy=".15em" style="text-anchor: end;" dx="-.8em" transform="rotate(-45)">04/09</text></g><g class="tick" opacity="1" transform="translate(216.80041724617524,0)"><line stroke="currentColor" y2="6"></line><text fill="currentColor" y="9" dy=".15em" style="text-anchor: end;" dx="-.8em" transform="rotate(-45)">04/10</text></g><g class="tick" opacity="1" transform="translate(240.83379694019473,0)"><line stroke="currentColor" y2="6"></line><text fill="currentColor" y="9" dy=".15em" style="text-anchor: end;" dx="-.8em" transform="rotate(-45)">04/11</text></g><g class="tick" opacity="1" transform="translate(264.8671766342142,0)"><line stroke="currentColor" y2="6"></line><text fill="currentColor" y="9" dy=".15em" style="text-anchor: end;" dx="-.8em" transform="rotate(-45)">04/12</text></g><g class="tick" opacity="1" transform="translate(288.9005563282336,0)"><line stroke="currentColor" y2="6"></line><text fill="currentColor" y="9" dy=".15em" style="text-anchor: end;" dx="-.8em" transform="rotate(-45)">04/13</text></g><g class="tick" opacity="1" transform="translate(312.93393602225314,0)"><line stroke="currentColor" y2="6"></line><text fill="currentColor" y="9" dy=".15em" style="text-anchor: end;" dx="-.8em" transform="rotate(-45)">04/14</text></g><g class="tick" opacity="1" transform="translate(336.9673157162726,0)"><line stroke="currentColor" y2="6"></line><text fill="currentColor" y="9" dy=".15em" style="text-anchor: end;" dx="-.8em" transform="rotate(-45)">04/15</text></g><g class="tick" opacity="1" transform="translate(361.00069541029205,0)"><line stroke="currentColor" y2="6"></line><text fill="currentColor" y="9" dy=".15em" style="text-anchor: end;" dx="-.8em" transform="rotate(-45)">04/16</text></g><g class="tick" opacity="1" transform="translate(385.03407510431157,0)"><line stroke="currentColor" y2="6"></line><text fill="currentColor" y="9" dy=".15em" style="text-anchor: end;" dx="-.8em" transform="rotate(-45)">04/17</text></g><g class="tick" opacity="1" transform="translate(409.067454798331,0)"><line stroke="currentColor" y2="6"></line><text fill="currentColor" y="9" dy=".15em" style="text-anchor: end;" dx="-.8em" transform="rotate(-45)">04/18</text></g><g class="tick" opacity="1" transform="translate(433.1008344923505,0)"><line stroke="currentColor" y2="6"></line><text fill="currentColor" y="9" dy=".15em" style="text-anchor: end;" dx="-.8em" transform="rotate(-45)">04/19</text></g><g class="tick" opacity="1" transform="translate(457.13421418637,0)"><line stroke="currentColor" y2="6"></line><text fill="currentColor" y="9" dy=".15em" style="text-anchor: end;" dx="-.8em" transform="rotate(-45)">04/20</text></g><g class="tick" opacity="1" transform="translate(481.16759388038946,0)"><line stroke="currentColor" y2="6"></line><text fill="currentColor" y="9" dy=".15em" style="text-anchor: end;" dx="-.8em" transform="rotate(-45)">04/21</text></g><g class="tick" opacity="1" transform="translate(505.2009735744089,0)"><line stroke="currentColor" y2="6"></line><text fill="currentColor" y="9" dy=".15em" style="text-anchor: end;" dx="-.8em" transform="rotate(-45)">04/22</text></g><g class="tick" opacity="1" transform="translate(529.2343532684284,0)"><line stroke="currentColor" y2="6"></line><text fill="currentColor" y="9" dy=".15em" style="text-anchor: end;" dx="-.8em" transform="rotate(-45)">04/23</text></g><g class="tick" opacity="1" transform="translate(553.2677329624479,0)"><line stroke="currentColor" y2="6"></line><text fill="currentColor" y="9" dy=".15em" style="text-anchor: end;" dx="-.8em" transform="rotate(-45)">04/24</text></g><g class="tick" opacity="1" transform="translate(577.3011126564672,0)"><line stroke="currentColor" y2="6"></line><text fill="currentColor" y="9" dy=".15em" style="text-anchor: end;" dx="-.8em" transform="rotate(-45)">04/25</text></g><g class="tick" opacity="1" transform="translate(601.3344923504867,0)"><line stroke="currentColor" y2="6"></line><text fill="currentColor" y="9" dy=".15em" style="text-anchor: end;" dx="-.8em" transform="rotate(-45)">04/26</text></g><g class="tick" opacity="1" transform="translate(625.3678720445063,0)"><line stroke="currentColor" y2="6"></line><text fill="currentColor" y="9" dy=".15em" style="text-anchor: end;" dx="-.8em" transform="rotate(-45)">04/27</text></g><g class="tick" opacity="1" transform="translate(649.4012517385257,0)"><line stroke="currentColor" y2="6"></line><text fill="currentColor" y="9" dy=".15em" style="text-anchor: end;" dx="-.8em" transform="rotate(-45)">04/28</text></g><g class="tick" opacity="1" transform="translate(673.4346314325452,0)"><line stroke="currentColor" y2="6"></line><text fill="currentColor" y="9" dy=".15em" style="text-anchor: end;" dx="-.8em" transform="rotate(-45)">04/29</text></g><g class="tick" opacity="1" transform="translate(697.4680111265646,0)"><line stroke="currentColor" y2="6"></line><text fill="currentColor" y="9" dy=".15em" style="text-anchor: end;" dx="-.8em" transform="rotate(-45)">04/30</text></g></g><g fill="none" font-size="10" font-family="sans-serif" text-anchor="end"><path class="domain" stroke="currentColor" d="M-6,340.5H0.5V0.5H-6"></path><g class="tick" opacity="1" transform="translate(0,170.5)"><line stroke="currentColor" x2="-6"></line><text fill="currentColor" x="-9" dy="0.32em">2.50%</text></g></g><text transform="rotate(-90)" y="-50" x="-170" dy="1em" style="text-anchor: middle; font-size: 12px; fill: #666;">Pre Rate (%)</text><text transform="translate(360, 380)" style="text-anchor: middle; font-size: 12px; fill: #666;">Time (UTC)</text><path fill="none" stroke="#2563eb" stroke-width="2" d="M0,170C0.334,170,0.668,170,1.001,170C1.335,170,1.669,170,2.003,170C2.337,170,2.67,170,3.004,170C3.338,170,3.672,170,4.006,170C4.339,170,4.673,170,5.007,170C5.341,170,5.675,170,6.008,170C6.342,170,6.676,170,7.01,170C7.344,170,7.677,170,8.011,170C8.345,170,8.679,170,9.013,170C9.346,170,9.68,170,10.014,170C10.348,170,10.682,170,11.015,170C11.349,170,11.683,170,12.017,170C12.35,170,12.684,170,13.018,170C13.352,170,13.686,170,14.019,170C14.353,170,14.687,170,15.021,170C15.355,170,15.688,170,16.022,170C16.356,170,16.69,170,17.024,170C17.357,170,17.691,170,18.025,170C18.359,170,18.693,170,19.026,170C19.36,170,19.694,170,20.028,170C20.362,170,20.695,170,21.029,170C21.363,170,21.697,170,22.031,170C22.364,170,22.698,170,23.032,170C23.366,170,23.7,170,24.033,170C24.367,170,24.701,170,25.035,170C25.369,170,25.702,170,26.036,170C26.37,170,26.704,170,27.038,170C27.371,170,27.705,170,28.039,170C28.373,170,28.707,170,29.04,170C29.374,170,29.708,170,30.042,170C30.376,170,30.709,170,31.043,170C31.377,170,31.711,170,32.045,170C32.378,170,32.712,170,33.046,170C33.38,170,33.713,170,34.047,170C34.381,170,34.715,170,35.049,170C35.382,170,35.716,170,36.05,170C36.384,170,36.718,170,37.051,170C37.385,170,37.719,170,38.053,170C38.387,170,38.72,170,39.054,170C39.388,170,39.722,170,40.056,170C40.389,170,40.723,170,41.057,170C41.391,170,41.725,170,42.058,170C42.392,170,42.726,170,43.06,170C43.394,170,43.727,170,44.061,170C44.395,170,44.729,170,45.063,170C45.396,170,45.73,170,46.064,170C46.398,170,46.732,170,47.065,170C47.399,170,47.733,170,48.067,170C48.401,170,48.734,170,49.068,170C49.402,170,49.736,170,50.07,170C50.403,170,50.737,170,51.071,170C51.405,170,51.739,170,52.072,170C52.406,170,52.74,170,53.074,170C53.408,170,53.741,170,54.075,170C54.409,170,54.743,170,55.076,170C55.41,170,55.744,170,56.078,170C56.412,170,56.745,170,57.079,170C57.413,170,57.747,170,58.081,170C58.414,170,58.748,170,59.082,170C59.416,170,59.75,170,60.083,170C60.417,170,60.751,170,61.085,170C61.419,170,61.752,170,62.086,170C62.42,170,62.754,170,63.088,170C63.421,170,63.755,170,64.089,170C64.423,170,64.757,170,65.09,170C65.424,170,65.758,170,66.092,170C66.426,170,66.759,170,67.093,170C67.427,170,67.761,170,68.095,170C68.428,170,68.762,170,69.096,170C69.43,170,69.764,170,70.097,170C70.431,170,70.765,170,71.099,170C71.433,170,71.766,170,72.1,170C72.434,170,72.768,170,73.102,170C73.435,170,73.769,170,74.103,170C74.437,170,74.771,170,75.104,170C75.438,170,75.772,170,76.106,170C76.439,170,76.773,170,77.107,170C77.441,170,77.775,170,78.108,170C78.442,170,78.776,170,79.11,170C79.444,170,79.777,170,80.111,170C80.445,170,80.779,170,81.113,170C81.446,170,81.78,170,82.114,170C82.448,170,82.782,170,83.115,170C83.449,170,83.783,170,84.117,170C84.451,170,84.784,170,85.118,170C85.452,170,85.786,170,86.12,170C86.453,170,86.787,170,87.121,170C87.455,170,87.789,170,88.122,170C88.456,170,88.79,170,89.124,170C89.458,170,89.791,170,90.125,170C90.459,170,90.793,170,91.127,170C91.46,170,91.794,170,92.128,170C92.462,170,92.796,170,93.129,170C93.463,170,93.797,170,94.131,170C94.465,170,94.798,170,95.132,170C95.466,170,95.8,170,96.134,170C96.467,170,96.801,170,97.135,170C97.469,170,97.803,170,98.136,170C98.47,170,98.804,170,99.138,170C99.471,170,99.805,170,100.139,170C100.473,170,100.807,170,101.14,170C101.474,170,101.808,170,102.142,170C102.476,170,102.809,170,103.143,170C103.477,170,103.811,170,104.145,170C104.478,170,104.812,170,105.146,170C105.48,170,105.814,170,106.147,170C106.481,170,106.815,170,107.149,170C107.483,170,107.816,170,108.15,170C108.484,170,108.818,170,109.152,170C109.485,170,109.819,170,110.153,170C110.487,170,110.821,170,111.154,170C111.488,170,111.822,170,112.156,170C112.49,170,112.823,170,113.157,170C113.491,170,113.825,170,114.159,170C114.492,170,114.826,170,115.16,170C115.494,170,115.828,170,116.161,170C116.495,170,116.829,170,117.163,170C117.497,170,117.83,170,118.164,170C118.498,170,118.832,170,119.166,170C119.499,170,119.833,170,120.167,170C120.501,170,120.834,170,121.168,170C121.502,170,121.836,170,122.17,170C122.503,170,122.837,170,123.171,170C123.505,170,123.839,170,124.172,170C124.506,170,124.84,170,125.174,170C125.508,170,125.841,170,126.175,170C126.509,170,126.843,170,127.177,170C127.51,170,127.844,170,128.178,170C128.512,170,128.846,170,129.179,170C129.513,170,129.847,170,130.181,170C130.515,170,130.848,170,131.182,170C131.516,170,131.85,170,132.184,170C132.517,170,132.851,170,133.185,170C133.519,170,133.853,170,134.186,170C134.52,170,134.854,170,135.188,170C135.522,170,135.855,170,136.189,170C136.523,170,136.857,170,137.191,170C137.524,170,137.858,170,138.192,170C138.526,170,138.86,170,139.193,170C139.527,170,139.861,170,140.195,170C140.529,170,140.862,170,141.196,170C141.53,170,141.864,170,142.197,170C142.531,170,142.865,170,143.199,170C143.533,170,143.866,170,144.2,170C144.534,170,144.868,170,145.202,170C145.535,170,145.869,170,146.203,170C146.537,170,146.871,170,147.204,170C147.538,170,147.872,170,148.206,170C148.54,170,148.873,170,149.207,170C149.541,170,149.875,170,150.209,170C150.542,170,150.876,170,151.21,170C151.544,170,151.878,170,152.211,170C152.545,170,152.879,170,153.213,170C153.547,170,153.88,170,154.214,170C154.548,170,154.882,170,155.216,170C155.549,170,155.883,170,156.217,170C156.551,170,156.885,170,157.218,170C157.552,170,157.886,170,158.22,170C158.554,170,158.887,170,159.221,170C159.555,170,159.889,170,160.223,170C160.556,170,160.89,170,161.224,170C161.558,170,161.892,170,162.225,170C162.559,170,162.893,170,163.227,170C163.561,170,163.894,170,164.228,170C164.562,170,164.896,170,165.229,170C165.563,170,165.897,170,166.231,170C166.565,170,166.898,170,167.232,170C167.566,170,167.9,170,168.234,170C168.567,170,168.901,170,169.235,170C169.569,170,169.903,170,170.236,170C170.57,170,170.904,170,171.238,170C171.572,170,171.905,170,172.239,170C172.573,170,172.907,170,173.241,170C173.574,170,173.908,170,174.242,170C174.576,170,174.91,170,175.243,170C175.577,170,175.911,170,176.245,170C176.579,170,176.912,170,177.246,170C177.58,170,177.914,170,178.248,170C178.581,170,178.915,170,179.249,170C179.583,170,179.917,170,180.25,170C180.584,170,180.918,170,181.252,170C181.586,170,181.919,170,182.253,170C182.587,170,182.921,170,183.255,170C183.588,170,183.922,170,184.256,170C184.59,170,184.924,170,185.257,170C185.591,170,185.925,170,186.259,170C186.592,170,186.926,170,187.26,170C187.594,170,187.928,170,188.261,170C188.595,170,188.929,170,189.263,170C189.597,170,189.93,170,190.264,170C190.598,170,190.932,170,191.266,170C191.599,170,191.933,170,192.267,170C192.601,170,192.935,170,193.268,170C193.602,170,193.936,170,194.27,170C194.604,170,194.937,170,195.271,170C195.605,170,195.939,170,196.273,170C196.606,170,196.94,170,197.274,170C197.608,170,197.942,170,198.275,170C198.609,170,198.943,170,199.277,170C199.611,170,199.944,170,200.278,170C200.612,170,200.946,170,201.28,170C201.613,170,201.947,170,202.281,170C202.615,170,202.949,170,203.282,170C203.616,170,203.95,170,204.284,170C204.618,170,204.951,170,205.285,170C205.619,170,205.953,170,206.287,170C206.62,170,206.954,170,207.288,170C207.622,170,207.955,170,208.289,170C208.623,170,208.957,170,209.291,170C209.624,170,209.958,170,210.292,170C210.626,170,210.96,170,211.293,170C211.627,170,211.961,170,212.295,170C212.629,170,212.962,170,213.296,170C213.63,170,213.964,170,214.298,170C214.631,170,214.965,170,215.299,170C215.633,170,215.967,170,216.3,170C216.634,170,216.968,170,217.302,170C217.636,170,217.969,170,218.303,170C218.637,170,218.971,170,219.305,170C219.638,170,219.972,170,220.306,170C220.64,170,220.974,170,221.307,170C221.641,170,221.975,170,222.309,170C222.643,170,222.976,170,223.31,170C223.644,170,223.978,170,224.312,170C224.645,170,224.979,170,225.313,170C225.647,170,225.981,170,226.314,170C226.648,170,226.982,170,227.316,170C227.65,170,227.983,170,228.317,170C228.651,170,228.985,170,229.318,170C229.652,170,229.986,170,230.32,170C230.654,170,230.987,170,231.321,170C231.655,170,231.989,170,232.323,170C232.656,170,232.99,170,233.324,170C233.658,170,233.992,170,234.325,170C234.659,170,234.993,170,235.327,170C235.661,170,235.994,170,236.328,170C236.662,170,236.996,170,237.33,170C237.663,170,237.997,170,238.331,170C238.665,170,238.999,170,239.332,170C239.666,170,240,170,240.334,170C240.668,170,241.001,170,241.335,170C241.669,170,242.003,170,242.337,170C242.67,170,243.004,170,243.338,170C243.672,170,244.006,170,244.339,170C244.673,170,245.007,170,245.341,170C245.675,170,246.008,170,246.342,170C246.676,170,247.01,170,247.344,170C247.677,170,248.011,170,248.345,170C248.679,170,249.013,170,249.346,170C249.68,170,250.014,170,250.348,170C250.682,170,251.015,170,251.349,170C251.683,170,252.017,170,252.35,170C252.684,170,253.018,170,253.352,170C253.686,170,254.019,170,254.353,170C254.687,170,255.021,170,255.355,170C255.688,170,256.022,170,256.356,170C256.69,170,257.024,170,257.357,170C257.691,170,258.025,170,258.359,170C258.693,170,259.026,170,259.36,170C259.694,170,260.028,170,260.362,170C260.695,170,261.029,170,261.363,170C261.697,170,262.031,170,262.364,170C262.698,170,263.032,170,263.366,170C263.7,170,264.033,170,264.367,170C264.701,170,265.035,170,265.369,170C265.702,170,266.036,170,266.37,170C266.704,170,267.038,170,267.371,170C267.705,170,268.039,170,268.373,170C268.707,170,269.04,170,269.374,170C269.708,170,270.042,170,270.376,170C270.709,170,271.043,170,271.377,170C271.711,170,272.045,170,272.378,170C272.712,170,273.046,170,273.38,170C273.713,170,274.047,170,274.381,170C274.715,170,275.049,170,275.382,170C275.716,170,276.05,170,276.384,170C276.718,170,277.051,170,277.385,170C277.719,170,278.053,170,278.387,170C278.72,170,279.054,170,279.388,170C279.722,170,280.056,170,280.389,170C280.723,170,281.057,170,281.391,170C281.725,170,282.058,170,282.392,170C282.726,170,283.06,170,283.394,170C283.727,170,284.061,170,284.395,170C284.729,170,285.063,170,285.396,170C285.73,170,286.064,170,286.398,170C286.732,170,287.065,170,287.399,170C287.733,170,288.067,170,288.401,170C288.734,170,289.068,170,289.402,170C289.736,170,290.07,170,290.403,170C290.737,170,291.071,170,291.405,170C291.739,170,292.072,170,292.406,170C292.74,170,293.074,170,293.408,170C293.741,170,294.075,170,294.409,170C294.743,170,295.076,170,295.41,170C295.744,170,296.078,170,296.412,170C296.745,170,297.079,170,297.413,170C297.747,170,298.081,170,298.414,170C298.748,170,299.082,170,299.416,170C299.75,170,300.083,170,300.417,170C300.751,170,301.085,170,301.419,170C301.752,170,302.086,170,302.42,170C302.754,170,303.088,170,303.421,170C303.755,170,304.089,170,304.423,170C304.757,170,305.09,170,305.424,170C305.758,170,306.092,170,306.426,170C306.759,170,307.093,170,307.427,170C307.761,170,308.095,170,308.428,170C308.762,170,309.096,170,309.43,170C309.764,170,310.097,170,310.431,170C310.765,170,311.099,170,311.433,170C311.766,170,312.1,170,312.434,170C312.768,170,313.102,170,313.435,170C313.769,170,314.103,170,314.437,170C314.771,170,315.104,170,315.438,170C315.772,170,316.106,170,316.439,170C316.773,170,317.107,170,317.441,170C317.775,170,318.108,170,318.442,170C318.776,170,319.11,170,319.444,170C319.777,170,320.111,170,320.445,170C320.779,170,321.113,170,321.446,170C321.78,170,322.114,170,322.448,170C322.782,170,323.115,170,323.449,170C323.783,170,324.117,170,324.451,170C324.784,170,325.118,170,325.452,170C325.786,170,326.12,170,326.453,170C326.787,170,327.121,170,327.455,170C327.789,170,328.122,170,328.456,170C328.79,170,329.124,170,329.458,170C329.791,170,330.125,170,330.459,170C330.793,170,331.127,170,331.46,170C331.794,170,332.128,170,332.462,170C332.796,170,333.129,170,333.463,170C333.797,170,334.131,170,334.465,170C334.798,170,335.132,170,335.466,170C335.8,170,336.134,170,336.467,170C336.801,170,337.135,170,337.469,170C337.803,170,338.136,170,338.47,170C338.804,170,339.138,170,339.471,170C339.805,170,340.139,170,340.473,170C340.807,170,341.14,170,341.474,170C341.808,170,342.142,170,342.476,170C342.809,170,343.143,170,343.477,170C343.811,170,344.145,170,344.478,170C344.812,170,345.146,170,345.48,170C345.814,170,346.147,170,346.481,170C346.815,170,347.149,170,347.483,170C347.816,170,348.15,170,348.484,170C348.818,170,349.152,170,349.485,170C349.819,170,350.153,170,350.487,170C350.821,170,351.154,170,351.488,170C351.822,170,352.156,170,352.49,170C352.823,170,353.157,170,353.491,170C353.825,170,354.159,170,354.492,170C354.826,170,355.16,170,355.494,170C355.828,170,356.161,170,356.495,170C356.829,170,357.163,170,357.497,170C357.83,170,358.164,170,358.498,170C358.832,170,359.166,170,359.499,170C359.833,170,360.167,170,360.501,170C360.834,170,361.168,170,361.502,170C361.836,170,362.17,170,362.503,170C362.837,170,363.171,170,363.505,170C363.839,170,364.172,170,364.506,170C364.84,170,365.174,170,365.508,170C365.841,170,366.175,170,366.509,170C366.843,170,367.177,170,367.51,170C367.844,170,368.178,170,368.512,170C368.846,170,369.179,170,369.513,170C369.847,170,370.181,170,370.515,170C370.848,170,371.182,170,371.516,170C371.85,170,372.184,170,372.517,170C372.851,170,373.185,170,373.519,170C373.853,170,374.186,170,374.52,170C374.854,170,375.188,170,375.522,170C375.855,170,376.189,170,376.523,170C376.857,170,377.191,170,377.524,170C377.858,170,378.192,170,378.526,170C378.86,170,379.193,170,379.527,170C379.861,170,380.195,170,380.529,170C380.862,170,381.196,170,381.53,170C381.864,170,382.197,170,382.531,170C382.865,170,383.199,170,383.533,170C383.866,170,384.2,170,384.534,170C384.868,170,385.202,170,385.535,170C385.869,170,386.203,170,386.537,170C386.871,170,387.204,170,387.538,170C387.872,170,388.206,170,388.54,170C388.873,170,389.207,170,389.541,170C389.875,170,390.209,170,390.542,170C390.876,170,391.21,170,391.544,170C391.878,170,392.211,170,392.545,170C392.879,170,393.213,170,393.547,170C393.88,170,394.214,170,394.548,170C394.882,170,395.216,170,395.549,170C395.883,170,396.217,170,396.551,170C396.885,170,397.218,170,397.552,170C397.886,170,398.22,170,398.554,170C398.887,170,399.221,170,399.555,170C399.889,170,400.223,170,400.556,170C400.89,170,401.224,170,401.558,170C401.892,170,402.225,170,402.559,170C402.893,170,403.227,170,403.561,170C403.894,170,404.228,170,404.562,170C404.896,170,405.229,170,405.563,170C405.897,170,406.231,170,406.565,170C406.898,170,407.232,170,407.566,170C407.9,170,408.234,170,408.567,170C408.901,170,409.235,170,409.569,170C409.903,170,410.236,170,410.57,170C410.904,170,411.238,170,411.572,170C411.905,170,412.239,170,412.573,170C412.907,170,413.241,170,413.574,170C413.908,170,414.242,170,414.576,170C414.91,170,415.243,170,415.577,170C415.911,170,416.245,170,416.579,170C416.912,170,417.246,170,417.58,170C417.914,170,418.248,170,418.581,170C418.915,170,419.249,170,419.583,170C419.917,170,420.25,170,420.584,170C420.918,170,421.252,170,421.586,170C421.919,170,422.253,170,422.587,170C422.921,170,423.255,170,423.588,170C423.922,170,424.256,170,424.59,170C424.924,170,425.257,170,425.591,170C425.925,170,426.259,170,426.592,170C426.926,170,427.26,170,427.594,170C427.928,170,428.261,170,428.595,170C428.929,170,429.263,170,429.597,170C429.93,170,430.264,170,430.598,170C430.932,170,431.266,170,431.599,170C431.933,170,432.267,170,432.601,170C432.935,170,433.268,170,433.602,170C433.936,170,434.27,170,434.604,170C434.937,170,435.271,170,435.605,170C435.939,170,436.273,170,436.606,170C436.94,170,437.274,170,437.608,170C437.942,170,438.275,170,438.609,170C438.943,170,439.277,170,439.611,170C439.944,170,440.278,170,440.612,170C440.946,170,441.28,170,441.613,170C441.947,170,442.281,170,442.615,170C442.949,170,443.282,170,443.616,170C443.95,170,444.284,170,444.618,170C444.951,170,445.285,170,445.619,170C445.953,170,446.287,170,446.62,170C446.954,170,447.288,170,447.622,170C447.955,170,448.289,170,448.623,170C448.957,170,449.291,170,449.624,170C449.958,170,450.292,170,450.626,170C450.96,170,451.293,170,451.627,170C451.961,170,452.295,170,452.629,170C452.962,170,453.296,170,453.63,170C453.964,170,454.298,170,454.631,170C454.965,170,455.299,170,455.633,170C455.967,170,456.3,170,456.634,170C456.968,170,457.302,170,457.636,170C457.969,170,458.303,170,458.637,170C458.971,170,459.305,170,459.638,170C459.972,170,460.306,170,460.64,170C460.974,170,461.307,170,461.641,170C461.975,170,462.309,170,462.643,170C462.976,170,463.31,170,463.644,170C463.978,170,464.312,170,464.645,170C464.979,170,465.313,170,465.647,170C465.981,170,466.314,170,466.648,170C466.982,170,467.316,170,467.65,170C467.983,170,468.317,170,468.651,170C468.985,170,469.318,170,469.652,170C469.986,170,470.32,170,470.654,170C470.987,170,471.321,170,471.655,170C471.989,170,472.323,170,472.656,170C472.99,170,473.324,170,473.658,170C473.992,170,474.325,170,474.659,170C474.993,170,475.327,170,475.661,170C475.994,170,476.328,170,476.662,170C476.996,170,477.33,170,477.663,170C477.997,170,478.331,170,478.665,170C478.999,170,479.332,170,479.666,170C480,170,480.334,170,480.668,170C481.001,170,481.335,170,481.669,170C482.003,170,482.337,170,482.67,170C483.004,170,483.338,170,483.672,170C484.006,170,484.339,170,484.673,170C485.007,170,485.341,170,485.675,170C486.008,170,486.342,170,486.676,170C487.01,170,487.344,170,487.677,170C488.011,170,488.345,170,488.679,170C489.013,170,489.346,170,489.68,170C490.014,170,490.348,170,490.682,170C491.015,170,491.349,170,491.683,170C492.017,170,492.35,170,492.684,170C493.018,170,493.352,170,493.686,170C494.019,170,494.353,170,494.687,170C495.021,170,495.355,170,495.688,170C496.022,170,496.356,170,496.69,170C497.024,170,497.357,170,497.691,170C498.025,170,498.359,170,498.693,170C499.026,170,499.36,170,499.694,170C500.028,170,500.362,170,500.695,170C501.029,170,501.363,170,501.697,170C502.031,170,502.364,170,502.698,170C503.032,170,503.366,170,503.7,170C504.033,170,504.367,170,504.701,170C505.035,170,505.369,170,505.702,170C506.036,170,506.37,170,506.704,170C507.038,170,507.371,170,507.705,170C508.039,170,508.373,170,508.707,170C509.04,170,509.374,170,509.708,170C510.042,170,510.376,170,510.709,170C511.043,170,511.377,170,511.711,170C512.045,170,512.378,170,512.712,170C513.046,170,513.38,170,513.713,170C514.047,170,514.381,170,514.715,170C515.049,170,515.382,170,515.716,170C516.05,170,516.384,170,516.718,170C517.051,170,517.385,170,517.719,170C518.053,170,518.387,170,518.72,170C519.054,170,519.388,170,519.722,170C520.056,170,520.389,170,520.723,170C521.057,170,521.391,170,521.725,170C522.058,170,522.392,170,522.726,170C523.06,170,523.394,170,523.727,170C524.061,170,524.395,170,524.729,170C525.063,170,525.396,170,525.73,170C526.064,170,526.398,170,526.732,170C527.065,170,527.399,170,527.733,170C528.067,170,528.401,170,528.734,170C529.068,170,529.402,170,529.736,170C530.07,170,530.403,170,530.737,170C531.071,170,531.405,170,531.739,170C532.072,170,532.406,170,532.74,170C533.074,170,533.408,170,533.741,170C534.075,170,534.409,170,534.743,170C535.076,170,535.41,170,535.744,170C536.078,170,536.412,170,536.745,170C537.079,170,537.413,170,537.747,170C538.081,170,538.414,170,538.748,170C539.082,170,539.416,170,539.75,170C540.083,170,540.417,170,540.751,170C541.085,170,541.419,170,541.752,170C542.086,170,542.42,170,542.754,170C543.088,170,543.421,170,543.755,170C544.089,170,544.423,170,544.757,170C545.09,170,545.424,170,545.758,170C546.092,170,546.426,170,546.759,170C547.093,170,547.427,170,547.761,170C548.095,170,548.428,170,548.762,170C549.096,170,549.43,170,549.764,170C550.097,170,550.431,170,550.765,170C551.099,170,551.433,170,551.766,170C552.1,170,552.434,170,552.768,170C553.102,170,553.435,170,553.769,170C554.103,170,554.437,170,554.771,170C555.104,170,555.438,170,555.772,170C556.106,170,556.439,170,556.773,170C557.107,170,557.441,170,557.775,170C558.108,170,558.442,170,558.776,170C559.11,170,559.444,170,559.777,170C560.111,170,560.445,170,560.779,170C561.113,170,561.446,170,561.78,170C562.114,170,562.448,170,562.782,170C563.115,170,563.449,170,563.783,170C564.117,170,564.451,170,564.784,170C565.118,170,565.452,170,565.786,170C566.12,170,566.453,170,566.787,170C567.121,170,567.455,170,567.789,170C568.122,170,568.456,170,568.79,170C569.124,170,569.458,170,569.791,170C570.125,170,570.459,170,570.793,170C571.127,170,571.46,170,571.794,170C572.128,170,572.462,170,572.796,170C573.129,170,573.463,170,573.797,170C574.131,170,574.465,170,574.798,170C575.132,170,575.466,170,575.8,170C576.134,170,576.467,170,576.801,170C577.135,170,577.469,170,577.803,170C578.136,170,578.47,170,578.804,170C579.138,170,579.471,170,579.805,170C580.139,170,580.473,170,580.807,170C581.14,170,581.474,170,581.808,170C582.142,170,582.476,170,582.809,170C583.143,170,583.477,170,583.811,170C584.145,170,584.478,170,584.812,170C585.146,170,585.48,170,585.814,170C586.147,170,586.481,170,586.815,170C587.149,170,587.483,170,587.816,170C588.15,170,588.484,170,588.818,170C589.152,170,589.485,170,589.819,170C590.153,170,590.487,170,590.821,170C591.154,170,591.488,170,591.822,170C592.156,170,592.49,170,592.823,170C593.157,170,593.491,170,593.825,170C594.159,170,594.492,170,594.826,170C595.16,170,595.494,170,595.828,170C596.161,170,596.495,170,596.829,170C597.163,170,597.497,170,597.83,170C598.164,170,598.498,170,598.832,170C599.166,170,599.499,170,599.833,170C600.167,170,600.501,170,600.834,170C601.168,170,601.502,170,601.836,170C602.17,170,602.503,170,602.837,170C603.171,170,603.505,170,603.839,170C604.172,170,604.506,170,604.84,170C605.174,170,605.508,170,605.841,170C606.175,170,606.509,170,606.843,170C607.177,170,607.51,170,607.844,170C608.178,170,608.512,170,608.846,170C609.179,170,609.513,170,609.847,170C610.181,170,610.515,170,610.848,170C611.182,170,611.516,170,611.85,170C612.184,170,612.517,170,612.851,170C613.185,170,613.519,170,613.853,170C614.186,170,614.52,170,614.854,170C615.188,170,615.522,170,615.855,170C616.189,170,616.523,170,616.857,170C617.191,170,617.524,170,617.858,170C618.192,170,618.526,170,618.86,170C619.193,170,619.527,170,619.861,170C620.195,170,620.529,170,620.862,170C621.196,170,621.53,170,621.864,170C622.197,170,622.531,170,622.865,170C623.199,170,623.533,170,623.866,170C624.2,170,624.534,170,624.868,170C625.202,170,625.535,170,625.869,170C626.203,170,626.537,170,626.871,170C627.204,170,627.538,170,627.872,170C628.206,170,628.54,170,628.873,170C629.207,170,629.541,170,629.875,170C630.209,170,630.542,170,630.876,170C631.21,170,631.544,170,631.878,170C632.211,170,632.545,170,632.879,170C633.213,170,633.547,170,633.88,170C634.214,170,634.548,170,634.882,170C635.216,170,635.549,170,635.883,170C636.217,170,636.551,170,636.885,170C637.218,170,637.552,170,637.886,170C638.22,170,638.554,170,638.887,170C639.221,170,639.555,170,639.889,170C640.223,170,640.556,170,640.89,170C641.224,170,641.558,170,641.892,170C642.225,170,642.559,170,642.893,170C643.227,170,643.561,170,643.894,170C644.228,170,644.562,170,644.896,170C645.229,170,645.563,170,645.897,170C646.231,170,646.565,170,646.898,170C647.232,170,647.566,170,647.9,170C648.234,170,648.567,170,648.901,170C649.235,170,649.569,170,649.903,170C650.236,170,650.57,170,650.904,170C651.238,170,651.572,170,651.905,170C652.239,170,652.573,170,652.907,170C653.241,170,653.574,170,653.908,170C654.242,170,654.576,170,654.91,170C655.243,170,655.577,170,655.911,170C656.245,170,656.579,170,656.912,170C657.246,170,657.58,170,657.914,170C658.248,170,658.581,170,658.915,170C659.249,170,659.583,170,659.917,170C660.25,170,660.584,170,660.918,170C661.252,170,661.586,170,661.919,170C662.253,170,662.587,170,662.921,170C663.255,170,663.588,170,663.922,170C664.256,170,664.59,170,664.924,170C665.257,170,665.591,170,665.925,170C666.259,170,666.592,170,666.926,170C667.26,170,667.594,170,667.928,170C668.261,170,668.595,170,668.929,170C669.263,170,669.597,170,669.93,170C670.264,170,670.598,170,670.932,170C671.266,170,671.599,170,671.933,170C672.267,170,672.601,170,672.935,170C673.268,170,673.602,170,673.936,170C674.27,170,674.604,170,674.937,170C675.271,170,675.605,170,675.939,170C676.273,170,676.606,170,676.94,170C677.274,170,677.608,170,677.942,170C678.275,170,678.609,170,678.943,170C679.277,170,679.611,170,679.944,170C680.278,170,680.612,170,680.946,170C681.28,170,681.613,170,681.947,170C682.281,170,682.615,170,682.949,170C683.282,170,683.616,170,683.95,170C684.284,170,684.618,170,684.951,170C685.285,170,685.619,170,685.953,170C686.287,170,686.62,170,686.954,170C687.288,170,687.622,170,687.955,170C688.289,170,688.623,170,688.957,170C689.291,170,689.624,170,689.958,170C690.292,170,690.626,170,690.96,170C691.293,170,691.627,170,691.961,170C692.295,170,692.629,170,692.962,170C693.296,170,693.63,170,693.964,170C694.298,170,694.631,170,694.965,170C695.299,170,695.633,170,695.967,170C696.3,170,696.634,170,696.968,170C697.302,170,697.636,170,697.969,170C698.303,170,698.637,170,698.971,170C699.305,170,699.638,170,699.972,170C700.306,170,700.64,170,700.974,170C701.307,170,701.641,170,701.975,170C702.309,170,702.643,170,702.976,170C703.31,170,703.644,170,703.978,170C704.312,170,704.645,170,704.979,170C705.313,170,705.647,170,705.981,170C706.314,170,706.648,170,706.982,170C707.316,170,707.65,170,707.983,170C708.317,170,708.651,170,708.985,170C709.318,170,709.652,170,709.986,170C710.32,170,710.654,170,710.987,170C711.321,170,711.655,170,711.989,170C712.323,170,712.656,170,712.99,170C713.324,170,713.658,170,713.992,170C714.325,170,714.659,170,714.993,170C715.327,170,715.661,170,715.994,170C716.328,170,716.662,170,716.996,170C717.33,170,717.663,170,717.997,170C718.331,170,718.665,170,718.999,170C719.332,170,719.666,170,720,170"></path><circle class="dot" cx="0" cy="170" r="3" fill="#2563eb"></circle><circle class="dot" cx="1.0013908205841446" cy="170" r="3" fill="#2563eb"></circle><circle class="dot" cx="2.0027816411682893" cy="170" r="3" fill="#2563eb"></circle><circle class="dot" cx="3.004172461752434" cy="170" r="3" fill="#2563eb"></circle><circle class="dot" cx="4.0055632823365785" cy="170" r="3" fill="#2563eb"></circle><circle class="dot" cx="5.006954102920724" cy="170" r="3" fill="#2563eb"></circle><circle class="dot" cx="6.008344923504868" cy="170" r="3" fill="#2563eb"></circle><circle class="dot" cx="7.009735744089013" cy="170" r="3" fill="#2563eb"></circle><circle class="dot" cx="8.011126564673157" cy="170" r="3" fill="#2563eb"></circle><circle class="dot" cx="9.0125173852573" cy="170" r="3" fill="#2563eb"></circle><circle class="dot" cx="10.013908205841448" cy="170" r="3" fill="#2563eb"></circle><circle class="dot" cx="11.015299026425591" cy="170" r="3" fill="#2563eb"></circle><circle class="dot" cx="12.016689847009737" cy="170" r="3" fill="#2563eb"></circle><circle class="dot" cx="13.018080667593882" cy="170" r="3" fill="#2563eb"></circle><circle class="dot" cx="14.019471488178025" cy="170" r="3" fill="#2563eb"></circle><circle class="dot" cx="15.02086230876217" cy="170" r="3" fill="#2563eb"></circle><circle class="dot" cx="16.022253129346314" cy="170" r="3" fill="#2563eb"></circle><circle class="dot" cx="17.02364394993046" cy="170" r="3" fill="#2563eb"></circle><circle class="dot" cx="18.0250347705146" cy="170" r="3" fill="#2563eb"></circle><circle class="dot" cx="19.026425591098747" cy="170" r="3" fill="#2563eb"></circle><circle class="dot" cx="20.027816411682895" cy="170" r="3" fill="#2563eb"></circle><circle class="dot" cx="21.029207232267037" cy="170" r="3" fill="#2563eb"></circle><circle class="dot" cx="22.030598052851182" cy="170" r="3" fill="#2563eb"></circle><circle class="dot" cx="23.031988873435328" cy="170" r="3" fill="#2563eb"></circle><circle class="dot" cx="24.033379694019473" cy="170" r="3" fill="#2563eb"></circle><circle class="dot" cx="25.034770514603615" cy="170" r="3" fill="#2563eb"></circle><circle class="dot" cx="26.036161335187764" cy="170" r="3" fill="#2563eb"></circle><circle class="dot" cx="27.037552155771905" cy="170" r="3" fill="#2563eb"></circle><circle class="dot" cx="28.03894297635605" cy="170" r="3" fill="#2563eb"></circle><circle class="dot" cx="29.040333796940192" cy="170" r="3" fill="#2563eb"></circle><circle class="dot" cx="30.04172461752434" cy="170" r="3" fill="#2563eb"></circle><circle class="dot" cx="31.043115438108483" cy="170" r="3" fill="#2563eb"></circle><circle class="dot" cx="32.04450625869263" cy="170" r="3" fill="#2563eb"></circle><circle class="dot" cx="33.04589707927678" cy="170" r="3" fill="#2563eb"></circle><circle class="dot" cx="34.04728789986092" cy="170" r="3" fill="#2563eb"></circle><circle class="dot" cx="35.04867872044506" cy="170" r="3" fill="#2563eb"></circle><circle class="dot" cx="36.0500695410292" cy="170" r="3" fill="#2563eb"></circle><circle class="dot" cx="37.05146036161335" cy="170" r="3" fill="#2563eb"></circle><circle class="dot" cx="38.05285118219749" cy="170" r="3" fill="#2563eb"></circle><circle class="dot" cx="39.05424200278164" cy="170" r="3" fill="#2563eb"></circle><circle class="dot" cx="40.05563282336579" cy="170" r="3" fill="#2563eb"></circle><circle class="dot" cx="41.05702364394993" cy="170" r="3" fill="#2563eb"></circle><circle class="dot" cx="42.058414464534074" cy="170" r="3" fill="#2563eb"></circle><circle class="dot" cx="43.059805285118216" cy="170" r="3" fill="#2563eb"></circle><circle class="dot" cx="44.061196105702365" cy="170" r="3" fill="#2563eb"></circle><circle class="dot" cx="45.06258692628651" cy="170" r="3" fill="#2563eb"></circle><circle class="dot" cx="46.063977746870655" cy="170" r="3" fill="#2563eb"></circle><circle class="dot" cx="47.0653685674548" cy="170" r="3" fill="#2563eb"></circle><circle class="dot" cx="48.066759388038946" cy="170" r="3" fill="#2563eb"></circle><circle class="dot" cx="49.068150208623095" cy="170" r="3" fill="#2563eb"></circle><circle class="dot" cx="50.06954102920723" cy="170" r="3" fill="#2563eb"></circle><circle class="dot" cx="51.07093184979138" cy="170" r="3" fill="#2563eb"></circle><circle class="dot" cx="52.07232267037553" cy="170" r="3" fill="#2563eb"></circle><circle class="dot" cx="53.07371349095966" cy="170" r="3" fill="#2563eb"></circle><circle class="dot" cx="54.07510431154381" cy="170" r="3" fill="#2563eb"></circle><circle class="dot" cx="55.07649513212795" cy="170" r="3" fill="#2563eb"></circle><circle class="dot" cx="56.0778859527121" cy="170" r="3" fill="#2563eb"></circle><circle class="dot" cx="57.07927677329625" cy="170" r="3" fill="#2563eb"></circle><circle class="dot" cx="58.080667593880385" cy="170" r="3" fill="#2563eb"></circle><circle class="dot" cx="59.082058414464534" cy="170" r="3" fill="#2563eb"></circle><circle class="dot" cx="60.08344923504868" cy="170" r="3" fill="#2563eb"></circle><circle class="dot" cx="61.08484005563282" cy="170" r="3" fill="#2563eb"></circle><circle class="dot" cx="62.086230876216966" cy="170" r="3" fill="#2563eb"></circle><circle class="dot" cx="63.087621696801115" cy="170" r="3" fill="#2563eb"></circle><circle class="dot" cx="64.08901251738526" cy="170" r="3" fill="#2563eb"></circle><circle class="dot" cx="65.0904033379694" cy="170" r="3" fill="#2563eb"></circle><circle class="dot" cx="66.09179415855355" cy="170" r="3" fill="#2563eb"></circle><circle class="dot" cx="67.09318497913769" cy="170" r="3" fill="#2563eb"></circle><circle class="dot" cx="68.09457579972184" cy="170" r="3" fill="#2563eb"></circle><circle class="dot" cx="69.09596662030599" cy="170" r="3" fill="#2563eb"></circle><circle class="dot" cx="70.09735744089012" cy="170" r="3" fill="#2563eb"></circle><circle class="dot" cx="71.09874826147427" cy="170" r="3" fill="#2563eb"></circle><circle class="dot" cx="72.1001390820584" cy="170" r="3" fill="#2563eb"></circle><circle class="dot" cx="73.10152990264255" cy="170" r="3" fill="#2563eb"></circle><circle class="dot" cx="74.1029207232267" cy="170" r="3" fill="#2563eb"></circle><circle class="dot" cx="75.10431154381084" cy="170" r="3" fill="#2563eb"></circle><circle class="dot" cx="76.10570236439499" cy="170" r="3" fill="#2563eb"></circle><circle class="dot" cx="77.10709318497914" cy="170" r="3" fill="#2563eb"></circle><circle class="dot" cx="78.10848400556328" cy="170" r="3" fill="#2563eb"></circle><circle class="dot" cx="79.10987482614743" cy="170" r="3" fill="#2563eb"></circle><circle class="dot" cx="80.11126564673158" cy="170" r="3" fill="#2563eb"></circle><circle class="dot" cx="81.11265646731572" cy="170" r="3" fill="#2563eb"></circle><circle class="dot" cx="82.11404728789987" cy="170" r="3" fill="#2563eb"></circle><circle class="dot" cx="83.11543810848401" cy="170" r="3" fill="#2563eb"></circle><circle class="dot" cx="84.11682892906815" cy="170" r="3" fill="#2563eb"></circle><circle class="dot" cx="85.1182197496523" cy="170" r="3" fill="#2563eb"></circle><circle class="dot" cx="86.11961057023643" cy="170" r="3" fill="#2563eb"></circle><circle class="dot" cx="87.12100139082058" cy="170" r="3" fill="#2563eb"></circle><circle class="dot" cx="88.12239221140473" cy="170" r="3" fill="#2563eb"></circle><circle class="dot" cx="89.12378303198886" cy="170" r="3" fill="#2563eb"></circle><circle class="dot" cx="90.12517385257301" cy="170" r="3" fill="#2563eb"></circle><circle class="dot" cx="91.12656467315716" cy="170" r="3" fill="#2563eb"></circle><circle class="dot" cx="92.12795549374131" cy="170" r="3" fill="#2563eb"></circle><circle class="dot" cx="93.12934631432545" cy="170" r="3" fill="#2563eb"></circle><circle class="dot" cx="94.1307371349096" cy="170" r="3" fill="#2563eb"></circle><circle class="dot" cx="95.13212795549374" cy="170" r="3" fill="#2563eb"></circle><circle class="dot" cx="96.13351877607789" cy="170" r="3" fill="#2563eb"></circle><circle class="dot" cx="97.13490959666203" cy="170" r="3" fill="#2563eb"></circle><circle class="dot" cx="98.13630041724619" cy="170" r="3" fill="#2563eb"></circle><circle class="dot" cx="99.13769123783032" cy="170" r="3" fill="#2563eb"></circle><circle class="dot" cx="100.13908205841446" cy="170" r="3" fill="#2563eb"></circle><circle class="dot" cx="101.14047287899862" cy="170" r="3" fill="#2563eb"></circle><circle class="dot" cx="102.14186369958276" cy="170" r="3" fill="#2563eb"></circle><circle class="dot" cx="103.14325452016689" cy="170" r="3" fill="#2563eb"></circle><circle class="dot" cx="104.14464534075105" cy="170" r="3" fill="#2563eb"></circle><circle class="dot" cx="105.14603616133519" cy="170" r="3" fill="#2563eb"></circle><circle class="dot" cx="106.14742698191932" cy="170" r="3" fill="#2563eb"></circle><circle class="dot" cx="107.14881780250349" cy="170" r="3" fill="#2563eb"></circle><circle class="dot" cx="108.15020862308762" cy="170" r="3" fill="#2563eb"></circle><circle class="dot" cx="109.15159944367176" cy="170" r="3" fill="#2563eb"></circle><circle class="dot" cx="110.1529902642559" cy="170" r="3" fill="#2563eb"></circle><circle class="dot" cx="111.15438108484005" cy="170" r="3" fill="#2563eb"></circle><circle class="dot" cx="112.1557719054242" cy="170" r="3" fill="#2563eb"></circle><circle class="dot" cx="113.15716272600834" cy="170" r="3" fill="#2563eb"></circle><circle class="dot" cx="114.1585535465925" cy="170" r="3" fill="#2563eb"></circle><circle class="dot" cx="115.15994436717664" cy="170" r="3" fill="#2563eb"></circle><circle class="dot" cx="116.16133518776077" cy="170" r="3" fill="#2563eb"></circle><circle class="dot" cx="117.16272600834493" cy="170" r="3" fill="#2563eb"></circle><circle class="dot" cx="118.16411682892907" cy="170" r="3" fill="#2563eb"></circle><circle class="dot" cx="119.1655076495132" cy="170" r="3" fill="#2563eb"></circle><circle class="dot" cx="120.16689847009737" cy="170" r="3" fill="#2563eb"></circle><circle class="dot" cx="121.1682892906815" cy="170" r="3" fill="#2563eb"></circle><circle class="dot" cx="122.16968011126563" cy="170" r="3" fill="#2563eb"></circle><circle class="dot" cx="123.1710709318498" cy="170" r="3" fill="#2563eb"></circle><circle class="dot" cx="124.17246175243393" cy="170" r="3" fill="#2563eb"></circle><circle class="dot" cx="125.17385257301808" cy="170" r="3" fill="#2563eb"></circle><circle class="dot" cx="126.17524339360223" cy="170" r="3" fill="#2563eb"></circle><circle class="dot" cx="127.17663421418636" cy="170" r="3" fill="#2563eb"></circle><circle class="dot" cx="128.1780250347705" cy="170" r="3" fill="#2563eb"></circle><circle class="dot" cx="129.17941585535468" cy="170" r="3" fill="#2563eb"></circle><circle class="dot" cx="130.1808066759388" cy="170" r="3" fill="#2563eb"></circle><circle class="dot" cx="131.18219749652295" cy="170" r="3" fill="#2563eb"></circle><circle class="dot" cx="132.1835883171071" cy="170" r="3" fill="#2563eb"></circle><circle class="dot" cx="133.18497913769124" cy="170" r="3" fill="#2563eb"></circle><circle class="dot" cx="134.18636995827538" cy="170" r="3" fill="#2563eb"></circle><circle class="dot" cx="135.18776077885954" cy="170" r="3" fill="#2563eb"></circle><circle class="dot" cx="136.18915159944368" cy="170" r="3" fill="#2563eb"></circle><circle class="dot" cx="137.1905424200278" cy="170" r="3" fill="#2563eb"></circle><circle class="dot" cx="138.19193324061197" cy="170" r="3" fill="#2563eb"></circle><circle class="dot" cx="139.1933240611961" cy="170" r="3" fill="#2563eb"></circle><circle class="dot" cx="140.19471488178024" cy="170" r="3" fill="#2563eb"></circle><circle class="dot" cx="141.19610570236438" cy="170" r="3" fill="#2563eb"></circle><circle class="dot" cx="142.19749652294854" cy="170" r="3" fill="#2563eb"></circle><circle class="dot" cx="143.19888734353268" cy="170" r="3" fill="#2563eb"></circle><circle class="dot" cx="144.2002781641168" cy="170" r="3" fill="#2563eb"></circle><circle class="dot" cx="145.20166898470097" cy="170" r="3" fill="#2563eb"></circle><circle class="dot" cx="146.2030598052851" cy="170" r="3" fill="#2563eb"></circle><circle class="dot" cx="147.20445062586924" cy="170" r="3" fill="#2563eb"></circle><circle class="dot" cx="148.2058414464534" cy="170" r="3" fill="#2563eb"></circle><circle class="dot" cx="149.20723226703754" cy="170" r="3" fill="#2563eb"></circle><circle class="dot" cx="150.20862308762167" cy="170" r="3" fill="#2563eb"></circle><circle class="dot" cx="151.21001390820584" cy="170" r="3" fill="#2563eb"></circle><circle class="dot" cx="152.21140472878997" cy="170" r="3" fill="#2563eb"></circle><circle class="dot" cx="153.21279554937414" cy="170" r="3" fill="#2563eb"></circle><circle class="dot" cx="154.21418636995827" cy="170" r="3" fill="#2563eb"></circle><circle class="dot" cx="155.21557719054243" cy="170" r="3" fill="#2563eb"></circle><circle class="dot" cx="156.21696801112657" cy="170" r="3" fill="#2563eb"></circle><circle class="dot" cx="157.2183588317107" cy="170" r="3" fill="#2563eb"></circle><circle class="dot" cx="158.21974965229487" cy="170" r="3" fill="#2563eb"></circle><circle class="dot" cx="159.221140472879" cy="170" r="3" fill="#2563eb"></circle><circle class="dot" cx="160.22253129346316" cy="170" r="3" fill="#2563eb"></circle><circle class="dot" cx="161.2239221140473" cy="170" r="3" fill="#2563eb"></circle><circle class="dot" cx="162.22531293463143" cy="170" r="3" fill="#2563eb"></circle><circle class="dot" cx="163.2267037552156" cy="170" r="3" fill="#2563eb"></circle><circle class="dot" cx="164.22809457579973" cy="170" r="3" fill="#2563eb"></circle><circle class="dot" cx="165.22948539638386" cy="170" r="3" fill="#2563eb"></circle><circle class="dot" cx="166.23087621696803" cy="170" r="3" fill="#2563eb"></circle><circle class="dot" cx="167.23226703755216" cy="170" r="3" fill="#2563eb"></circle><circle class="dot" cx="168.2336578581363" cy="170" r="3" fill="#2563eb"></circle><circle class="dot" cx="169.23504867872046" cy="170" r="3" fill="#2563eb"></circle><circle class="dot" cx="170.2364394993046" cy="170" r="3" fill="#2563eb"></circle><circle class="dot" cx="171.23783031988873" cy="170" r="3" fill="#2563eb"></circle><circle class="dot" cx="172.23922114047286" cy="170" r="3" fill="#2563eb"></circle><circle class="dot" cx="173.24061196105703" cy="170" r="3" fill="#2563eb"></circle><circle class="dot" cx="174.24200278164116" cy="170" r="3" fill="#2563eb"></circle><circle class="dot" cx="175.2433936022253" cy="170" r="3" fill="#2563eb"></circle><circle class="dot" cx="176.24478442280946" cy="170" r="3" fill="#2563eb"></circle><circle class="dot" cx="177.2461752433936" cy="170" r="3" fill="#2563eb"></circle><circle class="dot" cx="178.24756606397773" cy="170" r="3" fill="#2563eb"></circle><circle class="dot" cx="179.2489568845619" cy="170" r="3" fill="#2563eb"></circle><circle class="dot" cx="180.25034770514603" cy="170" r="3" fill="#2563eb"></circle><circle class="dot" cx="181.25173852573016" cy="170" r="3" fill="#2563eb"></circle><circle class="dot" cx="182.25312934631432" cy="170" r="3" fill="#2563eb"></circle><circle class="dot" cx="183.2545201668985" cy="170" r="3" fill="#2563eb"></circle><circle class="dot" cx="184.25591098748262" cy="170" r="3" fill="#2563eb"></circle><circle class="dot" cx="185.25730180806676" cy="170" r="3" fill="#2563eb"></circle><circle class="dot" cx="186.2586926286509" cy="170" r="3" fill="#2563eb"></circle><circle class="dot" cx="187.26008344923505" cy="170" r="3" fill="#2563eb"></circle><circle class="dot" cx="188.2614742698192" cy="170" r="3" fill="#2563eb"></circle><circle class="dot" cx="189.26286509040332" cy="170" r="3" fill="#2563eb"></circle><circle class="dot" cx="190.2642559109875" cy="170" r="3" fill="#2563eb"></circle><circle class="dot" cx="191.26564673157162" cy="170" r="3" fill="#2563eb"></circle><circle class="dot" cx="192.26703755215578" cy="170" r="3" fill="#2563eb"></circle><circle class="dot" cx="193.26842837273992" cy="170" r="3" fill="#2563eb"></circle><circle class="dot" cx="194.26981919332405" cy="170" r="3" fill="#2563eb"></circle><circle class="dot" cx="195.2712100139082" cy="170" r="3" fill="#2563eb"></circle><circle class="dot" cx="196.27260083449238" cy="170" r="3" fill="#2563eb"></circle><circle class="dot" cx="197.27399165507651" cy="170" r="3" fill="#2563eb"></circle><circle class="dot" cx="198.27538247566065" cy="170" r="3" fill="#2563eb"></circle><circle class="dot" cx="199.27677329624478" cy="170" r="3" fill="#2563eb"></circle><circle class="dot" cx="200.27816411682892" cy="170" r="3" fill="#2563eb"></circle><circle class="dot" cx="201.27955493741305" cy="170" r="3" fill="#2563eb"></circle><circle class="dot" cx="202.28094575799724" cy="170" r="3" fill="#2563eb"></circle><circle class="dot" cx="203.28233657858138" cy="170" r="3" fill="#2563eb"></circle><circle class="dot" cx="204.2837273991655" cy="170" r="3" fill="#2563eb"></circle><circle class="dot" cx="205.28511821974965" cy="170" r="3" fill="#2563eb"></circle><circle class="dot" cx="206.28650904033378" cy="170" r="3" fill="#2563eb"></circle><circle class="dot" cx="207.28789986091792" cy="170" r="3" fill="#2563eb"></circle><circle class="dot" cx="208.2892906815021" cy="170" r="3" fill="#2563eb"></circle><circle class="dot" cx="209.29068150208624" cy="170" r="3" fill="#2563eb"></circle><circle class="dot" cx="210.29207232267038" cy="170" r="3" fill="#2563eb"></circle><circle class="dot" cx="211.2934631432545" cy="170" r="3" fill="#2563eb"></circle><circle class="dot" cx="212.29485396383865" cy="170" r="3" fill="#2563eb"></circle><circle class="dot" cx="213.29624478442278" cy="170" r="3" fill="#2563eb"></circle><circle class="dot" cx="214.29763560500697" cy="170" r="3" fill="#2563eb"></circle><circle class="dot" cx="215.2990264255911" cy="170" r="3" fill="#2563eb"></circle><circle class="dot" cx="216.30041724617524" cy="170" r="3" fill="#2563eb"></circle><circle class="dot" cx="217.30180806675938" cy="170" r="3" fill="#2563eb"></circle><circle class="dot" cx="218.3031988873435" cy="170" r="3" fill="#2563eb"></circle><circle class="dot" cx="219.30458970792768" cy="170" r="3" fill="#2563eb"></circle><circle class="dot" cx="220.3059805285118" cy="170" r="3" fill="#2563eb"></circle><circle class="dot" cx="221.30737134909597" cy="170" r="3" fill="#2563eb"></circle><circle class="dot" cx="222.3087621696801" cy="170" r="3" fill="#2563eb"></circle><circle class="dot" cx="223.31015299026427" cy="170" r="3" fill="#2563eb"></circle><circle class="dot" cx="224.3115438108484" cy="170" r="3" fill="#2563eb"></circle><circle class="dot" cx="225.31293463143254" cy="170" r="3" fill="#2563eb"></circle><circle class="dot" cx="226.31432545201667" cy="170" r="3" fill="#2563eb"></circle><circle class="dot" cx="227.31571627260084" cy="170" r="3" fill="#2563eb"></circle><circle class="dot" cx="228.317107093185" cy="170" r="3" fill="#2563eb"></circle><circle class="dot" cx="229.31849791376914" cy="170" r="3" fill="#2563eb"></circle><circle class="dot" cx="230.31988873435327" cy="170" r="3" fill="#2563eb"></circle><circle class="dot" cx="231.3212795549374" cy="170" r="3" fill="#2563eb"></circle><circle class="dot" cx="232.32267037552154" cy="170" r="3" fill="#2563eb"></circle><circle class="dot" cx="233.32406119610573" cy="170" r="3" fill="#2563eb"></circle><circle class="dot" cx="234.32545201668987" cy="170" r="3" fill="#2563eb"></circle><circle class="dot" cx="235.326842837274" cy="170" r="3" fill="#2563eb"></circle><circle class="dot" cx="236.32823365785814" cy="170" r="3" fill="#2563eb"></circle><circle class="dot" cx="237.32962447844227" cy="170" r="3" fill="#2563eb"></circle><circle class="dot" cx="238.3310152990264" cy="170" r="3" fill="#2563eb"></circle><circle class="dot" cx="239.3324061196106" cy="170" r="3" fill="#2563eb"></circle><circle class="dot" cx="240.33379694019473" cy="170" r="3" fill="#2563eb"></circle><circle class="dot" cx="241.33518776077887" cy="170" r="3" fill="#2563eb"></circle><circle class="dot" cx="242.336578581363" cy="170" r="3" fill="#2563eb"></circle><circle class="dot" cx="243.33796940194713" cy="170" r="3" fill="#2563eb"></circle><circle class="dot" cx="244.33936022253127" cy="170" r="3" fill="#2563eb"></circle><circle class="dot" cx="245.34075104311546" cy="170" r="3" fill="#2563eb"></circle><circle class="dot" cx="246.3421418636996" cy="170" r="3" fill="#2563eb"></circle><circle class="dot" cx="247.34353268428373" cy="170" r="3" fill="#2563eb"></circle><circle class="dot" cx="248.34492350486786" cy="170" r="3" fill="#2563eb"></circle><circle class="dot" cx="249.346314325452" cy="170" r="3" fill="#2563eb"></circle><circle class="dot" cx="250.34770514603616" cy="170" r="3" fill="#2563eb"></circle><circle class="dot" cx="251.3490959666203" cy="170" r="3" fill="#2563eb"></circle><circle class="dot" cx="252.35048678720446" cy="170" r="3" fill="#2563eb"></circle><circle class="dot" cx="253.3518776077886" cy="170" r="3" fill="#2563eb"></circle><circle class="dot" cx="254.35326842837273" cy="170" r="3" fill="#2563eb"></circle><circle class="dot" cx="255.3546592489569" cy="170" r="3" fill="#2563eb"></circle><circle class="dot" cx="256.356050069541" cy="170" r="3" fill="#2563eb"></circle><circle class="dot" cx="257.35744089012513" cy="170" r="3" fill="#2563eb"></circle><circle class="dot" cx="258.35883171070935" cy="170" r="3" fill="#2563eb"></circle><circle class="dot" cx="259.36022253129346" cy="170" r="3" fill="#2563eb"></circle><circle class="dot" cx="260.3616133518776" cy="170" r="3" fill="#2563eb"></circle><circle class="dot" cx="261.36300417246173" cy="170" r="3" fill="#2563eb"></circle><circle class="dot" cx="262.3643949930459" cy="170" r="3" fill="#2563eb"></circle><circle class="dot" cx="263.36578581363" cy="170" r="3" fill="#2563eb"></circle><circle class="dot" cx="264.3671766342142" cy="170" r="3" fill="#2563eb"></circle><circle class="dot" cx="265.3685674547983" cy="170" r="3" fill="#2563eb"></circle><circle class="dot" cx="266.3699582753825" cy="170" r="3" fill="#2563eb"></circle><circle class="dot" cx="267.3713490959666" cy="170" r="3" fill="#2563eb"></circle><circle class="dot" cx="268.37273991655076" cy="170" r="3" fill="#2563eb"></circle><circle class="dot" cx="269.3741307371349" cy="170" r="3" fill="#2563eb"></circle><circle class="dot" cx="270.3755215577191" cy="170" r="3" fill="#2563eb"></circle><circle class="dot" cx="271.3769123783032" cy="170" r="3" fill="#2563eb"></circle><circle class="dot" cx="272.37830319888735" cy="170" r="3" fill="#2563eb"></circle><circle class="dot" cx="273.37969401947146" cy="170" r="3" fill="#2563eb"></circle><circle class="dot" cx="274.3810848400556" cy="170" r="3" fill="#2563eb"></circle><circle class="dot" cx="275.3824756606398" cy="170" r="3" fill="#2563eb"></circle><circle class="dot" cx="276.38386648122395" cy="170" r="3" fill="#2563eb"></circle><circle class="dot" cx="277.38525730180805" cy="170" r="3" fill="#2563eb"></circle><circle class="dot" cx="278.3866481223922" cy="170" r="3" fill="#2563eb"></circle><circle class="dot" cx="279.3880389429764" cy="170" r="3" fill="#2563eb"></circle><circle class="dot" cx="280.3894297635605" cy="170" r="3" fill="#2563eb"></circle><circle class="dot" cx="281.39082058414465" cy="170" r="3" fill="#2563eb"></circle><circle class="dot" cx="282.39221140472876" cy="170" r="3" fill="#2563eb"></circle><circle class="dot" cx="283.393602225313" cy="170" r="3" fill="#2563eb"></circle><circle class="dot" cx="284.3949930458971" cy="170" r="3" fill="#2563eb"></circle><circle class="dot" cx="285.39638386648124" cy="170" r="3" fill="#2563eb"></circle><circle class="dot" cx="286.39777468706535" cy="170" r="3" fill="#2563eb"></circle><circle class="dot" cx="287.3991655076495" cy="170" r="3" fill="#2563eb"></circle><circle class="dot" cx="288.4005563282336" cy="170" r="3" fill="#2563eb"></circle><circle class="dot" cx="289.40194714881784" cy="170" r="3" fill="#2563eb"></circle><circle class="dot" cx="290.40333796940195" cy="170" r="3" fill="#2563eb"></circle><circle class="dot" cx="291.4047287899861" cy="170" r="3" fill="#2563eb"></circle><circle class="dot" cx="292.4061196105702" cy="170" r="3" fill="#2563eb"></circle><circle class="dot" cx="293.4075104311544" cy="170" r="3" fill="#2563eb"></circle><circle class="dot" cx="294.4089012517385" cy="170" r="3" fill="#2563eb"></circle><circle class="dot" cx="295.4102920723227" cy="170" r="3" fill="#2563eb"></circle><circle class="dot" cx="296.4116828929068" cy="170" r="3" fill="#2563eb"></circle><circle class="dot" cx="297.413073713491" cy="170" r="3" fill="#2563eb"></circle><circle class="dot" cx="298.4144645340751" cy="170" r="3" fill="#2563eb"></circle><circle class="dot" cx="299.41585535465924" cy="170" r="3" fill="#2563eb"></circle><circle class="dot" cx="300.41724617524335" cy="170" r="3" fill="#2563eb"></circle><circle class="dot" cx="301.41863699582757" cy="170" r="3" fill="#2563eb"></circle><circle class="dot" cx="302.4200278164117" cy="170" r="3" fill="#2563eb"></circle><circle class="dot" cx="303.42141863699584" cy="170" r="3" fill="#2563eb"></circle><circle class="dot" cx="304.42280945757994" cy="170" r="3" fill="#2563eb"></circle><circle class="dot" cx="305.4242002781641" cy="170" r="3" fill="#2563eb"></circle><circle class="dot" cx="306.42559109874827" cy="170" r="3" fill="#2563eb"></circle><circle class="dot" cx="307.42698191933243" cy="170" r="3" fill="#2563eb"></circle><circle class="dot" cx="308.42837273991654" cy="170" r="3" fill="#2563eb"></circle><circle class="dot" cx="309.4297635605007" cy="170" r="3" fill="#2563eb"></circle><circle class="dot" cx="310.43115438108487" cy="170" r="3" fill="#2563eb"></circle><circle class="dot" cx="311.432545201669" cy="170" r="3" fill="#2563eb"></circle><circle class="dot" cx="312.43393602225314" cy="170" r="3" fill="#2563eb"></circle><circle class="dot" cx="313.43532684283724" cy="170" r="3" fill="#2563eb"></circle><circle class="dot" cx="314.4367176634214" cy="170" r="3" fill="#2563eb"></circle><circle class="dot" cx="315.43810848400557" cy="170" r="3" fill="#2563eb"></circle><circle class="dot" cx="316.43949930458973" cy="170" r="3" fill="#2563eb"></circle><circle class="dot" cx="317.44089012517384" cy="170" r="3" fill="#2563eb"></circle><circle class="dot" cx="318.442280945758" cy="170" r="3" fill="#2563eb"></circle><circle class="dot" cx="319.4436717663421" cy="170" r="3" fill="#2563eb"></circle><circle class="dot" cx="320.4450625869263" cy="170" r="3" fill="#2563eb"></circle><circle class="dot" cx="321.44645340751043" cy="170" r="3" fill="#2563eb"></circle><circle class="dot" cx="322.4478442280946" cy="170" r="3" fill="#2563eb"></circle><circle class="dot" cx="323.4492350486787" cy="170" r="3" fill="#2563eb"></circle><circle class="dot" cx="324.45062586926286" cy="170" r="3" fill="#2563eb"></circle><circle class="dot" cx="325.45201668984697" cy="170" r="3" fill="#2563eb"></circle><circle class="dot" cx="326.4534075104312" cy="170" r="3" fill="#2563eb"></circle><circle class="dot" cx="327.4547983310153" cy="170" r="3" fill="#2563eb"></circle><circle class="dot" cx="328.45618915159946" cy="170" r="3" fill="#2563eb"></circle><circle class="dot" cx="329.45757997218357" cy="170" r="3" fill="#2563eb"></circle><circle class="dot" cx="330.45897079276773" cy="170" r="3" fill="#2563eb"></circle><circle class="dot" cx="331.46036161335184" cy="170" r="3" fill="#2563eb"></circle><circle class="dot" cx="332.46175243393606" cy="170" r="3" fill="#2563eb"></circle><circle class="dot" cx="333.46314325452016" cy="170" r="3" fill="#2563eb"></circle><circle class="dot" cx="334.4645340751043" cy="170" r="3" fill="#2563eb"></circle><circle class="dot" cx="335.46592489568843" cy="170" r="3" fill="#2563eb"></circle><circle class="dot" cx="336.4673157162726" cy="170" r="3" fill="#2563eb"></circle><circle class="dot" cx="337.46870653685676" cy="170" r="3" fill="#2563eb"></circle><circle class="dot" cx="338.4700973574409" cy="170" r="3" fill="#2563eb"></circle><circle class="dot" cx="339.471488178025" cy="170" r="3" fill="#2563eb"></circle><circle class="dot" cx="340.4728789986092" cy="170" r="3" fill="#2563eb"></circle><circle class="dot" cx="341.4742698191933" cy="170" r="3" fill="#2563eb"></circle><circle class="dot" cx="342.47566063977746" cy="170" r="3" fill="#2563eb"></circle><circle class="dot" cx="343.4770514603616" cy="170" r="3" fill="#2563eb"></circle><circle class="dot" cx="344.4784422809457" cy="170" r="3" fill="#2563eb"></circle><circle class="dot" cx="345.4798331015299" cy="170" r="3" fill="#2563eb"></circle><circle class="dot" cx="346.48122392211405" cy="170" r="3" fill="#2563eb"></circle><circle class="dot" cx="347.4826147426982" cy="170" r="3" fill="#2563eb"></circle><circle class="dot" cx="348.4840055632823" cy="170" r="3" fill="#2563eb"></circle><circle class="dot" cx="349.4853963838665" cy="170" r="3" fill="#2563eb"></circle><circle class="dot" cx="350.4867872044506" cy="170" r="3" fill="#2563eb"></circle><circle class="dot" cx="351.4881780250348" cy="170" r="3" fill="#2563eb"></circle><circle class="dot" cx="352.4895688456189" cy="170" r="3" fill="#2563eb"></circle><circle class="dot" cx="353.4909596662031" cy="170" r="3" fill="#2563eb"></circle><circle class="dot" cx="354.4923504867872" cy="170" r="3" fill="#2563eb"></circle><circle class="dot" cx="355.49374130737135" cy="170" r="3" fill="#2563eb"></circle><circle class="dot" cx="356.49513212795546" cy="170" r="3" fill="#2563eb"></circle><circle class="dot" cx="357.4965229485397" cy="170" r="3" fill="#2563eb"></circle><circle class="dot" cx="358.4979137691238" cy="170" r="3" fill="#2563eb"></circle><circle class="dot" cx="359.49930458970795" cy="170" r="3" fill="#2563eb"></circle><circle class="dot" cx="360.50069541029205" cy="170" r="3" fill="#2563eb"></circle><circle class="dot" cx="361.5020862308762" cy="170" r="3" fill="#2563eb"></circle><circle class="dot" cx="362.5034770514603" cy="170" r="3" fill="#2563eb"></circle><circle class="dot" cx="363.5048678720445" cy="170" r="3" fill="#2563eb"></circle><circle class="dot" cx="364.50625869262865" cy="170" r="3" fill="#2563eb"></circle><circle class="dot" cx="365.50764951321275" cy="170" r="3" fill="#2563eb"></circle><circle class="dot" cx="366.509040333797" cy="170" r="3" fill="#2563eb"></circle><circle class="dot" cx="367.51043115438114" cy="170" r="3" fill="#2563eb"></circle><circle class="dot" cx="368.51182197496524" cy="170" r="3" fill="#2563eb"></circle><circle class="dot" cx="369.5132127955494" cy="170" r="3" fill="#2563eb"></circle><circle class="dot" cx="370.5146036161335" cy="170" r="3" fill="#2563eb"></circle><circle class="dot" cx="371.5159944367177" cy="170" r="3" fill="#2563eb"></circle><circle class="dot" cx="372.5173852573018" cy="170" r="3" fill="#2563eb"></circle><circle class="dot" cx="373.51877607788595" cy="170" r="3" fill="#2563eb"></circle><circle class="dot" cx="374.5201668984701" cy="170" r="3" fill="#2563eb"></circle><circle class="dot" cx="375.5215577190542" cy="170" r="3" fill="#2563eb"></circle><circle class="dot" cx="376.5229485396384" cy="170" r="3" fill="#2563eb"></circle><circle class="dot" cx="377.5243393602225" cy="170" r="3" fill="#2563eb"></circle><circle class="dot" cx="378.52573018080665" cy="170" r="3" fill="#2563eb"></circle><circle class="dot" cx="379.52712100139087" cy="170" r="3" fill="#2563eb"></circle><circle class="dot" cx="380.528511821975" cy="170" r="3" fill="#2563eb"></circle><circle class="dot" cx="381.52990264255914" cy="170" r="3" fill="#2563eb"></circle><circle class="dot" cx="382.53129346314324" cy="170" r="3" fill="#2563eb"></circle><circle class="dot" cx="383.5326842837274" cy="170" r="3" fill="#2563eb"></circle><circle class="dot" cx="384.53407510431157" cy="170" r="3" fill="#2563eb"></circle><circle class="dot" cx="385.5354659248957" cy="170" r="3" fill="#2563eb"></circle><circle class="dot" cx="386.53685674547984" cy="170" r="3" fill="#2563eb"></circle><circle class="dot" cx="387.53824756606394" cy="170" r="3" fill="#2563eb"></circle><circle class="dot" cx="388.5396383866481" cy="170" r="3" fill="#2563eb"></circle><circle class="dot" cx="389.5410292072322" cy="170" r="3" fill="#2563eb"></circle><circle class="dot" cx="390.5424200278164" cy="170" r="3" fill="#2563eb"></circle><circle class="dot" cx="391.5438108484006" cy="170" r="3" fill="#2563eb"></circle><circle class="dot" cx="392.54520166898476" cy="170" r="3" fill="#2563eb"></circle><circle class="dot" cx="393.54659248956887" cy="170" r="3" fill="#2563eb"></circle><circle class="dot" cx="394.54798331015303" cy="170" r="3" fill="#2563eb"></circle><circle class="dot" cx="395.54937413073714" cy="170" r="3" fill="#2563eb"></circle><circle class="dot" cx="396.5507649513213" cy="170" r="3" fill="#2563eb"></circle><circle class="dot" cx="397.5521557719054" cy="170" r="3" fill="#2563eb"></circle><circle class="dot" cx="398.55354659248957" cy="170" r="3" fill="#2563eb"></circle><circle class="dot" cx="399.5549374130737" cy="170" r="3" fill="#2563eb"></circle><circle class="dot" cx="400.55632823365784" cy="170" r="3" fill="#2563eb"></circle><circle class="dot" cx="401.557719054242" cy="170" r="3" fill="#2563eb"></circle><circle class="dot" cx="402.5591098748261" cy="170" r="3" fill="#2563eb"></circle><circle class="dot" cx="403.5605006954103" cy="170" r="3" fill="#2563eb"></circle><circle class="dot" cx="404.5618915159945" cy="170" r="3" fill="#2563eb"></circle><circle class="dot" cx="405.5632823365786" cy="170" r="3" fill="#2563eb"></circle><circle class="dot" cx="406.56467315716276" cy="170" r="3" fill="#2563eb"></circle><circle class="dot" cx="407.56606397774686" cy="170" r="3" fill="#2563eb"></circle><circle class="dot" cx="408.567454798331" cy="170" r="3" fill="#2563eb"></circle><circle class="dot" cx="409.56884561891513" cy="170" r="3" fill="#2563eb"></circle><circle class="dot" cx="410.5702364394993" cy="170" r="3" fill="#2563eb"></circle><circle class="dot" cx="411.57162726008346" cy="170" r="3" fill="#2563eb"></circle><circle class="dot" cx="412.57301808066757" cy="170" r="3" fill="#2563eb"></circle><circle class="dot" cx="413.57440890125173" cy="170" r="3" fill="#2563eb"></circle><circle class="dot" cx="414.57579972183584" cy="170" r="3" fill="#2563eb"></circle><circle class="dot" cx="415.57719054242" cy="170" r="3" fill="#2563eb"></circle><circle class="dot" cx="416.5785813630042" cy="170" r="3" fill="#2563eb"></circle><circle class="dot" cx="417.5799721835883" cy="170" r="3" fill="#2563eb"></circle><circle class="dot" cx="418.5813630041725" cy="170" r="3" fill="#2563eb"></circle><circle class="dot" cx="419.58275382475665" cy="170" r="3" fill="#2563eb"></circle><circle class="dot" cx="420.58414464534076" cy="170" r="3" fill="#2563eb"></circle><circle class="dot" cx="421.5855354659249" cy="170" r="3" fill="#2563eb"></circle><circle class="dot" cx="422.586926286509" cy="170" r="3" fill="#2563eb"></circle><circle class="dot" cx="423.5883171070932" cy="170" r="3" fill="#2563eb"></circle><circle class="dot" cx="424.5897079276773" cy="170" r="3" fill="#2563eb"></circle><circle class="dot" cx="425.59109874826146" cy="170" r="3" fill="#2563eb"></circle><circle class="dot" cx="426.59248956884556" cy="170" r="3" fill="#2563eb"></circle><circle class="dot" cx="427.5938803894297" cy="170" r="3" fill="#2563eb"></circle><circle class="dot" cx="428.59527121001395" cy="170" r="3" fill="#2563eb"></circle><circle class="dot" cx="429.5966620305981" cy="170" r="3" fill="#2563eb"></circle><circle class="dot" cx="430.5980528511822" cy="170" r="3" fill="#2563eb"></circle><circle class="dot" cx="431.5994436717664" cy="170" r="3" fill="#2563eb"></circle><circle class="dot" cx="432.6008344923505" cy="170" r="3" fill="#2563eb"></circle><circle class="dot" cx="433.60222531293465" cy="170" r="3" fill="#2563eb"></circle><circle class="dot" cx="434.60361613351876" cy="170" r="3" fill="#2563eb"></circle><circle class="dot" cx="435.6050069541029" cy="170" r="3" fill="#2563eb"></circle><circle class="dot" cx="436.606397774687" cy="170" r="3" fill="#2563eb"></circle><circle class="dot" cx="437.6077885952712" cy="170" r="3" fill="#2563eb"></circle><circle class="dot" cx="438.60917941585535" cy="170" r="3" fill="#2563eb"></circle><circle class="dot" cx="439.61057023643946" cy="170" r="3" fill="#2563eb"></circle><circle class="dot" cx="440.6119610570236" cy="170" r="3" fill="#2563eb"></circle><circle class="dot" cx="441.61335187760784" cy="170" r="3" fill="#2563eb"></circle><circle class="dot" cx="442.61474269819195" cy="170" r="3" fill="#2563eb"></circle><circle class="dot" cx="443.6161335187761" cy="170" r="3" fill="#2563eb"></circle><circle class="dot" cx="444.6175243393602" cy="170" r="3" fill="#2563eb"></circle><circle class="dot" cx="445.6189151599444" cy="170" r="3" fill="#2563eb"></circle><circle class="dot" cx="446.62030598052854" cy="170" r="3" fill="#2563eb"></circle><circle class="dot" cx="447.62169680111265" cy="170" r="3" fill="#2563eb"></circle><circle class="dot" cx="448.6230876216968" cy="170" r="3" fill="#2563eb"></circle><circle class="dot" cx="449.6244784422809" cy="170" r="3" fill="#2563eb"></circle><circle class="dot" cx="450.6258692628651" cy="170" r="3" fill="#2563eb"></circle><circle class="dot" cx="451.6272600834492" cy="170" r="3" fill="#2563eb"></circle><circle class="dot" cx="452.62865090403335" cy="170" r="3" fill="#2563eb"></circle><circle class="dot" cx="453.63004172461757" cy="170" r="3" fill="#2563eb"></circle><circle class="dot" cx="454.6314325452017" cy="170" r="3" fill="#2563eb"></circle><circle class="dot" cx="455.63282336578584" cy="170" r="3" fill="#2563eb"></circle><circle class="dot" cx="456.63421418637" cy="170" r="3" fill="#2563eb"></circle><circle class="dot" cx="457.6356050069541" cy="170" r="3" fill="#2563eb"></circle><circle class="dot" cx="458.63699582753827" cy="170" r="3" fill="#2563eb"></circle><circle class="dot" cx="459.6383866481224" cy="170" r="3" fill="#2563eb"></circle><circle class="dot" cx="460.63977746870654" cy="170" r="3" fill="#2563eb"></circle><circle class="dot" cx="461.64116828929065" cy="170" r="3" fill="#2563eb"></circle><circle class="dot" cx="462.6425591098748" cy="170" r="3" fill="#2563eb"></circle><circle class="dot" cx="463.6439499304589" cy="170" r="3" fill="#2563eb"></circle><circle class="dot" cx="464.6453407510431" cy="170" r="3" fill="#2563eb"></circle><circle class="dot" cx="465.6467315716273" cy="170" r="3" fill="#2563eb"></circle><circle class="dot" cx="466.64812239221146" cy="170" r="3" fill="#2563eb"></circle><circle class="dot" cx="467.64951321279557" cy="170" r="3" fill="#2563eb"></circle><circle class="dot" cx="468.65090403337973" cy="170" r="3" fill="#2563eb"></circle><circle class="dot" cx="469.65229485396384" cy="170" r="3" fill="#2563eb"></circle><circle class="dot" cx="470.653685674548" cy="170" r="3" fill="#2563eb"></circle><circle class="dot" cx="471.6550764951321" cy="170" r="3" fill="#2563eb"></circle><circle class="dot" cx="472.65646731571627" cy="170" r="3" fill="#2563eb"></circle><circle class="dot" cx="473.65785813630043" cy="170" r="3" fill="#2563eb"></circle><circle class="dot" cx="474.65924895688454" cy="170" r="3" fill="#2563eb"></circle><circle class="dot" cx="475.6606397774687" cy="170" r="3" fill="#2563eb"></circle><circle class="dot" cx="476.6620305980528" cy="170" r="3" fill="#2563eb"></circle><circle class="dot" cx="477.663421418637" cy="170" r="3" fill="#2563eb"></circle><circle class="dot" cx="478.6648122392212" cy="170" r="3" fill="#2563eb"></circle><circle class="dot" cx="479.6662030598053" cy="170" r="3" fill="#2563eb"></circle><circle class="dot" cx="480.66759388038946" cy="170" r="3" fill="#2563eb"></circle><circle class="dot" cx="481.66898470097357" cy="170" r="3" fill="#2563eb"></circle><circle class="dot" cx="482.67037552155773" cy="170" r="3" fill="#2563eb"></circle><circle class="dot" cx="483.6717663421419" cy="170" r="3" fill="#2563eb"></circle><circle class="dot" cx="484.673157162726" cy="170" r="3" fill="#2563eb"></circle><circle class="dot" cx="485.67454798331016" cy="170" r="3" fill="#2563eb"></circle><circle class="dot" cx="486.67593880389427" cy="170" r="3" fill="#2563eb"></circle><circle class="dot" cx="487.67732962447843" cy="170" r="3" fill="#2563eb"></circle><circle class="dot" cx="488.67872044506254" cy="170" r="3" fill="#2563eb"></circle><circle class="dot" cx="489.6801112656467" cy="170" r="3" fill="#2563eb"></circle><circle class="dot" cx="490.6815020862309" cy="170" r="3" fill="#2563eb"></circle><circle class="dot" cx="491.682892906815" cy="170" r="3" fill="#2563eb"></circle><circle class="dot" cx="492.6842837273992" cy="170" r="3" fill="#2563eb"></circle><circle class="dot" cx="493.68567454798335" cy="170" r="3" fill="#2563eb"></circle><circle class="dot" cx="494.68706536856746" cy="170" r="3" fill="#2563eb"></circle><circle class="dot" cx="495.6884561891516" cy="170" r="3" fill="#2563eb"></circle><circle class="dot" cx="496.68984700973573" cy="170" r="3" fill="#2563eb"></circle><circle class="dot" cx="497.6912378303199" cy="170" r="3" fill="#2563eb"></circle><circle class="dot" cx="498.692628650904" cy="170" r="3" fill="#2563eb"></circle><circle class="dot" cx="499.69401947148816" cy="170" r="3" fill="#2563eb"></circle><circle class="dot" cx="500.6954102920723" cy="170" r="3" fill="#2563eb"></circle><circle class="dot" cx="501.69680111265643" cy="170" r="3" fill="#2563eb"></circle><circle class="dot" cx="502.6981919332406" cy="170" r="3" fill="#2563eb"></circle><circle class="dot" cx="503.6995827538248" cy="170" r="3" fill="#2563eb"></circle><circle class="dot" cx="504.7009735744089" cy="170" r="3" fill="#2563eb"></circle><circle class="dot" cx="505.7023643949931" cy="170" r="3" fill="#2563eb"></circle><circle class="dot" cx="506.7037552155772" cy="170" r="3" fill="#2563eb"></circle><circle class="dot" cx="507.70514603616135" cy="170" r="3" fill="#2563eb"></circle><circle class="dot" cx="508.70653685674546" cy="170" r="3" fill="#2563eb"></circle><circle class="dot" cx="509.7079276773296" cy="170" r="3" fill="#2563eb"></circle><circle class="dot" cx="510.7093184979138" cy="170" r="3" fill="#2563eb"></circle><circle class="dot" cx="511.7107093184979" cy="170" r="3" fill="#2563eb"></circle><circle class="dot" cx="512.712100139082" cy="170" r="3" fill="#2563eb"></circle><circle class="dot" cx="513.7134909596662" cy="170" r="3" fill="#2563eb"></circle><circle class="dot" cx="514.7148817802503" cy="170" r="3" fill="#2563eb"></circle><circle class="dot" cx="515.7162726008345" cy="170" r="3" fill="#2563eb"></circle><circle class="dot" cx="516.7176634214187" cy="170" r="3" fill="#2563eb"></circle><circle class="dot" cx="517.7190542420028" cy="170" r="3" fill="#2563eb"></circle><circle class="dot" cx="518.7204450625869" cy="170" r="3" fill="#2563eb"></circle><circle class="dot" cx="519.721835883171" cy="170" r="3" fill="#2563eb"></circle><circle class="dot" cx="520.7232267037552" cy="170" r="3" fill="#2563eb"></circle><circle class="dot" cx="521.7246175243394" cy="170" r="3" fill="#2563eb"></circle><circle class="dot" cx="522.7260083449235" cy="170" r="3" fill="#2563eb"></circle><circle class="dot" cx="523.7273991655077" cy="170" r="3" fill="#2563eb"></circle><circle class="dot" cx="524.7287899860918" cy="170" r="3" fill="#2563eb"></circle><circle class="dot" cx="525.7301808066759" cy="170" r="3" fill="#2563eb"></circle><circle class="dot" cx="526.73157162726" cy="170" r="3" fill="#2563eb"></circle><circle class="dot" cx="527.7329624478442" cy="170" r="3" fill="#2563eb"></circle><circle class="dot" cx="528.7343532684284" cy="170" r="3" fill="#2563eb"></circle><circle class="dot" cx="529.7357440890125" cy="170" r="3" fill="#2563eb"></circle><circle class="dot" cx="530.7371349095966" cy="170" r="3" fill="#2563eb"></circle><circle class="dot" cx="531.7385257301809" cy="170" r="3" fill="#2563eb"></circle><circle class="dot" cx="532.739916550765" cy="170" r="3" fill="#2563eb"></circle><circle class="dot" cx="533.7413073713491" cy="170" r="3" fill="#2563eb"></circle><circle class="dot" cx="534.7426981919332" cy="170" r="3" fill="#2563eb"></circle><circle class="dot" cx="535.7440890125174" cy="170" r="3" fill="#2563eb"></circle><circle class="dot" cx="536.7454798331015" cy="170" r="3" fill="#2563eb"></circle><circle class="dot" cx="537.7468706536856" cy="170" r="3" fill="#2563eb"></circle><circle class="dot" cx="538.7482614742698" cy="170" r="3" fill="#2563eb"></circle><circle class="dot" cx="539.749652294854" cy="170" r="3" fill="#2563eb"></circle><circle class="dot" cx="540.7510431154382" cy="170" r="3" fill="#2563eb"></circle><circle class="dot" cx="541.7524339360223" cy="170" r="3" fill="#2563eb"></circle><circle class="dot" cx="542.7538247566064" cy="170" r="3" fill="#2563eb"></circle><circle class="dot" cx="543.7552155771906" cy="170" r="3" fill="#2563eb"></circle><circle class="dot" cx="544.7566063977747" cy="170" r="3" fill="#2563eb"></circle><circle class="dot" cx="545.7579972183588" cy="170" r="3" fill="#2563eb"></circle><circle class="dot" cx="546.7593880389429" cy="170" r="3" fill="#2563eb"></circle><circle class="dot" cx="547.7607788595271" cy="170" r="3" fill="#2563eb"></circle><circle class="dot" cx="548.7621696801112" cy="170" r="3" fill="#2563eb"></circle><circle class="dot" cx="549.7635605006953" cy="170" r="3" fill="#2563eb"></circle><circle class="dot" cx="550.7649513212796" cy="170" r="3" fill="#2563eb"></circle><circle class="dot" cx="551.7663421418637" cy="170" r="3" fill="#2563eb"></circle><circle class="dot" cx="552.7677329624479" cy="170" r="3" fill="#2563eb"></circle><circle class="dot" cx="553.769123783032" cy="170" r="3" fill="#2563eb"></circle><circle class="dot" cx="554.7705146036161" cy="170" r="3" fill="#2563eb"></circle><circle class="dot" cx="555.7719054242003" cy="170" r="3" fill="#2563eb"></circle><circle class="dot" cx="556.7732962447844" cy="170" r="3" fill="#2563eb"></circle><circle class="dot" cx="557.7746870653685" cy="170" r="3" fill="#2563eb"></circle><circle class="dot" cx="558.7760778859528" cy="170" r="3" fill="#2563eb"></circle><circle class="dot" cx="559.7774687065369" cy="170" r="3" fill="#2563eb"></circle><circle class="dot" cx="560.778859527121" cy="170" r="3" fill="#2563eb"></circle><circle class="dot" cx="561.7802503477051" cy="170" r="3" fill="#2563eb"></circle><circle class="dot" cx="562.7816411682893" cy="170" r="3" fill="#2563eb"></circle><circle class="dot" cx="563.7830319888734" cy="170" r="3" fill="#2563eb"></circle><circle class="dot" cx="564.7844228094575" cy="170" r="3" fill="#2563eb"></circle><circle class="dot" cx="565.7858136300417" cy="170" r="3" fill="#2563eb"></circle><circle class="dot" cx="566.787204450626" cy="170" r="3" fill="#2563eb"></circle><circle class="dot" cx="567.78859527121" cy="170" r="3" fill="#2563eb"></circle><circle class="dot" cx="568.7899860917942" cy="170" r="3" fill="#2563eb"></circle><circle class="dot" cx="569.7913769123783" cy="170" r="3" fill="#2563eb"></circle><circle class="dot" cx="570.7927677329625" cy="170" r="3" fill="#2563eb"></circle><circle class="dot" cx="571.7941585535466" cy="170" r="3" fill="#2563eb"></circle><circle class="dot" cx="572.7955493741307" cy="170" r="3" fill="#2563eb"></circle><circle class="dot" cx="573.7969401947148" cy="170" r="3" fill="#2563eb"></circle><circle class="dot" cx="574.798331015299" cy="170" r="3" fill="#2563eb"></circle><circle class="dot" cx="575.7997218358831" cy="170" r="3" fill="#2563eb"></circle><circle class="dot" cx="576.8011126564672" cy="170" r="3" fill="#2563eb"></circle><circle class="dot" cx="577.8025034770515" cy="170" r="3" fill="#2563eb"></circle><circle class="dot" cx="578.8038942976357" cy="170" r="3" fill="#2563eb"></circle><circle class="dot" cx="579.8052851182198" cy="170" r="3" fill="#2563eb"></circle><circle class="dot" cx="580.8066759388039" cy="170" r="3" fill="#2563eb"></circle><circle class="dot" cx="581.808066759388" cy="170" r="3" fill="#2563eb"></circle><circle class="dot" cx="582.8094575799722" cy="170" r="3" fill="#2563eb"></circle><circle class="dot" cx="583.8108484005563" cy="170" r="3" fill="#2563eb"></circle><circle class="dot" cx="584.8122392211404" cy="170" r="3" fill="#2563eb"></circle><circle class="dot" cx="585.8136300417247" cy="170" r="3" fill="#2563eb"></circle><circle class="dot" cx="586.8150208623088" cy="170" r="3" fill="#2563eb"></circle><circle class="dot" cx="587.8164116828929" cy="170" r="3" fill="#2563eb"></circle><circle class="dot" cx="588.817802503477" cy="170" r="3" fill="#2563eb"></circle><circle class="dot" cx="589.8191933240612" cy="170" r="3" fill="#2563eb"></circle><circle class="dot" cx="590.8205841446454" cy="170" r="3" fill="#2563eb"></circle><circle class="dot" cx="591.8219749652295" cy="170" r="3" fill="#2563eb"></circle><circle class="dot" cx="592.8233657858136" cy="170" r="3" fill="#2563eb"></circle><circle class="dot" cx="593.8247566063978" cy="170" r="3" fill="#2563eb"></circle><circle class="dot" cx="594.826147426982" cy="170" r="3" fill="#2563eb"></circle><circle class="dot" cx="595.827538247566" cy="170" r="3" fill="#2563eb"></circle><circle class="dot" cx="596.8289290681502" cy="170" r="3" fill="#2563eb"></circle><circle class="dot" cx="597.8303198887344" cy="170" r="3" fill="#2563eb"></circle><circle class="dot" cx="598.8317107093185" cy="170" r="3" fill="#2563eb"></circle><circle class="dot" cx="599.8331015299026" cy="170" r="3" fill="#2563eb"></circle><circle class="dot" cx="600.8344923504867" cy="170" r="3" fill="#2563eb"></circle><circle class="dot" cx="601.8358831710709" cy="170" r="3" fill="#2563eb"></circle><circle class="dot" cx="602.8372739916551" cy="170" r="3" fill="#2563eb"></circle><circle class="dot" cx="603.8386648122392" cy="170" r="3" fill="#2563eb"></circle><circle class="dot" cx="604.8400556328234" cy="170" r="3" fill="#2563eb"></circle><circle class="dot" cx="605.8414464534076" cy="170" r="3" fill="#2563eb"></circle><circle class="dot" cx="606.8428372739917" cy="170" r="3" fill="#2563eb"></circle><circle class="dot" cx="607.8442280945758" cy="170" r="3" fill="#2563eb"></circle><circle class="dot" cx="608.8456189151599" cy="170" r="3" fill="#2563eb"></circle><circle class="dot" cx="609.8470097357441" cy="170" r="3" fill="#2563eb"></circle><circle class="dot" cx="610.8484005563282" cy="170" r="3" fill="#2563eb"></circle><circle class="dot" cx="611.8497913769123" cy="170" r="3" fill="#2563eb"></circle><circle class="dot" cx="612.8511821974965" cy="170" r="3" fill="#2563eb"></circle><circle class="dot" cx="613.8525730180806" cy="170" r="3" fill="#2563eb"></circle><circle class="dot" cx="614.8539638386649" cy="170" r="3" fill="#2563eb"></circle><circle class="dot" cx="615.855354659249" cy="170" r="3" fill="#2563eb"></circle><circle class="dot" cx="616.8567454798331" cy="170" r="3" fill="#2563eb"></circle><circle class="dot" cx="617.8581363004173" cy="170" r="3" fill="#2563eb"></circle><circle class="dot" cx="618.8595271210014" cy="170" r="3" fill="#2563eb"></circle><circle class="dot" cx="619.8609179415855" cy="170" r="3" fill="#2563eb"></circle><circle class="dot" cx="620.8623087621697" cy="170" r="3" fill="#2563eb"></circle><circle class="dot" cx="621.8636995827538" cy="170" r="3" fill="#2563eb"></circle><circle class="dot" cx="622.865090403338" cy="170" r="3" fill="#2563eb"></circle><circle class="dot" cx="623.866481223922" cy="170" r="3" fill="#2563eb"></circle><circle class="dot" cx="624.8678720445063" cy="170" r="3" fill="#2563eb"></circle><circle class="dot" cx="625.8692628650904" cy="170" r="3" fill="#2563eb"></circle><circle class="dot" cx="626.8706536856745" cy="170" r="3" fill="#2563eb"></circle><circle class="dot" cx="627.8720445062587" cy="170" r="3" fill="#2563eb"></circle><circle class="dot" cx="628.8734353268428" cy="170" r="3" fill="#2563eb"></circle><circle class="dot" cx="629.874826147427" cy="170" r="3" fill="#2563eb"></circle><circle class="dot" cx="630.8762169680111" cy="170" r="3" fill="#2563eb"></circle><circle class="dot" cx="631.8776077885952" cy="170" r="3" fill="#2563eb"></circle><circle class="dot" cx="632.8789986091795" cy="170" r="3" fill="#2563eb"></circle><circle class="dot" cx="633.8803894297636" cy="170" r="3" fill="#2563eb"></circle><circle class="dot" cx="634.8817802503477" cy="170" r="3" fill="#2563eb"></circle><circle class="dot" cx="635.8831710709318" cy="170" r="3" fill="#2563eb"></circle><circle class="dot" cx="636.884561891516" cy="170" r="3" fill="#2563eb"></circle><circle class="dot" cx="637.8859527121001" cy="170" r="3" fill="#2563eb"></circle><circle class="dot" cx="638.8873435326842" cy="170" r="3" fill="#2563eb"></circle><circle class="dot" cx="639.8887343532684" cy="170" r="3" fill="#2563eb"></circle><circle class="dot" cx="640.8901251738527" cy="170" r="3" fill="#2563eb"></circle><circle class="dot" cx="641.8915159944368" cy="170" r="3" fill="#2563eb"></circle><circle class="dot" cx="642.8929068150209" cy="170" r="3" fill="#2563eb"></circle><circle class="dot" cx="643.894297635605" cy="170" r="3" fill="#2563eb"></circle><circle class="dot" cx="644.8956884561892" cy="170" r="3" fill="#2563eb"></circle><circle class="dot" cx="645.8970792767733" cy="170" r="3" fill="#2563eb"></circle><circle class="dot" cx="646.8984700973574" cy="170" r="3" fill="#2563eb"></circle><circle class="dot" cx="647.8998609179416" cy="170" r="3" fill="#2563eb"></circle><circle class="dot" cx="648.9012517385257" cy="170" r="3" fill="#2563eb"></circle><circle class="dot" cx="649.9026425591098" cy="170" r="3" fill="#2563eb"></circle><circle class="dot" cx="650.9040333796939" cy="170" r="3" fill="#2563eb"></circle><circle class="dot" cx="651.9054242002782" cy="170" r="3" fill="#2563eb"></circle><circle class="dot" cx="652.9068150208624" cy="170" r="3" fill="#2563eb"></circle><circle class="dot" cx="653.9082058414465" cy="170" r="3" fill="#2563eb"></circle><circle class="dot" cx="654.9095966620306" cy="170" r="3" fill="#2563eb"></circle><circle class="dot" cx="655.9109874826147" cy="170" r="3" fill="#2563eb"></circle><circle class="dot" cx="656.9123783031989" cy="170" r="3" fill="#2563eb"></circle><circle class="dot" cx="657.913769123783" cy="170" r="3" fill="#2563eb"></circle><circle class="dot" cx="658.9151599443671" cy="170" r="3" fill="#2563eb"></circle><circle class="dot" cx="659.9165507649514" cy="170" r="3" fill="#2563eb"></circle><circle class="dot" cx="660.9179415855355" cy="170" r="3" fill="#2563eb"></circle><circle class="dot" cx="661.9193324061196" cy="170" r="3" fill="#2563eb"></circle><circle class="dot" cx="662.9207232267037" cy="170" r="3" fill="#2563eb"></circle><circle class="dot" cx="663.9221140472879" cy="170" r="3" fill="#2563eb"></circle><circle class="dot" cx="664.9235048678721" cy="170" r="3" fill="#2563eb"></circle><circle class="dot" cx="665.9248956884562" cy="170" r="3" fill="#2563eb"></circle><circle class="dot" cx="666.9262865090403" cy="170" r="3" fill="#2563eb"></circle><circle class="dot" cx="667.9276773296245" cy="170" r="3" fill="#2563eb"></circle><circle class="dot" cx="668.9290681502086" cy="170" r="3" fill="#2563eb"></circle><circle class="dot" cx="669.9304589707928" cy="170" r="3" fill="#2563eb"></circle><circle class="dot" cx="670.9318497913769" cy="170" r="3" fill="#2563eb"></circle><circle class="dot" cx="671.9332406119611" cy="170" r="3" fill="#2563eb"></circle><circle class="dot" cx="672.9346314325452" cy="170" r="3" fill="#2563eb"></circle><circle class="dot" cx="673.9360222531293" cy="170" r="3" fill="#2563eb"></circle><circle class="dot" cx="674.9374130737135" cy="170" r="3" fill="#2563eb"></circle><circle class="dot" cx="675.9388038942976" cy="170" r="3" fill="#2563eb"></circle><circle class="dot" cx="676.9401947148818" cy="170" r="3" fill="#2563eb"></circle><circle class="dot" cx="677.941585535466" cy="170" r="3" fill="#2563eb"></circle><circle class="dot" cx="678.94297635605" cy="170" r="3" fill="#2563eb"></circle><circle class="dot" cx="679.9443671766343" cy="170" r="3" fill="#2563eb"></circle><circle class="dot" cx="680.9457579972184" cy="170" r="3" fill="#2563eb"></circle><circle class="dot" cx="681.9471488178025" cy="170" r="3" fill="#2563eb"></circle><circle class="dot" cx="682.9485396383866" cy="170" r="3" fill="#2563eb"></circle><circle class="dot" cx="683.9499304589708" cy="170" r="3" fill="#2563eb"></circle><circle class="dot" cx="684.9513212795549" cy="170" r="3" fill="#2563eb"></circle><circle class="dot" cx="685.952712100139" cy="170" r="3" fill="#2563eb"></circle><circle class="dot" cx="686.9541029207232" cy="170" r="3" fill="#2563eb"></circle><circle class="dot" cx="687.9554937413074" cy="170" r="3" fill="#2563eb"></circle><circle class="dot" cx="688.9568845618915" cy="170" r="3" fill="#2563eb"></circle><circle class="dot" cx="689.9582753824757" cy="170" r="3" fill="#2563eb"></circle><circle class="dot" cx="690.9596662030598" cy="170" r="3" fill="#2563eb"></circle><circle class="dot" cx="691.961057023644" cy="170" r="3" fill="#2563eb"></circle><circle class="dot" cx="692.9624478442281" cy="170" r="3" fill="#2563eb"></circle><circle class="dot" cx="693.9638386648122" cy="170" r="3" fill="#2563eb"></circle><circle class="dot" cx="694.9652294853964" cy="170" r="3" fill="#2563eb"></circle><circle class="dot" cx="695.9666203059805" cy="170" r="3" fill="#2563eb"></circle><circle class="dot" cx="696.9680111265646" cy="170" r="3" fill="#2563eb"></circle><circle class="dot" cx="697.9694019471488" cy="170" r="3" fill="#2563eb"></circle><circle class="dot" cx="698.970792767733" cy="170" r="3" fill="#2563eb"></circle><circle class="dot" cx="699.9721835883171" cy="170" r="3" fill="#2563eb"></circle><circle class="dot" cx="700.9735744089012" cy="170" r="3" fill="#2563eb"></circle><circle class="dot" cx="701.9749652294854" cy="170" r="3" fill="#2563eb"></circle><circle class="dot" cx="702.9763560500696" cy="170" r="3" fill="#2563eb"></circle><circle class="dot" cx="703.9777468706537" cy="170" r="3" fill="#2563eb"></circle><circle class="dot" cx="704.9791376912378" cy="170" r="3" fill="#2563eb"></circle><circle class="dot" cx="705.980528511822" cy="170" r="3" fill="#2563eb"></circle><circle class="dot" cx="706.9819193324062" cy="170" r="3" fill="#2563eb"></circle><circle class="dot" cx="707.9833101529903" cy="170" r="3" fill="#2563eb"></circle><circle class="dot" cx="708.9847009735744" cy="170" r="3" fill="#2563eb"></circle><circle class="dot" cx="709.9860917941585" cy="170" r="3" fill="#2563eb"></circle><circle class="dot" cx="710.9874826147427" cy="170" r="3" fill="#2563eb"></circle><circle class="dot" cx="711.9888734353268" cy="170" r="3" fill="#2563eb"></circle><circle class="dot" cx="712.9902642559109" cy="170" r="3" fill="#2563eb"></circle><circle class="dot" cx="713.9916550764951" cy="170" r="3" fill="#2563eb"></circle><circle class="dot" cx="714.9930458970794" cy="170" r="3" fill="#2563eb"></circle><circle class="dot" cx="715.9944367176635" cy="170" r="3" fill="#2563eb"></circle><circle class="dot" cx="716.9958275382476" cy="170" r="3" fill="#2563eb"></circle><circle class="dot" cx="717.9972183588317" cy="170" r="3" fill="#2563eb"></circle><circle class="dot" cx="718.9986091794159" cy="170" r="3" fill="#2563eb"></circle><circle class="dot" cx="720" cy="170" r="3" fill="#2563eb"></circle><g class="grid" transform="translate(0,340)" fill="none" font-size="10" font-family="sans-serif" text-anchor="middle" style="stroke-dasharray: 3,3; opacity: 0.3;"><path class="domain" stroke="currentColor" d="M0.5,-340V0.5H720.5V-340"></path><g class="tick" opacity="1" transform="translate(0.5,0)"><line stroke="currentColor" y2="-340"></line><text fill="currentColor" y="3" dy="0.71em"></text></g><g class="tick" opacity="1" transform="translate(24.533379694019473,0)"><line stroke="currentColor" y2="-340"></line><text fill="currentColor" y="3" dy="0.71em"></text></g><g class="tick" opacity="1" transform="translate(48.566759388038946,0)"><line stroke="currentColor" y2="-340"></line><text fill="currentColor" y="3" dy="0.71em"></text></g><g class="tick" opacity="1" transform="translate(72.6001390820584,0)"><line stroke="currentColor" y2="-340"></line><text fill="currentColor" y="3" dy="0.71em"></text></g><g class="tick" opacity="1" transform="translate(96.63351877607789,0)"><line stroke="currentColor" y2="-340"></line><text fill="currentColor" y="3" dy="0.71em"></text></g><g class="tick" opacity="1" transform="translate(120.66689847009737,0)"><line stroke="currentColor" y2="-340"></line><text fill="currentColor" y="3" dy="0.71em"></text></g><g class="tick" opacity="1" transform="translate(144.7002781641168,0)"><line stroke="currentColor" y2="-340"></line><text fill="currentColor" y="3" dy="0.71em"></text></g><g class="tick" opacity="1" transform="translate(168.7336578581363,0)"><line stroke="currentColor" y2="-340"></line><text fill="currentColor" y="3" dy="0.71em"></text></g><g class="tick" opacity="1" transform="translate(192.76703755215578,0)"><line stroke="currentColor" y2="-340"></line><text fill="currentColor" y="3" dy="0.71em"></text></g><g class="tick" opacity="1" transform="translate(216.80041724617524,0)"><line stroke="currentColor" y2="-340"></line><text fill="currentColor" y="3" dy="0.71em"></text></g><g class="tick" opacity="1" transform="translate(240.83379694019473,0)"><line stroke="currentColor" y2="-340"></line><text fill="currentColor" y="3" dy="0.71em"></text></g><g class="tick" opacity="1" transform="translate(264.8671766342142,0)"><line stroke="currentColor" y2="-340"></line><text fill="currentColor" y="3" dy="0.71em"></text></g><g class="tick" opacity="1" transform="translate(288.9005563282336,0)"><line stroke="currentColor" y2="-340"></line><text fill="currentColor" y="3" dy="0.71em"></text></g><g class="tick" opacity="1" transform="translate(312.93393602225314,0)"><line stroke="currentColor" y2="-340"></line><text fill="currentColor" y="3" dy="0.71em"></text></g><g class="tick" opacity="1" transform="translate(336.9673157162726,0)"><line stroke="currentColor" y2="-340"></line><text fill="currentColor" y="3" dy="0.71em"></text></g><g class="tick" opacity="1" transform="translate(361.00069541029205,0)"><line stroke="currentColor" y2="-340"></line><text fill="currentColor" y="3" dy="0.71em"></text></g><g class="tick" opacity="1" transform="translate(385.03407510431157,0)"><line stroke="currentColor" y2="-340"></line><text fill="currentColor" y="3" dy="0.71em"></text></g><g class="tick" opacity="1" transform="translate(409.067454798331,0)"><line stroke="currentColor" y2="-340"></line><text fill="currentColor" y="3" dy="0.71em"></text></g><g class="tick" opacity="1" transform="translate(433.1008344923505,0)"><line stroke="currentColor" y2="-340"></line><text fill="currentColor" y="3" dy="0.71em"></text></g><g class="tick" opacity="1" transform="translate(457.13421418637,0)"><line stroke="currentColor" y2="-340"></line><text fill="currentColor" y="3" dy="0.71em"></text></g><g class="tick" opacity="1" transform="translate(481.16759388038946,0)"><line stroke="currentColor" y2="-340"></line><text fill="currentColor" y="3" dy="0.71em"></text></g><g class="tick" opacity="1" transform="translate(505.2009735744089,0)"><line stroke="currentColor" y2="-340"></line><text fill="currentColor" y="3" dy="0.71em"></text></g><g class="tick" opacity="1" transform="translate(529.2343532684284,0)"><line stroke="currentColor" y2="-340"></line><text fill="currentColor" y="3" dy="0.71em"></text></g><g class="tick" opacity="1" transform="translate(553.2677329624479,0)"><line stroke="currentColor" y2="-340"></line><text fill="currentColor" y="3" dy="0.71em"></text></g><g class="tick" opacity="1" transform="translate(577.3011126564672,0)"><line stroke="currentColor" y2="-340"></line><text fill="currentColor" y="3" dy="0.71em"></text></g><g class="tick" opacity="1" transform="translate(601.3344923504867,0)"><line stroke="currentColor" y2="-340"></line><text fill="currentColor" y="3" dy="0.71em"></text></g><g class="tick" opacity="1" transform="translate(625.3678720445063,0)"><line stroke="currentColor" y2="-340"></line><text fill="currentColor" y="3" dy="0.71em"></text></g><g class="tick" opacity="1" transform="translate(649.4012517385257,0)"><line stroke="currentColor" y2="-340"></line><text fill="currentColor" y="3" dy="0.71em"></text></g><g class="tick" opacity="1" transform="translate(673.4346314325452,0)"><line stroke="currentColor" y2="-340"></line><text fill="currentColor" y="3" dy="0.71em"></text></g><g class="tick" opacity="1" transform="translate(697.4680111265646,0)"><line stroke="currentColor" y2="-340"></line><text fill="currentColor" y="3" dy="0.71em"></text></g></g><g class="grid" fill="none" font-size="10" font-family="sans-serif" text-anchor="end" style="stroke-dasharray: 3,3; opacity: 0.3;"><path class="domain" stroke="currentColor" d="M720,340.5H0.5V0.5H720"></path><g class="tick" opacity="1" transform="translate(0,170.5)"><line stroke="currentColor" x2="720"></line><text fill="currentColor" x="-3" dy="0.32em"></text></g></g></g><text x="400" y="10" text-anchor="middle" style="font-size: 16px; font-weight: bold; fill: #333;">OKX USDT Lending Rate - Current Month</text></svg>