<svg width="800" height="400" xmlns="http://www.w3.org/2000/svg"><g transform="translate(50,20)"><g transform="translate(0,340)" fill="none" font-size="10" font-family="sans-serif" text-anchor="middle"><path class="domain" stroke="currentColor" d="M0.5,6V0.5H720.5V6"></path><g class="tick" opacity="1" transform="translate(0.5,0)"><line stroke="currentColor" y2="6"></line><text fill="currentColor" y="9" dy=".15em" style="text-anchor: end;" dx="-.8em" transform="rotate(-45)">01/01</text></g><g class="tick" opacity="1" transform="translate(55.53184713375796,0)"><line stroke="currentColor" y2="6"></line><text fill="currentColor" y="9" dy=".15em" style="text-anchor: end;" dx="-.8em" transform="rotate(-45)">01/02</text></g><g class="tick" opacity="1" transform="translate(110.56369426751591,0)"><line stroke="currentColor" y2="6"></line><text fill="currentColor" y="9" dy=".15em" style="text-anchor: end;" dx="-.8em" transform="rotate(-45)">01/03</text></g><g class="tick" opacity="1" transform="translate(165.5955414012739,0)"><line stroke="currentColor" y2="6"></line><text fill="currentColor" y="9" dy=".15em" style="text-anchor: end;" dx="-.8em" transform="rotate(-45)">01/04</text></g><g class="tick" opacity="1" transform="translate(220.62738853503183,0)"><line stroke="currentColor" y2="6"></line><text fill="currentColor" y="9" dy=".15em" style="text-anchor: end;" dx="-.8em" transform="rotate(-45)">01/05</text></g><g class="tick" opacity="1" transform="translate(275.65923566878985,0)"><line stroke="currentColor" y2="6"></line><text fill="currentColor" y="9" dy=".15em" style="text-anchor: end;" dx="-.8em" transform="rotate(-45)">01/06</text></g><g class="tick" opacity="1" transform="translate(330.6910828025478,0)"><line stroke="currentColor" y2="6"></line><text fill="currentColor" y="9" dy=".15em" style="text-anchor: end;" dx="-.8em" transform="rotate(-45)">01/07</text></g><g class="tick" opacity="1" transform="translate(385.7229299363057,0)"><line stroke="currentColor" y2="6"></line><text fill="currentColor" y="9" dy=".15em" style="text-anchor: end;" dx="-.8em" transform="rotate(-45)">01/08</text></g><g class="tick" opacity="1" transform="translate(440.75477707006365,0)"><line stroke="currentColor" y2="6"></line><text fill="currentColor" y="9" dy=".15em" style="text-anchor: end;" dx="-.8em" transform="rotate(-45)">01/09</text></g><g class="tick" opacity="1" transform="translate(495.78662420382165,0)"><line stroke="currentColor" y2="6"></line><text fill="currentColor" y="9" dy=".15em" style="text-anchor: end;" dx="-.8em" transform="rotate(-45)">01/10</text></g><g class="tick" opacity="1" transform="translate(550.8184713375797,0)"><line stroke="currentColor" y2="6"></line><text fill="currentColor" y="9" dy=".15em" style="text-anchor: end;" dx="-.8em" transform="rotate(-45)">01/11</text></g><g class="tick" opacity="1" transform="translate(605.8503184713376,0)"><line stroke="currentColor" y2="6"></line><text fill="currentColor" y="9" dy=".15em" style="text-anchor: end;" dx="-.8em" transform="rotate(-45)">01/12</text></g><g class="tick" opacity="1" transform="translate(660.8821656050956,0)"><line stroke="currentColor" y2="6"></line><text fill="currentColor" y="9" dy=".15em" style="text-anchor: end;" dx="-.8em" transform="rotate(-45)">01/13</text></g><g class="tick" opacity="1" transform="translate(715.9140127388536,0)"><line stroke="currentColor" y2="6"></line><text fill="currentColor" y="9" dy=".15em" style="text-anchor: end;" dx="-.8em" transform="rotate(-45)">01/14</text></g></g><g fill="none" font-size="10" font-family="sans-serif" text-anchor="end"><path class="domain" stroke="currentColor" d="M-6,340.5H0.5V0.5H-6"></path><g class="tick" opacity="1" transform="translate(0,170.5)"><line stroke="currentColor" x2="-6"></line><text fill="currentColor" x="-9" dy="0.32em">3.20%</text></g></g><text transform="rotate(-90)" y="-50" x="-170" dy="1em" style="text-anchor: middle; font-size: 12px; fill: #666;">Pre Rate (%)</text><text transform="translate(360, 380)" style="text-anchor: middle; font-size: 12px; fill: #666;">Time (UTC)</text><path fill="none" stroke="#2563eb" stroke-width="2" d="M0,170C0.764,170,1.529,170,2.293,170C3.057,170,3.822,170,4.586,170C5.35,170,6.115,170,6.879,170C7.643,170,8.408,170,9.172,170C9.936,170,10.701,170,11.465,170C12.229,170,12.994,170,13.758,170C14.522,170,15.287,170,16.051,170C16.815,170,17.58,170,18.344,170C19.108,170,19.873,170,20.637,170C21.401,170,22.166,170,22.93,170C23.694,170,24.459,170,25.223,170C25.987,170,26.752,170,27.516,170C28.28,170,29.045,170,29.809,170C30.573,170,31.338,170,32.102,170C32.866,170,33.631,170,34.395,170C35.159,170,35.924,170,36.688,170C37.452,170,38.217,170,38.981,170C39.745,170,40.51,170,41.274,170C42.038,170,42.803,170,43.567,170C44.331,170,45.096,170,45.86,170C46.624,170,47.389,170,48.153,170C48.917,170,49.682,170,50.446,170C51.21,170,51.975,170,52.739,170C53.503,170,54.268,170,55.032,170C55.796,170,56.561,170,57.325,170C58.089,170,58.854,170,59.618,170C60.382,170,61.146,170,61.911,170C62.675,170,63.439,170,64.204,170C64.968,170,65.732,170,66.497,170C67.261,170,68.025,170,68.79,170C69.554,170,70.318,170,71.083,170C71.847,170,72.611,170,73.376,170C74.14,170,74.904,170,75.669,170C76.433,170,77.197,170,77.962,170C78.726,170,79.49,170,80.255,170C81.019,170,81.783,170,82.548,170C83.312,170,84.076,170,84.841,170C85.605,170,86.369,170,87.134,170C87.898,170,88.662,170,89.427,170C90.191,170,90.955,170,91.72,170C92.484,170,93.248,170,94.013,170C94.777,170,95.541,170,96.306,170C97.07,170,97.834,170,98.599,170C99.363,170,100.127,170,100.892,170C101.656,170,102.42,170,103.185,170C103.949,170,104.713,170,105.478,170C106.242,170,107.006,170,107.771,170C108.535,170,109.299,170,110.064,170C110.828,170,111.592,170,112.357,170C113.121,170,113.885,170,114.65,170C115.414,170,116.178,170,116.943,170C117.707,170,118.471,170,119.236,170C120,170,120.764,170,121.529,170C122.293,170,123.057,170,123.822,170C124.586,170,125.35,170,126.115,170C126.879,170,127.643,170,128.408,170C129.172,170,129.936,170,130.701,170C131.465,170,132.229,170,132.994,170C133.758,170,134.522,170,135.287,170C136.051,170,136.815,170,137.58,170C138.344,170,139.108,170,139.873,170C140.637,170,141.401,170,142.166,170C142.93,170,143.694,170,144.459,170C145.223,170,145.987,170,146.752,170C147.516,170,148.28,170,149.045,170C149.809,170,150.573,170,151.338,170C152.102,170,152.866,170,153.631,170C154.395,170,155.159,170,155.924,170C156.688,170,157.452,170,158.217,170C158.981,170,159.745,170,160.51,170C161.274,170,162.038,170,162.803,170C163.567,170,164.331,170,165.096,170C165.86,170,166.624,170,167.389,170C168.153,170,168.917,170,169.682,170C170.446,170,171.21,170,171.975,170C172.739,170,173.503,170,174.268,170C175.032,170,175.796,170,176.561,170C177.325,170,178.089,170,178.854,170C179.618,170,180.382,170,181.146,170C181.911,170,182.675,170,183.439,170C184.204,170,184.968,170,185.732,170C186.497,170,187.261,170,188.025,170C188.79,170,189.554,170,190.318,170C191.083,170,191.847,170,192.611,170C193.376,170,194.14,170,194.904,170C195.669,170,196.433,170,197.197,170C197.962,170,198.726,170,199.49,170C200.255,170,201.019,170,201.783,170C202.548,170,203.312,170,204.076,170C204.841,170,205.605,170,206.369,170C207.134,170,207.898,170,208.662,170C209.427,170,210.191,170,210.955,170C211.72,170,212.484,170,213.248,170C214.013,170,214.777,170,215.541,170C216.306,170,217.07,170,217.834,170C218.599,170,219.363,170,220.127,170C220.892,170,221.656,170,222.42,170C223.185,170,223.949,170,224.713,170C225.478,170,226.242,170,227.006,170C227.771,170,228.535,170,229.299,170C230.064,170,230.828,170,231.592,170C232.357,170,233.121,170,233.885,170C234.65,170,235.414,170,236.178,170C236.943,170,237.707,170,238.471,170C239.236,170,240,170,240.764,170C241.529,170,242.293,170,243.057,170C243.822,170,244.586,170,245.35,170C246.115,170,246.879,170,247.643,170C248.408,170,249.172,170,249.936,170C250.701,170,251.465,170,252.229,170C252.994,170,253.758,170,254.522,170C255.287,170,256.051,170,256.815,170C257.58,170,258.344,170,259.108,170C259.873,170,260.637,170,261.401,170C262.166,170,262.93,170,263.694,170C264.459,170,265.223,170,265.987,170C266.752,170,267.516,170,268.28,170C269.045,170,269.809,170,270.573,170C271.338,170,272.102,170,272.866,170C273.631,170,274.395,170,275.159,170C275.924,170,276.688,170,277.452,170C278.217,170,278.981,170,279.745,170C280.51,170,281.274,170,282.038,170C282.803,170,283.567,170,284.331,170C285.096,170,285.86,170,286.624,170C287.389,170,288.153,170,288.917,170C289.682,170,290.446,170,291.21,170C291.975,170,292.739,170,293.503,170C294.268,170,295.032,170,295.796,170C296.561,170,297.325,170,298.089,170C298.854,170,299.618,170,300.382,170C301.146,170,301.911,170,302.675,170C303.439,170,304.204,170,304.968,170C305.732,170,306.497,170,307.261,170C308.025,170,308.79,170,309.554,170C310.318,170,311.083,170,311.847,170C312.611,170,313.376,170,314.14,170C314.904,170,315.669,170,316.433,170C317.197,170,317.962,170,318.726,170C319.49,170,320.255,170,321.019,170C321.783,170,322.548,170,323.312,170C324.076,170,324.841,170,325.605,170C326.369,170,327.134,170,327.898,170C328.662,170,329.427,170,330.191,170C330.955,170,331.72,170,332.484,170C333.248,170,334.013,170,334.777,170C335.541,170,336.306,170,337.07,170C337.834,170,338.599,170,339.363,170C340.127,170,340.892,170,341.656,170C342.42,170,343.185,170,343.949,170C344.713,170,345.478,170,346.242,170C347.006,170,347.771,170,348.535,170C349.299,170,350.064,170,350.828,170C351.592,170,352.357,170,353.121,170C353.885,170,354.65,170,355.414,170C356.178,170,356.943,170,357.707,170C358.471,170,359.236,170,360,170C360.764,170,361.529,170,362.293,170C363.057,170,363.822,170,364.586,170C365.35,170,366.115,170,366.879,170C367.643,170,368.408,170,369.172,170C369.936,170,370.701,170,371.465,170C372.229,170,372.994,170,373.758,170C374.522,170,375.287,170,376.051,170C376.815,170,377.58,170,378.344,170C379.108,170,379.873,170,380.637,170C381.401,170,382.166,170,382.93,170C383.694,170,384.459,170,385.223,170C385.987,170,386.752,170,387.516,170C388.28,170,389.045,170,389.809,170C390.573,170,391.338,170,392.102,170C392.866,170,393.631,170,394.395,170C395.159,170,395.924,170,396.688,170C397.452,170,398.217,170,398.981,170C399.745,170,400.51,170,401.274,170C402.038,170,402.803,170,403.567,170C404.331,170,405.096,170,405.86,170C406.624,170,407.389,170,408.153,170C408.917,170,409.682,170,410.446,170C411.21,170,411.975,170,412.739,170C413.503,170,414.268,170,415.032,170C415.796,170,416.561,170,417.325,170C418.089,170,418.854,170,419.618,170C420.382,170,421.146,170,421.911,170C422.675,170,423.439,170,424.204,170C424.968,170,425.732,170,426.497,170C427.261,170,428.025,170,428.79,170C429.554,170,430.318,170,431.083,170C431.847,170,432.611,170,433.376,170C434.14,170,434.904,170,435.669,170C436.433,170,437.197,170,437.962,170C438.726,170,439.49,170,440.255,170C441.019,170,441.783,170,442.548,170C443.312,170,444.076,170,444.841,170C445.605,170,446.369,170,447.134,170C447.898,170,448.662,170,449.427,170C450.191,170,450.955,170,451.72,170C452.484,170,453.248,170,454.013,170C454.777,170,455.541,170,456.306,170C457.07,170,457.834,170,458.599,170C459.363,170,460.127,170,460.892,170C461.656,170,462.42,170,463.185,170C463.949,170,464.713,170,465.478,170C466.242,170,467.006,170,467.771,170C468.535,170,469.299,170,470.064,170C470.828,170,471.592,170,472.357,170C473.121,170,473.885,170,474.65,170C475.414,170,476.178,170,476.943,170C477.707,170,478.471,170,479.236,170C480,170,480.764,170,481.529,170C482.293,170,483.057,170,483.822,170C484.586,170,485.35,170,486.115,170C486.879,170,487.643,170,488.408,170C489.172,170,489.936,170,490.701,170C491.465,170,492.229,170,492.994,170C493.758,170,494.522,170,495.287,170C496.051,170,496.815,170,497.58,170C498.344,170,499.108,170,499.873,170C500.637,170,501.401,170,502.166,170C502.93,170,503.694,170,504.459,170C505.223,170,505.987,170,506.752,170C507.516,170,508.28,170,509.045,170C509.809,170,510.573,170,511.338,170C512.102,170,512.866,170,513.631,170C514.395,170,515.159,170,515.924,170C516.688,170,517.452,170,518.217,170C518.981,170,519.745,170,520.51,170C521.274,170,522.038,170,522.803,170C523.567,170,524.331,170,525.096,170C525.86,170,526.624,170,527.389,170C528.153,170,528.917,170,529.682,170C530.446,170,531.21,170,531.975,170C532.739,170,533.503,170,534.268,170C535.032,170,535.796,170,536.561,170C537.325,170,538.089,170,538.854,170C539.618,170,540.382,170,541.146,170C541.911,170,542.675,170,543.439,170C544.204,170,544.968,170,545.732,170C546.497,170,547.261,170,548.025,170C548.79,170,549.554,170,550.318,170C551.083,170,551.847,170,552.611,170C553.376,170,554.14,170,554.904,170C555.669,170,556.433,170,557.197,170C557.962,170,558.726,170,559.49,170C560.255,170,561.019,170,561.783,170C562.548,170,563.312,170,564.076,170C564.841,170,565.605,170,566.369,170C567.134,170,567.898,170,568.662,170C569.427,170,570.191,170,570.955,170C571.72,170,572.484,170,573.248,170C574.013,170,574.777,170,575.541,170C576.306,170,577.07,170,577.834,170C578.599,170,579.363,170,580.127,170C580.892,170,581.656,170,582.42,170C583.185,170,583.949,170,584.713,170C585.478,170,586.242,170,587.006,170C587.771,170,588.535,170,589.299,170C590.064,170,590.828,170,591.592,170C592.357,170,593.121,170,593.885,170C594.65,170,595.414,170,596.178,170C596.943,170,597.707,170,598.471,170C599.236,170,600,170,600.764,170C601.529,170,602.293,170,603.057,170C603.822,170,604.586,170,605.35,170C606.115,170,606.879,170,607.643,170C608.408,170,609.172,170,609.936,170C610.701,170,611.465,170,612.229,170C612.994,170,613.758,170,614.522,170C615.287,170,616.051,170,616.815,170C617.58,170,618.344,170,619.108,170C619.873,170,620.637,170,621.401,170C622.166,170,622.93,170,623.694,170C624.459,170,625.223,170,625.987,170C626.752,170,627.516,170,628.28,170C629.045,170,629.809,170,630.573,170C631.338,170,632.102,170,632.866,170C633.631,170,634.395,170,635.159,170C635.924,170,636.688,170,637.452,170C638.217,170,638.981,170,639.745,170C640.51,170,641.274,170,642.038,170C642.803,170,643.567,170,644.331,170C645.096,170,645.86,170,646.624,170C647.389,170,648.153,170,648.917,170C649.682,170,650.446,170,651.21,170C651.975,170,652.739,170,653.503,170C654.268,170,655.032,170,655.796,170C656.561,170,657.325,170,658.089,170C658.854,170,659.618,170,660.382,170C661.146,170,661.911,170,662.675,170C663.439,170,664.204,170,664.968,170C665.732,170,666.497,170,667.261,170C668.025,170,668.79,170,669.554,170C670.318,170,671.083,170,671.847,170C672.611,170,673.376,170,674.14,170C674.904,170,675.669,170,676.433,170C677.197,170,677.962,170,678.726,170C679.49,170,680.255,170,681.019,170C681.783,170,682.548,170,683.312,170C684.076,170,684.841,170,685.605,170C686.369,170,687.134,170,687.898,170C688.662,170,689.427,170,690.191,170C690.955,170,691.72,170,692.484,170C693.248,170,694.013,170,694.777,170C695.541,170,696.306,170,697.07,170C697.834,170,698.599,170,699.363,170C700.127,170,700.892,170,701.656,170C702.42,170,703.185,170,703.949,170C704.713,170,705.478,170,706.242,170C707.006,170,707.771,170,708.535,170C709.299,170,710.064,170,710.828,170C711.592,170,712.357,170,713.121,170C713.885,170,714.65,170,715.414,170C716.178,170,716.943,170,717.707,170C718.471,170,719.236,170,720,170"></path><circle class="dot" cx="0" cy="170" r="3" fill="#2563eb"></circle><circle class="dot" cx="2.2929936305732483" cy="170" r="3" fill="#2563eb"></circle><circle class="dot" cx="4.585987261146497" cy="170" r="3" fill="#2563eb"></circle><circle class="dot" cx="6.878980891719745" cy="170" r="3" fill="#2563eb"></circle><circle class="dot" cx="9.171974522292993" cy="170" r="3" fill="#2563eb"></circle><circle class="dot" cx="11.464968152866241" cy="170" r="3" fill="#2563eb"></circle><circle class="dot" cx="13.75796178343949" cy="170" r="3" fill="#2563eb"></circle><circle class="dot" cx="16.050955414012737" cy="170" r="3" fill="#2563eb"></circle><circle class="dot" cx="18.343949044585987" cy="170" r="3" fill="#2563eb"></circle><circle class="dot" cx="20.636942675159236" cy="170" r="3" fill="#2563eb"></circle><circle class="dot" cx="22.929936305732483" cy="170" r="3" fill="#2563eb"></circle><circle class="dot" cx="25.222929936305732" cy="170" r="3" fill="#2563eb"></circle><circle class="dot" cx="27.51592356687898" cy="170" r="3" fill="#2563eb"></circle><circle class="dot" cx="29.808917197452228" cy="170" r="3" fill="#2563eb"></circle><circle class="dot" cx="32.101910828025474" cy="170" r="3" fill="#2563eb"></circle><circle class="dot" cx="34.39490445859873" cy="170" r="3" fill="#2563eb"></circle><circle class="dot" cx="36.68789808917197" cy="170" r="3" fill="#2563eb"></circle><circle class="dot" cx="38.98089171974522" cy="170" r="3" fill="#2563eb"></circle><circle class="dot" cx="41.27388535031847" cy="170" r="3" fill="#2563eb"></circle><circle class="dot" cx="43.56687898089172" cy="170" r="3" fill="#2563eb"></circle><circle class="dot" cx="45.859872611464965" cy="170" r="3" fill="#2563eb"></circle><circle class="dot" cx="48.152866242038215" cy="170" r="3" fill="#2563eb"></circle><circle class="dot" cx="50.445859872611464" cy="170" r="3" fill="#2563eb"></circle><circle class="dot" cx="52.738853503184714" cy="170" r="3" fill="#2563eb"></circle><circle class="dot" cx="55.03184713375796" cy="170" r="3" fill="#2563eb"></circle><circle class="dot" cx="57.324840764331206" cy="170" r="3" fill="#2563eb"></circle><circle class="dot" cx="59.617834394904456" cy="170" r="3" fill="#2563eb"></circle><circle class="dot" cx="61.910828025477706" cy="170" r="3" fill="#2563eb"></circle><circle class="dot" cx="64.20382165605095" cy="170" r="3" fill="#2563eb"></circle><circle class="dot" cx="66.4968152866242" cy="170" r="3" fill="#2563eb"></circle><circle class="dot" cx="68.78980891719746" cy="170" r="3" fill="#2563eb"></circle><circle class="dot" cx="71.08280254777071" cy="170" r="3" fill="#2563eb"></circle><circle class="dot" cx="73.37579617834395" cy="170" r="3" fill="#2563eb"></circle><circle class="dot" cx="75.6687898089172" cy="170" r="3" fill="#2563eb"></circle><circle class="dot" cx="77.96178343949045" cy="170" r="3" fill="#2563eb"></circle><circle class="dot" cx="80.2547770700637" cy="170" r="3" fill="#2563eb"></circle><circle class="dot" cx="82.54777070063695" cy="170" r="3" fill="#2563eb"></circle><circle class="dot" cx="84.8407643312102" cy="170" r="3" fill="#2563eb"></circle><circle class="dot" cx="87.13375796178345" cy="170" r="3" fill="#2563eb"></circle><circle class="dot" cx="89.4267515923567" cy="170" r="3" fill="#2563eb"></circle><circle class="dot" cx="91.71974522292993" cy="170" r="3" fill="#2563eb"></circle><circle class="dot" cx="94.01273885350318" cy="170" r="3" fill="#2563eb"></circle><circle class="dot" cx="96.30573248407643" cy="170" r="3" fill="#2563eb"></circle><circle class="dot" cx="98.59872611464968" cy="170" r="3" fill="#2563eb"></circle><circle class="dot" cx="100.89171974522293" cy="170" r="3" fill="#2563eb"></circle><circle class="dot" cx="103.18471337579618" cy="170" r="3" fill="#2563eb"></circle><circle class="dot" cx="105.47770700636943" cy="170" r="3" fill="#2563eb"></circle><circle class="dot" cx="107.77070063694268" cy="170" r="3" fill="#2563eb"></circle><circle class="dot" cx="110.06369426751591" cy="170" r="3" fill="#2563eb"></circle><circle class="dot" cx="112.35668789808916" cy="170" r="3" fill="#2563eb"></circle><circle class="dot" cx="114.64968152866241" cy="170" r="3" fill="#2563eb"></circle><circle class="dot" cx="116.94267515923566" cy="170" r="3" fill="#2563eb"></circle><circle class="dot" cx="119.23566878980891" cy="170" r="3" fill="#2563eb"></circle><circle class="dot" cx="121.52866242038216" cy="170" r="3" fill="#2563eb"></circle><circle class="dot" cx="123.82165605095541" cy="170" r="3" fill="#2563eb"></circle><circle class="dot" cx="126.11464968152866" cy="170" r="3" fill="#2563eb"></circle><circle class="dot" cx="128.4076433121019" cy="170" r="3" fill="#2563eb"></circle><circle class="dot" cx="130.70063694267515" cy="170" r="3" fill="#2563eb"></circle><circle class="dot" cx="132.9936305732484" cy="170" r="3" fill="#2563eb"></circle><circle class="dot" cx="135.28662420382167" cy="170" r="3" fill="#2563eb"></circle><circle class="dot" cx="137.57961783439492" cy="170" r="3" fill="#2563eb"></circle><circle class="dot" cx="139.87261146496817" cy="170" r="3" fill="#2563eb"></circle><circle class="dot" cx="142.16560509554142" cy="170" r="3" fill="#2563eb"></circle><circle class="dot" cx="144.45859872611464" cy="170" r="3" fill="#2563eb"></circle><circle class="dot" cx="146.7515923566879" cy="170" r="3" fill="#2563eb"></circle><circle class="dot" cx="149.04458598726114" cy="170" r="3" fill="#2563eb"></circle><circle class="dot" cx="151.3375796178344" cy="170" r="3" fill="#2563eb"></circle><circle class="dot" cx="153.63057324840764" cy="170" r="3" fill="#2563eb"></circle><circle class="dot" cx="155.9235668789809" cy="170" r="3" fill="#2563eb"></circle><circle class="dot" cx="158.21656050955414" cy="170" r="3" fill="#2563eb"></circle><circle class="dot" cx="160.5095541401274" cy="170" r="3" fill="#2563eb"></circle><circle class="dot" cx="162.80254777070064" cy="170" r="3" fill="#2563eb"></circle><circle class="dot" cx="165.0955414012739" cy="170" r="3" fill="#2563eb"></circle><circle class="dot" cx="167.38853503184714" cy="170" r="3" fill="#2563eb"></circle><circle class="dot" cx="169.6815286624204" cy="170" r="3" fill="#2563eb"></circle><circle class="dot" cx="171.97452229299364" cy="170" r="3" fill="#2563eb"></circle><circle class="dot" cx="174.2675159235669" cy="170" r="3" fill="#2563eb"></circle><circle class="dot" cx="176.56050955414014" cy="170" r="3" fill="#2563eb"></circle><circle class="dot" cx="178.8535031847134" cy="170" r="3" fill="#2563eb"></circle><circle class="dot" cx="181.1464968152866" cy="170" r="3" fill="#2563eb"></circle><circle class="dot" cx="183.43949044585986" cy="170" r="3" fill="#2563eb"></circle><circle class="dot" cx="185.7324840764331" cy="170" r="3" fill="#2563eb"></circle><circle class="dot" cx="188.02547770700636" cy="170" r="3" fill="#2563eb"></circle><circle class="dot" cx="190.3184713375796" cy="170" r="3" fill="#2563eb"></circle><circle class="dot" cx="192.61146496815286" cy="170" r="3" fill="#2563eb"></circle><circle class="dot" cx="194.9044585987261" cy="170" r="3" fill="#2563eb"></circle><circle class="dot" cx="197.19745222929936" cy="170" r="3" fill="#2563eb"></circle><circle class="dot" cx="199.4904458598726" cy="170" r="3" fill="#2563eb"></circle><circle class="dot" cx="201.78343949044586" cy="170" r="3" fill="#2563eb"></circle><circle class="dot" cx="204.0764331210191" cy="170" r="3" fill="#2563eb"></circle><circle class="dot" cx="206.36942675159236" cy="170" r="3" fill="#2563eb"></circle><circle class="dot" cx="208.6624203821656" cy="170" r="3" fill="#2563eb"></circle><circle class="dot" cx="210.95541401273886" cy="170" r="3" fill="#2563eb"></circle><circle class="dot" cx="213.2484076433121" cy="170" r="3" fill="#2563eb"></circle><circle class="dot" cx="215.54140127388536" cy="170" r="3" fill="#2563eb"></circle><circle class="dot" cx="217.83439490445858" cy="170" r="3" fill="#2563eb"></circle><circle class="dot" cx="220.12738853503183" cy="170" r="3" fill="#2563eb"></circle><circle class="dot" cx="222.42038216560508" cy="170" r="3" fill="#2563eb"></circle><circle class="dot" cx="224.71337579617833" cy="170" r="3" fill="#2563eb"></circle><circle class="dot" cx="227.00636942675158" cy="170" r="3" fill="#2563eb"></circle><circle class="dot" cx="229.29936305732483" cy="170" r="3" fill="#2563eb"></circle><circle class="dot" cx="231.59235668789808" cy="170" r="3" fill="#2563eb"></circle><circle class="dot" cx="233.88535031847132" cy="170" r="3" fill="#2563eb"></circle><circle class="dot" cx="236.17834394904457" cy="170" r="3" fill="#2563eb"></circle><circle class="dot" cx="238.47133757961782" cy="170" r="3" fill="#2563eb"></circle><circle class="dot" cx="240.76433121019107" cy="170" r="3" fill="#2563eb"></circle><circle class="dot" cx="243.05732484076432" cy="170" r="3" fill="#2563eb"></circle><circle class="dot" cx="245.35031847133757" cy="170" r="3" fill="#2563eb"></circle><circle class="dot" cx="247.64331210191082" cy="170" r="3" fill="#2563eb"></circle><circle class="dot" cx="249.93630573248407" cy="170" r="3" fill="#2563eb"></circle><circle class="dot" cx="252.22929936305732" cy="170" r="3" fill="#2563eb"></circle><circle class="dot" cx="254.52229299363054" cy="170" r="3" fill="#2563eb"></circle><circle class="dot" cx="256.8152866242038" cy="170" r="3" fill="#2563eb"></circle><circle class="dot" cx="259.10828025477707" cy="170" r="3" fill="#2563eb"></circle><circle class="dot" cx="261.4012738853503" cy="170" r="3" fill="#2563eb"></circle><circle class="dot" cx="263.69426751592357" cy="170" r="3" fill="#2563eb"></circle><circle class="dot" cx="265.9872611464968" cy="170" r="3" fill="#2563eb"></circle><circle class="dot" cx="268.28025477707007" cy="170" r="3" fill="#2563eb"></circle><circle class="dot" cx="270.57324840764335" cy="170" r="3" fill="#2563eb"></circle><circle class="dot" cx="272.86624203821657" cy="170" r="3" fill="#2563eb"></circle><circle class="dot" cx="275.15923566878985" cy="170" r="3" fill="#2563eb"></circle><circle class="dot" cx="277.45222929936307" cy="170" r="3" fill="#2563eb"></circle><circle class="dot" cx="279.74522292993635" cy="170" r="3" fill="#2563eb"></circle><circle class="dot" cx="282.03821656050957" cy="170" r="3" fill="#2563eb"></circle><circle class="dot" cx="284.33121019108285" cy="170" r="3" fill="#2563eb"></circle><circle class="dot" cx="286.62420382165607" cy="170" r="3" fill="#2563eb"></circle><circle class="dot" cx="288.9171974522293" cy="170" r="3" fill="#2563eb"></circle><circle class="dot" cx="291.21019108280257" cy="170" r="3" fill="#2563eb"></circle><circle class="dot" cx="293.5031847133758" cy="170" r="3" fill="#2563eb"></circle><circle class="dot" cx="295.79617834394907" cy="170" r="3" fill="#2563eb"></circle><circle class="dot" cx="298.0891719745223" cy="170" r="3" fill="#2563eb"></circle><circle class="dot" cx="300.38216560509557" cy="170" r="3" fill="#2563eb"></circle><circle class="dot" cx="302.6751592356688" cy="170" r="3" fill="#2563eb"></circle><circle class="dot" cx="304.96815286624206" cy="170" r="3" fill="#2563eb"></circle><circle class="dot" cx="307.2611464968153" cy="170" r="3" fill="#2563eb"></circle><circle class="dot" cx="309.55414012738856" cy="170" r="3" fill="#2563eb"></circle><circle class="dot" cx="311.8471337579618" cy="170" r="3" fill="#2563eb"></circle><circle class="dot" cx="314.14012738853506" cy="170" r="3" fill="#2563eb"></circle><circle class="dot" cx="316.4331210191083" cy="170" r="3" fill="#2563eb"></circle><circle class="dot" cx="318.72611464968156" cy="170" r="3" fill="#2563eb"></circle><circle class="dot" cx="321.0191082802548" cy="170" r="3" fill="#2563eb"></circle><circle class="dot" cx="323.312101910828" cy="170" r="3" fill="#2563eb"></circle><circle class="dot" cx="325.6050955414013" cy="170" r="3" fill="#2563eb"></circle><circle class="dot" cx="327.8980891719745" cy="170" r="3" fill="#2563eb"></circle><circle class="dot" cx="330.1910828025478" cy="170" r="3" fill="#2563eb"></circle><circle class="dot" cx="332.484076433121" cy="170" r="3" fill="#2563eb"></circle><circle class="dot" cx="334.7770700636943" cy="170" r="3" fill="#2563eb"></circle><circle class="dot" cx="337.0700636942675" cy="170" r="3" fill="#2563eb"></circle><circle class="dot" cx="339.3630573248408" cy="170" r="3" fill="#2563eb"></circle><circle class="dot" cx="341.656050955414" cy="170" r="3" fill="#2563eb"></circle><circle class="dot" cx="343.9490445859873" cy="170" r="3" fill="#2563eb"></circle><circle class="dot" cx="346.2420382165605" cy="170" r="3" fill="#2563eb"></circle><circle class="dot" cx="348.5350318471338" cy="170" r="3" fill="#2563eb"></circle><circle class="dot" cx="350.828025477707" cy="170" r="3" fill="#2563eb"></circle><circle class="dot" cx="353.1210191082803" cy="170" r="3" fill="#2563eb"></circle><circle class="dot" cx="355.4140127388535" cy="170" r="3" fill="#2563eb"></circle><circle class="dot" cx="357.7070063694268" cy="170" r="3" fill="#2563eb"></circle><circle class="dot" cx="360" cy="170" r="3" fill="#2563eb"></circle><circle class="dot" cx="362.2929936305732" cy="170" r="3" fill="#2563eb"></circle><circle class="dot" cx="364.5859872611465" cy="170" r="3" fill="#2563eb"></circle><circle class="dot" cx="366.8789808917197" cy="170" r="3" fill="#2563eb"></circle><circle class="dot" cx="369.171974522293" cy="170" r="3" fill="#2563eb"></circle><circle class="dot" cx="371.4649681528662" cy="170" r="3" fill="#2563eb"></circle><circle class="dot" cx="373.7579617834395" cy="170" r="3" fill="#2563eb"></circle><circle class="dot" cx="376.0509554140127" cy="170" r="3" fill="#2563eb"></circle><circle class="dot" cx="378.343949044586" cy="170" r="3" fill="#2563eb"></circle><circle class="dot" cx="380.6369426751592" cy="170" r="3" fill="#2563eb"></circle><circle class="dot" cx="382.9299363057325" cy="170" r="3" fill="#2563eb"></circle><circle class="dot" cx="385.2229299363057" cy="170" r="3" fill="#2563eb"></circle><circle class="dot" cx="387.515923566879" cy="170" r="3" fill="#2563eb"></circle><circle class="dot" cx="389.8089171974522" cy="170" r="3" fill="#2563eb"></circle><circle class="dot" cx="392.1019108280255" cy="170" r="3" fill="#2563eb"></circle><circle class="dot" cx="394.3949044585987" cy="170" r="3" fill="#2563eb"></circle><circle class="dot" cx="396.687898089172" cy="170" r="3" fill="#2563eb"></circle><circle class="dot" cx="398.9808917197452" cy="170" r="3" fill="#2563eb"></circle><circle class="dot" cx="401.27388535031844" cy="170" r="3" fill="#2563eb"></circle><circle class="dot" cx="403.5668789808917" cy="170" r="3" fill="#2563eb"></circle><circle class="dot" cx="405.85987261146494" cy="170" r="3" fill="#2563eb"></circle><circle class="dot" cx="408.1528662420382" cy="170" r="3" fill="#2563eb"></circle><circle class="dot" cx="410.44585987261144" cy="170" r="3" fill="#2563eb"></circle><circle class="dot" cx="412.7388535031847" cy="170" r="3" fill="#2563eb"></circle><circle class="dot" cx="415.03184713375794" cy="170" r="3" fill="#2563eb"></circle><circle class="dot" cx="417.3248407643312" cy="170" r="3" fill="#2563eb"></circle><circle class="dot" cx="419.61783439490443" cy="170" r="3" fill="#2563eb"></circle><circle class="dot" cx="421.9108280254777" cy="170" r="3" fill="#2563eb"></circle><circle class="dot" cx="424.20382165605093" cy="170" r="3" fill="#2563eb"></circle><circle class="dot" cx="426.4968152866242" cy="170" r="3" fill="#2563eb"></circle><circle class="dot" cx="428.78980891719743" cy="170" r="3" fill="#2563eb"></circle><circle class="dot" cx="431.0828025477707" cy="170" r="3" fill="#2563eb"></circle><circle class="dot" cx="433.37579617834393" cy="170" r="3" fill="#2563eb"></circle><circle class="dot" cx="435.66878980891715" cy="170" r="3" fill="#2563eb"></circle><circle class="dot" cx="437.96178343949043" cy="170" r="3" fill="#2563eb"></circle><circle class="dot" cx="440.25477707006365" cy="170" r="3" fill="#2563eb"></circle><circle class="dot" cx="442.54777070063693" cy="170" r="3" fill="#2563eb"></circle><circle class="dot" cx="444.84076433121015" cy="170" r="3" fill="#2563eb"></circle><circle class="dot" cx="447.13375796178343" cy="170" r="3" fill="#2563eb"></circle><circle class="dot" cx="449.42675159235665" cy="170" r="3" fill="#2563eb"></circle><circle class="dot" cx="451.71974522292993" cy="170" r="3" fill="#2563eb"></circle><circle class="dot" cx="454.01273885350315" cy="170" r="3" fill="#2563eb"></circle><circle class="dot" cx="456.30573248407643" cy="170" r="3" fill="#2563eb"></circle><circle class="dot" cx="458.59872611464965" cy="170" r="3" fill="#2563eb"></circle><circle class="dot" cx="460.89171974522293" cy="170" r="3" fill="#2563eb"></circle><circle class="dot" cx="463.18471337579615" cy="170" r="3" fill="#2563eb"></circle><circle class="dot" cx="465.4777070063694" cy="170" r="3" fill="#2563eb"></circle><circle class="dot" cx="467.77070063694265" cy="170" r="3" fill="#2563eb"></circle><circle class="dot" cx="470.06369426751587" cy="170" r="3" fill="#2563eb"></circle><circle class="dot" cx="472.35668789808915" cy="170" r="3" fill="#2563eb"></circle><circle class="dot" cx="474.64968152866237" cy="170" r="3" fill="#2563eb"></circle><circle class="dot" cx="476.94267515923565" cy="170" r="3" fill="#2563eb"></circle><circle class="dot" cx="479.23566878980887" cy="170" r="3" fill="#2563eb"></circle><circle class="dot" cx="481.52866242038215" cy="170" r="3" fill="#2563eb"></circle><circle class="dot" cx="483.82165605095537" cy="170" r="3" fill="#2563eb"></circle><circle class="dot" cx="486.11464968152865" cy="170" r="3" fill="#2563eb"></circle><circle class="dot" cx="488.40764331210187" cy="170" r="3" fill="#2563eb"></circle><circle class="dot" cx="490.70063694267515" cy="170" r="3" fill="#2563eb"></circle><circle class="dot" cx="492.99363057324837" cy="170" r="3" fill="#2563eb"></circle><circle class="dot" cx="495.28662420382165" cy="170" r="3" fill="#2563eb"></circle><circle class="dot" cx="497.57961783439487" cy="170" r="3" fill="#2563eb"></circle><circle class="dot" cx="499.87261146496814" cy="170" r="3" fill="#2563eb"></circle><circle class="dot" cx="502.16560509554137" cy="170" r="3" fill="#2563eb"></circle><circle class="dot" cx="504.45859872611464" cy="170" r="3" fill="#2563eb"></circle><circle class="dot" cx="506.75159235668787" cy="170" r="3" fill="#2563eb"></circle><circle class="dot" cx="509.0445859872611" cy="170" r="3" fill="#2563eb"></circle><circle class="dot" cx="511.33757961783436" cy="170" r="3" fill="#2563eb"></circle><circle class="dot" cx="513.6305732484076" cy="170" r="3" fill="#2563eb"></circle><circle class="dot" cx="515.9235668789809" cy="170" r="3" fill="#2563eb"></circle><circle class="dot" cx="518.2165605095541" cy="170" r="3" fill="#2563eb"></circle><circle class="dot" cx="520.5095541401273" cy="170" r="3" fill="#2563eb"></circle><circle class="dot" cx="522.8025477707006" cy="170" r="3" fill="#2563eb"></circle><circle class="dot" cx="525.0955414012739" cy="170" r="3" fill="#2563eb"></circle><circle class="dot" cx="527.3885350318471" cy="170" r="3" fill="#2563eb"></circle><circle class="dot" cx="529.6815286624203" cy="170" r="3" fill="#2563eb"></circle><circle class="dot" cx="531.9745222929936" cy="170" r="3" fill="#2563eb"></circle><circle class="dot" cx="534.2675159235669" cy="170" r="3" fill="#2563eb"></circle><circle class="dot" cx="536.5605095541401" cy="170" r="3" fill="#2563eb"></circle><circle class="dot" cx="538.8535031847133" cy="170" r="3" fill="#2563eb"></circle><circle class="dot" cx="541.1464968152867" cy="170" r="3" fill="#2563eb"></circle><circle class="dot" cx="543.4394904458599" cy="170" r="3" fill="#2563eb"></circle><circle class="dot" cx="545.7324840764331" cy="170" r="3" fill="#2563eb"></circle><circle class="dot" cx="548.0254777070064" cy="170" r="3" fill="#2563eb"></circle><circle class="dot" cx="550.3184713375797" cy="170" r="3" fill="#2563eb"></circle><circle class="dot" cx="552.6114649681529" cy="170" r="3" fill="#2563eb"></circle><circle class="dot" cx="554.9044585987261" cy="170" r="3" fill="#2563eb"></circle><circle class="dot" cx="557.1974522292994" cy="170" r="3" fill="#2563eb"></circle><circle class="dot" cx="559.4904458598727" cy="170" r="3" fill="#2563eb"></circle><circle class="dot" cx="561.7834394904459" cy="170" r="3" fill="#2563eb"></circle><circle class="dot" cx="564.0764331210191" cy="170" r="3" fill="#2563eb"></circle><circle class="dot" cx="566.3694267515924" cy="170" r="3" fill="#2563eb"></circle><circle class="dot" cx="568.6624203821657" cy="170" r="3" fill="#2563eb"></circle><circle class="dot" cx="570.9554140127389" cy="170" r="3" fill="#2563eb"></circle><circle class="dot" cx="573.2484076433121" cy="170" r="3" fill="#2563eb"></circle><circle class="dot" cx="575.5414012738854" cy="170" r="3" fill="#2563eb"></circle><circle class="dot" cx="577.8343949044586" cy="170" r="3" fill="#2563eb"></circle><circle class="dot" cx="580.1273885350319" cy="170" r="3" fill="#2563eb"></circle><circle class="dot" cx="582.4203821656051" cy="170" r="3" fill="#2563eb"></circle><circle class="dot" cx="584.7133757961784" cy="170" r="3" fill="#2563eb"></circle><circle class="dot" cx="587.0063694267516" cy="170" r="3" fill="#2563eb"></circle><circle class="dot" cx="589.2993630573249" cy="170" r="3" fill="#2563eb"></circle><circle class="dot" cx="591.5923566878981" cy="170" r="3" fill="#2563eb"></circle><circle class="dot" cx="593.8853503184714" cy="170" r="3" fill="#2563eb"></circle><circle class="dot" cx="596.1783439490446" cy="170" r="3" fill="#2563eb"></circle><circle class="dot" cx="598.4713375796179" cy="170" r="3" fill="#2563eb"></circle><circle class="dot" cx="600.7643312101911" cy="170" r="3" fill="#2563eb"></circle><circle class="dot" cx="603.0573248407644" cy="170" r="3" fill="#2563eb"></circle><circle class="dot" cx="605.3503184713376" cy="170" r="3" fill="#2563eb"></circle><circle class="dot" cx="607.6433121019109" cy="170" r="3" fill="#2563eb"></circle><circle class="dot" cx="609.9363057324841" cy="170" r="3" fill="#2563eb"></circle><circle class="dot" cx="612.2292993630573" cy="170" r="3" fill="#2563eb"></circle><circle class="dot" cx="614.5222929936306" cy="170" r="3" fill="#2563eb"></circle><circle class="dot" cx="616.8152866242038" cy="170" r="3" fill="#2563eb"></circle><circle class="dot" cx="619.1082802547771" cy="170" r="3" fill="#2563eb"></circle><circle class="dot" cx="621.4012738853503" cy="170" r="3" fill="#2563eb"></circle><circle class="dot" cx="623.6942675159236" cy="170" r="3" fill="#2563eb"></circle><circle class="dot" cx="625.9872611464968" cy="170" r="3" fill="#2563eb"></circle><circle class="dot" cx="628.2802547770701" cy="170" r="3" fill="#2563eb"></circle><circle class="dot" cx="630.5732484076433" cy="170" r="3" fill="#2563eb"></circle><circle class="dot" cx="632.8662420382166" cy="170" r="3" fill="#2563eb"></circle><circle class="dot" cx="635.1592356687898" cy="170" r="3" fill="#2563eb"></circle><circle class="dot" cx="637.4522292993631" cy="170" r="3" fill="#2563eb"></circle><circle class="dot" cx="639.7452229299363" cy="170" r="3" fill="#2563eb"></circle><circle class="dot" cx="642.0382165605096" cy="170" r="3" fill="#2563eb"></circle><circle class="dot" cx="644.3312101910828" cy="170" r="3" fill="#2563eb"></circle><circle class="dot" cx="646.624203821656" cy="170" r="3" fill="#2563eb"></circle><circle class="dot" cx="648.9171974522293" cy="170" r="3" fill="#2563eb"></circle><circle class="dot" cx="651.2101910828026" cy="170" r="3" fill="#2563eb"></circle><circle class="dot" cx="653.5031847133758" cy="170" r="3" fill="#2563eb"></circle><circle class="dot" cx="655.796178343949" cy="170" r="3" fill="#2563eb"></circle><circle class="dot" cx="658.0891719745223" cy="170" r="3" fill="#2563eb"></circle><circle class="dot" cx="660.3821656050956" cy="170" r="3" fill="#2563eb"></circle><circle class="dot" cx="662.6751592356688" cy="170" r="3" fill="#2563eb"></circle><circle class="dot" cx="664.968152866242" cy="170" r="3" fill="#2563eb"></circle><circle class="dot" cx="667.2611464968153" cy="170" r="3" fill="#2563eb"></circle><circle class="dot" cx="669.5541401273886" cy="170" r="3" fill="#2563eb"></circle><circle class="dot" cx="671.8471337579618" cy="170" r="3" fill="#2563eb"></circle><circle class="dot" cx="674.140127388535" cy="170" r="3" fill="#2563eb"></circle><circle class="dot" cx="676.4331210191083" cy="170" r="3" fill="#2563eb"></circle><circle class="dot" cx="678.7261146496816" cy="170" r="3" fill="#2563eb"></circle><circle class="dot" cx="681.0191082802548" cy="170" r="3" fill="#2563eb"></circle><circle class="dot" cx="683.312101910828" cy="170" r="3" fill="#2563eb"></circle><circle class="dot" cx="685.6050955414013" cy="170" r="3" fill="#2563eb"></circle><circle class="dot" cx="687.8980891719746" cy="170" r="3" fill="#2563eb"></circle><circle class="dot" cx="690.1910828025477" cy="170" r="3" fill="#2563eb"></circle><circle class="dot" cx="692.484076433121" cy="170" r="3" fill="#2563eb"></circle><circle class="dot" cx="694.7770700636943" cy="170" r="3" fill="#2563eb"></circle><circle class="dot" cx="697.0700636942676" cy="170" r="3" fill="#2563eb"></circle><circle class="dot" cx="699.3630573248407" cy="170" r="3" fill="#2563eb"></circle><circle class="dot" cx="701.656050955414" cy="170" r="3" fill="#2563eb"></circle><circle class="dot" cx="703.9490445859873" cy="170" r="3" fill="#2563eb"></circle><circle class="dot" cx="706.2420382165606" cy="170" r="3" fill="#2563eb"></circle><circle class="dot" cx="708.5350318471337" cy="170" r="3" fill="#2563eb"></circle><circle class="dot" cx="710.828025477707" cy="170" r="3" fill="#2563eb"></circle><circle class="dot" cx="713.1210191082803" cy="170" r="3" fill="#2563eb"></circle><circle class="dot" cx="715.4140127388536" cy="170" r="3" fill="#2563eb"></circle><circle class="dot" cx="717.7070063694267" cy="170" r="3" fill="#2563eb"></circle><circle class="dot" cx="720" cy="170" r="3" fill="#2563eb"></circle><g class="grid" transform="translate(0,340)" fill="none" font-size="10" font-family="sans-serif" text-anchor="middle" style="stroke-dasharray: 3,3; opacity: 0.3;"><path class="domain" stroke="currentColor" d="M0.5,-340V0.5H720.5V-340"></path><g class="tick" opacity="1" transform="translate(0.5,0)"><line stroke="currentColor" y2="-340"></line><text fill="currentColor" y="3" dy="0.71em"></text></g><g class="tick" opacity="1" transform="translate(55.53184713375796,0)"><line stroke="currentColor" y2="-340"></line><text fill="currentColor" y="3" dy="0.71em"></text></g><g class="tick" opacity="1" transform="translate(110.56369426751591,0)"><line stroke="currentColor" y2="-340"></line><text fill="currentColor" y="3" dy="0.71em"></text></g><g class="tick" opacity="1" transform="translate(165.5955414012739,0)"><line stroke="currentColor" y2="-340"></line><text fill="currentColor" y="3" dy="0.71em"></text></g><g class="tick" opacity="1" transform="translate(220.62738853503183,0)"><line stroke="currentColor" y2="-340"></line><text fill="currentColor" y="3" dy="0.71em"></text></g><g class="tick" opacity="1" transform="translate(275.65923566878985,0)"><line stroke="currentColor" y2="-340"></line><text fill="currentColor" y="3" dy="0.71em"></text></g><g class="tick" opacity="1" transform="translate(330.6910828025478,0)"><line stroke="currentColor" y2="-340"></line><text fill="currentColor" y="3" dy="0.71em"></text></g><g class="tick" opacity="1" transform="translate(385.7229299363057,0)"><line stroke="currentColor" y2="-340"></line><text fill="currentColor" y="3" dy="0.71em"></text></g><g class="tick" opacity="1" transform="translate(440.75477707006365,0)"><line stroke="currentColor" y2="-340"></line><text fill="currentColor" y="3" dy="0.71em"></text></g><g class="tick" opacity="1" transform="translate(495.78662420382165,0)"><line stroke="currentColor" y2="-340"></line><text fill="currentColor" y="3" dy="0.71em"></text></g><g class="tick" opacity="1" transform="translate(550.8184713375797,0)"><line stroke="currentColor" y2="-340"></line><text fill="currentColor" y="3" dy="0.71em"></text></g><g class="tick" opacity="1" transform="translate(605.8503184713376,0)"><line stroke="currentColor" y2="-340"></line><text fill="currentColor" y="3" dy="0.71em"></text></g><g class="tick" opacity="1" transform="translate(660.8821656050956,0)"><line stroke="currentColor" y2="-340"></line><text fill="currentColor" y="3" dy="0.71em"></text></g><g class="tick" opacity="1" transform="translate(715.9140127388536,0)"><line stroke="currentColor" y2="-340"></line><text fill="currentColor" y="3" dy="0.71em"></text></g></g><g class="grid" fill="none" font-size="10" font-family="sans-serif" text-anchor="end" style="stroke-dasharray: 3,3; opacity: 0.3;"><path class="domain" stroke="currentColor" d="M720,340.5H0.5V0.5H720"></path><g class="tick" opacity="1" transform="translate(0,170.5)"><line stroke="currentColor" x2="720"></line><text fill="currentColor" x="-3" dy="0.32em"></text></g></g></g><text x="400" y="10" text-anchor="middle" style="font-size: 16px; font-weight: bold; fill: #333;">OKX USDT Lending Rate - Current Month</text></svg>