<svg width="800" height="400" xmlns="http://www.w3.org/2000/svg"><g transform="translate(50,20)"><g transform="translate(0,340)" fill="none" font-size="10" font-family="sans-serif" text-anchor="middle"><path class="domain" stroke="currentColor" d="M0.5,6V0.5H720.5V6"></path><g class="tick" opacity="1" transform="translate(0.5,0)"><line stroke="currentColor" y2="6"></line><text fill="currentColor" y="9" dy=".15em" style="text-anchor: end;" dx="-.8em" transform="rotate(-45)">05/01</text></g><g class="tick" opacity="1" transform="translate(90.5,0)"><line stroke="currentColor" y2="6"></line><text fill="currentColor" y="9" dy=".15em" style="text-anchor: end;" dx="-.8em" transform="rotate(-45)">05/02</text></g><g class="tick" opacity="1" transform="translate(180.5,0)"><line stroke="currentColor" y2="6"></line><text fill="currentColor" y="9" dy=".15em" style="text-anchor: end;" dx="-.8em" transform="rotate(-45)">05/03</text></g><g class="tick" opacity="1" transform="translate(270.5,0)"><line stroke="currentColor" y2="6"></line><text fill="currentColor" y="9" dy=".15em" style="text-anchor: end;" dx="-.8em" transform="rotate(-45)">05/04</text></g><g class="tick" opacity="1" transform="translate(360.5,0)"><line stroke="currentColor" y2="6"></line><text fill="currentColor" y="9" dy=".15em" style="text-anchor: end;" dx="-.8em" transform="rotate(-45)">05/05</text></g><g class="tick" opacity="1" transform="translate(450.5,0)"><line stroke="currentColor" y2="6"></line><text fill="currentColor" y="9" dy=".15em" style="text-anchor: end;" dx="-.8em" transform="rotate(-45)">05/06</text></g><g class="tick" opacity="1" transform="translate(540.5,0)"><line stroke="currentColor" y2="6"></line><text fill="currentColor" y="9" dy=".15em" style="text-anchor: end;" dx="-.8em" transform="rotate(-45)">05/07</text></g><g class="tick" opacity="1" transform="translate(630.5,0)"><line stroke="currentColor" y2="6"></line><text fill="currentColor" y="9" dy=".15em" style="text-anchor: end;" dx="-.8em" transform="rotate(-45)">05/08</text></g><g class="tick" opacity="1" transform="translate(720.5,0)"><line stroke="currentColor" y2="6"></line><text fill="currentColor" y="9" dy=".15em" style="text-anchor: end;" dx="-.8em" transform="rotate(-45)">05/09</text></g></g><g fill="none" font-size="10" font-family="sans-serif" text-anchor="end"><path class="domain" stroke="currentColor" d="M-6,340.5H0.5V0.5H-6"></path><g class="tick" opacity="1" transform="translate(0,170.5)"><line stroke="currentColor" x2="-6"></line><text fill="currentColor" x="-9" dy="0.32em">2.50%</text></g></g><text transform="rotate(-90)" y="-50" x="-170" dy="1em" style="text-anchor: middle; font-size: 12px; fill: #666;">Pre Rate (%)</text><text transform="translate(360, 380)" style="text-anchor: middle; font-size: 12px; fill: #666;">Time (UTC)</text><path fill="none" stroke="#2563eb" stroke-width="2" d="M0,170C1.25,170,2.5,170,3.75,170C5,170,6.25,170,7.5,170C8.75,170,10,170,11.25,170C12.5,170,13.75,170,15,170C16.25,170,17.5,170,18.75,170C20,170,21.25,170,22.5,170C23.75,170,25,170,26.25,170C27.5,170,28.75,170,30,170C31.25,170,32.5,170,33.75,170C35,170,36.25,170,37.5,170C38.75,170,40,170,41.25,170C42.5,170,43.75,170,45,170C46.25,170,47.5,170,48.75,170C50,170,51.25,170,52.5,170C53.75,170,55,170,56.25,170C57.5,170,58.75,170,60,170C61.25,170,62.5,170,63.75,170C65,170,66.25,170,67.5,170C68.75,170,70,170,71.25,170C72.5,170,73.75,170,75,170C76.25,170,77.5,170,78.75,170C80,170,81.25,170,82.5,170C83.75,170,85,170,86.25,170C87.5,170,88.75,170,90,170C91.25,170,92.5,170,93.75,170C95,170,96.25,170,97.5,170C98.75,170,100,170,101.25,170C102.5,170,103.75,170,105,170C106.25,170,107.5,170,108.75,170C110,170,111.25,170,112.5,170C113.75,170,115,170,116.25,170C117.5,170,118.75,170,120,170C121.25,170,122.5,170,123.75,170C125,170,126.25,170,127.5,170C128.75,170,130,170,131.25,170C132.5,170,133.75,170,135,170C136.25,170,137.5,170,138.75,170C140,170,141.25,170,142.5,170C143.75,170,145,170,146.25,170C147.5,170,148.75,170,150,170C151.25,170,152.5,170,153.75,170C155,170,156.25,170,157.5,170C158.75,170,160,170,161.25,170C162.5,170,163.75,170,165,170C166.25,170,167.5,170,168.75,170C170,170,171.25,170,172.5,170C173.75,170,175,170,176.25,170C177.5,170,178.75,170,180,170C181.25,170,182.5,170,183.75,170C185,170,186.25,170,187.5,170C188.75,170,190,170,191.25,170C192.5,170,193.75,170,195,170C196.25,170,197.5,170,198.75,170C200,170,201.25,170,202.5,170C203.75,170,205,170,206.25,170C207.5,170,208.75,170,210,170C211.25,170,212.5,170,213.75,170C215,170,216.25,170,217.5,170C218.75,170,220,170,221.25,170C222.5,170,223.75,170,225,170C226.25,170,227.5,170,228.75,170C230,170,231.25,170,232.5,170C233.75,170,235,170,236.25,170C237.5,170,238.75,170,240,170C241.25,170,242.5,170,243.75,170C245,170,246.25,170,247.5,170C248.75,170,250,170,251.25,170C252.5,170,253.75,170,255,170C256.25,170,257.5,170,258.75,170C260,170,261.25,170,262.5,170C263.75,170,265,170,266.25,170C267.5,170,268.75,170,270,170C271.25,170,272.5,170,273.75,170C275,170,276.25,170,277.5,170C278.75,170,280,170,281.25,170C282.5,170,283.75,170,285,170C286.25,170,287.5,170,288.75,170C290,170,291.25,170,292.5,170C293.75,170,295,170,296.25,170C297.5,170,298.75,170,300,170C301.25,170,302.5,170,303.75,170C305,170,306.25,170,307.5,170C308.75,170,310,170,311.25,170C312.5,170,313.75,170,315,170C316.25,170,317.5,170,318.75,170C320,170,321.25,170,322.5,170C323.75,170,325,170,326.25,170C327.5,170,328.75,170,330,170C331.25,170,332.5,170,333.75,170C335,170,336.25,170,337.5,170C338.75,170,340,170,341.25,170C342.5,170,343.75,170,345,170C346.25,170,347.5,170,348.75,170C350,170,351.25,170,352.5,170C353.75,170,355,170,356.25,170C357.5,170,358.75,170,360,170C361.25,170,362.5,170,363.75,170C365,170,366.25,170,367.5,170C368.75,170,370,170,371.25,170C372.5,170,373.75,170,375,170C376.25,170,377.5,170,378.75,170C380,170,381.25,170,382.5,170C383.75,170,385,170,386.25,170C387.5,170,388.75,170,390,170C391.25,170,392.5,170,393.75,170C395,170,396.25,170,397.5,170C398.75,170,400,170,401.25,170C402.5,170,403.75,170,405,170C406.25,170,407.5,170,408.75,170C410,170,411.25,170,412.5,170C413.75,170,415,170,416.25,170C417.5,170,418.75,170,420,170C421.25,170,422.5,170,423.75,170C425,170,426.25,170,427.5,170C428.75,170,430,170,431.25,170C432.5,170,433.75,170,435,170C436.25,170,437.5,170,438.75,170C440,170,441.25,170,442.5,170C443.75,170,445,170,446.25,170C447.5,170,448.75,170,450,170C451.25,170,452.5,170,453.75,170C455,170,456.25,170,457.5,170C458.75,170,460,170,461.25,170C462.5,170,463.75,170,465,170C466.25,170,467.5,170,468.75,170C470,170,471.25,170,472.5,170C473.75,170,475,170,476.25,170C477.5,170,478.75,170,480,170C481.25,170,482.5,170,483.75,170C485,170,486.25,170,487.5,170C488.75,170,490,170,491.25,170C492.5,170,493.75,170,495,170C496.25,170,497.5,170,498.75,170C500,170,501.25,170,502.5,170C503.75,170,505,170,506.25,170C507.5,170,508.75,170,510,170C511.25,170,512.5,170,513.75,170C515,170,516.25,170,517.5,170C518.75,170,520,170,521.25,170C522.5,170,523.75,170,525,170C526.25,170,527.5,170,528.75,170C530,170,531.25,170,532.5,170C533.75,170,535,170,536.25,170C537.5,170,538.75,170,540,170C541.25,170,542.5,170,543.75,170C545,170,546.25,170,547.5,170C548.75,170,550,170,551.25,170C552.5,170,553.75,170,555,170C556.25,170,557.5,170,558.75,170C560,170,561.25,170,562.5,170C563.75,170,565,170,566.25,170C567.5,170,568.75,170,570,170C571.25,170,572.5,170,573.75,170C575,170,576.25,170,577.5,170C578.75,170,580,170,581.25,170C582.5,170,583.75,170,585,170C586.25,170,587.5,170,588.75,170C590,170,591.25,170,592.5,170C593.75,170,595,170,596.25,170C597.5,170,598.75,170,600,170C601.25,170,602.5,170,603.75,170C605,170,606.25,170,607.5,170C608.75,170,610,170,611.25,170C612.5,170,613.75,170,615,170C616.25,170,617.5,170,618.75,170C620,170,621.25,170,622.5,170C623.75,170,625,170,626.25,170C627.5,170,628.75,170,630,170C631.25,170,632.5,170,633.75,170C635,170,636.25,170,637.5,170C638.75,170,640,170,641.25,170C642.5,170,643.75,170,645,170C646.25,170,647.5,170,648.75,170C650,170,651.25,170,652.5,170C653.75,170,655,170,656.25,170C657.5,170,658.75,170,660,170C661.25,170,662.5,170,663.75,170C665,170,666.25,170,667.5,170C668.75,170,670,170,671.25,170C672.5,170,673.75,170,675,170C676.25,170,677.5,170,678.75,170C680,170,681.25,170,682.5,170C683.75,170,685,170,686.25,170C687.5,170,688.75,170,690,170C691.25,170,692.5,170,693.75,170C695,170,696.25,170,697.5,170C698.75,170,700,170,701.25,170C702.5,170,703.75,170,705,170C706.25,170,707.5,170,708.75,170C710,170,711.25,170,712.5,170C713.75,170,715,170,716.25,170C717.5,170,718.75,170,720,170"></path><circle class="dot" cx="0" cy="170" r="3" fill="#2563eb"></circle><circle class="dot" cx="3.75" cy="170" r="3" fill="#2563eb"></circle><circle class="dot" cx="7.5" cy="170" r="3" fill="#2563eb"></circle><circle class="dot" cx="11.25" cy="170" r="3" fill="#2563eb"></circle><circle class="dot" cx="15" cy="170" r="3" fill="#2563eb"></circle><circle class="dot" cx="18.75" cy="170" r="3" fill="#2563eb"></circle><circle class="dot" cx="22.5" cy="170" r="3" fill="#2563eb"></circle><circle class="dot" cx="26.25" cy="170" r="3" fill="#2563eb"></circle><circle class="dot" cx="30" cy="170" r="3" fill="#2563eb"></circle><circle class="dot" cx="33.75" cy="170" r="3" fill="#2563eb"></circle><circle class="dot" cx="37.5" cy="170" r="3" fill="#2563eb"></circle><circle class="dot" cx="41.25" cy="170" r="3" fill="#2563eb"></circle><circle class="dot" cx="45" cy="170" r="3" fill="#2563eb"></circle><circle class="dot" cx="48.75" cy="170" r="3" fill="#2563eb"></circle><circle class="dot" cx="52.5" cy="170" r="3" fill="#2563eb"></circle><circle class="dot" cx="56.25" cy="170" r="3" fill="#2563eb"></circle><circle class="dot" cx="60" cy="170" r="3" fill="#2563eb"></circle><circle class="dot" cx="63.75" cy="170" r="3" fill="#2563eb"></circle><circle class="dot" cx="67.5" cy="170" r="3" fill="#2563eb"></circle><circle class="dot" cx="71.25" cy="170" r="3" fill="#2563eb"></circle><circle class="dot" cx="75" cy="170" r="3" fill="#2563eb"></circle><circle class="dot" cx="78.75" cy="170" r="3" fill="#2563eb"></circle><circle class="dot" cx="82.5" cy="170" r="3" fill="#2563eb"></circle><circle class="dot" cx="86.25" cy="170" r="3" fill="#2563eb"></circle><circle class="dot" cx="90" cy="170" r="3" fill="#2563eb"></circle><circle class="dot" cx="93.75" cy="170" r="3" fill="#2563eb"></circle><circle class="dot" cx="97.5" cy="170" r="3" fill="#2563eb"></circle><circle class="dot" cx="101.25" cy="170" r="3" fill="#2563eb"></circle><circle class="dot" cx="105" cy="170" r="3" fill="#2563eb"></circle><circle class="dot" cx="108.75" cy="170" r="3" fill="#2563eb"></circle><circle class="dot" cx="112.5" cy="170" r="3" fill="#2563eb"></circle><circle class="dot" cx="116.25" cy="170" r="3" fill="#2563eb"></circle><circle class="dot" cx="120" cy="170" r="3" fill="#2563eb"></circle><circle class="dot" cx="123.75" cy="170" r="3" fill="#2563eb"></circle><circle class="dot" cx="127.5" cy="170" r="3" fill="#2563eb"></circle><circle class="dot" cx="131.25" cy="170" r="3" fill="#2563eb"></circle><circle class="dot" cx="135" cy="170" r="3" fill="#2563eb"></circle><circle class="dot" cx="138.75" cy="170" r="3" fill="#2563eb"></circle><circle class="dot" cx="142.5" cy="170" r="3" fill="#2563eb"></circle><circle class="dot" cx="146.25" cy="170" r="3" fill="#2563eb"></circle><circle class="dot" cx="150" cy="170" r="3" fill="#2563eb"></circle><circle class="dot" cx="153.75" cy="170" r="3" fill="#2563eb"></circle><circle class="dot" cx="157.5" cy="170" r="3" fill="#2563eb"></circle><circle class="dot" cx="161.25" cy="170" r="3" fill="#2563eb"></circle><circle class="dot" cx="165" cy="170" r="3" fill="#2563eb"></circle><circle class="dot" cx="168.75" cy="170" r="3" fill="#2563eb"></circle><circle class="dot" cx="172.5" cy="170" r="3" fill="#2563eb"></circle><circle class="dot" cx="176.25" cy="170" r="3" fill="#2563eb"></circle><circle class="dot" cx="180" cy="170" r="3" fill="#2563eb"></circle><circle class="dot" cx="183.75" cy="170" r="3" fill="#2563eb"></circle><circle class="dot" cx="187.5" cy="170" r="3" fill="#2563eb"></circle><circle class="dot" cx="191.25" cy="170" r="3" fill="#2563eb"></circle><circle class="dot" cx="195" cy="170" r="3" fill="#2563eb"></circle><circle class="dot" cx="198.75" cy="170" r="3" fill="#2563eb"></circle><circle class="dot" cx="202.5" cy="170" r="3" fill="#2563eb"></circle><circle class="dot" cx="206.25" cy="170" r="3" fill="#2563eb"></circle><circle class="dot" cx="210" cy="170" r="3" fill="#2563eb"></circle><circle class="dot" cx="213.75" cy="170" r="3" fill="#2563eb"></circle><circle class="dot" cx="217.5" cy="170" r="3" fill="#2563eb"></circle><circle class="dot" cx="221.25" cy="170" r="3" fill="#2563eb"></circle><circle class="dot" cx="225" cy="170" r="3" fill="#2563eb"></circle><circle class="dot" cx="228.75" cy="170" r="3" fill="#2563eb"></circle><circle class="dot" cx="232.5" cy="170" r="3" fill="#2563eb"></circle><circle class="dot" cx="236.25" cy="170" r="3" fill="#2563eb"></circle><circle class="dot" cx="240" cy="170" r="3" fill="#2563eb"></circle><circle class="dot" cx="243.75" cy="170" r="3" fill="#2563eb"></circle><circle class="dot" cx="247.5" cy="170" r="3" fill="#2563eb"></circle><circle class="dot" cx="251.25" cy="170" r="3" fill="#2563eb"></circle><circle class="dot" cx="255" cy="170" r="3" fill="#2563eb"></circle><circle class="dot" cx="258.75" cy="170" r="3" fill="#2563eb"></circle><circle class="dot" cx="262.5" cy="170" r="3" fill="#2563eb"></circle><circle class="dot" cx="266.25" cy="170" r="3" fill="#2563eb"></circle><circle class="dot" cx="270" cy="170" r="3" fill="#2563eb"></circle><circle class="dot" cx="273.75" cy="170" r="3" fill="#2563eb"></circle><circle class="dot" cx="277.5" cy="170" r="3" fill="#2563eb"></circle><circle class="dot" cx="281.25" cy="170" r="3" fill="#2563eb"></circle><circle class="dot" cx="285" cy="170" r="3" fill="#2563eb"></circle><circle class="dot" cx="288.75" cy="170" r="3" fill="#2563eb"></circle><circle class="dot" cx="292.5" cy="170" r="3" fill="#2563eb"></circle><circle class="dot" cx="296.25" cy="170" r="3" fill="#2563eb"></circle><circle class="dot" cx="300" cy="170" r="3" fill="#2563eb"></circle><circle class="dot" cx="303.75" cy="170" r="3" fill="#2563eb"></circle><circle class="dot" cx="307.5" cy="170" r="3" fill="#2563eb"></circle><circle class="dot" cx="311.25" cy="170" r="3" fill="#2563eb"></circle><circle class="dot" cx="315" cy="170" r="3" fill="#2563eb"></circle><circle class="dot" cx="318.75" cy="170" r="3" fill="#2563eb"></circle><circle class="dot" cx="322.5" cy="170" r="3" fill="#2563eb"></circle><circle class="dot" cx="326.25" cy="170" r="3" fill="#2563eb"></circle><circle class="dot" cx="330" cy="170" r="3" fill="#2563eb"></circle><circle class="dot" cx="333.75" cy="170" r="3" fill="#2563eb"></circle><circle class="dot" cx="337.5" cy="170" r="3" fill="#2563eb"></circle><circle class="dot" cx="341.25" cy="170" r="3" fill="#2563eb"></circle><circle class="dot" cx="345" cy="170" r="3" fill="#2563eb"></circle><circle class="dot" cx="348.75" cy="170" r="3" fill="#2563eb"></circle><circle class="dot" cx="352.5" cy="170" r="3" fill="#2563eb"></circle><circle class="dot" cx="356.25" cy="170" r="3" fill="#2563eb"></circle><circle class="dot" cx="360" cy="170" r="3" fill="#2563eb"></circle><circle class="dot" cx="363.75" cy="170" r="3" fill="#2563eb"></circle><circle class="dot" cx="367.5" cy="170" r="3" fill="#2563eb"></circle><circle class="dot" cx="371.25" cy="170" r="3" fill="#2563eb"></circle><circle class="dot" cx="375" cy="170" r="3" fill="#2563eb"></circle><circle class="dot" cx="378.75" cy="170" r="3" fill="#2563eb"></circle><circle class="dot" cx="382.5" cy="170" r="3" fill="#2563eb"></circle><circle class="dot" cx="386.25" cy="170" r="3" fill="#2563eb"></circle><circle class="dot" cx="390" cy="170" r="3" fill="#2563eb"></circle><circle class="dot" cx="393.75" cy="170" r="3" fill="#2563eb"></circle><circle class="dot" cx="397.5" cy="170" r="3" fill="#2563eb"></circle><circle class="dot" cx="401.25" cy="170" r="3" fill="#2563eb"></circle><circle class="dot" cx="405" cy="170" r="3" fill="#2563eb"></circle><circle class="dot" cx="408.75" cy="170" r="3" fill="#2563eb"></circle><circle class="dot" cx="412.5" cy="170" r="3" fill="#2563eb"></circle><circle class="dot" cx="416.25" cy="170" r="3" fill="#2563eb"></circle><circle class="dot" cx="420" cy="170" r="3" fill="#2563eb"></circle><circle class="dot" cx="423.75" cy="170" r="3" fill="#2563eb"></circle><circle class="dot" cx="427.5" cy="170" r="3" fill="#2563eb"></circle><circle class="dot" cx="431.25" cy="170" r="3" fill="#2563eb"></circle><circle class="dot" cx="435" cy="170" r="3" fill="#2563eb"></circle><circle class="dot" cx="438.75" cy="170" r="3" fill="#2563eb"></circle><circle class="dot" cx="442.5" cy="170" r="3" fill="#2563eb"></circle><circle class="dot" cx="446.25" cy="170" r="3" fill="#2563eb"></circle><circle class="dot" cx="450" cy="170" r="3" fill="#2563eb"></circle><circle class="dot" cx="453.75" cy="170" r="3" fill="#2563eb"></circle><circle class="dot" cx="457.5" cy="170" r="3" fill="#2563eb"></circle><circle class="dot" cx="461.25" cy="170" r="3" fill="#2563eb"></circle><circle class="dot" cx="465" cy="170" r="3" fill="#2563eb"></circle><circle class="dot" cx="468.75" cy="170" r="3" fill="#2563eb"></circle><circle class="dot" cx="472.5" cy="170" r="3" fill="#2563eb"></circle><circle class="dot" cx="476.25" cy="170" r="3" fill="#2563eb"></circle><circle class="dot" cx="480" cy="170" r="3" fill="#2563eb"></circle><circle class="dot" cx="483.75" cy="170" r="3" fill="#2563eb"></circle><circle class="dot" cx="487.5" cy="170" r="3" fill="#2563eb"></circle><circle class="dot" cx="491.25" cy="170" r="3" fill="#2563eb"></circle><circle class="dot" cx="495" cy="170" r="3" fill="#2563eb"></circle><circle class="dot" cx="498.75" cy="170" r="3" fill="#2563eb"></circle><circle class="dot" cx="502.5" cy="170" r="3" fill="#2563eb"></circle><circle class="dot" cx="506.25" cy="170" r="3" fill="#2563eb"></circle><circle class="dot" cx="510" cy="170" r="3" fill="#2563eb"></circle><circle class="dot" cx="513.75" cy="170" r="3" fill="#2563eb"></circle><circle class="dot" cx="517.5" cy="170" r="3" fill="#2563eb"></circle><circle class="dot" cx="521.25" cy="170" r="3" fill="#2563eb"></circle><circle class="dot" cx="525" cy="170" r="3" fill="#2563eb"></circle><circle class="dot" cx="528.75" cy="170" r="3" fill="#2563eb"></circle><circle class="dot" cx="532.5" cy="170" r="3" fill="#2563eb"></circle><circle class="dot" cx="536.25" cy="170" r="3" fill="#2563eb"></circle><circle class="dot" cx="540" cy="170" r="3" fill="#2563eb"></circle><circle class="dot" cx="543.75" cy="170" r="3" fill="#2563eb"></circle><circle class="dot" cx="547.5" cy="170" r="3" fill="#2563eb"></circle><circle class="dot" cx="551.25" cy="170" r="3" fill="#2563eb"></circle><circle class="dot" cx="555" cy="170" r="3" fill="#2563eb"></circle><circle class="dot" cx="558.75" cy="170" r="3" fill="#2563eb"></circle><circle class="dot" cx="562.5" cy="170" r="3" fill="#2563eb"></circle><circle class="dot" cx="566.25" cy="170" r="3" fill="#2563eb"></circle><circle class="dot" cx="570" cy="170" r="3" fill="#2563eb"></circle><circle class="dot" cx="573.75" cy="170" r="3" fill="#2563eb"></circle><circle class="dot" cx="577.5" cy="170" r="3" fill="#2563eb"></circle><circle class="dot" cx="581.25" cy="170" r="3" fill="#2563eb"></circle><circle class="dot" cx="585" cy="170" r="3" fill="#2563eb"></circle><circle class="dot" cx="588.75" cy="170" r="3" fill="#2563eb"></circle><circle class="dot" cx="592.5" cy="170" r="3" fill="#2563eb"></circle><circle class="dot" cx="596.25" cy="170" r="3" fill="#2563eb"></circle><circle class="dot" cx="600" cy="170" r="3" fill="#2563eb"></circle><circle class="dot" cx="603.75" cy="170" r="3" fill="#2563eb"></circle><circle class="dot" cx="607.5" cy="170" r="3" fill="#2563eb"></circle><circle class="dot" cx="611.25" cy="170" r="3" fill="#2563eb"></circle><circle class="dot" cx="615" cy="170" r="3" fill="#2563eb"></circle><circle class="dot" cx="618.75" cy="170" r="3" fill="#2563eb"></circle><circle class="dot" cx="622.5" cy="170" r="3" fill="#2563eb"></circle><circle class="dot" cx="626.25" cy="170" r="3" fill="#2563eb"></circle><circle class="dot" cx="630" cy="170" r="3" fill="#2563eb"></circle><circle class="dot" cx="633.75" cy="170" r="3" fill="#2563eb"></circle><circle class="dot" cx="637.5" cy="170" r="3" fill="#2563eb"></circle><circle class="dot" cx="641.25" cy="170" r="3" fill="#2563eb"></circle><circle class="dot" cx="645" cy="170" r="3" fill="#2563eb"></circle><circle class="dot" cx="648.75" cy="170" r="3" fill="#2563eb"></circle><circle class="dot" cx="652.5" cy="170" r="3" fill="#2563eb"></circle><circle class="dot" cx="656.25" cy="170" r="3" fill="#2563eb"></circle><circle class="dot" cx="660" cy="170" r="3" fill="#2563eb"></circle><circle class="dot" cx="663.75" cy="170" r="3" fill="#2563eb"></circle><circle class="dot" cx="667.5" cy="170" r="3" fill="#2563eb"></circle><circle class="dot" cx="671.25" cy="170" r="3" fill="#2563eb"></circle><circle class="dot" cx="675" cy="170" r="3" fill="#2563eb"></circle><circle class="dot" cx="678.75" cy="170" r="3" fill="#2563eb"></circle><circle class="dot" cx="682.5" cy="170" r="3" fill="#2563eb"></circle><circle class="dot" cx="686.25" cy="170" r="3" fill="#2563eb"></circle><circle class="dot" cx="690" cy="170" r="3" fill="#2563eb"></circle><circle class="dot" cx="693.75" cy="170" r="3" fill="#2563eb"></circle><circle class="dot" cx="697.5" cy="170" r="3" fill="#2563eb"></circle><circle class="dot" cx="701.25" cy="170" r="3" fill="#2563eb"></circle><circle class="dot" cx="705" cy="170" r="3" fill="#2563eb"></circle><circle class="dot" cx="708.75" cy="170" r="3" fill="#2563eb"></circle><circle class="dot" cx="712.5" cy="170" r="3" fill="#2563eb"></circle><circle class="dot" cx="716.25" cy="170" r="3" fill="#2563eb"></circle><circle class="dot" cx="720" cy="170" r="3" fill="#2563eb"></circle><g class="grid" transform="translate(0,340)" fill="none" font-size="10" font-family="sans-serif" text-anchor="middle" style="stroke-dasharray: 3,3; opacity: 0.3;"><path class="domain" stroke="currentColor" d="M0.5,-340V0.5H720.5V-340"></path><g class="tick" opacity="1" transform="translate(0.5,0)"><line stroke="currentColor" y2="-340"></line><text fill="currentColor" y="3" dy="0.71em"></text></g><g class="tick" opacity="1" transform="translate(90.5,0)"><line stroke="currentColor" y2="-340"></line><text fill="currentColor" y="3" dy="0.71em"></text></g><g class="tick" opacity="1" transform="translate(180.5,0)"><line stroke="currentColor" y2="-340"></line><text fill="currentColor" y="3" dy="0.71em"></text></g><g class="tick" opacity="1" transform="translate(270.5,0)"><line stroke="currentColor" y2="-340"></line><text fill="currentColor" y="3" dy="0.71em"></text></g><g class="tick" opacity="1" transform="translate(360.5,0)"><line stroke="currentColor" y2="-340"></line><text fill="currentColor" y="3" dy="0.71em"></text></g><g class="tick" opacity="1" transform="translate(450.5,0)"><line stroke="currentColor" y2="-340"></line><text fill="currentColor" y="3" dy="0.71em"></text></g><g class="tick" opacity="1" transform="translate(540.5,0)"><line stroke="currentColor" y2="-340"></line><text fill="currentColor" y="3" dy="0.71em"></text></g><g class="tick" opacity="1" transform="translate(630.5,0)"><line stroke="currentColor" y2="-340"></line><text fill="currentColor" y="3" dy="0.71em"></text></g><g class="tick" opacity="1" transform="translate(720.5,0)"><line stroke="currentColor" y2="-340"></line><text fill="currentColor" y="3" dy="0.71em"></text></g></g><g class="grid" fill="none" font-size="10" font-family="sans-serif" text-anchor="end" style="stroke-dasharray: 3,3; opacity: 0.3;"><path class="domain" stroke="currentColor" d="M720,340.5H0.5V0.5H720"></path><g class="tick" opacity="1" transform="translate(0,170.5)"><line stroke="currentColor" x2="720"></line><text fill="currentColor" x="-3" dy="0.32em"></text></g></g></g><text x="400" y="10" text-anchor="middle" style="font-size: 16px; font-weight: bold; fill: #333;">OKX USDT Lending Rate - Current Month</text></svg>