<svg width="800" height="400" xmlns="http://www.w3.org/2000/svg"><g transform="translate(50,20)"><g transform="translate(0,340)" fill="none" font-size="10" font-family="sans-serif" text-anchor="middle"><path class="domain" stroke="currentColor" d="M0.5,6V0.5H720.5V6"></path><g class="tick" opacity="1" transform="translate(0.5,0)"><line stroke="currentColor" y2="6"></line><text fill="currentColor" y="9" dy=".15em" style="text-anchor: end;" dx="-.8em" transform="rotate(-45)">09/01</text></g><g class="tick" opacity="1" transform="translate(33.35171102661597,0)"><line stroke="currentColor" y2="6"></line><text fill="currentColor" y="9" dy=".15em" style="text-anchor: end;" dx="-.8em" transform="rotate(-45)">09/02</text></g><g class="tick" opacity="1" transform="translate(66.20342205323195,0)"><line stroke="currentColor" y2="6"></line><text fill="currentColor" y="9" dy=".15em" style="text-anchor: end;" dx="-.8em" transform="rotate(-45)">09/03</text></g><g class="tick" opacity="1" transform="translate(99.0551330798479,0)"><line stroke="currentColor" y2="6"></line><text fill="currentColor" y="9" dy=".15em" style="text-anchor: end;" dx="-.8em" transform="rotate(-45)">09/04</text></g><g class="tick" opacity="1" transform="translate(131.9068441064639,0)"><line stroke="currentColor" y2="6"></line><text fill="currentColor" y="9" dy=".15em" style="text-anchor: end;" dx="-.8em" transform="rotate(-45)">09/05</text></g><g class="tick" opacity="1" transform="translate(164.75855513307985,0)"><line stroke="currentColor" y2="6"></line><text fill="currentColor" y="9" dy=".15em" style="text-anchor: end;" dx="-.8em" transform="rotate(-45)">09/06</text></g><g class="tick" opacity="1" transform="translate(197.6102661596958,0)"><line stroke="currentColor" y2="6"></line><text fill="currentColor" y="9" dy=".15em" style="text-anchor: end;" dx="-.8em" transform="rotate(-45)">09/07</text></g><g class="tick" opacity="1" transform="translate(230.4619771863118,0)"><line stroke="currentColor" y2="6"></line><text fill="currentColor" y="9" dy=".15em" style="text-anchor: end;" dx="-.8em" transform="rotate(-45)">09/08</text></g><g class="tick" opacity="1" transform="translate(263.3136882129278,0)"><line stroke="currentColor" y2="6"></line><text fill="currentColor" y="9" dy=".15em" style="text-anchor: end;" dx="-.8em" transform="rotate(-45)">09/09</text></g><g class="tick" opacity="1" transform="translate(296.1653992395437,0)"><line stroke="currentColor" y2="6"></line><text fill="currentColor" y="9" dy=".15em" style="text-anchor: end;" dx="-.8em" transform="rotate(-45)">09/10</text></g><g class="tick" opacity="1" transform="translate(329.0171102661597,0)"><line stroke="currentColor" y2="6"></line><text fill="currentColor" y="9" dy=".15em" style="text-anchor: end;" dx="-.8em" transform="rotate(-45)">09/11</text></g><g class="tick" opacity="1" transform="translate(361.86882129277564,0)"><line stroke="currentColor" y2="6"></line><text fill="currentColor" y="9" dy=".15em" style="text-anchor: end;" dx="-.8em" transform="rotate(-45)">09/12</text></g><g class="tick" opacity="1" transform="translate(394.7205323193916,0)"><line stroke="currentColor" y2="6"></line><text fill="currentColor" y="9" dy=".15em" style="text-anchor: end;" dx="-.8em" transform="rotate(-45)">09/13</text></g><g class="tick" opacity="1" transform="translate(427.57224334600755,0)"><line stroke="currentColor" y2="6"></line><text fill="currentColor" y="9" dy=".15em" style="text-anchor: end;" dx="-.8em" transform="rotate(-45)">09/14</text></g><g class="tick" opacity="1" transform="translate(460.4239543726236,0)"><line stroke="currentColor" y2="6"></line><text fill="currentColor" y="9" dy=".15em" style="text-anchor: end;" dx="-.8em" transform="rotate(-45)">09/15</text></g><g class="tick" opacity="1" transform="translate(493.27566539923953,0)"><line stroke="currentColor" y2="6"></line><text fill="currentColor" y="9" dy=".15em" style="text-anchor: end;" dx="-.8em" transform="rotate(-45)">09/16</text></g><g class="tick" opacity="1" transform="translate(526.1273764258556,0)"><line stroke="currentColor" y2="6"></line><text fill="currentColor" y="9" dy=".15em" style="text-anchor: end;" dx="-.8em" transform="rotate(-45)">09/17</text></g><g class="tick" opacity="1" transform="translate(558.9790874524715,0)"><line stroke="currentColor" y2="6"></line><text fill="currentColor" y="9" dy=".15em" style="text-anchor: end;" dx="-.8em" transform="rotate(-45)">09/18</text></g><g class="tick" opacity="1" transform="translate(591.8307984790874,0)"><line stroke="currentColor" y2="6"></line><text fill="currentColor" y="9" dy=".15em" style="text-anchor: end;" dx="-.8em" transform="rotate(-45)">09/19</text></g><g class="tick" opacity="1" transform="translate(624.6825095057034,0)"><line stroke="currentColor" y2="6"></line><text fill="currentColor" y="9" dy=".15em" style="text-anchor: end;" dx="-.8em" transform="rotate(-45)">09/20</text></g><g class="tick" opacity="1" transform="translate(657.5342205323194,0)"><line stroke="currentColor" y2="6"></line><text fill="currentColor" y="9" dy=".15em" style="text-anchor: end;" dx="-.8em" transform="rotate(-45)">09/21</text></g><g class="tick" opacity="1" transform="translate(690.3859315589353,0)"><line stroke="currentColor" y2="6"></line><text fill="currentColor" y="9" dy=".15em" style="text-anchor: end;" dx="-.8em" transform="rotate(-45)">09/22</text></g></g><g fill="none" font-size="10" font-family="sans-serif" text-anchor="end"><path class="domain" stroke="currentColor" d="M-6,340.5H0.5V0.5H-6"></path><g class="tick" opacity="1" transform="translate(0,340.5)"><line stroke="currentColor" x2="-6"></line><text fill="currentColor" x="-9" dy="0.32em">4.00%</text></g><g class="tick" opacity="1" transform="translate(0,314.34615384615387)"><line stroke="currentColor" x2="-6"></line><text fill="currentColor" x="-9" dy="0.32em">6.00%</text></g><g class="tick" opacity="1" transform="translate(0,288.1923076923077)"><line stroke="currentColor" x2="-6"></line><text fill="currentColor" x="-9" dy="0.32em">8.00%</text></g><g class="tick" opacity="1" transform="translate(0,262.0384615384615)"><line stroke="currentColor" x2="-6"></line><text fill="currentColor" x="-9" dy="0.32em">10.00%</text></g><g class="tick" opacity="1" transform="translate(0,235.8846153846154)"><line stroke="currentColor" x2="-6"></line><text fill="currentColor" x="-9" dy="0.32em">12.00%</text></g><g class="tick" opacity="1" transform="translate(0,209.73076923076925)"><line stroke="currentColor" x2="-6"></line><text fill="currentColor" x="-9" dy="0.32em">14.00%</text></g><g class="tick" opacity="1" transform="translate(0,183.5769230769231)"><line stroke="currentColor" x2="-6"></line><text fill="currentColor" x="-9" dy="0.32em">16.00%</text></g><g class="tick" opacity="1" transform="translate(0,157.42307692307693)"><line stroke="currentColor" x2="-6"></line><text fill="currentColor" x="-9" dy="0.32em">18.00%</text></g><g class="tick" opacity="1" transform="translate(0,131.26923076923075)"><line stroke="currentColor" x2="-6"></line><text fill="currentColor" x="-9" dy="0.32em">20.00%</text></g><g class="tick" opacity="1" transform="translate(0,105.11538461538463)"><line stroke="currentColor" x2="-6"></line><text fill="currentColor" x="-9" dy="0.32em">22.00%</text></g><g class="tick" opacity="1" transform="translate(0,78.96153846153848)"><line stroke="currentColor" x2="-6"></line><text fill="currentColor" x="-9" dy="0.32em">24.00%</text></g><g class="tick" opacity="1" transform="translate(0,52.807692307692314)"><line stroke="currentColor" x2="-6"></line><text fill="currentColor" x="-9" dy="0.32em">26.00%</text></g><g class="tick" opacity="1" transform="translate(0,26.653846153846136)"><line stroke="currentColor" x2="-6"></line><text fill="currentColor" x="-9" dy="0.32em">28.00%</text></g><g class="tick" opacity="1" transform="translate(0,0.5)"><line stroke="currentColor" x2="-6"></line><text fill="currentColor" x="-9" dy="0.32em">30.00%</text></g></g><text transform="rotate(-90)" y="-50" x="-170" dy="1em" style="text-anchor: middle; font-size: 12px; fill: #666;">Pre Rate (%)</text><text transform="translate(360, 380)" style="text-anchor: middle; font-size: 12px; fill: #666;">Time (UTC)</text><path fill="none" stroke="#2563eb" stroke-width="2" d="M0,340C0.456,340,0.913,340,1.369,340C1.825,340,2.281,340,2.738,340C3.194,340,3.65,340,4.106,340C4.563,340,5.019,340,5.475,340C5.932,340,6.388,340,6.844,340C7.3,340,7.757,340,8.213,340C8.669,340,9.125,340,9.582,340C10.038,340,10.494,296.41,10.951,287.692C11.407,278.974,11.863,274.615,12.319,274.615C12.776,274.615,13.232,292.051,13.688,300.769C14.144,309.487,14.601,326.923,15.057,326.923C15.513,326.923,15.97,322.564,16.426,313.846C16.882,305.128,17.338,274.615,17.795,274.615C18.251,274.615,18.707,300.769,19.163,300.769C19.62,300.769,20.076,300.769,20.532,300.769C20.989,300.769,21.445,300.769,21.901,300.769C22.357,300.769,22.814,300.769,23.27,300.769C23.726,300.769,24.183,326.923,24.639,326.923C25.095,326.923,25.551,318.205,26.008,313.846C26.464,309.487,26.92,300.769,27.376,300.769C27.833,300.769,28.289,340,28.745,340C29.202,340,29.658,340,30.114,340C30.57,340,31.027,340,31.483,340C31.939,340,32.395,313.846,32.852,313.846C33.308,313.846,33.764,326.923,34.221,326.923C34.677,326.923,35.133,322.564,35.589,313.846C36.046,305.128,36.502,283.333,36.958,274.615C37.414,265.897,37.871,261.538,38.327,261.538C38.783,261.538,39.24,270.256,39.696,274.615C40.152,278.974,40.608,287.692,41.065,287.692C41.521,287.692,41.977,235.385,42.433,235.385C42.89,235.385,43.346,252.821,43.802,261.538C44.259,270.256,44.715,287.692,45.171,287.692C45.627,287.692,46.084,287.692,46.54,287.692C46.996,287.692,47.452,287.692,47.909,287.692C48.365,287.692,48.821,296.41,49.278,300.769C49.734,305.128,50.19,313.846,50.646,313.846C51.103,313.846,51.559,235.385,52.015,235.385C52.471,235.385,52.928,248.462,53.384,261.538C53.84,274.615,54.297,313.846,54.753,313.846C55.209,313.846,55.665,287.692,56.122,287.692C56.578,287.692,57.034,300.769,57.49,300.769C57.947,300.769,58.403,300.769,58.859,300.769C59.316,300.769,59.772,313.846,60.228,313.846C60.684,313.846,61.141,261.538,61.597,261.538C62.053,261.538,62.51,261.538,62.966,261.538C63.422,261.538,63.878,248.462,64.335,248.462C64.791,248.462,65.247,248.462,65.703,248.462C66.16,248.462,66.616,261.538,67.072,261.538C67.529,261.538,67.985,248.462,68.441,248.462C68.897,248.462,69.354,248.462,69.81,248.462C70.266,248.462,70.722,268.077,71.179,274.615C71.635,281.154,72.091,281.154,72.548,287.692C73.004,294.231,73.46,307.308,73.916,313.846C74.373,320.385,74.829,326.923,75.285,326.923C75.741,326.923,76.198,313.846,76.654,313.846C77.11,313.846,77.567,340,78.023,340C78.479,340,78.935,326.923,79.392,326.923C79.848,326.923,80.304,326.923,80.76,326.923C81.217,326.923,81.673,326.923,82.129,326.923C82.586,326.923,83.042,340,83.498,340C83.954,340,84.411,292.051,84.867,274.615C85.323,257.179,85.779,235.385,86.236,235.385C86.692,235.385,87.148,241.923,87.605,248.462C88.061,255,88.517,265.897,88.973,274.615C89.43,283.333,89.886,294.231,90.342,300.769C90.798,307.308,91.255,313.846,91.711,313.846C92.167,313.846,92.624,305.128,93.08,300.769C93.536,296.41,93.992,287.692,94.449,287.692C94.905,287.692,95.361,287.692,95.817,287.692C96.274,287.692,96.73,287.692,97.186,287.692C97.643,287.692,98.099,287.692,98.555,287.692C99.011,287.692,99.468,261.538,99.924,261.538C100.38,261.538,100.837,265.897,101.293,274.615C101.749,283.333,102.205,313.846,102.662,313.846C103.118,313.846,103.574,313.846,104.03,313.846C104.487,313.846,104.943,313.846,105.399,313.846C105.856,313.846,106.312,313.846,106.768,313.846C107.224,313.846,107.681,326.923,108.137,326.923C108.593,326.923,109.049,300.769,109.506,300.769C109.962,300.769,110.418,300.769,110.875,300.769C111.331,300.769,111.787,287.692,112.243,287.692C112.7,287.692,113.156,300.769,113.612,300.769C114.068,300.769,114.525,300.769,114.981,300.769C115.437,300.769,115.894,307.308,116.35,313.846C116.806,320.385,117.262,340,117.719,340C118.175,340,118.631,340,119.087,340C119.544,340,120,340,120.456,340C120.913,340,121.369,340,121.825,340C122.281,340,122.738,340,123.194,340C123.65,340,124.106,340,124.563,340C125.019,340,125.475,340,125.932,340C126.388,340,126.844,340,127.3,340C127.757,340,128.213,340,128.669,340C129.125,340,129.582,340,130.038,340C130.494,340,130.951,340,131.407,340C131.863,340,132.319,340,132.776,340C133.232,340,133.688,340,134.144,340C134.601,340,135.057,340,135.513,340C135.97,340,136.426,340,136.882,340C137.338,340,137.795,340,138.251,340C138.707,340,139.163,340,139.62,340C140.076,340,140.532,340,140.989,340C141.445,340,141.901,274.615,142.357,274.615C142.814,274.615,143.27,340,143.726,340C144.183,340,144.639,340,145.095,340C145.551,340,146.008,340,146.464,340C146.92,340,147.376,335.641,147.833,326.923C148.289,318.205,148.745,248.462,149.202,248.462C149.658,248.462,150.114,252.821,150.57,261.538C151.027,270.256,151.483,340,151.939,340C152.395,340,152.852,331.282,153.308,326.923C153.764,322.564,154.221,313.846,154.677,313.846C155.133,313.846,155.589,326.923,156.046,326.923C156.502,326.923,156.958,313.846,157.414,313.846C157.871,313.846,158.327,313.846,158.783,313.846C159.24,313.846,159.696,313.846,160.152,313.846C160.608,313.846,161.065,340,161.521,340C161.977,340,162.433,340,162.89,340C163.346,340,163.802,340,164.259,340C164.715,340,165.171,326.923,165.627,326.923C166.084,326.923,166.54,340,166.996,340C167.452,340,167.909,340,168.365,340C168.821,340,169.278,340,169.734,340C170.19,340,170.646,340,171.103,340C171.559,340,172.015,340,172.471,340C172.928,340,173.384,340,173.84,340C174.297,340,174.753,340,175.209,340C175.665,340,176.122,340,176.578,340C177.034,340,177.49,340,177.947,340C178.403,340,178.859,340,179.316,340C179.772,340,180.228,340,180.684,340C181.141,340,181.597,340,182.053,340C182.51,340,182.966,340,183.422,340C183.878,340,184.335,340,184.791,340C185.247,340,185.703,340,186.16,340C186.616,340,187.072,340,187.529,340C187.985,340,188.441,340,188.897,340C189.354,340,189.81,340,190.266,340C190.722,340,191.179,340,191.635,340C192.091,340,192.548,340,193.004,340C193.46,340,193.916,340,194.373,340C194.829,340,195.285,340,195.741,340C196.198,340,196.654,340,197.11,340C197.567,340,198.023,340,198.479,340C198.935,340,199.392,340,199.848,340C200.304,340,200.76,340,201.217,340C201.673,340,202.129,340,202.586,340C203.042,340,203.498,340,203.954,340C204.411,340,204.867,340,205.323,340C205.779,340,206.236,340,206.692,340C207.148,340,207.605,313.846,208.061,313.846C208.517,313.846,208.973,322.564,209.43,326.923C209.886,331.282,210.342,340,210.798,340C211.255,340,211.711,331.282,212.167,326.923C212.624,322.564,213.08,313.846,213.536,313.846C213.992,313.846,214.449,313.846,214.905,313.846C215.361,313.846,215.817,307.308,216.274,300.769C216.73,294.231,217.186,274.615,217.643,274.615C218.099,274.615,218.555,274.615,219.011,274.615C219.468,274.615,219.924,283.333,220.38,287.692C220.837,292.051,221.293,300.769,221.749,300.769C222.205,300.769,222.662,300.769,223.118,300.769C223.574,300.769,224.03,287.692,224.487,287.692C224.943,287.692,225.399,300.769,225.856,300.769C226.312,300.769,226.768,300.769,227.224,300.769C227.681,300.769,228.137,274.615,228.593,274.615C229.049,274.615,229.506,274.615,229.962,274.615C230.418,274.615,230.875,261.538,231.331,261.538C231.787,261.538,232.243,261.538,232.7,261.538C233.156,261.538,233.612,248.462,234.068,248.462C234.525,248.462,234.981,257.179,235.437,261.538C235.894,265.897,236.35,274.615,236.806,274.615C237.262,274.615,237.719,274.615,238.175,274.615C238.631,274.615,239.087,287.692,239.544,287.692C240,287.692,240.456,287.692,240.913,287.692C241.369,287.692,241.825,281.154,242.281,274.615C242.738,268.077,243.194,255,243.65,248.462C244.106,241.923,244.563,235.385,245.019,235.385C245.475,235.385,245.932,235.385,246.388,235.385C246.844,235.385,247.3,235.385,247.757,235.385C248.213,235.385,248.669,248.462,249.125,248.462C249.582,248.462,250.038,231.026,250.494,222.308C250.951,213.59,251.407,196.154,251.863,196.154C252.319,196.154,252.776,202.692,253.232,209.231C253.688,215.769,254.144,235.385,254.601,235.385C255.057,235.385,255.513,209.231,255.97,209.231C256.426,209.231,256.882,248.462,257.338,248.462C257.795,248.462,258.251,248.462,258.707,248.462C259.163,248.462,259.62,222.308,260.076,222.308C260.532,222.308,260.989,231.026,261.445,235.385C261.901,239.744,262.357,248.462,262.814,248.462C263.27,248.462,263.726,248.462,264.183,248.462C264.639,248.462,265.095,196.154,265.551,196.154C266.008,196.154,266.464,196.154,266.92,196.154C267.376,196.154,267.833,183.077,268.289,183.077C268.745,183.077,269.202,248.462,269.658,248.462C270.114,248.462,270.57,248.462,271.027,248.462C271.483,248.462,271.939,204.872,272.395,196.154C272.852,187.436,273.308,183.077,273.764,183.077C274.221,183.077,274.677,183.077,275.133,183.077C275.589,183.077,276.046,183.077,276.502,183.077C276.958,183.077,277.414,191.795,277.871,196.154C278.327,200.513,278.783,209.231,279.24,209.231C279.696,209.231,280.152,200.513,280.608,196.154C281.065,191.795,281.521,183.077,281.977,183.077C282.433,183.077,282.89,224.487,283.346,248.462C283.802,272.436,284.259,326.923,284.715,326.923C285.171,326.923,285.627,326.923,286.084,326.923C286.54,326.923,286.996,318.205,287.452,313.846C287.909,309.487,288.365,305.128,288.821,300.769C289.278,296.41,289.734,287.692,290.19,287.692C290.646,287.692,291.103,287.692,291.559,287.692C292.015,287.692,292.471,300.769,292.928,300.769C293.384,300.769,293.84,287.692,294.297,287.692C294.753,287.692,295.209,287.692,295.665,287.692C296.122,287.692,296.578,313.846,297.034,313.846C297.49,313.846,297.947,307.308,298.403,300.769C298.859,294.231,299.316,274.615,299.772,274.615C300.228,274.615,300.684,274.615,301.141,274.615C301.597,274.615,302.053,283.333,302.51,287.692C302.966,292.051,303.422,300.769,303.878,300.769C304.335,300.769,304.791,239.744,305.247,222.308C305.703,204.872,306.16,196.154,306.616,196.154C307.072,196.154,307.529,222.308,307.985,222.308C308.441,222.308,308.897,222.308,309.354,222.308C309.81,222.308,310.266,226.667,310.722,235.385C311.179,244.103,311.635,326.923,312.091,326.923C312.548,326.923,313.004,292.051,313.46,274.615C313.916,257.179,314.373,222.308,314.829,222.308C315.285,222.308,315.741,237.564,316.198,248.462C316.654,259.359,317.11,278.974,317.567,287.692C318.023,296.41,318.479,296.41,318.935,300.769C319.392,305.128,319.848,307.308,320.304,313.846C320.76,320.385,321.217,340,321.673,340C322.129,340,322.586,340,323.042,340C323.498,340,323.954,340,324.411,340C324.867,340,325.323,340,325.779,340C326.236,340,326.692,340,327.148,340C327.605,340,328.061,340,328.517,340C328.973,340,329.43,340,329.886,340C330.342,340,330.798,340,331.255,340C331.711,340,332.167,340,332.624,340C333.08,340,333.536,326.923,333.992,326.923C334.449,326.923,334.905,326.923,335.361,326.923C335.817,326.923,336.274,326.923,336.73,326.923C337.186,326.923,337.643,313.846,338.099,313.846C338.555,313.846,339.011,313.846,339.468,313.846C339.924,313.846,340.38,340,340.837,340C341.293,340,341.749,340,342.205,340C342.662,340,343.118,326.923,343.574,326.923C344.03,326.923,344.487,326.923,344.943,326.923C345.399,326.923,345.856,296.41,346.312,287.692C346.768,278.974,347.224,274.615,347.681,274.615C348.137,274.615,348.593,281.154,349.049,287.692C349.506,294.231,349.962,313.846,350.418,313.846C350.875,313.846,351.331,313.846,351.787,313.846C352.243,313.846,352.7,340,353.156,340C353.612,340,354.068,340,354.525,340C354.981,340,355.437,340,355.894,340C356.35,340,356.806,340,357.262,340C357.719,340,358.175,340,358.631,340C359.087,340,359.544,333.462,360,326.923C360.456,320.385,360.913,316.026,361.369,300.769C361.825,285.513,362.281,235.385,362.738,235.385C363.194,235.385,363.65,261.538,364.106,261.538C364.563,261.538,365.019,248.462,365.475,248.462C365.932,248.462,366.388,248.462,366.844,248.462C367.3,248.462,367.757,244.103,368.213,235.385C368.669,226.667,369.125,213.59,369.582,196.154C370.038,178.718,370.494,130.769,370.951,130.769C371.407,130.769,371.863,148.205,372.319,156.923C372.776,165.641,373.232,170,373.688,183.077C374.144,196.154,374.601,235.385,375.057,235.385C375.513,235.385,375.97,235.385,376.426,235.385C376.882,235.385,377.338,235.385,377.795,235.385C378.251,235.385,378.707,235.385,379.163,235.385C379.62,235.385,380.076,235.385,380.532,235.385C380.989,235.385,381.445,222.308,381.901,222.308C382.357,222.308,382.814,248.462,383.27,248.462C383.726,248.462,384.183,241.923,384.639,235.385C385.095,228.846,385.551,217.949,386.008,209.231C386.464,200.513,386.92,196.154,387.376,183.077C387.833,170,388.289,130.769,388.745,130.769C389.202,130.769,389.658,130.769,390.114,130.769C390.57,130.769,391.027,156.923,391.483,156.923C391.939,156.923,392.395,100.256,392.852,91.538C393.308,82.821,393.764,78.462,394.221,78.462C394.677,78.462,395.133,78.462,395.589,78.462C396.046,78.462,396.502,104.615,396.958,104.615C397.414,104.615,397.871,100.256,398.327,91.538C398.783,82.821,399.24,52.308,399.696,52.308C400.152,52.308,400.608,52.308,401.065,52.308C401.521,52.308,401.977,65.385,402.433,65.385C402.89,65.385,403.346,65.385,403.802,65.385C404.259,65.385,404.715,56.667,405.171,52.308C405.627,47.949,406.084,45.769,406.54,39.231C406.996,32.692,407.452,13.077,407.909,13.077C408.365,13.077,408.821,54.487,409.278,78.462C409.734,102.436,410.19,113.333,410.646,156.923C411.103,200.513,411.559,340,412.015,340C412.471,340,412.928,340,413.384,340C413.84,340,414.297,340,414.753,340C415.209,340,415.665,340,416.122,340C416.578,340,417.034,340,417.49,340C417.947,340,418.403,340,418.859,340C419.316,340,419.772,340,420.228,340C420.684,340,421.141,340,421.597,340C422.053,340,422.51,340,422.966,340C423.422,340,423.878,340,424.335,340C424.791,340,425.247,340,425.703,340C426.16,340,426.616,313.846,427.072,313.846C427.529,313.846,427.985,313.846,428.441,313.846C428.897,313.846,429.354,289.872,429.81,274.615C430.266,259.359,430.722,222.308,431.179,222.308C431.635,222.308,432.091,287.692,432.548,287.692C433.004,287.692,433.46,283.333,433.916,274.615C434.373,265.897,434.829,222.308,435.285,222.308C435.741,222.308,436.198,248.462,436.654,248.462C437.11,248.462,437.567,248.462,438.023,248.462C438.479,248.462,438.935,248.462,439.392,248.462C439.848,248.462,440.304,235.385,440.76,235.385C441.217,235.385,441.673,239.744,442.129,248.462C442.586,257.179,443.042,326.923,443.498,326.923C443.954,326.923,444.411,326.923,444.867,326.923C445.323,326.923,445.779,340,446.236,340C446.692,340,447.148,340,447.605,340C448.061,340,448.517,340,448.973,340C449.43,340,449.886,307.308,450.342,287.692C450.798,268.077,451.255,222.308,451.711,222.308C452.167,222.308,452.624,261.538,453.08,274.615C453.536,287.692,453.992,300.769,454.449,300.769C454.905,300.769,455.361,294.231,455.817,287.692C456.274,281.154,456.73,261.538,457.186,261.538C457.643,261.538,458.099,274.615,458.555,287.692C459.011,300.769,459.468,340,459.924,340C460.38,340,460.837,331.282,461.293,326.923C461.749,322.564,462.205,313.846,462.662,313.846C463.118,313.846,463.574,340,464.03,340C464.487,340,464.943,340,465.399,340C465.856,340,466.312,340,466.768,340C467.224,340,467.681,340,468.137,340C468.593,340,469.049,340,469.506,340C469.962,340,470.418,340,470.875,340C471.331,340,471.787,340,472.243,340C472.7,340,473.156,340,473.612,340C474.068,340,474.525,340,474.981,340C475.437,340,475.894,340,476.35,340C476.806,340,477.262,340,477.719,340C478.175,340,478.631,340,479.087,340C479.544,340,480,340,480.456,340C480.913,340,481.369,340,481.825,340C482.281,340,482.738,340,483.194,340C483.65,340,484.106,340,484.563,340C485.019,340,485.475,340,485.932,340C486.388,340,486.844,340,487.3,340C487.757,340,488.213,340,488.669,340C489.125,340,489.582,340,490.038,340C490.494,340,490.951,340,491.407,340C491.863,340,492.319,340,492.776,340C493.232,340,493.688,340,494.144,340C494.601,340,495.057,340,495.513,340C495.97,340,496.426,340,496.882,340C497.338,340,497.795,340,498.251,340C498.707,340,499.163,340,499.62,340C500.076,340,500.532,340,500.989,340C501.445,340,501.901,340,502.357,340C502.814,340,503.27,340,503.726,340C504.183,340,504.639,340,505.095,340C505.551,340,506.008,340,506.464,340C506.92,340,507.376,340,507.833,340C508.289,340,508.745,340,509.202,340C509.658,340,510.114,340,510.57,340C511.027,340,511.483,340,511.939,340C512.395,340,512.852,340,513.308,340C513.764,340,514.221,340,514.677,340C515.133,340,515.589,340,516.046,340C516.502,340,516.958,340,517.414,340C517.871,340,518.327,340,518.783,340C519.24,340,519.696,340,520.152,340C520.608,340,521.065,340,521.521,340C521.977,340,522.433,340,522.89,340C523.346,340,523.802,340,524.259,340C524.715,340,525.171,340,525.627,340C526.084,340,526.54,340,526.996,340C527.452,340,527.909,340,528.365,340C528.821,340,529.278,340,529.734,340C530.19,340,530.646,340,531.103,340C531.559,340,532.015,340,532.471,340C532.928,340,533.384,340,533.84,340C534.297,340,534.753,340,535.209,340C535.665,340,536.122,340,536.578,340C537.034,340,537.49,340,537.947,340C538.403,340,538.859,340,539.316,340C539.772,340,540.228,340,540.684,340C541.141,340,541.597,340,542.053,340C542.51,340,542.966,340,543.422,340C543.878,340,544.335,340,544.791,340C545.247,340,545.703,340,546.16,340C546.616,340,547.072,340,547.529,340C547.985,340,548.441,340,548.897,340C549.354,340,549.81,340,550.266,340C550.722,340,551.179,340,551.635,340C552.091,340,552.548,340,553.004,340C553.46,340,553.916,340,554.373,340C554.829,340,555.285,340,555.741,340C556.198,340,556.654,340,557.11,340C557.567,340,558.023,340,558.479,340C558.935,340,559.392,340,559.848,340C560.304,340,560.76,340,561.217,340C561.673,340,562.129,340,562.586,340C563.042,340,563.498,340,563.954,340C564.411,340,564.867,340,565.323,340C565.779,340,566.236,340,566.692,340C567.148,340,567.605,340,568.061,340C568.517,340,568.973,340,569.43,340C569.886,340,570.342,340,570.798,340C571.255,340,571.711,340,572.167,340C572.624,340,573.08,340,573.536,340C573.992,340,574.449,340,574.905,340C575.361,340,575.817,340,576.274,340C576.73,340,577.186,340,577.643,340C578.099,340,578.555,326.923,579.011,326.923C579.468,326.923,579.924,326.923,580.38,326.923C580.837,326.923,581.293,326.923,581.749,326.923C582.205,326.923,582.662,326.923,583.118,326.923C583.574,326.923,584.03,326.923,584.487,326.923C584.943,326.923,585.399,326.923,585.856,326.923C586.312,326.923,586.768,326.923,587.224,326.923C587.681,326.923,588.137,326.923,588.593,326.923C589.049,326.923,589.506,326.923,589.962,326.923C590.418,326.923,590.875,326.923,591.331,326.923C591.787,326.923,592.243,326.923,592.7,326.923C593.156,326.923,593.612,326.923,594.068,326.923C594.525,326.923,594.981,326.923,595.437,326.923C595.894,326.923,596.35,326.923,596.806,326.923C597.262,326.923,597.719,326.923,598.175,326.923C598.631,326.923,599.087,326.923,599.544,326.923C600,326.923,600.456,326.923,600.913,326.923C601.369,326.923,601.825,326.923,602.281,326.923C602.738,326.923,603.194,326.923,603.65,326.923C604.106,326.923,604.563,326.923,605.019,326.923C605.475,326.923,605.932,326.923,606.388,326.923C606.844,326.923,607.3,326.923,607.757,326.923C608.213,326.923,608.669,326.923,609.125,326.923C609.582,326.923,610.038,326.923,610.494,326.923C610.951,326.923,611.407,326.923,611.863,326.923C612.319,326.923,612.776,326.923,613.232,326.923C613.688,326.923,614.144,326.923,614.601,326.923C615.057,326.923,615.513,326.923,615.97,326.923C616.426,326.923,616.882,326.923,617.338,326.923C617.795,326.923,618.251,326.923,618.707,326.923C619.163,326.923,619.62,326.923,620.076,326.923C620.532,326.923,620.989,326.923,621.445,326.923C621.901,326.923,622.357,326.923,622.814,326.923C623.27,326.923,623.726,326.923,624.183,326.923C624.639,326.923,625.095,326.923,625.551,326.923C626.008,326.923,626.464,326.923,626.92,326.923C627.376,326.923,627.833,326.923,628.289,326.923C628.745,326.923,629.202,326.923,629.658,326.923C630.114,326.923,630.57,326.923,631.027,326.923C631.483,326.923,631.939,326.923,632.395,326.923C632.852,326.923,633.308,326.923,633.764,326.923C634.221,326.923,634.677,326.923,635.133,326.923C635.589,326.923,636.046,326.923,636.502,326.923C636.958,326.923,637.414,326.923,637.871,326.923C638.327,326.923,638.783,326.923,639.24,326.923C639.696,326.923,640.152,326.923,640.608,326.923C641.065,326.923,641.521,326.923,641.977,326.923C642.433,326.923,642.89,326.923,643.346,326.923C643.802,326.923,644.259,326.923,644.715,326.923C645.171,326.923,645.627,326.923,646.084,326.923C646.54,326.923,646.996,326.923,647.452,326.923C647.909,326.923,648.365,326.923,648.821,326.923C649.278,326.923,649.734,326.923,650.19,326.923C650.646,326.923,651.103,326.923,651.559,326.923C652.015,326.923,652.471,326.923,652.928,326.923C653.384,326.923,653.84,326.923,654.297,326.923C654.753,326.923,655.209,326.923,655.665,326.923C656.122,326.923,656.578,326.923,657.034,326.923C657.49,326.923,657.947,326.923,658.403,326.923C658.859,326.923,659.316,326.923,659.772,326.923C660.228,326.923,660.684,326.923,661.141,326.923C661.597,326.923,662.053,326.923,662.51,326.923C662.966,326.923,663.422,326.923,663.878,326.923C664.335,326.923,664.791,326.923,665.247,326.923C665.703,326.923,666.16,326.923,666.616,326.923C667.072,326.923,667.529,326.923,667.985,326.923C668.441,326.923,668.897,326.923,669.354,326.923C669.81,326.923,670.266,326.923,670.722,326.923C671.179,326.923,671.635,326.923,672.091,326.923C672.548,326.923,673.004,326.923,673.46,326.923C673.916,326.923,674.373,326.923,674.829,326.923C675.285,326.923,675.741,326.923,676.198,326.923C676.654,326.923,677.11,326.923,677.567,326.923C678.023,326.923,678.479,326.923,678.935,326.923C679.392,326.923,679.848,326.923,680.304,326.923C680.76,326.923,681.217,326.923,681.673,326.923C682.129,326.923,682.586,326.923,683.042,326.923C683.498,326.923,683.954,326.923,684.411,326.923C684.867,326.923,685.323,326.923,685.779,326.923C686.236,326.923,686.692,326.923,687.148,326.923C687.605,326.923,688.061,326.923,688.517,326.923C688.973,326.923,689.43,326.923,689.886,326.923C690.342,326.923,690.798,326.923,691.255,326.923C691.711,326.923,692.167,326.923,692.624,326.923C693.08,326.923,693.536,326.923,693.992,326.923C694.449,326.923,694.905,326.923,695.361,326.923C695.817,326.923,696.274,326.923,696.73,326.923C697.186,326.923,697.643,326.923,698.099,326.923C698.555,326.923,699.011,326.923,699.468,326.923C699.924,326.923,700.38,326.923,700.837,326.923C701.293,326.923,701.749,326.923,702.205,326.923C702.662,326.923,703.118,326.923,703.574,326.923C704.03,326.923,704.487,326.923,704.943,326.923C705.399,326.923,705.856,326.923,706.312,326.923C706.768,326.923,707.224,326.923,707.681,326.923C708.137,326.923,708.593,326.923,709.049,326.923C709.506,326.923,709.962,326.923,710.418,326.923C710.875,326.923,711.331,326.923,711.787,326.923C712.243,326.923,712.7,326.923,713.156,326.923C713.612,326.923,714.068,326.923,714.525,326.923C714.981,326.923,715.437,326.923,715.894,326.923C716.35,326.923,716.806,326.923,717.262,326.923C717.719,326.923,718.175,326.923,718.631,326.923C719.087,326.923,719.544,326.923,720,326.923"></path><circle class="dot" cx="0" cy="340" r="3" fill="#2563eb"></circle><circle class="dot" cx="1.3688212927756653" cy="340" r="3" fill="#2563eb"></circle><circle class="dot" cx="2.7376425855513307" cy="340" r="3" fill="#2563eb"></circle><circle class="dot" cx="4.106463878326997" cy="340" r="3" fill="#2563eb"></circle><circle class="dot" cx="5.475285171102661" cy="340" r="3" fill="#2563eb"></circle><circle class="dot" cx="6.844106463878327" cy="340" r="3" fill="#2563eb"></circle><circle class="dot" cx="8.212927756653993" cy="340" r="3" fill="#2563eb"></circle><circle class="dot" cx="9.581749049429657" cy="340" r="3" fill="#2563eb"></circle><circle class="dot" cx="10.950570342205323" cy="287.6923076923077" r="3" fill="#2563eb"></circle><circle class="dot" cx="12.319391634980988" cy="274.61538461538464" r="3" fill="#2563eb"></circle><circle class="dot" cx="13.688212927756654" cy="300.7692307692308" r="3" fill="#2563eb"></circle><circle class="dot" cx="15.057034220532318" cy="326.9230769230769" r="3" fill="#2563eb"></circle><circle class="dot" cx="16.425855513307987" cy="313.84615384615387" r="3" fill="#2563eb"></circle><circle class="dot" cx="17.79467680608365" cy="274.61538461538464" r="3" fill="#2563eb"></circle><circle class="dot" cx="19.163498098859314" cy="300.7692307692308" r="3" fill="#2563eb"></circle><circle class="dot" cx="20.53231939163498" cy="300.7692307692308" r="3" fill="#2563eb"></circle><circle class="dot" cx="21.901140684410645" cy="300.7692307692308" r="3" fill="#2563eb"></circle><circle class="dot" cx="23.269961977186313" cy="300.7692307692308" r="3" fill="#2563eb"></circle><circle class="dot" cx="24.638783269961976" cy="326.9230769230769" r="3" fill="#2563eb"></circle><circle class="dot" cx="26.00760456273764" cy="313.84615384615387" r="3" fill="#2563eb"></circle><circle class="dot" cx="27.376425855513308" cy="300.7692307692308" r="3" fill="#2563eb"></circle><circle class="dot" cx="28.745247148288975" cy="340" r="3" fill="#2563eb"></circle><circle class="dot" cx="30.114068441064635" cy="340" r="3" fill="#2563eb"></circle><circle class="dot" cx="31.482889733840302" cy="340" r="3" fill="#2563eb"></circle><circle class="dot" cx="32.85171102661597" cy="313.84615384615387" r="3" fill="#2563eb"></circle><circle class="dot" cx="34.22053231939163" cy="326.9230769230769" r="3" fill="#2563eb"></circle><circle class="dot" cx="35.5893536121673" cy="313.84615384615387" r="3" fill="#2563eb"></circle><circle class="dot" cx="36.958174904942965" cy="274.61538461538464" r="3" fill="#2563eb"></circle><circle class="dot" cx="38.32699619771863" cy="261.5384615384615" r="3" fill="#2563eb"></circle><circle class="dot" cx="39.6958174904943" cy="274.61538461538464" r="3" fill="#2563eb"></circle><circle class="dot" cx="41.06463878326996" cy="287.6923076923077" r="3" fill="#2563eb"></circle><circle class="dot" cx="42.43346007604563" cy="235.3846153846154" r="3" fill="#2563eb"></circle><circle class="dot" cx="43.80228136882129" cy="261.5384615384615" r="3" fill="#2563eb"></circle><circle class="dot" cx="45.171102661596954" cy="287.6923076923077" r="3" fill="#2563eb"></circle><circle class="dot" cx="46.539923954372625" cy="287.6923076923077" r="3" fill="#2563eb"></circle><circle class="dot" cx="47.90874524714829" cy="287.6923076923077" r="3" fill="#2563eb"></circle><circle class="dot" cx="49.27756653992395" cy="300.7692307692308" r="3" fill="#2563eb"></circle><circle class="dot" cx="50.646387832699624" cy="313.84615384615387" r="3" fill="#2563eb"></circle><circle class="dot" cx="52.01520912547528" cy="235.3846153846154" r="3" fill="#2563eb"></circle><circle class="dot" cx="53.384030418250944" cy="261.5384615384615" r="3" fill="#2563eb"></circle><circle class="dot" cx="54.752851711026615" cy="313.84615384615387" r="3" fill="#2563eb"></circle><circle class="dot" cx="56.12167300380228" cy="287.6923076923077" r="3" fill="#2563eb"></circle><circle class="dot" cx="57.49049429657795" cy="300.7692307692308" r="3" fill="#2563eb"></circle><circle class="dot" cx="58.85931558935361" cy="300.7692307692308" r="3" fill="#2563eb"></circle><circle class="dot" cx="60.22813688212927" cy="313.84615384615387" r="3" fill="#2563eb"></circle><circle class="dot" cx="61.59695817490494" cy="261.5384615384615" r="3" fill="#2563eb"></circle><circle class="dot" cx="62.965779467680605" cy="261.5384615384615" r="3" fill="#2563eb"></circle><circle class="dot" cx="64.33460076045627" cy="248.46153846153845" r="3" fill="#2563eb"></circle><circle class="dot" cx="65.70342205323195" cy="248.46153846153845" r="3" fill="#2563eb"></circle><circle class="dot" cx="67.07224334600761" cy="261.5384615384615" r="3" fill="#2563eb"></circle><circle class="dot" cx="68.44106463878326" cy="248.46153846153845" r="3" fill="#2563eb"></circle><circle class="dot" cx="69.80988593155894" cy="248.46153846153845" r="3" fill="#2563eb"></circle><circle class="dot" cx="71.1787072243346" cy="274.61538461538464" r="3" fill="#2563eb"></circle><circle class="dot" cx="72.54752851711027" cy="287.6923076923077" r="3" fill="#2563eb"></circle><circle class="dot" cx="73.91634980988593" cy="313.84615384615387" r="3" fill="#2563eb"></circle><circle class="dot" cx="75.28517110266161" cy="326.9230769230769" r="3" fill="#2563eb"></circle><circle class="dot" cx="76.65399239543726" cy="313.84615384615387" r="3" fill="#2563eb"></circle><circle class="dot" cx="78.02281368821292" cy="340" r="3" fill="#2563eb"></circle><circle class="dot" cx="79.3916349809886" cy="326.9230769230769" r="3" fill="#2563eb"></circle><circle class="dot" cx="80.76045627376426" cy="326.9230769230769" r="3" fill="#2563eb"></circle><circle class="dot" cx="82.12927756653993" cy="326.9230769230769" r="3" fill="#2563eb"></circle><circle class="dot" cx="83.49809885931559" cy="340" r="3" fill="#2563eb"></circle><circle class="dot" cx="84.86692015209125" cy="274.61538461538464" r="3" fill="#2563eb"></circle><circle class="dot" cx="86.23574144486692" cy="235.3846153846154" r="3" fill="#2563eb"></circle><circle class="dot" cx="87.60456273764258" cy="248.46153846153845" r="3" fill="#2563eb"></circle><circle class="dot" cx="88.97338403041826" cy="274.61538461538464" r="3" fill="#2563eb"></circle><circle class="dot" cx="90.34220532319391" cy="300.7692307692308" r="3" fill="#2563eb"></circle><circle class="dot" cx="91.71102661596959" cy="313.84615384615387" r="3" fill="#2563eb"></circle><circle class="dot" cx="93.07984790874525" cy="300.7692307692308" r="3" fill="#2563eb"></circle><circle class="dot" cx="94.44866920152091" cy="287.6923076923077" r="3" fill="#2563eb"></circle><circle class="dot" cx="95.81749049429658" cy="287.6923076923077" r="3" fill="#2563eb"></circle><circle class="dot" cx="97.18631178707224" cy="287.6923076923077" r="3" fill="#2563eb"></circle><circle class="dot" cx="98.5551330798479" cy="287.6923076923077" r="3" fill="#2563eb"></circle><circle class="dot" cx="99.92395437262357" cy="261.5384615384615" r="3" fill="#2563eb"></circle><circle class="dot" cx="101.29277566539925" cy="274.61538461538464" r="3" fill="#2563eb"></circle><circle class="dot" cx="102.6615969581749" cy="313.84615384615387" r="3" fill="#2563eb"></circle><circle class="dot" cx="104.03041825095056" cy="313.84615384615387" r="3" fill="#2563eb"></circle><circle class="dot" cx="105.39923954372624" cy="313.84615384615387" r="3" fill="#2563eb"></circle><circle class="dot" cx="106.76806083650189" cy="313.84615384615387" r="3" fill="#2563eb"></circle><circle class="dot" cx="108.13688212927757" cy="326.9230769230769" r="3" fill="#2563eb"></circle><circle class="dot" cx="109.50570342205323" cy="300.7692307692308" r="3" fill="#2563eb"></circle><circle class="dot" cx="110.87452471482891" cy="300.7692307692308" r="3" fill="#2563eb"></circle><circle class="dot" cx="112.24334600760456" cy="287.6923076923077" r="3" fill="#2563eb"></circle><circle class="dot" cx="113.61216730038022" cy="300.7692307692308" r="3" fill="#2563eb"></circle><circle class="dot" cx="114.9809885931559" cy="300.7692307692308" r="3" fill="#2563eb"></circle><circle class="dot" cx="116.34980988593155" cy="313.84615384615387" r="3" fill="#2563eb"></circle><circle class="dot" cx="117.71863117870723" cy="340" r="3" fill="#2563eb"></circle><circle class="dot" cx="119.08745247148289" cy="340" r="3" fill="#2563eb"></circle><circle class="dot" cx="120.45627376425854" cy="340" r="3" fill="#2563eb"></circle><circle class="dot" cx="121.82509505703422" cy="340" r="3" fill="#2563eb"></circle><circle class="dot" cx="123.19391634980988" cy="340" r="3" fill="#2563eb"></circle><circle class="dot" cx="124.56273764258556" cy="340" r="3" fill="#2563eb"></circle><circle class="dot" cx="125.93155893536121" cy="340" r="3" fill="#2563eb"></circle><circle class="dot" cx="127.30038022813689" cy="340" r="3" fill="#2563eb"></circle><circle class="dot" cx="128.66920152091254" cy="340" r="3" fill="#2563eb"></circle><circle class="dot" cx="130.0380228136882" cy="340" r="3" fill="#2563eb"></circle><circle class="dot" cx="131.4068441064639" cy="340" r="3" fill="#2563eb"></circle><circle class="dot" cx="132.77566539923953" cy="340" r="3" fill="#2563eb"></circle><circle class="dot" cx="134.14448669201522" cy="340" r="3" fill="#2563eb"></circle><circle class="dot" cx="135.51330798479088" cy="340" r="3" fill="#2563eb"></circle><circle class="dot" cx="136.88212927756652" cy="340" r="3" fill="#2563eb"></circle><circle class="dot" cx="138.2509505703422" cy="340" r="3" fill="#2563eb"></circle><circle class="dot" cx="139.61977186311788" cy="340" r="3" fill="#2563eb"></circle><circle class="dot" cx="140.98859315589354" cy="340" r="3" fill="#2563eb"></circle><circle class="dot" cx="142.3574144486692" cy="274.61538461538464" r="3" fill="#2563eb"></circle><circle class="dot" cx="143.72623574144487" cy="340" r="3" fill="#2563eb"></circle><circle class="dot" cx="145.09505703422053" cy="340" r="3" fill="#2563eb"></circle><circle class="dot" cx="146.4638783269962" cy="340" r="3" fill="#2563eb"></circle><circle class="dot" cx="147.83269961977186" cy="326.9230769230769" r="3" fill="#2563eb"></circle><circle class="dot" cx="149.20152091254752" cy="248.46153846153845" r="3" fill="#2563eb"></circle><circle class="dot" cx="150.57034220532321" cy="261.5384615384615" r="3" fill="#2563eb"></circle><circle class="dot" cx="151.93916349809885" cy="340" r="3" fill="#2563eb"></circle><circle class="dot" cx="153.3079847908745" cy="326.9230769230769" r="3" fill="#2563eb"></circle><circle class="dot" cx="154.6768060836502" cy="313.84615384615387" r="3" fill="#2563eb"></circle><circle class="dot" cx="156.04562737642584" cy="326.9230769230769" r="3" fill="#2563eb"></circle><circle class="dot" cx="157.41444866920153" cy="313.84615384615387" r="3" fill="#2563eb"></circle><circle class="dot" cx="158.7832699619772" cy="313.84615384615387" r="3" fill="#2563eb"></circle><circle class="dot" cx="160.15209125475283" cy="313.84615384615387" r="3" fill="#2563eb"></circle><circle class="dot" cx="161.52091254752852" cy="340" r="3" fill="#2563eb"></circle><circle class="dot" cx="162.8897338403042" cy="340" r="3" fill="#2563eb"></circle><circle class="dot" cx="164.25855513307985" cy="340" r="3" fill="#2563eb"></circle><circle class="dot" cx="165.62737642585552" cy="326.9230769230769" r="3" fill="#2563eb"></circle><circle class="dot" cx="166.99619771863118" cy="340" r="3" fill="#2563eb"></circle><circle class="dot" cx="168.36501901140684" cy="340" r="3" fill="#2563eb"></circle><circle class="dot" cx="169.7338403041825" cy="340" r="3" fill="#2563eb"></circle><circle class="dot" cx="171.10266159695817" cy="340" r="3" fill="#2563eb"></circle><circle class="dot" cx="172.47148288973384" cy="340" r="3" fill="#2563eb"></circle><circle class="dot" cx="173.8403041825095" cy="340" r="3" fill="#2563eb"></circle><circle class="dot" cx="175.20912547528516" cy="340" r="3" fill="#2563eb"></circle><circle class="dot" cx="176.57794676806083" cy="340" r="3" fill="#2563eb"></circle><circle class="dot" cx="177.94676806083652" cy="340" r="3" fill="#2563eb"></circle><circle class="dot" cx="179.31558935361215" cy="340" r="3" fill="#2563eb"></circle><circle class="dot" cx="180.68441064638782" cy="340" r="3" fill="#2563eb"></circle><circle class="dot" cx="182.05323193916348" cy="340" r="3" fill="#2563eb"></circle><circle class="dot" cx="183.42205323193917" cy="340" r="3" fill="#2563eb"></circle><circle class="dot" cx="184.7908745247148" cy="340" r="3" fill="#2563eb"></circle><circle class="dot" cx="186.1596958174905" cy="340" r="3" fill="#2563eb"></circle><circle class="dot" cx="187.52851711026616" cy="340" r="3" fill="#2563eb"></circle><circle class="dot" cx="188.89733840304183" cy="340" r="3" fill="#2563eb"></circle><circle class="dot" cx="190.26615969581746" cy="340" r="3" fill="#2563eb"></circle><circle class="dot" cx="191.63498098859316" cy="340" r="3" fill="#2563eb"></circle><circle class="dot" cx="193.00380228136882" cy="340" r="3" fill="#2563eb"></circle><circle class="dot" cx="194.37262357414448" cy="340" r="3" fill="#2563eb"></circle><circle class="dot" cx="195.74144486692015" cy="340" r="3" fill="#2563eb"></circle><circle class="dot" cx="197.1102661596958" cy="340" r="3" fill="#2563eb"></circle><circle class="dot" cx="198.4790874524715" cy="340" r="3" fill="#2563eb"></circle><circle class="dot" cx="199.84790874524714" cy="340" r="3" fill="#2563eb"></circle><circle class="dot" cx="201.2167300380228" cy="340" r="3" fill="#2563eb"></circle><circle class="dot" cx="202.5855513307985" cy="340" r="3" fill="#2563eb"></circle><circle class="dot" cx="203.95437262357413" cy="340" r="3" fill="#2563eb"></circle><circle class="dot" cx="205.3231939163498" cy="340" r="3" fill="#2563eb"></circle><circle class="dot" cx="206.6920152091255" cy="340" r="3" fill="#2563eb"></circle><circle class="dot" cx="208.06083650190112" cy="313.84615384615387" r="3" fill="#2563eb"></circle><circle class="dot" cx="209.42965779467679" cy="326.9230769230769" r="3" fill="#2563eb"></circle><circle class="dot" cx="210.79847908745248" cy="340" r="3" fill="#2563eb"></circle><circle class="dot" cx="212.16730038022814" cy="326.9230769230769" r="3" fill="#2563eb"></circle><circle class="dot" cx="213.53612167300378" cy="313.84615384615387" r="3" fill="#2563eb"></circle><circle class="dot" cx="214.90494296577947" cy="313.84615384615387" r="3" fill="#2563eb"></circle><circle class="dot" cx="216.27376425855513" cy="300.7692307692308" r="3" fill="#2563eb"></circle><circle class="dot" cx="217.64258555133077" cy="274.61538461538464" r="3" fill="#2563eb"></circle><circle class="dot" cx="219.01140684410646" cy="274.61538461538464" r="3" fill="#2563eb"></circle><circle class="dot" cx="220.38022813688212" cy="287.6923076923077" r="3" fill="#2563eb"></circle><circle class="dot" cx="221.74904942965782" cy="300.7692307692308" r="3" fill="#2563eb"></circle><circle class="dot" cx="223.11787072243345" cy="300.7692307692308" r="3" fill="#2563eb"></circle><circle class="dot" cx="224.48669201520912" cy="287.6923076923077" r="3" fill="#2563eb"></circle><circle class="dot" cx="225.8555133079848" cy="300.7692307692308" r="3" fill="#2563eb"></circle><circle class="dot" cx="227.22433460076044" cy="300.7692307692308" r="3" fill="#2563eb"></circle><circle class="dot" cx="228.5931558935361" cy="274.61538461538464" r="3" fill="#2563eb"></circle><circle class="dot" cx="229.9619771863118" cy="274.61538461538464" r="3" fill="#2563eb"></circle><circle class="dot" cx="231.33079847908746" cy="261.5384615384615" r="3" fill="#2563eb"></circle><circle class="dot" cx="232.6996197718631" cy="261.5384615384615" r="3" fill="#2563eb"></circle><circle class="dot" cx="234.0684410646388" cy="248.46153846153845" r="3" fill="#2563eb"></circle><circle class="dot" cx="235.43726235741445" cy="261.5384615384615" r="3" fill="#2563eb"></circle><circle class="dot" cx="236.8060836501901" cy="274.61538461538464" r="3" fill="#2563eb"></circle><circle class="dot" cx="238.17490494296578" cy="274.61538461538464" r="3" fill="#2563eb"></circle><circle class="dot" cx="239.54372623574145" cy="287.6923076923077" r="3" fill="#2563eb"></circle><circle class="dot" cx="240.91254752851708" cy="287.6923076923077" r="3" fill="#2563eb"></circle><circle class="dot" cx="242.28136882129277" cy="274.61538461538464" r="3" fill="#2563eb"></circle><circle class="dot" cx="243.65019011406844" cy="248.46153846153845" r="3" fill="#2563eb"></circle><circle class="dot" cx="245.01901140684413" cy="235.3846153846154" r="3" fill="#2563eb"></circle><circle class="dot" cx="246.38783269961976" cy="235.3846153846154" r="3" fill="#2563eb"></circle><circle class="dot" cx="247.75665399239543" cy="235.3846153846154" r="3" fill="#2563eb"></circle><circle class="dot" cx="249.12547528517112" cy="248.46153846153845" r="3" fill="#2563eb"></circle><circle class="dot" cx="250.49429657794676" cy="222.30769230769232" r="3" fill="#2563eb"></circle><circle class="dot" cx="251.86311787072242" cy="196.15384615384616" r="3" fill="#2563eb"></circle><circle class="dot" cx="253.2319391634981" cy="209.23076923076925" r="3" fill="#2563eb"></circle><circle class="dot" cx="254.60076045627378" cy="235.3846153846154" r="3" fill="#2563eb"></circle><circle class="dot" cx="255.9695817490494" cy="209.23076923076925" r="3" fill="#2563eb"></circle><circle class="dot" cx="257.3384030418251" cy="248.46153846153845" r="3" fill="#2563eb"></circle><circle class="dot" cx="258.70722433460077" cy="248.46153846153845" r="3" fill="#2563eb"></circle><circle class="dot" cx="260.0760456273764" cy="222.30769230769232" r="3" fill="#2563eb"></circle><circle class="dot" cx="261.4448669201521" cy="235.3846153846154" r="3" fill="#2563eb"></circle><circle class="dot" cx="262.8136882129278" cy="248.46153846153845" r="3" fill="#2563eb"></circle><circle class="dot" cx="264.1825095057034" cy="248.46153846153845" r="3" fill="#2563eb"></circle><circle class="dot" cx="265.55133079847906" cy="196.15384615384616" r="3" fill="#2563eb"></circle><circle class="dot" cx="266.92015209125475" cy="196.15384615384616" r="3" fill="#2563eb"></circle><circle class="dot" cx="268.28897338403044" cy="183.0769230769231" r="3" fill="#2563eb"></circle><circle class="dot" cx="269.6577946768061" cy="248.46153846153845" r="3" fill="#2563eb"></circle><circle class="dot" cx="271.02661596958177" cy="248.46153846153845" r="3" fill="#2563eb"></circle><circle class="dot" cx="272.3954372623574" cy="196.15384615384616" r="3" fill="#2563eb"></circle><circle class="dot" cx="273.76425855513304" cy="183.0769230769231" r="3" fill="#2563eb"></circle><circle class="dot" cx="275.13307984790873" cy="183.0769230769231" r="3" fill="#2563eb"></circle><circle class="dot" cx="276.5019011406844" cy="183.0769230769231" r="3" fill="#2563eb"></circle><circle class="dot" cx="277.8707224334601" cy="196.15384615384616" r="3" fill="#2563eb"></circle><circle class="dot" cx="279.23954372623575" cy="209.23076923076925" r="3" fill="#2563eb"></circle><circle class="dot" cx="280.6083650190114" cy="196.15384615384616" r="3" fill="#2563eb"></circle><circle class="dot" cx="281.9771863117871" cy="183.0769230769231" r="3" fill="#2563eb"></circle><circle class="dot" cx="283.3460076045627" cy="248.46153846153845" r="3" fill="#2563eb"></circle><circle class="dot" cx="284.7148288973384" cy="326.9230769230769" r="3" fill="#2563eb"></circle><circle class="dot" cx="286.0836501901141" cy="326.9230769230769" r="3" fill="#2563eb"></circle><circle class="dot" cx="287.45247148288973" cy="313.84615384615387" r="3" fill="#2563eb"></circle><circle class="dot" cx="288.82129277566537" cy="300.7692307692308" r="3" fill="#2563eb"></circle><circle class="dot" cx="290.19011406844106" cy="287.6923076923077" r="3" fill="#2563eb"></circle><circle class="dot" cx="291.55893536121675" cy="287.6923076923077" r="3" fill="#2563eb"></circle><circle class="dot" cx="292.9277566539924" cy="300.7692307692308" r="3" fill="#2563eb"></circle><circle class="dot" cx="294.2965779467681" cy="287.6923076923077" r="3" fill="#2563eb"></circle><circle class="dot" cx="295.6653992395437" cy="287.6923076923077" r="3" fill="#2563eb"></circle><circle class="dot" cx="297.03422053231935" cy="313.84615384615387" r="3" fill="#2563eb"></circle><circle class="dot" cx="298.40304182509504" cy="300.7692307692308" r="3" fill="#2563eb"></circle><circle class="dot" cx="299.77186311787074" cy="274.61538461538464" r="3" fill="#2563eb"></circle><circle class="dot" cx="301.14068441064643" cy="274.61538461538464" r="3" fill="#2563eb"></circle><circle class="dot" cx="302.50950570342206" cy="287.6923076923077" r="3" fill="#2563eb"></circle><circle class="dot" cx="303.8783269961977" cy="300.7692307692308" r="3" fill="#2563eb"></circle><circle class="dot" cx="305.2471482889734" cy="222.30769230769232" r="3" fill="#2563eb"></circle><circle class="dot" cx="306.615969581749" cy="196.15384615384616" r="3" fill="#2563eb"></circle><circle class="dot" cx="307.9847908745247" cy="222.30769230769232" r="3" fill="#2563eb"></circle><circle class="dot" cx="309.3536121673004" cy="222.30769230769232" r="3" fill="#2563eb"></circle><circle class="dot" cx="310.72243346007605" cy="235.3846153846154" r="3" fill="#2563eb"></circle><circle class="dot" cx="312.0912547528517" cy="326.9230769230769" r="3" fill="#2563eb"></circle><circle class="dot" cx="313.4600760456274" cy="274.61538461538464" r="3" fill="#2563eb"></circle><circle class="dot" cx="314.82889733840307" cy="222.30769230769232" r="3" fill="#2563eb"></circle><circle class="dot" cx="316.1977186311787" cy="248.46153846153845" r="3" fill="#2563eb"></circle><circle class="dot" cx="317.5665399239544" cy="287.6923076923077" r="3" fill="#2563eb"></circle><circle class="dot" cx="318.93536121673003" cy="300.7692307692308" r="3" fill="#2563eb"></circle><circle class="dot" cx="320.30418250950567" cy="313.84615384615387" r="3" fill="#2563eb"></circle><circle class="dot" cx="321.67300380228136" cy="340" r="3" fill="#2563eb"></circle><circle class="dot" cx="323.04182509505705" cy="340" r="3" fill="#2563eb"></circle><circle class="dot" cx="324.41064638783274" cy="340" r="3" fill="#2563eb"></circle><circle class="dot" cx="325.7794676806084" cy="340" r="3" fill="#2563eb"></circle><circle class="dot" cx="327.148288973384" cy="340" r="3" fill="#2563eb"></circle><circle class="dot" cx="328.5171102661597" cy="340" r="3" fill="#2563eb"></circle><circle class="dot" cx="329.88593155893534" cy="340" r="3" fill="#2563eb"></circle><circle class="dot" cx="331.25475285171103" cy="340" r="3" fill="#2563eb"></circle><circle class="dot" cx="332.6235741444867" cy="340" r="3" fill="#2563eb"></circle><circle class="dot" cx="333.99239543726236" cy="326.9230769230769" r="3" fill="#2563eb"></circle><circle class="dot" cx="335.361216730038" cy="326.9230769230769" r="3" fill="#2563eb"></circle><circle class="dot" cx="336.7300380228137" cy="326.9230769230769" r="3" fill="#2563eb"></circle><circle class="dot" cx="338.0988593155894" cy="313.84615384615387" r="3" fill="#2563eb"></circle><circle class="dot" cx="339.467680608365" cy="313.84615384615387" r="3" fill="#2563eb"></circle><circle class="dot" cx="340.8365019011407" cy="340" r="3" fill="#2563eb"></circle><circle class="dot" cx="342.20532319391634" cy="340" r="3" fill="#2563eb"></circle><circle class="dot" cx="343.57414448669203" cy="326.9230769230769" r="3" fill="#2563eb"></circle><circle class="dot" cx="344.94296577946767" cy="326.9230769230769" r="3" fill="#2563eb"></circle><circle class="dot" cx="346.31178707224336" cy="287.6923076923077" r="3" fill="#2563eb"></circle><circle class="dot" cx="347.680608365019" cy="274.61538461538464" r="3" fill="#2563eb"></circle><circle class="dot" cx="349.0494296577947" cy="287.6923076923077" r="3" fill="#2563eb"></circle><circle class="dot" cx="350.4182509505703" cy="313.84615384615387" r="3" fill="#2563eb"></circle><circle class="dot" cx="351.787072243346" cy="313.84615384615387" r="3" fill="#2563eb"></circle><circle class="dot" cx="353.15589353612165" cy="340" r="3" fill="#2563eb"></circle><circle class="dot" cx="354.52471482889734" cy="340" r="3" fill="#2563eb"></circle><circle class="dot" cx="355.89353612167304" cy="340" r="3" fill="#2563eb"></circle><circle class="dot" cx="357.2623574144487" cy="340" r="3" fill="#2563eb"></circle><circle class="dot" cx="358.6311787072243" cy="340" r="3" fill="#2563eb"></circle><circle class="dot" cx="360" cy="326.9230769230769" r="3" fill="#2563eb"></circle><circle class="dot" cx="361.36882129277564" cy="300.7692307692308" r="3" fill="#2563eb"></circle><circle class="dot" cx="362.7376425855513" cy="235.3846153846154" r="3" fill="#2563eb"></circle><circle class="dot" cx="364.10646387832696" cy="261.5384615384615" r="3" fill="#2563eb"></circle><circle class="dot" cx="365.47528517110266" cy="248.46153846153845" r="3" fill="#2563eb"></circle><circle class="dot" cx="366.84410646387835" cy="248.46153846153845" r="3" fill="#2563eb"></circle><circle class="dot" cx="368.212927756654" cy="235.3846153846154" r="3" fill="#2563eb"></circle><circle class="dot" cx="369.5817490494296" cy="196.15384615384616" r="3" fill="#2563eb"></circle><circle class="dot" cx="370.9505703422053" cy="130.76923076923075" r="3" fill="#2563eb"></circle><circle class="dot" cx="372.319391634981" cy="156.92307692307693" r="3" fill="#2563eb"></circle><circle class="dot" cx="373.6882129277567" cy="183.0769230769231" r="3" fill="#2563eb"></circle><circle class="dot" cx="375.05703422053233" cy="235.3846153846154" r="3" fill="#2563eb"></circle><circle class="dot" cx="376.42585551330797" cy="235.3846153846154" r="3" fill="#2563eb"></circle><circle class="dot" cx="377.79467680608366" cy="235.3846153846154" r="3" fill="#2563eb"></circle><circle class="dot" cx="379.1634980988593" cy="235.3846153846154" r="3" fill="#2563eb"></circle><circle class="dot" cx="380.5323193916349" cy="235.3846153846154" r="3" fill="#2563eb"></circle><circle class="dot" cx="381.9011406844107" cy="222.30769230769232" r="3" fill="#2563eb"></circle><circle class="dot" cx="383.2699619771863" cy="248.46153846153845" r="3" fill="#2563eb"></circle><circle class="dot" cx="384.63878326996195" cy="235.3846153846154" r="3" fill="#2563eb"></circle><circle class="dot" cx="386.00760456273764" cy="209.23076923076925" r="3" fill="#2563eb"></circle><circle class="dot" cx="387.3764258555133" cy="183.0769230769231" r="3" fill="#2563eb"></circle><circle class="dot" cx="388.74524714828897" cy="130.76923076923075" r="3" fill="#2563eb"></circle><circle class="dot" cx="390.11406844106466" cy="130.76923076923075" r="3" fill="#2563eb"></circle><circle class="dot" cx="391.4828897338403" cy="156.92307692307693" r="3" fill="#2563eb"></circle><circle class="dot" cx="392.85171102661593" cy="91.53846153846155" r="3" fill="#2563eb"></circle><circle class="dot" cx="394.2205323193916" cy="78.46153846153848" r="3" fill="#2563eb"></circle><circle class="dot" cx="395.58935361216726" cy="78.46153846153848" r="3" fill="#2563eb"></circle><circle class="dot" cx="396.958174904943" cy="104.61538461538463" r="3" fill="#2563eb"></circle><circle class="dot" cx="398.32699619771864" cy="91.53846153846155" r="3" fill="#2563eb"></circle><circle class="dot" cx="399.6958174904943" cy="52.307692307692314" r="3" fill="#2563eb"></circle><circle class="dot" cx="401.06463878326997" cy="52.307692307692314" r="3" fill="#2563eb"></circle><circle class="dot" cx="402.4334600760456" cy="65.38461538461542" r="3" fill="#2563eb"></circle><circle class="dot" cx="403.80228136882124" cy="65.38461538461542" r="3" fill="#2563eb"></circle><circle class="dot" cx="405.171102661597" cy="52.307692307692314" r="3" fill="#2563eb"></circle><circle class="dot" cx="406.5399239543726" cy="39.23076923076924" r="3" fill="#2563eb"></circle><circle class="dot" cx="407.90874524714826" cy="13.076923076923105" r="3" fill="#2563eb"></circle><circle class="dot" cx="409.27756653992395" cy="78.46153846153848" r="3" fill="#2563eb"></circle><circle class="dot" cx="410.6463878326996" cy="156.92307692307693" r="3" fill="#2563eb"></circle><circle class="dot" cx="412.0152091254752" cy="340" r="3" fill="#2563eb"></circle><circle class="dot" cx="413.384030418251" cy="340" r="3" fill="#2563eb"></circle><circle class="dot" cx="414.7528517110266" cy="340" r="3" fill="#2563eb"></circle><circle class="dot" cx="416.12167300380224" cy="340" r="3" fill="#2563eb"></circle><circle class="dot" cx="417.49049429657794" cy="340" r="3" fill="#2563eb"></circle><circle class="dot" cx="418.85931558935357" cy="340" r="3" fill="#2563eb"></circle><circle class="dot" cx="420.2281368821293" cy="340" r="3" fill="#2563eb"></circle><circle class="dot" cx="421.59695817490496" cy="340" r="3" fill="#2563eb"></circle><circle class="dot" cx="422.9657794676806" cy="340" r="3" fill="#2563eb"></circle><circle class="dot" cx="424.3346007604563" cy="340" r="3" fill="#2563eb"></circle><circle class="dot" cx="425.7034220532319" cy="340" r="3" fill="#2563eb"></circle><circle class="dot" cx="427.07224334600755" cy="313.84615384615387" r="3" fill="#2563eb"></circle><circle class="dot" cx="428.4410646387833" cy="313.84615384615387" r="3" fill="#2563eb"></circle><circle class="dot" cx="429.80988593155894" cy="274.61538461538464" r="3" fill="#2563eb"></circle><circle class="dot" cx="431.1787072243346" cy="222.30769230769232" r="3" fill="#2563eb"></circle><circle class="dot" cx="432.54752851711027" cy="287.6923076923077" r="3" fill="#2563eb"></circle><circle class="dot" cx="433.9163498098859" cy="274.61538461538464" r="3" fill="#2563eb"></circle><circle class="dot" cx="435.28517110266154" cy="222.30769230769232" r="3" fill="#2563eb"></circle><circle class="dot" cx="436.6539923954373" cy="248.46153846153845" r="3" fill="#2563eb"></circle><circle class="dot" cx="438.0228136882129" cy="248.46153846153845" r="3" fill="#2563eb"></circle><circle class="dot" cx="439.3916349809886" cy="248.46153846153845" r="3" fill="#2563eb"></circle><circle class="dot" cx="440.76045627376425" cy="235.3846153846154" r="3" fill="#2563eb"></circle><circle class="dot" cx="442.1292775665399" cy="248.46153846153845" r="3" fill="#2563eb"></circle><circle class="dot" cx="443.49809885931563" cy="326.9230769230769" r="3" fill="#2563eb"></circle><circle class="dot" cx="444.86692015209127" cy="326.9230769230769" r="3" fill="#2563eb"></circle><circle class="dot" cx="446.2357414448669" cy="340" r="3" fill="#2563eb"></circle><circle class="dot" cx="447.6045627376426" cy="340" r="3" fill="#2563eb"></circle><circle class="dot" cx="448.97338403041823" cy="340" r="3" fill="#2563eb"></circle><circle class="dot" cx="450.34220532319387" cy="287.6923076923077" r="3" fill="#2563eb"></circle><circle class="dot" cx="451.7110266159696" cy="222.30769230769232" r="3" fill="#2563eb"></circle><circle class="dot" cx="453.07984790874525" cy="274.61538461538464" r="3" fill="#2563eb"></circle><circle class="dot" cx="454.4486692015209" cy="300.7692307692308" r="3" fill="#2563eb"></circle><circle class="dot" cx="455.8174904942966" cy="287.6923076923077" r="3" fill="#2563eb"></circle><circle class="dot" cx="457.1863117870722" cy="261.5384615384615" r="3" fill="#2563eb"></circle><circle class="dot" cx="458.55513307984785" cy="287.6923076923077" r="3" fill="#2563eb"></circle><circle class="dot" cx="459.9239543726236" cy="340" r="3" fill="#2563eb"></circle><circle class="dot" cx="461.29277566539923" cy="326.9230769230769" r="3" fill="#2563eb"></circle><circle class="dot" cx="462.6615969581749" cy="313.84615384615387" r="3" fill="#2563eb"></circle><circle class="dot" cx="464.03041825095056" cy="340" r="3" fill="#2563eb"></circle><circle class="dot" cx="465.3992395437262" cy="340" r="3" fill="#2563eb"></circle><circle class="dot" cx="466.76806083650195" cy="340" r="3" fill="#2563eb"></circle><circle class="dot" cx="468.1368821292776" cy="340" r="3" fill="#2563eb"></circle><circle class="dot" cx="469.5057034220532" cy="340" r="3" fill="#2563eb"></circle><circle class="dot" cx="470.8745247148289" cy="340" r="3" fill="#2563eb"></circle><circle class="dot" cx="472.24334600760454" cy="340" r="3" fill="#2563eb"></circle><circle class="dot" cx="473.6121673003802" cy="340" r="3" fill="#2563eb"></circle><circle class="dot" cx="474.9809885931559" cy="340" r="3" fill="#2563eb"></circle><circle class="dot" cx="476.34980988593156" cy="340" r="3" fill="#2563eb"></circle><circle class="dot" cx="477.7186311787072" cy="340" r="3" fill="#2563eb"></circle><circle class="dot" cx="479.0874524714829" cy="340" r="3" fill="#2563eb"></circle><circle class="dot" cx="480.4562737642585" cy="340" r="3" fill="#2563eb"></circle><circle class="dot" cx="481.82509505703416" cy="340" r="3" fill="#2563eb"></circle><circle class="dot" cx="483.1939163498099" cy="340" r="3" fill="#2563eb"></circle><circle class="dot" cx="484.56273764258555" cy="340" r="3" fill="#2563eb"></circle><circle class="dot" cx="485.93155893536124" cy="340" r="3" fill="#2563eb"></circle><circle class="dot" cx="487.3003802281369" cy="340" r="3" fill="#2563eb"></circle><circle class="dot" cx="488.6692015209125" cy="340" r="3" fill="#2563eb"></circle><circle class="dot" cx="490.03802281368826" cy="340" r="3" fill="#2563eb"></circle><circle class="dot" cx="491.4068441064639" cy="340" r="3" fill="#2563eb"></circle><circle class="dot" cx="492.77566539923953" cy="340" r="3" fill="#2563eb"></circle><circle class="dot" cx="494.1444866920152" cy="340" r="3" fill="#2563eb"></circle><circle class="dot" cx="495.51330798479086" cy="340" r="3" fill="#2563eb"></circle><circle class="dot" cx="496.8821292775665" cy="340" r="3" fill="#2563eb"></circle><circle class="dot" cx="498.25095057034224" cy="340" r="3" fill="#2563eb"></circle><circle class="dot" cx="499.6197718631179" cy="340" r="3" fill="#2563eb"></circle><circle class="dot" cx="500.9885931558935" cy="340" r="3" fill="#2563eb"></circle><circle class="dot" cx="502.3574144486692" cy="340" r="3" fill="#2563eb"></circle><circle class="dot" cx="503.72623574144484" cy="340" r="3" fill="#2563eb"></circle><circle class="dot" cx="505.0950570342205" cy="340" r="3" fill="#2563eb"></circle><circle class="dot" cx="506.4638783269962" cy="340" r="3" fill="#2563eb"></circle><circle class="dot" cx="507.83269961977186" cy="340" r="3" fill="#2563eb"></circle><circle class="dot" cx="509.20152091254755" cy="340" r="3" fill="#2563eb"></circle><circle class="dot" cx="510.5703422053232" cy="340" r="3" fill="#2563eb"></circle><circle class="dot" cx="511.9391634980988" cy="340" r="3" fill="#2563eb"></circle><circle class="dot" cx="513.3079847908746" cy="340" r="3" fill="#2563eb"></circle><circle class="dot" cx="514.6768060836501" cy="340" r="3" fill="#2563eb"></circle><circle class="dot" cx="516.0456273764258" cy="340" r="3" fill="#2563eb"></circle><circle class="dot" cx="517.4144486692015" cy="340" r="3" fill="#2563eb"></circle><circle class="dot" cx="518.7832699619772" cy="340" r="3" fill="#2563eb"></circle><circle class="dot" cx="520.1520912547528" cy="340" r="3" fill="#2563eb"></circle><circle class="dot" cx="521.5209125475285" cy="340" r="3" fill="#2563eb"></circle><circle class="dot" cx="522.8897338403042" cy="340" r="3" fill="#2563eb"></circle><circle class="dot" cx="524.2585551330798" cy="340" r="3" fill="#2563eb"></circle><circle class="dot" cx="525.6273764258556" cy="340" r="3" fill="#2563eb"></circle><circle class="dot" cx="526.9961977186312" cy="340" r="3" fill="#2563eb"></circle><circle class="dot" cx="528.3650190114068" cy="340" r="3" fill="#2563eb"></circle><circle class="dot" cx="529.7338403041825" cy="340" r="3" fill="#2563eb"></circle><circle class="dot" cx="531.1026615969581" cy="340" r="3" fill="#2563eb"></circle><circle class="dot" cx="532.4714828897339" cy="340" r="3" fill="#2563eb"></circle><circle class="dot" cx="533.8403041825095" cy="340" r="3" fill="#2563eb"></circle><circle class="dot" cx="535.2091254752852" cy="340" r="3" fill="#2563eb"></circle><circle class="dot" cx="536.5779467680609" cy="340" r="3" fill="#2563eb"></circle><circle class="dot" cx="537.9467680608365" cy="340" r="3" fill="#2563eb"></circle><circle class="dot" cx="539.3155893536122" cy="340" r="3" fill="#2563eb"></circle><circle class="dot" cx="540.6844106463878" cy="340" r="3" fill="#2563eb"></circle><circle class="dot" cx="542.0532319391635" cy="340" r="3" fill="#2563eb"></circle><circle class="dot" cx="543.4220532319391" cy="340" r="3" fill="#2563eb"></circle><circle class="dot" cx="544.7908745247148" cy="340" r="3" fill="#2563eb"></circle><circle class="dot" cx="546.1596958174905" cy="340" r="3" fill="#2563eb"></circle><circle class="dot" cx="547.5285171102661" cy="340" r="3" fill="#2563eb"></circle><circle class="dot" cx="548.8973384030419" cy="340" r="3" fill="#2563eb"></circle><circle class="dot" cx="550.2661596958175" cy="340" r="3" fill="#2563eb"></circle><circle class="dot" cx="551.6349809885932" cy="340" r="3" fill="#2563eb"></circle><circle class="dot" cx="553.0038022813688" cy="340" r="3" fill="#2563eb"></circle><circle class="dot" cx="554.3726235741444" cy="340" r="3" fill="#2563eb"></circle><circle class="dot" cx="555.7414448669202" cy="340" r="3" fill="#2563eb"></circle><circle class="dot" cx="557.1102661596958" cy="340" r="3" fill="#2563eb"></circle><circle class="dot" cx="558.4790874524715" cy="340" r="3" fill="#2563eb"></circle><circle class="dot" cx="559.8479087452472" cy="340" r="3" fill="#2563eb"></circle><circle class="dot" cx="561.2167300380228" cy="340" r="3" fill="#2563eb"></circle><circle class="dot" cx="562.5855513307985" cy="340" r="3" fill="#2563eb"></circle><circle class="dot" cx="563.9543726235742" cy="340" r="3" fill="#2563eb"></circle><circle class="dot" cx="565.3231939163499" cy="340" r="3" fill="#2563eb"></circle><circle class="dot" cx="566.6920152091254" cy="340" r="3" fill="#2563eb"></circle><circle class="dot" cx="568.0608365019011" cy="340" r="3" fill="#2563eb"></circle><circle class="dot" cx="569.4296577946768" cy="340" r="3" fill="#2563eb"></circle><circle class="dot" cx="570.7984790874524" cy="340" r="3" fill="#2563eb"></circle><circle class="dot" cx="572.1673003802282" cy="340" r="3" fill="#2563eb"></circle><circle class="dot" cx="573.5361216730038" cy="340" r="3" fill="#2563eb"></circle><circle class="dot" cx="574.9049429657795" cy="340" r="3" fill="#2563eb"></circle><circle class="dot" cx="576.2737642585552" cy="340" r="3" fill="#2563eb"></circle><circle class="dot" cx="577.6425855513307" cy="340" r="3" fill="#2563eb"></circle><circle class="dot" cx="579.0114068441065" cy="326.9230769230769" r="3" fill="#2563eb"></circle><circle class="dot" cx="580.3802281368821" cy="326.9230769230769" r="3" fill="#2563eb"></circle><circle class="dot" cx="581.7490494296578" cy="326.9230769230769" r="3" fill="#2563eb"></circle><circle class="dot" cx="583.1178707224335" cy="326.9230769230769" r="3" fill="#2563eb"></circle><circle class="dot" cx="584.4866920152091" cy="326.9230769230769" r="3" fill="#2563eb"></circle><circle class="dot" cx="585.8555133079848" cy="326.9230769230769" r="3" fill="#2563eb"></circle><circle class="dot" cx="587.2243346007605" cy="326.9230769230769" r="3" fill="#2563eb"></circle><circle class="dot" cx="588.5931558935362" cy="326.9230769230769" r="3" fill="#2563eb"></circle><circle class="dot" cx="589.9619771863117" cy="326.9230769230769" r="3" fill="#2563eb"></circle><circle class="dot" cx="591.3307984790874" cy="326.9230769230769" r="3" fill="#2563eb"></circle><circle class="dot" cx="592.6996197718631" cy="326.9230769230769" r="3" fill="#2563eb"></circle><circle class="dot" cx="594.0684410646387" cy="326.9230769230769" r="3" fill="#2563eb"></circle><circle class="dot" cx="595.4372623574145" cy="326.9230769230769" r="3" fill="#2563eb"></circle><circle class="dot" cx="596.8060836501901" cy="326.9230769230769" r="3" fill="#2563eb"></circle><circle class="dot" cx="598.1749049429658" cy="326.9230769230769" r="3" fill="#2563eb"></circle><circle class="dot" cx="599.5437262357415" cy="326.9230769230769" r="3" fill="#2563eb"></circle><circle class="dot" cx="600.912547528517" cy="326.9230769230769" r="3" fill="#2563eb"></circle><circle class="dot" cx="602.2813688212929" cy="326.9230769230769" r="3" fill="#2563eb"></circle><circle class="dot" cx="603.6501901140684" cy="326.9230769230769" r="3" fill="#2563eb"></circle><circle class="dot" cx="605.0190114068441" cy="326.9230769230769" r="3" fill="#2563eb"></circle><circle class="dot" cx="606.3878326996198" cy="326.9230769230769" r="3" fill="#2563eb"></circle><circle class="dot" cx="607.7566539923954" cy="326.9230769230769" r="3" fill="#2563eb"></circle><circle class="dot" cx="609.1254752851711" cy="326.9230769230769" r="3" fill="#2563eb"></circle><circle class="dot" cx="610.4942965779468" cy="326.9230769230769" r="3" fill="#2563eb"></circle><circle class="dot" cx="611.8631178707225" cy="326.9230769230769" r="3" fill="#2563eb"></circle><circle class="dot" cx="613.231939163498" cy="326.9230769230769" r="3" fill="#2563eb"></circle><circle class="dot" cx="614.6007604562737" cy="326.9230769230769" r="3" fill="#2563eb"></circle><circle class="dot" cx="615.9695817490494" cy="326.9230769230769" r="3" fill="#2563eb"></circle><circle class="dot" cx="617.338403041825" cy="326.9230769230769" r="3" fill="#2563eb"></circle><circle class="dot" cx="618.7072243346008" cy="326.9230769230769" r="3" fill="#2563eb"></circle><circle class="dot" cx="620.0760456273764" cy="326.9230769230769" r="3" fill="#2563eb"></circle><circle class="dot" cx="621.4448669201521" cy="326.9230769230769" r="3" fill="#2563eb"></circle><circle class="dot" cx="622.8136882129278" cy="326.9230769230769" r="3" fill="#2563eb"></circle><circle class="dot" cx="624.1825095057034" cy="326.9230769230769" r="3" fill="#2563eb"></circle><circle class="dot" cx="625.5513307984792" cy="326.9230769230769" r="3" fill="#2563eb"></circle><circle class="dot" cx="626.9201520912547" cy="326.9230769230769" r="3" fill="#2563eb"></circle><circle class="dot" cx="628.2889733840304" cy="326.9230769230769" r="3" fill="#2563eb"></circle><circle class="dot" cx="629.6577946768061" cy="326.9230769230769" r="3" fill="#2563eb"></circle><circle class="dot" cx="631.0266159695817" cy="326.9230769230769" r="3" fill="#2563eb"></circle><circle class="dot" cx="632.3954372623574" cy="326.9230769230769" r="3" fill="#2563eb"></circle><circle class="dot" cx="633.7642585551331" cy="326.9230769230769" r="3" fill="#2563eb"></circle><circle class="dot" cx="635.1330798479088" cy="326.9230769230769" r="3" fill="#2563eb"></circle><circle class="dot" cx="636.5019011406844" cy="326.9230769230769" r="3" fill="#2563eb"></circle><circle class="dot" cx="637.8707224334601" cy="326.9230769230769" r="3" fill="#2563eb"></circle><circle class="dot" cx="639.2395437262358" cy="326.9230769230769" r="3" fill="#2563eb"></circle><circle class="dot" cx="640.6083650190113" cy="326.9230769230769" r="3" fill="#2563eb"></circle><circle class="dot" cx="641.9771863117871" cy="326.9230769230769" r="3" fill="#2563eb"></circle><circle class="dot" cx="643.3460076045627" cy="326.9230769230769" r="3" fill="#2563eb"></circle><circle class="dot" cx="644.7148288973384" cy="326.9230769230769" r="3" fill="#2563eb"></circle><circle class="dot" cx="646.0836501901141" cy="326.9230769230769" r="3" fill="#2563eb"></circle><circle class="dot" cx="647.4524714828897" cy="326.9230769230769" r="3" fill="#2563eb"></circle><circle class="dot" cx="648.8212927756655" cy="326.9230769230769" r="3" fill="#2563eb"></circle><circle class="dot" cx="650.1901140684411" cy="326.9230769230769" r="3" fill="#2563eb"></circle><circle class="dot" cx="651.5589353612168" cy="326.9230769230769" r="3" fill="#2563eb"></circle><circle class="dot" cx="652.9277566539924" cy="326.9230769230769" r="3" fill="#2563eb"></circle><circle class="dot" cx="654.296577946768" cy="326.9230769230769" r="3" fill="#2563eb"></circle><circle class="dot" cx="655.6653992395437" cy="326.9230769230769" r="3" fill="#2563eb"></circle><circle class="dot" cx="657.0342205323194" cy="326.9230769230769" r="3" fill="#2563eb"></circle><circle class="dot" cx="658.4030418250951" cy="326.9230769230769" r="3" fill="#2563eb"></circle><circle class="dot" cx="659.7718631178707" cy="326.9230769230769" r="3" fill="#2563eb"></circle><circle class="dot" cx="661.1406844106464" cy="326.9230769230769" r="3" fill="#2563eb"></circle><circle class="dot" cx="662.5095057034221" cy="326.9230769230769" r="3" fill="#2563eb"></circle><circle class="dot" cx="663.8783269961978" cy="326.9230769230769" r="3" fill="#2563eb"></circle><circle class="dot" cx="665.2471482889734" cy="326.9230769230769" r="3" fill="#2563eb"></circle><circle class="dot" cx="666.615969581749" cy="326.9230769230769" r="3" fill="#2563eb"></circle><circle class="dot" cx="667.9847908745247" cy="326.9230769230769" r="3" fill="#2563eb"></circle><circle class="dot" cx="669.3536121673004" cy="326.9230769230769" r="3" fill="#2563eb"></circle><circle class="dot" cx="670.722433460076" cy="326.9230769230769" r="3" fill="#2563eb"></circle><circle class="dot" cx="672.0912547528518" cy="326.9230769230769" r="3" fill="#2563eb"></circle><circle class="dot" cx="673.4600760456274" cy="326.9230769230769" r="3" fill="#2563eb"></circle><circle class="dot" cx="674.8288973384031" cy="326.9230769230769" r="3" fill="#2563eb"></circle><circle class="dot" cx="676.1977186311788" cy="326.9230769230769" r="3" fill="#2563eb"></circle><circle class="dot" cx="677.5665399239543" cy="326.9230769230769" r="3" fill="#2563eb"></circle><circle class="dot" cx="678.93536121673" cy="326.9230769230769" r="3" fill="#2563eb"></circle><circle class="dot" cx="680.3041825095057" cy="326.9230769230769" r="3" fill="#2563eb"></circle><circle class="dot" cx="681.6730038022814" cy="326.9230769230769" r="3" fill="#2563eb"></circle><circle class="dot" cx="683.041825095057" cy="326.9230769230769" r="3" fill="#2563eb"></circle><circle class="dot" cx="684.4106463878327" cy="326.9230769230769" r="3" fill="#2563eb"></circle><circle class="dot" cx="685.7794676806084" cy="326.9230769230769" r="3" fill="#2563eb"></circle><circle class="dot" cx="687.1482889733841" cy="326.9230769230769" r="3" fill="#2563eb"></circle><circle class="dot" cx="688.5171102661598" cy="326.9230769230769" r="3" fill="#2563eb"></circle><circle class="dot" cx="689.8859315589353" cy="326.9230769230769" r="3" fill="#2563eb"></circle><circle class="dot" cx="691.254752851711" cy="326.9230769230769" r="3" fill="#2563eb"></circle><circle class="dot" cx="692.6235741444867" cy="326.9230769230769" r="3" fill="#2563eb"></circle><circle class="dot" cx="693.9923954372623" cy="326.9230769230769" r="3" fill="#2563eb"></circle><circle class="dot" cx="695.361216730038" cy="326.9230769230769" r="3" fill="#2563eb"></circle><circle class="dot" cx="696.7300380228137" cy="326.9230769230769" r="3" fill="#2563eb"></circle><circle class="dot" cx="698.0988593155894" cy="326.9230769230769" r="3" fill="#2563eb"></circle><circle class="dot" cx="699.4676806083651" cy="326.9230769230769" r="3" fill="#2563eb"></circle><circle class="dot" cx="700.8365019011407" cy="326.9230769230769" r="3" fill="#2563eb"></circle><circle class="dot" cx="702.2053231939163" cy="326.9230769230769" r="3" fill="#2563eb"></circle><circle class="dot" cx="703.574144486692" cy="326.9230769230769" r="3" fill="#2563eb"></circle><circle class="dot" cx="704.9429657794677" cy="326.9230769230769" r="3" fill="#2563eb"></circle><circle class="dot" cx="706.3117870722433" cy="326.9230769230769" r="3" fill="#2563eb"></circle><circle class="dot" cx="707.680608365019" cy="326.9230769230769" r="3" fill="#2563eb"></circle><circle class="dot" cx="709.0494296577947" cy="326.9230769230769" r="3" fill="#2563eb"></circle><circle class="dot" cx="710.4182509505704" cy="326.9230769230769" r="3" fill="#2563eb"></circle><circle class="dot" cx="711.7870722433461" cy="326.9230769230769" r="3" fill="#2563eb"></circle><circle class="dot" cx="713.1558935361217" cy="326.9230769230769" r="3" fill="#2563eb"></circle><circle class="dot" cx="714.5247148288973" cy="326.9230769230769" r="3" fill="#2563eb"></circle><circle class="dot" cx="715.893536121673" cy="326.9230769230769" r="3" fill="#2563eb"></circle><circle class="dot" cx="717.2623574144486" cy="326.9230769230769" r="3" fill="#2563eb"></circle><circle class="dot" cx="718.6311787072243" cy="326.9230769230769" r="3" fill="#2563eb"></circle><circle class="dot" cx="720" cy="326.9230769230769" r="3" fill="#2563eb"></circle><g class="grid" transform="translate(0,340)" fill="none" font-size="10" font-family="sans-serif" text-anchor="middle" style="stroke-dasharray: 3,3; opacity: 0.3;"><path class="domain" stroke="currentColor" d="M0.5,-340V0.5H720.5V-340"></path><g class="tick" opacity="1" transform="translate(0.5,0)"><line stroke="currentColor" y2="-340"></line><text fill="currentColor" y="3" dy="0.71em"></text></g><g class="tick" opacity="1" transform="translate(33.35171102661597,0)"><line stroke="currentColor" y2="-340"></line><text fill="currentColor" y="3" dy="0.71em"></text></g><g class="tick" opacity="1" transform="translate(66.20342205323195,0)"><line stroke="currentColor" y2="-340"></line><text fill="currentColor" y="3" dy="0.71em"></text></g><g class="tick" opacity="1" transform="translate(99.0551330798479,0)"><line stroke="currentColor" y2="-340"></line><text fill="currentColor" y="3" dy="0.71em"></text></g><g class="tick" opacity="1" transform="translate(131.9068441064639,0)"><line stroke="currentColor" y2="-340"></line><text fill="currentColor" y="3" dy="0.71em"></text></g><g class="tick" opacity="1" transform="translate(164.75855513307985,0)"><line stroke="currentColor" y2="-340"></line><text fill="currentColor" y="3" dy="0.71em"></text></g><g class="tick" opacity="1" transform="translate(197.6102661596958,0)"><line stroke="currentColor" y2="-340"></line><text fill="currentColor" y="3" dy="0.71em"></text></g><g class="tick" opacity="1" transform="translate(230.4619771863118,0)"><line stroke="currentColor" y2="-340"></line><text fill="currentColor" y="3" dy="0.71em"></text></g><g class="tick" opacity="1" transform="translate(263.3136882129278,0)"><line stroke="currentColor" y2="-340"></line><text fill="currentColor" y="3" dy="0.71em"></text></g><g class="tick" opacity="1" transform="translate(296.1653992395437,0)"><line stroke="currentColor" y2="-340"></line><text fill="currentColor" y="3" dy="0.71em"></text></g><g class="tick" opacity="1" transform="translate(329.0171102661597,0)"><line stroke="currentColor" y2="-340"></line><text fill="currentColor" y="3" dy="0.71em"></text></g><g class="tick" opacity="1" transform="translate(361.86882129277564,0)"><line stroke="currentColor" y2="-340"></line><text fill="currentColor" y="3" dy="0.71em"></text></g><g class="tick" opacity="1" transform="translate(394.7205323193916,0)"><line stroke="currentColor" y2="-340"></line><text fill="currentColor" y="3" dy="0.71em"></text></g><g class="tick" opacity="1" transform="translate(427.57224334600755,0)"><line stroke="currentColor" y2="-340"></line><text fill="currentColor" y="3" dy="0.71em"></text></g><g class="tick" opacity="1" transform="translate(460.4239543726236,0)"><line stroke="currentColor" y2="-340"></line><text fill="currentColor" y="3" dy="0.71em"></text></g><g class="tick" opacity="1" transform="translate(493.27566539923953,0)"><line stroke="currentColor" y2="-340"></line><text fill="currentColor" y="3" dy="0.71em"></text></g><g class="tick" opacity="1" transform="translate(526.1273764258556,0)"><line stroke="currentColor" y2="-340"></line><text fill="currentColor" y="3" dy="0.71em"></text></g><g class="tick" opacity="1" transform="translate(558.9790874524715,0)"><line stroke="currentColor" y2="-340"></line><text fill="currentColor" y="3" dy="0.71em"></text></g><g class="tick" opacity="1" transform="translate(591.8307984790874,0)"><line stroke="currentColor" y2="-340"></line><text fill="currentColor" y="3" dy="0.71em"></text></g><g class="tick" opacity="1" transform="translate(624.6825095057034,0)"><line stroke="currentColor" y2="-340"></line><text fill="currentColor" y="3" dy="0.71em"></text></g><g class="tick" opacity="1" transform="translate(657.5342205323194,0)"><line stroke="currentColor" y2="-340"></line><text fill="currentColor" y="3" dy="0.71em"></text></g><g class="tick" opacity="1" transform="translate(690.3859315589353,0)"><line stroke="currentColor" y2="-340"></line><text fill="currentColor" y="3" dy="0.71em"></text></g></g><g class="grid" fill="none" font-size="10" font-family="sans-serif" text-anchor="end" style="stroke-dasharray: 3,3; opacity: 0.3;"><path class="domain" stroke="currentColor" d="M720,340.5H0.5V0.5H720"></path><g class="tick" opacity="1" transform="translate(0,340.5)"><line stroke="currentColor" x2="720"></line><text fill="currentColor" x="-3" dy="0.32em"></text></g><g class="tick" opacity="1" transform="translate(0,314.34615384615387)"><line stroke="currentColor" x2="720"></line><text fill="currentColor" x="-3" dy="0.32em"></text></g><g class="tick" opacity="1" transform="translate(0,288.1923076923077)"><line stroke="currentColor" x2="720"></line><text fill="currentColor" x="-3" dy="0.32em"></text></g><g class="tick" opacity="1" transform="translate(0,262.0384615384615)"><line stroke="currentColor" x2="720"></line><text fill="currentColor" x="-3" dy="0.32em"></text></g><g class="tick" opacity="1" transform="translate(0,235.8846153846154)"><line stroke="currentColor" x2="720"></line><text fill="currentColor" x="-3" dy="0.32em"></text></g><g class="tick" opacity="1" transform="translate(0,209.73076923076925)"><line stroke="currentColor" x2="720"></line><text fill="currentColor" x="-3" dy="0.32em"></text></g><g class="tick" opacity="1" transform="translate(0,183.5769230769231)"><line stroke="currentColor" x2="720"></line><text fill="currentColor" x="-3" dy="0.32em"></text></g><g class="tick" opacity="1" transform="translate(0,157.42307692307693)"><line stroke="currentColor" x2="720"></line><text fill="currentColor" x="-3" dy="0.32em"></text></g><g class="tick" opacity="1" transform="translate(0,131.26923076923075)"><line stroke="currentColor" x2="720"></line><text fill="currentColor" x="-3" dy="0.32em"></text></g><g class="tick" opacity="1" transform="translate(0,105.11538461538463)"><line stroke="currentColor" x2="720"></line><text fill="currentColor" x="-3" dy="0.32em"></text></g><g class="tick" opacity="1" transform="translate(0,78.96153846153848)"><line stroke="currentColor" x2="720"></line><text fill="currentColor" x="-3" dy="0.32em"></text></g><g class="tick" opacity="1" transform="translate(0,52.807692307692314)"><line stroke="currentColor" x2="720"></line><text fill="currentColor" x="-3" dy="0.32em"></text></g><g class="tick" opacity="1" transform="translate(0,26.653846153846136)"><line stroke="currentColor" x2="720"></line><text fill="currentColor" x="-3" dy="0.32em"></text></g><g class="tick" opacity="1" transform="translate(0,0.5)"><line stroke="currentColor" x2="720"></line><text fill="currentColor" x="-3" dy="0.32em"></text></g></g></g><text x="400" y="10" text-anchor="middle" style="font-size: 16px; font-weight: bold; fill: #333;">OKX USDT Lending Rate - Current Month</text></svg>