<svg width="800" height="400" xmlns="http://www.w3.org/2000/svg"><g transform="translate(50,20)"><g transform="translate(0,340)" fill="none" font-size="10" font-family="sans-serif" text-anchor="middle"><path class="domain" stroke="currentColor" d="M0.5,6V0.5H720.5V6"></path><g class="tick" opacity="1" transform="translate(0.5,0)"><line stroke="currentColor" y2="6"></line><text fill="currentColor" y="9" dy=".15em" style="text-anchor: end;" dx="-.8em" transform="rotate(-45)">03/01</text></g><g class="tick" opacity="1" transform="translate(25.652838427947597,0)"><line stroke="currentColor" y2="6"></line><text fill="currentColor" y="9" dy=".15em" style="text-anchor: end;" dx="-.8em" transform="rotate(-45)">03/02</text></g><g class="tick" opacity="1" transform="translate(50.80567685589519,0)"><line stroke="currentColor" y2="6"></line><text fill="currentColor" y="9" dy=".15em" style="text-anchor: end;" dx="-.8em" transform="rotate(-45)">03/03</text></g><g class="tick" opacity="1" transform="translate(75.95851528384279,0)"><line stroke="currentColor" y2="6"></line><text fill="currentColor" y="9" dy=".15em" style="text-anchor: end;" dx="-.8em" transform="rotate(-45)">03/04</text></g><g class="tick" opacity="1" transform="translate(101.11135371179039,0)"><line stroke="currentColor" y2="6"></line><text fill="currentColor" y="9" dy=".15em" style="text-anchor: end;" dx="-.8em" transform="rotate(-45)">03/05</text></g><g class="tick" opacity="1" transform="translate(126.26419213973799,0)"><line stroke="currentColor" y2="6"></line><text fill="currentColor" y="9" dy=".15em" style="text-anchor: end;" dx="-.8em" transform="rotate(-45)">03/06</text></g><g class="tick" opacity="1" transform="translate(151.41703056768557,0)"><line stroke="currentColor" y2="6"></line><text fill="currentColor" y="9" dy=".15em" style="text-anchor: end;" dx="-.8em" transform="rotate(-45)">03/07</text></g><g class="tick" opacity="1" transform="translate(176.5698689956332,0)"><line stroke="currentColor" y2="6"></line><text fill="currentColor" y="9" dy=".15em" style="text-anchor: end;" dx="-.8em" transform="rotate(-45)">03/08</text></g><g class="tick" opacity="1" transform="translate(201.72270742358077,0)"><line stroke="currentColor" y2="6"></line><text fill="currentColor" y="9" dy=".15em" style="text-anchor: end;" dx="-.8em" transform="rotate(-45)">03/09</text></g><g class="tick" opacity="1" transform="translate(226.8755458515284,0)"><line stroke="currentColor" y2="6"></line><text fill="currentColor" y="9" dy=".15em" style="text-anchor: end;" dx="-.8em" transform="rotate(-45)">03/10</text></g><g class="tick" opacity="1" transform="translate(252.02838427947597,0)"><line stroke="currentColor" y2="6"></line><text fill="currentColor" y="9" dy=".15em" style="text-anchor: end;" dx="-.8em" transform="rotate(-45)">03/11</text></g><g class="tick" opacity="1" transform="translate(277.18122270742356,0)"><line stroke="currentColor" y2="6"></line><text fill="currentColor" y="9" dy=".15em" style="text-anchor: end;" dx="-.8em" transform="rotate(-45)">03/12</text></g><g class="tick" opacity="1" transform="translate(302.33406113537114,0)"><line stroke="currentColor" y2="6"></line><text fill="currentColor" y="9" dy=".15em" style="text-anchor: end;" dx="-.8em" transform="rotate(-45)">03/13</text></g><g class="tick" opacity="1" transform="translate(327.4868995633188,0)"><line stroke="currentColor" y2="6"></line><text fill="currentColor" y="9" dy=".15em" style="text-anchor: end;" dx="-.8em" transform="rotate(-45)">03/14</text></g><g class="tick" opacity="1" transform="translate(352.6397379912664,0)"><line stroke="currentColor" y2="6"></line><text fill="currentColor" y="9" dy=".15em" style="text-anchor: end;" dx="-.8em" transform="rotate(-45)">03/15</text></g><g class="tick" opacity="1" transform="translate(377.79257641921396,0)"><line stroke="currentColor" y2="6"></line><text fill="currentColor" y="9" dy=".15em" style="text-anchor: end;" dx="-.8em" transform="rotate(-45)">03/16</text></g><g class="tick" opacity="1" transform="translate(402.94541484716154,0)"><line stroke="currentColor" y2="6"></line><text fill="currentColor" y="9" dy=".15em" style="text-anchor: end;" dx="-.8em" transform="rotate(-45)">03/17</text></g><g class="tick" opacity="1" transform="translate(428.0982532751092,0)"><line stroke="currentColor" y2="6"></line><text fill="currentColor" y="9" dy=".15em" style="text-anchor: end;" dx="-.8em" transform="rotate(-45)">03/18</text></g><g class="tick" opacity="1" transform="translate(453.2510917030568,0)"><line stroke="currentColor" y2="6"></line><text fill="currentColor" y="9" dy=".15em" style="text-anchor: end;" dx="-.8em" transform="rotate(-45)">03/19</text></g><g class="tick" opacity="1" transform="translate(478.40393013100436,0)"><line stroke="currentColor" y2="6"></line><text fill="currentColor" y="9" dy=".15em" style="text-anchor: end;" dx="-.8em" transform="rotate(-45)">03/20</text></g><g class="tick" opacity="1" transform="translate(503.55676855895194,0)"><line stroke="currentColor" y2="6"></line><text fill="currentColor" y="9" dy=".15em" style="text-anchor: end;" dx="-.8em" transform="rotate(-45)">03/21</text></g><g class="tick" opacity="1" transform="translate(528.7096069868996,0)"><line stroke="currentColor" y2="6"></line><text fill="currentColor" y="9" dy=".15em" style="text-anchor: end;" dx="-.8em" transform="rotate(-45)">03/22</text></g><g class="tick" opacity="1" transform="translate(553.8624454148471,0)"><line stroke="currentColor" y2="6"></line><text fill="currentColor" y="9" dy=".15em" style="text-anchor: end;" dx="-.8em" transform="rotate(-45)">03/23</text></g><g class="tick" opacity="1" transform="translate(579.0152838427947,0)"><line stroke="currentColor" y2="6"></line><text fill="currentColor" y="9" dy=".15em" style="text-anchor: end;" dx="-.8em" transform="rotate(-45)">03/24</text></g><g class="tick" opacity="1" transform="translate(604.1681222707423,0)"><line stroke="currentColor" y2="6"></line><text fill="currentColor" y="9" dy=".15em" style="text-anchor: end;" dx="-.8em" transform="rotate(-45)">03/25</text></g><g class="tick" opacity="1" transform="translate(629.32096069869,0)"><line stroke="currentColor" y2="6"></line><text fill="currentColor" y="9" dy=".15em" style="text-anchor: end;" dx="-.8em" transform="rotate(-45)">03/26</text></g><g class="tick" opacity="1" transform="translate(654.4737991266376,0)"><line stroke="currentColor" y2="6"></line><text fill="currentColor" y="9" dy=".15em" style="text-anchor: end;" dx="-.8em" transform="rotate(-45)">03/27</text></g><g class="tick" opacity="1" transform="translate(679.6266375545852,0)"><line stroke="currentColor" y2="6"></line><text fill="currentColor" y="9" dy=".15em" style="text-anchor: end;" dx="-.8em" transform="rotate(-45)">03/28</text></g><g class="tick" opacity="1" transform="translate(704.7794759825327,0)"><line stroke="currentColor" y2="6"></line><text fill="currentColor" y="9" dy=".15em" style="text-anchor: end;" dx="-.8em" transform="rotate(-45)">03/29</text></g></g><g fill="none" font-size="10" font-family="sans-serif" text-anchor="end"><path class="domain" stroke="currentColor" d="M-6,340.5H0.5V0.5H-6"></path><g class="tick" opacity="1" transform="translate(0,170.5)"><line stroke="currentColor" x2="-6"></line><text fill="currentColor" x="-9" dy="0.32em">2.50%</text></g></g><text transform="rotate(-90)" y="-50" x="-170" dy="1em" style="text-anchor: middle; font-size: 12px; fill: #666;">Pre Rate (%)</text><text transform="translate(360, 380)" style="text-anchor: middle; font-size: 12px; fill: #666;">Time (UTC)</text><path fill="none" stroke="#2563eb" stroke-width="2" d="M0,170C0.349,170,0.699,170,1.048,170C1.397,170,1.747,170,2.096,170C2.445,170,2.795,170,3.144,170C3.493,170,3.843,170,4.192,170C4.541,170,4.891,170,5.24,170C5.59,170,5.939,170,6.288,170C6.638,170,6.987,170,7.336,170C7.686,170,8.035,170,8.384,170C8.734,170,9.083,170,9.432,170C9.782,170,10.131,170,10.48,170C10.83,170,11.179,170,11.528,170C11.878,170,12.227,170,12.576,170C12.926,170,13.275,170,13.624,170C13.974,170,14.323,170,14.672,170C15.022,170,15.371,170,15.721,170C16.07,170,16.419,170,16.769,170C17.118,170,17.467,170,17.817,170C18.166,170,18.515,170,18.865,170C19.214,170,19.563,170,19.913,170C20.262,170,20.611,170,20.961,170C21.31,170,21.659,170,22.009,170C22.358,170,22.707,170,23.057,170C23.406,170,23.755,170,24.105,170C24.454,170,24.803,170,25.153,170C25.502,170,25.852,170,26.201,170C26.55,170,26.9,170,27.249,170C27.598,170,27.948,170,28.297,170C28.646,170,28.996,170,29.345,170C29.694,170,30.044,170,30.393,170C30.742,170,31.092,170,31.441,170C31.79,170,32.14,170,32.489,170C32.838,170,33.188,170,33.537,170C33.886,170,34.236,170,34.585,170C34.934,170,35.284,170,35.633,170C35.983,170,36.332,170,36.681,170C37.031,170,37.38,170,37.729,170C38.079,170,38.428,170,38.777,170C39.127,170,39.476,170,39.825,170C40.175,170,40.524,170,40.873,170C41.223,170,41.572,170,41.921,170C42.271,170,42.62,170,42.969,170C43.319,170,43.668,170,44.017,170C44.367,170,44.716,170,45.066,170C45.415,170,45.764,170,46.114,170C46.463,170,46.812,170,47.162,170C47.511,170,47.86,170,48.21,170C48.559,170,48.908,170,49.258,170C49.607,170,49.956,170,50.306,170C50.655,170,51.004,170,51.354,170C51.703,170,52.052,170,52.402,170C52.751,170,53.1,170,53.45,170C53.799,170,54.148,170,54.498,170C54.847,170,55.197,170,55.546,170C55.895,170,56.245,170,56.594,170C56.943,170,57.293,170,57.642,170C57.991,170,58.341,170,58.69,170C59.039,170,59.389,170,59.738,170C60.087,170,60.437,170,60.786,170C61.135,170,61.485,170,61.834,170C62.183,170,62.533,170,62.882,170C63.231,170,63.581,170,63.93,170C64.279,170,64.629,170,64.978,170C65.328,170,65.677,170,66.026,170C66.376,170,66.725,170,67.074,170C67.424,170,67.773,170,68.122,170C68.472,170,68.821,170,69.17,170C69.52,170,69.869,170,70.218,170C70.568,170,70.917,170,71.266,170C71.616,170,71.965,170,72.314,170C72.664,170,73.013,170,73.362,170C73.712,170,74.061,170,74.41,170C74.76,170,75.109,170,75.459,170C75.808,170,76.157,170,76.507,170C76.856,170,77.205,170,77.555,170C77.904,170,78.253,170,78.603,170C78.952,170,79.301,170,79.651,170C80,170,80.349,170,80.699,170C81.048,170,81.397,170,81.747,170C82.096,170,82.445,170,82.795,170C83.144,170,83.493,170,83.843,170C84.192,170,84.541,170,84.891,170C85.24,170,85.59,170,85.939,170C86.288,170,86.638,170,86.987,170C87.336,170,87.686,170,88.035,170C88.384,170,88.734,170,89.083,170C89.432,170,89.782,170,90.131,170C90.48,170,90.83,170,91.179,170C91.528,170,91.878,170,92.227,170C92.576,170,92.926,170,93.275,170C93.624,170,93.974,170,94.323,170C94.672,170,95.022,170,95.371,170C95.721,170,96.07,170,96.419,170C96.769,170,97.118,170,97.467,170C97.817,170,98.166,170,98.515,170C98.865,170,99.214,170,99.563,170C99.913,170,100.262,170,100.611,170C100.961,170,101.31,170,101.659,170C102.009,170,102.358,170,102.707,170C103.057,170,103.406,170,103.755,170C104.105,170,104.454,170,104.803,170C105.153,170,105.502,170,105.852,170C106.201,170,106.55,170,106.9,170C107.249,170,107.598,170,107.948,170C108.297,170,108.646,170,108.996,170C109.345,170,109.694,170,110.044,170C110.393,170,110.742,170,111.092,170C111.441,170,111.79,170,112.14,170C112.489,170,112.838,170,113.188,170C113.537,170,113.886,170,114.236,170C114.585,170,114.934,170,115.284,170C115.633,170,115.983,170,116.332,170C116.681,170,117.031,170,117.38,170C117.729,170,118.079,170,118.428,170C118.777,170,119.127,170,119.476,170C119.825,170,120.175,170,120.524,170C120.873,170,121.223,170,121.572,170C121.921,170,122.271,170,122.62,170C122.969,170,123.319,170,123.668,170C124.017,170,124.367,170,124.716,170C125.066,170,125.415,170,125.764,170C126.114,170,126.463,170,126.812,170C127.162,170,127.511,170,127.86,170C128.21,170,128.559,170,128.908,170C129.258,170,129.607,170,129.956,170C130.306,170,130.655,170,131.004,170C131.354,170,131.703,170,132.052,170C132.402,170,132.751,170,133.1,170C133.45,170,133.799,170,134.148,170C134.498,170,134.847,170,135.197,170C135.546,170,135.895,170,136.245,170C136.594,170,136.943,170,137.293,170C137.642,170,137.991,170,138.341,170C138.69,170,139.039,170,139.389,170C139.738,170,140.087,170,140.437,170C140.786,170,141.135,170,141.485,170C141.834,170,142.183,170,142.533,170C142.882,170,143.231,170,143.581,170C143.93,170,144.279,170,144.629,170C144.978,170,145.328,170,145.677,170C146.026,170,146.376,170,146.725,170C147.074,170,147.424,170,147.773,170C148.122,170,148.472,170,148.821,170C149.17,170,149.52,170,149.869,170C150.218,170,150.568,170,150.917,170C151.266,170,151.616,170,151.965,170C152.314,170,152.664,170,153.013,170C153.362,170,153.712,170,154.061,170C154.41,170,154.76,170,155.109,170C155.459,170,155.808,170,156.157,170C156.507,170,156.856,170,157.205,170C157.555,170,157.904,170,158.253,170C158.603,170,158.952,170,159.301,170C159.651,170,160,170,160.349,170C160.699,170,161.048,170,161.397,170C161.747,170,162.096,170,162.445,170C162.795,170,163.144,170,163.493,170C163.843,170,164.192,170,164.541,170C164.891,170,165.24,170,165.59,170C165.939,170,166.288,170,166.638,170C166.987,170,167.336,170,167.686,170C168.035,170,168.384,170,168.734,170C169.083,170,169.432,170,169.782,170C170.131,170,170.48,170,170.83,170C171.179,170,171.528,170,171.878,170C172.227,170,172.576,170,172.926,170C173.275,170,173.624,170,173.974,170C174.323,170,174.672,170,175.022,170C175.371,170,175.721,170,176.07,170C176.419,170,176.769,170,177.118,170C177.467,170,177.817,170,178.166,170C178.515,170,178.865,170,179.214,170C179.563,170,179.913,170,180.262,170C180.611,170,180.961,170,181.31,170C181.659,170,182.009,170,182.358,170C182.707,170,183.057,170,183.406,170C183.755,170,184.105,170,184.454,170C184.803,170,185.153,170,185.502,170C185.852,170,186.201,170,186.55,170C186.9,170,187.249,170,187.598,170C187.948,170,188.297,170,188.646,170C188.996,170,189.345,170,189.694,170C190.044,170,190.393,170,190.742,170C191.092,170,191.441,170,191.79,170C192.14,170,192.489,170,192.838,170C193.188,170,193.537,170,193.886,170C194.236,170,194.585,170,194.934,170C195.284,170,195.633,170,195.983,170C196.332,170,196.681,170,197.031,170C197.38,170,197.729,170,198.079,170C198.428,170,198.777,170,199.127,170C199.476,170,199.825,170,200.175,170C200.524,170,200.873,170,201.223,170C201.572,170,201.921,170,202.271,170C202.62,170,202.969,170,203.319,170C203.668,170,204.017,170,204.367,170C204.716,170,205.066,170,205.415,170C205.764,170,206.114,170,206.463,170C206.812,170,207.162,170,207.511,170C207.86,170,208.21,170,208.559,170C208.908,170,209.258,170,209.607,170C209.956,170,210.306,170,210.655,170C211.004,170,211.354,170,211.703,170C212.052,170,212.402,170,212.751,170C213.1,170,213.45,170,213.799,170C214.148,170,214.498,170,214.847,170C215.197,170,215.546,170,215.895,170C216.245,170,216.594,170,216.943,170C217.293,170,217.642,170,217.991,170C218.341,170,218.69,170,219.039,170C219.389,170,219.738,170,220.087,170C220.437,170,220.786,170,221.135,170C221.485,170,221.834,170,222.183,170C222.533,170,222.882,170,223.231,170C223.581,170,223.93,170,224.279,170C224.629,170,224.978,170,225.328,170C225.677,170,226.026,170,226.376,170C226.725,170,227.074,170,227.424,170C227.773,170,228.122,170,228.472,170C228.821,170,229.17,170,229.52,170C229.869,170,230.218,170,230.568,170C230.917,170,231.266,170,231.616,170C231.965,170,232.314,170,232.664,170C233.013,170,233.362,170,233.712,170C234.061,170,234.41,170,234.76,170C235.109,170,235.459,170,235.808,170C236.157,170,236.507,170,236.856,170C237.205,170,237.555,170,237.904,170C238.253,170,238.603,170,238.952,170C239.301,170,239.651,170,240,170C240.349,170,240.699,170,241.048,170C241.397,170,241.747,170,242.096,170C242.445,170,242.795,170,243.144,170C243.493,170,243.843,170,244.192,170C244.541,170,244.891,170,245.24,170C245.59,170,245.939,170,246.288,170C246.638,170,246.987,170,247.336,170C247.686,170,248.035,170,248.384,170C248.734,170,249.083,170,249.432,170C249.782,170,250.131,170,250.48,170C250.83,170,251.179,170,251.528,170C251.878,170,252.227,170,252.576,170C252.926,170,253.275,170,253.624,170C253.974,170,254.323,170,254.672,170C255.022,170,255.371,170,255.721,170C256.07,170,256.419,170,256.769,170C257.118,170,257.467,170,257.817,170C258.166,170,258.515,170,258.865,170C259.214,170,259.563,170,259.913,170C260.262,170,260.611,170,260.961,170C261.31,170,261.659,170,262.009,170C262.358,170,262.707,170,263.057,170C263.406,170,263.755,170,264.105,170C264.454,170,264.803,170,265.153,170C265.502,170,265.852,170,266.201,170C266.55,170,266.9,170,267.249,170C267.598,170,267.948,170,268.297,170C268.646,170,268.996,170,269.345,170C269.694,170,270.044,170,270.393,170C270.742,170,271.092,170,271.441,170C271.79,170,272.14,170,272.489,170C272.838,170,273.188,170,273.537,170C273.886,170,274.236,170,274.585,170C274.934,170,275.284,170,275.633,170C275.983,170,276.332,170,276.681,170C277.031,170,277.38,170,277.729,170C278.079,170,278.428,170,278.777,170C279.127,170,279.476,170,279.825,170C280.175,170,280.524,170,280.873,170C281.223,170,281.572,170,281.921,170C282.271,170,282.62,170,282.969,170C283.319,170,283.668,170,284.017,170C284.367,170,284.716,170,285.066,170C285.415,170,285.764,170,286.114,170C286.463,170,286.812,170,287.162,170C287.511,170,287.86,170,288.21,170C288.559,170,288.908,170,289.258,170C289.607,170,289.956,170,290.306,170C290.655,170,291.004,170,291.354,170C291.703,170,292.052,170,292.402,170C292.751,170,293.1,170,293.45,170C293.799,170,294.148,170,294.498,170C294.847,170,295.197,170,295.546,170C295.895,170,296.245,170,296.594,170C296.943,170,297.293,170,297.642,170C297.991,170,298.341,170,298.69,170C299.039,170,299.389,170,299.738,170C300.087,170,300.437,170,300.786,170C301.135,170,301.485,170,301.834,170C302.183,170,302.533,170,302.882,170C303.231,170,303.581,170,303.93,170C304.279,170,304.629,170,304.978,170C305.328,170,305.677,170,306.026,170C306.376,170,306.725,170,307.074,170C307.424,170,307.773,170,308.122,170C308.472,170,308.821,170,309.17,170C309.52,170,309.869,170,310.218,170C310.568,170,310.917,170,311.266,170C311.616,170,311.965,170,312.314,170C312.664,170,313.013,170,313.362,170C313.712,170,314.061,170,314.41,170C314.76,170,315.109,170,315.459,170C315.808,170,316.157,170,316.507,170C316.856,170,317.205,170,317.555,170C317.904,170,318.253,170,318.603,170C318.952,170,319.301,170,319.651,170C320,170,320.349,170,320.699,170C321.048,170,321.397,170,321.747,170C322.096,170,322.445,170,322.795,170C323.144,170,323.493,170,323.843,170C324.192,170,324.541,170,324.891,170C325.24,170,325.59,170,325.939,170C326.288,170,326.638,170,326.987,170C327.336,170,327.686,170,328.035,170C328.384,170,328.734,170,329.083,170C329.432,170,329.782,170,330.131,170C330.48,170,330.83,170,331.179,170C331.528,170,331.878,170,332.227,170C332.576,170,332.926,170,333.275,170C333.624,170,333.974,170,334.323,170C334.672,170,335.022,170,335.371,170C335.721,170,336.07,170,336.419,170C336.769,170,337.118,170,337.467,170C337.817,170,338.166,170,338.515,170C338.865,170,339.214,170,339.563,170C339.913,170,340.262,170,340.611,170C340.961,170,341.31,170,341.659,170C342.009,170,342.358,170,342.707,170C343.057,170,343.406,170,343.755,170C344.105,170,344.454,170,344.803,170C345.153,170,345.502,170,345.852,170C346.201,170,346.55,170,346.9,170C347.249,170,347.598,170,347.948,170C348.297,170,348.646,170,348.996,170C349.345,170,349.694,170,350.044,170C350.393,170,350.742,170,351.092,170C351.441,170,351.79,170,352.14,170C352.489,170,352.838,170,353.188,170C353.537,170,353.886,170,354.236,170C354.585,170,354.934,170,355.284,170C355.633,170,355.983,170,356.332,170C356.681,170,357.031,170,357.38,170C357.729,170,358.079,170,358.428,170C358.777,170,359.127,170,359.476,170C359.825,170,360.175,170,360.524,170C360.873,170,361.223,170,361.572,170C361.921,170,362.271,170,362.62,170C362.969,170,363.319,170,363.668,170C364.017,170,364.367,170,364.716,170C365.066,170,365.415,170,365.764,170C366.114,170,366.463,170,366.812,170C367.162,170,367.511,170,367.86,170C368.21,170,368.559,170,368.908,170C369.258,170,369.607,170,369.956,170C370.306,170,370.655,170,371.004,170C371.354,170,371.703,170,372.052,170C372.402,170,372.751,170,373.1,170C373.45,170,373.799,170,374.148,170C374.498,170,374.847,170,375.197,170C375.546,170,375.895,170,376.245,170C376.594,170,376.943,170,377.293,170C377.642,170,377.991,170,378.341,170C378.69,170,379.039,170,379.389,170C379.738,170,380.087,170,380.437,170C380.786,170,381.135,170,381.485,170C381.834,170,382.183,170,382.533,170C382.882,170,383.231,170,383.581,170C383.93,170,384.279,170,384.629,170C384.978,170,385.328,170,385.677,170C386.026,170,386.376,170,386.725,170C387.074,170,387.424,170,387.773,170C388.122,170,388.472,170,388.821,170C389.17,170,389.52,170,389.869,170C390.218,170,390.568,170,390.917,170C391.266,170,391.616,170,391.965,170C392.314,170,392.664,170,393.013,170C393.362,170,393.712,170,394.061,170C394.41,170,394.76,170,395.109,170C395.459,170,395.808,170,396.157,170C396.507,170,396.856,170,397.205,170C397.555,170,397.904,170,398.253,170C398.603,170,398.952,170,399.301,170C399.651,170,400,170,400.349,170C400.699,170,401.048,170,401.397,170C401.747,170,402.096,170,402.445,170C402.795,170,403.144,170,403.493,170C403.843,170,404.192,170,404.541,170C404.891,170,405.24,170,405.59,170C405.939,170,406.288,170,406.638,170C406.987,170,407.336,170,407.686,170C408.035,170,408.384,170,408.734,170C409.083,170,409.432,170,409.782,170C410.131,170,410.48,170,410.83,170C411.179,170,411.528,170,411.878,170C412.227,170,412.576,170,412.926,170C413.275,170,413.624,170,413.974,170C414.323,170,414.672,170,415.022,170C415.371,170,415.721,170,416.07,170C416.419,170,416.769,170,417.118,170C417.467,170,417.817,170,418.166,170C418.515,170,418.865,170,419.214,170C419.563,170,419.913,170,420.262,170C420.611,170,420.961,170,421.31,170C421.659,170,422.009,170,422.358,170C422.707,170,423.057,170,423.406,170C423.755,170,424.105,170,424.454,170C424.803,170,425.153,170,425.502,170C425.852,170,426.201,170,426.55,170C426.9,170,427.249,170,427.598,170C427.948,170,428.297,170,428.646,170C428.996,170,429.345,170,429.694,170C430.044,170,430.393,170,430.742,170C431.092,170,431.441,170,431.79,170C432.14,170,432.489,170,432.838,170C433.188,170,433.537,170,433.886,170C434.236,170,434.585,170,434.934,170C435.284,170,435.633,170,435.983,170C436.332,170,436.681,170,437.031,170C437.38,170,437.729,170,438.079,170C438.428,170,438.777,170,439.127,170C439.476,170,439.825,170,440.175,170C440.524,170,440.873,170,441.223,170C441.572,170,441.921,170,442.271,170C442.62,170,442.969,170,443.319,170C443.668,170,444.017,170,444.367,170C444.716,170,445.066,170,445.415,170C445.764,170,446.114,170,446.463,170C446.812,170,447.162,170,447.511,170C447.86,170,448.21,170,448.559,170C448.908,170,449.258,170,449.607,170C449.956,170,450.306,170,450.655,170C451.004,170,451.354,170,451.703,170C452.052,170,452.402,170,452.751,170C453.1,170,453.45,170,453.799,170C454.148,170,454.498,170,454.847,170C455.197,170,455.546,170,455.895,170C456.245,170,456.594,170,456.943,170C457.293,170,457.642,170,457.991,170C458.341,170,458.69,170,459.039,170C459.389,170,459.738,170,460.087,170C460.437,170,460.786,170,461.135,170C461.485,170,461.834,170,462.183,170C462.533,170,462.882,170,463.231,170C463.581,170,463.93,170,464.279,170C464.629,170,464.978,170,465.328,170C465.677,170,466.026,170,466.376,170C466.725,170,467.074,170,467.424,170C467.773,170,468.122,170,468.472,170C468.821,170,469.17,170,469.52,170C469.869,170,470.218,170,470.568,170C470.917,170,471.266,170,471.616,170C471.965,170,472.314,170,472.664,170C473.013,170,473.362,170,473.712,170C474.061,170,474.41,170,474.76,170C475.109,170,475.459,170,475.808,170C476.157,170,476.507,170,476.856,170C477.205,170,477.555,170,477.904,170C478.253,170,478.603,170,478.952,170C479.301,170,479.651,170,480,170C480.349,170,480.699,170,481.048,170C481.397,170,481.747,170,482.096,170C482.445,170,482.795,170,483.144,170C483.493,170,483.843,170,484.192,170C484.541,170,484.891,170,485.24,170C485.59,170,485.939,170,486.288,170C486.638,170,486.987,170,487.336,170C487.686,170,488.035,170,488.384,170C488.734,170,489.083,170,489.432,170C489.782,170,490.131,170,490.48,170C490.83,170,491.179,170,491.528,170C491.878,170,492.227,170,492.576,170C492.926,170,493.275,170,493.624,170C493.974,170,494.323,170,494.672,170C495.022,170,495.371,170,495.721,170C496.07,170,496.419,170,496.769,170C497.118,170,497.467,170,497.817,170C498.166,170,498.515,170,498.865,170C499.214,170,499.563,170,499.913,170C500.262,170,500.611,170,500.961,170C501.31,170,501.659,170,502.009,170C502.358,170,502.707,170,503.057,170C503.406,170,503.755,170,504.105,170C504.454,170,504.803,170,505.153,170C505.502,170,505.852,170,506.201,170C506.55,170,506.9,170,507.249,170C507.598,170,507.948,170,508.297,170C508.646,170,508.996,170,509.345,170C509.694,170,510.044,170,510.393,170C510.742,170,511.092,170,511.441,170C511.79,170,512.14,170,512.489,170C512.838,170,513.188,170,513.537,170C513.886,170,514.236,170,514.585,170C514.934,170,515.284,170,515.633,170C515.983,170,516.332,170,516.681,170C517.031,170,517.38,170,517.729,170C518.079,170,518.428,170,518.777,170C519.127,170,519.476,170,519.825,170C520.175,170,520.524,170,520.873,170C521.223,170,521.572,170,521.921,170C522.271,170,522.62,170,522.969,170C523.319,170,523.668,170,524.017,170C524.367,170,524.716,170,525.066,170C525.415,170,525.764,170,526.114,170C526.463,170,526.812,170,527.162,170C527.511,170,527.86,170,528.21,170C528.559,170,528.908,170,529.258,170C529.607,170,529.956,170,530.306,170C530.655,170,531.004,170,531.354,170C531.703,170,532.052,170,532.402,170C532.751,170,533.1,170,533.45,170C533.799,170,534.148,170,534.498,170C534.847,170,535.197,170,535.546,170C535.895,170,536.245,170,536.594,170C536.943,170,537.293,170,537.642,170C537.991,170,538.341,170,538.69,170C539.039,170,539.389,170,539.738,170C540.087,170,540.437,170,540.786,170C541.135,170,541.485,170,541.834,170C542.183,170,542.533,170,542.882,170C543.231,170,543.581,170,543.93,170C544.279,170,544.629,170,544.978,170C545.328,170,545.677,170,546.026,170C546.376,170,546.725,170,547.074,170C547.424,170,547.773,170,548.122,170C548.472,170,548.821,170,549.17,170C549.52,170,549.869,170,550.218,170C550.568,170,550.917,170,551.266,170C551.616,170,551.965,170,552.314,170C552.664,170,553.013,170,553.362,170C553.712,170,554.061,170,554.41,170C554.76,170,555.109,170,555.459,170C555.808,170,556.157,170,556.507,170C556.856,170,557.205,170,557.555,170C557.904,170,558.253,170,558.603,170C558.952,170,559.301,170,559.651,170C560,170,560.349,170,560.699,170C561.048,170,561.397,170,561.747,170C562.096,170,562.445,170,562.795,170C563.144,170,563.493,170,563.843,170C564.192,170,564.541,170,564.891,170C565.24,170,565.59,170,565.939,170C566.288,170,566.638,170,566.987,170C567.336,170,567.686,170,568.035,170C568.384,170,568.734,170,569.083,170C569.432,170,569.782,170,570.131,170C570.48,170,570.83,170,571.179,170C571.528,170,571.878,170,572.227,170C572.576,170,572.926,170,573.275,170C573.624,170,573.974,170,574.323,170C574.672,170,575.022,170,575.371,170C575.721,170,576.07,170,576.419,170C576.769,170,577.118,170,577.467,170C577.817,170,578.166,170,578.515,170C578.865,170,579.214,170,579.563,170C579.913,170,580.262,170,580.611,170C580.961,170,581.31,170,581.659,170C582.009,170,582.358,170,582.707,170C583.057,170,583.406,170,583.755,170C584.105,170,584.454,170,584.803,170C585.153,170,585.502,170,585.852,170C586.201,170,586.55,170,586.9,170C587.249,170,587.598,170,587.948,170C588.297,170,588.646,170,588.996,170C589.345,170,589.694,170,590.044,170C590.393,170,590.742,170,591.092,170C591.441,170,591.79,170,592.14,170C592.489,170,592.838,170,593.188,170C593.537,170,593.886,170,594.236,170C594.585,170,594.934,170,595.284,170C595.633,170,595.983,170,596.332,170C596.681,170,597.031,170,597.38,170C597.729,170,598.079,170,598.428,170C598.777,170,599.127,170,599.476,170C599.825,170,600.175,170,600.524,170C600.873,170,601.223,170,601.572,170C601.921,170,602.271,170,602.62,170C602.969,170,603.319,170,603.668,170C604.017,170,604.367,170,604.716,170C605.066,170,605.415,170,605.764,170C606.114,170,606.463,170,606.812,170C607.162,170,607.511,170,607.86,170C608.21,170,608.559,170,608.908,170C609.258,170,609.607,170,609.956,170C610.306,170,610.655,170,611.004,170C611.354,170,611.703,170,612.052,170C612.402,170,612.751,170,613.1,170C613.45,170,613.799,170,614.148,170C614.498,170,614.847,170,615.197,170C615.546,170,615.895,170,616.245,170C616.594,170,616.943,170,617.293,170C617.642,170,617.991,170,618.341,170C618.69,170,619.039,170,619.389,170C619.738,170,620.087,170,620.437,170C620.786,170,621.135,170,621.485,170C621.834,170,622.183,170,622.533,170C622.882,170,623.231,170,623.581,170C623.93,170,624.279,170,624.629,170C624.978,170,625.328,170,625.677,170C626.026,170,626.376,170,626.725,170C627.074,170,627.424,170,627.773,170C628.122,170,628.472,170,628.821,170C629.17,170,629.52,170,629.869,170C630.218,170,630.568,170,630.917,170C631.266,170,631.616,170,631.965,170C632.314,170,632.664,170,633.013,170C633.362,170,633.712,170,634.061,170C634.41,170,634.76,170,635.109,170C635.459,170,635.808,170,636.157,170C636.507,170,636.856,170,637.205,170C637.555,170,637.904,170,638.253,170C638.603,170,638.952,170,639.301,170C639.651,170,640,170,640.349,170C640.699,170,641.048,170,641.397,170C641.747,170,642.096,170,642.445,170C642.795,170,643.144,170,643.493,170C643.843,170,644.192,170,644.541,170C644.891,170,645.24,170,645.59,170C645.939,170,646.288,170,646.638,170C646.987,170,647.336,170,647.686,170C648.035,170,648.384,170,648.734,170C649.083,170,649.432,170,649.782,170C650.131,170,650.48,170,650.83,170C651.179,170,651.528,170,651.878,170C652.227,170,652.576,170,652.926,170C653.275,170,653.624,170,653.974,170C654.323,170,654.672,170,655.022,170C655.371,170,655.721,170,656.07,170C656.419,170,656.769,170,657.118,170C657.467,170,657.817,170,658.166,170C658.515,170,658.865,170,659.214,170C659.563,170,659.913,170,660.262,170C660.611,170,660.961,170,661.31,170C661.659,170,662.009,170,662.358,170C662.707,170,663.057,170,663.406,170C663.755,170,664.105,170,664.454,170C664.803,170,665.153,170,665.502,170C665.852,170,666.201,170,666.55,170C666.9,170,667.249,170,667.598,170C667.948,170,668.297,170,668.646,170C668.996,170,669.345,170,669.694,170C670.044,170,670.393,170,670.742,170C671.092,170,671.441,170,671.79,170C672.14,170,672.489,170,672.838,170C673.188,170,673.537,170,673.886,170C674.236,170,674.585,170,674.934,170C675.284,170,675.633,170,675.983,170C676.332,170,676.681,170,677.031,170C677.38,170,677.729,170,678.079,170C678.428,170,678.777,170,679.127,170C679.476,170,679.825,170,680.175,170C680.524,170,680.873,170,681.223,170C681.572,170,681.921,170,682.271,170C682.62,170,682.969,170,683.319,170C683.668,170,684.017,170,684.367,170C684.716,170,685.066,170,685.415,170C685.764,170,686.114,170,686.463,170C686.812,170,687.162,170,687.511,170C687.86,170,688.21,170,688.559,170C688.908,170,689.258,170,689.607,170C689.956,170,690.306,170,690.655,170C691.004,170,691.354,170,691.703,170C692.052,170,692.402,170,692.751,170C693.1,170,693.45,170,693.799,170C694.148,170,694.498,170,694.847,170C695.197,170,695.546,170,695.895,170C696.245,170,696.594,170,696.943,170C697.293,170,697.642,170,697.991,170C698.341,170,698.69,170,699.039,170C699.389,170,699.738,170,700.087,170C700.437,170,700.786,170,701.135,170C701.485,170,701.834,170,702.183,170C702.533,170,702.882,170,703.231,170C703.581,170,703.93,170,704.279,170C704.629,170,704.978,170,705.328,170C705.677,170,706.026,170,706.376,170C706.725,170,707.074,170,707.424,170C707.773,170,708.122,170,708.472,170C708.821,170,709.17,170,709.52,170C709.869,170,710.218,170,710.568,170C710.917,170,711.266,170,711.616,170C711.965,170,712.314,170,712.664,170C713.013,170,713.362,170,713.712,170C714.061,170,714.41,170,714.76,170C715.109,170,715.459,170,715.808,170C716.157,170,716.507,170,716.856,170C717.205,170,717.555,170,717.904,170C718.253,170,718.603,170,718.952,170C719.301,170,719.651,170,720,170"></path><circle class="dot" cx="0" cy="170" r="3" fill="#2563eb"></circle><circle class="dot" cx="1.0480349344978166" cy="170" r="3" fill="#2563eb"></circle><circle class="dot" cx="2.096069868995633" cy="170" r="3" fill="#2563eb"></circle><circle class="dot" cx="3.1441048034934496" cy="170" r="3" fill="#2563eb"></circle><circle class="dot" cx="4.192139737991266" cy="170" r="3" fill="#2563eb"></circle><circle class="dot" cx="5.240174672489083" cy="170" r="3" fill="#2563eb"></circle><circle class="dot" cx="6.288209606986899" cy="170" r="3" fill="#2563eb"></circle><circle class="dot" cx="7.336244541484716" cy="170" r="3" fill="#2563eb"></circle><circle class="dot" cx="8.384279475982533" cy="170" r="3" fill="#2563eb"></circle><circle class="dot" cx="9.432314410480348" cy="170" r="3" fill="#2563eb"></circle><circle class="dot" cx="10.480349344978166" cy="170" r="3" fill="#2563eb"></circle><circle class="dot" cx="11.528384279475983" cy="170" r="3" fill="#2563eb"></circle><circle class="dot" cx="12.576419213973798" cy="170" r="3" fill="#2563eb"></circle><circle class="dot" cx="13.624454148471617" cy="170" r="3" fill="#2563eb"></circle><circle class="dot" cx="14.672489082969433" cy="170" r="3" fill="#2563eb"></circle><circle class="dot" cx="15.720524017467248" cy="170" r="3" fill="#2563eb"></circle><circle class="dot" cx="16.768558951965066" cy="170" r="3" fill="#2563eb"></circle><circle class="dot" cx="17.816593886462883" cy="170" r="3" fill="#2563eb"></circle><circle class="dot" cx="18.864628820960696" cy="170" r="3" fill="#2563eb"></circle><circle class="dot" cx="19.912663755458517" cy="170" r="3" fill="#2563eb"></circle><circle class="dot" cx="20.96069868995633" cy="170" r="3" fill="#2563eb"></circle><circle class="dot" cx="22.00873362445415" cy="170" r="3" fill="#2563eb"></circle><circle class="dot" cx="23.056768558951966" cy="170" r="3" fill="#2563eb"></circle><circle class="dot" cx="24.104803493449783" cy="170" r="3" fill="#2563eb"></circle><circle class="dot" cx="25.152838427947597" cy="170" r="3" fill="#2563eb"></circle><circle class="dot" cx="26.200873362445414" cy="170" r="3" fill="#2563eb"></circle><circle class="dot" cx="27.248908296943235" cy="170" r="3" fill="#2563eb"></circle><circle class="dot" cx="28.29694323144105" cy="170" r="3" fill="#2563eb"></circle><circle class="dot" cx="29.344978165938866" cy="170" r="3" fill="#2563eb"></circle><circle class="dot" cx="30.39301310043668" cy="170" r="3" fill="#2563eb"></circle><circle class="dot" cx="31.441048034934497" cy="170" r="3" fill="#2563eb"></circle><circle class="dot" cx="32.48908296943232" cy="170" r="3" fill="#2563eb"></circle><circle class="dot" cx="33.53711790393013" cy="170" r="3" fill="#2563eb"></circle><circle class="dot" cx="34.585152838427945" cy="170" r="3" fill="#2563eb"></circle><circle class="dot" cx="35.633187772925766" cy="170" r="3" fill="#2563eb"></circle><circle class="dot" cx="36.68122270742358" cy="170" r="3" fill="#2563eb"></circle><circle class="dot" cx="37.72925764192139" cy="170" r="3" fill="#2563eb"></circle><circle class="dot" cx="38.777292576419214" cy="170" r="3" fill="#2563eb"></circle><circle class="dot" cx="39.825327510917035" cy="170" r="3" fill="#2563eb"></circle><circle class="dot" cx="40.87336244541485" cy="170" r="3" fill="#2563eb"></circle><circle class="dot" cx="41.92139737991266" cy="170" r="3" fill="#2563eb"></circle><circle class="dot" cx="42.969432314410476" cy="170" r="3" fill="#2563eb"></circle><circle class="dot" cx="44.0174672489083" cy="170" r="3" fill="#2563eb"></circle><circle class="dot" cx="45.06550218340612" cy="170" r="3" fill="#2563eb"></circle><circle class="dot" cx="46.11353711790393" cy="170" r="3" fill="#2563eb"></circle><circle class="dot" cx="47.161572052401745" cy="170" r="3" fill="#2563eb"></circle><circle class="dot" cx="48.209606986899566" cy="170" r="3" fill="#2563eb"></circle><circle class="dot" cx="49.25764192139738" cy="170" r="3" fill="#2563eb"></circle><circle class="dot" cx="50.30567685589519" cy="170" r="3" fill="#2563eb"></circle><circle class="dot" cx="51.35371179039301" cy="170" r="3" fill="#2563eb"></circle><circle class="dot" cx="52.40174672489083" cy="170" r="3" fill="#2563eb"></circle><circle class="dot" cx="53.44978165938865" cy="170" r="3" fill="#2563eb"></circle><circle class="dot" cx="54.49781659388647" cy="170" r="3" fill="#2563eb"></circle><circle class="dot" cx="55.54585152838428" cy="170" r="3" fill="#2563eb"></circle><circle class="dot" cx="56.5938864628821" cy="170" r="3" fill="#2563eb"></circle><circle class="dot" cx="57.64192139737992" cy="170" r="3" fill="#2563eb"></circle><circle class="dot" cx="58.68995633187773" cy="170" r="3" fill="#2563eb"></circle><circle class="dot" cx="59.737991266375545" cy="170" r="3" fill="#2563eb"></circle><circle class="dot" cx="60.78602620087336" cy="170" r="3" fill="#2563eb"></circle><circle class="dot" cx="61.83406113537118" cy="170" r="3" fill="#2563eb"></circle><circle class="dot" cx="62.88209606986899" cy="170" r="3" fill="#2563eb"></circle><circle class="dot" cx="63.93013100436681" cy="170" r="3" fill="#2563eb"></circle><circle class="dot" cx="64.97816593886463" cy="170" r="3" fill="#2563eb"></circle><circle class="dot" cx="66.02620087336246" cy="170" r="3" fill="#2563eb"></circle><circle class="dot" cx="67.07423580786026" cy="170" r="3" fill="#2563eb"></circle><circle class="dot" cx="68.12227074235808" cy="170" r="3" fill="#2563eb"></circle><circle class="dot" cx="69.17030567685589" cy="170" r="3" fill="#2563eb"></circle><circle class="dot" cx="70.21834061135371" cy="170" r="3" fill="#2563eb"></circle><circle class="dot" cx="71.26637554585153" cy="170" r="3" fill="#2563eb"></circle><circle class="dot" cx="72.31441048034934" cy="170" r="3" fill="#2563eb"></circle><circle class="dot" cx="73.36244541484716" cy="170" r="3" fill="#2563eb"></circle><circle class="dot" cx="74.41048034934498" cy="170" r="3" fill="#2563eb"></circle><circle class="dot" cx="75.45851528384279" cy="170" r="3" fill="#2563eb"></circle><circle class="dot" cx="76.5065502183406" cy="170" r="3" fill="#2563eb"></circle><circle class="dot" cx="77.55458515283843" cy="170" r="3" fill="#2563eb"></circle><circle class="dot" cx="78.60262008733625" cy="170" r="3" fill="#2563eb"></circle><circle class="dot" cx="79.65065502183407" cy="170" r="3" fill="#2563eb"></circle><circle class="dot" cx="80.69868995633188" cy="170" r="3" fill="#2563eb"></circle><circle class="dot" cx="81.7467248908297" cy="170" r="3" fill="#2563eb"></circle><circle class="dot" cx="82.79475982532752" cy="170" r="3" fill="#2563eb"></circle><circle class="dot" cx="83.84279475982532" cy="170" r="3" fill="#2563eb"></circle><circle class="dot" cx="84.89082969432314" cy="170" r="3" fill="#2563eb"></circle><circle class="dot" cx="85.93886462882095" cy="170" r="3" fill="#2563eb"></circle><circle class="dot" cx="86.98689956331877" cy="170" r="3" fill="#2563eb"></circle><circle class="dot" cx="88.0349344978166" cy="170" r="3" fill="#2563eb"></circle><circle class="dot" cx="89.08296943231441" cy="170" r="3" fill="#2563eb"></circle><circle class="dot" cx="90.13100436681223" cy="170" r="3" fill="#2563eb"></circle><circle class="dot" cx="91.17903930131004" cy="170" r="3" fill="#2563eb"></circle><circle class="dot" cx="92.22707423580786" cy="170" r="3" fill="#2563eb"></circle><circle class="dot" cx="93.27510917030567" cy="170" r="3" fill="#2563eb"></circle><circle class="dot" cx="94.32314410480349" cy="170" r="3" fill="#2563eb"></circle><circle class="dot" cx="95.37117903930132" cy="170" r="3" fill="#2563eb"></circle><circle class="dot" cx="96.41921397379913" cy="170" r="3" fill="#2563eb"></circle><circle class="dot" cx="97.46724890829695" cy="170" r="3" fill="#2563eb"></circle><circle class="dot" cx="98.51528384279476" cy="170" r="3" fill="#2563eb"></circle><circle class="dot" cx="99.56331877729258" cy="170" r="3" fill="#2563eb"></circle><circle class="dot" cx="100.61135371179039" cy="170" r="3" fill="#2563eb"></circle><circle class="dot" cx="101.6593886462882" cy="170" r="3" fill="#2563eb"></circle><circle class="dot" cx="102.70742358078601" cy="170" r="3" fill="#2563eb"></circle><circle class="dot" cx="103.75545851528385" cy="170" r="3" fill="#2563eb"></circle><circle class="dot" cx="104.80349344978166" cy="170" r="3" fill="#2563eb"></circle><circle class="dot" cx="105.85152838427948" cy="170" r="3" fill="#2563eb"></circle><circle class="dot" cx="106.8995633187773" cy="170" r="3" fill="#2563eb"></circle><circle class="dot" cx="107.9475982532751" cy="170" r="3" fill="#2563eb"></circle><circle class="dot" cx="108.99563318777294" cy="170" r="3" fill="#2563eb"></circle><circle class="dot" cx="110.04366812227074" cy="170" r="3" fill="#2563eb"></circle><circle class="dot" cx="111.09170305676857" cy="170" r="3" fill="#2563eb"></circle><circle class="dot" cx="112.13973799126637" cy="170" r="3" fill="#2563eb"></circle><circle class="dot" cx="113.1877729257642" cy="170" r="3" fill="#2563eb"></circle><circle class="dot" cx="114.235807860262" cy="170" r="3" fill="#2563eb"></circle><circle class="dot" cx="115.28384279475983" cy="170" r="3" fill="#2563eb"></circle><circle class="dot" cx="116.33187772925763" cy="170" r="3" fill="#2563eb"></circle><circle class="dot" cx="117.37991266375546" cy="170" r="3" fill="#2563eb"></circle><circle class="dot" cx="118.42794759825328" cy="170" r="3" fill="#2563eb"></circle><circle class="dot" cx="119.47598253275109" cy="170" r="3" fill="#2563eb"></circle><circle class="dot" cx="120.52401746724891" cy="170" r="3" fill="#2563eb"></circle><circle class="dot" cx="121.57205240174672" cy="170" r="3" fill="#2563eb"></circle><circle class="dot" cx="122.62008733624455" cy="170" r="3" fill="#2563eb"></circle><circle class="dot" cx="123.66812227074236" cy="170" r="3" fill="#2563eb"></circle><circle class="dot" cx="124.71615720524018" cy="170" r="3" fill="#2563eb"></circle><circle class="dot" cx="125.76419213973799" cy="170" r="3" fill="#2563eb"></circle><circle class="dot" cx="126.8122270742358" cy="170" r="3" fill="#2563eb"></circle><circle class="dot" cx="127.86026200873361" cy="170" r="3" fill="#2563eb"></circle><circle class="dot" cx="128.90829694323145" cy="170" r="3" fill="#2563eb"></circle><circle class="dot" cx="129.95633187772927" cy="170" r="3" fill="#2563eb"></circle><circle class="dot" cx="131.00436681222706" cy="170" r="3" fill="#2563eb"></circle><circle class="dot" cx="132.0524017467249" cy="170" r="3" fill="#2563eb"></circle><circle class="dot" cx="133.1004366812227" cy="170" r="3" fill="#2563eb"></circle><circle class="dot" cx="134.14847161572052" cy="170" r="3" fill="#2563eb"></circle><circle class="dot" cx="135.19650655021834" cy="170" r="3" fill="#2563eb"></circle><circle class="dot" cx="136.24454148471617" cy="170" r="3" fill="#2563eb"></circle><circle class="dot" cx="137.29257641921396" cy="170" r="3" fill="#2563eb"></circle><circle class="dot" cx="138.34061135371178" cy="170" r="3" fill="#2563eb"></circle><circle class="dot" cx="139.3886462882096" cy="170" r="3" fill="#2563eb"></circle><circle class="dot" cx="140.43668122270742" cy="170" r="3" fill="#2563eb"></circle><circle class="dot" cx="141.48471615720524" cy="170" r="3" fill="#2563eb"></circle><circle class="dot" cx="142.53275109170306" cy="170" r="3" fill="#2563eb"></circle><circle class="dot" cx="143.58078602620088" cy="170" r="3" fill="#2563eb"></circle><circle class="dot" cx="144.62882096069868" cy="170" r="3" fill="#2563eb"></circle><circle class="dot" cx="145.67685589519652" cy="170" r="3" fill="#2563eb"></circle><circle class="dot" cx="146.72489082969432" cy="170" r="3" fill="#2563eb"></circle><circle class="dot" cx="147.77292576419214" cy="170" r="3" fill="#2563eb"></circle><circle class="dot" cx="148.82096069868996" cy="170" r="3" fill="#2563eb"></circle><circle class="dot" cx="149.86899563318778" cy="170" r="3" fill="#2563eb"></circle><circle class="dot" cx="150.91703056768557" cy="170" r="3" fill="#2563eb"></circle><circle class="dot" cx="151.96506550218342" cy="170" r="3" fill="#2563eb"></circle><circle class="dot" cx="153.0131004366812" cy="170" r="3" fill="#2563eb"></circle><circle class="dot" cx="154.06113537117903" cy="170" r="3" fill="#2563eb"></circle><circle class="dot" cx="155.10917030567686" cy="170" r="3" fill="#2563eb"></circle><circle class="dot" cx="156.15720524017468" cy="170" r="3" fill="#2563eb"></circle><circle class="dot" cx="157.2052401746725" cy="170" r="3" fill="#2563eb"></circle><circle class="dot" cx="158.2532751091703" cy="170" r="3" fill="#2563eb"></circle><circle class="dot" cx="159.30131004366814" cy="170" r="3" fill="#2563eb"></circle><circle class="dot" cx="160.34934497816593" cy="170" r="3" fill="#2563eb"></circle><circle class="dot" cx="161.39737991266375" cy="170" r="3" fill="#2563eb"></circle><circle class="dot" cx="162.44541484716157" cy="170" r="3" fill="#2563eb"></circle><circle class="dot" cx="163.4934497816594" cy="170" r="3" fill="#2563eb"></circle><circle class="dot" cx="164.54148471615719" cy="170" r="3" fill="#2563eb"></circle><circle class="dot" cx="165.58951965065503" cy="170" r="3" fill="#2563eb"></circle><circle class="dot" cx="166.63755458515286" cy="170" r="3" fill="#2563eb"></circle><circle class="dot" cx="167.68558951965065" cy="170" r="3" fill="#2563eb"></circle><circle class="dot" cx="168.73362445414847" cy="170" r="3" fill="#2563eb"></circle><circle class="dot" cx="169.7816593886463" cy="170" r="3" fill="#2563eb"></circle><circle class="dot" cx="170.8296943231441" cy="170" r="3" fill="#2563eb"></circle><circle class="dot" cx="171.8777292576419" cy="170" r="3" fill="#2563eb"></circle><circle class="dot" cx="172.92576419213975" cy="170" r="3" fill="#2563eb"></circle><circle class="dot" cx="173.97379912663754" cy="170" r="3" fill="#2563eb"></circle><circle class="dot" cx="175.02183406113537" cy="170" r="3" fill="#2563eb"></circle><circle class="dot" cx="176.0698689956332" cy="170" r="3" fill="#2563eb"></circle><circle class="dot" cx="177.117903930131" cy="170" r="3" fill="#2563eb"></circle><circle class="dot" cx="178.16593886462883" cy="170" r="3" fill="#2563eb"></circle><circle class="dot" cx="179.21397379912665" cy="170" r="3" fill="#2563eb"></circle><circle class="dot" cx="180.26200873362447" cy="170" r="3" fill="#2563eb"></circle><circle class="dot" cx="181.31004366812226" cy="170" r="3" fill="#2563eb"></circle><circle class="dot" cx="182.35807860262008" cy="170" r="3" fill="#2563eb"></circle><circle class="dot" cx="183.40611353711793" cy="170" r="3" fill="#2563eb"></circle><circle class="dot" cx="184.45414847161572" cy="170" r="3" fill="#2563eb"></circle><circle class="dot" cx="185.50218340611352" cy="170" r="3" fill="#2563eb"></circle><circle class="dot" cx="186.55021834061134" cy="170" r="3" fill="#2563eb"></circle><circle class="dot" cx="187.5982532751092" cy="170" r="3" fill="#2563eb"></circle><circle class="dot" cx="188.64628820960698" cy="170" r="3" fill="#2563eb"></circle><circle class="dot" cx="189.6943231441048" cy="170" r="3" fill="#2563eb"></circle><circle class="dot" cx="190.74235807860265" cy="170" r="3" fill="#2563eb"></circle><circle class="dot" cx="191.79039301310044" cy="170" r="3" fill="#2563eb"></circle><circle class="dot" cx="192.83842794759826" cy="170" r="3" fill="#2563eb"></circle><circle class="dot" cx="193.88646288209605" cy="170" r="3" fill="#2563eb"></circle><circle class="dot" cx="194.9344978165939" cy="170" r="3" fill="#2563eb"></circle><circle class="dot" cx="195.9825327510917" cy="170" r="3" fill="#2563eb"></circle><circle class="dot" cx="197.03056768558952" cy="170" r="3" fill="#2563eb"></circle><circle class="dot" cx="198.0786026200873" cy="170" r="3" fill="#2563eb"></circle><circle class="dot" cx="199.12663755458516" cy="170" r="3" fill="#2563eb"></circle><circle class="dot" cx="200.17467248908298" cy="170" r="3" fill="#2563eb"></circle><circle class="dot" cx="201.22270742358077" cy="170" r="3" fill="#2563eb"></circle><circle class="dot" cx="202.27074235807862" cy="170" r="3" fill="#2563eb"></circle><circle class="dot" cx="203.3187772925764" cy="170" r="3" fill="#2563eb"></circle><circle class="dot" cx="204.36681222707423" cy="170" r="3" fill="#2563eb"></circle><circle class="dot" cx="205.41484716157203" cy="170" r="3" fill="#2563eb"></circle><circle class="dot" cx="206.46288209606988" cy="170" r="3" fill="#2563eb"></circle><circle class="dot" cx="207.5109170305677" cy="170" r="3" fill="#2563eb"></circle><circle class="dot" cx="208.5589519650655" cy="170" r="3" fill="#2563eb"></circle><circle class="dot" cx="209.6069868995633" cy="170" r="3" fill="#2563eb"></circle><circle class="dot" cx="210.65502183406116" cy="170" r="3" fill="#2563eb"></circle><circle class="dot" cx="211.70305676855895" cy="170" r="3" fill="#2563eb"></circle><circle class="dot" cx="212.75109170305677" cy="170" r="3" fill="#2563eb"></circle><circle class="dot" cx="213.7991266375546" cy="170" r="3" fill="#2563eb"></circle><circle class="dot" cx="214.8471615720524" cy="170" r="3" fill="#2563eb"></circle><circle class="dot" cx="215.8951965065502" cy="170" r="3" fill="#2563eb"></circle><circle class="dot" cx="216.94323144104803" cy="170" r="3" fill="#2563eb"></circle><circle class="dot" cx="217.99126637554588" cy="170" r="3" fill="#2563eb"></circle><circle class="dot" cx="219.03930131004367" cy="170" r="3" fill="#2563eb"></circle><circle class="dot" cx="220.0873362445415" cy="170" r="3" fill="#2563eb"></circle><circle class="dot" cx="221.13537117903928" cy="170" r="3" fill="#2563eb"></circle><circle class="dot" cx="222.18340611353713" cy="170" r="3" fill="#2563eb"></circle><circle class="dot" cx="223.23144104803492" cy="170" r="3" fill="#2563eb"></circle><circle class="dot" cx="224.27947598253274" cy="170" r="3" fill="#2563eb"></circle><circle class="dot" cx="225.3275109170306" cy="170" r="3" fill="#2563eb"></circle><circle class="dot" cx="226.3755458515284" cy="170" r="3" fill="#2563eb"></circle><circle class="dot" cx="227.4235807860262" cy="170" r="3" fill="#2563eb"></circle><circle class="dot" cx="228.471615720524" cy="170" r="3" fill="#2563eb"></circle><circle class="dot" cx="229.51965065502185" cy="170" r="3" fill="#2563eb"></circle><circle class="dot" cx="230.56768558951967" cy="170" r="3" fill="#2563eb"></circle><circle class="dot" cx="231.61572052401746" cy="170" r="3" fill="#2563eb"></circle><circle class="dot" cx="232.66375545851525" cy="170" r="3" fill="#2563eb"></circle><circle class="dot" cx="233.7117903930131" cy="170" r="3" fill="#2563eb"></circle><circle class="dot" cx="234.75982532751092" cy="170" r="3" fill="#2563eb"></circle><circle class="dot" cx="235.80786026200872" cy="170" r="3" fill="#2563eb"></circle><circle class="dot" cx="236.85589519650657" cy="170" r="3" fill="#2563eb"></circle><circle class="dot" cx="237.9039301310044" cy="170" r="3" fill="#2563eb"></circle><circle class="dot" cx="238.95196506550218" cy="170" r="3" fill="#2563eb"></circle><circle class="dot" cx="240" cy="170" r="3" fill="#2563eb"></circle><circle class="dot" cx="241.04803493449782" cy="170" r="3" fill="#2563eb"></circle><circle class="dot" cx="242.09606986899564" cy="170" r="3" fill="#2563eb"></circle><circle class="dot" cx="243.14410480349343" cy="170" r="3" fill="#2563eb"></circle><circle class="dot" cx="244.19213973799125" cy="170" r="3" fill="#2563eb"></circle><circle class="dot" cx="245.2401746724891" cy="170" r="3" fill="#2563eb"></circle><circle class="dot" cx="246.2882096069869" cy="170" r="3" fill="#2563eb"></circle><circle class="dot" cx="247.33624454148472" cy="170" r="3" fill="#2563eb"></circle><circle class="dot" cx="248.38427947598257" cy="170" r="3" fill="#2563eb"></circle><circle class="dot" cx="249.43231441048036" cy="170" r="3" fill="#2563eb"></circle><circle class="dot" cx="250.48034934497815" cy="170" r="3" fill="#2563eb"></circle><circle class="dot" cx="251.52838427947597" cy="170" r="3" fill="#2563eb"></circle><circle class="dot" cx="252.57641921397382" cy="170" r="3" fill="#2563eb"></circle><circle class="dot" cx="253.6244541484716" cy="170" r="3" fill="#2563eb"></circle><circle class="dot" cx="254.67248908296943" cy="170" r="3" fill="#2563eb"></circle><circle class="dot" cx="255.72052401746723" cy="170" r="3" fill="#2563eb"></circle><circle class="dot" cx="256.7685589519651" cy="170" r="3" fill="#2563eb"></circle><circle class="dot" cx="257.8165938864629" cy="170" r="3" fill="#2563eb"></circle><circle class="dot" cx="258.86462882096066" cy="170" r="3" fill="#2563eb"></circle><circle class="dot" cx="259.91266375545854" cy="170" r="3" fill="#2563eb"></circle><circle class="dot" cx="260.96069868995636" cy="170" r="3" fill="#2563eb"></circle><circle class="dot" cx="262.0087336244541" cy="170" r="3" fill="#2563eb"></circle><circle class="dot" cx="263.05676855895194" cy="170" r="3" fill="#2563eb"></circle><circle class="dot" cx="264.1048034934498" cy="170" r="3" fill="#2563eb"></circle><circle class="dot" cx="265.1528384279476" cy="170" r="3" fill="#2563eb"></circle><circle class="dot" cx="266.2008733624454" cy="170" r="3" fill="#2563eb"></circle><circle class="dot" cx="267.2489082969432" cy="170" r="3" fill="#2563eb"></circle><circle class="dot" cx="268.29694323144105" cy="170" r="3" fill="#2563eb"></circle><circle class="dot" cx="269.34497816593887" cy="170" r="3" fill="#2563eb"></circle><circle class="dot" cx="270.3930131004367" cy="170" r="3" fill="#2563eb"></circle><circle class="dot" cx="271.44104803493445" cy="170" r="3" fill="#2563eb"></circle><circle class="dot" cx="272.48908296943233" cy="170" r="3" fill="#2563eb"></circle><circle class="dot" cx="273.53711790393015" cy="170" r="3" fill="#2563eb"></circle><circle class="dot" cx="274.5851528384279" cy="170" r="3" fill="#2563eb"></circle><circle class="dot" cx="275.6331877729258" cy="170" r="3" fill="#2563eb"></circle><circle class="dot" cx="276.68122270742356" cy="170" r="3" fill="#2563eb"></circle><circle class="dot" cx="277.7292576419214" cy="170" r="3" fill="#2563eb"></circle><circle class="dot" cx="278.7772925764192" cy="170" r="3" fill="#2563eb"></circle><circle class="dot" cx="279.825327510917" cy="170" r="3" fill="#2563eb"></circle><circle class="dot" cx="280.87336244541484" cy="170" r="3" fill="#2563eb"></circle><circle class="dot" cx="281.92139737991266" cy="170" r="3" fill="#2563eb"></circle><circle class="dot" cx="282.9694323144105" cy="170" r="3" fill="#2563eb"></circle><circle class="dot" cx="284.0174672489083" cy="170" r="3" fill="#2563eb"></circle><circle class="dot" cx="285.0655021834061" cy="170" r="3" fill="#2563eb"></circle><circle class="dot" cx="286.11353711790395" cy="170" r="3" fill="#2563eb"></circle><circle class="dot" cx="287.16157205240177" cy="170" r="3" fill="#2563eb"></circle><circle class="dot" cx="288.2096069868996" cy="170" r="3" fill="#2563eb"></circle><circle class="dot" cx="289.25764192139735" cy="170" r="3" fill="#2563eb"></circle><circle class="dot" cx="290.3056768558952" cy="170" r="3" fill="#2563eb"></circle><circle class="dot" cx="291.35371179039305" cy="170" r="3" fill="#2563eb"></circle><circle class="dot" cx="292.4017467248908" cy="170" r="3" fill="#2563eb"></circle><circle class="dot" cx="293.44978165938863" cy="170" r="3" fill="#2563eb"></circle><circle class="dot" cx="294.49781659388645" cy="170" r="3" fill="#2563eb"></circle><circle class="dot" cx="295.5458515283843" cy="170" r="3" fill="#2563eb"></circle><circle class="dot" cx="296.5938864628821" cy="170" r="3" fill="#2563eb"></circle><circle class="dot" cx="297.6419213973799" cy="170" r="3" fill="#2563eb"></circle><circle class="dot" cx="298.68995633187774" cy="170" r="3" fill="#2563eb"></circle><circle class="dot" cx="299.73799126637556" cy="170" r="3" fill="#2563eb"></circle><circle class="dot" cx="300.7860262008734" cy="170" r="3" fill="#2563eb"></circle><circle class="dot" cx="301.83406113537114" cy="170" r="3" fill="#2563eb"></circle><circle class="dot" cx="302.882096069869" cy="170" r="3" fill="#2563eb"></circle><circle class="dot" cx="303.93013100436684" cy="170" r="3" fill="#2563eb"></circle><circle class="dot" cx="304.9781659388646" cy="170" r="3" fill="#2563eb"></circle><circle class="dot" cx="306.0262008733624" cy="170" r="3" fill="#2563eb"></circle><circle class="dot" cx="307.07423580786025" cy="170" r="3" fill="#2563eb"></circle><circle class="dot" cx="308.12227074235807" cy="170" r="3" fill="#2563eb"></circle><circle class="dot" cx="309.1703056768559" cy="170" r="3" fill="#2563eb"></circle><circle class="dot" cx="310.2183406113537" cy="170" r="3" fill="#2563eb"></circle><circle class="dot" cx="311.26637554585153" cy="170" r="3" fill="#2563eb"></circle><circle class="dot" cx="312.31441048034935" cy="170" r="3" fill="#2563eb"></circle><circle class="dot" cx="313.3624454148472" cy="170" r="3" fill="#2563eb"></circle><circle class="dot" cx="314.410480349345" cy="170" r="3" fill="#2563eb"></circle><circle class="dot" cx="315.4585152838428" cy="170" r="3" fill="#2563eb"></circle><circle class="dot" cx="316.5065502183406" cy="170" r="3" fill="#2563eb"></circle><circle class="dot" cx="317.5545851528384" cy="170" r="3" fill="#2563eb"></circle><circle class="dot" cx="318.6026200873363" cy="170" r="3" fill="#2563eb"></circle><circle class="dot" cx="319.65065502183404" cy="170" r="3" fill="#2563eb"></circle><circle class="dot" cx="320.69868995633186" cy="170" r="3" fill="#2563eb"></circle><circle class="dot" cx="321.74672489082974" cy="170" r="3" fill="#2563eb"></circle><circle class="dot" cx="322.7947598253275" cy="170" r="3" fill="#2563eb"></circle><circle class="dot" cx="323.8427947598253" cy="170" r="3" fill="#2563eb"></circle><circle class="dot" cx="324.89082969432314" cy="170" r="3" fill="#2563eb"></circle><circle class="dot" cx="325.93886462882097" cy="170" r="3" fill="#2563eb"></circle><circle class="dot" cx="326.9868995633188" cy="170" r="3" fill="#2563eb"></circle><circle class="dot" cx="328.0349344978166" cy="170" r="3" fill="#2563eb"></circle><circle class="dot" cx="329.08296943231437" cy="170" r="3" fill="#2563eb"></circle><circle class="dot" cx="330.13100436681225" cy="170" r="3" fill="#2563eb"></circle><circle class="dot" cx="331.17903930131007" cy="170" r="3" fill="#2563eb"></circle><circle class="dot" cx="332.22707423580783" cy="170" r="3" fill="#2563eb"></circle><circle class="dot" cx="333.2751091703057" cy="170" r="3" fill="#2563eb"></circle><circle class="dot" cx="334.3231441048035" cy="170" r="3" fill="#2563eb"></circle><circle class="dot" cx="335.3711790393013" cy="170" r="3" fill="#2563eb"></circle><circle class="dot" cx="336.4192139737991" cy="170" r="3" fill="#2563eb"></circle><circle class="dot" cx="337.46724890829694" cy="170" r="3" fill="#2563eb"></circle><circle class="dot" cx="338.51528384279476" cy="170" r="3" fill="#2563eb"></circle><circle class="dot" cx="339.5633187772926" cy="170" r="3" fill="#2563eb"></circle><circle class="dot" cx="340.6113537117904" cy="170" r="3" fill="#2563eb"></circle><circle class="dot" cx="341.6593886462882" cy="170" r="3" fill="#2563eb"></circle><circle class="dot" cx="342.70742358078604" cy="170" r="3" fill="#2563eb"></circle><circle class="dot" cx="343.7554585152838" cy="170" r="3" fill="#2563eb"></circle><circle class="dot" cx="344.8034934497817" cy="170" r="3" fill="#2563eb"></circle><circle class="dot" cx="345.8515283842795" cy="170" r="3" fill="#2563eb"></circle><circle class="dot" cx="346.89956331877727" cy="170" r="3" fill="#2563eb"></circle><circle class="dot" cx="347.9475982532751" cy="170" r="3" fill="#2563eb"></circle><circle class="dot" cx="348.99563318777297" cy="170" r="3" fill="#2563eb"></circle><circle class="dot" cx="350.04366812227073" cy="170" r="3" fill="#2563eb"></circle><circle class="dot" cx="351.09170305676855" cy="170" r="3" fill="#2563eb"></circle><circle class="dot" cx="352.1397379912664" cy="170" r="3" fill="#2563eb"></circle><circle class="dot" cx="353.1877729257642" cy="170" r="3" fill="#2563eb"></circle><circle class="dot" cx="354.235807860262" cy="170" r="3" fill="#2563eb"></circle><circle class="dot" cx="355.28384279475983" cy="170" r="3" fill="#2563eb"></circle><circle class="dot" cx="356.33187772925766" cy="170" r="3" fill="#2563eb"></circle><circle class="dot" cx="357.3799126637555" cy="170" r="3" fill="#2563eb"></circle><circle class="dot" cx="358.4279475982533" cy="170" r="3" fill="#2563eb"></circle><circle class="dot" cx="359.47598253275106" cy="170" r="3" fill="#2563eb"></circle><circle class="dot" cx="360.52401746724894" cy="170" r="3" fill="#2563eb"></circle><circle class="dot" cx="361.5720524017467" cy="170" r="3" fill="#2563eb"></circle><circle class="dot" cx="362.6200873362445" cy="170" r="3" fill="#2563eb"></circle><circle class="dot" cx="363.6681222707424" cy="170" r="3" fill="#2563eb"></circle><circle class="dot" cx="364.71615720524017" cy="170" r="3" fill="#2563eb"></circle><circle class="dot" cx="365.764192139738" cy="170" r="3" fill="#2563eb"></circle><circle class="dot" cx="366.81222707423586" cy="170" r="3" fill="#2563eb"></circle><circle class="dot" cx="367.8602620087336" cy="170" r="3" fill="#2563eb"></circle><circle class="dot" cx="368.90829694323145" cy="170" r="3" fill="#2563eb"></circle><circle class="dot" cx="369.95633187772927" cy="170" r="3" fill="#2563eb"></circle><circle class="dot" cx="371.00436681222703" cy="170" r="3" fill="#2563eb"></circle><circle class="dot" cx="372.0524017467249" cy="170" r="3" fill="#2563eb"></circle><circle class="dot" cx="373.1004366812227" cy="170" r="3" fill="#2563eb"></circle><circle class="dot" cx="374.1484716157205" cy="170" r="3" fill="#2563eb"></circle><circle class="dot" cx="375.1965065502184" cy="170" r="3" fill="#2563eb"></circle><circle class="dot" cx="376.24454148471614" cy="170" r="3" fill="#2563eb"></circle><circle class="dot" cx="377.29257641921396" cy="170" r="3" fill="#2563eb"></circle><circle class="dot" cx="378.34061135371184" cy="170" r="3" fill="#2563eb"></circle><circle class="dot" cx="379.3886462882096" cy="170" r="3" fill="#2563eb"></circle><circle class="dot" cx="380.4366812227074" cy="170" r="3" fill="#2563eb"></circle><circle class="dot" cx="381.4847161572053" cy="170" r="3" fill="#2563eb"></circle><circle class="dot" cx="382.53275109170306" cy="170" r="3" fill="#2563eb"></circle><circle class="dot" cx="383.5807860262009" cy="170" r="3" fill="#2563eb"></circle><circle class="dot" cx="384.62882096069865" cy="170" r="3" fill="#2563eb"></circle><circle class="dot" cx="385.6768558951965" cy="170" r="3" fill="#2563eb"></circle><circle class="dot" cx="386.72489082969435" cy="170" r="3" fill="#2563eb"></circle><circle class="dot" cx="387.7729257641921" cy="170" r="3" fill="#2563eb"></circle><circle class="dot" cx="388.82096069868993" cy="170" r="3" fill="#2563eb"></circle><circle class="dot" cx="389.8689956331878" cy="170" r="3" fill="#2563eb"></circle><circle class="dot" cx="390.9170305676856" cy="170" r="3" fill="#2563eb"></circle><circle class="dot" cx="391.9650655021834" cy="170" r="3" fill="#2563eb"></circle><circle class="dot" cx="393.01310043668127" cy="170" r="3" fill="#2563eb"></circle><circle class="dot" cx="394.06113537117903" cy="170" r="3" fill="#2563eb"></circle><circle class="dot" cx="395.10917030567686" cy="170" r="3" fill="#2563eb"></circle><circle class="dot" cx="396.1572052401746" cy="170" r="3" fill="#2563eb"></circle><circle class="dot" cx="397.2052401746725" cy="170" r="3" fill="#2563eb"></circle><circle class="dot" cx="398.2532751091703" cy="170" r="3" fill="#2563eb"></circle><circle class="dot" cx="399.3013100436681" cy="170" r="3" fill="#2563eb"></circle><circle class="dot" cx="400.34934497816596" cy="170" r="3" fill="#2563eb"></circle><circle class="dot" cx="401.3973799126638" cy="170" r="3" fill="#2563eb"></circle><circle class="dot" cx="402.44541484716154" cy="170" r="3" fill="#2563eb"></circle><circle class="dot" cx="403.4934497816594" cy="170" r="3" fill="#2563eb"></circle><circle class="dot" cx="404.54148471615724" cy="170" r="3" fill="#2563eb"></circle><circle class="dot" cx="405.589519650655" cy="170" r="3" fill="#2563eb"></circle><circle class="dot" cx="406.6375545851528" cy="170" r="3" fill="#2563eb"></circle><circle class="dot" cx="407.68558951965065" cy="170" r="3" fill="#2563eb"></circle><circle class="dot" cx="408.73362445414847" cy="170" r="3" fill="#2563eb"></circle><circle class="dot" cx="409.7816593886463" cy="170" r="3" fill="#2563eb"></circle><circle class="dot" cx="410.82969432314405" cy="170" r="3" fill="#2563eb"></circle><circle class="dot" cx="411.87772925764193" cy="170" r="3" fill="#2563eb"></circle><circle class="dot" cx="412.92576419213975" cy="170" r="3" fill="#2563eb"></circle><circle class="dot" cx="413.9737991266375" cy="170" r="3" fill="#2563eb"></circle><circle class="dot" cx="415.0218340611354" cy="170" r="3" fill="#2563eb"></circle><circle class="dot" cx="416.0698689956332" cy="170" r="3" fill="#2563eb"></circle><circle class="dot" cx="417.117903930131" cy="170" r="3" fill="#2563eb"></circle><circle class="dot" cx="418.16593886462886" cy="170" r="3" fill="#2563eb"></circle><circle class="dot" cx="419.2139737991266" cy="170" r="3" fill="#2563eb"></circle><circle class="dot" cx="420.26200873362444" cy="170" r="3" fill="#2563eb"></circle><circle class="dot" cx="421.3100436681223" cy="170" r="3" fill="#2563eb"></circle><circle class="dot" cx="422.3580786026201" cy="170" r="3" fill="#2563eb"></circle><circle class="dot" cx="423.4061135371179" cy="170" r="3" fill="#2563eb"></circle><circle class="dot" cx="424.4541484716157" cy="170" r="3" fill="#2563eb"></circle><circle class="dot" cx="425.50218340611355" cy="170" r="3" fill="#2563eb"></circle><circle class="dot" cx="426.55021834061137" cy="170" r="3" fill="#2563eb"></circle><circle class="dot" cx="427.5982532751092" cy="170" r="3" fill="#2563eb"></circle><circle class="dot" cx="428.64628820960695" cy="170" r="3" fill="#2563eb"></circle><circle class="dot" cx="429.6943231441048" cy="170" r="3" fill="#2563eb"></circle><circle class="dot" cx="430.7423580786026" cy="170" r="3" fill="#2563eb"></circle><circle class="dot" cx="431.7903930131004" cy="170" r="3" fill="#2563eb"></circle><circle class="dot" cx="432.8384279475983" cy="170" r="3" fill="#2563eb"></circle><circle class="dot" cx="433.88646288209605" cy="170" r="3" fill="#2563eb"></circle><circle class="dot" cx="434.9344978165939" cy="170" r="3" fill="#2563eb"></circle><circle class="dot" cx="435.98253275109175" cy="170" r="3" fill="#2563eb"></circle><circle class="dot" cx="437.0305676855895" cy="170" r="3" fill="#2563eb"></circle><circle class="dot" cx="438.07860262008734" cy="170" r="3" fill="#2563eb"></circle><circle class="dot" cx="439.1266375545852" cy="170" r="3" fill="#2563eb"></circle><circle class="dot" cx="440.174672489083" cy="170" r="3" fill="#2563eb"></circle><circle class="dot" cx="441.2227074235808" cy="170" r="3" fill="#2563eb"></circle><circle class="dot" cx="442.27074235807856" cy="170" r="3" fill="#2563eb"></circle><circle class="dot" cx="443.31877729257644" cy="170" r="3" fill="#2563eb"></circle><circle class="dot" cx="444.36681222707426" cy="170" r="3" fill="#2563eb"></circle><circle class="dot" cx="445.414847161572" cy="170" r="3" fill="#2563eb"></circle><circle class="dot" cx="446.46288209606985" cy="170" r="3" fill="#2563eb"></circle><circle class="dot" cx="447.5109170305677" cy="170" r="3" fill="#2563eb"></circle><circle class="dot" cx="448.5589519650655" cy="170" r="3" fill="#2563eb"></circle><circle class="dot" cx="449.6069868995633" cy="170" r="3" fill="#2563eb"></circle><circle class="dot" cx="450.6550218340612" cy="170" r="3" fill="#2563eb"></circle><circle class="dot" cx="451.70305676855895" cy="170" r="3" fill="#2563eb"></circle><circle class="dot" cx="452.7510917030568" cy="170" r="3" fill="#2563eb"></circle><circle class="dot" cx="453.79912663755454" cy="170" r="3" fill="#2563eb"></circle><circle class="dot" cx="454.8471615720524" cy="170" r="3" fill="#2563eb"></circle><circle class="dot" cx="455.89519650655023" cy="170" r="3" fill="#2563eb"></circle><circle class="dot" cx="456.943231441048" cy="170" r="3" fill="#2563eb"></circle><circle class="dot" cx="457.9912663755459" cy="170" r="3" fill="#2563eb"></circle><circle class="dot" cx="459.0393013100437" cy="170" r="3" fill="#2563eb"></circle><circle class="dot" cx="460.08733624454146" cy="170" r="3" fill="#2563eb"></circle><circle class="dot" cx="461.13537117903934" cy="170" r="3" fill="#2563eb"></circle><circle class="dot" cx="462.18340611353716" cy="170" r="3" fill="#2563eb"></circle><circle class="dot" cx="463.2314410480349" cy="170" r="3" fill="#2563eb"></circle><circle class="dot" cx="464.27947598253274" cy="170" r="3" fill="#2563eb"></circle><circle class="dot" cx="465.3275109170305" cy="170" r="3" fill="#2563eb"></circle><circle class="dot" cx="466.3755458515284" cy="170" r="3" fill="#2563eb"></circle><circle class="dot" cx="467.4235807860262" cy="170" r="3" fill="#2563eb"></circle><circle class="dot" cx="468.47161572052397" cy="170" r="3" fill="#2563eb"></circle><circle class="dot" cx="469.51965065502185" cy="170" r="3" fill="#2563eb"></circle><circle class="dot" cx="470.56768558951967" cy="170" r="3" fill="#2563eb"></circle><circle class="dot" cx="471.61572052401743" cy="170" r="3" fill="#2563eb"></circle><circle class="dot" cx="472.6637554585153" cy="170" r="3" fill="#2563eb"></circle><circle class="dot" cx="473.71179039301313" cy="170" r="3" fill="#2563eb"></circle><circle class="dot" cx="474.7598253275109" cy="170" r="3" fill="#2563eb"></circle><circle class="dot" cx="475.8078602620088" cy="170" r="3" fill="#2563eb"></circle><circle class="dot" cx="476.85589519650654" cy="170" r="3" fill="#2563eb"></circle><circle class="dot" cx="477.90393013100436" cy="170" r="3" fill="#2563eb"></circle><circle class="dot" cx="478.95196506550224" cy="170" r="3" fill="#2563eb"></circle><circle class="dot" cx="480" cy="170" r="3" fill="#2563eb"></circle><circle class="dot" cx="481.0480349344978" cy="170" r="3" fill="#2563eb"></circle><circle class="dot" cx="482.09606986899564" cy="170" r="3" fill="#2563eb"></circle><circle class="dot" cx="483.1441048034934" cy="170" r="3" fill="#2563eb"></circle><circle class="dot" cx="484.1921397379913" cy="170" r="3" fill="#2563eb"></circle><circle class="dot" cx="485.2401746724891" cy="170" r="3" fill="#2563eb"></circle><circle class="dot" cx="486.28820960698687" cy="170" r="3" fill="#2563eb"></circle><circle class="dot" cx="487.33624454148475" cy="170" r="3" fill="#2563eb"></circle><circle class="dot" cx="488.3842794759825" cy="170" r="3" fill="#2563eb"></circle><circle class="dot" cx="489.43231441048033" cy="170" r="3" fill="#2563eb"></circle><circle class="dot" cx="490.4803493449782" cy="170" r="3" fill="#2563eb"></circle><circle class="dot" cx="491.528384279476" cy="170" r="3" fill="#2563eb"></circle><circle class="dot" cx="492.5764192139738" cy="170" r="3" fill="#2563eb"></circle><circle class="dot" cx="493.62445414847167" cy="170" r="3" fill="#2563eb"></circle><circle class="dot" cx="494.67248908296943" cy="170" r="3" fill="#2563eb"></circle><circle class="dot" cx="495.72052401746726" cy="170" r="3" fill="#2563eb"></circle><circle class="dot" cx="496.76855895196513" cy="170" r="3" fill="#2563eb"></circle><circle class="dot" cx="497.8165938864629" cy="170" r="3" fill="#2563eb"></circle><circle class="dot" cx="498.8646288209607" cy="170" r="3" fill="#2563eb"></circle><circle class="dot" cx="499.9126637554585" cy="170" r="3" fill="#2563eb"></circle><circle class="dot" cx="500.9606986899563" cy="170" r="3" fill="#2563eb"></circle><circle class="dot" cx="502.0087336244542" cy="170" r="3" fill="#2563eb"></circle><circle class="dot" cx="503.05676855895194" cy="170" r="3" fill="#2563eb"></circle><circle class="dot" cx="504.10480349344977" cy="170" r="3" fill="#2563eb"></circle><circle class="dot" cx="505.15283842794764" cy="170" r="3" fill="#2563eb"></circle><circle class="dot" cx="506.2008733624454" cy="170" r="3" fill="#2563eb"></circle><circle class="dot" cx="507.2489082969432" cy="170" r="3" fill="#2563eb"></circle><circle class="dot" cx="508.2969432314411" cy="170" r="3" fill="#2563eb"></circle><circle class="dot" cx="509.34497816593887" cy="170" r="3" fill="#2563eb"></circle><circle class="dot" cx="510.3930131004367" cy="170" r="3" fill="#2563eb"></circle><circle class="dot" cx="511.44104803493445" cy="170" r="3" fill="#2563eb"></circle><circle class="dot" cx="512.4890829694323" cy="170" r="3" fill="#2563eb"></circle><circle class="dot" cx="513.5371179039302" cy="170" r="3" fill="#2563eb"></circle><circle class="dot" cx="514.5851528384279" cy="170" r="3" fill="#2563eb"></circle><circle class="dot" cx="515.6331877729258" cy="170" r="3" fill="#2563eb"></circle><circle class="dot" cx="516.6812227074236" cy="170" r="3" fill="#2563eb"></circle><circle class="dot" cx="517.7292576419213" cy="170" r="3" fill="#2563eb"></circle><circle class="dot" cx="518.7772925764192" cy="170" r="3" fill="#2563eb"></circle><circle class="dot" cx="519.8253275109171" cy="170" r="3" fill="#2563eb"></circle><circle class="dot" cx="520.8733624454148" cy="170" r="3" fill="#2563eb"></circle><circle class="dot" cx="521.9213973799127" cy="170" r="3" fill="#2563eb"></circle><circle class="dot" cx="522.9694323144105" cy="170" r="3" fill="#2563eb"></circle><circle class="dot" cx="524.0174672489082" cy="170" r="3" fill="#2563eb"></circle><circle class="dot" cx="525.0655021834061" cy="170" r="3" fill="#2563eb"></circle><circle class="dot" cx="526.1135371179039" cy="170" r="3" fill="#2563eb"></circle><circle class="dot" cx="527.1615720524018" cy="170" r="3" fill="#2563eb"></circle><circle class="dot" cx="528.2096069868996" cy="170" r="3" fill="#2563eb"></circle><circle class="dot" cx="529.2576419213974" cy="170" r="3" fill="#2563eb"></circle><circle class="dot" cx="530.3056768558952" cy="170" r="3" fill="#2563eb"></circle><circle class="dot" cx="531.353711790393" cy="170" r="3" fill="#2563eb"></circle><circle class="dot" cx="532.4017467248908" cy="170" r="3" fill="#2563eb"></circle><circle class="dot" cx="533.4497816593887" cy="170" r="3" fill="#2563eb"></circle><circle class="dot" cx="534.4978165938865" cy="170" r="3" fill="#2563eb"></circle><circle class="dot" cx="535.5458515283842" cy="170" r="3" fill="#2563eb"></circle><circle class="dot" cx="536.5938864628821" cy="170" r="3" fill="#2563eb"></circle><circle class="dot" cx="537.6419213973799" cy="170" r="3" fill="#2563eb"></circle><circle class="dot" cx="538.6899563318777" cy="170" r="3" fill="#2563eb"></circle><circle class="dot" cx="539.7379912663756" cy="170" r="3" fill="#2563eb"></circle><circle class="dot" cx="540.7860262008734" cy="170" r="3" fill="#2563eb"></circle><circle class="dot" cx="541.8340611353711" cy="170" r="3" fill="#2563eb"></circle><circle class="dot" cx="542.8820960698689" cy="170" r="3" fill="#2563eb"></circle><circle class="dot" cx="543.9301310043668" cy="170" r="3" fill="#2563eb"></circle><circle class="dot" cx="544.9781659388647" cy="170" r="3" fill="#2563eb"></circle><circle class="dot" cx="546.0262008733624" cy="170" r="3" fill="#2563eb"></circle><circle class="dot" cx="547.0742358078603" cy="170" r="3" fill="#2563eb"></circle><circle class="dot" cx="548.1222707423581" cy="170" r="3" fill="#2563eb"></circle><circle class="dot" cx="549.1703056768558" cy="170" r="3" fill="#2563eb"></circle><circle class="dot" cx="550.2183406113537" cy="170" r="3" fill="#2563eb"></circle><circle class="dot" cx="551.2663755458516" cy="170" r="3" fill="#2563eb"></circle><circle class="dot" cx="552.3144104803494" cy="170" r="3" fill="#2563eb"></circle><circle class="dot" cx="553.3624454148471" cy="170" r="3" fill="#2563eb"></circle><circle class="dot" cx="554.410480349345" cy="170" r="3" fill="#2563eb"></circle><circle class="dot" cx="555.4585152838428" cy="170" r="3" fill="#2563eb"></circle><circle class="dot" cx="556.5065502183406" cy="170" r="3" fill="#2563eb"></circle><circle class="dot" cx="557.5545851528384" cy="170" r="3" fill="#2563eb"></circle><circle class="dot" cx="558.6026200873363" cy="170" r="3" fill="#2563eb"></circle><circle class="dot" cx="559.650655021834" cy="170" r="3" fill="#2563eb"></circle><circle class="dot" cx="560.6986899563318" cy="170" r="3" fill="#2563eb"></circle><circle class="dot" cx="561.7467248908297" cy="170" r="3" fill="#2563eb"></circle><circle class="dot" cx="562.7947598253276" cy="170" r="3" fill="#2563eb"></circle><circle class="dot" cx="563.8427947598253" cy="170" r="3" fill="#2563eb"></circle><circle class="dot" cx="564.8908296943232" cy="170" r="3" fill="#2563eb"></circle><circle class="dot" cx="565.938864628821" cy="170" r="3" fill="#2563eb"></circle><circle class="dot" cx="566.9868995633187" cy="170" r="3" fill="#2563eb"></circle><circle class="dot" cx="568.0349344978166" cy="170" r="3" fill="#2563eb"></circle><circle class="dot" cx="569.0829694323144" cy="170" r="3" fill="#2563eb"></circle><circle class="dot" cx="570.1310043668122" cy="170" r="3" fill="#2563eb"></circle><circle class="dot" cx="571.17903930131" cy="170" r="3" fill="#2563eb"></circle><circle class="dot" cx="572.2270742358079" cy="170" r="3" fill="#2563eb"></circle><circle class="dot" cx="573.2751091703057" cy="170" r="3" fill="#2563eb"></circle><circle class="dot" cx="574.3231441048035" cy="170" r="3" fill="#2563eb"></circle><circle class="dot" cx="575.3711790393013" cy="170" r="3" fill="#2563eb"></circle><circle class="dot" cx="576.4192139737992" cy="170" r="3" fill="#2563eb"></circle><circle class="dot" cx="577.4672489082969" cy="170" r="3" fill="#2563eb"></circle><circle class="dot" cx="578.5152838427947" cy="170" r="3" fill="#2563eb"></circle><circle class="dot" cx="579.5633187772926" cy="170" r="3" fill="#2563eb"></circle><circle class="dot" cx="580.6113537117903" cy="170" r="3" fill="#2563eb"></circle><circle class="dot" cx="581.6593886462882" cy="170" r="3" fill="#2563eb"></circle><circle class="dot" cx="582.7074235807861" cy="170" r="3" fill="#2563eb"></circle><circle class="dot" cx="583.7554585152839" cy="170" r="3" fill="#2563eb"></circle><circle class="dot" cx="584.8034934497816" cy="170" r="3" fill="#2563eb"></circle><circle class="dot" cx="585.8515283842795" cy="170" r="3" fill="#2563eb"></circle><circle class="dot" cx="586.8995633187773" cy="170" r="3" fill="#2563eb"></circle><circle class="dot" cx="587.9475982532751" cy="170" r="3" fill="#2563eb"></circle><circle class="dot" cx="588.9956331877729" cy="170" r="3" fill="#2563eb"></circle><circle class="dot" cx="590.0436681222708" cy="170" r="3" fill="#2563eb"></circle><circle class="dot" cx="591.0917030567686" cy="170" r="3" fill="#2563eb"></circle><circle class="dot" cx="592.1397379912663" cy="170" r="3" fill="#2563eb"></circle><circle class="dot" cx="593.1877729257642" cy="170" r="3" fill="#2563eb"></circle><circle class="dot" cx="594.2358078602621" cy="170" r="3" fill="#2563eb"></circle><circle class="dot" cx="595.2838427947598" cy="170" r="3" fill="#2563eb"></circle><circle class="dot" cx="596.3318777292576" cy="170" r="3" fill="#2563eb"></circle><circle class="dot" cx="597.3799126637555" cy="170" r="3" fill="#2563eb"></circle><circle class="dot" cx="598.4279475982532" cy="170" r="3" fill="#2563eb"></circle><circle class="dot" cx="599.4759825327511" cy="170" r="3" fill="#2563eb"></circle><circle class="dot" cx="600.5240174672489" cy="170" r="3" fill="#2563eb"></circle><circle class="dot" cx="601.5720524017468" cy="170" r="3" fill="#2563eb"></circle><circle class="dot" cx="602.6200873362445" cy="170" r="3" fill="#2563eb"></circle><circle class="dot" cx="603.6681222707423" cy="170" r="3" fill="#2563eb"></circle><circle class="dot" cx="604.7161572052402" cy="170" r="3" fill="#2563eb"></circle><circle class="dot" cx="605.764192139738" cy="170" r="3" fill="#2563eb"></circle><circle class="dot" cx="606.8122270742358" cy="170" r="3" fill="#2563eb"></circle><circle class="dot" cx="607.8602620087337" cy="170" r="3" fill="#2563eb"></circle><circle class="dot" cx="608.9082969432314" cy="170" r="3" fill="#2563eb"></circle><circle class="dot" cx="609.9563318777292" cy="170" r="3" fill="#2563eb"></circle><circle class="dot" cx="611.0043668122271" cy="170" r="3" fill="#2563eb"></circle><circle class="dot" cx="612.0524017467249" cy="170" r="3" fill="#2563eb"></circle><circle class="dot" cx="613.1004366812227" cy="170" r="3" fill="#2563eb"></circle><circle class="dot" cx="614.1484716157205" cy="170" r="3" fill="#2563eb"></circle><circle class="dot" cx="615.1965065502183" cy="170" r="3" fill="#2563eb"></circle><circle class="dot" cx="616.2445414847161" cy="170" r="3" fill="#2563eb"></circle><circle class="dot" cx="617.292576419214" cy="170" r="3" fill="#2563eb"></circle><circle class="dot" cx="618.3406113537118" cy="170" r="3" fill="#2563eb"></circle><circle class="dot" cx="619.3886462882097" cy="170" r="3" fill="#2563eb"></circle><circle class="dot" cx="620.4366812227074" cy="170" r="3" fill="#2563eb"></circle><circle class="dot" cx="621.4847161572052" cy="170" r="3" fill="#2563eb"></circle><circle class="dot" cx="622.5327510917031" cy="170" r="3" fill="#2563eb"></circle><circle class="dot" cx="623.5807860262008" cy="170" r="3" fill="#2563eb"></circle><circle class="dot" cx="624.6288209606987" cy="170" r="3" fill="#2563eb"></circle><circle class="dot" cx="625.6768558951966" cy="170" r="3" fill="#2563eb"></circle><circle class="dot" cx="626.7248908296943" cy="170" r="3" fill="#2563eb"></circle><circle class="dot" cx="627.7729257641921" cy="170" r="3" fill="#2563eb"></circle><circle class="dot" cx="628.82096069869" cy="170" r="3" fill="#2563eb"></circle><circle class="dot" cx="629.8689956331878" cy="170" r="3" fill="#2563eb"></circle><circle class="dot" cx="630.9170305676856" cy="170" r="3" fill="#2563eb"></circle><circle class="dot" cx="631.9650655021834" cy="170" r="3" fill="#2563eb"></circle><circle class="dot" cx="633.0131004366812" cy="170" r="3" fill="#2563eb"></circle><circle class="dot" cx="634.061135371179" cy="170" r="3" fill="#2563eb"></circle><circle class="dot" cx="635.1091703056768" cy="170" r="3" fill="#2563eb"></circle><circle class="dot" cx="636.1572052401747" cy="170" r="3" fill="#2563eb"></circle><circle class="dot" cx="637.2052401746726" cy="170" r="3" fill="#2563eb"></circle><circle class="dot" cx="638.2532751091703" cy="170" r="3" fill="#2563eb"></circle><circle class="dot" cx="639.3013100436681" cy="170" r="3" fill="#2563eb"></circle><circle class="dot" cx="640.349344978166" cy="170" r="3" fill="#2563eb"></circle><circle class="dot" cx="641.3973799126637" cy="170" r="3" fill="#2563eb"></circle><circle class="dot" cx="642.4454148471616" cy="170" r="3" fill="#2563eb"></circle><circle class="dot" cx="643.4934497816595" cy="170" r="3" fill="#2563eb"></circle><circle class="dot" cx="644.5414847161572" cy="170" r="3" fill="#2563eb"></circle><circle class="dot" cx="645.589519650655" cy="170" r="3" fill="#2563eb"></circle><circle class="dot" cx="646.6375545851528" cy="170" r="3" fill="#2563eb"></circle><circle class="dot" cx="647.6855895196506" cy="170" r="3" fill="#2563eb"></circle><circle class="dot" cx="648.7336244541485" cy="170" r="3" fill="#2563eb"></circle><circle class="dot" cx="649.7816593886463" cy="170" r="3" fill="#2563eb"></circle><circle class="dot" cx="650.829694323144" cy="170" r="3" fill="#2563eb"></circle><circle class="dot" cx="651.8777292576419" cy="170" r="3" fill="#2563eb"></circle><circle class="dot" cx="652.9257641921397" cy="170" r="3" fill="#2563eb"></circle><circle class="dot" cx="653.9737991266376" cy="170" r="3" fill="#2563eb"></circle><circle class="dot" cx="655.0218340611355" cy="170" r="3" fill="#2563eb"></circle><circle class="dot" cx="656.0698689956332" cy="170" r="3" fill="#2563eb"></circle><circle class="dot" cx="657.117903930131" cy="170" r="3" fill="#2563eb"></circle><circle class="dot" cx="658.1659388646287" cy="170" r="3" fill="#2563eb"></circle><circle class="dot" cx="659.2139737991266" cy="170" r="3" fill="#2563eb"></circle><circle class="dot" cx="660.2620087336245" cy="170" r="3" fill="#2563eb"></circle><circle class="dot" cx="661.3100436681223" cy="170" r="3" fill="#2563eb"></circle><circle class="dot" cx="662.3580786026201" cy="170" r="3" fill="#2563eb"></circle><circle class="dot" cx="663.4061135371179" cy="170" r="3" fill="#2563eb"></circle><circle class="dot" cx="664.4541484716157" cy="170" r="3" fill="#2563eb"></circle><circle class="dot" cx="665.5021834061135" cy="170" r="3" fill="#2563eb"></circle><circle class="dot" cx="666.5502183406114" cy="170" r="3" fill="#2563eb"></circle><circle class="dot" cx="667.5982532751092" cy="170" r="3" fill="#2563eb"></circle><circle class="dot" cx="668.646288209607" cy="170" r="3" fill="#2563eb"></circle><circle class="dot" cx="669.6943231441047" cy="170" r="3" fill="#2563eb"></circle><circle class="dot" cx="670.7423580786026" cy="170" r="3" fill="#2563eb"></circle><circle class="dot" cx="671.7903930131005" cy="170" r="3" fill="#2563eb"></circle><circle class="dot" cx="672.8384279475982" cy="170" r="3" fill="#2563eb"></circle><circle class="dot" cx="673.8864628820961" cy="170" r="3" fill="#2563eb"></circle><circle class="dot" cx="674.9344978165939" cy="170" r="3" fill="#2563eb"></circle><circle class="dot" cx="675.9825327510916" cy="170" r="3" fill="#2563eb"></circle><circle class="dot" cx="677.0305676855895" cy="170" r="3" fill="#2563eb"></circle><circle class="dot" cx="678.0786026200874" cy="170" r="3" fill="#2563eb"></circle><circle class="dot" cx="679.1266375545852" cy="170" r="3" fill="#2563eb"></circle><circle class="dot" cx="680.174672489083" cy="170" r="3" fill="#2563eb"></circle><circle class="dot" cx="681.2227074235808" cy="170" r="3" fill="#2563eb"></circle><circle class="dot" cx="682.2707423580786" cy="170" r="3" fill="#2563eb"></circle><circle class="dot" cx="683.3187772925764" cy="170" r="3" fill="#2563eb"></circle><circle class="dot" cx="684.3668122270742" cy="170" r="3" fill="#2563eb"></circle><circle class="dot" cx="685.4148471615721" cy="170" r="3" fill="#2563eb"></circle><circle class="dot" cx="686.4628820960698" cy="170" r="3" fill="#2563eb"></circle><circle class="dot" cx="687.5109170305676" cy="170" r="3" fill="#2563eb"></circle><circle class="dot" cx="688.5589519650655" cy="170" r="3" fill="#2563eb"></circle><circle class="dot" cx="689.6069868995634" cy="170" r="3" fill="#2563eb"></circle><circle class="dot" cx="690.6550218340611" cy="170" r="3" fill="#2563eb"></circle><circle class="dot" cx="691.703056768559" cy="170" r="3" fill="#2563eb"></circle><circle class="dot" cx="692.7510917030568" cy="170" r="3" fill="#2563eb"></circle><circle class="dot" cx="693.7991266375545" cy="170" r="3" fill="#2563eb"></circle><circle class="dot" cx="694.8471615720524" cy="170" r="3" fill="#2563eb"></circle><circle class="dot" cx="695.8951965065502" cy="170" r="3" fill="#2563eb"></circle><circle class="dot" cx="696.943231441048" cy="170" r="3" fill="#2563eb"></circle><circle class="dot" cx="697.9912663755459" cy="170" r="3" fill="#2563eb"></circle><circle class="dot" cx="699.0393013100437" cy="170" r="3" fill="#2563eb"></circle><circle class="dot" cx="700.0873362445415" cy="170" r="3" fill="#2563eb"></circle><circle class="dot" cx="701.1353711790393" cy="170" r="3" fill="#2563eb"></circle><circle class="dot" cx="702.1834061135371" cy="170" r="3" fill="#2563eb"></circle><circle class="dot" cx="703.231441048035" cy="170" r="3" fill="#2563eb"></circle><circle class="dot" cx="704.2794759825327" cy="170" r="3" fill="#2563eb"></circle><circle class="dot" cx="705.3275109170305" cy="170" r="3" fill="#2563eb"></circle><circle class="dot" cx="706.3755458515284" cy="170" r="3" fill="#2563eb"></circle><circle class="dot" cx="707.4235807860262" cy="170" r="3" fill="#2563eb"></circle><circle class="dot" cx="708.471615720524" cy="170" r="3" fill="#2563eb"></circle><circle class="dot" cx="709.5196506550219" cy="170" r="3" fill="#2563eb"></circle><circle class="dot" cx="710.5676855895197" cy="170" r="3" fill="#2563eb"></circle><circle class="dot" cx="711.6157205240174" cy="170" r="3" fill="#2563eb"></circle><circle class="dot" cx="712.6637554585153" cy="170" r="3" fill="#2563eb"></circle><circle class="dot" cx="713.7117903930131" cy="170" r="3" fill="#2563eb"></circle><circle class="dot" cx="714.759825327511" cy="170" r="3" fill="#2563eb"></circle><circle class="dot" cx="715.8078602620087" cy="170" r="3" fill="#2563eb"></circle><circle class="dot" cx="716.8558951965066" cy="170" r="3" fill="#2563eb"></circle><circle class="dot" cx="717.9039301310044" cy="170" r="3" fill="#2563eb"></circle><circle class="dot" cx="718.9519650655021" cy="170" r="3" fill="#2563eb"></circle><circle class="dot" cx="720" cy="170" r="3" fill="#2563eb"></circle><g class="grid" transform="translate(0,340)" fill="none" font-size="10" font-family="sans-serif" text-anchor="middle" style="stroke-dasharray: 3,3; opacity: 0.3;"><path class="domain" stroke="currentColor" d="M0.5,-340V0.5H720.5V-340"></path><g class="tick" opacity="1" transform="translate(0.5,0)"><line stroke="currentColor" y2="-340"></line><text fill="currentColor" y="3" dy="0.71em"></text></g><g class="tick" opacity="1" transform="translate(25.652838427947597,0)"><line stroke="currentColor" y2="-340"></line><text fill="currentColor" y="3" dy="0.71em"></text></g><g class="tick" opacity="1" transform="translate(50.80567685589519,0)"><line stroke="currentColor" y2="-340"></line><text fill="currentColor" y="3" dy="0.71em"></text></g><g class="tick" opacity="1" transform="translate(75.95851528384279,0)"><line stroke="currentColor" y2="-340"></line><text fill="currentColor" y="3" dy="0.71em"></text></g><g class="tick" opacity="1" transform="translate(101.11135371179039,0)"><line stroke="currentColor" y2="-340"></line><text fill="currentColor" y="3" dy="0.71em"></text></g><g class="tick" opacity="1" transform="translate(126.26419213973799,0)"><line stroke="currentColor" y2="-340"></line><text fill="currentColor" y="3" dy="0.71em"></text></g><g class="tick" opacity="1" transform="translate(151.41703056768557,0)"><line stroke="currentColor" y2="-340"></line><text fill="currentColor" y="3" dy="0.71em"></text></g><g class="tick" opacity="1" transform="translate(176.5698689956332,0)"><line stroke="currentColor" y2="-340"></line><text fill="currentColor" y="3" dy="0.71em"></text></g><g class="tick" opacity="1" transform="translate(201.72270742358077,0)"><line stroke="currentColor" y2="-340"></line><text fill="currentColor" y="3" dy="0.71em"></text></g><g class="tick" opacity="1" transform="translate(226.8755458515284,0)"><line stroke="currentColor" y2="-340"></line><text fill="currentColor" y="3" dy="0.71em"></text></g><g class="tick" opacity="1" transform="translate(252.02838427947597,0)"><line stroke="currentColor" y2="-340"></line><text fill="currentColor" y="3" dy="0.71em"></text></g><g class="tick" opacity="1" transform="translate(277.18122270742356,0)"><line stroke="currentColor" y2="-340"></line><text fill="currentColor" y="3" dy="0.71em"></text></g><g class="tick" opacity="1" transform="translate(302.33406113537114,0)"><line stroke="currentColor" y2="-340"></line><text fill="currentColor" y="3" dy="0.71em"></text></g><g class="tick" opacity="1" transform="translate(327.4868995633188,0)"><line stroke="currentColor" y2="-340"></line><text fill="currentColor" y="3" dy="0.71em"></text></g><g class="tick" opacity="1" transform="translate(352.6397379912664,0)"><line stroke="currentColor" y2="-340"></line><text fill="currentColor" y="3" dy="0.71em"></text></g><g class="tick" opacity="1" transform="translate(377.79257641921396,0)"><line stroke="currentColor" y2="-340"></line><text fill="currentColor" y="3" dy="0.71em"></text></g><g class="tick" opacity="1" transform="translate(402.94541484716154,0)"><line stroke="currentColor" y2="-340"></line><text fill="currentColor" y="3" dy="0.71em"></text></g><g class="tick" opacity="1" transform="translate(428.0982532751092,0)"><line stroke="currentColor" y2="-340"></line><text fill="currentColor" y="3" dy="0.71em"></text></g><g class="tick" opacity="1" transform="translate(453.2510917030568,0)"><line stroke="currentColor" y2="-340"></line><text fill="currentColor" y="3" dy="0.71em"></text></g><g class="tick" opacity="1" transform="translate(478.40393013100436,0)"><line stroke="currentColor" y2="-340"></line><text fill="currentColor" y="3" dy="0.71em"></text></g><g class="tick" opacity="1" transform="translate(503.55676855895194,0)"><line stroke="currentColor" y2="-340"></line><text fill="currentColor" y="3" dy="0.71em"></text></g><g class="tick" opacity="1" transform="translate(528.7096069868996,0)"><line stroke="currentColor" y2="-340"></line><text fill="currentColor" y="3" dy="0.71em"></text></g><g class="tick" opacity="1" transform="translate(553.8624454148471,0)"><line stroke="currentColor" y2="-340"></line><text fill="currentColor" y="3" dy="0.71em"></text></g><g class="tick" opacity="1" transform="translate(579.0152838427947,0)"><line stroke="currentColor" y2="-340"></line><text fill="currentColor" y="3" dy="0.71em"></text></g><g class="tick" opacity="1" transform="translate(604.1681222707423,0)"><line stroke="currentColor" y2="-340"></line><text fill="currentColor" y="3" dy="0.71em"></text></g><g class="tick" opacity="1" transform="translate(629.32096069869,0)"><line stroke="currentColor" y2="-340"></line><text fill="currentColor" y="3" dy="0.71em"></text></g><g class="tick" opacity="1" transform="translate(654.4737991266376,0)"><line stroke="currentColor" y2="-340"></line><text fill="currentColor" y="3" dy="0.71em"></text></g><g class="tick" opacity="1" transform="translate(679.6266375545852,0)"><line stroke="currentColor" y2="-340"></line><text fill="currentColor" y="3" dy="0.71em"></text></g><g class="tick" opacity="1" transform="translate(704.7794759825327,0)"><line stroke="currentColor" y2="-340"></line><text fill="currentColor" y="3" dy="0.71em"></text></g></g><g class="grid" fill="none" font-size="10" font-family="sans-serif" text-anchor="end" style="stroke-dasharray: 3,3; opacity: 0.3;"><path class="domain" stroke="currentColor" d="M720,340.5H0.5V0.5H720"></path><g class="tick" opacity="1" transform="translate(0,170.5)"><line stroke="currentColor" x2="720"></line><text fill="currentColor" x="-3" dy="0.32em"></text></g></g></g><text x="400" y="10" text-anchor="middle" style="font-size: 16px; font-weight: bold; fill: #333;">OKX USDT Lending Rate - Current Month</text></svg>