<svg width="800" height="400" xmlns="http://www.w3.org/2000/svg"><g transform="translate(50,20)"><g transform="translate(0,340)" fill="none" font-size="10" font-family="sans-serif" text-anchor="middle"><path class="domain" stroke="currentColor" d="M0.5,6V0.5H720.5V6"></path><g class="tick" opacity="1" transform="translate(0.5,0)"><line stroke="currentColor" y2="6"></line><text fill="currentColor" y="9" dy=".15em" style="text-anchor: end;" dx="-.8em" transform="rotate(-45)">10/01</text></g><g class="tick" opacity="1" transform="translate(52.70543806646526,0)"><line stroke="currentColor" y2="6"></line><text fill="currentColor" y="9" dy=".15em" style="text-anchor: end;" dx="-.8em" transform="rotate(-45)">10/02</text></g><g class="tick" opacity="1" transform="translate(104.91087613293053,0)"><line stroke="currentColor" y2="6"></line><text fill="currentColor" y="9" dy=".15em" style="text-anchor: end;" dx="-.8em" transform="rotate(-45)">10/03</text></g><g class="tick" opacity="1" transform="translate(157.11631419939576,0)"><line stroke="currentColor" y2="6"></line><text fill="currentColor" y="9" dy=".15em" style="text-anchor: end;" dx="-.8em" transform="rotate(-45)">10/04</text></g><g class="tick" opacity="1" transform="translate(209.32175226586105,0)"><line stroke="currentColor" y2="6"></line><text fill="currentColor" y="9" dy=".15em" style="text-anchor: end;" dx="-.8em" transform="rotate(-45)">10/05</text></g><g class="tick" opacity="1" transform="translate(261.52719033232626,0)"><line stroke="currentColor" y2="6"></line><text fill="currentColor" y="9" dy=".15em" style="text-anchor: end;" dx="-.8em" transform="rotate(-45)">10/06</text></g><g class="tick" opacity="1" transform="translate(313.7326283987915,0)"><line stroke="currentColor" y2="6"></line><text fill="currentColor" y="9" dy=".15em" style="text-anchor: end;" dx="-.8em" transform="rotate(-45)">10/07</text></g><g class="tick" opacity="1" transform="translate(365.9380664652568,0)"><line stroke="currentColor" y2="6"></line><text fill="currentColor" y="9" dy=".15em" style="text-anchor: end;" dx="-.8em" transform="rotate(-45)">10/08</text></g><g class="tick" opacity="1" transform="translate(418.1435045317221,0)"><line stroke="currentColor" y2="6"></line><text fill="currentColor" y="9" dy=".15em" style="text-anchor: end;" dx="-.8em" transform="rotate(-45)">10/09</text></g><g class="tick" opacity="1" transform="translate(470.3489425981873,0)"><line stroke="currentColor" y2="6"></line><text fill="currentColor" y="9" dy=".15em" style="text-anchor: end;" dx="-.8em" transform="rotate(-45)">10/10</text></g><g class="tick" opacity="1" transform="translate(522.5543806646525,0)"><line stroke="currentColor" y2="6"></line><text fill="currentColor" y="9" dy=".15em" style="text-anchor: end;" dx="-.8em" transform="rotate(-45)">10/11</text></g><g class="tick" opacity="1" transform="translate(574.7598187311179,0)"><line stroke="currentColor" y2="6"></line><text fill="currentColor" y="9" dy=".15em" style="text-anchor: end;" dx="-.8em" transform="rotate(-45)">10/12</text></g><g class="tick" opacity="1" transform="translate(626.965256797583,0)"><line stroke="currentColor" y2="6"></line><text fill="currentColor" y="9" dy=".15em" style="text-anchor: end;" dx="-.8em" transform="rotate(-45)">10/13</text></g><g class="tick" opacity="1" transform="translate(679.1706948640484,0)"><line stroke="currentColor" y2="6"></line><text fill="currentColor" y="9" dy=".15em" style="text-anchor: end;" dx="-.8em" transform="rotate(-45)">10/14</text></g></g><g fill="none" font-size="10" font-family="sans-serif" text-anchor="end"><path class="domain" stroke="currentColor" d="M-6,340.5H0.5V0.5H-6"></path><g class="tick" opacity="1" transform="translate(0,340.5)"><line stroke="currentColor" x2="-6"></line><text fill="currentColor" x="-9" dy="0.32em">0.00%</text></g><g class="tick" opacity="1" transform="translate(0,309.59090909090907)"><line stroke="currentColor" x2="-6"></line><text fill="currentColor" x="-9" dy="0.32em">10.00%</text></g><g class="tick" opacity="1" transform="translate(0,278.6818181818182)"><line stroke="currentColor" x2="-6"></line><text fill="currentColor" x="-9" dy="0.32em">20.00%</text></g><g class="tick" opacity="1" transform="translate(0,247.77272727272728)"><line stroke="currentColor" x2="-6"></line><text fill="currentColor" x="-9" dy="0.32em">30.00%</text></g><g class="tick" opacity="1" transform="translate(0,216.86363636363637)"><line stroke="currentColor" x2="-6"></line><text fill="currentColor" x="-9" dy="0.32em">40.00%</text></g><g class="tick" opacity="1" transform="translate(0,185.95454545454544)"><line stroke="currentColor" x2="-6"></line><text fill="currentColor" x="-9" dy="0.32em">50.00%</text></g><g class="tick" opacity="1" transform="translate(0,155.04545454545456)"><line stroke="currentColor" x2="-6"></line><text fill="currentColor" x="-9" dy="0.32em">60.00%</text></g><g class="tick" opacity="1" transform="translate(0,124.13636363636368)"><line stroke="currentColor" x2="-6"></line><text fill="currentColor" x="-9" dy="0.32em">70.00%</text></g><g class="tick" opacity="1" transform="translate(0,93.22727272727272)"><line stroke="currentColor" x2="-6"></line><text fill="currentColor" x="-9" dy="0.32em">80.00%</text></g><g class="tick" opacity="1" transform="translate(0,62.31818181818184)"><line stroke="currentColor" x2="-6"></line><text fill="currentColor" x="-9" dy="0.32em">90.00%</text></g><g class="tick" opacity="1" transform="translate(0,31.40909090909092)"><line stroke="currentColor" x2="-6"></line><text fill="currentColor" x="-9" dy="0.32em">100.00%</text></g><g class="tick" opacity="1" transform="translate(0,0.5)"><line stroke="currentColor" x2="-6"></line><text fill="currentColor" x="-9" dy="0.32em">110.00%</text></g></g><text transform="rotate(-90)" y="-50" x="-170" dy="1em" style="text-anchor: middle; font-size: 12px; fill: #666;">Pre Rate (%)</text><text transform="translate(360, 380)" style="text-anchor: middle; font-size: 12px; fill: #666;">Time (UTC)</text><path fill="none" stroke="#2563eb" stroke-width="2" d="M0,327.636C0.725,327.636,1.45,327.636,2.175,327.636C2.9,327.636,3.625,327.636,4.35,327.636C5.076,327.636,5.801,327.636,6.526,327.636C7.251,327.636,7.976,327.636,8.701,327.636C9.426,327.636,10.151,327.636,10.876,327.636C11.601,327.636,12.326,327.636,13.051,327.636C13.776,327.636,14.502,327.636,15.227,327.636C15.952,327.636,16.677,327.636,17.402,327.636C18.127,327.636,18.852,327.636,19.577,327.636C20.302,327.636,21.027,327.636,21.752,327.636C22.477,327.636,23.202,327.636,23.927,327.636C24.653,327.636,25.378,327.636,26.103,327.636C26.828,327.636,27.553,327.636,28.278,327.636C29.003,327.636,29.728,327.636,30.453,327.636C31.178,327.636,31.903,327.636,32.628,327.636C33.353,327.636,34.079,327.636,34.804,327.636C35.529,327.636,36.254,327.636,36.979,327.636C37.704,327.636,38.429,327.636,39.154,327.636C39.879,327.636,40.604,327.636,41.329,327.636C42.054,327.636,42.779,327.636,43.505,327.636C44.23,327.636,44.955,327.636,45.68,327.636C46.405,327.636,47.13,327.636,47.855,327.636C48.58,327.636,49.305,327.636,50.03,327.636C50.755,327.636,51.48,327.636,52.205,327.636C52.931,327.636,53.656,327.636,54.381,327.636C55.106,327.636,55.831,327.636,56.556,327.636C57.281,327.636,58.006,327.636,58.731,327.636C59.456,327.636,60.181,327.636,60.906,327.636C61.631,327.636,62.356,327.636,63.082,327.636C63.807,327.636,64.532,327.636,65.257,327.636C65.982,327.636,66.707,327.636,67.432,327.636C68.157,327.636,68.882,327.636,69.607,327.636C70.332,327.636,71.057,327.636,71.782,327.636C72.508,327.636,73.233,327.636,73.958,327.636C74.683,327.636,75.408,327.636,76.133,327.636C76.858,327.636,77.583,327.636,78.308,327.636C79.033,327.636,79.758,18.545,80.483,18.545C81.208,18.545,81.934,293.636,82.659,306C83.384,318.364,84.109,324.545,84.834,324.545C85.559,324.545,86.284,324.545,87.009,324.545C87.734,324.545,88.459,324.545,89.184,324.545C89.909,324.545,90.634,324.545,91.36,324.545C92.085,324.545,92.81,324.545,93.535,324.545C94.26,324.545,94.985,324.545,95.71,324.545C96.435,324.545,97.16,324.545,97.885,324.545C98.61,324.545,99.335,324.545,100.06,324.545C100.785,324.545,101.511,324.545,102.236,324.545C102.961,324.545,103.686,324.545,104.411,324.545C105.136,324.545,105.861,324.545,106.586,324.545C107.311,324.545,108.036,324.545,108.761,324.545C109.486,324.545,110.211,324.545,110.937,324.545C111.662,324.545,112.387,324.545,113.112,324.545C113.837,324.545,114.562,324.545,115.287,324.545C116.012,324.545,116.737,324.545,117.462,324.545C118.187,324.545,118.912,324.545,119.637,324.545C120.363,324.545,121.088,324.545,121.813,324.545C122.538,324.545,123.263,324.545,123.988,324.545C124.713,324.545,125.438,324.545,126.163,324.545C126.888,324.545,127.613,324.545,128.338,324.545C129.063,324.545,129.789,324.545,130.514,324.545C131.239,324.545,131.964,324.545,132.689,324.545C133.414,324.545,134.139,324.545,134.864,324.545C135.589,324.545,136.314,324.545,137.039,324.545C137.764,324.545,138.489,324.545,139.215,324.545C139.94,324.545,140.665,324.545,141.39,324.545C142.115,324.545,142.84,324.545,143.565,324.545C144.29,324.545,145.015,324.545,145.74,324.545C146.465,324.545,147.19,324.545,147.915,324.545C148.64,324.545,149.366,324.545,150.091,324.545C150.816,324.545,151.541,324.545,152.266,324.545C152.991,324.545,153.716,324.545,154.441,324.545C155.166,324.545,155.891,324.545,156.616,324.545C157.341,324.545,158.066,324.545,158.792,324.545C159.517,324.545,160.242,324.545,160.967,324.545C161.692,324.545,162.417,324.545,163.142,324.545C163.867,324.545,164.592,324.545,165.317,324.545C166.042,324.545,166.767,324.545,167.492,324.545C168.218,324.545,168.943,324.545,169.668,324.545C170.393,324.545,171.118,324.545,171.843,324.545C172.568,324.545,173.293,324.545,174.018,324.545C174.743,324.545,175.468,324.545,176.193,324.545C176.918,324.545,177.644,324.545,178.369,324.545C179.094,324.545,179.819,324.545,180.544,324.545C181.269,324.545,181.994,324.545,182.719,324.545C183.444,324.545,184.169,324.545,184.894,324.545C185.619,324.545,186.344,324.545,187.069,324.545C187.795,324.545,188.52,324.545,189.245,324.545C189.97,324.545,190.695,324.545,191.42,324.545C192.145,324.545,192.87,324.545,193.595,324.545C194.32,324.545,195.045,324.545,195.77,324.545C196.495,324.545,197.221,324.545,197.946,324.545C198.671,324.545,199.396,324.545,200.121,324.545C200.846,324.545,201.571,324.545,202.296,324.545C203.021,324.545,203.746,324.545,204.471,324.545C205.196,324.545,205.921,324.545,206.647,324.545C207.372,324.545,208.097,324.545,208.822,324.545C209.547,324.545,210.272,324.545,210.997,324.545C211.722,324.545,212.447,324.545,213.172,324.545C213.897,324.545,214.622,324.545,215.347,324.545C216.073,324.545,216.798,324.545,217.523,324.545C218.248,324.545,218.973,321.455,219.698,321.455C220.423,321.455,221.148,324.545,221.873,324.545C222.598,324.545,223.323,324.545,224.048,324.545C224.773,324.545,225.498,309.091,226.224,309.091C226.949,309.091,227.674,312.697,228.399,315.273C229.124,317.848,229.849,324.545,230.574,324.545C231.299,324.545,232.024,324.545,232.749,324.545C233.474,324.545,234.199,321.455,234.924,321.455C235.65,321.455,236.375,324.545,237.1,324.545C237.825,324.545,238.55,318.364,239.275,318.364C240,318.364,240.725,318.364,241.45,318.364C242.175,318.364,242.9,316.303,243.625,315.273C244.35,314.242,245.076,312.182,245.801,312.182C246.526,312.182,247.251,316.303,247.976,318.364C248.701,320.424,249.426,324.545,250.151,324.545C250.876,324.545,251.601,324.545,252.326,324.545C253.051,324.545,253.776,324.545,254.502,324.545C255.227,324.545,255.952,324.545,256.677,324.545C257.402,324.545,258.127,324.545,258.852,324.545C259.577,324.545,260.302,315.273,261.027,315.273C261.752,315.273,262.477,318.364,263.202,318.364C263.927,318.364,264.653,316.818,265.378,315.273C266.103,313.727,266.828,309.091,267.553,309.091C268.278,309.091,269.003,310.636,269.728,312.182C270.453,313.727,271.178,318.364,271.903,318.364C272.628,318.364,273.353,315.788,274.079,312.182C274.804,308.576,275.529,296.727,276.254,296.727C276.979,296.727,277.704,312.182,278.429,312.182C279.154,312.182,279.879,299.818,280.604,299.818C281.329,299.818,282.054,306,282.779,306C283.505,306,284.23,306,284.955,306C285.68,306,286.405,309.091,287.13,309.091C287.855,309.091,288.58,307.03,289.305,302.909C290.03,298.788,290.755,284.364,291.48,284.364C292.205,284.364,292.931,284.364,293.656,284.364C294.381,284.364,295.106,287.455,295.831,290.545C296.556,293.636,297.281,302.909,298.006,302.909C298.731,302.909,299.456,296.727,300.181,296.727C300.906,296.727,301.631,296.727,302.356,296.727C303.082,296.727,303.807,299.303,304.532,302.909C305.257,306.515,305.982,318.364,306.707,318.364C307.432,318.364,308.157,312.182,308.882,312.182C309.607,312.182,310.332,312.182,311.057,312.182C311.782,312.182,312.508,321.455,313.233,321.455C313.958,321.455,314.683,318.364,315.408,318.364C316.133,318.364,316.858,324.545,317.583,324.545C318.308,324.545,319.033,324.545,319.758,324.545C320.483,324.545,321.208,324.545,321.934,324.545C322.659,324.545,323.384,321.455,324.109,321.455C324.834,321.455,325.559,324.545,326.284,324.545C327.009,324.545,327.734,324.545,328.459,324.545C329.184,324.545,329.909,324.545,330.634,324.545C331.36,324.545,332.085,324.545,332.81,324.545C333.535,324.545,334.26,324.545,334.985,324.545C335.71,324.545,336.435,324.545,337.16,324.545C337.885,324.545,338.61,324.545,339.335,324.545C340.06,324.545,340.785,324.545,341.511,324.545C342.236,324.545,342.961,324.545,343.686,324.545C344.411,324.545,345.136,324.545,345.861,324.545C346.586,324.545,347.311,324.545,348.036,324.545C348.761,324.545,349.486,324.545,350.211,324.545C350.937,324.545,351.662,324.545,352.387,324.545C353.112,324.545,353.837,324.545,354.562,324.545C355.287,324.545,356.012,324.545,356.737,324.545C357.462,324.545,358.187,324.545,358.912,324.545C359.637,324.545,360.363,324.545,361.088,324.545C361.813,324.545,362.538,324.545,363.263,324.545C363.988,324.545,364.713,324.545,365.438,324.545C366.163,324.545,366.888,324.545,367.613,324.545C368.338,324.545,369.063,324.545,369.789,324.545C370.514,324.545,371.239,324.545,371.964,324.545C372.689,324.545,373.414,324.545,374.139,324.545C374.864,324.545,375.589,324.545,376.314,324.545C377.039,324.545,377.764,324.545,378.489,324.545C379.215,324.545,379.94,324.545,380.665,324.545C381.39,324.545,382.115,324.545,382.84,324.545C383.565,324.545,384.29,324.545,385.015,324.545C385.74,324.545,386.465,324.545,387.19,324.545C387.915,324.545,388.64,324.545,389.366,324.545C390.091,324.545,390.816,324.545,391.541,324.545C392.266,324.545,392.991,324.545,393.716,324.545C394.441,324.545,395.166,324.545,395.891,324.545C396.616,324.545,397.341,324.545,398.066,324.545C398.792,324.545,399.517,324.545,400.242,324.545C400.967,324.545,401.692,324.545,402.417,324.545C403.142,324.545,403.867,324.545,404.592,324.545C405.317,324.545,406.042,324.545,406.767,324.545C407.492,324.545,408.218,324.545,408.943,324.545C409.668,324.545,410.393,324.545,411.118,324.545C411.843,324.545,412.568,324.545,413.293,324.545C414.018,324.545,414.743,324.545,415.468,324.545C416.193,324.545,416.918,324.545,417.644,324.545C418.369,324.545,419.094,324.545,419.819,324.545C420.544,324.545,421.269,324.545,421.994,324.545C422.719,324.545,423.444,324.545,424.169,324.545C424.894,324.545,425.619,324.545,426.344,324.545C427.069,324.545,427.795,324.545,428.52,324.545C429.245,324.545,429.97,324.545,430.695,324.545C431.42,324.545,432.145,324.545,432.87,324.545C433.595,324.545,434.32,324.545,435.045,324.545C435.77,324.545,436.495,324.545,437.221,324.545C437.946,324.545,438.671,324.545,439.396,324.545C440.121,324.545,440.846,324.545,441.571,324.545C442.296,324.545,443.021,324.545,443.746,324.545C444.471,324.545,445.196,324.545,445.921,324.545C446.647,324.545,447.372,324.545,448.097,324.545C448.822,324.545,449.547,324.545,450.272,324.545C450.997,324.545,451.722,324.545,452.447,324.545C453.172,324.545,453.897,324.545,454.622,324.545C455.347,324.545,456.073,324.545,456.798,324.545C457.523,324.545,458.248,324.545,458.973,324.545C459.698,324.545,460.423,324.545,461.148,324.545C461.873,324.545,462.598,324.545,463.323,324.545C464.048,324.545,464.773,324.545,465.498,324.545C466.224,324.545,466.949,324.545,467.674,324.545C468.399,324.545,469.124,324.545,469.849,324.545C470.574,324.545,471.299,324.545,472.024,324.545C472.749,324.545,473.474,324.545,474.199,324.545C474.924,324.545,475.65,324.545,476.375,324.545C477.1,324.545,477.825,324.545,478.55,324.545C479.275,324.545,480,324.545,480.725,324.545C481.45,324.545,482.175,324.545,482.9,324.545C483.625,324.545,484.35,324.545,485.076,324.545C485.801,324.545,486.526,324.545,487.251,324.545C487.976,324.545,488.701,324.545,489.426,324.545C490.151,324.545,490.876,324.545,491.601,324.545C492.326,324.545,493.051,324.545,493.776,324.545C494.502,324.545,495.227,324.545,495.952,324.545C496.677,324.545,497.402,324.545,498.127,324.545C498.852,324.545,499.577,324.545,500.302,324.545C501.027,324.545,501.752,324.545,502.477,324.545C503.202,324.545,503.927,324.545,504.653,324.545C505.378,324.545,506.103,324.545,506.828,324.545C507.553,324.545,508.278,324.545,509.003,324.545C509.728,324.545,510.453,324.545,511.178,324.545C511.903,324.545,512.628,324.545,513.353,324.545C514.079,324.545,514.804,324.545,515.529,324.545C516.254,324.545,516.979,336.909,517.704,336.909C518.429,336.909,519.154,336.909,519.879,336.909C520.604,336.909,521.329,336.909,522.054,336.909C522.779,336.909,523.505,336.909,524.23,336.909C524.955,336.909,525.68,336.909,526.405,336.909C527.13,336.909,527.855,336.909,528.58,336.909C529.305,336.909,530.03,336.909,530.755,336.909C531.48,336.909,532.205,336.909,532.931,336.909C533.656,336.909,534.381,336.909,535.106,336.909C535.831,336.909,536.556,336.909,537.281,336.909C538.006,336.909,538.731,336.909,539.456,336.909C540.181,336.909,540.906,336.909,541.631,336.909C542.356,336.909,543.082,336.909,543.807,336.909C544.532,336.909,545.257,336.909,545.982,336.909C546.707,336.909,547.432,336.909,548.157,336.909C548.882,336.909,549.607,336.909,550.332,336.909C551.057,336.909,551.782,336.909,552.508,336.909C553.233,336.909,553.958,336.909,554.683,336.909C555.408,336.909,556.133,336.909,556.858,336.909C557.583,336.909,558.308,336.909,559.033,336.909C559.758,336.909,560.483,336.909,561.208,336.909C561.934,336.909,562.659,336.909,563.384,336.909C564.109,336.909,564.834,336.909,565.559,336.909C566.284,336.909,567.009,336.909,567.734,336.909C568.459,336.909,569.184,336.909,569.909,336.909C570.634,336.909,571.36,336.909,572.085,336.909C572.81,336.909,573.535,336.909,574.26,336.909C574.985,336.909,575.71,336.909,576.435,336.909C577.16,336.909,577.885,336.909,578.61,336.909C579.335,336.909,580.06,336.909,580.785,336.909C581.511,336.909,582.236,336.909,582.961,336.909C583.686,336.909,584.411,336.909,585.136,336.909C585.861,336.909,586.586,336.909,587.311,336.909C588.036,336.909,588.761,336.909,589.486,336.909C590.211,336.909,590.937,336.909,591.662,336.909C592.387,336.909,593.112,336.909,593.837,336.909C594.562,336.909,595.287,336.909,596.012,336.909C596.737,336.909,597.462,336.909,598.187,336.909C598.912,336.909,599.637,336.909,600.363,336.909C601.088,336.909,601.813,336.909,602.538,336.909C603.263,336.909,603.988,336.909,604.713,336.909C605.438,336.909,606.163,336.909,606.888,336.909C607.613,336.909,608.338,336.909,609.063,336.909C609.789,336.909,610.514,336.909,611.239,336.909C611.964,336.909,612.689,336.909,613.414,336.909C614.139,336.909,614.864,336.909,615.589,336.909C616.314,336.909,617.039,336.909,617.764,336.909C618.489,336.909,619.215,336.909,619.94,336.909C620.665,336.909,621.39,336.909,622.115,336.909C622.84,336.909,623.565,336.909,624.29,336.909C625.015,336.909,625.74,336.909,626.465,336.909C627.19,336.909,627.915,336.909,628.64,336.909C629.366,336.909,630.091,336.909,630.816,336.909C631.541,336.909,632.266,336.909,632.991,336.909C633.716,336.909,634.441,336.909,635.166,336.909C635.891,336.909,636.616,336.909,637.341,336.909C638.066,336.909,638.792,336.909,639.517,336.909C640.242,336.909,640.967,336.909,641.692,336.909C642.417,336.909,643.142,336.909,643.867,336.909C644.592,336.909,645.317,336.909,646.042,336.909C646.767,336.909,647.492,336.909,648.218,336.909C648.943,336.909,649.668,336.909,650.393,336.909C651.118,336.909,651.843,336.909,652.568,336.909C653.293,336.909,654.018,336.909,654.743,336.909C655.468,336.909,656.193,336.909,656.918,336.909C657.644,336.909,658.369,336.909,659.094,336.909C659.819,336.909,660.544,336.909,661.269,336.909C661.994,336.909,662.719,336.909,663.444,336.909C664.169,336.909,664.894,336.909,665.619,336.909C666.344,336.909,667.069,336.909,667.795,336.909C668.52,336.909,669.245,336.909,669.97,336.909C670.695,336.909,671.42,336.909,672.145,336.909C672.87,336.909,673.595,336.909,674.32,336.909C675.045,336.909,675.77,336.909,676.495,336.909C677.221,336.909,677.946,336.909,678.671,336.909C679.396,336.909,680.121,336.909,680.846,336.909C681.571,336.909,682.296,336.909,683.021,336.909C683.746,336.909,684.471,336.909,685.196,336.909C685.921,336.909,686.647,336.909,687.372,336.909C688.097,336.909,688.822,336.909,689.547,336.909C690.272,336.909,690.997,336.909,691.722,336.909C692.447,336.909,693.172,336.909,693.897,336.909C694.622,336.909,695.347,336.909,696.073,336.909C696.798,336.909,697.523,336.909,698.248,336.909C698.973,336.909,699.698,336.909,700.423,336.909C701.148,336.909,701.873,336.909,702.598,336.909C703.323,336.909,704.048,336.909,704.773,336.909C705.498,336.909,706.224,336.909,706.949,336.909C707.674,336.909,708.399,336.909,709.124,336.909C709.849,336.909,710.574,336.909,711.299,336.909C712.024,336.909,712.749,336.909,713.474,336.909C714.199,336.909,714.924,336.909,715.65,336.909C716.375,336.909,717.1,336.909,717.825,336.909C718.55,336.909,719.275,336.909,720,336.909"></path><circle class="dot" cx="0" cy="327.6363636363636" r="3" fill="#2563eb"></circle><circle class="dot" cx="2.175226586102719" cy="327.6363636363636" r="3" fill="#2563eb"></circle><circle class="dot" cx="4.350453172205438" cy="327.6363636363636" r="3" fill="#2563eb"></circle><circle class="dot" cx="6.525679758308158" cy="327.6363636363636" r="3" fill="#2563eb"></circle><circle class="dot" cx="8.700906344410877" cy="327.6363636363636" r="3" fill="#2563eb"></circle><circle class="dot" cx="10.876132930513595" cy="327.6363636363636" r="3" fill="#2563eb"></circle><circle class="dot" cx="13.051359516616316" cy="327.6363636363636" r="3" fill="#2563eb"></circle><circle class="dot" cx="15.226586102719034" cy="327.6363636363636" r="3" fill="#2563eb"></circle><circle class="dot" cx="17.401812688821753" cy="327.6363636363636" r="3" fill="#2563eb"></circle><circle class="dot" cx="19.57703927492447" cy="327.6363636363636" r="3" fill="#2563eb"></circle><circle class="dot" cx="21.75226586102719" cy="327.6363636363636" r="3" fill="#2563eb"></circle><circle class="dot" cx="23.92749244712991" cy="327.6363636363636" r="3" fill="#2563eb"></circle><circle class="dot" cx="26.10271903323263" cy="327.6363636363636" r="3" fill="#2563eb"></circle><circle class="dot" cx="28.27794561933535" cy="327.6363636363636" r="3" fill="#2563eb"></circle><circle class="dot" cx="30.45317220543807" cy="327.6363636363636" r="3" fill="#2563eb"></circle><circle class="dot" cx="32.62839879154078" cy="327.6363636363636" r="3" fill="#2563eb"></circle><circle class="dot" cx="34.803625377643506" cy="327.6363636363636" r="3" fill="#2563eb"></circle><circle class="dot" cx="36.97885196374622" cy="327.6363636363636" r="3" fill="#2563eb"></circle><circle class="dot" cx="39.15407854984894" cy="327.6363636363636" r="3" fill="#2563eb"></circle><circle class="dot" cx="41.329305135951664" cy="327.6363636363636" r="3" fill="#2563eb"></circle><circle class="dot" cx="43.50453172205438" cy="327.6363636363636" r="3" fill="#2563eb"></circle><circle class="dot" cx="45.6797583081571" cy="327.6363636363636" r="3" fill="#2563eb"></circle><circle class="dot" cx="47.85498489425982" cy="327.6363636363636" r="3" fill="#2563eb"></circle><circle class="dot" cx="50.03021148036254" cy="327.6363636363636" r="3" fill="#2563eb"></circle><circle class="dot" cx="52.20543806646526" cy="327.6363636363636" r="3" fill="#2563eb"></circle><circle class="dot" cx="54.38066465256797" cy="327.6363636363636" r="3" fill="#2563eb"></circle><circle class="dot" cx="56.5558912386707" cy="327.6363636363636" r="3" fill="#2563eb"></circle><circle class="dot" cx="58.73111782477341" cy="327.6363636363636" r="3" fill="#2563eb"></circle><circle class="dot" cx="60.90634441087614" cy="327.6363636363636" r="3" fill="#2563eb"></circle><circle class="dot" cx="63.081570996978854" cy="327.6363636363636" r="3" fill="#2563eb"></circle><circle class="dot" cx="65.25679758308156" cy="327.6363636363636" r="3" fill="#2563eb"></circle><circle class="dot" cx="67.43202416918429" cy="327.6363636363636" r="3" fill="#2563eb"></circle><circle class="dot" cx="69.60725075528701" cy="327.6363636363636" r="3" fill="#2563eb"></circle><circle class="dot" cx="71.78247734138974" cy="327.6363636363636" r="3" fill="#2563eb"></circle><circle class="dot" cx="73.95770392749245" cy="327.6363636363636" r="3" fill="#2563eb"></circle><circle class="dot" cx="76.13293051359516" cy="327.6363636363636" r="3" fill="#2563eb"></circle><circle class="dot" cx="78.30815709969788" cy="327.6363636363636" r="3" fill="#2563eb"></circle><circle class="dot" cx="80.4833836858006" cy="18.54545454545455" r="3" fill="#2563eb"></circle><circle class="dot" cx="82.65861027190333" cy="306" r="3" fill="#2563eb"></circle><circle class="dot" cx="84.83383685800605" cy="324.54545454545456" r="3" fill="#2563eb"></circle><circle class="dot" cx="87.00906344410876" cy="324.54545454545456" r="3" fill="#2563eb"></circle><circle class="dot" cx="89.18429003021147" cy="324.54545454545456" r="3" fill="#2563eb"></circle><circle class="dot" cx="91.3595166163142" cy="324.54545454545456" r="3" fill="#2563eb"></circle><circle class="dot" cx="93.53474320241692" cy="324.54545454545456" r="3" fill="#2563eb"></circle><circle class="dot" cx="95.70996978851964" cy="324.54545454545456" r="3" fill="#2563eb"></circle><circle class="dot" cx="97.88519637462237" cy="324.54545454545456" r="3" fill="#2563eb"></circle><circle class="dot" cx="100.06042296072508" cy="324.54545454545456" r="3" fill="#2563eb"></circle><circle class="dot" cx="102.2356495468278" cy="324.54545454545456" r="3" fill="#2563eb"></circle><circle class="dot" cx="104.41087613293053" cy="324.54545454545456" r="3" fill="#2563eb"></circle><circle class="dot" cx="106.58610271903322" cy="324.54545454545456" r="3" fill="#2563eb"></circle><circle class="dot" cx="108.76132930513594" cy="324.54545454545456" r="3" fill="#2563eb"></circle><circle class="dot" cx="110.93655589123867" cy="324.54545454545456" r="3" fill="#2563eb"></circle><circle class="dot" cx="113.1117824773414" cy="324.54545454545456" r="3" fill="#2563eb"></circle><circle class="dot" cx="115.2870090634441" cy="324.54545454545456" r="3" fill="#2563eb"></circle><circle class="dot" cx="117.46223564954683" cy="324.54545454545456" r="3" fill="#2563eb"></circle><circle class="dot" cx="119.63746223564955" cy="324.54545454545456" r="3" fill="#2563eb"></circle><circle class="dot" cx="121.81268882175227" cy="324.54545454545456" r="3" fill="#2563eb"></circle><circle class="dot" cx="123.98791540785498" cy="324.54545454545456" r="3" fill="#2563eb"></circle><circle class="dot" cx="126.16314199395771" cy="324.54545454545456" r="3" fill="#2563eb"></circle><circle class="dot" cx="128.3383685800604" cy="324.54545454545456" r="3" fill="#2563eb"></circle><circle class="dot" cx="130.51359516616313" cy="324.54545454545456" r="3" fill="#2563eb"></circle><circle class="dot" cx="132.68882175226585" cy="324.54545454545456" r="3" fill="#2563eb"></circle><circle class="dot" cx="134.86404833836858" cy="324.54545454545456" r="3" fill="#2563eb"></circle><circle class="dot" cx="137.0392749244713" cy="324.54545454545456" r="3" fill="#2563eb"></circle><circle class="dot" cx="139.21450151057402" cy="324.54545454545456" r="3" fill="#2563eb"></circle><circle class="dot" cx="141.38972809667675" cy="324.54545454545456" r="3" fill="#2563eb"></circle><circle class="dot" cx="143.56495468277947" cy="324.54545454545456" r="3" fill="#2563eb"></circle><circle class="dot" cx="145.74018126888217" cy="324.54545454545456" r="3" fill="#2563eb"></circle><circle class="dot" cx="147.9154078549849" cy="324.54545454545456" r="3" fill="#2563eb"></circle><circle class="dot" cx="150.09063444108762" cy="324.54545454545456" r="3" fill="#2563eb"></circle><circle class="dot" cx="152.2658610271903" cy="324.54545454545456" r="3" fill="#2563eb"></circle><circle class="dot" cx="154.44108761329304" cy="324.54545454545456" r="3" fill="#2563eb"></circle><circle class="dot" cx="156.61631419939576" cy="324.54545454545456" r="3" fill="#2563eb"></circle><circle class="dot" cx="158.79154078549848" cy="324.54545454545456" r="3" fill="#2563eb"></circle><circle class="dot" cx="160.9667673716012" cy="324.54545454545456" r="3" fill="#2563eb"></circle><circle class="dot" cx="163.14199395770393" cy="324.54545454545456" r="3" fill="#2563eb"></circle><circle class="dot" cx="165.31722054380666" cy="324.54545454545456" r="3" fill="#2563eb"></circle><circle class="dot" cx="167.49244712990938" cy="324.54545454545456" r="3" fill="#2563eb"></circle><circle class="dot" cx="169.6676737160121" cy="324.54545454545456" r="3" fill="#2563eb"></circle><circle class="dot" cx="171.8429003021148" cy="324.54545454545456" r="3" fill="#2563eb"></circle><circle class="dot" cx="174.01812688821752" cy="324.54545454545456" r="3" fill="#2563eb"></circle><circle class="dot" cx="176.19335347432025" cy="324.54545454545456" r="3" fill="#2563eb"></circle><circle class="dot" cx="178.36858006042294" cy="324.54545454545456" r="3" fill="#2563eb"></circle><circle class="dot" cx="180.5438066465257" cy="324.54545454545456" r="3" fill="#2563eb"></circle><circle class="dot" cx="182.7190332326284" cy="324.54545454545456" r="3" fill="#2563eb"></circle><circle class="dot" cx="184.89425981873114" cy="324.54545454545456" r="3" fill="#2563eb"></circle><circle class="dot" cx="187.06948640483384" cy="324.54545454545456" r="3" fill="#2563eb"></circle><circle class="dot" cx="189.24471299093653" cy="324.54545454545456" r="3" fill="#2563eb"></circle><circle class="dot" cx="191.4199395770393" cy="324.54545454545456" r="3" fill="#2563eb"></circle><circle class="dot" cx="193.59516616314198" cy="324.54545454545456" r="3" fill="#2563eb"></circle><circle class="dot" cx="195.77039274924473" cy="324.54545454545456" r="3" fill="#2563eb"></circle><circle class="dot" cx="197.94561933534743" cy="324.54545454545456" r="3" fill="#2563eb"></circle><circle class="dot" cx="200.12084592145015" cy="324.54545454545456" r="3" fill="#2563eb"></circle><circle class="dot" cx="202.29607250755288" cy="324.54545454545456" r="3" fill="#2563eb"></circle><circle class="dot" cx="204.4712990936556" cy="324.54545454545456" r="3" fill="#2563eb"></circle><circle class="dot" cx="206.6465256797583" cy="324.54545454545456" r="3" fill="#2563eb"></circle><circle class="dot" cx="208.82175226586105" cy="324.54545454545456" r="3" fill="#2563eb"></circle><circle class="dot" cx="210.99697885196375" cy="324.54545454545456" r="3" fill="#2563eb"></circle><circle class="dot" cx="213.17220543806644" cy="324.54545454545456" r="3" fill="#2563eb"></circle><circle class="dot" cx="215.3474320241692" cy="324.54545454545456" r="3" fill="#2563eb"></circle><circle class="dot" cx="217.5226586102719" cy="324.54545454545456" r="3" fill="#2563eb"></circle><circle class="dot" cx="219.69788519637464" cy="321.45454545454544" r="3" fill="#2563eb"></circle><circle class="dot" cx="221.87311178247734" cy="324.54545454545456" r="3" fill="#2563eb"></circle><circle class="dot" cx="224.04833836858006" cy="324.54545454545456" r="3" fill="#2563eb"></circle><circle class="dot" cx="226.2235649546828" cy="309.09090909090907" r="3" fill="#2563eb"></circle><circle class="dot" cx="228.3987915407855" cy="315.27272727272725" r="3" fill="#2563eb"></circle><circle class="dot" cx="230.5740181268882" cy="324.54545454545456" r="3" fill="#2563eb"></circle><circle class="dot" cx="232.74924471299093" cy="324.54545454545456" r="3" fill="#2563eb"></circle><circle class="dot" cx="234.92447129909365" cy="321.45454545454544" r="3" fill="#2563eb"></circle><circle class="dot" cx="237.09969788519635" cy="324.54545454545456" r="3" fill="#2563eb"></circle><circle class="dot" cx="239.2749244712991" cy="318.3636363636364" r="3" fill="#2563eb"></circle><circle class="dot" cx="241.4501510574018" cy="318.3636363636364" r="3" fill="#2563eb"></circle><circle class="dot" cx="243.62537764350455" cy="315.27272727272725" r="3" fill="#2563eb"></circle><circle class="dot" cx="245.80060422960725" cy="312.1818181818182" r="3" fill="#2563eb"></circle><circle class="dot" cx="247.97583081570997" cy="318.3636363636364" r="3" fill="#2563eb"></circle><circle class="dot" cx="250.1510574018127" cy="324.54545454545456" r="3" fill="#2563eb"></circle><circle class="dot" cx="252.32628398791542" cy="324.54545454545456" r="3" fill="#2563eb"></circle><circle class="dot" cx="254.5015105740181" cy="324.54545454545456" r="3" fill="#2563eb"></circle><circle class="dot" cx="256.6767371601208" cy="324.54545454545456" r="3" fill="#2563eb"></circle><circle class="dot" cx="258.8519637462236" cy="324.54545454545456" r="3" fill="#2563eb"></circle><circle class="dot" cx="261.02719033232626" cy="315.27272727272725" r="3" fill="#2563eb"></circle><circle class="dot" cx="263.20241691842904" cy="318.3636363636364" r="3" fill="#2563eb"></circle><circle class="dot" cx="265.3776435045317" cy="315.27272727272725" r="3" fill="#2563eb"></circle><circle class="dot" cx="267.5528700906344" cy="309.09090909090907" r="3" fill="#2563eb"></circle><circle class="dot" cx="269.72809667673715" cy="312.1818181818182" r="3" fill="#2563eb"></circle><circle class="dot" cx="271.9033232628399" cy="318.3636363636364" r="3" fill="#2563eb"></circle><circle class="dot" cx="274.0785498489426" cy="312.1818181818182" r="3" fill="#2563eb"></circle><circle class="dot" cx="276.2537764350453" cy="296.7272727272727" r="3" fill="#2563eb"></circle><circle class="dot" cx="278.42900302114805" cy="312.1818181818182" r="3" fill="#2563eb"></circle><circle class="dot" cx="280.6042296072507" cy="299.8181818181818" r="3" fill="#2563eb"></circle><circle class="dot" cx="282.7794561933535" cy="306" r="3" fill="#2563eb"></circle><circle class="dot" cx="284.95468277945616" cy="306" r="3" fill="#2563eb"></circle><circle class="dot" cx="287.12990936555894" cy="309.09090909090907" r="3" fill="#2563eb"></circle><circle class="dot" cx="289.3051359516616" cy="302.9090909090909" r="3" fill="#2563eb"></circle><circle class="dot" cx="291.48036253776434" cy="284.3636363636364" r="3" fill="#2563eb"></circle><circle class="dot" cx="293.65558912386706" cy="284.3636363636364" r="3" fill="#2563eb"></circle><circle class="dot" cx="295.8308157099698" cy="290.5454545454545" r="3" fill="#2563eb"></circle><circle class="dot" cx="298.0060422960725" cy="302.9090909090909" r="3" fill="#2563eb"></circle><circle class="dot" cx="300.18126888217523" cy="296.7272727272727" r="3" fill="#2563eb"></circle><circle class="dot" cx="302.35649546827796" cy="296.7272727272727" r="3" fill="#2563eb"></circle><circle class="dot" cx="304.5317220543806" cy="302.9090909090909" r="3" fill="#2563eb"></circle><circle class="dot" cx="306.7069486404834" cy="318.3636363636364" r="3" fill="#2563eb"></circle><circle class="dot" cx="308.88217522658607" cy="312.1818181818182" r="3" fill="#2563eb"></circle><circle class="dot" cx="311.05740181268885" cy="312.1818181818182" r="3" fill="#2563eb"></circle><circle class="dot" cx="313.2326283987915" cy="321.45454545454544" r="3" fill="#2563eb"></circle><circle class="dot" cx="315.40785498489424" cy="318.3636363636364" r="3" fill="#2563eb"></circle><circle class="dot" cx="317.58308157099697" cy="324.54545454545456" r="3" fill="#2563eb"></circle><circle class="dot" cx="319.7583081570997" cy="324.54545454545456" r="3" fill="#2563eb"></circle><circle class="dot" cx="321.9335347432024" cy="324.54545454545456" r="3" fill="#2563eb"></circle><circle class="dot" cx="324.10876132930514" cy="321.45454545454544" r="3" fill="#2563eb"></circle><circle class="dot" cx="326.28398791540786" cy="324.54545454545456" r="3" fill="#2563eb"></circle><circle class="dot" cx="328.45921450151053" cy="324.54545454545456" r="3" fill="#2563eb"></circle><circle class="dot" cx="330.6344410876133" cy="324.54545454545456" r="3" fill="#2563eb"></circle><circle class="dot" cx="332.809667673716" cy="324.54545454545456" r="3" fill="#2563eb"></circle><circle class="dot" cx="334.98489425981876" cy="324.54545454545456" r="3" fill="#2563eb"></circle><circle class="dot" cx="337.1601208459214" cy="324.54545454545456" r="3" fill="#2563eb"></circle><circle class="dot" cx="339.3353474320242" cy="324.54545454545456" r="3" fill="#2563eb"></circle><circle class="dot" cx="341.5105740181269" cy="324.54545454545456" r="3" fill="#2563eb"></circle><circle class="dot" cx="343.6858006042296" cy="324.54545454545456" r="3" fill="#2563eb"></circle><circle class="dot" cx="345.8610271903323" cy="324.54545454545456" r="3" fill="#2563eb"></circle><circle class="dot" cx="348.03625377643505" cy="324.54545454545456" r="3" fill="#2563eb"></circle><circle class="dot" cx="350.21148036253777" cy="324.54545454545456" r="3" fill="#2563eb"></circle><circle class="dot" cx="352.3867069486405" cy="324.54545454545456" r="3" fill="#2563eb"></circle><circle class="dot" cx="354.5619335347432" cy="324.54545454545456" r="3" fill="#2563eb"></circle><circle class="dot" cx="356.7371601208459" cy="324.54545454545456" r="3" fill="#2563eb"></circle><circle class="dot" cx="358.91238670694867" cy="324.54545454545456" r="3" fill="#2563eb"></circle><circle class="dot" cx="361.0876132930514" cy="324.54545454545456" r="3" fill="#2563eb"></circle><circle class="dot" cx="363.2628398791541" cy="324.54545454545456" r="3" fill="#2563eb"></circle><circle class="dot" cx="365.4380664652568" cy="324.54545454545456" r="3" fill="#2563eb"></circle><circle class="dot" cx="367.6132930513595" cy="324.54545454545456" r="3" fill="#2563eb"></circle><circle class="dot" cx="369.7885196374623" cy="324.54545454545456" r="3" fill="#2563eb"></circle><circle class="dot" cx="371.96374622356495" cy="324.54545454545456" r="3" fill="#2563eb"></circle><circle class="dot" cx="374.1389728096677" cy="324.54545454545456" r="3" fill="#2563eb"></circle><circle class="dot" cx="376.3141993957704" cy="324.54545454545456" r="3" fill="#2563eb"></circle><circle class="dot" cx="378.48942598187307" cy="324.54545454545456" r="3" fill="#2563eb"></circle><circle class="dot" cx="380.66465256797585" cy="324.54545454545456" r="3" fill="#2563eb"></circle><circle class="dot" cx="382.8398791540786" cy="324.54545454545456" r="3" fill="#2563eb"></circle><circle class="dot" cx="385.01510574018124" cy="324.54545454545456" r="3" fill="#2563eb"></circle><circle class="dot" cx="387.19033232628396" cy="324.54545454545456" r="3" fill="#2563eb"></circle><circle class="dot" cx="389.36555891238675" cy="324.54545454545456" r="3" fill="#2563eb"></circle><circle class="dot" cx="391.54078549848947" cy="324.54545454545456" r="3" fill="#2563eb"></circle><circle class="dot" cx="393.71601208459214" cy="324.54545454545456" r="3" fill="#2563eb"></circle><circle class="dot" cx="395.89123867069486" cy="324.54545454545456" r="3" fill="#2563eb"></circle><circle class="dot" cx="398.0664652567975" cy="324.54545454545456" r="3" fill="#2563eb"></circle><circle class="dot" cx="400.2416918429003" cy="324.54545454545456" r="3" fill="#2563eb"></circle><circle class="dot" cx="402.41691842900303" cy="324.54545454545456" r="3" fill="#2563eb"></circle><circle class="dot" cx="404.59214501510576" cy="324.54545454545456" r="3" fill="#2563eb"></circle><circle class="dot" cx="406.7673716012084" cy="324.54545454545456" r="3" fill="#2563eb"></circle><circle class="dot" cx="408.9425981873112" cy="324.54545454545456" r="3" fill="#2563eb"></circle><circle class="dot" cx="411.11782477341393" cy="324.54545454545456" r="3" fill="#2563eb"></circle><circle class="dot" cx="413.2930513595166" cy="324.54545454545456" r="3" fill="#2563eb"></circle><circle class="dot" cx="415.4682779456193" cy="324.54545454545456" r="3" fill="#2563eb"></circle><circle class="dot" cx="417.6435045317221" cy="324.54545454545456" r="3" fill="#2563eb"></circle><circle class="dot" cx="419.81873111782477" cy="324.54545454545456" r="3" fill="#2563eb"></circle><circle class="dot" cx="421.9939577039275" cy="324.54545454545456" r="3" fill="#2563eb"></circle><circle class="dot" cx="424.1691842900302" cy="324.54545454545456" r="3" fill="#2563eb"></circle><circle class="dot" cx="426.3444108761329" cy="324.54545454545456" r="3" fill="#2563eb"></circle><circle class="dot" cx="428.51963746223566" cy="324.54545454545456" r="3" fill="#2563eb"></circle><circle class="dot" cx="430.6948640483384" cy="324.54545454545456" r="3" fill="#2563eb"></circle><circle class="dot" cx="432.87009063444106" cy="324.54545454545456" r="3" fill="#2563eb"></circle><circle class="dot" cx="435.0453172205438" cy="324.54545454545456" r="3" fill="#2563eb"></circle><circle class="dot" cx="437.22054380664656" cy="324.54545454545456" r="3" fill="#2563eb"></circle><circle class="dot" cx="439.3957703927493" cy="324.54545454545456" r="3" fill="#2563eb"></circle><circle class="dot" cx="441.57099697885195" cy="324.54545454545456" r="3" fill="#2563eb"></circle><circle class="dot" cx="443.7462235649547" cy="324.54545454545456" r="3" fill="#2563eb"></circle><circle class="dot" cx="445.92145015105734" cy="324.54545454545456" r="3" fill="#2563eb"></circle><circle class="dot" cx="448.0966767371601" cy="324.54545454545456" r="3" fill="#2563eb"></circle><circle class="dot" cx="450.27190332326285" cy="324.54545454545456" r="3" fill="#2563eb"></circle><circle class="dot" cx="452.4471299093656" cy="324.54545454545456" r="3" fill="#2563eb"></circle><circle class="dot" cx="454.62235649546824" cy="324.54545454545456" r="3" fill="#2563eb"></circle><circle class="dot" cx="456.797583081571" cy="324.54545454545456" r="3" fill="#2563eb"></circle><circle class="dot" cx="458.97280966767374" cy="324.54545454545456" r="3" fill="#2563eb"></circle><circle class="dot" cx="461.1480362537764" cy="324.54545454545456" r="3" fill="#2563eb"></circle><circle class="dot" cx="463.32326283987913" cy="324.54545454545456" r="3" fill="#2563eb"></circle><circle class="dot" cx="465.49848942598186" cy="324.54545454545456" r="3" fill="#2563eb"></circle><circle class="dot" cx="467.67371601208464" cy="324.54545454545456" r="3" fill="#2563eb"></circle><circle class="dot" cx="469.8489425981873" cy="324.54545454545456" r="3" fill="#2563eb"></circle><circle class="dot" cx="472.02416918429003" cy="324.54545454545456" r="3" fill="#2563eb"></circle><circle class="dot" cx="474.1993957703927" cy="324.54545454545456" r="3" fill="#2563eb"></circle><circle class="dot" cx="476.3746223564955" cy="324.54545454545456" r="3" fill="#2563eb"></circle><circle class="dot" cx="478.5498489425982" cy="324.54545454545456" r="3" fill="#2563eb"></circle><circle class="dot" cx="480.7250755287009" cy="324.54545454545456" r="3" fill="#2563eb"></circle><circle class="dot" cx="482.9003021148036" cy="324.54545454545456" r="3" fill="#2563eb"></circle><circle class="dot" cx="485.0755287009064" cy="324.54545454545456" r="3" fill="#2563eb"></circle><circle class="dot" cx="487.2507552870091" cy="324.54545454545456" r="3" fill="#2563eb"></circle><circle class="dot" cx="489.42598187311177" cy="324.54545454545456" r="3" fill="#2563eb"></circle><circle class="dot" cx="491.6012084592145" cy="324.54545454545456" r="3" fill="#2563eb"></circle><circle class="dot" cx="493.77643504531716" cy="324.54545454545456" r="3" fill="#2563eb"></circle><circle class="dot" cx="495.95166163141994" cy="324.54545454545456" r="3" fill="#2563eb"></circle><circle class="dot" cx="498.12688821752266" cy="324.54545454545456" r="3" fill="#2563eb"></circle><circle class="dot" cx="500.3021148036254" cy="324.54545454545456" r="3" fill="#2563eb"></circle><circle class="dot" cx="502.47734138972805" cy="324.54545454545456" r="3" fill="#2563eb"></circle><circle class="dot" cx="504.65256797583083" cy="324.54545454545456" r="3" fill="#2563eb"></circle><circle class="dot" cx="506.82779456193356" cy="324.54545454545456" r="3" fill="#2563eb"></circle><circle class="dot" cx="509.0030211480362" cy="324.54545454545456" r="3" fill="#2563eb"></circle><circle class="dot" cx="511.17824773413895" cy="324.54545454545456" r="3" fill="#2563eb"></circle><circle class="dot" cx="513.3534743202416" cy="324.54545454545456" r="3" fill="#2563eb"></circle><circle class="dot" cx="515.5287009063444" cy="324.54545454545456" r="3" fill="#2563eb"></circle><circle class="dot" cx="517.7039274924472" cy="336.90909090909093" r="3" fill="#2563eb"></circle><circle class="dot" cx="519.8791540785498" cy="336.90909090909093" r="3" fill="#2563eb"></circle><circle class="dot" cx="522.0543806646525" cy="336.90909090909093" r="3" fill="#2563eb"></circle><circle class="dot" cx="524.2296072507553" cy="336.90909090909093" r="3" fill="#2563eb"></circle><circle class="dot" cx="526.4048338368581" cy="336.90909090909093" r="3" fill="#2563eb"></circle><circle class="dot" cx="528.5800604229607" cy="336.90909090909093" r="3" fill="#2563eb"></circle><circle class="dot" cx="530.7552870090634" cy="336.90909090909093" r="3" fill="#2563eb"></circle><circle class="dot" cx="532.9305135951662" cy="336.90909090909093" r="3" fill="#2563eb"></circle><circle class="dot" cx="535.1057401812689" cy="336.90909090909093" r="3" fill="#2563eb"></circle><circle class="dot" cx="537.2809667673716" cy="336.90909090909093" r="3" fill="#2563eb"></circle><circle class="dot" cx="539.4561933534743" cy="336.90909090909093" r="3" fill="#2563eb"></circle><circle class="dot" cx="541.631419939577" cy="336.90909090909093" r="3" fill="#2563eb"></circle><circle class="dot" cx="543.8066465256798" cy="336.90909090909093" r="3" fill="#2563eb"></circle><circle class="dot" cx="545.9818731117825" cy="336.90909090909093" r="3" fill="#2563eb"></circle><circle class="dot" cx="548.1570996978852" cy="336.90909090909093" r="3" fill="#2563eb"></circle><circle class="dot" cx="550.3323262839879" cy="336.90909090909093" r="3" fill="#2563eb"></circle><circle class="dot" cx="552.5075528700906" cy="336.90909090909093" r="3" fill="#2563eb"></circle><circle class="dot" cx="554.6827794561933" cy="336.90909090909093" r="3" fill="#2563eb"></circle><circle class="dot" cx="556.8580060422961" cy="336.90909090909093" r="3" fill="#2563eb"></circle><circle class="dot" cx="559.0332326283988" cy="336.90909090909093" r="3" fill="#2563eb"></circle><circle class="dot" cx="561.2084592145014" cy="336.90909090909093" r="3" fill="#2563eb"></circle><circle class="dot" cx="563.3836858006042" cy="336.90909090909093" r="3" fill="#2563eb"></circle><circle class="dot" cx="565.558912386707" cy="336.90909090909093" r="3" fill="#2563eb"></circle><circle class="dot" cx="567.7341389728097" cy="336.90909090909093" r="3" fill="#2563eb"></circle><circle class="dot" cx="569.9093655589123" cy="336.90909090909093" r="3" fill="#2563eb"></circle><circle class="dot" cx="572.0845921450151" cy="336.90909090909093" r="3" fill="#2563eb"></circle><circle class="dot" cx="574.2598187311179" cy="336.90909090909093" r="3" fill="#2563eb"></circle><circle class="dot" cx="576.4350453172206" cy="336.90909090909093" r="3" fill="#2563eb"></circle><circle class="dot" cx="578.6102719033232" cy="336.90909090909093" r="3" fill="#2563eb"></circle><circle class="dot" cx="580.7854984894259" cy="336.90909090909093" r="3" fill="#2563eb"></circle><circle class="dot" cx="582.9607250755287" cy="336.90909090909093" r="3" fill="#2563eb"></circle><circle class="dot" cx="585.1359516616315" cy="336.90909090909093" r="3" fill="#2563eb"></circle><circle class="dot" cx="587.3111782477341" cy="336.90909090909093" r="3" fill="#2563eb"></circle><circle class="dot" cx="589.4864048338368" cy="336.90909090909093" r="3" fill="#2563eb"></circle><circle class="dot" cx="591.6616314199396" cy="336.90909090909093" r="3" fill="#2563eb"></circle><circle class="dot" cx="593.8368580060423" cy="336.90909090909093" r="3" fill="#2563eb"></circle><circle class="dot" cx="596.012084592145" cy="336.90909090909093" r="3" fill="#2563eb"></circle><circle class="dot" cx="598.1873111782477" cy="336.90909090909093" r="3" fill="#2563eb"></circle><circle class="dot" cx="600.3625377643505" cy="336.90909090909093" r="3" fill="#2563eb"></circle><circle class="dot" cx="602.5377643504532" cy="336.90909090909093" r="3" fill="#2563eb"></circle><circle class="dot" cx="604.7129909365559" cy="336.90909090909093" r="3" fill="#2563eb"></circle><circle class="dot" cx="606.8882175226586" cy="336.90909090909093" r="3" fill="#2563eb"></circle><circle class="dot" cx="609.0634441087612" cy="336.90909090909093" r="3" fill="#2563eb"></circle><circle class="dot" cx="611.238670694864" cy="336.90909090909093" r="3" fill="#2563eb"></circle><circle class="dot" cx="613.4138972809668" cy="336.90909090909093" r="3" fill="#2563eb"></circle><circle class="dot" cx="615.5891238670695" cy="336.90909090909093" r="3" fill="#2563eb"></circle><circle class="dot" cx="617.7643504531721" cy="336.90909090909093" r="3" fill="#2563eb"></circle><circle class="dot" cx="619.9395770392749" cy="336.90909090909093" r="3" fill="#2563eb"></circle><circle class="dot" cx="622.1148036253777" cy="336.90909090909093" r="3" fill="#2563eb"></circle><circle class="dot" cx="624.2900302114804" cy="336.90909090909093" r="3" fill="#2563eb"></circle><circle class="dot" cx="626.465256797583" cy="336.90909090909093" r="3" fill="#2563eb"></circle><circle class="dot" cx="628.6404833836857" cy="336.90909090909093" r="3" fill="#2563eb"></circle><circle class="dot" cx="630.8157099697885" cy="336.90909090909093" r="3" fill="#2563eb"></circle><circle class="dot" cx="632.9909365558913" cy="336.90909090909093" r="3" fill="#2563eb"></circle><circle class="dot" cx="635.1661631419939" cy="336.90909090909093" r="3" fill="#2563eb"></circle><circle class="dot" cx="637.3413897280966" cy="336.90909090909093" r="3" fill="#2563eb"></circle><circle class="dot" cx="639.5166163141994" cy="336.90909090909093" r="3" fill="#2563eb"></circle><circle class="dot" cx="641.6918429003022" cy="336.90909090909093" r="3" fill="#2563eb"></circle><circle class="dot" cx="643.8670694864048" cy="336.90909090909093" r="3" fill="#2563eb"></circle><circle class="dot" cx="646.0422960725075" cy="336.90909090909093" r="3" fill="#2563eb"></circle><circle class="dot" cx="648.2175226586103" cy="336.90909090909093" r="3" fill="#2563eb"></circle><circle class="dot" cx="650.3927492447131" cy="336.90909090909093" r="3" fill="#2563eb"></circle><circle class="dot" cx="652.5679758308157" cy="336.90909090909093" r="3" fill="#2563eb"></circle><circle class="dot" cx="654.7432024169184" cy="336.90909090909093" r="3" fill="#2563eb"></circle><circle class="dot" cx="656.9184290030211" cy="336.90909090909093" r="3" fill="#2563eb"></circle><circle class="dot" cx="659.0936555891238" cy="336.90909090909093" r="3" fill="#2563eb"></circle><circle class="dot" cx="661.2688821752266" cy="336.90909090909093" r="3" fill="#2563eb"></circle><circle class="dot" cx="663.4441087613293" cy="336.90909090909093" r="3" fill="#2563eb"></circle><circle class="dot" cx="665.619335347432" cy="336.90909090909093" r="3" fill="#2563eb"></circle><circle class="dot" cx="667.7945619335347" cy="336.90909090909093" r="3" fill="#2563eb"></circle><circle class="dot" cx="669.9697885196375" cy="336.90909090909093" r="3" fill="#2563eb"></circle><circle class="dot" cx="672.1450151057402" cy="336.90909090909093" r="3" fill="#2563eb"></circle><circle class="dot" cx="674.3202416918429" cy="336.90909090909093" r="3" fill="#2563eb"></circle><circle class="dot" cx="676.4954682779456" cy="336.90909090909093" r="3" fill="#2563eb"></circle><circle class="dot" cx="678.6706948640484" cy="336.90909090909093" r="3" fill="#2563eb"></circle><circle class="dot" cx="680.8459214501511" cy="336.90909090909093" r="3" fill="#2563eb"></circle><circle class="dot" cx="683.0211480362537" cy="336.90909090909093" r="3" fill="#2563eb"></circle><circle class="dot" cx="685.1963746223564" cy="336.90909090909093" r="3" fill="#2563eb"></circle><circle class="dot" cx="687.3716012084592" cy="336.90909090909093" r="3" fill="#2563eb"></circle><circle class="dot" cx="689.546827794562" cy="336.90909090909093" r="3" fill="#2563eb"></circle><circle class="dot" cx="691.7220543806646" cy="336.90909090909093" r="3" fill="#2563eb"></circle><circle class="dot" cx="693.8972809667673" cy="336.90909090909093" r="3" fill="#2563eb"></circle><circle class="dot" cx="696.0725075528701" cy="336.90909090909093" r="3" fill="#2563eb"></circle><circle class="dot" cx="698.2477341389729" cy="336.90909090909093" r="3" fill="#2563eb"></circle><circle class="dot" cx="700.4229607250755" cy="336.90909090909093" r="3" fill="#2563eb"></circle><circle class="dot" cx="702.5981873111782" cy="336.90909090909093" r="3" fill="#2563eb"></circle><circle class="dot" cx="704.773413897281" cy="336.90909090909093" r="3" fill="#2563eb"></circle><circle class="dot" cx="706.9486404833838" cy="336.90909090909093" r="3" fill="#2563eb"></circle><circle class="dot" cx="709.1238670694864" cy="336.90909090909093" r="3" fill="#2563eb"></circle><circle class="dot" cx="711.2990936555891" cy="336.90909090909093" r="3" fill="#2563eb"></circle><circle class="dot" cx="713.4743202416918" cy="336.90909090909093" r="3" fill="#2563eb"></circle><circle class="dot" cx="715.6495468277946" cy="336.90909090909093" r="3" fill="#2563eb"></circle><circle class="dot" cx="717.8247734138973" cy="336.90909090909093" r="3" fill="#2563eb"></circle><circle class="dot" cx="720" cy="336.90909090909093" r="3" fill="#2563eb"></circle><g class="grid" transform="translate(0,340)" fill="none" font-size="10" font-family="sans-serif" text-anchor="middle" style="stroke-dasharray: 3,3; opacity: 0.3;"><path class="domain" stroke="currentColor" d="M0.5,-340V0.5H720.5V-340"></path><g class="tick" opacity="1" transform="translate(0.5,0)"><line stroke="currentColor" y2="-340"></line><text fill="currentColor" y="3" dy="0.71em"></text></g><g class="tick" opacity="1" transform="translate(52.70543806646526,0)"><line stroke="currentColor" y2="-340"></line><text fill="currentColor" y="3" dy="0.71em"></text></g><g class="tick" opacity="1" transform="translate(104.91087613293053,0)"><line stroke="currentColor" y2="-340"></line><text fill="currentColor" y="3" dy="0.71em"></text></g><g class="tick" opacity="1" transform="translate(157.11631419939576,0)"><line stroke="currentColor" y2="-340"></line><text fill="currentColor" y="3" dy="0.71em"></text></g><g class="tick" opacity="1" transform="translate(209.32175226586105,0)"><line stroke="currentColor" y2="-340"></line><text fill="currentColor" y="3" dy="0.71em"></text></g><g class="tick" opacity="1" transform="translate(261.52719033232626,0)"><line stroke="currentColor" y2="-340"></line><text fill="currentColor" y="3" dy="0.71em"></text></g><g class="tick" opacity="1" transform="translate(313.7326283987915,0)"><line stroke="currentColor" y2="-340"></line><text fill="currentColor" y="3" dy="0.71em"></text></g><g class="tick" opacity="1" transform="translate(365.9380664652568,0)"><line stroke="currentColor" y2="-340"></line><text fill="currentColor" y="3" dy="0.71em"></text></g><g class="tick" opacity="1" transform="translate(418.1435045317221,0)"><line stroke="currentColor" y2="-340"></line><text fill="currentColor" y="3" dy="0.71em"></text></g><g class="tick" opacity="1" transform="translate(470.3489425981873,0)"><line stroke="currentColor" y2="-340"></line><text fill="currentColor" y="3" dy="0.71em"></text></g><g class="tick" opacity="1" transform="translate(522.5543806646525,0)"><line stroke="currentColor" y2="-340"></line><text fill="currentColor" y="3" dy="0.71em"></text></g><g class="tick" opacity="1" transform="translate(574.7598187311179,0)"><line stroke="currentColor" y2="-340"></line><text fill="currentColor" y="3" dy="0.71em"></text></g><g class="tick" opacity="1" transform="translate(626.965256797583,0)"><line stroke="currentColor" y2="-340"></line><text fill="currentColor" y="3" dy="0.71em"></text></g><g class="tick" opacity="1" transform="translate(679.1706948640484,0)"><line stroke="currentColor" y2="-340"></line><text fill="currentColor" y="3" dy="0.71em"></text></g></g><g class="grid" fill="none" font-size="10" font-family="sans-serif" text-anchor="end" style="stroke-dasharray: 3,3; opacity: 0.3;"><path class="domain" stroke="currentColor" d="M720,340.5H0.5V0.5H720"></path><g class="tick" opacity="1" transform="translate(0,340.5)"><line stroke="currentColor" x2="720"></line><text fill="currentColor" x="-3" dy="0.32em"></text></g><g class="tick" opacity="1" transform="translate(0,309.59090909090907)"><line stroke="currentColor" x2="720"></line><text fill="currentColor" x="-3" dy="0.32em"></text></g><g class="tick" opacity="1" transform="translate(0,278.6818181818182)"><line stroke="currentColor" x2="720"></line><text fill="currentColor" x="-3" dy="0.32em"></text></g><g class="tick" opacity="1" transform="translate(0,247.77272727272728)"><line stroke="currentColor" x2="720"></line><text fill="currentColor" x="-3" dy="0.32em"></text></g><g class="tick" opacity="1" transform="translate(0,216.86363636363637)"><line stroke="currentColor" x2="720"></line><text fill="currentColor" x="-3" dy="0.32em"></text></g><g class="tick" opacity="1" transform="translate(0,185.95454545454544)"><line stroke="currentColor" x2="720"></line><text fill="currentColor" x="-3" dy="0.32em"></text></g><g class="tick" opacity="1" transform="translate(0,155.04545454545456)"><line stroke="currentColor" x2="720"></line><text fill="currentColor" x="-3" dy="0.32em"></text></g><g class="tick" opacity="1" transform="translate(0,124.13636363636368)"><line stroke="currentColor" x2="720"></line><text fill="currentColor" x="-3" dy="0.32em"></text></g><g class="tick" opacity="1" transform="translate(0,93.22727272727272)"><line stroke="currentColor" x2="720"></line><text fill="currentColor" x="-3" dy="0.32em"></text></g><g class="tick" opacity="1" transform="translate(0,62.31818181818184)"><line stroke="currentColor" x2="720"></line><text fill="currentColor" x="-3" dy="0.32em"></text></g><g class="tick" opacity="1" transform="translate(0,31.40909090909092)"><line stroke="currentColor" x2="720"></line><text fill="currentColor" x="-3" dy="0.32em"></text></g><g class="tick" opacity="1" transform="translate(0,0.5)"><line stroke="currentColor" x2="720"></line><text fill="currentColor" x="-3" dy="0.32em"></text></g></g></g><text x="400" y="10" text-anchor="middle" style="font-size: 16px; font-weight: bold; fill: #333;">OKX USDT Lending Rate - Current Month</text></svg>