<svg width="800" height="400" xmlns="http://www.w3.org/2000/svg"><g transform="translate(50,20)"><g transform="translate(0,340)" fill="none" font-size="10" font-family="sans-serif" text-anchor="middle"><path class="domain" stroke="currentColor" d="M0.5,6V0.5H720.5V6"></path><g class="tick" opacity="1" transform="translate(0.5,0)"><line stroke="currentColor" y2="6"></line><text fill="currentColor" y="9" dy=".15em" style="text-anchor: end;" dx="-.8em" transform="rotate(-45)">02/01</text></g><g class="tick" opacity="1" transform="translate(52.391891891891895,0)"><line stroke="currentColor" y2="6"></line><text fill="currentColor" y="9" dy=".15em" style="text-anchor: end;" dx="-.8em" transform="rotate(-45)">02/02</text></g><g class="tick" opacity="1" transform="translate(104.28378378378379,0)"><line stroke="currentColor" y2="6"></line><text fill="currentColor" y="9" dy=".15em" style="text-anchor: end;" dx="-.8em" transform="rotate(-45)">02/03</text></g><g class="tick" opacity="1" transform="translate(156.17567567567568,0)"><line stroke="currentColor" y2="6"></line><text fill="currentColor" y="9" dy=".15em" style="text-anchor: end;" dx="-.8em" transform="rotate(-45)">02/04</text></g><g class="tick" opacity="1" transform="translate(208.06756756756758,0)"><line stroke="currentColor" y2="6"></line><text fill="currentColor" y="9" dy=".15em" style="text-anchor: end;" dx="-.8em" transform="rotate(-45)">02/05</text></g><g class="tick" opacity="1" transform="translate(259.9594594594594,0)"><line stroke="currentColor" y2="6"></line><text fill="currentColor" y="9" dy=".15em" style="text-anchor: end;" dx="-.8em" transform="rotate(-45)">02/06</text></g><g class="tick" opacity="1" transform="translate(311.85135135135135,0)"><line stroke="currentColor" y2="6"></line><text fill="currentColor" y="9" dy=".15em" style="text-anchor: end;" dx="-.8em" transform="rotate(-45)">02/07</text></g><g class="tick" opacity="1" transform="translate(363.7432432432432,0)"><line stroke="currentColor" y2="6"></line><text fill="currentColor" y="9" dy=".15em" style="text-anchor: end;" dx="-.8em" transform="rotate(-45)">02/08</text></g><g class="tick" opacity="1" transform="translate(415.63513513513516,0)"><line stroke="currentColor" y2="6"></line><text fill="currentColor" y="9" dy=".15em" style="text-anchor: end;" dx="-.8em" transform="rotate(-45)">02/09</text></g><g class="tick" opacity="1" transform="translate(467.52702702702703,0)"><line stroke="currentColor" y2="6"></line><text fill="currentColor" y="9" dy=".15em" style="text-anchor: end;" dx="-.8em" transform="rotate(-45)">02/10</text></g><g class="tick" opacity="1" transform="translate(519.4189189189188,0)"><line stroke="currentColor" y2="6"></line><text fill="currentColor" y="9" dy=".15em" style="text-anchor: end;" dx="-.8em" transform="rotate(-45)">02/11</text></g><g class="tick" opacity="1" transform="translate(571.3108108108108,0)"><line stroke="currentColor" y2="6"></line><text fill="currentColor" y="9" dy=".15em" style="text-anchor: end;" dx="-.8em" transform="rotate(-45)">02/12</text></g><g class="tick" opacity="1" transform="translate(623.2027027027027,0)"><line stroke="currentColor" y2="6"></line><text fill="currentColor" y="9" dy=".15em" style="text-anchor: end;" dx="-.8em" transform="rotate(-45)">02/13</text></g><g class="tick" opacity="1" transform="translate(675.0945945945946,0)"><line stroke="currentColor" y2="6"></line><text fill="currentColor" y="9" dy=".15em" style="text-anchor: end;" dx="-.8em" transform="rotate(-45)">02/14</text></g></g><g fill="none" font-size="10" font-family="sans-serif" text-anchor="end"><path class="domain" stroke="currentColor" d="M-6,340.5H0.5V0.5H-6"></path><g class="tick" opacity="1" transform="translate(0,340.5)"><line stroke="currentColor" x2="-6"></line><text fill="currentColor" x="-9" dy="0.32em">3.00%</text></g><g class="tick" opacity="1" transform="translate(0,297.99999999999994)"><line stroke="currentColor" x2="-6"></line><text fill="currentColor" x="-9" dy="0.32em">3.10%</text></g><g class="tick" opacity="1" transform="translate(0,255.49999999999991)"><line stroke="currentColor" x2="-6"></line><text fill="currentColor" x="-9" dy="0.32em">3.20%</text></g><g class="tick" opacity="1" transform="translate(0,212.9999999999999)"><line stroke="currentColor" x2="-6"></line><text fill="currentColor" x="-9" dy="0.32em">3.30%</text></g><g class="tick" opacity="1" transform="translate(0,170.49999999999986)"><line stroke="currentColor" x2="-6"></line><text fill="currentColor" x="-9" dy="0.32em">3.40%</text></g><g class="tick" opacity="1" transform="translate(0,127.99999999999982)"><line stroke="currentColor" x2="-6"></line><text fill="currentColor" x="-9" dy="0.32em">3.50%</text></g><g class="tick" opacity="1" transform="translate(0,85.50000000000007)"><line stroke="currentColor" x2="-6"></line><text fill="currentColor" x="-9" dy="0.32em">3.60%</text></g><g class="tick" opacity="1" transform="translate(0,43.000000000000036)"><line stroke="currentColor" x2="-6"></line><text fill="currentColor" x="-9" dy="0.32em">3.70%</text></g><g class="tick" opacity="1" transform="translate(0,0.5)"><line stroke="currentColor" x2="-6"></line><text fill="currentColor" x="-9" dy="0.32em">3.80%</text></g></g><text transform="rotate(-90)" y="-50" x="-170" dy="1em" style="text-anchor: middle; font-size: 12px; fill: #666;">Pre Rate (%)</text><text transform="translate(360, 380)" style="text-anchor: middle; font-size: 12px; fill: #666;">Time (UTC)</text><path fill="none" stroke="#2563eb" stroke-width="2" d="M0,0C0.721,0,1.441,0,2.162,0C2.883,0,3.604,0,4.324,0C5.045,0,5.766,0,6.486,0C7.207,0,7.928,0,8.649,0C9.369,0,10.09,0,10.811,0C11.532,0,12.252,0,12.973,0C13.694,0,14.414,0,15.135,0C15.856,0,16.577,0,17.297,0C18.018,0,18.739,0,19.459,0C20.18,0,20.901,0,21.622,0C22.342,0,23.063,0,23.784,0C24.505,0,25.225,0,25.946,0C26.667,0,27.387,0,28.108,0C28.829,0,29.55,0,30.27,0C30.991,0,31.712,0,32.432,0C33.153,0,33.874,0,34.595,0C35.315,0,36.036,0,36.757,0C37.477,0,38.198,0,38.919,0C39.64,0,40.36,0,41.081,0C41.802,0,42.523,0,43.243,0C43.964,0,44.685,0,45.405,0C46.126,0,46.847,0,47.568,0C48.288,0,49.009,0,49.73,0C50.45,0,51.171,0,51.892,0C52.613,0,53.333,0,54.054,0C54.775,0,55.495,0,56.216,0C56.937,0,57.658,0,58.378,0C59.099,0,59.82,0,60.541,0C61.261,0,61.982,0,62.703,0C63.423,0,64.144,0,64.865,0C65.586,0,66.306,0,67.027,0C67.748,0,68.468,0,69.189,0C69.91,0,70.631,0,71.351,0C72.072,0,72.793,0,73.514,0C74.234,0,74.955,0,75.676,0C76.396,0,77.117,0,77.838,0C78.559,0,79.279,0,80,0C80.721,0,81.441,0,82.162,0C82.883,0,83.604,0,84.324,0C85.045,0,85.766,0,86.486,0C87.207,0,87.928,0,88.649,0C89.369,0,90.09,0,90.811,0C91.532,0,92.252,0,92.973,0C93.694,0,94.414,0,95.135,0C95.856,0,96.577,0,97.297,0C98.018,0,98.739,0,99.459,0C100.18,0,100.901,0,101.622,0C102.342,0,103.063,0,103.784,0C104.505,0,105.225,0,105.946,0C106.667,0,107.387,0,108.108,0C108.829,0,109.55,0,110.27,0C110.991,0,111.712,0,112.432,0C113.153,0,113.874,0,114.595,0C115.315,0,116.036,0,116.757,0C117.477,0,118.198,0,118.919,0C119.64,0,120.36,0,121.081,0C121.802,0,122.523,0,123.243,0C123.964,0,124.685,0,125.405,0C126.126,0,126.847,0,127.568,0C128.288,0,129.009,0,129.73,0C130.45,0,131.171,0,131.892,0C132.613,0,133.333,0,134.054,0C134.775,0,135.495,0,136.216,0C136.937,0,137.658,0,138.378,0C139.099,0,139.82,0,140.541,0C141.261,0,141.982,0,142.703,0C143.423,0,144.144,0,144.865,0C145.586,0,146.306,0,147.027,0C147.748,0,148.468,0,149.189,0C149.91,0,150.631,0,151.351,0C152.072,0,152.793,0,153.514,0C154.234,0,154.955,0,155.676,0C156.396,0,157.117,0,157.838,0C158.559,0,159.279,0,160,0C160.721,0,161.441,0,162.162,0C162.883,0,163.604,0,164.324,0C165.045,0,165.766,0,166.486,0C167.207,0,167.928,0,168.649,0C169.369,0,170.09,0,170.811,0C171.532,0,172.252,0,172.973,0C173.694,0,174.414,0,175.135,0C175.856,0,176.577,0,177.297,0C178.018,0,178.739,0,179.459,0C180.18,0,180.901,0,181.622,0C182.342,0,183.063,0,183.784,0C184.505,0,185.225,127.5,185.946,127.5C186.667,127.5,187.387,127.5,188.108,127.5C188.829,127.5,189.55,127.5,190.27,127.5C190.991,127.5,191.712,127.5,192.432,127.5C193.153,127.5,193.874,127.5,194.595,127.5C195.315,127.5,196.036,127.5,196.757,127.5C197.477,127.5,198.198,127.5,198.919,127.5C199.64,127.5,200.36,127.5,201.081,127.5C201.802,127.5,202.523,127.5,203.243,127.5C203.964,127.5,204.685,127.5,205.405,127.5C206.126,127.5,206.847,127.5,207.568,127.5C208.288,127.5,209.009,127.5,209.73,127.5C210.45,127.5,211.171,127.5,211.892,127.5C212.613,127.5,213.333,127.5,214.054,127.5C214.775,127.5,215.495,127.5,216.216,127.5C216.937,127.5,217.658,127.5,218.378,127.5C219.099,127.5,219.82,127.5,220.541,127.5C221.261,127.5,221.982,127.5,222.703,127.5C223.423,127.5,224.144,127.5,224.865,127.5C225.586,127.5,226.306,127.5,227.027,127.5C227.748,127.5,228.468,127.5,229.189,127.5C229.91,127.5,230.631,127.5,231.351,127.5C232.072,127.5,232.793,127.5,233.514,127.5C234.234,127.5,234.955,127.5,235.676,127.5C236.396,127.5,237.117,127.5,237.838,127.5C238.559,127.5,239.279,127.5,240,127.5C240.721,127.5,241.441,127.5,242.162,127.5C242.883,127.5,243.604,127.5,244.324,127.5C245.045,127.5,245.766,127.5,246.486,127.5C247.207,127.5,247.928,127.5,248.649,127.5C249.369,127.5,250.09,127.5,250.811,127.5C251.532,127.5,252.252,127.5,252.973,127.5C253.694,127.5,254.414,127.5,255.135,127.5C255.856,127.5,256.577,127.5,257.297,127.5C258.018,127.5,258.739,127.5,259.459,127.5C260.18,127.5,260.901,127.5,261.622,127.5C262.342,127.5,263.063,127.5,263.784,127.5C264.505,127.5,265.225,127.5,265.946,127.5C266.667,127.5,267.387,127.5,268.108,127.5C268.829,127.5,269.55,127.5,270.27,127.5C270.991,127.5,271.712,127.5,272.432,127.5C273.153,127.5,273.874,127.5,274.595,127.5C275.315,127.5,276.036,127.5,276.757,127.5C277.477,127.5,278.198,127.5,278.919,127.5C279.64,127.5,280.36,127.5,281.081,127.5C281.802,127.5,282.523,127.5,283.243,127.5C283.964,127.5,284.685,127.5,285.405,127.5C286.126,127.5,286.847,127.5,287.568,127.5C288.288,127.5,289.009,127.5,289.73,127.5C290.45,127.5,291.171,127.5,291.892,127.5C292.613,127.5,293.333,127.5,294.054,127.5C294.775,127.5,295.495,127.5,296.216,127.5C296.937,127.5,297.658,127.5,298.378,127.5C299.099,127.5,299.82,127.5,300.541,127.5C301.261,127.5,301.982,127.5,302.703,127.5C303.423,127.5,304.144,127.5,304.865,127.5C305.586,127.5,306.306,127.5,307.027,127.5C307.748,127.5,308.468,127.5,309.189,127.5C309.91,127.5,310.631,127.5,311.351,127.5C312.072,127.5,312.793,127.5,313.514,127.5C314.234,127.5,314.955,127.5,315.676,127.5C316.396,127.5,317.117,127.5,317.838,127.5C318.559,127.5,319.279,127.5,320,127.5C320.721,127.5,321.441,127.5,322.162,127.5C322.883,127.5,323.604,127.5,324.324,127.5C325.045,127.5,325.766,127.5,326.486,127.5C327.207,127.5,327.928,127.5,328.649,127.5C329.369,127.5,330.09,127.5,330.811,127.5C331.532,127.5,332.252,127.5,332.973,127.5C333.694,127.5,334.414,127.5,335.135,127.5C335.856,127.5,336.577,127.5,337.297,127.5C338.018,127.5,338.739,127.5,339.459,127.5C340.18,127.5,340.901,127.5,341.622,127.5C342.342,127.5,343.063,127.5,343.784,127.5C344.505,127.5,345.225,127.5,345.946,127.5C346.667,127.5,347.387,127.5,348.108,127.5C348.829,127.5,349.55,127.5,350.27,127.5C350.991,127.5,351.712,127.5,352.432,127.5C353.153,127.5,353.874,127.5,354.595,127.5C355.315,127.5,356.036,127.5,356.757,127.5C357.477,127.5,358.198,127.5,358.919,127.5C359.64,127.5,360.36,127.5,361.081,127.5C361.802,127.5,362.523,127.5,363.243,127.5C363.964,127.5,364.685,127.5,365.405,127.5C366.126,127.5,366.847,127.5,367.568,127.5C368.288,127.5,369.009,127.5,369.73,127.5C370.45,127.5,371.171,127.5,371.892,127.5C372.613,127.5,373.333,127.5,374.054,127.5C374.775,127.5,375.495,127.5,376.216,127.5C376.937,127.5,377.658,127.5,378.378,127.5C379.099,127.5,379.82,127.5,380.541,127.5C381.261,127.5,381.982,127.5,382.703,127.5C383.423,127.5,384.144,127.5,384.865,127.5C385.586,127.5,386.306,127.5,387.027,127.5C387.748,127.5,388.468,127.5,389.189,127.5C389.91,127.5,390.631,127.5,391.351,127.5C392.072,127.5,392.793,127.5,393.514,127.5C394.234,127.5,394.955,127.5,395.676,127.5C396.396,127.5,397.117,127.5,397.838,127.5C398.559,127.5,399.279,127.5,400,127.5C400.721,127.5,401.441,127.5,402.162,127.5C402.883,127.5,403.604,127.5,404.324,127.5C405.045,127.5,405.766,127.5,406.486,127.5C407.207,127.5,407.928,127.5,408.649,127.5C409.369,127.5,410.09,127.5,410.811,127.5C411.532,127.5,412.252,127.5,412.973,127.5C413.694,127.5,414.414,127.5,415.135,127.5C415.856,127.5,416.577,127.5,417.297,127.5C418.018,127.5,418.739,127.5,419.459,127.5C420.18,127.5,420.901,127.5,421.622,127.5C422.342,127.5,423.063,127.5,423.784,127.5C424.505,127.5,425.225,127.5,425.946,127.5C426.667,127.5,427.387,127.5,428.108,127.5C428.829,127.5,429.55,127.5,430.27,127.5C430.991,127.5,431.712,127.5,432.432,127.5C433.153,127.5,433.874,127.5,434.595,127.5C435.315,127.5,436.036,127.5,436.757,127.5C437.477,127.5,438.198,127.5,438.919,127.5C439.64,127.5,440.36,127.5,441.081,127.5C441.802,127.5,442.523,127.5,443.243,127.5C443.964,127.5,444.685,127.5,445.405,127.5C446.126,127.5,446.847,127.5,447.568,127.5C448.288,127.5,449.009,127.5,449.73,127.5C450.45,127.5,451.171,127.5,451.892,127.5C452.613,127.5,453.333,127.5,454.054,127.5C454.775,127.5,455.495,127.5,456.216,127.5C456.937,127.5,457.658,127.5,458.378,127.5C459.099,127.5,459.82,127.5,460.541,127.5C461.261,127.5,461.982,127.5,462.703,127.5C463.423,127.5,464.144,127.5,464.865,127.5C465.586,127.5,466.306,127.5,467.027,127.5C467.748,127.5,468.468,127.5,469.189,127.5C469.91,127.5,470.631,127.5,471.351,127.5C472.072,127.5,472.793,127.5,473.514,127.5C474.234,127.5,474.955,127.5,475.676,127.5C476.396,127.5,477.117,127.5,477.838,127.5C478.559,127.5,479.279,127.5,480,127.5C480.721,127.5,481.441,127.5,482.162,127.5C482.883,127.5,483.604,127.5,484.324,127.5C485.045,127.5,485.766,127.5,486.486,127.5C487.207,127.5,487.928,127.5,488.649,127.5C489.369,127.5,490.09,127.5,490.811,127.5C491.532,127.5,492.252,127.5,492.973,127.5C493.694,127.5,494.414,127.5,495.135,127.5C495.856,127.5,496.577,127.5,497.297,127.5C498.018,127.5,498.739,127.5,499.459,127.5C500.18,127.5,500.901,127.5,501.622,127.5C502.342,127.5,503.063,127.5,503.784,127.5C504.505,127.5,505.225,127.5,505.946,127.5C506.667,127.5,507.387,127.5,508.108,127.5C508.829,127.5,509.55,127.5,510.27,127.5C510.991,127.5,511.712,127.5,512.432,127.5C513.153,127.5,513.874,127.5,514.595,127.5C515.315,127.5,516.036,127.5,516.757,127.5C517.477,127.5,518.198,127.5,518.919,127.5C519.64,127.5,520.36,127.5,521.081,127.5C521.802,127.5,522.523,127.5,523.243,127.5C523.964,127.5,524.685,127.5,525.405,127.5C526.126,127.5,526.847,127.5,527.568,127.5C528.288,127.5,529.009,127.5,529.73,127.5C530.45,127.5,531.171,127.5,531.892,127.5C532.613,127.5,533.333,127.5,534.054,127.5C534.775,127.5,535.495,127.5,536.216,127.5C536.937,127.5,537.658,127.5,538.378,127.5C539.099,127.5,539.82,127.5,540.541,127.5C541.261,127.5,541.982,127.5,542.703,127.5C543.423,127.5,544.144,127.5,544.865,127.5C545.586,127.5,546.306,127.5,547.027,127.5C547.748,127.5,548.468,127.5,549.189,127.5C549.91,127.5,550.631,127.5,551.351,127.5C552.072,127.5,552.793,127.5,553.514,127.5C554.234,127.5,554.955,127.5,555.676,127.5C556.396,127.5,557.117,127.5,557.838,127.5C558.559,127.5,559.279,127.5,560,127.5C560.721,127.5,561.441,127.5,562.162,127.5C562.883,127.5,563.604,127.5,564.324,127.5C565.045,127.5,565.766,127.5,566.486,127.5C567.207,127.5,567.928,127.5,568.649,127.5C569.369,127.5,570.09,127.5,570.811,127.5C571.532,127.5,572.252,127.5,572.973,127.5C573.694,127.5,574.414,127.5,575.135,127.5C575.856,127.5,576.577,127.5,577.297,127.5C578.018,127.5,578.739,340,579.459,340C580.18,340,580.901,340,581.622,340C582.342,340,583.063,340,583.784,340C584.505,340,585.225,340,585.946,340C586.667,340,587.387,340,588.108,340C588.829,340,589.55,340,590.27,340C590.991,340,591.712,340,592.432,340C593.153,340,593.874,340,594.595,340C595.315,340,596.036,340,596.757,340C597.477,340,598.198,340,598.919,340C599.64,340,600.36,340,601.081,340C601.802,340,602.523,340,603.243,340C603.964,340,604.685,340,605.405,340C606.126,340,606.847,340,607.568,340C608.288,340,609.009,340,609.73,340C610.45,340,611.171,340,611.892,340C612.613,340,613.333,340,614.054,340C614.775,340,615.495,340,616.216,340C616.937,340,617.658,340,618.378,340C619.099,340,619.82,340,620.541,340C621.261,340,621.982,340,622.703,340C623.423,340,624.144,340,624.865,340C625.586,340,626.306,340,627.027,340C627.748,340,628.468,340,629.189,340C629.91,340,630.631,340,631.351,340C632.072,340,632.793,340,633.514,340C634.234,340,634.955,340,635.676,340C636.396,340,637.117,340,637.838,340C638.559,340,639.279,340,640,340C640.721,340,641.441,340,642.162,340C642.883,340,643.604,340,644.324,340C645.045,340,645.766,340,646.486,340C647.207,340,647.928,340,648.649,340C649.369,340,650.09,340,650.811,340C651.532,340,652.252,340,652.973,340C653.694,340,654.414,340,655.135,340C655.856,340,656.577,340,657.297,340C658.018,340,658.739,340,659.459,340C660.18,340,660.901,340,661.622,340C662.342,340,663.063,340,663.784,340C664.505,340,665.225,340,665.946,340C666.667,340,667.387,340,668.108,340C668.829,340,669.55,340,670.27,340C670.991,340,671.712,340,672.432,340C673.153,340,673.874,340,674.595,340C675.315,340,676.036,340,676.757,340C677.477,340,678.198,340,678.919,340C679.64,340,680.36,340,681.081,340C681.802,340,682.523,340,683.243,340C683.964,340,684.685,340,685.405,340C686.126,340,686.847,340,687.568,340C688.288,340,689.009,340,689.73,340C690.45,340,691.171,340,691.892,340C692.613,340,693.333,340,694.054,340C694.775,340,695.495,340,696.216,340C696.937,340,697.658,340,698.378,340C699.099,340,699.82,340,700.541,340C701.261,340,701.982,340,702.703,340C703.423,340,704.144,340,704.865,340C705.586,340,706.306,340,707.027,340C707.748,340,708.468,340,709.189,340C709.91,340,710.631,340,711.351,340C712.072,340,712.793,340,713.514,340C714.234,340,714.955,340,715.676,340C716.396,340,717.117,340,717.838,340C718.559,340,719.279,340,720,340"></path><circle class="dot" cx="0" cy="0" r="3" fill="#2563eb"></circle><circle class="dot" cx="2.1621621621621623" cy="0" r="3" fill="#2563eb"></circle><circle class="dot" cx="4.324324324324325" cy="0" r="3" fill="#2563eb"></circle><circle class="dot" cx="6.486486486486487" cy="0" r="3" fill="#2563eb"></circle><circle class="dot" cx="8.64864864864865" cy="0" r="3" fill="#2563eb"></circle><circle class="dot" cx="10.81081081081081" cy="0" r="3" fill="#2563eb"></circle><circle class="dot" cx="12.972972972972974" cy="0" r="3" fill="#2563eb"></circle><circle class="dot" cx="15.135135135135137" cy="0" r="3" fill="#2563eb"></circle><circle class="dot" cx="17.2972972972973" cy="0" r="3" fill="#2563eb"></circle><circle class="dot" cx="19.45945945945946" cy="0" r="3" fill="#2563eb"></circle><circle class="dot" cx="21.62162162162162" cy="0" r="3" fill="#2563eb"></circle><circle class="dot" cx="23.783783783783782" cy="0" r="3" fill="#2563eb"></circle><circle class="dot" cx="25.945945945945947" cy="0" r="3" fill="#2563eb"></circle><circle class="dot" cx="28.10810810810811" cy="0" r="3" fill="#2563eb"></circle><circle class="dot" cx="30.270270270270274" cy="0" r="3" fill="#2563eb"></circle><circle class="dot" cx="32.43243243243243" cy="0" r="3" fill="#2563eb"></circle><circle class="dot" cx="34.5945945945946" cy="0" r="3" fill="#2563eb"></circle><circle class="dot" cx="36.75675675675676" cy="0" r="3" fill="#2563eb"></circle><circle class="dot" cx="38.91891891891892" cy="0" r="3" fill="#2563eb"></circle><circle class="dot" cx="41.08108108108108" cy="0" r="3" fill="#2563eb"></circle><circle class="dot" cx="43.24324324324324" cy="0" r="3" fill="#2563eb"></circle><circle class="dot" cx="45.4054054054054" cy="0" r="3" fill="#2563eb"></circle><circle class="dot" cx="47.567567567567565" cy="0" r="3" fill="#2563eb"></circle><circle class="dot" cx="49.729729729729726" cy="0" r="3" fill="#2563eb"></circle><circle class="dot" cx="51.891891891891895" cy="0" r="3" fill="#2563eb"></circle><circle class="dot" cx="54.054054054054056" cy="0" r="3" fill="#2563eb"></circle><circle class="dot" cx="56.21621621621622" cy="0" r="3" fill="#2563eb"></circle><circle class="dot" cx="58.37837837837838" cy="0" r="3" fill="#2563eb"></circle><circle class="dot" cx="60.54054054054055" cy="0" r="3" fill="#2563eb"></circle><circle class="dot" cx="62.7027027027027" cy="0" r="3" fill="#2563eb"></circle><circle class="dot" cx="64.86486486486486" cy="0" r="3" fill="#2563eb"></circle><circle class="dot" cx="67.02702702702703" cy="0" r="3" fill="#2563eb"></circle><circle class="dot" cx="69.1891891891892" cy="0" r="3" fill="#2563eb"></circle><circle class="dot" cx="71.35135135135135" cy="0" r="3" fill="#2563eb"></circle><circle class="dot" cx="73.51351351351352" cy="0" r="3" fill="#2563eb"></circle><circle class="dot" cx="75.67567567567568" cy="0" r="3" fill="#2563eb"></circle><circle class="dot" cx="77.83783783783784" cy="0" r="3" fill="#2563eb"></circle><circle class="dot" cx="80" cy="0" r="3" fill="#2563eb"></circle><circle class="dot" cx="82.16216216216216" cy="0" r="3" fill="#2563eb"></circle><circle class="dot" cx="84.32432432432432" cy="0" r="3" fill="#2563eb"></circle><circle class="dot" cx="86.48648648648648" cy="0" r="3" fill="#2563eb"></circle><circle class="dot" cx="88.64864864864865" cy="0" r="3" fill="#2563eb"></circle><circle class="dot" cx="90.8108108108108" cy="0" r="3" fill="#2563eb"></circle><circle class="dot" cx="92.97297297297298" cy="0" r="3" fill="#2563eb"></circle><circle class="dot" cx="95.13513513513513" cy="0" r="3" fill="#2563eb"></circle><circle class="dot" cx="97.2972972972973" cy="0" r="3" fill="#2563eb"></circle><circle class="dot" cx="99.45945945945945" cy="0" r="3" fill="#2563eb"></circle><circle class="dot" cx="101.62162162162163" cy="0" r="3" fill="#2563eb"></circle><circle class="dot" cx="103.78378378378379" cy="0" r="3" fill="#2563eb"></circle><circle class="dot" cx="105.94594594594594" cy="0" r="3" fill="#2563eb"></circle><circle class="dot" cx="108.10810810810811" cy="0" r="3" fill="#2563eb"></circle><circle class="dot" cx="110.27027027027026" cy="0" r="3" fill="#2563eb"></circle><circle class="dot" cx="112.43243243243244" cy="0" r="3" fill="#2563eb"></circle><circle class="dot" cx="114.5945945945946" cy="0" r="3" fill="#2563eb"></circle><circle class="dot" cx="116.75675675675676" cy="0" r="3" fill="#2563eb"></circle><circle class="dot" cx="118.91891891891892" cy="0" r="3" fill="#2563eb"></circle><circle class="dot" cx="121.0810810810811" cy="0" r="3" fill="#2563eb"></circle><circle class="dot" cx="123.24324324324324" cy="0" r="3" fill="#2563eb"></circle><circle class="dot" cx="125.4054054054054" cy="0" r="3" fill="#2563eb"></circle><circle class="dot" cx="127.56756756756756" cy="0" r="3" fill="#2563eb"></circle><circle class="dot" cx="129.7297297297297" cy="0" r="3" fill="#2563eb"></circle><circle class="dot" cx="131.8918918918919" cy="0" r="3" fill="#2563eb"></circle><circle class="dot" cx="134.05405405405406" cy="0" r="3" fill="#2563eb"></circle><circle class="dot" cx="136.21621621621622" cy="0" r="3" fill="#2563eb"></circle><circle class="dot" cx="138.3783783783784" cy="0" r="3" fill="#2563eb"></circle><circle class="dot" cx="140.54054054054052" cy="0" r="3" fill="#2563eb"></circle><circle class="dot" cx="142.7027027027027" cy="0" r="3" fill="#2563eb"></circle><circle class="dot" cx="144.86486486486487" cy="0" r="3" fill="#2563eb"></circle><circle class="dot" cx="147.02702702702703" cy="0" r="3" fill="#2563eb"></circle><circle class="dot" cx="149.1891891891892" cy="0" r="3" fill="#2563eb"></circle><circle class="dot" cx="151.35135135135135" cy="0" r="3" fill="#2563eb"></circle><circle class="dot" cx="153.51351351351352" cy="0" r="3" fill="#2563eb"></circle><circle class="dot" cx="155.67567567567568" cy="0" r="3" fill="#2563eb"></circle><circle class="dot" cx="157.83783783783784" cy="0" r="3" fill="#2563eb"></circle><circle class="dot" cx="160" cy="0" r="3" fill="#2563eb"></circle><circle class="dot" cx="162.16216216216216" cy="0" r="3" fill="#2563eb"></circle><circle class="dot" cx="164.32432432432432" cy="0" r="3" fill="#2563eb"></circle><circle class="dot" cx="166.48648648648648" cy="0" r="3" fill="#2563eb"></circle><circle class="dot" cx="168.64864864864865" cy="0" r="3" fill="#2563eb"></circle><circle class="dot" cx="170.8108108108108" cy="0" r="3" fill="#2563eb"></circle><circle class="dot" cx="172.97297297297297" cy="0" r="3" fill="#2563eb"></circle><circle class="dot" cx="175.13513513513516" cy="0" r="3" fill="#2563eb"></circle><circle class="dot" cx="177.2972972972973" cy="0" r="3" fill="#2563eb"></circle><circle class="dot" cx="179.45945945945945" cy="0" r="3" fill="#2563eb"></circle><circle class="dot" cx="181.6216216216216" cy="0" r="3" fill="#2563eb"></circle><circle class="dot" cx="183.7837837837838" cy="0" r="3" fill="#2563eb"></circle><circle class="dot" cx="185.94594594594597" cy="127.49999999999982" r="3" fill="#2563eb"></circle><circle class="dot" cx="188.1081081081081" cy="127.49999999999982" r="3" fill="#2563eb"></circle><circle class="dot" cx="190.27027027027026" cy="127.49999999999982" r="3" fill="#2563eb"></circle><circle class="dot" cx="192.43243243243245" cy="127.49999999999982" r="3" fill="#2563eb"></circle><circle class="dot" cx="194.5945945945946" cy="127.49999999999982" r="3" fill="#2563eb"></circle><circle class="dot" cx="196.75675675675677" cy="127.49999999999982" r="3" fill="#2563eb"></circle><circle class="dot" cx="198.9189189189189" cy="127.49999999999982" r="3" fill="#2563eb"></circle><circle class="dot" cx="201.08108108108107" cy="127.49999999999982" r="3" fill="#2563eb"></circle><circle class="dot" cx="203.24324324324326" cy="127.49999999999982" r="3" fill="#2563eb"></circle><circle class="dot" cx="205.40540540540542" cy="127.49999999999982" r="3" fill="#2563eb"></circle><circle class="dot" cx="207.56756756756758" cy="127.49999999999982" r="3" fill="#2563eb"></circle><circle class="dot" cx="209.7297297297297" cy="127.49999999999982" r="3" fill="#2563eb"></circle><circle class="dot" cx="211.89189189189187" cy="127.49999999999982" r="3" fill="#2563eb"></circle><circle class="dot" cx="214.05405405405406" cy="127.49999999999982" r="3" fill="#2563eb"></circle><circle class="dot" cx="216.21621621621622" cy="127.49999999999982" r="3" fill="#2563eb"></circle><circle class="dot" cx="218.3783783783784" cy="127.49999999999982" r="3" fill="#2563eb"></circle><circle class="dot" cx="220.54054054054052" cy="127.49999999999982" r="3" fill="#2563eb"></circle><circle class="dot" cx="222.7027027027027" cy="127.49999999999982" r="3" fill="#2563eb"></circle><circle class="dot" cx="224.86486486486487" cy="127.49999999999982" r="3" fill="#2563eb"></circle><circle class="dot" cx="227.02702702702703" cy="127.49999999999982" r="3" fill="#2563eb"></circle><circle class="dot" cx="229.1891891891892" cy="127.49999999999982" r="3" fill="#2563eb"></circle><circle class="dot" cx="231.35135135135133" cy="127.49999999999982" r="3" fill="#2563eb"></circle><circle class="dot" cx="233.51351351351352" cy="127.49999999999982" r="3" fill="#2563eb"></circle><circle class="dot" cx="235.67567567567568" cy="127.49999999999982" r="3" fill="#2563eb"></circle><circle class="dot" cx="237.83783783783784" cy="127.49999999999982" r="3" fill="#2563eb"></circle><circle class="dot" cx="240" cy="127.49999999999982" r="3" fill="#2563eb"></circle><circle class="dot" cx="242.1621621621622" cy="127.49999999999982" r="3" fill="#2563eb"></circle><circle class="dot" cx="244.32432432432432" cy="127.49999999999982" r="3" fill="#2563eb"></circle><circle class="dot" cx="246.48648648648648" cy="127.49999999999982" r="3" fill="#2563eb"></circle><circle class="dot" cx="248.64864864864865" cy="127.49999999999982" r="3" fill="#2563eb"></circle><circle class="dot" cx="250.8108108108108" cy="127.49999999999982" r="3" fill="#2563eb"></circle><circle class="dot" cx="252.972972972973" cy="127.49999999999982" r="3" fill="#2563eb"></circle><circle class="dot" cx="255.13513513513513" cy="127.49999999999982" r="3" fill="#2563eb"></circle><circle class="dot" cx="257.2972972972973" cy="127.49999999999982" r="3" fill="#2563eb"></circle><circle class="dot" cx="259.4594594594594" cy="127.49999999999982" r="3" fill="#2563eb"></circle><circle class="dot" cx="261.6216216216216" cy="127.49999999999982" r="3" fill="#2563eb"></circle><circle class="dot" cx="263.7837837837838" cy="127.49999999999982" r="3" fill="#2563eb"></circle><circle class="dot" cx="265.94594594594594" cy="127.49999999999982" r="3" fill="#2563eb"></circle><circle class="dot" cx="268.1081081081081" cy="127.49999999999982" r="3" fill="#2563eb"></circle><circle class="dot" cx="270.27027027027026" cy="127.49999999999982" r="3" fill="#2563eb"></circle><circle class="dot" cx="272.43243243243245" cy="127.49999999999982" r="3" fill="#2563eb"></circle><circle class="dot" cx="274.5945945945946" cy="127.49999999999982" r="3" fill="#2563eb"></circle><circle class="dot" cx="276.7567567567568" cy="127.49999999999982" r="3" fill="#2563eb"></circle><circle class="dot" cx="278.9189189189189" cy="127.49999999999982" r="3" fill="#2563eb"></circle><circle class="dot" cx="281.08108108108104" cy="127.49999999999982" r="3" fill="#2563eb"></circle><circle class="dot" cx="283.2432432432432" cy="127.49999999999982" r="3" fill="#2563eb"></circle><circle class="dot" cx="285.4054054054054" cy="127.49999999999982" r="3" fill="#2563eb"></circle><circle class="dot" cx="287.56756756756755" cy="127.49999999999982" r="3" fill="#2563eb"></circle><circle class="dot" cx="289.72972972972974" cy="127.49999999999982" r="3" fill="#2563eb"></circle><circle class="dot" cx="291.89189189189193" cy="127.49999999999982" r="3" fill="#2563eb"></circle><circle class="dot" cx="294.05405405405406" cy="127.49999999999982" r="3" fill="#2563eb"></circle><circle class="dot" cx="296.2162162162162" cy="127.49999999999982" r="3" fill="#2563eb"></circle><circle class="dot" cx="298.3783783783784" cy="127.49999999999982" r="3" fill="#2563eb"></circle><circle class="dot" cx="300.5405405405405" cy="127.49999999999982" r="3" fill="#2563eb"></circle><circle class="dot" cx="302.7027027027027" cy="127.49999999999982" r="3" fill="#2563eb"></circle><circle class="dot" cx="304.86486486486484" cy="127.49999999999982" r="3" fill="#2563eb"></circle><circle class="dot" cx="307.02702702702703" cy="127.49999999999982" r="3" fill="#2563eb"></circle><circle class="dot" cx="309.18918918918916" cy="127.49999999999982" r="3" fill="#2563eb"></circle><circle class="dot" cx="311.35135135135135" cy="127.49999999999982" r="3" fill="#2563eb"></circle><circle class="dot" cx="313.51351351351354" cy="127.49999999999982" r="3" fill="#2563eb"></circle><circle class="dot" cx="315.6756756756757" cy="127.49999999999982" r="3" fill="#2563eb"></circle><circle class="dot" cx="317.8378378378378" cy="127.49999999999982" r="3" fill="#2563eb"></circle><circle class="dot" cx="320" cy="127.49999999999982" r="3" fill="#2563eb"></circle><circle class="dot" cx="322.1621621621622" cy="127.49999999999982" r="3" fill="#2563eb"></circle><circle class="dot" cx="324.3243243243243" cy="127.49999999999982" r="3" fill="#2563eb"></circle><circle class="dot" cx="326.48648648648646" cy="127.49999999999982" r="3" fill="#2563eb"></circle><circle class="dot" cx="328.64864864864865" cy="127.49999999999982" r="3" fill="#2563eb"></circle><circle class="dot" cx="330.81081081081084" cy="127.49999999999982" r="3" fill="#2563eb"></circle><circle class="dot" cx="332.97297297297297" cy="127.49999999999982" r="3" fill="#2563eb"></circle><circle class="dot" cx="335.13513513513516" cy="127.49999999999982" r="3" fill="#2563eb"></circle><circle class="dot" cx="337.2972972972973" cy="127.49999999999982" r="3" fill="#2563eb"></circle><circle class="dot" cx="339.4594594594594" cy="127.49999999999982" r="3" fill="#2563eb"></circle><circle class="dot" cx="341.6216216216216" cy="127.49999999999982" r="3" fill="#2563eb"></circle><circle class="dot" cx="343.7837837837838" cy="127.49999999999982" r="3" fill="#2563eb"></circle><circle class="dot" cx="345.94594594594594" cy="127.49999999999982" r="3" fill="#2563eb"></circle><circle class="dot" cx="348.10810810810807" cy="127.49999999999982" r="3" fill="#2563eb"></circle><circle class="dot" cx="350.2702702702703" cy="127.49999999999982" r="3" fill="#2563eb"></circle><circle class="dot" cx="352.43243243243245" cy="127.49999999999982" r="3" fill="#2563eb"></circle><circle class="dot" cx="354.5945945945946" cy="127.49999999999982" r="3" fill="#2563eb"></circle><circle class="dot" cx="356.7567567567568" cy="127.49999999999982" r="3" fill="#2563eb"></circle><circle class="dot" cx="358.9189189189189" cy="127.49999999999982" r="3" fill="#2563eb"></circle><circle class="dot" cx="361.0810810810811" cy="127.49999999999982" r="3" fill="#2563eb"></circle><circle class="dot" cx="363.2432432432432" cy="127.49999999999982" r="3" fill="#2563eb"></circle><circle class="dot" cx="365.4054054054054" cy="127.49999999999982" r="3" fill="#2563eb"></circle><circle class="dot" cx="367.5675675675676" cy="127.49999999999982" r="3" fill="#2563eb"></circle><circle class="dot" cx="369.7297297297297" cy="127.49999999999982" r="3" fill="#2563eb"></circle><circle class="dot" cx="371.89189189189193" cy="127.49999999999982" r="3" fill="#2563eb"></circle><circle class="dot" cx="374.054054054054" cy="127.49999999999982" r="3" fill="#2563eb"></circle><circle class="dot" cx="376.2162162162162" cy="127.49999999999982" r="3" fill="#2563eb"></circle><circle class="dot" cx="378.3783783783784" cy="127.49999999999982" r="3" fill="#2563eb"></circle><circle class="dot" cx="380.5405405405405" cy="127.49999999999982" r="3" fill="#2563eb"></circle><circle class="dot" cx="382.7027027027027" cy="127.49999999999982" r="3" fill="#2563eb"></circle><circle class="dot" cx="384.8648648648649" cy="127.49999999999982" r="3" fill="#2563eb"></circle><circle class="dot" cx="387.02702702702703" cy="127.49999999999982" r="3" fill="#2563eb"></circle><circle class="dot" cx="389.1891891891892" cy="127.49999999999982" r="3" fill="#2563eb"></circle><circle class="dot" cx="391.3513513513513" cy="127.49999999999982" r="3" fill="#2563eb"></circle><circle class="dot" cx="393.51351351351354" cy="127.49999999999982" r="3" fill="#2563eb"></circle><circle class="dot" cx="395.67567567567573" cy="127.49999999999982" r="3" fill="#2563eb"></circle><circle class="dot" cx="397.8378378378378" cy="127.49999999999982" r="3" fill="#2563eb"></circle><circle class="dot" cx="400" cy="127.49999999999982" r="3" fill="#2563eb"></circle><circle class="dot" cx="402.16216216216213" cy="127.49999999999982" r="3" fill="#2563eb"></circle><circle class="dot" cx="404.3243243243243" cy="127.49999999999982" r="3" fill="#2563eb"></circle><circle class="dot" cx="406.4864864864865" cy="127.49999999999982" r="3" fill="#2563eb"></circle><circle class="dot" cx="408.64864864864865" cy="127.49999999999982" r="3" fill="#2563eb"></circle><circle class="dot" cx="410.81081081081084" cy="127.49999999999982" r="3" fill="#2563eb"></circle><circle class="dot" cx="412.9729729729729" cy="127.49999999999982" r="3" fill="#2563eb"></circle><circle class="dot" cx="415.13513513513516" cy="127.49999999999982" r="3" fill="#2563eb"></circle><circle class="dot" cx="417.29729729729735" cy="127.49999999999982" r="3" fill="#2563eb"></circle><circle class="dot" cx="419.4594594594594" cy="127.49999999999982" r="3" fill="#2563eb"></circle><circle class="dot" cx="421.6216216216216" cy="127.49999999999982" r="3" fill="#2563eb"></circle><circle class="dot" cx="423.78378378378375" cy="127.49999999999982" r="3" fill="#2563eb"></circle><circle class="dot" cx="425.94594594594594" cy="127.49999999999982" r="3" fill="#2563eb"></circle><circle class="dot" cx="428.1081081081081" cy="127.49999999999982" r="3" fill="#2563eb"></circle><circle class="dot" cx="430.27027027027026" cy="127.49999999999982" r="3" fill="#2563eb"></circle><circle class="dot" cx="432.43243243243245" cy="127.49999999999982" r="3" fill="#2563eb"></circle><circle class="dot" cx="434.59459459459464" cy="127.49999999999982" r="3" fill="#2563eb"></circle><circle class="dot" cx="436.7567567567568" cy="127.49999999999982" r="3" fill="#2563eb"></circle><circle class="dot" cx="438.91891891891896" cy="127.49999999999982" r="3" fill="#2563eb"></circle><circle class="dot" cx="441.08108108108104" cy="127.49999999999982" r="3" fill="#2563eb"></circle><circle class="dot" cx="443.2432432432432" cy="127.49999999999982" r="3" fill="#2563eb"></circle><circle class="dot" cx="445.4054054054054" cy="127.49999999999982" r="3" fill="#2563eb"></circle><circle class="dot" cx="447.56756756756755" cy="127.49999999999982" r="3" fill="#2563eb"></circle><circle class="dot" cx="449.72972972972974" cy="127.49999999999982" r="3" fill="#2563eb"></circle><circle class="dot" cx="451.8918918918919" cy="127.49999999999982" r="3" fill="#2563eb"></circle><circle class="dot" cx="454.05405405405406" cy="127.49999999999982" r="3" fill="#2563eb"></circle><circle class="dot" cx="456.21621621621625" cy="127.49999999999982" r="3" fill="#2563eb"></circle><circle class="dot" cx="458.3783783783784" cy="127.49999999999982" r="3" fill="#2563eb"></circle><circle class="dot" cx="460.5405405405406" cy="127.49999999999982" r="3" fill="#2563eb"></circle><circle class="dot" cx="462.70270270270265" cy="127.49999999999982" r="3" fill="#2563eb"></circle><circle class="dot" cx="464.86486486486484" cy="127.49999999999982" r="3" fill="#2563eb"></circle><circle class="dot" cx="467.02702702702703" cy="127.49999999999982" r="3" fill="#2563eb"></circle><circle class="dot" cx="469.18918918918916" cy="127.49999999999982" r="3" fill="#2563eb"></circle><circle class="dot" cx="471.35135135135135" cy="127.49999999999982" r="3" fill="#2563eb"></circle><circle class="dot" cx="473.51351351351354" cy="127.49999999999982" r="3" fill="#2563eb"></circle><circle class="dot" cx="475.6756756756757" cy="127.49999999999982" r="3" fill="#2563eb"></circle><circle class="dot" cx="477.83783783783787" cy="127.49999999999982" r="3" fill="#2563eb"></circle><circle class="dot" cx="480" cy="127.49999999999982" r="3" fill="#2563eb"></circle><circle class="dot" cx="482.1621621621622" cy="127.49999999999982" r="3" fill="#2563eb"></circle><circle class="dot" cx="484.3243243243244" cy="127.49999999999982" r="3" fill="#2563eb"></circle><circle class="dot" cx="486.48648648648646" cy="127.49999999999982" r="3" fill="#2563eb"></circle><circle class="dot" cx="488.64864864864865" cy="127.49999999999982" r="3" fill="#2563eb"></circle><circle class="dot" cx="490.8108108108108" cy="127.49999999999982" r="3" fill="#2563eb"></circle><circle class="dot" cx="492.97297297297297" cy="127.49999999999982" r="3" fill="#2563eb"></circle><circle class="dot" cx="495.13513513513516" cy="127.49999999999982" r="3" fill="#2563eb"></circle><circle class="dot" cx="497.2972972972973" cy="127.49999999999982" r="3" fill="#2563eb"></circle><circle class="dot" cx="499.4594594594595" cy="127.49999999999982" r="3" fill="#2563eb"></circle><circle class="dot" cx="501.6216216216216" cy="127.49999999999982" r="3" fill="#2563eb"></circle><circle class="dot" cx="503.7837837837838" cy="127.49999999999982" r="3" fill="#2563eb"></circle><circle class="dot" cx="505.945945945946" cy="127.49999999999982" r="3" fill="#2563eb"></circle><circle class="dot" cx="508.10810810810807" cy="127.49999999999982" r="3" fill="#2563eb"></circle><circle class="dot" cx="510.27027027027026" cy="127.49999999999982" r="3" fill="#2563eb"></circle><circle class="dot" cx="512.4324324324324" cy="127.49999999999982" r="3" fill="#2563eb"></circle><circle class="dot" cx="514.5945945945946" cy="127.49999999999982" r="3" fill="#2563eb"></circle><circle class="dot" cx="516.7567567567568" cy="127.49999999999982" r="3" fill="#2563eb"></circle><circle class="dot" cx="518.9189189189188" cy="127.49999999999982" r="3" fill="#2563eb"></circle><circle class="dot" cx="521.081081081081" cy="127.49999999999982" r="3" fill="#2563eb"></circle><circle class="dot" cx="523.2432432432432" cy="127.49999999999982" r="3" fill="#2563eb"></circle><circle class="dot" cx="525.4054054054054" cy="127.49999999999982" r="3" fill="#2563eb"></circle><circle class="dot" cx="527.5675675675676" cy="127.49999999999982" r="3" fill="#2563eb"></circle><circle class="dot" cx="529.7297297297297" cy="127.49999999999982" r="3" fill="#2563eb"></circle><circle class="dot" cx="531.8918918918919" cy="127.49999999999982" r="3" fill="#2563eb"></circle><circle class="dot" cx="534.0540540540541" cy="127.49999999999982" r="3" fill="#2563eb"></circle><circle class="dot" cx="536.2162162162163" cy="127.49999999999982" r="3" fill="#2563eb"></circle><circle class="dot" cx="538.3783783783784" cy="127.49999999999982" r="3" fill="#2563eb"></circle><circle class="dot" cx="540.5405405405405" cy="127.49999999999982" r="3" fill="#2563eb"></circle><circle class="dot" cx="542.7027027027027" cy="127.49999999999982" r="3" fill="#2563eb"></circle><circle class="dot" cx="544.8648648648649" cy="127.49999999999982" r="3" fill="#2563eb"></circle><circle class="dot" cx="547.027027027027" cy="127.49999999999982" r="3" fill="#2563eb"></circle><circle class="dot" cx="549.1891891891892" cy="127.49999999999982" r="3" fill="#2563eb"></circle><circle class="dot" cx="551.3513513513514" cy="127.49999999999982" r="3" fill="#2563eb"></circle><circle class="dot" cx="553.5135135135135" cy="127.49999999999982" r="3" fill="#2563eb"></circle><circle class="dot" cx="555.6756756756757" cy="127.49999999999982" r="3" fill="#2563eb"></circle><circle class="dot" cx="557.8378378378378" cy="127.49999999999982" r="3" fill="#2563eb"></circle><circle class="dot" cx="560" cy="127.49999999999982" r="3" fill="#2563eb"></circle><circle class="dot" cx="562.1621621621621" cy="127.49999999999982" r="3" fill="#2563eb"></circle><circle class="dot" cx="564.3243243243243" cy="127.49999999999982" r="3" fill="#2563eb"></circle><circle class="dot" cx="566.4864864864865" cy="127.49999999999982" r="3" fill="#2563eb"></circle><circle class="dot" cx="568.6486486486486" cy="127.49999999999982" r="3" fill="#2563eb"></circle><circle class="dot" cx="570.8108108108108" cy="127.49999999999982" r="3" fill="#2563eb"></circle><circle class="dot" cx="572.972972972973" cy="127.49999999999982" r="3" fill="#2563eb"></circle><circle class="dot" cx="575.1351351351351" cy="127.49999999999982" r="3" fill="#2563eb"></circle><circle class="dot" cx="577.2972972972973" cy="127.49999999999982" r="3" fill="#2563eb"></circle><circle class="dot" cx="579.4594594594595" cy="340" r="3" fill="#2563eb"></circle><circle class="dot" cx="581.6216216216217" cy="340" r="3" fill="#2563eb"></circle><circle class="dot" cx="583.7837837837839" cy="340" r="3" fill="#2563eb"></circle><circle class="dot" cx="585.9459459459459" cy="340" r="3" fill="#2563eb"></circle><circle class="dot" cx="588.1081081081081" cy="340" r="3" fill="#2563eb"></circle><circle class="dot" cx="590.2702702702702" cy="340" r="3" fill="#2563eb"></circle><circle class="dot" cx="592.4324324324324" cy="340" r="3" fill="#2563eb"></circle><circle class="dot" cx="594.5945945945946" cy="340" r="3" fill="#2563eb"></circle><circle class="dot" cx="596.7567567567568" cy="340" r="3" fill="#2563eb"></circle><circle class="dot" cx="598.918918918919" cy="340" r="3" fill="#2563eb"></circle><circle class="dot" cx="601.081081081081" cy="340" r="3" fill="#2563eb"></circle><circle class="dot" cx="603.2432432432432" cy="340" r="3" fill="#2563eb"></circle><circle class="dot" cx="605.4054054054054" cy="340" r="3" fill="#2563eb"></circle><circle class="dot" cx="607.5675675675675" cy="340" r="3" fill="#2563eb"></circle><circle class="dot" cx="609.7297297297297" cy="340" r="3" fill="#2563eb"></circle><circle class="dot" cx="611.8918918918919" cy="340" r="3" fill="#2563eb"></circle><circle class="dot" cx="614.0540540540541" cy="340" r="3" fill="#2563eb"></circle><circle class="dot" cx="616.2162162162163" cy="340" r="3" fill="#2563eb"></circle><circle class="dot" cx="618.3783783783783" cy="340" r="3" fill="#2563eb"></circle><circle class="dot" cx="620.5405405405405" cy="340" r="3" fill="#2563eb"></circle><circle class="dot" cx="622.7027027027027" cy="340" r="3" fill="#2563eb"></circle><circle class="dot" cx="624.8648648648649" cy="340" r="3" fill="#2563eb"></circle><circle class="dot" cx="627.0270270270271" cy="340" r="3" fill="#2563eb"></circle><circle class="dot" cx="629.1891891891892" cy="340" r="3" fill="#2563eb"></circle><circle class="dot" cx="631.3513513513514" cy="340" r="3" fill="#2563eb"></circle><circle class="dot" cx="633.5135135135135" cy="340" r="3" fill="#2563eb"></circle><circle class="dot" cx="635.6756756756756" cy="340" r="3" fill="#2563eb"></circle><circle class="dot" cx="637.8378378378378" cy="340" r="3" fill="#2563eb"></circle><circle class="dot" cx="640" cy="340" r="3" fill="#2563eb"></circle><circle class="dot" cx="642.1621621621622" cy="340" r="3" fill="#2563eb"></circle><circle class="dot" cx="644.3243243243244" cy="340" r="3" fill="#2563eb"></circle><circle class="dot" cx="646.4864864864865" cy="340" r="3" fill="#2563eb"></circle><circle class="dot" cx="648.6486486486486" cy="340" r="3" fill="#2563eb"></circle><circle class="dot" cx="650.8108108108107" cy="340" r="3" fill="#2563eb"></circle><circle class="dot" cx="652.9729729729729" cy="340" r="3" fill="#2563eb"></circle><circle class="dot" cx="655.1351351351352" cy="340" r="3" fill="#2563eb"></circle><circle class="dot" cx="657.2972972972973" cy="340" r="3" fill="#2563eb"></circle><circle class="dot" cx="659.4594594594595" cy="340" r="3" fill="#2563eb"></circle><circle class="dot" cx="661.6216216216217" cy="340" r="3" fill="#2563eb"></circle><circle class="dot" cx="663.7837837837837" cy="340" r="3" fill="#2563eb"></circle><circle class="dot" cx="665.9459459459459" cy="340" r="3" fill="#2563eb"></circle><circle class="dot" cx="668.1081081081081" cy="340" r="3" fill="#2563eb"></circle><circle class="dot" cx="670.2702702702703" cy="340" r="3" fill="#2563eb"></circle><circle class="dot" cx="672.4324324324325" cy="340" r="3" fill="#2563eb"></circle><circle class="dot" cx="674.5945945945946" cy="340" r="3" fill="#2563eb"></circle><circle class="dot" cx="676.7567567567568" cy="340" r="3" fill="#2563eb"></circle><circle class="dot" cx="678.9189189189188" cy="340" r="3" fill="#2563eb"></circle><circle class="dot" cx="681.081081081081" cy="340" r="3" fill="#2563eb"></circle><circle class="dot" cx="683.2432432432432" cy="340" r="3" fill="#2563eb"></circle><circle class="dot" cx="685.4054054054054" cy="340" r="3" fill="#2563eb"></circle><circle class="dot" cx="687.5675675675676" cy="340" r="3" fill="#2563eb"></circle><circle class="dot" cx="689.7297297297297" cy="340" r="3" fill="#2563eb"></circle><circle class="dot" cx="691.8918918918919" cy="340" r="3" fill="#2563eb"></circle><circle class="dot" cx="694.0540540540541" cy="340" r="3" fill="#2563eb"></circle><circle class="dot" cx="696.2162162162161" cy="340" r="3" fill="#2563eb"></circle><circle class="dot" cx="698.3783783783783" cy="340" r="3" fill="#2563eb"></circle><circle class="dot" cx="700.5405405405406" cy="340" r="3" fill="#2563eb"></circle><circle class="dot" cx="702.7027027027027" cy="340" r="3" fill="#2563eb"></circle><circle class="dot" cx="704.8648648648649" cy="340" r="3" fill="#2563eb"></circle><circle class="dot" cx="707.027027027027" cy="340" r="3" fill="#2563eb"></circle><circle class="dot" cx="709.1891891891892" cy="340" r="3" fill="#2563eb"></circle><circle class="dot" cx="711.3513513513514" cy="340" r="3" fill="#2563eb"></circle><circle class="dot" cx="713.5135135135135" cy="340" r="3" fill="#2563eb"></circle><circle class="dot" cx="715.6756756756757" cy="340" r="3" fill="#2563eb"></circle><circle class="dot" cx="717.8378378378378" cy="340" r="3" fill="#2563eb"></circle><circle class="dot" cx="720" cy="340" r="3" fill="#2563eb"></circle><g class="grid" transform="translate(0,340)" fill="none" font-size="10" font-family="sans-serif" text-anchor="middle" style="stroke-dasharray: 3,3; opacity: 0.3;"><path class="domain" stroke="currentColor" d="M0.5,-340V0.5H720.5V-340"></path><g class="tick" opacity="1" transform="translate(0.5,0)"><line stroke="currentColor" y2="-340"></line><text fill="currentColor" y="3" dy="0.71em"></text></g><g class="tick" opacity="1" transform="translate(52.391891891891895,0)"><line stroke="currentColor" y2="-340"></line><text fill="currentColor" y="3" dy="0.71em"></text></g><g class="tick" opacity="1" transform="translate(104.28378378378379,0)"><line stroke="currentColor" y2="-340"></line><text fill="currentColor" y="3" dy="0.71em"></text></g><g class="tick" opacity="1" transform="translate(156.17567567567568,0)"><line stroke="currentColor" y2="-340"></line><text fill="currentColor" y="3" dy="0.71em"></text></g><g class="tick" opacity="1" transform="translate(208.06756756756758,0)"><line stroke="currentColor" y2="-340"></line><text fill="currentColor" y="3" dy="0.71em"></text></g><g class="tick" opacity="1" transform="translate(259.9594594594594,0)"><line stroke="currentColor" y2="-340"></line><text fill="currentColor" y="3" dy="0.71em"></text></g><g class="tick" opacity="1" transform="translate(311.85135135135135,0)"><line stroke="currentColor" y2="-340"></line><text fill="currentColor" y="3" dy="0.71em"></text></g><g class="tick" opacity="1" transform="translate(363.7432432432432,0)"><line stroke="currentColor" y2="-340"></line><text fill="currentColor" y="3" dy="0.71em"></text></g><g class="tick" opacity="1" transform="translate(415.63513513513516,0)"><line stroke="currentColor" y2="-340"></line><text fill="currentColor" y="3" dy="0.71em"></text></g><g class="tick" opacity="1" transform="translate(467.52702702702703,0)"><line stroke="currentColor" y2="-340"></line><text fill="currentColor" y="3" dy="0.71em"></text></g><g class="tick" opacity="1" transform="translate(519.4189189189188,0)"><line stroke="currentColor" y2="-340"></line><text fill="currentColor" y="3" dy="0.71em"></text></g><g class="tick" opacity="1" transform="translate(571.3108108108108,0)"><line stroke="currentColor" y2="-340"></line><text fill="currentColor" y="3" dy="0.71em"></text></g><g class="tick" opacity="1" transform="translate(623.2027027027027,0)"><line stroke="currentColor" y2="-340"></line><text fill="currentColor" y="3" dy="0.71em"></text></g><g class="tick" opacity="1" transform="translate(675.0945945945946,0)"><line stroke="currentColor" y2="-340"></line><text fill="currentColor" y="3" dy="0.71em"></text></g></g><g class="grid" fill="none" font-size="10" font-family="sans-serif" text-anchor="end" style="stroke-dasharray: 3,3; opacity: 0.3;"><path class="domain" stroke="currentColor" d="M720,340.5H0.5V0.5H720"></path><g class="tick" opacity="1" transform="translate(0,340.5)"><line stroke="currentColor" x2="720"></line><text fill="currentColor" x="-3" dy="0.32em"></text></g><g class="tick" opacity="1" transform="translate(0,297.99999999999994)"><line stroke="currentColor" x2="720"></line><text fill="currentColor" x="-3" dy="0.32em"></text></g><g class="tick" opacity="1" transform="translate(0,255.49999999999991)"><line stroke="currentColor" x2="720"></line><text fill="currentColor" x="-3" dy="0.32em"></text></g><g class="tick" opacity="1" transform="translate(0,212.9999999999999)"><line stroke="currentColor" x2="720"></line><text fill="currentColor" x="-3" dy="0.32em"></text></g><g class="tick" opacity="1" transform="translate(0,170.49999999999986)"><line stroke="currentColor" x2="720"></line><text fill="currentColor" x="-3" dy="0.32em"></text></g><g class="tick" opacity="1" transform="translate(0,127.99999999999982)"><line stroke="currentColor" x2="720"></line><text fill="currentColor" x="-3" dy="0.32em"></text></g><g class="tick" opacity="1" transform="translate(0,85.50000000000007)"><line stroke="currentColor" x2="720"></line><text fill="currentColor" x="-3" dy="0.32em"></text></g><g class="tick" opacity="1" transform="translate(0,43.000000000000036)"><line stroke="currentColor" x2="720"></line><text fill="currentColor" x="-3" dy="0.32em"></text></g><g class="tick" opacity="1" transform="translate(0,0.5)"><line stroke="currentColor" x2="720"></line><text fill="currentColor" x="-3" dy="0.32em"></text></g></g></g><text x="400" y="10" text-anchor="middle" style="font-size: 16px; font-weight: bold; fill: #333;">OKX USDT Lending Rate - Current Month</text></svg>