<svg width="800" height="400" xmlns="http://www.w3.org/2000/svg"><g transform="translate(50,20)"><g transform="translate(0,340)" fill="none" font-size="10" font-family="sans-serif" text-anchor="middle"><path class="domain" stroke="currentColor" d="M0.5,6V0.5H720.5V6"></path><g class="tick" opacity="1" transform="translate(0.5,0)"><line stroke="currentColor" y2="6"></line><text fill="currentColor" y="9" dy=".15em" style="text-anchor: end;" dx="-.8em" transform="rotate(-45)">11/01</text></g><g class="tick" opacity="1" transform="translate(50.298270893371765,0)"><line stroke="currentColor" y2="6"></line><text fill="currentColor" y="9" dy=".15em" style="text-anchor: end;" dx="-.8em" transform="rotate(-45)">11/02</text></g><g class="tick" opacity="1" transform="translate(100.09654178674353,0)"><line stroke="currentColor" y2="6"></line><text fill="currentColor" y="9" dy=".15em" style="text-anchor: end;" dx="-.8em" transform="rotate(-45)">11/03</text></g><g class="tick" opacity="1" transform="translate(149.89481268011528,0)"><line stroke="currentColor" y2="6"></line><text fill="currentColor" y="9" dy=".15em" style="text-anchor: end;" dx="-.8em" transform="rotate(-45)">11/04</text></g><g class="tick" opacity="1" transform="translate(199.69308357348706,0)"><line stroke="currentColor" y2="6"></line><text fill="currentColor" y="9" dy=".15em" style="text-anchor: end;" dx="-.8em" transform="rotate(-45)">11/05</text></g><g class="tick" opacity="1" transform="translate(249.4913544668588,0)"><line stroke="currentColor" y2="6"></line><text fill="currentColor" y="9" dy=".15em" style="text-anchor: end;" dx="-.8em" transform="rotate(-45)">11/06</text></g><g class="tick" opacity="1" transform="translate(299.28962536023056,0)"><line stroke="currentColor" y2="6"></line><text fill="currentColor" y="9" dy=".15em" style="text-anchor: end;" dx="-.8em" transform="rotate(-45)">11/07</text></g><g class="tick" opacity="1" transform="translate(349.0878962536023,0)"><line stroke="currentColor" y2="6"></line><text fill="currentColor" y="9" dy=".15em" style="text-anchor: end;" dx="-.8em" transform="rotate(-45)">11/08</text></g><g class="tick" opacity="1" transform="translate(398.8861671469741,0)"><line stroke="currentColor" y2="6"></line><text fill="currentColor" y="9" dy=".15em" style="text-anchor: end;" dx="-.8em" transform="rotate(-45)">11/09</text></g><g class="tick" opacity="1" transform="translate(448.68443804034587,0)"><line stroke="currentColor" y2="6"></line><text fill="currentColor" y="9" dy=".15em" style="text-anchor: end;" dx="-.8em" transform="rotate(-45)">11/10</text></g><g class="tick" opacity="1" transform="translate(498.4827089337176,0)"><line stroke="currentColor" y2="6"></line><text fill="currentColor" y="9" dy=".15em" style="text-anchor: end;" dx="-.8em" transform="rotate(-45)">11/11</text></g><g class="tick" opacity="1" transform="translate(548.2809798270894,0)"><line stroke="currentColor" y2="6"></line><text fill="currentColor" y="9" dy=".15em" style="text-anchor: end;" dx="-.8em" transform="rotate(-45)">11/12</text></g><g class="tick" opacity="1" transform="translate(598.0792507204611,0)"><line stroke="currentColor" y2="6"></line><text fill="currentColor" y="9" dy=".15em" style="text-anchor: end;" dx="-.8em" transform="rotate(-45)">11/13</text></g><g class="tick" opacity="1" transform="translate(647.8775216138329,0)"><line stroke="currentColor" y2="6"></line><text fill="currentColor" y="9" dy=".15em" style="text-anchor: end;" dx="-.8em" transform="rotate(-45)">11/14</text></g><g class="tick" opacity="1" transform="translate(697.6757925072046,0)"><line stroke="currentColor" y2="6"></line><text fill="currentColor" y="9" dy=".15em" style="text-anchor: end;" dx="-.8em" transform="rotate(-45)">11/15</text></g></g><g fill="none" font-size="10" font-family="sans-serif" text-anchor="end"><path class="domain" stroke="currentColor" d="M-6,340.5H0.5V0.5H-6"></path><g class="tick" opacity="1" transform="translate(0,340.5)"><line stroke="currentColor" x2="-6"></line><text fill="currentColor" x="-9" dy="0.32em">1.00%</text></g><g class="tick" opacity="1" transform="translate(0,306.5)"><line stroke="currentColor" x2="-6"></line><text fill="currentColor" x="-9" dy="0.32em">1.20%</text></g><g class="tick" opacity="1" transform="translate(0,272.5)"><line stroke="currentColor" x2="-6"></line><text fill="currentColor" x="-9" dy="0.32em">1.40%</text></g><g class="tick" opacity="1" transform="translate(0,238.49999999999997)"><line stroke="currentColor" x2="-6"></line><text fill="currentColor" x="-9" dy="0.32em">1.60%</text></g><g class="tick" opacity="1" transform="translate(0,204.50000000000003)"><line stroke="currentColor" x2="-6"></line><text fill="currentColor" x="-9" dy="0.32em">1.80%</text></g><g class="tick" opacity="1" transform="translate(0,170.49999999999997)"><line stroke="currentColor" x2="-6"></line><text fill="currentColor" x="-9" dy="0.32em">2.00%</text></g><g class="tick" opacity="1" transform="translate(0,136.5)"><line stroke="currentColor" x2="-6"></line><text fill="currentColor" x="-9" dy="0.32em">2.20%</text></g><g class="tick" opacity="1" transform="translate(0,102.49999999999997)"><line stroke="currentColor" x2="-6"></line><text fill="currentColor" x="-9" dy="0.32em">2.40%</text></g><g class="tick" opacity="1" transform="translate(0,68.49999999999994)"><line stroke="currentColor" x2="-6"></line><text fill="currentColor" x="-9" dy="0.32em">2.60%</text></g><g class="tick" opacity="1" transform="translate(0,34.499999999999915)"><line stroke="currentColor" x2="-6"></line><text fill="currentColor" x="-9" dy="0.32em">2.80%</text></g><g class="tick" opacity="1" transform="translate(0,0.5)"><line stroke="currentColor" x2="-6"></line><text fill="currentColor" x="-9" dy="0.32em">3.00%</text></g></g><text transform="rotate(-90)" y="-50" x="-170" dy="1em" style="text-anchor: middle; font-size: 12px; fill: #666;">Pre Rate (%)</text><text transform="translate(360, 380)" style="text-anchor: middle; font-size: 12px; fill: #666;">Time (UTC)</text><path fill="none" stroke="#2563eb" stroke-width="2" d="M0,0C0.692,0,1.383,0,2.075,0C2.767,0,3.458,0,4.15,0C4.841,0,5.533,0,6.225,0C6.916,0,7.608,0,8.3,0C8.991,0,9.683,0,10.375,0C11.066,0,11.758,0,12.45,0C13.141,0,13.833,0,14.524,0C15.216,0,15.908,0,16.599,0C17.291,0,17.983,0,18.674,0C19.366,0,20.058,0,20.749,0C21.441,0,22.133,0,22.824,0C23.516,0,24.207,0,24.899,0C25.591,0,26.282,0,26.974,0C27.666,0,28.357,0,29.049,0C29.741,0,30.432,0,31.124,0C31.816,0,32.507,0,33.199,0C33.89,0,34.582,0,35.274,0C35.965,0,36.657,0,37.349,0C38.04,0,38.732,0,39.424,0C40.115,0,40.807,0,41.499,0C42.19,0,42.882,0,43.573,0C44.265,0,44.957,0,45.648,0C46.34,0,47.032,0,47.723,0C48.415,0,49.107,0,49.798,0C50.49,0,51.182,0,51.873,0C52.565,0,53.256,0,53.948,0C54.64,0,55.331,0,56.023,0C56.715,0,57.406,0,58.098,0C58.79,0,59.481,0,60.173,0C60.865,0,61.556,0,62.248,0C62.939,0,63.631,0,64.323,0C65.014,0,65.706,0,66.398,0C67.089,0,67.781,0,68.473,0C69.164,0,69.856,0,70.548,0C71.239,0,71.931,0,72.622,0C73.314,0,74.006,0,74.697,0C75.389,0,76.081,0,76.772,0C77.464,0,78.156,0,78.847,0C79.539,0,80.231,0,80.922,0C81.614,0,82.305,0,82.997,0C83.689,0,84.38,0,85.072,0C85.764,0,86.455,0,87.147,0C87.839,0,88.53,0,89.222,0C89.914,0,90.605,0,91.297,0C91.988,0,92.68,0,93.372,0C94.063,0,94.755,0,95.447,0C96.138,0,96.83,0,97.522,0C98.213,0,98.905,0,99.597,0C100.288,0,100.98,0,101.671,0C102.363,0,103.055,0,103.746,0C104.438,0,105.13,0,105.821,0C106.513,0,107.205,0,107.896,0C108.588,0,109.28,0,109.971,0C110.663,0,111.354,0,112.046,0C112.738,0,113.429,0,114.121,0C114.813,0,115.504,0,116.196,0C116.888,0,117.579,0,118.271,0C118.963,0,119.654,0,120.346,0C121.037,0,121.729,0,122.421,0C123.112,0,123.804,0,124.496,0C125.187,0,125.879,0,126.571,0C127.262,0,127.954,0,128.646,0C129.337,0,130.029,0,130.72,0C131.412,0,132.104,0,132.795,0C133.487,0,134.179,0,134.87,0C135.562,0,136.254,0,136.945,0C137.637,0,138.329,0,139.02,0C139.712,0,140.403,0,141.095,0C141.787,0,142.478,0,143.17,0C143.862,0,144.553,0,145.245,0C145.937,0,146.628,0,147.32,0C148.012,0,148.703,0,149.395,0C150.086,0,150.778,0,151.47,0C152.161,0,152.853,0,153.545,0C154.236,0,154.928,0,155.62,0C156.311,0,157.003,0,157.695,0C158.386,0,159.078,0,159.769,0C160.461,0,161.153,0,161.844,0C162.536,0,163.228,0,163.919,0C164.611,0,165.303,0,165.994,0C166.686,0,167.378,0,168.069,0C168.761,0,169.452,0,170.144,0C170.836,0,171.527,0,172.219,0C172.911,0,173.602,0,174.294,0C174.986,0,175.677,0,176.369,0C177.061,0,177.752,0,178.444,0C179.135,0,179.827,0,180.519,0C181.21,0,181.902,0,182.594,0C183.285,0,183.977,0,184.669,0C185.36,0,186.052,0,186.744,0C187.435,0,188.127,0,188.818,0C189.51,0,190.202,0,190.893,0C191.585,0,192.277,0,192.968,0C193.66,0,194.352,0,195.043,0C195.735,0,196.427,0,197.118,0C197.81,0,198.501,0,199.193,0C199.885,0,200.576,340,201.268,340C201.96,340,202.651,340,203.343,340C204.035,340,204.726,340,205.418,340C206.11,340,206.801,340,207.493,340C208.184,340,208.876,340,209.568,340C210.259,340,210.951,340,211.643,340C212.334,340,213.026,340,213.718,340C214.409,340,215.101,340,215.793,340C216.484,340,217.176,0,217.867,0C218.559,0,219.251,0,219.942,0C220.634,0,221.326,0,222.017,0C222.709,0,223.401,0,224.092,0C224.784,0,225.476,0,226.167,0C226.859,0,227.55,0,228.242,0C228.934,0,229.625,0,230.317,0C231.009,0,231.7,0,232.392,0C233.084,0,233.775,0,234.467,0C235.159,0,235.85,0,236.542,0C237.233,0,237.925,0,238.617,0C239.308,0,240,0,240.692,0C241.383,0,242.075,0,242.767,0C243.458,0,244.15,0,244.841,0C245.533,0,246.225,0,246.916,0C247.608,0,248.3,0,248.991,0C249.683,0,250.375,0,251.066,0C251.758,0,252.45,0,253.141,0C253.833,0,254.524,0,255.216,0C255.908,0,256.599,0,257.291,0C257.983,0,258.674,0,259.366,0C260.058,0,260.749,0,261.441,0C262.133,0,262.824,0,263.516,0C264.207,0,264.899,0,265.591,0C266.282,0,266.974,0,267.666,0C268.357,0,269.049,0,269.741,0C270.432,0,271.124,0,271.816,0C272.507,0,273.199,0,273.89,0C274.582,0,275.274,0,275.965,0C276.657,0,277.349,0,278.04,0C278.732,0,279.424,0,280.115,0C280.807,0,281.499,0,282.19,0C282.882,0,283.573,0,284.265,0C284.957,0,285.648,0,286.34,0C287.032,0,287.723,0,288.415,0C289.107,0,289.798,0,290.49,0C291.182,0,291.873,0,292.565,0C293.256,0,293.948,0,294.64,0C295.331,0,296.023,0,296.715,0C297.406,0,298.098,0,298.79,0C299.481,0,300.173,0,300.865,0C301.556,0,302.248,0,302.939,0C303.631,0,304.323,0,305.014,0C305.706,0,306.398,0,307.089,0C307.781,0,308.473,0,309.164,0C309.856,0,310.548,0,311.239,0C311.931,0,312.622,0,313.314,0C314.006,0,314.697,0,315.389,0C316.081,0,316.772,0,317.464,0C318.156,0,318.847,0,319.539,0C320.231,0,320.922,0,321.614,0C322.305,0,322.997,0,323.689,0C324.38,0,325.072,0,325.764,0C326.455,0,327.147,0,327.839,0C328.53,0,329.222,0,329.914,0C330.605,0,331.297,0,331.988,0C332.68,0,333.372,0,334.063,0C334.755,0,335.447,0,336.138,0C336.83,0,337.522,0,338.213,0C338.905,0,339.597,0,340.288,0C340.98,0,341.671,0,342.363,0C343.055,0,343.746,0,344.438,0C345.13,0,345.821,0,346.513,0C347.205,0,347.896,0,348.588,0C349.28,0,349.971,0,350.663,0C351.354,0,352.046,0,352.738,0C353.429,0,354.121,0,354.813,0C355.504,0,356.196,0,356.888,0C357.579,0,358.271,0,358.963,0C359.654,0,360.346,0,361.037,0C361.729,0,362.421,0,363.112,0C363.804,0,364.496,0,365.187,0C365.879,0,366.571,0,367.262,0C367.954,0,368.646,0,369.337,0C370.029,0,370.72,0,371.412,0C372.104,0,372.795,0,373.487,0C374.179,0,374.87,0,375.562,0C376.254,0,376.945,0,377.637,0C378.329,0,379.02,0,379.712,0C380.403,0,381.095,0,381.787,0C382.478,0,383.17,0,383.862,0C384.553,0,385.245,0,385.937,0C386.628,0,387.32,0,388.012,0C388.703,0,389.395,0,390.086,0C390.778,0,391.47,0,392.161,0C392.853,0,393.545,0,394.236,0C394.928,0,395.62,0,396.311,0C397.003,0,397.695,0,398.386,0C399.078,0,399.769,0,400.461,0C401.153,0,401.844,0,402.536,0C403.228,0,403.919,0,404.611,0C405.303,0,405.994,0,406.686,0C407.378,0,408.069,0,408.761,0C409.452,0,410.144,0,410.836,0C411.527,0,412.219,0,412.911,0C413.602,0,414.294,0,414.986,0C415.677,0,416.369,0,417.061,0C417.752,0,418.444,0,419.135,0C419.827,0,420.519,0,421.21,0C421.902,0,422.594,0,423.285,0C423.977,0,424.669,0,425.36,0C426.052,0,426.744,0,427.435,0C428.127,0,428.818,0,429.51,0C430.202,0,430.893,0,431.585,0C432.277,0,432.968,0,433.66,0C434.352,0,435.043,0,435.735,0C436.427,0,437.118,0,437.81,0C438.501,0,439.193,0,439.885,0C440.576,0,441.268,0,441.96,0C442.651,0,443.343,0,444.035,0C444.726,0,445.418,0,446.11,0C446.801,0,447.493,0,448.184,0C448.876,0,449.568,0,450.259,0C450.951,0,451.643,0,452.334,0C453.026,0,453.718,0,454.409,0C455.101,0,455.793,0,456.484,0C457.176,0,457.867,0,458.559,0C459.251,0,459.942,0,460.634,0C461.326,0,462.017,0,462.709,0C463.401,0,464.092,0,464.784,0C465.476,0,466.167,0,466.859,0C467.55,0,468.242,0,468.934,0C469.625,0,470.317,0,471.009,0C471.7,0,472.392,0,473.084,0C473.775,0,474.467,0,475.159,0C475.85,0,476.542,0,477.233,0C477.925,0,478.617,0,479.308,0C480,0,480.692,0,481.383,0C482.075,0,482.767,0,483.458,0C484.15,0,484.841,0,485.533,0C486.225,0,486.916,0,487.608,0C488.3,0,488.991,0,489.683,0C490.375,0,491.066,0,491.758,0C492.45,0,493.141,0,493.833,0C494.524,0,495.216,0,495.908,0C496.599,0,497.291,0,497.983,0C498.674,0,499.366,0,500.058,0C500.749,0,501.441,0,502.133,0C502.824,0,503.516,0,504.207,0C504.899,0,505.591,0,506.282,0C506.974,0,507.666,0,508.357,0C509.049,0,509.741,0,510.432,0C511.124,0,511.816,0,512.507,0C513.199,0,513.89,0,514.582,0C515.274,0,515.965,0,516.657,0C517.349,0,518.04,0,518.732,0C519.424,0,520.115,0,520.807,0C521.499,0,522.19,0,522.882,0C523.573,0,524.265,0,524.957,0C525.648,0,526.34,0,527.032,0C527.723,0,528.415,0,529.107,0C529.798,0,530.49,0,531.182,0C531.873,0,532.565,0,533.256,0C533.948,0,534.64,0,535.331,0C536.023,0,536.715,0,537.406,0C538.098,0,538.79,0,539.481,0C540.173,0,540.865,0,541.556,0C542.248,0,542.939,0,543.631,0C544.323,0,545.014,0,545.706,0C546.398,0,547.089,0,547.781,0C548.473,0,549.164,0,549.856,0C550.548,0,551.239,0,551.931,0C552.622,0,553.314,0,554.006,0C554.697,0,555.389,0,556.081,0C556.772,0,557.464,0,558.156,0C558.847,0,559.539,0,560.231,0C560.922,0,561.614,0,562.305,0C562.997,0,563.689,0,564.38,0C565.072,0,565.764,0,566.455,0C567.147,0,567.839,0,568.53,0C569.222,0,569.914,0,570.605,0C571.297,0,571.988,0,572.68,0C573.372,0,574.063,0,574.755,0C575.447,0,576.138,0,576.83,0C577.522,0,578.213,0,578.905,0C579.597,0,580.288,0,580.98,0C581.671,0,582.363,0,583.055,0C583.746,0,584.438,0,585.13,0C585.821,0,586.513,0,587.205,0C587.896,0,588.588,0,589.28,0C589.971,0,590.663,0,591.354,0C592.046,0,592.738,0,593.429,0C594.121,0,594.813,0,595.504,0C596.196,0,596.888,0,597.579,0C598.271,0,598.963,0,599.654,0C600.346,0,601.037,0,601.729,0C602.421,0,603.112,0,603.804,0C604.496,0,605.187,0,605.879,0C606.571,0,607.262,0,607.954,0C608.646,0,609.337,0,610.029,0C610.72,0,611.412,0,612.104,0C612.795,0,613.487,0,614.179,0C614.87,0,615.562,0,616.254,0C616.945,0,617.637,0,618.329,0C619.02,0,619.712,0,620.403,0C621.095,0,621.787,0,622.478,0C623.17,0,623.862,0,624.553,0C625.245,0,625.937,0,626.628,0C627.32,0,628.012,0,628.703,0C629.395,0,630.086,0,630.778,0C631.47,0,632.161,0,632.853,0C633.545,0,634.236,0,634.928,0C635.62,0,636.311,0,637.003,0C637.695,0,638.386,0,639.078,0C639.769,0,640.461,0,641.153,0C641.844,0,642.536,0,643.228,0C643.919,0,644.611,0,645.303,0C645.994,0,646.686,0,647.378,0C648.069,0,648.761,0,649.452,0C650.144,0,650.836,0,651.527,0C652.219,0,652.911,0,653.602,0C654.294,0,654.986,0,655.677,0C656.369,0,657.061,0,657.752,0C658.444,0,659.135,0,659.827,0C660.519,0,661.21,0,661.902,0C662.594,0,663.285,0,663.977,0C664.669,0,665.36,0,666.052,0C666.744,0,667.435,0,668.127,0C668.818,0,669.51,0,670.202,0C670.893,0,671.585,0,672.277,0C672.968,0,673.66,0,674.352,0C675.043,0,675.735,0,676.427,0C677.118,0,677.81,0,678.501,0C679.193,0,679.885,0,680.576,0C681.268,0,681.96,0,682.651,0C683.343,0,684.035,0,684.726,0C685.418,0,686.11,0,686.801,0C687.493,0,688.184,0,688.876,0C689.568,0,690.259,0,690.951,0C691.643,0,692.334,0,693.026,0C693.718,0,694.409,0,695.101,0C695.793,0,696.484,0,697.176,0C697.867,0,698.559,0,699.251,0C699.942,0,700.634,0,701.326,0C702.017,0,702.709,0,703.401,0C704.092,0,704.784,0,705.476,0C706.167,0,706.859,0,707.55,0C708.242,0,708.934,0,709.625,0C710.317,0,711.009,0,711.7,0C712.392,0,713.084,0,713.775,0C714.467,0,715.159,0,715.85,0C716.542,0,717.233,0,717.925,0C718.617,0,719.308,0,720,0"></path><circle class="dot" cx="0" cy="0" r="3" fill="#2563eb"></circle><circle class="dot" cx="2.07492795389049" cy="0" r="3" fill="#2563eb"></circle><circle class="dot" cx="4.14985590778098" cy="0" r="3" fill="#2563eb"></circle><circle class="dot" cx="6.224783861671471" cy="0" r="3" fill="#2563eb"></circle><circle class="dot" cx="8.29971181556196" cy="0" r="3" fill="#2563eb"></circle><circle class="dot" cx="10.374639769452449" cy="0" r="3" fill="#2563eb"></circle><circle class="dot" cx="12.449567723342941" cy="0" r="3" fill="#2563eb"></circle><circle class="dot" cx="14.52449567723343" cy="0" r="3" fill="#2563eb"></circle><circle class="dot" cx="16.59942363112392" cy="0" r="3" fill="#2563eb"></circle><circle class="dot" cx="18.67435158501441" cy="0" r="3" fill="#2563eb"></circle><circle class="dot" cx="20.749279538904897" cy="0" r="3" fill="#2563eb"></circle><circle class="dot" cx="22.824207492795388" cy="0" r="3" fill="#2563eb"></circle><circle class="dot" cx="24.899135446685882" cy="0" r="3" fill="#2563eb"></circle><circle class="dot" cx="26.974063400576366" cy="0" r="3" fill="#2563eb"></circle><circle class="dot" cx="29.04899135446686" cy="0" r="3" fill="#2563eb"></circle><circle class="dot" cx="31.12391930835735" cy="0" r="3" fill="#2563eb"></circle><circle class="dot" cx="33.19884726224784" cy="0" r="3" fill="#2563eb"></circle><circle class="dot" cx="35.273775216138326" cy="0" r="3" fill="#2563eb"></circle><circle class="dot" cx="37.34870317002882" cy="0" r="3" fill="#2563eb"></circle><circle class="dot" cx="39.42363112391931" cy="0" r="3" fill="#2563eb"></circle><circle class="dot" cx="41.498559077809794" cy="0" r="3" fill="#2563eb"></circle><circle class="dot" cx="43.57348703170029" cy="0" r="3" fill="#2563eb"></circle><circle class="dot" cx="45.648414985590776" cy="0" r="3" fill="#2563eb"></circle><circle class="dot" cx="47.72334293948126" cy="0" r="3" fill="#2563eb"></circle><circle class="dot" cx="49.798270893371765" cy="0" r="3" fill="#2563eb"></circle><circle class="dot" cx="51.87319884726225" cy="0" r="3" fill="#2563eb"></circle><circle class="dot" cx="53.94812680115273" cy="0" r="3" fill="#2563eb"></circle><circle class="dot" cx="56.02305475504323" cy="0" r="3" fill="#2563eb"></circle><circle class="dot" cx="58.09798270893372" cy="0" r="3" fill="#2563eb"></circle><circle class="dot" cx="60.1729106628242" cy="0" r="3" fill="#2563eb"></circle><circle class="dot" cx="62.2478386167147" cy="0" r="3" fill="#2563eb"></circle><circle class="dot" cx="64.32276657060518" cy="0" r="3" fill="#2563eb"></circle><circle class="dot" cx="66.39769452449568" cy="0" r="3" fill="#2563eb"></circle><circle class="dot" cx="68.47262247838617" cy="0" r="3" fill="#2563eb"></circle><circle class="dot" cx="70.54755043227665" cy="0" r="3" fill="#2563eb"></circle><circle class="dot" cx="72.62247838616715" cy="0" r="3" fill="#2563eb"></circle><circle class="dot" cx="74.69740634005764" cy="0" r="3" fill="#2563eb"></circle><circle class="dot" cx="76.77233429394812" cy="0" r="3" fill="#2563eb"></circle><circle class="dot" cx="78.84726224783861" cy="0" r="3" fill="#2563eb"></circle><circle class="dot" cx="80.92219020172911" cy="0" r="3" fill="#2563eb"></circle><circle class="dot" cx="82.99711815561959" cy="0" r="3" fill="#2563eb"></circle><circle class="dot" cx="85.07204610951008" cy="0" r="3" fill="#2563eb"></circle><circle class="dot" cx="87.14697406340058" cy="0" r="3" fill="#2563eb"></circle><circle class="dot" cx="89.22190201729106" cy="0" r="3" fill="#2563eb"></circle><circle class="dot" cx="91.29682997118155" cy="0" r="3" fill="#2563eb"></circle><circle class="dot" cx="93.37175792507205" cy="0" r="3" fill="#2563eb"></circle><circle class="dot" cx="95.44668587896253" cy="0" r="3" fill="#2563eb"></circle><circle class="dot" cx="97.52161383285302" cy="0" r="3" fill="#2563eb"></circle><circle class="dot" cx="99.59654178674353" cy="0" r="3" fill="#2563eb"></circle><circle class="dot" cx="101.67146974063401" cy="0" r="3" fill="#2563eb"></circle><circle class="dot" cx="103.7463976945245" cy="0" r="3" fill="#2563eb"></circle><circle class="dot" cx="105.82132564841498" cy="0" r="3" fill="#2563eb"></circle><circle class="dot" cx="107.89625360230546" cy="0" r="3" fill="#2563eb"></circle><circle class="dot" cx="109.97118155619596" cy="0" r="3" fill="#2563eb"></circle><circle class="dot" cx="112.04610951008647" cy="0" r="3" fill="#2563eb"></circle><circle class="dot" cx="114.12103746397695" cy="0" r="3" fill="#2563eb"></circle><circle class="dot" cx="116.19596541786744" cy="0" r="3" fill="#2563eb"></circle><circle class="dot" cx="118.27089337175792" cy="0" r="3" fill="#2563eb"></circle><circle class="dot" cx="120.3458213256484" cy="0" r="3" fill="#2563eb"></circle><circle class="dot" cx="122.42074927953891" cy="0" r="3" fill="#2563eb"></circle><circle class="dot" cx="124.4956772334294" cy="0" r="3" fill="#2563eb"></circle><circle class="dot" cx="126.57060518731988" cy="0" r="3" fill="#2563eb"></circle><circle class="dot" cx="128.64553314121036" cy="0" r="3" fill="#2563eb"></circle><circle class="dot" cx="130.72046109510086" cy="0" r="3" fill="#2563eb"></circle><circle class="dot" cx="132.79538904899135" cy="0" r="3" fill="#2563eb"></circle><circle class="dot" cx="134.87031700288185" cy="0" r="3" fill="#2563eb"></circle><circle class="dot" cx="136.94524495677234" cy="0" r="3" fill="#2563eb"></circle><circle class="dot" cx="139.02017291066284" cy="0" r="3" fill="#2563eb"></circle><circle class="dot" cx="141.0951008645533" cy="0" r="3" fill="#2563eb"></circle><circle class="dot" cx="143.1700288184438" cy="0" r="3" fill="#2563eb"></circle><circle class="dot" cx="145.2449567723343" cy="0" r="3" fill="#2563eb"></circle><circle class="dot" cx="147.31988472622479" cy="0" r="3" fill="#2563eb"></circle><circle class="dot" cx="149.39481268011528" cy="0" r="3" fill="#2563eb"></circle><circle class="dot" cx="151.46974063400577" cy="0" r="3" fill="#2563eb"></circle><circle class="dot" cx="153.54466858789624" cy="0" r="3" fill="#2563eb"></circle><circle class="dot" cx="155.61959654178673" cy="0" r="3" fill="#2563eb"></circle><circle class="dot" cx="157.69452449567723" cy="0" r="3" fill="#2563eb"></circle><circle class="dot" cx="159.76945244956772" cy="0" r="3" fill="#2563eb"></circle><circle class="dot" cx="161.84438040345822" cy="0" r="3" fill="#2563eb"></circle><circle class="dot" cx="163.9193083573487" cy="0" r="3" fill="#2563eb"></circle><circle class="dot" cx="165.99423631123918" cy="0" r="3" fill="#2563eb"></circle><circle class="dot" cx="168.06916426512967" cy="0" r="3" fill="#2563eb"></circle><circle class="dot" cx="170.14409221902017" cy="0" r="3" fill="#2563eb"></circle><circle class="dot" cx="172.21902017291066" cy="0" r="3" fill="#2563eb"></circle><circle class="dot" cx="174.29394812680115" cy="0" r="3" fill="#2563eb"></circle><circle class="dot" cx="176.36887608069165" cy="0" r="3" fill="#2563eb"></circle><circle class="dot" cx="178.44380403458212" cy="0" r="3" fill="#2563eb"></circle><circle class="dot" cx="180.51873198847264" cy="0" r="3" fill="#2563eb"></circle><circle class="dot" cx="182.5936599423631" cy="0" r="3" fill="#2563eb"></circle><circle class="dot" cx="184.6685878962536" cy="0" r="3" fill="#2563eb"></circle><circle class="dot" cx="186.7435158501441" cy="0" r="3" fill="#2563eb"></circle><circle class="dot" cx="188.8184438040346" cy="0" r="3" fill="#2563eb"></circle><circle class="dot" cx="190.89337175792505" cy="0" r="3" fill="#2563eb"></circle><circle class="dot" cx="192.96829971181555" cy="0" r="3" fill="#2563eb"></circle><circle class="dot" cx="195.04322766570604" cy="0" r="3" fill="#2563eb"></circle><circle class="dot" cx="197.11815561959654" cy="0" r="3" fill="#2563eb"></circle><circle class="dot" cx="199.19308357348706" cy="0" r="3" fill="#2563eb"></circle><circle class="dot" cx="201.26801152737752" cy="340" r="3" fill="#2563eb"></circle><circle class="dot" cx="203.34293948126802" cy="340" r="3" fill="#2563eb"></circle><circle class="dot" cx="205.4178674351585" cy="340" r="3" fill="#2563eb"></circle><circle class="dot" cx="207.492795389049" cy="340" r="3" fill="#2563eb"></circle><circle class="dot" cx="209.56772334293947" cy="340" r="3" fill="#2563eb"></circle><circle class="dot" cx="211.64265129682997" cy="340" r="3" fill="#2563eb"></circle><circle class="dot" cx="213.71757925072046" cy="340" r="3" fill="#2563eb"></circle><circle class="dot" cx="215.79250720461093" cy="340" r="3" fill="#2563eb"></circle><circle class="dot" cx="217.86743515850142" cy="0" r="3" fill="#2563eb"></circle><circle class="dot" cx="219.94236311239192" cy="0" r="3" fill="#2563eb"></circle><circle class="dot" cx="222.01729106628244" cy="0" r="3" fill="#2563eb"></circle><circle class="dot" cx="224.09221902017293" cy="0" r="3" fill="#2563eb"></circle><circle class="dot" cx="226.1671469740634" cy="0" r="3" fill="#2563eb"></circle><circle class="dot" cx="228.2420749279539" cy="0" r="3" fill="#2563eb"></circle><circle class="dot" cx="230.3170028818444" cy="0" r="3" fill="#2563eb"></circle><circle class="dot" cx="232.39193083573488" cy="0" r="3" fill="#2563eb"></circle><circle class="dot" cx="234.46685878962535" cy="0" r="3" fill="#2563eb"></circle><circle class="dot" cx="236.54178674351584" cy="0" r="3" fill="#2563eb"></circle><circle class="dot" cx="238.61671469740634" cy="0" r="3" fill="#2563eb"></circle><circle class="dot" cx="240.6916426512968" cy="0" r="3" fill="#2563eb"></circle><circle class="dot" cx="242.7665706051873" cy="0" r="3" fill="#2563eb"></circle><circle class="dot" cx="244.84149855907782" cy="0" r="3" fill="#2563eb"></circle><circle class="dot" cx="246.91642651296831" cy="0" r="3" fill="#2563eb"></circle><circle class="dot" cx="248.9913544668588" cy="0" r="3" fill="#2563eb"></circle><circle class="dot" cx="251.06628242074927" cy="0" r="3" fill="#2563eb"></circle><circle class="dot" cx="253.14121037463977" cy="0" r="3" fill="#2563eb"></circle><circle class="dot" cx="255.21613832853026" cy="0" r="3" fill="#2563eb"></circle><circle class="dot" cx="257.29106628242073" cy="0" r="3" fill="#2563eb"></circle><circle class="dot" cx="259.3659942363112" cy="0" r="3" fill="#2563eb"></circle><circle class="dot" cx="261.4409221902017" cy="0" r="3" fill="#2563eb"></circle><circle class="dot" cx="263.5158501440922" cy="0" r="3" fill="#2563eb"></circle><circle class="dot" cx="265.5907780979827" cy="0" r="3" fill="#2563eb"></circle><circle class="dot" cx="267.6657060518732" cy="0" r="3" fill="#2563eb"></circle><circle class="dot" cx="269.7406340057637" cy="0" r="3" fill="#2563eb"></circle><circle class="dot" cx="271.8155619596542" cy="0" r="3" fill="#2563eb"></circle><circle class="dot" cx="273.8904899135447" cy="0" r="3" fill="#2563eb"></circle><circle class="dot" cx="275.9654178674352" cy="0" r="3" fill="#2563eb"></circle><circle class="dot" cx="278.0403458213257" cy="0" r="3" fill="#2563eb"></circle><circle class="dot" cx="280.1152737752161" cy="0" r="3" fill="#2563eb"></circle><circle class="dot" cx="282.1902017291066" cy="0" r="3" fill="#2563eb"></circle><circle class="dot" cx="284.2651296829971" cy="0" r="3" fill="#2563eb"></circle><circle class="dot" cx="286.3400576368876" cy="0" r="3" fill="#2563eb"></circle><circle class="dot" cx="288.4149855907781" cy="0" r="3" fill="#2563eb"></circle><circle class="dot" cx="290.4899135446686" cy="0" r="3" fill="#2563eb"></circle><circle class="dot" cx="292.5648414985591" cy="0" r="3" fill="#2563eb"></circle><circle class="dot" cx="294.63976945244957" cy="0" r="3" fill="#2563eb"></circle><circle class="dot" cx="296.71469740634006" cy="0" r="3" fill="#2563eb"></circle><circle class="dot" cx="298.78962536023056" cy="0" r="3" fill="#2563eb"></circle><circle class="dot" cx="300.86455331412105" cy="0" r="3" fill="#2563eb"></circle><circle class="dot" cx="302.93948126801155" cy="0" r="3" fill="#2563eb"></circle><circle class="dot" cx="305.014409221902" cy="0" r="3" fill="#2563eb"></circle><circle class="dot" cx="307.0893371757925" cy="0" r="3" fill="#2563eb"></circle><circle class="dot" cx="309.164265129683" cy="0" r="3" fill="#2563eb"></circle><circle class="dot" cx="311.23919308357347" cy="0" r="3" fill="#2563eb"></circle><circle class="dot" cx="313.31412103746396" cy="0" r="3" fill="#2563eb"></circle><circle class="dot" cx="315.38904899135446" cy="0" r="3" fill="#2563eb"></circle><circle class="dot" cx="317.46397694524495" cy="0" r="3" fill="#2563eb"></circle><circle class="dot" cx="319.53890489913545" cy="0" r="3" fill="#2563eb"></circle><circle class="dot" cx="321.61383285302594" cy="0" r="3" fill="#2563eb"></circle><circle class="dot" cx="323.68876080691643" cy="0" r="3" fill="#2563eb"></circle><circle class="dot" cx="325.76368876080693" cy="0" r="3" fill="#2563eb"></circle><circle class="dot" cx="327.8386167146974" cy="0" r="3" fill="#2563eb"></circle><circle class="dot" cx="329.91354466858786" cy="0" r="3" fill="#2563eb"></circle><circle class="dot" cx="331.98847262247835" cy="0" r="3" fill="#2563eb"></circle><circle class="dot" cx="334.06340057636885" cy="0" r="3" fill="#2563eb"></circle><circle class="dot" cx="336.13832853025934" cy="0" r="3" fill="#2563eb"></circle><circle class="dot" cx="338.2132564841499" cy="0" r="3" fill="#2563eb"></circle><circle class="dot" cx="340.28818443804033" cy="0" r="3" fill="#2563eb"></circle><circle class="dot" cx="342.3631123919308" cy="0" r="3" fill="#2563eb"></circle><circle class="dot" cx="344.4380403458213" cy="0" r="3" fill="#2563eb"></circle><circle class="dot" cx="346.5129682997118" cy="0" r="3" fill="#2563eb"></circle><circle class="dot" cx="348.5878962536023" cy="0" r="3" fill="#2563eb"></circle><circle class="dot" cx="350.6628242074928" cy="0" r="3" fill="#2563eb"></circle><circle class="dot" cx="352.7377521613833" cy="0" r="3" fill="#2563eb"></circle><circle class="dot" cx="354.8126801152738" cy="0" r="3" fill="#2563eb"></circle><circle class="dot" cx="356.88760806916423" cy="0" r="3" fill="#2563eb"></circle><circle class="dot" cx="358.9625360230547" cy="0" r="3" fill="#2563eb"></circle><circle class="dot" cx="361.0374639769453" cy="0" r="3" fill="#2563eb"></circle><circle class="dot" cx="363.1123919308357" cy="0" r="3" fill="#2563eb"></circle><circle class="dot" cx="365.1873198847262" cy="0" r="3" fill="#2563eb"></circle><circle class="dot" cx="367.2622478386167" cy="0" r="3" fill="#2563eb"></circle><circle class="dot" cx="369.3371757925072" cy="0" r="3" fill="#2563eb"></circle><circle class="dot" cx="371.41210374639763" cy="0" r="3" fill="#2563eb"></circle><circle class="dot" cx="373.4870317002882" cy="0" r="3" fill="#2563eb"></circle><circle class="dot" cx="375.56195965417874" cy="0" r="3" fill="#2563eb"></circle><circle class="dot" cx="377.6368876080692" cy="0" r="3" fill="#2563eb"></circle><circle class="dot" cx="379.71181556195967" cy="0" r="3" fill="#2563eb"></circle><circle class="dot" cx="381.7867435158501" cy="0" r="3" fill="#2563eb"></circle><circle class="dot" cx="383.86167146974066" cy="0" r="3" fill="#2563eb"></circle><circle class="dot" cx="385.9365994236311" cy="0" r="3" fill="#2563eb"></circle><circle class="dot" cx="388.01152737752165" cy="0" r="3" fill="#2563eb"></circle><circle class="dot" cx="390.0864553314121" cy="0" r="3" fill="#2563eb"></circle><circle class="dot" cx="392.1613832853026" cy="0" r="3" fill="#2563eb"></circle><circle class="dot" cx="394.23631123919307" cy="0" r="3" fill="#2563eb"></circle><circle class="dot" cx="396.31123919308357" cy="0" r="3" fill="#2563eb"></circle><circle class="dot" cx="398.3861671469741" cy="0" r="3" fill="#2563eb"></circle><circle class="dot" cx="400.46109510086455" cy="0" r="3" fill="#2563eb"></circle><circle class="dot" cx="402.53602305475505" cy="0" r="3" fill="#2563eb"></circle><circle class="dot" cx="404.61095100864554" cy="0" r="3" fill="#2563eb"></circle><circle class="dot" cx="406.68587896253604" cy="0" r="3" fill="#2563eb"></circle><circle class="dot" cx="408.7608069164265" cy="0" r="3" fill="#2563eb"></circle><circle class="dot" cx="410.835734870317" cy="0" r="3" fill="#2563eb"></circle><circle class="dot" cx="412.91066282420746" cy="0" r="3" fill="#2563eb"></circle><circle class="dot" cx="414.985590778098" cy="0" r="3" fill="#2563eb"></circle><circle class="dot" cx="417.06051873198845" cy="0" r="3" fill="#2563eb"></circle><circle class="dot" cx="419.13544668587895" cy="0" r="3" fill="#2563eb"></circle><circle class="dot" cx="421.2103746397695" cy="0" r="3" fill="#2563eb"></circle><circle class="dot" cx="423.28530259365994" cy="0" r="3" fill="#2563eb"></circle><circle class="dot" cx="425.3602305475505" cy="0" r="3" fill="#2563eb"></circle><circle class="dot" cx="427.4351585014409" cy="0" r="3" fill="#2563eb"></circle><circle class="dot" cx="429.5100864553314" cy="0" r="3" fill="#2563eb"></circle><circle class="dot" cx="431.58501440922186" cy="0" r="3" fill="#2563eb"></circle><circle class="dot" cx="433.6599423631124" cy="0" r="3" fill="#2563eb"></circle><circle class="dot" cx="435.73487031700284" cy="0" r="3" fill="#2563eb"></circle><circle class="dot" cx="437.8097982708934" cy="0" r="3" fill="#2563eb"></circle><circle class="dot" cx="439.88472622478383" cy="0" r="3" fill="#2563eb"></circle><circle class="dot" cx="441.9596541786743" cy="0" r="3" fill="#2563eb"></circle><circle class="dot" cx="444.0345821325649" cy="0" r="3" fill="#2563eb"></circle><circle class="dot" cx="446.1095100864553" cy="0" r="3" fill="#2563eb"></circle><circle class="dot" cx="448.18443804034587" cy="0" r="3" fill="#2563eb"></circle><circle class="dot" cx="450.2593659942363" cy="0" r="3" fill="#2563eb"></circle><circle class="dot" cx="452.3342939481268" cy="0" r="3" fill="#2563eb"></circle><circle class="dot" cx="454.4092219020173" cy="0" r="3" fill="#2563eb"></circle><circle class="dot" cx="456.4841498559078" cy="0" r="3" fill="#2563eb"></circle><circle class="dot" cx="458.5590778097982" cy="0" r="3" fill="#2563eb"></circle><circle class="dot" cx="460.6340057636888" cy="0" r="3" fill="#2563eb"></circle><circle class="dot" cx="462.7089337175792" cy="0" r="3" fill="#2563eb"></circle><circle class="dot" cx="464.78386167146977" cy="0" r="3" fill="#2563eb"></circle><circle class="dot" cx="466.85878962536026" cy="0" r="3" fill="#2563eb"></circle><circle class="dot" cx="468.9337175792507" cy="0" r="3" fill="#2563eb"></circle><circle class="dot" cx="471.00864553314125" cy="0" r="3" fill="#2563eb"></circle><circle class="dot" cx="473.0835734870317" cy="0" r="3" fill="#2563eb"></circle><circle class="dot" cx="475.15850144092224" cy="0" r="3" fill="#2563eb"></circle><circle class="dot" cx="477.2334293948127" cy="0" r="3" fill="#2563eb"></circle><circle class="dot" cx="479.30835734870317" cy="0" r="3" fill="#2563eb"></circle><circle class="dot" cx="481.3832853025936" cy="0" r="3" fill="#2563eb"></circle><circle class="dot" cx="483.45821325648416" cy="0" r="3" fill="#2563eb"></circle><circle class="dot" cx="485.5331412103746" cy="0" r="3" fill="#2563eb"></circle><circle class="dot" cx="487.60806916426515" cy="0" r="3" fill="#2563eb"></circle><circle class="dot" cx="489.68299711815564" cy="0" r="3" fill="#2563eb"></circle><circle class="dot" cx="491.7579250720461" cy="0" r="3" fill="#2563eb"></circle><circle class="dot" cx="493.83285302593663" cy="0" r="3" fill="#2563eb"></circle><circle class="dot" cx="495.90778097982707" cy="0" r="3" fill="#2563eb"></circle><circle class="dot" cx="497.9827089337176" cy="0" r="3" fill="#2563eb"></circle><circle class="dot" cx="500.05763688760806" cy="0" r="3" fill="#2563eb"></circle><circle class="dot" cx="502.13256484149855" cy="0" r="3" fill="#2563eb"></circle><circle class="dot" cx="504.20749279538904" cy="0" r="3" fill="#2563eb"></circle><circle class="dot" cx="506.28242074927954" cy="0" r="3" fill="#2563eb"></circle><circle class="dot" cx="508.35734870317" cy="0" r="3" fill="#2563eb"></circle><circle class="dot" cx="510.4322766570605" cy="0" r="3" fill="#2563eb"></circle><circle class="dot" cx="512.507204610951" cy="0" r="3" fill="#2563eb"></circle><circle class="dot" cx="514.5821325648415" cy="0" r="3" fill="#2563eb"></circle><circle class="dot" cx="516.657060518732" cy="0" r="3" fill="#2563eb"></circle><circle class="dot" cx="518.7319884726224" cy="0" r="3" fill="#2563eb"></circle><circle class="dot" cx="520.806916426513" cy="0" r="3" fill="#2563eb"></circle><circle class="dot" cx="522.8818443804034" cy="0" r="3" fill="#2563eb"></circle><circle class="dot" cx="524.956772334294" cy="0" r="3" fill="#2563eb"></circle><circle class="dot" cx="527.0317002881844" cy="0" r="3" fill="#2563eb"></circle><circle class="dot" cx="529.106628242075" cy="0" r="3" fill="#2563eb"></circle><circle class="dot" cx="531.1815561959654" cy="0" r="3" fill="#2563eb"></circle><circle class="dot" cx="533.256484149856" cy="0" r="3" fill="#2563eb"></circle><circle class="dot" cx="535.3314121037464" cy="0" r="3" fill="#2563eb"></circle><circle class="dot" cx="537.4063400576368" cy="0" r="3" fill="#2563eb"></circle><circle class="dot" cx="539.4812680115274" cy="0" r="3" fill="#2563eb"></circle><circle class="dot" cx="541.5561959654178" cy="0" r="3" fill="#2563eb"></circle><circle class="dot" cx="543.6311239193084" cy="0" r="3" fill="#2563eb"></circle><circle class="dot" cx="545.7060518731988" cy="0" r="3" fill="#2563eb"></circle><circle class="dot" cx="547.7809798270894" cy="0" r="3" fill="#2563eb"></circle><circle class="dot" cx="549.8559077809798" cy="0" r="3" fill="#2563eb"></circle><circle class="dot" cx="551.9308357348704" cy="0" r="3" fill="#2563eb"></circle><circle class="dot" cx="554.0057636887608" cy="0" r="3" fill="#2563eb"></circle><circle class="dot" cx="556.0806916426513" cy="0" r="3" fill="#2563eb"></circle><circle class="dot" cx="558.1556195965418" cy="0" r="3" fill="#2563eb"></circle><circle class="dot" cx="560.2305475504322" cy="0" r="3" fill="#2563eb"></circle><circle class="dot" cx="562.3054755043228" cy="0" r="3" fill="#2563eb"></circle><circle class="dot" cx="564.3804034582132" cy="0" r="3" fill="#2563eb"></circle><circle class="dot" cx="566.4553314121038" cy="0" r="3" fill="#2563eb"></circle><circle class="dot" cx="568.5302593659942" cy="0" r="3" fill="#2563eb"></circle><circle class="dot" cx="570.6051873198847" cy="0" r="3" fill="#2563eb"></circle><circle class="dot" cx="572.6801152737752" cy="0" r="3" fill="#2563eb"></circle><circle class="dot" cx="574.7550432276657" cy="0" r="3" fill="#2563eb"></circle><circle class="dot" cx="576.8299711815562" cy="0" r="3" fill="#2563eb"></circle><circle class="dot" cx="578.9048991354467" cy="0" r="3" fill="#2563eb"></circle><circle class="dot" cx="580.9798270893372" cy="0" r="3" fill="#2563eb"></circle><circle class="dot" cx="583.0547550432277" cy="0" r="3" fill="#2563eb"></circle><circle class="dot" cx="585.1296829971182" cy="0" r="3" fill="#2563eb"></circle><circle class="dot" cx="587.2046109510086" cy="0" r="3" fill="#2563eb"></circle><circle class="dot" cx="589.2795389048991" cy="0" r="3" fill="#2563eb"></circle><circle class="dot" cx="591.3544668587896" cy="0" r="3" fill="#2563eb"></circle><circle class="dot" cx="593.4293948126801" cy="0" r="3" fill="#2563eb"></circle><circle class="dot" cx="595.5043227665706" cy="0" r="3" fill="#2563eb"></circle><circle class="dot" cx="597.5792507204611" cy="0" r="3" fill="#2563eb"></circle><circle class="dot" cx="599.6541786743516" cy="0" r="3" fill="#2563eb"></circle><circle class="dot" cx="601.7291066282421" cy="0" r="3" fill="#2563eb"></circle><circle class="dot" cx="603.8040345821325" cy="0" r="3" fill="#2563eb"></circle><circle class="dot" cx="605.8789625360231" cy="0" r="3" fill="#2563eb"></circle><circle class="dot" cx="607.9538904899135" cy="0" r="3" fill="#2563eb"></circle><circle class="dot" cx="610.028818443804" cy="0" r="3" fill="#2563eb"></circle><circle class="dot" cx="612.1037463976945" cy="0" r="3" fill="#2563eb"></circle><circle class="dot" cx="614.178674351585" cy="0" r="3" fill="#2563eb"></circle><circle class="dot" cx="616.2536023054755" cy="0" r="3" fill="#2563eb"></circle><circle class="dot" cx="618.328530259366" cy="0" r="3" fill="#2563eb"></circle><circle class="dot" cx="620.4034582132565" cy="0" r="3" fill="#2563eb"></circle><circle class="dot" cx="622.4783861671469" cy="0" r="3" fill="#2563eb"></circle><circle class="dot" cx="624.5533141210375" cy="0" r="3" fill="#2563eb"></circle><circle class="dot" cx="626.6282420749279" cy="0" r="3" fill="#2563eb"></circle><circle class="dot" cx="628.7031700288185" cy="0" r="3" fill="#2563eb"></circle><circle class="dot" cx="630.7780979827089" cy="0" r="3" fill="#2563eb"></circle><circle class="dot" cx="632.8530259365995" cy="0" r="3" fill="#2563eb"></circle><circle class="dot" cx="634.9279538904899" cy="0" r="3" fill="#2563eb"></circle><circle class="dot" cx="637.0028818443803" cy="0" r="3" fill="#2563eb"></circle><circle class="dot" cx="639.0778097982709" cy="0" r="3" fill="#2563eb"></circle><circle class="dot" cx="641.1527377521613" cy="0" r="3" fill="#2563eb"></circle><circle class="dot" cx="643.2276657060519" cy="0" r="3" fill="#2563eb"></circle><circle class="dot" cx="645.3025936599423" cy="0" r="3" fill="#2563eb"></circle><circle class="dot" cx="647.3775216138329" cy="0" r="3" fill="#2563eb"></circle><circle class="dot" cx="649.4524495677233" cy="0" r="3" fill="#2563eb"></circle><circle class="dot" cx="651.5273775216139" cy="0" r="3" fill="#2563eb"></circle><circle class="dot" cx="653.6023054755044" cy="0" r="3" fill="#2563eb"></circle><circle class="dot" cx="655.6772334293948" cy="0" r="3" fill="#2563eb"></circle><circle class="dot" cx="657.7521613832853" cy="0" r="3" fill="#2563eb"></circle><circle class="dot" cx="659.8270893371757" cy="0" r="3" fill="#2563eb"></circle><circle class="dot" cx="661.9020172910663" cy="0" r="3" fill="#2563eb"></circle><circle class="dot" cx="663.9769452449567" cy="0" r="3" fill="#2563eb"></circle><circle class="dot" cx="666.0518731988473" cy="0" r="3" fill="#2563eb"></circle><circle class="dot" cx="668.1268011527377" cy="0" r="3" fill="#2563eb"></circle><circle class="dot" cx="670.2017291066282" cy="0" r="3" fill="#2563eb"></circle><circle class="dot" cx="672.2766570605187" cy="0" r="3" fill="#2563eb"></circle><circle class="dot" cx="674.3515850144092" cy="0" r="3" fill="#2563eb"></circle><circle class="dot" cx="676.4265129682998" cy="0" r="3" fill="#2563eb"></circle><circle class="dot" cx="678.5014409221902" cy="0" r="3" fill="#2563eb"></circle><circle class="dot" cx="680.5763688760807" cy="0" r="3" fill="#2563eb"></circle><circle class="dot" cx="682.6512968299712" cy="0" r="3" fill="#2563eb"></circle><circle class="dot" cx="684.7262247838617" cy="0" r="3" fill="#2563eb"></circle><circle class="dot" cx="686.8011527377521" cy="0" r="3" fill="#2563eb"></circle><circle class="dot" cx="688.8760806916426" cy="0" r="3" fill="#2563eb"></circle><circle class="dot" cx="690.9510086455331" cy="0" r="3" fill="#2563eb"></circle><circle class="dot" cx="693.0259365994236" cy="0" r="3" fill="#2563eb"></circle><circle class="dot" cx="695.1008645533141" cy="0" r="3" fill="#2563eb"></circle><circle class="dot" cx="697.1757925072046" cy="0" r="3" fill="#2563eb"></circle><circle class="dot" cx="699.2507204610952" cy="0" r="3" fill="#2563eb"></circle><circle class="dot" cx="701.3256484149856" cy="0" r="3" fill="#2563eb"></circle><circle class="dot" cx="703.4005763688762" cy="0" r="3" fill="#2563eb"></circle><circle class="dot" cx="705.4755043227666" cy="0" r="3" fill="#2563eb"></circle><circle class="dot" cx="707.550432276657" cy="0" r="3" fill="#2563eb"></circle><circle class="dot" cx="709.6253602305476" cy="0" r="3" fill="#2563eb"></circle><circle class="dot" cx="711.700288184438" cy="0" r="3" fill="#2563eb"></circle><circle class="dot" cx="713.7752161383285" cy="0" r="3" fill="#2563eb"></circle><circle class="dot" cx="715.850144092219" cy="0" r="3" fill="#2563eb"></circle><circle class="dot" cx="717.9250720461094" cy="0" r="3" fill="#2563eb"></circle><circle class="dot" cx="720" cy="0" r="3" fill="#2563eb"></circle><g class="grid" transform="translate(0,340)" fill="none" font-size="10" font-family="sans-serif" text-anchor="middle" style="stroke-dasharray: 3,3; opacity: 0.3;"><path class="domain" stroke="currentColor" d="M0.5,-340V0.5H720.5V-340"></path><g class="tick" opacity="1" transform="translate(0.5,0)"><line stroke="currentColor" y2="-340"></line><text fill="currentColor" y="3" dy="0.71em"></text></g><g class="tick" opacity="1" transform="translate(50.298270893371765,0)"><line stroke="currentColor" y2="-340"></line><text fill="currentColor" y="3" dy="0.71em"></text></g><g class="tick" opacity="1" transform="translate(100.09654178674353,0)"><line stroke="currentColor" y2="-340"></line><text fill="currentColor" y="3" dy="0.71em"></text></g><g class="tick" opacity="1" transform="translate(149.89481268011528,0)"><line stroke="currentColor" y2="-340"></line><text fill="currentColor" y="3" dy="0.71em"></text></g><g class="tick" opacity="1" transform="translate(199.69308357348706,0)"><line stroke="currentColor" y2="-340"></line><text fill="currentColor" y="3" dy="0.71em"></text></g><g class="tick" opacity="1" transform="translate(249.4913544668588,0)"><line stroke="currentColor" y2="-340"></line><text fill="currentColor" y="3" dy="0.71em"></text></g><g class="tick" opacity="1" transform="translate(299.28962536023056,0)"><line stroke="currentColor" y2="-340"></line><text fill="currentColor" y="3" dy="0.71em"></text></g><g class="tick" opacity="1" transform="translate(349.0878962536023,0)"><line stroke="currentColor" y2="-340"></line><text fill="currentColor" y="3" dy="0.71em"></text></g><g class="tick" opacity="1" transform="translate(398.8861671469741,0)"><line stroke="currentColor" y2="-340"></line><text fill="currentColor" y="3" dy="0.71em"></text></g><g class="tick" opacity="1" transform="translate(448.68443804034587,0)"><line stroke="currentColor" y2="-340"></line><text fill="currentColor" y="3" dy="0.71em"></text></g><g class="tick" opacity="1" transform="translate(498.4827089337176,0)"><line stroke="currentColor" y2="-340"></line><text fill="currentColor" y="3" dy="0.71em"></text></g><g class="tick" opacity="1" transform="translate(548.2809798270894,0)"><line stroke="currentColor" y2="-340"></line><text fill="currentColor" y="3" dy="0.71em"></text></g><g class="tick" opacity="1" transform="translate(598.0792507204611,0)"><line stroke="currentColor" y2="-340"></line><text fill="currentColor" y="3" dy="0.71em"></text></g><g class="tick" opacity="1" transform="translate(647.8775216138329,0)"><line stroke="currentColor" y2="-340"></line><text fill="currentColor" y="3" dy="0.71em"></text></g><g class="tick" opacity="1" transform="translate(697.6757925072046,0)"><line stroke="currentColor" y2="-340"></line><text fill="currentColor" y="3" dy="0.71em"></text></g></g><g class="grid" fill="none" font-size="10" font-family="sans-serif" text-anchor="end" style="stroke-dasharray: 3,3; opacity: 0.3;"><path class="domain" stroke="currentColor" d="M720,340.5H0.5V0.5H720"></path><g class="tick" opacity="1" transform="translate(0,340.5)"><line stroke="currentColor" x2="720"></line><text fill="currentColor" x="-3" dy="0.32em"></text></g><g class="tick" opacity="1" transform="translate(0,306.5)"><line stroke="currentColor" x2="720"></line><text fill="currentColor" x="-3" dy="0.32em"></text></g><g class="tick" opacity="1" transform="translate(0,272.5)"><line stroke="currentColor" x2="720"></line><text fill="currentColor" x="-3" dy="0.32em"></text></g><g class="tick" opacity="1" transform="translate(0,238.49999999999997)"><line stroke="currentColor" x2="720"></line><text fill="currentColor" x="-3" dy="0.32em"></text></g><g class="tick" opacity="1" transform="translate(0,204.50000000000003)"><line stroke="currentColor" x2="720"></line><text fill="currentColor" x="-3" dy="0.32em"></text></g><g class="tick" opacity="1" transform="translate(0,170.49999999999997)"><line stroke="currentColor" x2="720"></line><text fill="currentColor" x="-3" dy="0.32em"></text></g><g class="tick" opacity="1" transform="translate(0,136.5)"><line stroke="currentColor" x2="720"></line><text fill="currentColor" x="-3" dy="0.32em"></text></g><g class="tick" opacity="1" transform="translate(0,102.49999999999997)"><line stroke="currentColor" x2="720"></line><text fill="currentColor" x="-3" dy="0.32em"></text></g><g class="tick" opacity="1" transform="translate(0,68.49999999999994)"><line stroke="currentColor" x2="720"></line><text fill="currentColor" x="-3" dy="0.32em"></text></g><g class="tick" opacity="1" transform="translate(0,34.499999999999915)"><line stroke="currentColor" x2="720"></line><text fill="currentColor" x="-3" dy="0.32em"></text></g><g class="tick" opacity="1" transform="translate(0,0.5)"><line stroke="currentColor" x2="720"></line><text fill="currentColor" x="-3" dy="0.32em"></text></g></g></g><text x="400" y="10" text-anchor="middle" style="font-size: 16px; font-weight: bold; fill: #333;">OKX USDT Lending Rate - Current Month</text></svg>