<svg width="800" height="400" xmlns="http://www.w3.org/2000/svg"><g transform="translate(50,20)"><g transform="translate(0,340)" fill="none" font-size="10" font-family="sans-serif" text-anchor="middle"><path class="domain" stroke="currentColor" d="M0.5,6V0.5H720.5V6"></path><g class="tick" opacity="1" transform="translate(0.5,0)"><line stroke="currentColor" y2="6"></line><text fill="currentColor" y="9" dy=".15em" style="text-anchor: end;" dx="-.8em" transform="rotate(-45)">02/01</text></g><g class="tick" opacity="1" transform="translate(31.247330960854093,0)"><line stroke="currentColor" y2="6"></line><text fill="currentColor" y="9" dy=".15em" style="text-anchor: end;" dx="-.8em" transform="rotate(-45)">02/02</text></g><g class="tick" opacity="1" transform="translate(61.994661921708186,0)"><line stroke="currentColor" y2="6"></line><text fill="currentColor" y="9" dy=".15em" style="text-anchor: end;" dx="-.8em" transform="rotate(-45)">02/03</text></g><g class="tick" opacity="1" transform="translate(92.74199288256229,0)"><line stroke="currentColor" y2="6"></line><text fill="currentColor" y="9" dy=".15em" style="text-anchor: end;" dx="-.8em" transform="rotate(-45)">02/04</text></g><g class="tick" opacity="1" transform="translate(123.48932384341637,0)"><line stroke="currentColor" y2="6"></line><text fill="currentColor" y="9" dy=".15em" style="text-anchor: end;" dx="-.8em" transform="rotate(-45)">02/05</text></g><g class="tick" opacity="1" transform="translate(154.23665480427047,0)"><line stroke="currentColor" y2="6"></line><text fill="currentColor" y="9" dy=".15em" style="text-anchor: end;" dx="-.8em" transform="rotate(-45)">02/06</text></g><g class="tick" opacity="1" transform="translate(184.98398576512457,0)"><line stroke="currentColor" y2="6"></line><text fill="currentColor" y="9" dy=".15em" style="text-anchor: end;" dx="-.8em" transform="rotate(-45)">02/07</text></g><g class="tick" opacity="1" transform="translate(215.73131672597864,0)"><line stroke="currentColor" y2="6"></line><text fill="currentColor" y="9" dy=".15em" style="text-anchor: end;" dx="-.8em" transform="rotate(-45)">02/08</text></g><g class="tick" opacity="1" transform="translate(246.47864768683274,0)"><line stroke="currentColor" y2="6"></line><text fill="currentColor" y="9" dy=".15em" style="text-anchor: end;" dx="-.8em" transform="rotate(-45)">02/09</text></g><g class="tick" opacity="1" transform="translate(277.2259786476868,0)"><line stroke="currentColor" y2="6"></line><text fill="currentColor" y="9" dy=".15em" style="text-anchor: end;" dx="-.8em" transform="rotate(-45)">02/10</text></g><g class="tick" opacity="1" transform="translate(307.97330960854094,0)"><line stroke="currentColor" y2="6"></line><text fill="currentColor" y="9" dy=".15em" style="text-anchor: end;" dx="-.8em" transform="rotate(-45)">02/11</text></g><g class="tick" opacity="1" transform="translate(338.720640569395,0)"><line stroke="currentColor" y2="6"></line><text fill="currentColor" y="9" dy=".15em" style="text-anchor: end;" dx="-.8em" transform="rotate(-45)">02/12</text></g><g class="tick" opacity="1" transform="translate(369.46797153024914,0)"><line stroke="currentColor" y2="6"></line><text fill="currentColor" y="9" dy=".15em" style="text-anchor: end;" dx="-.8em" transform="rotate(-45)">02/13</text></g><g class="tick" opacity="1" transform="translate(400.2153024911032,0)"><line stroke="currentColor" y2="6"></line><text fill="currentColor" y="9" dy=".15em" style="text-anchor: end;" dx="-.8em" transform="rotate(-45)">02/14</text></g><g class="tick" opacity="1" transform="translate(430.9626334519573,0)"><line stroke="currentColor" y2="6"></line><text fill="currentColor" y="9" dy=".15em" style="text-anchor: end;" dx="-.8em" transform="rotate(-45)">02/15</text></g><g class="tick" opacity="1" transform="translate(461.7099644128114,0)"><line stroke="currentColor" y2="6"></line><text fill="currentColor" y="9" dy=".15em" style="text-anchor: end;" dx="-.8em" transform="rotate(-45)">02/16</text></g><g class="tick" opacity="1" transform="translate(492.4572953736655,0)"><line stroke="currentColor" y2="6"></line><text fill="currentColor" y="9" dy=".15em" style="text-anchor: end;" dx="-.8em" transform="rotate(-45)">02/17</text></g><g class="tick" opacity="1" transform="translate(523.2046263345196,0)"><line stroke="currentColor" y2="6"></line><text fill="currentColor" y="9" dy=".15em" style="text-anchor: end;" dx="-.8em" transform="rotate(-45)">02/18</text></g><g class="tick" opacity="1" transform="translate(553.9519572953736,0)"><line stroke="currentColor" y2="6"></line><text fill="currentColor" y="9" dy=".15em" style="text-anchor: end;" dx="-.8em" transform="rotate(-45)">02/19</text></g><g class="tick" opacity="1" transform="translate(584.6992882562278,0)"><line stroke="currentColor" y2="6"></line><text fill="currentColor" y="9" dy=".15em" style="text-anchor: end;" dx="-.8em" transform="rotate(-45)">02/20</text></g><g class="tick" opacity="1" transform="translate(615.4466192170819,0)"><line stroke="currentColor" y2="6"></line><text fill="currentColor" y="9" dy=".15em" style="text-anchor: end;" dx="-.8em" transform="rotate(-45)">02/21</text></g><g class="tick" opacity="1" transform="translate(646.1939501779359,0)"><line stroke="currentColor" y2="6"></line><text fill="currentColor" y="9" dy=".15em" style="text-anchor: end;" dx="-.8em" transform="rotate(-45)">02/22</text></g><g class="tick" opacity="1" transform="translate(676.94128113879,0)"><line stroke="currentColor" y2="6"></line><text fill="currentColor" y="9" dy=".15em" style="text-anchor: end;" dx="-.8em" transform="rotate(-45)">02/23</text></g><g class="tick" opacity="1" transform="translate(707.688612099644,0)"><line stroke="currentColor" y2="6"></line><text fill="currentColor" y="9" dy=".15em" style="text-anchor: end;" dx="-.8em" transform="rotate(-45)">02/24</text></g></g><g fill="none" font-size="10" font-family="sans-serif" text-anchor="end"><path class="domain" stroke="currentColor" d="M-6,340.5H0.5V0.5H-6"></path><g class="tick" opacity="1" transform="translate(0,340.5)"><line stroke="currentColor" x2="-6"></line><text fill="currentColor" x="-9" dy="0.32em">3.00%</text></g><g class="tick" opacity="1" transform="translate(0,297.99999999999994)"><line stroke="currentColor" x2="-6"></line><text fill="currentColor" x="-9" dy="0.32em">3.10%</text></g><g class="tick" opacity="1" transform="translate(0,255.49999999999991)"><line stroke="currentColor" x2="-6"></line><text fill="currentColor" x="-9" dy="0.32em">3.20%</text></g><g class="tick" opacity="1" transform="translate(0,212.9999999999999)"><line stroke="currentColor" x2="-6"></line><text fill="currentColor" x="-9" dy="0.32em">3.30%</text></g><g class="tick" opacity="1" transform="translate(0,170.49999999999986)"><line stroke="currentColor" x2="-6"></line><text fill="currentColor" x="-9" dy="0.32em">3.40%</text></g><g class="tick" opacity="1" transform="translate(0,127.99999999999982)"><line stroke="currentColor" x2="-6"></line><text fill="currentColor" x="-9" dy="0.32em">3.50%</text></g><g class="tick" opacity="1" transform="translate(0,85.50000000000007)"><line stroke="currentColor" x2="-6"></line><text fill="currentColor" x="-9" dy="0.32em">3.60%</text></g><g class="tick" opacity="1" transform="translate(0,43.000000000000036)"><line stroke="currentColor" x2="-6"></line><text fill="currentColor" x="-9" dy="0.32em">3.70%</text></g><g class="tick" opacity="1" transform="translate(0,0.5)"><line stroke="currentColor" x2="-6"></line><text fill="currentColor" x="-9" dy="0.32em">3.80%</text></g></g><text transform="rotate(-90)" y="-50" x="-170" dy="1em" style="text-anchor: middle; font-size: 12px; fill: #666;">Pre Rate (%)</text><text transform="translate(360, 380)" style="text-anchor: middle; font-size: 12px; fill: #666;">Time (UTC)</text><path fill="none" stroke="#2563eb" stroke-width="2" d="M0,0C0.427,0,0.854,0,1.281,0C1.708,0,2.135,0,2.562,0C2.989,0,3.416,0,3.843,0C4.27,0,4.698,0,5.125,0C5.552,0,5.979,0,6.406,0C6.833,0,7.26,0,7.687,0C8.114,0,8.541,0,8.968,0C9.395,0,9.822,0,10.249,0C10.676,0,11.103,0,11.53,0C11.957,0,12.384,0,12.811,0C13.238,0,13.665,0,14.093,0C14.52,0,14.947,0,15.374,0C15.801,0,16.228,0,16.655,0C17.082,0,17.509,0,17.936,0C18.363,0,18.79,0,19.217,0C19.644,0,20.071,0,20.498,0C20.925,0,21.352,0,21.779,0C22.206,0,22.633,0,23.06,0C23.488,0,23.915,0,24.342,0C24.769,0,25.196,0,25.623,0C26.05,0,26.477,0,26.904,0C27.331,0,27.758,0,28.185,0C28.612,0,29.039,0,29.466,0C29.893,0,30.32,0,30.747,0C31.174,0,31.601,0,32.028,0C32.456,0,32.883,0,33.31,0C33.737,0,34.164,0,34.591,0C35.018,0,35.445,0,35.872,0C36.299,0,36.726,0,37.153,0C37.58,0,38.007,0,38.434,0C38.861,0,39.288,0,39.715,0C40.142,0,40.569,0,40.996,0C41.423,0,41.851,0,42.278,0C42.705,0,43.132,0,43.559,0C43.986,0,44.413,0,44.84,0C45.267,0,45.694,0,46.121,0C46.548,0,46.975,0,47.402,0C47.829,0,48.256,0,48.683,0C49.11,0,49.537,0,49.964,0C50.391,0,50.819,0,51.246,0C51.673,0,52.1,0,52.527,0C52.954,0,53.381,0,53.808,0C54.235,0,54.662,0,55.089,0C55.516,0,55.943,0,56.37,0C56.797,0,57.224,0,57.651,0C58.078,0,58.505,0,58.932,0C59.359,0,59.786,0,60.214,0C60.641,0,61.068,0,61.495,0C61.922,0,62.349,0,62.776,0C63.203,0,63.63,0,64.057,0C64.484,0,64.911,0,65.338,0C65.765,0,66.192,0,66.619,0C67.046,0,67.473,0,67.9,0C68.327,0,68.754,0,69.181,0C69.609,0,70.036,0,70.463,0C70.89,0,71.317,0,71.744,0C72.171,0,72.598,0,73.025,0C73.452,0,73.879,0,74.306,0C74.733,0,75.16,0,75.587,0C76.014,0,76.441,0,76.868,0C77.295,0,77.722,0,78.149,0C78.577,0,79.004,0,79.431,0C79.858,0,80.285,0,80.712,0C81.139,0,81.566,0,81.993,0C82.42,0,82.847,0,83.274,0C83.701,0,84.128,0,84.555,0C84.982,0,85.409,0,85.836,0C86.263,0,86.69,0,87.117,0C87.544,0,87.972,0,88.399,0C88.826,0,89.253,0,89.68,0C90.107,0,90.534,0,90.961,0C91.388,0,91.815,0,92.242,0C92.669,0,93.096,0,93.523,0C93.95,0,94.377,0,94.804,0C95.231,0,95.658,0,96.085,0C96.512,0,96.94,0,97.367,0C97.794,0,98.221,0,98.648,0C99.075,0,99.502,0,99.929,0C100.356,0,100.783,0,101.21,0C101.637,0,102.064,0,102.491,0C102.918,0,103.345,0,103.772,0C104.199,0,104.626,0,105.053,0C105.48,0,105.907,0,106.335,0C106.762,0,107.189,0,107.616,0C108.043,0,108.47,0,108.897,0C109.324,0,109.751,127.5,110.178,127.5C110.605,127.5,111.032,127.5,111.459,127.5C111.886,127.5,112.313,127.5,112.74,127.5C113.167,127.5,113.594,127.5,114.021,127.5C114.448,127.5,114.875,127.5,115.302,127.5C115.73,127.5,116.157,127.5,116.584,127.5C117.011,127.5,117.438,127.5,117.865,127.5C118.292,127.5,118.719,127.5,119.146,127.5C119.573,127.5,120,127.5,120.427,127.5C120.854,127.5,121.281,127.5,121.708,127.5C122.135,127.5,122.562,127.5,122.989,127.5C123.416,127.5,123.843,127.5,124.27,127.5C124.698,127.5,125.125,127.5,125.552,127.5C125.979,127.5,126.406,127.5,126.833,127.5C127.26,127.5,127.687,127.5,128.114,127.5C128.541,127.5,128.968,127.5,129.395,127.5C129.822,127.5,130.249,127.5,130.676,127.5C131.103,127.5,131.53,127.5,131.957,127.5C132.384,127.5,132.811,127.5,133.238,127.5C133.665,127.5,134.093,127.5,134.52,127.5C134.947,127.5,135.374,127.5,135.801,127.5C136.228,127.5,136.655,127.5,137.082,127.5C137.509,127.5,137.936,127.5,138.363,127.5C138.79,127.5,139.217,127.5,139.644,127.5C140.071,127.5,140.498,127.5,140.925,127.5C141.352,127.5,141.779,127.5,142.206,127.5C142.633,127.5,143.06,127.5,143.488,127.5C143.915,127.5,144.342,127.5,144.769,127.5C145.196,127.5,145.623,127.5,146.05,127.5C146.477,127.5,146.904,127.5,147.331,127.5C147.758,127.5,148.185,127.5,148.612,127.5C149.039,127.5,149.466,127.5,149.893,127.5C150.32,127.5,150.747,127.5,151.174,127.5C151.601,127.5,152.028,127.5,152.456,127.5C152.883,127.5,153.31,127.5,153.737,127.5C154.164,127.5,154.591,127.5,155.018,127.5C155.445,127.5,155.872,127.5,156.299,127.5C156.726,127.5,157.153,127.5,157.58,127.5C158.007,127.5,158.434,127.5,158.861,127.5C159.288,127.5,159.715,127.5,160.142,127.5C160.569,127.5,160.996,127.5,161.423,127.5C161.851,127.5,162.278,127.5,162.705,127.5C163.132,127.5,163.559,127.5,163.986,127.5C164.413,127.5,164.84,127.5,165.267,127.5C165.694,127.5,166.121,127.5,166.548,127.5C166.975,127.5,167.402,127.5,167.829,127.5C168.256,127.5,168.683,127.5,169.11,127.5C169.537,127.5,169.964,127.5,170.391,127.5C170.819,127.5,171.246,127.5,171.673,127.5C172.1,127.5,172.527,127.5,172.954,127.5C173.381,127.5,173.808,127.5,174.235,127.5C174.662,127.5,175.089,127.5,175.516,127.5C175.943,127.5,176.37,127.5,176.797,127.5C177.224,127.5,177.651,127.5,178.078,127.5C178.505,127.5,178.932,127.5,179.359,127.5C179.786,127.5,180.214,127.5,180.641,127.5C181.068,127.5,181.495,127.5,181.922,127.5C182.349,127.5,182.776,127.5,183.203,127.5C183.63,127.5,184.057,127.5,184.484,127.5C184.911,127.5,185.338,127.5,185.765,127.5C186.192,127.5,186.619,127.5,187.046,127.5C187.473,127.5,187.9,127.5,188.327,127.5C188.754,127.5,189.181,127.5,189.609,127.5C190.036,127.5,190.463,127.5,190.89,127.5C191.317,127.5,191.744,127.5,192.171,127.5C192.598,127.5,193.025,127.5,193.452,127.5C193.879,127.5,194.306,127.5,194.733,127.5C195.16,127.5,195.587,127.5,196.014,127.5C196.441,127.5,196.868,127.5,197.295,127.5C197.722,127.5,198.149,127.5,198.577,127.5C199.004,127.5,199.431,127.5,199.858,127.5C200.285,127.5,200.712,127.5,201.139,127.5C201.566,127.5,201.993,127.5,202.42,127.5C202.847,127.5,203.274,127.5,203.701,127.5C204.128,127.5,204.555,127.5,204.982,127.5C205.409,127.5,205.836,127.5,206.263,127.5C206.69,127.5,207.117,127.5,207.544,127.5C207.972,127.5,208.399,127.5,208.826,127.5C209.253,127.5,209.68,127.5,210.107,127.5C210.534,127.5,210.961,127.5,211.388,127.5C211.815,127.5,212.242,127.5,212.669,127.5C213.096,127.5,213.523,127.5,213.95,127.5C214.377,127.5,214.804,127.5,215.231,127.5C215.658,127.5,216.085,127.5,216.512,127.5C216.94,127.5,217.367,127.5,217.794,127.5C218.221,127.5,218.648,127.5,219.075,127.5C219.502,127.5,219.929,127.5,220.356,127.5C220.783,127.5,221.21,127.5,221.637,127.5C222.064,127.5,222.491,127.5,222.918,127.5C223.345,127.5,223.772,127.5,224.199,127.5C224.626,127.5,225.053,127.5,225.48,127.5C225.907,127.5,226.335,127.5,226.762,127.5C227.189,127.5,227.616,127.5,228.043,127.5C228.47,127.5,228.897,127.5,229.324,127.5C229.751,127.5,230.178,127.5,230.605,127.5C231.032,127.5,231.459,127.5,231.886,127.5C232.313,127.5,232.74,127.5,233.167,127.5C233.594,127.5,234.021,127.5,234.448,127.5C234.875,127.5,235.302,127.5,235.73,127.5C236.157,127.5,236.584,127.5,237.011,127.5C237.438,127.5,237.865,127.5,238.292,127.5C238.719,127.5,239.146,127.5,239.573,127.5C240,127.5,240.427,127.5,240.854,127.5C241.281,127.5,241.708,127.5,242.135,127.5C242.562,127.5,242.989,127.5,243.416,127.5C243.843,127.5,244.27,127.5,244.698,127.5C245.125,127.5,245.552,127.5,245.979,127.5C246.406,127.5,246.833,127.5,247.26,127.5C247.687,127.5,248.114,127.5,248.541,127.5C248.968,127.5,249.395,127.5,249.822,127.5C250.249,127.5,250.676,127.5,251.103,127.5C251.53,127.5,251.957,127.5,252.384,127.5C252.811,127.5,253.238,127.5,253.665,127.5C254.093,127.5,254.52,127.5,254.947,127.5C255.374,127.5,255.801,127.5,256.228,127.5C256.655,127.5,257.082,127.5,257.509,127.5C257.936,127.5,258.363,127.5,258.79,127.5C259.217,127.5,259.644,127.5,260.071,127.5C260.498,127.5,260.925,127.5,261.352,127.5C261.779,127.5,262.206,127.5,262.633,127.5C263.06,127.5,263.488,127.5,263.915,127.5C264.342,127.5,264.769,127.5,265.196,127.5C265.623,127.5,266.05,127.5,266.477,127.5C266.904,127.5,267.331,127.5,267.758,127.5C268.185,127.5,268.612,127.5,269.039,127.5C269.466,127.5,269.893,127.5,270.32,127.5C270.747,127.5,271.174,127.5,271.601,127.5C272.028,127.5,272.456,127.5,272.883,127.5C273.31,127.5,273.737,127.5,274.164,127.5C274.591,127.5,275.018,127.5,275.445,127.5C275.872,127.5,276.299,127.5,276.726,127.5C277.153,127.5,277.58,127.5,278.007,127.5C278.434,127.5,278.861,127.5,279.288,127.5C279.715,127.5,280.142,127.5,280.569,127.5C280.996,127.5,281.423,127.5,281.851,127.5C282.278,127.5,282.705,127.5,283.132,127.5C283.559,127.5,283.986,127.5,284.413,127.5C284.84,127.5,285.267,127.5,285.694,127.5C286.121,127.5,286.548,127.5,286.975,127.5C287.402,127.5,287.829,127.5,288.256,127.5C288.683,127.5,289.11,127.5,289.537,127.5C289.964,127.5,290.391,127.5,290.819,127.5C291.246,127.5,291.673,127.5,292.1,127.5C292.527,127.5,292.954,127.5,293.381,127.5C293.808,127.5,294.235,127.5,294.662,127.5C295.089,127.5,295.516,127.5,295.943,127.5C296.37,127.5,296.797,127.5,297.224,127.5C297.651,127.5,298.078,127.5,298.505,127.5C298.932,127.5,299.359,127.5,299.786,127.5C300.214,127.5,300.641,127.5,301.068,127.5C301.495,127.5,301.922,127.5,302.349,127.5C302.776,127.5,303.203,127.5,303.63,127.5C304.057,127.5,304.484,127.5,304.911,127.5C305.338,127.5,305.765,127.5,306.192,127.5C306.619,127.5,307.046,127.5,307.473,127.5C307.9,127.5,308.327,127.5,308.754,127.5C309.181,127.5,309.609,127.5,310.036,127.5C310.463,127.5,310.89,127.5,311.317,127.5C311.744,127.5,312.171,127.5,312.598,127.5C313.025,127.5,313.452,127.5,313.879,127.5C314.306,127.5,314.733,127.5,315.16,127.5C315.587,127.5,316.014,127.5,316.441,127.5C316.868,127.5,317.295,127.5,317.722,127.5C318.149,127.5,318.577,127.5,319.004,127.5C319.431,127.5,319.858,127.5,320.285,127.5C320.712,127.5,321.139,127.5,321.566,127.5C321.993,127.5,322.42,127.5,322.847,127.5C323.274,127.5,323.701,127.5,324.128,127.5C324.555,127.5,324.982,127.5,325.409,127.5C325.836,127.5,326.263,127.5,326.69,127.5C327.117,127.5,327.544,127.5,327.972,127.5C328.399,127.5,328.826,127.5,329.253,127.5C329.68,127.5,330.107,127.5,330.534,127.5C330.961,127.5,331.388,127.5,331.815,127.5C332.242,127.5,332.669,127.5,333.096,127.5C333.523,127.5,333.95,127.5,334.377,127.5C334.804,127.5,335.231,127.5,335.658,127.5C336.085,127.5,336.512,127.5,336.94,127.5C337.367,127.5,337.794,127.5,338.221,127.5C338.648,127.5,339.075,127.5,339.502,127.5C339.929,127.5,340.356,127.5,340.783,127.5C341.21,127.5,341.637,127.5,342.064,127.5C342.491,127.5,342.918,340,343.345,340C343.772,340,344.199,340,344.626,340C345.053,340,345.48,340,345.907,340C346.335,340,346.762,340,347.189,340C347.616,340,348.043,340,348.47,340C348.897,340,349.324,340,349.751,340C350.178,340,350.605,340,351.032,340C351.459,340,351.886,340,352.313,340C352.74,340,353.167,340,353.594,340C354.021,340,354.448,340,354.875,340C355.302,340,355.73,340,356.157,340C356.584,340,357.011,340,357.438,340C357.865,340,358.292,340,358.719,340C359.146,340,359.573,340,360,340C360.427,340,360.854,340,361.281,340C361.708,340,362.135,340,362.562,340C362.989,340,363.416,340,363.843,340C364.27,340,364.698,340,365.125,340C365.552,340,365.979,340,366.406,340C366.833,340,367.26,340,367.687,340C368.114,340,368.541,340,368.968,340C369.395,340,369.822,340,370.249,340C370.676,340,371.103,340,371.53,340C371.957,340,372.384,340,372.811,340C373.238,340,373.665,340,374.093,340C374.52,340,374.947,340,375.374,340C375.801,340,376.228,340,376.655,340C377.082,340,377.509,340,377.936,340C378.363,340,378.79,340,379.217,340C379.644,340,380.071,340,380.498,340C380.925,340,381.352,340,381.779,340C382.206,340,382.633,340,383.06,340C383.488,340,383.915,340,384.342,340C384.769,340,385.196,340,385.623,340C386.05,340,386.477,340,386.904,340C387.331,340,387.758,340,388.185,340C388.612,340,389.039,340,389.466,340C389.893,340,390.32,340,390.747,340C391.174,340,391.601,340,392.028,340C392.456,340,392.883,340,393.31,340C393.737,340,394.164,340,394.591,340C395.018,340,395.445,340,395.872,340C396.299,340,396.726,340,397.153,340C397.58,340,398.007,340,398.434,340C398.861,340,399.288,340,399.715,340C400.142,340,400.569,340,400.996,340C401.423,340,401.851,340,402.278,340C402.705,340,403.132,340,403.559,340C403.986,340,404.413,340,404.84,340C405.267,340,405.694,340,406.121,340C406.548,340,406.975,340,407.402,340C407.829,340,408.256,340,408.683,340C409.11,340,409.537,340,409.964,340C410.391,340,410.819,340,411.246,340C411.673,340,412.1,340,412.527,340C412.954,340,413.381,340,413.808,340C414.235,340,414.662,340,415.089,340C415.516,340,415.943,340,416.37,340C416.797,340,417.224,340,417.651,340C418.078,340,418.505,340,418.932,340C419.359,340,419.786,340,420.214,340C420.641,340,421.068,340,421.495,340C421.922,340,422.349,340,422.776,340C423.203,340,423.63,340,424.057,340C424.484,340,424.911,340,425.338,340C425.765,340,426.192,340,426.619,340C427.046,340,427.473,340,427.9,340C428.327,340,428.754,340,429.181,340C429.609,340,430.036,340,430.463,340C430.89,340,431.317,340,431.744,340C432.171,340,432.598,340,433.025,340C433.452,340,433.879,340,434.306,340C434.733,340,435.16,340,435.587,340C436.014,340,436.441,340,436.868,340C437.295,340,437.722,340,438.149,340C438.577,340,439.004,340,439.431,340C439.858,340,440.285,340,440.712,340C441.139,340,441.566,340,441.993,340C442.42,340,442.847,340,443.274,340C443.701,340,444.128,340,444.555,340C444.982,340,445.409,340,445.836,340C446.263,340,446.69,340,447.117,340C447.544,340,447.972,340,448.399,340C448.826,340,449.253,340,449.68,340C450.107,340,450.534,340,450.961,340C451.388,340,451.815,340,452.242,340C452.669,340,453.096,340,453.523,340C453.95,340,454.377,340,454.804,340C455.231,340,455.658,340,456.085,340C456.512,340,456.94,340,457.367,340C457.794,340,458.221,340,458.648,340C459.075,340,459.502,340,459.929,340C460.356,340,460.783,340,461.21,340C461.637,340,462.064,340,462.491,340C462.918,340,463.345,340,463.772,340C464.199,340,464.626,340,465.053,340C465.48,340,465.907,340,466.335,340C466.762,340,467.189,340,467.616,340C468.043,340,468.47,340,468.897,340C469.324,340,469.751,340,470.178,340C470.605,340,471.032,340,471.459,340C471.886,340,472.313,340,472.74,340C473.167,340,473.594,340,474.021,340C474.448,340,474.875,340,475.302,340C475.73,340,476.157,340,476.584,340C477.011,340,477.438,340,477.865,340C478.292,340,478.719,340,479.146,340C479.573,340,480,340,480.427,340C480.854,340,481.281,340,481.708,340C482.135,340,482.562,340,482.989,340C483.416,340,483.843,340,484.27,340C484.698,340,485.125,340,485.552,340C485.979,340,486.406,340,486.833,340C487.26,340,487.687,340,488.114,340C488.541,340,488.968,340,489.395,340C489.822,340,490.249,340,490.676,340C491.103,340,491.53,340,491.957,340C492.384,340,492.811,340,493.238,340C493.665,340,494.093,340,494.52,340C494.947,340,495.374,340,495.801,340C496.228,340,496.655,340,497.082,340C497.509,340,497.936,340,498.363,340C498.79,340,499.217,340,499.644,340C500.071,340,500.498,340,500.925,340C501.352,340,501.779,340,502.206,340C502.633,340,503.06,340,503.488,340C503.915,340,504.342,340,504.769,340C505.196,340,505.623,340,506.05,340C506.477,340,506.904,340,507.331,340C507.758,340,508.185,340,508.612,340C509.039,340,509.466,340,509.893,340C510.32,340,510.747,340,511.174,340C511.601,340,512.028,340,512.456,340C512.883,340,513.31,340,513.737,340C514.164,340,514.591,340,515.018,340C515.445,340,515.872,340,516.299,340C516.726,340,517.153,340,517.58,340C518.007,340,518.434,340,518.861,340C519.288,340,519.715,340,520.142,340C520.569,340,520.996,340,521.423,340C521.851,340,522.278,340,522.705,340C523.132,340,523.559,340,523.986,340C524.413,340,524.84,340,525.267,340C525.694,340,526.121,340,526.548,340C526.975,340,527.402,340,527.829,340C528.256,340,528.683,340,529.11,340C529.537,340,529.964,340,530.391,340C530.819,340,531.246,340,531.673,340C532.1,340,532.527,340,532.954,340C533.381,340,533.808,340,534.235,340C534.662,340,535.089,340,535.516,340C535.943,340,536.37,340,536.797,340C537.224,340,537.651,340,538.078,340C538.505,340,538.932,340,539.359,340C539.786,340,540.214,340,540.641,340C541.068,340,541.495,340,541.922,340C542.349,340,542.776,340,543.203,340C543.63,340,544.057,340,544.484,340C544.911,340,545.338,340,545.765,340C546.192,340,546.619,340,547.046,340C547.473,340,547.9,340,548.327,340C548.754,340,549.181,340,549.609,340C550.036,340,550.463,340,550.89,340C551.317,340,551.744,340,552.171,340C552.598,340,553.025,340,553.452,340C553.879,340,554.306,340,554.733,340C555.16,340,555.587,340,556.014,340C556.441,340,556.868,340,557.295,340C557.722,340,558.149,340,558.577,340C559.004,340,559.431,340,559.858,340C560.285,340,560.712,340,561.139,340C561.566,340,561.993,340,562.42,340C562.847,340,563.274,340,563.701,340C564.128,340,564.555,340,564.982,340C565.409,340,565.836,340,566.263,340C566.69,340,567.117,340,567.544,340C567.972,340,568.399,340,568.826,340C569.253,340,569.68,340,570.107,340C570.534,340,570.961,340,571.388,340C571.815,340,572.242,340,572.669,340C573.096,340,573.523,340,573.95,340C574.377,340,574.804,340,575.231,340C575.658,340,576.085,340,576.512,340C576.94,340,577.367,340,577.794,340C578.221,340,578.648,340,579.075,340C579.502,340,579.929,340,580.356,340C580.783,340,581.21,340,581.637,340C582.064,340,582.491,340,582.918,340C583.345,340,583.772,340,584.199,340C584.626,340,585.053,340,585.48,340C585.907,340,586.335,340,586.762,340C587.189,340,587.616,340,588.043,340C588.47,340,588.897,340,589.324,340C589.751,340,590.178,340,590.605,340C591.032,340,591.459,340,591.886,340C592.313,340,592.74,340,593.167,340C593.594,340,594.021,340,594.448,340C594.875,340,595.302,340,595.73,340C596.157,340,596.584,340,597.011,340C597.438,340,597.865,340,598.292,340C598.719,340,599.146,340,599.573,340C600,340,600.427,340,600.854,340C601.281,340,601.708,340,602.135,340C602.562,340,602.989,340,603.416,340C603.843,340,604.27,340,604.698,340C605.125,340,605.552,340,605.979,340C606.406,340,606.833,340,607.26,340C607.687,340,608.114,340,608.541,340C608.968,340,609.395,340,609.822,340C610.249,340,610.676,340,611.103,340C611.53,340,611.957,340,612.384,340C612.811,340,613.238,340,613.665,340C614.093,340,614.52,340,614.947,340C615.374,340,615.801,340,616.228,340C616.655,340,617.082,340,617.509,340C617.936,340,618.363,340,618.79,340C619.217,340,619.644,340,620.071,340C620.498,340,620.925,340,621.352,340C621.779,340,622.206,340,622.633,340C623.06,340,623.488,340,623.915,340C624.342,340,624.769,340,625.196,340C625.623,340,626.05,340,626.477,340C626.904,340,627.331,340,627.758,340C628.185,340,628.612,340,629.039,340C629.466,340,629.893,340,630.32,340C630.747,340,631.174,340,631.601,340C632.028,340,632.456,340,632.883,340C633.31,340,633.737,340,634.164,340C634.591,340,635.018,340,635.445,340C635.872,340,636.299,340,636.726,340C637.153,340,637.58,340,638.007,340C638.434,340,638.861,340,639.288,340C639.715,340,640.142,340,640.569,340C640.996,340,641.423,340,641.851,340C642.278,340,642.705,340,643.132,340C643.559,340,643.986,340,644.413,340C644.84,340,645.267,340,645.694,340C646.121,340,646.548,340,646.975,340C647.402,340,647.829,340,648.256,340C648.683,340,649.11,340,649.537,340C649.964,340,650.391,340,650.819,340C651.246,340,651.673,340,652.1,340C652.527,340,652.954,340,653.381,340C653.808,340,654.235,340,654.662,340C655.089,340,655.516,340,655.943,340C656.37,340,656.797,340,657.224,340C657.651,340,658.078,340,658.505,340C658.932,340,659.359,340,659.786,340C660.214,340,660.641,340,661.068,340C661.495,340,661.922,340,662.349,340C662.776,340,663.203,340,663.63,340C664.057,340,664.484,340,664.911,340C665.338,340,665.765,340,666.192,340C666.619,340,667.046,340,667.473,340C667.9,340,668.327,340,668.754,340C669.181,340,669.609,340,670.036,340C670.463,340,670.89,340,671.317,340C671.744,340,672.171,340,672.598,340C673.025,340,673.452,340,673.879,340C674.306,340,674.733,340,675.16,340C675.587,340,676.014,340,676.441,340C676.868,340,677.295,340,677.722,340C678.149,340,678.577,340,679.004,340C679.431,340,679.858,340,680.285,340C680.712,340,681.139,340,681.566,340C681.993,340,682.42,340,682.847,340C683.274,340,683.701,340,684.128,340C684.555,340,684.982,340,685.409,340C685.836,340,686.263,340,686.69,340C687.117,340,687.544,340,687.972,340C688.399,340,688.826,340,689.253,340C689.68,340,690.107,340,690.534,340C690.961,340,691.388,340,691.815,340C692.242,340,692.669,340,693.096,340C693.523,340,693.95,340,694.377,340C694.804,340,695.231,340,695.658,340C696.085,340,696.512,340,696.94,340C697.367,340,697.794,340,698.221,340C698.648,340,699.075,340,699.502,340C699.929,340,700.356,340,700.783,340C701.21,340,701.637,340,702.064,340C702.491,340,702.918,340,703.345,340C703.772,340,704.199,340,704.626,340C705.053,340,705.48,340,705.907,340C706.335,340,706.762,340,707.189,340C707.616,340,708.043,340,708.47,340C708.897,340,709.324,340,709.751,340C710.178,340,710.605,340,711.032,340C711.459,340,711.886,340,712.313,340C712.74,340,713.167,340,713.594,340C714.021,340,714.448,340,714.875,340C715.302,340,715.73,340,716.157,340C716.584,340,717.011,340,717.438,340C717.865,340,718.292,340,718.719,340C719.146,340,719.573,340,720,340"></path><circle class="dot" cx="0" cy="0" r="3" fill="#2563eb"></circle><circle class="dot" cx="1.281138790035587" cy="0" r="3" fill="#2563eb"></circle><circle class="dot" cx="2.562277580071174" cy="0" r="3" fill="#2563eb"></circle><circle class="dot" cx="3.8434163701067616" cy="0" r="3" fill="#2563eb"></circle><circle class="dot" cx="5.124555160142348" cy="0" r="3" fill="#2563eb"></circle><circle class="dot" cx="6.405693950177937" cy="0" r="3" fill="#2563eb"></circle><circle class="dot" cx="7.686832740213523" cy="0" r="3" fill="#2563eb"></circle><circle class="dot" cx="8.96797153024911" cy="0" r="3" fill="#2563eb"></circle><circle class="dot" cx="10.249110320284696" cy="0" r="3" fill="#2563eb"></circle><circle class="dot" cx="11.530249110320286" cy="0" r="3" fill="#2563eb"></circle><circle class="dot" cx="12.811387900355873" cy="0" r="3" fill="#2563eb"></circle><circle class="dot" cx="14.092526690391459" cy="0" r="3" fill="#2563eb"></circle><circle class="dot" cx="15.373665480427047" cy="0" r="3" fill="#2563eb"></circle><circle class="dot" cx="16.654804270462634" cy="0" r="3" fill="#2563eb"></circle><circle class="dot" cx="17.93594306049822" cy="0" r="3" fill="#2563eb"></circle><circle class="dot" cx="19.21708185053381" cy="0" r="3" fill="#2563eb"></circle><circle class="dot" cx="20.498220640569393" cy="0" r="3" fill="#2563eb"></circle><circle class="dot" cx="21.77935943060498" cy="0" r="3" fill="#2563eb"></circle><circle class="dot" cx="23.06049822064057" cy="0" r="3" fill="#2563eb"></circle><circle class="dot" cx="24.34163701067616" cy="0" r="3" fill="#2563eb"></circle><circle class="dot" cx="25.622775800711747" cy="0" r="3" fill="#2563eb"></circle><circle class="dot" cx="26.90391459074733" cy="0" r="3" fill="#2563eb"></circle><circle class="dot" cx="28.185053380782918" cy="0" r="3" fill="#2563eb"></circle><circle class="dot" cx="29.466192170818506" cy="0" r="3" fill="#2563eb"></circle><circle class="dot" cx="30.747330960854093" cy="0" r="3" fill="#2563eb"></circle><circle class="dot" cx="32.028469750889684" cy="0" r="3" fill="#2563eb"></circle><circle class="dot" cx="33.30960854092527" cy="0" r="3" fill="#2563eb"></circle><circle class="dot" cx="34.59074733096085" cy="0" r="3" fill="#2563eb"></circle><circle class="dot" cx="35.87188612099644" cy="0" r="3" fill="#2563eb"></circle><circle class="dot" cx="37.15302491103203" cy="0" r="3" fill="#2563eb"></circle><circle class="dot" cx="38.43416370106762" cy="0" r="3" fill="#2563eb"></circle><circle class="dot" cx="39.7153024911032" cy="0" r="3" fill="#2563eb"></circle><circle class="dot" cx="40.996441281138786" cy="0" r="3" fill="#2563eb"></circle><circle class="dot" cx="42.27758007117438" cy="0" r="3" fill="#2563eb"></circle><circle class="dot" cx="43.55871886120996" cy="0" r="3" fill="#2563eb"></circle><circle class="dot" cx="44.83985765124555" cy="0" r="3" fill="#2563eb"></circle><circle class="dot" cx="46.12099644128114" cy="0" r="3" fill="#2563eb"></circle><circle class="dot" cx="47.40213523131672" cy="0" r="3" fill="#2563eb"></circle><circle class="dot" cx="48.68327402135232" cy="0" r="3" fill="#2563eb"></circle><circle class="dot" cx="49.9644128113879" cy="0" r="3" fill="#2563eb"></circle><circle class="dot" cx="51.24555160142349" cy="0" r="3" fill="#2563eb"></circle><circle class="dot" cx="52.52669039145908" cy="0" r="3" fill="#2563eb"></circle><circle class="dot" cx="53.80782918149466" cy="0" r="3" fill="#2563eb"></circle><circle class="dot" cx="55.08896797153025" cy="0" r="3" fill="#2563eb"></circle><circle class="dot" cx="56.370106761565836" cy="0" r="3" fill="#2563eb"></circle><circle class="dot" cx="57.65124555160143" cy="0" r="3" fill="#2563eb"></circle><circle class="dot" cx="58.93238434163701" cy="0" r="3" fill="#2563eb"></circle><circle class="dot" cx="60.213523131672595" cy="0" r="3" fill="#2563eb"></circle><circle class="dot" cx="61.494661921708186" cy="0" r="3" fill="#2563eb"></circle><circle class="dot" cx="62.77580071174377" cy="0" r="3" fill="#2563eb"></circle><circle class="dot" cx="64.05693950177937" cy="0" r="3" fill="#2563eb"></circle><circle class="dot" cx="65.33807829181495" cy="0" r="3" fill="#2563eb"></circle><circle class="dot" cx="66.61921708185054" cy="0" r="3" fill="#2563eb"></circle><circle class="dot" cx="67.90035587188612" cy="0" r="3" fill="#2563eb"></circle><circle class="dot" cx="69.1814946619217" cy="0" r="3" fill="#2563eb"></circle><circle class="dot" cx="70.4626334519573" cy="0" r="3" fill="#2563eb"></circle><circle class="dot" cx="71.74377224199289" cy="0" r="3" fill="#2563eb"></circle><circle class="dot" cx="73.02491103202847" cy="0" r="3" fill="#2563eb"></circle><circle class="dot" cx="74.30604982206405" cy="0" r="3" fill="#2563eb"></circle><circle class="dot" cx="75.58718861209964" cy="0" r="3" fill="#2563eb"></circle><circle class="dot" cx="76.86832740213524" cy="0" r="3" fill="#2563eb"></circle><circle class="dot" cx="78.14946619217082" cy="0" r="3" fill="#2563eb"></circle><circle class="dot" cx="79.4306049822064" cy="0" r="3" fill="#2563eb"></circle><circle class="dot" cx="80.71174377224199" cy="0" r="3" fill="#2563eb"></circle><circle class="dot" cx="81.99288256227757" cy="0" r="3" fill="#2563eb"></circle><circle class="dot" cx="83.27402135231317" cy="0" r="3" fill="#2563eb"></circle><circle class="dot" cx="84.55516014234875" cy="0" r="3" fill="#2563eb"></circle><circle class="dot" cx="85.83629893238435" cy="0" r="3" fill="#2563eb"></circle><circle class="dot" cx="87.11743772241992" cy="0" r="3" fill="#2563eb"></circle><circle class="dot" cx="88.3985765124555" cy="0" r="3" fill="#2563eb"></circle><circle class="dot" cx="89.6797153024911" cy="0" r="3" fill="#2563eb"></circle><circle class="dot" cx="90.9608540925267" cy="0" r="3" fill="#2563eb"></circle><circle class="dot" cx="92.24199288256229" cy="0" r="3" fill="#2563eb"></circle><circle class="dot" cx="93.52313167259787" cy="0" r="3" fill="#2563eb"></circle><circle class="dot" cx="94.80427046263344" cy="0" r="3" fill="#2563eb"></circle><circle class="dot" cx="96.08540925266902" cy="0" r="3" fill="#2563eb"></circle><circle class="dot" cx="97.36654804270464" cy="0" r="3" fill="#2563eb"></circle><circle class="dot" cx="98.64768683274022" cy="0" r="3" fill="#2563eb"></circle><circle class="dot" cx="99.9288256227758" cy="0" r="3" fill="#2563eb"></circle><circle class="dot" cx="101.20996441281139" cy="0" r="3" fill="#2563eb"></circle><circle class="dot" cx="102.49110320284699" cy="0" r="3" fill="#2563eb"></circle><circle class="dot" cx="103.77224199288257" cy="0" r="3" fill="#2563eb"></circle><circle class="dot" cx="105.05338078291815" cy="0" r="3" fill="#2563eb"></circle><circle class="dot" cx="106.33451957295374" cy="0" r="3" fill="#2563eb"></circle><circle class="dot" cx="107.61565836298932" cy="0" r="3" fill="#2563eb"></circle><circle class="dot" cx="108.89679715302492" cy="0" r="3" fill="#2563eb"></circle><circle class="dot" cx="110.1779359430605" cy="127.49999999999982" r="3" fill="#2563eb"></circle><circle class="dot" cx="111.45907473309609" cy="127.49999999999982" r="3" fill="#2563eb"></circle><circle class="dot" cx="112.74021352313167" cy="127.49999999999982" r="3" fill="#2563eb"></circle><circle class="dot" cx="114.02135231316726" cy="127.49999999999982" r="3" fill="#2563eb"></circle><circle class="dot" cx="115.30249110320285" cy="127.49999999999982" r="3" fill="#2563eb"></circle><circle class="dot" cx="116.58362989323844" cy="127.49999999999982" r="3" fill="#2563eb"></circle><circle class="dot" cx="117.86476868327402" cy="127.49999999999982" r="3" fill="#2563eb"></circle><circle class="dot" cx="119.1459074733096" cy="127.49999999999982" r="3" fill="#2563eb"></circle><circle class="dot" cx="120.42704626334519" cy="127.49999999999982" r="3" fill="#2563eb"></circle><circle class="dot" cx="121.70818505338079" cy="127.49999999999982" r="3" fill="#2563eb"></circle><circle class="dot" cx="122.98932384341637" cy="127.49999999999982" r="3" fill="#2563eb"></circle><circle class="dot" cx="124.27046263345196" cy="127.49999999999982" r="3" fill="#2563eb"></circle><circle class="dot" cx="125.55160142348754" cy="127.49999999999982" r="3" fill="#2563eb"></circle><circle class="dot" cx="126.83274021352312" cy="127.49999999999982" r="3" fill="#2563eb"></circle><circle class="dot" cx="128.11387900355874" cy="127.49999999999982" r="3" fill="#2563eb"></circle><circle class="dot" cx="129.39501779359432" cy="127.49999999999982" r="3" fill="#2563eb"></circle><circle class="dot" cx="130.6761565836299" cy="127.49999999999982" r="3" fill="#2563eb"></circle><circle class="dot" cx="131.9572953736655" cy="127.49999999999982" r="3" fill="#2563eb"></circle><circle class="dot" cx="133.23843416370107" cy="127.49999999999982" r="3" fill="#2563eb"></circle><circle class="dot" cx="134.51957295373666" cy="127.49999999999982" r="3" fill="#2563eb"></circle><circle class="dot" cx="135.80071174377224" cy="127.49999999999982" r="3" fill="#2563eb"></circle><circle class="dot" cx="137.08185053380782" cy="127.49999999999982" r="3" fill="#2563eb"></circle><circle class="dot" cx="138.3629893238434" cy="127.49999999999982" r="3" fill="#2563eb"></circle><circle class="dot" cx="139.644128113879" cy="127.49999999999982" r="3" fill="#2563eb"></circle><circle class="dot" cx="140.9252669039146" cy="127.49999999999982" r="3" fill="#2563eb"></circle><circle class="dot" cx="142.2064056939502" cy="127.49999999999982" r="3" fill="#2563eb"></circle><circle class="dot" cx="143.48754448398577" cy="127.49999999999982" r="3" fill="#2563eb"></circle><circle class="dot" cx="144.76868327402136" cy="127.49999999999982" r="3" fill="#2563eb"></circle><circle class="dot" cx="146.04982206405694" cy="127.49999999999982" r="3" fill="#2563eb"></circle><circle class="dot" cx="147.33096085409252" cy="127.49999999999982" r="3" fill="#2563eb"></circle><circle class="dot" cx="148.6120996441281" cy="127.49999999999982" r="3" fill="#2563eb"></circle><circle class="dot" cx="149.8932384341637" cy="127.49999999999982" r="3" fill="#2563eb"></circle><circle class="dot" cx="151.17437722419928" cy="127.49999999999982" r="3" fill="#2563eb"></circle><circle class="dot" cx="152.4555160142349" cy="127.49999999999982" r="3" fill="#2563eb"></circle><circle class="dot" cx="153.73665480427047" cy="127.49999999999982" r="3" fill="#2563eb"></circle><circle class="dot" cx="155.01779359430606" cy="127.49999999999982" r="3" fill="#2563eb"></circle><circle class="dot" cx="156.29893238434164" cy="127.49999999999982" r="3" fill="#2563eb"></circle><circle class="dot" cx="157.58007117437722" cy="127.49999999999982" r="3" fill="#2563eb"></circle><circle class="dot" cx="158.8612099644128" cy="127.49999999999982" r="3" fill="#2563eb"></circle><circle class="dot" cx="160.1423487544484" cy="127.49999999999982" r="3" fill="#2563eb"></circle><circle class="dot" cx="161.42348754448398" cy="127.49999999999982" r="3" fill="#2563eb"></circle><circle class="dot" cx="162.70462633451956" cy="127.49999999999982" r="3" fill="#2563eb"></circle><circle class="dot" cx="163.98576512455514" cy="127.49999999999982" r="3" fill="#2563eb"></circle><circle class="dot" cx="165.26690391459076" cy="127.49999999999982" r="3" fill="#2563eb"></circle><circle class="dot" cx="166.54804270462634" cy="127.49999999999982" r="3" fill="#2563eb"></circle><circle class="dot" cx="167.82918149466192" cy="127.49999999999982" r="3" fill="#2563eb"></circle><circle class="dot" cx="169.1103202846975" cy="127.49999999999982" r="3" fill="#2563eb"></circle><circle class="dot" cx="170.3914590747331" cy="127.49999999999982" r="3" fill="#2563eb"></circle><circle class="dot" cx="171.6725978647687" cy="127.49999999999982" r="3" fill="#2563eb"></circle><circle class="dot" cx="172.95373665480426" cy="127.49999999999982" r="3" fill="#2563eb"></circle><circle class="dot" cx="174.23487544483984" cy="127.49999999999982" r="3" fill="#2563eb"></circle><circle class="dot" cx="175.51601423487543" cy="127.49999999999982" r="3" fill="#2563eb"></circle><circle class="dot" cx="176.797153024911" cy="127.49999999999982" r="3" fill="#2563eb"></circle><circle class="dot" cx="178.07829181494662" cy="127.49999999999982" r="3" fill="#2563eb"></circle><circle class="dot" cx="179.3594306049822" cy="127.49999999999982" r="3" fill="#2563eb"></circle><circle class="dot" cx="180.64056939501782" cy="127.49999999999982" r="3" fill="#2563eb"></circle><circle class="dot" cx="181.9217081850534" cy="127.49999999999982" r="3" fill="#2563eb"></circle><circle class="dot" cx="183.202846975089" cy="127.49999999999982" r="3" fill="#2563eb"></circle><circle class="dot" cx="184.48398576512457" cy="127.49999999999982" r="3" fill="#2563eb"></circle><circle class="dot" cx="185.76512455516016" cy="127.49999999999982" r="3" fill="#2563eb"></circle><circle class="dot" cx="187.04626334519574" cy="127.49999999999982" r="3" fill="#2563eb"></circle><circle class="dot" cx="188.3274021352313" cy="127.49999999999982" r="3" fill="#2563eb"></circle><circle class="dot" cx="189.60854092526688" cy="127.49999999999982" r="3" fill="#2563eb"></circle><circle class="dot" cx="190.88967971530246" cy="127.49999999999982" r="3" fill="#2563eb"></circle><circle class="dot" cx="192.17081850533805" cy="127.49999999999982" r="3" fill="#2563eb"></circle><circle class="dot" cx="193.4519572953737" cy="127.49999999999982" r="3" fill="#2563eb"></circle><circle class="dot" cx="194.73309608540927" cy="127.49999999999982" r="3" fill="#2563eb"></circle><circle class="dot" cx="196.01423487544486" cy="127.49999999999982" r="3" fill="#2563eb"></circle><circle class="dot" cx="197.29537366548044" cy="127.49999999999982" r="3" fill="#2563eb"></circle><circle class="dot" cx="198.57651245551602" cy="127.49999999999982" r="3" fill="#2563eb"></circle><circle class="dot" cx="199.8576512455516" cy="127.49999999999982" r="3" fill="#2563eb"></circle><circle class="dot" cx="201.1387900355872" cy="127.49999999999982" r="3" fill="#2563eb"></circle><circle class="dot" cx="202.41992882562278" cy="127.49999999999982" r="3" fill="#2563eb"></circle><circle class="dot" cx="203.70106761565836" cy="127.49999999999982" r="3" fill="#2563eb"></circle><circle class="dot" cx="204.98220640569397" cy="127.49999999999982" r="3" fill="#2563eb"></circle><circle class="dot" cx="206.26334519572956" cy="127.49999999999982" r="3" fill="#2563eb"></circle><circle class="dot" cx="207.54448398576514" cy="127.49999999999982" r="3" fill="#2563eb"></circle><circle class="dot" cx="208.82562277580072" cy="127.49999999999982" r="3" fill="#2563eb"></circle><circle class="dot" cx="210.1067615658363" cy="127.49999999999982" r="3" fill="#2563eb"></circle><circle class="dot" cx="211.3879003558719" cy="127.49999999999982" r="3" fill="#2563eb"></circle><circle class="dot" cx="212.66903914590748" cy="127.49999999999982" r="3" fill="#2563eb"></circle><circle class="dot" cx="213.95017793594306" cy="127.49999999999982" r="3" fill="#2563eb"></circle><circle class="dot" cx="215.23131672597864" cy="127.49999999999982" r="3" fill="#2563eb"></circle><circle class="dot" cx="216.51245551601423" cy="127.49999999999982" r="3" fill="#2563eb"></circle><circle class="dot" cx="217.79359430604984" cy="127.49999999999982" r="3" fill="#2563eb"></circle><circle class="dot" cx="219.07473309608542" cy="127.49999999999982" r="3" fill="#2563eb"></circle><circle class="dot" cx="220.355871886121" cy="127.49999999999982" r="3" fill="#2563eb"></circle><circle class="dot" cx="221.6370106761566" cy="127.49999999999982" r="3" fill="#2563eb"></circle><circle class="dot" cx="222.91814946619218" cy="127.49999999999982" r="3" fill="#2563eb"></circle><circle class="dot" cx="224.19928825622776" cy="127.49999999999982" r="3" fill="#2563eb"></circle><circle class="dot" cx="225.48042704626334" cy="127.49999999999982" r="3" fill="#2563eb"></circle><circle class="dot" cx="226.76156583629893" cy="127.49999999999982" r="3" fill="#2563eb"></circle><circle class="dot" cx="228.0427046263345" cy="127.49999999999982" r="3" fill="#2563eb"></circle><circle class="dot" cx="229.3238434163701" cy="127.49999999999982" r="3" fill="#2563eb"></circle><circle class="dot" cx="230.6049822064057" cy="127.49999999999982" r="3" fill="#2563eb"></circle><circle class="dot" cx="231.8861209964413" cy="127.49999999999982" r="3" fill="#2563eb"></circle><circle class="dot" cx="233.16725978647688" cy="127.49999999999982" r="3" fill="#2563eb"></circle><circle class="dot" cx="234.44839857651246" cy="127.49999999999982" r="3" fill="#2563eb"></circle><circle class="dot" cx="235.72953736654804" cy="127.49999999999982" r="3" fill="#2563eb"></circle><circle class="dot" cx="237.01067615658363" cy="127.49999999999982" r="3" fill="#2563eb"></circle><circle class="dot" cx="238.2918149466192" cy="127.49999999999982" r="3" fill="#2563eb"></circle><circle class="dot" cx="239.5729537366548" cy="127.49999999999982" r="3" fill="#2563eb"></circle><circle class="dot" cx="240.85409252669038" cy="127.49999999999982" r="3" fill="#2563eb"></circle><circle class="dot" cx="242.135231316726" cy="127.49999999999982" r="3" fill="#2563eb"></circle><circle class="dot" cx="243.41637010676158" cy="127.49999999999982" r="3" fill="#2563eb"></circle><circle class="dot" cx="244.69750889679716" cy="127.49999999999982" r="3" fill="#2563eb"></circle><circle class="dot" cx="245.97864768683274" cy="127.49999999999982" r="3" fill="#2563eb"></circle><circle class="dot" cx="247.25978647686833" cy="127.49999999999982" r="3" fill="#2563eb"></circle><circle class="dot" cx="248.5409252669039" cy="127.49999999999982" r="3" fill="#2563eb"></circle><circle class="dot" cx="249.8220640569395" cy="127.49999999999982" r="3" fill="#2563eb"></circle><circle class="dot" cx="251.10320284697508" cy="127.49999999999982" r="3" fill="#2563eb"></circle><circle class="dot" cx="252.38434163701066" cy="127.49999999999982" r="3" fill="#2563eb"></circle><circle class="dot" cx="253.66548042704625" cy="127.49999999999982" r="3" fill="#2563eb"></circle><circle class="dot" cx="254.94661921708186" cy="127.49999999999982" r="3" fill="#2563eb"></circle><circle class="dot" cx="256.2277580071175" cy="127.49999999999982" r="3" fill="#2563eb"></circle><circle class="dot" cx="257.50889679715306" cy="127.49999999999982" r="3" fill="#2563eb"></circle><circle class="dot" cx="258.79003558718864" cy="127.49999999999982" r="3" fill="#2563eb"></circle><circle class="dot" cx="260.0711743772242" cy="127.49999999999982" r="3" fill="#2563eb"></circle><circle class="dot" cx="261.3523131672598" cy="127.49999999999982" r="3" fill="#2563eb"></circle><circle class="dot" cx="262.6334519572954" cy="127.49999999999982" r="3" fill="#2563eb"></circle><circle class="dot" cx="263.914590747331" cy="127.49999999999982" r="3" fill="#2563eb"></circle><circle class="dot" cx="265.19572953736656" cy="127.49999999999982" r="3" fill="#2563eb"></circle><circle class="dot" cx="266.47686832740214" cy="127.49999999999982" r="3" fill="#2563eb"></circle><circle class="dot" cx="267.7580071174377" cy="127.49999999999982" r="3" fill="#2563eb"></circle><circle class="dot" cx="269.0391459074733" cy="127.49999999999982" r="3" fill="#2563eb"></circle><circle class="dot" cx="270.3202846975089" cy="127.49999999999982" r="3" fill="#2563eb"></circle><circle class="dot" cx="271.6014234875445" cy="127.49999999999982" r="3" fill="#2563eb"></circle><circle class="dot" cx="272.88256227758006" cy="127.49999999999982" r="3" fill="#2563eb"></circle><circle class="dot" cx="274.16370106761565" cy="127.49999999999982" r="3" fill="#2563eb"></circle><circle class="dot" cx="275.44483985765123" cy="127.49999999999982" r="3" fill="#2563eb"></circle><circle class="dot" cx="276.7259786476868" cy="127.49999999999982" r="3" fill="#2563eb"></circle><circle class="dot" cx="278.0071174377224" cy="127.49999999999982" r="3" fill="#2563eb"></circle><circle class="dot" cx="279.288256227758" cy="127.49999999999982" r="3" fill="#2563eb"></circle><circle class="dot" cx="280.5693950177936" cy="127.49999999999982" r="3" fill="#2563eb"></circle><circle class="dot" cx="281.8505338078292" cy="127.49999999999982" r="3" fill="#2563eb"></circle><circle class="dot" cx="283.1316725978648" cy="127.49999999999982" r="3" fill="#2563eb"></circle><circle class="dot" cx="284.4128113879004" cy="127.49999999999982" r="3" fill="#2563eb"></circle><circle class="dot" cx="285.69395017793596" cy="127.49999999999982" r="3" fill="#2563eb"></circle><circle class="dot" cx="286.97508896797154" cy="127.49999999999982" r="3" fill="#2563eb"></circle><circle class="dot" cx="288.2562277580071" cy="127.49999999999982" r="3" fill="#2563eb"></circle><circle class="dot" cx="289.5373665480427" cy="127.49999999999982" r="3" fill="#2563eb"></circle><circle class="dot" cx="290.8185053380783" cy="127.49999999999982" r="3" fill="#2563eb"></circle><circle class="dot" cx="292.0996441281139" cy="127.49999999999982" r="3" fill="#2563eb"></circle><circle class="dot" cx="293.38078291814946" cy="127.49999999999982" r="3" fill="#2563eb"></circle><circle class="dot" cx="294.66192170818505" cy="127.49999999999982" r="3" fill="#2563eb"></circle><circle class="dot" cx="295.94306049822063" cy="127.49999999999982" r="3" fill="#2563eb"></circle><circle class="dot" cx="297.2241992882562" cy="127.49999999999982" r="3" fill="#2563eb"></circle><circle class="dot" cx="298.5053380782918" cy="127.49999999999982" r="3" fill="#2563eb"></circle><circle class="dot" cx="299.7864768683274" cy="127.49999999999982" r="3" fill="#2563eb"></circle><circle class="dot" cx="301.06761565836297" cy="127.49999999999982" r="3" fill="#2563eb"></circle><circle class="dot" cx="302.34875444839855" cy="127.49999999999982" r="3" fill="#2563eb"></circle><circle class="dot" cx="303.62989323843414" cy="127.49999999999982" r="3" fill="#2563eb"></circle><circle class="dot" cx="304.9110320284698" cy="127.49999999999982" r="3" fill="#2563eb"></circle><circle class="dot" cx="306.19217081850536" cy="127.49999999999982" r="3" fill="#2563eb"></circle><circle class="dot" cx="307.47330960854094" cy="127.49999999999982" r="3" fill="#2563eb"></circle><circle class="dot" cx="308.7544483985765" cy="127.49999999999982" r="3" fill="#2563eb"></circle><circle class="dot" cx="310.0355871886121" cy="127.49999999999982" r="3" fill="#2563eb"></circle><circle class="dot" cx="311.3167259786477" cy="127.49999999999982" r="3" fill="#2563eb"></circle><circle class="dot" cx="312.5978647686833" cy="127.49999999999982" r="3" fill="#2563eb"></circle><circle class="dot" cx="313.87900355871886" cy="127.49999999999982" r="3" fill="#2563eb"></circle><circle class="dot" cx="315.16014234875445" cy="127.49999999999982" r="3" fill="#2563eb"></circle><circle class="dot" cx="316.44128113879003" cy="127.49999999999982" r="3" fill="#2563eb"></circle><circle class="dot" cx="317.7224199288256" cy="127.49999999999982" r="3" fill="#2563eb"></circle><circle class="dot" cx="319.0035587188612" cy="127.49999999999982" r="3" fill="#2563eb"></circle><circle class="dot" cx="320.2846975088968" cy="127.49999999999982" r="3" fill="#2563eb"></circle><circle class="dot" cx="321.56583629893237" cy="127.49999999999982" r="3" fill="#2563eb"></circle><circle class="dot" cx="322.84697508896795" cy="127.49999999999982" r="3" fill="#2563eb"></circle><circle class="dot" cx="324.12811387900354" cy="127.49999999999982" r="3" fill="#2563eb"></circle><circle class="dot" cx="325.4092526690391" cy="127.49999999999982" r="3" fill="#2563eb"></circle><circle class="dot" cx="326.6903914590747" cy="127.49999999999982" r="3" fill="#2563eb"></circle><circle class="dot" cx="327.9715302491103" cy="127.49999999999982" r="3" fill="#2563eb"></circle><circle class="dot" cx="329.2526690391459" cy="127.49999999999982" r="3" fill="#2563eb"></circle><circle class="dot" cx="330.5338078291815" cy="127.49999999999982" r="3" fill="#2563eb"></circle><circle class="dot" cx="331.8149466192171" cy="127.49999999999982" r="3" fill="#2563eb"></circle><circle class="dot" cx="333.0960854092527" cy="127.49999999999982" r="3" fill="#2563eb"></circle><circle class="dot" cx="334.37722419928826" cy="127.49999999999982" r="3" fill="#2563eb"></circle><circle class="dot" cx="335.65836298932385" cy="127.49999999999982" r="3" fill="#2563eb"></circle><circle class="dot" cx="336.93950177935943" cy="127.49999999999982" r="3" fill="#2563eb"></circle><circle class="dot" cx="338.220640569395" cy="127.49999999999982" r="3" fill="#2563eb"></circle><circle class="dot" cx="339.5017793594306" cy="127.49999999999982" r="3" fill="#2563eb"></circle><circle class="dot" cx="340.7829181494662" cy="127.49999999999982" r="3" fill="#2563eb"></circle><circle class="dot" cx="342.0640569395018" cy="127.49999999999982" r="3" fill="#2563eb"></circle><circle class="dot" cx="343.3451957295374" cy="340" r="3" fill="#2563eb"></circle><circle class="dot" cx="344.62633451957294" cy="340" r="3" fill="#2563eb"></circle><circle class="dot" cx="345.9074733096085" cy="340" r="3" fill="#2563eb"></circle><circle class="dot" cx="347.1886120996441" cy="340" r="3" fill="#2563eb"></circle><circle class="dot" cx="348.4697508896797" cy="340" r="3" fill="#2563eb"></circle><circle class="dot" cx="349.75088967971527" cy="340" r="3" fill="#2563eb"></circle><circle class="dot" cx="351.03202846975086" cy="340" r="3" fill="#2563eb"></circle><circle class="dot" cx="352.31316725978644" cy="340" r="3" fill="#2563eb"></circle><circle class="dot" cx="353.594306049822" cy="340" r="3" fill="#2563eb"></circle><circle class="dot" cx="354.87544483985766" cy="340" r="3" fill="#2563eb"></circle><circle class="dot" cx="356.15658362989325" cy="340" r="3" fill="#2563eb"></circle><circle class="dot" cx="357.43772241992883" cy="340" r="3" fill="#2563eb"></circle><circle class="dot" cx="358.7188612099644" cy="340" r="3" fill="#2563eb"></circle><circle class="dot" cx="360" cy="340" r="3" fill="#2563eb"></circle><circle class="dot" cx="361.28113879003564" cy="340" r="3" fill="#2563eb"></circle><circle class="dot" cx="362.56227758007117" cy="340" r="3" fill="#2563eb"></circle><circle class="dot" cx="363.8434163701068" cy="340" r="3" fill="#2563eb"></circle><circle class="dot" cx="365.12455516014234" cy="340" r="3" fill="#2563eb"></circle><circle class="dot" cx="366.405693950178" cy="340" r="3" fill="#2563eb"></circle><circle class="dot" cx="367.6868327402135" cy="340" r="3" fill="#2563eb"></circle><circle class="dot" cx="368.96797153024914" cy="340" r="3" fill="#2563eb"></circle><circle class="dot" cx="370.2491103202847" cy="340" r="3" fill="#2563eb"></circle><circle class="dot" cx="371.5302491103203" cy="340" r="3" fill="#2563eb"></circle><circle class="dot" cx="372.8113879003559" cy="340" r="3" fill="#2563eb"></circle><circle class="dot" cx="374.0925266903915" cy="340" r="3" fill="#2563eb"></circle><circle class="dot" cx="375.37366548042706" cy="340" r="3" fill="#2563eb"></circle><circle class="dot" cx="376.6548042704626" cy="340" r="3" fill="#2563eb"></circle><circle class="dot" cx="377.93594306049823" cy="340" r="3" fill="#2563eb"></circle><circle class="dot" cx="379.21708185053376" cy="340" r="3" fill="#2563eb"></circle><circle class="dot" cx="380.4982206405694" cy="340" r="3" fill="#2563eb"></circle><circle class="dot" cx="381.7793594306049" cy="340" r="3" fill="#2563eb"></circle><circle class="dot" cx="383.06049822064057" cy="340" r="3" fill="#2563eb"></circle><circle class="dot" cx="384.3416370106761" cy="340" r="3" fill="#2563eb"></circle><circle class="dot" cx="385.62277580071174" cy="340" r="3" fill="#2563eb"></circle><circle class="dot" cx="386.9039145907474" cy="340" r="3" fill="#2563eb"></circle><circle class="dot" cx="388.1850533807829" cy="340" r="3" fill="#2563eb"></circle><circle class="dot" cx="389.46619217081854" cy="340" r="3" fill="#2563eb"></circle><circle class="dot" cx="390.7473309608541" cy="340" r="3" fill="#2563eb"></circle><circle class="dot" cx="392.0284697508897" cy="340" r="3" fill="#2563eb"></circle><circle class="dot" cx="393.30960854092524" cy="340" r="3" fill="#2563eb"></circle><circle class="dot" cx="394.5907473309609" cy="340" r="3" fill="#2563eb"></circle><circle class="dot" cx="395.8718861209964" cy="340" r="3" fill="#2563eb"></circle><circle class="dot" cx="397.15302491103205" cy="340" r="3" fill="#2563eb"></circle><circle class="dot" cx="398.43416370106763" cy="340" r="3" fill="#2563eb"></circle><circle class="dot" cx="399.7153024911032" cy="340" r="3" fill="#2563eb"></circle><circle class="dot" cx="400.9964412811388" cy="340" r="3" fill="#2563eb"></circle><circle class="dot" cx="402.2775800711744" cy="340" r="3" fill="#2563eb"></circle><circle class="dot" cx="403.55871886120997" cy="340" r="3" fill="#2563eb"></circle><circle class="dot" cx="404.83985765124555" cy="340" r="3" fill="#2563eb"></circle><circle class="dot" cx="406.12099644128114" cy="340" r="3" fill="#2563eb"></circle><circle class="dot" cx="407.4021352313167" cy="340" r="3" fill="#2563eb"></circle><circle class="dot" cx="408.6832740213523" cy="340" r="3" fill="#2563eb"></circle><circle class="dot" cx="409.96441281138794" cy="340" r="3" fill="#2563eb"></circle><circle class="dot" cx="411.2455516014235" cy="340" r="3" fill="#2563eb"></circle><circle class="dot" cx="412.5266903914591" cy="340" r="3" fill="#2563eb"></circle><circle class="dot" cx="413.80782918149464" cy="340" r="3" fill="#2563eb"></circle><circle class="dot" cx="415.0889679715303" cy="340" r="3" fill="#2563eb"></circle><circle class="dot" cx="416.3701067615658" cy="340" r="3" fill="#2563eb"></circle><circle class="dot" cx="417.65124555160145" cy="340" r="3" fill="#2563eb"></circle><circle class="dot" cx="418.932384341637" cy="340" r="3" fill="#2563eb"></circle><circle class="dot" cx="420.2135231316726" cy="340" r="3" fill="#2563eb"></circle><circle class="dot" cx="421.49466192170814" cy="340" r="3" fill="#2563eb"></circle><circle class="dot" cx="422.7758007117438" cy="340" r="3" fill="#2563eb"></circle><circle class="dot" cx="424.05693950177937" cy="340" r="3" fill="#2563eb"></circle><circle class="dot" cx="425.33807829181495" cy="340" r="3" fill="#2563eb"></circle><circle class="dot" cx="426.61921708185054" cy="340" r="3" fill="#2563eb"></circle><circle class="dot" cx="427.9003558718861" cy="340" r="3" fill="#2563eb"></circle><circle class="dot" cx="429.1814946619217" cy="340" r="3" fill="#2563eb"></circle><circle class="dot" cx="430.4626334519573" cy="340" r="3" fill="#2563eb"></circle><circle class="dot" cx="431.7437722419929" cy="340" r="3" fill="#2563eb"></circle><circle class="dot" cx="433.02491103202846" cy="340" r="3" fill="#2563eb"></circle><circle class="dot" cx="434.30604982206404" cy="340" r="3" fill="#2563eb"></circle><circle class="dot" cx="435.5871886120997" cy="340" r="3" fill="#2563eb"></circle><circle class="dot" cx="436.8683274021352" cy="340" r="3" fill="#2563eb"></circle><circle class="dot" cx="438.14946619217085" cy="340" r="3" fill="#2563eb"></circle><circle class="dot" cx="439.4306049822064" cy="340" r="3" fill="#2563eb"></circle><circle class="dot" cx="440.711743772242" cy="340" r="3" fill="#2563eb"></circle><circle class="dot" cx="441.99288256227754" cy="340" r="3" fill="#2563eb"></circle><circle class="dot" cx="443.2740213523132" cy="340" r="3" fill="#2563eb"></circle><circle class="dot" cx="444.5551601423487" cy="340" r="3" fill="#2563eb"></circle><circle class="dot" cx="445.83629893238435" cy="340" r="3" fill="#2563eb"></circle><circle class="dot" cx="447.11743772242" cy="340" r="3" fill="#2563eb"></circle><circle class="dot" cx="448.3985765124555" cy="340" r="3" fill="#2563eb"></circle><circle class="dot" cx="449.67971530249116" cy="340" r="3" fill="#2563eb"></circle><circle class="dot" cx="450.9608540925267" cy="340" r="3" fill="#2563eb"></circle><circle class="dot" cx="452.2419928825623" cy="340" r="3" fill="#2563eb"></circle><circle class="dot" cx="453.52313167259786" cy="340" r="3" fill="#2563eb"></circle><circle class="dot" cx="454.80427046263344" cy="340" r="3" fill="#2563eb"></circle><circle class="dot" cx="456.085409252669" cy="340" r="3" fill="#2563eb"></circle><circle class="dot" cx="457.3665480427046" cy="340" r="3" fill="#2563eb"></circle><circle class="dot" cx="458.6476868327402" cy="340" r="3" fill="#2563eb"></circle><circle class="dot" cx="459.9288256227758" cy="340" r="3" fill="#2563eb"></circle><circle class="dot" cx="461.2099644128114" cy="340" r="3" fill="#2563eb"></circle><circle class="dot" cx="462.49110320284694" cy="340" r="3" fill="#2563eb"></circle><circle class="dot" cx="463.7722419928826" cy="340" r="3" fill="#2563eb"></circle><circle class="dot" cx="465.0533807829181" cy="340" r="3" fill="#2563eb"></circle><circle class="dot" cx="466.33451957295375" cy="340" r="3" fill="#2563eb"></circle><circle class="dot" cx="467.6156583629893" cy="340" r="3" fill="#2563eb"></circle><circle class="dot" cx="468.8967971530249" cy="340" r="3" fill="#2563eb"></circle><circle class="dot" cx="470.17793594306045" cy="340" r="3" fill="#2563eb"></circle><circle class="dot" cx="471.4590747330961" cy="340" r="3" fill="#2563eb"></circle><circle class="dot" cx="472.74021352313173" cy="340" r="3" fill="#2563eb"></circle><circle class="dot" cx="474.02135231316726" cy="340" r="3" fill="#2563eb"></circle><circle class="dot" cx="475.3024911032029" cy="340" r="3" fill="#2563eb"></circle><circle class="dot" cx="476.5836298932384" cy="340" r="3" fill="#2563eb"></circle><circle class="dot" cx="477.86476868327406" cy="340" r="3" fill="#2563eb"></circle><circle class="dot" cx="479.1459074733096" cy="340" r="3" fill="#2563eb"></circle><circle class="dot" cx="480.42704626334523" cy="340" r="3" fill="#2563eb"></circle><circle class="dot" cx="481.70818505338076" cy="340" r="3" fill="#2563eb"></circle><circle class="dot" cx="482.9893238434164" cy="340" r="3" fill="#2563eb"></circle><circle class="dot" cx="484.270462633452" cy="340" r="3" fill="#2563eb"></circle><circle class="dot" cx="485.55160142348757" cy="340" r="3" fill="#2563eb"></circle><circle class="dot" cx="486.83274021352315" cy="340" r="3" fill="#2563eb"></circle><circle class="dot" cx="488.1138790035587" cy="340" r="3" fill="#2563eb"></circle><circle class="dot" cx="489.3950177935943" cy="340" r="3" fill="#2563eb"></circle><circle class="dot" cx="490.67615658362985" cy="340" r="3" fill="#2563eb"></circle><circle class="dot" cx="491.9572953736655" cy="340" r="3" fill="#2563eb"></circle><circle class="dot" cx="493.238434163701" cy="340" r="3" fill="#2563eb"></circle><circle class="dot" cx="494.51957295373666" cy="340" r="3" fill="#2563eb"></circle><circle class="dot" cx="495.8007117437722" cy="340" r="3" fill="#2563eb"></circle><circle class="dot" cx="497.0818505338078" cy="340" r="3" fill="#2563eb"></circle><circle class="dot" cx="498.36298932384346" cy="340" r="3" fill="#2563eb"></circle><circle class="dot" cx="499.644128113879" cy="340" r="3" fill="#2563eb"></circle><circle class="dot" cx="500.92526690391463" cy="340" r="3" fill="#2563eb"></circle><circle class="dot" cx="502.20640569395016" cy="340" r="3" fill="#2563eb"></circle><circle class="dot" cx="503.4875444839858" cy="340" r="3" fill="#2563eb"></circle><circle class="dot" cx="504.7686832740213" cy="340" r="3" fill="#2563eb"></circle><circle class="dot" cx="506.04982206405697" cy="340" r="3" fill="#2563eb"></circle><circle class="dot" cx="507.3309608540925" cy="340" r="3" fill="#2563eb"></circle><circle class="dot" cx="508.61209964412814" cy="340" r="3" fill="#2563eb"></circle><circle class="dot" cx="509.8932384341637" cy="340" r="3" fill="#2563eb"></circle><circle class="dot" cx="511.1743772241993" cy="340" r="3" fill="#2563eb"></circle><circle class="dot" cx="512.455516014235" cy="340" r="3" fill="#2563eb"></circle><circle class="dot" cx="513.7366548042704" cy="340" r="3" fill="#2563eb"></circle><circle class="dot" cx="515.0177935943061" cy="340" r="3" fill="#2563eb"></circle><circle class="dot" cx="516.2989323843416" cy="340" r="3" fill="#2563eb"></circle><circle class="dot" cx="517.5800711743773" cy="340" r="3" fill="#2563eb"></circle><circle class="dot" cx="518.8612099644128" cy="340" r="3" fill="#2563eb"></circle><circle class="dot" cx="520.1423487544484" cy="340" r="3" fill="#2563eb"></circle><circle class="dot" cx="521.423487544484" cy="340" r="3" fill="#2563eb"></circle><circle class="dot" cx="522.7046263345196" cy="340" r="3" fill="#2563eb"></circle><circle class="dot" cx="523.9857651245552" cy="340" r="3" fill="#2563eb"></circle><circle class="dot" cx="525.2669039145908" cy="340" r="3" fill="#2563eb"></circle><circle class="dot" cx="526.5480427046264" cy="340" r="3" fill="#2563eb"></circle><circle class="dot" cx="527.829181494662" cy="340" r="3" fill="#2563eb"></circle><circle class="dot" cx="529.1103202846975" cy="340" r="3" fill="#2563eb"></circle><circle class="dot" cx="530.3914590747331" cy="340" r="3" fill="#2563eb"></circle><circle class="dot" cx="531.6725978647687" cy="340" r="3" fill="#2563eb"></circle><circle class="dot" cx="532.9537366548043" cy="340" r="3" fill="#2563eb"></circle><circle class="dot" cx="534.2348754448399" cy="340" r="3" fill="#2563eb"></circle><circle class="dot" cx="535.5160142348755" cy="340" r="3" fill="#2563eb"></circle><circle class="dot" cx="536.797153024911" cy="340" r="3" fill="#2563eb"></circle><circle class="dot" cx="538.0782918149466" cy="340" r="3" fill="#2563eb"></circle><circle class="dot" cx="539.3594306049822" cy="340" r="3" fill="#2563eb"></circle><circle class="dot" cx="540.6405693950178" cy="340" r="3" fill="#2563eb"></circle><circle class="dot" cx="541.9217081850534" cy="340" r="3" fill="#2563eb"></circle><circle class="dot" cx="543.202846975089" cy="340" r="3" fill="#2563eb"></circle><circle class="dot" cx="544.4839857651245" cy="340" r="3" fill="#2563eb"></circle><circle class="dot" cx="545.7651245551601" cy="340" r="3" fill="#2563eb"></circle><circle class="dot" cx="547.0462633451957" cy="340" r="3" fill="#2563eb"></circle><circle class="dot" cx="548.3274021352313" cy="340" r="3" fill="#2563eb"></circle><circle class="dot" cx="549.6085409252669" cy="340" r="3" fill="#2563eb"></circle><circle class="dot" cx="550.8896797153025" cy="340" r="3" fill="#2563eb"></circle><circle class="dot" cx="552.170818505338" cy="340" r="3" fill="#2563eb"></circle><circle class="dot" cx="553.4519572953736" cy="340" r="3" fill="#2563eb"></circle><circle class="dot" cx="554.7330960854092" cy="340" r="3" fill="#2563eb"></circle><circle class="dot" cx="556.0142348754448" cy="340" r="3" fill="#2563eb"></circle><circle class="dot" cx="557.2953736654804" cy="340" r="3" fill="#2563eb"></circle><circle class="dot" cx="558.576512455516" cy="340" r="3" fill="#2563eb"></circle><circle class="dot" cx="559.8576512455516" cy="340" r="3" fill="#2563eb"></circle><circle class="dot" cx="561.1387900355872" cy="340" r="3" fill="#2563eb"></circle><circle class="dot" cx="562.4199288256227" cy="340" r="3" fill="#2563eb"></circle><circle class="dot" cx="563.7010676156584" cy="340" r="3" fill="#2563eb"></circle><circle class="dot" cx="564.9822064056939" cy="340" r="3" fill="#2563eb"></circle><circle class="dot" cx="566.2633451957296" cy="340" r="3" fill="#2563eb"></circle><circle class="dot" cx="567.544483985765" cy="340" r="3" fill="#2563eb"></circle><circle class="dot" cx="568.8256227758008" cy="340" r="3" fill="#2563eb"></circle><circle class="dot" cx="570.1067615658362" cy="340" r="3" fill="#2563eb"></circle><circle class="dot" cx="571.3879003558719" cy="340" r="3" fill="#2563eb"></circle><circle class="dot" cx="572.6690391459075" cy="340" r="3" fill="#2563eb"></circle><circle class="dot" cx="573.9501779359431" cy="340" r="3" fill="#2563eb"></circle><circle class="dot" cx="575.2313167259787" cy="340" r="3" fill="#2563eb"></circle><circle class="dot" cx="576.5124555160143" cy="340" r="3" fill="#2563eb"></circle><circle class="dot" cx="577.7935943060498" cy="340" r="3" fill="#2563eb"></circle><circle class="dot" cx="579.0747330960854" cy="340" r="3" fill="#2563eb"></circle><circle class="dot" cx="580.355871886121" cy="340" r="3" fill="#2563eb"></circle><circle class="dot" cx="581.6370106761566" cy="340" r="3" fill="#2563eb"></circle><circle class="dot" cx="582.9181494661922" cy="340" r="3" fill="#2563eb"></circle><circle class="dot" cx="584.1992882562278" cy="340" r="3" fill="#2563eb"></circle><circle class="dot" cx="585.4804270462633" cy="340" r="3" fill="#2563eb"></circle><circle class="dot" cx="586.7615658362989" cy="340" r="3" fill="#2563eb"></circle><circle class="dot" cx="588.0427046263345" cy="340" r="3" fill="#2563eb"></circle><circle class="dot" cx="589.3238434163701" cy="340" r="3" fill="#2563eb"></circle><circle class="dot" cx="590.6049822064057" cy="340" r="3" fill="#2563eb"></circle><circle class="dot" cx="591.8861209964413" cy="340" r="3" fill="#2563eb"></circle><circle class="dot" cx="593.1672597864768" cy="340" r="3" fill="#2563eb"></circle><circle class="dot" cx="594.4483985765124" cy="340" r="3" fill="#2563eb"></circle><circle class="dot" cx="595.729537366548" cy="340" r="3" fill="#2563eb"></circle><circle class="dot" cx="597.0106761565836" cy="340" r="3" fill="#2563eb"></circle><circle class="dot" cx="598.2918149466193" cy="340" r="3" fill="#2563eb"></circle><circle class="dot" cx="599.5729537366548" cy="340" r="3" fill="#2563eb"></circle><circle class="dot" cx="600.8540925266905" cy="340" r="3" fill="#2563eb"></circle><circle class="dot" cx="602.1352313167259" cy="340" r="3" fill="#2563eb"></circle><circle class="dot" cx="603.4163701067616" cy="340" r="3" fill="#2563eb"></circle><circle class="dot" cx="604.6975088967971" cy="340" r="3" fill="#2563eb"></circle><circle class="dot" cx="605.9786476868328" cy="340" r="3" fill="#2563eb"></circle><circle class="dot" cx="607.2597864768683" cy="340" r="3" fill="#2563eb"></circle><circle class="dot" cx="608.540925266904" cy="340" r="3" fill="#2563eb"></circle><circle class="dot" cx="609.8220640569396" cy="340" r="3" fill="#2563eb"></circle><circle class="dot" cx="611.1032028469751" cy="340" r="3" fill="#2563eb"></circle><circle class="dot" cx="612.3843416370107" cy="340" r="3" fill="#2563eb"></circle><circle class="dot" cx="613.6654804270462" cy="340" r="3" fill="#2563eb"></circle><circle class="dot" cx="614.9466192170819" cy="340" r="3" fill="#2563eb"></circle><circle class="dot" cx="616.2277580071174" cy="340" r="3" fill="#2563eb"></circle><circle class="dot" cx="617.508896797153" cy="340" r="3" fill="#2563eb"></circle><circle class="dot" cx="618.7900355871885" cy="340" r="3" fill="#2563eb"></circle><circle class="dot" cx="620.0711743772242" cy="340" r="3" fill="#2563eb"></circle><circle class="dot" cx="621.3523131672598" cy="340" r="3" fill="#2563eb"></circle><circle class="dot" cx="622.6334519572954" cy="340" r="3" fill="#2563eb"></circle><circle class="dot" cx="623.914590747331" cy="340" r="3" fill="#2563eb"></circle><circle class="dot" cx="625.1957295373666" cy="340" r="3" fill="#2563eb"></circle><circle class="dot" cx="626.4768683274021" cy="340" r="3" fill="#2563eb"></circle><circle class="dot" cx="627.7580071174377" cy="340" r="3" fill="#2563eb"></circle><circle class="dot" cx="629.0391459074733" cy="340" r="3" fill="#2563eb"></circle><circle class="dot" cx="630.3202846975089" cy="340" r="3" fill="#2563eb"></circle><circle class="dot" cx="631.6014234875445" cy="340" r="3" fill="#2563eb"></circle><circle class="dot" cx="632.8825622775801" cy="340" r="3" fill="#2563eb"></circle><circle class="dot" cx="634.1637010676156" cy="340" r="3" fill="#2563eb"></circle><circle class="dot" cx="635.4448398576512" cy="340" r="3" fill="#2563eb"></circle><circle class="dot" cx="636.7259786476868" cy="340" r="3" fill="#2563eb"></circle><circle class="dot" cx="638.0071174377224" cy="340" r="3" fill="#2563eb"></circle><circle class="dot" cx="639.288256227758" cy="340" r="3" fill="#2563eb"></circle><circle class="dot" cx="640.5693950177936" cy="340" r="3" fill="#2563eb"></circle><circle class="dot" cx="641.8505338078292" cy="340" r="3" fill="#2563eb"></circle><circle class="dot" cx="643.1316725978647" cy="340" r="3" fill="#2563eb"></circle><circle class="dot" cx="644.4128113879003" cy="340" r="3" fill="#2563eb"></circle><circle class="dot" cx="645.6939501779359" cy="340" r="3" fill="#2563eb"></circle><circle class="dot" cx="646.9750889679716" cy="340" r="3" fill="#2563eb"></circle><circle class="dot" cx="648.2562277580071" cy="340" r="3" fill="#2563eb"></circle><circle class="dot" cx="649.5373665480428" cy="340" r="3" fill="#2563eb"></circle><circle class="dot" cx="650.8185053380782" cy="340" r="3" fill="#2563eb"></circle><circle class="dot" cx="652.0996441281139" cy="340" r="3" fill="#2563eb"></circle><circle class="dot" cx="653.3807829181494" cy="340" r="3" fill="#2563eb"></circle><circle class="dot" cx="654.6619217081851" cy="340" r="3" fill="#2563eb"></circle><circle class="dot" cx="655.9430604982206" cy="340" r="3" fill="#2563eb"></circle><circle class="dot" cx="657.2241992882563" cy="340" r="3" fill="#2563eb"></circle><circle class="dot" cx="658.5053380782919" cy="340" r="3" fill="#2563eb"></circle><circle class="dot" cx="659.7864768683274" cy="340" r="3" fill="#2563eb"></circle><circle class="dot" cx="661.067615658363" cy="340" r="3" fill="#2563eb"></circle><circle class="dot" cx="662.3487544483986" cy="340" r="3" fill="#2563eb"></circle><circle class="dot" cx="663.6298932384342" cy="340" r="3" fill="#2563eb"></circle><circle class="dot" cx="664.9110320284698" cy="340" r="3" fill="#2563eb"></circle><circle class="dot" cx="666.1921708185054" cy="340" r="3" fill="#2563eb"></circle><circle class="dot" cx="667.473309608541" cy="340" r="3" fill="#2563eb"></circle><circle class="dot" cx="668.7544483985765" cy="340" r="3" fill="#2563eb"></circle><circle class="dot" cx="670.0355871886121" cy="340" r="3" fill="#2563eb"></circle><circle class="dot" cx="671.3167259786477" cy="340" r="3" fill="#2563eb"></circle><circle class="dot" cx="672.5978647686833" cy="340" r="3" fill="#2563eb"></circle><circle class="dot" cx="673.8790035587189" cy="340" r="3" fill="#2563eb"></circle><circle class="dot" cx="675.1601423487544" cy="340" r="3" fill="#2563eb"></circle><circle class="dot" cx="676.44128113879" cy="340" r="3" fill="#2563eb"></circle><circle class="dot" cx="677.7224199288256" cy="340" r="3" fill="#2563eb"></circle><circle class="dot" cx="679.0035587188612" cy="340" r="3" fill="#2563eb"></circle><circle class="dot" cx="680.2846975088968" cy="340" r="3" fill="#2563eb"></circle><circle class="dot" cx="681.5658362989324" cy="340" r="3" fill="#2563eb"></circle><circle class="dot" cx="682.846975088968" cy="340" r="3" fill="#2563eb"></circle><circle class="dot" cx="684.1281138790036" cy="340" r="3" fill="#2563eb"></circle><circle class="dot" cx="685.4092526690391" cy="340" r="3" fill="#2563eb"></circle><circle class="dot" cx="686.6903914590748" cy="340" r="3" fill="#2563eb"></circle><circle class="dot" cx="687.9715302491103" cy="340" r="3" fill="#2563eb"></circle><circle class="dot" cx="689.2526690391459" cy="340" r="3" fill="#2563eb"></circle><circle class="dot" cx="690.5338078291815" cy="340" r="3" fill="#2563eb"></circle><circle class="dot" cx="691.814946619217" cy="340" r="3" fill="#2563eb"></circle><circle class="dot" cx="693.0960854092526" cy="340" r="3" fill="#2563eb"></circle><circle class="dot" cx="694.3772241992882" cy="340" r="3" fill="#2563eb"></circle><circle class="dot" cx="695.6583629893239" cy="340" r="3" fill="#2563eb"></circle><circle class="dot" cx="696.9395017793594" cy="340" r="3" fill="#2563eb"></circle><circle class="dot" cx="698.2206405693951" cy="340" r="3" fill="#2563eb"></circle><circle class="dot" cx="699.5017793594305" cy="340" r="3" fill="#2563eb"></circle><circle class="dot" cx="700.7829181494662" cy="340" r="3" fill="#2563eb"></circle><circle class="dot" cx="702.0640569395017" cy="340" r="3" fill="#2563eb"></circle><circle class="dot" cx="703.3451957295374" cy="340" r="3" fill="#2563eb"></circle><circle class="dot" cx="704.6263345195729" cy="340" r="3" fill="#2563eb"></circle><circle class="dot" cx="705.9074733096086" cy="340" r="3" fill="#2563eb"></circle><circle class="dot" cx="707.188612099644" cy="340" r="3" fill="#2563eb"></circle><circle class="dot" cx="708.4697508896797" cy="340" r="3" fill="#2563eb"></circle><circle class="dot" cx="709.7508896797153" cy="340" r="3" fill="#2563eb"></circle><circle class="dot" cx="711.0320284697509" cy="340" r="3" fill="#2563eb"></circle><circle class="dot" cx="712.3131672597865" cy="340" r="3" fill="#2563eb"></circle><circle class="dot" cx="713.5943060498221" cy="340" r="3" fill="#2563eb"></circle><circle class="dot" cx="714.8754448398577" cy="340" r="3" fill="#2563eb"></circle><circle class="dot" cx="716.1565836298932" cy="340" r="3" fill="#2563eb"></circle><circle class="dot" cx="717.4377224199288" cy="340" r="3" fill="#2563eb"></circle><circle class="dot" cx="718.7188612099644" cy="340" r="3" fill="#2563eb"></circle><circle class="dot" cx="720" cy="340" r="3" fill="#2563eb"></circle><g class="grid" transform="translate(0,340)" fill="none" font-size="10" font-family="sans-serif" text-anchor="middle" style="stroke-dasharray: 3,3; opacity: 0.3;"><path class="domain" stroke="currentColor" d="M0.5,-340V0.5H720.5V-340"></path><g class="tick" opacity="1" transform="translate(0.5,0)"><line stroke="currentColor" y2="-340"></line><text fill="currentColor" y="3" dy="0.71em"></text></g><g class="tick" opacity="1" transform="translate(31.247330960854093,0)"><line stroke="currentColor" y2="-340"></line><text fill="currentColor" y="3" dy="0.71em"></text></g><g class="tick" opacity="1" transform="translate(61.994661921708186,0)"><line stroke="currentColor" y2="-340"></line><text fill="currentColor" y="3" dy="0.71em"></text></g><g class="tick" opacity="1" transform="translate(92.74199288256229,0)"><line stroke="currentColor" y2="-340"></line><text fill="currentColor" y="3" dy="0.71em"></text></g><g class="tick" opacity="1" transform="translate(123.48932384341637,0)"><line stroke="currentColor" y2="-340"></line><text fill="currentColor" y="3" dy="0.71em"></text></g><g class="tick" opacity="1" transform="translate(154.23665480427047,0)"><line stroke="currentColor" y2="-340"></line><text fill="currentColor" y="3" dy="0.71em"></text></g><g class="tick" opacity="1" transform="translate(184.98398576512457,0)"><line stroke="currentColor" y2="-340"></line><text fill="currentColor" y="3" dy="0.71em"></text></g><g class="tick" opacity="1" transform="translate(215.73131672597864,0)"><line stroke="currentColor" y2="-340"></line><text fill="currentColor" y="3" dy="0.71em"></text></g><g class="tick" opacity="1" transform="translate(246.47864768683274,0)"><line stroke="currentColor" y2="-340"></line><text fill="currentColor" y="3" dy="0.71em"></text></g><g class="tick" opacity="1" transform="translate(277.2259786476868,0)"><line stroke="currentColor" y2="-340"></line><text fill="currentColor" y="3" dy="0.71em"></text></g><g class="tick" opacity="1" transform="translate(307.97330960854094,0)"><line stroke="currentColor" y2="-340"></line><text fill="currentColor" y="3" dy="0.71em"></text></g><g class="tick" opacity="1" transform="translate(338.720640569395,0)"><line stroke="currentColor" y2="-340"></line><text fill="currentColor" y="3" dy="0.71em"></text></g><g class="tick" opacity="1" transform="translate(369.46797153024914,0)"><line stroke="currentColor" y2="-340"></line><text fill="currentColor" y="3" dy="0.71em"></text></g><g class="tick" opacity="1" transform="translate(400.2153024911032,0)"><line stroke="currentColor" y2="-340"></line><text fill="currentColor" y="3" dy="0.71em"></text></g><g class="tick" opacity="1" transform="translate(430.9626334519573,0)"><line stroke="currentColor" y2="-340"></line><text fill="currentColor" y="3" dy="0.71em"></text></g><g class="tick" opacity="1" transform="translate(461.7099644128114,0)"><line stroke="currentColor" y2="-340"></line><text fill="currentColor" y="3" dy="0.71em"></text></g><g class="tick" opacity="1" transform="translate(492.4572953736655,0)"><line stroke="currentColor" y2="-340"></line><text fill="currentColor" y="3" dy="0.71em"></text></g><g class="tick" opacity="1" transform="translate(523.2046263345196,0)"><line stroke="currentColor" y2="-340"></line><text fill="currentColor" y="3" dy="0.71em"></text></g><g class="tick" opacity="1" transform="translate(553.9519572953736,0)"><line stroke="currentColor" y2="-340"></line><text fill="currentColor" y="3" dy="0.71em"></text></g><g class="tick" opacity="1" transform="translate(584.6992882562278,0)"><line stroke="currentColor" y2="-340"></line><text fill="currentColor" y="3" dy="0.71em"></text></g><g class="tick" opacity="1" transform="translate(615.4466192170819,0)"><line stroke="currentColor" y2="-340"></line><text fill="currentColor" y="3" dy="0.71em"></text></g><g class="tick" opacity="1" transform="translate(646.1939501779359,0)"><line stroke="currentColor" y2="-340"></line><text fill="currentColor" y="3" dy="0.71em"></text></g><g class="tick" opacity="1" transform="translate(676.94128113879,0)"><line stroke="currentColor" y2="-340"></line><text fill="currentColor" y="3" dy="0.71em"></text></g><g class="tick" opacity="1" transform="translate(707.688612099644,0)"><line stroke="currentColor" y2="-340"></line><text fill="currentColor" y="3" dy="0.71em"></text></g></g><g class="grid" fill="none" font-size="10" font-family="sans-serif" text-anchor="end" style="stroke-dasharray: 3,3; opacity: 0.3;"><path class="domain" stroke="currentColor" d="M720,340.5H0.5V0.5H720"></path><g class="tick" opacity="1" transform="translate(0,340.5)"><line stroke="currentColor" x2="720"></line><text fill="currentColor" x="-3" dy="0.32em"></text></g><g class="tick" opacity="1" transform="translate(0,297.99999999999994)"><line stroke="currentColor" x2="720"></line><text fill="currentColor" x="-3" dy="0.32em"></text></g><g class="tick" opacity="1" transform="translate(0,255.49999999999991)"><line stroke="currentColor" x2="720"></line><text fill="currentColor" x="-3" dy="0.32em"></text></g><g class="tick" opacity="1" transform="translate(0,212.9999999999999)"><line stroke="currentColor" x2="720"></line><text fill="currentColor" x="-3" dy="0.32em"></text></g><g class="tick" opacity="1" transform="translate(0,170.49999999999986)"><line stroke="currentColor" x2="720"></line><text fill="currentColor" x="-3" dy="0.32em"></text></g><g class="tick" opacity="1" transform="translate(0,127.99999999999982)"><line stroke="currentColor" x2="720"></line><text fill="currentColor" x="-3" dy="0.32em"></text></g><g class="tick" opacity="1" transform="translate(0,85.50000000000007)"><line stroke="currentColor" x2="720"></line><text fill="currentColor" x="-3" dy="0.32em"></text></g><g class="tick" opacity="1" transform="translate(0,43.000000000000036)"><line stroke="currentColor" x2="720"></line><text fill="currentColor" x="-3" dy="0.32em"></text></g><g class="tick" opacity="1" transform="translate(0,0.5)"><line stroke="currentColor" x2="720"></line><text fill="currentColor" x="-3" dy="0.32em"></text></g></g></g><text x="400" y="10" text-anchor="middle" style="font-size: 16px; font-weight: bold; fill: #333;">OKX USDT Lending Rate - Current Month</text></svg>