<svg width="800" height="400" xmlns="http://www.w3.org/2000/svg"><g transform="translate(50,20)"><g transform="translate(0,340)" fill="none" font-size="10" font-family="sans-serif" text-anchor="middle"><path class="domain" stroke="currentColor" d="M0.5,6V0.5H720.5V6"></path><g class="tick" opacity="1" transform="translate(0.5,0)"><line stroke="currentColor" y2="6"></line><text fill="currentColor" y="9" dy=".15em" style="text-anchor: end;" dx="-.8em" transform="rotate(-45)">03/01</text></g><g class="tick" opacity="1" transform="translate(37.34434968017057,0)"><line stroke="currentColor" y2="6"></line><text fill="currentColor" y="9" dy=".15em" style="text-anchor: end;" dx="-.8em" transform="rotate(-45)">03/02</text></g><g class="tick" opacity="1" transform="translate(74.18869936034115,0)"><line stroke="currentColor" y2="6"></line><text fill="currentColor" y="9" dy=".15em" style="text-anchor: end;" dx="-.8em" transform="rotate(-45)">03/03</text></g><g class="tick" opacity="1" transform="translate(111.03304904051174,0)"><line stroke="currentColor" y2="6"></line><text fill="currentColor" y="9" dy=".15em" style="text-anchor: end;" dx="-.8em" transform="rotate(-45)">03/04</text></g><g class="tick" opacity="1" transform="translate(147.8773987206823,0)"><line stroke="currentColor" y2="6"></line><text fill="currentColor" y="9" dy=".15em" style="text-anchor: end;" dx="-.8em" transform="rotate(-45)">03/05</text></g><g class="tick" opacity="1" transform="translate(184.72174840085287,0)"><line stroke="currentColor" y2="6"></line><text fill="currentColor" y="9" dy=".15em" style="text-anchor: end;" dx="-.8em" transform="rotate(-45)">03/06</text></g><g class="tick" opacity="1" transform="translate(221.56609808102348,0)"><line stroke="currentColor" y2="6"></line><text fill="currentColor" y="9" dy=".15em" style="text-anchor: end;" dx="-.8em" transform="rotate(-45)">03/07</text></g><g class="tick" opacity="1" transform="translate(258.410447761194,0)"><line stroke="currentColor" y2="6"></line><text fill="currentColor" y="9" dy=".15em" style="text-anchor: end;" dx="-.8em" transform="rotate(-45)">03/08</text></g><g class="tick" opacity="1" transform="translate(295.2547974413646,0)"><line stroke="currentColor" y2="6"></line><text fill="currentColor" y="9" dy=".15em" style="text-anchor: end;" dx="-.8em" transform="rotate(-45)">03/09</text></g><g class="tick" opacity="1" transform="translate(332.09914712153517,0)"><line stroke="currentColor" y2="6"></line><text fill="currentColor" y="9" dy=".15em" style="text-anchor: end;" dx="-.8em" transform="rotate(-45)">03/10</text></g><g class="tick" opacity="1" transform="translate(368.94349680170575,0)"><line stroke="currentColor" y2="6"></line><text fill="currentColor" y="9" dy=".15em" style="text-anchor: end;" dx="-.8em" transform="rotate(-45)">03/11</text></g><g class="tick" opacity="1" transform="translate(405.78784648187633,0)"><line stroke="currentColor" y2="6"></line><text fill="currentColor" y="9" dy=".15em" style="text-anchor: end;" dx="-.8em" transform="rotate(-45)">03/12</text></g><g class="tick" opacity="1" transform="translate(442.63219616204697,0)"><line stroke="currentColor" y2="6"></line><text fill="currentColor" y="9" dy=".15em" style="text-anchor: end;" dx="-.8em" transform="rotate(-45)">03/13</text></g><g class="tick" opacity="1" transform="translate(479.4765458422175,0)"><line stroke="currentColor" y2="6"></line><text fill="currentColor" y="9" dy=".15em" style="text-anchor: end;" dx="-.8em" transform="rotate(-45)">03/14</text></g><g class="tick" opacity="1" transform="translate(516.320895522388,0)"><line stroke="currentColor" y2="6"></line><text fill="currentColor" y="9" dy=".15em" style="text-anchor: end;" dx="-.8em" transform="rotate(-45)">03/15</text></g><g class="tick" opacity="1" transform="translate(553.1652452025587,0)"><line stroke="currentColor" y2="6"></line><text fill="currentColor" y="9" dy=".15em" style="text-anchor: end;" dx="-.8em" transform="rotate(-45)">03/16</text></g><g class="tick" opacity="1" transform="translate(590.0095948827292,0)"><line stroke="currentColor" y2="6"></line><text fill="currentColor" y="9" dy=".15em" style="text-anchor: end;" dx="-.8em" transform="rotate(-45)">03/17</text></g><g class="tick" opacity="1" transform="translate(626.8539445628999,0)"><line stroke="currentColor" y2="6"></line><text fill="currentColor" y="9" dy=".15em" style="text-anchor: end;" dx="-.8em" transform="rotate(-45)">03/18</text></g><g class="tick" opacity="1" transform="translate(663.6982942430703,0)"><line stroke="currentColor" y2="6"></line><text fill="currentColor" y="9" dy=".15em" style="text-anchor: end;" dx="-.8em" transform="rotate(-45)">03/19</text></g><g class="tick" opacity="1" transform="translate(700.5426439232409,0)"><line stroke="currentColor" y2="6"></line><text fill="currentColor" y="9" dy=".15em" style="text-anchor: end;" dx="-.8em" transform="rotate(-45)">03/20</text></g></g><g fill="none" font-size="10" font-family="sans-serif" text-anchor="end"><path class="domain" stroke="currentColor" d="M-6,340.5H0.5V0.5H-6"></path><g class="tick" opacity="1" transform="translate(0,170.5)"><line stroke="currentColor" x2="-6"></line><text fill="currentColor" x="-9" dy="0.32em">2.50%</text></g></g><text transform="rotate(-90)" y="-50" x="-170" dy="1em" style="text-anchor: middle; font-size: 12px; fill: #666;">Pre Rate (%)</text><text transform="translate(360, 380)" style="text-anchor: middle; font-size: 12px; fill: #666;">Time (UTC)</text><path fill="none" stroke="#2563eb" stroke-width="2" d="M0,170C0.512,170,1.023,170,1.535,170C2.047,170,2.559,170,3.07,170C3.582,170,4.094,170,4.606,170C5.117,170,5.629,170,6.141,170C6.652,170,7.164,170,7.676,170C8.188,170,8.699,170,9.211,170C9.723,170,10.235,170,10.746,170C11.258,170,11.77,170,12.281,170C12.793,170,13.305,170,13.817,170C14.328,170,14.84,170,15.352,170C15.864,170,16.375,170,16.887,170C17.399,170,17.91,170,18.422,170C18.934,170,19.446,170,19.957,170C20.469,170,20.981,170,21.493,170C22.004,170,22.516,170,23.028,170C23.539,170,24.051,170,24.563,170C25.075,170,25.586,170,26.098,170C26.61,170,27.122,170,27.633,170C28.145,170,28.657,170,29.168,170C29.68,170,30.192,170,30.704,170C31.215,170,31.727,170,32.239,170C32.751,170,33.262,170,33.774,170C34.286,170,34.797,170,35.309,170C35.821,170,36.333,170,36.844,170C37.356,170,37.868,170,38.38,170C38.891,170,39.403,170,39.915,170C40.426,170,40.938,170,41.45,170C41.962,170,42.473,170,42.985,170C43.497,170,44.009,170,44.52,170C45.032,170,45.544,170,46.055,170C46.567,170,47.079,170,47.591,170C48.102,170,48.614,170,49.126,170C49.638,170,50.149,170,50.661,170C51.173,170,51.684,170,52.196,170C52.708,170,53.22,170,53.731,170C54.243,170,54.755,170,55.267,170C55.778,170,56.29,170,56.802,170C57.313,170,57.825,170,58.337,170C58.849,170,59.36,170,59.872,170C60.384,170,60.896,170,61.407,170C61.919,170,62.431,170,62.942,170C63.454,170,63.966,170,64.478,170C64.989,170,65.501,170,66.013,170C66.525,170,67.036,170,67.548,170C68.06,170,68.571,170,69.083,170C69.595,170,70.107,170,70.618,170C71.13,170,71.642,170,72.154,170C72.665,170,73.177,170,73.689,170C74.2,170,74.712,170,75.224,170C75.736,170,76.247,170,76.759,170C77.271,170,77.783,170,78.294,170C78.806,170,79.318,170,79.829,170C80.341,170,80.853,170,81.365,170C81.876,170,82.388,170,82.9,170C83.412,170,83.923,170,84.435,170C84.947,170,85.458,170,85.97,170C86.482,170,86.994,170,87.505,170C88.017,170,88.529,170,89.041,170C89.552,170,90.064,170,90.576,170C91.087,170,91.599,170,92.111,170C92.623,170,93.134,170,93.646,170C94.158,170,94.67,170,95.181,170C95.693,170,96.205,170,96.716,170C97.228,170,97.74,170,98.252,170C98.763,170,99.275,170,99.787,170C100.299,170,100.81,170,101.322,170C101.834,170,102.345,170,102.857,170C103.369,170,103.881,170,104.392,170C104.904,170,105.416,170,105.928,170C106.439,170,106.951,170,107.463,170C107.974,170,108.486,170,108.998,170C109.51,170,110.021,170,110.533,170C111.045,170,111.557,170,112.068,170C112.58,170,113.092,170,113.603,170C114.115,170,114.627,170,115.139,170C115.65,170,116.162,170,116.674,170C117.186,170,117.697,170,118.209,170C118.721,170,119.232,170,119.744,170C120.256,170,120.768,170,121.279,170C121.791,170,122.303,170,122.814,170C123.326,170,123.838,170,124.35,170C124.861,170,125.373,170,125.885,170C126.397,170,126.908,170,127.42,170C127.932,170,128.443,170,128.955,170C129.467,170,129.979,170,130.49,170C131.002,170,131.514,170,132.026,170C132.537,170,133.049,170,133.561,170C134.072,170,134.584,170,135.096,170C135.608,170,136.119,170,136.631,170C137.143,170,137.655,170,138.166,170C138.678,170,139.19,170,139.701,170C140.213,170,140.725,170,141.237,170C141.748,170,142.26,170,142.772,170C143.284,170,143.795,170,144.307,170C144.819,170,145.33,170,145.842,170C146.354,170,146.866,170,147.377,170C147.889,170,148.401,170,148.913,170C149.424,170,149.936,170,150.448,170C150.959,170,151.471,170,151.983,170C152.495,170,153.006,170,153.518,170C154.03,170,154.542,170,155.053,170C155.565,170,156.077,170,156.588,170C157.1,170,157.612,170,158.124,170C158.635,170,159.147,170,159.659,170C160.171,170,160.682,170,161.194,170C161.706,170,162.217,170,162.729,170C163.241,170,163.753,170,164.264,170C164.776,170,165.288,170,165.8,170C166.311,170,166.823,170,167.335,170C167.846,170,168.358,170,168.87,170C169.382,170,169.893,170,170.405,170C170.917,170,171.429,170,171.94,170C172.452,170,172.964,170,173.475,170C173.987,170,174.499,170,175.011,170C175.522,170,176.034,170,176.546,170C177.058,170,177.569,170,178.081,170C178.593,170,179.104,170,179.616,170C180.128,170,180.64,170,181.151,170C181.663,170,182.175,170,182.687,170C183.198,170,183.71,170,184.222,170C184.733,170,185.245,170,185.757,170C186.269,170,186.78,170,187.292,170C187.804,170,188.316,170,188.827,170C189.339,170,189.851,170,190.362,170C190.874,170,191.386,170,191.898,170C192.409,170,192.921,170,193.433,170C193.945,170,194.456,170,194.968,170C195.48,170,195.991,170,196.503,170C197.015,170,197.527,170,198.038,170C198.55,170,199.062,170,199.574,170C200.085,170,200.597,170,201.109,170C201.62,170,202.132,170,202.644,170C203.156,170,203.667,170,204.179,170C204.691,170,205.203,170,205.714,170C206.226,170,206.738,170,207.249,170C207.761,170,208.273,170,208.785,170C209.296,170,209.808,170,210.32,170C210.832,170,211.343,170,211.855,170C212.367,170,212.878,170,213.39,170C213.902,170,214.414,170,214.925,170C215.437,170,215.949,170,216.461,170C216.972,170,217.484,170,217.996,170C218.507,170,219.019,170,219.531,170C220.043,170,220.554,170,221.066,170C221.578,170,222.09,170,222.601,170C223.113,170,223.625,170,224.136,170C224.648,170,225.16,170,225.672,170C226.183,170,226.695,170,227.207,170C227.719,170,228.23,170,228.742,170C229.254,170,229.765,170,230.277,170C230.789,170,231.301,170,231.812,170C232.324,170,232.836,170,233.348,170C233.859,170,234.371,170,234.883,170C235.394,170,235.906,170,236.418,170C236.93,170,237.441,170,237.953,170C238.465,170,238.977,170,239.488,170C240,170,240.512,170,241.023,170C241.535,170,242.047,170,242.559,170C243.07,170,243.582,170,244.094,170C244.606,170,245.117,170,245.629,170C246.141,170,246.652,170,247.164,170C247.676,170,248.188,170,248.699,170C249.211,170,249.723,170,250.235,170C250.746,170,251.258,170,251.77,170C252.281,170,252.793,170,253.305,170C253.817,170,254.328,170,254.84,170C255.352,170,255.864,170,256.375,170C256.887,170,257.399,170,257.91,170C258.422,170,258.934,170,259.446,170C259.957,170,260.469,170,260.981,170C261.493,170,262.004,170,262.516,170C263.028,170,263.539,170,264.051,170C264.563,170,265.075,170,265.586,170C266.098,170,266.61,170,267.122,170C267.633,170,268.145,170,268.657,170C269.168,170,269.68,170,270.192,170C270.704,170,271.215,170,271.727,170C272.239,170,272.751,170,273.262,170C273.774,170,274.286,170,274.797,170C275.309,170,275.821,170,276.333,170C276.844,170,277.356,170,277.868,170C278.38,170,278.891,170,279.403,170C279.915,170,280.426,170,280.938,170C281.45,170,281.962,170,282.473,170C282.985,170,283.497,170,284.009,170C284.52,170,285.032,170,285.544,170C286.055,170,286.567,170,287.079,170C287.591,170,288.102,170,288.614,170C289.126,170,289.638,170,290.149,170C290.661,170,291.173,170,291.684,170C292.196,170,292.708,170,293.22,170C293.731,170,294.243,170,294.755,170C295.267,170,295.778,170,296.29,170C296.802,170,297.313,170,297.825,170C298.337,170,298.849,170,299.36,170C299.872,170,300.384,170,300.896,170C301.407,170,301.919,170,302.431,170C302.942,170,303.454,170,303.966,170C304.478,170,304.989,170,305.501,170C306.013,170,306.525,170,307.036,170C307.548,170,308.06,170,308.571,170C309.083,170,309.595,170,310.107,170C310.618,170,311.13,170,311.642,170C312.154,170,312.665,170,313.177,170C313.689,170,314.2,170,314.712,170C315.224,170,315.736,170,316.247,170C316.759,170,317.271,170,317.783,170C318.294,170,318.806,170,319.318,170C319.829,170,320.341,170,320.853,170C321.365,170,321.876,170,322.388,170C322.9,170,323.412,170,323.923,170C324.435,170,324.947,170,325.458,170C325.97,170,326.482,170,326.994,170C327.505,170,328.017,170,328.529,170C329.041,170,329.552,170,330.064,170C330.576,170,331.087,170,331.599,170C332.111,170,332.623,170,333.134,170C333.646,170,334.158,170,334.67,170C335.181,170,335.693,170,336.205,170C336.716,170,337.228,170,337.74,170C338.252,170,338.763,170,339.275,170C339.787,170,340.299,170,340.81,170C341.322,170,341.834,170,342.345,170C342.857,170,343.369,170,343.881,170C344.392,170,344.904,170,345.416,170C345.928,170,346.439,170,346.951,170C347.463,170,347.974,170,348.486,170C348.998,170,349.51,170,350.021,170C350.533,170,351.045,170,351.557,170C352.068,170,352.58,170,353.092,170C353.603,170,354.115,170,354.627,170C355.139,170,355.65,170,356.162,170C356.674,170,357.186,170,357.697,170C358.209,170,358.721,170,359.232,170C359.744,170,360.256,170,360.768,170C361.279,170,361.791,170,362.303,170C362.814,170,363.326,170,363.838,170C364.35,170,364.861,170,365.373,170C365.885,170,366.397,170,366.908,170C367.42,170,367.932,170,368.443,170C368.955,170,369.467,170,369.979,170C370.49,170,371.002,170,371.514,170C372.026,170,372.537,170,373.049,170C373.561,170,374.072,170,374.584,170C375.096,170,375.608,170,376.119,170C376.631,170,377.143,170,377.655,170C378.166,170,378.678,170,379.19,170C379.701,170,380.213,170,380.725,170C381.237,170,381.748,170,382.26,170C382.772,170,383.284,170,383.795,170C384.307,170,384.819,170,385.33,170C385.842,170,386.354,170,386.866,170C387.377,170,387.889,170,388.401,170C388.913,170,389.424,170,389.936,170C390.448,170,390.959,170,391.471,170C391.983,170,392.495,170,393.006,170C393.518,170,394.03,170,394.542,170C395.053,170,395.565,170,396.077,170C396.588,170,397.1,170,397.612,170C398.124,170,398.635,170,399.147,170C399.659,170,400.171,170,400.682,170C401.194,170,401.706,170,402.217,170C402.729,170,403.241,170,403.753,170C404.264,170,404.776,170,405.288,170C405.8,170,406.311,170,406.823,170C407.335,170,407.846,170,408.358,170C408.87,170,409.382,170,409.893,170C410.405,170,410.917,170,411.429,170C411.94,170,412.452,170,412.964,170C413.475,170,413.987,170,414.499,170C415.011,170,415.522,170,416.034,170C416.546,170,417.058,170,417.569,170C418.081,170,418.593,170,419.104,170C419.616,170,420.128,170,420.64,170C421.151,170,421.663,170,422.175,170C422.687,170,423.198,170,423.71,170C424.222,170,424.733,170,425.245,170C425.757,170,426.269,170,426.78,170C427.292,170,427.804,170,428.316,170C428.827,170,429.339,170,429.851,170C430.362,170,430.874,170,431.386,170C431.898,170,432.409,170,432.921,170C433.433,170,433.945,170,434.456,170C434.968,170,435.48,170,435.991,170C436.503,170,437.015,170,437.527,170C438.038,170,438.55,170,439.062,170C439.574,170,440.085,170,440.597,170C441.109,170,441.62,170,442.132,170C442.644,170,443.156,170,443.667,170C444.179,170,444.691,170,445.203,170C445.714,170,446.226,170,446.738,170C447.249,170,447.761,170,448.273,170C448.785,170,449.296,170,449.808,170C450.32,170,450.832,170,451.343,170C451.855,170,452.367,170,452.878,170C453.39,170,453.902,170,454.414,170C454.925,170,455.437,170,455.949,170C456.461,170,456.972,170,457.484,170C457.996,170,458.507,170,459.019,170C459.531,170,460.043,170,460.554,170C461.066,170,461.578,170,462.09,170C462.601,170,463.113,170,463.625,170C464.136,170,464.648,170,465.16,170C465.672,170,466.183,170,466.695,170C467.207,170,467.719,170,468.23,170C468.742,170,469.254,170,469.765,170C470.277,170,470.789,170,471.301,170C471.812,170,472.324,170,472.836,170C473.348,170,473.859,170,474.371,170C474.883,170,475.394,170,475.906,170C476.418,170,476.93,170,477.441,170C477.953,170,478.465,170,478.977,170C479.488,170,480,170,480.512,170C481.023,170,481.535,170,482.047,170C482.559,170,483.07,170,483.582,170C484.094,170,484.606,170,485.117,170C485.629,170,486.141,170,486.652,170C487.164,170,487.676,170,488.188,170C488.699,170,489.211,170,489.723,170C490.235,170,490.746,170,491.258,170C491.77,170,492.281,170,492.793,170C493.305,170,493.817,170,494.328,170C494.84,170,495.352,170,495.864,170C496.375,170,496.887,170,497.399,170C497.91,170,498.422,170,498.934,170C499.446,170,499.957,170,500.469,170C500.981,170,501.493,170,502.004,170C502.516,170,503.028,170,503.539,170C504.051,170,504.563,170,505.075,170C505.586,170,506.098,170,506.61,170C507.122,170,507.633,170,508.145,170C508.657,170,509.168,170,509.68,170C510.192,170,510.704,170,511.215,170C511.727,170,512.239,170,512.751,170C513.262,170,513.774,170,514.286,170C514.797,170,515.309,170,515.821,170C516.333,170,516.844,170,517.356,170C517.868,170,518.38,170,518.891,170C519.403,170,519.915,170,520.426,170C520.938,170,521.45,170,521.962,170C522.473,170,522.985,170,523.497,170C524.009,170,524.52,170,525.032,170C525.544,170,526.055,170,526.567,170C527.079,170,527.591,170,528.102,170C528.614,170,529.126,170,529.638,170C530.149,170,530.661,170,531.173,170C531.684,170,532.196,170,532.708,170C533.22,170,533.731,170,534.243,170C534.755,170,535.267,170,535.778,170C536.29,170,536.802,170,537.313,170C537.825,170,538.337,170,538.849,170C539.36,170,539.872,170,540.384,170C540.896,170,541.407,170,541.919,170C542.431,170,542.942,170,543.454,170C543.966,170,544.478,170,544.989,170C545.501,170,546.013,170,546.525,170C547.036,170,547.548,170,548.06,170C548.571,170,549.083,170,549.595,170C550.107,170,550.618,170,551.13,170C551.642,170,552.154,170,552.665,170C553.177,170,553.689,170,554.2,170C554.712,170,555.224,170,555.736,170C556.247,170,556.759,170,557.271,170C557.783,170,558.294,170,558.806,170C559.318,170,559.829,170,560.341,170C560.853,170,561.365,170,561.876,170C562.388,170,562.9,170,563.412,170C563.923,170,564.435,170,564.947,170C565.458,170,565.97,170,566.482,170C566.994,170,567.505,170,568.017,170C568.529,170,569.041,170,569.552,170C570.064,170,570.576,170,571.087,170C571.599,170,572.111,170,572.623,170C573.134,170,573.646,170,574.158,170C574.67,170,575.181,170,575.693,170C576.205,170,576.716,170,577.228,170C577.74,170,578.252,170,578.763,170C579.275,170,579.787,170,580.299,170C580.81,170,581.322,170,581.834,170C582.345,170,582.857,170,583.369,170C583.881,170,584.392,170,584.904,170C585.416,170,585.928,170,586.439,170C586.951,170,587.463,170,587.974,170C588.486,170,588.998,170,589.51,170C590.021,170,590.533,170,591.045,170C591.557,170,592.068,170,592.58,170C593.092,170,593.603,170,594.115,170C594.627,170,595.139,170,595.65,170C596.162,170,596.674,170,597.186,170C597.697,170,598.209,170,598.721,170C599.232,170,599.744,170,600.256,170C600.768,170,601.279,170,601.791,170C602.303,170,602.814,170,603.326,170C603.838,170,604.35,170,604.861,170C605.373,170,605.885,170,606.397,170C606.908,170,607.42,170,607.932,170C608.443,170,608.955,170,609.467,170C609.979,170,610.49,170,611.002,170C611.514,170,612.026,170,612.537,170C613.049,170,613.561,170,614.072,170C614.584,170,615.096,170,615.608,170C616.119,170,616.631,170,617.143,170C617.655,170,618.166,170,618.678,170C619.19,170,619.701,170,620.213,170C620.725,170,621.237,170,621.748,170C622.26,170,622.772,170,623.284,170C623.795,170,624.307,170,624.819,170C625.33,170,625.842,170,626.354,170C626.866,170,627.377,170,627.889,170C628.401,170,628.913,170,629.424,170C629.936,170,630.448,170,630.959,170C631.471,170,631.983,170,632.495,170C633.006,170,633.518,170,634.03,170C634.542,170,635.053,170,635.565,170C636.077,170,636.588,170,637.1,170C637.612,170,638.124,170,638.635,170C639.147,170,639.659,170,640.171,170C640.682,170,641.194,170,641.706,170C642.217,170,642.729,170,643.241,170C643.753,170,644.264,170,644.776,170C645.288,170,645.8,170,646.311,170C646.823,170,647.335,170,647.846,170C648.358,170,648.87,170,649.382,170C649.893,170,650.405,170,650.917,170C651.429,170,651.94,170,652.452,170C652.964,170,653.475,170,653.987,170C654.499,170,655.011,170,655.522,170C656.034,170,656.546,170,657.058,170C657.569,170,658.081,170,658.593,170C659.104,170,659.616,170,660.128,170C660.64,170,661.151,170,661.663,170C662.175,170,662.687,170,663.198,170C663.71,170,664.222,170,664.733,170C665.245,170,665.757,170,666.269,170C666.78,170,667.292,170,667.804,170C668.316,170,668.827,170,669.339,170C669.851,170,670.362,170,670.874,170C671.386,170,671.898,170,672.409,170C672.921,170,673.433,170,673.945,170C674.456,170,674.968,170,675.48,170C675.991,170,676.503,170,677.015,170C677.527,170,678.038,170,678.55,170C679.062,170,679.574,170,680.085,170C680.597,170,681.109,170,681.62,170C682.132,170,682.644,170,683.156,170C683.667,170,684.179,170,684.691,170C685.203,170,685.714,170,686.226,170C686.738,170,687.249,170,687.761,170C688.273,170,688.785,170,689.296,170C689.808,170,690.32,170,690.832,170C691.343,170,691.855,170,692.367,170C692.878,170,693.39,170,693.902,170C694.414,170,694.925,170,695.437,170C695.949,170,696.461,170,696.972,170C697.484,170,697.996,170,698.507,170C699.019,170,699.531,170,700.043,170C700.554,170,701.066,170,701.578,170C702.09,170,702.601,170,703.113,170C703.625,170,704.136,170,704.648,170C705.16,170,705.672,170,706.183,170C706.695,170,707.207,170,707.719,170C708.23,170,708.742,170,709.254,170C709.765,170,710.277,170,710.789,170C711.301,170,711.812,170,712.324,170C712.836,170,713.348,170,713.859,170C714.371,170,714.883,170,715.394,170C715.906,170,716.418,170,716.93,170C717.441,170,717.953,170,718.465,170C718.977,170,719.488,170,720,170"></path><circle class="dot" cx="0" cy="170" r="3" fill="#2563eb"></circle><circle class="dot" cx="1.535181236673774" cy="170" r="3" fill="#2563eb"></circle><circle class="dot" cx="3.070362473347548" cy="170" r="3" fill="#2563eb"></circle><circle class="dot" cx="4.605543710021322" cy="170" r="3" fill="#2563eb"></circle><circle class="dot" cx="6.140724946695096" cy="170" r="3" fill="#2563eb"></circle><circle class="dot" cx="7.67590618336887" cy="170" r="3" fill="#2563eb"></circle><circle class="dot" cx="9.211087420042643" cy="170" r="3" fill="#2563eb"></circle><circle class="dot" cx="10.746268656716417" cy="170" r="3" fill="#2563eb"></circle><circle class="dot" cx="12.281449893390192" cy="170" r="3" fill="#2563eb"></circle><circle class="dot" cx="13.816631130063968" cy="170" r="3" fill="#2563eb"></circle><circle class="dot" cx="15.35181236673774" cy="170" r="3" fill="#2563eb"></circle><circle class="dot" cx="16.886993603411515" cy="170" r="3" fill="#2563eb"></circle><circle class="dot" cx="18.422174840085287" cy="170" r="3" fill="#2563eb"></circle><circle class="dot" cx="19.957356076759062" cy="170" r="3" fill="#2563eb"></circle><circle class="dot" cx="21.492537313432834" cy="170" r="3" fill="#2563eb"></circle><circle class="dot" cx="23.02771855010661" cy="170" r="3" fill="#2563eb"></circle><circle class="dot" cx="24.562899786780385" cy="170" r="3" fill="#2563eb"></circle><circle class="dot" cx="26.098081023454156" cy="170" r="3" fill="#2563eb"></circle><circle class="dot" cx="27.633262260127935" cy="170" r="3" fill="#2563eb"></circle><circle class="dot" cx="29.168443496801707" cy="170" r="3" fill="#2563eb"></circle><circle class="dot" cx="30.70362473347548" cy="170" r="3" fill="#2563eb"></circle><circle class="dot" cx="32.23880597014925" cy="170" r="3" fill="#2563eb"></circle><circle class="dot" cx="33.77398720682303" cy="170" r="3" fill="#2563eb"></circle><circle class="dot" cx="35.3091684434968" cy="170" r="3" fill="#2563eb"></circle><circle class="dot" cx="36.84434968017057" cy="170" r="3" fill="#2563eb"></circle><circle class="dot" cx="38.379530916844345" cy="170" r="3" fill="#2563eb"></circle><circle class="dot" cx="39.914712153518124" cy="170" r="3" fill="#2563eb"></circle><circle class="dot" cx="41.449893390191896" cy="170" r="3" fill="#2563eb"></circle><circle class="dot" cx="42.98507462686567" cy="170" r="3" fill="#2563eb"></circle><circle class="dot" cx="44.52025586353945" cy="170" r="3" fill="#2563eb"></circle><circle class="dot" cx="46.05543710021322" cy="170" r="3" fill="#2563eb"></circle><circle class="dot" cx="47.59061833688699" cy="170" r="3" fill="#2563eb"></circle><circle class="dot" cx="49.12579957356077" cy="170" r="3" fill="#2563eb"></circle><circle class="dot" cx="50.66098081023454" cy="170" r="3" fill="#2563eb"></circle><circle class="dot" cx="52.19616204690831" cy="170" r="3" fill="#2563eb"></circle><circle class="dot" cx="53.731343283582085" cy="170" r="3" fill="#2563eb"></circle><circle class="dot" cx="55.26652452025587" cy="170" r="3" fill="#2563eb"></circle><circle class="dot" cx="56.80170575692964" cy="170" r="3" fill="#2563eb"></circle><circle class="dot" cx="58.336886993603414" cy="170" r="3" fill="#2563eb"></circle><circle class="dot" cx="59.872068230277186" cy="170" r="3" fill="#2563eb"></circle><circle class="dot" cx="61.40724946695096" cy="170" r="3" fill="#2563eb"></circle><circle class="dot" cx="62.94243070362473" cy="170" r="3" fill="#2563eb"></circle><circle class="dot" cx="64.4776119402985" cy="170" r="3" fill="#2563eb"></circle><circle class="dot" cx="66.01279317697228" cy="170" r="3" fill="#2563eb"></circle><circle class="dot" cx="67.54797441364606" cy="170" r="3" fill="#2563eb"></circle><circle class="dot" cx="69.08315565031984" cy="170" r="3" fill="#2563eb"></circle><circle class="dot" cx="70.6183368869936" cy="170" r="3" fill="#2563eb"></circle><circle class="dot" cx="72.15351812366738" cy="170" r="3" fill="#2563eb"></circle><circle class="dot" cx="73.68869936034115" cy="170" r="3" fill="#2563eb"></circle><circle class="dot" cx="75.22388059701493" cy="170" r="3" fill="#2563eb"></circle><circle class="dot" cx="76.75906183368869" cy="170" r="3" fill="#2563eb"></circle><circle class="dot" cx="78.29424307036248" cy="170" r="3" fill="#2563eb"></circle><circle class="dot" cx="79.82942430703625" cy="170" r="3" fill="#2563eb"></circle><circle class="dot" cx="81.36460554371003" cy="170" r="3" fill="#2563eb"></circle><circle class="dot" cx="82.89978678038379" cy="170" r="3" fill="#2563eb"></circle><circle class="dot" cx="84.43496801705757" cy="170" r="3" fill="#2563eb"></circle><circle class="dot" cx="85.97014925373134" cy="170" r="3" fill="#2563eb"></circle><circle class="dot" cx="87.50533049040511" cy="170" r="3" fill="#2563eb"></circle><circle class="dot" cx="89.0405117270789" cy="170" r="3" fill="#2563eb"></circle><circle class="dot" cx="90.57569296375267" cy="170" r="3" fill="#2563eb"></circle><circle class="dot" cx="92.11087420042644" cy="170" r="3" fill="#2563eb"></circle><circle class="dot" cx="93.64605543710022" cy="170" r="3" fill="#2563eb"></circle><circle class="dot" cx="95.18123667377398" cy="170" r="3" fill="#2563eb"></circle><circle class="dot" cx="96.71641791044776" cy="170" r="3" fill="#2563eb"></circle><circle class="dot" cx="98.25159914712154" cy="170" r="3" fill="#2563eb"></circle><circle class="dot" cx="99.7867803837953" cy="170" r="3" fill="#2563eb"></circle><circle class="dot" cx="101.32196162046908" cy="170" r="3" fill="#2563eb"></circle><circle class="dot" cx="102.85714285714285" cy="170" r="3" fill="#2563eb"></circle><circle class="dot" cx="104.39232409381663" cy="170" r="3" fill="#2563eb"></circle><circle class="dot" cx="105.92750533049039" cy="170" r="3" fill="#2563eb"></circle><circle class="dot" cx="107.46268656716417" cy="170" r="3" fill="#2563eb"></circle><circle class="dot" cx="108.99786780383796" cy="170" r="3" fill="#2563eb"></circle><circle class="dot" cx="110.53304904051174" cy="170" r="3" fill="#2563eb"></circle><circle class="dot" cx="112.0682302771855" cy="170" r="3" fill="#2563eb"></circle><circle class="dot" cx="113.60341151385929" cy="170" r="3" fill="#2563eb"></circle><circle class="dot" cx="115.13859275053305" cy="170" r="3" fill="#2563eb"></circle><circle class="dot" cx="116.67377398720683" cy="170" r="3" fill="#2563eb"></circle><circle class="dot" cx="118.2089552238806" cy="170" r="3" fill="#2563eb"></circle><circle class="dot" cx="119.74413646055437" cy="170" r="3" fill="#2563eb"></circle><circle class="dot" cx="121.27931769722814" cy="170" r="3" fill="#2563eb"></circle><circle class="dot" cx="122.81449893390192" cy="170" r="3" fill="#2563eb"></circle><circle class="dot" cx="124.3496801705757" cy="170" r="3" fill="#2563eb"></circle><circle class="dot" cx="125.88486140724946" cy="170" r="3" fill="#2563eb"></circle><circle class="dot" cx="127.42004264392324" cy="170" r="3" fill="#2563eb"></circle><circle class="dot" cx="128.955223880597" cy="170" r="3" fill="#2563eb"></circle><circle class="dot" cx="130.49040511727077" cy="170" r="3" fill="#2563eb"></circle><circle class="dot" cx="132.02558635394456" cy="170" r="3" fill="#2563eb"></circle><circle class="dot" cx="133.56076759061835" cy="170" r="3" fill="#2563eb"></circle><circle class="dot" cx="135.09594882729212" cy="170" r="3" fill="#2563eb"></circle><circle class="dot" cx="136.63113006396588" cy="170" r="3" fill="#2563eb"></circle><circle class="dot" cx="138.16631130063968" cy="170" r="3" fill="#2563eb"></circle><circle class="dot" cx="139.70149253731344" cy="170" r="3" fill="#2563eb"></circle><circle class="dot" cx="141.2366737739872" cy="170" r="3" fill="#2563eb"></circle><circle class="dot" cx="142.77185501066097" cy="170" r="3" fill="#2563eb"></circle><circle class="dot" cx="144.30703624733476" cy="170" r="3" fill="#2563eb"></circle><circle class="dot" cx="145.84221748400853" cy="170" r="3" fill="#2563eb"></circle><circle class="dot" cx="147.3773987206823" cy="170" r="3" fill="#2563eb"></circle><circle class="dot" cx="148.91257995735606" cy="170" r="3" fill="#2563eb"></circle><circle class="dot" cx="150.44776119402985" cy="170" r="3" fill="#2563eb"></circle><circle class="dot" cx="151.98294243070362" cy="170" r="3" fill="#2563eb"></circle><circle class="dot" cx="153.51812366737738" cy="170" r="3" fill="#2563eb"></circle><circle class="dot" cx="155.05330490405117" cy="170" r="3" fill="#2563eb"></circle><circle class="dot" cx="156.58848614072497" cy="170" r="3" fill="#2563eb"></circle><circle class="dot" cx="158.12366737739873" cy="170" r="3" fill="#2563eb"></circle><circle class="dot" cx="159.6588486140725" cy="170" r="3" fill="#2563eb"></circle><circle class="dot" cx="161.19402985074626" cy="170" r="3" fill="#2563eb"></circle><circle class="dot" cx="162.72921108742005" cy="170" r="3" fill="#2563eb"></circle><circle class="dot" cx="164.26439232409382" cy="170" r="3" fill="#2563eb"></circle><circle class="dot" cx="165.79957356076758" cy="170" r="3" fill="#2563eb"></circle><circle class="dot" cx="167.33475479744138" cy="170" r="3" fill="#2563eb"></circle><circle class="dot" cx="168.86993603411514" cy="170" r="3" fill="#2563eb"></circle><circle class="dot" cx="170.4051172707889" cy="170" r="3" fill="#2563eb"></circle><circle class="dot" cx="171.94029850746267" cy="170" r="3" fill="#2563eb"></circle><circle class="dot" cx="173.47547974413646" cy="170" r="3" fill="#2563eb"></circle><circle class="dot" cx="175.01066098081023" cy="170" r="3" fill="#2563eb"></circle><circle class="dot" cx="176.545842217484" cy="170" r="3" fill="#2563eb"></circle><circle class="dot" cx="178.0810234541578" cy="170" r="3" fill="#2563eb"></circle><circle class="dot" cx="179.61620469083155" cy="170" r="3" fill="#2563eb"></circle><circle class="dot" cx="181.15138592750534" cy="170" r="3" fill="#2563eb"></circle><circle class="dot" cx="182.6865671641791" cy="170" r="3" fill="#2563eb"></circle><circle class="dot" cx="184.22174840085287" cy="170" r="3" fill="#2563eb"></circle><circle class="dot" cx="185.75692963752667" cy="170" r="3" fill="#2563eb"></circle><circle class="dot" cx="187.29211087420043" cy="170" r="3" fill="#2563eb"></circle><circle class="dot" cx="188.8272921108742" cy="170" r="3" fill="#2563eb"></circle><circle class="dot" cx="190.36247334754796" cy="170" r="3" fill="#2563eb"></circle><circle class="dot" cx="191.89765458422175" cy="170" r="3" fill="#2563eb"></circle><circle class="dot" cx="193.43283582089552" cy="170" r="3" fill="#2563eb"></circle><circle class="dot" cx="194.96801705756928" cy="170" r="3" fill="#2563eb"></circle><circle class="dot" cx="196.50319829424308" cy="170" r="3" fill="#2563eb"></circle><circle class="dot" cx="198.03837953091684" cy="170" r="3" fill="#2563eb"></circle><circle class="dot" cx="199.5735607675906" cy="170" r="3" fill="#2563eb"></circle><circle class="dot" cx="201.10874200426437" cy="170" r="3" fill="#2563eb"></circle><circle class="dot" cx="202.64392324093816" cy="170" r="3" fill="#2563eb"></circle><circle class="dot" cx="204.17910447761193" cy="170" r="3" fill="#2563eb"></circle><circle class="dot" cx="205.7142857142857" cy="170" r="3" fill="#2563eb"></circle><circle class="dot" cx="207.2494669509595" cy="170" r="3" fill="#2563eb"></circle><circle class="dot" cx="208.78464818763325" cy="170" r="3" fill="#2563eb"></circle><circle class="dot" cx="210.31982942430702" cy="170" r="3" fill="#2563eb"></circle><circle class="dot" cx="211.85501066098078" cy="170" r="3" fill="#2563eb"></circle><circle class="dot" cx="213.39019189765457" cy="170" r="3" fill="#2563eb"></circle><circle class="dot" cx="214.92537313432834" cy="170" r="3" fill="#2563eb"></circle><circle class="dot" cx="216.46055437100216" cy="170" r="3" fill="#2563eb"></circle><circle class="dot" cx="217.99573560767593" cy="170" r="3" fill="#2563eb"></circle><circle class="dot" cx="219.5309168443497" cy="170" r="3" fill="#2563eb"></circle><circle class="dot" cx="221.06609808102348" cy="170" r="3" fill="#2563eb"></circle><circle class="dot" cx="222.60127931769725" cy="170" r="3" fill="#2563eb"></circle><circle class="dot" cx="224.136460554371" cy="170" r="3" fill="#2563eb"></circle><circle class="dot" cx="225.67164179104478" cy="170" r="3" fill="#2563eb"></circle><circle class="dot" cx="227.20682302771857" cy="170" r="3" fill="#2563eb"></circle><circle class="dot" cx="228.74200426439234" cy="170" r="3" fill="#2563eb"></circle><circle class="dot" cx="230.2771855010661" cy="170" r="3" fill="#2563eb"></circle><circle class="dot" cx="231.81236673773986" cy="170" r="3" fill="#2563eb"></circle><circle class="dot" cx="233.34754797441366" cy="170" r="3" fill="#2563eb"></circle><circle class="dot" cx="234.88272921108742" cy="170" r="3" fill="#2563eb"></circle><circle class="dot" cx="236.4179104477612" cy="170" r="3" fill="#2563eb"></circle><circle class="dot" cx="237.95309168443498" cy="170" r="3" fill="#2563eb"></circle><circle class="dot" cx="239.48827292110875" cy="170" r="3" fill="#2563eb"></circle><circle class="dot" cx="241.0234541577825" cy="170" r="3" fill="#2563eb"></circle><circle class="dot" cx="242.55863539445627" cy="170" r="3" fill="#2563eb"></circle><circle class="dot" cx="244.09381663113007" cy="170" r="3" fill="#2563eb"></circle><circle class="dot" cx="245.62899786780383" cy="170" r="3" fill="#2563eb"></circle><circle class="dot" cx="247.1641791044776" cy="170" r="3" fill="#2563eb"></circle><circle class="dot" cx="248.6993603411514" cy="170" r="3" fill="#2563eb"></circle><circle class="dot" cx="250.23454157782515" cy="170" r="3" fill="#2563eb"></circle><circle class="dot" cx="251.76972281449892" cy="170" r="3" fill="#2563eb"></circle><circle class="dot" cx="253.30490405117268" cy="170" r="3" fill="#2563eb"></circle><circle class="dot" cx="254.84008528784648" cy="170" r="3" fill="#2563eb"></circle><circle class="dot" cx="256.37526652452027" cy="170" r="3" fill="#2563eb"></circle><circle class="dot" cx="257.910447761194" cy="170" r="3" fill="#2563eb"></circle><circle class="dot" cx="259.4456289978678" cy="170" r="3" fill="#2563eb"></circle><circle class="dot" cx="260.98081023454154" cy="170" r="3" fill="#2563eb"></circle><circle class="dot" cx="262.51599147121533" cy="170" r="3" fill="#2563eb"></circle><circle class="dot" cx="264.0511727078891" cy="170" r="3" fill="#2563eb"></circle><circle class="dot" cx="265.5863539445629" cy="170" r="3" fill="#2563eb"></circle><circle class="dot" cx="267.1215351812367" cy="170" r="3" fill="#2563eb"></circle><circle class="dot" cx="268.65671641791045" cy="170" r="3" fill="#2563eb"></circle><circle class="dot" cx="270.19189765458424" cy="170" r="3" fill="#2563eb"></circle><circle class="dot" cx="271.72707889125803" cy="170" r="3" fill="#2563eb"></circle><circle class="dot" cx="273.26226012793177" cy="170" r="3" fill="#2563eb"></circle><circle class="dot" cx="274.79744136460556" cy="170" r="3" fill="#2563eb"></circle><circle class="dot" cx="276.33262260127935" cy="170" r="3" fill="#2563eb"></circle><circle class="dot" cx="277.8678038379531" cy="170" r="3" fill="#2563eb"></circle><circle class="dot" cx="279.4029850746269" cy="170" r="3" fill="#2563eb"></circle><circle class="dot" cx="280.9381663113006" cy="170" r="3" fill="#2563eb"></circle><circle class="dot" cx="282.4733475479744" cy="170" r="3" fill="#2563eb"></circle><circle class="dot" cx="284.0085287846482" cy="170" r="3" fill="#2563eb"></circle><circle class="dot" cx="285.54371002132194" cy="170" r="3" fill="#2563eb"></circle><circle class="dot" cx="287.07889125799574" cy="170" r="3" fill="#2563eb"></circle><circle class="dot" cx="288.61407249466953" cy="170" r="3" fill="#2563eb"></circle><circle class="dot" cx="290.14925373134326" cy="170" r="3" fill="#2563eb"></circle><circle class="dot" cx="291.68443496801706" cy="170" r="3" fill="#2563eb"></circle><circle class="dot" cx="293.21961620469085" cy="170" r="3" fill="#2563eb"></circle><circle class="dot" cx="294.7547974413646" cy="170" r="3" fill="#2563eb"></circle><circle class="dot" cx="296.2899786780384" cy="170" r="3" fill="#2563eb"></circle><circle class="dot" cx="297.8251599147121" cy="170" r="3" fill="#2563eb"></circle><circle class="dot" cx="299.3603411513859" cy="170" r="3" fill="#2563eb"></circle><circle class="dot" cx="300.8955223880597" cy="170" r="3" fill="#2563eb"></circle><circle class="dot" cx="302.43070362473344" cy="170" r="3" fill="#2563eb"></circle><circle class="dot" cx="303.96588486140723" cy="170" r="3" fill="#2563eb"></circle><circle class="dot" cx="305.501066098081" cy="170" r="3" fill="#2563eb"></circle><circle class="dot" cx="307.03624733475476" cy="170" r="3" fill="#2563eb"></circle><circle class="dot" cx="308.57142857142856" cy="170" r="3" fill="#2563eb"></circle><circle class="dot" cx="310.10660980810235" cy="170" r="3" fill="#2563eb"></circle><circle class="dot" cx="311.6417910447761" cy="170" r="3" fill="#2563eb"></circle><circle class="dot" cx="313.17697228144993" cy="170" r="3" fill="#2563eb"></circle><circle class="dot" cx="314.71215351812367" cy="170" r="3" fill="#2563eb"></circle><circle class="dot" cx="316.24733475479746" cy="170" r="3" fill="#2563eb"></circle><circle class="dot" cx="317.78251599147126" cy="170" r="3" fill="#2563eb"></circle><circle class="dot" cx="319.317697228145" cy="170" r="3" fill="#2563eb"></circle><circle class="dot" cx="320.8528784648188" cy="170" r="3" fill="#2563eb"></circle><circle class="dot" cx="322.3880597014925" cy="170" r="3" fill="#2563eb"></circle><circle class="dot" cx="323.9232409381663" cy="170" r="3" fill="#2563eb"></circle><circle class="dot" cx="325.4584221748401" cy="170" r="3" fill="#2563eb"></circle><circle class="dot" cx="326.99360341151385" cy="170" r="3" fill="#2563eb"></circle><circle class="dot" cx="328.52878464818764" cy="170" r="3" fill="#2563eb"></circle><circle class="dot" cx="330.06396588486143" cy="170" r="3" fill="#2563eb"></circle><circle class="dot" cx="331.59914712153517" cy="170" r="3" fill="#2563eb"></circle><circle class="dot" cx="333.13432835820896" cy="170" r="3" fill="#2563eb"></circle><circle class="dot" cx="334.66950959488275" cy="170" r="3" fill="#2563eb"></circle><circle class="dot" cx="336.2046908315565" cy="170" r="3" fill="#2563eb"></circle><circle class="dot" cx="337.7398720682303" cy="170" r="3" fill="#2563eb"></circle><circle class="dot" cx="339.2750533049041" cy="170" r="3" fill="#2563eb"></circle><circle class="dot" cx="340.8102345415778" cy="170" r="3" fill="#2563eb"></circle><circle class="dot" cx="342.3454157782516" cy="170" r="3" fill="#2563eb"></circle><circle class="dot" cx="343.88059701492534" cy="170" r="3" fill="#2563eb"></circle><circle class="dot" cx="345.41577825159914" cy="170" r="3" fill="#2563eb"></circle><circle class="dot" cx="346.95095948827293" cy="170" r="3" fill="#2563eb"></circle><circle class="dot" cx="348.48614072494667" cy="170" r="3" fill="#2563eb"></circle><circle class="dot" cx="350.02132196162046" cy="170" r="3" fill="#2563eb"></circle><circle class="dot" cx="351.55650319829425" cy="170" r="3" fill="#2563eb"></circle><circle class="dot" cx="353.091684434968" cy="170" r="3" fill="#2563eb"></circle><circle class="dot" cx="354.6268656716418" cy="170" r="3" fill="#2563eb"></circle><circle class="dot" cx="356.1620469083156" cy="170" r="3" fill="#2563eb"></circle><circle class="dot" cx="357.6972281449893" cy="170" r="3" fill="#2563eb"></circle><circle class="dot" cx="359.2324093816631" cy="170" r="3" fill="#2563eb"></circle><circle class="dot" cx="360.76759061833684" cy="170" r="3" fill="#2563eb"></circle><circle class="dot" cx="362.3027718550107" cy="170" r="3" fill="#2563eb"></circle><circle class="dot" cx="363.8379530916844" cy="170" r="3" fill="#2563eb"></circle><circle class="dot" cx="365.3731343283582" cy="170" r="3" fill="#2563eb"></circle><circle class="dot" cx="366.90831556503196" cy="170" r="3" fill="#2563eb"></circle><circle class="dot" cx="368.44349680170575" cy="170" r="3" fill="#2563eb"></circle><circle class="dot" cx="369.9786780383795" cy="170" r="3" fill="#2563eb"></circle><circle class="dot" cx="371.51385927505333" cy="170" r="3" fill="#2563eb"></circle><circle class="dot" cx="373.04904051172707" cy="170" r="3" fill="#2563eb"></circle><circle class="dot" cx="374.58422174840086" cy="170" r="3" fill="#2563eb"></circle><circle class="dot" cx="376.1194029850746" cy="170" r="3" fill="#2563eb"></circle><circle class="dot" cx="377.6545842217484" cy="170" r="3" fill="#2563eb"></circle><circle class="dot" cx="379.18976545842213" cy="170" r="3" fill="#2563eb"></circle><circle class="dot" cx="380.7249466950959" cy="170" r="3" fill="#2563eb"></circle><circle class="dot" cx="382.26012793176966" cy="170" r="3" fill="#2563eb"></circle><circle class="dot" cx="383.7953091684435" cy="170" r="3" fill="#2563eb"></circle><circle class="dot" cx="385.3304904051173" cy="170" r="3" fill="#2563eb"></circle><circle class="dot" cx="386.86567164179104" cy="170" r="3" fill="#2563eb"></circle><circle class="dot" cx="388.40085287846483" cy="170" r="3" fill="#2563eb"></circle><circle class="dot" cx="389.93603411513857" cy="170" r="3" fill="#2563eb"></circle><circle class="dot" cx="391.4712153518124" cy="170" r="3" fill="#2563eb"></circle><circle class="dot" cx="393.00639658848615" cy="170" r="3" fill="#2563eb"></circle><circle class="dot" cx="394.54157782515995" cy="170" r="3" fill="#2563eb"></circle><circle class="dot" cx="396.0767590618337" cy="170" r="3" fill="#2563eb"></circle><circle class="dot" cx="397.6119402985075" cy="170" r="3" fill="#2563eb"></circle><circle class="dot" cx="399.1471215351812" cy="170" r="3" fill="#2563eb"></circle><circle class="dot" cx="400.68230277185506" cy="170" r="3" fill="#2563eb"></circle><circle class="dot" cx="402.21748400852874" cy="170" r="3" fill="#2563eb"></circle><circle class="dot" cx="403.7526652452026" cy="170" r="3" fill="#2563eb"></circle><circle class="dot" cx="405.28784648187633" cy="170" r="3" fill="#2563eb"></circle><circle class="dot" cx="406.8230277185501" cy="170" r="3" fill="#2563eb"></circle><circle class="dot" cx="408.35820895522386" cy="170" r="3" fill="#2563eb"></circle><circle class="dot" cx="409.89339019189765" cy="170" r="3" fill="#2563eb"></circle><circle class="dot" cx="411.4285714285714" cy="170" r="3" fill="#2563eb"></circle><circle class="dot" cx="412.96375266524524" cy="170" r="3" fill="#2563eb"></circle><circle class="dot" cx="414.498933901919" cy="170" r="3" fill="#2563eb"></circle><circle class="dot" cx="416.03411513859277" cy="170" r="3" fill="#2563eb"></circle><circle class="dot" cx="417.5692963752665" cy="170" r="3" fill="#2563eb"></circle><circle class="dot" cx="419.1044776119403" cy="170" r="3" fill="#2563eb"></circle><circle class="dot" cx="420.63965884861403" cy="170" r="3" fill="#2563eb"></circle><circle class="dot" cx="422.1748400852879" cy="170" r="3" fill="#2563eb"></circle><circle class="dot" cx="423.71002132196156" cy="170" r="3" fill="#2563eb"></circle><circle class="dot" cx="425.2452025586354" cy="170" r="3" fill="#2563eb"></circle><circle class="dot" cx="426.78038379530915" cy="170" r="3" fill="#2563eb"></circle><circle class="dot" cx="428.31556503198294" cy="170" r="3" fill="#2563eb"></circle><circle class="dot" cx="429.8507462686567" cy="170" r="3" fill="#2563eb"></circle><circle class="dot" cx="431.38592750533047" cy="170" r="3" fill="#2563eb"></circle><circle class="dot" cx="432.9211087420043" cy="170" r="3" fill="#2563eb"></circle><circle class="dot" cx="434.45628997867806" cy="170" r="3" fill="#2563eb"></circle><circle class="dot" cx="435.99147121535185" cy="170" r="3" fill="#2563eb"></circle><circle class="dot" cx="437.5266524520256" cy="170" r="3" fill="#2563eb"></circle><circle class="dot" cx="439.0618336886994" cy="170" r="3" fill="#2563eb"></circle><circle class="dot" cx="440.5970149253731" cy="170" r="3" fill="#2563eb"></circle><circle class="dot" cx="442.13219616204697" cy="170" r="3" fill="#2563eb"></circle><circle class="dot" cx="443.66737739872065" cy="170" r="3" fill="#2563eb"></circle><circle class="dot" cx="445.2025586353945" cy="170" r="3" fill="#2563eb"></circle><circle class="dot" cx="446.73773987206823" cy="170" r="3" fill="#2563eb"></circle><circle class="dot" cx="448.272921108742" cy="170" r="3" fill="#2563eb"></circle><circle class="dot" cx="449.80810234541576" cy="170" r="3" fill="#2563eb"></circle><circle class="dot" cx="451.34328358208955" cy="170" r="3" fill="#2563eb"></circle><circle class="dot" cx="452.8784648187633" cy="170" r="3" fill="#2563eb"></circle><circle class="dot" cx="454.41364605543714" cy="170" r="3" fill="#2563eb"></circle><circle class="dot" cx="455.9488272921109" cy="170" r="3" fill="#2563eb"></circle><circle class="dot" cx="457.48400852878467" cy="170" r="3" fill="#2563eb"></circle><circle class="dot" cx="459.0191897654584" cy="170" r="3" fill="#2563eb"></circle><circle class="dot" cx="460.5543710021322" cy="170" r="3" fill="#2563eb"></circle><circle class="dot" cx="462.08955223880594" cy="170" r="3" fill="#2563eb"></circle><circle class="dot" cx="463.62473347547973" cy="170" r="3" fill="#2563eb"></circle><circle class="dot" cx="465.15991471215347" cy="170" r="3" fill="#2563eb"></circle><circle class="dot" cx="466.6950959488273" cy="170" r="3" fill="#2563eb"></circle><circle class="dot" cx="468.23027718550105" cy="170" r="3" fill="#2563eb"></circle><circle class="dot" cx="469.76545842217485" cy="170" r="3" fill="#2563eb"></circle><circle class="dot" cx="471.3006396588486" cy="170" r="3" fill="#2563eb"></circle><circle class="dot" cx="472.8358208955224" cy="170" r="3" fill="#2563eb"></circle><circle class="dot" cx="474.3710021321961" cy="170" r="3" fill="#2563eb"></circle><circle class="dot" cx="475.90618336886996" cy="170" r="3" fill="#2563eb"></circle><circle class="dot" cx="477.4413646055437" cy="170" r="3" fill="#2563eb"></circle><circle class="dot" cx="478.9765458422175" cy="170" r="3" fill="#2563eb"></circle><circle class="dot" cx="480.5117270788913" cy="170" r="3" fill="#2563eb"></circle><circle class="dot" cx="482.046908315565" cy="170" r="3" fill="#2563eb"></circle><circle class="dot" cx="483.58208955223887" cy="170" r="3" fill="#2563eb"></circle><circle class="dot" cx="485.11727078891255" cy="170" r="3" fill="#2563eb"></circle><circle class="dot" cx="486.6524520255864" cy="170" r="3" fill="#2563eb"></circle><circle class="dot" cx="488.18763326226014" cy="170" r="3" fill="#2563eb"></circle><circle class="dot" cx="489.72281449893393" cy="170" r="3" fill="#2563eb"></circle><circle class="dot" cx="491.25799573560766" cy="170" r="3" fill="#2563eb"></circle><circle class="dot" cx="492.79317697228146" cy="170" r="3" fill="#2563eb"></circle><circle class="dot" cx="494.3283582089552" cy="170" r="3" fill="#2563eb"></circle><circle class="dot" cx="495.86353944562904" cy="170" r="3" fill="#2563eb"></circle><circle class="dot" cx="497.3987206823028" cy="170" r="3" fill="#2563eb"></circle><circle class="dot" cx="498.9339019189766" cy="170" r="3" fill="#2563eb"></circle><circle class="dot" cx="500.4690831556503" cy="170" r="3" fill="#2563eb"></circle><circle class="dot" cx="502.0042643923241" cy="170" r="3" fill="#2563eb"></circle><circle class="dot" cx="503.53944562899784" cy="170" r="3" fill="#2563eb"></circle><circle class="dot" cx="505.0746268656717" cy="170" r="3" fill="#2563eb"></circle><circle class="dot" cx="506.60980810234537" cy="170" r="3" fill="#2563eb"></circle><circle class="dot" cx="508.1449893390192" cy="170" r="3" fill="#2563eb"></circle><circle class="dot" cx="509.68017057569296" cy="170" r="3" fill="#2563eb"></circle><circle class="dot" cx="511.21535181236675" cy="170" r="3" fill="#2563eb"></circle><circle class="dot" cx="512.7505330490405" cy="170" r="3" fill="#2563eb"></circle><circle class="dot" cx="514.2857142857143" cy="170" r="3" fill="#2563eb"></circle><circle class="dot" cx="515.820895522388" cy="170" r="3" fill="#2563eb"></circle><circle class="dot" cx="517.3560767590618" cy="170" r="3" fill="#2563eb"></circle><circle class="dot" cx="518.8912579957356" cy="170" r="3" fill="#2563eb"></circle><circle class="dot" cx="520.4264392324094" cy="170" r="3" fill="#2563eb"></circle><circle class="dot" cx="521.9616204690831" cy="170" r="3" fill="#2563eb"></circle><circle class="dot" cx="523.496801705757" cy="170" r="3" fill="#2563eb"></circle><circle class="dot" cx="525.0319829424307" cy="170" r="3" fill="#2563eb"></circle><circle class="dot" cx="526.5671641791045" cy="170" r="3" fill="#2563eb"></circle><circle class="dot" cx="528.1023454157782" cy="170" r="3" fill="#2563eb"></circle><circle class="dot" cx="529.637526652452" cy="170" r="3" fill="#2563eb"></circle><circle class="dot" cx="531.1727078891258" cy="170" r="3" fill="#2563eb"></circle><circle class="dot" cx="532.7078891257996" cy="170" r="3" fill="#2563eb"></circle><circle class="dot" cx="534.2430703624734" cy="170" r="3" fill="#2563eb"></circle><circle class="dot" cx="535.7782515991471" cy="170" r="3" fill="#2563eb"></circle><circle class="dot" cx="537.3134328358209" cy="170" r="3" fill="#2563eb"></circle><circle class="dot" cx="538.8486140724947" cy="170" r="3" fill="#2563eb"></circle><circle class="dot" cx="540.3837953091685" cy="170" r="3" fill="#2563eb"></circle><circle class="dot" cx="541.9189765458422" cy="170" r="3" fill="#2563eb"></circle><circle class="dot" cx="543.4541577825161" cy="170" r="3" fill="#2563eb"></circle><circle class="dot" cx="544.9893390191897" cy="170" r="3" fill="#2563eb"></circle><circle class="dot" cx="546.5245202558635" cy="170" r="3" fill="#2563eb"></circle><circle class="dot" cx="548.0597014925373" cy="170" r="3" fill="#2563eb"></circle><circle class="dot" cx="549.5948827292111" cy="170" r="3" fill="#2563eb"></circle><circle class="dot" cx="551.1300639658848" cy="170" r="3" fill="#2563eb"></circle><circle class="dot" cx="552.6652452025587" cy="170" r="3" fill="#2563eb"></circle><circle class="dot" cx="554.2004264392324" cy="170" r="3" fill="#2563eb"></circle><circle class="dot" cx="555.7356076759062" cy="170" r="3" fill="#2563eb"></circle><circle class="dot" cx="557.27078891258" cy="170" r="3" fill="#2563eb"></circle><circle class="dot" cx="558.8059701492538" cy="170" r="3" fill="#2563eb"></circle><circle class="dot" cx="560.3411513859274" cy="170" r="3" fill="#2563eb"></circle><circle class="dot" cx="561.8763326226012" cy="170" r="3" fill="#2563eb"></circle><circle class="dot" cx="563.411513859275" cy="170" r="3" fill="#2563eb"></circle><circle class="dot" cx="564.9466950959488" cy="170" r="3" fill="#2563eb"></circle><circle class="dot" cx="566.4818763326226" cy="170" r="3" fill="#2563eb"></circle><circle class="dot" cx="568.0170575692964" cy="170" r="3" fill="#2563eb"></circle><circle class="dot" cx="569.5522388059701" cy="170" r="3" fill="#2563eb"></circle><circle class="dot" cx="571.0874200426439" cy="170" r="3" fill="#2563eb"></circle><circle class="dot" cx="572.6226012793177" cy="170" r="3" fill="#2563eb"></circle><circle class="dot" cx="574.1577825159915" cy="170" r="3" fill="#2563eb"></circle><circle class="dot" cx="575.6929637526652" cy="170" r="3" fill="#2563eb"></circle><circle class="dot" cx="577.2281449893391" cy="170" r="3" fill="#2563eb"></circle><circle class="dot" cx="578.7633262260129" cy="170" r="3" fill="#2563eb"></circle><circle class="dot" cx="580.2985074626865" cy="170" r="3" fill="#2563eb"></circle><circle class="dot" cx="581.8336886993603" cy="170" r="3" fill="#2563eb"></circle><circle class="dot" cx="583.3688699360341" cy="170" r="3" fill="#2563eb"></circle><circle class="dot" cx="584.9040511727079" cy="170" r="3" fill="#2563eb"></circle><circle class="dot" cx="586.4392324093817" cy="170" r="3" fill="#2563eb"></circle><circle class="dot" cx="587.9744136460555" cy="170" r="3" fill="#2563eb"></circle><circle class="dot" cx="589.5095948827292" cy="170" r="3" fill="#2563eb"></circle><circle class="dot" cx="591.044776119403" cy="170" r="3" fill="#2563eb"></circle><circle class="dot" cx="592.5799573560768" cy="170" r="3" fill="#2563eb"></circle><circle class="dot" cx="594.1151385927506" cy="170" r="3" fill="#2563eb"></circle><circle class="dot" cx="595.6503198294242" cy="170" r="3" fill="#2563eb"></circle><circle class="dot" cx="597.1855010660981" cy="170" r="3" fill="#2563eb"></circle><circle class="dot" cx="598.7206823027718" cy="170" r="3" fill="#2563eb"></circle><circle class="dot" cx="600.2558635394456" cy="170" r="3" fill="#2563eb"></circle><circle class="dot" cx="601.7910447761194" cy="170" r="3" fill="#2563eb"></circle><circle class="dot" cx="603.3262260127932" cy="170" r="3" fill="#2563eb"></circle><circle class="dot" cx="604.8614072494669" cy="170" r="3" fill="#2563eb"></circle><circle class="dot" cx="606.3965884861408" cy="170" r="3" fill="#2563eb"></circle><circle class="dot" cx="607.9317697228145" cy="170" r="3" fill="#2563eb"></circle><circle class="dot" cx="609.4669509594883" cy="170" r="3" fill="#2563eb"></circle><circle class="dot" cx="611.002132196162" cy="170" r="3" fill="#2563eb"></circle><circle class="dot" cx="612.5373134328358" cy="170" r="3" fill="#2563eb"></circle><circle class="dot" cx="614.0724946695095" cy="170" r="3" fill="#2563eb"></circle><circle class="dot" cx="615.6076759061834" cy="170" r="3" fill="#2563eb"></circle><circle class="dot" cx="617.1428571428571" cy="170" r="3" fill="#2563eb"></circle><circle class="dot" cx="618.6780383795309" cy="170" r="3" fill="#2563eb"></circle><circle class="dot" cx="620.2132196162047" cy="170" r="3" fill="#2563eb"></circle><circle class="dot" cx="621.7484008528785" cy="170" r="3" fill="#2563eb"></circle><circle class="dot" cx="623.2835820895522" cy="170" r="3" fill="#2563eb"></circle><circle class="dot" cx="624.818763326226" cy="170" r="3" fill="#2563eb"></circle><circle class="dot" cx="626.3539445628999" cy="170" r="3" fill="#2563eb"></circle><circle class="dot" cx="627.8891257995735" cy="170" r="3" fill="#2563eb"></circle><circle class="dot" cx="629.4243070362473" cy="170" r="3" fill="#2563eb"></circle><circle class="dot" cx="630.9594882729211" cy="170" r="3" fill="#2563eb"></circle><circle class="dot" cx="632.4946695095949" cy="170" r="3" fill="#2563eb"></circle><circle class="dot" cx="634.0298507462686" cy="170" r="3" fill="#2563eb"></circle><circle class="dot" cx="635.5650319829425" cy="170" r="3" fill="#2563eb"></circle><circle class="dot" cx="637.1002132196162" cy="170" r="3" fill="#2563eb"></circle><circle class="dot" cx="638.63539445629" cy="170" r="3" fill="#2563eb"></circle><circle class="dot" cx="640.1705756929638" cy="170" r="3" fill="#2563eb"></circle><circle class="dot" cx="641.7057569296376" cy="170" r="3" fill="#2563eb"></circle><circle class="dot" cx="643.2409381663113" cy="170" r="3" fill="#2563eb"></circle><circle class="dot" cx="644.776119402985" cy="170" r="3" fill="#2563eb"></circle><circle class="dot" cx="646.3113006396588" cy="170" r="3" fill="#2563eb"></circle><circle class="dot" cx="647.8464818763326" cy="170" r="3" fill="#2563eb"></circle><circle class="dot" cx="649.3816631130064" cy="170" r="3" fill="#2563eb"></circle><circle class="dot" cx="650.9168443496802" cy="170" r="3" fill="#2563eb"></circle><circle class="dot" cx="652.4520255863539" cy="170" r="3" fill="#2563eb"></circle><circle class="dot" cx="653.9872068230277" cy="170" r="3" fill="#2563eb"></circle><circle class="dot" cx="655.5223880597015" cy="170" r="3" fill="#2563eb"></circle><circle class="dot" cx="657.0575692963753" cy="170" r="3" fill="#2563eb"></circle><circle class="dot" cx="658.592750533049" cy="170" r="3" fill="#2563eb"></circle><circle class="dot" cx="660.1279317697229" cy="170" r="3" fill="#2563eb"></circle><circle class="dot" cx="661.6631130063965" cy="170" r="3" fill="#2563eb"></circle><circle class="dot" cx="663.1982942430703" cy="170" r="3" fill="#2563eb"></circle><circle class="dot" cx="664.7334754797441" cy="170" r="3" fill="#2563eb"></circle><circle class="dot" cx="666.2686567164179" cy="170" r="3" fill="#2563eb"></circle><circle class="dot" cx="667.8038379530916" cy="170" r="3" fill="#2563eb"></circle><circle class="dot" cx="669.3390191897655" cy="170" r="3" fill="#2563eb"></circle><circle class="dot" cx="670.8742004264392" cy="170" r="3" fill="#2563eb"></circle><circle class="dot" cx="672.409381663113" cy="170" r="3" fill="#2563eb"></circle><circle class="dot" cx="673.9445628997868" cy="170" r="3" fill="#2563eb"></circle><circle class="dot" cx="675.4797441364606" cy="170" r="3" fill="#2563eb"></circle><circle class="dot" cx="677.0149253731344" cy="170" r="3" fill="#2563eb"></circle><circle class="dot" cx="678.5501066098082" cy="170" r="3" fill="#2563eb"></circle><circle class="dot" cx="680.085287846482" cy="170" r="3" fill="#2563eb"></circle><circle class="dot" cx="681.6204690831556" cy="170" r="3" fill="#2563eb"></circle><circle class="dot" cx="683.1556503198294" cy="170" r="3" fill="#2563eb"></circle><circle class="dot" cx="684.6908315565032" cy="170" r="3" fill="#2563eb"></circle><circle class="dot" cx="686.226012793177" cy="170" r="3" fill="#2563eb"></circle><circle class="dot" cx="687.7611940298507" cy="170" r="3" fill="#2563eb"></circle><circle class="dot" cx="689.2963752665246" cy="170" r="3" fill="#2563eb"></circle><circle class="dot" cx="690.8315565031983" cy="170" r="3" fill="#2563eb"></circle><circle class="dot" cx="692.3667377398721" cy="170" r="3" fill="#2563eb"></circle><circle class="dot" cx="693.9019189765459" cy="170" r="3" fill="#2563eb"></circle><circle class="dot" cx="695.4371002132197" cy="170" r="3" fill="#2563eb"></circle><circle class="dot" cx="696.9722814498933" cy="170" r="3" fill="#2563eb"></circle><circle class="dot" cx="698.5074626865672" cy="170" r="3" fill="#2563eb"></circle><circle class="dot" cx="700.0426439232409" cy="170" r="3" fill="#2563eb"></circle><circle class="dot" cx="701.5778251599147" cy="170" r="3" fill="#2563eb"></circle><circle class="dot" cx="703.1130063965885" cy="170" r="3" fill="#2563eb"></circle><circle class="dot" cx="704.6481876332623" cy="170" r="3" fill="#2563eb"></circle><circle class="dot" cx="706.183368869936" cy="170" r="3" fill="#2563eb"></circle><circle class="dot" cx="707.7185501066098" cy="170" r="3" fill="#2563eb"></circle><circle class="dot" cx="709.2537313432836" cy="170" r="3" fill="#2563eb"></circle><circle class="dot" cx="710.7889125799574" cy="170" r="3" fill="#2563eb"></circle><circle class="dot" cx="712.3240938166311" cy="170" r="3" fill="#2563eb"></circle><circle class="dot" cx="713.8592750533049" cy="170" r="3" fill="#2563eb"></circle><circle class="dot" cx="715.3944562899786" cy="170" r="3" fill="#2563eb"></circle><circle class="dot" cx="716.9296375266524" cy="170" r="3" fill="#2563eb"></circle><circle class="dot" cx="718.4648187633262" cy="170" r="3" fill="#2563eb"></circle><circle class="dot" cx="720" cy="170" r="3" fill="#2563eb"></circle><g class="grid" transform="translate(0,340)" fill="none" font-size="10" font-family="sans-serif" text-anchor="middle" style="stroke-dasharray: 3,3; opacity: 0.3;"><path class="domain" stroke="currentColor" d="M0.5,-340V0.5H720.5V-340"></path><g class="tick" opacity="1" transform="translate(0.5,0)"><line stroke="currentColor" y2="-340"></line><text fill="currentColor" y="3" dy="0.71em"></text></g><g class="tick" opacity="1" transform="translate(37.34434968017057,0)"><line stroke="currentColor" y2="-340"></line><text fill="currentColor" y="3" dy="0.71em"></text></g><g class="tick" opacity="1" transform="translate(74.18869936034115,0)"><line stroke="currentColor" y2="-340"></line><text fill="currentColor" y="3" dy="0.71em"></text></g><g class="tick" opacity="1" transform="translate(111.03304904051174,0)"><line stroke="currentColor" y2="-340"></line><text fill="currentColor" y="3" dy="0.71em"></text></g><g class="tick" opacity="1" transform="translate(147.8773987206823,0)"><line stroke="currentColor" y2="-340"></line><text fill="currentColor" y="3" dy="0.71em"></text></g><g class="tick" opacity="1" transform="translate(184.72174840085287,0)"><line stroke="currentColor" y2="-340"></line><text fill="currentColor" y="3" dy="0.71em"></text></g><g class="tick" opacity="1" transform="translate(221.56609808102348,0)"><line stroke="currentColor" y2="-340"></line><text fill="currentColor" y="3" dy="0.71em"></text></g><g class="tick" opacity="1" transform="translate(258.410447761194,0)"><line stroke="currentColor" y2="-340"></line><text fill="currentColor" y="3" dy="0.71em"></text></g><g class="tick" opacity="1" transform="translate(295.2547974413646,0)"><line stroke="currentColor" y2="-340"></line><text fill="currentColor" y="3" dy="0.71em"></text></g><g class="tick" opacity="1" transform="translate(332.09914712153517,0)"><line stroke="currentColor" y2="-340"></line><text fill="currentColor" y="3" dy="0.71em"></text></g><g class="tick" opacity="1" transform="translate(368.94349680170575,0)"><line stroke="currentColor" y2="-340"></line><text fill="currentColor" y="3" dy="0.71em"></text></g><g class="tick" opacity="1" transform="translate(405.78784648187633,0)"><line stroke="currentColor" y2="-340"></line><text fill="currentColor" y="3" dy="0.71em"></text></g><g class="tick" opacity="1" transform="translate(442.63219616204697,0)"><line stroke="currentColor" y2="-340"></line><text fill="currentColor" y="3" dy="0.71em"></text></g><g class="tick" opacity="1" transform="translate(479.4765458422175,0)"><line stroke="currentColor" y2="-340"></line><text fill="currentColor" y="3" dy="0.71em"></text></g><g class="tick" opacity="1" transform="translate(516.320895522388,0)"><line stroke="currentColor" y2="-340"></line><text fill="currentColor" y="3" dy="0.71em"></text></g><g class="tick" opacity="1" transform="translate(553.1652452025587,0)"><line stroke="currentColor" y2="-340"></line><text fill="currentColor" y="3" dy="0.71em"></text></g><g class="tick" opacity="1" transform="translate(590.0095948827292,0)"><line stroke="currentColor" y2="-340"></line><text fill="currentColor" y="3" dy="0.71em"></text></g><g class="tick" opacity="1" transform="translate(626.8539445628999,0)"><line stroke="currentColor" y2="-340"></line><text fill="currentColor" y="3" dy="0.71em"></text></g><g class="tick" opacity="1" transform="translate(663.6982942430703,0)"><line stroke="currentColor" y2="-340"></line><text fill="currentColor" y="3" dy="0.71em"></text></g><g class="tick" opacity="1" transform="translate(700.5426439232409,0)"><line stroke="currentColor" y2="-340"></line><text fill="currentColor" y="3" dy="0.71em"></text></g></g><g class="grid" fill="none" font-size="10" font-family="sans-serif" text-anchor="end" style="stroke-dasharray: 3,3; opacity: 0.3;"><path class="domain" stroke="currentColor" d="M720,340.5H0.5V0.5H720"></path><g class="tick" opacity="1" transform="translate(0,170.5)"><line stroke="currentColor" x2="720"></line><text fill="currentColor" x="-3" dy="0.32em"></text></g></g></g><text x="400" y="10" text-anchor="middle" style="font-size: 16px; font-weight: bold; fill: #333;">OKX USDT Lending Rate - Current Month</text></svg>