<svg width="800" height="400" xmlns="http://www.w3.org/2000/svg"><g transform="translate(50,20)"><g transform="translate(0,340)" fill="none" font-size="10" font-family="sans-serif" text-anchor="middle"><path class="domain" stroke="currentColor" d="M0.5,6V0.5H720.5V6"></path><g class="tick" opacity="1" transform="translate(0.5,0)"><line stroke="currentColor" y2="6"></line><text fill="currentColor" y="9" dy=".15em" style="text-anchor: end;" dx="-.8em" transform="rotate(-45)">10/01</text></g><g class="tick" opacity="1" transform="translate(175.04545454545456,0)"><line stroke="currentColor" y2="6"></line><text fill="currentColor" y="9" dy=".15em" style="text-anchor: end;" dx="-.8em" transform="rotate(-45)">10/02</text></g><g class="tick" opacity="1" transform="translate(349.5909090909091,0)"><line stroke="currentColor" y2="6"></line><text fill="currentColor" y="9" dy=".15em" style="text-anchor: end;" dx="-.8em" transform="rotate(-45)">10/03</text></g><g class="tick" opacity="1" transform="translate(524.1363636363636,0)"><line stroke="currentColor" y2="6"></line><text fill="currentColor" y="9" dy=".15em" style="text-anchor: end;" dx="-.8em" transform="rotate(-45)">10/04</text></g><g class="tick" opacity="1" transform="translate(698.6818181818182,0)"><line stroke="currentColor" y2="6"></line><text fill="currentColor" y="9" dy=".15em" style="text-anchor: end;" dx="-.8em" transform="rotate(-45)">10/05</text></g></g><g fill="none" font-size="10" font-family="sans-serif" text-anchor="end"><path class="domain" stroke="currentColor" d="M-6,340.5H0.5V0.5H-6"></path><g class="tick" opacity="1" transform="translate(0,340.5)"><line stroke="currentColor" x2="-6"></line><text fill="currentColor" x="-9" dy="0.32em">0.00%</text></g><g class="tick" opacity="1" transform="translate(0,309.59090909090907)"><line stroke="currentColor" x2="-6"></line><text fill="currentColor" x="-9" dy="0.32em">10.00%</text></g><g class="tick" opacity="1" transform="translate(0,278.6818181818182)"><line stroke="currentColor" x2="-6"></line><text fill="currentColor" x="-9" dy="0.32em">20.00%</text></g><g class="tick" opacity="1" transform="translate(0,247.77272727272728)"><line stroke="currentColor" x2="-6"></line><text fill="currentColor" x="-9" dy="0.32em">30.00%</text></g><g class="tick" opacity="1" transform="translate(0,216.86363636363637)"><line stroke="currentColor" x2="-6"></line><text fill="currentColor" x="-9" dy="0.32em">40.00%</text></g><g class="tick" opacity="1" transform="translate(0,185.95454545454544)"><line stroke="currentColor" x2="-6"></line><text fill="currentColor" x="-9" dy="0.32em">50.00%</text></g><g class="tick" opacity="1" transform="translate(0,155.04545454545456)"><line stroke="currentColor" x2="-6"></line><text fill="currentColor" x="-9" dy="0.32em">60.00%</text></g><g class="tick" opacity="1" transform="translate(0,124.13636363636368)"><line stroke="currentColor" x2="-6"></line><text fill="currentColor" x="-9" dy="0.32em">70.00%</text></g><g class="tick" opacity="1" transform="translate(0,93.22727272727272)"><line stroke="currentColor" x2="-6"></line><text fill="currentColor" x="-9" dy="0.32em">80.00%</text></g><g class="tick" opacity="1" transform="translate(0,62.31818181818184)"><line stroke="currentColor" x2="-6"></line><text fill="currentColor" x="-9" dy="0.32em">90.00%</text></g><g class="tick" opacity="1" transform="translate(0,31.40909090909092)"><line stroke="currentColor" x2="-6"></line><text fill="currentColor" x="-9" dy="0.32em">100.00%</text></g><g class="tick" opacity="1" transform="translate(0,0.5)"><line stroke="currentColor" x2="-6"></line><text fill="currentColor" x="-9" dy="0.32em">110.00%</text></g></g><text transform="rotate(-90)" y="-50" x="-170" dy="1em" style="text-anchor: middle; font-size: 12px; fill: #666;">Pre Rate (%)</text><text transform="translate(360, 380)" style="text-anchor: middle; font-size: 12px; fill: #666;">Time (UTC)</text><path fill="none" stroke="#2563eb" stroke-width="2" d="M0,327.636C2.424,327.636,4.848,327.636,7.273,327.636C9.697,327.636,12.121,327.636,14.545,327.636C16.97,327.636,19.394,327.636,21.818,327.636C24.242,327.636,26.667,327.636,29.091,327.636C31.515,327.636,33.939,327.636,36.364,327.636C38.788,327.636,41.212,327.636,43.636,327.636C46.061,327.636,48.485,327.636,50.909,327.636C53.333,327.636,55.758,327.636,58.182,327.636C60.606,327.636,63.03,327.636,65.455,327.636C67.879,327.636,70.303,327.636,72.727,327.636C75.152,327.636,77.576,327.636,80,327.636C82.424,327.636,84.848,327.636,87.273,327.636C89.697,327.636,92.121,327.636,94.545,327.636C96.97,327.636,99.394,327.636,101.818,327.636C104.242,327.636,106.667,327.636,109.091,327.636C111.515,327.636,113.939,327.636,116.364,327.636C118.788,327.636,121.212,327.636,123.636,327.636C126.061,327.636,128.485,327.636,130.909,327.636C133.333,327.636,135.758,327.636,138.182,327.636C140.606,327.636,143.03,327.636,145.455,327.636C147.879,327.636,150.303,327.636,152.727,327.636C155.152,327.636,157.576,327.636,160,327.636C162.424,327.636,164.848,327.636,167.273,327.636C169.697,327.636,172.121,327.636,174.545,327.636C176.97,327.636,179.394,327.636,181.818,327.636C184.242,327.636,186.667,327.636,189.091,327.636C191.515,327.636,193.939,327.636,196.364,327.636C198.788,327.636,201.212,327.636,203.636,327.636C206.061,327.636,208.485,327.636,210.909,327.636C213.333,327.636,215.758,327.636,218.182,327.636C220.606,327.636,223.03,327.636,225.455,327.636C227.879,327.636,230.303,327.636,232.727,327.636C235.152,327.636,237.576,327.636,240,327.636C242.424,327.636,244.848,327.636,247.273,327.636C249.697,327.636,252.121,327.636,254.545,327.636C256.97,327.636,259.394,327.636,261.818,327.636C264.242,327.636,266.667,18.545,269.091,18.545C271.515,18.545,273.939,293.636,276.364,306C278.788,318.364,281.212,324.545,283.636,324.545C286.061,324.545,288.485,324.545,290.909,324.545C293.333,324.545,295.758,324.545,298.182,324.545C300.606,324.545,303.03,324.545,305.455,324.545C307.879,324.545,310.303,324.545,312.727,324.545C315.152,324.545,317.576,324.545,320,324.545C322.424,324.545,324.848,324.545,327.273,324.545C329.697,324.545,332.121,324.545,334.545,324.545C336.97,324.545,339.394,324.545,341.818,324.545C344.242,324.545,346.667,324.545,349.091,324.545C351.515,324.545,353.939,324.545,356.364,324.545C358.788,324.545,361.212,324.545,363.636,324.545C366.061,324.545,368.485,324.545,370.909,324.545C373.333,324.545,375.758,324.545,378.182,324.545C380.606,324.545,383.03,324.545,385.455,324.545C387.879,324.545,390.303,324.545,392.727,324.545C395.152,324.545,397.576,324.545,400,324.545C402.424,324.545,404.848,324.545,407.273,324.545C409.697,324.545,412.121,324.545,414.545,324.545C416.97,324.545,419.394,324.545,421.818,324.545C424.242,324.545,426.667,324.545,429.091,324.545C431.515,324.545,433.939,324.545,436.364,324.545C438.788,324.545,441.212,324.545,443.636,324.545C446.061,324.545,448.485,324.545,450.909,324.545C453.333,324.545,455.758,324.545,458.182,324.545C460.606,324.545,463.03,324.545,465.455,324.545C467.879,324.545,470.303,324.545,472.727,324.545C475.152,324.545,477.576,324.545,480,324.545C482.424,324.545,484.848,324.545,487.273,324.545C489.697,324.545,492.121,324.545,494.545,324.545C496.97,324.545,499.394,324.545,501.818,324.545C504.242,324.545,506.667,324.545,509.091,324.545C511.515,324.545,513.939,324.545,516.364,324.545C518.788,324.545,521.212,324.545,523.636,324.545C526.061,324.545,528.485,324.545,530.909,324.545C533.333,324.545,535.758,324.545,538.182,324.545C540.606,324.545,543.03,324.545,545.455,324.545C547.879,324.545,550.303,324.545,552.727,324.545C555.152,324.545,557.576,324.545,560,324.545C562.424,324.545,564.848,324.545,567.273,324.545C569.697,324.545,572.121,324.545,574.545,324.545C576.97,324.545,579.394,324.545,581.818,324.545C584.242,324.545,586.667,324.545,589.091,324.545C591.515,324.545,593.939,324.545,596.364,324.545C598.788,324.545,601.212,324.545,603.636,324.545C606.061,324.545,608.485,324.545,610.909,324.545C613.333,324.545,615.758,324.545,618.182,324.545C620.606,324.545,623.03,324.545,625.455,324.545C627.879,324.545,630.303,324.545,632.727,324.545C635.152,324.545,637.576,324.545,640,324.545C642.424,324.545,644.848,324.545,647.273,324.545C649.697,324.545,652.121,324.545,654.545,324.545C656.97,324.545,659.394,324.545,661.818,324.545C664.242,324.545,666.667,324.545,669.091,324.545C671.515,324.545,673.939,324.545,676.364,324.545C678.788,324.545,681.212,324.545,683.636,324.545C686.061,324.545,688.485,324.545,690.909,324.545C693.333,324.545,695.758,324.545,698.182,324.545C700.606,324.545,703.03,324.545,705.455,324.545C707.879,324.545,710.303,324.545,712.727,324.545C715.152,324.545,717.576,324.545,720,324.545"></path><circle class="dot" cx="0" cy="327.6363636363636" r="3" fill="#2563eb"></circle><circle class="dot" cx="7.272727272727273" cy="327.6363636363636" r="3" fill="#2563eb"></circle><circle class="dot" cx="14.545454545454547" cy="327.6363636363636" r="3" fill="#2563eb"></circle><circle class="dot" cx="21.81818181818182" cy="327.6363636363636" r="3" fill="#2563eb"></circle><circle class="dot" cx="29.090909090909093" cy="327.6363636363636" r="3" fill="#2563eb"></circle><circle class="dot" cx="36.36363636363636" cy="327.6363636363636" r="3" fill="#2563eb"></circle><circle class="dot" cx="43.63636363636364" cy="327.6363636363636" r="3" fill="#2563eb"></circle><circle class="dot" cx="50.90909090909091" cy="327.6363636363636" r="3" fill="#2563eb"></circle><circle class="dot" cx="58.18181818181819" cy="327.6363636363636" r="3" fill="#2563eb"></circle><circle class="dot" cx="65.45454545454545" cy="327.6363636363636" r="3" fill="#2563eb"></circle><circle class="dot" cx="72.72727272727272" cy="327.6363636363636" r="3" fill="#2563eb"></circle><circle class="dot" cx="80" cy="327.6363636363636" r="3" fill="#2563eb"></circle><circle class="dot" cx="87.27272727272728" cy="327.6363636363636" r="3" fill="#2563eb"></circle><circle class="dot" cx="94.54545454545456" cy="327.6363636363636" r="3" fill="#2563eb"></circle><circle class="dot" cx="101.81818181818181" cy="327.6363636363636" r="3" fill="#2563eb"></circle><circle class="dot" cx="109.0909090909091" cy="327.6363636363636" r="3" fill="#2563eb"></circle><circle class="dot" cx="116.36363636363637" cy="327.6363636363636" r="3" fill="#2563eb"></circle><circle class="dot" cx="123.63636363636363" cy="327.6363636363636" r="3" fill="#2563eb"></circle><circle class="dot" cx="130.9090909090909" cy="327.6363636363636" r="3" fill="#2563eb"></circle><circle class="dot" cx="138.18181818181816" cy="327.6363636363636" r="3" fill="#2563eb"></circle><circle class="dot" cx="145.45454545454544" cy="327.6363636363636" r="3" fill="#2563eb"></circle><circle class="dot" cx="152.72727272727272" cy="327.6363636363636" r="3" fill="#2563eb"></circle><circle class="dot" cx="160" cy="327.6363636363636" r="3" fill="#2563eb"></circle><circle class="dot" cx="167.27272727272728" cy="327.6363636363636" r="3" fill="#2563eb"></circle><circle class="dot" cx="174.54545454545456" cy="327.6363636363636" r="3" fill="#2563eb"></circle><circle class="dot" cx="181.81818181818184" cy="327.6363636363636" r="3" fill="#2563eb"></circle><circle class="dot" cx="189.09090909090912" cy="327.6363636363636" r="3" fill="#2563eb"></circle><circle class="dot" cx="196.36363636363635" cy="327.6363636363636" r="3" fill="#2563eb"></circle><circle class="dot" cx="203.63636363636363" cy="327.6363636363636" r="3" fill="#2563eb"></circle><circle class="dot" cx="210.9090909090909" cy="327.6363636363636" r="3" fill="#2563eb"></circle><circle class="dot" cx="218.1818181818182" cy="327.6363636363636" r="3" fill="#2563eb"></circle><circle class="dot" cx="225.45454545454547" cy="327.6363636363636" r="3" fill="#2563eb"></circle><circle class="dot" cx="232.72727272727275" cy="327.6363636363636" r="3" fill="#2563eb"></circle><circle class="dot" cx="240" cy="327.6363636363636" r="3" fill="#2563eb"></circle><circle class="dot" cx="247.27272727272725" cy="327.6363636363636" r="3" fill="#2563eb"></circle><circle class="dot" cx="254.54545454545453" cy="327.6363636363636" r="3" fill="#2563eb"></circle><circle class="dot" cx="261.8181818181818" cy="327.6363636363636" r="3" fill="#2563eb"></circle><circle class="dot" cx="269.0909090909091" cy="18.54545454545455" r="3" fill="#2563eb"></circle><circle class="dot" cx="276.3636363636363" cy="306" r="3" fill="#2563eb"></circle><circle class="dot" cx="283.6363636363636" cy="324.54545454545456" r="3" fill="#2563eb"></circle><circle class="dot" cx="290.9090909090909" cy="324.54545454545456" r="3" fill="#2563eb"></circle><circle class="dot" cx="298.1818181818182" cy="324.54545454545456" r="3" fill="#2563eb"></circle><circle class="dot" cx="305.45454545454544" cy="324.54545454545456" r="3" fill="#2563eb"></circle><circle class="dot" cx="312.72727272727275" cy="324.54545454545456" r="3" fill="#2563eb"></circle><circle class="dot" cx="320" cy="324.54545454545456" r="3" fill="#2563eb"></circle><circle class="dot" cx="327.27272727272725" cy="324.54545454545456" r="3" fill="#2563eb"></circle><circle class="dot" cx="334.54545454545456" cy="324.54545454545456" r="3" fill="#2563eb"></circle><circle class="dot" cx="341.8181818181818" cy="324.54545454545456" r="3" fill="#2563eb"></circle><circle class="dot" cx="349.0909090909091" cy="324.54545454545456" r="3" fill="#2563eb"></circle><circle class="dot" cx="356.3636363636364" cy="324.54545454545456" r="3" fill="#2563eb"></circle><circle class="dot" cx="363.6363636363637" cy="324.54545454545456" r="3" fill="#2563eb"></circle><circle class="dot" cx="370.9090909090909" cy="324.54545454545456" r="3" fill="#2563eb"></circle><circle class="dot" cx="378.18181818181824" cy="324.54545454545456" r="3" fill="#2563eb"></circle><circle class="dot" cx="385.45454545454544" cy="324.54545454545456" r="3" fill="#2563eb"></circle><circle class="dot" cx="392.7272727272727" cy="324.54545454545456" r="3" fill="#2563eb"></circle><circle class="dot" cx="400" cy="324.54545454545456" r="3" fill="#2563eb"></circle><circle class="dot" cx="407.27272727272725" cy="324.54545454545456" r="3" fill="#2563eb"></circle><circle class="dot" cx="414.54545454545456" cy="324.54545454545456" r="3" fill="#2563eb"></circle><circle class="dot" cx="421.8181818181818" cy="324.54545454545456" r="3" fill="#2563eb"></circle><circle class="dot" cx="429.09090909090907" cy="324.54545454545456" r="3" fill="#2563eb"></circle><circle class="dot" cx="436.3636363636364" cy="324.54545454545456" r="3" fill="#2563eb"></circle><circle class="dot" cx="443.6363636363636" cy="324.54545454545456" r="3" fill="#2563eb"></circle><circle class="dot" cx="450.90909090909093" cy="324.54545454545456" r="3" fill="#2563eb"></circle><circle class="dot" cx="458.1818181818182" cy="324.54545454545456" r="3" fill="#2563eb"></circle><circle class="dot" cx="465.4545454545455" cy="324.54545454545456" r="3" fill="#2563eb"></circle><circle class="dot" cx="472.72727272727275" cy="324.54545454545456" r="3" fill="#2563eb"></circle><circle class="dot" cx="480" cy="324.54545454545456" r="3" fill="#2563eb"></circle><circle class="dot" cx="487.2727272727273" cy="324.54545454545456" r="3" fill="#2563eb"></circle><circle class="dot" cx="494.5454545454545" cy="324.54545454545456" r="3" fill="#2563eb"></circle><circle class="dot" cx="501.81818181818187" cy="324.54545454545456" r="3" fill="#2563eb"></circle><circle class="dot" cx="509.09090909090907" cy="324.54545454545456" r="3" fill="#2563eb"></circle><circle class="dot" cx="516.3636363636364" cy="324.54545454545456" r="3" fill="#2563eb"></circle><circle class="dot" cx="523.6363636363636" cy="324.54545454545456" r="3" fill="#2563eb"></circle><circle class="dot" cx="530.9090909090909" cy="324.54545454545456" r="3" fill="#2563eb"></circle><circle class="dot" cx="538.1818181818182" cy="324.54545454545456" r="3" fill="#2563eb"></circle><circle class="dot" cx="545.4545454545455" cy="324.54545454545456" r="3" fill="#2563eb"></circle><circle class="dot" cx="552.7272727272726" cy="324.54545454545456" r="3" fill="#2563eb"></circle><circle class="dot" cx="560" cy="324.54545454545456" r="3" fill="#2563eb"></circle><circle class="dot" cx="567.2727272727273" cy="324.54545454545456" r="3" fill="#2563eb"></circle><circle class="dot" cx="574.5454545454546" cy="324.54545454545456" r="3" fill="#2563eb"></circle><circle class="dot" cx="581.8181818181818" cy="324.54545454545456" r="3" fill="#2563eb"></circle><circle class="dot" cx="589.0909090909091" cy="324.54545454545456" r="3" fill="#2563eb"></circle><circle class="dot" cx="596.3636363636364" cy="324.54545454545456" r="3" fill="#2563eb"></circle><circle class="dot" cx="603.6363636363636" cy="324.54545454545456" r="3" fill="#2563eb"></circle><circle class="dot" cx="610.9090909090909" cy="324.54545454545456" r="3" fill="#2563eb"></circle><circle class="dot" cx="618.1818181818181" cy="324.54545454545456" r="3" fill="#2563eb"></circle><circle class="dot" cx="625.4545454545455" cy="324.54545454545456" r="3" fill="#2563eb"></circle><circle class="dot" cx="632.7272727272727" cy="324.54545454545456" r="3" fill="#2563eb"></circle><circle class="dot" cx="640" cy="324.54545454545456" r="3" fill="#2563eb"></circle><circle class="dot" cx="647.2727272727273" cy="324.54545454545456" r="3" fill="#2563eb"></circle><circle class="dot" cx="654.5454545454545" cy="324.54545454545456" r="3" fill="#2563eb"></circle><circle class="dot" cx="661.8181818181819" cy="324.54545454545456" r="3" fill="#2563eb"></circle><circle class="dot" cx="669.0909090909091" cy="324.54545454545456" r="3" fill="#2563eb"></circle><circle class="dot" cx="676.3636363636364" cy="324.54545454545456" r="3" fill="#2563eb"></circle><circle class="dot" cx="683.6363636363636" cy="324.54545454545456" r="3" fill="#2563eb"></circle><circle class="dot" cx="690.9090909090909" cy="324.54545454545456" r="3" fill="#2563eb"></circle><circle class="dot" cx="698.1818181818182" cy="324.54545454545456" r="3" fill="#2563eb"></circle><circle class="dot" cx="705.4545454545455" cy="324.54545454545456" r="3" fill="#2563eb"></circle><circle class="dot" cx="712.7272727272727" cy="324.54545454545456" r="3" fill="#2563eb"></circle><circle class="dot" cx="720" cy="324.54545454545456" r="3" fill="#2563eb"></circle><g class="grid" transform="translate(0,340)" fill="none" font-size="10" font-family="sans-serif" text-anchor="middle" style="stroke-dasharray: 3,3; opacity: 0.3;"><path class="domain" stroke="currentColor" d="M0.5,-340V0.5H720.5V-340"></path><g class="tick" opacity="1" transform="translate(0.5,0)"><line stroke="currentColor" y2="-340"></line><text fill="currentColor" y="3" dy="0.71em"></text></g><g class="tick" opacity="1" transform="translate(175.04545454545456,0)"><line stroke="currentColor" y2="-340"></line><text fill="currentColor" y="3" dy="0.71em"></text></g><g class="tick" opacity="1" transform="translate(349.5909090909091,0)"><line stroke="currentColor" y2="-340"></line><text fill="currentColor" y="3" dy="0.71em"></text></g><g class="tick" opacity="1" transform="translate(524.1363636363636,0)"><line stroke="currentColor" y2="-340"></line><text fill="currentColor" y="3" dy="0.71em"></text></g><g class="tick" opacity="1" transform="translate(698.6818181818182,0)"><line stroke="currentColor" y2="-340"></line><text fill="currentColor" y="3" dy="0.71em"></text></g></g><g class="grid" fill="none" font-size="10" font-family="sans-serif" text-anchor="end" style="stroke-dasharray: 3,3; opacity: 0.3;"><path class="domain" stroke="currentColor" d="M720,340.5H0.5V0.5H720"></path><g class="tick" opacity="1" transform="translate(0,340.5)"><line stroke="currentColor" x2="720"></line><text fill="currentColor" x="-3" dy="0.32em"></text></g><g class="tick" opacity="1" transform="translate(0,309.59090909090907)"><line stroke="currentColor" x2="720"></line><text fill="currentColor" x="-3" dy="0.32em"></text></g><g class="tick" opacity="1" transform="translate(0,278.6818181818182)"><line stroke="currentColor" x2="720"></line><text fill="currentColor" x="-3" dy="0.32em"></text></g><g class="tick" opacity="1" transform="translate(0,247.77272727272728)"><line stroke="currentColor" x2="720"></line><text fill="currentColor" x="-3" dy="0.32em"></text></g><g class="tick" opacity="1" transform="translate(0,216.86363636363637)"><line stroke="currentColor" x2="720"></line><text fill="currentColor" x="-3" dy="0.32em"></text></g><g class="tick" opacity="1" transform="translate(0,185.95454545454544)"><line stroke="currentColor" x2="720"></line><text fill="currentColor" x="-3" dy="0.32em"></text></g><g class="tick" opacity="1" transform="translate(0,155.04545454545456)"><line stroke="currentColor" x2="720"></line><text fill="currentColor" x="-3" dy="0.32em"></text></g><g class="tick" opacity="1" transform="translate(0,124.13636363636368)"><line stroke="currentColor" x2="720"></line><text fill="currentColor" x="-3" dy="0.32em"></text></g><g class="tick" opacity="1" transform="translate(0,93.22727272727272)"><line stroke="currentColor" x2="720"></line><text fill="currentColor" x="-3" dy="0.32em"></text></g><g class="tick" opacity="1" transform="translate(0,62.31818181818184)"><line stroke="currentColor" x2="720"></line><text fill="currentColor" x="-3" dy="0.32em"></text></g><g class="tick" opacity="1" transform="translate(0,31.40909090909092)"><line stroke="currentColor" x2="720"></line><text fill="currentColor" x="-3" dy="0.32em"></text></g><g class="tick" opacity="1" transform="translate(0,0.5)"><line stroke="currentColor" x2="720"></line><text fill="currentColor" x="-3" dy="0.32em"></text></g></g></g><text x="400" y="10" text-anchor="middle" style="font-size: 16px; font-weight: bold; fill: #333;">OKX USDT Lending Rate - Current Month</text></svg>