<svg width="800" height="400" xmlns="http://www.w3.org/2000/svg"><g transform="translate(50,20)"><g transform="translate(0,340)" fill="none" font-size="10" font-family="sans-serif" text-anchor="middle"><path class="domain" stroke="currentColor" d="M0.5,6V0.5H720.5V6"></path><g class="tick" opacity="1" transform="translate(0.5,0)"><line stroke="currentColor" y2="6"></line><text fill="currentColor" y="9" dy=".15em" style="text-anchor: end;" dx="-.8em" transform="rotate(-45)">04/01</text></g><g class="tick" opacity="1" transform="translate(41.741050119331746,0)"><line stroke="currentColor" y2="6"></line><text fill="currentColor" y="9" dy=".15em" style="text-anchor: end;" dx="-.8em" transform="rotate(-45)">04/02</text></g><g class="tick" opacity="1" transform="translate(82.98210023866349,0)"><line stroke="currentColor" y2="6"></line><text fill="currentColor" y="9" dy=".15em" style="text-anchor: end;" dx="-.8em" transform="rotate(-45)">04/03</text></g><g class="tick" opacity="1" transform="translate(124.22315035799522,0)"><line stroke="currentColor" y2="6"></line><text fill="currentColor" y="9" dy=".15em" style="text-anchor: end;" dx="-.8em" transform="rotate(-45)">04/04</text></g><g class="tick" opacity="1" transform="translate(165.46420047732698,0)"><line stroke="currentColor" y2="6"></line><text fill="currentColor" y="9" dy=".15em" style="text-anchor: end;" dx="-.8em" transform="rotate(-45)">04/05</text></g><g class="tick" opacity="1" transform="translate(206.70525059665871,0)"><line stroke="currentColor" y2="6"></line><text fill="currentColor" y="9" dy=".15em" style="text-anchor: end;" dx="-.8em" transform="rotate(-45)">04/06</text></g><g class="tick" opacity="1" transform="translate(247.94630071599045,0)"><line stroke="currentColor" y2="6"></line><text fill="currentColor" y="9" dy=".15em" style="text-anchor: end;" dx="-.8em" transform="rotate(-45)">04/07</text></g><g class="tick" opacity="1" transform="translate(289.1873508353222,0)"><line stroke="currentColor" y2="6"></line><text fill="currentColor" y="9" dy=".15em" style="text-anchor: end;" dx="-.8em" transform="rotate(-45)">04/08</text></g><g class="tick" opacity="1" transform="translate(330.42840095465397,0)"><line stroke="currentColor" y2="6"></line><text fill="currentColor" y="9" dy=".15em" style="text-anchor: end;" dx="-.8em" transform="rotate(-45)">04/09</text></g><g class="tick" opacity="1" transform="translate(371.6694510739857,0)"><line stroke="currentColor" y2="6"></line><text fill="currentColor" y="9" dy=".15em" style="text-anchor: end;" dx="-.8em" transform="rotate(-45)">04/10</text></g><g class="tick" opacity="1" transform="translate(412.91050119331743,0)"><line stroke="currentColor" y2="6"></line><text fill="currentColor" y="9" dy=".15em" style="text-anchor: end;" dx="-.8em" transform="rotate(-45)">04/11</text></g><g class="tick" opacity="1" transform="translate(454.15155131264913,0)"><line stroke="currentColor" y2="6"></line><text fill="currentColor" y="9" dy=".15em" style="text-anchor: end;" dx="-.8em" transform="rotate(-45)">04/12</text></g><g class="tick" opacity="1" transform="translate(495.3926014319809,0)"><line stroke="currentColor" y2="6"></line><text fill="currentColor" y="9" dy=".15em" style="text-anchor: end;" dx="-.8em" transform="rotate(-45)">04/13</text></g><g class="tick" opacity="1" transform="translate(536.6336515513127,0)"><line stroke="currentColor" y2="6"></line><text fill="currentColor" y="9" dy=".15em" style="text-anchor: end;" dx="-.8em" transform="rotate(-45)">04/14</text></g><g class="tick" opacity="1" transform="translate(577.8747016706444,0)"><line stroke="currentColor" y2="6"></line><text fill="currentColor" y="9" dy=".15em" style="text-anchor: end;" dx="-.8em" transform="rotate(-45)">04/15</text></g><g class="tick" opacity="1" transform="translate(619.1157517899761,0)"><line stroke="currentColor" y2="6"></line><text fill="currentColor" y="9" dy=".15em" style="text-anchor: end;" dx="-.8em" transform="rotate(-45)">04/16</text></g><g class="tick" opacity="1" transform="translate(660.3568019093079,0)"><line stroke="currentColor" y2="6"></line><text fill="currentColor" y="9" dy=".15em" style="text-anchor: end;" dx="-.8em" transform="rotate(-45)">04/17</text></g><g class="tick" opacity="1" transform="translate(701.5978520286396,0)"><line stroke="currentColor" y2="6"></line><text fill="currentColor" y="9" dy=".15em" style="text-anchor: end;" dx="-.8em" transform="rotate(-45)">04/18</text></g></g><g fill="none" font-size="10" font-family="sans-serif" text-anchor="end"><path class="domain" stroke="currentColor" d="M-6,340.5H0.5V0.5H-6"></path><g class="tick" opacity="1" transform="translate(0,170.5)"><line stroke="currentColor" x2="-6"></line><text fill="currentColor" x="-9" dy="0.32em">2.50%</text></g></g><text transform="rotate(-90)" y="-50" x="-170" dy="1em" style="text-anchor: middle; font-size: 12px; fill: #666;">Pre Rate (%)</text><text transform="translate(360, 380)" style="text-anchor: middle; font-size: 12px; fill: #666;">Time (UTC)</text><path fill="none" stroke="#2563eb" stroke-width="2" d="M0,170C0.573,170,1.146,170,1.718,170C2.291,170,2.864,170,3.437,170C4.01,170,4.582,170,5.155,170C5.728,170,6.301,170,6.874,170C7.446,170,8.019,170,8.592,170C9.165,170,9.737,170,10.31,170C10.883,170,11.456,170,12.029,170C12.601,170,13.174,170,13.747,170C14.32,170,14.893,170,15.465,170C16.038,170,16.611,170,17.184,170C17.757,170,18.329,170,18.902,170C19.475,170,20.048,170,20.621,170C21.193,170,21.766,170,22.339,170C22.912,170,23.484,170,24.057,170C24.63,170,25.203,170,25.776,170C26.348,170,26.921,170,27.494,170C28.067,170,28.64,170,29.212,170C29.785,170,30.358,170,30.931,170C31.504,170,32.076,170,32.649,170C33.222,170,33.795,170,34.368,170C34.94,170,35.513,170,36.086,170C36.659,170,37.232,170,37.804,170C38.377,170,38.95,170,39.523,170C40.095,170,40.668,170,41.241,170C41.814,170,42.387,170,42.959,170C43.532,170,44.105,170,44.678,170C45.251,170,45.823,170,46.396,170C46.969,170,47.542,170,48.115,170C48.687,170,49.26,170,49.833,170C50.406,170,50.979,170,51.551,170C52.124,170,52.697,170,53.27,170C53.842,170,54.415,170,54.988,170C55.561,170,56.134,170,56.706,170C57.279,170,57.852,170,58.425,170C58.998,170,59.57,170,60.143,170C60.716,170,61.289,170,61.862,170C62.434,170,63.007,170,63.58,170C64.153,170,64.726,170,65.298,170C65.871,170,66.444,170,67.017,170C67.589,170,68.162,170,68.735,170C69.308,170,69.881,170,70.453,170C71.026,170,71.599,170,72.172,170C72.745,170,73.317,170,73.89,170C74.463,170,75.036,170,75.609,170C76.181,170,76.754,170,77.327,170C77.9,170,78.473,170,79.045,170C79.618,170,80.191,170,80.764,170C81.337,170,81.909,170,82.482,170C83.055,170,83.628,170,84.2,170C84.773,170,85.346,170,85.919,170C86.492,170,87.064,170,87.637,170C88.21,170,88.783,170,89.356,170C89.928,170,90.501,170,91.074,170C91.647,170,92.22,170,92.792,170C93.365,170,93.938,170,94.511,170C95.084,170,95.656,170,96.229,170C96.802,170,97.375,170,97.947,170C98.52,170,99.093,170,99.666,170C100.239,170,100.811,170,101.384,170C101.957,170,102.53,170,103.103,170C103.675,170,104.248,170,104.821,170C105.394,170,105.967,170,106.539,170C107.112,170,107.685,170,108.258,170C108.831,170,109.403,170,109.976,170C110.549,170,111.122,170,111.695,170C112.267,170,112.84,170,113.413,170C113.986,170,114.558,170,115.131,170C115.704,170,116.277,170,116.85,170C117.422,170,117.995,170,118.568,170C119.141,170,119.714,170,120.286,170C120.859,170,121.432,170,122.005,170C122.578,170,123.15,170,123.723,170C124.296,170,124.869,170,125.442,170C126.014,170,126.587,170,127.16,170C127.733,170,128.305,170,128.878,170C129.451,170,130.024,170,130.597,170C131.169,170,131.742,170,132.315,170C132.888,170,133.461,170,134.033,170C134.606,170,135.179,170,135.752,170C136.325,170,136.897,170,137.47,170C138.043,170,138.616,170,139.189,170C139.761,170,140.334,170,140.907,170C141.48,170,142.053,170,142.625,170C143.198,170,143.771,170,144.344,170C144.916,170,145.489,170,146.062,170C146.635,170,147.208,170,147.78,170C148.353,170,148.926,170,149.499,170C150.072,170,150.644,170,151.217,170C151.79,170,152.363,170,152.936,170C153.508,170,154.081,170,154.654,170C155.227,170,155.8,170,156.372,170C156.945,170,157.518,170,158.091,170C158.663,170,159.236,170,159.809,170C160.382,170,160.955,170,161.527,170C162.1,170,162.673,170,163.246,170C163.819,170,164.391,170,164.964,170C165.537,170,166.11,170,166.683,170C167.255,170,167.828,170,168.401,170C168.974,170,169.547,170,170.119,170C170.692,170,171.265,170,171.838,170C172.411,170,172.983,170,173.556,170C174.129,170,174.702,170,175.274,170C175.847,170,176.42,170,176.993,170C177.566,170,178.138,170,178.711,170C179.284,170,179.857,170,180.43,170C181.002,170,181.575,170,182.148,170C182.721,170,183.294,170,183.866,170C184.439,170,185.012,170,185.585,170C186.158,170,186.73,170,187.303,170C187.876,170,188.449,170,189.021,170C189.594,170,190.167,170,190.74,170C191.313,170,191.885,170,192.458,170C193.031,170,193.604,170,194.177,170C194.749,170,195.322,170,195.895,170C196.468,170,197.041,170,197.613,170C198.186,170,198.759,170,199.332,170C199.905,170,200.477,170,201.05,170C201.623,170,202.196,170,202.768,170C203.341,170,203.914,170,204.487,170C205.06,170,205.632,170,206.205,170C206.778,170,207.351,170,207.924,170C208.496,170,209.069,170,209.642,170C210.215,170,210.788,170,211.36,170C211.933,170,212.506,170,213.079,170C213.652,170,214.224,170,214.797,170C215.37,170,215.943,170,216.516,170C217.088,170,217.661,170,218.234,170C218.807,170,219.379,170,219.952,170C220.525,170,221.098,170,221.671,170C222.243,170,222.816,170,223.389,170C223.962,170,224.535,170,225.107,170C225.68,170,226.253,170,226.826,170C227.399,170,227.971,170,228.544,170C229.117,170,229.69,170,230.263,170C230.835,170,231.408,170,231.981,170C232.554,170,233.126,170,233.699,170C234.272,170,234.845,170,235.418,170C235.99,170,236.563,170,237.136,170C237.709,170,238.282,170,238.854,170C239.427,170,240,170,240.573,170C241.146,170,241.718,170,242.291,170C242.864,170,243.437,170,244.01,170C244.582,170,245.155,170,245.728,170C246.301,170,246.874,170,247.446,170C248.019,170,248.592,170,249.165,170C249.737,170,250.31,170,250.883,170C251.456,170,252.029,170,252.601,170C253.174,170,253.747,170,254.32,170C254.893,170,255.465,170,256.038,170C256.611,170,257.184,170,257.757,170C258.329,170,258.902,170,259.475,170C260.048,170,260.621,170,261.193,170C261.766,170,262.339,170,262.912,170C263.484,170,264.057,170,264.63,170C265.203,170,265.776,170,266.348,170C266.921,170,267.494,170,268.067,170C268.64,170,269.212,170,269.785,170C270.358,170,270.931,170,271.504,170C272.076,170,272.649,170,273.222,170C273.795,170,274.368,170,274.94,170C275.513,170,276.086,170,276.659,170C277.232,170,277.804,170,278.377,170C278.95,170,279.523,170,280.095,170C280.668,170,281.241,170,281.814,170C282.387,170,282.959,170,283.532,170C284.105,170,284.678,170,285.251,170C285.823,170,286.396,170,286.969,170C287.542,170,288.115,170,288.687,170C289.26,170,289.833,170,290.406,170C290.979,170,291.551,170,292.124,170C292.697,170,293.27,170,293.842,170C294.415,170,294.988,170,295.561,170C296.134,170,296.706,170,297.279,170C297.852,170,298.425,170,298.998,170C299.57,170,300.143,170,300.716,170C301.289,170,301.862,170,302.434,170C303.007,170,303.58,170,304.153,170C304.726,170,305.298,170,305.871,170C306.444,170,307.017,170,307.589,170C308.162,170,308.735,170,309.308,170C309.881,170,310.453,170,311.026,170C311.599,170,312.172,170,312.745,170C313.317,170,313.89,170,314.463,170C315.036,170,315.609,170,316.181,170C316.754,170,317.327,170,317.9,170C318.473,170,319.045,170,319.618,170C320.191,170,320.764,170,321.337,170C321.909,170,322.482,170,323.055,170C323.628,170,324.2,170,324.773,170C325.346,170,325.919,170,326.492,170C327.064,170,327.637,170,328.21,170C328.783,170,329.356,170,329.928,170C330.501,170,331.074,170,331.647,170C332.22,170,332.792,170,333.365,170C333.938,170,334.511,170,335.084,170C335.656,170,336.229,170,336.802,170C337.375,170,337.947,170,338.52,170C339.093,170,339.666,170,340.239,170C340.811,170,341.384,170,341.957,170C342.53,170,343.103,170,343.675,170C344.248,170,344.821,170,345.394,170C345.967,170,346.539,170,347.112,170C347.685,170,348.258,170,348.831,170C349.403,170,349.976,170,350.549,170C351.122,170,351.695,170,352.267,170C352.84,170,353.413,170,353.986,170C354.558,170,355.131,170,355.704,170C356.277,170,356.85,170,357.422,170C357.995,170,358.568,170,359.141,170C359.714,170,360.286,170,360.859,170C361.432,170,362.005,170,362.578,170C363.15,170,363.723,170,364.296,170C364.869,170,365.442,170,366.014,170C366.587,170,367.16,170,367.733,170C368.305,170,368.878,170,369.451,170C370.024,170,370.597,170,371.169,170C371.742,170,372.315,170,372.888,170C373.461,170,374.033,170,374.606,170C375.179,170,375.752,170,376.325,170C376.897,170,377.47,170,378.043,170C378.616,170,379.189,170,379.761,170C380.334,170,380.907,170,381.48,170C382.053,170,382.625,170,383.198,170C383.771,170,384.344,170,384.916,170C385.489,170,386.062,170,386.635,170C387.208,170,387.78,170,388.353,170C388.926,170,389.499,170,390.072,170C390.644,170,391.217,170,391.79,170C392.363,170,392.936,170,393.508,170C394.081,170,394.654,170,395.227,170C395.8,170,396.372,170,396.945,170C397.518,170,398.091,170,398.663,170C399.236,170,399.809,170,400.382,170C400.955,170,401.527,170,402.1,170C402.673,170,403.246,170,403.819,170C404.391,170,404.964,170,405.537,170C406.11,170,406.683,170,407.255,170C407.828,170,408.401,170,408.974,170C409.547,170,410.119,170,410.692,170C411.265,170,411.838,170,412.411,170C412.983,170,413.556,170,414.129,170C414.702,170,415.274,170,415.847,170C416.42,170,416.993,170,417.566,170C418.138,170,418.711,170,419.284,170C419.857,170,420.43,170,421.002,170C421.575,170,422.148,170,422.721,170C423.294,170,423.866,170,424.439,170C425.012,170,425.585,170,426.158,170C426.73,170,427.303,170,427.876,170C428.449,170,429.021,170,429.594,170C430.167,170,430.74,170,431.313,170C431.885,170,432.458,170,433.031,170C433.604,170,434.177,170,434.749,170C435.322,170,435.895,170,436.468,170C437.041,170,437.613,170,438.186,170C438.759,170,439.332,170,439.905,170C440.477,170,441.05,170,441.623,170C442.196,170,442.768,170,443.341,170C443.914,170,444.487,170,445.06,170C445.632,170,446.205,170,446.778,170C447.351,170,447.924,170,448.496,170C449.069,170,449.642,170,450.215,170C450.788,170,451.36,170,451.933,170C452.506,170,453.079,170,453.652,170C454.224,170,454.797,170,455.37,170C455.943,170,456.516,170,457.088,170C457.661,170,458.234,170,458.807,170C459.379,170,459.952,170,460.525,170C461.098,170,461.671,170,462.243,170C462.816,170,463.389,170,463.962,170C464.535,170,465.107,170,465.68,170C466.253,170,466.826,170,467.399,170C467.971,170,468.544,170,469.117,170C469.69,170,470.263,170,470.835,170C471.408,170,471.981,170,472.554,170C473.126,170,473.699,170,474.272,170C474.845,170,475.418,170,475.99,170C476.563,170,477.136,170,477.709,170C478.282,170,478.854,170,479.427,170C480,170,480.573,170,481.146,170C481.718,170,482.291,170,482.864,170C483.437,170,484.01,170,484.582,170C485.155,170,485.728,170,486.301,170C486.874,170,487.446,170,488.019,170C488.592,170,489.165,170,489.737,170C490.31,170,490.883,170,491.456,170C492.029,170,492.601,170,493.174,170C493.747,170,494.32,170,494.893,170C495.465,170,496.038,170,496.611,170C497.184,170,497.757,170,498.329,170C498.902,170,499.475,170,500.048,170C500.621,170,501.193,170,501.766,170C502.339,170,502.912,170,503.484,170C504.057,170,504.63,170,505.203,170C505.776,170,506.348,170,506.921,170C507.494,170,508.067,170,508.64,170C509.212,170,509.785,170,510.358,170C510.931,170,511.504,170,512.076,170C512.649,170,513.222,170,513.795,170C514.368,170,514.94,170,515.513,170C516.086,170,516.659,170,517.232,170C517.804,170,518.377,170,518.95,170C519.523,170,520.095,170,520.668,170C521.241,170,521.814,170,522.387,170C522.959,170,523.532,170,524.105,170C524.678,170,525.251,170,525.823,170C526.396,170,526.969,170,527.542,170C528.115,170,528.687,170,529.26,170C529.833,170,530.406,170,530.979,170C531.551,170,532.124,170,532.697,170C533.27,170,533.842,170,534.415,170C534.988,170,535.561,170,536.134,170C536.706,170,537.279,170,537.852,170C538.425,170,538.998,170,539.57,170C540.143,170,540.716,170,541.289,170C541.862,170,542.434,170,543.007,170C543.58,170,544.153,170,544.726,170C545.298,170,545.871,170,546.444,170C547.017,170,547.589,170,548.162,170C548.735,170,549.308,170,549.881,170C550.453,170,551.026,170,551.599,170C552.172,170,552.745,170,553.317,170C553.89,170,554.463,170,555.036,170C555.609,170,556.181,170,556.754,170C557.327,170,557.9,170,558.473,170C559.045,170,559.618,170,560.191,170C560.764,170,561.337,170,561.909,170C562.482,170,563.055,170,563.628,170C564.2,170,564.773,170,565.346,170C565.919,170,566.492,170,567.064,170C567.637,170,568.21,170,568.783,170C569.356,170,569.928,170,570.501,170C571.074,170,571.647,170,572.22,170C572.792,170,573.365,170,573.938,170C574.511,170,575.084,170,575.656,170C576.229,170,576.802,170,577.375,170C577.947,170,578.52,170,579.093,170C579.666,170,580.239,170,580.811,170C581.384,170,581.957,170,582.53,170C583.103,170,583.675,170,584.248,170C584.821,170,585.394,170,585.967,170C586.539,170,587.112,170,587.685,170C588.258,170,588.831,170,589.403,170C589.976,170,590.549,170,591.122,170C591.695,170,592.267,170,592.84,170C593.413,170,593.986,170,594.558,170C595.131,170,595.704,170,596.277,170C596.85,170,597.422,170,597.995,170C598.568,170,599.141,170,599.714,170C600.286,170,600.859,170,601.432,170C602.005,170,602.578,170,603.15,170C603.723,170,604.296,170,604.869,170C605.442,170,606.014,170,606.587,170C607.16,170,607.733,170,608.305,170C608.878,170,609.451,170,610.024,170C610.597,170,611.169,170,611.742,170C612.315,170,612.888,170,613.461,170C614.033,170,614.606,170,615.179,170C615.752,170,616.325,170,616.897,170C617.47,170,618.043,170,618.616,170C619.189,170,619.761,170,620.334,170C620.907,170,621.48,170,622.053,170C622.625,170,623.198,170,623.771,170C624.344,170,624.916,170,625.489,170C626.062,170,626.635,170,627.208,170C627.78,170,628.353,170,628.926,170C629.499,170,630.072,170,630.644,170C631.217,170,631.79,170,632.363,170C632.936,170,633.508,170,634.081,170C634.654,170,635.227,170,635.8,170C636.372,170,636.945,170,637.518,170C638.091,170,638.663,170,639.236,170C639.809,170,640.382,170,640.955,170C641.527,170,642.1,170,642.673,170C643.246,170,643.819,170,644.391,170C644.964,170,645.537,170,646.11,170C646.683,170,647.255,170,647.828,170C648.401,170,648.974,170,649.547,170C650.119,170,650.692,170,651.265,170C651.838,170,652.411,170,652.983,170C653.556,170,654.129,170,654.702,170C655.274,170,655.847,170,656.42,170C656.993,170,657.566,170,658.138,170C658.711,170,659.284,170,659.857,170C660.43,170,661.002,170,661.575,170C662.148,170,662.721,170,663.294,170C663.866,170,664.439,170,665.012,170C665.585,170,666.158,170,666.73,170C667.303,170,667.876,170,668.449,170C669.021,170,669.594,170,670.167,170C670.74,170,671.313,170,671.885,170C672.458,170,673.031,170,673.604,170C674.177,170,674.749,170,675.322,170C675.895,170,676.468,170,677.041,170C677.613,170,678.186,170,678.759,170C679.332,170,679.905,170,680.477,170C681.05,170,681.623,170,682.196,170C682.768,170,683.341,170,683.914,170C684.487,170,685.06,170,685.632,170C686.205,170,686.778,170,687.351,170C687.924,170,688.496,170,689.069,170C689.642,170,690.215,170,690.788,170C691.36,170,691.933,170,692.506,170C693.079,170,693.652,170,694.224,170C694.797,170,695.37,170,695.943,170C696.516,170,697.088,170,697.661,170C698.234,170,698.807,170,699.379,170C699.952,170,700.525,170,701.098,170C701.671,170,702.243,170,702.816,170C703.389,170,703.962,170,704.535,170C705.107,170,705.68,170,706.253,170C706.826,170,707.399,170,707.971,170C708.544,170,709.117,170,709.69,170C710.263,170,710.835,170,711.408,170C711.981,170,712.554,170,713.126,170C713.699,170,714.272,170,714.845,170C715.418,170,715.99,170,716.563,170C717.136,170,717.709,170,718.282,170C718.854,170,719.427,170,720,170"></path><circle class="dot" cx="0" cy="170" r="3" fill="#2563eb"></circle><circle class="dot" cx="1.7183770883054894" cy="170" r="3" fill="#2563eb"></circle><circle class="dot" cx="3.436754176610979" cy="170" r="3" fill="#2563eb"></circle><circle class="dot" cx="5.155131264916468" cy="170" r="3" fill="#2563eb"></circle><circle class="dot" cx="6.873508353221958" cy="170" r="3" fill="#2563eb"></circle><circle class="dot" cx="8.591885441527445" cy="170" r="3" fill="#2563eb"></circle><circle class="dot" cx="10.310262529832936" cy="170" r="3" fill="#2563eb"></circle><circle class="dot" cx="12.028639618138424" cy="170" r="3" fill="#2563eb"></circle><circle class="dot" cx="13.747016706443915" cy="170" r="3" fill="#2563eb"></circle><circle class="dot" cx="15.465393794749403" cy="170" r="3" fill="#2563eb"></circle><circle class="dot" cx="17.18377088305489" cy="170" r="3" fill="#2563eb"></circle><circle class="dot" cx="18.90214797136038" cy="170" r="3" fill="#2563eb"></circle><circle class="dot" cx="20.620525059665873" cy="170" r="3" fill="#2563eb"></circle><circle class="dot" cx="22.33890214797136" cy="170" r="3" fill="#2563eb"></circle><circle class="dot" cx="24.057279236276848" cy="170" r="3" fill="#2563eb"></circle><circle class="dot" cx="25.77565632458234" cy="170" r="3" fill="#2563eb"></circle><circle class="dot" cx="27.49403341288783" cy="170" r="3" fill="#2563eb"></circle><circle class="dot" cx="29.212410501193318" cy="170" r="3" fill="#2563eb"></circle><circle class="dot" cx="30.930787589498806" cy="170" r="3" fill="#2563eb"></circle><circle class="dot" cx="32.64916467780429" cy="170" r="3" fill="#2563eb"></circle><circle class="dot" cx="34.36754176610978" cy="170" r="3" fill="#2563eb"></circle><circle class="dot" cx="36.085918854415276" cy="170" r="3" fill="#2563eb"></circle><circle class="dot" cx="37.80429594272076" cy="170" r="3" fill="#2563eb"></circle><circle class="dot" cx="39.52267303102625" cy="170" r="3" fill="#2563eb"></circle><circle class="dot" cx="41.241050119331746" cy="170" r="3" fill="#2563eb"></circle><circle class="dot" cx="42.959427207637226" cy="170" r="3" fill="#2563eb"></circle><circle class="dot" cx="44.67780429594272" cy="170" r="3" fill="#2563eb"></circle><circle class="dot" cx="46.396181384248216" cy="170" r="3" fill="#2563eb"></circle><circle class="dot" cx="48.114558472553696" cy="170" r="3" fill="#2563eb"></circle><circle class="dot" cx="49.832935560859184" cy="170" r="3" fill="#2563eb"></circle><circle class="dot" cx="51.55131264916468" cy="170" r="3" fill="#2563eb"></circle><circle class="dot" cx="53.269689737470166" cy="170" r="3" fill="#2563eb"></circle><circle class="dot" cx="54.98806682577566" cy="170" r="3" fill="#2563eb"></circle><circle class="dot" cx="56.70644391408114" cy="170" r="3" fill="#2563eb"></circle><circle class="dot" cx="58.424821002386636" cy="170" r="3" fill="#2563eb"></circle><circle class="dot" cx="60.143198090692124" cy="170" r="3" fill="#2563eb"></circle><circle class="dot" cx="61.86157517899761" cy="170" r="3" fill="#2563eb"></circle><circle class="dot" cx="63.579952267303106" cy="170" r="3" fill="#2563eb"></circle><circle class="dot" cx="65.29832935560859" cy="170" r="3" fill="#2563eb"></circle><circle class="dot" cx="67.01670644391409" cy="170" r="3" fill="#2563eb"></circle><circle class="dot" cx="68.73508353221956" cy="170" r="3" fill="#2563eb"></circle><circle class="dot" cx="70.45346062052506" cy="170" r="3" fill="#2563eb"></circle><circle class="dot" cx="72.17183770883055" cy="170" r="3" fill="#2563eb"></circle><circle class="dot" cx="73.89021479713604" cy="170" r="3" fill="#2563eb"></circle><circle class="dot" cx="75.60859188544153" cy="170" r="3" fill="#2563eb"></circle><circle class="dot" cx="77.32696897374701" cy="170" r="3" fill="#2563eb"></circle><circle class="dot" cx="79.0453460620525" cy="170" r="3" fill="#2563eb"></circle><circle class="dot" cx="80.76372315035799" cy="170" r="3" fill="#2563eb"></circle><circle class="dot" cx="82.48210023866349" cy="170" r="3" fill="#2563eb"></circle><circle class="dot" cx="84.20047732696898" cy="170" r="3" fill="#2563eb"></circle><circle class="dot" cx="85.91885441527445" cy="170" r="3" fill="#2563eb"></circle><circle class="dot" cx="87.63723150357995" cy="170" r="3" fill="#2563eb"></circle><circle class="dot" cx="89.35560859188544" cy="170" r="3" fill="#2563eb"></circle><circle class="dot" cx="91.07398568019093" cy="170" r="3" fill="#2563eb"></circle><circle class="dot" cx="92.79236276849643" cy="170" r="3" fill="#2563eb"></circle><circle class="dot" cx="94.51073985680192" cy="170" r="3" fill="#2563eb"></circle><circle class="dot" cx="96.22911694510739" cy="170" r="3" fill="#2563eb"></circle><circle class="dot" cx="97.94749403341288" cy="170" r="3" fill="#2563eb"></circle><circle class="dot" cx="99.66587112171837" cy="170" r="3" fill="#2563eb"></circle><circle class="dot" cx="101.38424821002387" cy="170" r="3" fill="#2563eb"></circle><circle class="dot" cx="103.10262529832936" cy="170" r="3" fill="#2563eb"></circle><circle class="dot" cx="104.82100238663485" cy="170" r="3" fill="#2563eb"></circle><circle class="dot" cx="106.53937947494033" cy="170" r="3" fill="#2563eb"></circle><circle class="dot" cx="108.25775656324583" cy="170" r="3" fill="#2563eb"></circle><circle class="dot" cx="109.97613365155132" cy="170" r="3" fill="#2563eb"></circle><circle class="dot" cx="111.69451073985681" cy="170" r="3" fill="#2563eb"></circle><circle class="dot" cx="113.41288782816228" cy="170" r="3" fill="#2563eb"></circle><circle class="dot" cx="115.13126491646777" cy="170" r="3" fill="#2563eb"></circle><circle class="dot" cx="116.84964200477327" cy="170" r="3" fill="#2563eb"></circle><circle class="dot" cx="118.56801909307876" cy="170" r="3" fill="#2563eb"></circle><circle class="dot" cx="120.28639618138425" cy="170" r="3" fill="#2563eb"></circle><circle class="dot" cx="122.00477326968974" cy="170" r="3" fill="#2563eb"></circle><circle class="dot" cx="123.72315035799522" cy="170" r="3" fill="#2563eb"></circle><circle class="dot" cx="125.44152744630073" cy="170" r="3" fill="#2563eb"></circle><circle class="dot" cx="127.15990453460621" cy="170" r="3" fill="#2563eb"></circle><circle class="dot" cx="128.8782816229117" cy="170" r="3" fill="#2563eb"></circle><circle class="dot" cx="130.59665871121717" cy="170" r="3" fill="#2563eb"></circle><circle class="dot" cx="132.3150357995227" cy="170" r="3" fill="#2563eb"></circle><circle class="dot" cx="134.03341288782818" cy="170" r="3" fill="#2563eb"></circle><circle class="dot" cx="135.75178997613367" cy="170" r="3" fill="#2563eb"></circle><circle class="dot" cx="137.47016706443912" cy="170" r="3" fill="#2563eb"></circle><circle class="dot" cx="139.1885441527446" cy="170" r="3" fill="#2563eb"></circle><circle class="dot" cx="140.90692124105013" cy="170" r="3" fill="#2563eb"></circle><circle class="dot" cx="142.62529832935562" cy="170" r="3" fill="#2563eb"></circle><circle class="dot" cx="144.3436754176611" cy="170" r="3" fill="#2563eb"></circle><circle class="dot" cx="146.0620525059666" cy="170" r="3" fill="#2563eb"></circle><circle class="dot" cx="147.78042959427208" cy="170" r="3" fill="#2563eb"></circle><circle class="dot" cx="149.49880668257757" cy="170" r="3" fill="#2563eb"></circle><circle class="dot" cx="151.21718377088305" cy="170" r="3" fill="#2563eb"></circle><circle class="dot" cx="152.93556085918854" cy="170" r="3" fill="#2563eb"></circle><circle class="dot" cx="154.65393794749403" cy="170" r="3" fill="#2563eb"></circle><circle class="dot" cx="156.37231503579955" cy="170" r="3" fill="#2563eb"></circle><circle class="dot" cx="158.090692124105" cy="170" r="3" fill="#2563eb"></circle><circle class="dot" cx="159.8090692124105" cy="170" r="3" fill="#2563eb"></circle><circle class="dot" cx="161.52744630071598" cy="170" r="3" fill="#2563eb"></circle><circle class="dot" cx="163.24582338902147" cy="170" r="3" fill="#2563eb"></circle><circle class="dot" cx="164.96420047732698" cy="170" r="3" fill="#2563eb"></circle><circle class="dot" cx="166.68257756563247" cy="170" r="3" fill="#2563eb"></circle><circle class="dot" cx="168.40095465393796" cy="170" r="3" fill="#2563eb"></circle><circle class="dot" cx="170.11933174224342" cy="170" r="3" fill="#2563eb"></circle><circle class="dot" cx="171.8377088305489" cy="170" r="3" fill="#2563eb"></circle><circle class="dot" cx="173.55608591885442" cy="170" r="3" fill="#2563eb"></circle><circle class="dot" cx="175.2744630071599" cy="170" r="3" fill="#2563eb"></circle><circle class="dot" cx="176.9928400954654" cy="170" r="3" fill="#2563eb"></circle><circle class="dot" cx="178.71121718377088" cy="170" r="3" fill="#2563eb"></circle><circle class="dot" cx="180.42959427207637" cy="170" r="3" fill="#2563eb"></circle><circle class="dot" cx="182.14797136038186" cy="170" r="3" fill="#2563eb"></circle><circle class="dot" cx="183.86634844868732" cy="170" r="3" fill="#2563eb"></circle><circle class="dot" cx="185.58472553699286" cy="170" r="3" fill="#2563eb"></circle><circle class="dot" cx="187.30310262529835" cy="170" r="3" fill="#2563eb"></circle><circle class="dot" cx="189.02147971360384" cy="170" r="3" fill="#2563eb"></circle><circle class="dot" cx="190.7398568019093" cy="170" r="3" fill="#2563eb"></circle><circle class="dot" cx="192.45823389021479" cy="170" r="3" fill="#2563eb"></circle><circle class="dot" cx="194.17661097852027" cy="170" r="3" fill="#2563eb"></circle><circle class="dot" cx="195.89498806682576" cy="170" r="3" fill="#2563eb"></circle><circle class="dot" cx="197.61336515513125" cy="170" r="3" fill="#2563eb"></circle><circle class="dot" cx="199.33174224343674" cy="170" r="3" fill="#2563eb"></circle><circle class="dot" cx="201.05011933174225" cy="170" r="3" fill="#2563eb"></circle><circle class="dot" cx="202.76849642004774" cy="170" r="3" fill="#2563eb"></circle><circle class="dot" cx="204.48687350835323" cy="170" r="3" fill="#2563eb"></circle><circle class="dot" cx="206.20525059665871" cy="170" r="3" fill="#2563eb"></circle><circle class="dot" cx="207.9236276849642" cy="170" r="3" fill="#2563eb"></circle><circle class="dot" cx="209.6420047732697" cy="170" r="3" fill="#2563eb"></circle><circle class="dot" cx="211.36038186157518" cy="170" r="3" fill="#2563eb"></circle><circle class="dot" cx="213.07875894988067" cy="170" r="3" fill="#2563eb"></circle><circle class="dot" cx="214.79713603818615" cy="170" r="3" fill="#2563eb"></circle><circle class="dot" cx="216.51551312649167" cy="170" r="3" fill="#2563eb"></circle><circle class="dot" cx="218.23389021479716" cy="170" r="3" fill="#2563eb"></circle><circle class="dot" cx="219.95226730310264" cy="170" r="3" fill="#2563eb"></circle><circle class="dot" cx="221.67064439140813" cy="170" r="3" fill="#2563eb"></circle><circle class="dot" cx="223.38902147971362" cy="170" r="3" fill="#2563eb"></circle><circle class="dot" cx="225.10739856801908" cy="170" r="3" fill="#2563eb"></circle><circle class="dot" cx="226.82577565632457" cy="170" r="3" fill="#2563eb"></circle><circle class="dot" cx="228.54415274463005" cy="170" r="3" fill="#2563eb"></circle><circle class="dot" cx="230.26252983293554" cy="170" r="3" fill="#2563eb"></circle><circle class="dot" cx="231.98090692124103" cy="170" r="3" fill="#2563eb"></circle><circle class="dot" cx="233.69928400954655" cy="170" r="3" fill="#2563eb"></circle><circle class="dot" cx="235.41766109785203" cy="170" r="3" fill="#2563eb"></circle><circle class="dot" cx="237.13603818615752" cy="170" r="3" fill="#2563eb"></circle><circle class="dot" cx="238.854415274463" cy="170" r="3" fill="#2563eb"></circle><circle class="dot" cx="240.5727923627685" cy="170" r="3" fill="#2563eb"></circle><circle class="dot" cx="242.29116945107398" cy="170" r="3" fill="#2563eb"></circle><circle class="dot" cx="244.00954653937947" cy="170" r="3" fill="#2563eb"></circle><circle class="dot" cx="245.72792362768496" cy="170" r="3" fill="#2563eb"></circle><circle class="dot" cx="247.44630071599045" cy="170" r="3" fill="#2563eb"></circle><circle class="dot" cx="249.16467780429596" cy="170" r="3" fill="#2563eb"></circle><circle class="dot" cx="250.88305489260145" cy="170" r="3" fill="#2563eb"></circle><circle class="dot" cx="252.60143198090694" cy="170" r="3" fill="#2563eb"></circle><circle class="dot" cx="254.31980906921243" cy="170" r="3" fill="#2563eb"></circle><circle class="dot" cx="256.0381861575179" cy="170" r="3" fill="#2563eb"></circle><circle class="dot" cx="257.7565632458234" cy="170" r="3" fill="#2563eb"></circle><circle class="dot" cx="259.47494033412886" cy="170" r="3" fill="#2563eb"></circle><circle class="dot" cx="261.19331742243435" cy="170" r="3" fill="#2563eb"></circle><circle class="dot" cx="262.91169451073984" cy="170" r="3" fill="#2563eb"></circle><circle class="dot" cx="264.6300715990454" cy="170" r="3" fill="#2563eb"></circle><circle class="dot" cx="266.34844868735087" cy="170" r="3" fill="#2563eb"></circle><circle class="dot" cx="268.06682577565635" cy="170" r="3" fill="#2563eb"></circle><circle class="dot" cx="269.78520286396184" cy="170" r="3" fill="#2563eb"></circle><circle class="dot" cx="271.50357995226733" cy="170" r="3" fill="#2563eb"></circle><circle class="dot" cx="273.22195704057276" cy="170" r="3" fill="#2563eb"></circle><circle class="dot" cx="274.94033412887825" cy="170" r="3" fill="#2563eb"></circle><circle class="dot" cx="276.65871121718374" cy="170" r="3" fill="#2563eb"></circle><circle class="dot" cx="278.3770883054892" cy="170" r="3" fill="#2563eb"></circle><circle class="dot" cx="280.09546539379477" cy="170" r="3" fill="#2563eb"></circle><circle class="dot" cx="281.81384248210026" cy="170" r="3" fill="#2563eb"></circle><circle class="dot" cx="283.53221957040574" cy="170" r="3" fill="#2563eb"></circle><circle class="dot" cx="285.25059665871123" cy="170" r="3" fill="#2563eb"></circle><circle class="dot" cx="286.9689737470167" cy="170" r="3" fill="#2563eb"></circle><circle class="dot" cx="288.6873508353222" cy="170" r="3" fill="#2563eb"></circle><circle class="dot" cx="290.4057279236277" cy="170" r="3" fill="#2563eb"></circle><circle class="dot" cx="292.1241050119332" cy="170" r="3" fill="#2563eb"></circle><circle class="dot" cx="293.84248210023867" cy="170" r="3" fill="#2563eb"></circle><circle class="dot" cx="295.56085918854416" cy="170" r="3" fill="#2563eb"></circle><circle class="dot" cx="297.27923627684964" cy="170" r="3" fill="#2563eb"></circle><circle class="dot" cx="298.99761336515513" cy="170" r="3" fill="#2563eb"></circle><circle class="dot" cx="300.7159904534606" cy="170" r="3" fill="#2563eb"></circle><circle class="dot" cx="302.4343675417661" cy="170" r="3" fill="#2563eb"></circle><circle class="dot" cx="304.1527446300716" cy="170" r="3" fill="#2563eb"></circle><circle class="dot" cx="305.8711217183771" cy="170" r="3" fill="#2563eb"></circle><circle class="dot" cx="307.58949880668257" cy="170" r="3" fill="#2563eb"></circle><circle class="dot" cx="309.30787589498806" cy="170" r="3" fill="#2563eb"></circle><circle class="dot" cx="311.02625298329355" cy="170" r="3" fill="#2563eb"></circle><circle class="dot" cx="312.7446300715991" cy="170" r="3" fill="#2563eb"></circle><circle class="dot" cx="314.4630071599045" cy="170" r="3" fill="#2563eb"></circle><circle class="dot" cx="316.18138424821" cy="170" r="3" fill="#2563eb"></circle><circle class="dot" cx="317.8997613365155" cy="170" r="3" fill="#2563eb"></circle><circle class="dot" cx="319.618138424821" cy="170" r="3" fill="#2563eb"></circle><circle class="dot" cx="321.33651551312647" cy="170" r="3" fill="#2563eb"></circle><circle class="dot" cx="323.05489260143196" cy="170" r="3" fill="#2563eb"></circle><circle class="dot" cx="324.77326968973745" cy="170" r="3" fill="#2563eb"></circle><circle class="dot" cx="326.49164677804293" cy="170" r="3" fill="#2563eb"></circle><circle class="dot" cx="328.2100238663485" cy="170" r="3" fill="#2563eb"></circle><circle class="dot" cx="329.92840095465397" cy="170" r="3" fill="#2563eb"></circle><circle class="dot" cx="331.64677804295945" cy="170" r="3" fill="#2563eb"></circle><circle class="dot" cx="333.36515513126494" cy="170" r="3" fill="#2563eb"></circle><circle class="dot" cx="335.08353221957043" cy="170" r="3" fill="#2563eb"></circle><circle class="dot" cx="336.8019093078759" cy="170" r="3" fill="#2563eb"></circle><circle class="dot" cx="338.5202863961814" cy="170" r="3" fill="#2563eb"></circle><circle class="dot" cx="340.23866348448684" cy="170" r="3" fill="#2563eb"></circle><circle class="dot" cx="341.9570405727923" cy="170" r="3" fill="#2563eb"></circle><circle class="dot" cx="343.6754176610978" cy="170" r="3" fill="#2563eb"></circle><circle class="dot" cx="345.39379474940336" cy="170" r="3" fill="#2563eb"></circle><circle class="dot" cx="347.11217183770884" cy="170" r="3" fill="#2563eb"></circle><circle class="dot" cx="348.83054892601433" cy="170" r="3" fill="#2563eb"></circle><circle class="dot" cx="350.5489260143198" cy="170" r="3" fill="#2563eb"></circle><circle class="dot" cx="352.2673031026253" cy="170" r="3" fill="#2563eb"></circle><circle class="dot" cx="353.9856801909308" cy="170" r="3" fill="#2563eb"></circle><circle class="dot" cx="355.7040572792363" cy="170" r="3" fill="#2563eb"></circle><circle class="dot" cx="357.42243436754177" cy="170" r="3" fill="#2563eb"></circle><circle class="dot" cx="359.14081145584726" cy="170" r="3" fill="#2563eb"></circle><circle class="dot" cx="360.85918854415274" cy="170" r="3" fill="#2563eb"></circle><circle class="dot" cx="362.57756563245823" cy="170" r="3" fill="#2563eb"></circle><circle class="dot" cx="364.2959427207637" cy="170" r="3" fill="#2563eb"></circle><circle class="dot" cx="366.0143198090692" cy="170" r="3" fill="#2563eb"></circle><circle class="dot" cx="367.73269689737464" cy="170" r="3" fill="#2563eb"></circle><circle class="dot" cx="369.4510739856802" cy="170" r="3" fill="#2563eb"></circle><circle class="dot" cx="371.1694510739857" cy="170" r="3" fill="#2563eb"></circle><circle class="dot" cx="372.88782816229116" cy="170" r="3" fill="#2563eb"></circle><circle class="dot" cx="374.6062052505967" cy="170" r="3" fill="#2563eb"></circle><circle class="dot" cx="376.32458233890213" cy="170" r="3" fill="#2563eb"></circle><circle class="dot" cx="378.0429594272077" cy="170" r="3" fill="#2563eb"></circle><circle class="dot" cx="379.7613365155131" cy="170" r="3" fill="#2563eb"></circle><circle class="dot" cx="381.4797136038186" cy="170" r="3" fill="#2563eb"></circle><circle class="dot" cx="383.1980906921241" cy="170" r="3" fill="#2563eb"></circle><circle class="dot" cx="384.91646778042957" cy="170" r="3" fill="#2563eb"></circle><circle class="dot" cx="386.6348448687351" cy="170" r="3" fill="#2563eb"></circle><circle class="dot" cx="388.35322195704055" cy="170" r="3" fill="#2563eb"></circle><circle class="dot" cx="390.0715990453461" cy="170" r="3" fill="#2563eb"></circle><circle class="dot" cx="391.7899761336515" cy="170" r="3" fill="#2563eb"></circle><circle class="dot" cx="393.50835322195707" cy="170" r="3" fill="#2563eb"></circle><circle class="dot" cx="395.2267303102625" cy="170" r="3" fill="#2563eb"></circle><circle class="dot" cx="396.94510739856804" cy="170" r="3" fill="#2563eb"></circle><circle class="dot" cx="398.6634844868735" cy="170" r="3" fill="#2563eb"></circle><circle class="dot" cx="400.381861575179" cy="170" r="3" fill="#2563eb"></circle><circle class="dot" cx="402.1002386634845" cy="170" r="3" fill="#2563eb"></circle><circle class="dot" cx="403.81861575179" cy="170" r="3" fill="#2563eb"></circle><circle class="dot" cx="405.5369928400955" cy="170" r="3" fill="#2563eb"></circle><circle class="dot" cx="407.2553699284009" cy="170" r="3" fill="#2563eb"></circle><circle class="dot" cx="408.97374701670645" cy="170" r="3" fill="#2563eb"></circle><circle class="dot" cx="410.6921241050119" cy="170" r="3" fill="#2563eb"></circle><circle class="dot" cx="412.41050119331743" cy="170" r="3" fill="#2563eb"></circle><circle class="dot" cx="414.12887828162286" cy="170" r="3" fill="#2563eb"></circle><circle class="dot" cx="415.8472553699284" cy="170" r="3" fill="#2563eb"></circle><circle class="dot" cx="417.56563245823395" cy="170" r="3" fill="#2563eb"></circle><circle class="dot" cx="419.2840095465394" cy="170" r="3" fill="#2563eb"></circle><circle class="dot" cx="421.0023866348449" cy="170" r="3" fill="#2563eb"></circle><circle class="dot" cx="422.72076372315036" cy="170" r="3" fill="#2563eb"></circle><circle class="dot" cx="424.43914081145584" cy="170" r="3" fill="#2563eb"></circle><circle class="dot" cx="426.15751789976133" cy="170" r="3" fill="#2563eb"></circle><circle class="dot" cx="427.8758949880668" cy="170" r="3" fill="#2563eb"></circle><circle class="dot" cx="429.5942720763723" cy="170" r="3" fill="#2563eb"></circle><circle class="dot" cx="431.3126491646778" cy="170" r="3" fill="#2563eb"></circle><circle class="dot" cx="433.03102625298334" cy="170" r="3" fill="#2563eb"></circle><circle class="dot" cx="434.74940334128877" cy="170" r="3" fill="#2563eb"></circle><circle class="dot" cx="436.4677804295943" cy="170" r="3" fill="#2563eb"></circle><circle class="dot" cx="438.18615751789974" cy="170" r="3" fill="#2563eb"></circle><circle class="dot" cx="439.9045346062053" cy="170" r="3" fill="#2563eb"></circle><circle class="dot" cx="441.6229116945107" cy="170" r="3" fill="#2563eb"></circle><circle class="dot" cx="443.34128878281626" cy="170" r="3" fill="#2563eb"></circle><circle class="dot" cx="445.0596658711217" cy="170" r="3" fill="#2563eb"></circle><circle class="dot" cx="446.77804295942724" cy="170" r="3" fill="#2563eb"></circle><circle class="dot" cx="448.4964200477327" cy="170" r="3" fill="#2563eb"></circle><circle class="dot" cx="450.21479713603816" cy="170" r="3" fill="#2563eb"></circle><circle class="dot" cx="451.9331742243437" cy="170" r="3" fill="#2563eb"></circle><circle class="dot" cx="453.65155131264913" cy="170" r="3" fill="#2563eb"></circle><circle class="dot" cx="455.3699284009547" cy="170" r="3" fill="#2563eb"></circle><circle class="dot" cx="457.0883054892601" cy="170" r="3" fill="#2563eb"></circle><circle class="dot" cx="458.80668257756565" cy="170" r="3" fill="#2563eb"></circle><circle class="dot" cx="460.5250596658711" cy="170" r="3" fill="#2563eb"></circle><circle class="dot" cx="462.2434367541766" cy="170" r="3" fill="#2563eb"></circle><circle class="dot" cx="463.96181384248206" cy="170" r="3" fill="#2563eb"></circle><circle class="dot" cx="465.6801909307876" cy="170" r="3" fill="#2563eb"></circle><circle class="dot" cx="467.3985680190931" cy="170" r="3" fill="#2563eb"></circle><circle class="dot" cx="469.1169451073986" cy="170" r="3" fill="#2563eb"></circle><circle class="dot" cx="470.83532219570407" cy="170" r="3" fill="#2563eb"></circle><circle class="dot" cx="472.55369928400955" cy="170" r="3" fill="#2563eb"></circle><circle class="dot" cx="474.27207637231504" cy="170" r="3" fill="#2563eb"></circle><circle class="dot" cx="475.9904534606205" cy="170" r="3" fill="#2563eb"></circle><circle class="dot" cx="477.708830548926" cy="170" r="3" fill="#2563eb"></circle><circle class="dot" cx="479.42720763723145" cy="170" r="3" fill="#2563eb"></circle><circle class="dot" cx="481.145584725537" cy="170" r="3" fill="#2563eb"></circle><circle class="dot" cx="482.86396181384254" cy="170" r="3" fill="#2563eb"></circle><circle class="dot" cx="484.58233890214797" cy="170" r="3" fill="#2563eb"></circle><circle class="dot" cx="486.3007159904535" cy="170" r="3" fill="#2563eb"></circle><circle class="dot" cx="488.01909307875894" cy="170" r="3" fill="#2563eb"></circle><circle class="dot" cx="489.73747016706443" cy="170" r="3" fill="#2563eb"></circle><circle class="dot" cx="491.4558472553699" cy="170" r="3" fill="#2563eb"></circle><circle class="dot" cx="493.1742243436754" cy="170" r="3" fill="#2563eb"></circle><circle class="dot" cx="494.8926014319809" cy="170" r="3" fill="#2563eb"></circle><circle class="dot" cx="496.6109785202864" cy="170" r="3" fill="#2563eb"></circle><circle class="dot" cx="498.3293556085919" cy="170" r="3" fill="#2563eb"></circle><circle class="dot" cx="500.04773269689736" cy="170" r="3" fill="#2563eb"></circle><circle class="dot" cx="501.7661097852029" cy="170" r="3" fill="#2563eb"></circle><circle class="dot" cx="503.48448687350833" cy="170" r="3" fill="#2563eb"></circle><circle class="dot" cx="505.2028639618139" cy="170" r="3" fill="#2563eb"></circle><circle class="dot" cx="506.9212410501193" cy="170" r="3" fill="#2563eb"></circle><circle class="dot" cx="508.63961813842485" cy="170" r="3" fill="#2563eb"></circle><circle class="dot" cx="510.3579952267303" cy="170" r="3" fill="#2563eb"></circle><circle class="dot" cx="512.0763723150358" cy="170" r="3" fill="#2563eb"></circle><circle class="dot" cx="513.7947494033414" cy="170" r="3" fill="#2563eb"></circle><circle class="dot" cx="515.5131264916467" cy="170" r="3" fill="#2563eb"></circle><circle class="dot" cx="517.2315035799523" cy="170" r="3" fill="#2563eb"></circle><circle class="dot" cx="518.9498806682577" cy="170" r="3" fill="#2563eb"></circle><circle class="dot" cx="520.6682577565632" cy="170" r="3" fill="#2563eb"></circle><circle class="dot" cx="522.3866348448687" cy="170" r="3" fill="#2563eb"></circle><circle class="dot" cx="524.1050119331742" cy="170" r="3" fill="#2563eb"></circle><circle class="dot" cx="525.8233890214797" cy="170" r="3" fill="#2563eb"></circle><circle class="dot" cx="527.5417661097852" cy="170" r="3" fill="#2563eb"></circle><circle class="dot" cx="529.2601431980908" cy="170" r="3" fill="#2563eb"></circle><circle class="dot" cx="530.9785202863961" cy="170" r="3" fill="#2563eb"></circle><circle class="dot" cx="532.6968973747017" cy="170" r="3" fill="#2563eb"></circle><circle class="dot" cx="534.4152744630071" cy="170" r="3" fill="#2563eb"></circle><circle class="dot" cx="536.1336515513127" cy="170" r="3" fill="#2563eb"></circle><circle class="dot" cx="537.8520286396181" cy="170" r="3" fill="#2563eb"></circle><circle class="dot" cx="539.5704057279237" cy="170" r="3" fill="#2563eb"></circle><circle class="dot" cx="541.2887828162291" cy="170" r="3" fill="#2563eb"></circle><circle class="dot" cx="543.0071599045347" cy="170" r="3" fill="#2563eb"></circle><circle class="dot" cx="544.7255369928401" cy="170" r="3" fill="#2563eb"></circle><circle class="dot" cx="546.4439140811455" cy="170" r="3" fill="#2563eb"></circle><circle class="dot" cx="548.1622911694511" cy="170" r="3" fill="#2563eb"></circle><circle class="dot" cx="549.8806682577565" cy="170" r="3" fill="#2563eb"></circle><circle class="dot" cx="551.5990453460621" cy="170" r="3" fill="#2563eb"></circle><circle class="dot" cx="553.3174224343675" cy="170" r="3" fill="#2563eb"></circle><circle class="dot" cx="555.0357995226731" cy="170" r="3" fill="#2563eb"></circle><circle class="dot" cx="556.7541766109784" cy="170" r="3" fill="#2563eb"></circle><circle class="dot" cx="558.472553699284" cy="170" r="3" fill="#2563eb"></circle><circle class="dot" cx="560.1909307875895" cy="170" r="3" fill="#2563eb"></circle><circle class="dot" cx="561.909307875895" cy="170" r="3" fill="#2563eb"></circle><circle class="dot" cx="563.6276849642005" cy="170" r="3" fill="#2563eb"></circle><circle class="dot" cx="565.346062052506" cy="170" r="3" fill="#2563eb"></circle><circle class="dot" cx="567.0644391408115" cy="170" r="3" fill="#2563eb"></circle><circle class="dot" cx="568.782816229117" cy="170" r="3" fill="#2563eb"></circle><circle class="dot" cx="570.5011933174225" cy="170" r="3" fill="#2563eb"></circle><circle class="dot" cx="572.2195704057278" cy="170" r="3" fill="#2563eb"></circle><circle class="dot" cx="573.9379474940334" cy="170" r="3" fill="#2563eb"></circle><circle class="dot" cx="575.6563245823388" cy="170" r="3" fill="#2563eb"></circle><circle class="dot" cx="577.3747016706444" cy="170" r="3" fill="#2563eb"></circle><circle class="dot" cx="579.0930787589499" cy="170" r="3" fill="#2563eb"></circle><circle class="dot" cx="580.8114558472554" cy="170" r="3" fill="#2563eb"></circle><circle class="dot" cx="582.5298329355609" cy="170" r="3" fill="#2563eb"></circle><circle class="dot" cx="584.2482100238664" cy="170" r="3" fill="#2563eb"></circle><circle class="dot" cx="585.9665871121719" cy="170" r="3" fill="#2563eb"></circle><circle class="dot" cx="587.6849642004773" cy="170" r="3" fill="#2563eb"></circle><circle class="dot" cx="589.4033412887828" cy="170" r="3" fill="#2563eb"></circle><circle class="dot" cx="591.1217183770883" cy="170" r="3" fill="#2563eb"></circle><circle class="dot" cx="592.8400954653938" cy="170" r="3" fill="#2563eb"></circle><circle class="dot" cx="594.5584725536993" cy="170" r="3" fill="#2563eb"></circle><circle class="dot" cx="596.2768496420048" cy="170" r="3" fill="#2563eb"></circle><circle class="dot" cx="597.9952267303103" cy="170" r="3" fill="#2563eb"></circle><circle class="dot" cx="599.7136038186158" cy="170" r="3" fill="#2563eb"></circle><circle class="dot" cx="601.4319809069212" cy="170" r="3" fill="#2563eb"></circle><circle class="dot" cx="603.1503579952267" cy="170" r="3" fill="#2563eb"></circle><circle class="dot" cx="604.8687350835322" cy="170" r="3" fill="#2563eb"></circle><circle class="dot" cx="606.5871121718377" cy="170" r="3" fill="#2563eb"></circle><circle class="dot" cx="608.3054892601432" cy="170" r="3" fill="#2563eb"></circle><circle class="dot" cx="610.0238663484487" cy="170" r="3" fill="#2563eb"></circle><circle class="dot" cx="611.7422434367542" cy="170" r="3" fill="#2563eb"></circle><circle class="dot" cx="613.4606205250597" cy="170" r="3" fill="#2563eb"></circle><circle class="dot" cx="615.1789976133651" cy="170" r="3" fill="#2563eb"></circle><circle class="dot" cx="616.8973747016706" cy="170" r="3" fill="#2563eb"></circle><circle class="dot" cx="618.6157517899761" cy="170" r="3" fill="#2563eb"></circle><circle class="dot" cx="620.3341288782816" cy="170" r="3" fill="#2563eb"></circle><circle class="dot" cx="622.0525059665871" cy="170" r="3" fill="#2563eb"></circle><circle class="dot" cx="623.7708830548926" cy="170" r="3" fill="#2563eb"></circle><circle class="dot" cx="625.4892601431982" cy="170" r="3" fill="#2563eb"></circle><circle class="dot" cx="627.2076372315036" cy="170" r="3" fill="#2563eb"></circle><circle class="dot" cx="628.926014319809" cy="170" r="3" fill="#2563eb"></circle><circle class="dot" cx="630.6443914081145" cy="170" r="3" fill="#2563eb"></circle><circle class="dot" cx="632.36276849642" cy="170" r="3" fill="#2563eb"></circle><circle class="dot" cx="634.0811455847255" cy="170" r="3" fill="#2563eb"></circle><circle class="dot" cx="635.799522673031" cy="170" r="3" fill="#2563eb"></circle><circle class="dot" cx="637.5178997613365" cy="170" r="3" fill="#2563eb"></circle><circle class="dot" cx="639.236276849642" cy="170" r="3" fill="#2563eb"></circle><circle class="dot" cx="640.9546539379476" cy="170" r="3" fill="#2563eb"></circle><circle class="dot" cx="642.6730310262529" cy="170" r="3" fill="#2563eb"></circle><circle class="dot" cx="644.3914081145585" cy="170" r="3" fill="#2563eb"></circle><circle class="dot" cx="646.1097852028639" cy="170" r="3" fill="#2563eb"></circle><circle class="dot" cx="647.8281622911695" cy="170" r="3" fill="#2563eb"></circle><circle class="dot" cx="649.5465393794749" cy="170" r="3" fill="#2563eb"></circle><circle class="dot" cx="651.2649164677805" cy="170" r="3" fill="#2563eb"></circle><circle class="dot" cx="652.9832935560859" cy="170" r="3" fill="#2563eb"></circle><circle class="dot" cx="654.7016706443914" cy="170" r="3" fill="#2563eb"></circle><circle class="dot" cx="656.420047732697" cy="170" r="3" fill="#2563eb"></circle><circle class="dot" cx="658.1384248210023" cy="170" r="3" fill="#2563eb"></circle><circle class="dot" cx="659.8568019093079" cy="170" r="3" fill="#2563eb"></circle><circle class="dot" cx="661.5751789976133" cy="170" r="3" fill="#2563eb"></circle><circle class="dot" cx="663.2935560859189" cy="170" r="3" fill="#2563eb"></circle><circle class="dot" cx="665.0119331742243" cy="170" r="3" fill="#2563eb"></circle><circle class="dot" cx="666.7303102625299" cy="170" r="3" fill="#2563eb"></circle><circle class="dot" cx="668.4486873508353" cy="170" r="3" fill="#2563eb"></circle><circle class="dot" cx="670.1670644391409" cy="170" r="3" fill="#2563eb"></circle><circle class="dot" cx="671.8854415274462" cy="170" r="3" fill="#2563eb"></circle><circle class="dot" cx="673.6038186157518" cy="170" r="3" fill="#2563eb"></circle><circle class="dot" cx="675.3221957040573" cy="170" r="3" fill="#2563eb"></circle><circle class="dot" cx="677.0405727923628" cy="170" r="3" fill="#2563eb"></circle><circle class="dot" cx="678.7589498806683" cy="170" r="3" fill="#2563eb"></circle><circle class="dot" cx="680.4773269689737" cy="170" r="3" fill="#2563eb"></circle><circle class="dot" cx="682.1957040572793" cy="170" r="3" fill="#2563eb"></circle><circle class="dot" cx="683.9140811455846" cy="170" r="3" fill="#2563eb"></circle><circle class="dot" cx="685.6324582338902" cy="170" r="3" fill="#2563eb"></circle><circle class="dot" cx="687.3508353221956" cy="170" r="3" fill="#2563eb"></circle><circle class="dot" cx="689.0692124105012" cy="170" r="3" fill="#2563eb"></circle><circle class="dot" cx="690.7875894988067" cy="170" r="3" fill="#2563eb"></circle><circle class="dot" cx="692.5059665871122" cy="170" r="3" fill="#2563eb"></circle><circle class="dot" cx="694.2243436754177" cy="170" r="3" fill="#2563eb"></circle><circle class="dot" cx="695.9427207637232" cy="170" r="3" fill="#2563eb"></circle><circle class="dot" cx="697.6610978520287" cy="170" r="3" fill="#2563eb"></circle><circle class="dot" cx="699.3794749403341" cy="170" r="3" fill="#2563eb"></circle><circle class="dot" cx="701.0978520286396" cy="170" r="3" fill="#2563eb"></circle><circle class="dot" cx="702.8162291169451" cy="170" r="3" fill="#2563eb"></circle><circle class="dot" cx="704.5346062052506" cy="170" r="3" fill="#2563eb"></circle><circle class="dot" cx="706.2529832935561" cy="170" r="3" fill="#2563eb"></circle><circle class="dot" cx="707.9713603818616" cy="170" r="3" fill="#2563eb"></circle><circle class="dot" cx="709.6897374701671" cy="170" r="3" fill="#2563eb"></circle><circle class="dot" cx="711.4081145584726" cy="170" r="3" fill="#2563eb"></circle><circle class="dot" cx="713.126491646778" cy="170" r="3" fill="#2563eb"></circle><circle class="dot" cx="714.8448687350835" cy="170" r="3" fill="#2563eb"></circle><circle class="dot" cx="716.563245823389" cy="170" r="3" fill="#2563eb"></circle><circle class="dot" cx="718.2816229116945" cy="170" r="3" fill="#2563eb"></circle><circle class="dot" cx="720" cy="170" r="3" fill="#2563eb"></circle><g class="grid" transform="translate(0,340)" fill="none" font-size="10" font-family="sans-serif" text-anchor="middle" style="stroke-dasharray: 3,3; opacity: 0.3;"><path class="domain" stroke="currentColor" d="M0.5,-340V0.5H720.5V-340"></path><g class="tick" opacity="1" transform="translate(0.5,0)"><line stroke="currentColor" y2="-340"></line><text fill="currentColor" y="3" dy="0.71em"></text></g><g class="tick" opacity="1" transform="translate(41.741050119331746,0)"><line stroke="currentColor" y2="-340"></line><text fill="currentColor" y="3" dy="0.71em"></text></g><g class="tick" opacity="1" transform="translate(82.98210023866349,0)"><line stroke="currentColor" y2="-340"></line><text fill="currentColor" y="3" dy="0.71em"></text></g><g class="tick" opacity="1" transform="translate(124.22315035799522,0)"><line stroke="currentColor" y2="-340"></line><text fill="currentColor" y="3" dy="0.71em"></text></g><g class="tick" opacity="1" transform="translate(165.46420047732698,0)"><line stroke="currentColor" y2="-340"></line><text fill="currentColor" y="3" dy="0.71em"></text></g><g class="tick" opacity="1" transform="translate(206.70525059665871,0)"><line stroke="currentColor" y2="-340"></line><text fill="currentColor" y="3" dy="0.71em"></text></g><g class="tick" opacity="1" transform="translate(247.94630071599045,0)"><line stroke="currentColor" y2="-340"></line><text fill="currentColor" y="3" dy="0.71em"></text></g><g class="tick" opacity="1" transform="translate(289.1873508353222,0)"><line stroke="currentColor" y2="-340"></line><text fill="currentColor" y="3" dy="0.71em"></text></g><g class="tick" opacity="1" transform="translate(330.42840095465397,0)"><line stroke="currentColor" y2="-340"></line><text fill="currentColor" y="3" dy="0.71em"></text></g><g class="tick" opacity="1" transform="translate(371.6694510739857,0)"><line stroke="currentColor" y2="-340"></line><text fill="currentColor" y="3" dy="0.71em"></text></g><g class="tick" opacity="1" transform="translate(412.91050119331743,0)"><line stroke="currentColor" y2="-340"></line><text fill="currentColor" y="3" dy="0.71em"></text></g><g class="tick" opacity="1" transform="translate(454.15155131264913,0)"><line stroke="currentColor" y2="-340"></line><text fill="currentColor" y="3" dy="0.71em"></text></g><g class="tick" opacity="1" transform="translate(495.3926014319809,0)"><line stroke="currentColor" y2="-340"></line><text fill="currentColor" y="3" dy="0.71em"></text></g><g class="tick" opacity="1" transform="translate(536.6336515513127,0)"><line stroke="currentColor" y2="-340"></line><text fill="currentColor" y="3" dy="0.71em"></text></g><g class="tick" opacity="1" transform="translate(577.8747016706444,0)"><line stroke="currentColor" y2="-340"></line><text fill="currentColor" y="3" dy="0.71em"></text></g><g class="tick" opacity="1" transform="translate(619.1157517899761,0)"><line stroke="currentColor" y2="-340"></line><text fill="currentColor" y="3" dy="0.71em"></text></g><g class="tick" opacity="1" transform="translate(660.3568019093079,0)"><line stroke="currentColor" y2="-340"></line><text fill="currentColor" y="3" dy="0.71em"></text></g><g class="tick" opacity="1" transform="translate(701.5978520286396,0)"><line stroke="currentColor" y2="-340"></line><text fill="currentColor" y="3" dy="0.71em"></text></g></g><g class="grid" fill="none" font-size="10" font-family="sans-serif" text-anchor="end" style="stroke-dasharray: 3,3; opacity: 0.3;"><path class="domain" stroke="currentColor" d="M720,340.5H0.5V0.5H720"></path><g class="tick" opacity="1" transform="translate(0,170.5)"><line stroke="currentColor" x2="720"></line><text fill="currentColor" x="-3" dy="0.32em"></text></g></g></g><text x="400" y="10" text-anchor="middle" style="font-size: 16px; font-weight: bold; fill: #333;">OKX USDT Lending Rate - Current Month</text></svg>