<svg width="800" height="400" xmlns="http://www.w3.org/2000/svg"><g transform="translate(50,20)"><g transform="translate(0,340)" fill="none" font-size="10" font-family="sans-serif" text-anchor="middle"><path class="domain" stroke="currentColor" d="M0.5,6V0.5H720.5V6"></path><g class="tick" opacity="1" transform="translate(0.5,0)"><line stroke="currentColor" y2="6"></line><text fill="currentColor" y="9" dy=".15em" style="text-anchor: end;" dx="-.8em" transform="rotate(-45)">10/01</text></g><g class="tick" opacity="1" transform="translate(60.91958041958042,0)"><line stroke="currentColor" y2="6"></line><text fill="currentColor" y="9" dy=".15em" style="text-anchor: end;" dx="-.8em" transform="rotate(-45)">10/02</text></g><g class="tick" opacity="1" transform="translate(121.33916083916084,0)"><line stroke="currentColor" y2="6"></line><text fill="currentColor" y="9" dy=".15em" style="text-anchor: end;" dx="-.8em" transform="rotate(-45)">10/03</text></g><g class="tick" opacity="1" transform="translate(181.75874125874128,0)"><line stroke="currentColor" y2="6"></line><text fill="currentColor" y="9" dy=".15em" style="text-anchor: end;" dx="-.8em" transform="rotate(-45)">10/04</text></g><g class="tick" opacity="1" transform="translate(242.17832167832168,0)"><line stroke="currentColor" y2="6"></line><text fill="currentColor" y="9" dy=".15em" style="text-anchor: end;" dx="-.8em" transform="rotate(-45)">10/05</text></g><g class="tick" opacity="1" transform="translate(302.5979020979021,0)"><line stroke="currentColor" y2="6"></line><text fill="currentColor" y="9" dy=".15em" style="text-anchor: end;" dx="-.8em" transform="rotate(-45)">10/06</text></g><g class="tick" opacity="1" transform="translate(363.01748251748256,0)"><line stroke="currentColor" y2="6"></line><text fill="currentColor" y="9" dy=".15em" style="text-anchor: end;" dx="-.8em" transform="rotate(-45)">10/07</text></g><g class="tick" opacity="1" transform="translate(423.43706293706293,0)"><line stroke="currentColor" y2="6"></line><text fill="currentColor" y="9" dy=".15em" style="text-anchor: end;" dx="-.8em" transform="rotate(-45)">10/08</text></g><g class="tick" opacity="1" transform="translate(483.85664335664336,0)"><line stroke="currentColor" y2="6"></line><text fill="currentColor" y="9" dy=".15em" style="text-anchor: end;" dx="-.8em" transform="rotate(-45)">10/09</text></g><g class="tick" opacity="1" transform="translate(544.2762237762238,0)"><line stroke="currentColor" y2="6"></line><text fill="currentColor" y="9" dy=".15em" style="text-anchor: end;" dx="-.8em" transform="rotate(-45)">10/10</text></g><g class="tick" opacity="1" transform="translate(604.6958041958042,0)"><line stroke="currentColor" y2="6"></line><text fill="currentColor" y="9" dy=".15em" style="text-anchor: end;" dx="-.8em" transform="rotate(-45)">10/11</text></g><g class="tick" opacity="1" transform="translate(665.1153846153846,0)"><line stroke="currentColor" y2="6"></line><text fill="currentColor" y="9" dy=".15em" style="text-anchor: end;" dx="-.8em" transform="rotate(-45)">10/12</text></g></g><g fill="none" font-size="10" font-family="sans-serif" text-anchor="end"><path class="domain" stroke="currentColor" d="M-6,340.5H0.5V0.5H-6"></path><g class="tick" opacity="1" transform="translate(0,340.5)"><line stroke="currentColor" x2="-6"></line><text fill="currentColor" x="-9" dy="0.32em">0.00%</text></g><g class="tick" opacity="1" transform="translate(0,309.59090909090907)"><line stroke="currentColor" x2="-6"></line><text fill="currentColor" x="-9" dy="0.32em">10.00%</text></g><g class="tick" opacity="1" transform="translate(0,278.6818181818182)"><line stroke="currentColor" x2="-6"></line><text fill="currentColor" x="-9" dy="0.32em">20.00%</text></g><g class="tick" opacity="1" transform="translate(0,247.77272727272728)"><line stroke="currentColor" x2="-6"></line><text fill="currentColor" x="-9" dy="0.32em">30.00%</text></g><g class="tick" opacity="1" transform="translate(0,216.86363636363637)"><line stroke="currentColor" x2="-6"></line><text fill="currentColor" x="-9" dy="0.32em">40.00%</text></g><g class="tick" opacity="1" transform="translate(0,185.95454545454544)"><line stroke="currentColor" x2="-6"></line><text fill="currentColor" x="-9" dy="0.32em">50.00%</text></g><g class="tick" opacity="1" transform="translate(0,155.04545454545456)"><line stroke="currentColor" x2="-6"></line><text fill="currentColor" x="-9" dy="0.32em">60.00%</text></g><g class="tick" opacity="1" transform="translate(0,124.13636363636368)"><line stroke="currentColor" x2="-6"></line><text fill="currentColor" x="-9" dy="0.32em">70.00%</text></g><g class="tick" opacity="1" transform="translate(0,93.22727272727272)"><line stroke="currentColor" x2="-6"></line><text fill="currentColor" x="-9" dy="0.32em">80.00%</text></g><g class="tick" opacity="1" transform="translate(0,62.31818181818184)"><line stroke="currentColor" x2="-6"></line><text fill="currentColor" x="-9" dy="0.32em">90.00%</text></g><g class="tick" opacity="1" transform="translate(0,31.40909090909092)"><line stroke="currentColor" x2="-6"></line><text fill="currentColor" x="-9" dy="0.32em">100.00%</text></g><g class="tick" opacity="1" transform="translate(0,0.5)"><line stroke="currentColor" x2="-6"></line><text fill="currentColor" x="-9" dy="0.32em">110.00%</text></g></g><text transform="rotate(-90)" y="-50" x="-170" dy="1em" style="text-anchor: middle; font-size: 12px; fill: #666;">Pre Rate (%)</text><text transform="translate(360, 380)" style="text-anchor: middle; font-size: 12px; fill: #666;">Time (UTC)</text><path fill="none" stroke="#2563eb" stroke-width="2" d="M0,327.636C0.839,327.636,1.678,327.636,2.517,327.636C3.357,327.636,4.196,327.636,5.035,327.636C5.874,327.636,6.713,327.636,7.552,327.636C8.392,327.636,9.231,327.636,10.07,327.636C10.909,327.636,11.748,327.636,12.587,327.636C13.427,327.636,14.266,327.636,15.105,327.636C15.944,327.636,16.783,327.636,17.622,327.636C18.462,327.636,19.301,327.636,20.14,327.636C20.979,327.636,21.818,327.636,22.657,327.636C23.497,327.636,24.336,327.636,25.175,327.636C26.014,327.636,26.853,327.636,27.692,327.636C28.531,327.636,29.371,327.636,30.21,327.636C31.049,327.636,31.888,327.636,32.727,327.636C33.566,327.636,34.406,327.636,35.245,327.636C36.084,327.636,36.923,327.636,37.762,327.636C38.601,327.636,39.441,327.636,40.28,327.636C41.119,327.636,41.958,327.636,42.797,327.636C43.636,327.636,44.476,327.636,45.315,327.636C46.154,327.636,46.993,327.636,47.832,327.636C48.671,327.636,49.51,327.636,50.35,327.636C51.189,327.636,52.028,327.636,52.867,327.636C53.706,327.636,54.545,327.636,55.385,327.636C56.224,327.636,57.063,327.636,57.902,327.636C58.741,327.636,59.58,327.636,60.42,327.636C61.259,327.636,62.098,327.636,62.937,327.636C63.776,327.636,64.615,327.636,65.455,327.636C66.294,327.636,67.133,327.636,67.972,327.636C68.811,327.636,69.65,327.636,70.49,327.636C71.329,327.636,72.168,327.636,73.007,327.636C73.846,327.636,74.685,327.636,75.524,327.636C76.364,327.636,77.203,327.636,78.042,327.636C78.881,327.636,79.72,327.636,80.559,327.636C81.399,327.636,82.238,327.636,83.077,327.636C83.916,327.636,84.755,327.636,85.594,327.636C86.434,327.636,87.273,327.636,88.112,327.636C88.951,327.636,89.79,327.636,90.629,327.636C91.469,327.636,92.308,18.545,93.147,18.545C93.986,18.545,94.825,293.636,95.664,306C96.503,318.364,97.343,324.545,98.182,324.545C99.021,324.545,99.86,324.545,100.699,324.545C101.538,324.545,102.378,324.545,103.217,324.545C104.056,324.545,104.895,324.545,105.734,324.545C106.573,324.545,107.413,324.545,108.252,324.545C109.091,324.545,109.93,324.545,110.769,324.545C111.608,324.545,112.448,324.545,113.287,324.545C114.126,324.545,114.965,324.545,115.804,324.545C116.643,324.545,117.483,324.545,118.322,324.545C119.161,324.545,120,324.545,120.839,324.545C121.678,324.545,122.517,324.545,123.357,324.545C124.196,324.545,125.035,324.545,125.874,324.545C126.713,324.545,127.552,324.545,128.392,324.545C129.231,324.545,130.07,324.545,130.909,324.545C131.748,324.545,132.587,324.545,133.427,324.545C134.266,324.545,135.105,324.545,135.944,324.545C136.783,324.545,137.622,324.545,138.462,324.545C139.301,324.545,140.14,324.545,140.979,324.545C141.818,324.545,142.657,324.545,143.497,324.545C144.336,324.545,145.175,324.545,146.014,324.545C146.853,324.545,147.692,324.545,148.531,324.545C149.371,324.545,150.21,324.545,151.049,324.545C151.888,324.545,152.727,324.545,153.566,324.545C154.406,324.545,155.245,324.545,156.084,324.545C156.923,324.545,157.762,324.545,158.601,324.545C159.441,324.545,160.28,324.545,161.119,324.545C161.958,324.545,162.797,324.545,163.636,324.545C164.476,324.545,165.315,324.545,166.154,324.545C166.993,324.545,167.832,324.545,168.671,324.545C169.51,324.545,170.35,324.545,171.189,324.545C172.028,324.545,172.867,324.545,173.706,324.545C174.545,324.545,175.385,324.545,176.224,324.545C177.063,324.545,177.902,324.545,178.741,324.545C179.58,324.545,180.42,324.545,181.259,324.545C182.098,324.545,182.937,324.545,183.776,324.545C184.615,324.545,185.455,324.545,186.294,324.545C187.133,324.545,187.972,324.545,188.811,324.545C189.65,324.545,190.49,324.545,191.329,324.545C192.168,324.545,193.007,324.545,193.846,324.545C194.685,324.545,195.524,324.545,196.364,324.545C197.203,324.545,198.042,324.545,198.881,324.545C199.72,324.545,200.559,324.545,201.399,324.545C202.238,324.545,203.077,324.545,203.916,324.545C204.755,324.545,205.594,324.545,206.434,324.545C207.273,324.545,208.112,324.545,208.951,324.545C209.79,324.545,210.629,324.545,211.469,324.545C212.308,324.545,213.147,324.545,213.986,324.545C214.825,324.545,215.664,324.545,216.503,324.545C217.343,324.545,218.182,324.545,219.021,324.545C219.86,324.545,220.699,324.545,221.538,324.545C222.378,324.545,223.217,324.545,224.056,324.545C224.895,324.545,225.734,324.545,226.573,324.545C227.413,324.545,228.252,324.545,229.091,324.545C229.93,324.545,230.769,324.545,231.608,324.545C232.448,324.545,233.287,324.545,234.126,324.545C234.965,324.545,235.804,324.545,236.643,324.545C237.483,324.545,238.322,324.545,239.161,324.545C240,324.545,240.839,324.545,241.678,324.545C242.517,324.545,243.357,324.545,244.196,324.545C245.035,324.545,245.874,324.545,246.713,324.545C247.552,324.545,248.392,324.545,249.231,324.545C250.07,324.545,250.909,324.545,251.748,324.545C252.587,324.545,253.427,321.455,254.266,321.455C255.105,321.455,255.944,324.545,256.783,324.545C257.622,324.545,258.462,324.545,259.301,324.545C260.14,324.545,260.979,309.091,261.818,309.091C262.657,309.091,263.497,312.697,264.336,315.273C265.175,317.848,266.014,324.545,266.853,324.545C267.692,324.545,268.531,324.545,269.371,324.545C270.21,324.545,271.049,321.455,271.888,321.455C272.727,321.455,273.566,324.545,274.406,324.545C275.245,324.545,276.084,318.364,276.923,318.364C277.762,318.364,278.601,318.364,279.441,318.364C280.28,318.364,281.119,316.303,281.958,315.273C282.797,314.242,283.636,312.182,284.476,312.182C285.315,312.182,286.154,316.303,286.993,318.364C287.832,320.424,288.671,324.545,289.51,324.545C290.35,324.545,291.189,324.545,292.028,324.545C292.867,324.545,293.706,324.545,294.545,324.545C295.385,324.545,296.224,324.545,297.063,324.545C297.902,324.545,298.741,324.545,299.58,324.545C300.42,324.545,301.259,315.273,302.098,315.273C302.937,315.273,303.776,318.364,304.615,318.364C305.455,318.364,306.294,316.818,307.133,315.273C307.972,313.727,308.811,309.091,309.65,309.091C310.49,309.091,311.329,310.636,312.168,312.182C313.007,313.727,313.846,318.364,314.685,318.364C315.524,318.364,316.364,315.788,317.203,312.182C318.042,308.576,318.881,296.727,319.72,296.727C320.559,296.727,321.399,312.182,322.238,312.182C323.077,312.182,323.916,299.818,324.755,299.818C325.594,299.818,326.434,306,327.273,306C328.112,306,328.951,306,329.79,306C330.629,306,331.469,309.091,332.308,309.091C333.147,309.091,333.986,307.03,334.825,302.909C335.664,298.788,336.503,284.364,337.343,284.364C338.182,284.364,339.021,284.364,339.86,284.364C340.699,284.364,341.538,287.455,342.378,290.545C343.217,293.636,344.056,302.909,344.895,302.909C345.734,302.909,346.573,296.727,347.413,296.727C348.252,296.727,349.091,296.727,349.93,296.727C350.769,296.727,351.608,299.303,352.448,302.909C353.287,306.515,354.126,318.364,354.965,318.364C355.804,318.364,356.643,312.182,357.483,312.182C358.322,312.182,359.161,312.182,360,312.182C360.839,312.182,361.678,321.455,362.517,321.455C363.357,321.455,364.196,318.364,365.035,318.364C365.874,318.364,366.713,324.545,367.552,324.545C368.392,324.545,369.231,324.545,370.07,324.545C370.909,324.545,371.748,324.545,372.587,324.545C373.427,324.545,374.266,321.455,375.105,321.455C375.944,321.455,376.783,324.545,377.622,324.545C378.462,324.545,379.301,324.545,380.14,324.545C380.979,324.545,381.818,324.545,382.657,324.545C383.497,324.545,384.336,324.545,385.175,324.545C386.014,324.545,386.853,324.545,387.692,324.545C388.531,324.545,389.371,324.545,390.21,324.545C391.049,324.545,391.888,324.545,392.727,324.545C393.566,324.545,394.406,324.545,395.245,324.545C396.084,324.545,396.923,324.545,397.762,324.545C398.601,324.545,399.441,324.545,400.28,324.545C401.119,324.545,401.958,324.545,402.797,324.545C403.636,324.545,404.476,324.545,405.315,324.545C406.154,324.545,406.993,324.545,407.832,324.545C408.671,324.545,409.51,324.545,410.35,324.545C411.189,324.545,412.028,324.545,412.867,324.545C413.706,324.545,414.545,324.545,415.385,324.545C416.224,324.545,417.063,324.545,417.902,324.545C418.741,324.545,419.58,324.545,420.42,324.545C421.259,324.545,422.098,324.545,422.937,324.545C423.776,324.545,424.615,324.545,425.455,324.545C426.294,324.545,427.133,324.545,427.972,324.545C428.811,324.545,429.65,324.545,430.49,324.545C431.329,324.545,432.168,324.545,433.007,324.545C433.846,324.545,434.685,324.545,435.524,324.545C436.364,324.545,437.203,324.545,438.042,324.545C438.881,324.545,439.72,324.545,440.559,324.545C441.399,324.545,442.238,324.545,443.077,324.545C443.916,324.545,444.755,324.545,445.594,324.545C446.434,324.545,447.273,324.545,448.112,324.545C448.951,324.545,449.79,324.545,450.629,324.545C451.469,324.545,452.308,324.545,453.147,324.545C453.986,324.545,454.825,324.545,455.664,324.545C456.503,324.545,457.343,324.545,458.182,324.545C459.021,324.545,459.86,324.545,460.699,324.545C461.538,324.545,462.378,324.545,463.217,324.545C464.056,324.545,464.895,324.545,465.734,324.545C466.573,324.545,467.413,324.545,468.252,324.545C469.091,324.545,469.93,324.545,470.769,324.545C471.608,324.545,472.448,324.545,473.287,324.545C474.126,324.545,474.965,324.545,475.804,324.545C476.643,324.545,477.483,324.545,478.322,324.545C479.161,324.545,480,324.545,480.839,324.545C481.678,324.545,482.517,324.545,483.357,324.545C484.196,324.545,485.035,324.545,485.874,324.545C486.713,324.545,487.552,324.545,488.392,324.545C489.231,324.545,490.07,324.545,490.909,324.545C491.748,324.545,492.587,324.545,493.427,324.545C494.266,324.545,495.105,324.545,495.944,324.545C496.783,324.545,497.622,324.545,498.462,324.545C499.301,324.545,500.14,324.545,500.979,324.545C501.818,324.545,502.657,324.545,503.497,324.545C504.336,324.545,505.175,324.545,506.014,324.545C506.853,324.545,507.692,324.545,508.531,324.545C509.371,324.545,510.21,324.545,511.049,324.545C511.888,324.545,512.727,324.545,513.566,324.545C514.406,324.545,515.245,324.545,516.084,324.545C516.923,324.545,517.762,324.545,518.601,324.545C519.441,324.545,520.28,324.545,521.119,324.545C521.958,324.545,522.797,324.545,523.636,324.545C524.476,324.545,525.315,324.545,526.154,324.545C526.993,324.545,527.832,324.545,528.671,324.545C529.51,324.545,530.35,324.545,531.189,324.545C532.028,324.545,532.867,324.545,533.706,324.545C534.545,324.545,535.385,324.545,536.224,324.545C537.063,324.545,537.902,324.545,538.741,324.545C539.58,324.545,540.42,324.545,541.259,324.545C542.098,324.545,542.937,324.545,543.776,324.545C544.615,324.545,545.455,324.545,546.294,324.545C547.133,324.545,547.972,324.545,548.811,324.545C549.65,324.545,550.49,324.545,551.329,324.545C552.168,324.545,553.007,324.545,553.846,324.545C554.685,324.545,555.524,324.545,556.364,324.545C557.203,324.545,558.042,324.545,558.881,324.545C559.72,324.545,560.559,324.545,561.399,324.545C562.238,324.545,563.077,324.545,563.916,324.545C564.755,324.545,565.594,324.545,566.434,324.545C567.273,324.545,568.112,324.545,568.951,324.545C569.79,324.545,570.629,324.545,571.469,324.545C572.308,324.545,573.147,324.545,573.986,324.545C574.825,324.545,575.664,324.545,576.503,324.545C577.343,324.545,578.182,324.545,579.021,324.545C579.86,324.545,580.699,324.545,581.538,324.545C582.378,324.545,583.217,324.545,584.056,324.545C584.895,324.545,585.734,324.545,586.573,324.545C587.413,324.545,588.252,324.545,589.091,324.545C589.93,324.545,590.769,324.545,591.608,324.545C592.448,324.545,593.287,324.545,594.126,324.545C594.965,324.545,595.804,324.545,596.643,324.545C597.483,324.545,598.322,336.909,599.161,336.909C600,336.909,600.839,336.909,601.678,336.909C602.517,336.909,603.357,336.909,604.196,336.909C605.035,336.909,605.874,336.909,606.713,336.909C607.552,336.909,608.392,336.909,609.231,336.909C610.07,336.909,610.909,336.909,611.748,336.909C612.587,336.909,613.427,336.909,614.266,336.909C615.105,336.909,615.944,336.909,616.783,336.909C617.622,336.909,618.462,336.909,619.301,336.909C620.14,336.909,620.979,336.909,621.818,336.909C622.657,336.909,623.497,336.909,624.336,336.909C625.175,336.909,626.014,336.909,626.853,336.909C627.692,336.909,628.531,336.909,629.371,336.909C630.21,336.909,631.049,336.909,631.888,336.909C632.727,336.909,633.566,336.909,634.406,336.909C635.245,336.909,636.084,336.909,636.923,336.909C637.762,336.909,638.601,336.909,639.441,336.909C640.28,336.909,641.119,336.909,641.958,336.909C642.797,336.909,643.636,336.909,644.476,336.909C645.315,336.909,646.154,336.909,646.993,336.909C647.832,336.909,648.671,336.909,649.51,336.909C650.35,336.909,651.189,336.909,652.028,336.909C652.867,336.909,653.706,336.909,654.545,336.909C655.385,336.909,656.224,336.909,657.063,336.909C657.902,336.909,658.741,336.909,659.58,336.909C660.42,336.909,661.259,336.909,662.098,336.909C662.937,336.909,663.776,336.909,664.615,336.909C665.455,336.909,666.294,336.909,667.133,336.909C667.972,336.909,668.811,336.909,669.65,336.909C670.49,336.909,671.329,336.909,672.168,336.909C673.007,336.909,673.846,336.909,674.685,336.909C675.524,336.909,676.364,336.909,677.203,336.909C678.042,336.909,678.881,336.909,679.72,336.909C680.559,336.909,681.399,336.909,682.238,336.909C683.077,336.909,683.916,336.909,684.755,336.909C685.594,336.909,686.434,336.909,687.273,336.909C688.112,336.909,688.951,336.909,689.79,336.909C690.629,336.909,691.469,336.909,692.308,336.909C693.147,336.909,693.986,336.909,694.825,336.909C695.664,336.909,696.503,336.909,697.343,336.909C698.182,336.909,699.021,336.909,699.86,336.909C700.699,336.909,701.538,336.909,702.378,336.909C703.217,336.909,704.056,336.909,704.895,336.909C705.734,336.909,706.573,336.909,707.413,336.909C708.252,336.909,709.091,336.909,709.93,336.909C710.769,336.909,711.608,336.909,712.448,336.909C713.287,336.909,714.126,336.909,714.965,336.909C715.804,336.909,716.643,336.909,717.483,336.909C718.322,336.909,719.161,336.909,720,336.909"></path><circle class="dot" cx="0" cy="327.6363636363636" r="3" fill="#2563eb"></circle><circle class="dot" cx="2.5174825174825175" cy="327.6363636363636" r="3" fill="#2563eb"></circle><circle class="dot" cx="5.034965034965035" cy="327.6363636363636" r="3" fill="#2563eb"></circle><circle class="dot" cx="7.5524475524475525" cy="327.6363636363636" r="3" fill="#2563eb"></circle><circle class="dot" cx="10.06993006993007" cy="327.6363636363636" r="3" fill="#2563eb"></circle><circle class="dot" cx="12.587412587412588" cy="327.6363636363636" r="3" fill="#2563eb"></circle><circle class="dot" cx="15.104895104895105" cy="327.6363636363636" r="3" fill="#2563eb"></circle><circle class="dot" cx="17.622377622377623" cy="327.6363636363636" r="3" fill="#2563eb"></circle><circle class="dot" cx="20.13986013986014" cy="327.6363636363636" r="3" fill="#2563eb"></circle><circle class="dot" cx="22.65734265734266" cy="327.6363636363636" r="3" fill="#2563eb"></circle><circle class="dot" cx="25.174825174825177" cy="327.6363636363636" r="3" fill="#2563eb"></circle><circle class="dot" cx="27.692307692307693" cy="327.6363636363636" r="3" fill="#2563eb"></circle><circle class="dot" cx="30.20979020979021" cy="327.6363636363636" r="3" fill="#2563eb"></circle><circle class="dot" cx="32.72727272727273" cy="327.6363636363636" r="3" fill="#2563eb"></circle><circle class="dot" cx="35.24475524475525" cy="327.6363636363636" r="3" fill="#2563eb"></circle><circle class="dot" cx="37.76223776223776" cy="327.6363636363636" r="3" fill="#2563eb"></circle><circle class="dot" cx="40.27972027972028" cy="327.6363636363636" r="3" fill="#2563eb"></circle><circle class="dot" cx="42.7972027972028" cy="327.6363636363636" r="3" fill="#2563eb"></circle><circle class="dot" cx="45.31468531468532" cy="327.6363636363636" r="3" fill="#2563eb"></circle><circle class="dot" cx="47.83216783216783" cy="327.6363636363636" r="3" fill="#2563eb"></circle><circle class="dot" cx="50.349650349650354" cy="327.6363636363636" r="3" fill="#2563eb"></circle><circle class="dot" cx="52.86713286713287" cy="327.6363636363636" r="3" fill="#2563eb"></circle><circle class="dot" cx="55.38461538461539" cy="327.6363636363636" r="3" fill="#2563eb"></circle><circle class="dot" cx="57.9020979020979" cy="327.6363636363636" r="3" fill="#2563eb"></circle><circle class="dot" cx="60.41958041958042" cy="327.6363636363636" r="3" fill="#2563eb"></circle><circle class="dot" cx="62.93706293706293" cy="327.6363636363636" r="3" fill="#2563eb"></circle><circle class="dot" cx="65.45454545454545" cy="327.6363636363636" r="3" fill="#2563eb"></circle><circle class="dot" cx="67.97202797202797" cy="327.6363636363636" r="3" fill="#2563eb"></circle><circle class="dot" cx="70.4895104895105" cy="327.6363636363636" r="3" fill="#2563eb"></circle><circle class="dot" cx="73.006993006993" cy="327.6363636363636" r="3" fill="#2563eb"></circle><circle class="dot" cx="75.52447552447552" cy="327.6363636363636" r="3" fill="#2563eb"></circle><circle class="dot" cx="78.04195804195804" cy="327.6363636363636" r="3" fill="#2563eb"></circle><circle class="dot" cx="80.55944055944056" cy="327.6363636363636" r="3" fill="#2563eb"></circle><circle class="dot" cx="83.07692307692308" cy="327.6363636363636" r="3" fill="#2563eb"></circle><circle class="dot" cx="85.5944055944056" cy="327.6363636363636" r="3" fill="#2563eb"></circle><circle class="dot" cx="88.11188811188812" cy="327.6363636363636" r="3" fill="#2563eb"></circle><circle class="dot" cx="90.62937062937064" cy="327.6363636363636" r="3" fill="#2563eb"></circle><circle class="dot" cx="93.14685314685315" cy="18.54545454545455" r="3" fill="#2563eb"></circle><circle class="dot" cx="95.66433566433567" cy="306" r="3" fill="#2563eb"></circle><circle class="dot" cx="98.18181818181817" cy="324.54545454545456" r="3" fill="#2563eb"></circle><circle class="dot" cx="100.69930069930071" cy="324.54545454545456" r="3" fill="#2563eb"></circle><circle class="dot" cx="103.21678321678321" cy="324.54545454545456" r="3" fill="#2563eb"></circle><circle class="dot" cx="105.73426573426573" cy="324.54545454545456" r="3" fill="#2563eb"></circle><circle class="dot" cx="108.25174825174824" cy="324.54545454545456" r="3" fill="#2563eb"></circle><circle class="dot" cx="110.76923076923077" cy="324.54545454545456" r="3" fill="#2563eb"></circle><circle class="dot" cx="113.2867132867133" cy="324.54545454545456" r="3" fill="#2563eb"></circle><circle class="dot" cx="115.8041958041958" cy="324.54545454545456" r="3" fill="#2563eb"></circle><circle class="dot" cx="118.3216783216783" cy="324.54545454545456" r="3" fill="#2563eb"></circle><circle class="dot" cx="120.83916083916084" cy="324.54545454545456" r="3" fill="#2563eb"></circle><circle class="dot" cx="123.35664335664336" cy="324.54545454545456" r="3" fill="#2563eb"></circle><circle class="dot" cx="125.87412587412587" cy="324.54545454545456" r="3" fill="#2563eb"></circle><circle class="dot" cx="128.3916083916084" cy="324.54545454545456" r="3" fill="#2563eb"></circle><circle class="dot" cx="130.9090909090909" cy="324.54545454545456" r="3" fill="#2563eb"></circle><circle class="dot" cx="133.4265734265734" cy="324.54545454545456" r="3" fill="#2563eb"></circle><circle class="dot" cx="135.94405594405595" cy="324.54545454545456" r="3" fill="#2563eb"></circle><circle class="dot" cx="138.46153846153848" cy="324.54545454545456" r="3" fill="#2563eb"></circle><circle class="dot" cx="140.979020979021" cy="324.54545454545456" r="3" fill="#2563eb"></circle><circle class="dot" cx="143.4965034965035" cy="324.54545454545456" r="3" fill="#2563eb"></circle><circle class="dot" cx="146.013986013986" cy="324.54545454545456" r="3" fill="#2563eb"></circle><circle class="dot" cx="148.53146853146853" cy="324.54545454545456" r="3" fill="#2563eb"></circle><circle class="dot" cx="151.04895104895104" cy="324.54545454545456" r="3" fill="#2563eb"></circle><circle class="dot" cx="153.56643356643357" cy="324.54545454545456" r="3" fill="#2563eb"></circle><circle class="dot" cx="156.08391608391608" cy="324.54545454545456" r="3" fill="#2563eb"></circle><circle class="dot" cx="158.6013986013986" cy="324.54545454545456" r="3" fill="#2563eb"></circle><circle class="dot" cx="161.11888111888112" cy="324.54545454545456" r="3" fill="#2563eb"></circle><circle class="dot" cx="163.63636363636363" cy="324.54545454545456" r="3" fill="#2563eb"></circle><circle class="dot" cx="166.15384615384616" cy="324.54545454545456" r="3" fill="#2563eb"></circle><circle class="dot" cx="168.67132867132867" cy="324.54545454545456" r="3" fill="#2563eb"></circle><circle class="dot" cx="171.1888111888112" cy="324.54545454545456" r="3" fill="#2563eb"></circle><circle class="dot" cx="173.7062937062937" cy="324.54545454545456" r="3" fill="#2563eb"></circle><circle class="dot" cx="176.22377622377624" cy="324.54545454545456" r="3" fill="#2563eb"></circle><circle class="dot" cx="178.74125874125875" cy="324.54545454545456" r="3" fill="#2563eb"></circle><circle class="dot" cx="181.25874125874128" cy="324.54545454545456" r="3" fill="#2563eb"></circle><circle class="dot" cx="183.7762237762238" cy="324.54545454545456" r="3" fill="#2563eb"></circle><circle class="dot" cx="186.2937062937063" cy="324.54545454545456" r="3" fill="#2563eb"></circle><circle class="dot" cx="188.8111888111888" cy="324.54545454545456" r="3" fill="#2563eb"></circle><circle class="dot" cx="191.32867132867133" cy="324.54545454545456" r="3" fill="#2563eb"></circle><circle class="dot" cx="193.84615384615384" cy="324.54545454545456" r="3" fill="#2563eb"></circle><circle class="dot" cx="196.36363636363635" cy="324.54545454545456" r="3" fill="#2563eb"></circle><circle class="dot" cx="198.88111888111885" cy="324.54545454545456" r="3" fill="#2563eb"></circle><circle class="dot" cx="201.39860139860141" cy="324.54545454545456" r="3" fill="#2563eb"></circle><circle class="dot" cx="203.91608391608392" cy="324.54545454545456" r="3" fill="#2563eb"></circle><circle class="dot" cx="206.43356643356643" cy="324.54545454545456" r="3" fill="#2563eb"></circle><circle class="dot" cx="208.95104895104896" cy="324.54545454545456" r="3" fill="#2563eb"></circle><circle class="dot" cx="211.46853146853147" cy="324.54545454545456" r="3" fill="#2563eb"></circle><circle class="dot" cx="213.98601398601397" cy="324.54545454545456" r="3" fill="#2563eb"></circle><circle class="dot" cx="216.50349650349648" cy="324.54545454545456" r="3" fill="#2563eb"></circle><circle class="dot" cx="219.02097902097904" cy="324.54545454545456" r="3" fill="#2563eb"></circle><circle class="dot" cx="221.53846153846155" cy="324.54545454545456" r="3" fill="#2563eb"></circle><circle class="dot" cx="224.05594405594405" cy="324.54545454545456" r="3" fill="#2563eb"></circle><circle class="dot" cx="226.5734265734266" cy="324.54545454545456" r="3" fill="#2563eb"></circle><circle class="dot" cx="229.0909090909091" cy="324.54545454545456" r="3" fill="#2563eb"></circle><circle class="dot" cx="231.6083916083916" cy="324.54545454545456" r="3" fill="#2563eb"></circle><circle class="dot" cx="234.1258741258741" cy="324.54545454545456" r="3" fill="#2563eb"></circle><circle class="dot" cx="236.6433566433566" cy="324.54545454545456" r="3" fill="#2563eb"></circle><circle class="dot" cx="239.16083916083917" cy="324.54545454545456" r="3" fill="#2563eb"></circle><circle class="dot" cx="241.67832167832168" cy="324.54545454545456" r="3" fill="#2563eb"></circle><circle class="dot" cx="244.19580419580421" cy="324.54545454545456" r="3" fill="#2563eb"></circle><circle class="dot" cx="246.71328671328672" cy="324.54545454545456" r="3" fill="#2563eb"></circle><circle class="dot" cx="249.23076923076923" cy="324.54545454545456" r="3" fill="#2563eb"></circle><circle class="dot" cx="251.74825174825173" cy="324.54545454545456" r="3" fill="#2563eb"></circle><circle class="dot" cx="254.26573426573424" cy="321.45454545454544" r="3" fill="#2563eb"></circle><circle class="dot" cx="256.7832167832168" cy="324.54545454545456" r="3" fill="#2563eb"></circle><circle class="dot" cx="259.3006993006993" cy="324.54545454545456" r="3" fill="#2563eb"></circle><circle class="dot" cx="261.8181818181818" cy="309.09090909090907" r="3" fill="#2563eb"></circle><circle class="dot" cx="264.3356643356643" cy="315.27272727272725" r="3" fill="#2563eb"></circle><circle class="dot" cx="266.8531468531468" cy="324.54545454545456" r="3" fill="#2563eb"></circle><circle class="dot" cx="269.3706293706294" cy="324.54545454545456" r="3" fill="#2563eb"></circle><circle class="dot" cx="271.8881118881119" cy="321.45454545454544" r="3" fill="#2563eb"></circle><circle class="dot" cx="274.4055944055944" cy="324.54545454545456" r="3" fill="#2563eb"></circle><circle class="dot" cx="276.92307692307696" cy="318.3636363636364" r="3" fill="#2563eb"></circle><circle class="dot" cx="279.44055944055947" cy="318.3636363636364" r="3" fill="#2563eb"></circle><circle class="dot" cx="281.958041958042" cy="315.27272727272725" r="3" fill="#2563eb"></circle><circle class="dot" cx="284.4755244755245" cy="312.1818181818182" r="3" fill="#2563eb"></circle><circle class="dot" cx="286.993006993007" cy="318.3636363636364" r="3" fill="#2563eb"></circle><circle class="dot" cx="289.5104895104895" cy="324.54545454545456" r="3" fill="#2563eb"></circle><circle class="dot" cx="292.027972027972" cy="324.54545454545456" r="3" fill="#2563eb"></circle><circle class="dot" cx="294.54545454545456" cy="324.54545454545456" r="3" fill="#2563eb"></circle><circle class="dot" cx="297.06293706293707" cy="324.54545454545456" r="3" fill="#2563eb"></circle><circle class="dot" cx="299.5804195804196" cy="324.54545454545456" r="3" fill="#2563eb"></circle><circle class="dot" cx="302.0979020979021" cy="315.27272727272725" r="3" fill="#2563eb"></circle><circle class="dot" cx="304.6153846153846" cy="318.3636363636364" r="3" fill="#2563eb"></circle><circle class="dot" cx="307.13286713286715" cy="315.27272727272725" r="3" fill="#2563eb"></circle><circle class="dot" cx="309.65034965034965" cy="309.09090909090907" r="3" fill="#2563eb"></circle><circle class="dot" cx="312.16783216783216" cy="312.1818181818182" r="3" fill="#2563eb"></circle><circle class="dot" cx="314.6853146853147" cy="318.3636363636364" r="3" fill="#2563eb"></circle><circle class="dot" cx="317.2027972027972" cy="312.1818181818182" r="3" fill="#2563eb"></circle><circle class="dot" cx="319.72027972027973" cy="296.7272727272727" r="3" fill="#2563eb"></circle><circle class="dot" cx="322.23776223776224" cy="312.1818181818182" r="3" fill="#2563eb"></circle><circle class="dot" cx="324.75524475524475" cy="299.8181818181818" r="3" fill="#2563eb"></circle><circle class="dot" cx="327.27272727272725" cy="306" r="3" fill="#2563eb"></circle><circle class="dot" cx="329.79020979020976" cy="306" r="3" fill="#2563eb"></circle><circle class="dot" cx="332.3076923076923" cy="309.09090909090907" r="3" fill="#2563eb"></circle><circle class="dot" cx="334.8251748251748" cy="302.9090909090909" r="3" fill="#2563eb"></circle><circle class="dot" cx="337.34265734265733" cy="284.3636363636364" r="3" fill="#2563eb"></circle><circle class="dot" cx="339.86013986013984" cy="284.3636363636364" r="3" fill="#2563eb"></circle><circle class="dot" cx="342.3776223776224" cy="290.5454545454545" r="3" fill="#2563eb"></circle><circle class="dot" cx="344.8951048951049" cy="302.9090909090909" r="3" fill="#2563eb"></circle><circle class="dot" cx="347.4125874125874" cy="296.7272727272727" r="3" fill="#2563eb"></circle><circle class="dot" cx="349.9300699300699" cy="296.7272727272727" r="3" fill="#2563eb"></circle><circle class="dot" cx="352.4475524475525" cy="302.9090909090909" r="3" fill="#2563eb"></circle><circle class="dot" cx="354.965034965035" cy="318.3636363636364" r="3" fill="#2563eb"></circle><circle class="dot" cx="357.4825174825175" cy="312.1818181818182" r="3" fill="#2563eb"></circle><circle class="dot" cx="360" cy="312.1818181818182" r="3" fill="#2563eb"></circle><circle class="dot" cx="362.51748251748256" cy="321.45454545454544" r="3" fill="#2563eb"></circle><circle class="dot" cx="365.034965034965" cy="318.3636363636364" r="3" fill="#2563eb"></circle><circle class="dot" cx="367.5524475524476" cy="324.54545454545456" r="3" fill="#2563eb"></circle><circle class="dot" cx="370.06993006993" cy="324.54545454545456" r="3" fill="#2563eb"></circle><circle class="dot" cx="372.5874125874126" cy="324.54545454545456" r="3" fill="#2563eb"></circle><circle class="dot" cx="375.1048951048951" cy="321.45454545454544" r="3" fill="#2563eb"></circle><circle class="dot" cx="377.6223776223776" cy="324.54545454545456" r="3" fill="#2563eb"></circle><circle class="dot" cx="380.13986013986016" cy="324.54545454545456" r="3" fill="#2563eb"></circle><circle class="dot" cx="382.65734265734267" cy="324.54545454545456" r="3" fill="#2563eb"></circle><circle class="dot" cx="385.1748251748252" cy="324.54545454545456" r="3" fill="#2563eb"></circle><circle class="dot" cx="387.6923076923077" cy="324.54545454545456" r="3" fill="#2563eb"></circle><circle class="dot" cx="390.20979020979024" cy="324.54545454545456" r="3" fill="#2563eb"></circle><circle class="dot" cx="392.7272727272727" cy="324.54545454545456" r="3" fill="#2563eb"></circle><circle class="dot" cx="395.24475524475525" cy="324.54545454545456" r="3" fill="#2563eb"></circle><circle class="dot" cx="397.7622377622377" cy="324.54545454545456" r="3" fill="#2563eb"></circle><circle class="dot" cx="400.27972027972027" cy="324.54545454545456" r="3" fill="#2563eb"></circle><circle class="dot" cx="402.79720279720283" cy="324.54545454545456" r="3" fill="#2563eb"></circle><circle class="dot" cx="405.3146853146853" cy="324.54545454545456" r="3" fill="#2563eb"></circle><circle class="dot" cx="407.83216783216784" cy="324.54545454545456" r="3" fill="#2563eb"></circle><circle class="dot" cx="410.34965034965035" cy="324.54545454545456" r="3" fill="#2563eb"></circle><circle class="dot" cx="412.86713286713285" cy="324.54545454545456" r="3" fill="#2563eb"></circle><circle class="dot" cx="415.38461538461536" cy="324.54545454545456" r="3" fill="#2563eb"></circle><circle class="dot" cx="417.9020979020979" cy="324.54545454545456" r="3" fill="#2563eb"></circle><circle class="dot" cx="420.4195804195804" cy="324.54545454545456" r="3" fill="#2563eb"></circle><circle class="dot" cx="422.93706293706293" cy="324.54545454545456" r="3" fill="#2563eb"></circle><circle class="dot" cx="425.4545454545455" cy="324.54545454545456" r="3" fill="#2563eb"></circle><circle class="dot" cx="427.97202797202794" cy="324.54545454545456" r="3" fill="#2563eb"></circle><circle class="dot" cx="430.4895104895105" cy="324.54545454545456" r="3" fill="#2563eb"></circle><circle class="dot" cx="433.00699300699296" cy="324.54545454545456" r="3" fill="#2563eb"></circle><circle class="dot" cx="435.5244755244755" cy="324.54545454545456" r="3" fill="#2563eb"></circle><circle class="dot" cx="438.0419580419581" cy="324.54545454545456" r="3" fill="#2563eb"></circle><circle class="dot" cx="440.55944055944053" cy="324.54545454545456" r="3" fill="#2563eb"></circle><circle class="dot" cx="443.0769230769231" cy="324.54545454545456" r="3" fill="#2563eb"></circle><circle class="dot" cx="445.5944055944056" cy="324.54545454545456" r="3" fill="#2563eb"></circle><circle class="dot" cx="448.1118881118881" cy="324.54545454545456" r="3" fill="#2563eb"></circle><circle class="dot" cx="450.6293706293706" cy="324.54545454545456" r="3" fill="#2563eb"></circle><circle class="dot" cx="453.1468531468532" cy="324.54545454545456" r="3" fill="#2563eb"></circle><circle class="dot" cx="455.6643356643357" cy="324.54545454545456" r="3" fill="#2563eb"></circle><circle class="dot" cx="458.1818181818182" cy="324.54545454545456" r="3" fill="#2563eb"></circle><circle class="dot" cx="460.69930069930075" cy="324.54545454545456" r="3" fill="#2563eb"></circle><circle class="dot" cx="463.2167832167832" cy="324.54545454545456" r="3" fill="#2563eb"></circle><circle class="dot" cx="465.73426573426576" cy="324.54545454545456" r="3" fill="#2563eb"></circle><circle class="dot" cx="468.2517482517482" cy="324.54545454545456" r="3" fill="#2563eb"></circle><circle class="dot" cx="470.7692307692308" cy="324.54545454545456" r="3" fill="#2563eb"></circle><circle class="dot" cx="473.2867132867132" cy="324.54545454545456" r="3" fill="#2563eb"></circle><circle class="dot" cx="475.8041958041958" cy="324.54545454545456" r="3" fill="#2563eb"></circle><circle class="dot" cx="478.32167832167835" cy="324.54545454545456" r="3" fill="#2563eb"></circle><circle class="dot" cx="480.8391608391608" cy="324.54545454545456" r="3" fill="#2563eb"></circle><circle class="dot" cx="483.35664335664336" cy="324.54545454545456" r="3" fill="#2563eb"></circle><circle class="dot" cx="485.87412587412587" cy="324.54545454545456" r="3" fill="#2563eb"></circle><circle class="dot" cx="488.39160839160843" cy="324.54545454545456" r="3" fill="#2563eb"></circle><circle class="dot" cx="490.9090909090909" cy="324.54545454545456" r="3" fill="#2563eb"></circle><circle class="dot" cx="493.42657342657344" cy="324.54545454545456" r="3" fill="#2563eb"></circle><circle class="dot" cx="495.944055944056" cy="324.54545454545456" r="3" fill="#2563eb"></circle><circle class="dot" cx="498.46153846153845" cy="324.54545454545456" r="3" fill="#2563eb"></circle><circle class="dot" cx="500.979020979021" cy="324.54545454545456" r="3" fill="#2563eb"></circle><circle class="dot" cx="503.49650349650346" cy="324.54545454545456" r="3" fill="#2563eb"></circle><circle class="dot" cx="506.013986013986" cy="324.54545454545456" r="3" fill="#2563eb"></circle><circle class="dot" cx="508.5314685314685" cy="324.54545454545456" r="3" fill="#2563eb"></circle><circle class="dot" cx="511.04895104895104" cy="324.54545454545456" r="3" fill="#2563eb"></circle><circle class="dot" cx="513.5664335664336" cy="324.54545454545456" r="3" fill="#2563eb"></circle><circle class="dot" cx="516.083916083916" cy="324.54545454545456" r="3" fill="#2563eb"></circle><circle class="dot" cx="518.6013986013986" cy="324.54545454545456" r="3" fill="#2563eb"></circle><circle class="dot" cx="521.1188811188811" cy="324.54545454545456" r="3" fill="#2563eb"></circle><circle class="dot" cx="523.6363636363636" cy="324.54545454545456" r="3" fill="#2563eb"></circle><circle class="dot" cx="526.1538461538461" cy="324.54545454545456" r="3" fill="#2563eb"></circle><circle class="dot" cx="528.6713286713286" cy="324.54545454545456" r="3" fill="#2563eb"></circle><circle class="dot" cx="531.1888111888112" cy="324.54545454545456" r="3" fill="#2563eb"></circle><circle class="dot" cx="533.7062937062936" cy="324.54545454545456" r="3" fill="#2563eb"></circle><circle class="dot" cx="536.2237762237762" cy="324.54545454545456" r="3" fill="#2563eb"></circle><circle class="dot" cx="538.7412587412588" cy="324.54545454545456" r="3" fill="#2563eb"></circle><circle class="dot" cx="541.2587412587412" cy="324.54545454545456" r="3" fill="#2563eb"></circle><circle class="dot" cx="543.7762237762238" cy="324.54545454545456" r="3" fill="#2563eb"></circle><circle class="dot" cx="546.2937062937064" cy="324.54545454545456" r="3" fill="#2563eb"></circle><circle class="dot" cx="548.8111888111888" cy="324.54545454545456" r="3" fill="#2563eb"></circle><circle class="dot" cx="551.3286713286714" cy="324.54545454545456" r="3" fill="#2563eb"></circle><circle class="dot" cx="553.8461538461539" cy="324.54545454545456" r="3" fill="#2563eb"></circle><circle class="dot" cx="556.3636363636364" cy="324.54545454545456" r="3" fill="#2563eb"></circle><circle class="dot" cx="558.8811188811189" cy="324.54545454545456" r="3" fill="#2563eb"></circle><circle class="dot" cx="561.3986013986014" cy="324.54545454545456" r="3" fill="#2563eb"></circle><circle class="dot" cx="563.916083916084" cy="324.54545454545456" r="3" fill="#2563eb"></circle><circle class="dot" cx="566.4335664335664" cy="324.54545454545456" r="3" fill="#2563eb"></circle><circle class="dot" cx="568.951048951049" cy="324.54545454545456" r="3" fill="#2563eb"></circle><circle class="dot" cx="571.4685314685315" cy="324.54545454545456" r="3" fill="#2563eb"></circle><circle class="dot" cx="573.986013986014" cy="324.54545454545456" r="3" fill="#2563eb"></circle><circle class="dot" cx="576.5034965034965" cy="324.54545454545456" r="3" fill="#2563eb"></circle><circle class="dot" cx="579.020979020979" cy="324.54545454545456" r="3" fill="#2563eb"></circle><circle class="dot" cx="581.5384615384615" cy="324.54545454545456" r="3" fill="#2563eb"></circle><circle class="dot" cx="584.055944055944" cy="324.54545454545456" r="3" fill="#2563eb"></circle><circle class="dot" cx="586.5734265734266" cy="324.54545454545456" r="3" fill="#2563eb"></circle><circle class="dot" cx="589.0909090909091" cy="324.54545454545456" r="3" fill="#2563eb"></circle><circle class="dot" cx="591.6083916083916" cy="324.54545454545456" r="3" fill="#2563eb"></circle><circle class="dot" cx="594.1258741258741" cy="324.54545454545456" r="3" fill="#2563eb"></circle><circle class="dot" cx="596.6433566433566" cy="324.54545454545456" r="3" fill="#2563eb"></circle><circle class="dot" cx="599.1608391608391" cy="336.90909090909093" r="3" fill="#2563eb"></circle><circle class="dot" cx="601.6783216783216" cy="336.90909090909093" r="3" fill="#2563eb"></circle><circle class="dot" cx="604.1958041958042" cy="336.90909090909093" r="3" fill="#2563eb"></circle><circle class="dot" cx="606.7132867132867" cy="336.90909090909093" r="3" fill="#2563eb"></circle><circle class="dot" cx="609.2307692307692" cy="336.90909090909093" r="3" fill="#2563eb"></circle><circle class="dot" cx="611.7482517482517" cy="336.90909090909093" r="3" fill="#2563eb"></circle><circle class="dot" cx="614.2657342657343" cy="336.90909090909093" r="3" fill="#2563eb"></circle><circle class="dot" cx="616.7832167832169" cy="336.90909090909093" r="3" fill="#2563eb"></circle><circle class="dot" cx="619.3006993006993" cy="336.90909090909093" r="3" fill="#2563eb"></circle><circle class="dot" cx="621.8181818181819" cy="336.90909090909093" r="3" fill="#2563eb"></circle><circle class="dot" cx="624.3356643356643" cy="336.90909090909093" r="3" fill="#2563eb"></circle><circle class="dot" cx="626.8531468531469" cy="336.90909090909093" r="3" fill="#2563eb"></circle><circle class="dot" cx="629.3706293706294" cy="336.90909090909093" r="3" fill="#2563eb"></circle><circle class="dot" cx="631.8881118881119" cy="336.90909090909093" r="3" fill="#2563eb"></circle><circle class="dot" cx="634.4055944055945" cy="336.90909090909093" r="3" fill="#2563eb"></circle><circle class="dot" cx="636.9230769230769" cy="336.90909090909093" r="3" fill="#2563eb"></circle><circle class="dot" cx="639.4405594405595" cy="336.90909090909093" r="3" fill="#2563eb"></circle><circle class="dot" cx="641.9580419580419" cy="336.90909090909093" r="3" fill="#2563eb"></circle><circle class="dot" cx="644.4755244755245" cy="336.90909090909093" r="3" fill="#2563eb"></circle><circle class="dot" cx="646.993006993007" cy="336.90909090909093" r="3" fill="#2563eb"></circle><circle class="dot" cx="649.5104895104895" cy="336.90909090909093" r="3" fill="#2563eb"></circle><circle class="dot" cx="652.027972027972" cy="336.90909090909093" r="3" fill="#2563eb"></circle><circle class="dot" cx="654.5454545454545" cy="336.90909090909093" r="3" fill="#2563eb"></circle><circle class="dot" cx="657.0629370629371" cy="336.90909090909093" r="3" fill="#2563eb"></circle><circle class="dot" cx="659.5804195804195" cy="336.90909090909093" r="3" fill="#2563eb"></circle><circle class="dot" cx="662.0979020979021" cy="336.90909090909093" r="3" fill="#2563eb"></circle><circle class="dot" cx="664.6153846153846" cy="336.90909090909093" r="3" fill="#2563eb"></circle><circle class="dot" cx="667.1328671328671" cy="336.90909090909093" r="3" fill="#2563eb"></circle><circle class="dot" cx="669.6503496503497" cy="336.90909090909093" r="3" fill="#2563eb"></circle><circle class="dot" cx="672.1678321678321" cy="336.90909090909093" r="3" fill="#2563eb"></circle><circle class="dot" cx="674.6853146853147" cy="336.90909090909093" r="3" fill="#2563eb"></circle><circle class="dot" cx="677.2027972027972" cy="336.90909090909093" r="3" fill="#2563eb"></circle><circle class="dot" cx="679.7202797202797" cy="336.90909090909093" r="3" fill="#2563eb"></circle><circle class="dot" cx="682.2377622377622" cy="336.90909090909093" r="3" fill="#2563eb"></circle><circle class="dot" cx="684.7552447552448" cy="336.90909090909093" r="3" fill="#2563eb"></circle><circle class="dot" cx="687.2727272727273" cy="336.90909090909093" r="3" fill="#2563eb"></circle><circle class="dot" cx="689.7902097902098" cy="336.90909090909093" r="3" fill="#2563eb"></circle><circle class="dot" cx="692.3076923076924" cy="336.90909090909093" r="3" fill="#2563eb"></circle><circle class="dot" cx="694.8251748251748" cy="336.90909090909093" r="3" fill="#2563eb"></circle><circle class="dot" cx="697.3426573426574" cy="336.90909090909093" r="3" fill="#2563eb"></circle><circle class="dot" cx="699.8601398601398" cy="336.90909090909093" r="3" fill="#2563eb"></circle><circle class="dot" cx="702.3776223776224" cy="336.90909090909093" r="3" fill="#2563eb"></circle><circle class="dot" cx="704.895104895105" cy="336.90909090909093" r="3" fill="#2563eb"></circle><circle class="dot" cx="707.4125874125874" cy="336.90909090909093" r="3" fill="#2563eb"></circle><circle class="dot" cx="709.93006993007" cy="336.90909090909093" r="3" fill="#2563eb"></circle><circle class="dot" cx="712.4475524475524" cy="336.90909090909093" r="3" fill="#2563eb"></circle><circle class="dot" cx="714.965034965035" cy="336.90909090909093" r="3" fill="#2563eb"></circle><circle class="dot" cx="717.4825174825174" cy="336.90909090909093" r="3" fill="#2563eb"></circle><circle class="dot" cx="720" cy="336.90909090909093" r="3" fill="#2563eb"></circle><g class="grid" transform="translate(0,340)" fill="none" font-size="10" font-family="sans-serif" text-anchor="middle" style="stroke-dasharray: 3,3; opacity: 0.3;"><path class="domain" stroke="currentColor" d="M0.5,-340V0.5H720.5V-340"></path><g class="tick" opacity="1" transform="translate(0.5,0)"><line stroke="currentColor" y2="-340"></line><text fill="currentColor" y="3" dy="0.71em"></text></g><g class="tick" opacity="1" transform="translate(60.91958041958042,0)"><line stroke="currentColor" y2="-340"></line><text fill="currentColor" y="3" dy="0.71em"></text></g><g class="tick" opacity="1" transform="translate(121.33916083916084,0)"><line stroke="currentColor" y2="-340"></line><text fill="currentColor" y="3" dy="0.71em"></text></g><g class="tick" opacity="1" transform="translate(181.75874125874128,0)"><line stroke="currentColor" y2="-340"></line><text fill="currentColor" y="3" dy="0.71em"></text></g><g class="tick" opacity="1" transform="translate(242.17832167832168,0)"><line stroke="currentColor" y2="-340"></line><text fill="currentColor" y="3" dy="0.71em"></text></g><g class="tick" opacity="1" transform="translate(302.5979020979021,0)"><line stroke="currentColor" y2="-340"></line><text fill="currentColor" y="3" dy="0.71em"></text></g><g class="tick" opacity="1" transform="translate(363.01748251748256,0)"><line stroke="currentColor" y2="-340"></line><text fill="currentColor" y="3" dy="0.71em"></text></g><g class="tick" opacity="1" transform="translate(423.43706293706293,0)"><line stroke="currentColor" y2="-340"></line><text fill="currentColor" y="3" dy="0.71em"></text></g><g class="tick" opacity="1" transform="translate(483.85664335664336,0)"><line stroke="currentColor" y2="-340"></line><text fill="currentColor" y="3" dy="0.71em"></text></g><g class="tick" opacity="1" transform="translate(544.2762237762238,0)"><line stroke="currentColor" y2="-340"></line><text fill="currentColor" y="3" dy="0.71em"></text></g><g class="tick" opacity="1" transform="translate(604.6958041958042,0)"><line stroke="currentColor" y2="-340"></line><text fill="currentColor" y="3" dy="0.71em"></text></g><g class="tick" opacity="1" transform="translate(665.1153846153846,0)"><line stroke="currentColor" y2="-340"></line><text fill="currentColor" y="3" dy="0.71em"></text></g></g><g class="grid" fill="none" font-size="10" font-family="sans-serif" text-anchor="end" style="stroke-dasharray: 3,3; opacity: 0.3;"><path class="domain" stroke="currentColor" d="M720,340.5H0.5V0.5H720"></path><g class="tick" opacity="1" transform="translate(0,340.5)"><line stroke="currentColor" x2="720"></line><text fill="currentColor" x="-3" dy="0.32em"></text></g><g class="tick" opacity="1" transform="translate(0,309.59090909090907)"><line stroke="currentColor" x2="720"></line><text fill="currentColor" x="-3" dy="0.32em"></text></g><g class="tick" opacity="1" transform="translate(0,278.6818181818182)"><line stroke="currentColor" x2="720"></line><text fill="currentColor" x="-3" dy="0.32em"></text></g><g class="tick" opacity="1" transform="translate(0,247.77272727272728)"><line stroke="currentColor" x2="720"></line><text fill="currentColor" x="-3" dy="0.32em"></text></g><g class="tick" opacity="1" transform="translate(0,216.86363636363637)"><line stroke="currentColor" x2="720"></line><text fill="currentColor" x="-3" dy="0.32em"></text></g><g class="tick" opacity="1" transform="translate(0,185.95454545454544)"><line stroke="currentColor" x2="720"></line><text fill="currentColor" x="-3" dy="0.32em"></text></g><g class="tick" opacity="1" transform="translate(0,155.04545454545456)"><line stroke="currentColor" x2="720"></line><text fill="currentColor" x="-3" dy="0.32em"></text></g><g class="tick" opacity="1" transform="translate(0,124.13636363636368)"><line stroke="currentColor" x2="720"></line><text fill="currentColor" x="-3" dy="0.32em"></text></g><g class="tick" opacity="1" transform="translate(0,93.22727272727272)"><line stroke="currentColor" x2="720"></line><text fill="currentColor" x="-3" dy="0.32em"></text></g><g class="tick" opacity="1" transform="translate(0,62.31818181818184)"><line stroke="currentColor" x2="720"></line><text fill="currentColor" x="-3" dy="0.32em"></text></g><g class="tick" opacity="1" transform="translate(0,31.40909090909092)"><line stroke="currentColor" x2="720"></line><text fill="currentColor" x="-3" dy="0.32em"></text></g><g class="tick" opacity="1" transform="translate(0,0.5)"><line stroke="currentColor" x2="720"></line><text fill="currentColor" x="-3" dy="0.32em"></text></g></g></g><text x="400" y="10" text-anchor="middle" style="font-size: 16px; font-weight: bold; fill: #333;">OKX USDT Lending Rate - Current Month</text></svg>