<svg width="800" height="400" xmlns="http://www.w3.org/2000/svg"><g transform="translate(50,20)"><g transform="translate(0,340)" fill="none" font-size="10" font-family="sans-serif" text-anchor="middle"><path class="domain" stroke="currentColor" d="M0.5,6V0.5H720.5V6"></path><g class="tick" opacity="1" transform="translate(0.5,0)"><line stroke="currentColor" y2="6"></line><text fill="currentColor" y="9" dy=".15em" style="text-anchor: end;" dx="-.8em" transform="rotate(-45)">10/01</text></g><g class="tick" opacity="1" transform="translate(293.3813559322034,0)"><line stroke="currentColor" y2="6"></line><text fill="currentColor" y="9" dy=".15em" style="text-anchor: end;" dx="-.8em" transform="rotate(-45)">10/02</text></g><g class="tick" opacity="1" transform="translate(586.2627118644068,0)"><line stroke="currentColor" y2="6"></line><text fill="currentColor" y="9" dy=".15em" style="text-anchor: end;" dx="-.8em" transform="rotate(-45)">10/03</text></g></g><g fill="none" font-size="10" font-family="sans-serif" text-anchor="end"><path class="domain" stroke="currentColor" d="M-6,340.5H0.5V0.5H-6"></path><g class="tick" opacity="1" transform="translate(0,340.5)"><line stroke="currentColor" x2="-6"></line><text fill="currentColor" x="-9" dy="0.32em">0.00%</text></g><g class="tick" opacity="1" transform="translate(0,309.59090909090907)"><line stroke="currentColor" x2="-6"></line><text fill="currentColor" x="-9" dy="0.32em">10.00%</text></g><g class="tick" opacity="1" transform="translate(0,278.6818181818182)"><line stroke="currentColor" x2="-6"></line><text fill="currentColor" x="-9" dy="0.32em">20.00%</text></g><g class="tick" opacity="1" transform="translate(0,247.77272727272728)"><line stroke="currentColor" x2="-6"></line><text fill="currentColor" x="-9" dy="0.32em">30.00%</text></g><g class="tick" opacity="1" transform="translate(0,216.86363636363637)"><line stroke="currentColor" x2="-6"></line><text fill="currentColor" x="-9" dy="0.32em">40.00%</text></g><g class="tick" opacity="1" transform="translate(0,185.95454545454544)"><line stroke="currentColor" x2="-6"></line><text fill="currentColor" x="-9" dy="0.32em">50.00%</text></g><g class="tick" opacity="1" transform="translate(0,155.04545454545456)"><line stroke="currentColor" x2="-6"></line><text fill="currentColor" x="-9" dy="0.32em">60.00%</text></g><g class="tick" opacity="1" transform="translate(0,124.13636363636368)"><line stroke="currentColor" x2="-6"></line><text fill="currentColor" x="-9" dy="0.32em">70.00%</text></g><g class="tick" opacity="1" transform="translate(0,93.22727272727272)"><line stroke="currentColor" x2="-6"></line><text fill="currentColor" x="-9" dy="0.32em">80.00%</text></g><g class="tick" opacity="1" transform="translate(0,62.31818181818184)"><line stroke="currentColor" x2="-6"></line><text fill="currentColor" x="-9" dy="0.32em">90.00%</text></g><g class="tick" opacity="1" transform="translate(0,31.40909090909092)"><line stroke="currentColor" x2="-6"></line><text fill="currentColor" x="-9" dy="0.32em">100.00%</text></g><g class="tick" opacity="1" transform="translate(0,0.5)"><line stroke="currentColor" x2="-6"></line><text fill="currentColor" x="-9" dy="0.32em">110.00%</text></g></g><text transform="rotate(-90)" y="-50" x="-170" dy="1em" style="text-anchor: middle; font-size: 12px; fill: #666;">Pre Rate (%)</text><text transform="translate(360, 380)" style="text-anchor: middle; font-size: 12px; fill: #666;">Time (UTC)</text><path fill="none" stroke="#2563eb" stroke-width="2" d="M0,327.636C4.068,327.636,8.136,327.636,12.203,327.636C16.271,327.636,20.339,327.636,24.407,327.636C28.475,327.636,32.542,327.636,36.61,327.636C40.678,327.636,44.746,327.636,48.814,327.636C52.881,327.636,56.949,327.636,61.017,327.636C65.085,327.636,69.153,327.636,73.22,327.636C77.288,327.636,81.356,327.636,85.424,327.636C89.492,327.636,93.559,327.636,97.627,327.636C101.695,327.636,105.763,327.636,109.831,327.636C113.898,327.636,117.966,327.636,122.034,327.636C126.102,327.636,130.169,327.636,134.237,327.636C138.305,327.636,142.373,327.636,146.441,327.636C150.508,327.636,154.576,327.636,158.644,327.636C162.712,327.636,166.78,327.636,170.847,327.636C174.915,327.636,178.983,327.636,183.051,327.636C187.119,327.636,191.186,327.636,195.254,327.636C199.322,327.636,203.39,327.636,207.458,327.636C211.525,327.636,215.593,327.636,219.661,327.636C223.729,327.636,227.797,327.636,231.864,327.636C235.932,327.636,240,327.636,244.068,327.636C248.136,327.636,252.203,327.636,256.271,327.636C260.339,327.636,264.407,327.636,268.475,327.636C272.542,327.636,276.61,327.636,280.678,327.636C284.746,327.636,288.814,327.636,292.881,327.636C296.949,327.636,301.017,327.636,305.085,327.636C309.153,327.636,313.22,327.636,317.288,327.636C321.356,327.636,325.424,327.636,329.492,327.636C333.559,327.636,337.627,327.636,341.695,327.636C345.763,327.636,349.831,327.636,353.898,327.636C357.966,327.636,362.034,327.636,366.102,327.636C370.169,327.636,374.237,327.636,378.305,327.636C382.373,327.636,386.441,327.636,390.508,327.636C394.576,327.636,398.644,327.636,402.712,327.636C406.78,327.636,410.847,327.636,414.915,327.636C418.983,327.636,423.051,327.636,427.119,327.636C431.186,327.636,435.254,327.636,439.322,327.636C443.39,327.636,447.458,18.545,451.525,18.545C455.593,18.545,459.661,293.636,463.729,306C467.797,318.364,471.864,324.545,475.932,324.545C480,324.545,484.068,324.545,488.136,324.545C492.203,324.545,496.271,324.545,500.339,324.545C504.407,324.545,508.475,324.545,512.542,324.545C516.61,324.545,520.678,324.545,524.746,324.545C528.814,324.545,532.881,324.545,536.949,324.545C541.017,324.545,545.085,324.545,549.153,324.545C553.22,324.545,557.288,324.545,561.356,324.545C565.424,324.545,569.492,324.545,573.559,324.545C577.627,324.545,581.695,324.545,585.763,324.545C589.831,324.545,593.898,324.545,597.966,324.545C602.034,324.545,606.102,324.545,610.169,324.545C614.237,324.545,618.305,324.545,622.373,324.545C626.441,324.545,630.508,324.545,634.576,324.545C638.644,324.545,642.712,324.545,646.78,324.545C650.847,324.545,654.915,324.545,658.983,324.545C663.051,324.545,667.119,324.545,671.186,324.545C675.254,324.545,679.322,324.545,683.39,324.545C687.458,324.545,691.525,324.545,695.593,324.545C699.661,324.545,703.729,324.545,707.797,324.545C711.864,324.545,715.932,324.545,720,324.545"></path><circle class="dot" cx="0" cy="327.6363636363636" r="3" fill="#2563eb"></circle><circle class="dot" cx="12.203389830508474" cy="327.6363636363636" r="3" fill="#2563eb"></circle><circle class="dot" cx="24.406779661016948" cy="327.6363636363636" r="3" fill="#2563eb"></circle><circle class="dot" cx="36.610169491525426" cy="327.6363636363636" r="3" fill="#2563eb"></circle><circle class="dot" cx="48.813559322033896" cy="327.6363636363636" r="3" fill="#2563eb"></circle><circle class="dot" cx="61.01694915254237" cy="327.6363636363636" r="3" fill="#2563eb"></circle><circle class="dot" cx="73.22033898305085" cy="327.6363636363636" r="3" fill="#2563eb"></circle><circle class="dot" cx="85.42372881355932" cy="327.6363636363636" r="3" fill="#2563eb"></circle><circle class="dot" cx="97.62711864406779" cy="327.6363636363636" r="3" fill="#2563eb"></circle><circle class="dot" cx="109.83050847457628" cy="327.6363636363636" r="3" fill="#2563eb"></circle><circle class="dot" cx="122.03389830508473" cy="327.6363636363636" r="3" fill="#2563eb"></circle><circle class="dot" cx="134.23728813559322" cy="327.6363636363636" r="3" fill="#2563eb"></circle><circle class="dot" cx="146.4406779661017" cy="327.6363636363636" r="3" fill="#2563eb"></circle><circle class="dot" cx="158.64406779661016" cy="327.6363636363636" r="3" fill="#2563eb"></circle><circle class="dot" cx="170.84745762711864" cy="327.6363636363636" r="3" fill="#2563eb"></circle><circle class="dot" cx="183.0508474576271" cy="327.6363636363636" r="3" fill="#2563eb"></circle><circle class="dot" cx="195.25423728813558" cy="327.6363636363636" r="3" fill="#2563eb"></circle><circle class="dot" cx="207.45762711864407" cy="327.6363636363636" r="3" fill="#2563eb"></circle><circle class="dot" cx="219.66101694915255" cy="327.6363636363636" r="3" fill="#2563eb"></circle><circle class="dot" cx="231.864406779661" cy="327.6363636363636" r="3" fill="#2563eb"></circle><circle class="dot" cx="244.06779661016947" cy="327.6363636363636" r="3" fill="#2563eb"></circle><circle class="dot" cx="256.271186440678" cy="327.6363636363636" r="3" fill="#2563eb"></circle><circle class="dot" cx="268.47457627118644" cy="327.6363636363636" r="3" fill="#2563eb"></circle><circle class="dot" cx="280.67796610169495" cy="327.6363636363636" r="3" fill="#2563eb"></circle><circle class="dot" cx="292.8813559322034" cy="327.6363636363636" r="3" fill="#2563eb"></circle><circle class="dot" cx="305.08474576271186" cy="327.6363636363636" r="3" fill="#2563eb"></circle><circle class="dot" cx="317.2881355932203" cy="327.6363636363636" r="3" fill="#2563eb"></circle><circle class="dot" cx="329.49152542372883" cy="327.6363636363636" r="3" fill="#2563eb"></circle><circle class="dot" cx="341.6949152542373" cy="327.6363636363636" r="3" fill="#2563eb"></circle><circle class="dot" cx="353.8983050847458" cy="327.6363636363636" r="3" fill="#2563eb"></circle><circle class="dot" cx="366.1016949152542" cy="327.6363636363636" r="3" fill="#2563eb"></circle><circle class="dot" cx="378.30508474576277" cy="327.6363636363636" r="3" fill="#2563eb"></circle><circle class="dot" cx="390.50847457627117" cy="327.6363636363636" r="3" fill="#2563eb"></circle><circle class="dot" cx="402.7118644067796" cy="327.6363636363636" r="3" fill="#2563eb"></circle><circle class="dot" cx="414.91525423728814" cy="327.6363636363636" r="3" fill="#2563eb"></circle><circle class="dot" cx="427.1186440677966" cy="327.6363636363636" r="3" fill="#2563eb"></circle><circle class="dot" cx="439.3220338983051" cy="327.6363636363636" r="3" fill="#2563eb"></circle><circle class="dot" cx="451.52542372881356" cy="18.54545454545455" r="3" fill="#2563eb"></circle><circle class="dot" cx="463.728813559322" cy="306" r="3" fill="#2563eb"></circle><circle class="dot" cx="475.93220338983053" cy="324.54545454545456" r="3" fill="#2563eb"></circle><circle class="dot" cx="488.13559322033893" cy="324.54545454545456" r="3" fill="#2563eb"></circle><circle class="dot" cx="500.3389830508475" cy="324.54545454545456" r="3" fill="#2563eb"></circle><circle class="dot" cx="512.542372881356" cy="324.54545454545456" r="3" fill="#2563eb"></circle><circle class="dot" cx="524.7457627118644" cy="324.54545454545456" r="3" fill="#2563eb"></circle><circle class="dot" cx="536.9491525423729" cy="324.54545454545456" r="3" fill="#2563eb"></circle><circle class="dot" cx="549.1525423728814" cy="324.54545454545456" r="3" fill="#2563eb"></circle><circle class="dot" cx="561.3559322033899" cy="324.54545454545456" r="3" fill="#2563eb"></circle><circle class="dot" cx="573.5593220338983" cy="324.54545454545456" r="3" fill="#2563eb"></circle><circle class="dot" cx="585.7627118644068" cy="324.54545454545456" r="3" fill="#2563eb"></circle><circle class="dot" cx="597.9661016949152" cy="324.54545454545456" r="3" fill="#2563eb"></circle><circle class="dot" cx="610.1694915254237" cy="324.54545454545456" r="3" fill="#2563eb"></circle><circle class="dot" cx="622.3728813559322" cy="324.54545454545456" r="3" fill="#2563eb"></circle><circle class="dot" cx="634.5762711864406" cy="324.54545454545456" r="3" fill="#2563eb"></circle><circle class="dot" cx="646.7796610169491" cy="324.54545454545456" r="3" fill="#2563eb"></circle><circle class="dot" cx="658.9830508474577" cy="324.54545454545456" r="3" fill="#2563eb"></circle><circle class="dot" cx="671.1864406779661" cy="324.54545454545456" r="3" fill="#2563eb"></circle><circle class="dot" cx="683.3898305084746" cy="324.54545454545456" r="3" fill="#2563eb"></circle><circle class="dot" cx="695.5932203389831" cy="324.54545454545456" r="3" fill="#2563eb"></circle><circle class="dot" cx="707.7966101694916" cy="324.54545454545456" r="3" fill="#2563eb"></circle><circle class="dot" cx="720" cy="324.54545454545456" r="3" fill="#2563eb"></circle><g class="grid" transform="translate(0,340)" fill="none" font-size="10" font-family="sans-serif" text-anchor="middle" style="stroke-dasharray: 3,3; opacity: 0.3;"><path class="domain" stroke="currentColor" d="M0.5,-340V0.5H720.5V-340"></path><g class="tick" opacity="1" transform="translate(0.5,0)"><line stroke="currentColor" y2="-340"></line><text fill="currentColor" y="3" dy="0.71em"></text></g><g class="tick" opacity="1" transform="translate(293.3813559322034,0)"><line stroke="currentColor" y2="-340"></line><text fill="currentColor" y="3" dy="0.71em"></text></g><g class="tick" opacity="1" transform="translate(586.2627118644068,0)"><line stroke="currentColor" y2="-340"></line><text fill="currentColor" y="3" dy="0.71em"></text></g></g><g class="grid" fill="none" font-size="10" font-family="sans-serif" text-anchor="end" style="stroke-dasharray: 3,3; opacity: 0.3;"><path class="domain" stroke="currentColor" d="M720,340.5H0.5V0.5H720"></path><g class="tick" opacity="1" transform="translate(0,340.5)"><line stroke="currentColor" x2="720"></line><text fill="currentColor" x="-3" dy="0.32em"></text></g><g class="tick" opacity="1" transform="translate(0,309.59090909090907)"><line stroke="currentColor" x2="720"></line><text fill="currentColor" x="-3" dy="0.32em"></text></g><g class="tick" opacity="1" transform="translate(0,278.6818181818182)"><line stroke="currentColor" x2="720"></line><text fill="currentColor" x="-3" dy="0.32em"></text></g><g class="tick" opacity="1" transform="translate(0,247.77272727272728)"><line stroke="currentColor" x2="720"></line><text fill="currentColor" x="-3" dy="0.32em"></text></g><g class="tick" opacity="1" transform="translate(0,216.86363636363637)"><line stroke="currentColor" x2="720"></line><text fill="currentColor" x="-3" dy="0.32em"></text></g><g class="tick" opacity="1" transform="translate(0,185.95454545454544)"><line stroke="currentColor" x2="720"></line><text fill="currentColor" x="-3" dy="0.32em"></text></g><g class="tick" opacity="1" transform="translate(0,155.04545454545456)"><line stroke="currentColor" x2="720"></line><text fill="currentColor" x="-3" dy="0.32em"></text></g><g class="tick" opacity="1" transform="translate(0,124.13636363636368)"><line stroke="currentColor" x2="720"></line><text fill="currentColor" x="-3" dy="0.32em"></text></g><g class="tick" opacity="1" transform="translate(0,93.22727272727272)"><line stroke="currentColor" x2="720"></line><text fill="currentColor" x="-3" dy="0.32em"></text></g><g class="tick" opacity="1" transform="translate(0,62.31818181818184)"><line stroke="currentColor" x2="720"></line><text fill="currentColor" x="-3" dy="0.32em"></text></g><g class="tick" opacity="1" transform="translate(0,31.40909090909092)"><line stroke="currentColor" x2="720"></line><text fill="currentColor" x="-3" dy="0.32em"></text></g><g class="tick" opacity="1" transform="translate(0,0.5)"><line stroke="currentColor" x2="720"></line><text fill="currentColor" x="-3" dy="0.32em"></text></g></g></g><text x="400" y="10" text-anchor="middle" style="font-size: 16px; font-weight: bold; fill: #333;">OKX USDT Lending Rate - Current Month</text></svg>