<svg width="800" height="400" xmlns="http://www.w3.org/2000/svg"><g transform="translate(50,20)"><g transform="translate(0,340)" fill="none" font-size="10" font-family="sans-serif" text-anchor="middle"><path class="domain" stroke="currentColor" d="M0.5,6V0.5H720.5V6"></path><g class="tick" opacity="1" transform="translate(0.5,0)"><line stroke="currentColor" y2="6"></line><text fill="currentColor" y="9" dy=".15em" style="text-anchor: end;" dx="-.8em" transform="rotate(-45)">04/01</text></g><g class="tick" opacity="1" transform="translate(38.14705882352941,0)"><line stroke="currentColor" y2="6"></line><text fill="currentColor" y="9" dy=".15em" style="text-anchor: end;" dx="-.8em" transform="rotate(-45)">04/02</text></g><g class="tick" opacity="1" transform="translate(75.79411764705883,0)"><line stroke="currentColor" y2="6"></line><text fill="currentColor" y="9" dy=".15em" style="text-anchor: end;" dx="-.8em" transform="rotate(-45)">04/03</text></g><g class="tick" opacity="1" transform="translate(113.44117647058823,0)"><line stroke="currentColor" y2="6"></line><text fill="currentColor" y="9" dy=".15em" style="text-anchor: end;" dx="-.8em" transform="rotate(-45)">04/04</text></g><g class="tick" opacity="1" transform="translate(151.08823529411765,0)"><line stroke="currentColor" y2="6"></line><text fill="currentColor" y="9" dy=".15em" style="text-anchor: end;" dx="-.8em" transform="rotate(-45)">04/05</text></g><g class="tick" opacity="1" transform="translate(188.73529411764707,0)"><line stroke="currentColor" y2="6"></line><text fill="currentColor" y="9" dy=".15em" style="text-anchor: end;" dx="-.8em" transform="rotate(-45)">04/06</text></g><g class="tick" opacity="1" transform="translate(226.38235294117646,0)"><line stroke="currentColor" y2="6"></line><text fill="currentColor" y="9" dy=".15em" style="text-anchor: end;" dx="-.8em" transform="rotate(-45)">04/07</text></g><g class="tick" opacity="1" transform="translate(264.02941176470586,0)"><line stroke="currentColor" y2="6"></line><text fill="currentColor" y="9" dy=".15em" style="text-anchor: end;" dx="-.8em" transform="rotate(-45)">04/08</text></g><g class="tick" opacity="1" transform="translate(301.6764705882353,0)"><line stroke="currentColor" y2="6"></line><text fill="currentColor" y="9" dy=".15em" style="text-anchor: end;" dx="-.8em" transform="rotate(-45)">04/09</text></g><g class="tick" opacity="1" transform="translate(339.3235294117647,0)"><line stroke="currentColor" y2="6"></line><text fill="currentColor" y="9" dy=".15em" style="text-anchor: end;" dx="-.8em" transform="rotate(-45)">04/10</text></g><g class="tick" opacity="1" transform="translate(376.97058823529414,0)"><line stroke="currentColor" y2="6"></line><text fill="currentColor" y="9" dy=".15em" style="text-anchor: end;" dx="-.8em" transform="rotate(-45)">04/11</text></g><g class="tick" opacity="1" transform="translate(414.6176470588235,0)"><line stroke="currentColor" y2="6"></line><text fill="currentColor" y="9" dy=".15em" style="text-anchor: end;" dx="-.8em" transform="rotate(-45)">04/12</text></g><g class="tick" opacity="1" transform="translate(452.2647058823529,0)"><line stroke="currentColor" y2="6"></line><text fill="currentColor" y="9" dy=".15em" style="text-anchor: end;" dx="-.8em" transform="rotate(-45)">04/13</text></g><g class="tick" opacity="1" transform="translate(489.9117647058824,0)"><line stroke="currentColor" y2="6"></line><text fill="currentColor" y="9" dy=".15em" style="text-anchor: end;" dx="-.8em" transform="rotate(-45)">04/14</text></g><g class="tick" opacity="1" transform="translate(527.5588235294117,0)"><line stroke="currentColor" y2="6"></line><text fill="currentColor" y="9" dy=".15em" style="text-anchor: end;" dx="-.8em" transform="rotate(-45)">04/15</text></g><g class="tick" opacity="1" transform="translate(565.2058823529412,0)"><line stroke="currentColor" y2="6"></line><text fill="currentColor" y="9" dy=".15em" style="text-anchor: end;" dx="-.8em" transform="rotate(-45)">04/16</text></g><g class="tick" opacity="1" transform="translate(602.8529411764706,0)"><line stroke="currentColor" y2="6"></line><text fill="currentColor" y="9" dy=".15em" style="text-anchor: end;" dx="-.8em" transform="rotate(-45)">04/17</text></g><g class="tick" opacity="1" transform="translate(640.5,0)"><line stroke="currentColor" y2="6"></line><text fill="currentColor" y="9" dy=".15em" style="text-anchor: end;" dx="-.8em" transform="rotate(-45)">04/18</text></g><g class="tick" opacity="1" transform="translate(678.1470588235294,0)"><line stroke="currentColor" y2="6"></line><text fill="currentColor" y="9" dy=".15em" style="text-anchor: end;" dx="-.8em" transform="rotate(-45)">04/19</text></g><g class="tick" opacity="1" transform="translate(715.7941176470588,0)"><line stroke="currentColor" y2="6"></line><text fill="currentColor" y="9" dy=".15em" style="text-anchor: end;" dx="-.8em" transform="rotate(-45)">04/20</text></g></g><g fill="none" font-size="10" font-family="sans-serif" text-anchor="end"><path class="domain" stroke="currentColor" d="M-6,340.5H0.5V0.5H-6"></path><g class="tick" opacity="1" transform="translate(0,170.5)"><line stroke="currentColor" x2="-6"></line><text fill="currentColor" x="-9" dy="0.32em">2.50%</text></g></g><text transform="rotate(-90)" y="-50" x="-170" dy="1em" style="text-anchor: middle; font-size: 12px; fill: #666;">Pre Rate (%)</text><text transform="translate(360, 380)" style="text-anchor: middle; font-size: 12px; fill: #666;">Time (UTC)</text><path fill="none" stroke="#2563eb" stroke-width="2" d="M0,170C0.523,170,1.046,170,1.569,170C2.092,170,2.614,170,3.137,170C3.66,170,4.183,170,4.706,170C5.229,170,5.752,170,6.275,170C6.797,170,7.32,170,7.843,170C8.366,170,8.889,170,9.412,170C9.935,170,10.458,170,10.98,170C11.503,170,12.026,170,12.549,170C13.072,170,13.595,170,14.118,170C14.641,170,15.163,170,15.686,170C16.209,170,16.732,170,17.255,170C17.778,170,18.301,170,18.824,170C19.346,170,19.869,170,20.392,170C20.915,170,21.438,170,21.961,170C22.484,170,23.007,170,23.529,170C24.052,170,24.575,170,25.098,170C25.621,170,26.144,170,26.667,170C27.19,170,27.712,170,28.235,170C28.758,170,29.281,170,29.804,170C30.327,170,30.85,170,31.373,170C31.895,170,32.418,170,32.941,170C33.464,170,33.987,170,34.51,170C35.033,170,35.556,170,36.078,170C36.601,170,37.124,170,37.647,170C38.17,170,38.693,170,39.216,170C39.739,170,40.261,170,40.784,170C41.307,170,41.83,170,42.353,170C42.876,170,43.399,170,43.922,170C44.444,170,44.967,170,45.49,170C46.013,170,46.536,170,47.059,170C47.582,170,48.105,170,48.627,170C49.15,170,49.673,170,50.196,170C50.719,170,51.242,170,51.765,170C52.288,170,52.81,170,53.333,170C53.856,170,54.379,170,54.902,170C55.425,170,55.948,170,56.471,170C56.993,170,57.516,170,58.039,170C58.562,170,59.085,170,59.608,170C60.131,170,60.654,170,61.176,170C61.699,170,62.222,170,62.745,170C63.268,170,63.791,170,64.314,170C64.837,170,65.359,170,65.882,170C66.405,170,66.928,170,67.451,170C67.974,170,68.497,170,69.02,170C69.542,170,70.065,170,70.588,170C71.111,170,71.634,170,72.157,170C72.68,170,73.203,170,73.725,170C74.248,170,74.771,170,75.294,170C75.817,170,76.34,170,76.863,170C77.386,170,77.908,170,78.431,170C78.954,170,79.477,170,80,170C80.523,170,81.046,170,81.569,170C82.092,170,82.614,170,83.137,170C83.66,170,84.183,170,84.706,170C85.229,170,85.752,170,86.275,170C86.797,170,87.32,170,87.843,170C88.366,170,88.889,170,89.412,170C89.935,170,90.458,170,90.98,170C91.503,170,92.026,170,92.549,170C93.072,170,93.595,170,94.118,170C94.641,170,95.163,170,95.686,170C96.209,170,96.732,170,97.255,170C97.778,170,98.301,170,98.824,170C99.346,170,99.869,170,100.392,170C100.915,170,101.438,170,101.961,170C102.484,170,103.007,170,103.529,170C104.052,170,104.575,170,105.098,170C105.621,170,106.144,170,106.667,170C107.19,170,107.712,170,108.235,170C108.758,170,109.281,170,109.804,170C110.327,170,110.85,170,111.373,170C111.895,170,112.418,170,112.941,170C113.464,170,113.987,170,114.51,170C115.033,170,115.556,170,116.078,170C116.601,170,117.124,170,117.647,170C118.17,170,118.693,170,119.216,170C119.739,170,120.261,170,120.784,170C121.307,170,121.83,170,122.353,170C122.876,170,123.399,170,123.922,170C124.444,170,124.967,170,125.49,170C126.013,170,126.536,170,127.059,170C127.582,170,128.105,170,128.627,170C129.15,170,129.673,170,130.196,170C130.719,170,131.242,170,131.765,170C132.288,170,132.81,170,133.333,170C133.856,170,134.379,170,134.902,170C135.425,170,135.948,170,136.471,170C136.993,170,137.516,170,138.039,170C138.562,170,139.085,170,139.608,170C140.131,170,140.654,170,141.176,170C141.699,170,142.222,170,142.745,170C143.268,170,143.791,170,144.314,170C144.837,170,145.359,170,145.882,170C146.405,170,146.928,170,147.451,170C147.974,170,148.497,170,149.02,170C149.542,170,150.065,170,150.588,170C151.111,170,151.634,170,152.157,170C152.68,170,153.203,170,153.725,170C154.248,170,154.771,170,155.294,170C155.817,170,156.34,170,156.863,170C157.386,170,157.908,170,158.431,170C158.954,170,159.477,170,160,170C160.523,170,161.046,170,161.569,170C162.092,170,162.614,170,163.137,170C163.66,170,164.183,170,164.706,170C165.229,170,165.752,170,166.275,170C166.797,170,167.32,170,167.843,170C168.366,170,168.889,170,169.412,170C169.935,170,170.458,170,170.98,170C171.503,170,172.026,170,172.549,170C173.072,170,173.595,170,174.118,170C174.641,170,175.163,170,175.686,170C176.209,170,176.732,170,177.255,170C177.778,170,178.301,170,178.824,170C179.346,170,179.869,170,180.392,170C180.915,170,181.438,170,181.961,170C182.484,170,183.007,170,183.529,170C184.052,170,184.575,170,185.098,170C185.621,170,186.144,170,186.667,170C187.19,170,187.712,170,188.235,170C188.758,170,189.281,170,189.804,170C190.327,170,190.85,170,191.373,170C191.895,170,192.418,170,192.941,170C193.464,170,193.987,170,194.51,170C195.033,170,195.556,170,196.078,170C196.601,170,197.124,170,197.647,170C198.17,170,198.693,170,199.216,170C199.739,170,200.261,170,200.784,170C201.307,170,201.83,170,202.353,170C202.876,170,203.399,170,203.922,170C204.444,170,204.967,170,205.49,170C206.013,170,206.536,170,207.059,170C207.582,170,208.105,170,208.627,170C209.15,170,209.673,170,210.196,170C210.719,170,211.242,170,211.765,170C212.288,170,212.81,170,213.333,170C213.856,170,214.379,170,214.902,170C215.425,170,215.948,170,216.471,170C216.993,170,217.516,170,218.039,170C218.562,170,219.085,170,219.608,170C220.131,170,220.654,170,221.176,170C221.699,170,222.222,170,222.745,170C223.268,170,223.791,170,224.314,170C224.837,170,225.359,170,225.882,170C226.405,170,226.928,170,227.451,170C227.974,170,228.497,170,229.02,170C229.542,170,230.065,170,230.588,170C231.111,170,231.634,170,232.157,170C232.68,170,233.203,170,233.725,170C234.248,170,234.771,170,235.294,170C235.817,170,236.34,170,236.863,170C237.386,170,237.908,170,238.431,170C238.954,170,239.477,170,240,170C240.523,170,241.046,170,241.569,170C242.092,170,242.614,170,243.137,170C243.66,170,244.183,170,244.706,170C245.229,170,245.752,170,246.275,170C246.797,170,247.32,170,247.843,170C248.366,170,248.889,170,249.412,170C249.935,170,250.458,170,250.98,170C251.503,170,252.026,170,252.549,170C253.072,170,253.595,170,254.118,170C254.641,170,255.163,170,255.686,170C256.209,170,256.732,170,257.255,170C257.778,170,258.301,170,258.824,170C259.346,170,259.869,170,260.392,170C260.915,170,261.438,170,261.961,170C262.484,170,263.007,170,263.529,170C264.052,170,264.575,170,265.098,170C265.621,170,266.144,170,266.667,170C267.19,170,267.712,170,268.235,170C268.758,170,269.281,170,269.804,170C270.327,170,270.85,170,271.373,170C271.895,170,272.418,170,272.941,170C273.464,170,273.987,170,274.51,170C275.033,170,275.556,170,276.078,170C276.601,170,277.124,170,277.647,170C278.17,170,278.693,170,279.216,170C279.739,170,280.261,170,280.784,170C281.307,170,281.83,170,282.353,170C282.876,170,283.399,170,283.922,170C284.444,170,284.967,170,285.49,170C286.013,170,286.536,170,287.059,170C287.582,170,288.105,170,288.627,170C289.15,170,289.673,170,290.196,170C290.719,170,291.242,170,291.765,170C292.288,170,292.81,170,293.333,170C293.856,170,294.379,170,294.902,170C295.425,170,295.948,170,296.471,170C296.993,170,297.516,170,298.039,170C298.562,170,299.085,170,299.608,170C300.131,170,300.654,170,301.176,170C301.699,170,302.222,170,302.745,170C303.268,170,303.791,170,304.314,170C304.837,170,305.359,170,305.882,170C306.405,170,306.928,170,307.451,170C307.974,170,308.497,170,309.02,170C309.542,170,310.065,170,310.588,170C311.111,170,311.634,170,312.157,170C312.68,170,313.203,170,313.725,170C314.248,170,314.771,170,315.294,170C315.817,170,316.34,170,316.863,170C317.386,170,317.908,170,318.431,170C318.954,170,319.477,170,320,170C320.523,170,321.046,170,321.569,170C322.092,170,322.614,170,323.137,170C323.66,170,324.183,170,324.706,170C325.229,170,325.752,170,326.275,170C326.797,170,327.32,170,327.843,170C328.366,170,328.889,170,329.412,170C329.935,170,330.458,170,330.98,170C331.503,170,332.026,170,332.549,170C333.072,170,333.595,170,334.118,170C334.641,170,335.163,170,335.686,170C336.209,170,336.732,170,337.255,170C337.778,170,338.301,170,338.824,170C339.346,170,339.869,170,340.392,170C340.915,170,341.438,170,341.961,170C342.484,170,343.007,170,343.529,170C344.052,170,344.575,170,345.098,170C345.621,170,346.144,170,346.667,170C347.19,170,347.712,170,348.235,170C348.758,170,349.281,170,349.804,170C350.327,170,350.85,170,351.373,170C351.895,170,352.418,170,352.941,170C353.464,170,353.987,170,354.51,170C355.033,170,355.556,170,356.078,170C356.601,170,357.124,170,357.647,170C358.17,170,358.693,170,359.216,170C359.739,170,360.261,170,360.784,170C361.307,170,361.83,170,362.353,170C362.876,170,363.399,170,363.922,170C364.444,170,364.967,170,365.49,170C366.013,170,366.536,170,367.059,170C367.582,170,368.105,170,368.627,170C369.15,170,369.673,170,370.196,170C370.719,170,371.242,170,371.765,170C372.288,170,372.81,170,373.333,170C373.856,170,374.379,170,374.902,170C375.425,170,375.948,170,376.471,170C376.993,170,377.516,170,378.039,170C378.562,170,379.085,170,379.608,170C380.131,170,380.654,170,381.176,170C381.699,170,382.222,170,382.745,170C383.268,170,383.791,170,384.314,170C384.837,170,385.359,170,385.882,170C386.405,170,386.928,170,387.451,170C387.974,170,388.497,170,389.02,170C389.542,170,390.065,170,390.588,170C391.111,170,391.634,170,392.157,170C392.68,170,393.203,170,393.725,170C394.248,170,394.771,170,395.294,170C395.817,170,396.34,170,396.863,170C397.386,170,397.908,170,398.431,170C398.954,170,399.477,170,400,170C400.523,170,401.046,170,401.569,170C402.092,170,402.614,170,403.137,170C403.66,170,404.183,170,404.706,170C405.229,170,405.752,170,406.275,170C406.797,170,407.32,170,407.843,170C408.366,170,408.889,170,409.412,170C409.935,170,410.458,170,410.98,170C411.503,170,412.026,170,412.549,170C413.072,170,413.595,170,414.118,170C414.641,170,415.163,170,415.686,170C416.209,170,416.732,170,417.255,170C417.778,170,418.301,170,418.824,170C419.346,170,419.869,170,420.392,170C420.915,170,421.438,170,421.961,170C422.484,170,423.007,170,423.529,170C424.052,170,424.575,170,425.098,170C425.621,170,426.144,170,426.667,170C427.19,170,427.712,170,428.235,170C428.758,170,429.281,170,429.804,170C430.327,170,430.85,170,431.373,170C431.895,170,432.418,170,432.941,170C433.464,170,433.987,170,434.51,170C435.033,170,435.556,170,436.078,170C436.601,170,437.124,170,437.647,170C438.17,170,438.693,170,439.216,170C439.739,170,440.261,170,440.784,170C441.307,170,441.83,170,442.353,170C442.876,170,443.399,170,443.922,170C444.444,170,444.967,170,445.49,170C446.013,170,446.536,170,447.059,170C447.582,170,448.105,170,448.627,170C449.15,170,449.673,170,450.196,170C450.719,170,451.242,170,451.765,170C452.288,170,452.81,170,453.333,170C453.856,170,454.379,170,454.902,170C455.425,170,455.948,170,456.471,170C456.993,170,457.516,170,458.039,170C458.562,170,459.085,170,459.608,170C460.131,170,460.654,170,461.176,170C461.699,170,462.222,170,462.745,170C463.268,170,463.791,170,464.314,170C464.837,170,465.359,170,465.882,170C466.405,170,466.928,170,467.451,170C467.974,170,468.497,170,469.02,170C469.542,170,470.065,170,470.588,170C471.111,170,471.634,170,472.157,170C472.68,170,473.203,170,473.725,170C474.248,170,474.771,170,475.294,170C475.817,170,476.34,170,476.863,170C477.386,170,477.908,170,478.431,170C478.954,170,479.477,170,480,170C480.523,170,481.046,170,481.569,170C482.092,170,482.614,170,483.137,170C483.66,170,484.183,170,484.706,170C485.229,170,485.752,170,486.275,170C486.797,170,487.32,170,487.843,170C488.366,170,488.889,170,489.412,170C489.935,170,490.458,170,490.98,170C491.503,170,492.026,170,492.549,170C493.072,170,493.595,170,494.118,170C494.641,170,495.163,170,495.686,170C496.209,170,496.732,170,497.255,170C497.778,170,498.301,170,498.824,170C499.346,170,499.869,170,500.392,170C500.915,170,501.438,170,501.961,170C502.484,170,503.007,170,503.529,170C504.052,170,504.575,170,505.098,170C505.621,170,506.144,170,506.667,170C507.19,170,507.712,170,508.235,170C508.758,170,509.281,170,509.804,170C510.327,170,510.85,170,511.373,170C511.895,170,512.418,170,512.941,170C513.464,170,513.987,170,514.51,170C515.033,170,515.556,170,516.078,170C516.601,170,517.124,170,517.647,170C518.17,170,518.693,170,519.216,170C519.739,170,520.261,170,520.784,170C521.307,170,521.83,170,522.353,170C522.876,170,523.399,170,523.922,170C524.444,170,524.967,170,525.49,170C526.013,170,526.536,170,527.059,170C527.582,170,528.105,170,528.627,170C529.15,170,529.673,170,530.196,170C530.719,170,531.242,170,531.765,170C532.288,170,532.81,170,533.333,170C533.856,170,534.379,170,534.902,170C535.425,170,535.948,170,536.471,170C536.993,170,537.516,170,538.039,170C538.562,170,539.085,170,539.608,170C540.131,170,540.654,170,541.176,170C541.699,170,542.222,170,542.745,170C543.268,170,543.791,170,544.314,170C544.837,170,545.359,170,545.882,170C546.405,170,546.928,170,547.451,170C547.974,170,548.497,170,549.02,170C549.542,170,550.065,170,550.588,170C551.111,170,551.634,170,552.157,170C552.68,170,553.203,170,553.725,170C554.248,170,554.771,170,555.294,170C555.817,170,556.34,170,556.863,170C557.386,170,557.908,170,558.431,170C558.954,170,559.477,170,560,170C560.523,170,561.046,170,561.569,170C562.092,170,562.614,170,563.137,170C563.66,170,564.183,170,564.706,170C565.229,170,565.752,170,566.275,170C566.797,170,567.32,170,567.843,170C568.366,170,568.889,170,569.412,170C569.935,170,570.458,170,570.98,170C571.503,170,572.026,170,572.549,170C573.072,170,573.595,170,574.118,170C574.641,170,575.163,170,575.686,170C576.209,170,576.732,170,577.255,170C577.778,170,578.301,170,578.824,170C579.346,170,579.869,170,580.392,170C580.915,170,581.438,170,581.961,170C582.484,170,583.007,170,583.529,170C584.052,170,584.575,170,585.098,170C585.621,170,586.144,170,586.667,170C587.19,170,587.712,170,588.235,170C588.758,170,589.281,170,589.804,170C590.327,170,590.85,170,591.373,170C591.895,170,592.418,170,592.941,170C593.464,170,593.987,170,594.51,170C595.033,170,595.556,170,596.078,170C596.601,170,597.124,170,597.647,170C598.17,170,598.693,170,599.216,170C599.739,170,600.261,170,600.784,170C601.307,170,601.83,170,602.353,170C602.876,170,603.399,170,603.922,170C604.444,170,604.967,170,605.49,170C606.013,170,606.536,170,607.059,170C607.582,170,608.105,170,608.627,170C609.15,170,609.673,170,610.196,170C610.719,170,611.242,170,611.765,170C612.288,170,612.81,170,613.333,170C613.856,170,614.379,170,614.902,170C615.425,170,615.948,170,616.471,170C616.993,170,617.516,170,618.039,170C618.562,170,619.085,170,619.608,170C620.131,170,620.654,170,621.176,170C621.699,170,622.222,170,622.745,170C623.268,170,623.791,170,624.314,170C624.837,170,625.359,170,625.882,170C626.405,170,626.928,170,627.451,170C627.974,170,628.497,170,629.02,170C629.542,170,630.065,170,630.588,170C631.111,170,631.634,170,632.157,170C632.68,170,633.203,170,633.725,170C634.248,170,634.771,170,635.294,170C635.817,170,636.34,170,636.863,170C637.386,170,637.908,170,638.431,170C638.954,170,639.477,170,640,170C640.523,170,641.046,170,641.569,170C642.092,170,642.614,170,643.137,170C643.66,170,644.183,170,644.706,170C645.229,170,645.752,170,646.275,170C646.797,170,647.32,170,647.843,170C648.366,170,648.889,170,649.412,170C649.935,170,650.458,170,650.98,170C651.503,170,652.026,170,652.549,170C653.072,170,653.595,170,654.118,170C654.641,170,655.163,170,655.686,170C656.209,170,656.732,170,657.255,170C657.778,170,658.301,170,658.824,170C659.346,170,659.869,170,660.392,170C660.915,170,661.438,170,661.961,170C662.484,170,663.007,170,663.529,170C664.052,170,664.575,170,665.098,170C665.621,170,666.144,170,666.667,170C667.19,170,667.712,170,668.235,170C668.758,170,669.281,170,669.804,170C670.327,170,670.85,170,671.373,170C671.895,170,672.418,170,672.941,170C673.464,170,673.987,170,674.51,170C675.033,170,675.556,170,676.078,170C676.601,170,677.124,170,677.647,170C678.17,170,678.693,170,679.216,170C679.739,170,680.261,170,680.784,170C681.307,170,681.83,170,682.353,170C682.876,170,683.399,170,683.922,170C684.444,170,684.967,170,685.49,170C686.013,170,686.536,170,687.059,170C687.582,170,688.105,170,688.627,170C689.15,170,689.673,170,690.196,170C690.719,170,691.242,170,691.765,170C692.288,170,692.81,170,693.333,170C693.856,170,694.379,170,694.902,170C695.425,170,695.948,170,696.471,170C696.993,170,697.516,170,698.039,170C698.562,170,699.085,170,699.608,170C700.131,170,700.654,170,701.176,170C701.699,170,702.222,170,702.745,170C703.268,170,703.791,170,704.314,170C704.837,170,705.359,170,705.882,170C706.405,170,706.928,170,707.451,170C707.974,170,708.497,170,709.02,170C709.542,170,710.065,170,710.588,170C711.111,170,711.634,170,712.157,170C712.68,170,713.203,170,713.725,170C714.248,170,714.771,170,715.294,170C715.817,170,716.34,170,716.863,170C717.386,170,717.908,170,718.431,170C718.954,170,719.477,170,720,170"></path><circle class="dot" cx="0" cy="170" r="3" fill="#2563eb"></circle><circle class="dot" cx="1.5686274509803924" cy="170" r="3" fill="#2563eb"></circle><circle class="dot" cx="3.1372549019607847" cy="170" r="3" fill="#2563eb"></circle><circle class="dot" cx="4.705882352941177" cy="170" r="3" fill="#2563eb"></circle><circle class="dot" cx="6.274509803921569" cy="170" r="3" fill="#2563eb"></circle><circle class="dot" cx="7.843137254901961" cy="170" r="3" fill="#2563eb"></circle><circle class="dot" cx="9.411764705882353" cy="170" r="3" fill="#2563eb"></circle><circle class="dot" cx="10.980392156862745" cy="170" r="3" fill="#2563eb"></circle><circle class="dot" cx="12.549019607843139" cy="170" r="3" fill="#2563eb"></circle><circle class="dot" cx="14.117647058823529" cy="170" r="3" fill="#2563eb"></circle><circle class="dot" cx="15.686274509803923" cy="170" r="3" fill="#2563eb"></circle><circle class="dot" cx="17.254901960784313" cy="170" r="3" fill="#2563eb"></circle><circle class="dot" cx="18.823529411764707" cy="170" r="3" fill="#2563eb"></circle><circle class="dot" cx="20.392156862745097" cy="170" r="3" fill="#2563eb"></circle><circle class="dot" cx="21.96078431372549" cy="170" r="3" fill="#2563eb"></circle><circle class="dot" cx="23.529411764705884" cy="170" r="3" fill="#2563eb"></circle><circle class="dot" cx="25.098039215686278" cy="170" r="3" fill="#2563eb"></circle><circle class="dot" cx="26.666666666666664" cy="170" r="3" fill="#2563eb"></circle><circle class="dot" cx="28.235294117647058" cy="170" r="3" fill="#2563eb"></circle><circle class="dot" cx="29.80392156862745" cy="170" r="3" fill="#2563eb"></circle><circle class="dot" cx="31.372549019607845" cy="170" r="3" fill="#2563eb"></circle><circle class="dot" cx="32.94117647058823" cy="170" r="3" fill="#2563eb"></circle><circle class="dot" cx="34.509803921568626" cy="170" r="3" fill="#2563eb"></circle><circle class="dot" cx="36.07843137254902" cy="170" r="3" fill="#2563eb"></circle><circle class="dot" cx="37.64705882352941" cy="170" r="3" fill="#2563eb"></circle><circle class="dot" cx="39.21568627450981" cy="170" r="3" fill="#2563eb"></circle><circle class="dot" cx="40.78431372549019" cy="170" r="3" fill="#2563eb"></circle><circle class="dot" cx="42.35294117647059" cy="170" r="3" fill="#2563eb"></circle><circle class="dot" cx="43.92156862745098" cy="170" r="3" fill="#2563eb"></circle><circle class="dot" cx="45.490196078431374" cy="170" r="3" fill="#2563eb"></circle><circle class="dot" cx="47.05882352941177" cy="170" r="3" fill="#2563eb"></circle><circle class="dot" cx="48.62745098039216" cy="170" r="3" fill="#2563eb"></circle><circle class="dot" cx="50.196078431372555" cy="170" r="3" fill="#2563eb"></circle><circle class="dot" cx="51.764705882352935" cy="170" r="3" fill="#2563eb"></circle><circle class="dot" cx="53.33333333333333" cy="170" r="3" fill="#2563eb"></circle><circle class="dot" cx="54.90196078431372" cy="170" r="3" fill="#2563eb"></circle><circle class="dot" cx="56.470588235294116" cy="170" r="3" fill="#2563eb"></circle><circle class="dot" cx="58.03921568627451" cy="170" r="3" fill="#2563eb"></circle><circle class="dot" cx="59.6078431372549" cy="170" r="3" fill="#2563eb"></circle><circle class="dot" cx="61.1764705882353" cy="170" r="3" fill="#2563eb"></circle><circle class="dot" cx="62.74509803921569" cy="170" r="3" fill="#2563eb"></circle><circle class="dot" cx="64.31372549019608" cy="170" r="3" fill="#2563eb"></circle><circle class="dot" cx="65.88235294117646" cy="170" r="3" fill="#2563eb"></circle><circle class="dot" cx="67.45098039215686" cy="170" r="3" fill="#2563eb"></circle><circle class="dot" cx="69.01960784313725" cy="170" r="3" fill="#2563eb"></circle><circle class="dot" cx="70.58823529411765" cy="170" r="3" fill="#2563eb"></circle><circle class="dot" cx="72.15686274509804" cy="170" r="3" fill="#2563eb"></circle><circle class="dot" cx="73.72549019607844" cy="170" r="3" fill="#2563eb"></circle><circle class="dot" cx="75.29411764705883" cy="170" r="3" fill="#2563eb"></circle><circle class="dot" cx="76.86274509803921" cy="170" r="3" fill="#2563eb"></circle><circle class="dot" cx="78.43137254901961" cy="170" r="3" fill="#2563eb"></circle><circle class="dot" cx="80" cy="170" r="3" fill="#2563eb"></circle><circle class="dot" cx="81.56862745098039" cy="170" r="3" fill="#2563eb"></circle><circle class="dot" cx="83.13725490196079" cy="170" r="3" fill="#2563eb"></circle><circle class="dot" cx="84.70588235294117" cy="170" r="3" fill="#2563eb"></circle><circle class="dot" cx="86.27450980392157" cy="170" r="3" fill="#2563eb"></circle><circle class="dot" cx="87.84313725490196" cy="170" r="3" fill="#2563eb"></circle><circle class="dot" cx="89.41176470588235" cy="170" r="3" fill="#2563eb"></circle><circle class="dot" cx="90.98039215686275" cy="170" r="3" fill="#2563eb"></circle><circle class="dot" cx="92.54901960784314" cy="170" r="3" fill="#2563eb"></circle><circle class="dot" cx="94.11764705882354" cy="170" r="3" fill="#2563eb"></circle><circle class="dot" cx="95.68627450980392" cy="170" r="3" fill="#2563eb"></circle><circle class="dot" cx="97.25490196078432" cy="170" r="3" fill="#2563eb"></circle><circle class="dot" cx="98.82352941176471" cy="170" r="3" fill="#2563eb"></circle><circle class="dot" cx="100.39215686274511" cy="170" r="3" fill="#2563eb"></circle><circle class="dot" cx="101.96078431372548" cy="170" r="3" fill="#2563eb"></circle><circle class="dot" cx="103.52941176470587" cy="170" r="3" fill="#2563eb"></circle><circle class="dot" cx="105.09803921568627" cy="170" r="3" fill="#2563eb"></circle><circle class="dot" cx="106.66666666666666" cy="170" r="3" fill="#2563eb"></circle><circle class="dot" cx="108.23529411764706" cy="170" r="3" fill="#2563eb"></circle><circle class="dot" cx="109.80392156862744" cy="170" r="3" fill="#2563eb"></circle><circle class="dot" cx="111.37254901960785" cy="170" r="3" fill="#2563eb"></circle><circle class="dot" cx="112.94117647058823" cy="170" r="3" fill="#2563eb"></circle><circle class="dot" cx="114.50980392156863" cy="170" r="3" fill="#2563eb"></circle><circle class="dot" cx="116.07843137254902" cy="170" r="3" fill="#2563eb"></circle><circle class="dot" cx="117.64705882352942" cy="170" r="3" fill="#2563eb"></circle><circle class="dot" cx="119.2156862745098" cy="170" r="3" fill="#2563eb"></circle><circle class="dot" cx="120.7843137254902" cy="170" r="3" fill="#2563eb"></circle><circle class="dot" cx="122.3529411764706" cy="170" r="3" fill="#2563eb"></circle><circle class="dot" cx="123.92156862745098" cy="170" r="3" fill="#2563eb"></circle><circle class="dot" cx="125.49019607843138" cy="170" r="3" fill="#2563eb"></circle><circle class="dot" cx="127.05882352941177" cy="170" r="3" fill="#2563eb"></circle><circle class="dot" cx="128.62745098039215" cy="170" r="3" fill="#2563eb"></circle><circle class="dot" cx="130.19607843137254" cy="170" r="3" fill="#2563eb"></circle><circle class="dot" cx="131.76470588235293" cy="170" r="3" fill="#2563eb"></circle><circle class="dot" cx="133.33333333333331" cy="170" r="3" fill="#2563eb"></circle><circle class="dot" cx="134.90196078431373" cy="170" r="3" fill="#2563eb"></circle><circle class="dot" cx="136.47058823529412" cy="170" r="3" fill="#2563eb"></circle><circle class="dot" cx="138.0392156862745" cy="170" r="3" fill="#2563eb"></circle><circle class="dot" cx="139.6078431372549" cy="170" r="3" fill="#2563eb"></circle><circle class="dot" cx="141.1764705882353" cy="170" r="3" fill="#2563eb"></circle><circle class="dot" cx="142.7450980392157" cy="170" r="3" fill="#2563eb"></circle><circle class="dot" cx="144.31372549019608" cy="170" r="3" fill="#2563eb"></circle><circle class="dot" cx="145.88235294117646" cy="170" r="3" fill="#2563eb"></circle><circle class="dot" cx="147.45098039215688" cy="170" r="3" fill="#2563eb"></circle><circle class="dot" cx="149.01960784313727" cy="170" r="3" fill="#2563eb"></circle><circle class="dot" cx="150.58823529411765" cy="170" r="3" fill="#2563eb"></circle><circle class="dot" cx="152.15686274509804" cy="170" r="3" fill="#2563eb"></circle><circle class="dot" cx="153.72549019607843" cy="170" r="3" fill="#2563eb"></circle><circle class="dot" cx="155.29411764705884" cy="170" r="3" fill="#2563eb"></circle><circle class="dot" cx="156.86274509803923" cy="170" r="3" fill="#2563eb"></circle><circle class="dot" cx="158.43137254901958" cy="170" r="3" fill="#2563eb"></circle><circle class="dot" cx="160" cy="170" r="3" fill="#2563eb"></circle><circle class="dot" cx="161.5686274509804" cy="170" r="3" fill="#2563eb"></circle><circle class="dot" cx="163.13725490196077" cy="170" r="3" fill="#2563eb"></circle><circle class="dot" cx="164.70588235294116" cy="170" r="3" fill="#2563eb"></circle><circle class="dot" cx="166.27450980392157" cy="170" r="3" fill="#2563eb"></circle><circle class="dot" cx="167.84313725490196" cy="170" r="3" fill="#2563eb"></circle><circle class="dot" cx="169.41176470588235" cy="170" r="3" fill="#2563eb"></circle><circle class="dot" cx="170.98039215686273" cy="170" r="3" fill="#2563eb"></circle><circle class="dot" cx="172.54901960784315" cy="170" r="3" fill="#2563eb"></circle><circle class="dot" cx="174.11764705882354" cy="170" r="3" fill="#2563eb"></circle><circle class="dot" cx="175.68627450980392" cy="170" r="3" fill="#2563eb"></circle><circle class="dot" cx="177.2549019607843" cy="170" r="3" fill="#2563eb"></circle><circle class="dot" cx="178.8235294117647" cy="170" r="3" fill="#2563eb"></circle><circle class="dot" cx="180.39215686274508" cy="170" r="3" fill="#2563eb"></circle><circle class="dot" cx="181.9607843137255" cy="170" r="3" fill="#2563eb"></circle><circle class="dot" cx="183.52941176470586" cy="170" r="3" fill="#2563eb"></circle><circle class="dot" cx="185.09803921568627" cy="170" r="3" fill="#2563eb"></circle><circle class="dot" cx="186.66666666666666" cy="170" r="3" fill="#2563eb"></circle><circle class="dot" cx="188.23529411764707" cy="170" r="3" fill="#2563eb"></circle><circle class="dot" cx="189.80392156862743" cy="170" r="3" fill="#2563eb"></circle><circle class="dot" cx="191.37254901960785" cy="170" r="3" fill="#2563eb"></circle><circle class="dot" cx="192.94117647058823" cy="170" r="3" fill="#2563eb"></circle><circle class="dot" cx="194.50980392156865" cy="170" r="3" fill="#2563eb"></circle><circle class="dot" cx="196.078431372549" cy="170" r="3" fill="#2563eb"></circle><circle class="dot" cx="197.64705882352942" cy="170" r="3" fill="#2563eb"></circle><circle class="dot" cx="199.2156862745098" cy="170" r="3" fill="#2563eb"></circle><circle class="dot" cx="200.78431372549022" cy="170" r="3" fill="#2563eb"></circle><circle class="dot" cx="202.35294117647058" cy="170" r="3" fill="#2563eb"></circle><circle class="dot" cx="203.92156862745097" cy="170" r="3" fill="#2563eb"></circle><circle class="dot" cx="205.49019607843138" cy="170" r="3" fill="#2563eb"></circle><circle class="dot" cx="207.05882352941174" cy="170" r="3" fill="#2563eb"></circle><circle class="dot" cx="208.62745098039215" cy="170" r="3" fill="#2563eb"></circle><circle class="dot" cx="210.19607843137254" cy="170" r="3" fill="#2563eb"></circle><circle class="dot" cx="211.76470588235296" cy="170" r="3" fill="#2563eb"></circle><circle class="dot" cx="213.33333333333331" cy="170" r="3" fill="#2563eb"></circle><circle class="dot" cx="214.90196078431373" cy="170" r="3" fill="#2563eb"></circle><circle class="dot" cx="216.47058823529412" cy="170" r="3" fill="#2563eb"></circle><circle class="dot" cx="218.03921568627453" cy="170" r="3" fill="#2563eb"></circle><circle class="dot" cx="219.6078431372549" cy="170" r="3" fill="#2563eb"></circle><circle class="dot" cx="221.1764705882353" cy="170" r="3" fill="#2563eb"></circle><circle class="dot" cx="222.7450980392157" cy="170" r="3" fill="#2563eb"></circle><circle class="dot" cx="224.3137254901961" cy="170" r="3" fill="#2563eb"></circle><circle class="dot" cx="225.88235294117646" cy="170" r="3" fill="#2563eb"></circle><circle class="dot" cx="227.45098039215688" cy="170" r="3" fill="#2563eb"></circle><circle class="dot" cx="229.01960784313727" cy="170" r="3" fill="#2563eb"></circle><circle class="dot" cx="230.58823529411762" cy="170" r="3" fill="#2563eb"></circle><circle class="dot" cx="232.15686274509804" cy="170" r="3" fill="#2563eb"></circle><circle class="dot" cx="233.72549019607843" cy="170" r="3" fill="#2563eb"></circle><circle class="dot" cx="235.29411764705884" cy="170" r="3" fill="#2563eb"></circle><circle class="dot" cx="236.8627450980392" cy="170" r="3" fill="#2563eb"></circle><circle class="dot" cx="238.4313725490196" cy="170" r="3" fill="#2563eb"></circle><circle class="dot" cx="240" cy="170" r="3" fill="#2563eb"></circle><circle class="dot" cx="241.5686274509804" cy="170" r="3" fill="#2563eb"></circle><circle class="dot" cx="243.13725490196077" cy="170" r="3" fill="#2563eb"></circle><circle class="dot" cx="244.7058823529412" cy="170" r="3" fill="#2563eb"></circle><circle class="dot" cx="246.27450980392155" cy="170" r="3" fill="#2563eb"></circle><circle class="dot" cx="247.84313725490196" cy="170" r="3" fill="#2563eb"></circle><circle class="dot" cx="249.41176470588235" cy="170" r="3" fill="#2563eb"></circle><circle class="dot" cx="250.98039215686276" cy="170" r="3" fill="#2563eb"></circle><circle class="dot" cx="252.54901960784312" cy="170" r="3" fill="#2563eb"></circle><circle class="dot" cx="254.11764705882354" cy="170" r="3" fill="#2563eb"></circle><circle class="dot" cx="255.68627450980392" cy="170" r="3" fill="#2563eb"></circle><circle class="dot" cx="257.2549019607843" cy="170" r="3" fill="#2563eb"></circle><circle class="dot" cx="258.8235294117647" cy="170" r="3" fill="#2563eb"></circle><circle class="dot" cx="260.3921568627451" cy="170" r="3" fill="#2563eb"></circle><circle class="dot" cx="261.96078431372547" cy="170" r="3" fill="#2563eb"></circle><circle class="dot" cx="263.52941176470586" cy="170" r="3" fill="#2563eb"></circle><circle class="dot" cx="265.0980392156863" cy="170" r="3" fill="#2563eb"></circle><circle class="dot" cx="266.66666666666663" cy="170" r="3" fill="#2563eb"></circle><circle class="dot" cx="268.2352941176471" cy="170" r="3" fill="#2563eb"></circle><circle class="dot" cx="269.80392156862746" cy="170" r="3" fill="#2563eb"></circle><circle class="dot" cx="271.37254901960785" cy="170" r="3" fill="#2563eb"></circle><circle class="dot" cx="272.94117647058823" cy="170" r="3" fill="#2563eb"></circle><circle class="dot" cx="274.5098039215686" cy="170" r="3" fill="#2563eb"></circle><circle class="dot" cx="276.078431372549" cy="170" r="3" fill="#2563eb"></circle><circle class="dot" cx="277.64705882352945" cy="170" r="3" fill="#2563eb"></circle><circle class="dot" cx="279.2156862745098" cy="170" r="3" fill="#2563eb"></circle><circle class="dot" cx="280.7843137254902" cy="170" r="3" fill="#2563eb"></circle><circle class="dot" cx="282.3529411764706" cy="170" r="3" fill="#2563eb"></circle><circle class="dot" cx="283.921568627451" cy="170" r="3" fill="#2563eb"></circle><circle class="dot" cx="285.4901960784314" cy="170" r="3" fill="#2563eb"></circle><circle class="dot" cx="287.05882352941177" cy="170" r="3" fill="#2563eb"></circle><circle class="dot" cx="288.62745098039215" cy="170" r="3" fill="#2563eb"></circle><circle class="dot" cx="290.19607843137254" cy="170" r="3" fill="#2563eb"></circle><circle class="dot" cx="291.7647058823529" cy="170" r="3" fill="#2563eb"></circle><circle class="dot" cx="293.3333333333333" cy="170" r="3" fill="#2563eb"></circle><circle class="dot" cx="294.90196078431376" cy="170" r="3" fill="#2563eb"></circle><circle class="dot" cx="296.4705882352941" cy="170" r="3" fill="#2563eb"></circle><circle class="dot" cx="298.03921568627453" cy="170" r="3" fill="#2563eb"></circle><circle class="dot" cx="299.6078431372549" cy="170" r="3" fill="#2563eb"></circle><circle class="dot" cx="301.1764705882353" cy="170" r="3" fill="#2563eb"></circle><circle class="dot" cx="302.7450980392157" cy="170" r="3" fill="#2563eb"></circle><circle class="dot" cx="304.3137254901961" cy="170" r="3" fill="#2563eb"></circle><circle class="dot" cx="305.88235294117646" cy="170" r="3" fill="#2563eb"></circle><circle class="dot" cx="307.45098039215685" cy="170" r="3" fill="#2563eb"></circle><circle class="dot" cx="309.01960784313724" cy="170" r="3" fill="#2563eb"></circle><circle class="dot" cx="310.5882352941177" cy="170" r="3" fill="#2563eb"></circle><circle class="dot" cx="312.156862745098" cy="170" r="3" fill="#2563eb"></circle><circle class="dot" cx="313.72549019607845" cy="170" r="3" fill="#2563eb"></circle><circle class="dot" cx="315.29411764705884" cy="170" r="3" fill="#2563eb"></circle><circle class="dot" cx="316.86274509803917" cy="170" r="3" fill="#2563eb"></circle><circle class="dot" cx="318.4313725490196" cy="170" r="3" fill="#2563eb"></circle><circle class="dot" cx="320" cy="170" r="3" fill="#2563eb"></circle><circle class="dot" cx="321.5686274509804" cy="170" r="3" fill="#2563eb"></circle><circle class="dot" cx="323.1372549019608" cy="170" r="3" fill="#2563eb"></circle><circle class="dot" cx="324.70588235294116" cy="170" r="3" fill="#2563eb"></circle><circle class="dot" cx="326.27450980392155" cy="170" r="3" fill="#2563eb"></circle><circle class="dot" cx="327.843137254902" cy="170" r="3" fill="#2563eb"></circle><circle class="dot" cx="329.4117647058823" cy="170" r="3" fill="#2563eb"></circle><circle class="dot" cx="330.98039215686276" cy="170" r="3" fill="#2563eb"></circle><circle class="dot" cx="332.54901960784315" cy="170" r="3" fill="#2563eb"></circle><circle class="dot" cx="334.11764705882354" cy="170" r="3" fill="#2563eb"></circle><circle class="dot" cx="335.6862745098039" cy="170" r="3" fill="#2563eb"></circle><circle class="dot" cx="337.2549019607843" cy="170" r="3" fill="#2563eb"></circle><circle class="dot" cx="338.8235294117647" cy="170" r="3" fill="#2563eb"></circle><circle class="dot" cx="340.39215686274514" cy="170" r="3" fill="#2563eb"></circle><circle class="dot" cx="341.96078431372547" cy="170" r="3" fill="#2563eb"></circle><circle class="dot" cx="343.5294117647059" cy="170" r="3" fill="#2563eb"></circle><circle class="dot" cx="345.0980392156863" cy="170" r="3" fill="#2563eb"></circle><circle class="dot" cx="346.66666666666663" cy="170" r="3" fill="#2563eb"></circle><circle class="dot" cx="348.2352941176471" cy="170" r="3" fill="#2563eb"></circle><circle class="dot" cx="349.80392156862746" cy="170" r="3" fill="#2563eb"></circle><circle class="dot" cx="351.37254901960785" cy="170" r="3" fill="#2563eb"></circle><circle class="dot" cx="352.94117647058823" cy="170" r="3" fill="#2563eb"></circle><circle class="dot" cx="354.5098039215686" cy="170" r="3" fill="#2563eb"></circle><circle class="dot" cx="356.078431372549" cy="170" r="3" fill="#2563eb"></circle><circle class="dot" cx="357.6470588235294" cy="170" r="3" fill="#2563eb"></circle><circle class="dot" cx="359.2156862745098" cy="170" r="3" fill="#2563eb"></circle><circle class="dot" cx="360.78431372549016" cy="170" r="3" fill="#2563eb"></circle><circle class="dot" cx="362.3529411764706" cy="170" r="3" fill="#2563eb"></circle><circle class="dot" cx="363.921568627451" cy="170" r="3" fill="#2563eb"></circle><circle class="dot" cx="365.4901960784314" cy="170" r="3" fill="#2563eb"></circle><circle class="dot" cx="367.0588235294117" cy="170" r="3" fill="#2563eb"></circle><circle class="dot" cx="368.62745098039215" cy="170" r="3" fill="#2563eb"></circle><circle class="dot" cx="370.19607843137254" cy="170" r="3" fill="#2563eb"></circle><circle class="dot" cx="371.764705882353" cy="170" r="3" fill="#2563eb"></circle><circle class="dot" cx="373.3333333333333" cy="170" r="3" fill="#2563eb"></circle><circle class="dot" cx="374.9019607843137" cy="170" r="3" fill="#2563eb"></circle><circle class="dot" cx="376.47058823529414" cy="170" r="3" fill="#2563eb"></circle><circle class="dot" cx="378.0392156862745" cy="170" r="3" fill="#2563eb"></circle><circle class="dot" cx="379.60784313725486" cy="170" r="3" fill="#2563eb"></circle><circle class="dot" cx="381.1764705882353" cy="170" r="3" fill="#2563eb"></circle><circle class="dot" cx="382.7450980392157" cy="170" r="3" fill="#2563eb"></circle><circle class="dot" cx="384.313725490196" cy="170" r="3" fill="#2563eb"></circle><circle class="dot" cx="385.88235294117646" cy="170" r="3" fill="#2563eb"></circle><circle class="dot" cx="387.45098039215685" cy="170" r="3" fill="#2563eb"></circle><circle class="dot" cx="389.0196078431373" cy="170" r="3" fill="#2563eb"></circle><circle class="dot" cx="390.5882352941176" cy="170" r="3" fill="#2563eb"></circle><circle class="dot" cx="392.156862745098" cy="170" r="3" fill="#2563eb"></circle><circle class="dot" cx="393.72549019607845" cy="170" r="3" fill="#2563eb"></circle><circle class="dot" cx="395.29411764705884" cy="170" r="3" fill="#2563eb"></circle><circle class="dot" cx="396.86274509803917" cy="170" r="3" fill="#2563eb"></circle><circle class="dot" cx="398.4313725490196" cy="170" r="3" fill="#2563eb"></circle><circle class="dot" cx="400" cy="170" r="3" fill="#2563eb"></circle><circle class="dot" cx="401.56862745098044" cy="170" r="3" fill="#2563eb"></circle><circle class="dot" cx="403.1372549019608" cy="170" r="3" fill="#2563eb"></circle><circle class="dot" cx="404.70588235294116" cy="170" r="3" fill="#2563eb"></circle><circle class="dot" cx="406.2745098039216" cy="170" r="3" fill="#2563eb"></circle><circle class="dot" cx="407.84313725490193" cy="170" r="3" fill="#2563eb"></circle><circle class="dot" cx="409.4117647058823" cy="170" r="3" fill="#2563eb"></circle><circle class="dot" cx="410.98039215686276" cy="170" r="3" fill="#2563eb"></circle><circle class="dot" cx="412.54901960784315" cy="170" r="3" fill="#2563eb"></circle><circle class="dot" cx="414.1176470588235" cy="170" r="3" fill="#2563eb"></circle><circle class="dot" cx="415.6862745098039" cy="170" r="3" fill="#2563eb"></circle><circle class="dot" cx="417.2549019607843" cy="170" r="3" fill="#2563eb"></circle><circle class="dot" cx="418.82352941176475" cy="170" r="3" fill="#2563eb"></circle><circle class="dot" cx="420.3921568627451" cy="170" r="3" fill="#2563eb"></circle><circle class="dot" cx="421.96078431372547" cy="170" r="3" fill="#2563eb"></circle><circle class="dot" cx="423.5294117647059" cy="170" r="3" fill="#2563eb"></circle><circle class="dot" cx="425.0980392156863" cy="170" r="3" fill="#2563eb"></circle><circle class="dot" cx="426.66666666666663" cy="170" r="3" fill="#2563eb"></circle><circle class="dot" cx="428.2352941176471" cy="170" r="3" fill="#2563eb"></circle><circle class="dot" cx="429.80392156862746" cy="170" r="3" fill="#2563eb"></circle><circle class="dot" cx="431.3725490196079" cy="170" r="3" fill="#2563eb"></circle><circle class="dot" cx="432.94117647058823" cy="170" r="3" fill="#2563eb"></circle><circle class="dot" cx="434.5098039215686" cy="170" r="3" fill="#2563eb"></circle><circle class="dot" cx="436.07843137254906" cy="170" r="3" fill="#2563eb"></circle><circle class="dot" cx="437.6470588235294" cy="170" r="3" fill="#2563eb"></circle><circle class="dot" cx="439.2156862745098" cy="170" r="3" fill="#2563eb"></circle><circle class="dot" cx="440.7843137254902" cy="170" r="3" fill="#2563eb"></circle><circle class="dot" cx="442.3529411764706" cy="170" r="3" fill="#2563eb"></circle><circle class="dot" cx="443.92156862745094" cy="170" r="3" fill="#2563eb"></circle><circle class="dot" cx="445.4901960784314" cy="170" r="3" fill="#2563eb"></circle><circle class="dot" cx="447.05882352941177" cy="170" r="3" fill="#2563eb"></circle><circle class="dot" cx="448.6274509803922" cy="170" r="3" fill="#2563eb"></circle><circle class="dot" cx="450.19607843137254" cy="170" r="3" fill="#2563eb"></circle><circle class="dot" cx="451.7647058823529" cy="170" r="3" fill="#2563eb"></circle><circle class="dot" cx="453.33333333333337" cy="170" r="3" fill="#2563eb"></circle><circle class="dot" cx="454.90196078431376" cy="170" r="3" fill="#2563eb"></circle><circle class="dot" cx="456.4705882352941" cy="170" r="3" fill="#2563eb"></circle><circle class="dot" cx="458.03921568627453" cy="170" r="3" fill="#2563eb"></circle><circle class="dot" cx="459.6078431372549" cy="170" r="3" fill="#2563eb"></circle><circle class="dot" cx="461.17647058823525" cy="170" r="3" fill="#2563eb"></circle><circle class="dot" cx="462.7450980392157" cy="170" r="3" fill="#2563eb"></circle><circle class="dot" cx="464.3137254901961" cy="170" r="3" fill="#2563eb"></circle><circle class="dot" cx="465.8823529411765" cy="170" r="3" fill="#2563eb"></circle><circle class="dot" cx="467.45098039215685" cy="170" r="3" fill="#2563eb"></circle><circle class="dot" cx="469.01960784313724" cy="170" r="3" fill="#2563eb"></circle><circle class="dot" cx="470.5882352941177" cy="170" r="3" fill="#2563eb"></circle><circle class="dot" cx="472.15686274509807" cy="170" r="3" fill="#2563eb"></circle><circle class="dot" cx="473.7254901960784" cy="170" r="3" fill="#2563eb"></circle><circle class="dot" cx="475.29411764705884" cy="170" r="3" fill="#2563eb"></circle><circle class="dot" cx="476.8627450980392" cy="170" r="3" fill="#2563eb"></circle><circle class="dot" cx="478.4313725490196" cy="170" r="3" fill="#2563eb"></circle><circle class="dot" cx="480" cy="170" r="3" fill="#2563eb"></circle><circle class="dot" cx="481.5686274509804" cy="170" r="3" fill="#2563eb"></circle><circle class="dot" cx="483.1372549019608" cy="170" r="3" fill="#2563eb"></circle><circle class="dot" cx="484.7058823529412" cy="170" r="3" fill="#2563eb"></circle><circle class="dot" cx="486.27450980392155" cy="170" r="3" fill="#2563eb"></circle><circle class="dot" cx="487.84313725490193" cy="170" r="3" fill="#2563eb"></circle><circle class="dot" cx="489.4117647058824" cy="170" r="3" fill="#2563eb"></circle><circle class="dot" cx="490.9803921568627" cy="170" r="3" fill="#2563eb"></circle><circle class="dot" cx="492.5490196078431" cy="170" r="3" fill="#2563eb"></circle><circle class="dot" cx="494.11764705882354" cy="170" r="3" fill="#2563eb"></circle><circle class="dot" cx="495.6862745098039" cy="170" r="3" fill="#2563eb"></circle><circle class="dot" cx="497.25490196078425" cy="170" r="3" fill="#2563eb"></circle><circle class="dot" cx="498.8235294117647" cy="170" r="3" fill="#2563eb"></circle><circle class="dot" cx="500.3921568627451" cy="170" r="3" fill="#2563eb"></circle><circle class="dot" cx="501.9607843137255" cy="170" r="3" fill="#2563eb"></circle><circle class="dot" cx="503.52941176470586" cy="170" r="3" fill="#2563eb"></circle><circle class="dot" cx="505.09803921568624" cy="170" r="3" fill="#2563eb"></circle><circle class="dot" cx="506.6666666666667" cy="170" r="3" fill="#2563eb"></circle><circle class="dot" cx="508.2352941176471" cy="170" r="3" fill="#2563eb"></circle><circle class="dot" cx="509.8039215686274" cy="170" r="3" fill="#2563eb"></circle><circle class="dot" cx="511.37254901960785" cy="170" r="3" fill="#2563eb"></circle><circle class="dot" cx="512.9411764705883" cy="170" r="3" fill="#2563eb"></circle><circle class="dot" cx="514.5098039215686" cy="170" r="3" fill="#2563eb"></circle><circle class="dot" cx="516.078431372549" cy="170" r="3" fill="#2563eb"></circle><circle class="dot" cx="517.6470588235294" cy="170" r="3" fill="#2563eb"></circle><circle class="dot" cx="519.2156862745098" cy="170" r="3" fill="#2563eb"></circle><circle class="dot" cx="520.7843137254902" cy="170" r="3" fill="#2563eb"></circle><circle class="dot" cx="522.3529411764706" cy="170" r="3" fill="#2563eb"></circle><circle class="dot" cx="523.9215686274509" cy="170" r="3" fill="#2563eb"></circle><circle class="dot" cx="525.4901960784314" cy="170" r="3" fill="#2563eb"></circle><circle class="dot" cx="527.0588235294117" cy="170" r="3" fill="#2563eb"></circle><circle class="dot" cx="528.6274509803922" cy="170" r="3" fill="#2563eb"></circle><circle class="dot" cx="530.1960784313726" cy="170" r="3" fill="#2563eb"></circle><circle class="dot" cx="531.7647058823529" cy="170" r="3" fill="#2563eb"></circle><circle class="dot" cx="533.3333333333333" cy="170" r="3" fill="#2563eb"></circle><circle class="dot" cx="534.9019607843137" cy="170" r="3" fill="#2563eb"></circle><circle class="dot" cx="536.4705882352941" cy="170" r="3" fill="#2563eb"></circle><circle class="dot" cx="538.0392156862746" cy="170" r="3" fill="#2563eb"></circle><circle class="dot" cx="539.6078431372549" cy="170" r="3" fill="#2563eb"></circle><circle class="dot" cx="541.1764705882352" cy="170" r="3" fill="#2563eb"></circle><circle class="dot" cx="542.7450980392157" cy="170" r="3" fill="#2563eb"></circle><circle class="dot" cx="544.3137254901961" cy="170" r="3" fill="#2563eb"></circle><circle class="dot" cx="545.8823529411765" cy="170" r="3" fill="#2563eb"></circle><circle class="dot" cx="547.4509803921569" cy="170" r="3" fill="#2563eb"></circle><circle class="dot" cx="549.0196078431372" cy="170" r="3" fill="#2563eb"></circle><circle class="dot" cx="550.5882352941176" cy="170" r="3" fill="#2563eb"></circle><circle class="dot" cx="552.156862745098" cy="170" r="3" fill="#2563eb"></circle><circle class="dot" cx="553.7254901960785" cy="170" r="3" fill="#2563eb"></circle><circle class="dot" cx="555.2941176470589" cy="170" r="3" fill="#2563eb"></circle><circle class="dot" cx="556.8627450980392" cy="170" r="3" fill="#2563eb"></circle><circle class="dot" cx="558.4313725490196" cy="170" r="3" fill="#2563eb"></circle><circle class="dot" cx="560" cy="170" r="3" fill="#2563eb"></circle><circle class="dot" cx="561.5686274509804" cy="170" r="3" fill="#2563eb"></circle><circle class="dot" cx="563.1372549019608" cy="170" r="3" fill="#2563eb"></circle><circle class="dot" cx="564.7058823529412" cy="170" r="3" fill="#2563eb"></circle><circle class="dot" cx="566.2745098039215" cy="170" r="3" fill="#2563eb"></circle><circle class="dot" cx="567.843137254902" cy="170" r="3" fill="#2563eb"></circle><circle class="dot" cx="569.4117647058823" cy="170" r="3" fill="#2563eb"></circle><circle class="dot" cx="570.9803921568628" cy="170" r="3" fill="#2563eb"></circle><circle class="dot" cx="572.5490196078432" cy="170" r="3" fill="#2563eb"></circle><circle class="dot" cx="574.1176470588235" cy="170" r="3" fill="#2563eb"></circle><circle class="dot" cx="575.6862745098039" cy="170" r="3" fill="#2563eb"></circle><circle class="dot" cx="577.2549019607843" cy="170" r="3" fill="#2563eb"></circle><circle class="dot" cx="578.8235294117648" cy="170" r="3" fill="#2563eb"></circle><circle class="dot" cx="580.3921568627451" cy="170" r="3" fill="#2563eb"></circle><circle class="dot" cx="581.9607843137255" cy="170" r="3" fill="#2563eb"></circle><circle class="dot" cx="583.5294117647059" cy="170" r="3" fill="#2563eb"></circle><circle class="dot" cx="585.0980392156863" cy="170" r="3" fill="#2563eb"></circle><circle class="dot" cx="586.6666666666666" cy="170" r="3" fill="#2563eb"></circle><circle class="dot" cx="588.2352941176471" cy="170" r="3" fill="#2563eb"></circle><circle class="dot" cx="589.8039215686275" cy="170" r="3" fill="#2563eb"></circle><circle class="dot" cx="591.3725490196078" cy="170" r="3" fill="#2563eb"></circle><circle class="dot" cx="592.9411764705882" cy="170" r="3" fill="#2563eb"></circle><circle class="dot" cx="594.5098039215686" cy="170" r="3" fill="#2563eb"></circle><circle class="dot" cx="596.0784313725491" cy="170" r="3" fill="#2563eb"></circle><circle class="dot" cx="597.6470588235294" cy="170" r="3" fill="#2563eb"></circle><circle class="dot" cx="599.2156862745098" cy="170" r="3" fill="#2563eb"></circle><circle class="dot" cx="600.7843137254902" cy="170" r="3" fill="#2563eb"></circle><circle class="dot" cx="602.3529411764706" cy="170" r="3" fill="#2563eb"></circle><circle class="dot" cx="603.921568627451" cy="170" r="3" fill="#2563eb"></circle><circle class="dot" cx="605.4901960784314" cy="170" r="3" fill="#2563eb"></circle><circle class="dot" cx="607.0588235294117" cy="170" r="3" fill="#2563eb"></circle><circle class="dot" cx="608.6274509803922" cy="170" r="3" fill="#2563eb"></circle><circle class="dot" cx="610.1960784313725" cy="170" r="3" fill="#2563eb"></circle><circle class="dot" cx="611.7647058823529" cy="170" r="3" fill="#2563eb"></circle><circle class="dot" cx="613.3333333333334" cy="170" r="3" fill="#2563eb"></circle><circle class="dot" cx="614.9019607843137" cy="170" r="3" fill="#2563eb"></circle><circle class="dot" cx="616.470588235294" cy="170" r="3" fill="#2563eb"></circle><circle class="dot" cx="618.0392156862745" cy="170" r="3" fill="#2563eb"></circle><circle class="dot" cx="619.6078431372549" cy="170" r="3" fill="#2563eb"></circle><circle class="dot" cx="621.1764705882354" cy="170" r="3" fill="#2563eb"></circle><circle class="dot" cx="622.7450980392157" cy="170" r="3" fill="#2563eb"></circle><circle class="dot" cx="624.313725490196" cy="170" r="3" fill="#2563eb"></circle><circle class="dot" cx="625.8823529411765" cy="170" r="3" fill="#2563eb"></circle><circle class="dot" cx="627.4509803921569" cy="170" r="3" fill="#2563eb"></circle><circle class="dot" cx="629.0196078431372" cy="170" r="3" fill="#2563eb"></circle><circle class="dot" cx="630.5882352941177" cy="170" r="3" fill="#2563eb"></circle><circle class="dot" cx="632.156862745098" cy="170" r="3" fill="#2563eb"></circle><circle class="dot" cx="633.7254901960783" cy="170" r="3" fill="#2563eb"></circle><circle class="dot" cx="635.2941176470588" cy="170" r="3" fill="#2563eb"></circle><circle class="dot" cx="636.8627450980392" cy="170" r="3" fill="#2563eb"></circle><circle class="dot" cx="638.4313725490197" cy="170" r="3" fill="#2563eb"></circle><circle class="dot" cx="640" cy="170" r="3" fill="#2563eb"></circle><circle class="dot" cx="641.5686274509803" cy="170" r="3" fill="#2563eb"></circle><circle class="dot" cx="643.1372549019608" cy="170" r="3" fill="#2563eb"></circle><circle class="dot" cx="644.7058823529412" cy="170" r="3" fill="#2563eb"></circle><circle class="dot" cx="646.2745098039215" cy="170" r="3" fill="#2563eb"></circle><circle class="dot" cx="647.843137254902" cy="170" r="3" fill="#2563eb"></circle><circle class="dot" cx="649.4117647058823" cy="170" r="3" fill="#2563eb"></circle><circle class="dot" cx="650.9803921568628" cy="170" r="3" fill="#2563eb"></circle><circle class="dot" cx="652.5490196078431" cy="170" r="3" fill="#2563eb"></circle><circle class="dot" cx="654.1176470588235" cy="170" r="3" fill="#2563eb"></circle><circle class="dot" cx="655.686274509804" cy="170" r="3" fill="#2563eb"></circle><circle class="dot" cx="657.2549019607843" cy="170" r="3" fill="#2563eb"></circle><circle class="dot" cx="658.8235294117646" cy="170" r="3" fill="#2563eb"></circle><circle class="dot" cx="660.3921568627451" cy="170" r="3" fill="#2563eb"></circle><circle class="dot" cx="661.9607843137255" cy="170" r="3" fill="#2563eb"></circle><circle class="dot" cx="663.5294117647059" cy="170" r="3" fill="#2563eb"></circle><circle class="dot" cx="665.0980392156863" cy="170" r="3" fill="#2563eb"></circle><circle class="dot" cx="666.6666666666666" cy="170" r="3" fill="#2563eb"></circle><circle class="dot" cx="668.2352941176471" cy="170" r="3" fill="#2563eb"></circle><circle class="dot" cx="669.8039215686274" cy="170" r="3" fill="#2563eb"></circle><circle class="dot" cx="671.3725490196078" cy="170" r="3" fill="#2563eb"></circle><circle class="dot" cx="672.9411764705883" cy="170" r="3" fill="#2563eb"></circle><circle class="dot" cx="674.5098039215686" cy="170" r="3" fill="#2563eb"></circle><circle class="dot" cx="676.078431372549" cy="170" r="3" fill="#2563eb"></circle><circle class="dot" cx="677.6470588235294" cy="170" r="3" fill="#2563eb"></circle><circle class="dot" cx="679.2156862745098" cy="170" r="3" fill="#2563eb"></circle><circle class="dot" cx="680.7843137254903" cy="170" r="3" fill="#2563eb"></circle><circle class="dot" cx="682.3529411764706" cy="170" r="3" fill="#2563eb"></circle><circle class="dot" cx="683.9215686274509" cy="170" r="3" fill="#2563eb"></circle><circle class="dot" cx="685.4901960784314" cy="170" r="3" fill="#2563eb"></circle><circle class="dot" cx="687.0588235294118" cy="170" r="3" fill="#2563eb"></circle><circle class="dot" cx="688.6274509803922" cy="170" r="3" fill="#2563eb"></circle><circle class="dot" cx="690.1960784313726" cy="170" r="3" fill="#2563eb"></circle><circle class="dot" cx="691.7647058823529" cy="170" r="3" fill="#2563eb"></circle><circle class="dot" cx="693.3333333333333" cy="170" r="3" fill="#2563eb"></circle><circle class="dot" cx="694.9019607843137" cy="170" r="3" fill="#2563eb"></circle><circle class="dot" cx="696.4705882352941" cy="170" r="3" fill="#2563eb"></circle><circle class="dot" cx="698.0392156862746" cy="170" r="3" fill="#2563eb"></circle><circle class="dot" cx="699.6078431372549" cy="170" r="3" fill="#2563eb"></circle><circle class="dot" cx="701.1764705882352" cy="170" r="3" fill="#2563eb"></circle><circle class="dot" cx="702.7450980392157" cy="170" r="3" fill="#2563eb"></circle><circle class="dot" cx="704.3137254901961" cy="170" r="3" fill="#2563eb"></circle><circle class="dot" cx="705.8823529411765" cy="170" r="3" fill="#2563eb"></circle><circle class="dot" cx="707.4509803921569" cy="170" r="3" fill="#2563eb"></circle><circle class="dot" cx="709.0196078431372" cy="170" r="3" fill="#2563eb"></circle><circle class="dot" cx="710.5882352941177" cy="170" r="3" fill="#2563eb"></circle><circle class="dot" cx="712.156862745098" cy="170" r="3" fill="#2563eb"></circle><circle class="dot" cx="713.7254901960785" cy="170" r="3" fill="#2563eb"></circle><circle class="dot" cx="715.2941176470588" cy="170" r="3" fill="#2563eb"></circle><circle class="dot" cx="716.8627450980392" cy="170" r="3" fill="#2563eb"></circle><circle class="dot" cx="718.4313725490196" cy="170" r="3" fill="#2563eb"></circle><circle class="dot" cx="720" cy="170" r="3" fill="#2563eb"></circle><g class="grid" transform="translate(0,340)" fill="none" font-size="10" font-family="sans-serif" text-anchor="middle" style="stroke-dasharray: 3,3; opacity: 0.3;"><path class="domain" stroke="currentColor" d="M0.5,-340V0.5H720.5V-340"></path><g class="tick" opacity="1" transform="translate(0.5,0)"><line stroke="currentColor" y2="-340"></line><text fill="currentColor" y="3" dy="0.71em"></text></g><g class="tick" opacity="1" transform="translate(38.14705882352941,0)"><line stroke="currentColor" y2="-340"></line><text fill="currentColor" y="3" dy="0.71em"></text></g><g class="tick" opacity="1" transform="translate(75.79411764705883,0)"><line stroke="currentColor" y2="-340"></line><text fill="currentColor" y="3" dy="0.71em"></text></g><g class="tick" opacity="1" transform="translate(113.44117647058823,0)"><line stroke="currentColor" y2="-340"></line><text fill="currentColor" y="3" dy="0.71em"></text></g><g class="tick" opacity="1" transform="translate(151.08823529411765,0)"><line stroke="currentColor" y2="-340"></line><text fill="currentColor" y="3" dy="0.71em"></text></g><g class="tick" opacity="1" transform="translate(188.73529411764707,0)"><line stroke="currentColor" y2="-340"></line><text fill="currentColor" y="3" dy="0.71em"></text></g><g class="tick" opacity="1" transform="translate(226.38235294117646,0)"><line stroke="currentColor" y2="-340"></line><text fill="currentColor" y="3" dy="0.71em"></text></g><g class="tick" opacity="1" transform="translate(264.02941176470586,0)"><line stroke="currentColor" y2="-340"></line><text fill="currentColor" y="3" dy="0.71em"></text></g><g class="tick" opacity="1" transform="translate(301.6764705882353,0)"><line stroke="currentColor" y2="-340"></line><text fill="currentColor" y="3" dy="0.71em"></text></g><g class="tick" opacity="1" transform="translate(339.3235294117647,0)"><line stroke="currentColor" y2="-340"></line><text fill="currentColor" y="3" dy="0.71em"></text></g><g class="tick" opacity="1" transform="translate(376.97058823529414,0)"><line stroke="currentColor" y2="-340"></line><text fill="currentColor" y="3" dy="0.71em"></text></g><g class="tick" opacity="1" transform="translate(414.6176470588235,0)"><line stroke="currentColor" y2="-340"></line><text fill="currentColor" y="3" dy="0.71em"></text></g><g class="tick" opacity="1" transform="translate(452.2647058823529,0)"><line stroke="currentColor" y2="-340"></line><text fill="currentColor" y="3" dy="0.71em"></text></g><g class="tick" opacity="1" transform="translate(489.9117647058824,0)"><line stroke="currentColor" y2="-340"></line><text fill="currentColor" y="3" dy="0.71em"></text></g><g class="tick" opacity="1" transform="translate(527.5588235294117,0)"><line stroke="currentColor" y2="-340"></line><text fill="currentColor" y="3" dy="0.71em"></text></g><g class="tick" opacity="1" transform="translate(565.2058823529412,0)"><line stroke="currentColor" y2="-340"></line><text fill="currentColor" y="3" dy="0.71em"></text></g><g class="tick" opacity="1" transform="translate(602.8529411764706,0)"><line stroke="currentColor" y2="-340"></line><text fill="currentColor" y="3" dy="0.71em"></text></g><g class="tick" opacity="1" transform="translate(640.5,0)"><line stroke="currentColor" y2="-340"></line><text fill="currentColor" y="3" dy="0.71em"></text></g><g class="tick" opacity="1" transform="translate(678.1470588235294,0)"><line stroke="currentColor" y2="-340"></line><text fill="currentColor" y="3" dy="0.71em"></text></g><g class="tick" opacity="1" transform="translate(715.7941176470588,0)"><line stroke="currentColor" y2="-340"></line><text fill="currentColor" y="3" dy="0.71em"></text></g></g><g class="grid" fill="none" font-size="10" font-family="sans-serif" text-anchor="end" style="stroke-dasharray: 3,3; opacity: 0.3;"><path class="domain" stroke="currentColor" d="M720,340.5H0.5V0.5H720"></path><g class="tick" opacity="1" transform="translate(0,170.5)"><line stroke="currentColor" x2="720"></line><text fill="currentColor" x="-3" dy="0.32em"></text></g></g></g><text x="400" y="10" text-anchor="middle" style="font-size: 16px; font-weight: bold; fill: #333;">OKX USDT Lending Rate - Current Month</text></svg>