<svg width="800" height="400" xmlns="http://www.w3.org/2000/svg"><g transform="translate(50,20)"><g transform="translate(0,340)" fill="none" font-size="10" font-family="sans-serif" text-anchor="middle"><path class="domain" stroke="currentColor" d="M0.5,6V0.5H720.5V6"></path><g class="tick" opacity="1" transform="translate(0.5,0)"><line stroke="currentColor" y2="6"></line><text fill="currentColor" y="9" dy=".15em" style="text-anchor: end;" dx="-.8em" transform="rotate(-45)">04/01</text></g><g class="tick" opacity="1" transform="translate(33.859073359073356,0)"><line stroke="currentColor" y2="6"></line><text fill="currentColor" y="9" dy=".15em" style="text-anchor: end;" dx="-.8em" transform="rotate(-45)">04/02</text></g><g class="tick" opacity="1" transform="translate(67.21814671814671,0)"><line stroke="currentColor" y2="6"></line><text fill="currentColor" y="9" dy=".15em" style="text-anchor: end;" dx="-.8em" transform="rotate(-45)">04/03</text></g><g class="tick" opacity="1" transform="translate(100.57722007722008,0)"><line stroke="currentColor" y2="6"></line><text fill="currentColor" y="9" dy=".15em" style="text-anchor: end;" dx="-.8em" transform="rotate(-45)">04/04</text></g><g class="tick" opacity="1" transform="translate(133.93629343629343,0)"><line stroke="currentColor" y2="6"></line><text fill="currentColor" y="9" dy=".15em" style="text-anchor: end;" dx="-.8em" transform="rotate(-45)">04/05</text></g><g class="tick" opacity="1" transform="translate(167.2953667953668,0)"><line stroke="currentColor" y2="6"></line><text fill="currentColor" y="9" dy=".15em" style="text-anchor: end;" dx="-.8em" transform="rotate(-45)">04/06</text></g><g class="tick" opacity="1" transform="translate(200.65444015444015,0)"><line stroke="currentColor" y2="6"></line><text fill="currentColor" y="9" dy=".15em" style="text-anchor: end;" dx="-.8em" transform="rotate(-45)">04/07</text></g><g class="tick" opacity="1" transform="translate(234.01351351351352,0)"><line stroke="currentColor" y2="6"></line><text fill="currentColor" y="9" dy=".15em" style="text-anchor: end;" dx="-.8em" transform="rotate(-45)">04/08</text></g><g class="tick" opacity="1" transform="translate(267.37258687258685,0)"><line stroke="currentColor" y2="6"></line><text fill="currentColor" y="9" dy=".15em" style="text-anchor: end;" dx="-.8em" transform="rotate(-45)">04/09</text></g><g class="tick" opacity="1" transform="translate(300.7316602316602,0)"><line stroke="currentColor" y2="6"></line><text fill="currentColor" y="9" dy=".15em" style="text-anchor: end;" dx="-.8em" transform="rotate(-45)">04/10</text></g><g class="tick" opacity="1" transform="translate(334.0907335907336,0)"><line stroke="currentColor" y2="6"></line><text fill="currentColor" y="9" dy=".15em" style="text-anchor: end;" dx="-.8em" transform="rotate(-45)">04/11</text></g><g class="tick" opacity="1" transform="translate(367.44980694980694,0)"><line stroke="currentColor" y2="6"></line><text fill="currentColor" y="9" dy=".15em" style="text-anchor: end;" dx="-.8em" transform="rotate(-45)">04/12</text></g><g class="tick" opacity="1" transform="translate(400.8088803088803,0)"><line stroke="currentColor" y2="6"></line><text fill="currentColor" y="9" dy=".15em" style="text-anchor: end;" dx="-.8em" transform="rotate(-45)">04/13</text></g><g class="tick" opacity="1" transform="translate(434.16795366795367,0)"><line stroke="currentColor" y2="6"></line><text fill="currentColor" y="9" dy=".15em" style="text-anchor: end;" dx="-.8em" transform="rotate(-45)">04/14</text></g><g class="tick" opacity="1" transform="translate(467.52702702702703,0)"><line stroke="currentColor" y2="6"></line><text fill="currentColor" y="9" dy=".15em" style="text-anchor: end;" dx="-.8em" transform="rotate(-45)">04/15</text></g><g class="tick" opacity="1" transform="translate(500.88610038610045,0)"><line stroke="currentColor" y2="6"></line><text fill="currentColor" y="9" dy=".15em" style="text-anchor: end;" dx="-.8em" transform="rotate(-45)">04/16</text></g><g class="tick" opacity="1" transform="translate(534.2451737451737,0)"><line stroke="currentColor" y2="6"></line><text fill="currentColor" y="9" dy=".15em" style="text-anchor: end;" dx="-.8em" transform="rotate(-45)">04/17</text></g><g class="tick" opacity="1" transform="translate(567.6042471042471,0)"><line stroke="currentColor" y2="6"></line><text fill="currentColor" y="9" dy=".15em" style="text-anchor: end;" dx="-.8em" transform="rotate(-45)">04/18</text></g><g class="tick" opacity="1" transform="translate(600.9633204633204,0)"><line stroke="currentColor" y2="6"></line><text fill="currentColor" y="9" dy=".15em" style="text-anchor: end;" dx="-.8em" transform="rotate(-45)">04/19</text></g><g class="tick" opacity="1" transform="translate(634.3223938223938,0)"><line stroke="currentColor" y2="6"></line><text fill="currentColor" y="9" dy=".15em" style="text-anchor: end;" dx="-.8em" transform="rotate(-45)">04/20</text></g><g class="tick" opacity="1" transform="translate(667.6814671814672,0)"><line stroke="currentColor" y2="6"></line><text fill="currentColor" y="9" dy=".15em" style="text-anchor: end;" dx="-.8em" transform="rotate(-45)">04/21</text></g><g class="tick" opacity="1" transform="translate(701.0405405405406,0)"><line stroke="currentColor" y2="6"></line><text fill="currentColor" y="9" dy=".15em" style="text-anchor: end;" dx="-.8em" transform="rotate(-45)">04/22</text></g></g><g fill="none" font-size="10" font-family="sans-serif" text-anchor="end"><path class="domain" stroke="currentColor" d="M-6,340.5H0.5V0.5H-6"></path><g class="tick" opacity="1" transform="translate(0,170.5)"><line stroke="currentColor" x2="-6"></line><text fill="currentColor" x="-9" dy="0.32em">2.50%</text></g></g><text transform="rotate(-90)" y="-50" x="-170" dy="1em" style="text-anchor: middle; font-size: 12px; fill: #666;">Pre Rate (%)</text><text transform="translate(360, 380)" style="text-anchor: middle; font-size: 12px; fill: #666;">Time (UTC)</text><path fill="none" stroke="#2563eb" stroke-width="2" d="M0,170C0.463,170,0.927,170,1.39,170C1.853,170,2.317,170,2.78,170C3.243,170,3.707,170,4.17,170C4.633,170,5.097,170,5.56,170C6.023,170,6.486,170,6.95,170C7.413,170,7.876,170,8.34,170C8.803,170,9.266,170,9.73,170C10.193,170,10.656,170,11.12,170C11.583,170,12.046,170,12.51,170C12.973,170,13.436,170,13.9,170C14.363,170,14.826,170,15.29,170C15.753,170,16.216,170,16.68,170C17.143,170,17.606,170,18.069,170C18.533,170,18.996,170,19.459,170C19.923,170,20.386,170,20.849,170C21.313,170,21.776,170,22.239,170C22.703,170,23.166,170,23.629,170C24.093,170,24.556,170,25.019,170C25.483,170,25.946,170,26.409,170C26.873,170,27.336,170,27.799,170C28.263,170,28.726,170,29.189,170C29.653,170,30.116,170,30.579,170C31.042,170,31.506,170,31.969,170C32.432,170,32.896,170,33.359,170C33.822,170,34.286,170,34.749,170C35.212,170,35.676,170,36.139,170C36.602,170,37.066,170,37.529,170C37.992,170,38.456,170,38.919,170C39.382,170,39.846,170,40.309,170C40.772,170,41.236,170,41.699,170C42.162,170,42.625,170,43.089,170C43.552,170,44.015,170,44.479,170C44.942,170,45.405,170,45.869,170C46.332,170,46.795,170,47.259,170C47.722,170,48.185,170,48.649,170C49.112,170,49.575,170,50.039,170C50.502,170,50.965,170,51.429,170C51.892,170,52.355,170,52.819,170C53.282,170,53.745,170,54.208,170C54.672,170,55.135,170,55.598,170C56.062,170,56.525,170,56.988,170C57.452,170,57.915,170,58.378,170C58.842,170,59.305,170,59.768,170C60.232,170,60.695,170,61.158,170C61.622,170,62.085,170,62.548,170C63.012,170,63.475,170,63.938,170C64.402,170,64.865,170,65.328,170C65.792,170,66.255,170,66.718,170C67.181,170,67.645,170,68.108,170C68.571,170,69.035,170,69.498,170C69.961,170,70.425,170,70.888,170C71.351,170,71.815,170,72.278,170C72.741,170,73.205,170,73.668,170C74.131,170,74.595,170,75.058,170C75.521,170,75.985,170,76.448,170C76.911,170,77.375,170,77.838,170C78.301,170,78.764,170,79.228,170C79.691,170,80.154,170,80.618,170C81.081,170,81.544,170,82.008,170C82.471,170,82.934,170,83.398,170C83.861,170,84.324,170,84.788,170C85.251,170,85.714,170,86.178,170C86.641,170,87.104,170,87.568,170C88.031,170,88.494,170,88.958,170C89.421,170,89.884,170,90.347,170C90.811,170,91.274,170,91.737,170C92.201,170,92.664,170,93.127,170C93.591,170,94.054,170,94.517,170C94.981,170,95.444,170,95.907,170C96.371,170,96.834,170,97.297,170C97.761,170,98.224,170,98.687,170C99.151,170,99.614,170,100.077,170C100.541,170,101.004,170,101.467,170C101.931,170,102.394,170,102.857,170C103.32,170,103.784,170,104.247,170C104.71,170,105.174,170,105.637,170C106.1,170,106.564,170,107.027,170C107.49,170,107.954,170,108.417,170C108.88,170,109.344,170,109.807,170C110.27,170,110.734,170,111.197,170C111.66,170,112.124,170,112.587,170C113.05,170,113.514,170,113.977,170C114.44,170,114.903,170,115.367,170C115.83,170,116.293,170,116.757,170C117.22,170,117.683,170,118.147,170C118.61,170,119.073,170,119.537,170C120,170,120.463,170,120.927,170C121.39,170,121.853,170,122.317,170C122.78,170,123.243,170,123.707,170C124.17,170,124.633,170,125.097,170C125.56,170,126.023,170,126.486,170C126.95,170,127.413,170,127.876,170C128.34,170,128.803,170,129.266,170C129.73,170,130.193,170,130.656,170C131.12,170,131.583,170,132.046,170C132.51,170,132.973,170,133.436,170C133.9,170,134.363,170,134.826,170C135.29,170,135.753,170,136.216,170C136.68,170,137.143,170,137.606,170C138.069,170,138.533,170,138.996,170C139.459,170,139.923,170,140.386,170C140.849,170,141.313,170,141.776,170C142.239,170,142.703,170,143.166,170C143.629,170,144.093,170,144.556,170C145.019,170,145.483,170,145.946,170C146.409,170,146.873,170,147.336,170C147.799,170,148.263,170,148.726,170C149.189,170,149.653,170,150.116,170C150.579,170,151.042,170,151.506,170C151.969,170,152.432,170,152.896,170C153.359,170,153.822,170,154.286,170C154.749,170,155.212,170,155.676,170C156.139,170,156.602,170,157.066,170C157.529,170,157.992,170,158.456,170C158.919,170,159.382,170,159.846,170C160.309,170,160.772,170,161.236,170C161.699,170,162.162,170,162.625,170C163.089,170,163.552,170,164.015,170C164.479,170,164.942,170,165.405,170C165.869,170,166.332,170,166.795,170C167.259,170,167.722,170,168.185,170C168.649,170,169.112,170,169.575,170C170.039,170,170.502,170,170.965,170C171.429,170,171.892,170,172.355,170C172.819,170,173.282,170,173.745,170C174.208,170,174.672,170,175.135,170C175.598,170,176.062,170,176.525,170C176.988,170,177.452,170,177.915,170C178.378,170,178.842,170,179.305,170C179.768,170,180.232,170,180.695,170C181.158,170,181.622,170,182.085,170C182.548,170,183.012,170,183.475,170C183.938,170,184.402,170,184.865,170C185.328,170,185.792,170,186.255,170C186.718,170,187.181,170,187.645,170C188.108,170,188.571,170,189.035,170C189.498,170,189.961,170,190.425,170C190.888,170,191.351,170,191.815,170C192.278,170,192.741,170,193.205,170C193.668,170,194.131,170,194.595,170C195.058,170,195.521,170,195.985,170C196.448,170,196.911,170,197.375,170C197.838,170,198.301,170,198.764,170C199.228,170,199.691,170,200.154,170C200.618,170,201.081,170,201.544,170C202.008,170,202.471,170,202.934,170C203.398,170,203.861,170,204.324,170C204.788,170,205.251,170,205.714,170C206.178,170,206.641,170,207.104,170C207.568,170,208.031,170,208.494,170C208.958,170,209.421,170,209.884,170C210.347,170,210.811,170,211.274,170C211.737,170,212.201,170,212.664,170C213.127,170,213.591,170,214.054,170C214.517,170,214.981,170,215.444,170C215.907,170,216.371,170,216.834,170C217.297,170,217.761,170,218.224,170C218.687,170,219.151,170,219.614,170C220.077,170,220.541,170,221.004,170C221.467,170,221.931,170,222.394,170C222.857,170,223.32,170,223.784,170C224.247,170,224.71,170,225.174,170C225.637,170,226.1,170,226.564,170C227.027,170,227.49,170,227.954,170C228.417,170,228.88,170,229.344,170C229.807,170,230.27,170,230.734,170C231.197,170,231.66,170,232.124,170C232.587,170,233.05,170,233.514,170C233.977,170,234.44,170,234.903,170C235.367,170,235.83,170,236.293,170C236.757,170,237.22,170,237.683,170C238.147,170,238.61,170,239.073,170C239.537,170,240,170,240.463,170C240.927,170,241.39,170,241.853,170C242.317,170,242.78,170,243.243,170C243.707,170,244.17,170,244.633,170C245.097,170,245.56,170,246.023,170C246.486,170,246.95,170,247.413,170C247.876,170,248.34,170,248.803,170C249.266,170,249.73,170,250.193,170C250.656,170,251.12,170,251.583,170C252.046,170,252.51,170,252.973,170C253.436,170,253.9,170,254.363,170C254.826,170,255.29,170,255.753,170C256.216,170,256.68,170,257.143,170C257.606,170,258.069,170,258.533,170C258.996,170,259.459,170,259.923,170C260.386,170,260.849,170,261.313,170C261.776,170,262.239,170,262.703,170C263.166,170,263.629,170,264.093,170C264.556,170,265.019,170,265.483,170C265.946,170,266.409,170,266.873,170C267.336,170,267.799,170,268.263,170C268.726,170,269.189,170,269.653,170C270.116,170,270.579,170,271.042,170C271.506,170,271.969,170,272.432,170C272.896,170,273.359,170,273.822,170C274.286,170,274.749,170,275.212,170C275.676,170,276.139,170,276.602,170C277.066,170,277.529,170,277.992,170C278.456,170,278.919,170,279.382,170C279.846,170,280.309,170,280.772,170C281.236,170,281.699,170,282.162,170C282.625,170,283.089,170,283.552,170C284.015,170,284.479,170,284.942,170C285.405,170,285.869,170,286.332,170C286.795,170,287.259,170,287.722,170C288.185,170,288.649,170,289.112,170C289.575,170,290.039,170,290.502,170C290.965,170,291.429,170,291.892,170C292.355,170,292.819,170,293.282,170C293.745,170,294.208,170,294.672,170C295.135,170,295.598,170,296.062,170C296.525,170,296.988,170,297.452,170C297.915,170,298.378,170,298.842,170C299.305,170,299.768,170,300.232,170C300.695,170,301.158,170,301.622,170C302.085,170,302.548,170,303.012,170C303.475,170,303.938,170,304.402,170C304.865,170,305.328,170,305.792,170C306.255,170,306.718,170,307.181,170C307.645,170,308.108,170,308.571,170C309.035,170,309.498,170,309.961,170C310.425,170,310.888,170,311.351,170C311.815,170,312.278,170,312.741,170C313.205,170,313.668,170,314.131,170C314.595,170,315.058,170,315.521,170C315.985,170,316.448,170,316.911,170C317.375,170,317.838,170,318.301,170C318.764,170,319.228,170,319.691,170C320.154,170,320.618,170,321.081,170C321.544,170,322.008,170,322.471,170C322.934,170,323.398,170,323.861,170C324.324,170,324.788,170,325.251,170C325.714,170,326.178,170,326.641,170C327.104,170,327.568,170,328.031,170C328.494,170,328.958,170,329.421,170C329.884,170,330.347,170,330.811,170C331.274,170,331.737,170,332.201,170C332.664,170,333.127,170,333.591,170C334.054,170,334.517,170,334.981,170C335.444,170,335.907,170,336.371,170C336.834,170,337.297,170,337.761,170C338.224,170,338.687,170,339.151,170C339.614,170,340.077,170,340.541,170C341.004,170,341.467,170,341.931,170C342.394,170,342.857,170,343.32,170C343.784,170,344.247,170,344.71,170C345.174,170,345.637,170,346.1,170C346.564,170,347.027,170,347.49,170C347.954,170,348.417,170,348.88,170C349.344,170,349.807,170,350.27,170C350.734,170,351.197,170,351.66,170C352.124,170,352.587,170,353.05,170C353.514,170,353.977,170,354.44,170C354.903,170,355.367,170,355.83,170C356.293,170,356.757,170,357.22,170C357.683,170,358.147,170,358.61,170C359.073,170,359.537,170,360,170C360.463,170,360.927,170,361.39,170C361.853,170,362.317,170,362.78,170C363.243,170,363.707,170,364.17,170C364.633,170,365.097,170,365.56,170C366.023,170,366.486,170,366.95,170C367.413,170,367.876,170,368.34,170C368.803,170,369.266,170,369.73,170C370.193,170,370.656,170,371.12,170C371.583,170,372.046,170,372.51,170C372.973,170,373.436,170,373.9,170C374.363,170,374.826,170,375.29,170C375.753,170,376.216,170,376.68,170C377.143,170,377.606,170,378.069,170C378.533,170,378.996,170,379.459,170C379.923,170,380.386,170,380.849,170C381.313,170,381.776,170,382.239,170C382.703,170,383.166,170,383.629,170C384.093,170,384.556,170,385.019,170C385.483,170,385.946,170,386.409,170C386.873,170,387.336,170,387.799,170C388.263,170,388.726,170,389.189,170C389.653,170,390.116,170,390.579,170C391.042,170,391.506,170,391.969,170C392.432,170,392.896,170,393.359,170C393.822,170,394.286,170,394.749,170C395.212,170,395.676,170,396.139,170C396.602,170,397.066,170,397.529,170C397.992,170,398.456,170,398.919,170C399.382,170,399.846,170,400.309,170C400.772,170,401.236,170,401.699,170C402.162,170,402.625,170,403.089,170C403.552,170,404.015,170,404.479,170C404.942,170,405.405,170,405.869,170C406.332,170,406.795,170,407.259,170C407.722,170,408.185,170,408.649,170C409.112,170,409.575,170,410.039,170C410.502,170,410.965,170,411.429,170C411.892,170,412.355,170,412.819,170C413.282,170,413.745,170,414.208,170C414.672,170,415.135,170,415.598,170C416.062,170,416.525,170,416.988,170C417.452,170,417.915,170,418.378,170C418.842,170,419.305,170,419.768,170C420.232,170,420.695,170,421.158,170C421.622,170,422.085,170,422.548,170C423.012,170,423.475,170,423.938,170C424.402,170,424.865,170,425.328,170C425.792,170,426.255,170,426.718,170C427.181,170,427.645,170,428.108,170C428.571,170,429.035,170,429.498,170C429.961,170,430.425,170,430.888,170C431.351,170,431.815,170,432.278,170C432.741,170,433.205,170,433.668,170C434.131,170,434.595,170,435.058,170C435.521,170,435.985,170,436.448,170C436.911,170,437.375,170,437.838,170C438.301,170,438.764,170,439.228,170C439.691,170,440.154,170,440.618,170C441.081,170,441.544,170,442.008,170C442.471,170,442.934,170,443.398,170C443.861,170,444.324,170,444.788,170C445.251,170,445.714,170,446.178,170C446.641,170,447.104,170,447.568,170C448.031,170,448.494,170,448.958,170C449.421,170,449.884,170,450.347,170C450.811,170,451.274,170,451.737,170C452.201,170,452.664,170,453.127,170C453.591,170,454.054,170,454.517,170C454.981,170,455.444,170,455.907,170C456.371,170,456.834,170,457.297,170C457.761,170,458.224,170,458.687,170C459.151,170,459.614,170,460.077,170C460.541,170,461.004,170,461.467,170C461.931,170,462.394,170,462.857,170C463.32,170,463.784,170,464.247,170C464.71,170,465.174,170,465.637,170C466.1,170,466.564,170,467.027,170C467.49,170,467.954,170,468.417,170C468.88,170,469.344,170,469.807,170C470.27,170,470.734,170,471.197,170C471.66,170,472.124,170,472.587,170C473.05,170,473.514,170,473.977,170C474.44,170,474.903,170,475.367,170C475.83,170,476.293,170,476.757,170C477.22,170,477.683,170,478.147,170C478.61,170,479.073,170,479.537,170C480,170,480.463,170,480.927,170C481.39,170,481.853,170,482.317,170C482.78,170,483.243,170,483.707,170C484.17,170,484.633,170,485.097,170C485.56,170,486.023,170,486.486,170C486.95,170,487.413,170,487.876,170C488.34,170,488.803,170,489.266,170C489.73,170,490.193,170,490.656,170C491.12,170,491.583,170,492.046,170C492.51,170,492.973,170,493.436,170C493.9,170,494.363,170,494.826,170C495.29,170,495.753,170,496.216,170C496.68,170,497.143,170,497.606,170C498.069,170,498.533,170,498.996,170C499.459,170,499.923,170,500.386,170C500.849,170,501.313,170,501.776,170C502.239,170,502.703,170,503.166,170C503.629,170,504.093,170,504.556,170C505.019,170,505.483,170,505.946,170C506.409,170,506.873,170,507.336,170C507.799,170,508.263,170,508.726,170C509.189,170,509.653,170,510.116,170C510.579,170,511.042,170,511.506,170C511.969,170,512.432,170,512.896,170C513.359,170,513.822,170,514.286,170C514.749,170,515.212,170,515.676,170C516.139,170,516.602,170,517.066,170C517.529,170,517.992,170,518.456,170C518.919,170,519.382,170,519.846,170C520.309,170,520.772,170,521.236,170C521.699,170,522.162,170,522.625,170C523.089,170,523.552,170,524.015,170C524.479,170,524.942,170,525.405,170C525.869,170,526.332,170,526.795,170C527.259,170,527.722,170,528.185,170C528.649,170,529.112,170,529.575,170C530.039,170,530.502,170,530.965,170C531.429,170,531.892,170,532.355,170C532.819,170,533.282,170,533.745,170C534.208,170,534.672,170,535.135,170C535.598,170,536.062,170,536.525,170C536.988,170,537.452,170,537.915,170C538.378,170,538.842,170,539.305,170C539.768,170,540.232,170,540.695,170C541.158,170,541.622,170,542.085,170C542.548,170,543.012,170,543.475,170C543.938,170,544.402,170,544.865,170C545.328,170,545.792,170,546.255,170C546.718,170,547.181,170,547.645,170C548.108,170,548.571,170,549.035,170C549.498,170,549.961,170,550.425,170C550.888,170,551.351,170,551.815,170C552.278,170,552.741,170,553.205,170C553.668,170,554.131,170,554.595,170C555.058,170,555.521,170,555.985,170C556.448,170,556.911,170,557.375,170C557.838,170,558.301,170,558.764,170C559.228,170,559.691,170,560.154,170C560.618,170,561.081,170,561.544,170C562.008,170,562.471,170,562.934,170C563.398,170,563.861,170,564.324,170C564.788,170,565.251,170,565.714,170C566.178,170,566.641,170,567.104,170C567.568,170,568.031,170,568.494,170C568.958,170,569.421,170,569.884,170C570.347,170,570.811,170,571.274,170C571.737,170,572.201,170,572.664,170C573.127,170,573.591,170,574.054,170C574.517,170,574.981,170,575.444,170C575.907,170,576.371,170,576.834,170C577.297,170,577.761,170,578.224,170C578.687,170,579.151,170,579.614,170C580.077,170,580.541,170,581.004,170C581.467,170,581.931,170,582.394,170C582.857,170,583.32,170,583.784,170C584.247,170,584.71,170,585.174,170C585.637,170,586.1,170,586.564,170C587.027,170,587.49,170,587.954,170C588.417,170,588.88,170,589.344,170C589.807,170,590.27,170,590.734,170C591.197,170,591.66,170,592.124,170C592.587,170,593.05,170,593.514,170C593.977,170,594.44,170,594.903,170C595.367,170,595.83,170,596.293,170C596.757,170,597.22,170,597.683,170C598.147,170,598.61,170,599.073,170C599.537,170,600,170,600.463,170C600.927,170,601.39,170,601.853,170C602.317,170,602.78,170,603.243,170C603.707,170,604.17,170,604.633,170C605.097,170,605.56,170,606.023,170C606.486,170,606.95,170,607.413,170C607.876,170,608.34,170,608.803,170C609.266,170,609.73,170,610.193,170C610.656,170,611.12,170,611.583,170C612.046,170,612.51,170,612.973,170C613.436,170,613.9,170,614.363,170C614.826,170,615.29,170,615.753,170C616.216,170,616.68,170,617.143,170C617.606,170,618.069,170,618.533,170C618.996,170,619.459,170,619.923,170C620.386,170,620.849,170,621.313,170C621.776,170,622.239,170,622.703,170C623.166,170,623.629,170,624.093,170C624.556,170,625.019,170,625.483,170C625.946,170,626.409,170,626.873,170C627.336,170,627.799,170,628.263,170C628.726,170,629.189,170,629.653,170C630.116,170,630.579,170,631.042,170C631.506,170,631.969,170,632.432,170C632.896,170,633.359,170,633.822,170C634.286,170,634.749,170,635.212,170C635.676,170,636.139,170,636.602,170C637.066,170,637.529,170,637.992,170C638.456,170,638.919,170,639.382,170C639.846,170,640.309,170,640.772,170C641.236,170,641.699,170,642.162,170C642.625,170,643.089,170,643.552,170C644.015,170,644.479,170,644.942,170C645.405,170,645.869,170,646.332,170C646.795,170,647.259,170,647.722,170C648.185,170,648.649,170,649.112,170C649.575,170,650.039,170,650.502,170C650.965,170,651.429,170,651.892,170C652.355,170,652.819,170,653.282,170C653.745,170,654.208,170,654.672,170C655.135,170,655.598,170,656.062,170C656.525,170,656.988,170,657.452,170C657.915,170,658.378,170,658.842,170C659.305,170,659.768,170,660.232,170C660.695,170,661.158,170,661.622,170C662.085,170,662.548,170,663.012,170C663.475,170,663.938,170,664.402,170C664.865,170,665.328,170,665.792,170C666.255,170,666.718,170,667.181,170C667.645,170,668.108,170,668.571,170C669.035,170,669.498,170,669.961,170C670.425,170,670.888,170,671.351,170C671.815,170,672.278,170,672.741,170C673.205,170,673.668,170,674.131,170C674.595,170,675.058,170,675.521,170C675.985,170,676.448,170,676.911,170C677.375,170,677.838,170,678.301,170C678.764,170,679.228,170,679.691,170C680.154,170,680.618,170,681.081,170C681.544,170,682.008,170,682.471,170C682.934,170,683.398,170,683.861,170C684.324,170,684.788,170,685.251,170C685.714,170,686.178,170,686.641,170C687.104,170,687.568,170,688.031,170C688.494,170,688.958,170,689.421,170C689.884,170,690.347,170,690.811,170C691.274,170,691.737,170,692.201,170C692.664,170,693.127,170,693.591,170C694.054,170,694.517,170,694.981,170C695.444,170,695.907,170,696.371,170C696.834,170,697.297,170,697.761,170C698.224,170,698.687,170,699.151,170C699.614,170,700.077,170,700.541,170C701.004,170,701.467,170,701.931,170C702.394,170,702.857,170,703.32,170C703.784,170,704.247,170,704.71,170C705.174,170,705.637,170,706.1,170C706.564,170,707.027,170,707.49,170C707.954,170,708.417,170,708.88,170C709.344,170,709.807,170,710.27,170C710.734,170,711.197,170,711.66,170C712.124,170,712.587,170,713.05,170C713.514,170,713.977,170,714.44,170C714.903,170,715.367,170,715.83,170C716.293,170,716.757,170,717.22,170C717.683,170,718.147,170,718.61,170C719.073,170,719.537,170,720,170"></path><circle class="dot" cx="0" cy="170" r="3" fill="#2563eb"></circle><circle class="dot" cx="1.38996138996139" cy="170" r="3" fill="#2563eb"></circle><circle class="dot" cx="2.77992277992278" cy="170" r="3" fill="#2563eb"></circle><circle class="dot" cx="4.1698841698841695" cy="170" r="3" fill="#2563eb"></circle><circle class="dot" cx="5.55984555984556" cy="170" r="3" fill="#2563eb"></circle><circle class="dot" cx="6.949806949806949" cy="170" r="3" fill="#2563eb"></circle><circle class="dot" cx="8.339768339768339" cy="170" r="3" fill="#2563eb"></circle><circle class="dot" cx="9.72972972972973" cy="170" r="3" fill="#2563eb"></circle><circle class="dot" cx="11.11969111969112" cy="170" r="3" fill="#2563eb"></circle><circle class="dot" cx="12.50965250965251" cy="170" r="3" fill="#2563eb"></circle><circle class="dot" cx="13.899613899613898" cy="170" r="3" fill="#2563eb"></circle><circle class="dot" cx="15.28957528957529" cy="170" r="3" fill="#2563eb"></circle><circle class="dot" cx="16.679536679536678" cy="170" r="3" fill="#2563eb"></circle><circle class="dot" cx="18.069498069498067" cy="170" r="3" fill="#2563eb"></circle><circle class="dot" cx="19.45945945945946" cy="170" r="3" fill="#2563eb"></circle><circle class="dot" cx="20.84942084942085" cy="170" r="3" fill="#2563eb"></circle><circle class="dot" cx="22.23938223938224" cy="170" r="3" fill="#2563eb"></circle><circle class="dot" cx="23.629343629343627" cy="170" r="3" fill="#2563eb"></circle><circle class="dot" cx="25.01930501930502" cy="170" r="3" fill="#2563eb"></circle><circle class="dot" cx="26.40926640926641" cy="170" r="3" fill="#2563eb"></circle><circle class="dot" cx="27.799227799227797" cy="170" r="3" fill="#2563eb"></circle><circle class="dot" cx="29.18918918918919" cy="170" r="3" fill="#2563eb"></circle><circle class="dot" cx="30.57915057915058" cy="170" r="3" fill="#2563eb"></circle><circle class="dot" cx="31.96911196911197" cy="170" r="3" fill="#2563eb"></circle><circle class="dot" cx="33.359073359073356" cy="170" r="3" fill="#2563eb"></circle><circle class="dot" cx="34.74903474903475" cy="170" r="3" fill="#2563eb"></circle><circle class="dot" cx="36.138996138996134" cy="170" r="3" fill="#2563eb"></circle><circle class="dot" cx="37.52895752895753" cy="170" r="3" fill="#2563eb"></circle><circle class="dot" cx="38.91891891891892" cy="170" r="3" fill="#2563eb"></circle><circle class="dot" cx="40.308880308880305" cy="170" r="3" fill="#2563eb"></circle><circle class="dot" cx="41.6988416988417" cy="170" r="3" fill="#2563eb"></circle><circle class="dot" cx="43.08880308880309" cy="170" r="3" fill="#2563eb"></circle><circle class="dot" cx="44.47876447876448" cy="170" r="3" fill="#2563eb"></circle><circle class="dot" cx="45.86872586872587" cy="170" r="3" fill="#2563eb"></circle><circle class="dot" cx="47.25868725868725" cy="170" r="3" fill="#2563eb"></circle><circle class="dot" cx="48.64864864864865" cy="170" r="3" fill="#2563eb"></circle><circle class="dot" cx="50.03861003861004" cy="170" r="3" fill="#2563eb"></circle><circle class="dot" cx="51.42857142857142" cy="170" r="3" fill="#2563eb"></circle><circle class="dot" cx="52.81853281853282" cy="170" r="3" fill="#2563eb"></circle><circle class="dot" cx="54.20849420849421" cy="170" r="3" fill="#2563eb"></circle><circle class="dot" cx="55.598455598455594" cy="170" r="3" fill="#2563eb"></circle><circle class="dot" cx="56.988416988416986" cy="170" r="3" fill="#2563eb"></circle><circle class="dot" cx="58.37837837837838" cy="170" r="3" fill="#2563eb"></circle><circle class="dot" cx="59.76833976833977" cy="170" r="3" fill="#2563eb"></circle><circle class="dot" cx="61.15830115830116" cy="170" r="3" fill="#2563eb"></circle><circle class="dot" cx="62.54826254826256" cy="170" r="3" fill="#2563eb"></circle><circle class="dot" cx="63.93822393822394" cy="170" r="3" fill="#2563eb"></circle><circle class="dot" cx="65.32818532818533" cy="170" r="3" fill="#2563eb"></circle><circle class="dot" cx="66.71814671814671" cy="170" r="3" fill="#2563eb"></circle><circle class="dot" cx="68.10810810810811" cy="170" r="3" fill="#2563eb"></circle><circle class="dot" cx="69.4980694980695" cy="170" r="3" fill="#2563eb"></circle><circle class="dot" cx="70.88803088803088" cy="170" r="3" fill="#2563eb"></circle><circle class="dot" cx="72.27799227799227" cy="170" r="3" fill="#2563eb"></circle><circle class="dot" cx="73.66795366795367" cy="170" r="3" fill="#2563eb"></circle><circle class="dot" cx="75.05791505791505" cy="170" r="3" fill="#2563eb"></circle><circle class="dot" cx="76.44787644787644" cy="170" r="3" fill="#2563eb"></circle><circle class="dot" cx="77.83783783783784" cy="170" r="3" fill="#2563eb"></circle><circle class="dot" cx="79.22779922779922" cy="170" r="3" fill="#2563eb"></circle><circle class="dot" cx="80.61776061776061" cy="170" r="3" fill="#2563eb"></circle><circle class="dot" cx="82.00772200772201" cy="170" r="3" fill="#2563eb"></circle><circle class="dot" cx="83.3976833976834" cy="170" r="3" fill="#2563eb"></circle><circle class="dot" cx="84.7876447876448" cy="170" r="3" fill="#2563eb"></circle><circle class="dot" cx="86.17760617760618" cy="170" r="3" fill="#2563eb"></circle><circle class="dot" cx="87.56756756756758" cy="170" r="3" fill="#2563eb"></circle><circle class="dot" cx="88.95752895752896" cy="170" r="3" fill="#2563eb"></circle><circle class="dot" cx="90.34749034749035" cy="170" r="3" fill="#2563eb"></circle><circle class="dot" cx="91.73745173745174" cy="170" r="3" fill="#2563eb"></circle><circle class="dot" cx="93.12741312741312" cy="170" r="3" fill="#2563eb"></circle><circle class="dot" cx="94.5173745173745" cy="170" r="3" fill="#2563eb"></circle><circle class="dot" cx="95.90733590733592" cy="170" r="3" fill="#2563eb"></circle><circle class="dot" cx="97.2972972972973" cy="170" r="3" fill="#2563eb"></circle><circle class="dot" cx="98.68725868725869" cy="170" r="3" fill="#2563eb"></circle><circle class="dot" cx="100.07722007722008" cy="170" r="3" fill="#2563eb"></circle><circle class="dot" cx="101.46718146718146" cy="170" r="3" fill="#2563eb"></circle><circle class="dot" cx="102.85714285714285" cy="170" r="3" fill="#2563eb"></circle><circle class="dot" cx="104.24710424710423" cy="170" r="3" fill="#2563eb"></circle><circle class="dot" cx="105.63706563706565" cy="170" r="3" fill="#2563eb"></circle><circle class="dot" cx="107.02702702702703" cy="170" r="3" fill="#2563eb"></circle><circle class="dot" cx="108.41698841698842" cy="170" r="3" fill="#2563eb"></circle><circle class="dot" cx="109.8069498069498" cy="170" r="3" fill="#2563eb"></circle><circle class="dot" cx="111.19691119691119" cy="170" r="3" fill="#2563eb"></circle><circle class="dot" cx="112.58687258687259" cy="170" r="3" fill="#2563eb"></circle><circle class="dot" cx="113.97683397683397" cy="170" r="3" fill="#2563eb"></circle><circle class="dot" cx="115.36679536679537" cy="170" r="3" fill="#2563eb"></circle><circle class="dot" cx="116.75675675675676" cy="170" r="3" fill="#2563eb"></circle><circle class="dot" cx="118.14671814671814" cy="170" r="3" fill="#2563eb"></circle><circle class="dot" cx="119.53667953667954" cy="170" r="3" fill="#2563eb"></circle><circle class="dot" cx="120.92664092664093" cy="170" r="3" fill="#2563eb"></circle><circle class="dot" cx="122.31660231660231" cy="170" r="3" fill="#2563eb"></circle><circle class="dot" cx="123.7065637065637" cy="170" r="3" fill="#2563eb"></circle><circle class="dot" cx="125.09652509652511" cy="170" r="3" fill="#2563eb"></circle><circle class="dot" cx="126.4864864864865" cy="170" r="3" fill="#2563eb"></circle><circle class="dot" cx="127.87644787644788" cy="170" r="3" fill="#2563eb"></circle><circle class="dot" cx="129.26640926640925" cy="170" r="3" fill="#2563eb"></circle><circle class="dot" cx="130.65637065637065" cy="170" r="3" fill="#2563eb"></circle><circle class="dot" cx="132.04633204633205" cy="170" r="3" fill="#2563eb"></circle><circle class="dot" cx="133.43629343629343" cy="170" r="3" fill="#2563eb"></circle><circle class="dot" cx="134.82625482625483" cy="170" r="3" fill="#2563eb"></circle><circle class="dot" cx="136.21621621621622" cy="170" r="3" fill="#2563eb"></circle><circle class="dot" cx="137.60617760617762" cy="170" r="3" fill="#2563eb"></circle><circle class="dot" cx="138.996138996139" cy="170" r="3" fill="#2563eb"></circle><circle class="dot" cx="140.3861003861004" cy="170" r="3" fill="#2563eb"></circle><circle class="dot" cx="141.77606177606177" cy="170" r="3" fill="#2563eb"></circle><circle class="dot" cx="143.16602316602317" cy="170" r="3" fill="#2563eb"></circle><circle class="dot" cx="144.55598455598454" cy="170" r="3" fill="#2563eb"></circle><circle class="dot" cx="145.94594594594597" cy="170" r="3" fill="#2563eb"></circle><circle class="dot" cx="147.33590733590734" cy="170" r="3" fill="#2563eb"></circle><circle class="dot" cx="148.72586872586874" cy="170" r="3" fill="#2563eb"></circle><circle class="dot" cx="150.1158301158301" cy="170" r="3" fill="#2563eb"></circle><circle class="dot" cx="151.5057915057915" cy="170" r="3" fill="#2563eb"></circle><circle class="dot" cx="152.89575289575288" cy="170" r="3" fill="#2563eb"></circle><circle class="dot" cx="154.28571428571428" cy="170" r="3" fill="#2563eb"></circle><circle class="dot" cx="155.67567567567568" cy="170" r="3" fill="#2563eb"></circle><circle class="dot" cx="157.06563706563708" cy="170" r="3" fill="#2563eb"></circle><circle class="dot" cx="158.45559845559845" cy="170" r="3" fill="#2563eb"></circle><circle class="dot" cx="159.84555984555985" cy="170" r="3" fill="#2563eb"></circle><circle class="dot" cx="161.23552123552122" cy="170" r="3" fill="#2563eb"></circle><circle class="dot" cx="162.62548262548262" cy="170" r="3" fill="#2563eb"></circle><circle class="dot" cx="164.01544401544402" cy="170" r="3" fill="#2563eb"></circle><circle class="dot" cx="165.40540540540542" cy="170" r="3" fill="#2563eb"></circle><circle class="dot" cx="166.7953667953668" cy="170" r="3" fill="#2563eb"></circle><circle class="dot" cx="168.1853281853282" cy="170" r="3" fill="#2563eb"></circle><circle class="dot" cx="169.5752895752896" cy="170" r="3" fill="#2563eb"></circle><circle class="dot" cx="170.96525096525096" cy="170" r="3" fill="#2563eb"></circle><circle class="dot" cx="172.35521235521236" cy="170" r="3" fill="#2563eb"></circle><circle class="dot" cx="173.74517374517373" cy="170" r="3" fill="#2563eb"></circle><circle class="dot" cx="175.13513513513516" cy="170" r="3" fill="#2563eb"></circle><circle class="dot" cx="176.52509652509653" cy="170" r="3" fill="#2563eb"></circle><circle class="dot" cx="177.91505791505793" cy="170" r="3" fill="#2563eb"></circle><circle class="dot" cx="179.3050193050193" cy="170" r="3" fill="#2563eb"></circle><circle class="dot" cx="180.6949806949807" cy="170" r="3" fill="#2563eb"></circle><circle class="dot" cx="182.08494208494207" cy="170" r="3" fill="#2563eb"></circle><circle class="dot" cx="183.47490347490347" cy="170" r="3" fill="#2563eb"></circle><circle class="dot" cx="184.86486486486484" cy="170" r="3" fill="#2563eb"></circle><circle class="dot" cx="186.25482625482624" cy="170" r="3" fill="#2563eb"></circle><circle class="dot" cx="187.64478764478764" cy="170" r="3" fill="#2563eb"></circle><circle class="dot" cx="189.034749034749" cy="170" r="3" fill="#2563eb"></circle><circle class="dot" cx="190.42471042471044" cy="170" r="3" fill="#2563eb"></circle><circle class="dot" cx="191.81467181467184" cy="170" r="3" fill="#2563eb"></circle><circle class="dot" cx="193.2046332046332" cy="170" r="3" fill="#2563eb"></circle><circle class="dot" cx="194.5945945945946" cy="170" r="3" fill="#2563eb"></circle><circle class="dot" cx="195.98455598455598" cy="170" r="3" fill="#2563eb"></circle><circle class="dot" cx="197.37451737451738" cy="170" r="3" fill="#2563eb"></circle><circle class="dot" cx="198.76447876447878" cy="170" r="3" fill="#2563eb"></circle><circle class="dot" cx="200.15444015444015" cy="170" r="3" fill="#2563eb"></circle><circle class="dot" cx="201.54440154440155" cy="170" r="3" fill="#2563eb"></circle><circle class="dot" cx="202.93436293436292" cy="170" r="3" fill="#2563eb"></circle><circle class="dot" cx="204.32432432432432" cy="170" r="3" fill="#2563eb"></circle><circle class="dot" cx="205.7142857142857" cy="170" r="3" fill="#2563eb"></circle><circle class="dot" cx="207.1042471042471" cy="170" r="3" fill="#2563eb"></circle><circle class="dot" cx="208.49420849420846" cy="170" r="3" fill="#2563eb"></circle><circle class="dot" cx="209.88416988416986" cy="170" r="3" fill="#2563eb"></circle><circle class="dot" cx="211.2741312741313" cy="170" r="3" fill="#2563eb"></circle><circle class="dot" cx="212.6640926640927" cy="170" r="3" fill="#2563eb"></circle><circle class="dot" cx="214.05405405405406" cy="170" r="3" fill="#2563eb"></circle><circle class="dot" cx="215.44401544401546" cy="170" r="3" fill="#2563eb"></circle><circle class="dot" cx="216.83397683397683" cy="170" r="3" fill="#2563eb"></circle><circle class="dot" cx="218.22393822393823" cy="170" r="3" fill="#2563eb"></circle><circle class="dot" cx="219.6138996138996" cy="170" r="3" fill="#2563eb"></circle><circle class="dot" cx="221.003861003861" cy="170" r="3" fill="#2563eb"></circle><circle class="dot" cx="222.39382239382238" cy="170" r="3" fill="#2563eb"></circle><circle class="dot" cx="223.78378378378378" cy="170" r="3" fill="#2563eb"></circle><circle class="dot" cx="225.17374517374517" cy="170" r="3" fill="#2563eb"></circle><circle class="dot" cx="226.56370656370655" cy="170" r="3" fill="#2563eb"></circle><circle class="dot" cx="227.95366795366795" cy="170" r="3" fill="#2563eb"></circle><circle class="dot" cx="229.34362934362932" cy="170" r="3" fill="#2563eb"></circle><circle class="dot" cx="230.73359073359075" cy="170" r="3" fill="#2563eb"></circle><circle class="dot" cx="232.12355212355214" cy="170" r="3" fill="#2563eb"></circle><circle class="dot" cx="233.51351351351352" cy="170" r="3" fill="#2563eb"></circle><circle class="dot" cx="234.90347490347492" cy="170" r="3" fill="#2563eb"></circle><circle class="dot" cx="236.2934362934363" cy="170" r="3" fill="#2563eb"></circle><circle class="dot" cx="237.6833976833977" cy="170" r="3" fill="#2563eb"></circle><circle class="dot" cx="239.0733590733591" cy="170" r="3" fill="#2563eb"></circle><circle class="dot" cx="240.46332046332046" cy="170" r="3" fill="#2563eb"></circle><circle class="dot" cx="241.85328185328186" cy="170" r="3" fill="#2563eb"></circle><circle class="dot" cx="243.24324324324323" cy="170" r="3" fill="#2563eb"></circle><circle class="dot" cx="244.63320463320463" cy="170" r="3" fill="#2563eb"></circle><circle class="dot" cx="246.023166023166" cy="170" r="3" fill="#2563eb"></circle><circle class="dot" cx="247.4131274131274" cy="170" r="3" fill="#2563eb"></circle><circle class="dot" cx="248.8030888030888" cy="170" r="3" fill="#2563eb"></circle><circle class="dot" cx="250.19305019305023" cy="170" r="3" fill="#2563eb"></circle><circle class="dot" cx="251.5830115830116" cy="170" r="3" fill="#2563eb"></circle><circle class="dot" cx="252.972972972973" cy="170" r="3" fill="#2563eb"></circle><circle class="dot" cx="254.36293436293437" cy="170" r="3" fill="#2563eb"></circle><circle class="dot" cx="255.75289575289577" cy="170" r="3" fill="#2563eb"></circle><circle class="dot" cx="257.14285714285717" cy="170" r="3" fill="#2563eb"></circle><circle class="dot" cx="258.5328185328185" cy="170" r="3" fill="#2563eb"></circle><circle class="dot" cx="259.9227799227799" cy="170" r="3" fill="#2563eb"></circle><circle class="dot" cx="261.3127413127413" cy="170" r="3" fill="#2563eb"></circle><circle class="dot" cx="262.7027027027027" cy="170" r="3" fill="#2563eb"></circle><circle class="dot" cx="264.0926640926641" cy="170" r="3" fill="#2563eb"></circle><circle class="dot" cx="265.48262548262545" cy="170" r="3" fill="#2563eb"></circle><circle class="dot" cx="266.87258687258685" cy="170" r="3" fill="#2563eb"></circle><circle class="dot" cx="268.26254826254825" cy="170" r="3" fill="#2563eb"></circle><circle class="dot" cx="269.65250965250965" cy="170" r="3" fill="#2563eb"></circle><circle class="dot" cx="271.04247104247105" cy="170" r="3" fill="#2563eb"></circle><circle class="dot" cx="272.43243243243245" cy="170" r="3" fill="#2563eb"></circle><circle class="dot" cx="273.82239382239385" cy="170" r="3" fill="#2563eb"></circle><circle class="dot" cx="275.21235521235525" cy="170" r="3" fill="#2563eb"></circle><circle class="dot" cx="276.6023166023166" cy="170" r="3" fill="#2563eb"></circle><circle class="dot" cx="277.992277992278" cy="170" r="3" fill="#2563eb"></circle><circle class="dot" cx="279.3822393822394" cy="170" r="3" fill="#2563eb"></circle><circle class="dot" cx="280.7722007722008" cy="170" r="3" fill="#2563eb"></circle><circle class="dot" cx="282.16216216216213" cy="170" r="3" fill="#2563eb"></circle><circle class="dot" cx="283.55212355212353" cy="170" r="3" fill="#2563eb"></circle><circle class="dot" cx="284.94208494208493" cy="170" r="3" fill="#2563eb"></circle><circle class="dot" cx="286.33204633204633" cy="170" r="3" fill="#2563eb"></circle><circle class="dot" cx="287.72200772200773" cy="170" r="3" fill="#2563eb"></circle><circle class="dot" cx="289.1119691119691" cy="170" r="3" fill="#2563eb"></circle><circle class="dot" cx="290.50193050193053" cy="170" r="3" fill="#2563eb"></circle><circle class="dot" cx="291.89189189189193" cy="170" r="3" fill="#2563eb"></circle><circle class="dot" cx="293.2818532818533" cy="170" r="3" fill="#2563eb"></circle><circle class="dot" cx="294.6718146718147" cy="170" r="3" fill="#2563eb"></circle><circle class="dot" cx="296.0617760617761" cy="170" r="3" fill="#2563eb"></circle><circle class="dot" cx="297.4517374517375" cy="170" r="3" fill="#2563eb"></circle><circle class="dot" cx="298.84169884169887" cy="170" r="3" fill="#2563eb"></circle><circle class="dot" cx="300.2316602316602" cy="170" r="3" fill="#2563eb"></circle><circle class="dot" cx="301.6216216216216" cy="170" r="3" fill="#2563eb"></circle><circle class="dot" cx="303.011583011583" cy="170" r="3" fill="#2563eb"></circle><circle class="dot" cx="304.4015444015444" cy="170" r="3" fill="#2563eb"></circle><circle class="dot" cx="305.79150579150576" cy="170" r="3" fill="#2563eb"></circle><circle class="dot" cx="307.18146718146716" cy="170" r="3" fill="#2563eb"></circle><circle class="dot" cx="308.57142857142856" cy="170" r="3" fill="#2563eb"></circle><circle class="dot" cx="309.96138996138995" cy="170" r="3" fill="#2563eb"></circle><circle class="dot" cx="311.35135135135135" cy="170" r="3" fill="#2563eb"></circle><circle class="dot" cx="312.74131274131275" cy="170" r="3" fill="#2563eb"></circle><circle class="dot" cx="314.13127413127415" cy="170" r="3" fill="#2563eb"></circle><circle class="dot" cx="315.52123552123555" cy="170" r="3" fill="#2563eb"></circle><circle class="dot" cx="316.9111969111969" cy="170" r="3" fill="#2563eb"></circle><circle class="dot" cx="318.3011583011583" cy="170" r="3" fill="#2563eb"></circle><circle class="dot" cx="319.6911196911197" cy="170" r="3" fill="#2563eb"></circle><circle class="dot" cx="321.0810810810811" cy="170" r="3" fill="#2563eb"></circle><circle class="dot" cx="322.47104247104244" cy="170" r="3" fill="#2563eb"></circle><circle class="dot" cx="323.86100386100384" cy="170" r="3" fill="#2563eb"></circle><circle class="dot" cx="325.25096525096524" cy="170" r="3" fill="#2563eb"></circle><circle class="dot" cx="326.64092664092664" cy="170" r="3" fill="#2563eb"></circle><circle class="dot" cx="328.03088803088804" cy="170" r="3" fill="#2563eb"></circle><circle class="dot" cx="329.4208494208494" cy="170" r="3" fill="#2563eb"></circle><circle class="dot" cx="330.81081081081084" cy="170" r="3" fill="#2563eb"></circle><circle class="dot" cx="332.20077220077224" cy="170" r="3" fill="#2563eb"></circle><circle class="dot" cx="333.5907335907336" cy="170" r="3" fill="#2563eb"></circle><circle class="dot" cx="334.980694980695" cy="170" r="3" fill="#2563eb"></circle><circle class="dot" cx="336.3706563706564" cy="170" r="3" fill="#2563eb"></circle><circle class="dot" cx="337.7606177606178" cy="170" r="3" fill="#2563eb"></circle><circle class="dot" cx="339.1505791505792" cy="170" r="3" fill="#2563eb"></circle><circle class="dot" cx="340.5405405405405" cy="170" r="3" fill="#2563eb"></circle><circle class="dot" cx="341.9305019305019" cy="170" r="3" fill="#2563eb"></circle><circle class="dot" cx="343.3204633204633" cy="170" r="3" fill="#2563eb"></circle><circle class="dot" cx="344.7104247104247" cy="170" r="3" fill="#2563eb"></circle><circle class="dot" cx="346.10038610038606" cy="170" r="3" fill="#2563eb"></circle><circle class="dot" cx="347.49034749034746" cy="170" r="3" fill="#2563eb"></circle><circle class="dot" cx="348.88030888030886" cy="170" r="3" fill="#2563eb"></circle><circle class="dot" cx="350.2702702702703" cy="170" r="3" fill="#2563eb"></circle><circle class="dot" cx="351.66023166023166" cy="170" r="3" fill="#2563eb"></circle><circle class="dot" cx="353.05019305019306" cy="170" r="3" fill="#2563eb"></circle><circle class="dot" cx="354.44015444015446" cy="170" r="3" fill="#2563eb"></circle><circle class="dot" cx="355.83011583011586" cy="170" r="3" fill="#2563eb"></circle><circle class="dot" cx="357.2200772200772" cy="170" r="3" fill="#2563eb"></circle><circle class="dot" cx="358.6100386100386" cy="170" r="3" fill="#2563eb"></circle><circle class="dot" cx="360" cy="170" r="3" fill="#2563eb"></circle><circle class="dot" cx="361.3899613899614" cy="170" r="3" fill="#2563eb"></circle><circle class="dot" cx="362.7799227799228" cy="170" r="3" fill="#2563eb"></circle><circle class="dot" cx="364.16988416988414" cy="170" r="3" fill="#2563eb"></circle><circle class="dot" cx="365.55984555984554" cy="170" r="3" fill="#2563eb"></circle><circle class="dot" cx="366.94980694980694" cy="170" r="3" fill="#2563eb"></circle><circle class="dot" cx="368.33976833976834" cy="170" r="3" fill="#2563eb"></circle><circle class="dot" cx="369.7297297297297" cy="170" r="3" fill="#2563eb"></circle><circle class="dot" cx="371.1196911196911" cy="170" r="3" fill="#2563eb"></circle><circle class="dot" cx="372.5096525096525" cy="170" r="3" fill="#2563eb"></circle><circle class="dot" cx="373.8996138996139" cy="170" r="3" fill="#2563eb"></circle><circle class="dot" cx="375.2895752895753" cy="170" r="3" fill="#2563eb"></circle><circle class="dot" cx="376.6795366795366" cy="170" r="3" fill="#2563eb"></circle><circle class="dot" cx="378.069498069498" cy="170" r="3" fill="#2563eb"></circle><circle class="dot" cx="379.4594594594594" cy="170" r="3" fill="#2563eb"></circle><circle class="dot" cx="380.8494208494209" cy="170" r="3" fill="#2563eb"></circle><circle class="dot" cx="382.2393822393823" cy="170" r="3" fill="#2563eb"></circle><circle class="dot" cx="383.6293436293437" cy="170" r="3" fill="#2563eb"></circle><circle class="dot" cx="385.019305019305" cy="170" r="3" fill="#2563eb"></circle><circle class="dot" cx="386.4092664092664" cy="170" r="3" fill="#2563eb"></circle><circle class="dot" cx="387.7992277992278" cy="170" r="3" fill="#2563eb"></circle><circle class="dot" cx="389.1891891891892" cy="170" r="3" fill="#2563eb"></circle><circle class="dot" cx="390.5791505791506" cy="170" r="3" fill="#2563eb"></circle><circle class="dot" cx="391.96911196911196" cy="170" r="3" fill="#2563eb"></circle><circle class="dot" cx="393.35907335907336" cy="170" r="3" fill="#2563eb"></circle><circle class="dot" cx="394.74903474903476" cy="170" r="3" fill="#2563eb"></circle><circle class="dot" cx="396.13899613899616" cy="170" r="3" fill="#2563eb"></circle><circle class="dot" cx="397.52895752895756" cy="170" r="3" fill="#2563eb"></circle><circle class="dot" cx="398.9189189189189" cy="170" r="3" fill="#2563eb"></circle><circle class="dot" cx="400.3088803088803" cy="170" r="3" fill="#2563eb"></circle><circle class="dot" cx="401.6988416988417" cy="170" r="3" fill="#2563eb"></circle><circle class="dot" cx="403.0888030888031" cy="170" r="3" fill="#2563eb"></circle><circle class="dot" cx="404.47876447876445" cy="170" r="3" fill="#2563eb"></circle><circle class="dot" cx="405.86872586872585" cy="170" r="3" fill="#2563eb"></circle><circle class="dot" cx="407.25868725868725" cy="170" r="3" fill="#2563eb"></circle><circle class="dot" cx="408.64864864864865" cy="170" r="3" fill="#2563eb"></circle><circle class="dot" cx="410.03861003861005" cy="170" r="3" fill="#2563eb"></circle><circle class="dot" cx="411.4285714285714" cy="170" r="3" fill="#2563eb"></circle><circle class="dot" cx="412.8185328185328" cy="170" r="3" fill="#2563eb"></circle><circle class="dot" cx="414.2084942084942" cy="170" r="3" fill="#2563eb"></circle><circle class="dot" cx="415.5984555984556" cy="170" r="3" fill="#2563eb"></circle><circle class="dot" cx="416.98841698841693" cy="170" r="3" fill="#2563eb"></circle><circle class="dot" cx="418.37837837837833" cy="170" r="3" fill="#2563eb"></circle><circle class="dot" cx="419.76833976833973" cy="170" r="3" fill="#2563eb"></circle><circle class="dot" cx="421.1583011583012" cy="170" r="3" fill="#2563eb"></circle><circle class="dot" cx="422.5482625482626" cy="170" r="3" fill="#2563eb"></circle><circle class="dot" cx="423.938223938224" cy="170" r="3" fill="#2563eb"></circle><circle class="dot" cx="425.3281853281854" cy="170" r="3" fill="#2563eb"></circle><circle class="dot" cx="426.7181467181467" cy="170" r="3" fill="#2563eb"></circle><circle class="dot" cx="428.1081081081081" cy="170" r="3" fill="#2563eb"></circle><circle class="dot" cx="429.4980694980695" cy="170" r="3" fill="#2563eb"></circle><circle class="dot" cx="430.8880308880309" cy="170" r="3" fill="#2563eb"></circle><circle class="dot" cx="432.27799227799227" cy="170" r="3" fill="#2563eb"></circle><circle class="dot" cx="433.66795366795367" cy="170" r="3" fill="#2563eb"></circle><circle class="dot" cx="435.05791505791507" cy="170" r="3" fill="#2563eb"></circle><circle class="dot" cx="436.44787644787647" cy="170" r="3" fill="#2563eb"></circle><circle class="dot" cx="437.83783783783787" cy="170" r="3" fill="#2563eb"></circle><circle class="dot" cx="439.2277992277992" cy="170" r="3" fill="#2563eb"></circle><circle class="dot" cx="440.6177606177606" cy="170" r="3" fill="#2563eb"></circle><circle class="dot" cx="442.007722007722" cy="170" r="3" fill="#2563eb"></circle><circle class="dot" cx="443.3976833976834" cy="170" r="3" fill="#2563eb"></circle><circle class="dot" cx="444.78764478764475" cy="170" r="3" fill="#2563eb"></circle><circle class="dot" cx="446.17760617760615" cy="170" r="3" fill="#2563eb"></circle><circle class="dot" cx="447.56756756756755" cy="170" r="3" fill="#2563eb"></circle><circle class="dot" cx="448.95752895752895" cy="170" r="3" fill="#2563eb"></circle><circle class="dot" cx="450.34749034749035" cy="170" r="3" fill="#2563eb"></circle><circle class="dot" cx="451.7374517374517" cy="170" r="3" fill="#2563eb"></circle><circle class="dot" cx="453.1274131274131" cy="170" r="3" fill="#2563eb"></circle><circle class="dot" cx="454.5173745173745" cy="170" r="3" fill="#2563eb"></circle><circle class="dot" cx="455.9073359073359" cy="170" r="3" fill="#2563eb"></circle><circle class="dot" cx="457.2972972972973" cy="170" r="3" fill="#2563eb"></circle><circle class="dot" cx="458.68725868725863" cy="170" r="3" fill="#2563eb"></circle><circle class="dot" cx="460.0772200772201" cy="170" r="3" fill="#2563eb"></circle><circle class="dot" cx="461.4671814671815" cy="170" r="3" fill="#2563eb"></circle><circle class="dot" cx="462.8571428571429" cy="170" r="3" fill="#2563eb"></circle><circle class="dot" cx="464.2471042471043" cy="170" r="3" fill="#2563eb"></circle><circle class="dot" cx="465.6370656370657" cy="170" r="3" fill="#2563eb"></circle><circle class="dot" cx="467.02702702702703" cy="170" r="3" fill="#2563eb"></circle><circle class="dot" cx="468.41698841698843" cy="170" r="3" fill="#2563eb"></circle><circle class="dot" cx="469.80694980694983" cy="170" r="3" fill="#2563eb"></circle><circle class="dot" cx="471.19691119691123" cy="170" r="3" fill="#2563eb"></circle><circle class="dot" cx="472.5868725868726" cy="170" r="3" fill="#2563eb"></circle><circle class="dot" cx="473.976833976834" cy="170" r="3" fill="#2563eb"></circle><circle class="dot" cx="475.3667953667954" cy="170" r="3" fill="#2563eb"></circle><circle class="dot" cx="476.7567567567568" cy="170" r="3" fill="#2563eb"></circle><circle class="dot" cx="478.1467181467182" cy="170" r="3" fill="#2563eb"></circle><circle class="dot" cx="479.5366795366795" cy="170" r="3" fill="#2563eb"></circle><circle class="dot" cx="480.9266409266409" cy="170" r="3" fill="#2563eb"></circle><circle class="dot" cx="482.3166023166023" cy="170" r="3" fill="#2563eb"></circle><circle class="dot" cx="483.7065637065637" cy="170" r="3" fill="#2563eb"></circle><circle class="dot" cx="485.0965250965251" cy="170" r="3" fill="#2563eb"></circle><circle class="dot" cx="486.48648648648646" cy="170" r="3" fill="#2563eb"></circle><circle class="dot" cx="487.87644787644786" cy="170" r="3" fill="#2563eb"></circle><circle class="dot" cx="489.26640926640925" cy="170" r="3" fill="#2563eb"></circle><circle class="dot" cx="490.65637065637065" cy="170" r="3" fill="#2563eb"></circle><circle class="dot" cx="492.046332046332" cy="170" r="3" fill="#2563eb"></circle><circle class="dot" cx="493.4362934362934" cy="170" r="3" fill="#2563eb"></circle><circle class="dot" cx="494.8262548262548" cy="170" r="3" fill="#2563eb"></circle><circle class="dot" cx="496.2162162162162" cy="170" r="3" fill="#2563eb"></circle><circle class="dot" cx="497.6061776061776" cy="170" r="3" fill="#2563eb"></circle><circle class="dot" cx="498.99613899613894" cy="170" r="3" fill="#2563eb"></circle><circle class="dot" cx="500.38610038610045" cy="170" r="3" fill="#2563eb"></circle><circle class="dot" cx="501.7760617760618" cy="170" r="3" fill="#2563eb"></circle><circle class="dot" cx="503.1660231660232" cy="170" r="3" fill="#2563eb"></circle><circle class="dot" cx="504.5559845559846" cy="170" r="3" fill="#2563eb"></circle><circle class="dot" cx="505.945945945946" cy="170" r="3" fill="#2563eb"></circle><circle class="dot" cx="507.33590733590734" cy="170" r="3" fill="#2563eb"></circle><circle class="dot" cx="508.72586872586874" cy="170" r="3" fill="#2563eb"></circle><circle class="dot" cx="510.11583011583014" cy="170" r="3" fill="#2563eb"></circle><circle class="dot" cx="511.50579150579154" cy="170" r="3" fill="#2563eb"></circle><circle class="dot" cx="512.8957528957529" cy="170" r="3" fill="#2563eb"></circle><circle class="dot" cx="514.2857142857143" cy="170" r="3" fill="#2563eb"></circle><circle class="dot" cx="515.6756756756757" cy="170" r="3" fill="#2563eb"></circle><circle class="dot" cx="517.065637065637" cy="170" r="3" fill="#2563eb"></circle><circle class="dot" cx="518.4555984555984" cy="170" r="3" fill="#2563eb"></circle><circle class="dot" cx="519.8455598455598" cy="170" r="3" fill="#2563eb"></circle><circle class="dot" cx="521.2355212355212" cy="170" r="3" fill="#2563eb"></circle><circle class="dot" cx="522.6254826254826" cy="170" r="3" fill="#2563eb"></circle><circle class="dot" cx="524.015444015444" cy="170" r="3" fill="#2563eb"></circle><circle class="dot" cx="525.4054054054054" cy="170" r="3" fill="#2563eb"></circle><circle class="dot" cx="526.7953667953668" cy="170" r="3" fill="#2563eb"></circle><circle class="dot" cx="528.1853281853282" cy="170" r="3" fill="#2563eb"></circle><circle class="dot" cx="529.5752895752895" cy="170" r="3" fill="#2563eb"></circle><circle class="dot" cx="530.9652509652509" cy="170" r="3" fill="#2563eb"></circle><circle class="dot" cx="532.3552123552123" cy="170" r="3" fill="#2563eb"></circle><circle class="dot" cx="533.7451737451737" cy="170" r="3" fill="#2563eb"></circle><circle class="dot" cx="535.1351351351351" cy="170" r="3" fill="#2563eb"></circle><circle class="dot" cx="536.5250965250965" cy="170" r="3" fill="#2563eb"></circle><circle class="dot" cx="537.9150579150579" cy="170" r="3" fill="#2563eb"></circle><circle class="dot" cx="539.3050193050193" cy="170" r="3" fill="#2563eb"></circle><circle class="dot" cx="540.6949806949807" cy="170" r="3" fill="#2563eb"></circle><circle class="dot" cx="542.0849420849421" cy="170" r="3" fill="#2563eb"></circle><circle class="dot" cx="543.4749034749035" cy="170" r="3" fill="#2563eb"></circle><circle class="dot" cx="544.8648648648649" cy="170" r="3" fill="#2563eb"></circle><circle class="dot" cx="546.2548262548263" cy="170" r="3" fill="#2563eb"></circle><circle class="dot" cx="547.6447876447877" cy="170" r="3" fill="#2563eb"></circle><circle class="dot" cx="549.0347490347491" cy="170" r="3" fill="#2563eb"></circle><circle class="dot" cx="550.4247104247105" cy="170" r="3" fill="#2563eb"></circle><circle class="dot" cx="551.8146718146718" cy="170" r="3" fill="#2563eb"></circle><circle class="dot" cx="553.2046332046332" cy="170" r="3" fill="#2563eb"></circle><circle class="dot" cx="554.5945945945946" cy="170" r="3" fill="#2563eb"></circle><circle class="dot" cx="555.984555984556" cy="170" r="3" fill="#2563eb"></circle><circle class="dot" cx="557.3745173745174" cy="170" r="3" fill="#2563eb"></circle><circle class="dot" cx="558.7644787644788" cy="170" r="3" fill="#2563eb"></circle><circle class="dot" cx="560.1544401544402" cy="170" r="3" fill="#2563eb"></circle><circle class="dot" cx="561.5444015444016" cy="170" r="3" fill="#2563eb"></circle><circle class="dot" cx="562.934362934363" cy="170" r="3" fill="#2563eb"></circle><circle class="dot" cx="564.3243243243243" cy="170" r="3" fill="#2563eb"></circle><circle class="dot" cx="565.7142857142857" cy="170" r="3" fill="#2563eb"></circle><circle class="dot" cx="567.1042471042471" cy="170" r="3" fill="#2563eb"></circle><circle class="dot" cx="568.4942084942085" cy="170" r="3" fill="#2563eb"></circle><circle class="dot" cx="569.8841698841699" cy="170" r="3" fill="#2563eb"></circle><circle class="dot" cx="571.2741312741313" cy="170" r="3" fill="#2563eb"></circle><circle class="dot" cx="572.6640926640927" cy="170" r="3" fill="#2563eb"></circle><circle class="dot" cx="574.0540540540541" cy="170" r="3" fill="#2563eb"></circle><circle class="dot" cx="575.4440154440155" cy="170" r="3" fill="#2563eb"></circle><circle class="dot" cx="576.8339768339767" cy="170" r="3" fill="#2563eb"></circle><circle class="dot" cx="578.2239382239381" cy="170" r="3" fill="#2563eb"></circle><circle class="dot" cx="579.6138996138995" cy="170" r="3" fill="#2563eb"></circle><circle class="dot" cx="581.0038610038611" cy="170" r="3" fill="#2563eb"></circle><circle class="dot" cx="582.3938223938225" cy="170" r="3" fill="#2563eb"></circle><circle class="dot" cx="583.7837837837839" cy="170" r="3" fill="#2563eb"></circle><circle class="dot" cx="585.1737451737451" cy="170" r="3" fill="#2563eb"></circle><circle class="dot" cx="586.5637065637065" cy="170" r="3" fill="#2563eb"></circle><circle class="dot" cx="587.953667953668" cy="170" r="3" fill="#2563eb"></circle><circle class="dot" cx="589.3436293436293" cy="170" r="3" fill="#2563eb"></circle><circle class="dot" cx="590.7335907335907" cy="170" r="3" fill="#2563eb"></circle><circle class="dot" cx="592.1235521235521" cy="170" r="3" fill="#2563eb"></circle><circle class="dot" cx="593.5135135135135" cy="170" r="3" fill="#2563eb"></circle><circle class="dot" cx="594.903474903475" cy="170" r="3" fill="#2563eb"></circle><circle class="dot" cx="596.2934362934363" cy="170" r="3" fill="#2563eb"></circle><circle class="dot" cx="597.6833976833977" cy="170" r="3" fill="#2563eb"></circle><circle class="dot" cx="599.073359073359" cy="170" r="3" fill="#2563eb"></circle><circle class="dot" cx="600.4633204633204" cy="170" r="3" fill="#2563eb"></circle><circle class="dot" cx="601.8532818532818" cy="170" r="3" fill="#2563eb"></circle><circle class="dot" cx="603.2432432432432" cy="170" r="3" fill="#2563eb"></circle><circle class="dot" cx="604.6332046332046" cy="170" r="3" fill="#2563eb"></circle><circle class="dot" cx="606.023166023166" cy="170" r="3" fill="#2563eb"></circle><circle class="dot" cx="607.4131274131274" cy="170" r="3" fill="#2563eb"></circle><circle class="dot" cx="608.8030888030888" cy="170" r="3" fill="#2563eb"></circle><circle class="dot" cx="610.1930501930502" cy="170" r="3" fill="#2563eb"></circle><circle class="dot" cx="611.5830115830115" cy="170" r="3" fill="#2563eb"></circle><circle class="dot" cx="612.9729729729729" cy="170" r="3" fill="#2563eb"></circle><circle class="dot" cx="614.3629343629343" cy="170" r="3" fill="#2563eb"></circle><circle class="dot" cx="615.7528957528957" cy="170" r="3" fill="#2563eb"></circle><circle class="dot" cx="617.1428571428571" cy="170" r="3" fill="#2563eb"></circle><circle class="dot" cx="618.5328185328185" cy="170" r="3" fill="#2563eb"></circle><circle class="dot" cx="619.9227799227799" cy="170" r="3" fill="#2563eb"></circle><circle class="dot" cx="621.3127413127413" cy="170" r="3" fill="#2563eb"></circle><circle class="dot" cx="622.7027027027027" cy="170" r="3" fill="#2563eb"></circle><circle class="dot" cx="624.0926640926641" cy="170" r="3" fill="#2563eb"></circle><circle class="dot" cx="625.4826254826255" cy="170" r="3" fill="#2563eb"></circle><circle class="dot" cx="626.8725868725869" cy="170" r="3" fill="#2563eb"></circle><circle class="dot" cx="628.2625482625483" cy="170" r="3" fill="#2563eb"></circle><circle class="dot" cx="629.6525096525097" cy="170" r="3" fill="#2563eb"></circle><circle class="dot" cx="631.0424710424711" cy="170" r="3" fill="#2563eb"></circle><circle class="dot" cx="632.4324324324324" cy="170" r="3" fill="#2563eb"></circle><circle class="dot" cx="633.8223938223938" cy="170" r="3" fill="#2563eb"></circle><circle class="dot" cx="635.2123552123552" cy="170" r="3" fill="#2563eb"></circle><circle class="dot" cx="636.6023166023166" cy="170" r="3" fill="#2563eb"></circle><circle class="dot" cx="637.992277992278" cy="170" r="3" fill="#2563eb"></circle><circle class="dot" cx="639.3822393822394" cy="170" r="3" fill="#2563eb"></circle><circle class="dot" cx="640.7722007722008" cy="170" r="3" fill="#2563eb"></circle><circle class="dot" cx="642.1621621621622" cy="170" r="3" fill="#2563eb"></circle><circle class="dot" cx="643.5521235521236" cy="170" r="3" fill="#2563eb"></circle><circle class="dot" cx="644.9420849420849" cy="170" r="3" fill="#2563eb"></circle><circle class="dot" cx="646.3320463320463" cy="170" r="3" fill="#2563eb"></circle><circle class="dot" cx="647.7220077220077" cy="170" r="3" fill="#2563eb"></circle><circle class="dot" cx="649.1119691119691" cy="170" r="3" fill="#2563eb"></circle><circle class="dot" cx="650.5019305019305" cy="170" r="3" fill="#2563eb"></circle><circle class="dot" cx="651.8918918918919" cy="170" r="3" fill="#2563eb"></circle><circle class="dot" cx="653.2818532818533" cy="170" r="3" fill="#2563eb"></circle><circle class="dot" cx="654.6718146718147" cy="170" r="3" fill="#2563eb"></circle><circle class="dot" cx="656.0617760617761" cy="170" r="3" fill="#2563eb"></circle><circle class="dot" cx="657.4517374517375" cy="170" r="3" fill="#2563eb"></circle><circle class="dot" cx="658.8416988416988" cy="170" r="3" fill="#2563eb"></circle><circle class="dot" cx="660.2316602316603" cy="170" r="3" fill="#2563eb"></circle><circle class="dot" cx="661.6216216216217" cy="170" r="3" fill="#2563eb"></circle><circle class="dot" cx="663.0115830115831" cy="170" r="3" fill="#2563eb"></circle><circle class="dot" cx="664.4015444015445" cy="170" r="3" fill="#2563eb"></circle><circle class="dot" cx="665.7915057915059" cy="170" r="3" fill="#2563eb"></circle><circle class="dot" cx="667.1814671814672" cy="170" r="3" fill="#2563eb"></circle><circle class="dot" cx="668.5714285714286" cy="170" r="3" fill="#2563eb"></circle><circle class="dot" cx="669.96138996139" cy="170" r="3" fill="#2563eb"></circle><circle class="dot" cx="671.3513513513514" cy="170" r="3" fill="#2563eb"></circle><circle class="dot" cx="672.7413127413128" cy="170" r="3" fill="#2563eb"></circle><circle class="dot" cx="674.1312741312742" cy="170" r="3" fill="#2563eb"></circle><circle class="dot" cx="675.5212355212356" cy="170" r="3" fill="#2563eb"></circle><circle class="dot" cx="676.911196911197" cy="170" r="3" fill="#2563eb"></circle><circle class="dot" cx="678.3011583011584" cy="170" r="3" fill="#2563eb"></circle><circle class="dot" cx="679.6911196911196" cy="170" r="3" fill="#2563eb"></circle><circle class="dot" cx="681.081081081081" cy="170" r="3" fill="#2563eb"></circle><circle class="dot" cx="682.4710424710424" cy="170" r="3" fill="#2563eb"></circle><circle class="dot" cx="683.8610038610038" cy="170" r="3" fill="#2563eb"></circle><circle class="dot" cx="685.2509652509652" cy="170" r="3" fill="#2563eb"></circle><circle class="dot" cx="686.6409266409266" cy="170" r="3" fill="#2563eb"></circle><circle class="dot" cx="688.030888030888" cy="170" r="3" fill="#2563eb"></circle><circle class="dot" cx="689.4208494208494" cy="170" r="3" fill="#2563eb"></circle><circle class="dot" cx="690.8108108108108" cy="170" r="3" fill="#2563eb"></circle><circle class="dot" cx="692.2007722007721" cy="170" r="3" fill="#2563eb"></circle><circle class="dot" cx="693.5907335907335" cy="170" r="3" fill="#2563eb"></circle><circle class="dot" cx="694.9806949806949" cy="170" r="3" fill="#2563eb"></circle><circle class="dot" cx="696.3706563706563" cy="170" r="3" fill="#2563eb"></circle><circle class="dot" cx="697.7606177606177" cy="170" r="3" fill="#2563eb"></circle><circle class="dot" cx="699.1505791505791" cy="170" r="3" fill="#2563eb"></circle><circle class="dot" cx="700.5405405405406" cy="170" r="3" fill="#2563eb"></circle><circle class="dot" cx="701.9305019305019" cy="170" r="3" fill="#2563eb"></circle><circle class="dot" cx="703.3204633204633" cy="170" r="3" fill="#2563eb"></circle><circle class="dot" cx="704.7104247104247" cy="170" r="3" fill="#2563eb"></circle><circle class="dot" cx="706.1003861003861" cy="170" r="3" fill="#2563eb"></circle><circle class="dot" cx="707.4903474903475" cy="170" r="3" fill="#2563eb"></circle><circle class="dot" cx="708.8803088803089" cy="170" r="3" fill="#2563eb"></circle><circle class="dot" cx="710.2702702702703" cy="170" r="3" fill="#2563eb"></circle><circle class="dot" cx="711.6602316602317" cy="170" r="3" fill="#2563eb"></circle><circle class="dot" cx="713.0501930501931" cy="170" r="3" fill="#2563eb"></circle><circle class="dot" cx="714.4401544401544" cy="170" r="3" fill="#2563eb"></circle><circle class="dot" cx="715.8301158301158" cy="170" r="3" fill="#2563eb"></circle><circle class="dot" cx="717.2200772200772" cy="170" r="3" fill="#2563eb"></circle><circle class="dot" cx="718.6100386100386" cy="170" r="3" fill="#2563eb"></circle><circle class="dot" cx="720" cy="170" r="3" fill="#2563eb"></circle><g class="grid" transform="translate(0,340)" fill="none" font-size="10" font-family="sans-serif" text-anchor="middle" style="stroke-dasharray: 3,3; opacity: 0.3;"><path class="domain" stroke="currentColor" d="M0.5,-340V0.5H720.5V-340"></path><g class="tick" opacity="1" transform="translate(0.5,0)"><line stroke="currentColor" y2="-340"></line><text fill="currentColor" y="3" dy="0.71em"></text></g><g class="tick" opacity="1" transform="translate(33.859073359073356,0)"><line stroke="currentColor" y2="-340"></line><text fill="currentColor" y="3" dy="0.71em"></text></g><g class="tick" opacity="1" transform="translate(67.21814671814671,0)"><line stroke="currentColor" y2="-340"></line><text fill="currentColor" y="3" dy="0.71em"></text></g><g class="tick" opacity="1" transform="translate(100.57722007722008,0)"><line stroke="currentColor" y2="-340"></line><text fill="currentColor" y="3" dy="0.71em"></text></g><g class="tick" opacity="1" transform="translate(133.93629343629343,0)"><line stroke="currentColor" y2="-340"></line><text fill="currentColor" y="3" dy="0.71em"></text></g><g class="tick" opacity="1" transform="translate(167.2953667953668,0)"><line stroke="currentColor" y2="-340"></line><text fill="currentColor" y="3" dy="0.71em"></text></g><g class="tick" opacity="1" transform="translate(200.65444015444015,0)"><line stroke="currentColor" y2="-340"></line><text fill="currentColor" y="3" dy="0.71em"></text></g><g class="tick" opacity="1" transform="translate(234.01351351351352,0)"><line stroke="currentColor" y2="-340"></line><text fill="currentColor" y="3" dy="0.71em"></text></g><g class="tick" opacity="1" transform="translate(267.37258687258685,0)"><line stroke="currentColor" y2="-340"></line><text fill="currentColor" y="3" dy="0.71em"></text></g><g class="tick" opacity="1" transform="translate(300.7316602316602,0)"><line stroke="currentColor" y2="-340"></line><text fill="currentColor" y="3" dy="0.71em"></text></g><g class="tick" opacity="1" transform="translate(334.0907335907336,0)"><line stroke="currentColor" y2="-340"></line><text fill="currentColor" y="3" dy="0.71em"></text></g><g class="tick" opacity="1" transform="translate(367.44980694980694,0)"><line stroke="currentColor" y2="-340"></line><text fill="currentColor" y="3" dy="0.71em"></text></g><g class="tick" opacity="1" transform="translate(400.8088803088803,0)"><line stroke="currentColor" y2="-340"></line><text fill="currentColor" y="3" dy="0.71em"></text></g><g class="tick" opacity="1" transform="translate(434.16795366795367,0)"><line stroke="currentColor" y2="-340"></line><text fill="currentColor" y="3" dy="0.71em"></text></g><g class="tick" opacity="1" transform="translate(467.52702702702703,0)"><line stroke="currentColor" y2="-340"></line><text fill="currentColor" y="3" dy="0.71em"></text></g><g class="tick" opacity="1" transform="translate(500.88610038610045,0)"><line stroke="currentColor" y2="-340"></line><text fill="currentColor" y="3" dy="0.71em"></text></g><g class="tick" opacity="1" transform="translate(534.2451737451737,0)"><line stroke="currentColor" y2="-340"></line><text fill="currentColor" y="3" dy="0.71em"></text></g><g class="tick" opacity="1" transform="translate(567.6042471042471,0)"><line stroke="currentColor" y2="-340"></line><text fill="currentColor" y="3" dy="0.71em"></text></g><g class="tick" opacity="1" transform="translate(600.9633204633204,0)"><line stroke="currentColor" y2="-340"></line><text fill="currentColor" y="3" dy="0.71em"></text></g><g class="tick" opacity="1" transform="translate(634.3223938223938,0)"><line stroke="currentColor" y2="-340"></line><text fill="currentColor" y="3" dy="0.71em"></text></g><g class="tick" opacity="1" transform="translate(667.6814671814672,0)"><line stroke="currentColor" y2="-340"></line><text fill="currentColor" y="3" dy="0.71em"></text></g><g class="tick" opacity="1" transform="translate(701.0405405405406,0)"><line stroke="currentColor" y2="-340"></line><text fill="currentColor" y="3" dy="0.71em"></text></g></g><g class="grid" fill="none" font-size="10" font-family="sans-serif" text-anchor="end" style="stroke-dasharray: 3,3; opacity: 0.3;"><path class="domain" stroke="currentColor" d="M720,340.5H0.5V0.5H720"></path><g class="tick" opacity="1" transform="translate(0,170.5)"><line stroke="currentColor" x2="720"></line><text fill="currentColor" x="-3" dy="0.32em"></text></g></g></g><text x="400" y="10" text-anchor="middle" style="font-size: 16px; font-weight: bold; fill: #333;">OKX USDT Lending Rate - Current Month</text></svg>