<svg width="800" height="400" xmlns="http://www.w3.org/2000/svg"><g transform="translate(50,20)"><g transform="translate(0,340)" fill="none" font-size="10" font-family="sans-serif" text-anchor="middle"><path class="domain" stroke="currentColor" d="M0.5,6V0.5H720.5V6"></path><g class="tick" opacity="1" transform="translate(0.5,0)"><line stroke="currentColor" y2="6"></line><text fill="currentColor" y="9" dy=".15em" style="text-anchor: end;" dx="-.8em" transform="rotate(-45)">01/01</text></g><g class="tick" opacity="1" transform="translate(30.60452961672474,0)"><line stroke="currentColor" y2="6"></line><text fill="currentColor" y="9" dy=".15em" style="text-anchor: end;" dx="-.8em" transform="rotate(-45)">01/02</text></g><g class="tick" opacity="1" transform="translate(60.70905923344948,0)"><line stroke="currentColor" y2="6"></line><text fill="currentColor" y="9" dy=".15em" style="text-anchor: end;" dx="-.8em" transform="rotate(-45)">01/03</text></g><g class="tick" opacity="1" transform="translate(90.81358885017421,0)"><line stroke="currentColor" y2="6"></line><text fill="currentColor" y="9" dy=".15em" style="text-anchor: end;" dx="-.8em" transform="rotate(-45)">01/04</text></g><g class="tick" opacity="1" transform="translate(120.91811846689896,0)"><line stroke="currentColor" y2="6"></line><text fill="currentColor" y="9" dy=".15em" style="text-anchor: end;" dx="-.8em" transform="rotate(-45)">01/05</text></g><g class="tick" opacity="1" transform="translate(151.0226480836237,0)"><line stroke="currentColor" y2="6"></line><text fill="currentColor" y="9" dy=".15em" style="text-anchor: end;" dx="-.8em" transform="rotate(-45)">01/06</text></g><g class="tick" opacity="1" transform="translate(181.12717770034843,0)"><line stroke="currentColor" y2="6"></line><text fill="currentColor" y="9" dy=".15em" style="text-anchor: end;" dx="-.8em" transform="rotate(-45)">01/07</text></g><g class="tick" opacity="1" transform="translate(211.23170731707316,0)"><line stroke="currentColor" y2="6"></line><text fill="currentColor" y="9" dy=".15em" style="text-anchor: end;" dx="-.8em" transform="rotate(-45)">01/08</text></g><g class="tick" opacity="1" transform="translate(241.33623693379792,0)"><line stroke="currentColor" y2="6"></line><text fill="currentColor" y="9" dy=".15em" style="text-anchor: end;" dx="-.8em" transform="rotate(-45)">01/09</text></g><g class="tick" opacity="1" transform="translate(271.44076655052265,0)"><line stroke="currentColor" y2="6"></line><text fill="currentColor" y="9" dy=".15em" style="text-anchor: end;" dx="-.8em" transform="rotate(-45)">01/10</text></g><g class="tick" opacity="1" transform="translate(301.5452961672474,0)"><line stroke="currentColor" y2="6"></line><text fill="currentColor" y="9" dy=".15em" style="text-anchor: end;" dx="-.8em" transform="rotate(-45)">01/11</text></g><g class="tick" opacity="1" transform="translate(331.6498257839721,0)"><line stroke="currentColor" y2="6"></line><text fill="currentColor" y="9" dy=".15em" style="text-anchor: end;" dx="-.8em" transform="rotate(-45)">01/12</text></g><g class="tick" opacity="1" transform="translate(361.75435540069685,0)"><line stroke="currentColor" y2="6"></line><text fill="currentColor" y="9" dy=".15em" style="text-anchor: end;" dx="-.8em" transform="rotate(-45)">01/13</text></g><g class="tick" opacity="1" transform="translate(391.8588850174216,0)"><line stroke="currentColor" y2="6"></line><text fill="currentColor" y="9" dy=".15em" style="text-anchor: end;" dx="-.8em" transform="rotate(-45)">01/14</text></g><g class="tick" opacity="1" transform="translate(421.9634146341463,0)"><line stroke="currentColor" y2="6"></line><text fill="currentColor" y="9" dy=".15em" style="text-anchor: end;" dx="-.8em" transform="rotate(-45)">01/15</text></g><g class="tick" opacity="1" transform="translate(452.06794425087105,0)"><line stroke="currentColor" y2="6"></line><text fill="currentColor" y="9" dy=".15em" style="text-anchor: end;" dx="-.8em" transform="rotate(-45)">01/16</text></g><g class="tick" opacity="1" transform="translate(482.17247386759584,0)"><line stroke="currentColor" y2="6"></line><text fill="currentColor" y="9" dy=".15em" style="text-anchor: end;" dx="-.8em" transform="rotate(-45)">01/17</text></g><g class="tick" opacity="1" transform="translate(512.2770034843206,0)"><line stroke="currentColor" y2="6"></line><text fill="currentColor" y="9" dy=".15em" style="text-anchor: end;" dx="-.8em" transform="rotate(-45)">01/18</text></g><g class="tick" opacity="1" transform="translate(542.3815331010453,0)"><line stroke="currentColor" y2="6"></line><text fill="currentColor" y="9" dy=".15em" style="text-anchor: end;" dx="-.8em" transform="rotate(-45)">01/19</text></g><g class="tick" opacity="1" transform="translate(572.4860627177701,0)"><line stroke="currentColor" y2="6"></line><text fill="currentColor" y="9" dy=".15em" style="text-anchor: end;" dx="-.8em" transform="rotate(-45)">01/20</text></g><g class="tick" opacity="1" transform="translate(602.5905923344948,0)"><line stroke="currentColor" y2="6"></line><text fill="currentColor" y="9" dy=".15em" style="text-anchor: end;" dx="-.8em" transform="rotate(-45)">01/21</text></g><g class="tick" opacity="1" transform="translate(632.6951219512196,0)"><line stroke="currentColor" y2="6"></line><text fill="currentColor" y="9" dy=".15em" style="text-anchor: end;" dx="-.8em" transform="rotate(-45)">01/22</text></g><g class="tick" opacity="1" transform="translate(662.7996515679442,0)"><line stroke="currentColor" y2="6"></line><text fill="currentColor" y="9" dy=".15em" style="text-anchor: end;" dx="-.8em" transform="rotate(-45)">01/23</text></g><g class="tick" opacity="1" transform="translate(692.904181184669,0)"><line stroke="currentColor" y2="6"></line><text fill="currentColor" y="9" dy=".15em" style="text-anchor: end;" dx="-.8em" transform="rotate(-45)">01/24</text></g></g><g fill="none" font-size="10" font-family="sans-serif" text-anchor="end"><path class="domain" stroke="currentColor" d="M-6,340.5H0.5V0.5H-6"></path><g class="tick" opacity="1" transform="translate(0,340.5)"><line stroke="currentColor" x2="-6"></line><text fill="currentColor" x="-9" dy="0.32em">3.20%</text></g><g class="tick" opacity="1" transform="translate(0,312.16666666666663)"><line stroke="currentColor" x2="-6"></line><text fill="currentColor" x="-9" dy="0.32em">3.25%</text></g><g class="tick" opacity="1" transform="translate(0,283.83333333333326)"><line stroke="currentColor" x2="-6"></line><text fill="currentColor" x="-9" dy="0.32em">3.30%</text></g><g class="tick" opacity="1" transform="translate(0,255.49999999999991)"><line stroke="currentColor" x2="-6"></line><text fill="currentColor" x="-9" dy="0.32em">3.35%</text></g><g class="tick" opacity="1" transform="translate(0,227.16666666666654)"><line stroke="currentColor" x2="-6"></line><text fill="currentColor" x="-9" dy="0.32em">3.40%</text></g><g class="tick" opacity="1" transform="translate(0,198.83333333333314)"><line stroke="currentColor" x2="-6"></line><text fill="currentColor" x="-9" dy="0.32em">3.45%</text></g><g class="tick" opacity="1" transform="translate(0,170.4999999999998)"><line stroke="currentColor" x2="-6"></line><text fill="currentColor" x="-9" dy="0.32em">3.50%</text></g><g class="tick" opacity="1" transform="translate(0,142.16666666666686)"><line stroke="currentColor" x2="-6"></line><text fill="currentColor" x="-9" dy="0.32em">3.55%</text></g><g class="tick" opacity="1" transform="translate(0,113.83333333333346)"><line stroke="currentColor" x2="-6"></line><text fill="currentColor" x="-9" dy="0.32em">3.60%</text></g><g class="tick" opacity="1" transform="translate(0,85.50000000000011)"><line stroke="currentColor" x2="-6"></line><text fill="currentColor" x="-9" dy="0.32em">3.65%</text></g><g class="tick" opacity="1" transform="translate(0,57.16666666666673)"><line stroke="currentColor" x2="-6"></line><text fill="currentColor" x="-9" dy="0.32em">3.70%</text></g><g class="tick" opacity="1" transform="translate(0,28.833333333333385)"><line stroke="currentColor" x2="-6"></line><text fill="currentColor" x="-9" dy="0.32em">3.75%</text></g><g class="tick" opacity="1" transform="translate(0,0.5)"><line stroke="currentColor" x2="-6"></line><text fill="currentColor" x="-9" dy="0.32em">3.80%</text></g></g><text transform="rotate(-90)" y="-50" x="-170" dy="1em" style="text-anchor: middle; font-size: 12px; fill: #666;">Pre Rate (%)</text><text transform="translate(360, 380)" style="text-anchor: middle; font-size: 12px; fill: #666;">Time (UTC)</text><path fill="none" stroke="#2563eb" stroke-width="2" d="M0,340C0.418,340,0.836,340,1.254,340C1.672,340,2.091,340,2.509,340C2.927,340,3.345,340,3.763,340C4.181,340,4.599,340,5.017,340C5.436,340,5.854,340,6.272,340C6.69,340,7.108,340,7.526,340C7.944,340,8.362,340,8.78,340C9.199,340,9.617,340,10.035,340C10.453,340,10.871,340,11.289,340C11.707,340,12.125,340,12.544,340C12.962,340,13.38,340,13.798,340C14.216,340,14.634,340,15.052,340C15.47,340,15.889,340,16.307,340C16.725,340,17.143,340,17.561,340C17.979,340,18.397,340,18.815,340C19.233,340,19.652,340,20.07,340C20.488,340,20.906,340,21.324,340C21.742,340,22.16,340,22.578,340C22.997,340,23.415,340,23.833,340C24.251,340,24.669,340,25.087,340C25.505,340,25.923,340,26.341,340C26.76,340,27.178,340,27.596,340C28.014,340,28.432,340,28.85,340C29.268,340,29.686,340,30.105,340C30.523,340,30.941,340,31.359,340C31.777,340,32.195,340,32.613,340C33.031,340,33.449,340,33.868,340C34.286,340,34.704,340,35.122,340C35.54,340,35.958,340,36.376,340C36.794,340,37.213,340,37.631,340C38.049,340,38.467,340,38.885,340C39.303,340,39.721,340,40.139,340C40.557,340,40.976,340,41.394,340C41.812,340,42.23,340,42.648,340C43.066,340,43.484,340,43.902,340C44.321,340,44.739,340,45.157,340C45.575,340,45.993,340,46.411,340C46.829,340,47.247,340,47.666,340C48.084,340,48.502,340,48.92,340C49.338,340,49.756,340,50.174,340C50.592,340,51.01,340,51.429,340C51.847,340,52.265,340,52.683,340C53.101,340,53.519,340,53.937,340C54.355,340,54.774,340,55.192,340C55.61,340,56.028,340,56.446,340C56.864,340,57.282,340,57.7,340C58.118,340,58.537,340,58.955,340C59.373,340,59.791,340,60.209,340C60.627,340,61.045,340,61.463,340C61.882,340,62.3,340,62.718,340C63.136,340,63.554,340,63.972,340C64.39,340,64.808,340,65.226,340C65.645,340,66.063,340,66.481,340C66.899,340,67.317,340,67.735,340C68.153,340,68.571,340,68.99,340C69.408,340,69.826,340,70.244,340C70.662,340,71.08,340,71.498,340C71.916,340,72.334,340,72.753,340C73.171,340,73.589,340,74.007,340C74.425,340,74.843,340,75.261,340C75.679,340,76.098,340,76.516,340C76.934,340,77.352,340,77.77,340C78.188,340,78.606,340,79.024,340C79.443,340,79.861,340,80.279,340C80.697,340,81.115,340,81.533,340C81.951,340,82.369,340,82.787,340C83.206,340,83.624,340,84.042,340C84.46,340,84.878,340,85.296,340C85.714,340,86.132,340,86.551,340C86.969,340,87.387,340,87.805,340C88.223,340,88.641,340,89.059,340C89.477,340,89.895,340,90.314,340C90.732,340,91.15,340,91.568,340C91.986,340,92.404,340,92.822,340C93.24,340,93.659,340,94.077,340C94.495,340,94.913,340,95.331,340C95.749,340,96.167,340,96.585,340C97.003,340,97.422,340,97.84,340C98.258,340,98.676,340,99.094,340C99.512,340,99.93,340,100.348,340C100.767,340,101.185,340,101.603,340C102.021,340,102.439,340,102.857,340C103.275,340,103.693,340,104.111,340C104.53,340,104.948,340,105.366,340C105.784,340,106.202,340,106.62,340C107.038,340,107.456,340,107.875,340C108.293,340,108.711,340,109.129,340C109.547,340,109.965,340,110.383,340C110.801,340,111.22,340,111.638,340C112.056,340,112.474,340,112.892,340C113.31,340,113.728,340,114.146,340C114.564,340,114.983,340,115.401,340C115.819,340,116.237,340,116.655,340C117.073,340,117.491,340,117.909,340C118.328,340,118.746,340,119.164,340C119.582,340,120,340,120.418,340C120.836,340,121.254,340,121.672,340C122.091,340,122.509,340,122.927,340C123.345,340,123.763,340,124.181,340C124.599,340,125.017,340,125.436,340C125.854,340,126.272,340,126.69,340C127.108,340,127.526,340,127.944,340C128.362,340,128.78,340,129.199,340C129.617,340,130.035,340,130.453,340C130.871,340,131.289,340,131.707,340C132.125,340,132.544,340,132.962,340C133.38,340,133.798,340,134.216,340C134.634,340,135.052,340,135.47,340C135.889,340,136.307,340,136.725,340C137.143,340,137.561,340,137.979,340C138.397,340,138.815,340,139.233,340C139.652,340,140.07,340,140.488,340C140.906,340,141.324,340,141.742,340C142.16,340,142.578,340,142.997,340C143.415,340,143.833,340,144.251,340C144.669,340,145.087,340,145.505,340C145.923,340,146.341,340,146.76,340C147.178,340,147.596,340,148.014,340C148.432,340,148.85,340,149.268,340C149.686,340,150.105,340,150.523,340C150.941,340,151.359,340,151.777,340C152.195,340,152.613,340,153.031,340C153.449,340,153.868,340,154.286,340C154.704,340,155.122,340,155.54,340C155.958,340,156.376,340,156.794,340C157.213,340,157.631,340,158.049,340C158.467,340,158.885,340,159.303,340C159.721,340,160.139,340,160.557,340C160.976,340,161.394,340,161.812,340C162.23,340,162.648,340,163.066,340C163.484,340,163.902,340,164.321,340C164.739,340,165.157,340,165.575,340C165.993,340,166.411,340,166.829,340C167.247,340,167.666,340,168.084,340C168.502,340,168.92,340,169.338,340C169.756,340,170.174,340,170.592,340C171.01,340,171.429,340,171.847,340C172.265,340,172.683,340,173.101,340C173.519,340,173.937,340,174.355,340C174.774,340,175.192,340,175.61,340C176.028,340,176.446,340,176.864,340C177.282,340,177.7,340,178.118,340C178.537,340,178.955,340,179.373,340C179.791,340,180.209,340,180.627,340C181.045,340,181.463,340,181.882,340C182.3,340,182.718,340,183.136,340C183.554,340,183.972,340,184.39,340C184.808,340,185.226,340,185.645,340C186.063,340,186.481,340,186.899,340C187.317,340,187.735,340,188.153,340C188.571,340,188.99,340,189.408,340C189.826,340,190.244,340,190.662,340C191.08,340,191.498,340,191.916,340C192.334,340,192.753,340,193.171,340C193.589,340,194.007,340,194.425,340C194.843,340,195.261,340,195.679,340C196.098,340,196.516,340,196.934,340C197.352,340,197.77,340,198.188,340C198.606,340,199.024,340,199.443,340C199.861,340,200.279,340,200.697,340C201.115,340,201.533,340,201.951,340C202.369,340,202.787,340,203.206,340C203.624,340,204.042,340,204.46,340C204.878,340,205.296,340,205.714,340C206.132,340,206.551,340,206.969,340C207.387,340,207.805,340,208.223,340C208.641,340,209.059,340,209.477,340C209.895,340,210.314,340,210.732,340C211.15,340,211.568,340,211.986,340C212.404,340,212.822,340,213.24,340C213.659,340,214.077,340,214.495,340C214.913,340,215.331,340,215.749,340C216.167,340,216.585,340,217.003,340C217.422,340,217.84,340,218.258,340C218.676,340,219.094,340,219.512,340C219.93,340,220.348,340,220.767,340C221.185,340,221.603,340,222.021,340C222.439,340,222.857,340,223.275,340C223.693,340,224.111,340,224.53,340C224.948,340,225.366,340,225.784,340C226.202,340,226.62,340,227.038,340C227.456,340,227.875,340,228.293,340C228.711,340,229.129,340,229.547,340C229.965,340,230.383,340,230.801,340C231.22,340,231.638,340,232.056,340C232.474,340,232.892,340,233.31,340C233.728,340,234.146,340,234.564,340C234.983,340,235.401,340,235.819,340C236.237,340,236.655,340,237.073,340C237.491,340,237.909,340,238.328,340C238.746,340,239.164,340,239.582,340C240,340,240.418,340,240.836,340C241.254,340,241.672,340,242.091,340C242.509,340,242.927,340,243.345,340C243.763,340,244.181,340,244.599,340C245.017,340,245.436,340,245.854,340C246.272,340,246.69,340,247.108,340C247.526,340,247.944,340,248.362,340C248.78,340,249.199,340,249.617,340C250.035,340,250.453,340,250.871,340C251.289,340,251.707,340,252.125,340C252.544,340,252.962,340,253.38,340C253.798,340,254.216,340,254.634,340C255.052,340,255.47,340,255.889,340C256.307,340,256.725,340,257.143,340C257.561,340,257.979,340,258.397,340C258.815,340,259.233,340,259.652,340C260.07,340,260.488,340,260.906,340C261.324,340,261.742,340,262.16,340C262.578,340,262.997,340,263.415,340C263.833,340,264.251,340,264.669,340C265.087,340,265.505,340,265.923,340C266.341,340,266.76,340,267.178,340C267.596,340,268.014,340,268.432,340C268.85,340,269.268,340,269.686,340C270.105,340,270.523,340,270.941,340C271.359,340,271.777,340,272.195,340C272.613,340,273.031,340,273.449,340C273.868,340,274.286,340,274.704,340C275.122,340,275.54,340,275.958,340C276.376,340,276.794,340,277.213,340C277.631,340,278.049,340,278.467,340C278.885,340,279.303,340,279.721,340C280.139,340,280.557,340,280.976,340C281.394,340,281.812,340,282.23,340C282.648,340,283.066,340,283.484,340C283.902,340,284.321,340,284.739,340C285.157,340,285.575,340,285.993,340C286.411,340,286.829,340,287.247,340C287.666,340,288.084,340,288.502,340C288.92,340,289.338,340,289.756,340C290.174,340,290.592,340,291.01,340C291.429,340,291.847,340,292.265,340C292.683,340,293.101,340,293.519,340C293.937,340,294.355,340,294.774,340C295.192,340,295.61,340,296.028,340C296.446,340,296.864,340,297.282,340C297.7,340,298.118,340,298.537,340C298.955,340,299.373,340,299.791,340C300.209,340,300.627,340,301.045,340C301.463,340,301.882,340,302.3,340C302.718,340,303.136,340,303.554,340C303.972,340,304.39,340,304.808,340C305.226,340,305.645,340,306.063,340C306.481,340,306.899,340,307.317,340C307.735,340,308.153,340,308.571,340C308.99,340,309.408,340,309.826,340C310.244,340,310.662,340,311.08,340C311.498,340,311.916,340,312.334,340C312.753,340,313.171,340,313.589,340C314.007,340,314.425,340,314.843,340C315.261,340,315.679,340,316.098,340C316.516,340,316.934,340,317.352,340C317.77,340,318.188,340,318.606,340C319.024,340,319.443,340,319.861,340C320.279,340,320.697,340,321.115,340C321.533,340,321.951,340,322.369,340C322.787,340,323.206,340,323.624,340C324.042,340,324.46,340,324.878,340C325.296,340,325.714,340,326.132,340C326.551,340,326.969,340,327.387,340C327.805,340,328.223,340,328.641,340C329.059,340,329.477,340,329.895,340C330.314,340,330.732,340,331.15,340C331.568,340,331.986,340,332.404,340C332.822,340,333.24,340,333.659,340C334.077,340,334.495,340,334.913,340C335.331,340,335.749,340,336.167,340C336.585,340,337.003,340,337.422,340C337.84,340,338.258,340,338.676,340C339.094,340,339.512,340,339.93,340C340.348,340,340.767,340,341.185,340C341.603,340,342.021,340,342.439,340C342.857,340,343.275,340,343.693,340C344.111,340,344.53,340,344.948,340C345.366,340,345.784,340,346.202,340C346.62,340,347.038,340,347.456,340C347.875,340,348.293,340,348.711,340C349.129,340,349.547,340,349.965,340C350.383,340,350.801,340,351.22,340C351.638,340,352.056,340,352.474,340C352.892,340,353.31,340,353.728,340C354.146,340,354.564,340,354.983,340C355.401,340,355.819,340,356.237,340C356.655,340,357.073,340,357.491,340C357.909,340,358.328,340,358.746,340C359.164,340,359.582,340,360,340C360.418,340,360.836,340,361.254,340C361.672,340,362.091,340,362.509,340C362.927,340,363.345,340,363.763,340C364.181,340,364.599,340,365.017,340C365.436,340,365.854,340,366.272,340C366.69,340,367.108,340,367.526,340C367.944,340,368.362,340,368.78,340C369.199,340,369.617,340,370.035,340C370.453,340,370.871,340,371.289,340C371.707,340,372.125,340,372.544,340C372.962,340,373.38,340,373.798,340C374.216,340,374.634,340,375.052,340C375.47,340,375.889,340,376.307,340C376.725,340,377.143,340,377.561,340C377.979,340,378.397,340,378.815,340C379.233,340,379.652,340,380.07,340C380.488,340,380.906,340,381.324,340C381.742,340,382.16,340,382.578,340C382.997,340,383.415,340,383.833,340C384.251,340,384.669,340,385.087,340C385.505,340,385.923,340,386.341,340C386.76,340,387.178,340,387.596,340C388.014,340,388.432,340,388.85,340C389.268,340,389.686,340,390.105,340C390.523,340,390.941,340,391.359,340C391.777,340,392.195,340,392.613,340C393.031,340,393.449,340,393.868,340C394.286,340,394.704,340,395.122,340C395.54,340,395.958,340,396.376,340C396.794,340,397.213,340,397.631,340C398.049,340,398.467,340,398.885,340C399.303,340,399.721,340,400.139,340C400.557,340,400.976,340,401.394,340C401.812,340,402.23,340,402.648,340C403.066,340,403.484,340,403.902,340C404.321,340,404.739,340,405.157,340C405.575,340,405.993,340,406.411,340C406.829,340,407.247,340,407.666,340C408.084,340,408.502,340,408.92,340C409.338,340,409.756,340,410.174,340C410.592,340,411.01,340,411.429,340C411.847,340,412.265,340,412.683,340C413.101,340,413.519,340,413.937,340C414.355,340,414.774,340,415.192,340C415.61,340,416.028,340,416.446,340C416.864,340,417.282,340,417.7,340C418.118,340,418.537,340,418.955,340C419.373,340,419.791,340,420.209,340C420.627,340,421.045,340,421.463,340C421.882,340,422.3,340,422.718,340C423.136,340,423.554,0,423.972,0C424.39,0,424.808,0,425.226,0C425.645,0,426.063,0,426.481,0C426.899,0,427.317,0,427.735,0C428.153,0,428.571,0,428.99,0C429.408,0,429.826,0,430.244,0C430.662,0,431.08,0,431.498,0C431.916,0,432.334,0,432.753,0C433.171,0,433.589,0,434.007,0C434.425,0,434.843,0,435.261,0C435.679,0,436.098,0,436.516,0C436.934,0,437.352,0,437.77,0C438.188,0,438.606,0,439.024,0C439.443,0,439.861,0,440.279,0C440.697,0,441.115,0,441.533,0C441.951,0,442.369,0,442.787,0C443.206,0,443.624,0,444.042,0C444.46,0,444.878,0,445.296,0C445.714,0,446.132,0,446.551,0C446.969,0,447.387,0,447.805,0C448.223,0,448.641,0,449.059,0C449.477,0,449.895,0,450.314,0C450.732,0,451.15,0,451.568,0C451.986,0,452.404,0,452.822,0C453.24,0,453.659,0,454.077,0C454.495,0,454.913,0,455.331,0C455.749,0,456.167,0,456.585,0C457.003,0,457.422,0,457.84,0C458.258,0,458.676,0,459.094,0C459.512,0,459.93,0,460.348,0C460.767,0,461.185,0,461.603,0C462.021,0,462.439,0,462.857,0C463.275,0,463.693,0,464.111,0C464.53,0,464.948,0,465.366,0C465.784,0,466.202,0,466.62,0C467.038,0,467.456,0,467.875,0C468.293,0,468.711,0,469.129,0C469.547,0,469.965,0,470.383,0C470.801,0,471.22,0,471.638,0C472.056,0,472.474,0,472.892,0C473.31,0,473.728,0,474.146,0C474.564,0,474.983,0,475.401,0C475.819,0,476.237,0,476.655,0C477.073,0,477.491,0,477.909,0C478.328,0,478.746,0,479.164,0C479.582,0,480,0,480.418,0C480.836,0,481.254,0,481.672,0C482.091,0,482.509,0,482.927,0C483.345,0,483.763,0,484.181,0C484.599,0,485.017,0,485.436,0C485.854,0,486.272,0,486.69,0C487.108,0,487.526,0,487.944,0C488.362,0,488.78,0,489.199,0C489.617,0,490.035,0,490.453,0C490.871,0,491.289,0,491.707,0C492.125,0,492.544,0,492.962,0C493.38,0,493.798,0,494.216,0C494.634,0,495.052,0,495.47,0C495.889,0,496.307,0,496.725,0C497.143,0,497.561,0,497.979,0C498.397,0,498.815,0,499.233,0C499.652,0,500.07,0,500.488,0C500.906,0,501.324,0,501.742,0C502.16,0,502.578,0,502.997,0C503.415,0,503.833,0,504.251,0C504.669,0,505.087,0,505.505,0C505.923,0,506.341,0,506.76,0C507.178,0,507.596,0,508.014,0C508.432,0,508.85,0,509.268,0C509.686,0,510.105,0,510.523,0C510.941,0,511.359,0,511.777,0C512.195,0,512.613,0,513.031,0C513.449,0,513.868,0,514.286,0C514.704,0,515.122,0,515.54,0C515.958,0,516.376,0,516.794,0C517.213,0,517.631,0,518.049,0C518.467,0,518.885,0,519.303,0C519.721,0,520.139,0,520.557,0C520.976,0,521.394,0,521.812,0C522.23,0,522.648,0,523.066,0C523.484,0,523.902,0,524.321,0C524.739,0,525.157,0,525.575,0C525.993,0,526.411,0,526.829,0C527.247,0,527.666,0,528.084,0C528.502,0,528.92,0,529.338,0C529.756,0,530.174,0,530.592,0C531.01,0,531.429,0,531.847,0C532.265,0,532.683,0,533.101,0C533.519,0,533.937,0,534.355,0C534.774,0,535.192,0,535.61,0C536.028,0,536.446,0,536.864,0C537.282,0,537.7,0,538.118,0C538.537,0,538.955,0,539.373,0C539.791,0,540.209,0,540.627,0C541.045,0,541.463,0,541.882,0C542.3,0,542.718,0,543.136,0C543.554,0,543.972,0,544.39,0C544.808,0,545.226,0,545.645,0C546.063,0,546.481,0,546.899,0C547.317,0,547.735,0,548.153,0C548.571,0,548.99,0,549.408,0C549.826,0,550.244,0,550.662,0C551.08,0,551.498,0,551.916,0C552.334,0,552.753,0,553.171,0C553.589,0,554.007,0,554.425,0C554.843,0,555.261,0,555.679,0C556.098,0,556.516,0,556.934,0C557.352,0,557.77,0,558.188,0C558.606,0,559.024,0,559.443,0C559.861,0,560.279,0,560.697,0C561.115,0,561.533,0,561.951,0C562.369,0,562.787,0,563.206,0C563.624,0,564.042,0,564.46,0C564.878,0,565.296,0,565.714,0C566.132,0,566.551,0,566.969,0C567.387,0,567.805,0,568.223,0C568.641,0,569.059,0,569.477,0C569.895,0,570.314,0,570.732,0C571.15,0,571.568,0,571.986,0C572.404,0,572.822,0,573.24,0C573.659,0,574.077,0,574.495,0C574.913,0,575.331,0,575.749,0C576.167,0,576.585,0,577.003,0C577.422,0,577.84,0,578.258,0C578.676,0,579.094,0,579.512,0C579.93,0,580.348,0,580.767,0C581.185,0,581.603,0,582.021,0C582.439,0,582.857,0,583.275,0C583.693,0,584.111,0,584.53,0C584.948,0,585.366,0,585.784,0C586.202,0,586.62,0,587.038,0C587.456,0,587.875,0,588.293,0C588.711,0,589.129,0,589.547,0C589.965,0,590.383,0,590.801,0C591.22,0,591.638,0,592.056,0C592.474,0,592.892,0,593.31,0C593.728,0,594.146,0,594.564,0C594.983,0,595.401,0,595.819,0C596.237,0,596.655,0,597.073,0C597.491,0,597.909,0,598.328,0C598.746,0,599.164,0,599.582,0C600,0,600.418,0,600.836,0C601.254,0,601.672,0,602.091,0C602.509,0,602.927,0,603.345,0C603.763,0,604.181,0,604.599,0C605.017,0,605.436,0,605.854,0C606.272,0,606.69,0,607.108,0C607.526,0,607.944,0,608.362,0C608.78,0,609.199,0,609.617,0C610.035,0,610.453,0,610.871,0C611.289,0,611.707,0,612.125,0C612.544,0,612.962,0,613.38,0C613.798,0,614.216,0,614.634,0C615.052,0,615.47,0,615.889,0C616.307,0,616.725,0,617.143,0C617.561,0,617.979,0,618.397,0C618.815,0,619.233,0,619.652,0C620.07,0,620.488,0,620.906,0C621.324,0,621.742,0,622.16,0C622.578,0,622.997,0,623.415,0C623.833,0,624.251,0,624.669,0C625.087,0,625.505,0,625.923,0C626.341,0,626.76,0,627.178,0C627.596,0,628.014,0,628.432,0C628.85,0,629.268,0,629.686,0C630.105,0,630.523,0,630.941,0C631.359,0,631.777,0,632.195,0C632.613,0,633.031,0,633.449,0C633.868,0,634.286,0,634.704,0C635.122,0,635.54,0,635.958,0C636.376,0,636.794,0,637.213,0C637.631,0,638.049,0,638.467,0C638.885,0,639.303,0,639.721,0C640.139,0,640.557,0,640.976,0C641.394,0,641.812,0,642.23,0C642.648,0,643.066,0,643.484,0C643.902,0,644.321,0,644.739,0C645.157,0,645.575,0,645.993,0C646.411,0,646.829,0,647.247,0C647.666,0,648.084,0,648.502,0C648.92,0,649.338,0,649.756,0C650.174,0,650.592,0,651.01,0C651.429,0,651.847,0,652.265,0C652.683,0,653.101,0,653.519,0C653.937,0,654.355,0,654.774,0C655.192,0,655.61,0,656.028,0C656.446,0,656.864,0,657.282,0C657.7,0,658.118,0,658.537,0C658.955,0,659.373,0,659.791,0C660.209,0,660.627,0,661.045,0C661.463,0,661.882,0,662.3,0C662.718,0,663.136,0,663.554,0C663.972,0,664.39,0,664.808,0C665.226,0,665.645,0,666.063,0C666.481,0,666.899,0,667.317,0C667.735,0,668.153,0,668.571,0C668.99,0,669.408,0,669.826,0C670.244,0,670.662,0,671.08,0C671.498,0,671.916,0,672.334,0C672.753,0,673.171,0,673.589,0C674.007,0,674.425,0,674.843,0C675.261,0,675.679,0,676.098,0C676.516,0,676.934,0,677.352,0C677.77,0,678.188,0,678.606,0C679.024,0,679.443,0,679.861,0C680.279,0,680.697,0,681.115,0C681.533,0,681.951,0,682.369,0C682.787,0,683.206,0,683.624,0C684.042,0,684.46,0,684.878,0C685.296,0,685.714,0,686.132,0C686.551,0,686.969,0,687.387,0C687.805,0,688.223,0,688.641,0C689.059,0,689.477,0,689.895,0C690.314,0,690.732,0,691.15,0C691.568,0,691.986,0,692.404,0C692.822,0,693.24,0,693.659,0C694.077,0,694.495,0,694.913,0C695.331,0,695.749,0,696.167,0C696.585,0,697.003,0,697.422,0C697.84,0,698.258,0,698.676,0C699.094,0,699.512,0,699.93,0C700.348,0,700.767,0,701.185,0C701.603,0,702.021,0,702.439,0C702.857,0,703.275,0,703.693,0C704.111,0,704.53,0,704.948,0C705.366,0,705.784,0,706.202,0C706.62,0,707.038,0,707.456,0C707.875,0,708.293,0,708.711,0C709.129,0,709.547,0,709.965,0C710.383,0,710.801,0,711.22,0C711.638,0,712.056,0,712.474,0C712.892,0,713.31,0,713.728,0C714.146,0,714.564,0,714.983,0C715.401,0,715.819,0,716.237,0C716.655,0,717.073,0,717.491,0C717.909,0,718.328,0,718.746,0C719.164,0,719.582,0,720,0"></path><circle class="dot" cx="0" cy="340" r="3" fill="#2563eb"></circle><circle class="dot" cx="1.254355400696864" cy="340" r="3" fill="#2563eb"></circle><circle class="dot" cx="2.508710801393728" cy="340" r="3" fill="#2563eb"></circle><circle class="dot" cx="3.7630662020905925" cy="340" r="3" fill="#2563eb"></circle><circle class="dot" cx="5.017421602787456" cy="340" r="3" fill="#2563eb"></circle><circle class="dot" cx="6.2717770034843205" cy="340" r="3" fill="#2563eb"></circle><circle class="dot" cx="7.526132404181185" cy="340" r="3" fill="#2563eb"></circle><circle class="dot" cx="8.78048780487805" cy="340" r="3" fill="#2563eb"></circle><circle class="dot" cx="10.034843205574912" cy="340" r="3" fill="#2563eb"></circle><circle class="dot" cx="11.289198606271777" cy="340" r="3" fill="#2563eb"></circle><circle class="dot" cx="12.543554006968641" cy="340" r="3" fill="#2563eb"></circle><circle class="dot" cx="13.797909407665504" cy="340" r="3" fill="#2563eb"></circle><circle class="dot" cx="15.05226480836237" cy="340" r="3" fill="#2563eb"></circle><circle class="dot" cx="16.306620209059233" cy="340" r="3" fill="#2563eb"></circle><circle class="dot" cx="17.5609756097561" cy="340" r="3" fill="#2563eb"></circle><circle class="dot" cx="18.81533101045296" cy="340" r="3" fill="#2563eb"></circle><circle class="dot" cx="20.069686411149824" cy="340" r="3" fill="#2563eb"></circle><circle class="dot" cx="21.32404181184669" cy="340" r="3" fill="#2563eb"></circle><circle class="dot" cx="22.578397212543553" cy="340" r="3" fill="#2563eb"></circle><circle class="dot" cx="23.832752613240416" cy="340" r="3" fill="#2563eb"></circle><circle class="dot" cx="25.087108013937282" cy="340" r="3" fill="#2563eb"></circle><circle class="dot" cx="26.341463414634145" cy="340" r="3" fill="#2563eb"></circle><circle class="dot" cx="27.595818815331008" cy="340" r="3" fill="#2563eb"></circle><circle class="dot" cx="28.850174216027874" cy="340" r="3" fill="#2563eb"></circle><circle class="dot" cx="30.10452961672474" cy="340" r="3" fill="#2563eb"></circle><circle class="dot" cx="31.358885017421606" cy="340" r="3" fill="#2563eb"></circle><circle class="dot" cx="32.613240418118465" cy="340" r="3" fill="#2563eb"></circle><circle class="dot" cx="33.86759581881533" cy="340" r="3" fill="#2563eb"></circle><circle class="dot" cx="35.1219512195122" cy="340" r="3" fill="#2563eb"></circle><circle class="dot" cx="36.37630662020906" cy="340" r="3" fill="#2563eb"></circle><circle class="dot" cx="37.63066202090592" cy="340" r="3" fill="#2563eb"></circle><circle class="dot" cx="38.88501742160279" cy="340" r="3" fill="#2563eb"></circle><circle class="dot" cx="40.13937282229965" cy="340" r="3" fill="#2563eb"></circle><circle class="dot" cx="41.393728222996515" cy="340" r="3" fill="#2563eb"></circle><circle class="dot" cx="42.64808362369338" cy="340" r="3" fill="#2563eb"></circle><circle class="dot" cx="43.90243902439024" cy="340" r="3" fill="#2563eb"></circle><circle class="dot" cx="45.15679442508711" cy="340" r="3" fill="#2563eb"></circle><circle class="dot" cx="46.41114982578397" cy="340" r="3" fill="#2563eb"></circle><circle class="dot" cx="47.66550522648083" cy="340" r="3" fill="#2563eb"></circle><circle class="dot" cx="48.9198606271777" cy="340" r="3" fill="#2563eb"></circle><circle class="dot" cx="50.174216027874564" cy="340" r="3" fill="#2563eb"></circle><circle class="dot" cx="51.42857142857142" cy="340" r="3" fill="#2563eb"></circle><circle class="dot" cx="52.68292682926829" cy="340" r="3" fill="#2563eb"></circle><circle class="dot" cx="53.937282229965156" cy="340" r="3" fill="#2563eb"></circle><circle class="dot" cx="55.191637630662015" cy="340" r="3" fill="#2563eb"></circle><circle class="dot" cx="56.44599303135888" cy="340" r="3" fill="#2563eb"></circle><circle class="dot" cx="57.70034843205575" cy="340" r="3" fill="#2563eb"></circle><circle class="dot" cx="58.95470383275261" cy="340" r="3" fill="#2563eb"></circle><circle class="dot" cx="60.20905923344948" cy="340" r="3" fill="#2563eb"></circle><circle class="dot" cx="61.463414634146346" cy="340" r="3" fill="#2563eb"></circle><circle class="dot" cx="62.71777003484321" cy="340" r="3" fill="#2563eb"></circle><circle class="dot" cx="63.97212543554007" cy="340" r="3" fill="#2563eb"></circle><circle class="dot" cx="65.22648083623693" cy="340" r="3" fill="#2563eb"></circle><circle class="dot" cx="66.4808362369338" cy="340" r="3" fill="#2563eb"></circle><circle class="dot" cx="67.73519163763066" cy="340" r="3" fill="#2563eb"></circle><circle class="dot" cx="68.98954703832753" cy="340" r="3" fill="#2563eb"></circle><circle class="dot" cx="70.2439024390244" cy="340" r="3" fill="#2563eb"></circle><circle class="dot" cx="71.49825783972126" cy="340" r="3" fill="#2563eb"></circle><circle class="dot" cx="72.75261324041811" cy="340" r="3" fill="#2563eb"></circle><circle class="dot" cx="74.00696864111498" cy="340" r="3" fill="#2563eb"></circle><circle class="dot" cx="75.26132404181185" cy="340" r="3" fill="#2563eb"></circle><circle class="dot" cx="76.51567944250871" cy="340" r="3" fill="#2563eb"></circle><circle class="dot" cx="77.77003484320558" cy="340" r="3" fill="#2563eb"></circle><circle class="dot" cx="79.02439024390245" cy="340" r="3" fill="#2563eb"></circle><circle class="dot" cx="80.2787456445993" cy="340" r="3" fill="#2563eb"></circle><circle class="dot" cx="81.53310104529616" cy="340" r="3" fill="#2563eb"></circle><circle class="dot" cx="82.78745644599303" cy="340" r="3" fill="#2563eb"></circle><circle class="dot" cx="84.0418118466899" cy="340" r="3" fill="#2563eb"></circle><circle class="dot" cx="85.29616724738676" cy="340" r="3" fill="#2563eb"></circle><circle class="dot" cx="86.55052264808363" cy="340" r="3" fill="#2563eb"></circle><circle class="dot" cx="87.80487804878048" cy="340" r="3" fill="#2563eb"></circle><circle class="dot" cx="89.05923344947735" cy="340" r="3" fill="#2563eb"></circle><circle class="dot" cx="90.31358885017421" cy="340" r="3" fill="#2563eb"></circle><circle class="dot" cx="91.5679442508711" cy="340" r="3" fill="#2563eb"></circle><circle class="dot" cx="92.82229965156795" cy="340" r="3" fill="#2563eb"></circle><circle class="dot" cx="94.07665505226481" cy="340" r="3" fill="#2563eb"></circle><circle class="dot" cx="95.33101045296166" cy="340" r="3" fill="#2563eb"></circle><circle class="dot" cx="96.58536585365854" cy="340" r="3" fill="#2563eb"></circle><circle class="dot" cx="97.8397212543554" cy="340" r="3" fill="#2563eb"></circle><circle class="dot" cx="99.09407665505228" cy="340" r="3" fill="#2563eb"></circle><circle class="dot" cx="100.34843205574913" cy="340" r="3" fill="#2563eb"></circle><circle class="dot" cx="101.602787456446" cy="340" r="3" fill="#2563eb"></circle><circle class="dot" cx="102.85714285714285" cy="340" r="3" fill="#2563eb"></circle><circle class="dot" cx="104.11149825783973" cy="340" r="3" fill="#2563eb"></circle><circle class="dot" cx="105.36585365853658" cy="340" r="3" fill="#2563eb"></circle><circle class="dot" cx="106.62020905923345" cy="340" r="3" fill="#2563eb"></circle><circle class="dot" cx="107.87456445993031" cy="340" r="3" fill="#2563eb"></circle><circle class="dot" cx="109.12891986062718" cy="340" r="3" fill="#2563eb"></circle><circle class="dot" cx="110.38327526132403" cy="340" r="3" fill="#2563eb"></circle><circle class="dot" cx="111.63763066202091" cy="340" r="3" fill="#2563eb"></circle><circle class="dot" cx="112.89198606271776" cy="340" r="3" fill="#2563eb"></circle><circle class="dot" cx="114.14634146341463" cy="340" r="3" fill="#2563eb"></circle><circle class="dot" cx="115.4006968641115" cy="340" r="3" fill="#2563eb"></circle><circle class="dot" cx="116.65505226480836" cy="340" r="3" fill="#2563eb"></circle><circle class="dot" cx="117.90940766550521" cy="340" r="3" fill="#2563eb"></circle><circle class="dot" cx="119.1637630662021" cy="340" r="3" fill="#2563eb"></circle><circle class="dot" cx="120.41811846689896" cy="340" r="3" fill="#2563eb"></circle><circle class="dot" cx="121.67247386759581" cy="340" r="3" fill="#2563eb"></circle><circle class="dot" cx="122.92682926829269" cy="340" r="3" fill="#2563eb"></circle><circle class="dot" cx="124.18118466898954" cy="340" r="3" fill="#2563eb"></circle><circle class="dot" cx="125.43554006968643" cy="340" r="3" fill="#2563eb"></circle><circle class="dot" cx="126.68989547038328" cy="340" r="3" fill="#2563eb"></circle><circle class="dot" cx="127.94425087108014" cy="340" r="3" fill="#2563eb"></circle><circle class="dot" cx="129.198606271777" cy="340" r="3" fill="#2563eb"></circle><circle class="dot" cx="130.45296167247386" cy="340" r="3" fill="#2563eb"></circle><circle class="dot" cx="131.70731707317074" cy="340" r="3" fill="#2563eb"></circle><circle class="dot" cx="132.9616724738676" cy="340" r="3" fill="#2563eb"></circle><circle class="dot" cx="134.21602787456445" cy="340" r="3" fill="#2563eb"></circle><circle class="dot" cx="135.47038327526133" cy="340" r="3" fill="#2563eb"></circle><circle class="dot" cx="136.72473867595818" cy="340" r="3" fill="#2563eb"></circle><circle class="dot" cx="137.97909407665506" cy="340" r="3" fill="#2563eb"></circle><circle class="dot" cx="139.2334494773519" cy="340" r="3" fill="#2563eb"></circle><circle class="dot" cx="140.4878048780488" cy="340" r="3" fill="#2563eb"></circle><circle class="dot" cx="141.74216027874564" cy="340" r="3" fill="#2563eb"></circle><circle class="dot" cx="142.99651567944252" cy="340" r="3" fill="#2563eb"></circle><circle class="dot" cx="144.25087108013938" cy="340" r="3" fill="#2563eb"></circle><circle class="dot" cx="145.50522648083623" cy="340" r="3" fill="#2563eb"></circle><circle class="dot" cx="146.7595818815331" cy="340" r="3" fill="#2563eb"></circle><circle class="dot" cx="148.01393728222996" cy="340" r="3" fill="#2563eb"></circle><circle class="dot" cx="149.2682926829268" cy="340" r="3" fill="#2563eb"></circle><circle class="dot" cx="150.5226480836237" cy="340" r="3" fill="#2563eb"></circle><circle class="dot" cx="151.77700348432055" cy="340" r="3" fill="#2563eb"></circle><circle class="dot" cx="153.03135888501743" cy="340" r="3" fill="#2563eb"></circle><circle class="dot" cx="154.28571428571428" cy="340" r="3" fill="#2563eb"></circle><circle class="dot" cx="155.54006968641116" cy="340" r="3" fill="#2563eb"></circle><circle class="dot" cx="156.794425087108" cy="340" r="3" fill="#2563eb"></circle><circle class="dot" cx="158.0487804878049" cy="340" r="3" fill="#2563eb"></circle><circle class="dot" cx="159.30313588850174" cy="340" r="3" fill="#2563eb"></circle><circle class="dot" cx="160.5574912891986" cy="340" r="3" fill="#2563eb"></circle><circle class="dot" cx="161.81184668989548" cy="340" r="3" fill="#2563eb"></circle><circle class="dot" cx="163.06620209059233" cy="340" r="3" fill="#2563eb"></circle><circle class="dot" cx="164.3205574912892" cy="340" r="3" fill="#2563eb"></circle><circle class="dot" cx="165.57491289198606" cy="340" r="3" fill="#2563eb"></circle><circle class="dot" cx="166.82926829268294" cy="340" r="3" fill="#2563eb"></circle><circle class="dot" cx="168.0836236933798" cy="340" r="3" fill="#2563eb"></circle><circle class="dot" cx="169.33797909407667" cy="340" r="3" fill="#2563eb"></circle><circle class="dot" cx="170.59233449477352" cy="340" r="3" fill="#2563eb"></circle><circle class="dot" cx="171.84668989547038" cy="340" r="3" fill="#2563eb"></circle><circle class="dot" cx="173.10104529616726" cy="340" r="3" fill="#2563eb"></circle><circle class="dot" cx="174.3554006968641" cy="340" r="3" fill="#2563eb"></circle><circle class="dot" cx="175.60975609756096" cy="340" r="3" fill="#2563eb"></circle><circle class="dot" cx="176.86411149825784" cy="340" r="3" fill="#2563eb"></circle><circle class="dot" cx="178.1184668989547" cy="340" r="3" fill="#2563eb"></circle><circle class="dot" cx="179.37282229965157" cy="340" r="3" fill="#2563eb"></circle><circle class="dot" cx="180.62717770034843" cy="340" r="3" fill="#2563eb"></circle><circle class="dot" cx="181.88153310104528" cy="340" r="3" fill="#2563eb"></circle><circle class="dot" cx="183.1358885017422" cy="340" r="3" fill="#2563eb"></circle><circle class="dot" cx="184.39024390243904" cy="340" r="3" fill="#2563eb"></circle><circle class="dot" cx="185.6445993031359" cy="340" r="3" fill="#2563eb"></circle><circle class="dot" cx="186.89895470383274" cy="340" r="3" fill="#2563eb"></circle><circle class="dot" cx="188.15331010452962" cy="340" r="3" fill="#2563eb"></circle><circle class="dot" cx="189.40766550522648" cy="340" r="3" fill="#2563eb"></circle><circle class="dot" cx="190.66202090592333" cy="340" r="3" fill="#2563eb"></circle><circle class="dot" cx="191.91637630662018" cy="340" r="3" fill="#2563eb"></circle><circle class="dot" cx="193.1707317073171" cy="340" r="3" fill="#2563eb"></circle><circle class="dot" cx="194.42508710801394" cy="340" r="3" fill="#2563eb"></circle><circle class="dot" cx="195.6794425087108" cy="340" r="3" fill="#2563eb"></circle><circle class="dot" cx="196.93379790940764" cy="340" r="3" fill="#2563eb"></circle><circle class="dot" cx="198.18815331010455" cy="340" r="3" fill="#2563eb"></circle><circle class="dot" cx="199.4425087108014" cy="340" r="3" fill="#2563eb"></circle><circle class="dot" cx="200.69686411149826" cy="340" r="3" fill="#2563eb"></circle><circle class="dot" cx="201.95121951219514" cy="340" r="3" fill="#2563eb"></circle><circle class="dot" cx="203.205574912892" cy="340" r="3" fill="#2563eb"></circle><circle class="dot" cx="204.45993031358884" cy="340" r="3" fill="#2563eb"></circle><circle class="dot" cx="205.7142857142857" cy="340" r="3" fill="#2563eb"></circle><circle class="dot" cx="206.9686411149826" cy="340" r="3" fill="#2563eb"></circle><circle class="dot" cx="208.22299651567945" cy="340" r="3" fill="#2563eb"></circle><circle class="dot" cx="209.4773519163763" cy="340" r="3" fill="#2563eb"></circle><circle class="dot" cx="210.73170731707316" cy="340" r="3" fill="#2563eb"></circle><circle class="dot" cx="211.98606271777004" cy="340" r="3" fill="#2563eb"></circle><circle class="dot" cx="213.2404181184669" cy="340" r="3" fill="#2563eb"></circle><circle class="dot" cx="214.49477351916377" cy="340" r="3" fill="#2563eb"></circle><circle class="dot" cx="215.74912891986062" cy="340" r="3" fill="#2563eb"></circle><circle class="dot" cx="217.0034843205575" cy="340" r="3" fill="#2563eb"></circle><circle class="dot" cx="218.25783972125436" cy="340" r="3" fill="#2563eb"></circle><circle class="dot" cx="219.5121951219512" cy="340" r="3" fill="#2563eb"></circle><circle class="dot" cx="220.76655052264806" cy="340" r="3" fill="#2563eb"></circle><circle class="dot" cx="222.02090592334497" cy="340" r="3" fill="#2563eb"></circle><circle class="dot" cx="223.27526132404182" cy="340" r="3" fill="#2563eb"></circle><circle class="dot" cx="224.52961672473867" cy="340" r="3" fill="#2563eb"></circle><circle class="dot" cx="225.78397212543553" cy="340" r="3" fill="#2563eb"></circle><circle class="dot" cx="227.0383275261324" cy="340" r="3" fill="#2563eb"></circle><circle class="dot" cx="228.29268292682926" cy="340" r="3" fill="#2563eb"></circle><circle class="dot" cx="229.54703832752614" cy="340" r="3" fill="#2563eb"></circle><circle class="dot" cx="230.801393728223" cy="340" r="3" fill="#2563eb"></circle><circle class="dot" cx="232.05574912891987" cy="340" r="3" fill="#2563eb"></circle><circle class="dot" cx="233.31010452961672" cy="340" r="3" fill="#2563eb"></circle><circle class="dot" cx="234.56445993031357" cy="340" r="3" fill="#2563eb"></circle><circle class="dot" cx="235.81881533101043" cy="340" r="3" fill="#2563eb"></circle><circle class="dot" cx="237.07317073170734" cy="340" r="3" fill="#2563eb"></circle><circle class="dot" cx="238.3275261324042" cy="340" r="3" fill="#2563eb"></circle><circle class="dot" cx="239.58188153310104" cy="340" r="3" fill="#2563eb"></circle><circle class="dot" cx="240.83623693379792" cy="340" r="3" fill="#2563eb"></circle><circle class="dot" cx="242.09059233449477" cy="340" r="3" fill="#2563eb"></circle><circle class="dot" cx="243.34494773519162" cy="340" r="3" fill="#2563eb"></circle><circle class="dot" cx="244.59930313588848" cy="340" r="3" fill="#2563eb"></circle><circle class="dot" cx="245.85365853658539" cy="340" r="3" fill="#2563eb"></circle><circle class="dot" cx="247.10801393728224" cy="340" r="3" fill="#2563eb"></circle><circle class="dot" cx="248.3623693379791" cy="340" r="3" fill="#2563eb"></circle><circle class="dot" cx="249.61672473867594" cy="340" r="3" fill="#2563eb"></circle><circle class="dot" cx="250.87108013937285" cy="340" r="3" fill="#2563eb"></circle><circle class="dot" cx="252.1254355400697" cy="340" r="3" fill="#2563eb"></circle><circle class="dot" cx="253.37979094076655" cy="340" r="3" fill="#2563eb"></circle><circle class="dot" cx="254.6341463414634" cy="340" r="3" fill="#2563eb"></circle><circle class="dot" cx="255.8885017421603" cy="340" r="3" fill="#2563eb"></circle><circle class="dot" cx="257.14285714285717" cy="340" r="3" fill="#2563eb"></circle><circle class="dot" cx="258.397212543554" cy="340" r="3" fill="#2563eb"></circle><circle class="dot" cx="259.65156794425087" cy="340" r="3" fill="#2563eb"></circle><circle class="dot" cx="260.9059233449477" cy="340" r="3" fill="#2563eb"></circle><circle class="dot" cx="262.16027874564463" cy="340" r="3" fill="#2563eb"></circle><circle class="dot" cx="263.4146341463415" cy="340" r="3" fill="#2563eb"></circle><circle class="dot" cx="264.66898954703834" cy="340" r="3" fill="#2563eb"></circle><circle class="dot" cx="265.9233449477352" cy="340" r="3" fill="#2563eb"></circle><circle class="dot" cx="267.17770034843204" cy="340" r="3" fill="#2563eb"></circle><circle class="dot" cx="268.4320557491289" cy="340" r="3" fill="#2563eb"></circle><circle class="dot" cx="269.68641114982574" cy="340" r="3" fill="#2563eb"></circle><circle class="dot" cx="270.94076655052265" cy="340" r="3" fill="#2563eb"></circle><circle class="dot" cx="272.1951219512195" cy="340" r="3" fill="#2563eb"></circle><circle class="dot" cx="273.44947735191636" cy="340" r="3" fill="#2563eb"></circle><circle class="dot" cx="274.7038327526132" cy="340" r="3" fill="#2563eb"></circle><circle class="dot" cx="275.9581881533101" cy="340" r="3" fill="#2563eb"></circle><circle class="dot" cx="277.21254355400697" cy="340" r="3" fill="#2563eb"></circle><circle class="dot" cx="278.4668989547038" cy="340" r="3" fill="#2563eb"></circle><circle class="dot" cx="279.7212543554007" cy="340" r="3" fill="#2563eb"></circle><circle class="dot" cx="280.9756097560976" cy="340" r="3" fill="#2563eb"></circle><circle class="dot" cx="282.22996515679444" cy="340" r="3" fill="#2563eb"></circle><circle class="dot" cx="283.4843205574913" cy="340" r="3" fill="#2563eb"></circle><circle class="dot" cx="284.7386759581882" cy="340" r="3" fill="#2563eb"></circle><circle class="dot" cx="285.99303135888505" cy="340" r="3" fill="#2563eb"></circle><circle class="dot" cx="287.2473867595819" cy="340" r="3" fill="#2563eb"></circle><circle class="dot" cx="288.50174216027875" cy="340" r="3" fill="#2563eb"></circle><circle class="dot" cx="289.7560975609756" cy="340" r="3" fill="#2563eb"></circle><circle class="dot" cx="291.01045296167246" cy="340" r="3" fill="#2563eb"></circle><circle class="dot" cx="292.2648083623693" cy="340" r="3" fill="#2563eb"></circle><circle class="dot" cx="293.5191637630662" cy="340" r="3" fill="#2563eb"></circle><circle class="dot" cx="294.77351916376307" cy="340" r="3" fill="#2563eb"></circle><circle class="dot" cx="296.0278745644599" cy="340" r="3" fill="#2563eb"></circle><circle class="dot" cx="297.2822299651568" cy="340" r="3" fill="#2563eb"></circle><circle class="dot" cx="298.5365853658536" cy="340" r="3" fill="#2563eb"></circle><circle class="dot" cx="299.79094076655053" cy="340" r="3" fill="#2563eb"></circle><circle class="dot" cx="301.0452961672474" cy="340" r="3" fill="#2563eb"></circle><circle class="dot" cx="302.29965156794424" cy="340" r="3" fill="#2563eb"></circle><circle class="dot" cx="303.5540069686411" cy="340" r="3" fill="#2563eb"></circle><circle class="dot" cx="304.808362369338" cy="340" r="3" fill="#2563eb"></circle><circle class="dot" cx="306.06271777003485" cy="340" r="3" fill="#2563eb"></circle><circle class="dot" cx="307.3170731707317" cy="340" r="3" fill="#2563eb"></circle><circle class="dot" cx="308.57142857142856" cy="340" r="3" fill="#2563eb"></circle><circle class="dot" cx="309.82578397212546" cy="340" r="3" fill="#2563eb"></circle><circle class="dot" cx="311.0801393728223" cy="340" r="3" fill="#2563eb"></circle><circle class="dot" cx="312.33449477351917" cy="340" r="3" fill="#2563eb"></circle><circle class="dot" cx="313.588850174216" cy="340" r="3" fill="#2563eb"></circle><circle class="dot" cx="314.84320557491293" cy="340" r="3" fill="#2563eb"></circle><circle class="dot" cx="316.0975609756098" cy="340" r="3" fill="#2563eb"></circle><circle class="dot" cx="317.35191637630663" cy="340" r="3" fill="#2563eb"></circle><circle class="dot" cx="318.6062717770035" cy="340" r="3" fill="#2563eb"></circle><circle class="dot" cx="319.86062717770034" cy="340" r="3" fill="#2563eb"></circle><circle class="dot" cx="321.1149825783972" cy="340" r="3" fill="#2563eb"></circle><circle class="dot" cx="322.36933797909404" cy="340" r="3" fill="#2563eb"></circle><circle class="dot" cx="323.62369337979095" cy="340" r="3" fill="#2563eb"></circle><circle class="dot" cx="324.8780487804878" cy="340" r="3" fill="#2563eb"></circle><circle class="dot" cx="326.13240418118465" cy="340" r="3" fill="#2563eb"></circle><circle class="dot" cx="327.3867595818815" cy="340" r="3" fill="#2563eb"></circle><circle class="dot" cx="328.6411149825784" cy="340" r="3" fill="#2563eb"></circle><circle class="dot" cx="329.89547038327527" cy="340" r="3" fill="#2563eb"></circle><circle class="dot" cx="331.1498257839721" cy="340" r="3" fill="#2563eb"></circle><circle class="dot" cx="332.40418118466897" cy="340" r="3" fill="#2563eb"></circle><circle class="dot" cx="333.6585365853659" cy="340" r="3" fill="#2563eb"></circle><circle class="dot" cx="334.91289198606273" cy="340" r="3" fill="#2563eb"></circle><circle class="dot" cx="336.1672473867596" cy="340" r="3" fill="#2563eb"></circle><circle class="dot" cx="337.42160278745644" cy="340" r="3" fill="#2563eb"></circle><circle class="dot" cx="338.67595818815334" cy="340" r="3" fill="#2563eb"></circle><circle class="dot" cx="339.9303135888502" cy="340" r="3" fill="#2563eb"></circle><circle class="dot" cx="341.18466898954705" cy="340" r="3" fill="#2563eb"></circle><circle class="dot" cx="342.4390243902439" cy="340" r="3" fill="#2563eb"></circle><circle class="dot" cx="343.69337979094075" cy="340" r="3" fill="#2563eb"></circle><circle class="dot" cx="344.94773519163766" cy="340" r="3" fill="#2563eb"></circle><circle class="dot" cx="346.2020905923345" cy="340" r="3" fill="#2563eb"></circle><circle class="dot" cx="347.45644599303137" cy="340" r="3" fill="#2563eb"></circle><circle class="dot" cx="348.7108013937282" cy="340" r="3" fill="#2563eb"></circle><circle class="dot" cx="349.96515679442507" cy="340" r="3" fill="#2563eb"></circle><circle class="dot" cx="351.2195121951219" cy="340" r="3" fill="#2563eb"></circle><circle class="dot" cx="352.4738675958188" cy="340" r="3" fill="#2563eb"></circle><circle class="dot" cx="353.7282229965157" cy="340" r="3" fill="#2563eb"></circle><circle class="dot" cx="354.98257839721254" cy="340" r="3" fill="#2563eb"></circle><circle class="dot" cx="356.2369337979094" cy="340" r="3" fill="#2563eb"></circle><circle class="dot" cx="357.49128919860624" cy="340" r="3" fill="#2563eb"></circle><circle class="dot" cx="358.74564459930315" cy="340" r="3" fill="#2563eb"></circle><circle class="dot" cx="360" cy="340" r="3" fill="#2563eb"></circle><circle class="dot" cx="361.25435540069685" cy="340" r="3" fill="#2563eb"></circle><circle class="dot" cx="362.5087108013937" cy="340" r="3" fill="#2563eb"></circle><circle class="dot" cx="363.76306620209056" cy="340" r="3" fill="#2563eb"></circle><circle class="dot" cx="365.0174216027875" cy="340" r="3" fill="#2563eb"></circle><circle class="dot" cx="366.2717770034844" cy="340" r="3" fill="#2563eb"></circle><circle class="dot" cx="367.5261324041812" cy="340" r="3" fill="#2563eb"></circle><circle class="dot" cx="368.7804878048781" cy="340" r="3" fill="#2563eb"></circle><circle class="dot" cx="370.03484320557493" cy="340" r="3" fill="#2563eb"></circle><circle class="dot" cx="371.2891986062718" cy="340" r="3" fill="#2563eb"></circle><circle class="dot" cx="372.54355400696863" cy="340" r="3" fill="#2563eb"></circle><circle class="dot" cx="373.7979094076655" cy="340" r="3" fill="#2563eb"></circle><circle class="dot" cx="375.0522648083624" cy="340" r="3" fill="#2563eb"></circle><circle class="dot" cx="376.30662020905925" cy="340" r="3" fill="#2563eb"></circle><circle class="dot" cx="377.5609756097561" cy="340" r="3" fill="#2563eb"></circle><circle class="dot" cx="378.81533101045295" cy="340" r="3" fill="#2563eb"></circle><circle class="dot" cx="380.0696864111498" cy="340" r="3" fill="#2563eb"></circle><circle class="dot" cx="381.32404181184666" cy="340" r="3" fill="#2563eb"></circle><circle class="dot" cx="382.5783972125435" cy="340" r="3" fill="#2563eb"></circle><circle class="dot" cx="383.83275261324036" cy="340" r="3" fill="#2563eb"></circle><circle class="dot" cx="385.0871080139373" cy="340" r="3" fill="#2563eb"></circle><circle class="dot" cx="386.3414634146342" cy="340" r="3" fill="#2563eb"></circle><circle class="dot" cx="387.59581881533103" cy="340" r="3" fill="#2563eb"></circle><circle class="dot" cx="388.8501742160279" cy="340" r="3" fill="#2563eb"></circle><circle class="dot" cx="390.10452961672473" cy="340" r="3" fill="#2563eb"></circle><circle class="dot" cx="391.3588850174216" cy="340" r="3" fill="#2563eb"></circle><circle class="dot" cx="392.61324041811844" cy="340" r="3" fill="#2563eb"></circle><circle class="dot" cx="393.8675958188153" cy="340" r="3" fill="#2563eb"></circle><circle class="dot" cx="395.1219512195122" cy="340" r="3" fill="#2563eb"></circle><circle class="dot" cx="396.3763066202091" cy="340" r="3" fill="#2563eb"></circle><circle class="dot" cx="397.63066202090596" cy="340" r="3" fill="#2563eb"></circle><circle class="dot" cx="398.8850174216028" cy="340" r="3" fill="#2563eb"></circle><circle class="dot" cx="400.13937282229966" cy="340" r="3" fill="#2563eb"></circle><circle class="dot" cx="401.3937282229965" cy="340" r="3" fill="#2563eb"></circle><circle class="dot" cx="402.64808362369337" cy="340" r="3" fill="#2563eb"></circle><circle class="dot" cx="403.9024390243903" cy="340" r="3" fill="#2563eb"></circle><circle class="dot" cx="405.1567944250871" cy="340" r="3" fill="#2563eb"></circle><circle class="dot" cx="406.411149825784" cy="340" r="3" fill="#2563eb"></circle><circle class="dot" cx="407.66550522648083" cy="340" r="3" fill="#2563eb"></circle><circle class="dot" cx="408.9198606271777" cy="340" r="3" fill="#2563eb"></circle><circle class="dot" cx="410.17421602787454" cy="340" r="3" fill="#2563eb"></circle><circle class="dot" cx="411.4285714285714" cy="340" r="3" fill="#2563eb"></circle><circle class="dot" cx="412.68292682926824" cy="340" r="3" fill="#2563eb"></circle><circle class="dot" cx="413.9372822299652" cy="340" r="3" fill="#2563eb"></circle><circle class="dot" cx="415.19163763066206" cy="340" r="3" fill="#2563eb"></circle><circle class="dot" cx="416.4459930313589" cy="340" r="3" fill="#2563eb"></circle><circle class="dot" cx="417.70034843205576" cy="340" r="3" fill="#2563eb"></circle><circle class="dot" cx="418.9547038327526" cy="340" r="3" fill="#2563eb"></circle><circle class="dot" cx="420.20905923344947" cy="340" r="3" fill="#2563eb"></circle><circle class="dot" cx="421.4634146341463" cy="340" r="3" fill="#2563eb"></circle><circle class="dot" cx="422.71777003484317" cy="340" r="3" fill="#2563eb"></circle><circle class="dot" cx="423.9721254355401" cy="0" r="3" fill="#2563eb"></circle><circle class="dot" cx="425.22648083623693" cy="0" r="3" fill="#2563eb"></circle><circle class="dot" cx="426.4808362369338" cy="0" r="3" fill="#2563eb"></circle><circle class="dot" cx="427.7351916376307" cy="0" r="3" fill="#2563eb"></circle><circle class="dot" cx="428.98954703832754" cy="0" r="3" fill="#2563eb"></circle><circle class="dot" cx="430.2439024390244" cy="0" r="3" fill="#2563eb"></circle><circle class="dot" cx="431.49825783972125" cy="0" r="3" fill="#2563eb"></circle><circle class="dot" cx="432.7526132404181" cy="0" r="3" fill="#2563eb"></circle><circle class="dot" cx="434.006968641115" cy="0" r="3" fill="#2563eb"></circle><circle class="dot" cx="435.26132404181186" cy="0" r="3" fill="#2563eb"></circle><circle class="dot" cx="436.5156794425087" cy="0" r="3" fill="#2563eb"></circle><circle class="dot" cx="437.77003484320556" cy="0" r="3" fill="#2563eb"></circle><circle class="dot" cx="439.0243902439024" cy="0" r="3" fill="#2563eb"></circle><circle class="dot" cx="440.27874564459927" cy="0" r="3" fill="#2563eb"></circle><circle class="dot" cx="441.5331010452961" cy="0" r="3" fill="#2563eb"></circle><circle class="dot" cx="442.7874564459931" cy="0" r="3" fill="#2563eb"></circle><circle class="dot" cx="444.04181184668994" cy="0" r="3" fill="#2563eb"></circle><circle class="dot" cx="445.2961672473868" cy="0" r="3" fill="#2563eb"></circle><circle class="dot" cx="446.55052264808364" cy="0" r="3" fill="#2563eb"></circle><circle class="dot" cx="447.8048780487805" cy="0" r="3" fill="#2563eb"></circle><circle class="dot" cx="449.05923344947735" cy="0" r="3" fill="#2563eb"></circle><circle class="dot" cx="450.3135888501742" cy="0" r="3" fill="#2563eb"></circle><circle class="dot" cx="451.56794425087105" cy="0" r="3" fill="#2563eb"></circle><circle class="dot" cx="452.82229965156796" cy="0" r="3" fill="#2563eb"></circle><circle class="dot" cx="454.0766550522648" cy="0" r="3" fill="#2563eb"></circle><circle class="dot" cx="455.33101045296166" cy="0" r="3" fill="#2563eb"></circle><circle class="dot" cx="456.5853658536585" cy="0" r="3" fill="#2563eb"></circle><circle class="dot" cx="457.83972125435537" cy="0" r="3" fill="#2563eb"></circle><circle class="dot" cx="459.0940766550523" cy="0" r="3" fill="#2563eb"></circle><circle class="dot" cx="460.34843205574913" cy="0" r="3" fill="#2563eb"></circle><circle class="dot" cx="461.602787456446" cy="0" r="3" fill="#2563eb"></circle><circle class="dot" cx="462.8571428571429" cy="0" r="3" fill="#2563eb"></circle><circle class="dot" cx="464.11149825783974" cy="0" r="3" fill="#2563eb"></circle><circle class="dot" cx="465.3658536585366" cy="0" r="3" fill="#2563eb"></circle><circle class="dot" cx="466.62020905923345" cy="0" r="3" fill="#2563eb"></circle><circle class="dot" cx="467.8745644599303" cy="0" r="3" fill="#2563eb"></circle><circle class="dot" cx="469.12891986062715" cy="0" r="3" fill="#2563eb"></circle><circle class="dot" cx="470.383275261324" cy="0" r="3" fill="#2563eb"></circle><circle class="dot" cx="471.63763066202085" cy="0" r="3" fill="#2563eb"></circle><circle class="dot" cx="472.8919860627178" cy="0" r="3" fill="#2563eb"></circle><circle class="dot" cx="474.1463414634147" cy="0" r="3" fill="#2563eb"></circle><circle class="dot" cx="475.4006968641115" cy="0" r="3" fill="#2563eb"></circle><circle class="dot" cx="476.6550522648084" cy="0" r="3" fill="#2563eb"></circle><circle class="dot" cx="477.9094076655052" cy="0" r="3" fill="#2563eb"></circle><circle class="dot" cx="479.1637630662021" cy="0" r="3" fill="#2563eb"></circle><circle class="dot" cx="480.41811846689893" cy="0" r="3" fill="#2563eb"></circle><circle class="dot" cx="481.67247386759584" cy="0" r="3" fill="#2563eb"></circle><circle class="dot" cx="482.9268292682927" cy="0" r="3" fill="#2563eb"></circle><circle class="dot" cx="484.18118466898954" cy="0" r="3" fill="#2563eb"></circle><circle class="dot" cx="485.4355400696864" cy="0" r="3" fill="#2563eb"></circle><circle class="dot" cx="486.68989547038325" cy="0" r="3" fill="#2563eb"></circle><circle class="dot" cx="487.9442508710801" cy="0" r="3" fill="#2563eb"></circle><circle class="dot" cx="489.19860627177695" cy="0" r="3" fill="#2563eb"></circle><circle class="dot" cx="490.45296167247386" cy="0" r="3" fill="#2563eb"></circle><circle class="dot" cx="491.70731707317077" cy="0" r="3" fill="#2563eb"></circle><circle class="dot" cx="492.9616724738676" cy="0" r="3" fill="#2563eb"></circle><circle class="dot" cx="494.2160278745645" cy="0" r="3" fill="#2563eb"></circle><circle class="dot" cx="495.4703832752613" cy="0" r="3" fill="#2563eb"></circle><circle class="dot" cx="496.7247386759582" cy="0" r="3" fill="#2563eb"></circle><circle class="dot" cx="497.97909407665503" cy="0" r="3" fill="#2563eb"></circle><circle class="dot" cx="499.2334494773519" cy="0" r="3" fill="#2563eb"></circle><circle class="dot" cx="500.48780487804873" cy="0" r="3" fill="#2563eb"></circle><circle class="dot" cx="501.7421602787457" cy="0" r="3" fill="#2563eb"></circle><circle class="dot" cx="502.99651567944255" cy="0" r="3" fill="#2563eb"></circle><circle class="dot" cx="504.2508710801394" cy="0" r="3" fill="#2563eb"></circle><circle class="dot" cx="505.50522648083626" cy="0" r="3" fill="#2563eb"></circle><circle class="dot" cx="506.7595818815331" cy="0" r="3" fill="#2563eb"></circle><circle class="dot" cx="508.01393728222996" cy="0" r="3" fill="#2563eb"></circle><circle class="dot" cx="509.2682926829268" cy="0" r="3" fill="#2563eb"></circle><circle class="dot" cx="510.52264808362366" cy="0" r="3" fill="#2563eb"></circle><circle class="dot" cx="511.7770034843206" cy="0" r="3" fill="#2563eb"></circle><circle class="dot" cx="513.0313588850174" cy="0" r="3" fill="#2563eb"></circle><circle class="dot" cx="514.2857142857143" cy="0" r="3" fill="#2563eb"></circle><circle class="dot" cx="515.5400696864111" cy="0" r="3" fill="#2563eb"></circle><circle class="dot" cx="516.794425087108" cy="0" r="3" fill="#2563eb"></circle><circle class="dot" cx="518.0487804878048" cy="0" r="3" fill="#2563eb"></circle><circle class="dot" cx="519.3031358885017" cy="0" r="3" fill="#2563eb"></circle><circle class="dot" cx="520.5574912891987" cy="0" r="3" fill="#2563eb"></circle><circle class="dot" cx="521.8118466898954" cy="0" r="3" fill="#2563eb"></circle><circle class="dot" cx="523.0662020905924" cy="0" r="3" fill="#2563eb"></circle><circle class="dot" cx="524.3205574912893" cy="0" r="3" fill="#2563eb"></circle><circle class="dot" cx="525.5749128919861" cy="0" r="3" fill="#2563eb"></circle><circle class="dot" cx="526.829268292683" cy="0" r="3" fill="#2563eb"></circle><circle class="dot" cx="528.0836236933798" cy="0" r="3" fill="#2563eb"></circle><circle class="dot" cx="529.3379790940767" cy="0" r="3" fill="#2563eb"></circle><circle class="dot" cx="530.5923344947736" cy="0" r="3" fill="#2563eb"></circle><circle class="dot" cx="531.8466898954704" cy="0" r="3" fill="#2563eb"></circle><circle class="dot" cx="533.1010452961673" cy="0" r="3" fill="#2563eb"></circle><circle class="dot" cx="534.3554006968641" cy="0" r="3" fill="#2563eb"></circle><circle class="dot" cx="535.609756097561" cy="0" r="3" fill="#2563eb"></circle><circle class="dot" cx="536.8641114982578" cy="0" r="3" fill="#2563eb"></circle><circle class="dot" cx="538.1184668989547" cy="0" r="3" fill="#2563eb"></circle><circle class="dot" cx="539.3728222996515" cy="0" r="3" fill="#2563eb"></circle><circle class="dot" cx="540.6271777003485" cy="0" r="3" fill="#2563eb"></circle><circle class="dot" cx="541.8815331010453" cy="0" r="3" fill="#2563eb"></circle><circle class="dot" cx="543.1358885017422" cy="0" r="3" fill="#2563eb"></circle><circle class="dot" cx="544.390243902439" cy="0" r="3" fill="#2563eb"></circle><circle class="dot" cx="545.6445993031359" cy="0" r="3" fill="#2563eb"></circle><circle class="dot" cx="546.8989547038327" cy="0" r="3" fill="#2563eb"></circle><circle class="dot" cx="548.1533101045296" cy="0" r="3" fill="#2563eb"></circle><circle class="dot" cx="549.4076655052264" cy="0" r="3" fill="#2563eb"></circle><circle class="dot" cx="550.6620209059233" cy="0" r="3" fill="#2563eb"></circle><circle class="dot" cx="551.9163763066202" cy="0" r="3" fill="#2563eb"></circle><circle class="dot" cx="553.170731707317" cy="0" r="3" fill="#2563eb"></circle><circle class="dot" cx="554.4250871080139" cy="0" r="3" fill="#2563eb"></circle><circle class="dot" cx="555.6794425087107" cy="0" r="3" fill="#2563eb"></circle><circle class="dot" cx="556.9337979094076" cy="0" r="3" fill="#2563eb"></circle><circle class="dot" cx="558.1881533101046" cy="0" r="3" fill="#2563eb"></circle><circle class="dot" cx="559.4425087108013" cy="0" r="3" fill="#2563eb"></circle><circle class="dot" cx="560.6968641114983" cy="0" r="3" fill="#2563eb"></circle><circle class="dot" cx="561.9512195121952" cy="0" r="3" fill="#2563eb"></circle><circle class="dot" cx="563.205574912892" cy="0" r="3" fill="#2563eb"></circle><circle class="dot" cx="564.4599303135889" cy="0" r="3" fill="#2563eb"></circle><circle class="dot" cx="565.7142857142857" cy="0" r="3" fill="#2563eb"></circle><circle class="dot" cx="566.9686411149826" cy="0" r="3" fill="#2563eb"></circle><circle class="dot" cx="568.2229965156794" cy="0" r="3" fill="#2563eb"></circle><circle class="dot" cx="569.4773519163764" cy="0" r="3" fill="#2563eb"></circle><circle class="dot" cx="570.7317073170732" cy="0" r="3" fill="#2563eb"></circle><circle class="dot" cx="571.9860627177701" cy="0" r="3" fill="#2563eb"></circle><circle class="dot" cx="573.2404181184669" cy="0" r="3" fill="#2563eb"></circle><circle class="dot" cx="574.4947735191638" cy="0" r="3" fill="#2563eb"></circle><circle class="dot" cx="575.7491289198606" cy="0" r="3" fill="#2563eb"></circle><circle class="dot" cx="577.0034843205575" cy="0" r="3" fill="#2563eb"></circle><circle class="dot" cx="578.2578397212543" cy="0" r="3" fill="#2563eb"></circle><circle class="dot" cx="579.5121951219512" cy="0" r="3" fill="#2563eb"></circle><circle class="dot" cx="580.7665505226481" cy="0" r="3" fill="#2563eb"></circle><circle class="dot" cx="582.0209059233449" cy="0" r="3" fill="#2563eb"></circle><circle class="dot" cx="583.2752613240418" cy="0" r="3" fill="#2563eb"></circle><circle class="dot" cx="584.5296167247386" cy="0" r="3" fill="#2563eb"></circle><circle class="dot" cx="585.7839721254355" cy="0" r="3" fill="#2563eb"></circle><circle class="dot" cx="587.0383275261324" cy="0" r="3" fill="#2563eb"></circle><circle class="dot" cx="588.2926829268292" cy="0" r="3" fill="#2563eb"></circle><circle class="dot" cx="589.5470383275261" cy="0" r="3" fill="#2563eb"></circle><circle class="dot" cx="590.801393728223" cy="0" r="3" fill="#2563eb"></circle><circle class="dot" cx="592.0557491289198" cy="0" r="3" fill="#2563eb"></circle><circle class="dot" cx="593.3101045296168" cy="0" r="3" fill="#2563eb"></circle><circle class="dot" cx="594.5644599303135" cy="0" r="3" fill="#2563eb"></circle><circle class="dot" cx="595.8188153310105" cy="0" r="3" fill="#2563eb"></circle><circle class="dot" cx="597.0731707317073" cy="0" r="3" fill="#2563eb"></circle><circle class="dot" cx="598.3275261324042" cy="0" r="3" fill="#2563eb"></circle><circle class="dot" cx="599.5818815331011" cy="0" r="3" fill="#2563eb"></circle><circle class="dot" cx="600.836236933798" cy="0" r="3" fill="#2563eb"></circle><circle class="dot" cx="602.0905923344948" cy="0" r="3" fill="#2563eb"></circle><circle class="dot" cx="603.3449477351917" cy="0" r="3" fill="#2563eb"></circle><circle class="dot" cx="604.5993031358885" cy="0" r="3" fill="#2563eb"></circle><circle class="dot" cx="605.8536585365854" cy="0" r="3" fill="#2563eb"></circle><circle class="dot" cx="607.1080139372822" cy="0" r="3" fill="#2563eb"></circle><circle class="dot" cx="608.3623693379791" cy="0" r="3" fill="#2563eb"></circle><circle class="dot" cx="609.616724738676" cy="0" r="3" fill="#2563eb"></circle><circle class="dot" cx="610.8710801393728" cy="0" r="3" fill="#2563eb"></circle><circle class="dot" cx="612.1254355400697" cy="0" r="3" fill="#2563eb"></circle><circle class="dot" cx="613.3797909407665" cy="0" r="3" fill="#2563eb"></circle><circle class="dot" cx="614.6341463414634" cy="0" r="3" fill="#2563eb"></circle><circle class="dot" cx="615.8885017421602" cy="0" r="3" fill="#2563eb"></circle><circle class="dot" cx="617.1428571428571" cy="0" r="3" fill="#2563eb"></circle><circle class="dot" cx="618.397212543554" cy="0" r="3" fill="#2563eb"></circle><circle class="dot" cx="619.6515679442509" cy="0" r="3" fill="#2563eb"></circle><circle class="dot" cx="620.9059233449477" cy="0" r="3" fill="#2563eb"></circle><circle class="dot" cx="622.1602787456446" cy="0" r="3" fill="#2563eb"></circle><circle class="dot" cx="623.4146341463414" cy="0" r="3" fill="#2563eb"></circle><circle class="dot" cx="624.6689895470383" cy="0" r="3" fill="#2563eb"></circle><circle class="dot" cx="625.9233449477351" cy="0" r="3" fill="#2563eb"></circle><circle class="dot" cx="627.177700348432" cy="0" r="3" fill="#2563eb"></circle><circle class="dot" cx="628.432055749129" cy="0" r="3" fill="#2563eb"></circle><circle class="dot" cx="629.6864111498259" cy="0" r="3" fill="#2563eb"></circle><circle class="dot" cx="630.9407665505227" cy="0" r="3" fill="#2563eb"></circle><circle class="dot" cx="632.1951219512196" cy="0" r="3" fill="#2563eb"></circle><circle class="dot" cx="633.4494773519164" cy="0" r="3" fill="#2563eb"></circle><circle class="dot" cx="634.7038327526133" cy="0" r="3" fill="#2563eb"></circle><circle class="dot" cx="635.9581881533101" cy="0" r="3" fill="#2563eb"></circle><circle class="dot" cx="637.212543554007" cy="0" r="3" fill="#2563eb"></circle><circle class="dot" cx="638.4668989547039" cy="0" r="3" fill="#2563eb"></circle><circle class="dot" cx="639.7212543554007" cy="0" r="3" fill="#2563eb"></circle><circle class="dot" cx="640.9756097560976" cy="0" r="3" fill="#2563eb"></circle><circle class="dot" cx="642.2299651567944" cy="0" r="3" fill="#2563eb"></circle><circle class="dot" cx="643.4843205574913" cy="0" r="3" fill="#2563eb"></circle><circle class="dot" cx="644.7386759581881" cy="0" r="3" fill="#2563eb"></circle><circle class="dot" cx="645.993031358885" cy="0" r="3" fill="#2563eb"></circle><circle class="dot" cx="647.2473867595819" cy="0" r="3" fill="#2563eb"></circle><circle class="dot" cx="648.5017421602788" cy="0" r="3" fill="#2563eb"></circle><circle class="dot" cx="649.7560975609756" cy="0" r="3" fill="#2563eb"></circle><circle class="dot" cx="651.0104529616725" cy="0" r="3" fill="#2563eb"></circle><circle class="dot" cx="652.2648083623693" cy="0" r="3" fill="#2563eb"></circle><circle class="dot" cx="653.5191637630662" cy="0" r="3" fill="#2563eb"></circle><circle class="dot" cx="654.773519163763" cy="0" r="3" fill="#2563eb"></circle><circle class="dot" cx="656.0278745644599" cy="0" r="3" fill="#2563eb"></circle><circle class="dot" cx="657.2822299651568" cy="0" r="3" fill="#2563eb"></circle><circle class="dot" cx="658.5365853658537" cy="0" r="3" fill="#2563eb"></circle><circle class="dot" cx="659.7909407665505" cy="0" r="3" fill="#2563eb"></circle><circle class="dot" cx="661.0452961672474" cy="0" r="3" fill="#2563eb"></circle><circle class="dot" cx="662.2996515679442" cy="0" r="3" fill="#2563eb"></circle><circle class="dot" cx="663.5540069686411" cy="0" r="3" fill="#2563eb"></circle><circle class="dot" cx="664.8083623693379" cy="0" r="3" fill="#2563eb"></circle><circle class="dot" cx="666.0627177700349" cy="0" r="3" fill="#2563eb"></circle><circle class="dot" cx="667.3170731707318" cy="0" r="3" fill="#2563eb"></circle><circle class="dot" cx="668.5714285714286" cy="0" r="3" fill="#2563eb"></circle><circle class="dot" cx="669.8257839721255" cy="0" r="3" fill="#2563eb"></circle><circle class="dot" cx="671.0801393728223" cy="0" r="3" fill="#2563eb"></circle><circle class="dot" cx="672.3344947735192" cy="0" r="3" fill="#2563eb"></circle><circle class="dot" cx="673.588850174216" cy="0" r="3" fill="#2563eb"></circle><circle class="dot" cx="674.8432055749129" cy="0" r="3" fill="#2563eb"></circle><circle class="dot" cx="676.0975609756097" cy="0" r="3" fill="#2563eb"></circle><circle class="dot" cx="677.3519163763067" cy="0" r="3" fill="#2563eb"></circle><circle class="dot" cx="678.6062717770035" cy="0" r="3" fill="#2563eb"></circle><circle class="dot" cx="679.8606271777004" cy="0" r="3" fill="#2563eb"></circle><circle class="dot" cx="681.1149825783972" cy="0" r="3" fill="#2563eb"></circle><circle class="dot" cx="682.3693379790941" cy="0" r="3" fill="#2563eb"></circle><circle class="dot" cx="683.6236933797909" cy="0" r="3" fill="#2563eb"></circle><circle class="dot" cx="684.8780487804878" cy="0" r="3" fill="#2563eb"></circle><circle class="dot" cx="686.1324041811847" cy="0" r="3" fill="#2563eb"></circle><circle class="dot" cx="687.3867595818815" cy="0" r="3" fill="#2563eb"></circle><circle class="dot" cx="688.6411149825784" cy="0" r="3" fill="#2563eb"></circle><circle class="dot" cx="689.8954703832753" cy="0" r="3" fill="#2563eb"></circle><circle class="dot" cx="691.1498257839721" cy="0" r="3" fill="#2563eb"></circle><circle class="dot" cx="692.404181184669" cy="0" r="3" fill="#2563eb"></circle><circle class="dot" cx="693.6585365853658" cy="0" r="3" fill="#2563eb"></circle><circle class="dot" cx="694.9128919860627" cy="0" r="3" fill="#2563eb"></circle><circle class="dot" cx="696.1672473867596" cy="0" r="3" fill="#2563eb"></circle><circle class="dot" cx="697.4216027874564" cy="0" r="3" fill="#2563eb"></circle><circle class="dot" cx="698.6759581881533" cy="0" r="3" fill="#2563eb"></circle><circle class="dot" cx="699.9303135888501" cy="0" r="3" fill="#2563eb"></circle><circle class="dot" cx="701.184668989547" cy="0" r="3" fill="#2563eb"></circle><circle class="dot" cx="702.4390243902438" cy="0" r="3" fill="#2563eb"></circle><circle class="dot" cx="703.6933797909408" cy="0" r="3" fill="#2563eb"></circle><circle class="dot" cx="704.9477351916375" cy="0" r="3" fill="#2563eb"></circle><circle class="dot" cx="706.2020905923346" cy="0" r="3" fill="#2563eb"></circle><circle class="dot" cx="707.4564459930314" cy="0" r="3" fill="#2563eb"></circle><circle class="dot" cx="708.7108013937283" cy="0" r="3" fill="#2563eb"></circle><circle class="dot" cx="709.9651567944251" cy="0" r="3" fill="#2563eb"></circle><circle class="dot" cx="711.219512195122" cy="0" r="3" fill="#2563eb"></circle><circle class="dot" cx="712.4738675958188" cy="0" r="3" fill="#2563eb"></circle><circle class="dot" cx="713.7282229965157" cy="0" r="3" fill="#2563eb"></circle><circle class="dot" cx="714.9825783972125" cy="0" r="3" fill="#2563eb"></circle><circle class="dot" cx="716.2369337979094" cy="0" r="3" fill="#2563eb"></circle><circle class="dot" cx="717.4912891986063" cy="0" r="3" fill="#2563eb"></circle><circle class="dot" cx="718.7456445993031" cy="0" r="3" fill="#2563eb"></circle><circle class="dot" cx="720" cy="0" r="3" fill="#2563eb"></circle><g class="grid" transform="translate(0,340)" fill="none" font-size="10" font-family="sans-serif" text-anchor="middle" style="stroke-dasharray: 3,3; opacity: 0.3;"><path class="domain" stroke="currentColor" d="M0.5,-340V0.5H720.5V-340"></path><g class="tick" opacity="1" transform="translate(0.5,0)"><line stroke="currentColor" y2="-340"></line><text fill="currentColor" y="3" dy="0.71em"></text></g><g class="tick" opacity="1" transform="translate(30.60452961672474,0)"><line stroke="currentColor" y2="-340"></line><text fill="currentColor" y="3" dy="0.71em"></text></g><g class="tick" opacity="1" transform="translate(60.70905923344948,0)"><line stroke="currentColor" y2="-340"></line><text fill="currentColor" y="3" dy="0.71em"></text></g><g class="tick" opacity="1" transform="translate(90.81358885017421,0)"><line stroke="currentColor" y2="-340"></line><text fill="currentColor" y="3" dy="0.71em"></text></g><g class="tick" opacity="1" transform="translate(120.91811846689896,0)"><line stroke="currentColor" y2="-340"></line><text fill="currentColor" y="3" dy="0.71em"></text></g><g class="tick" opacity="1" transform="translate(151.0226480836237,0)"><line stroke="currentColor" y2="-340"></line><text fill="currentColor" y="3" dy="0.71em"></text></g><g class="tick" opacity="1" transform="translate(181.12717770034843,0)"><line stroke="currentColor" y2="-340"></line><text fill="currentColor" y="3" dy="0.71em"></text></g><g class="tick" opacity="1" transform="translate(211.23170731707316,0)"><line stroke="currentColor" y2="-340"></line><text fill="currentColor" y="3" dy="0.71em"></text></g><g class="tick" opacity="1" transform="translate(241.33623693379792,0)"><line stroke="currentColor" y2="-340"></line><text fill="currentColor" y="3" dy="0.71em"></text></g><g class="tick" opacity="1" transform="translate(271.44076655052265,0)"><line stroke="currentColor" y2="-340"></line><text fill="currentColor" y="3" dy="0.71em"></text></g><g class="tick" opacity="1" transform="translate(301.5452961672474,0)"><line stroke="currentColor" y2="-340"></line><text fill="currentColor" y="3" dy="0.71em"></text></g><g class="tick" opacity="1" transform="translate(331.6498257839721,0)"><line stroke="currentColor" y2="-340"></line><text fill="currentColor" y="3" dy="0.71em"></text></g><g class="tick" opacity="1" transform="translate(361.75435540069685,0)"><line stroke="currentColor" y2="-340"></line><text fill="currentColor" y="3" dy="0.71em"></text></g><g class="tick" opacity="1" transform="translate(391.8588850174216,0)"><line stroke="currentColor" y2="-340"></line><text fill="currentColor" y="3" dy="0.71em"></text></g><g class="tick" opacity="1" transform="translate(421.9634146341463,0)"><line stroke="currentColor" y2="-340"></line><text fill="currentColor" y="3" dy="0.71em"></text></g><g class="tick" opacity="1" transform="translate(452.06794425087105,0)"><line stroke="currentColor" y2="-340"></line><text fill="currentColor" y="3" dy="0.71em"></text></g><g class="tick" opacity="1" transform="translate(482.17247386759584,0)"><line stroke="currentColor" y2="-340"></line><text fill="currentColor" y="3" dy="0.71em"></text></g><g class="tick" opacity="1" transform="translate(512.2770034843206,0)"><line stroke="currentColor" y2="-340"></line><text fill="currentColor" y="3" dy="0.71em"></text></g><g class="tick" opacity="1" transform="translate(542.3815331010453,0)"><line stroke="currentColor" y2="-340"></line><text fill="currentColor" y="3" dy="0.71em"></text></g><g class="tick" opacity="1" transform="translate(572.4860627177701,0)"><line stroke="currentColor" y2="-340"></line><text fill="currentColor" y="3" dy="0.71em"></text></g><g class="tick" opacity="1" transform="translate(602.5905923344948,0)"><line stroke="currentColor" y2="-340"></line><text fill="currentColor" y="3" dy="0.71em"></text></g><g class="tick" opacity="1" transform="translate(632.6951219512196,0)"><line stroke="currentColor" y2="-340"></line><text fill="currentColor" y="3" dy="0.71em"></text></g><g class="tick" opacity="1" transform="translate(662.7996515679442,0)"><line stroke="currentColor" y2="-340"></line><text fill="currentColor" y="3" dy="0.71em"></text></g><g class="tick" opacity="1" transform="translate(692.904181184669,0)"><line stroke="currentColor" y2="-340"></line><text fill="currentColor" y="3" dy="0.71em"></text></g></g><g class="grid" fill="none" font-size="10" font-family="sans-serif" text-anchor="end" style="stroke-dasharray: 3,3; opacity: 0.3;"><path class="domain" stroke="currentColor" d="M720,340.5H0.5V0.5H720"></path><g class="tick" opacity="1" transform="translate(0,340.5)"><line stroke="currentColor" x2="720"></line><text fill="currentColor" x="-3" dy="0.32em"></text></g><g class="tick" opacity="1" transform="translate(0,312.16666666666663)"><line stroke="currentColor" x2="720"></line><text fill="currentColor" x="-3" dy="0.32em"></text></g><g class="tick" opacity="1" transform="translate(0,283.83333333333326)"><line stroke="currentColor" x2="720"></line><text fill="currentColor" x="-3" dy="0.32em"></text></g><g class="tick" opacity="1" transform="translate(0,255.49999999999991)"><line stroke="currentColor" x2="720"></line><text fill="currentColor" x="-3" dy="0.32em"></text></g><g class="tick" opacity="1" transform="translate(0,227.16666666666654)"><line stroke="currentColor" x2="720"></line><text fill="currentColor" x="-3" dy="0.32em"></text></g><g class="tick" opacity="1" transform="translate(0,198.83333333333314)"><line stroke="currentColor" x2="720"></line><text fill="currentColor" x="-3" dy="0.32em"></text></g><g class="tick" opacity="1" transform="translate(0,170.4999999999998)"><line stroke="currentColor" x2="720"></line><text fill="currentColor" x="-3" dy="0.32em"></text></g><g class="tick" opacity="1" transform="translate(0,142.16666666666686)"><line stroke="currentColor" x2="720"></line><text fill="currentColor" x="-3" dy="0.32em"></text></g><g class="tick" opacity="1" transform="translate(0,113.83333333333346)"><line stroke="currentColor" x2="720"></line><text fill="currentColor" x="-3" dy="0.32em"></text></g><g class="tick" opacity="1" transform="translate(0,85.50000000000011)"><line stroke="currentColor" x2="720"></line><text fill="currentColor" x="-3" dy="0.32em"></text></g><g class="tick" opacity="1" transform="translate(0,57.16666666666673)"><line stroke="currentColor" x2="720"></line><text fill="currentColor" x="-3" dy="0.32em"></text></g><g class="tick" opacity="1" transform="translate(0,28.833333333333385)"><line stroke="currentColor" x2="720"></line><text fill="currentColor" x="-3" dy="0.32em"></text></g><g class="tick" opacity="1" transform="translate(0,0.5)"><line stroke="currentColor" x2="720"></line><text fill="currentColor" x="-3" dy="0.32em"></text></g></g></g><text x="400" y="10" text-anchor="middle" style="font-size: 16px; font-weight: bold; fill: #333;">OKX USDT Lending Rate - Current Month</text></svg>