<svg width="800" height="400" xmlns="http://www.w3.org/2000/svg"><g transform="translate(50,20)"><g transform="translate(0,340)" fill="none" font-size="10" font-family="sans-serif" text-anchor="middle"><path class="domain" stroke="currentColor" d="M0.5,6V0.5H720.5V6"></path><g class="tick" opacity="1" transform="translate(0.5,0)"><line stroke="currentColor" y2="6"></line><text fill="currentColor" y="9" dy=".15em" style="text-anchor: end;" dx="-.8em" transform="rotate(-45)">03/01</text></g><g class="tick" opacity="1" transform="translate(34.316046966731896,0)"><line stroke="currentColor" y2="6"></line><text fill="currentColor" y="9" dy=".15em" style="text-anchor: end;" dx="-.8em" transform="rotate(-45)">03/02</text></g><g class="tick" opacity="1" transform="translate(68.13209393346379,0)"><line stroke="currentColor" y2="6"></line><text fill="currentColor" y="9" dy=".15em" style="text-anchor: end;" dx="-.8em" transform="rotate(-45)">03/03</text></g><g class="tick" opacity="1" transform="translate(101.94814090019568,0)"><line stroke="currentColor" y2="6"></line><text fill="currentColor" y="9" dy=".15em" style="text-anchor: end;" dx="-.8em" transform="rotate(-45)">03/04</text></g><g class="tick" opacity="1" transform="translate(135.76418786692759,0)"><line stroke="currentColor" y2="6"></line><text fill="currentColor" y="9" dy=".15em" style="text-anchor: end;" dx="-.8em" transform="rotate(-45)">03/05</text></g><g class="tick" opacity="1" transform="translate(169.5802348336595,0)"><line stroke="currentColor" y2="6"></line><text fill="currentColor" y="9" dy=".15em" style="text-anchor: end;" dx="-.8em" transform="rotate(-45)">03/06</text></g><g class="tick" opacity="1" transform="translate(203.39628180039136,0)"><line stroke="currentColor" y2="6"></line><text fill="currentColor" y="9" dy=".15em" style="text-anchor: end;" dx="-.8em" transform="rotate(-45)">03/07</text></g><g class="tick" opacity="1" transform="translate(237.21232876712327,0)"><line stroke="currentColor" y2="6"></line><text fill="currentColor" y="9" dy=".15em" style="text-anchor: end;" dx="-.8em" transform="rotate(-45)">03/08</text></g><g class="tick" opacity="1" transform="translate(271.02837573385517,0)"><line stroke="currentColor" y2="6"></line><text fill="currentColor" y="9" dy=".15em" style="text-anchor: end;" dx="-.8em" transform="rotate(-45)">03/09</text></g><g class="tick" opacity="1" transform="translate(304.8444227005871,0)"><line stroke="currentColor" y2="6"></line><text fill="currentColor" y="9" dy=".15em" style="text-anchor: end;" dx="-.8em" transform="rotate(-45)">03/10</text></g><g class="tick" opacity="1" transform="translate(338.660469667319,0)"><line stroke="currentColor" y2="6"></line><text fill="currentColor" y="9" dy=".15em" style="text-anchor: end;" dx="-.8em" transform="rotate(-45)">03/11</text></g><g class="tick" opacity="1" transform="translate(372.4765166340509,0)"><line stroke="currentColor" y2="6"></line><text fill="currentColor" y="9" dy=".15em" style="text-anchor: end;" dx="-.8em" transform="rotate(-45)">03/12</text></g><g class="tick" opacity="1" transform="translate(406.2925636007827,0)"><line stroke="currentColor" y2="6"></line><text fill="currentColor" y="9" dy=".15em" style="text-anchor: end;" dx="-.8em" transform="rotate(-45)">03/13</text></g><g class="tick" opacity="1" transform="translate(440.10861056751463,0)"><line stroke="currentColor" y2="6"></line><text fill="currentColor" y="9" dy=".15em" style="text-anchor: end;" dx="-.8em" transform="rotate(-45)">03/14</text></g><g class="tick" opacity="1" transform="translate(473.92465753424653,0)"><line stroke="currentColor" y2="6"></line><text fill="currentColor" y="9" dy=".15em" style="text-anchor: end;" dx="-.8em" transform="rotate(-45)">03/15</text></g><g class="tick" opacity="1" transform="translate(507.74070450097844,0)"><line stroke="currentColor" y2="6"></line><text fill="currentColor" y="9" dy=".15em" style="text-anchor: end;" dx="-.8em" transform="rotate(-45)">03/16</text></g><g class="tick" opacity="1" transform="translate(541.5567514677103,0)"><line stroke="currentColor" y2="6"></line><text fill="currentColor" y="9" dy=".15em" style="text-anchor: end;" dx="-.8em" transform="rotate(-45)">03/17</text></g><g class="tick" opacity="1" transform="translate(575.3727984344422,0)"><line stroke="currentColor" y2="6"></line><text fill="currentColor" y="9" dy=".15em" style="text-anchor: end;" dx="-.8em" transform="rotate(-45)">03/18</text></g><g class="tick" opacity="1" transform="translate(609.1888454011741,0)"><line stroke="currentColor" y2="6"></line><text fill="currentColor" y="9" dy=".15em" style="text-anchor: end;" dx="-.8em" transform="rotate(-45)">03/19</text></g><g class="tick" opacity="1" transform="translate(643.004892367906,0)"><line stroke="currentColor" y2="6"></line><text fill="currentColor" y="9" dy=".15em" style="text-anchor: end;" dx="-.8em" transform="rotate(-45)">03/20</text></g><g class="tick" opacity="1" transform="translate(676.820939334638,0)"><line stroke="currentColor" y2="6"></line><text fill="currentColor" y="9" dy=".15em" style="text-anchor: end;" dx="-.8em" transform="rotate(-45)">03/21</text></g><g class="tick" opacity="1" transform="translate(710.6369863013698,0)"><line stroke="currentColor" y2="6"></line><text fill="currentColor" y="9" dy=".15em" style="text-anchor: end;" dx="-.8em" transform="rotate(-45)">03/22</text></g></g><g fill="none" font-size="10" font-family="sans-serif" text-anchor="end"><path class="domain" stroke="currentColor" d="M-6,340.5H0.5V0.5H-6"></path><g class="tick" opacity="1" transform="translate(0,170.5)"><line stroke="currentColor" x2="-6"></line><text fill="currentColor" x="-9" dy="0.32em">2.50%</text></g></g><text transform="rotate(-90)" y="-50" x="-170" dy="1em" style="text-anchor: middle; font-size: 12px; fill: #666;">Pre Rate (%)</text><text transform="translate(360, 380)" style="text-anchor: middle; font-size: 12px; fill: #666;">Time (UTC)</text><path fill="none" stroke="#2563eb" stroke-width="2" d="M0,170C0.47,170,0.939,170,1.409,170C1.879,170,2.348,170,2.818,170C3.288,170,3.757,170,4.227,170C4.697,170,5.166,170,5.636,170C6.106,170,6.575,170,7.045,170C7.515,170,7.984,170,8.454,170C8.924,170,9.393,170,9.863,170C10.333,170,10.802,170,11.272,170C11.742,170,12.211,170,12.681,170C13.151,170,13.62,170,14.09,170C14.56,170,15.029,170,15.499,170C15.969,170,16.438,170,16.908,170C17.378,170,17.847,170,18.317,170C18.787,170,19.256,170,19.726,170C20.196,170,20.665,170,21.135,170C21.605,170,22.074,170,22.544,170C23.014,170,23.483,170,23.953,170C24.423,170,24.892,170,25.362,170C25.832,170,26.301,170,26.771,170C27.241,170,27.71,170,28.18,170C28.65,170,29.119,170,29.589,170C30.059,170,30.528,170,30.998,170C31.468,170,31.937,170,32.407,170C32.877,170,33.346,170,33.816,170C34.286,170,34.755,170,35.225,170C35.695,170,36.164,170,36.634,170C37.104,170,37.573,170,38.043,170C38.513,170,38.982,170,39.452,170C39.922,170,40.391,170,40.861,170C41.331,170,41.8,170,42.27,170C42.74,170,43.209,170,43.679,170C44.149,170,44.618,170,45.088,170C45.558,170,46.027,170,46.497,170C46.967,170,47.436,170,47.906,170C48.376,170,48.845,170,49.315,170C49.785,170,50.254,170,50.724,170C51.194,170,51.663,170,52.133,170C52.603,170,53.072,170,53.542,170C54.012,170,54.481,170,54.951,170C55.421,170,55.89,170,56.36,170C56.83,170,57.299,170,57.769,170C58.239,170,58.708,170,59.178,170C59.648,170,60.117,170,60.587,170C61.057,170,61.526,170,61.996,170C62.466,170,62.935,170,63.405,170C63.875,170,64.344,170,64.814,170C65.284,170,65.753,170,66.223,170C66.693,170,67.162,170,67.632,170C68.102,170,68.571,170,69.041,170C69.511,170,69.98,170,70.45,170C70.92,170,71.389,170,71.859,170C72.329,170,72.798,170,73.268,170C73.738,170,74.207,170,74.677,170C75.147,170,75.616,170,76.086,170C76.556,170,77.025,170,77.495,170C77.965,170,78.434,170,78.904,170C79.374,170,79.843,170,80.313,170C80.783,170,81.252,170,81.722,170C82.192,170,82.661,170,83.131,170C83.601,170,84.07,170,84.54,170C85.01,170,85.479,170,85.949,170C86.419,170,86.888,170,87.358,170C87.828,170,88.297,170,88.767,170C89.237,170,89.706,170,90.176,170C90.646,170,91.115,170,91.585,170C92.055,170,92.524,170,92.994,170C93.464,170,93.933,170,94.403,170C94.873,170,95.342,170,95.812,170C96.282,170,96.751,170,97.221,170C97.691,170,98.16,170,98.63,170C99.1,170,99.569,170,100.039,170C100.509,170,100.978,170,101.448,170C101.918,170,102.387,170,102.857,170C103.327,170,103.796,170,104.266,170C104.736,170,105.205,170,105.675,170C106.145,170,106.614,170,107.084,170C107.554,170,108.023,170,108.493,170C108.963,170,109.432,170,109.902,170C110.372,170,110.841,170,111.311,170C111.781,170,112.25,170,112.72,170C113.19,170,113.659,170,114.129,170C114.599,170,115.068,170,115.538,170C116.008,170,116.477,170,116.947,170C117.417,170,117.886,170,118.356,170C118.826,170,119.295,170,119.765,170C120.235,170,120.705,170,121.174,170C121.644,170,122.114,170,122.583,170C123.053,170,123.523,170,123.992,170C124.462,170,124.932,170,125.401,170C125.871,170,126.341,170,126.81,170C127.28,170,127.75,170,128.219,170C128.689,170,129.159,170,129.628,170C130.098,170,130.568,170,131.037,170C131.507,170,131.977,170,132.446,170C132.916,170,133.386,170,133.855,170C134.325,170,134.795,170,135.264,170C135.734,170,136.204,170,136.673,170C137.143,170,137.613,170,138.082,170C138.552,170,139.022,170,139.491,170C139.961,170,140.431,170,140.9,170C141.37,170,141.84,170,142.309,170C142.779,170,143.249,170,143.718,170C144.188,170,144.658,170,145.127,170C145.597,170,146.067,170,146.536,170C147.006,170,147.476,170,147.945,170C148.415,170,148.885,170,149.354,170C149.824,170,150.294,170,150.763,170C151.233,170,151.703,170,152.172,170C152.642,170,153.112,170,153.581,170C154.051,170,154.521,170,154.99,170C155.46,170,155.93,170,156.399,170C156.869,170,157.339,170,157.808,170C158.278,170,158.748,170,159.217,170C159.687,170,160.157,170,160.626,170C161.096,170,161.566,170,162.035,170C162.505,170,162.975,170,163.444,170C163.914,170,164.384,170,164.853,170C165.323,170,165.793,170,166.262,170C166.732,170,167.202,170,167.671,170C168.141,170,168.611,170,169.08,170C169.55,170,170.02,170,170.489,170C170.959,170,171.429,170,171.898,170C172.368,170,172.838,170,173.307,170C173.777,170,174.247,170,174.716,170C175.186,170,175.656,170,176.125,170C176.595,170,177.065,170,177.534,170C178.004,170,178.474,170,178.943,170C179.413,170,179.883,170,180.352,170C180.822,170,181.292,170,181.761,170C182.231,170,182.701,170,183.17,170C183.64,170,184.11,170,184.579,170C185.049,170,185.519,170,185.988,170C186.458,170,186.928,170,187.397,170C187.867,170,188.337,170,188.806,170C189.276,170,189.746,170,190.215,170C190.685,170,191.155,170,191.624,170C192.094,170,192.564,170,193.033,170C193.503,170,193.973,170,194.442,170C194.912,170,195.382,170,195.851,170C196.321,170,196.791,170,197.26,170C197.73,170,198.2,170,198.669,170C199.139,170,199.609,170,200.078,170C200.548,170,201.018,170,201.487,170C201.957,170,202.427,170,202.896,170C203.366,170,203.836,170,204.305,170C204.775,170,205.245,170,205.714,170C206.184,170,206.654,170,207.123,170C207.593,170,208.063,170,208.532,170C209.002,170,209.472,170,209.941,170C210.411,170,210.881,170,211.35,170C211.82,170,212.29,170,212.759,170C213.229,170,213.699,170,214.168,170C214.638,170,215.108,170,215.577,170C216.047,170,216.517,170,216.986,170C217.456,170,217.926,170,218.395,170C218.865,170,219.335,170,219.804,170C220.274,170,220.744,170,221.213,170C221.683,170,222.153,170,222.622,170C223.092,170,223.562,170,224.031,170C224.501,170,224.971,170,225.44,170C225.91,170,226.38,170,226.849,170C227.319,170,227.789,170,228.258,170C228.728,170,229.198,170,229.667,170C230.137,170,230.607,170,231.076,170C231.546,170,232.016,170,232.485,170C232.955,170,233.425,170,233.894,170C234.364,170,234.834,170,235.303,170C235.773,170,236.243,170,236.712,170C237.182,170,237.652,170,238.121,170C238.591,170,239.061,170,239.53,170C240,170,240.47,170,240.939,170C241.409,170,241.879,170,242.348,170C242.818,170,243.288,170,243.757,170C244.227,170,244.697,170,245.166,170C245.636,170,246.106,170,246.575,170C247.045,170,247.515,170,247.984,170C248.454,170,248.924,170,249.393,170C249.863,170,250.333,170,250.802,170C251.272,170,251.742,170,252.211,170C252.681,170,253.151,170,253.62,170C254.09,170,254.56,170,255.029,170C255.499,170,255.969,170,256.438,170C256.908,170,257.378,170,257.847,170C258.317,170,258.787,170,259.256,170C259.726,170,260.196,170,260.665,170C261.135,170,261.605,170,262.074,170C262.544,170,263.014,170,263.483,170C263.953,170,264.423,170,264.892,170C265.362,170,265.832,170,266.301,170C266.771,170,267.241,170,267.71,170C268.18,170,268.65,170,269.119,170C269.589,170,270.059,170,270.528,170C270.998,170,271.468,170,271.937,170C272.407,170,272.877,170,273.346,170C273.816,170,274.286,170,274.755,170C275.225,170,275.695,170,276.164,170C276.634,170,277.104,170,277.573,170C278.043,170,278.513,170,278.982,170C279.452,170,279.922,170,280.391,170C280.861,170,281.331,170,281.8,170C282.27,170,282.74,170,283.209,170C283.679,170,284.149,170,284.618,170C285.088,170,285.558,170,286.027,170C286.497,170,286.967,170,287.436,170C287.906,170,288.376,170,288.845,170C289.315,170,289.785,170,290.254,170C290.724,170,291.194,170,291.663,170C292.133,170,292.603,170,293.072,170C293.542,170,294.012,170,294.481,170C294.951,170,295.421,170,295.89,170C296.36,170,296.83,170,297.299,170C297.769,170,298.239,170,298.708,170C299.178,170,299.648,170,300.117,170C300.587,170,301.057,170,301.526,170C301.996,170,302.466,170,302.935,170C303.405,170,303.875,170,304.344,170C304.814,170,305.284,170,305.753,170C306.223,170,306.693,170,307.162,170C307.632,170,308.102,170,308.571,170C309.041,170,309.511,170,309.98,170C310.45,170,310.92,170,311.389,170C311.859,170,312.329,170,312.798,170C313.268,170,313.738,170,314.207,170C314.677,170,315.147,170,315.616,170C316.086,170,316.556,170,317.025,170C317.495,170,317.965,170,318.434,170C318.904,170,319.374,170,319.843,170C320.313,170,320.783,170,321.252,170C321.722,170,322.192,170,322.661,170C323.131,170,323.601,170,324.07,170C324.54,170,325.01,170,325.479,170C325.949,170,326.419,170,326.888,170C327.358,170,327.828,170,328.297,170C328.767,170,329.237,170,329.706,170C330.176,170,330.646,170,331.115,170C331.585,170,332.055,170,332.524,170C332.994,170,333.464,170,333.933,170C334.403,170,334.873,170,335.342,170C335.812,170,336.282,170,336.751,170C337.221,170,337.691,170,338.16,170C338.63,170,339.1,170,339.569,170C340.039,170,340.509,170,340.978,170C341.448,170,341.918,170,342.387,170C342.857,170,343.327,170,343.796,170C344.266,170,344.736,170,345.205,170C345.675,170,346.145,170,346.614,170C347.084,170,347.554,170,348.023,170C348.493,170,348.963,170,349.432,170C349.902,170,350.372,170,350.841,170C351.311,170,351.781,170,352.25,170C352.72,170,353.19,170,353.659,170C354.129,170,354.599,170,355.068,170C355.538,170,356.008,170,356.477,170C356.947,170,357.417,170,357.886,170C358.356,170,358.826,170,359.295,170C359.765,170,360.235,170,360.705,170C361.174,170,361.644,170,362.114,170C362.583,170,363.053,170,363.523,170C363.992,170,364.462,170,364.932,170C365.401,170,365.871,170,366.341,170C366.81,170,367.28,170,367.75,170C368.219,170,368.689,170,369.159,170C369.628,170,370.098,170,370.568,170C371.037,170,371.507,170,371.977,170C372.446,170,372.916,170,373.386,170C373.855,170,374.325,170,374.795,170C375.264,170,375.734,170,376.204,170C376.673,170,377.143,170,377.613,170C378.082,170,378.552,170,379.022,170C379.491,170,379.961,170,380.431,170C380.9,170,381.37,170,381.84,170C382.309,170,382.779,170,383.249,170C383.718,170,384.188,170,384.658,170C385.127,170,385.597,170,386.067,170C386.536,170,387.006,170,387.476,170C387.945,170,388.415,170,388.885,170C389.354,170,389.824,170,390.294,170C390.763,170,391.233,170,391.703,170C392.172,170,392.642,170,393.112,170C393.581,170,394.051,170,394.521,170C394.99,170,395.46,170,395.93,170C396.399,170,396.869,170,397.339,170C397.808,170,398.278,170,398.748,170C399.217,170,399.687,170,400.157,170C400.626,170,401.096,170,401.566,170C402.035,170,402.505,170,402.975,170C403.444,170,403.914,170,404.384,170C404.853,170,405.323,170,405.793,170C406.262,170,406.732,170,407.202,170C407.671,170,408.141,170,408.611,170C409.08,170,409.55,170,410.02,170C410.489,170,410.959,170,411.429,170C411.898,170,412.368,170,412.838,170C413.307,170,413.777,170,414.247,170C414.716,170,415.186,170,415.656,170C416.125,170,416.595,170,417.065,170C417.534,170,418.004,170,418.474,170C418.943,170,419.413,170,419.883,170C420.352,170,420.822,170,421.292,170C421.761,170,422.231,170,422.701,170C423.17,170,423.64,170,424.11,170C424.579,170,425.049,170,425.519,170C425.988,170,426.458,170,426.928,170C427.397,170,427.867,170,428.337,170C428.806,170,429.276,170,429.746,170C430.215,170,430.685,170,431.155,170C431.624,170,432.094,170,432.564,170C433.033,170,433.503,170,433.973,170C434.442,170,434.912,170,435.382,170C435.851,170,436.321,170,436.791,170C437.26,170,437.73,170,438.2,170C438.669,170,439.139,170,439.609,170C440.078,170,440.548,170,441.018,170C441.487,170,441.957,170,442.427,170C442.896,170,443.366,170,443.836,170C444.305,170,444.775,170,445.245,170C445.714,170,446.184,170,446.654,170C447.123,170,447.593,170,448.063,170C448.532,170,449.002,170,449.472,170C449.941,170,450.411,170,450.881,170C451.35,170,451.82,170,452.29,170C452.759,170,453.229,170,453.699,170C454.168,170,454.638,170,455.108,170C455.577,170,456.047,170,456.517,170C456.986,170,457.456,170,457.926,170C458.395,170,458.865,170,459.335,170C459.804,170,460.274,170,460.744,170C461.213,170,461.683,170,462.153,170C462.622,170,463.092,170,463.562,170C464.031,170,464.501,170,464.971,170C465.44,170,465.91,170,466.38,170C466.849,170,467.319,170,467.789,170C468.258,170,468.728,170,469.198,170C469.667,170,470.137,170,470.607,170C471.076,170,471.546,170,472.016,170C472.485,170,472.955,170,473.425,170C473.894,170,474.364,170,474.834,170C475.303,170,475.773,170,476.243,170C476.712,170,477.182,170,477.652,170C478.121,170,478.591,170,479.061,170C479.53,170,480,170,480.47,170C480.939,170,481.409,170,481.879,170C482.348,170,482.818,170,483.288,170C483.757,170,484.227,170,484.697,170C485.166,170,485.636,170,486.106,170C486.575,170,487.045,170,487.515,170C487.984,170,488.454,170,488.924,170C489.393,170,489.863,170,490.333,170C490.802,170,491.272,170,491.742,170C492.211,170,492.681,170,493.151,170C493.62,170,494.09,170,494.56,170C495.029,170,495.499,170,495.969,170C496.438,170,496.908,170,497.378,170C497.847,170,498.317,170,498.787,170C499.256,170,499.726,170,500.196,170C500.665,170,501.135,170,501.605,170C502.074,170,502.544,170,503.014,170C503.483,170,503.953,170,504.423,170C504.892,170,505.362,170,505.832,170C506.301,170,506.771,170,507.241,170C507.71,170,508.18,170,508.65,170C509.119,170,509.589,170,510.059,170C510.528,170,510.998,170,511.468,170C511.937,170,512.407,170,512.877,170C513.346,170,513.816,170,514.286,170C514.755,170,515.225,170,515.695,170C516.164,170,516.634,170,517.104,170C517.573,170,518.043,170,518.513,170C518.982,170,519.452,170,519.922,170C520.391,170,520.861,170,521.331,170C521.8,170,522.27,170,522.74,170C523.209,170,523.679,170,524.149,170C524.618,170,525.088,170,525.558,170C526.027,170,526.497,170,526.967,170C527.436,170,527.906,170,528.376,170C528.845,170,529.315,170,529.785,170C530.254,170,530.724,170,531.194,170C531.663,170,532.133,170,532.603,170C533.072,170,533.542,170,534.012,170C534.481,170,534.951,170,535.421,170C535.89,170,536.36,170,536.83,170C537.299,170,537.769,170,538.239,170C538.708,170,539.178,170,539.648,170C540.117,170,540.587,170,541.057,170C541.526,170,541.996,170,542.466,170C542.935,170,543.405,170,543.875,170C544.344,170,544.814,170,545.284,170C545.753,170,546.223,170,546.693,170C547.162,170,547.632,170,548.102,170C548.571,170,549.041,170,549.511,170C549.98,170,550.45,170,550.92,170C551.389,170,551.859,170,552.329,170C552.798,170,553.268,170,553.738,170C554.207,170,554.677,170,555.147,170C555.616,170,556.086,170,556.556,170C557.025,170,557.495,170,557.965,170C558.434,170,558.904,170,559.374,170C559.843,170,560.313,170,560.783,170C561.252,170,561.722,170,562.192,170C562.661,170,563.131,170,563.601,170C564.07,170,564.54,170,565.01,170C565.479,170,565.949,170,566.419,170C566.888,170,567.358,170,567.828,170C568.297,170,568.767,170,569.237,170C569.706,170,570.176,170,570.646,170C571.115,170,571.585,170,572.055,170C572.524,170,572.994,170,573.464,170C573.933,170,574.403,170,574.873,170C575.342,170,575.812,170,576.282,170C576.751,170,577.221,170,577.691,170C578.16,170,578.63,170,579.1,170C579.569,170,580.039,170,580.509,170C580.978,170,581.448,170,581.918,170C582.387,170,582.857,170,583.327,170C583.796,170,584.266,170,584.736,170C585.205,170,585.675,170,586.145,170C586.614,170,587.084,170,587.554,170C588.023,170,588.493,170,588.963,170C589.432,170,589.902,170,590.372,170C590.841,170,591.311,170,591.781,170C592.25,170,592.72,170,593.19,170C593.659,170,594.129,170,594.599,170C595.068,170,595.538,170,596.008,170C596.477,170,596.947,170,597.417,170C597.886,170,598.356,170,598.826,170C599.295,170,599.765,170,600.235,170C600.705,170,601.174,170,601.644,170C602.114,170,602.583,170,603.053,170C603.523,170,603.992,170,604.462,170C604.932,170,605.401,170,605.871,170C606.341,170,606.81,170,607.28,170C607.75,170,608.219,170,608.689,170C609.159,170,609.628,170,610.098,170C610.568,170,611.037,170,611.507,170C611.977,170,612.446,170,612.916,170C613.386,170,613.855,170,614.325,170C614.795,170,615.264,170,615.734,170C616.204,170,616.673,170,617.143,170C617.613,170,618.082,170,618.552,170C619.022,170,619.491,170,619.961,170C620.431,170,620.9,170,621.37,170C621.84,170,622.309,170,622.779,170C623.249,170,623.718,170,624.188,170C624.658,170,625.127,170,625.597,170C626.067,170,626.536,170,627.006,170C627.476,170,627.945,170,628.415,170C628.885,170,629.354,170,629.824,170C630.294,170,630.763,170,631.233,170C631.703,170,632.172,170,632.642,170C633.112,170,633.581,170,634.051,170C634.521,170,634.99,170,635.46,170C635.93,170,636.399,170,636.869,170C637.339,170,637.808,170,638.278,170C638.748,170,639.217,170,639.687,170C640.157,170,640.626,170,641.096,170C641.566,170,642.035,170,642.505,170C642.975,170,643.444,170,643.914,170C644.384,170,644.853,170,645.323,170C645.793,170,646.262,170,646.732,170C647.202,170,647.671,170,648.141,170C648.611,170,649.08,170,649.55,170C650.02,170,650.489,170,650.959,170C651.429,170,651.898,170,652.368,170C652.838,170,653.307,170,653.777,170C654.247,170,654.716,170,655.186,170C655.656,170,656.125,170,656.595,170C657.065,170,657.534,170,658.004,170C658.474,170,658.943,170,659.413,170C659.883,170,660.352,170,660.822,170C661.292,170,661.761,170,662.231,170C662.701,170,663.17,170,663.64,170C664.11,170,664.579,170,665.049,170C665.519,170,665.988,170,666.458,170C666.928,170,667.397,170,667.867,170C668.337,170,668.806,170,669.276,170C669.746,170,670.215,170,670.685,170C671.155,170,671.624,170,672.094,170C672.564,170,673.033,170,673.503,170C673.973,170,674.442,170,674.912,170C675.382,170,675.851,170,676.321,170C676.791,170,677.26,170,677.73,170C678.2,170,678.669,170,679.139,170C679.609,170,680.078,170,680.548,170C681.018,170,681.487,170,681.957,170C682.427,170,682.896,170,683.366,170C683.836,170,684.305,170,684.775,170C685.245,170,685.714,170,686.184,170C686.654,170,687.123,170,687.593,170C688.063,170,688.532,170,689.002,170C689.472,170,689.941,170,690.411,170C690.881,170,691.35,170,691.82,170C692.29,170,692.759,170,693.229,170C693.699,170,694.168,170,694.638,170C695.108,170,695.577,170,696.047,170C696.517,170,696.986,170,697.456,170C697.926,170,698.395,170,698.865,170C699.335,170,699.804,170,700.274,170C700.744,170,701.213,170,701.683,170C702.153,170,702.622,170,703.092,170C703.562,170,704.031,170,704.501,170C704.971,170,705.44,170,705.91,170C706.38,170,706.849,170,707.319,170C707.789,170,708.258,170,708.728,170C709.198,170,709.667,170,710.137,170C710.607,170,711.076,170,711.546,170C712.016,170,712.485,170,712.955,170C713.425,170,713.894,170,714.364,170C714.834,170,715.303,170,715.773,170C716.243,170,716.712,170,717.182,170C717.652,170,718.121,170,718.591,170C719.061,170,719.53,170,720,170"></path><circle class="dot" cx="0" cy="170" r="3" fill="#2563eb"></circle><circle class="dot" cx="1.4090019569471623" cy="170" r="3" fill="#2563eb"></circle><circle class="dot" cx="2.8180039138943247" cy="170" r="3" fill="#2563eb"></circle><circle class="dot" cx="4.227005870841487" cy="170" r="3" fill="#2563eb"></circle><circle class="dot" cx="5.636007827788649" cy="170" r="3" fill="#2563eb"></circle><circle class="dot" cx="7.045009784735812" cy="170" r="3" fill="#2563eb"></circle><circle class="dot" cx="8.454011741682974" cy="170" r="3" fill="#2563eb"></circle><circle class="dot" cx="9.863013698630137" cy="170" r="3" fill="#2563eb"></circle><circle class="dot" cx="11.272015655577299" cy="170" r="3" fill="#2563eb"></circle><circle class="dot" cx="12.68101761252446" cy="170" r="3" fill="#2563eb"></circle><circle class="dot" cx="14.090019569471623" cy="170" r="3" fill="#2563eb"></circle><circle class="dot" cx="15.499021526418787" cy="170" r="3" fill="#2563eb"></circle><circle class="dot" cx="16.908023483365948" cy="170" r="3" fill="#2563eb"></circle><circle class="dot" cx="18.31702544031311" cy="170" r="3" fill="#2563eb"></circle><circle class="dot" cx="19.726027397260275" cy="170" r="3" fill="#2563eb"></circle><circle class="dot" cx="21.135029354207436" cy="170" r="3" fill="#2563eb"></circle><circle class="dot" cx="22.544031311154598" cy="170" r="3" fill="#2563eb"></circle><circle class="dot" cx="23.95303326810176" cy="170" r="3" fill="#2563eb"></circle><circle class="dot" cx="25.36203522504892" cy="170" r="3" fill="#2563eb"></circle><circle class="dot" cx="26.771037181996086" cy="170" r="3" fill="#2563eb"></circle><circle class="dot" cx="28.180039138943247" cy="170" r="3" fill="#2563eb"></circle><circle class="dot" cx="29.58904109589041" cy="170" r="3" fill="#2563eb"></circle><circle class="dot" cx="30.998043052837573" cy="170" r="3" fill="#2563eb"></circle><circle class="dot" cx="32.40704500978473" cy="170" r="3" fill="#2563eb"></circle><circle class="dot" cx="33.816046966731896" cy="170" r="3" fill="#2563eb"></circle><circle class="dot" cx="35.22504892367906" cy="170" r="3" fill="#2563eb"></circle><circle class="dot" cx="36.63405088062622" cy="170" r="3" fill="#2563eb"></circle><circle class="dot" cx="38.043052837573384" cy="170" r="3" fill="#2563eb"></circle><circle class="dot" cx="39.45205479452055" cy="170" r="3" fill="#2563eb"></circle><circle class="dot" cx="40.86105675146771" cy="170" r="3" fill="#2563eb"></circle><circle class="dot" cx="42.27005870841487" cy="170" r="3" fill="#2563eb"></circle><circle class="dot" cx="43.67906066536203" cy="170" r="3" fill="#2563eb"></circle><circle class="dot" cx="45.088062622309195" cy="170" r="3" fill="#2563eb"></circle><circle class="dot" cx="46.49706457925636" cy="170" r="3" fill="#2563eb"></circle><circle class="dot" cx="47.90606653620352" cy="170" r="3" fill="#2563eb"></circle><circle class="dot" cx="49.31506849315068" cy="170" r="3" fill="#2563eb"></circle><circle class="dot" cx="50.72407045009784" cy="170" r="3" fill="#2563eb"></circle><circle class="dot" cx="52.133072407045006" cy="170" r="3" fill="#2563eb"></circle><circle class="dot" cx="53.54207436399217" cy="170" r="3" fill="#2563eb"></circle><circle class="dot" cx="54.95107632093933" cy="170" r="3" fill="#2563eb"></circle><circle class="dot" cx="56.360078277886494" cy="170" r="3" fill="#2563eb"></circle><circle class="dot" cx="57.76908023483366" cy="170" r="3" fill="#2563eb"></circle><circle class="dot" cx="59.17808219178082" cy="170" r="3" fill="#2563eb"></circle><circle class="dot" cx="60.58708414872798" cy="170" r="3" fill="#2563eb"></circle><circle class="dot" cx="61.99608610567515" cy="170" r="3" fill="#2563eb"></circle><circle class="dot" cx="63.405088062622305" cy="170" r="3" fill="#2563eb"></circle><circle class="dot" cx="64.81409001956946" cy="170" r="3" fill="#2563eb"></circle><circle class="dot" cx="66.22309197651663" cy="170" r="3" fill="#2563eb"></circle><circle class="dot" cx="67.63209393346379" cy="170" r="3" fill="#2563eb"></circle><circle class="dot" cx="69.04109589041096" cy="170" r="3" fill="#2563eb"></circle><circle class="dot" cx="70.45009784735812" cy="170" r="3" fill="#2563eb"></circle><circle class="dot" cx="71.85909980430527" cy="170" r="3" fill="#2563eb"></circle><circle class="dot" cx="73.26810176125244" cy="170" r="3" fill="#2563eb"></circle><circle class="dot" cx="74.6771037181996" cy="170" r="3" fill="#2563eb"></circle><circle class="dot" cx="76.08610567514677" cy="170" r="3" fill="#2563eb"></circle><circle class="dot" cx="77.49510763209393" cy="170" r="3" fill="#2563eb"></circle><circle class="dot" cx="78.9041095890411" cy="170" r="3" fill="#2563eb"></circle><circle class="dot" cx="80.31311154598825" cy="170" r="3" fill="#2563eb"></circle><circle class="dot" cx="81.72211350293541" cy="170" r="3" fill="#2563eb"></circle><circle class="dot" cx="83.13111545988258" cy="170" r="3" fill="#2563eb"></circle><circle class="dot" cx="84.54011741682974" cy="170" r="3" fill="#2563eb"></circle><circle class="dot" cx="85.94911937377691" cy="170" r="3" fill="#2563eb"></circle><circle class="dot" cx="87.35812133072406" cy="170" r="3" fill="#2563eb"></circle><circle class="dot" cx="88.76712328767123" cy="170" r="3" fill="#2563eb"></circle><circle class="dot" cx="90.17612524461839" cy="170" r="3" fill="#2563eb"></circle><circle class="dot" cx="91.58512720156556" cy="170" r="3" fill="#2563eb"></circle><circle class="dot" cx="92.99412915851272" cy="170" r="3" fill="#2563eb"></circle><circle class="dot" cx="94.40313111545987" cy="170" r="3" fill="#2563eb"></circle><circle class="dot" cx="95.81213307240704" cy="170" r="3" fill="#2563eb"></circle><circle class="dot" cx="97.2211350293542" cy="170" r="3" fill="#2563eb"></circle><circle class="dot" cx="98.63013698630137" cy="170" r="3" fill="#2563eb"></circle><circle class="dot" cx="100.03913894324853" cy="170" r="3" fill="#2563eb"></circle><circle class="dot" cx="101.44814090019568" cy="170" r="3" fill="#2563eb"></circle><circle class="dot" cx="102.85714285714285" cy="170" r="3" fill="#2563eb"></circle><circle class="dot" cx="104.26614481409001" cy="170" r="3" fill="#2563eb"></circle><circle class="dot" cx="105.67514677103718" cy="170" r="3" fill="#2563eb"></circle><circle class="dot" cx="107.08414872798434" cy="170" r="3" fill="#2563eb"></circle><circle class="dot" cx="108.4931506849315" cy="170" r="3" fill="#2563eb"></circle><circle class="dot" cx="109.90215264187866" cy="170" r="3" fill="#2563eb"></circle><circle class="dot" cx="111.31115459882582" cy="170" r="3" fill="#2563eb"></circle><circle class="dot" cx="112.72015655577299" cy="170" r="3" fill="#2563eb"></circle><circle class="dot" cx="114.12915851272015" cy="170" r="3" fill="#2563eb"></circle><circle class="dot" cx="115.53816046966732" cy="170" r="3" fill="#2563eb"></circle><circle class="dot" cx="116.94716242661447" cy="170" r="3" fill="#2563eb"></circle><circle class="dot" cx="118.35616438356163" cy="170" r="3" fill="#2563eb"></circle><circle class="dot" cx="119.7651663405088" cy="170" r="3" fill="#2563eb"></circle><circle class="dot" cx="121.17416829745596" cy="170" r="3" fill="#2563eb"></circle><circle class="dot" cx="122.58317025440313" cy="170" r="3" fill="#2563eb"></circle><circle class="dot" cx="123.9921722113503" cy="170" r="3" fill="#2563eb"></circle><circle class="dot" cx="125.40117416829744" cy="170" r="3" fill="#2563eb"></circle><circle class="dot" cx="126.81017612524461" cy="170" r="3" fill="#2563eb"></circle><circle class="dot" cx="128.21917808219177" cy="170" r="3" fill="#2563eb"></circle><circle class="dot" cx="129.62818003913893" cy="170" r="3" fill="#2563eb"></circle><circle class="dot" cx="131.0371819960861" cy="170" r="3" fill="#2563eb"></circle><circle class="dot" cx="132.44618395303326" cy="170" r="3" fill="#2563eb"></circle><circle class="dot" cx="133.85518590998043" cy="170" r="3" fill="#2563eb"></circle><circle class="dot" cx="135.26418786692759" cy="170" r="3" fill="#2563eb"></circle><circle class="dot" cx="136.67318982387474" cy="170" r="3" fill="#2563eb"></circle><circle class="dot" cx="138.08219178082192" cy="170" r="3" fill="#2563eb"></circle><circle class="dot" cx="139.49119373776907" cy="170" r="3" fill="#2563eb"></circle><circle class="dot" cx="140.90019569471625" cy="170" r="3" fill="#2563eb"></circle><circle class="dot" cx="142.3091976516634" cy="170" r="3" fill="#2563eb"></circle><circle class="dot" cx="143.71819960861055" cy="170" r="3" fill="#2563eb"></circle><circle class="dot" cx="145.12720156555773" cy="170" r="3" fill="#2563eb"></circle><circle class="dot" cx="146.53620352250488" cy="170" r="3" fill="#2563eb"></circle><circle class="dot" cx="147.94520547945206" cy="170" r="3" fill="#2563eb"></circle><circle class="dot" cx="149.3542074363992" cy="170" r="3" fill="#2563eb"></circle><circle class="dot" cx="150.76320939334636" cy="170" r="3" fill="#2563eb"></circle><circle class="dot" cx="152.17221135029354" cy="170" r="3" fill="#2563eb"></circle><circle class="dot" cx="153.5812133072407" cy="170" r="3" fill="#2563eb"></circle><circle class="dot" cx="154.99021526418787" cy="170" r="3" fill="#2563eb"></circle><circle class="dot" cx="156.39921722113502" cy="170" r="3" fill="#2563eb"></circle><circle class="dot" cx="157.8082191780822" cy="170" r="3" fill="#2563eb"></circle><circle class="dot" cx="159.21722113502935" cy="170" r="3" fill="#2563eb"></circle><circle class="dot" cx="160.6262230919765" cy="170" r="3" fill="#2563eb"></circle><circle class="dot" cx="162.03522504892368" cy="170" r="3" fill="#2563eb"></circle><circle class="dot" cx="163.44422700587083" cy="170" r="3" fill="#2563eb"></circle><circle class="dot" cx="164.853228962818" cy="170" r="3" fill="#2563eb"></circle><circle class="dot" cx="166.26223091976516" cy="170" r="3" fill="#2563eb"></circle><circle class="dot" cx="167.6712328767123" cy="170" r="3" fill="#2563eb"></circle><circle class="dot" cx="169.0802348336595" cy="170" r="3" fill="#2563eb"></circle><circle class="dot" cx="170.48923679060664" cy="170" r="3" fill="#2563eb"></circle><circle class="dot" cx="171.89823874755382" cy="170" r="3" fill="#2563eb"></circle><circle class="dot" cx="173.30724070450097" cy="170" r="3" fill="#2563eb"></circle><circle class="dot" cx="174.71624266144812" cy="170" r="3" fill="#2563eb"></circle><circle class="dot" cx="176.1252446183953" cy="170" r="3" fill="#2563eb"></circle><circle class="dot" cx="177.53424657534245" cy="170" r="3" fill="#2563eb"></circle><circle class="dot" cx="178.94324853228963" cy="170" r="3" fill="#2563eb"></circle><circle class="dot" cx="180.35225048923678" cy="170" r="3" fill="#2563eb"></circle><circle class="dot" cx="181.76125244618393" cy="170" r="3" fill="#2563eb"></circle><circle class="dot" cx="183.1702544031311" cy="170" r="3" fill="#2563eb"></circle><circle class="dot" cx="184.57925636007826" cy="170" r="3" fill="#2563eb"></circle><circle class="dot" cx="185.98825831702544" cy="170" r="3" fill="#2563eb"></circle><circle class="dot" cx="187.3972602739726" cy="170" r="3" fill="#2563eb"></circle><circle class="dot" cx="188.80626223091974" cy="170" r="3" fill="#2563eb"></circle><circle class="dot" cx="190.21526418786692" cy="170" r="3" fill="#2563eb"></circle><circle class="dot" cx="191.62426614481407" cy="170" r="3" fill="#2563eb"></circle><circle class="dot" cx="193.03326810176125" cy="170" r="3" fill="#2563eb"></circle><circle class="dot" cx="194.4422700587084" cy="170" r="3" fill="#2563eb"></circle><circle class="dot" cx="195.85127201565555" cy="170" r="3" fill="#2563eb"></circle><circle class="dot" cx="197.26027397260273" cy="170" r="3" fill="#2563eb"></circle><circle class="dot" cx="198.66927592954988" cy="170" r="3" fill="#2563eb"></circle><circle class="dot" cx="200.07827788649706" cy="170" r="3" fill="#2563eb"></circle><circle class="dot" cx="201.4872798434442" cy="170" r="3" fill="#2563eb"></circle><circle class="dot" cx="202.89628180039136" cy="170" r="3" fill="#2563eb"></circle><circle class="dot" cx="204.30528375733854" cy="170" r="3" fill="#2563eb"></circle><circle class="dot" cx="205.7142857142857" cy="170" r="3" fill="#2563eb"></circle><circle class="dot" cx="207.12328767123287" cy="170" r="3" fill="#2563eb"></circle><circle class="dot" cx="208.53228962818002" cy="170" r="3" fill="#2563eb"></circle><circle class="dot" cx="209.9412915851272" cy="170" r="3" fill="#2563eb"></circle><circle class="dot" cx="211.35029354207435" cy="170" r="3" fill="#2563eb"></circle><circle class="dot" cx="212.7592954990215" cy="170" r="3" fill="#2563eb"></circle><circle class="dot" cx="214.16829745596868" cy="170" r="3" fill="#2563eb"></circle><circle class="dot" cx="215.57729941291583" cy="170" r="3" fill="#2563eb"></circle><circle class="dot" cx="216.986301369863" cy="170" r="3" fill="#2563eb"></circle><circle class="dot" cx="218.39530332681016" cy="170" r="3" fill="#2563eb"></circle><circle class="dot" cx="219.80430528375732" cy="170" r="3" fill="#2563eb"></circle><circle class="dot" cx="221.2133072407045" cy="170" r="3" fill="#2563eb"></circle><circle class="dot" cx="222.62230919765165" cy="170" r="3" fill="#2563eb"></circle><circle class="dot" cx="224.03131115459882" cy="170" r="3" fill="#2563eb"></circle><circle class="dot" cx="225.44031311154598" cy="170" r="3" fill="#2563eb"></circle><circle class="dot" cx="226.84931506849313" cy="170" r="3" fill="#2563eb"></circle><circle class="dot" cx="228.2583170254403" cy="170" r="3" fill="#2563eb"></circle><circle class="dot" cx="229.66731898238746" cy="170" r="3" fill="#2563eb"></circle><circle class="dot" cx="231.07632093933464" cy="170" r="3" fill="#2563eb"></circle><circle class="dot" cx="232.4853228962818" cy="170" r="3" fill="#2563eb"></circle><circle class="dot" cx="233.89432485322894" cy="170" r="3" fill="#2563eb"></circle><circle class="dot" cx="235.30332681017612" cy="170" r="3" fill="#2563eb"></circle><circle class="dot" cx="236.71232876712327" cy="170" r="3" fill="#2563eb"></circle><circle class="dot" cx="238.12133072407045" cy="170" r="3" fill="#2563eb"></circle><circle class="dot" cx="239.5303326810176" cy="170" r="3" fill="#2563eb"></circle><circle class="dot" cx="240.93933463796475" cy="170" r="3" fill="#2563eb"></circle><circle class="dot" cx="242.34833659491193" cy="170" r="3" fill="#2563eb"></circle><circle class="dot" cx="243.75733855185908" cy="170" r="3" fill="#2563eb"></circle><circle class="dot" cx="245.16634050880626" cy="170" r="3" fill="#2563eb"></circle><circle class="dot" cx="246.5753424657534" cy="170" r="3" fill="#2563eb"></circle><circle class="dot" cx="247.9843444227006" cy="170" r="3" fill="#2563eb"></circle><circle class="dot" cx="249.39334637964774" cy="170" r="3" fill="#2563eb"></circle><circle class="dot" cx="250.8023483365949" cy="170" r="3" fill="#2563eb"></circle><circle class="dot" cx="252.21135029354207" cy="170" r="3" fill="#2563eb"></circle><circle class="dot" cx="253.62035225048922" cy="170" r="3" fill="#2563eb"></circle><circle class="dot" cx="255.0293542074364" cy="170" r="3" fill="#2563eb"></circle><circle class="dot" cx="256.43835616438355" cy="170" r="3" fill="#2563eb"></circle><circle class="dot" cx="257.8473581213307" cy="170" r="3" fill="#2563eb"></circle><circle class="dot" cx="259.25636007827785" cy="170" r="3" fill="#2563eb"></circle><circle class="dot" cx="260.66536203522503" cy="170" r="3" fill="#2563eb"></circle><circle class="dot" cx="262.0743639921722" cy="170" r="3" fill="#2563eb"></circle><circle class="dot" cx="263.48336594911933" cy="170" r="3" fill="#2563eb"></circle><circle class="dot" cx="264.8923679060665" cy="170" r="3" fill="#2563eb"></circle><circle class="dot" cx="266.3013698630137" cy="170" r="3" fill="#2563eb"></circle><circle class="dot" cx="267.71037181996087" cy="170" r="3" fill="#2563eb"></circle><circle class="dot" cx="269.119373776908" cy="170" r="3" fill="#2563eb"></circle><circle class="dot" cx="270.52837573385517" cy="170" r="3" fill="#2563eb"></circle><circle class="dot" cx="271.93737769080235" cy="170" r="3" fill="#2563eb"></circle><circle class="dot" cx="273.3463796477495" cy="170" r="3" fill="#2563eb"></circle><circle class="dot" cx="274.75538160469665" cy="170" r="3" fill="#2563eb"></circle><circle class="dot" cx="276.16438356164383" cy="170" r="3" fill="#2563eb"></circle><circle class="dot" cx="277.573385518591" cy="170" r="3" fill="#2563eb"></circle><circle class="dot" cx="278.98238747553813" cy="170" r="3" fill="#2563eb"></circle><circle class="dot" cx="280.3913894324853" cy="170" r="3" fill="#2563eb"></circle><circle class="dot" cx="281.8003913894325" cy="170" r="3" fill="#2563eb"></circle><circle class="dot" cx="283.2093933463796" cy="170" r="3" fill="#2563eb"></circle><circle class="dot" cx="284.6183953033268" cy="170" r="3" fill="#2563eb"></circle><circle class="dot" cx="286.027397260274" cy="170" r="3" fill="#2563eb"></circle><circle class="dot" cx="287.4363992172211" cy="170" r="3" fill="#2563eb"></circle><circle class="dot" cx="288.8454011741683" cy="170" r="3" fill="#2563eb"></circle><circle class="dot" cx="290.25440313111545" cy="170" r="3" fill="#2563eb"></circle><circle class="dot" cx="291.66340508806263" cy="170" r="3" fill="#2563eb"></circle><circle class="dot" cx="293.07240704500975" cy="170" r="3" fill="#2563eb"></circle><circle class="dot" cx="294.48140900195693" cy="170" r="3" fill="#2563eb"></circle><circle class="dot" cx="295.8904109589041" cy="170" r="3" fill="#2563eb"></circle><circle class="dot" cx="297.29941291585124" cy="170" r="3" fill="#2563eb"></circle><circle class="dot" cx="298.7084148727984" cy="170" r="3" fill="#2563eb"></circle><circle class="dot" cx="300.1174168297456" cy="170" r="3" fill="#2563eb"></circle><circle class="dot" cx="301.5264187866927" cy="170" r="3" fill="#2563eb"></circle><circle class="dot" cx="302.9354207436399" cy="170" r="3" fill="#2563eb"></circle><circle class="dot" cx="304.3444227005871" cy="170" r="3" fill="#2563eb"></circle><circle class="dot" cx="305.75342465753425" cy="170" r="3" fill="#2563eb"></circle><circle class="dot" cx="307.1624266144814" cy="170" r="3" fill="#2563eb"></circle><circle class="dot" cx="308.57142857142856" cy="170" r="3" fill="#2563eb"></circle><circle class="dot" cx="309.98043052837573" cy="170" r="3" fill="#2563eb"></circle><circle class="dot" cx="311.38943248532286" cy="170" r="3" fill="#2563eb"></circle><circle class="dot" cx="312.79843444227004" cy="170" r="3" fill="#2563eb"></circle><circle class="dot" cx="314.2074363992172" cy="170" r="3" fill="#2563eb"></circle><circle class="dot" cx="315.6164383561644" cy="170" r="3" fill="#2563eb"></circle><circle class="dot" cx="317.0254403131115" cy="170" r="3" fill="#2563eb"></circle><circle class="dot" cx="318.4344422700587" cy="170" r="3" fill="#2563eb"></circle><circle class="dot" cx="319.8434442270059" cy="170" r="3" fill="#2563eb"></circle><circle class="dot" cx="321.252446183953" cy="170" r="3" fill="#2563eb"></circle><circle class="dot" cx="322.6614481409002" cy="170" r="3" fill="#2563eb"></circle><circle class="dot" cx="324.07045009784736" cy="170" r="3" fill="#2563eb"></circle><circle class="dot" cx="325.4794520547945" cy="170" r="3" fill="#2563eb"></circle><circle class="dot" cx="326.88845401174166" cy="170" r="3" fill="#2563eb"></circle><circle class="dot" cx="328.29745596868884" cy="170" r="3" fill="#2563eb"></circle><circle class="dot" cx="329.706457925636" cy="170" r="3" fill="#2563eb"></circle><circle class="dot" cx="331.11545988258314" cy="170" r="3" fill="#2563eb"></circle><circle class="dot" cx="332.5244618395303" cy="170" r="3" fill="#2563eb"></circle><circle class="dot" cx="333.9334637964775" cy="170" r="3" fill="#2563eb"></circle><circle class="dot" cx="335.3424657534246" cy="170" r="3" fill="#2563eb"></circle><circle class="dot" cx="336.7514677103718" cy="170" r="3" fill="#2563eb"></circle><circle class="dot" cx="338.160469667319" cy="170" r="3" fill="#2563eb"></circle><circle class="dot" cx="339.5694716242661" cy="170" r="3" fill="#2563eb"></circle><circle class="dot" cx="340.9784735812133" cy="170" r="3" fill="#2563eb"></circle><circle class="dot" cx="342.38747553816046" cy="170" r="3" fill="#2563eb"></circle><circle class="dot" cx="343.79647749510764" cy="170" r="3" fill="#2563eb"></circle><circle class="dot" cx="345.20547945205476" cy="170" r="3" fill="#2563eb"></circle><circle class="dot" cx="346.61448140900194" cy="170" r="3" fill="#2563eb"></circle><circle class="dot" cx="348.0234833659491" cy="170" r="3" fill="#2563eb"></circle><circle class="dot" cx="349.43248532289624" cy="170" r="3" fill="#2563eb"></circle><circle class="dot" cx="350.8414872798434" cy="170" r="3" fill="#2563eb"></circle><circle class="dot" cx="352.2504892367906" cy="170" r="3" fill="#2563eb"></circle><circle class="dot" cx="353.6594911937377" cy="170" r="3" fill="#2563eb"></circle><circle class="dot" cx="355.0684931506849" cy="170" r="3" fill="#2563eb"></circle><circle class="dot" cx="356.4774951076321" cy="170" r="3" fill="#2563eb"></circle><circle class="dot" cx="357.88649706457926" cy="170" r="3" fill="#2563eb"></circle><circle class="dot" cx="359.2954990215264" cy="170" r="3" fill="#2563eb"></circle><circle class="dot" cx="360.70450097847356" cy="170" r="3" fill="#2563eb"></circle><circle class="dot" cx="362.11350293542074" cy="170" r="3" fill="#2563eb"></circle><circle class="dot" cx="363.52250489236786" cy="170" r="3" fill="#2563eb"></circle><circle class="dot" cx="364.9315068493151" cy="170" r="3" fill="#2563eb"></circle><circle class="dot" cx="366.3405088062622" cy="170" r="3" fill="#2563eb"></circle><circle class="dot" cx="367.7495107632094" cy="170" r="3" fill="#2563eb"></circle><circle class="dot" cx="369.1585127201565" cy="170" r="3" fill="#2563eb"></circle><circle class="dot" cx="370.56751467710376" cy="170" r="3" fill="#2563eb"></circle><circle class="dot" cx="371.9765166340509" cy="170" r="3" fill="#2563eb"></circle><circle class="dot" cx="373.38551859099806" cy="170" r="3" fill="#2563eb"></circle><circle class="dot" cx="374.7945205479452" cy="170" r="3" fill="#2563eb"></circle><circle class="dot" cx="376.20352250489236" cy="170" r="3" fill="#2563eb"></circle><circle class="dot" cx="377.6125244618395" cy="170" r="3" fill="#2563eb"></circle><circle class="dot" cx="379.0215264187867" cy="170" r="3" fill="#2563eb"></circle><circle class="dot" cx="380.43052837573384" cy="170" r="3" fill="#2563eb"></circle><circle class="dot" cx="381.839530332681" cy="170" r="3" fill="#2563eb"></circle><circle class="dot" cx="383.24853228962814" cy="170" r="3" fill="#2563eb"></circle><circle class="dot" cx="384.6575342465754" cy="170" r="3" fill="#2563eb"></circle><circle class="dot" cx="386.0665362035225" cy="170" r="3" fill="#2563eb"></circle><circle class="dot" cx="387.4755381604697" cy="170" r="3" fill="#2563eb"></circle><circle class="dot" cx="388.8845401174168" cy="170" r="3" fill="#2563eb"></circle><circle class="dot" cx="390.293542074364" cy="170" r="3" fill="#2563eb"></circle><circle class="dot" cx="391.7025440313111" cy="170" r="3" fill="#2563eb"></circle><circle class="dot" cx="393.11154598825834" cy="170" r="3" fill="#2563eb"></circle><circle class="dot" cx="394.52054794520546" cy="170" r="3" fill="#2563eb"></circle><circle class="dot" cx="395.92954990215264" cy="170" r="3" fill="#2563eb"></circle><circle class="dot" cx="397.33855185909977" cy="170" r="3" fill="#2563eb"></circle><circle class="dot" cx="398.747553816047" cy="170" r="3" fill="#2563eb"></circle><circle class="dot" cx="400.1565557729941" cy="170" r="3" fill="#2563eb"></circle><circle class="dot" cx="401.5655577299413" cy="170" r="3" fill="#2563eb"></circle><circle class="dot" cx="402.9745596868884" cy="170" r="3" fill="#2563eb"></circle><circle class="dot" cx="404.3835616438356" cy="170" r="3" fill="#2563eb"></circle><circle class="dot" cx="405.7925636007827" cy="170" r="3" fill="#2563eb"></circle><circle class="dot" cx="407.20156555772996" cy="170" r="3" fill="#2563eb"></circle><circle class="dot" cx="408.6105675146771" cy="170" r="3" fill="#2563eb"></circle><circle class="dot" cx="410.01956947162427" cy="170" r="3" fill="#2563eb"></circle><circle class="dot" cx="411.4285714285714" cy="170" r="3" fill="#2563eb"></circle><circle class="dot" cx="412.8375733855186" cy="170" r="3" fill="#2563eb"></circle><circle class="dot" cx="414.24657534246575" cy="170" r="3" fill="#2563eb"></circle><circle class="dot" cx="415.6555772994129" cy="170" r="3" fill="#2563eb"></circle><circle class="dot" cx="417.06457925636005" cy="170" r="3" fill="#2563eb"></circle><circle class="dot" cx="418.4735812133073" cy="170" r="3" fill="#2563eb"></circle><circle class="dot" cx="419.8825831702544" cy="170" r="3" fill="#2563eb"></circle><circle class="dot" cx="421.2915851272016" cy="170" r="3" fill="#2563eb"></circle><circle class="dot" cx="422.7005870841487" cy="170" r="3" fill="#2563eb"></circle><circle class="dot" cx="424.1095890410959" cy="170" r="3" fill="#2563eb"></circle><circle class="dot" cx="425.518590998043" cy="170" r="3" fill="#2563eb"></circle><circle class="dot" cx="426.92759295499025" cy="170" r="3" fill="#2563eb"></circle><circle class="dot" cx="428.33659491193737" cy="170" r="3" fill="#2563eb"></circle><circle class="dot" cx="429.74559686888455" cy="170" r="3" fill="#2563eb"></circle><circle class="dot" cx="431.15459882583167" cy="170" r="3" fill="#2563eb"></circle><circle class="dot" cx="432.5636007827789" cy="170" r="3" fill="#2563eb"></circle><circle class="dot" cx="433.972602739726" cy="170" r="3" fill="#2563eb"></circle><circle class="dot" cx="435.3816046966732" cy="170" r="3" fill="#2563eb"></circle><circle class="dot" cx="436.79060665362033" cy="170" r="3" fill="#2563eb"></circle><circle class="dot" cx="438.1996086105675" cy="170" r="3" fill="#2563eb"></circle><circle class="dot" cx="439.60861056751463" cy="170" r="3" fill="#2563eb"></circle><circle class="dot" cx="441.01761252446187" cy="170" r="3" fill="#2563eb"></circle><circle class="dot" cx="442.426614481409" cy="170" r="3" fill="#2563eb"></circle><circle class="dot" cx="443.83561643835617" cy="170" r="3" fill="#2563eb"></circle><circle class="dot" cx="445.2446183953033" cy="170" r="3" fill="#2563eb"></circle><circle class="dot" cx="446.6536203522505" cy="170" r="3" fill="#2563eb"></circle><circle class="dot" cx="448.06262230919765" cy="170" r="3" fill="#2563eb"></circle><circle class="dot" cx="449.47162426614483" cy="170" r="3" fill="#2563eb"></circle><circle class="dot" cx="450.88062622309195" cy="170" r="3" fill="#2563eb"></circle><circle class="dot" cx="452.28962818003913" cy="170" r="3" fill="#2563eb"></circle><circle class="dot" cx="453.69863013698625" cy="170" r="3" fill="#2563eb"></circle><circle class="dot" cx="455.1076320939335" cy="170" r="3" fill="#2563eb"></circle><circle class="dot" cx="456.5166340508806" cy="170" r="3" fill="#2563eb"></circle><circle class="dot" cx="457.9256360078278" cy="170" r="3" fill="#2563eb"></circle><circle class="dot" cx="459.3346379647749" cy="170" r="3" fill="#2563eb"></circle><circle class="dot" cx="460.74363992172215" cy="170" r="3" fill="#2563eb"></circle><circle class="dot" cx="462.1526418786693" cy="170" r="3" fill="#2563eb"></circle><circle class="dot" cx="463.56164383561645" cy="170" r="3" fill="#2563eb"></circle><circle class="dot" cx="464.9706457925636" cy="170" r="3" fill="#2563eb"></circle><circle class="dot" cx="466.37964774951075" cy="170" r="3" fill="#2563eb"></circle><circle class="dot" cx="467.7886497064579" cy="170" r="3" fill="#2563eb"></circle><circle class="dot" cx="469.1976516634051" cy="170" r="3" fill="#2563eb"></circle><circle class="dot" cx="470.60665362035223" cy="170" r="3" fill="#2563eb"></circle><circle class="dot" cx="472.0156555772994" cy="170" r="3" fill="#2563eb"></circle><circle class="dot" cx="473.42465753424653" cy="170" r="3" fill="#2563eb"></circle><circle class="dot" cx="474.83365949119377" cy="170" r="3" fill="#2563eb"></circle><circle class="dot" cx="476.2426614481409" cy="170" r="3" fill="#2563eb"></circle><circle class="dot" cx="477.6516634050881" cy="170" r="3" fill="#2563eb"></circle><circle class="dot" cx="479.0606653620352" cy="170" r="3" fill="#2563eb"></circle><circle class="dot" cx="480.4696673189824" cy="170" r="3" fill="#2563eb"></circle><circle class="dot" cx="481.8786692759295" cy="170" r="3" fill="#2563eb"></circle><circle class="dot" cx="483.28767123287673" cy="170" r="3" fill="#2563eb"></circle><circle class="dot" cx="484.69667318982385" cy="170" r="3" fill="#2563eb"></circle><circle class="dot" cx="486.10567514677103" cy="170" r="3" fill="#2563eb"></circle><circle class="dot" cx="487.51467710371816" cy="170" r="3" fill="#2563eb"></circle><circle class="dot" cx="488.9236790606654" cy="170" r="3" fill="#2563eb"></circle><circle class="dot" cx="490.3326810176125" cy="170" r="3" fill="#2563eb"></circle><circle class="dot" cx="491.7416829745597" cy="170" r="3" fill="#2563eb"></circle><circle class="dot" cx="493.1506849315068" cy="170" r="3" fill="#2563eb"></circle><circle class="dot" cx="494.55968688845405" cy="170" r="3" fill="#2563eb"></circle><circle class="dot" cx="495.9686888454012" cy="170" r="3" fill="#2563eb"></circle><circle class="dot" cx="497.37769080234835" cy="170" r="3" fill="#2563eb"></circle><circle class="dot" cx="498.7866927592955" cy="170" r="3" fill="#2563eb"></circle><circle class="dot" cx="500.19569471624266" cy="170" r="3" fill="#2563eb"></circle><circle class="dot" cx="501.6046966731898" cy="170" r="3" fill="#2563eb"></circle><circle class="dot" cx="503.013698630137" cy="170" r="3" fill="#2563eb"></circle><circle class="dot" cx="504.42270058708414" cy="170" r="3" fill="#2563eb"></circle><circle class="dot" cx="505.8317025440313" cy="170" r="3" fill="#2563eb"></circle><circle class="dot" cx="507.24070450097844" cy="170" r="3" fill="#2563eb"></circle><circle class="dot" cx="508.6497064579257" cy="170" r="3" fill="#2563eb"></circle><circle class="dot" cx="510.0587084148728" cy="170" r="3" fill="#2563eb"></circle><circle class="dot" cx="511.46771037182" cy="170" r="3" fill="#2563eb"></circle><circle class="dot" cx="512.8767123287671" cy="170" r="3" fill="#2563eb"></circle><circle class="dot" cx="514.2857142857143" cy="170" r="3" fill="#2563eb"></circle><circle class="dot" cx="515.6947162426615" cy="170" r="3" fill="#2563eb"></circle><circle class="dot" cx="517.1037181996086" cy="170" r="3" fill="#2563eb"></circle><circle class="dot" cx="518.5127201565557" cy="170" r="3" fill="#2563eb"></circle><circle class="dot" cx="519.9217221135029" cy="170" r="3" fill="#2563eb"></circle><circle class="dot" cx="521.3307240704501" cy="170" r="3" fill="#2563eb"></circle><circle class="dot" cx="522.7397260273973" cy="170" r="3" fill="#2563eb"></circle><circle class="dot" cx="524.1487279843444" cy="170" r="3" fill="#2563eb"></circle><circle class="dot" cx="525.5577299412915" cy="170" r="3" fill="#2563eb"></circle><circle class="dot" cx="526.9667318982387" cy="170" r="3" fill="#2563eb"></circle><circle class="dot" cx="528.3757338551859" cy="170" r="3" fill="#2563eb"></circle><circle class="dot" cx="529.784735812133" cy="170" r="3" fill="#2563eb"></circle><circle class="dot" cx="531.1937377690803" cy="170" r="3" fill="#2563eb"></circle><circle class="dot" cx="532.6027397260274" cy="170" r="3" fill="#2563eb"></circle><circle class="dot" cx="534.0117416829746" cy="170" r="3" fill="#2563eb"></circle><circle class="dot" cx="535.4207436399217" cy="170" r="3" fill="#2563eb"></circle><circle class="dot" cx="536.8297455968689" cy="170" r="3" fill="#2563eb"></circle><circle class="dot" cx="538.238747553816" cy="170" r="3" fill="#2563eb"></circle><circle class="dot" cx="539.6477495107632" cy="170" r="3" fill="#2563eb"></circle><circle class="dot" cx="541.0567514677103" cy="170" r="3" fill="#2563eb"></circle><circle class="dot" cx="542.4657534246576" cy="170" r="3" fill="#2563eb"></circle><circle class="dot" cx="543.8747553816047" cy="170" r="3" fill="#2563eb"></circle><circle class="dot" cx="545.2837573385518" cy="170" r="3" fill="#2563eb"></circle><circle class="dot" cx="546.692759295499" cy="170" r="3" fill="#2563eb"></circle><circle class="dot" cx="548.1017612524462" cy="170" r="3" fill="#2563eb"></circle><circle class="dot" cx="549.5107632093933" cy="170" r="3" fill="#2563eb"></circle><circle class="dot" cx="550.9197651663405" cy="170" r="3" fill="#2563eb"></circle><circle class="dot" cx="552.3287671232877" cy="170" r="3" fill="#2563eb"></circle><circle class="dot" cx="553.7377690802349" cy="170" r="3" fill="#2563eb"></circle><circle class="dot" cx="555.146771037182" cy="170" r="3" fill="#2563eb"></circle><circle class="dot" cx="556.5557729941291" cy="170" r="3" fill="#2563eb"></circle><circle class="dot" cx="557.9647749510763" cy="170" r="3" fill="#2563eb"></circle><circle class="dot" cx="559.3737769080235" cy="170" r="3" fill="#2563eb"></circle><circle class="dot" cx="560.7827788649706" cy="170" r="3" fill="#2563eb"></circle><circle class="dot" cx="562.1917808219179" cy="170" r="3" fill="#2563eb"></circle><circle class="dot" cx="563.600782778865" cy="170" r="3" fill="#2563eb"></circle><circle class="dot" cx="565.0097847358121" cy="170" r="3" fill="#2563eb"></circle><circle class="dot" cx="566.4187866927592" cy="170" r="3" fill="#2563eb"></circle><circle class="dot" cx="567.8277886497065" cy="170" r="3" fill="#2563eb"></circle><circle class="dot" cx="569.2367906066536" cy="170" r="3" fill="#2563eb"></circle><circle class="dot" cx="570.6457925636008" cy="170" r="3" fill="#2563eb"></circle><circle class="dot" cx="572.054794520548" cy="170" r="3" fill="#2563eb"></circle><circle class="dot" cx="573.4637964774951" cy="170" r="3" fill="#2563eb"></circle><circle class="dot" cx="574.8727984344422" cy="170" r="3" fill="#2563eb"></circle><circle class="dot" cx="576.2818003913894" cy="170" r="3" fill="#2563eb"></circle><circle class="dot" cx="577.6908023483365" cy="170" r="3" fill="#2563eb"></circle><circle class="dot" cx="579.0998043052838" cy="170" r="3" fill="#2563eb"></circle><circle class="dot" cx="580.5088062622309" cy="170" r="3" fill="#2563eb"></circle><circle class="dot" cx="581.9178082191781" cy="170" r="3" fill="#2563eb"></circle><circle class="dot" cx="583.3268101761253" cy="170" r="3" fill="#2563eb"></circle><circle class="dot" cx="584.7358121330724" cy="170" r="3" fill="#2563eb"></circle><circle class="dot" cx="586.1448140900195" cy="170" r="3" fill="#2563eb"></circle><circle class="dot" cx="587.5538160469667" cy="170" r="3" fill="#2563eb"></circle><circle class="dot" cx="588.9628180039139" cy="170" r="3" fill="#2563eb"></circle><circle class="dot" cx="590.3718199608611" cy="170" r="3" fill="#2563eb"></circle><circle class="dot" cx="591.7808219178082" cy="170" r="3" fill="#2563eb"></circle><circle class="dot" cx="593.1898238747553" cy="170" r="3" fill="#2563eb"></circle><circle class="dot" cx="594.5988258317025" cy="170" r="3" fill="#2563eb"></circle><circle class="dot" cx="596.0078277886497" cy="170" r="3" fill="#2563eb"></circle><circle class="dot" cx="597.4168297455968" cy="170" r="3" fill="#2563eb"></circle><circle class="dot" cx="598.8258317025441" cy="170" r="3" fill="#2563eb"></circle><circle class="dot" cx="600.2348336594912" cy="170" r="3" fill="#2563eb"></circle><circle class="dot" cx="601.6438356164383" cy="170" r="3" fill="#2563eb"></circle><circle class="dot" cx="603.0528375733854" cy="170" r="3" fill="#2563eb"></circle><circle class="dot" cx="604.4618395303327" cy="170" r="3" fill="#2563eb"></circle><circle class="dot" cx="605.8708414872798" cy="170" r="3" fill="#2563eb"></circle><circle class="dot" cx="607.279843444227" cy="170" r="3" fill="#2563eb"></circle><circle class="dot" cx="608.6888454011741" cy="170" r="3" fill="#2563eb"></circle><circle class="dot" cx="610.0978473581214" cy="170" r="3" fill="#2563eb"></circle><circle class="dot" cx="611.5068493150685" cy="170" r="3" fill="#2563eb"></circle><circle class="dot" cx="612.9158512720156" cy="170" r="3" fill="#2563eb"></circle><circle class="dot" cx="614.3248532289628" cy="170" r="3" fill="#2563eb"></circle><circle class="dot" cx="615.73385518591" cy="170" r="3" fill="#2563eb"></circle><circle class="dot" cx="617.1428571428571" cy="170" r="3" fill="#2563eb"></circle><circle class="dot" cx="618.5518590998043" cy="170" r="3" fill="#2563eb"></circle><circle class="dot" cx="619.9608610567515" cy="170" r="3" fill="#2563eb"></circle><circle class="dot" cx="621.3698630136986" cy="170" r="3" fill="#2563eb"></circle><circle class="dot" cx="622.7788649706457" cy="170" r="3" fill="#2563eb"></circle><circle class="dot" cx="624.187866927593" cy="170" r="3" fill="#2563eb"></circle><circle class="dot" cx="625.5968688845401" cy="170" r="3" fill="#2563eb"></circle><circle class="dot" cx="627.0058708414873" cy="170" r="3" fill="#2563eb"></circle><circle class="dot" cx="628.4148727984344" cy="170" r="3" fill="#2563eb"></circle><circle class="dot" cx="629.8238747553817" cy="170" r="3" fill="#2563eb"></circle><circle class="dot" cx="631.2328767123288" cy="170" r="3" fill="#2563eb"></circle><circle class="dot" cx="632.6418786692759" cy="170" r="3" fill="#2563eb"></circle><circle class="dot" cx="634.050880626223" cy="170" r="3" fill="#2563eb"></circle><circle class="dot" cx="635.4598825831703" cy="170" r="3" fill="#2563eb"></circle><circle class="dot" cx="636.8688845401174" cy="170" r="3" fill="#2563eb"></circle><circle class="dot" cx="638.2778864970646" cy="170" r="3" fill="#2563eb"></circle><circle class="dot" cx="639.6868884540118" cy="170" r="3" fill="#2563eb"></circle><circle class="dot" cx="641.0958904109589" cy="170" r="3" fill="#2563eb"></circle><circle class="dot" cx="642.504892367906" cy="170" r="3" fill="#2563eb"></circle><circle class="dot" cx="643.9138943248532" cy="170" r="3" fill="#2563eb"></circle><circle class="dot" cx="645.3228962818004" cy="170" r="3" fill="#2563eb"></circle><circle class="dot" cx="646.7318982387476" cy="170" r="3" fill="#2563eb"></circle><circle class="dot" cx="648.1409001956947" cy="170" r="3" fill="#2563eb"></circle><circle class="dot" cx="649.5499021526418" cy="170" r="3" fill="#2563eb"></circle><circle class="dot" cx="650.958904109589" cy="170" r="3" fill="#2563eb"></circle><circle class="dot" cx="652.3679060665362" cy="170" r="3" fill="#2563eb"></circle><circle class="dot" cx="653.7769080234833" cy="170" r="3" fill="#2563eb"></circle><circle class="dot" cx="655.1859099804306" cy="170" r="3" fill="#2563eb"></circle><circle class="dot" cx="656.5949119373777" cy="170" r="3" fill="#2563eb"></circle><circle class="dot" cx="658.0039138943249" cy="170" r="3" fill="#2563eb"></circle><circle class="dot" cx="659.412915851272" cy="170" r="3" fill="#2563eb"></circle><circle class="dot" cx="660.8219178082192" cy="170" r="3" fill="#2563eb"></circle><circle class="dot" cx="662.2309197651663" cy="170" r="3" fill="#2563eb"></circle><circle class="dot" cx="663.6399217221135" cy="170" r="3" fill="#2563eb"></circle><circle class="dot" cx="665.0489236790606" cy="170" r="3" fill="#2563eb"></circle><circle class="dot" cx="666.4579256360079" cy="170" r="3" fill="#2563eb"></circle><circle class="dot" cx="667.866927592955" cy="170" r="3" fill="#2563eb"></circle><circle class="dot" cx="669.2759295499021" cy="170" r="3" fill="#2563eb"></circle><circle class="dot" cx="670.6849315068492" cy="170" r="3" fill="#2563eb"></circle><circle class="dot" cx="672.0939334637965" cy="170" r="3" fill="#2563eb"></circle><circle class="dot" cx="673.5029354207436" cy="170" r="3" fill="#2563eb"></circle><circle class="dot" cx="674.9119373776908" cy="170" r="3" fill="#2563eb"></circle><circle class="dot" cx="676.320939334638" cy="170" r="3" fill="#2563eb"></circle><circle class="dot" cx="677.7299412915851" cy="170" r="3" fill="#2563eb"></circle><circle class="dot" cx="679.1389432485322" cy="170" r="3" fill="#2563eb"></circle><circle class="dot" cx="680.5479452054794" cy="170" r="3" fill="#2563eb"></circle><circle class="dot" cx="681.9569471624266" cy="170" r="3" fill="#2563eb"></circle><circle class="dot" cx="683.3659491193738" cy="170" r="3" fill="#2563eb"></circle><circle class="dot" cx="684.7749510763209" cy="170" r="3" fill="#2563eb"></circle><circle class="dot" cx="686.1839530332682" cy="170" r="3" fill="#2563eb"></circle><circle class="dot" cx="687.5929549902153" cy="170" r="3" fill="#2563eb"></circle><circle class="dot" cx="689.0019569471624" cy="170" r="3" fill="#2563eb"></circle><circle class="dot" cx="690.4109589041095" cy="170" r="3" fill="#2563eb"></circle><circle class="dot" cx="691.8199608610568" cy="170" r="3" fill="#2563eb"></circle><circle class="dot" cx="693.2289628180039" cy="170" r="3" fill="#2563eb"></circle><circle class="dot" cx="694.6379647749511" cy="170" r="3" fill="#2563eb"></circle><circle class="dot" cx="696.0469667318982" cy="170" r="3" fill="#2563eb"></circle><circle class="dot" cx="697.4559686888454" cy="170" r="3" fill="#2563eb"></circle><circle class="dot" cx="698.8649706457925" cy="170" r="3" fill="#2563eb"></circle><circle class="dot" cx="700.2739726027397" cy="170" r="3" fill="#2563eb"></circle><circle class="dot" cx="701.6829745596868" cy="170" r="3" fill="#2563eb"></circle><circle class="dot" cx="703.0919765166341" cy="170" r="3" fill="#2563eb"></circle><circle class="dot" cx="704.5009784735812" cy="170" r="3" fill="#2563eb"></circle><circle class="dot" cx="705.9099804305283" cy="170" r="3" fill="#2563eb"></circle><circle class="dot" cx="707.3189823874754" cy="170" r="3" fill="#2563eb"></circle><circle class="dot" cx="708.7279843444227" cy="170" r="3" fill="#2563eb"></circle><circle class="dot" cx="710.1369863013698" cy="170" r="3" fill="#2563eb"></circle><circle class="dot" cx="711.545988258317" cy="170" r="3" fill="#2563eb"></circle><circle class="dot" cx="712.9549902152642" cy="170" r="3" fill="#2563eb"></circle><circle class="dot" cx="714.3639921722114" cy="170" r="3" fill="#2563eb"></circle><circle class="dot" cx="715.7729941291585" cy="170" r="3" fill="#2563eb"></circle><circle class="dot" cx="717.1819960861056" cy="170" r="3" fill="#2563eb"></circle><circle class="dot" cx="718.5909980430528" cy="170" r="3" fill="#2563eb"></circle><circle class="dot" cx="720" cy="170" r="3" fill="#2563eb"></circle><g class="grid" transform="translate(0,340)" fill="none" font-size="10" font-family="sans-serif" text-anchor="middle" style="stroke-dasharray: 3,3; opacity: 0.3;"><path class="domain" stroke="currentColor" d="M0.5,-340V0.5H720.5V-340"></path><g class="tick" opacity="1" transform="translate(0.5,0)"><line stroke="currentColor" y2="-340"></line><text fill="currentColor" y="3" dy="0.71em"></text></g><g class="tick" opacity="1" transform="translate(34.316046966731896,0)"><line stroke="currentColor" y2="-340"></line><text fill="currentColor" y="3" dy="0.71em"></text></g><g class="tick" opacity="1" transform="translate(68.13209393346379,0)"><line stroke="currentColor" y2="-340"></line><text fill="currentColor" y="3" dy="0.71em"></text></g><g class="tick" opacity="1" transform="translate(101.94814090019568,0)"><line stroke="currentColor" y2="-340"></line><text fill="currentColor" y="3" dy="0.71em"></text></g><g class="tick" opacity="1" transform="translate(135.76418786692759,0)"><line stroke="currentColor" y2="-340"></line><text fill="currentColor" y="3" dy="0.71em"></text></g><g class="tick" opacity="1" transform="translate(169.5802348336595,0)"><line stroke="currentColor" y2="-340"></line><text fill="currentColor" y="3" dy="0.71em"></text></g><g class="tick" opacity="1" transform="translate(203.39628180039136,0)"><line stroke="currentColor" y2="-340"></line><text fill="currentColor" y="3" dy="0.71em"></text></g><g class="tick" opacity="1" transform="translate(237.21232876712327,0)"><line stroke="currentColor" y2="-340"></line><text fill="currentColor" y="3" dy="0.71em"></text></g><g class="tick" opacity="1" transform="translate(271.02837573385517,0)"><line stroke="currentColor" y2="-340"></line><text fill="currentColor" y="3" dy="0.71em"></text></g><g class="tick" opacity="1" transform="translate(304.8444227005871,0)"><line stroke="currentColor" y2="-340"></line><text fill="currentColor" y="3" dy="0.71em"></text></g><g class="tick" opacity="1" transform="translate(338.660469667319,0)"><line stroke="currentColor" y2="-340"></line><text fill="currentColor" y="3" dy="0.71em"></text></g><g class="tick" opacity="1" transform="translate(372.4765166340509,0)"><line stroke="currentColor" y2="-340"></line><text fill="currentColor" y="3" dy="0.71em"></text></g><g class="tick" opacity="1" transform="translate(406.2925636007827,0)"><line stroke="currentColor" y2="-340"></line><text fill="currentColor" y="3" dy="0.71em"></text></g><g class="tick" opacity="1" transform="translate(440.10861056751463,0)"><line stroke="currentColor" y2="-340"></line><text fill="currentColor" y="3" dy="0.71em"></text></g><g class="tick" opacity="1" transform="translate(473.92465753424653,0)"><line stroke="currentColor" y2="-340"></line><text fill="currentColor" y="3" dy="0.71em"></text></g><g class="tick" opacity="1" transform="translate(507.74070450097844,0)"><line stroke="currentColor" y2="-340"></line><text fill="currentColor" y="3" dy="0.71em"></text></g><g class="tick" opacity="1" transform="translate(541.5567514677103,0)"><line stroke="currentColor" y2="-340"></line><text fill="currentColor" y="3" dy="0.71em"></text></g><g class="tick" opacity="1" transform="translate(575.3727984344422,0)"><line stroke="currentColor" y2="-340"></line><text fill="currentColor" y="3" dy="0.71em"></text></g><g class="tick" opacity="1" transform="translate(609.1888454011741,0)"><line stroke="currentColor" y2="-340"></line><text fill="currentColor" y="3" dy="0.71em"></text></g><g class="tick" opacity="1" transform="translate(643.004892367906,0)"><line stroke="currentColor" y2="-340"></line><text fill="currentColor" y="3" dy="0.71em"></text></g><g class="tick" opacity="1" transform="translate(676.820939334638,0)"><line stroke="currentColor" y2="-340"></line><text fill="currentColor" y="3" dy="0.71em"></text></g><g class="tick" opacity="1" transform="translate(710.6369863013698,0)"><line stroke="currentColor" y2="-340"></line><text fill="currentColor" y="3" dy="0.71em"></text></g></g><g class="grid" fill="none" font-size="10" font-family="sans-serif" text-anchor="end" style="stroke-dasharray: 3,3; opacity: 0.3;"><path class="domain" stroke="currentColor" d="M720,340.5H0.5V0.5H720"></path><g class="tick" opacity="1" transform="translate(0,170.5)"><line stroke="currentColor" x2="720"></line><text fill="currentColor" x="-3" dy="0.32em"></text></g></g></g><text x="400" y="10" text-anchor="middle" style="font-size: 16px; font-weight: bold; fill: #333;">OKX USDT Lending Rate - Current Month</text></svg>