<svg width="800" height="400" xmlns="http://www.w3.org/2000/svg"><g transform="translate(50,20)"><g transform="translate(0,340)" fill="none" font-size="10" font-family="sans-serif" text-anchor="middle"><path class="domain" stroke="currentColor" d="M0.5,6V0.5H720.5V6"></path><g class="tick" opacity="1" transform="translate(0.5,0)"><line stroke="currentColor" y2="6"></line><text fill="currentColor" y="9" dy=".15em" style="text-anchor: end;" dx="-.8em" transform="rotate(-45)">11/01</text></g><g class="tick" opacity="1" transform="translate(112.70779220779221,0)"><line stroke="currentColor" y2="6"></line><text fill="currentColor" y="9" dy=".15em" style="text-anchor: end;" dx="-.8em" transform="rotate(-45)">11/02</text></g><g class="tick" opacity="1" transform="translate(224.91558441558442,0)"><line stroke="currentColor" y2="6"></line><text fill="currentColor" y="9" dy=".15em" style="text-anchor: end;" dx="-.8em" transform="rotate(-45)">11/03</text></g><g class="tick" opacity="1" transform="translate(337.1233766233766,0)"><line stroke="currentColor" y2="6"></line><text fill="currentColor" y="9" dy=".15em" style="text-anchor: end;" dx="-.8em" transform="rotate(-45)">11/04</text></g><g class="tick" opacity="1" transform="translate(449.33116883116884,0)"><line stroke="currentColor" y2="6"></line><text fill="currentColor" y="9" dy=".15em" style="text-anchor: end;" dx="-.8em" transform="rotate(-45)">11/05</text></g><g class="tick" opacity="1" transform="translate(561.538961038961,0)"><line stroke="currentColor" y2="6"></line><text fill="currentColor" y="9" dy=".15em" style="text-anchor: end;" dx="-.8em" transform="rotate(-45)">11/06</text></g><g class="tick" opacity="1" transform="translate(673.7467532467532,0)"><line stroke="currentColor" y2="6"></line><text fill="currentColor" y="9" dy=".15em" style="text-anchor: end;" dx="-.8em" transform="rotate(-45)">11/07</text></g></g><g fill="none" font-size="10" font-family="sans-serif" text-anchor="end"><path class="domain" stroke="currentColor" d="M-6,340.5H0.5V0.5H-6"></path><g class="tick" opacity="1" transform="translate(0,340.5)"><line stroke="currentColor" x2="-6"></line><text fill="currentColor" x="-9" dy="0.32em">1.00%</text></g><g class="tick" opacity="1" transform="translate(0,306.5)"><line stroke="currentColor" x2="-6"></line><text fill="currentColor" x="-9" dy="0.32em">1.20%</text></g><g class="tick" opacity="1" transform="translate(0,272.5)"><line stroke="currentColor" x2="-6"></line><text fill="currentColor" x="-9" dy="0.32em">1.40%</text></g><g class="tick" opacity="1" transform="translate(0,238.49999999999997)"><line stroke="currentColor" x2="-6"></line><text fill="currentColor" x="-9" dy="0.32em">1.60%</text></g><g class="tick" opacity="1" transform="translate(0,204.50000000000003)"><line stroke="currentColor" x2="-6"></line><text fill="currentColor" x="-9" dy="0.32em">1.80%</text></g><g class="tick" opacity="1" transform="translate(0,170.49999999999997)"><line stroke="currentColor" x2="-6"></line><text fill="currentColor" x="-9" dy="0.32em">2.00%</text></g><g class="tick" opacity="1" transform="translate(0,136.5)"><line stroke="currentColor" x2="-6"></line><text fill="currentColor" x="-9" dy="0.32em">2.20%</text></g><g class="tick" opacity="1" transform="translate(0,102.49999999999997)"><line stroke="currentColor" x2="-6"></line><text fill="currentColor" x="-9" dy="0.32em">2.40%</text></g><g class="tick" opacity="1" transform="translate(0,68.49999999999994)"><line stroke="currentColor" x2="-6"></line><text fill="currentColor" x="-9" dy="0.32em">2.60%</text></g><g class="tick" opacity="1" transform="translate(0,34.499999999999915)"><line stroke="currentColor" x2="-6"></line><text fill="currentColor" x="-9" dy="0.32em">2.80%</text></g><g class="tick" opacity="1" transform="translate(0,0.5)"><line stroke="currentColor" x2="-6"></line><text fill="currentColor" x="-9" dy="0.32em">3.00%</text></g></g><text transform="rotate(-90)" y="-50" x="-170" dy="1em" style="text-anchor: middle; font-size: 12px; fill: #666;">Pre Rate (%)</text><text transform="translate(360, 380)" style="text-anchor: middle; font-size: 12px; fill: #666;">Time (UTC)</text><path fill="none" stroke="#2563eb" stroke-width="2" d="M0,0C1.558,0,3.117,0,4.675,0C6.234,0,7.792,0,9.351,0C10.909,0,12.468,0,14.026,0C15.584,0,17.143,0,18.701,0C20.26,0,21.818,0,23.377,0C24.935,0,26.494,0,28.052,0C29.61,0,31.169,0,32.727,0C34.286,0,35.844,0,37.403,0C38.961,0,40.519,0,42.078,0C43.636,0,45.195,0,46.753,0C48.312,0,49.87,0,51.429,0C52.987,0,54.545,0,56.104,0C57.662,0,59.221,0,60.779,0C62.338,0,63.896,0,65.455,0C67.013,0,68.571,0,70.13,0C71.688,0,73.247,0,74.805,0C76.364,0,77.922,0,79.481,0C81.039,0,82.597,0,84.156,0C85.714,0,87.273,0,88.831,0C90.39,0,91.948,0,93.506,0C95.065,0,96.623,0,98.182,0C99.74,0,101.299,0,102.857,0C104.416,0,105.974,0,107.532,0C109.091,0,110.649,0,112.208,0C113.766,0,115.325,0,116.883,0C118.442,0,120,0,121.558,0C123.117,0,124.675,0,126.234,0C127.792,0,129.351,0,130.909,0C132.468,0,134.026,0,135.584,0C137.143,0,138.701,0,140.26,0C141.818,0,143.377,0,144.935,0C146.494,0,148.052,0,149.61,0C151.169,0,152.727,0,154.286,0C155.844,0,157.403,0,158.961,0C160.519,0,162.078,0,163.636,0C165.195,0,166.753,0,168.312,0C169.87,0,171.429,0,172.987,0C174.545,0,176.104,0,177.662,0C179.221,0,180.779,0,182.338,0C183.896,0,185.455,0,187.013,0C188.571,0,190.13,0,191.688,0C193.247,0,194.805,0,196.364,0C197.922,0,199.481,0,201.039,0C202.597,0,204.156,0,205.714,0C207.273,0,208.831,0,210.39,0C211.948,0,213.506,0,215.065,0C216.623,0,218.182,0,219.74,0C221.299,0,222.857,0,224.416,0C225.974,0,227.532,0,229.091,0C230.649,0,232.208,0,233.766,0C235.325,0,236.883,0,238.442,0C240,0,241.558,0,243.117,0C244.675,0,246.234,0,247.792,0C249.351,0,250.909,0,252.468,0C254.026,0,255.584,0,257.143,0C258.701,0,260.26,0,261.818,0C263.377,0,264.935,0,266.494,0C268.052,0,269.61,0,271.169,0C272.727,0,274.286,0,275.844,0C277.403,0,278.961,0,280.519,0C282.078,0,283.636,0,285.195,0C286.753,0,288.312,0,289.87,0C291.429,0,292.987,0,294.545,0C296.104,0,297.662,0,299.221,0C300.779,0,302.338,0,303.896,0C305.455,0,307.013,0,308.571,0C310.13,0,311.688,0,313.247,0C314.805,0,316.364,0,317.922,0C319.481,0,321.039,0,322.597,0C324.156,0,325.714,0,327.273,0C328.831,0,330.39,0,331.948,0C333.506,0,335.065,0,336.623,0C338.182,0,339.74,0,341.299,0C342.857,0,344.416,0,345.974,0C347.532,0,349.091,0,350.649,0C352.208,0,353.766,0,355.325,0C356.883,0,358.442,0,360,0C361.558,0,363.117,0,364.675,0C366.234,0,367.792,0,369.351,0C370.909,0,372.468,0,374.026,0C375.584,0,377.143,0,378.701,0C380.26,0,381.818,0,383.377,0C384.935,0,386.494,0,388.052,0C389.61,0,391.169,0,392.727,0C394.286,0,395.844,0,397.403,0C398.961,0,400.519,0,402.078,0C403.636,0,405.195,0,406.753,0C408.312,0,409.87,0,411.429,0C412.987,0,414.545,0,416.104,0C417.662,0,419.221,0,420.779,0C422.338,0,423.896,0,425.455,0C427.013,0,428.571,0,430.13,0C431.688,0,433.247,0,434.805,0C436.364,0,437.922,0,439.481,0C441.039,0,442.597,0,444.156,0C445.714,0,447.273,0,448.831,0C450.39,0,451.948,340,453.506,340C455.065,340,456.623,340,458.182,340C459.74,340,461.299,340,462.857,340C464.416,340,465.974,340,467.532,340C469.091,340,470.649,340,472.208,340C473.766,340,475.325,340,476.883,340C478.442,340,480,340,481.558,340C483.117,340,484.675,340,486.234,340C487.792,340,489.351,0,490.909,0C492.468,0,494.026,0,495.584,0C497.143,0,498.701,0,500.26,0C501.818,0,503.377,0,504.935,0C506.494,0,508.052,0,509.61,0C511.169,0,512.727,0,514.286,0C515.844,0,517.403,0,518.961,0C520.519,0,522.078,0,523.636,0C525.195,0,526.753,0,528.312,0C529.87,0,531.429,0,532.987,0C534.545,0,536.104,0,537.662,0C539.221,0,540.779,0,542.338,0C543.896,0,545.455,0,547.013,0C548.571,0,550.13,0,551.688,0C553.247,0,554.805,0,556.364,0C557.922,0,559.481,0,561.039,0C562.597,0,564.156,0,565.714,0C567.273,0,568.831,0,570.39,0C571.948,0,573.506,0,575.065,0C576.623,0,578.182,0,579.74,0C581.299,0,582.857,0,584.416,0C585.974,0,587.532,0,589.091,0C590.649,0,592.208,0,593.766,0C595.325,0,596.883,0,598.442,0C600,0,601.558,0,603.117,0C604.675,0,606.234,0,607.792,0C609.351,0,610.909,0,612.468,0C614.026,0,615.584,0,617.143,0C618.701,0,620.26,0,621.818,0C623.377,0,624.935,0,626.494,0C628.052,0,629.61,0,631.169,0C632.727,0,634.286,0,635.844,0C637.403,0,638.961,0,640.519,0C642.078,0,643.636,0,645.195,0C646.753,0,648.312,0,649.87,0C651.429,0,652.987,0,654.545,0C656.104,0,657.662,0,659.221,0C660.779,0,662.338,0,663.896,0C665.455,0,667.013,0,668.571,0C670.13,0,671.688,0,673.247,0C674.805,0,676.364,0,677.922,0C679.481,0,681.039,0,682.597,0C684.156,0,685.714,0,687.273,0C688.831,0,690.39,0,691.948,0C693.506,0,695.065,0,696.623,0C698.182,0,699.74,0,701.299,0C702.857,0,704.416,0,705.974,0C707.532,0,709.091,0,710.649,0C712.208,0,713.766,0,715.325,0C716.883,0,718.442,0,720,0"></path><circle class="dot" cx="0" cy="0" r="3" fill="#2563eb"></circle><circle class="dot" cx="4.675324675324676" cy="0" r="3" fill="#2563eb"></circle><circle class="dot" cx="9.350649350649352" cy="0" r="3" fill="#2563eb"></circle><circle class="dot" cx="14.025974025974026" cy="0" r="3" fill="#2563eb"></circle><circle class="dot" cx="18.701298701298704" cy="0" r="3" fill="#2563eb"></circle><circle class="dot" cx="23.376623376623375" cy="0" r="3" fill="#2563eb"></circle><circle class="dot" cx="28.051948051948052" cy="0" r="3" fill="#2563eb"></circle><circle class="dot" cx="32.72727272727273" cy="0" r="3" fill="#2563eb"></circle><circle class="dot" cx="37.40259740259741" cy="0" r="3" fill="#2563eb"></circle><circle class="dot" cx="42.077922077922075" cy="0" r="3" fill="#2563eb"></circle><circle class="dot" cx="46.75324675324675" cy="0" r="3" fill="#2563eb"></circle><circle class="dot" cx="51.42857142857142" cy="0" r="3" fill="#2563eb"></circle><circle class="dot" cx="56.103896103896105" cy="0" r="3" fill="#2563eb"></circle><circle class="dot" cx="60.77922077922078" cy="0" r="3" fill="#2563eb"></circle><circle class="dot" cx="65.45454545454545" cy="0" r="3" fill="#2563eb"></circle><circle class="dot" cx="70.12987012987013" cy="0" r="3" fill="#2563eb"></circle><circle class="dot" cx="74.80519480519482" cy="0" r="3" fill="#2563eb"></circle><circle class="dot" cx="79.48051948051948" cy="0" r="3" fill="#2563eb"></circle><circle class="dot" cx="84.15584415584415" cy="0" r="3" fill="#2563eb"></circle><circle class="dot" cx="88.83116883116882" cy="0" r="3" fill="#2563eb"></circle><circle class="dot" cx="93.5064935064935" cy="0" r="3" fill="#2563eb"></circle><circle class="dot" cx="98.18181818181817" cy="0" r="3" fill="#2563eb"></circle><circle class="dot" cx="102.85714285714285" cy="0" r="3" fill="#2563eb"></circle><circle class="dot" cx="107.53246753246754" cy="0" r="3" fill="#2563eb"></circle><circle class="dot" cx="112.20779220779221" cy="0" r="3" fill="#2563eb"></circle><circle class="dot" cx="116.88311688311688" cy="0" r="3" fill="#2563eb"></circle><circle class="dot" cx="121.55844155844156" cy="0" r="3" fill="#2563eb"></circle><circle class="dot" cx="126.23376623376623" cy="0" r="3" fill="#2563eb"></circle><circle class="dot" cx="130.9090909090909" cy="0" r="3" fill="#2563eb"></circle><circle class="dot" cx="135.58441558441558" cy="0" r="3" fill="#2563eb"></circle><circle class="dot" cx="140.25974025974025" cy="0" r="3" fill="#2563eb"></circle><circle class="dot" cx="144.93506493506493" cy="0" r="3" fill="#2563eb"></circle><circle class="dot" cx="149.61038961038963" cy="0" r="3" fill="#2563eb"></circle><circle class="dot" cx="154.28571428571428" cy="0" r="3" fill="#2563eb"></circle><circle class="dot" cx="158.96103896103895" cy="0" r="3" fill="#2563eb"></circle><circle class="dot" cx="163.63636363636363" cy="0" r="3" fill="#2563eb"></circle><circle class="dot" cx="168.3116883116883" cy="0" r="3" fill="#2563eb"></circle><circle class="dot" cx="172.98701298701297" cy="0" r="3" fill="#2563eb"></circle><circle class="dot" cx="177.66233766233765" cy="0" r="3" fill="#2563eb"></circle><circle class="dot" cx="182.33766233766232" cy="0" r="3" fill="#2563eb"></circle><circle class="dot" cx="187.012987012987" cy="0" r="3" fill="#2563eb"></circle><circle class="dot" cx="191.68831168831167" cy="0" r="3" fill="#2563eb"></circle><circle class="dot" cx="196.36363636363635" cy="0" r="3" fill="#2563eb"></circle><circle class="dot" cx="201.03896103896102" cy="0" r="3" fill="#2563eb"></circle><circle class="dot" cx="205.7142857142857" cy="0" r="3" fill="#2563eb"></circle><circle class="dot" cx="210.38961038961037" cy="0" r="3" fill="#2563eb"></circle><circle class="dot" cx="215.06493506493507" cy="0" r="3" fill="#2563eb"></circle><circle class="dot" cx="219.74025974025975" cy="0" r="3" fill="#2563eb"></circle><circle class="dot" cx="224.41558441558442" cy="0" r="3" fill="#2563eb"></circle><circle class="dot" cx="229.0909090909091" cy="0" r="3" fill="#2563eb"></circle><circle class="dot" cx="233.76623376623377" cy="0" r="3" fill="#2563eb"></circle><circle class="dot" cx="238.44155844155844" cy="0" r="3" fill="#2563eb"></circle><circle class="dot" cx="243.11688311688312" cy="0" r="3" fill="#2563eb"></circle><circle class="dot" cx="247.7922077922078" cy="0" r="3" fill="#2563eb"></circle><circle class="dot" cx="252.46753246753246" cy="0" r="3" fill="#2563eb"></circle><circle class="dot" cx="257.14285714285717" cy="0" r="3" fill="#2563eb"></circle><circle class="dot" cx="261.8181818181818" cy="0" r="3" fill="#2563eb"></circle><circle class="dot" cx="266.4935064935065" cy="0" r="3" fill="#2563eb"></circle><circle class="dot" cx="271.16883116883116" cy="0" r="3" fill="#2563eb"></circle><circle class="dot" cx="275.84415584415586" cy="0" r="3" fill="#2563eb"></circle><circle class="dot" cx="280.5194805194805" cy="0" r="3" fill="#2563eb"></circle><circle class="dot" cx="285.1948051948052" cy="0" r="3" fill="#2563eb"></circle><circle class="dot" cx="289.87012987012986" cy="0" r="3" fill="#2563eb"></circle><circle class="dot" cx="294.54545454545456" cy="0" r="3" fill="#2563eb"></circle><circle class="dot" cx="299.22077922077926" cy="0" r="3" fill="#2563eb"></circle><circle class="dot" cx="303.89610389610385" cy="0" r="3" fill="#2563eb"></circle><circle class="dot" cx="308.57142857142856" cy="0" r="3" fill="#2563eb"></circle><circle class="dot" cx="313.24675324675326" cy="0" r="3" fill="#2563eb"></circle><circle class="dot" cx="317.9220779220779" cy="0" r="3" fill="#2563eb"></circle><circle class="dot" cx="322.5974025974026" cy="0" r="3" fill="#2563eb"></circle><circle class="dot" cx="327.27272727272725" cy="0" r="3" fill="#2563eb"></circle><circle class="dot" cx="331.94805194805195" cy="0" r="3" fill="#2563eb"></circle><circle class="dot" cx="336.6233766233766" cy="0" r="3" fill="#2563eb"></circle><circle class="dot" cx="341.2987012987013" cy="0" r="3" fill="#2563eb"></circle><circle class="dot" cx="345.97402597402595" cy="0" r="3" fill="#2563eb"></circle><circle class="dot" cx="350.64935064935065" cy="0" r="3" fill="#2563eb"></circle><circle class="dot" cx="355.3246753246753" cy="0" r="3" fill="#2563eb"></circle><circle class="dot" cx="360" cy="0" r="3" fill="#2563eb"></circle><circle class="dot" cx="364.67532467532465" cy="0" r="3" fill="#2563eb"></circle><circle class="dot" cx="369.35064935064935" cy="0" r="3" fill="#2563eb"></circle><circle class="dot" cx="374.025974025974" cy="0" r="3" fill="#2563eb"></circle><circle class="dot" cx="378.7012987012987" cy="0" r="3" fill="#2563eb"></circle><circle class="dot" cx="383.37662337662334" cy="0" r="3" fill="#2563eb"></circle><circle class="dot" cx="388.05194805194805" cy="0" r="3" fill="#2563eb"></circle><circle class="dot" cx="392.7272727272727" cy="0" r="3" fill="#2563eb"></circle><circle class="dot" cx="397.4025974025974" cy="0" r="3" fill="#2563eb"></circle><circle class="dot" cx="402.07792207792204" cy="0" r="3" fill="#2563eb"></circle><circle class="dot" cx="406.75324675324674" cy="0" r="3" fill="#2563eb"></circle><circle class="dot" cx="411.4285714285714" cy="0" r="3" fill="#2563eb"></circle><circle class="dot" cx="416.10389610389615" cy="0" r="3" fill="#2563eb"></circle><circle class="dot" cx="420.77922077922074" cy="0" r="3" fill="#2563eb"></circle><circle class="dot" cx="425.4545454545455" cy="0" r="3" fill="#2563eb"></circle><circle class="dot" cx="430.12987012987014" cy="0" r="3" fill="#2563eb"></circle><circle class="dot" cx="434.80519480519484" cy="0" r="3" fill="#2563eb"></circle><circle class="dot" cx="439.4805194805195" cy="0" r="3" fill="#2563eb"></circle><circle class="dot" cx="444.1558441558442" cy="0" r="3" fill="#2563eb"></circle><circle class="dot" cx="448.83116883116884" cy="0" r="3" fill="#2563eb"></circle><circle class="dot" cx="453.50649350649354" cy="340" r="3" fill="#2563eb"></circle><circle class="dot" cx="458.1818181818182" cy="340" r="3" fill="#2563eb"></circle><circle class="dot" cx="462.8571428571429" cy="340" r="3" fill="#2563eb"></circle><circle class="dot" cx="467.53246753246754" cy="340" r="3" fill="#2563eb"></circle><circle class="dot" cx="472.20779220779224" cy="340" r="3" fill="#2563eb"></circle><circle class="dot" cx="476.8831168831169" cy="340" r="3" fill="#2563eb"></circle><circle class="dot" cx="481.55844155844153" cy="340" r="3" fill="#2563eb"></circle><circle class="dot" cx="486.23376623376623" cy="340" r="3" fill="#2563eb"></circle><circle class="dot" cx="490.9090909090909" cy="0" r="3" fill="#2563eb"></circle><circle class="dot" cx="495.5844155844156" cy="0" r="3" fill="#2563eb"></circle><circle class="dot" cx="500.2597402597402" cy="0" r="3" fill="#2563eb"></circle><circle class="dot" cx="504.93506493506493" cy="0" r="3" fill="#2563eb"></circle><circle class="dot" cx="509.6103896103896" cy="0" r="3" fill="#2563eb"></circle><circle class="dot" cx="514.2857142857143" cy="0" r="3" fill="#2563eb"></circle><circle class="dot" cx="518.961038961039" cy="0" r="3" fill="#2563eb"></circle><circle class="dot" cx="523.6363636363636" cy="0" r="3" fill="#2563eb"></circle><circle class="dot" cx="528.3116883116883" cy="0" r="3" fill="#2563eb"></circle><circle class="dot" cx="532.987012987013" cy="0" r="3" fill="#2563eb"></circle><circle class="dot" cx="537.6623376623377" cy="0" r="3" fill="#2563eb"></circle><circle class="dot" cx="542.3376623376623" cy="0" r="3" fill="#2563eb"></circle><circle class="dot" cx="547.012987012987" cy="0" r="3" fill="#2563eb"></circle><circle class="dot" cx="551.6883116883117" cy="0" r="3" fill="#2563eb"></circle><circle class="dot" cx="556.3636363636364" cy="0" r="3" fill="#2563eb"></circle><circle class="dot" cx="561.038961038961" cy="0" r="3" fill="#2563eb"></circle><circle class="dot" cx="565.7142857142857" cy="0" r="3" fill="#2563eb"></circle><circle class="dot" cx="570.3896103896104" cy="0" r="3" fill="#2563eb"></circle><circle class="dot" cx="575.0649350649351" cy="0" r="3" fill="#2563eb"></circle><circle class="dot" cx="579.7402597402597" cy="0" r="3" fill="#2563eb"></circle><circle class="dot" cx="584.4155844155844" cy="0" r="3" fill="#2563eb"></circle><circle class="dot" cx="589.0909090909091" cy="0" r="3" fill="#2563eb"></circle><circle class="dot" cx="593.7662337662338" cy="0" r="3" fill="#2563eb"></circle><circle class="dot" cx="598.4415584415585" cy="0" r="3" fill="#2563eb"></circle><circle class="dot" cx="603.1168831168832" cy="0" r="3" fill="#2563eb"></circle><circle class="dot" cx="607.7922077922077" cy="0" r="3" fill="#2563eb"></circle><circle class="dot" cx="612.4675324675325" cy="0" r="3" fill="#2563eb"></circle><circle class="dot" cx="617.1428571428571" cy="0" r="3" fill="#2563eb"></circle><circle class="dot" cx="621.8181818181819" cy="0" r="3" fill="#2563eb"></circle><circle class="dot" cx="626.4935064935065" cy="0" r="3" fill="#2563eb"></circle><circle class="dot" cx="631.1688311688312" cy="0" r="3" fill="#2563eb"></circle><circle class="dot" cx="635.8441558441558" cy="0" r="3" fill="#2563eb"></circle><circle class="dot" cx="640.5194805194806" cy="0" r="3" fill="#2563eb"></circle><circle class="dot" cx="645.1948051948052" cy="0" r="3" fill="#2563eb"></circle><circle class="dot" cx="649.8701298701299" cy="0" r="3" fill="#2563eb"></circle><circle class="dot" cx="654.5454545454545" cy="0" r="3" fill="#2563eb"></circle><circle class="dot" cx="659.2207792207793" cy="0" r="3" fill="#2563eb"></circle><circle class="dot" cx="663.8961038961039" cy="0" r="3" fill="#2563eb"></circle><circle class="dot" cx="668.5714285714286" cy="0" r="3" fill="#2563eb"></circle><circle class="dot" cx="673.2467532467532" cy="0" r="3" fill="#2563eb"></circle><circle class="dot" cx="677.922077922078" cy="0" r="3" fill="#2563eb"></circle><circle class="dot" cx="682.5974025974026" cy="0" r="3" fill="#2563eb"></circle><circle class="dot" cx="687.2727272727273" cy="0" r="3" fill="#2563eb"></circle><circle class="dot" cx="691.9480519480519" cy="0" r="3" fill="#2563eb"></circle><circle class="dot" cx="696.6233766233767" cy="0" r="3" fill="#2563eb"></circle><circle class="dot" cx="701.2987012987013" cy="0" r="3" fill="#2563eb"></circle><circle class="dot" cx="705.9740259740261" cy="0" r="3" fill="#2563eb"></circle><circle class="dot" cx="710.6493506493506" cy="0" r="3" fill="#2563eb"></circle><circle class="dot" cx="715.3246753246754" cy="0" r="3" fill="#2563eb"></circle><circle class="dot" cx="720" cy="0" r="3" fill="#2563eb"></circle><g class="grid" transform="translate(0,340)" fill="none" font-size="10" font-family="sans-serif" text-anchor="middle" style="stroke-dasharray: 3,3; opacity: 0.3;"><path class="domain" stroke="currentColor" d="M0.5,-340V0.5H720.5V-340"></path><g class="tick" opacity="1" transform="translate(0.5,0)"><line stroke="currentColor" y2="-340"></line><text fill="currentColor" y="3" dy="0.71em"></text></g><g class="tick" opacity="1" transform="translate(112.70779220779221,0)"><line stroke="currentColor" y2="-340"></line><text fill="currentColor" y="3" dy="0.71em"></text></g><g class="tick" opacity="1" transform="translate(224.91558441558442,0)"><line stroke="currentColor" y2="-340"></line><text fill="currentColor" y="3" dy="0.71em"></text></g><g class="tick" opacity="1" transform="translate(337.1233766233766,0)"><line stroke="currentColor" y2="-340"></line><text fill="currentColor" y="3" dy="0.71em"></text></g><g class="tick" opacity="1" transform="translate(449.33116883116884,0)"><line stroke="currentColor" y2="-340"></line><text fill="currentColor" y="3" dy="0.71em"></text></g><g class="tick" opacity="1" transform="translate(561.538961038961,0)"><line stroke="currentColor" y2="-340"></line><text fill="currentColor" y="3" dy="0.71em"></text></g><g class="tick" opacity="1" transform="translate(673.7467532467532,0)"><line stroke="currentColor" y2="-340"></line><text fill="currentColor" y="3" dy="0.71em"></text></g></g><g class="grid" fill="none" font-size="10" font-family="sans-serif" text-anchor="end" style="stroke-dasharray: 3,3; opacity: 0.3;"><path class="domain" stroke="currentColor" d="M720,340.5H0.5V0.5H720"></path><g class="tick" opacity="1" transform="translate(0,340.5)"><line stroke="currentColor" x2="720"></line><text fill="currentColor" x="-3" dy="0.32em"></text></g><g class="tick" opacity="1" transform="translate(0,306.5)"><line stroke="currentColor" x2="720"></line><text fill="currentColor" x="-3" dy="0.32em"></text></g><g class="tick" opacity="1" transform="translate(0,272.5)"><line stroke="currentColor" x2="720"></line><text fill="currentColor" x="-3" dy="0.32em"></text></g><g class="tick" opacity="1" transform="translate(0,238.49999999999997)"><line stroke="currentColor" x2="720"></line><text fill="currentColor" x="-3" dy="0.32em"></text></g><g class="tick" opacity="1" transform="translate(0,204.50000000000003)"><line stroke="currentColor" x2="720"></line><text fill="currentColor" x="-3" dy="0.32em"></text></g><g class="tick" opacity="1" transform="translate(0,170.49999999999997)"><line stroke="currentColor" x2="720"></line><text fill="currentColor" x="-3" dy="0.32em"></text></g><g class="tick" opacity="1" transform="translate(0,136.5)"><line stroke="currentColor" x2="720"></line><text fill="currentColor" x="-3" dy="0.32em"></text></g><g class="tick" opacity="1" transform="translate(0,102.49999999999997)"><line stroke="currentColor" x2="720"></line><text fill="currentColor" x="-3" dy="0.32em"></text></g><g class="tick" opacity="1" transform="translate(0,68.49999999999994)"><line stroke="currentColor" x2="720"></line><text fill="currentColor" x="-3" dy="0.32em"></text></g><g class="tick" opacity="1" transform="translate(0,34.499999999999915)"><line stroke="currentColor" x2="720"></line><text fill="currentColor" x="-3" dy="0.32em"></text></g><g class="tick" opacity="1" transform="translate(0,0.5)"><line stroke="currentColor" x2="720"></line><text fill="currentColor" x="-3" dy="0.32em"></text></g></g></g><text x="400" y="10" text-anchor="middle" style="font-size: 16px; font-weight: bold; fill: #333;">OKX USDT Lending Rate - Current Month</text></svg>