<svg width="800" height="400" xmlns="http://www.w3.org/2000/svg"><g transform="translate(50,20)"><g transform="translate(0,340)" fill="none" font-size="10" font-family="sans-serif" text-anchor="middle"><path class="domain" stroke="currentColor" d="M0.5,6V0.5H720.5V6"></path><g class="tick" opacity="1" transform="translate(0.5,0)"><line stroke="currentColor" y2="6"></line><text fill="currentColor" y="9" dy=".15em" style="text-anchor: end;" dx="-.8em" transform="rotate(-45)">09/01</text></g><g class="tick" opacity="1" transform="translate(35.6219512195122,0)"><line stroke="currentColor" y2="6"></line><text fill="currentColor" y="9" dy=".15em" style="text-anchor: end;" dx="-.8em" transform="rotate(-45)">09/02</text></g><g class="tick" opacity="1" transform="translate(70.7439024390244,0)"><line stroke="currentColor" y2="6"></line><text fill="currentColor" y="9" dy=".15em" style="text-anchor: end;" dx="-.8em" transform="rotate(-45)">09/03</text></g><g class="tick" opacity="1" transform="translate(105.86585365853658,0)"><line stroke="currentColor" y2="6"></line><text fill="currentColor" y="9" dy=".15em" style="text-anchor: end;" dx="-.8em" transform="rotate(-45)">09/04</text></g><g class="tick" opacity="1" transform="translate(140.9878048780488,0)"><line stroke="currentColor" y2="6"></line><text fill="currentColor" y="9" dy=".15em" style="text-anchor: end;" dx="-.8em" transform="rotate(-45)">09/05</text></g><g class="tick" opacity="1" transform="translate(176.10975609756096,0)"><line stroke="currentColor" y2="6"></line><text fill="currentColor" y="9" dy=".15em" style="text-anchor: end;" dx="-.8em" transform="rotate(-45)">09/06</text></g><g class="tick" opacity="1" transform="translate(211.23170731707316,0)"><line stroke="currentColor" y2="6"></line><text fill="currentColor" y="9" dy=".15em" style="text-anchor: end;" dx="-.8em" transform="rotate(-45)">09/07</text></g><g class="tick" opacity="1" transform="translate(246.35365853658539,0)"><line stroke="currentColor" y2="6"></line><text fill="currentColor" y="9" dy=".15em" style="text-anchor: end;" dx="-.8em" transform="rotate(-45)">09/08</text></g><g class="tick" opacity="1" transform="translate(281.4756097560976,0)"><line stroke="currentColor" y2="6"></line><text fill="currentColor" y="9" dy=".15em" style="text-anchor: end;" dx="-.8em" transform="rotate(-45)">09/09</text></g><g class="tick" opacity="1" transform="translate(316.5975609756098,0)"><line stroke="currentColor" y2="6"></line><text fill="currentColor" y="9" dy=".15em" style="text-anchor: end;" dx="-.8em" transform="rotate(-45)">09/10</text></g><g class="tick" opacity="1" transform="translate(351.7195121951219,0)"><line stroke="currentColor" y2="6"></line><text fill="currentColor" y="9" dy=".15em" style="text-anchor: end;" dx="-.8em" transform="rotate(-45)">09/11</text></g><g class="tick" opacity="1" transform="translate(386.8414634146342,0)"><line stroke="currentColor" y2="6"></line><text fill="currentColor" y="9" dy=".15em" style="text-anchor: end;" dx="-.8em" transform="rotate(-45)">09/12</text></g><g class="tick" opacity="1" transform="translate(421.9634146341463,0)"><line stroke="currentColor" y2="6"></line><text fill="currentColor" y="9" dy=".15em" style="text-anchor: end;" dx="-.8em" transform="rotate(-45)">09/13</text></g><g class="tick" opacity="1" transform="translate(457.0853658536585,0)"><line stroke="currentColor" y2="6"></line><text fill="currentColor" y="9" dy=".15em" style="text-anchor: end;" dx="-.8em" transform="rotate(-45)">09/14</text></g><g class="tick" opacity="1" transform="translate(492.20731707317077,0)"><line stroke="currentColor" y2="6"></line><text fill="currentColor" y="9" dy=".15em" style="text-anchor: end;" dx="-.8em" transform="rotate(-45)">09/15</text></g><g class="tick" opacity="1" transform="translate(527.329268292683,0)"><line stroke="currentColor" y2="6"></line><text fill="currentColor" y="9" dy=".15em" style="text-anchor: end;" dx="-.8em" transform="rotate(-45)">09/16</text></g><g class="tick" opacity="1" transform="translate(562.4512195121952,0)"><line stroke="currentColor" y2="6"></line><text fill="currentColor" y="9" dy=".15em" style="text-anchor: end;" dx="-.8em" transform="rotate(-45)">09/17</text></g><g class="tick" opacity="1" transform="translate(597.5731707317073,0)"><line stroke="currentColor" y2="6"></line><text fill="currentColor" y="9" dy=".15em" style="text-anchor: end;" dx="-.8em" transform="rotate(-45)">09/18</text></g><g class="tick" opacity="1" transform="translate(632.6951219512196,0)"><line stroke="currentColor" y2="6"></line><text fill="currentColor" y="9" dy=".15em" style="text-anchor: end;" dx="-.8em" transform="rotate(-45)">09/19</text></g><g class="tick" opacity="1" transform="translate(667.8170731707318,0)"><line stroke="currentColor" y2="6"></line><text fill="currentColor" y="9" dy=".15em" style="text-anchor: end;" dx="-.8em" transform="rotate(-45)">09/20</text></g><g class="tick" opacity="1" transform="translate(702.9390243902438,0)"><line stroke="currentColor" y2="6"></line><text fill="currentColor" y="9" dy=".15em" style="text-anchor: end;" dx="-.8em" transform="rotate(-45)">09/21</text></g></g><g fill="none" font-size="10" font-family="sans-serif" text-anchor="end"><path class="domain" stroke="currentColor" d="M-6,340.5H0.5V0.5H-6"></path><g class="tick" opacity="1" transform="translate(0,340.5)"><line stroke="currentColor" x2="-6"></line><text fill="currentColor" x="-9" dy="0.32em">4.00%</text></g><g class="tick" opacity="1" transform="translate(0,314.34615384615387)"><line stroke="currentColor" x2="-6"></line><text fill="currentColor" x="-9" dy="0.32em">6.00%</text></g><g class="tick" opacity="1" transform="translate(0,288.1923076923077)"><line stroke="currentColor" x2="-6"></line><text fill="currentColor" x="-9" dy="0.32em">8.00%</text></g><g class="tick" opacity="1" transform="translate(0,262.0384615384615)"><line stroke="currentColor" x2="-6"></line><text fill="currentColor" x="-9" dy="0.32em">10.00%</text></g><g class="tick" opacity="1" transform="translate(0,235.8846153846154)"><line stroke="currentColor" x2="-6"></line><text fill="currentColor" x="-9" dy="0.32em">12.00%</text></g><g class="tick" opacity="1" transform="translate(0,209.73076923076925)"><line stroke="currentColor" x2="-6"></line><text fill="currentColor" x="-9" dy="0.32em">14.00%</text></g><g class="tick" opacity="1" transform="translate(0,183.5769230769231)"><line stroke="currentColor" x2="-6"></line><text fill="currentColor" x="-9" dy="0.32em">16.00%</text></g><g class="tick" opacity="1" transform="translate(0,157.42307692307693)"><line stroke="currentColor" x2="-6"></line><text fill="currentColor" x="-9" dy="0.32em">18.00%</text></g><g class="tick" opacity="1" transform="translate(0,131.26923076923075)"><line stroke="currentColor" x2="-6"></line><text fill="currentColor" x="-9" dy="0.32em">20.00%</text></g><g class="tick" opacity="1" transform="translate(0,105.11538461538463)"><line stroke="currentColor" x2="-6"></line><text fill="currentColor" x="-9" dy="0.32em">22.00%</text></g><g class="tick" opacity="1" transform="translate(0,78.96153846153848)"><line stroke="currentColor" x2="-6"></line><text fill="currentColor" x="-9" dy="0.32em">24.00%</text></g><g class="tick" opacity="1" transform="translate(0,52.807692307692314)"><line stroke="currentColor" x2="-6"></line><text fill="currentColor" x="-9" dy="0.32em">26.00%</text></g><g class="tick" opacity="1" transform="translate(0,26.653846153846136)"><line stroke="currentColor" x2="-6"></line><text fill="currentColor" x="-9" dy="0.32em">28.00%</text></g><g class="tick" opacity="1" transform="translate(0,0.5)"><line stroke="currentColor" x2="-6"></line><text fill="currentColor" x="-9" dy="0.32em">30.00%</text></g></g><text transform="rotate(-90)" y="-50" x="-170" dy="1em" style="text-anchor: middle; font-size: 12px; fill: #666;">Pre Rate (%)</text><text transform="translate(360, 380)" style="text-anchor: middle; font-size: 12px; fill: #666;">Time (UTC)</text><path fill="none" stroke="#2563eb" stroke-width="2" d="M0,340C0.488,340,0.976,340,1.463,340C1.951,340,2.439,340,2.927,340C3.415,340,3.902,340,4.39,340C4.878,340,5.366,340,5.854,340C6.341,340,6.829,340,7.317,340C7.805,340,8.293,340,8.78,340C9.268,340,9.756,340,10.244,340C10.732,340,11.22,296.41,11.707,287.692C12.195,278.974,12.683,274.615,13.171,274.615C13.659,274.615,14.146,292.051,14.634,300.769C15.122,309.487,15.61,326.923,16.098,326.923C16.585,326.923,17.073,322.564,17.561,313.846C18.049,305.128,18.537,274.615,19.024,274.615C19.512,274.615,20,300.769,20.488,300.769C20.976,300.769,21.463,300.769,21.951,300.769C22.439,300.769,22.927,300.769,23.415,300.769C23.902,300.769,24.39,300.769,24.878,300.769C25.366,300.769,25.854,326.923,26.341,326.923C26.829,326.923,27.317,318.205,27.805,313.846C28.293,309.487,28.78,300.769,29.268,300.769C29.756,300.769,30.244,340,30.732,340C31.22,340,31.707,340,32.195,340C32.683,340,33.171,340,33.659,340C34.146,340,34.634,313.846,35.122,313.846C35.61,313.846,36.098,326.923,36.585,326.923C37.073,326.923,37.561,322.564,38.049,313.846C38.537,305.128,39.024,283.333,39.512,274.615C40,265.897,40.488,261.538,40.976,261.538C41.463,261.538,41.951,270.256,42.439,274.615C42.927,278.974,43.415,287.692,43.902,287.692C44.39,287.692,44.878,235.385,45.366,235.385C45.854,235.385,46.341,252.821,46.829,261.538C47.317,270.256,47.805,287.692,48.293,287.692C48.78,287.692,49.268,287.692,49.756,287.692C50.244,287.692,50.732,287.692,51.22,287.692C51.707,287.692,52.195,296.41,52.683,300.769C53.171,305.128,53.659,313.846,54.146,313.846C54.634,313.846,55.122,235.385,55.61,235.385C56.098,235.385,56.585,248.462,57.073,261.538C57.561,274.615,58.049,313.846,58.537,313.846C59.024,313.846,59.512,287.692,60,287.692C60.488,287.692,60.976,300.769,61.463,300.769C61.951,300.769,62.439,300.769,62.927,300.769C63.415,300.769,63.902,313.846,64.39,313.846C64.878,313.846,65.366,261.538,65.854,261.538C66.341,261.538,66.829,261.538,67.317,261.538C67.805,261.538,68.293,248.462,68.78,248.462C69.268,248.462,69.756,248.462,70.244,248.462C70.732,248.462,71.22,261.538,71.707,261.538C72.195,261.538,72.683,248.462,73.171,248.462C73.659,248.462,74.146,248.462,74.634,248.462C75.122,248.462,75.61,268.077,76.098,274.615C76.585,281.154,77.073,281.154,77.561,287.692C78.049,294.231,78.537,307.308,79.024,313.846C79.512,320.385,80,326.923,80.488,326.923C80.976,326.923,81.463,313.846,81.951,313.846C82.439,313.846,82.927,340,83.415,340C83.902,340,84.39,326.923,84.878,326.923C85.366,326.923,85.854,326.923,86.341,326.923C86.829,326.923,87.317,326.923,87.805,326.923C88.293,326.923,88.78,340,89.268,340C89.756,340,90.244,292.051,90.732,274.615C91.22,257.179,91.707,235.385,92.195,235.385C92.683,235.385,93.171,241.923,93.659,248.462C94.146,255,94.634,265.897,95.122,274.615C95.61,283.333,96.098,294.231,96.585,300.769C97.073,307.308,97.561,313.846,98.049,313.846C98.537,313.846,99.024,305.128,99.512,300.769C100,296.41,100.488,287.692,100.976,287.692C101.463,287.692,101.951,287.692,102.439,287.692C102.927,287.692,103.415,287.692,103.902,287.692C104.39,287.692,104.878,287.692,105.366,287.692C105.854,287.692,106.341,261.538,106.829,261.538C107.317,261.538,107.805,265.897,108.293,274.615C108.78,283.333,109.268,313.846,109.756,313.846C110.244,313.846,110.732,313.846,111.22,313.846C111.707,313.846,112.195,313.846,112.683,313.846C113.171,313.846,113.659,313.846,114.146,313.846C114.634,313.846,115.122,326.923,115.61,326.923C116.098,326.923,116.585,300.769,117.073,300.769C117.561,300.769,118.049,300.769,118.537,300.769C119.024,300.769,119.512,287.692,120,287.692C120.488,287.692,120.976,300.769,121.463,300.769C121.951,300.769,122.439,300.769,122.927,300.769C123.415,300.769,123.902,307.308,124.39,313.846C124.878,320.385,125.366,340,125.854,340C126.341,340,126.829,340,127.317,340C127.805,340,128.293,340,128.78,340C129.268,340,129.756,340,130.244,340C130.732,340,131.22,340,131.707,340C132.195,340,132.683,340,133.171,340C133.659,340,134.146,340,134.634,340C135.122,340,135.61,340,136.098,340C136.585,340,137.073,340,137.561,340C138.049,340,138.537,340,139.024,340C139.512,340,140,340,140.488,340C140.976,340,141.463,340,141.951,340C142.439,340,142.927,340,143.415,340C143.902,340,144.39,340,144.878,340C145.366,340,145.854,340,146.341,340C146.829,340,147.317,340,147.805,340C148.293,340,148.78,340,149.268,340C149.756,340,150.244,340,150.732,340C151.22,340,151.707,274.615,152.195,274.615C152.683,274.615,153.171,340,153.659,340C154.146,340,154.634,340,155.122,340C155.61,340,156.098,340,156.585,340C157.073,340,157.561,335.641,158.049,326.923C158.537,318.205,159.024,248.462,159.512,248.462C160,248.462,160.488,252.821,160.976,261.538C161.463,270.256,161.951,340,162.439,340C162.927,340,163.415,331.282,163.902,326.923C164.39,322.564,164.878,313.846,165.366,313.846C165.854,313.846,166.341,326.923,166.829,326.923C167.317,326.923,167.805,313.846,168.293,313.846C168.78,313.846,169.268,313.846,169.756,313.846C170.244,313.846,170.732,313.846,171.22,313.846C171.707,313.846,172.195,340,172.683,340C173.171,340,173.659,340,174.146,340C174.634,340,175.122,340,175.61,340C176.098,340,176.585,326.923,177.073,326.923C177.561,326.923,178.049,340,178.537,340C179.024,340,179.512,340,180,340C180.488,340,180.976,340,181.463,340C181.951,340,182.439,340,182.927,340C183.415,340,183.902,340,184.39,340C184.878,340,185.366,340,185.854,340C186.341,340,186.829,340,187.317,340C187.805,340,188.293,340,188.78,340C189.268,340,189.756,340,190.244,340C190.732,340,191.22,340,191.707,340C192.195,340,192.683,340,193.171,340C193.659,340,194.146,340,194.634,340C195.122,340,195.61,340,196.098,340C196.585,340,197.073,340,197.561,340C198.049,340,198.537,340,199.024,340C199.512,340,200,340,200.488,340C200.976,340,201.463,340,201.951,340C202.439,340,202.927,340,203.415,340C203.902,340,204.39,340,204.878,340C205.366,340,205.854,340,206.341,340C206.829,340,207.317,340,207.805,340C208.293,340,208.78,340,209.268,340C209.756,340,210.244,340,210.732,340C211.22,340,211.707,340,212.195,340C212.683,340,213.171,340,213.659,340C214.146,340,214.634,340,215.122,340C215.61,340,216.098,340,216.585,340C217.073,340,217.561,340,218.049,340C218.537,340,219.024,340,219.512,340C220,340,220.488,340,220.976,340C221.463,340,221.951,313.846,222.439,313.846C222.927,313.846,223.415,322.564,223.902,326.923C224.39,331.282,224.878,340,225.366,340C225.854,340,226.341,331.282,226.829,326.923C227.317,322.564,227.805,313.846,228.293,313.846C228.78,313.846,229.268,313.846,229.756,313.846C230.244,313.846,230.732,307.308,231.22,300.769C231.707,294.231,232.195,274.615,232.683,274.615C233.171,274.615,233.659,274.615,234.146,274.615C234.634,274.615,235.122,283.333,235.61,287.692C236.098,292.051,236.585,300.769,237.073,300.769C237.561,300.769,238.049,300.769,238.537,300.769C239.024,300.769,239.512,287.692,240,287.692C240.488,287.692,240.976,300.769,241.463,300.769C241.951,300.769,242.439,300.769,242.927,300.769C243.415,300.769,243.902,274.615,244.39,274.615C244.878,274.615,245.366,274.615,245.854,274.615C246.341,274.615,246.829,261.538,247.317,261.538C247.805,261.538,248.293,261.538,248.78,261.538C249.268,261.538,249.756,248.462,250.244,248.462C250.732,248.462,251.22,257.179,251.707,261.538C252.195,265.897,252.683,274.615,253.171,274.615C253.659,274.615,254.146,274.615,254.634,274.615C255.122,274.615,255.61,287.692,256.098,287.692C256.585,287.692,257.073,287.692,257.561,287.692C258.049,287.692,258.537,281.154,259.024,274.615C259.512,268.077,260,255,260.488,248.462C260.976,241.923,261.463,235.385,261.951,235.385C262.439,235.385,262.927,235.385,263.415,235.385C263.902,235.385,264.39,235.385,264.878,235.385C265.366,235.385,265.854,248.462,266.341,248.462C266.829,248.462,267.317,231.026,267.805,222.308C268.293,213.59,268.78,196.154,269.268,196.154C269.756,196.154,270.244,202.692,270.732,209.231C271.22,215.769,271.707,235.385,272.195,235.385C272.683,235.385,273.171,209.231,273.659,209.231C274.146,209.231,274.634,248.462,275.122,248.462C275.61,248.462,276.098,248.462,276.585,248.462C277.073,248.462,277.561,222.308,278.049,222.308C278.537,222.308,279.024,231.026,279.512,235.385C280,239.744,280.488,248.462,280.976,248.462C281.463,248.462,281.951,248.462,282.439,248.462C282.927,248.462,283.415,196.154,283.902,196.154C284.39,196.154,284.878,196.154,285.366,196.154C285.854,196.154,286.341,183.077,286.829,183.077C287.317,183.077,287.805,248.462,288.293,248.462C288.78,248.462,289.268,248.462,289.756,248.462C290.244,248.462,290.732,204.872,291.22,196.154C291.707,187.436,292.195,183.077,292.683,183.077C293.171,183.077,293.659,183.077,294.146,183.077C294.634,183.077,295.122,183.077,295.61,183.077C296.098,183.077,296.585,191.795,297.073,196.154C297.561,200.513,298.049,209.231,298.537,209.231C299.024,209.231,299.512,200.513,300,196.154C300.488,191.795,300.976,183.077,301.463,183.077C301.951,183.077,302.439,224.487,302.927,248.462C303.415,272.436,303.902,326.923,304.39,326.923C304.878,326.923,305.366,326.923,305.854,326.923C306.341,326.923,306.829,318.205,307.317,313.846C307.805,309.487,308.293,305.128,308.78,300.769C309.268,296.41,309.756,287.692,310.244,287.692C310.732,287.692,311.22,287.692,311.707,287.692C312.195,287.692,312.683,300.769,313.171,300.769C313.659,300.769,314.146,287.692,314.634,287.692C315.122,287.692,315.61,287.692,316.098,287.692C316.585,287.692,317.073,313.846,317.561,313.846C318.049,313.846,318.537,307.308,319.024,300.769C319.512,294.231,320,274.615,320.488,274.615C320.976,274.615,321.463,274.615,321.951,274.615C322.439,274.615,322.927,283.333,323.415,287.692C323.902,292.051,324.39,300.769,324.878,300.769C325.366,300.769,325.854,239.744,326.341,222.308C326.829,204.872,327.317,196.154,327.805,196.154C328.293,196.154,328.78,222.308,329.268,222.308C329.756,222.308,330.244,222.308,330.732,222.308C331.22,222.308,331.707,226.667,332.195,235.385C332.683,244.103,333.171,326.923,333.659,326.923C334.146,326.923,334.634,292.051,335.122,274.615C335.61,257.179,336.098,222.308,336.585,222.308C337.073,222.308,337.561,237.564,338.049,248.462C338.537,259.359,339.024,278.974,339.512,287.692C340,296.41,340.488,296.41,340.976,300.769C341.463,305.128,341.951,307.308,342.439,313.846C342.927,320.385,343.415,340,343.902,340C344.39,340,344.878,340,345.366,340C345.854,340,346.341,340,346.829,340C347.317,340,347.805,340,348.293,340C348.78,340,349.268,340,349.756,340C350.244,340,350.732,340,351.22,340C351.707,340,352.195,340,352.683,340C353.171,340,353.659,340,354.146,340C354.634,340,355.122,340,355.61,340C356.098,340,356.585,326.923,357.073,326.923C357.561,326.923,358.049,326.923,358.537,326.923C359.024,326.923,359.512,326.923,360,326.923C360.488,326.923,360.976,313.846,361.463,313.846C361.951,313.846,362.439,313.846,362.927,313.846C363.415,313.846,363.902,340,364.39,340C364.878,340,365.366,340,365.854,340C366.341,340,366.829,326.923,367.317,326.923C367.805,326.923,368.293,326.923,368.78,326.923C369.268,326.923,369.756,296.41,370.244,287.692C370.732,278.974,371.22,274.615,371.707,274.615C372.195,274.615,372.683,281.154,373.171,287.692C373.659,294.231,374.146,313.846,374.634,313.846C375.122,313.846,375.61,313.846,376.098,313.846C376.585,313.846,377.073,340,377.561,340C378.049,340,378.537,340,379.024,340C379.512,340,380,340,380.488,340C380.976,340,381.463,340,381.951,340C382.439,340,382.927,340,383.415,340C383.902,340,384.39,333.462,384.878,326.923C385.366,320.385,385.854,316.026,386.341,300.769C386.829,285.513,387.317,235.385,387.805,235.385C388.293,235.385,388.78,261.538,389.268,261.538C389.756,261.538,390.244,248.462,390.732,248.462C391.22,248.462,391.707,248.462,392.195,248.462C392.683,248.462,393.171,244.103,393.659,235.385C394.146,226.667,394.634,213.59,395.122,196.154C395.61,178.718,396.098,130.769,396.585,130.769C397.073,130.769,397.561,148.205,398.049,156.923C398.537,165.641,399.024,170,399.512,183.077C400,196.154,400.488,235.385,400.976,235.385C401.463,235.385,401.951,235.385,402.439,235.385C402.927,235.385,403.415,235.385,403.902,235.385C404.39,235.385,404.878,235.385,405.366,235.385C405.854,235.385,406.341,235.385,406.829,235.385C407.317,235.385,407.805,222.308,408.293,222.308C408.78,222.308,409.268,248.462,409.756,248.462C410.244,248.462,410.732,241.923,411.22,235.385C411.707,228.846,412.195,217.949,412.683,209.231C413.171,200.513,413.659,196.154,414.146,183.077C414.634,170,415.122,130.769,415.61,130.769C416.098,130.769,416.585,130.769,417.073,130.769C417.561,130.769,418.049,156.923,418.537,156.923C419.024,156.923,419.512,100.256,420,91.538C420.488,82.821,420.976,78.462,421.463,78.462C421.951,78.462,422.439,78.462,422.927,78.462C423.415,78.462,423.902,104.615,424.39,104.615C424.878,104.615,425.366,100.256,425.854,91.538C426.341,82.821,426.829,52.308,427.317,52.308C427.805,52.308,428.293,52.308,428.78,52.308C429.268,52.308,429.756,65.385,430.244,65.385C430.732,65.385,431.22,65.385,431.707,65.385C432.195,65.385,432.683,56.667,433.171,52.308C433.659,47.949,434.146,45.769,434.634,39.231C435.122,32.692,435.61,13.077,436.098,13.077C436.585,13.077,437.073,54.487,437.561,78.462C438.049,102.436,438.537,113.333,439.024,156.923C439.512,200.513,440,340,440.488,340C440.976,340,441.463,340,441.951,340C442.439,340,442.927,340,443.415,340C443.902,340,444.39,340,444.878,340C445.366,340,445.854,340,446.341,340C446.829,340,447.317,340,447.805,340C448.293,340,448.78,340,449.268,340C449.756,340,450.244,340,450.732,340C451.22,340,451.707,340,452.195,340C452.683,340,453.171,340,453.659,340C454.146,340,454.634,340,455.122,340C455.61,340,456.098,313.846,456.585,313.846C457.073,313.846,457.561,313.846,458.049,313.846C458.537,313.846,459.024,289.872,459.512,274.615C460,259.359,460.488,222.308,460.976,222.308C461.463,222.308,461.951,287.692,462.439,287.692C462.927,287.692,463.415,283.333,463.902,274.615C464.39,265.897,464.878,222.308,465.366,222.308C465.854,222.308,466.341,248.462,466.829,248.462C467.317,248.462,467.805,248.462,468.293,248.462C468.78,248.462,469.268,248.462,469.756,248.462C470.244,248.462,470.732,235.385,471.22,235.385C471.707,235.385,472.195,239.744,472.683,248.462C473.171,257.179,473.659,326.923,474.146,326.923C474.634,326.923,475.122,326.923,475.61,326.923C476.098,326.923,476.585,340,477.073,340C477.561,340,478.049,340,478.537,340C479.024,340,479.512,340,480,340C480.488,340,480.976,307.308,481.463,287.692C481.951,268.077,482.439,222.308,482.927,222.308C483.415,222.308,483.902,261.538,484.39,274.615C484.878,287.692,485.366,300.769,485.854,300.769C486.341,300.769,486.829,294.231,487.317,287.692C487.805,281.154,488.293,261.538,488.78,261.538C489.268,261.538,489.756,274.615,490.244,287.692C490.732,300.769,491.22,340,491.707,340C492.195,340,492.683,331.282,493.171,326.923C493.659,322.564,494.146,313.846,494.634,313.846C495.122,313.846,495.61,340,496.098,340C496.585,340,497.073,340,497.561,340C498.049,340,498.537,340,499.024,340C499.512,340,500,340,500.488,340C500.976,340,501.463,340,501.951,340C502.439,340,502.927,340,503.415,340C503.902,340,504.39,340,504.878,340C505.366,340,505.854,340,506.341,340C506.829,340,507.317,340,507.805,340C508.293,340,508.78,340,509.268,340C509.756,340,510.244,340,510.732,340C511.22,340,511.707,340,512.195,340C512.683,340,513.171,340,513.659,340C514.146,340,514.634,340,515.122,340C515.61,340,516.098,340,516.585,340C517.073,340,517.561,340,518.049,340C518.537,340,519.024,340,519.512,340C520,340,520.488,340,520.976,340C521.463,340,521.951,340,522.439,340C522.927,340,523.415,340,523.902,340C524.39,340,524.878,340,525.366,340C525.854,340,526.341,340,526.829,340C527.317,340,527.805,340,528.293,340C528.78,340,529.268,340,529.756,340C530.244,340,530.732,340,531.22,340C531.707,340,532.195,340,532.683,340C533.171,340,533.659,340,534.146,340C534.634,340,535.122,340,535.61,340C536.098,340,536.585,340,537.073,340C537.561,340,538.049,340,538.537,340C539.024,340,539.512,340,540,340C540.488,340,540.976,340,541.463,340C541.951,340,542.439,340,542.927,340C543.415,340,543.902,340,544.39,340C544.878,340,545.366,340,545.854,340C546.341,340,546.829,340,547.317,340C547.805,340,548.293,340,548.78,340C549.268,340,549.756,340,550.244,340C550.732,340,551.22,340,551.707,340C552.195,340,552.683,340,553.171,340C553.659,340,554.146,340,554.634,340C555.122,340,555.61,340,556.098,340C556.585,340,557.073,340,557.561,340C558.049,340,558.537,340,559.024,340C559.512,340,560,340,560.488,340C560.976,340,561.463,340,561.951,340C562.439,340,562.927,340,563.415,340C563.902,340,564.39,340,564.878,340C565.366,340,565.854,340,566.341,340C566.829,340,567.317,340,567.805,340C568.293,340,568.78,340,569.268,340C569.756,340,570.244,340,570.732,340C571.22,340,571.707,340,572.195,340C572.683,340,573.171,340,573.659,340C574.146,340,574.634,340,575.122,340C575.61,340,576.098,340,576.585,340C577.073,340,577.561,340,578.049,340C578.537,340,579.024,340,579.512,340C580,340,580.488,340,580.976,340C581.463,340,581.951,340,582.439,340C582.927,340,583.415,340,583.902,340C584.39,340,584.878,340,585.366,340C585.854,340,586.341,340,586.829,340C587.317,340,587.805,340,588.293,340C588.78,340,589.268,340,589.756,340C590.244,340,590.732,340,591.22,340C591.707,340,592.195,340,592.683,340C593.171,340,593.659,340,594.146,340C594.634,340,595.122,340,595.61,340C596.098,340,596.585,340,597.073,340C597.561,340,598.049,340,598.537,340C599.024,340,599.512,340,600,340C600.488,340,600.976,340,601.463,340C601.951,340,602.439,340,602.927,340C603.415,340,603.902,340,604.39,340C604.878,340,605.366,340,605.854,340C606.341,340,606.829,340,607.317,340C607.805,340,608.293,340,608.78,340C609.268,340,609.756,340,610.244,340C610.732,340,611.22,340,611.707,340C612.195,340,612.683,340,613.171,340C613.659,340,614.146,340,614.634,340C615.122,340,615.61,340,616.098,340C616.585,340,617.073,340,617.561,340C618.049,340,618.537,326.923,619.024,326.923C619.512,326.923,620,326.923,620.488,326.923C620.976,326.923,621.463,326.923,621.951,326.923C622.439,326.923,622.927,326.923,623.415,326.923C623.902,326.923,624.39,326.923,624.878,326.923C625.366,326.923,625.854,326.923,626.341,326.923C626.829,326.923,627.317,326.923,627.805,326.923C628.293,326.923,628.78,326.923,629.268,326.923C629.756,326.923,630.244,326.923,630.732,326.923C631.22,326.923,631.707,326.923,632.195,326.923C632.683,326.923,633.171,326.923,633.659,326.923C634.146,326.923,634.634,326.923,635.122,326.923C635.61,326.923,636.098,326.923,636.585,326.923C637.073,326.923,637.561,326.923,638.049,326.923C638.537,326.923,639.024,326.923,639.512,326.923C640,326.923,640.488,326.923,640.976,326.923C641.463,326.923,641.951,326.923,642.439,326.923C642.927,326.923,643.415,326.923,643.902,326.923C644.39,326.923,644.878,326.923,645.366,326.923C645.854,326.923,646.341,326.923,646.829,326.923C647.317,326.923,647.805,326.923,648.293,326.923C648.78,326.923,649.268,326.923,649.756,326.923C650.244,326.923,650.732,326.923,651.22,326.923C651.707,326.923,652.195,326.923,652.683,326.923C653.171,326.923,653.659,326.923,654.146,326.923C654.634,326.923,655.122,326.923,655.61,326.923C656.098,326.923,656.585,326.923,657.073,326.923C657.561,326.923,658.049,326.923,658.537,326.923C659.024,326.923,659.512,326.923,660,326.923C660.488,326.923,660.976,326.923,661.463,326.923C661.951,326.923,662.439,326.923,662.927,326.923C663.415,326.923,663.902,326.923,664.39,326.923C664.878,326.923,665.366,326.923,665.854,326.923C666.341,326.923,666.829,326.923,667.317,326.923C667.805,326.923,668.293,326.923,668.78,326.923C669.268,326.923,669.756,326.923,670.244,326.923C670.732,326.923,671.22,326.923,671.707,326.923C672.195,326.923,672.683,326.923,673.171,326.923C673.659,326.923,674.146,326.923,674.634,326.923C675.122,326.923,675.61,326.923,676.098,326.923C676.585,326.923,677.073,326.923,677.561,326.923C678.049,326.923,678.537,326.923,679.024,326.923C679.512,326.923,680,326.923,680.488,326.923C680.976,326.923,681.463,326.923,681.951,326.923C682.439,326.923,682.927,326.923,683.415,326.923C683.902,326.923,684.39,326.923,684.878,326.923C685.366,326.923,685.854,326.923,686.341,326.923C686.829,326.923,687.317,326.923,687.805,326.923C688.293,326.923,688.78,326.923,689.268,326.923C689.756,326.923,690.244,326.923,690.732,326.923C691.22,326.923,691.707,326.923,692.195,326.923C692.683,326.923,693.171,326.923,693.659,326.923C694.146,326.923,694.634,326.923,695.122,326.923C695.61,326.923,696.098,326.923,696.585,326.923C697.073,326.923,697.561,326.923,698.049,326.923C698.537,326.923,699.024,326.923,699.512,326.923C700,326.923,700.488,326.923,700.976,326.923C701.463,326.923,701.951,326.923,702.439,326.923C702.927,326.923,703.415,326.923,703.902,326.923C704.39,326.923,704.878,326.923,705.366,326.923C705.854,326.923,706.341,326.923,706.829,326.923C707.317,326.923,707.805,326.923,708.293,326.923C708.78,326.923,709.268,326.923,709.756,326.923C710.244,326.923,710.732,326.923,711.22,326.923C711.707,326.923,712.195,326.923,712.683,326.923C713.171,326.923,713.659,326.923,714.146,326.923C714.634,326.923,715.122,326.923,715.61,326.923C716.098,326.923,716.585,326.923,717.073,326.923C717.561,326.923,718.049,326.923,718.537,326.923C719.024,326.923,719.512,326.923,720,326.923"></path><circle class="dot" cx="0" cy="340" r="3" fill="#2563eb"></circle><circle class="dot" cx="1.4634146341463417" cy="340" r="3" fill="#2563eb"></circle><circle class="dot" cx="2.9268292682926833" cy="340" r="3" fill="#2563eb"></circle><circle class="dot" cx="4.390243902439025" cy="340" r="3" fill="#2563eb"></circle><circle class="dot" cx="5.853658536585367" cy="340" r="3" fill="#2563eb"></circle><circle class="dot" cx="7.317073170731707" cy="340" r="3" fill="#2563eb"></circle><circle class="dot" cx="8.78048780487805" cy="340" r="3" fill="#2563eb"></circle><circle class="dot" cx="10.24390243902439" cy="340" r="3" fill="#2563eb"></circle><circle class="dot" cx="11.707317073170733" cy="287.6923076923077" r="3" fill="#2563eb"></circle><circle class="dot" cx="13.170731707317072" cy="274.61538461538464" r="3" fill="#2563eb"></circle><circle class="dot" cx="14.634146341463413" cy="300.7692307692308" r="3" fill="#2563eb"></circle><circle class="dot" cx="16.097560975609756" cy="326.9230769230769" r="3" fill="#2563eb"></circle><circle class="dot" cx="17.5609756097561" cy="313.84615384615387" r="3" fill="#2563eb"></circle><circle class="dot" cx="19.02439024390244" cy="274.61538461538464" r="3" fill="#2563eb"></circle><circle class="dot" cx="20.48780487804878" cy="300.7692307692308" r="3" fill="#2563eb"></circle><circle class="dot" cx="21.95121951219512" cy="300.7692307692308" r="3" fill="#2563eb"></circle><circle class="dot" cx="23.414634146341466" cy="300.7692307692308" r="3" fill="#2563eb"></circle><circle class="dot" cx="24.878048780487806" cy="300.7692307692308" r="3" fill="#2563eb"></circle><circle class="dot" cx="26.341463414634145" cy="326.9230769230769" r="3" fill="#2563eb"></circle><circle class="dot" cx="27.804878048780488" cy="313.84615384615387" r="3" fill="#2563eb"></circle><circle class="dot" cx="29.268292682926827" cy="300.7692307692308" r="3" fill="#2563eb"></circle><circle class="dot" cx="30.731707317073173" cy="340" r="3" fill="#2563eb"></circle><circle class="dot" cx="32.19512195121951" cy="340" r="3" fill="#2563eb"></circle><circle class="dot" cx="33.65853658536585" cy="340" r="3" fill="#2563eb"></circle><circle class="dot" cx="35.1219512195122" cy="313.84615384615387" r="3" fill="#2563eb"></circle><circle class="dot" cx="36.58536585365854" cy="326.9230769230769" r="3" fill="#2563eb"></circle><circle class="dot" cx="38.04878048780488" cy="313.84615384615387" r="3" fill="#2563eb"></circle><circle class="dot" cx="39.51219512195122" cy="274.61538461538464" r="3" fill="#2563eb"></circle><circle class="dot" cx="40.97560975609756" cy="261.5384615384615" r="3" fill="#2563eb"></circle><circle class="dot" cx="42.4390243902439" cy="274.61538461538464" r="3" fill="#2563eb"></circle><circle class="dot" cx="43.90243902439024" cy="287.6923076923077" r="3" fill="#2563eb"></circle><circle class="dot" cx="45.36585365853658" cy="235.3846153846154" r="3" fill="#2563eb"></circle><circle class="dot" cx="46.82926829268293" cy="261.5384615384615" r="3" fill="#2563eb"></circle><circle class="dot" cx="48.29268292682927" cy="287.6923076923077" r="3" fill="#2563eb"></circle><circle class="dot" cx="49.75609756097561" cy="287.6923076923077" r="3" fill="#2563eb"></circle><circle class="dot" cx="51.21951219512195" cy="287.6923076923077" r="3" fill="#2563eb"></circle><circle class="dot" cx="52.68292682926829" cy="300.7692307692308" r="3" fill="#2563eb"></circle><circle class="dot" cx="54.146341463414636" cy="313.84615384615387" r="3" fill="#2563eb"></circle><circle class="dot" cx="55.609756097560975" cy="235.3846153846154" r="3" fill="#2563eb"></circle><circle class="dot" cx="57.073170731707314" cy="261.5384615384615" r="3" fill="#2563eb"></circle><circle class="dot" cx="58.536585365853654" cy="313.84615384615387" r="3" fill="#2563eb"></circle><circle class="dot" cx="60" cy="287.6923076923077" r="3" fill="#2563eb"></circle><circle class="dot" cx="61.463414634146346" cy="300.7692307692308" r="3" fill="#2563eb"></circle><circle class="dot" cx="62.926829268292686" cy="300.7692307692308" r="3" fill="#2563eb"></circle><circle class="dot" cx="64.39024390243902" cy="313.84615384615387" r="3" fill="#2563eb"></circle><circle class="dot" cx="65.85365853658537" cy="261.5384615384615" r="3" fill="#2563eb"></circle><circle class="dot" cx="67.3170731707317" cy="261.5384615384615" r="3" fill="#2563eb"></circle><circle class="dot" cx="68.78048780487805" cy="248.46153846153845" r="3" fill="#2563eb"></circle><circle class="dot" cx="70.2439024390244" cy="248.46153846153845" r="3" fill="#2563eb"></circle><circle class="dot" cx="71.70731707317073" cy="261.5384615384615" r="3" fill="#2563eb"></circle><circle class="dot" cx="73.17073170731707" cy="248.46153846153845" r="3" fill="#2563eb"></circle><circle class="dot" cx="74.6341463414634" cy="248.46153846153845" r="3" fill="#2563eb"></circle><circle class="dot" cx="76.09756097560977" cy="274.61538461538464" r="3" fill="#2563eb"></circle><circle class="dot" cx="77.5609756097561" cy="287.6923076923077" r="3" fill="#2563eb"></circle><circle class="dot" cx="79.02439024390245" cy="313.84615384615387" r="3" fill="#2563eb"></circle><circle class="dot" cx="80.48780487804878" cy="326.9230769230769" r="3" fill="#2563eb"></circle><circle class="dot" cx="81.95121951219512" cy="313.84615384615387" r="3" fill="#2563eb"></circle><circle class="dot" cx="83.41463414634147" cy="340" r="3" fill="#2563eb"></circle><circle class="dot" cx="84.8780487804878" cy="326.9230769230769" r="3" fill="#2563eb"></circle><circle class="dot" cx="86.34146341463415" cy="326.9230769230769" r="3" fill="#2563eb"></circle><circle class="dot" cx="87.80487804878048" cy="326.9230769230769" r="3" fill="#2563eb"></circle><circle class="dot" cx="89.26829268292683" cy="340" r="3" fill="#2563eb"></circle><circle class="dot" cx="90.73170731707316" cy="274.61538461538464" r="3" fill="#2563eb"></circle><circle class="dot" cx="92.19512195121952" cy="235.3846153846154" r="3" fill="#2563eb"></circle><circle class="dot" cx="93.65853658536587" cy="248.46153846153845" r="3" fill="#2563eb"></circle><circle class="dot" cx="95.1219512195122" cy="274.61538461538464" r="3" fill="#2563eb"></circle><circle class="dot" cx="96.58536585365854" cy="300.7692307692308" r="3" fill="#2563eb"></circle><circle class="dot" cx="98.04878048780488" cy="313.84615384615387" r="3" fill="#2563eb"></circle><circle class="dot" cx="99.51219512195122" cy="300.7692307692308" r="3" fill="#2563eb"></circle><circle class="dot" cx="100.97560975609757" cy="287.6923076923077" r="3" fill="#2563eb"></circle><circle class="dot" cx="102.4390243902439" cy="287.6923076923077" r="3" fill="#2563eb"></circle><circle class="dot" cx="103.90243902439025" cy="287.6923076923077" r="3" fill="#2563eb"></circle><circle class="dot" cx="105.36585365853658" cy="287.6923076923077" r="3" fill="#2563eb"></circle><circle class="dot" cx="106.82926829268293" cy="261.5384615384615" r="3" fill="#2563eb"></circle><circle class="dot" cx="108.29268292682927" cy="274.61538461538464" r="3" fill="#2563eb"></circle><circle class="dot" cx="109.7560975609756" cy="313.84615384615387" r="3" fill="#2563eb"></circle><circle class="dot" cx="111.21951219512195" cy="313.84615384615387" r="3" fill="#2563eb"></circle><circle class="dot" cx="112.68292682926828" cy="313.84615384615387" r="3" fill="#2563eb"></circle><circle class="dot" cx="114.14634146341463" cy="313.84615384615387" r="3" fill="#2563eb"></circle><circle class="dot" cx="115.60975609756099" cy="326.9230769230769" r="3" fill="#2563eb"></circle><circle class="dot" cx="117.07317073170731" cy="300.7692307692308" r="3" fill="#2563eb"></circle><circle class="dot" cx="118.53658536585367" cy="300.7692307692308" r="3" fill="#2563eb"></circle><circle class="dot" cx="120" cy="287.6923076923077" r="3" fill="#2563eb"></circle><circle class="dot" cx="121.46341463414635" cy="300.7692307692308" r="3" fill="#2563eb"></circle><circle class="dot" cx="122.92682926829269" cy="300.7692307692308" r="3" fill="#2563eb"></circle><circle class="dot" cx="124.39024390243902" cy="313.84615384615387" r="3" fill="#2563eb"></circle><circle class="dot" cx="125.85365853658537" cy="340" r="3" fill="#2563eb"></circle><circle class="dot" cx="127.3170731707317" cy="340" r="3" fill="#2563eb"></circle><circle class="dot" cx="128.78048780487805" cy="340" r="3" fill="#2563eb"></circle><circle class="dot" cx="130.2439024390244" cy="340" r="3" fill="#2563eb"></circle><circle class="dot" cx="131.70731707317074" cy="340" r="3" fill="#2563eb"></circle><circle class="dot" cx="133.1707317073171" cy="340" r="3" fill="#2563eb"></circle><circle class="dot" cx="134.6341463414634" cy="340" r="3" fill="#2563eb"></circle><circle class="dot" cx="136.09756097560975" cy="340" r="3" fill="#2563eb"></circle><circle class="dot" cx="137.5609756097561" cy="340" r="3" fill="#2563eb"></circle><circle class="dot" cx="139.02439024390245" cy="340" r="3" fill="#2563eb"></circle><circle class="dot" cx="140.4878048780488" cy="340" r="3" fill="#2563eb"></circle><circle class="dot" cx="141.9512195121951" cy="340" r="3" fill="#2563eb"></circle><circle class="dot" cx="143.41463414634146" cy="340" r="3" fill="#2563eb"></circle><circle class="dot" cx="144.8780487804878" cy="340" r="3" fill="#2563eb"></circle><circle class="dot" cx="146.34146341463415" cy="340" r="3" fill="#2563eb"></circle><circle class="dot" cx="147.8048780487805" cy="340" r="3" fill="#2563eb"></circle><circle class="dot" cx="149.2682926829268" cy="340" r="3" fill="#2563eb"></circle><circle class="dot" cx="150.73170731707316" cy="340" r="3" fill="#2563eb"></circle><circle class="dot" cx="152.19512195121953" cy="274.61538461538464" r="3" fill="#2563eb"></circle><circle class="dot" cx="153.65853658536585" cy="340" r="3" fill="#2563eb"></circle><circle class="dot" cx="155.1219512195122" cy="340" r="3" fill="#2563eb"></circle><circle class="dot" cx="156.58536585365852" cy="340" r="3" fill="#2563eb"></circle><circle class="dot" cx="158.0487804878049" cy="326.9230769230769" r="3" fill="#2563eb"></circle><circle class="dot" cx="159.51219512195124" cy="248.46153846153845" r="3" fill="#2563eb"></circle><circle class="dot" cx="160.97560975609755" cy="261.5384615384615" r="3" fill="#2563eb"></circle><circle class="dot" cx="162.4390243902439" cy="340" r="3" fill="#2563eb"></circle><circle class="dot" cx="163.90243902439025" cy="326.9230769230769" r="3" fill="#2563eb"></circle><circle class="dot" cx="165.3658536585366" cy="313.84615384615387" r="3" fill="#2563eb"></circle><circle class="dot" cx="166.82926829268294" cy="326.9230769230769" r="3" fill="#2563eb"></circle><circle class="dot" cx="168.29268292682926" cy="313.84615384615387" r="3" fill="#2563eb"></circle><circle class="dot" cx="169.7560975609756" cy="313.84615384615387" r="3" fill="#2563eb"></circle><circle class="dot" cx="171.21951219512195" cy="313.84615384615387" r="3" fill="#2563eb"></circle><circle class="dot" cx="172.6829268292683" cy="340" r="3" fill="#2563eb"></circle><circle class="dot" cx="174.14634146341464" cy="340" r="3" fill="#2563eb"></circle><circle class="dot" cx="175.60975609756096" cy="340" r="3" fill="#2563eb"></circle><circle class="dot" cx="177.0731707317073" cy="326.9230769230769" r="3" fill="#2563eb"></circle><circle class="dot" cx="178.53658536585365" cy="340" r="3" fill="#2563eb"></circle><circle class="dot" cx="180" cy="340" r="3" fill="#2563eb"></circle><circle class="dot" cx="181.46341463414632" cy="340" r="3" fill="#2563eb"></circle><circle class="dot" cx="182.9268292682927" cy="340" r="3" fill="#2563eb"></circle><circle class="dot" cx="184.39024390243904" cy="340" r="3" fill="#2563eb"></circle><circle class="dot" cx="185.85365853658536" cy="340" r="3" fill="#2563eb"></circle><circle class="dot" cx="187.31707317073173" cy="340" r="3" fill="#2563eb"></circle><circle class="dot" cx="188.78048780487805" cy="340" r="3" fill="#2563eb"></circle><circle class="dot" cx="190.2439024390244" cy="340" r="3" fill="#2563eb"></circle><circle class="dot" cx="191.7073170731707" cy="340" r="3" fill="#2563eb"></circle><circle class="dot" cx="193.1707317073171" cy="340" r="3" fill="#2563eb"></circle><circle class="dot" cx="194.6341463414634" cy="340" r="3" fill="#2563eb"></circle><circle class="dot" cx="196.09756097560975" cy="340" r="3" fill="#2563eb"></circle><circle class="dot" cx="197.5609756097561" cy="340" r="3" fill="#2563eb"></circle><circle class="dot" cx="199.02439024390245" cy="340" r="3" fill="#2563eb"></circle><circle class="dot" cx="200.48780487804876" cy="340" r="3" fill="#2563eb"></circle><circle class="dot" cx="201.95121951219514" cy="340" r="3" fill="#2563eb"></circle><circle class="dot" cx="203.41463414634148" cy="340" r="3" fill="#2563eb"></circle><circle class="dot" cx="204.8780487804878" cy="340" r="3" fill="#2563eb"></circle><circle class="dot" cx="206.34146341463412" cy="340" r="3" fill="#2563eb"></circle><circle class="dot" cx="207.8048780487805" cy="340" r="3" fill="#2563eb"></circle><circle class="dot" cx="209.26829268292684" cy="340" r="3" fill="#2563eb"></circle><circle class="dot" cx="210.73170731707316" cy="340" r="3" fill="#2563eb"></circle><circle class="dot" cx="212.19512195121953" cy="340" r="3" fill="#2563eb"></circle><circle class="dot" cx="213.65853658536585" cy="340" r="3" fill="#2563eb"></circle><circle class="dot" cx="215.1219512195122" cy="340" r="3" fill="#2563eb"></circle><circle class="dot" cx="216.58536585365854" cy="340" r="3" fill="#2563eb"></circle><circle class="dot" cx="218.0487804878049" cy="340" r="3" fill="#2563eb"></circle><circle class="dot" cx="219.5121951219512" cy="340" r="3" fill="#2563eb"></circle><circle class="dot" cx="220.97560975609755" cy="340" r="3" fill="#2563eb"></circle><circle class="dot" cx="222.4390243902439" cy="313.84615384615387" r="3" fill="#2563eb"></circle><circle class="dot" cx="223.90243902439025" cy="326.9230769230769" r="3" fill="#2563eb"></circle><circle class="dot" cx="225.36585365853657" cy="340" r="3" fill="#2563eb"></circle><circle class="dot" cx="226.82926829268294" cy="326.9230769230769" r="3" fill="#2563eb"></circle><circle class="dot" cx="228.29268292682926" cy="313.84615384615387" r="3" fill="#2563eb"></circle><circle class="dot" cx="229.7560975609756" cy="313.84615384615387" r="3" fill="#2563eb"></circle><circle class="dot" cx="231.21951219512198" cy="300.7692307692308" r="3" fill="#2563eb"></circle><circle class="dot" cx="232.6829268292683" cy="274.61538461538464" r="3" fill="#2563eb"></circle><circle class="dot" cx="234.14634146341461" cy="274.61538461538464" r="3" fill="#2563eb"></circle><circle class="dot" cx="235.60975609756096" cy="287.6923076923077" r="3" fill="#2563eb"></circle><circle class="dot" cx="237.07317073170734" cy="300.7692307692308" r="3" fill="#2563eb"></circle><circle class="dot" cx="238.53658536585365" cy="300.7692307692308" r="3" fill="#2563eb"></circle><circle class="dot" cx="240" cy="287.6923076923077" r="3" fill="#2563eb"></circle><circle class="dot" cx="241.46341463414635" cy="300.7692307692308" r="3" fill="#2563eb"></circle><circle class="dot" cx="242.9268292682927" cy="300.7692307692308" r="3" fill="#2563eb"></circle><circle class="dot" cx="244.390243902439" cy="274.61538461538464" r="3" fill="#2563eb"></circle><circle class="dot" cx="245.85365853658539" cy="274.61538461538464" r="3" fill="#2563eb"></circle><circle class="dot" cx="247.3170731707317" cy="261.5384615384615" r="3" fill="#2563eb"></circle><circle class="dot" cx="248.78048780487805" cy="261.5384615384615" r="3" fill="#2563eb"></circle><circle class="dot" cx="250.24390243902437" cy="248.46153846153845" r="3" fill="#2563eb"></circle><circle class="dot" cx="251.70731707317074" cy="261.5384615384615" r="3" fill="#2563eb"></circle><circle class="dot" cx="253.17073170731706" cy="274.61538461538464" r="3" fill="#2563eb"></circle><circle class="dot" cx="254.6341463414634" cy="274.61538461538464" r="3" fill="#2563eb"></circle><circle class="dot" cx="256.0975609756098" cy="287.6923076923077" r="3" fill="#2563eb"></circle><circle class="dot" cx="257.5609756097561" cy="287.6923076923077" r="3" fill="#2563eb"></circle><circle class="dot" cx="259.0243902439024" cy="274.61538461538464" r="3" fill="#2563eb"></circle><circle class="dot" cx="260.4878048780488" cy="248.46153846153845" r="3" fill="#2563eb"></circle><circle class="dot" cx="261.9512195121951" cy="235.3846153846154" r="3" fill="#2563eb"></circle><circle class="dot" cx="263.4146341463415" cy="235.3846153846154" r="3" fill="#2563eb"></circle><circle class="dot" cx="264.8780487804878" cy="235.3846153846154" r="3" fill="#2563eb"></circle><circle class="dot" cx="266.3414634146342" cy="248.46153846153845" r="3" fill="#2563eb"></circle><circle class="dot" cx="267.8048780487805" cy="222.30769230769232" r="3" fill="#2563eb"></circle><circle class="dot" cx="269.2682926829268" cy="196.15384615384616" r="3" fill="#2563eb"></circle><circle class="dot" cx="270.7317073170732" cy="209.23076923076925" r="3" fill="#2563eb"></circle><circle class="dot" cx="272.1951219512195" cy="235.3846153846154" r="3" fill="#2563eb"></circle><circle class="dot" cx="273.6585365853658" cy="209.23076923076925" r="3" fill="#2563eb"></circle><circle class="dot" cx="275.1219512195122" cy="248.46153846153845" r="3" fill="#2563eb"></circle><circle class="dot" cx="276.5853658536585" cy="248.46153846153845" r="3" fill="#2563eb"></circle><circle class="dot" cx="278.0487804878049" cy="222.30769230769232" r="3" fill="#2563eb"></circle><circle class="dot" cx="279.5121951219512" cy="235.3846153846154" r="3" fill="#2563eb"></circle><circle class="dot" cx="280.9756097560976" cy="248.46153846153845" r="3" fill="#2563eb"></circle><circle class="dot" cx="282.4390243902439" cy="248.46153846153845" r="3" fill="#2563eb"></circle><circle class="dot" cx="283.9024390243902" cy="196.15384615384616" r="3" fill="#2563eb"></circle><circle class="dot" cx="285.3658536585366" cy="196.15384615384616" r="3" fill="#2563eb"></circle><circle class="dot" cx="286.8292682926829" cy="183.0769230769231" r="3" fill="#2563eb"></circle><circle class="dot" cx="288.29268292682923" cy="248.46153846153845" r="3" fill="#2563eb"></circle><circle class="dot" cx="289.7560975609756" cy="248.46153846153845" r="3" fill="#2563eb"></circle><circle class="dot" cx="291.219512195122" cy="196.15384615384616" r="3" fill="#2563eb"></circle><circle class="dot" cx="292.6829268292683" cy="183.0769230769231" r="3" fill="#2563eb"></circle><circle class="dot" cx="294.1463414634146" cy="183.0769230769231" r="3" fill="#2563eb"></circle><circle class="dot" cx="295.609756097561" cy="183.0769230769231" r="3" fill="#2563eb"></circle><circle class="dot" cx="297.0731707317073" cy="196.15384615384616" r="3" fill="#2563eb"></circle><circle class="dot" cx="298.5365853658536" cy="209.23076923076925" r="3" fill="#2563eb"></circle><circle class="dot" cx="300" cy="196.15384615384616" r="3" fill="#2563eb"></circle><circle class="dot" cx="301.4634146341463" cy="183.0769230769231" r="3" fill="#2563eb"></circle><circle class="dot" cx="302.9268292682927" cy="248.46153846153845" r="3" fill="#2563eb"></circle><circle class="dot" cx="304.39024390243907" cy="326.9230769230769" r="3" fill="#2563eb"></circle><circle class="dot" cx="305.8536585365854" cy="326.9230769230769" r="3" fill="#2563eb"></circle><circle class="dot" cx="307.3170731707317" cy="313.84615384615387" r="3" fill="#2563eb"></circle><circle class="dot" cx="308.780487804878" cy="300.7692307692308" r="3" fill="#2563eb"></circle><circle class="dot" cx="310.2439024390244" cy="287.6923076923077" r="3" fill="#2563eb"></circle><circle class="dot" cx="311.7073170731707" cy="287.6923076923077" r="3" fill="#2563eb"></circle><circle class="dot" cx="313.17073170731703" cy="300.7692307692308" r="3" fill="#2563eb"></circle><circle class="dot" cx="314.6341463414634" cy="287.6923076923077" r="3" fill="#2563eb"></circle><circle class="dot" cx="316.0975609756098" cy="287.6923076923077" r="3" fill="#2563eb"></circle><circle class="dot" cx="317.5609756097561" cy="313.84615384615387" r="3" fill="#2563eb"></circle><circle class="dot" cx="319.0243902439025" cy="300.7692307692308" r="3" fill="#2563eb"></circle><circle class="dot" cx="320.4878048780488" cy="274.61538461538464" r="3" fill="#2563eb"></circle><circle class="dot" cx="321.9512195121951" cy="274.61538461538464" r="3" fill="#2563eb"></circle><circle class="dot" cx="323.4146341463414" cy="287.6923076923077" r="3" fill="#2563eb"></circle><circle class="dot" cx="324.8780487804878" cy="300.7692307692308" r="3" fill="#2563eb"></circle><circle class="dot" cx="326.3414634146341" cy="222.30769230769232" r="3" fill="#2563eb"></circle><circle class="dot" cx="327.8048780487805" cy="196.15384615384616" r="3" fill="#2563eb"></circle><circle class="dot" cx="329.26829268292687" cy="222.30769230769232" r="3" fill="#2563eb"></circle><circle class="dot" cx="330.7317073170732" cy="222.30769230769232" r="3" fill="#2563eb"></circle><circle class="dot" cx="332.1951219512195" cy="235.3846153846154" r="3" fill="#2563eb"></circle><circle class="dot" cx="333.6585365853659" cy="326.9230769230769" r="3" fill="#2563eb"></circle><circle class="dot" cx="335.1219512195122" cy="274.61538461538464" r="3" fill="#2563eb"></circle><circle class="dot" cx="336.5853658536585" cy="222.30769230769232" r="3" fill="#2563eb"></circle><circle class="dot" cx="338.04878048780483" cy="248.46153846153845" r="3" fill="#2563eb"></circle><circle class="dot" cx="339.5121951219512" cy="287.6923076923077" r="3" fill="#2563eb"></circle><circle class="dot" cx="340.9756097560976" cy="300.7692307692308" r="3" fill="#2563eb"></circle><circle class="dot" cx="342.4390243902439" cy="313.84615384615387" r="3" fill="#2563eb"></circle><circle class="dot" cx="343.9024390243903" cy="340" r="3" fill="#2563eb"></circle><circle class="dot" cx="345.3658536585366" cy="340" r="3" fill="#2563eb"></circle><circle class="dot" cx="346.8292682926829" cy="340" r="3" fill="#2563eb"></circle><circle class="dot" cx="348.2926829268293" cy="340" r="3" fill="#2563eb"></circle><circle class="dot" cx="349.7560975609756" cy="340" r="3" fill="#2563eb"></circle><circle class="dot" cx="351.2195121951219" cy="340" r="3" fill="#2563eb"></circle><circle class="dot" cx="352.6829268292683" cy="340" r="3" fill="#2563eb"></circle><circle class="dot" cx="354.1463414634146" cy="340" r="3" fill="#2563eb"></circle><circle class="dot" cx="355.609756097561" cy="340" r="3" fill="#2563eb"></circle><circle class="dot" cx="357.0731707317073" cy="326.9230769230769" r="3" fill="#2563eb"></circle><circle class="dot" cx="358.5365853658537" cy="326.9230769230769" r="3" fill="#2563eb"></circle><circle class="dot" cx="360" cy="326.9230769230769" r="3" fill="#2563eb"></circle><circle class="dot" cx="361.4634146341464" cy="313.84615384615387" r="3" fill="#2563eb"></circle><circle class="dot" cx="362.92682926829264" cy="313.84615384615387" r="3" fill="#2563eb"></circle><circle class="dot" cx="364.390243902439" cy="340" r="3" fill="#2563eb"></circle><circle class="dot" cx="365.8536585365854" cy="340" r="3" fill="#2563eb"></circle><circle class="dot" cx="367.3170731707317" cy="326.9230769230769" r="3" fill="#2563eb"></circle><circle class="dot" cx="368.7804878048781" cy="326.9230769230769" r="3" fill="#2563eb"></circle><circle class="dot" cx="370.24390243902445" cy="287.6923076923077" r="3" fill="#2563eb"></circle><circle class="dot" cx="371.7073170731707" cy="274.61538461538464" r="3" fill="#2563eb"></circle><circle class="dot" cx="373.1707317073171" cy="287.6923076923077" r="3" fill="#2563eb"></circle><circle class="dot" cx="374.63414634146346" cy="313.84615384615387" r="3" fill="#2563eb"></circle><circle class="dot" cx="376.0975609756097" cy="313.84615384615387" r="3" fill="#2563eb"></circle><circle class="dot" cx="377.5609756097561" cy="340" r="3" fill="#2563eb"></circle><circle class="dot" cx="379.0243902439024" cy="340" r="3" fill="#2563eb"></circle><circle class="dot" cx="380.4878048780488" cy="340" r="3" fill="#2563eb"></circle><circle class="dot" cx="381.95121951219517" cy="340" r="3" fill="#2563eb"></circle><circle class="dot" cx="383.4146341463414" cy="340" r="3" fill="#2563eb"></circle><circle class="dot" cx="384.8780487804878" cy="326.9230769230769" r="3" fill="#2563eb"></circle><circle class="dot" cx="386.3414634146342" cy="300.7692307692308" r="3" fill="#2563eb"></circle><circle class="dot" cx="387.80487804878044" cy="235.3846153846154" r="3" fill="#2563eb"></circle><circle class="dot" cx="389.2682926829268" cy="261.5384615384615" r="3" fill="#2563eb"></circle><circle class="dot" cx="390.7317073170732" cy="248.46153846153845" r="3" fill="#2563eb"></circle><circle class="dot" cx="392.1951219512195" cy="248.46153846153845" r="3" fill="#2563eb"></circle><circle class="dot" cx="393.6585365853659" cy="235.3846153846154" r="3" fill="#2563eb"></circle><circle class="dot" cx="395.1219512195122" cy="196.15384615384616" r="3" fill="#2563eb"></circle><circle class="dot" cx="396.5853658536585" cy="130.76923076923075" r="3" fill="#2563eb"></circle><circle class="dot" cx="398.0487804878049" cy="156.92307692307693" r="3" fill="#2563eb"></circle><circle class="dot" cx="399.51219512195127" cy="183.0769230769231" r="3" fill="#2563eb"></circle><circle class="dot" cx="400.9756097560975" cy="235.3846153846154" r="3" fill="#2563eb"></circle><circle class="dot" cx="402.4390243902439" cy="235.3846153846154" r="3" fill="#2563eb"></circle><circle class="dot" cx="403.9024390243903" cy="235.3846153846154" r="3" fill="#2563eb"></circle><circle class="dot" cx="405.3658536585366" cy="235.3846153846154" r="3" fill="#2563eb"></circle><circle class="dot" cx="406.82926829268297" cy="235.3846153846154" r="3" fill="#2563eb"></circle><circle class="dot" cx="408.29268292682923" cy="222.30769230769232" r="3" fill="#2563eb"></circle><circle class="dot" cx="409.7560975609756" cy="248.46153846153845" r="3" fill="#2563eb"></circle><circle class="dot" cx="411.219512195122" cy="235.3846153846154" r="3" fill="#2563eb"></circle><circle class="dot" cx="412.68292682926824" cy="209.23076923076925" r="3" fill="#2563eb"></circle><circle class="dot" cx="414.1463414634146" cy="183.0769230769231" r="3" fill="#2563eb"></circle><circle class="dot" cx="415.609756097561" cy="130.76923076923075" r="3" fill="#2563eb"></circle><circle class="dot" cx="417.0731707317073" cy="130.76923076923075" r="3" fill="#2563eb"></circle><circle class="dot" cx="418.5365853658537" cy="156.92307692307693" r="3" fill="#2563eb"></circle><circle class="dot" cx="420" cy="91.53846153846155" r="3" fill="#2563eb"></circle><circle class="dot" cx="421.4634146341463" cy="78.46153846153848" r="3" fill="#2563eb"></circle><circle class="dot" cx="422.9268292682927" cy="78.46153846153848" r="3" fill="#2563eb"></circle><circle class="dot" cx="424.39024390243907" cy="104.61538461538463" r="3" fill="#2563eb"></circle><circle class="dot" cx="425.8536585365853" cy="91.53846153846155" r="3" fill="#2563eb"></circle><circle class="dot" cx="427.3170731707317" cy="52.307692307692314" r="3" fill="#2563eb"></circle><circle class="dot" cx="428.7804878048781" cy="52.307692307692314" r="3" fill="#2563eb"></circle><circle class="dot" cx="430.2439024390244" cy="65.38461538461542" r="3" fill="#2563eb"></circle><circle class="dot" cx="431.70731707317077" cy="65.38461538461542" r="3" fill="#2563eb"></circle><circle class="dot" cx="433.1707317073171" cy="52.307692307692314" r="3" fill="#2563eb"></circle><circle class="dot" cx="434.6341463414634" cy="39.23076923076924" r="3" fill="#2563eb"></circle><circle class="dot" cx="436.0975609756098" cy="13.076923076923105" r="3" fill="#2563eb"></circle><circle class="dot" cx="437.56097560975604" cy="78.46153846153848" r="3" fill="#2563eb"></circle><circle class="dot" cx="439.0243902439024" cy="156.92307692307693" r="3" fill="#2563eb"></circle><circle class="dot" cx="440.4878048780488" cy="340" r="3" fill="#2563eb"></circle><circle class="dot" cx="441.9512195121951" cy="340" r="3" fill="#2563eb"></circle><circle class="dot" cx="443.4146341463415" cy="340" r="3" fill="#2563eb"></circle><circle class="dot" cx="444.8780487804878" cy="340" r="3" fill="#2563eb"></circle><circle class="dot" cx="446.3414634146341" cy="340" r="3" fill="#2563eb"></circle><circle class="dot" cx="447.8048780487805" cy="340" r="3" fill="#2563eb"></circle><circle class="dot" cx="449.26829268292687" cy="340" r="3" fill="#2563eb"></circle><circle class="dot" cx="450.73170731707313" cy="340" r="3" fill="#2563eb"></circle><circle class="dot" cx="452.1951219512195" cy="340" r="3" fill="#2563eb"></circle><circle class="dot" cx="453.6585365853659" cy="340" r="3" fill="#2563eb"></circle><circle class="dot" cx="455.1219512195122" cy="340" r="3" fill="#2563eb"></circle><circle class="dot" cx="456.5853658536585" cy="313.84615384615387" r="3" fill="#2563eb"></circle><circle class="dot" cx="458.0487804878049" cy="313.84615384615387" r="3" fill="#2563eb"></circle><circle class="dot" cx="459.5121951219512" cy="274.61538461538464" r="3" fill="#2563eb"></circle><circle class="dot" cx="460.9756097560976" cy="222.30769230769232" r="3" fill="#2563eb"></circle><circle class="dot" cx="462.43902439024396" cy="287.6923076923077" r="3" fill="#2563eb"></circle><circle class="dot" cx="463.9024390243902" cy="274.61538461538464" r="3" fill="#2563eb"></circle><circle class="dot" cx="465.3658536585366" cy="222.30769230769232" r="3" fill="#2563eb"></circle><circle class="dot" cx="466.8292682926829" cy="248.46153846153845" r="3" fill="#2563eb"></circle><circle class="dot" cx="468.29268292682923" cy="248.46153846153845" r="3" fill="#2563eb"></circle><circle class="dot" cx="469.7560975609756" cy="248.46153846153845" r="3" fill="#2563eb"></circle><circle class="dot" cx="471.2195121951219" cy="235.3846153846154" r="3" fill="#2563eb"></circle><circle class="dot" cx="472.6829268292683" cy="248.46153846153845" r="3" fill="#2563eb"></circle><circle class="dot" cx="474.1463414634147" cy="326.9230769230769" r="3" fill="#2563eb"></circle><circle class="dot" cx="475.60975609756093" cy="326.9230769230769" r="3" fill="#2563eb"></circle><circle class="dot" cx="477.0731707317073" cy="340" r="3" fill="#2563eb"></circle><circle class="dot" cx="478.5365853658537" cy="340" r="3" fill="#2563eb"></circle><circle class="dot" cx="480" cy="340" r="3" fill="#2563eb"></circle><circle class="dot" cx="481.4634146341463" cy="287.6923076923077" r="3" fill="#2563eb"></circle><circle class="dot" cx="482.9268292682927" cy="222.30769230769232" r="3" fill="#2563eb"></circle><circle class="dot" cx="484.390243902439" cy="274.61538461538464" r="3" fill="#2563eb"></circle><circle class="dot" cx="485.8536585365854" cy="300.7692307692308" r="3" fill="#2563eb"></circle><circle class="dot" cx="487.31707317073176" cy="287.6923076923077" r="3" fill="#2563eb"></circle><circle class="dot" cx="488.780487804878" cy="261.5384615384615" r="3" fill="#2563eb"></circle><circle class="dot" cx="490.2439024390244" cy="287.6923076923077" r="3" fill="#2563eb"></circle><circle class="dot" cx="491.70731707317077" cy="340" r="3" fill="#2563eb"></circle><circle class="dot" cx="493.17073170731703" cy="326.9230769230769" r="3" fill="#2563eb"></circle><circle class="dot" cx="494.6341463414634" cy="313.84615384615387" r="3" fill="#2563eb"></circle><circle class="dot" cx="496.0975609756097" cy="340" r="3" fill="#2563eb"></circle><circle class="dot" cx="497.5609756097561" cy="340" r="3" fill="#2563eb"></circle><circle class="dot" cx="499.0243902439025" cy="340" r="3" fill="#2563eb"></circle><circle class="dot" cx="500.48780487804873" cy="340" r="3" fill="#2563eb"></circle><circle class="dot" cx="501.9512195121951" cy="340" r="3" fill="#2563eb"></circle><circle class="dot" cx="503.4146341463415" cy="340" r="3" fill="#2563eb"></circle><circle class="dot" cx="504.8780487804878" cy="340" r="3" fill="#2563eb"></circle><circle class="dot" cx="506.3414634146341" cy="340" r="3" fill="#2563eb"></circle><circle class="dot" cx="507.8048780487805" cy="340" r="3" fill="#2563eb"></circle><circle class="dot" cx="509.2682926829268" cy="340" r="3" fill="#2563eb"></circle><circle class="dot" cx="510.7317073170732" cy="340" r="3" fill="#2563eb"></circle><circle class="dot" cx="512.1951219512196" cy="340" r="3" fill="#2563eb"></circle><circle class="dot" cx="513.6585365853658" cy="340" r="3" fill="#2563eb"></circle><circle class="dot" cx="515.1219512195122" cy="340" r="3" fill="#2563eb"></circle><circle class="dot" cx="516.5853658536586" cy="340" r="3" fill="#2563eb"></circle><circle class="dot" cx="518.0487804878048" cy="340" r="3" fill="#2563eb"></circle><circle class="dot" cx="519.5121951219512" cy="340" r="3" fill="#2563eb"></circle><circle class="dot" cx="520.9756097560976" cy="340" r="3" fill="#2563eb"></circle><circle class="dot" cx="522.4390243902438" cy="340" r="3" fill="#2563eb"></circle><circle class="dot" cx="523.9024390243902" cy="340" r="3" fill="#2563eb"></circle><circle class="dot" cx="525.3658536585366" cy="340" r="3" fill="#2563eb"></circle><circle class="dot" cx="526.829268292683" cy="340" r="3" fill="#2563eb"></circle><circle class="dot" cx="528.2926829268292" cy="340" r="3" fill="#2563eb"></circle><circle class="dot" cx="529.7560975609756" cy="340" r="3" fill="#2563eb"></circle><circle class="dot" cx="531.219512195122" cy="340" r="3" fill="#2563eb"></circle><circle class="dot" cx="532.6829268292684" cy="340" r="3" fill="#2563eb"></circle><circle class="dot" cx="534.1463414634146" cy="340" r="3" fill="#2563eb"></circle><circle class="dot" cx="535.609756097561" cy="340" r="3" fill="#2563eb"></circle><circle class="dot" cx="537.0731707317074" cy="340" r="3" fill="#2563eb"></circle><circle class="dot" cx="538.5365853658536" cy="340" r="3" fill="#2563eb"></circle><circle class="dot" cx="540" cy="340" r="3" fill="#2563eb"></circle><circle class="dot" cx="541.4634146341464" cy="340" r="3" fill="#2563eb"></circle><circle class="dot" cx="542.9268292682926" cy="340" r="3" fill="#2563eb"></circle><circle class="dot" cx="544.390243902439" cy="340" r="3" fill="#2563eb"></circle><circle class="dot" cx="545.8536585365854" cy="340" r="3" fill="#2563eb"></circle><circle class="dot" cx="547.3170731707316" cy="340" r="3" fill="#2563eb"></circle><circle class="dot" cx="548.780487804878" cy="340" r="3" fill="#2563eb"></circle><circle class="dot" cx="550.2439024390244" cy="340" r="3" fill="#2563eb"></circle><circle class="dot" cx="551.7073170731708" cy="340" r="3" fill="#2563eb"></circle><circle class="dot" cx="553.170731707317" cy="340" r="3" fill="#2563eb"></circle><circle class="dot" cx="554.6341463414634" cy="340" r="3" fill="#2563eb"></circle><circle class="dot" cx="556.0975609756098" cy="340" r="3" fill="#2563eb"></circle><circle class="dot" cx="557.5609756097562" cy="340" r="3" fill="#2563eb"></circle><circle class="dot" cx="559.0243902439024" cy="340" r="3" fill="#2563eb"></circle><circle class="dot" cx="560.4878048780488" cy="340" r="3" fill="#2563eb"></circle><circle class="dot" cx="561.9512195121952" cy="340" r="3" fill="#2563eb"></circle><circle class="dot" cx="563.4146341463414" cy="340" r="3" fill="#2563eb"></circle><circle class="dot" cx="564.8780487804878" cy="340" r="3" fill="#2563eb"></circle><circle class="dot" cx="566.3414634146342" cy="340" r="3" fill="#2563eb"></circle><circle class="dot" cx="567.8048780487804" cy="340" r="3" fill="#2563eb"></circle><circle class="dot" cx="569.2682926829268" cy="340" r="3" fill="#2563eb"></circle><circle class="dot" cx="570.7317073170732" cy="340" r="3" fill="#2563eb"></circle><circle class="dot" cx="572.1951219512194" cy="340" r="3" fill="#2563eb"></circle><circle class="dot" cx="573.6585365853658" cy="340" r="3" fill="#2563eb"></circle><circle class="dot" cx="575.1219512195122" cy="340" r="3" fill="#2563eb"></circle><circle class="dot" cx="576.5853658536585" cy="340" r="3" fill="#2563eb"></circle><circle class="dot" cx="578.0487804878048" cy="340" r="3" fill="#2563eb"></circle><circle class="dot" cx="579.5121951219512" cy="340" r="3" fill="#2563eb"></circle><circle class="dot" cx="580.9756097560976" cy="340" r="3" fill="#2563eb"></circle><circle class="dot" cx="582.439024390244" cy="340" r="3" fill="#2563eb"></circle><circle class="dot" cx="583.9024390243903" cy="340" r="3" fill="#2563eb"></circle><circle class="dot" cx="585.3658536585366" cy="340" r="3" fill="#2563eb"></circle><circle class="dot" cx="586.829268292683" cy="340" r="3" fill="#2563eb"></circle><circle class="dot" cx="588.2926829268292" cy="340" r="3" fill="#2563eb"></circle><circle class="dot" cx="589.7560975609756" cy="340" r="3" fill="#2563eb"></circle><circle class="dot" cx="591.219512195122" cy="340" r="3" fill="#2563eb"></circle><circle class="dot" cx="592.6829268292682" cy="340" r="3" fill="#2563eb"></circle><circle class="dot" cx="594.1463414634146" cy="340" r="3" fill="#2563eb"></circle><circle class="dot" cx="595.609756097561" cy="340" r="3" fill="#2563eb"></circle><circle class="dot" cx="597.0731707317073" cy="340" r="3" fill="#2563eb"></circle><circle class="dot" cx="598.5365853658536" cy="340" r="3" fill="#2563eb"></circle><circle class="dot" cx="600" cy="340" r="3" fill="#2563eb"></circle><circle class="dot" cx="601.4634146341463" cy="340" r="3" fill="#2563eb"></circle><circle class="dot" cx="602.9268292682926" cy="340" r="3" fill="#2563eb"></circle><circle class="dot" cx="604.390243902439" cy="340" r="3" fill="#2563eb"></circle><circle class="dot" cx="605.8536585365854" cy="340" r="3" fill="#2563eb"></circle><circle class="dot" cx="607.3170731707318" cy="340" r="3" fill="#2563eb"></circle><circle class="dot" cx="608.7804878048781" cy="340" r="3" fill="#2563eb"></circle><circle class="dot" cx="610.2439024390244" cy="340" r="3" fill="#2563eb"></circle><circle class="dot" cx="611.7073170731708" cy="340" r="3" fill="#2563eb"></circle><circle class="dot" cx="613.1707317073171" cy="340" r="3" fill="#2563eb"></circle><circle class="dot" cx="614.6341463414634" cy="340" r="3" fill="#2563eb"></circle><circle class="dot" cx="616.0975609756098" cy="340" r="3" fill="#2563eb"></circle><circle class="dot" cx="617.560975609756" cy="340" r="3" fill="#2563eb"></circle><circle class="dot" cx="619.0243902439024" cy="326.9230769230769" r="3" fill="#2563eb"></circle><circle class="dot" cx="620.4878048780488" cy="326.9230769230769" r="3" fill="#2563eb"></circle><circle class="dot" cx="621.951219512195" cy="326.9230769230769" r="3" fill="#2563eb"></circle><circle class="dot" cx="623.4146341463414" cy="326.9230769230769" r="3" fill="#2563eb"></circle><circle class="dot" cx="624.8780487804878" cy="326.9230769230769" r="3" fill="#2563eb"></circle><circle class="dot" cx="626.3414634146341" cy="326.9230769230769" r="3" fill="#2563eb"></circle><circle class="dot" cx="627.8048780487804" cy="326.9230769230769" r="3" fill="#2563eb"></circle><circle class="dot" cx="629.2682926829268" cy="326.9230769230769" r="3" fill="#2563eb"></circle><circle class="dot" cx="630.7317073170732" cy="326.9230769230769" r="3" fill="#2563eb"></circle><circle class="dot" cx="632.1951219512196" cy="326.9230769230769" r="3" fill="#2563eb"></circle><circle class="dot" cx="633.6585365853659" cy="326.9230769230769" r="3" fill="#2563eb"></circle><circle class="dot" cx="635.1219512195122" cy="326.9230769230769" r="3" fill="#2563eb"></circle><circle class="dot" cx="636.5853658536586" cy="326.9230769230769" r="3" fill="#2563eb"></circle><circle class="dot" cx="638.048780487805" cy="326.9230769230769" r="3" fill="#2563eb"></circle><circle class="dot" cx="639.5121951219512" cy="326.9230769230769" r="3" fill="#2563eb"></circle><circle class="dot" cx="640.9756097560976" cy="326.9230769230769" r="3" fill="#2563eb"></circle><circle class="dot" cx="642.439024390244" cy="326.9230769230769" r="3" fill="#2563eb"></circle><circle class="dot" cx="643.9024390243902" cy="326.9230769230769" r="3" fill="#2563eb"></circle><circle class="dot" cx="645.3658536585366" cy="326.9230769230769" r="3" fill="#2563eb"></circle><circle class="dot" cx="646.8292682926829" cy="326.9230769230769" r="3" fill="#2563eb"></circle><circle class="dot" cx="648.2926829268292" cy="326.9230769230769" r="3" fill="#2563eb"></circle><circle class="dot" cx="649.7560975609756" cy="326.9230769230769" r="3" fill="#2563eb"></circle><circle class="dot" cx="651.2195121951219" cy="326.9230769230769" r="3" fill="#2563eb"></circle><circle class="dot" cx="652.6829268292682" cy="326.9230769230769" r="3" fill="#2563eb"></circle><circle class="dot" cx="654.1463414634146" cy="326.9230769230769" r="3" fill="#2563eb"></circle><circle class="dot" cx="655.609756097561" cy="326.9230769230769" r="3" fill="#2563eb"></circle><circle class="dot" cx="657.0731707317074" cy="326.9230769230769" r="3" fill="#2563eb"></circle><circle class="dot" cx="658.5365853658537" cy="326.9230769230769" r="3" fill="#2563eb"></circle><circle class="dot" cx="660" cy="326.9230769230769" r="3" fill="#2563eb"></circle><circle class="dot" cx="661.4634146341464" cy="326.9230769230769" r="3" fill="#2563eb"></circle><circle class="dot" cx="662.9268292682927" cy="326.9230769230769" r="3" fill="#2563eb"></circle><circle class="dot" cx="664.390243902439" cy="326.9230769230769" r="3" fill="#2563eb"></circle><circle class="dot" cx="665.8536585365854" cy="326.9230769230769" r="3" fill="#2563eb"></circle><circle class="dot" cx="667.3170731707318" cy="326.9230769230769" r="3" fill="#2563eb"></circle><circle class="dot" cx="668.780487804878" cy="326.9230769230769" r="3" fill="#2563eb"></circle><circle class="dot" cx="670.2439024390244" cy="326.9230769230769" r="3" fill="#2563eb"></circle><circle class="dot" cx="671.7073170731708" cy="326.9230769230769" r="3" fill="#2563eb"></circle><circle class="dot" cx="673.170731707317" cy="326.9230769230769" r="3" fill="#2563eb"></circle><circle class="dot" cx="674.6341463414634" cy="326.9230769230769" r="3" fill="#2563eb"></circle><circle class="dot" cx="676.0975609756097" cy="326.9230769230769" r="3" fill="#2563eb"></circle><circle class="dot" cx="677.560975609756" cy="326.9230769230769" r="3" fill="#2563eb"></circle><circle class="dot" cx="679.0243902439024" cy="326.9230769230769" r="3" fill="#2563eb"></circle><circle class="dot" cx="680.4878048780488" cy="326.9230769230769" r="3" fill="#2563eb"></circle><circle class="dot" cx="681.9512195121952" cy="326.9230769230769" r="3" fill="#2563eb"></circle><circle class="dot" cx="683.4146341463415" cy="326.9230769230769" r="3" fill="#2563eb"></circle><circle class="dot" cx="684.8780487804878" cy="326.9230769230769" r="3" fill="#2563eb"></circle><circle class="dot" cx="686.3414634146342" cy="326.9230769230769" r="3" fill="#2563eb"></circle><circle class="dot" cx="687.8048780487806" cy="326.9230769230769" r="3" fill="#2563eb"></circle><circle class="dot" cx="689.2682926829268" cy="326.9230769230769" r="3" fill="#2563eb"></circle><circle class="dot" cx="690.7317073170732" cy="326.9230769230769" r="3" fill="#2563eb"></circle><circle class="dot" cx="692.1951219512196" cy="326.9230769230769" r="3" fill="#2563eb"></circle><circle class="dot" cx="693.6585365853658" cy="326.9230769230769" r="3" fill="#2563eb"></circle><circle class="dot" cx="695.1219512195122" cy="326.9230769230769" r="3" fill="#2563eb"></circle><circle class="dot" cx="696.5853658536586" cy="326.9230769230769" r="3" fill="#2563eb"></circle><circle class="dot" cx="698.0487804878048" cy="326.9230769230769" r="3" fill="#2563eb"></circle><circle class="dot" cx="699.5121951219512" cy="326.9230769230769" r="3" fill="#2563eb"></circle><circle class="dot" cx="700.9756097560976" cy="326.9230769230769" r="3" fill="#2563eb"></circle><circle class="dot" cx="702.4390243902438" cy="326.9230769230769" r="3" fill="#2563eb"></circle><circle class="dot" cx="703.9024390243902" cy="326.9230769230769" r="3" fill="#2563eb"></circle><circle class="dot" cx="705.3658536585366" cy="326.9230769230769" r="3" fill="#2563eb"></circle><circle class="dot" cx="706.829268292683" cy="326.9230769230769" r="3" fill="#2563eb"></circle><circle class="dot" cx="708.2926829268292" cy="326.9230769230769" r="3" fill="#2563eb"></circle><circle class="dot" cx="709.7560975609756" cy="326.9230769230769" r="3" fill="#2563eb"></circle><circle class="dot" cx="711.219512195122" cy="326.9230769230769" r="3" fill="#2563eb"></circle><circle class="dot" cx="712.6829268292684" cy="326.9230769230769" r="3" fill="#2563eb"></circle><circle class="dot" cx="714.1463414634146" cy="326.9230769230769" r="3" fill="#2563eb"></circle><circle class="dot" cx="715.609756097561" cy="326.9230769230769" r="3" fill="#2563eb"></circle><circle class="dot" cx="717.0731707317074" cy="326.9230769230769" r="3" fill="#2563eb"></circle><circle class="dot" cx="718.5365853658536" cy="326.9230769230769" r="3" fill="#2563eb"></circle><circle class="dot" cx="720" cy="326.9230769230769" r="3" fill="#2563eb"></circle><g class="grid" transform="translate(0,340)" fill="none" font-size="10" font-family="sans-serif" text-anchor="middle" style="stroke-dasharray: 3,3; opacity: 0.3;"><path class="domain" stroke="currentColor" d="M0.5,-340V0.5H720.5V-340"></path><g class="tick" opacity="1" transform="translate(0.5,0)"><line stroke="currentColor" y2="-340"></line><text fill="currentColor" y="3" dy="0.71em"></text></g><g class="tick" opacity="1" transform="translate(35.6219512195122,0)"><line stroke="currentColor" y2="-340"></line><text fill="currentColor" y="3" dy="0.71em"></text></g><g class="tick" opacity="1" transform="translate(70.7439024390244,0)"><line stroke="currentColor" y2="-340"></line><text fill="currentColor" y="3" dy="0.71em"></text></g><g class="tick" opacity="1" transform="translate(105.86585365853658,0)"><line stroke="currentColor" y2="-340"></line><text fill="currentColor" y="3" dy="0.71em"></text></g><g class="tick" opacity="1" transform="translate(140.9878048780488,0)"><line stroke="currentColor" y2="-340"></line><text fill="currentColor" y="3" dy="0.71em"></text></g><g class="tick" opacity="1" transform="translate(176.10975609756096,0)"><line stroke="currentColor" y2="-340"></line><text fill="currentColor" y="3" dy="0.71em"></text></g><g class="tick" opacity="1" transform="translate(211.23170731707316,0)"><line stroke="currentColor" y2="-340"></line><text fill="currentColor" y="3" dy="0.71em"></text></g><g class="tick" opacity="1" transform="translate(246.35365853658539,0)"><line stroke="currentColor" y2="-340"></line><text fill="currentColor" y="3" dy="0.71em"></text></g><g class="tick" opacity="1" transform="translate(281.4756097560976,0)"><line stroke="currentColor" y2="-340"></line><text fill="currentColor" y="3" dy="0.71em"></text></g><g class="tick" opacity="1" transform="translate(316.5975609756098,0)"><line stroke="currentColor" y2="-340"></line><text fill="currentColor" y="3" dy="0.71em"></text></g><g class="tick" opacity="1" transform="translate(351.7195121951219,0)"><line stroke="currentColor" y2="-340"></line><text fill="currentColor" y="3" dy="0.71em"></text></g><g class="tick" opacity="1" transform="translate(386.8414634146342,0)"><line stroke="currentColor" y2="-340"></line><text fill="currentColor" y="3" dy="0.71em"></text></g><g class="tick" opacity="1" transform="translate(421.9634146341463,0)"><line stroke="currentColor" y2="-340"></line><text fill="currentColor" y="3" dy="0.71em"></text></g><g class="tick" opacity="1" transform="translate(457.0853658536585,0)"><line stroke="currentColor" y2="-340"></line><text fill="currentColor" y="3" dy="0.71em"></text></g><g class="tick" opacity="1" transform="translate(492.20731707317077,0)"><line stroke="currentColor" y2="-340"></line><text fill="currentColor" y="3" dy="0.71em"></text></g><g class="tick" opacity="1" transform="translate(527.329268292683,0)"><line stroke="currentColor" y2="-340"></line><text fill="currentColor" y="3" dy="0.71em"></text></g><g class="tick" opacity="1" transform="translate(562.4512195121952,0)"><line stroke="currentColor" y2="-340"></line><text fill="currentColor" y="3" dy="0.71em"></text></g><g class="tick" opacity="1" transform="translate(597.5731707317073,0)"><line stroke="currentColor" y2="-340"></line><text fill="currentColor" y="3" dy="0.71em"></text></g><g class="tick" opacity="1" transform="translate(632.6951219512196,0)"><line stroke="currentColor" y2="-340"></line><text fill="currentColor" y="3" dy="0.71em"></text></g><g class="tick" opacity="1" transform="translate(667.8170731707318,0)"><line stroke="currentColor" y2="-340"></line><text fill="currentColor" y="3" dy="0.71em"></text></g><g class="tick" opacity="1" transform="translate(702.9390243902438,0)"><line stroke="currentColor" y2="-340"></line><text fill="currentColor" y="3" dy="0.71em"></text></g></g><g class="grid" fill="none" font-size="10" font-family="sans-serif" text-anchor="end" style="stroke-dasharray: 3,3; opacity: 0.3;"><path class="domain" stroke="currentColor" d="M720,340.5H0.5V0.5H720"></path><g class="tick" opacity="1" transform="translate(0,340.5)"><line stroke="currentColor" x2="720"></line><text fill="currentColor" x="-3" dy="0.32em"></text></g><g class="tick" opacity="1" transform="translate(0,314.34615384615387)"><line stroke="currentColor" x2="720"></line><text fill="currentColor" x="-3" dy="0.32em"></text></g><g class="tick" opacity="1" transform="translate(0,288.1923076923077)"><line stroke="currentColor" x2="720"></line><text fill="currentColor" x="-3" dy="0.32em"></text></g><g class="tick" opacity="1" transform="translate(0,262.0384615384615)"><line stroke="currentColor" x2="720"></line><text fill="currentColor" x="-3" dy="0.32em"></text></g><g class="tick" opacity="1" transform="translate(0,235.8846153846154)"><line stroke="currentColor" x2="720"></line><text fill="currentColor" x="-3" dy="0.32em"></text></g><g class="tick" opacity="1" transform="translate(0,209.73076923076925)"><line stroke="currentColor" x2="720"></line><text fill="currentColor" x="-3" dy="0.32em"></text></g><g class="tick" opacity="1" transform="translate(0,183.5769230769231)"><line stroke="currentColor" x2="720"></line><text fill="currentColor" x="-3" dy="0.32em"></text></g><g class="tick" opacity="1" transform="translate(0,157.42307692307693)"><line stroke="currentColor" x2="720"></line><text fill="currentColor" x="-3" dy="0.32em"></text></g><g class="tick" opacity="1" transform="translate(0,131.26923076923075)"><line stroke="currentColor" x2="720"></line><text fill="currentColor" x="-3" dy="0.32em"></text></g><g class="tick" opacity="1" transform="translate(0,105.11538461538463)"><line stroke="currentColor" x2="720"></line><text fill="currentColor" x="-3" dy="0.32em"></text></g><g class="tick" opacity="1" transform="translate(0,78.96153846153848)"><line stroke="currentColor" x2="720"></line><text fill="currentColor" x="-3" dy="0.32em"></text></g><g class="tick" opacity="1" transform="translate(0,52.807692307692314)"><line stroke="currentColor" x2="720"></line><text fill="currentColor" x="-3" dy="0.32em"></text></g><g class="tick" opacity="1" transform="translate(0,26.653846153846136)"><line stroke="currentColor" x2="720"></line><text fill="currentColor" x="-3" dy="0.32em"></text></g><g class="tick" opacity="1" transform="translate(0,0.5)"><line stroke="currentColor" x2="720"></line><text fill="currentColor" x="-3" dy="0.32em"></text></g></g></g><text x="400" y="10" text-anchor="middle" style="font-size: 16px; font-weight: bold; fill: #333;">OKX USDT Lending Rate - Current Month</text></svg>