<svg width="800" height="400" xmlns="http://www.w3.org/2000/svg"><g transform="translate(50,20)"><g transform="translate(0,340)" fill="none" font-size="10" font-family="sans-serif" text-anchor="middle"><path class="domain" stroke="currentColor" d="M0.5,6V0.5H720.5V6"></path><g class="tick" opacity="1" transform="translate(0.5,0)"><line stroke="currentColor" y2="6"></line><text fill="currentColor" y="9" dy=".15em" style="text-anchor: end;" dx="-.8em" transform="rotate(-45)">11/01</text></g><g class="tick" opacity="1" transform="translate(293.3813559322034,0)"><line stroke="currentColor" y2="6"></line><text fill="currentColor" y="9" dy=".15em" style="text-anchor: end;" dx="-.8em" transform="rotate(-45)">11/02</text></g><g class="tick" opacity="1" transform="translate(586.2627118644068,0)"><line stroke="currentColor" y2="6"></line><text fill="currentColor" y="9" dy=".15em" style="text-anchor: end;" dx="-.8em" transform="rotate(-45)">11/03</text></g></g><g fill="none" font-size="10" font-family="sans-serif" text-anchor="end"><path class="domain" stroke="currentColor" d="M-6,340.5H0.5V0.5H-6"></path><g class="tick" opacity="1" transform="translate(0,170.5)"><line stroke="currentColor" x2="-6"></line><text fill="currentColor" x="-9" dy="0.32em">3.00%</text></g></g><text transform="rotate(-90)" y="-50" x="-170" dy="1em" style="text-anchor: middle; font-size: 12px; fill: #666;">Pre Rate (%)</text><text transform="translate(360, 380)" style="text-anchor: middle; font-size: 12px; fill: #666;">Time (UTC)</text><path fill="none" stroke="#2563eb" stroke-width="2" d="M0,170C4.068,170,8.136,170,12.203,170C16.271,170,20.339,170,24.407,170C28.475,170,32.542,170,36.61,170C40.678,170,44.746,170,48.814,170C52.881,170,56.949,170,61.017,170C65.085,170,69.153,170,73.22,170C77.288,170,81.356,170,85.424,170C89.492,170,93.559,170,97.627,170C101.695,170,105.763,170,109.831,170C113.898,170,117.966,170,122.034,170C126.102,170,130.169,170,134.237,170C138.305,170,142.373,170,146.441,170C150.508,170,154.576,170,158.644,170C162.712,170,166.78,170,170.847,170C174.915,170,178.983,170,183.051,170C187.119,170,191.186,170,195.254,170C199.322,170,203.39,170,207.458,170C211.525,170,215.593,170,219.661,170C223.729,170,227.797,170,231.864,170C235.932,170,240,170,244.068,170C248.136,170,252.203,170,256.271,170C260.339,170,264.407,170,268.475,170C272.542,170,276.61,170,280.678,170C284.746,170,288.814,170,292.881,170C296.949,170,301.017,170,305.085,170C309.153,170,313.22,170,317.288,170C321.356,170,325.424,170,329.492,170C333.559,170,337.627,170,341.695,170C345.763,170,349.831,170,353.898,170C357.966,170,362.034,170,366.102,170C370.169,170,374.237,170,378.305,170C382.373,170,386.441,170,390.508,170C394.576,170,398.644,170,402.712,170C406.78,170,410.847,170,414.915,170C418.983,170,423.051,170,427.119,170C431.186,170,435.254,170,439.322,170C443.39,170,447.458,170,451.525,170C455.593,170,459.661,170,463.729,170C467.797,170,471.864,170,475.932,170C480,170,484.068,170,488.136,170C492.203,170,496.271,170,500.339,170C504.407,170,508.475,170,512.542,170C516.61,170,520.678,170,524.746,170C528.814,170,532.881,170,536.949,170C541.017,170,545.085,170,549.153,170C553.22,170,557.288,170,561.356,170C565.424,170,569.492,170,573.559,170C577.627,170,581.695,170,585.763,170C589.831,170,593.898,170,597.966,170C602.034,170,606.102,170,610.169,170C614.237,170,618.305,170,622.373,170C626.441,170,630.508,170,634.576,170C638.644,170,642.712,170,646.78,170C650.847,170,654.915,170,658.983,170C663.051,170,667.119,170,671.186,170C675.254,170,679.322,170,683.39,170C687.458,170,691.525,170,695.593,170C699.661,170,703.729,170,707.797,170C711.864,170,715.932,170,720,170"></path><circle class="dot" cx="0" cy="170" r="3" fill="#2563eb"></circle><circle class="dot" cx="12.203389830508474" cy="170" r="3" fill="#2563eb"></circle><circle class="dot" cx="24.406779661016948" cy="170" r="3" fill="#2563eb"></circle><circle class="dot" cx="36.610169491525426" cy="170" r="3" fill="#2563eb"></circle><circle class="dot" cx="48.813559322033896" cy="170" r="3" fill="#2563eb"></circle><circle class="dot" cx="61.01694915254237" cy="170" r="3" fill="#2563eb"></circle><circle class="dot" cx="73.22033898305085" cy="170" r="3" fill="#2563eb"></circle><circle class="dot" cx="85.42372881355932" cy="170" r="3" fill="#2563eb"></circle><circle class="dot" cx="97.62711864406779" cy="170" r="3" fill="#2563eb"></circle><circle class="dot" cx="109.83050847457628" cy="170" r="3" fill="#2563eb"></circle><circle class="dot" cx="122.03389830508473" cy="170" r="3" fill="#2563eb"></circle><circle class="dot" cx="134.23728813559322" cy="170" r="3" fill="#2563eb"></circle><circle class="dot" cx="146.4406779661017" cy="170" r="3" fill="#2563eb"></circle><circle class="dot" cx="158.64406779661016" cy="170" r="3" fill="#2563eb"></circle><circle class="dot" cx="170.84745762711864" cy="170" r="3" fill="#2563eb"></circle><circle class="dot" cx="183.0508474576271" cy="170" r="3" fill="#2563eb"></circle><circle class="dot" cx="195.25423728813558" cy="170" r="3" fill="#2563eb"></circle><circle class="dot" cx="207.45762711864407" cy="170" r="3" fill="#2563eb"></circle><circle class="dot" cx="219.66101694915255" cy="170" r="3" fill="#2563eb"></circle><circle class="dot" cx="231.864406779661" cy="170" r="3" fill="#2563eb"></circle><circle class="dot" cx="244.06779661016947" cy="170" r="3" fill="#2563eb"></circle><circle class="dot" cx="256.271186440678" cy="170" r="3" fill="#2563eb"></circle><circle class="dot" cx="268.47457627118644" cy="170" r="3" fill="#2563eb"></circle><circle class="dot" cx="280.67796610169495" cy="170" r="3" fill="#2563eb"></circle><circle class="dot" cx="292.8813559322034" cy="170" r="3" fill="#2563eb"></circle><circle class="dot" cx="305.08474576271186" cy="170" r="3" fill="#2563eb"></circle><circle class="dot" cx="317.2881355932203" cy="170" r="3" fill="#2563eb"></circle><circle class="dot" cx="329.49152542372883" cy="170" r="3" fill="#2563eb"></circle><circle class="dot" cx="341.6949152542373" cy="170" r="3" fill="#2563eb"></circle><circle class="dot" cx="353.8983050847458" cy="170" r="3" fill="#2563eb"></circle><circle class="dot" cx="366.1016949152542" cy="170" r="3" fill="#2563eb"></circle><circle class="dot" cx="378.30508474576277" cy="170" r="3" fill="#2563eb"></circle><circle class="dot" cx="390.50847457627117" cy="170" r="3" fill="#2563eb"></circle><circle class="dot" cx="402.7118644067796" cy="170" r="3" fill="#2563eb"></circle><circle class="dot" cx="414.91525423728814" cy="170" r="3" fill="#2563eb"></circle><circle class="dot" cx="427.1186440677966" cy="170" r="3" fill="#2563eb"></circle><circle class="dot" cx="439.3220338983051" cy="170" r="3" fill="#2563eb"></circle><circle class="dot" cx="451.52542372881356" cy="170" r="3" fill="#2563eb"></circle><circle class="dot" cx="463.728813559322" cy="170" r="3" fill="#2563eb"></circle><circle class="dot" cx="475.93220338983053" cy="170" r="3" fill="#2563eb"></circle><circle class="dot" cx="488.13559322033893" cy="170" r="3" fill="#2563eb"></circle><circle class="dot" cx="500.3389830508475" cy="170" r="3" fill="#2563eb"></circle><circle class="dot" cx="512.542372881356" cy="170" r="3" fill="#2563eb"></circle><circle class="dot" cx="524.7457627118644" cy="170" r="3" fill="#2563eb"></circle><circle class="dot" cx="536.9491525423729" cy="170" r="3" fill="#2563eb"></circle><circle class="dot" cx="549.1525423728814" cy="170" r="3" fill="#2563eb"></circle><circle class="dot" cx="561.3559322033899" cy="170" r="3" fill="#2563eb"></circle><circle class="dot" cx="573.5593220338983" cy="170" r="3" fill="#2563eb"></circle><circle class="dot" cx="585.7627118644068" cy="170" r="3" fill="#2563eb"></circle><circle class="dot" cx="597.9661016949152" cy="170" r="3" fill="#2563eb"></circle><circle class="dot" cx="610.1694915254237" cy="170" r="3" fill="#2563eb"></circle><circle class="dot" cx="622.3728813559322" cy="170" r="3" fill="#2563eb"></circle><circle class="dot" cx="634.5762711864406" cy="170" r="3" fill="#2563eb"></circle><circle class="dot" cx="646.7796610169491" cy="170" r="3" fill="#2563eb"></circle><circle class="dot" cx="658.9830508474577" cy="170" r="3" fill="#2563eb"></circle><circle class="dot" cx="671.1864406779661" cy="170" r="3" fill="#2563eb"></circle><circle class="dot" cx="683.3898305084746" cy="170" r="3" fill="#2563eb"></circle><circle class="dot" cx="695.5932203389831" cy="170" r="3" fill="#2563eb"></circle><circle class="dot" cx="707.7966101694916" cy="170" r="3" fill="#2563eb"></circle><circle class="dot" cx="720" cy="170" r="3" fill="#2563eb"></circle><g class="grid" transform="translate(0,340)" fill="none" font-size="10" font-family="sans-serif" text-anchor="middle" style="stroke-dasharray: 3,3; opacity: 0.3;"><path class="domain" stroke="currentColor" d="M0.5,-340V0.5H720.5V-340"></path><g class="tick" opacity="1" transform="translate(0.5,0)"><line stroke="currentColor" y2="-340"></line><text fill="currentColor" y="3" dy="0.71em"></text></g><g class="tick" opacity="1" transform="translate(293.3813559322034,0)"><line stroke="currentColor" y2="-340"></line><text fill="currentColor" y="3" dy="0.71em"></text></g><g class="tick" opacity="1" transform="translate(586.2627118644068,0)"><line stroke="currentColor" y2="-340"></line><text fill="currentColor" y="3" dy="0.71em"></text></g></g><g class="grid" fill="none" font-size="10" font-family="sans-serif" text-anchor="end" style="stroke-dasharray: 3,3; opacity: 0.3;"><path class="domain" stroke="currentColor" d="M720,340.5H0.5V0.5H720"></path><g class="tick" opacity="1" transform="translate(0,170.5)"><line stroke="currentColor" x2="720"></line><text fill="currentColor" x="-3" dy="0.32em"></text></g></g></g><text x="400" y="10" text-anchor="middle" style="font-size: 16px; font-weight: bold; fill: #333;">OKX USDT Lending Rate - Current Month</text></svg>