<svg width="800" height="400" xmlns="http://www.w3.org/2000/svg"><g transform="translate(50,20)"><g transform="translate(0,340)" fill="none" font-size="10" font-family="sans-serif" text-anchor="middle"><path class="domain" stroke="currentColor" d="M0.5,6V0.5H720.5V6"></path><g class="tick" opacity="1" transform="translate(0.5,0)"><line stroke="currentColor" y2="6"></line><text fill="currentColor" y="9" dy=".15em" style="text-anchor: end;" dx="-.8em" transform="rotate(-45)">04/01</text></g><g class="tick" opacity="1" transform="translate(39.15771812080537,0)"><line stroke="currentColor" y2="6"></line><text fill="currentColor" y="9" dy=".15em" style="text-anchor: end;" dx="-.8em" transform="rotate(-45)">04/02</text></g><g class="tick" opacity="1" transform="translate(77.81543624161074,0)"><line stroke="currentColor" y2="6"></line><text fill="currentColor" y="9" dy=".15em" style="text-anchor: end;" dx="-.8em" transform="rotate(-45)">04/03</text></g><g class="tick" opacity="1" transform="translate(116.4731543624161,0)"><line stroke="currentColor" y2="6"></line><text fill="currentColor" y="9" dy=".15em" style="text-anchor: end;" dx="-.8em" transform="rotate(-45)">04/04</text></g><g class="tick" opacity="1" transform="translate(155.13087248322148,0)"><line stroke="currentColor" y2="6"></line><text fill="currentColor" y="9" dy=".15em" style="text-anchor: end;" dx="-.8em" transform="rotate(-45)">04/05</text></g><g class="tick" opacity="1" transform="translate(193.78859060402684,0)"><line stroke="currentColor" y2="6"></line><text fill="currentColor" y="9" dy=".15em" style="text-anchor: end;" dx="-.8em" transform="rotate(-45)">04/06</text></g><g class="tick" opacity="1" transform="translate(232.4463087248322,0)"><line stroke="currentColor" y2="6"></line><text fill="currentColor" y="9" dy=".15em" style="text-anchor: end;" dx="-.8em" transform="rotate(-45)">04/07</text></g><g class="tick" opacity="1" transform="translate(271.1040268456376,0)"><line stroke="currentColor" y2="6"></line><text fill="currentColor" y="9" dy=".15em" style="text-anchor: end;" dx="-.8em" transform="rotate(-45)">04/08</text></g><g class="tick" opacity="1" transform="translate(309.76174496644296,0)"><line stroke="currentColor" y2="6"></line><text fill="currentColor" y="9" dy=".15em" style="text-anchor: end;" dx="-.8em" transform="rotate(-45)">04/09</text></g><g class="tick" opacity="1" transform="translate(348.41946308724835,0)"><line stroke="currentColor" y2="6"></line><text fill="currentColor" y="9" dy=".15em" style="text-anchor: end;" dx="-.8em" transform="rotate(-45)">04/10</text></g><g class="tick" opacity="1" transform="translate(387.0771812080537,0)"><line stroke="currentColor" y2="6"></line><text fill="currentColor" y="9" dy=".15em" style="text-anchor: end;" dx="-.8em" transform="rotate(-45)">04/11</text></g><g class="tick" opacity="1" transform="translate(425.7348993288591,0)"><line stroke="currentColor" y2="6"></line><text fill="currentColor" y="9" dy=".15em" style="text-anchor: end;" dx="-.8em" transform="rotate(-45)">04/12</text></g><g class="tick" opacity="1" transform="translate(464.3926174496644,0)"><line stroke="currentColor" y2="6"></line><text fill="currentColor" y="9" dy=".15em" style="text-anchor: end;" dx="-.8em" transform="rotate(-45)">04/13</text></g><g class="tick" opacity="1" transform="translate(503.05033557046977,0)"><line stroke="currentColor" y2="6"></line><text fill="currentColor" y="9" dy=".15em" style="text-anchor: end;" dx="-.8em" transform="rotate(-45)">04/14</text></g><g class="tick" opacity="1" transform="translate(541.7080536912752,0)"><line stroke="currentColor" y2="6"></line><text fill="currentColor" y="9" dy=".15em" style="text-anchor: end;" dx="-.8em" transform="rotate(-45)">04/15</text></g><g class="tick" opacity="1" transform="translate(580.3657718120805,0)"><line stroke="currentColor" y2="6"></line><text fill="currentColor" y="9" dy=".15em" style="text-anchor: end;" dx="-.8em" transform="rotate(-45)">04/16</text></g><g class="tick" opacity="1" transform="translate(619.0234899328859,0)"><line stroke="currentColor" y2="6"></line><text fill="currentColor" y="9" dy=".15em" style="text-anchor: end;" dx="-.8em" transform="rotate(-45)">04/17</text></g><g class="tick" opacity="1" transform="translate(657.6812080536913,0)"><line stroke="currentColor" y2="6"></line><text fill="currentColor" y="9" dy=".15em" style="text-anchor: end;" dx="-.8em" transform="rotate(-45)">04/18</text></g><g class="tick" opacity="1" transform="translate(696.3389261744967,0)"><line stroke="currentColor" y2="6"></line><text fill="currentColor" y="9" dy=".15em" style="text-anchor: end;" dx="-.8em" transform="rotate(-45)">04/19</text></g></g><g fill="none" font-size="10" font-family="sans-serif" text-anchor="end"><path class="domain" stroke="currentColor" d="M-6,340.5H0.5V0.5H-6"></path><g class="tick" opacity="1" transform="translate(0,170.5)"><line stroke="currentColor" x2="-6"></line><text fill="currentColor" x="-9" dy="0.32em">2.50%</text></g></g><text transform="rotate(-90)" y="-50" x="-170" dy="1em" style="text-anchor: middle; font-size: 12px; fill: #666;">Pre Rate (%)</text><text transform="translate(360, 380)" style="text-anchor: middle; font-size: 12px; fill: #666;">Time (UTC)</text><path fill="none" stroke="#2563eb" stroke-width="2" d="M0,170C0.537,170,1.074,170,1.611,170C2.148,170,2.685,170,3.221,170C3.758,170,4.295,170,4.832,170C5.369,170,5.906,170,6.443,170C6.98,170,7.517,170,8.054,170C8.591,170,9.128,170,9.664,170C10.201,170,10.738,170,11.275,170C11.812,170,12.349,170,12.886,170C13.423,170,13.96,170,14.497,170C15.034,170,15.57,170,16.107,170C16.644,170,17.181,170,17.718,170C18.255,170,18.792,170,19.329,170C19.866,170,20.403,170,20.94,170C21.477,170,22.013,170,22.55,170C23.087,170,23.624,170,24.161,170C24.698,170,25.235,170,25.772,170C26.309,170,26.846,170,27.383,170C27.919,170,28.456,170,28.993,170C29.53,170,30.067,170,30.604,170C31.141,170,31.678,170,32.215,170C32.752,170,33.289,170,33.826,170C34.362,170,34.899,170,35.436,170C35.973,170,36.51,170,37.047,170C37.584,170,38.121,170,38.658,170C39.195,170,39.732,170,40.268,170C40.805,170,41.342,170,41.879,170C42.416,170,42.953,170,43.49,170C44.027,170,44.564,170,45.101,170C45.638,170,46.174,170,46.711,170C47.248,170,47.785,170,48.322,170C48.859,170,49.396,170,49.933,170C50.47,170,51.007,170,51.544,170C52.081,170,52.617,170,53.154,170C53.691,170,54.228,170,54.765,170C55.302,170,55.839,170,56.376,170C56.913,170,57.45,170,57.987,170C58.523,170,59.06,170,59.597,170C60.134,170,60.671,170,61.208,170C61.745,170,62.282,170,62.819,170C63.356,170,63.893,170,64.43,170C64.966,170,65.503,170,66.04,170C66.577,170,67.114,170,67.651,170C68.188,170,68.725,170,69.262,170C69.799,170,70.336,170,70.872,170C71.409,170,71.946,170,72.483,170C73.02,170,73.557,170,74.094,170C74.631,170,75.168,170,75.705,170C76.242,170,76.779,170,77.315,170C77.852,170,78.389,170,78.926,170C79.463,170,80,170,80.537,170C81.074,170,81.611,170,82.148,170C82.685,170,83.221,170,83.758,170C84.295,170,84.832,170,85.369,170C85.906,170,86.443,170,86.98,170C87.517,170,88.054,170,88.591,170C89.128,170,89.664,170,90.201,170C90.738,170,91.275,170,91.812,170C92.349,170,92.886,170,93.423,170C93.96,170,94.497,170,95.034,170C95.57,170,96.107,170,96.644,170C97.181,170,97.718,170,98.255,170C98.792,170,99.329,170,99.866,170C100.403,170,100.94,170,101.477,170C102.013,170,102.55,170,103.087,170C103.624,170,104.161,170,104.698,170C105.235,170,105.772,170,106.309,170C106.846,170,107.383,170,107.919,170C108.456,170,108.993,170,109.53,170C110.067,170,110.604,170,111.141,170C111.678,170,112.215,170,112.752,170C113.289,170,113.826,170,114.362,170C114.899,170,115.436,170,115.973,170C116.51,170,117.047,170,117.584,170C118.121,170,118.658,170,119.195,170C119.732,170,120.268,170,120.805,170C121.342,170,121.879,170,122.416,170C122.953,170,123.49,170,124.027,170C124.564,170,125.101,170,125.638,170C126.174,170,126.711,170,127.248,170C127.785,170,128.322,170,128.859,170C129.396,170,129.933,170,130.47,170C131.007,170,131.544,170,132.081,170C132.617,170,133.154,170,133.691,170C134.228,170,134.765,170,135.302,170C135.839,170,136.376,170,136.913,170C137.45,170,137.987,170,138.523,170C139.06,170,139.597,170,140.134,170C140.671,170,141.208,170,141.745,170C142.282,170,142.819,170,143.356,170C143.893,170,144.43,170,144.966,170C145.503,170,146.04,170,146.577,170C147.114,170,147.651,170,148.188,170C148.725,170,149.262,170,149.799,170C150.336,170,150.872,170,151.409,170C151.946,170,152.483,170,153.02,170C153.557,170,154.094,170,154.631,170C155.168,170,155.705,170,156.242,170C156.779,170,157.315,170,157.852,170C158.389,170,158.926,170,159.463,170C160,170,160.537,170,161.074,170C161.611,170,162.148,170,162.685,170C163.221,170,163.758,170,164.295,170C164.832,170,165.369,170,165.906,170C166.443,170,166.98,170,167.517,170C168.054,170,168.591,170,169.128,170C169.664,170,170.201,170,170.738,170C171.275,170,171.812,170,172.349,170C172.886,170,173.423,170,173.96,170C174.497,170,175.034,170,175.57,170C176.107,170,176.644,170,177.181,170C177.718,170,178.255,170,178.792,170C179.329,170,179.866,170,180.403,170C180.94,170,181.477,170,182.013,170C182.55,170,183.087,170,183.624,170C184.161,170,184.698,170,185.235,170C185.772,170,186.309,170,186.846,170C187.383,170,187.919,170,188.456,170C188.993,170,189.53,170,190.067,170C190.604,170,191.141,170,191.678,170C192.215,170,192.752,170,193.289,170C193.826,170,194.362,170,194.899,170C195.436,170,195.973,170,196.51,170C197.047,170,197.584,170,198.121,170C198.658,170,199.195,170,199.732,170C200.268,170,200.805,170,201.342,170C201.879,170,202.416,170,202.953,170C203.49,170,204.027,170,204.564,170C205.101,170,205.638,170,206.174,170C206.711,170,207.248,170,207.785,170C208.322,170,208.859,170,209.396,170C209.933,170,210.47,170,211.007,170C211.544,170,212.081,170,212.617,170C213.154,170,213.691,170,214.228,170C214.765,170,215.302,170,215.839,170C216.376,170,216.913,170,217.45,170C217.987,170,218.523,170,219.06,170C219.597,170,220.134,170,220.671,170C221.208,170,221.745,170,222.282,170C222.819,170,223.356,170,223.893,170C224.43,170,224.966,170,225.503,170C226.04,170,226.577,170,227.114,170C227.651,170,228.188,170,228.725,170C229.262,170,229.799,170,230.336,170C230.872,170,231.409,170,231.946,170C232.483,170,233.02,170,233.557,170C234.094,170,234.631,170,235.168,170C235.705,170,236.242,170,236.779,170C237.315,170,237.852,170,238.389,170C238.926,170,239.463,170,240,170C240.537,170,241.074,170,241.611,170C242.148,170,242.685,170,243.221,170C243.758,170,244.295,170,244.832,170C245.369,170,245.906,170,246.443,170C246.98,170,247.517,170,248.054,170C248.591,170,249.128,170,249.664,170C250.201,170,250.738,170,251.275,170C251.812,170,252.349,170,252.886,170C253.423,170,253.96,170,254.497,170C255.034,170,255.57,170,256.107,170C256.644,170,257.181,170,257.718,170C258.255,170,258.792,170,259.329,170C259.866,170,260.403,170,260.94,170C261.477,170,262.013,170,262.55,170C263.087,170,263.624,170,264.161,170C264.698,170,265.235,170,265.772,170C266.309,170,266.846,170,267.383,170C267.919,170,268.456,170,268.993,170C269.53,170,270.067,170,270.604,170C271.141,170,271.678,170,272.215,170C272.752,170,273.289,170,273.826,170C274.362,170,274.899,170,275.436,170C275.973,170,276.51,170,277.047,170C277.584,170,278.121,170,278.658,170C279.195,170,279.732,170,280.268,170C280.805,170,281.342,170,281.879,170C282.416,170,282.953,170,283.49,170C284.027,170,284.564,170,285.101,170C285.638,170,286.174,170,286.711,170C287.248,170,287.785,170,288.322,170C288.859,170,289.396,170,289.933,170C290.47,170,291.007,170,291.544,170C292.081,170,292.617,170,293.154,170C293.691,170,294.228,170,294.765,170C295.302,170,295.839,170,296.376,170C296.913,170,297.45,170,297.987,170C298.523,170,299.06,170,299.597,170C300.134,170,300.671,170,301.208,170C301.745,170,302.282,170,302.819,170C303.356,170,303.893,170,304.43,170C304.966,170,305.503,170,306.04,170C306.577,170,307.114,170,307.651,170C308.188,170,308.725,170,309.262,170C309.799,170,310.336,170,310.872,170C311.409,170,311.946,170,312.483,170C313.02,170,313.557,170,314.094,170C314.631,170,315.168,170,315.705,170C316.242,170,316.779,170,317.315,170C317.852,170,318.389,170,318.926,170C319.463,170,320,170,320.537,170C321.074,170,321.611,170,322.148,170C322.685,170,323.221,170,323.758,170C324.295,170,324.832,170,325.369,170C325.906,170,326.443,170,326.98,170C327.517,170,328.054,170,328.591,170C329.128,170,329.664,170,330.201,170C330.738,170,331.275,170,331.812,170C332.349,170,332.886,170,333.423,170C333.96,170,334.497,170,335.034,170C335.57,170,336.107,170,336.644,170C337.181,170,337.718,170,338.255,170C338.792,170,339.329,170,339.866,170C340.403,170,340.94,170,341.477,170C342.013,170,342.55,170,343.087,170C343.624,170,344.161,170,344.698,170C345.235,170,345.772,170,346.309,170C346.846,170,347.383,170,347.919,170C348.456,170,348.993,170,349.53,170C350.067,170,350.604,170,351.141,170C351.678,170,352.215,170,352.752,170C353.289,170,353.826,170,354.362,170C354.899,170,355.436,170,355.973,170C356.51,170,357.047,170,357.584,170C358.121,170,358.658,170,359.195,170C359.732,170,360.268,170,360.805,170C361.342,170,361.879,170,362.416,170C362.953,170,363.49,170,364.027,170C364.564,170,365.101,170,365.638,170C366.174,170,366.711,170,367.248,170C367.785,170,368.322,170,368.859,170C369.396,170,369.933,170,370.47,170C371.007,170,371.544,170,372.081,170C372.617,170,373.154,170,373.691,170C374.228,170,374.765,170,375.302,170C375.839,170,376.376,170,376.913,170C377.45,170,377.987,170,378.523,170C379.06,170,379.597,170,380.134,170C380.671,170,381.208,170,381.745,170C382.282,170,382.819,170,383.356,170C383.893,170,384.43,170,384.966,170C385.503,170,386.04,170,386.577,170C387.114,170,387.651,170,388.188,170C388.725,170,389.262,170,389.799,170C390.336,170,390.872,170,391.409,170C391.946,170,392.483,170,393.02,170C393.557,170,394.094,170,394.631,170C395.168,170,395.705,170,396.242,170C396.779,170,397.315,170,397.852,170C398.389,170,398.926,170,399.463,170C400,170,400.537,170,401.074,170C401.611,170,402.148,170,402.685,170C403.221,170,403.758,170,404.295,170C404.832,170,405.369,170,405.906,170C406.443,170,406.98,170,407.517,170C408.054,170,408.591,170,409.128,170C409.664,170,410.201,170,410.738,170C411.275,170,411.812,170,412.349,170C412.886,170,413.423,170,413.96,170C414.497,170,415.034,170,415.57,170C416.107,170,416.644,170,417.181,170C417.718,170,418.255,170,418.792,170C419.329,170,419.866,170,420.403,170C420.94,170,421.477,170,422.013,170C422.55,170,423.087,170,423.624,170C424.161,170,424.698,170,425.235,170C425.772,170,426.309,170,426.846,170C427.383,170,427.919,170,428.456,170C428.993,170,429.53,170,430.067,170C430.604,170,431.141,170,431.678,170C432.215,170,432.752,170,433.289,170C433.826,170,434.362,170,434.899,170C435.436,170,435.973,170,436.51,170C437.047,170,437.584,170,438.121,170C438.658,170,439.195,170,439.732,170C440.268,170,440.805,170,441.342,170C441.879,170,442.416,170,442.953,170C443.49,170,444.027,170,444.564,170C445.101,170,445.638,170,446.174,170C446.711,170,447.248,170,447.785,170C448.322,170,448.859,170,449.396,170C449.933,170,450.47,170,451.007,170C451.544,170,452.081,170,452.617,170C453.154,170,453.691,170,454.228,170C454.765,170,455.302,170,455.839,170C456.376,170,456.913,170,457.45,170C457.987,170,458.523,170,459.06,170C459.597,170,460.134,170,460.671,170C461.208,170,461.745,170,462.282,170C462.819,170,463.356,170,463.893,170C464.43,170,464.966,170,465.503,170C466.04,170,466.577,170,467.114,170C467.651,170,468.188,170,468.725,170C469.262,170,469.799,170,470.336,170C470.872,170,471.409,170,471.946,170C472.483,170,473.02,170,473.557,170C474.094,170,474.631,170,475.168,170C475.705,170,476.242,170,476.779,170C477.315,170,477.852,170,478.389,170C478.926,170,479.463,170,480,170C480.537,170,481.074,170,481.611,170C482.148,170,482.685,170,483.221,170C483.758,170,484.295,170,484.832,170C485.369,170,485.906,170,486.443,170C486.98,170,487.517,170,488.054,170C488.591,170,489.128,170,489.664,170C490.201,170,490.738,170,491.275,170C491.812,170,492.349,170,492.886,170C493.423,170,493.96,170,494.497,170C495.034,170,495.57,170,496.107,170C496.644,170,497.181,170,497.718,170C498.255,170,498.792,170,499.329,170C499.866,170,500.403,170,500.94,170C501.477,170,502.013,170,502.55,170C503.087,170,503.624,170,504.161,170C504.698,170,505.235,170,505.772,170C506.309,170,506.846,170,507.383,170C507.919,170,508.456,170,508.993,170C509.53,170,510.067,170,510.604,170C511.141,170,511.678,170,512.215,170C512.752,170,513.289,170,513.826,170C514.362,170,514.899,170,515.436,170C515.973,170,516.51,170,517.047,170C517.584,170,518.121,170,518.658,170C519.195,170,519.732,170,520.268,170C520.805,170,521.342,170,521.879,170C522.416,170,522.953,170,523.49,170C524.027,170,524.564,170,525.101,170C525.638,170,526.174,170,526.711,170C527.248,170,527.785,170,528.322,170C528.859,170,529.396,170,529.933,170C530.47,170,531.007,170,531.544,170C532.081,170,532.617,170,533.154,170C533.691,170,534.228,170,534.765,170C535.302,170,535.839,170,536.376,170C536.913,170,537.45,170,537.987,170C538.523,170,539.06,170,539.597,170C540.134,170,540.671,170,541.208,170C541.745,170,542.282,170,542.819,170C543.356,170,543.893,170,544.43,170C544.966,170,545.503,170,546.04,170C546.577,170,547.114,170,547.651,170C548.188,170,548.725,170,549.262,170C549.799,170,550.336,170,550.872,170C551.409,170,551.946,170,552.483,170C553.02,170,553.557,170,554.094,170C554.631,170,555.168,170,555.705,170C556.242,170,556.779,170,557.315,170C557.852,170,558.389,170,558.926,170C559.463,170,560,170,560.537,170C561.074,170,561.611,170,562.148,170C562.685,170,563.221,170,563.758,170C564.295,170,564.832,170,565.369,170C565.906,170,566.443,170,566.98,170C567.517,170,568.054,170,568.591,170C569.128,170,569.664,170,570.201,170C570.738,170,571.275,170,571.812,170C572.349,170,572.886,170,573.423,170C573.96,170,574.497,170,575.034,170C575.57,170,576.107,170,576.644,170C577.181,170,577.718,170,578.255,170C578.792,170,579.329,170,579.866,170C580.403,170,580.94,170,581.477,170C582.013,170,582.55,170,583.087,170C583.624,170,584.161,170,584.698,170C585.235,170,585.772,170,586.309,170C586.846,170,587.383,170,587.919,170C588.456,170,588.993,170,589.53,170C590.067,170,590.604,170,591.141,170C591.678,170,592.215,170,592.752,170C593.289,170,593.826,170,594.362,170C594.899,170,595.436,170,595.973,170C596.51,170,597.047,170,597.584,170C598.121,170,598.658,170,599.195,170C599.732,170,600.268,170,600.805,170C601.342,170,601.879,170,602.416,170C602.953,170,603.49,170,604.027,170C604.564,170,605.101,170,605.638,170C606.174,170,606.711,170,607.248,170C607.785,170,608.322,170,608.859,170C609.396,170,609.933,170,610.47,170C611.007,170,611.544,170,612.081,170C612.617,170,613.154,170,613.691,170C614.228,170,614.765,170,615.302,170C615.839,170,616.376,170,616.913,170C617.45,170,617.987,170,618.523,170C619.06,170,619.597,170,620.134,170C620.671,170,621.208,170,621.745,170C622.282,170,622.819,170,623.356,170C623.893,170,624.43,170,624.966,170C625.503,170,626.04,170,626.577,170C627.114,170,627.651,170,628.188,170C628.725,170,629.262,170,629.799,170C630.336,170,630.872,170,631.409,170C631.946,170,632.483,170,633.02,170C633.557,170,634.094,170,634.631,170C635.168,170,635.705,170,636.242,170C636.779,170,637.315,170,637.852,170C638.389,170,638.926,170,639.463,170C640,170,640.537,170,641.074,170C641.611,170,642.148,170,642.685,170C643.221,170,643.758,170,644.295,170C644.832,170,645.369,170,645.906,170C646.443,170,646.98,170,647.517,170C648.054,170,648.591,170,649.128,170C649.664,170,650.201,170,650.738,170C651.275,170,651.812,170,652.349,170C652.886,170,653.423,170,653.96,170C654.497,170,655.034,170,655.57,170C656.107,170,656.644,170,657.181,170C657.718,170,658.255,170,658.792,170C659.329,170,659.866,170,660.403,170C660.94,170,661.477,170,662.013,170C662.55,170,663.087,170,663.624,170C664.161,170,664.698,170,665.235,170C665.772,170,666.309,170,666.846,170C667.383,170,667.919,170,668.456,170C668.993,170,669.53,170,670.067,170C670.604,170,671.141,170,671.678,170C672.215,170,672.752,170,673.289,170C673.826,170,674.362,170,674.899,170C675.436,170,675.973,170,676.51,170C677.047,170,677.584,170,678.121,170C678.658,170,679.195,170,679.732,170C680.268,170,680.805,170,681.342,170C681.879,170,682.416,170,682.953,170C683.49,170,684.027,170,684.564,170C685.101,170,685.638,170,686.174,170C686.711,170,687.248,170,687.785,170C688.322,170,688.859,170,689.396,170C689.933,170,690.47,170,691.007,170C691.544,170,692.081,170,692.617,170C693.154,170,693.691,170,694.228,170C694.765,170,695.302,170,695.839,170C696.376,170,696.913,170,697.45,170C697.987,170,698.523,170,699.06,170C699.597,170,700.134,170,700.671,170C701.208,170,701.745,170,702.282,170C702.819,170,703.356,170,703.893,170C704.43,170,704.966,170,705.503,170C706.04,170,706.577,170,707.114,170C707.651,170,708.188,170,708.725,170C709.262,170,709.799,170,710.336,170C710.872,170,711.409,170,711.946,170C712.483,170,713.02,170,713.557,170C714.094,170,714.631,170,715.168,170C715.705,170,716.242,170,716.779,170C717.315,170,717.852,170,718.389,170C718.926,170,719.463,170,720,170"></path><circle class="dot" cx="0" cy="170" r="3" fill="#2563eb"></circle><circle class="dot" cx="1.610738255033557" cy="170" r="3" fill="#2563eb"></circle><circle class="dot" cx="3.221476510067114" cy="170" r="3" fill="#2563eb"></circle><circle class="dot" cx="4.832214765100671" cy="170" r="3" fill="#2563eb"></circle><circle class="dot" cx="6.442953020134228" cy="170" r="3" fill="#2563eb"></circle><circle class="dot" cx="8.053691275167786" cy="170" r="3" fill="#2563eb"></circle><circle class="dot" cx="9.664429530201343" cy="170" r="3" fill="#2563eb"></circle><circle class="dot" cx="11.275167785234899" cy="170" r="3" fill="#2563eb"></circle><circle class="dot" cx="12.885906040268456" cy="170" r="3" fill="#2563eb"></circle><circle class="dot" cx="14.496644295302012" cy="170" r="3" fill="#2563eb"></circle><circle class="dot" cx="16.107382550335572" cy="170" r="3" fill="#2563eb"></circle><circle class="dot" cx="17.71812080536913" cy="170" r="3" fill="#2563eb"></circle><circle class="dot" cx="19.328859060402685" cy="170" r="3" fill="#2563eb"></circle><circle class="dot" cx="20.93959731543624" cy="170" r="3" fill="#2563eb"></circle><circle class="dot" cx="22.550335570469798" cy="170" r="3" fill="#2563eb"></circle><circle class="dot" cx="24.161073825503355" cy="170" r="3" fill="#2563eb"></circle><circle class="dot" cx="25.77181208053691" cy="170" r="3" fill="#2563eb"></circle><circle class="dot" cx="27.382550335570468" cy="170" r="3" fill="#2563eb"></circle><circle class="dot" cx="28.993288590604024" cy="170" r="3" fill="#2563eb"></circle><circle class="dot" cx="30.604026845637588" cy="170" r="3" fill="#2563eb"></circle><circle class="dot" cx="32.214765100671144" cy="170" r="3" fill="#2563eb"></circle><circle class="dot" cx="33.8255033557047" cy="170" r="3" fill="#2563eb"></circle><circle class="dot" cx="35.43624161073826" cy="170" r="3" fill="#2563eb"></circle><circle class="dot" cx="37.04697986577181" cy="170" r="3" fill="#2563eb"></circle><circle class="dot" cx="38.65771812080537" cy="170" r="3" fill="#2563eb"></circle><circle class="dot" cx="40.26845637583892" cy="170" r="3" fill="#2563eb"></circle><circle class="dot" cx="41.87919463087248" cy="170" r="3" fill="#2563eb"></circle><circle class="dot" cx="43.48993288590604" cy="170" r="3" fill="#2563eb"></circle><circle class="dot" cx="45.100671140939596" cy="170" r="3" fill="#2563eb"></circle><circle class="dot" cx="46.71140939597315" cy="170" r="3" fill="#2563eb"></circle><circle class="dot" cx="48.32214765100671" cy="170" r="3" fill="#2563eb"></circle><circle class="dot" cx="49.932885906040276" cy="170" r="3" fill="#2563eb"></circle><circle class="dot" cx="51.54362416107382" cy="170" r="3" fill="#2563eb"></circle><circle class="dot" cx="53.15436241610739" cy="170" r="3" fill="#2563eb"></circle><circle class="dot" cx="54.765100671140935" cy="170" r="3" fill="#2563eb"></circle><circle class="dot" cx="56.375838926174495" cy="170" r="3" fill="#2563eb"></circle><circle class="dot" cx="57.98657718120805" cy="170" r="3" fill="#2563eb"></circle><circle class="dot" cx="59.59731543624161" cy="170" r="3" fill="#2563eb"></circle><circle class="dot" cx="61.208053691275175" cy="170" r="3" fill="#2563eb"></circle><circle class="dot" cx="62.81879194630872" cy="170" r="3" fill="#2563eb"></circle><circle class="dot" cx="64.42953020134229" cy="170" r="3" fill="#2563eb"></circle><circle class="dot" cx="66.04026845637584" cy="170" r="3" fill="#2563eb"></circle><circle class="dot" cx="67.6510067114094" cy="170" r="3" fill="#2563eb"></circle><circle class="dot" cx="69.26174496644295" cy="170" r="3" fill="#2563eb"></circle><circle class="dot" cx="70.87248322147651" cy="170" r="3" fill="#2563eb"></circle><circle class="dot" cx="72.48322147651007" cy="170" r="3" fill="#2563eb"></circle><circle class="dot" cx="74.09395973154362" cy="170" r="3" fill="#2563eb"></circle><circle class="dot" cx="75.70469798657719" cy="170" r="3" fill="#2563eb"></circle><circle class="dot" cx="77.31543624161074" cy="170" r="3" fill="#2563eb"></circle><circle class="dot" cx="78.9261744966443" cy="170" r="3" fill="#2563eb"></circle><circle class="dot" cx="80.53691275167785" cy="170" r="3" fill="#2563eb"></circle><circle class="dot" cx="82.14765100671141" cy="170" r="3" fill="#2563eb"></circle><circle class="dot" cx="83.75838926174497" cy="170" r="3" fill="#2563eb"></circle><circle class="dot" cx="85.36912751677852" cy="170" r="3" fill="#2563eb"></circle><circle class="dot" cx="86.97986577181209" cy="170" r="3" fill="#2563eb"></circle><circle class="dot" cx="88.59060402684564" cy="170" r="3" fill="#2563eb"></circle><circle class="dot" cx="90.20134228187919" cy="170" r="3" fill="#2563eb"></circle><circle class="dot" cx="91.81208053691276" cy="170" r="3" fill="#2563eb"></circle><circle class="dot" cx="93.4228187919463" cy="170" r="3" fill="#2563eb"></circle><circle class="dot" cx="95.03355704697987" cy="170" r="3" fill="#2563eb"></circle><circle class="dot" cx="96.64429530201342" cy="170" r="3" fill="#2563eb"></circle><circle class="dot" cx="98.25503355704699" cy="170" r="3" fill="#2563eb"></circle><circle class="dot" cx="99.86577181208055" cy="170" r="3" fill="#2563eb"></circle><circle class="dot" cx="101.47651006711409" cy="170" r="3" fill="#2563eb"></circle><circle class="dot" cx="103.08724832214764" cy="170" r="3" fill="#2563eb"></circle><circle class="dot" cx="104.69798657718121" cy="170" r="3" fill="#2563eb"></circle><circle class="dot" cx="106.30872483221478" cy="170" r="3" fill="#2563eb"></circle><circle class="dot" cx="107.91946308724832" cy="170" r="3" fill="#2563eb"></circle><circle class="dot" cx="109.53020134228187" cy="170" r="3" fill="#2563eb"></circle><circle class="dot" cx="111.14093959731544" cy="170" r="3" fill="#2563eb"></circle><circle class="dot" cx="112.75167785234899" cy="170" r="3" fill="#2563eb"></circle><circle class="dot" cx="114.36241610738256" cy="170" r="3" fill="#2563eb"></circle><circle class="dot" cx="115.9731543624161" cy="170" r="3" fill="#2563eb"></circle><circle class="dot" cx="117.58389261744966" cy="170" r="3" fill="#2563eb"></circle><circle class="dot" cx="119.19463087248322" cy="170" r="3" fill="#2563eb"></circle><circle class="dot" cx="120.80536912751678" cy="170" r="3" fill="#2563eb"></circle><circle class="dot" cx="122.41610738255035" cy="170" r="3" fill="#2563eb"></circle><circle class="dot" cx="124.02684563758389" cy="170" r="3" fill="#2563eb"></circle><circle class="dot" cx="125.63758389261744" cy="170" r="3" fill="#2563eb"></circle><circle class="dot" cx="127.24832214765101" cy="170" r="3" fill="#2563eb"></circle><circle class="dot" cx="128.85906040268458" cy="170" r="3" fill="#2563eb"></circle><circle class="dot" cx="130.46979865771812" cy="170" r="3" fill="#2563eb"></circle><circle class="dot" cx="132.08053691275168" cy="170" r="3" fill="#2563eb"></circle><circle class="dot" cx="133.69127516778522" cy="170" r="3" fill="#2563eb"></circle><circle class="dot" cx="135.3020134228188" cy="170" r="3" fill="#2563eb"></circle><circle class="dot" cx="136.91275167785236" cy="170" r="3" fill="#2563eb"></circle><circle class="dot" cx="138.5234899328859" cy="170" r="3" fill="#2563eb"></circle><circle class="dot" cx="140.13422818791946" cy="170" r="3" fill="#2563eb"></circle><circle class="dot" cx="141.74496644295303" cy="170" r="3" fill="#2563eb"></circle><circle class="dot" cx="143.3557046979866" cy="170" r="3" fill="#2563eb"></circle><circle class="dot" cx="144.96644295302013" cy="170" r="3" fill="#2563eb"></circle><circle class="dot" cx="146.57718120805367" cy="170" r="3" fill="#2563eb"></circle><circle class="dot" cx="148.18791946308724" cy="170" r="3" fill="#2563eb"></circle><circle class="dot" cx="149.7986577181208" cy="170" r="3" fill="#2563eb"></circle><circle class="dot" cx="151.40939597315437" cy="170" r="3" fill="#2563eb"></circle><circle class="dot" cx="153.0201342281879" cy="170" r="3" fill="#2563eb"></circle><circle class="dot" cx="154.63087248322148" cy="170" r="3" fill="#2563eb"></circle><circle class="dot" cx="156.24161073825505" cy="170" r="3" fill="#2563eb"></circle><circle class="dot" cx="157.8523489932886" cy="170" r="3" fill="#2563eb"></circle><circle class="dot" cx="159.46308724832215" cy="170" r="3" fill="#2563eb"></circle><circle class="dot" cx="161.0738255033557" cy="170" r="3" fill="#2563eb"></circle><circle class="dot" cx="162.68456375838926" cy="170" r="3" fill="#2563eb"></circle><circle class="dot" cx="164.29530201342283" cy="170" r="3" fill="#2563eb"></circle><circle class="dot" cx="165.9060402684564" cy="170" r="3" fill="#2563eb"></circle><circle class="dot" cx="167.51677852348993" cy="170" r="3" fill="#2563eb"></circle><circle class="dot" cx="169.1275167785235" cy="170" r="3" fill="#2563eb"></circle><circle class="dot" cx="170.73825503355704" cy="170" r="3" fill="#2563eb"></circle><circle class="dot" cx="172.3489932885906" cy="170" r="3" fill="#2563eb"></circle><circle class="dot" cx="173.95973154362417" cy="170" r="3" fill="#2563eb"></circle><circle class="dot" cx="175.5704697986577" cy="170" r="3" fill="#2563eb"></circle><circle class="dot" cx="177.18120805369128" cy="170" r="3" fill="#2563eb"></circle><circle class="dot" cx="178.79194630872485" cy="170" r="3" fill="#2563eb"></circle><circle class="dot" cx="180.40268456375838" cy="170" r="3" fill="#2563eb"></circle><circle class="dot" cx="182.01342281879192" cy="170" r="3" fill="#2563eb"></circle><circle class="dot" cx="183.62416107382552" cy="170" r="3" fill="#2563eb"></circle><circle class="dot" cx="185.23489932885906" cy="170" r="3" fill="#2563eb"></circle><circle class="dot" cx="186.8456375838926" cy="170" r="3" fill="#2563eb"></circle><circle class="dot" cx="188.4563758389262" cy="170" r="3" fill="#2563eb"></circle><circle class="dot" cx="190.06711409395973" cy="170" r="3" fill="#2563eb"></circle><circle class="dot" cx="191.6778523489933" cy="170" r="3" fill="#2563eb"></circle><circle class="dot" cx="193.28859060402684" cy="170" r="3" fill="#2563eb"></circle><circle class="dot" cx="194.89932885906038" cy="170" r="3" fill="#2563eb"></circle><circle class="dot" cx="196.51006711409397" cy="170" r="3" fill="#2563eb"></circle><circle class="dot" cx="198.1208053691275" cy="170" r="3" fill="#2563eb"></circle><circle class="dot" cx="199.7315436241611" cy="170" r="3" fill="#2563eb"></circle><circle class="dot" cx="201.34228187919464" cy="170" r="3" fill="#2563eb"></circle><circle class="dot" cx="202.95302013422818" cy="170" r="3" fill="#2563eb"></circle><circle class="dot" cx="204.56375838926175" cy="170" r="3" fill="#2563eb"></circle><circle class="dot" cx="206.1744966442953" cy="170" r="3" fill="#2563eb"></circle><circle class="dot" cx="207.78523489932888" cy="170" r="3" fill="#2563eb"></circle><circle class="dot" cx="209.39597315436242" cy="170" r="3" fill="#2563eb"></circle><circle class="dot" cx="211.00671140939596" cy="170" r="3" fill="#2563eb"></circle><circle class="dot" cx="212.61744966442956" cy="170" r="3" fill="#2563eb"></circle><circle class="dot" cx="214.2281879194631" cy="170" r="3" fill="#2563eb"></circle><circle class="dot" cx="215.83892617449663" cy="170" r="3" fill="#2563eb"></circle><circle class="dot" cx="217.4496644295302" cy="170" r="3" fill="#2563eb"></circle><circle class="dot" cx="219.06040268456374" cy="170" r="3" fill="#2563eb"></circle><circle class="dot" cx="220.67114093959734" cy="170" r="3" fill="#2563eb"></circle><circle class="dot" cx="222.28187919463087" cy="170" r="3" fill="#2563eb"></circle><circle class="dot" cx="223.8926174496644" cy="170" r="3" fill="#2563eb"></circle><circle class="dot" cx="225.50335570469798" cy="170" r="3" fill="#2563eb"></circle><circle class="dot" cx="227.11409395973155" cy="170" r="3" fill="#2563eb"></circle><circle class="dot" cx="228.72483221476512" cy="170" r="3" fill="#2563eb"></circle><circle class="dot" cx="230.33557046979865" cy="170" r="3" fill="#2563eb"></circle><circle class="dot" cx="231.9463087248322" cy="170" r="3" fill="#2563eb"></circle><circle class="dot" cx="233.5570469798658" cy="170" r="3" fill="#2563eb"></circle><circle class="dot" cx="235.16778523489933" cy="170" r="3" fill="#2563eb"></circle><circle class="dot" cx="236.7785234899329" cy="170" r="3" fill="#2563eb"></circle><circle class="dot" cx="238.38926174496643" cy="170" r="3" fill="#2563eb"></circle><circle class="dot" cx="240" cy="170" r="3" fill="#2563eb"></circle><circle class="dot" cx="241.61073825503357" cy="170" r="3" fill="#2563eb"></circle><circle class="dot" cx="243.2214765100671" cy="170" r="3" fill="#2563eb"></circle><circle class="dot" cx="244.8322147651007" cy="170" r="3" fill="#2563eb"></circle><circle class="dot" cx="246.44295302013424" cy="170" r="3" fill="#2563eb"></circle><circle class="dot" cx="248.05369127516778" cy="170" r="3" fill="#2563eb"></circle><circle class="dot" cx="249.66442953020135" cy="170" r="3" fill="#2563eb"></circle><circle class="dot" cx="251.27516778523488" cy="170" r="3" fill="#2563eb"></circle><circle class="dot" cx="252.88590604026842" cy="170" r="3" fill="#2563eb"></circle><circle class="dot" cx="254.49664429530202" cy="170" r="3" fill="#2563eb"></circle><circle class="dot" cx="256.10738255033556" cy="170" r="3" fill="#2563eb"></circle><circle class="dot" cx="257.71812080536915" cy="170" r="3" fill="#2563eb"></circle><circle class="dot" cx="259.3288590604027" cy="170" r="3" fill="#2563eb"></circle><circle class="dot" cx="260.93959731543623" cy="170" r="3" fill="#2563eb"></circle><circle class="dot" cx="262.5503355704698" cy="170" r="3" fill="#2563eb"></circle><circle class="dot" cx="264.16107382550337" cy="170" r="3" fill="#2563eb"></circle><circle class="dot" cx="265.7718120805369" cy="170" r="3" fill="#2563eb"></circle><circle class="dot" cx="267.38255033557044" cy="170" r="3" fill="#2563eb"></circle><circle class="dot" cx="268.99328859060404" cy="170" r="3" fill="#2563eb"></circle><circle class="dot" cx="270.6040268456376" cy="170" r="3" fill="#2563eb"></circle><circle class="dot" cx="272.2147651006711" cy="170" r="3" fill="#2563eb"></circle><circle class="dot" cx="273.8255033557047" cy="170" r="3" fill="#2563eb"></circle><circle class="dot" cx="275.43624161073825" cy="170" r="3" fill="#2563eb"></circle><circle class="dot" cx="277.0469798657718" cy="170" r="3" fill="#2563eb"></circle><circle class="dot" cx="278.6577181208054" cy="170" r="3" fill="#2563eb"></circle><circle class="dot" cx="280.2684563758389" cy="170" r="3" fill="#2563eb"></circle><circle class="dot" cx="281.8791946308725" cy="170" r="3" fill="#2563eb"></circle><circle class="dot" cx="283.48993288590606" cy="170" r="3" fill="#2563eb"></circle><circle class="dot" cx="285.1006711409396" cy="170" r="3" fill="#2563eb"></circle><circle class="dot" cx="286.7114093959732" cy="170" r="3" fill="#2563eb"></circle><circle class="dot" cx="288.32214765100673" cy="170" r="3" fill="#2563eb"></circle><circle class="dot" cx="289.93288590604027" cy="170" r="3" fill="#2563eb"></circle><circle class="dot" cx="291.5436241610738" cy="170" r="3" fill="#2563eb"></circle><circle class="dot" cx="293.15436241610735" cy="170" r="3" fill="#2563eb"></circle><circle class="dot" cx="294.76510067114094" cy="170" r="3" fill="#2563eb"></circle><circle class="dot" cx="296.3758389261745" cy="170" r="3" fill="#2563eb"></circle><circle class="dot" cx="297.986577181208" cy="170" r="3" fill="#2563eb"></circle><circle class="dot" cx="299.5973154362416" cy="170" r="3" fill="#2563eb"></circle><circle class="dot" cx="301.20805369127515" cy="170" r="3" fill="#2563eb"></circle><circle class="dot" cx="302.81879194630875" cy="170" r="3" fill="#2563eb"></circle><circle class="dot" cx="304.4295302013423" cy="170" r="3" fill="#2563eb"></circle><circle class="dot" cx="306.0402684563758" cy="170" r="3" fill="#2563eb"></circle><circle class="dot" cx="307.6510067114094" cy="170" r="3" fill="#2563eb"></circle><circle class="dot" cx="309.26174496644296" cy="170" r="3" fill="#2563eb"></circle><circle class="dot" cx="310.8724832214765" cy="170" r="3" fill="#2563eb"></circle><circle class="dot" cx="312.4832214765101" cy="170" r="3" fill="#2563eb"></circle><circle class="dot" cx="314.09395973154363" cy="170" r="3" fill="#2563eb"></circle><circle class="dot" cx="315.7046979865772" cy="170" r="3" fill="#2563eb"></circle><circle class="dot" cx="317.3154362416107" cy="170" r="3" fill="#2563eb"></circle><circle class="dot" cx="318.9261744966443" cy="170" r="3" fill="#2563eb"></circle><circle class="dot" cx="320.53691275167785" cy="170" r="3" fill="#2563eb"></circle><circle class="dot" cx="322.1476510067114" cy="170" r="3" fill="#2563eb"></circle><circle class="dot" cx="323.758389261745" cy="170" r="3" fill="#2563eb"></circle><circle class="dot" cx="325.3691275167785" cy="170" r="3" fill="#2563eb"></circle><circle class="dot" cx="326.97986577181206" cy="170" r="3" fill="#2563eb"></circle><circle class="dot" cx="328.59060402684565" cy="170" r="3" fill="#2563eb"></circle><circle class="dot" cx="330.2013422818792" cy="170" r="3" fill="#2563eb"></circle><circle class="dot" cx="331.8120805369128" cy="170" r="3" fill="#2563eb"></circle><circle class="dot" cx="333.4228187919463" cy="170" r="3" fill="#2563eb"></circle><circle class="dot" cx="335.03355704697987" cy="170" r="3" fill="#2563eb"></circle><circle class="dot" cx="336.6442953020134" cy="170" r="3" fill="#2563eb"></circle><circle class="dot" cx="338.255033557047" cy="170" r="3" fill="#2563eb"></circle><circle class="dot" cx="339.86577181208054" cy="170" r="3" fill="#2563eb"></circle><circle class="dot" cx="341.4765100671141" cy="170" r="3" fill="#2563eb"></circle><circle class="dot" cx="343.0872483221476" cy="170" r="3" fill="#2563eb"></circle><circle class="dot" cx="344.6979865771812" cy="170" r="3" fill="#2563eb"></circle><circle class="dot" cx="346.30872483221475" cy="170" r="3" fill="#2563eb"></circle><circle class="dot" cx="347.91946308724835" cy="170" r="3" fill="#2563eb"></circle><circle class="dot" cx="349.5302013422819" cy="170" r="3" fill="#2563eb"></circle><circle class="dot" cx="351.1409395973154" cy="170" r="3" fill="#2563eb"></circle><circle class="dot" cx="352.751677852349" cy="170" r="3" fill="#2563eb"></circle><circle class="dot" cx="354.36241610738256" cy="170" r="3" fill="#2563eb"></circle><circle class="dot" cx="355.97315436241615" cy="170" r="3" fill="#2563eb"></circle><circle class="dot" cx="357.5838926174497" cy="170" r="3" fill="#2563eb"></circle><circle class="dot" cx="359.19463087248323" cy="170" r="3" fill="#2563eb"></circle><circle class="dot" cx="360.80536912751677" cy="170" r="3" fill="#2563eb"></circle><circle class="dot" cx="362.41610738255036" cy="170" r="3" fill="#2563eb"></circle><circle class="dot" cx="364.02684563758385" cy="170" r="3" fill="#2563eb"></circle><circle class="dot" cx="365.63758389261744" cy="170" r="3" fill="#2563eb"></circle><circle class="dot" cx="367.24832214765104" cy="170" r="3" fill="#2563eb"></circle><circle class="dot" cx="368.8590604026845" cy="170" r="3" fill="#2563eb"></circle><circle class="dot" cx="370.4697986577181" cy="170" r="3" fill="#2563eb"></circle><circle class="dot" cx="372.0805369127517" cy="170" r="3" fill="#2563eb"></circle><circle class="dot" cx="373.6912751677852" cy="170" r="3" fill="#2563eb"></circle><circle class="dot" cx="375.3020134228188" cy="170" r="3" fill="#2563eb"></circle><circle class="dot" cx="376.9127516778524" cy="170" r="3" fill="#2563eb"></circle><circle class="dot" cx="378.5234899328859" cy="170" r="3" fill="#2563eb"></circle><circle class="dot" cx="380.13422818791946" cy="170" r="3" fill="#2563eb"></circle><circle class="dot" cx="381.744966442953" cy="170" r="3" fill="#2563eb"></circle><circle class="dot" cx="383.3557046979866" cy="170" r="3" fill="#2563eb"></circle><circle class="dot" cx="384.96644295302013" cy="170" r="3" fill="#2563eb"></circle><circle class="dot" cx="386.5771812080537" cy="170" r="3" fill="#2563eb"></circle><circle class="dot" cx="388.18791946308727" cy="170" r="3" fill="#2563eb"></circle><circle class="dot" cx="389.79865771812075" cy="170" r="3" fill="#2563eb"></circle><circle class="dot" cx="391.40939597315435" cy="170" r="3" fill="#2563eb"></circle><circle class="dot" cx="393.02013422818794" cy="170" r="3" fill="#2563eb"></circle><circle class="dot" cx="394.6308724832214" cy="170" r="3" fill="#2563eb"></circle><circle class="dot" cx="396.241610738255" cy="170" r="3" fill="#2563eb"></circle><circle class="dot" cx="397.8523489932886" cy="170" r="3" fill="#2563eb"></circle><circle class="dot" cx="399.4630872483222" cy="170" r="3" fill="#2563eb"></circle><circle class="dot" cx="401.0738255033557" cy="170" r="3" fill="#2563eb"></circle><circle class="dot" cx="402.6845637583893" cy="170" r="3" fill="#2563eb"></circle><circle class="dot" cx="404.2953020134228" cy="170" r="3" fill="#2563eb"></circle><circle class="dot" cx="405.90604026845637" cy="170" r="3" fill="#2563eb"></circle><circle class="dot" cx="407.5167785234899" cy="170" r="3" fill="#2563eb"></circle><circle class="dot" cx="409.1275167785235" cy="170" r="3" fill="#2563eb"></circle><circle class="dot" cx="410.73825503355704" cy="170" r="3" fill="#2563eb"></circle><circle class="dot" cx="412.3489932885906" cy="170" r="3" fill="#2563eb"></circle><circle class="dot" cx="413.9597315436242" cy="170" r="3" fill="#2563eb"></circle><circle class="dot" cx="415.57046979865777" cy="170" r="3" fill="#2563eb"></circle><circle class="dot" cx="417.18120805369125" cy="170" r="3" fill="#2563eb"></circle><circle class="dot" cx="418.79194630872485" cy="170" r="3" fill="#2563eb"></circle><circle class="dot" cx="420.40268456375844" cy="170" r="3" fill="#2563eb"></circle><circle class="dot" cx="422.0134228187919" cy="170" r="3" fill="#2563eb"></circle><circle class="dot" cx="423.6241610738255" cy="170" r="3" fill="#2563eb"></circle><circle class="dot" cx="425.2348993288591" cy="170" r="3" fill="#2563eb"></circle><circle class="dot" cx="426.8456375838926" cy="170" r="3" fill="#2563eb"></circle><circle class="dot" cx="428.4563758389262" cy="170" r="3" fill="#2563eb"></circle><circle class="dot" cx="430.06711409395973" cy="170" r="3" fill="#2563eb"></circle><circle class="dot" cx="431.67785234899327" cy="170" r="3" fill="#2563eb"></circle><circle class="dot" cx="433.2885906040268" cy="170" r="3" fill="#2563eb"></circle><circle class="dot" cx="434.8993288590604" cy="170" r="3" fill="#2563eb"></circle><circle class="dot" cx="436.510067114094" cy="170" r="3" fill="#2563eb"></circle><circle class="dot" cx="438.1208053691275" cy="170" r="3" fill="#2563eb"></circle><circle class="dot" cx="439.7315436241611" cy="170" r="3" fill="#2563eb"></circle><circle class="dot" cx="441.3422818791947" cy="170" r="3" fill="#2563eb"></circle><circle class="dot" cx="442.95302013422815" cy="170" r="3" fill="#2563eb"></circle><circle class="dot" cx="444.56375838926175" cy="170" r="3" fill="#2563eb"></circle><circle class="dot" cx="446.17449664429535" cy="170" r="3" fill="#2563eb"></circle><circle class="dot" cx="447.7852348993288" cy="170" r="3" fill="#2563eb"></circle><circle class="dot" cx="449.3959731543624" cy="170" r="3" fill="#2563eb"></circle><circle class="dot" cx="451.00671140939596" cy="170" r="3" fill="#2563eb"></circle><circle class="dot" cx="452.61744966442956" cy="170" r="3" fill="#2563eb"></circle><circle class="dot" cx="454.2281879194631" cy="170" r="3" fill="#2563eb"></circle><circle class="dot" cx="455.83892617449663" cy="170" r="3" fill="#2563eb"></circle><circle class="dot" cx="457.44966442953023" cy="170" r="3" fill="#2563eb"></circle><circle class="dot" cx="459.0604026845637" cy="170" r="3" fill="#2563eb"></circle><circle class="dot" cx="460.6711409395973" cy="170" r="3" fill="#2563eb"></circle><circle class="dot" cx="462.2818791946309" cy="170" r="3" fill="#2563eb"></circle><circle class="dot" cx="463.8926174496644" cy="170" r="3" fill="#2563eb"></circle><circle class="dot" cx="465.503355704698" cy="170" r="3" fill="#2563eb"></circle><circle class="dot" cx="467.1140939597316" cy="170" r="3" fill="#2563eb"></circle><circle class="dot" cx="468.72483221476506" cy="170" r="3" fill="#2563eb"></circle><circle class="dot" cx="470.33557046979865" cy="170" r="3" fill="#2563eb"></circle><circle class="dot" cx="471.94630872483225" cy="170" r="3" fill="#2563eb"></circle><circle class="dot" cx="473.5570469798658" cy="170" r="3" fill="#2563eb"></circle><circle class="dot" cx="475.1677852348993" cy="170" r="3" fill="#2563eb"></circle><circle class="dot" cx="476.77852348993287" cy="170" r="3" fill="#2563eb"></circle><circle class="dot" cx="478.38926174496646" cy="170" r="3" fill="#2563eb"></circle><circle class="dot" cx="480" cy="170" r="3" fill="#2563eb"></circle><circle class="dot" cx="481.61073825503354" cy="170" r="3" fill="#2563eb"></circle><circle class="dot" cx="483.22147651006713" cy="170" r="3" fill="#2563eb"></circle><circle class="dot" cx="484.8322147651006" cy="170" r="3" fill="#2563eb"></circle><circle class="dot" cx="486.4429530201342" cy="170" r="3" fill="#2563eb"></circle><circle class="dot" cx="488.0536912751678" cy="170" r="3" fill="#2563eb"></circle><circle class="dot" cx="489.6644295302014" cy="170" r="3" fill="#2563eb"></circle><circle class="dot" cx="491.2751677852349" cy="170" r="3" fill="#2563eb"></circle><circle class="dot" cx="492.8859060402685" cy="170" r="3" fill="#2563eb"></circle><circle class="dot" cx="494.496644295302" cy="170" r="3" fill="#2563eb"></circle><circle class="dot" cx="496.10738255033556" cy="170" r="3" fill="#2563eb"></circle><circle class="dot" cx="497.71812080536915" cy="170" r="3" fill="#2563eb"></circle><circle class="dot" cx="499.3288590604027" cy="170" r="3" fill="#2563eb"></circle><circle class="dot" cx="500.93959731543623" cy="170" r="3" fill="#2563eb"></circle><circle class="dot" cx="502.55033557046977" cy="170" r="3" fill="#2563eb"></circle><circle class="dot" cx="504.16107382550337" cy="170" r="3" fill="#2563eb"></circle><circle class="dot" cx="505.77181208053685" cy="170" r="3" fill="#2563eb"></circle><circle class="dot" cx="507.38255033557044" cy="170" r="3" fill="#2563eb"></circle><circle class="dot" cx="508.99328859060404" cy="170" r="3" fill="#2563eb"></circle><circle class="dot" cx="510.60402684563763" cy="170" r="3" fill="#2563eb"></circle><circle class="dot" cx="512.2147651006711" cy="170" r="3" fill="#2563eb"></circle><circle class="dot" cx="513.8255033557047" cy="170" r="3" fill="#2563eb"></circle><circle class="dot" cx="515.4362416107383" cy="170" r="3" fill="#2563eb"></circle><circle class="dot" cx="517.0469798657717" cy="170" r="3" fill="#2563eb"></circle><circle class="dot" cx="518.6577181208054" cy="170" r="3" fill="#2563eb"></circle><circle class="dot" cx="520.2684563758389" cy="170" r="3" fill="#2563eb"></circle><circle class="dot" cx="521.8791946308725" cy="170" r="3" fill="#2563eb"></circle><circle class="dot" cx="523.489932885906" cy="170" r="3" fill="#2563eb"></circle><circle class="dot" cx="525.1006711409397" cy="170" r="3" fill="#2563eb"></circle><circle class="dot" cx="526.7114093959732" cy="170" r="3" fill="#2563eb"></circle><circle class="dot" cx="528.3221476510067" cy="170" r="3" fill="#2563eb"></circle><circle class="dot" cx="529.9328859060403" cy="170" r="3" fill="#2563eb"></circle><circle class="dot" cx="531.5436241610738" cy="170" r="3" fill="#2563eb"></circle><circle class="dot" cx="533.1543624161073" cy="170" r="3" fill="#2563eb"></circle><circle class="dot" cx="534.7651006711409" cy="170" r="3" fill="#2563eb"></circle><circle class="dot" cx="536.3758389261745" cy="170" r="3" fill="#2563eb"></circle><circle class="dot" cx="537.9865771812081" cy="170" r="3" fill="#2563eb"></circle><circle class="dot" cx="539.5973154362416" cy="170" r="3" fill="#2563eb"></circle><circle class="dot" cx="541.2080536912752" cy="170" r="3" fill="#2563eb"></circle><circle class="dot" cx="542.8187919463087" cy="170" r="3" fill="#2563eb"></circle><circle class="dot" cx="544.4295302013422" cy="170" r="3" fill="#2563eb"></circle><circle class="dot" cx="546.0402684563759" cy="170" r="3" fill="#2563eb"></circle><circle class="dot" cx="547.6510067114094" cy="170" r="3" fill="#2563eb"></circle><circle class="dot" cx="549.261744966443" cy="170" r="3" fill="#2563eb"></circle><circle class="dot" cx="550.8724832214765" cy="170" r="3" fill="#2563eb"></circle><circle class="dot" cx="552.4832214765102" cy="170" r="3" fill="#2563eb"></circle><circle class="dot" cx="554.0939597315436" cy="170" r="3" fill="#2563eb"></circle><circle class="dot" cx="555.7046979865772" cy="170" r="3" fill="#2563eb"></circle><circle class="dot" cx="557.3154362416108" cy="170" r="3" fill="#2563eb"></circle><circle class="dot" cx="558.9261744966443" cy="170" r="3" fill="#2563eb"></circle><circle class="dot" cx="560.5369127516778" cy="170" r="3" fill="#2563eb"></circle><circle class="dot" cx="562.1476510067114" cy="170" r="3" fill="#2563eb"></circle><circle class="dot" cx="563.758389261745" cy="170" r="3" fill="#2563eb"></circle><circle class="dot" cx="565.3691275167785" cy="170" r="3" fill="#2563eb"></circle><circle class="dot" cx="566.9798657718121" cy="170" r="3" fill="#2563eb"></circle><circle class="dot" cx="568.5906040268457" cy="170" r="3" fill="#2563eb"></circle><circle class="dot" cx="570.2013422818792" cy="170" r="3" fill="#2563eb"></circle><circle class="dot" cx="571.8120805369127" cy="170" r="3" fill="#2563eb"></circle><circle class="dot" cx="573.4228187919464" cy="170" r="3" fill="#2563eb"></circle><circle class="dot" cx="575.0335570469798" cy="170" r="3" fill="#2563eb"></circle><circle class="dot" cx="576.6442953020135" cy="170" r="3" fill="#2563eb"></circle><circle class="dot" cx="578.255033557047" cy="170" r="3" fill="#2563eb"></circle><circle class="dot" cx="579.8657718120805" cy="170" r="3" fill="#2563eb"></circle><circle class="dot" cx="581.4765100671141" cy="170" r="3" fill="#2563eb"></circle><circle class="dot" cx="583.0872483221476" cy="170" r="3" fill="#2563eb"></circle><circle class="dot" cx="584.6979865771813" cy="170" r="3" fill="#2563eb"></circle><circle class="dot" cx="586.3087248322147" cy="170" r="3" fill="#2563eb"></circle><circle class="dot" cx="587.9194630872483" cy="170" r="3" fill="#2563eb"></circle><circle class="dot" cx="589.5302013422819" cy="170" r="3" fill="#2563eb"></circle><circle class="dot" cx="591.1409395973154" cy="170" r="3" fill="#2563eb"></circle><circle class="dot" cx="592.751677852349" cy="170" r="3" fill="#2563eb"></circle><circle class="dot" cx="594.3624161073826" cy="170" r="3" fill="#2563eb"></circle><circle class="dot" cx="595.973154362416" cy="170" r="3" fill="#2563eb"></circle><circle class="dot" cx="597.5838926174497" cy="170" r="3" fill="#2563eb"></circle><circle class="dot" cx="599.1946308724832" cy="170" r="3" fill="#2563eb"></circle><circle class="dot" cx="600.8053691275168" cy="170" r="3" fill="#2563eb"></circle><circle class="dot" cx="602.4161073825503" cy="170" r="3" fill="#2563eb"></circle><circle class="dot" cx="604.0268456375838" cy="170" r="3" fill="#2563eb"></circle><circle class="dot" cx="605.6375838926175" cy="170" r="3" fill="#2563eb"></circle><circle class="dot" cx="607.248322147651" cy="170" r="3" fill="#2563eb"></circle><circle class="dot" cx="608.8590604026846" cy="170" r="3" fill="#2563eb"></circle><circle class="dot" cx="610.4697986577181" cy="170" r="3" fill="#2563eb"></circle><circle class="dot" cx="612.0805369127517" cy="170" r="3" fill="#2563eb"></circle><circle class="dot" cx="613.6912751677852" cy="170" r="3" fill="#2563eb"></circle><circle class="dot" cx="615.3020134228188" cy="170" r="3" fill="#2563eb"></circle><circle class="dot" cx="616.9127516778523" cy="170" r="3" fill="#2563eb"></circle><circle class="dot" cx="618.5234899328859" cy="170" r="3" fill="#2563eb"></circle><circle class="dot" cx="620.1342281879195" cy="170" r="3" fill="#2563eb"></circle><circle class="dot" cx="621.744966442953" cy="170" r="3" fill="#2563eb"></circle><circle class="dot" cx="623.3557046979865" cy="170" r="3" fill="#2563eb"></circle><circle class="dot" cx="624.9664429530202" cy="170" r="3" fill="#2563eb"></circle><circle class="dot" cx="626.5771812080537" cy="170" r="3" fill="#2563eb"></circle><circle class="dot" cx="628.1879194630873" cy="170" r="3" fill="#2563eb"></circle><circle class="dot" cx="629.7986577181208" cy="170" r="3" fill="#2563eb"></circle><circle class="dot" cx="631.4093959731543" cy="170" r="3" fill="#2563eb"></circle><circle class="dot" cx="633.0201342281879" cy="170" r="3" fill="#2563eb"></circle><circle class="dot" cx="634.6308724832214" cy="170" r="3" fill="#2563eb"></circle><circle class="dot" cx="636.2416107382551" cy="170" r="3" fill="#2563eb"></circle><circle class="dot" cx="637.8523489932886" cy="170" r="3" fill="#2563eb"></circle><circle class="dot" cx="639.4630872483222" cy="170" r="3" fill="#2563eb"></circle><circle class="dot" cx="641.0738255033557" cy="170" r="3" fill="#2563eb"></circle><circle class="dot" cx="642.6845637583893" cy="170" r="3" fill="#2563eb"></circle><circle class="dot" cx="644.2953020134228" cy="170" r="3" fill="#2563eb"></circle><circle class="dot" cx="645.9060402684564" cy="170" r="3" fill="#2563eb"></circle><circle class="dot" cx="647.51677852349" cy="170" r="3" fill="#2563eb"></circle><circle class="dot" cx="649.1275167785235" cy="170" r="3" fill="#2563eb"></circle><circle class="dot" cx="650.738255033557" cy="170" r="3" fill="#2563eb"></circle><circle class="dot" cx="652.3489932885906" cy="170" r="3" fill="#2563eb"></circle><circle class="dot" cx="653.9597315436241" cy="170" r="3" fill="#2563eb"></circle><circle class="dot" cx="655.5704697986577" cy="170" r="3" fill="#2563eb"></circle><circle class="dot" cx="657.1812080536913" cy="170" r="3" fill="#2563eb"></circle><circle class="dot" cx="658.7919463087248" cy="170" r="3" fill="#2563eb"></circle><circle class="dot" cx="660.4026845637584" cy="170" r="3" fill="#2563eb"></circle><circle class="dot" cx="662.0134228187919" cy="170" r="3" fill="#2563eb"></circle><circle class="dot" cx="663.6241610738256" cy="170" r="3" fill="#2563eb"></circle><circle class="dot" cx="665.234899328859" cy="170" r="3" fill="#2563eb"></circle><circle class="dot" cx="666.8456375838927" cy="170" r="3" fill="#2563eb"></circle><circle class="dot" cx="668.4563758389262" cy="170" r="3" fill="#2563eb"></circle><circle class="dot" cx="670.0671140939597" cy="170" r="3" fill="#2563eb"></circle><circle class="dot" cx="671.6778523489933" cy="170" r="3" fill="#2563eb"></circle><circle class="dot" cx="673.2885906040268" cy="170" r="3" fill="#2563eb"></circle><circle class="dot" cx="674.8993288590605" cy="170" r="3" fill="#2563eb"></circle><circle class="dot" cx="676.510067114094" cy="170" r="3" fill="#2563eb"></circle><circle class="dot" cx="678.1208053691275" cy="170" r="3" fill="#2563eb"></circle><circle class="dot" cx="679.7315436241611" cy="170" r="3" fill="#2563eb"></circle><circle class="dot" cx="681.3422818791946" cy="170" r="3" fill="#2563eb"></circle><circle class="dot" cx="682.9530201342282" cy="170" r="3" fill="#2563eb"></circle><circle class="dot" cx="684.5637583892618" cy="170" r="3" fill="#2563eb"></circle><circle class="dot" cx="686.1744966442952" cy="170" r="3" fill="#2563eb"></circle><circle class="dot" cx="687.7852348993289" cy="170" r="3" fill="#2563eb"></circle><circle class="dot" cx="689.3959731543624" cy="170" r="3" fill="#2563eb"></circle><circle class="dot" cx="691.006711409396" cy="170" r="3" fill="#2563eb"></circle><circle class="dot" cx="692.6174496644295" cy="170" r="3" fill="#2563eb"></circle><circle class="dot" cx="694.2281879194632" cy="170" r="3" fill="#2563eb"></circle><circle class="dot" cx="695.8389261744967" cy="170" r="3" fill="#2563eb"></circle><circle class="dot" cx="697.4496644295302" cy="170" r="3" fill="#2563eb"></circle><circle class="dot" cx="699.0604026845638" cy="170" r="3" fill="#2563eb"></circle><circle class="dot" cx="700.6711409395973" cy="170" r="3" fill="#2563eb"></circle><circle class="dot" cx="702.2818791946308" cy="170" r="3" fill="#2563eb"></circle><circle class="dot" cx="703.8926174496644" cy="170" r="3" fill="#2563eb"></circle><circle class="dot" cx="705.503355704698" cy="170" r="3" fill="#2563eb"></circle><circle class="dot" cx="707.1140939597315" cy="170" r="3" fill="#2563eb"></circle><circle class="dot" cx="708.7248322147651" cy="170" r="3" fill="#2563eb"></circle><circle class="dot" cx="710.3355704697987" cy="170" r="3" fill="#2563eb"></circle><circle class="dot" cx="711.9463087248323" cy="170" r="3" fill="#2563eb"></circle><circle class="dot" cx="713.5570469798657" cy="170" r="3" fill="#2563eb"></circle><circle class="dot" cx="715.1677852348994" cy="170" r="3" fill="#2563eb"></circle><circle class="dot" cx="716.7785234899329" cy="170" r="3" fill="#2563eb"></circle><circle class="dot" cx="718.3892617449665" cy="170" r="3" fill="#2563eb"></circle><circle class="dot" cx="720" cy="170" r="3" fill="#2563eb"></circle><g class="grid" transform="translate(0,340)" fill="none" font-size="10" font-family="sans-serif" text-anchor="middle" style="stroke-dasharray: 3,3; opacity: 0.3;"><path class="domain" stroke="currentColor" d="M0.5,-340V0.5H720.5V-340"></path><g class="tick" opacity="1" transform="translate(0.5,0)"><line stroke="currentColor" y2="-340"></line><text fill="currentColor" y="3" dy="0.71em"></text></g><g class="tick" opacity="1" transform="translate(39.15771812080537,0)"><line stroke="currentColor" y2="-340"></line><text fill="currentColor" y="3" dy="0.71em"></text></g><g class="tick" opacity="1" transform="translate(77.81543624161074,0)"><line stroke="currentColor" y2="-340"></line><text fill="currentColor" y="3" dy="0.71em"></text></g><g class="tick" opacity="1" transform="translate(116.4731543624161,0)"><line stroke="currentColor" y2="-340"></line><text fill="currentColor" y="3" dy="0.71em"></text></g><g class="tick" opacity="1" transform="translate(155.13087248322148,0)"><line stroke="currentColor" y2="-340"></line><text fill="currentColor" y="3" dy="0.71em"></text></g><g class="tick" opacity="1" transform="translate(193.78859060402684,0)"><line stroke="currentColor" y2="-340"></line><text fill="currentColor" y="3" dy="0.71em"></text></g><g class="tick" opacity="1" transform="translate(232.4463087248322,0)"><line stroke="currentColor" y2="-340"></line><text fill="currentColor" y="3" dy="0.71em"></text></g><g class="tick" opacity="1" transform="translate(271.1040268456376,0)"><line stroke="currentColor" y2="-340"></line><text fill="currentColor" y="3" dy="0.71em"></text></g><g class="tick" opacity="1" transform="translate(309.76174496644296,0)"><line stroke="currentColor" y2="-340"></line><text fill="currentColor" y="3" dy="0.71em"></text></g><g class="tick" opacity="1" transform="translate(348.41946308724835,0)"><line stroke="currentColor" y2="-340"></line><text fill="currentColor" y="3" dy="0.71em"></text></g><g class="tick" opacity="1" transform="translate(387.0771812080537,0)"><line stroke="currentColor" y2="-340"></line><text fill="currentColor" y="3" dy="0.71em"></text></g><g class="tick" opacity="1" transform="translate(425.7348993288591,0)"><line stroke="currentColor" y2="-340"></line><text fill="currentColor" y="3" dy="0.71em"></text></g><g class="tick" opacity="1" transform="translate(464.3926174496644,0)"><line stroke="currentColor" y2="-340"></line><text fill="currentColor" y="3" dy="0.71em"></text></g><g class="tick" opacity="1" transform="translate(503.05033557046977,0)"><line stroke="currentColor" y2="-340"></line><text fill="currentColor" y="3" dy="0.71em"></text></g><g class="tick" opacity="1" transform="translate(541.7080536912752,0)"><line stroke="currentColor" y2="-340"></line><text fill="currentColor" y="3" dy="0.71em"></text></g><g class="tick" opacity="1" transform="translate(580.3657718120805,0)"><line stroke="currentColor" y2="-340"></line><text fill="currentColor" y="3" dy="0.71em"></text></g><g class="tick" opacity="1" transform="translate(619.0234899328859,0)"><line stroke="currentColor" y2="-340"></line><text fill="currentColor" y="3" dy="0.71em"></text></g><g class="tick" opacity="1" transform="translate(657.6812080536913,0)"><line stroke="currentColor" y2="-340"></line><text fill="currentColor" y="3" dy="0.71em"></text></g><g class="tick" opacity="1" transform="translate(696.3389261744967,0)"><line stroke="currentColor" y2="-340"></line><text fill="currentColor" y="3" dy="0.71em"></text></g></g><g class="grid" fill="none" font-size="10" font-family="sans-serif" text-anchor="end" style="stroke-dasharray: 3,3; opacity: 0.3;"><path class="domain" stroke="currentColor" d="M720,340.5H0.5V0.5H720"></path><g class="tick" opacity="1" transform="translate(0,170.5)"><line stroke="currentColor" x2="720"></line><text fill="currentColor" x="-3" dy="0.32em"></text></g></g></g><text x="400" y="10" text-anchor="middle" style="font-size: 16px; font-weight: bold; fill: #333;">OKX USDT Lending Rate - Current Month</text></svg>