<svg width="800" height="400" xmlns="http://www.w3.org/2000/svg"><g transform="translate(50,20)"><g transform="translate(0,340)" fill="none" font-size="10" font-family="sans-serif" text-anchor="middle"><path class="domain" stroke="currentColor" d="M0.5,6V0.5H720.5V6"></path><g class="tick" opacity="1" transform="translate(0.5,0)"><line stroke="currentColor" y2="6"></line><text fill="currentColor" y="9" dy=".15em" style="text-anchor: end;" dx="-.8em" transform="rotate(-45)">03/01</text></g><g class="tick" opacity="1" transform="translate(25.91176470588235,0)"><line stroke="currentColor" y2="6"></line><text fill="currentColor" y="9" dy=".15em" style="text-anchor: end;" dx="-.8em" transform="rotate(-45)">03/02</text></g><g class="tick" opacity="1" transform="translate(51.3235294117647,0)"><line stroke="currentColor" y2="6"></line><text fill="currentColor" y="9" dy=".15em" style="text-anchor: end;" dx="-.8em" transform="rotate(-45)">03/03</text></g><g class="tick" opacity="1" transform="translate(76.73529411764706,0)"><line stroke="currentColor" y2="6"></line><text fill="currentColor" y="9" dy=".15em" style="text-anchor: end;" dx="-.8em" transform="rotate(-45)">03/04</text></g><g class="tick" opacity="1" transform="translate(102.1470588235294,0)"><line stroke="currentColor" y2="6"></line><text fill="currentColor" y="9" dy=".15em" style="text-anchor: end;" dx="-.8em" transform="rotate(-45)">03/05</text></g><g class="tick" opacity="1" transform="translate(127.55882352941177,0)"><line stroke="currentColor" y2="6"></line><text fill="currentColor" y="9" dy=".15em" style="text-anchor: end;" dx="-.8em" transform="rotate(-45)">03/06</text></g><g class="tick" opacity="1" transform="translate(152.97058823529412,0)"><line stroke="currentColor" y2="6"></line><text fill="currentColor" y="9" dy=".15em" style="text-anchor: end;" dx="-.8em" transform="rotate(-45)">03/07</text></g><g class="tick" opacity="1" transform="translate(178.38235294117646,0)"><line stroke="currentColor" y2="6"></line><text fill="currentColor" y="9" dy=".15em" style="text-anchor: end;" dx="-.8em" transform="rotate(-45)">03/08</text></g><g class="tick" opacity="1" transform="translate(203.7941176470588,0)"><line stroke="currentColor" y2="6"></line><text fill="currentColor" y="9" dy=".15em" style="text-anchor: end;" dx="-.8em" transform="rotate(-45)">03/09</text></g><g class="tick" opacity="1" transform="translate(229.20588235294116,0)"><line stroke="currentColor" y2="6"></line><text fill="currentColor" y="9" dy=".15em" style="text-anchor: end;" dx="-.8em" transform="rotate(-45)">03/10</text></g><g class="tick" opacity="1" transform="translate(254.61764705882354,0)"><line stroke="currentColor" y2="6"></line><text fill="currentColor" y="9" dy=".15em" style="text-anchor: end;" dx="-.8em" transform="rotate(-45)">03/11</text></g><g class="tick" opacity="1" transform="translate(280.0294117647059,0)"><line stroke="currentColor" y2="6"></line><text fill="currentColor" y="9" dy=".15em" style="text-anchor: end;" dx="-.8em" transform="rotate(-45)">03/12</text></g><g class="tick" opacity="1" transform="translate(305.44117647058823,0)"><line stroke="currentColor" y2="6"></line><text fill="currentColor" y="9" dy=".15em" style="text-anchor: end;" dx="-.8em" transform="rotate(-45)">03/13</text></g><g class="tick" opacity="1" transform="translate(330.85294117647055,0)"><line stroke="currentColor" y2="6"></line><text fill="currentColor" y="9" dy=".15em" style="text-anchor: end;" dx="-.8em" transform="rotate(-45)">03/14</text></g><g class="tick" opacity="1" transform="translate(356.2647058823529,0)"><line stroke="currentColor" y2="6"></line><text fill="currentColor" y="9" dy=".15em" style="text-anchor: end;" dx="-.8em" transform="rotate(-45)">03/15</text></g><g class="tick" opacity="1" transform="translate(381.6764705882353,0)"><line stroke="currentColor" y2="6"></line><text fill="currentColor" y="9" dy=".15em" style="text-anchor: end;" dx="-.8em" transform="rotate(-45)">03/16</text></g><g class="tick" opacity="1" transform="translate(407.0882352941176,0)"><line stroke="currentColor" y2="6"></line><text fill="currentColor" y="9" dy=".15em" style="text-anchor: end;" dx="-.8em" transform="rotate(-45)">03/17</text></g><g class="tick" opacity="1" transform="translate(432.5,0)"><line stroke="currentColor" y2="6"></line><text fill="currentColor" y="9" dy=".15em" style="text-anchor: end;" dx="-.8em" transform="rotate(-45)">03/18</text></g><g class="tick" opacity="1" transform="translate(457.9117647058823,0)"><line stroke="currentColor" y2="6"></line><text fill="currentColor" y="9" dy=".15em" style="text-anchor: end;" dx="-.8em" transform="rotate(-45)">03/19</text></g><g class="tick" opacity="1" transform="translate(483.3235294117647,0)"><line stroke="currentColor" y2="6"></line><text fill="currentColor" y="9" dy=".15em" style="text-anchor: end;" dx="-.8em" transform="rotate(-45)">03/20</text></g><g class="tick" opacity="1" transform="translate(508.7352941176471,0)"><line stroke="currentColor" y2="6"></line><text fill="currentColor" y="9" dy=".15em" style="text-anchor: end;" dx="-.8em" transform="rotate(-45)">03/21</text></g><g class="tick" opacity="1" transform="translate(534.1470588235294,0)"><line stroke="currentColor" y2="6"></line><text fill="currentColor" y="9" dy=".15em" style="text-anchor: end;" dx="-.8em" transform="rotate(-45)">03/22</text></g><g class="tick" opacity="1" transform="translate(559.5588235294118,0)"><line stroke="currentColor" y2="6"></line><text fill="currentColor" y="9" dy=".15em" style="text-anchor: end;" dx="-.8em" transform="rotate(-45)">03/23</text></g><g class="tick" opacity="1" transform="translate(584.9705882352941,0)"><line stroke="currentColor" y2="6"></line><text fill="currentColor" y="9" dy=".15em" style="text-anchor: end;" dx="-.8em" transform="rotate(-45)">03/24</text></g><g class="tick" opacity="1" transform="translate(610.3823529411765,0)"><line stroke="currentColor" y2="6"></line><text fill="currentColor" y="9" dy=".15em" style="text-anchor: end;" dx="-.8em" transform="rotate(-45)">03/25</text></g><g class="tick" opacity="1" transform="translate(635.7941176470588,0)"><line stroke="currentColor" y2="6"></line><text fill="currentColor" y="9" dy=".15em" style="text-anchor: end;" dx="-.8em" transform="rotate(-45)">03/26</text></g><g class="tick" opacity="1" transform="translate(661.2058823529411,0)"><line stroke="currentColor" y2="6"></line><text fill="currentColor" y="9" dy=".15em" style="text-anchor: end;" dx="-.8em" transform="rotate(-45)">03/27</text></g><g class="tick" opacity="1" transform="translate(686.6176470588235,0)"><line stroke="currentColor" y2="6"></line><text fill="currentColor" y="9" dy=".15em" style="text-anchor: end;" dx="-.8em" transform="rotate(-45)">03/28</text></g><g class="tick" opacity="1" transform="translate(712.0294117647059,0)"><line stroke="currentColor" y2="6"></line><text fill="currentColor" y="9" dy=".15em" style="text-anchor: end;" dx="-.8em" transform="rotate(-45)">03/29</text></g></g><g fill="none" font-size="10" font-family="sans-serif" text-anchor="end"><path class="domain" stroke="currentColor" d="M-6,340.5H0.5V0.5H-6"></path><g class="tick" opacity="1" transform="translate(0,170.5)"><line stroke="currentColor" x2="-6"></line><text fill="currentColor" x="-9" dy="0.32em">2.50%</text></g></g><text transform="rotate(-90)" y="-50" x="-170" dy="1em" style="text-anchor: middle; font-size: 12px; fill: #666;">Pre Rate (%)</text><text transform="translate(360, 380)" style="text-anchor: middle; font-size: 12px; fill: #666;">Time (UTC)</text><path fill="none" stroke="#2563eb" stroke-width="2" d="M0,170C0.353,170,0.706,170,1.059,170C1.412,170,1.765,170,2.118,170C2.471,170,2.824,170,3.176,170C3.529,170,3.882,170,4.235,170C4.588,170,4.941,170,5.294,170C5.647,170,6,170,6.353,170C6.706,170,7.059,170,7.412,170C7.765,170,8.118,170,8.471,170C8.824,170,9.176,170,9.529,170C9.882,170,10.235,170,10.588,170C10.941,170,11.294,170,11.647,170C12,170,12.353,170,12.706,170C13.059,170,13.412,170,13.765,170C14.118,170,14.471,170,14.824,170C15.176,170,15.529,170,15.882,170C16.235,170,16.588,170,16.941,170C17.294,170,17.647,170,18,170C18.353,170,18.706,170,19.059,170C19.412,170,19.765,170,20.118,170C20.471,170,20.824,170,21.176,170C21.529,170,21.882,170,22.235,170C22.588,170,22.941,170,23.294,170C23.647,170,24,170,24.353,170C24.706,170,25.059,170,25.412,170C25.765,170,26.118,170,26.471,170C26.824,170,27.176,170,27.529,170C27.882,170,28.235,170,28.588,170C28.941,170,29.294,170,29.647,170C30,170,30.353,170,30.706,170C31.059,170,31.412,170,31.765,170C32.118,170,32.471,170,32.824,170C33.176,170,33.529,170,33.882,170C34.235,170,34.588,170,34.941,170C35.294,170,35.647,170,36,170C36.353,170,36.706,170,37.059,170C37.412,170,37.765,170,38.118,170C38.471,170,38.824,170,39.176,170C39.529,170,39.882,170,40.235,170C40.588,170,40.941,170,41.294,170C41.647,170,42,170,42.353,170C42.706,170,43.059,170,43.412,170C43.765,170,44.118,170,44.471,170C44.824,170,45.176,170,45.529,170C45.882,170,46.235,170,46.588,170C46.941,170,47.294,170,47.647,170C48,170,48.353,170,48.706,170C49.059,170,49.412,170,49.765,170C50.118,170,50.471,170,50.824,170C51.176,170,51.529,170,51.882,170C52.235,170,52.588,170,52.941,170C53.294,170,53.647,170,54,170C54.353,170,54.706,170,55.059,170C55.412,170,55.765,170,56.118,170C56.471,170,56.824,170,57.176,170C57.529,170,57.882,170,58.235,170C58.588,170,58.941,170,59.294,170C59.647,170,60,170,60.353,170C60.706,170,61.059,170,61.412,170C61.765,170,62.118,170,62.471,170C62.824,170,63.176,170,63.529,170C63.882,170,64.235,170,64.588,170C64.941,170,65.294,170,65.647,170C66,170,66.353,170,66.706,170C67.059,170,67.412,170,67.765,170C68.118,170,68.471,170,68.824,170C69.176,170,69.529,170,69.882,170C70.235,170,70.588,170,70.941,170C71.294,170,71.647,170,72,170C72.353,170,72.706,170,73.059,170C73.412,170,73.765,170,74.118,170C74.471,170,74.824,170,75.176,170C75.529,170,75.882,170,76.235,170C76.588,170,76.941,170,77.294,170C77.647,170,78,170,78.353,170C78.706,170,79.059,170,79.412,170C79.765,170,80.118,170,80.471,170C80.824,170,81.176,170,81.529,170C81.882,170,82.235,170,82.588,170C82.941,170,83.294,170,83.647,170C84,170,84.353,170,84.706,170C85.059,170,85.412,170,85.765,170C86.118,170,86.471,170,86.824,170C87.176,170,87.529,170,87.882,170C88.235,170,88.588,170,88.941,170C89.294,170,89.647,170,90,170C90.353,170,90.706,170,91.059,170C91.412,170,91.765,170,92.118,170C92.471,170,92.824,170,93.176,170C93.529,170,93.882,170,94.235,170C94.588,170,94.941,170,95.294,170C95.647,170,96,170,96.353,170C96.706,170,97.059,170,97.412,170C97.765,170,98.118,170,98.471,170C98.824,170,99.176,170,99.529,170C99.882,170,100.235,170,100.588,170C100.941,170,101.294,170,101.647,170C102,170,102.353,170,102.706,170C103.059,170,103.412,170,103.765,170C104.118,170,104.471,170,104.824,170C105.176,170,105.529,170,105.882,170C106.235,170,106.588,170,106.941,170C107.294,170,107.647,170,108,170C108.353,170,108.706,170,109.059,170C109.412,170,109.765,170,110.118,170C110.471,170,110.824,170,111.176,170C111.529,170,111.882,170,112.235,170C112.588,170,112.941,170,113.294,170C113.647,170,114,170,114.353,170C114.706,170,115.059,170,115.412,170C115.765,170,116.118,170,116.471,170C116.824,170,117.176,170,117.529,170C117.882,170,118.235,170,118.588,170C118.941,170,119.294,170,119.647,170C120,170,120.353,170,120.706,170C121.059,170,121.412,170,121.765,170C122.118,170,122.471,170,122.824,170C123.176,170,123.529,170,123.882,170C124.235,170,124.588,170,124.941,170C125.294,170,125.647,170,126,170C126.353,170,126.706,170,127.059,170C127.412,170,127.765,170,128.118,170C128.471,170,128.824,170,129.176,170C129.529,170,129.882,170,130.235,170C130.588,170,130.941,170,131.294,170C131.647,170,132,170,132.353,170C132.706,170,133.059,170,133.412,170C133.765,170,134.118,170,134.471,170C134.824,170,135.176,170,135.529,170C135.882,170,136.235,170,136.588,170C136.941,170,137.294,170,137.647,170C138,170,138.353,170,138.706,170C139.059,170,139.412,170,139.765,170C140.118,170,140.471,170,140.824,170C141.176,170,141.529,170,141.882,170C142.235,170,142.588,170,142.941,170C143.294,170,143.647,170,144,170C144.353,170,144.706,170,145.059,170C145.412,170,145.765,170,146.118,170C146.471,170,146.824,170,147.176,170C147.529,170,147.882,170,148.235,170C148.588,170,148.941,170,149.294,170C149.647,170,150,170,150.353,170C150.706,170,151.059,170,151.412,170C151.765,170,152.118,170,152.471,170C152.824,170,153.176,170,153.529,170C153.882,170,154.235,170,154.588,170C154.941,170,155.294,170,155.647,170C156,170,156.353,170,156.706,170C157.059,170,157.412,170,157.765,170C158.118,170,158.471,170,158.824,170C159.176,170,159.529,170,159.882,170C160.235,170,160.588,170,160.941,170C161.294,170,161.647,170,162,170C162.353,170,162.706,170,163.059,170C163.412,170,163.765,170,164.118,170C164.471,170,164.824,170,165.176,170C165.529,170,165.882,170,166.235,170C166.588,170,166.941,170,167.294,170C167.647,170,168,170,168.353,170C168.706,170,169.059,170,169.412,170C169.765,170,170.118,170,170.471,170C170.824,170,171.176,170,171.529,170C171.882,170,172.235,170,172.588,170C172.941,170,173.294,170,173.647,170C174,170,174.353,170,174.706,170C175.059,170,175.412,170,175.765,170C176.118,170,176.471,170,176.824,170C177.176,170,177.529,170,177.882,170C178.235,170,178.588,170,178.941,170C179.294,170,179.647,170,180,170C180.353,170,180.706,170,181.059,170C181.412,170,181.765,170,182.118,170C182.471,170,182.824,170,183.176,170C183.529,170,183.882,170,184.235,170C184.588,170,184.941,170,185.294,170C185.647,170,186,170,186.353,170C186.706,170,187.059,170,187.412,170C187.765,170,188.118,170,188.471,170C188.824,170,189.176,170,189.529,170C189.882,170,190.235,170,190.588,170C190.941,170,191.294,170,191.647,170C192,170,192.353,170,192.706,170C193.059,170,193.412,170,193.765,170C194.118,170,194.471,170,194.824,170C195.176,170,195.529,170,195.882,170C196.235,170,196.588,170,196.941,170C197.294,170,197.647,170,198,170C198.353,170,198.706,170,199.059,170C199.412,170,199.765,170,200.118,170C200.471,170,200.824,170,201.176,170C201.529,170,201.882,170,202.235,170C202.588,170,202.941,170,203.294,170C203.647,170,204,170,204.353,170C204.706,170,205.059,170,205.412,170C205.765,170,206.118,170,206.471,170C206.824,170,207.176,170,207.529,170C207.882,170,208.235,170,208.588,170C208.941,170,209.294,170,209.647,170C210,170,210.353,170,210.706,170C211.059,170,211.412,170,211.765,170C212.118,170,212.471,170,212.824,170C213.176,170,213.529,170,213.882,170C214.235,170,214.588,170,214.941,170C215.294,170,215.647,170,216,170C216.353,170,216.706,170,217.059,170C217.412,170,217.765,170,218.118,170C218.471,170,218.824,170,219.176,170C219.529,170,219.882,170,220.235,170C220.588,170,220.941,170,221.294,170C221.647,170,222,170,222.353,170C222.706,170,223.059,170,223.412,170C223.765,170,224.118,170,224.471,170C224.824,170,225.176,170,225.529,170C225.882,170,226.235,170,226.588,170C226.941,170,227.294,170,227.647,170C228,170,228.353,170,228.706,170C229.059,170,229.412,170,229.765,170C230.118,170,230.471,170,230.824,170C231.176,170,231.529,170,231.882,170C232.235,170,232.588,170,232.941,170C233.294,170,233.647,170,234,170C234.353,170,234.706,170,235.059,170C235.412,170,235.765,170,236.118,170C236.471,170,236.824,170,237.176,170C237.529,170,237.882,170,238.235,170C238.588,170,238.941,170,239.294,170C239.647,170,240,170,240.353,170C240.706,170,241.059,170,241.412,170C241.765,170,242.118,170,242.471,170C242.824,170,243.176,170,243.529,170C243.882,170,244.235,170,244.588,170C244.941,170,245.294,170,245.647,170C246,170,246.353,170,246.706,170C247.059,170,247.412,170,247.765,170C248.118,170,248.471,170,248.824,170C249.176,170,249.529,170,249.882,170C250.235,170,250.588,170,250.941,170C251.294,170,251.647,170,252,170C252.353,170,252.706,170,253.059,170C253.412,170,253.765,170,254.118,170C254.471,170,254.824,170,255.176,170C255.529,170,255.882,170,256.235,170C256.588,170,256.941,170,257.294,170C257.647,170,258,170,258.353,170C258.706,170,259.059,170,259.412,170C259.765,170,260.118,170,260.471,170C260.824,170,261.176,170,261.529,170C261.882,170,262.235,170,262.588,170C262.941,170,263.294,170,263.647,170C264,170,264.353,170,264.706,170C265.059,170,265.412,170,265.765,170C266.118,170,266.471,170,266.824,170C267.176,170,267.529,170,267.882,170C268.235,170,268.588,170,268.941,170C269.294,170,269.647,170,270,170C270.353,170,270.706,170,271.059,170C271.412,170,271.765,170,272.118,170C272.471,170,272.824,170,273.176,170C273.529,170,273.882,170,274.235,170C274.588,170,274.941,170,275.294,170C275.647,170,276,170,276.353,170C276.706,170,277.059,170,277.412,170C277.765,170,278.118,170,278.471,170C278.824,170,279.176,170,279.529,170C279.882,170,280.235,170,280.588,170C280.941,170,281.294,170,281.647,170C282,170,282.353,170,282.706,170C283.059,170,283.412,170,283.765,170C284.118,170,284.471,170,284.824,170C285.176,170,285.529,170,285.882,170C286.235,170,286.588,170,286.941,170C287.294,170,287.647,170,288,170C288.353,170,288.706,170,289.059,170C289.412,170,289.765,170,290.118,170C290.471,170,290.824,170,291.176,170C291.529,170,291.882,170,292.235,170C292.588,170,292.941,170,293.294,170C293.647,170,294,170,294.353,170C294.706,170,295.059,170,295.412,170C295.765,170,296.118,170,296.471,170C296.824,170,297.176,170,297.529,170C297.882,170,298.235,170,298.588,170C298.941,170,299.294,170,299.647,170C300,170,300.353,170,300.706,170C301.059,170,301.412,170,301.765,170C302.118,170,302.471,170,302.824,170C303.176,170,303.529,170,303.882,170C304.235,170,304.588,170,304.941,170C305.294,170,305.647,170,306,170C306.353,170,306.706,170,307.059,170C307.412,170,307.765,170,308.118,170C308.471,170,308.824,170,309.176,170C309.529,170,309.882,170,310.235,170C310.588,170,310.941,170,311.294,170C311.647,170,312,170,312.353,170C312.706,170,313.059,170,313.412,170C313.765,170,314.118,170,314.471,170C314.824,170,315.176,170,315.529,170C315.882,170,316.235,170,316.588,170C316.941,170,317.294,170,317.647,170C318,170,318.353,170,318.706,170C319.059,170,319.412,170,319.765,170C320.118,170,320.471,170,320.824,170C321.176,170,321.529,170,321.882,170C322.235,170,322.588,170,322.941,170C323.294,170,323.647,170,324,170C324.353,170,324.706,170,325.059,170C325.412,170,325.765,170,326.118,170C326.471,170,326.824,170,327.176,170C327.529,170,327.882,170,328.235,170C328.588,170,328.941,170,329.294,170C329.647,170,330,170,330.353,170C330.706,170,331.059,170,331.412,170C331.765,170,332.118,170,332.471,170C332.824,170,333.176,170,333.529,170C333.882,170,334.235,170,334.588,170C334.941,170,335.294,170,335.647,170C336,170,336.353,170,336.706,170C337.059,170,337.412,170,337.765,170C338.118,170,338.471,170,338.824,170C339.176,170,339.529,170,339.882,170C340.235,170,340.588,170,340.941,170C341.294,170,341.647,170,342,170C342.353,170,342.706,170,343.059,170C343.412,170,343.765,170,344.118,170C344.471,170,344.824,170,345.176,170C345.529,170,345.882,170,346.235,170C346.588,170,346.941,170,347.294,170C347.647,170,348,170,348.353,170C348.706,170,349.059,170,349.412,170C349.765,170,350.118,170,350.471,170C350.824,170,351.176,170,351.529,170C351.882,170,352.235,170,352.588,170C352.941,170,353.294,170,353.647,170C354,170,354.353,170,354.706,170C355.059,170,355.412,170,355.765,170C356.118,170,356.471,170,356.824,170C357.176,170,357.529,170,357.882,170C358.235,170,358.588,170,358.941,170C359.294,170,359.647,170,360,170C360.353,170,360.706,170,361.059,170C361.412,170,361.765,170,362.118,170C362.471,170,362.824,170,363.176,170C363.529,170,363.882,170,364.235,170C364.588,170,364.941,170,365.294,170C365.647,170,366,170,366.353,170C366.706,170,367.059,170,367.412,170C367.765,170,368.118,170,368.471,170C368.824,170,369.176,170,369.529,170C369.882,170,370.235,170,370.588,170C370.941,170,371.294,170,371.647,170C372,170,372.353,170,372.706,170C373.059,170,373.412,170,373.765,170C374.118,170,374.471,170,374.824,170C375.176,170,375.529,170,375.882,170C376.235,170,376.588,170,376.941,170C377.294,170,377.647,170,378,170C378.353,170,378.706,170,379.059,170C379.412,170,379.765,170,380.118,170C380.471,170,380.824,170,381.176,170C381.529,170,381.882,170,382.235,170C382.588,170,382.941,170,383.294,170C383.647,170,384,170,384.353,170C384.706,170,385.059,170,385.412,170C385.765,170,386.118,170,386.471,170C386.824,170,387.176,170,387.529,170C387.882,170,388.235,170,388.588,170C388.941,170,389.294,170,389.647,170C390,170,390.353,170,390.706,170C391.059,170,391.412,170,391.765,170C392.118,170,392.471,170,392.824,170C393.176,170,393.529,170,393.882,170C394.235,170,394.588,170,394.941,170C395.294,170,395.647,170,396,170C396.353,170,396.706,170,397.059,170C397.412,170,397.765,170,398.118,170C398.471,170,398.824,170,399.176,170C399.529,170,399.882,170,400.235,170C400.588,170,400.941,170,401.294,170C401.647,170,402,170,402.353,170C402.706,170,403.059,170,403.412,170C403.765,170,404.118,170,404.471,170C404.824,170,405.176,170,405.529,170C405.882,170,406.235,170,406.588,170C406.941,170,407.294,170,407.647,170C408,170,408.353,170,408.706,170C409.059,170,409.412,170,409.765,170C410.118,170,410.471,170,410.824,170C411.176,170,411.529,170,411.882,170C412.235,170,412.588,170,412.941,170C413.294,170,413.647,170,414,170C414.353,170,414.706,170,415.059,170C415.412,170,415.765,170,416.118,170C416.471,170,416.824,170,417.176,170C417.529,170,417.882,170,418.235,170C418.588,170,418.941,170,419.294,170C419.647,170,420,170,420.353,170C420.706,170,421.059,170,421.412,170C421.765,170,422.118,170,422.471,170C422.824,170,423.176,170,423.529,170C423.882,170,424.235,170,424.588,170C424.941,170,425.294,170,425.647,170C426,170,426.353,170,426.706,170C427.059,170,427.412,170,427.765,170C428.118,170,428.471,170,428.824,170C429.176,170,429.529,170,429.882,170C430.235,170,430.588,170,430.941,170C431.294,170,431.647,170,432,170C432.353,170,432.706,170,433.059,170C433.412,170,433.765,170,434.118,170C434.471,170,434.824,170,435.176,170C435.529,170,435.882,170,436.235,170C436.588,170,436.941,170,437.294,170C437.647,170,438,170,438.353,170C438.706,170,439.059,170,439.412,170C439.765,170,440.118,170,440.471,170C440.824,170,441.176,170,441.529,170C441.882,170,442.235,170,442.588,170C442.941,170,443.294,170,443.647,170C444,170,444.353,170,444.706,170C445.059,170,445.412,170,445.765,170C446.118,170,446.471,170,446.824,170C447.176,170,447.529,170,447.882,170C448.235,170,448.588,170,448.941,170C449.294,170,449.647,170,450,170C450.353,170,450.706,170,451.059,170C451.412,170,451.765,170,452.118,170C452.471,170,452.824,170,453.176,170C453.529,170,453.882,170,454.235,170C454.588,170,454.941,170,455.294,170C455.647,170,456,170,456.353,170C456.706,170,457.059,170,457.412,170C457.765,170,458.118,170,458.471,170C458.824,170,459.176,170,459.529,170C459.882,170,460.235,170,460.588,170C460.941,170,461.294,170,461.647,170C462,170,462.353,170,462.706,170C463.059,170,463.412,170,463.765,170C464.118,170,464.471,170,464.824,170C465.176,170,465.529,170,465.882,170C466.235,170,466.588,170,466.941,170C467.294,170,467.647,170,468,170C468.353,170,468.706,170,469.059,170C469.412,170,469.765,170,470.118,170C470.471,170,470.824,170,471.176,170C471.529,170,471.882,170,472.235,170C472.588,170,472.941,170,473.294,170C473.647,170,474,170,474.353,170C474.706,170,475.059,170,475.412,170C475.765,170,476.118,170,476.471,170C476.824,170,477.176,170,477.529,170C477.882,170,478.235,170,478.588,170C478.941,170,479.294,170,479.647,170C480,170,480.353,170,480.706,170C481.059,170,481.412,170,481.765,170C482.118,170,482.471,170,482.824,170C483.176,170,483.529,170,483.882,170C484.235,170,484.588,170,484.941,170C485.294,170,485.647,170,486,170C486.353,170,486.706,170,487.059,170C487.412,170,487.765,170,488.118,170C488.471,170,488.824,170,489.176,170C489.529,170,489.882,170,490.235,170C490.588,170,490.941,170,491.294,170C491.647,170,492,170,492.353,170C492.706,170,493.059,170,493.412,170C493.765,170,494.118,170,494.471,170C494.824,170,495.176,170,495.529,170C495.882,170,496.235,170,496.588,170C496.941,170,497.294,170,497.647,170C498,170,498.353,170,498.706,170C499.059,170,499.412,170,499.765,170C500.118,170,500.471,170,500.824,170C501.176,170,501.529,170,501.882,170C502.235,170,502.588,170,502.941,170C503.294,170,503.647,170,504,170C504.353,170,504.706,170,505.059,170C505.412,170,505.765,170,506.118,170C506.471,170,506.824,170,507.176,170C507.529,170,507.882,170,508.235,170C508.588,170,508.941,170,509.294,170C509.647,170,510,170,510.353,170C510.706,170,511.059,170,511.412,170C511.765,170,512.118,170,512.471,170C512.824,170,513.176,170,513.529,170C513.882,170,514.235,170,514.588,170C514.941,170,515.294,170,515.647,170C516,170,516.353,170,516.706,170C517.059,170,517.412,170,517.765,170C518.118,170,518.471,170,518.824,170C519.176,170,519.529,170,519.882,170C520.235,170,520.588,170,520.941,170C521.294,170,521.647,170,522,170C522.353,170,522.706,170,523.059,170C523.412,170,523.765,170,524.118,170C524.471,170,524.824,170,525.176,170C525.529,170,525.882,170,526.235,170C526.588,170,526.941,170,527.294,170C527.647,170,528,170,528.353,170C528.706,170,529.059,170,529.412,170C529.765,170,530.118,170,530.471,170C530.824,170,531.176,170,531.529,170C531.882,170,532.235,170,532.588,170C532.941,170,533.294,170,533.647,170C534,170,534.353,170,534.706,170C535.059,170,535.412,170,535.765,170C536.118,170,536.471,170,536.824,170C537.176,170,537.529,170,537.882,170C538.235,170,538.588,170,538.941,170C539.294,170,539.647,170,540,170C540.353,170,540.706,170,541.059,170C541.412,170,541.765,170,542.118,170C542.471,170,542.824,170,543.176,170C543.529,170,543.882,170,544.235,170C544.588,170,544.941,170,545.294,170C545.647,170,546,170,546.353,170C546.706,170,547.059,170,547.412,170C547.765,170,548.118,170,548.471,170C548.824,170,549.176,170,549.529,170C549.882,170,550.235,170,550.588,170C550.941,170,551.294,170,551.647,170C552,170,552.353,170,552.706,170C553.059,170,553.412,170,553.765,170C554.118,170,554.471,170,554.824,170C555.176,170,555.529,170,555.882,170C556.235,170,556.588,170,556.941,170C557.294,170,557.647,170,558,170C558.353,170,558.706,170,559.059,170C559.412,170,559.765,170,560.118,170C560.471,170,560.824,170,561.176,170C561.529,170,561.882,170,562.235,170C562.588,170,562.941,170,563.294,170C563.647,170,564,170,564.353,170C564.706,170,565.059,170,565.412,170C565.765,170,566.118,170,566.471,170C566.824,170,567.176,170,567.529,170C567.882,170,568.235,170,568.588,170C568.941,170,569.294,170,569.647,170C570,170,570.353,170,570.706,170C571.059,170,571.412,170,571.765,170C572.118,170,572.471,170,572.824,170C573.176,170,573.529,170,573.882,170C574.235,170,574.588,170,574.941,170C575.294,170,575.647,170,576,170C576.353,170,576.706,170,577.059,170C577.412,170,577.765,170,578.118,170C578.471,170,578.824,170,579.176,170C579.529,170,579.882,170,580.235,170C580.588,170,580.941,170,581.294,170C581.647,170,582,170,582.353,170C582.706,170,583.059,170,583.412,170C583.765,170,584.118,170,584.471,170C584.824,170,585.176,170,585.529,170C585.882,170,586.235,170,586.588,170C586.941,170,587.294,170,587.647,170C588,170,588.353,170,588.706,170C589.059,170,589.412,170,589.765,170C590.118,170,590.471,170,590.824,170C591.176,170,591.529,170,591.882,170C592.235,170,592.588,170,592.941,170C593.294,170,593.647,170,594,170C594.353,170,594.706,170,595.059,170C595.412,170,595.765,170,596.118,170C596.471,170,596.824,170,597.176,170C597.529,170,597.882,170,598.235,170C598.588,170,598.941,170,599.294,170C599.647,170,600,170,600.353,170C600.706,170,601.059,170,601.412,170C601.765,170,602.118,170,602.471,170C602.824,170,603.176,170,603.529,170C603.882,170,604.235,170,604.588,170C604.941,170,605.294,170,605.647,170C606,170,606.353,170,606.706,170C607.059,170,607.412,170,607.765,170C608.118,170,608.471,170,608.824,170C609.176,170,609.529,170,609.882,170C610.235,170,610.588,170,610.941,170C611.294,170,611.647,170,612,170C612.353,170,612.706,170,613.059,170C613.412,170,613.765,170,614.118,170C614.471,170,614.824,170,615.176,170C615.529,170,615.882,170,616.235,170C616.588,170,616.941,170,617.294,170C617.647,170,618,170,618.353,170C618.706,170,619.059,170,619.412,170C619.765,170,620.118,170,620.471,170C620.824,170,621.176,170,621.529,170C621.882,170,622.235,170,622.588,170C622.941,170,623.294,170,623.647,170C624,170,624.353,170,624.706,170C625.059,170,625.412,170,625.765,170C626.118,170,626.471,170,626.824,170C627.176,170,627.529,170,627.882,170C628.235,170,628.588,170,628.941,170C629.294,170,629.647,170,630,170C630.353,170,630.706,170,631.059,170C631.412,170,631.765,170,632.118,170C632.471,170,632.824,170,633.176,170C633.529,170,633.882,170,634.235,170C634.588,170,634.941,170,635.294,170C635.647,170,636,170,636.353,170C636.706,170,637.059,170,637.412,170C637.765,170,638.118,170,638.471,170C638.824,170,639.176,170,639.529,170C639.882,170,640.235,170,640.588,170C640.941,170,641.294,170,641.647,170C642,170,642.353,170,642.706,170C643.059,170,643.412,170,643.765,170C644.118,170,644.471,170,644.824,170C645.176,170,645.529,170,645.882,170C646.235,170,646.588,170,646.941,170C647.294,170,647.647,170,648,170C648.353,170,648.706,170,649.059,170C649.412,170,649.765,170,650.118,170C650.471,170,650.824,170,651.176,170C651.529,170,651.882,170,652.235,170C652.588,170,652.941,170,653.294,170C653.647,170,654,170,654.353,170C654.706,170,655.059,170,655.412,170C655.765,170,656.118,170,656.471,170C656.824,170,657.176,170,657.529,170C657.882,170,658.235,170,658.588,170C658.941,170,659.294,170,659.647,170C660,170,660.353,170,660.706,170C661.059,170,661.412,170,661.765,170C662.118,170,662.471,170,662.824,170C663.176,170,663.529,170,663.882,170C664.235,170,664.588,170,664.941,170C665.294,170,665.647,170,666,170C666.353,170,666.706,170,667.059,170C667.412,170,667.765,170,668.118,170C668.471,170,668.824,170,669.176,170C669.529,170,669.882,170,670.235,170C670.588,170,670.941,170,671.294,170C671.647,170,672,170,672.353,170C672.706,170,673.059,170,673.412,170C673.765,170,674.118,170,674.471,170C674.824,170,675.176,170,675.529,170C675.882,170,676.235,170,676.588,170C676.941,170,677.294,170,677.647,170C678,170,678.353,170,678.706,170C679.059,170,679.412,170,679.765,170C680.118,170,680.471,170,680.824,170C681.176,170,681.529,170,681.882,170C682.235,170,682.588,170,682.941,170C683.294,170,683.647,170,684,170C684.353,170,684.706,170,685.059,170C685.412,170,685.765,170,686.118,170C686.471,170,686.824,170,687.176,170C687.529,170,687.882,170,688.235,170C688.588,170,688.941,170,689.294,170C689.647,170,690,170,690.353,170C690.706,170,691.059,170,691.412,170C691.765,170,692.118,170,692.471,170C692.824,170,693.176,170,693.529,170C693.882,170,694.235,170,694.588,170C694.941,170,695.294,170,695.647,170C696,170,696.353,170,696.706,170C697.059,170,697.412,170,697.765,170C698.118,170,698.471,170,698.824,170C699.176,170,699.529,170,699.882,170C700.235,170,700.588,170,700.941,170C701.294,170,701.647,170,702,170C702.353,170,702.706,170,703.059,170C703.412,170,703.765,170,704.118,170C704.471,170,704.824,170,705.176,170C705.529,170,705.882,170,706.235,170C706.588,170,706.941,170,707.294,170C707.647,170,708,170,708.353,170C708.706,170,709.059,170,709.412,170C709.765,170,710.118,170,710.471,170C710.824,170,711.176,170,711.529,170C711.882,170,712.235,170,712.588,170C712.941,170,713.294,170,713.647,170C714,170,714.353,170,714.706,170C715.059,170,715.412,170,715.765,170C716.118,170,716.471,170,716.824,170C717.176,170,717.529,170,717.882,170C718.235,170,718.588,170,718.941,170C719.294,170,719.647,170,720,170"></path><circle class="dot" cx="0" cy="170" r="3" fill="#2563eb"></circle><circle class="dot" cx="1.0588235294117647" cy="170" r="3" fill="#2563eb"></circle><circle class="dot" cx="2.1176470588235294" cy="170" r="3" fill="#2563eb"></circle><circle class="dot" cx="3.176470588235294" cy="170" r="3" fill="#2563eb"></circle><circle class="dot" cx="4.235294117647059" cy="170" r="3" fill="#2563eb"></circle><circle class="dot" cx="5.294117647058823" cy="170" r="3" fill="#2563eb"></circle><circle class="dot" cx="6.352941176470588" cy="170" r="3" fill="#2563eb"></circle><circle class="dot" cx="7.411764705882353" cy="170" r="3" fill="#2563eb"></circle><circle class="dot" cx="8.470588235294118" cy="170" r="3" fill="#2563eb"></circle><circle class="dot" cx="9.529411764705882" cy="170" r="3" fill="#2563eb"></circle><circle class="dot" cx="10.588235294117647" cy="170" r="3" fill="#2563eb"></circle><circle class="dot" cx="11.647058823529413" cy="170" r="3" fill="#2563eb"></circle><circle class="dot" cx="12.705882352941176" cy="170" r="3" fill="#2563eb"></circle><circle class="dot" cx="13.764705882352942" cy="170" r="3" fill="#2563eb"></circle><circle class="dot" cx="14.823529411764707" cy="170" r="3" fill="#2563eb"></circle><circle class="dot" cx="15.882352941176471" cy="170" r="3" fill="#2563eb"></circle><circle class="dot" cx="16.941176470588236" cy="170" r="3" fill="#2563eb"></circle><circle class="dot" cx="18" cy="170" r="3" fill="#2563eb"></circle><circle class="dot" cx="19.058823529411764" cy="170" r="3" fill="#2563eb"></circle><circle class="dot" cx="20.11764705882353" cy="170" r="3" fill="#2563eb"></circle><circle class="dot" cx="21.176470588235293" cy="170" r="3" fill="#2563eb"></circle><circle class="dot" cx="22.235294117647058" cy="170" r="3" fill="#2563eb"></circle><circle class="dot" cx="23.294117647058826" cy="170" r="3" fill="#2563eb"></circle><circle class="dot" cx="24.352941176470587" cy="170" r="3" fill="#2563eb"></circle><circle class="dot" cx="25.41176470588235" cy="170" r="3" fill="#2563eb"></circle><circle class="dot" cx="26.47058823529412" cy="170" r="3" fill="#2563eb"></circle><circle class="dot" cx="27.529411764705884" cy="170" r="3" fill="#2563eb"></circle><circle class="dot" cx="28.588235294117645" cy="170" r="3" fill="#2563eb"></circle><circle class="dot" cx="29.647058823529413" cy="170" r="3" fill="#2563eb"></circle><circle class="dot" cx="30.705882352941178" cy="170" r="3" fill="#2563eb"></circle><circle class="dot" cx="31.764705882352942" cy="170" r="3" fill="#2563eb"></circle><circle class="dot" cx="32.8235294117647" cy="170" r="3" fill="#2563eb"></circle><circle class="dot" cx="33.88235294117647" cy="170" r="3" fill="#2563eb"></circle><circle class="dot" cx="34.94117647058824" cy="170" r="3" fill="#2563eb"></circle><circle class="dot" cx="36" cy="170" r="3" fill="#2563eb"></circle><circle class="dot" cx="37.05882352941176" cy="170" r="3" fill="#2563eb"></circle><circle class="dot" cx="38.11764705882353" cy="170" r="3" fill="#2563eb"></circle><circle class="dot" cx="39.1764705882353" cy="170" r="3" fill="#2563eb"></circle><circle class="dot" cx="40.23529411764706" cy="170" r="3" fill="#2563eb"></circle><circle class="dot" cx="41.29411764705882" cy="170" r="3" fill="#2563eb"></circle><circle class="dot" cx="42.35294117647059" cy="170" r="3" fill="#2563eb"></circle><circle class="dot" cx="43.411764705882355" cy="170" r="3" fill="#2563eb"></circle><circle class="dot" cx="44.470588235294116" cy="170" r="3" fill="#2563eb"></circle><circle class="dot" cx="45.529411764705884" cy="170" r="3" fill="#2563eb"></circle><circle class="dot" cx="46.58823529411765" cy="170" r="3" fill="#2563eb"></circle><circle class="dot" cx="47.64705882352941" cy="170" r="3" fill="#2563eb"></circle><circle class="dot" cx="48.705882352941174" cy="170" r="3" fill="#2563eb"></circle><circle class="dot" cx="49.76470588235294" cy="170" r="3" fill="#2563eb"></circle><circle class="dot" cx="50.8235294117647" cy="170" r="3" fill="#2563eb"></circle><circle class="dot" cx="51.882352941176464" cy="170" r="3" fill="#2563eb"></circle><circle class="dot" cx="52.94117647058824" cy="170" r="3" fill="#2563eb"></circle><circle class="dot" cx="54" cy="170" r="3" fill="#2563eb"></circle><circle class="dot" cx="55.05882352941177" cy="170" r="3" fill="#2563eb"></circle><circle class="dot" cx="56.11764705882353" cy="170" r="3" fill="#2563eb"></circle><circle class="dot" cx="57.17647058823529" cy="170" r="3" fill="#2563eb"></circle><circle class="dot" cx="58.235294117647065" cy="170" r="3" fill="#2563eb"></circle><circle class="dot" cx="59.294117647058826" cy="170" r="3" fill="#2563eb"></circle><circle class="dot" cx="60.35294117647059" cy="170" r="3" fill="#2563eb"></circle><circle class="dot" cx="61.411764705882355" cy="170" r="3" fill="#2563eb"></circle><circle class="dot" cx="62.470588235294116" cy="170" r="3" fill="#2563eb"></circle><circle class="dot" cx="63.529411764705884" cy="170" r="3" fill="#2563eb"></circle><circle class="dot" cx="64.58823529411765" cy="170" r="3" fill="#2563eb"></circle><circle class="dot" cx="65.6470588235294" cy="170" r="3" fill="#2563eb"></circle><circle class="dot" cx="66.70588235294117" cy="170" r="3" fill="#2563eb"></circle><circle class="dot" cx="67.76470588235294" cy="170" r="3" fill="#2563eb"></circle><circle class="dot" cx="68.8235294117647" cy="170" r="3" fill="#2563eb"></circle><circle class="dot" cx="69.88235294117648" cy="170" r="3" fill="#2563eb"></circle><circle class="dot" cx="70.94117647058823" cy="170" r="3" fill="#2563eb"></circle><circle class="dot" cx="72" cy="170" r="3" fill="#2563eb"></circle><circle class="dot" cx="73.05882352941177" cy="170" r="3" fill="#2563eb"></circle><circle class="dot" cx="74.11764705882352" cy="170" r="3" fill="#2563eb"></circle><circle class="dot" cx="75.17647058823529" cy="170" r="3" fill="#2563eb"></circle><circle class="dot" cx="76.23529411764706" cy="170" r="3" fill="#2563eb"></circle><circle class="dot" cx="77.29411764705881" cy="170" r="3" fill="#2563eb"></circle><circle class="dot" cx="78.3529411764706" cy="170" r="3" fill="#2563eb"></circle><circle class="dot" cx="79.41176470588235" cy="170" r="3" fill="#2563eb"></circle><circle class="dot" cx="80.47058823529412" cy="170" r="3" fill="#2563eb"></circle><circle class="dot" cx="81.52941176470588" cy="170" r="3" fill="#2563eb"></circle><circle class="dot" cx="82.58823529411764" cy="170" r="3" fill="#2563eb"></circle><circle class="dot" cx="83.64705882352942" cy="170" r="3" fill="#2563eb"></circle><circle class="dot" cx="84.70588235294117" cy="170" r="3" fill="#2563eb"></circle><circle class="dot" cx="85.76470588235294" cy="170" r="3" fill="#2563eb"></circle><circle class="dot" cx="86.82352941176471" cy="170" r="3" fill="#2563eb"></circle><circle class="dot" cx="87.88235294117646" cy="170" r="3" fill="#2563eb"></circle><circle class="dot" cx="88.94117647058823" cy="170" r="3" fill="#2563eb"></circle><circle class="dot" cx="90" cy="170" r="3" fill="#2563eb"></circle><circle class="dot" cx="91.05882352941177" cy="170" r="3" fill="#2563eb"></circle><circle class="dot" cx="92.11764705882352" cy="170" r="3" fill="#2563eb"></circle><circle class="dot" cx="93.1764705882353" cy="170" r="3" fill="#2563eb"></circle><circle class="dot" cx="94.23529411764706" cy="170" r="3" fill="#2563eb"></circle><circle class="dot" cx="95.29411764705883" cy="170" r="3" fill="#2563eb"></circle><circle class="dot" cx="96.35294117647058" cy="170" r="3" fill="#2563eb"></circle><circle class="dot" cx="97.41176470588235" cy="170" r="3" fill="#2563eb"></circle><circle class="dot" cx="98.47058823529413" cy="170" r="3" fill="#2563eb"></circle><circle class="dot" cx="99.52941176470588" cy="170" r="3" fill="#2563eb"></circle><circle class="dot" cx="100.58823529411765" cy="170" r="3" fill="#2563eb"></circle><circle class="dot" cx="101.6470588235294" cy="170" r="3" fill="#2563eb"></circle><circle class="dot" cx="102.70588235294117" cy="170" r="3" fill="#2563eb"></circle><circle class="dot" cx="103.76470588235293" cy="170" r="3" fill="#2563eb"></circle><circle class="dot" cx="104.82352941176471" cy="170" r="3" fill="#2563eb"></circle><circle class="dot" cx="105.88235294117648" cy="170" r="3" fill="#2563eb"></circle><circle class="dot" cx="106.94117647058823" cy="170" r="3" fill="#2563eb"></circle><circle class="dot" cx="108" cy="170" r="3" fill="#2563eb"></circle><circle class="dot" cx="109.05882352941175" cy="170" r="3" fill="#2563eb"></circle><circle class="dot" cx="110.11764705882354" cy="170" r="3" fill="#2563eb"></circle><circle class="dot" cx="111.1764705882353" cy="170" r="3" fill="#2563eb"></circle><circle class="dot" cx="112.23529411764706" cy="170" r="3" fill="#2563eb"></circle><circle class="dot" cx="113.29411764705883" cy="170" r="3" fill="#2563eb"></circle><circle class="dot" cx="114.35294117647058" cy="170" r="3" fill="#2563eb"></circle><circle class="dot" cx="115.41176470588236" cy="170" r="3" fill="#2563eb"></circle><circle class="dot" cx="116.47058823529413" cy="170" r="3" fill="#2563eb"></circle><circle class="dot" cx="117.52941176470588" cy="170" r="3" fill="#2563eb"></circle><circle class="dot" cx="118.58823529411765" cy="170" r="3" fill="#2563eb"></circle><circle class="dot" cx="119.6470588235294" cy="170" r="3" fill="#2563eb"></circle><circle class="dot" cx="120.70588235294117" cy="170" r="3" fill="#2563eb"></circle><circle class="dot" cx="121.76470588235294" cy="170" r="3" fill="#2563eb"></circle><circle class="dot" cx="122.82352941176471" cy="170" r="3" fill="#2563eb"></circle><circle class="dot" cx="123.88235294117646" cy="170" r="3" fill="#2563eb"></circle><circle class="dot" cx="124.94117647058823" cy="170" r="3" fill="#2563eb"></circle><circle class="dot" cx="125.99999999999999" cy="170" r="3" fill="#2563eb"></circle><circle class="dot" cx="127.05882352941177" cy="170" r="3" fill="#2563eb"></circle><circle class="dot" cx="128.11764705882354" cy="170" r="3" fill="#2563eb"></circle><circle class="dot" cx="129.1764705882353" cy="170" r="3" fill="#2563eb"></circle><circle class="dot" cx="130.23529411764704" cy="170" r="3" fill="#2563eb"></circle><circle class="dot" cx="131.2941176470588" cy="170" r="3" fill="#2563eb"></circle><circle class="dot" cx="132.3529411764706" cy="170" r="3" fill="#2563eb"></circle><circle class="dot" cx="133.41176470588235" cy="170" r="3" fill="#2563eb"></circle><circle class="dot" cx="134.47058823529412" cy="170" r="3" fill="#2563eb"></circle><circle class="dot" cx="135.52941176470588" cy="170" r="3" fill="#2563eb"></circle><circle class="dot" cx="136.58823529411765" cy="170" r="3" fill="#2563eb"></circle><circle class="dot" cx="137.6470588235294" cy="170" r="3" fill="#2563eb"></circle><circle class="dot" cx="138.7058823529412" cy="170" r="3" fill="#2563eb"></circle><circle class="dot" cx="139.76470588235296" cy="170" r="3" fill="#2563eb"></circle><circle class="dot" cx="140.8235294117647" cy="170" r="3" fill="#2563eb"></circle><circle class="dot" cx="141.88235294117646" cy="170" r="3" fill="#2563eb"></circle><circle class="dot" cx="142.94117647058823" cy="170" r="3" fill="#2563eb"></circle><circle class="dot" cx="144" cy="170" r="3" fill="#2563eb"></circle><circle class="dot" cx="145.05882352941177" cy="170" r="3" fill="#2563eb"></circle><circle class="dot" cx="146.11764705882354" cy="170" r="3" fill="#2563eb"></circle><circle class="dot" cx="147.1764705882353" cy="170" r="3" fill="#2563eb"></circle><circle class="dot" cx="148.23529411764704" cy="170" r="3" fill="#2563eb"></circle><circle class="dot" cx="149.29411764705884" cy="170" r="3" fill="#2563eb"></circle><circle class="dot" cx="150.35294117647058" cy="170" r="3" fill="#2563eb"></circle><circle class="dot" cx="151.41176470588235" cy="170" r="3" fill="#2563eb"></circle><circle class="dot" cx="152.47058823529412" cy="170" r="3" fill="#2563eb"></circle><circle class="dot" cx="153.52941176470588" cy="170" r="3" fill="#2563eb"></circle><circle class="dot" cx="154.58823529411762" cy="170" r="3" fill="#2563eb"></circle><circle class="dot" cx="155.64705882352942" cy="170" r="3" fill="#2563eb"></circle><circle class="dot" cx="156.7058823529412" cy="170" r="3" fill="#2563eb"></circle><circle class="dot" cx="157.76470588235293" cy="170" r="3" fill="#2563eb"></circle><circle class="dot" cx="158.8235294117647" cy="170" r="3" fill="#2563eb"></circle><circle class="dot" cx="159.88235294117646" cy="170" r="3" fill="#2563eb"></circle><circle class="dot" cx="160.94117647058823" cy="170" r="3" fill="#2563eb"></circle><circle class="dot" cx="162" cy="170" r="3" fill="#2563eb"></circle><circle class="dot" cx="163.05882352941177" cy="170" r="3" fill="#2563eb"></circle><circle class="dot" cx="164.11764705882354" cy="170" r="3" fill="#2563eb"></circle><circle class="dot" cx="165.17647058823528" cy="170" r="3" fill="#2563eb"></circle><circle class="dot" cx="166.23529411764707" cy="170" r="3" fill="#2563eb"></circle><circle class="dot" cx="167.29411764705884" cy="170" r="3" fill="#2563eb"></circle><circle class="dot" cx="168.35294117647058" cy="170" r="3" fill="#2563eb"></circle><circle class="dot" cx="169.41176470588235" cy="170" r="3" fill="#2563eb"></circle><circle class="dot" cx="170.47058823529412" cy="170" r="3" fill="#2563eb"></circle><circle class="dot" cx="171.52941176470588" cy="170" r="3" fill="#2563eb"></circle><circle class="dot" cx="172.58823529411765" cy="170" r="3" fill="#2563eb"></circle><circle class="dot" cx="173.64705882352942" cy="170" r="3" fill="#2563eb"></circle><circle class="dot" cx="174.7058823529412" cy="170" r="3" fill="#2563eb"></circle><circle class="dot" cx="175.76470588235293" cy="170" r="3" fill="#2563eb"></circle><circle class="dot" cx="176.8235294117647" cy="170" r="3" fill="#2563eb"></circle><circle class="dot" cx="177.88235294117646" cy="170" r="3" fill="#2563eb"></circle><circle class="dot" cx="178.94117647058823" cy="170" r="3" fill="#2563eb"></circle><circle class="dot" cx="180" cy="170" r="3" fill="#2563eb"></circle><circle class="dot" cx="181.05882352941177" cy="170" r="3" fill="#2563eb"></circle><circle class="dot" cx="182.11764705882354" cy="170" r="3" fill="#2563eb"></circle><circle class="dot" cx="183.17647058823528" cy="170" r="3" fill="#2563eb"></circle><circle class="dot" cx="184.23529411764704" cy="170" r="3" fill="#2563eb"></circle><circle class="dot" cx="185.2941176470588" cy="170" r="3" fill="#2563eb"></circle><circle class="dot" cx="186.3529411764706" cy="170" r="3" fill="#2563eb"></circle><circle class="dot" cx="187.41176470588238" cy="170" r="3" fill="#2563eb"></circle><circle class="dot" cx="188.47058823529412" cy="170" r="3" fill="#2563eb"></circle><circle class="dot" cx="189.52941176470588" cy="170" r="3" fill="#2563eb"></circle><circle class="dot" cx="190.58823529411765" cy="170" r="3" fill="#2563eb"></circle><circle class="dot" cx="191.64705882352942" cy="170" r="3" fill="#2563eb"></circle><circle class="dot" cx="192.70588235294116" cy="170" r="3" fill="#2563eb"></circle><circle class="dot" cx="193.76470588235293" cy="170" r="3" fill="#2563eb"></circle><circle class="dot" cx="194.8235294117647" cy="170" r="3" fill="#2563eb"></circle><circle class="dot" cx="195.88235294117646" cy="170" r="3" fill="#2563eb"></circle><circle class="dot" cx="196.94117647058826" cy="170" r="3" fill="#2563eb"></circle><circle class="dot" cx="198.00000000000003" cy="170" r="3" fill="#2563eb"></circle><circle class="dot" cx="199.05882352941177" cy="170" r="3" fill="#2563eb"></circle><circle class="dot" cx="200.11764705882354" cy="170" r="3" fill="#2563eb"></circle><circle class="dot" cx="201.1764705882353" cy="170" r="3" fill="#2563eb"></circle><circle class="dot" cx="202.23529411764707" cy="170" r="3" fill="#2563eb"></circle><circle class="dot" cx="203.2941176470588" cy="170" r="3" fill="#2563eb"></circle><circle class="dot" cx="204.35294117647058" cy="170" r="3" fill="#2563eb"></circle><circle class="dot" cx="205.41176470588235" cy="170" r="3" fill="#2563eb"></circle><circle class="dot" cx="206.47058823529412" cy="170" r="3" fill="#2563eb"></circle><circle class="dot" cx="207.52941176470586" cy="170" r="3" fill="#2563eb"></circle><circle class="dot" cx="208.58823529411765" cy="170" r="3" fill="#2563eb"></circle><circle class="dot" cx="209.64705882352942" cy="170" r="3" fill="#2563eb"></circle><circle class="dot" cx="210.7058823529412" cy="170" r="3" fill="#2563eb"></circle><circle class="dot" cx="211.76470588235296" cy="170" r="3" fill="#2563eb"></circle><circle class="dot" cx="212.8235294117647" cy="170" r="3" fill="#2563eb"></circle><circle class="dot" cx="213.88235294117646" cy="170" r="3" fill="#2563eb"></circle><circle class="dot" cx="214.94117647058823" cy="170" r="3" fill="#2563eb"></circle><circle class="dot" cx="216" cy="170" r="3" fill="#2563eb"></circle><circle class="dot" cx="217.05882352941174" cy="170" r="3" fill="#2563eb"></circle><circle class="dot" cx="218.1176470588235" cy="170" r="3" fill="#2563eb"></circle><circle class="dot" cx="219.17647058823528" cy="170" r="3" fill="#2563eb"></circle><circle class="dot" cx="220.23529411764707" cy="170" r="3" fill="#2563eb"></circle><circle class="dot" cx="221.29411764705884" cy="170" r="3" fill="#2563eb"></circle><circle class="dot" cx="222.3529411764706" cy="170" r="3" fill="#2563eb"></circle><circle class="dot" cx="223.41176470588235" cy="170" r="3" fill="#2563eb"></circle><circle class="dot" cx="224.47058823529412" cy="170" r="3" fill="#2563eb"></circle><circle class="dot" cx="225.52941176470588" cy="170" r="3" fill="#2563eb"></circle><circle class="dot" cx="226.58823529411765" cy="170" r="3" fill="#2563eb"></circle><circle class="dot" cx="227.6470588235294" cy="170" r="3" fill="#2563eb"></circle><circle class="dot" cx="228.70588235294116" cy="170" r="3" fill="#2563eb"></circle><circle class="dot" cx="229.76470588235293" cy="170" r="3" fill="#2563eb"></circle><circle class="dot" cx="230.82352941176472" cy="170" r="3" fill="#2563eb"></circle><circle class="dot" cx="231.8823529411765" cy="170" r="3" fill="#2563eb"></circle><circle class="dot" cx="232.94117647058826" cy="170" r="3" fill="#2563eb"></circle><circle class="dot" cx="234" cy="170" r="3" fill="#2563eb"></circle><circle class="dot" cx="235.05882352941177" cy="170" r="3" fill="#2563eb"></circle><circle class="dot" cx="236.11764705882354" cy="170" r="3" fill="#2563eb"></circle><circle class="dot" cx="237.1764705882353" cy="170" r="3" fill="#2563eb"></circle><circle class="dot" cx="238.23529411764704" cy="170" r="3" fill="#2563eb"></circle><circle class="dot" cx="239.2941176470588" cy="170" r="3" fill="#2563eb"></circle><circle class="dot" cx="240.35294117647058" cy="170" r="3" fill="#2563eb"></circle><circle class="dot" cx="241.41176470588235" cy="170" r="3" fill="#2563eb"></circle><circle class="dot" cx="242.47058823529414" cy="170" r="3" fill="#2563eb"></circle><circle class="dot" cx="243.52941176470588" cy="170" r="3" fill="#2563eb"></circle><circle class="dot" cx="244.58823529411765" cy="170" r="3" fill="#2563eb"></circle><circle class="dot" cx="245.64705882352942" cy="170" r="3" fill="#2563eb"></circle><circle class="dot" cx="246.7058823529412" cy="170" r="3" fill="#2563eb"></circle><circle class="dot" cx="247.76470588235293" cy="170" r="3" fill="#2563eb"></circle><circle class="dot" cx="248.8235294117647" cy="170" r="3" fill="#2563eb"></circle><circle class="dot" cx="249.88235294117646" cy="170" r="3" fill="#2563eb"></circle><circle class="dot" cx="250.94117647058823" cy="170" r="3" fill="#2563eb"></circle><circle class="dot" cx="251.99999999999997" cy="170" r="3" fill="#2563eb"></circle><circle class="dot" cx="253.05882352941174" cy="170" r="3" fill="#2563eb"></circle><circle class="dot" cx="254.11764705882354" cy="170" r="3" fill="#2563eb"></circle><circle class="dot" cx="255.1764705882353" cy="170" r="3" fill="#2563eb"></circle><circle class="dot" cx="256.2352941176471" cy="170" r="3" fill="#2563eb"></circle><circle class="dot" cx="257.29411764705884" cy="170" r="3" fill="#2563eb"></circle><circle class="dot" cx="258.3529411764706" cy="170" r="3" fill="#2563eb"></circle><circle class="dot" cx="259.4117647058824" cy="170" r="3" fill="#2563eb"></circle><circle class="dot" cx="260.4705882352941" cy="170" r="3" fill="#2563eb"></circle><circle class="dot" cx="261.52941176470586" cy="170" r="3" fill="#2563eb"></circle><circle class="dot" cx="262.5882352941176" cy="170" r="3" fill="#2563eb"></circle><circle class="dot" cx="263.6470588235294" cy="170" r="3" fill="#2563eb"></circle><circle class="dot" cx="264.7058823529412" cy="170" r="3" fill="#2563eb"></circle><circle class="dot" cx="265.7647058823529" cy="170" r="3" fill="#2563eb"></circle><circle class="dot" cx="266.8235294117647" cy="170" r="3" fill="#2563eb"></circle><circle class="dot" cx="267.88235294117646" cy="170" r="3" fill="#2563eb"></circle><circle class="dot" cx="268.94117647058823" cy="170" r="3" fill="#2563eb"></circle><circle class="dot" cx="270" cy="170" r="3" fill="#2563eb"></circle><circle class="dot" cx="271.05882352941177" cy="170" r="3" fill="#2563eb"></circle><circle class="dot" cx="272.11764705882354" cy="170" r="3" fill="#2563eb"></circle><circle class="dot" cx="273.1764705882353" cy="170" r="3" fill="#2563eb"></circle><circle class="dot" cx="274.2352941176471" cy="170" r="3" fill="#2563eb"></circle><circle class="dot" cx="275.2941176470588" cy="170" r="3" fill="#2563eb"></circle><circle class="dot" cx="276.3529411764706" cy="170" r="3" fill="#2563eb"></circle><circle class="dot" cx="277.4117647058824" cy="170" r="3" fill="#2563eb"></circle><circle class="dot" cx="278.47058823529414" cy="170" r="3" fill="#2563eb"></circle><circle class="dot" cx="279.5294117647059" cy="170" r="3" fill="#2563eb"></circle><circle class="dot" cx="280.5882352941176" cy="170" r="3" fill="#2563eb"></circle><circle class="dot" cx="281.6470588235294" cy="170" r="3" fill="#2563eb"></circle><circle class="dot" cx="282.70588235294116" cy="170" r="3" fill="#2563eb"></circle><circle class="dot" cx="283.7647058823529" cy="170" r="3" fill="#2563eb"></circle><circle class="dot" cx="284.8235294117647" cy="170" r="3" fill="#2563eb"></circle><circle class="dot" cx="285.88235294117646" cy="170" r="3" fill="#2563eb"></circle><circle class="dot" cx="286.94117647058823" cy="170" r="3" fill="#2563eb"></circle><circle class="dot" cx="288" cy="170" r="3" fill="#2563eb"></circle><circle class="dot" cx="289.05882352941177" cy="170" r="3" fill="#2563eb"></circle><circle class="dot" cx="290.11764705882354" cy="170" r="3" fill="#2563eb"></circle><circle class="dot" cx="291.1764705882353" cy="170" r="3" fill="#2563eb"></circle><circle class="dot" cx="292.2352941176471" cy="170" r="3" fill="#2563eb"></circle><circle class="dot" cx="293.29411764705884" cy="170" r="3" fill="#2563eb"></circle><circle class="dot" cx="294.3529411764706" cy="170" r="3" fill="#2563eb"></circle><circle class="dot" cx="295.4117647058823" cy="170" r="3" fill="#2563eb"></circle><circle class="dot" cx="296.4705882352941" cy="170" r="3" fill="#2563eb"></circle><circle class="dot" cx="297.52941176470586" cy="170" r="3" fill="#2563eb"></circle><circle class="dot" cx="298.5882352941177" cy="170" r="3" fill="#2563eb"></circle><circle class="dot" cx="299.64705882352945" cy="170" r="3" fill="#2563eb"></circle><circle class="dot" cx="300.70588235294116" cy="170" r="3" fill="#2563eb"></circle><circle class="dot" cx="301.7647058823529" cy="170" r="3" fill="#2563eb"></circle><circle class="dot" cx="302.8235294117647" cy="170" r="3" fill="#2563eb"></circle><circle class="dot" cx="303.88235294117646" cy="170" r="3" fill="#2563eb"></circle><circle class="dot" cx="304.94117647058823" cy="170" r="3" fill="#2563eb"></circle><circle class="dot" cx="306" cy="170" r="3" fill="#2563eb"></circle><circle class="dot" cx="307.05882352941177" cy="170" r="3" fill="#2563eb"></circle><circle class="dot" cx="308.11764705882354" cy="170" r="3" fill="#2563eb"></circle><circle class="dot" cx="309.17647058823525" cy="170" r="3" fill="#2563eb"></circle><circle class="dot" cx="310.2352941176471" cy="170" r="3" fill="#2563eb"></circle><circle class="dot" cx="311.29411764705884" cy="170" r="3" fill="#2563eb"></circle><circle class="dot" cx="312.3529411764706" cy="170" r="3" fill="#2563eb"></circle><circle class="dot" cx="313.4117647058824" cy="170" r="3" fill="#2563eb"></circle><circle class="dot" cx="314.47058823529414" cy="170" r="3" fill="#2563eb"></circle><circle class="dot" cx="315.52941176470586" cy="170" r="3" fill="#2563eb"></circle><circle class="dot" cx="316.5882352941176" cy="170" r="3" fill="#2563eb"></circle><circle class="dot" cx="317.6470588235294" cy="170" r="3" fill="#2563eb"></circle><circle class="dot" cx="318.70588235294116" cy="170" r="3" fill="#2563eb"></circle><circle class="dot" cx="319.7647058823529" cy="170" r="3" fill="#2563eb"></circle><circle class="dot" cx="320.82352941176475" cy="170" r="3" fill="#2563eb"></circle><circle class="dot" cx="321.88235294117646" cy="170" r="3" fill="#2563eb"></circle><circle class="dot" cx="322.94117647058823" cy="170" r="3" fill="#2563eb"></circle><circle class="dot" cx="324" cy="170" r="3" fill="#2563eb"></circle><circle class="dot" cx="325.05882352941177" cy="170" r="3" fill="#2563eb"></circle><circle class="dot" cx="326.11764705882354" cy="170" r="3" fill="#2563eb"></circle><circle class="dot" cx="327.1764705882353" cy="170" r="3" fill="#2563eb"></circle><circle class="dot" cx="328.2352941176471" cy="170" r="3" fill="#2563eb"></circle><circle class="dot" cx="329.29411764705884" cy="170" r="3" fill="#2563eb"></circle><circle class="dot" cx="330.35294117647055" cy="170" r="3" fill="#2563eb"></circle><circle class="dot" cx="331.4117647058823" cy="170" r="3" fill="#2563eb"></circle><circle class="dot" cx="332.47058823529414" cy="170" r="3" fill="#2563eb"></circle><circle class="dot" cx="333.5294117647059" cy="170" r="3" fill="#2563eb"></circle><circle class="dot" cx="334.5882352941177" cy="170" r="3" fill="#2563eb"></circle><circle class="dot" cx="335.6470588235294" cy="170" r="3" fill="#2563eb"></circle><circle class="dot" cx="336.70588235294116" cy="170" r="3" fill="#2563eb"></circle><circle class="dot" cx="337.7647058823529" cy="170" r="3" fill="#2563eb"></circle><circle class="dot" cx="338.8235294117647" cy="170" r="3" fill="#2563eb"></circle><circle class="dot" cx="339.88235294117646" cy="170" r="3" fill="#2563eb"></circle><circle class="dot" cx="340.94117647058823" cy="170" r="3" fill="#2563eb"></circle><circle class="dot" cx="342" cy="170" r="3" fill="#2563eb"></circle><circle class="dot" cx="343.05882352941177" cy="170" r="3" fill="#2563eb"></circle><circle class="dot" cx="344.11764705882354" cy="170" r="3" fill="#2563eb"></circle><circle class="dot" cx="345.1764705882353" cy="170" r="3" fill="#2563eb"></circle><circle class="dot" cx="346.2352941176471" cy="170" r="3" fill="#2563eb"></circle><circle class="dot" cx="347.29411764705884" cy="170" r="3" fill="#2563eb"></circle><circle class="dot" cx="348.3529411764706" cy="170" r="3" fill="#2563eb"></circle><circle class="dot" cx="349.4117647058824" cy="170" r="3" fill="#2563eb"></circle><circle class="dot" cx="350.4705882352941" cy="170" r="3" fill="#2563eb"></circle><circle class="dot" cx="351.52941176470586" cy="170" r="3" fill="#2563eb"></circle><circle class="dot" cx="352.5882352941176" cy="170" r="3" fill="#2563eb"></circle><circle class="dot" cx="353.6470588235294" cy="170" r="3" fill="#2563eb"></circle><circle class="dot" cx="354.7058823529412" cy="170" r="3" fill="#2563eb"></circle><circle class="dot" cx="355.7647058823529" cy="170" r="3" fill="#2563eb"></circle><circle class="dot" cx="356.8235294117647" cy="170" r="3" fill="#2563eb"></circle><circle class="dot" cx="357.88235294117646" cy="170" r="3" fill="#2563eb"></circle><circle class="dot" cx="358.94117647058823" cy="170" r="3" fill="#2563eb"></circle><circle class="dot" cx="360" cy="170" r="3" fill="#2563eb"></circle><circle class="dot" cx="361.05882352941177" cy="170" r="3" fill="#2563eb"></circle><circle class="dot" cx="362.11764705882354" cy="170" r="3" fill="#2563eb"></circle><circle class="dot" cx="363.1764705882353" cy="170" r="3" fill="#2563eb"></circle><circle class="dot" cx="364.2352941176471" cy="170" r="3" fill="#2563eb"></circle><circle class="dot" cx="365.2941176470588" cy="170" r="3" fill="#2563eb"></circle><circle class="dot" cx="366.35294117647055" cy="170" r="3" fill="#2563eb"></circle><circle class="dot" cx="367.4117647058823" cy="170" r="3" fill="#2563eb"></circle><circle class="dot" cx="368.4705882352941" cy="170" r="3" fill="#2563eb"></circle><circle class="dot" cx="369.52941176470586" cy="170" r="3" fill="#2563eb"></circle><circle class="dot" cx="370.5882352941176" cy="170" r="3" fill="#2563eb"></circle><circle class="dot" cx="371.64705882352945" cy="170" r="3" fill="#2563eb"></circle><circle class="dot" cx="372.7058823529412" cy="170" r="3" fill="#2563eb"></circle><circle class="dot" cx="373.764705882353" cy="170" r="3" fill="#2563eb"></circle><circle class="dot" cx="374.82352941176475" cy="170" r="3" fill="#2563eb"></circle><circle class="dot" cx="375.8823529411765" cy="170" r="3" fill="#2563eb"></circle><circle class="dot" cx="376.94117647058823" cy="170" r="3" fill="#2563eb"></circle><circle class="dot" cx="378" cy="170" r="3" fill="#2563eb"></circle><circle class="dot" cx="379.05882352941177" cy="170" r="3" fill="#2563eb"></circle><circle class="dot" cx="380.11764705882354" cy="170" r="3" fill="#2563eb"></circle><circle class="dot" cx="381.1764705882353" cy="170" r="3" fill="#2563eb"></circle><circle class="dot" cx="382.2352941176471" cy="170" r="3" fill="#2563eb"></circle><circle class="dot" cx="383.29411764705884" cy="170" r="3" fill="#2563eb"></circle><circle class="dot" cx="384.3529411764706" cy="170" r="3" fill="#2563eb"></circle><circle class="dot" cx="385.4117647058823" cy="170" r="3" fill="#2563eb"></circle><circle class="dot" cx="386.4705882352941" cy="170" r="3" fill="#2563eb"></circle><circle class="dot" cx="387.52941176470586" cy="170" r="3" fill="#2563eb"></circle><circle class="dot" cx="388.5882352941176" cy="170" r="3" fill="#2563eb"></circle><circle class="dot" cx="389.6470588235294" cy="170" r="3" fill="#2563eb"></circle><circle class="dot" cx="390.70588235294116" cy="170" r="3" fill="#2563eb"></circle><circle class="dot" cx="391.7647058823529" cy="170" r="3" fill="#2563eb"></circle><circle class="dot" cx="392.8235294117647" cy="170" r="3" fill="#2563eb"></circle><circle class="dot" cx="393.8823529411765" cy="170" r="3" fill="#2563eb"></circle><circle class="dot" cx="394.9411764705883" cy="170" r="3" fill="#2563eb"></circle><circle class="dot" cx="396.00000000000006" cy="170" r="3" fill="#2563eb"></circle><circle class="dot" cx="397.05882352941177" cy="170" r="3" fill="#2563eb"></circle><circle class="dot" cx="398.11764705882354" cy="170" r="3" fill="#2563eb"></circle><circle class="dot" cx="399.1764705882353" cy="170" r="3" fill="#2563eb"></circle><circle class="dot" cx="400.2352941176471" cy="170" r="3" fill="#2563eb"></circle><circle class="dot" cx="401.29411764705884" cy="170" r="3" fill="#2563eb"></circle><circle class="dot" cx="402.3529411764706" cy="170" r="3" fill="#2563eb"></circle><circle class="dot" cx="403.4117647058824" cy="170" r="3" fill="#2563eb"></circle><circle class="dot" cx="404.47058823529414" cy="170" r="3" fill="#2563eb"></circle><circle class="dot" cx="405.52941176470586" cy="170" r="3" fill="#2563eb"></circle><circle class="dot" cx="406.5882352941176" cy="170" r="3" fill="#2563eb"></circle><circle class="dot" cx="407.6470588235294" cy="170" r="3" fill="#2563eb"></circle><circle class="dot" cx="408.70588235294116" cy="170" r="3" fill="#2563eb"></circle><circle class="dot" cx="409.7647058823529" cy="170" r="3" fill="#2563eb"></circle><circle class="dot" cx="410.8235294117647" cy="170" r="3" fill="#2563eb"></circle><circle class="dot" cx="411.88235294117646" cy="170" r="3" fill="#2563eb"></circle><circle class="dot" cx="412.94117647058823" cy="170" r="3" fill="#2563eb"></circle><circle class="dot" cx="413.99999999999994" cy="170" r="3" fill="#2563eb"></circle><circle class="dot" cx="415.0588235294117" cy="170" r="3" fill="#2563eb"></circle><circle class="dot" cx="416.1176470588235" cy="170" r="3" fill="#2563eb"></circle><circle class="dot" cx="417.1764705882353" cy="170" r="3" fill="#2563eb"></circle><circle class="dot" cx="418.2352941176471" cy="170" r="3" fill="#2563eb"></circle><circle class="dot" cx="419.29411764705884" cy="170" r="3" fill="#2563eb"></circle><circle class="dot" cx="420.3529411764706" cy="170" r="3" fill="#2563eb"></circle><circle class="dot" cx="421.4117647058824" cy="170" r="3" fill="#2563eb"></circle><circle class="dot" cx="422.47058823529414" cy="170" r="3" fill="#2563eb"></circle><circle class="dot" cx="423.5294117647059" cy="170" r="3" fill="#2563eb"></circle><circle class="dot" cx="424.5882352941177" cy="170" r="3" fill="#2563eb"></circle><circle class="dot" cx="425.6470588235294" cy="170" r="3" fill="#2563eb"></circle><circle class="dot" cx="426.70588235294116" cy="170" r="3" fill="#2563eb"></circle><circle class="dot" cx="427.7647058823529" cy="170" r="3" fill="#2563eb"></circle><circle class="dot" cx="428.8235294117647" cy="170" r="3" fill="#2563eb"></circle><circle class="dot" cx="429.88235294117646" cy="170" r="3" fill="#2563eb"></circle><circle class="dot" cx="430.94117647058823" cy="170" r="3" fill="#2563eb"></circle><circle class="dot" cx="432" cy="170" r="3" fill="#2563eb"></circle><circle class="dot" cx="433.05882352941177" cy="170" r="3" fill="#2563eb"></circle><circle class="dot" cx="434.1176470588235" cy="170" r="3" fill="#2563eb"></circle><circle class="dot" cx="435.17647058823525" cy="170" r="3" fill="#2563eb"></circle><circle class="dot" cx="436.235294117647" cy="170" r="3" fill="#2563eb"></circle><circle class="dot" cx="437.2941176470588" cy="170" r="3" fill="#2563eb"></circle><circle class="dot" cx="438.35294117647055" cy="170" r="3" fill="#2563eb"></circle><circle class="dot" cx="439.4117647058824" cy="170" r="3" fill="#2563eb"></circle><circle class="dot" cx="440.47058823529414" cy="170" r="3" fill="#2563eb"></circle><circle class="dot" cx="441.5294117647059" cy="170" r="3" fill="#2563eb"></circle><circle class="dot" cx="442.5882352941177" cy="170" r="3" fill="#2563eb"></circle><circle class="dot" cx="443.64705882352945" cy="170" r="3" fill="#2563eb"></circle><circle class="dot" cx="444.7058823529412" cy="170" r="3" fill="#2563eb"></circle><circle class="dot" cx="445.7647058823529" cy="170" r="3" fill="#2563eb"></circle><circle class="dot" cx="446.8235294117647" cy="170" r="3" fill="#2563eb"></circle><circle class="dot" cx="447.88235294117646" cy="170" r="3" fill="#2563eb"></circle><circle class="dot" cx="448.94117647058823" cy="170" r="3" fill="#2563eb"></circle><circle class="dot" cx="450" cy="170" r="3" fill="#2563eb"></circle><circle class="dot" cx="451.05882352941177" cy="170" r="3" fill="#2563eb"></circle><circle class="dot" cx="452.11764705882354" cy="170" r="3" fill="#2563eb"></circle><circle class="dot" cx="453.1764705882353" cy="170" r="3" fill="#2563eb"></circle><circle class="dot" cx="454.2352941176471" cy="170" r="3" fill="#2563eb"></circle><circle class="dot" cx="455.2941176470588" cy="170" r="3" fill="#2563eb"></circle><circle class="dot" cx="456.35294117647055" cy="170" r="3" fill="#2563eb"></circle><circle class="dot" cx="457.4117647058823" cy="170" r="3" fill="#2563eb"></circle><circle class="dot" cx="458.4705882352941" cy="170" r="3" fill="#2563eb"></circle><circle class="dot" cx="459.52941176470586" cy="170" r="3" fill="#2563eb"></circle><circle class="dot" cx="460.5882352941176" cy="170" r="3" fill="#2563eb"></circle><circle class="dot" cx="461.64705882352945" cy="170" r="3" fill="#2563eb"></circle><circle class="dot" cx="462.7058823529412" cy="170" r="3" fill="#2563eb"></circle><circle class="dot" cx="463.764705882353" cy="170" r="3" fill="#2563eb"></circle><circle class="dot" cx="464.82352941176475" cy="170" r="3" fill="#2563eb"></circle><circle class="dot" cx="465.8823529411765" cy="170" r="3" fill="#2563eb"></circle><circle class="dot" cx="466.94117647058823" cy="170" r="3" fill="#2563eb"></circle><circle class="dot" cx="468" cy="170" r="3" fill="#2563eb"></circle><circle class="dot" cx="469.05882352941177" cy="170" r="3" fill="#2563eb"></circle><circle class="dot" cx="470.11764705882354" cy="170" r="3" fill="#2563eb"></circle><circle class="dot" cx="471.1764705882353" cy="170" r="3" fill="#2563eb"></circle><circle class="dot" cx="472.2352941176471" cy="170" r="3" fill="#2563eb"></circle><circle class="dot" cx="473.29411764705884" cy="170" r="3" fill="#2563eb"></circle><circle class="dot" cx="474.3529411764706" cy="170" r="3" fill="#2563eb"></circle><circle class="dot" cx="475.4117647058823" cy="170" r="3" fill="#2563eb"></circle><circle class="dot" cx="476.4705882352941" cy="170" r="3" fill="#2563eb"></circle><circle class="dot" cx="477.52941176470586" cy="170" r="3" fill="#2563eb"></circle><circle class="dot" cx="478.5882352941176" cy="170" r="3" fill="#2563eb"></circle><circle class="dot" cx="479.6470588235294" cy="170" r="3" fill="#2563eb"></circle><circle class="dot" cx="480.70588235294116" cy="170" r="3" fill="#2563eb"></circle><circle class="dot" cx="481.7647058823529" cy="170" r="3" fill="#2563eb"></circle><circle class="dot" cx="482.8235294117647" cy="170" r="3" fill="#2563eb"></circle><circle class="dot" cx="483.8823529411765" cy="170" r="3" fill="#2563eb"></circle><circle class="dot" cx="484.9411764705883" cy="170" r="3" fill="#2563eb"></circle><circle class="dot" cx="486.00000000000006" cy="170" r="3" fill="#2563eb"></circle><circle class="dot" cx="487.05882352941177" cy="170" r="3" fill="#2563eb"></circle><circle class="dot" cx="488.11764705882354" cy="170" r="3" fill="#2563eb"></circle><circle class="dot" cx="489.1764705882353" cy="170" r="3" fill="#2563eb"></circle><circle class="dot" cx="490.2352941176471" cy="170" r="3" fill="#2563eb"></circle><circle class="dot" cx="491.29411764705884" cy="170" r="3" fill="#2563eb"></circle><circle class="dot" cx="492.3529411764706" cy="170" r="3" fill="#2563eb"></circle><circle class="dot" cx="493.4117647058824" cy="170" r="3" fill="#2563eb"></circle><circle class="dot" cx="494.47058823529414" cy="170" r="3" fill="#2563eb"></circle><circle class="dot" cx="495.52941176470586" cy="170" r="3" fill="#2563eb"></circle><circle class="dot" cx="496.5882352941176" cy="170" r="3" fill="#2563eb"></circle><circle class="dot" cx="497.6470588235294" cy="170" r="3" fill="#2563eb"></circle><circle class="dot" cx="498.70588235294116" cy="170" r="3" fill="#2563eb"></circle><circle class="dot" cx="499.7647058823529" cy="170" r="3" fill="#2563eb"></circle><circle class="dot" cx="500.8235294117647" cy="170" r="3" fill="#2563eb"></circle><circle class="dot" cx="501.88235294117646" cy="170" r="3" fill="#2563eb"></circle><circle class="dot" cx="502.94117647058823" cy="170" r="3" fill="#2563eb"></circle><circle class="dot" cx="503.99999999999994" cy="170" r="3" fill="#2563eb"></circle><circle class="dot" cx="505.0588235294117" cy="170" r="3" fill="#2563eb"></circle><circle class="dot" cx="506.1176470588235" cy="170" r="3" fill="#2563eb"></circle><circle class="dot" cx="507.1764705882353" cy="170" r="3" fill="#2563eb"></circle><circle class="dot" cx="508.2352941176471" cy="170" r="3" fill="#2563eb"></circle><circle class="dot" cx="509.29411764705884" cy="170" r="3" fill="#2563eb"></circle><circle class="dot" cx="510.3529411764706" cy="170" r="3" fill="#2563eb"></circle><circle class="dot" cx="511.4117647058824" cy="170" r="3" fill="#2563eb"></circle><circle class="dot" cx="512.4705882352941" cy="170" r="3" fill="#2563eb"></circle><circle class="dot" cx="513.5294117647059" cy="170" r="3" fill="#2563eb"></circle><circle class="dot" cx="514.5882352941177" cy="170" r="3" fill="#2563eb"></circle><circle class="dot" cx="515.6470588235294" cy="170" r="3" fill="#2563eb"></circle><circle class="dot" cx="516.7058823529412" cy="170" r="3" fill="#2563eb"></circle><circle class="dot" cx="517.7647058823529" cy="170" r="3" fill="#2563eb"></circle><circle class="dot" cx="518.8235294117648" cy="170" r="3" fill="#2563eb"></circle><circle class="dot" cx="519.8823529411765" cy="170" r="3" fill="#2563eb"></circle><circle class="dot" cx="520.9411764705882" cy="170" r="3" fill="#2563eb"></circle><circle class="dot" cx="522" cy="170" r="3" fill="#2563eb"></circle><circle class="dot" cx="523.0588235294117" cy="170" r="3" fill="#2563eb"></circle><circle class="dot" cx="524.1176470588235" cy="170" r="3" fill="#2563eb"></circle><circle class="dot" cx="525.1764705882352" cy="170" r="3" fill="#2563eb"></circle><circle class="dot" cx="526.2352941176471" cy="170" r="3" fill="#2563eb"></circle><circle class="dot" cx="527.2941176470588" cy="170" r="3" fill="#2563eb"></circle><circle class="dot" cx="528.3529411764705" cy="170" r="3" fill="#2563eb"></circle><circle class="dot" cx="529.4117647058824" cy="170" r="3" fill="#2563eb"></circle><circle class="dot" cx="530.4705882352941" cy="170" r="3" fill="#2563eb"></circle><circle class="dot" cx="531.5294117647059" cy="170" r="3" fill="#2563eb"></circle><circle class="dot" cx="532.5882352941177" cy="170" r="3" fill="#2563eb"></circle><circle class="dot" cx="533.6470588235294" cy="170" r="3" fill="#2563eb"></circle><circle class="dot" cx="534.7058823529412" cy="170" r="3" fill="#2563eb"></circle><circle class="dot" cx="535.7647058823529" cy="170" r="3" fill="#2563eb"></circle><circle class="dot" cx="536.8235294117648" cy="170" r="3" fill="#2563eb"></circle><circle class="dot" cx="537.8823529411765" cy="170" r="3" fill="#2563eb"></circle><circle class="dot" cx="538.9411764705883" cy="170" r="3" fill="#2563eb"></circle><circle class="dot" cx="540" cy="170" r="3" fill="#2563eb"></circle><circle class="dot" cx="541.0588235294117" cy="170" r="3" fill="#2563eb"></circle><circle class="dot" cx="542.1176470588235" cy="170" r="3" fill="#2563eb"></circle><circle class="dot" cx="543.1764705882352" cy="170" r="3" fill="#2563eb"></circle><circle class="dot" cx="544.2352941176471" cy="170" r="3" fill="#2563eb"></circle><circle class="dot" cx="545.2941176470588" cy="170" r="3" fill="#2563eb"></circle><circle class="dot" cx="546.3529411764706" cy="170" r="3" fill="#2563eb"></circle><circle class="dot" cx="547.4117647058823" cy="170" r="3" fill="#2563eb"></circle><circle class="dot" cx="548.4705882352941" cy="170" r="3" fill="#2563eb"></circle><circle class="dot" cx="549.5294117647059" cy="170" r="3" fill="#2563eb"></circle><circle class="dot" cx="550.5882352941176" cy="170" r="3" fill="#2563eb"></circle><circle class="dot" cx="551.6470588235295" cy="170" r="3" fill="#2563eb"></circle><circle class="dot" cx="552.7058823529412" cy="170" r="3" fill="#2563eb"></circle><circle class="dot" cx="553.7647058823529" cy="170" r="3" fill="#2563eb"></circle><circle class="dot" cx="554.8235294117648" cy="170" r="3" fill="#2563eb"></circle><circle class="dot" cx="555.8823529411765" cy="170" r="3" fill="#2563eb"></circle><circle class="dot" cx="556.9411764705883" cy="170" r="3" fill="#2563eb"></circle><circle class="dot" cx="558" cy="170" r="3" fill="#2563eb"></circle><circle class="dot" cx="559.0588235294118" cy="170" r="3" fill="#2563eb"></circle><circle class="dot" cx="560.1176470588235" cy="170" r="3" fill="#2563eb"></circle><circle class="dot" cx="561.1764705882352" cy="170" r="3" fill="#2563eb"></circle><circle class="dot" cx="562.2352941176471" cy="170" r="3" fill="#2563eb"></circle><circle class="dot" cx="563.2941176470588" cy="170" r="3" fill="#2563eb"></circle><circle class="dot" cx="564.3529411764706" cy="170" r="3" fill="#2563eb"></circle><circle class="dot" cx="565.4117647058823" cy="170" r="3" fill="#2563eb"></circle><circle class="dot" cx="566.4705882352941" cy="170" r="3" fill="#2563eb"></circle><circle class="dot" cx="567.5294117647059" cy="170" r="3" fill="#2563eb"></circle><circle class="dot" cx="568.5882352941177" cy="170" r="3" fill="#2563eb"></circle><circle class="dot" cx="569.6470588235294" cy="170" r="3" fill="#2563eb"></circle><circle class="dot" cx="570.7058823529411" cy="170" r="3" fill="#2563eb"></circle><circle class="dot" cx="571.7647058823529" cy="170" r="3" fill="#2563eb"></circle><circle class="dot" cx="572.8235294117646" cy="170" r="3" fill="#2563eb"></circle><circle class="dot" cx="573.8823529411765" cy="170" r="3" fill="#2563eb"></circle><circle class="dot" cx="574.9411764705883" cy="170" r="3" fill="#2563eb"></circle><circle class="dot" cx="576" cy="170" r="3" fill="#2563eb"></circle><circle class="dot" cx="577.0588235294118" cy="170" r="3" fill="#2563eb"></circle><circle class="dot" cx="578.1176470588235" cy="170" r="3" fill="#2563eb"></circle><circle class="dot" cx="579.1764705882354" cy="170" r="3" fill="#2563eb"></circle><circle class="dot" cx="580.2352941176471" cy="170" r="3" fill="#2563eb"></circle><circle class="dot" cx="581.2941176470588" cy="170" r="3" fill="#2563eb"></circle><circle class="dot" cx="582.3529411764706" cy="170" r="3" fill="#2563eb"></circle><circle class="dot" cx="583.4117647058823" cy="170" r="3" fill="#2563eb"></circle><circle class="dot" cx="584.4705882352941" cy="170" r="3" fill="#2563eb"></circle><circle class="dot" cx="585.5294117647059" cy="170" r="3" fill="#2563eb"></circle><circle class="dot" cx="586.5882352941177" cy="170" r="3" fill="#2563eb"></circle><circle class="dot" cx="587.6470588235294" cy="170" r="3" fill="#2563eb"></circle><circle class="dot" cx="588.7058823529412" cy="170" r="3" fill="#2563eb"></circle><circle class="dot" cx="589.7647058823529" cy="170" r="3" fill="#2563eb"></circle><circle class="dot" cx="590.8235294117646" cy="170" r="3" fill="#2563eb"></circle><circle class="dot" cx="591.8823529411765" cy="170" r="3" fill="#2563eb"></circle><circle class="dot" cx="592.9411764705882" cy="170" r="3" fill="#2563eb"></circle><circle class="dot" cx="594" cy="170" r="3" fill="#2563eb"></circle><circle class="dot" cx="595.0588235294117" cy="170" r="3" fill="#2563eb"></circle><circle class="dot" cx="596.1176470588235" cy="170" r="3" fill="#2563eb"></circle><circle class="dot" cx="597.1764705882354" cy="170" r="3" fill="#2563eb"></circle><circle class="dot" cx="598.2352941176471" cy="170" r="3" fill="#2563eb"></circle><circle class="dot" cx="599.2941176470589" cy="170" r="3" fill="#2563eb"></circle><circle class="dot" cx="600.3529411764706" cy="170" r="3" fill="#2563eb"></circle><circle class="dot" cx="601.4117647058823" cy="170" r="3" fill="#2563eb"></circle><circle class="dot" cx="602.4705882352941" cy="170" r="3" fill="#2563eb"></circle><circle class="dot" cx="603.5294117647059" cy="170" r="3" fill="#2563eb"></circle><circle class="dot" cx="604.5882352941177" cy="170" r="3" fill="#2563eb"></circle><circle class="dot" cx="605.6470588235294" cy="170" r="3" fill="#2563eb"></circle><circle class="dot" cx="606.7058823529412" cy="170" r="3" fill="#2563eb"></circle><circle class="dot" cx="607.7647058823529" cy="170" r="3" fill="#2563eb"></circle><circle class="dot" cx="608.8235294117648" cy="170" r="3" fill="#2563eb"></circle><circle class="dot" cx="609.8823529411765" cy="170" r="3" fill="#2563eb"></circle><circle class="dot" cx="610.9411764705882" cy="170" r="3" fill="#2563eb"></circle><circle class="dot" cx="612" cy="170" r="3" fill="#2563eb"></circle><circle class="dot" cx="613.0588235294117" cy="170" r="3" fill="#2563eb"></circle><circle class="dot" cx="614.1176470588235" cy="170" r="3" fill="#2563eb"></circle><circle class="dot" cx="615.1764705882352" cy="170" r="3" fill="#2563eb"></circle><circle class="dot" cx="616.2352941176471" cy="170" r="3" fill="#2563eb"></circle><circle class="dot" cx="617.2941176470588" cy="170" r="3" fill="#2563eb"></circle><circle class="dot" cx="618.3529411764705" cy="170" r="3" fill="#2563eb"></circle><circle class="dot" cx="619.4117647058824" cy="170" r="3" fill="#2563eb"></circle><circle class="dot" cx="620.4705882352941" cy="170" r="3" fill="#2563eb"></circle><circle class="dot" cx="621.5294117647059" cy="170" r="3" fill="#2563eb"></circle><circle class="dot" cx="622.5882352941177" cy="170" r="3" fill="#2563eb"></circle><circle class="dot" cx="623.6470588235294" cy="170" r="3" fill="#2563eb"></circle><circle class="dot" cx="624.7058823529412" cy="170" r="3" fill="#2563eb"></circle><circle class="dot" cx="625.7647058823529" cy="170" r="3" fill="#2563eb"></circle><circle class="dot" cx="626.8235294117648" cy="170" r="3" fill="#2563eb"></circle><circle class="dot" cx="627.8823529411765" cy="170" r="3" fill="#2563eb"></circle><circle class="dot" cx="628.9411764705883" cy="170" r="3" fill="#2563eb"></circle><circle class="dot" cx="630" cy="170" r="3" fill="#2563eb"></circle><circle class="dot" cx="631.0588235294117" cy="170" r="3" fill="#2563eb"></circle><circle class="dot" cx="632.1176470588235" cy="170" r="3" fill="#2563eb"></circle><circle class="dot" cx="633.1764705882352" cy="170" r="3" fill="#2563eb"></circle><circle class="dot" cx="634.2352941176471" cy="170" r="3" fill="#2563eb"></circle><circle class="dot" cx="635.2941176470588" cy="170" r="3" fill="#2563eb"></circle><circle class="dot" cx="636.3529411764706" cy="170" r="3" fill="#2563eb"></circle><circle class="dot" cx="637.4117647058823" cy="170" r="3" fill="#2563eb"></circle><circle class="dot" cx="638.4705882352941" cy="170" r="3" fill="#2563eb"></circle><circle class="dot" cx="639.5294117647059" cy="170" r="3" fill="#2563eb"></circle><circle class="dot" cx="640.5882352941176" cy="170" r="3" fill="#2563eb"></circle><circle class="dot" cx="641.6470588235295" cy="170" r="3" fill="#2563eb"></circle><circle class="dot" cx="642.7058823529412" cy="170" r="3" fill="#2563eb"></circle><circle class="dot" cx="643.7647058823529" cy="170" r="3" fill="#2563eb"></circle><circle class="dot" cx="644.8235294117648" cy="170" r="3" fill="#2563eb"></circle><circle class="dot" cx="645.8823529411765" cy="170" r="3" fill="#2563eb"></circle><circle class="dot" cx="646.9411764705883" cy="170" r="3" fill="#2563eb"></circle><circle class="dot" cx="648" cy="170" r="3" fill="#2563eb"></circle><circle class="dot" cx="649.0588235294118" cy="170" r="3" fill="#2563eb"></circle><circle class="dot" cx="650.1176470588235" cy="170" r="3" fill="#2563eb"></circle><circle class="dot" cx="651.1764705882352" cy="170" r="3" fill="#2563eb"></circle><circle class="dot" cx="652.2352941176471" cy="170" r="3" fill="#2563eb"></circle><circle class="dot" cx="653.2941176470588" cy="170" r="3" fill="#2563eb"></circle><circle class="dot" cx="654.3529411764706" cy="170" r="3" fill="#2563eb"></circle><circle class="dot" cx="655.4117647058823" cy="170" r="3" fill="#2563eb"></circle><circle class="dot" cx="656.4705882352941" cy="170" r="3" fill="#2563eb"></circle><circle class="dot" cx="657.5294117647059" cy="170" r="3" fill="#2563eb"></circle><circle class="dot" cx="658.5882352941177" cy="170" r="3" fill="#2563eb"></circle><circle class="dot" cx="659.6470588235294" cy="170" r="3" fill="#2563eb"></circle><circle class="dot" cx="660.7058823529411" cy="170" r="3" fill="#2563eb"></circle><circle class="dot" cx="661.7647058823529" cy="170" r="3" fill="#2563eb"></circle><circle class="dot" cx="662.8235294117646" cy="170" r="3" fill="#2563eb"></circle><circle class="dot" cx="663.8823529411765" cy="170" r="3" fill="#2563eb"></circle><circle class="dot" cx="664.9411764705883" cy="170" r="3" fill="#2563eb"></circle><circle class="dot" cx="666" cy="170" r="3" fill="#2563eb"></circle><circle class="dot" cx="667.0588235294118" cy="170" r="3" fill="#2563eb"></circle><circle class="dot" cx="668.1176470588235" cy="170" r="3" fill="#2563eb"></circle><circle class="dot" cx="669.1764705882354" cy="170" r="3" fill="#2563eb"></circle><circle class="dot" cx="670.2352941176471" cy="170" r="3" fill="#2563eb"></circle><circle class="dot" cx="671.2941176470588" cy="170" r="3" fill="#2563eb"></circle><circle class="dot" cx="672.3529411764706" cy="170" r="3" fill="#2563eb"></circle><circle class="dot" cx="673.4117647058823" cy="170" r="3" fill="#2563eb"></circle><circle class="dot" cx="674.4705882352941" cy="170" r="3" fill="#2563eb"></circle><circle class="dot" cx="675.5294117647059" cy="170" r="3" fill="#2563eb"></circle><circle class="dot" cx="676.5882352941177" cy="170" r="3" fill="#2563eb"></circle><circle class="dot" cx="677.6470588235294" cy="170" r="3" fill="#2563eb"></circle><circle class="dot" cx="678.7058823529412" cy="170" r="3" fill="#2563eb"></circle><circle class="dot" cx="679.7647058823529" cy="170" r="3" fill="#2563eb"></circle><circle class="dot" cx="680.8235294117646" cy="170" r="3" fill="#2563eb"></circle><circle class="dot" cx="681.8823529411765" cy="170" r="3" fill="#2563eb"></circle><circle class="dot" cx="682.9411764705882" cy="170" r="3" fill="#2563eb"></circle><circle class="dot" cx="684" cy="170" r="3" fill="#2563eb"></circle><circle class="dot" cx="685.0588235294117" cy="170" r="3" fill="#2563eb"></circle><circle class="dot" cx="686.1176470588235" cy="170" r="3" fill="#2563eb"></circle><circle class="dot" cx="687.1764705882354" cy="170" r="3" fill="#2563eb"></circle><circle class="dot" cx="688.2352941176471" cy="170" r="3" fill="#2563eb"></circle><circle class="dot" cx="689.2941176470589" cy="170" r="3" fill="#2563eb"></circle><circle class="dot" cx="690.3529411764706" cy="170" r="3" fill="#2563eb"></circle><circle class="dot" cx="691.4117647058823" cy="170" r="3" fill="#2563eb"></circle><circle class="dot" cx="692.4705882352941" cy="170" r="3" fill="#2563eb"></circle><circle class="dot" cx="693.5294117647059" cy="170" r="3" fill="#2563eb"></circle><circle class="dot" cx="694.5882352941177" cy="170" r="3" fill="#2563eb"></circle><circle class="dot" cx="695.6470588235294" cy="170" r="3" fill="#2563eb"></circle><circle class="dot" cx="696.7058823529412" cy="170" r="3" fill="#2563eb"></circle><circle class="dot" cx="697.7647058823529" cy="170" r="3" fill="#2563eb"></circle><circle class="dot" cx="698.8235294117648" cy="170" r="3" fill="#2563eb"></circle><circle class="dot" cx="699.8823529411765" cy="170" r="3" fill="#2563eb"></circle><circle class="dot" cx="700.9411764705882" cy="170" r="3" fill="#2563eb"></circle><circle class="dot" cx="702" cy="170" r="3" fill="#2563eb"></circle><circle class="dot" cx="703.0588235294117" cy="170" r="3" fill="#2563eb"></circle><circle class="dot" cx="704.1176470588235" cy="170" r="3" fill="#2563eb"></circle><circle class="dot" cx="705.1764705882352" cy="170" r="3" fill="#2563eb"></circle><circle class="dot" cx="706.2352941176471" cy="170" r="3" fill="#2563eb"></circle><circle class="dot" cx="707.2941176470588" cy="170" r="3" fill="#2563eb"></circle><circle class="dot" cx="708.3529411764705" cy="170" r="3" fill="#2563eb"></circle><circle class="dot" cx="709.4117647058824" cy="170" r="3" fill="#2563eb"></circle><circle class="dot" cx="710.4705882352941" cy="170" r="3" fill="#2563eb"></circle><circle class="dot" cx="711.5294117647059" cy="170" r="3" fill="#2563eb"></circle><circle class="dot" cx="712.5882352941177" cy="170" r="3" fill="#2563eb"></circle><circle class="dot" cx="713.6470588235294" cy="170" r="3" fill="#2563eb"></circle><circle class="dot" cx="714.7058823529412" cy="170" r="3" fill="#2563eb"></circle><circle class="dot" cx="715.7647058823529" cy="170" r="3" fill="#2563eb"></circle><circle class="dot" cx="716.8235294117648" cy="170" r="3" fill="#2563eb"></circle><circle class="dot" cx="717.8823529411765" cy="170" r="3" fill="#2563eb"></circle><circle class="dot" cx="718.9411764705883" cy="170" r="3" fill="#2563eb"></circle><circle class="dot" cx="720" cy="170" r="3" fill="#2563eb"></circle><g class="grid" transform="translate(0,340)" fill="none" font-size="10" font-family="sans-serif" text-anchor="middle" style="stroke-dasharray: 3,3; opacity: 0.3;"><path class="domain" stroke="currentColor" d="M0.5,-340V0.5H720.5V-340"></path><g class="tick" opacity="1" transform="translate(0.5,0)"><line stroke="currentColor" y2="-340"></line><text fill="currentColor" y="3" dy="0.71em"></text></g><g class="tick" opacity="1" transform="translate(25.91176470588235,0)"><line stroke="currentColor" y2="-340"></line><text fill="currentColor" y="3" dy="0.71em"></text></g><g class="tick" opacity="1" transform="translate(51.3235294117647,0)"><line stroke="currentColor" y2="-340"></line><text fill="currentColor" y="3" dy="0.71em"></text></g><g class="tick" opacity="1" transform="translate(76.73529411764706,0)"><line stroke="currentColor" y2="-340"></line><text fill="currentColor" y="3" dy="0.71em"></text></g><g class="tick" opacity="1" transform="translate(102.1470588235294,0)"><line stroke="currentColor" y2="-340"></line><text fill="currentColor" y="3" dy="0.71em"></text></g><g class="tick" opacity="1" transform="translate(127.55882352941177,0)"><line stroke="currentColor" y2="-340"></line><text fill="currentColor" y="3" dy="0.71em"></text></g><g class="tick" opacity="1" transform="translate(152.97058823529412,0)"><line stroke="currentColor" y2="-340"></line><text fill="currentColor" y="3" dy="0.71em"></text></g><g class="tick" opacity="1" transform="translate(178.38235294117646,0)"><line stroke="currentColor" y2="-340"></line><text fill="currentColor" y="3" dy="0.71em"></text></g><g class="tick" opacity="1" transform="translate(203.7941176470588,0)"><line stroke="currentColor" y2="-340"></line><text fill="currentColor" y="3" dy="0.71em"></text></g><g class="tick" opacity="1" transform="translate(229.20588235294116,0)"><line stroke="currentColor" y2="-340"></line><text fill="currentColor" y="3" dy="0.71em"></text></g><g class="tick" opacity="1" transform="translate(254.61764705882354,0)"><line stroke="currentColor" y2="-340"></line><text fill="currentColor" y="3" dy="0.71em"></text></g><g class="tick" opacity="1" transform="translate(280.0294117647059,0)"><line stroke="currentColor" y2="-340"></line><text fill="currentColor" y="3" dy="0.71em"></text></g><g class="tick" opacity="1" transform="translate(305.44117647058823,0)"><line stroke="currentColor" y2="-340"></line><text fill="currentColor" y="3" dy="0.71em"></text></g><g class="tick" opacity="1" transform="translate(330.85294117647055,0)"><line stroke="currentColor" y2="-340"></line><text fill="currentColor" y="3" dy="0.71em"></text></g><g class="tick" opacity="1" transform="translate(356.2647058823529,0)"><line stroke="currentColor" y2="-340"></line><text fill="currentColor" y="3" dy="0.71em"></text></g><g class="tick" opacity="1" transform="translate(381.6764705882353,0)"><line stroke="currentColor" y2="-340"></line><text fill="currentColor" y="3" dy="0.71em"></text></g><g class="tick" opacity="1" transform="translate(407.0882352941176,0)"><line stroke="currentColor" y2="-340"></line><text fill="currentColor" y="3" dy="0.71em"></text></g><g class="tick" opacity="1" transform="translate(432.5,0)"><line stroke="currentColor" y2="-340"></line><text fill="currentColor" y="3" dy="0.71em"></text></g><g class="tick" opacity="1" transform="translate(457.9117647058823,0)"><line stroke="currentColor" y2="-340"></line><text fill="currentColor" y="3" dy="0.71em"></text></g><g class="tick" opacity="1" transform="translate(483.3235294117647,0)"><line stroke="currentColor" y2="-340"></line><text fill="currentColor" y="3" dy="0.71em"></text></g><g class="tick" opacity="1" transform="translate(508.7352941176471,0)"><line stroke="currentColor" y2="-340"></line><text fill="currentColor" y="3" dy="0.71em"></text></g><g class="tick" opacity="1" transform="translate(534.1470588235294,0)"><line stroke="currentColor" y2="-340"></line><text fill="currentColor" y="3" dy="0.71em"></text></g><g class="tick" opacity="1" transform="translate(559.5588235294118,0)"><line stroke="currentColor" y2="-340"></line><text fill="currentColor" y="3" dy="0.71em"></text></g><g class="tick" opacity="1" transform="translate(584.9705882352941,0)"><line stroke="currentColor" y2="-340"></line><text fill="currentColor" y="3" dy="0.71em"></text></g><g class="tick" opacity="1" transform="translate(610.3823529411765,0)"><line stroke="currentColor" y2="-340"></line><text fill="currentColor" y="3" dy="0.71em"></text></g><g class="tick" opacity="1" transform="translate(635.7941176470588,0)"><line stroke="currentColor" y2="-340"></line><text fill="currentColor" y="3" dy="0.71em"></text></g><g class="tick" opacity="1" transform="translate(661.2058823529411,0)"><line stroke="currentColor" y2="-340"></line><text fill="currentColor" y="3" dy="0.71em"></text></g><g class="tick" opacity="1" transform="translate(686.6176470588235,0)"><line stroke="currentColor" y2="-340"></line><text fill="currentColor" y="3" dy="0.71em"></text></g><g class="tick" opacity="1" transform="translate(712.0294117647059,0)"><line stroke="currentColor" y2="-340"></line><text fill="currentColor" y="3" dy="0.71em"></text></g></g><g class="grid" fill="none" font-size="10" font-family="sans-serif" text-anchor="end" style="stroke-dasharray: 3,3; opacity: 0.3;"><path class="domain" stroke="currentColor" d="M720,340.5H0.5V0.5H720"></path><g class="tick" opacity="1" transform="translate(0,170.5)"><line stroke="currentColor" x2="720"></line><text fill="currentColor" x="-3" dy="0.32em"></text></g></g></g><text x="400" y="10" text-anchor="middle" style="font-size: 16px; font-weight: bold; fill: #333;">OKX USDT Lending Rate - Current Month</text></svg>