<svg width="800" height="400" xmlns="http://www.w3.org/2000/svg"><g transform="translate(50,20)"><g transform="translate(0,340)" fill="none" font-size="10" font-family="sans-serif" text-anchor="middle"><path class="domain" stroke="currentColor" d="M0.5,6V0.5H720.5V6"></path><g class="tick" opacity="1" transform="translate(0.5,0)"><line stroke="currentColor" y2="6"></line><text fill="currentColor" y="9" dy=".15em" style="text-anchor: end;" dx="-.8em" transform="rotate(-45)">04/01</text></g><g class="tick" opacity="1" transform="translate(24.634078212290504,0)"><line stroke="currentColor" y2="6"></line><text fill="currentColor" y="9" dy=".15em" style="text-anchor: end;" dx="-.8em" transform="rotate(-45)">04/02</text></g><g class="tick" opacity="1" transform="translate(48.76815642458101,0)"><line stroke="currentColor" y2="6"></line><text fill="currentColor" y="9" dy=".15em" style="text-anchor: end;" dx="-.8em" transform="rotate(-45)">04/03</text></g><g class="tick" opacity="1" transform="translate(72.90223463687151,0)"><line stroke="currentColor" y2="6"></line><text fill="currentColor" y="9" dy=".15em" style="text-anchor: end;" dx="-.8em" transform="rotate(-45)">04/04</text></g><g class="tick" opacity="1" transform="translate(97.03631284916202,0)"><line stroke="currentColor" y2="6"></line><text fill="currentColor" y="9" dy=".15em" style="text-anchor: end;" dx="-.8em" transform="rotate(-45)">04/05</text></g><g class="tick" opacity="1" transform="translate(121.1703910614525,0)"><line stroke="currentColor" y2="6"></line><text fill="currentColor" y="9" dy=".15em" style="text-anchor: end;" dx="-.8em" transform="rotate(-45)">04/06</text></g><g class="tick" opacity="1" transform="translate(145.30446927374302,0)"><line stroke="currentColor" y2="6"></line><text fill="currentColor" y="9" dy=".15em" style="text-anchor: end;" dx="-.8em" transform="rotate(-45)">04/07</text></g><g class="tick" opacity="1" transform="translate(169.4385474860335,0)"><line stroke="currentColor" y2="6"></line><text fill="currentColor" y="9" dy=".15em" style="text-anchor: end;" dx="-.8em" transform="rotate(-45)">04/08</text></g><g class="tick" opacity="1" transform="translate(193.57262569832403,0)"><line stroke="currentColor" y2="6"></line><text fill="currentColor" y="9" dy=".15em" style="text-anchor: end;" dx="-.8em" transform="rotate(-45)">04/09</text></g><g class="tick" opacity="1" transform="translate(217.70670391061452,0)"><line stroke="currentColor" y2="6"></line><text fill="currentColor" y="9" dy=".15em" style="text-anchor: end;" dx="-.8em" transform="rotate(-45)">04/10</text></g><g class="tick" opacity="1" transform="translate(241.840782122905,0)"><line stroke="currentColor" y2="6"></line><text fill="currentColor" y="9" dy=".15em" style="text-anchor: end;" dx="-.8em" transform="rotate(-45)">04/11</text></g><g class="tick" opacity="1" transform="translate(265.97486033519556,0)"><line stroke="currentColor" y2="6"></line><text fill="currentColor" y="9" dy=".15em" style="text-anchor: end;" dx="-.8em" transform="rotate(-45)">04/12</text></g><g class="tick" opacity="1" transform="translate(290.10893854748605,0)"><line stroke="currentColor" y2="6"></line><text fill="currentColor" y="9" dy=".15em" style="text-anchor: end;" dx="-.8em" transform="rotate(-45)">04/13</text></g><g class="tick" opacity="1" transform="translate(314.24301675977654,0)"><line stroke="currentColor" y2="6"></line><text fill="currentColor" y="9" dy=".15em" style="text-anchor: end;" dx="-.8em" transform="rotate(-45)">04/14</text></g><g class="tick" opacity="1" transform="translate(338.377094972067,0)"><line stroke="currentColor" y2="6"></line><text fill="currentColor" y="9" dy=".15em" style="text-anchor: end;" dx="-.8em" transform="rotate(-45)">04/15</text></g><g class="tick" opacity="1" transform="translate(362.5111731843576,0)"><line stroke="currentColor" y2="6"></line><text fill="currentColor" y="9" dy=".15em" style="text-anchor: end;" dx="-.8em" transform="rotate(-45)">04/16</text></g><g class="tick" opacity="1" transform="translate(386.64525139664806,0)"><line stroke="currentColor" y2="6"></line><text fill="currentColor" y="9" dy=".15em" style="text-anchor: end;" dx="-.8em" transform="rotate(-45)">04/17</text></g><g class="tick" opacity="1" transform="translate(410.7793296089385,0)"><line stroke="currentColor" y2="6"></line><text fill="currentColor" y="9" dy=".15em" style="text-anchor: end;" dx="-.8em" transform="rotate(-45)">04/18</text></g><g class="tick" opacity="1" transform="translate(434.91340782122904,0)"><line stroke="currentColor" y2="6"></line><text fill="currentColor" y="9" dy=".15em" style="text-anchor: end;" dx="-.8em" transform="rotate(-45)">04/19</text></g><g class="tick" opacity="1" transform="translate(459.04748603351953,0)"><line stroke="currentColor" y2="6"></line><text fill="currentColor" y="9" dy=".15em" style="text-anchor: end;" dx="-.8em" transform="rotate(-45)">04/20</text></g><g class="tick" opacity="1" transform="translate(483.18156424581,0)"><line stroke="currentColor" y2="6"></line><text fill="currentColor" y="9" dy=".15em" style="text-anchor: end;" dx="-.8em" transform="rotate(-45)">04/21</text></g><g class="tick" opacity="1" transform="translate(507.31564245810057,0)"><line stroke="currentColor" y2="6"></line><text fill="currentColor" y="9" dy=".15em" style="text-anchor: end;" dx="-.8em" transform="rotate(-45)">04/22</text></g><g class="tick" opacity="1" transform="translate(531.4497206703911,0)"><line stroke="currentColor" y2="6"></line><text fill="currentColor" y="9" dy=".15em" style="text-anchor: end;" dx="-.8em" transform="rotate(-45)">04/23</text></g><g class="tick" opacity="1" transform="translate(555.5837988826815,0)"><line stroke="currentColor" y2="6"></line><text fill="currentColor" y="9" dy=".15em" style="text-anchor: end;" dx="-.8em" transform="rotate(-45)">04/24</text></g><g class="tick" opacity="1" transform="translate(579.7178770949721,0)"><line stroke="currentColor" y2="6"></line><text fill="currentColor" y="9" dy=".15em" style="text-anchor: end;" dx="-.8em" transform="rotate(-45)">04/25</text></g><g class="tick" opacity="1" transform="translate(603.8519553072625,0)"><line stroke="currentColor" y2="6"></line><text fill="currentColor" y="9" dy=".15em" style="text-anchor: end;" dx="-.8em" transform="rotate(-45)">04/26</text></g><g class="tick" opacity="1" transform="translate(627.9860335195531,0)"><line stroke="currentColor" y2="6"></line><text fill="currentColor" y="9" dy=".15em" style="text-anchor: end;" dx="-.8em" transform="rotate(-45)">04/27</text></g><g class="tick" opacity="1" transform="translate(652.1201117318436,0)"><line stroke="currentColor" y2="6"></line><text fill="currentColor" y="9" dy=".15em" style="text-anchor: end;" dx="-.8em" transform="rotate(-45)">04/28</text></g><g class="tick" opacity="1" transform="translate(676.254189944134,0)"><line stroke="currentColor" y2="6"></line><text fill="currentColor" y="9" dy=".15em" style="text-anchor: end;" dx="-.8em" transform="rotate(-45)">04/29</text></g><g class="tick" opacity="1" transform="translate(700.3882681564246,0)"><line stroke="currentColor" y2="6"></line><text fill="currentColor" y="9" dy=".15em" style="text-anchor: end;" dx="-.8em" transform="rotate(-45)">04/30</text></g></g><g fill="none" font-size="10" font-family="sans-serif" text-anchor="end"><path class="domain" stroke="currentColor" d="M-6,340.5H0.5V0.5H-6"></path><g class="tick" opacity="1" transform="translate(0,170.5)"><line stroke="currentColor" x2="-6"></line><text fill="currentColor" x="-9" dy="0.32em">2.50%</text></g></g><text transform="rotate(-90)" y="-50" x="-170" dy="1em" style="text-anchor: middle; font-size: 12px; fill: #666;">Pre Rate (%)</text><text transform="translate(360, 380)" style="text-anchor: middle; font-size: 12px; fill: #666;">Time (UTC)</text><path fill="none" stroke="#2563eb" stroke-width="2" d="M0,170C0.335,170,0.67,170,1.006,170C1.341,170,1.676,170,2.011,170C2.346,170,2.682,170,3.017,170C3.352,170,3.687,170,4.022,170C4.358,170,4.693,170,5.028,170C5.363,170,5.698,170,6.034,170C6.369,170,6.704,170,7.039,170C7.374,170,7.709,170,8.045,170C8.38,170,8.715,170,9.05,170C9.385,170,9.721,170,10.056,170C10.391,170,10.726,170,11.061,170C11.397,170,11.732,170,12.067,170C12.402,170,12.737,170,13.073,170C13.408,170,13.743,170,14.078,170C14.413,170,14.749,170,15.084,170C15.419,170,15.754,170,16.089,170C16.425,170,16.76,170,17.095,170C17.43,170,17.765,170,18.101,170C18.436,170,18.771,170,19.106,170C19.441,170,19.777,170,20.112,170C20.447,170,20.782,170,21.117,170C21.453,170,21.788,170,22.123,170C22.458,170,22.793,170,23.128,170C23.464,170,23.799,170,24.134,170C24.469,170,24.804,170,25.14,170C25.475,170,25.81,170,26.145,170C26.48,170,26.816,170,27.151,170C27.486,170,27.821,170,28.156,170C28.492,170,28.827,170,29.162,170C29.497,170,29.832,170,30.168,170C30.503,170,30.838,170,31.173,170C31.508,170,31.844,170,32.179,170C32.514,170,32.849,170,33.184,170C33.52,170,33.855,170,34.19,170C34.525,170,34.86,170,35.196,170C35.531,170,35.866,170,36.201,170C36.536,170,36.872,170,37.207,170C37.542,170,37.877,170,38.212,170C38.547,170,38.883,170,39.218,170C39.553,170,39.888,170,40.223,170C40.559,170,40.894,170,41.229,170C41.564,170,41.899,170,42.235,170C42.57,170,42.905,170,43.24,170C43.575,170,43.911,170,44.246,170C44.581,170,44.916,170,45.251,170C45.587,170,45.922,170,46.257,170C46.592,170,46.927,170,47.263,170C47.598,170,47.933,170,48.268,170C48.603,170,48.939,170,49.274,170C49.609,170,49.944,170,50.279,170C50.615,170,50.95,170,51.285,170C51.62,170,51.955,170,52.291,170C52.626,170,52.961,170,53.296,170C53.631,170,53.966,170,54.302,170C54.637,170,54.972,170,55.307,170C55.642,170,55.978,170,56.313,170C56.648,170,56.983,170,57.318,170C57.654,170,57.989,170,58.324,170C58.659,170,58.994,170,59.33,170C59.665,170,60,170,60.335,170C60.67,170,61.006,170,61.341,170C61.676,170,62.011,170,62.346,170C62.682,170,63.017,170,63.352,170C63.687,170,64.022,170,64.358,170C64.693,170,65.028,170,65.363,170C65.698,170,66.034,170,66.369,170C66.704,170,67.039,170,67.374,170C67.709,170,68.045,170,68.38,170C68.715,170,69.05,170,69.385,170C69.721,170,70.056,170,70.391,170C70.726,170,71.061,170,71.397,170C71.732,170,72.067,170,72.402,170C72.737,170,73.073,170,73.408,170C73.743,170,74.078,170,74.413,170C74.749,170,75.084,170,75.419,170C75.754,170,76.089,170,76.425,170C76.76,170,77.095,170,77.43,170C77.765,170,78.101,170,78.436,170C78.771,170,79.106,170,79.441,170C79.777,170,80.112,170,80.447,170C80.782,170,81.117,170,81.453,170C81.788,170,82.123,170,82.458,170C82.793,170,83.128,170,83.464,170C83.799,170,84.134,170,84.469,170C84.804,170,85.14,170,85.475,170C85.81,170,86.145,170,86.48,170C86.816,170,87.151,170,87.486,170C87.821,170,88.156,170,88.492,170C88.827,170,89.162,170,89.497,170C89.832,170,90.168,170,90.503,170C90.838,170,91.173,170,91.508,170C91.844,170,92.179,170,92.514,170C92.849,170,93.184,170,93.52,170C93.855,170,94.19,170,94.525,170C94.86,170,95.196,170,95.531,170C95.866,170,96.201,170,96.536,170C96.872,170,97.207,170,97.542,170C97.877,170,98.212,170,98.547,170C98.883,170,99.218,170,99.553,170C99.888,170,100.223,170,100.559,170C100.894,170,101.229,170,101.564,170C101.899,170,102.235,170,102.57,170C102.905,170,103.24,170,103.575,170C103.911,170,104.246,170,104.581,170C104.916,170,105.251,170,105.587,170C105.922,170,106.257,170,106.592,170C106.927,170,107.263,170,107.598,170C107.933,170,108.268,170,108.603,170C108.939,170,109.274,170,109.609,170C109.944,170,110.279,170,110.615,170C110.95,170,111.285,170,111.62,170C111.955,170,112.291,170,112.626,170C112.961,170,113.296,170,113.631,170C113.966,170,114.302,170,114.637,170C114.972,170,115.307,170,115.642,170C115.978,170,116.313,170,116.648,170C116.983,170,117.318,170,117.654,170C117.989,170,118.324,170,118.659,170C118.994,170,119.33,170,119.665,170C120,170,120.335,170,120.67,170C121.006,170,121.341,170,121.676,170C122.011,170,122.346,170,122.682,170C123.017,170,123.352,170,123.687,170C124.022,170,124.358,170,124.693,170C125.028,170,125.363,170,125.698,170C126.034,170,126.369,170,126.704,170C127.039,170,127.374,170,127.709,170C128.045,170,128.38,170,128.715,170C129.05,170,129.385,170,129.721,170C130.056,170,130.391,170,130.726,170C131.061,170,131.397,170,131.732,170C132.067,170,132.402,170,132.737,170C133.073,170,133.408,170,133.743,170C134.078,170,134.413,170,134.749,170C135.084,170,135.419,170,135.754,170C136.089,170,136.425,170,136.76,170C137.095,170,137.43,170,137.765,170C138.101,170,138.436,170,138.771,170C139.106,170,139.441,170,139.777,170C140.112,170,140.447,170,140.782,170C141.117,170,141.453,170,141.788,170C142.123,170,142.458,170,142.793,170C143.128,170,143.464,170,143.799,170C144.134,170,144.469,170,144.804,170C145.14,170,145.475,170,145.81,170C146.145,170,146.48,170,146.816,170C147.151,170,147.486,170,147.821,170C148.156,170,148.492,170,148.827,170C149.162,170,149.497,170,149.832,170C150.168,170,150.503,170,150.838,170C151.173,170,151.508,170,151.844,170C152.179,170,152.514,170,152.849,170C153.184,170,153.52,170,153.855,170C154.19,170,154.525,170,154.86,170C155.196,170,155.531,170,155.866,170C156.201,170,156.536,170,156.872,170C157.207,170,157.542,170,157.877,170C158.212,170,158.547,170,158.883,170C159.218,170,159.553,170,159.888,170C160.223,170,160.559,170,160.894,170C161.229,170,161.564,170,161.899,170C162.235,170,162.57,170,162.905,170C163.24,170,163.575,170,163.911,170C164.246,170,164.581,170,164.916,170C165.251,170,165.587,170,165.922,170C166.257,170,166.592,170,166.927,170C167.263,170,167.598,170,167.933,170C168.268,170,168.603,170,168.939,170C169.274,170,169.609,170,169.944,170C170.279,170,170.615,170,170.95,170C171.285,170,171.62,170,171.955,170C172.291,170,172.626,170,172.961,170C173.296,170,173.631,170,173.966,170C174.302,170,174.637,170,174.972,170C175.307,170,175.642,170,175.978,170C176.313,170,176.648,170,176.983,170C177.318,170,177.654,170,177.989,170C178.324,170,178.659,170,178.994,170C179.33,170,179.665,170,180,170C180.335,170,180.67,170,181.006,170C181.341,170,181.676,170,182.011,170C182.346,170,182.682,170,183.017,170C183.352,170,183.687,170,184.022,170C184.358,170,184.693,170,185.028,170C185.363,170,185.698,170,186.034,170C186.369,170,186.704,170,187.039,170C187.374,170,187.709,170,188.045,170C188.38,170,188.715,170,189.05,170C189.385,170,189.721,170,190.056,170C190.391,170,190.726,170,191.061,170C191.397,170,191.732,170,192.067,170C192.402,170,192.737,170,193.073,170C193.408,170,193.743,170,194.078,170C194.413,170,194.749,170,195.084,170C195.419,170,195.754,170,196.089,170C196.425,170,196.76,170,197.095,170C197.43,170,197.765,170,198.101,170C198.436,170,198.771,170,199.106,170C199.441,170,199.777,170,200.112,170C200.447,170,200.782,170,201.117,170C201.453,170,201.788,170,202.123,170C202.458,170,202.793,170,203.128,170C203.464,170,203.799,170,204.134,170C204.469,170,204.804,170,205.14,170C205.475,170,205.81,170,206.145,170C206.48,170,206.816,170,207.151,170C207.486,170,207.821,170,208.156,170C208.492,170,208.827,170,209.162,170C209.497,170,209.832,170,210.168,170C210.503,170,210.838,170,211.173,170C211.508,170,211.844,170,212.179,170C212.514,170,212.849,170,213.184,170C213.52,170,213.855,170,214.19,170C214.525,170,214.86,170,215.196,170C215.531,170,215.866,170,216.201,170C216.536,170,216.872,170,217.207,170C217.542,170,217.877,170,218.212,170C218.547,170,218.883,170,219.218,170C219.553,170,219.888,170,220.223,170C220.559,170,220.894,170,221.229,170C221.564,170,221.899,170,222.235,170C222.57,170,222.905,170,223.24,170C223.575,170,223.911,170,224.246,170C224.581,170,224.916,170,225.251,170C225.587,170,225.922,170,226.257,170C226.592,170,226.927,170,227.263,170C227.598,170,227.933,170,228.268,170C228.603,170,228.939,170,229.274,170C229.609,170,229.944,170,230.279,170C230.615,170,230.95,170,231.285,170C231.62,170,231.955,170,232.291,170C232.626,170,232.961,170,233.296,170C233.631,170,233.966,170,234.302,170C234.637,170,234.972,170,235.307,170C235.642,170,235.978,170,236.313,170C236.648,170,236.983,170,237.318,170C237.654,170,237.989,170,238.324,170C238.659,170,238.994,170,239.33,170C239.665,170,240,170,240.335,170C240.67,170,241.006,170,241.341,170C241.676,170,242.011,170,242.346,170C242.682,170,243.017,170,243.352,170C243.687,170,244.022,170,244.358,170C244.693,170,245.028,170,245.363,170C245.698,170,246.034,170,246.369,170C246.704,170,247.039,170,247.374,170C247.709,170,248.045,170,248.38,170C248.715,170,249.05,170,249.385,170C249.721,170,250.056,170,250.391,170C250.726,170,251.061,170,251.397,170C251.732,170,252.067,170,252.402,170C252.737,170,253.073,170,253.408,170C253.743,170,254.078,170,254.413,170C254.749,170,255.084,170,255.419,170C255.754,170,256.089,170,256.425,170C256.76,170,257.095,170,257.43,170C257.765,170,258.101,170,258.436,170C258.771,170,259.106,170,259.441,170C259.777,170,260.112,170,260.447,170C260.782,170,261.117,170,261.453,170C261.788,170,262.123,170,262.458,170C262.793,170,263.128,170,263.464,170C263.799,170,264.134,170,264.469,170C264.804,170,265.14,170,265.475,170C265.81,170,266.145,170,266.48,170C266.816,170,267.151,170,267.486,170C267.821,170,268.156,170,268.492,170C268.827,170,269.162,170,269.497,170C269.832,170,270.168,170,270.503,170C270.838,170,271.173,170,271.508,170C271.844,170,272.179,170,272.514,170C272.849,170,273.184,170,273.52,170C273.855,170,274.19,170,274.525,170C274.86,170,275.196,170,275.531,170C275.866,170,276.201,170,276.536,170C276.872,170,277.207,170,277.542,170C277.877,170,278.212,170,278.547,170C278.883,170,279.218,170,279.553,170C279.888,170,280.223,170,280.559,170C280.894,170,281.229,170,281.564,170C281.899,170,282.235,170,282.57,170C282.905,170,283.24,170,283.575,170C283.911,170,284.246,170,284.581,170C284.916,170,285.251,170,285.587,170C285.922,170,286.257,170,286.592,170C286.927,170,287.263,170,287.598,170C287.933,170,288.268,170,288.603,170C288.939,170,289.274,170,289.609,170C289.944,170,290.279,170,290.615,170C290.95,170,291.285,170,291.62,170C291.955,170,292.291,170,292.626,170C292.961,170,293.296,170,293.631,170C293.966,170,294.302,170,294.637,170C294.972,170,295.307,170,295.642,170C295.978,170,296.313,170,296.648,170C296.983,170,297.318,170,297.654,170C297.989,170,298.324,170,298.659,170C298.994,170,299.33,170,299.665,170C300,170,300.335,170,300.67,170C301.006,170,301.341,170,301.676,170C302.011,170,302.346,170,302.682,170C303.017,170,303.352,170,303.687,170C304.022,170,304.358,170,304.693,170C305.028,170,305.363,170,305.698,170C306.034,170,306.369,170,306.704,170C307.039,170,307.374,170,307.709,170C308.045,170,308.38,170,308.715,170C309.05,170,309.385,170,309.721,170C310.056,170,310.391,170,310.726,170C311.061,170,311.397,170,311.732,170C312.067,170,312.402,170,312.737,170C313.073,170,313.408,170,313.743,170C314.078,170,314.413,170,314.749,170C315.084,170,315.419,170,315.754,170C316.089,170,316.425,170,316.76,170C317.095,170,317.43,170,317.765,170C318.101,170,318.436,170,318.771,170C319.106,170,319.441,170,319.777,170C320.112,170,320.447,170,320.782,170C321.117,170,321.453,170,321.788,170C322.123,170,322.458,170,322.793,170C323.128,170,323.464,170,323.799,170C324.134,170,324.469,170,324.804,170C325.14,170,325.475,170,325.81,170C326.145,170,326.48,170,326.816,170C327.151,170,327.486,170,327.821,170C328.156,170,328.492,170,328.827,170C329.162,170,329.497,170,329.832,170C330.168,170,330.503,170,330.838,170C331.173,170,331.508,170,331.844,170C332.179,170,332.514,170,332.849,170C333.184,170,333.52,170,333.855,170C334.19,170,334.525,170,334.86,170C335.196,170,335.531,170,335.866,170C336.201,170,336.536,170,336.872,170C337.207,170,337.542,170,337.877,170C338.212,170,338.547,170,338.883,170C339.218,170,339.553,170,339.888,170C340.223,170,340.559,170,340.894,170C341.229,170,341.564,170,341.899,170C342.235,170,342.57,170,342.905,170C343.24,170,343.575,170,343.911,170C344.246,170,344.581,170,344.916,170C345.251,170,345.587,170,345.922,170C346.257,170,346.592,170,346.927,170C347.263,170,347.598,170,347.933,170C348.268,170,348.603,170,348.939,170C349.274,170,349.609,170,349.944,170C350.279,170,350.615,170,350.95,170C351.285,170,351.62,170,351.955,170C352.291,170,352.626,170,352.961,170C353.296,170,353.631,170,353.966,170C354.302,170,354.637,170,354.972,170C355.307,170,355.642,170,355.978,170C356.313,170,356.648,170,356.983,170C357.318,170,357.654,170,357.989,170C358.324,170,358.659,170,358.994,170C359.33,170,359.665,170,360,170C360.335,170,360.67,170,361.006,170C361.341,170,361.676,170,362.011,170C362.346,170,362.682,170,363.017,170C363.352,170,363.687,170,364.022,170C364.358,170,364.693,170,365.028,170C365.363,170,365.698,170,366.034,170C366.369,170,366.704,170,367.039,170C367.374,170,367.709,170,368.045,170C368.38,170,368.715,170,369.05,170C369.385,170,369.721,170,370.056,170C370.391,170,370.726,170,371.061,170C371.397,170,371.732,170,372.067,170C372.402,170,372.737,170,373.073,170C373.408,170,373.743,170,374.078,170C374.413,170,374.749,170,375.084,170C375.419,170,375.754,170,376.089,170C376.425,170,376.76,170,377.095,170C377.43,170,377.765,170,378.101,170C378.436,170,378.771,170,379.106,170C379.441,170,379.777,170,380.112,170C380.447,170,380.782,170,381.117,170C381.453,170,381.788,170,382.123,170C382.458,170,382.793,170,383.128,170C383.464,170,383.799,170,384.134,170C384.469,170,384.804,170,385.14,170C385.475,170,385.81,170,386.145,170C386.48,170,386.816,170,387.151,170C387.486,170,387.821,170,388.156,170C388.492,170,388.827,170,389.162,170C389.497,170,389.832,170,390.168,170C390.503,170,390.838,170,391.173,170C391.508,170,391.844,170,392.179,170C392.514,170,392.849,170,393.184,170C393.52,170,393.855,170,394.19,170C394.525,170,394.86,170,395.196,170C395.531,170,395.866,170,396.201,170C396.536,170,396.872,170,397.207,170C397.542,170,397.877,170,398.212,170C398.547,170,398.883,170,399.218,170C399.553,170,399.888,170,400.223,170C400.559,170,400.894,170,401.229,170C401.564,170,401.899,170,402.235,170C402.57,170,402.905,170,403.24,170C403.575,170,403.911,170,404.246,170C404.581,170,404.916,170,405.251,170C405.587,170,405.922,170,406.257,170C406.592,170,406.927,170,407.263,170C407.598,170,407.933,170,408.268,170C408.603,170,408.939,170,409.274,170C409.609,170,409.944,170,410.279,170C410.615,170,410.95,170,411.285,170C411.62,170,411.955,170,412.291,170C412.626,170,412.961,170,413.296,170C413.631,170,413.966,170,414.302,170C414.637,170,414.972,170,415.307,170C415.642,170,415.978,170,416.313,170C416.648,170,416.983,170,417.318,170C417.654,170,417.989,170,418.324,170C418.659,170,418.994,170,419.33,170C419.665,170,420,170,420.335,170C420.67,170,421.006,170,421.341,170C421.676,170,422.011,170,422.346,170C422.682,170,423.017,170,423.352,170C423.687,170,424.022,170,424.358,170C424.693,170,425.028,170,425.363,170C425.698,170,426.034,170,426.369,170C426.704,170,427.039,170,427.374,170C427.709,170,428.045,170,428.38,170C428.715,170,429.05,170,429.385,170C429.721,170,430.056,170,430.391,170C430.726,170,431.061,170,431.397,170C431.732,170,432.067,170,432.402,170C432.737,170,433.073,170,433.408,170C433.743,170,434.078,170,434.413,170C434.749,170,435.084,170,435.419,170C435.754,170,436.089,170,436.425,170C436.76,170,437.095,170,437.43,170C437.765,170,438.101,170,438.436,170C438.771,170,439.106,170,439.441,170C439.777,170,440.112,170,440.447,170C440.782,170,441.117,170,441.453,170C441.788,170,442.123,170,442.458,170C442.793,170,443.128,170,443.464,170C443.799,170,444.134,170,444.469,170C444.804,170,445.14,170,445.475,170C445.81,170,446.145,170,446.48,170C446.816,170,447.151,170,447.486,170C447.821,170,448.156,170,448.492,170C448.827,170,449.162,170,449.497,170C449.832,170,450.168,170,450.503,170C450.838,170,451.173,170,451.508,170C451.844,170,452.179,170,452.514,170C452.849,170,453.184,170,453.52,170C453.855,170,454.19,170,454.525,170C454.86,170,455.196,170,455.531,170C455.866,170,456.201,170,456.536,170C456.872,170,457.207,170,457.542,170C457.877,170,458.212,170,458.547,170C458.883,170,459.218,170,459.553,170C459.888,170,460.223,170,460.559,170C460.894,170,461.229,170,461.564,170C461.899,170,462.235,170,462.57,170C462.905,170,463.24,170,463.575,170C463.911,170,464.246,170,464.581,170C464.916,170,465.251,170,465.587,170C465.922,170,466.257,170,466.592,170C466.927,170,467.263,170,467.598,170C467.933,170,468.268,170,468.603,170C468.939,170,469.274,170,469.609,170C469.944,170,470.279,170,470.615,170C470.95,170,471.285,170,471.62,170C471.955,170,472.291,170,472.626,170C472.961,170,473.296,170,473.631,170C473.966,170,474.302,170,474.637,170C474.972,170,475.307,170,475.642,170C475.978,170,476.313,170,476.648,170C476.983,170,477.318,170,477.654,170C477.989,170,478.324,170,478.659,170C478.994,170,479.33,170,479.665,170C480,170,480.335,170,480.67,170C481.006,170,481.341,170,481.676,170C482.011,170,482.346,170,482.682,170C483.017,170,483.352,170,483.687,170C484.022,170,484.358,170,484.693,170C485.028,170,485.363,170,485.698,170C486.034,170,486.369,170,486.704,170C487.039,170,487.374,170,487.709,170C488.045,170,488.38,170,488.715,170C489.05,170,489.385,170,489.721,170C490.056,170,490.391,170,490.726,170C491.061,170,491.397,170,491.732,170C492.067,170,492.402,170,492.737,170C493.073,170,493.408,170,493.743,170C494.078,170,494.413,170,494.749,170C495.084,170,495.419,170,495.754,170C496.089,170,496.425,170,496.76,170C497.095,170,497.43,170,497.765,170C498.101,170,498.436,170,498.771,170C499.106,170,499.441,170,499.777,170C500.112,170,500.447,170,500.782,170C501.117,170,501.453,170,501.788,170C502.123,170,502.458,170,502.793,170C503.128,170,503.464,170,503.799,170C504.134,170,504.469,170,504.804,170C505.14,170,505.475,170,505.81,170C506.145,170,506.48,170,506.816,170C507.151,170,507.486,170,507.821,170C508.156,170,508.492,170,508.827,170C509.162,170,509.497,170,509.832,170C510.168,170,510.503,170,510.838,170C511.173,170,511.508,170,511.844,170C512.179,170,512.514,170,512.849,170C513.184,170,513.52,170,513.855,170C514.19,170,514.525,170,514.86,170C515.196,170,515.531,170,515.866,170C516.201,170,516.536,170,516.872,170C517.207,170,517.542,170,517.877,170C518.212,170,518.547,170,518.883,170C519.218,170,519.553,170,519.888,170C520.223,170,520.559,170,520.894,170C521.229,170,521.564,170,521.899,170C522.235,170,522.57,170,522.905,170C523.24,170,523.575,170,523.911,170C524.246,170,524.581,170,524.916,170C525.251,170,525.587,170,525.922,170C526.257,170,526.592,170,526.927,170C527.263,170,527.598,170,527.933,170C528.268,170,528.603,170,528.939,170C529.274,170,529.609,170,529.944,170C530.279,170,530.615,170,530.95,170C531.285,170,531.62,170,531.955,170C532.291,170,532.626,170,532.961,170C533.296,170,533.631,170,533.966,170C534.302,170,534.637,170,534.972,170C535.307,170,535.642,170,535.978,170C536.313,170,536.648,170,536.983,170C537.318,170,537.654,170,537.989,170C538.324,170,538.659,170,538.994,170C539.33,170,539.665,170,540,170C540.335,170,540.67,170,541.006,170C541.341,170,541.676,170,542.011,170C542.346,170,542.682,170,543.017,170C543.352,170,543.687,170,544.022,170C544.358,170,544.693,170,545.028,170C545.363,170,545.698,170,546.034,170C546.369,170,546.704,170,547.039,170C547.374,170,547.709,170,548.045,170C548.38,170,548.715,170,549.05,170C549.385,170,549.721,170,550.056,170C550.391,170,550.726,170,551.061,170C551.397,170,551.732,170,552.067,170C552.402,170,552.737,170,553.073,170C553.408,170,553.743,170,554.078,170C554.413,170,554.749,170,555.084,170C555.419,170,555.754,170,556.089,170C556.425,170,556.76,170,557.095,170C557.43,170,557.765,170,558.101,170C558.436,170,558.771,170,559.106,170C559.441,170,559.777,170,560.112,170C560.447,170,560.782,170,561.117,170C561.453,170,561.788,170,562.123,170C562.458,170,562.793,170,563.128,170C563.464,170,563.799,170,564.134,170C564.469,170,564.804,170,565.14,170C565.475,170,565.81,170,566.145,170C566.48,170,566.816,170,567.151,170C567.486,170,567.821,170,568.156,170C568.492,170,568.827,170,569.162,170C569.497,170,569.832,170,570.168,170C570.503,170,570.838,170,571.173,170C571.508,170,571.844,170,572.179,170C572.514,170,572.849,170,573.184,170C573.52,170,573.855,170,574.19,170C574.525,170,574.86,170,575.196,170C575.531,170,575.866,170,576.201,170C576.536,170,576.872,170,577.207,170C577.542,170,577.877,170,578.212,170C578.547,170,578.883,170,579.218,170C579.553,170,579.888,170,580.223,170C580.559,170,580.894,170,581.229,170C581.564,170,581.899,170,582.235,170C582.57,170,582.905,170,583.24,170C583.575,170,583.911,170,584.246,170C584.581,170,584.916,170,585.251,170C585.587,170,585.922,170,586.257,170C586.592,170,586.927,170,587.263,170C587.598,170,587.933,170,588.268,170C588.603,170,588.939,170,589.274,170C589.609,170,589.944,170,590.279,170C590.615,170,590.95,170,591.285,170C591.62,170,591.955,170,592.291,170C592.626,170,592.961,170,593.296,170C593.631,170,593.966,170,594.302,170C594.637,170,594.972,170,595.307,170C595.642,170,595.978,170,596.313,170C596.648,170,596.983,170,597.318,170C597.654,170,597.989,170,598.324,170C598.659,170,598.994,170,599.33,170C599.665,170,600,170,600.335,170C600.67,170,601.006,170,601.341,170C601.676,170,602.011,170,602.346,170C602.682,170,603.017,170,603.352,170C603.687,170,604.022,170,604.358,170C604.693,170,605.028,170,605.363,170C605.698,170,606.034,170,606.369,170C606.704,170,607.039,170,607.374,170C607.709,170,608.045,170,608.38,170C608.715,170,609.05,170,609.385,170C609.721,170,610.056,170,610.391,170C610.726,170,611.061,170,611.397,170C611.732,170,612.067,170,612.402,170C612.737,170,613.073,170,613.408,170C613.743,170,614.078,170,614.413,170C614.749,170,615.084,170,615.419,170C615.754,170,616.089,170,616.425,170C616.76,170,617.095,170,617.43,170C617.765,170,618.101,170,618.436,170C618.771,170,619.106,170,619.441,170C619.777,170,620.112,170,620.447,170C620.782,170,621.117,170,621.453,170C621.788,170,622.123,170,622.458,170C622.793,170,623.128,170,623.464,170C623.799,170,624.134,170,624.469,170C624.804,170,625.14,170,625.475,170C625.81,170,626.145,170,626.48,170C626.816,170,627.151,170,627.486,170C627.821,170,628.156,170,628.492,170C628.827,170,629.162,170,629.497,170C629.832,170,630.168,170,630.503,170C630.838,170,631.173,170,631.508,170C631.844,170,632.179,170,632.514,170C632.849,170,633.184,170,633.52,170C633.855,170,634.19,170,634.525,170C634.86,170,635.196,170,635.531,170C635.866,170,636.201,170,636.536,170C636.872,170,637.207,170,637.542,170C637.877,170,638.212,170,638.547,170C638.883,170,639.218,170,639.553,170C639.888,170,640.223,170,640.559,170C640.894,170,641.229,170,641.564,170C641.899,170,642.235,170,642.57,170C642.905,170,643.24,170,643.575,170C643.911,170,644.246,170,644.581,170C644.916,170,645.251,170,645.587,170C645.922,170,646.257,170,646.592,170C646.927,170,647.263,170,647.598,170C647.933,170,648.268,170,648.603,170C648.939,170,649.274,170,649.609,170C649.944,170,650.279,170,650.615,170C650.95,170,651.285,170,651.62,170C651.955,170,652.291,170,652.626,170C652.961,170,653.296,170,653.631,170C653.966,170,654.302,170,654.637,170C654.972,170,655.307,170,655.642,170C655.978,170,656.313,170,656.648,170C656.983,170,657.318,170,657.654,170C657.989,170,658.324,170,658.659,170C658.994,170,659.33,170,659.665,170C660,170,660.335,170,660.67,170C661.006,170,661.341,170,661.676,170C662.011,170,662.346,170,662.682,170C663.017,170,663.352,170,663.687,170C664.022,170,664.358,170,664.693,170C665.028,170,665.363,170,665.698,170C666.034,170,666.369,170,666.704,170C667.039,170,667.374,170,667.709,170C668.045,170,668.38,170,668.715,170C669.05,170,669.385,170,669.721,170C670.056,170,670.391,170,670.726,170C671.061,170,671.397,170,671.732,170C672.067,170,672.402,170,672.737,170C673.073,170,673.408,170,673.743,170C674.078,170,674.413,170,674.749,170C675.084,170,675.419,170,675.754,170C676.089,170,676.425,170,676.76,170C677.095,170,677.43,170,677.765,170C678.101,170,678.436,170,678.771,170C679.106,170,679.441,170,679.777,170C680.112,170,680.447,170,680.782,170C681.117,170,681.453,170,681.788,170C682.123,170,682.458,170,682.793,170C683.128,170,683.464,170,683.799,170C684.134,170,684.469,170,684.804,170C685.14,170,685.475,170,685.81,170C686.145,170,686.48,170,686.816,170C687.151,170,687.486,170,687.821,170C688.156,170,688.492,170,688.827,170C689.162,170,689.497,170,689.832,170C690.168,170,690.503,170,690.838,170C691.173,170,691.508,170,691.844,170C692.179,170,692.514,170,692.849,170C693.184,170,693.52,170,693.855,170C694.19,170,694.525,170,694.86,170C695.196,170,695.531,170,695.866,170C696.201,170,696.536,170,696.872,170C697.207,170,697.542,170,697.877,170C698.212,170,698.547,170,698.883,170C699.218,170,699.553,170,699.888,170C700.223,170,700.559,170,700.894,170C701.229,170,701.564,170,701.899,170C702.235,170,702.57,170,702.905,170C703.24,170,703.575,170,703.911,170C704.246,170,704.581,170,704.916,170C705.251,170,705.587,170,705.922,170C706.257,170,706.592,170,706.927,170C707.263,170,707.598,170,707.933,170C708.268,170,708.603,170,708.939,170C709.274,170,709.609,170,709.944,170C710.279,170,710.615,170,710.95,170C711.285,170,711.62,170,711.955,170C712.291,170,712.626,170,712.961,170C713.296,170,713.631,170,713.966,170C714.302,170,714.637,170,714.972,170C715.307,170,715.642,170,715.978,170C716.313,170,716.648,170,716.983,170C717.318,170,717.654,170,717.989,170C718.324,170,718.659,170,718.994,170C719.33,170,719.665,170,720,170"></path><circle class="dot" cx="0" cy="170" r="3" fill="#2563eb"></circle><circle class="dot" cx="1.005586592178771" cy="170" r="3" fill="#2563eb"></circle><circle class="dot" cx="2.011173184357542" cy="170" r="3" fill="#2563eb"></circle><circle class="dot" cx="3.016759776536313" cy="170" r="3" fill="#2563eb"></circle><circle class="dot" cx="4.022346368715084" cy="170" r="3" fill="#2563eb"></circle><circle class="dot" cx="5.027932960893854" cy="170" r="3" fill="#2563eb"></circle><circle class="dot" cx="6.033519553072626" cy="170" r="3" fill="#2563eb"></circle><circle class="dot" cx="7.039106145251397" cy="170" r="3" fill="#2563eb"></circle><circle class="dot" cx="8.044692737430168" cy="170" r="3" fill="#2563eb"></circle><circle class="dot" cx="9.050279329608939" cy="170" r="3" fill="#2563eb"></circle><circle class="dot" cx="10.055865921787708" cy="170" r="3" fill="#2563eb"></circle><circle class="dot" cx="11.06145251396648" cy="170" r="3" fill="#2563eb"></circle><circle class="dot" cx="12.067039106145252" cy="170" r="3" fill="#2563eb"></circle><circle class="dot" cx="13.072625698324023" cy="170" r="3" fill="#2563eb"></circle><circle class="dot" cx="14.078212290502794" cy="170" r="3" fill="#2563eb"></circle><circle class="dot" cx="15.083798882681563" cy="170" r="3" fill="#2563eb"></circle><circle class="dot" cx="16.089385474860336" cy="170" r="3" fill="#2563eb"></circle><circle class="dot" cx="17.094972067039105" cy="170" r="3" fill="#2563eb"></circle><circle class="dot" cx="18.100558659217878" cy="170" r="3" fill="#2563eb"></circle><circle class="dot" cx="19.106145251396647" cy="170" r="3" fill="#2563eb"></circle><circle class="dot" cx="20.111731843575416" cy="170" r="3" fill="#2563eb"></circle><circle class="dot" cx="21.11731843575419" cy="170" r="3" fill="#2563eb"></circle><circle class="dot" cx="22.12290502793296" cy="170" r="3" fill="#2563eb"></circle><circle class="dot" cx="23.12849162011173" cy="170" r="3" fill="#2563eb"></circle><circle class="dot" cx="24.134078212290504" cy="170" r="3" fill="#2563eb"></circle><circle class="dot" cx="25.139664804469273" cy="170" r="3" fill="#2563eb"></circle><circle class="dot" cx="26.145251396648046" cy="170" r="3" fill="#2563eb"></circle><circle class="dot" cx="27.150837988826815" cy="170" r="3" fill="#2563eb"></circle><circle class="dot" cx="28.156424581005588" cy="170" r="3" fill="#2563eb"></circle><circle class="dot" cx="29.162011173184357" cy="170" r="3" fill="#2563eb"></circle><circle class="dot" cx="30.167597765363126" cy="170" r="3" fill="#2563eb"></circle><circle class="dot" cx="31.173184357541903" cy="170" r="3" fill="#2563eb"></circle><circle class="dot" cx="32.17877094972067" cy="170" r="3" fill="#2563eb"></circle><circle class="dot" cx="33.184357541899445" cy="170" r="3" fill="#2563eb"></circle><circle class="dot" cx="34.18994413407821" cy="170" r="3" fill="#2563eb"></circle><circle class="dot" cx="35.19553072625698" cy="170" r="3" fill="#2563eb"></circle><circle class="dot" cx="36.201117318435756" cy="170" r="3" fill="#2563eb"></circle><circle class="dot" cx="37.20670391061453" cy="170" r="3" fill="#2563eb"></circle><circle class="dot" cx="38.212290502793294" cy="170" r="3" fill="#2563eb"></circle><circle class="dot" cx="39.21787709497207" cy="170" r="3" fill="#2563eb"></circle><circle class="dot" cx="40.22346368715083" cy="170" r="3" fill="#2563eb"></circle><circle class="dot" cx="41.22905027932961" cy="170" r="3" fill="#2563eb"></circle><circle class="dot" cx="42.23463687150838" cy="170" r="3" fill="#2563eb"></circle><circle class="dot" cx="43.24022346368715" cy="170" r="3" fill="#2563eb"></circle><circle class="dot" cx="44.24581005586592" cy="170" r="3" fill="#2563eb"></circle><circle class="dot" cx="45.2513966480447" cy="170" r="3" fill="#2563eb"></circle><circle class="dot" cx="46.25698324022346" cy="170" r="3" fill="#2563eb"></circle><circle class="dot" cx="47.262569832402235" cy="170" r="3" fill="#2563eb"></circle><circle class="dot" cx="48.26815642458101" cy="170" r="3" fill="#2563eb"></circle><circle class="dot" cx="49.273743016759774" cy="170" r="3" fill="#2563eb"></circle><circle class="dot" cx="50.279329608938546" cy="170" r="3" fill="#2563eb"></circle><circle class="dot" cx="51.28491620111731" cy="170" r="3" fill="#2563eb"></circle><circle class="dot" cx="52.29050279329609" cy="170" r="3" fill="#2563eb"></circle><circle class="dot" cx="53.296089385474865" cy="170" r="3" fill="#2563eb"></circle><circle class="dot" cx="54.30167597765363" cy="170" r="3" fill="#2563eb"></circle><circle class="dot" cx="55.3072625698324" cy="170" r="3" fill="#2563eb"></circle><circle class="dot" cx="56.312849162011176" cy="170" r="3" fill="#2563eb"></circle><circle class="dot" cx="57.31843575418994" cy="170" r="3" fill="#2563eb"></circle><circle class="dot" cx="58.324022346368714" cy="170" r="3" fill="#2563eb"></circle><circle class="dot" cx="59.32960893854748" cy="170" r="3" fill="#2563eb"></circle><circle class="dot" cx="60.33519553072625" cy="170" r="3" fill="#2563eb"></circle><circle class="dot" cx="61.340782122905026" cy="170" r="3" fill="#2563eb"></circle><circle class="dot" cx="62.346368715083806" cy="170" r="3" fill="#2563eb"></circle><circle class="dot" cx="63.35195530726257" cy="170" r="3" fill="#2563eb"></circle><circle class="dot" cx="64.35754189944134" cy="170" r="3" fill="#2563eb"></circle><circle class="dot" cx="65.36312849162012" cy="170" r="3" fill="#2563eb"></circle><circle class="dot" cx="66.36871508379889" cy="170" r="3" fill="#2563eb"></circle><circle class="dot" cx="67.37430167597765" cy="170" r="3" fill="#2563eb"></circle><circle class="dot" cx="68.37988826815642" cy="170" r="3" fill="#2563eb"></circle><circle class="dot" cx="69.3854748603352" cy="170" r="3" fill="#2563eb"></circle><circle class="dot" cx="70.39106145251397" cy="170" r="3" fill="#2563eb"></circle><circle class="dot" cx="71.39664804469274" cy="170" r="3" fill="#2563eb"></circle><circle class="dot" cx="72.40223463687151" cy="170" r="3" fill="#2563eb"></circle><circle class="dot" cx="73.40782122905028" cy="170" r="3" fill="#2563eb"></circle><circle class="dot" cx="74.41340782122906" cy="170" r="3" fill="#2563eb"></circle><circle class="dot" cx="75.41899441340782" cy="170" r="3" fill="#2563eb"></circle><circle class="dot" cx="76.42458100558659" cy="170" r="3" fill="#2563eb"></circle><circle class="dot" cx="77.43016759776536" cy="170" r="3" fill="#2563eb"></circle><circle class="dot" cx="78.43575418994413" cy="170" r="3" fill="#2563eb"></circle><circle class="dot" cx="79.44134078212291" cy="170" r="3" fill="#2563eb"></circle><circle class="dot" cx="80.44692737430167" cy="170" r="3" fill="#2563eb"></circle><circle class="dot" cx="81.45251396648045" cy="170" r="3" fill="#2563eb"></circle><circle class="dot" cx="82.45810055865923" cy="170" r="3" fill="#2563eb"></circle><circle class="dot" cx="83.46368715083798" cy="170" r="3" fill="#2563eb"></circle><circle class="dot" cx="84.46927374301676" cy="170" r="3" fill="#2563eb"></circle><circle class="dot" cx="85.47486033519553" cy="170" r="3" fill="#2563eb"></circle><circle class="dot" cx="86.4804469273743" cy="170" r="3" fill="#2563eb"></circle><circle class="dot" cx="87.48603351955308" cy="170" r="3" fill="#2563eb"></circle><circle class="dot" cx="88.49162011173183" cy="170" r="3" fill="#2563eb"></circle><circle class="dot" cx="89.4972067039106" cy="170" r="3" fill="#2563eb"></circle><circle class="dot" cx="90.5027932960894" cy="170" r="3" fill="#2563eb"></circle><circle class="dot" cx="91.50837988826815" cy="170" r="3" fill="#2563eb"></circle><circle class="dot" cx="92.51396648044692" cy="170" r="3" fill="#2563eb"></circle><circle class="dot" cx="93.51955307262568" cy="170" r="3" fill="#2563eb"></circle><circle class="dot" cx="94.52513966480447" cy="170" r="3" fill="#2563eb"></circle><circle class="dot" cx="95.53072625698324" cy="170" r="3" fill="#2563eb"></circle><circle class="dot" cx="96.53631284916202" cy="170" r="3" fill="#2563eb"></circle><circle class="dot" cx="97.54189944134079" cy="170" r="3" fill="#2563eb"></circle><circle class="dot" cx="98.54748603351955" cy="170" r="3" fill="#2563eb"></circle><circle class="dot" cx="99.55307262569833" cy="170" r="3" fill="#2563eb"></circle><circle class="dot" cx="100.55865921787709" cy="170" r="3" fill="#2563eb"></circle><circle class="dot" cx="101.56424581005587" cy="170" r="3" fill="#2563eb"></circle><circle class="dot" cx="102.56983240223462" cy="170" r="3" fill="#2563eb"></circle><circle class="dot" cx="103.57541899441341" cy="170" r="3" fill="#2563eb"></circle><circle class="dot" cx="104.58100558659218" cy="170" r="3" fill="#2563eb"></circle><circle class="dot" cx="105.58659217877094" cy="170" r="3" fill="#2563eb"></circle><circle class="dot" cx="106.59217877094973" cy="170" r="3" fill="#2563eb"></circle><circle class="dot" cx="107.59776536312849" cy="170" r="3" fill="#2563eb"></circle><circle class="dot" cx="108.60335195530726" cy="170" r="3" fill="#2563eb"></circle><circle class="dot" cx="109.60893854748603" cy="170" r="3" fill="#2563eb"></circle><circle class="dot" cx="110.6145251396648" cy="170" r="3" fill="#2563eb"></circle><circle class="dot" cx="111.62011173184356" cy="170" r="3" fill="#2563eb"></circle><circle class="dot" cx="112.62569832402235" cy="170" r="3" fill="#2563eb"></circle><circle class="dot" cx="113.63128491620111" cy="170" r="3" fill="#2563eb"></circle><circle class="dot" cx="114.63687150837988" cy="170" r="3" fill="#2563eb"></circle><circle class="dot" cx="115.64245810055867" cy="170" r="3" fill="#2563eb"></circle><circle class="dot" cx="116.64804469273743" cy="170" r="3" fill="#2563eb"></circle><circle class="dot" cx="117.6536312849162" cy="170" r="3" fill="#2563eb"></circle><circle class="dot" cx="118.65921787709496" cy="170" r="3" fill="#2563eb"></circle><circle class="dot" cx="119.66480446927375" cy="170" r="3" fill="#2563eb"></circle><circle class="dot" cx="120.6703910614525" cy="170" r="3" fill="#2563eb"></circle><circle class="dot" cx="121.67597765363129" cy="170" r="3" fill="#2563eb"></circle><circle class="dot" cx="122.68156424581005" cy="170" r="3" fill="#2563eb"></circle><circle class="dot" cx="123.68715083798882" cy="170" r="3" fill="#2563eb"></circle><circle class="dot" cx="124.69273743016761" cy="170" r="3" fill="#2563eb"></circle><circle class="dot" cx="125.69832402234637" cy="170" r="3" fill="#2563eb"></circle><circle class="dot" cx="126.70391061452514" cy="170" r="3" fill="#2563eb"></circle><circle class="dot" cx="127.7094972067039" cy="170" r="3" fill="#2563eb"></circle><circle class="dot" cx="128.7150837988827" cy="170" r="3" fill="#2563eb"></circle><circle class="dot" cx="129.72067039106145" cy="170" r="3" fill="#2563eb"></circle><circle class="dot" cx="130.72625698324023" cy="170" r="3" fill="#2563eb"></circle><circle class="dot" cx="131.731843575419" cy="170" r="3" fill="#2563eb"></circle><circle class="dot" cx="132.73743016759778" cy="170" r="3" fill="#2563eb"></circle><circle class="dot" cx="133.74301675977654" cy="170" r="3" fill="#2563eb"></circle><circle class="dot" cx="134.7486033519553" cy="170" r="3" fill="#2563eb"></circle><circle class="dot" cx="135.75418994413408" cy="170" r="3" fill="#2563eb"></circle><circle class="dot" cx="136.75977653631284" cy="170" r="3" fill="#2563eb"></circle><circle class="dot" cx="137.76536312849163" cy="170" r="3" fill="#2563eb"></circle><circle class="dot" cx="138.7709497206704" cy="170" r="3" fill="#2563eb"></circle><circle class="dot" cx="139.77653631284917" cy="170" r="3" fill="#2563eb"></circle><circle class="dot" cx="140.78212290502793" cy="170" r="3" fill="#2563eb"></circle><circle class="dot" cx="141.7877094972067" cy="170" r="3" fill="#2563eb"></circle><circle class="dot" cx="142.79329608938548" cy="170" r="3" fill="#2563eb"></circle><circle class="dot" cx="143.79888268156424" cy="170" r="3" fill="#2563eb"></circle><circle class="dot" cx="144.80446927374302" cy="170" r="3" fill="#2563eb"></circle><circle class="dot" cx="145.81005586592178" cy="170" r="3" fill="#2563eb"></circle><circle class="dot" cx="146.81564245810057" cy="170" r="3" fill="#2563eb"></circle><circle class="dot" cx="147.82122905027933" cy="170" r="3" fill="#2563eb"></circle><circle class="dot" cx="148.82681564245812" cy="170" r="3" fill="#2563eb"></circle><circle class="dot" cx="149.83240223463687" cy="170" r="3" fill="#2563eb"></circle><circle class="dot" cx="150.83798882681563" cy="170" r="3" fill="#2563eb"></circle><circle class="dot" cx="151.84357541899442" cy="170" r="3" fill="#2563eb"></circle><circle class="dot" cx="152.84916201117318" cy="170" r="3" fill="#2563eb"></circle><circle class="dot" cx="153.85474860335196" cy="170" r="3" fill="#2563eb"></circle><circle class="dot" cx="154.86033519553072" cy="170" r="3" fill="#2563eb"></circle><circle class="dot" cx="155.8659217877095" cy="170" r="3" fill="#2563eb"></circle><circle class="dot" cx="156.87150837988827" cy="170" r="3" fill="#2563eb"></circle><circle class="dot" cx="157.87709497206706" cy="170" r="3" fill="#2563eb"></circle><circle class="dot" cx="158.88268156424581" cy="170" r="3" fill="#2563eb"></circle><circle class="dot" cx="159.88826815642457" cy="170" r="3" fill="#2563eb"></circle><circle class="dot" cx="160.89385474860333" cy="170" r="3" fill="#2563eb"></circle><circle class="dot" cx="161.89944134078212" cy="170" r="3" fill="#2563eb"></circle><circle class="dot" cx="162.9050279329609" cy="170" r="3" fill="#2563eb"></circle><circle class="dot" cx="163.91061452513966" cy="170" r="3" fill="#2563eb"></circle><circle class="dot" cx="164.91620111731845" cy="170" r="3" fill="#2563eb"></circle><circle class="dot" cx="165.9217877094972" cy="170" r="3" fill="#2563eb"></circle><circle class="dot" cx="166.92737430167597" cy="170" r="3" fill="#2563eb"></circle><circle class="dot" cx="167.93296089385476" cy="170" r="3" fill="#2563eb"></circle><circle class="dot" cx="168.9385474860335" cy="170" r="3" fill="#2563eb"></circle><circle class="dot" cx="169.94413407821227" cy="170" r="3" fill="#2563eb"></circle><circle class="dot" cx="170.94972067039106" cy="170" r="3" fill="#2563eb"></circle><circle class="dot" cx="171.95530726256985" cy="170" r="3" fill="#2563eb"></circle><circle class="dot" cx="172.9608938547486" cy="170" r="3" fill="#2563eb"></circle><circle class="dot" cx="173.9664804469274" cy="170" r="3" fill="#2563eb"></circle><circle class="dot" cx="174.97206703910615" cy="170" r="3" fill="#2563eb"></circle><circle class="dot" cx="175.9776536312849" cy="170" r="3" fill="#2563eb"></circle><circle class="dot" cx="176.98324022346367" cy="170" r="3" fill="#2563eb"></circle><circle class="dot" cx="177.98882681564245" cy="170" r="3" fill="#2563eb"></circle><circle class="dot" cx="178.9944134078212" cy="170" r="3" fill="#2563eb"></circle><circle class="dot" cx="180" cy="170" r="3" fill="#2563eb"></circle><circle class="dot" cx="181.0055865921788" cy="170" r="3" fill="#2563eb"></circle><circle class="dot" cx="182.01117318435757" cy="170" r="3" fill="#2563eb"></circle><circle class="dot" cx="183.0167597765363" cy="170" r="3" fill="#2563eb"></circle><circle class="dot" cx="184.0223463687151" cy="170" r="3" fill="#2563eb"></circle><circle class="dot" cx="185.02793296089385" cy="170" r="3" fill="#2563eb"></circle><circle class="dot" cx="186.03351955307264" cy="170" r="3" fill="#2563eb"></circle><circle class="dot" cx="187.03910614525137" cy="170" r="3" fill="#2563eb"></circle><circle class="dot" cx="188.04469273743015" cy="170" r="3" fill="#2563eb"></circle><circle class="dot" cx="189.05027932960894" cy="170" r="3" fill="#2563eb"></circle><circle class="dot" cx="190.05586592178773" cy="170" r="3" fill="#2563eb"></circle><circle class="dot" cx="191.0614525139665" cy="170" r="3" fill="#2563eb"></circle><circle class="dot" cx="192.06703910614524" cy="170" r="3" fill="#2563eb"></circle><circle class="dot" cx="193.07262569832403" cy="170" r="3" fill="#2563eb"></circle><circle class="dot" cx="194.0782122905028" cy="170" r="3" fill="#2563eb"></circle><circle class="dot" cx="195.08379888268158" cy="170" r="3" fill="#2563eb"></circle><circle class="dot" cx="196.0893854748603" cy="170" r="3" fill="#2563eb"></circle><circle class="dot" cx="197.0949720670391" cy="170" r="3" fill="#2563eb"></circle><circle class="dot" cx="198.10055865921788" cy="170" r="3" fill="#2563eb"></circle><circle class="dot" cx="199.10614525139667" cy="170" r="3" fill="#2563eb"></circle><circle class="dot" cx="200.11173184357543" cy="170" r="3" fill="#2563eb"></circle><circle class="dot" cx="201.11731843575419" cy="170" r="3" fill="#2563eb"></circle><circle class="dot" cx="202.12290502793294" cy="170" r="3" fill="#2563eb"></circle><circle class="dot" cx="203.12849162011173" cy="170" r="3" fill="#2563eb"></circle><circle class="dot" cx="204.13407821229052" cy="170" r="3" fill="#2563eb"></circle><circle class="dot" cx="205.13966480446925" cy="170" r="3" fill="#2563eb"></circle><circle class="dot" cx="206.14525139664804" cy="170" r="3" fill="#2563eb"></circle><circle class="dot" cx="207.15083798882682" cy="170" r="3" fill="#2563eb"></circle><circle class="dot" cx="208.1564245810056" cy="170" r="3" fill="#2563eb"></circle><circle class="dot" cx="209.16201117318437" cy="170" r="3" fill="#2563eb"></circle><circle class="dot" cx="210.16759776536313" cy="170" r="3" fill="#2563eb"></circle><circle class="dot" cx="211.17318435754188" cy="170" r="3" fill="#2563eb"></circle><circle class="dot" cx="212.17877094972067" cy="170" r="3" fill="#2563eb"></circle><circle class="dot" cx="213.18435754189946" cy="170" r="3" fill="#2563eb"></circle><circle class="dot" cx="214.1899441340782" cy="170" r="3" fill="#2563eb"></circle><circle class="dot" cx="215.19553072625698" cy="170" r="3" fill="#2563eb"></circle><circle class="dot" cx="216.20111731843576" cy="170" r="3" fill="#2563eb"></circle><circle class="dot" cx="217.20670391061452" cy="170" r="3" fill="#2563eb"></circle><circle class="dot" cx="218.2122905027933" cy="170" r="3" fill="#2563eb"></circle><circle class="dot" cx="219.21787709497207" cy="170" r="3" fill="#2563eb"></circle><circle class="dot" cx="220.22346368715083" cy="170" r="3" fill="#2563eb"></circle><circle class="dot" cx="221.2290502793296" cy="170" r="3" fill="#2563eb"></circle><circle class="dot" cx="222.2346368715084" cy="170" r="3" fill="#2563eb"></circle><circle class="dot" cx="223.24022346368713" cy="170" r="3" fill="#2563eb"></circle><circle class="dot" cx="224.24581005586592" cy="170" r="3" fill="#2563eb"></circle><circle class="dot" cx="225.2513966480447" cy="170" r="3" fill="#2563eb"></circle><circle class="dot" cx="226.25698324022346" cy="170" r="3" fill="#2563eb"></circle><circle class="dot" cx="227.26256983240222" cy="170" r="3" fill="#2563eb"></circle><circle class="dot" cx="228.268156424581" cy="170" r="3" fill="#2563eb"></circle><circle class="dot" cx="229.27374301675977" cy="170" r="3" fill="#2563eb"></circle><circle class="dot" cx="230.27932960893855" cy="170" r="3" fill="#2563eb"></circle><circle class="dot" cx="231.28491620111734" cy="170" r="3" fill="#2563eb"></circle><circle class="dot" cx="232.29050279329607" cy="170" r="3" fill="#2563eb"></circle><circle class="dot" cx="233.29608938547486" cy="170" r="3" fill="#2563eb"></circle><circle class="dot" cx="234.30167597765364" cy="170" r="3" fill="#2563eb"></circle><circle class="dot" cx="235.3072625698324" cy="170" r="3" fill="#2563eb"></circle><circle class="dot" cx="236.31284916201116" cy="170" r="3" fill="#2563eb"></circle><circle class="dot" cx="237.31843575418992" cy="170" r="3" fill="#2563eb"></circle><circle class="dot" cx="238.3240223463687" cy="170" r="3" fill="#2563eb"></circle><circle class="dot" cx="239.3296089385475" cy="170" r="3" fill="#2563eb"></circle><circle class="dot" cx="240.33519553072628" cy="170" r="3" fill="#2563eb"></circle><circle class="dot" cx="241.340782122905" cy="170" r="3" fill="#2563eb"></circle><circle class="dot" cx="242.3463687150838" cy="170" r="3" fill="#2563eb"></circle><circle class="dot" cx="243.35195530726259" cy="170" r="3" fill="#2563eb"></circle><circle class="dot" cx="244.35754189944134" cy="170" r="3" fill="#2563eb"></circle><circle class="dot" cx="245.3631284916201" cy="170" r="3" fill="#2563eb"></circle><circle class="dot" cx="246.36871508379886" cy="170" r="3" fill="#2563eb"></circle><circle class="dot" cx="247.37430167597765" cy="170" r="3" fill="#2563eb"></circle><circle class="dot" cx="248.37988826815644" cy="170" r="3" fill="#2563eb"></circle><circle class="dot" cx="249.38547486033522" cy="170" r="3" fill="#2563eb"></circle><circle class="dot" cx="250.39106145251395" cy="170" r="3" fill="#2563eb"></circle><circle class="dot" cx="251.39664804469274" cy="170" r="3" fill="#2563eb"></circle><circle class="dot" cx="252.40223463687153" cy="170" r="3" fill="#2563eb"></circle><circle class="dot" cx="253.40782122905028" cy="170" r="3" fill="#2563eb"></circle><circle class="dot" cx="254.41340782122904" cy="170" r="3" fill="#2563eb"></circle><circle class="dot" cx="255.4189944134078" cy="170" r="3" fill="#2563eb"></circle><circle class="dot" cx="256.4245810055866" cy="170" r="3" fill="#2563eb"></circle><circle class="dot" cx="257.4301675977654" cy="170" r="3" fill="#2563eb"></circle><circle class="dot" cx="258.43575418994413" cy="170" r="3" fill="#2563eb"></circle><circle class="dot" cx="259.4413407821229" cy="170" r="3" fill="#2563eb"></circle><circle class="dot" cx="260.44692737430165" cy="170" r="3" fill="#2563eb"></circle><circle class="dot" cx="261.45251396648047" cy="170" r="3" fill="#2563eb"></circle><circle class="dot" cx="262.4581005586592" cy="170" r="3" fill="#2563eb"></circle><circle class="dot" cx="263.463687150838" cy="170" r="3" fill="#2563eb"></circle><circle class="dot" cx="264.46927374301674" cy="170" r="3" fill="#2563eb"></circle><circle class="dot" cx="265.47486033519556" cy="170" r="3" fill="#2563eb"></circle><circle class="dot" cx="266.4804469273743" cy="170" r="3" fill="#2563eb"></circle><circle class="dot" cx="267.4860335195531" cy="170" r="3" fill="#2563eb"></circle><circle class="dot" cx="268.49162011173183" cy="170" r="3" fill="#2563eb"></circle><circle class="dot" cx="269.4972067039106" cy="170" r="3" fill="#2563eb"></circle><circle class="dot" cx="270.5027932960894" cy="170" r="3" fill="#2563eb"></circle><circle class="dot" cx="271.50837988826817" cy="170" r="3" fill="#2563eb"></circle><circle class="dot" cx="272.5139664804469" cy="170" r="3" fill="#2563eb"></circle><circle class="dot" cx="273.5195530726257" cy="170" r="3" fill="#2563eb"></circle><circle class="dot" cx="274.52513966480444" cy="170" r="3" fill="#2563eb"></circle><circle class="dot" cx="275.53072625698326" cy="170" r="3" fill="#2563eb"></circle><circle class="dot" cx="276.536312849162" cy="170" r="3" fill="#2563eb"></circle><circle class="dot" cx="277.5418994413408" cy="170" r="3" fill="#2563eb"></circle><circle class="dot" cx="278.54748603351953" cy="170" r="3" fill="#2563eb"></circle><circle class="dot" cx="279.55307262569835" cy="170" r="3" fill="#2563eb"></circle><circle class="dot" cx="280.5586592178771" cy="170" r="3" fill="#2563eb"></circle><circle class="dot" cx="281.56424581005587" cy="170" r="3" fill="#2563eb"></circle><circle class="dot" cx="282.5698324022346" cy="170" r="3" fill="#2563eb"></circle><circle class="dot" cx="283.5754189944134" cy="170" r="3" fill="#2563eb"></circle><circle class="dot" cx="284.5810055865922" cy="170" r="3" fill="#2563eb"></circle><circle class="dot" cx="285.58659217877096" cy="170" r="3" fill="#2563eb"></circle><circle class="dot" cx="286.5921787709497" cy="170" r="3" fill="#2563eb"></circle><circle class="dot" cx="287.5977653631285" cy="170" r="3" fill="#2563eb"></circle><circle class="dot" cx="288.6033519553073" cy="170" r="3" fill="#2563eb"></circle><circle class="dot" cx="289.60893854748605" cy="170" r="3" fill="#2563eb"></circle><circle class="dot" cx="290.6145251396648" cy="170" r="3" fill="#2563eb"></circle><circle class="dot" cx="291.62011173184356" cy="170" r="3" fill="#2563eb"></circle><circle class="dot" cx="292.6256983240223" cy="170" r="3" fill="#2563eb"></circle><circle class="dot" cx="293.63128491620114" cy="170" r="3" fill="#2563eb"></circle><circle class="dot" cx="294.6368715083799" cy="170" r="3" fill="#2563eb"></circle><circle class="dot" cx="295.64245810055866" cy="170" r="3" fill="#2563eb"></circle><circle class="dot" cx="296.6480446927374" cy="170" r="3" fill="#2563eb"></circle><circle class="dot" cx="297.65363128491623" cy="170" r="3" fill="#2563eb"></circle><circle class="dot" cx="298.659217877095" cy="170" r="3" fill="#2563eb"></circle><circle class="dot" cx="299.66480446927375" cy="170" r="3" fill="#2563eb"></circle><circle class="dot" cx="300.6703910614525" cy="170" r="3" fill="#2563eb"></circle><circle class="dot" cx="301.67597765363126" cy="170" r="3" fill="#2563eb"></circle><circle class="dot" cx="302.6815642458101" cy="170" r="3" fill="#2563eb"></circle><circle class="dot" cx="303.68715083798884" cy="170" r="3" fill="#2563eb"></circle><circle class="dot" cx="304.6927374301676" cy="170" r="3" fill="#2563eb"></circle><circle class="dot" cx="305.69832402234636" cy="170" r="3" fill="#2563eb"></circle><circle class="dot" cx="306.70391061452517" cy="170" r="3" fill="#2563eb"></circle><circle class="dot" cx="307.70949720670393" cy="170" r="3" fill="#2563eb"></circle><circle class="dot" cx="308.7150837988827" cy="170" r="3" fill="#2563eb"></circle><circle class="dot" cx="309.72067039106145" cy="170" r="3" fill="#2563eb"></circle><circle class="dot" cx="310.7262569832402" cy="170" r="3" fill="#2563eb"></circle><circle class="dot" cx="311.731843575419" cy="170" r="3" fill="#2563eb"></circle><circle class="dot" cx="312.7374301675978" cy="170" r="3" fill="#2563eb"></circle><circle class="dot" cx="313.74301675977654" cy="170" r="3" fill="#2563eb"></circle><circle class="dot" cx="314.7486033519553" cy="170" r="3" fill="#2563eb"></circle><circle class="dot" cx="315.7541899441341" cy="170" r="3" fill="#2563eb"></circle><circle class="dot" cx="316.75977653631287" cy="170" r="3" fill="#2563eb"></circle><circle class="dot" cx="317.76536312849163" cy="170" r="3" fill="#2563eb"></circle><circle class="dot" cx="318.7709497206704" cy="170" r="3" fill="#2563eb"></circle><circle class="dot" cx="319.77653631284915" cy="170" r="3" fill="#2563eb"></circle><circle class="dot" cx="320.78212290502796" cy="170" r="3" fill="#2563eb"></circle><circle class="dot" cx="321.78770949720666" cy="170" r="3" fill="#2563eb"></circle><circle class="dot" cx="322.7932960893855" cy="170" r="3" fill="#2563eb"></circle><circle class="dot" cx="323.79888268156424" cy="170" r="3" fill="#2563eb"></circle><circle class="dot" cx="324.80446927374305" cy="170" r="3" fill="#2563eb"></circle><circle class="dot" cx="325.8100558659218" cy="170" r="3" fill="#2563eb"></circle><circle class="dot" cx="326.81564245810057" cy="170" r="3" fill="#2563eb"></circle><circle class="dot" cx="327.8212290502793" cy="170" r="3" fill="#2563eb"></circle><circle class="dot" cx="328.8268156424581" cy="170" r="3" fill="#2563eb"></circle><circle class="dot" cx="329.8324022346369" cy="170" r="3" fill="#2563eb"></circle><circle class="dot" cx="330.8379888268156" cy="170" r="3" fill="#2563eb"></circle><circle class="dot" cx="331.8435754189944" cy="170" r="3" fill="#2563eb"></circle><circle class="dot" cx="332.8491620111732" cy="170" r="3" fill="#2563eb"></circle><circle class="dot" cx="333.85474860335194" cy="170" r="3" fill="#2563eb"></circle><circle class="dot" cx="334.86033519553075" cy="170" r="3" fill="#2563eb"></circle><circle class="dot" cx="335.8659217877095" cy="170" r="3" fill="#2563eb"></circle><circle class="dot" cx="336.87150837988827" cy="170" r="3" fill="#2563eb"></circle><circle class="dot" cx="337.877094972067" cy="170" r="3" fill="#2563eb"></circle><circle class="dot" cx="338.88268156424584" cy="170" r="3" fill="#2563eb"></circle><circle class="dot" cx="339.88826815642454" cy="170" r="3" fill="#2563eb"></circle><circle class="dot" cx="340.89385474860336" cy="170" r="3" fill="#2563eb"></circle><circle class="dot" cx="341.8994413407821" cy="170" r="3" fill="#2563eb"></circle><circle class="dot" cx="342.9050279329609" cy="170" r="3" fill="#2563eb"></circle><circle class="dot" cx="343.9106145251397" cy="170" r="3" fill="#2563eb"></circle><circle class="dot" cx="344.9162011173184" cy="170" r="3" fill="#2563eb"></circle><circle class="dot" cx="345.9217877094972" cy="170" r="3" fill="#2563eb"></circle><circle class="dot" cx="346.92737430167597" cy="170" r="3" fill="#2563eb"></circle><circle class="dot" cx="347.9329608938548" cy="170" r="3" fill="#2563eb"></circle><circle class="dot" cx="348.9385474860335" cy="170" r="3" fill="#2563eb"></circle><circle class="dot" cx="349.9441340782123" cy="170" r="3" fill="#2563eb"></circle><circle class="dot" cx="350.94972067039106" cy="170" r="3" fill="#2563eb"></circle><circle class="dot" cx="351.9553072625698" cy="170" r="3" fill="#2563eb"></circle><circle class="dot" cx="352.96089385474863" cy="170" r="3" fill="#2563eb"></circle><circle class="dot" cx="353.96648044692733" cy="170" r="3" fill="#2563eb"></circle><circle class="dot" cx="354.97206703910615" cy="170" r="3" fill="#2563eb"></circle><circle class="dot" cx="355.9776536312849" cy="170" r="3" fill="#2563eb"></circle><circle class="dot" cx="356.9832402234637" cy="170" r="3" fill="#2563eb"></circle><circle class="dot" cx="357.9888268156424" cy="170" r="3" fill="#2563eb"></circle><circle class="dot" cx="358.99441340782124" cy="170" r="3" fill="#2563eb"></circle><circle class="dot" cx="360" cy="170" r="3" fill="#2563eb"></circle><circle class="dot" cx="361.00558659217876" cy="170" r="3" fill="#2563eb"></circle><circle class="dot" cx="362.0111731843576" cy="170" r="3" fill="#2563eb"></circle><circle class="dot" cx="363.01675977653633" cy="170" r="3" fill="#2563eb"></circle><circle class="dot" cx="364.02234636871515" cy="170" r="3" fill="#2563eb"></circle><circle class="dot" cx="365.0279329608938" cy="170" r="3" fill="#2563eb"></circle><circle class="dot" cx="366.0335195530726" cy="170" r="3" fill="#2563eb"></circle><circle class="dot" cx="367.03910614525137" cy="170" r="3" fill="#2563eb"></circle><circle class="dot" cx="368.0446927374302" cy="170" r="3" fill="#2563eb"></circle><circle class="dot" cx="369.05027932960894" cy="170" r="3" fill="#2563eb"></circle><circle class="dot" cx="370.0558659217877" cy="170" r="3" fill="#2563eb"></circle><circle class="dot" cx="371.0614525139665" cy="170" r="3" fill="#2563eb"></circle><circle class="dot" cx="372.0670391061453" cy="170" r="3" fill="#2563eb"></circle><circle class="dot" cx="373.07262569832403" cy="170" r="3" fill="#2563eb"></circle><circle class="dot" cx="374.07821229050273" cy="170" r="3" fill="#2563eb"></circle><circle class="dot" cx="375.08379888268155" cy="170" r="3" fill="#2563eb"></circle><circle class="dot" cx="376.0893854748603" cy="170" r="3" fill="#2563eb"></circle><circle class="dot" cx="377.0949720670391" cy="170" r="3" fill="#2563eb"></circle><circle class="dot" cx="378.1005586592179" cy="170" r="3" fill="#2563eb"></circle><circle class="dot" cx="379.10614525139664" cy="170" r="3" fill="#2563eb"></circle><circle class="dot" cx="380.11173184357546" cy="170" r="3" fill="#2563eb"></circle><circle class="dot" cx="381.1173184357542" cy="170" r="3" fill="#2563eb"></circle><circle class="dot" cx="382.122905027933" cy="170" r="3" fill="#2563eb"></circle><circle class="dot" cx="383.1284916201117" cy="170" r="3" fill="#2563eb"></circle><circle class="dot" cx="384.1340782122905" cy="170" r="3" fill="#2563eb"></circle><circle class="dot" cx="385.13966480446925" cy="170" r="3" fill="#2563eb"></circle><circle class="dot" cx="386.14525139664806" cy="170" r="3" fill="#2563eb"></circle><circle class="dot" cx="387.1508379888268" cy="170" r="3" fill="#2563eb"></circle><circle class="dot" cx="388.1564245810056" cy="170" r="3" fill="#2563eb"></circle><circle class="dot" cx="389.1620111731844" cy="170" r="3" fill="#2563eb"></circle><circle class="dot" cx="390.16759776536315" cy="170" r="3" fill="#2563eb"></circle><circle class="dot" cx="391.1731843575419" cy="170" r="3" fill="#2563eb"></circle><circle class="dot" cx="392.1787709497206" cy="170" r="3" fill="#2563eb"></circle><circle class="dot" cx="393.18435754189943" cy="170" r="3" fill="#2563eb"></circle><circle class="dot" cx="394.1899441340782" cy="170" r="3" fill="#2563eb"></circle><circle class="dot" cx="395.19553072625695" cy="170" r="3" fill="#2563eb"></circle><circle class="dot" cx="396.20111731843576" cy="170" r="3" fill="#2563eb"></circle><circle class="dot" cx="397.2067039106145" cy="170" r="3" fill="#2563eb"></circle><circle class="dot" cx="398.21229050279334" cy="170" r="3" fill="#2563eb"></circle><circle class="dot" cx="399.2178770949721" cy="170" r="3" fill="#2563eb"></circle><circle class="dot" cx="400.22346368715085" cy="170" r="3" fill="#2563eb"></circle><circle class="dot" cx="401.22905027932956" cy="170" r="3" fill="#2563eb"></circle><circle class="dot" cx="402.23463687150837" cy="170" r="3" fill="#2563eb"></circle><circle class="dot" cx="403.24022346368713" cy="170" r="3" fill="#2563eb"></circle><circle class="dot" cx="404.2458100558659" cy="170" r="3" fill="#2563eb"></circle><circle class="dot" cx="405.2513966480447" cy="170" r="3" fill="#2563eb"></circle><circle class="dot" cx="406.25698324022346" cy="170" r="3" fill="#2563eb"></circle><circle class="dot" cx="407.2625698324023" cy="170" r="3" fill="#2563eb"></circle><circle class="dot" cx="408.26815642458104" cy="170" r="3" fill="#2563eb"></circle><circle class="dot" cx="409.2737430167598" cy="170" r="3" fill="#2563eb"></circle><circle class="dot" cx="410.2793296089385" cy="170" r="3" fill="#2563eb"></circle><circle class="dot" cx="411.2849162011173" cy="170" r="3" fill="#2563eb"></circle><circle class="dot" cx="412.29050279329607" cy="170" r="3" fill="#2563eb"></circle><circle class="dot" cx="413.29608938547483" cy="170" r="3" fill="#2563eb"></circle><circle class="dot" cx="414.30167597765364" cy="170" r="3" fill="#2563eb"></circle><circle class="dot" cx="415.3072625698324" cy="170" r="3" fill="#2563eb"></circle><circle class="dot" cx="416.3128491620112" cy="170" r="3" fill="#2563eb"></circle><circle class="dot" cx="417.31843575419" cy="170" r="3" fill="#2563eb"></circle><circle class="dot" cx="418.32402234636874" cy="170" r="3" fill="#2563eb"></circle><circle class="dot" cx="419.32960893854744" cy="170" r="3" fill="#2563eb"></circle><circle class="dot" cx="420.33519553072625" cy="170" r="3" fill="#2563eb"></circle><circle class="dot" cx="421.340782122905" cy="170" r="3" fill="#2563eb"></circle><circle class="dot" cx="422.34636871508377" cy="170" r="3" fill="#2563eb"></circle><circle class="dot" cx="423.3519553072626" cy="170" r="3" fill="#2563eb"></circle><circle class="dot" cx="424.35754189944134" cy="170" r="3" fill="#2563eb"></circle><circle class="dot" cx="425.36312849162016" cy="170" r="3" fill="#2563eb"></circle><circle class="dot" cx="426.3687150837989" cy="170" r="3" fill="#2563eb"></circle><circle class="dot" cx="427.3743016759777" cy="170" r="3" fill="#2563eb"></circle><circle class="dot" cx="428.3798882681564" cy="170" r="3" fill="#2563eb"></circle><circle class="dot" cx="429.3854748603352" cy="170" r="3" fill="#2563eb"></circle><circle class="dot" cx="430.39106145251395" cy="170" r="3" fill="#2563eb"></circle><circle class="dot" cx="431.3966480446927" cy="170" r="3" fill="#2563eb"></circle><circle class="dot" cx="432.4022346368715" cy="170" r="3" fill="#2563eb"></circle><circle class="dot" cx="433.4078212290503" cy="170" r="3" fill="#2563eb"></circle><circle class="dot" cx="434.41340782122904" cy="170" r="3" fill="#2563eb"></circle><circle class="dot" cx="435.41899441340786" cy="170" r="3" fill="#2563eb"></circle><circle class="dot" cx="436.4245810055866" cy="170" r="3" fill="#2563eb"></circle><circle class="dot" cx="437.4301675977653" cy="170" r="3" fill="#2563eb"></circle><circle class="dot" cx="438.43575418994413" cy="170" r="3" fill="#2563eb"></circle><circle class="dot" cx="439.4413407821229" cy="170" r="3" fill="#2563eb"></circle><circle class="dot" cx="440.44692737430165" cy="170" r="3" fill="#2563eb"></circle><circle class="dot" cx="441.45251396648047" cy="170" r="3" fill="#2563eb"></circle><circle class="dot" cx="442.4581005586592" cy="170" r="3" fill="#2563eb"></circle><circle class="dot" cx="443.463687150838" cy="170" r="3" fill="#2563eb"></circle><circle class="dot" cx="444.4692737430168" cy="170" r="3" fill="#2563eb"></circle><circle class="dot" cx="445.47486033519556" cy="170" r="3" fill="#2563eb"></circle><circle class="dot" cx="446.48044692737426" cy="170" r="3" fill="#2563eb"></circle><circle class="dot" cx="447.4860335195531" cy="170" r="3" fill="#2563eb"></circle><circle class="dot" cx="448.49162011173183" cy="170" r="3" fill="#2563eb"></circle><circle class="dot" cx="449.4972067039106" cy="170" r="3" fill="#2563eb"></circle><circle class="dot" cx="450.5027932960894" cy="170" r="3" fill="#2563eb"></circle><circle class="dot" cx="451.50837988826817" cy="170" r="3" fill="#2563eb"></circle><circle class="dot" cx="452.5139664804469" cy="170" r="3" fill="#2563eb"></circle><circle class="dot" cx="453.51955307262574" cy="170" r="3" fill="#2563eb"></circle><circle class="dot" cx="454.52513966480444" cy="170" r="3" fill="#2563eb"></circle><circle class="dot" cx="455.5307262569832" cy="170" r="3" fill="#2563eb"></circle><circle class="dot" cx="456.536312849162" cy="170" r="3" fill="#2563eb"></circle><circle class="dot" cx="457.5418994413408" cy="170" r="3" fill="#2563eb"></circle><circle class="dot" cx="458.54748603351953" cy="170" r="3" fill="#2563eb"></circle><circle class="dot" cx="459.55307262569835" cy="170" r="3" fill="#2563eb"></circle><circle class="dot" cx="460.5586592178771" cy="170" r="3" fill="#2563eb"></circle><circle class="dot" cx="461.56424581005587" cy="170" r="3" fill="#2563eb"></circle><circle class="dot" cx="462.5698324022347" cy="170" r="3" fill="#2563eb"></circle><circle class="dot" cx="463.5754189944134" cy="170" r="3" fill="#2563eb"></circle><circle class="dot" cx="464.58100558659214" cy="170" r="3" fill="#2563eb"></circle><circle class="dot" cx="465.58659217877096" cy="170" r="3" fill="#2563eb"></circle><circle class="dot" cx="466.5921787709497" cy="170" r="3" fill="#2563eb"></circle><circle class="dot" cx="467.5977653631285" cy="170" r="3" fill="#2563eb"></circle><circle class="dot" cx="468.6033519553073" cy="170" r="3" fill="#2563eb"></circle><circle class="dot" cx="469.60893854748605" cy="170" r="3" fill="#2563eb"></circle><circle class="dot" cx="470.6145251396648" cy="170" r="3" fill="#2563eb"></circle><circle class="dot" cx="471.6201117318436" cy="170" r="3" fill="#2563eb"></circle><circle class="dot" cx="472.6256983240223" cy="170" r="3" fill="#2563eb"></circle><circle class="dot" cx="473.6312849162011" cy="170" r="3" fill="#2563eb"></circle><circle class="dot" cx="474.63687150837984" cy="170" r="3" fill="#2563eb"></circle><circle class="dot" cx="475.64245810055866" cy="170" r="3" fill="#2563eb"></circle><circle class="dot" cx="476.6480446927374" cy="170" r="3" fill="#2563eb"></circle><circle class="dot" cx="477.65363128491623" cy="170" r="3" fill="#2563eb"></circle><circle class="dot" cx="478.659217877095" cy="170" r="3" fill="#2563eb"></circle><circle class="dot" cx="479.66480446927375" cy="170" r="3" fill="#2563eb"></circle><circle class="dot" cx="480.67039106145256" cy="170" r="3" fill="#2563eb"></circle><circle class="dot" cx="481.67597765363126" cy="170" r="3" fill="#2563eb"></circle><circle class="dot" cx="482.68156424581" cy="170" r="3" fill="#2563eb"></circle><circle class="dot" cx="483.6871508379888" cy="170" r="3" fill="#2563eb"></circle><circle class="dot" cx="484.6927374301676" cy="170" r="3" fill="#2563eb"></circle><circle class="dot" cx="485.69832402234636" cy="170" r="3" fill="#2563eb"></circle><circle class="dot" cx="486.70391061452517" cy="170" r="3" fill="#2563eb"></circle><circle class="dot" cx="487.70949720670393" cy="170" r="3" fill="#2563eb"></circle><circle class="dot" cx="488.7150837988827" cy="170" r="3" fill="#2563eb"></circle><circle class="dot" cx="489.7206703910615" cy="170" r="3" fill="#2563eb"></circle><circle class="dot" cx="490.7262569832402" cy="170" r="3" fill="#2563eb"></circle><circle class="dot" cx="491.73184357541896" cy="170" r="3" fill="#2563eb"></circle><circle class="dot" cx="492.7374301675977" cy="170" r="3" fill="#2563eb"></circle><circle class="dot" cx="493.74301675977654" cy="170" r="3" fill="#2563eb"></circle><circle class="dot" cx="494.7486033519553" cy="170" r="3" fill="#2563eb"></circle><circle class="dot" cx="495.7541899441341" cy="170" r="3" fill="#2563eb"></circle><circle class="dot" cx="496.75977653631287" cy="170" r="3" fill="#2563eb"></circle><circle class="dot" cx="497.76536312849163" cy="170" r="3" fill="#2563eb"></circle><circle class="dot" cx="498.77094972067044" cy="170" r="3" fill="#2563eb"></circle><circle class="dot" cx="499.77653631284915" cy="170" r="3" fill="#2563eb"></circle><circle class="dot" cx="500.7821229050279" cy="170" r="3" fill="#2563eb"></circle><circle class="dot" cx="501.78770949720666" cy="170" r="3" fill="#2563eb"></circle><circle class="dot" cx="502.7932960893855" cy="170" r="3" fill="#2563eb"></circle><circle class="dot" cx="503.79888268156424" cy="170" r="3" fill="#2563eb"></circle><circle class="dot" cx="504.80446927374305" cy="170" r="3" fill="#2563eb"></circle><circle class="dot" cx="505.8100558659218" cy="170" r="3" fill="#2563eb"></circle><circle class="dot" cx="506.81564245810057" cy="170" r="3" fill="#2563eb"></circle><circle class="dot" cx="507.8212290502794" cy="170" r="3" fill="#2563eb"></circle><circle class="dot" cx="508.8268156424581" cy="170" r="3" fill="#2563eb"></circle><circle class="dot" cx="509.83240223463685" cy="170" r="3" fill="#2563eb"></circle><circle class="dot" cx="510.8379888268156" cy="170" r="3" fill="#2563eb"></circle><circle class="dot" cx="511.8435754189944" cy="170" r="3" fill="#2563eb"></circle><circle class="dot" cx="512.8491620111732" cy="170" r="3" fill="#2563eb"></circle><circle class="dot" cx="513.8547486033519" cy="170" r="3" fill="#2563eb"></circle><circle class="dot" cx="514.8603351955308" cy="170" r="3" fill="#2563eb"></circle><circle class="dot" cx="515.8659217877096" cy="170" r="3" fill="#2563eb"></circle><circle class="dot" cx="516.8715083798883" cy="170" r="3" fill="#2563eb"></circle><circle class="dot" cx="517.877094972067" cy="170" r="3" fill="#2563eb"></circle><circle class="dot" cx="518.8826815642458" cy="170" r="3" fill="#2563eb"></circle><circle class="dot" cx="519.8882681564246" cy="170" r="3" fill="#2563eb"></circle><circle class="dot" cx="520.8938547486033" cy="170" r="3" fill="#2563eb"></circle><circle class="dot" cx="521.8994413407821" cy="170" r="3" fill="#2563eb"></circle><circle class="dot" cx="522.9050279329609" cy="170" r="3" fill="#2563eb"></circle><circle class="dot" cx="523.9106145251396" cy="170" r="3" fill="#2563eb"></circle><circle class="dot" cx="524.9162011173185" cy="170" r="3" fill="#2563eb"></circle><circle class="dot" cx="525.9217877094973" cy="170" r="3" fill="#2563eb"></circle><circle class="dot" cx="526.927374301676" cy="170" r="3" fill="#2563eb"></circle><circle class="dot" cx="527.9329608938547" cy="170" r="3" fill="#2563eb"></circle><circle class="dot" cx="528.9385474860335" cy="170" r="3" fill="#2563eb"></circle><circle class="dot" cx="529.9441340782123" cy="170" r="3" fill="#2563eb"></circle><circle class="dot" cx="530.9497206703911" cy="170" r="3" fill="#2563eb"></circle><circle class="dot" cx="531.9553072625698" cy="170" r="3" fill="#2563eb"></circle><circle class="dot" cx="532.9608938547486" cy="170" r="3" fill="#2563eb"></circle><circle class="dot" cx="533.9664804469274" cy="170" r="3" fill="#2563eb"></circle><circle class="dot" cx="534.9720670391062" cy="170" r="3" fill="#2563eb"></circle><circle class="dot" cx="535.9776536312849" cy="170" r="3" fill="#2563eb"></circle><circle class="dot" cx="536.9832402234637" cy="170" r="3" fill="#2563eb"></circle><circle class="dot" cx="537.9888268156425" cy="170" r="3" fill="#2563eb"></circle><circle class="dot" cx="538.9944134078212" cy="170" r="3" fill="#2563eb"></circle><circle class="dot" cx="540" cy="170" r="3" fill="#2563eb"></circle><circle class="dot" cx="541.0055865921788" cy="170" r="3" fill="#2563eb"></circle><circle class="dot" cx="542.0111731843575" cy="170" r="3" fill="#2563eb"></circle><circle class="dot" cx="543.0167597765363" cy="170" r="3" fill="#2563eb"></circle><circle class="dot" cx="544.0223463687151" cy="170" r="3" fill="#2563eb"></circle><circle class="dot" cx="545.0279329608938" cy="170" r="3" fill="#2563eb"></circle><circle class="dot" cx="546.0335195530726" cy="170" r="3" fill="#2563eb"></circle><circle class="dot" cx="547.0391061452514" cy="170" r="3" fill="#2563eb"></circle><circle class="dot" cx="548.0446927374302" cy="170" r="3" fill="#2563eb"></circle><circle class="dot" cx="549.0502793296089" cy="170" r="3" fill="#2563eb"></circle><circle class="dot" cx="550.0558659217877" cy="170" r="3" fill="#2563eb"></circle><circle class="dot" cx="551.0614525139665" cy="170" r="3" fill="#2563eb"></circle><circle class="dot" cx="552.0670391061453" cy="170" r="3" fill="#2563eb"></circle><circle class="dot" cx="553.072625698324" cy="170" r="3" fill="#2563eb"></circle><circle class="dot" cx="554.0782122905027" cy="170" r="3" fill="#2563eb"></circle><circle class="dot" cx="555.0837988826815" cy="170" r="3" fill="#2563eb"></circle><circle class="dot" cx="556.0893854748604" cy="170" r="3" fill="#2563eb"></circle><circle class="dot" cx="557.0949720670391" cy="170" r="3" fill="#2563eb"></circle><circle class="dot" cx="558.1005586592179" cy="170" r="3" fill="#2563eb"></circle><circle class="dot" cx="559.1061452513967" cy="170" r="3" fill="#2563eb"></circle><circle class="dot" cx="560.1117318435754" cy="170" r="3" fill="#2563eb"></circle><circle class="dot" cx="561.1173184357542" cy="170" r="3" fill="#2563eb"></circle><circle class="dot" cx="562.122905027933" cy="170" r="3" fill="#2563eb"></circle><circle class="dot" cx="563.1284916201117" cy="170" r="3" fill="#2563eb"></circle><circle class="dot" cx="564.1340782122904" cy="170" r="3" fill="#2563eb"></circle><circle class="dot" cx="565.1396648044692" cy="170" r="3" fill="#2563eb"></circle><circle class="dot" cx="566.1452513966481" cy="170" r="3" fill="#2563eb"></circle><circle class="dot" cx="567.1508379888268" cy="170" r="3" fill="#2563eb"></circle><circle class="dot" cx="568.1564245810056" cy="170" r="3" fill="#2563eb"></circle><circle class="dot" cx="569.1620111731844" cy="170" r="3" fill="#2563eb"></circle><circle class="dot" cx="570.1675977653632" cy="170" r="3" fill="#2563eb"></circle><circle class="dot" cx="571.1731843575419" cy="170" r="3" fill="#2563eb"></circle><circle class="dot" cx="572.1787709497206" cy="170" r="3" fill="#2563eb"></circle><circle class="dot" cx="573.1843575418994" cy="170" r="3" fill="#2563eb"></circle><circle class="dot" cx="574.1899441340782" cy="170" r="3" fill="#2563eb"></circle><circle class="dot" cx="575.195530726257" cy="170" r="3" fill="#2563eb"></circle><circle class="dot" cx="576.2011173184358" cy="170" r="3" fill="#2563eb"></circle><circle class="dot" cx="577.2067039106146" cy="170" r="3" fill="#2563eb"></circle><circle class="dot" cx="578.2122905027933" cy="170" r="3" fill="#2563eb"></circle><circle class="dot" cx="579.2178770949721" cy="170" r="3" fill="#2563eb"></circle><circle class="dot" cx="580.2234636871509" cy="170" r="3" fill="#2563eb"></circle><circle class="dot" cx="581.2290502793296" cy="170" r="3" fill="#2563eb"></circle><circle class="dot" cx="582.2346368715083" cy="170" r="3" fill="#2563eb"></circle><circle class="dot" cx="583.2402234636871" cy="170" r="3" fill="#2563eb"></circle><circle class="dot" cx="584.245810055866" cy="170" r="3" fill="#2563eb"></circle><circle class="dot" cx="585.2513966480446" cy="170" r="3" fill="#2563eb"></circle><circle class="dot" cx="586.2569832402235" cy="170" r="3" fill="#2563eb"></circle><circle class="dot" cx="587.2625698324023" cy="170" r="3" fill="#2563eb"></circle><circle class="dot" cx="588.268156424581" cy="170" r="3" fill="#2563eb"></circle><circle class="dot" cx="589.2737430167598" cy="170" r="3" fill="#2563eb"></circle><circle class="dot" cx="590.2793296089385" cy="170" r="3" fill="#2563eb"></circle><circle class="dot" cx="591.2849162011173" cy="170" r="3" fill="#2563eb"></circle><circle class="dot" cx="592.2905027932961" cy="170" r="3" fill="#2563eb"></circle><circle class="dot" cx="593.2960893854748" cy="170" r="3" fill="#2563eb"></circle><circle class="dot" cx="594.3016759776536" cy="170" r="3" fill="#2563eb"></circle><circle class="dot" cx="595.3072625698325" cy="170" r="3" fill="#2563eb"></circle><circle class="dot" cx="596.3128491620112" cy="170" r="3" fill="#2563eb"></circle><circle class="dot" cx="597.31843575419" cy="170" r="3" fill="#2563eb"></circle><circle class="dot" cx="598.3240223463688" cy="170" r="3" fill="#2563eb"></circle><circle class="dot" cx="599.3296089385475" cy="170" r="3" fill="#2563eb"></circle><circle class="dot" cx="600.3351955307262" cy="170" r="3" fill="#2563eb"></circle><circle class="dot" cx="601.340782122905" cy="170" r="3" fill="#2563eb"></circle><circle class="dot" cx="602.3463687150838" cy="170" r="3" fill="#2563eb"></circle><circle class="dot" cx="603.3519553072625" cy="170" r="3" fill="#2563eb"></circle><circle class="dot" cx="604.3575418994413" cy="170" r="3" fill="#2563eb"></circle><circle class="dot" cx="605.3631284916202" cy="170" r="3" fill="#2563eb"></circle><circle class="dot" cx="606.3687150837989" cy="170" r="3" fill="#2563eb"></circle><circle class="dot" cx="607.3743016759777" cy="170" r="3" fill="#2563eb"></circle><circle class="dot" cx="608.3798882681564" cy="170" r="3" fill="#2563eb"></circle><circle class="dot" cx="609.3854748603352" cy="170" r="3" fill="#2563eb"></circle><circle class="dot" cx="610.3910614525139" cy="170" r="3" fill="#2563eb"></circle><circle class="dot" cx="611.3966480446927" cy="170" r="3" fill="#2563eb"></circle><circle class="dot" cx="612.4022346368715" cy="170" r="3" fill="#2563eb"></circle><circle class="dot" cx="613.4078212290503" cy="170" r="3" fill="#2563eb"></circle><circle class="dot" cx="614.413407821229" cy="170" r="3" fill="#2563eb"></circle><circle class="dot" cx="615.4189944134079" cy="170" r="3" fill="#2563eb"></circle><circle class="dot" cx="616.4245810055867" cy="170" r="3" fill="#2563eb"></circle><circle class="dot" cx="617.4301675977654" cy="170" r="3" fill="#2563eb"></circle><circle class="dot" cx="618.4357541899441" cy="170" r="3" fill="#2563eb"></circle><circle class="dot" cx="619.4413407821229" cy="170" r="3" fill="#2563eb"></circle><circle class="dot" cx="620.4469273743017" cy="170" r="3" fill="#2563eb"></circle><circle class="dot" cx="621.4525139664804" cy="170" r="3" fill="#2563eb"></circle><circle class="dot" cx="622.4581005586592" cy="170" r="3" fill="#2563eb"></circle><circle class="dot" cx="623.463687150838" cy="170" r="3" fill="#2563eb"></circle><circle class="dot" cx="624.4692737430167" cy="170" r="3" fill="#2563eb"></circle><circle class="dot" cx="625.4748603351956" cy="170" r="3" fill="#2563eb"></circle><circle class="dot" cx="626.4804469273743" cy="170" r="3" fill="#2563eb"></circle><circle class="dot" cx="627.4860335195531" cy="170" r="3" fill="#2563eb"></circle><circle class="dot" cx="628.4916201117318" cy="170" r="3" fill="#2563eb"></circle><circle class="dot" cx="629.4972067039106" cy="170" r="3" fill="#2563eb"></circle><circle class="dot" cx="630.5027932960894" cy="170" r="3" fill="#2563eb"></circle><circle class="dot" cx="631.5083798882682" cy="170" r="3" fill="#2563eb"></circle><circle class="dot" cx="632.5139664804469" cy="170" r="3" fill="#2563eb"></circle><circle class="dot" cx="633.5195530726257" cy="170" r="3" fill="#2563eb"></circle><circle class="dot" cx="634.5251396648044" cy="170" r="3" fill="#2563eb"></circle><circle class="dot" cx="635.5307262569833" cy="170" r="3" fill="#2563eb"></circle><circle class="dot" cx="636.536312849162" cy="170" r="3" fill="#2563eb"></circle><circle class="dot" cx="637.5418994413408" cy="170" r="3" fill="#2563eb"></circle><circle class="dot" cx="638.5474860335196" cy="170" r="3" fill="#2563eb"></circle><circle class="dot" cx="639.5530726256983" cy="170" r="3" fill="#2563eb"></circle><circle class="dot" cx="640.5586592178771" cy="170" r="3" fill="#2563eb"></circle><circle class="dot" cx="641.5642458100559" cy="170" r="3" fill="#2563eb"></circle><circle class="dot" cx="642.5698324022346" cy="170" r="3" fill="#2563eb"></circle><circle class="dot" cx="643.5754189944133" cy="170" r="3" fill="#2563eb"></circle><circle class="dot" cx="644.5810055865921" cy="170" r="3" fill="#2563eb"></circle><circle class="dot" cx="645.586592178771" cy="170" r="3" fill="#2563eb"></circle><circle class="dot" cx="646.5921787709497" cy="170" r="3" fill="#2563eb"></circle><circle class="dot" cx="647.5977653631285" cy="170" r="3" fill="#2563eb"></circle><circle class="dot" cx="648.6033519553073" cy="170" r="3" fill="#2563eb"></circle><circle class="dot" cx="649.6089385474861" cy="170" r="3" fill="#2563eb"></circle><circle class="dot" cx="650.6145251396648" cy="170" r="3" fill="#2563eb"></circle><circle class="dot" cx="651.6201117318436" cy="170" r="3" fill="#2563eb"></circle><circle class="dot" cx="652.6256983240223" cy="170" r="3" fill="#2563eb"></circle><circle class="dot" cx="653.6312849162011" cy="170" r="3" fill="#2563eb"></circle><circle class="dot" cx="654.6368715083798" cy="170" r="3" fill="#2563eb"></circle><circle class="dot" cx="655.6424581005587" cy="170" r="3" fill="#2563eb"></circle><circle class="dot" cx="656.6480446927375" cy="170" r="3" fill="#2563eb"></circle><circle class="dot" cx="657.6536312849162" cy="170" r="3" fill="#2563eb"></circle><circle class="dot" cx="658.659217877095" cy="170" r="3" fill="#2563eb"></circle><circle class="dot" cx="659.6648044692738" cy="170" r="3" fill="#2563eb"></circle><circle class="dot" cx="660.6703910614525" cy="170" r="3" fill="#2563eb"></circle><circle class="dot" cx="661.6759776536312" cy="170" r="3" fill="#2563eb"></circle><circle class="dot" cx="662.68156424581" cy="170" r="3" fill="#2563eb"></circle><circle class="dot" cx="663.6871508379888" cy="170" r="3" fill="#2563eb"></circle><circle class="dot" cx="664.6927374301675" cy="170" r="3" fill="#2563eb"></circle><circle class="dot" cx="665.6983240223464" cy="170" r="3" fill="#2563eb"></circle><circle class="dot" cx="666.7039106145252" cy="170" r="3" fill="#2563eb"></circle><circle class="dot" cx="667.7094972067039" cy="170" r="3" fill="#2563eb"></circle><circle class="dot" cx="668.7150837988827" cy="170" r="3" fill="#2563eb"></circle><circle class="dot" cx="669.7206703910615" cy="170" r="3" fill="#2563eb"></circle><circle class="dot" cx="670.7262569832402" cy="170" r="3" fill="#2563eb"></circle><circle class="dot" cx="671.731843575419" cy="170" r="3" fill="#2563eb"></circle><circle class="dot" cx="672.7374301675977" cy="170" r="3" fill="#2563eb"></circle><circle class="dot" cx="673.7430167597765" cy="170" r="3" fill="#2563eb"></circle><circle class="dot" cx="674.7486033519554" cy="170" r="3" fill="#2563eb"></circle><circle class="dot" cx="675.754189944134" cy="170" r="3" fill="#2563eb"></circle><circle class="dot" cx="676.7597765363129" cy="170" r="3" fill="#2563eb"></circle><circle class="dot" cx="677.7653631284917" cy="170" r="3" fill="#2563eb"></circle><circle class="dot" cx="678.7709497206704" cy="170" r="3" fill="#2563eb"></circle><circle class="dot" cx="679.7765363128491" cy="170" r="3" fill="#2563eb"></circle><circle class="dot" cx="680.7821229050279" cy="170" r="3" fill="#2563eb"></circle><circle class="dot" cx="681.7877094972067" cy="170" r="3" fill="#2563eb"></circle><circle class="dot" cx="682.7932960893854" cy="170" r="3" fill="#2563eb"></circle><circle class="dot" cx="683.7988826815642" cy="170" r="3" fill="#2563eb"></circle><circle class="dot" cx="684.804469273743" cy="170" r="3" fill="#2563eb"></circle><circle class="dot" cx="685.8100558659218" cy="170" r="3" fill="#2563eb"></circle><circle class="dot" cx="686.8156424581006" cy="170" r="3" fill="#2563eb"></circle><circle class="dot" cx="687.8212290502794" cy="170" r="3" fill="#2563eb"></circle><circle class="dot" cx="688.8268156424581" cy="170" r="3" fill="#2563eb"></circle><circle class="dot" cx="689.8324022346368" cy="170" r="3" fill="#2563eb"></circle><circle class="dot" cx="690.8379888268156" cy="170" r="3" fill="#2563eb"></circle><circle class="dot" cx="691.8435754189944" cy="170" r="3" fill="#2563eb"></circle><circle class="dot" cx="692.8491620111732" cy="170" r="3" fill="#2563eb"></circle><circle class="dot" cx="693.8547486033519" cy="170" r="3" fill="#2563eb"></circle><circle class="dot" cx="694.8603351955308" cy="170" r="3" fill="#2563eb"></circle><circle class="dot" cx="695.8659217877096" cy="170" r="3" fill="#2563eb"></circle><circle class="dot" cx="696.8715083798883" cy="170" r="3" fill="#2563eb"></circle><circle class="dot" cx="697.877094972067" cy="170" r="3" fill="#2563eb"></circle><circle class="dot" cx="698.8826815642458" cy="170" r="3" fill="#2563eb"></circle><circle class="dot" cx="699.8882681564246" cy="170" r="3" fill="#2563eb"></circle><circle class="dot" cx="700.8938547486033" cy="170" r="3" fill="#2563eb"></circle><circle class="dot" cx="701.8994413407821" cy="170" r="3" fill="#2563eb"></circle><circle class="dot" cx="702.9050279329609" cy="170" r="3" fill="#2563eb"></circle><circle class="dot" cx="703.9106145251396" cy="170" r="3" fill="#2563eb"></circle><circle class="dot" cx="704.9162011173185" cy="170" r="3" fill="#2563eb"></circle><circle class="dot" cx="705.9217877094973" cy="170" r="3" fill="#2563eb"></circle><circle class="dot" cx="706.927374301676" cy="170" r="3" fill="#2563eb"></circle><circle class="dot" cx="707.9329608938547" cy="170" r="3" fill="#2563eb"></circle><circle class="dot" cx="708.9385474860335" cy="170" r="3" fill="#2563eb"></circle><circle class="dot" cx="709.9441340782123" cy="170" r="3" fill="#2563eb"></circle><circle class="dot" cx="710.9497206703911" cy="170" r="3" fill="#2563eb"></circle><circle class="dot" cx="711.9553072625698" cy="170" r="3" fill="#2563eb"></circle><circle class="dot" cx="712.9608938547486" cy="170" r="3" fill="#2563eb"></circle><circle class="dot" cx="713.9664804469274" cy="170" r="3" fill="#2563eb"></circle><circle class="dot" cx="714.9720670391062" cy="170" r="3" fill="#2563eb"></circle><circle class="dot" cx="715.9776536312849" cy="170" r="3" fill="#2563eb"></circle><circle class="dot" cx="716.9832402234637" cy="170" r="3" fill="#2563eb"></circle><circle class="dot" cx="717.9888268156425" cy="170" r="3" fill="#2563eb"></circle><circle class="dot" cx="718.9944134078212" cy="170" r="3" fill="#2563eb"></circle><circle class="dot" cx="720" cy="170" r="3" fill="#2563eb"></circle><g class="grid" transform="translate(0,340)" fill="none" font-size="10" font-family="sans-serif" text-anchor="middle" style="stroke-dasharray: 3,3; opacity: 0.3;"><path class="domain" stroke="currentColor" d="M0.5,-340V0.5H720.5V-340"></path><g class="tick" opacity="1" transform="translate(0.5,0)"><line stroke="currentColor" y2="-340"></line><text fill="currentColor" y="3" dy="0.71em"></text></g><g class="tick" opacity="1" transform="translate(24.634078212290504,0)"><line stroke="currentColor" y2="-340"></line><text fill="currentColor" y="3" dy="0.71em"></text></g><g class="tick" opacity="1" transform="translate(48.76815642458101,0)"><line stroke="currentColor" y2="-340"></line><text fill="currentColor" y="3" dy="0.71em"></text></g><g class="tick" opacity="1" transform="translate(72.90223463687151,0)"><line stroke="currentColor" y2="-340"></line><text fill="currentColor" y="3" dy="0.71em"></text></g><g class="tick" opacity="1" transform="translate(97.03631284916202,0)"><line stroke="currentColor" y2="-340"></line><text fill="currentColor" y="3" dy="0.71em"></text></g><g class="tick" opacity="1" transform="translate(121.1703910614525,0)"><line stroke="currentColor" y2="-340"></line><text fill="currentColor" y="3" dy="0.71em"></text></g><g class="tick" opacity="1" transform="translate(145.30446927374302,0)"><line stroke="currentColor" y2="-340"></line><text fill="currentColor" y="3" dy="0.71em"></text></g><g class="tick" opacity="1" transform="translate(169.4385474860335,0)"><line stroke="currentColor" y2="-340"></line><text fill="currentColor" y="3" dy="0.71em"></text></g><g class="tick" opacity="1" transform="translate(193.57262569832403,0)"><line stroke="currentColor" y2="-340"></line><text fill="currentColor" y="3" dy="0.71em"></text></g><g class="tick" opacity="1" transform="translate(217.70670391061452,0)"><line stroke="currentColor" y2="-340"></line><text fill="currentColor" y="3" dy="0.71em"></text></g><g class="tick" opacity="1" transform="translate(241.840782122905,0)"><line stroke="currentColor" y2="-340"></line><text fill="currentColor" y="3" dy="0.71em"></text></g><g class="tick" opacity="1" transform="translate(265.97486033519556,0)"><line stroke="currentColor" y2="-340"></line><text fill="currentColor" y="3" dy="0.71em"></text></g><g class="tick" opacity="1" transform="translate(290.10893854748605,0)"><line stroke="currentColor" y2="-340"></line><text fill="currentColor" y="3" dy="0.71em"></text></g><g class="tick" opacity="1" transform="translate(314.24301675977654,0)"><line stroke="currentColor" y2="-340"></line><text fill="currentColor" y="3" dy="0.71em"></text></g><g class="tick" opacity="1" transform="translate(338.377094972067,0)"><line stroke="currentColor" y2="-340"></line><text fill="currentColor" y="3" dy="0.71em"></text></g><g class="tick" opacity="1" transform="translate(362.5111731843576,0)"><line stroke="currentColor" y2="-340"></line><text fill="currentColor" y="3" dy="0.71em"></text></g><g class="tick" opacity="1" transform="translate(386.64525139664806,0)"><line stroke="currentColor" y2="-340"></line><text fill="currentColor" y="3" dy="0.71em"></text></g><g class="tick" opacity="1" transform="translate(410.7793296089385,0)"><line stroke="currentColor" y2="-340"></line><text fill="currentColor" y="3" dy="0.71em"></text></g><g class="tick" opacity="1" transform="translate(434.91340782122904,0)"><line stroke="currentColor" y2="-340"></line><text fill="currentColor" y="3" dy="0.71em"></text></g><g class="tick" opacity="1" transform="translate(459.04748603351953,0)"><line stroke="currentColor" y2="-340"></line><text fill="currentColor" y="3" dy="0.71em"></text></g><g class="tick" opacity="1" transform="translate(483.18156424581,0)"><line stroke="currentColor" y2="-340"></line><text fill="currentColor" y="3" dy="0.71em"></text></g><g class="tick" opacity="1" transform="translate(507.31564245810057,0)"><line stroke="currentColor" y2="-340"></line><text fill="currentColor" y="3" dy="0.71em"></text></g><g class="tick" opacity="1" transform="translate(531.4497206703911,0)"><line stroke="currentColor" y2="-340"></line><text fill="currentColor" y="3" dy="0.71em"></text></g><g class="tick" opacity="1" transform="translate(555.5837988826815,0)"><line stroke="currentColor" y2="-340"></line><text fill="currentColor" y="3" dy="0.71em"></text></g><g class="tick" opacity="1" transform="translate(579.7178770949721,0)"><line stroke="currentColor" y2="-340"></line><text fill="currentColor" y="3" dy="0.71em"></text></g><g class="tick" opacity="1" transform="translate(603.8519553072625,0)"><line stroke="currentColor" y2="-340"></line><text fill="currentColor" y="3" dy="0.71em"></text></g><g class="tick" opacity="1" transform="translate(627.9860335195531,0)"><line stroke="currentColor" y2="-340"></line><text fill="currentColor" y="3" dy="0.71em"></text></g><g class="tick" opacity="1" transform="translate(652.1201117318436,0)"><line stroke="currentColor" y2="-340"></line><text fill="currentColor" y="3" dy="0.71em"></text></g><g class="tick" opacity="1" transform="translate(676.254189944134,0)"><line stroke="currentColor" y2="-340"></line><text fill="currentColor" y="3" dy="0.71em"></text></g><g class="tick" opacity="1" transform="translate(700.3882681564246,0)"><line stroke="currentColor" y2="-340"></line><text fill="currentColor" y="3" dy="0.71em"></text></g></g><g class="grid" fill="none" font-size="10" font-family="sans-serif" text-anchor="end" style="stroke-dasharray: 3,3; opacity: 0.3;"><path class="domain" stroke="currentColor" d="M720,340.5H0.5V0.5H720"></path><g class="tick" opacity="1" transform="translate(0,170.5)"><line stroke="currentColor" x2="720"></line><text fill="currentColor" x="-3" dy="0.32em"></text></g></g></g><text x="400" y="10" text-anchor="middle" style="font-size: 16px; font-weight: bold; fill: #333;">OKX USDT Lending Rate - Current Month</text></svg>