<svg width="800" height="400" xmlns="http://www.w3.org/2000/svg"><g transform="translate(50,20)"><g transform="translate(0,340)" fill="none" font-size="10" font-family="sans-serif" text-anchor="middle"><path class="domain" stroke="currentColor" d="M0.5,6V0.5H720.5V6"></path><g class="tick" opacity="1" transform="translate(0.5,0)"><line stroke="currentColor" y2="6"></line><text fill="currentColor" y="9" dy=".15em" style="text-anchor: end;" dx="-.8em" transform="rotate(-45)">01/01</text></g><g class="tick" opacity="1" transform="translate(37.110169491525426,0)"><line stroke="currentColor" y2="6"></line><text fill="currentColor" y="9" dy=".15em" style="text-anchor: end;" dx="-.8em" transform="rotate(-45)">01/02</text></g><g class="tick" opacity="1" transform="translate(73.72033898305085,0)"><line stroke="currentColor" y2="6"></line><text fill="currentColor" y="9" dy=".15em" style="text-anchor: end;" dx="-.8em" transform="rotate(-45)">01/03</text></g><g class="tick" opacity="1" transform="translate(110.33050847457628,0)"><line stroke="currentColor" y2="6"></line><text fill="currentColor" y="9" dy=".15em" style="text-anchor: end;" dx="-.8em" transform="rotate(-45)">01/04</text></g><g class="tick" opacity="1" transform="translate(146.9406779661017,0)"><line stroke="currentColor" y2="6"></line><text fill="currentColor" y="9" dy=".15em" style="text-anchor: end;" dx="-.8em" transform="rotate(-45)">01/05</text></g><g class="tick" opacity="1" transform="translate(183.5508474576271,0)"><line stroke="currentColor" y2="6"></line><text fill="currentColor" y="9" dy=".15em" style="text-anchor: end;" dx="-.8em" transform="rotate(-45)">01/06</text></g><g class="tick" opacity="1" transform="translate(220.16101694915255,0)"><line stroke="currentColor" y2="6"></line><text fill="currentColor" y="9" dy=".15em" style="text-anchor: end;" dx="-.8em" transform="rotate(-45)">01/07</text></g><g class="tick" opacity="1" transform="translate(256.771186440678,0)"><line stroke="currentColor" y2="6"></line><text fill="currentColor" y="9" dy=".15em" style="text-anchor: end;" dx="-.8em" transform="rotate(-45)">01/08</text></g><g class="tick" opacity="1" transform="translate(293.3813559322034,0)"><line stroke="currentColor" y2="6"></line><text fill="currentColor" y="9" dy=".15em" style="text-anchor: end;" dx="-.8em" transform="rotate(-45)">01/09</text></g><g class="tick" opacity="1" transform="translate(329.99152542372883,0)"><line stroke="currentColor" y2="6"></line><text fill="currentColor" y="9" dy=".15em" style="text-anchor: end;" dx="-.8em" transform="rotate(-45)">01/10</text></g><g class="tick" opacity="1" transform="translate(366.6016949152542,0)"><line stroke="currentColor" y2="6"></line><text fill="currentColor" y="9" dy=".15em" style="text-anchor: end;" dx="-.8em" transform="rotate(-45)">01/11</text></g><g class="tick" opacity="1" transform="translate(403.2118644067796,0)"><line stroke="currentColor" y2="6"></line><text fill="currentColor" y="9" dy=".15em" style="text-anchor: end;" dx="-.8em" transform="rotate(-45)">01/12</text></g><g class="tick" opacity="1" transform="translate(439.8220338983051,0)"><line stroke="currentColor" y2="6"></line><text fill="currentColor" y="9" dy=".15em" style="text-anchor: end;" dx="-.8em" transform="rotate(-45)">01/13</text></g><g class="tick" opacity="1" transform="translate(476.43220338983053,0)"><line stroke="currentColor" y2="6"></line><text fill="currentColor" y="9" dy=".15em" style="text-anchor: end;" dx="-.8em" transform="rotate(-45)">01/14</text></g><g class="tick" opacity="1" transform="translate(513.042372881356,0)"><line stroke="currentColor" y2="6"></line><text fill="currentColor" y="9" dy=".15em" style="text-anchor: end;" dx="-.8em" transform="rotate(-45)">01/15</text></g><g class="tick" opacity="1" transform="translate(549.6525423728814,0)"><line stroke="currentColor" y2="6"></line><text fill="currentColor" y="9" dy=".15em" style="text-anchor: end;" dx="-.8em" transform="rotate(-45)">01/16</text></g><g class="tick" opacity="1" transform="translate(586.2627118644068,0)"><line stroke="currentColor" y2="6"></line><text fill="currentColor" y="9" dy=".15em" style="text-anchor: end;" dx="-.8em" transform="rotate(-45)">01/17</text></g><g class="tick" opacity="1" transform="translate(622.8728813559322,0)"><line stroke="currentColor" y2="6"></line><text fill="currentColor" y="9" dy=".15em" style="text-anchor: end;" dx="-.8em" transform="rotate(-45)">01/18</text></g><g class="tick" opacity="1" transform="translate(659.4830508474577,0)"><line stroke="currentColor" y2="6"></line><text fill="currentColor" y="9" dy=".15em" style="text-anchor: end;" dx="-.8em" transform="rotate(-45)">01/19</text></g><g class="tick" opacity="1" transform="translate(696.0932203389831,0)"><line stroke="currentColor" y2="6"></line><text fill="currentColor" y="9" dy=".15em" style="text-anchor: end;" dx="-.8em" transform="rotate(-45)">01/20</text></g></g><g fill="none" font-size="10" font-family="sans-serif" text-anchor="end"><path class="domain" stroke="currentColor" d="M-6,340.5H0.5V0.5H-6"></path><g class="tick" opacity="1" transform="translate(0,340.5)"><line stroke="currentColor" x2="-6"></line><text fill="currentColor" x="-9" dy="0.32em">3.20%</text></g><g class="tick" opacity="1" transform="translate(0,312.16666666666663)"><line stroke="currentColor" x2="-6"></line><text fill="currentColor" x="-9" dy="0.32em">3.25%</text></g><g class="tick" opacity="1" transform="translate(0,283.83333333333326)"><line stroke="currentColor" x2="-6"></line><text fill="currentColor" x="-9" dy="0.32em">3.30%</text></g><g class="tick" opacity="1" transform="translate(0,255.49999999999991)"><line stroke="currentColor" x2="-6"></line><text fill="currentColor" x="-9" dy="0.32em">3.35%</text></g><g class="tick" opacity="1" transform="translate(0,227.16666666666654)"><line stroke="currentColor" x2="-6"></line><text fill="currentColor" x="-9" dy="0.32em">3.40%</text></g><g class="tick" opacity="1" transform="translate(0,198.83333333333314)"><line stroke="currentColor" x2="-6"></line><text fill="currentColor" x="-9" dy="0.32em">3.45%</text></g><g class="tick" opacity="1" transform="translate(0,170.4999999999998)"><line stroke="currentColor" x2="-6"></line><text fill="currentColor" x="-9" dy="0.32em">3.50%</text></g><g class="tick" opacity="1" transform="translate(0,142.16666666666686)"><line stroke="currentColor" x2="-6"></line><text fill="currentColor" x="-9" dy="0.32em">3.55%</text></g><g class="tick" opacity="1" transform="translate(0,113.83333333333346)"><line stroke="currentColor" x2="-6"></line><text fill="currentColor" x="-9" dy="0.32em">3.60%</text></g><g class="tick" opacity="1" transform="translate(0,85.50000000000011)"><line stroke="currentColor" x2="-6"></line><text fill="currentColor" x="-9" dy="0.32em">3.65%</text></g><g class="tick" opacity="1" transform="translate(0,57.16666666666673)"><line stroke="currentColor" x2="-6"></line><text fill="currentColor" x="-9" dy="0.32em">3.70%</text></g><g class="tick" opacity="1" transform="translate(0,28.833333333333385)"><line stroke="currentColor" x2="-6"></line><text fill="currentColor" x="-9" dy="0.32em">3.75%</text></g><g class="tick" opacity="1" transform="translate(0,0.5)"><line stroke="currentColor" x2="-6"></line><text fill="currentColor" x="-9" dy="0.32em">3.80%</text></g></g><text transform="rotate(-90)" y="-50" x="-170" dy="1em" style="text-anchor: middle; font-size: 12px; fill: #666;">Pre Rate (%)</text><text transform="translate(360, 380)" style="text-anchor: middle; font-size: 12px; fill: #666;">Time (UTC)</text><path fill="none" stroke="#2563eb" stroke-width="2" d="M0,340C0.508,340,1.017,340,1.525,340C2.034,340,2.542,340,3.051,340C3.559,340,4.068,340,4.576,340C5.085,340,5.593,340,6.102,340C6.61,340,7.119,340,7.627,340C8.136,340,8.644,340,9.153,340C9.661,340,10.169,340,10.678,340C11.186,340,11.695,340,12.203,340C12.712,340,13.22,340,13.729,340C14.237,340,14.746,340,15.254,340C15.763,340,16.271,340,16.78,340C17.288,340,17.797,340,18.305,340C18.814,340,19.322,340,19.831,340C20.339,340,20.847,340,21.356,340C21.864,340,22.373,340,22.881,340C23.39,340,23.898,340,24.407,340C24.915,340,25.424,340,25.932,340C26.441,340,26.949,340,27.458,340C27.966,340,28.475,340,28.983,340C29.492,340,30,340,30.508,340C31.017,340,31.525,340,32.034,340C32.542,340,33.051,340,33.559,340C34.068,340,34.576,340,35.085,340C35.593,340,36.102,340,36.61,340C37.119,340,37.627,340,38.136,340C38.644,340,39.153,340,39.661,340C40.169,340,40.678,340,41.186,340C41.695,340,42.203,340,42.712,340C43.22,340,43.729,340,44.237,340C44.746,340,45.254,340,45.763,340C46.271,340,46.78,340,47.288,340C47.797,340,48.305,340,48.814,340C49.322,340,49.831,340,50.339,340C50.847,340,51.356,340,51.864,340C52.373,340,52.881,340,53.39,340C53.898,340,54.407,340,54.915,340C55.424,340,55.932,340,56.441,340C56.949,340,57.458,340,57.966,340C58.475,340,58.983,340,59.492,340C60,340,60.508,340,61.017,340C61.525,340,62.034,340,62.542,340C63.051,340,63.559,340,64.068,340C64.576,340,65.085,340,65.593,340C66.102,340,66.61,340,67.119,340C67.627,340,68.136,340,68.644,340C69.153,340,69.661,340,70.169,340C70.678,340,71.186,340,71.695,340C72.203,340,72.712,340,73.22,340C73.729,340,74.237,340,74.746,340C75.254,340,75.763,340,76.271,340C76.78,340,77.288,340,77.797,340C78.305,340,78.814,340,79.322,340C79.831,340,80.339,340,80.847,340C81.356,340,81.864,340,82.373,340C82.881,340,83.39,340,83.898,340C84.407,340,84.915,340,85.424,340C85.932,340,86.441,340,86.949,340C87.458,340,87.966,340,88.475,340C88.983,340,89.492,340,90,340C90.508,340,91.017,340,91.525,340C92.034,340,92.542,340,93.051,340C93.559,340,94.068,340,94.576,340C95.085,340,95.593,340,96.102,340C96.61,340,97.119,340,97.627,340C98.136,340,98.644,340,99.153,340C99.661,340,100.169,340,100.678,340C101.186,340,101.695,340,102.203,340C102.712,340,103.22,340,103.729,340C104.237,340,104.746,340,105.254,340C105.763,340,106.271,340,106.78,340C107.288,340,107.797,340,108.305,340C108.814,340,109.322,340,109.831,340C110.339,340,110.847,340,111.356,340C111.864,340,112.373,340,112.881,340C113.39,340,113.898,340,114.407,340C114.915,340,115.424,340,115.932,340C116.441,340,116.949,340,117.458,340C117.966,340,118.475,340,118.983,340C119.492,340,120,340,120.508,340C121.017,340,121.525,340,122.034,340C122.542,340,123.051,340,123.559,340C124.068,340,124.576,340,125.085,340C125.593,340,126.102,340,126.61,340C127.119,340,127.627,340,128.136,340C128.644,340,129.153,340,129.661,340C130.169,340,130.678,340,131.186,340C131.695,340,132.203,340,132.712,340C133.22,340,133.729,340,134.237,340C134.746,340,135.254,340,135.763,340C136.271,340,136.78,340,137.288,340C137.797,340,138.305,340,138.814,340C139.322,340,139.831,340,140.339,340C140.847,340,141.356,340,141.864,340C142.373,340,142.881,340,143.39,340C143.898,340,144.407,340,144.915,340C145.424,340,145.932,340,146.441,340C146.949,340,147.458,340,147.966,340C148.475,340,148.983,340,149.492,340C150,340,150.508,340,151.017,340C151.525,340,152.034,340,152.542,340C153.051,340,153.559,340,154.068,340C154.576,340,155.085,340,155.593,340C156.102,340,156.61,340,157.119,340C157.627,340,158.136,340,158.644,340C159.153,340,159.661,340,160.169,340C160.678,340,161.186,340,161.695,340C162.203,340,162.712,340,163.22,340C163.729,340,164.237,340,164.746,340C165.254,340,165.763,340,166.271,340C166.78,340,167.288,340,167.797,340C168.305,340,168.814,340,169.322,340C169.831,340,170.339,340,170.847,340C171.356,340,171.864,340,172.373,340C172.881,340,173.39,340,173.898,340C174.407,340,174.915,340,175.424,340C175.932,340,176.441,340,176.949,340C177.458,340,177.966,340,178.475,340C178.983,340,179.492,340,180,340C180.508,340,181.017,340,181.525,340C182.034,340,182.542,340,183.051,340C183.559,340,184.068,340,184.576,340C185.085,340,185.593,340,186.102,340C186.61,340,187.119,340,187.627,340C188.136,340,188.644,340,189.153,340C189.661,340,190.169,340,190.678,340C191.186,340,191.695,340,192.203,340C192.712,340,193.22,340,193.729,340C194.237,340,194.746,340,195.254,340C195.763,340,196.271,340,196.78,340C197.288,340,197.797,340,198.305,340C198.814,340,199.322,340,199.831,340C200.339,340,200.847,340,201.356,340C201.864,340,202.373,340,202.881,340C203.39,340,203.898,340,204.407,340C204.915,340,205.424,340,205.932,340C206.441,340,206.949,340,207.458,340C207.966,340,208.475,340,208.983,340C209.492,340,210,340,210.508,340C211.017,340,211.525,340,212.034,340C212.542,340,213.051,340,213.559,340C214.068,340,214.576,340,215.085,340C215.593,340,216.102,340,216.61,340C217.119,340,217.627,340,218.136,340C218.644,340,219.153,340,219.661,340C220.169,340,220.678,340,221.186,340C221.695,340,222.203,340,222.712,340C223.22,340,223.729,340,224.237,340C224.746,340,225.254,340,225.763,340C226.271,340,226.78,340,227.288,340C227.797,340,228.305,340,228.814,340C229.322,340,229.831,340,230.339,340C230.847,340,231.356,340,231.864,340C232.373,340,232.881,340,233.39,340C233.898,340,234.407,340,234.915,340C235.424,340,235.932,340,236.441,340C236.949,340,237.458,340,237.966,340C238.475,340,238.983,340,239.492,340C240,340,240.508,340,241.017,340C241.525,340,242.034,340,242.542,340C243.051,340,243.559,340,244.068,340C244.576,340,245.085,340,245.593,340C246.102,340,246.61,340,247.119,340C247.627,340,248.136,340,248.644,340C249.153,340,249.661,340,250.169,340C250.678,340,251.186,340,251.695,340C252.203,340,252.712,340,253.22,340C253.729,340,254.237,340,254.746,340C255.254,340,255.763,340,256.271,340C256.78,340,257.288,340,257.797,340C258.305,340,258.814,340,259.322,340C259.831,340,260.339,340,260.847,340C261.356,340,261.864,340,262.373,340C262.881,340,263.39,340,263.898,340C264.407,340,264.915,340,265.424,340C265.932,340,266.441,340,266.949,340C267.458,340,267.966,340,268.475,340C268.983,340,269.492,340,270,340C270.508,340,271.017,340,271.525,340C272.034,340,272.542,340,273.051,340C273.559,340,274.068,340,274.576,340C275.085,340,275.593,340,276.102,340C276.61,340,277.119,340,277.627,340C278.136,340,278.644,340,279.153,340C279.661,340,280.169,340,280.678,340C281.186,340,281.695,340,282.203,340C282.712,340,283.22,340,283.729,340C284.237,340,284.746,340,285.254,340C285.763,340,286.271,340,286.78,340C287.288,340,287.797,340,288.305,340C288.814,340,289.322,340,289.831,340C290.339,340,290.847,340,291.356,340C291.864,340,292.373,340,292.881,340C293.39,340,293.898,340,294.407,340C294.915,340,295.424,340,295.932,340C296.441,340,296.949,340,297.458,340C297.966,340,298.475,340,298.983,340C299.492,340,300,340,300.508,340C301.017,340,301.525,340,302.034,340C302.542,340,303.051,340,303.559,340C304.068,340,304.576,340,305.085,340C305.593,340,306.102,340,306.61,340C307.119,340,307.627,340,308.136,340C308.644,340,309.153,340,309.661,340C310.169,340,310.678,340,311.186,340C311.695,340,312.203,340,312.712,340C313.22,340,313.729,340,314.237,340C314.746,340,315.254,340,315.763,340C316.271,340,316.78,340,317.288,340C317.797,340,318.305,340,318.814,340C319.322,340,319.831,340,320.339,340C320.847,340,321.356,340,321.864,340C322.373,340,322.881,340,323.39,340C323.898,340,324.407,340,324.915,340C325.424,340,325.932,340,326.441,340C326.949,340,327.458,340,327.966,340C328.475,340,328.983,340,329.492,340C330,340,330.508,340,331.017,340C331.525,340,332.034,340,332.542,340C333.051,340,333.559,340,334.068,340C334.576,340,335.085,340,335.593,340C336.102,340,336.61,340,337.119,340C337.627,340,338.136,340,338.644,340C339.153,340,339.661,340,340.169,340C340.678,340,341.186,340,341.695,340C342.203,340,342.712,340,343.22,340C343.729,340,344.237,340,344.746,340C345.254,340,345.763,340,346.271,340C346.78,340,347.288,340,347.797,340C348.305,340,348.814,340,349.322,340C349.831,340,350.339,340,350.847,340C351.356,340,351.864,340,352.373,340C352.881,340,353.39,340,353.898,340C354.407,340,354.915,340,355.424,340C355.932,340,356.441,340,356.949,340C357.458,340,357.966,340,358.475,340C358.983,340,359.492,340,360,340C360.508,340,361.017,340,361.525,340C362.034,340,362.542,340,363.051,340C363.559,340,364.068,340,364.576,340C365.085,340,365.593,340,366.102,340C366.61,340,367.119,340,367.627,340C368.136,340,368.644,340,369.153,340C369.661,340,370.169,340,370.678,340C371.186,340,371.695,340,372.203,340C372.712,340,373.22,340,373.729,340C374.237,340,374.746,340,375.254,340C375.763,340,376.271,340,376.78,340C377.288,340,377.797,340,378.305,340C378.814,340,379.322,340,379.831,340C380.339,340,380.847,340,381.356,340C381.864,340,382.373,340,382.881,340C383.39,340,383.898,340,384.407,340C384.915,340,385.424,340,385.932,340C386.441,340,386.949,340,387.458,340C387.966,340,388.475,340,388.983,340C389.492,340,390,340,390.508,340C391.017,340,391.525,340,392.034,340C392.542,340,393.051,340,393.559,340C394.068,340,394.576,340,395.085,340C395.593,340,396.102,340,396.61,340C397.119,340,397.627,340,398.136,340C398.644,340,399.153,340,399.661,340C400.169,340,400.678,340,401.186,340C401.695,340,402.203,340,402.712,340C403.22,340,403.729,340,404.237,340C404.746,340,405.254,340,405.763,340C406.271,340,406.78,340,407.288,340C407.797,340,408.305,340,408.814,340C409.322,340,409.831,340,410.339,340C410.847,340,411.356,340,411.864,340C412.373,340,412.881,340,413.39,340C413.898,340,414.407,340,414.915,340C415.424,340,415.932,340,416.441,340C416.949,340,417.458,340,417.966,340C418.475,340,418.983,340,419.492,340C420,340,420.508,340,421.017,340C421.525,340,422.034,340,422.542,340C423.051,340,423.559,340,424.068,340C424.576,340,425.085,340,425.593,340C426.102,340,426.61,340,427.119,340C427.627,340,428.136,340,428.644,340C429.153,340,429.661,340,430.169,340C430.678,340,431.186,340,431.695,340C432.203,340,432.712,340,433.22,340C433.729,340,434.237,340,434.746,340C435.254,340,435.763,340,436.271,340C436.78,340,437.288,340,437.797,340C438.305,340,438.814,340,439.322,340C439.831,340,440.339,340,440.847,340C441.356,340,441.864,340,442.373,340C442.881,340,443.39,340,443.898,340C444.407,340,444.915,340,445.424,340C445.932,340,446.441,340,446.949,340C447.458,340,447.966,340,448.475,340C448.983,340,449.492,340,450,340C450.508,340,451.017,340,451.525,340C452.034,340,452.542,340,453.051,340C453.559,340,454.068,340,454.576,340C455.085,340,455.593,340,456.102,340C456.61,340,457.119,340,457.627,340C458.136,340,458.644,340,459.153,340C459.661,340,460.169,340,460.678,340C461.186,340,461.695,340,462.203,340C462.712,340,463.22,340,463.729,340C464.237,340,464.746,340,465.254,340C465.763,340,466.271,340,466.78,340C467.288,340,467.797,340,468.305,340C468.814,340,469.322,340,469.831,340C470.339,340,470.847,340,471.356,340C471.864,340,472.373,340,472.881,340C473.39,340,473.898,340,474.407,340C474.915,340,475.424,340,475.932,340C476.441,340,476.949,340,477.458,340C477.966,340,478.475,340,478.983,340C479.492,340,480,340,480.508,340C481.017,340,481.525,340,482.034,340C482.542,340,483.051,340,483.559,340C484.068,340,484.576,340,485.085,340C485.593,340,486.102,340,486.61,340C487.119,340,487.627,340,488.136,340C488.644,340,489.153,340,489.661,340C490.169,340,490.678,340,491.186,340C491.695,340,492.203,340,492.712,340C493.22,340,493.729,340,494.237,340C494.746,340,495.254,340,495.763,340C496.271,340,496.78,340,497.288,340C497.797,340,498.305,340,498.814,340C499.322,340,499.831,340,500.339,340C500.847,340,501.356,340,501.864,340C502.373,340,502.881,340,503.39,340C503.898,340,504.407,340,504.915,340C505.424,340,505.932,340,506.441,340C506.949,340,507.458,340,507.966,340C508.475,340,508.983,340,509.492,340C510,340,510.508,340,511.017,340C511.525,340,512.034,340,512.542,340C513.051,340,513.559,340,514.068,340C514.576,340,515.085,0,515.593,0C516.102,0,516.61,0,517.119,0C517.627,0,518.136,0,518.644,0C519.153,0,519.661,0,520.169,0C520.678,0,521.186,0,521.695,0C522.203,0,522.712,0,523.22,0C523.729,0,524.237,0,524.746,0C525.254,0,525.763,0,526.271,0C526.78,0,527.288,0,527.797,0C528.305,0,528.814,0,529.322,0C529.831,0,530.339,0,530.847,0C531.356,0,531.864,0,532.373,0C532.881,0,533.39,0,533.898,0C534.407,0,534.915,0,535.424,0C535.932,0,536.441,0,536.949,0C537.458,0,537.966,0,538.475,0C538.983,0,539.492,0,540,0C540.508,0,541.017,0,541.525,0C542.034,0,542.542,0,543.051,0C543.559,0,544.068,0,544.576,0C545.085,0,545.593,0,546.102,0C546.61,0,547.119,0,547.627,0C548.136,0,548.644,0,549.153,0C549.661,0,550.169,0,550.678,0C551.186,0,551.695,0,552.203,0C552.712,0,553.22,0,553.729,0C554.237,0,554.746,0,555.254,0C555.763,0,556.271,0,556.78,0C557.288,0,557.797,0,558.305,0C558.814,0,559.322,0,559.831,0C560.339,0,560.847,0,561.356,0C561.864,0,562.373,0,562.881,0C563.39,0,563.898,0,564.407,0C564.915,0,565.424,0,565.932,0C566.441,0,566.949,0,567.458,0C567.966,0,568.475,0,568.983,0C569.492,0,570,0,570.508,0C571.017,0,571.525,0,572.034,0C572.542,0,573.051,0,573.559,0C574.068,0,574.576,0,575.085,0C575.593,0,576.102,0,576.61,0C577.119,0,577.627,0,578.136,0C578.644,0,579.153,0,579.661,0C580.169,0,580.678,0,581.186,0C581.695,0,582.203,0,582.712,0C583.22,0,583.729,0,584.237,0C584.746,0,585.254,0,585.763,0C586.271,0,586.78,0,587.288,0C587.797,0,588.305,0,588.814,0C589.322,0,589.831,0,590.339,0C590.847,0,591.356,0,591.864,0C592.373,0,592.881,0,593.39,0C593.898,0,594.407,0,594.915,0C595.424,0,595.932,0,596.441,0C596.949,0,597.458,0,597.966,0C598.475,0,598.983,0,599.492,0C600,0,600.508,0,601.017,0C601.525,0,602.034,0,602.542,0C603.051,0,603.559,0,604.068,0C604.576,0,605.085,0,605.593,0C606.102,0,606.61,0,607.119,0C607.627,0,608.136,0,608.644,0C609.153,0,609.661,0,610.169,0C610.678,0,611.186,0,611.695,0C612.203,0,612.712,0,613.22,0C613.729,0,614.237,0,614.746,0C615.254,0,615.763,0,616.271,0C616.78,0,617.288,0,617.797,0C618.305,0,618.814,0,619.322,0C619.831,0,620.339,0,620.847,0C621.356,0,621.864,0,622.373,0C622.881,0,623.39,0,623.898,0C624.407,0,624.915,0,625.424,0C625.932,0,626.441,0,626.949,0C627.458,0,627.966,0,628.475,0C628.983,0,629.492,0,630,0C630.508,0,631.017,0,631.525,0C632.034,0,632.542,0,633.051,0C633.559,0,634.068,0,634.576,0C635.085,0,635.593,0,636.102,0C636.61,0,637.119,0,637.627,0C638.136,0,638.644,0,639.153,0C639.661,0,640.169,0,640.678,0C641.186,0,641.695,0,642.203,0C642.712,0,643.22,0,643.729,0C644.237,0,644.746,0,645.254,0C645.763,0,646.271,0,646.78,0C647.288,0,647.797,0,648.305,0C648.814,0,649.322,0,649.831,0C650.339,0,650.847,0,651.356,0C651.864,0,652.373,0,652.881,0C653.39,0,653.898,0,654.407,0C654.915,0,655.424,0,655.932,0C656.441,0,656.949,0,657.458,0C657.966,0,658.475,0,658.983,0C659.492,0,660,0,660.508,0C661.017,0,661.525,0,662.034,0C662.542,0,663.051,0,663.559,0C664.068,0,664.576,0,665.085,0C665.593,0,666.102,0,666.61,0C667.119,0,667.627,0,668.136,0C668.644,0,669.153,0,669.661,0C670.169,0,670.678,0,671.186,0C671.695,0,672.203,0,672.712,0C673.22,0,673.729,0,674.237,0C674.746,0,675.254,0,675.763,0C676.271,0,676.78,0,677.288,0C677.797,0,678.305,0,678.814,0C679.322,0,679.831,0,680.339,0C680.847,0,681.356,0,681.864,0C682.373,0,682.881,0,683.39,0C683.898,0,684.407,0,684.915,0C685.424,0,685.932,0,686.441,0C686.949,0,687.458,0,687.966,0C688.475,0,688.983,0,689.492,0C690,0,690.508,0,691.017,0C691.525,0,692.034,0,692.542,0C693.051,0,693.559,0,694.068,0C694.576,0,695.085,0,695.593,0C696.102,0,696.61,0,697.119,0C697.627,0,698.136,0,698.644,0C699.153,0,699.661,0,700.169,0C700.678,0,701.186,0,701.695,0C702.203,0,702.712,0,703.22,0C703.729,0,704.237,0,704.746,0C705.254,0,705.763,0,706.271,0C706.78,0,707.288,0,707.797,0C708.305,0,708.814,0,709.322,0C709.831,0,710.339,0,710.847,0C711.356,0,711.864,0,712.373,0C712.881,0,713.39,0,713.898,0C714.407,0,714.915,0,715.424,0C715.932,0,716.441,0,716.949,0C717.458,0,717.966,0,718.475,0C718.983,0,719.492,0,720,0"></path><circle class="dot" cx="0" cy="340" r="3" fill="#2563eb"></circle><circle class="dot" cx="1.5254237288135593" cy="340" r="3" fill="#2563eb"></circle><circle class="dot" cx="3.0508474576271185" cy="340" r="3" fill="#2563eb"></circle><circle class="dot" cx="4.576271186440678" cy="340" r="3" fill="#2563eb"></circle><circle class="dot" cx="6.101694915254237" cy="340" r="3" fill="#2563eb"></circle><circle class="dot" cx="7.627118644067796" cy="340" r="3" fill="#2563eb"></circle><circle class="dot" cx="9.152542372881356" cy="340" r="3" fill="#2563eb"></circle><circle class="dot" cx="10.677966101694915" cy="340" r="3" fill="#2563eb"></circle><circle class="dot" cx="12.203389830508474" cy="340" r="3" fill="#2563eb"></circle><circle class="dot" cx="13.728813559322035" cy="340" r="3" fill="#2563eb"></circle><circle class="dot" cx="15.254237288135592" cy="340" r="3" fill="#2563eb"></circle><circle class="dot" cx="16.779661016949152" cy="340" r="3" fill="#2563eb"></circle><circle class="dot" cx="18.305084745762713" cy="340" r="3" fill="#2563eb"></circle><circle class="dot" cx="19.83050847457627" cy="340" r="3" fill="#2563eb"></circle><circle class="dot" cx="21.35593220338983" cy="340" r="3" fill="#2563eb"></circle><circle class="dot" cx="22.881355932203387" cy="340" r="3" fill="#2563eb"></circle><circle class="dot" cx="24.406779661016948" cy="340" r="3" fill="#2563eb"></circle><circle class="dot" cx="25.93220338983051" cy="340" r="3" fill="#2563eb"></circle><circle class="dot" cx="27.45762711864407" cy="340" r="3" fill="#2563eb"></circle><circle class="dot" cx="28.983050847457626" cy="340" r="3" fill="#2563eb"></circle><circle class="dot" cx="30.508474576271183" cy="340" r="3" fill="#2563eb"></circle><circle class="dot" cx="32.03389830508475" cy="340" r="3" fill="#2563eb"></circle><circle class="dot" cx="33.559322033898304" cy="340" r="3" fill="#2563eb"></circle><circle class="dot" cx="35.08474576271187" cy="340" r="3" fill="#2563eb"></circle><circle class="dot" cx="36.610169491525426" cy="340" r="3" fill="#2563eb"></circle><circle class="dot" cx="38.13559322033898" cy="340" r="3" fill="#2563eb"></circle><circle class="dot" cx="39.66101694915254" cy="340" r="3" fill="#2563eb"></circle><circle class="dot" cx="41.186440677966104" cy="340" r="3" fill="#2563eb"></circle><circle class="dot" cx="42.71186440677966" cy="340" r="3" fill="#2563eb"></circle><circle class="dot" cx="44.237288135593225" cy="340" r="3" fill="#2563eb"></circle><circle class="dot" cx="45.762711864406775" cy="340" r="3" fill="#2563eb"></circle><circle class="dot" cx="47.288135593220346" cy="340" r="3" fill="#2563eb"></circle><circle class="dot" cx="48.813559322033896" cy="340" r="3" fill="#2563eb"></circle><circle class="dot" cx="50.33898305084745" cy="340" r="3" fill="#2563eb"></circle><circle class="dot" cx="51.86440677966102" cy="340" r="3" fill="#2563eb"></circle><circle class="dot" cx="53.389830508474574" cy="340" r="3" fill="#2563eb"></circle><circle class="dot" cx="54.91525423728814" cy="340" r="3" fill="#2563eb"></circle><circle class="dot" cx="56.440677966101696" cy="340" r="3" fill="#2563eb"></circle><circle class="dot" cx="57.96610169491525" cy="340" r="3" fill="#2563eb"></circle><circle class="dot" cx="59.49152542372882" cy="340" r="3" fill="#2563eb"></circle><circle class="dot" cx="61.01694915254237" cy="340" r="3" fill="#2563eb"></circle><circle class="dot" cx="62.54237288135594" cy="340" r="3" fill="#2563eb"></circle><circle class="dot" cx="64.0677966101695" cy="340" r="3" fill="#2563eb"></circle><circle class="dot" cx="65.59322033898304" cy="340" r="3" fill="#2563eb"></circle><circle class="dot" cx="67.11864406779661" cy="340" r="3" fill="#2563eb"></circle><circle class="dot" cx="68.64406779661017" cy="340" r="3" fill="#2563eb"></circle><circle class="dot" cx="70.16949152542374" cy="340" r="3" fill="#2563eb"></circle><circle class="dot" cx="71.69491525423729" cy="340" r="3" fill="#2563eb"></circle><circle class="dot" cx="73.22033898305085" cy="340" r="3" fill="#2563eb"></circle><circle class="dot" cx="74.7457627118644" cy="340" r="3" fill="#2563eb"></circle><circle class="dot" cx="76.27118644067797" cy="340" r="3" fill="#2563eb"></circle><circle class="dot" cx="77.79661016949153" cy="340" r="3" fill="#2563eb"></circle><circle class="dot" cx="79.32203389830508" cy="340" r="3" fill="#2563eb"></circle><circle class="dot" cx="80.84745762711864" cy="340" r="3" fill="#2563eb"></circle><circle class="dot" cx="82.37288135593221" cy="340" r="3" fill="#2563eb"></circle><circle class="dot" cx="83.89830508474576" cy="340" r="3" fill="#2563eb"></circle><circle class="dot" cx="85.42372881355932" cy="340" r="3" fill="#2563eb"></circle><circle class="dot" cx="86.94915254237289" cy="340" r="3" fill="#2563eb"></circle><circle class="dot" cx="88.47457627118645" cy="340" r="3" fill="#2563eb"></circle><circle class="dot" cx="90" cy="340" r="3" fill="#2563eb"></circle><circle class="dot" cx="91.52542372881355" cy="340" r="3" fill="#2563eb"></circle><circle class="dot" cx="93.05084745762711" cy="340" r="3" fill="#2563eb"></circle><circle class="dot" cx="94.57627118644069" cy="340" r="3" fill="#2563eb"></circle><circle class="dot" cx="96.10169491525424" cy="340" r="3" fill="#2563eb"></circle><circle class="dot" cx="97.62711864406779" cy="340" r="3" fill="#2563eb"></circle><circle class="dot" cx="99.15254237288136" cy="340" r="3" fill="#2563eb"></circle><circle class="dot" cx="100.6779661016949" cy="340" r="3" fill="#2563eb"></circle><circle class="dot" cx="102.20338983050848" cy="340" r="3" fill="#2563eb"></circle><circle class="dot" cx="103.72881355932203" cy="340" r="3" fill="#2563eb"></circle><circle class="dot" cx="105.2542372881356" cy="340" r="3" fill="#2563eb"></circle><circle class="dot" cx="106.77966101694915" cy="340" r="3" fill="#2563eb"></circle><circle class="dot" cx="108.3050847457627" cy="340" r="3" fill="#2563eb"></circle><circle class="dot" cx="109.83050847457628" cy="340" r="3" fill="#2563eb"></circle><circle class="dot" cx="111.35593220338983" cy="340" r="3" fill="#2563eb"></circle><circle class="dot" cx="112.88135593220339" cy="340" r="3" fill="#2563eb"></circle><circle class="dot" cx="114.40677966101694" cy="340" r="3" fill="#2563eb"></circle><circle class="dot" cx="115.9322033898305" cy="340" r="3" fill="#2563eb"></circle><circle class="dot" cx="117.45762711864407" cy="340" r="3" fill="#2563eb"></circle><circle class="dot" cx="118.98305084745763" cy="340" r="3" fill="#2563eb"></circle><circle class="dot" cx="120.50847457627118" cy="340" r="3" fill="#2563eb"></circle><circle class="dot" cx="122.03389830508473" cy="340" r="3" fill="#2563eb"></circle><circle class="dot" cx="123.5593220338983" cy="340" r="3" fill="#2563eb"></circle><circle class="dot" cx="125.08474576271188" cy="340" r="3" fill="#2563eb"></circle><circle class="dot" cx="126.61016949152543" cy="340" r="3" fill="#2563eb"></circle><circle class="dot" cx="128.135593220339" cy="340" r="3" fill="#2563eb"></circle><circle class="dot" cx="129.66101694915253" cy="340" r="3" fill="#2563eb"></circle><circle class="dot" cx="131.1864406779661" cy="340" r="3" fill="#2563eb"></circle><circle class="dot" cx="132.71186440677965" cy="340" r="3" fill="#2563eb"></circle><circle class="dot" cx="134.23728813559322" cy="340" r="3" fill="#2563eb"></circle><circle class="dot" cx="135.76271186440678" cy="340" r="3" fill="#2563eb"></circle><circle class="dot" cx="137.28813559322035" cy="340" r="3" fill="#2563eb"></circle><circle class="dot" cx="138.8135593220339" cy="340" r="3" fill="#2563eb"></circle><circle class="dot" cx="140.33898305084747" cy="340" r="3" fill="#2563eb"></circle><circle class="dot" cx="141.864406779661" cy="340" r="3" fill="#2563eb"></circle><circle class="dot" cx="143.38983050847457" cy="340" r="3" fill="#2563eb"></circle><circle class="dot" cx="144.91525423728814" cy="340" r="3" fill="#2563eb"></circle><circle class="dot" cx="146.4406779661017" cy="340" r="3" fill="#2563eb"></circle><circle class="dot" cx="147.96610169491527" cy="340" r="3" fill="#2563eb"></circle><circle class="dot" cx="149.4915254237288" cy="340" r="3" fill="#2563eb"></circle><circle class="dot" cx="151.01694915254237" cy="340" r="3" fill="#2563eb"></circle><circle class="dot" cx="152.54237288135593" cy="340" r="3" fill="#2563eb"></circle><circle class="dot" cx="154.0677966101695" cy="340" r="3" fill="#2563eb"></circle><circle class="dot" cx="155.59322033898306" cy="340" r="3" fill="#2563eb"></circle><circle class="dot" cx="157.11864406779662" cy="340" r="3" fill="#2563eb"></circle><circle class="dot" cx="158.64406779661016" cy="340" r="3" fill="#2563eb"></circle><circle class="dot" cx="160.16949152542372" cy="340" r="3" fill="#2563eb"></circle><circle class="dot" cx="161.6949152542373" cy="340" r="3" fill="#2563eb"></circle><circle class="dot" cx="163.22033898305085" cy="340" r="3" fill="#2563eb"></circle><circle class="dot" cx="164.74576271186442" cy="340" r="3" fill="#2563eb"></circle><circle class="dot" cx="166.27118644067795" cy="340" r="3" fill="#2563eb"></circle><circle class="dot" cx="167.79661016949152" cy="340" r="3" fill="#2563eb"></circle><circle class="dot" cx="169.32203389830508" cy="340" r="3" fill="#2563eb"></circle><circle class="dot" cx="170.84745762711864" cy="340" r="3" fill="#2563eb"></circle><circle class="dot" cx="172.3728813559322" cy="340" r="3" fill="#2563eb"></circle><circle class="dot" cx="173.89830508474577" cy="340" r="3" fill="#2563eb"></circle><circle class="dot" cx="175.4237288135593" cy="340" r="3" fill="#2563eb"></circle><circle class="dot" cx="176.9491525423729" cy="340" r="3" fill="#2563eb"></circle><circle class="dot" cx="178.47457627118644" cy="340" r="3" fill="#2563eb"></circle><circle class="dot" cx="180" cy="340" r="3" fill="#2563eb"></circle><circle class="dot" cx="181.52542372881356" cy="340" r="3" fill="#2563eb"></circle><circle class="dot" cx="183.0508474576271" cy="340" r="3" fill="#2563eb"></circle><circle class="dot" cx="184.57627118644066" cy="340" r="3" fill="#2563eb"></circle><circle class="dot" cx="186.10169491525423" cy="340" r="3" fill="#2563eb"></circle><circle class="dot" cx="187.62711864406782" cy="340" r="3" fill="#2563eb"></circle><circle class="dot" cx="189.15254237288138" cy="340" r="3" fill="#2563eb"></circle><circle class="dot" cx="190.67796610169492" cy="340" r="3" fill="#2563eb"></circle><circle class="dot" cx="192.20338983050848" cy="340" r="3" fill="#2563eb"></circle><circle class="dot" cx="193.72881355932205" cy="340" r="3" fill="#2563eb"></circle><circle class="dot" cx="195.25423728813558" cy="340" r="3" fill="#2563eb"></circle><circle class="dot" cx="196.77966101694915" cy="340" r="3" fill="#2563eb"></circle><circle class="dot" cx="198.3050847457627" cy="340" r="3" fill="#2563eb"></circle><circle class="dot" cx="199.83050847457625" cy="340" r="3" fill="#2563eb"></circle><circle class="dot" cx="201.3559322033898" cy="340" r="3" fill="#2563eb"></circle><circle class="dot" cx="202.8813559322034" cy="340" r="3" fill="#2563eb"></circle><circle class="dot" cx="204.40677966101697" cy="340" r="3" fill="#2563eb"></circle><circle class="dot" cx="205.93220338983053" cy="340" r="3" fill="#2563eb"></circle><circle class="dot" cx="207.45762711864407" cy="340" r="3" fill="#2563eb"></circle><circle class="dot" cx="208.98305084745763" cy="340" r="3" fill="#2563eb"></circle><circle class="dot" cx="210.5084745762712" cy="340" r="3" fill="#2563eb"></circle><circle class="dot" cx="212.03389830508473" cy="340" r="3" fill="#2563eb"></circle><circle class="dot" cx="213.5593220338983" cy="340" r="3" fill="#2563eb"></circle><circle class="dot" cx="215.08474576271186" cy="340" r="3" fill="#2563eb"></circle><circle class="dot" cx="216.6101694915254" cy="340" r="3" fill="#2563eb"></circle><circle class="dot" cx="218.135593220339" cy="340" r="3" fill="#2563eb"></circle><circle class="dot" cx="219.66101694915255" cy="340" r="3" fill="#2563eb"></circle><circle class="dot" cx="221.18644067796612" cy="340" r="3" fill="#2563eb"></circle><circle class="dot" cx="222.71186440677965" cy="340" r="3" fill="#2563eb"></circle><circle class="dot" cx="224.23728813559322" cy="340" r="3" fill="#2563eb"></circle><circle class="dot" cx="225.76271186440678" cy="340" r="3" fill="#2563eb"></circle><circle class="dot" cx="227.28813559322035" cy="340" r="3" fill="#2563eb"></circle><circle class="dot" cx="228.81355932203388" cy="340" r="3" fill="#2563eb"></circle><circle class="dot" cx="230.33898305084745" cy="340" r="3" fill="#2563eb"></circle><circle class="dot" cx="231.864406779661" cy="340" r="3" fill="#2563eb"></circle><circle class="dot" cx="233.3898305084746" cy="340" r="3" fill="#2563eb"></circle><circle class="dot" cx="234.91525423728814" cy="340" r="3" fill="#2563eb"></circle><circle class="dot" cx="236.4406779661017" cy="340" r="3" fill="#2563eb"></circle><circle class="dot" cx="237.96610169491527" cy="340" r="3" fill="#2563eb"></circle><circle class="dot" cx="239.4915254237288" cy="340" r="3" fill="#2563eb"></circle><circle class="dot" cx="241.01694915254237" cy="340" r="3" fill="#2563eb"></circle><circle class="dot" cx="242.54237288135593" cy="340" r="3" fill="#2563eb"></circle><circle class="dot" cx="244.06779661016947" cy="340" r="3" fill="#2563eb"></circle><circle class="dot" cx="245.59322033898303" cy="340" r="3" fill="#2563eb"></circle><circle class="dot" cx="247.1186440677966" cy="340" r="3" fill="#2563eb"></circle><circle class="dot" cx="248.6440677966102" cy="340" r="3" fill="#2563eb"></circle><circle class="dot" cx="250.16949152542375" cy="340" r="3" fill="#2563eb"></circle><circle class="dot" cx="251.6949152542373" cy="340" r="3" fill="#2563eb"></circle><circle class="dot" cx="253.22033898305085" cy="340" r="3" fill="#2563eb"></circle><circle class="dot" cx="254.74576271186442" cy="340" r="3" fill="#2563eb"></circle><circle class="dot" cx="256.271186440678" cy="340" r="3" fill="#2563eb"></circle><circle class="dot" cx="257.79661016949154" cy="340" r="3" fill="#2563eb"></circle><circle class="dot" cx="259.32203389830505" cy="340" r="3" fill="#2563eb"></circle><circle class="dot" cx="260.8474576271186" cy="340" r="3" fill="#2563eb"></circle><circle class="dot" cx="262.3728813559322" cy="340" r="3" fill="#2563eb"></circle><circle class="dot" cx="263.8983050847458" cy="340" r="3" fill="#2563eb"></circle><circle class="dot" cx="265.4237288135593" cy="340" r="3" fill="#2563eb"></circle><circle class="dot" cx="266.9491525423729" cy="340" r="3" fill="#2563eb"></circle><circle class="dot" cx="268.47457627118644" cy="340" r="3" fill="#2563eb"></circle><circle class="dot" cx="270" cy="340" r="3" fill="#2563eb"></circle><circle class="dot" cx="271.52542372881356" cy="340" r="3" fill="#2563eb"></circle><circle class="dot" cx="273.0508474576271" cy="340" r="3" fill="#2563eb"></circle><circle class="dot" cx="274.5762711864407" cy="340" r="3" fill="#2563eb"></circle><circle class="dot" cx="276.1016949152542" cy="340" r="3" fill="#2563eb"></circle><circle class="dot" cx="277.6271186440678" cy="340" r="3" fill="#2563eb"></circle><circle class="dot" cx="279.1525423728814" cy="340" r="3" fill="#2563eb"></circle><circle class="dot" cx="280.67796610169495" cy="340" r="3" fill="#2563eb"></circle><circle class="dot" cx="282.20338983050846" cy="340" r="3" fill="#2563eb"></circle><circle class="dot" cx="283.728813559322" cy="340" r="3" fill="#2563eb"></circle><circle class="dot" cx="285.2542372881356" cy="340" r="3" fill="#2563eb"></circle><circle class="dot" cx="286.77966101694915" cy="340" r="3" fill="#2563eb"></circle><circle class="dot" cx="288.3050847457627" cy="340" r="3" fill="#2563eb"></circle><circle class="dot" cx="289.8305084745763" cy="340" r="3" fill="#2563eb"></circle><circle class="dot" cx="291.35593220338984" cy="340" r="3" fill="#2563eb"></circle><circle class="dot" cx="292.8813559322034" cy="340" r="3" fill="#2563eb"></circle><circle class="dot" cx="294.40677966101697" cy="340" r="3" fill="#2563eb"></circle><circle class="dot" cx="295.93220338983053" cy="340" r="3" fill="#2563eb"></circle><circle class="dot" cx="297.4576271186441" cy="340" r="3" fill="#2563eb"></circle><circle class="dot" cx="298.9830508474576" cy="340" r="3" fill="#2563eb"></circle><circle class="dot" cx="300.50847457627117" cy="340" r="3" fill="#2563eb"></circle><circle class="dot" cx="302.03389830508473" cy="340" r="3" fill="#2563eb"></circle><circle class="dot" cx="303.5593220338983" cy="340" r="3" fill="#2563eb"></circle><circle class="dot" cx="305.08474576271186" cy="340" r="3" fill="#2563eb"></circle><circle class="dot" cx="306.6101694915254" cy="340" r="3" fill="#2563eb"></circle><circle class="dot" cx="308.135593220339" cy="340" r="3" fill="#2563eb"></circle><circle class="dot" cx="309.66101694915255" cy="340" r="3" fill="#2563eb"></circle><circle class="dot" cx="311.1864406779661" cy="340" r="3" fill="#2563eb"></circle><circle class="dot" cx="312.7118644067797" cy="340" r="3" fill="#2563eb"></circle><circle class="dot" cx="314.23728813559325" cy="340" r="3" fill="#2563eb"></circle><circle class="dot" cx="315.76271186440675" cy="340" r="3" fill="#2563eb"></circle><circle class="dot" cx="317.2881355932203" cy="340" r="3" fill="#2563eb"></circle><circle class="dot" cx="318.8135593220339" cy="340" r="3" fill="#2563eb"></circle><circle class="dot" cx="320.33898305084745" cy="340" r="3" fill="#2563eb"></circle><circle class="dot" cx="321.864406779661" cy="340" r="3" fill="#2563eb"></circle><circle class="dot" cx="323.3898305084746" cy="340" r="3" fill="#2563eb"></circle><circle class="dot" cx="324.91525423728814" cy="340" r="3" fill="#2563eb"></circle><circle class="dot" cx="326.4406779661017" cy="340" r="3" fill="#2563eb"></circle><circle class="dot" cx="327.96610169491527" cy="340" r="3" fill="#2563eb"></circle><circle class="dot" cx="329.49152542372883" cy="340" r="3" fill="#2563eb"></circle><circle class="dot" cx="331.0169491525424" cy="340" r="3" fill="#2563eb"></circle><circle class="dot" cx="332.5423728813559" cy="340" r="3" fill="#2563eb"></circle><circle class="dot" cx="334.06779661016947" cy="340" r="3" fill="#2563eb"></circle><circle class="dot" cx="335.59322033898303" cy="340" r="3" fill="#2563eb"></circle><circle class="dot" cx="337.1186440677966" cy="340" r="3" fill="#2563eb"></circle><circle class="dot" cx="338.64406779661016" cy="340" r="3" fill="#2563eb"></circle><circle class="dot" cx="340.1694915254237" cy="340" r="3" fill="#2563eb"></circle><circle class="dot" cx="341.6949152542373" cy="340" r="3" fill="#2563eb"></circle><circle class="dot" cx="343.22033898305085" cy="340" r="3" fill="#2563eb"></circle><circle class="dot" cx="344.7457627118644" cy="340" r="3" fill="#2563eb"></circle><circle class="dot" cx="346.271186440678" cy="340" r="3" fill="#2563eb"></circle><circle class="dot" cx="347.79661016949154" cy="340" r="3" fill="#2563eb"></circle><circle class="dot" cx="349.32203389830505" cy="340" r="3" fill="#2563eb"></circle><circle class="dot" cx="350.8474576271186" cy="340" r="3" fill="#2563eb"></circle><circle class="dot" cx="352.3728813559322" cy="340" r="3" fill="#2563eb"></circle><circle class="dot" cx="353.8983050847458" cy="340" r="3" fill="#2563eb"></circle><circle class="dot" cx="355.4237288135593" cy="340" r="3" fill="#2563eb"></circle><circle class="dot" cx="356.9491525423729" cy="340" r="3" fill="#2563eb"></circle><circle class="dot" cx="358.47457627118644" cy="340" r="3" fill="#2563eb"></circle><circle class="dot" cx="360" cy="340" r="3" fill="#2563eb"></circle><circle class="dot" cx="361.52542372881356" cy="340" r="3" fill="#2563eb"></circle><circle class="dot" cx="363.0508474576271" cy="340" r="3" fill="#2563eb"></circle><circle class="dot" cx="364.5762711864407" cy="340" r="3" fill="#2563eb"></circle><circle class="dot" cx="366.1016949152542" cy="340" r="3" fill="#2563eb"></circle><circle class="dot" cx="367.62711864406776" cy="340" r="3" fill="#2563eb"></circle><circle class="dot" cx="369.1525423728813" cy="340" r="3" fill="#2563eb"></circle><circle class="dot" cx="370.6779661016949" cy="340" r="3" fill="#2563eb"></circle><circle class="dot" cx="372.20338983050846" cy="340" r="3" fill="#2563eb"></circle><circle class="dot" cx="373.728813559322" cy="340" r="3" fill="#2563eb"></circle><circle class="dot" cx="375.25423728813564" cy="340" r="3" fill="#2563eb"></circle><circle class="dot" cx="376.7796610169492" cy="340" r="3" fill="#2563eb"></circle><circle class="dot" cx="378.30508474576277" cy="340" r="3" fill="#2563eb"></circle><circle class="dot" cx="379.8305084745763" cy="340" r="3" fill="#2563eb"></circle><circle class="dot" cx="381.35593220338984" cy="340" r="3" fill="#2563eb"></circle><circle class="dot" cx="382.8813559322034" cy="340" r="3" fill="#2563eb"></circle><circle class="dot" cx="384.40677966101697" cy="340" r="3" fill="#2563eb"></circle><circle class="dot" cx="385.93220338983053" cy="340" r="3" fill="#2563eb"></circle><circle class="dot" cx="387.4576271186441" cy="340" r="3" fill="#2563eb"></circle><circle class="dot" cx="388.9830508474576" cy="340" r="3" fill="#2563eb"></circle><circle class="dot" cx="390.50847457627117" cy="340" r="3" fill="#2563eb"></circle><circle class="dot" cx="392.03389830508473" cy="340" r="3" fill="#2563eb"></circle><circle class="dot" cx="393.5593220338983" cy="340" r="3" fill="#2563eb"></circle><circle class="dot" cx="395.08474576271186" cy="340" r="3" fill="#2563eb"></circle><circle class="dot" cx="396.6101694915254" cy="340" r="3" fill="#2563eb"></circle><circle class="dot" cx="398.13559322033893" cy="340" r="3" fill="#2563eb"></circle><circle class="dot" cx="399.6610169491525" cy="340" r="3" fill="#2563eb"></circle><circle class="dot" cx="401.18644067796606" cy="340" r="3" fill="#2563eb"></circle><circle class="dot" cx="402.7118644067796" cy="340" r="3" fill="#2563eb"></circle><circle class="dot" cx="404.2372881355932" cy="340" r="3" fill="#2563eb"></circle><circle class="dot" cx="405.7627118644068" cy="340" r="3" fill="#2563eb"></circle><circle class="dot" cx="407.2881355932204" cy="340" r="3" fill="#2563eb"></circle><circle class="dot" cx="408.81355932203394" cy="340" r="3" fill="#2563eb"></circle><circle class="dot" cx="410.3389830508475" cy="340" r="3" fill="#2563eb"></circle><circle class="dot" cx="411.86440677966107" cy="340" r="3" fill="#2563eb"></circle><circle class="dot" cx="413.3898305084746" cy="340" r="3" fill="#2563eb"></circle><circle class="dot" cx="414.91525423728814" cy="340" r="3" fill="#2563eb"></circle><circle class="dot" cx="416.4406779661017" cy="340" r="3" fill="#2563eb"></circle><circle class="dot" cx="417.96610169491527" cy="340" r="3" fill="#2563eb"></circle><circle class="dot" cx="419.49152542372883" cy="340" r="3" fill="#2563eb"></circle><circle class="dot" cx="421.0169491525424" cy="340" r="3" fill="#2563eb"></circle><circle class="dot" cx="422.5423728813559" cy="340" r="3" fill="#2563eb"></circle><circle class="dot" cx="424.06779661016947" cy="340" r="3" fill="#2563eb"></circle><circle class="dot" cx="425.59322033898303" cy="340" r="3" fill="#2563eb"></circle><circle class="dot" cx="427.1186440677966" cy="340" r="3" fill="#2563eb"></circle><circle class="dot" cx="428.64406779661016" cy="340" r="3" fill="#2563eb"></circle><circle class="dot" cx="430.1694915254237" cy="340" r="3" fill="#2563eb"></circle><circle class="dot" cx="431.69491525423723" cy="340" r="3" fill="#2563eb"></circle><circle class="dot" cx="433.2203389830508" cy="340" r="3" fill="#2563eb"></circle><circle class="dot" cx="434.74576271186436" cy="340" r="3" fill="#2563eb"></circle><circle class="dot" cx="436.271186440678" cy="340" r="3" fill="#2563eb"></circle><circle class="dot" cx="437.79661016949154" cy="340" r="3" fill="#2563eb"></circle><circle class="dot" cx="439.3220338983051" cy="340" r="3" fill="#2563eb"></circle><circle class="dot" cx="440.8474576271187" cy="340" r="3" fill="#2563eb"></circle><circle class="dot" cx="442.37288135593224" cy="340" r="3" fill="#2563eb"></circle><circle class="dot" cx="443.8983050847458" cy="340" r="3" fill="#2563eb"></circle><circle class="dot" cx="445.4237288135593" cy="340" r="3" fill="#2563eb"></circle><circle class="dot" cx="446.9491525423729" cy="340" r="3" fill="#2563eb"></circle><circle class="dot" cx="448.47457627118644" cy="340" r="3" fill="#2563eb"></circle><circle class="dot" cx="450" cy="340" r="3" fill="#2563eb"></circle><circle class="dot" cx="451.52542372881356" cy="340" r="3" fill="#2563eb"></circle><circle class="dot" cx="453.0508474576271" cy="340" r="3" fill="#2563eb"></circle><circle class="dot" cx="454.5762711864407" cy="340" r="3" fill="#2563eb"></circle><circle class="dot" cx="456.1016949152542" cy="340" r="3" fill="#2563eb"></circle><circle class="dot" cx="457.62711864406776" cy="340" r="3" fill="#2563eb"></circle><circle class="dot" cx="459.1525423728813" cy="340" r="3" fill="#2563eb"></circle><circle class="dot" cx="460.6779661016949" cy="340" r="3" fill="#2563eb"></circle><circle class="dot" cx="462.20338983050846" cy="340" r="3" fill="#2563eb"></circle><circle class="dot" cx="463.728813559322" cy="340" r="3" fill="#2563eb"></circle><circle class="dot" cx="465.25423728813564" cy="340" r="3" fill="#2563eb"></circle><circle class="dot" cx="466.7796610169492" cy="340" r="3" fill="#2563eb"></circle><circle class="dot" cx="468.30508474576277" cy="340" r="3" fill="#2563eb"></circle><circle class="dot" cx="469.8305084745763" cy="340" r="3" fill="#2563eb"></circle><circle class="dot" cx="471.35593220338984" cy="340" r="3" fill="#2563eb"></circle><circle class="dot" cx="472.8813559322034" cy="340" r="3" fill="#2563eb"></circle><circle class="dot" cx="474.40677966101697" cy="340" r="3" fill="#2563eb"></circle><circle class="dot" cx="475.93220338983053" cy="340" r="3" fill="#2563eb"></circle><circle class="dot" cx="477.4576271186441" cy="340" r="3" fill="#2563eb"></circle><circle class="dot" cx="478.9830508474576" cy="340" r="3" fill="#2563eb"></circle><circle class="dot" cx="480.50847457627117" cy="340" r="3" fill="#2563eb"></circle><circle class="dot" cx="482.03389830508473" cy="340" r="3" fill="#2563eb"></circle><circle class="dot" cx="483.5593220338983" cy="340" r="3" fill="#2563eb"></circle><circle class="dot" cx="485.08474576271186" cy="340" r="3" fill="#2563eb"></circle><circle class="dot" cx="486.6101694915254" cy="340" r="3" fill="#2563eb"></circle><circle class="dot" cx="488.13559322033893" cy="340" r="3" fill="#2563eb"></circle><circle class="dot" cx="489.6610169491525" cy="340" r="3" fill="#2563eb"></circle><circle class="dot" cx="491.18644067796606" cy="340" r="3" fill="#2563eb"></circle><circle class="dot" cx="492.7118644067796" cy="340" r="3" fill="#2563eb"></circle><circle class="dot" cx="494.2372881355932" cy="340" r="3" fill="#2563eb"></circle><circle class="dot" cx="495.7627118644068" cy="340" r="3" fill="#2563eb"></circle><circle class="dot" cx="497.2881355932204" cy="340" r="3" fill="#2563eb"></circle><circle class="dot" cx="498.81355932203394" cy="340" r="3" fill="#2563eb"></circle><circle class="dot" cx="500.3389830508475" cy="340" r="3" fill="#2563eb"></circle><circle class="dot" cx="501.86440677966107" cy="340" r="3" fill="#2563eb"></circle><circle class="dot" cx="503.3898305084746" cy="340" r="3" fill="#2563eb"></circle><circle class="dot" cx="504.91525423728814" cy="340" r="3" fill="#2563eb"></circle><circle class="dot" cx="506.4406779661017" cy="340" r="3" fill="#2563eb"></circle><circle class="dot" cx="507.96610169491527" cy="340" r="3" fill="#2563eb"></circle><circle class="dot" cx="509.49152542372883" cy="340" r="3" fill="#2563eb"></circle><circle class="dot" cx="511.0169491525424" cy="340" r="3" fill="#2563eb"></circle><circle class="dot" cx="512.542372881356" cy="340" r="3" fill="#2563eb"></circle><circle class="dot" cx="514.0677966101695" cy="340" r="3" fill="#2563eb"></circle><circle class="dot" cx="515.5932203389831" cy="0" r="3" fill="#2563eb"></circle><circle class="dot" cx="517.1186440677966" cy="0" r="3" fill="#2563eb"></circle><circle class="dot" cx="518.6440677966101" cy="0" r="3" fill="#2563eb"></circle><circle class="dot" cx="520.1694915254237" cy="0" r="3" fill="#2563eb"></circle><circle class="dot" cx="521.6949152542372" cy="0" r="3" fill="#2563eb"></circle><circle class="dot" cx="523.2203389830509" cy="0" r="3" fill="#2563eb"></circle><circle class="dot" cx="524.7457627118644" cy="0" r="3" fill="#2563eb"></circle><circle class="dot" cx="526.271186440678" cy="0" r="3" fill="#2563eb"></circle><circle class="dot" cx="527.7966101694916" cy="0" r="3" fill="#2563eb"></circle><circle class="dot" cx="529.3220338983051" cy="0" r="3" fill="#2563eb"></circle><circle class="dot" cx="530.8474576271186" cy="0" r="3" fill="#2563eb"></circle><circle class="dot" cx="532.3728813559322" cy="0" r="3" fill="#2563eb"></circle><circle class="dot" cx="533.8983050847457" cy="0" r="3" fill="#2563eb"></circle><circle class="dot" cx="535.4237288135594" cy="0" r="3" fill="#2563eb"></circle><circle class="dot" cx="536.9491525423729" cy="0" r="3" fill="#2563eb"></circle><circle class="dot" cx="538.4745762711865" cy="0" r="3" fill="#2563eb"></circle><circle class="dot" cx="540" cy="0" r="3" fill="#2563eb"></circle><circle class="dot" cx="541.5254237288135" cy="0" r="3" fill="#2563eb"></circle><circle class="dot" cx="543.0508474576271" cy="0" r="3" fill="#2563eb"></circle><circle class="dot" cx="544.5762711864406" cy="0" r="3" fill="#2563eb"></circle><circle class="dot" cx="546.1016949152543" cy="0" r="3" fill="#2563eb"></circle><circle class="dot" cx="547.6271186440678" cy="0" r="3" fill="#2563eb"></circle><circle class="dot" cx="549.1525423728814" cy="0" r="3" fill="#2563eb"></circle><circle class="dot" cx="550.6779661016949" cy="0" r="3" fill="#2563eb"></circle><circle class="dot" cx="552.2033898305084" cy="0" r="3" fill="#2563eb"></circle><circle class="dot" cx="553.728813559322" cy="0" r="3" fill="#2563eb"></circle><circle class="dot" cx="555.2542372881356" cy="0" r="3" fill="#2563eb"></circle><circle class="dot" cx="556.7796610169491" cy="0" r="3" fill="#2563eb"></circle><circle class="dot" cx="558.3050847457628" cy="0" r="3" fill="#2563eb"></circle><circle class="dot" cx="559.8305084745763" cy="0" r="3" fill="#2563eb"></circle><circle class="dot" cx="561.3559322033899" cy="0" r="3" fill="#2563eb"></circle><circle class="dot" cx="562.8813559322034" cy="0" r="3" fill="#2563eb"></circle><circle class="dot" cx="564.4067796610169" cy="0" r="3" fill="#2563eb"></circle><circle class="dot" cx="565.9322033898305" cy="0" r="3" fill="#2563eb"></circle><circle class="dot" cx="567.457627118644" cy="0" r="3" fill="#2563eb"></circle><circle class="dot" cx="568.9830508474577" cy="0" r="3" fill="#2563eb"></circle><circle class="dot" cx="570.5084745762712" cy="0" r="3" fill="#2563eb"></circle><circle class="dot" cx="572.0338983050848" cy="0" r="3" fill="#2563eb"></circle><circle class="dot" cx="573.5593220338983" cy="0" r="3" fill="#2563eb"></circle><circle class="dot" cx="575.0847457627118" cy="0" r="3" fill="#2563eb"></circle><circle class="dot" cx="576.6101694915254" cy="0" r="3" fill="#2563eb"></circle><circle class="dot" cx="578.1355932203389" cy="0" r="3" fill="#2563eb"></circle><circle class="dot" cx="579.6610169491526" cy="0" r="3" fill="#2563eb"></circle><circle class="dot" cx="581.1864406779661" cy="0" r="3" fill="#2563eb"></circle><circle class="dot" cx="582.7118644067797" cy="0" r="3" fill="#2563eb"></circle><circle class="dot" cx="584.2372881355932" cy="0" r="3" fill="#2563eb"></circle><circle class="dot" cx="585.7627118644068" cy="0" r="3" fill="#2563eb"></circle><circle class="dot" cx="587.2881355932203" cy="0" r="3" fill="#2563eb"></circle><circle class="dot" cx="588.8135593220339" cy="0" r="3" fill="#2563eb"></circle><circle class="dot" cx="590.3389830508474" cy="0" r="3" fill="#2563eb"></circle><circle class="dot" cx="591.8644067796611" cy="0" r="3" fill="#2563eb"></circle><circle class="dot" cx="593.3898305084746" cy="0" r="3" fill="#2563eb"></circle><circle class="dot" cx="594.9152542372882" cy="0" r="3" fill="#2563eb"></circle><circle class="dot" cx="596.4406779661017" cy="0" r="3" fill="#2563eb"></circle><circle class="dot" cx="597.9661016949152" cy="0" r="3" fill="#2563eb"></circle><circle class="dot" cx="599.4915254237288" cy="0" r="3" fill="#2563eb"></circle><circle class="dot" cx="601.0169491525423" cy="0" r="3" fill="#2563eb"></circle><circle class="dot" cx="602.542372881356" cy="0" r="3" fill="#2563eb"></circle><circle class="dot" cx="604.0677966101695" cy="0" r="3" fill="#2563eb"></circle><circle class="dot" cx="605.5932203389831" cy="0" r="3" fill="#2563eb"></circle><circle class="dot" cx="607.1186440677966" cy="0" r="3" fill="#2563eb"></circle><circle class="dot" cx="608.6440677966101" cy="0" r="3" fill="#2563eb"></circle><circle class="dot" cx="610.1694915254237" cy="0" r="3" fill="#2563eb"></circle><circle class="dot" cx="611.6949152542372" cy="0" r="3" fill="#2563eb"></circle><circle class="dot" cx="613.2203389830509" cy="0" r="3" fill="#2563eb"></circle><circle class="dot" cx="614.7457627118644" cy="0" r="3" fill="#2563eb"></circle><circle class="dot" cx="616.271186440678" cy="0" r="3" fill="#2563eb"></circle><circle class="dot" cx="617.7966101694916" cy="0" r="3" fill="#2563eb"></circle><circle class="dot" cx="619.3220338983051" cy="0" r="3" fill="#2563eb"></circle><circle class="dot" cx="620.8474576271186" cy="0" r="3" fill="#2563eb"></circle><circle class="dot" cx="622.3728813559322" cy="0" r="3" fill="#2563eb"></circle><circle class="dot" cx="623.8983050847457" cy="0" r="3" fill="#2563eb"></circle><circle class="dot" cx="625.4237288135594" cy="0" r="3" fill="#2563eb"></circle><circle class="dot" cx="626.9491525423729" cy="0" r="3" fill="#2563eb"></circle><circle class="dot" cx="628.4745762711865" cy="0" r="3" fill="#2563eb"></circle><circle class="dot" cx="630" cy="0" r="3" fill="#2563eb"></circle><circle class="dot" cx="631.5254237288135" cy="0" r="3" fill="#2563eb"></circle><circle class="dot" cx="633.0508474576271" cy="0" r="3" fill="#2563eb"></circle><circle class="dot" cx="634.5762711864406" cy="0" r="3" fill="#2563eb"></circle><circle class="dot" cx="636.1016949152543" cy="0" r="3" fill="#2563eb"></circle><circle class="dot" cx="637.6271186440678" cy="0" r="3" fill="#2563eb"></circle><circle class="dot" cx="639.1525423728814" cy="0" r="3" fill="#2563eb"></circle><circle class="dot" cx="640.6779661016949" cy="0" r="3" fill="#2563eb"></circle><circle class="dot" cx="642.2033898305084" cy="0" r="3" fill="#2563eb"></circle><circle class="dot" cx="643.728813559322" cy="0" r="3" fill="#2563eb"></circle><circle class="dot" cx="645.2542372881356" cy="0" r="3" fill="#2563eb"></circle><circle class="dot" cx="646.7796610169491" cy="0" r="3" fill="#2563eb"></circle><circle class="dot" cx="648.3050847457628" cy="0" r="3" fill="#2563eb"></circle><circle class="dot" cx="649.8305084745763" cy="0" r="3" fill="#2563eb"></circle><circle class="dot" cx="651.3559322033899" cy="0" r="3" fill="#2563eb"></circle><circle class="dot" cx="652.8813559322034" cy="0" r="3" fill="#2563eb"></circle><circle class="dot" cx="654.4067796610169" cy="0" r="3" fill="#2563eb"></circle><circle class="dot" cx="655.9322033898305" cy="0" r="3" fill="#2563eb"></circle><circle class="dot" cx="657.457627118644" cy="0" r="3" fill="#2563eb"></circle><circle class="dot" cx="658.9830508474577" cy="0" r="3" fill="#2563eb"></circle><circle class="dot" cx="660.5084745762712" cy="0" r="3" fill="#2563eb"></circle><circle class="dot" cx="662.0338983050848" cy="0" r="3" fill="#2563eb"></circle><circle class="dot" cx="663.5593220338983" cy="0" r="3" fill="#2563eb"></circle><circle class="dot" cx="665.0847457627118" cy="0" r="3" fill="#2563eb"></circle><circle class="dot" cx="666.6101694915254" cy="0" r="3" fill="#2563eb"></circle><circle class="dot" cx="668.1355932203389" cy="0" r="3" fill="#2563eb"></circle><circle class="dot" cx="669.6610169491526" cy="0" r="3" fill="#2563eb"></circle><circle class="dot" cx="671.1864406779661" cy="0" r="3" fill="#2563eb"></circle><circle class="dot" cx="672.7118644067797" cy="0" r="3" fill="#2563eb"></circle><circle class="dot" cx="674.2372881355932" cy="0" r="3" fill="#2563eb"></circle><circle class="dot" cx="675.7627118644068" cy="0" r="3" fill="#2563eb"></circle><circle class="dot" cx="677.2881355932203" cy="0" r="3" fill="#2563eb"></circle><circle class="dot" cx="678.8135593220339" cy="0" r="3" fill="#2563eb"></circle><circle class="dot" cx="680.3389830508474" cy="0" r="3" fill="#2563eb"></circle><circle class="dot" cx="681.8644067796611" cy="0" r="3" fill="#2563eb"></circle><circle class="dot" cx="683.3898305084746" cy="0" r="3" fill="#2563eb"></circle><circle class="dot" cx="684.9152542372882" cy="0" r="3" fill="#2563eb"></circle><circle class="dot" cx="686.4406779661017" cy="0" r="3" fill="#2563eb"></circle><circle class="dot" cx="687.9661016949152" cy="0" r="3" fill="#2563eb"></circle><circle class="dot" cx="689.4915254237288" cy="0" r="3" fill="#2563eb"></circle><circle class="dot" cx="691.0169491525423" cy="0" r="3" fill="#2563eb"></circle><circle class="dot" cx="692.542372881356" cy="0" r="3" fill="#2563eb"></circle><circle class="dot" cx="694.0677966101695" cy="0" r="3" fill="#2563eb"></circle><circle class="dot" cx="695.5932203389831" cy="0" r="3" fill="#2563eb"></circle><circle class="dot" cx="697.1186440677966" cy="0" r="3" fill="#2563eb"></circle><circle class="dot" cx="698.6440677966101" cy="0" r="3" fill="#2563eb"></circle><circle class="dot" cx="700.1694915254237" cy="0" r="3" fill="#2563eb"></circle><circle class="dot" cx="701.6949152542372" cy="0" r="3" fill="#2563eb"></circle><circle class="dot" cx="703.2203389830509" cy="0" r="3" fill="#2563eb"></circle><circle class="dot" cx="704.7457627118644" cy="0" r="3" fill="#2563eb"></circle><circle class="dot" cx="706.271186440678" cy="0" r="3" fill="#2563eb"></circle><circle class="dot" cx="707.7966101694916" cy="0" r="3" fill="#2563eb"></circle><circle class="dot" cx="709.3220338983051" cy="0" r="3" fill="#2563eb"></circle><circle class="dot" cx="710.8474576271186" cy="0" r="3" fill="#2563eb"></circle><circle class="dot" cx="712.3728813559322" cy="0" r="3" fill="#2563eb"></circle><circle class="dot" cx="713.8983050847457" cy="0" r="3" fill="#2563eb"></circle><circle class="dot" cx="715.4237288135594" cy="0" r="3" fill="#2563eb"></circle><circle class="dot" cx="716.9491525423729" cy="0" r="3" fill="#2563eb"></circle><circle class="dot" cx="718.4745762711865" cy="0" r="3" fill="#2563eb"></circle><circle class="dot" cx="720" cy="0" r="3" fill="#2563eb"></circle><g class="grid" transform="translate(0,340)" fill="none" font-size="10" font-family="sans-serif" text-anchor="middle" style="stroke-dasharray: 3,3; opacity: 0.3;"><path class="domain" stroke="currentColor" d="M0.5,-340V0.5H720.5V-340"></path><g class="tick" opacity="1" transform="translate(0.5,0)"><line stroke="currentColor" y2="-340"></line><text fill="currentColor" y="3" dy="0.71em"></text></g><g class="tick" opacity="1" transform="translate(37.110169491525426,0)"><line stroke="currentColor" y2="-340"></line><text fill="currentColor" y="3" dy="0.71em"></text></g><g class="tick" opacity="1" transform="translate(73.72033898305085,0)"><line stroke="currentColor" y2="-340"></line><text fill="currentColor" y="3" dy="0.71em"></text></g><g class="tick" opacity="1" transform="translate(110.33050847457628,0)"><line stroke="currentColor" y2="-340"></line><text fill="currentColor" y="3" dy="0.71em"></text></g><g class="tick" opacity="1" transform="translate(146.9406779661017,0)"><line stroke="currentColor" y2="-340"></line><text fill="currentColor" y="3" dy="0.71em"></text></g><g class="tick" opacity="1" transform="translate(183.5508474576271,0)"><line stroke="currentColor" y2="-340"></line><text fill="currentColor" y="3" dy="0.71em"></text></g><g class="tick" opacity="1" transform="translate(220.16101694915255,0)"><line stroke="currentColor" y2="-340"></line><text fill="currentColor" y="3" dy="0.71em"></text></g><g class="tick" opacity="1" transform="translate(256.771186440678,0)"><line stroke="currentColor" y2="-340"></line><text fill="currentColor" y="3" dy="0.71em"></text></g><g class="tick" opacity="1" transform="translate(293.3813559322034,0)"><line stroke="currentColor" y2="-340"></line><text fill="currentColor" y="3" dy="0.71em"></text></g><g class="tick" opacity="1" transform="translate(329.99152542372883,0)"><line stroke="currentColor" y2="-340"></line><text fill="currentColor" y="3" dy="0.71em"></text></g><g class="tick" opacity="1" transform="translate(366.6016949152542,0)"><line stroke="currentColor" y2="-340"></line><text fill="currentColor" y="3" dy="0.71em"></text></g><g class="tick" opacity="1" transform="translate(403.2118644067796,0)"><line stroke="currentColor" y2="-340"></line><text fill="currentColor" y="3" dy="0.71em"></text></g><g class="tick" opacity="1" transform="translate(439.8220338983051,0)"><line stroke="currentColor" y2="-340"></line><text fill="currentColor" y="3" dy="0.71em"></text></g><g class="tick" opacity="1" transform="translate(476.43220338983053,0)"><line stroke="currentColor" y2="-340"></line><text fill="currentColor" y="3" dy="0.71em"></text></g><g class="tick" opacity="1" transform="translate(513.042372881356,0)"><line stroke="currentColor" y2="-340"></line><text fill="currentColor" y="3" dy="0.71em"></text></g><g class="tick" opacity="1" transform="translate(549.6525423728814,0)"><line stroke="currentColor" y2="-340"></line><text fill="currentColor" y="3" dy="0.71em"></text></g><g class="tick" opacity="1" transform="translate(586.2627118644068,0)"><line stroke="currentColor" y2="-340"></line><text fill="currentColor" y="3" dy="0.71em"></text></g><g class="tick" opacity="1" transform="translate(622.8728813559322,0)"><line stroke="currentColor" y2="-340"></line><text fill="currentColor" y="3" dy="0.71em"></text></g><g class="tick" opacity="1" transform="translate(659.4830508474577,0)"><line stroke="currentColor" y2="-340"></line><text fill="currentColor" y="3" dy="0.71em"></text></g><g class="tick" opacity="1" transform="translate(696.0932203389831,0)"><line stroke="currentColor" y2="-340"></line><text fill="currentColor" y="3" dy="0.71em"></text></g></g><g class="grid" fill="none" font-size="10" font-family="sans-serif" text-anchor="end" style="stroke-dasharray: 3,3; opacity: 0.3;"><path class="domain" stroke="currentColor" d="M720,340.5H0.5V0.5H720"></path><g class="tick" opacity="1" transform="translate(0,340.5)"><line stroke="currentColor" x2="720"></line><text fill="currentColor" x="-3" dy="0.32em"></text></g><g class="tick" opacity="1" transform="translate(0,312.16666666666663)"><line stroke="currentColor" x2="720"></line><text fill="currentColor" x="-3" dy="0.32em"></text></g><g class="tick" opacity="1" transform="translate(0,283.83333333333326)"><line stroke="currentColor" x2="720"></line><text fill="currentColor" x="-3" dy="0.32em"></text></g><g class="tick" opacity="1" transform="translate(0,255.49999999999991)"><line stroke="currentColor" x2="720"></line><text fill="currentColor" x="-3" dy="0.32em"></text></g><g class="tick" opacity="1" transform="translate(0,227.16666666666654)"><line stroke="currentColor" x2="720"></line><text fill="currentColor" x="-3" dy="0.32em"></text></g><g class="tick" opacity="1" transform="translate(0,198.83333333333314)"><line stroke="currentColor" x2="720"></line><text fill="currentColor" x="-3" dy="0.32em"></text></g><g class="tick" opacity="1" transform="translate(0,170.4999999999998)"><line stroke="currentColor" x2="720"></line><text fill="currentColor" x="-3" dy="0.32em"></text></g><g class="tick" opacity="1" transform="translate(0,142.16666666666686)"><line stroke="currentColor" x2="720"></line><text fill="currentColor" x="-3" dy="0.32em"></text></g><g class="tick" opacity="1" transform="translate(0,113.83333333333346)"><line stroke="currentColor" x2="720"></line><text fill="currentColor" x="-3" dy="0.32em"></text></g><g class="tick" opacity="1" transform="translate(0,85.50000000000011)"><line stroke="currentColor" x2="720"></line><text fill="currentColor" x="-3" dy="0.32em"></text></g><g class="tick" opacity="1" transform="translate(0,57.16666666666673)"><line stroke="currentColor" x2="720"></line><text fill="currentColor" x="-3" dy="0.32em"></text></g><g class="tick" opacity="1" transform="translate(0,28.833333333333385)"><line stroke="currentColor" x2="720"></line><text fill="currentColor" x="-3" dy="0.32em"></text></g><g class="tick" opacity="1" transform="translate(0,0.5)"><line stroke="currentColor" x2="720"></line><text fill="currentColor" x="-3" dy="0.32em"></text></g></g></g><text x="400" y="10" text-anchor="middle" style="font-size: 16px; font-weight: bold; fill: #333;">OKX USDT Lending Rate - Current Month</text></svg>