<svg width="800" height="400" xmlns="http://www.w3.org/2000/svg"><g transform="translate(50,20)"><g transform="translate(0,340)" fill="none" font-size="10" font-family="sans-serif" text-anchor="middle"><path class="domain" stroke="currentColor" d="M0.5,6V0.5H720.5V6"></path><g class="tick" opacity="1" transform="translate(0.5,0)"><line stroke="currentColor" y2="6"></line><text fill="currentColor" y="9" dy=".15em" style="text-anchor: end;" dx="-.8em" transform="rotate(-45)">01/01</text></g><g class="tick" opacity="1" transform="translate(73.4113924050633,0)"><line stroke="currentColor" y2="6"></line><text fill="currentColor" y="9" dy=".15em" style="text-anchor: end;" dx="-.8em" transform="rotate(-45)">01/02</text></g><g class="tick" opacity="1" transform="translate(146.3227848101266,0)"><line stroke="currentColor" y2="6"></line><text fill="currentColor" y="9" dy=".15em" style="text-anchor: end;" dx="-.8em" transform="rotate(-45)">01/03</text></g><g class="tick" opacity="1" transform="translate(219.23417721518987,0)"><line stroke="currentColor" y2="6"></line><text fill="currentColor" y="9" dy=".15em" style="text-anchor: end;" dx="-.8em" transform="rotate(-45)">01/04</text></g><g class="tick" opacity="1" transform="translate(292.1455696202532,0)"><line stroke="currentColor" y2="6"></line><text fill="currentColor" y="9" dy=".15em" style="text-anchor: end;" dx="-.8em" transform="rotate(-45)">01/05</text></g><g class="tick" opacity="1" transform="translate(365.05696202531647,0)"><line stroke="currentColor" y2="6"></line><text fill="currentColor" y="9" dy=".15em" style="text-anchor: end;" dx="-.8em" transform="rotate(-45)">01/06</text></g><g class="tick" opacity="1" transform="translate(437.96835443037975,0)"><line stroke="currentColor" y2="6"></line><text fill="currentColor" y="9" dy=".15em" style="text-anchor: end;" dx="-.8em" transform="rotate(-45)">01/07</text></g><g class="tick" opacity="1" transform="translate(510.87974683544303,0)"><line stroke="currentColor" y2="6"></line><text fill="currentColor" y="9" dy=".15em" style="text-anchor: end;" dx="-.8em" transform="rotate(-45)">01/08</text></g><g class="tick" opacity="1" transform="translate(583.7911392405064,0)"><line stroke="currentColor" y2="6"></line><text fill="currentColor" y="9" dy=".15em" style="text-anchor: end;" dx="-.8em" transform="rotate(-45)">01/09</text></g><g class="tick" opacity="1" transform="translate(656.7025316455696,0)"><line stroke="currentColor" y2="6"></line><text fill="currentColor" y="9" dy=".15em" style="text-anchor: end;" dx="-.8em" transform="rotate(-45)">01/10</text></g></g><g fill="none" font-size="10" font-family="sans-serif" text-anchor="end"><path class="domain" stroke="currentColor" d="M-6,340.5H0.5V0.5H-6"></path><g class="tick" opacity="1" transform="translate(0,170.5)"><line stroke="currentColor" x2="-6"></line><text fill="currentColor" x="-9" dy="0.32em">3.20%</text></g></g><text transform="rotate(-90)" y="-50" x="-170" dy="1em" style="text-anchor: middle; font-size: 12px; fill: #666;">Pre Rate (%)</text><text transform="translate(360, 380)" style="text-anchor: middle; font-size: 12px; fill: #666;">Time (UTC)</text><path fill="none" stroke="#2563eb" stroke-width="2" d="M0,170C1.013,170,2.025,170,3.038,170C4.051,170,5.063,170,6.076,170C7.089,170,8.101,170,9.114,170C10.127,170,11.139,170,12.152,170C13.165,170,14.177,170,15.19,170C16.203,170,17.215,170,18.228,170C19.241,170,20.253,170,21.266,170C22.278,170,23.291,170,24.304,170C25.316,170,26.329,170,27.342,170C28.354,170,29.367,170,30.38,170C31.392,170,32.405,170,33.418,170C34.43,170,35.443,170,36.456,170C37.468,170,38.481,170,39.494,170C40.506,170,41.519,170,42.532,170C43.544,170,44.557,170,45.57,170C46.582,170,47.595,170,48.608,170C49.62,170,50.633,170,51.646,170C52.658,170,53.671,170,54.684,170C55.696,170,56.709,170,57.722,170C58.734,170,59.747,170,60.759,170C61.772,170,62.785,170,63.797,170C64.81,170,65.823,170,66.835,170C67.848,170,68.861,170,69.873,170C70.886,170,71.899,170,72.911,170C73.924,170,74.937,170,75.949,170C76.962,170,77.975,170,78.987,170C80,170,81.013,170,82.025,170C83.038,170,84.051,170,85.063,170C86.076,170,87.089,170,88.101,170C89.114,170,90.127,170,91.139,170C92.152,170,93.165,170,94.177,170C95.19,170,96.203,170,97.215,170C98.228,170,99.241,170,100.253,170C101.266,170,102.278,170,103.291,170C104.304,170,105.316,170,106.329,170C107.342,170,108.354,170,109.367,170C110.38,170,111.392,170,112.405,170C113.418,170,114.43,170,115.443,170C116.456,170,117.468,170,118.481,170C119.494,170,120.506,170,121.519,170C122.532,170,123.544,170,124.557,170C125.57,170,126.582,170,127.595,170C128.608,170,129.62,170,130.633,170C131.646,170,132.658,170,133.671,170C134.684,170,135.696,170,136.709,170C137.722,170,138.734,170,139.747,170C140.759,170,141.772,170,142.785,170C143.797,170,144.81,170,145.823,170C146.835,170,147.848,170,148.861,170C149.873,170,150.886,170,151.899,170C152.911,170,153.924,170,154.937,170C155.949,170,156.962,170,157.975,170C158.987,170,160,170,161.013,170C162.025,170,163.038,170,164.051,170C165.063,170,166.076,170,167.089,170C168.101,170,169.114,170,170.127,170C171.139,170,172.152,170,173.165,170C174.177,170,175.19,170,176.203,170C177.215,170,178.228,170,179.241,170C180.253,170,181.266,170,182.278,170C183.291,170,184.304,170,185.316,170C186.329,170,187.342,170,188.354,170C189.367,170,190.38,170,191.392,170C192.405,170,193.418,170,194.43,170C195.443,170,196.456,170,197.468,170C198.481,170,199.494,170,200.506,170C201.519,170,202.532,170,203.544,170C204.557,170,205.57,170,206.582,170C207.595,170,208.608,170,209.62,170C210.633,170,211.646,170,212.658,170C213.671,170,214.684,170,215.696,170C216.709,170,217.722,170,218.734,170C219.747,170,220.759,170,221.772,170C222.785,170,223.797,170,224.81,170C225.823,170,226.835,170,227.848,170C228.861,170,229.873,170,230.886,170C231.899,170,232.911,170,233.924,170C234.937,170,235.949,170,236.962,170C237.975,170,238.987,170,240,170C241.013,170,242.025,170,243.038,170C244.051,170,245.063,170,246.076,170C247.089,170,248.101,170,249.114,170C250.127,170,251.139,170,252.152,170C253.165,170,254.177,170,255.19,170C256.203,170,257.215,170,258.228,170C259.241,170,260.253,170,261.266,170C262.278,170,263.291,170,264.304,170C265.316,170,266.329,170,267.342,170C268.354,170,269.367,170,270.38,170C271.392,170,272.405,170,273.418,170C274.43,170,275.443,170,276.456,170C277.468,170,278.481,170,279.494,170C280.506,170,281.519,170,282.532,170C283.544,170,284.557,170,285.57,170C286.582,170,287.595,170,288.608,170C289.62,170,290.633,170,291.646,170C292.658,170,293.671,170,294.684,170C295.696,170,296.709,170,297.722,170C298.734,170,299.747,170,300.759,170C301.772,170,302.785,170,303.797,170C304.81,170,305.823,170,306.835,170C307.848,170,308.861,170,309.873,170C310.886,170,311.899,170,312.911,170C313.924,170,314.937,170,315.949,170C316.962,170,317.975,170,318.987,170C320,170,321.013,170,322.025,170C323.038,170,324.051,170,325.063,170C326.076,170,327.089,170,328.101,170C329.114,170,330.127,170,331.139,170C332.152,170,333.165,170,334.177,170C335.19,170,336.203,170,337.215,170C338.228,170,339.241,170,340.253,170C341.266,170,342.278,170,343.291,170C344.304,170,345.316,170,346.329,170C347.342,170,348.354,170,349.367,170C350.38,170,351.392,170,352.405,170C353.418,170,354.43,170,355.443,170C356.456,170,357.468,170,358.481,170C359.494,170,360.506,170,361.519,170C362.532,170,363.544,170,364.557,170C365.57,170,366.582,170,367.595,170C368.608,170,369.62,170,370.633,170C371.646,170,372.658,170,373.671,170C374.684,170,375.696,170,376.709,170C377.722,170,378.734,170,379.747,170C380.759,170,381.772,170,382.785,170C383.797,170,384.81,170,385.823,170C386.835,170,387.848,170,388.861,170C389.873,170,390.886,170,391.899,170C392.911,170,393.924,170,394.937,170C395.949,170,396.962,170,397.975,170C398.987,170,400,170,401.013,170C402.025,170,403.038,170,404.051,170C405.063,170,406.076,170,407.089,170C408.101,170,409.114,170,410.127,170C411.139,170,412.152,170,413.165,170C414.177,170,415.19,170,416.203,170C417.215,170,418.228,170,419.241,170C420.253,170,421.266,170,422.278,170C423.291,170,424.304,170,425.316,170C426.329,170,427.342,170,428.354,170C429.367,170,430.38,170,431.392,170C432.405,170,433.418,170,434.43,170C435.443,170,436.456,170,437.468,170C438.481,170,439.494,170,440.506,170C441.519,170,442.532,170,443.544,170C444.557,170,445.57,170,446.582,170C447.595,170,448.608,170,449.62,170C450.633,170,451.646,170,452.658,170C453.671,170,454.684,170,455.696,170C456.709,170,457.722,170,458.734,170C459.747,170,460.759,170,461.772,170C462.785,170,463.797,170,464.81,170C465.823,170,466.835,170,467.848,170C468.861,170,469.873,170,470.886,170C471.899,170,472.911,170,473.924,170C474.937,170,475.949,170,476.962,170C477.975,170,478.987,170,480,170C481.013,170,482.025,170,483.038,170C484.051,170,485.063,170,486.076,170C487.089,170,488.101,170,489.114,170C490.127,170,491.139,170,492.152,170C493.165,170,494.177,170,495.19,170C496.203,170,497.215,170,498.228,170C499.241,170,500.253,170,501.266,170C502.278,170,503.291,170,504.304,170C505.316,170,506.329,170,507.342,170C508.354,170,509.367,170,510.38,170C511.392,170,512.405,170,513.418,170C514.43,170,515.443,170,516.456,170C517.468,170,518.481,170,519.494,170C520.506,170,521.519,170,522.532,170C523.544,170,524.557,170,525.57,170C526.582,170,527.595,170,528.608,170C529.62,170,530.633,170,531.646,170C532.658,170,533.671,170,534.684,170C535.696,170,536.709,170,537.722,170C538.734,170,539.747,170,540.759,170C541.772,170,542.785,170,543.797,170C544.81,170,545.823,170,546.835,170C547.848,170,548.861,170,549.873,170C550.886,170,551.899,170,552.911,170C553.924,170,554.937,170,555.949,170C556.962,170,557.975,170,558.987,170C560,170,561.013,170,562.025,170C563.038,170,564.051,170,565.063,170C566.076,170,567.089,170,568.101,170C569.114,170,570.127,170,571.139,170C572.152,170,573.165,170,574.177,170C575.19,170,576.203,170,577.215,170C578.228,170,579.241,170,580.253,170C581.266,170,582.278,170,583.291,170C584.304,170,585.316,170,586.329,170C587.342,170,588.354,170,589.367,170C590.38,170,591.392,170,592.405,170C593.418,170,594.43,170,595.443,170C596.456,170,597.468,170,598.481,170C599.494,170,600.506,170,601.519,170C602.532,170,603.544,170,604.557,170C605.57,170,606.582,170,607.595,170C608.608,170,609.62,170,610.633,170C611.646,170,612.658,170,613.671,170C614.684,170,615.696,170,616.709,170C617.722,170,618.734,170,619.747,170C620.759,170,621.772,170,622.785,170C623.797,170,624.81,170,625.823,170C626.835,170,627.848,170,628.861,170C629.873,170,630.886,170,631.899,170C632.911,170,633.924,170,634.937,170C635.949,170,636.962,170,637.975,170C638.987,170,640,170,641.013,170C642.025,170,643.038,170,644.051,170C645.063,170,646.076,170,647.089,170C648.101,170,649.114,170,650.127,170C651.139,170,652.152,170,653.165,170C654.177,170,655.19,170,656.203,170C657.215,170,658.228,170,659.241,170C660.253,170,661.266,170,662.278,170C663.291,170,664.304,170,665.316,170C666.329,170,667.342,170,668.354,170C669.367,170,670.38,170,671.392,170C672.405,170,673.418,170,674.43,170C675.443,170,676.456,170,677.468,170C678.481,170,679.494,170,680.506,170C681.519,170,682.532,170,683.544,170C684.557,170,685.57,170,686.582,170C687.595,170,688.608,170,689.62,170C690.633,170,691.646,170,692.658,170C693.671,170,694.684,170,695.696,170C696.709,170,697.722,170,698.734,170C699.747,170,700.759,170,701.772,170C702.785,170,703.797,170,704.81,170C705.823,170,706.835,170,707.848,170C708.861,170,709.873,170,710.886,170C711.899,170,712.911,170,713.924,170C714.937,170,715.949,170,716.962,170C717.975,170,718.987,170,720,170"></path><circle class="dot" cx="0" cy="170" r="3" fill="#2563eb"></circle><circle class="dot" cx="3.0379746835443036" cy="170" r="3" fill="#2563eb"></circle><circle class="dot" cx="6.075949367088607" cy="170" r="3" fill="#2563eb"></circle><circle class="dot" cx="9.113924050632912" cy="170" r="3" fill="#2563eb"></circle><circle class="dot" cx="12.151898734177214" cy="170" r="3" fill="#2563eb"></circle><circle class="dot" cx="15.189873417721518" cy="170" r="3" fill="#2563eb"></circle><circle class="dot" cx="18.227848101265824" cy="170" r="3" fill="#2563eb"></circle><circle class="dot" cx="21.265822784810126" cy="170" r="3" fill="#2563eb"></circle><circle class="dot" cx="24.30379746835443" cy="170" r="3" fill="#2563eb"></circle><circle class="dot" cx="27.341772151898734" cy="170" r="3" fill="#2563eb"></circle><circle class="dot" cx="30.379746835443036" cy="170" r="3" fill="#2563eb"></circle><circle class="dot" cx="33.41772151898734" cy="170" r="3" fill="#2563eb"></circle><circle class="dot" cx="36.45569620253165" cy="170" r="3" fill="#2563eb"></circle><circle class="dot" cx="39.493670886075954" cy="170" r="3" fill="#2563eb"></circle><circle class="dot" cx="42.53164556962025" cy="170" r="3" fill="#2563eb"></circle><circle class="dot" cx="45.56962025316456" cy="170" r="3" fill="#2563eb"></circle><circle class="dot" cx="48.60759493670886" cy="170" r="3" fill="#2563eb"></circle><circle class="dot" cx="51.64556962025316" cy="170" r="3" fill="#2563eb"></circle><circle class="dot" cx="54.68354430379747" cy="170" r="3" fill="#2563eb"></circle><circle class="dot" cx="57.721518987341774" cy="170" r="3" fill="#2563eb"></circle><circle class="dot" cx="60.75949367088607" cy="170" r="3" fill="#2563eb"></circle><circle class="dot" cx="63.79746835443038" cy="170" r="3" fill="#2563eb"></circle><circle class="dot" cx="66.83544303797468" cy="170" r="3" fill="#2563eb"></circle><circle class="dot" cx="69.87341772151899" cy="170" r="3" fill="#2563eb"></circle><circle class="dot" cx="72.9113924050633" cy="170" r="3" fill="#2563eb"></circle><circle class="dot" cx="75.9493670886076" cy="170" r="3" fill="#2563eb"></circle><circle class="dot" cx="78.98734177215191" cy="170" r="3" fill="#2563eb"></circle><circle class="dot" cx="82.0253164556962" cy="170" r="3" fill="#2563eb"></circle><circle class="dot" cx="85.0632911392405" cy="170" r="3" fill="#2563eb"></circle><circle class="dot" cx="88.10126582278481" cy="170" r="3" fill="#2563eb"></circle><circle class="dot" cx="91.13924050632912" cy="170" r="3" fill="#2563eb"></circle><circle class="dot" cx="94.17721518987342" cy="170" r="3" fill="#2563eb"></circle><circle class="dot" cx="97.21518987341771" cy="170" r="3" fill="#2563eb"></circle><circle class="dot" cx="100.25316455696202" cy="170" r="3" fill="#2563eb"></circle><circle class="dot" cx="103.29113924050633" cy="170" r="3" fill="#2563eb"></circle><circle class="dot" cx="106.32911392405063" cy="170" r="3" fill="#2563eb"></circle><circle class="dot" cx="109.36708860759494" cy="170" r="3" fill="#2563eb"></circle><circle class="dot" cx="112.40506329113924" cy="170" r="3" fill="#2563eb"></circle><circle class="dot" cx="115.44303797468355" cy="170" r="3" fill="#2563eb"></circle><circle class="dot" cx="118.48101265822784" cy="170" r="3" fill="#2563eb"></circle><circle class="dot" cx="121.51898734177215" cy="170" r="3" fill="#2563eb"></circle><circle class="dot" cx="124.55696202531645" cy="170" r="3" fill="#2563eb"></circle><circle class="dot" cx="127.59493670886076" cy="170" r="3" fill="#2563eb"></circle><circle class="dot" cx="130.63291139240508" cy="170" r="3" fill="#2563eb"></circle><circle class="dot" cx="133.67088607594937" cy="170" r="3" fill="#2563eb"></circle><circle class="dot" cx="136.7088607594937" cy="170" r="3" fill="#2563eb"></circle><circle class="dot" cx="139.74683544303798" cy="170" r="3" fill="#2563eb"></circle><circle class="dot" cx="142.78481012658227" cy="170" r="3" fill="#2563eb"></circle><circle class="dot" cx="145.8227848101266" cy="170" r="3" fill="#2563eb"></circle><circle class="dot" cx="148.86075949367088" cy="170" r="3" fill="#2563eb"></circle><circle class="dot" cx="151.8987341772152" cy="170" r="3" fill="#2563eb"></circle><circle class="dot" cx="154.9367088607595" cy="170" r="3" fill="#2563eb"></circle><circle class="dot" cx="157.97468354430382" cy="170" r="3" fill="#2563eb"></circle><circle class="dot" cx="161.0126582278481" cy="170" r="3" fill="#2563eb"></circle><circle class="dot" cx="164.0506329113924" cy="170" r="3" fill="#2563eb"></circle><circle class="dot" cx="167.08860759493672" cy="170" r="3" fill="#2563eb"></circle><circle class="dot" cx="170.126582278481" cy="170" r="3" fill="#2563eb"></circle><circle class="dot" cx="173.16455696202533" cy="170" r="3" fill="#2563eb"></circle><circle class="dot" cx="176.20253164556962" cy="170" r="3" fill="#2563eb"></circle><circle class="dot" cx="179.24050632911394" cy="170" r="3" fill="#2563eb"></circle><circle class="dot" cx="182.27848101265823" cy="170" r="3" fill="#2563eb"></circle><circle class="dot" cx="185.31645569620255" cy="170" r="3" fill="#2563eb"></circle><circle class="dot" cx="188.35443037974684" cy="170" r="3" fill="#2563eb"></circle><circle class="dot" cx="191.3924050632911" cy="170" r="3" fill="#2563eb"></circle><circle class="dot" cx="194.43037974683543" cy="170" r="3" fill="#2563eb"></circle><circle class="dot" cx="197.46835443037975" cy="170" r="3" fill="#2563eb"></circle><circle class="dot" cx="200.50632911392404" cy="170" r="3" fill="#2563eb"></circle><circle class="dot" cx="203.54430379746836" cy="170" r="3" fill="#2563eb"></circle><circle class="dot" cx="206.58227848101265" cy="170" r="3" fill="#2563eb"></circle><circle class="dot" cx="209.62025316455697" cy="170" r="3" fill="#2563eb"></circle><circle class="dot" cx="212.65822784810126" cy="170" r="3" fill="#2563eb"></circle><circle class="dot" cx="215.69620253164558" cy="170" r="3" fill="#2563eb"></circle><circle class="dot" cx="218.73417721518987" cy="170" r="3" fill="#2563eb"></circle><circle class="dot" cx="221.7721518987342" cy="170" r="3" fill="#2563eb"></circle><circle class="dot" cx="224.81012658227849" cy="170" r="3" fill="#2563eb"></circle><circle class="dot" cx="227.8481012658228" cy="170" r="3" fill="#2563eb"></circle><circle class="dot" cx="230.8860759493671" cy="170" r="3" fill="#2563eb"></circle><circle class="dot" cx="233.92405063291136" cy="170" r="3" fill="#2563eb"></circle><circle class="dot" cx="236.96202531645568" cy="170" r="3" fill="#2563eb"></circle><circle class="dot" cx="240" cy="170" r="3" fill="#2563eb"></circle><circle class="dot" cx="243.0379746835443" cy="170" r="3" fill="#2563eb"></circle><circle class="dot" cx="246.0759493670886" cy="170" r="3" fill="#2563eb"></circle><circle class="dot" cx="249.1139240506329" cy="170" r="3" fill="#2563eb"></circle><circle class="dot" cx="252.15189873417722" cy="170" r="3" fill="#2563eb"></circle><circle class="dot" cx="255.18987341772151" cy="170" r="3" fill="#2563eb"></circle><circle class="dot" cx="258.2278481012658" cy="170" r="3" fill="#2563eb"></circle><circle class="dot" cx="261.26582278481015" cy="170" r="3" fill="#2563eb"></circle><circle class="dot" cx="264.30379746835445" cy="170" r="3" fill="#2563eb"></circle><circle class="dot" cx="267.34177215189874" cy="170" r="3" fill="#2563eb"></circle><circle class="dot" cx="270.37974683544303" cy="170" r="3" fill="#2563eb"></circle><circle class="dot" cx="273.4177215189874" cy="170" r="3" fill="#2563eb"></circle><circle class="dot" cx="276.4556962025316" cy="170" r="3" fill="#2563eb"></circle><circle class="dot" cx="279.49367088607596" cy="170" r="3" fill="#2563eb"></circle><circle class="dot" cx="282.53164556962025" cy="170" r="3" fill="#2563eb"></circle><circle class="dot" cx="285.56962025316454" cy="170" r="3" fill="#2563eb"></circle><circle class="dot" cx="288.60759493670884" cy="170" r="3" fill="#2563eb"></circle><circle class="dot" cx="291.6455696202532" cy="170" r="3" fill="#2563eb"></circle><circle class="dot" cx="294.6835443037975" cy="170" r="3" fill="#2563eb"></circle><circle class="dot" cx="297.72151898734177" cy="170" r="3" fill="#2563eb"></circle><circle class="dot" cx="300.75949367088606" cy="170" r="3" fill="#2563eb"></circle><circle class="dot" cx="303.7974683544304" cy="170" r="3" fill="#2563eb"></circle><circle class="dot" cx="306.8354430379747" cy="170" r="3" fill="#2563eb"></circle><circle class="dot" cx="309.873417721519" cy="170" r="3" fill="#2563eb"></circle><circle class="dot" cx="312.9113924050633" cy="170" r="3" fill="#2563eb"></circle><circle class="dot" cx="315.94936708860763" cy="170" r="3" fill="#2563eb"></circle><circle class="dot" cx="318.98734177215186" cy="170" r="3" fill="#2563eb"></circle><circle class="dot" cx="322.0253164556962" cy="170" r="3" fill="#2563eb"></circle><circle class="dot" cx="325.0632911392405" cy="170" r="3" fill="#2563eb"></circle><circle class="dot" cx="328.1012658227848" cy="170" r="3" fill="#2563eb"></circle><circle class="dot" cx="331.1392405063291" cy="170" r="3" fill="#2563eb"></circle><circle class="dot" cx="334.17721518987344" cy="170" r="3" fill="#2563eb"></circle><circle class="dot" cx="337.2151898734177" cy="170" r="3" fill="#2563eb"></circle><circle class="dot" cx="340.253164556962" cy="170" r="3" fill="#2563eb"></circle><circle class="dot" cx="343.2911392405063" cy="170" r="3" fill="#2563eb"></circle><circle class="dot" cx="346.32911392405066" cy="170" r="3" fill="#2563eb"></circle><circle class="dot" cx="349.36708860759495" cy="170" r="3" fill="#2563eb"></circle><circle class="dot" cx="352.40506329113924" cy="170" r="3" fill="#2563eb"></circle><circle class="dot" cx="355.44303797468353" cy="170" r="3" fill="#2563eb"></circle><circle class="dot" cx="358.4810126582279" cy="170" r="3" fill="#2563eb"></circle><circle class="dot" cx="361.5189873417721" cy="170" r="3" fill="#2563eb"></circle><circle class="dot" cx="364.55696202531647" cy="170" r="3" fill="#2563eb"></circle><circle class="dot" cx="367.59493670886076" cy="170" r="3" fill="#2563eb"></circle><circle class="dot" cx="370.6329113924051" cy="170" r="3" fill="#2563eb"></circle><circle class="dot" cx="373.67088607594934" cy="170" r="3" fill="#2563eb"></circle><circle class="dot" cx="376.7088607594937" cy="170" r="3" fill="#2563eb"></circle><circle class="dot" cx="379.746835443038" cy="170" r="3" fill="#2563eb"></circle><circle class="dot" cx="382.7848101265822" cy="170" r="3" fill="#2563eb"></circle><circle class="dot" cx="385.82278481012656" cy="170" r="3" fill="#2563eb"></circle><circle class="dot" cx="388.86075949367086" cy="170" r="3" fill="#2563eb"></circle><circle class="dot" cx="391.8987341772152" cy="170" r="3" fill="#2563eb"></circle><circle class="dot" cx="394.9367088607595" cy="170" r="3" fill="#2563eb"></circle><circle class="dot" cx="397.9746835443038" cy="170" r="3" fill="#2563eb"></circle><circle class="dot" cx="401.0126582278481" cy="170" r="3" fill="#2563eb"></circle><circle class="dot" cx="404.0506329113924" cy="170" r="3" fill="#2563eb"></circle><circle class="dot" cx="407.0886075949367" cy="170" r="3" fill="#2563eb"></circle><circle class="dot" cx="410.12658227848107" cy="170" r="3" fill="#2563eb"></circle><circle class="dot" cx="413.1645569620253" cy="170" r="3" fill="#2563eb"></circle><circle class="dot" cx="416.20253164556965" cy="170" r="3" fill="#2563eb"></circle><circle class="dot" cx="419.24050632911394" cy="170" r="3" fill="#2563eb"></circle><circle class="dot" cx="422.2784810126583" cy="170" r="3" fill="#2563eb"></circle><circle class="dot" cx="425.3164556962025" cy="170" r="3" fill="#2563eb"></circle><circle class="dot" cx="428.3544303797468" cy="170" r="3" fill="#2563eb"></circle><circle class="dot" cx="431.39240506329116" cy="170" r="3" fill="#2563eb"></circle><circle class="dot" cx="434.4303797468354" cy="170" r="3" fill="#2563eb"></circle><circle class="dot" cx="437.46835443037975" cy="170" r="3" fill="#2563eb"></circle><circle class="dot" cx="440.50632911392404" cy="170" r="3" fill="#2563eb"></circle><circle class="dot" cx="443.5443037974684" cy="170" r="3" fill="#2563eb"></circle><circle class="dot" cx="446.5822784810126" cy="170" r="3" fill="#2563eb"></circle><circle class="dot" cx="449.62025316455697" cy="170" r="3" fill="#2563eb"></circle><circle class="dot" cx="452.65822784810126" cy="170" r="3" fill="#2563eb"></circle><circle class="dot" cx="455.6962025316456" cy="170" r="3" fill="#2563eb"></circle><circle class="dot" cx="458.73417721518985" cy="170" r="3" fill="#2563eb"></circle><circle class="dot" cx="461.7721518987342" cy="170" r="3" fill="#2563eb"></circle><circle class="dot" cx="464.8101265822785" cy="170" r="3" fill="#2563eb"></circle><circle class="dot" cx="467.8481012658227" cy="170" r="3" fill="#2563eb"></circle><circle class="dot" cx="470.88607594936707" cy="170" r="3" fill="#2563eb"></circle><circle class="dot" cx="473.92405063291136" cy="170" r="3" fill="#2563eb"></circle><circle class="dot" cx="476.9620253164557" cy="170" r="3" fill="#2563eb"></circle><circle class="dot" cx="480" cy="170" r="3" fill="#2563eb"></circle><circle class="dot" cx="483.03797468354435" cy="170" r="3" fill="#2563eb"></circle><circle class="dot" cx="486.0759493670886" cy="170" r="3" fill="#2563eb"></circle><circle class="dot" cx="489.11392405063293" cy="170" r="3" fill="#2563eb"></circle><circle class="dot" cx="492.1518987341772" cy="170" r="3" fill="#2563eb"></circle><circle class="dot" cx="495.18987341772157" cy="170" r="3" fill="#2563eb"></circle><circle class="dot" cx="498.2278481012658" cy="170" r="3" fill="#2563eb"></circle><circle class="dot" cx="501.26582278481015" cy="170" r="3" fill="#2563eb"></circle><circle class="dot" cx="504.30379746835445" cy="170" r="3" fill="#2563eb"></circle><circle class="dot" cx="507.3417721518988" cy="170" r="3" fill="#2563eb"></circle><circle class="dot" cx="510.37974683544303" cy="170" r="3" fill="#2563eb"></circle><circle class="dot" cx="513.4177215189873" cy="170" r="3" fill="#2563eb"></circle><circle class="dot" cx="516.4556962025316" cy="170" r="3" fill="#2563eb"></circle><circle class="dot" cx="519.493670886076" cy="170" r="3" fill="#2563eb"></circle><circle class="dot" cx="522.5316455696203" cy="170" r="3" fill="#2563eb"></circle><circle class="dot" cx="525.5696202531645" cy="170" r="3" fill="#2563eb"></circle><circle class="dot" cx="528.6075949367089" cy="170" r="3" fill="#2563eb"></circle><circle class="dot" cx="531.6455696202531" cy="170" r="3" fill="#2563eb"></circle><circle class="dot" cx="534.6835443037975" cy="170" r="3" fill="#2563eb"></circle><circle class="dot" cx="537.7215189873417" cy="170" r="3" fill="#2563eb"></circle><circle class="dot" cx="540.7594936708861" cy="170" r="3" fill="#2563eb"></circle><circle class="dot" cx="543.7974683544304" cy="170" r="3" fill="#2563eb"></circle><circle class="dot" cx="546.8354430379748" cy="170" r="3" fill="#2563eb"></circle><circle class="dot" cx="549.873417721519" cy="170" r="3" fill="#2563eb"></circle><circle class="dot" cx="552.9113924050632" cy="170" r="3" fill="#2563eb"></circle><circle class="dot" cx="555.9493670886076" cy="170" r="3" fill="#2563eb"></circle><circle class="dot" cx="558.9873417721519" cy="170" r="3" fill="#2563eb"></circle><circle class="dot" cx="562.0253164556962" cy="170" r="3" fill="#2563eb"></circle><circle class="dot" cx="565.0632911392405" cy="170" r="3" fill="#2563eb"></circle><circle class="dot" cx="568.1012658227849" cy="170" r="3" fill="#2563eb"></circle><circle class="dot" cx="571.1392405063291" cy="170" r="3" fill="#2563eb"></circle><circle class="dot" cx="574.1772151898734" cy="170" r="3" fill="#2563eb"></circle><circle class="dot" cx="577.2151898734177" cy="170" r="3" fill="#2563eb"></circle><circle class="dot" cx="580.253164556962" cy="170" r="3" fill="#2563eb"></circle><circle class="dot" cx="583.2911392405064" cy="170" r="3" fill="#2563eb"></circle><circle class="dot" cx="586.3291139240507" cy="170" r="3" fill="#2563eb"></circle><circle class="dot" cx="589.367088607595" cy="170" r="3" fill="#2563eb"></circle><circle class="dot" cx="592.4050632911393" cy="170" r="3" fill="#2563eb"></circle><circle class="dot" cx="595.4430379746835" cy="170" r="3" fill="#2563eb"></circle><circle class="dot" cx="598.4810126582278" cy="170" r="3" fill="#2563eb"></circle><circle class="dot" cx="601.5189873417721" cy="170" r="3" fill="#2563eb"></circle><circle class="dot" cx="604.5569620253165" cy="170" r="3" fill="#2563eb"></circle><circle class="dot" cx="607.5949367088608" cy="170" r="3" fill="#2563eb"></circle><circle class="dot" cx="610.632911392405" cy="170" r="3" fill="#2563eb"></circle><circle class="dot" cx="613.6708860759494" cy="170" r="3" fill="#2563eb"></circle><circle class="dot" cx="616.7088607594936" cy="170" r="3" fill="#2563eb"></circle><circle class="dot" cx="619.746835443038" cy="170" r="3" fill="#2563eb"></circle><circle class="dot" cx="622.7848101265822" cy="170" r="3" fill="#2563eb"></circle><circle class="dot" cx="625.8227848101266" cy="170" r="3" fill="#2563eb"></circle><circle class="dot" cx="628.8607594936709" cy="170" r="3" fill="#2563eb"></circle><circle class="dot" cx="631.8987341772153" cy="170" r="3" fill="#2563eb"></circle><circle class="dot" cx="634.9367088607595" cy="170" r="3" fill="#2563eb"></circle><circle class="dot" cx="637.9746835443037" cy="170" r="3" fill="#2563eb"></circle><circle class="dot" cx="641.0126582278481" cy="170" r="3" fill="#2563eb"></circle><circle class="dot" cx="644.0506329113924" cy="170" r="3" fill="#2563eb"></circle><circle class="dot" cx="647.0886075949368" cy="170" r="3" fill="#2563eb"></circle><circle class="dot" cx="650.126582278481" cy="170" r="3" fill="#2563eb"></circle><circle class="dot" cx="653.1645569620254" cy="170" r="3" fill="#2563eb"></circle><circle class="dot" cx="656.2025316455696" cy="170" r="3" fill="#2563eb"></circle><circle class="dot" cx="659.2405063291139" cy="170" r="3" fill="#2563eb"></circle><circle class="dot" cx="662.2784810126582" cy="170" r="3" fill="#2563eb"></circle><circle class="dot" cx="665.3164556962025" cy="170" r="3" fill="#2563eb"></circle><circle class="dot" cx="668.3544303797469" cy="170" r="3" fill="#2563eb"></circle><circle class="dot" cx="671.3924050632912" cy="170" r="3" fill="#2563eb"></circle><circle class="dot" cx="674.4303797468355" cy="170" r="3" fill="#2563eb"></circle><circle class="dot" cx="677.4683544303798" cy="170" r="3" fill="#2563eb"></circle><circle class="dot" cx="680.506329113924" cy="170" r="3" fill="#2563eb"></circle><circle class="dot" cx="683.5443037974683" cy="170" r="3" fill="#2563eb"></circle><circle class="dot" cx="686.5822784810126" cy="170" r="3" fill="#2563eb"></circle><circle class="dot" cx="689.620253164557" cy="170" r="3" fill="#2563eb"></circle><circle class="dot" cx="692.6582278481013" cy="170" r="3" fill="#2563eb"></circle><circle class="dot" cx="695.6962025316456" cy="170" r="3" fill="#2563eb"></circle><circle class="dot" cx="698.7341772151899" cy="170" r="3" fill="#2563eb"></circle><circle class="dot" cx="701.7721518987341" cy="170" r="3" fill="#2563eb"></circle><circle class="dot" cx="704.8101265822785" cy="170" r="3" fill="#2563eb"></circle><circle class="dot" cx="707.8481012658227" cy="170" r="3" fill="#2563eb"></circle><circle class="dot" cx="710.8860759493671" cy="170" r="3" fill="#2563eb"></circle><circle class="dot" cx="713.9240506329114" cy="170" r="3" fill="#2563eb"></circle><circle class="dot" cx="716.9620253164558" cy="170" r="3" fill="#2563eb"></circle><circle class="dot" cx="720" cy="170" r="3" fill="#2563eb"></circle><g class="grid" transform="translate(0,340)" fill="none" font-size="10" font-family="sans-serif" text-anchor="middle" style="stroke-dasharray: 3,3; opacity: 0.3;"><path class="domain" stroke="currentColor" d="M0.5,-340V0.5H720.5V-340"></path><g class="tick" opacity="1" transform="translate(0.5,0)"><line stroke="currentColor" y2="-340"></line><text fill="currentColor" y="3" dy="0.71em"></text></g><g class="tick" opacity="1" transform="translate(73.4113924050633,0)"><line stroke="currentColor" y2="-340"></line><text fill="currentColor" y="3" dy="0.71em"></text></g><g class="tick" opacity="1" transform="translate(146.3227848101266,0)"><line stroke="currentColor" y2="-340"></line><text fill="currentColor" y="3" dy="0.71em"></text></g><g class="tick" opacity="1" transform="translate(219.23417721518987,0)"><line stroke="currentColor" y2="-340"></line><text fill="currentColor" y="3" dy="0.71em"></text></g><g class="tick" opacity="1" transform="translate(292.1455696202532,0)"><line stroke="currentColor" y2="-340"></line><text fill="currentColor" y="3" dy="0.71em"></text></g><g class="tick" opacity="1" transform="translate(365.05696202531647,0)"><line stroke="currentColor" y2="-340"></line><text fill="currentColor" y="3" dy="0.71em"></text></g><g class="tick" opacity="1" transform="translate(437.96835443037975,0)"><line stroke="currentColor" y2="-340"></line><text fill="currentColor" y="3" dy="0.71em"></text></g><g class="tick" opacity="1" transform="translate(510.87974683544303,0)"><line stroke="currentColor" y2="-340"></line><text fill="currentColor" y="3" dy="0.71em"></text></g><g class="tick" opacity="1" transform="translate(583.7911392405064,0)"><line stroke="currentColor" y2="-340"></line><text fill="currentColor" y="3" dy="0.71em"></text></g><g class="tick" opacity="1" transform="translate(656.7025316455696,0)"><line stroke="currentColor" y2="-340"></line><text fill="currentColor" y="3" dy="0.71em"></text></g></g><g class="grid" fill="none" font-size="10" font-family="sans-serif" text-anchor="end" style="stroke-dasharray: 3,3; opacity: 0.3;"><path class="domain" stroke="currentColor" d="M720,340.5H0.5V0.5H720"></path><g class="tick" opacity="1" transform="translate(0,170.5)"><line stroke="currentColor" x2="720"></line><text fill="currentColor" x="-3" dy="0.32em"></text></g></g></g><text x="400" y="10" text-anchor="middle" style="font-size: 16px; font-weight: bold; fill: #333;">OKX USDT Lending Rate - Current Month</text></svg>