<svg width="800" height="400" xmlns="http://www.w3.org/2000/svg"><g transform="translate(50,20)"><g transform="translate(0,340)" fill="none" font-size="10" font-family="sans-serif" text-anchor="middle"><path class="domain" stroke="currentColor" d="M0.5,6V0.5H720.5V6"></path><g class="tick" opacity="1" transform="translate(0.5,0)"><line stroke="currentColor" y2="6"></line><text fill="currentColor" y="9" dy=".15em" style="text-anchor: end;" dx="-.8em" transform="rotate(-45)">10/01</text></g><g class="tick" opacity="1" transform="translate(47.972527472527474,0)"><line stroke="currentColor" y2="6"></line><text fill="currentColor" y="9" dy=".15em" style="text-anchor: end;" dx="-.8em" transform="rotate(-45)">10/02</text></g><g class="tick" opacity="1" transform="translate(95.44505494505495,0)"><line stroke="currentColor" y2="6"></line><text fill="currentColor" y="9" dy=".15em" style="text-anchor: end;" dx="-.8em" transform="rotate(-45)">10/03</text></g><g class="tick" opacity="1" transform="translate(142.91758241758242,0)"><line stroke="currentColor" y2="6"></line><text fill="currentColor" y="9" dy=".15em" style="text-anchor: end;" dx="-.8em" transform="rotate(-45)">10/04</text></g><g class="tick" opacity="1" transform="translate(190.3901098901099,0)"><line stroke="currentColor" y2="6"></line><text fill="currentColor" y="9" dy=".15em" style="text-anchor: end;" dx="-.8em" transform="rotate(-45)">10/05</text></g><g class="tick" opacity="1" transform="translate(237.86263736263737,0)"><line stroke="currentColor" y2="6"></line><text fill="currentColor" y="9" dy=".15em" style="text-anchor: end;" dx="-.8em" transform="rotate(-45)">10/06</text></g><g class="tick" opacity="1" transform="translate(285.33516483516485,0)"><line stroke="currentColor" y2="6"></line><text fill="currentColor" y="9" dy=".15em" style="text-anchor: end;" dx="-.8em" transform="rotate(-45)">10/07</text></g><g class="tick" opacity="1" transform="translate(332.8076923076923,0)"><line stroke="currentColor" y2="6"></line><text fill="currentColor" y="9" dy=".15em" style="text-anchor: end;" dx="-.8em" transform="rotate(-45)">10/08</text></g><g class="tick" opacity="1" transform="translate(380.2802197802198,0)"><line stroke="currentColor" y2="6"></line><text fill="currentColor" y="9" dy=".15em" style="text-anchor: end;" dx="-.8em" transform="rotate(-45)">10/09</text></g><g class="tick" opacity="1" transform="translate(427.75274725274727,0)"><line stroke="currentColor" y2="6"></line><text fill="currentColor" y="9" dy=".15em" style="text-anchor: end;" dx="-.8em" transform="rotate(-45)">10/10</text></g><g class="tick" opacity="1" transform="translate(475.22527472527474,0)"><line stroke="currentColor" y2="6"></line><text fill="currentColor" y="9" dy=".15em" style="text-anchor: end;" dx="-.8em" transform="rotate(-45)">10/11</text></g><g class="tick" opacity="1" transform="translate(522.6978021978022,0)"><line stroke="currentColor" y2="6"></line><text fill="currentColor" y="9" dy=".15em" style="text-anchor: end;" dx="-.8em" transform="rotate(-45)">10/12</text></g><g class="tick" opacity="1" transform="translate(570.1703296703297,0)"><line stroke="currentColor" y2="6"></line><text fill="currentColor" y="9" dy=".15em" style="text-anchor: end;" dx="-.8em" transform="rotate(-45)">10/13</text></g><g class="tick" opacity="1" transform="translate(617.6428571428571,0)"><line stroke="currentColor" y2="6"></line><text fill="currentColor" y="9" dy=".15em" style="text-anchor: end;" dx="-.8em" transform="rotate(-45)">10/14</text></g><g class="tick" opacity="1" transform="translate(665.1153846153846,0)"><line stroke="currentColor" y2="6"></line><text fill="currentColor" y="9" dy=".15em" style="text-anchor: end;" dx="-.8em" transform="rotate(-45)">10/15</text></g><g class="tick" opacity="1" transform="translate(712.5879120879122,0)"><line stroke="currentColor" y2="6"></line><text fill="currentColor" y="9" dy=".15em" style="text-anchor: end;" dx="-.8em" transform="rotate(-45)">10/16</text></g></g><g fill="none" font-size="10" font-family="sans-serif" text-anchor="end"><path class="domain" stroke="currentColor" d="M-6,340.5H0.5V0.5H-6"></path><g class="tick" opacity="1" transform="translate(0,340.5)"><line stroke="currentColor" x2="-6"></line><text fill="currentColor" x="-9" dy="0.32em">0.00%</text></g><g class="tick" opacity="1" transform="translate(0,309.59090909090907)"><line stroke="currentColor" x2="-6"></line><text fill="currentColor" x="-9" dy="0.32em">10.00%</text></g><g class="tick" opacity="1" transform="translate(0,278.6818181818182)"><line stroke="currentColor" x2="-6"></line><text fill="currentColor" x="-9" dy="0.32em">20.00%</text></g><g class="tick" opacity="1" transform="translate(0,247.77272727272728)"><line stroke="currentColor" x2="-6"></line><text fill="currentColor" x="-9" dy="0.32em">30.00%</text></g><g class="tick" opacity="1" transform="translate(0,216.86363636363637)"><line stroke="currentColor" x2="-6"></line><text fill="currentColor" x="-9" dy="0.32em">40.00%</text></g><g class="tick" opacity="1" transform="translate(0,185.95454545454544)"><line stroke="currentColor" x2="-6"></line><text fill="currentColor" x="-9" dy="0.32em">50.00%</text></g><g class="tick" opacity="1" transform="translate(0,155.04545454545456)"><line stroke="currentColor" x2="-6"></line><text fill="currentColor" x="-9" dy="0.32em">60.00%</text></g><g class="tick" opacity="1" transform="translate(0,124.13636363636368)"><line stroke="currentColor" x2="-6"></line><text fill="currentColor" x="-9" dy="0.32em">70.00%</text></g><g class="tick" opacity="1" transform="translate(0,93.22727272727272)"><line stroke="currentColor" x2="-6"></line><text fill="currentColor" x="-9" dy="0.32em">80.00%</text></g><g class="tick" opacity="1" transform="translate(0,62.31818181818184)"><line stroke="currentColor" x2="-6"></line><text fill="currentColor" x="-9" dy="0.32em">90.00%</text></g><g class="tick" opacity="1" transform="translate(0,31.40909090909092)"><line stroke="currentColor" x2="-6"></line><text fill="currentColor" x="-9" dy="0.32em">100.00%</text></g><g class="tick" opacity="1" transform="translate(0,0.5)"><line stroke="currentColor" x2="-6"></line><text fill="currentColor" x="-9" dy="0.32em">110.00%</text></g></g><text transform="rotate(-90)" y="-50" x="-170" dy="1em" style="text-anchor: middle; font-size: 12px; fill: #666;">Pre Rate (%)</text><text transform="translate(360, 380)" style="text-anchor: middle; font-size: 12px; fill: #666;">Time (UTC)</text><path fill="none" stroke="#2563eb" stroke-width="2" d="M0,327.636C0.659,327.636,1.319,327.636,1.978,327.636C2.637,327.636,3.297,327.636,3.956,327.636C4.615,327.636,5.275,327.636,5.934,327.636C6.593,327.636,7.253,327.636,7.912,327.636C8.571,327.636,9.231,327.636,9.89,327.636C10.549,327.636,11.209,327.636,11.868,327.636C12.527,327.636,13.187,327.636,13.846,327.636C14.505,327.636,15.165,327.636,15.824,327.636C16.484,327.636,17.143,327.636,17.802,327.636C18.462,327.636,19.121,327.636,19.78,327.636C20.44,327.636,21.099,327.636,21.758,327.636C22.418,327.636,23.077,327.636,23.736,327.636C24.396,327.636,25.055,327.636,25.714,327.636C26.374,327.636,27.033,327.636,27.692,327.636C28.352,327.636,29.011,327.636,29.67,327.636C30.33,327.636,30.989,327.636,31.648,327.636C32.308,327.636,32.967,327.636,33.626,327.636C34.286,327.636,34.945,327.636,35.604,327.636C36.264,327.636,36.923,327.636,37.582,327.636C38.242,327.636,38.901,327.636,39.56,327.636C40.22,327.636,40.879,327.636,41.538,327.636C42.198,327.636,42.857,327.636,43.516,327.636C44.176,327.636,44.835,327.636,45.495,327.636C46.154,327.636,46.813,327.636,47.473,327.636C48.132,327.636,48.791,327.636,49.451,327.636C50.11,327.636,50.769,327.636,51.429,327.636C52.088,327.636,52.747,327.636,53.407,327.636C54.066,327.636,54.725,327.636,55.385,327.636C56.044,327.636,56.703,327.636,57.363,327.636C58.022,327.636,58.681,327.636,59.341,327.636C60,327.636,60.659,327.636,61.319,327.636C61.978,327.636,62.637,327.636,63.297,327.636C63.956,327.636,64.615,327.636,65.275,327.636C65.934,327.636,66.593,327.636,67.253,327.636C67.912,327.636,68.571,327.636,69.231,327.636C69.89,327.636,70.549,327.636,71.209,327.636C71.868,327.636,72.527,18.545,73.187,18.545C73.846,18.545,74.505,293.636,75.165,306C75.824,318.364,76.484,324.545,77.143,324.545C77.802,324.545,78.462,324.545,79.121,324.545C79.78,324.545,80.44,324.545,81.099,324.545C81.758,324.545,82.418,324.545,83.077,324.545C83.736,324.545,84.396,324.545,85.055,324.545C85.714,324.545,86.374,324.545,87.033,324.545C87.692,324.545,88.352,324.545,89.011,324.545C89.67,324.545,90.33,324.545,90.989,324.545C91.648,324.545,92.308,324.545,92.967,324.545C93.626,324.545,94.286,324.545,94.945,324.545C95.604,324.545,96.264,324.545,96.923,324.545C97.582,324.545,98.242,324.545,98.901,324.545C99.56,324.545,100.22,324.545,100.879,324.545C101.538,324.545,102.198,324.545,102.857,324.545C103.516,324.545,104.176,324.545,104.835,324.545C105.495,324.545,106.154,324.545,106.813,324.545C107.473,324.545,108.132,324.545,108.791,324.545C109.451,324.545,110.11,324.545,110.769,324.545C111.429,324.545,112.088,324.545,112.747,324.545C113.407,324.545,114.066,324.545,114.725,324.545C115.385,324.545,116.044,324.545,116.703,324.545C117.363,324.545,118.022,324.545,118.681,324.545C119.341,324.545,120,324.545,120.659,324.545C121.319,324.545,121.978,324.545,122.637,324.545C123.297,324.545,123.956,324.545,124.615,324.545C125.275,324.545,125.934,324.545,126.593,324.545C127.253,324.545,127.912,324.545,128.571,324.545C129.231,324.545,129.89,324.545,130.549,324.545C131.209,324.545,131.868,324.545,132.527,324.545C133.187,324.545,133.846,324.545,134.505,324.545C135.165,324.545,135.824,324.545,136.484,324.545C137.143,324.545,137.802,324.545,138.462,324.545C139.121,324.545,139.78,324.545,140.44,324.545C141.099,324.545,141.758,324.545,142.418,324.545C143.077,324.545,143.736,324.545,144.396,324.545C145.055,324.545,145.714,324.545,146.374,324.545C147.033,324.545,147.692,324.545,148.352,324.545C149.011,324.545,149.67,324.545,150.33,324.545C150.989,324.545,151.648,324.545,152.308,324.545C152.967,324.545,153.626,324.545,154.286,324.545C154.945,324.545,155.604,324.545,156.264,324.545C156.923,324.545,157.582,324.545,158.242,324.545C158.901,324.545,159.56,324.545,160.22,324.545C160.879,324.545,161.538,324.545,162.198,324.545C162.857,324.545,163.516,324.545,164.176,324.545C164.835,324.545,165.495,324.545,166.154,324.545C166.813,324.545,167.473,324.545,168.132,324.545C168.791,324.545,169.451,324.545,170.11,324.545C170.769,324.545,171.429,324.545,172.088,324.545C172.747,324.545,173.407,324.545,174.066,324.545C174.725,324.545,175.385,324.545,176.044,324.545C176.703,324.545,177.363,324.545,178.022,324.545C178.681,324.545,179.341,324.545,180,324.545C180.659,324.545,181.319,324.545,181.978,324.545C182.637,324.545,183.297,324.545,183.956,324.545C184.615,324.545,185.275,324.545,185.934,324.545C186.593,324.545,187.253,324.545,187.912,324.545C188.571,324.545,189.231,324.545,189.89,324.545C190.549,324.545,191.209,324.545,191.868,324.545C192.527,324.545,193.187,324.545,193.846,324.545C194.505,324.545,195.165,324.545,195.824,324.545C196.484,324.545,197.143,324.545,197.802,324.545C198.462,324.545,199.121,321.455,199.78,321.455C200.44,321.455,201.099,324.545,201.758,324.545C202.418,324.545,203.077,324.545,203.736,324.545C204.396,324.545,205.055,309.091,205.714,309.091C206.374,309.091,207.033,312.697,207.692,315.273C208.352,317.848,209.011,324.545,209.67,324.545C210.33,324.545,210.989,324.545,211.648,324.545C212.308,324.545,212.967,321.455,213.626,321.455C214.286,321.455,214.945,324.545,215.604,324.545C216.264,324.545,216.923,318.364,217.582,318.364C218.242,318.364,218.901,318.364,219.56,318.364C220.22,318.364,220.879,316.303,221.538,315.273C222.198,314.242,222.857,312.182,223.516,312.182C224.176,312.182,224.835,316.303,225.495,318.364C226.154,320.424,226.813,324.545,227.473,324.545C228.132,324.545,228.791,324.545,229.451,324.545C230.11,324.545,230.769,324.545,231.429,324.545C232.088,324.545,232.747,324.545,233.407,324.545C234.066,324.545,234.725,324.545,235.385,324.545C236.044,324.545,236.703,315.273,237.363,315.273C238.022,315.273,238.681,318.364,239.341,318.364C240,318.364,240.659,316.818,241.319,315.273C241.978,313.727,242.637,309.091,243.297,309.091C243.956,309.091,244.615,310.636,245.275,312.182C245.934,313.727,246.593,318.364,247.253,318.364C247.912,318.364,248.571,315.788,249.231,312.182C249.89,308.576,250.549,296.727,251.209,296.727C251.868,296.727,252.527,312.182,253.187,312.182C253.846,312.182,254.505,299.818,255.165,299.818C255.824,299.818,256.484,306,257.143,306C257.802,306,258.462,306,259.121,306C259.78,306,260.44,309.091,261.099,309.091C261.758,309.091,262.418,307.03,263.077,302.909C263.736,298.788,264.396,284.364,265.055,284.364C265.714,284.364,266.374,284.364,267.033,284.364C267.692,284.364,268.352,287.455,269.011,290.545C269.67,293.636,270.33,302.909,270.989,302.909C271.648,302.909,272.308,296.727,272.967,296.727C273.626,296.727,274.286,296.727,274.945,296.727C275.604,296.727,276.264,299.303,276.923,302.909C277.582,306.515,278.242,318.364,278.901,318.364C279.56,318.364,280.22,312.182,280.879,312.182C281.538,312.182,282.198,312.182,282.857,312.182C283.516,312.182,284.176,321.455,284.835,321.455C285.495,321.455,286.154,318.364,286.813,318.364C287.473,318.364,288.132,324.545,288.791,324.545C289.451,324.545,290.11,324.545,290.769,324.545C291.429,324.545,292.088,324.545,292.747,324.545C293.407,324.545,294.066,321.455,294.725,321.455C295.385,321.455,296.044,324.545,296.703,324.545C297.363,324.545,298.022,324.545,298.681,324.545C299.341,324.545,300,324.545,300.659,324.545C301.319,324.545,301.978,324.545,302.637,324.545C303.297,324.545,303.956,324.545,304.615,324.545C305.275,324.545,305.934,324.545,306.593,324.545C307.253,324.545,307.912,324.545,308.571,324.545C309.231,324.545,309.89,324.545,310.549,324.545C311.209,324.545,311.868,324.545,312.527,324.545C313.187,324.545,313.846,324.545,314.505,324.545C315.165,324.545,315.824,324.545,316.484,324.545C317.143,324.545,317.802,324.545,318.462,324.545C319.121,324.545,319.78,324.545,320.44,324.545C321.099,324.545,321.758,324.545,322.418,324.545C323.077,324.545,323.736,324.545,324.396,324.545C325.055,324.545,325.714,324.545,326.374,324.545C327.033,324.545,327.692,324.545,328.352,324.545C329.011,324.545,329.67,324.545,330.33,324.545C330.989,324.545,331.648,324.545,332.308,324.545C332.967,324.545,333.626,324.545,334.286,324.545C334.945,324.545,335.604,324.545,336.264,324.545C336.923,324.545,337.582,324.545,338.242,324.545C338.901,324.545,339.56,324.545,340.22,324.545C340.879,324.545,341.538,324.545,342.198,324.545C342.857,324.545,343.516,324.545,344.176,324.545C344.835,324.545,345.495,324.545,346.154,324.545C346.813,324.545,347.473,324.545,348.132,324.545C348.791,324.545,349.451,324.545,350.11,324.545C350.769,324.545,351.429,324.545,352.088,324.545C352.747,324.545,353.407,324.545,354.066,324.545C354.725,324.545,355.385,324.545,356.044,324.545C356.703,324.545,357.363,324.545,358.022,324.545C358.681,324.545,359.341,324.545,360,324.545C360.659,324.545,361.319,324.545,361.978,324.545C362.637,324.545,363.297,324.545,363.956,324.545C364.615,324.545,365.275,324.545,365.934,324.545C366.593,324.545,367.253,324.545,367.912,324.545C368.571,324.545,369.231,324.545,369.89,324.545C370.549,324.545,371.209,324.545,371.868,324.545C372.527,324.545,373.187,324.545,373.846,324.545C374.505,324.545,375.165,324.545,375.824,324.545C376.484,324.545,377.143,324.545,377.802,324.545C378.462,324.545,379.121,324.545,379.78,324.545C380.44,324.545,381.099,324.545,381.758,324.545C382.418,324.545,383.077,324.545,383.736,324.545C384.396,324.545,385.055,324.545,385.714,324.545C386.374,324.545,387.033,324.545,387.692,324.545C388.352,324.545,389.011,324.545,389.67,324.545C390.33,324.545,390.989,324.545,391.648,324.545C392.308,324.545,392.967,324.545,393.626,324.545C394.286,324.545,394.945,324.545,395.604,324.545C396.264,324.545,396.923,324.545,397.582,324.545C398.242,324.545,398.901,324.545,399.56,324.545C400.22,324.545,400.879,324.545,401.538,324.545C402.198,324.545,402.857,324.545,403.516,324.545C404.176,324.545,404.835,324.545,405.495,324.545C406.154,324.545,406.813,324.545,407.473,324.545C408.132,324.545,408.791,324.545,409.451,324.545C410.11,324.545,410.769,324.545,411.429,324.545C412.088,324.545,412.747,324.545,413.407,324.545C414.066,324.545,414.725,324.545,415.385,324.545C416.044,324.545,416.703,324.545,417.363,324.545C418.022,324.545,418.681,324.545,419.341,324.545C420,324.545,420.659,324.545,421.319,324.545C421.978,324.545,422.637,324.545,423.297,324.545C423.956,324.545,424.615,324.545,425.275,324.545C425.934,324.545,426.593,324.545,427.253,324.545C427.912,324.545,428.571,324.545,429.231,324.545C429.89,324.545,430.549,324.545,431.209,324.545C431.868,324.545,432.527,324.545,433.187,324.545C433.846,324.545,434.505,324.545,435.165,324.545C435.824,324.545,436.484,324.545,437.143,324.545C437.802,324.545,438.462,324.545,439.121,324.545C439.78,324.545,440.44,324.545,441.099,324.545C441.758,324.545,442.418,324.545,443.077,324.545C443.736,324.545,444.396,324.545,445.055,324.545C445.714,324.545,446.374,324.545,447.033,324.545C447.692,324.545,448.352,324.545,449.011,324.545C449.67,324.545,450.33,324.545,450.989,324.545C451.648,324.545,452.308,324.545,452.967,324.545C453.626,324.545,454.286,324.545,454.945,324.545C455.604,324.545,456.264,324.545,456.923,324.545C457.582,324.545,458.242,324.545,458.901,324.545C459.56,324.545,460.22,324.545,460.879,324.545C461.538,324.545,462.198,324.545,462.857,324.545C463.516,324.545,464.176,324.545,464.835,324.545C465.495,324.545,466.154,324.545,466.813,324.545C467.473,324.545,468.132,324.545,468.791,324.545C469.451,324.545,470.11,336.909,470.769,336.909C471.429,336.909,472.088,336.909,472.747,336.909C473.407,336.909,474.066,336.909,474.725,336.909C475.385,336.909,476.044,336.909,476.703,336.909C477.363,336.909,478.022,336.909,478.681,336.909C479.341,336.909,480,336.909,480.659,336.909C481.319,336.909,481.978,336.909,482.637,336.909C483.297,336.909,483.956,336.909,484.615,336.909C485.275,336.909,485.934,336.909,486.593,336.909C487.253,336.909,487.912,336.909,488.571,336.909C489.231,336.909,489.89,336.909,490.549,336.909C491.209,336.909,491.868,336.909,492.527,336.909C493.187,336.909,493.846,336.909,494.505,336.909C495.165,336.909,495.824,336.909,496.484,336.909C497.143,336.909,497.802,336.909,498.462,336.909C499.121,336.909,499.78,336.909,500.44,336.909C501.099,336.909,501.758,336.909,502.418,336.909C503.077,336.909,503.736,336.909,504.396,336.909C505.055,336.909,505.714,336.909,506.374,336.909C507.033,336.909,507.692,336.909,508.352,336.909C509.011,336.909,509.67,336.909,510.33,336.909C510.989,336.909,511.648,336.909,512.308,336.909C512.967,336.909,513.626,336.909,514.286,336.909C514.945,336.909,515.604,336.909,516.264,336.909C516.923,336.909,517.582,336.909,518.242,336.909C518.901,336.909,519.56,336.909,520.22,336.909C520.879,336.909,521.538,336.909,522.198,336.909C522.857,336.909,523.516,336.909,524.176,336.909C524.835,336.909,525.495,336.909,526.154,336.909C526.813,336.909,527.473,336.909,528.132,336.909C528.791,336.909,529.451,336.909,530.11,336.909C530.769,336.909,531.429,336.909,532.088,336.909C532.747,336.909,533.407,336.909,534.066,336.909C534.725,336.909,535.385,336.909,536.044,336.909C536.703,336.909,537.363,336.909,538.022,336.909C538.681,336.909,539.341,336.909,540,336.909C540.659,336.909,541.319,336.909,541.978,336.909C542.637,336.909,543.297,336.909,543.956,336.909C544.615,336.909,545.275,336.909,545.934,336.909C546.593,336.909,547.253,336.909,547.912,336.909C548.571,336.909,549.231,336.909,549.89,336.909C550.549,336.909,551.209,336.909,551.868,336.909C552.527,336.909,553.187,336.909,553.846,336.909C554.505,336.909,555.165,336.909,555.824,336.909C556.484,336.909,557.143,336.909,557.802,336.909C558.462,336.909,559.121,336.909,559.78,336.909C560.44,336.909,561.099,336.909,561.758,336.909C562.418,336.909,563.077,336.909,563.736,336.909C564.396,336.909,565.055,336.909,565.714,336.909C566.374,336.909,567.033,336.909,567.692,336.909C568.352,336.909,569.011,336.909,569.67,336.909C570.33,336.909,570.989,336.909,571.648,336.909C572.308,336.909,572.967,336.909,573.626,336.909C574.286,336.909,574.945,336.909,575.604,336.909C576.264,336.909,576.923,336.909,577.582,336.909C578.242,336.909,578.901,336.909,579.56,336.909C580.22,336.909,580.879,336.909,581.538,336.909C582.198,336.909,582.857,336.909,583.516,336.909C584.176,336.909,584.835,336.909,585.495,336.909C586.154,336.909,586.813,336.909,587.473,336.909C588.132,336.909,588.791,336.909,589.451,336.909C590.11,336.909,590.769,336.909,591.429,336.909C592.088,336.909,592.747,336.909,593.407,336.909C594.066,336.909,594.725,336.909,595.385,336.909C596.044,336.909,596.703,336.909,597.363,336.909C598.022,336.909,598.681,336.909,599.341,336.909C600,336.909,600.659,336.909,601.319,336.909C601.978,336.909,602.637,336.909,603.297,336.909C603.956,336.909,604.615,336.909,605.275,336.909C605.934,336.909,606.593,336.909,607.253,336.909C607.912,336.909,608.571,336.909,609.231,336.909C609.89,336.909,610.549,336.909,611.209,336.909C611.868,336.909,612.527,336.909,613.187,336.909C613.846,336.909,614.505,336.909,615.165,336.909C615.824,336.909,616.484,336.909,617.143,336.909C617.802,336.909,618.462,336.909,619.121,336.909C619.78,336.909,620.44,336.909,621.099,336.909C621.758,336.909,622.418,336.909,623.077,336.909C623.736,336.909,624.396,336.909,625.055,336.909C625.714,336.909,626.374,336.909,627.033,336.909C627.692,336.909,628.352,336.909,629.011,336.909C629.67,336.909,630.33,336.909,630.989,336.909C631.648,336.909,632.308,336.909,632.967,336.909C633.626,336.909,634.286,336.909,634.945,336.909C635.604,336.909,636.264,336.909,636.923,336.909C637.582,336.909,638.242,336.909,638.901,336.909C639.56,336.909,640.22,336.909,640.879,336.909C641.538,336.909,642.198,336.909,642.857,336.909C643.516,336.909,644.176,336.909,644.835,336.909C645.495,336.909,646.154,336.909,646.813,336.909C647.473,336.909,648.132,336.909,648.791,336.909C649.451,336.909,650.11,336.909,650.769,336.909C651.429,336.909,652.088,336.909,652.747,336.909C653.407,336.909,654.066,336.909,654.725,336.909C655.385,336.909,656.044,336.909,656.703,336.909C657.363,336.909,658.022,336.909,658.681,336.909C659.341,336.909,660,336.909,660.659,336.909C661.319,336.909,661.978,336.909,662.637,336.909C663.297,336.909,663.956,336.909,664.615,336.909C665.275,336.909,665.934,336.909,666.593,336.909C667.253,336.909,667.912,336.909,668.571,336.909C669.231,336.909,669.89,336.909,670.549,336.909C671.209,336.909,671.868,336.909,672.527,336.909C673.187,336.909,673.846,336.909,674.505,336.909C675.165,336.909,675.824,336.909,676.484,336.909C677.143,336.909,677.802,336.909,678.462,336.909C679.121,336.909,679.78,336.909,680.44,336.909C681.099,336.909,681.758,336.909,682.418,336.909C683.077,336.909,683.736,336.909,684.396,336.909C685.055,336.909,685.714,336.909,686.374,336.909C687.033,336.909,687.692,336.909,688.352,336.909C689.011,336.909,689.67,336.909,690.33,336.909C690.989,336.909,691.648,336.909,692.308,336.909C692.967,336.909,693.626,336.909,694.286,336.909C694.945,336.909,695.604,336.909,696.264,336.909C696.923,336.909,697.582,336.909,698.242,336.909C698.901,336.909,699.56,336.909,700.22,336.909C700.879,336.909,701.538,336.909,702.198,336.909C702.857,336.909,703.516,336.909,704.176,336.909C704.835,336.909,705.495,336.909,706.154,336.909C706.813,336.909,707.473,336.909,708.132,336.909C708.791,336.909,709.451,336.909,710.11,336.909C710.769,336.909,711.429,336.909,712.088,336.909C712.747,336.909,713.407,336.909,714.066,336.909C714.725,336.909,715.385,336.909,716.044,336.909C716.703,336.909,717.363,336.909,718.022,336.909C718.681,336.909,719.341,336.909,720,336.909"></path><circle class="dot" cx="0" cy="327.6363636363636" r="3" fill="#2563eb"></circle><circle class="dot" cx="1.978021978021978" cy="327.6363636363636" r="3" fill="#2563eb"></circle><circle class="dot" cx="3.956043956043956" cy="327.6363636363636" r="3" fill="#2563eb"></circle><circle class="dot" cx="5.934065934065934" cy="327.6363636363636" r="3" fill="#2563eb"></circle><circle class="dot" cx="7.912087912087912" cy="327.6363636363636" r="3" fill="#2563eb"></circle><circle class="dot" cx="9.89010989010989" cy="327.6363636363636" r="3" fill="#2563eb"></circle><circle class="dot" cx="11.868131868131869" cy="327.6363636363636" r="3" fill="#2563eb"></circle><circle class="dot" cx="13.846153846153847" cy="327.6363636363636" r="3" fill="#2563eb"></circle><circle class="dot" cx="15.824175824175825" cy="327.6363636363636" r="3" fill="#2563eb"></circle><circle class="dot" cx="17.802197802197803" cy="327.6363636363636" r="3" fill="#2563eb"></circle><circle class="dot" cx="19.78021978021978" cy="327.6363636363636" r="3" fill="#2563eb"></circle><circle class="dot" cx="21.75824175824176" cy="327.6363636363636" r="3" fill="#2563eb"></circle><circle class="dot" cx="23.736263736263737" cy="327.6363636363636" r="3" fill="#2563eb"></circle><circle class="dot" cx="25.71428571428571" cy="327.6363636363636" r="3" fill="#2563eb"></circle><circle class="dot" cx="27.692307692307693" cy="327.6363636363636" r="3" fill="#2563eb"></circle><circle class="dot" cx="29.67032967032967" cy="327.6363636363636" r="3" fill="#2563eb"></circle><circle class="dot" cx="31.64835164835165" cy="327.6363636363636" r="3" fill="#2563eb"></circle><circle class="dot" cx="33.62637362637363" cy="327.6363636363636" r="3" fill="#2563eb"></circle><circle class="dot" cx="35.604395604395606" cy="327.6363636363636" r="3" fill="#2563eb"></circle><circle class="dot" cx="37.582417582417584" cy="327.6363636363636" r="3" fill="#2563eb"></circle><circle class="dot" cx="39.56043956043956" cy="327.6363636363636" r="3" fill="#2563eb"></circle><circle class="dot" cx="41.53846153846154" cy="327.6363636363636" r="3" fill="#2563eb"></circle><circle class="dot" cx="43.51648351648352" cy="327.6363636363636" r="3" fill="#2563eb"></circle><circle class="dot" cx="45.49450549450549" cy="327.6363636363636" r="3" fill="#2563eb"></circle><circle class="dot" cx="47.472527472527474" cy="327.6363636363636" r="3" fill="#2563eb"></circle><circle class="dot" cx="49.45054945054945" cy="327.6363636363636" r="3" fill="#2563eb"></circle><circle class="dot" cx="51.42857142857142" cy="327.6363636363636" r="3" fill="#2563eb"></circle><circle class="dot" cx="53.40659340659341" cy="327.6363636363636" r="3" fill="#2563eb"></circle><circle class="dot" cx="55.38461538461539" cy="327.6363636363636" r="3" fill="#2563eb"></circle><circle class="dot" cx="57.36263736263736" cy="327.6363636363636" r="3" fill="#2563eb"></circle><circle class="dot" cx="59.34065934065934" cy="327.6363636363636" r="3" fill="#2563eb"></circle><circle class="dot" cx="61.31868131868132" cy="327.6363636363636" r="3" fill="#2563eb"></circle><circle class="dot" cx="63.2967032967033" cy="327.6363636363636" r="3" fill="#2563eb"></circle><circle class="dot" cx="65.27472527472527" cy="327.6363636363636" r="3" fill="#2563eb"></circle><circle class="dot" cx="67.25274725274726" cy="327.6363636363636" r="3" fill="#2563eb"></circle><circle class="dot" cx="69.23076923076924" cy="327.6363636363636" r="3" fill="#2563eb"></circle><circle class="dot" cx="71.20879120879121" cy="327.6363636363636" r="3" fill="#2563eb"></circle><circle class="dot" cx="73.18681318681318" cy="18.54545454545455" r="3" fill="#2563eb"></circle><circle class="dot" cx="75.16483516483517" cy="306" r="3" fill="#2563eb"></circle><circle class="dot" cx="77.14285714285714" cy="324.54545454545456" r="3" fill="#2563eb"></circle><circle class="dot" cx="79.12087912087912" cy="324.54545454545456" r="3" fill="#2563eb"></circle><circle class="dot" cx="81.0989010989011" cy="324.54545454545456" r="3" fill="#2563eb"></circle><circle class="dot" cx="83.07692307692308" cy="324.54545454545456" r="3" fill="#2563eb"></circle><circle class="dot" cx="85.05494505494505" cy="324.54545454545456" r="3" fill="#2563eb"></circle><circle class="dot" cx="87.03296703296704" cy="324.54545454545456" r="3" fill="#2563eb"></circle><circle class="dot" cx="89.01098901098902" cy="324.54545454545456" r="3" fill="#2563eb"></circle><circle class="dot" cx="90.98901098901098" cy="324.54545454545456" r="3" fill="#2563eb"></circle><circle class="dot" cx="92.96703296703298" cy="324.54545454545456" r="3" fill="#2563eb"></circle><circle class="dot" cx="94.94505494505495" cy="324.54545454545456" r="3" fill="#2563eb"></circle><circle class="dot" cx="96.92307692307692" cy="324.54545454545456" r="3" fill="#2563eb"></circle><circle class="dot" cx="98.9010989010989" cy="324.54545454545456" r="3" fill="#2563eb"></circle><circle class="dot" cx="100.87912087912088" cy="324.54545454545456" r="3" fill="#2563eb"></circle><circle class="dot" cx="102.85714285714285" cy="324.54545454545456" r="3" fill="#2563eb"></circle><circle class="dot" cx="104.83516483516485" cy="324.54545454545456" r="3" fill="#2563eb"></circle><circle class="dot" cx="106.81318681318682" cy="324.54545454545456" r="3" fill="#2563eb"></circle><circle class="dot" cx="108.79120879120879" cy="324.54545454545456" r="3" fill="#2563eb"></circle><circle class="dot" cx="110.76923076923077" cy="324.54545454545456" r="3" fill="#2563eb"></circle><circle class="dot" cx="112.74725274725274" cy="324.54545454545456" r="3" fill="#2563eb"></circle><circle class="dot" cx="114.72527472527472" cy="324.54545454545456" r="3" fill="#2563eb"></circle><circle class="dot" cx="116.70329670329672" cy="324.54545454545456" r="3" fill="#2563eb"></circle><circle class="dot" cx="118.68131868131869" cy="324.54545454545456" r="3" fill="#2563eb"></circle><circle class="dot" cx="120.65934065934066" cy="324.54545454545456" r="3" fill="#2563eb"></circle><circle class="dot" cx="122.63736263736264" cy="324.54545454545456" r="3" fill="#2563eb"></circle><circle class="dot" cx="124.61538461538461" cy="324.54545454545456" r="3" fill="#2563eb"></circle><circle class="dot" cx="126.5934065934066" cy="324.54545454545456" r="3" fill="#2563eb"></circle><circle class="dot" cx="128.57142857142858" cy="324.54545454545456" r="3" fill="#2563eb"></circle><circle class="dot" cx="130.54945054945054" cy="324.54545454545456" r="3" fill="#2563eb"></circle><circle class="dot" cx="132.52747252747253" cy="324.54545454545456" r="3" fill="#2563eb"></circle><circle class="dot" cx="134.5054945054945" cy="324.54545454545456" r="3" fill="#2563eb"></circle><circle class="dot" cx="136.48351648351647" cy="324.54545454545456" r="3" fill="#2563eb"></circle><circle class="dot" cx="138.46153846153848" cy="324.54545454545456" r="3" fill="#2563eb"></circle><circle class="dot" cx="140.43956043956044" cy="324.54545454545456" r="3" fill="#2563eb"></circle><circle class="dot" cx="142.41758241758242" cy="324.54545454545456" r="3" fill="#2563eb"></circle><circle class="dot" cx="144.3956043956044" cy="324.54545454545456" r="3" fill="#2563eb"></circle><circle class="dot" cx="146.37362637362637" cy="324.54545454545456" r="3" fill="#2563eb"></circle><circle class="dot" cx="148.35164835164835" cy="324.54545454545456" r="3" fill="#2563eb"></circle><circle class="dot" cx="150.32967032967034" cy="324.54545454545456" r="3" fill="#2563eb"></circle><circle class="dot" cx="152.3076923076923" cy="324.54545454545456" r="3" fill="#2563eb"></circle><circle class="dot" cx="154.28571428571428" cy="324.54545454545456" r="3" fill="#2563eb"></circle><circle class="dot" cx="156.26373626373626" cy="324.54545454545456" r="3" fill="#2563eb"></circle><circle class="dot" cx="158.24175824175825" cy="324.54545454545456" r="3" fill="#2563eb"></circle><circle class="dot" cx="160.2197802197802" cy="324.54545454545456" r="3" fill="#2563eb"></circle><circle class="dot" cx="162.1978021978022" cy="324.54545454545456" r="3" fill="#2563eb"></circle><circle class="dot" cx="164.17582417582418" cy="324.54545454545456" r="3" fill="#2563eb"></circle><circle class="dot" cx="166.15384615384616" cy="324.54545454545456" r="3" fill="#2563eb"></circle><circle class="dot" cx="168.13186813186815" cy="324.54545454545456" r="3" fill="#2563eb"></circle><circle class="dot" cx="170.1098901098901" cy="324.54545454545456" r="3" fill="#2563eb"></circle><circle class="dot" cx="172.0879120879121" cy="324.54545454545456" r="3" fill="#2563eb"></circle><circle class="dot" cx="174.06593406593407" cy="324.54545454545456" r="3" fill="#2563eb"></circle><circle class="dot" cx="176.04395604395603" cy="324.54545454545456" r="3" fill="#2563eb"></circle><circle class="dot" cx="178.02197802197804" cy="324.54545454545456" r="3" fill="#2563eb"></circle><circle class="dot" cx="180" cy="324.54545454545456" r="3" fill="#2563eb"></circle><circle class="dot" cx="181.97802197802196" cy="324.54545454545456" r="3" fill="#2563eb"></circle><circle class="dot" cx="183.95604395604394" cy="324.54545454545456" r="3" fill="#2563eb"></circle><circle class="dot" cx="185.93406593406596" cy="324.54545454545456" r="3" fill="#2563eb"></circle><circle class="dot" cx="187.9120879120879" cy="324.54545454545456" r="3" fill="#2563eb"></circle><circle class="dot" cx="189.8901098901099" cy="324.54545454545456" r="3" fill="#2563eb"></circle><circle class="dot" cx="191.86813186813185" cy="324.54545454545456" r="3" fill="#2563eb"></circle><circle class="dot" cx="193.84615384615384" cy="324.54545454545456" r="3" fill="#2563eb"></circle><circle class="dot" cx="195.8241758241758" cy="324.54545454545456" r="3" fill="#2563eb"></circle><circle class="dot" cx="197.8021978021978" cy="324.54545454545456" r="3" fill="#2563eb"></circle><circle class="dot" cx="199.7802197802198" cy="321.45454545454544" r="3" fill="#2563eb"></circle><circle class="dot" cx="201.75824175824175" cy="324.54545454545456" r="3" fill="#2563eb"></circle><circle class="dot" cx="203.73626373626374" cy="324.54545454545456" r="3" fill="#2563eb"></circle><circle class="dot" cx="205.7142857142857" cy="309.09090909090907" r="3" fill="#2563eb"></circle><circle class="dot" cx="207.69230769230768" cy="315.27272727272725" r="3" fill="#2563eb"></circle><circle class="dot" cx="209.6703296703297" cy="324.54545454545456" r="3" fill="#2563eb"></circle><circle class="dot" cx="211.64835164835165" cy="324.54545454545456" r="3" fill="#2563eb"></circle><circle class="dot" cx="213.62637362637363" cy="321.45454545454544" r="3" fill="#2563eb"></circle><circle class="dot" cx="215.6043956043956" cy="324.54545454545456" r="3" fill="#2563eb"></circle><circle class="dot" cx="217.58241758241758" cy="318.3636363636364" r="3" fill="#2563eb"></circle><circle class="dot" cx="219.5604395604396" cy="318.3636363636364" r="3" fill="#2563eb"></circle><circle class="dot" cx="221.53846153846155" cy="315.27272727272725" r="3" fill="#2563eb"></circle><circle class="dot" cx="223.51648351648353" cy="312.1818181818182" r="3" fill="#2563eb"></circle><circle class="dot" cx="225.4945054945055" cy="318.3636363636364" r="3" fill="#2563eb"></circle><circle class="dot" cx="227.47252747252747" cy="324.54545454545456" r="3" fill="#2563eb"></circle><circle class="dot" cx="229.45054945054943" cy="324.54545454545456" r="3" fill="#2563eb"></circle><circle class="dot" cx="231.42857142857144" cy="324.54545454545456" r="3" fill="#2563eb"></circle><circle class="dot" cx="233.40659340659343" cy="324.54545454545456" r="3" fill="#2563eb"></circle><circle class="dot" cx="235.3846153846154" cy="324.54545454545456" r="3" fill="#2563eb"></circle><circle class="dot" cx="237.36263736263737" cy="315.27272727272725" r="3" fill="#2563eb"></circle><circle class="dot" cx="239.34065934065933" cy="318.3636363636364" r="3" fill="#2563eb"></circle><circle class="dot" cx="241.3186813186813" cy="315.27272727272725" r="3" fill="#2563eb"></circle><circle class="dot" cx="243.2967032967033" cy="309.09090909090907" r="3" fill="#2563eb"></circle><circle class="dot" cx="245.27472527472528" cy="312.1818181818182" r="3" fill="#2563eb"></circle><circle class="dot" cx="247.25274725274724" cy="318.3636363636364" r="3" fill="#2563eb"></circle><circle class="dot" cx="249.23076923076923" cy="312.1818181818182" r="3" fill="#2563eb"></circle><circle class="dot" cx="251.20879120879118" cy="296.7272727272727" r="3" fill="#2563eb"></circle><circle class="dot" cx="253.1868131868132" cy="312.1818181818182" r="3" fill="#2563eb"></circle><circle class="dot" cx="255.16483516483518" cy="299.8181818181818" r="3" fill="#2563eb"></circle><circle class="dot" cx="257.14285714285717" cy="306" r="3" fill="#2563eb"></circle><circle class="dot" cx="259.1208791208791" cy="306" r="3" fill="#2563eb"></circle><circle class="dot" cx="261.0989010989011" cy="309.09090909090907" r="3" fill="#2563eb"></circle><circle class="dot" cx="263.07692307692304" cy="302.9090909090909" r="3" fill="#2563eb"></circle><circle class="dot" cx="265.05494505494505" cy="284.3636363636364" r="3" fill="#2563eb"></circle><circle class="dot" cx="267.03296703296706" cy="284.3636363636364" r="3" fill="#2563eb"></circle><circle class="dot" cx="269.010989010989" cy="290.5454545454545" r="3" fill="#2563eb"></circle><circle class="dot" cx="270.989010989011" cy="302.9090909090909" r="3" fill="#2563eb"></circle><circle class="dot" cx="272.96703296703294" cy="296.7272727272727" r="3" fill="#2563eb"></circle><circle class="dot" cx="274.94505494505495" cy="296.7272727272727" r="3" fill="#2563eb"></circle><circle class="dot" cx="276.92307692307696" cy="302.9090909090909" r="3" fill="#2563eb"></circle><circle class="dot" cx="278.9010989010989" cy="318.3636363636364" r="3" fill="#2563eb"></circle><circle class="dot" cx="280.8791208791209" cy="312.1818181818182" r="3" fill="#2563eb"></circle><circle class="dot" cx="282.85714285714283" cy="312.1818181818182" r="3" fill="#2563eb"></circle><circle class="dot" cx="284.83516483516485" cy="321.45454545454544" r="3" fill="#2563eb"></circle><circle class="dot" cx="286.8131868131868" cy="318.3636363636364" r="3" fill="#2563eb"></circle><circle class="dot" cx="288.7912087912088" cy="324.54545454545456" r="3" fill="#2563eb"></circle><circle class="dot" cx="290.7692307692308" cy="324.54545454545456" r="3" fill="#2563eb"></circle><circle class="dot" cx="292.74725274725273" cy="324.54545454545456" r="3" fill="#2563eb"></circle><circle class="dot" cx="294.72527472527474" cy="321.45454545454544" r="3" fill="#2563eb"></circle><circle class="dot" cx="296.7032967032967" cy="324.54545454545456" r="3" fill="#2563eb"></circle><circle class="dot" cx="298.6813186813187" cy="324.54545454545456" r="3" fill="#2563eb"></circle><circle class="dot" cx="300.65934065934067" cy="324.54545454545456" r="3" fill="#2563eb"></circle><circle class="dot" cx="302.6373626373626" cy="324.54545454545456" r="3" fill="#2563eb"></circle><circle class="dot" cx="304.6153846153846" cy="324.54545454545456" r="3" fill="#2563eb"></circle><circle class="dot" cx="306.5934065934066" cy="324.54545454545456" r="3" fill="#2563eb"></circle><circle class="dot" cx="308.57142857142856" cy="324.54545454545456" r="3" fill="#2563eb"></circle><circle class="dot" cx="310.54945054945057" cy="324.54545454545456" r="3" fill="#2563eb"></circle><circle class="dot" cx="312.5274725274725" cy="324.54545454545456" r="3" fill="#2563eb"></circle><circle class="dot" cx="314.5054945054945" cy="324.54545454545456" r="3" fill="#2563eb"></circle><circle class="dot" cx="316.4835164835165" cy="324.54545454545456" r="3" fill="#2563eb"></circle><circle class="dot" cx="318.46153846153845" cy="324.54545454545456" r="3" fill="#2563eb"></circle><circle class="dot" cx="320.4395604395604" cy="324.54545454545456" r="3" fill="#2563eb"></circle><circle class="dot" cx="322.4175824175824" cy="324.54545454545456" r="3" fill="#2563eb"></circle><circle class="dot" cx="324.3956043956044" cy="324.54545454545456" r="3" fill="#2563eb"></circle><circle class="dot" cx="326.3736263736264" cy="324.54545454545456" r="3" fill="#2563eb"></circle><circle class="dot" cx="328.35164835164835" cy="324.54545454545456" r="3" fill="#2563eb"></circle><circle class="dot" cx="330.3296703296703" cy="324.54545454545456" r="3" fill="#2563eb"></circle><circle class="dot" cx="332.3076923076923" cy="324.54545454545456" r="3" fill="#2563eb"></circle><circle class="dot" cx="334.2857142857143" cy="324.54545454545456" r="3" fill="#2563eb"></circle><circle class="dot" cx="336.2637362637363" cy="324.54545454545456" r="3" fill="#2563eb"></circle><circle class="dot" cx="338.24175824175825" cy="324.54545454545456" r="3" fill="#2563eb"></circle><circle class="dot" cx="340.2197802197802" cy="324.54545454545456" r="3" fill="#2563eb"></circle><circle class="dot" cx="342.19780219780216" cy="324.54545454545456" r="3" fill="#2563eb"></circle><circle class="dot" cx="344.1758241758242" cy="324.54545454545456" r="3" fill="#2563eb"></circle><circle class="dot" cx="346.1538461538462" cy="324.54545454545456" r="3" fill="#2563eb"></circle><circle class="dot" cx="348.13186813186815" cy="324.54545454545456" r="3" fill="#2563eb"></circle><circle class="dot" cx="350.1098901098901" cy="324.54545454545456" r="3" fill="#2563eb"></circle><circle class="dot" cx="352.08791208791206" cy="324.54545454545456" r="3" fill="#2563eb"></circle><circle class="dot" cx="354.0659340659341" cy="324.54545454545456" r="3" fill="#2563eb"></circle><circle class="dot" cx="356.0439560439561" cy="324.54545454545456" r="3" fill="#2563eb"></circle><circle class="dot" cx="358.02197802197804" cy="324.54545454545456" r="3" fill="#2563eb"></circle><circle class="dot" cx="360" cy="324.54545454545456" r="3" fill="#2563eb"></circle><circle class="dot" cx="361.97802197802196" cy="324.54545454545456" r="3" fill="#2563eb"></circle><circle class="dot" cx="363.9560439560439" cy="324.54545454545456" r="3" fill="#2563eb"></circle><circle class="dot" cx="365.9340659340659" cy="324.54545454545456" r="3" fill="#2563eb"></circle><circle class="dot" cx="367.9120879120879" cy="324.54545454545456" r="3" fill="#2563eb"></circle><circle class="dot" cx="369.89010989010984" cy="324.54545454545456" r="3" fill="#2563eb"></circle><circle class="dot" cx="371.8681318681319" cy="324.54545454545456" r="3" fill="#2563eb"></circle><circle class="dot" cx="373.84615384615387" cy="324.54545454545456" r="3" fill="#2563eb"></circle><circle class="dot" cx="375.8241758241758" cy="324.54545454545456" r="3" fill="#2563eb"></circle><circle class="dot" cx="377.80219780219784" cy="324.54545454545456" r="3" fill="#2563eb"></circle><circle class="dot" cx="379.7802197802198" cy="324.54545454545456" r="3" fill="#2563eb"></circle><circle class="dot" cx="381.75824175824175" cy="324.54545454545456" r="3" fill="#2563eb"></circle><circle class="dot" cx="383.7362637362637" cy="324.54545454545456" r="3" fill="#2563eb"></circle><circle class="dot" cx="385.7142857142857" cy="324.54545454545456" r="3" fill="#2563eb"></circle><circle class="dot" cx="387.6923076923077" cy="324.54545454545456" r="3" fill="#2563eb"></circle><circle class="dot" cx="389.67032967032964" cy="324.54545454545456" r="3" fill="#2563eb"></circle><circle class="dot" cx="391.6483516483516" cy="324.54545454545456" r="3" fill="#2563eb"></circle><circle class="dot" cx="393.6263736263736" cy="324.54545454545456" r="3" fill="#2563eb"></circle><circle class="dot" cx="395.6043956043956" cy="324.54545454545456" r="3" fill="#2563eb"></circle><circle class="dot" cx="397.58241758241763" cy="324.54545454545456" r="3" fill="#2563eb"></circle><circle class="dot" cx="399.5604395604396" cy="324.54545454545456" r="3" fill="#2563eb"></circle><circle class="dot" cx="401.53846153846155" cy="324.54545454545456" r="3" fill="#2563eb"></circle><circle class="dot" cx="403.5164835164835" cy="324.54545454545456" r="3" fill="#2563eb"></circle><circle class="dot" cx="405.4945054945055" cy="324.54545454545456" r="3" fill="#2563eb"></circle><circle class="dot" cx="407.4725274725275" cy="324.54545454545456" r="3" fill="#2563eb"></circle><circle class="dot" cx="409.45054945054943" cy="324.54545454545456" r="3" fill="#2563eb"></circle><circle class="dot" cx="411.4285714285714" cy="324.54545454545456" r="3" fill="#2563eb"></circle><circle class="dot" cx="413.4065934065934" cy="324.54545454545456" r="3" fill="#2563eb"></circle><circle class="dot" cx="415.38461538461536" cy="324.54545454545456" r="3" fill="#2563eb"></circle><circle class="dot" cx="417.3626373626374" cy="324.54545454545456" r="3" fill="#2563eb"></circle><circle class="dot" cx="419.3406593406594" cy="324.54545454545456" r="3" fill="#2563eb"></circle><circle class="dot" cx="421.31868131868134" cy="324.54545454545456" r="3" fill="#2563eb"></circle><circle class="dot" cx="423.2967032967033" cy="324.54545454545456" r="3" fill="#2563eb"></circle><circle class="dot" cx="425.27472527472526" cy="324.54545454545456" r="3" fill="#2563eb"></circle><circle class="dot" cx="427.25274725274727" cy="324.54545454545456" r="3" fill="#2563eb"></circle><circle class="dot" cx="429.2307692307692" cy="324.54545454545456" r="3" fill="#2563eb"></circle><circle class="dot" cx="431.2087912087912" cy="324.54545454545456" r="3" fill="#2563eb"></circle><circle class="dot" cx="433.18681318681314" cy="324.54545454545456" r="3" fill="#2563eb"></circle><circle class="dot" cx="435.16483516483515" cy="324.54545454545456" r="3" fill="#2563eb"></circle><circle class="dot" cx="437.1428571428571" cy="324.54545454545456" r="3" fill="#2563eb"></circle><circle class="dot" cx="439.1208791208792" cy="324.54545454545456" r="3" fill="#2563eb"></circle><circle class="dot" cx="441.09890109890114" cy="324.54545454545456" r="3" fill="#2563eb"></circle><circle class="dot" cx="443.0769230769231" cy="324.54545454545456" r="3" fill="#2563eb"></circle><circle class="dot" cx="445.05494505494505" cy="324.54545454545456" r="3" fill="#2563eb"></circle><circle class="dot" cx="447.03296703296706" cy="324.54545454545456" r="3" fill="#2563eb"></circle><circle class="dot" cx="449.010989010989" cy="324.54545454545456" r="3" fill="#2563eb"></circle><circle class="dot" cx="450.989010989011" cy="324.54545454545456" r="3" fill="#2563eb"></circle><circle class="dot" cx="452.96703296703294" cy="324.54545454545456" r="3" fill="#2563eb"></circle><circle class="dot" cx="454.94505494505495" cy="324.54545454545456" r="3" fill="#2563eb"></circle><circle class="dot" cx="456.9230769230769" cy="324.54545454545456" r="3" fill="#2563eb"></circle><circle class="dot" cx="458.90109890109886" cy="324.54545454545456" r="3" fill="#2563eb"></circle><circle class="dot" cx="460.8791208791208" cy="324.54545454545456" r="3" fill="#2563eb"></circle><circle class="dot" cx="462.8571428571429" cy="324.54545454545456" r="3" fill="#2563eb"></circle><circle class="dot" cx="464.83516483516485" cy="324.54545454545456" r="3" fill="#2563eb"></circle><circle class="dot" cx="466.81318681318686" cy="324.54545454545456" r="3" fill="#2563eb"></circle><circle class="dot" cx="468.7912087912088" cy="324.54545454545456" r="3" fill="#2563eb"></circle><circle class="dot" cx="470.7692307692308" cy="336.90909090909093" r="3" fill="#2563eb"></circle><circle class="dot" cx="472.74725274725273" cy="336.90909090909093" r="3" fill="#2563eb"></circle><circle class="dot" cx="474.72527472527474" cy="336.90909090909093" r="3" fill="#2563eb"></circle><circle class="dot" cx="476.7032967032967" cy="336.90909090909093" r="3" fill="#2563eb"></circle><circle class="dot" cx="478.68131868131866" cy="336.90909090909093" r="3" fill="#2563eb"></circle><circle class="dot" cx="480.6593406593406" cy="336.90909090909093" r="3" fill="#2563eb"></circle><circle class="dot" cx="482.6373626373626" cy="336.90909090909093" r="3" fill="#2563eb"></circle><circle class="dot" cx="484.61538461538464" cy="336.90909090909093" r="3" fill="#2563eb"></circle><circle class="dot" cx="486.5934065934066" cy="336.90909090909093" r="3" fill="#2563eb"></circle><circle class="dot" cx="488.5714285714286" cy="336.90909090909093" r="3" fill="#2563eb"></circle><circle class="dot" cx="490.54945054945057" cy="336.90909090909093" r="3" fill="#2563eb"></circle><circle class="dot" cx="492.5274725274725" cy="336.90909090909093" r="3" fill="#2563eb"></circle><circle class="dot" cx="494.5054945054945" cy="336.90909090909093" r="3" fill="#2563eb"></circle><circle class="dot" cx="496.4835164835165" cy="336.90909090909093" r="3" fill="#2563eb"></circle><circle class="dot" cx="498.46153846153845" cy="336.90909090909093" r="3" fill="#2563eb"></circle><circle class="dot" cx="500.4395604395604" cy="336.90909090909093" r="3" fill="#2563eb"></circle><circle class="dot" cx="502.41758241758237" cy="336.90909090909093" r="3" fill="#2563eb"></circle><circle class="dot" cx="504.3956043956044" cy="336.90909090909093" r="3" fill="#2563eb"></circle><circle class="dot" cx="506.3736263736264" cy="336.90909090909093" r="3" fill="#2563eb"></circle><circle class="dot" cx="508.3516483516484" cy="336.90909090909093" r="3" fill="#2563eb"></circle><circle class="dot" cx="510.32967032967036" cy="336.90909090909093" r="3" fill="#2563eb"></circle><circle class="dot" cx="512.3076923076924" cy="336.90909090909093" r="3" fill="#2563eb"></circle><circle class="dot" cx="514.2857142857143" cy="336.90909090909093" r="3" fill="#2563eb"></circle><circle class="dot" cx="516.2637362637363" cy="336.90909090909093" r="3" fill="#2563eb"></circle><circle class="dot" cx="518.2417582417582" cy="336.90909090909093" r="3" fill="#2563eb"></circle><circle class="dot" cx="520.2197802197802" cy="336.90909090909093" r="3" fill="#2563eb"></circle><circle class="dot" cx="522.1978021978022" cy="336.90909090909093" r="3" fill="#2563eb"></circle><circle class="dot" cx="524.1758241758241" cy="336.90909090909093" r="3" fill="#2563eb"></circle><circle class="dot" cx="526.1538461538461" cy="336.90909090909093" r="3" fill="#2563eb"></circle><circle class="dot" cx="528.1318681318681" cy="336.90909090909093" r="3" fill="#2563eb"></circle><circle class="dot" cx="530.1098901098901" cy="336.90909090909093" r="3" fill="#2563eb"></circle><circle class="dot" cx="532.0879120879122" cy="336.90909090909093" r="3" fill="#2563eb"></circle><circle class="dot" cx="534.0659340659341" cy="336.90909090909093" r="3" fill="#2563eb"></circle><circle class="dot" cx="536.0439560439561" cy="336.90909090909093" r="3" fill="#2563eb"></circle><circle class="dot" cx="538.021978021978" cy="336.90909090909093" r="3" fill="#2563eb"></circle><circle class="dot" cx="540" cy="336.90909090909093" r="3" fill="#2563eb"></circle><circle class="dot" cx="541.978021978022" cy="336.90909090909093" r="3" fill="#2563eb"></circle><circle class="dot" cx="543.9560439560439" cy="336.90909090909093" r="3" fill="#2563eb"></circle><circle class="dot" cx="545.9340659340659" cy="336.90909090909093" r="3" fill="#2563eb"></circle><circle class="dot" cx="547.9120879120878" cy="336.90909090909093" r="3" fill="#2563eb"></circle><circle class="dot" cx="549.8901098901099" cy="336.90909090909093" r="3" fill="#2563eb"></circle><circle class="dot" cx="551.8681318681319" cy="336.90909090909093" r="3" fill="#2563eb"></circle><circle class="dot" cx="553.8461538461539" cy="336.90909090909093" r="3" fill="#2563eb"></circle><circle class="dot" cx="555.8241758241759" cy="336.90909090909093" r="3" fill="#2563eb"></circle><circle class="dot" cx="557.8021978021978" cy="336.90909090909093" r="3" fill="#2563eb"></circle><circle class="dot" cx="559.7802197802198" cy="336.90909090909093" r="3" fill="#2563eb"></circle><circle class="dot" cx="561.7582417582418" cy="336.90909090909093" r="3" fill="#2563eb"></circle><circle class="dot" cx="563.7362637362637" cy="336.90909090909093" r="3" fill="#2563eb"></circle><circle class="dot" cx="565.7142857142857" cy="336.90909090909093" r="3" fill="#2563eb"></circle><circle class="dot" cx="567.6923076923076" cy="336.90909090909093" r="3" fill="#2563eb"></circle><circle class="dot" cx="569.6703296703297" cy="336.90909090909093" r="3" fill="#2563eb"></circle><circle class="dot" cx="571.6483516483516" cy="336.90909090909093" r="3" fill="#2563eb"></circle><circle class="dot" cx="573.6263736263736" cy="336.90909090909093" r="3" fill="#2563eb"></circle><circle class="dot" cx="575.6043956043957" cy="336.90909090909093" r="3" fill="#2563eb"></circle><circle class="dot" cx="577.5824175824176" cy="336.90909090909093" r="3" fill="#2563eb"></circle><circle class="dot" cx="579.5604395604396" cy="336.90909090909093" r="3" fill="#2563eb"></circle><circle class="dot" cx="581.5384615384615" cy="336.90909090909093" r="3" fill="#2563eb"></circle><circle class="dot" cx="583.5164835164835" cy="336.90909090909093" r="3" fill="#2563eb"></circle><circle class="dot" cx="585.4945054945055" cy="336.90909090909093" r="3" fill="#2563eb"></circle><circle class="dot" cx="587.4725274725274" cy="336.90909090909093" r="3" fill="#2563eb"></circle><circle class="dot" cx="589.4505494505495" cy="336.90909090909093" r="3" fill="#2563eb"></circle><circle class="dot" cx="591.4285714285714" cy="336.90909090909093" r="3" fill="#2563eb"></circle><circle class="dot" cx="593.4065934065934" cy="336.90909090909093" r="3" fill="#2563eb"></circle><circle class="dot" cx="595.3846153846154" cy="336.90909090909093" r="3" fill="#2563eb"></circle><circle class="dot" cx="597.3626373626374" cy="336.90909090909093" r="3" fill="#2563eb"></circle><circle class="dot" cx="599.3406593406594" cy="336.90909090909093" r="3" fill="#2563eb"></circle><circle class="dot" cx="601.3186813186813" cy="336.90909090909093" r="3" fill="#2563eb"></circle><circle class="dot" cx="603.2967032967033" cy="336.90909090909093" r="3" fill="#2563eb"></circle><circle class="dot" cx="605.2747252747253" cy="336.90909090909093" r="3" fill="#2563eb"></circle><circle class="dot" cx="607.2527472527472" cy="336.90909090909093" r="3" fill="#2563eb"></circle><circle class="dot" cx="609.2307692307692" cy="336.90909090909093" r="3" fill="#2563eb"></circle><circle class="dot" cx="611.2087912087912" cy="336.90909090909093" r="3" fill="#2563eb"></circle><circle class="dot" cx="613.1868131868132" cy="336.90909090909093" r="3" fill="#2563eb"></circle><circle class="dot" cx="615.1648351648352" cy="336.90909090909093" r="3" fill="#2563eb"></circle><circle class="dot" cx="617.1428571428571" cy="336.90909090909093" r="3" fill="#2563eb"></circle><circle class="dot" cx="619.1208791208792" cy="336.90909090909093" r="3" fill="#2563eb"></circle><circle class="dot" cx="621.0989010989011" cy="336.90909090909093" r="3" fill="#2563eb"></circle><circle class="dot" cx="623.0769230769231" cy="336.90909090909093" r="3" fill="#2563eb"></circle><circle class="dot" cx="625.054945054945" cy="336.90909090909093" r="3" fill="#2563eb"></circle><circle class="dot" cx="627.032967032967" cy="336.90909090909093" r="3" fill="#2563eb"></circle><circle class="dot" cx="629.010989010989" cy="336.90909090909093" r="3" fill="#2563eb"></circle><circle class="dot" cx="630.989010989011" cy="336.90909090909093" r="3" fill="#2563eb"></circle><circle class="dot" cx="632.967032967033" cy="336.90909090909093" r="3" fill="#2563eb"></circle><circle class="dot" cx="634.945054945055" cy="336.90909090909093" r="3" fill="#2563eb"></circle><circle class="dot" cx="636.9230769230769" cy="336.90909090909093" r="3" fill="#2563eb"></circle><circle class="dot" cx="638.9010989010989" cy="336.90909090909093" r="3" fill="#2563eb"></circle><circle class="dot" cx="640.8791208791208" cy="336.90909090909093" r="3" fill="#2563eb"></circle><circle class="dot" cx="642.8571428571429" cy="336.90909090909093" r="3" fill="#2563eb"></circle><circle class="dot" cx="644.8351648351648" cy="336.90909090909093" r="3" fill="#2563eb"></circle><circle class="dot" cx="646.8131868131868" cy="336.90909090909093" r="3" fill="#2563eb"></circle><circle class="dot" cx="648.7912087912088" cy="336.90909090909093" r="3" fill="#2563eb"></circle><circle class="dot" cx="650.7692307692308" cy="336.90909090909093" r="3" fill="#2563eb"></circle><circle class="dot" cx="652.7472527472528" cy="336.90909090909093" r="3" fill="#2563eb"></circle><circle class="dot" cx="654.7252747252747" cy="336.90909090909093" r="3" fill="#2563eb"></circle><circle class="dot" cx="656.7032967032967" cy="336.90909090909093" r="3" fill="#2563eb"></circle><circle class="dot" cx="658.6813186813187" cy="336.90909090909093" r="3" fill="#2563eb"></circle><circle class="dot" cx="660.6593406593406" cy="336.90909090909093" r="3" fill="#2563eb"></circle><circle class="dot" cx="662.6373626373626" cy="336.90909090909093" r="3" fill="#2563eb"></circle><circle class="dot" cx="664.6153846153846" cy="336.90909090909093" r="3" fill="#2563eb"></circle><circle class="dot" cx="666.5934065934066" cy="336.90909090909093" r="3" fill="#2563eb"></circle><circle class="dot" cx="668.5714285714286" cy="336.90909090909093" r="3" fill="#2563eb"></circle><circle class="dot" cx="670.5494505494505" cy="336.90909090909093" r="3" fill="#2563eb"></circle><circle class="dot" cx="672.5274725274726" cy="336.90909090909093" r="3" fill="#2563eb"></circle><circle class="dot" cx="674.5054945054945" cy="336.90909090909093" r="3" fill="#2563eb"></circle><circle class="dot" cx="676.4835164835165" cy="336.90909090909093" r="3" fill="#2563eb"></circle><circle class="dot" cx="678.4615384615385" cy="336.90909090909093" r="3" fill="#2563eb"></circle><circle class="dot" cx="680.4395604395604" cy="336.90909090909093" r="3" fill="#2563eb"></circle><circle class="dot" cx="682.4175824175824" cy="336.90909090909093" r="3" fill="#2563eb"></circle><circle class="dot" cx="684.3956043956043" cy="336.90909090909093" r="3" fill="#2563eb"></circle><circle class="dot" cx="686.3736263736264" cy="336.90909090909093" r="3" fill="#2563eb"></circle><circle class="dot" cx="688.3516483516484" cy="336.90909090909093" r="3" fill="#2563eb"></circle><circle class="dot" cx="690.3296703296703" cy="336.90909090909093" r="3" fill="#2563eb"></circle><circle class="dot" cx="692.3076923076924" cy="336.90909090909093" r="3" fill="#2563eb"></circle><circle class="dot" cx="694.2857142857143" cy="336.90909090909093" r="3" fill="#2563eb"></circle><circle class="dot" cx="696.2637362637363" cy="336.90909090909093" r="3" fill="#2563eb"></circle><circle class="dot" cx="698.2417582417582" cy="336.90909090909093" r="3" fill="#2563eb"></circle><circle class="dot" cx="700.2197802197802" cy="336.90909090909093" r="3" fill="#2563eb"></circle><circle class="dot" cx="702.1978021978022" cy="336.90909090909093" r="3" fill="#2563eb"></circle><circle class="dot" cx="704.1758241758241" cy="336.90909090909093" r="3" fill="#2563eb"></circle><circle class="dot" cx="706.1538461538461" cy="336.90909090909093" r="3" fill="#2563eb"></circle><circle class="dot" cx="708.1318681318681" cy="336.90909090909093" r="3" fill="#2563eb"></circle><circle class="dot" cx="710.1098901098901" cy="336.90909090909093" r="3" fill="#2563eb"></circle><circle class="dot" cx="712.0879120879122" cy="336.90909090909093" r="3" fill="#2563eb"></circle><circle class="dot" cx="714.0659340659341" cy="336.90909090909093" r="3" fill="#2563eb"></circle><circle class="dot" cx="716.0439560439561" cy="336.90909090909093" r="3" fill="#2563eb"></circle><circle class="dot" cx="718.021978021978" cy="336.90909090909093" r="3" fill="#2563eb"></circle><circle class="dot" cx="720" cy="336.90909090909093" r="3" fill="#2563eb"></circle><g class="grid" transform="translate(0,340)" fill="none" font-size="10" font-family="sans-serif" text-anchor="middle" style="stroke-dasharray: 3,3; opacity: 0.3;"><path class="domain" stroke="currentColor" d="M0.5,-340V0.5H720.5V-340"></path><g class="tick" opacity="1" transform="translate(0.5,0)"><line stroke="currentColor" y2="-340"></line><text fill="currentColor" y="3" dy="0.71em"></text></g><g class="tick" opacity="1" transform="translate(47.972527472527474,0)"><line stroke="currentColor" y2="-340"></line><text fill="currentColor" y="3" dy="0.71em"></text></g><g class="tick" opacity="1" transform="translate(95.44505494505495,0)"><line stroke="currentColor" y2="-340"></line><text fill="currentColor" y="3" dy="0.71em"></text></g><g class="tick" opacity="1" transform="translate(142.91758241758242,0)"><line stroke="currentColor" y2="-340"></line><text fill="currentColor" y="3" dy="0.71em"></text></g><g class="tick" opacity="1" transform="translate(190.3901098901099,0)"><line stroke="currentColor" y2="-340"></line><text fill="currentColor" y="3" dy="0.71em"></text></g><g class="tick" opacity="1" transform="translate(237.86263736263737,0)"><line stroke="currentColor" y2="-340"></line><text fill="currentColor" y="3" dy="0.71em"></text></g><g class="tick" opacity="1" transform="translate(285.33516483516485,0)"><line stroke="currentColor" y2="-340"></line><text fill="currentColor" y="3" dy="0.71em"></text></g><g class="tick" opacity="1" transform="translate(332.8076923076923,0)"><line stroke="currentColor" y2="-340"></line><text fill="currentColor" y="3" dy="0.71em"></text></g><g class="tick" opacity="1" transform="translate(380.2802197802198,0)"><line stroke="currentColor" y2="-340"></line><text fill="currentColor" y="3" dy="0.71em"></text></g><g class="tick" opacity="1" transform="translate(427.75274725274727,0)"><line stroke="currentColor" y2="-340"></line><text fill="currentColor" y="3" dy="0.71em"></text></g><g class="tick" opacity="1" transform="translate(475.22527472527474,0)"><line stroke="currentColor" y2="-340"></line><text fill="currentColor" y="3" dy="0.71em"></text></g><g class="tick" opacity="1" transform="translate(522.6978021978022,0)"><line stroke="currentColor" y2="-340"></line><text fill="currentColor" y="3" dy="0.71em"></text></g><g class="tick" opacity="1" transform="translate(570.1703296703297,0)"><line stroke="currentColor" y2="-340"></line><text fill="currentColor" y="3" dy="0.71em"></text></g><g class="tick" opacity="1" transform="translate(617.6428571428571,0)"><line stroke="currentColor" y2="-340"></line><text fill="currentColor" y="3" dy="0.71em"></text></g><g class="tick" opacity="1" transform="translate(665.1153846153846,0)"><line stroke="currentColor" y2="-340"></line><text fill="currentColor" y="3" dy="0.71em"></text></g><g class="tick" opacity="1" transform="translate(712.5879120879122,0)"><line stroke="currentColor" y2="-340"></line><text fill="currentColor" y="3" dy="0.71em"></text></g></g><g class="grid" fill="none" font-size="10" font-family="sans-serif" text-anchor="end" style="stroke-dasharray: 3,3; opacity: 0.3;"><path class="domain" stroke="currentColor" d="M720,340.5H0.5V0.5H720"></path><g class="tick" opacity="1" transform="translate(0,340.5)"><line stroke="currentColor" x2="720"></line><text fill="currentColor" x="-3" dy="0.32em"></text></g><g class="tick" opacity="1" transform="translate(0,309.59090909090907)"><line stroke="currentColor" x2="720"></line><text fill="currentColor" x="-3" dy="0.32em"></text></g><g class="tick" opacity="1" transform="translate(0,278.6818181818182)"><line stroke="currentColor" x2="720"></line><text fill="currentColor" x="-3" dy="0.32em"></text></g><g class="tick" opacity="1" transform="translate(0,247.77272727272728)"><line stroke="currentColor" x2="720"></line><text fill="currentColor" x="-3" dy="0.32em"></text></g><g class="tick" opacity="1" transform="translate(0,216.86363636363637)"><line stroke="currentColor" x2="720"></line><text fill="currentColor" x="-3" dy="0.32em"></text></g><g class="tick" opacity="1" transform="translate(0,185.95454545454544)"><line stroke="currentColor" x2="720"></line><text fill="currentColor" x="-3" dy="0.32em"></text></g><g class="tick" opacity="1" transform="translate(0,155.04545454545456)"><line stroke="currentColor" x2="720"></line><text fill="currentColor" x="-3" dy="0.32em"></text></g><g class="tick" opacity="1" transform="translate(0,124.13636363636368)"><line stroke="currentColor" x2="720"></line><text fill="currentColor" x="-3" dy="0.32em"></text></g><g class="tick" opacity="1" transform="translate(0,93.22727272727272)"><line stroke="currentColor" x2="720"></line><text fill="currentColor" x="-3" dy="0.32em"></text></g><g class="tick" opacity="1" transform="translate(0,62.31818181818184)"><line stroke="currentColor" x2="720"></line><text fill="currentColor" x="-3" dy="0.32em"></text></g><g class="tick" opacity="1" transform="translate(0,31.40909090909092)"><line stroke="currentColor" x2="720"></line><text fill="currentColor" x="-3" dy="0.32em"></text></g><g class="tick" opacity="1" transform="translate(0,0.5)"><line stroke="currentColor" x2="720"></line><text fill="currentColor" x="-3" dy="0.32em"></text></g></g></g><text x="400" y="10" text-anchor="middle" style="font-size: 16px; font-weight: bold; fill: #333;">OKX USDT Lending Rate - Current Month</text></svg>