<svg width="800" height="400" xmlns="http://www.w3.org/2000/svg"><g transform="translate(50,20)"><g transform="translate(0,340)" fill="none" font-size="10" font-family="sans-serif" text-anchor="middle"><path class="domain" stroke="currentColor" d="M0.5,6V0.5H720.5V6"></path><g class="tick" opacity="1" transform="translate(0.5,0)"><line stroke="currentColor" y2="6"></line><text fill="currentColor" y="9" dy=".15em" style="text-anchor: end;" dx="-.8em" transform="rotate(-45)">12/01</text></g><g class="tick" opacity="1" transform="translate(29.014851485148515,0)"><line stroke="currentColor" y2="6"></line><text fill="currentColor" y="9" dy=".15em" style="text-anchor: end;" dx="-.8em" transform="rotate(-45)">12/02</text></g><g class="tick" opacity="1" transform="translate(57.52970297029703,0)"><line stroke="currentColor" y2="6"></line><text fill="currentColor" y="9" dy=".15em" style="text-anchor: end;" dx="-.8em" transform="rotate(-45)">12/03</text></g><g class="tick" opacity="1" transform="translate(86.04455445544554,0)"><line stroke="currentColor" y2="6"></line><text fill="currentColor" y="9" dy=".15em" style="text-anchor: end;" dx="-.8em" transform="rotate(-45)">12/04</text></g><g class="tick" opacity="1" transform="translate(114.55940594059406,0)"><line stroke="currentColor" y2="6"></line><text fill="currentColor" y="9" dy=".15em" style="text-anchor: end;" dx="-.8em" transform="rotate(-45)">12/05</text></g><g class="tick" opacity="1" transform="translate(143.0742574257426,0)"><line stroke="currentColor" y2="6"></line><text fill="currentColor" y="9" dy=".15em" style="text-anchor: end;" dx="-.8em" transform="rotate(-45)">12/06</text></g><g class="tick" opacity="1" transform="translate(171.58910891089107,0)"><line stroke="currentColor" y2="6"></line><text fill="currentColor" y="9" dy=".15em" style="text-anchor: end;" dx="-.8em" transform="rotate(-45)">12/07</text></g><g class="tick" opacity="1" transform="translate(200.1039603960396,0)"><line stroke="currentColor" y2="6"></line><text fill="currentColor" y="9" dy=".15em" style="text-anchor: end;" dx="-.8em" transform="rotate(-45)">12/08</text></g><g class="tick" opacity="1" transform="translate(228.61881188118812,0)"><line stroke="currentColor" y2="6"></line><text fill="currentColor" y="9" dy=".15em" style="text-anchor: end;" dx="-.8em" transform="rotate(-45)">12/09</text></g><g class="tick" opacity="1" transform="translate(257.13366336633663,0)"><line stroke="currentColor" y2="6"></line><text fill="currentColor" y="9" dy=".15em" style="text-anchor: end;" dx="-.8em" transform="rotate(-45)">12/10</text></g><g class="tick" opacity="1" transform="translate(285.6485148514852,0)"><line stroke="currentColor" y2="6"></line><text fill="currentColor" y="9" dy=".15em" style="text-anchor: end;" dx="-.8em" transform="rotate(-45)">12/11</text></g><g class="tick" opacity="1" transform="translate(314.16336633663366,0)"><line stroke="currentColor" y2="6"></line><text fill="currentColor" y="9" dy=".15em" style="text-anchor: end;" dx="-.8em" transform="rotate(-45)">12/12</text></g><g class="tick" opacity="1" transform="translate(342.67821782178214,0)"><line stroke="currentColor" y2="6"></line><text fill="currentColor" y="9" dy=".15em" style="text-anchor: end;" dx="-.8em" transform="rotate(-45)">12/13</text></g><g class="tick" opacity="1" transform="translate(371.1930693069307,0)"><line stroke="currentColor" y2="6"></line><text fill="currentColor" y="9" dy=".15em" style="text-anchor: end;" dx="-.8em" transform="rotate(-45)">12/14</text></g><g class="tick" opacity="1" transform="translate(399.7079207920792,0)"><line stroke="currentColor" y2="6"></line><text fill="currentColor" y="9" dy=".15em" style="text-anchor: end;" dx="-.8em" transform="rotate(-45)">12/15</text></g><g class="tick" opacity="1" transform="translate(428.2227722772277,0)"><line stroke="currentColor" y2="6"></line><text fill="currentColor" y="9" dy=".15em" style="text-anchor: end;" dx="-.8em" transform="rotate(-45)">12/16</text></g><g class="tick" opacity="1" transform="translate(456.73762376237624,0)"><line stroke="currentColor" y2="6"></line><text fill="currentColor" y="9" dy=".15em" style="text-anchor: end;" dx="-.8em" transform="rotate(-45)">12/17</text></g><g class="tick" opacity="1" transform="translate(485.2524752475248,0)"><line stroke="currentColor" y2="6"></line><text fill="currentColor" y="9" dy=".15em" style="text-anchor: end;" dx="-.8em" transform="rotate(-45)">12/18</text></g><g class="tick" opacity="1" transform="translate(513.7673267326733,0)"><line stroke="currentColor" y2="6"></line><text fill="currentColor" y="9" dy=".15em" style="text-anchor: end;" dx="-.8em" transform="rotate(-45)">12/19</text></g><g class="tick" opacity="1" transform="translate(542.2821782178218,0)"><line stroke="currentColor" y2="6"></line><text fill="currentColor" y="9" dy=".15em" style="text-anchor: end;" dx="-.8em" transform="rotate(-45)">12/20</text></g><g class="tick" opacity="1" transform="translate(570.7970297029703,0)"><line stroke="currentColor" y2="6"></line><text fill="currentColor" y="9" dy=".15em" style="text-anchor: end;" dx="-.8em" transform="rotate(-45)">12/21</text></g><g class="tick" opacity="1" transform="translate(599.3118811881188,0)"><line stroke="currentColor" y2="6"></line><text fill="currentColor" y="9" dy=".15em" style="text-anchor: end;" dx="-.8em" transform="rotate(-45)">12/22</text></g><g class="tick" opacity="1" transform="translate(627.8267326732673,0)"><line stroke="currentColor" y2="6"></line><text fill="currentColor" y="9" dy=".15em" style="text-anchor: end;" dx="-.8em" transform="rotate(-45)">12/23</text></g><g class="tick" opacity="1" transform="translate(656.3415841584159,0)"><line stroke="currentColor" y2="6"></line><text fill="currentColor" y="9" dy=".15em" style="text-anchor: end;" dx="-.8em" transform="rotate(-45)">12/24</text></g><g class="tick" opacity="1" transform="translate(684.8564356435643,0)"><line stroke="currentColor" y2="6"></line><text fill="currentColor" y="9" dy=".15em" style="text-anchor: end;" dx="-.8em" transform="rotate(-45)">12/25</text></g><g class="tick" opacity="1" transform="translate(713.3712871287129,0)"><line stroke="currentColor" y2="6"></line><text fill="currentColor" y="9" dy=".15em" style="text-anchor: end;" dx="-.8em" transform="rotate(-45)">12/26</text></g></g><g fill="none" font-size="10" font-family="sans-serif" text-anchor="end"><path class="domain" stroke="currentColor" d="M-6,340.5H0.5V0.5H-6"></path><g class="tick" opacity="1" transform="translate(0,340.5)"><line stroke="currentColor" x2="-6"></line><text fill="currentColor" x="-9" dy="0.32em">3.20%</text></g><g class="tick" opacity="1" transform="translate(0,291.92857142857133)"><line stroke="currentColor" x2="-6"></line><text fill="currentColor" x="-9" dy="0.32em">3.25%</text></g><g class="tick" opacity="1" transform="translate(0,243.35714285714266)"><line stroke="currentColor" x2="-6"></line><text fill="currentColor" x="-9" dy="0.32em">3.30%</text></g><g class="tick" opacity="1" transform="translate(0,194.78571428571396)"><line stroke="currentColor" x2="-6"></line><text fill="currentColor" x="-9" dy="0.32em">3.35%</text></g><g class="tick" opacity="1" transform="translate(0,146.21428571428535)"><line stroke="currentColor" x2="-6"></line><text fill="currentColor" x="-9" dy="0.32em">3.40%</text></g><g class="tick" opacity="1" transform="translate(0,97.64285714285664)"><line stroke="currentColor" x2="-6"></line><text fill="currentColor" x="-9" dy="0.32em">3.45%</text></g><g class="tick" opacity="1" transform="translate(0,49.07142857142799)"><line stroke="currentColor" x2="-6"></line><text fill="currentColor" x="-9" dy="0.32em">3.50%</text></g><g class="tick" opacity="1" transform="translate(0,0.5)"><line stroke="currentColor" x2="-6"></line><text fill="currentColor" x="-9" dy="0.32em">3.55%</text></g></g><text transform="rotate(-90)" y="-50" x="-170" dy="1em" style="text-anchor: middle; font-size: 12px; fill: #666;">Pre Rate (%)</text><text transform="translate(360, 380)" style="text-anchor: middle; font-size: 12px; fill: #666;">Time (UTC)</text><path fill="none" stroke="#2563eb" stroke-width="2" d="M0,48.571C0.396,48.571,0.792,48.571,1.188,48.571C1.584,48.571,1.98,48.571,2.376,48.571C2.772,48.571,3.168,48.571,3.564,48.571C3.96,48.571,4.356,48.571,4.752,48.571C5.149,48.571,5.545,48.571,5.941,48.571C6.337,48.571,6.733,48.571,7.129,48.571C7.525,48.571,7.921,48.571,8.317,48.571C8.713,48.571,9.109,48.571,9.505,48.571C9.901,48.571,10.297,48.571,10.693,48.571C11.089,48.571,11.485,48.571,11.881,48.571C12.277,48.571,12.673,48.571,13.069,48.571C13.465,48.571,13.861,48.571,14.257,48.571C14.653,48.571,15.05,48.571,15.446,48.571C15.842,48.571,16.238,48.571,16.634,48.571C17.03,48.571,17.426,48.571,17.822,48.571C18.218,48.571,18.614,48.571,19.01,48.571C19.406,48.571,19.802,48.571,20.198,48.571C20.594,48.571,20.99,48.571,21.386,48.571C21.782,48.571,22.178,48.571,22.574,48.571C22.97,48.571,23.366,48.571,23.762,48.571C24.158,48.571,24.554,48.571,24.95,48.571C25.347,48.571,25.743,48.571,26.139,48.571C26.535,48.571,26.931,48.571,27.327,48.571C27.723,48.571,28.119,48.571,28.515,48.571C28.911,48.571,29.307,48.571,29.703,48.571C30.099,48.571,30.495,48.571,30.891,48.571C31.287,48.571,31.683,48.571,32.079,48.571C32.475,48.571,32.871,48.571,33.267,48.571C33.663,48.571,34.059,48.571,34.455,48.571C34.851,48.571,35.248,48.571,35.644,48.571C36.04,48.571,36.436,48.571,36.832,48.571C37.228,48.571,37.624,48.571,38.02,48.571C38.416,48.571,38.812,48.571,39.208,48.571C39.604,48.571,40,48.571,40.396,48.571C40.792,48.571,41.188,48.571,41.584,48.571C41.98,48.571,42.376,48.571,42.772,48.571C43.168,48.571,43.564,48.571,43.96,48.571C44.356,48.571,44.752,48.571,45.149,48.571C45.545,48.571,45.941,48.571,46.337,48.571C46.733,48.571,47.129,48.571,47.525,48.571C47.921,48.571,48.317,48.571,48.713,48.571C49.109,48.571,49.505,48.571,49.901,48.571C50.297,48.571,50.693,48.571,51.089,48.571C51.485,48.571,51.881,48.571,52.277,48.571C52.673,48.571,53.069,48.571,53.465,48.571C53.861,48.571,54.257,48.571,54.653,48.571C55.05,48.571,55.446,48.571,55.842,48.571C56.238,48.571,56.634,48.571,57.03,48.571C57.426,48.571,57.822,48.571,58.218,48.571C58.614,48.571,59.01,48.571,59.406,48.571C59.802,48.571,60.198,48.571,60.594,48.571C60.99,48.571,61.386,48.571,61.782,48.571C62.178,48.571,62.574,48.571,62.97,48.571C63.366,48.571,63.762,48.571,64.158,48.571C64.554,48.571,64.95,48.571,65.347,48.571C65.743,48.571,66.139,48.571,66.535,48.571C66.931,48.571,67.327,48.571,67.723,48.571C68.119,48.571,68.515,48.571,68.911,48.571C69.307,48.571,69.703,48.571,70.099,48.571C70.495,48.571,70.891,48.571,71.287,48.571C71.683,48.571,72.079,48.571,72.475,48.571C72.871,48.571,73.267,48.571,73.663,48.571C74.059,48.571,74.455,48.571,74.851,48.571C75.248,48.571,75.644,48.571,76.04,48.571C76.436,48.571,76.832,48.571,77.228,48.571C77.624,48.571,78.02,48.571,78.416,48.571C78.812,48.571,79.208,48.571,79.604,48.571C80,48.571,80.396,48.571,80.792,48.571C81.188,48.571,81.584,48.571,81.98,48.571C82.376,48.571,82.772,48.571,83.168,48.571C83.564,48.571,83.96,48.571,84.356,48.571C84.752,48.571,85.149,48.571,85.545,48.571C85.941,48.571,86.337,48.571,86.733,48.571C87.129,48.571,87.525,48.571,87.921,48.571C88.317,48.571,88.713,48.571,89.109,48.571C89.505,48.571,89.901,48.571,90.297,48.571C90.693,48.571,91.089,48.571,91.485,48.571C91.881,48.571,92.277,48.571,92.673,48.571C93.069,48.571,93.465,48.571,93.861,48.571C94.257,48.571,94.653,48.571,95.05,48.571C95.446,48.571,95.842,48.571,96.238,48.571C96.634,48.571,97.03,48.571,97.426,48.571C97.822,48.571,98.218,48.571,98.614,48.571C99.01,48.571,99.406,48.571,99.802,48.571C100.198,48.571,100.594,48.571,100.99,48.571C101.386,48.571,101.782,48.571,102.178,48.571C102.574,48.571,102.97,48.571,103.366,48.571C103.762,48.571,104.158,48.571,104.554,48.571C104.95,48.571,105.347,48.571,105.743,48.571C106.139,48.571,106.535,48.571,106.931,48.571C107.327,48.571,107.723,48.571,108.119,48.571C108.515,48.571,108.911,48.571,109.307,48.571C109.703,48.571,110.099,48.571,110.495,48.571C110.891,48.571,111.287,48.571,111.683,48.571C112.079,48.571,112.475,48.571,112.871,48.571C113.267,48.571,113.663,48.571,114.059,48.571C114.455,48.571,114.851,48.571,115.248,48.571C115.644,48.571,116.04,48.571,116.436,48.571C116.832,48.571,117.228,48.571,117.624,48.571C118.02,48.571,118.416,48.571,118.812,48.571C119.208,48.571,119.604,48.571,120,48.571C120.396,48.571,120.792,48.571,121.188,48.571C121.584,48.571,121.98,48.571,122.376,48.571C122.772,48.571,123.168,48.571,123.564,48.571C123.96,48.571,124.356,48.571,124.752,48.571C125.149,48.571,125.545,48.571,125.941,48.571C126.337,48.571,126.733,48.571,127.129,48.571C127.525,48.571,127.921,48.571,128.317,48.571C128.713,48.571,129.109,48.571,129.505,48.571C129.901,48.571,130.297,48.571,130.693,48.571C131.089,48.571,131.485,48.571,131.881,48.571C132.277,48.571,132.673,48.571,133.069,48.571C133.465,48.571,133.861,48.571,134.257,48.571C134.653,48.571,135.05,48.571,135.446,48.571C135.842,48.571,136.238,48.571,136.634,48.571C137.03,48.571,137.426,48.571,137.822,48.571C138.218,48.571,138.614,48.571,139.01,48.571C139.406,48.571,139.802,48.571,140.198,48.571C140.594,48.571,140.99,48.571,141.386,48.571C141.782,48.571,142.178,48.571,142.574,48.571C142.97,48.571,143.366,48.571,143.762,48.571C144.158,48.571,144.554,48.571,144.95,48.571C145.347,48.571,145.743,48.571,146.139,48.571C146.535,48.571,146.931,48.571,147.327,48.571C147.723,48.571,148.119,48.571,148.515,48.571C148.911,48.571,149.307,48.571,149.703,48.571C150.099,48.571,150.495,48.571,150.891,48.571C151.287,48.571,151.683,48.571,152.079,48.571C152.475,48.571,152.871,48.571,153.267,48.571C153.663,48.571,154.059,48.571,154.455,48.571C154.851,48.571,155.248,48.571,155.644,48.571C156.04,48.571,156.436,48.571,156.832,48.571C157.228,48.571,157.624,48.571,158.02,48.571C158.416,48.571,158.812,48.571,159.208,48.571C159.604,48.571,160,48.571,160.396,48.571C160.792,48.571,161.188,48.571,161.584,48.571C161.98,48.571,162.376,48.571,162.772,48.571C163.168,48.571,163.564,48.571,163.96,48.571C164.356,48.571,164.752,48.571,165.149,48.571C165.545,48.571,165.941,48.571,166.337,48.571C166.733,48.571,167.129,48.571,167.525,48.571C167.921,48.571,168.317,48.571,168.713,48.571C169.109,48.571,169.505,48.571,169.901,48.571C170.297,48.571,170.693,48.571,171.089,48.571C171.485,48.571,171.881,48.571,172.277,48.571C172.673,48.571,173.069,48.571,173.465,48.571C173.861,48.571,174.257,48.571,174.653,48.571C175.05,48.571,175.446,48.571,175.842,48.571C176.238,48.571,176.634,48.571,177.03,48.571C177.426,48.571,177.822,48.571,178.218,48.571C178.614,48.571,179.01,48.571,179.406,48.571C179.802,48.571,180.198,48.571,180.594,48.571C180.99,48.571,181.386,48.571,181.782,48.571C182.178,48.571,182.574,48.571,182.97,48.571C183.366,48.571,183.762,48.571,184.158,48.571C184.554,48.571,184.95,48.571,185.347,48.571C185.743,48.571,186.139,48.571,186.535,48.571C186.931,48.571,187.327,48.571,187.723,48.571C188.119,48.571,188.515,48.571,188.911,48.571C189.307,48.571,189.703,48.571,190.099,48.571C190.495,48.571,190.891,48.571,191.287,48.571C191.683,48.571,192.079,48.571,192.475,48.571C192.871,48.571,193.267,48.571,193.663,48.571C194.059,48.571,194.455,48.571,194.851,48.571C195.248,48.571,195.644,48.571,196.04,48.571C196.436,48.571,196.832,48.571,197.228,48.571C197.624,48.571,198.02,48.571,198.416,48.571C198.812,48.571,199.208,48.571,199.604,48.571C200,48.571,200.396,48.571,200.792,48.571C201.188,48.571,201.584,48.571,201.98,48.571C202.376,48.571,202.772,48.571,203.168,48.571C203.564,48.571,203.96,48.571,204.356,48.571C204.752,48.571,205.149,48.571,205.545,48.571C205.941,48.571,206.337,48.571,206.733,48.571C207.129,48.571,207.525,48.571,207.921,48.571C208.317,48.571,208.713,48.571,209.109,48.571C209.505,48.571,209.901,48.571,210.297,48.571C210.693,48.571,211.089,48.571,211.485,48.571C211.881,48.571,212.277,48.571,212.673,48.571C213.069,48.571,213.465,48.571,213.861,48.571C214.257,48.571,214.653,48.571,215.05,48.571C215.446,48.571,215.842,48.571,216.238,48.571C216.634,48.571,217.03,48.571,217.426,48.571C217.822,48.571,218.218,48.571,218.614,48.571C219.01,48.571,219.406,48.571,219.802,48.571C220.198,48.571,220.594,48.571,220.99,48.571C221.386,48.571,221.782,48.571,222.178,48.571C222.574,48.571,222.97,48.571,223.366,48.571C223.762,48.571,224.158,48.571,224.554,48.571C224.95,48.571,225.347,48.571,225.743,48.571C226.139,48.571,226.535,48.571,226.931,48.571C227.327,48.571,227.723,48.571,228.119,48.571C228.515,48.571,228.911,48.571,229.307,48.571C229.703,48.571,230.099,48.571,230.495,48.571C230.891,48.571,231.287,48.571,231.683,48.571C232.079,48.571,232.475,48.571,232.871,48.571C233.267,48.571,233.663,48.571,234.059,48.571C234.455,48.571,234.851,48.571,235.248,48.571C235.644,48.571,236.04,48.571,236.436,48.571C236.832,48.571,237.228,48.571,237.624,48.571C238.02,48.571,238.416,48.571,238.812,48.571C239.208,48.571,239.604,48.571,240,48.571C240.396,48.571,240.792,48.571,241.188,48.571C241.584,48.571,241.98,48.571,242.376,48.571C242.772,48.571,243.168,48.571,243.564,48.571C243.96,48.571,244.356,48.571,244.752,48.571C245.149,48.571,245.545,48.571,245.941,48.571C246.337,48.571,246.733,48.571,247.129,48.571C247.525,48.571,247.921,48.571,248.317,48.571C248.713,48.571,249.109,48.571,249.505,48.571C249.901,48.571,250.297,48.571,250.693,48.571C251.089,48.571,251.485,48.571,251.881,48.571C252.277,48.571,252.673,48.571,253.069,48.571C253.465,48.571,253.861,48.571,254.257,48.571C254.653,48.571,255.05,48.571,255.446,48.571C255.842,48.571,256.238,48.571,256.634,48.571C257.03,48.571,257.426,48.571,257.822,48.571C258.218,48.571,258.614,48.571,259.01,48.571C259.406,48.571,259.802,48.571,260.198,48.571C260.594,48.571,260.99,48.571,261.386,48.571C261.782,48.571,262.178,48.571,262.574,48.571C262.97,48.571,263.366,48.571,263.762,48.571C264.158,48.571,264.554,48.571,264.95,48.571C265.347,48.571,265.743,48.571,266.139,48.571C266.535,48.571,266.931,48.571,267.327,48.571C267.723,48.571,268.119,48.571,268.515,48.571C268.911,48.571,269.307,48.571,269.703,48.571C270.099,48.571,270.495,48.571,270.891,48.571C271.287,48.571,271.683,48.571,272.079,48.571C272.475,48.571,272.871,48.571,273.267,48.571C273.663,48.571,274.059,48.571,274.455,48.571C274.851,48.571,275.248,48.571,275.644,48.571C276.04,48.571,276.436,48.571,276.832,48.571C277.228,48.571,277.624,48.571,278.02,48.571C278.416,48.571,278.812,48.571,279.208,48.571C279.604,48.571,280,48.571,280.396,48.571C280.792,48.571,281.188,48.571,281.584,48.571C281.98,48.571,282.376,48.571,282.772,48.571C283.168,48.571,283.564,48.571,283.96,48.571C284.356,48.571,284.752,48.571,285.149,48.571C285.545,48.571,285.941,48.571,286.337,48.571C286.733,48.571,287.129,48.571,287.525,48.571C287.921,48.571,288.317,48.571,288.713,48.571C289.109,48.571,289.505,48.571,289.901,48.571C290.297,48.571,290.693,48.571,291.089,48.571C291.485,48.571,291.881,48.571,292.277,48.571C292.673,48.571,293.069,48.571,293.465,48.571C293.861,48.571,294.257,48.571,294.653,48.571C295.05,48.571,295.446,48.571,295.842,48.571C296.238,48.571,296.634,48.571,297.03,48.571C297.426,48.571,297.822,48.571,298.218,48.571C298.614,48.571,299.01,48.571,299.406,48.571C299.802,48.571,300.198,48.571,300.594,48.571C300.99,48.571,301.386,48.571,301.782,48.571C302.178,48.571,302.574,48.571,302.97,48.571C303.366,48.571,303.762,48.571,304.158,48.571C304.554,48.571,304.95,48.571,305.347,48.571C305.743,48.571,306.139,48.571,306.535,48.571C306.931,48.571,307.327,48.571,307.723,48.571C308.119,48.571,308.515,48.571,308.911,48.571C309.307,48.571,309.703,48.571,310.099,48.571C310.495,48.571,310.891,48.571,311.287,48.571C311.683,48.571,312.079,48.571,312.475,48.571C312.871,48.571,313.267,48.571,313.663,48.571C314.059,48.571,314.455,48.571,314.851,48.571C315.248,48.571,315.644,48.571,316.04,48.571C316.436,48.571,316.832,48.571,317.228,48.571C317.624,48.571,318.02,48.571,318.416,48.571C318.812,48.571,319.208,48.571,319.604,48.571C320,48.571,320.396,48.571,320.792,48.571C321.188,48.571,321.584,48.571,321.98,48.571C322.376,48.571,322.772,48.571,323.168,48.571C323.564,48.571,323.96,48.571,324.356,48.571C324.752,48.571,325.149,48.571,325.545,48.571C325.941,48.571,326.337,48.571,326.733,48.571C327.129,48.571,327.525,48.571,327.921,48.571C328.317,48.571,328.713,48.571,329.109,48.571C329.505,48.571,329.901,48.571,330.297,48.571C330.693,48.571,331.089,48.571,331.485,48.571C331.881,48.571,332.277,48.571,332.673,48.571C333.069,48.571,333.465,48.571,333.861,48.571C334.257,48.571,334.653,48.571,335.05,48.571C335.446,48.571,335.842,48.571,336.238,48.571C336.634,48.571,337.03,48.571,337.426,48.571C337.822,48.571,338.218,48.571,338.614,48.571C339.01,48.571,339.406,48.571,339.802,48.571C340.198,48.571,340.594,48.571,340.99,48.571C341.386,48.571,341.782,48.571,342.178,48.571C342.574,48.571,342.97,48.571,343.366,48.571C343.762,48.571,344.158,48.571,344.554,48.571C344.95,48.571,345.347,48.571,345.743,48.571C346.139,48.571,346.535,48.571,346.931,48.571C347.327,48.571,347.723,48.571,348.119,48.571C348.515,48.571,348.911,48.571,349.307,48.571C349.703,48.571,350.099,48.571,350.495,48.571C350.891,48.571,351.287,48.571,351.683,48.571C352.079,48.571,352.475,48.571,352.871,48.571C353.267,48.571,353.663,48.571,354.059,48.571C354.455,48.571,354.851,48.571,355.248,48.571C355.644,48.571,356.04,48.571,356.436,48.571C356.832,48.571,357.228,48.571,357.624,48.571C358.02,48.571,358.416,48.571,358.812,48.571C359.208,48.571,359.604,48.571,360,48.571C360.396,48.571,360.792,48.571,361.188,48.571C361.584,48.571,361.98,48.571,362.376,48.571C362.772,48.571,363.168,48.571,363.564,48.571C363.96,48.571,364.356,48.571,364.752,48.571C365.149,48.571,365.545,48.571,365.941,48.571C366.337,48.571,366.733,48.571,367.129,48.571C367.525,48.571,367.921,48.571,368.317,48.571C368.713,48.571,369.109,48.571,369.505,48.571C369.901,48.571,370.297,48.571,370.693,48.571C371.089,48.571,371.485,48.571,371.881,48.571C372.277,48.571,372.673,48.571,373.069,48.571C373.465,48.571,373.861,48.571,374.257,48.571C374.653,48.571,375.05,48.571,375.446,48.571C375.842,48.571,376.238,48.571,376.634,48.571C377.03,48.571,377.426,48.571,377.822,48.571C378.218,48.571,378.614,48.571,379.01,48.571C379.406,48.571,379.802,48.571,380.198,48.571C380.594,48.571,380.99,48.571,381.386,48.571C381.782,48.571,382.178,48.571,382.574,48.571C382.97,48.571,383.366,48.571,383.762,48.571C384.158,48.571,384.554,48.571,384.95,48.571C385.347,48.571,385.743,48.571,386.139,48.571C386.535,48.571,386.931,48.571,387.327,48.571C387.723,48.571,388.119,48.571,388.515,48.571C388.911,48.571,389.307,48.571,389.703,48.571C390.099,48.571,390.495,48.571,390.891,48.571C391.287,48.571,391.683,48.571,392.079,48.571C392.475,48.571,392.871,48.571,393.267,48.571C393.663,48.571,394.059,48.571,394.455,48.571C394.851,48.571,395.248,48.571,395.644,48.571C396.04,48.571,396.436,48.571,396.832,48.571C397.228,48.571,397.624,48.571,398.02,48.571C398.416,48.571,398.812,48.571,399.208,48.571C399.604,48.571,400,48.571,400.396,48.571C400.792,48.571,401.188,48.571,401.584,48.571C401.98,48.571,402.376,48.571,402.772,48.571C403.168,48.571,403.564,48.571,403.96,48.571C404.356,48.571,404.752,48.571,405.149,48.571C405.545,48.571,405.941,48.571,406.337,48.571C406.733,48.571,407.129,48.571,407.525,48.571C407.921,48.571,408.317,48.571,408.713,48.571C409.109,48.571,409.505,48.571,409.901,48.571C410.297,48.571,410.693,48.571,411.089,48.571C411.485,48.571,411.881,48.571,412.277,48.571C412.673,48.571,413.069,48.571,413.465,48.571C413.861,48.571,414.257,48.571,414.653,48.571C415.05,48.571,415.446,48.571,415.842,48.571C416.238,48.571,416.634,48.571,417.03,48.571C417.426,48.571,417.822,48.571,418.218,48.571C418.614,48.571,419.01,48.571,419.406,48.571C419.802,48.571,420.198,48.571,420.594,48.571C420.99,48.571,421.386,48.571,421.782,48.571C422.178,48.571,422.574,48.571,422.97,48.571C423.366,48.571,423.762,48.571,424.158,48.571C424.554,48.571,424.95,48.571,425.347,48.571C425.743,48.571,426.139,48.571,426.535,48.571C426.931,48.571,427.327,48.571,427.723,48.571C428.119,48.571,428.515,48.571,428.911,48.571C429.307,48.571,429.703,48.571,430.099,48.571C430.495,48.571,430.891,48.571,431.287,48.571C431.683,48.571,432.079,48.571,432.475,48.571C432.871,48.571,433.267,48.571,433.663,48.571C434.059,48.571,434.455,48.571,434.851,48.571C435.248,48.571,435.644,48.571,436.04,48.571C436.436,48.571,436.832,48.571,437.228,48.571C437.624,48.571,438.02,48.571,438.416,48.571C438.812,48.571,439.208,48.571,439.604,48.571C440,48.571,440.396,48.571,440.792,48.571C441.188,48.571,441.584,48.571,441.98,48.571C442.376,48.571,442.772,48.571,443.168,48.571C443.564,48.571,443.96,48.571,444.356,48.571C444.752,48.571,445.149,48.571,445.545,48.571C445.941,48.571,446.337,48.571,446.733,48.571C447.129,48.571,447.525,48.571,447.921,48.571C448.317,48.571,448.713,48.571,449.109,48.571C449.505,48.571,449.901,48.571,450.297,48.571C450.693,48.571,451.089,48.571,451.485,48.571C451.881,48.571,452.277,48.571,452.673,48.571C453.069,48.571,453.465,48.571,453.861,48.571C454.257,48.571,454.653,48.571,455.05,48.571C455.446,48.571,455.842,48.571,456.238,48.571C456.634,48.571,457.03,48.571,457.426,48.571C457.822,48.571,458.218,48.571,458.614,48.571C459.01,48.571,459.406,48.571,459.802,48.571C460.198,48.571,460.594,48.571,460.99,48.571C461.386,48.571,461.782,48.571,462.178,48.571C462.574,48.571,462.97,48.571,463.366,48.571C463.762,48.571,464.158,48.571,464.554,48.571C464.95,48.571,465.347,48.571,465.743,48.571C466.139,48.571,466.535,48.571,466.931,48.571C467.327,48.571,467.723,48.571,468.119,48.571C468.515,48.571,468.911,48.571,469.307,48.571C469.703,48.571,470.099,48.571,470.495,48.571C470.891,48.571,471.287,48.571,471.683,48.571C472.079,48.571,472.475,48.571,472.871,48.571C473.267,48.571,473.663,48.571,474.059,48.571C474.455,48.571,474.851,48.571,475.248,48.571C475.644,48.571,476.04,48.571,476.436,48.571C476.832,48.571,477.228,48.571,477.624,48.571C478.02,48.571,478.416,48.571,478.812,48.571C479.208,48.571,479.604,48.571,480,48.571C480.396,48.571,480.792,48.571,481.188,48.571C481.584,48.571,481.98,48.571,482.376,48.571C482.772,48.571,483.168,48.571,483.564,48.571C483.96,48.571,484.356,48.571,484.752,48.571C485.149,48.571,485.545,48.571,485.941,48.571C486.337,48.571,486.733,48.571,487.129,48.571C487.525,48.571,487.921,48.571,488.317,48.571C488.713,48.571,489.109,48.571,489.505,48.571C489.901,48.571,490.297,48.571,490.693,48.571C491.089,48.571,491.485,48.571,491.881,48.571C492.277,48.571,492.673,48.571,493.069,48.571C493.465,48.571,493.861,340,494.257,340C494.653,340,495.05,340,495.446,340C495.842,340,496.238,340,496.634,340C497.03,340,497.426,340,497.822,340C498.218,340,498.614,340,499.01,340C499.406,340,499.802,340,500.198,340C500.594,340,500.99,340,501.386,340C501.782,340,502.178,340,502.574,340C502.97,340,503.366,340,503.762,340C504.158,340,504.554,340,504.95,340C505.347,340,505.743,340,506.139,340C506.535,340,506.931,340,507.327,340C507.723,340,508.119,340,508.515,340C508.911,340,509.307,340,509.703,340C510.099,340,510.495,340,510.891,340C511.287,340,511.683,340,512.079,340C512.475,340,512.871,340,513.267,340C513.663,340,514.059,340,514.455,340C514.851,340,515.248,340,515.644,340C516.04,340,516.436,340,516.832,340C517.228,340,517.624,340,518.02,340C518.416,340,518.812,340,519.208,340C519.604,340,520,340,520.396,340C520.792,340,521.188,340,521.584,340C521.98,340,522.376,340,522.772,340C523.168,340,523.564,340,523.96,340C524.356,340,524.752,340,525.149,340C525.545,340,525.941,340,526.337,340C526.733,340,527.129,340,527.525,340C527.921,340,528.317,340,528.713,340C529.109,340,529.505,340,529.901,340C530.297,340,530.693,340,531.089,340C531.485,340,531.881,340,532.277,340C532.673,340,533.069,340,533.465,340C533.861,340,534.257,340,534.653,340C535.05,340,535.446,340,535.842,340C536.238,340,536.634,340,537.03,340C537.426,340,537.822,340,538.218,340C538.614,340,539.01,340,539.406,340C539.802,340,540.198,340,540.594,340C540.99,340,541.386,340,541.782,340C542.178,340,542.574,340,542.97,340C543.366,340,543.762,340,544.158,340C544.554,340,544.95,340,545.347,340C545.743,340,546.139,340,546.535,340C546.931,340,547.327,340,547.723,340C548.119,340,548.515,340,548.911,340C549.307,340,549.703,340,550.099,340C550.495,340,550.891,340,551.287,340C551.683,340,552.079,340,552.475,340C552.871,340,553.267,340,553.663,340C554.059,340,554.455,340,554.851,340C555.248,340,555.644,340,556.04,340C556.436,340,556.832,340,557.228,340C557.624,340,558.02,340,558.416,340C558.812,340,559.208,340,559.604,340C560,340,560.396,340,560.792,340C561.188,340,561.584,340,561.98,340C562.376,340,562.772,340,563.168,340C563.564,340,563.96,340,564.356,340C564.752,340,565.149,340,565.545,340C565.941,340,566.337,340,566.733,340C567.129,340,567.525,340,567.921,340C568.317,340,568.713,340,569.109,340C569.505,340,569.901,340,570.297,340C570.693,340,571.089,340,571.485,340C571.881,340,572.277,340,572.673,340C573.069,340,573.465,340,573.861,340C574.257,340,574.653,340,575.05,340C575.446,340,575.842,340,576.238,340C576.634,340,577.03,340,577.426,340C577.822,340,578.218,340,578.614,340C579.01,340,579.406,340,579.802,340C580.198,340,580.594,340,580.99,340C581.386,340,581.782,340,582.178,340C582.574,340,582.97,340,583.366,340C583.762,340,584.158,340,584.554,340C584.95,340,585.347,340,585.743,340C586.139,340,586.535,340,586.931,340C587.327,340,587.723,340,588.119,340C588.515,340,588.911,340,589.307,340C589.703,340,590.099,340,590.495,340C590.891,340,591.287,340,591.683,340C592.079,340,592.475,340,592.871,340C593.267,340,593.663,340,594.059,340C594.455,340,594.851,340,595.248,340C595.644,340,596.04,340,596.436,340C596.832,340,597.228,340,597.624,340C598.02,340,598.416,340,598.812,340C599.208,340,599.604,340,600,340C600.396,340,600.792,340,601.188,340C601.584,340,601.98,340,602.376,340C602.772,340,603.168,340,603.564,340C603.96,340,604.356,340,604.752,340C605.149,340,605.545,340,605.941,340C606.337,340,606.733,340,607.129,340C607.525,340,607.921,340,608.317,340C608.713,340,609.109,340,609.505,340C609.901,340,610.297,340,610.693,340C611.089,340,611.485,340,611.881,340C612.277,340,612.673,340,613.069,340C613.465,340,613.861,340,614.257,340C614.653,340,615.05,340,615.446,340C615.842,340,616.238,340,616.634,340C617.03,340,617.426,340,617.822,340C618.218,340,618.614,340,619.01,340C619.406,340,619.802,340,620.198,340C620.594,340,620.99,340,621.386,340C621.782,340,622.178,340,622.574,340C622.97,340,623.366,340,623.762,340C624.158,340,624.554,340,624.95,340C625.347,340,625.743,340,626.139,340C626.535,340,626.931,340,627.327,340C627.723,340,628.119,340,628.515,340C628.911,340,629.307,340,629.703,340C630.099,340,630.495,340,630.891,340C631.287,340,631.683,340,632.079,340C632.475,340,632.871,340,633.267,340C633.663,340,634.059,340,634.455,340C634.851,340,635.248,340,635.644,340C636.04,340,636.436,340,636.832,340C637.228,340,637.624,340,638.02,340C638.416,340,638.812,340,639.208,340C639.604,340,640,340,640.396,340C640.792,340,641.188,340,641.584,340C641.98,340,642.376,340,642.772,340C643.168,340,643.564,340,643.96,340C644.356,340,644.752,340,645.149,340C645.545,340,645.941,340,646.337,340C646.733,340,647.129,340,647.525,340C647.921,340,648.317,340,648.713,340C649.109,340,649.505,340,649.901,340C650.297,340,650.693,340,651.089,340C651.485,340,651.881,340,652.277,340C652.673,340,653.069,340,653.465,340C653.861,340,654.257,340,654.653,340C655.05,340,655.446,340,655.842,340C656.238,340,656.634,340,657.03,340C657.426,340,657.822,340,658.218,340C658.614,340,659.01,340,659.406,340C659.802,340,660.198,340,660.594,340C660.99,340,661.386,340,661.782,340C662.178,340,662.574,340,662.97,340C663.366,340,663.762,340,664.158,340C664.554,340,664.95,340,665.347,340C665.743,340,666.139,340,666.535,340C666.931,340,667.327,340,667.723,340C668.119,340,668.515,340,668.911,340C669.307,340,669.703,340,670.099,340C670.495,340,670.891,340,671.287,340C671.683,340,672.079,340,672.475,340C672.871,340,673.267,340,673.663,340C674.059,340,674.455,340,674.851,340C675.248,340,675.644,340,676.04,340C676.436,340,676.832,340,677.228,340C677.624,340,678.02,340,678.416,340C678.812,340,679.208,340,679.604,340C680,340,680.396,340,680.792,340C681.188,340,681.584,340,681.98,340C682.376,340,682.772,340,683.168,340C683.564,340,683.96,340,684.356,340C684.752,340,685.149,340,685.545,340C685.941,340,686.337,340,686.733,340C687.129,340,687.525,340,687.921,340C688.317,340,688.713,340,689.109,340C689.505,340,689.901,340,690.297,340C690.693,340,691.089,340,691.485,340C691.881,340,692.277,340,692.673,340C693.069,340,693.465,340,693.861,340C694.257,340,694.653,340,695.05,340C695.446,340,695.842,340,696.238,340C696.634,340,697.03,340,697.426,340C697.822,340,698.218,340,698.614,340C699.01,340,699.406,340,699.802,340C700.198,340,700.594,340,700.99,340C701.386,340,701.782,340,702.178,340C702.574,340,702.97,340,703.366,340C703.762,340,704.158,340,704.554,340C704.95,340,705.347,340,705.743,340C706.139,340,706.535,340,706.931,340C707.327,340,707.723,340,708.119,340C708.515,340,708.911,340,709.307,340C709.703,340,710.099,340,710.495,340C710.891,340,711.287,340,711.683,340C712.079,340,712.475,340,712.871,340C713.267,340,713.663,340,714.059,340C714.455,340,714.851,340,715.248,340C715.644,340,716.04,340,716.436,340C716.832,340,717.228,340,717.624,340C718.02,340,718.416,340,718.812,340C719.208,340,719.604,340,720,340"></path><circle class="dot" cx="0" cy="48.57142857142799" r="3" fill="#2563eb"></circle><circle class="dot" cx="1.188118811881188" cy="48.57142857142799" r="3" fill="#2563eb"></circle><circle class="dot" cx="2.376237623762376" cy="48.57142857142799" r="3" fill="#2563eb"></circle><circle class="dot" cx="3.5643564356435644" cy="48.57142857142799" r="3" fill="#2563eb"></circle><circle class="dot" cx="4.752475247524752" cy="48.57142857142799" r="3" fill="#2563eb"></circle><circle class="dot" cx="5.94059405940594" cy="48.57142857142799" r="3" fill="#2563eb"></circle><circle class="dot" cx="7.128712871287129" cy="48.57142857142799" r="3" fill="#2563eb"></circle><circle class="dot" cx="8.316831683168317" cy="48.57142857142799" r="3" fill="#2563eb"></circle><circle class="dot" cx="9.504950495049505" cy="48.57142857142799" r="3" fill="#2563eb"></circle><circle class="dot" cx="10.693069306930692" cy="48.57142857142799" r="3" fill="#2563eb"></circle><circle class="dot" cx="11.88118811881188" cy="48.57142857142799" r="3" fill="#2563eb"></circle><circle class="dot" cx="13.06930693069307" cy="48.57142857142799" r="3" fill="#2563eb"></circle><circle class="dot" cx="14.257425742574258" cy="48.57142857142799" r="3" fill="#2563eb"></circle><circle class="dot" cx="15.445544554455445" cy="48.57142857142799" r="3" fill="#2563eb"></circle><circle class="dot" cx="16.633663366336634" cy="48.57142857142799" r="3" fill="#2563eb"></circle><circle class="dot" cx="17.821782178217823" cy="48.57142857142799" r="3" fill="#2563eb"></circle><circle class="dot" cx="19.00990099009901" cy="48.57142857142799" r="3" fill="#2563eb"></circle><circle class="dot" cx="20.198019801980198" cy="48.57142857142799" r="3" fill="#2563eb"></circle><circle class="dot" cx="21.386138613861384" cy="48.57142857142799" r="3" fill="#2563eb"></circle><circle class="dot" cx="22.574257425742573" cy="48.57142857142799" r="3" fill="#2563eb"></circle><circle class="dot" cx="23.76237623762376" cy="48.57142857142799" r="3" fill="#2563eb"></circle><circle class="dot" cx="24.95049504950495" cy="48.57142857142799" r="3" fill="#2563eb"></circle><circle class="dot" cx="26.13861386138614" cy="48.57142857142799" r="3" fill="#2563eb"></circle><circle class="dot" cx="27.326732673267326" cy="48.57142857142799" r="3" fill="#2563eb"></circle><circle class="dot" cx="28.514851485148515" cy="48.57142857142799" r="3" fill="#2563eb"></circle><circle class="dot" cx="29.7029702970297" cy="48.57142857142799" r="3" fill="#2563eb"></circle><circle class="dot" cx="30.89108910891089" cy="48.57142857142799" r="3" fill="#2563eb"></circle><circle class="dot" cx="32.07920792079208" cy="48.57142857142799" r="3" fill="#2563eb"></circle><circle class="dot" cx="33.26732673267327" cy="48.57142857142799" r="3" fill="#2563eb"></circle><circle class="dot" cx="34.45544554455446" cy="48.57142857142799" r="3" fill="#2563eb"></circle><circle class="dot" cx="35.64356435643565" cy="48.57142857142799" r="3" fill="#2563eb"></circle><circle class="dot" cx="36.831683168316836" cy="48.57142857142799" r="3" fill="#2563eb"></circle><circle class="dot" cx="38.01980198019802" cy="48.57142857142799" r="3" fill="#2563eb"></circle><circle class="dot" cx="39.20792079207921" cy="48.57142857142799" r="3" fill="#2563eb"></circle><circle class="dot" cx="40.396039603960396" cy="48.57142857142799" r="3" fill="#2563eb"></circle><circle class="dot" cx="41.584158415841586" cy="48.57142857142799" r="3" fill="#2563eb"></circle><circle class="dot" cx="42.77227722772277" cy="48.57142857142799" r="3" fill="#2563eb"></circle><circle class="dot" cx="43.960396039603964" cy="48.57142857142799" r="3" fill="#2563eb"></circle><circle class="dot" cx="45.148514851485146" cy="48.57142857142799" r="3" fill="#2563eb"></circle><circle class="dot" cx="46.336633663366335" cy="48.57142857142799" r="3" fill="#2563eb"></circle><circle class="dot" cx="47.52475247524752" cy="48.57142857142799" r="3" fill="#2563eb"></circle><circle class="dot" cx="48.71287128712871" cy="48.57142857142799" r="3" fill="#2563eb"></circle><circle class="dot" cx="49.9009900990099" cy="48.57142857142799" r="3" fill="#2563eb"></circle><circle class="dot" cx="51.089108910891085" cy="48.57142857142799" r="3" fill="#2563eb"></circle><circle class="dot" cx="52.27722772277228" cy="48.57142857142799" r="3" fill="#2563eb"></circle><circle class="dot" cx="53.46534653465346" cy="48.57142857142799" r="3" fill="#2563eb"></circle><circle class="dot" cx="54.65346534653465" cy="48.57142857142799" r="3" fill="#2563eb"></circle><circle class="dot" cx="55.84158415841584" cy="48.57142857142799" r="3" fill="#2563eb"></circle><circle class="dot" cx="57.02970297029703" cy="48.57142857142799" r="3" fill="#2563eb"></circle><circle class="dot" cx="58.21782178217821" cy="48.57142857142799" r="3" fill="#2563eb"></circle><circle class="dot" cx="59.4059405940594" cy="48.57142857142799" r="3" fill="#2563eb"></circle><circle class="dot" cx="60.5940594059406" cy="48.57142857142799" r="3" fill="#2563eb"></circle><circle class="dot" cx="61.78217821782178" cy="48.57142857142799" r="3" fill="#2563eb"></circle><circle class="dot" cx="62.97029702970298" cy="48.57142857142799" r="3" fill="#2563eb"></circle><circle class="dot" cx="64.15841584158416" cy="48.57142857142799" r="3" fill="#2563eb"></circle><circle class="dot" cx="65.34653465346535" cy="48.57142857142799" r="3" fill="#2563eb"></circle><circle class="dot" cx="66.53465346534654" cy="48.57142857142799" r="3" fill="#2563eb"></circle><circle class="dot" cx="67.72277227722772" cy="48.57142857142799" r="3" fill="#2563eb"></circle><circle class="dot" cx="68.91089108910892" cy="48.57142857142799" r="3" fill="#2563eb"></circle><circle class="dot" cx="70.0990099009901" cy="48.57142857142799" r="3" fill="#2563eb"></circle><circle class="dot" cx="71.2871287128713" cy="48.57142857142799" r="3" fill="#2563eb"></circle><circle class="dot" cx="72.47524752475248" cy="48.57142857142799" r="3" fill="#2563eb"></circle><circle class="dot" cx="73.66336633663367" cy="48.57142857142799" r="3" fill="#2563eb"></circle><circle class="dot" cx="74.85148514851485" cy="48.57142857142799" r="3" fill="#2563eb"></circle><circle class="dot" cx="76.03960396039604" cy="48.57142857142799" r="3" fill="#2563eb"></circle><circle class="dot" cx="77.22772277227722" cy="48.57142857142799" r="3" fill="#2563eb"></circle><circle class="dot" cx="78.41584158415841" cy="48.57142857142799" r="3" fill="#2563eb"></circle><circle class="dot" cx="79.60396039603961" cy="48.57142857142799" r="3" fill="#2563eb"></circle><circle class="dot" cx="80.79207920792079" cy="48.57142857142799" r="3" fill="#2563eb"></circle><circle class="dot" cx="81.98019801980199" cy="48.57142857142799" r="3" fill="#2563eb"></circle><circle class="dot" cx="83.16831683168317" cy="48.57142857142799" r="3" fill="#2563eb"></circle><circle class="dot" cx="84.35643564356435" cy="48.57142857142799" r="3" fill="#2563eb"></circle><circle class="dot" cx="85.54455445544554" cy="48.57142857142799" r="3" fill="#2563eb"></circle><circle class="dot" cx="86.73267326732673" cy="48.57142857142799" r="3" fill="#2563eb"></circle><circle class="dot" cx="87.92079207920793" cy="48.57142857142799" r="3" fill="#2563eb"></circle><circle class="dot" cx="89.10891089108911" cy="48.57142857142799" r="3" fill="#2563eb"></circle><circle class="dot" cx="90.29702970297029" cy="48.57142857142799" r="3" fill="#2563eb"></circle><circle class="dot" cx="91.48514851485149" cy="48.57142857142799" r="3" fill="#2563eb"></circle><circle class="dot" cx="92.67326732673267" cy="48.57142857142799" r="3" fill="#2563eb"></circle><circle class="dot" cx="93.86138613861385" cy="48.57142857142799" r="3" fill="#2563eb"></circle><circle class="dot" cx="95.04950495049503" cy="48.57142857142799" r="3" fill="#2563eb"></circle><circle class="dot" cx="96.23762376237624" cy="48.57142857142799" r="3" fill="#2563eb"></circle><circle class="dot" cx="97.42574257425743" cy="48.57142857142799" r="3" fill="#2563eb"></circle><circle class="dot" cx="98.61386138613861" cy="48.57142857142799" r="3" fill="#2563eb"></circle><circle class="dot" cx="99.8019801980198" cy="48.57142857142799" r="3" fill="#2563eb"></circle><circle class="dot" cx="100.99009900990099" cy="48.57142857142799" r="3" fill="#2563eb"></circle><circle class="dot" cx="102.17821782178217" cy="48.57142857142799" r="3" fill="#2563eb"></circle><circle class="dot" cx="103.36633663366335" cy="48.57142857142799" r="3" fill="#2563eb"></circle><circle class="dot" cx="104.55445544554456" cy="48.57142857142799" r="3" fill="#2563eb"></circle><circle class="dot" cx="105.74257425742574" cy="48.57142857142799" r="3" fill="#2563eb"></circle><circle class="dot" cx="106.93069306930693" cy="48.57142857142799" r="3" fill="#2563eb"></circle><circle class="dot" cx="108.11881188118812" cy="48.57142857142799" r="3" fill="#2563eb"></circle><circle class="dot" cx="109.3069306930693" cy="48.57142857142799" r="3" fill="#2563eb"></circle><circle class="dot" cx="110.49504950495049" cy="48.57142857142799" r="3" fill="#2563eb"></circle><circle class="dot" cx="111.68316831683168" cy="48.57142857142799" r="3" fill="#2563eb"></circle><circle class="dot" cx="112.87128712871288" cy="48.57142857142799" r="3" fill="#2563eb"></circle><circle class="dot" cx="114.05940594059406" cy="48.57142857142799" r="3" fill="#2563eb"></circle><circle class="dot" cx="115.24752475247524" cy="48.57142857142799" r="3" fill="#2563eb"></circle><circle class="dot" cx="116.43564356435643" cy="48.57142857142799" r="3" fill="#2563eb"></circle><circle class="dot" cx="117.62376237623762" cy="48.57142857142799" r="3" fill="#2563eb"></circle><circle class="dot" cx="118.8118811881188" cy="48.57142857142799" r="3" fill="#2563eb"></circle><circle class="dot" cx="120" cy="48.57142857142799" r="3" fill="#2563eb"></circle><circle class="dot" cx="121.1881188118812" cy="48.57142857142799" r="3" fill="#2563eb"></circle><circle class="dot" cx="122.37623762376238" cy="48.57142857142799" r="3" fill="#2563eb"></circle><circle class="dot" cx="123.56435643564356" cy="48.57142857142799" r="3" fill="#2563eb"></circle><circle class="dot" cx="124.75247524752474" cy="48.57142857142799" r="3" fill="#2563eb"></circle><circle class="dot" cx="125.94059405940595" cy="48.57142857142799" r="3" fill="#2563eb"></circle><circle class="dot" cx="127.12871287128714" cy="48.57142857142799" r="3" fill="#2563eb"></circle><circle class="dot" cx="128.31683168316832" cy="48.57142857142799" r="3" fill="#2563eb"></circle><circle class="dot" cx="129.5049504950495" cy="48.57142857142799" r="3" fill="#2563eb"></circle><circle class="dot" cx="130.6930693069307" cy="48.57142857142799" r="3" fill="#2563eb"></circle><circle class="dot" cx="131.88118811881188" cy="48.57142857142799" r="3" fill="#2563eb"></circle><circle class="dot" cx="133.06930693069307" cy="48.57142857142799" r="3" fill="#2563eb"></circle><circle class="dot" cx="134.25742574257427" cy="48.57142857142799" r="3" fill="#2563eb"></circle><circle class="dot" cx="135.44554455445544" cy="48.57142857142799" r="3" fill="#2563eb"></circle><circle class="dot" cx="136.63366336633663" cy="48.57142857142799" r="3" fill="#2563eb"></circle><circle class="dot" cx="137.82178217821783" cy="48.57142857142799" r="3" fill="#2563eb"></circle><circle class="dot" cx="139.00990099009903" cy="48.57142857142799" r="3" fill="#2563eb"></circle><circle class="dot" cx="140.1980198019802" cy="48.57142857142799" r="3" fill="#2563eb"></circle><circle class="dot" cx="141.3861386138614" cy="48.57142857142799" r="3" fill="#2563eb"></circle><circle class="dot" cx="142.5742574257426" cy="48.57142857142799" r="3" fill="#2563eb"></circle><circle class="dot" cx="143.76237623762376" cy="48.57142857142799" r="3" fill="#2563eb"></circle><circle class="dot" cx="144.95049504950495" cy="48.57142857142799" r="3" fill="#2563eb"></circle><circle class="dot" cx="146.13861386138615" cy="48.57142857142799" r="3" fill="#2563eb"></circle><circle class="dot" cx="147.32673267326734" cy="48.57142857142799" r="3" fill="#2563eb"></circle><circle class="dot" cx="148.5148514851485" cy="48.57142857142799" r="3" fill="#2563eb"></circle><circle class="dot" cx="149.7029702970297" cy="48.57142857142799" r="3" fill="#2563eb"></circle><circle class="dot" cx="150.8910891089109" cy="48.57142857142799" r="3" fill="#2563eb"></circle><circle class="dot" cx="152.07920792079207" cy="48.57142857142799" r="3" fill="#2563eb"></circle><circle class="dot" cx="153.26732673267327" cy="48.57142857142799" r="3" fill="#2563eb"></circle><circle class="dot" cx="154.45544554455444" cy="48.57142857142799" r="3" fill="#2563eb"></circle><circle class="dot" cx="155.64356435643566" cy="48.57142857142799" r="3" fill="#2563eb"></circle><circle class="dot" cx="156.83168316831683" cy="48.57142857142799" r="3" fill="#2563eb"></circle><circle class="dot" cx="158.01980198019803" cy="48.57142857142799" r="3" fill="#2563eb"></circle><circle class="dot" cx="159.20792079207922" cy="48.57142857142799" r="3" fill="#2563eb"></circle><circle class="dot" cx="160.3960396039604" cy="48.57142857142799" r="3" fill="#2563eb"></circle><circle class="dot" cx="161.58415841584159" cy="48.57142857142799" r="3" fill="#2563eb"></circle><circle class="dot" cx="162.77227722772275" cy="48.57142857142799" r="3" fill="#2563eb"></circle><circle class="dot" cx="163.96039603960398" cy="48.57142857142799" r="3" fill="#2563eb"></circle><circle class="dot" cx="165.14851485148515" cy="48.57142857142799" r="3" fill="#2563eb"></circle><circle class="dot" cx="166.33663366336634" cy="48.57142857142799" r="3" fill="#2563eb"></circle><circle class="dot" cx="167.52475247524754" cy="48.57142857142799" r="3" fill="#2563eb"></circle><circle class="dot" cx="168.7128712871287" cy="48.57142857142799" r="3" fill="#2563eb"></circle><circle class="dot" cx="169.9009900990099" cy="48.57142857142799" r="3" fill="#2563eb"></circle><circle class="dot" cx="171.08910891089107" cy="48.57142857142799" r="3" fill="#2563eb"></circle><circle class="dot" cx="172.2772277227723" cy="48.57142857142799" r="3" fill="#2563eb"></circle><circle class="dot" cx="173.46534653465346" cy="48.57142857142799" r="3" fill="#2563eb"></circle><circle class="dot" cx="174.65346534653466" cy="48.57142857142799" r="3" fill="#2563eb"></circle><circle class="dot" cx="175.84158415841586" cy="48.57142857142799" r="3" fill="#2563eb"></circle><circle class="dot" cx="177.02970297029702" cy="48.57142857142799" r="3" fill="#2563eb"></circle><circle class="dot" cx="178.21782178217822" cy="48.57142857142799" r="3" fill="#2563eb"></circle><circle class="dot" cx="179.4059405940594" cy="48.57142857142799" r="3" fill="#2563eb"></circle><circle class="dot" cx="180.59405940594058" cy="48.57142857142799" r="3" fill="#2563eb"></circle><circle class="dot" cx="181.78217821782178" cy="48.57142857142799" r="3" fill="#2563eb"></circle><circle class="dot" cx="182.97029702970298" cy="48.57142857142799" r="3" fill="#2563eb"></circle><circle class="dot" cx="184.15841584158414" cy="48.57142857142799" r="3" fill="#2563eb"></circle><circle class="dot" cx="185.34653465346534" cy="48.57142857142799" r="3" fill="#2563eb"></circle><circle class="dot" cx="186.53465346534657" cy="48.57142857142799" r="3" fill="#2563eb"></circle><circle class="dot" cx="187.7227722772277" cy="48.57142857142799" r="3" fill="#2563eb"></circle><circle class="dot" cx="188.91089108910893" cy="48.57142857142799" r="3" fill="#2563eb"></circle><circle class="dot" cx="190.09900990099007" cy="48.57142857142799" r="3" fill="#2563eb"></circle><circle class="dot" cx="191.2871287128713" cy="48.57142857142799" r="3" fill="#2563eb"></circle><circle class="dot" cx="192.4752475247525" cy="48.57142857142799" r="3" fill="#2563eb"></circle><circle class="dot" cx="193.66336633663366" cy="48.57142857142799" r="3" fill="#2563eb"></circle><circle class="dot" cx="194.85148514851485" cy="48.57142857142799" r="3" fill="#2563eb"></circle><circle class="dot" cx="196.03960396039605" cy="48.57142857142799" r="3" fill="#2563eb"></circle><circle class="dot" cx="197.22772277227722" cy="48.57142857142799" r="3" fill="#2563eb"></circle><circle class="dot" cx="198.41584158415841" cy="48.57142857142799" r="3" fill="#2563eb"></circle><circle class="dot" cx="199.6039603960396" cy="48.57142857142799" r="3" fill="#2563eb"></circle><circle class="dot" cx="200.79207920792078" cy="48.57142857142799" r="3" fill="#2563eb"></circle><circle class="dot" cx="201.98019801980197" cy="48.57142857142799" r="3" fill="#2563eb"></circle><circle class="dot" cx="203.16831683168314" cy="48.57142857142799" r="3" fill="#2563eb"></circle><circle class="dot" cx="204.35643564356434" cy="48.57142857142799" r="3" fill="#2563eb"></circle><circle class="dot" cx="205.54455445544556" cy="48.57142857142799" r="3" fill="#2563eb"></circle><circle class="dot" cx="206.7326732673267" cy="48.57142857142799" r="3" fill="#2563eb"></circle><circle class="dot" cx="207.92079207920793" cy="48.57142857142799" r="3" fill="#2563eb"></circle><circle class="dot" cx="209.10891089108912" cy="48.57142857142799" r="3" fill="#2563eb"></circle><circle class="dot" cx="210.2970297029703" cy="48.57142857142799" r="3" fill="#2563eb"></circle><circle class="dot" cx="211.4851485148515" cy="48.57142857142799" r="3" fill="#2563eb"></circle><circle class="dot" cx="212.67326732673268" cy="48.57142857142799" r="3" fill="#2563eb"></circle><circle class="dot" cx="213.86138613861385" cy="48.57142857142799" r="3" fill="#2563eb"></circle><circle class="dot" cx="215.04950495049505" cy="48.57142857142799" r="3" fill="#2563eb"></circle><circle class="dot" cx="216.23762376237624" cy="48.57142857142799" r="3" fill="#2563eb"></circle><circle class="dot" cx="217.4257425742574" cy="48.57142857142799" r="3" fill="#2563eb"></circle><circle class="dot" cx="218.6138613861386" cy="48.57142857142799" r="3" fill="#2563eb"></circle><circle class="dot" cx="219.80198019801978" cy="48.57142857142799" r="3" fill="#2563eb"></circle><circle class="dot" cx="220.99009900990097" cy="48.57142857142799" r="3" fill="#2563eb"></circle><circle class="dot" cx="222.1782178217822" cy="48.57142857142799" r="3" fill="#2563eb"></circle><circle class="dot" cx="223.36633663366337" cy="48.57142857142799" r="3" fill="#2563eb"></circle><circle class="dot" cx="224.55445544554456" cy="48.57142857142799" r="3" fill="#2563eb"></circle><circle class="dot" cx="225.74257425742576" cy="48.57142857142799" r="3" fill="#2563eb"></circle><circle class="dot" cx="226.93069306930693" cy="48.57142857142799" r="3" fill="#2563eb"></circle><circle class="dot" cx="228.11881188118812" cy="48.57142857142799" r="3" fill="#2563eb"></circle><circle class="dot" cx="229.30693069306932" cy="48.57142857142799" r="3" fill="#2563eb"></circle><circle class="dot" cx="230.4950495049505" cy="48.57142857142799" r="3" fill="#2563eb"></circle><circle class="dot" cx="231.68316831683168" cy="48.57142857142799" r="3" fill="#2563eb"></circle><circle class="dot" cx="232.87128712871285" cy="48.57142857142799" r="3" fill="#2563eb"></circle><circle class="dot" cx="234.05940594059405" cy="48.57142857142799" r="3" fill="#2563eb"></circle><circle class="dot" cx="235.24752475247524" cy="48.57142857142799" r="3" fill="#2563eb"></circle><circle class="dot" cx="236.4356435643564" cy="48.57142857142799" r="3" fill="#2563eb"></circle><circle class="dot" cx="237.6237623762376" cy="48.57142857142799" r="3" fill="#2563eb"></circle><circle class="dot" cx="238.81188118811883" cy="48.57142857142799" r="3" fill="#2563eb"></circle><circle class="dot" cx="240" cy="48.57142857142799" r="3" fill="#2563eb"></circle><circle class="dot" cx="241.1881188118812" cy="48.57142857142799" r="3" fill="#2563eb"></circle><circle class="dot" cx="242.3762376237624" cy="48.57142857142799" r="3" fill="#2563eb"></circle><circle class="dot" cx="243.56435643564356" cy="48.57142857142799" r="3" fill="#2563eb"></circle><circle class="dot" cx="244.75247524752476" cy="48.57142857142799" r="3" fill="#2563eb"></circle><circle class="dot" cx="245.94059405940595" cy="48.57142857142799" r="3" fill="#2563eb"></circle><circle class="dot" cx="247.12871287128712" cy="48.57142857142799" r="3" fill="#2563eb"></circle><circle class="dot" cx="248.31683168316832" cy="48.57142857142799" r="3" fill="#2563eb"></circle><circle class="dot" cx="249.50495049504948" cy="48.57142857142799" r="3" fill="#2563eb"></circle><circle class="dot" cx="250.69306930693068" cy="48.57142857142799" r="3" fill="#2563eb"></circle><circle class="dot" cx="251.8811881188119" cy="48.57142857142799" r="3" fill="#2563eb"></circle><circle class="dot" cx="253.06930693069305" cy="48.57142857142799" r="3" fill="#2563eb"></circle><circle class="dot" cx="254.25742574257427" cy="48.57142857142799" r="3" fill="#2563eb"></circle><circle class="dot" cx="255.44554455445547" cy="48.57142857142799" r="3" fill="#2563eb"></circle><circle class="dot" cx="256.63366336633663" cy="48.57142857142799" r="3" fill="#2563eb"></circle><circle class="dot" cx="257.8217821782178" cy="48.57142857142799" r="3" fill="#2563eb"></circle><circle class="dot" cx="259.009900990099" cy="48.57142857142799" r="3" fill="#2563eb"></circle><circle class="dot" cx="260.1980198019802" cy="48.57142857142799" r="3" fill="#2563eb"></circle><circle class="dot" cx="261.3861386138614" cy="48.57142857142799" r="3" fill="#2563eb"></circle><circle class="dot" cx="262.57425742574253" cy="48.57142857142799" r="3" fill="#2563eb"></circle><circle class="dot" cx="263.76237623762376" cy="48.57142857142799" r="3" fill="#2563eb"></circle><circle class="dot" cx="264.950495049505" cy="48.57142857142799" r="3" fill="#2563eb"></circle><circle class="dot" cx="266.13861386138615" cy="48.57142857142799" r="3" fill="#2563eb"></circle><circle class="dot" cx="267.3267326732673" cy="48.57142857142799" r="3" fill="#2563eb"></circle><circle class="dot" cx="268.51485148514854" cy="48.57142857142799" r="3" fill="#2563eb"></circle><circle class="dot" cx="269.7029702970297" cy="48.57142857142799" r="3" fill="#2563eb"></circle><circle class="dot" cx="270.8910891089109" cy="48.57142857142799" r="3" fill="#2563eb"></circle><circle class="dot" cx="272.0792079207921" cy="48.57142857142799" r="3" fill="#2563eb"></circle><circle class="dot" cx="273.26732673267327" cy="48.57142857142799" r="3" fill="#2563eb"></circle><circle class="dot" cx="274.45544554455444" cy="48.57142857142799" r="3" fill="#2563eb"></circle><circle class="dot" cx="275.64356435643566" cy="48.57142857142799" r="3" fill="#2563eb"></circle><circle class="dot" cx="276.83168316831683" cy="48.57142857142799" r="3" fill="#2563eb"></circle><circle class="dot" cx="278.01980198019805" cy="48.57142857142799" r="3" fill="#2563eb"></circle><circle class="dot" cx="279.20792079207916" cy="48.57142857142799" r="3" fill="#2563eb"></circle><circle class="dot" cx="280.3960396039604" cy="48.57142857142799" r="3" fill="#2563eb"></circle><circle class="dot" cx="281.5841584158416" cy="48.57142857142799" r="3" fill="#2563eb"></circle><circle class="dot" cx="282.7722772277228" cy="48.57142857142799" r="3" fill="#2563eb"></circle><circle class="dot" cx="283.96039603960395" cy="48.57142857142799" r="3" fill="#2563eb"></circle><circle class="dot" cx="285.1485148514852" cy="48.57142857142799" r="3" fill="#2563eb"></circle><circle class="dot" cx="286.33663366336634" cy="48.57142857142799" r="3" fill="#2563eb"></circle><circle class="dot" cx="287.5247524752475" cy="48.57142857142799" r="3" fill="#2563eb"></circle><circle class="dot" cx="288.71287128712873" cy="48.57142857142799" r="3" fill="#2563eb"></circle><circle class="dot" cx="289.9009900990099" cy="48.57142857142799" r="3" fill="#2563eb"></circle><circle class="dot" cx="291.08910891089107" cy="48.57142857142799" r="3" fill="#2563eb"></circle><circle class="dot" cx="292.2772277227723" cy="48.57142857142799" r="3" fill="#2563eb"></circle><circle class="dot" cx="293.46534653465346" cy="48.57142857142799" r="3" fill="#2563eb"></circle><circle class="dot" cx="294.6534653465347" cy="48.57142857142799" r="3" fill="#2563eb"></circle><circle class="dot" cx="295.8415841584158" cy="48.57142857142799" r="3" fill="#2563eb"></circle><circle class="dot" cx="297.029702970297" cy="48.57142857142799" r="3" fill="#2563eb"></circle><circle class="dot" cx="298.21782178217825" cy="48.57142857142799" r="3" fill="#2563eb"></circle><circle class="dot" cx="299.4059405940594" cy="48.57142857142799" r="3" fill="#2563eb"></circle><circle class="dot" cx="300.5940594059406" cy="48.57142857142799" r="3" fill="#2563eb"></circle><circle class="dot" cx="301.7821782178218" cy="48.57142857142799" r="3" fill="#2563eb"></circle><circle class="dot" cx="302.970297029703" cy="48.57142857142799" r="3" fill="#2563eb"></circle><circle class="dot" cx="304.15841584158414" cy="48.57142857142799" r="3" fill="#2563eb"></circle><circle class="dot" cx="305.34653465346537" cy="48.57142857142799" r="3" fill="#2563eb"></circle><circle class="dot" cx="306.53465346534654" cy="48.57142857142799" r="3" fill="#2563eb"></circle><circle class="dot" cx="307.7227722772277" cy="48.57142857142799" r="3" fill="#2563eb"></circle><circle class="dot" cx="308.9108910891089" cy="48.57142857142799" r="3" fill="#2563eb"></circle><circle class="dot" cx="310.0990099009901" cy="48.57142857142799" r="3" fill="#2563eb"></circle><circle class="dot" cx="311.2871287128713" cy="48.57142857142799" r="3" fill="#2563eb"></circle><circle class="dot" cx="312.47524752475243" cy="48.57142857142799" r="3" fill="#2563eb"></circle><circle class="dot" cx="313.66336633663366" cy="48.57142857142799" r="3" fill="#2563eb"></circle><circle class="dot" cx="314.8514851485149" cy="48.57142857142799" r="3" fill="#2563eb"></circle><circle class="dot" cx="316.03960396039605" cy="48.57142857142799" r="3" fill="#2563eb"></circle><circle class="dot" cx="317.2277227722772" cy="48.57142857142799" r="3" fill="#2563eb"></circle><circle class="dot" cx="318.41584158415844" cy="48.57142857142799" r="3" fill="#2563eb"></circle><circle class="dot" cx="319.6039603960396" cy="48.57142857142799" r="3" fill="#2563eb"></circle><circle class="dot" cx="320.7920792079208" cy="48.57142857142799" r="3" fill="#2563eb"></circle><circle class="dot" cx="321.980198019802" cy="48.57142857142799" r="3" fill="#2563eb"></circle><circle class="dot" cx="323.16831683168317" cy="48.57142857142799" r="3" fill="#2563eb"></circle><circle class="dot" cx="324.35643564356434" cy="48.57142857142799" r="3" fill="#2563eb"></circle><circle class="dot" cx="325.5445544554455" cy="48.57142857142799" r="3" fill="#2563eb"></circle><circle class="dot" cx="326.73267326732673" cy="48.57142857142799" r="3" fill="#2563eb"></circle><circle class="dot" cx="327.92079207920796" cy="48.57142857142799" r="3" fill="#2563eb"></circle><circle class="dot" cx="329.10891089108907" cy="48.57142857142799" r="3" fill="#2563eb"></circle><circle class="dot" cx="330.2970297029703" cy="48.57142857142799" r="3" fill="#2563eb"></circle><circle class="dot" cx="331.4851485148515" cy="48.57142857142799" r="3" fill="#2563eb"></circle><circle class="dot" cx="332.6732673267327" cy="48.57142857142799" r="3" fill="#2563eb"></circle><circle class="dot" cx="333.86138613861385" cy="48.57142857142799" r="3" fill="#2563eb"></circle><circle class="dot" cx="335.0495049504951" cy="48.57142857142799" r="3" fill="#2563eb"></circle><circle class="dot" cx="336.23762376237624" cy="48.57142857142799" r="3" fill="#2563eb"></circle><circle class="dot" cx="337.4257425742574" cy="48.57142857142799" r="3" fill="#2563eb"></circle><circle class="dot" cx="338.6138613861386" cy="48.57142857142799" r="3" fill="#2563eb"></circle><circle class="dot" cx="339.8019801980198" cy="48.57142857142799" r="3" fill="#2563eb"></circle><circle class="dot" cx="340.990099009901" cy="48.57142857142799" r="3" fill="#2563eb"></circle><circle class="dot" cx="342.17821782178214" cy="48.57142857142799" r="3" fill="#2563eb"></circle><circle class="dot" cx="343.36633663366337" cy="48.57142857142799" r="3" fill="#2563eb"></circle><circle class="dot" cx="344.5544554455446" cy="48.57142857142799" r="3" fill="#2563eb"></circle><circle class="dot" cx="345.74257425742576" cy="48.57142857142799" r="3" fill="#2563eb"></circle><circle class="dot" cx="346.9306930693069" cy="48.57142857142799" r="3" fill="#2563eb"></circle><circle class="dot" cx="348.11881188118815" cy="48.57142857142799" r="3" fill="#2563eb"></circle><circle class="dot" cx="349.3069306930693" cy="48.57142857142799" r="3" fill="#2563eb"></circle><circle class="dot" cx="350.4950495049505" cy="48.57142857142799" r="3" fill="#2563eb"></circle><circle class="dot" cx="351.6831683168317" cy="48.57142857142799" r="3" fill="#2563eb"></circle><circle class="dot" cx="352.8712871287129" cy="48.57142857142799" r="3" fill="#2563eb"></circle><circle class="dot" cx="354.05940594059405" cy="48.57142857142799" r="3" fill="#2563eb"></circle><circle class="dot" cx="355.2475247524752" cy="48.57142857142799" r="3" fill="#2563eb"></circle><circle class="dot" cx="356.43564356435644" cy="48.57142857142799" r="3" fill="#2563eb"></circle><circle class="dot" cx="357.6237623762376" cy="48.57142857142799" r="3" fill="#2563eb"></circle><circle class="dot" cx="358.8118811881188" cy="48.57142857142799" r="3" fill="#2563eb"></circle><circle class="dot" cx="360" cy="48.57142857142799" r="3" fill="#2563eb"></circle><circle class="dot" cx="361.18811881188117" cy="48.57142857142799" r="3" fill="#2563eb"></circle><circle class="dot" cx="362.3762376237624" cy="48.57142857142799" r="3" fill="#2563eb"></circle><circle class="dot" cx="363.56435643564356" cy="48.57142857142799" r="3" fill="#2563eb"></circle><circle class="dot" cx="364.7524752475247" cy="48.57142857142799" r="3" fill="#2563eb"></circle><circle class="dot" cx="365.94059405940595" cy="48.57142857142799" r="3" fill="#2563eb"></circle><circle class="dot" cx="367.1287128712871" cy="48.57142857142799" r="3" fill="#2563eb"></circle><circle class="dot" cx="368.3168316831683" cy="48.57142857142799" r="3" fill="#2563eb"></circle><circle class="dot" cx="369.5049504950495" cy="48.57142857142799" r="3" fill="#2563eb"></circle><circle class="dot" cx="370.6930693069307" cy="48.57142857142799" r="3" fill="#2563eb"></circle><circle class="dot" cx="371.88118811881185" cy="48.57142857142799" r="3" fill="#2563eb"></circle><circle class="dot" cx="373.06930693069313" cy="48.57142857142799" r="3" fill="#2563eb"></circle><circle class="dot" cx="374.25742574257424" cy="48.57142857142799" r="3" fill="#2563eb"></circle><circle class="dot" cx="375.4455445544554" cy="48.57142857142799" r="3" fill="#2563eb"></circle><circle class="dot" cx="376.6336633663366" cy="48.57142857142799" r="3" fill="#2563eb"></circle><circle class="dot" cx="377.82178217821786" cy="48.57142857142799" r="3" fill="#2563eb"></circle><circle class="dot" cx="379.009900990099" cy="48.57142857142799" r="3" fill="#2563eb"></circle><circle class="dot" cx="380.19801980198014" cy="48.57142857142799" r="3" fill="#2563eb"></circle><circle class="dot" cx="381.3861386138614" cy="48.57142857142799" r="3" fill="#2563eb"></circle><circle class="dot" cx="382.5742574257426" cy="48.57142857142799" r="3" fill="#2563eb"></circle><circle class="dot" cx="383.76237623762376" cy="48.57142857142799" r="3" fill="#2563eb"></circle><circle class="dot" cx="384.950495049505" cy="48.57142857142799" r="3" fill="#2563eb"></circle><circle class="dot" cx="386.13861386138615" cy="48.57142857142799" r="3" fill="#2563eb"></circle><circle class="dot" cx="387.3267326732673" cy="48.57142857142799" r="3" fill="#2563eb"></circle><circle class="dot" cx="388.51485148514854" cy="48.57142857142799" r="3" fill="#2563eb"></circle><circle class="dot" cx="389.7029702970297" cy="48.57142857142799" r="3" fill="#2563eb"></circle><circle class="dot" cx="390.8910891089109" cy="48.57142857142799" r="3" fill="#2563eb"></circle><circle class="dot" cx="392.0792079207921" cy="48.57142857142799" r="3" fill="#2563eb"></circle><circle class="dot" cx="393.26732673267327" cy="48.57142857142799" r="3" fill="#2563eb"></circle><circle class="dot" cx="394.45544554455444" cy="48.57142857142799" r="3" fill="#2563eb"></circle><circle class="dot" cx="395.64356435643566" cy="48.57142857142799" r="3" fill="#2563eb"></circle><circle class="dot" cx="396.83168316831683" cy="48.57142857142799" r="3" fill="#2563eb"></circle><circle class="dot" cx="398.019801980198" cy="48.57142857142799" r="3" fill="#2563eb"></circle><circle class="dot" cx="399.2079207920792" cy="48.57142857142799" r="3" fill="#2563eb"></circle><circle class="dot" cx="400.3960396039604" cy="48.57142857142799" r="3" fill="#2563eb"></circle><circle class="dot" cx="401.58415841584156" cy="48.57142857142799" r="3" fill="#2563eb"></circle><circle class="dot" cx="402.77227722772284" cy="48.57142857142799" r="3" fill="#2563eb"></circle><circle class="dot" cx="403.96039603960395" cy="48.57142857142799" r="3" fill="#2563eb"></circle><circle class="dot" cx="405.1485148514851" cy="48.57142857142799" r="3" fill="#2563eb"></circle><circle class="dot" cx="406.3366336633663" cy="48.57142857142799" r="3" fill="#2563eb"></circle><circle class="dot" cx="407.52475247524757" cy="48.57142857142799" r="3" fill="#2563eb"></circle><circle class="dot" cx="408.7128712871287" cy="48.57142857142799" r="3" fill="#2563eb"></circle><circle class="dot" cx="409.90099009900985" cy="48.57142857142799" r="3" fill="#2563eb"></circle><circle class="dot" cx="411.0891089108911" cy="48.57142857142799" r="3" fill="#2563eb"></circle><circle class="dot" cx="412.2772277227723" cy="48.57142857142799" r="3" fill="#2563eb"></circle><circle class="dot" cx="413.4653465346534" cy="48.57142857142799" r="3" fill="#2563eb"></circle><circle class="dot" cx="414.6534653465347" cy="48.57142857142799" r="3" fill="#2563eb"></circle><circle class="dot" cx="415.84158415841586" cy="48.57142857142799" r="3" fill="#2563eb"></circle><circle class="dot" cx="417.029702970297" cy="48.57142857142799" r="3" fill="#2563eb"></circle><circle class="dot" cx="418.21782178217825" cy="48.57142857142799" r="3" fill="#2563eb"></circle><circle class="dot" cx="419.4059405940594" cy="48.57142857142799" r="3" fill="#2563eb"></circle><circle class="dot" cx="420.5940594059406" cy="48.57142857142799" r="3" fill="#2563eb"></circle><circle class="dot" cx="421.7821782178218" cy="48.57142857142799" r="3" fill="#2563eb"></circle><circle class="dot" cx="422.970297029703" cy="48.57142857142799" r="3" fill="#2563eb"></circle><circle class="dot" cx="424.15841584158414" cy="48.57142857142799" r="3" fill="#2563eb"></circle><circle class="dot" cx="425.34653465346537" cy="48.57142857142799" r="3" fill="#2563eb"></circle><circle class="dot" cx="426.53465346534654" cy="48.57142857142799" r="3" fill="#2563eb"></circle><circle class="dot" cx="427.7227722772277" cy="48.57142857142799" r="3" fill="#2563eb"></circle><circle class="dot" cx="428.91089108910893" cy="48.57142857142799" r="3" fill="#2563eb"></circle><circle class="dot" cx="430.0990099009901" cy="48.57142857142799" r="3" fill="#2563eb"></circle><circle class="dot" cx="431.28712871287127" cy="48.57142857142799" r="3" fill="#2563eb"></circle><circle class="dot" cx="432.4752475247525" cy="48.57142857142799" r="3" fill="#2563eb"></circle><circle class="dot" cx="433.66336633663366" cy="48.57142857142799" r="3" fill="#2563eb"></circle><circle class="dot" cx="434.8514851485148" cy="48.57142857142799" r="3" fill="#2563eb"></circle><circle class="dot" cx="436.039603960396" cy="48.57142857142799" r="3" fill="#2563eb"></circle><circle class="dot" cx="437.2277227722772" cy="48.57142857142799" r="3" fill="#2563eb"></circle><circle class="dot" cx="438.4158415841584" cy="48.57142857142799" r="3" fill="#2563eb"></circle><circle class="dot" cx="439.60396039603955" cy="48.57142857142799" r="3" fill="#2563eb"></circle><circle class="dot" cx="440.79207920792084" cy="48.57142857142799" r="3" fill="#2563eb"></circle><circle class="dot" cx="441.98019801980195" cy="48.57142857142799" r="3" fill="#2563eb"></circle><circle class="dot" cx="443.1683168316831" cy="48.57142857142799" r="3" fill="#2563eb"></circle><circle class="dot" cx="444.3564356435644" cy="48.57142857142799" r="3" fill="#2563eb"></circle><circle class="dot" cx="445.54455445544556" cy="48.57142857142799" r="3" fill="#2563eb"></circle><circle class="dot" cx="446.73267326732673" cy="48.57142857142799" r="3" fill="#2563eb"></circle><circle class="dot" cx="447.92079207920796" cy="48.57142857142799" r="3" fill="#2563eb"></circle><circle class="dot" cx="449.1089108910891" cy="48.57142857142799" r="3" fill="#2563eb"></circle><circle class="dot" cx="450.2970297029703" cy="48.57142857142799" r="3" fill="#2563eb"></circle><circle class="dot" cx="451.4851485148515" cy="48.57142857142799" r="3" fill="#2563eb"></circle><circle class="dot" cx="452.6732673267327" cy="48.57142857142799" r="3" fill="#2563eb"></circle><circle class="dot" cx="453.86138613861385" cy="48.57142857142799" r="3" fill="#2563eb"></circle><circle class="dot" cx="455.0495049504951" cy="48.57142857142799" r="3" fill="#2563eb"></circle><circle class="dot" cx="456.23762376237624" cy="48.57142857142799" r="3" fill="#2563eb"></circle><circle class="dot" cx="457.4257425742574" cy="48.57142857142799" r="3" fill="#2563eb"></circle><circle class="dot" cx="458.61386138613864" cy="48.57142857142799" r="3" fill="#2563eb"></circle><circle class="dot" cx="459.8019801980198" cy="48.57142857142799" r="3" fill="#2563eb"></circle><circle class="dot" cx="460.990099009901" cy="48.57142857142799" r="3" fill="#2563eb"></circle><circle class="dot" cx="462.1782178217822" cy="48.57142857142799" r="3" fill="#2563eb"></circle><circle class="dot" cx="463.36633663366337" cy="48.57142857142799" r="3" fill="#2563eb"></circle><circle class="dot" cx="464.55445544554453" cy="48.57142857142799" r="3" fill="#2563eb"></circle><circle class="dot" cx="465.7425742574257" cy="48.57142857142799" r="3" fill="#2563eb"></circle><circle class="dot" cx="466.9306930693069" cy="48.57142857142799" r="3" fill="#2563eb"></circle><circle class="dot" cx="468.1188118811881" cy="48.57142857142799" r="3" fill="#2563eb"></circle><circle class="dot" cx="469.30693069306926" cy="48.57142857142799" r="3" fill="#2563eb"></circle><circle class="dot" cx="470.4950495049505" cy="48.57142857142799" r="3" fill="#2563eb"></circle><circle class="dot" cx="471.68316831683165" cy="48.57142857142799" r="3" fill="#2563eb"></circle><circle class="dot" cx="472.8712871287128" cy="48.57142857142799" r="3" fill="#2563eb"></circle><circle class="dot" cx="474.0594059405941" cy="48.57142857142799" r="3" fill="#2563eb"></circle><circle class="dot" cx="475.2475247524752" cy="48.57142857142799" r="3" fill="#2563eb"></circle><circle class="dot" cx="476.4356435643564" cy="48.57142857142799" r="3" fill="#2563eb"></circle><circle class="dot" cx="477.62376237623766" cy="48.57142857142799" r="3" fill="#2563eb"></circle><circle class="dot" cx="478.81188118811883" cy="48.57142857142799" r="3" fill="#2563eb"></circle><circle class="dot" cx="480" cy="48.57142857142799" r="3" fill="#2563eb"></circle><circle class="dot" cx="481.1881188118812" cy="48.57142857142799" r="3" fill="#2563eb"></circle><circle class="dot" cx="482.3762376237624" cy="48.57142857142799" r="3" fill="#2563eb"></circle><circle class="dot" cx="483.56435643564356" cy="48.57142857142799" r="3" fill="#2563eb"></circle><circle class="dot" cx="484.7524752475248" cy="48.57142857142799" r="3" fill="#2563eb"></circle><circle class="dot" cx="485.94059405940595" cy="48.57142857142799" r="3" fill="#2563eb"></circle><circle class="dot" cx="487.1287128712871" cy="48.57142857142799" r="3" fill="#2563eb"></circle><circle class="dot" cx="488.31683168316835" cy="48.57142857142799" r="3" fill="#2563eb"></circle><circle class="dot" cx="489.5049504950495" cy="48.57142857142799" r="3" fill="#2563eb"></circle><circle class="dot" cx="490.6930693069307" cy="48.57142857142799" r="3" fill="#2563eb"></circle><circle class="dot" cx="491.8811881188119" cy="48.57142857142799" r="3" fill="#2563eb"></circle><circle class="dot" cx="493.0693069306931" cy="48.57142857142799" r="3" fill="#2563eb"></circle><circle class="dot" cx="494.25742574257424" cy="340" r="3" fill="#2563eb"></circle><circle class="dot" cx="495.4455445544554" cy="340" r="3" fill="#2563eb"></circle><circle class="dot" cx="496.63366336633663" cy="340" r="3" fill="#2563eb"></circle><circle class="dot" cx="497.8217821782178" cy="340" r="3" fill="#2563eb"></circle><circle class="dot" cx="499.00990099009897" cy="340" r="3" fill="#2563eb"></circle><circle class="dot" cx="500.1980198019802" cy="340" r="3" fill="#2563eb"></circle><circle class="dot" cx="501.38613861386136" cy="340" r="3" fill="#2563eb"></circle><circle class="dot" cx="502.57425742574253" cy="340" r="3" fill="#2563eb"></circle><circle class="dot" cx="503.7623762376238" cy="340" r="3" fill="#2563eb"></circle><circle class="dot" cx="504.9504950495049" cy="340" r="3" fill="#2563eb"></circle><circle class="dot" cx="506.1386138613861" cy="340" r="3" fill="#2563eb"></circle><circle class="dot" cx="507.3267326732674" cy="340" r="3" fill="#2563eb"></circle><circle class="dot" cx="508.51485148514854" cy="340" r="3" fill="#2563eb"></circle><circle class="dot" cx="509.70297029702965" cy="340" r="3" fill="#2563eb"></circle><circle class="dot" cx="510.89108910891093" cy="340" r="3" fill="#2563eb"></circle><circle class="dot" cx="512.0792079207921" cy="340" r="3" fill="#2563eb"></circle><circle class="dot" cx="513.2673267326733" cy="340" r="3" fill="#2563eb"></circle><circle class="dot" cx="514.4554455445544" cy="340" r="3" fill="#2563eb"></circle><circle class="dot" cx="515.6435643564356" cy="340" r="3" fill="#2563eb"></circle><circle class="dot" cx="516.8316831683168" cy="340" r="3" fill="#2563eb"></circle><circle class="dot" cx="518.019801980198" cy="340" r="3" fill="#2563eb"></circle><circle class="dot" cx="519.2079207920792" cy="340" r="3" fill="#2563eb"></circle><circle class="dot" cx="520.3960396039604" cy="340" r="3" fill="#2563eb"></circle><circle class="dot" cx="521.5841584158417" cy="340" r="3" fill="#2563eb"></circle><circle class="dot" cx="522.7722772277228" cy="340" r="3" fill="#2563eb"></circle><circle class="dot" cx="523.9603960396039" cy="340" r="3" fill="#2563eb"></circle><circle class="dot" cx="525.1485148514851" cy="340" r="3" fill="#2563eb"></circle><circle class="dot" cx="526.3366336633663" cy="340" r="3" fill="#2563eb"></circle><circle class="dot" cx="527.5247524752475" cy="340" r="3" fill="#2563eb"></circle><circle class="dot" cx="528.7128712871287" cy="340" r="3" fill="#2563eb"></circle><circle class="dot" cx="529.90099009901" cy="340" r="3" fill="#2563eb"></circle><circle class="dot" cx="531.0891089108911" cy="340" r="3" fill="#2563eb"></circle><circle class="dot" cx="532.2772277227723" cy="340" r="3" fill="#2563eb"></circle><circle class="dot" cx="533.4653465346535" cy="340" r="3" fill="#2563eb"></circle><circle class="dot" cx="534.6534653465346" cy="340" r="3" fill="#2563eb"></circle><circle class="dot" cx="535.8415841584158" cy="340" r="3" fill="#2563eb"></circle><circle class="dot" cx="537.0297029702971" cy="340" r="3" fill="#2563eb"></circle><circle class="dot" cx="538.2178217821782" cy="340" r="3" fill="#2563eb"></circle><circle class="dot" cx="539.4059405940594" cy="340" r="3" fill="#2563eb"></circle><circle class="dot" cx="540.5940594059406" cy="340" r="3" fill="#2563eb"></circle><circle class="dot" cx="541.7821782178218" cy="340" r="3" fill="#2563eb"></circle><circle class="dot" cx="542.9702970297029" cy="340" r="3" fill="#2563eb"></circle><circle class="dot" cx="544.1584158415842" cy="340" r="3" fill="#2563eb"></circle><circle class="dot" cx="545.3465346534654" cy="340" r="3" fill="#2563eb"></circle><circle class="dot" cx="546.5346534653465" cy="340" r="3" fill="#2563eb"></circle><circle class="dot" cx="547.7227722772277" cy="340" r="3" fill="#2563eb"></circle><circle class="dot" cx="548.9108910891089" cy="340" r="3" fill="#2563eb"></circle><circle class="dot" cx="550.09900990099" cy="340" r="3" fill="#2563eb"></circle><circle class="dot" cx="551.2871287128713" cy="340" r="3" fill="#2563eb"></circle><circle class="dot" cx="552.4752475247525" cy="340" r="3" fill="#2563eb"></circle><circle class="dot" cx="553.6633663366337" cy="340" r="3" fill="#2563eb"></circle><circle class="dot" cx="554.8514851485149" cy="340" r="3" fill="#2563eb"></circle><circle class="dot" cx="556.0396039603961" cy="340" r="3" fill="#2563eb"></circle><circle class="dot" cx="557.2277227722772" cy="340" r="3" fill="#2563eb"></circle><circle class="dot" cx="558.4158415841583" cy="340" r="3" fill="#2563eb"></circle><circle class="dot" cx="559.6039603960396" cy="340" r="3" fill="#2563eb"></circle><circle class="dot" cx="560.7920792079208" cy="340" r="3" fill="#2563eb"></circle><circle class="dot" cx="561.980198019802" cy="340" r="3" fill="#2563eb"></circle><circle class="dot" cx="563.1683168316832" cy="340" r="3" fill="#2563eb"></circle><circle class="dot" cx="564.3564356435644" cy="340" r="3" fill="#2563eb"></circle><circle class="dot" cx="565.5445544554456" cy="340" r="3" fill="#2563eb"></circle><circle class="dot" cx="566.7326732673267" cy="340" r="3" fill="#2563eb"></circle><circle class="dot" cx="567.9207920792079" cy="340" r="3" fill="#2563eb"></circle><circle class="dot" cx="569.1089108910891" cy="340" r="3" fill="#2563eb"></circle><circle class="dot" cx="570.2970297029703" cy="340" r="3" fill="#2563eb"></circle><circle class="dot" cx="571.4851485148515" cy="340" r="3" fill="#2563eb"></circle><circle class="dot" cx="572.6732673267327" cy="340" r="3" fill="#2563eb"></circle><circle class="dot" cx="573.8613861386139" cy="340" r="3" fill="#2563eb"></circle><circle class="dot" cx="575.049504950495" cy="340" r="3" fill="#2563eb"></circle><circle class="dot" cx="576.2376237623762" cy="340" r="3" fill="#2563eb"></circle><circle class="dot" cx="577.4257425742575" cy="340" r="3" fill="#2563eb"></circle><circle class="dot" cx="578.6138613861386" cy="340" r="3" fill="#2563eb"></circle><circle class="dot" cx="579.8019801980198" cy="340" r="3" fill="#2563eb"></circle><circle class="dot" cx="580.990099009901" cy="340" r="3" fill="#2563eb"></circle><circle class="dot" cx="582.1782178217821" cy="340" r="3" fill="#2563eb"></circle><circle class="dot" cx="583.3663366336633" cy="340" r="3" fill="#2563eb"></circle><circle class="dot" cx="584.5544554455446" cy="340" r="3" fill="#2563eb"></circle><circle class="dot" cx="585.7425742574258" cy="340" r="3" fill="#2563eb"></circle><circle class="dot" cx="586.9306930693069" cy="340" r="3" fill="#2563eb"></circle><circle class="dot" cx="588.1188118811881" cy="340" r="3" fill="#2563eb"></circle><circle class="dot" cx="589.3069306930694" cy="340" r="3" fill="#2563eb"></circle><circle class="dot" cx="590.4950495049504" cy="340" r="3" fill="#2563eb"></circle><circle class="dot" cx="591.6831683168316" cy="340" r="3" fill="#2563eb"></circle><circle class="dot" cx="592.8712871287129" cy="340" r="3" fill="#2563eb"></circle><circle class="dot" cx="594.059405940594" cy="340" r="3" fill="#2563eb"></circle><circle class="dot" cx="595.2475247524752" cy="340" r="3" fill="#2563eb"></circle><circle class="dot" cx="596.4356435643565" cy="340" r="3" fill="#2563eb"></circle><circle class="dot" cx="597.6237623762377" cy="340" r="3" fill="#2563eb"></circle><circle class="dot" cx="598.8118811881188" cy="340" r="3" fill="#2563eb"></circle><circle class="dot" cx="600" cy="340" r="3" fill="#2563eb"></circle><circle class="dot" cx="601.1881188118812" cy="340" r="3" fill="#2563eb"></circle><circle class="dot" cx="602.3762376237623" cy="340" r="3" fill="#2563eb"></circle><circle class="dot" cx="603.5643564356436" cy="340" r="3" fill="#2563eb"></circle><circle class="dot" cx="604.7524752475248" cy="340" r="3" fill="#2563eb"></circle><circle class="dot" cx="605.940594059406" cy="340" r="3" fill="#2563eb"></circle><circle class="dot" cx="607.1287128712871" cy="340" r="3" fill="#2563eb"></circle><circle class="dot" cx="608.3168316831683" cy="340" r="3" fill="#2563eb"></circle><circle class="dot" cx="609.5049504950495" cy="340" r="3" fill="#2563eb"></circle><circle class="dot" cx="610.6930693069307" cy="340" r="3" fill="#2563eb"></circle><circle class="dot" cx="611.8811881188119" cy="340" r="3" fill="#2563eb"></circle><circle class="dot" cx="613.0693069306931" cy="340" r="3" fill="#2563eb"></circle><circle class="dot" cx="614.2574257425742" cy="340" r="3" fill="#2563eb"></circle><circle class="dot" cx="615.4455445544554" cy="340" r="3" fill="#2563eb"></circle><circle class="dot" cx="616.6336633663366" cy="340" r="3" fill="#2563eb"></circle><circle class="dot" cx="617.8217821782177" cy="340" r="3" fill="#2563eb"></circle><circle class="dot" cx="619.009900990099" cy="340" r="3" fill="#2563eb"></circle><circle class="dot" cx="620.1980198019802" cy="340" r="3" fill="#2563eb"></circle><circle class="dot" cx="621.3861386138614" cy="340" r="3" fill="#2563eb"></circle><circle class="dot" cx="622.5742574257426" cy="340" r="3" fill="#2563eb"></circle><circle class="dot" cx="623.7623762376238" cy="340" r="3" fill="#2563eb"></circle><circle class="dot" cx="624.9504950495049" cy="340" r="3" fill="#2563eb"></circle><circle class="dot" cx="626.1386138613861" cy="340" r="3" fill="#2563eb"></circle><circle class="dot" cx="627.3267326732673" cy="340" r="3" fill="#2563eb"></circle><circle class="dot" cx="628.5148514851485" cy="340" r="3" fill="#2563eb"></circle><circle class="dot" cx="629.7029702970298" cy="340" r="3" fill="#2563eb"></circle><circle class="dot" cx="630.8910891089109" cy="340" r="3" fill="#2563eb"></circle><circle class="dot" cx="632.0792079207921" cy="340" r="3" fill="#2563eb"></circle><circle class="dot" cx="633.2673267326733" cy="340" r="3" fill="#2563eb"></circle><circle class="dot" cx="634.4554455445544" cy="340" r="3" fill="#2563eb"></circle><circle class="dot" cx="635.6435643564356" cy="340" r="3" fill="#2563eb"></circle><circle class="dot" cx="636.8316831683169" cy="340" r="3" fill="#2563eb"></circle><circle class="dot" cx="638.019801980198" cy="340" r="3" fill="#2563eb"></circle><circle class="dot" cx="639.2079207920792" cy="340" r="3" fill="#2563eb"></circle><circle class="dot" cx="640.3960396039604" cy="340" r="3" fill="#2563eb"></circle><circle class="dot" cx="641.5841584158416" cy="340" r="3" fill="#2563eb"></circle><circle class="dot" cx="642.7722772277227" cy="340" r="3" fill="#2563eb"></circle><circle class="dot" cx="643.960396039604" cy="340" r="3" fill="#2563eb"></circle><circle class="dot" cx="645.1485148514852" cy="340" r="3" fill="#2563eb"></circle><circle class="dot" cx="646.3366336633663" cy="340" r="3" fill="#2563eb"></circle><circle class="dot" cx="647.5247524752475" cy="340" r="3" fill="#2563eb"></circle><circle class="dot" cx="648.7128712871287" cy="340" r="3" fill="#2563eb"></circle><circle class="dot" cx="649.9009900990098" cy="340" r="3" fill="#2563eb"></circle><circle class="dot" cx="651.089108910891" cy="340" r="3" fill="#2563eb"></circle><circle class="dot" cx="652.2772277227723" cy="340" r="3" fill="#2563eb"></circle><circle class="dot" cx="653.4653465346535" cy="340" r="3" fill="#2563eb"></circle><circle class="dot" cx="654.6534653465346" cy="340" r="3" fill="#2563eb"></circle><circle class="dot" cx="655.8415841584159" cy="340" r="3" fill="#2563eb"></circle><circle class="dot" cx="657.0297029702971" cy="340" r="3" fill="#2563eb"></circle><circle class="dot" cx="658.2178217821781" cy="340" r="3" fill="#2563eb"></circle><circle class="dot" cx="659.4059405940594" cy="340" r="3" fill="#2563eb"></circle><circle class="dot" cx="660.5940594059406" cy="340" r="3" fill="#2563eb"></circle><circle class="dot" cx="661.7821782178218" cy="340" r="3" fill="#2563eb"></circle><circle class="dot" cx="662.970297029703" cy="340" r="3" fill="#2563eb"></circle><circle class="dot" cx="664.1584158415842" cy="340" r="3" fill="#2563eb"></circle><circle class="dot" cx="665.3465346534654" cy="340" r="3" fill="#2563eb"></circle><circle class="dot" cx="666.5346534653465" cy="340" r="3" fill="#2563eb"></circle><circle class="dot" cx="667.7227722772277" cy="340" r="3" fill="#2563eb"></circle><circle class="dot" cx="668.9108910891089" cy="340" r="3" fill="#2563eb"></circle><circle class="dot" cx="670.0990099009902" cy="340" r="3" fill="#2563eb"></circle><circle class="dot" cx="671.2871287128713" cy="340" r="3" fill="#2563eb"></circle><circle class="dot" cx="672.4752475247525" cy="340" r="3" fill="#2563eb"></circle><circle class="dot" cx="673.6633663366337" cy="340" r="3" fill="#2563eb"></circle><circle class="dot" cx="674.8514851485148" cy="340" r="3" fill="#2563eb"></circle><circle class="dot" cx="676.039603960396" cy="340" r="3" fill="#2563eb"></circle><circle class="dot" cx="677.2277227722772" cy="340" r="3" fill="#2563eb"></circle><circle class="dot" cx="678.4158415841584" cy="340" r="3" fill="#2563eb"></circle><circle class="dot" cx="679.6039603960396" cy="340" r="3" fill="#2563eb"></circle><circle class="dot" cx="680.7920792079208" cy="340" r="3" fill="#2563eb"></circle><circle class="dot" cx="681.980198019802" cy="340" r="3" fill="#2563eb"></circle><circle class="dot" cx="683.1683168316831" cy="340" r="3" fill="#2563eb"></circle><circle class="dot" cx="684.3564356435643" cy="340" r="3" fill="#2563eb"></circle><circle class="dot" cx="685.5445544554456" cy="340" r="3" fill="#2563eb"></circle><circle class="dot" cx="686.7326732673267" cy="340" r="3" fill="#2563eb"></circle><circle class="dot" cx="687.9207920792079" cy="340" r="3" fill="#2563eb"></circle><circle class="dot" cx="689.1089108910892" cy="340" r="3" fill="#2563eb"></circle><circle class="dot" cx="690.2970297029703" cy="340" r="3" fill="#2563eb"></circle><circle class="dot" cx="691.4851485148515" cy="340" r="3" fill="#2563eb"></circle><circle class="dot" cx="692.6732673267327" cy="340" r="3" fill="#2563eb"></circle><circle class="dot" cx="693.8613861386139" cy="340" r="3" fill="#2563eb"></circle><circle class="dot" cx="695.049504950495" cy="340" r="3" fill="#2563eb"></circle><circle class="dot" cx="696.2376237623763" cy="340" r="3" fill="#2563eb"></circle><circle class="dot" cx="697.4257425742575" cy="340" r="3" fill="#2563eb"></circle><circle class="dot" cx="698.6138613861386" cy="340" r="3" fill="#2563eb"></circle><circle class="dot" cx="699.8019801980198" cy="340" r="3" fill="#2563eb"></circle><circle class="dot" cx="700.990099009901" cy="340" r="3" fill="#2563eb"></circle><circle class="dot" cx="702.1782178217821" cy="340" r="3" fill="#2563eb"></circle><circle class="dot" cx="703.3663366336634" cy="340" r="3" fill="#2563eb"></circle><circle class="dot" cx="704.5544554455446" cy="340" r="3" fill="#2563eb"></circle><circle class="dot" cx="705.7425742574258" cy="340" r="3" fill="#2563eb"></circle><circle class="dot" cx="706.9306930693069" cy="340" r="3" fill="#2563eb"></circle><circle class="dot" cx="708.1188118811881" cy="340" r="3" fill="#2563eb"></circle><circle class="dot" cx="709.3069306930693" cy="340" r="3" fill="#2563eb"></circle><circle class="dot" cx="710.4950495049504" cy="340" r="3" fill="#2563eb"></circle><circle class="dot" cx="711.6831683168317" cy="340" r="3" fill="#2563eb"></circle><circle class="dot" cx="712.8712871287129" cy="340" r="3" fill="#2563eb"></circle><circle class="dot" cx="714.059405940594" cy="340" r="3" fill="#2563eb"></circle><circle class="dot" cx="715.2475247524752" cy="340" r="3" fill="#2563eb"></circle><circle class="dot" cx="716.4356435643564" cy="340" r="3" fill="#2563eb"></circle><circle class="dot" cx="717.6237623762376" cy="340" r="3" fill="#2563eb"></circle><circle class="dot" cx="718.8118811881188" cy="340" r="3" fill="#2563eb"></circle><circle class="dot" cx="720" cy="340" r="3" fill="#2563eb"></circle><g class="grid" transform="translate(0,340)" fill="none" font-size="10" font-family="sans-serif" text-anchor="middle" style="stroke-dasharray: 3,3; opacity: 0.3;"><path class="domain" stroke="currentColor" d="M0.5,-340V0.5H720.5V-340"></path><g class="tick" opacity="1" transform="translate(0.5,0)"><line stroke="currentColor" y2="-340"></line><text fill="currentColor" y="3" dy="0.71em"></text></g><g class="tick" opacity="1" transform="translate(29.014851485148515,0)"><line stroke="currentColor" y2="-340"></line><text fill="currentColor" y="3" dy="0.71em"></text></g><g class="tick" opacity="1" transform="translate(57.52970297029703,0)"><line stroke="currentColor" y2="-340"></line><text fill="currentColor" y="3" dy="0.71em"></text></g><g class="tick" opacity="1" transform="translate(86.04455445544554,0)"><line stroke="currentColor" y2="-340"></line><text fill="currentColor" y="3" dy="0.71em"></text></g><g class="tick" opacity="1" transform="translate(114.55940594059406,0)"><line stroke="currentColor" y2="-340"></line><text fill="currentColor" y="3" dy="0.71em"></text></g><g class="tick" opacity="1" transform="translate(143.0742574257426,0)"><line stroke="currentColor" y2="-340"></line><text fill="currentColor" y="3" dy="0.71em"></text></g><g class="tick" opacity="1" transform="translate(171.58910891089107,0)"><line stroke="currentColor" y2="-340"></line><text fill="currentColor" y="3" dy="0.71em"></text></g><g class="tick" opacity="1" transform="translate(200.1039603960396,0)"><line stroke="currentColor" y2="-340"></line><text fill="currentColor" y="3" dy="0.71em"></text></g><g class="tick" opacity="1" transform="translate(228.61881188118812,0)"><line stroke="currentColor" y2="-340"></line><text fill="currentColor" y="3" dy="0.71em"></text></g><g class="tick" opacity="1" transform="translate(257.13366336633663,0)"><line stroke="currentColor" y2="-340"></line><text fill="currentColor" y="3" dy="0.71em"></text></g><g class="tick" opacity="1" transform="translate(285.6485148514852,0)"><line stroke="currentColor" y2="-340"></line><text fill="currentColor" y="3" dy="0.71em"></text></g><g class="tick" opacity="1" transform="translate(314.16336633663366,0)"><line stroke="currentColor" y2="-340"></line><text fill="currentColor" y="3" dy="0.71em"></text></g><g class="tick" opacity="1" transform="translate(342.67821782178214,0)"><line stroke="currentColor" y2="-340"></line><text fill="currentColor" y="3" dy="0.71em"></text></g><g class="tick" opacity="1" transform="translate(371.1930693069307,0)"><line stroke="currentColor" y2="-340"></line><text fill="currentColor" y="3" dy="0.71em"></text></g><g class="tick" opacity="1" transform="translate(399.7079207920792,0)"><line stroke="currentColor" y2="-340"></line><text fill="currentColor" y="3" dy="0.71em"></text></g><g class="tick" opacity="1" transform="translate(428.2227722772277,0)"><line stroke="currentColor" y2="-340"></line><text fill="currentColor" y="3" dy="0.71em"></text></g><g class="tick" opacity="1" transform="translate(456.73762376237624,0)"><line stroke="currentColor" y2="-340"></line><text fill="currentColor" y="3" dy="0.71em"></text></g><g class="tick" opacity="1" transform="translate(485.2524752475248,0)"><line stroke="currentColor" y2="-340"></line><text fill="currentColor" y="3" dy="0.71em"></text></g><g class="tick" opacity="1" transform="translate(513.7673267326733,0)"><line stroke="currentColor" y2="-340"></line><text fill="currentColor" y="3" dy="0.71em"></text></g><g class="tick" opacity="1" transform="translate(542.2821782178218,0)"><line stroke="currentColor" y2="-340"></line><text fill="currentColor" y="3" dy="0.71em"></text></g><g class="tick" opacity="1" transform="translate(570.7970297029703,0)"><line stroke="currentColor" y2="-340"></line><text fill="currentColor" y="3" dy="0.71em"></text></g><g class="tick" opacity="1" transform="translate(599.3118811881188,0)"><line stroke="currentColor" y2="-340"></line><text fill="currentColor" y="3" dy="0.71em"></text></g><g class="tick" opacity="1" transform="translate(627.8267326732673,0)"><line stroke="currentColor" y2="-340"></line><text fill="currentColor" y="3" dy="0.71em"></text></g><g class="tick" opacity="1" transform="translate(656.3415841584159,0)"><line stroke="currentColor" y2="-340"></line><text fill="currentColor" y="3" dy="0.71em"></text></g><g class="tick" opacity="1" transform="translate(684.8564356435643,0)"><line stroke="currentColor" y2="-340"></line><text fill="currentColor" y="3" dy="0.71em"></text></g><g class="tick" opacity="1" transform="translate(713.3712871287129,0)"><line stroke="currentColor" y2="-340"></line><text fill="currentColor" y="3" dy="0.71em"></text></g></g><g class="grid" fill="none" font-size="10" font-family="sans-serif" text-anchor="end" style="stroke-dasharray: 3,3; opacity: 0.3;"><path class="domain" stroke="currentColor" d="M720,340.5H0.5V0.5H720"></path><g class="tick" opacity="1" transform="translate(0,340.5)"><line stroke="currentColor" x2="720"></line><text fill="currentColor" x="-3" dy="0.32em"></text></g><g class="tick" opacity="1" transform="translate(0,291.92857142857133)"><line stroke="currentColor" x2="720"></line><text fill="currentColor" x="-3" dy="0.32em"></text></g><g class="tick" opacity="1" transform="translate(0,243.35714285714266)"><line stroke="currentColor" x2="720"></line><text fill="currentColor" x="-3" dy="0.32em"></text></g><g class="tick" opacity="1" transform="translate(0,194.78571428571396)"><line stroke="currentColor" x2="720"></line><text fill="currentColor" x="-3" dy="0.32em"></text></g><g class="tick" opacity="1" transform="translate(0,146.21428571428535)"><line stroke="currentColor" x2="720"></line><text fill="currentColor" x="-3" dy="0.32em"></text></g><g class="tick" opacity="1" transform="translate(0,97.64285714285664)"><line stroke="currentColor" x2="720"></line><text fill="currentColor" x="-3" dy="0.32em"></text></g><g class="tick" opacity="1" transform="translate(0,49.07142857142799)"><line stroke="currentColor" x2="720"></line><text fill="currentColor" x="-3" dy="0.32em"></text></g><g class="tick" opacity="1" transform="translate(0,0.5)"><line stroke="currentColor" x2="720"></line><text fill="currentColor" x="-3" dy="0.32em"></text></g></g></g><text x="400" y="10" text-anchor="middle" style="font-size: 16px; font-weight: bold; fill: #333;">OKX USDT Lending Rate - Current Month</text></svg>