<svg width="800" height="400" xmlns="http://www.w3.org/2000/svg"><g transform="translate(50,20)"><g transform="translate(0,340)" fill="none" font-size="10" font-family="sans-serif" text-anchor="middle"><path class="domain" stroke="currentColor" d="M0.5,6V0.5H720.5V6"></path><g class="tick" opacity="1" transform="translate(52.950331125827816,0)"><line stroke="currentColor" y2="6"></line><text fill="currentColor" y="9" dy="0.71em">08/10 12:00</text></g><g class="tick" opacity="1" transform="translate(110.16887417218543,0)"><line stroke="currentColor" y2="6"></line><text fill="currentColor" y="9" dy="0.71em">08/11 00:00</text></g><g class="tick" opacity="1" transform="translate(167.38741721854305,0)"><line stroke="currentColor" y2="6"></line><text fill="currentColor" y="9" dy="0.71em">08/11 12:00</text></g><g class="tick" opacity="1" transform="translate(224.60596026490066,0)"><line stroke="currentColor" y2="6"></line><text fill="currentColor" y="9" dy="0.71em">08/12 00:00</text></g><g class="tick" opacity="1" transform="translate(281.8245033112583,0)"><line stroke="currentColor" y2="6"></line><text fill="currentColor" y="9" dy="0.71em">08/12 12:00</text></g><g class="tick" opacity="1" transform="translate(339.0430463576159,0)"><line stroke="currentColor" y2="6"></line><text fill="currentColor" y="9" dy="0.71em">08/13 00:00</text></g><g class="tick" opacity="1" transform="translate(396.2615894039735,0)"><line stroke="currentColor" y2="6"></line><text fill="currentColor" y="9" dy="0.71em">08/13 12:00</text></g><g class="tick" opacity="1" transform="translate(453.4801324503311,0)"><line stroke="currentColor" y2="6"></line><text fill="currentColor" y="9" dy="0.71em">08/14 00:00</text></g><g class="tick" opacity="1" transform="translate(510.69867549668874,0)"><line stroke="currentColor" y2="6"></line><text fill="currentColor" y="9" dy="0.71em">08/14 12:00</text></g><g class="tick" opacity="1" transform="translate(567.9172185430464,0)"><line stroke="currentColor" y2="6"></line><text fill="currentColor" y="9" dy="0.71em">08/15 00:00</text></g><g class="tick" opacity="1" transform="translate(625.135761589404,0)"><line stroke="currentColor" y2="6"></line><text fill="currentColor" y="9" dy="0.71em">08/15 12:00</text></g><g class="tick" opacity="1" transform="translate(682.3543046357615,0)"><line stroke="currentColor" y2="6"></line><text fill="currentColor" y="9" dy="0.71em">08/16 00:00</text></g></g><g fill="none" font-size="10" font-family="sans-serif" text-anchor="end"><path class="domain" stroke="currentColor" d="M-6,340.5H0.5V0.5H-6"></path><g class="tick" opacity="1" transform="translate(0,340.5)"><line stroke="currentColor" x2="-6"></line><text fill="currentColor" x="-9" dy="0.32em">5.00%</text></g><g class="tick" opacity="1" transform="translate(0,302.72222222222223)"><line stroke="currentColor" x2="-6"></line><text fill="currentColor" x="-9" dy="0.32em">10.00%</text></g><g class="tick" opacity="1" transform="translate(0,264.94444444444446)"><line stroke="currentColor" x2="-6"></line><text fill="currentColor" x="-9" dy="0.32em">15.00%</text></g><g class="tick" opacity="1" transform="translate(0,227.16666666666666)"><line stroke="currentColor" x2="-6"></line><text fill="currentColor" x="-9" dy="0.32em">20.00%</text></g><g class="tick" opacity="1" transform="translate(0,189.38888888888889)"><line stroke="currentColor" x2="-6"></line><text fill="currentColor" x="-9" dy="0.32em">25.00%</text></g><g class="tick" opacity="1" transform="translate(0,151.61111111111111)"><line stroke="currentColor" x2="-6"></line><text fill="currentColor" x="-9" dy="0.32em">30.00%</text></g><g class="tick" opacity="1" transform="translate(0,113.83333333333334)"><line stroke="currentColor" x2="-6"></line><text fill="currentColor" x="-9" dy="0.32em">35.00%</text></g><g class="tick" opacity="1" transform="translate(0,76.05555555555556)"><line stroke="currentColor" x2="-6"></line><text fill="currentColor" x="-9" dy="0.32em">40.00%</text></g><g class="tick" opacity="1" transform="translate(0,38.27777777777776)"><line stroke="currentColor" x2="-6"></line><text fill="currentColor" x="-9" dy="0.32em">45.00%</text></g><g class="tick" opacity="1" transform="translate(0,0.5)"><line stroke="currentColor" x2="-6"></line><text fill="currentColor" x="-9" dy="0.32em">50.00%</text></g></g><text transform="rotate(-90)" y="-50" x="-170" dy="1em" style="text-anchor: middle; font-size: 12px; fill: #666;">Pre Rate (%)</text><text transform="translate(360, 380)" style="text-anchor: middle; font-size: 12px; fill: #666;">Time (UTC)</text><path fill="none" stroke="#2563eb" stroke-width="2" d="M0,75.556C1.589,207.778,3.179,340,4.768,340C6.358,340,7.947,340,9.536,340C11.126,340,12.715,75.556,14.305,75.556C15.894,75.556,17.483,78.074,19.073,83.111C20.662,88.148,22.252,340,23.841,340C25.43,340,27.02,340,28.609,340C30.199,340,31.788,340,33.377,340C34.967,340,36.556,340,38.146,340C39.735,340,41.325,340,42.914,340C44.503,340,46.093,340,47.682,340C49.272,340,50.861,340,52.45,340C54.04,340,55.629,340,57.219,340C58.808,340,60.397,340,61.987,340C63.576,340,65.166,340,66.755,340C68.344,340,69.934,340,71.523,340C73.113,340,74.702,340,76.291,340C77.881,340,79.47,340,81.06,340C82.649,340,84.238,340,85.828,340C87.417,340,89.007,340,90.596,340C92.185,340,93.775,340,95.364,340C96.954,340,98.543,340,100.132,340C101.722,340,103.311,340,104.901,340C109.669,340,114.437,340,119.205,340C122.384,340,125.563,90.667,128.742,90.667C130.331,90.667,131.921,340,133.51,340C135.099,340,136.689,340,138.278,340C139.868,340,141.457,340,143.046,340C144.636,340,146.225,340,147.815,340C149.404,340,150.993,340,152.583,340C154.172,340,155.762,340,157.351,340C158.94,340,160.53,340,162.119,340C165.298,340,168.477,340,171.656,340C173.245,340,174.834,340,176.424,340C178.013,340,179.603,340,181.192,340C182.781,340,184.371,340,185.96,340C187.55,340,189.139,340,190.728,340C192.318,340,193.907,340,195.497,340C197.086,340,198.675,340,200.265,340C201.854,340,203.444,340,205.033,340C206.623,340,208.212,340,209.801,340C211.391,340,212.98,340,214.57,340C216.159,340,217.748,340,219.338,340C224.106,340,228.874,340,233.642,340C235.232,340,236.821,340,238.411,340C240,340,241.589,340,243.179,340C244.768,340,246.358,340,247.947,340C249.536,340,251.126,340,252.715,340C254.305,340,255.894,340,257.483,340C259.073,340,260.662,340,262.252,340C263.841,340,265.43,340,267.02,340C268.609,340,270.199,340,271.788,340C273.377,340,274.967,340,276.556,340C278.146,340,279.735,340,281.325,340C282.914,340,284.503,90.667,286.093,90.667C287.682,90.667,289.272,340,290.861,340C292.45,340,294.04,340,295.629,340C297.219,340,298.808,68,300.397,68C301.987,68,303.576,78.074,305.166,98.222C306.755,118.37,308.344,340,309.934,340C311.523,340,313.113,340,314.702,340C316.291,340,317.881,118.37,319.47,83.111C321.06,47.852,322.649,30.222,324.238,30.222C325.828,30.222,327.417,55.407,329.007,60.444C330.596,65.481,332.185,62.963,333.775,68C338.543,83.111,343.311,340,348.079,340C349.669,340,351.258,83.111,352.848,83.111C354.437,83.111,356.026,98.222,357.616,98.222C359.205,98.222,360.795,98.222,362.384,98.222C363.974,98.222,365.563,332.444,367.152,332.444C368.742,332.444,370.331,332.444,371.921,332.444C373.51,332.444,375.099,52.889,376.689,52.889C378.278,52.889,379.868,75.556,381.457,75.556C383.046,75.556,384.636,68,386.225,68C387.815,68,389.404,332.444,390.993,332.444C392.583,332.444,394.172,332.444,395.762,332.444C397.351,332.444,398.94,332.444,400.53,332.444C402.119,332.444,403.709,332.444,405.298,332.444C406.887,332.444,408.477,332.444,410.066,332.444C411.656,332.444,413.245,332.444,414.834,332.444C416.424,332.444,418.013,332.444,419.603,332.444C421.192,332.444,422.781,332.444,424.371,332.444C425.96,332.444,427.55,332.444,429.139,332.444C430.728,332.444,432.318,332.444,433.907,332.444C435.497,332.444,437.086,332.444,438.675,332.444C440.265,332.444,441.854,332.444,443.444,332.444C445.033,332.444,446.623,332.444,448.212,332.444C452.98,332.444,457.748,332.444,462.517,332.444C464.106,332.444,465.695,52.889,467.285,52.889C468.874,52.889,470.464,332.444,472.053,332.444C473.642,332.444,475.232,332.444,476.821,332.444C478.411,332.444,480,332.444,481.589,332.444C483.179,332.444,484.768,68,486.358,68C487.947,68,489.536,78.074,491.126,98.222C492.715,118.37,494.305,332.444,495.894,332.444C497.483,332.444,499.073,332.444,500.662,332.444C502.252,332.444,503.841,332.444,505.43,332.444C507.02,332.444,508.609,332.444,510.199,332.444C511.788,332.444,513.377,332.444,514.967,332.444C516.556,332.444,518.146,332.444,519.735,332.444C521.325,332.444,522.914,332.444,524.503,332.444C526.093,332.444,527.682,332.444,529.272,332.444C530.861,332.444,532.45,332.444,534.04,332.444C535.629,332.444,537.219,332.444,538.808,332.444C540.397,332.444,541.987,332.444,543.576,332.444C545.166,332.444,546.755,332.444,548.344,332.444C549.934,332.444,551.523,332.444,553.113,332.444C554.702,332.444,556.291,332.444,557.881,332.444C559.47,332.444,561.06,332.444,562.649,332.444C567.417,332.444,572.185,332.444,576.954,332.444C578.543,332.444,580.132,332.444,581.722,332.444C583.311,332.444,584.901,332.444,586.49,332.444C588.079,332.444,589.669,332.444,591.258,332.444C592.848,332.444,594.437,332.444,596.026,332.444C597.616,332.444,599.205,332.444,600.795,332.444C602.384,332.444,603.974,332.444,605.563,332.444C607.152,332.444,608.742,332.444,610.331,332.444C611.921,332.444,613.51,332.444,615.099,332.444C616.689,332.444,618.278,332.444,619.868,332.444C621.457,332.444,623.046,332.444,624.636,332.444C626.225,332.444,627.815,332.444,629.404,332.444C630.993,332.444,632.583,332.444,634.172,332.444C635.762,332.444,637.351,332.444,638.94,332.444C640.53,332.444,642.119,332.444,643.709,332.444C645.298,332.444,646.887,332.444,648.477,332.444C650.066,332.444,651.656,332.444,653.245,332.444C654.834,332.444,656.424,332.444,658.013,332.444C659.603,332.444,661.192,332.444,662.781,332.444C664.371,332.444,665.96,332.444,667.55,332.444C669.139,332.444,670.728,332.444,672.318,332.444C673.907,332.444,675.497,332.444,677.086,332.444C681.854,332.444,686.623,332.444,691.391,332.444C692.98,332.444,694.57,332.444,696.159,332.444C697.748,332.444,699.338,332.444,700.927,332.444C702.517,332.444,704.106,332.444,705.695,332.444C707.285,332.444,708.874,332.444,710.464,332.444C712.053,332.444,713.642,332.444,715.232,332.444C716.821,332.444,718.411,332.444,720,332.444"></path><circle class="dot" cx="0" cy="75.55555555555556" r="3" fill="#2563eb"></circle><circle class="dot" cx="4.768211920529802" cy="340" r="3" fill="#2563eb"></circle><circle class="dot" cx="9.536423841059603" cy="340" r="3" fill="#2563eb"></circle><circle class="dot" cx="14.304635761589404" cy="75.55555555555556" r="3" fill="#2563eb"></circle><circle class="dot" cx="19.072847682119207" cy="83.11111111111111" r="3" fill="#2563eb"></circle><circle class="dot" cx="23.841059602649008" cy="340" r="3" fill="#2563eb"></circle><circle class="dot" cx="28.60927152317881" cy="340" r="3" fill="#2563eb"></circle><circle class="dot" cx="33.37748344370861" cy="340" r="3" fill="#2563eb"></circle><circle class="dot" cx="38.145695364238414" cy="340" r="3" fill="#2563eb"></circle><circle class="dot" cx="42.913907284768214" cy="340" r="3" fill="#2563eb"></circle><circle class="dot" cx="47.682119205298015" cy="340" r="3" fill="#2563eb"></circle><circle class="dot" cx="52.450331125827816" cy="340" r="3" fill="#2563eb"></circle><circle class="dot" cx="57.21854304635762" cy="340" r="3" fill="#2563eb"></circle><circle class="dot" cx="61.98675496688742" cy="340" r="3" fill="#2563eb"></circle><circle class="dot" cx="66.75496688741723" cy="340" r="3" fill="#2563eb"></circle><circle class="dot" cx="71.52317880794702" cy="340" r="3" fill="#2563eb"></circle><circle class="dot" cx="76.29139072847683" cy="340" r="3" fill="#2563eb"></circle><circle class="dot" cx="81.05960264900662" cy="340" r="3" fill="#2563eb"></circle><circle class="dot" cx="85.82781456953643" cy="340" r="3" fill="#2563eb"></circle><circle class="dot" cx="90.59602649006622" cy="340" r="3" fill="#2563eb"></circle><circle class="dot" cx="95.36423841059603" cy="340" r="3" fill="#2563eb"></circle><circle class="dot" cx="100.13245033112582" cy="340" r="3" fill="#2563eb"></circle><circle class="dot" cx="104.90066225165563" cy="340" r="3" fill="#2563eb"></circle><circle class="dot" cx="119.20529801324504" cy="340" r="3" fill="#2563eb"></circle><circle class="dot" cx="128.74172185430464" cy="90.66666666666664" r="3" fill="#2563eb"></circle><circle class="dot" cx="133.50993377483445" cy="340" r="3" fill="#2563eb"></circle><circle class="dot" cx="138.27814569536426" cy="340" r="3" fill="#2563eb"></circle><circle class="dot" cx="143.04635761589404" cy="340" r="3" fill="#2563eb"></circle><circle class="dot" cx="147.81456953642385" cy="340" r="3" fill="#2563eb"></circle><circle class="dot" cx="152.58278145695365" cy="340" r="3" fill="#2563eb"></circle><circle class="dot" cx="157.35099337748346" cy="340" r="3" fill="#2563eb"></circle><circle class="dot" cx="162.11920529801324" cy="340" r="3" fill="#2563eb"></circle><circle class="dot" cx="171.65562913907286" cy="340" r="3" fill="#2563eb"></circle><circle class="dot" cx="176.42384105960264" cy="340" r="3" fill="#2563eb"></circle><circle class="dot" cx="181.19205298013244" cy="340" r="3" fill="#2563eb"></circle><circle class="dot" cx="185.96026490066225" cy="340" r="3" fill="#2563eb"></circle><circle class="dot" cx="190.72847682119206" cy="340" r="3" fill="#2563eb"></circle><circle class="dot" cx="195.49668874172184" cy="340" r="3" fill="#2563eb"></circle><circle class="dot" cx="200.26490066225165" cy="340" r="3" fill="#2563eb"></circle><circle class="dot" cx="205.03311258278146" cy="340" r="3" fill="#2563eb"></circle><circle class="dot" cx="209.80132450331126" cy="340" r="3" fill="#2563eb"></circle><circle class="dot" cx="214.56953642384107" cy="340" r="3" fill="#2563eb"></circle><circle class="dot" cx="219.33774834437085" cy="340" r="3" fill="#2563eb"></circle><circle class="dot" cx="233.64238410596025" cy="340" r="3" fill="#2563eb"></circle><circle class="dot" cx="238.41059602649008" cy="340" r="3" fill="#2563eb"></circle><circle class="dot" cx="243.17880794701986" cy="340" r="3" fill="#2563eb"></circle><circle class="dot" cx="247.94701986754967" cy="340" r="3" fill="#2563eb"></circle><circle class="dot" cx="252.71523178807948" cy="340" r="3" fill="#2563eb"></circle><circle class="dot" cx="257.4834437086093" cy="340" r="3" fill="#2563eb"></circle><circle class="dot" cx="262.25165562913907" cy="340" r="3" fill="#2563eb"></circle><circle class="dot" cx="267.0198675496689" cy="340" r="3" fill="#2563eb"></circle><circle class="dot" cx="271.7880794701987" cy="340" r="3" fill="#2563eb"></circle><circle class="dot" cx="276.5562913907285" cy="340" r="3" fill="#2563eb"></circle><circle class="dot" cx="281.3245033112583" cy="340" r="3" fill="#2563eb"></circle><circle class="dot" cx="286.0927152317881" cy="90.66666666666664" r="3" fill="#2563eb"></circle><circle class="dot" cx="290.8609271523179" cy="340" r="3" fill="#2563eb"></circle><circle class="dot" cx="295.6291390728477" cy="340" r="3" fill="#2563eb"></circle><circle class="dot" cx="300.3973509933775" cy="68.00000000000003" r="3" fill="#2563eb"></circle><circle class="dot" cx="305.1655629139073" cy="98.22222222222221" r="3" fill="#2563eb"></circle><circle class="dot" cx="309.9337748344371" cy="340" r="3" fill="#2563eb"></circle><circle class="dot" cx="314.7019867549669" cy="340" r="3" fill="#2563eb"></circle><circle class="dot" cx="319.4701986754967" cy="83.11111111111111" r="3" fill="#2563eb"></circle><circle class="dot" cx="324.2384105960265" cy="30.22222222222219" r="3" fill="#2563eb"></circle><circle class="dot" cx="329.0066225165563" cy="60.44444444444446" r="3" fill="#2563eb"></circle><circle class="dot" cx="333.7748344370861" cy="68.00000000000003" r="3" fill="#2563eb"></circle><circle class="dot" cx="348.0794701986755" cy="340" r="3" fill="#2563eb"></circle><circle class="dot" cx="352.8476821192053" cy="83.11111111111111" r="3" fill="#2563eb"></circle><circle class="dot" cx="357.6158940397351" cy="98.22222222222221" r="3" fill="#2563eb"></circle><circle class="dot" cx="362.3841059602649" cy="98.22222222222221" r="3" fill="#2563eb"></circle><circle class="dot" cx="367.1523178807947" cy="332.44444444444446" r="3" fill="#2563eb"></circle><circle class="dot" cx="371.9205298013245" cy="332.44444444444446" r="3" fill="#2563eb"></circle><circle class="dot" cx="376.6887417218543" cy="52.88888888888889" r="3" fill="#2563eb"></circle><circle class="dot" cx="381.4569536423841" cy="75.55555555555556" r="3" fill="#2563eb"></circle><circle class="dot" cx="386.2251655629139" cy="68.00000000000003" r="3" fill="#2563eb"></circle><circle class="dot" cx="390.9933774834437" cy="332.44444444444446" r="3" fill="#2563eb"></circle><circle class="dot" cx="395.7615894039735" cy="332.44444444444446" r="3" fill="#2563eb"></circle><circle class="dot" cx="400.5298013245033" cy="332.44444444444446" r="3" fill="#2563eb"></circle><circle class="dot" cx="405.2980132450331" cy="332.44444444444446" r="3" fill="#2563eb"></circle><circle class="dot" cx="410.0662251655629" cy="332.44444444444446" r="3" fill="#2563eb"></circle><circle class="dot" cx="414.8344370860927" cy="332.44444444444446" r="3" fill="#2563eb"></circle><circle class="dot" cx="419.6026490066225" cy="332.44444444444446" r="3" fill="#2563eb"></circle><circle class="dot" cx="424.3708609271523" cy="332.44444444444446" r="3" fill="#2563eb"></circle><circle class="dot" cx="429.13907284768214" cy="332.44444444444446" r="3" fill="#2563eb"></circle><circle class="dot" cx="433.9072847682119" cy="332.44444444444446" r="3" fill="#2563eb"></circle><circle class="dot" cx="438.6754966887417" cy="332.44444444444446" r="3" fill="#2563eb"></circle><circle class="dot" cx="443.44370860927154" cy="332.44444444444446" r="3" fill="#2563eb"></circle><circle class="dot" cx="448.2119205298013" cy="332.44444444444446" r="3" fill="#2563eb"></circle><circle class="dot" cx="462.5165562913907" cy="332.44444444444446" r="3" fill="#2563eb"></circle><circle class="dot" cx="467.2847682119205" cy="52.88888888888889" r="3" fill="#2563eb"></circle><circle class="dot" cx="472.05298013245033" cy="332.44444444444446" r="3" fill="#2563eb"></circle><circle class="dot" cx="476.82119205298017" cy="332.44444444444446" r="3" fill="#2563eb"></circle><circle class="dot" cx="481.5894039735099" cy="332.44444444444446" r="3" fill="#2563eb"></circle><circle class="dot" cx="486.3576158940397" cy="68.00000000000003" r="3" fill="#2563eb"></circle><circle class="dot" cx="491.12582781456956" cy="98.22222222222221" r="3" fill="#2563eb"></circle><circle class="dot" cx="495.89403973509934" cy="332.44444444444446" r="3" fill="#2563eb"></circle><circle class="dot" cx="500.6622516556291" cy="332.44444444444446" r="3" fill="#2563eb"></circle><circle class="dot" cx="505.43046357615896" cy="332.44444444444446" r="3" fill="#2563eb"></circle><circle class="dot" cx="510.19867549668874" cy="332.44444444444446" r="3" fill="#2563eb"></circle><circle class="dot" cx="514.9668874172186" cy="332.44444444444446" r="3" fill="#2563eb"></circle><circle class="dot" cx="519.7350993377484" cy="332.44444444444446" r="3" fill="#2563eb"></circle><circle class="dot" cx="524.5033112582781" cy="332.44444444444446" r="3" fill="#2563eb"></circle><circle class="dot" cx="529.2715231788079" cy="332.44444444444446" r="3" fill="#2563eb"></circle><circle class="dot" cx="534.0397350993378" cy="332.44444444444446" r="3" fill="#2563eb"></circle><circle class="dot" cx="538.8079470198676" cy="332.44444444444446" r="3" fill="#2563eb"></circle><circle class="dot" cx="543.5761589403974" cy="332.44444444444446" r="3" fill="#2563eb"></circle><circle class="dot" cx="548.3443708609271" cy="332.44444444444446" r="3" fill="#2563eb"></circle><circle class="dot" cx="553.112582781457" cy="332.44444444444446" r="3" fill="#2563eb"></circle><circle class="dot" cx="557.8807947019867" cy="332.44444444444446" r="3" fill="#2563eb"></circle><circle class="dot" cx="562.6490066225166" cy="332.44444444444446" r="3" fill="#2563eb"></circle><circle class="dot" cx="576.9536423841059" cy="332.44444444444446" r="3" fill="#2563eb"></circle><circle class="dot" cx="581.7218543046358" cy="332.44444444444446" r="3" fill="#2563eb"></circle><circle class="dot" cx="586.4900662251656" cy="332.44444444444446" r="3" fill="#2563eb"></circle><circle class="dot" cx="591.2582781456954" cy="332.44444444444446" r="3" fill="#2563eb"></circle><circle class="dot" cx="596.0264900662252" cy="332.44444444444446" r="3" fill="#2563eb"></circle><circle class="dot" cx="600.794701986755" cy="332.44444444444446" r="3" fill="#2563eb"></circle><circle class="dot" cx="605.5629139072847" cy="332.44444444444446" r="3" fill="#2563eb"></circle><circle class="dot" cx="610.3311258278146" cy="332.44444444444446" r="3" fill="#2563eb"></circle><circle class="dot" cx="615.0993377483444" cy="332.44444444444446" r="3" fill="#2563eb"></circle><circle class="dot" cx="619.8675496688742" cy="332.44444444444446" r="3" fill="#2563eb"></circle><circle class="dot" cx="624.635761589404" cy="332.44444444444446" r="3" fill="#2563eb"></circle><circle class="dot" cx="629.4039735099338" cy="332.44444444444446" r="3" fill="#2563eb"></circle><circle class="dot" cx="634.1721854304635" cy="332.44444444444446" r="3" fill="#2563eb"></circle><circle class="dot" cx="638.9403973509934" cy="332.44444444444446" r="3" fill="#2563eb"></circle><circle class="dot" cx="643.7086092715232" cy="332.44444444444446" r="3" fill="#2563eb"></circle><circle class="dot" cx="648.476821192053" cy="332.44444444444446" r="3" fill="#2563eb"></circle><circle class="dot" cx="653.2450331125827" cy="332.44444444444446" r="3" fill="#2563eb"></circle><circle class="dot" cx="658.0132450331126" cy="332.44444444444446" r="3" fill="#2563eb"></circle><circle class="dot" cx="662.7814569536424" cy="332.44444444444446" r="3" fill="#2563eb"></circle><circle class="dot" cx="667.5496688741722" cy="332.44444444444446" r="3" fill="#2563eb"></circle><circle class="dot" cx="672.317880794702" cy="332.44444444444446" r="3" fill="#2563eb"></circle><circle class="dot" cx="677.0860927152318" cy="332.44444444444446" r="3" fill="#2563eb"></circle><circle class="dot" cx="691.3907284768212" cy="332.44444444444446" r="3" fill="#2563eb"></circle><circle class="dot" cx="696.158940397351" cy="332.44444444444446" r="3" fill="#2563eb"></circle><circle class="dot" cx="700.9271523178808" cy="332.44444444444446" r="3" fill="#2563eb"></circle><circle class="dot" cx="705.6953642384105" cy="332.44444444444446" r="3" fill="#2563eb"></circle><circle class="dot" cx="710.4635761589404" cy="332.44444444444446" r="3" fill="#2563eb"></circle><circle class="dot" cx="715.2317880794702" cy="332.44444444444446" r="3" fill="#2563eb"></circle><circle class="dot" cx="720" cy="332.44444444444446" r="3" fill="#2563eb"></circle><g class="grid" transform="translate(0,340)" fill="none" font-size="10" font-family="sans-serif" text-anchor="middle" style="stroke-dasharray: 3,3; opacity: 0.3;"><path class="domain" stroke="currentColor" d="M0.5,-340V0.5H720.5V-340"></path><g class="tick" opacity="1" transform="translate(52.950331125827816,0)"><line stroke="currentColor" y2="-340"></line><text fill="currentColor" y="3" dy="0.71em"></text></g><g class="tick" opacity="1" transform="translate(110.16887417218543,0)"><line stroke="currentColor" y2="-340"></line><text fill="currentColor" y="3" dy="0.71em"></text></g><g class="tick" opacity="1" transform="translate(167.38741721854305,0)"><line stroke="currentColor" y2="-340"></line><text fill="currentColor" y="3" dy="0.71em"></text></g><g class="tick" opacity="1" transform="translate(224.60596026490066,0)"><line stroke="currentColor" y2="-340"></line><text fill="currentColor" y="3" dy="0.71em"></text></g><g class="tick" opacity="1" transform="translate(281.8245033112583,0)"><line stroke="currentColor" y2="-340"></line><text fill="currentColor" y="3" dy="0.71em"></text></g><g class="tick" opacity="1" transform="translate(339.0430463576159,0)"><line stroke="currentColor" y2="-340"></line><text fill="currentColor" y="3" dy="0.71em"></text></g><g class="tick" opacity="1" transform="translate(396.2615894039735,0)"><line stroke="currentColor" y2="-340"></line><text fill="currentColor" y="3" dy="0.71em"></text></g><g class="tick" opacity="1" transform="translate(453.4801324503311,0)"><line stroke="currentColor" y2="-340"></line><text fill="currentColor" y="3" dy="0.71em"></text></g><g class="tick" opacity="1" transform="translate(510.69867549668874,0)"><line stroke="currentColor" y2="-340"></line><text fill="currentColor" y="3" dy="0.71em"></text></g><g class="tick" opacity="1" transform="translate(567.9172185430464,0)"><line stroke="currentColor" y2="-340"></line><text fill="currentColor" y="3" dy="0.71em"></text></g><g class="tick" opacity="1" transform="translate(625.135761589404,0)"><line stroke="currentColor" y2="-340"></line><text fill="currentColor" y="3" dy="0.71em"></text></g><g class="tick" opacity="1" transform="translate(682.3543046357615,0)"><line stroke="currentColor" y2="-340"></line><text fill="currentColor" y="3" dy="0.71em"></text></g></g><g class="grid" fill="none" font-size="10" font-family="sans-serif" text-anchor="end" style="stroke-dasharray: 3,3; opacity: 0.3;"><path class="domain" stroke="currentColor" d="M720,340.5H0.5V0.5H720"></path><g class="tick" opacity="1" transform="translate(0,340.5)"><line stroke="currentColor" x2="720"></line><text fill="currentColor" x="-3" dy="0.32em"></text></g><g class="tick" opacity="1" transform="translate(0,302.72222222222223)"><line stroke="currentColor" x2="720"></line><text fill="currentColor" x="-3" dy="0.32em"></text></g><g class="tick" opacity="1" transform="translate(0,264.94444444444446)"><line stroke="currentColor" x2="720"></line><text fill="currentColor" x="-3" dy="0.32em"></text></g><g class="tick" opacity="1" transform="translate(0,227.16666666666666)"><line stroke="currentColor" x2="720"></line><text fill="currentColor" x="-3" dy="0.32em"></text></g><g class="tick" opacity="1" transform="translate(0,189.38888888888889)"><line stroke="currentColor" x2="720"></line><text fill="currentColor" x="-3" dy="0.32em"></text></g><g class="tick" opacity="1" transform="translate(0,151.61111111111111)"><line stroke="currentColor" x2="720"></line><text fill="currentColor" x="-3" dy="0.32em"></text></g><g class="tick" opacity="1" transform="translate(0,113.83333333333334)"><line stroke="currentColor" x2="720"></line><text fill="currentColor" x="-3" dy="0.32em"></text></g><g class="tick" opacity="1" transform="translate(0,76.05555555555556)"><line stroke="currentColor" x2="720"></line><text fill="currentColor" x="-3" dy="0.32em"></text></g><g class="tick" opacity="1" transform="translate(0,38.27777777777776)"><line stroke="currentColor" x2="720"></line><text fill="currentColor" x="-3" dy="0.32em"></text></g><g class="tick" opacity="1" transform="translate(0,0.5)"><line stroke="currentColor" x2="720"></line><text fill="currentColor" x="-3" dy="0.32em"></text></g></g></g><text x="400" y="10" text-anchor="middle" style="font-size: 16px; font-weight: bold; fill: #333;">OKX USDT Lending Rate - Current Month</text></svg>