<svg width="800" height="400" xmlns="http://www.w3.org/2000/svg"><g transform="translate(50,20)"><g transform="translate(0,340)" fill="none" font-size="10" font-family="sans-serif" text-anchor="middle"><path class="domain" stroke="currentColor" d="M0.5,6V0.5H720.5V6"></path><g class="tick" opacity="1" transform="translate(0.5,0)"><line stroke="currentColor" y2="6"></line><text fill="currentColor" y="9" dy=".15em" style="text-anchor: end;" dx="-.8em" transform="rotate(-45)">01/01</text></g><g class="tick" opacity="1" transform="translate(40.77972027972028,0)"><line stroke="currentColor" y2="6"></line><text fill="currentColor" y="9" dy=".15em" style="text-anchor: end;" dx="-.8em" transform="rotate(-45)">01/02</text></g><g class="tick" opacity="1" transform="translate(81.05944055944056,0)"><line stroke="currentColor" y2="6"></line><text fill="currentColor" y="9" dy=".15em" style="text-anchor: end;" dx="-.8em" transform="rotate(-45)">01/03</text></g><g class="tick" opacity="1" transform="translate(121.33916083916084,0)"><line stroke="currentColor" y2="6"></line><text fill="currentColor" y="9" dy=".15em" style="text-anchor: end;" dx="-.8em" transform="rotate(-45)">01/04</text></g><g class="tick" opacity="1" transform="translate(161.61888111888112,0)"><line stroke="currentColor" y2="6"></line><text fill="currentColor" y="9" dy=".15em" style="text-anchor: end;" dx="-.8em" transform="rotate(-45)">01/05</text></g><g class="tick" opacity="1" transform="translate(201.89860139860141,0)"><line stroke="currentColor" y2="6"></line><text fill="currentColor" y="9" dy=".15em" style="text-anchor: end;" dx="-.8em" transform="rotate(-45)">01/06</text></g><g class="tick" opacity="1" transform="translate(242.17832167832168,0)"><line stroke="currentColor" y2="6"></line><text fill="currentColor" y="9" dy=".15em" style="text-anchor: end;" dx="-.8em" transform="rotate(-45)">01/07</text></g><g class="tick" opacity="1" transform="translate(282.458041958042,0)"><line stroke="currentColor" y2="6"></line><text fill="currentColor" y="9" dy=".15em" style="text-anchor: end;" dx="-.8em" transform="rotate(-45)">01/08</text></g><g class="tick" opacity="1" transform="translate(322.73776223776224,0)"><line stroke="currentColor" y2="6"></line><text fill="currentColor" y="9" dy=".15em" style="text-anchor: end;" dx="-.8em" transform="rotate(-45)">01/09</text></g><g class="tick" opacity="1" transform="translate(363.01748251748256,0)"><line stroke="currentColor" y2="6"></line><text fill="currentColor" y="9" dy=".15em" style="text-anchor: end;" dx="-.8em" transform="rotate(-45)">01/10</text></g><g class="tick" opacity="1" transform="translate(403.29720279720283,0)"><line stroke="currentColor" y2="6"></line><text fill="currentColor" y="9" dy=".15em" style="text-anchor: end;" dx="-.8em" transform="rotate(-45)">01/11</text></g><g class="tick" opacity="1" transform="translate(443.5769230769231,0)"><line stroke="currentColor" y2="6"></line><text fill="currentColor" y="9" dy=".15em" style="text-anchor: end;" dx="-.8em" transform="rotate(-45)">01/12</text></g><g class="tick" opacity="1" transform="translate(483.85664335664336,0)"><line stroke="currentColor" y2="6"></line><text fill="currentColor" y="9" dy=".15em" style="text-anchor: end;" dx="-.8em" transform="rotate(-45)">01/13</text></g><g class="tick" opacity="1" transform="translate(524.1363636363636,0)"><line stroke="currentColor" y2="6"></line><text fill="currentColor" y="9" dy=".15em" style="text-anchor: end;" dx="-.8em" transform="rotate(-45)">01/14</text></g><g class="tick" opacity="1" transform="translate(564.416083916084,0)"><line stroke="currentColor" y2="6"></line><text fill="currentColor" y="9" dy=".15em" style="text-anchor: end;" dx="-.8em" transform="rotate(-45)">01/15</text></g><g class="tick" opacity="1" transform="translate(604.6958041958042,0)"><line stroke="currentColor" y2="6"></line><text fill="currentColor" y="9" dy=".15em" style="text-anchor: end;" dx="-.8em" transform="rotate(-45)">01/16</text></g><g class="tick" opacity="1" transform="translate(644.9755244755245,0)"><line stroke="currentColor" y2="6"></line><text fill="currentColor" y="9" dy=".15em" style="text-anchor: end;" dx="-.8em" transform="rotate(-45)">01/17</text></g><g class="tick" opacity="1" transform="translate(685.2552447552448,0)"><line stroke="currentColor" y2="6"></line><text fill="currentColor" y="9" dy=".15em" style="text-anchor: end;" dx="-.8em" transform="rotate(-45)">01/18</text></g></g><g fill="none" font-size="10" font-family="sans-serif" text-anchor="end"><path class="domain" stroke="currentColor" d="M-6,340.5H0.5V0.5H-6"></path><g class="tick" opacity="1" transform="translate(0,340.5)"><line stroke="currentColor" x2="-6"></line><text fill="currentColor" x="-9" dy="0.32em">3.20%</text></g><g class="tick" opacity="1" transform="translate(0,312.16666666666663)"><line stroke="currentColor" x2="-6"></line><text fill="currentColor" x="-9" dy="0.32em">3.25%</text></g><g class="tick" opacity="1" transform="translate(0,283.83333333333326)"><line stroke="currentColor" x2="-6"></line><text fill="currentColor" x="-9" dy="0.32em">3.30%</text></g><g class="tick" opacity="1" transform="translate(0,255.49999999999991)"><line stroke="currentColor" x2="-6"></line><text fill="currentColor" x="-9" dy="0.32em">3.35%</text></g><g class="tick" opacity="1" transform="translate(0,227.16666666666654)"><line stroke="currentColor" x2="-6"></line><text fill="currentColor" x="-9" dy="0.32em">3.40%</text></g><g class="tick" opacity="1" transform="translate(0,198.83333333333314)"><line stroke="currentColor" x2="-6"></line><text fill="currentColor" x="-9" dy="0.32em">3.45%</text></g><g class="tick" opacity="1" transform="translate(0,170.4999999999998)"><line stroke="currentColor" x2="-6"></line><text fill="currentColor" x="-9" dy="0.32em">3.50%</text></g><g class="tick" opacity="1" transform="translate(0,142.16666666666686)"><line stroke="currentColor" x2="-6"></line><text fill="currentColor" x="-9" dy="0.32em">3.55%</text></g><g class="tick" opacity="1" transform="translate(0,113.83333333333346)"><line stroke="currentColor" x2="-6"></line><text fill="currentColor" x="-9" dy="0.32em">3.60%</text></g><g class="tick" opacity="1" transform="translate(0,85.50000000000011)"><line stroke="currentColor" x2="-6"></line><text fill="currentColor" x="-9" dy="0.32em">3.65%</text></g><g class="tick" opacity="1" transform="translate(0,57.16666666666673)"><line stroke="currentColor" x2="-6"></line><text fill="currentColor" x="-9" dy="0.32em">3.70%</text></g><g class="tick" opacity="1" transform="translate(0,28.833333333333385)"><line stroke="currentColor" x2="-6"></line><text fill="currentColor" x="-9" dy="0.32em">3.75%</text></g><g class="tick" opacity="1" transform="translate(0,0.5)"><line stroke="currentColor" x2="-6"></line><text fill="currentColor" x="-9" dy="0.32em">3.80%</text></g></g><text transform="rotate(-90)" y="-50" x="-170" dy="1em" style="text-anchor: middle; font-size: 12px; fill: #666;">Pre Rate (%)</text><text transform="translate(360, 380)" style="text-anchor: middle; font-size: 12px; fill: #666;">Time (UTC)</text><path fill="none" stroke="#2563eb" stroke-width="2" d="M0,340C0.559,340,1.119,340,1.678,340C2.238,340,2.797,340,3.357,340C3.916,340,4.476,340,5.035,340C5.594,340,6.154,340,6.713,340C7.273,340,7.832,340,8.392,340C8.951,340,9.51,340,10.07,340C10.629,340,11.189,340,11.748,340C12.308,340,12.867,340,13.427,340C13.986,340,14.545,340,15.105,340C15.664,340,16.224,340,16.783,340C17.343,340,17.902,340,18.462,340C19.021,340,19.58,340,20.14,340C20.699,340,21.259,340,21.818,340C22.378,340,22.937,340,23.497,340C24.056,340,24.615,340,25.175,340C25.734,340,26.294,340,26.853,340C27.413,340,27.972,340,28.531,340C29.091,340,29.65,340,30.21,340C30.769,340,31.329,340,31.888,340C32.448,340,33.007,340,33.566,340C34.126,340,34.685,340,35.245,340C35.804,340,36.364,340,36.923,340C37.483,340,38.042,340,38.601,340C39.161,340,39.72,340,40.28,340C40.839,340,41.399,340,41.958,340C42.517,340,43.077,340,43.636,340C44.196,340,44.755,340,45.315,340C45.874,340,46.434,340,46.993,340C47.552,340,48.112,340,48.671,340C49.231,340,49.79,340,50.35,340C50.909,340,51.469,340,52.028,340C52.587,340,53.147,340,53.706,340C54.266,340,54.825,340,55.385,340C55.944,340,56.503,340,57.063,340C57.622,340,58.182,340,58.741,340C59.301,340,59.86,340,60.42,340C60.979,340,61.538,340,62.098,340C62.657,340,63.217,340,63.776,340C64.336,340,64.895,340,65.455,340C66.014,340,66.573,340,67.133,340C67.692,340,68.252,340,68.811,340C69.371,340,69.93,340,70.49,340C71.049,340,71.608,340,72.168,340C72.727,340,73.287,340,73.846,340C74.406,340,74.965,340,75.524,340C76.084,340,76.643,340,77.203,340C77.762,340,78.322,340,78.881,340C79.441,340,80,340,80.559,340C81.119,340,81.678,340,82.238,340C82.797,340,83.357,340,83.916,340C84.476,340,85.035,340,85.594,340C86.154,340,86.713,340,87.273,340C87.832,340,88.392,340,88.951,340C89.51,340,90.07,340,90.629,340C91.189,340,91.748,340,92.308,340C92.867,340,93.427,340,93.986,340C94.545,340,95.105,340,95.664,340C96.224,340,96.783,340,97.343,340C97.902,340,98.462,340,99.021,340C99.58,340,100.14,340,100.699,340C101.259,340,101.818,340,102.378,340C102.937,340,103.497,340,104.056,340C104.615,340,105.175,340,105.734,340C106.294,340,106.853,340,107.413,340C107.972,340,108.531,340,109.091,340C109.65,340,110.21,340,110.769,340C111.329,340,111.888,340,112.448,340C113.007,340,113.566,340,114.126,340C114.685,340,115.245,340,115.804,340C116.364,340,116.923,340,117.483,340C118.042,340,118.601,340,119.161,340C119.72,340,120.28,340,120.839,340C121.399,340,121.958,340,122.517,340C123.077,340,123.636,340,124.196,340C124.755,340,125.315,340,125.874,340C126.434,340,126.993,340,127.552,340C128.112,340,128.671,340,129.231,340C129.79,340,130.35,340,130.909,340C131.469,340,132.028,340,132.587,340C133.147,340,133.706,340,134.266,340C134.825,340,135.385,340,135.944,340C136.503,340,137.063,340,137.622,340C138.182,340,138.741,340,139.301,340C139.86,340,140.42,340,140.979,340C141.538,340,142.098,340,142.657,340C143.217,340,143.776,340,144.336,340C144.895,340,145.455,340,146.014,340C146.573,340,147.133,340,147.692,340C148.252,340,148.811,340,149.371,340C149.93,340,150.49,340,151.049,340C151.608,340,152.168,340,152.727,340C153.287,340,153.846,340,154.406,340C154.965,340,155.524,340,156.084,340C156.643,340,157.203,340,157.762,340C158.322,340,158.881,340,159.441,340C160,340,160.559,340,161.119,340C161.678,340,162.238,340,162.797,340C163.357,340,163.916,340,164.476,340C165.035,340,165.594,340,166.154,340C166.713,340,167.273,340,167.832,340C168.392,340,168.951,340,169.51,340C170.07,340,170.629,340,171.189,340C171.748,340,172.308,340,172.867,340C173.427,340,173.986,340,174.545,340C175.105,340,175.664,340,176.224,340C176.783,340,177.343,340,177.902,340C178.462,340,179.021,340,179.58,340C180.14,340,180.699,340,181.259,340C181.818,340,182.378,340,182.937,340C183.497,340,184.056,340,184.615,340C185.175,340,185.734,340,186.294,340C186.853,340,187.413,340,187.972,340C188.531,340,189.091,340,189.65,340C190.21,340,190.769,340,191.329,340C191.888,340,192.448,340,193.007,340C193.566,340,194.126,340,194.685,340C195.245,340,195.804,340,196.364,340C196.923,340,197.483,340,198.042,340C198.601,340,199.161,340,199.72,340C200.28,340,200.839,340,201.399,340C201.958,340,202.517,340,203.077,340C203.636,340,204.196,340,204.755,340C205.315,340,205.874,340,206.434,340C206.993,340,207.552,340,208.112,340C208.671,340,209.231,340,209.79,340C210.35,340,210.909,340,211.469,340C212.028,340,212.587,340,213.147,340C213.706,340,214.266,340,214.825,340C215.385,340,215.944,340,216.503,340C217.063,340,217.622,340,218.182,340C218.741,340,219.301,340,219.86,340C220.42,340,220.979,340,221.538,340C222.098,340,222.657,340,223.217,340C223.776,340,224.336,340,224.895,340C225.455,340,226.014,340,226.573,340C227.133,340,227.692,340,228.252,340C228.811,340,229.371,340,229.93,340C230.49,340,231.049,340,231.608,340C232.168,340,232.727,340,233.287,340C233.846,340,234.406,340,234.965,340C235.524,340,236.084,340,236.643,340C237.203,340,237.762,340,238.322,340C238.881,340,239.441,340,240,340C240.559,340,241.119,340,241.678,340C242.238,340,242.797,340,243.357,340C243.916,340,244.476,340,245.035,340C245.594,340,246.154,340,246.713,340C247.273,340,247.832,340,248.392,340C248.951,340,249.51,340,250.07,340C250.629,340,251.189,340,251.748,340C252.308,340,252.867,340,253.427,340C253.986,340,254.545,340,255.105,340C255.664,340,256.224,340,256.783,340C257.343,340,257.902,340,258.462,340C259.021,340,259.58,340,260.14,340C260.699,340,261.259,340,261.818,340C262.378,340,262.937,340,263.497,340C264.056,340,264.615,340,265.175,340C265.734,340,266.294,340,266.853,340C267.413,340,267.972,340,268.531,340C269.091,340,269.65,340,270.21,340C270.769,340,271.329,340,271.888,340C272.448,340,273.007,340,273.566,340C274.126,340,274.685,340,275.245,340C275.804,340,276.364,340,276.923,340C277.483,340,278.042,340,278.601,340C279.161,340,279.72,340,280.28,340C280.839,340,281.399,340,281.958,340C282.517,340,283.077,340,283.636,340C284.196,340,284.755,340,285.315,340C285.874,340,286.434,340,286.993,340C287.552,340,288.112,340,288.671,340C289.231,340,289.79,340,290.35,340C290.909,340,291.469,340,292.028,340C292.587,340,293.147,340,293.706,340C294.266,340,294.825,340,295.385,340C295.944,340,296.503,340,297.063,340C297.622,340,298.182,340,298.741,340C299.301,340,299.86,340,300.42,340C300.979,340,301.538,340,302.098,340C302.657,340,303.217,340,303.776,340C304.336,340,304.895,340,305.455,340C306.014,340,306.573,340,307.133,340C307.692,340,308.252,340,308.811,340C309.371,340,309.93,340,310.49,340C311.049,340,311.608,340,312.168,340C312.727,340,313.287,340,313.846,340C314.406,340,314.965,340,315.524,340C316.084,340,316.643,340,317.203,340C317.762,340,318.322,340,318.881,340C319.441,340,320,340,320.559,340C321.119,340,321.678,340,322.238,340C322.797,340,323.357,340,323.916,340C324.476,340,325.035,340,325.594,340C326.154,340,326.713,340,327.273,340C327.832,340,328.392,340,328.951,340C329.51,340,330.07,340,330.629,340C331.189,340,331.748,340,332.308,340C332.867,340,333.427,340,333.986,340C334.545,340,335.105,340,335.664,340C336.224,340,336.783,340,337.343,340C337.902,340,338.462,340,339.021,340C339.58,340,340.14,340,340.699,340C341.259,340,341.818,340,342.378,340C342.937,340,343.497,340,344.056,340C344.615,340,345.175,340,345.734,340C346.294,340,346.853,340,347.413,340C347.972,340,348.531,340,349.091,340C349.65,340,350.21,340,350.769,340C351.329,340,351.888,340,352.448,340C353.007,340,353.566,340,354.126,340C354.685,340,355.245,340,355.804,340C356.364,340,356.923,340,357.483,340C358.042,340,358.601,340,359.161,340C359.72,340,360.28,340,360.839,340C361.399,340,361.958,340,362.517,340C363.077,340,363.636,340,364.196,340C364.755,340,365.315,340,365.874,340C366.434,340,366.993,340,367.552,340C368.112,340,368.671,340,369.231,340C369.79,340,370.35,340,370.909,340C371.469,340,372.028,340,372.587,340C373.147,340,373.706,340,374.266,340C374.825,340,375.385,340,375.944,340C376.503,340,377.063,340,377.622,340C378.182,340,378.741,340,379.301,340C379.86,340,380.42,340,380.979,340C381.538,340,382.098,340,382.657,340C383.217,340,383.776,340,384.336,340C384.895,340,385.455,340,386.014,340C386.573,340,387.133,340,387.692,340C388.252,340,388.811,340,389.371,340C389.93,340,390.49,340,391.049,340C391.608,340,392.168,340,392.727,340C393.287,340,393.846,340,394.406,340C394.965,340,395.524,340,396.084,340C396.643,340,397.203,340,397.762,340C398.322,340,398.881,340,399.441,340C400,340,400.559,340,401.119,340C401.678,340,402.238,340,402.797,340C403.357,340,403.916,340,404.476,340C405.035,340,405.594,340,406.154,340C406.713,340,407.273,340,407.832,340C408.392,340,408.951,340,409.51,340C410.07,340,410.629,340,411.189,340C411.748,340,412.308,340,412.867,340C413.427,340,413.986,340,414.545,340C415.105,340,415.664,340,416.224,340C416.783,340,417.343,340,417.902,340C418.462,340,419.021,340,419.58,340C420.14,340,420.699,340,421.259,340C421.818,340,422.378,340,422.937,340C423.497,340,424.056,340,424.615,340C425.175,340,425.734,340,426.294,340C426.853,340,427.413,340,427.972,340C428.531,340,429.091,340,429.65,340C430.21,340,430.769,340,431.329,340C431.888,340,432.448,340,433.007,340C433.566,340,434.126,340,434.685,340C435.245,340,435.804,340,436.364,340C436.923,340,437.483,340,438.042,340C438.601,340,439.161,340,439.72,340C440.28,340,440.839,340,441.399,340C441.958,340,442.517,340,443.077,340C443.636,340,444.196,340,444.755,340C445.315,340,445.874,340,446.434,340C446.993,340,447.552,340,448.112,340C448.671,340,449.231,340,449.79,340C450.35,340,450.909,340,451.469,340C452.028,340,452.587,340,453.147,340C453.706,340,454.266,340,454.825,340C455.385,340,455.944,340,456.503,340C457.063,340,457.622,340,458.182,340C458.741,340,459.301,340,459.86,340C460.42,340,460.979,340,461.538,340C462.098,340,462.657,340,463.217,340C463.776,340,464.336,340,464.895,340C465.455,340,466.014,340,466.573,340C467.133,340,467.692,340,468.252,340C468.811,340,469.371,340,469.93,340C470.49,340,471.049,340,471.608,340C472.168,340,472.727,340,473.287,340C473.846,340,474.406,340,474.965,340C475.524,340,476.084,340,476.643,340C477.203,340,477.762,340,478.322,340C478.881,340,479.441,340,480,340C480.559,340,481.119,340,481.678,340C482.238,340,482.797,340,483.357,340C483.916,340,484.476,340,485.035,340C485.594,340,486.154,340,486.713,340C487.273,340,487.832,340,488.392,340C488.951,340,489.51,340,490.07,340C490.629,340,491.189,340,491.748,340C492.308,340,492.867,340,493.427,340C493.986,340,494.545,340,495.105,340C495.664,340,496.224,340,496.783,340C497.343,340,497.902,340,498.462,340C499.021,340,499.58,340,500.14,340C500.699,340,501.259,340,501.818,340C502.378,340,502.937,340,503.497,340C504.056,340,504.615,340,505.175,340C505.734,340,506.294,340,506.853,340C507.413,340,507.972,340,508.531,340C509.091,340,509.65,340,510.21,340C510.769,340,511.329,340,511.888,340C512.448,340,513.007,340,513.566,340C514.126,340,514.685,340,515.245,340C515.804,340,516.364,340,516.923,340C517.483,340,518.042,340,518.601,340C519.161,340,519.72,340,520.28,340C520.839,340,521.399,340,521.958,340C522.517,340,523.077,340,523.636,340C524.196,340,524.755,340,525.315,340C525.874,340,526.434,340,526.993,340C527.552,340,528.112,340,528.671,340C529.231,340,529.79,340,530.35,340C530.909,340,531.469,340,532.028,340C532.587,340,533.147,340,533.706,340C534.266,340,534.825,340,535.385,340C535.944,340,536.503,340,537.063,340C537.622,340,538.182,340,538.741,340C539.301,340,539.86,340,540.42,340C540.979,340,541.538,340,542.098,340C542.657,340,543.217,340,543.776,340C544.336,340,544.895,340,545.455,340C546.014,340,546.573,340,547.133,340C547.692,340,548.252,340,548.811,340C549.371,340,549.93,340,550.49,340C551.049,340,551.608,340,552.168,340C552.727,340,553.287,340,553.846,340C554.406,340,554.965,340,555.524,340C556.084,340,556.643,340,557.203,340C557.762,340,558.322,340,558.881,340C559.441,340,560,340,560.559,340C561.119,340,561.678,340,562.238,340C562.797,340,563.357,340,563.916,340C564.476,340,565.035,340,565.594,340C566.154,340,566.713,0,567.273,0C567.832,0,568.392,0,568.951,0C569.51,0,570.07,0,570.629,0C571.189,0,571.748,0,572.308,0C572.867,0,573.427,0,573.986,0C574.545,0,575.105,0,575.664,0C576.224,0,576.783,0,577.343,0C577.902,0,578.462,0,579.021,0C579.58,0,580.14,0,580.699,0C581.259,0,581.818,0,582.378,0C582.937,0,583.497,0,584.056,0C584.615,0,585.175,0,585.734,0C586.294,0,586.853,0,587.413,0C587.972,0,588.531,0,589.091,0C589.65,0,590.21,0,590.769,0C591.329,0,591.888,0,592.448,0C593.007,0,593.566,0,594.126,0C594.685,0,595.245,0,595.804,0C596.364,0,596.923,0,597.483,0C598.042,0,598.601,0,599.161,0C599.72,0,600.28,0,600.839,0C601.399,0,601.958,0,602.517,0C603.077,0,603.636,0,604.196,0C604.755,0,605.315,0,605.874,0C606.434,0,606.993,0,607.552,0C608.112,0,608.671,0,609.231,0C609.79,0,610.35,0,610.909,0C611.469,0,612.028,0,612.587,0C613.147,0,613.706,0,614.266,0C614.825,0,615.385,0,615.944,0C616.503,0,617.063,0,617.622,0C618.182,0,618.741,0,619.301,0C619.86,0,620.42,0,620.979,0C621.538,0,622.098,0,622.657,0C623.217,0,623.776,0,624.336,0C624.895,0,625.455,0,626.014,0C626.573,0,627.133,0,627.692,0C628.252,0,628.811,0,629.371,0C629.93,0,630.49,0,631.049,0C631.608,0,632.168,0,632.727,0C633.287,0,633.846,0,634.406,0C634.965,0,635.524,0,636.084,0C636.643,0,637.203,0,637.762,0C638.322,0,638.881,0,639.441,0C640,0,640.559,0,641.119,0C641.678,0,642.238,0,642.797,0C643.357,0,643.916,0,644.476,0C645.035,0,645.594,0,646.154,0C646.713,0,647.273,0,647.832,0C648.392,0,648.951,0,649.51,0C650.07,0,650.629,0,651.189,0C651.748,0,652.308,0,652.867,0C653.427,0,653.986,0,654.545,0C655.105,0,655.664,0,656.224,0C656.783,0,657.343,0,657.902,0C658.462,0,659.021,0,659.58,0C660.14,0,660.699,0,661.259,0C661.818,0,662.378,0,662.937,0C663.497,0,664.056,0,664.615,0C665.175,0,665.734,0,666.294,0C666.853,0,667.413,0,667.972,0C668.531,0,669.091,0,669.65,0C670.21,0,670.769,0,671.329,0C671.888,0,672.448,0,673.007,0C673.566,0,674.126,0,674.685,0C675.245,0,675.804,0,676.364,0C676.923,0,677.483,0,678.042,0C678.601,0,679.161,0,679.72,0C680.28,0,680.839,0,681.399,0C681.958,0,682.517,0,683.077,0C683.636,0,684.196,0,684.755,0C685.315,0,685.874,0,686.434,0C686.993,0,687.552,0,688.112,0C688.671,0,689.231,0,689.79,0C690.35,0,690.909,0,691.469,0C692.028,0,692.587,0,693.147,0C693.706,0,694.266,0,694.825,0C695.385,0,695.944,0,696.503,0C697.063,0,697.622,0,698.182,0C698.741,0,699.301,0,699.86,0C700.42,0,700.979,0,701.538,0C702.098,0,702.657,0,703.217,0C703.776,0,704.336,0,704.895,0C705.455,0,706.014,0,706.573,0C707.133,0,707.692,0,708.252,0C708.811,0,709.371,0,709.93,0C710.49,0,711.049,0,711.608,0C712.168,0,712.727,0,713.287,0C713.846,0,714.406,0,714.965,0C715.524,0,716.084,0,716.643,0C717.203,0,717.762,0,718.322,0C718.881,0,719.441,0,720,0"></path><circle class="dot" cx="0" cy="340" r="3" fill="#2563eb"></circle><circle class="dot" cx="1.6783216783216783" cy="340" r="3" fill="#2563eb"></circle><circle class="dot" cx="3.3566433566433567" cy="340" r="3" fill="#2563eb"></circle><circle class="dot" cx="5.034965034965035" cy="340" r="3" fill="#2563eb"></circle><circle class="dot" cx="6.713286713286713" cy="340" r="3" fill="#2563eb"></circle><circle class="dot" cx="8.391608391608392" cy="340" r="3" fill="#2563eb"></circle><circle class="dot" cx="10.06993006993007" cy="340" r="3" fill="#2563eb"></circle><circle class="dot" cx="11.748251748251748" cy="340" r="3" fill="#2563eb"></circle><circle class="dot" cx="13.426573426573427" cy="340" r="3" fill="#2563eb"></circle><circle class="dot" cx="15.104895104895105" cy="340" r="3" fill="#2563eb"></circle><circle class="dot" cx="16.783216783216783" cy="340" r="3" fill="#2563eb"></circle><circle class="dot" cx="18.46153846153846" cy="340" r="3" fill="#2563eb"></circle><circle class="dot" cx="20.13986013986014" cy="340" r="3" fill="#2563eb"></circle><circle class="dot" cx="21.81818181818182" cy="340" r="3" fill="#2563eb"></circle><circle class="dot" cx="23.496503496503497" cy="340" r="3" fill="#2563eb"></circle><circle class="dot" cx="25.174825174825177" cy="340" r="3" fill="#2563eb"></circle><circle class="dot" cx="26.853146853146853" cy="340" r="3" fill="#2563eb"></circle><circle class="dot" cx="28.53146853146853" cy="340" r="3" fill="#2563eb"></circle><circle class="dot" cx="30.20979020979021" cy="340" r="3" fill="#2563eb"></circle><circle class="dot" cx="31.888111888111887" cy="340" r="3" fill="#2563eb"></circle><circle class="dot" cx="33.56643356643357" cy="340" r="3" fill="#2563eb"></circle><circle class="dot" cx="35.24475524475525" cy="340" r="3" fill="#2563eb"></circle><circle class="dot" cx="36.92307692307692" cy="340" r="3" fill="#2563eb"></circle><circle class="dot" cx="38.6013986013986" cy="340" r="3" fill="#2563eb"></circle><circle class="dot" cx="40.27972027972028" cy="340" r="3" fill="#2563eb"></circle><circle class="dot" cx="41.95804195804195" cy="340" r="3" fill="#2563eb"></circle><circle class="dot" cx="43.63636363636364" cy="340" r="3" fill="#2563eb"></circle><circle class="dot" cx="45.31468531468532" cy="340" r="3" fill="#2563eb"></circle><circle class="dot" cx="46.99300699300699" cy="340" r="3" fill="#2563eb"></circle><circle class="dot" cx="48.67132867132867" cy="340" r="3" fill="#2563eb"></circle><circle class="dot" cx="50.349650349650354" cy="340" r="3" fill="#2563eb"></circle><circle class="dot" cx="52.02797202797203" cy="340" r="3" fill="#2563eb"></circle><circle class="dot" cx="53.70629370629371" cy="340" r="3" fill="#2563eb"></circle><circle class="dot" cx="55.38461538461539" cy="340" r="3" fill="#2563eb"></circle><circle class="dot" cx="57.06293706293706" cy="340" r="3" fill="#2563eb"></circle><circle class="dot" cx="58.74125874125874" cy="340" r="3" fill="#2563eb"></circle><circle class="dot" cx="60.41958041958042" cy="340" r="3" fill="#2563eb"></circle><circle class="dot" cx="62.09790209790209" cy="340" r="3" fill="#2563eb"></circle><circle class="dot" cx="63.77622377622377" cy="340" r="3" fill="#2563eb"></circle><circle class="dot" cx="65.45454545454545" cy="340" r="3" fill="#2563eb"></circle><circle class="dot" cx="67.13286713286713" cy="340" r="3" fill="#2563eb"></circle><circle class="dot" cx="68.81118881118881" cy="340" r="3" fill="#2563eb"></circle><circle class="dot" cx="70.4895104895105" cy="340" r="3" fill="#2563eb"></circle><circle class="dot" cx="72.16783216783217" cy="340" r="3" fill="#2563eb"></circle><circle class="dot" cx="73.84615384615384" cy="340" r="3" fill="#2563eb"></circle><circle class="dot" cx="75.52447552447552" cy="340" r="3" fill="#2563eb"></circle><circle class="dot" cx="77.2027972027972" cy="340" r="3" fill="#2563eb"></circle><circle class="dot" cx="78.88111888111888" cy="340" r="3" fill="#2563eb"></circle><circle class="dot" cx="80.55944055944056" cy="340" r="3" fill="#2563eb"></circle><circle class="dot" cx="82.23776223776224" cy="340" r="3" fill="#2563eb"></circle><circle class="dot" cx="83.9160839160839" cy="340" r="3" fill="#2563eb"></circle><circle class="dot" cx="85.5944055944056" cy="340" r="3" fill="#2563eb"></circle><circle class="dot" cx="87.27272727272728" cy="340" r="3" fill="#2563eb"></circle><circle class="dot" cx="88.95104895104895" cy="340" r="3" fill="#2563eb"></circle><circle class="dot" cx="90.62937062937064" cy="340" r="3" fill="#2563eb"></circle><circle class="dot" cx="92.30769230769229" cy="340" r="3" fill="#2563eb"></circle><circle class="dot" cx="93.98601398601399" cy="340" r="3" fill="#2563eb"></circle><circle class="dot" cx="95.66433566433567" cy="340" r="3" fill="#2563eb"></circle><circle class="dot" cx="97.34265734265735" cy="340" r="3" fill="#2563eb"></circle><circle class="dot" cx="99.02097902097903" cy="340" r="3" fill="#2563eb"></circle><circle class="dot" cx="100.69930069930071" cy="340" r="3" fill="#2563eb"></circle><circle class="dot" cx="102.37762237762237" cy="340" r="3" fill="#2563eb"></circle><circle class="dot" cx="104.05594405594405" cy="340" r="3" fill="#2563eb"></circle><circle class="dot" cx="105.73426573426573" cy="340" r="3" fill="#2563eb"></circle><circle class="dot" cx="107.41258741258741" cy="340" r="3" fill="#2563eb"></circle><circle class="dot" cx="109.0909090909091" cy="340" r="3" fill="#2563eb"></circle><circle class="dot" cx="110.76923076923077" cy="340" r="3" fill="#2563eb"></circle><circle class="dot" cx="112.44755244755245" cy="340" r="3" fill="#2563eb"></circle><circle class="dot" cx="114.12587412587412" cy="340" r="3" fill="#2563eb"></circle><circle class="dot" cx="115.8041958041958" cy="340" r="3" fill="#2563eb"></circle><circle class="dot" cx="117.48251748251748" cy="340" r="3" fill="#2563eb"></circle><circle class="dot" cx="119.16083916083916" cy="340" r="3" fill="#2563eb"></circle><circle class="dot" cx="120.83916083916084" cy="340" r="3" fill="#2563eb"></circle><circle class="dot" cx="122.51748251748252" cy="340" r="3" fill="#2563eb"></circle><circle class="dot" cx="124.19580419580419" cy="340" r="3" fill="#2563eb"></circle><circle class="dot" cx="125.87412587412587" cy="340" r="3" fill="#2563eb"></circle><circle class="dot" cx="127.55244755244755" cy="340" r="3" fill="#2563eb"></circle><circle class="dot" cx="129.23076923076923" cy="340" r="3" fill="#2563eb"></circle><circle class="dot" cx="130.9090909090909" cy="340" r="3" fill="#2563eb"></circle><circle class="dot" cx="132.5874125874126" cy="340" r="3" fill="#2563eb"></circle><circle class="dot" cx="134.26573426573427" cy="340" r="3" fill="#2563eb"></circle><circle class="dot" cx="135.94405594405595" cy="340" r="3" fill="#2563eb"></circle><circle class="dot" cx="137.62237762237763" cy="340" r="3" fill="#2563eb"></circle><circle class="dot" cx="139.3006993006993" cy="340" r="3" fill="#2563eb"></circle><circle class="dot" cx="140.979020979021" cy="340" r="3" fill="#2563eb"></circle><circle class="dot" cx="142.65734265734267" cy="340" r="3" fill="#2563eb"></circle><circle class="dot" cx="144.33566433566435" cy="340" r="3" fill="#2563eb"></circle><circle class="dot" cx="146.013986013986" cy="340" r="3" fill="#2563eb"></circle><circle class="dot" cx="147.69230769230768" cy="340" r="3" fill="#2563eb"></circle><circle class="dot" cx="149.37062937062936" cy="340" r="3" fill="#2563eb"></circle><circle class="dot" cx="151.04895104895104" cy="340" r="3" fill="#2563eb"></circle><circle class="dot" cx="152.72727272727272" cy="340" r="3" fill="#2563eb"></circle><circle class="dot" cx="154.4055944055944" cy="340" r="3" fill="#2563eb"></circle><circle class="dot" cx="156.08391608391608" cy="340" r="3" fill="#2563eb"></circle><circle class="dot" cx="157.76223776223776" cy="340" r="3" fill="#2563eb"></circle><circle class="dot" cx="159.44055944055944" cy="340" r="3" fill="#2563eb"></circle><circle class="dot" cx="161.11888111888112" cy="340" r="3" fill="#2563eb"></circle><circle class="dot" cx="162.7972027972028" cy="340" r="3" fill="#2563eb"></circle><circle class="dot" cx="164.47552447552448" cy="340" r="3" fill="#2563eb"></circle><circle class="dot" cx="166.15384615384616" cy="340" r="3" fill="#2563eb"></circle><circle class="dot" cx="167.8321678321678" cy="340" r="3" fill="#2563eb"></circle><circle class="dot" cx="169.5104895104895" cy="340" r="3" fill="#2563eb"></circle><circle class="dot" cx="171.1888111888112" cy="340" r="3" fill="#2563eb"></circle><circle class="dot" cx="172.86713286713288" cy="340" r="3" fill="#2563eb"></circle><circle class="dot" cx="174.54545454545456" cy="340" r="3" fill="#2563eb"></circle><circle class="dot" cx="176.22377622377624" cy="340" r="3" fill="#2563eb"></circle><circle class="dot" cx="177.9020979020979" cy="340" r="3" fill="#2563eb"></circle><circle class="dot" cx="179.58041958041957" cy="340" r="3" fill="#2563eb"></circle><circle class="dot" cx="181.25874125874128" cy="340" r="3" fill="#2563eb"></circle><circle class="dot" cx="182.93706293706293" cy="340" r="3" fill="#2563eb"></circle><circle class="dot" cx="184.61538461538458" cy="340" r="3" fill="#2563eb"></circle><circle class="dot" cx="186.2937062937063" cy="340" r="3" fill="#2563eb"></circle><circle class="dot" cx="187.97202797202797" cy="340" r="3" fill="#2563eb"></circle><circle class="dot" cx="189.65034965034965" cy="340" r="3" fill="#2563eb"></circle><circle class="dot" cx="191.32867132867133" cy="340" r="3" fill="#2563eb"></circle><circle class="dot" cx="193.006993006993" cy="340" r="3" fill="#2563eb"></circle><circle class="dot" cx="194.6853146853147" cy="340" r="3" fill="#2563eb"></circle><circle class="dot" cx="196.36363636363635" cy="340" r="3" fill="#2563eb"></circle><circle class="dot" cx="198.04195804195805" cy="340" r="3" fill="#2563eb"></circle><circle class="dot" cx="199.7202797202797" cy="340" r="3" fill="#2563eb"></circle><circle class="dot" cx="201.39860139860141" cy="340" r="3" fill="#2563eb"></circle><circle class="dot" cx="203.07692307692307" cy="340" r="3" fill="#2563eb"></circle><circle class="dot" cx="204.75524475524475" cy="340" r="3" fill="#2563eb"></circle><circle class="dot" cx="206.43356643356643" cy="340" r="3" fill="#2563eb"></circle><circle class="dot" cx="208.1118881118881" cy="340" r="3" fill="#2563eb"></circle><circle class="dot" cx="209.79020979020981" cy="340" r="3" fill="#2563eb"></circle><circle class="dot" cx="211.46853146853147" cy="340" r="3" fill="#2563eb"></circle><circle class="dot" cx="213.14685314685318" cy="340" r="3" fill="#2563eb"></circle><circle class="dot" cx="214.82517482517483" cy="340" r="3" fill="#2563eb"></circle><circle class="dot" cx="216.50349650349648" cy="340" r="3" fill="#2563eb"></circle><circle class="dot" cx="218.1818181818182" cy="340" r="3" fill="#2563eb"></circle><circle class="dot" cx="219.86013986013984" cy="340" r="3" fill="#2563eb"></circle><circle class="dot" cx="221.53846153846155" cy="340" r="3" fill="#2563eb"></circle><circle class="dot" cx="223.2167832167832" cy="340" r="3" fill="#2563eb"></circle><circle class="dot" cx="224.8951048951049" cy="340" r="3" fill="#2563eb"></circle><circle class="dot" cx="226.5734265734266" cy="340" r="3" fill="#2563eb"></circle><circle class="dot" cx="228.25174825174824" cy="340" r="3" fill="#2563eb"></circle><circle class="dot" cx="229.93006993006995" cy="340" r="3" fill="#2563eb"></circle><circle class="dot" cx="231.6083916083916" cy="340" r="3" fill="#2563eb"></circle><circle class="dot" cx="233.2867132867133" cy="340" r="3" fill="#2563eb"></circle><circle class="dot" cx="234.96503496503496" cy="340" r="3" fill="#2563eb"></circle><circle class="dot" cx="236.6433566433566" cy="340" r="3" fill="#2563eb"></circle><circle class="dot" cx="238.32167832167832" cy="340" r="3" fill="#2563eb"></circle><circle class="dot" cx="240" cy="340" r="3" fill="#2563eb"></circle><circle class="dot" cx="241.67832167832168" cy="340" r="3" fill="#2563eb"></circle><circle class="dot" cx="243.35664335664336" cy="340" r="3" fill="#2563eb"></circle><circle class="dot" cx="245.03496503496504" cy="340" r="3" fill="#2563eb"></circle><circle class="dot" cx="246.71328671328672" cy="340" r="3" fill="#2563eb"></circle><circle class="dot" cx="248.39160839160837" cy="340" r="3" fill="#2563eb"></circle><circle class="dot" cx="250.06993006993008" cy="340" r="3" fill="#2563eb"></circle><circle class="dot" cx="251.74825174825173" cy="340" r="3" fill="#2563eb"></circle><circle class="dot" cx="253.42657342657344" cy="340" r="3" fill="#2563eb"></circle><circle class="dot" cx="255.1048951048951" cy="340" r="3" fill="#2563eb"></circle><circle class="dot" cx="256.7832167832168" cy="340" r="3" fill="#2563eb"></circle><circle class="dot" cx="258.46153846153845" cy="340" r="3" fill="#2563eb"></circle><circle class="dot" cx="260.1398601398601" cy="340" r="3" fill="#2563eb"></circle><circle class="dot" cx="261.8181818181818" cy="340" r="3" fill="#2563eb"></circle><circle class="dot" cx="263.49650349650346" cy="340" r="3" fill="#2563eb"></circle><circle class="dot" cx="265.1748251748252" cy="340" r="3" fill="#2563eb"></circle><circle class="dot" cx="266.8531468531468" cy="340" r="3" fill="#2563eb"></circle><circle class="dot" cx="268.53146853146853" cy="340" r="3" fill="#2563eb"></circle><circle class="dot" cx="270.2097902097902" cy="340" r="3" fill="#2563eb"></circle><circle class="dot" cx="271.8881118881119" cy="340" r="3" fill="#2563eb"></circle><circle class="dot" cx="273.5664335664336" cy="340" r="3" fill="#2563eb"></circle><circle class="dot" cx="275.24475524475525" cy="340" r="3" fill="#2563eb"></circle><circle class="dot" cx="276.92307692307696" cy="340" r="3" fill="#2563eb"></circle><circle class="dot" cx="278.6013986013986" cy="340" r="3" fill="#2563eb"></circle><circle class="dot" cx="280.27972027972027" cy="340" r="3" fill="#2563eb"></circle><circle class="dot" cx="281.958041958042" cy="340" r="3" fill="#2563eb"></circle><circle class="dot" cx="283.6363636363636" cy="340" r="3" fill="#2563eb"></circle><circle class="dot" cx="285.31468531468533" cy="340" r="3" fill="#2563eb"></circle><circle class="dot" cx="286.993006993007" cy="340" r="3" fill="#2563eb"></circle><circle class="dot" cx="288.6713286713287" cy="340" r="3" fill="#2563eb"></circle><circle class="dot" cx="290.34965034965035" cy="340" r="3" fill="#2563eb"></circle><circle class="dot" cx="292.027972027972" cy="340" r="3" fill="#2563eb"></circle><circle class="dot" cx="293.7062937062937" cy="340" r="3" fill="#2563eb"></circle><circle class="dot" cx="295.38461538461536" cy="340" r="3" fill="#2563eb"></circle><circle class="dot" cx="297.06293706293707" cy="340" r="3" fill="#2563eb"></circle><circle class="dot" cx="298.7412587412587" cy="340" r="3" fill="#2563eb"></circle><circle class="dot" cx="300.4195804195804" cy="340" r="3" fill="#2563eb"></circle><circle class="dot" cx="302.0979020979021" cy="340" r="3" fill="#2563eb"></circle><circle class="dot" cx="303.7762237762238" cy="340" r="3" fill="#2563eb"></circle><circle class="dot" cx="305.45454545454544" cy="340" r="3" fill="#2563eb"></circle><circle class="dot" cx="307.13286713286715" cy="340" r="3" fill="#2563eb"></circle><circle class="dot" cx="308.8111888111888" cy="340" r="3" fill="#2563eb"></circle><circle class="dot" cx="310.4895104895105" cy="340" r="3" fill="#2563eb"></circle><circle class="dot" cx="312.16783216783216" cy="340" r="3" fill="#2563eb"></circle><circle class="dot" cx="313.84615384615387" cy="340" r="3" fill="#2563eb"></circle><circle class="dot" cx="315.5244755244755" cy="340" r="3" fill="#2563eb"></circle><circle class="dot" cx="317.2027972027972" cy="340" r="3" fill="#2563eb"></circle><circle class="dot" cx="318.8811188811189" cy="340" r="3" fill="#2563eb"></circle><circle class="dot" cx="320.5594405594406" cy="340" r="3" fill="#2563eb"></circle><circle class="dot" cx="322.23776223776224" cy="340" r="3" fill="#2563eb"></circle><circle class="dot" cx="323.9160839160839" cy="340" r="3" fill="#2563eb"></circle><circle class="dot" cx="325.5944055944056" cy="340" r="3" fill="#2563eb"></circle><circle class="dot" cx="327.27272727272725" cy="340" r="3" fill="#2563eb"></circle><circle class="dot" cx="328.95104895104896" cy="340" r="3" fill="#2563eb"></circle><circle class="dot" cx="330.6293706293706" cy="340" r="3" fill="#2563eb"></circle><circle class="dot" cx="332.3076923076923" cy="340" r="3" fill="#2563eb"></circle><circle class="dot" cx="333.986013986014" cy="340" r="3" fill="#2563eb"></circle><circle class="dot" cx="335.6643356643356" cy="340" r="3" fill="#2563eb"></circle><circle class="dot" cx="337.34265734265733" cy="340" r="3" fill="#2563eb"></circle><circle class="dot" cx="339.020979020979" cy="340" r="3" fill="#2563eb"></circle><circle class="dot" cx="340.6993006993007" cy="340" r="3" fill="#2563eb"></circle><circle class="dot" cx="342.3776223776224" cy="340" r="3" fill="#2563eb"></circle><circle class="dot" cx="344.05594405594405" cy="340" r="3" fill="#2563eb"></circle><circle class="dot" cx="345.73426573426576" cy="340" r="3" fill="#2563eb"></circle><circle class="dot" cx="347.4125874125874" cy="340" r="3" fill="#2563eb"></circle><circle class="dot" cx="349.0909090909091" cy="340" r="3" fill="#2563eb"></circle><circle class="dot" cx="350.7692307692308" cy="340" r="3" fill="#2563eb"></circle><circle class="dot" cx="352.4475524475525" cy="340" r="3" fill="#2563eb"></circle><circle class="dot" cx="354.12587412587413" cy="340" r="3" fill="#2563eb"></circle><circle class="dot" cx="355.8041958041958" cy="340" r="3" fill="#2563eb"></circle><circle class="dot" cx="357.4825174825175" cy="340" r="3" fill="#2563eb"></circle><circle class="dot" cx="359.16083916083915" cy="340" r="3" fill="#2563eb"></circle><circle class="dot" cx="360.83916083916085" cy="340" r="3" fill="#2563eb"></circle><circle class="dot" cx="362.51748251748256" cy="340" r="3" fill="#2563eb"></circle><circle class="dot" cx="364.19580419580416" cy="340" r="3" fill="#2563eb"></circle><circle class="dot" cx="365.87412587412587" cy="340" r="3" fill="#2563eb"></circle><circle class="dot" cx="367.5524475524476" cy="340" r="3" fill="#2563eb"></circle><circle class="dot" cx="369.23076923076917" cy="340" r="3" fill="#2563eb"></circle><circle class="dot" cx="370.9090909090909" cy="340" r="3" fill="#2563eb"></circle><circle class="dot" cx="372.5874125874126" cy="340" r="3" fill="#2563eb"></circle><circle class="dot" cx="374.2657342657343" cy="340" r="3" fill="#2563eb"></circle><circle class="dot" cx="375.94405594405595" cy="340" r="3" fill="#2563eb"></circle><circle class="dot" cx="377.6223776223776" cy="340" r="3" fill="#2563eb"></circle><circle class="dot" cx="379.3006993006993" cy="340" r="3" fill="#2563eb"></circle><circle class="dot" cx="380.97902097902096" cy="340" r="3" fill="#2563eb"></circle><circle class="dot" cx="382.65734265734267" cy="340" r="3" fill="#2563eb"></circle><circle class="dot" cx="384.3356643356644" cy="340" r="3" fill="#2563eb"></circle><circle class="dot" cx="386.013986013986" cy="340" r="3" fill="#2563eb"></circle><circle class="dot" cx="387.6923076923077" cy="340" r="3" fill="#2563eb"></circle><circle class="dot" cx="389.3706293706294" cy="340" r="3" fill="#2563eb"></circle><circle class="dot" cx="391.0489510489511" cy="340" r="3" fill="#2563eb"></circle><circle class="dot" cx="392.7272727272727" cy="340" r="3" fill="#2563eb"></circle><circle class="dot" cx="394.4055944055944" cy="340" r="3" fill="#2563eb"></circle><circle class="dot" cx="396.0839160839161" cy="340" r="3" fill="#2563eb"></circle><circle class="dot" cx="397.7622377622377" cy="340" r="3" fill="#2563eb"></circle><circle class="dot" cx="399.4405594405594" cy="340" r="3" fill="#2563eb"></circle><circle class="dot" cx="401.1188811188811" cy="340" r="3" fill="#2563eb"></circle><circle class="dot" cx="402.79720279720283" cy="340" r="3" fill="#2563eb"></circle><circle class="dot" cx="404.4755244755244" cy="340" r="3" fill="#2563eb"></circle><circle class="dot" cx="406.15384615384613" cy="340" r="3" fill="#2563eb"></circle><circle class="dot" cx="407.83216783216784" cy="340" r="3" fill="#2563eb"></circle><circle class="dot" cx="409.5104895104895" cy="340" r="3" fill="#2563eb"></circle><circle class="dot" cx="411.1888111888112" cy="340" r="3" fill="#2563eb"></circle><circle class="dot" cx="412.86713286713285" cy="340" r="3" fill="#2563eb"></circle><circle class="dot" cx="414.54545454545456" cy="340" r="3" fill="#2563eb"></circle><circle class="dot" cx="416.2237762237762" cy="340" r="3" fill="#2563eb"></circle><circle class="dot" cx="417.9020979020979" cy="340" r="3" fill="#2563eb"></circle><circle class="dot" cx="419.58041958041963" cy="340" r="3" fill="#2563eb"></circle><circle class="dot" cx="421.2587412587412" cy="340" r="3" fill="#2563eb"></circle><circle class="dot" cx="422.93706293706293" cy="340" r="3" fill="#2563eb"></circle><circle class="dot" cx="424.61538461538464" cy="340" r="3" fill="#2563eb"></circle><circle class="dot" cx="426.29370629370635" cy="340" r="3" fill="#2563eb"></circle><circle class="dot" cx="427.97202797202794" cy="340" r="3" fill="#2563eb"></circle><circle class="dot" cx="429.65034965034965" cy="340" r="3" fill="#2563eb"></circle><circle class="dot" cx="431.32867132867136" cy="340" r="3" fill="#2563eb"></circle><circle class="dot" cx="433.00699300699296" cy="340" r="3" fill="#2563eb"></circle><circle class="dot" cx="434.68531468531467" cy="340" r="3" fill="#2563eb"></circle><circle class="dot" cx="436.3636363636364" cy="340" r="3" fill="#2563eb"></circle><circle class="dot" cx="438.0419580419581" cy="340" r="3" fill="#2563eb"></circle><circle class="dot" cx="439.7202797202797" cy="340" r="3" fill="#2563eb"></circle><circle class="dot" cx="441.3986013986014" cy="340" r="3" fill="#2563eb"></circle><circle class="dot" cx="443.0769230769231" cy="340" r="3" fill="#2563eb"></circle><circle class="dot" cx="444.75524475524475" cy="340" r="3" fill="#2563eb"></circle><circle class="dot" cx="446.4335664335664" cy="340" r="3" fill="#2563eb"></circle><circle class="dot" cx="448.1118881118881" cy="340" r="3" fill="#2563eb"></circle><circle class="dot" cx="449.7902097902098" cy="340" r="3" fill="#2563eb"></circle><circle class="dot" cx="451.46853146853147" cy="340" r="3" fill="#2563eb"></circle><circle class="dot" cx="453.1468531468532" cy="340" r="3" fill="#2563eb"></circle><circle class="dot" cx="454.8251748251748" cy="340" r="3" fill="#2563eb"></circle><circle class="dot" cx="456.5034965034965" cy="340" r="3" fill="#2563eb"></circle><circle class="dot" cx="458.1818181818182" cy="340" r="3" fill="#2563eb"></circle><circle class="dot" cx="459.8601398601399" cy="340" r="3" fill="#2563eb"></circle><circle class="dot" cx="461.5384615384616" cy="340" r="3" fill="#2563eb"></circle><circle class="dot" cx="463.2167832167832" cy="340" r="3" fill="#2563eb"></circle><circle class="dot" cx="464.8951048951049" cy="340" r="3" fill="#2563eb"></circle><circle class="dot" cx="466.5734265734266" cy="340" r="3" fill="#2563eb"></circle><circle class="dot" cx="468.2517482517482" cy="340" r="3" fill="#2563eb"></circle><circle class="dot" cx="469.9300699300699" cy="340" r="3" fill="#2563eb"></circle><circle class="dot" cx="471.6083916083916" cy="340" r="3" fill="#2563eb"></circle><circle class="dot" cx="473.2867132867132" cy="340" r="3" fill="#2563eb"></circle><circle class="dot" cx="474.96503496503493" cy="340" r="3" fill="#2563eb"></circle><circle class="dot" cx="476.64335664335664" cy="340" r="3" fill="#2563eb"></circle><circle class="dot" cx="478.32167832167835" cy="340" r="3" fill="#2563eb"></circle><circle class="dot" cx="480" cy="340" r="3" fill="#2563eb"></circle><circle class="dot" cx="481.67832167832165" cy="340" r="3" fill="#2563eb"></circle><circle class="dot" cx="483.35664335664336" cy="340" r="3" fill="#2563eb"></circle><circle class="dot" cx="485.034965034965" cy="340" r="3" fill="#2563eb"></circle><circle class="dot" cx="486.7132867132867" cy="340" r="3" fill="#2563eb"></circle><circle class="dot" cx="488.39160839160843" cy="340" r="3" fill="#2563eb"></circle><circle class="dot" cx="490.0699300699301" cy="340" r="3" fill="#2563eb"></circle><circle class="dot" cx="491.74825174825173" cy="340" r="3" fill="#2563eb"></circle><circle class="dot" cx="493.42657342657344" cy="340" r="3" fill="#2563eb"></circle><circle class="dot" cx="495.10489510489515" cy="340" r="3" fill="#2563eb"></circle><circle class="dot" cx="496.78321678321674" cy="340" r="3" fill="#2563eb"></circle><circle class="dot" cx="498.46153846153845" cy="340" r="3" fill="#2563eb"></circle><circle class="dot" cx="500.13986013986016" cy="340" r="3" fill="#2563eb"></circle><circle class="dot" cx="501.81818181818187" cy="340" r="3" fill="#2563eb"></circle><circle class="dot" cx="503.49650349650346" cy="340" r="3" fill="#2563eb"></circle><circle class="dot" cx="505.1748251748252" cy="340" r="3" fill="#2563eb"></circle><circle class="dot" cx="506.8531468531469" cy="340" r="3" fill="#2563eb"></circle><circle class="dot" cx="508.5314685314685" cy="340" r="3" fill="#2563eb"></circle><circle class="dot" cx="510.2097902097902" cy="340" r="3" fill="#2563eb"></circle><circle class="dot" cx="511.8881118881119" cy="340" r="3" fill="#2563eb"></circle><circle class="dot" cx="513.5664335664336" cy="340" r="3" fill="#2563eb"></circle><circle class="dot" cx="515.2447552447552" cy="340" r="3" fill="#2563eb"></circle><circle class="dot" cx="516.9230769230769" cy="340" r="3" fill="#2563eb"></circle><circle class="dot" cx="518.6013986013986" cy="340" r="3" fill="#2563eb"></circle><circle class="dot" cx="520.2797202797202" cy="340" r="3" fill="#2563eb"></circle><circle class="dot" cx="521.9580419580419" cy="340" r="3" fill="#2563eb"></circle><circle class="dot" cx="523.6363636363636" cy="340" r="3" fill="#2563eb"></circle><circle class="dot" cx="525.3146853146853" cy="340" r="3" fill="#2563eb"></circle><circle class="dot" cx="526.9930069930069" cy="340" r="3" fill="#2563eb"></circle><circle class="dot" cx="528.6713286713286" cy="340" r="3" fill="#2563eb"></circle><circle class="dot" cx="530.3496503496503" cy="340" r="3" fill="#2563eb"></circle><circle class="dot" cx="532.027972027972" cy="340" r="3" fill="#2563eb"></circle><circle class="dot" cx="533.7062937062936" cy="340" r="3" fill="#2563eb"></circle><circle class="dot" cx="535.3846153846154" cy="340" r="3" fill="#2563eb"></circle><circle class="dot" cx="537.0629370629371" cy="340" r="3" fill="#2563eb"></circle><circle class="dot" cx="538.7412587412588" cy="340" r="3" fill="#2563eb"></circle><circle class="dot" cx="540.4195804195804" cy="340" r="3" fill="#2563eb"></circle><circle class="dot" cx="542.0979020979021" cy="340" r="3" fill="#2563eb"></circle><circle class="dot" cx="543.7762237762238" cy="340" r="3" fill="#2563eb"></circle><circle class="dot" cx="545.4545454545455" cy="340" r="3" fill="#2563eb"></circle><circle class="dot" cx="547.1328671328672" cy="340" r="3" fill="#2563eb"></circle><circle class="dot" cx="548.8111888111888" cy="340" r="3" fill="#2563eb"></circle><circle class="dot" cx="550.4895104895105" cy="340" r="3" fill="#2563eb"></circle><circle class="dot" cx="552.1678321678322" cy="340" r="3" fill="#2563eb"></circle><circle class="dot" cx="553.8461538461539" cy="340" r="3" fill="#2563eb"></circle><circle class="dot" cx="555.5244755244755" cy="340" r="3" fill="#2563eb"></circle><circle class="dot" cx="557.2027972027972" cy="340" r="3" fill="#2563eb"></circle><circle class="dot" cx="558.8811188811189" cy="340" r="3" fill="#2563eb"></circle><circle class="dot" cx="560.5594405594405" cy="340" r="3" fill="#2563eb"></circle><circle class="dot" cx="562.2377622377622" cy="340" r="3" fill="#2563eb"></circle><circle class="dot" cx="563.916083916084" cy="340" r="3" fill="#2563eb"></circle><circle class="dot" cx="565.5944055944057" cy="340" r="3" fill="#2563eb"></circle><circle class="dot" cx="567.2727272727273" cy="0" r="3" fill="#2563eb"></circle><circle class="dot" cx="568.951048951049" cy="0" r="3" fill="#2563eb"></circle><circle class="dot" cx="570.6293706293707" cy="0" r="3" fill="#2563eb"></circle><circle class="dot" cx="572.3076923076923" cy="0" r="3" fill="#2563eb"></circle><circle class="dot" cx="573.986013986014" cy="0" r="3" fill="#2563eb"></circle><circle class="dot" cx="575.6643356643357" cy="0" r="3" fill="#2563eb"></circle><circle class="dot" cx="577.3426573426574" cy="0" r="3" fill="#2563eb"></circle><circle class="dot" cx="579.020979020979" cy="0" r="3" fill="#2563eb"></circle><circle class="dot" cx="580.6993006993007" cy="0" r="3" fill="#2563eb"></circle><circle class="dot" cx="582.3776223776224" cy="0" r="3" fill="#2563eb"></circle><circle class="dot" cx="584.055944055944" cy="0" r="3" fill="#2563eb"></circle><circle class="dot" cx="585.7342657342657" cy="0" r="3" fill="#2563eb"></circle><circle class="dot" cx="587.4125874125874" cy="0" r="3" fill="#2563eb"></circle><circle class="dot" cx="589.0909090909091" cy="0" r="3" fill="#2563eb"></circle><circle class="dot" cx="590.7692307692307" cy="0" r="3" fill="#2563eb"></circle><circle class="dot" cx="592.4475524475524" cy="0" r="3" fill="#2563eb"></circle><circle class="dot" cx="594.1258741258741" cy="0" r="3" fill="#2563eb"></circle><circle class="dot" cx="595.8041958041957" cy="0" r="3" fill="#2563eb"></circle><circle class="dot" cx="597.4825174825174" cy="0" r="3" fill="#2563eb"></circle><circle class="dot" cx="599.1608391608391" cy="0" r="3" fill="#2563eb"></circle><circle class="dot" cx="600.8391608391609" cy="0" r="3" fill="#2563eb"></circle><circle class="dot" cx="602.5174825174824" cy="0" r="3" fill="#2563eb"></circle><circle class="dot" cx="604.1958041958042" cy="0" r="3" fill="#2563eb"></circle><circle class="dot" cx="605.8741258741259" cy="0" r="3" fill="#2563eb"></circle><circle class="dot" cx="607.5524475524476" cy="0" r="3" fill="#2563eb"></circle><circle class="dot" cx="609.2307692307692" cy="0" r="3" fill="#2563eb"></circle><circle class="dot" cx="610.9090909090909" cy="0" r="3" fill="#2563eb"></circle><circle class="dot" cx="612.5874125874126" cy="0" r="3" fill="#2563eb"></circle><circle class="dot" cx="614.2657342657343" cy="0" r="3" fill="#2563eb"></circle><circle class="dot" cx="615.944055944056" cy="0" r="3" fill="#2563eb"></circle><circle class="dot" cx="617.6223776223776" cy="0" r="3" fill="#2563eb"></circle><circle class="dot" cx="619.3006993006993" cy="0" r="3" fill="#2563eb"></circle><circle class="dot" cx="620.979020979021" cy="0" r="3" fill="#2563eb"></circle><circle class="dot" cx="622.6573426573427" cy="0" r="3" fill="#2563eb"></circle><circle class="dot" cx="624.3356643356643" cy="0" r="3" fill="#2563eb"></circle><circle class="dot" cx="626.013986013986" cy="0" r="3" fill="#2563eb"></circle><circle class="dot" cx="627.6923076923077" cy="0" r="3" fill="#2563eb"></circle><circle class="dot" cx="629.3706293706294" cy="0" r="3" fill="#2563eb"></circle><circle class="dot" cx="631.048951048951" cy="0" r="3" fill="#2563eb"></circle><circle class="dot" cx="632.7272727272727" cy="0" r="3" fill="#2563eb"></circle><circle class="dot" cx="634.4055944055945" cy="0" r="3" fill="#2563eb"></circle><circle class="dot" cx="636.083916083916" cy="0" r="3" fill="#2563eb"></circle><circle class="dot" cx="637.7622377622378" cy="0" r="3" fill="#2563eb"></circle><circle class="dot" cx="639.4405594405595" cy="0" r="3" fill="#2563eb"></circle><circle class="dot" cx="641.1188811188812" cy="0" r="3" fill="#2563eb"></circle><circle class="dot" cx="642.7972027972028" cy="0" r="3" fill="#2563eb"></circle><circle class="dot" cx="644.4755244755245" cy="0" r="3" fill="#2563eb"></circle><circle class="dot" cx="646.1538461538462" cy="0" r="3" fill="#2563eb"></circle><circle class="dot" cx="647.8321678321678" cy="0" r="3" fill="#2563eb"></circle><circle class="dot" cx="649.5104895104895" cy="0" r="3" fill="#2563eb"></circle><circle class="dot" cx="651.1888111888112" cy="0" r="3" fill="#2563eb"></circle><circle class="dot" cx="652.8671328671329" cy="0" r="3" fill="#2563eb"></circle><circle class="dot" cx="654.5454545454545" cy="0" r="3" fill="#2563eb"></circle><circle class="dot" cx="656.2237762237762" cy="0" r="3" fill="#2563eb"></circle><circle class="dot" cx="657.9020979020979" cy="0" r="3" fill="#2563eb"></circle><circle class="dot" cx="659.5804195804195" cy="0" r="3" fill="#2563eb"></circle><circle class="dot" cx="661.2587412587412" cy="0" r="3" fill="#2563eb"></circle><circle class="dot" cx="662.9370629370629" cy="0" r="3" fill="#2563eb"></circle><circle class="dot" cx="664.6153846153846" cy="0" r="3" fill="#2563eb"></circle><circle class="dot" cx="666.2937062937062" cy="0" r="3" fill="#2563eb"></circle><circle class="dot" cx="667.972027972028" cy="0" r="3" fill="#2563eb"></circle><circle class="dot" cx="669.6503496503497" cy="0" r="3" fill="#2563eb"></circle><circle class="dot" cx="671.3286713286712" cy="0" r="3" fill="#2563eb"></circle><circle class="dot" cx="673.006993006993" cy="0" r="3" fill="#2563eb"></circle><circle class="dot" cx="674.6853146853147" cy="0" r="3" fill="#2563eb"></circle><circle class="dot" cx="676.3636363636364" cy="0" r="3" fill="#2563eb"></circle><circle class="dot" cx="678.041958041958" cy="0" r="3" fill="#2563eb"></circle><circle class="dot" cx="679.7202797202797" cy="0" r="3" fill="#2563eb"></circle><circle class="dot" cx="681.3986013986014" cy="0" r="3" fill="#2563eb"></circle><circle class="dot" cx="683.0769230769231" cy="0" r="3" fill="#2563eb"></circle><circle class="dot" cx="684.7552447552448" cy="0" r="3" fill="#2563eb"></circle><circle class="dot" cx="686.4335664335664" cy="0" r="3" fill="#2563eb"></circle><circle class="dot" cx="688.1118881118881" cy="0" r="3" fill="#2563eb"></circle><circle class="dot" cx="689.7902097902098" cy="0" r="3" fill="#2563eb"></circle><circle class="dot" cx="691.4685314685315" cy="0" r="3" fill="#2563eb"></circle><circle class="dot" cx="693.1468531468532" cy="0" r="3" fill="#2563eb"></circle><circle class="dot" cx="694.8251748251748" cy="0" r="3" fill="#2563eb"></circle><circle class="dot" cx="696.5034965034965" cy="0" r="3" fill="#2563eb"></circle><circle class="dot" cx="698.1818181818182" cy="0" r="3" fill="#2563eb"></circle><circle class="dot" cx="699.8601398601398" cy="0" r="3" fill="#2563eb"></circle><circle class="dot" cx="701.5384615384615" cy="0" r="3" fill="#2563eb"></circle><circle class="dot" cx="703.2167832167833" cy="0" r="3" fill="#2563eb"></circle><circle class="dot" cx="704.895104895105" cy="0" r="3" fill="#2563eb"></circle><circle class="dot" cx="706.5734265734266" cy="0" r="3" fill="#2563eb"></circle><circle class="dot" cx="708.2517482517483" cy="0" r="3" fill="#2563eb"></circle><circle class="dot" cx="709.93006993007" cy="0" r="3" fill="#2563eb"></circle><circle class="dot" cx="711.6083916083916" cy="0" r="3" fill="#2563eb"></circle><circle class="dot" cx="713.2867132867133" cy="0" r="3" fill="#2563eb"></circle><circle class="dot" cx="714.965034965035" cy="0" r="3" fill="#2563eb"></circle><circle class="dot" cx="716.6433566433567" cy="0" r="3" fill="#2563eb"></circle><circle class="dot" cx="718.3216783216783" cy="0" r="3" fill="#2563eb"></circle><circle class="dot" cx="720" cy="0" r="3" fill="#2563eb"></circle><g class="grid" transform="translate(0,340)" fill="none" font-size="10" font-family="sans-serif" text-anchor="middle" style="stroke-dasharray: 3,3; opacity: 0.3;"><path class="domain" stroke="currentColor" d="M0.5,-340V0.5H720.5V-340"></path><g class="tick" opacity="1" transform="translate(0.5,0)"><line stroke="currentColor" y2="-340"></line><text fill="currentColor" y="3" dy="0.71em"></text></g><g class="tick" opacity="1" transform="translate(40.77972027972028,0)"><line stroke="currentColor" y2="-340"></line><text fill="currentColor" y="3" dy="0.71em"></text></g><g class="tick" opacity="1" transform="translate(81.05944055944056,0)"><line stroke="currentColor" y2="-340"></line><text fill="currentColor" y="3" dy="0.71em"></text></g><g class="tick" opacity="1" transform="translate(121.33916083916084,0)"><line stroke="currentColor" y2="-340"></line><text fill="currentColor" y="3" dy="0.71em"></text></g><g class="tick" opacity="1" transform="translate(161.61888111888112,0)"><line stroke="currentColor" y2="-340"></line><text fill="currentColor" y="3" dy="0.71em"></text></g><g class="tick" opacity="1" transform="translate(201.89860139860141,0)"><line stroke="currentColor" y2="-340"></line><text fill="currentColor" y="3" dy="0.71em"></text></g><g class="tick" opacity="1" transform="translate(242.17832167832168,0)"><line stroke="currentColor" y2="-340"></line><text fill="currentColor" y="3" dy="0.71em"></text></g><g class="tick" opacity="1" transform="translate(282.458041958042,0)"><line stroke="currentColor" y2="-340"></line><text fill="currentColor" y="3" dy="0.71em"></text></g><g class="tick" opacity="1" transform="translate(322.73776223776224,0)"><line stroke="currentColor" y2="-340"></line><text fill="currentColor" y="3" dy="0.71em"></text></g><g class="tick" opacity="1" transform="translate(363.01748251748256,0)"><line stroke="currentColor" y2="-340"></line><text fill="currentColor" y="3" dy="0.71em"></text></g><g class="tick" opacity="1" transform="translate(403.29720279720283,0)"><line stroke="currentColor" y2="-340"></line><text fill="currentColor" y="3" dy="0.71em"></text></g><g class="tick" opacity="1" transform="translate(443.5769230769231,0)"><line stroke="currentColor" y2="-340"></line><text fill="currentColor" y="3" dy="0.71em"></text></g><g class="tick" opacity="1" transform="translate(483.85664335664336,0)"><line stroke="currentColor" y2="-340"></line><text fill="currentColor" y="3" dy="0.71em"></text></g><g class="tick" opacity="1" transform="translate(524.1363636363636,0)"><line stroke="currentColor" y2="-340"></line><text fill="currentColor" y="3" dy="0.71em"></text></g><g class="tick" opacity="1" transform="translate(564.416083916084,0)"><line stroke="currentColor" y2="-340"></line><text fill="currentColor" y="3" dy="0.71em"></text></g><g class="tick" opacity="1" transform="translate(604.6958041958042,0)"><line stroke="currentColor" y2="-340"></line><text fill="currentColor" y="3" dy="0.71em"></text></g><g class="tick" opacity="1" transform="translate(644.9755244755245,0)"><line stroke="currentColor" y2="-340"></line><text fill="currentColor" y="3" dy="0.71em"></text></g><g class="tick" opacity="1" transform="translate(685.2552447552448,0)"><line stroke="currentColor" y2="-340"></line><text fill="currentColor" y="3" dy="0.71em"></text></g></g><g class="grid" fill="none" font-size="10" font-family="sans-serif" text-anchor="end" style="stroke-dasharray: 3,3; opacity: 0.3;"><path class="domain" stroke="currentColor" d="M720,340.5H0.5V0.5H720"></path><g class="tick" opacity="1" transform="translate(0,340.5)"><line stroke="currentColor" x2="720"></line><text fill="currentColor" x="-3" dy="0.32em"></text></g><g class="tick" opacity="1" transform="translate(0,312.16666666666663)"><line stroke="currentColor" x2="720"></line><text fill="currentColor" x="-3" dy="0.32em"></text></g><g class="tick" opacity="1" transform="translate(0,283.83333333333326)"><line stroke="currentColor" x2="720"></line><text fill="currentColor" x="-3" dy="0.32em"></text></g><g class="tick" opacity="1" transform="translate(0,255.49999999999991)"><line stroke="currentColor" x2="720"></line><text fill="currentColor" x="-3" dy="0.32em"></text></g><g class="tick" opacity="1" transform="translate(0,227.16666666666654)"><line stroke="currentColor" x2="720"></line><text fill="currentColor" x="-3" dy="0.32em"></text></g><g class="tick" opacity="1" transform="translate(0,198.83333333333314)"><line stroke="currentColor" x2="720"></line><text fill="currentColor" x="-3" dy="0.32em"></text></g><g class="tick" opacity="1" transform="translate(0,170.4999999999998)"><line stroke="currentColor" x2="720"></line><text fill="currentColor" x="-3" dy="0.32em"></text></g><g class="tick" opacity="1" transform="translate(0,142.16666666666686)"><line stroke="currentColor" x2="720"></line><text fill="currentColor" x="-3" dy="0.32em"></text></g><g class="tick" opacity="1" transform="translate(0,113.83333333333346)"><line stroke="currentColor" x2="720"></line><text fill="currentColor" x="-3" dy="0.32em"></text></g><g class="tick" opacity="1" transform="translate(0,85.50000000000011)"><line stroke="currentColor" x2="720"></line><text fill="currentColor" x="-3" dy="0.32em"></text></g><g class="tick" opacity="1" transform="translate(0,57.16666666666673)"><line stroke="currentColor" x2="720"></line><text fill="currentColor" x="-3" dy="0.32em"></text></g><g class="tick" opacity="1" transform="translate(0,28.833333333333385)"><line stroke="currentColor" x2="720"></line><text fill="currentColor" x="-3" dy="0.32em"></text></g><g class="tick" opacity="1" transform="translate(0,0.5)"><line stroke="currentColor" x2="720"></line><text fill="currentColor" x="-3" dy="0.32em"></text></g></g></g><text x="400" y="10" text-anchor="middle" style="font-size: 16px; font-weight: bold; fill: #333;">OKX USDT Lending Rate - Current Month</text></svg>