<svg width="800" height="400" xmlns="http://www.w3.org/2000/svg"><g transform="translate(50,20)"><g transform="translate(0,340)" fill="none" font-size="10" font-family="sans-serif" text-anchor="middle"><path class="domain" stroke="currentColor" d="M0.5,6V0.5H720.5V6"></path><g class="tick" opacity="1" transform="translate(0.5,0)"><line stroke="currentColor" y2="6"></line><text fill="currentColor" y="9" dy=".15em" style="text-anchor: end;" dx="-.8em" transform="rotate(-45)">12/01</text></g><g class="tick" opacity="1" transform="translate(46.33554376657825,0)"><line stroke="currentColor" y2="6"></line><text fill="currentColor" y="9" dy=".15em" style="text-anchor: end;" dx="-.8em" transform="rotate(-45)">12/02</text></g><g class="tick" opacity="1" transform="translate(92.1710875331565,0)"><line stroke="currentColor" y2="6"></line><text fill="currentColor" y="9" dy=".15em" style="text-anchor: end;" dx="-.8em" transform="rotate(-45)">12/03</text></g><g class="tick" opacity="1" transform="translate(138.00663129973475,0)"><line stroke="currentColor" y2="6"></line><text fill="currentColor" y="9" dy=".15em" style="text-anchor: end;" dx="-.8em" transform="rotate(-45)">12/04</text></g><g class="tick" opacity="1" transform="translate(183.842175066313,0)"><line stroke="currentColor" y2="6"></line><text fill="currentColor" y="9" dy=".15em" style="text-anchor: end;" dx="-.8em" transform="rotate(-45)">12/05</text></g><g class="tick" opacity="1" transform="translate(229.67771883289123,0)"><line stroke="currentColor" y2="6"></line><text fill="currentColor" y="9" dy=".15em" style="text-anchor: end;" dx="-.8em" transform="rotate(-45)">12/06</text></g><g class="tick" opacity="1" transform="translate(275.5132625994695,0)"><line stroke="currentColor" y2="6"></line><text fill="currentColor" y="9" dy=".15em" style="text-anchor: end;" dx="-.8em" transform="rotate(-45)">12/07</text></g><g class="tick" opacity="1" transform="translate(321.34880636604777,0)"><line stroke="currentColor" y2="6"></line><text fill="currentColor" y="9" dy=".15em" style="text-anchor: end;" dx="-.8em" transform="rotate(-45)">12/08</text></g><g class="tick" opacity="1" transform="translate(367.184350132626,0)"><line stroke="currentColor" y2="6"></line><text fill="currentColor" y="9" dy=".15em" style="text-anchor: end;" dx="-.8em" transform="rotate(-45)">12/09</text></g><g class="tick" opacity="1" transform="translate(413.01989389920425,0)"><line stroke="currentColor" y2="6"></line><text fill="currentColor" y="9" dy=".15em" style="text-anchor: end;" dx="-.8em" transform="rotate(-45)">12/10</text></g><g class="tick" opacity="1" transform="translate(458.85543766578246,0)"><line stroke="currentColor" y2="6"></line><text fill="currentColor" y="9" dy=".15em" style="text-anchor: end;" dx="-.8em" transform="rotate(-45)">12/11</text></g><g class="tick" opacity="1" transform="translate(504.69098143236073,0)"><line stroke="currentColor" y2="6"></line><text fill="currentColor" y="9" dy=".15em" style="text-anchor: end;" dx="-.8em" transform="rotate(-45)">12/12</text></g><g class="tick" opacity="1" transform="translate(550.526525198939,0)"><line stroke="currentColor" y2="6"></line><text fill="currentColor" y="9" dy=".15em" style="text-anchor: end;" dx="-.8em" transform="rotate(-45)">12/13</text></g><g class="tick" opacity="1" transform="translate(596.3620689655172,0)"><line stroke="currentColor" y2="6"></line><text fill="currentColor" y="9" dy=".15em" style="text-anchor: end;" dx="-.8em" transform="rotate(-45)">12/14</text></g><g class="tick" opacity="1" transform="translate(642.1976127320955,0)"><line stroke="currentColor" y2="6"></line><text fill="currentColor" y="9" dy=".15em" style="text-anchor: end;" dx="-.8em" transform="rotate(-45)">12/15</text></g><g class="tick" opacity="1" transform="translate(688.0331564986737,0)"><line stroke="currentColor" y2="6"></line><text fill="currentColor" y="9" dy=".15em" style="text-anchor: end;" dx="-.8em" transform="rotate(-45)">12/16</text></g></g><g fill="none" font-size="10" font-family="sans-serif" text-anchor="end"><path class="domain" stroke="currentColor" d="M-6,340.5H0.5V0.5H-6"></path><g class="tick" opacity="1" transform="translate(0,170.5)"><line stroke="currentColor" x2="-6"></line><text fill="currentColor" x="-9" dy="0.32em">3.50%</text></g></g><text transform="rotate(-90)" y="-50" x="-170" dy="1em" style="text-anchor: middle; font-size: 12px; fill: #666;">Pre Rate (%)</text><text transform="translate(360, 380)" style="text-anchor: middle; font-size: 12px; fill: #666;">Time (UTC)</text><path fill="none" stroke="#2563eb" stroke-width="2" d="M0,170C0.637,170,1.273,170,1.91,170C2.546,170,3.183,170,3.82,170C4.456,170,5.093,170,5.729,170C6.366,170,7.003,170,7.639,170C8.276,170,8.912,170,9.549,170C10.186,170,10.822,170,11.459,170C12.095,170,12.732,170,13.369,170C14.005,170,14.642,170,15.279,170C15.915,170,16.552,170,17.188,170C17.825,170,18.462,170,19.098,170C19.735,170,20.371,170,21.008,170C21.645,170,22.281,170,22.918,170C23.554,170,24.191,170,24.828,170C25.464,170,26.101,170,26.737,170C27.374,170,28.011,170,28.647,170C29.284,170,29.92,170,30.557,170C31.194,170,31.83,170,32.467,170C33.103,170,33.74,170,34.377,170C35.013,170,35.65,170,36.286,170C36.923,170,37.56,170,38.196,170C38.833,170,39.469,170,40.106,170C40.743,170,41.379,170,42.016,170C42.653,170,43.289,170,43.926,170C44.562,170,45.199,170,45.836,170C46.472,170,47.109,170,47.745,170C48.382,170,49.019,170,49.655,170C50.292,170,50.928,170,51.565,170C52.202,170,52.838,170,53.475,170C54.111,170,54.748,170,55.385,170C56.021,170,56.658,170,57.294,170C57.931,170,58.568,170,59.204,170C59.841,170,60.477,170,61.114,170C61.751,170,62.387,170,63.024,170C63.66,170,64.297,170,64.934,170C65.57,170,66.207,170,66.844,170C67.48,170,68.117,170,68.753,170C69.39,170,70.027,170,70.663,170C71.3,170,71.936,170,72.573,170C73.21,170,73.846,170,74.483,170C75.119,170,75.756,170,76.393,170C77.029,170,77.666,170,78.302,170C78.939,170,79.576,170,80.212,170C80.849,170,81.485,170,82.122,170C82.759,170,83.395,170,84.032,170C84.668,170,85.305,170,85.942,170C86.578,170,87.215,170,87.851,170C88.488,170,89.125,170,89.761,170C90.398,170,91.034,170,91.671,170C92.308,170,92.944,170,93.581,170C94.218,170,94.854,170,95.491,170C96.127,170,96.764,170,97.401,170C98.037,170,98.674,170,99.31,170C99.947,170,100.584,170,101.22,170C101.857,170,102.493,170,103.13,170C103.767,170,104.403,170,105.04,170C105.676,170,106.313,170,106.95,170C107.586,170,108.223,170,108.859,170C109.496,170,110.133,170,110.769,170C111.406,170,112.042,170,112.679,170C113.316,170,113.952,170,114.589,170C115.225,170,115.862,170,116.499,170C117.135,170,117.772,170,118.408,170C119.045,170,119.682,170,120.318,170C120.955,170,121.592,170,122.228,170C122.865,170,123.501,170,124.138,170C124.775,170,125.411,170,126.048,170C126.684,170,127.321,170,127.958,170C128.594,170,129.231,170,129.867,170C130.504,170,131.141,170,131.777,170C132.414,170,133.05,170,133.687,170C134.324,170,134.96,170,135.597,170C136.233,170,136.87,170,137.507,170C138.143,170,138.78,170,139.416,170C140.053,170,140.69,170,141.326,170C141.963,170,142.599,170,143.236,170C143.873,170,144.509,170,145.146,170C145.782,170,146.419,170,147.056,170C147.692,170,148.329,170,148.966,170C149.602,170,150.239,170,150.875,170C151.512,170,152.149,170,152.785,170C153.422,170,154.058,170,154.695,170C155.332,170,155.968,170,156.605,170C157.241,170,157.878,170,158.515,170C159.151,170,159.788,170,160.424,170C161.061,170,161.698,170,162.334,170C162.971,170,163.607,170,164.244,170C164.881,170,165.517,170,166.154,170C166.79,170,167.427,170,168.064,170C168.7,170,169.337,170,169.973,170C170.61,170,171.247,170,171.883,170C172.52,170,173.156,170,173.793,170C174.43,170,175.066,170,175.703,170C176.34,170,176.976,170,177.613,170C178.249,170,178.886,170,179.523,170C180.159,170,180.796,170,181.432,170C182.069,170,182.706,170,183.342,170C183.979,170,184.615,170,185.252,170C185.889,170,186.525,170,187.162,170C187.798,170,188.435,170,189.072,170C189.708,170,190.345,170,190.981,170C191.618,170,192.255,170,192.891,170C193.528,170,194.164,170,194.801,170C195.438,170,196.074,170,196.711,170C197.347,170,197.984,170,198.621,170C199.257,170,199.894,170,200.531,170C201.167,170,201.804,170,202.44,170C203.077,170,203.714,170,204.35,170C204.987,170,205.623,170,206.26,170C206.897,170,207.533,170,208.17,170C208.806,170,209.443,170,210.08,170C210.716,170,211.353,170,211.989,170C212.626,170,213.263,170,213.899,170C214.536,170,215.172,170,215.809,170C216.446,170,217.082,170,217.719,170C218.355,170,218.992,170,219.629,170C220.265,170,220.902,170,221.538,170C222.175,170,222.812,170,223.448,170C224.085,170,224.721,170,225.358,170C225.995,170,226.631,170,227.268,170C227.905,170,228.541,170,229.178,170C229.814,170,230.451,170,231.088,170C231.724,170,232.361,170,232.997,170C233.634,170,234.271,170,234.907,170C235.544,170,236.18,170,236.817,170C237.454,170,238.09,170,238.727,170C239.363,170,240,170,240.637,170C241.273,170,241.91,170,242.546,170C243.183,170,243.82,170,244.456,170C245.093,170,245.729,170,246.366,170C247.003,170,247.639,170,248.276,170C248.912,170,249.549,170,250.186,170C250.822,170,251.459,170,252.095,170C252.732,170,253.369,170,254.005,170C254.642,170,255.279,170,255.915,170C256.552,170,257.188,170,257.825,170C258.462,170,259.098,170,259.735,170C260.371,170,261.008,170,261.645,170C262.281,170,262.918,170,263.554,170C264.191,170,264.828,170,265.464,170C266.101,170,266.737,170,267.374,170C268.011,170,268.647,170,269.284,170C269.92,170,270.557,170,271.194,170C271.83,170,272.467,170,273.103,170C273.74,170,274.377,170,275.013,170C275.65,170,276.286,170,276.923,170C277.56,170,278.196,170,278.833,170C279.469,170,280.106,170,280.743,170C281.379,170,282.016,170,282.653,170C283.289,170,283.926,170,284.562,170C285.199,170,285.836,170,286.472,170C287.109,170,287.745,170,288.382,170C289.019,170,289.655,170,290.292,170C290.928,170,291.565,170,292.202,170C292.838,170,293.475,170,294.111,170C294.748,170,295.385,170,296.021,170C296.658,170,297.294,170,297.931,170C298.568,170,299.204,170,299.841,170C300.477,170,301.114,170,301.751,170C302.387,170,303.024,170,303.66,170C304.297,170,304.934,170,305.57,170C306.207,170,306.844,170,307.48,170C308.117,170,308.753,170,309.39,170C310.027,170,310.663,170,311.3,170C311.936,170,312.573,170,313.21,170C313.846,170,314.483,170,315.119,170C315.756,170,316.393,170,317.029,170C317.666,170,318.302,170,318.939,170C319.576,170,320.212,170,320.849,170C321.485,170,322.122,170,322.759,170C323.395,170,324.032,170,324.668,170C325.305,170,325.942,170,326.578,170C327.215,170,327.851,170,328.488,170C329.125,170,329.761,170,330.398,170C331.034,170,331.671,170,332.308,170C332.944,170,333.581,170,334.218,170C334.854,170,335.491,170,336.127,170C336.764,170,337.401,170,338.037,170C338.674,170,339.31,170,339.947,170C340.584,170,341.22,170,341.857,170C342.493,170,343.13,170,343.767,170C344.403,170,345.04,170,345.676,170C346.313,170,346.95,170,347.586,170C348.223,170,348.859,170,349.496,170C350.133,170,350.769,170,351.406,170C352.042,170,352.679,170,353.316,170C353.952,170,354.589,170,355.225,170C355.862,170,356.499,170,357.135,170C357.772,170,358.408,170,359.045,170C359.682,170,360.318,170,360.955,170C361.592,170,362.228,170,362.865,170C363.501,170,364.138,170,364.775,170C365.411,170,366.048,170,366.684,170C367.321,170,367.958,170,368.594,170C369.231,170,369.867,170,370.504,170C371.141,170,371.777,170,372.414,170C373.05,170,373.687,170,374.324,170C374.96,170,375.597,170,376.233,170C376.87,170,377.507,170,378.143,170C378.78,170,379.416,170,380.053,170C380.69,170,381.326,170,381.963,170C382.599,170,383.236,170,383.873,170C384.509,170,385.146,170,385.782,170C386.419,170,387.056,170,387.692,170C388.329,170,388.966,170,389.602,170C390.239,170,390.875,170,391.512,170C392.149,170,392.785,170,393.422,170C394.058,170,394.695,170,395.332,170C395.968,170,396.605,170,397.241,170C397.878,170,398.515,170,399.151,170C399.788,170,400.424,170,401.061,170C401.698,170,402.334,170,402.971,170C403.607,170,404.244,170,404.881,170C405.517,170,406.154,170,406.79,170C407.427,170,408.064,170,408.7,170C409.337,170,409.973,170,410.61,170C411.247,170,411.883,170,412.52,170C413.156,170,413.793,170,414.43,170C415.066,170,415.703,170,416.34,170C416.976,170,417.613,170,418.249,170C418.886,170,419.523,170,420.159,170C420.796,170,421.432,170,422.069,170C422.706,170,423.342,170,423.979,170C424.615,170,425.252,170,425.889,170C426.525,170,427.162,170,427.798,170C428.435,170,429.072,170,429.708,170C430.345,170,430.981,170,431.618,170C432.255,170,432.891,170,433.528,170C434.164,170,434.801,170,435.438,170C436.074,170,436.711,170,437.347,170C437.984,170,438.621,170,439.257,170C439.894,170,440.531,170,441.167,170C441.804,170,442.44,170,443.077,170C443.714,170,444.35,170,444.987,170C445.623,170,446.26,170,446.897,170C447.533,170,448.17,170,448.806,170C449.443,170,450.08,170,450.716,170C451.353,170,451.989,170,452.626,170C453.263,170,453.899,170,454.536,170C455.172,170,455.809,170,456.446,170C457.082,170,457.719,170,458.355,170C458.992,170,459.629,170,460.265,170C460.902,170,461.538,170,462.175,170C462.812,170,463.448,170,464.085,170C464.721,170,465.358,170,465.995,170C466.631,170,467.268,170,467.905,170C468.541,170,469.178,170,469.814,170C470.451,170,471.088,170,471.724,170C472.361,170,472.997,170,473.634,170C474.271,170,474.907,170,475.544,170C476.18,170,476.817,170,477.454,170C478.09,170,478.727,170,479.363,170C480,170,480.637,170,481.273,170C481.91,170,482.546,170,483.183,170C483.82,170,484.456,170,485.093,170C485.729,170,486.366,170,487.003,170C487.639,170,488.276,170,488.912,170C489.549,170,490.186,170,490.822,170C491.459,170,492.095,170,492.732,170C493.369,170,494.005,170,494.642,170C495.279,170,495.915,170,496.552,170C497.188,170,497.825,170,498.462,170C499.098,170,499.735,170,500.371,170C501.008,170,501.645,170,502.281,170C502.918,170,503.554,170,504.191,170C504.828,170,505.464,170,506.101,170C506.737,170,507.374,170,508.011,170C508.647,170,509.284,170,509.92,170C510.557,170,511.194,170,511.83,170C512.467,170,513.103,170,513.74,170C514.377,170,515.013,170,515.65,170C516.286,170,516.923,170,517.56,170C518.196,170,518.833,170,519.469,170C520.106,170,520.743,170,521.379,170C522.016,170,522.653,170,523.289,170C523.926,170,524.562,170,525.199,170C525.836,170,526.472,170,527.109,170C527.745,170,528.382,170,529.019,170C529.655,170,530.292,170,530.928,170C531.565,170,532.202,170,532.838,170C533.475,170,534.111,170,534.748,170C535.385,170,536.021,170,536.658,170C537.294,170,537.931,170,538.568,170C539.204,170,539.841,170,540.477,170C541.114,170,541.751,170,542.387,170C543.024,170,543.66,170,544.297,170C544.934,170,545.57,170,546.207,170C546.844,170,547.48,170,548.117,170C548.753,170,549.39,170,550.027,170C550.663,170,551.3,170,551.936,170C552.573,170,553.21,170,553.846,170C554.483,170,555.119,170,555.756,170C556.393,170,557.029,170,557.666,170C558.302,170,558.939,170,559.576,170C560.212,170,560.849,170,561.485,170C562.122,170,562.759,170,563.395,170C564.032,170,564.668,170,565.305,170C565.942,170,566.578,170,567.215,170C567.851,170,568.488,170,569.125,170C569.761,170,570.398,170,571.034,170C571.671,170,572.308,170,572.944,170C573.581,170,574.218,170,574.854,170C575.491,170,576.127,170,576.764,170C577.401,170,578.037,170,578.674,170C579.31,170,579.947,170,580.584,170C581.22,170,581.857,170,582.493,170C583.13,170,583.767,170,584.403,170C585.04,170,585.676,170,586.313,170C586.95,170,587.586,170,588.223,170C588.859,170,589.496,170,590.133,170C590.769,170,591.406,170,592.042,170C592.679,170,593.316,170,593.952,170C594.589,170,595.225,170,595.862,170C596.499,170,597.135,170,597.772,170C598.408,170,599.045,170,599.682,170C600.318,170,600.955,170,601.592,170C602.228,170,602.865,170,603.501,170C604.138,170,604.775,170,605.411,170C606.048,170,606.684,170,607.321,170C607.958,170,608.594,170,609.231,170C609.867,170,610.504,170,611.141,170C611.777,170,612.414,170,613.05,170C613.687,170,614.324,170,614.96,170C615.597,170,616.233,170,616.87,170C617.507,170,618.143,170,618.78,170C619.416,170,620.053,170,620.69,170C621.326,170,621.963,170,622.599,170C623.236,170,623.873,170,624.509,170C625.146,170,625.782,170,626.419,170C627.056,170,627.692,170,628.329,170C628.966,170,629.602,170,630.239,170C630.875,170,631.512,170,632.149,170C632.785,170,633.422,170,634.058,170C634.695,170,635.332,170,635.968,170C636.605,170,637.241,170,637.878,170C638.515,170,639.151,170,639.788,170C640.424,170,641.061,170,641.698,170C642.334,170,642.971,170,643.607,170C644.244,170,644.881,170,645.517,170C646.154,170,646.79,170,647.427,170C648.064,170,648.7,170,649.337,170C649.973,170,650.61,170,651.247,170C651.883,170,652.52,170,653.156,170C653.793,170,654.43,170,655.066,170C655.703,170,656.34,170,656.976,170C657.613,170,658.249,170,658.886,170C659.523,170,660.159,170,660.796,170C661.432,170,662.069,170,662.706,170C663.342,170,663.979,170,664.615,170C665.252,170,665.889,170,666.525,170C667.162,170,667.798,170,668.435,170C669.072,170,669.708,170,670.345,170C670.981,170,671.618,170,672.255,170C672.891,170,673.528,170,674.164,170C674.801,170,675.438,170,676.074,170C676.711,170,677.347,170,677.984,170C678.621,170,679.257,170,679.894,170C680.531,170,681.167,170,681.804,170C682.44,170,683.077,170,683.714,170C684.35,170,684.987,170,685.623,170C686.26,170,686.897,170,687.533,170C688.17,170,688.806,170,689.443,170C690.08,170,690.716,170,691.353,170C691.989,170,692.626,170,693.263,170C693.899,170,694.536,170,695.172,170C695.809,170,696.446,170,697.082,170C697.719,170,698.355,170,698.992,170C699.629,170,700.265,170,700.902,170C701.538,170,702.175,170,702.812,170C703.448,170,704.085,170,704.721,170C705.358,170,705.995,170,706.631,170C707.268,170,707.905,170,708.541,170C709.178,170,709.814,170,710.451,170C711.088,170,711.724,170,712.361,170C712.997,170,713.634,170,714.271,170C714.907,170,715.544,170,716.18,170C716.817,170,717.454,170,718.09,170C718.727,170,719.363,170,720,170"></path><circle class="dot" cx="0" cy="170" r="3" fill="#2563eb"></circle><circle class="dot" cx="1.909814323607427" cy="170" r="3" fill="#2563eb"></circle><circle class="dot" cx="3.819628647214854" cy="170" r="3" fill="#2563eb"></circle><circle class="dot" cx="5.729442970822281" cy="170" r="3" fill="#2563eb"></circle><circle class="dot" cx="7.639257294429708" cy="170" r="3" fill="#2563eb"></circle><circle class="dot" cx="9.549071618037136" cy="170" r="3" fill="#2563eb"></circle><circle class="dot" cx="11.458885941644562" cy="170" r="3" fill="#2563eb"></circle><circle class="dot" cx="13.36870026525199" cy="170" r="3" fill="#2563eb"></circle><circle class="dot" cx="15.278514588859416" cy="170" r="3" fill="#2563eb"></circle><circle class="dot" cx="17.188328912466844" cy="170" r="3" fill="#2563eb"></circle><circle class="dot" cx="19.09814323607427" cy="170" r="3" fill="#2563eb"></circle><circle class="dot" cx="21.0079575596817" cy="170" r="3" fill="#2563eb"></circle><circle class="dot" cx="22.917771883289124" cy="170" r="3" fill="#2563eb"></circle><circle class="dot" cx="24.82758620689655" cy="170" r="3" fill="#2563eb"></circle><circle class="dot" cx="26.73740053050398" cy="170" r="3" fill="#2563eb"></circle><circle class="dot" cx="28.647214854111404" cy="170" r="3" fill="#2563eb"></circle><circle class="dot" cx="30.55702917771883" cy="170" r="3" fill="#2563eb"></circle><circle class="dot" cx="32.46684350132626" cy="170" r="3" fill="#2563eb"></circle><circle class="dot" cx="34.37665782493369" cy="170" r="3" fill="#2563eb"></circle><circle class="dot" cx="36.286472148541115" cy="170" r="3" fill="#2563eb"></circle><circle class="dot" cx="38.19628647214854" cy="170" r="3" fill="#2563eb"></circle><circle class="dot" cx="40.10610079575597" cy="170" r="3" fill="#2563eb"></circle><circle class="dot" cx="42.0159151193634" cy="170" r="3" fill="#2563eb"></circle><circle class="dot" cx="43.92572944297082" cy="170" r="3" fill="#2563eb"></circle><circle class="dot" cx="45.83554376657825" cy="170" r="3" fill="#2563eb"></circle><circle class="dot" cx="47.74535809018568" cy="170" r="3" fill="#2563eb"></circle><circle class="dot" cx="49.6551724137931" cy="170" r="3" fill="#2563eb"></circle><circle class="dot" cx="51.56498673740053" cy="170" r="3" fill="#2563eb"></circle><circle class="dot" cx="53.47480106100796" cy="170" r="3" fill="#2563eb"></circle><circle class="dot" cx="55.38461538461539" cy="170" r="3" fill="#2563eb"></circle><circle class="dot" cx="57.29442970822281" cy="170" r="3" fill="#2563eb"></circle><circle class="dot" cx="59.20424403183024" cy="170" r="3" fill="#2563eb"></circle><circle class="dot" cx="61.11405835543766" cy="170" r="3" fill="#2563eb"></circle><circle class="dot" cx="63.02387267904509" cy="170" r="3" fill="#2563eb"></circle><circle class="dot" cx="64.93368700265252" cy="170" r="3" fill="#2563eb"></circle><circle class="dot" cx="66.84350132625995" cy="170" r="3" fill="#2563eb"></circle><circle class="dot" cx="68.75331564986737" cy="170" r="3" fill="#2563eb"></circle><circle class="dot" cx="70.6631299734748" cy="170" r="3" fill="#2563eb"></circle><circle class="dot" cx="72.57294429708223" cy="170" r="3" fill="#2563eb"></circle><circle class="dot" cx="74.48275862068965" cy="170" r="3" fill="#2563eb"></circle><circle class="dot" cx="76.39257294429709" cy="170" r="3" fill="#2563eb"></circle><circle class="dot" cx="78.3023872679045" cy="170" r="3" fill="#2563eb"></circle><circle class="dot" cx="80.21220159151194" cy="170" r="3" fill="#2563eb"></circle><circle class="dot" cx="82.12201591511936" cy="170" r="3" fill="#2563eb"></circle><circle class="dot" cx="84.0318302387268" cy="170" r="3" fill="#2563eb"></circle><circle class="dot" cx="85.94164456233422" cy="170" r="3" fill="#2563eb"></circle><circle class="dot" cx="87.85145888594164" cy="170" r="3" fill="#2563eb"></circle><circle class="dot" cx="89.76127320954907" cy="170" r="3" fill="#2563eb"></circle><circle class="dot" cx="91.6710875331565" cy="170" r="3" fill="#2563eb"></circle><circle class="dot" cx="93.58090185676392" cy="170" r="3" fill="#2563eb"></circle><circle class="dot" cx="95.49071618037136" cy="170" r="3" fill="#2563eb"></circle><circle class="dot" cx="97.40053050397879" cy="170" r="3" fill="#2563eb"></circle><circle class="dot" cx="99.3103448275862" cy="170" r="3" fill="#2563eb"></circle><circle class="dot" cx="101.22015915119363" cy="170" r="3" fill="#2563eb"></circle><circle class="dot" cx="103.12997347480106" cy="170" r="3" fill="#2563eb"></circle><circle class="dot" cx="105.0397877984085" cy="170" r="3" fill="#2563eb"></circle><circle class="dot" cx="106.94960212201592" cy="170" r="3" fill="#2563eb"></circle><circle class="dot" cx="108.85941644562334" cy="170" r="3" fill="#2563eb"></circle><circle class="dot" cx="110.76923076923077" cy="170" r="3" fill="#2563eb"></circle><circle class="dot" cx="112.6790450928382" cy="170" r="3" fill="#2563eb"></circle><circle class="dot" cx="114.58885941644562" cy="170" r="3" fill="#2563eb"></circle><circle class="dot" cx="116.49867374005306" cy="170" r="3" fill="#2563eb"></circle><circle class="dot" cx="118.40848806366049" cy="170" r="3" fill="#2563eb"></circle><circle class="dot" cx="120.3183023872679" cy="170" r="3" fill="#2563eb"></circle><circle class="dot" cx="122.22811671087533" cy="170" r="3" fill="#2563eb"></circle><circle class="dot" cx="124.13793103448276" cy="170" r="3" fill="#2563eb"></circle><circle class="dot" cx="126.04774535809018" cy="170" r="3" fill="#2563eb"></circle><circle class="dot" cx="127.9575596816976" cy="170" r="3" fill="#2563eb"></circle><circle class="dot" cx="129.86737400530504" cy="170" r="3" fill="#2563eb"></circle><circle class="dot" cx="131.77718832891247" cy="170" r="3" fill="#2563eb"></circle><circle class="dot" cx="133.6870026525199" cy="170" r="3" fill="#2563eb"></circle><circle class="dot" cx="135.59681697612731" cy="170" r="3" fill="#2563eb"></circle><circle class="dot" cx="137.50663129973475" cy="170" r="3" fill="#2563eb"></circle><circle class="dot" cx="139.41644562334218" cy="170" r="3" fill="#2563eb"></circle><circle class="dot" cx="141.3262599469496" cy="170" r="3" fill="#2563eb"></circle><circle class="dot" cx="143.23607427055703" cy="170" r="3" fill="#2563eb"></circle><circle class="dot" cx="145.14588859416446" cy="170" r="3" fill="#2563eb"></circle><circle class="dot" cx="147.0557029177719" cy="170" r="3" fill="#2563eb"></circle><circle class="dot" cx="148.9655172413793" cy="170" r="3" fill="#2563eb"></circle><circle class="dot" cx="150.87533156498674" cy="170" r="3" fill="#2563eb"></circle><circle class="dot" cx="152.78514588859417" cy="170" r="3" fill="#2563eb"></circle><circle class="dot" cx="154.69496021220158" cy="170" r="3" fill="#2563eb"></circle><circle class="dot" cx="156.604774535809" cy="170" r="3" fill="#2563eb"></circle><circle class="dot" cx="158.51458885941645" cy="170" r="3" fill="#2563eb"></circle><circle class="dot" cx="160.42440318302388" cy="170" r="3" fill="#2563eb"></circle><circle class="dot" cx="162.3342175066313" cy="170" r="3" fill="#2563eb"></circle><circle class="dot" cx="164.24403183023873" cy="170" r="3" fill="#2563eb"></circle><circle class="dot" cx="166.15384615384616" cy="170" r="3" fill="#2563eb"></circle><circle class="dot" cx="168.0636604774536" cy="170" r="3" fill="#2563eb"></circle><circle class="dot" cx="169.973474801061" cy="170" r="3" fill="#2563eb"></circle><circle class="dot" cx="171.88328912466844" cy="170" r="3" fill="#2563eb"></circle><circle class="dot" cx="173.79310344827587" cy="170" r="3" fill="#2563eb"></circle><circle class="dot" cx="175.70291777188328" cy="170" r="3" fill="#2563eb"></circle><circle class="dot" cx="177.6127320954907" cy="170" r="3" fill="#2563eb"></circle><circle class="dot" cx="179.52254641909815" cy="170" r="3" fill="#2563eb"></circle><circle class="dot" cx="181.43236074270558" cy="170" r="3" fill="#2563eb"></circle><circle class="dot" cx="183.342175066313" cy="170" r="3" fill="#2563eb"></circle><circle class="dot" cx="185.25198938992042" cy="170" r="3" fill="#2563eb"></circle><circle class="dot" cx="187.16180371352783" cy="170" r="3" fill="#2563eb"></circle><circle class="dot" cx="189.07161803713527" cy="170" r="3" fill="#2563eb"></circle><circle class="dot" cx="190.98143236074273" cy="170" r="3" fill="#2563eb"></circle><circle class="dot" cx="192.89124668435014" cy="170" r="3" fill="#2563eb"></circle><circle class="dot" cx="194.80106100795757" cy="170" r="3" fill="#2563eb"></circle><circle class="dot" cx="196.71087533156498" cy="170" r="3" fill="#2563eb"></circle><circle class="dot" cx="198.6206896551724" cy="170" r="3" fill="#2563eb"></circle><circle class="dot" cx="200.53050397877982" cy="170" r="3" fill="#2563eb"></circle><circle class="dot" cx="202.44031830238725" cy="170" r="3" fill="#2563eb"></circle><circle class="dot" cx="204.3501326259947" cy="170" r="3" fill="#2563eb"></circle><circle class="dot" cx="206.25994694960212" cy="170" r="3" fill="#2563eb"></circle><circle class="dot" cx="208.16976127320956" cy="170" r="3" fill="#2563eb"></circle><circle class="dot" cx="210.079575596817" cy="170" r="3" fill="#2563eb"></circle><circle class="dot" cx="211.9893899204244" cy="170" r="3" fill="#2563eb"></circle><circle class="dot" cx="213.89920424403184" cy="170" r="3" fill="#2563eb"></circle><circle class="dot" cx="215.80901856763924" cy="170" r="3" fill="#2563eb"></circle><circle class="dot" cx="217.71883289124668" cy="170" r="3" fill="#2563eb"></circle><circle class="dot" cx="219.62864721485414" cy="170" r="3" fill="#2563eb"></circle><circle class="dot" cx="221.53846153846155" cy="170" r="3" fill="#2563eb"></circle><circle class="dot" cx="223.44827586206898" cy="170" r="3" fill="#2563eb"></circle><circle class="dot" cx="225.3580901856764" cy="170" r="3" fill="#2563eb"></circle><circle class="dot" cx="227.26790450928382" cy="170" r="3" fill="#2563eb"></circle><circle class="dot" cx="229.17771883289123" cy="170" r="3" fill="#2563eb"></circle><circle class="dot" cx="231.08753315649867" cy="170" r="3" fill="#2563eb"></circle><circle class="dot" cx="232.99734748010613" cy="170" r="3" fill="#2563eb"></circle><circle class="dot" cx="234.90716180371354" cy="170" r="3" fill="#2563eb"></circle><circle class="dot" cx="236.81697612732097" cy="170" r="3" fill="#2563eb"></circle><circle class="dot" cx="238.72679045092838" cy="170" r="3" fill="#2563eb"></circle><circle class="dot" cx="240.6366047745358" cy="170" r="3" fill="#2563eb"></circle><circle class="dot" cx="242.54641909814322" cy="170" r="3" fill="#2563eb"></circle><circle class="dot" cx="244.45623342175065" cy="170" r="3" fill="#2563eb"></circle><circle class="dot" cx="246.36604774535806" cy="170" r="3" fill="#2563eb"></circle><circle class="dot" cx="248.27586206896552" cy="170" r="3" fill="#2563eb"></circle><circle class="dot" cx="250.18567639257296" cy="170" r="3" fill="#2563eb"></circle><circle class="dot" cx="252.09549071618036" cy="170" r="3" fill="#2563eb"></circle><circle class="dot" cx="254.0053050397878" cy="170" r="3" fill="#2563eb"></circle><circle class="dot" cx="255.9151193633952" cy="170" r="3" fill="#2563eb"></circle><circle class="dot" cx="257.82493368700267" cy="170" r="3" fill="#2563eb"></circle><circle class="dot" cx="259.7347480106101" cy="170" r="3" fill="#2563eb"></circle><circle class="dot" cx="261.64456233421754" cy="170" r="3" fill="#2563eb"></circle><circle class="dot" cx="263.55437665782495" cy="170" r="3" fill="#2563eb"></circle><circle class="dot" cx="265.46419098143235" cy="170" r="3" fill="#2563eb"></circle><circle class="dot" cx="267.3740053050398" cy="170" r="3" fill="#2563eb"></circle><circle class="dot" cx="269.2838196286472" cy="170" r="3" fill="#2563eb"></circle><circle class="dot" cx="271.19363395225463" cy="170" r="3" fill="#2563eb"></circle><circle class="dot" cx="273.10344827586204" cy="170" r="3" fill="#2563eb"></circle><circle class="dot" cx="275.0132625994695" cy="170" r="3" fill="#2563eb"></circle><circle class="dot" cx="276.92307692307696" cy="170" r="3" fill="#2563eb"></circle><circle class="dot" cx="278.83289124668437" cy="170" r="3" fill="#2563eb"></circle><circle class="dot" cx="280.7427055702918" cy="170" r="3" fill="#2563eb"></circle><circle class="dot" cx="282.6525198938992" cy="170" r="3" fill="#2563eb"></circle><circle class="dot" cx="284.56233421750665" cy="170" r="3" fill="#2563eb"></circle><circle class="dot" cx="286.47214854111405" cy="170" r="3" fill="#2563eb"></circle><circle class="dot" cx="288.38196286472146" cy="170" r="3" fill="#2563eb"></circle><circle class="dot" cx="290.2917771883289" cy="170" r="3" fill="#2563eb"></circle><circle class="dot" cx="292.20159151193633" cy="170" r="3" fill="#2563eb"></circle><circle class="dot" cx="294.1114058355438" cy="170" r="3" fill="#2563eb"></circle><circle class="dot" cx="296.0212201591512" cy="170" r="3" fill="#2563eb"></circle><circle class="dot" cx="297.9310344827586" cy="170" r="3" fill="#2563eb"></circle><circle class="dot" cx="299.840848806366" cy="170" r="3" fill="#2563eb"></circle><circle class="dot" cx="301.7506631299735" cy="170" r="3" fill="#2563eb"></circle><circle class="dot" cx="303.66047745358094" cy="170" r="3" fill="#2563eb"></circle><circle class="dot" cx="305.57029177718834" cy="170" r="3" fill="#2563eb"></circle><circle class="dot" cx="307.48010610079575" cy="170" r="3" fill="#2563eb"></circle><circle class="dot" cx="309.38992042440316" cy="170" r="3" fill="#2563eb"></circle><circle class="dot" cx="311.2997347480106" cy="170" r="3" fill="#2563eb"></circle><circle class="dot" cx="313.209549071618" cy="170" r="3" fill="#2563eb"></circle><circle class="dot" cx="315.11936339522543" cy="170" r="3" fill="#2563eb"></circle><circle class="dot" cx="317.0291777188329" cy="170" r="3" fill="#2563eb"></circle><circle class="dot" cx="318.93899204244036" cy="170" r="3" fill="#2563eb"></circle><circle class="dot" cx="320.84880636604777" cy="170" r="3" fill="#2563eb"></circle><circle class="dot" cx="322.7586206896552" cy="170" r="3" fill="#2563eb"></circle><circle class="dot" cx="324.6684350132626" cy="170" r="3" fill="#2563eb"></circle><circle class="dot" cx="326.57824933687004" cy="170" r="3" fill="#2563eb"></circle><circle class="dot" cx="328.48806366047745" cy="170" r="3" fill="#2563eb"></circle><circle class="dot" cx="330.39787798408486" cy="170" r="3" fill="#2563eb"></circle><circle class="dot" cx="332.3076923076923" cy="170" r="3" fill="#2563eb"></circle><circle class="dot" cx="334.2175066312997" cy="170" r="3" fill="#2563eb"></circle><circle class="dot" cx="336.1273209549072" cy="170" r="3" fill="#2563eb"></circle><circle class="dot" cx="338.0371352785146" cy="170" r="3" fill="#2563eb"></circle><circle class="dot" cx="339.946949602122" cy="170" r="3" fill="#2563eb"></circle><circle class="dot" cx="341.8567639257294" cy="170" r="3" fill="#2563eb"></circle><circle class="dot" cx="343.7665782493369" cy="170" r="3" fill="#2563eb"></circle><circle class="dot" cx="345.6763925729443" cy="170" r="3" fill="#2563eb"></circle><circle class="dot" cx="347.58620689655174" cy="170" r="3" fill="#2563eb"></circle><circle class="dot" cx="349.49602122015915" cy="170" r="3" fill="#2563eb"></circle><circle class="dot" cx="351.40583554376656" cy="170" r="3" fill="#2563eb"></circle><circle class="dot" cx="353.315649867374" cy="170" r="3" fill="#2563eb"></circle><circle class="dot" cx="355.2254641909814" cy="170" r="3" fill="#2563eb"></circle><circle class="dot" cx="357.13527851458883" cy="170" r="3" fill="#2563eb"></circle><circle class="dot" cx="359.0450928381963" cy="170" r="3" fill="#2563eb"></circle><circle class="dot" cx="360.9549071618037" cy="170" r="3" fill="#2563eb"></circle><circle class="dot" cx="362.86472148541117" cy="170" r="3" fill="#2563eb"></circle><circle class="dot" cx="364.7745358090185" cy="170" r="3" fill="#2563eb"></circle><circle class="dot" cx="366.684350132626" cy="170" r="3" fill="#2563eb"></circle><circle class="dot" cx="368.59416445623344" cy="170" r="3" fill="#2563eb"></circle><circle class="dot" cx="370.50397877984085" cy="170" r="3" fill="#2563eb"></circle><circle class="dot" cx="372.4137931034483" cy="170" r="3" fill="#2563eb"></circle><circle class="dot" cx="374.32360742705566" cy="170" r="3" fill="#2563eb"></circle><circle class="dot" cx="376.2334217506631" cy="170" r="3" fill="#2563eb"></circle><circle class="dot" cx="378.14323607427053" cy="170" r="3" fill="#2563eb"></circle><circle class="dot" cx="380.053050397878" cy="170" r="3" fill="#2563eb"></circle><circle class="dot" cx="381.96286472148546" cy="170" r="3" fill="#2563eb"></circle><circle class="dot" cx="383.8726790450928" cy="170" r="3" fill="#2563eb"></circle><circle class="dot" cx="385.7824933687003" cy="170" r="3" fill="#2563eb"></circle><circle class="dot" cx="387.6923076923077" cy="170" r="3" fill="#2563eb"></circle><circle class="dot" cx="389.60212201591514" cy="170" r="3" fill="#2563eb"></circle><circle class="dot" cx="391.5119363395225" cy="170" r="3" fill="#2563eb"></circle><circle class="dot" cx="393.42175066312996" cy="170" r="3" fill="#2563eb"></circle><circle class="dot" cx="395.3315649867374" cy="170" r="3" fill="#2563eb"></circle><circle class="dot" cx="397.2413793103448" cy="170" r="3" fill="#2563eb"></circle><circle class="dot" cx="399.1511936339523" cy="170" r="3" fill="#2563eb"></circle><circle class="dot" cx="401.06100795755964" cy="170" r="3" fill="#2563eb"></circle><circle class="dot" cx="402.9708222811671" cy="170" r="3" fill="#2563eb"></circle><circle class="dot" cx="404.8806366047745" cy="170" r="3" fill="#2563eb"></circle><circle class="dot" cx="406.790450928382" cy="170" r="3" fill="#2563eb"></circle><circle class="dot" cx="408.7002652519894" cy="170" r="3" fill="#2563eb"></circle><circle class="dot" cx="410.61007957559684" cy="170" r="3" fill="#2563eb"></circle><circle class="dot" cx="412.51989389920425" cy="170" r="3" fill="#2563eb"></circle><circle class="dot" cx="414.42970822281166" cy="170" r="3" fill="#2563eb"></circle><circle class="dot" cx="416.3395225464191" cy="170" r="3" fill="#2563eb"></circle><circle class="dot" cx="418.2493368700265" cy="170" r="3" fill="#2563eb"></circle><circle class="dot" cx="420.159151193634" cy="170" r="3" fill="#2563eb"></circle><circle class="dot" cx="422.06896551724134" cy="170" r="3" fill="#2563eb"></circle><circle class="dot" cx="423.9787798408488" cy="170" r="3" fill="#2563eb"></circle><circle class="dot" cx="425.88859416445626" cy="170" r="3" fill="#2563eb"></circle><circle class="dot" cx="427.79840848806367" cy="170" r="3" fill="#2563eb"></circle><circle class="dot" cx="429.70822281167113" cy="170" r="3" fill="#2563eb"></circle><circle class="dot" cx="431.6180371352785" cy="170" r="3" fill="#2563eb"></circle><circle class="dot" cx="433.52785145888595" cy="170" r="3" fill="#2563eb"></circle><circle class="dot" cx="435.43766578249335" cy="170" r="3" fill="#2563eb"></circle><circle class="dot" cx="437.3474801061008" cy="170" r="3" fill="#2563eb"></circle><circle class="dot" cx="439.2572944297083" cy="170" r="3" fill="#2563eb"></circle><circle class="dot" cx="441.16710875331563" cy="170" r="3" fill="#2563eb"></circle><circle class="dot" cx="443.0769230769231" cy="170" r="3" fill="#2563eb"></circle><circle class="dot" cx="444.9867374005305" cy="170" r="3" fill="#2563eb"></circle><circle class="dot" cx="446.89655172413796" cy="170" r="3" fill="#2563eb"></circle><circle class="dot" cx="448.8063660477453" cy="170" r="3" fill="#2563eb"></circle><circle class="dot" cx="450.7161803713528" cy="170" r="3" fill="#2563eb"></circle><circle class="dot" cx="452.62599469496024" cy="170" r="3" fill="#2563eb"></circle><circle class="dot" cx="454.53580901856765" cy="170" r="3" fill="#2563eb"></circle><circle class="dot" cx="456.4456233421751" cy="170" r="3" fill="#2563eb"></circle><circle class="dot" cx="458.35543766578246" cy="170" r="3" fill="#2563eb"></circle><circle class="dot" cx="460.2652519893899" cy="170" r="3" fill="#2563eb"></circle><circle class="dot" cx="462.17506631299733" cy="170" r="3" fill="#2563eb"></circle><circle class="dot" cx="464.0848806366048" cy="170" r="3" fill="#2563eb"></circle><circle class="dot" cx="465.99469496021226" cy="170" r="3" fill="#2563eb"></circle><circle class="dot" cx="467.9045092838196" cy="170" r="3" fill="#2563eb"></circle><circle class="dot" cx="469.81432360742707" cy="170" r="3" fill="#2563eb"></circle><circle class="dot" cx="471.7241379310345" cy="170" r="3" fill="#2563eb"></circle><circle class="dot" cx="473.63395225464194" cy="170" r="3" fill="#2563eb"></circle><circle class="dot" cx="475.5437665782493" cy="170" r="3" fill="#2563eb"></circle><circle class="dot" cx="477.45358090185675" cy="170" r="3" fill="#2563eb"></circle><circle class="dot" cx="479.36339522546416" cy="170" r="3" fill="#2563eb"></circle><circle class="dot" cx="481.2732095490716" cy="170" r="3" fill="#2563eb"></circle><circle class="dot" cx="483.1830238726791" cy="170" r="3" fill="#2563eb"></circle><circle class="dot" cx="485.09283819628644" cy="170" r="3" fill="#2563eb"></circle><circle class="dot" cx="487.0026525198939" cy="170" r="3" fill="#2563eb"></circle><circle class="dot" cx="488.9124668435013" cy="170" r="3" fill="#2563eb"></circle><circle class="dot" cx="490.82228116710877" cy="170" r="3" fill="#2563eb"></circle><circle class="dot" cx="492.7320954907161" cy="170" r="3" fill="#2563eb"></circle><circle class="dot" cx="494.6419098143236" cy="170" r="3" fill="#2563eb"></circle><circle class="dot" cx="496.55172413793105" cy="170" r="3" fill="#2563eb"></circle><circle class="dot" cx="498.46153846153845" cy="170" r="3" fill="#2563eb"></circle><circle class="dot" cx="500.3713527851459" cy="170" r="3" fill="#2563eb"></circle><circle class="dot" cx="502.28116710875327" cy="170" r="3" fill="#2563eb"></circle><circle class="dot" cx="504.19098143236073" cy="170" r="3" fill="#2563eb"></circle><circle class="dot" cx="506.10079575596814" cy="170" r="3" fill="#2563eb"></circle><circle class="dot" cx="508.0106100795756" cy="170" r="3" fill="#2563eb"></circle><circle class="dot" cx="509.92042440318306" cy="170" r="3" fill="#2563eb"></circle><circle class="dot" cx="511.8302387267904" cy="170" r="3" fill="#2563eb"></circle><circle class="dot" cx="513.7400530503979" cy="170" r="3" fill="#2563eb"></circle><circle class="dot" cx="515.6498673740053" cy="170" r="3" fill="#2563eb"></circle><circle class="dot" cx="517.5596816976127" cy="170" r="3" fill="#2563eb"></circle><circle class="dot" cx="519.4694960212202" cy="170" r="3" fill="#2563eb"></circle><circle class="dot" cx="521.3793103448276" cy="170" r="3" fill="#2563eb"></circle><circle class="dot" cx="523.2891246684351" cy="170" r="3" fill="#2563eb"></circle><circle class="dot" cx="525.1989389920425" cy="170" r="3" fill="#2563eb"></circle><circle class="dot" cx="527.1087533156499" cy="170" r="3" fill="#2563eb"></circle><circle class="dot" cx="529.0185676392573" cy="170" r="3" fill="#2563eb"></circle><circle class="dot" cx="530.9283819628647" cy="170" r="3" fill="#2563eb"></circle><circle class="dot" cx="532.8381962864721" cy="170" r="3" fill="#2563eb"></circle><circle class="dot" cx="534.7480106100796" cy="170" r="3" fill="#2563eb"></circle><circle class="dot" cx="536.657824933687" cy="170" r="3" fill="#2563eb"></circle><circle class="dot" cx="538.5676392572944" cy="170" r="3" fill="#2563eb"></circle><circle class="dot" cx="540.4774535809019" cy="170" r="3" fill="#2563eb"></circle><circle class="dot" cx="542.3872679045093" cy="170" r="3" fill="#2563eb"></circle><circle class="dot" cx="544.2970822281168" cy="170" r="3" fill="#2563eb"></circle><circle class="dot" cx="546.2068965517241" cy="170" r="3" fill="#2563eb"></circle><circle class="dot" cx="548.1167108753316" cy="170" r="3" fill="#2563eb"></circle><circle class="dot" cx="550.026525198939" cy="170" r="3" fill="#2563eb"></circle><circle class="dot" cx="551.9363395225464" cy="170" r="3" fill="#2563eb"></circle><circle class="dot" cx="553.8461538461539" cy="170" r="3" fill="#2563eb"></circle><circle class="dot" cx="555.7559681697612" cy="170" r="3" fill="#2563eb"></circle><circle class="dot" cx="557.6657824933687" cy="170" r="3" fill="#2563eb"></circle><circle class="dot" cx="559.5755968169761" cy="170" r="3" fill="#2563eb"></circle><circle class="dot" cx="561.4854111405836" cy="170" r="3" fill="#2563eb"></circle><circle class="dot" cx="563.395225464191" cy="170" r="3" fill="#2563eb"></circle><circle class="dot" cx="565.3050397877984" cy="170" r="3" fill="#2563eb"></circle><circle class="dot" cx="567.2148541114059" cy="170" r="3" fill="#2563eb"></circle><circle class="dot" cx="569.1246684350133" cy="170" r="3" fill="#2563eb"></circle><circle class="dot" cx="571.0344827586207" cy="170" r="3" fill="#2563eb"></circle><circle class="dot" cx="572.9442970822281" cy="170" r="3" fill="#2563eb"></circle><circle class="dot" cx="574.8541114058355" cy="170" r="3" fill="#2563eb"></circle><circle class="dot" cx="576.7639257294429" cy="170" r="3" fill="#2563eb"></circle><circle class="dot" cx="578.6737400530504" cy="170" r="3" fill="#2563eb"></circle><circle class="dot" cx="580.5835543766578" cy="170" r="3" fill="#2563eb"></circle><circle class="dot" cx="582.4933687002653" cy="170" r="3" fill="#2563eb"></circle><circle class="dot" cx="584.4031830238727" cy="170" r="3" fill="#2563eb"></circle><circle class="dot" cx="586.3129973474801" cy="170" r="3" fill="#2563eb"></circle><circle class="dot" cx="588.2228116710876" cy="170" r="3" fill="#2563eb"></circle><circle class="dot" cx="590.1326259946949" cy="170" r="3" fill="#2563eb"></circle><circle class="dot" cx="592.0424403183024" cy="170" r="3" fill="#2563eb"></circle><circle class="dot" cx="593.9522546419098" cy="170" r="3" fill="#2563eb"></circle><circle class="dot" cx="595.8620689655172" cy="170" r="3" fill="#2563eb"></circle><circle class="dot" cx="597.7718832891247" cy="170" r="3" fill="#2563eb"></circle><circle class="dot" cx="599.681697612732" cy="170" r="3" fill="#2563eb"></circle><circle class="dot" cx="601.5915119363395" cy="170" r="3" fill="#2563eb"></circle><circle class="dot" cx="603.501326259947" cy="170" r="3" fill="#2563eb"></circle><circle class="dot" cx="605.4111405835544" cy="170" r="3" fill="#2563eb"></circle><circle class="dot" cx="607.3209549071619" cy="170" r="3" fill="#2563eb"></circle><circle class="dot" cx="609.2307692307692" cy="170" r="3" fill="#2563eb"></circle><circle class="dot" cx="611.1405835543767" cy="170" r="3" fill="#2563eb"></circle><circle class="dot" cx="613.0503978779841" cy="170" r="3" fill="#2563eb"></circle><circle class="dot" cx="614.9602122015915" cy="170" r="3" fill="#2563eb"></circle><circle class="dot" cx="616.8700265251989" cy="170" r="3" fill="#2563eb"></circle><circle class="dot" cx="618.7798408488063" cy="170" r="3" fill="#2563eb"></circle><circle class="dot" cx="620.6896551724137" cy="170" r="3" fill="#2563eb"></circle><circle class="dot" cx="622.5994694960212" cy="170" r="3" fill="#2563eb"></circle><circle class="dot" cx="624.5092838196286" cy="170" r="3" fill="#2563eb"></circle><circle class="dot" cx="626.419098143236" cy="170" r="3" fill="#2563eb"></circle><circle class="dot" cx="628.3289124668436" cy="170" r="3" fill="#2563eb"></circle><circle class="dot" cx="630.2387267904509" cy="170" r="3" fill="#2563eb"></circle><circle class="dot" cx="632.1485411140584" cy="170" r="3" fill="#2563eb"></circle><circle class="dot" cx="634.0583554376658" cy="170" r="3" fill="#2563eb"></circle><circle class="dot" cx="635.9681697612732" cy="170" r="3" fill="#2563eb"></circle><circle class="dot" cx="637.8779840848807" cy="170" r="3" fill="#2563eb"></circle><circle class="dot" cx="639.787798408488" cy="170" r="3" fill="#2563eb"></circle><circle class="dot" cx="641.6976127320955" cy="170" r="3" fill="#2563eb"></circle><circle class="dot" cx="643.6074270557029" cy="170" r="3" fill="#2563eb"></circle><circle class="dot" cx="645.5172413793103" cy="170" r="3" fill="#2563eb"></circle><circle class="dot" cx="647.4270557029178" cy="170" r="3" fill="#2563eb"></circle><circle class="dot" cx="649.3368700265252" cy="170" r="3" fill="#2563eb"></circle><circle class="dot" cx="651.2466843501327" cy="170" r="3" fill="#2563eb"></circle><circle class="dot" cx="653.1564986737401" cy="170" r="3" fill="#2563eb"></circle><circle class="dot" cx="655.0663129973475" cy="170" r="3" fill="#2563eb"></circle><circle class="dot" cx="656.9761273209549" cy="170" r="3" fill="#2563eb"></circle><circle class="dot" cx="658.8859416445623" cy="170" r="3" fill="#2563eb"></circle><circle class="dot" cx="660.7957559681697" cy="170" r="3" fill="#2563eb"></circle><circle class="dot" cx="662.7055702917772" cy="170" r="3" fill="#2563eb"></circle><circle class="dot" cx="664.6153846153846" cy="170" r="3" fill="#2563eb"></circle><circle class="dot" cx="666.525198938992" cy="170" r="3" fill="#2563eb"></circle><circle class="dot" cx="668.4350132625995" cy="170" r="3" fill="#2563eb"></circle><circle class="dot" cx="670.3448275862069" cy="170" r="3" fill="#2563eb"></circle><circle class="dot" cx="672.2546419098144" cy="170" r="3" fill="#2563eb"></circle><circle class="dot" cx="674.1644562334217" cy="170" r="3" fill="#2563eb"></circle><circle class="dot" cx="676.0742705570292" cy="170" r="3" fill="#2563eb"></circle><circle class="dot" cx="677.9840848806366" cy="170" r="3" fill="#2563eb"></circle><circle class="dot" cx="679.893899204244" cy="170" r="3" fill="#2563eb"></circle><circle class="dot" cx="681.8037135278515" cy="170" r="3" fill="#2563eb"></circle><circle class="dot" cx="683.7135278514588" cy="170" r="3" fill="#2563eb"></circle><circle class="dot" cx="685.6233421750663" cy="170" r="3" fill="#2563eb"></circle><circle class="dot" cx="687.5331564986737" cy="170" r="3" fill="#2563eb"></circle><circle class="dot" cx="689.4429708222812" cy="170" r="3" fill="#2563eb"></circle><circle class="dot" cx="691.3527851458886" cy="170" r="3" fill="#2563eb"></circle><circle class="dot" cx="693.262599469496" cy="170" r="3" fill="#2563eb"></circle><circle class="dot" cx="695.1724137931035" cy="170" r="3" fill="#2563eb"></circle><circle class="dot" cx="697.0822281167109" cy="170" r="3" fill="#2563eb"></circle><circle class="dot" cx="698.9920424403183" cy="170" r="3" fill="#2563eb"></circle><circle class="dot" cx="700.9018567639257" cy="170" r="3" fill="#2563eb"></circle><circle class="dot" cx="702.8116710875331" cy="170" r="3" fill="#2563eb"></circle><circle class="dot" cx="704.7214854111405" cy="170" r="3" fill="#2563eb"></circle><circle class="dot" cx="706.631299734748" cy="170" r="3" fill="#2563eb"></circle><circle class="dot" cx="708.5411140583554" cy="170" r="3" fill="#2563eb"></circle><circle class="dot" cx="710.4509283819629" cy="170" r="3" fill="#2563eb"></circle><circle class="dot" cx="712.3607427055703" cy="170" r="3" fill="#2563eb"></circle><circle class="dot" cx="714.2705570291777" cy="170" r="3" fill="#2563eb"></circle><circle class="dot" cx="716.1803713527852" cy="170" r="3" fill="#2563eb"></circle><circle class="dot" cx="718.0901856763926" cy="170" r="3" fill="#2563eb"></circle><circle class="dot" cx="720" cy="170" r="3" fill="#2563eb"></circle><g class="grid" transform="translate(0,340)" fill="none" font-size="10" font-family="sans-serif" text-anchor="middle" style="stroke-dasharray: 3,3; opacity: 0.3;"><path class="domain" stroke="currentColor" d="M0.5,-340V0.5H720.5V-340"></path><g class="tick" opacity="1" transform="translate(0.5,0)"><line stroke="currentColor" y2="-340"></line><text fill="currentColor" y="3" dy="0.71em"></text></g><g class="tick" opacity="1" transform="translate(46.33554376657825,0)"><line stroke="currentColor" y2="-340"></line><text fill="currentColor" y="3" dy="0.71em"></text></g><g class="tick" opacity="1" transform="translate(92.1710875331565,0)"><line stroke="currentColor" y2="-340"></line><text fill="currentColor" y="3" dy="0.71em"></text></g><g class="tick" opacity="1" transform="translate(138.00663129973475,0)"><line stroke="currentColor" y2="-340"></line><text fill="currentColor" y="3" dy="0.71em"></text></g><g class="tick" opacity="1" transform="translate(183.842175066313,0)"><line stroke="currentColor" y2="-340"></line><text fill="currentColor" y="3" dy="0.71em"></text></g><g class="tick" opacity="1" transform="translate(229.67771883289123,0)"><line stroke="currentColor" y2="-340"></line><text fill="currentColor" y="3" dy="0.71em"></text></g><g class="tick" opacity="1" transform="translate(275.5132625994695,0)"><line stroke="currentColor" y2="-340"></line><text fill="currentColor" y="3" dy="0.71em"></text></g><g class="tick" opacity="1" transform="translate(321.34880636604777,0)"><line stroke="currentColor" y2="-340"></line><text fill="currentColor" y="3" dy="0.71em"></text></g><g class="tick" opacity="1" transform="translate(367.184350132626,0)"><line stroke="currentColor" y2="-340"></line><text fill="currentColor" y="3" dy="0.71em"></text></g><g class="tick" opacity="1" transform="translate(413.01989389920425,0)"><line stroke="currentColor" y2="-340"></line><text fill="currentColor" y="3" dy="0.71em"></text></g><g class="tick" opacity="1" transform="translate(458.85543766578246,0)"><line stroke="currentColor" y2="-340"></line><text fill="currentColor" y="3" dy="0.71em"></text></g><g class="tick" opacity="1" transform="translate(504.69098143236073,0)"><line stroke="currentColor" y2="-340"></line><text fill="currentColor" y="3" dy="0.71em"></text></g><g class="tick" opacity="1" transform="translate(550.526525198939,0)"><line stroke="currentColor" y2="-340"></line><text fill="currentColor" y="3" dy="0.71em"></text></g><g class="tick" opacity="1" transform="translate(596.3620689655172,0)"><line stroke="currentColor" y2="-340"></line><text fill="currentColor" y="3" dy="0.71em"></text></g><g class="tick" opacity="1" transform="translate(642.1976127320955,0)"><line stroke="currentColor" y2="-340"></line><text fill="currentColor" y="3" dy="0.71em"></text></g><g class="tick" opacity="1" transform="translate(688.0331564986737,0)"><line stroke="currentColor" y2="-340"></line><text fill="currentColor" y="3" dy="0.71em"></text></g></g><g class="grid" fill="none" font-size="10" font-family="sans-serif" text-anchor="end" style="stroke-dasharray: 3,3; opacity: 0.3;"><path class="domain" stroke="currentColor" d="M720,340.5H0.5V0.5H720"></path><g class="tick" opacity="1" transform="translate(0,170.5)"><line stroke="currentColor" x2="720"></line><text fill="currentColor" x="-3" dy="0.32em"></text></g></g></g><text x="400" y="10" text-anchor="middle" style="font-size: 16px; font-weight: bold; fill: #333;">OKX USDT Lending Rate - Current Month</text></svg>