<svg width="800" height="400" xmlns="http://www.w3.org/2000/svg"><g transform="translate(50,20)"><g transform="translate(0,340)" fill="none" font-size="10" font-family="sans-serif" text-anchor="middle"><path class="domain" stroke="currentColor" d="M0.5,6V0.5H720.5V6"></path><g class="tick" opacity="1" transform="translate(84.56091370558376,0)"><line stroke="currentColor" y2="6"></line><text fill="currentColor" y="9" dy="0.71em">08/11 00:00</text></g><g class="tick" opacity="1" transform="translate(172.2766497461929,0)"><line stroke="currentColor" y2="6"></line><text fill="currentColor" y="9" dy="0.71em">08/12 00:00</text></g><g class="tick" opacity="1" transform="translate(259.99238578680206,0)"><line stroke="currentColor" y2="6"></line><text fill="currentColor" y="9" dy="0.71em">08/13 00:00</text></g><g class="tick" opacity="1" transform="translate(347.70812182741116,0)"><line stroke="currentColor" y2="6"></line><text fill="currentColor" y="9" dy="0.71em">08/14 00:00</text></g><g class="tick" opacity="1" transform="translate(435.4238578680203,0)"><line stroke="currentColor" y2="6"></line><text fill="currentColor" y="9" dy="0.71em">08/15 00:00</text></g><g class="tick" opacity="1" transform="translate(523.1395939086294,0)"><line stroke="currentColor" y2="6"></line><text fill="currentColor" y="9" dy="0.71em">08/16 00:00</text></g><g class="tick" opacity="1" transform="translate(610.8553299492386,0)"><line stroke="currentColor" y2="6"></line><text fill="currentColor" y="9" dy="0.71em">08/17 00:00</text></g><g class="tick" opacity="1" transform="translate(698.5710659898477,0)"><line stroke="currentColor" y2="6"></line><text fill="currentColor" y="9" dy="0.71em">08/18 00:00</text></g></g><g fill="none" font-size="10" font-family="sans-serif" text-anchor="end"><path class="domain" stroke="currentColor" d="M-6,340.5H0.5V0.5H-6"></path><g class="tick" opacity="1" transform="translate(0,340.5)"><line stroke="currentColor" x2="-6"></line><text fill="currentColor" x="-9" dy="0.32em">5.00%</text></g><g class="tick" opacity="1" transform="translate(0,302.72222222222223)"><line stroke="currentColor" x2="-6"></line><text fill="currentColor" x="-9" dy="0.32em">10.00%</text></g><g class="tick" opacity="1" transform="translate(0,264.94444444444446)"><line stroke="currentColor" x2="-6"></line><text fill="currentColor" x="-9" dy="0.32em">15.00%</text></g><g class="tick" opacity="1" transform="translate(0,227.16666666666666)"><line stroke="currentColor" x2="-6"></line><text fill="currentColor" x="-9" dy="0.32em">20.00%</text></g><g class="tick" opacity="1" transform="translate(0,189.38888888888889)"><line stroke="currentColor" x2="-6"></line><text fill="currentColor" x="-9" dy="0.32em">25.00%</text></g><g class="tick" opacity="1" transform="translate(0,151.61111111111111)"><line stroke="currentColor" x2="-6"></line><text fill="currentColor" x="-9" dy="0.32em">30.00%</text></g><g class="tick" opacity="1" transform="translate(0,113.83333333333334)"><line stroke="currentColor" x2="-6"></line><text fill="currentColor" x="-9" dy="0.32em">35.00%</text></g><g class="tick" opacity="1" transform="translate(0,76.05555555555556)"><line stroke="currentColor" x2="-6"></line><text fill="currentColor" x="-9" dy="0.32em">40.00%</text></g><g class="tick" opacity="1" transform="translate(0,38.27777777777776)"><line stroke="currentColor" x2="-6"></line><text fill="currentColor" x="-9" dy="0.32em">45.00%</text></g><g class="tick" opacity="1" transform="translate(0,0.5)"><line stroke="currentColor" x2="-6"></line><text fill="currentColor" x="-9" dy="0.32em">50.00%</text></g></g><text transform="rotate(-90)" y="-50" x="-170" dy="1em" style="text-anchor: middle; font-size: 12px; fill: #666;">Pre Rate (%)</text><text transform="translate(360, 380)" style="text-anchor: middle; font-size: 12px; fill: #666;">Time (UTC)</text><path fill="none" stroke="#2563eb" stroke-width="2" d="M0,75.556C1.218,207.778,2.437,340,3.655,340C4.873,340,6.091,340,7.31,340C8.528,340,9.746,75.556,10.964,75.556C12.183,75.556,13.401,78.074,14.619,83.111C15.838,88.148,17.056,340,18.274,340C19.492,340,20.711,340,21.929,340C23.147,340,24.365,340,25.584,340C26.802,340,28.02,340,29.239,340C30.457,340,31.675,340,32.893,340C34.112,340,35.33,340,36.548,340C37.766,340,38.985,340,40.203,340C41.421,340,42.64,340,43.858,340C45.076,340,46.294,340,47.513,340C48.731,340,49.949,340,51.168,340C52.386,340,53.604,340,54.822,340C56.041,340,57.259,340,58.477,340C59.695,340,60.914,340,62.132,340C63.35,340,64.569,340,65.787,340C67.005,340,68.223,340,69.442,340C70.66,340,71.878,340,73.096,340C74.315,340,75.533,340,76.751,340C77.97,340,79.188,340,80.406,340C84.061,340,87.716,340,91.371,340C93.807,340,96.244,90.667,98.68,90.667C99.898,90.667,101.117,340,102.335,340C103.553,340,104.772,340,105.99,340C107.208,340,108.426,340,109.645,340C110.863,340,112.081,340,113.299,340C114.518,340,115.736,340,116.954,340C118.173,340,119.391,340,120.609,340C121.827,340,123.046,340,124.264,340C126.701,340,129.137,340,131.574,340C132.792,340,134.01,340,135.228,340C136.447,340,137.665,340,138.883,340C140.102,340,141.32,340,142.538,340C143.756,340,144.975,340,146.193,340C147.411,340,148.629,340,149.848,340C151.066,340,152.284,340,153.503,340C154.721,340,155.939,340,157.157,340C158.376,340,159.594,340,160.812,340C162.03,340,163.249,340,164.467,340C165.685,340,166.904,340,168.122,340C171.777,340,175.431,340,179.086,340C180.305,340,181.523,340,182.741,340C183.959,340,185.178,340,186.396,340C187.614,340,188.832,340,190.051,340C191.269,340,192.487,340,193.706,340C194.924,340,196.142,340,197.36,340C198.579,340,199.797,340,201.015,340C202.234,340,203.452,340,204.67,340C205.888,340,207.107,340,208.325,340C209.543,340,210.761,340,211.98,340C213.198,340,214.416,340,215.635,340C216.853,340,218.071,90.667,219.289,90.667C220.508,90.667,221.726,340,222.944,340C224.162,340,225.381,340,226.599,340C227.817,340,229.036,68,230.254,68C231.472,68,232.69,78.074,233.909,98.222C235.127,118.37,236.345,340,237.563,340C238.782,340,240,340,241.218,340C242.437,340,243.655,118.37,244.873,83.111C246.091,47.852,247.31,30.222,248.528,30.222C249.746,30.222,250.964,55.407,252.183,60.444C253.401,65.481,254.619,62.963,255.838,68C259.492,83.111,263.147,340,266.802,340C268.02,340,269.239,83.111,270.457,83.111C271.675,83.111,272.893,98.222,274.112,98.222C275.33,98.222,276.548,98.222,277.766,98.222C278.985,98.222,280.203,332.444,281.421,332.444C282.64,332.444,283.858,332.444,285.076,332.444C286.294,332.444,287.513,52.889,288.731,52.889C289.949,52.889,291.168,75.556,292.386,75.556C293.604,75.556,294.822,68,296.041,68C297.259,68,298.477,332.444,299.695,332.444C300.914,332.444,302.132,332.444,303.35,332.444C304.569,332.444,305.787,332.444,307.005,332.444C308.223,332.444,309.442,332.444,310.66,332.444C311.878,332.444,313.096,332.444,314.315,332.444C315.533,332.444,316.751,332.444,317.97,332.444C319.188,332.444,320.406,332.444,321.624,332.444C322.843,332.444,324.061,332.444,325.279,332.444C326.497,332.444,327.716,332.444,328.934,332.444C330.152,332.444,331.371,332.444,332.589,332.444C333.807,332.444,335.025,332.444,336.244,332.444C337.462,332.444,338.68,332.444,339.898,332.444C341.117,332.444,342.335,332.444,343.553,332.444C347.208,332.444,350.863,332.444,354.518,332.444C355.736,332.444,356.954,52.889,358.173,52.889C359.391,52.889,360.609,332.444,361.827,332.444C363.046,332.444,364.264,332.444,365.482,332.444C366.701,332.444,367.919,332.444,369.137,332.444C370.355,332.444,371.574,68,372.792,68C374.01,68,375.228,78.074,376.447,98.222C377.665,118.37,378.883,332.444,380.102,332.444C381.32,332.444,382.538,332.444,383.756,332.444C384.975,332.444,386.193,332.444,387.411,332.444C388.629,332.444,389.848,332.444,391.066,332.444C392.284,332.444,393.503,332.444,394.721,332.444C395.939,332.444,397.157,332.444,398.376,332.444C399.594,332.444,400.812,332.444,402.03,332.444C403.249,332.444,404.467,332.444,405.685,332.444C406.904,332.444,408.122,332.444,409.34,332.444C410.558,332.444,411.777,332.444,412.995,332.444C414.213,332.444,415.431,332.444,416.65,332.444C417.868,332.444,419.086,332.444,420.305,332.444C421.523,332.444,422.741,332.444,423.959,332.444C425.178,332.444,426.396,332.444,427.614,332.444C428.832,332.444,430.051,332.444,431.269,332.444C434.924,332.444,438.579,332.444,442.234,332.444C443.452,332.444,444.67,332.444,445.888,332.444C447.107,332.444,448.325,332.444,449.543,332.444C450.761,332.444,451.98,332.444,453.198,332.444C454.416,332.444,455.635,332.444,456.853,332.444C458.071,332.444,459.289,332.444,460.508,332.444C461.726,332.444,462.944,332.444,464.162,332.444C465.381,332.444,466.599,332.444,467.817,332.444C469.036,332.444,470.254,332.444,471.472,332.444C472.69,332.444,473.909,332.444,475.127,332.444C476.345,332.444,477.563,332.444,478.782,332.444C480,332.444,481.218,332.444,482.437,332.444C483.655,332.444,484.873,332.444,486.091,332.444C487.31,332.444,488.528,332.444,489.746,332.444C490.964,332.444,492.183,332.444,493.401,332.444C494.619,332.444,495.838,332.444,497.056,332.444C498.274,332.444,499.492,332.444,500.711,332.444C501.929,332.444,503.147,332.444,504.365,332.444C505.584,332.444,506.802,332.444,508.02,332.444C509.239,332.444,510.457,332.444,511.675,332.444C512.893,332.444,514.112,332.444,515.33,332.444C516.548,332.444,517.766,332.444,518.985,332.444C522.64,332.444,526.294,332.444,529.949,332.444C531.168,332.444,532.386,332.444,533.604,332.444C534.822,332.444,536.041,332.444,537.259,332.444C538.477,332.444,539.695,332.444,540.914,332.444C542.132,332.444,543.35,332.444,544.569,332.444C545.787,332.444,547.005,332.444,548.223,332.444C549.442,332.444,550.66,332.444,551.878,332.444C553.096,332.444,554.315,332.444,555.533,332.444C556.751,332.444,557.97,332.444,559.188,332.444C560.406,332.444,561.624,332.444,562.843,332.444C564.061,332.444,565.279,332.444,566.497,332.444C567.716,332.444,568.934,332.444,570.152,332.444C571.371,332.444,572.589,332.444,573.807,332.444C575.025,332.444,576.244,332.444,577.462,332.444C578.68,332.444,579.898,332.444,581.117,332.444C582.335,332.444,583.553,332.444,584.772,332.444C585.99,332.444,587.208,332.444,588.426,332.444C589.645,332.444,590.863,332.444,592.081,332.444C593.299,332.444,594.518,332.444,595.736,332.444C596.954,332.444,598.173,332.444,599.391,332.444C600.609,332.444,601.827,332.444,603.046,332.444C604.264,332.444,605.482,332.444,606.701,332.444C610.355,332.444,614.01,332.444,617.665,332.444C618.883,332.444,620.102,332.444,621.32,332.444C622.538,332.444,623.756,332.444,624.975,332.444C626.193,332.444,627.411,332.444,628.629,332.444C629.848,332.444,631.066,332.444,632.284,332.444C633.503,332.444,634.721,332.444,635.939,332.444C637.157,332.444,638.376,332.444,639.594,332.444C640.812,332.444,642.03,332.444,643.249,332.444C644.467,332.444,645.685,332.444,646.904,332.444C648.122,332.444,649.34,332.444,650.558,332.444C651.777,332.444,652.995,332.444,654.213,332.444C655.431,332.444,656.65,332.444,657.868,332.444C659.086,332.444,660.305,332.444,661.523,332.444C662.741,332.444,663.959,332.444,665.178,332.444C666.396,332.444,667.614,332.444,668.832,332.444C670.051,332.444,671.269,332.444,672.487,332.444C673.706,332.444,674.924,332.444,676.142,332.444C677.36,332.444,678.579,332.444,679.797,332.444C681.015,332.444,682.234,332.444,683.452,332.444C684.67,332.444,685.888,332.444,687.107,332.444C688.325,332.444,689.543,332.444,690.761,332.444C691.98,332.444,693.198,332.444,694.416,332.444C698.071,332.444,701.726,332.444,705.381,332.444C707.817,332.444,710.254,332.444,712.69,332.444C713.909,332.444,715.127,332.444,716.345,332.444C717.563,332.444,718.782,332.444,720,332.444"></path><circle class="dot" cx="0" cy="75.55555555555556" r="3" fill="#2563eb"></circle><circle class="dot" cx="3.6548223350253806" cy="340" r="3" fill="#2563eb"></circle><circle class="dot" cx="7.309644670050761" cy="340" r="3" fill="#2563eb"></circle><circle class="dot" cx="10.964467005076143" cy="75.55555555555556" r="3" fill="#2563eb"></circle><circle class="dot" cx="14.619289340101522" cy="83.11111111111111" r="3" fill="#2563eb"></circle><circle class="dot" cx="18.274111675126903" cy="340" r="3" fill="#2563eb"></circle><circle class="dot" cx="21.928934010152286" cy="340" r="3" fill="#2563eb"></circle><circle class="dot" cx="25.583756345177665" cy="340" r="3" fill="#2563eb"></circle><circle class="dot" cx="29.238578680203045" cy="340" r="3" fill="#2563eb"></circle><circle class="dot" cx="32.89340101522843" cy="340" r="3" fill="#2563eb"></circle><circle class="dot" cx="36.54822335025381" cy="340" r="3" fill="#2563eb"></circle><circle class="dot" cx="40.203045685279186" cy="340" r="3" fill="#2563eb"></circle><circle class="dot" cx="43.85786802030457" cy="340" r="3" fill="#2563eb"></circle><circle class="dot" cx="47.51269035532995" cy="340" r="3" fill="#2563eb"></circle><circle class="dot" cx="51.16751269035533" cy="340" r="3" fill="#2563eb"></circle><circle class="dot" cx="54.82233502538072" cy="340" r="3" fill="#2563eb"></circle><circle class="dot" cx="58.47715736040609" cy="340" r="3" fill="#2563eb"></circle><circle class="dot" cx="62.13197969543147" cy="340" r="3" fill="#2563eb"></circle><circle class="dot" cx="65.78680203045685" cy="340" r="3" fill="#2563eb"></circle><circle class="dot" cx="69.44162436548223" cy="340" r="3" fill="#2563eb"></circle><circle class="dot" cx="73.09644670050761" cy="340" r="3" fill="#2563eb"></circle><circle class="dot" cx="76.751269035533" cy="340" r="3" fill="#2563eb"></circle><circle class="dot" cx="80.40609137055837" cy="340" r="3" fill="#2563eb"></circle><circle class="dot" cx="91.37055837563452" cy="340" r="3" fill="#2563eb"></circle><circle class="dot" cx="98.68020304568527" cy="90.66666666666664" r="3" fill="#2563eb"></circle><circle class="dot" cx="102.33502538071066" cy="340" r="3" fill="#2563eb"></circle><circle class="dot" cx="105.98984771573603" cy="340" r="3" fill="#2563eb"></circle><circle class="dot" cx="109.64467005076143" cy="340" r="3" fill="#2563eb"></circle><circle class="dot" cx="113.2994923857868" cy="340" r="3" fill="#2563eb"></circle><circle class="dot" cx="116.95431472081218" cy="340" r="3" fill="#2563eb"></circle><circle class="dot" cx="120.60913705583756" cy="340" r="3" fill="#2563eb"></circle><circle class="dot" cx="124.26395939086294" cy="340" r="3" fill="#2563eb"></circle><circle class="dot" cx="131.5736040609137" cy="340" r="3" fill="#2563eb"></circle><circle class="dot" cx="135.2284263959391" cy="340" r="3" fill="#2563eb"></circle><circle class="dot" cx="138.88324873096445" cy="340" r="3" fill="#2563eb"></circle><circle class="dot" cx="142.53807106598987" cy="340" r="3" fill="#2563eb"></circle><circle class="dot" cx="146.19289340101523" cy="340" r="3" fill="#2563eb"></circle><circle class="dot" cx="149.8477157360406" cy="340" r="3" fill="#2563eb"></circle><circle class="dot" cx="153.502538071066" cy="340" r="3" fill="#2563eb"></circle><circle class="dot" cx="157.15736040609136" cy="340" r="3" fill="#2563eb"></circle><circle class="dot" cx="160.81218274111674" cy="340" r="3" fill="#2563eb"></circle><circle class="dot" cx="164.46700507614213" cy="340" r="3" fill="#2563eb"></circle><circle class="dot" cx="168.12182741116752" cy="340" r="3" fill="#2563eb"></circle><circle class="dot" cx="179.08629441624365" cy="340" r="3" fill="#2563eb"></circle><circle class="dot" cx="182.74111675126903" cy="340" r="3" fill="#2563eb"></circle><circle class="dot" cx="186.39593908629442" cy="340" r="3" fill="#2563eb"></circle><circle class="dot" cx="190.0507614213198" cy="340" r="3" fill="#2563eb"></circle><circle class="dot" cx="193.70558375634516" cy="340" r="3" fill="#2563eb"></circle><circle class="dot" cx="197.36040609137055" cy="340" r="3" fill="#2563eb"></circle><circle class="dot" cx="201.01522842639594" cy="340" r="3" fill="#2563eb"></circle><circle class="dot" cx="204.67005076142132" cy="340" r="3" fill="#2563eb"></circle><circle class="dot" cx="208.32487309644668" cy="340" r="3" fill="#2563eb"></circle><circle class="dot" cx="211.97969543147207" cy="340" r="3" fill="#2563eb"></circle><circle class="dot" cx="215.63451776649748" cy="340" r="3" fill="#2563eb"></circle><circle class="dot" cx="219.28934010152287" cy="90.66666666666664" r="3" fill="#2563eb"></circle><circle class="dot" cx="222.94416243654823" cy="340" r="3" fill="#2563eb"></circle><circle class="dot" cx="226.5989847715736" cy="340" r="3" fill="#2563eb"></circle><circle class="dot" cx="230.253807106599" cy="68.00000000000003" r="3" fill="#2563eb"></circle><circle class="dot" cx="233.90862944162436" cy="98.22222222222221" r="3" fill="#2563eb"></circle><circle class="dot" cx="237.56345177664974" cy="340" r="3" fill="#2563eb"></circle><circle class="dot" cx="241.21827411167513" cy="340" r="3" fill="#2563eb"></circle><circle class="dot" cx="244.87309644670052" cy="83.11111111111111" r="3" fill="#2563eb"></circle><circle class="dot" cx="248.52791878172587" cy="30.22222222222219" r="3" fill="#2563eb"></circle><circle class="dot" cx="252.18274111675126" cy="60.44444444444446" r="3" fill="#2563eb"></circle><circle class="dot" cx="255.83756345177665" cy="68.00000000000003" r="3" fill="#2563eb"></circle><circle class="dot" cx="266.8020304568528" cy="340" r="3" fill="#2563eb"></circle><circle class="dot" cx="270.4568527918782" cy="83.11111111111111" r="3" fill="#2563eb"></circle><circle class="dot" cx="274.11167512690355" cy="98.22222222222221" r="3" fill="#2563eb"></circle><circle class="dot" cx="277.7664974619289" cy="98.22222222222221" r="3" fill="#2563eb"></circle><circle class="dot" cx="281.4213197969543" cy="332.44444444444446" r="3" fill="#2563eb"></circle><circle class="dot" cx="285.07614213197974" cy="332.44444444444446" r="3" fill="#2563eb"></circle><circle class="dot" cx="288.73096446700504" cy="52.88888888888889" r="3" fill="#2563eb"></circle><circle class="dot" cx="292.38578680203045" cy="75.55555555555556" r="3" fill="#2563eb"></circle><circle class="dot" cx="296.04060913705587" cy="68.00000000000003" r="3" fill="#2563eb"></circle><circle class="dot" cx="299.6954314720812" cy="332.44444444444446" r="3" fill="#2563eb"></circle><circle class="dot" cx="303.3502538071066" cy="332.44444444444446" r="3" fill="#2563eb"></circle><circle class="dot" cx="307.005076142132" cy="332.44444444444446" r="3" fill="#2563eb"></circle><circle class="dot" cx="310.65989847715736" cy="332.44444444444446" r="3" fill="#2563eb"></circle><circle class="dot" cx="314.3147208121827" cy="332.44444444444446" r="3" fill="#2563eb"></circle><circle class="dot" cx="317.9695431472081" cy="332.44444444444446" r="3" fill="#2563eb"></circle><circle class="dot" cx="321.6243654822335" cy="332.44444444444446" r="3" fill="#2563eb"></circle><circle class="dot" cx="325.2791878172589" cy="332.44444444444446" r="3" fill="#2563eb"></circle><circle class="dot" cx="328.93401015228426" cy="332.44444444444446" r="3" fill="#2563eb"></circle><circle class="dot" cx="332.5888324873096" cy="332.44444444444446" r="3" fill="#2563eb"></circle><circle class="dot" cx="336.24365482233503" cy="332.44444444444446" r="3" fill="#2563eb"></circle><circle class="dot" cx="339.89847715736045" cy="332.44444444444446" r="3" fill="#2563eb"></circle><circle class="dot" cx="343.5532994923858" cy="332.44444444444446" r="3" fill="#2563eb"></circle><circle class="dot" cx="354.51776649746193" cy="332.44444444444446" r="3" fill="#2563eb"></circle><circle class="dot" cx="358.1725888324873" cy="52.88888888888889" r="3" fill="#2563eb"></circle><circle class="dot" cx="361.82741116751265" cy="332.44444444444446" r="3" fill="#2563eb"></circle><circle class="dot" cx="365.48223350253807" cy="332.44444444444446" r="3" fill="#2563eb"></circle><circle class="dot" cx="369.1370558375634" cy="332.44444444444446" r="3" fill="#2563eb"></circle><circle class="dot" cx="372.79187817258884" cy="68.00000000000003" r="3" fill="#2563eb"></circle><circle class="dot" cx="376.4467005076142" cy="98.22222222222221" r="3" fill="#2563eb"></circle><circle class="dot" cx="380.1015228426396" cy="332.44444444444446" r="3" fill="#2563eb"></circle><circle class="dot" cx="383.756345177665" cy="332.44444444444446" r="3" fill="#2563eb"></circle><circle class="dot" cx="387.4111675126903" cy="332.44444444444446" r="3" fill="#2563eb"></circle><circle class="dot" cx="391.0659898477157" cy="332.44444444444446" r="3" fill="#2563eb"></circle><circle class="dot" cx="394.7208121827411" cy="332.44444444444446" r="3" fill="#2563eb"></circle><circle class="dot" cx="398.3756345177665" cy="332.44444444444446" r="3" fill="#2563eb"></circle><circle class="dot" cx="402.0304568527919" cy="332.44444444444446" r="3" fill="#2563eb"></circle><circle class="dot" cx="405.6852791878173" cy="332.44444444444446" r="3" fill="#2563eb"></circle><circle class="dot" cx="409.34010152284264" cy="332.44444444444446" r="3" fill="#2563eb"></circle><circle class="dot" cx="412.99492385786806" cy="332.44444444444446" r="3" fill="#2563eb"></circle><circle class="dot" cx="416.64974619289336" cy="332.44444444444446" r="3" fill="#2563eb"></circle><circle class="dot" cx="420.3045685279188" cy="332.44444444444446" r="3" fill="#2563eb"></circle><circle class="dot" cx="423.95939086294413" cy="332.44444444444446" r="3" fill="#2563eb"></circle><circle class="dot" cx="427.61421319796955" cy="332.44444444444446" r="3" fill="#2563eb"></circle><circle class="dot" cx="431.26903553299496" cy="332.44444444444446" r="3" fill="#2563eb"></circle><circle class="dot" cx="442.23350253807104" cy="332.44444444444446" r="3" fill="#2563eb"></circle><circle class="dot" cx="445.88832487309645" cy="332.44444444444446" r="3" fill="#2563eb"></circle><circle class="dot" cx="449.5431472081218" cy="332.44444444444446" r="3" fill="#2563eb"></circle><circle class="dot" cx="453.1979695431472" cy="332.44444444444446" r="3" fill="#2563eb"></circle><circle class="dot" cx="456.8527918781726" cy="332.44444444444446" r="3" fill="#2563eb"></circle><circle class="dot" cx="460.507614213198" cy="332.44444444444446" r="3" fill="#2563eb"></circle><circle class="dot" cx="464.16243654822335" cy="332.44444444444446" r="3" fill="#2563eb"></circle><circle class="dot" cx="467.8172588832487" cy="332.44444444444446" r="3" fill="#2563eb"></circle><circle class="dot" cx="471.47208121827407" cy="332.44444444444446" r="3" fill="#2563eb"></circle><circle class="dot" cx="475.1269035532995" cy="332.44444444444446" r="3" fill="#2563eb"></circle><circle class="dot" cx="478.78172588832484" cy="332.44444444444446" r="3" fill="#2563eb"></circle><circle class="dot" cx="482.43654822335026" cy="332.44444444444446" r="3" fill="#2563eb"></circle><circle class="dot" cx="486.0913705583757" cy="332.44444444444446" r="3" fill="#2563eb"></circle><circle class="dot" cx="489.74619289340103" cy="332.44444444444446" r="3" fill="#2563eb"></circle><circle class="dot" cx="493.40101522842633" cy="332.44444444444446" r="3" fill="#2563eb"></circle><circle class="dot" cx="497.05583756345175" cy="332.44444444444446" r="3" fill="#2563eb"></circle><circle class="dot" cx="500.71065989847716" cy="332.44444444444446" r="3" fill="#2563eb"></circle><circle class="dot" cx="504.3654822335025" cy="332.44444444444446" r="3" fill="#2563eb"></circle><circle class="dot" cx="508.02030456852793" cy="332.44444444444446" r="3" fill="#2563eb"></circle><circle class="dot" cx="511.6751269035533" cy="332.44444444444446" r="3" fill="#2563eb"></circle><circle class="dot" cx="515.3299492385787" cy="332.44444444444446" r="3" fill="#2563eb"></circle><circle class="dot" cx="518.9847715736041" cy="332.44444444444446" r="3" fill="#2563eb"></circle><circle class="dot" cx="529.9492385786801" cy="332.44444444444446" r="3" fill="#2563eb"></circle><circle class="dot" cx="533.6040609137056" cy="332.44444444444446" r="3" fill="#2563eb"></circle><circle class="dot" cx="537.258883248731" cy="332.44444444444446" r="3" fill="#2563eb"></circle><circle class="dot" cx="540.9137055837564" cy="332.44444444444446" r="3" fill="#2563eb"></circle><circle class="dot" cx="544.5685279187818" cy="332.44444444444446" r="3" fill="#2563eb"></circle><circle class="dot" cx="548.2233502538071" cy="332.44444444444446" r="3" fill="#2563eb"></circle><circle class="dot" cx="551.8781725888325" cy="332.44444444444446" r="3" fill="#2563eb"></circle><circle class="dot" cx="555.5329949238578" cy="332.44444444444446" r="3" fill="#2563eb"></circle><circle class="dot" cx="559.1878172588832" cy="332.44444444444446" r="3" fill="#2563eb"></circle><circle class="dot" cx="562.8426395939086" cy="332.44444444444446" r="3" fill="#2563eb"></circle><circle class="dot" cx="566.4974619289341" cy="332.44444444444446" r="3" fill="#2563eb"></circle><circle class="dot" cx="570.1522842639595" cy="332.44444444444446" r="3" fill="#2563eb"></circle><circle class="dot" cx="573.8071065989848" cy="332.44444444444446" r="3" fill="#2563eb"></circle><circle class="dot" cx="577.4619289340101" cy="332.44444444444446" r="3" fill="#2563eb"></circle><circle class="dot" cx="581.1167512690355" cy="332.44444444444446" r="3" fill="#2563eb"></circle><circle class="dot" cx="584.7715736040609" cy="332.44444444444446" r="3" fill="#2563eb"></circle><circle class="dot" cx="588.4263959390863" cy="332.44444444444446" r="3" fill="#2563eb"></circle><circle class="dot" cx="592.0812182741117" cy="332.44444444444446" r="3" fill="#2563eb"></circle><circle class="dot" cx="595.736040609137" cy="332.44444444444446" r="3" fill="#2563eb"></circle><circle class="dot" cx="599.3908629441624" cy="332.44444444444446" r="3" fill="#2563eb"></circle><circle class="dot" cx="603.0456852791878" cy="332.44444444444446" r="3" fill="#2563eb"></circle><circle class="dot" cx="606.7005076142132" cy="332.44444444444446" r="3" fill="#2563eb"></circle><circle class="dot" cx="617.6649746192893" cy="332.44444444444446" r="3" fill="#2563eb"></circle><circle class="dot" cx="621.3197969543147" cy="332.44444444444446" r="3" fill="#2563eb"></circle><circle class="dot" cx="624.9746192893401" cy="332.44444444444446" r="3" fill="#2563eb"></circle><circle class="dot" cx="628.6294416243654" cy="332.44444444444446" r="3" fill="#2563eb"></circle><circle class="dot" cx="632.2842639593908" cy="332.44444444444446" r="3" fill="#2563eb"></circle><circle class="dot" cx="635.9390862944163" cy="332.44444444444446" r="3" fill="#2563eb"></circle><circle class="dot" cx="639.5939086294417" cy="332.44444444444446" r="3" fill="#2563eb"></circle><circle class="dot" cx="643.248730964467" cy="332.44444444444446" r="3" fill="#2563eb"></circle><circle class="dot" cx="646.9035532994924" cy="332.44444444444446" r="3" fill="#2563eb"></circle><circle class="dot" cx="650.5583756345178" cy="332.44444444444446" r="3" fill="#2563eb"></circle><circle class="dot" cx="654.2131979695431" cy="332.44444444444446" r="3" fill="#2563eb"></circle><circle class="dot" cx="657.8680203045685" cy="332.44444444444446" r="3" fill="#2563eb"></circle><circle class="dot" cx="661.5228426395939" cy="332.44444444444446" r="3" fill="#2563eb"></circle><circle class="dot" cx="665.1776649746192" cy="332.44444444444446" r="3" fill="#2563eb"></circle><circle class="dot" cx="668.8324873096446" cy="332.44444444444446" r="3" fill="#2563eb"></circle><circle class="dot" cx="672.4873096446701" cy="332.44444444444446" r="3" fill="#2563eb"></circle><circle class="dot" cx="676.1421319796955" cy="332.44444444444446" r="3" fill="#2563eb"></circle><circle class="dot" cx="679.7969543147209" cy="332.44444444444446" r="3" fill="#2563eb"></circle><circle class="dot" cx="683.4517766497462" cy="332.44444444444446" r="3" fill="#2563eb"></circle><circle class="dot" cx="687.1065989847716" cy="332.44444444444446" r="3" fill="#2563eb"></circle><circle class="dot" cx="690.7614213197969" cy="332.44444444444446" r="3" fill="#2563eb"></circle><circle class="dot" cx="694.4162436548223" cy="332.44444444444446" r="3" fill="#2563eb"></circle><circle class="dot" cx="705.3807106598986" cy="332.44444444444446" r="3" fill="#2563eb"></circle><circle class="dot" cx="712.6903553299492" cy="332.44444444444446" r="3" fill="#2563eb"></circle><circle class="dot" cx="716.3451776649746" cy="332.44444444444446" r="3" fill="#2563eb"></circle><circle class="dot" cx="720" cy="332.44444444444446" r="3" fill="#2563eb"></circle><g class="grid" transform="translate(0,340)" fill="none" font-size="10" font-family="sans-serif" text-anchor="middle" style="stroke-dasharray: 3,3; opacity: 0.3;"><path class="domain" stroke="currentColor" d="M0.5,-340V0.5H720.5V-340"></path><g class="tick" opacity="1" transform="translate(84.56091370558376,0)"><line stroke="currentColor" y2="-340"></line><text fill="currentColor" y="3" dy="0.71em"></text></g><g class="tick" opacity="1" transform="translate(172.2766497461929,0)"><line stroke="currentColor" y2="-340"></line><text fill="currentColor" y="3" dy="0.71em"></text></g><g class="tick" opacity="1" transform="translate(259.99238578680206,0)"><line stroke="currentColor" y2="-340"></line><text fill="currentColor" y="3" dy="0.71em"></text></g><g class="tick" opacity="1" transform="translate(347.70812182741116,0)"><line stroke="currentColor" y2="-340"></line><text fill="currentColor" y="3" dy="0.71em"></text></g><g class="tick" opacity="1" transform="translate(435.4238578680203,0)"><line stroke="currentColor" y2="-340"></line><text fill="currentColor" y="3" dy="0.71em"></text></g><g class="tick" opacity="1" transform="translate(523.1395939086294,0)"><line stroke="currentColor" y2="-340"></line><text fill="currentColor" y="3" dy="0.71em"></text></g><g class="tick" opacity="1" transform="translate(610.8553299492386,0)"><line stroke="currentColor" y2="-340"></line><text fill="currentColor" y="3" dy="0.71em"></text></g><g class="tick" opacity="1" transform="translate(698.5710659898477,0)"><line stroke="currentColor" y2="-340"></line><text fill="currentColor" y="3" dy="0.71em"></text></g></g><g class="grid" fill="none" font-size="10" font-family="sans-serif" text-anchor="end" style="stroke-dasharray: 3,3; opacity: 0.3;"><path class="domain" stroke="currentColor" d="M720,340.5H0.5V0.5H720"></path><g class="tick" opacity="1" transform="translate(0,340.5)"><line stroke="currentColor" x2="720"></line><text fill="currentColor" x="-3" dy="0.32em"></text></g><g class="tick" opacity="1" transform="translate(0,302.72222222222223)"><line stroke="currentColor" x2="720"></line><text fill="currentColor" x="-3" dy="0.32em"></text></g><g class="tick" opacity="1" transform="translate(0,264.94444444444446)"><line stroke="currentColor" x2="720"></line><text fill="currentColor" x="-3" dy="0.32em"></text></g><g class="tick" opacity="1" transform="translate(0,227.16666666666666)"><line stroke="currentColor" x2="720"></line><text fill="currentColor" x="-3" dy="0.32em"></text></g><g class="tick" opacity="1" transform="translate(0,189.38888888888889)"><line stroke="currentColor" x2="720"></line><text fill="currentColor" x="-3" dy="0.32em"></text></g><g class="tick" opacity="1" transform="translate(0,151.61111111111111)"><line stroke="currentColor" x2="720"></line><text fill="currentColor" x="-3" dy="0.32em"></text></g><g class="tick" opacity="1" transform="translate(0,113.83333333333334)"><line stroke="currentColor" x2="720"></line><text fill="currentColor" x="-3" dy="0.32em"></text></g><g class="tick" opacity="1" transform="translate(0,76.05555555555556)"><line stroke="currentColor" x2="720"></line><text fill="currentColor" x="-3" dy="0.32em"></text></g><g class="tick" opacity="1" transform="translate(0,38.27777777777776)"><line stroke="currentColor" x2="720"></line><text fill="currentColor" x="-3" dy="0.32em"></text></g><g class="tick" opacity="1" transform="translate(0,0.5)"><line stroke="currentColor" x2="720"></line><text fill="currentColor" x="-3" dy="0.32em"></text></g></g></g><text x="400" y="10" text-anchor="middle" style="font-size: 16px; font-weight: bold; fill: #333;">OKX USDT Lending Rate - Current Month</text></svg>