<svg width="800" height="400" xmlns="http://www.w3.org/2000/svg"><g transform="translate(50,20)"><g transform="translate(0,340)" fill="none" font-size="10" font-family="sans-serif" text-anchor="middle"><path class="domain" stroke="currentColor" d="M0.5,6V0.5H720.5V6"></path><g class="tick" opacity="1" transform="translate(0.5,0)"><line stroke="currentColor" y2="6"></line><text fill="currentColor" y="9" dy=".15em" style="text-anchor: end;" dx="-.8em" transform="rotate(-45)">02/01</text></g><g class="tick" opacity="1" transform="translate(71.61111111111111,0)"><line stroke="currentColor" y2="6"></line><text fill="currentColor" y="9" dy=".15em" style="text-anchor: end;" dx="-.8em" transform="rotate(-45)">02/02</text></g><g class="tick" opacity="1" transform="translate(142.72222222222223,0)"><line stroke="currentColor" y2="6"></line><text fill="currentColor" y="9" dy=".15em" style="text-anchor: end;" dx="-.8em" transform="rotate(-45)">02/03</text></g><g class="tick" opacity="1" transform="translate(213.83333333333331,0)"><line stroke="currentColor" y2="6"></line><text fill="currentColor" y="9" dy=".15em" style="text-anchor: end;" dx="-.8em" transform="rotate(-45)">02/04</text></g><g class="tick" opacity="1" transform="translate(284.94444444444446,0)"><line stroke="currentColor" y2="6"></line><text fill="currentColor" y="9" dy=".15em" style="text-anchor: end;" dx="-.8em" transform="rotate(-45)">02/05</text></g><g class="tick" opacity="1" transform="translate(356.05555555555554,0)"><line stroke="currentColor" y2="6"></line><text fill="currentColor" y="9" dy=".15em" style="text-anchor: end;" dx="-.8em" transform="rotate(-45)">02/06</text></g><g class="tick" opacity="1" transform="translate(427.16666666666663,0)"><line stroke="currentColor" y2="6"></line><text fill="currentColor" y="9" dy=".15em" style="text-anchor: end;" dx="-.8em" transform="rotate(-45)">02/07</text></g><g class="tick" opacity="1" transform="translate(498.27777777777777,0)"><line stroke="currentColor" y2="6"></line><text fill="currentColor" y="9" dy=".15em" style="text-anchor: end;" dx="-.8em" transform="rotate(-45)">02/08</text></g><g class="tick" opacity="1" transform="translate(569.3888888888889,0)"><line stroke="currentColor" y2="6"></line><text fill="currentColor" y="9" dy=".15em" style="text-anchor: end;" dx="-.8em" transform="rotate(-45)">02/09</text></g><g class="tick" opacity="1" transform="translate(640.5,0)"><line stroke="currentColor" y2="6"></line><text fill="currentColor" y="9" dy=".15em" style="text-anchor: end;" dx="-.8em" transform="rotate(-45)">02/10</text></g><g class="tick" opacity="1" transform="translate(711.6111111111111,0)"><line stroke="currentColor" y2="6"></line><text fill="currentColor" y="9" dy=".15em" style="text-anchor: end;" dx="-.8em" transform="rotate(-45)">02/11</text></g></g><g fill="none" font-size="10" font-family="sans-serif" text-anchor="end"><path class="domain" stroke="currentColor" d="M-6,340.5H0.5V0.5H-6"></path><g class="tick" opacity="1" transform="translate(0,340.5)"><line stroke="currentColor" x2="-6"></line><text fill="currentColor" x="-9" dy="0.32em">3.50%</text></g><g class="tick" opacity="1" transform="translate(0,317.8333333333334)"><line stroke="currentColor" x2="-6"></line><text fill="currentColor" x="-9" dy="0.32em">3.52%</text></g><g class="tick" opacity="1" transform="translate(0,295.16666666666686)"><line stroke="currentColor" x2="-6"></line><text fill="currentColor" x="-9" dy="0.32em">3.54%</text></g><g class="tick" opacity="1" transform="translate(0,272.50000000000034)"><line stroke="currentColor" x2="-6"></line><text fill="currentColor" x="-9" dy="0.32em">3.56%</text></g><g class="tick" opacity="1" transform="translate(0,249.83333333333374)"><line stroke="currentColor" x2="-6"></line><text fill="currentColor" x="-9" dy="0.32em">3.58%</text></g><g class="tick" opacity="1" transform="translate(0,227.16666666666717)"><line stroke="currentColor" x2="-6"></line><text fill="currentColor" x="-9" dy="0.32em">3.60%</text></g><g class="tick" opacity="1" transform="translate(0,204.49999999999983)"><line stroke="currentColor" x2="-6"></line><text fill="currentColor" x="-9" dy="0.32em">3.62%</text></g><g class="tick" opacity="1" transform="translate(0,181.8333333333333)"><line stroke="currentColor" x2="-6"></line><text fill="currentColor" x="-9" dy="0.32em">3.64%</text></g><g class="tick" opacity="1" transform="translate(0,159.1666666666667)"><line stroke="currentColor" x2="-6"></line><text fill="currentColor" x="-9" dy="0.32em">3.66%</text></g><g class="tick" opacity="1" transform="translate(0,136.50000000000017)"><line stroke="currentColor" x2="-6"></line><text fill="currentColor" x="-9" dy="0.32em">3.68%</text></g><g class="tick" opacity="1" transform="translate(0,113.83333333333361)"><line stroke="currentColor" x2="-6"></line><text fill="currentColor" x="-9" dy="0.32em">3.70%</text></g><g class="tick" opacity="1" transform="translate(0,91.16666666666703)"><line stroke="currentColor" x2="-6"></line><text fill="currentColor" x="-9" dy="0.32em">3.72%</text></g><g class="tick" opacity="1" transform="translate(0,68.49999999999969)"><line stroke="currentColor" x2="-6"></line><text fill="currentColor" x="-9" dy="0.32em">3.74%</text></g><g class="tick" opacity="1" transform="translate(0,45.83333333333314)"><line stroke="currentColor" x2="-6"></line><text fill="currentColor" x="-9" dy="0.32em">3.76%</text></g><g class="tick" opacity="1" transform="translate(0,23.166666666666547)"><line stroke="currentColor" x2="-6"></line><text fill="currentColor" x="-9" dy="0.32em">3.78%</text></g><g class="tick" opacity="1" transform="translate(0,0.5)"><line stroke="currentColor" x2="-6"></line><text fill="currentColor" x="-9" dy="0.32em">3.80%</text></g></g><text transform="rotate(-90)" y="-50" x="-170" dy="1em" style="text-anchor: middle; font-size: 12px; fill: #666;">Pre Rate (%)</text><text transform="translate(360, 380)" style="text-anchor: middle; font-size: 12px; fill: #666;">Time (UTC)</text><path fill="none" stroke="#2563eb" stroke-width="2" d="M0,0C0.988,0,1.975,0,2.963,0C3.951,0,4.938,0,5.926,0C6.914,0,7.901,0,8.889,0C9.877,0,10.864,0,11.852,0C12.84,0,13.827,0,14.815,0C15.802,0,16.79,0,17.778,0C18.765,0,19.753,0,20.741,0C21.728,0,22.716,0,23.704,0C24.691,0,25.679,0,26.667,0C27.654,0,28.642,0,29.63,0C30.617,0,31.605,0,32.593,0C33.58,0,34.568,0,35.556,0C36.543,0,37.531,0,38.519,0C39.506,0,40.494,0,41.481,0C42.469,0,43.457,0,44.444,0C45.432,0,46.42,0,47.407,0C48.395,0,49.383,0,50.37,0C51.358,0,52.346,0,53.333,0C54.321,0,55.309,0,56.296,0C57.284,0,58.272,0,59.259,0C60.247,0,61.235,0,62.222,0C63.21,0,64.198,0,65.185,0C66.173,0,67.16,0,68.148,0C69.136,0,70.123,0,71.111,0C72.099,0,73.086,0,74.074,0C75.062,0,76.049,0,77.037,0C78.025,0,79.012,0,80,0C80.988,0,81.975,0,82.963,0C83.951,0,84.938,0,85.926,0C86.914,0,87.901,0,88.889,0C89.877,0,90.864,0,91.852,0C92.84,0,93.827,0,94.815,0C95.802,0,96.79,0,97.778,0C98.765,0,99.753,0,100.741,0C101.728,0,102.716,0,103.704,0C104.691,0,105.679,0,106.667,0C107.654,0,108.642,0,109.63,0C110.617,0,111.605,0,112.593,0C113.58,0,114.568,0,115.556,0C116.543,0,117.531,0,118.519,0C119.506,0,120.494,0,121.481,0C122.469,0,123.457,0,124.444,0C125.432,0,126.42,0,127.407,0C128.395,0,129.383,0,130.37,0C131.358,0,132.346,0,133.333,0C134.321,0,135.309,0,136.296,0C137.284,0,138.272,0,139.259,0C140.247,0,141.235,0,142.222,0C143.21,0,144.198,0,145.185,0C146.173,0,147.16,0,148.148,0C149.136,0,150.123,0,151.111,0C152.099,0,153.086,0,154.074,0C155.062,0,156.049,0,157.037,0C158.025,0,159.012,0,160,0C160.988,0,161.975,0,162.963,0C163.951,0,164.938,0,165.926,0C166.914,0,167.901,0,168.889,0C169.877,0,170.864,0,171.852,0C172.84,0,173.827,0,174.815,0C175.802,0,176.79,0,177.778,0C178.765,0,179.753,0,180.741,0C181.728,0,182.716,0,183.704,0C184.691,0,185.679,0,186.667,0C187.654,0,188.642,0,189.63,0C190.617,0,191.605,0,192.593,0C193.58,0,194.568,0,195.556,0C196.543,0,197.531,0,198.519,0C199.506,0,200.494,0,201.481,0C202.469,0,203.457,0,204.444,0C205.432,0,206.42,0,207.407,0C208.395,0,209.383,0,210.37,0C211.358,0,212.346,0,213.333,0C214.321,0,215.309,0,216.296,0C217.284,0,218.272,0,219.259,0C220.247,0,221.235,0,222.222,0C223.21,0,224.198,0,225.185,0C226.173,0,227.16,0,228.148,0C229.136,0,230.123,0,231.111,0C232.099,0,233.086,0,234.074,0C235.062,0,236.049,0,237.037,0C238.025,0,239.012,0,240,0C240.988,0,241.975,0,242.963,0C243.951,0,244.938,0,245.926,0C246.914,0,247.901,0,248.889,0C249.877,0,250.864,0,251.852,0C252.84,0,253.827,340,254.815,340C255.802,340,256.79,340,257.778,340C258.765,340,259.753,340,260.741,340C261.728,340,262.716,340,263.704,340C264.691,340,265.679,340,266.667,340C267.654,340,268.642,340,269.63,340C270.617,340,271.605,340,272.593,340C273.58,340,274.568,340,275.556,340C276.543,340,277.531,340,278.519,340C279.506,340,280.494,340,281.481,340C282.469,340,283.457,340,284.444,340C285.432,340,286.42,340,287.407,340C288.395,340,289.383,340,290.37,340C291.358,340,292.346,340,293.333,340C294.321,340,295.309,340,296.296,340C297.284,340,298.272,340,299.259,340C300.247,340,301.235,340,302.222,340C303.21,340,304.198,340,305.185,340C306.173,340,307.16,340,308.148,340C309.136,340,310.123,340,311.111,340C312.099,340,313.086,340,314.074,340C315.062,340,316.049,340,317.037,340C318.025,340,319.012,340,320,340C320.988,340,321.975,340,322.963,340C323.951,340,324.938,340,325.926,340C326.914,340,327.901,340,328.889,340C329.877,340,330.864,340,331.852,340C332.84,340,333.827,340,334.815,340C335.802,340,336.79,340,337.778,340C338.765,340,339.753,340,340.741,340C341.728,340,342.716,340,343.704,340C344.691,340,345.679,340,346.667,340C347.654,340,348.642,340,349.63,340C350.617,340,351.605,340,352.593,340C353.58,340,354.568,340,355.556,340C356.543,340,357.531,340,358.519,340C359.506,340,360.494,340,361.481,340C362.469,340,363.457,340,364.444,340C365.432,340,366.42,340,367.407,340C368.395,340,369.383,340,370.37,340C371.358,340,372.346,340,373.333,340C374.321,340,375.309,340,376.296,340C377.284,340,378.272,340,379.259,340C380.247,340,381.235,340,382.222,340C383.21,340,384.198,340,385.185,340C386.173,340,387.16,340,388.148,340C389.136,340,390.123,340,391.111,340C392.099,340,393.086,340,394.074,340C395.062,340,396.049,340,397.037,340C398.025,340,399.012,340,400,340C400.988,340,401.975,340,402.963,340C403.951,340,404.938,340,405.926,340C406.914,340,407.901,340,408.889,340C409.877,340,410.864,340,411.852,340C412.84,340,413.827,340,414.815,340C415.802,340,416.79,340,417.778,340C418.765,340,419.753,340,420.741,340C421.728,340,422.716,340,423.704,340C424.691,340,425.679,340,426.667,340C427.654,340,428.642,340,429.63,340C430.617,340,431.605,340,432.593,340C433.58,340,434.568,340,435.556,340C436.543,340,437.531,340,438.519,340C439.506,340,440.494,340,441.481,340C442.469,340,443.457,340,444.444,340C445.432,340,446.42,340,447.407,340C448.395,340,449.383,340,450.37,340C451.358,340,452.346,340,453.333,340C454.321,340,455.309,340,456.296,340C457.284,340,458.272,340,459.259,340C460.247,340,461.235,340,462.222,340C463.21,340,464.198,340,465.185,340C466.173,340,467.16,340,468.148,340C469.136,340,470.123,340,471.111,340C472.099,340,473.086,340,474.074,340C475.062,340,476.049,340,477.037,340C478.025,340,479.012,340,480,340C480.988,340,481.975,340,482.963,340C483.951,340,484.938,340,485.926,340C486.914,340,487.901,340,488.889,340C489.877,340,490.864,340,491.852,340C492.84,340,493.827,340,494.815,340C495.802,340,496.79,340,497.778,340C498.765,340,499.753,340,500.741,340C501.728,340,502.716,340,503.704,340C504.691,340,505.679,340,506.667,340C507.654,340,508.642,340,509.63,340C510.617,340,511.605,340,512.593,340C513.58,340,514.568,340,515.556,340C516.543,340,517.531,340,518.519,340C519.506,340,520.494,340,521.481,340C522.469,340,523.457,340,524.444,340C525.432,340,526.42,340,527.407,340C528.395,340,529.383,340,530.37,340C531.358,340,532.346,340,533.333,340C534.321,340,535.309,340,536.296,340C537.284,340,538.272,340,539.259,340C540.247,340,541.235,340,542.222,340C543.21,340,544.198,340,545.185,340C546.173,340,547.16,340,548.148,340C549.136,340,550.123,340,551.111,340C552.099,340,553.086,340,554.074,340C555.062,340,556.049,340,557.037,340C558.025,340,559.012,340,560,340C560.988,340,561.975,340,562.963,340C563.951,340,564.938,340,565.926,340C566.914,340,567.901,340,568.889,340C569.877,340,570.864,340,571.852,340C572.84,340,573.827,340,574.815,340C575.802,340,576.79,340,577.778,340C578.765,340,579.753,340,580.741,340C581.728,340,582.716,340,583.704,340C584.691,340,585.679,340,586.667,340C587.654,340,588.642,340,589.63,340C590.617,340,591.605,340,592.593,340C593.58,340,594.568,340,595.556,340C596.543,340,597.531,340,598.519,340C599.506,340,600.494,340,601.481,340C602.469,340,603.457,340,604.444,340C605.432,340,606.42,340,607.407,340C608.395,340,609.383,340,610.37,340C611.358,340,612.346,340,613.333,340C614.321,340,615.309,340,616.296,340C617.284,340,618.272,340,619.259,340C620.247,340,621.235,340,622.222,340C623.21,340,624.198,340,625.185,340C626.173,340,627.16,340,628.148,340C629.136,340,630.123,340,631.111,340C632.099,340,633.086,340,634.074,340C635.062,340,636.049,340,637.037,340C638.025,340,639.012,340,640,340C640.988,340,641.975,340,642.963,340C643.951,340,644.938,340,645.926,340C646.914,340,647.901,340,648.889,340C649.877,340,650.864,340,651.852,340C652.84,340,653.827,340,654.815,340C655.802,340,656.79,340,657.778,340C658.765,340,659.753,340,660.741,340C661.728,340,662.716,340,663.704,340C664.691,340,665.679,340,666.667,340C667.654,340,668.642,340,669.63,340C670.617,340,671.605,340,672.593,340C673.58,340,674.568,340,675.556,340C676.543,340,677.531,340,678.519,340C679.506,340,680.494,340,681.481,340C682.469,340,683.457,340,684.444,340C685.432,340,686.42,340,687.407,340C688.395,340,689.383,340,690.37,340C691.358,340,692.346,340,693.333,340C694.321,340,695.309,340,696.296,340C697.284,340,698.272,340,699.259,340C700.247,340,701.235,340,702.222,340C703.21,340,704.198,340,705.185,340C706.173,340,707.16,340,708.148,340C709.136,340,710.123,340,711.111,340C712.099,340,713.086,340,714.074,340C715.062,340,716.049,340,717.037,340C718.025,340,719.012,340,720,340"></path><circle class="dot" cx="0" cy="0" r="3" fill="#2563eb"></circle><circle class="dot" cx="2.9629629629629632" cy="0" r="3" fill="#2563eb"></circle><circle class="dot" cx="5.9259259259259265" cy="0" r="3" fill="#2563eb"></circle><circle class="dot" cx="8.88888888888889" cy="0" r="3" fill="#2563eb"></circle><circle class="dot" cx="11.851851851851853" cy="0" r="3" fill="#2563eb"></circle><circle class="dot" cx="14.814814814814815" cy="0" r="3" fill="#2563eb"></circle><circle class="dot" cx="17.77777777777778" cy="0" r="3" fill="#2563eb"></circle><circle class="dot" cx="20.74074074074074" cy="0" r="3" fill="#2563eb"></circle><circle class="dot" cx="23.703703703703706" cy="0" r="3" fill="#2563eb"></circle><circle class="dot" cx="26.666666666666664" cy="0" r="3" fill="#2563eb"></circle><circle class="dot" cx="29.62962962962963" cy="0" r="3" fill="#2563eb"></circle><circle class="dot" cx="32.592592592592595" cy="0" r="3" fill="#2563eb"></circle><circle class="dot" cx="35.55555555555556" cy="0" r="3" fill="#2563eb"></circle><circle class="dot" cx="38.51851851851852" cy="0" r="3" fill="#2563eb"></circle><circle class="dot" cx="41.48148148148148" cy="0" r="3" fill="#2563eb"></circle><circle class="dot" cx="44.44444444444444" cy="0" r="3" fill="#2563eb"></circle><circle class="dot" cx="47.40740740740741" cy="0" r="3" fill="#2563eb"></circle><circle class="dot" cx="50.370370370370374" cy="0" r="3" fill="#2563eb"></circle><circle class="dot" cx="53.33333333333333" cy="0" r="3" fill="#2563eb"></circle><circle class="dot" cx="56.2962962962963" cy="0" r="3" fill="#2563eb"></circle><circle class="dot" cx="59.25925925925926" cy="0" r="3" fill="#2563eb"></circle><circle class="dot" cx="62.22222222222222" cy="0" r="3" fill="#2563eb"></circle><circle class="dot" cx="65.18518518518519" cy="0" r="3" fill="#2563eb"></circle><circle class="dot" cx="68.14814814814815" cy="0" r="3" fill="#2563eb"></circle><circle class="dot" cx="71.11111111111111" cy="0" r="3" fill="#2563eb"></circle><circle class="dot" cx="74.07407407407408" cy="0" r="3" fill="#2563eb"></circle><circle class="dot" cx="77.03703703703704" cy="0" r="3" fill="#2563eb"></circle><circle class="dot" cx="80" cy="0" r="3" fill="#2563eb"></circle><circle class="dot" cx="82.96296296296296" cy="0" r="3" fill="#2563eb"></circle><circle class="dot" cx="85.92592592592592" cy="0" r="3" fill="#2563eb"></circle><circle class="dot" cx="88.88888888888889" cy="0" r="3" fill="#2563eb"></circle><circle class="dot" cx="91.85185185185185" cy="0" r="3" fill="#2563eb"></circle><circle class="dot" cx="94.81481481481482" cy="0" r="3" fill="#2563eb"></circle><circle class="dot" cx="97.77777777777777" cy="0" r="3" fill="#2563eb"></circle><circle class="dot" cx="100.74074074074075" cy="0" r="3" fill="#2563eb"></circle><circle class="dot" cx="103.70370370370371" cy="0" r="3" fill="#2563eb"></circle><circle class="dot" cx="106.66666666666666" cy="0" r="3" fill="#2563eb"></circle><circle class="dot" cx="109.62962962962963" cy="0" r="3" fill="#2563eb"></circle><circle class="dot" cx="112.5925925925926" cy="0" r="3" fill="#2563eb"></circle><circle class="dot" cx="115.55555555555554" cy="0" r="3" fill="#2563eb"></circle><circle class="dot" cx="118.51851851851852" cy="0" r="3" fill="#2563eb"></circle><circle class="dot" cx="121.4814814814815" cy="0" r="3" fill="#2563eb"></circle><circle class="dot" cx="124.44444444444444" cy="0" r="3" fill="#2563eb"></circle><circle class="dot" cx="127.4074074074074" cy="0" r="3" fill="#2563eb"></circle><circle class="dot" cx="130.37037037037038" cy="0" r="3" fill="#2563eb"></circle><circle class="dot" cx="133.33333333333331" cy="0" r="3" fill="#2563eb"></circle><circle class="dot" cx="136.2962962962963" cy="0" r="3" fill="#2563eb"></circle><circle class="dot" cx="139.25925925925927" cy="0" r="3" fill="#2563eb"></circle><circle class="dot" cx="142.22222222222223" cy="0" r="3" fill="#2563eb"></circle><circle class="dot" cx="145.1851851851852" cy="0" r="3" fill="#2563eb"></circle><circle class="dot" cx="148.14814814814815" cy="0" r="3" fill="#2563eb"></circle><circle class="dot" cx="151.11111111111111" cy="0" r="3" fill="#2563eb"></circle><circle class="dot" cx="154.07407407407408" cy="0" r="3" fill="#2563eb"></circle><circle class="dot" cx="157.03703703703704" cy="0" r="3" fill="#2563eb"></circle><circle class="dot" cx="160" cy="0" r="3" fill="#2563eb"></circle><circle class="dot" cx="162.96296296296296" cy="0" r="3" fill="#2563eb"></circle><circle class="dot" cx="165.92592592592592" cy="0" r="3" fill="#2563eb"></circle><circle class="dot" cx="168.88888888888889" cy="0" r="3" fill="#2563eb"></circle><circle class="dot" cx="171.85185185185185" cy="0" r="3" fill="#2563eb"></circle><circle class="dot" cx="174.8148148148148" cy="0" r="3" fill="#2563eb"></circle><circle class="dot" cx="177.77777777777777" cy="0" r="3" fill="#2563eb"></circle><circle class="dot" cx="180.74074074074076" cy="0" r="3" fill="#2563eb"></circle><circle class="dot" cx="183.7037037037037" cy="0" r="3" fill="#2563eb"></circle><circle class="dot" cx="186.66666666666666" cy="0" r="3" fill="#2563eb"></circle><circle class="dot" cx="189.62962962962965" cy="0" r="3" fill="#2563eb"></circle><circle class="dot" cx="192.5925925925926" cy="0" r="3" fill="#2563eb"></circle><circle class="dot" cx="195.55555555555554" cy="0" r="3" fill="#2563eb"></circle><circle class="dot" cx="198.51851851851853" cy="0" r="3" fill="#2563eb"></circle><circle class="dot" cx="201.4814814814815" cy="0" r="3" fill="#2563eb"></circle><circle class="dot" cx="204.44444444444443" cy="0" r="3" fill="#2563eb"></circle><circle class="dot" cx="207.40740740740742" cy="0" r="3" fill="#2563eb"></circle><circle class="dot" cx="210.37037037037038" cy="0" r="3" fill="#2563eb"></circle><circle class="dot" cx="213.33333333333331" cy="0" r="3" fill="#2563eb"></circle><circle class="dot" cx="216.2962962962963" cy="0" r="3" fill="#2563eb"></circle><circle class="dot" cx="219.25925925925927" cy="0" r="3" fill="#2563eb"></circle><circle class="dot" cx="222.2222222222222" cy="0" r="3" fill="#2563eb"></circle><circle class="dot" cx="225.1851851851852" cy="0" r="3" fill="#2563eb"></circle><circle class="dot" cx="228.14814814814815" cy="0" r="3" fill="#2563eb"></circle><circle class="dot" cx="231.1111111111111" cy="0" r="3" fill="#2563eb"></circle><circle class="dot" cx="234.07407407407408" cy="0" r="3" fill="#2563eb"></circle><circle class="dot" cx="237.03703703703704" cy="0" r="3" fill="#2563eb"></circle><circle class="dot" cx="240" cy="0" r="3" fill="#2563eb"></circle><circle class="dot" cx="242.962962962963" cy="0" r="3" fill="#2563eb"></circle><circle class="dot" cx="245.92592592592592" cy="0" r="3" fill="#2563eb"></circle><circle class="dot" cx="248.88888888888889" cy="0" r="3" fill="#2563eb"></circle><circle class="dot" cx="251.85185185185188" cy="0" r="3" fill="#2563eb"></circle><circle class="dot" cx="254.8148148148148" cy="340" r="3" fill="#2563eb"></circle><circle class="dot" cx="257.77777777777777" cy="340" r="3" fill="#2563eb"></circle><circle class="dot" cx="260.74074074074076" cy="340" r="3" fill="#2563eb"></circle><circle class="dot" cx="263.7037037037037" cy="340" r="3" fill="#2563eb"></circle><circle class="dot" cx="266.66666666666663" cy="340" r="3" fill="#2563eb"></circle><circle class="dot" cx="269.6296296296296" cy="340" r="3" fill="#2563eb"></circle><circle class="dot" cx="272.5925925925926" cy="340" r="3" fill="#2563eb"></circle><circle class="dot" cx="275.55555555555554" cy="340" r="3" fill="#2563eb"></circle><circle class="dot" cx="278.51851851851853" cy="340" r="3" fill="#2563eb"></circle><circle class="dot" cx="281.48148148148147" cy="340" r="3" fill="#2563eb"></circle><circle class="dot" cx="284.44444444444446" cy="340" r="3" fill="#2563eb"></circle><circle class="dot" cx="287.4074074074074" cy="340" r="3" fill="#2563eb"></circle><circle class="dot" cx="290.3703703703704" cy="340" r="3" fill="#2563eb"></circle><circle class="dot" cx="293.3333333333333" cy="340" r="3" fill="#2563eb"></circle><circle class="dot" cx="296.2962962962963" cy="340" r="3" fill="#2563eb"></circle><circle class="dot" cx="299.25925925925924" cy="340" r="3" fill="#2563eb"></circle><circle class="dot" cx="302.22222222222223" cy="340" r="3" fill="#2563eb"></circle><circle class="dot" cx="305.1851851851852" cy="340" r="3" fill="#2563eb"></circle><circle class="dot" cx="308.14814814814815" cy="340" r="3" fill="#2563eb"></circle><circle class="dot" cx="311.1111111111111" cy="340" r="3" fill="#2563eb"></circle><circle class="dot" cx="314.0740740740741" cy="340" r="3" fill="#2563eb"></circle><circle class="dot" cx="317.037037037037" cy="340" r="3" fill="#2563eb"></circle><circle class="dot" cx="320" cy="340" r="3" fill="#2563eb"></circle><circle class="dot" cx="322.962962962963" cy="340" r="3" fill="#2563eb"></circle><circle class="dot" cx="325.9259259259259" cy="340" r="3" fill="#2563eb"></circle><circle class="dot" cx="328.88888888888886" cy="340" r="3" fill="#2563eb"></circle><circle class="dot" cx="331.85185185185185" cy="340" r="3" fill="#2563eb"></circle><circle class="dot" cx="334.8148148148148" cy="340" r="3" fill="#2563eb"></circle><circle class="dot" cx="337.77777777777777" cy="340" r="3" fill="#2563eb"></circle><circle class="dot" cx="340.74074074074076" cy="340" r="3" fill="#2563eb"></circle><circle class="dot" cx="343.7037037037037" cy="340" r="3" fill="#2563eb"></circle><circle class="dot" cx="346.66666666666663" cy="340" r="3" fill="#2563eb"></circle><circle class="dot" cx="349.6296296296296" cy="340" r="3" fill="#2563eb"></circle><circle class="dot" cx="352.5925925925926" cy="340" r="3" fill="#2563eb"></circle><circle class="dot" cx="355.55555555555554" cy="340" r="3" fill="#2563eb"></circle><circle class="dot" cx="358.51851851851853" cy="340" r="3" fill="#2563eb"></circle><circle class="dot" cx="361.4814814814815" cy="340" r="3" fill="#2563eb"></circle><circle class="dot" cx="364.44444444444446" cy="340" r="3" fill="#2563eb"></circle><circle class="dot" cx="367.4074074074074" cy="340" r="3" fill="#2563eb"></circle><circle class="dot" cx="370.3703703703704" cy="340" r="3" fill="#2563eb"></circle><circle class="dot" cx="373.3333333333333" cy="340" r="3" fill="#2563eb"></circle><circle class="dot" cx="376.29629629629625" cy="340" r="3" fill="#2563eb"></circle><circle class="dot" cx="379.2592592592593" cy="340" r="3" fill="#2563eb"></circle><circle class="dot" cx="382.22222222222223" cy="340" r="3" fill="#2563eb"></circle><circle class="dot" cx="385.1851851851852" cy="340" r="3" fill="#2563eb"></circle><circle class="dot" cx="388.14814814814815" cy="340" r="3" fill="#2563eb"></circle><circle class="dot" cx="391.1111111111111" cy="340" r="3" fill="#2563eb"></circle><circle class="dot" cx="394.074074074074" cy="340" r="3" fill="#2563eb"></circle><circle class="dot" cx="397.03703703703707" cy="340" r="3" fill="#2563eb"></circle><circle class="dot" cx="400" cy="340" r="3" fill="#2563eb"></circle><circle class="dot" cx="402.962962962963" cy="340" r="3" fill="#2563eb"></circle><circle class="dot" cx="405.9259259259259" cy="340" r="3" fill="#2563eb"></circle><circle class="dot" cx="408.88888888888886" cy="340" r="3" fill="#2563eb"></circle><circle class="dot" cx="411.8518518518518" cy="340" r="3" fill="#2563eb"></circle><circle class="dot" cx="414.81481481481484" cy="340" r="3" fill="#2563eb"></circle><circle class="dot" cx="417.77777777777777" cy="340" r="3" fill="#2563eb"></circle><circle class="dot" cx="420.74074074074076" cy="340" r="3" fill="#2563eb"></circle><circle class="dot" cx="423.7037037037037" cy="340" r="3" fill="#2563eb"></circle><circle class="dot" cx="426.66666666666663" cy="340" r="3" fill="#2563eb"></circle><circle class="dot" cx="429.6296296296296" cy="340" r="3" fill="#2563eb"></circle><circle class="dot" cx="432.5925925925926" cy="340" r="3" fill="#2563eb"></circle><circle class="dot" cx="435.55555555555554" cy="340" r="3" fill="#2563eb"></circle><circle class="dot" cx="438.51851851851853" cy="340" r="3" fill="#2563eb"></circle><circle class="dot" cx="441.48148148148147" cy="340" r="3" fill="#2563eb"></circle><circle class="dot" cx="444.4444444444444" cy="340" r="3" fill="#2563eb"></circle><circle class="dot" cx="447.4074074074074" cy="340" r="3" fill="#2563eb"></circle><circle class="dot" cx="450.3703703703704" cy="340" r="3" fill="#2563eb"></circle><circle class="dot" cx="453.33333333333337" cy="340" r="3" fill="#2563eb"></circle><circle class="dot" cx="456.2962962962963" cy="340" r="3" fill="#2563eb"></circle><circle class="dot" cx="459.25925925925924" cy="340" r="3" fill="#2563eb"></circle><circle class="dot" cx="462.2222222222222" cy="340" r="3" fill="#2563eb"></circle><circle class="dot" cx="465.18518518518516" cy="340" r="3" fill="#2563eb"></circle><circle class="dot" cx="468.14814814814815" cy="340" r="3" fill="#2563eb"></circle><circle class="dot" cx="471.11111111111114" cy="340" r="3" fill="#2563eb"></circle><circle class="dot" cx="474.0740740740741" cy="340" r="3" fill="#2563eb"></circle><circle class="dot" cx="477.037037037037" cy="340" r="3" fill="#2563eb"></circle><circle class="dot" cx="480" cy="340" r="3" fill="#2563eb"></circle><circle class="dot" cx="482.962962962963" cy="340" r="3" fill="#2563eb"></circle><circle class="dot" cx="485.925925925926" cy="340" r="3" fill="#2563eb"></circle><circle class="dot" cx="488.8888888888889" cy="340" r="3" fill="#2563eb"></circle><circle class="dot" cx="491.85185185185185" cy="340" r="3" fill="#2563eb"></circle><circle class="dot" cx="494.8148148148148" cy="340" r="3" fill="#2563eb"></circle><circle class="dot" cx="497.77777777777777" cy="340" r="3" fill="#2563eb"></circle><circle class="dot" cx="500.74074074074076" cy="340" r="3" fill="#2563eb"></circle><circle class="dot" cx="503.70370370370375" cy="340" r="3" fill="#2563eb"></circle><circle class="dot" cx="506.6666666666667" cy="340" r="3" fill="#2563eb"></circle><circle class="dot" cx="509.6296296296296" cy="340" r="3" fill="#2563eb"></circle><circle class="dot" cx="512.5925925925926" cy="340" r="3" fill="#2563eb"></circle><circle class="dot" cx="515.5555555555555" cy="340" r="3" fill="#2563eb"></circle><circle class="dot" cx="518.5185185185186" cy="340" r="3" fill="#2563eb"></circle><circle class="dot" cx="521.4814814814815" cy="340" r="3" fill="#2563eb"></circle><circle class="dot" cx="524.4444444444445" cy="340" r="3" fill="#2563eb"></circle><circle class="dot" cx="527.4074074074074" cy="340" r="3" fill="#2563eb"></circle><circle class="dot" cx="530.3703703703703" cy="340" r="3" fill="#2563eb"></circle><circle class="dot" cx="533.3333333333333" cy="340" r="3" fill="#2563eb"></circle><circle class="dot" cx="536.2962962962963" cy="340" r="3" fill="#2563eb"></circle><circle class="dot" cx="539.2592592592592" cy="340" r="3" fill="#2563eb"></circle><circle class="dot" cx="542.2222222222223" cy="340" r="3" fill="#2563eb"></circle><circle class="dot" cx="545.1851851851852" cy="340" r="3" fill="#2563eb"></circle><circle class="dot" cx="548.1481481481482" cy="340" r="3" fill="#2563eb"></circle><circle class="dot" cx="551.1111111111111" cy="340" r="3" fill="#2563eb"></circle><circle class="dot" cx="554.0740740740741" cy="340" r="3" fill="#2563eb"></circle><circle class="dot" cx="557.0370370370371" cy="340" r="3" fill="#2563eb"></circle><circle class="dot" cx="560" cy="340" r="3" fill="#2563eb"></circle><circle class="dot" cx="562.9629629629629" cy="340" r="3" fill="#2563eb"></circle><circle class="dot" cx="565.9259259259259" cy="340" r="3" fill="#2563eb"></circle><circle class="dot" cx="568.8888888888889" cy="340" r="3" fill="#2563eb"></circle><circle class="dot" cx="571.8518518518518" cy="340" r="3" fill="#2563eb"></circle><circle class="dot" cx="574.8148148148148" cy="340" r="3" fill="#2563eb"></circle><circle class="dot" cx="577.7777777777778" cy="340" r="3" fill="#2563eb"></circle><circle class="dot" cx="580.7407407407408" cy="340" r="3" fill="#2563eb"></circle><circle class="dot" cx="583.7037037037037" cy="340" r="3" fill="#2563eb"></circle><circle class="dot" cx="586.6666666666666" cy="340" r="3" fill="#2563eb"></circle><circle class="dot" cx="589.6296296296297" cy="340" r="3" fill="#2563eb"></circle><circle class="dot" cx="592.5925925925926" cy="340" r="3" fill="#2563eb"></circle><circle class="dot" cx="595.5555555555555" cy="340" r="3" fill="#2563eb"></circle><circle class="dot" cx="598.5185185185185" cy="340" r="3" fill="#2563eb"></circle><circle class="dot" cx="601.4814814814814" cy="340" r="3" fill="#2563eb"></circle><circle class="dot" cx="604.4444444444445" cy="340" r="3" fill="#2563eb"></circle><circle class="dot" cx="607.4074074074074" cy="340" r="3" fill="#2563eb"></circle><circle class="dot" cx="610.3703703703704" cy="340" r="3" fill="#2563eb"></circle><circle class="dot" cx="613.3333333333334" cy="340" r="3" fill="#2563eb"></circle><circle class="dot" cx="616.2962962962963" cy="340" r="3" fill="#2563eb"></circle><circle class="dot" cx="619.2592592592592" cy="340" r="3" fill="#2563eb"></circle><circle class="dot" cx="622.2222222222222" cy="340" r="3" fill="#2563eb"></circle><circle class="dot" cx="625.1851851851852" cy="340" r="3" fill="#2563eb"></circle><circle class="dot" cx="628.1481481481482" cy="340" r="3" fill="#2563eb"></circle><circle class="dot" cx="631.1111111111111" cy="340" r="3" fill="#2563eb"></circle><circle class="dot" cx="634.074074074074" cy="340" r="3" fill="#2563eb"></circle><circle class="dot" cx="637.0370370370371" cy="340" r="3" fill="#2563eb"></circle><circle class="dot" cx="640" cy="340" r="3" fill="#2563eb"></circle><circle class="dot" cx="642.962962962963" cy="340" r="3" fill="#2563eb"></circle><circle class="dot" cx="645.925925925926" cy="340" r="3" fill="#2563eb"></circle><circle class="dot" cx="648.8888888888889" cy="340" r="3" fill="#2563eb"></circle><circle class="dot" cx="651.8518518518518" cy="340" r="3" fill="#2563eb"></circle><circle class="dot" cx="654.8148148148148" cy="340" r="3" fill="#2563eb"></circle><circle class="dot" cx="657.7777777777777" cy="340" r="3" fill="#2563eb"></circle><circle class="dot" cx="660.7407407407408" cy="340" r="3" fill="#2563eb"></circle><circle class="dot" cx="663.7037037037037" cy="340" r="3" fill="#2563eb"></circle><circle class="dot" cx="666.6666666666666" cy="340" r="3" fill="#2563eb"></circle><circle class="dot" cx="669.6296296296296" cy="340" r="3" fill="#2563eb"></circle><circle class="dot" cx="672.5925925925926" cy="340" r="3" fill="#2563eb"></circle><circle class="dot" cx="675.5555555555555" cy="340" r="3" fill="#2563eb"></circle><circle class="dot" cx="678.5185185185186" cy="340" r="3" fill="#2563eb"></circle><circle class="dot" cx="681.4814814814815" cy="340" r="3" fill="#2563eb"></circle><circle class="dot" cx="684.4444444444445" cy="340" r="3" fill="#2563eb"></circle><circle class="dot" cx="687.4074074074074" cy="340" r="3" fill="#2563eb"></circle><circle class="dot" cx="690.3703703703703" cy="340" r="3" fill="#2563eb"></circle><circle class="dot" cx="693.3333333333333" cy="340" r="3" fill="#2563eb"></circle><circle class="dot" cx="696.2962962962963" cy="340" r="3" fill="#2563eb"></circle><circle class="dot" cx="699.2592592592592" cy="340" r="3" fill="#2563eb"></circle><circle class="dot" cx="702.2222222222222" cy="340" r="3" fill="#2563eb"></circle><circle class="dot" cx="705.1851851851852" cy="340" r="3" fill="#2563eb"></circle><circle class="dot" cx="708.1481481481482" cy="340" r="3" fill="#2563eb"></circle><circle class="dot" cx="711.1111111111111" cy="340" r="3" fill="#2563eb"></circle><circle class="dot" cx="714.0740740740741" cy="340" r="3" fill="#2563eb"></circle><circle class="dot" cx="717.0370370370371" cy="340" r="3" fill="#2563eb"></circle><circle class="dot" cx="720" cy="340" r="3" fill="#2563eb"></circle><g class="grid" transform="translate(0,340)" fill="none" font-size="10" font-family="sans-serif" text-anchor="middle" style="stroke-dasharray: 3,3; opacity: 0.3;"><path class="domain" stroke="currentColor" d="M0.5,-340V0.5H720.5V-340"></path><g class="tick" opacity="1" transform="translate(0.5,0)"><line stroke="currentColor" y2="-340"></line><text fill="currentColor" y="3" dy="0.71em"></text></g><g class="tick" opacity="1" transform="translate(71.61111111111111,0)"><line stroke="currentColor" y2="-340"></line><text fill="currentColor" y="3" dy="0.71em"></text></g><g class="tick" opacity="1" transform="translate(142.72222222222223,0)"><line stroke="currentColor" y2="-340"></line><text fill="currentColor" y="3" dy="0.71em"></text></g><g class="tick" opacity="1" transform="translate(213.83333333333331,0)"><line stroke="currentColor" y2="-340"></line><text fill="currentColor" y="3" dy="0.71em"></text></g><g class="tick" opacity="1" transform="translate(284.94444444444446,0)"><line stroke="currentColor" y2="-340"></line><text fill="currentColor" y="3" dy="0.71em"></text></g><g class="tick" opacity="1" transform="translate(356.05555555555554,0)"><line stroke="currentColor" y2="-340"></line><text fill="currentColor" y="3" dy="0.71em"></text></g><g class="tick" opacity="1" transform="translate(427.16666666666663,0)"><line stroke="currentColor" y2="-340"></line><text fill="currentColor" y="3" dy="0.71em"></text></g><g class="tick" opacity="1" transform="translate(498.27777777777777,0)"><line stroke="currentColor" y2="-340"></line><text fill="currentColor" y="3" dy="0.71em"></text></g><g class="tick" opacity="1" transform="translate(569.3888888888889,0)"><line stroke="currentColor" y2="-340"></line><text fill="currentColor" y="3" dy="0.71em"></text></g><g class="tick" opacity="1" transform="translate(640.5,0)"><line stroke="currentColor" y2="-340"></line><text fill="currentColor" y="3" dy="0.71em"></text></g><g class="tick" opacity="1" transform="translate(711.6111111111111,0)"><line stroke="currentColor" y2="-340"></line><text fill="currentColor" y="3" dy="0.71em"></text></g></g><g class="grid" fill="none" font-size="10" font-family="sans-serif" text-anchor="end" style="stroke-dasharray: 3,3; opacity: 0.3;"><path class="domain" stroke="currentColor" d="M720,340.5H0.5V0.5H720"></path><g class="tick" opacity="1" transform="translate(0,340.5)"><line stroke="currentColor" x2="720"></line><text fill="currentColor" x="-3" dy="0.32em"></text></g><g class="tick" opacity="1" transform="translate(0,317.8333333333334)"><line stroke="currentColor" x2="720"></line><text fill="currentColor" x="-3" dy="0.32em"></text></g><g class="tick" opacity="1" transform="translate(0,295.16666666666686)"><line stroke="currentColor" x2="720"></line><text fill="currentColor" x="-3" dy="0.32em"></text></g><g class="tick" opacity="1" transform="translate(0,272.50000000000034)"><line stroke="currentColor" x2="720"></line><text fill="currentColor" x="-3" dy="0.32em"></text></g><g class="tick" opacity="1" transform="translate(0,249.83333333333374)"><line stroke="currentColor" x2="720"></line><text fill="currentColor" x="-3" dy="0.32em"></text></g><g class="tick" opacity="1" transform="translate(0,227.16666666666717)"><line stroke="currentColor" x2="720"></line><text fill="currentColor" x="-3" dy="0.32em"></text></g><g class="tick" opacity="1" transform="translate(0,204.49999999999983)"><line stroke="currentColor" x2="720"></line><text fill="currentColor" x="-3" dy="0.32em"></text></g><g class="tick" opacity="1" transform="translate(0,181.8333333333333)"><line stroke="currentColor" x2="720"></line><text fill="currentColor" x="-3" dy="0.32em"></text></g><g class="tick" opacity="1" transform="translate(0,159.1666666666667)"><line stroke="currentColor" x2="720"></line><text fill="currentColor" x="-3" dy="0.32em"></text></g><g class="tick" opacity="1" transform="translate(0,136.50000000000017)"><line stroke="currentColor" x2="720"></line><text fill="currentColor" x="-3" dy="0.32em"></text></g><g class="tick" opacity="1" transform="translate(0,113.83333333333361)"><line stroke="currentColor" x2="720"></line><text fill="currentColor" x="-3" dy="0.32em"></text></g><g class="tick" opacity="1" transform="translate(0,91.16666666666703)"><line stroke="currentColor" x2="720"></line><text fill="currentColor" x="-3" dy="0.32em"></text></g><g class="tick" opacity="1" transform="translate(0,68.49999999999969)"><line stroke="currentColor" x2="720"></line><text fill="currentColor" x="-3" dy="0.32em"></text></g><g class="tick" opacity="1" transform="translate(0,45.83333333333314)"><line stroke="currentColor" x2="720"></line><text fill="currentColor" x="-3" dy="0.32em"></text></g><g class="tick" opacity="1" transform="translate(0,23.166666666666547)"><line stroke="currentColor" x2="720"></line><text fill="currentColor" x="-3" dy="0.32em"></text></g><g class="tick" opacity="1" transform="translate(0,0.5)"><line stroke="currentColor" x2="720"></line><text fill="currentColor" x="-3" dy="0.32em"></text></g></g></g><text x="400" y="10" text-anchor="middle" style="font-size: 16px; font-weight: bold; fill: #333;">OKX USDT Lending Rate - Current Month</text></svg>