<svg width="800" height="400" xmlns="http://www.w3.org/2000/svg"><g transform="translate(50,20)"><g transform="translate(0,340)" fill="none" font-size="10" font-family="sans-serif" text-anchor="middle"><path class="domain" stroke="currentColor" d="M0.5,6V0.5H720.5V6"></path><g class="tick" opacity="1" transform="translate(0.5,0)"><line stroke="currentColor" y2="6"></line><text fill="currentColor" y="9" dy=".15em" style="text-anchor: end;" dx="-.8em" transform="rotate(-45)">11/01</text></g><g class="tick" opacity="1" transform="translate(32.5,0)"><line stroke="currentColor" y2="6"></line><text fill="currentColor" y="9" dy=".15em" style="text-anchor: end;" dx="-.8em" transform="rotate(-45)">11/02</text></g><g class="tick" opacity="1" transform="translate(64.5,0)"><line stroke="currentColor" y2="6"></line><text fill="currentColor" y="9" dy=".15em" style="text-anchor: end;" dx="-.8em" transform="rotate(-45)">11/03</text></g><g class="tick" opacity="1" transform="translate(96.5,0)"><line stroke="currentColor" y2="6"></line><text fill="currentColor" y="9" dy=".15em" style="text-anchor: end;" dx="-.8em" transform="rotate(-45)">11/04</text></g><g class="tick" opacity="1" transform="translate(128.5,0)"><line stroke="currentColor" y2="6"></line><text fill="currentColor" y="9" dy=".15em" style="text-anchor: end;" dx="-.8em" transform="rotate(-45)">11/05</text></g><g class="tick" opacity="1" transform="translate(160.5,0)"><line stroke="currentColor" y2="6"></line><text fill="currentColor" y="9" dy=".15em" style="text-anchor: end;" dx="-.8em" transform="rotate(-45)">11/06</text></g><g class="tick" opacity="1" transform="translate(192.5,0)"><line stroke="currentColor" y2="6"></line><text fill="currentColor" y="9" dy=".15em" style="text-anchor: end;" dx="-.8em" transform="rotate(-45)">11/07</text></g><g class="tick" opacity="1" transform="translate(224.5,0)"><line stroke="currentColor" y2="6"></line><text fill="currentColor" y="9" dy=".15em" style="text-anchor: end;" dx="-.8em" transform="rotate(-45)">11/08</text></g><g class="tick" opacity="1" transform="translate(256.5,0)"><line stroke="currentColor" y2="6"></line><text fill="currentColor" y="9" dy=".15em" style="text-anchor: end;" dx="-.8em" transform="rotate(-45)">11/09</text></g><g class="tick" opacity="1" transform="translate(288.5,0)"><line stroke="currentColor" y2="6"></line><text fill="currentColor" y="9" dy=".15em" style="text-anchor: end;" dx="-.8em" transform="rotate(-45)">11/10</text></g><g class="tick" opacity="1" transform="translate(320.5,0)"><line stroke="currentColor" y2="6"></line><text fill="currentColor" y="9" dy=".15em" style="text-anchor: end;" dx="-.8em" transform="rotate(-45)">11/11</text></g><g class="tick" opacity="1" transform="translate(352.5,0)"><line stroke="currentColor" y2="6"></line><text fill="currentColor" y="9" dy=".15em" style="text-anchor: end;" dx="-.8em" transform="rotate(-45)">11/12</text></g><g class="tick" opacity="1" transform="translate(384.5,0)"><line stroke="currentColor" y2="6"></line><text fill="currentColor" y="9" dy=".15em" style="text-anchor: end;" dx="-.8em" transform="rotate(-45)">11/13</text></g><g class="tick" opacity="1" transform="translate(416.49999999999994,0)"><line stroke="currentColor" y2="6"></line><text fill="currentColor" y="9" dy=".15em" style="text-anchor: end;" dx="-.8em" transform="rotate(-45)">11/14</text></g><g class="tick" opacity="1" transform="translate(448.5,0)"><line stroke="currentColor" y2="6"></line><text fill="currentColor" y="9" dy=".15em" style="text-anchor: end;" dx="-.8em" transform="rotate(-45)">11/15</text></g><g class="tick" opacity="1" transform="translate(480.5,0)"><line stroke="currentColor" y2="6"></line><text fill="currentColor" y="9" dy=".15em" style="text-anchor: end;" dx="-.8em" transform="rotate(-45)">11/16</text></g><g class="tick" opacity="1" transform="translate(512.5,0)"><line stroke="currentColor" y2="6"></line><text fill="currentColor" y="9" dy=".15em" style="text-anchor: end;" dx="-.8em" transform="rotate(-45)">11/17</text></g><g class="tick" opacity="1" transform="translate(544.5,0)"><line stroke="currentColor" y2="6"></line><text fill="currentColor" y="9" dy=".15em" style="text-anchor: end;" dx="-.8em" transform="rotate(-45)">11/18</text></g><g class="tick" opacity="1" transform="translate(576.5,0)"><line stroke="currentColor" y2="6"></line><text fill="currentColor" y="9" dy=".15em" style="text-anchor: end;" dx="-.8em" transform="rotate(-45)">11/19</text></g><g class="tick" opacity="1" transform="translate(608.5,0)"><line stroke="currentColor" y2="6"></line><text fill="currentColor" y="9" dy=".15em" style="text-anchor: end;" dx="-.8em" transform="rotate(-45)">11/20</text></g><g class="tick" opacity="1" transform="translate(640.5,0)"><line stroke="currentColor" y2="6"></line><text fill="currentColor" y="9" dy=".15em" style="text-anchor: end;" dx="-.8em" transform="rotate(-45)">11/21</text></g><g class="tick" opacity="1" transform="translate(672.5,0)"><line stroke="currentColor" y2="6"></line><text fill="currentColor" y="9" dy=".15em" style="text-anchor: end;" dx="-.8em" transform="rotate(-45)">11/22</text></g><g class="tick" opacity="1" transform="translate(704.5,0)"><line stroke="currentColor" y2="6"></line><text fill="currentColor" y="9" dy=".15em" style="text-anchor: end;" dx="-.8em" transform="rotate(-45)">11/23</text></g></g><g fill="none" font-size="10" font-family="sans-serif" text-anchor="end"><path class="domain" stroke="currentColor" d="M-6,340.5H0.5V0.5H-6"></path><g class="tick" opacity="1" transform="translate(0,340.5)"><line stroke="currentColor" x2="-6"></line><text fill="currentColor" x="-9" dy="0.32em">1.00%</text></g><g class="tick" opacity="1" transform="translate(0,314.3461538461538)"><line stroke="currentColor" x2="-6"></line><text fill="currentColor" x="-9" dy="0.32em">1.20%</text></g><g class="tick" opacity="1" transform="translate(0,288.1923076923077)"><line stroke="currentColor" x2="-6"></line><text fill="currentColor" x="-9" dy="0.32em">1.40%</text></g><g class="tick" opacity="1" transform="translate(0,262.0384615384615)"><line stroke="currentColor" x2="-6"></line><text fill="currentColor" x="-9" dy="0.32em">1.60%</text></g><g class="tick" opacity="1" transform="translate(0,235.8846153846154)"><line stroke="currentColor" x2="-6"></line><text fill="currentColor" x="-9" dy="0.32em">1.80%</text></g><g class="tick" opacity="1" transform="translate(0,209.7307692307692)"><line stroke="currentColor" x2="-6"></line><text fill="currentColor" x="-9" dy="0.32em">2.00%</text></g><g class="tick" opacity="1" transform="translate(0,183.57692307692307)"><line stroke="currentColor" x2="-6"></line><text fill="currentColor" x="-9" dy="0.32em">2.20%</text></g><g class="tick" opacity="1" transform="translate(0,157.4230769230769)"><line stroke="currentColor" x2="-6"></line><text fill="currentColor" x="-9" dy="0.32em">2.40%</text></g><g class="tick" opacity="1" transform="translate(0,131.26923076923072)"><line stroke="currentColor" x2="-6"></line><text fill="currentColor" x="-9" dy="0.32em">2.60%</text></g><g class="tick" opacity="1" transform="translate(0,105.11538461538454)"><line stroke="currentColor" x2="-6"></line><text fill="currentColor" x="-9" dy="0.32em">2.80%</text></g><g class="tick" opacity="1" transform="translate(0,78.96153846153845)"><line stroke="currentColor" x2="-6"></line><text fill="currentColor" x="-9" dy="0.32em">3.00%</text></g><g class="tick" opacity="1" transform="translate(0,52.80769230769227)"><line stroke="currentColor" x2="-6"></line><text fill="currentColor" x="-9" dy="0.32em">3.20%</text></g><g class="tick" opacity="1" transform="translate(0,26.6538461538461)"><line stroke="currentColor" x2="-6"></line><text fill="currentColor" x="-9" dy="0.32em">3.40%</text></g><g class="tick" opacity="1" transform="translate(0,0.5)"><line stroke="currentColor" x2="-6"></line><text fill="currentColor" x="-9" dy="0.32em">3.60%</text></g></g><text transform="rotate(-90)" y="-50" x="-170" dy="1em" style="text-anchor: middle; font-size: 12px; fill: #666;">Pre Rate (%)</text><text transform="translate(360, 380)" style="text-anchor: middle; font-size: 12px; fill: #666;">Time (UTC)</text><path fill="none" stroke="#2563eb" stroke-width="2" d="M0,78.462C0.444,78.462,0.889,78.462,1.333,78.462C1.778,78.462,2.222,78.462,2.667,78.462C3.111,78.462,3.556,78.462,4,78.462C4.444,78.462,4.889,78.462,5.333,78.462C5.778,78.462,6.222,78.462,6.667,78.462C7.111,78.462,7.556,78.462,8,78.462C8.444,78.462,8.889,78.462,9.333,78.462C9.778,78.462,10.222,78.462,10.667,78.462C11.111,78.462,11.556,78.462,12,78.462C12.444,78.462,12.889,78.462,13.333,78.462C13.778,78.462,14.222,78.462,14.667,78.462C15.111,78.462,15.556,78.462,16,78.462C16.444,78.462,16.889,78.462,17.333,78.462C17.778,78.462,18.222,78.462,18.667,78.462C19.111,78.462,19.556,78.462,20,78.462C20.444,78.462,20.889,78.462,21.333,78.462C21.778,78.462,22.222,78.462,22.667,78.462C23.111,78.462,23.556,78.462,24,78.462C24.444,78.462,24.889,78.462,25.333,78.462C25.778,78.462,26.222,78.462,26.667,78.462C27.111,78.462,27.556,78.462,28,78.462C28.444,78.462,28.889,78.462,29.333,78.462C29.778,78.462,30.222,78.462,30.667,78.462C31.111,78.462,31.556,78.462,32,78.462C32.444,78.462,32.889,78.462,33.333,78.462C33.778,78.462,34.222,78.462,34.667,78.462C35.111,78.462,35.556,78.462,36,78.462C36.444,78.462,36.889,78.462,37.333,78.462C37.778,78.462,38.222,78.462,38.667,78.462C39.111,78.462,39.556,78.462,40,78.462C40.444,78.462,40.889,78.462,41.333,78.462C41.778,78.462,42.222,78.462,42.667,78.462C43.111,78.462,43.556,78.462,44,78.462C44.444,78.462,44.889,78.462,45.333,78.462C45.778,78.462,46.222,78.462,46.667,78.462C47.111,78.462,47.556,78.462,48,78.462C48.444,78.462,48.889,78.462,49.333,78.462C49.778,78.462,50.222,78.462,50.667,78.462C51.111,78.462,51.556,78.462,52,78.462C52.444,78.462,52.889,78.462,53.333,78.462C53.778,78.462,54.222,78.462,54.667,78.462C55.111,78.462,55.556,78.462,56,78.462C56.444,78.462,56.889,78.462,57.333,78.462C57.778,78.462,58.222,78.462,58.667,78.462C59.111,78.462,59.556,78.462,60,78.462C60.444,78.462,60.889,78.462,61.333,78.462C61.778,78.462,62.222,78.462,62.667,78.462C63.111,78.462,63.556,78.462,64,78.462C64.444,78.462,64.889,78.462,65.333,78.462C65.778,78.462,66.222,78.462,66.667,78.462C67.111,78.462,67.556,78.462,68,78.462C68.444,78.462,68.889,78.462,69.333,78.462C69.778,78.462,70.222,78.462,70.667,78.462C71.111,78.462,71.556,78.462,72,78.462C72.444,78.462,72.889,78.462,73.333,78.462C73.778,78.462,74.222,78.462,74.667,78.462C75.111,78.462,75.556,78.462,76,78.462C76.444,78.462,76.889,78.462,77.333,78.462C77.778,78.462,78.222,78.462,78.667,78.462C79.111,78.462,79.556,78.462,80,78.462C80.444,78.462,80.889,78.462,81.333,78.462C81.778,78.462,82.222,78.462,82.667,78.462C83.111,78.462,83.556,78.462,84,78.462C84.444,78.462,84.889,78.462,85.333,78.462C85.778,78.462,86.222,78.462,86.667,78.462C87.111,78.462,87.556,78.462,88,78.462C88.444,78.462,88.889,78.462,89.333,78.462C89.778,78.462,90.222,78.462,90.667,78.462C91.111,78.462,91.556,78.462,92,78.462C92.444,78.462,92.889,78.462,93.333,78.462C93.778,78.462,94.222,78.462,94.667,78.462C95.111,78.462,95.556,78.462,96,78.462C96.444,78.462,96.889,78.462,97.333,78.462C97.778,78.462,98.222,78.462,98.667,78.462C99.111,78.462,99.556,78.462,100,78.462C100.444,78.462,100.889,78.462,101.333,78.462C101.778,78.462,102.222,78.462,102.667,78.462C103.111,78.462,103.556,78.462,104,78.462C104.444,78.462,104.889,78.462,105.333,78.462C105.778,78.462,106.222,78.462,106.667,78.462C107.111,78.462,107.556,78.462,108,78.462C108.444,78.462,108.889,78.462,109.333,78.462C109.778,78.462,110.222,78.462,110.667,78.462C111.111,78.462,111.556,78.462,112,78.462C112.444,78.462,112.889,78.462,113.333,78.462C113.778,78.462,114.222,78.462,114.667,78.462C115.111,78.462,115.556,78.462,116,78.462C116.444,78.462,116.889,78.462,117.333,78.462C117.778,78.462,118.222,78.462,118.667,78.462C119.111,78.462,119.556,78.462,120,78.462C120.444,78.462,120.889,78.462,121.333,78.462C121.778,78.462,122.222,78.462,122.667,78.462C123.111,78.462,123.556,78.462,124,78.462C124.444,78.462,124.889,78.462,125.333,78.462C125.778,78.462,126.222,78.462,126.667,78.462C127.111,78.462,127.556,78.462,128,78.462C128.444,78.462,128.889,340,129.333,340C129.778,340,130.222,340,130.667,340C131.111,340,131.556,340,132,340C132.444,340,132.889,340,133.333,340C133.778,340,134.222,340,134.667,340C135.111,340,135.556,340,136,340C136.444,340,136.889,340,137.333,340C137.778,340,138.222,340,138.667,340C139.111,340,139.556,78.462,140,78.462C140.444,78.462,140.889,78.462,141.333,78.462C141.778,78.462,142.222,78.462,142.667,78.462C143.111,78.462,143.556,78.462,144,78.462C144.444,78.462,144.889,78.462,145.333,78.462C145.778,78.462,146.222,78.462,146.667,78.462C147.111,78.462,147.556,78.462,148,78.462C148.444,78.462,148.889,78.462,149.333,78.462C149.778,78.462,150.222,78.462,150.667,78.462C151.111,78.462,151.556,78.462,152,78.462C152.444,78.462,152.889,78.462,153.333,78.462C153.778,78.462,154.222,78.462,154.667,78.462C155.111,78.462,155.556,78.462,156,78.462C156.444,78.462,156.889,78.462,157.333,78.462C157.778,78.462,158.222,78.462,158.667,78.462C159.111,78.462,159.556,78.462,160,78.462C160.444,78.462,160.889,78.462,161.333,78.462C161.778,78.462,162.222,78.462,162.667,78.462C163.111,78.462,163.556,78.462,164,78.462C164.444,78.462,164.889,78.462,165.333,78.462C165.778,78.462,166.222,78.462,166.667,78.462C167.111,78.462,167.556,78.462,168,78.462C168.444,78.462,168.889,78.462,169.333,78.462C169.778,78.462,170.222,78.462,170.667,78.462C171.111,78.462,171.556,78.462,172,78.462C172.444,78.462,172.889,78.462,173.333,78.462C173.778,78.462,174.222,78.462,174.667,78.462C175.111,78.462,175.556,78.462,176,78.462C176.444,78.462,176.889,78.462,177.333,78.462C177.778,78.462,178.222,78.462,178.667,78.462C179.111,78.462,179.556,78.462,180,78.462C180.444,78.462,180.889,78.462,181.333,78.462C181.778,78.462,182.222,78.462,182.667,78.462C183.111,78.462,183.556,78.462,184,78.462C184.444,78.462,184.889,78.462,185.333,78.462C185.778,78.462,186.222,78.462,186.667,78.462C187.111,78.462,187.556,78.462,188,78.462C188.444,78.462,188.889,78.462,189.333,78.462C189.778,78.462,190.222,78.462,190.667,78.462C191.111,78.462,191.556,78.462,192,78.462C192.444,78.462,192.889,78.462,193.333,78.462C193.778,78.462,194.222,78.462,194.667,78.462C195.111,78.462,195.556,78.462,196,78.462C196.444,78.462,196.889,78.462,197.333,78.462C197.778,78.462,198.222,78.462,198.667,78.462C199.111,78.462,199.556,78.462,200,78.462C200.444,78.462,200.889,78.462,201.333,78.462C201.778,78.462,202.222,78.462,202.667,78.462C203.111,78.462,203.556,78.462,204,78.462C204.444,78.462,204.889,78.462,205.333,78.462C205.778,78.462,206.222,78.462,206.667,78.462C207.111,78.462,207.556,78.462,208,78.462C208.444,78.462,208.889,78.462,209.333,78.462C209.778,78.462,210.222,78.462,210.667,78.462C211.111,78.462,211.556,78.462,212,78.462C212.444,78.462,212.889,78.462,213.333,78.462C213.778,78.462,214.222,78.462,214.667,78.462C215.111,78.462,215.556,78.462,216,78.462C216.444,78.462,216.889,78.462,217.333,78.462C217.778,78.462,218.222,78.462,218.667,78.462C219.111,78.462,219.556,78.462,220,78.462C220.444,78.462,220.889,78.462,221.333,78.462C221.778,78.462,222.222,78.462,222.667,78.462C223.111,78.462,223.556,78.462,224,78.462C224.444,78.462,224.889,78.462,225.333,78.462C225.778,78.462,226.222,78.462,226.667,78.462C227.111,78.462,227.556,78.462,228,78.462C228.444,78.462,228.889,78.462,229.333,78.462C229.778,78.462,230.222,78.462,230.667,78.462C231.111,78.462,231.556,78.462,232,78.462C232.444,78.462,232.889,78.462,233.333,78.462C233.778,78.462,234.222,78.462,234.667,78.462C235.111,78.462,235.556,78.462,236,78.462C236.444,78.462,236.889,78.462,237.333,78.462C237.778,78.462,238.222,78.462,238.667,78.462C239.111,78.462,239.556,78.462,240,78.462C240.444,78.462,240.889,78.462,241.333,78.462C241.778,78.462,242.222,78.462,242.667,78.462C243.111,78.462,243.556,78.462,244,78.462C244.444,78.462,244.889,78.462,245.333,78.462C245.778,78.462,246.222,78.462,246.667,78.462C247.111,78.462,247.556,78.462,248,78.462C248.444,78.462,248.889,78.462,249.333,78.462C249.778,78.462,250.222,78.462,250.667,78.462C251.111,78.462,251.556,78.462,252,78.462C252.444,78.462,252.889,78.462,253.333,78.462C253.778,78.462,254.222,78.462,254.667,78.462C255.111,78.462,255.556,78.462,256,78.462C256.444,78.462,256.889,78.462,257.333,78.462C257.778,78.462,258.222,78.462,258.667,78.462C259.111,78.462,259.556,78.462,260,78.462C260.444,78.462,260.889,78.462,261.333,78.462C261.778,78.462,262.222,78.462,262.667,78.462C263.111,78.462,263.556,78.462,264,78.462C264.444,78.462,264.889,78.462,265.333,78.462C265.778,78.462,266.222,78.462,266.667,78.462C267.111,78.462,267.556,78.462,268,78.462C268.444,78.462,268.889,78.462,269.333,78.462C269.778,78.462,270.222,78.462,270.667,78.462C271.111,78.462,271.556,78.462,272,78.462C272.444,78.462,272.889,78.462,273.333,78.462C273.778,78.462,274.222,78.462,274.667,78.462C275.111,78.462,275.556,78.462,276,78.462C276.444,78.462,276.889,78.462,277.333,78.462C277.778,78.462,278.222,78.462,278.667,78.462C279.111,78.462,279.556,78.462,280,78.462C280.444,78.462,280.889,78.462,281.333,78.462C281.778,78.462,282.222,78.462,282.667,78.462C283.111,78.462,283.556,78.462,284,78.462C284.444,78.462,284.889,78.462,285.333,78.462C285.778,78.462,286.222,78.462,286.667,78.462C287.111,78.462,287.556,78.462,288,78.462C288.444,78.462,288.889,78.462,289.333,78.462C289.778,78.462,290.222,78.462,290.667,78.462C291.111,78.462,291.556,78.462,292,78.462C292.444,78.462,292.889,78.462,293.333,78.462C293.778,78.462,294.222,78.462,294.667,78.462C295.111,78.462,295.556,78.462,296,78.462C296.444,78.462,296.889,78.462,297.333,78.462C297.778,78.462,298.222,78.462,298.667,78.462C299.111,78.462,299.556,78.462,300,78.462C300.444,78.462,300.889,78.462,301.333,78.462C301.778,78.462,302.222,78.462,302.667,78.462C303.111,78.462,303.556,78.462,304,78.462C304.444,78.462,304.889,78.462,305.333,78.462C305.778,78.462,306.222,78.462,306.667,78.462C307.111,78.462,307.556,78.462,308,78.462C308.444,78.462,308.889,78.462,309.333,78.462C309.778,78.462,310.222,78.462,310.667,78.462C311.111,78.462,311.556,78.462,312,78.462C312.444,78.462,312.889,78.462,313.333,78.462C313.778,78.462,314.222,78.462,314.667,78.462C315.111,78.462,315.556,78.462,316,78.462C316.444,78.462,316.889,78.462,317.333,78.462C317.778,78.462,318.222,78.462,318.667,78.462C319.111,78.462,319.556,78.462,320,78.462C320.444,78.462,320.889,78.462,321.333,78.462C321.778,78.462,322.222,78.462,322.667,78.462C323.111,78.462,323.556,78.462,324,78.462C324.444,78.462,324.889,78.462,325.333,78.462C325.778,78.462,326.222,78.462,326.667,78.462C327.111,78.462,327.556,78.462,328,78.462C328.444,78.462,328.889,78.462,329.333,78.462C329.778,78.462,330.222,78.462,330.667,78.462C331.111,78.462,331.556,78.462,332,78.462C332.444,78.462,332.889,78.462,333.333,78.462C333.778,78.462,334.222,78.462,334.667,78.462C335.111,78.462,335.556,78.462,336,78.462C336.444,78.462,336.889,78.462,337.333,78.462C337.778,78.462,338.222,78.462,338.667,78.462C339.111,78.462,339.556,78.462,340,78.462C340.444,78.462,340.889,78.462,341.333,78.462C341.778,78.462,342.222,78.462,342.667,78.462C343.111,78.462,343.556,78.462,344,78.462C344.444,78.462,344.889,78.462,345.333,78.462C345.778,78.462,346.222,78.462,346.667,78.462C347.111,78.462,347.556,78.462,348,78.462C348.444,78.462,348.889,78.462,349.333,78.462C349.778,78.462,350.222,78.462,350.667,78.462C351.111,78.462,351.556,78.462,352,78.462C352.444,78.462,352.889,78.462,353.333,78.462C353.778,78.462,354.222,78.462,354.667,78.462C355.111,78.462,355.556,78.462,356,78.462C356.444,78.462,356.889,78.462,357.333,78.462C357.778,78.462,358.222,78.462,358.667,78.462C359.111,78.462,359.556,78.462,360,78.462C360.444,78.462,360.889,78.462,361.333,78.462C361.778,78.462,362.222,78.462,362.667,78.462C363.111,78.462,363.556,78.462,364,78.462C364.444,78.462,364.889,78.462,365.333,78.462C365.778,78.462,366.222,78.462,366.667,78.462C367.111,78.462,367.556,78.462,368,78.462C368.444,78.462,368.889,78.462,369.333,78.462C369.778,78.462,370.222,78.462,370.667,78.462C371.111,78.462,371.556,78.462,372,78.462C372.444,78.462,372.889,78.462,373.333,78.462C373.778,78.462,374.222,78.462,374.667,78.462C375.111,78.462,375.556,78.462,376,78.462C376.444,78.462,376.889,78.462,377.333,78.462C377.778,78.462,378.222,78.462,378.667,78.462C379.111,78.462,379.556,78.462,380,78.462C380.444,78.462,380.889,78.462,381.333,78.462C381.778,78.462,382.222,78.462,382.667,78.462C383.111,78.462,383.556,78.462,384,78.462C384.444,78.462,384.889,78.462,385.333,78.462C385.778,78.462,386.222,78.462,386.667,78.462C387.111,78.462,387.556,78.462,388,78.462C388.444,78.462,388.889,78.462,389.333,78.462C389.778,78.462,390.222,78.462,390.667,78.462C391.111,78.462,391.556,78.462,392,78.462C392.444,78.462,392.889,78.462,393.333,78.462C393.778,78.462,394.222,78.462,394.667,78.462C395.111,78.462,395.556,78.462,396,78.462C396.444,78.462,396.889,78.462,397.333,78.462C397.778,78.462,398.222,78.462,398.667,78.462C399.111,78.462,399.556,78.462,400,78.462C400.444,78.462,400.889,78.462,401.333,78.462C401.778,78.462,402.222,78.462,402.667,78.462C403.111,78.462,403.556,78.462,404,78.462C404.444,78.462,404.889,78.462,405.333,78.462C405.778,78.462,406.222,78.462,406.667,78.462C407.111,78.462,407.556,78.462,408,78.462C408.444,78.462,408.889,78.462,409.333,78.462C409.778,78.462,410.222,78.462,410.667,78.462C411.111,78.462,411.556,78.462,412,78.462C412.444,78.462,412.889,78.462,413.333,78.462C413.778,78.462,414.222,78.462,414.667,78.462C415.111,78.462,415.556,78.462,416,78.462C416.444,78.462,416.889,78.462,417.333,78.462C417.778,78.462,418.222,78.462,418.667,78.462C419.111,78.462,419.556,78.462,420,78.462C420.444,78.462,420.889,78.462,421.333,78.462C421.778,78.462,422.222,78.462,422.667,78.462C423.111,78.462,423.556,78.462,424,78.462C424.444,78.462,424.889,78.462,425.333,78.462C425.778,78.462,426.222,78.462,426.667,78.462C427.111,78.462,427.556,78.462,428,78.462C428.444,78.462,428.889,78.462,429.333,78.462C429.778,78.462,430.222,78.462,430.667,78.462C431.111,78.462,431.556,78.462,432,78.462C432.444,78.462,432.889,78.462,433.333,78.462C433.778,78.462,434.222,78.462,434.667,78.462C435.111,78.462,435.556,78.462,436,78.462C436.444,78.462,436.889,78.462,437.333,78.462C437.778,78.462,438.222,78.462,438.667,78.462C439.111,78.462,439.556,78.462,440,78.462C440.444,78.462,440.889,78.462,441.333,78.462C441.778,78.462,442.222,78.462,442.667,78.462C443.111,78.462,443.556,78.462,444,78.462C444.444,78.462,444.889,78.462,445.333,78.462C445.778,78.462,446.222,78.462,446.667,78.462C447.111,78.462,447.556,78.462,448,78.462C448.444,78.462,448.889,78.462,449.333,78.462C449.778,78.462,450.222,78.462,450.667,78.462C451.111,78.462,451.556,78.462,452,78.462C452.444,78.462,452.889,78.462,453.333,78.462C453.778,78.462,454.222,78.462,454.667,78.462C455.111,78.462,455.556,78.462,456,78.462C456.444,78.462,456.889,78.462,457.333,78.462C457.778,78.462,458.222,78.462,458.667,78.462C459.111,78.462,459.556,78.462,460,78.462C460.444,78.462,460.889,78.462,461.333,78.462C461.778,78.462,462.222,78.462,462.667,78.462C463.111,78.462,463.556,78.462,464,78.462C464.444,78.462,464.889,78.462,465.333,78.462C465.778,78.462,466.222,78.462,466.667,78.462C467.111,78.462,467.556,78.462,468,78.462C468.444,78.462,468.889,78.462,469.333,78.462C469.778,78.462,470.222,78.462,470.667,78.462C471.111,78.462,471.556,78.462,472,78.462C472.444,78.462,472.889,78.462,473.333,78.462C473.778,78.462,474.222,78.462,474.667,78.462C475.111,78.462,475.556,78.462,476,78.462C476.444,78.462,476.889,78.462,477.333,78.462C477.778,78.462,478.222,78.462,478.667,78.462C479.111,78.462,479.556,78.462,480,78.462C480.444,78.462,480.889,78.462,481.333,78.462C481.778,78.462,482.222,78.462,482.667,78.462C483.111,78.462,483.556,78.462,484,78.462C484.444,78.462,484.889,78.462,485.333,78.462C485.778,78.462,486.222,78.462,486.667,78.462C487.111,78.462,487.556,78.462,488,78.462C488.444,78.462,488.889,78.462,489.333,78.462C489.778,78.462,490.222,78.462,490.667,78.462C491.111,78.462,491.556,78.462,492,78.462C492.444,78.462,492.889,78.462,493.333,78.462C493.778,78.462,494.222,78.462,494.667,78.462C495.111,78.462,495.556,78.462,496,78.462C496.444,78.462,496.889,78.462,497.333,78.462C497.778,78.462,498.222,78.462,498.667,78.462C499.111,78.462,499.556,78.462,500,78.462C500.444,78.462,500.889,78.462,501.333,78.462C501.778,78.462,502.222,78.462,502.667,78.462C503.111,78.462,503.556,78.462,504,78.462C504.444,78.462,504.889,78.462,505.333,78.462C505.778,78.462,506.222,78.462,506.667,78.462C507.111,78.462,507.556,78.462,508,78.462C508.444,78.462,508.889,78.462,509.333,78.462C509.778,78.462,510.222,78.462,510.667,78.462C511.111,78.462,511.556,78.462,512,78.462C512.444,78.462,512.889,78.462,513.333,78.462C513.778,78.462,514.222,78.462,514.667,78.462C515.111,78.462,515.556,78.462,516,78.462C516.444,78.462,516.889,78.462,517.333,78.462C517.778,78.462,518.222,78.462,518.667,78.462C519.111,78.462,519.556,78.462,520,78.462C520.444,78.462,520.889,78.462,521.333,78.462C521.778,78.462,522.222,78.462,522.667,78.462C523.111,78.462,523.556,78.462,524,78.462C524.444,78.462,524.889,78.462,525.333,78.462C525.778,78.462,526.222,78.462,526.667,78.462C527.111,78.462,527.556,78.462,528,78.462C528.444,78.462,528.889,78.462,529.333,78.462C529.778,78.462,530.222,78.462,530.667,78.462C531.111,78.462,531.556,78.462,532,78.462C532.444,78.462,532.889,78.462,533.333,78.462C533.778,78.462,534.222,78.462,534.667,78.462C535.111,78.462,535.556,78.462,536,78.462C536.444,78.462,536.889,78.462,537.333,78.462C537.778,78.462,538.222,78.462,538.667,78.462C539.111,78.462,539.556,78.462,540,78.462C540.444,78.462,540.889,78.462,541.333,78.462C541.778,78.462,542.222,78.462,542.667,78.462C543.111,78.462,543.556,78.462,544,78.462C544.444,78.462,544.889,78.462,545.333,78.462C545.778,78.462,546.222,13.077,546.667,13.077C547.111,13.077,547.556,13.077,548,13.077C548.444,13.077,548.889,13.077,549.333,13.077C549.778,13.077,550.222,13.077,550.667,13.077C551.111,13.077,551.556,13.077,552,13.077C552.444,13.077,552.889,13.077,553.333,13.077C553.778,13.077,554.222,13.077,554.667,13.077C555.111,13.077,555.556,13.077,556,13.077C556.444,13.077,556.889,13.077,557.333,13.077C557.778,13.077,558.222,13.077,558.667,13.077C559.111,13.077,559.556,13.077,560,13.077C560.444,13.077,560.889,13.077,561.333,13.077C561.778,13.077,562.222,13.077,562.667,13.077C563.111,13.077,563.556,13.077,564,13.077C564.444,13.077,564.889,13.077,565.333,13.077C565.778,13.077,566.222,13.077,566.667,13.077C567.111,13.077,567.556,13.077,568,13.077C568.444,13.077,568.889,13.077,569.333,13.077C569.778,13.077,570.222,13.077,570.667,13.077C571.111,13.077,571.556,13.077,572,13.077C572.444,13.077,572.889,13.077,573.333,13.077C573.778,13.077,574.222,13.077,574.667,13.077C575.111,13.077,575.556,13.077,576,13.077C576.444,13.077,576.889,13.077,577.333,13.077C577.778,13.077,578.222,13.077,578.667,13.077C579.111,13.077,579.556,13.077,580,13.077C580.444,13.077,580.889,13.077,581.333,13.077C581.778,13.077,582.222,13.077,582.667,13.077C583.111,13.077,583.556,13.077,584,13.077C584.444,13.077,584.889,13.077,585.333,13.077C585.778,13.077,586.222,13.077,586.667,13.077C587.111,13.077,587.556,13.077,588,13.077C588.444,13.077,588.889,13.077,589.333,13.077C589.778,13.077,590.222,13.077,590.667,13.077C591.111,13.077,591.556,13.077,592,13.077C592.444,13.077,592.889,13.077,593.333,13.077C593.778,13.077,594.222,13.077,594.667,13.077C595.111,13.077,595.556,13.077,596,13.077C596.444,13.077,596.889,13.077,597.333,13.077C597.778,13.077,598.222,13.077,598.667,13.077C599.111,13.077,599.556,13.077,600,13.077C600.444,13.077,600.889,13.077,601.333,13.077C601.778,13.077,602.222,13.077,602.667,13.077C603.111,13.077,603.556,13.077,604,13.077C604.444,13.077,604.889,13.077,605.333,13.077C605.778,13.077,606.222,13.077,606.667,13.077C607.111,13.077,607.556,13.077,608,13.077C608.444,13.077,608.889,13.077,609.333,13.077C609.778,13.077,610.222,13.077,610.667,13.077C611.111,13.077,611.556,13.077,612,13.077C612.444,13.077,612.889,13.077,613.333,13.077C613.778,13.077,614.222,13.077,614.667,13.077C615.111,13.077,615.556,13.077,616,13.077C616.444,13.077,616.889,13.077,617.333,13.077C617.778,13.077,618.222,13.077,618.667,13.077C619.111,13.077,619.556,13.077,620,13.077C620.444,13.077,620.889,13.077,621.333,13.077C621.778,13.077,622.222,13.077,622.667,13.077C623.111,13.077,623.556,13.077,624,13.077C624.444,13.077,624.889,13.077,625.333,13.077C625.778,13.077,626.222,13.077,626.667,13.077C627.111,13.077,627.556,13.077,628,13.077C628.444,13.077,628.889,13.077,629.333,13.077C629.778,13.077,630.222,13.077,630.667,13.077C631.111,13.077,631.556,13.077,632,13.077C632.444,13.077,632.889,13.077,633.333,13.077C633.778,13.077,634.222,13.077,634.667,13.077C635.111,13.077,635.556,13.077,636,13.077C636.444,13.077,636.889,13.077,637.333,13.077C637.778,13.077,638.222,13.077,638.667,13.077C639.111,13.077,639.556,13.077,640,13.077C640.444,13.077,640.889,13.077,641.333,13.077C641.778,13.077,642.222,13.077,642.667,13.077C643.111,13.077,643.556,13.077,644,13.077C644.444,13.077,644.889,13.077,645.333,13.077C645.778,13.077,646.222,13.077,646.667,13.077C647.111,13.077,647.556,13.077,648,13.077C648.444,13.077,648.889,13.077,649.333,13.077C649.778,13.077,650.222,13.077,650.667,13.077C651.111,13.077,651.556,13.077,652,13.077C652.444,13.077,652.889,13.077,653.333,13.077C653.778,13.077,654.222,13.077,654.667,13.077C655.111,13.077,655.556,13.077,656,13.077C656.444,13.077,656.889,13.077,657.333,13.077C657.778,13.077,658.222,13.077,658.667,13.077C659.111,13.077,659.556,13.077,660,13.077C660.444,13.077,660.889,13.077,661.333,13.077C661.778,13.077,662.222,13.077,662.667,13.077C663.111,13.077,663.556,13.077,664,13.077C664.444,13.077,664.889,13.077,665.333,13.077C665.778,13.077,666.222,13.077,666.667,13.077C667.111,13.077,667.556,13.077,668,13.077C668.444,13.077,668.889,13.077,669.333,13.077C669.778,13.077,670.222,13.077,670.667,13.077C671.111,13.077,671.556,13.077,672,13.077C672.444,13.077,672.889,13.077,673.333,13.077C673.778,13.077,674.222,13.077,674.667,13.077C675.111,13.077,675.556,13.077,676,13.077C676.444,13.077,676.889,13.077,677.333,13.077C677.778,13.077,678.222,13.077,678.667,13.077C679.111,13.077,679.556,13.077,680,13.077C680.444,13.077,680.889,13.077,681.333,13.077C681.778,13.077,682.222,13.077,682.667,13.077C683.111,13.077,683.556,13.077,684,13.077C684.444,13.077,684.889,13.077,685.333,13.077C685.778,13.077,686.222,13.077,686.667,13.077C687.111,13.077,687.556,13.077,688,13.077C688.444,13.077,688.889,13.077,689.333,13.077C689.778,13.077,690.222,13.077,690.667,13.077C691.111,13.077,691.556,13.077,692,13.077C692.444,13.077,692.889,13.077,693.333,13.077C693.778,13.077,694.222,13.077,694.667,13.077C695.111,13.077,695.556,13.077,696,13.077C696.444,13.077,696.889,13.077,697.333,13.077C697.778,13.077,698.222,13.077,698.667,13.077C699.111,13.077,699.556,13.077,700,13.077C700.444,13.077,700.889,13.077,701.333,13.077C701.778,13.077,702.222,13.077,702.667,13.077C703.111,13.077,703.556,13.077,704,13.077C704.444,13.077,704.889,13.077,705.333,13.077C705.778,13.077,706.222,13.077,706.667,13.077C707.111,13.077,707.556,13.077,708,13.077C708.444,13.077,708.889,13.077,709.333,13.077C709.778,13.077,710.222,13.077,710.667,13.077C711.111,13.077,711.556,13.077,712,13.077C712.444,13.077,712.889,13.077,713.333,13.077C713.778,13.077,714.222,13.077,714.667,13.077C715.111,13.077,715.556,13.077,716,13.077C716.444,13.077,716.889,13.077,717.333,13.077C717.778,13.077,718.222,13.077,718.667,13.077C719.111,13.077,719.556,13.077,720,13.077"></path><circle class="dot" cx="0" cy="78.46153846153845" r="3" fill="#2563eb"></circle><circle class="dot" cx="1.3333333333333335" cy="78.46153846153845" r="3" fill="#2563eb"></circle><circle class="dot" cx="2.666666666666667" cy="78.46153846153845" r="3" fill="#2563eb"></circle><circle class="dot" cx="4" cy="78.46153846153845" r="3" fill="#2563eb"></circle><circle class="dot" cx="5.333333333333334" cy="78.46153846153845" r="3" fill="#2563eb"></circle><circle class="dot" cx="6.666666666666666" cy="78.46153846153845" r="3" fill="#2563eb"></circle><circle class="dot" cx="8" cy="78.46153846153845" r="3" fill="#2563eb"></circle><circle class="dot" cx="9.333333333333334" cy="78.46153846153845" r="3" fill="#2563eb"></circle><circle class="dot" cx="10.666666666666668" cy="78.46153846153845" r="3" fill="#2563eb"></circle><circle class="dot" cx="12" cy="78.46153846153845" r="3" fill="#2563eb"></circle><circle class="dot" cx="13.333333333333332" cy="78.46153846153845" r="3" fill="#2563eb"></circle><circle class="dot" cx="14.666666666666668" cy="78.46153846153845" r="3" fill="#2563eb"></circle><circle class="dot" cx="16" cy="78.46153846153845" r="3" fill="#2563eb"></circle><circle class="dot" cx="17.333333333333332" cy="78.46153846153845" r="3" fill="#2563eb"></circle><circle class="dot" cx="18.666666666666668" cy="78.46153846153845" r="3" fill="#2563eb"></circle><circle class="dot" cx="20" cy="78.46153846153845" r="3" fill="#2563eb"></circle><circle class="dot" cx="21.333333333333336" cy="78.46153846153845" r="3" fill="#2563eb"></circle><circle class="dot" cx="22.666666666666664" cy="78.46153846153845" r="3" fill="#2563eb"></circle><circle class="dot" cx="24" cy="78.46153846153845" r="3" fill="#2563eb"></circle><circle class="dot" cx="25.333333333333336" cy="78.46153846153845" r="3" fill="#2563eb"></circle><circle class="dot" cx="26.666666666666664" cy="78.46153846153845" r="3" fill="#2563eb"></circle><circle class="dot" cx="28" cy="78.46153846153845" r="3" fill="#2563eb"></circle><circle class="dot" cx="29.333333333333336" cy="78.46153846153845" r="3" fill="#2563eb"></circle><circle class="dot" cx="30.666666666666664" cy="78.46153846153845" r="3" fill="#2563eb"></circle><circle class="dot" cx="32" cy="78.46153846153845" r="3" fill="#2563eb"></circle><circle class="dot" cx="33.33333333333333" cy="78.46153846153845" r="3" fill="#2563eb"></circle><circle class="dot" cx="34.666666666666664" cy="78.46153846153845" r="3" fill="#2563eb"></circle><circle class="dot" cx="36" cy="78.46153846153845" r="3" fill="#2563eb"></circle><circle class="dot" cx="37.333333333333336" cy="78.46153846153845" r="3" fill="#2563eb"></circle><circle class="dot" cx="38.666666666666664" cy="78.46153846153845" r="3" fill="#2563eb"></circle><circle class="dot" cx="40" cy="78.46153846153845" r="3" fill="#2563eb"></circle><circle class="dot" cx="41.333333333333336" cy="78.46153846153845" r="3" fill="#2563eb"></circle><circle class="dot" cx="42.66666666666667" cy="78.46153846153845" r="3" fill="#2563eb"></circle><circle class="dot" cx="44" cy="78.46153846153845" r="3" fill="#2563eb"></circle><circle class="dot" cx="45.33333333333333" cy="78.46153846153845" r="3" fill="#2563eb"></circle><circle class="dot" cx="46.666666666666664" cy="78.46153846153845" r="3" fill="#2563eb"></circle><circle class="dot" cx="48" cy="78.46153846153845" r="3" fill="#2563eb"></circle><circle class="dot" cx="49.333333333333336" cy="78.46153846153845" r="3" fill="#2563eb"></circle><circle class="dot" cx="50.66666666666667" cy="78.46153846153845" r="3" fill="#2563eb"></circle><circle class="dot" cx="51.99999999999999" cy="78.46153846153845" r="3" fill="#2563eb"></circle><circle class="dot" cx="53.33333333333333" cy="78.46153846153845" r="3" fill="#2563eb"></circle><circle class="dot" cx="54.666666666666664" cy="78.46153846153845" r="3" fill="#2563eb"></circle><circle class="dot" cx="56" cy="78.46153846153845" r="3" fill="#2563eb"></circle><circle class="dot" cx="57.333333333333336" cy="78.46153846153845" r="3" fill="#2563eb"></circle><circle class="dot" cx="58.66666666666667" cy="78.46153846153845" r="3" fill="#2563eb"></circle><circle class="dot" cx="60" cy="78.46153846153845" r="3" fill="#2563eb"></circle><circle class="dot" cx="61.33333333333333" cy="78.46153846153845" r="3" fill="#2563eb"></circle><circle class="dot" cx="62.666666666666664" cy="78.46153846153845" r="3" fill="#2563eb"></circle><circle class="dot" cx="64" cy="78.46153846153845" r="3" fill="#2563eb"></circle><circle class="dot" cx="65.33333333333334" cy="78.46153846153845" r="3" fill="#2563eb"></circle><circle class="dot" cx="66.66666666666666" cy="78.46153846153845" r="3" fill="#2563eb"></circle><circle class="dot" cx="68" cy="78.46153846153845" r="3" fill="#2563eb"></circle><circle class="dot" cx="69.33333333333333" cy="78.46153846153845" r="3" fill="#2563eb"></circle><circle class="dot" cx="70.66666666666667" cy="78.46153846153845" r="3" fill="#2563eb"></circle><circle class="dot" cx="72" cy="78.46153846153845" r="3" fill="#2563eb"></circle><circle class="dot" cx="73.33333333333333" cy="78.46153846153845" r="3" fill="#2563eb"></circle><circle class="dot" cx="74.66666666666667" cy="78.46153846153845" r="3" fill="#2563eb"></circle><circle class="dot" cx="76" cy="78.46153846153845" r="3" fill="#2563eb"></circle><circle class="dot" cx="77.33333333333333" cy="78.46153846153845" r="3" fill="#2563eb"></circle><circle class="dot" cx="78.66666666666667" cy="78.46153846153845" r="3" fill="#2563eb"></circle><circle class="dot" cx="80" cy="78.46153846153845" r="3" fill="#2563eb"></circle><circle class="dot" cx="81.33333333333333" cy="78.46153846153845" r="3" fill="#2563eb"></circle><circle class="dot" cx="82.66666666666667" cy="78.46153846153845" r="3" fill="#2563eb"></circle><circle class="dot" cx="84" cy="78.46153846153845" r="3" fill="#2563eb"></circle><circle class="dot" cx="85.33333333333334" cy="78.46153846153845" r="3" fill="#2563eb"></circle><circle class="dot" cx="86.66666666666666" cy="78.46153846153845" r="3" fill="#2563eb"></circle><circle class="dot" cx="88" cy="78.46153846153845" r="3" fill="#2563eb"></circle><circle class="dot" cx="89.33333333333333" cy="78.46153846153845" r="3" fill="#2563eb"></circle><circle class="dot" cx="90.66666666666666" cy="78.46153846153845" r="3" fill="#2563eb"></circle><circle class="dot" cx="92" cy="78.46153846153845" r="3" fill="#2563eb"></circle><circle class="dot" cx="93.33333333333333" cy="78.46153846153845" r="3" fill="#2563eb"></circle><circle class="dot" cx="94.66666666666666" cy="78.46153846153845" r="3" fill="#2563eb"></circle><circle class="dot" cx="96" cy="78.46153846153845" r="3" fill="#2563eb"></circle><circle class="dot" cx="97.33333333333333" cy="78.46153846153845" r="3" fill="#2563eb"></circle><circle class="dot" cx="98.66666666666667" cy="78.46153846153845" r="3" fill="#2563eb"></circle><circle class="dot" cx="100" cy="78.46153846153845" r="3" fill="#2563eb"></circle><circle class="dot" cx="101.33333333333334" cy="78.46153846153845" r="3" fill="#2563eb"></circle><circle class="dot" cx="102.66666666666667" cy="78.46153846153845" r="3" fill="#2563eb"></circle><circle class="dot" cx="103.99999999999999" cy="78.46153846153845" r="3" fill="#2563eb"></circle><circle class="dot" cx="105.33333333333333" cy="78.46153846153845" r="3" fill="#2563eb"></circle><circle class="dot" cx="106.66666666666666" cy="78.46153846153845" r="3" fill="#2563eb"></circle><circle class="dot" cx="108" cy="78.46153846153845" r="3" fill="#2563eb"></circle><circle class="dot" cx="109.33333333333333" cy="78.46153846153845" r="3" fill="#2563eb"></circle><circle class="dot" cx="110.66666666666667" cy="78.46153846153845" r="3" fill="#2563eb"></circle><circle class="dot" cx="112" cy="78.46153846153845" r="3" fill="#2563eb"></circle><circle class="dot" cx="113.33333333333334" cy="78.46153846153845" r="3" fill="#2563eb"></circle><circle class="dot" cx="114.66666666666667" cy="78.46153846153845" r="3" fill="#2563eb"></circle><circle class="dot" cx="116.00000000000001" cy="78.46153846153845" r="3" fill="#2563eb"></circle><circle class="dot" cx="117.33333333333334" cy="78.46153846153845" r="3" fill="#2563eb"></circle><circle class="dot" cx="118.66666666666666" cy="78.46153846153845" r="3" fill="#2563eb"></circle><circle class="dot" cx="120" cy="78.46153846153845" r="3" fill="#2563eb"></circle><circle class="dot" cx="121.33333333333333" cy="78.46153846153845" r="3" fill="#2563eb"></circle><circle class="dot" cx="122.66666666666666" cy="78.46153846153845" r="3" fill="#2563eb"></circle><circle class="dot" cx="124" cy="78.46153846153845" r="3" fill="#2563eb"></circle><circle class="dot" cx="125.33333333333333" cy="78.46153846153845" r="3" fill="#2563eb"></circle><circle class="dot" cx="126.66666666666667" cy="78.46153846153845" r="3" fill="#2563eb"></circle><circle class="dot" cx="128" cy="78.46153846153845" r="3" fill="#2563eb"></circle><circle class="dot" cx="129.33333333333334" cy="340" r="3" fill="#2563eb"></circle><circle class="dot" cx="130.66666666666669" cy="340" r="3" fill="#2563eb"></circle><circle class="dot" cx="132" cy="340" r="3" fill="#2563eb"></circle><circle class="dot" cx="133.33333333333331" cy="340" r="3" fill="#2563eb"></circle><circle class="dot" cx="134.66666666666666" cy="340" r="3" fill="#2563eb"></circle><circle class="dot" cx="136" cy="340" r="3" fill="#2563eb"></circle><circle class="dot" cx="137.33333333333334" cy="340" r="3" fill="#2563eb"></circle><circle class="dot" cx="138.66666666666666" cy="340" r="3" fill="#2563eb"></circle><circle class="dot" cx="140" cy="78.46153846153845" r="3" fill="#2563eb"></circle><circle class="dot" cx="141.33333333333334" cy="78.46153846153845" r="3" fill="#2563eb"></circle><circle class="dot" cx="142.66666666666669" cy="78.46153846153845" r="3" fill="#2563eb"></circle><circle class="dot" cx="144" cy="78.46153846153845" r="3" fill="#2563eb"></circle><circle class="dot" cx="145.33333333333334" cy="78.46153846153845" r="3" fill="#2563eb"></circle><circle class="dot" cx="146.66666666666666" cy="78.46153846153845" r="3" fill="#2563eb"></circle><circle class="dot" cx="148" cy="78.46153846153845" r="3" fill="#2563eb"></circle><circle class="dot" cx="149.33333333333334" cy="78.46153846153845" r="3" fill="#2563eb"></circle><circle class="dot" cx="150.66666666666666" cy="78.46153846153845" r="3" fill="#2563eb"></circle><circle class="dot" cx="152" cy="78.46153846153845" r="3" fill="#2563eb"></circle><circle class="dot" cx="153.33333333333334" cy="78.46153846153845" r="3" fill="#2563eb"></circle><circle class="dot" cx="154.66666666666666" cy="78.46153846153845" r="3" fill="#2563eb"></circle><circle class="dot" cx="156" cy="78.46153846153845" r="3" fill="#2563eb"></circle><circle class="dot" cx="157.33333333333334" cy="78.46153846153845" r="3" fill="#2563eb"></circle><circle class="dot" cx="158.66666666666669" cy="78.46153846153845" r="3" fill="#2563eb"></circle><circle class="dot" cx="160" cy="78.46153846153845" r="3" fill="#2563eb"></circle><circle class="dot" cx="161.33333333333331" cy="78.46153846153845" r="3" fill="#2563eb"></circle><circle class="dot" cx="162.66666666666666" cy="78.46153846153845" r="3" fill="#2563eb"></circle><circle class="dot" cx="164" cy="78.46153846153845" r="3" fill="#2563eb"></circle><circle class="dot" cx="165.33333333333334" cy="78.46153846153845" r="3" fill="#2563eb"></circle><circle class="dot" cx="166.66666666666666" cy="78.46153846153845" r="3" fill="#2563eb"></circle><circle class="dot" cx="168" cy="78.46153846153845" r="3" fill="#2563eb"></circle><circle class="dot" cx="169.33333333333334" cy="78.46153846153845" r="3" fill="#2563eb"></circle><circle class="dot" cx="170.66666666666669" cy="78.46153846153845" r="3" fill="#2563eb"></circle><circle class="dot" cx="172" cy="78.46153846153845" r="3" fill="#2563eb"></circle><circle class="dot" cx="173.33333333333331" cy="78.46153846153845" r="3" fill="#2563eb"></circle><circle class="dot" cx="174.66666666666666" cy="78.46153846153845" r="3" fill="#2563eb"></circle><circle class="dot" cx="176" cy="78.46153846153845" r="3" fill="#2563eb"></circle><circle class="dot" cx="177.33333333333334" cy="78.46153846153845" r="3" fill="#2563eb"></circle><circle class="dot" cx="178.66666666666666" cy="78.46153846153845" r="3" fill="#2563eb"></circle><circle class="dot" cx="180" cy="78.46153846153845" r="3" fill="#2563eb"></circle><circle class="dot" cx="181.33333333333331" cy="78.46153846153845" r="3" fill="#2563eb"></circle><circle class="dot" cx="182.66666666666666" cy="78.46153846153845" r="3" fill="#2563eb"></circle><circle class="dot" cx="184" cy="78.46153846153845" r="3" fill="#2563eb"></circle><circle class="dot" cx="185.33333333333334" cy="78.46153846153845" r="3" fill="#2563eb"></circle><circle class="dot" cx="186.66666666666666" cy="78.46153846153845" r="3" fill="#2563eb"></circle><circle class="dot" cx="188" cy="78.46153846153845" r="3" fill="#2563eb"></circle><circle class="dot" cx="189.33333333333331" cy="78.46153846153845" r="3" fill="#2563eb"></circle><circle class="dot" cx="190.66666666666669" cy="78.46153846153845" r="3" fill="#2563eb"></circle><circle class="dot" cx="192" cy="78.46153846153845" r="3" fill="#2563eb"></circle><circle class="dot" cx="193.33333333333334" cy="78.46153846153845" r="3" fill="#2563eb"></circle><circle class="dot" cx="194.66666666666666" cy="78.46153846153845" r="3" fill="#2563eb"></circle><circle class="dot" cx="195.99999999999997" cy="78.46153846153845" r="3" fill="#2563eb"></circle><circle class="dot" cx="197.33333333333334" cy="78.46153846153845" r="3" fill="#2563eb"></circle><circle class="dot" cx="198.66666666666666" cy="78.46153846153845" r="3" fill="#2563eb"></circle><circle class="dot" cx="200" cy="78.46153846153845" r="3" fill="#2563eb"></circle><circle class="dot" cx="201.33333333333331" cy="78.46153846153845" r="3" fill="#2563eb"></circle><circle class="dot" cx="202.66666666666669" cy="78.46153846153845" r="3" fill="#2563eb"></circle><circle class="dot" cx="204" cy="78.46153846153845" r="3" fill="#2563eb"></circle><circle class="dot" cx="205.33333333333334" cy="78.46153846153845" r="3" fill="#2563eb"></circle><circle class="dot" cx="206.66666666666666" cy="78.46153846153845" r="3" fill="#2563eb"></circle><circle class="dot" cx="207.99999999999997" cy="78.46153846153845" r="3" fill="#2563eb"></circle><circle class="dot" cx="209.33333333333334" cy="78.46153846153845" r="3" fill="#2563eb"></circle><circle class="dot" cx="210.66666666666666" cy="78.46153846153845" r="3" fill="#2563eb"></circle><circle class="dot" cx="212" cy="78.46153846153845" r="3" fill="#2563eb"></circle><circle class="dot" cx="213.33333333333331" cy="78.46153846153845" r="3" fill="#2563eb"></circle><circle class="dot" cx="214.66666666666669" cy="78.46153846153845" r="3" fill="#2563eb"></circle><circle class="dot" cx="216" cy="78.46153846153845" r="3" fill="#2563eb"></circle><circle class="dot" cx="217.33333333333334" cy="78.46153846153845" r="3" fill="#2563eb"></circle><circle class="dot" cx="218.66666666666666" cy="78.46153846153845" r="3" fill="#2563eb"></circle><circle class="dot" cx="220.00000000000003" cy="78.46153846153845" r="3" fill="#2563eb"></circle><circle class="dot" cx="221.33333333333334" cy="78.46153846153845" r="3" fill="#2563eb"></circle><circle class="dot" cx="222.66666666666666" cy="78.46153846153845" r="3" fill="#2563eb"></circle><circle class="dot" cx="224" cy="78.46153846153845" r="3" fill="#2563eb"></circle><circle class="dot" cx="225.33333333333331" cy="78.46153846153845" r="3" fill="#2563eb"></circle><circle class="dot" cx="226.66666666666669" cy="78.46153846153845" r="3" fill="#2563eb"></circle><circle class="dot" cx="228" cy="78.46153846153845" r="3" fill="#2563eb"></circle><circle class="dot" cx="229.33333333333334" cy="78.46153846153845" r="3" fill="#2563eb"></circle><circle class="dot" cx="230.66666666666666" cy="78.46153846153845" r="3" fill="#2563eb"></circle><circle class="dot" cx="232.00000000000003" cy="78.46153846153845" r="3" fill="#2563eb"></circle><circle class="dot" cx="233.33333333333334" cy="78.46153846153845" r="3" fill="#2563eb"></circle><circle class="dot" cx="234.66666666666669" cy="78.46153846153845" r="3" fill="#2563eb"></circle><circle class="dot" cx="236" cy="78.46153846153845" r="3" fill="#2563eb"></circle><circle class="dot" cx="237.33333333333331" cy="78.46153846153845" r="3" fill="#2563eb"></circle><circle class="dot" cx="238.66666666666669" cy="78.46153846153845" r="3" fill="#2563eb"></circle><circle class="dot" cx="240" cy="78.46153846153845" r="3" fill="#2563eb"></circle><circle class="dot" cx="241.33333333333334" cy="78.46153846153845" r="3" fill="#2563eb"></circle><circle class="dot" cx="242.66666666666666" cy="78.46153846153845" r="3" fill="#2563eb"></circle><circle class="dot" cx="244" cy="78.46153846153845" r="3" fill="#2563eb"></circle><circle class="dot" cx="245.33333333333331" cy="78.46153846153845" r="3" fill="#2563eb"></circle><circle class="dot" cx="246.66666666666669" cy="78.46153846153845" r="3" fill="#2563eb"></circle><circle class="dot" cx="248" cy="78.46153846153845" r="3" fill="#2563eb"></circle><circle class="dot" cx="249.33333333333331" cy="78.46153846153845" r="3" fill="#2563eb"></circle><circle class="dot" cx="250.66666666666666" cy="78.46153846153845" r="3" fill="#2563eb"></circle><circle class="dot" cx="251.99999999999997" cy="78.46153846153845" r="3" fill="#2563eb"></circle><circle class="dot" cx="253.33333333333334" cy="78.46153846153845" r="3" fill="#2563eb"></circle><circle class="dot" cx="254.66666666666666" cy="78.46153846153845" r="3" fill="#2563eb"></circle><circle class="dot" cx="256" cy="78.46153846153845" r="3" fill="#2563eb"></circle><circle class="dot" cx="257.3333333333333" cy="78.46153846153845" r="3" fill="#2563eb"></circle><circle class="dot" cx="258.6666666666667" cy="78.46153846153845" r="3" fill="#2563eb"></circle><circle class="dot" cx="260" cy="78.46153846153845" r="3" fill="#2563eb"></circle><circle class="dot" cx="261.33333333333337" cy="78.46153846153845" r="3" fill="#2563eb"></circle><circle class="dot" cx="262.6666666666667" cy="78.46153846153845" r="3" fill="#2563eb"></circle><circle class="dot" cx="264" cy="78.46153846153845" r="3" fill="#2563eb"></circle><circle class="dot" cx="265.3333333333333" cy="78.46153846153845" r="3" fill="#2563eb"></circle><circle class="dot" cx="266.66666666666663" cy="78.46153846153845" r="3" fill="#2563eb"></circle><circle class="dot" cx="268" cy="78.46153846153845" r="3" fill="#2563eb"></circle><circle class="dot" cx="269.3333333333333" cy="78.46153846153845" r="3" fill="#2563eb"></circle><circle class="dot" cx="270.6666666666667" cy="78.46153846153845" r="3" fill="#2563eb"></circle><circle class="dot" cx="272" cy="78.46153846153845" r="3" fill="#2563eb"></circle><circle class="dot" cx="273.33333333333337" cy="78.46153846153845" r="3" fill="#2563eb"></circle><circle class="dot" cx="274.6666666666667" cy="78.46153846153845" r="3" fill="#2563eb"></circle><circle class="dot" cx="276" cy="78.46153846153845" r="3" fill="#2563eb"></circle><circle class="dot" cx="277.3333333333333" cy="78.46153846153845" r="3" fill="#2563eb"></circle><circle class="dot" cx="278.66666666666663" cy="78.46153846153845" r="3" fill="#2563eb"></circle><circle class="dot" cx="280" cy="78.46153846153845" r="3" fill="#2563eb"></circle><circle class="dot" cx="281.3333333333333" cy="78.46153846153845" r="3" fill="#2563eb"></circle><circle class="dot" cx="282.6666666666667" cy="78.46153846153845" r="3" fill="#2563eb"></circle><circle class="dot" cx="284" cy="78.46153846153845" r="3" fill="#2563eb"></circle><circle class="dot" cx="285.33333333333337" cy="78.46153846153845" r="3" fill="#2563eb"></circle><circle class="dot" cx="286.6666666666667" cy="78.46153846153845" r="3" fill="#2563eb"></circle><circle class="dot" cx="288" cy="78.46153846153845" r="3" fill="#2563eb"></circle><circle class="dot" cx="289.3333333333333" cy="78.46153846153845" r="3" fill="#2563eb"></circle><circle class="dot" cx="290.6666666666667" cy="78.46153846153845" r="3" fill="#2563eb"></circle><circle class="dot" cx="292" cy="78.46153846153845" r="3" fill="#2563eb"></circle><circle class="dot" cx="293.3333333333333" cy="78.46153846153845" r="3" fill="#2563eb"></circle><circle class="dot" cx="294.6666666666667" cy="78.46153846153845" r="3" fill="#2563eb"></circle><circle class="dot" cx="296" cy="78.46153846153845" r="3" fill="#2563eb"></circle><circle class="dot" cx="297.33333333333337" cy="78.46153846153845" r="3" fill="#2563eb"></circle><circle class="dot" cx="298.6666666666667" cy="78.46153846153845" r="3" fill="#2563eb"></circle><circle class="dot" cx="300" cy="78.46153846153845" r="3" fill="#2563eb"></circle><circle class="dot" cx="301.3333333333333" cy="78.46153846153845" r="3" fill="#2563eb"></circle><circle class="dot" cx="302.6666666666667" cy="78.46153846153845" r="3" fill="#2563eb"></circle><circle class="dot" cx="304" cy="78.46153846153845" r="3" fill="#2563eb"></circle><circle class="dot" cx="305.3333333333333" cy="78.46153846153845" r="3" fill="#2563eb"></circle><circle class="dot" cx="306.6666666666667" cy="78.46153846153845" r="3" fill="#2563eb"></circle><circle class="dot" cx="308" cy="78.46153846153845" r="3" fill="#2563eb"></circle><circle class="dot" cx="309.3333333333333" cy="78.46153846153845" r="3" fill="#2563eb"></circle><circle class="dot" cx="310.66666666666663" cy="78.46153846153845" r="3" fill="#2563eb"></circle><circle class="dot" cx="312" cy="78.46153846153845" r="3" fill="#2563eb"></circle><circle class="dot" cx="313.3333333333333" cy="78.46153846153845" r="3" fill="#2563eb"></circle><circle class="dot" cx="314.6666666666667" cy="78.46153846153845" r="3" fill="#2563eb"></circle><circle class="dot" cx="316" cy="78.46153846153845" r="3" fill="#2563eb"></circle><circle class="dot" cx="317.33333333333337" cy="78.46153846153845" r="3" fill="#2563eb"></circle><circle class="dot" cx="318.6666666666667" cy="78.46153846153845" r="3" fill="#2563eb"></circle><circle class="dot" cx="320" cy="78.46153846153845" r="3" fill="#2563eb"></circle><circle class="dot" cx="321.3333333333333" cy="78.46153846153845" r="3" fill="#2563eb"></circle><circle class="dot" cx="322.66666666666663" cy="78.46153846153845" r="3" fill="#2563eb"></circle><circle class="dot" cx="324" cy="78.46153846153845" r="3" fill="#2563eb"></circle><circle class="dot" cx="325.3333333333333" cy="78.46153846153845" r="3" fill="#2563eb"></circle><circle class="dot" cx="326.6666666666667" cy="78.46153846153845" r="3" fill="#2563eb"></circle><circle class="dot" cx="328" cy="78.46153846153845" r="3" fill="#2563eb"></circle><circle class="dot" cx="329.33333333333337" cy="78.46153846153845" r="3" fill="#2563eb"></circle><circle class="dot" cx="330.6666666666667" cy="78.46153846153845" r="3" fill="#2563eb"></circle><circle class="dot" cx="332" cy="78.46153846153845" r="3" fill="#2563eb"></circle><circle class="dot" cx="333.3333333333333" cy="78.46153846153845" r="3" fill="#2563eb"></circle><circle class="dot" cx="334.66666666666663" cy="78.46153846153845" r="3" fill="#2563eb"></circle><circle class="dot" cx="336" cy="78.46153846153845" r="3" fill="#2563eb"></circle><circle class="dot" cx="337.3333333333333" cy="78.46153846153845" r="3" fill="#2563eb"></circle><circle class="dot" cx="338.6666666666667" cy="78.46153846153845" r="3" fill="#2563eb"></circle><circle class="dot" cx="340" cy="78.46153846153845" r="3" fill="#2563eb"></circle><circle class="dot" cx="341.33333333333337" cy="78.46153846153845" r="3" fill="#2563eb"></circle><circle class="dot" cx="342.6666666666667" cy="78.46153846153845" r="3" fill="#2563eb"></circle><circle class="dot" cx="344" cy="78.46153846153845" r="3" fill="#2563eb"></circle><circle class="dot" cx="345.3333333333333" cy="78.46153846153845" r="3" fill="#2563eb"></circle><circle class="dot" cx="346.66666666666663" cy="78.46153846153845" r="3" fill="#2563eb"></circle><circle class="dot" cx="348" cy="78.46153846153845" r="3" fill="#2563eb"></circle><circle class="dot" cx="349.3333333333333" cy="78.46153846153845" r="3" fill="#2563eb"></circle><circle class="dot" cx="350.6666666666667" cy="78.46153846153845" r="3" fill="#2563eb"></circle><circle class="dot" cx="352" cy="78.46153846153845" r="3" fill="#2563eb"></circle><circle class="dot" cx="353.33333333333337" cy="78.46153846153845" r="3" fill="#2563eb"></circle><circle class="dot" cx="354.6666666666667" cy="78.46153846153845" r="3" fill="#2563eb"></circle><circle class="dot" cx="356" cy="78.46153846153845" r="3" fill="#2563eb"></circle><circle class="dot" cx="357.3333333333333" cy="78.46153846153845" r="3" fill="#2563eb"></circle><circle class="dot" cx="358.6666666666667" cy="78.46153846153845" r="3" fill="#2563eb"></circle><circle class="dot" cx="360" cy="78.46153846153845" r="3" fill="#2563eb"></circle><circle class="dot" cx="361.33333333333337" cy="78.46153846153845" r="3" fill="#2563eb"></circle><circle class="dot" cx="362.66666666666663" cy="78.46153846153845" r="3" fill="#2563eb"></circle><circle class="dot" cx="364" cy="78.46153846153845" r="3" fill="#2563eb"></circle><circle class="dot" cx="365.3333333333333" cy="78.46153846153845" r="3" fill="#2563eb"></circle><circle class="dot" cx="366.6666666666667" cy="78.46153846153845" r="3" fill="#2563eb"></circle><circle class="dot" cx="368" cy="78.46153846153845" r="3" fill="#2563eb"></circle><circle class="dot" cx="369.3333333333333" cy="78.46153846153845" r="3" fill="#2563eb"></circle><circle class="dot" cx="370.6666666666667" cy="78.46153846153845" r="3" fill="#2563eb"></circle><circle class="dot" cx="372.00000000000006" cy="78.46153846153845" r="3" fill="#2563eb"></circle><circle class="dot" cx="373.3333333333333" cy="78.46153846153845" r="3" fill="#2563eb"></circle><circle class="dot" cx="374.6666666666667" cy="78.46153846153845" r="3" fill="#2563eb"></circle><circle class="dot" cx="376" cy="78.46153846153845" r="3" fill="#2563eb"></circle><circle class="dot" cx="377.3333333333333" cy="78.46153846153845" r="3" fill="#2563eb"></circle><circle class="dot" cx="378.66666666666663" cy="78.46153846153845" r="3" fill="#2563eb"></circle><circle class="dot" cx="380" cy="78.46153846153845" r="3" fill="#2563eb"></circle><circle class="dot" cx="381.33333333333337" cy="78.46153846153845" r="3" fill="#2563eb"></circle><circle class="dot" cx="382.66666666666663" cy="78.46153846153845" r="3" fill="#2563eb"></circle><circle class="dot" cx="384" cy="78.46153846153845" r="3" fill="#2563eb"></circle><circle class="dot" cx="385.33333333333337" cy="78.46153846153845" r="3" fill="#2563eb"></circle><circle class="dot" cx="386.6666666666667" cy="78.46153846153845" r="3" fill="#2563eb"></circle><circle class="dot" cx="388" cy="78.46153846153845" r="3" fill="#2563eb"></circle><circle class="dot" cx="389.3333333333333" cy="78.46153846153845" r="3" fill="#2563eb"></circle><circle class="dot" cx="390.6666666666667" cy="78.46153846153845" r="3" fill="#2563eb"></circle><circle class="dot" cx="391.99999999999994" cy="78.46153846153845" r="3" fill="#2563eb"></circle><circle class="dot" cx="393.3333333333333" cy="78.46153846153845" r="3" fill="#2563eb"></circle><circle class="dot" cx="394.6666666666667" cy="78.46153846153845" r="3" fill="#2563eb"></circle><circle class="dot" cx="396.00000000000006" cy="78.46153846153845" r="3" fill="#2563eb"></circle><circle class="dot" cx="397.3333333333333" cy="78.46153846153845" r="3" fill="#2563eb"></circle><circle class="dot" cx="398.6666666666667" cy="78.46153846153845" r="3" fill="#2563eb"></circle><circle class="dot" cx="400" cy="78.46153846153845" r="3" fill="#2563eb"></circle><circle class="dot" cx="401.33333333333337" cy="78.46153846153845" r="3" fill="#2563eb"></circle><circle class="dot" cx="402.66666666666663" cy="78.46153846153845" r="3" fill="#2563eb"></circle><circle class="dot" cx="404" cy="78.46153846153845" r="3" fill="#2563eb"></circle><circle class="dot" cx="405.33333333333337" cy="78.46153846153845" r="3" fill="#2563eb"></circle><circle class="dot" cx="406.66666666666663" cy="78.46153846153845" r="3" fill="#2563eb"></circle><circle class="dot" cx="408" cy="78.46153846153845" r="3" fill="#2563eb"></circle><circle class="dot" cx="409.33333333333337" cy="78.46153846153845" r="3" fill="#2563eb"></circle><circle class="dot" cx="410.6666666666667" cy="78.46153846153845" r="3" fill="#2563eb"></circle><circle class="dot" cx="412" cy="78.46153846153845" r="3" fill="#2563eb"></circle><circle class="dot" cx="413.3333333333333" cy="78.46153846153845" r="3" fill="#2563eb"></circle><circle class="dot" cx="414.6666666666667" cy="78.46153846153845" r="3" fill="#2563eb"></circle><circle class="dot" cx="415.99999999999994" cy="78.46153846153845" r="3" fill="#2563eb"></circle><circle class="dot" cx="417.3333333333333" cy="78.46153846153845" r="3" fill="#2563eb"></circle><circle class="dot" cx="418.6666666666667" cy="78.46153846153845" r="3" fill="#2563eb"></circle><circle class="dot" cx="420" cy="78.46153846153845" r="3" fill="#2563eb"></circle><circle class="dot" cx="421.3333333333333" cy="78.46153846153845" r="3" fill="#2563eb"></circle><circle class="dot" cx="422.66666666666663" cy="78.46153846153845" r="3" fill="#2563eb"></circle><circle class="dot" cx="424" cy="78.46153846153845" r="3" fill="#2563eb"></circle><circle class="dot" cx="425.33333333333337" cy="78.46153846153845" r="3" fill="#2563eb"></circle><circle class="dot" cx="426.66666666666663" cy="78.46153846153845" r="3" fill="#2563eb"></circle><circle class="dot" cx="428" cy="78.46153846153845" r="3" fill="#2563eb"></circle><circle class="dot" cx="429.33333333333337" cy="78.46153846153845" r="3" fill="#2563eb"></circle><circle class="dot" cx="430.66666666666663" cy="78.46153846153845" r="3" fill="#2563eb"></circle><circle class="dot" cx="432" cy="78.46153846153845" r="3" fill="#2563eb"></circle><circle class="dot" cx="433.3333333333333" cy="78.46153846153845" r="3" fill="#2563eb"></circle><circle class="dot" cx="434.6666666666667" cy="78.46153846153845" r="3" fill="#2563eb"></circle><circle class="dot" cx="435.99999999999994" cy="78.46153846153845" r="3" fill="#2563eb"></circle><circle class="dot" cx="437.3333333333333" cy="78.46153846153845" r="3" fill="#2563eb"></circle><circle class="dot" cx="438.6666666666667" cy="78.46153846153845" r="3" fill="#2563eb"></circle><circle class="dot" cx="440.00000000000006" cy="78.46153846153845" r="3" fill="#2563eb"></circle><circle class="dot" cx="441.3333333333333" cy="78.46153846153845" r="3" fill="#2563eb"></circle><circle class="dot" cx="442.6666666666667" cy="78.46153846153845" r="3" fill="#2563eb"></circle><circle class="dot" cx="444" cy="78.46153846153845" r="3" fill="#2563eb"></circle><circle class="dot" cx="445.3333333333333" cy="78.46153846153845" r="3" fill="#2563eb"></circle><circle class="dot" cx="446.66666666666663" cy="78.46153846153845" r="3" fill="#2563eb"></circle><circle class="dot" cx="448" cy="78.46153846153845" r="3" fill="#2563eb"></circle><circle class="dot" cx="449.33333333333337" cy="78.46153846153845" r="3" fill="#2563eb"></circle><circle class="dot" cx="450.66666666666663" cy="78.46153846153845" r="3" fill="#2563eb"></circle><circle class="dot" cx="452" cy="78.46153846153845" r="3" fill="#2563eb"></circle><circle class="dot" cx="453.33333333333337" cy="78.46153846153845" r="3" fill="#2563eb"></circle><circle class="dot" cx="454.6666666666667" cy="78.46153846153845" r="3" fill="#2563eb"></circle><circle class="dot" cx="456" cy="78.46153846153845" r="3" fill="#2563eb"></circle><circle class="dot" cx="457.3333333333333" cy="78.46153846153845" r="3" fill="#2563eb"></circle><circle class="dot" cx="458.6666666666667" cy="78.46153846153845" r="3" fill="#2563eb"></circle><circle class="dot" cx="459.99999999999994" cy="78.46153846153845" r="3" fill="#2563eb"></circle><circle class="dot" cx="461.3333333333333" cy="78.46153846153845" r="3" fill="#2563eb"></circle><circle class="dot" cx="462.6666666666667" cy="78.46153846153845" r="3" fill="#2563eb"></circle><circle class="dot" cx="464.00000000000006" cy="78.46153846153845" r="3" fill="#2563eb"></circle><circle class="dot" cx="465.3333333333333" cy="78.46153846153845" r="3" fill="#2563eb"></circle><circle class="dot" cx="466.6666666666667" cy="78.46153846153845" r="3" fill="#2563eb"></circle><circle class="dot" cx="468" cy="78.46153846153845" r="3" fill="#2563eb"></circle><circle class="dot" cx="469.33333333333337" cy="78.46153846153845" r="3" fill="#2563eb"></circle><circle class="dot" cx="470.66666666666663" cy="78.46153846153845" r="3" fill="#2563eb"></circle><circle class="dot" cx="472" cy="78.46153846153845" r="3" fill="#2563eb"></circle><circle class="dot" cx="473.33333333333337" cy="78.46153846153845" r="3" fill="#2563eb"></circle><circle class="dot" cx="474.66666666666663" cy="78.46153846153845" r="3" fill="#2563eb"></circle><circle class="dot" cx="476" cy="78.46153846153845" r="3" fill="#2563eb"></circle><circle class="dot" cx="477.33333333333337" cy="78.46153846153845" r="3" fill="#2563eb"></circle><circle class="dot" cx="478.6666666666667" cy="78.46153846153845" r="3" fill="#2563eb"></circle><circle class="dot" cx="480" cy="78.46153846153845" r="3" fill="#2563eb"></circle><circle class="dot" cx="481.3333333333333" cy="78.46153846153845" r="3" fill="#2563eb"></circle><circle class="dot" cx="482.6666666666667" cy="78.46153846153845" r="3" fill="#2563eb"></circle><circle class="dot" cx="484.00000000000006" cy="78.46153846153845" r="3" fill="#2563eb"></circle><circle class="dot" cx="485.3333333333333" cy="78.46153846153845" r="3" fill="#2563eb"></circle><circle class="dot" cx="486.6666666666667" cy="78.46153846153845" r="3" fill="#2563eb"></circle><circle class="dot" cx="488" cy="78.46153846153845" r="3" fill="#2563eb"></circle><circle class="dot" cx="489.3333333333333" cy="78.46153846153845" r="3" fill="#2563eb"></circle><circle class="dot" cx="490.66666666666663" cy="78.46153846153845" r="3" fill="#2563eb"></circle><circle class="dot" cx="492" cy="78.46153846153845" r="3" fill="#2563eb"></circle><circle class="dot" cx="493.33333333333337" cy="78.46153846153845" r="3" fill="#2563eb"></circle><circle class="dot" cx="494.66666666666663" cy="78.46153846153845" r="3" fill="#2563eb"></circle><circle class="dot" cx="496" cy="78.46153846153845" r="3" fill="#2563eb"></circle><circle class="dot" cx="497.33333333333337" cy="78.46153846153845" r="3" fill="#2563eb"></circle><circle class="dot" cx="498.66666666666663" cy="78.46153846153845" r="3" fill="#2563eb"></circle><circle class="dot" cx="500" cy="78.46153846153845" r="3" fill="#2563eb"></circle><circle class="dot" cx="501.3333333333333" cy="78.46153846153845" r="3" fill="#2563eb"></circle><circle class="dot" cx="502.6666666666667" cy="78.46153846153845" r="3" fill="#2563eb"></circle><circle class="dot" cx="503.99999999999994" cy="78.46153846153845" r="3" fill="#2563eb"></circle><circle class="dot" cx="505.3333333333333" cy="78.46153846153845" r="3" fill="#2563eb"></circle><circle class="dot" cx="506.6666666666667" cy="78.46153846153845" r="3" fill="#2563eb"></circle><circle class="dot" cx="508.00000000000006" cy="78.46153846153845" r="3" fill="#2563eb"></circle><circle class="dot" cx="509.3333333333333" cy="78.46153846153845" r="3" fill="#2563eb"></circle><circle class="dot" cx="510.6666666666667" cy="78.46153846153845" r="3" fill="#2563eb"></circle><circle class="dot" cx="512" cy="78.46153846153845" r="3" fill="#2563eb"></circle><circle class="dot" cx="513.3333333333333" cy="78.46153846153845" r="3" fill="#2563eb"></circle><circle class="dot" cx="514.6666666666666" cy="78.46153846153845" r="3" fill="#2563eb"></circle><circle class="dot" cx="516" cy="78.46153846153845" r="3" fill="#2563eb"></circle><circle class="dot" cx="517.3333333333334" cy="78.46153846153845" r="3" fill="#2563eb"></circle><circle class="dot" cx="518.6666666666666" cy="78.46153846153845" r="3" fill="#2563eb"></circle><circle class="dot" cx="520" cy="78.46153846153845" r="3" fill="#2563eb"></circle><circle class="dot" cx="521.3333333333334" cy="78.46153846153845" r="3" fill="#2563eb"></circle><circle class="dot" cx="522.6666666666667" cy="78.46153846153845" r="3" fill="#2563eb"></circle><circle class="dot" cx="524" cy="78.46153846153845" r="3" fill="#2563eb"></circle><circle class="dot" cx="525.3333333333334" cy="78.46153846153845" r="3" fill="#2563eb"></circle><circle class="dot" cx="526.6666666666667" cy="78.46153846153845" r="3" fill="#2563eb"></circle><circle class="dot" cx="528" cy="78.46153846153845" r="3" fill="#2563eb"></circle><circle class="dot" cx="529.3333333333334" cy="78.46153846153845" r="3" fill="#2563eb"></circle><circle class="dot" cx="530.6666666666666" cy="78.46153846153845" r="3" fill="#2563eb"></circle><circle class="dot" cx="532" cy="78.46153846153845" r="3" fill="#2563eb"></circle><circle class="dot" cx="533.3333333333333" cy="78.46153846153845" r="3" fill="#2563eb"></circle><circle class="dot" cx="534.6666666666666" cy="78.46153846153845" r="3" fill="#2563eb"></circle><circle class="dot" cx="536" cy="78.46153846153845" r="3" fill="#2563eb"></circle><circle class="dot" cx="537.3333333333334" cy="78.46153846153845" r="3" fill="#2563eb"></circle><circle class="dot" cx="538.6666666666666" cy="78.46153846153845" r="3" fill="#2563eb"></circle><circle class="dot" cx="540" cy="78.46153846153845" r="3" fill="#2563eb"></circle><circle class="dot" cx="541.3333333333334" cy="78.46153846153845" r="3" fill="#2563eb"></circle><circle class="dot" cx="542.6666666666666" cy="78.46153846153845" r="3" fill="#2563eb"></circle><circle class="dot" cx="544" cy="78.46153846153845" r="3" fill="#2563eb"></circle><circle class="dot" cx="545.3333333333334" cy="78.46153846153845" r="3" fill="#2563eb"></circle><circle class="dot" cx="546.6666666666667" cy="13.076923076922993" r="3" fill="#2563eb"></circle><circle class="dot" cx="548" cy="13.076923076922993" r="3" fill="#2563eb"></circle><circle class="dot" cx="549.3333333333334" cy="13.076923076922993" r="3" fill="#2563eb"></circle><circle class="dot" cx="550.6666666666666" cy="13.076923076922993" r="3" fill="#2563eb"></circle><circle class="dot" cx="552" cy="13.076923076922993" r="3" fill="#2563eb"></circle><circle class="dot" cx="553.3333333333333" cy="13.076923076922993" r="3" fill="#2563eb"></circle><circle class="dot" cx="554.6666666666666" cy="13.076923076922993" r="3" fill="#2563eb"></circle><circle class="dot" cx="556" cy="13.076923076922993" r="3" fill="#2563eb"></circle><circle class="dot" cx="557.3333333333333" cy="13.076923076922993" r="3" fill="#2563eb"></circle><circle class="dot" cx="558.6666666666666" cy="13.076923076922993" r="3" fill="#2563eb"></circle><circle class="dot" cx="560" cy="13.076923076922993" r="3" fill="#2563eb"></circle><circle class="dot" cx="561.3333333333334" cy="13.076923076922993" r="3" fill="#2563eb"></circle><circle class="dot" cx="562.6666666666666" cy="13.076923076922993" r="3" fill="#2563eb"></circle><circle class="dot" cx="564" cy="13.076923076922993" r="3" fill="#2563eb"></circle><circle class="dot" cx="565.3333333333334" cy="13.076923076922993" r="3" fill="#2563eb"></circle><circle class="dot" cx="566.6666666666667" cy="13.076923076922993" r="3" fill="#2563eb"></circle><circle class="dot" cx="568" cy="13.076923076922993" r="3" fill="#2563eb"></circle><circle class="dot" cx="569.3333333333334" cy="13.076923076922993" r="3" fill="#2563eb"></circle><circle class="dot" cx="570.6666666666667" cy="13.076923076922993" r="3" fill="#2563eb"></circle><circle class="dot" cx="572" cy="13.076923076922993" r="3" fill="#2563eb"></circle><circle class="dot" cx="573.3333333333334" cy="13.076923076922993" r="3" fill="#2563eb"></circle><circle class="dot" cx="574.6666666666666" cy="13.076923076922993" r="3" fill="#2563eb"></circle><circle class="dot" cx="576" cy="13.076923076922993" r="3" fill="#2563eb"></circle><circle class="dot" cx="577.3333333333333" cy="13.076923076922993" r="3" fill="#2563eb"></circle><circle class="dot" cx="578.6666666666666" cy="13.076923076922993" r="3" fill="#2563eb"></circle><circle class="dot" cx="580" cy="13.076923076922993" r="3" fill="#2563eb"></circle><circle class="dot" cx="581.3333333333334" cy="13.076923076922993" r="3" fill="#2563eb"></circle><circle class="dot" cx="582.6666666666666" cy="13.076923076922993" r="3" fill="#2563eb"></circle><circle class="dot" cx="584" cy="13.076923076922993" r="3" fill="#2563eb"></circle><circle class="dot" cx="585.3333333333334" cy="13.076923076922993" r="3" fill="#2563eb"></circle><circle class="dot" cx="586.6666666666666" cy="13.076923076922993" r="3" fill="#2563eb"></circle><circle class="dot" cx="588" cy="13.076923076922993" r="3" fill="#2563eb"></circle><circle class="dot" cx="589.3333333333334" cy="13.076923076922993" r="3" fill="#2563eb"></circle><circle class="dot" cx="590.6666666666667" cy="13.076923076922993" r="3" fill="#2563eb"></circle><circle class="dot" cx="592" cy="13.076923076922993" r="3" fill="#2563eb"></circle><circle class="dot" cx="593.3333333333334" cy="13.076923076922993" r="3" fill="#2563eb"></circle><circle class="dot" cx="594.6666666666667" cy="13.076923076922993" r="3" fill="#2563eb"></circle><circle class="dot" cx="596" cy="13.076923076922993" r="3" fill="#2563eb"></circle><circle class="dot" cx="597.3333333333334" cy="13.076923076922993" r="3" fill="#2563eb"></circle><circle class="dot" cx="598.6666666666666" cy="13.076923076922993" r="3" fill="#2563eb"></circle><circle class="dot" cx="600" cy="13.076923076922993" r="3" fill="#2563eb"></circle><circle class="dot" cx="601.3333333333333" cy="13.076923076922993" r="3" fill="#2563eb"></circle><circle class="dot" cx="602.6666666666666" cy="13.076923076922993" r="3" fill="#2563eb"></circle><circle class="dot" cx="604" cy="13.076923076922993" r="3" fill="#2563eb"></circle><circle class="dot" cx="605.3333333333334" cy="13.076923076922993" r="3" fill="#2563eb"></circle><circle class="dot" cx="606.6666666666666" cy="13.076923076922993" r="3" fill="#2563eb"></circle><circle class="dot" cx="608" cy="13.076923076922993" r="3" fill="#2563eb"></circle><circle class="dot" cx="609.3333333333334" cy="13.076923076922993" r="3" fill="#2563eb"></circle><circle class="dot" cx="610.6666666666666" cy="13.076923076922993" r="3" fill="#2563eb"></circle><circle class="dot" cx="612" cy="13.076923076922993" r="3" fill="#2563eb"></circle><circle class="dot" cx="613.3333333333334" cy="13.076923076922993" r="3" fill="#2563eb"></circle><circle class="dot" cx="614.6666666666667" cy="13.076923076922993" r="3" fill="#2563eb"></circle><circle class="dot" cx="616" cy="13.076923076922993" r="3" fill="#2563eb"></circle><circle class="dot" cx="617.3333333333334" cy="13.076923076922993" r="3" fill="#2563eb"></circle><circle class="dot" cx="618.6666666666666" cy="13.076923076922993" r="3" fill="#2563eb"></circle><circle class="dot" cx="620" cy="13.076923076922993" r="3" fill="#2563eb"></circle><circle class="dot" cx="621.3333333333333" cy="13.076923076922993" r="3" fill="#2563eb"></circle><circle class="dot" cx="622.6666666666666" cy="13.076923076922993" r="3" fill="#2563eb"></circle><circle class="dot" cx="624" cy="13.076923076922993" r="3" fill="#2563eb"></circle><circle class="dot" cx="625.3333333333333" cy="13.076923076922993" r="3" fill="#2563eb"></circle><circle class="dot" cx="626.6666666666666" cy="13.076923076922993" r="3" fill="#2563eb"></circle><circle class="dot" cx="628" cy="13.076923076922993" r="3" fill="#2563eb"></circle><circle class="dot" cx="629.3333333333334" cy="13.076923076922993" r="3" fill="#2563eb"></circle><circle class="dot" cx="630.6666666666666" cy="13.076923076922993" r="3" fill="#2563eb"></circle><circle class="dot" cx="632" cy="13.076923076922993" r="3" fill="#2563eb"></circle><circle class="dot" cx="633.3333333333334" cy="13.076923076922993" r="3" fill="#2563eb"></circle><circle class="dot" cx="634.6666666666667" cy="13.076923076922993" r="3" fill="#2563eb"></circle><circle class="dot" cx="636" cy="13.076923076922993" r="3" fill="#2563eb"></circle><circle class="dot" cx="637.3333333333334" cy="13.076923076922993" r="3" fill="#2563eb"></circle><circle class="dot" cx="638.6666666666667" cy="13.076923076922993" r="3" fill="#2563eb"></circle><circle class="dot" cx="640" cy="13.076923076922993" r="3" fill="#2563eb"></circle><circle class="dot" cx="641.3333333333334" cy="13.076923076922993" r="3" fill="#2563eb"></circle><circle class="dot" cx="642.6666666666666" cy="13.076923076922993" r="3" fill="#2563eb"></circle><circle class="dot" cx="644" cy="13.076923076922993" r="3" fill="#2563eb"></circle><circle class="dot" cx="645.3333333333333" cy="13.076923076922993" r="3" fill="#2563eb"></circle><circle class="dot" cx="646.6666666666666" cy="13.076923076922993" r="3" fill="#2563eb"></circle><circle class="dot" cx="648" cy="13.076923076922993" r="3" fill="#2563eb"></circle><circle class="dot" cx="649.3333333333334" cy="13.076923076922993" r="3" fill="#2563eb"></circle><circle class="dot" cx="650.6666666666666" cy="13.076923076922993" r="3" fill="#2563eb"></circle><circle class="dot" cx="652" cy="13.076923076922993" r="3" fill="#2563eb"></circle><circle class="dot" cx="653.3333333333334" cy="13.076923076922993" r="3" fill="#2563eb"></circle><circle class="dot" cx="654.6666666666666" cy="13.076923076922993" r="3" fill="#2563eb"></circle><circle class="dot" cx="656" cy="13.076923076922993" r="3" fill="#2563eb"></circle><circle class="dot" cx="657.3333333333334" cy="13.076923076922993" r="3" fill="#2563eb"></circle><circle class="dot" cx="658.6666666666667" cy="13.076923076922993" r="3" fill="#2563eb"></circle><circle class="dot" cx="660" cy="13.076923076922993" r="3" fill="#2563eb"></circle><circle class="dot" cx="661.3333333333334" cy="13.076923076922993" r="3" fill="#2563eb"></circle><circle class="dot" cx="662.6666666666666" cy="13.076923076922993" r="3" fill="#2563eb"></circle><circle class="dot" cx="664" cy="13.076923076922993" r="3" fill="#2563eb"></circle><circle class="dot" cx="665.3333333333333" cy="13.076923076922993" r="3" fill="#2563eb"></circle><circle class="dot" cx="666.6666666666666" cy="13.076923076922993" r="3" fill="#2563eb"></circle><circle class="dot" cx="668" cy="13.076923076922993" r="3" fill="#2563eb"></circle><circle class="dot" cx="669.3333333333333" cy="13.076923076922993" r="3" fill="#2563eb"></circle><circle class="dot" cx="670.6666666666666" cy="13.076923076922993" r="3" fill="#2563eb"></circle><circle class="dot" cx="672" cy="13.076923076922993" r="3" fill="#2563eb"></circle><circle class="dot" cx="673.3333333333334" cy="13.076923076922993" r="3" fill="#2563eb"></circle><circle class="dot" cx="674.6666666666666" cy="13.076923076922993" r="3" fill="#2563eb"></circle><circle class="dot" cx="676" cy="13.076923076922993" r="3" fill="#2563eb"></circle><circle class="dot" cx="677.3333333333334" cy="13.076923076922993" r="3" fill="#2563eb"></circle><circle class="dot" cx="678.6666666666666" cy="13.076923076922993" r="3" fill="#2563eb"></circle><circle class="dot" cx="680" cy="13.076923076922993" r="3" fill="#2563eb"></circle><circle class="dot" cx="681.3333333333334" cy="13.076923076922993" r="3" fill="#2563eb"></circle><circle class="dot" cx="682.6666666666667" cy="13.076923076922993" r="3" fill="#2563eb"></circle><circle class="dot" cx="684" cy="13.076923076922993" r="3" fill="#2563eb"></circle><circle class="dot" cx="685.3333333333334" cy="13.076923076922993" r="3" fill="#2563eb"></circle><circle class="dot" cx="686.6666666666666" cy="13.076923076922993" r="3" fill="#2563eb"></circle><circle class="dot" cx="688" cy="13.076923076922993" r="3" fill="#2563eb"></circle><circle class="dot" cx="689.3333333333333" cy="13.076923076922993" r="3" fill="#2563eb"></circle><circle class="dot" cx="690.6666666666666" cy="13.076923076922993" r="3" fill="#2563eb"></circle><circle class="dot" cx="692" cy="13.076923076922993" r="3" fill="#2563eb"></circle><circle class="dot" cx="693.3333333333333" cy="13.076923076922993" r="3" fill="#2563eb"></circle><circle class="dot" cx="694.6666666666666" cy="13.076923076922993" r="3" fill="#2563eb"></circle><circle class="dot" cx="696" cy="13.076923076922993" r="3" fill="#2563eb"></circle><circle class="dot" cx="697.3333333333334" cy="13.076923076922993" r="3" fill="#2563eb"></circle><circle class="dot" cx="698.6666666666666" cy="13.076923076922993" r="3" fill="#2563eb"></circle><circle class="dot" cx="700" cy="13.076923076922993" r="3" fill="#2563eb"></circle><circle class="dot" cx="701.3333333333334" cy="13.076923076922993" r="3" fill="#2563eb"></circle><circle class="dot" cx="702.6666666666667" cy="13.076923076922993" r="3" fill="#2563eb"></circle><circle class="dot" cx="704" cy="13.076923076922993" r="3" fill="#2563eb"></circle><circle class="dot" cx="705.3333333333334" cy="13.076923076922993" r="3" fill="#2563eb"></circle><circle class="dot" cx="706.6666666666667" cy="13.076923076922993" r="3" fill="#2563eb"></circle><circle class="dot" cx="708" cy="13.076923076922993" r="3" fill="#2563eb"></circle><circle class="dot" cx="709.3333333333334" cy="13.076923076922993" r="3" fill="#2563eb"></circle><circle class="dot" cx="710.6666666666666" cy="13.076923076922993" r="3" fill="#2563eb"></circle><circle class="dot" cx="712" cy="13.076923076922993" r="3" fill="#2563eb"></circle><circle class="dot" cx="713.3333333333333" cy="13.076923076922993" r="3" fill="#2563eb"></circle><circle class="dot" cx="714.6666666666666" cy="13.076923076922993" r="3" fill="#2563eb"></circle><circle class="dot" cx="716" cy="13.076923076922993" r="3" fill="#2563eb"></circle><circle class="dot" cx="717.3333333333334" cy="13.076923076922993" r="3" fill="#2563eb"></circle><circle class="dot" cx="718.6666666666666" cy="13.076923076922993" r="3" fill="#2563eb"></circle><circle class="dot" cx="720" cy="13.076923076922993" r="3" fill="#2563eb"></circle><g class="grid" transform="translate(0,340)" fill="none" font-size="10" font-family="sans-serif" text-anchor="middle" style="stroke-dasharray: 3,3; opacity: 0.3;"><path class="domain" stroke="currentColor" d="M0.5,-340V0.5H720.5V-340"></path><g class="tick" opacity="1" transform="translate(0.5,0)"><line stroke="currentColor" y2="-340"></line><text fill="currentColor" y="3" dy="0.71em"></text></g><g class="tick" opacity="1" transform="translate(32.5,0)"><line stroke="currentColor" y2="-340"></line><text fill="currentColor" y="3" dy="0.71em"></text></g><g class="tick" opacity="1" transform="translate(64.5,0)"><line stroke="currentColor" y2="-340"></line><text fill="currentColor" y="3" dy="0.71em"></text></g><g class="tick" opacity="1" transform="translate(96.5,0)"><line stroke="currentColor" y2="-340"></line><text fill="currentColor" y="3" dy="0.71em"></text></g><g class="tick" opacity="1" transform="translate(128.5,0)"><line stroke="currentColor" y2="-340"></line><text fill="currentColor" y="3" dy="0.71em"></text></g><g class="tick" opacity="1" transform="translate(160.5,0)"><line stroke="currentColor" y2="-340"></line><text fill="currentColor" y="3" dy="0.71em"></text></g><g class="tick" opacity="1" transform="translate(192.5,0)"><line stroke="currentColor" y2="-340"></line><text fill="currentColor" y="3" dy="0.71em"></text></g><g class="tick" opacity="1" transform="translate(224.5,0)"><line stroke="currentColor" y2="-340"></line><text fill="currentColor" y="3" dy="0.71em"></text></g><g class="tick" opacity="1" transform="translate(256.5,0)"><line stroke="currentColor" y2="-340"></line><text fill="currentColor" y="3" dy="0.71em"></text></g><g class="tick" opacity="1" transform="translate(288.5,0)"><line stroke="currentColor" y2="-340"></line><text fill="currentColor" y="3" dy="0.71em"></text></g><g class="tick" opacity="1" transform="translate(320.5,0)"><line stroke="currentColor" y2="-340"></line><text fill="currentColor" y="3" dy="0.71em"></text></g><g class="tick" opacity="1" transform="translate(352.5,0)"><line stroke="currentColor" y2="-340"></line><text fill="currentColor" y="3" dy="0.71em"></text></g><g class="tick" opacity="1" transform="translate(384.5,0)"><line stroke="currentColor" y2="-340"></line><text fill="currentColor" y="3" dy="0.71em"></text></g><g class="tick" opacity="1" transform="translate(416.49999999999994,0)"><line stroke="currentColor" y2="-340"></line><text fill="currentColor" y="3" dy="0.71em"></text></g><g class="tick" opacity="1" transform="translate(448.5,0)"><line stroke="currentColor" y2="-340"></line><text fill="currentColor" y="3" dy="0.71em"></text></g><g class="tick" opacity="1" transform="translate(480.5,0)"><line stroke="currentColor" y2="-340"></line><text fill="currentColor" y="3" dy="0.71em"></text></g><g class="tick" opacity="1" transform="translate(512.5,0)"><line stroke="currentColor" y2="-340"></line><text fill="currentColor" y="3" dy="0.71em"></text></g><g class="tick" opacity="1" transform="translate(544.5,0)"><line stroke="currentColor" y2="-340"></line><text fill="currentColor" y="3" dy="0.71em"></text></g><g class="tick" opacity="1" transform="translate(576.5,0)"><line stroke="currentColor" y2="-340"></line><text fill="currentColor" y="3" dy="0.71em"></text></g><g class="tick" opacity="1" transform="translate(608.5,0)"><line stroke="currentColor" y2="-340"></line><text fill="currentColor" y="3" dy="0.71em"></text></g><g class="tick" opacity="1" transform="translate(640.5,0)"><line stroke="currentColor" y2="-340"></line><text fill="currentColor" y="3" dy="0.71em"></text></g><g class="tick" opacity="1" transform="translate(672.5,0)"><line stroke="currentColor" y2="-340"></line><text fill="currentColor" y="3" dy="0.71em"></text></g><g class="tick" opacity="1" transform="translate(704.5,0)"><line stroke="currentColor" y2="-340"></line><text fill="currentColor" y="3" dy="0.71em"></text></g></g><g class="grid" fill="none" font-size="10" font-family="sans-serif" text-anchor="end" style="stroke-dasharray: 3,3; opacity: 0.3;"><path class="domain" stroke="currentColor" d="M720,340.5H0.5V0.5H720"></path><g class="tick" opacity="1" transform="translate(0,340.5)"><line stroke="currentColor" x2="720"></line><text fill="currentColor" x="-3" dy="0.32em"></text></g><g class="tick" opacity="1" transform="translate(0,314.3461538461538)"><line stroke="currentColor" x2="720"></line><text fill="currentColor" x="-3" dy="0.32em"></text></g><g class="tick" opacity="1" transform="translate(0,288.1923076923077)"><line stroke="currentColor" x2="720"></line><text fill="currentColor" x="-3" dy="0.32em"></text></g><g class="tick" opacity="1" transform="translate(0,262.0384615384615)"><line stroke="currentColor" x2="720"></line><text fill="currentColor" x="-3" dy="0.32em"></text></g><g class="tick" opacity="1" transform="translate(0,235.8846153846154)"><line stroke="currentColor" x2="720"></line><text fill="currentColor" x="-3" dy="0.32em"></text></g><g class="tick" opacity="1" transform="translate(0,209.7307692307692)"><line stroke="currentColor" x2="720"></line><text fill="currentColor" x="-3" dy="0.32em"></text></g><g class="tick" opacity="1" transform="translate(0,183.57692307692307)"><line stroke="currentColor" x2="720"></line><text fill="currentColor" x="-3" dy="0.32em"></text></g><g class="tick" opacity="1" transform="translate(0,157.4230769230769)"><line stroke="currentColor" x2="720"></line><text fill="currentColor" x="-3" dy="0.32em"></text></g><g class="tick" opacity="1" transform="translate(0,131.26923076923072)"><line stroke="currentColor" x2="720"></line><text fill="currentColor" x="-3" dy="0.32em"></text></g><g class="tick" opacity="1" transform="translate(0,105.11538461538454)"><line stroke="currentColor" x2="720"></line><text fill="currentColor" x="-3" dy="0.32em"></text></g><g class="tick" opacity="1" transform="translate(0,78.96153846153845)"><line stroke="currentColor" x2="720"></line><text fill="currentColor" x="-3" dy="0.32em"></text></g><g class="tick" opacity="1" transform="translate(0,52.80769230769227)"><line stroke="currentColor" x2="720"></line><text fill="currentColor" x="-3" dy="0.32em"></text></g><g class="tick" opacity="1" transform="translate(0,26.6538461538461)"><line stroke="currentColor" x2="720"></line><text fill="currentColor" x="-3" dy="0.32em"></text></g><g class="tick" opacity="1" transform="translate(0,0.5)"><line stroke="currentColor" x2="720"></line><text fill="currentColor" x="-3" dy="0.32em"></text></g></g></g><text x="400" y="10" text-anchor="middle" style="font-size: 16px; font-weight: bold; fill: #333;">OKX USDT Lending Rate - Current Month</text></svg>