<svg width="800" height="400" xmlns="http://www.w3.org/2000/svg"><g transform="translate(50,20)"><g transform="translate(0,340)" fill="none" font-size="10" font-family="sans-serif" text-anchor="middle"><path class="domain" stroke="currentColor" d="M0.5,6V0.5H720.5V6"></path><g class="tick" opacity="1" transform="translate(0.5,0)"><line stroke="currentColor" y2="6"></line><text fill="currentColor" y="9" dy=".15em" style="text-anchor: end;" dx="-.8em" transform="rotate(-45)">10/01</text></g><g class="tick" opacity="1" transform="translate(82.78571428571428,0)"><line stroke="currentColor" y2="6"></line><text fill="currentColor" y="9" dy=".15em" style="text-anchor: end;" dx="-.8em" transform="rotate(-45)">10/02</text></g><g class="tick" opacity="1" transform="translate(165.07142857142856,0)"><line stroke="currentColor" y2="6"></line><text fill="currentColor" y="9" dy=".15em" style="text-anchor: end;" dx="-.8em" transform="rotate(-45)">10/03</text></g><g class="tick" opacity="1" transform="translate(247.35714285714286,0)"><line stroke="currentColor" y2="6"></line><text fill="currentColor" y="9" dy=".15em" style="text-anchor: end;" dx="-.8em" transform="rotate(-45)">10/04</text></g><g class="tick" opacity="1" transform="translate(329.6428571428571,0)"><line stroke="currentColor" y2="6"></line><text fill="currentColor" y="9" dy=".15em" style="text-anchor: end;" dx="-.8em" transform="rotate(-45)">10/05</text></g><g class="tick" opacity="1" transform="translate(411.9285714285714,0)"><line stroke="currentColor" y2="6"></line><text fill="currentColor" y="9" dy=".15em" style="text-anchor: end;" dx="-.8em" transform="rotate(-45)">10/06</text></g><g class="tick" opacity="1" transform="translate(494.2142857142857,0)"><line stroke="currentColor" y2="6"></line><text fill="currentColor" y="9" dy=".15em" style="text-anchor: end;" dx="-.8em" transform="rotate(-45)">10/07</text></g><g class="tick" opacity="1" transform="translate(576.5,0)"><line stroke="currentColor" y2="6"></line><text fill="currentColor" y="9" dy=".15em" style="text-anchor: end;" dx="-.8em" transform="rotate(-45)">10/08</text></g><g class="tick" opacity="1" transform="translate(658.7857142857142,0)"><line stroke="currentColor" y2="6"></line><text fill="currentColor" y="9" dy=".15em" style="text-anchor: end;" dx="-.8em" transform="rotate(-45)">10/09</text></g></g><g fill="none" font-size="10" font-family="sans-serif" text-anchor="end"><path class="domain" stroke="currentColor" d="M-6,340.5H0.5V0.5H-6"></path><g class="tick" opacity="1" transform="translate(0,340.5)"><line stroke="currentColor" x2="-6"></line><text fill="currentColor" x="-9" dy="0.32em">0.00%</text></g><g class="tick" opacity="1" transform="translate(0,309.59090909090907)"><line stroke="currentColor" x2="-6"></line><text fill="currentColor" x="-9" dy="0.32em">10.00%</text></g><g class="tick" opacity="1" transform="translate(0,278.6818181818182)"><line stroke="currentColor" x2="-6"></line><text fill="currentColor" x="-9" dy="0.32em">20.00%</text></g><g class="tick" opacity="1" transform="translate(0,247.77272727272728)"><line stroke="currentColor" x2="-6"></line><text fill="currentColor" x="-9" dy="0.32em">30.00%</text></g><g class="tick" opacity="1" transform="translate(0,216.86363636363637)"><line stroke="currentColor" x2="-6"></line><text fill="currentColor" x="-9" dy="0.32em">40.00%</text></g><g class="tick" opacity="1" transform="translate(0,185.95454545454544)"><line stroke="currentColor" x2="-6"></line><text fill="currentColor" x="-9" dy="0.32em">50.00%</text></g><g class="tick" opacity="1" transform="translate(0,155.04545454545456)"><line stroke="currentColor" x2="-6"></line><text fill="currentColor" x="-9" dy="0.32em">60.00%</text></g><g class="tick" opacity="1" transform="translate(0,124.13636363636368)"><line stroke="currentColor" x2="-6"></line><text fill="currentColor" x="-9" dy="0.32em">70.00%</text></g><g class="tick" opacity="1" transform="translate(0,93.22727272727272)"><line stroke="currentColor" x2="-6"></line><text fill="currentColor" x="-9" dy="0.32em">80.00%</text></g><g class="tick" opacity="1" transform="translate(0,62.31818181818184)"><line stroke="currentColor" x2="-6"></line><text fill="currentColor" x="-9" dy="0.32em">90.00%</text></g><g class="tick" opacity="1" transform="translate(0,31.40909090909092)"><line stroke="currentColor" x2="-6"></line><text fill="currentColor" x="-9" dy="0.32em">100.00%</text></g><g class="tick" opacity="1" transform="translate(0,0.5)"><line stroke="currentColor" x2="-6"></line><text fill="currentColor" x="-9" dy="0.32em">110.00%</text></g></g><text transform="rotate(-90)" y="-50" x="-170" dy="1em" style="text-anchor: middle; font-size: 12px; fill: #666;">Pre Rate (%)</text><text transform="translate(360, 380)" style="text-anchor: middle; font-size: 12px; fill: #666;">Time (UTC)</text><path fill="none" stroke="#2563eb" stroke-width="2" d="M0,327.636C1.143,327.636,2.286,327.636,3.429,327.636C4.571,327.636,5.714,327.636,6.857,327.636C8,327.636,9.143,327.636,10.286,327.636C11.429,327.636,12.571,327.636,13.714,327.636C14.857,327.636,16,327.636,17.143,327.636C18.286,327.636,19.429,327.636,20.571,327.636C21.714,327.636,22.857,327.636,24,327.636C25.143,327.636,26.286,327.636,27.429,327.636C28.571,327.636,29.714,327.636,30.857,327.636C32,327.636,33.143,327.636,34.286,327.636C35.429,327.636,36.571,327.636,37.714,327.636C38.857,327.636,40,327.636,41.143,327.636C42.286,327.636,43.429,327.636,44.571,327.636C45.714,327.636,46.857,327.636,48,327.636C49.143,327.636,50.286,327.636,51.429,327.636C52.571,327.636,53.714,327.636,54.857,327.636C56,327.636,57.143,327.636,58.286,327.636C59.429,327.636,60.571,327.636,61.714,327.636C62.857,327.636,64,327.636,65.143,327.636C66.286,327.636,67.429,327.636,68.571,327.636C69.714,327.636,70.857,327.636,72,327.636C73.143,327.636,74.286,327.636,75.429,327.636C76.571,327.636,77.714,327.636,78.857,327.636C80,327.636,81.143,327.636,82.286,327.636C83.429,327.636,84.571,327.636,85.714,327.636C86.857,327.636,88,327.636,89.143,327.636C90.286,327.636,91.429,327.636,92.571,327.636C93.714,327.636,94.857,327.636,96,327.636C97.143,327.636,98.286,327.636,99.429,327.636C100.571,327.636,101.714,327.636,102.857,327.636C104,327.636,105.143,327.636,106.286,327.636C107.429,327.636,108.571,327.636,109.714,327.636C110.857,327.636,112,327.636,113.143,327.636C114.286,327.636,115.429,327.636,116.571,327.636C117.714,327.636,118.857,327.636,120,327.636C121.143,327.636,122.286,327.636,123.429,327.636C124.571,327.636,125.714,18.545,126.857,18.545C128,18.545,129.143,293.636,130.286,306C131.429,318.364,132.571,324.545,133.714,324.545C134.857,324.545,136,324.545,137.143,324.545C138.286,324.545,139.429,324.545,140.571,324.545C141.714,324.545,142.857,324.545,144,324.545C145.143,324.545,146.286,324.545,147.429,324.545C148.571,324.545,149.714,324.545,150.857,324.545C152,324.545,153.143,324.545,154.286,324.545C155.429,324.545,156.571,324.545,157.714,324.545C158.857,324.545,160,324.545,161.143,324.545C162.286,324.545,163.429,324.545,164.571,324.545C165.714,324.545,166.857,324.545,168,324.545C169.143,324.545,170.286,324.545,171.429,324.545C172.571,324.545,173.714,324.545,174.857,324.545C176,324.545,177.143,324.545,178.286,324.545C179.429,324.545,180.571,324.545,181.714,324.545C182.857,324.545,184,324.545,185.143,324.545C186.286,324.545,187.429,324.545,188.571,324.545C189.714,324.545,190.857,324.545,192,324.545C193.143,324.545,194.286,324.545,195.429,324.545C196.571,324.545,197.714,324.545,198.857,324.545C200,324.545,201.143,324.545,202.286,324.545C203.429,324.545,204.571,324.545,205.714,324.545C206.857,324.545,208,324.545,209.143,324.545C210.286,324.545,211.429,324.545,212.571,324.545C213.714,324.545,214.857,324.545,216,324.545C217.143,324.545,218.286,324.545,219.429,324.545C220.571,324.545,221.714,324.545,222.857,324.545C224,324.545,225.143,324.545,226.286,324.545C227.429,324.545,228.571,324.545,229.714,324.545C230.857,324.545,232,324.545,233.143,324.545C234.286,324.545,235.429,324.545,236.571,324.545C237.714,324.545,238.857,324.545,240,324.545C241.143,324.545,242.286,324.545,243.429,324.545C244.571,324.545,245.714,324.545,246.857,324.545C248,324.545,249.143,324.545,250.286,324.545C251.429,324.545,252.571,324.545,253.714,324.545C254.857,324.545,256,324.545,257.143,324.545C258.286,324.545,259.429,324.545,260.571,324.545C261.714,324.545,262.857,324.545,264,324.545C265.143,324.545,266.286,324.545,267.429,324.545C268.571,324.545,269.714,324.545,270.857,324.545C272,324.545,273.143,324.545,274.286,324.545C275.429,324.545,276.571,324.545,277.714,324.545C278.857,324.545,280,324.545,281.143,324.545C282.286,324.545,283.429,324.545,284.571,324.545C285.714,324.545,286.857,324.545,288,324.545C289.143,324.545,290.286,324.545,291.429,324.545C292.571,324.545,293.714,324.545,294.857,324.545C296,324.545,297.143,324.545,298.286,324.545C299.429,324.545,300.571,324.545,301.714,324.545C302.857,324.545,304,324.545,305.143,324.545C306.286,324.545,307.429,324.545,308.571,324.545C309.714,324.545,310.857,324.545,312,324.545C313.143,324.545,314.286,324.545,315.429,324.545C316.571,324.545,317.714,324.545,318.857,324.545C320,324.545,321.143,324.545,322.286,324.545C323.429,324.545,324.571,324.545,325.714,324.545C326.857,324.545,328,324.545,329.143,324.545C330.286,324.545,331.429,324.545,332.571,324.545C333.714,324.545,334.857,324.545,336,324.545C337.143,324.545,338.286,324.545,339.429,324.545C340.571,324.545,341.714,324.545,342.857,324.545C344,324.545,345.143,321.455,346.286,321.455C347.429,321.455,348.571,324.545,349.714,324.545C350.857,324.545,352,324.545,353.143,324.545C354.286,324.545,355.429,309.091,356.571,309.091C357.714,309.091,358.857,312.697,360,315.273C361.143,317.848,362.286,324.545,363.429,324.545C364.571,324.545,365.714,324.545,366.857,324.545C368,324.545,369.143,321.455,370.286,321.455C371.429,321.455,372.571,324.545,373.714,324.545C374.857,324.545,376,318.364,377.143,318.364C378.286,318.364,379.429,318.364,380.571,318.364C381.714,318.364,382.857,316.303,384,315.273C385.143,314.242,386.286,312.182,387.429,312.182C388.571,312.182,389.714,316.303,390.857,318.364C392,320.424,393.143,324.545,394.286,324.545C395.429,324.545,396.571,324.545,397.714,324.545C398.857,324.545,400,324.545,401.143,324.545C402.286,324.545,403.429,324.545,404.571,324.545C405.714,324.545,406.857,324.545,408,324.545C409.143,324.545,410.286,315.273,411.429,315.273C412.571,315.273,413.714,318.364,414.857,318.364C416,318.364,417.143,316.818,418.286,315.273C419.429,313.727,420.571,309.091,421.714,309.091C422.857,309.091,424,310.636,425.143,312.182C426.286,313.727,427.429,318.364,428.571,318.364C429.714,318.364,430.857,315.788,432,312.182C433.143,308.576,434.286,296.727,435.429,296.727C436.571,296.727,437.714,312.182,438.857,312.182C440,312.182,441.143,299.818,442.286,299.818C443.429,299.818,444.571,306,445.714,306C446.857,306,448,306,449.143,306C450.286,306,451.429,309.091,452.571,309.091C453.714,309.091,454.857,307.03,456,302.909C457.143,298.788,458.286,284.364,459.429,284.364C460.571,284.364,461.714,284.364,462.857,284.364C464,284.364,465.143,287.455,466.286,290.545C467.429,293.636,468.571,302.909,469.714,302.909C470.857,302.909,472,296.727,473.143,296.727C474.286,296.727,475.429,296.727,476.571,296.727C477.714,296.727,478.857,299.303,480,302.909C481.143,306.515,482.286,318.364,483.429,318.364C484.571,318.364,485.714,312.182,486.857,312.182C488,312.182,489.143,312.182,490.286,312.182C491.429,312.182,492.571,321.455,493.714,321.455C494.857,321.455,496,318.364,497.143,318.364C498.286,318.364,499.429,324.545,500.571,324.545C501.714,324.545,502.857,324.545,504,324.545C505.143,324.545,506.286,324.545,507.429,324.545C508.571,324.545,509.714,321.455,510.857,321.455C512,321.455,513.143,324.545,514.286,324.545C515.429,324.545,516.571,324.545,517.714,324.545C518.857,324.545,520,324.545,521.143,324.545C522.286,324.545,523.429,324.545,524.571,324.545C525.714,324.545,526.857,324.545,528,324.545C529.143,324.545,530.286,324.545,531.429,324.545C532.571,324.545,533.714,324.545,534.857,324.545C536,324.545,537.143,324.545,538.286,324.545C539.429,324.545,540.571,324.545,541.714,324.545C542.857,324.545,544,324.545,545.143,324.545C546.286,324.545,547.429,324.545,548.571,324.545C549.714,324.545,550.857,324.545,552,324.545C553.143,324.545,554.286,324.545,555.429,324.545C556.571,324.545,557.714,324.545,558.857,324.545C560,324.545,561.143,324.545,562.286,324.545C563.429,324.545,564.571,324.545,565.714,324.545C566.857,324.545,568,324.545,569.143,324.545C570.286,324.545,571.429,324.545,572.571,324.545C573.714,324.545,574.857,324.545,576,324.545C577.143,324.545,578.286,324.545,579.429,324.545C580.571,324.545,581.714,324.545,582.857,324.545C584,324.545,585.143,324.545,586.286,324.545C587.429,324.545,588.571,324.545,589.714,324.545C590.857,324.545,592,324.545,593.143,324.545C594.286,324.545,595.429,324.545,596.571,324.545C597.714,324.545,598.857,324.545,600,324.545C601.143,324.545,602.286,324.545,603.429,324.545C604.571,324.545,605.714,324.545,606.857,324.545C608,324.545,609.143,324.545,610.286,324.545C611.429,324.545,612.571,324.545,613.714,324.545C614.857,324.545,616,324.545,617.143,324.545C618.286,324.545,619.429,324.545,620.571,324.545C621.714,324.545,622.857,324.545,624,324.545C625.143,324.545,626.286,324.545,627.429,324.545C628.571,324.545,629.714,324.545,630.857,324.545C632,324.545,633.143,324.545,634.286,324.545C635.429,324.545,636.571,324.545,637.714,324.545C638.857,324.545,640,324.545,641.143,324.545C642.286,324.545,643.429,324.545,644.571,324.545C645.714,324.545,646.857,324.545,648,324.545C649.143,324.545,650.286,324.545,651.429,324.545C652.571,324.545,653.714,324.545,654.857,324.545C656,324.545,657.143,324.545,658.286,324.545C659.429,324.545,660.571,324.545,661.714,324.545C662.857,324.545,664,324.545,665.143,324.545C666.286,324.545,667.429,324.545,668.571,324.545C669.714,324.545,670.857,324.545,672,324.545C673.143,324.545,674.286,324.545,675.429,324.545C676.571,324.545,677.714,324.545,678.857,324.545C680,324.545,681.143,324.545,682.286,324.545C683.429,324.545,684.571,324.545,685.714,324.545C686.857,324.545,688,324.545,689.143,324.545C690.286,324.545,691.429,324.545,692.571,324.545C693.714,324.545,694.857,324.545,696,324.545C697.143,324.545,698.286,324.545,699.429,324.545C700.571,324.545,701.714,324.545,702.857,324.545C704,324.545,705.143,324.545,706.286,324.545C707.429,324.545,708.571,324.545,709.714,324.545C710.857,324.545,712,324.545,713.143,324.545C714.286,324.545,715.429,324.545,716.571,324.545C717.714,324.545,718.857,324.545,720,324.545"></path><circle class="dot" cx="0" cy="327.6363636363636" r="3" fill="#2563eb"></circle><circle class="dot" cx="3.428571428571429" cy="327.6363636363636" r="3" fill="#2563eb"></circle><circle class="dot" cx="6.857142857142858" cy="327.6363636363636" r="3" fill="#2563eb"></circle><circle class="dot" cx="10.285714285714285" cy="327.6363636363636" r="3" fill="#2563eb"></circle><circle class="dot" cx="13.714285714285715" cy="327.6363636363636" r="3" fill="#2563eb"></circle><circle class="dot" cx="17.142857142857142" cy="327.6363636363636" r="3" fill="#2563eb"></circle><circle class="dot" cx="20.57142857142857" cy="327.6363636363636" r="3" fill="#2563eb"></circle><circle class="dot" cx="24" cy="327.6363636363636" r="3" fill="#2563eb"></circle><circle class="dot" cx="27.42857142857143" cy="327.6363636363636" r="3" fill="#2563eb"></circle><circle class="dot" cx="30.857142857142858" cy="327.6363636363636" r="3" fill="#2563eb"></circle><circle class="dot" cx="34.285714285714285" cy="327.6363636363636" r="3" fill="#2563eb"></circle><circle class="dot" cx="37.714285714285715" cy="327.6363636363636" r="3" fill="#2563eb"></circle><circle class="dot" cx="41.14285714285714" cy="327.6363636363636" r="3" fill="#2563eb"></circle><circle class="dot" cx="44.57142857142857" cy="327.6363636363636" r="3" fill="#2563eb"></circle><circle class="dot" cx="48" cy="327.6363636363636" r="3" fill="#2563eb"></circle><circle class="dot" cx="51.42857142857142" cy="327.6363636363636" r="3" fill="#2563eb"></circle><circle class="dot" cx="54.85714285714286" cy="327.6363636363636" r="3" fill="#2563eb"></circle><circle class="dot" cx="58.28571428571429" cy="327.6363636363636" r="3" fill="#2563eb"></circle><circle class="dot" cx="61.714285714285715" cy="327.6363636363636" r="3" fill="#2563eb"></circle><circle class="dot" cx="65.14285714285714" cy="327.6363636363636" r="3" fill="#2563eb"></circle><circle class="dot" cx="68.57142857142857" cy="327.6363636363636" r="3" fill="#2563eb"></circle><circle class="dot" cx="72" cy="327.6363636363636" r="3" fill="#2563eb"></circle><circle class="dot" cx="75.42857142857143" cy="327.6363636363636" r="3" fill="#2563eb"></circle><circle class="dot" cx="78.85714285714286" cy="327.6363636363636" r="3" fill="#2563eb"></circle><circle class="dot" cx="82.28571428571428" cy="327.6363636363636" r="3" fill="#2563eb"></circle><circle class="dot" cx="85.71428571428571" cy="327.6363636363636" r="3" fill="#2563eb"></circle><circle class="dot" cx="89.14285714285714" cy="327.6363636363636" r="3" fill="#2563eb"></circle><circle class="dot" cx="92.57142857142856" cy="327.6363636363636" r="3" fill="#2563eb"></circle><circle class="dot" cx="96" cy="327.6363636363636" r="3" fill="#2563eb"></circle><circle class="dot" cx="99.42857142857143" cy="327.6363636363636" r="3" fill="#2563eb"></circle><circle class="dot" cx="102.85714285714285" cy="327.6363636363636" r="3" fill="#2563eb"></circle><circle class="dot" cx="106.28571428571429" cy="327.6363636363636" r="3" fill="#2563eb"></circle><circle class="dot" cx="109.71428571428572" cy="327.6363636363636" r="3" fill="#2563eb"></circle><circle class="dot" cx="113.14285714285714" cy="327.6363636363636" r="3" fill="#2563eb"></circle><circle class="dot" cx="116.57142857142858" cy="327.6363636363636" r="3" fill="#2563eb"></circle><circle class="dot" cx="120" cy="327.6363636363636" r="3" fill="#2563eb"></circle><circle class="dot" cx="123.42857142857143" cy="327.6363636363636" r="3" fill="#2563eb"></circle><circle class="dot" cx="126.85714285714286" cy="18.54545454545455" r="3" fill="#2563eb"></circle><circle class="dot" cx="130.28571428571428" cy="306" r="3" fill="#2563eb"></circle><circle class="dot" cx="133.71428571428572" cy="324.54545454545456" r="3" fill="#2563eb"></circle><circle class="dot" cx="137.14285714285714" cy="324.54545454545456" r="3" fill="#2563eb"></circle><circle class="dot" cx="140.57142857142858" cy="324.54545454545456" r="3" fill="#2563eb"></circle><circle class="dot" cx="144" cy="324.54545454545456" r="3" fill="#2563eb"></circle><circle class="dot" cx="147.42857142857142" cy="324.54545454545456" r="3" fill="#2563eb"></circle><circle class="dot" cx="150.85714285714286" cy="324.54545454545456" r="3" fill="#2563eb"></circle><circle class="dot" cx="154.28571428571428" cy="324.54545454545456" r="3" fill="#2563eb"></circle><circle class="dot" cx="157.71428571428572" cy="324.54545454545456" r="3" fill="#2563eb"></circle><circle class="dot" cx="161.14285714285714" cy="324.54545454545456" r="3" fill="#2563eb"></circle><circle class="dot" cx="164.57142857142856" cy="324.54545454545456" r="3" fill="#2563eb"></circle><circle class="dot" cx="168" cy="324.54545454545456" r="3" fill="#2563eb"></circle><circle class="dot" cx="171.42857142857142" cy="324.54545454545456" r="3" fill="#2563eb"></circle><circle class="dot" cx="174.85714285714286" cy="324.54545454545456" r="3" fill="#2563eb"></circle><circle class="dot" cx="178.28571428571428" cy="324.54545454545456" r="3" fill="#2563eb"></circle><circle class="dot" cx="181.71428571428572" cy="324.54545454545456" r="3" fill="#2563eb"></circle><circle class="dot" cx="185.1428571428571" cy="324.54545454545456" r="3" fill="#2563eb"></circle><circle class="dot" cx="188.57142857142858" cy="324.54545454545456" r="3" fill="#2563eb"></circle><circle class="dot" cx="192" cy="324.54545454545456" r="3" fill="#2563eb"></circle><circle class="dot" cx="195.42857142857142" cy="324.54545454545456" r="3" fill="#2563eb"></circle><circle class="dot" cx="198.85714285714286" cy="324.54545454545456" r="3" fill="#2563eb"></circle><circle class="dot" cx="202.28571428571428" cy="324.54545454545456" r="3" fill="#2563eb"></circle><circle class="dot" cx="205.7142857142857" cy="324.54545454545456" r="3" fill="#2563eb"></circle><circle class="dot" cx="209.14285714285717" cy="324.54545454545456" r="3" fill="#2563eb"></circle><circle class="dot" cx="212.57142857142858" cy="324.54545454545456" r="3" fill="#2563eb"></circle><circle class="dot" cx="216" cy="324.54545454545456" r="3" fill="#2563eb"></circle><circle class="dot" cx="219.42857142857144" cy="324.54545454545456" r="3" fill="#2563eb"></circle><circle class="dot" cx="222.85714285714286" cy="324.54545454545456" r="3" fill="#2563eb"></circle><circle class="dot" cx="226.28571428571428" cy="324.54545454545456" r="3" fill="#2563eb"></circle><circle class="dot" cx="229.7142857142857" cy="324.54545454545456" r="3" fill="#2563eb"></circle><circle class="dot" cx="233.14285714285717" cy="324.54545454545456" r="3" fill="#2563eb"></circle><circle class="dot" cx="236.57142857142858" cy="324.54545454545456" r="3" fill="#2563eb"></circle><circle class="dot" cx="240" cy="324.54545454545456" r="3" fill="#2563eb"></circle><circle class="dot" cx="243.42857142857144" cy="324.54545454545456" r="3" fill="#2563eb"></circle><circle class="dot" cx="246.85714285714286" cy="324.54545454545456" r="3" fill="#2563eb"></circle><circle class="dot" cx="250.28571428571428" cy="324.54545454545456" r="3" fill="#2563eb"></circle><circle class="dot" cx="253.71428571428572" cy="324.54545454545456" r="3" fill="#2563eb"></circle><circle class="dot" cx="257.14285714285717" cy="324.54545454545456" r="3" fill="#2563eb"></circle><circle class="dot" cx="260.57142857142856" cy="324.54545454545456" r="3" fill="#2563eb"></circle><circle class="dot" cx="264" cy="324.54545454545456" r="3" fill="#2563eb"></circle><circle class="dot" cx="267.42857142857144" cy="324.54545454545456" r="3" fill="#2563eb"></circle><circle class="dot" cx="270.85714285714283" cy="324.54545454545456" r="3" fill="#2563eb"></circle><circle class="dot" cx="274.2857142857143" cy="324.54545454545456" r="3" fill="#2563eb"></circle><circle class="dot" cx="277.7142857142857" cy="324.54545454545456" r="3" fill="#2563eb"></circle><circle class="dot" cx="281.14285714285717" cy="324.54545454545456" r="3" fill="#2563eb"></circle><circle class="dot" cx="284.57142857142856" cy="324.54545454545456" r="3" fill="#2563eb"></circle><circle class="dot" cx="288" cy="324.54545454545456" r="3" fill="#2563eb"></circle><circle class="dot" cx="291.42857142857144" cy="324.54545454545456" r="3" fill="#2563eb"></circle><circle class="dot" cx="294.85714285714283" cy="324.54545454545456" r="3" fill="#2563eb"></circle><circle class="dot" cx="298.2857142857143" cy="324.54545454545456" r="3" fill="#2563eb"></circle><circle class="dot" cx="301.7142857142857" cy="324.54545454545456" r="3" fill="#2563eb"></circle><circle class="dot" cx="305.1428571428571" cy="324.54545454545456" r="3" fill="#2563eb"></circle><circle class="dot" cx="308.57142857142856" cy="324.54545454545456" r="3" fill="#2563eb"></circle><circle class="dot" cx="312" cy="324.54545454545456" r="3" fill="#2563eb"></circle><circle class="dot" cx="315.42857142857144" cy="324.54545454545456" r="3" fill="#2563eb"></circle><circle class="dot" cx="318.85714285714283" cy="324.54545454545456" r="3" fill="#2563eb"></circle><circle class="dot" cx="322.2857142857143" cy="324.54545454545456" r="3" fill="#2563eb"></circle><circle class="dot" cx="325.7142857142857" cy="324.54545454545456" r="3" fill="#2563eb"></circle><circle class="dot" cx="329.1428571428571" cy="324.54545454545456" r="3" fill="#2563eb"></circle><circle class="dot" cx="332.5714285714286" cy="324.54545454545456" r="3" fill="#2563eb"></circle><circle class="dot" cx="336" cy="324.54545454545456" r="3" fill="#2563eb"></circle><circle class="dot" cx="339.42857142857144" cy="324.54545454545456" r="3" fill="#2563eb"></circle><circle class="dot" cx="342.85714285714283" cy="324.54545454545456" r="3" fill="#2563eb"></circle><circle class="dot" cx="346.2857142857143" cy="321.45454545454544" r="3" fill="#2563eb"></circle><circle class="dot" cx="349.7142857142857" cy="324.54545454545456" r="3" fill="#2563eb"></circle><circle class="dot" cx="353.1428571428571" cy="324.54545454545456" r="3" fill="#2563eb"></circle><circle class="dot" cx="356.57142857142856" cy="309.09090909090907" r="3" fill="#2563eb"></circle><circle class="dot" cx="360" cy="315.27272727272725" r="3" fill="#2563eb"></circle><circle class="dot" cx="363.42857142857144" cy="324.54545454545456" r="3" fill="#2563eb"></circle><circle class="dot" cx="366.85714285714283" cy="324.54545454545456" r="3" fill="#2563eb"></circle><circle class="dot" cx="370.2857142857142" cy="321.45454545454544" r="3" fill="#2563eb"></circle><circle class="dot" cx="373.7142857142857" cy="324.54545454545456" r="3" fill="#2563eb"></circle><circle class="dot" cx="377.14285714285717" cy="318.3636363636364" r="3" fill="#2563eb"></circle><circle class="dot" cx="380.57142857142856" cy="318.3636363636364" r="3" fill="#2563eb"></circle><circle class="dot" cx="384" cy="315.27272727272725" r="3" fill="#2563eb"></circle><circle class="dot" cx="387.4285714285714" cy="312.1818181818182" r="3" fill="#2563eb"></circle><circle class="dot" cx="390.85714285714283" cy="318.3636363636364" r="3" fill="#2563eb"></circle><circle class="dot" cx="394.28571428571433" cy="324.54545454545456" r="3" fill="#2563eb"></circle><circle class="dot" cx="397.7142857142857" cy="324.54545454545456" r="3" fill="#2563eb"></circle><circle class="dot" cx="401.14285714285717" cy="324.54545454545456" r="3" fill="#2563eb"></circle><circle class="dot" cx="404.57142857142856" cy="324.54545454545456" r="3" fill="#2563eb"></circle><circle class="dot" cx="408" cy="324.54545454545456" r="3" fill="#2563eb"></circle><circle class="dot" cx="411.4285714285714" cy="315.27272727272725" r="3" fill="#2563eb"></circle><circle class="dot" cx="414.85714285714283" cy="318.3636363636364" r="3" fill="#2563eb"></circle><circle class="dot" cx="418.28571428571433" cy="315.27272727272725" r="3" fill="#2563eb"></circle><circle class="dot" cx="421.7142857142857" cy="309.09090909090907" r="3" fill="#2563eb"></circle><circle class="dot" cx="425.14285714285717" cy="312.1818181818182" r="3" fill="#2563eb"></circle><circle class="dot" cx="428.57142857142856" cy="318.3636363636364" r="3" fill="#2563eb"></circle><circle class="dot" cx="432" cy="312.1818181818182" r="3" fill="#2563eb"></circle><circle class="dot" cx="435.4285714285714" cy="296.7272727272727" r="3" fill="#2563eb"></circle><circle class="dot" cx="438.8571428571429" cy="312.1818181818182" r="3" fill="#2563eb"></circle><circle class="dot" cx="442.28571428571433" cy="299.8181818181818" r="3" fill="#2563eb"></circle><circle class="dot" cx="445.7142857142857" cy="306" r="3" fill="#2563eb"></circle><circle class="dot" cx="449.14285714285717" cy="306" r="3" fill="#2563eb"></circle><circle class="dot" cx="452.57142857142856" cy="309.09090909090907" r="3" fill="#2563eb"></circle><circle class="dot" cx="456" cy="302.9090909090909" r="3" fill="#2563eb"></circle><circle class="dot" cx="459.4285714285714" cy="284.3636363636364" r="3" fill="#2563eb"></circle><circle class="dot" cx="462.8571428571429" cy="284.3636363636364" r="3" fill="#2563eb"></circle><circle class="dot" cx="466.28571428571433" cy="290.5454545454545" r="3" fill="#2563eb"></circle><circle class="dot" cx="469.7142857142857" cy="302.9090909090909" r="3" fill="#2563eb"></circle><circle class="dot" cx="473.14285714285717" cy="296.7272727272727" r="3" fill="#2563eb"></circle><circle class="dot" cx="476.57142857142856" cy="296.7272727272727" r="3" fill="#2563eb"></circle><circle class="dot" cx="480" cy="302.9090909090909" r="3" fill="#2563eb"></circle><circle class="dot" cx="483.4285714285714" cy="318.3636363636364" r="3" fill="#2563eb"></circle><circle class="dot" cx="486.8571428571429" cy="312.1818181818182" r="3" fill="#2563eb"></circle><circle class="dot" cx="490.2857142857143" cy="312.1818181818182" r="3" fill="#2563eb"></circle><circle class="dot" cx="493.7142857142857" cy="321.45454545454544" r="3" fill="#2563eb"></circle><circle class="dot" cx="497.1428571428571" cy="318.3636363636364" r="3" fill="#2563eb"></circle><circle class="dot" cx="500.57142857142856" cy="324.54545454545456" r="3" fill="#2563eb"></circle><circle class="dot" cx="503.99999999999994" cy="324.54545454545456" r="3" fill="#2563eb"></circle><circle class="dot" cx="507.42857142857144" cy="324.54545454545456" r="3" fill="#2563eb"></circle><circle class="dot" cx="510.8571428571429" cy="321.45454545454544" r="3" fill="#2563eb"></circle><circle class="dot" cx="514.2857142857143" cy="324.54545454545456" r="3" fill="#2563eb"></circle><circle class="dot" cx="517.7142857142857" cy="324.54545454545456" r="3" fill="#2563eb"></circle><circle class="dot" cx="521.1428571428571" cy="324.54545454545456" r="3" fill="#2563eb"></circle><circle class="dot" cx="524.5714285714286" cy="324.54545454545456" r="3" fill="#2563eb"></circle><circle class="dot" cx="528" cy="324.54545454545456" r="3" fill="#2563eb"></circle><circle class="dot" cx="531.4285714285714" cy="324.54545454545456" r="3" fill="#2563eb"></circle><circle class="dot" cx="534.8571428571429" cy="324.54545454545456" r="3" fill="#2563eb"></circle><circle class="dot" cx="538.2857142857143" cy="324.54545454545456" r="3" fill="#2563eb"></circle><circle class="dot" cx="541.7142857142857" cy="324.54545454545456" r="3" fill="#2563eb"></circle><circle class="dot" cx="545.1428571428571" cy="324.54545454545456" r="3" fill="#2563eb"></circle><circle class="dot" cx="548.5714285714286" cy="324.54545454545456" r="3" fill="#2563eb"></circle><circle class="dot" cx="552" cy="324.54545454545456" r="3" fill="#2563eb"></circle><circle class="dot" cx="555.4285714285714" cy="324.54545454545456" r="3" fill="#2563eb"></circle><circle class="dot" cx="558.8571428571429" cy="324.54545454545456" r="3" fill="#2563eb"></circle><circle class="dot" cx="562.2857142857143" cy="324.54545454545456" r="3" fill="#2563eb"></circle><circle class="dot" cx="565.7142857142857" cy="324.54545454545456" r="3" fill="#2563eb"></circle><circle class="dot" cx="569.1428571428571" cy="324.54545454545456" r="3" fill="#2563eb"></circle><circle class="dot" cx="572.5714285714286" cy="324.54545454545456" r="3" fill="#2563eb"></circle><circle class="dot" cx="576" cy="324.54545454545456" r="3" fill="#2563eb"></circle><circle class="dot" cx="579.4285714285714" cy="324.54545454545456" r="3" fill="#2563eb"></circle><circle class="dot" cx="582.8571428571429" cy="324.54545454545456" r="3" fill="#2563eb"></circle><circle class="dot" cx="586.2857142857143" cy="324.54545454545456" r="3" fill="#2563eb"></circle><circle class="dot" cx="589.7142857142857" cy="324.54545454545456" r="3" fill="#2563eb"></circle><circle class="dot" cx="593.1428571428571" cy="324.54545454545456" r="3" fill="#2563eb"></circle><circle class="dot" cx="596.5714285714286" cy="324.54545454545456" r="3" fill="#2563eb"></circle><circle class="dot" cx="600" cy="324.54545454545456" r="3" fill="#2563eb"></circle><circle class="dot" cx="603.4285714285714" cy="324.54545454545456" r="3" fill="#2563eb"></circle><circle class="dot" cx="606.8571428571429" cy="324.54545454545456" r="3" fill="#2563eb"></circle><circle class="dot" cx="610.2857142857142" cy="324.54545454545456" r="3" fill="#2563eb"></circle><circle class="dot" cx="613.7142857142857" cy="324.54545454545456" r="3" fill="#2563eb"></circle><circle class="dot" cx="617.1428571428571" cy="324.54545454545456" r="3" fill="#2563eb"></circle><circle class="dot" cx="620.5714285714286" cy="324.54545454545456" r="3" fill="#2563eb"></circle><circle class="dot" cx="624" cy="324.54545454545456" r="3" fill="#2563eb"></circle><circle class="dot" cx="627.4285714285714" cy="324.54545454545456" r="3" fill="#2563eb"></circle><circle class="dot" cx="630.8571428571429" cy="324.54545454545456" r="3" fill="#2563eb"></circle><circle class="dot" cx="634.2857142857142" cy="324.54545454545456" r="3" fill="#2563eb"></circle><circle class="dot" cx="637.7142857142857" cy="324.54545454545456" r="3" fill="#2563eb"></circle><circle class="dot" cx="641.1428571428571" cy="324.54545454545456" r="3" fill="#2563eb"></circle><circle class="dot" cx="644.5714285714286" cy="324.54545454545456" r="3" fill="#2563eb"></circle><circle class="dot" cx="648" cy="324.54545454545456" r="3" fill="#2563eb"></circle><circle class="dot" cx="651.4285714285714" cy="324.54545454545456" r="3" fill="#2563eb"></circle><circle class="dot" cx="654.8571428571429" cy="324.54545454545456" r="3" fill="#2563eb"></circle><circle class="dot" cx="658.2857142857142" cy="324.54545454545456" r="3" fill="#2563eb"></circle><circle class="dot" cx="661.7142857142857" cy="324.54545454545456" r="3" fill="#2563eb"></circle><circle class="dot" cx="665.1428571428572" cy="324.54545454545456" r="3" fill="#2563eb"></circle><circle class="dot" cx="668.5714285714286" cy="324.54545454545456" r="3" fill="#2563eb"></circle><circle class="dot" cx="672" cy="324.54545454545456" r="3" fill="#2563eb"></circle><circle class="dot" cx="675.4285714285714" cy="324.54545454545456" r="3" fill="#2563eb"></circle><circle class="dot" cx="678.8571428571429" cy="324.54545454545456" r="3" fill="#2563eb"></circle><circle class="dot" cx="682.2857142857142" cy="324.54545454545456" r="3" fill="#2563eb"></circle><circle class="dot" cx="685.7142857142857" cy="324.54545454545456" r="3" fill="#2563eb"></circle><circle class="dot" cx="689.1428571428572" cy="324.54545454545456" r="3" fill="#2563eb"></circle><circle class="dot" cx="692.5714285714286" cy="324.54545454545456" r="3" fill="#2563eb"></circle><circle class="dot" cx="696" cy="324.54545454545456" r="3" fill="#2563eb"></circle><circle class="dot" cx="699.4285714285714" cy="324.54545454545456" r="3" fill="#2563eb"></circle><circle class="dot" cx="702.8571428571429" cy="324.54545454545456" r="3" fill="#2563eb"></circle><circle class="dot" cx="706.2857142857142" cy="324.54545454545456" r="3" fill="#2563eb"></circle><circle class="dot" cx="709.7142857142858" cy="324.54545454545456" r="3" fill="#2563eb"></circle><circle class="dot" cx="713.1428571428571" cy="324.54545454545456" r="3" fill="#2563eb"></circle><circle class="dot" cx="716.5714285714286" cy="324.54545454545456" r="3" fill="#2563eb"></circle><circle class="dot" cx="720" cy="324.54545454545456" r="3" fill="#2563eb"></circle><g class="grid" transform="translate(0,340)" fill="none" font-size="10" font-family="sans-serif" text-anchor="middle" style="stroke-dasharray: 3,3; opacity: 0.3;"><path class="domain" stroke="currentColor" d="M0.5,-340V0.5H720.5V-340"></path><g class="tick" opacity="1" transform="translate(0.5,0)"><line stroke="currentColor" y2="-340"></line><text fill="currentColor" y="3" dy="0.71em"></text></g><g class="tick" opacity="1" transform="translate(82.78571428571428,0)"><line stroke="currentColor" y2="-340"></line><text fill="currentColor" y="3" dy="0.71em"></text></g><g class="tick" opacity="1" transform="translate(165.07142857142856,0)"><line stroke="currentColor" y2="-340"></line><text fill="currentColor" y="3" dy="0.71em"></text></g><g class="tick" opacity="1" transform="translate(247.35714285714286,0)"><line stroke="currentColor" y2="-340"></line><text fill="currentColor" y="3" dy="0.71em"></text></g><g class="tick" opacity="1" transform="translate(329.6428571428571,0)"><line stroke="currentColor" y2="-340"></line><text fill="currentColor" y="3" dy="0.71em"></text></g><g class="tick" opacity="1" transform="translate(411.9285714285714,0)"><line stroke="currentColor" y2="-340"></line><text fill="currentColor" y="3" dy="0.71em"></text></g><g class="tick" opacity="1" transform="translate(494.2142857142857,0)"><line stroke="currentColor" y2="-340"></line><text fill="currentColor" y="3" dy="0.71em"></text></g><g class="tick" opacity="1" transform="translate(576.5,0)"><line stroke="currentColor" y2="-340"></line><text fill="currentColor" y="3" dy="0.71em"></text></g><g class="tick" opacity="1" transform="translate(658.7857142857142,0)"><line stroke="currentColor" y2="-340"></line><text fill="currentColor" y="3" dy="0.71em"></text></g></g><g class="grid" fill="none" font-size="10" font-family="sans-serif" text-anchor="end" style="stroke-dasharray: 3,3; opacity: 0.3;"><path class="domain" stroke="currentColor" d="M720,340.5H0.5V0.5H720"></path><g class="tick" opacity="1" transform="translate(0,340.5)"><line stroke="currentColor" x2="720"></line><text fill="currentColor" x="-3" dy="0.32em"></text></g><g class="tick" opacity="1" transform="translate(0,309.59090909090907)"><line stroke="currentColor" x2="720"></line><text fill="currentColor" x="-3" dy="0.32em"></text></g><g class="tick" opacity="1" transform="translate(0,278.6818181818182)"><line stroke="currentColor" x2="720"></line><text fill="currentColor" x="-3" dy="0.32em"></text></g><g class="tick" opacity="1" transform="translate(0,247.77272727272728)"><line stroke="currentColor" x2="720"></line><text fill="currentColor" x="-3" dy="0.32em"></text></g><g class="tick" opacity="1" transform="translate(0,216.86363636363637)"><line stroke="currentColor" x2="720"></line><text fill="currentColor" x="-3" dy="0.32em"></text></g><g class="tick" opacity="1" transform="translate(0,185.95454545454544)"><line stroke="currentColor" x2="720"></line><text fill="currentColor" x="-3" dy="0.32em"></text></g><g class="tick" opacity="1" transform="translate(0,155.04545454545456)"><line stroke="currentColor" x2="720"></line><text fill="currentColor" x="-3" dy="0.32em"></text></g><g class="tick" opacity="1" transform="translate(0,124.13636363636368)"><line stroke="currentColor" x2="720"></line><text fill="currentColor" x="-3" dy="0.32em"></text></g><g class="tick" opacity="1" transform="translate(0,93.22727272727272)"><line stroke="currentColor" x2="720"></line><text fill="currentColor" x="-3" dy="0.32em"></text></g><g class="tick" opacity="1" transform="translate(0,62.31818181818184)"><line stroke="currentColor" x2="720"></line><text fill="currentColor" x="-3" dy="0.32em"></text></g><g class="tick" opacity="1" transform="translate(0,31.40909090909092)"><line stroke="currentColor" x2="720"></line><text fill="currentColor" x="-3" dy="0.32em"></text></g><g class="tick" opacity="1" transform="translate(0,0.5)"><line stroke="currentColor" x2="720"></line><text fill="currentColor" x="-3" dy="0.32em"></text></g></g></g><text x="400" y="10" text-anchor="middle" style="font-size: 16px; font-weight: bold; fill: #333;">OKX USDT Lending Rate - Current Month</text></svg>