<svg width="800" height="400" xmlns="http://www.w3.org/2000/svg"><g transform="translate(50,20)"><g transform="translate(0,340)" fill="none" font-size="10" font-family="sans-serif" text-anchor="middle"><path class="domain" stroke="currentColor" d="M0.5,6V0.5H720.5V6"></path><g class="tick" opacity="1" transform="translate(0.5,0)"><line stroke="currentColor" y2="6"></line><text fill="currentColor" y="9" dy=".15em" style="text-anchor: end;" dx="-.8em" transform="rotate(-45)">10/01</text></g><g class="tick" opacity="1" transform="translate(137.64285714285714,0)"><line stroke="currentColor" y2="6"></line><text fill="currentColor" y="9" dy=".15em" style="text-anchor: end;" dx="-.8em" transform="rotate(-45)">10/02</text></g><g class="tick" opacity="1" transform="translate(274.7857142857143,0)"><line stroke="currentColor" y2="6"></line><text fill="currentColor" y="9" dy=".15em" style="text-anchor: end;" dx="-.8em" transform="rotate(-45)">10/03</text></g><g class="tick" opacity="1" transform="translate(411.9285714285714,0)"><line stroke="currentColor" y2="6"></line><text fill="currentColor" y="9" dy=".15em" style="text-anchor: end;" dx="-.8em" transform="rotate(-45)">10/04</text></g><g class="tick" opacity="1" transform="translate(549.0714285714286,0)"><line stroke="currentColor" y2="6"></line><text fill="currentColor" y="9" dy=".15em" style="text-anchor: end;" dx="-.8em" transform="rotate(-45)">10/05</text></g><g class="tick" opacity="1" transform="translate(686.2142857142857,0)"><line stroke="currentColor" y2="6"></line><text fill="currentColor" y="9" dy=".15em" style="text-anchor: end;" dx="-.8em" transform="rotate(-45)">10/06</text></g></g><g fill="none" font-size="10" font-family="sans-serif" text-anchor="end"><path class="domain" stroke="currentColor" d="M-6,340.5H0.5V0.5H-6"></path><g class="tick" opacity="1" transform="translate(0,340.5)"><line stroke="currentColor" x2="-6"></line><text fill="currentColor" x="-9" dy="0.32em">0.00%</text></g><g class="tick" opacity="1" transform="translate(0,309.59090909090907)"><line stroke="currentColor" x2="-6"></line><text fill="currentColor" x="-9" dy="0.32em">10.00%</text></g><g class="tick" opacity="1" transform="translate(0,278.6818181818182)"><line stroke="currentColor" x2="-6"></line><text fill="currentColor" x="-9" dy="0.32em">20.00%</text></g><g class="tick" opacity="1" transform="translate(0,247.77272727272728)"><line stroke="currentColor" x2="-6"></line><text fill="currentColor" x="-9" dy="0.32em">30.00%</text></g><g class="tick" opacity="1" transform="translate(0,216.86363636363637)"><line stroke="currentColor" x2="-6"></line><text fill="currentColor" x="-9" dy="0.32em">40.00%</text></g><g class="tick" opacity="1" transform="translate(0,185.95454545454544)"><line stroke="currentColor" x2="-6"></line><text fill="currentColor" x="-9" dy="0.32em">50.00%</text></g><g class="tick" opacity="1" transform="translate(0,155.04545454545456)"><line stroke="currentColor" x2="-6"></line><text fill="currentColor" x="-9" dy="0.32em">60.00%</text></g><g class="tick" opacity="1" transform="translate(0,124.13636363636368)"><line stroke="currentColor" x2="-6"></line><text fill="currentColor" x="-9" dy="0.32em">70.00%</text></g><g class="tick" opacity="1" transform="translate(0,93.22727272727272)"><line stroke="currentColor" x2="-6"></line><text fill="currentColor" x="-9" dy="0.32em">80.00%</text></g><g class="tick" opacity="1" transform="translate(0,62.31818181818184)"><line stroke="currentColor" x2="-6"></line><text fill="currentColor" x="-9" dy="0.32em">90.00%</text></g><g class="tick" opacity="1" transform="translate(0,31.40909090909092)"><line stroke="currentColor" x2="-6"></line><text fill="currentColor" x="-9" dy="0.32em">100.00%</text></g><g class="tick" opacity="1" transform="translate(0,0.5)"><line stroke="currentColor" x2="-6"></line><text fill="currentColor" x="-9" dy="0.32em">110.00%</text></g></g><text transform="rotate(-90)" y="-50" x="-170" dy="1em" style="text-anchor: middle; font-size: 12px; fill: #666;">Pre Rate (%)</text><text transform="translate(360, 380)" style="text-anchor: middle; font-size: 12px; fill: #666;">Time (UTC)</text><path fill="none" stroke="#2563eb" stroke-width="2" d="M0,327.636C1.905,327.636,3.81,327.636,5.714,327.636C7.619,327.636,9.524,327.636,11.429,327.636C13.333,327.636,15.238,327.636,17.143,327.636C19.048,327.636,20.952,327.636,22.857,327.636C24.762,327.636,26.667,327.636,28.571,327.636C30.476,327.636,32.381,327.636,34.286,327.636C36.19,327.636,38.095,327.636,40,327.636C41.905,327.636,43.81,327.636,45.714,327.636C47.619,327.636,49.524,327.636,51.429,327.636C53.333,327.636,55.238,327.636,57.143,327.636C59.048,327.636,60.952,327.636,62.857,327.636C64.762,327.636,66.667,327.636,68.571,327.636C70.476,327.636,72.381,327.636,74.286,327.636C76.19,327.636,78.095,327.636,80,327.636C81.905,327.636,83.81,327.636,85.714,327.636C87.619,327.636,89.524,327.636,91.429,327.636C93.333,327.636,95.238,327.636,97.143,327.636C99.048,327.636,100.952,327.636,102.857,327.636C104.762,327.636,106.667,327.636,108.571,327.636C110.476,327.636,112.381,327.636,114.286,327.636C116.19,327.636,118.095,327.636,120,327.636C121.905,327.636,123.81,327.636,125.714,327.636C127.619,327.636,129.524,327.636,131.429,327.636C133.333,327.636,135.238,327.636,137.143,327.636C139.048,327.636,140.952,327.636,142.857,327.636C144.762,327.636,146.667,327.636,148.571,327.636C150.476,327.636,152.381,327.636,154.286,327.636C156.19,327.636,158.095,327.636,160,327.636C161.905,327.636,163.81,327.636,165.714,327.636C167.619,327.636,169.524,327.636,171.429,327.636C173.333,327.636,175.238,327.636,177.143,327.636C179.048,327.636,180.952,327.636,182.857,327.636C184.762,327.636,186.667,327.636,188.571,327.636C190.476,327.636,192.381,327.636,194.286,327.636C196.19,327.636,198.095,327.636,200,327.636C201.905,327.636,203.81,327.636,205.714,327.636C207.619,327.636,209.524,18.545,211.429,18.545C213.333,18.545,215.238,293.636,217.143,306C219.048,318.364,220.952,324.545,222.857,324.545C224.762,324.545,226.667,324.545,228.571,324.545C230.476,324.545,232.381,324.545,234.286,324.545C236.19,324.545,238.095,324.545,240,324.545C241.905,324.545,243.81,324.545,245.714,324.545C247.619,324.545,249.524,324.545,251.429,324.545C253.333,324.545,255.238,324.545,257.143,324.545C259.048,324.545,260.952,324.545,262.857,324.545C264.762,324.545,266.667,324.545,268.571,324.545C270.476,324.545,272.381,324.545,274.286,324.545C276.19,324.545,278.095,324.545,280,324.545C281.905,324.545,283.81,324.545,285.714,324.545C287.619,324.545,289.524,324.545,291.429,324.545C293.333,324.545,295.238,324.545,297.143,324.545C299.048,324.545,300.952,324.545,302.857,324.545C304.762,324.545,306.667,324.545,308.571,324.545C310.476,324.545,312.381,324.545,314.286,324.545C316.19,324.545,318.095,324.545,320,324.545C321.905,324.545,323.81,324.545,325.714,324.545C327.619,324.545,329.524,324.545,331.429,324.545C333.333,324.545,335.238,324.545,337.143,324.545C339.048,324.545,340.952,324.545,342.857,324.545C344.762,324.545,346.667,324.545,348.571,324.545C350.476,324.545,352.381,324.545,354.286,324.545C356.19,324.545,358.095,324.545,360,324.545C361.905,324.545,363.81,324.545,365.714,324.545C367.619,324.545,369.524,324.545,371.429,324.545C373.333,324.545,375.238,324.545,377.143,324.545C379.048,324.545,380.952,324.545,382.857,324.545C384.762,324.545,386.667,324.545,388.571,324.545C390.476,324.545,392.381,324.545,394.286,324.545C396.19,324.545,398.095,324.545,400,324.545C401.905,324.545,403.81,324.545,405.714,324.545C407.619,324.545,409.524,324.545,411.429,324.545C413.333,324.545,415.238,324.545,417.143,324.545C419.048,324.545,420.952,324.545,422.857,324.545C424.762,324.545,426.667,324.545,428.571,324.545C430.476,324.545,432.381,324.545,434.286,324.545C436.19,324.545,438.095,324.545,440,324.545C441.905,324.545,443.81,324.545,445.714,324.545C447.619,324.545,449.524,324.545,451.429,324.545C453.333,324.545,455.238,324.545,457.143,324.545C459.048,324.545,460.952,324.545,462.857,324.545C464.762,324.545,466.667,324.545,468.571,324.545C470.476,324.545,472.381,324.545,474.286,324.545C476.19,324.545,478.095,324.545,480,324.545C481.905,324.545,483.81,324.545,485.714,324.545C487.619,324.545,489.524,324.545,491.429,324.545C493.333,324.545,495.238,324.545,497.143,324.545C499.048,324.545,500.952,324.545,502.857,324.545C504.762,324.545,506.667,324.545,508.571,324.545C510.476,324.545,512.381,324.545,514.286,324.545C516.19,324.545,518.095,324.545,520,324.545C521.905,324.545,523.81,324.545,525.714,324.545C527.619,324.545,529.524,324.545,531.429,324.545C533.333,324.545,535.238,324.545,537.143,324.545C539.048,324.545,540.952,324.545,542.857,324.545C544.762,324.545,546.667,324.545,548.571,324.545C550.476,324.545,552.381,324.545,554.286,324.545C556.19,324.545,558.095,324.545,560,324.545C561.905,324.545,563.81,324.545,565.714,324.545C567.619,324.545,569.524,324.545,571.429,324.545C573.333,324.545,575.238,321.455,577.143,321.455C579.048,321.455,580.952,324.545,582.857,324.545C584.762,324.545,586.667,324.545,588.571,324.545C590.476,324.545,592.381,309.091,594.286,309.091C596.19,309.091,598.095,312.697,600,315.273C601.905,317.848,603.81,324.545,605.714,324.545C607.619,324.545,609.524,324.545,611.429,324.545C613.333,324.545,615.238,321.455,617.143,321.455C619.048,321.455,620.952,324.545,622.857,324.545C624.762,324.545,626.667,318.364,628.571,318.364C630.476,318.364,632.381,318.364,634.286,318.364C636.19,318.364,638.095,316.303,640,315.273C641.905,314.242,643.81,312.182,645.714,312.182C647.619,312.182,649.524,316.303,651.429,318.364C653.333,320.424,655.238,324.545,657.143,324.545C659.048,324.545,660.952,324.545,662.857,324.545C664.762,324.545,666.667,324.545,668.571,324.545C670.476,324.545,672.381,324.545,674.286,324.545C676.19,324.545,678.095,324.545,680,324.545C681.905,324.545,683.81,315.273,685.714,315.273C687.619,315.273,689.524,318.364,691.429,318.364C693.333,318.364,695.238,316.818,697.143,315.273C699.048,313.727,700.952,309.091,702.857,309.091C704.762,309.091,706.667,310.636,708.571,312.182C710.476,313.727,712.381,318.364,714.286,318.364C716.19,318.364,718.095,315.273,720,312.182"></path><circle class="dot" cx="0" cy="327.6363636363636" r="3" fill="#2563eb"></circle><circle class="dot" cx="5.7142857142857135" cy="327.6363636363636" r="3" fill="#2563eb"></circle><circle class="dot" cx="11.428571428571427" cy="327.6363636363636" r="3" fill="#2563eb"></circle><circle class="dot" cx="17.142857142857142" cy="327.6363636363636" r="3" fill="#2563eb"></circle><circle class="dot" cx="22.857142857142854" cy="327.6363636363636" r="3" fill="#2563eb"></circle><circle class="dot" cx="28.57142857142857" cy="327.6363636363636" r="3" fill="#2563eb"></circle><circle class="dot" cx="34.285714285714285" cy="327.6363636363636" r="3" fill="#2563eb"></circle><circle class="dot" cx="40" cy="327.6363636363636" r="3" fill="#2563eb"></circle><circle class="dot" cx="45.71428571428571" cy="327.6363636363636" r="3" fill="#2563eb"></circle><circle class="dot" cx="51.42857142857142" cy="327.6363636363636" r="3" fill="#2563eb"></circle><circle class="dot" cx="57.14285714285714" cy="327.6363636363636" r="3" fill="#2563eb"></circle><circle class="dot" cx="62.857142857142854" cy="327.6363636363636" r="3" fill="#2563eb"></circle><circle class="dot" cx="68.57142857142857" cy="327.6363636363636" r="3" fill="#2563eb"></circle><circle class="dot" cx="74.28571428571428" cy="327.6363636363636" r="3" fill="#2563eb"></circle><circle class="dot" cx="80" cy="327.6363636363636" r="3" fill="#2563eb"></circle><circle class="dot" cx="85.71428571428571" cy="327.6363636363636" r="3" fill="#2563eb"></circle><circle class="dot" cx="91.42857142857142" cy="327.6363636363636" r="3" fill="#2563eb"></circle><circle class="dot" cx="97.14285714285714" cy="327.6363636363636" r="3" fill="#2563eb"></circle><circle class="dot" cx="102.85714285714285" cy="327.6363636363636" r="3" fill="#2563eb"></circle><circle class="dot" cx="108.57142857142857" cy="327.6363636363636" r="3" fill="#2563eb"></circle><circle class="dot" cx="114.28571428571428" cy="327.6363636363636" r="3" fill="#2563eb"></circle><circle class="dot" cx="120" cy="327.6363636363636" r="3" fill="#2563eb"></circle><circle class="dot" cx="125.71428571428571" cy="327.6363636363636" r="3" fill="#2563eb"></circle><circle class="dot" cx="131.42857142857142" cy="327.6363636363636" r="3" fill="#2563eb"></circle><circle class="dot" cx="137.14285714285714" cy="327.6363636363636" r="3" fill="#2563eb"></circle><circle class="dot" cx="142.85714285714286" cy="327.6363636363636" r="3" fill="#2563eb"></circle><circle class="dot" cx="148.57142857142856" cy="327.6363636363636" r="3" fill="#2563eb"></circle><circle class="dot" cx="154.28571428571428" cy="327.6363636363636" r="3" fill="#2563eb"></circle><circle class="dot" cx="160" cy="327.6363636363636" r="3" fill="#2563eb"></circle><circle class="dot" cx="165.7142857142857" cy="327.6363636363636" r="3" fill="#2563eb"></circle><circle class="dot" cx="171.42857142857142" cy="327.6363636363636" r="3" fill="#2563eb"></circle><circle class="dot" cx="177.14285714285714" cy="327.6363636363636" r="3" fill="#2563eb"></circle><circle class="dot" cx="182.85714285714283" cy="327.6363636363636" r="3" fill="#2563eb"></circle><circle class="dot" cx="188.57142857142858" cy="327.6363636363636" r="3" fill="#2563eb"></circle><circle class="dot" cx="194.28571428571428" cy="327.6363636363636" r="3" fill="#2563eb"></circle><circle class="dot" cx="200" cy="327.6363636363636" r="3" fill="#2563eb"></circle><circle class="dot" cx="205.7142857142857" cy="327.6363636363636" r="3" fill="#2563eb"></circle><circle class="dot" cx="211.42857142857144" cy="18.54545454545455" r="3" fill="#2563eb"></circle><circle class="dot" cx="217.14285714285714" cy="306" r="3" fill="#2563eb"></circle><circle class="dot" cx="222.85714285714286" cy="324.54545454545456" r="3" fill="#2563eb"></circle><circle class="dot" cx="228.57142857142856" cy="324.54545454545456" r="3" fill="#2563eb"></circle><circle class="dot" cx="234.2857142857143" cy="324.54545454545456" r="3" fill="#2563eb"></circle><circle class="dot" cx="240" cy="324.54545454545456" r="3" fill="#2563eb"></circle><circle class="dot" cx="245.71428571428572" cy="324.54545454545456" r="3" fill="#2563eb"></circle><circle class="dot" cx="251.42857142857142" cy="324.54545454545456" r="3" fill="#2563eb"></circle><circle class="dot" cx="257.14285714285717" cy="324.54545454545456" r="3" fill="#2563eb"></circle><circle class="dot" cx="262.85714285714283" cy="324.54545454545456" r="3" fill="#2563eb"></circle><circle class="dot" cx="268.57142857142856" cy="324.54545454545456" r="3" fill="#2563eb"></circle><circle class="dot" cx="274.2857142857143" cy="324.54545454545456" r="3" fill="#2563eb"></circle><circle class="dot" cx="280" cy="324.54545454545456" r="3" fill="#2563eb"></circle><circle class="dot" cx="285.7142857142857" cy="324.54545454545456" r="3" fill="#2563eb"></circle><circle class="dot" cx="291.42857142857144" cy="324.54545454545456" r="3" fill="#2563eb"></circle><circle class="dot" cx="297.1428571428571" cy="324.54545454545456" r="3" fill="#2563eb"></circle><circle class="dot" cx="302.85714285714283" cy="324.54545454545456" r="3" fill="#2563eb"></circle><circle class="dot" cx="308.57142857142856" cy="324.54545454545456" r="3" fill="#2563eb"></circle><circle class="dot" cx="314.2857142857143" cy="324.54545454545456" r="3" fill="#2563eb"></circle><circle class="dot" cx="320" cy="324.54545454545456" r="3" fill="#2563eb"></circle><circle class="dot" cx="325.7142857142857" cy="324.54545454545456" r="3" fill="#2563eb"></circle><circle class="dot" cx="331.4285714285714" cy="324.54545454545456" r="3" fill="#2563eb"></circle><circle class="dot" cx="337.14285714285717" cy="324.54545454545456" r="3" fill="#2563eb"></circle><circle class="dot" cx="342.85714285714283" cy="324.54545454545456" r="3" fill="#2563eb"></circle><circle class="dot" cx="348.57142857142856" cy="324.54545454545456" r="3" fill="#2563eb"></circle><circle class="dot" cx="354.2857142857143" cy="324.54545454545456" r="3" fill="#2563eb"></circle><circle class="dot" cx="360" cy="324.54545454545456" r="3" fill="#2563eb"></circle><circle class="dot" cx="365.71428571428567" cy="324.54545454545456" r="3" fill="#2563eb"></circle><circle class="dot" cx="371.42857142857144" cy="324.54545454545456" r="3" fill="#2563eb"></circle><circle class="dot" cx="377.14285714285717" cy="324.54545454545456" r="3" fill="#2563eb"></circle><circle class="dot" cx="382.85714285714283" cy="324.54545454545456" r="3" fill="#2563eb"></circle><circle class="dot" cx="388.57142857142856" cy="324.54545454545456" r="3" fill="#2563eb"></circle><circle class="dot" cx="394.28571428571433" cy="324.54545454545456" r="3" fill="#2563eb"></circle><circle class="dot" cx="400" cy="324.54545454545456" r="3" fill="#2563eb"></circle><circle class="dot" cx="405.7142857142857" cy="324.54545454545456" r="3" fill="#2563eb"></circle><circle class="dot" cx="411.4285714285714" cy="324.54545454545456" r="3" fill="#2563eb"></circle><circle class="dot" cx="417.14285714285717" cy="324.54545454545456" r="3" fill="#2563eb"></circle><circle class="dot" cx="422.8571428571429" cy="324.54545454545456" r="3" fill="#2563eb"></circle><circle class="dot" cx="428.57142857142856" cy="324.54545454545456" r="3" fill="#2563eb"></circle><circle class="dot" cx="434.2857142857143" cy="324.54545454545456" r="3" fill="#2563eb"></circle><circle class="dot" cx="440.00000000000006" cy="324.54545454545456" r="3" fill="#2563eb"></circle><circle class="dot" cx="445.7142857142857" cy="324.54545454545456" r="3" fill="#2563eb"></circle><circle class="dot" cx="451.42857142857144" cy="324.54545454545456" r="3" fill="#2563eb"></circle><circle class="dot" cx="457.1428571428571" cy="324.54545454545456" r="3" fill="#2563eb"></circle><circle class="dot" cx="462.8571428571429" cy="324.54545454545456" r="3" fill="#2563eb"></circle><circle class="dot" cx="468.5714285714286" cy="324.54545454545456" r="3" fill="#2563eb"></circle><circle class="dot" cx="474.2857142857143" cy="324.54545454545456" r="3" fill="#2563eb"></circle><circle class="dot" cx="480" cy="324.54545454545456" r="3" fill="#2563eb"></circle><circle class="dot" cx="485.7142857142857" cy="324.54545454545456" r="3" fill="#2563eb"></circle><circle class="dot" cx="491.42857142857144" cy="324.54545454545456" r="3" fill="#2563eb"></circle><circle class="dot" cx="497.1428571428571" cy="324.54545454545456" r="3" fill="#2563eb"></circle><circle class="dot" cx="502.85714285714283" cy="324.54545454545456" r="3" fill="#2563eb"></circle><circle class="dot" cx="508.5714285714286" cy="324.54545454545456" r="3" fill="#2563eb"></circle><circle class="dot" cx="514.2857142857143" cy="324.54545454545456" r="3" fill="#2563eb"></circle><circle class="dot" cx="520" cy="324.54545454545456" r="3" fill="#2563eb"></circle><circle class="dot" cx="525.7142857142857" cy="324.54545454545456" r="3" fill="#2563eb"></circle><circle class="dot" cx="531.4285714285714" cy="324.54545454545456" r="3" fill="#2563eb"></circle><circle class="dot" cx="537.1428571428571" cy="324.54545454545456" r="3" fill="#2563eb"></circle><circle class="dot" cx="542.8571428571429" cy="324.54545454545456" r="3" fill="#2563eb"></circle><circle class="dot" cx="548.5714285714286" cy="324.54545454545456" r="3" fill="#2563eb"></circle><circle class="dot" cx="554.2857142857143" cy="324.54545454545456" r="3" fill="#2563eb"></circle><circle class="dot" cx="560" cy="324.54545454545456" r="3" fill="#2563eb"></circle><circle class="dot" cx="565.7142857142857" cy="324.54545454545456" r="3" fill="#2563eb"></circle><circle class="dot" cx="571.4285714285714" cy="324.54545454545456" r="3" fill="#2563eb"></circle><circle class="dot" cx="577.1428571428572" cy="321.45454545454544" r="3" fill="#2563eb"></circle><circle class="dot" cx="582.8571428571429" cy="324.54545454545456" r="3" fill="#2563eb"></circle><circle class="dot" cx="588.5714285714286" cy="324.54545454545456" r="3" fill="#2563eb"></circle><circle class="dot" cx="594.2857142857142" cy="309.09090909090907" r="3" fill="#2563eb"></circle><circle class="dot" cx="600" cy="315.27272727272725" r="3" fill="#2563eb"></circle><circle class="dot" cx="605.7142857142857" cy="324.54545454545456" r="3" fill="#2563eb"></circle><circle class="dot" cx="611.4285714285714" cy="324.54545454545456" r="3" fill="#2563eb"></circle><circle class="dot" cx="617.1428571428571" cy="321.45454545454544" r="3" fill="#2563eb"></circle><circle class="dot" cx="622.8571428571429" cy="324.54545454545456" r="3" fill="#2563eb"></circle><circle class="dot" cx="628.5714285714286" cy="318.3636363636364" r="3" fill="#2563eb"></circle><circle class="dot" cx="634.2857142857142" cy="318.3636363636364" r="3" fill="#2563eb"></circle><circle class="dot" cx="640" cy="315.27272727272725" r="3" fill="#2563eb"></circle><circle class="dot" cx="645.7142857142858" cy="312.1818181818182" r="3" fill="#2563eb"></circle><circle class="dot" cx="651.4285714285714" cy="318.3636363636364" r="3" fill="#2563eb"></circle><circle class="dot" cx="657.1428571428571" cy="324.54545454545456" r="3" fill="#2563eb"></circle><circle class="dot" cx="662.8571428571428" cy="324.54545454545456" r="3" fill="#2563eb"></circle><circle class="dot" cx="668.5714285714286" cy="324.54545454545456" r="3" fill="#2563eb"></circle><circle class="dot" cx="674.2857142857143" cy="324.54545454545456" r="3" fill="#2563eb"></circle><circle class="dot" cx="680" cy="324.54545454545456" r="3" fill="#2563eb"></circle><circle class="dot" cx="685.7142857142857" cy="315.27272727272725" r="3" fill="#2563eb"></circle><circle class="dot" cx="691.4285714285714" cy="318.3636363636364" r="3" fill="#2563eb"></circle><circle class="dot" cx="697.1428571428571" cy="315.27272727272725" r="3" fill="#2563eb"></circle><circle class="dot" cx="702.8571428571429" cy="309.09090909090907" r="3" fill="#2563eb"></circle><circle class="dot" cx="708.5714285714286" cy="312.1818181818182" r="3" fill="#2563eb"></circle><circle class="dot" cx="714.2857142857143" cy="318.3636363636364" r="3" fill="#2563eb"></circle><circle class="dot" cx="720" cy="312.1818181818182" r="3" fill="#2563eb"></circle><g class="grid" transform="translate(0,340)" fill="none" font-size="10" font-family="sans-serif" text-anchor="middle" style="stroke-dasharray: 3,3; opacity: 0.3;"><path class="domain" stroke="currentColor" d="M0.5,-340V0.5H720.5V-340"></path><g class="tick" opacity="1" transform="translate(0.5,0)"><line stroke="currentColor" y2="-340"></line><text fill="currentColor" y="3" dy="0.71em"></text></g><g class="tick" opacity="1" transform="translate(137.64285714285714,0)"><line stroke="currentColor" y2="-340"></line><text fill="currentColor" y="3" dy="0.71em"></text></g><g class="tick" opacity="1" transform="translate(274.7857142857143,0)"><line stroke="currentColor" y2="-340"></line><text fill="currentColor" y="3" dy="0.71em"></text></g><g class="tick" opacity="1" transform="translate(411.9285714285714,0)"><line stroke="currentColor" y2="-340"></line><text fill="currentColor" y="3" dy="0.71em"></text></g><g class="tick" opacity="1" transform="translate(549.0714285714286,0)"><line stroke="currentColor" y2="-340"></line><text fill="currentColor" y="3" dy="0.71em"></text></g><g class="tick" opacity="1" transform="translate(686.2142857142857,0)"><line stroke="currentColor" y2="-340"></line><text fill="currentColor" y="3" dy="0.71em"></text></g></g><g class="grid" fill="none" font-size="10" font-family="sans-serif" text-anchor="end" style="stroke-dasharray: 3,3; opacity: 0.3;"><path class="domain" stroke="currentColor" d="M720,340.5H0.5V0.5H720"></path><g class="tick" opacity="1" transform="translate(0,340.5)"><line stroke="currentColor" x2="720"></line><text fill="currentColor" x="-3" dy="0.32em"></text></g><g class="tick" opacity="1" transform="translate(0,309.59090909090907)"><line stroke="currentColor" x2="720"></line><text fill="currentColor" x="-3" dy="0.32em"></text></g><g class="tick" opacity="1" transform="translate(0,278.6818181818182)"><line stroke="currentColor" x2="720"></line><text fill="currentColor" x="-3" dy="0.32em"></text></g><g class="tick" opacity="1" transform="translate(0,247.77272727272728)"><line stroke="currentColor" x2="720"></line><text fill="currentColor" x="-3" dy="0.32em"></text></g><g class="tick" opacity="1" transform="translate(0,216.86363636363637)"><line stroke="currentColor" x2="720"></line><text fill="currentColor" x="-3" dy="0.32em"></text></g><g class="tick" opacity="1" transform="translate(0,185.95454545454544)"><line stroke="currentColor" x2="720"></line><text fill="currentColor" x="-3" dy="0.32em"></text></g><g class="tick" opacity="1" transform="translate(0,155.04545454545456)"><line stroke="currentColor" x2="720"></line><text fill="currentColor" x="-3" dy="0.32em"></text></g><g class="tick" opacity="1" transform="translate(0,124.13636363636368)"><line stroke="currentColor" x2="720"></line><text fill="currentColor" x="-3" dy="0.32em"></text></g><g class="tick" opacity="1" transform="translate(0,93.22727272727272)"><line stroke="currentColor" x2="720"></line><text fill="currentColor" x="-3" dy="0.32em"></text></g><g class="tick" opacity="1" transform="translate(0,62.31818181818184)"><line stroke="currentColor" x2="720"></line><text fill="currentColor" x="-3" dy="0.32em"></text></g><g class="tick" opacity="1" transform="translate(0,31.40909090909092)"><line stroke="currentColor" x2="720"></line><text fill="currentColor" x="-3" dy="0.32em"></text></g><g class="tick" opacity="1" transform="translate(0,0.5)"><line stroke="currentColor" x2="720"></line><text fill="currentColor" x="-3" dy="0.32em"></text></g></g></g><text x="400" y="10" text-anchor="middle" style="font-size: 16px; font-weight: bold; fill: #333;">OKX USDT Lending Rate - Current Month</text></svg>