<svg width="800" height="400" xmlns="http://www.w3.org/2000/svg"><g transform="translate(50,20)"><g transform="translate(0,340)" fill="none" font-size="10" font-family="sans-serif" text-anchor="middle"><path class="domain" stroke="currentColor" d="M0.5,6V0.5H720.5V6"></path><g class="tick" opacity="1" transform="translate(58.80985915492958,0)"><line stroke="currentColor" y2="6"></line><text fill="currentColor" y="9" dy="0.71em">08/11 00:00</text></g><g class="tick" opacity="1" transform="translate(119.65492957746478,0)"><line stroke="currentColor" y2="6"></line><text fill="currentColor" y="9" dy="0.71em">08/12 00:00</text></g><g class="tick" opacity="1" transform="translate(180.5,0)"><line stroke="currentColor" y2="6"></line><text fill="currentColor" y="9" dy="0.71em">08/13 00:00</text></g><g class="tick" opacity="1" transform="translate(241.3450704225352,0)"><line stroke="currentColor" y2="6"></line><text fill="currentColor" y="9" dy="0.71em">08/14 00:00</text></g><g class="tick" opacity="1" transform="translate(302.1901408450704,0)"><line stroke="currentColor" y2="6"></line><text fill="currentColor" y="9" dy="0.71em">08/15 00:00</text></g><g class="tick" opacity="1" transform="translate(363.03521126760563,0)"><line stroke="currentColor" y2="6"></line><text fill="currentColor" y="9" dy="0.71em">08/16 00:00</text></g><g class="tick" opacity="1" transform="translate(423.88028169014086,0)"><line stroke="currentColor" y2="6"></line><text fill="currentColor" y="9" dy="0.71em">08/17 00:00</text></g><g class="tick" opacity="1" transform="translate(484.72535211267603,0)"><line stroke="currentColor" y2="6"></line><text fill="currentColor" y="9" dy="0.71em">08/18 00:00</text></g><g class="tick" opacity="1" transform="translate(545.5704225352113,0)"><line stroke="currentColor" y2="6"></line><text fill="currentColor" y="9" dy="0.71em">08/19 00:00</text></g><g class="tick" opacity="1" transform="translate(606.4154929577464,0)"><line stroke="currentColor" y2="6"></line><text fill="currentColor" y="9" dy="0.71em">08/20 00:00</text></g><g class="tick" opacity="1" transform="translate(667.2605633802817,0)"><line stroke="currentColor" y2="6"></line><text fill="currentColor" y="9" dy="0.71em">08/21 00:00</text></g></g><g fill="none" font-size="10" font-family="sans-serif" text-anchor="end"><path class="domain" stroke="currentColor" d="M-6,340.5H0.5V0.5H-6"></path><g class="tick" opacity="1" transform="translate(0,340.5)"><line stroke="currentColor" x2="-6"></line><text fill="currentColor" x="-9" dy="0.32em">5.00%</text></g><g class="tick" opacity="1" transform="translate(0,302.72222222222223)"><line stroke="currentColor" x2="-6"></line><text fill="currentColor" x="-9" dy="0.32em">10.00%</text></g><g class="tick" opacity="1" transform="translate(0,264.94444444444446)"><line stroke="currentColor" x2="-6"></line><text fill="currentColor" x="-9" dy="0.32em">15.00%</text></g><g class="tick" opacity="1" transform="translate(0,227.16666666666666)"><line stroke="currentColor" x2="-6"></line><text fill="currentColor" x="-9" dy="0.32em">20.00%</text></g><g class="tick" opacity="1" transform="translate(0,189.38888888888889)"><line stroke="currentColor" x2="-6"></line><text fill="currentColor" x="-9" dy="0.32em">25.00%</text></g><g class="tick" opacity="1" transform="translate(0,151.61111111111111)"><line stroke="currentColor" x2="-6"></line><text fill="currentColor" x="-9" dy="0.32em">30.00%</text></g><g class="tick" opacity="1" transform="translate(0,113.83333333333334)"><line stroke="currentColor" x2="-6"></line><text fill="currentColor" x="-9" dy="0.32em">35.00%</text></g><g class="tick" opacity="1" transform="translate(0,76.05555555555556)"><line stroke="currentColor" x2="-6"></line><text fill="currentColor" x="-9" dy="0.32em">40.00%</text></g><g class="tick" opacity="1" transform="translate(0,38.27777777777776)"><line stroke="currentColor" x2="-6"></line><text fill="currentColor" x="-9" dy="0.32em">45.00%</text></g><g class="tick" opacity="1" transform="translate(0,0.5)"><line stroke="currentColor" x2="-6"></line><text fill="currentColor" x="-9" dy="0.32em">50.00%</text></g></g><text transform="rotate(-90)" y="-50" x="-170" dy="1em" style="text-anchor: middle; font-size: 12px; fill: #666;">Pre Rate (%)</text><text transform="translate(360, 380)" style="text-anchor: middle; font-size: 12px; fill: #666;">Time (UTC)</text><path fill="none" stroke="#2563eb" stroke-width="2" d="M0,75.556C0.845,207.778,1.69,340,2.535,340C3.38,340,4.225,340,5.07,340C5.915,340,6.761,75.556,7.606,75.556C8.451,75.556,9.296,78.074,10.141,83.111C10.986,88.148,11.831,340,12.676,340C13.521,340,14.366,340,15.211,340C16.056,340,16.901,340,17.746,340C18.592,340,19.437,340,20.282,340C21.127,340,21.972,340,22.817,340C23.662,340,24.507,340,25.352,340C26.197,340,27.042,340,27.887,340C28.732,340,29.577,340,30.423,340C31.268,340,32.113,340,32.958,340C33.803,340,34.648,340,35.493,340C36.338,340,37.183,340,38.028,340C38.873,340,39.718,340,40.563,340C41.408,340,42.254,340,43.099,340C43.944,340,44.789,340,45.634,340C46.479,340,47.324,340,48.169,340C49.014,340,49.859,340,50.704,340C51.549,340,52.394,340,53.239,340C54.085,340,54.93,340,55.775,340C58.31,340,60.845,340,63.38,340C65.07,340,66.761,90.667,68.451,90.667C69.296,90.667,70.141,340,70.986,340C71.831,340,72.676,340,73.521,340C74.366,340,75.211,340,76.056,340C76.901,340,77.746,340,78.592,340C79.437,340,80.282,340,81.127,340C81.972,340,82.817,340,83.662,340C84.507,340,85.352,340,86.197,340C87.887,340,89.577,340,91.268,340C92.113,340,92.958,340,93.803,340C94.648,340,95.493,340,96.338,340C97.183,340,98.028,340,98.873,340C99.718,340,100.563,340,101.408,340C102.254,340,103.099,340,103.944,340C104.789,340,105.634,340,106.479,340C107.324,340,108.169,340,109.014,340C109.859,340,110.704,340,111.549,340C112.394,340,113.239,340,114.085,340C114.93,340,115.775,340,116.62,340C119.155,340,121.69,340,124.225,340C125.07,340,125.915,340,126.761,340C127.606,340,128.451,340,129.296,340C130.141,340,130.986,340,131.831,340C132.676,340,133.521,340,134.366,340C135.211,340,136.056,340,136.901,340C137.746,340,138.592,340,139.437,340C140.282,340,141.127,340,141.972,340C142.817,340,143.662,340,144.507,340C145.352,340,146.197,340,147.042,340C147.887,340,148.732,340,149.577,340C150.423,340,151.268,90.667,152.113,90.667C152.958,90.667,153.803,340,154.648,340C155.493,340,156.338,340,157.183,340C158.028,340,158.873,68,159.718,68C160.563,68,161.408,78.074,162.254,98.222C163.099,118.37,163.944,340,164.789,340C165.634,340,166.479,340,167.324,340C168.169,340,169.014,118.37,169.859,83.111C170.704,47.852,171.549,30.222,172.394,30.222C173.239,30.222,174.085,55.407,174.93,60.444C175.775,65.481,176.62,62.963,177.465,68C180,83.111,182.535,340,185.07,340C185.915,340,186.761,83.111,187.606,83.111C188.451,83.111,189.296,98.222,190.141,98.222C190.986,98.222,191.831,98.222,192.676,98.222C193.521,98.222,194.366,332.444,195.211,332.444C196.056,332.444,196.901,332.444,197.746,332.444C198.592,332.444,199.437,52.889,200.282,52.889C201.127,52.889,201.972,75.556,202.817,75.556C203.662,75.556,204.507,68,205.352,68C206.197,68,207.042,332.444,207.887,332.444C208.732,332.444,209.577,332.444,210.423,332.444C211.268,332.444,212.113,332.444,212.958,332.444C213.803,332.444,214.648,332.444,215.493,332.444C216.338,332.444,217.183,332.444,218.028,332.444C218.873,332.444,219.718,332.444,220.563,332.444C221.408,332.444,222.254,332.444,223.099,332.444C223.944,332.444,224.789,332.444,225.634,332.444C226.479,332.444,227.324,332.444,228.169,332.444C229.014,332.444,229.859,332.444,230.704,332.444C231.549,332.444,232.394,332.444,233.239,332.444C234.085,332.444,234.93,332.444,235.775,332.444C236.62,332.444,237.465,332.444,238.31,332.444C240.845,332.444,243.38,332.444,245.915,332.444C246.761,332.444,247.606,52.889,248.451,52.889C249.296,52.889,250.141,332.444,250.986,332.444C251.831,332.444,252.676,332.444,253.521,332.444C254.366,332.444,255.211,332.444,256.056,332.444C256.901,332.444,257.746,68,258.592,68C259.437,68,260.282,78.074,261.127,98.222C261.972,118.37,262.817,332.444,263.662,332.444C264.507,332.444,265.352,332.444,266.197,332.444C267.042,332.444,267.887,332.444,268.732,332.444C269.577,332.444,270.423,332.444,271.268,332.444C272.113,332.444,272.958,332.444,273.803,332.444C274.648,332.444,275.493,332.444,276.338,332.444C277.183,332.444,278.028,332.444,278.873,332.444C279.718,332.444,280.563,332.444,281.408,332.444C282.254,332.444,283.099,332.444,283.944,332.444C284.789,332.444,285.634,332.444,286.479,332.444C287.324,332.444,288.169,332.444,289.014,332.444C289.859,332.444,290.704,332.444,291.549,332.444C292.394,332.444,293.239,332.444,294.085,332.444C294.93,332.444,295.775,332.444,296.62,332.444C297.465,332.444,298.31,332.444,299.155,332.444C301.69,332.444,304.225,332.444,306.761,332.444C307.606,332.444,308.451,332.444,309.296,332.444C310.141,332.444,310.986,332.444,311.831,332.444C312.676,332.444,313.521,332.444,314.366,332.444C315.211,332.444,316.056,332.444,316.901,332.444C317.746,332.444,318.592,332.444,319.437,332.444C320.282,332.444,321.127,332.444,321.972,332.444C322.817,332.444,323.662,332.444,324.507,332.444C325.352,332.444,326.197,332.444,327.042,332.444C327.887,332.444,328.732,332.444,329.577,332.444C330.423,332.444,331.268,332.444,332.113,332.444C332.958,332.444,333.803,332.444,334.648,332.444C335.493,332.444,336.338,332.444,337.183,332.444C338.028,332.444,338.873,332.444,339.718,332.444C340.563,332.444,341.408,332.444,342.254,332.444C343.099,332.444,343.944,332.444,344.789,332.444C345.634,332.444,346.479,332.444,347.324,332.444C348.169,332.444,349.014,332.444,349.859,332.444C350.704,332.444,351.549,332.444,352.394,332.444C353.239,332.444,354.085,332.444,354.93,332.444C355.775,332.444,356.62,332.444,357.465,332.444C358.31,332.444,359.155,332.444,360,332.444C362.535,332.444,365.07,332.444,367.606,332.444C368.451,332.444,369.296,332.444,370.141,332.444C370.986,332.444,371.831,332.444,372.676,332.444C373.521,332.444,374.366,332.444,375.211,332.444C376.056,332.444,376.901,332.444,377.746,332.444C378.592,332.444,379.437,332.444,380.282,332.444C381.127,332.444,381.972,332.444,382.817,332.444C383.662,332.444,384.507,332.444,385.352,332.444C386.197,332.444,387.042,332.444,387.887,332.444C388.732,332.444,389.577,332.444,390.423,332.444C391.268,332.444,392.113,332.444,392.958,332.444C393.803,332.444,394.648,332.444,395.493,332.444C396.338,332.444,397.183,332.444,398.028,332.444C398.873,332.444,399.718,332.444,400.563,332.444C401.408,332.444,402.254,332.444,403.099,332.444C403.944,332.444,404.789,332.444,405.634,332.444C406.479,332.444,407.324,332.444,408.169,332.444C409.014,332.444,409.859,332.444,410.704,332.444C411.549,332.444,412.394,332.444,413.239,332.444C414.085,332.444,414.93,332.444,415.775,332.444C416.62,332.444,417.465,332.444,418.31,332.444C419.155,332.444,420,332.444,420.845,332.444C423.38,332.444,425.915,332.444,428.451,332.444C429.296,332.444,430.141,332.444,430.986,332.444C431.831,332.444,432.676,332.444,433.521,332.444C434.366,332.444,435.211,332.444,436.056,332.444C436.901,332.444,437.746,332.444,438.592,332.444C439.437,332.444,440.282,332.444,441.127,332.444C441.972,332.444,442.817,332.444,443.662,332.444C444.507,332.444,445.352,332.444,446.197,332.444C447.042,332.444,447.887,332.444,448.732,332.444C449.577,332.444,450.423,332.444,451.268,332.444C452.113,332.444,452.958,332.444,453.803,332.444C454.648,332.444,455.493,332.444,456.338,332.444C457.183,332.444,458.028,332.444,458.873,332.444C459.718,332.444,460.563,332.444,461.408,332.444C462.254,332.444,463.099,332.444,463.944,332.444C464.789,332.444,465.634,332.444,466.479,332.444C467.324,332.444,468.169,332.444,469.014,332.444C469.859,332.444,470.704,332.444,471.549,332.444C472.394,332.444,473.239,332.444,474.085,332.444C474.93,332.444,475.775,332.444,476.62,332.444C477.465,332.444,478.31,332.444,479.155,332.444C480,332.444,480.845,332.444,481.69,332.444C484.225,332.444,486.761,332.444,489.296,332.444C490.986,332.444,492.676,332.444,494.366,332.444C495.211,332.444,496.056,332.444,496.901,332.444C497.746,332.444,498.592,332.444,499.437,332.444C500.282,332.444,501.127,332.444,501.972,332.444C502.817,332.444,503.662,332.444,504.507,332.444C505.352,332.444,506.197,332.444,507.042,332.444C507.887,332.444,508.732,332.444,509.577,332.444C510.423,332.444,511.268,332.444,512.113,332.444C512.958,332.444,513.803,332.444,514.648,332.444C515.493,332.444,516.338,332.444,517.183,332.444C518.028,332.444,518.873,332.444,519.718,332.444C520.563,332.444,521.408,332.444,522.254,332.444C523.099,332.444,523.944,332.444,524.789,332.444C525.634,332.444,526.479,332.444,527.324,332.444C528.169,332.444,529.014,332.444,529.859,332.444C530.704,332.444,531.549,332.444,532.394,332.444C533.239,332.444,534.085,332.444,534.93,332.444C535.775,332.444,536.62,332.444,537.465,332.444C538.31,332.444,539.155,332.444,540,332.444C540.845,332.444,541.69,332.444,542.535,332.444C545.07,332.444,547.606,332.444,550.141,332.444C550.986,332.444,551.831,332.444,552.676,332.444C553.521,332.444,554.366,332.444,555.211,332.444C556.056,332.444,556.901,332.444,557.746,332.444C558.592,332.444,559.437,332.444,560.282,332.444C561.127,332.444,561.972,332.444,562.817,332.444C563.662,332.444,564.507,332.444,565.352,332.444C566.197,332.444,567.042,332.444,567.887,332.444C568.732,332.444,569.577,332.444,570.423,332.444C571.268,332.444,572.113,332.444,572.958,332.444C573.803,332.444,574.648,332.444,575.493,332.444C576.338,332.444,577.183,332.444,578.028,332.444C578.873,332.444,579.718,332.444,580.563,332.444C581.408,332.444,582.254,332.444,583.099,332.444C583.944,332.444,584.789,332.444,585.634,332.444C586.479,332.444,587.324,332.444,588.169,332.444C589.014,332.444,589.859,332.444,590.704,332.444C591.549,332.444,592.394,332.444,593.239,332.444C594.085,332.444,594.93,332.444,595.775,332.444C596.62,332.444,597.465,332.444,598.31,332.444C599.155,332.444,600,332.444,600.845,332.444C601.69,332.444,602.535,332.444,603.38,332.444C605.915,332.444,608.451,332.444,610.986,332.444C611.831,332.444,612.676,332.444,613.521,332.444C614.366,332.444,615.211,332.444,616.056,332.444C616.901,332.444,617.746,332.444,618.592,332.444C619.437,332.444,620.282,332.444,621.127,332.444C621.972,332.444,622.817,332.444,623.662,332.444C624.507,332.444,625.352,332.444,626.197,332.444C627.042,332.444,627.887,332.444,628.732,332.444C629.577,332.444,630.423,332.444,631.268,332.444C632.113,332.444,632.958,332.444,633.803,332.444C634.648,332.444,635.493,332.444,636.338,332.444C637.183,332.444,638.028,340,638.873,340C639.718,340,640.563,340,641.408,340C642.254,340,643.099,340,643.944,340C644.789,340,645.634,340,646.479,340C647.324,340,648.169,340,649.014,340C649.859,340,650.704,340,651.549,340C652.394,340,653.239,340,654.085,340C654.93,340,655.775,340,656.62,340C657.465,340,658.31,340,659.155,340C660,340,660.845,340,661.69,340C662.535,340,663.38,340,664.225,340C666.761,340,669.296,340,671.831,340C672.676,340,673.521,340,674.366,340C675.211,340,676.056,340,676.901,340C677.746,340,678.592,340,679.437,340C680.282,340,681.127,340,681.972,340C682.817,340,683.662,340,684.507,340C685.352,340,686.197,340,687.042,340C687.887,340,688.732,340,689.577,340C690.423,340,691.268,340,692.113,340C692.958,340,693.803,340,694.648,340C695.493,340,696.338,340,697.183,340C698.028,340,698.873,340,699.718,340C700.563,340,701.408,340,702.254,340C703.099,340,703.944,340,704.789,340C705.634,340,706.479,340,707.324,340C709.014,340,710.704,340,712.394,340C713.239,340,714.085,340,714.93,340C715.775,340,716.62,340,717.465,340C718.31,340,719.155,340,720,340"></path><circle class="dot" cx="0" cy="75.55555555555556" r="3" fill="#2563eb"></circle><circle class="dot" cx="2.535211267605634" cy="340" r="3" fill="#2563eb"></circle><circle class="dot" cx="5.070422535211268" cy="340" r="3" fill="#2563eb"></circle><circle class="dot" cx="7.605633802816901" cy="75.55555555555556" r="3" fill="#2563eb"></circle><circle class="dot" cx="10.140845070422536" cy="83.11111111111111" r="3" fill="#2563eb"></circle><circle class="dot" cx="12.67605633802817" cy="340" r="3" fill="#2563eb"></circle><circle class="dot" cx="15.211267605633802" cy="340" r="3" fill="#2563eb"></circle><circle class="dot" cx="17.746478873239436" cy="340" r="3" fill="#2563eb"></circle><circle class="dot" cx="20.281690140845072" cy="340" r="3" fill="#2563eb"></circle><circle class="dot" cx="22.816901408450704" cy="340" r="3" fill="#2563eb"></circle><circle class="dot" cx="25.35211267605634" cy="340" r="3" fill="#2563eb"></circle><circle class="dot" cx="27.88732394366197" cy="340" r="3" fill="#2563eb"></circle><circle class="dot" cx="30.422535211267604" cy="340" r="3" fill="#2563eb"></circle><circle class="dot" cx="32.95774647887324" cy="340" r="3" fill="#2563eb"></circle><circle class="dot" cx="35.49295774647887" cy="340" r="3" fill="#2563eb"></circle><circle class="dot" cx="38.028169014084504" cy="340" r="3" fill="#2563eb"></circle><circle class="dot" cx="40.563380281690144" cy="340" r="3" fill="#2563eb"></circle><circle class="dot" cx="43.09859154929577" cy="340" r="3" fill="#2563eb"></circle><circle class="dot" cx="45.63380281690141" cy="340" r="3" fill="#2563eb"></circle><circle class="dot" cx="48.16901408450704" cy="340" r="3" fill="#2563eb"></circle><circle class="dot" cx="50.70422535211268" cy="340" r="3" fill="#2563eb"></circle><circle class="dot" cx="53.23943661971831" cy="340" r="3" fill="#2563eb"></circle><circle class="dot" cx="55.77464788732394" cy="340" r="3" fill="#2563eb"></circle><circle class="dot" cx="63.38028169014084" cy="340" r="3" fill="#2563eb"></circle><circle class="dot" cx="68.45070422535211" cy="90.66666666666664" r="3" fill="#2563eb"></circle><circle class="dot" cx="70.98591549295774" cy="340" r="3" fill="#2563eb"></circle><circle class="dot" cx="73.52112676056338" cy="340" r="3" fill="#2563eb"></circle><circle class="dot" cx="76.05633802816901" cy="340" r="3" fill="#2563eb"></circle><circle class="dot" cx="78.59154929577464" cy="340" r="3" fill="#2563eb"></circle><circle class="dot" cx="81.12676056338029" cy="340" r="3" fill="#2563eb"></circle><circle class="dot" cx="83.66197183098592" cy="340" r="3" fill="#2563eb"></circle><circle class="dot" cx="86.19718309859154" cy="340" r="3" fill="#2563eb"></circle><circle class="dot" cx="91.26760563380282" cy="340" r="3" fill="#2563eb"></circle><circle class="dot" cx="93.80281690140845" cy="340" r="3" fill="#2563eb"></circle><circle class="dot" cx="96.33802816901408" cy="340" r="3" fill="#2563eb"></circle><circle class="dot" cx="98.87323943661973" cy="340" r="3" fill="#2563eb"></circle><circle class="dot" cx="101.40845070422536" cy="340" r="3" fill="#2563eb"></circle><circle class="dot" cx="103.94366197183099" cy="340" r="3" fill="#2563eb"></circle><circle class="dot" cx="106.47887323943662" cy="340" r="3" fill="#2563eb"></circle><circle class="dot" cx="109.01408450704224" cy="340" r="3" fill="#2563eb"></circle><circle class="dot" cx="111.54929577464787" cy="340" r="3" fill="#2563eb"></circle><circle class="dot" cx="114.08450704225353" cy="340" r="3" fill="#2563eb"></circle><circle class="dot" cx="116.61971830985917" cy="340" r="3" fill="#2563eb"></circle><circle class="dot" cx="124.22535211267605" cy="340" r="3" fill="#2563eb"></circle><circle class="dot" cx="126.76056338028168" cy="340" r="3" fill="#2563eb"></circle><circle class="dot" cx="129.29577464788733" cy="340" r="3" fill="#2563eb"></circle><circle class="dot" cx="131.83098591549296" cy="340" r="3" fill="#2563eb"></circle><circle class="dot" cx="134.3661971830986" cy="340" r="3" fill="#2563eb"></circle><circle class="dot" cx="136.90140845070422" cy="340" r="3" fill="#2563eb"></circle><circle class="dot" cx="139.43661971830986" cy="340" r="3" fill="#2563eb"></circle><circle class="dot" cx="141.9718309859155" cy="340" r="3" fill="#2563eb"></circle><circle class="dot" cx="144.50704225352112" cy="340" r="3" fill="#2563eb"></circle><circle class="dot" cx="147.04225352112675" cy="340" r="3" fill="#2563eb"></circle><circle class="dot" cx="149.57746478873239" cy="340" r="3" fill="#2563eb"></circle><circle class="dot" cx="152.11267605633802" cy="90.66666666666664" r="3" fill="#2563eb"></circle><circle class="dot" cx="154.64788732394365" cy="340" r="3" fill="#2563eb"></circle><circle class="dot" cx="157.18309859154928" cy="340" r="3" fill="#2563eb"></circle><circle class="dot" cx="159.71830985915494" cy="68.00000000000003" r="3" fill="#2563eb"></circle><circle class="dot" cx="162.25352112676057" cy="98.22222222222221" r="3" fill="#2563eb"></circle><circle class="dot" cx="164.7887323943662" cy="340" r="3" fill="#2563eb"></circle><circle class="dot" cx="167.32394366197184" cy="340" r="3" fill="#2563eb"></circle><circle class="dot" cx="169.85915492957747" cy="83.11111111111111" r="3" fill="#2563eb"></circle><circle class="dot" cx="172.39436619718307" cy="30.22222222222219" r="3" fill="#2563eb"></circle><circle class="dot" cx="174.92957746478874" cy="60.44444444444446" r="3" fill="#2563eb"></circle><circle class="dot" cx="177.46478873239437" cy="68.00000000000003" r="3" fill="#2563eb"></circle><circle class="dot" cx="185.07042253521126" cy="340" r="3" fill="#2563eb"></circle><circle class="dot" cx="187.6056338028169" cy="83.11111111111111" r="3" fill="#2563eb"></circle><circle class="dot" cx="190.14084507042253" cy="98.22222222222221" r="3" fill="#2563eb"></circle><circle class="dot" cx="192.67605633802816" cy="98.22222222222221" r="3" fill="#2563eb"></circle><circle class="dot" cx="195.21126760563382" cy="332.44444444444446" r="3" fill="#2563eb"></circle><circle class="dot" cx="197.74647887323945" cy="332.44444444444446" r="3" fill="#2563eb"></circle><circle class="dot" cx="200.2816901408451" cy="52.88888888888889" r="3" fill="#2563eb"></circle><circle class="dot" cx="202.81690140845072" cy="75.55555555555556" r="3" fill="#2563eb"></circle><circle class="dot" cx="205.35211267605635" cy="68.00000000000003" r="3" fill="#2563eb"></circle><circle class="dot" cx="207.88732394366198" cy="332.44444444444446" r="3" fill="#2563eb"></circle><circle class="dot" cx="210.42253521126761" cy="332.44444444444446" r="3" fill="#2563eb"></circle><circle class="dot" cx="212.95774647887325" cy="332.44444444444446" r="3" fill="#2563eb"></circle><circle class="dot" cx="215.49295774647888" cy="332.44444444444446" r="3" fill="#2563eb"></circle><circle class="dot" cx="218.02816901408448" cy="332.44444444444446" r="3" fill="#2563eb"></circle><circle class="dot" cx="220.56338028169012" cy="332.44444444444446" r="3" fill="#2563eb"></circle><circle class="dot" cx="223.09859154929575" cy="332.44444444444446" r="3" fill="#2563eb"></circle><circle class="dot" cx="225.63380281690144" cy="332.44444444444446" r="3" fill="#2563eb"></circle><circle class="dot" cx="228.16901408450707" cy="332.44444444444446" r="3" fill="#2563eb"></circle><circle class="dot" cx="230.7042253521127" cy="332.44444444444446" r="3" fill="#2563eb"></circle><circle class="dot" cx="233.23943661971833" cy="332.44444444444446" r="3" fill="#2563eb"></circle><circle class="dot" cx="235.77464788732394" cy="332.44444444444446" r="3" fill="#2563eb"></circle><circle class="dot" cx="238.30985915492957" cy="332.44444444444446" r="3" fill="#2563eb"></circle><circle class="dot" cx="245.91549295774647" cy="332.44444444444446" r="3" fill="#2563eb"></circle><circle class="dot" cx="248.4507042253521" cy="52.88888888888889" r="3" fill="#2563eb"></circle><circle class="dot" cx="250.98591549295773" cy="332.44444444444446" r="3" fill="#2563eb"></circle><circle class="dot" cx="253.52112676056336" cy="332.44444444444446" r="3" fill="#2563eb"></circle><circle class="dot" cx="256.056338028169" cy="332.44444444444446" r="3" fill="#2563eb"></circle><circle class="dot" cx="258.59154929577466" cy="68.00000000000003" r="3" fill="#2563eb"></circle><circle class="dot" cx="261.1267605633803" cy="98.22222222222221" r="3" fill="#2563eb"></circle><circle class="dot" cx="263.6619718309859" cy="332.44444444444446" r="3" fill="#2563eb"></circle><circle class="dot" cx="266.19718309859155" cy="332.44444444444446" r="3" fill="#2563eb"></circle><circle class="dot" cx="268.7323943661972" cy="332.44444444444446" r="3" fill="#2563eb"></circle><circle class="dot" cx="271.2676056338028" cy="332.44444444444446" r="3" fill="#2563eb"></circle><circle class="dot" cx="273.80281690140845" cy="332.44444444444446" r="3" fill="#2563eb"></circle><circle class="dot" cx="276.3380281690141" cy="332.44444444444446" r="3" fill="#2563eb"></circle><circle class="dot" cx="278.8732394366197" cy="332.44444444444446" r="3" fill="#2563eb"></circle><circle class="dot" cx="281.40845070422534" cy="332.44444444444446" r="3" fill="#2563eb"></circle><circle class="dot" cx="283.943661971831" cy="332.44444444444446" r="3" fill="#2563eb"></circle><circle class="dot" cx="286.47887323943667" cy="332.44444444444446" r="3" fill="#2563eb"></circle><circle class="dot" cx="289.01408450704224" cy="332.44444444444446" r="3" fill="#2563eb"></circle><circle class="dot" cx="291.5492957746479" cy="332.44444444444446" r="3" fill="#2563eb"></circle><circle class="dot" cx="294.0845070422535" cy="332.44444444444446" r="3" fill="#2563eb"></circle><circle class="dot" cx="296.61971830985914" cy="332.44444444444446" r="3" fill="#2563eb"></circle><circle class="dot" cx="299.15492957746477" cy="332.44444444444446" r="3" fill="#2563eb"></circle><circle class="dot" cx="306.76056338028167" cy="332.44444444444446" r="3" fill="#2563eb"></circle><circle class="dot" cx="309.2957746478873" cy="332.44444444444446" r="3" fill="#2563eb"></circle><circle class="dot" cx="311.83098591549293" cy="332.44444444444446" r="3" fill="#2563eb"></circle><circle class="dot" cx="314.36619718309856" cy="332.44444444444446" r="3" fill="#2563eb"></circle><circle class="dot" cx="316.90140845070425" cy="332.44444444444446" r="3" fill="#2563eb"></circle><circle class="dot" cx="319.4366197183099" cy="332.44444444444446" r="3" fill="#2563eb"></circle><circle class="dot" cx="321.9718309859155" cy="332.44444444444446" r="3" fill="#2563eb"></circle><circle class="dot" cx="324.50704225352115" cy="332.44444444444446" r="3" fill="#2563eb"></circle><circle class="dot" cx="327.0422535211268" cy="332.44444444444446" r="3" fill="#2563eb"></circle><circle class="dot" cx="329.5774647887324" cy="332.44444444444446" r="3" fill="#2563eb"></circle><circle class="dot" cx="332.11267605633805" cy="332.44444444444446" r="3" fill="#2563eb"></circle><circle class="dot" cx="334.6478873239437" cy="332.44444444444446" r="3" fill="#2563eb"></circle><circle class="dot" cx="337.1830985915493" cy="332.44444444444446" r="3" fill="#2563eb"></circle><circle class="dot" cx="339.71830985915494" cy="332.44444444444446" r="3" fill="#2563eb"></circle><circle class="dot" cx="342.2535211267606" cy="332.44444444444446" r="3" fill="#2563eb"></circle><circle class="dot" cx="344.78873239436615" cy="332.44444444444446" r="3" fill="#2563eb"></circle><circle class="dot" cx="347.32394366197184" cy="332.44444444444446" r="3" fill="#2563eb"></circle><circle class="dot" cx="349.85915492957747" cy="332.44444444444446" r="3" fill="#2563eb"></circle><circle class="dot" cx="352.3943661971831" cy="332.44444444444446" r="3" fill="#2563eb"></circle><circle class="dot" cx="354.92957746478874" cy="332.44444444444446" r="3" fill="#2563eb"></circle><circle class="dot" cx="357.46478873239437" cy="332.44444444444446" r="3" fill="#2563eb"></circle><circle class="dot" cx="360" cy="332.44444444444446" r="3" fill="#2563eb"></circle><circle class="dot" cx="367.6056338028169" cy="332.44444444444446" r="3" fill="#2563eb"></circle><circle class="dot" cx="370.14084507042253" cy="332.44444444444446" r="3" fill="#2563eb"></circle><circle class="dot" cx="372.67605633802816" cy="332.44444444444446" r="3" fill="#2563eb"></circle><circle class="dot" cx="375.2112676056338" cy="332.44444444444446" r="3" fill="#2563eb"></circle><circle class="dot" cx="377.7464788732394" cy="332.44444444444446" r="3" fill="#2563eb"></circle><circle class="dot" cx="380.28169014084506" cy="332.44444444444446" r="3" fill="#2563eb"></circle><circle class="dot" cx="382.8169014084507" cy="332.44444444444446" r="3" fill="#2563eb"></circle><circle class="dot" cx="385.3521126760563" cy="332.44444444444446" r="3" fill="#2563eb"></circle><circle class="dot" cx="387.88732394366195" cy="332.44444444444446" r="3" fill="#2563eb"></circle><circle class="dot" cx="390.42253521126764" cy="332.44444444444446" r="3" fill="#2563eb"></circle><circle class="dot" cx="392.9577464788733" cy="332.44444444444446" r="3" fill="#2563eb"></circle><circle class="dot" cx="395.4929577464789" cy="332.44444444444446" r="3" fill="#2563eb"></circle><circle class="dot" cx="398.02816901408454" cy="332.44444444444446" r="3" fill="#2563eb"></circle><circle class="dot" cx="400.5633802816902" cy="332.44444444444446" r="3" fill="#2563eb"></circle><circle class="dot" cx="403.0985915492958" cy="332.44444444444446" r="3" fill="#2563eb"></circle><circle class="dot" cx="405.63380281690144" cy="332.44444444444446" r="3" fill="#2563eb"></circle><circle class="dot" cx="408.16901408450707" cy="332.44444444444446" r="3" fill="#2563eb"></circle><circle class="dot" cx="410.7042253521127" cy="332.44444444444446" r="3" fill="#2563eb"></circle><circle class="dot" cx="413.23943661971833" cy="332.44444444444446" r="3" fill="#2563eb"></circle><circle class="dot" cx="415.77464788732397" cy="332.44444444444446" r="3" fill="#2563eb"></circle><circle class="dot" cx="418.3098591549296" cy="332.44444444444446" r="3" fill="#2563eb"></circle><circle class="dot" cx="420.84507042253523" cy="332.44444444444446" r="3" fill="#2563eb"></circle><circle class="dot" cx="428.4507042253521" cy="332.44444444444446" r="3" fill="#2563eb"></circle><circle class="dot" cx="430.98591549295776" cy="332.44444444444446" r="3" fill="#2563eb"></circle><circle class="dot" cx="433.52112676056333" cy="332.44444444444446" r="3" fill="#2563eb"></circle><circle class="dot" cx="436.05633802816897" cy="332.44444444444446" r="3" fill="#2563eb"></circle><circle class="dot" cx="438.5915492957746" cy="332.44444444444446" r="3" fill="#2563eb"></circle><circle class="dot" cx="441.12676056338023" cy="332.44444444444446" r="3" fill="#2563eb"></circle><circle class="dot" cx="443.66197183098586" cy="332.44444444444446" r="3" fill="#2563eb"></circle><circle class="dot" cx="446.1971830985915" cy="332.44444444444446" r="3" fill="#2563eb"></circle><circle class="dot" cx="448.7323943661971" cy="332.44444444444446" r="3" fill="#2563eb"></circle><circle class="dot" cx="451.2676056338029" cy="332.44444444444446" r="3" fill="#2563eb"></circle><circle class="dot" cx="453.8028169014085" cy="332.44444444444446" r="3" fill="#2563eb"></circle><circle class="dot" cx="456.33802816901414" cy="332.44444444444446" r="3" fill="#2563eb"></circle><circle class="dot" cx="458.87323943661977" cy="332.44444444444446" r="3" fill="#2563eb"></circle><circle class="dot" cx="461.4084507042254" cy="332.44444444444446" r="3" fill="#2563eb"></circle><circle class="dot" cx="463.94366197183103" cy="332.44444444444446" r="3" fill="#2563eb"></circle><circle class="dot" cx="466.47887323943667" cy="332.44444444444446" r="3" fill="#2563eb"></circle><circle class="dot" cx="469.01408450704224" cy="332.44444444444446" r="3" fill="#2563eb"></circle><circle class="dot" cx="471.5492957746479" cy="332.44444444444446" r="3" fill="#2563eb"></circle><circle class="dot" cx="474.0845070422535" cy="332.44444444444446" r="3" fill="#2563eb"></circle><circle class="dot" cx="476.61971830985914" cy="332.44444444444446" r="3" fill="#2563eb"></circle><circle class="dot" cx="479.15492957746477" cy="332.44444444444446" r="3" fill="#2563eb"></circle><circle class="dot" cx="481.6901408450704" cy="332.44444444444446" r="3" fill="#2563eb"></circle><circle class="dot" cx="489.2957746478873" cy="332.44444444444446" r="3" fill="#2563eb"></circle><circle class="dot" cx="494.36619718309856" cy="332.44444444444446" r="3" fill="#2563eb"></circle><circle class="dot" cx="496.9014084507042" cy="332.44444444444446" r="3" fill="#2563eb"></circle><circle class="dot" cx="499.4366197183098" cy="332.44444444444446" r="3" fill="#2563eb"></circle><circle class="dot" cx="501.97183098591546" cy="332.44444444444446" r="3" fill="#2563eb"></circle><circle class="dot" cx="504.5070422535211" cy="332.44444444444446" r="3" fill="#2563eb"></circle><circle class="dot" cx="507.0422535211267" cy="332.44444444444446" r="3" fill="#2563eb"></circle><circle class="dot" cx="509.57746478873236" cy="332.44444444444446" r="3" fill="#2563eb"></circle><circle class="dot" cx="512.112676056338" cy="332.44444444444446" r="3" fill="#2563eb"></circle><circle class="dot" cx="514.6478873239437" cy="332.44444444444446" r="3" fill="#2563eb"></circle><circle class="dot" cx="517.1830985915493" cy="332.44444444444446" r="3" fill="#2563eb"></circle><circle class="dot" cx="519.7183098591549" cy="332.44444444444446" r="3" fill="#2563eb"></circle><circle class="dot" cx="522.2535211267606" cy="332.44444444444446" r="3" fill="#2563eb"></circle><circle class="dot" cx="524.7887323943662" cy="332.44444444444446" r="3" fill="#2563eb"></circle><circle class="dot" cx="527.3239436619718" cy="332.44444444444446" r="3" fill="#2563eb"></circle><circle class="dot" cx="529.8591549295775" cy="332.44444444444446" r="3" fill="#2563eb"></circle><circle class="dot" cx="532.3943661971831" cy="332.44444444444446" r="3" fill="#2563eb"></circle><circle class="dot" cx="534.9295774647887" cy="332.44444444444446" r="3" fill="#2563eb"></circle><circle class="dot" cx="537.4647887323944" cy="332.44444444444446" r="3" fill="#2563eb"></circle><circle class="dot" cx="540" cy="332.44444444444446" r="3" fill="#2563eb"></circle><circle class="dot" cx="542.5352112676056" cy="332.44444444444446" r="3" fill="#2563eb"></circle><circle class="dot" cx="550.1408450704225" cy="332.44444444444446" r="3" fill="#2563eb"></circle><circle class="dot" cx="552.6760563380282" cy="332.44444444444446" r="3" fill="#2563eb"></circle><circle class="dot" cx="555.2112676056338" cy="332.44444444444446" r="3" fill="#2563eb"></circle><circle class="dot" cx="557.7464788732394" cy="332.44444444444446" r="3" fill="#2563eb"></circle><circle class="dot" cx="560.2816901408451" cy="332.44444444444446" r="3" fill="#2563eb"></circle><circle class="dot" cx="562.8169014084507" cy="332.44444444444446" r="3" fill="#2563eb"></circle><circle class="dot" cx="565.3521126760563" cy="332.44444444444446" r="3" fill="#2563eb"></circle><circle class="dot" cx="567.887323943662" cy="332.44444444444446" r="3" fill="#2563eb"></circle><circle class="dot" cx="570.4225352112677" cy="332.44444444444446" r="3" fill="#2563eb"></circle><circle class="dot" cx="572.9577464788733" cy="332.44444444444446" r="3" fill="#2563eb"></circle><circle class="dot" cx="575.4929577464789" cy="332.44444444444446" r="3" fill="#2563eb"></circle><circle class="dot" cx="578.0281690140845" cy="332.44444444444446" r="3" fill="#2563eb"></circle><circle class="dot" cx="580.5633802816901" cy="332.44444444444446" r="3" fill="#2563eb"></circle><circle class="dot" cx="583.0985915492957" cy="332.44444444444446" r="3" fill="#2563eb"></circle><circle class="dot" cx="585.6338028169014" cy="332.44444444444446" r="3" fill="#2563eb"></circle><circle class="dot" cx="588.169014084507" cy="332.44444444444446" r="3" fill="#2563eb"></circle><circle class="dot" cx="590.7042253521126" cy="332.44444444444446" r="3" fill="#2563eb"></circle><circle class="dot" cx="593.2394366197183" cy="332.44444444444446" r="3" fill="#2563eb"></circle><circle class="dot" cx="595.7746478873239" cy="332.44444444444446" r="3" fill="#2563eb"></circle><circle class="dot" cx="598.3098591549295" cy="332.44444444444446" r="3" fill="#2563eb"></circle><circle class="dot" cx="600.8450704225352" cy="332.44444444444446" r="3" fill="#2563eb"></circle><circle class="dot" cx="603.3802816901408" cy="332.44444444444446" r="3" fill="#2563eb"></circle><circle class="dot" cx="610.9859154929577" cy="332.44444444444446" r="3" fill="#2563eb"></circle><circle class="dot" cx="613.5211267605633" cy="332.44444444444446" r="3" fill="#2563eb"></circle><circle class="dot" cx="616.056338028169" cy="332.44444444444446" r="3" fill="#2563eb"></circle><circle class="dot" cx="618.5915492957746" cy="332.44444444444446" r="3" fill="#2563eb"></circle><circle class="dot" cx="621.1267605633802" cy="332.44444444444446" r="3" fill="#2563eb"></circle><circle class="dot" cx="623.6619718309859" cy="332.44444444444446" r="3" fill="#2563eb"></circle><circle class="dot" cx="626.1971830985915" cy="332.44444444444446" r="3" fill="#2563eb"></circle><circle class="dot" cx="628.7323943661971" cy="332.44444444444446" r="3" fill="#2563eb"></circle><circle class="dot" cx="631.2676056338029" cy="332.44444444444446" r="3" fill="#2563eb"></circle><circle class="dot" cx="633.8028169014085" cy="332.44444444444446" r="3" fill="#2563eb"></circle><circle class="dot" cx="636.3380281690141" cy="332.44444444444446" r="3" fill="#2563eb"></circle><circle class="dot" cx="638.8732394366198" cy="340" r="3" fill="#2563eb"></circle><circle class="dot" cx="641.4084507042254" cy="340" r="3" fill="#2563eb"></circle><circle class="dot" cx="643.943661971831" cy="340" r="3" fill="#2563eb"></circle><circle class="dot" cx="646.4788732394367" cy="340" r="3" fill="#2563eb"></circle><circle class="dot" cx="649.0140845070423" cy="340" r="3" fill="#2563eb"></circle><circle class="dot" cx="651.5492957746479" cy="340" r="3" fill="#2563eb"></circle><circle class="dot" cx="654.0845070422536" cy="340" r="3" fill="#2563eb"></circle><circle class="dot" cx="656.6197183098592" cy="340" r="3" fill="#2563eb"></circle><circle class="dot" cx="659.1549295774648" cy="340" r="3" fill="#2563eb"></circle><circle class="dot" cx="661.6901408450705" cy="340" r="3" fill="#2563eb"></circle><circle class="dot" cx="664.2253521126761" cy="340" r="3" fill="#2563eb"></circle><circle class="dot" cx="671.830985915493" cy="340" r="3" fill="#2563eb"></circle><circle class="dot" cx="674.3661971830986" cy="340" r="3" fill="#2563eb"></circle><circle class="dot" cx="676.9014084507043" cy="340" r="3" fill="#2563eb"></circle><circle class="dot" cx="679.4366197183099" cy="340" r="3" fill="#2563eb"></circle><circle class="dot" cx="681.9718309859155" cy="340" r="3" fill="#2563eb"></circle><circle class="dot" cx="684.5070422535211" cy="340" r="3" fill="#2563eb"></circle><circle class="dot" cx="687.0422535211267" cy="340" r="3" fill="#2563eb"></circle><circle class="dot" cx="689.5774647887323" cy="340" r="3" fill="#2563eb"></circle><circle class="dot" cx="692.112676056338" cy="340" r="3" fill="#2563eb"></circle><circle class="dot" cx="694.6478873239437" cy="340" r="3" fill="#2563eb"></circle><circle class="dot" cx="697.1830985915493" cy="340" r="3" fill="#2563eb"></circle><circle class="dot" cx="699.7183098591549" cy="340" r="3" fill="#2563eb"></circle><circle class="dot" cx="702.2535211267606" cy="340" r="3" fill="#2563eb"></circle><circle class="dot" cx="704.7887323943662" cy="340" r="3" fill="#2563eb"></circle><circle class="dot" cx="707.3239436619718" cy="340" r="3" fill="#2563eb"></circle><circle class="dot" cx="712.3943661971831" cy="340" r="3" fill="#2563eb"></circle><circle class="dot" cx="714.9295774647887" cy="340" r="3" fill="#2563eb"></circle><circle class="dot" cx="717.4647887323944" cy="340" r="3" fill="#2563eb"></circle><circle class="dot" cx="720" cy="340" r="3" fill="#2563eb"></circle><g class="grid" transform="translate(0,340)" fill="none" font-size="10" font-family="sans-serif" text-anchor="middle" style="stroke-dasharray: 3,3; opacity: 0.3;"><path class="domain" stroke="currentColor" d="M0.5,-340V0.5H720.5V-340"></path><g class="tick" opacity="1" transform="translate(58.80985915492958,0)"><line stroke="currentColor" y2="-340"></line><text fill="currentColor" y="3" dy="0.71em"></text></g><g class="tick" opacity="1" transform="translate(119.65492957746478,0)"><line stroke="currentColor" y2="-340"></line><text fill="currentColor" y="3" dy="0.71em"></text></g><g class="tick" opacity="1" transform="translate(180.5,0)"><line stroke="currentColor" y2="-340"></line><text fill="currentColor" y="3" dy="0.71em"></text></g><g class="tick" opacity="1" transform="translate(241.3450704225352,0)"><line stroke="currentColor" y2="-340"></line><text fill="currentColor" y="3" dy="0.71em"></text></g><g class="tick" opacity="1" transform="translate(302.1901408450704,0)"><line stroke="currentColor" y2="-340"></line><text fill="currentColor" y="3" dy="0.71em"></text></g><g class="tick" opacity="1" transform="translate(363.03521126760563,0)"><line stroke="currentColor" y2="-340"></line><text fill="currentColor" y="3" dy="0.71em"></text></g><g class="tick" opacity="1" transform="translate(423.88028169014086,0)"><line stroke="currentColor" y2="-340"></line><text fill="currentColor" y="3" dy="0.71em"></text></g><g class="tick" opacity="1" transform="translate(484.72535211267603,0)"><line stroke="currentColor" y2="-340"></line><text fill="currentColor" y="3" dy="0.71em"></text></g><g class="tick" opacity="1" transform="translate(545.5704225352113,0)"><line stroke="currentColor" y2="-340"></line><text fill="currentColor" y="3" dy="0.71em"></text></g><g class="tick" opacity="1" transform="translate(606.4154929577464,0)"><line stroke="currentColor" y2="-340"></line><text fill="currentColor" y="3" dy="0.71em"></text></g><g class="tick" opacity="1" transform="translate(667.2605633802817,0)"><line stroke="currentColor" y2="-340"></line><text fill="currentColor" y="3" dy="0.71em"></text></g></g><g class="grid" fill="none" font-size="10" font-family="sans-serif" text-anchor="end" style="stroke-dasharray: 3,3; opacity: 0.3;"><path class="domain" stroke="currentColor" d="M720,340.5H0.5V0.5H720"></path><g class="tick" opacity="1" transform="translate(0,340.5)"><line stroke="currentColor" x2="720"></line><text fill="currentColor" x="-3" dy="0.32em"></text></g><g class="tick" opacity="1" transform="translate(0,302.72222222222223)"><line stroke="currentColor" x2="720"></line><text fill="currentColor" x="-3" dy="0.32em"></text></g><g class="tick" opacity="1" transform="translate(0,264.94444444444446)"><line stroke="currentColor" x2="720"></line><text fill="currentColor" x="-3" dy="0.32em"></text></g><g class="tick" opacity="1" transform="translate(0,227.16666666666666)"><line stroke="currentColor" x2="720"></line><text fill="currentColor" x="-3" dy="0.32em"></text></g><g class="tick" opacity="1" transform="translate(0,189.38888888888889)"><line stroke="currentColor" x2="720"></line><text fill="currentColor" x="-3" dy="0.32em"></text></g><g class="tick" opacity="1" transform="translate(0,151.61111111111111)"><line stroke="currentColor" x2="720"></line><text fill="currentColor" x="-3" dy="0.32em"></text></g><g class="tick" opacity="1" transform="translate(0,113.83333333333334)"><line stroke="currentColor" x2="720"></line><text fill="currentColor" x="-3" dy="0.32em"></text></g><g class="tick" opacity="1" transform="translate(0,76.05555555555556)"><line stroke="currentColor" x2="720"></line><text fill="currentColor" x="-3" dy="0.32em"></text></g><g class="tick" opacity="1" transform="translate(0,38.27777777777776)"><line stroke="currentColor" x2="720"></line><text fill="currentColor" x="-3" dy="0.32em"></text></g><g class="tick" opacity="1" transform="translate(0,0.5)"><line stroke="currentColor" x2="720"></line><text fill="currentColor" x="-3" dy="0.32em"></text></g></g></g><text x="400" y="10" text-anchor="middle" style="font-size: 16px; font-weight: bold; fill: #333;">OKX USDT Lending Rate - Current Month</text></svg>