<svg width="800" height="400" xmlns="http://www.w3.org/2000/svg"><g transform="translate(50,20)"><g transform="translate(0,340)" fill="none" font-size="10" font-family="sans-serif" text-anchor="middle"><path class="domain" stroke="currentColor" d="M0.5,6V0.5H720.5V6"></path><g class="tick" opacity="1" transform="translate(0.5,0)"><line stroke="currentColor" y2="6"></line><text fill="currentColor" y="9" dy=".15em" style="text-anchor: end;" dx="-.8em" transform="rotate(-45)">01/01</text></g><g class="tick" opacity="1" transform="translate(24.566852367688025,0)"><line stroke="currentColor" y2="6"></line><text fill="currentColor" y="9" dy=".15em" style="text-anchor: end;" dx="-.8em" transform="rotate(-45)">01/02</text></g><g class="tick" opacity="1" transform="translate(48.63370473537605,0)"><line stroke="currentColor" y2="6"></line><text fill="currentColor" y="9" dy=".15em" style="text-anchor: end;" dx="-.8em" transform="rotate(-45)">01/03</text></g><g class="tick" opacity="1" transform="translate(72.70055710306407,0)"><line stroke="currentColor" y2="6"></line><text fill="currentColor" y="9" dy=".15em" style="text-anchor: end;" dx="-.8em" transform="rotate(-45)">01/04</text></g><g class="tick" opacity="1" transform="translate(96.7674094707521,0)"><line stroke="currentColor" y2="6"></line><text fill="currentColor" y="9" dy=".15em" style="text-anchor: end;" dx="-.8em" transform="rotate(-45)">01/05</text></g><g class="tick" opacity="1" transform="translate(120.83426183844011,0)"><line stroke="currentColor" y2="6"></line><text fill="currentColor" y="9" dy=".15em" style="text-anchor: end;" dx="-.8em" transform="rotate(-45)">01/06</text></g><g class="tick" opacity="1" transform="translate(144.90111420612814,0)"><line stroke="currentColor" y2="6"></line><text fill="currentColor" y="9" dy=".15em" style="text-anchor: end;" dx="-.8em" transform="rotate(-45)">01/07</text></g><g class="tick" opacity="1" transform="translate(168.96796657381614,0)"><line stroke="currentColor" y2="6"></line><text fill="currentColor" y="9" dy=".15em" style="text-anchor: end;" dx="-.8em" transform="rotate(-45)">01/08</text></g><g class="tick" opacity="1" transform="translate(193.0348189415042,0)"><line stroke="currentColor" y2="6"></line><text fill="currentColor" y="9" dy=".15em" style="text-anchor: end;" dx="-.8em" transform="rotate(-45)">01/09</text></g><g class="tick" opacity="1" transform="translate(217.1016713091922,0)"><line stroke="currentColor" y2="6"></line><text fill="currentColor" y="9" dy=".15em" style="text-anchor: end;" dx="-.8em" transform="rotate(-45)">01/10</text></g><g class="tick" opacity="1" transform="translate(241.16852367688023,0)"><line stroke="currentColor" y2="6"></line><text fill="currentColor" y="9" dy=".15em" style="text-anchor: end;" dx="-.8em" transform="rotate(-45)">01/11</text></g><g class="tick" opacity="1" transform="translate(265.2353760445682,0)"><line stroke="currentColor" y2="6"></line><text fill="currentColor" y="9" dy=".15em" style="text-anchor: end;" dx="-.8em" transform="rotate(-45)">01/12</text></g><g class="tick" opacity="1" transform="translate(289.3022284122563,0)"><line stroke="currentColor" y2="6"></line><text fill="currentColor" y="9" dy=".15em" style="text-anchor: end;" dx="-.8em" transform="rotate(-45)">01/13</text></g><g class="tick" opacity="1" transform="translate(313.3690807799443,0)"><line stroke="currentColor" y2="6"></line><text fill="currentColor" y="9" dy=".15em" style="text-anchor: end;" dx="-.8em" transform="rotate(-45)">01/14</text></g><g class="tick" opacity="1" transform="translate(337.4359331476323,0)"><line stroke="currentColor" y2="6"></line><text fill="currentColor" y="9" dy=".15em" style="text-anchor: end;" dx="-.8em" transform="rotate(-45)">01/15</text></g><g class="tick" opacity="1" transform="translate(361.50278551532034,0)"><line stroke="currentColor" y2="6"></line><text fill="currentColor" y="9" dy=".15em" style="text-anchor: end;" dx="-.8em" transform="rotate(-45)">01/16</text></g><g class="tick" opacity="1" transform="translate(385.5696378830084,0)"><line stroke="currentColor" y2="6"></line><text fill="currentColor" y="9" dy=".15em" style="text-anchor: end;" dx="-.8em" transform="rotate(-45)">01/17</text></g><g class="tick" opacity="1" transform="translate(409.63649025069634,0)"><line stroke="currentColor" y2="6"></line><text fill="currentColor" y="9" dy=".15em" style="text-anchor: end;" dx="-.8em" transform="rotate(-45)">01/18</text></g><g class="tick" opacity="1" transform="translate(433.7033426183844,0)"><line stroke="currentColor" y2="6"></line><text fill="currentColor" y="9" dy=".15em" style="text-anchor: end;" dx="-.8em" transform="rotate(-45)">01/19</text></g><g class="tick" opacity="1" transform="translate(457.7701949860724,0)"><line stroke="currentColor" y2="6"></line><text fill="currentColor" y="9" dy=".15em" style="text-anchor: end;" dx="-.8em" transform="rotate(-45)">01/20</text></g><g class="tick" opacity="1" transform="translate(481.83704735376045,0)"><line stroke="currentColor" y2="6"></line><text fill="currentColor" y="9" dy=".15em" style="text-anchor: end;" dx="-.8em" transform="rotate(-45)">01/21</text></g><g class="tick" opacity="1" transform="translate(505.90389972144845,0)"><line stroke="currentColor" y2="6"></line><text fill="currentColor" y="9" dy=".15em" style="text-anchor: end;" dx="-.8em" transform="rotate(-45)">01/22</text></g><g class="tick" opacity="1" transform="translate(529.9707520891365,0)"><line stroke="currentColor" y2="6"></line><text fill="currentColor" y="9" dy=".15em" style="text-anchor: end;" dx="-.8em" transform="rotate(-45)">01/23</text></g><g class="tick" opacity="1" transform="translate(554.0376044568245,0)"><line stroke="currentColor" y2="6"></line><text fill="currentColor" y="9" dy=".15em" style="text-anchor: end;" dx="-.8em" transform="rotate(-45)">01/24</text></g><g class="tick" opacity="1" transform="translate(578.1044568245126,0)"><line stroke="currentColor" y2="6"></line><text fill="currentColor" y="9" dy=".15em" style="text-anchor: end;" dx="-.8em" transform="rotate(-45)">01/25</text></g><g class="tick" opacity="1" transform="translate(602.1713091922006,0)"><line stroke="currentColor" y2="6"></line><text fill="currentColor" y="9" dy=".15em" style="text-anchor: end;" dx="-.8em" transform="rotate(-45)">01/26</text></g><g class="tick" opacity="1" transform="translate(626.2381615598886,0)"><line stroke="currentColor" y2="6"></line><text fill="currentColor" y="9" dy=".15em" style="text-anchor: end;" dx="-.8em" transform="rotate(-45)">01/27</text></g><g class="tick" opacity="1" transform="translate(650.3050139275766,0)"><line stroke="currentColor" y2="6"></line><text fill="currentColor" y="9" dy=".15em" style="text-anchor: end;" dx="-.8em" transform="rotate(-45)">01/28</text></g><g class="tick" opacity="1" transform="translate(674.3718662952646,0)"><line stroke="currentColor" y2="6"></line><text fill="currentColor" y="9" dy=".15em" style="text-anchor: end;" dx="-.8em" transform="rotate(-45)">01/29</text></g><g class="tick" opacity="1" transform="translate(698.4387186629526,0)"><line stroke="currentColor" y2="6"></line><text fill="currentColor" y="9" dy=".15em" style="text-anchor: end;" dx="-.8em" transform="rotate(-45)">01/30</text></g></g><g fill="none" font-size="10" font-family="sans-serif" text-anchor="end"><path class="domain" stroke="currentColor" d="M-6,340.5H0.5V0.5H-6"></path><g class="tick" opacity="1" transform="translate(0,340.5)"><line stroke="currentColor" x2="-6"></line><text fill="currentColor" x="-9" dy="0.32em">3.20%</text></g><g class="tick" opacity="1" transform="translate(0,312.16666666666663)"><line stroke="currentColor" x2="-6"></line><text fill="currentColor" x="-9" dy="0.32em">3.25%</text></g><g class="tick" opacity="1" transform="translate(0,283.83333333333326)"><line stroke="currentColor" x2="-6"></line><text fill="currentColor" x="-9" dy="0.32em">3.30%</text></g><g class="tick" opacity="1" transform="translate(0,255.49999999999991)"><line stroke="currentColor" x2="-6"></line><text fill="currentColor" x="-9" dy="0.32em">3.35%</text></g><g class="tick" opacity="1" transform="translate(0,227.16666666666654)"><line stroke="currentColor" x2="-6"></line><text fill="currentColor" x="-9" dy="0.32em">3.40%</text></g><g class="tick" opacity="1" transform="translate(0,198.83333333333314)"><line stroke="currentColor" x2="-6"></line><text fill="currentColor" x="-9" dy="0.32em">3.45%</text></g><g class="tick" opacity="1" transform="translate(0,170.4999999999998)"><line stroke="currentColor" x2="-6"></line><text fill="currentColor" x="-9" dy="0.32em">3.50%</text></g><g class="tick" opacity="1" transform="translate(0,142.16666666666686)"><line stroke="currentColor" x2="-6"></line><text fill="currentColor" x="-9" dy="0.32em">3.55%</text></g><g class="tick" opacity="1" transform="translate(0,113.83333333333346)"><line stroke="currentColor" x2="-6"></line><text fill="currentColor" x="-9" dy="0.32em">3.60%</text></g><g class="tick" opacity="1" transform="translate(0,85.50000000000011)"><line stroke="currentColor" x2="-6"></line><text fill="currentColor" x="-9" dy="0.32em">3.65%</text></g><g class="tick" opacity="1" transform="translate(0,57.16666666666673)"><line stroke="currentColor" x2="-6"></line><text fill="currentColor" x="-9" dy="0.32em">3.70%</text></g><g class="tick" opacity="1" transform="translate(0,28.833333333333385)"><line stroke="currentColor" x2="-6"></line><text fill="currentColor" x="-9" dy="0.32em">3.75%</text></g><g class="tick" opacity="1" transform="translate(0,0.5)"><line stroke="currentColor" x2="-6"></line><text fill="currentColor" x="-9" dy="0.32em">3.80%</text></g></g><text transform="rotate(-90)" y="-50" x="-170" dy="1em" style="text-anchor: middle; font-size: 12px; fill: #666;">Pre Rate (%)</text><text transform="translate(360, 380)" style="text-anchor: middle; font-size: 12px; fill: #666;">Time (UTC)</text><path fill="none" stroke="#2563eb" stroke-width="2" d="M0,340C0.334,340,0.669,340,1.003,340C1.337,340,1.671,340,2.006,340C2.34,340,2.674,340,3.008,340C3.343,340,3.677,340,4.011,340C4.345,340,4.68,340,5.014,340C5.348,340,5.682,340,6.017,340C6.351,340,6.685,340,7.019,340C7.354,340,7.688,340,8.022,340C8.357,340,8.691,340,9.025,340C9.359,340,9.694,340,10.028,340C10.362,340,10.696,340,11.031,340C11.365,340,11.699,340,12.033,340C12.368,340,12.702,340,13.036,340C13.37,340,13.705,340,14.039,340C14.373,340,14.708,340,15.042,340C15.376,340,15.71,340,16.045,340C16.379,340,16.713,340,17.047,340C17.382,340,17.716,340,18.05,340C18.384,340,18.719,340,19.053,340C19.387,340,19.721,340,20.056,340C20.39,340,20.724,340,21.058,340C21.393,340,21.727,340,22.061,340C22.396,340,22.73,340,23.064,340C23.398,340,23.733,340,24.067,340C24.401,340,24.735,340,25.07,340C25.404,340,25.738,340,26.072,340C26.407,340,26.741,340,27.075,340C27.409,340,27.744,340,28.078,340C28.412,340,28.747,340,29.081,340C29.415,340,29.749,340,30.084,340C30.418,340,30.752,340,31.086,340C31.421,340,31.755,340,32.089,340C32.423,340,32.758,340,33.092,340C33.426,340,33.76,340,34.095,340C34.429,340,34.763,340,35.097,340C35.432,340,35.766,340,36.1,340C36.435,340,36.769,340,37.103,340C37.437,340,37.772,340,38.106,340C38.44,340,38.774,340,39.109,340C39.443,340,39.777,340,40.111,340C40.446,340,40.78,340,41.114,340C41.448,340,41.783,340,42.117,340C42.451,340,42.786,340,43.12,340C43.454,340,43.788,340,44.123,340C44.457,340,44.791,340,45.125,340C45.46,340,45.794,340,46.128,340C46.462,340,46.797,340,47.131,340C47.465,340,47.799,340,48.134,340C48.468,340,48.802,340,49.136,340C49.471,340,49.805,340,50.139,340C50.474,340,50.808,340,51.142,340C51.476,340,51.811,340,52.145,340C52.479,340,52.813,340,53.148,340C53.482,340,53.816,340,54.15,340C54.485,340,54.819,340,55.153,340C55.487,340,55.822,340,56.156,340C56.49,340,56.825,340,57.159,340C57.493,340,57.827,340,58.162,340C58.496,340,58.83,340,59.164,340C59.499,340,59.833,340,60.167,340C60.501,340,60.836,340,61.17,340C61.504,340,61.838,340,62.173,340C62.507,340,62.841,340,63.175,340C63.51,340,63.844,340,64.178,340C64.513,340,64.847,340,65.181,340C65.515,340,65.85,340,66.184,340C66.518,340,66.852,340,67.187,340C67.521,340,67.855,340,68.189,340C68.524,340,68.858,340,69.192,340C69.526,340,69.861,340,70.195,340C70.529,340,70.864,340,71.198,340C71.532,340,71.866,340,72.201,340C72.535,340,72.869,340,73.203,340C73.538,340,73.872,340,74.206,340C74.54,340,74.875,340,75.209,340C75.543,340,75.877,340,76.212,340C76.546,340,76.88,340,77.214,340C77.549,340,77.883,340,78.217,340C78.552,340,78.886,340,79.22,340C79.554,340,79.889,340,80.223,340C80.557,340,80.891,340,81.226,340C81.56,340,81.894,340,82.228,340C82.563,340,82.897,340,83.231,340C83.565,340,83.9,340,84.234,340C84.568,340,84.903,340,85.237,340C85.571,340,85.905,340,86.24,340C86.574,340,86.908,340,87.242,340C87.577,340,87.911,340,88.245,340C88.579,340,88.914,340,89.248,340C89.582,340,89.916,340,90.251,340C90.585,340,90.919,340,91.253,340C91.588,340,91.922,340,92.256,340C92.591,340,92.925,340,93.259,340C93.593,340,93.928,340,94.262,340C94.596,340,94.93,340,95.265,340C95.599,340,95.933,340,96.267,340C96.602,340,96.936,340,97.27,340C97.604,340,97.939,340,98.273,340C98.607,340,98.942,340,99.276,340C99.61,340,99.944,340,100.279,340C100.613,340,100.947,340,101.281,340C101.616,340,101.95,340,102.284,340C102.618,340,102.953,340,103.287,340C103.621,340,103.955,340,104.29,340C104.624,340,104.958,340,105.292,340C105.627,340,105.961,340,106.295,340C106.63,340,106.964,340,107.298,340C107.632,340,107.967,340,108.301,340C108.635,340,108.969,340,109.304,340C109.638,340,109.972,340,110.306,340C110.641,340,110.975,340,111.309,340C111.643,340,111.978,340,112.312,340C112.646,340,112.981,340,113.315,340C113.649,340,113.983,340,114.318,340C114.652,340,114.986,340,115.32,340C115.655,340,115.989,340,116.323,340C116.657,340,116.992,340,117.326,340C117.66,340,117.994,340,118.329,340C118.663,340,118.997,340,119.331,340C119.666,340,120,340,120.334,340C120.669,340,121.003,340,121.337,340C121.671,340,122.006,340,122.34,340C122.674,340,123.008,340,123.343,340C123.677,340,124.011,340,124.345,340C124.68,340,125.014,340,125.348,340C125.682,340,126.017,340,126.351,340C126.685,340,127.019,340,127.354,340C127.688,340,128.022,340,128.357,340C128.691,340,129.025,340,129.359,340C129.694,340,130.028,340,130.362,340C130.696,340,131.031,340,131.365,340C131.699,340,132.033,340,132.368,340C132.702,340,133.036,340,133.37,340C133.705,340,134.039,340,134.373,340C134.708,340,135.042,340,135.376,340C135.71,340,136.045,340,136.379,340C136.713,340,137.047,340,137.382,340C137.716,340,138.05,340,138.384,340C138.719,340,139.053,340,139.387,340C139.721,340,140.056,340,140.39,340C140.724,340,141.058,340,141.393,340C141.727,340,142.061,340,142.396,340C142.73,340,143.064,340,143.398,340C143.733,340,144.067,340,144.401,340C144.735,340,145.07,340,145.404,340C145.738,340,146.072,340,146.407,340C146.741,340,147.075,340,147.409,340C147.744,340,148.078,340,148.412,340C148.747,340,149.081,340,149.415,340C149.749,340,150.084,340,150.418,340C150.752,340,151.086,340,151.421,340C151.755,340,152.089,340,152.423,340C152.758,340,153.092,340,153.426,340C153.76,340,154.095,340,154.429,340C154.763,340,155.097,340,155.432,340C155.766,340,156.1,340,156.435,340C156.769,340,157.103,340,157.437,340C157.772,340,158.106,340,158.44,340C158.774,340,159.109,340,159.443,340C159.777,340,160.111,340,160.446,340C160.78,340,161.114,340,161.448,340C161.783,340,162.117,340,162.451,340C162.786,340,163.12,340,163.454,340C163.788,340,164.123,340,164.457,340C164.791,340,165.125,340,165.46,340C165.794,340,166.128,340,166.462,340C166.797,340,167.131,340,167.465,340C167.799,340,168.134,340,168.468,340C168.802,340,169.136,340,169.471,340C169.805,340,170.139,340,170.474,340C170.808,340,171.142,340,171.476,340C171.811,340,172.145,340,172.479,340C172.813,340,173.148,340,173.482,340C173.816,340,174.15,340,174.485,340C174.819,340,175.153,340,175.487,340C175.822,340,176.156,340,176.49,340C176.825,340,177.159,340,177.493,340C177.827,340,178.162,340,178.496,340C178.83,340,179.164,340,179.499,340C179.833,340,180.167,340,180.501,340C180.836,340,181.17,340,181.504,340C181.838,340,182.173,340,182.507,340C182.841,340,183.175,340,183.51,340C183.844,340,184.178,340,184.513,340C184.847,340,185.181,340,185.515,340C185.85,340,186.184,340,186.518,340C186.852,340,187.187,340,187.521,340C187.855,340,188.189,340,188.524,340C188.858,340,189.192,340,189.526,340C189.861,340,190.195,340,190.529,340C190.864,340,191.198,340,191.532,340C191.866,340,192.201,340,192.535,340C192.869,340,193.203,340,193.538,340C193.872,340,194.206,340,194.54,340C194.875,340,195.209,340,195.543,340C195.877,340,196.212,340,196.546,340C196.88,340,197.214,340,197.549,340C197.883,340,198.217,340,198.552,340C198.886,340,199.22,340,199.554,340C199.889,340,200.223,340,200.557,340C200.891,340,201.226,340,201.56,340C201.894,340,202.228,340,202.563,340C202.897,340,203.231,340,203.565,340C203.9,340,204.234,340,204.568,340C204.903,340,205.237,340,205.571,340C205.905,340,206.24,340,206.574,340C206.908,340,207.242,340,207.577,340C207.911,340,208.245,340,208.579,340C208.914,340,209.248,340,209.582,340C209.916,340,210.251,340,210.585,340C210.919,340,211.253,340,211.588,340C211.922,340,212.256,340,212.591,340C212.925,340,213.259,340,213.593,340C213.928,340,214.262,340,214.596,340C214.93,340,215.265,340,215.599,340C215.933,340,216.267,340,216.602,340C216.936,340,217.27,340,217.604,340C217.939,340,218.273,340,218.607,340C218.942,340,219.276,340,219.61,340C219.944,340,220.279,340,220.613,340C220.947,340,221.281,340,221.616,340C221.95,340,222.284,340,222.618,340C222.953,340,223.287,340,223.621,340C223.955,340,224.29,340,224.624,340C224.958,340,225.292,340,225.627,340C225.961,340,226.295,340,226.63,340C226.964,340,227.298,340,227.632,340C227.967,340,228.301,340,228.635,340C228.969,340,229.304,340,229.638,340C229.972,340,230.306,340,230.641,340C230.975,340,231.309,340,231.643,340C231.978,340,232.312,340,232.646,340C232.981,340,233.315,340,233.649,340C233.983,340,234.318,340,234.652,340C234.986,340,235.32,340,235.655,340C235.989,340,236.323,340,236.657,340C236.992,340,237.326,340,237.66,340C237.994,340,238.329,340,238.663,340C238.997,340,239.331,340,239.666,340C240,340,240.334,340,240.669,340C241.003,340,241.337,340,241.671,340C242.006,340,242.34,340,242.674,340C243.008,340,243.343,340,243.677,340C244.011,340,244.345,340,244.68,340C245.014,340,245.348,340,245.682,340C246.017,340,246.351,340,246.685,340C247.019,340,247.354,340,247.688,340C248.022,340,248.357,340,248.691,340C249.025,340,249.359,340,249.694,340C250.028,340,250.362,340,250.696,340C251.031,340,251.365,340,251.699,340C252.033,340,252.368,340,252.702,340C253.036,340,253.37,340,253.705,340C254.039,340,254.373,340,254.708,340C255.042,340,255.376,340,255.71,340C256.045,340,256.379,340,256.713,340C257.047,340,257.382,340,257.716,340C258.05,340,258.384,340,258.719,340C259.053,340,259.387,340,259.721,340C260.056,340,260.39,340,260.724,340C261.058,340,261.393,340,261.727,340C262.061,340,262.396,340,262.73,340C263.064,340,263.398,340,263.733,340C264.067,340,264.401,340,264.735,340C265.07,340,265.404,340,265.738,340C266.072,340,266.407,340,266.741,340C267.075,340,267.409,340,267.744,340C268.078,340,268.412,340,268.747,340C269.081,340,269.415,340,269.749,340C270.084,340,270.418,340,270.752,340C271.086,340,271.421,340,271.755,340C272.089,340,272.423,340,272.758,340C273.092,340,273.426,340,273.76,340C274.095,340,274.429,340,274.763,340C275.097,340,275.432,340,275.766,340C276.1,340,276.435,340,276.769,340C277.103,340,277.437,340,277.772,340C278.106,340,278.44,340,278.774,340C279.109,340,279.443,340,279.777,340C280.111,340,280.446,340,280.78,340C281.114,340,281.448,340,281.783,340C282.117,340,282.451,340,282.786,340C283.12,340,283.454,340,283.788,340C284.123,340,284.457,340,284.791,340C285.125,340,285.46,340,285.794,340C286.128,340,286.462,340,286.797,340C287.131,340,287.465,340,287.799,340C288.134,340,288.468,340,288.802,340C289.136,340,289.471,340,289.805,340C290.139,340,290.474,340,290.808,340C291.142,340,291.476,340,291.811,340C292.145,340,292.479,340,292.813,340C293.148,340,293.482,340,293.816,340C294.15,340,294.485,340,294.819,340C295.153,340,295.487,340,295.822,340C296.156,340,296.49,340,296.825,340C297.159,340,297.493,340,297.827,340C298.162,340,298.496,340,298.83,340C299.164,340,299.499,340,299.833,340C300.167,340,300.501,340,300.836,340C301.17,340,301.504,340,301.838,340C302.173,340,302.507,340,302.841,340C303.175,340,303.51,340,303.844,340C304.178,340,304.513,340,304.847,340C305.181,340,305.515,340,305.85,340C306.184,340,306.518,340,306.852,340C307.187,340,307.521,340,307.855,340C308.189,340,308.524,340,308.858,340C309.192,340,309.526,340,309.861,340C310.195,340,310.529,340,310.864,340C311.198,340,311.532,340,311.866,340C312.201,340,312.535,340,312.869,340C313.203,340,313.538,340,313.872,340C314.206,340,314.54,340,314.875,340C315.209,340,315.543,340,315.877,340C316.212,340,316.546,340,316.88,340C317.214,340,317.549,340,317.883,340C318.217,340,318.552,340,318.886,340C319.22,340,319.554,340,319.889,340C320.223,340,320.557,340,320.891,340C321.226,340,321.56,340,321.894,340C322.228,340,322.563,340,322.897,340C323.231,340,323.565,340,323.9,340C324.234,340,324.568,340,324.903,340C325.237,340,325.571,340,325.905,340C326.24,340,326.574,340,326.908,340C327.242,340,327.577,340,327.911,340C328.245,340,328.579,340,328.914,340C329.248,340,329.582,340,329.916,340C330.251,340,330.585,340,330.919,340C331.253,340,331.588,340,331.922,340C332.256,340,332.591,340,332.925,340C333.259,340,333.593,340,333.928,340C334.262,340,334.596,340,334.93,340C335.265,340,335.599,340,335.933,340C336.267,340,336.602,340,336.936,340C337.27,340,337.604,340,337.939,340C338.273,340,338.607,0,338.942,0C339.276,0,339.61,0,339.944,0C340.279,0,340.613,0,340.947,0C341.281,0,341.616,0,341.95,0C342.284,0,342.618,0,342.953,0C343.287,0,343.621,0,343.955,0C344.29,0,344.624,0,344.958,0C345.292,0,345.627,0,345.961,0C346.295,0,346.63,0,346.964,0C347.298,0,347.632,0,347.967,0C348.301,0,348.635,0,348.969,0C349.304,0,349.638,0,349.972,0C350.306,0,350.641,0,350.975,0C351.309,0,351.643,0,351.978,0C352.312,0,352.646,0,352.981,0C353.315,0,353.649,0,353.983,0C354.318,0,354.652,0,354.986,0C355.32,0,355.655,0,355.989,0C356.323,0,356.657,0,356.992,0C357.326,0,357.66,0,357.994,0C358.329,0,358.663,0,358.997,0C359.331,0,359.666,0,360,0C360.334,0,360.669,0,361.003,0C361.337,0,361.671,0,362.006,0C362.34,0,362.674,0,363.008,0C363.343,0,363.677,0,364.011,0C364.345,0,364.68,0,365.014,0C365.348,0,365.682,0,366.017,0C366.351,0,366.685,0,367.019,0C367.354,0,367.688,0,368.022,0C368.357,0,368.691,0,369.025,0C369.359,0,369.694,0,370.028,0C370.362,0,370.696,0,371.031,0C371.365,0,371.699,0,372.033,0C372.368,0,372.702,0,373.036,0C373.37,0,373.705,0,374.039,0C374.373,0,374.708,0,375.042,0C375.376,0,375.71,0,376.045,0C376.379,0,376.713,0,377.047,0C377.382,0,377.716,0,378.05,0C378.384,0,378.719,0,379.053,0C379.387,0,379.721,0,380.056,0C380.39,0,380.724,0,381.058,0C381.393,0,381.727,0,382.061,0C382.396,0,382.73,0,383.064,0C383.398,0,383.733,0,384.067,0C384.401,0,384.735,0,385.07,0C385.404,0,385.738,0,386.072,0C386.407,0,386.741,0,387.075,0C387.409,0,387.744,0,388.078,0C388.412,0,388.747,0,389.081,0C389.415,0,389.749,0,390.084,0C390.418,0,390.752,0,391.086,0C391.421,0,391.755,0,392.089,0C392.423,0,392.758,0,393.092,0C393.426,0,393.76,0,394.095,0C394.429,0,394.763,0,395.097,0C395.432,0,395.766,0,396.1,0C396.435,0,396.769,0,397.103,0C397.437,0,397.772,0,398.106,0C398.44,0,398.774,0,399.109,0C399.443,0,399.777,0,400.111,0C400.446,0,400.78,0,401.114,0C401.448,0,401.783,0,402.117,0C402.451,0,402.786,0,403.12,0C403.454,0,403.788,0,404.123,0C404.457,0,404.791,0,405.125,0C405.46,0,405.794,0,406.128,0C406.462,0,406.797,0,407.131,0C407.465,0,407.799,0,408.134,0C408.468,0,408.802,0,409.136,0C409.471,0,409.805,0,410.139,0C410.474,0,410.808,0,411.142,0C411.476,0,411.811,0,412.145,0C412.479,0,412.813,0,413.148,0C413.482,0,413.816,0,414.15,0C414.485,0,414.819,0,415.153,0C415.487,0,415.822,0,416.156,0C416.49,0,416.825,0,417.159,0C417.493,0,417.827,0,418.162,0C418.496,0,418.83,0,419.164,0C419.499,0,419.833,0,420.167,0C420.501,0,420.836,0,421.17,0C421.504,0,421.838,0,422.173,0C422.507,0,422.841,0,423.175,0C423.51,0,423.844,0,424.178,0C424.513,0,424.847,0,425.181,0C425.515,0,425.85,0,426.184,0C426.518,0,426.852,0,427.187,0C427.521,0,427.855,0,428.189,0C428.524,0,428.858,0,429.192,0C429.526,0,429.861,0,430.195,0C430.529,0,430.864,0,431.198,0C431.532,0,431.866,0,432.201,0C432.535,0,432.869,0,433.203,0C433.538,0,433.872,0,434.206,0C434.54,0,434.875,0,435.209,0C435.543,0,435.877,0,436.212,0C436.546,0,436.88,0,437.214,0C437.549,0,437.883,0,438.217,0C438.552,0,438.886,0,439.22,0C439.554,0,439.889,0,440.223,0C440.557,0,440.891,0,441.226,0C441.56,0,441.894,0,442.228,0C442.563,0,442.897,0,443.231,0C443.565,0,443.9,0,444.234,0C444.568,0,444.903,0,445.237,0C445.571,0,445.905,0,446.24,0C446.574,0,446.908,0,447.242,0C447.577,0,447.911,0,448.245,0C448.579,0,448.914,0,449.248,0C449.582,0,449.916,0,450.251,0C450.585,0,450.919,0,451.253,0C451.588,0,451.922,0,452.256,0C452.591,0,452.925,0,453.259,0C453.593,0,453.928,0,454.262,0C454.596,0,454.93,0,455.265,0C455.599,0,455.933,0,456.267,0C456.602,0,456.936,0,457.27,0C457.604,0,457.939,0,458.273,0C458.607,0,458.942,0,459.276,0C459.61,0,459.944,0,460.279,0C460.613,0,460.947,0,461.281,0C461.616,0,461.95,0,462.284,0C462.618,0,462.953,0,463.287,0C463.621,0,463.955,0,464.29,0C464.624,0,464.958,0,465.292,0C465.627,0,465.961,0,466.295,0C466.63,0,466.964,0,467.298,0C467.632,0,467.967,0,468.301,0C468.635,0,468.969,0,469.304,0C469.638,0,469.972,0,470.306,0C470.641,0,470.975,0,471.309,0C471.643,0,471.978,0,472.312,0C472.646,0,472.981,0,473.315,0C473.649,0,473.983,0,474.318,0C474.652,0,474.986,0,475.32,0C475.655,0,475.989,0,476.323,0C476.657,0,476.992,0,477.326,0C477.66,0,477.994,0,478.329,0C478.663,0,478.997,0,479.331,0C479.666,0,480,0,480.334,0C480.669,0,481.003,0,481.337,0C481.671,0,482.006,0,482.34,0C482.674,0,483.008,0,483.343,0C483.677,0,484.011,0,484.345,0C484.68,0,485.014,0,485.348,0C485.682,0,486.017,0,486.351,0C486.685,0,487.019,0,487.354,0C487.688,0,488.022,0,488.357,0C488.691,0,489.025,0,489.359,0C489.694,0,490.028,0,490.362,0C490.696,0,491.031,0,491.365,0C491.699,0,492.033,0,492.368,0C492.702,0,493.036,0,493.37,0C493.705,0,494.039,0,494.373,0C494.708,0,495.042,0,495.376,0C495.71,0,496.045,0,496.379,0C496.713,0,497.047,0,497.382,0C497.716,0,498.05,0,498.384,0C498.719,0,499.053,0,499.387,0C499.721,0,500.056,0,500.39,0C500.724,0,501.058,0,501.393,0C501.727,0,502.061,0,502.396,0C502.73,0,503.064,0,503.398,0C503.733,0,504.067,0,504.401,0C504.735,0,505.07,0,505.404,0C505.738,0,506.072,0,506.407,0C506.741,0,507.075,0,507.409,0C507.744,0,508.078,0,508.412,0C508.747,0,509.081,0,509.415,0C509.749,0,510.084,0,510.418,0C510.752,0,511.086,0,511.421,0C511.755,0,512.089,0,512.423,0C512.758,0,513.092,0,513.426,0C513.76,0,514.095,0,514.429,0C514.763,0,515.097,0,515.432,0C515.766,0,516.1,0,516.435,0C516.769,0,517.103,0,517.437,0C517.772,0,518.106,0,518.44,0C518.774,0,519.109,0,519.443,0C519.777,0,520.111,0,520.446,0C520.78,0,521.114,0,521.448,0C521.783,0,522.117,0,522.451,0C522.786,0,523.12,0,523.454,0C523.788,0,524.123,0,524.457,0C524.791,0,525.125,0,525.46,0C525.794,0,526.128,0,526.462,0C526.797,0,527.131,0,527.465,0C527.799,0,528.134,0,528.468,0C528.802,0,529.136,0,529.471,0C529.805,0,530.139,0,530.474,0C530.808,0,531.142,0,531.476,0C531.811,0,532.145,0,532.479,0C532.813,0,533.148,0,533.482,0C533.816,0,534.15,0,534.485,0C534.819,0,535.153,0,535.487,0C535.822,0,536.156,0,536.49,0C536.825,0,537.159,0,537.493,0C537.827,0,538.162,0,538.496,0C538.83,0,539.164,0,539.499,0C539.833,0,540.167,0,540.501,0C540.836,0,541.17,0,541.504,0C541.838,0,542.173,0,542.507,0C542.841,0,543.175,0,543.51,0C543.844,0,544.178,0,544.513,0C544.847,0,545.181,0,545.515,0C545.85,0,546.184,0,546.518,0C546.852,0,547.187,0,547.521,0C547.855,0,548.189,0,548.524,0C548.858,0,549.192,0,549.526,0C549.861,0,550.195,0,550.529,0C550.864,0,551.198,0,551.532,0C551.866,0,552.201,0,552.535,0C552.869,0,553.203,0,553.538,0C553.872,0,554.206,0,554.54,0C554.875,0,555.209,0,555.543,0C555.877,0,556.212,0,556.546,0C556.88,0,557.214,0,557.549,0C557.883,0,558.217,0,558.552,0C558.886,0,559.22,0,559.554,0C559.889,0,560.223,0,560.557,0C560.891,0,561.226,0,561.56,0C561.894,0,562.228,0,562.563,0C562.897,0,563.231,0,563.565,0C563.9,0,564.234,0,564.568,0C564.903,0,565.237,0,565.571,0C565.905,0,566.24,0,566.574,0C566.908,0,567.242,0,567.577,0C567.911,0,568.245,0,568.579,0C568.914,0,569.248,0,569.582,0C569.916,0,570.251,0,570.585,0C570.919,0,571.253,0,571.588,0C571.922,0,572.256,0,572.591,0C572.925,0,573.259,0,573.593,0C573.928,0,574.262,0,574.596,0C574.93,0,575.265,0,575.599,0C575.933,0,576.267,0,576.602,0C576.936,0,577.27,0,577.604,0C577.939,0,578.273,0,578.607,0C578.942,0,579.276,0,579.61,0C579.944,0,580.279,0,580.613,0C580.947,0,581.281,0,581.616,0C581.95,0,582.284,0,582.618,0C582.953,0,583.287,0,583.621,0C583.955,0,584.29,0,584.624,0C584.958,0,585.292,0,585.627,0C585.961,0,586.295,0,586.63,0C586.964,0,587.298,0,587.632,0C587.967,0,588.301,0,588.635,0C588.969,0,589.304,0,589.638,0C589.972,0,590.306,0,590.641,0C590.975,0,591.309,0,591.643,0C591.978,0,592.312,0,592.646,0C592.981,0,593.315,0,593.649,0C593.983,0,594.318,0,594.652,0C594.986,0,595.32,0,595.655,0C595.989,0,596.323,0,596.657,0C596.992,0,597.326,0,597.66,0C597.994,0,598.329,0,598.663,0C598.997,0,599.331,0,599.666,0C600,0,600.334,0,600.669,0C601.003,0,601.337,0,601.671,0C602.006,0,602.34,0,602.674,0C603.008,0,603.343,0,603.677,0C604.011,0,604.345,0,604.68,0C605.014,0,605.348,0,605.682,0C606.017,0,606.351,0,606.685,0C607.019,0,607.354,0,607.688,0C608.022,0,608.357,0,608.691,0C609.025,0,609.359,0,609.694,0C610.028,0,610.362,0,610.696,0C611.031,0,611.365,0,611.699,0C612.033,0,612.368,0,612.702,0C613.036,0,613.37,0,613.705,0C614.039,0,614.373,0,614.708,0C615.042,0,615.376,0,615.71,0C616.045,0,616.379,0,616.713,0C617.047,0,617.382,0,617.716,0C618.05,0,618.384,0,618.719,0C619.053,0,619.387,0,619.721,0C620.056,0,620.39,0,620.724,0C621.058,0,621.393,0,621.727,0C622.061,0,622.396,0,622.73,0C623.064,0,623.398,0,623.733,0C624.067,0,624.401,0,624.735,0C625.07,0,625.404,0,625.738,0C626.072,0,626.407,0,626.741,0C627.075,0,627.409,0,627.744,0C628.078,0,628.412,0,628.747,0C629.081,0,629.415,0,629.749,0C630.084,0,630.418,0,630.752,0C631.086,0,631.421,0,631.755,0C632.089,0,632.423,0,632.758,0C633.092,0,633.426,0,633.76,0C634.095,0,634.429,0,634.763,0C635.097,0,635.432,0,635.766,0C636.1,0,636.435,0,636.769,0C637.103,0,637.437,0,637.772,0C638.106,0,638.44,0,638.774,0C639.109,0,639.443,0,639.777,0C640.111,0,640.446,0,640.78,0C641.114,0,641.448,0,641.783,0C642.117,0,642.451,0,642.786,0C643.12,0,643.454,0,643.788,0C644.123,0,644.457,0,644.791,0C645.125,0,645.46,0,645.794,0C646.128,0,646.462,0,646.797,0C647.131,0,647.465,0,647.799,0C648.134,0,648.468,0,648.802,0C649.136,0,649.471,0,649.805,0C650.139,0,650.474,0,650.808,0C651.142,0,651.476,0,651.811,0C652.145,0,652.479,0,652.813,0C653.148,0,653.482,0,653.816,0C654.15,0,654.485,0,654.819,0C655.153,0,655.487,0,655.822,0C656.156,0,656.49,0,656.825,0C657.159,0,657.493,0,657.827,0C658.162,0,658.496,0,658.83,0C659.164,0,659.499,0,659.833,0C660.167,0,660.501,0,660.836,0C661.17,0,661.504,0,661.838,0C662.173,0,662.507,0,662.841,0C663.175,0,663.51,0,663.844,0C664.178,0,664.513,0,664.847,0C665.181,0,665.515,0,665.85,0C666.184,0,666.518,0,666.852,0C667.187,0,667.521,0,667.855,0C668.189,0,668.524,0,668.858,0C669.192,0,669.526,0,669.861,0C670.195,0,670.529,0,670.864,0C671.198,0,671.532,0,671.866,0C672.201,0,672.535,0,672.869,0C673.203,0,673.538,0,673.872,0C674.206,0,674.54,0,674.875,0C675.209,0,675.543,0,675.877,0C676.212,0,676.546,0,676.88,0C677.214,0,677.549,0,677.883,0C678.217,0,678.552,0,678.886,0C679.22,0,679.554,0,679.889,0C680.223,0,680.557,0,680.891,0C681.226,0,681.56,0,681.894,0C682.228,0,682.563,0,682.897,0C683.231,0,683.565,0,683.9,0C684.234,0,684.568,0,684.903,0C685.237,0,685.571,0,685.905,0C686.24,0,686.574,0,686.908,0C687.242,0,687.577,0,687.911,0C688.245,0,688.579,0,688.914,0C689.248,0,689.582,0,689.916,0C690.251,0,690.585,0,690.919,0C691.253,0,691.588,0,691.922,0C692.256,0,692.591,0,692.925,0C693.259,0,693.593,0,693.928,0C694.262,0,694.596,0,694.93,0C695.265,0,695.599,0,695.933,0C696.267,0,696.602,0,696.936,0C697.27,0,697.604,0,697.939,0C698.273,0,698.607,0,698.942,0C699.276,0,699.61,0,699.944,0C700.279,0,700.613,0,700.947,0C701.281,0,701.616,0,701.95,0C702.284,0,702.618,0,702.953,0C703.287,0,703.621,0,703.955,0C704.29,0,704.624,0,704.958,0C705.292,0,705.627,0,705.961,0C706.295,0,706.63,0,706.964,0C707.298,0,707.632,0,707.967,0C708.301,0,708.635,0,708.969,0C709.304,0,709.638,0,709.972,0C710.306,0,710.641,0,710.975,0C711.309,0,711.643,0,711.978,0C712.312,0,712.646,0,712.981,0C713.315,0,713.649,0,713.983,0C714.318,0,714.652,0,714.986,0C715.32,0,715.655,0,715.989,0C716.323,0,716.657,0,716.992,0C717.326,0,717.66,0,717.994,0C718.329,0,718.663,0,718.997,0C719.331,0,719.666,0,720,0"></path><circle class="dot" cx="0" cy="340" r="3" fill="#2563eb"></circle><circle class="dot" cx="1.0027855153203342" cy="340" r="3" fill="#2563eb"></circle><circle class="dot" cx="2.0055710306406684" cy="340" r="3" fill="#2563eb"></circle><circle class="dot" cx="3.008356545961003" cy="340" r="3" fill="#2563eb"></circle><circle class="dot" cx="4.011142061281337" cy="340" r="3" fill="#2563eb"></circle><circle class="dot" cx="5.013927576601671" cy="340" r="3" fill="#2563eb"></circle><circle class="dot" cx="6.016713091922006" cy="340" r="3" fill="#2563eb"></circle><circle class="dot" cx="7.01949860724234" cy="340" r="3" fill="#2563eb"></circle><circle class="dot" cx="8.022284122562674" cy="340" r="3" fill="#2563eb"></circle><circle class="dot" cx="9.025069637883009" cy="340" r="3" fill="#2563eb"></circle><circle class="dot" cx="10.027855153203342" cy="340" r="3" fill="#2563eb"></circle><circle class="dot" cx="11.030640668523677" cy="340" r="3" fill="#2563eb"></circle><circle class="dot" cx="12.033426183844012" cy="340" r="3" fill="#2563eb"></circle><circle class="dot" cx="13.036211699164346" cy="340" r="3" fill="#2563eb"></circle><circle class="dot" cx="14.03899721448468" cy="340" r="3" fill="#2563eb"></circle><circle class="dot" cx="15.041782729805014" cy="340" r="3" fill="#2563eb"></circle><circle class="dot" cx="16.044568245125348" cy="340" r="3" fill="#2563eb"></circle><circle class="dot" cx="17.04735376044568" cy="340" r="3" fill="#2563eb"></circle><circle class="dot" cx="18.050139275766018" cy="340" r="3" fill="#2563eb"></circle><circle class="dot" cx="19.05292479108635" cy="340" r="3" fill="#2563eb"></circle><circle class="dot" cx="20.055710306406684" cy="340" r="3" fill="#2563eb"></circle><circle class="dot" cx="21.058495821727018" cy="340" r="3" fill="#2563eb"></circle><circle class="dot" cx="22.061281337047355" cy="340" r="3" fill="#2563eb"></circle><circle class="dot" cx="23.064066852367688" cy="340" r="3" fill="#2563eb"></circle><circle class="dot" cx="24.066852367688025" cy="340" r="3" fill="#2563eb"></circle><circle class="dot" cx="25.069637883008358" cy="340" r="3" fill="#2563eb"></circle><circle class="dot" cx="26.07242339832869" cy="340" r="3" fill="#2563eb"></circle><circle class="dot" cx="27.075208913649025" cy="340" r="3" fill="#2563eb"></circle><circle class="dot" cx="28.07799442896936" cy="340" r="3" fill="#2563eb"></circle><circle class="dot" cx="29.080779944289695" cy="340" r="3" fill="#2563eb"></circle><circle class="dot" cx="30.08356545961003" cy="340" r="3" fill="#2563eb"></circle><circle class="dot" cx="31.08635097493036" cy="340" r="3" fill="#2563eb"></circle><circle class="dot" cx="32.089136490250695" cy="340" r="3" fill="#2563eb"></circle><circle class="dot" cx="33.09192200557103" cy="340" r="3" fill="#2563eb"></circle><circle class="dot" cx="34.09470752089136" cy="340" r="3" fill="#2563eb"></circle><circle class="dot" cx="35.0974930362117" cy="340" r="3" fill="#2563eb"></circle><circle class="dot" cx="36.100278551532035" cy="340" r="3" fill="#2563eb"></circle><circle class="dot" cx="37.10306406685237" cy="340" r="3" fill="#2563eb"></circle><circle class="dot" cx="38.1058495821727" cy="340" r="3" fill="#2563eb"></circle><circle class="dot" cx="39.108635097493035" cy="340" r="3" fill="#2563eb"></circle><circle class="dot" cx="40.11142061281337" cy="340" r="3" fill="#2563eb"></circle><circle class="dot" cx="41.1142061281337" cy="340" r="3" fill="#2563eb"></circle><circle class="dot" cx="42.116991643454035" cy="340" r="3" fill="#2563eb"></circle><circle class="dot" cx="43.11977715877437" cy="340" r="3" fill="#2563eb"></circle><circle class="dot" cx="44.12256267409471" cy="340" r="3" fill="#2563eb"></circle><circle class="dot" cx="45.12534818941504" cy="340" r="3" fill="#2563eb"></circle><circle class="dot" cx="46.128133704735376" cy="340" r="3" fill="#2563eb"></circle><circle class="dot" cx="47.13091922005571" cy="340" r="3" fill="#2563eb"></circle><circle class="dot" cx="48.13370473537605" cy="340" r="3" fill="#2563eb"></circle><circle class="dot" cx="49.136490250696376" cy="340" r="3" fill="#2563eb"></circle><circle class="dot" cx="50.139275766016716" cy="340" r="3" fill="#2563eb"></circle><circle class="dot" cx="51.14206128133704" cy="340" r="3" fill="#2563eb"></circle><circle class="dot" cx="52.14484679665738" cy="340" r="3" fill="#2563eb"></circle><circle class="dot" cx="53.147632311977716" cy="340" r="3" fill="#2563eb"></circle><circle class="dot" cx="54.15041782729805" cy="340" r="3" fill="#2563eb"></circle><circle class="dot" cx="55.15320334261838" cy="340" r="3" fill="#2563eb"></circle><circle class="dot" cx="56.15598885793872" cy="340" r="3" fill="#2563eb"></circle><circle class="dot" cx="57.15877437325905" cy="340" r="3" fill="#2563eb"></circle><circle class="dot" cx="58.16155988857939" cy="340" r="3" fill="#2563eb"></circle><circle class="dot" cx="59.164345403899716" cy="340" r="3" fill="#2563eb"></circle><circle class="dot" cx="60.16713091922006" cy="340" r="3" fill="#2563eb"></circle><circle class="dot" cx="61.16991643454038" cy="340" r="3" fill="#2563eb"></circle><circle class="dot" cx="62.17270194986072" cy="340" r="3" fill="#2563eb"></circle><circle class="dot" cx="63.17548746518106" cy="340" r="3" fill="#2563eb"></circle><circle class="dot" cx="64.17827298050139" cy="340" r="3" fill="#2563eb"></circle><circle class="dot" cx="65.18105849582172" cy="340" r="3" fill="#2563eb"></circle><circle class="dot" cx="66.18384401114206" cy="340" r="3" fill="#2563eb"></circle><circle class="dot" cx="67.1866295264624" cy="340" r="3" fill="#2563eb"></circle><circle class="dot" cx="68.18941504178272" cy="340" r="3" fill="#2563eb"></circle><circle class="dot" cx="69.19220055710306" cy="340" r="3" fill="#2563eb"></circle><circle class="dot" cx="70.1949860724234" cy="340" r="3" fill="#2563eb"></circle><circle class="dot" cx="71.19777158774373" cy="340" r="3" fill="#2563eb"></circle><circle class="dot" cx="72.20055710306407" cy="340" r="3" fill="#2563eb"></circle><circle class="dot" cx="73.20334261838441" cy="340" r="3" fill="#2563eb"></circle><circle class="dot" cx="74.20612813370474" cy="340" r="3" fill="#2563eb"></circle><circle class="dot" cx="75.20891364902508" cy="340" r="3" fill="#2563eb"></circle><circle class="dot" cx="76.2116991643454" cy="340" r="3" fill="#2563eb"></circle><circle class="dot" cx="77.21448467966574" cy="340" r="3" fill="#2563eb"></circle><circle class="dot" cx="78.21727019498607" cy="340" r="3" fill="#2563eb"></circle><circle class="dot" cx="79.22005571030641" cy="340" r="3" fill="#2563eb"></circle><circle class="dot" cx="80.22284122562674" cy="340" r="3" fill="#2563eb"></circle><circle class="dot" cx="81.22562674094708" cy="340" r="3" fill="#2563eb"></circle><circle class="dot" cx="82.2284122562674" cy="340" r="3" fill="#2563eb"></circle><circle class="dot" cx="83.23119777158774" cy="340" r="3" fill="#2563eb"></circle><circle class="dot" cx="84.23398328690807" cy="340" r="3" fill="#2563eb"></circle><circle class="dot" cx="85.23676880222841" cy="340" r="3" fill="#2563eb"></circle><circle class="dot" cx="86.23955431754874" cy="340" r="3" fill="#2563eb"></circle><circle class="dot" cx="87.24233983286908" cy="340" r="3" fill="#2563eb"></circle><circle class="dot" cx="88.24512534818942" cy="340" r="3" fill="#2563eb"></circle><circle class="dot" cx="89.24791086350974" cy="340" r="3" fill="#2563eb"></circle><circle class="dot" cx="90.25069637883009" cy="340" r="3" fill="#2563eb"></circle><circle class="dot" cx="91.25348189415043" cy="340" r="3" fill="#2563eb"></circle><circle class="dot" cx="92.25626740947075" cy="340" r="3" fill="#2563eb"></circle><circle class="dot" cx="93.25905292479108" cy="340" r="3" fill="#2563eb"></circle><circle class="dot" cx="94.26183844011142" cy="340" r="3" fill="#2563eb"></circle><circle class="dot" cx="95.26462395543176" cy="340" r="3" fill="#2563eb"></circle><circle class="dot" cx="96.2674094707521" cy="340" r="3" fill="#2563eb"></circle><circle class="dot" cx="97.27019498607241" cy="340" r="3" fill="#2563eb"></circle><circle class="dot" cx="98.27298050139275" cy="340" r="3" fill="#2563eb"></circle><circle class="dot" cx="99.27576601671309" cy="340" r="3" fill="#2563eb"></circle><circle class="dot" cx="100.27855153203343" cy="340" r="3" fill="#2563eb"></circle><circle class="dot" cx="101.28133704735377" cy="340" r="3" fill="#2563eb"></circle><circle class="dot" cx="102.28412256267409" cy="340" r="3" fill="#2563eb"></circle><circle class="dot" cx="103.28690807799443" cy="340" r="3" fill="#2563eb"></circle><circle class="dot" cx="104.28969359331477" cy="340" r="3" fill="#2563eb"></circle><circle class="dot" cx="105.2924791086351" cy="340" r="3" fill="#2563eb"></circle><circle class="dot" cx="106.29526462395543" cy="340" r="3" fill="#2563eb"></circle><circle class="dot" cx="107.29805013927576" cy="340" r="3" fill="#2563eb"></circle><circle class="dot" cx="108.3008356545961" cy="340" r="3" fill="#2563eb"></circle><circle class="dot" cx="109.30362116991644" cy="340" r="3" fill="#2563eb"></circle><circle class="dot" cx="110.30640668523677" cy="340" r="3" fill="#2563eb"></circle><circle class="dot" cx="111.3091922005571" cy="340" r="3" fill="#2563eb"></circle><circle class="dot" cx="112.31197771587745" cy="340" r="3" fill="#2563eb"></circle><circle class="dot" cx="113.31476323119777" cy="340" r="3" fill="#2563eb"></circle><circle class="dot" cx="114.3175487465181" cy="340" r="3" fill="#2563eb"></circle><circle class="dot" cx="115.32033426183844" cy="340" r="3" fill="#2563eb"></circle><circle class="dot" cx="116.32311977715878" cy="340" r="3" fill="#2563eb"></circle><circle class="dot" cx="117.32590529247912" cy="340" r="3" fill="#2563eb"></circle><circle class="dot" cx="118.32869080779943" cy="340" r="3" fill="#2563eb"></circle><circle class="dot" cx="119.33147632311977" cy="340" r="3" fill="#2563eb"></circle><circle class="dot" cx="120.33426183844011" cy="340" r="3" fill="#2563eb"></circle><circle class="dot" cx="121.33704735376045" cy="340" r="3" fill="#2563eb"></circle><circle class="dot" cx="122.33983286908077" cy="340" r="3" fill="#2563eb"></circle><circle class="dot" cx="123.3426183844011" cy="340" r="3" fill="#2563eb"></circle><circle class="dot" cx="124.34540389972145" cy="340" r="3" fill="#2563eb"></circle><circle class="dot" cx="125.34818941504179" cy="340" r="3" fill="#2563eb"></circle><circle class="dot" cx="126.35097493036211" cy="340" r="3" fill="#2563eb"></circle><circle class="dot" cx="127.35376044568244" cy="340" r="3" fill="#2563eb"></circle><circle class="dot" cx="128.35654596100278" cy="340" r="3" fill="#2563eb"></circle><circle class="dot" cx="129.35933147632312" cy="340" r="3" fill="#2563eb"></circle><circle class="dot" cx="130.36211699164343" cy="340" r="3" fill="#2563eb"></circle><circle class="dot" cx="131.36490250696377" cy="340" r="3" fill="#2563eb"></circle><circle class="dot" cx="132.3676880222841" cy="340" r="3" fill="#2563eb"></circle><circle class="dot" cx="133.37047353760445" cy="340" r="3" fill="#2563eb"></circle><circle class="dot" cx="134.3732590529248" cy="340" r="3" fill="#2563eb"></circle><circle class="dot" cx="135.3760445682451" cy="340" r="3" fill="#2563eb"></circle><circle class="dot" cx="136.37883008356545" cy="340" r="3" fill="#2563eb"></circle><circle class="dot" cx="137.3816155988858" cy="340" r="3" fill="#2563eb"></circle><circle class="dot" cx="138.38440111420613" cy="340" r="3" fill="#2563eb"></circle><circle class="dot" cx="139.38718662952647" cy="340" r="3" fill="#2563eb"></circle><circle class="dot" cx="140.3899721448468" cy="340" r="3" fill="#2563eb"></circle><circle class="dot" cx="141.39275766016712" cy="340" r="3" fill="#2563eb"></circle><circle class="dot" cx="142.39554317548746" cy="340" r="3" fill="#2563eb"></circle><circle class="dot" cx="143.3983286908078" cy="340" r="3" fill="#2563eb"></circle><circle class="dot" cx="144.40111420612814" cy="340" r="3" fill="#2563eb"></circle><circle class="dot" cx="145.40389972144848" cy="340" r="3" fill="#2563eb"></circle><circle class="dot" cx="146.40668523676882" cy="340" r="3" fill="#2563eb"></circle><circle class="dot" cx="147.40947075208913" cy="340" r="3" fill="#2563eb"></circle><circle class="dot" cx="148.41225626740948" cy="340" r="3" fill="#2563eb"></circle><circle class="dot" cx="149.41504178272982" cy="340" r="3" fill="#2563eb"></circle><circle class="dot" cx="150.41782729805016" cy="340" r="3" fill="#2563eb"></circle><circle class="dot" cx="151.42061281337047" cy="340" r="3" fill="#2563eb"></circle><circle class="dot" cx="152.4233983286908" cy="340" r="3" fill="#2563eb"></circle><circle class="dot" cx="153.42618384401115" cy="340" r="3" fill="#2563eb"></circle><circle class="dot" cx="154.4289693593315" cy="340" r="3" fill="#2563eb"></circle><circle class="dot" cx="155.4317548746518" cy="340" r="3" fill="#2563eb"></circle><circle class="dot" cx="156.43454038997214" cy="340" r="3" fill="#2563eb"></circle><circle class="dot" cx="157.43732590529248" cy="340" r="3" fill="#2563eb"></circle><circle class="dot" cx="158.44011142061282" cy="340" r="3" fill="#2563eb"></circle><circle class="dot" cx="159.44289693593313" cy="340" r="3" fill="#2563eb"></circle><circle class="dot" cx="160.44568245125348" cy="340" r="3" fill="#2563eb"></circle><circle class="dot" cx="161.44846796657382" cy="340" r="3" fill="#2563eb"></circle><circle class="dot" cx="162.45125348189416" cy="340" r="3" fill="#2563eb"></circle><circle class="dot" cx="163.45403899721447" cy="340" r="3" fill="#2563eb"></circle><circle class="dot" cx="164.4568245125348" cy="340" r="3" fill="#2563eb"></circle><circle class="dot" cx="165.45961002785515" cy="340" r="3" fill="#2563eb"></circle><circle class="dot" cx="166.4623955431755" cy="340" r="3" fill="#2563eb"></circle><circle class="dot" cx="167.46518105849583" cy="340" r="3" fill="#2563eb"></circle><circle class="dot" cx="168.46796657381614" cy="340" r="3" fill="#2563eb"></circle><circle class="dot" cx="169.47075208913648" cy="340" r="3" fill="#2563eb"></circle><circle class="dot" cx="170.47353760445682" cy="340" r="3" fill="#2563eb"></circle><circle class="dot" cx="171.47632311977716" cy="340" r="3" fill="#2563eb"></circle><circle class="dot" cx="172.47910863509748" cy="340" r="3" fill="#2563eb"></circle><circle class="dot" cx="173.48189415041782" cy="340" r="3" fill="#2563eb"></circle><circle class="dot" cx="174.48467966573816" cy="340" r="3" fill="#2563eb"></circle><circle class="dot" cx="175.4874651810585" cy="340" r="3" fill="#2563eb"></circle><circle class="dot" cx="176.49025069637884" cy="340" r="3" fill="#2563eb"></circle><circle class="dot" cx="177.49303621169915" cy="340" r="3" fill="#2563eb"></circle><circle class="dot" cx="178.4958217270195" cy="340" r="3" fill="#2563eb"></circle><circle class="dot" cx="179.49860724233983" cy="340" r="3" fill="#2563eb"></circle><circle class="dot" cx="180.50139275766017" cy="340" r="3" fill="#2563eb"></circle><circle class="dot" cx="181.5041782729805" cy="340" r="3" fill="#2563eb"></circle><circle class="dot" cx="182.50696378830085" cy="340" r="3" fill="#2563eb"></circle><circle class="dot" cx="183.50974930362116" cy="340" r="3" fill="#2563eb"></circle><circle class="dot" cx="184.5125348189415" cy="340" r="3" fill="#2563eb"></circle><circle class="dot" cx="185.51532033426184" cy="340" r="3" fill="#2563eb"></circle><circle class="dot" cx="186.51810584958216" cy="340" r="3" fill="#2563eb"></circle><circle class="dot" cx="187.52089136490252" cy="340" r="3" fill="#2563eb"></circle><circle class="dot" cx="188.52367688022284" cy="340" r="3" fill="#2563eb"></circle><circle class="dot" cx="189.5264623955432" cy="340" r="3" fill="#2563eb"></circle><circle class="dot" cx="190.52924791086352" cy="340" r="3" fill="#2563eb"></circle><circle class="dot" cx="191.53203342618383" cy="340" r="3" fill="#2563eb"></circle><circle class="dot" cx="192.5348189415042" cy="340" r="3" fill="#2563eb"></circle><circle class="dot" cx="193.5376044568245" cy="340" r="3" fill="#2563eb"></circle><circle class="dot" cx="194.54038997214482" cy="340" r="3" fill="#2563eb"></circle><circle class="dot" cx="195.5431754874652" cy="340" r="3" fill="#2563eb"></circle><circle class="dot" cx="196.5459610027855" cy="340" r="3" fill="#2563eb"></circle><circle class="dot" cx="197.54874651810587" cy="340" r="3" fill="#2563eb"></circle><circle class="dot" cx="198.55153203342618" cy="340" r="3" fill="#2563eb"></circle><circle class="dot" cx="199.5543175487465" cy="340" r="3" fill="#2563eb"></circle><circle class="dot" cx="200.55710306406687" cy="340" r="3" fill="#2563eb"></circle><circle class="dot" cx="201.55988857938718" cy="340" r="3" fill="#2563eb"></circle><circle class="dot" cx="202.56267409470755" cy="340" r="3" fill="#2563eb"></circle><circle class="dot" cx="203.56545961002786" cy="340" r="3" fill="#2563eb"></circle><circle class="dot" cx="204.56824512534817" cy="340" r="3" fill="#2563eb"></circle><circle class="dot" cx="205.57103064066854" cy="340" r="3" fill="#2563eb"></circle><circle class="dot" cx="206.57381615598885" cy="340" r="3" fill="#2563eb"></circle><circle class="dot" cx="207.57660167130916" cy="340" r="3" fill="#2563eb"></circle><circle class="dot" cx="208.57938718662953" cy="340" r="3" fill="#2563eb"></circle><circle class="dot" cx="209.58217270194984" cy="340" r="3" fill="#2563eb"></circle><circle class="dot" cx="210.5849582172702" cy="340" r="3" fill="#2563eb"></circle><circle class="dot" cx="211.58774373259052" cy="340" r="3" fill="#2563eb"></circle><circle class="dot" cx="212.59052924791087" cy="340" r="3" fill="#2563eb"></circle><circle class="dot" cx="213.5933147632312" cy="340" r="3" fill="#2563eb"></circle><circle class="dot" cx="214.59610027855152" cy="340" r="3" fill="#2563eb"></circle><circle class="dot" cx="215.59888579387186" cy="340" r="3" fill="#2563eb"></circle><circle class="dot" cx="216.6016713091922" cy="340" r="3" fill="#2563eb"></circle><circle class="dot" cx="217.60445682451254" cy="340" r="3" fill="#2563eb"></circle><circle class="dot" cx="218.60724233983288" cy="340" r="3" fill="#2563eb"></circle><circle class="dot" cx="219.6100278551532" cy="340" r="3" fill="#2563eb"></circle><circle class="dot" cx="220.61281337047353" cy="340" r="3" fill="#2563eb"></circle><circle class="dot" cx="221.61559888579387" cy="340" r="3" fill="#2563eb"></circle><circle class="dot" cx="222.6183844011142" cy="340" r="3" fill="#2563eb"></circle><circle class="dot" cx="223.62116991643452" cy="340" r="3" fill="#2563eb"></circle><circle class="dot" cx="224.6239554317549" cy="340" r="3" fill="#2563eb"></circle><circle class="dot" cx="225.6267409470752" cy="340" r="3" fill="#2563eb"></circle><circle class="dot" cx="226.62952646239555" cy="340" r="3" fill="#2563eb"></circle><circle class="dot" cx="227.6323119777159" cy="340" r="3" fill="#2563eb"></circle><circle class="dot" cx="228.6350974930362" cy="340" r="3" fill="#2563eb"></circle><circle class="dot" cx="229.63788300835657" cy="340" r="3" fill="#2563eb"></circle><circle class="dot" cx="230.64066852367688" cy="340" r="3" fill="#2563eb"></circle><circle class="dot" cx="231.64345403899722" cy="340" r="3" fill="#2563eb"></circle><circle class="dot" cx="232.64623955431756" cy="340" r="3" fill="#2563eb"></circle><circle class="dot" cx="233.64902506963787" cy="340" r="3" fill="#2563eb"></circle><circle class="dot" cx="234.65181058495824" cy="340" r="3" fill="#2563eb"></circle><circle class="dot" cx="235.65459610027855" cy="340" r="3" fill="#2563eb"></circle><circle class="dot" cx="236.65738161559887" cy="340" r="3" fill="#2563eb"></circle><circle class="dot" cx="237.66016713091923" cy="340" r="3" fill="#2563eb"></circle><circle class="dot" cx="238.66295264623955" cy="340" r="3" fill="#2563eb"></circle><circle class="dot" cx="239.66573816155991" cy="340" r="3" fill="#2563eb"></circle><circle class="dot" cx="240.66852367688023" cy="340" r="3" fill="#2563eb"></circle><circle class="dot" cx="241.67130919220054" cy="340" r="3" fill="#2563eb"></circle><circle class="dot" cx="242.6740947075209" cy="340" r="3" fill="#2563eb"></circle><circle class="dot" cx="243.67688022284122" cy="340" r="3" fill="#2563eb"></circle><circle class="dot" cx="244.67966573816153" cy="340" r="3" fill="#2563eb"></circle><circle class="dot" cx="245.6824512534819" cy="340" r="3" fill="#2563eb"></circle><circle class="dot" cx="246.6852367688022" cy="340" r="3" fill="#2563eb"></circle><circle class="dot" cx="247.68802228412258" cy="340" r="3" fill="#2563eb"></circle><circle class="dot" cx="248.6908077994429" cy="340" r="3" fill="#2563eb"></circle><circle class="dot" cx="249.6935933147632" cy="340" r="3" fill="#2563eb"></circle><circle class="dot" cx="250.69637883008357" cy="340" r="3" fill="#2563eb"></circle><circle class="dot" cx="251.6991643454039" cy="340" r="3" fill="#2563eb"></circle><circle class="dot" cx="252.70194986072423" cy="340" r="3" fill="#2563eb"></circle><circle class="dot" cx="253.70473537604457" cy="340" r="3" fill="#2563eb"></circle><circle class="dot" cx="254.70752089136488" cy="340" r="3" fill="#2563eb"></circle><circle class="dot" cx="255.71030640668525" cy="340" r="3" fill="#2563eb"></circle><circle class="dot" cx="256.71309192200556" cy="340" r="3" fill="#2563eb"></circle><circle class="dot" cx="257.7158774373259" cy="340" r="3" fill="#2563eb"></circle><circle class="dot" cx="258.71866295264624" cy="340" r="3" fill="#2563eb"></circle><circle class="dot" cx="259.7214484679666" cy="340" r="3" fill="#2563eb"></circle><circle class="dot" cx="260.72423398328687" cy="340" r="3" fill="#2563eb"></circle><circle class="dot" cx="261.72701949860726" cy="340" r="3" fill="#2563eb"></circle><circle class="dot" cx="262.72980501392755" cy="340" r="3" fill="#2563eb"></circle><circle class="dot" cx="263.73259052924794" cy="340" r="3" fill="#2563eb"></circle><circle class="dot" cx="264.7353760445682" cy="340" r="3" fill="#2563eb"></circle><circle class="dot" cx="265.73816155988857" cy="340" r="3" fill="#2563eb"></circle><circle class="dot" cx="266.7409470752089" cy="340" r="3" fill="#2563eb"></circle><circle class="dot" cx="267.74373259052925" cy="340" r="3" fill="#2563eb"></circle><circle class="dot" cx="268.7465181058496" cy="340" r="3" fill="#2563eb"></circle><circle class="dot" cx="269.74930362116993" cy="340" r="3" fill="#2563eb"></circle><circle class="dot" cx="270.7520891364902" cy="340" r="3" fill="#2563eb"></circle><circle class="dot" cx="271.7548746518106" cy="340" r="3" fill="#2563eb"></circle><circle class="dot" cx="272.7576601671309" cy="340" r="3" fill="#2563eb"></circle><circle class="dot" cx="273.76044568245123" cy="340" r="3" fill="#2563eb"></circle><circle class="dot" cx="274.7632311977716" cy="340" r="3" fill="#2563eb"></circle><circle class="dot" cx="275.7660167130919" cy="340" r="3" fill="#2563eb"></circle><circle class="dot" cx="276.76880222841226" cy="340" r="3" fill="#2563eb"></circle><circle class="dot" cx="277.7715877437326" cy="340" r="3" fill="#2563eb"></circle><circle class="dot" cx="278.77437325905294" cy="340" r="3" fill="#2563eb"></circle><circle class="dot" cx="279.7771587743733" cy="340" r="3" fill="#2563eb"></circle><circle class="dot" cx="280.7799442896936" cy="340" r="3" fill="#2563eb"></circle><circle class="dot" cx="281.7827298050139" cy="340" r="3" fill="#2563eb"></circle><circle class="dot" cx="282.78551532033424" cy="340" r="3" fill="#2563eb"></circle><circle class="dot" cx="283.7883008356546" cy="340" r="3" fill="#2563eb"></circle><circle class="dot" cx="284.7910863509749" cy="340" r="3" fill="#2563eb"></circle><circle class="dot" cx="285.79387186629526" cy="340" r="3" fill="#2563eb"></circle><circle class="dot" cx="286.7966573816156" cy="340" r="3" fill="#2563eb"></circle><circle class="dot" cx="287.79944289693594" cy="340" r="3" fill="#2563eb"></circle><circle class="dot" cx="288.8022284122563" cy="340" r="3" fill="#2563eb"></circle><circle class="dot" cx="289.80501392757657" cy="340" r="3" fill="#2563eb"></circle><circle class="dot" cx="290.80779944289696" cy="340" r="3" fill="#2563eb"></circle><circle class="dot" cx="291.81058495821725" cy="340" r="3" fill="#2563eb"></circle><circle class="dot" cx="292.81337047353765" cy="340" r="3" fill="#2563eb"></circle><circle class="dot" cx="293.81615598885793" cy="340" r="3" fill="#2563eb"></circle><circle class="dot" cx="294.81894150417827" cy="340" r="3" fill="#2563eb"></circle><circle class="dot" cx="295.8217270194986" cy="340" r="3" fill="#2563eb"></circle><circle class="dot" cx="296.82451253481895" cy="340" r="3" fill="#2563eb"></circle><circle class="dot" cx="297.8272980501393" cy="340" r="3" fill="#2563eb"></circle><circle class="dot" cx="298.83008356545963" cy="340" r="3" fill="#2563eb"></circle><circle class="dot" cx="299.8328690807799" cy="340" r="3" fill="#2563eb"></circle><circle class="dot" cx="300.8356545961003" cy="340" r="3" fill="#2563eb"></circle><circle class="dot" cx="301.8384401114206" cy="340" r="3" fill="#2563eb"></circle><circle class="dot" cx="302.84122562674094" cy="340" r="3" fill="#2563eb"></circle><circle class="dot" cx="303.8440111420613" cy="340" r="3" fill="#2563eb"></circle><circle class="dot" cx="304.8467966573816" cy="340" r="3" fill="#2563eb"></circle><circle class="dot" cx="305.84958217270196" cy="340" r="3" fill="#2563eb"></circle><circle class="dot" cx="306.8523676880223" cy="340" r="3" fill="#2563eb"></circle><circle class="dot" cx="307.8551532033426" cy="340" r="3" fill="#2563eb"></circle><circle class="dot" cx="308.857938718663" cy="340" r="3" fill="#2563eb"></circle><circle class="dot" cx="309.86072423398326" cy="340" r="3" fill="#2563eb"></circle><circle class="dot" cx="310.8635097493036" cy="340" r="3" fill="#2563eb"></circle><circle class="dot" cx="311.86629526462394" cy="340" r="3" fill="#2563eb"></circle><circle class="dot" cx="312.8690807799443" cy="340" r="3" fill="#2563eb"></circle><circle class="dot" cx="313.8718662952646" cy="340" r="3" fill="#2563eb"></circle><circle class="dot" cx="314.87465181058496" cy="340" r="3" fill="#2563eb"></circle><circle class="dot" cx="315.8774373259053" cy="340" r="3" fill="#2563eb"></circle><circle class="dot" cx="316.88022284122565" cy="340" r="3" fill="#2563eb"></circle><circle class="dot" cx="317.88300835654593" cy="340" r="3" fill="#2563eb"></circle><circle class="dot" cx="318.88579387186627" cy="340" r="3" fill="#2563eb"></circle><circle class="dot" cx="319.8885793871866" cy="340" r="3" fill="#2563eb"></circle><circle class="dot" cx="320.89136490250695" cy="340" r="3" fill="#2563eb"></circle><circle class="dot" cx="321.8941504178273" cy="340" r="3" fill="#2563eb"></circle><circle class="dot" cx="322.89693593314763" cy="340" r="3" fill="#2563eb"></circle><circle class="dot" cx="323.899721448468" cy="340" r="3" fill="#2563eb"></circle><circle class="dot" cx="324.9025069637883" cy="340" r="3" fill="#2563eb"></circle><circle class="dot" cx="325.90529247910865" cy="340" r="3" fill="#2563eb"></circle><circle class="dot" cx="326.90807799442894" cy="340" r="3" fill="#2563eb"></circle><circle class="dot" cx="327.91086350974933" cy="340" r="3" fill="#2563eb"></circle><circle class="dot" cx="328.9136490250696" cy="340" r="3" fill="#2563eb"></circle><circle class="dot" cx="329.91643454039" cy="340" r="3" fill="#2563eb"></circle><circle class="dot" cx="330.9192200557103" cy="340" r="3" fill="#2563eb"></circle><circle class="dot" cx="331.92200557103064" cy="340" r="3" fill="#2563eb"></circle><circle class="dot" cx="332.924791086351" cy="340" r="3" fill="#2563eb"></circle><circle class="dot" cx="333.9275766016713" cy="340" r="3" fill="#2563eb"></circle><circle class="dot" cx="334.93036211699166" cy="340" r="3" fill="#2563eb"></circle><circle class="dot" cx="335.933147632312" cy="340" r="3" fill="#2563eb"></circle><circle class="dot" cx="336.9359331476323" cy="340" r="3" fill="#2563eb"></circle><circle class="dot" cx="337.9387186629527" cy="340" r="3" fill="#2563eb"></circle><circle class="dot" cx="338.94150417827296" cy="0" r="3" fill="#2563eb"></circle><circle class="dot" cx="339.9442896935933" cy="0" r="3" fill="#2563eb"></circle><circle class="dot" cx="340.94707520891365" cy="0" r="3" fill="#2563eb"></circle><circle class="dot" cx="341.949860724234" cy="0" r="3" fill="#2563eb"></circle><circle class="dot" cx="342.9526462395543" cy="0" r="3" fill="#2563eb"></circle><circle class="dot" cx="343.95543175487467" cy="0" r="3" fill="#2563eb"></circle><circle class="dot" cx="344.95821727019495" cy="0" r="3" fill="#2563eb"></circle><circle class="dot" cx="345.96100278551535" cy="0" r="3" fill="#2563eb"></circle><circle class="dot" cx="346.96378830083563" cy="0" r="3" fill="#2563eb"></circle><circle class="dot" cx="347.966573816156" cy="0" r="3" fill="#2563eb"></circle><circle class="dot" cx="348.9693593314763" cy="0" r="3" fill="#2563eb"></circle><circle class="dot" cx="349.97214484679665" cy="0" r="3" fill="#2563eb"></circle><circle class="dot" cx="350.974930362117" cy="0" r="3" fill="#2563eb"></circle><circle class="dot" cx="351.97771587743733" cy="0" r="3" fill="#2563eb"></circle><circle class="dot" cx="352.9805013927577" cy="0" r="3" fill="#2563eb"></circle><circle class="dot" cx="353.983286908078" cy="0" r="3" fill="#2563eb"></circle><circle class="dot" cx="354.9860724233983" cy="0" r="3" fill="#2563eb"></circle><circle class="dot" cx="355.98885793871864" cy="0" r="3" fill="#2563eb"></circle><circle class="dot" cx="356.991643454039" cy="0" r="3" fill="#2563eb"></circle><circle class="dot" cx="357.9944289693593" cy="0" r="3" fill="#2563eb"></circle><circle class="dot" cx="358.99721448467966" cy="0" r="3" fill="#2563eb"></circle><circle class="dot" cx="360" cy="0" r="3" fill="#2563eb"></circle><circle class="dot" cx="361.00278551532034" cy="0" r="3" fill="#2563eb"></circle><circle class="dot" cx="362.0055710306406" cy="0" r="3" fill="#2563eb"></circle><circle class="dot" cx="363.008356545961" cy="0" r="3" fill="#2563eb"></circle><circle class="dot" cx="364.01114206128136" cy="0" r="3" fill="#2563eb"></circle><circle class="dot" cx="365.0139275766017" cy="0" r="3" fill="#2563eb"></circle><circle class="dot" cx="366.016713091922" cy="0" r="3" fill="#2563eb"></circle><circle class="dot" cx="367.0194986072423" cy="0" r="3" fill="#2563eb"></circle><circle class="dot" cx="368.0222841225627" cy="0" r="3" fill="#2563eb"></circle><circle class="dot" cx="369.025069637883" cy="0" r="3" fill="#2563eb"></circle><circle class="dot" cx="370.02785515320335" cy="0" r="3" fill="#2563eb"></circle><circle class="dot" cx="371.0306406685237" cy="0" r="3" fill="#2563eb"></circle><circle class="dot" cx="372.03342618384397" cy="0" r="3" fill="#2563eb"></circle><circle class="dot" cx="373.0362116991643" cy="0" r="3" fill="#2563eb"></circle><circle class="dot" cx="374.0389972144847" cy="0" r="3" fill="#2563eb"></circle><circle class="dot" cx="375.04178272980505" cy="0" r="3" fill="#2563eb"></circle><circle class="dot" cx="376.04456824512533" cy="0" r="3" fill="#2563eb"></circle><circle class="dot" cx="377.0473537604457" cy="0" r="3" fill="#2563eb"></circle><circle class="dot" cx="378.05013927576596" cy="0" r="3" fill="#2563eb"></circle><circle class="dot" cx="379.0529247910864" cy="0" r="3" fill="#2563eb"></circle><circle class="dot" cx="380.0557103064067" cy="0" r="3" fill="#2563eb"></circle><circle class="dot" cx="381.05849582172704" cy="0" r="3" fill="#2563eb"></circle><circle class="dot" cx="382.0612813370473" cy="0" r="3" fill="#2563eb"></circle><circle class="dot" cx="383.06406685236766" cy="0" r="3" fill="#2563eb"></circle><circle class="dot" cx="384.06685236768806" cy="0" r="3" fill="#2563eb"></circle><circle class="dot" cx="385.0696378830084" cy="0" r="3" fill="#2563eb"></circle><circle class="dot" cx="386.0724233983287" cy="0" r="3" fill="#2563eb"></circle><circle class="dot" cx="387.075208913649" cy="0" r="3" fill="#2563eb"></circle><circle class="dot" cx="388.07799442896936" cy="0" r="3" fill="#2563eb"></circle><circle class="dot" cx="389.08077994428965" cy="0" r="3" fill="#2563eb"></circle><circle class="dot" cx="390.08356545961004" cy="0" r="3" fill="#2563eb"></circle><circle class="dot" cx="391.0863509749304" cy="0" r="3" fill="#2563eb"></circle><circle class="dot" cx="392.08913649025067" cy="0" r="3" fill="#2563eb"></circle><circle class="dot" cx="393.091922005571" cy="0" r="3" fill="#2563eb"></circle><circle class="dot" cx="394.09470752089135" cy="0" r="3" fill="#2563eb"></circle><circle class="dot" cx="395.09749303621174" cy="0" r="3" fill="#2563eb"></circle><circle class="dot" cx="396.100278551532" cy="0" r="3" fill="#2563eb"></circle><circle class="dot" cx="397.10306406685237" cy="0" r="3" fill="#2563eb"></circle><circle class="dot" cx="398.1058495821727" cy="0" r="3" fill="#2563eb"></circle><circle class="dot" cx="399.108635097493" cy="0" r="3" fill="#2563eb"></circle><circle class="dot" cx="400.1114206128134" cy="0" r="3" fill="#2563eb"></circle><circle class="dot" cx="401.11420612813373" cy="0" r="3" fill="#2563eb"></circle><circle class="dot" cx="402.11699164345407" cy="0" r="3" fill="#2563eb"></circle><circle class="dot" cx="403.11977715877435" cy="0" r="3" fill="#2563eb"></circle><circle class="dot" cx="404.1225626740947" cy="0" r="3" fill="#2563eb"></circle><circle class="dot" cx="405.1253481894151" cy="0" r="3" fill="#2563eb"></circle><circle class="dot" cx="406.1281337047354" cy="0" r="3" fill="#2563eb"></circle><circle class="dot" cx="407.1309192200557" cy="0" r="3" fill="#2563eb"></circle><circle class="dot" cx="408.13370473537606" cy="0" r="3" fill="#2563eb"></circle><circle class="dot" cx="409.13649025069634" cy="0" r="3" fill="#2563eb"></circle><circle class="dot" cx="410.1392757660167" cy="0" r="3" fill="#2563eb"></circle><circle class="dot" cx="411.1420612813371" cy="0" r="3" fill="#2563eb"></circle><circle class="dot" cx="412.1448467966574" cy="0" r="3" fill="#2563eb"></circle><circle class="dot" cx="413.1476323119777" cy="0" r="3" fill="#2563eb"></circle><circle class="dot" cx="414.15041782729804" cy="0" r="3" fill="#2563eb"></circle><circle class="dot" cx="415.1532033426183" cy="0" r="3" fill="#2563eb"></circle><circle class="dot" cx="416.1559888579387" cy="0" r="3" fill="#2563eb"></circle><circle class="dot" cx="417.15877437325906" cy="0" r="3" fill="#2563eb"></circle><circle class="dot" cx="418.1615598885794" cy="0" r="3" fill="#2563eb"></circle><circle class="dot" cx="419.1643454038997" cy="0" r="3" fill="#2563eb"></circle><circle class="dot" cx="420.16713091922" cy="0" r="3" fill="#2563eb"></circle><circle class="dot" cx="421.1699164345404" cy="0" r="3" fill="#2563eb"></circle><circle class="dot" cx="422.17270194986077" cy="0" r="3" fill="#2563eb"></circle><circle class="dot" cx="423.17548746518105" cy="0" r="3" fill="#2563eb"></circle><circle class="dot" cx="424.1782729805014" cy="0" r="3" fill="#2563eb"></circle><circle class="dot" cx="425.18105849582173" cy="0" r="3" fill="#2563eb"></circle><circle class="dot" cx="426.1838440111421" cy="0" r="3" fill="#2563eb"></circle><circle class="dot" cx="427.1866295264624" cy="0" r="3" fill="#2563eb"></circle><circle class="dot" cx="428.18941504178275" cy="0" r="3" fill="#2563eb"></circle><circle class="dot" cx="429.19220055710304" cy="0" r="3" fill="#2563eb"></circle><circle class="dot" cx="430.1949860724234" cy="0" r="3" fill="#2563eb"></circle><circle class="dot" cx="431.1977715877437" cy="0" r="3" fill="#2563eb"></circle><circle class="dot" cx="432.2005571030641" cy="0" r="3" fill="#2563eb"></circle><circle class="dot" cx="433.2033426183844" cy="0" r="3" fill="#2563eb"></circle><circle class="dot" cx="434.20612813370474" cy="0" r="3" fill="#2563eb"></circle><circle class="dot" cx="435.2089136490251" cy="0" r="3" fill="#2563eb"></circle><circle class="dot" cx="436.21169916434536" cy="0" r="3" fill="#2563eb"></circle><circle class="dot" cx="437.21448467966576" cy="0" r="3" fill="#2563eb"></circle><circle class="dot" cx="438.2172701949861" cy="0" r="3" fill="#2563eb"></circle><circle class="dot" cx="439.2200557103064" cy="0" r="3" fill="#2563eb"></circle><circle class="dot" cx="440.2228412256267" cy="0" r="3" fill="#2563eb"></circle><circle class="dot" cx="441.22562674094706" cy="0" r="3" fill="#2563eb"></circle><circle class="dot" cx="442.22841225626746" cy="0" r="3" fill="#2563eb"></circle><circle class="dot" cx="443.23119777158774" cy="0" r="3" fill="#2563eb"></circle><circle class="dot" cx="444.2339832869081" cy="0" r="3" fill="#2563eb"></circle><circle class="dot" cx="445.2367688022284" cy="0" r="3" fill="#2563eb"></circle><circle class="dot" cx="446.2395543175487" cy="0" r="3" fill="#2563eb"></circle><circle class="dot" cx="447.24233983286905" cy="0" r="3" fill="#2563eb"></circle><circle class="dot" cx="448.24512534818945" cy="0" r="3" fill="#2563eb"></circle><circle class="dot" cx="449.2479108635098" cy="0" r="3" fill="#2563eb"></circle><circle class="dot" cx="450.25069637883007" cy="0" r="3" fill="#2563eb"></circle><circle class="dot" cx="451.2534818941504" cy="0" r="3" fill="#2563eb"></circle><circle class="dot" cx="452.2562674094707" cy="0" r="3" fill="#2563eb"></circle><circle class="dot" cx="453.2590529247911" cy="0" r="3" fill="#2563eb"></circle><circle class="dot" cx="454.26183844011143" cy="0" r="3" fill="#2563eb"></circle><circle class="dot" cx="455.2646239554318" cy="0" r="3" fill="#2563eb"></circle><circle class="dot" cx="456.26740947075206" cy="0" r="3" fill="#2563eb"></circle><circle class="dot" cx="457.2701949860724" cy="0" r="3" fill="#2563eb"></circle><circle class="dot" cx="458.2729805013928" cy="0" r="3" fill="#2563eb"></circle><circle class="dot" cx="459.27576601671313" cy="0" r="3" fill="#2563eb"></circle><circle class="dot" cx="460.2785515320334" cy="0" r="3" fill="#2563eb"></circle><circle class="dot" cx="461.28133704735376" cy="0" r="3" fill="#2563eb"></circle><circle class="dot" cx="462.28412256267404" cy="0" r="3" fill="#2563eb"></circle><circle class="dot" cx="463.28690807799444" cy="0" r="3" fill="#2563eb"></circle><circle class="dot" cx="464.2896935933148" cy="0" r="3" fill="#2563eb"></circle><circle class="dot" cx="465.2924791086351" cy="0" r="3" fill="#2563eb"></circle><circle class="dot" cx="466.2952646239554" cy="0" r="3" fill="#2563eb"></circle><circle class="dot" cx="467.29805013927574" cy="0" r="3" fill="#2563eb"></circle><circle class="dot" cx="468.3008356545961" cy="0" r="3" fill="#2563eb"></circle><circle class="dot" cx="469.3036211699165" cy="0" r="3" fill="#2563eb"></circle><circle class="dot" cx="470.30640668523677" cy="0" r="3" fill="#2563eb"></circle><circle class="dot" cx="471.3091922005571" cy="0" r="3" fill="#2563eb"></circle><circle class="dot" cx="472.31197771587745" cy="0" r="3" fill="#2563eb"></circle><circle class="dot" cx="473.31476323119773" cy="0" r="3" fill="#2563eb"></circle><circle class="dot" cx="474.3175487465181" cy="0" r="3" fill="#2563eb"></circle><circle class="dot" cx="475.32033426183847" cy="0" r="3" fill="#2563eb"></circle><circle class="dot" cx="476.32311977715875" cy="0" r="3" fill="#2563eb"></circle><circle class="dot" cx="477.3259052924791" cy="0" r="3" fill="#2563eb"></circle><circle class="dot" cx="478.32869080779943" cy="0" r="3" fill="#2563eb"></circle><circle class="dot" cx="479.33147632311983" cy="0" r="3" fill="#2563eb"></circle><circle class="dot" cx="480.3342618384401" cy="0" r="3" fill="#2563eb"></circle><circle class="dot" cx="481.33704735376045" cy="0" r="3" fill="#2563eb"></circle><circle class="dot" cx="482.3398328690808" cy="0" r="3" fill="#2563eb"></circle><circle class="dot" cx="483.3426183844011" cy="0" r="3" fill="#2563eb"></circle><circle class="dot" cx="484.3454038997214" cy="0" r="3" fill="#2563eb"></circle><circle class="dot" cx="485.3481894150418" cy="0" r="3" fill="#2563eb"></circle><circle class="dot" cx="486.3509749303621" cy="0" r="3" fill="#2563eb"></circle><circle class="dot" cx="487.35376044568244" cy="0" r="3" fill="#2563eb"></circle><circle class="dot" cx="488.3565459610028" cy="0" r="3" fill="#2563eb"></circle><circle class="dot" cx="489.35933147632306" cy="0" r="3" fill="#2563eb"></circle><circle class="dot" cx="490.36211699164346" cy="0" r="3" fill="#2563eb"></circle><circle class="dot" cx="491.3649025069638" cy="0" r="3" fill="#2563eb"></circle><circle class="dot" cx="492.36768802228414" cy="0" r="3" fill="#2563eb"></circle><circle class="dot" cx="493.3704735376044" cy="0" r="3" fill="#2563eb"></circle><circle class="dot" cx="494.37325905292477" cy="0" r="3" fill="#2563eb"></circle><circle class="dot" cx="495.37604456824516" cy="0" r="3" fill="#2563eb"></circle><circle class="dot" cx="496.3788300835655" cy="0" r="3" fill="#2563eb"></circle><circle class="dot" cx="497.3816155988858" cy="0" r="3" fill="#2563eb"></circle><circle class="dot" cx="498.3844011142061" cy="0" r="3" fill="#2563eb"></circle><circle class="dot" cx="499.3871866295264" cy="0" r="3" fill="#2563eb"></circle><circle class="dot" cx="500.3899721448468" cy="0" r="3" fill="#2563eb"></circle><circle class="dot" cx="501.39275766016715" cy="0" r="3" fill="#2563eb"></circle><circle class="dot" cx="502.3955431754875" cy="0" r="3" fill="#2563eb"></circle><circle class="dot" cx="503.3983286908078" cy="0" r="3" fill="#2563eb"></circle><circle class="dot" cx="504.4011142061281" cy="0" r="3" fill="#2563eb"></circle><circle class="dot" cx="505.40389972144845" cy="0" r="3" fill="#2563eb"></circle><circle class="dot" cx="506.40668523676885" cy="0" r="3" fill="#2563eb"></circle><circle class="dot" cx="507.40947075208913" cy="0" r="3" fill="#2563eb"></circle><circle class="dot" cx="508.4122562674095" cy="0" r="3" fill="#2563eb"></circle><circle class="dot" cx="509.41504178272976" cy="0" r="3" fill="#2563eb"></circle><circle class="dot" cx="510.4178272980501" cy="0" r="3" fill="#2563eb"></circle><circle class="dot" cx="511.4206128133705" cy="0" r="3" fill="#2563eb"></circle><circle class="dot" cx="512.4233983286908" cy="0" r="3" fill="#2563eb"></circle><circle class="dot" cx="513.4261838440111" cy="0" r="3" fill="#2563eb"></circle><circle class="dot" cx="514.4289693593315" cy="0" r="3" fill="#2563eb"></circle><circle class="dot" cx="515.4317548746518" cy="0" r="3" fill="#2563eb"></circle><circle class="dot" cx="516.4345403899722" cy="0" r="3" fill="#2563eb"></circle><circle class="dot" cx="517.4373259052925" cy="0" r="3" fill="#2563eb"></circle><circle class="dot" cx="518.4401114206128" cy="0" r="3" fill="#2563eb"></circle><circle class="dot" cx="519.4428969359332" cy="0" r="3" fill="#2563eb"></circle><circle class="dot" cx="520.4456824512534" cy="0" r="3" fill="#2563eb"></circle><circle class="dot" cx="521.4484679665737" cy="0" r="3" fill="#2563eb"></circle><circle class="dot" cx="522.4512534818941" cy="0" r="3" fill="#2563eb"></circle><circle class="dot" cx="523.4540389972145" cy="0" r="3" fill="#2563eb"></circle><circle class="dot" cx="524.4568245125348" cy="0" r="3" fill="#2563eb"></circle><circle class="dot" cx="525.4596100278551" cy="0" r="3" fill="#2563eb"></circle><circle class="dot" cx="526.4623955431755" cy="0" r="3" fill="#2563eb"></circle><circle class="dot" cx="527.4651810584959" cy="0" r="3" fill="#2563eb"></circle><circle class="dot" cx="528.4679665738162" cy="0" r="3" fill="#2563eb"></circle><circle class="dot" cx="529.4707520891365" cy="0" r="3" fill="#2563eb"></circle><circle class="dot" cx="530.4735376044569" cy="0" r="3" fill="#2563eb"></circle><circle class="dot" cx="531.4763231197771" cy="0" r="3" fill="#2563eb"></circle><circle class="dot" cx="532.4791086350975" cy="0" r="3" fill="#2563eb"></circle><circle class="dot" cx="533.4818941504178" cy="0" r="3" fill="#2563eb"></circle><circle class="dot" cx="534.4846796657382" cy="0" r="3" fill="#2563eb"></circle><circle class="dot" cx="535.4874651810585" cy="0" r="3" fill="#2563eb"></circle><circle class="dot" cx="536.4902506963788" cy="0" r="3" fill="#2563eb"></circle><circle class="dot" cx="537.4930362116992" cy="0" r="3" fill="#2563eb"></circle><circle class="dot" cx="538.4958217270196" cy="0" r="3" fill="#2563eb"></circle><circle class="dot" cx="539.4986072423399" cy="0" r="3" fill="#2563eb"></circle><circle class="dot" cx="540.5013927576601" cy="0" r="3" fill="#2563eb"></circle><circle class="dot" cx="541.5041782729804" cy="0" r="3" fill="#2563eb"></circle><circle class="dot" cx="542.5069637883008" cy="0" r="3" fill="#2563eb"></circle><circle class="dot" cx="543.5097493036212" cy="0" r="3" fill="#2563eb"></circle><circle class="dot" cx="544.5125348189415" cy="0" r="3" fill="#2563eb"></circle><circle class="dot" cx="545.5153203342618" cy="0" r="3" fill="#2563eb"></circle><circle class="dot" cx="546.5181058495822" cy="0" r="3" fill="#2563eb"></circle><circle class="dot" cx="547.5208913649025" cy="0" r="3" fill="#2563eb"></circle><circle class="dot" cx="548.5236768802229" cy="0" r="3" fill="#2563eb"></circle><circle class="dot" cx="549.5264623955431" cy="0" r="3" fill="#2563eb"></circle><circle class="dot" cx="550.5292479108635" cy="0" r="3" fill="#2563eb"></circle><circle class="dot" cx="551.5320334261838" cy="0" r="3" fill="#2563eb"></circle><circle class="dot" cx="552.5348189415041" cy="0" r="3" fill="#2563eb"></circle><circle class="dot" cx="553.5376044568245" cy="0" r="3" fill="#2563eb"></circle><circle class="dot" cx="554.5403899721449" cy="0" r="3" fill="#2563eb"></circle><circle class="dot" cx="555.5431754874652" cy="0" r="3" fill="#2563eb"></circle><circle class="dot" cx="556.5459610027855" cy="0" r="3" fill="#2563eb"></circle><circle class="dot" cx="557.5487465181059" cy="0" r="3" fill="#2563eb"></circle><circle class="dot" cx="558.5515320334263" cy="0" r="3" fill="#2563eb"></circle><circle class="dot" cx="559.5543175487466" cy="0" r="3" fill="#2563eb"></circle><circle class="dot" cx="560.5571030640668" cy="0" r="3" fill="#2563eb"></circle><circle class="dot" cx="561.5598885793872" cy="0" r="3" fill="#2563eb"></circle><circle class="dot" cx="562.5626740947075" cy="0" r="3" fill="#2563eb"></circle><circle class="dot" cx="563.5654596100278" cy="0" r="3" fill="#2563eb"></circle><circle class="dot" cx="564.5682451253482" cy="0" r="3" fill="#2563eb"></circle><circle class="dot" cx="565.5710306406685" cy="0" r="3" fill="#2563eb"></circle><circle class="dot" cx="566.5738161559889" cy="0" r="3" fill="#2563eb"></circle><circle class="dot" cx="567.5766016713092" cy="0" r="3" fill="#2563eb"></circle><circle class="dot" cx="568.5793871866294" cy="0" r="3" fill="#2563eb"></circle><circle class="dot" cx="569.5821727019498" cy="0" r="3" fill="#2563eb"></circle><circle class="dot" cx="570.5849582172702" cy="0" r="3" fill="#2563eb"></circle><circle class="dot" cx="571.5877437325905" cy="0" r="3" fill="#2563eb"></circle><circle class="dot" cx="572.5905292479108" cy="0" r="3" fill="#2563eb"></circle><circle class="dot" cx="573.5933147632312" cy="0" r="3" fill="#2563eb"></circle><circle class="dot" cx="574.5961002785516" cy="0" r="3" fill="#2563eb"></circle><circle class="dot" cx="575.5988857938719" cy="0" r="3" fill="#2563eb"></circle><circle class="dot" cx="576.6016713091922" cy="0" r="3" fill="#2563eb"></circle><circle class="dot" cx="577.6044568245126" cy="0" r="3" fill="#2563eb"></circle><circle class="dot" cx="578.6072423398329" cy="0" r="3" fill="#2563eb"></circle><circle class="dot" cx="579.6100278551531" cy="0" r="3" fill="#2563eb"></circle><circle class="dot" cx="580.6128133704735" cy="0" r="3" fill="#2563eb"></circle><circle class="dot" cx="581.6155988857939" cy="0" r="3" fill="#2563eb"></circle><circle class="dot" cx="582.6183844011142" cy="0" r="3" fill="#2563eb"></circle><circle class="dot" cx="583.6211699164345" cy="0" r="3" fill="#2563eb"></circle><circle class="dot" cx="584.6239554317549" cy="0" r="3" fill="#2563eb"></circle><circle class="dot" cx="585.6267409470753" cy="0" r="3" fill="#2563eb"></circle><circle class="dot" cx="586.6295264623956" cy="0" r="3" fill="#2563eb"></circle><circle class="dot" cx="587.6323119777159" cy="0" r="3" fill="#2563eb"></circle><circle class="dot" cx="588.6350974930361" cy="0" r="3" fill="#2563eb"></circle><circle class="dot" cx="589.6378830083565" cy="0" r="3" fill="#2563eb"></circle><circle class="dot" cx="590.6406685236769" cy="0" r="3" fill="#2563eb"></circle><circle class="dot" cx="591.6434540389972" cy="0" r="3" fill="#2563eb"></circle><circle class="dot" cx="592.6462395543175" cy="0" r="3" fill="#2563eb"></circle><circle class="dot" cx="593.6490250696379" cy="0" r="3" fill="#2563eb"></circle><circle class="dot" cx="594.6518105849582" cy="0" r="3" fill="#2563eb"></circle><circle class="dot" cx="595.6545961002786" cy="0" r="3" fill="#2563eb"></circle><circle class="dot" cx="596.6573816155989" cy="0" r="3" fill="#2563eb"></circle><circle class="dot" cx="597.6601671309193" cy="0" r="3" fill="#2563eb"></circle><circle class="dot" cx="598.6629526462395" cy="0" r="3" fill="#2563eb"></circle><circle class="dot" cx="599.6657381615598" cy="0" r="3" fill="#2563eb"></circle><circle class="dot" cx="600.6685236768802" cy="0" r="3" fill="#2563eb"></circle><circle class="dot" cx="601.6713091922006" cy="0" r="3" fill="#2563eb"></circle><circle class="dot" cx="602.6740947075209" cy="0" r="3" fill="#2563eb"></circle><circle class="dot" cx="603.6768802228412" cy="0" r="3" fill="#2563eb"></circle><circle class="dot" cx="604.6796657381616" cy="0" r="3" fill="#2563eb"></circle><circle class="dot" cx="605.6824512534819" cy="0" r="3" fill="#2563eb"></circle><circle class="dot" cx="606.6852367688023" cy="0" r="3" fill="#2563eb"></circle><circle class="dot" cx="607.6880222841226" cy="0" r="3" fill="#2563eb"></circle><circle class="dot" cx="608.690807799443" cy="0" r="3" fill="#2563eb"></circle><circle class="dot" cx="609.6935933147632" cy="0" r="3" fill="#2563eb"></circle><circle class="dot" cx="610.6963788300835" cy="0" r="3" fill="#2563eb"></circle><circle class="dot" cx="611.6991643454039" cy="0" r="3" fill="#2563eb"></circle><circle class="dot" cx="612.7019498607242" cy="0" r="3" fill="#2563eb"></circle><circle class="dot" cx="613.7047353760446" cy="0" r="3" fill="#2563eb"></circle><circle class="dot" cx="614.7075208913649" cy="0" r="3" fill="#2563eb"></circle><circle class="dot" cx="615.7103064066852" cy="0" r="3" fill="#2563eb"></circle><circle class="dot" cx="616.7130919220056" cy="0" r="3" fill="#2563eb"></circle><circle class="dot" cx="617.715877437326" cy="0" r="3" fill="#2563eb"></circle><circle class="dot" cx="618.7186629526462" cy="0" r="3" fill="#2563eb"></circle><circle class="dot" cx="619.7214484679665" cy="0" r="3" fill="#2563eb"></circle><circle class="dot" cx="620.7242339832869" cy="0" r="3" fill="#2563eb"></circle><circle class="dot" cx="621.7270194986072" cy="0" r="3" fill="#2563eb"></circle><circle class="dot" cx="622.7298050139276" cy="0" r="3" fill="#2563eb"></circle><circle class="dot" cx="623.7325905292479" cy="0" r="3" fill="#2563eb"></circle><circle class="dot" cx="624.7353760445683" cy="0" r="3" fill="#2563eb"></circle><circle class="dot" cx="625.7381615598886" cy="0" r="3" fill="#2563eb"></circle><circle class="dot" cx="626.7409470752089" cy="0" r="3" fill="#2563eb"></circle><circle class="dot" cx="627.7437325905292" cy="0" r="3" fill="#2563eb"></circle><circle class="dot" cx="628.7465181058496" cy="0" r="3" fill="#2563eb"></circle><circle class="dot" cx="629.7493036211699" cy="0" r="3" fill="#2563eb"></circle><circle class="dot" cx="630.7520891364902" cy="0" r="3" fill="#2563eb"></circle><circle class="dot" cx="631.7548746518106" cy="0" r="3" fill="#2563eb"></circle><circle class="dot" cx="632.757660167131" cy="0" r="3" fill="#2563eb"></circle><circle class="dot" cx="633.7604456824513" cy="0" r="3" fill="#2563eb"></circle><circle class="dot" cx="634.7632311977716" cy="0" r="3" fill="#2563eb"></circle><circle class="dot" cx="635.7660167130919" cy="0" r="3" fill="#2563eb"></circle><circle class="dot" cx="636.7688022284123" cy="0" r="3" fill="#2563eb"></circle><circle class="dot" cx="637.7715877437325" cy="0" r="3" fill="#2563eb"></circle><circle class="dot" cx="638.7743732590529" cy="0" r="3" fill="#2563eb"></circle><circle class="dot" cx="639.7771587743732" cy="0" r="3" fill="#2563eb"></circle><circle class="dot" cx="640.7799442896936" cy="0" r="3" fill="#2563eb"></circle><circle class="dot" cx="641.7827298050139" cy="0" r="3" fill="#2563eb"></circle><circle class="dot" cx="642.7855153203342" cy="0" r="3" fill="#2563eb"></circle><circle class="dot" cx="643.7883008356546" cy="0" r="3" fill="#2563eb"></circle><circle class="dot" cx="644.791086350975" cy="0" r="3" fill="#2563eb"></circle><circle class="dot" cx="645.7938718662953" cy="0" r="3" fill="#2563eb"></circle><circle class="dot" cx="646.7966573816155" cy="0" r="3" fill="#2563eb"></circle><circle class="dot" cx="647.799442896936" cy="0" r="3" fill="#2563eb"></circle><circle class="dot" cx="648.8022284122563" cy="0" r="3" fill="#2563eb"></circle><circle class="dot" cx="649.8050139275766" cy="0" r="3" fill="#2563eb"></circle><circle class="dot" cx="650.8077994428969" cy="0" r="3" fill="#2563eb"></circle><circle class="dot" cx="651.8105849582173" cy="0" r="3" fill="#2563eb"></circle><circle class="dot" cx="652.8133704735376" cy="0" r="3" fill="#2563eb"></circle><circle class="dot" cx="653.8161559888579" cy="0" r="3" fill="#2563eb"></circle><circle class="dot" cx="654.8189415041783" cy="0" r="3" fill="#2563eb"></circle><circle class="dot" cx="655.8217270194987" cy="0" r="3" fill="#2563eb"></circle><circle class="dot" cx="656.824512534819" cy="0" r="3" fill="#2563eb"></circle><circle class="dot" cx="657.8272980501392" cy="0" r="3" fill="#2563eb"></circle><circle class="dot" cx="658.8300835654595" cy="0" r="3" fill="#2563eb"></circle><circle class="dot" cx="659.83286908078" cy="0" r="3" fill="#2563eb"></circle><circle class="dot" cx="660.8356545961003" cy="0" r="3" fill="#2563eb"></circle><circle class="dot" cx="661.8384401114206" cy="0" r="3" fill="#2563eb"></circle><circle class="dot" cx="662.8412256267409" cy="0" r="3" fill="#2563eb"></circle><circle class="dot" cx="663.8440111420613" cy="0" r="3" fill="#2563eb"></circle><circle class="dot" cx="664.8467966573817" cy="0" r="3" fill="#2563eb"></circle><circle class="dot" cx="665.849582172702" cy="0" r="3" fill="#2563eb"></circle><circle class="dot" cx="666.8523676880222" cy="0" r="3" fill="#2563eb"></circle><circle class="dot" cx="667.8551532033426" cy="0" r="3" fill="#2563eb"></circle><circle class="dot" cx="668.8579387186629" cy="0" r="3" fill="#2563eb"></circle><circle class="dot" cx="669.8607242339833" cy="0" r="3" fill="#2563eb"></circle><circle class="dot" cx="670.8635097493036" cy="0" r="3" fill="#2563eb"></circle><circle class="dot" cx="671.866295264624" cy="0" r="3" fill="#2563eb"></circle><circle class="dot" cx="672.8690807799443" cy="0" r="3" fill="#2563eb"></circle><circle class="dot" cx="673.8718662952646" cy="0" r="3" fill="#2563eb"></circle><circle class="dot" cx="674.874651810585" cy="0" r="3" fill="#2563eb"></circle><circle class="dot" cx="675.8774373259054" cy="0" r="3" fill="#2563eb"></circle><circle class="dot" cx="676.8802228412256" cy="0" r="3" fill="#2563eb"></circle><circle class="dot" cx="677.8830083565459" cy="0" r="3" fill="#2563eb"></circle><circle class="dot" cx="678.8857938718663" cy="0" r="3" fill="#2563eb"></circle><circle class="dot" cx="679.8885793871866" cy="0" r="3" fill="#2563eb"></circle><circle class="dot" cx="680.891364902507" cy="0" r="3" fill="#2563eb"></circle><circle class="dot" cx="681.8941504178273" cy="0" r="3" fill="#2563eb"></circle><circle class="dot" cx="682.8969359331477" cy="0" r="3" fill="#2563eb"></circle><circle class="dot" cx="683.899721448468" cy="0" r="3" fill="#2563eb"></circle><circle class="dot" cx="684.9025069637883" cy="0" r="3" fill="#2563eb"></circle><circle class="dot" cx="685.9052924791087" cy="0" r="3" fill="#2563eb"></circle><circle class="dot" cx="686.9080779944289" cy="0" r="3" fill="#2563eb"></circle><circle class="dot" cx="687.9108635097493" cy="0" r="3" fill="#2563eb"></circle><circle class="dot" cx="688.9136490250696" cy="0" r="3" fill="#2563eb"></circle><circle class="dot" cx="689.9164345403899" cy="0" r="3" fill="#2563eb"></circle><circle class="dot" cx="690.9192200557103" cy="0" r="3" fill="#2563eb"></circle><circle class="dot" cx="691.9220055710307" cy="0" r="3" fill="#2563eb"></circle><circle class="dot" cx="692.924791086351" cy="0" r="3" fill="#2563eb"></circle><circle class="dot" cx="693.9275766016713" cy="0" r="3" fill="#2563eb"></circle><circle class="dot" cx="694.9303621169917" cy="0" r="3" fill="#2563eb"></circle><circle class="dot" cx="695.933147632312" cy="0" r="3" fill="#2563eb"></circle><circle class="dot" cx="696.9359331476323" cy="0" r="3" fill="#2563eb"></circle><circle class="dot" cx="697.9387186629526" cy="0" r="3" fill="#2563eb"></circle><circle class="dot" cx="698.941504178273" cy="0" r="3" fill="#2563eb"></circle><circle class="dot" cx="699.9442896935933" cy="0" r="3" fill="#2563eb"></circle><circle class="dot" cx="700.9470752089136" cy="0" r="3" fill="#2563eb"></circle><circle class="dot" cx="701.949860724234" cy="0" r="3" fill="#2563eb"></circle><circle class="dot" cx="702.9526462395544" cy="0" r="3" fill="#2563eb"></circle><circle class="dot" cx="703.9554317548747" cy="0" r="3" fill="#2563eb"></circle><circle class="dot" cx="704.958217270195" cy="0" r="3" fill="#2563eb"></circle><circle class="dot" cx="705.9610027855153" cy="0" r="3" fill="#2563eb"></circle><circle class="dot" cx="706.9637883008357" cy="0" r="3" fill="#2563eb"></circle><circle class="dot" cx="707.966573816156" cy="0" r="3" fill="#2563eb"></circle><circle class="dot" cx="708.9693593314763" cy="0" r="3" fill="#2563eb"></circle><circle class="dot" cx="709.9721448467966" cy="0" r="3" fill="#2563eb"></circle><circle class="dot" cx="710.974930362117" cy="0" r="3" fill="#2563eb"></circle><circle class="dot" cx="711.9777158774373" cy="0" r="3" fill="#2563eb"></circle><circle class="dot" cx="712.9805013927577" cy="0" r="3" fill="#2563eb"></circle><circle class="dot" cx="713.983286908078" cy="0" r="3" fill="#2563eb"></circle><circle class="dot" cx="714.9860724233984" cy="0" r="3" fill="#2563eb"></circle><circle class="dot" cx="715.9888579387186" cy="0" r="3" fill="#2563eb"></circle><circle class="dot" cx="716.9916434540389" cy="0" r="3" fill="#2563eb"></circle><circle class="dot" cx="717.9944289693593" cy="0" r="3" fill="#2563eb"></circle><circle class="dot" cx="718.9972144846797" cy="0" r="3" fill="#2563eb"></circle><circle class="dot" cx="720" cy="0" r="3" fill="#2563eb"></circle><g class="grid" transform="translate(0,340)" fill="none" font-size="10" font-family="sans-serif" text-anchor="middle" style="stroke-dasharray: 3,3; opacity: 0.3;"><path class="domain" stroke="currentColor" d="M0.5,-340V0.5H720.5V-340"></path><g class="tick" opacity="1" transform="translate(0.5,0)"><line stroke="currentColor" y2="-340"></line><text fill="currentColor" y="3" dy="0.71em"></text></g><g class="tick" opacity="1" transform="translate(24.566852367688025,0)"><line stroke="currentColor" y2="-340"></line><text fill="currentColor" y="3" dy="0.71em"></text></g><g class="tick" opacity="1" transform="translate(48.63370473537605,0)"><line stroke="currentColor" y2="-340"></line><text fill="currentColor" y="3" dy="0.71em"></text></g><g class="tick" opacity="1" transform="translate(72.70055710306407,0)"><line stroke="currentColor" y2="-340"></line><text fill="currentColor" y="3" dy="0.71em"></text></g><g class="tick" opacity="1" transform="translate(96.7674094707521,0)"><line stroke="currentColor" y2="-340"></line><text fill="currentColor" y="3" dy="0.71em"></text></g><g class="tick" opacity="1" transform="translate(120.83426183844011,0)"><line stroke="currentColor" y2="-340"></line><text fill="currentColor" y="3" dy="0.71em"></text></g><g class="tick" opacity="1" transform="translate(144.90111420612814,0)"><line stroke="currentColor" y2="-340"></line><text fill="currentColor" y="3" dy="0.71em"></text></g><g class="tick" opacity="1" transform="translate(168.96796657381614,0)"><line stroke="currentColor" y2="-340"></line><text fill="currentColor" y="3" dy="0.71em"></text></g><g class="tick" opacity="1" transform="translate(193.0348189415042,0)"><line stroke="currentColor" y2="-340"></line><text fill="currentColor" y="3" dy="0.71em"></text></g><g class="tick" opacity="1" transform="translate(217.1016713091922,0)"><line stroke="currentColor" y2="-340"></line><text fill="currentColor" y="3" dy="0.71em"></text></g><g class="tick" opacity="1" transform="translate(241.16852367688023,0)"><line stroke="currentColor" y2="-340"></line><text fill="currentColor" y="3" dy="0.71em"></text></g><g class="tick" opacity="1" transform="translate(265.2353760445682,0)"><line stroke="currentColor" y2="-340"></line><text fill="currentColor" y="3" dy="0.71em"></text></g><g class="tick" opacity="1" transform="translate(289.3022284122563,0)"><line stroke="currentColor" y2="-340"></line><text fill="currentColor" y="3" dy="0.71em"></text></g><g class="tick" opacity="1" transform="translate(313.3690807799443,0)"><line stroke="currentColor" y2="-340"></line><text fill="currentColor" y="3" dy="0.71em"></text></g><g class="tick" opacity="1" transform="translate(337.4359331476323,0)"><line stroke="currentColor" y2="-340"></line><text fill="currentColor" y="3" dy="0.71em"></text></g><g class="tick" opacity="1" transform="translate(361.50278551532034,0)"><line stroke="currentColor" y2="-340"></line><text fill="currentColor" y="3" dy="0.71em"></text></g><g class="tick" opacity="1" transform="translate(385.5696378830084,0)"><line stroke="currentColor" y2="-340"></line><text fill="currentColor" y="3" dy="0.71em"></text></g><g class="tick" opacity="1" transform="translate(409.63649025069634,0)"><line stroke="currentColor" y2="-340"></line><text fill="currentColor" y="3" dy="0.71em"></text></g><g class="tick" opacity="1" transform="translate(433.7033426183844,0)"><line stroke="currentColor" y2="-340"></line><text fill="currentColor" y="3" dy="0.71em"></text></g><g class="tick" opacity="1" transform="translate(457.7701949860724,0)"><line stroke="currentColor" y2="-340"></line><text fill="currentColor" y="3" dy="0.71em"></text></g><g class="tick" opacity="1" transform="translate(481.83704735376045,0)"><line stroke="currentColor" y2="-340"></line><text fill="currentColor" y="3" dy="0.71em"></text></g><g class="tick" opacity="1" transform="translate(505.90389972144845,0)"><line stroke="currentColor" y2="-340"></line><text fill="currentColor" y="3" dy="0.71em"></text></g><g class="tick" opacity="1" transform="translate(529.9707520891365,0)"><line stroke="currentColor" y2="-340"></line><text fill="currentColor" y="3" dy="0.71em"></text></g><g class="tick" opacity="1" transform="translate(554.0376044568245,0)"><line stroke="currentColor" y2="-340"></line><text fill="currentColor" y="3" dy="0.71em"></text></g><g class="tick" opacity="1" transform="translate(578.1044568245126,0)"><line stroke="currentColor" y2="-340"></line><text fill="currentColor" y="3" dy="0.71em"></text></g><g class="tick" opacity="1" transform="translate(602.1713091922006,0)"><line stroke="currentColor" y2="-340"></line><text fill="currentColor" y="3" dy="0.71em"></text></g><g class="tick" opacity="1" transform="translate(626.2381615598886,0)"><line stroke="currentColor" y2="-340"></line><text fill="currentColor" y="3" dy="0.71em"></text></g><g class="tick" opacity="1" transform="translate(650.3050139275766,0)"><line stroke="currentColor" y2="-340"></line><text fill="currentColor" y="3" dy="0.71em"></text></g><g class="tick" opacity="1" transform="translate(674.3718662952646,0)"><line stroke="currentColor" y2="-340"></line><text fill="currentColor" y="3" dy="0.71em"></text></g><g class="tick" opacity="1" transform="translate(698.4387186629526,0)"><line stroke="currentColor" y2="-340"></line><text fill="currentColor" y="3" dy="0.71em"></text></g></g><g class="grid" fill="none" font-size="10" font-family="sans-serif" text-anchor="end" style="stroke-dasharray: 3,3; opacity: 0.3;"><path class="domain" stroke="currentColor" d="M720,340.5H0.5V0.5H720"></path><g class="tick" opacity="1" transform="translate(0,340.5)"><line stroke="currentColor" x2="720"></line><text fill="currentColor" x="-3" dy="0.32em"></text></g><g class="tick" opacity="1" transform="translate(0,312.16666666666663)"><line stroke="currentColor" x2="720"></line><text fill="currentColor" x="-3" dy="0.32em"></text></g><g class="tick" opacity="1" transform="translate(0,283.83333333333326)"><line stroke="currentColor" x2="720"></line><text fill="currentColor" x="-3" dy="0.32em"></text></g><g class="tick" opacity="1" transform="translate(0,255.49999999999991)"><line stroke="currentColor" x2="720"></line><text fill="currentColor" x="-3" dy="0.32em"></text></g><g class="tick" opacity="1" transform="translate(0,227.16666666666654)"><line stroke="currentColor" x2="720"></line><text fill="currentColor" x="-3" dy="0.32em"></text></g><g class="tick" opacity="1" transform="translate(0,198.83333333333314)"><line stroke="currentColor" x2="720"></line><text fill="currentColor" x="-3" dy="0.32em"></text></g><g class="tick" opacity="1" transform="translate(0,170.4999999999998)"><line stroke="currentColor" x2="720"></line><text fill="currentColor" x="-3" dy="0.32em"></text></g><g class="tick" opacity="1" transform="translate(0,142.16666666666686)"><line stroke="currentColor" x2="720"></line><text fill="currentColor" x="-3" dy="0.32em"></text></g><g class="tick" opacity="1" transform="translate(0,113.83333333333346)"><line stroke="currentColor" x2="720"></line><text fill="currentColor" x="-3" dy="0.32em"></text></g><g class="tick" opacity="1" transform="translate(0,85.50000000000011)"><line stroke="currentColor" x2="720"></line><text fill="currentColor" x="-3" dy="0.32em"></text></g><g class="tick" opacity="1" transform="translate(0,57.16666666666673)"><line stroke="currentColor" x2="720"></line><text fill="currentColor" x="-3" dy="0.32em"></text></g><g class="tick" opacity="1" transform="translate(0,28.833333333333385)"><line stroke="currentColor" x2="720"></line><text fill="currentColor" x="-3" dy="0.32em"></text></g><g class="tick" opacity="1" transform="translate(0,0.5)"><line stroke="currentColor" x2="720"></line><text fill="currentColor" x="-3" dy="0.32em"></text></g></g></g><text x="400" y="10" text-anchor="middle" style="font-size: 16px; font-weight: bold; fill: #333;">OKX USDT Lending Rate - Current Month</text></svg>