<svg width="800" height="400" xmlns="http://www.w3.org/2000/svg"><g transform="translate(50,20)"><g transform="translate(0,340)" fill="none" font-size="10" font-family="sans-serif" text-anchor="middle"><path class="domain" stroke="currentColor" d="M0.5,6V0.5H720.5V6"></path><g class="tick" opacity="1" transform="translate(0.5,0)"><line stroke="currentColor" y2="6"></line><text fill="currentColor" y="9" dy=".15em" style="text-anchor: end;" dx="-.8em" transform="rotate(-45)">04/01</text></g><g class="tick" opacity="1" transform="translate(32.61895910780669,0)"><line stroke="currentColor" y2="6"></line><text fill="currentColor" y="9" dy=".15em" style="text-anchor: end;" dx="-.8em" transform="rotate(-45)">04/02</text></g><g class="tick" opacity="1" transform="translate(64.73791821561338,0)"><line stroke="currentColor" y2="6"></line><text fill="currentColor" y="9" dy=".15em" style="text-anchor: end;" dx="-.8em" transform="rotate(-45)">04/03</text></g><g class="tick" opacity="1" transform="translate(96.85687732342006,0)"><line stroke="currentColor" y2="6"></line><text fill="currentColor" y="9" dy=".15em" style="text-anchor: end;" dx="-.8em" transform="rotate(-45)">04/04</text></g><g class="tick" opacity="1" transform="translate(128.97583643122675,0)"><line stroke="currentColor" y2="6"></line><text fill="currentColor" y="9" dy=".15em" style="text-anchor: end;" dx="-.8em" transform="rotate(-45)">04/05</text></g><g class="tick" opacity="1" transform="translate(161.09479553903344,0)"><line stroke="currentColor" y2="6"></line><text fill="currentColor" y="9" dy=".15em" style="text-anchor: end;" dx="-.8em" transform="rotate(-45)">04/06</text></g><g class="tick" opacity="1" transform="translate(193.21375464684013,0)"><line stroke="currentColor" y2="6"></line><text fill="currentColor" y="9" dy=".15em" style="text-anchor: end;" dx="-.8em" transform="rotate(-45)">04/07</text></g><g class="tick" opacity="1" transform="translate(225.33271375464685,0)"><line stroke="currentColor" y2="6"></line><text fill="currentColor" y="9" dy=".15em" style="text-anchor: end;" dx="-.8em" transform="rotate(-45)">04/08</text></g><g class="tick" opacity="1" transform="translate(257.4516728624535,0)"><line stroke="currentColor" y2="6"></line><text fill="currentColor" y="9" dy=".15em" style="text-anchor: end;" dx="-.8em" transform="rotate(-45)">04/09</text></g><g class="tick" opacity="1" transform="translate(289.57063197026025,0)"><line stroke="currentColor" y2="6"></line><text fill="currentColor" y="9" dy=".15em" style="text-anchor: end;" dx="-.8em" transform="rotate(-45)">04/10</text></g><g class="tick" opacity="1" transform="translate(321.6895910780669,0)"><line stroke="currentColor" y2="6"></line><text fill="currentColor" y="9" dy=".15em" style="text-anchor: end;" dx="-.8em" transform="rotate(-45)">04/11</text></g><g class="tick" opacity="1" transform="translate(353.8085501858736,0)"><line stroke="currentColor" y2="6"></line><text fill="currentColor" y="9" dy=".15em" style="text-anchor: end;" dx="-.8em" transform="rotate(-45)">04/12</text></g><g class="tick" opacity="1" transform="translate(385.92750929368026,0)"><line stroke="currentColor" y2="6"></line><text fill="currentColor" y="9" dy=".15em" style="text-anchor: end;" dx="-.8em" transform="rotate(-45)">04/13</text></g><g class="tick" opacity="1" transform="translate(418.04646840148695,0)"><line stroke="currentColor" y2="6"></line><text fill="currentColor" y="9" dy=".15em" style="text-anchor: end;" dx="-.8em" transform="rotate(-45)">04/14</text></g><g class="tick" opacity="1" transform="translate(450.1654275092937,0)"><line stroke="currentColor" y2="6"></line><text fill="currentColor" y="9" dy=".15em" style="text-anchor: end;" dx="-.8em" transform="rotate(-45)">04/15</text></g><g class="tick" opacity="1" transform="translate(482.2843866171004,0)"><line stroke="currentColor" y2="6"></line><text fill="currentColor" y="9" dy=".15em" style="text-anchor: end;" dx="-.8em" transform="rotate(-45)">04/16</text></g><g class="tick" opacity="1" transform="translate(514.403345724907,0)"><line stroke="currentColor" y2="6"></line><text fill="currentColor" y="9" dy=".15em" style="text-anchor: end;" dx="-.8em" transform="rotate(-45)">04/17</text></g><g class="tick" opacity="1" transform="translate(546.5223048327138,0)"><line stroke="currentColor" y2="6"></line><text fill="currentColor" y="9" dy=".15em" style="text-anchor: end;" dx="-.8em" transform="rotate(-45)">04/18</text></g><g class="tick" opacity="1" transform="translate(578.6412639405205,0)"><line stroke="currentColor" y2="6"></line><text fill="currentColor" y="9" dy=".15em" style="text-anchor: end;" dx="-.8em" transform="rotate(-45)">04/19</text></g><g class="tick" opacity="1" transform="translate(610.7602230483271,0)"><line stroke="currentColor" y2="6"></line><text fill="currentColor" y="9" dy=".15em" style="text-anchor: end;" dx="-.8em" transform="rotate(-45)">04/20</text></g><g class="tick" opacity="1" transform="translate(642.8791821561338,0)"><line stroke="currentColor" y2="6"></line><text fill="currentColor" y="9" dy=".15em" style="text-anchor: end;" dx="-.8em" transform="rotate(-45)">04/21</text></g><g class="tick" opacity="1" transform="translate(674.9981412639405,0)"><line stroke="currentColor" y2="6"></line><text fill="currentColor" y="9" dy=".15em" style="text-anchor: end;" dx="-.8em" transform="rotate(-45)">04/22</text></g><g class="tick" opacity="1" transform="translate(707.1171003717473,0)"><line stroke="currentColor" y2="6"></line><text fill="currentColor" y="9" dy=".15em" style="text-anchor: end;" dx="-.8em" transform="rotate(-45)">04/23</text></g></g><g fill="none" font-size="10" font-family="sans-serif" text-anchor="end"><path class="domain" stroke="currentColor" d="M-6,340.5H0.5V0.5H-6"></path><g class="tick" opacity="1" transform="translate(0,170.5)"><line stroke="currentColor" x2="-6"></line><text fill="currentColor" x="-9" dy="0.32em">2.50%</text></g></g><text transform="rotate(-90)" y="-50" x="-170" dy="1em" style="text-anchor: middle; font-size: 12px; fill: #666;">Pre Rate (%)</text><text transform="translate(360, 380)" style="text-anchor: middle; font-size: 12px; fill: #666;">Time (UTC)</text><path fill="none" stroke="#2563eb" stroke-width="2" d="M0,170C0.446,170,0.892,170,1.338,170C1.784,170,2.23,170,2.677,170C3.123,170,3.569,170,4.015,170C4.461,170,4.907,170,5.353,170C5.799,170,6.245,170,6.691,170C7.138,170,7.584,170,8.03,170C8.476,170,8.922,170,9.368,170C9.814,170,10.26,170,10.706,170C11.152,170,11.599,170,12.045,170C12.491,170,12.937,170,13.383,170C13.829,170,14.275,170,14.721,170C15.167,170,15.613,170,16.059,170C16.506,170,16.952,170,17.398,170C17.844,170,18.29,170,18.736,170C19.182,170,19.628,170,20.074,170C20.52,170,20.967,170,21.413,170C21.859,170,22.305,170,22.751,170C23.197,170,23.643,170,24.089,170C24.535,170,24.981,170,25.428,170C25.874,170,26.32,170,26.766,170C27.212,170,27.658,170,28.104,170C28.55,170,28.996,170,29.442,170C29.888,170,30.335,170,30.781,170C31.227,170,31.673,170,32.119,170C32.565,170,33.011,170,33.457,170C33.903,170,34.349,170,34.796,170C35.242,170,35.688,170,36.134,170C36.58,170,37.026,170,37.472,170C37.918,170,38.364,170,38.81,170C39.257,170,39.703,170,40.149,170C40.595,170,41.041,170,41.487,170C41.933,170,42.379,170,42.825,170C43.271,170,43.717,170,44.164,170C44.61,170,45.056,170,45.502,170C45.948,170,46.394,170,46.84,170C47.286,170,47.732,170,48.178,170C48.625,170,49.071,170,49.517,170C49.963,170,50.409,170,50.855,170C51.301,170,51.747,170,52.193,170C52.639,170,53.086,170,53.532,170C53.978,170,54.424,170,54.87,170C55.316,170,55.762,170,56.208,170C56.654,170,57.1,170,57.546,170C57.993,170,58.439,170,58.885,170C59.331,170,59.777,170,60.223,170C60.669,170,61.115,170,61.561,170C62.007,170,62.454,170,62.9,170C63.346,170,63.792,170,64.238,170C64.684,170,65.13,170,65.576,170C66.022,170,66.468,170,66.914,170C67.361,170,67.807,170,68.253,170C68.699,170,69.145,170,69.591,170C70.037,170,70.483,170,70.929,170C71.375,170,71.822,170,72.268,170C72.714,170,73.16,170,73.606,170C74.052,170,74.498,170,74.944,170C75.39,170,75.836,170,76.283,170C76.729,170,77.175,170,77.621,170C78.067,170,78.513,170,78.959,170C79.405,170,79.851,170,80.297,170C80.743,170,81.19,170,81.636,170C82.082,170,82.528,170,82.974,170C83.42,170,83.866,170,84.312,170C84.758,170,85.204,170,85.651,170C86.097,170,86.543,170,86.989,170C87.435,170,87.881,170,88.327,170C88.773,170,89.219,170,89.665,170C90.112,170,90.558,170,91.004,170C91.45,170,91.896,170,92.342,170C92.788,170,93.234,170,93.68,170C94.126,170,94.572,170,95.019,170C95.465,170,95.911,170,96.357,170C96.803,170,97.249,170,97.695,170C98.141,170,98.587,170,99.033,170C99.48,170,99.926,170,100.372,170C100.818,170,101.264,170,101.71,170C102.156,170,102.602,170,103.048,170C103.494,170,103.941,170,104.387,170C104.833,170,105.279,170,105.725,170C106.171,170,106.617,170,107.063,170C107.509,170,107.955,170,108.401,170C108.848,170,109.294,170,109.74,170C110.186,170,110.632,170,111.078,170C111.524,170,111.97,170,112.416,170C112.862,170,113.309,170,113.755,170C114.201,170,114.647,170,115.093,170C115.539,170,115.985,170,116.431,170C116.877,170,117.323,170,117.77,170C118.216,170,118.662,170,119.108,170C119.554,170,120,170,120.446,170C120.892,170,121.338,170,121.784,170C122.23,170,122.677,170,123.123,170C123.569,170,124.015,170,124.461,170C124.907,170,125.353,170,125.799,170C126.245,170,126.691,170,127.138,170C127.584,170,128.03,170,128.476,170C128.922,170,129.368,170,129.814,170C130.26,170,130.706,170,131.152,170C131.599,170,132.045,170,132.491,170C132.937,170,133.383,170,133.829,170C134.275,170,134.721,170,135.167,170C135.613,170,136.059,170,136.506,170C136.952,170,137.398,170,137.844,170C138.29,170,138.736,170,139.182,170C139.628,170,140.074,170,140.52,170C140.967,170,141.413,170,141.859,170C142.305,170,142.751,170,143.197,170C143.643,170,144.089,170,144.535,170C144.981,170,145.428,170,145.874,170C146.32,170,146.766,170,147.212,170C147.658,170,148.104,170,148.55,170C148.996,170,149.442,170,149.888,170C150.335,170,150.781,170,151.227,170C151.673,170,152.119,170,152.565,170C153.011,170,153.457,170,153.903,170C154.349,170,154.796,170,155.242,170C155.688,170,156.134,170,156.58,170C157.026,170,157.472,170,157.918,170C158.364,170,158.81,170,159.257,170C159.703,170,160.149,170,160.595,170C161.041,170,161.487,170,161.933,170C162.379,170,162.825,170,163.271,170C163.717,170,164.164,170,164.61,170C165.056,170,165.502,170,165.948,170C166.394,170,166.84,170,167.286,170C167.732,170,168.178,170,168.625,170C169.071,170,169.517,170,169.963,170C170.409,170,170.855,170,171.301,170C171.747,170,172.193,170,172.639,170C173.086,170,173.532,170,173.978,170C174.424,170,174.87,170,175.316,170C175.762,170,176.208,170,176.654,170C177.1,170,177.546,170,177.993,170C178.439,170,178.885,170,179.331,170C179.777,170,180.223,170,180.669,170C181.115,170,181.561,170,182.007,170C182.454,170,182.9,170,183.346,170C183.792,170,184.238,170,184.684,170C185.13,170,185.576,170,186.022,170C186.468,170,186.914,170,187.361,170C187.807,170,188.253,170,188.699,170C189.145,170,189.591,170,190.037,170C190.483,170,190.929,170,191.375,170C191.822,170,192.268,170,192.714,170C193.16,170,193.606,170,194.052,170C194.498,170,194.944,170,195.39,170C195.836,170,196.283,170,196.729,170C197.175,170,197.621,170,198.067,170C198.513,170,198.959,170,199.405,170C199.851,170,200.297,170,200.743,170C201.19,170,201.636,170,202.082,170C202.528,170,202.974,170,203.42,170C203.866,170,204.312,170,204.758,170C205.204,170,205.651,170,206.097,170C206.543,170,206.989,170,207.435,170C207.881,170,208.327,170,208.773,170C209.219,170,209.665,170,210.112,170C210.558,170,211.004,170,211.45,170C211.896,170,212.342,170,212.788,170C213.234,170,213.68,170,214.126,170C214.572,170,215.019,170,215.465,170C215.911,170,216.357,170,216.803,170C217.249,170,217.695,170,218.141,170C218.587,170,219.033,170,219.48,170C219.926,170,220.372,170,220.818,170C221.264,170,221.71,170,222.156,170C222.602,170,223.048,170,223.494,170C223.941,170,224.387,170,224.833,170C225.279,170,225.725,170,226.171,170C226.617,170,227.063,170,227.509,170C227.955,170,228.401,170,228.848,170C229.294,170,229.74,170,230.186,170C230.632,170,231.078,170,231.524,170C231.97,170,232.416,170,232.862,170C233.309,170,233.755,170,234.201,170C234.647,170,235.093,170,235.539,170C235.985,170,236.431,170,236.877,170C237.323,170,237.77,170,238.216,170C238.662,170,239.108,170,239.554,170C240,170,240.446,170,240.892,170C241.338,170,241.784,170,242.23,170C242.677,170,243.123,170,243.569,170C244.015,170,244.461,170,244.907,170C245.353,170,245.799,170,246.245,170C246.691,170,247.138,170,247.584,170C248.03,170,248.476,170,248.922,170C249.368,170,249.814,170,250.26,170C250.706,170,251.152,170,251.599,170C252.045,170,252.491,170,252.937,170C253.383,170,253.829,170,254.275,170C254.721,170,255.167,170,255.613,170C256.059,170,256.506,170,256.952,170C257.398,170,257.844,170,258.29,170C258.736,170,259.182,170,259.628,170C260.074,170,260.52,170,260.967,170C261.413,170,261.859,170,262.305,170C262.751,170,263.197,170,263.643,170C264.089,170,264.535,170,264.981,170C265.428,170,265.874,170,266.32,170C266.766,170,267.212,170,267.658,170C268.104,170,268.55,170,268.996,170C269.442,170,269.888,170,270.335,170C270.781,170,271.227,170,271.673,170C272.119,170,272.565,170,273.011,170C273.457,170,273.903,170,274.349,170C274.796,170,275.242,170,275.688,170C276.134,170,276.58,170,277.026,170C277.472,170,277.918,170,278.364,170C278.81,170,279.257,170,279.703,170C280.149,170,280.595,170,281.041,170C281.487,170,281.933,170,282.379,170C282.825,170,283.271,170,283.717,170C284.164,170,284.61,170,285.056,170C285.502,170,285.948,170,286.394,170C286.84,170,287.286,170,287.732,170C288.178,170,288.625,170,289.071,170C289.517,170,289.963,170,290.409,170C290.855,170,291.301,170,291.747,170C292.193,170,292.639,170,293.086,170C293.532,170,293.978,170,294.424,170C294.87,170,295.316,170,295.762,170C296.208,170,296.654,170,297.1,170C297.546,170,297.993,170,298.439,170C298.885,170,299.331,170,299.777,170C300.223,170,300.669,170,301.115,170C301.561,170,302.007,170,302.454,170C302.9,170,303.346,170,303.792,170C304.238,170,304.684,170,305.13,170C305.576,170,306.022,170,306.468,170C306.914,170,307.361,170,307.807,170C308.253,170,308.699,170,309.145,170C309.591,170,310.037,170,310.483,170C310.929,170,311.375,170,311.822,170C312.268,170,312.714,170,313.16,170C313.606,170,314.052,170,314.498,170C314.944,170,315.39,170,315.836,170C316.283,170,316.729,170,317.175,170C317.621,170,318.067,170,318.513,170C318.959,170,319.405,170,319.851,170C320.297,170,320.743,170,321.19,170C321.636,170,322.082,170,322.528,170C322.974,170,323.42,170,323.866,170C324.312,170,324.758,170,325.204,170C325.651,170,326.097,170,326.543,170C326.989,170,327.435,170,327.881,170C328.327,170,328.773,170,329.219,170C329.665,170,330.112,170,330.558,170C331.004,170,331.45,170,331.896,170C332.342,170,332.788,170,333.234,170C333.68,170,334.126,170,334.572,170C335.019,170,335.465,170,335.911,170C336.357,170,336.803,170,337.249,170C337.695,170,338.141,170,338.587,170C339.033,170,339.48,170,339.926,170C340.372,170,340.818,170,341.264,170C341.71,170,342.156,170,342.602,170C343.048,170,343.494,170,343.941,170C344.387,170,344.833,170,345.279,170C345.725,170,346.171,170,346.617,170C347.063,170,347.509,170,347.955,170C348.401,170,348.848,170,349.294,170C349.74,170,350.186,170,350.632,170C351.078,170,351.524,170,351.97,170C352.416,170,352.862,170,353.309,170C353.755,170,354.201,170,354.647,170C355.093,170,355.539,170,355.985,170C356.431,170,356.877,170,357.323,170C357.77,170,358.216,170,358.662,170C359.108,170,359.554,170,360,170C360.446,170,360.892,170,361.338,170C361.784,170,362.23,170,362.677,170C363.123,170,363.569,170,364.015,170C364.461,170,364.907,170,365.353,170C365.799,170,366.245,170,366.691,170C367.138,170,367.584,170,368.03,170C368.476,170,368.922,170,369.368,170C369.814,170,370.26,170,370.706,170C371.152,170,371.599,170,372.045,170C372.491,170,372.937,170,373.383,170C373.829,170,374.275,170,374.721,170C375.167,170,375.613,170,376.059,170C376.506,170,376.952,170,377.398,170C377.844,170,378.29,170,378.736,170C379.182,170,379.628,170,380.074,170C380.52,170,380.967,170,381.413,170C381.859,170,382.305,170,382.751,170C383.197,170,383.643,170,384.089,170C384.535,170,384.981,170,385.428,170C385.874,170,386.32,170,386.766,170C387.212,170,387.658,170,388.104,170C388.55,170,388.996,170,389.442,170C389.888,170,390.335,170,390.781,170C391.227,170,391.673,170,392.119,170C392.565,170,393.011,170,393.457,170C393.903,170,394.349,170,394.796,170C395.242,170,395.688,170,396.134,170C396.58,170,397.026,170,397.472,170C397.918,170,398.364,170,398.81,170C399.257,170,399.703,170,400.149,170C400.595,170,401.041,170,401.487,170C401.933,170,402.379,170,402.825,170C403.271,170,403.717,170,404.164,170C404.61,170,405.056,170,405.502,170C405.948,170,406.394,170,406.84,170C407.286,170,407.732,170,408.178,170C408.625,170,409.071,170,409.517,170C409.963,170,410.409,170,410.855,170C411.301,170,411.747,170,412.193,170C412.639,170,413.086,170,413.532,170C413.978,170,414.424,170,414.87,170C415.316,170,415.762,170,416.208,170C416.654,170,417.1,170,417.546,170C417.993,170,418.439,170,418.885,170C419.331,170,419.777,170,420.223,170C420.669,170,421.115,170,421.561,170C422.007,170,422.454,170,422.9,170C423.346,170,423.792,170,424.238,170C424.684,170,425.13,170,425.576,170C426.022,170,426.468,170,426.914,170C427.361,170,427.807,170,428.253,170C428.699,170,429.145,170,429.591,170C430.037,170,430.483,170,430.929,170C431.375,170,431.822,170,432.268,170C432.714,170,433.16,170,433.606,170C434.052,170,434.498,170,434.944,170C435.39,170,435.836,170,436.283,170C436.729,170,437.175,170,437.621,170C438.067,170,438.513,170,438.959,170C439.405,170,439.851,170,440.297,170C440.743,170,441.19,170,441.636,170C442.082,170,442.528,170,442.974,170C443.42,170,443.866,170,444.312,170C444.758,170,445.204,170,445.651,170C446.097,170,446.543,170,446.989,170C447.435,170,447.881,170,448.327,170C448.773,170,449.219,170,449.665,170C450.112,170,450.558,170,451.004,170C451.45,170,451.896,170,452.342,170C452.788,170,453.234,170,453.68,170C454.126,170,454.572,170,455.019,170C455.465,170,455.911,170,456.357,170C456.803,170,457.249,170,457.695,170C458.141,170,458.587,170,459.033,170C459.48,170,459.926,170,460.372,170C460.818,170,461.264,170,461.71,170C462.156,170,462.602,170,463.048,170C463.494,170,463.941,170,464.387,170C464.833,170,465.279,170,465.725,170C466.171,170,466.617,170,467.063,170C467.509,170,467.955,170,468.401,170C468.848,170,469.294,170,469.74,170C470.186,170,470.632,170,471.078,170C471.524,170,471.97,170,472.416,170C472.862,170,473.309,170,473.755,170C474.201,170,474.647,170,475.093,170C475.539,170,475.985,170,476.431,170C476.877,170,477.323,170,477.77,170C478.216,170,478.662,170,479.108,170C479.554,170,480,170,480.446,170C480.892,170,481.338,170,481.784,170C482.23,170,482.677,170,483.123,170C483.569,170,484.015,170,484.461,170C484.907,170,485.353,170,485.799,170C486.245,170,486.691,170,487.138,170C487.584,170,488.03,170,488.476,170C488.922,170,489.368,170,489.814,170C490.26,170,490.706,170,491.152,170C491.599,170,492.045,170,492.491,170C492.937,170,493.383,170,493.829,170C494.275,170,494.721,170,495.167,170C495.613,170,496.059,170,496.506,170C496.952,170,497.398,170,497.844,170C498.29,170,498.736,170,499.182,170C499.628,170,500.074,170,500.52,170C500.967,170,501.413,170,501.859,170C502.305,170,502.751,170,503.197,170C503.643,170,504.089,170,504.535,170C504.981,170,505.428,170,505.874,170C506.32,170,506.766,170,507.212,170C507.658,170,508.104,170,508.55,170C508.996,170,509.442,170,509.888,170C510.335,170,510.781,170,511.227,170C511.673,170,512.119,170,512.565,170C513.011,170,513.457,170,513.903,170C514.349,170,514.796,170,515.242,170C515.688,170,516.134,170,516.58,170C517.026,170,517.472,170,517.918,170C518.364,170,518.81,170,519.257,170C519.703,170,520.149,170,520.595,170C521.041,170,521.487,170,521.933,170C522.379,170,522.825,170,523.271,170C523.717,170,524.164,170,524.61,170C525.056,170,525.502,170,525.948,170C526.394,170,526.84,170,527.286,170C527.732,170,528.178,170,528.625,170C529.071,170,529.517,170,529.963,170C530.409,170,530.855,170,531.301,170C531.747,170,532.193,170,532.639,170C533.086,170,533.532,170,533.978,170C534.424,170,534.87,170,535.316,170C535.762,170,536.208,170,536.654,170C537.1,170,537.546,170,537.993,170C538.439,170,538.885,170,539.331,170C539.777,170,540.223,170,540.669,170C541.115,170,541.561,170,542.007,170C542.454,170,542.9,170,543.346,170C543.792,170,544.238,170,544.684,170C545.13,170,545.576,170,546.022,170C546.468,170,546.914,170,547.361,170C547.807,170,548.253,170,548.699,170C549.145,170,549.591,170,550.037,170C550.483,170,550.929,170,551.375,170C551.822,170,552.268,170,552.714,170C553.16,170,553.606,170,554.052,170C554.498,170,554.944,170,555.39,170C555.836,170,556.283,170,556.729,170C557.175,170,557.621,170,558.067,170C558.513,170,558.959,170,559.405,170C559.851,170,560.297,170,560.743,170C561.19,170,561.636,170,562.082,170C562.528,170,562.974,170,563.42,170C563.866,170,564.312,170,564.758,170C565.204,170,565.651,170,566.097,170C566.543,170,566.989,170,567.435,170C567.881,170,568.327,170,568.773,170C569.219,170,569.665,170,570.112,170C570.558,170,571.004,170,571.45,170C571.896,170,572.342,170,572.788,170C573.234,170,573.68,170,574.126,170C574.572,170,575.019,170,575.465,170C575.911,170,576.357,170,576.803,170C577.249,170,577.695,170,578.141,170C578.587,170,579.033,170,579.48,170C579.926,170,580.372,170,580.818,170C581.264,170,581.71,170,582.156,170C582.602,170,583.048,170,583.494,170C583.941,170,584.387,170,584.833,170C585.279,170,585.725,170,586.171,170C586.617,170,587.063,170,587.509,170C587.955,170,588.401,170,588.848,170C589.294,170,589.74,170,590.186,170C590.632,170,591.078,170,591.524,170C591.97,170,592.416,170,592.862,170C593.309,170,593.755,170,594.201,170C594.647,170,595.093,170,595.539,170C595.985,170,596.431,170,596.877,170C597.323,170,597.77,170,598.216,170C598.662,170,599.108,170,599.554,170C600,170,600.446,170,600.892,170C601.338,170,601.784,170,602.23,170C602.677,170,603.123,170,603.569,170C604.015,170,604.461,170,604.907,170C605.353,170,605.799,170,606.245,170C606.691,170,607.138,170,607.584,170C608.03,170,608.476,170,608.922,170C609.368,170,609.814,170,610.26,170C610.706,170,611.152,170,611.599,170C612.045,170,612.491,170,612.937,170C613.383,170,613.829,170,614.275,170C614.721,170,615.167,170,615.613,170C616.059,170,616.506,170,616.952,170C617.398,170,617.844,170,618.29,170C618.736,170,619.182,170,619.628,170C620.074,170,620.52,170,620.967,170C621.413,170,621.859,170,622.305,170C622.751,170,623.197,170,623.643,170C624.089,170,624.535,170,624.981,170C625.428,170,625.874,170,626.32,170C626.766,170,627.212,170,627.658,170C628.104,170,628.55,170,628.996,170C629.442,170,629.888,170,630.335,170C630.781,170,631.227,170,631.673,170C632.119,170,632.565,170,633.011,170C633.457,170,633.903,170,634.349,170C634.796,170,635.242,170,635.688,170C636.134,170,636.58,170,637.026,170C637.472,170,637.918,170,638.364,170C638.81,170,639.257,170,639.703,170C640.149,170,640.595,170,641.041,170C641.487,170,641.933,170,642.379,170C642.825,170,643.271,170,643.717,170C644.164,170,644.61,170,645.056,170C645.502,170,645.948,170,646.394,170C646.84,170,647.286,170,647.732,170C648.178,170,648.625,170,649.071,170C649.517,170,649.963,170,650.409,170C650.855,170,651.301,170,651.747,170C652.193,170,652.639,170,653.086,170C653.532,170,653.978,170,654.424,170C654.87,170,655.316,170,655.762,170C656.208,170,656.654,170,657.1,170C657.546,170,657.993,170,658.439,170C658.885,170,659.331,170,659.777,170C660.223,170,660.669,170,661.115,170C661.561,170,662.007,170,662.454,170C662.9,170,663.346,170,663.792,170C664.238,170,664.684,170,665.13,170C665.576,170,666.022,170,666.468,170C666.914,170,667.361,170,667.807,170C668.253,170,668.699,170,669.145,170C669.591,170,670.037,170,670.483,170C670.929,170,671.375,170,671.822,170C672.268,170,672.714,170,673.16,170C673.606,170,674.052,170,674.498,170C674.944,170,675.39,170,675.836,170C676.283,170,676.729,170,677.175,170C677.621,170,678.067,170,678.513,170C678.959,170,679.405,170,679.851,170C680.297,170,680.743,170,681.19,170C681.636,170,682.082,170,682.528,170C682.974,170,683.42,170,683.866,170C684.312,170,684.758,170,685.204,170C685.651,170,686.097,170,686.543,170C686.989,170,687.435,170,687.881,170C688.327,170,688.773,170,689.219,170C689.665,170,690.112,170,690.558,170C691.004,170,691.45,170,691.896,170C692.342,170,692.788,170,693.234,170C693.68,170,694.126,170,694.572,170C695.019,170,695.465,170,695.911,170C696.357,170,696.803,170,697.249,170C697.695,170,698.141,170,698.587,170C699.033,170,699.48,170,699.926,170C700.372,170,700.818,170,701.264,170C701.71,170,702.156,170,702.602,170C703.048,170,703.494,170,703.941,170C704.387,170,704.833,170,705.279,170C705.725,170,706.171,170,706.617,170C707.063,170,707.509,170,707.955,170C708.401,170,708.848,170,709.294,170C709.74,170,710.186,170,710.632,170C711.078,170,711.524,170,711.97,170C712.416,170,712.862,170,713.309,170C713.755,170,714.201,170,714.647,170C715.093,170,715.539,170,715.985,170C716.431,170,716.877,170,717.323,170C717.77,170,718.216,170,718.662,170C719.108,170,719.554,170,720,170"></path><circle class="dot" cx="0" cy="170" r="3" fill="#2563eb"></circle><circle class="dot" cx="1.3382899628252787" cy="170" r="3" fill="#2563eb"></circle><circle class="dot" cx="2.6765799256505574" cy="170" r="3" fill="#2563eb"></circle><circle class="dot" cx="4.014869888475836" cy="170" r="3" fill="#2563eb"></circle><circle class="dot" cx="5.353159851301115" cy="170" r="3" fill="#2563eb"></circle><circle class="dot" cx="6.691449814126394" cy="170" r="3" fill="#2563eb"></circle><circle class="dot" cx="8.029739776951672" cy="170" r="3" fill="#2563eb"></circle><circle class="dot" cx="9.368029739776953" cy="170" r="3" fill="#2563eb"></circle><circle class="dot" cx="10.70631970260223" cy="170" r="3" fill="#2563eb"></circle><circle class="dot" cx="12.044609665427508" cy="170" r="3" fill="#2563eb"></circle><circle class="dot" cx="13.382899628252789" cy="170" r="3" fill="#2563eb"></circle><circle class="dot" cx="14.721189591078067" cy="170" r="3" fill="#2563eb"></circle><circle class="dot" cx="16.059479553903344" cy="170" r="3" fill="#2563eb"></circle><circle class="dot" cx="17.397769516728626" cy="170" r="3" fill="#2563eb"></circle><circle class="dot" cx="18.736059479553905" cy="170" r="3" fill="#2563eb"></circle><circle class="dot" cx="20.07434944237918" cy="170" r="3" fill="#2563eb"></circle><circle class="dot" cx="21.41263940520446" cy="170" r="3" fill="#2563eb"></circle><circle class="dot" cx="22.750929368029738" cy="170" r="3" fill="#2563eb"></circle><circle class="dot" cx="24.089219330855016" cy="170" r="3" fill="#2563eb"></circle><circle class="dot" cx="25.4275092936803" cy="170" r="3" fill="#2563eb"></circle><circle class="dot" cx="26.765799256505577" cy="170" r="3" fill="#2563eb"></circle><circle class="dot" cx="28.104089219330856" cy="170" r="3" fill="#2563eb"></circle><circle class="dot" cx="29.442379182156134" cy="170" r="3" fill="#2563eb"></circle><circle class="dot" cx="30.780669144981413" cy="170" r="3" fill="#2563eb"></circle><circle class="dot" cx="32.11895910780669" cy="170" r="3" fill="#2563eb"></circle><circle class="dot" cx="33.45724907063197" cy="170" r="3" fill="#2563eb"></circle><circle class="dot" cx="34.79553903345725" cy="170" r="3" fill="#2563eb"></circle><circle class="dot" cx="36.13382899628253" cy="170" r="3" fill="#2563eb"></circle><circle class="dot" cx="37.47211895910781" cy="170" r="3" fill="#2563eb"></circle><circle class="dot" cx="38.81040892193309" cy="170" r="3" fill="#2563eb"></circle><circle class="dot" cx="40.14869888475836" cy="170" r="3" fill="#2563eb"></circle><circle class="dot" cx="41.48698884758364" cy="170" r="3" fill="#2563eb"></circle><circle class="dot" cx="42.82527881040892" cy="170" r="3" fill="#2563eb"></circle><circle class="dot" cx="44.1635687732342" cy="170" r="3" fill="#2563eb"></circle><circle class="dot" cx="45.501858736059475" cy="170" r="3" fill="#2563eb"></circle><circle class="dot" cx="46.84014869888476" cy="170" r="3" fill="#2563eb"></circle><circle class="dot" cx="48.17843866171003" cy="170" r="3" fill="#2563eb"></circle><circle class="dot" cx="49.51672862453532" cy="170" r="3" fill="#2563eb"></circle><circle class="dot" cx="50.8550185873606" cy="170" r="3" fill="#2563eb"></circle><circle class="dot" cx="52.19330855018587" cy="170" r="3" fill="#2563eb"></circle><circle class="dot" cx="53.531598513011154" cy="170" r="3" fill="#2563eb"></circle><circle class="dot" cx="54.869888475836426" cy="170" r="3" fill="#2563eb"></circle><circle class="dot" cx="56.20817843866171" cy="170" r="3" fill="#2563eb"></circle><circle class="dot" cx="57.54646840148698" cy="170" r="3" fill="#2563eb"></circle><circle class="dot" cx="58.88475836431227" cy="170" r="3" fill="#2563eb"></circle><circle class="dot" cx="60.22304832713755" cy="170" r="3" fill="#2563eb"></circle><circle class="dot" cx="61.561338289962826" cy="170" r="3" fill="#2563eb"></circle><circle class="dot" cx="62.899628252788105" cy="170" r="3" fill="#2563eb"></circle><circle class="dot" cx="64.23791821561338" cy="170" r="3" fill="#2563eb"></circle><circle class="dot" cx="65.57620817843866" cy="170" r="3" fill="#2563eb"></circle><circle class="dot" cx="66.91449814126393" cy="170" r="3" fill="#2563eb"></circle><circle class="dot" cx="68.25278810408922" cy="170" r="3" fill="#2563eb"></circle><circle class="dot" cx="69.5910780669145" cy="170" r="3" fill="#2563eb"></circle><circle class="dot" cx="70.92936802973978" cy="170" r="3" fill="#2563eb"></circle><circle class="dot" cx="72.26765799256506" cy="170" r="3" fill="#2563eb"></circle><circle class="dot" cx="73.60594795539033" cy="170" r="3" fill="#2563eb"></circle><circle class="dot" cx="74.94423791821562" cy="170" r="3" fill="#2563eb"></circle><circle class="dot" cx="76.28252788104089" cy="170" r="3" fill="#2563eb"></circle><circle class="dot" cx="77.62081784386618" cy="170" r="3" fill="#2563eb"></circle><circle class="dot" cx="78.95910780669145" cy="170" r="3" fill="#2563eb"></circle><circle class="dot" cx="80.29739776951672" cy="170" r="3" fill="#2563eb"></circle><circle class="dot" cx="81.635687732342" cy="170" r="3" fill="#2563eb"></circle><circle class="dot" cx="82.97397769516728" cy="170" r="3" fill="#2563eb"></circle><circle class="dot" cx="84.31226765799256" cy="170" r="3" fill="#2563eb"></circle><circle class="dot" cx="85.65055762081784" cy="170" r="3" fill="#2563eb"></circle><circle class="dot" cx="86.98884758364312" cy="170" r="3" fill="#2563eb"></circle><circle class="dot" cx="88.3271375464684" cy="170" r="3" fill="#2563eb"></circle><circle class="dot" cx="89.66542750929368" cy="170" r="3" fill="#2563eb"></circle><circle class="dot" cx="91.00371747211895" cy="170" r="3" fill="#2563eb"></circle><circle class="dot" cx="92.34200743494424" cy="170" r="3" fill="#2563eb"></circle><circle class="dot" cx="93.68029739776952" cy="170" r="3" fill="#2563eb"></circle><circle class="dot" cx="95.01858736059481" cy="170" r="3" fill="#2563eb"></circle><circle class="dot" cx="96.35687732342006" cy="170" r="3" fill="#2563eb"></circle><circle class="dot" cx="97.69516728624535" cy="170" r="3" fill="#2563eb"></circle><circle class="dot" cx="99.03345724907064" cy="170" r="3" fill="#2563eb"></circle><circle class="dot" cx="100.37174721189591" cy="170" r="3" fill="#2563eb"></circle><circle class="dot" cx="101.7100371747212" cy="170" r="3" fill="#2563eb"></circle><circle class="dot" cx="103.04832713754647" cy="170" r="3" fill="#2563eb"></circle><circle class="dot" cx="104.38661710037174" cy="170" r="3" fill="#2563eb"></circle><circle class="dot" cx="105.72490706319702" cy="170" r="3" fill="#2563eb"></circle><circle class="dot" cx="107.06319702602231" cy="170" r="3" fill="#2563eb"></circle><circle class="dot" cx="108.4014869888476" cy="170" r="3" fill="#2563eb"></circle><circle class="dot" cx="109.73977695167285" cy="170" r="3" fill="#2563eb"></circle><circle class="dot" cx="111.07806691449814" cy="170" r="3" fill="#2563eb"></circle><circle class="dot" cx="112.41635687732342" cy="170" r="3" fill="#2563eb"></circle><circle class="dot" cx="113.75464684014871" cy="170" r="3" fill="#2563eb"></circle><circle class="dot" cx="115.09293680297397" cy="170" r="3" fill="#2563eb"></circle><circle class="dot" cx="116.43122676579925" cy="170" r="3" fill="#2563eb"></circle><circle class="dot" cx="117.76951672862454" cy="170" r="3" fill="#2563eb"></circle><circle class="dot" cx="119.10780669144982" cy="170" r="3" fill="#2563eb"></circle><circle class="dot" cx="120.4460966542751" cy="170" r="3" fill="#2563eb"></circle><circle class="dot" cx="121.78438661710037" cy="170" r="3" fill="#2563eb"></circle><circle class="dot" cx="123.12267657992565" cy="170" r="3" fill="#2563eb"></circle><circle class="dot" cx="124.46096654275092" cy="170" r="3" fill="#2563eb"></circle><circle class="dot" cx="125.79925650557621" cy="170" r="3" fill="#2563eb"></circle><circle class="dot" cx="127.1375464684015" cy="170" r="3" fill="#2563eb"></circle><circle class="dot" cx="128.47583643122675" cy="170" r="3" fill="#2563eb"></circle><circle class="dot" cx="129.81412639405204" cy="170" r="3" fill="#2563eb"></circle><circle class="dot" cx="131.15241635687732" cy="170" r="3" fill="#2563eb"></circle><circle class="dot" cx="132.4907063197026" cy="170" r="3" fill="#2563eb"></circle><circle class="dot" cx="133.82899628252787" cy="170" r="3" fill="#2563eb"></circle><circle class="dot" cx="135.16728624535315" cy="170" r="3" fill="#2563eb"></circle><circle class="dot" cx="136.50557620817844" cy="170" r="3" fill="#2563eb"></circle><circle class="dot" cx="137.84386617100373" cy="170" r="3" fill="#2563eb"></circle><circle class="dot" cx="139.182156133829" cy="170" r="3" fill="#2563eb"></circle><circle class="dot" cx="140.52044609665427" cy="170" r="3" fill="#2563eb"></circle><circle class="dot" cx="141.85873605947955" cy="170" r="3" fill="#2563eb"></circle><circle class="dot" cx="143.19702602230484" cy="170" r="3" fill="#2563eb"></circle><circle class="dot" cx="144.53531598513013" cy="170" r="3" fill="#2563eb"></circle><circle class="dot" cx="145.87360594795538" cy="170" r="3" fill="#2563eb"></circle><circle class="dot" cx="147.21189591078067" cy="170" r="3" fill="#2563eb"></circle><circle class="dot" cx="148.55018587360595" cy="170" r="3" fill="#2563eb"></circle><circle class="dot" cx="149.88847583643124" cy="170" r="3" fill="#2563eb"></circle><circle class="dot" cx="151.22676579925653" cy="170" r="3" fill="#2563eb"></circle><circle class="dot" cx="152.56505576208178" cy="170" r="3" fill="#2563eb"></circle><circle class="dot" cx="153.90334572490707" cy="170" r="3" fill="#2563eb"></circle><circle class="dot" cx="155.24163568773236" cy="170" r="3" fill="#2563eb"></circle><circle class="dot" cx="156.5799256505576" cy="170" r="3" fill="#2563eb"></circle><circle class="dot" cx="157.9182156133829" cy="170" r="3" fill="#2563eb"></circle><circle class="dot" cx="159.25650557620818" cy="170" r="3" fill="#2563eb"></circle><circle class="dot" cx="160.59479553903344" cy="170" r="3" fill="#2563eb"></circle><circle class="dot" cx="161.93308550185873" cy="170" r="3" fill="#2563eb"></circle><circle class="dot" cx="163.271375464684" cy="170" r="3" fill="#2563eb"></circle><circle class="dot" cx="164.60966542750927" cy="170" r="3" fill="#2563eb"></circle><circle class="dot" cx="165.94795539033456" cy="170" r="3" fill="#2563eb"></circle><circle class="dot" cx="167.28624535315984" cy="170" r="3" fill="#2563eb"></circle><circle class="dot" cx="168.62453531598513" cy="170" r="3" fill="#2563eb"></circle><circle class="dot" cx="169.9628252788104" cy="170" r="3" fill="#2563eb"></circle><circle class="dot" cx="171.30111524163567" cy="170" r="3" fill="#2563eb"></circle><circle class="dot" cx="172.63940520446096" cy="170" r="3" fill="#2563eb"></circle><circle class="dot" cx="173.97769516728624" cy="170" r="3" fill="#2563eb"></circle><circle class="dot" cx="175.31598513011153" cy="170" r="3" fill="#2563eb"></circle><circle class="dot" cx="176.6542750929368" cy="170" r="3" fill="#2563eb"></circle><circle class="dot" cx="177.99256505576207" cy="170" r="3" fill="#2563eb"></circle><circle class="dot" cx="179.33085501858736" cy="170" r="3" fill="#2563eb"></circle><circle class="dot" cx="180.66914498141261" cy="170" r="3" fill="#2563eb"></circle><circle class="dot" cx="182.0074349442379" cy="170" r="3" fill="#2563eb"></circle><circle class="dot" cx="183.3457249070632" cy="170" r="3" fill="#2563eb"></circle><circle class="dot" cx="184.68401486988847" cy="170" r="3" fill="#2563eb"></circle><circle class="dot" cx="186.02230483271376" cy="170" r="3" fill="#2563eb"></circle><circle class="dot" cx="187.36059479553904" cy="170" r="3" fill="#2563eb"></circle><circle class="dot" cx="188.69888475836433" cy="170" r="3" fill="#2563eb"></circle><circle class="dot" cx="190.03717472118961" cy="170" r="3" fill="#2563eb"></circle><circle class="dot" cx="191.3754646840149" cy="170" r="3" fill="#2563eb"></circle><circle class="dot" cx="192.71375464684013" cy="170" r="3" fill="#2563eb"></circle><circle class="dot" cx="194.05204460966542" cy="170" r="3" fill="#2563eb"></circle><circle class="dot" cx="195.3903345724907" cy="170" r="3" fill="#2563eb"></circle><circle class="dot" cx="196.728624535316" cy="170" r="3" fill="#2563eb"></circle><circle class="dot" cx="198.06691449814127" cy="170" r="3" fill="#2563eb"></circle><circle class="dot" cx="199.40520446096656" cy="170" r="3" fill="#2563eb"></circle><circle class="dot" cx="200.74349442379182" cy="170" r="3" fill="#2563eb"></circle><circle class="dot" cx="202.0817843866171" cy="170" r="3" fill="#2563eb"></circle><circle class="dot" cx="203.4200743494424" cy="170" r="3" fill="#2563eb"></circle><circle class="dot" cx="204.75836431226767" cy="170" r="3" fill="#2563eb"></circle><circle class="dot" cx="206.09665427509293" cy="170" r="3" fill="#2563eb"></circle><circle class="dot" cx="207.43494423791822" cy="170" r="3" fill="#2563eb"></circle><circle class="dot" cx="208.77323420074347" cy="170" r="3" fill="#2563eb"></circle><circle class="dot" cx="210.11152416356876" cy="170" r="3" fill="#2563eb"></circle><circle class="dot" cx="211.44981412639405" cy="170" r="3" fill="#2563eb"></circle><circle class="dot" cx="212.78810408921933" cy="170" r="3" fill="#2563eb"></circle><circle class="dot" cx="214.12639405204462" cy="170" r="3" fill="#2563eb"></circle><circle class="dot" cx="215.4646840148699" cy="170" r="3" fill="#2563eb"></circle><circle class="dot" cx="216.8029739776952" cy="170" r="3" fill="#2563eb"></circle><circle class="dot" cx="218.14126394052042" cy="170" r="3" fill="#2563eb"></circle><circle class="dot" cx="219.4795539033457" cy="170" r="3" fill="#2563eb"></circle><circle class="dot" cx="220.817843866171" cy="170" r="3" fill="#2563eb"></circle><circle class="dot" cx="222.15613382899627" cy="170" r="3" fill="#2563eb"></circle><circle class="dot" cx="223.49442379182156" cy="170" r="3" fill="#2563eb"></circle><circle class="dot" cx="224.83271375464685" cy="170" r="3" fill="#2563eb"></circle><circle class="dot" cx="226.17100371747213" cy="170" r="3" fill="#2563eb"></circle><circle class="dot" cx="227.50929368029742" cy="170" r="3" fill="#2563eb"></circle><circle class="dot" cx="228.8475836431227" cy="170" r="3" fill="#2563eb"></circle><circle class="dot" cx="230.18587360594793" cy="170" r="3" fill="#2563eb"></circle><circle class="dot" cx="231.52416356877322" cy="170" r="3" fill="#2563eb"></circle><circle class="dot" cx="232.8624535315985" cy="170" r="3" fill="#2563eb"></circle><circle class="dot" cx="234.2007434944238" cy="170" r="3" fill="#2563eb"></circle><circle class="dot" cx="235.53903345724908" cy="170" r="3" fill="#2563eb"></circle><circle class="dot" cx="236.87732342007436" cy="170" r="3" fill="#2563eb"></circle><circle class="dot" cx="238.21561338289965" cy="170" r="3" fill="#2563eb"></circle><circle class="dot" cx="239.5539033457249" cy="170" r="3" fill="#2563eb"></circle><circle class="dot" cx="240.8921933085502" cy="170" r="3" fill="#2563eb"></circle><circle class="dot" cx="242.23048327137545" cy="170" r="3" fill="#2563eb"></circle><circle class="dot" cx="243.56877323420073" cy="170" r="3" fill="#2563eb"></circle><circle class="dot" cx="244.90706319702602" cy="170" r="3" fill="#2563eb"></circle><circle class="dot" cx="246.2453531598513" cy="170" r="3" fill="#2563eb"></circle><circle class="dot" cx="247.5836431226766" cy="170" r="3" fill="#2563eb"></circle><circle class="dot" cx="248.92193308550185" cy="170" r="3" fill="#2563eb"></circle><circle class="dot" cx="250.26022304832713" cy="170" r="3" fill="#2563eb"></circle><circle class="dot" cx="251.59851301115242" cy="170" r="3" fill="#2563eb"></circle><circle class="dot" cx="252.9368029739777" cy="170" r="3" fill="#2563eb"></circle><circle class="dot" cx="254.275092936803" cy="170" r="3" fill="#2563eb"></circle><circle class="dot" cx="255.61338289962825" cy="170" r="3" fill="#2563eb"></circle><circle class="dot" cx="256.9516728624535" cy="170" r="3" fill="#2563eb"></circle><circle class="dot" cx="258.2899628252788" cy="170" r="3" fill="#2563eb"></circle><circle class="dot" cx="259.6282527881041" cy="170" r="3" fill="#2563eb"></circle><circle class="dot" cx="260.96654275092936" cy="170" r="3" fill="#2563eb"></circle><circle class="dot" cx="262.30483271375465" cy="170" r="3" fill="#2563eb"></circle><circle class="dot" cx="263.64312267657994" cy="170" r="3" fill="#2563eb"></circle><circle class="dot" cx="264.9814126394052" cy="170" r="3" fill="#2563eb"></circle><circle class="dot" cx="266.3197026022305" cy="170" r="3" fill="#2563eb"></circle><circle class="dot" cx="267.65799256505574" cy="170" r="3" fill="#2563eb"></circle><circle class="dot" cx="268.996282527881" cy="170" r="3" fill="#2563eb"></circle><circle class="dot" cx="270.3345724907063" cy="170" r="3" fill="#2563eb"></circle><circle class="dot" cx="271.6728624535316" cy="170" r="3" fill="#2563eb"></circle><circle class="dot" cx="273.0111524163569" cy="170" r="3" fill="#2563eb"></circle><circle class="dot" cx="274.34944237918216" cy="170" r="3" fill="#2563eb"></circle><circle class="dot" cx="275.68773234200745" cy="170" r="3" fill="#2563eb"></circle><circle class="dot" cx="277.02602230483274" cy="170" r="3" fill="#2563eb"></circle><circle class="dot" cx="278.364312267658" cy="170" r="3" fill="#2563eb"></circle><circle class="dot" cx="279.70260223048325" cy="170" r="3" fill="#2563eb"></circle><circle class="dot" cx="281.04089219330854" cy="170" r="3" fill="#2563eb"></circle><circle class="dot" cx="282.3791821561338" cy="170" r="3" fill="#2563eb"></circle><circle class="dot" cx="283.7174721189591" cy="170" r="3" fill="#2563eb"></circle><circle class="dot" cx="285.0557620817844" cy="170" r="3" fill="#2563eb"></circle><circle class="dot" cx="286.3940520446097" cy="170" r="3" fill="#2563eb"></circle><circle class="dot" cx="287.73234200743497" cy="170" r="3" fill="#2563eb"></circle><circle class="dot" cx="289.07063197026025" cy="170" r="3" fill="#2563eb"></circle><circle class="dot" cx="290.40892193308554" cy="170" r="3" fill="#2563eb"></circle><circle class="dot" cx="291.74721189591077" cy="170" r="3" fill="#2563eb"></circle><circle class="dot" cx="293.08550185873605" cy="170" r="3" fill="#2563eb"></circle><circle class="dot" cx="294.42379182156134" cy="170" r="3" fill="#2563eb"></circle><circle class="dot" cx="295.7620817843866" cy="170" r="3" fill="#2563eb"></circle><circle class="dot" cx="297.1003717472119" cy="170" r="3" fill="#2563eb"></circle><circle class="dot" cx="298.4386617100372" cy="170" r="3" fill="#2563eb"></circle><circle class="dot" cx="299.7769516728625" cy="170" r="3" fill="#2563eb"></circle><circle class="dot" cx="301.11524163568777" cy="170" r="3" fill="#2563eb"></circle><circle class="dot" cx="302.45353159851305" cy="170" r="3" fill="#2563eb"></circle><circle class="dot" cx="303.7918215613383" cy="170" r="3" fill="#2563eb"></circle><circle class="dot" cx="305.13011152416357" cy="170" r="3" fill="#2563eb"></circle><circle class="dot" cx="306.46840148698885" cy="170" r="3" fill="#2563eb"></circle><circle class="dot" cx="307.80669144981414" cy="170" r="3" fill="#2563eb"></circle><circle class="dot" cx="309.1449814126394" cy="170" r="3" fill="#2563eb"></circle><circle class="dot" cx="310.4832713754647" cy="170" r="3" fill="#2563eb"></circle><circle class="dot" cx="311.82156133828994" cy="170" r="3" fill="#2563eb"></circle><circle class="dot" cx="313.1598513011152" cy="170" r="3" fill="#2563eb"></circle><circle class="dot" cx="314.4981412639405" cy="170" r="3" fill="#2563eb"></circle><circle class="dot" cx="315.8364312267658" cy="170" r="3" fill="#2563eb"></circle><circle class="dot" cx="317.1747211895911" cy="170" r="3" fill="#2563eb"></circle><circle class="dot" cx="318.51301115241637" cy="170" r="3" fill="#2563eb"></circle><circle class="dot" cx="319.85130111524165" cy="170" r="3" fill="#2563eb"></circle><circle class="dot" cx="321.1895910780669" cy="170" r="3" fill="#2563eb"></circle><circle class="dot" cx="322.52788104089217" cy="170" r="3" fill="#2563eb"></circle><circle class="dot" cx="323.86617100371745" cy="170" r="3" fill="#2563eb"></circle><circle class="dot" cx="325.20446096654274" cy="170" r="3" fill="#2563eb"></circle><circle class="dot" cx="326.542750929368" cy="170" r="3" fill="#2563eb"></circle><circle class="dot" cx="327.8810408921933" cy="170" r="3" fill="#2563eb"></circle><circle class="dot" cx="329.21933085501854" cy="170" r="3" fill="#2563eb"></circle><circle class="dot" cx="330.5576208178438" cy="170" r="3" fill="#2563eb"></circle><circle class="dot" cx="331.8959107806691" cy="170" r="3" fill="#2563eb"></circle><circle class="dot" cx="333.2342007434944" cy="170" r="3" fill="#2563eb"></circle><circle class="dot" cx="334.5724907063197" cy="170" r="3" fill="#2563eb"></circle><circle class="dot" cx="335.91078066914497" cy="170" r="3" fill="#2563eb"></circle><circle class="dot" cx="337.24907063197026" cy="170" r="3" fill="#2563eb"></circle><circle class="dot" cx="338.58736059479554" cy="170" r="3" fill="#2563eb"></circle><circle class="dot" cx="339.9256505576208" cy="170" r="3" fill="#2563eb"></circle><circle class="dot" cx="341.2639405204461" cy="170" r="3" fill="#2563eb"></circle><circle class="dot" cx="342.60223048327134" cy="170" r="3" fill="#2563eb"></circle><circle class="dot" cx="343.9405204460966" cy="170" r="3" fill="#2563eb"></circle><circle class="dot" cx="345.2788104089219" cy="170" r="3" fill="#2563eb"></circle><circle class="dot" cx="346.6171003717472" cy="170" r="3" fill="#2563eb"></circle><circle class="dot" cx="347.9553903345725" cy="170" r="3" fill="#2563eb"></circle><circle class="dot" cx="349.29368029739777" cy="170" r="3" fill="#2563eb"></circle><circle class="dot" cx="350.63197026022306" cy="170" r="3" fill="#2563eb"></circle><circle class="dot" cx="351.97026022304834" cy="170" r="3" fill="#2563eb"></circle><circle class="dot" cx="353.3085501858736" cy="170" r="3" fill="#2563eb"></circle><circle class="dot" cx="354.64684014869886" cy="170" r="3" fill="#2563eb"></circle><circle class="dot" cx="355.98513011152414" cy="170" r="3" fill="#2563eb"></circle><circle class="dot" cx="357.32342007434943" cy="170" r="3" fill="#2563eb"></circle><circle class="dot" cx="358.6617100371747" cy="170" r="3" fill="#2563eb"></circle><circle class="dot" cx="360" cy="170" r="3" fill="#2563eb"></circle><circle class="dot" cx="361.33828996282523" cy="170" r="3" fill="#2563eb"></circle><circle class="dot" cx="362.67657992565057" cy="170" r="3" fill="#2563eb"></circle><circle class="dot" cx="364.0148698884758" cy="170" r="3" fill="#2563eb"></circle><circle class="dot" cx="365.35315985130114" cy="170" r="3" fill="#2563eb"></circle><circle class="dot" cx="366.6914498141264" cy="170" r="3" fill="#2563eb"></circle><circle class="dot" cx="368.0297397769517" cy="170" r="3" fill="#2563eb"></circle><circle class="dot" cx="369.36802973977694" cy="170" r="3" fill="#2563eb"></circle><circle class="dot" cx="370.7063197026023" cy="170" r="3" fill="#2563eb"></circle><circle class="dot" cx="372.0446096654275" cy="170" r="3" fill="#2563eb"></circle><circle class="dot" cx="373.38289962825274" cy="170" r="3" fill="#2563eb"></circle><circle class="dot" cx="374.7211895910781" cy="170" r="3" fill="#2563eb"></circle><circle class="dot" cx="376.0594795539033" cy="170" r="3" fill="#2563eb"></circle><circle class="dot" cx="377.39776951672866" cy="170" r="3" fill="#2563eb"></circle><circle class="dot" cx="378.7360594795539" cy="170" r="3" fill="#2563eb"></circle><circle class="dot" cx="380.07434944237923" cy="170" r="3" fill="#2563eb"></circle><circle class="dot" cx="381.41263940520446" cy="170" r="3" fill="#2563eb"></circle><circle class="dot" cx="382.7509293680298" cy="170" r="3" fill="#2563eb"></circle><circle class="dot" cx="384.08921933085503" cy="170" r="3" fill="#2563eb"></circle><circle class="dot" cx="385.42750929368026" cy="170" r="3" fill="#2563eb"></circle><circle class="dot" cx="386.7657992565056" cy="170" r="3" fill="#2563eb"></circle><circle class="dot" cx="388.10408921933083" cy="170" r="3" fill="#2563eb"></circle><circle class="dot" cx="389.4423791821562" cy="170" r="3" fill="#2563eb"></circle><circle class="dot" cx="390.7806691449814" cy="170" r="3" fill="#2563eb"></circle><circle class="dot" cx="392.1189591078067" cy="170" r="3" fill="#2563eb"></circle><circle class="dot" cx="393.457249070632" cy="170" r="3" fill="#2563eb"></circle><circle class="dot" cx="394.79553903345726" cy="170" r="3" fill="#2563eb"></circle><circle class="dot" cx="396.13382899628255" cy="170" r="3" fill="#2563eb"></circle><circle class="dot" cx="397.4721189591078" cy="170" r="3" fill="#2563eb"></circle><circle class="dot" cx="398.8104089219331" cy="170" r="3" fill="#2563eb"></circle><circle class="dot" cx="400.14869888475835" cy="170" r="3" fill="#2563eb"></circle><circle class="dot" cx="401.48698884758363" cy="170" r="3" fill="#2563eb"></circle><circle class="dot" cx="402.8252788104089" cy="170" r="3" fill="#2563eb"></circle><circle class="dot" cx="404.1635687732342" cy="170" r="3" fill="#2563eb"></circle><circle class="dot" cx="405.5018587360595" cy="170" r="3" fill="#2563eb"></circle><circle class="dot" cx="406.8401486988848" cy="170" r="3" fill="#2563eb"></circle><circle class="dot" cx="408.17843866171006" cy="170" r="3" fill="#2563eb"></circle><circle class="dot" cx="409.51672862453535" cy="170" r="3" fill="#2563eb"></circle><circle class="dot" cx="410.8550185873606" cy="170" r="3" fill="#2563eb"></circle><circle class="dot" cx="412.19330855018586" cy="170" r="3" fill="#2563eb"></circle><circle class="dot" cx="413.53159851301115" cy="170" r="3" fill="#2563eb"></circle><circle class="dot" cx="414.86988847583643" cy="170" r="3" fill="#2563eb"></circle><circle class="dot" cx="416.2081784386617" cy="170" r="3" fill="#2563eb"></circle><circle class="dot" cx="417.54646840148695" cy="170" r="3" fill="#2563eb"></circle><circle class="dot" cx="418.8847583643123" cy="170" r="3" fill="#2563eb"></circle><circle class="dot" cx="420.2230483271375" cy="170" r="3" fill="#2563eb"></circle><circle class="dot" cx="421.56133828996286" cy="170" r="3" fill="#2563eb"></circle><circle class="dot" cx="422.8996282527881" cy="170" r="3" fill="#2563eb"></circle><circle class="dot" cx="424.2379182156134" cy="170" r="3" fill="#2563eb"></circle><circle class="dot" cx="425.57620817843866" cy="170" r="3" fill="#2563eb"></circle><circle class="dot" cx="426.9144981412639" cy="170" r="3" fill="#2563eb"></circle><circle class="dot" cx="428.25278810408923" cy="170" r="3" fill="#2563eb"></circle><circle class="dot" cx="429.59107806691446" cy="170" r="3" fill="#2563eb"></circle><circle class="dot" cx="430.9293680297398" cy="170" r="3" fill="#2563eb"></circle><circle class="dot" cx="432.26765799256503" cy="170" r="3" fill="#2563eb"></circle><circle class="dot" cx="433.6059479553904" cy="170" r="3" fill="#2563eb"></circle><circle class="dot" cx="434.9442379182156" cy="170" r="3" fill="#2563eb"></circle><circle class="dot" cx="436.28252788104083" cy="170" r="3" fill="#2563eb"></circle><circle class="dot" cx="437.6208178438662" cy="170" r="3" fill="#2563eb"></circle><circle class="dot" cx="438.9591078066914" cy="170" r="3" fill="#2563eb"></circle><circle class="dot" cx="440.29739776951675" cy="170" r="3" fill="#2563eb"></circle><circle class="dot" cx="441.635687732342" cy="170" r="3" fill="#2563eb"></circle><circle class="dot" cx="442.9739776951673" cy="170" r="3" fill="#2563eb"></circle><circle class="dot" cx="444.31226765799255" cy="170" r="3" fill="#2563eb"></circle><circle class="dot" cx="445.6505576208179" cy="170" r="3" fill="#2563eb"></circle><circle class="dot" cx="446.9888475836431" cy="170" r="3" fill="#2563eb"></circle><circle class="dot" cx="448.32713754646835" cy="170" r="3" fill="#2563eb"></circle><circle class="dot" cx="449.6654275092937" cy="170" r="3" fill="#2563eb"></circle><circle class="dot" cx="451.0037174721189" cy="170" r="3" fill="#2563eb"></circle><circle class="dot" cx="452.34200743494426" cy="170" r="3" fill="#2563eb"></circle><circle class="dot" cx="453.6802973977695" cy="170" r="3" fill="#2563eb"></circle><circle class="dot" cx="455.01858736059484" cy="170" r="3" fill="#2563eb"></circle><circle class="dot" cx="456.35687732342006" cy="170" r="3" fill="#2563eb"></circle><circle class="dot" cx="457.6951672862454" cy="170" r="3" fill="#2563eb"></circle><circle class="dot" cx="459.03345724907064" cy="170" r="3" fill="#2563eb"></circle><circle class="dot" cx="460.37174721189587" cy="170" r="3" fill="#2563eb"></circle><circle class="dot" cx="461.7100371747212" cy="170" r="3" fill="#2563eb"></circle><circle class="dot" cx="463.04832713754644" cy="170" r="3" fill="#2563eb"></circle><circle class="dot" cx="464.3866171003718" cy="170" r="3" fill="#2563eb"></circle><circle class="dot" cx="465.724907063197" cy="170" r="3" fill="#2563eb"></circle><circle class="dot" cx="467.06319702602235" cy="170" r="3" fill="#2563eb"></circle><circle class="dot" cx="468.4014869888476" cy="170" r="3" fill="#2563eb"></circle><circle class="dot" cx="469.7397769516729" cy="170" r="3" fill="#2563eb"></circle><circle class="dot" cx="471.07806691449815" cy="170" r="3" fill="#2563eb"></circle><circle class="dot" cx="472.4163568773234" cy="170" r="3" fill="#2563eb"></circle><circle class="dot" cx="473.7546468401487" cy="170" r="3" fill="#2563eb"></circle><circle class="dot" cx="475.09293680297395" cy="170" r="3" fill="#2563eb"></circle><circle class="dot" cx="476.4312267657993" cy="170" r="3" fill="#2563eb"></circle><circle class="dot" cx="477.7695167286245" cy="170" r="3" fill="#2563eb"></circle><circle class="dot" cx="479.1078066914498" cy="170" r="3" fill="#2563eb"></circle><circle class="dot" cx="480.4460966542751" cy="170" r="3" fill="#2563eb"></circle><circle class="dot" cx="481.7843866171004" cy="170" r="3" fill="#2563eb"></circle><circle class="dot" cx="483.12267657992567" cy="170" r="3" fill="#2563eb"></circle><circle class="dot" cx="484.4609665427509" cy="170" r="3" fill="#2563eb"></circle><circle class="dot" cx="485.79925650557624" cy="170" r="3" fill="#2563eb"></circle><circle class="dot" cx="487.13754646840147" cy="170" r="3" fill="#2563eb"></circle><circle class="dot" cx="488.47583643122675" cy="170" r="3" fill="#2563eb"></circle><circle class="dot" cx="489.81412639405204" cy="170" r="3" fill="#2563eb"></circle><circle class="dot" cx="491.1524163568773" cy="170" r="3" fill="#2563eb"></circle><circle class="dot" cx="492.4907063197026" cy="170" r="3" fill="#2563eb"></circle><circle class="dot" cx="493.8289962825279" cy="170" r="3" fill="#2563eb"></circle><circle class="dot" cx="495.1672862453532" cy="170" r="3" fill="#2563eb"></circle><circle class="dot" cx="496.50557620817847" cy="170" r="3" fill="#2563eb"></circle><circle class="dot" cx="497.8438661710037" cy="170" r="3" fill="#2563eb"></circle><circle class="dot" cx="499.182156133829" cy="170" r="3" fill="#2563eb"></circle><circle class="dot" cx="500.52044609665427" cy="170" r="3" fill="#2563eb"></circle><circle class="dot" cx="501.85873605947955" cy="170" r="3" fill="#2563eb"></circle><circle class="dot" cx="503.19702602230484" cy="170" r="3" fill="#2563eb"></circle><circle class="dot" cx="504.53531598513007" cy="170" r="3" fill="#2563eb"></circle><circle class="dot" cx="505.8736059479554" cy="170" r="3" fill="#2563eb"></circle><circle class="dot" cx="507.21189591078064" cy="170" r="3" fill="#2563eb"></circle><circle class="dot" cx="508.550185873606" cy="170" r="3" fill="#2563eb"></circle><circle class="dot" cx="509.8884758364312" cy="170" r="3" fill="#2563eb"></circle><circle class="dot" cx="511.2267657992565" cy="170" r="3" fill="#2563eb"></circle><circle class="dot" cx="512.5650557620818" cy="170" r="3" fill="#2563eb"></circle><circle class="dot" cx="513.903345724907" cy="170" r="3" fill="#2563eb"></circle><circle class="dot" cx="515.2416356877324" cy="170" r="3" fill="#2563eb"></circle><circle class="dot" cx="516.5799256505576" cy="170" r="3" fill="#2563eb"></circle><circle class="dot" cx="517.9182156133829" cy="170" r="3" fill="#2563eb"></circle><circle class="dot" cx="519.2565055762082" cy="170" r="3" fill="#2563eb"></circle><circle class="dot" cx="520.5947955390335" cy="170" r="3" fill="#2563eb"></circle><circle class="dot" cx="521.9330855018587" cy="170" r="3" fill="#2563eb"></circle><circle class="dot" cx="523.271375464684" cy="170" r="3" fill="#2563eb"></circle><circle class="dot" cx="524.6096654275093" cy="170" r="3" fill="#2563eb"></circle><circle class="dot" cx="525.9479553903345" cy="170" r="3" fill="#2563eb"></circle><circle class="dot" cx="527.2862453531599" cy="170" r="3" fill="#2563eb"></circle><circle class="dot" cx="528.6245353159851" cy="170" r="3" fill="#2563eb"></circle><circle class="dot" cx="529.9628252788104" cy="170" r="3" fill="#2563eb"></circle><circle class="dot" cx="531.3011152416357" cy="170" r="3" fill="#2563eb"></circle><circle class="dot" cx="532.639405204461" cy="170" r="3" fill="#2563eb"></circle><circle class="dot" cx="533.9776951672862" cy="170" r="3" fill="#2563eb"></circle><circle class="dot" cx="535.3159851301115" cy="170" r="3" fill="#2563eb"></circle><circle class="dot" cx="536.6542750929368" cy="170" r="3" fill="#2563eb"></circle><circle class="dot" cx="537.992565055762" cy="170" r="3" fill="#2563eb"></circle><circle class="dot" cx="539.3308550185874" cy="170" r="3" fill="#2563eb"></circle><circle class="dot" cx="540.6691449814126" cy="170" r="3" fill="#2563eb"></circle><circle class="dot" cx="542.007434944238" cy="170" r="3" fill="#2563eb"></circle><circle class="dot" cx="543.3457249070632" cy="170" r="3" fill="#2563eb"></circle><circle class="dot" cx="544.6840148698885" cy="170" r="3" fill="#2563eb"></circle><circle class="dot" cx="546.0223048327138" cy="170" r="3" fill="#2563eb"></circle><circle class="dot" cx="547.360594795539" cy="170" r="3" fill="#2563eb"></circle><circle class="dot" cx="548.6988847583643" cy="170" r="3" fill="#2563eb"></circle><circle class="dot" cx="550.0371747211896" cy="170" r="3" fill="#2563eb"></circle><circle class="dot" cx="551.3754646840149" cy="170" r="3" fill="#2563eb"></circle><circle class="dot" cx="552.7137546468401" cy="170" r="3" fill="#2563eb"></circle><circle class="dot" cx="554.0520446096655" cy="170" r="3" fill="#2563eb"></circle><circle class="dot" cx="555.3903345724907" cy="170" r="3" fill="#2563eb"></circle><circle class="dot" cx="556.728624535316" cy="170" r="3" fill="#2563eb"></circle><circle class="dot" cx="558.0669144981413" cy="170" r="3" fill="#2563eb"></circle><circle class="dot" cx="559.4052044609665" cy="170" r="3" fill="#2563eb"></circle><circle class="dot" cx="560.7434944237918" cy="170" r="3" fill="#2563eb"></circle><circle class="dot" cx="562.0817843866171" cy="170" r="3" fill="#2563eb"></circle><circle class="dot" cx="563.4200743494424" cy="170" r="3" fill="#2563eb"></circle><circle class="dot" cx="564.7583643122676" cy="170" r="3" fill="#2563eb"></circle><circle class="dot" cx="566.096654275093" cy="170" r="3" fill="#2563eb"></circle><circle class="dot" cx="567.4349442379182" cy="170" r="3" fill="#2563eb"></circle><circle class="dot" cx="568.7732342007436" cy="170" r="3" fill="#2563eb"></circle><circle class="dot" cx="570.1115241635688" cy="170" r="3" fill="#2563eb"></circle><circle class="dot" cx="571.449814126394" cy="170" r="3" fill="#2563eb"></circle><circle class="dot" cx="572.7881040892194" cy="170" r="3" fill="#2563eb"></circle><circle class="dot" cx="574.1263940520446" cy="170" r="3" fill="#2563eb"></circle><circle class="dot" cx="575.4646840148699" cy="170" r="3" fill="#2563eb"></circle><circle class="dot" cx="576.8029739776952" cy="170" r="3" fill="#2563eb"></circle><circle class="dot" cx="578.1412639405205" cy="170" r="3" fill="#2563eb"></circle><circle class="dot" cx="579.4795539033457" cy="170" r="3" fill="#2563eb"></circle><circle class="dot" cx="580.8178438661711" cy="170" r="3" fill="#2563eb"></circle><circle class="dot" cx="582.1561338289963" cy="170" r="3" fill="#2563eb"></circle><circle class="dot" cx="583.4944237918215" cy="170" r="3" fill="#2563eb"></circle><circle class="dot" cx="584.8327137546469" cy="170" r="3" fill="#2563eb"></circle><circle class="dot" cx="586.1710037174721" cy="170" r="3" fill="#2563eb"></circle><circle class="dot" cx="587.5092936802974" cy="170" r="3" fill="#2563eb"></circle><circle class="dot" cx="588.8475836431227" cy="170" r="3" fill="#2563eb"></circle><circle class="dot" cx="590.185873605948" cy="170" r="3" fill="#2563eb"></circle><circle class="dot" cx="591.5241635687732" cy="170" r="3" fill="#2563eb"></circle><circle class="dot" cx="592.8624535315986" cy="170" r="3" fill="#2563eb"></circle><circle class="dot" cx="594.2007434944238" cy="170" r="3" fill="#2563eb"></circle><circle class="dot" cx="595.5390334572492" cy="170" r="3" fill="#2563eb"></circle><circle class="dot" cx="596.8773234200744" cy="170" r="3" fill="#2563eb"></circle><circle class="dot" cx="598.2156133828996" cy="170" r="3" fill="#2563eb"></circle><circle class="dot" cx="599.553903345725" cy="170" r="3" fill="#2563eb"></circle><circle class="dot" cx="600.8921933085502" cy="170" r="3" fill="#2563eb"></circle><circle class="dot" cx="602.2304832713755" cy="170" r="3" fill="#2563eb"></circle><circle class="dot" cx="603.5687732342008" cy="170" r="3" fill="#2563eb"></circle><circle class="dot" cx="604.9070631970261" cy="170" r="3" fill="#2563eb"></circle><circle class="dot" cx="606.2453531598513" cy="170" r="3" fill="#2563eb"></circle><circle class="dot" cx="607.5836431226766" cy="170" r="3" fill="#2563eb"></circle><circle class="dot" cx="608.9219330855019" cy="170" r="3" fill="#2563eb"></circle><circle class="dot" cx="610.2602230483271" cy="170" r="3" fill="#2563eb"></circle><circle class="dot" cx="611.5985130111525" cy="170" r="3" fill="#2563eb"></circle><circle class="dot" cx="612.9368029739777" cy="170" r="3" fill="#2563eb"></circle><circle class="dot" cx="614.275092936803" cy="170" r="3" fill="#2563eb"></circle><circle class="dot" cx="615.6133828996283" cy="170" r="3" fill="#2563eb"></circle><circle class="dot" cx="616.9516728624535" cy="170" r="3" fill="#2563eb"></circle><circle class="dot" cx="618.2899628252788" cy="170" r="3" fill="#2563eb"></circle><circle class="dot" cx="619.6282527881041" cy="170" r="3" fill="#2563eb"></circle><circle class="dot" cx="620.9665427509294" cy="170" r="3" fill="#2563eb"></circle><circle class="dot" cx="622.3048327137546" cy="170" r="3" fill="#2563eb"></circle><circle class="dot" cx="623.6431226765799" cy="170" r="3" fill="#2563eb"></circle><circle class="dot" cx="624.9814126394052" cy="170" r="3" fill="#2563eb"></circle><circle class="dot" cx="626.3197026022304" cy="170" r="3" fill="#2563eb"></circle><circle class="dot" cx="627.6579925650558" cy="170" r="3" fill="#2563eb"></circle><circle class="dot" cx="628.996282527881" cy="170" r="3" fill="#2563eb"></circle><circle class="dot" cx="630.3345724907064" cy="170" r="3" fill="#2563eb"></circle><circle class="dot" cx="631.6728624535316" cy="170" r="3" fill="#2563eb"></circle><circle class="dot" cx="633.0111524163568" cy="170" r="3" fill="#2563eb"></circle><circle class="dot" cx="634.3494423791822" cy="170" r="3" fill="#2563eb"></circle><circle class="dot" cx="635.6877323420074" cy="170" r="3" fill="#2563eb"></circle><circle class="dot" cx="637.0260223048327" cy="170" r="3" fill="#2563eb"></circle><circle class="dot" cx="638.364312267658" cy="170" r="3" fill="#2563eb"></circle><circle class="dot" cx="639.7026022304833" cy="170" r="3" fill="#2563eb"></circle><circle class="dot" cx="641.0408921933085" cy="170" r="3" fill="#2563eb"></circle><circle class="dot" cx="642.3791821561338" cy="170" r="3" fill="#2563eb"></circle><circle class="dot" cx="643.7174721189591" cy="170" r="3" fill="#2563eb"></circle><circle class="dot" cx="645.0557620817843" cy="170" r="3" fill="#2563eb"></circle><circle class="dot" cx="646.3940520446097" cy="170" r="3" fill="#2563eb"></circle><circle class="dot" cx="647.7323420074349" cy="170" r="3" fill="#2563eb"></circle><circle class="dot" cx="649.0706319702601" cy="170" r="3" fill="#2563eb"></circle><circle class="dot" cx="650.4089219330855" cy="170" r="3" fill="#2563eb"></circle><circle class="dot" cx="651.7472118959107" cy="170" r="3" fill="#2563eb"></circle><circle class="dot" cx="653.085501858736" cy="170" r="3" fill="#2563eb"></circle><circle class="dot" cx="654.4237918215613" cy="170" r="3" fill="#2563eb"></circle><circle class="dot" cx="655.7620817843866" cy="170" r="3" fill="#2563eb"></circle><circle class="dot" cx="657.1003717472119" cy="170" r="3" fill="#2563eb"></circle><circle class="dot" cx="658.4386617100371" cy="170" r="3" fill="#2563eb"></circle><circle class="dot" cx="659.7769516728624" cy="170" r="3" fill="#2563eb"></circle><circle class="dot" cx="661.1152416356877" cy="170" r="3" fill="#2563eb"></circle><circle class="dot" cx="662.453531598513" cy="170" r="3" fill="#2563eb"></circle><circle class="dot" cx="663.7918215613382" cy="170" r="3" fill="#2563eb"></circle><circle class="dot" cx="665.1301115241636" cy="170" r="3" fill="#2563eb"></circle><circle class="dot" cx="666.4684014869888" cy="170" r="3" fill="#2563eb"></circle><circle class="dot" cx="667.8066914498141" cy="170" r="3" fill="#2563eb"></circle><circle class="dot" cx="669.1449814126394" cy="170" r="3" fill="#2563eb"></circle><circle class="dot" cx="670.4832713754646" cy="170" r="3" fill="#2563eb"></circle><circle class="dot" cx="671.8215613382899" cy="170" r="3" fill="#2563eb"></circle><circle class="dot" cx="673.1598513011152" cy="170" r="3" fill="#2563eb"></circle><circle class="dot" cx="674.4981412639405" cy="170" r="3" fill="#2563eb"></circle><circle class="dot" cx="675.8364312267657" cy="170" r="3" fill="#2563eb"></circle><circle class="dot" cx="677.1747211895911" cy="170" r="3" fill="#2563eb"></circle><circle class="dot" cx="678.5130111524163" cy="170" r="3" fill="#2563eb"></circle><circle class="dot" cx="679.8513011152417" cy="170" r="3" fill="#2563eb"></circle><circle class="dot" cx="681.1895910780669" cy="170" r="3" fill="#2563eb"></circle><circle class="dot" cx="682.5278810408922" cy="170" r="3" fill="#2563eb"></circle><circle class="dot" cx="683.8661710037175" cy="170" r="3" fill="#2563eb"></circle><circle class="dot" cx="685.2044609665427" cy="170" r="3" fill="#2563eb"></circle><circle class="dot" cx="686.542750929368" cy="170" r="3" fill="#2563eb"></circle><circle class="dot" cx="687.8810408921933" cy="170" r="3" fill="#2563eb"></circle><circle class="dot" cx="689.2193308550186" cy="170" r="3" fill="#2563eb"></circle><circle class="dot" cx="690.5576208178438" cy="170" r="3" fill="#2563eb"></circle><circle class="dot" cx="691.8959107806692" cy="170" r="3" fill="#2563eb"></circle><circle class="dot" cx="693.2342007434944" cy="170" r="3" fill="#2563eb"></circle><circle class="dot" cx="694.5724907063197" cy="170" r="3" fill="#2563eb"></circle><circle class="dot" cx="695.910780669145" cy="170" r="3" fill="#2563eb"></circle><circle class="dot" cx="697.2490706319702" cy="170" r="3" fill="#2563eb"></circle><circle class="dot" cx="698.5873605947955" cy="170" r="3" fill="#2563eb"></circle><circle class="dot" cx="699.9256505576208" cy="170" r="3" fill="#2563eb"></circle><circle class="dot" cx="701.2639405204461" cy="170" r="3" fill="#2563eb"></circle><circle class="dot" cx="702.6022304832713" cy="170" r="3" fill="#2563eb"></circle><circle class="dot" cx="703.9405204460967" cy="170" r="3" fill="#2563eb"></circle><circle class="dot" cx="705.2788104089219" cy="170" r="3" fill="#2563eb"></circle><circle class="dot" cx="706.6171003717473" cy="170" r="3" fill="#2563eb"></circle><circle class="dot" cx="707.9553903345725" cy="170" r="3" fill="#2563eb"></circle><circle class="dot" cx="709.2936802973977" cy="170" r="3" fill="#2563eb"></circle><circle class="dot" cx="710.631970260223" cy="170" r="3" fill="#2563eb"></circle><circle class="dot" cx="711.9702602230483" cy="170" r="3" fill="#2563eb"></circle><circle class="dot" cx="713.3085501858736" cy="170" r="3" fill="#2563eb"></circle><circle class="dot" cx="714.6468401486989" cy="170" r="3" fill="#2563eb"></circle><circle class="dot" cx="715.9851301115242" cy="170" r="3" fill="#2563eb"></circle><circle class="dot" cx="717.3234200743494" cy="170" r="3" fill="#2563eb"></circle><circle class="dot" cx="718.6617100371748" cy="170" r="3" fill="#2563eb"></circle><circle class="dot" cx="720" cy="170" r="3" fill="#2563eb"></circle><g class="grid" transform="translate(0,340)" fill="none" font-size="10" font-family="sans-serif" text-anchor="middle" style="stroke-dasharray: 3,3; opacity: 0.3;"><path class="domain" stroke="currentColor" d="M0.5,-340V0.5H720.5V-340"></path><g class="tick" opacity="1" transform="translate(0.5,0)"><line stroke="currentColor" y2="-340"></line><text fill="currentColor" y="3" dy="0.71em"></text></g><g class="tick" opacity="1" transform="translate(32.61895910780669,0)"><line stroke="currentColor" y2="-340"></line><text fill="currentColor" y="3" dy="0.71em"></text></g><g class="tick" opacity="1" transform="translate(64.73791821561338,0)"><line stroke="currentColor" y2="-340"></line><text fill="currentColor" y="3" dy="0.71em"></text></g><g class="tick" opacity="1" transform="translate(96.85687732342006,0)"><line stroke="currentColor" y2="-340"></line><text fill="currentColor" y="3" dy="0.71em"></text></g><g class="tick" opacity="1" transform="translate(128.97583643122675,0)"><line stroke="currentColor" y2="-340"></line><text fill="currentColor" y="3" dy="0.71em"></text></g><g class="tick" opacity="1" transform="translate(161.09479553903344,0)"><line stroke="currentColor" y2="-340"></line><text fill="currentColor" y="3" dy="0.71em"></text></g><g class="tick" opacity="1" transform="translate(193.21375464684013,0)"><line stroke="currentColor" y2="-340"></line><text fill="currentColor" y="3" dy="0.71em"></text></g><g class="tick" opacity="1" transform="translate(225.33271375464685,0)"><line stroke="currentColor" y2="-340"></line><text fill="currentColor" y="3" dy="0.71em"></text></g><g class="tick" opacity="1" transform="translate(257.4516728624535,0)"><line stroke="currentColor" y2="-340"></line><text fill="currentColor" y="3" dy="0.71em"></text></g><g class="tick" opacity="1" transform="translate(289.57063197026025,0)"><line stroke="currentColor" y2="-340"></line><text fill="currentColor" y="3" dy="0.71em"></text></g><g class="tick" opacity="1" transform="translate(321.6895910780669,0)"><line stroke="currentColor" y2="-340"></line><text fill="currentColor" y="3" dy="0.71em"></text></g><g class="tick" opacity="1" transform="translate(353.8085501858736,0)"><line stroke="currentColor" y2="-340"></line><text fill="currentColor" y="3" dy="0.71em"></text></g><g class="tick" opacity="1" transform="translate(385.92750929368026,0)"><line stroke="currentColor" y2="-340"></line><text fill="currentColor" y="3" dy="0.71em"></text></g><g class="tick" opacity="1" transform="translate(418.04646840148695,0)"><line stroke="currentColor" y2="-340"></line><text fill="currentColor" y="3" dy="0.71em"></text></g><g class="tick" opacity="1" transform="translate(450.1654275092937,0)"><line stroke="currentColor" y2="-340"></line><text fill="currentColor" y="3" dy="0.71em"></text></g><g class="tick" opacity="1" transform="translate(482.2843866171004,0)"><line stroke="currentColor" y2="-340"></line><text fill="currentColor" y="3" dy="0.71em"></text></g><g class="tick" opacity="1" transform="translate(514.403345724907,0)"><line stroke="currentColor" y2="-340"></line><text fill="currentColor" y="3" dy="0.71em"></text></g><g class="tick" opacity="1" transform="translate(546.5223048327138,0)"><line stroke="currentColor" y2="-340"></line><text fill="currentColor" y="3" dy="0.71em"></text></g><g class="tick" opacity="1" transform="translate(578.6412639405205,0)"><line stroke="currentColor" y2="-340"></line><text fill="currentColor" y="3" dy="0.71em"></text></g><g class="tick" opacity="1" transform="translate(610.7602230483271,0)"><line stroke="currentColor" y2="-340"></line><text fill="currentColor" y="3" dy="0.71em"></text></g><g class="tick" opacity="1" transform="translate(642.8791821561338,0)"><line stroke="currentColor" y2="-340"></line><text fill="currentColor" y="3" dy="0.71em"></text></g><g class="tick" opacity="1" transform="translate(674.9981412639405,0)"><line stroke="currentColor" y2="-340"></line><text fill="currentColor" y="3" dy="0.71em"></text></g><g class="tick" opacity="1" transform="translate(707.1171003717473,0)"><line stroke="currentColor" y2="-340"></line><text fill="currentColor" y="3" dy="0.71em"></text></g></g><g class="grid" fill="none" font-size="10" font-family="sans-serif" text-anchor="end" style="stroke-dasharray: 3,3; opacity: 0.3;"><path class="domain" stroke="currentColor" d="M720,340.5H0.5V0.5H720"></path><g class="tick" opacity="1" transform="translate(0,170.5)"><line stroke="currentColor" x2="720"></line><text fill="currentColor" x="-3" dy="0.32em"></text></g></g></g><text x="400" y="10" text-anchor="middle" style="font-size: 16px; font-weight: bold; fill: #333;">OKX USDT Lending Rate - Current Month</text></svg>