<svg width="800" height="400" xmlns="http://www.w3.org/2000/svg"><g transform="translate(50,20)"><g transform="translate(0,340)" fill="none" font-size="10" font-family="sans-serif" text-anchor="middle"><path class="domain" stroke="currentColor" d="M0.5,6V0.5H720.5V6"></path><g class="tick" opacity="1" transform="translate(0.5,0)"><line stroke="currentColor" y2="6"></line><text fill="currentColor" y="9" dy=".15em" style="text-anchor: end;" dx="-.8em" transform="rotate(-45)">09/01</text></g><g class="tick" opacity="1" transform="translate(222.03846153846155,0)"><line stroke="currentColor" y2="6"></line><text fill="currentColor" y="9" dy=".15em" style="text-anchor: end;" dx="-.8em" transform="rotate(-45)">09/02</text></g><g class="tick" opacity="1" transform="translate(443.5769230769231,0)"><line stroke="currentColor" y2="6"></line><text fill="currentColor" y="9" dy=".15em" style="text-anchor: end;" dx="-.8em" transform="rotate(-45)">09/03</text></g><g class="tick" opacity="1" transform="translate(665.1153846153846,0)"><line stroke="currentColor" y2="6"></line><text fill="currentColor" y="9" dy=".15em" style="text-anchor: end;" dx="-.8em" transform="rotate(-45)">09/04</text></g></g><g fill="none" font-size="10" font-family="sans-serif" text-anchor="end"><path class="domain" stroke="currentColor" d="M-6,340.5H0.5V0.5H-6"></path><g class="tick" opacity="1" transform="translate(0,340.5)"><line stroke="currentColor" x2="-6"></line><text fill="currentColor" x="-9" dy="0.32em">4.00%</text></g><g class="tick" opacity="1" transform="translate(0,298)"><line stroke="currentColor" x2="-6"></line><text fill="currentColor" x="-9" dy="0.32em">5.00%</text></g><g class="tick" opacity="1" transform="translate(0,255.5)"><line stroke="currentColor" x2="-6"></line><text fill="currentColor" x="-9" dy="0.32em">6.00%</text></g><g class="tick" opacity="1" transform="translate(0,212.99999999999997)"><line stroke="currentColor" x2="-6"></line><text fill="currentColor" x="-9" dy="0.32em">7.00%</text></g><g class="tick" opacity="1" transform="translate(0,170.49999999999997)"><line stroke="currentColor" x2="-6"></line><text fill="currentColor" x="-9" dy="0.32em">8.00%</text></g><g class="tick" opacity="1" transform="translate(0,128)"><line stroke="currentColor" x2="-6"></line><text fill="currentColor" x="-9" dy="0.32em">9.00%</text></g><g class="tick" opacity="1" transform="translate(0,85.49999999999993)"><line stroke="currentColor" x2="-6"></line><text fill="currentColor" x="-9" dy="0.32em">10.00%</text></g><g class="tick" opacity="1" transform="translate(0,42.99999999999992)"><line stroke="currentColor" x2="-6"></line><text fill="currentColor" x="-9" dy="0.32em">11.00%</text></g><g class="tick" opacity="1" transform="translate(0,0.5)"><line stroke="currentColor" x2="-6"></line><text fill="currentColor" x="-9" dy="0.32em">12.00%</text></g></g><text transform="rotate(-90)" y="-50" x="-170" dy="1em" style="text-anchor: middle; font-size: 12px; fill: #666;">Pre Rate (%)</text><text transform="translate(360, 380)" style="text-anchor: middle; font-size: 12px; fill: #666;">Time (UTC)</text><path fill="none" stroke="#2563eb" stroke-width="2" d="M0,340C3.077,340,6.154,340,9.231,340C12.308,340,15.385,340,18.462,340C21.538,340,24.615,340,27.692,340C30.769,340,33.846,340,36.923,340C40,340,43.077,340,46.154,340C49.231,340,52.308,340,55.385,340C58.462,340,61.538,340,64.615,340C67.692,340,70.769,198.333,73.846,170C76.923,141.667,80,127.5,83.077,127.5C86.154,127.5,89.231,184.167,92.308,212.5C95.385,240.833,98.462,297.5,101.538,297.5C104.615,297.5,107.692,283.333,110.769,255C113.846,226.667,116.923,127.5,120,127.5C123.077,127.5,126.154,212.5,129.231,212.5C132.308,212.5,135.385,212.5,138.462,212.5C141.538,212.5,144.615,212.5,147.692,212.5C150.769,212.5,153.846,212.5,156.923,212.5C160,212.5,163.077,297.5,166.154,297.5C169.231,297.5,172.308,269.167,175.385,255C178.462,240.833,181.538,212.5,184.615,212.5C187.692,212.5,190.769,340,193.846,340C196.923,340,200,340,203.077,340C206.154,340,209.231,340,212.308,340C215.385,340,218.462,255,221.538,255C224.615,255,227.692,297.5,230.769,297.5C233.846,297.5,236.923,283.333,240,255C243.077,226.667,246.154,155.833,249.231,127.5C252.308,99.167,255.385,85,258.462,85C261.538,85,264.615,113.333,267.692,127.5C270.769,141.667,273.846,170,276.923,170C280,170,283.077,0,286.154,0C289.231,0,292.308,56.667,295.385,85C298.462,113.333,301.538,170,304.615,170C307.692,170,310.769,170,313.846,170C316.923,170,320,170,323.077,170C326.154,170,329.231,198.333,332.308,212.5C335.385,226.667,338.462,255,341.538,255C344.615,255,347.692,0,350.769,0C353.846,0,356.923,42.5,360,85C363.077,127.5,366.154,255,369.231,255C372.308,255,375.385,170,378.462,170C381.538,170,384.615,212.5,387.692,212.5C390.769,212.5,393.846,212.5,396.923,212.5C400,212.5,403.077,255,406.154,255C409.231,255,412.308,85,415.385,85C418.462,85,421.538,85,424.615,85C427.692,85,430.769,42.5,433.846,42.5C436.923,42.5,440,42.5,443.077,42.5C446.154,42.5,449.231,85,452.308,85C455.385,85,458.462,42.5,461.538,42.5C464.615,42.5,467.692,42.5,470.769,42.5C473.846,42.5,476.923,106.25,480,127.5C483.077,148.75,486.154,148.75,489.231,170C492.308,191.25,495.385,233.75,498.462,255C501.538,276.25,504.615,297.5,507.692,297.5C510.769,297.5,513.846,255,516.923,255C520,255,523.077,340,526.154,340C529.231,340,532.308,297.5,535.385,297.5C538.462,297.5,541.538,297.5,544.615,297.5C547.692,297.5,550.769,297.5,553.846,297.5C556.923,297.5,560,340,563.077,340C566.154,340,569.231,184.167,572.308,127.5C575.385,70.833,578.462,0,581.538,0C584.615,0,587.692,21.25,590.769,42.5C593.846,63.75,596.923,99.167,600,127.5C603.077,155.833,606.154,191.25,609.231,212.5C612.308,233.75,615.385,255,618.462,255C621.538,255,624.615,226.667,627.692,212.5C630.769,198.333,633.846,170,636.923,170C640,170,643.077,170,646.154,170C649.231,170,652.308,170,655.385,170C658.462,170,661.538,170,664.615,170C667.692,170,670.769,85,673.846,85C676.923,85,680,99.167,683.077,127.5C686.154,155.833,689.231,255,692.308,255C695.385,255,698.462,255,701.538,255C704.615,255,707.692,255,710.769,255C713.846,255,716.923,255,720,255"></path><circle class="dot" cx="0" cy="340" r="3" fill="#2563eb"></circle><circle class="dot" cx="9.23076923076923" cy="340" r="3" fill="#2563eb"></circle><circle class="dot" cx="18.46153846153846" cy="340" r="3" fill="#2563eb"></circle><circle class="dot" cx="27.692307692307693" cy="340" r="3" fill="#2563eb"></circle><circle class="dot" cx="36.92307692307692" cy="340" r="3" fill="#2563eb"></circle><circle class="dot" cx="46.153846153846146" cy="340" r="3" fill="#2563eb"></circle><circle class="dot" cx="55.38461538461539" cy="340" r="3" fill="#2563eb"></circle><circle class="dot" cx="64.61538461538461" cy="340" r="3" fill="#2563eb"></circle><circle class="dot" cx="73.84615384615384" cy="169.99999999999997" r="3" fill="#2563eb"></circle><circle class="dot" cx="83.07692307692308" cy="127.5" r="3" fill="#2563eb"></circle><circle class="dot" cx="92.30769230769229" cy="212.49999999999997" r="3" fill="#2563eb"></circle><circle class="dot" cx="101.53846153846153" cy="297.5" r="3" fill="#2563eb"></circle><circle class="dot" cx="110.76923076923077" cy="255" r="3" fill="#2563eb"></circle><circle class="dot" cx="120" cy="127.5" r="3" fill="#2563eb"></circle><circle class="dot" cx="129.23076923076923" cy="212.49999999999997" r="3" fill="#2563eb"></circle><circle class="dot" cx="138.46153846153848" cy="212.49999999999997" r="3" fill="#2563eb"></circle><circle class="dot" cx="147.69230769230768" cy="212.49999999999997" r="3" fill="#2563eb"></circle><circle class="dot" cx="156.92307692307693" cy="212.49999999999997" r="3" fill="#2563eb"></circle><circle class="dot" cx="166.15384615384616" cy="297.5" r="3" fill="#2563eb"></circle><circle class="dot" cx="175.3846153846154" cy="255" r="3" fill="#2563eb"></circle><circle class="dot" cx="184.61538461538458" cy="212.49999999999997" r="3" fill="#2563eb"></circle><circle class="dot" cx="193.84615384615384" cy="340" r="3" fill="#2563eb"></circle><circle class="dot" cx="203.07692307692307" cy="340" r="3" fill="#2563eb"></circle><circle class="dot" cx="212.30769230769232" cy="340" r="3" fill="#2563eb"></circle><circle class="dot" cx="221.53846153846155" cy="255" r="3" fill="#2563eb"></circle><circle class="dot" cx="230.7692307692308" cy="297.5" r="3" fill="#2563eb"></circle><circle class="dot" cx="240" cy="255" r="3" fill="#2563eb"></circle><circle class="dot" cx="249.23076923076923" cy="127.5" r="3" fill="#2563eb"></circle><circle class="dot" cx="258.46153846153845" cy="84.99999999999993" r="3" fill="#2563eb"></circle><circle class="dot" cx="267.6923076923077" cy="127.5" r="3" fill="#2563eb"></circle><circle class="dot" cx="276.92307692307696" cy="169.99999999999997" r="3" fill="#2563eb"></circle><circle class="dot" cx="286.15384615384613" cy="0" r="3" fill="#2563eb"></circle><circle class="dot" cx="295.38461538461536" cy="84.99999999999993" r="3" fill="#2563eb"></circle><circle class="dot" cx="304.6153846153846" cy="169.99999999999997" r="3" fill="#2563eb"></circle><circle class="dot" cx="313.84615384615387" cy="169.99999999999997" r="3" fill="#2563eb"></circle><circle class="dot" cx="323.0769230769231" cy="169.99999999999997" r="3" fill="#2563eb"></circle><circle class="dot" cx="332.3076923076923" cy="212.49999999999997" r="3" fill="#2563eb"></circle><circle class="dot" cx="341.53846153846155" cy="255" r="3" fill="#2563eb"></circle><circle class="dot" cx="350.7692307692308" cy="0" r="3" fill="#2563eb"></circle><circle class="dot" cx="360" cy="84.99999999999993" r="3" fill="#2563eb"></circle><circle class="dot" cx="369.23076923076917" cy="255" r="3" fill="#2563eb"></circle><circle class="dot" cx="378.46153846153845" cy="169.99999999999997" r="3" fill="#2563eb"></circle><circle class="dot" cx="387.6923076923077" cy="212.49999999999997" r="3" fill="#2563eb"></circle><circle class="dot" cx="396.92307692307696" cy="212.49999999999997" r="3" fill="#2563eb"></circle><circle class="dot" cx="406.15384615384613" cy="255" r="3" fill="#2563eb"></circle><circle class="dot" cx="415.38461538461536" cy="84.99999999999993" r="3" fill="#2563eb"></circle><circle class="dot" cx="424.61538461538464" cy="84.99999999999993" r="3" fill="#2563eb"></circle><circle class="dot" cx="433.8461538461538" cy="42.49999999999992" r="3" fill="#2563eb"></circle><circle class="dot" cx="443.0769230769231" cy="42.49999999999992" r="3" fill="#2563eb"></circle><circle class="dot" cx="452.3076923076923" cy="84.99999999999993" r="3" fill="#2563eb"></circle><circle class="dot" cx="461.5384615384616" cy="42.49999999999992" r="3" fill="#2563eb"></circle><circle class="dot" cx="470.7692307692308" cy="42.49999999999992" r="3" fill="#2563eb"></circle><circle class="dot" cx="480" cy="127.5" r="3" fill="#2563eb"></circle><circle class="dot" cx="489.2307692307692" cy="169.99999999999997" r="3" fill="#2563eb"></circle><circle class="dot" cx="498.46153846153845" cy="255" r="3" fill="#2563eb"></circle><circle class="dot" cx="507.69230769230774" cy="297.5" r="3" fill="#2563eb"></circle><circle class="dot" cx="516.9230769230769" cy="255" r="3" fill="#2563eb"></circle><circle class="dot" cx="526.1538461538461" cy="340" r="3" fill="#2563eb"></circle><circle class="dot" cx="535.3846153846154" cy="297.5" r="3" fill="#2563eb"></circle><circle class="dot" cx="544.6153846153846" cy="297.5" r="3" fill="#2563eb"></circle><circle class="dot" cx="553.8461538461539" cy="297.5" r="3" fill="#2563eb"></circle><circle class="dot" cx="563.0769230769231" cy="340" r="3" fill="#2563eb"></circle><circle class="dot" cx="572.3076923076923" cy="127.5" r="3" fill="#2563eb"></circle><circle class="dot" cx="581.5384615384615" cy="0" r="3" fill="#2563eb"></circle><circle class="dot" cx="590.7692307692307" cy="42.49999999999992" r="3" fill="#2563eb"></circle><circle class="dot" cx="600" cy="127.5" r="3" fill="#2563eb"></circle><circle class="dot" cx="609.2307692307692" cy="212.49999999999997" r="3" fill="#2563eb"></circle><circle class="dot" cx="618.4615384615385" cy="255" r="3" fill="#2563eb"></circle><circle class="dot" cx="627.6923076923077" cy="212.49999999999997" r="3" fill="#2563eb"></circle><circle class="dot" cx="636.9230769230769" cy="169.99999999999997" r="3" fill="#2563eb"></circle><circle class="dot" cx="646.1538461538462" cy="169.99999999999997" r="3" fill="#2563eb"></circle><circle class="dot" cx="655.3846153846154" cy="169.99999999999997" r="3" fill="#2563eb"></circle><circle class="dot" cx="664.6153846153846" cy="169.99999999999997" r="3" fill="#2563eb"></circle><circle class="dot" cx="673.8461538461538" cy="84.99999999999993" r="3" fill="#2563eb"></circle><circle class="dot" cx="683.0769230769231" cy="127.5" r="3" fill="#2563eb"></circle><circle class="dot" cx="692.3076923076924" cy="255" r="3" fill="#2563eb"></circle><circle class="dot" cx="701.5384615384615" cy="255" r="3" fill="#2563eb"></circle><circle class="dot" cx="710.7692307692308" cy="255" r="3" fill="#2563eb"></circle><circle class="dot" cx="720" cy="255" r="3" fill="#2563eb"></circle><g class="grid" transform="translate(0,340)" fill="none" font-size="10" font-family="sans-serif" text-anchor="middle" style="stroke-dasharray: 3,3; opacity: 0.3;"><path class="domain" stroke="currentColor" d="M0.5,-340V0.5H720.5V-340"></path><g class="tick" opacity="1" transform="translate(0.5,0)"><line stroke="currentColor" y2="-340"></line><text fill="currentColor" y="3" dy="0.71em"></text></g><g class="tick" opacity="1" transform="translate(222.03846153846155,0)"><line stroke="currentColor" y2="-340"></line><text fill="currentColor" y="3" dy="0.71em"></text></g><g class="tick" opacity="1" transform="translate(443.5769230769231,0)"><line stroke="currentColor" y2="-340"></line><text fill="currentColor" y="3" dy="0.71em"></text></g><g class="tick" opacity="1" transform="translate(665.1153846153846,0)"><line stroke="currentColor" y2="-340"></line><text fill="currentColor" y="3" dy="0.71em"></text></g></g><g class="grid" fill="none" font-size="10" font-family="sans-serif" text-anchor="end" style="stroke-dasharray: 3,3; opacity: 0.3;"><path class="domain" stroke="currentColor" d="M720,340.5H0.5V0.5H720"></path><g class="tick" opacity="1" transform="translate(0,340.5)"><line stroke="currentColor" x2="720"></line><text fill="currentColor" x="-3" dy="0.32em"></text></g><g class="tick" opacity="1" transform="translate(0,298)"><line stroke="currentColor" x2="720"></line><text fill="currentColor" x="-3" dy="0.32em"></text></g><g class="tick" opacity="1" transform="translate(0,255.5)"><line stroke="currentColor" x2="720"></line><text fill="currentColor" x="-3" dy="0.32em"></text></g><g class="tick" opacity="1" transform="translate(0,212.99999999999997)"><line stroke="currentColor" x2="720"></line><text fill="currentColor" x="-3" dy="0.32em"></text></g><g class="tick" opacity="1" transform="translate(0,170.49999999999997)"><line stroke="currentColor" x2="720"></line><text fill="currentColor" x="-3" dy="0.32em"></text></g><g class="tick" opacity="1" transform="translate(0,128)"><line stroke="currentColor" x2="720"></line><text fill="currentColor" x="-3" dy="0.32em"></text></g><g class="tick" opacity="1" transform="translate(0,85.49999999999993)"><line stroke="currentColor" x2="720"></line><text fill="currentColor" x="-3" dy="0.32em"></text></g><g class="tick" opacity="1" transform="translate(0,42.99999999999992)"><line stroke="currentColor" x2="720"></line><text fill="currentColor" x="-3" dy="0.32em"></text></g><g class="tick" opacity="1" transform="translate(0,0.5)"><line stroke="currentColor" x2="720"></line><text fill="currentColor" x="-3" dy="0.32em"></text></g></g></g><text x="400" y="10" text-anchor="middle" style="font-size: 16px; font-weight: bold; fill: #333;">OKX USDT Lending Rate - Current Month</text></svg>