<svg width="800" height="400" xmlns="http://www.w3.org/2000/svg"><g transform="translate(50,20)"><g transform="translate(0,340)" fill="none" font-size="10" font-family="sans-serif" text-anchor="middle"><path class="domain" stroke="currentColor" d="M0.5,6V0.5H720.5V6"></path><g class="tick" opacity="1" transform="translate(0.5,0)"><line stroke="currentColor" y2="6"></line><text fill="currentColor" y="9" dy=".15em" style="text-anchor: end;" dx="-.8em" transform="rotate(-45)">04/01</text></g><g class="tick" opacity="1" transform="translate(30.60452961672474,0)"><line stroke="currentColor" y2="6"></line><text fill="currentColor" y="9" dy=".15em" style="text-anchor: end;" dx="-.8em" transform="rotate(-45)">04/02</text></g><g class="tick" opacity="1" transform="translate(60.70905923344948,0)"><line stroke="currentColor" y2="6"></line><text fill="currentColor" y="9" dy=".15em" style="text-anchor: end;" dx="-.8em" transform="rotate(-45)">04/03</text></g><g class="tick" opacity="1" transform="translate(90.81358885017421,0)"><line stroke="currentColor" y2="6"></line><text fill="currentColor" y="9" dy=".15em" style="text-anchor: end;" dx="-.8em" transform="rotate(-45)">04/04</text></g><g class="tick" opacity="1" transform="translate(120.91811846689896,0)"><line stroke="currentColor" y2="6"></line><text fill="currentColor" y="9" dy=".15em" style="text-anchor: end;" dx="-.8em" transform="rotate(-45)">04/05</text></g><g class="tick" opacity="1" transform="translate(151.0226480836237,0)"><line stroke="currentColor" y2="6"></line><text fill="currentColor" y="9" dy=".15em" style="text-anchor: end;" dx="-.8em" transform="rotate(-45)">04/06</text></g><g class="tick" opacity="1" transform="translate(181.12717770034843,0)"><line stroke="currentColor" y2="6"></line><text fill="currentColor" y="9" dy=".15em" style="text-anchor: end;" dx="-.8em" transform="rotate(-45)">04/07</text></g><g class="tick" opacity="1" transform="translate(211.23170731707316,0)"><line stroke="currentColor" y2="6"></line><text fill="currentColor" y="9" dy=".15em" style="text-anchor: end;" dx="-.8em" transform="rotate(-45)">04/08</text></g><g class="tick" opacity="1" transform="translate(241.33623693379792,0)"><line stroke="currentColor" y2="6"></line><text fill="currentColor" y="9" dy=".15em" style="text-anchor: end;" dx="-.8em" transform="rotate(-45)">04/09</text></g><g class="tick" opacity="1" transform="translate(271.44076655052265,0)"><line stroke="currentColor" y2="6"></line><text fill="currentColor" y="9" dy=".15em" style="text-anchor: end;" dx="-.8em" transform="rotate(-45)">04/10</text></g><g class="tick" opacity="1" transform="translate(301.5452961672474,0)"><line stroke="currentColor" y2="6"></line><text fill="currentColor" y="9" dy=".15em" style="text-anchor: end;" dx="-.8em" transform="rotate(-45)">04/11</text></g><g class="tick" opacity="1" transform="translate(331.6498257839721,0)"><line stroke="currentColor" y2="6"></line><text fill="currentColor" y="9" dy=".15em" style="text-anchor: end;" dx="-.8em" transform="rotate(-45)">04/12</text></g><g class="tick" opacity="1" transform="translate(361.75435540069685,0)"><line stroke="currentColor" y2="6"></line><text fill="currentColor" y="9" dy=".15em" style="text-anchor: end;" dx="-.8em" transform="rotate(-45)">04/13</text></g><g class="tick" opacity="1" transform="translate(391.8588850174216,0)"><line stroke="currentColor" y2="6"></line><text fill="currentColor" y="9" dy=".15em" style="text-anchor: end;" dx="-.8em" transform="rotate(-45)">04/14</text></g><g class="tick" opacity="1" transform="translate(421.9634146341463,0)"><line stroke="currentColor" y2="6"></line><text fill="currentColor" y="9" dy=".15em" style="text-anchor: end;" dx="-.8em" transform="rotate(-45)">04/15</text></g><g class="tick" opacity="1" transform="translate(452.06794425087105,0)"><line stroke="currentColor" y2="6"></line><text fill="currentColor" y="9" dy=".15em" style="text-anchor: end;" dx="-.8em" transform="rotate(-45)">04/16</text></g><g class="tick" opacity="1" transform="translate(482.17247386759584,0)"><line stroke="currentColor" y2="6"></line><text fill="currentColor" y="9" dy=".15em" style="text-anchor: end;" dx="-.8em" transform="rotate(-45)">04/17</text></g><g class="tick" opacity="1" transform="translate(512.2770034843206,0)"><line stroke="currentColor" y2="6"></line><text fill="currentColor" y="9" dy=".15em" style="text-anchor: end;" dx="-.8em" transform="rotate(-45)">04/18</text></g><g class="tick" opacity="1" transform="translate(542.3815331010453,0)"><line stroke="currentColor" y2="6"></line><text fill="currentColor" y="9" dy=".15em" style="text-anchor: end;" dx="-.8em" transform="rotate(-45)">04/19</text></g><g class="tick" opacity="1" transform="translate(572.4860627177701,0)"><line stroke="currentColor" y2="6"></line><text fill="currentColor" y="9" dy=".15em" style="text-anchor: end;" dx="-.8em" transform="rotate(-45)">04/20</text></g><g class="tick" opacity="1" transform="translate(602.5905923344948,0)"><line stroke="currentColor" y2="6"></line><text fill="currentColor" y="9" dy=".15em" style="text-anchor: end;" dx="-.8em" transform="rotate(-45)">04/21</text></g><g class="tick" opacity="1" transform="translate(632.6951219512196,0)"><line stroke="currentColor" y2="6"></line><text fill="currentColor" y="9" dy=".15em" style="text-anchor: end;" dx="-.8em" transform="rotate(-45)">04/22</text></g><g class="tick" opacity="1" transform="translate(662.7996515679442,0)"><line stroke="currentColor" y2="6"></line><text fill="currentColor" y="9" dy=".15em" style="text-anchor: end;" dx="-.8em" transform="rotate(-45)">04/23</text></g><g class="tick" opacity="1" transform="translate(692.904181184669,0)"><line stroke="currentColor" y2="6"></line><text fill="currentColor" y="9" dy=".15em" style="text-anchor: end;" dx="-.8em" transform="rotate(-45)">04/24</text></g></g><g fill="none" font-size="10" font-family="sans-serif" text-anchor="end"><path class="domain" stroke="currentColor" d="M-6,340.5H0.5V0.5H-6"></path><g class="tick" opacity="1" transform="translate(0,170.5)"><line stroke="currentColor" x2="-6"></line><text fill="currentColor" x="-9" dy="0.32em">2.50%</text></g></g><text transform="rotate(-90)" y="-50" x="-170" dy="1em" style="text-anchor: middle; font-size: 12px; fill: #666;">Pre Rate (%)</text><text transform="translate(360, 380)" style="text-anchor: middle; font-size: 12px; fill: #666;">Time (UTC)</text><path fill="none" stroke="#2563eb" stroke-width="2" d="M0,170C0.418,170,0.836,170,1.254,170C1.672,170,2.091,170,2.509,170C2.927,170,3.345,170,3.763,170C4.181,170,4.599,170,5.017,170C5.436,170,5.854,170,6.272,170C6.69,170,7.108,170,7.526,170C7.944,170,8.362,170,8.78,170C9.199,170,9.617,170,10.035,170C10.453,170,10.871,170,11.289,170C11.707,170,12.125,170,12.544,170C12.962,170,13.38,170,13.798,170C14.216,170,14.634,170,15.052,170C15.47,170,15.889,170,16.307,170C16.725,170,17.143,170,17.561,170C17.979,170,18.397,170,18.815,170C19.233,170,19.652,170,20.07,170C20.488,170,20.906,170,21.324,170C21.742,170,22.16,170,22.578,170C22.997,170,23.415,170,23.833,170C24.251,170,24.669,170,25.087,170C25.505,170,25.923,170,26.341,170C26.76,170,27.178,170,27.596,170C28.014,170,28.432,170,28.85,170C29.268,170,29.686,170,30.105,170C30.523,170,30.941,170,31.359,170C31.777,170,32.195,170,32.613,170C33.031,170,33.449,170,33.868,170C34.286,170,34.704,170,35.122,170C35.54,170,35.958,170,36.376,170C36.794,170,37.213,170,37.631,170C38.049,170,38.467,170,38.885,170C39.303,170,39.721,170,40.139,170C40.557,170,40.976,170,41.394,170C41.812,170,42.23,170,42.648,170C43.066,170,43.484,170,43.902,170C44.321,170,44.739,170,45.157,170C45.575,170,45.993,170,46.411,170C46.829,170,47.247,170,47.666,170C48.084,170,48.502,170,48.92,170C49.338,170,49.756,170,50.174,170C50.592,170,51.01,170,51.429,170C51.847,170,52.265,170,52.683,170C53.101,170,53.519,170,53.937,170C54.355,170,54.774,170,55.192,170C55.61,170,56.028,170,56.446,170C56.864,170,57.282,170,57.7,170C58.118,170,58.537,170,58.955,170C59.373,170,59.791,170,60.209,170C60.627,170,61.045,170,61.463,170C61.882,170,62.3,170,62.718,170C63.136,170,63.554,170,63.972,170C64.39,170,64.808,170,65.226,170C65.645,170,66.063,170,66.481,170C66.899,170,67.317,170,67.735,170C68.153,170,68.571,170,68.99,170C69.408,170,69.826,170,70.244,170C70.662,170,71.08,170,71.498,170C71.916,170,72.334,170,72.753,170C73.171,170,73.589,170,74.007,170C74.425,170,74.843,170,75.261,170C75.679,170,76.098,170,76.516,170C76.934,170,77.352,170,77.77,170C78.188,170,78.606,170,79.024,170C79.443,170,79.861,170,80.279,170C80.697,170,81.115,170,81.533,170C81.951,170,82.369,170,82.787,170C83.206,170,83.624,170,84.042,170C84.46,170,84.878,170,85.296,170C85.714,170,86.132,170,86.551,170C86.969,170,87.387,170,87.805,170C88.223,170,88.641,170,89.059,170C89.477,170,89.895,170,90.314,170C90.732,170,91.15,170,91.568,170C91.986,170,92.404,170,92.822,170C93.24,170,93.659,170,94.077,170C94.495,170,94.913,170,95.331,170C95.749,170,96.167,170,96.585,170C97.003,170,97.422,170,97.84,170C98.258,170,98.676,170,99.094,170C99.512,170,99.93,170,100.348,170C100.767,170,101.185,170,101.603,170C102.021,170,102.439,170,102.857,170C103.275,170,103.693,170,104.111,170C104.53,170,104.948,170,105.366,170C105.784,170,106.202,170,106.62,170C107.038,170,107.456,170,107.875,170C108.293,170,108.711,170,109.129,170C109.547,170,109.965,170,110.383,170C110.801,170,111.22,170,111.638,170C112.056,170,112.474,170,112.892,170C113.31,170,113.728,170,114.146,170C114.564,170,114.983,170,115.401,170C115.819,170,116.237,170,116.655,170C117.073,170,117.491,170,117.909,170C118.328,170,118.746,170,119.164,170C119.582,170,120,170,120.418,170C120.836,170,121.254,170,121.672,170C122.091,170,122.509,170,122.927,170C123.345,170,123.763,170,124.181,170C124.599,170,125.017,170,125.436,170C125.854,170,126.272,170,126.69,170C127.108,170,127.526,170,127.944,170C128.362,170,128.78,170,129.199,170C129.617,170,130.035,170,130.453,170C130.871,170,131.289,170,131.707,170C132.125,170,132.544,170,132.962,170C133.38,170,133.798,170,134.216,170C134.634,170,135.052,170,135.47,170C135.889,170,136.307,170,136.725,170C137.143,170,137.561,170,137.979,170C138.397,170,138.815,170,139.233,170C139.652,170,140.07,170,140.488,170C140.906,170,141.324,170,141.742,170C142.16,170,142.578,170,142.997,170C143.415,170,143.833,170,144.251,170C144.669,170,145.087,170,145.505,170C145.923,170,146.341,170,146.76,170C147.178,170,147.596,170,148.014,170C148.432,170,148.85,170,149.268,170C149.686,170,150.105,170,150.523,170C150.941,170,151.359,170,151.777,170C152.195,170,152.613,170,153.031,170C153.449,170,153.868,170,154.286,170C154.704,170,155.122,170,155.54,170C155.958,170,156.376,170,156.794,170C157.213,170,157.631,170,158.049,170C158.467,170,158.885,170,159.303,170C159.721,170,160.139,170,160.557,170C160.976,170,161.394,170,161.812,170C162.23,170,162.648,170,163.066,170C163.484,170,163.902,170,164.321,170C164.739,170,165.157,170,165.575,170C165.993,170,166.411,170,166.829,170C167.247,170,167.666,170,168.084,170C168.502,170,168.92,170,169.338,170C169.756,170,170.174,170,170.592,170C171.01,170,171.429,170,171.847,170C172.265,170,172.683,170,173.101,170C173.519,170,173.937,170,174.355,170C174.774,170,175.192,170,175.61,170C176.028,170,176.446,170,176.864,170C177.282,170,177.7,170,178.118,170C178.537,170,178.955,170,179.373,170C179.791,170,180.209,170,180.627,170C181.045,170,181.463,170,181.882,170C182.3,170,182.718,170,183.136,170C183.554,170,183.972,170,184.39,170C184.808,170,185.226,170,185.645,170C186.063,170,186.481,170,186.899,170C187.317,170,187.735,170,188.153,170C188.571,170,188.99,170,189.408,170C189.826,170,190.244,170,190.662,170C191.08,170,191.498,170,191.916,170C192.334,170,192.753,170,193.171,170C193.589,170,194.007,170,194.425,170C194.843,170,195.261,170,195.679,170C196.098,170,196.516,170,196.934,170C197.352,170,197.77,170,198.188,170C198.606,170,199.024,170,199.443,170C199.861,170,200.279,170,200.697,170C201.115,170,201.533,170,201.951,170C202.369,170,202.787,170,203.206,170C203.624,170,204.042,170,204.46,170C204.878,170,205.296,170,205.714,170C206.132,170,206.551,170,206.969,170C207.387,170,207.805,170,208.223,170C208.641,170,209.059,170,209.477,170C209.895,170,210.314,170,210.732,170C211.15,170,211.568,170,211.986,170C212.404,170,212.822,170,213.24,170C213.659,170,214.077,170,214.495,170C214.913,170,215.331,170,215.749,170C216.167,170,216.585,170,217.003,170C217.422,170,217.84,170,218.258,170C218.676,170,219.094,170,219.512,170C219.93,170,220.348,170,220.767,170C221.185,170,221.603,170,222.021,170C222.439,170,222.857,170,223.275,170C223.693,170,224.111,170,224.53,170C224.948,170,225.366,170,225.784,170C226.202,170,226.62,170,227.038,170C227.456,170,227.875,170,228.293,170C228.711,170,229.129,170,229.547,170C229.965,170,230.383,170,230.801,170C231.22,170,231.638,170,232.056,170C232.474,170,232.892,170,233.31,170C233.728,170,234.146,170,234.564,170C234.983,170,235.401,170,235.819,170C236.237,170,236.655,170,237.073,170C237.491,170,237.909,170,238.328,170C238.746,170,239.164,170,239.582,170C240,170,240.418,170,240.836,170C241.254,170,241.672,170,242.091,170C242.509,170,242.927,170,243.345,170C243.763,170,244.181,170,244.599,170C245.017,170,245.436,170,245.854,170C246.272,170,246.69,170,247.108,170C247.526,170,247.944,170,248.362,170C248.78,170,249.199,170,249.617,170C250.035,170,250.453,170,250.871,170C251.289,170,251.707,170,252.125,170C252.544,170,252.962,170,253.38,170C253.798,170,254.216,170,254.634,170C255.052,170,255.47,170,255.889,170C256.307,170,256.725,170,257.143,170C257.561,170,257.979,170,258.397,170C258.815,170,259.233,170,259.652,170C260.07,170,260.488,170,260.906,170C261.324,170,261.742,170,262.16,170C262.578,170,262.997,170,263.415,170C263.833,170,264.251,170,264.669,170C265.087,170,265.505,170,265.923,170C266.341,170,266.76,170,267.178,170C267.596,170,268.014,170,268.432,170C268.85,170,269.268,170,269.686,170C270.105,170,270.523,170,270.941,170C271.359,170,271.777,170,272.195,170C272.613,170,273.031,170,273.449,170C273.868,170,274.286,170,274.704,170C275.122,170,275.54,170,275.958,170C276.376,170,276.794,170,277.213,170C277.631,170,278.049,170,278.467,170C278.885,170,279.303,170,279.721,170C280.139,170,280.557,170,280.976,170C281.394,170,281.812,170,282.23,170C282.648,170,283.066,170,283.484,170C283.902,170,284.321,170,284.739,170C285.157,170,285.575,170,285.993,170C286.411,170,286.829,170,287.247,170C287.666,170,288.084,170,288.502,170C288.92,170,289.338,170,289.756,170C290.174,170,290.592,170,291.01,170C291.429,170,291.847,170,292.265,170C292.683,170,293.101,170,293.519,170C293.937,170,294.355,170,294.774,170C295.192,170,295.61,170,296.028,170C296.446,170,296.864,170,297.282,170C297.7,170,298.118,170,298.537,170C298.955,170,299.373,170,299.791,170C300.209,170,300.627,170,301.045,170C301.463,170,301.882,170,302.3,170C302.718,170,303.136,170,303.554,170C303.972,170,304.39,170,304.808,170C305.226,170,305.645,170,306.063,170C306.481,170,306.899,170,307.317,170C307.735,170,308.153,170,308.571,170C308.99,170,309.408,170,309.826,170C310.244,170,310.662,170,311.08,170C311.498,170,311.916,170,312.334,170C312.753,170,313.171,170,313.589,170C314.007,170,314.425,170,314.843,170C315.261,170,315.679,170,316.098,170C316.516,170,316.934,170,317.352,170C317.77,170,318.188,170,318.606,170C319.024,170,319.443,170,319.861,170C320.279,170,320.697,170,321.115,170C321.533,170,321.951,170,322.369,170C322.787,170,323.206,170,323.624,170C324.042,170,324.46,170,324.878,170C325.296,170,325.714,170,326.132,170C326.551,170,326.969,170,327.387,170C327.805,170,328.223,170,328.641,170C329.059,170,329.477,170,329.895,170C330.314,170,330.732,170,331.15,170C331.568,170,331.986,170,332.404,170C332.822,170,333.24,170,333.659,170C334.077,170,334.495,170,334.913,170C335.331,170,335.749,170,336.167,170C336.585,170,337.003,170,337.422,170C337.84,170,338.258,170,338.676,170C339.094,170,339.512,170,339.93,170C340.348,170,340.767,170,341.185,170C341.603,170,342.021,170,342.439,170C342.857,170,343.275,170,343.693,170C344.111,170,344.53,170,344.948,170C345.366,170,345.784,170,346.202,170C346.62,170,347.038,170,347.456,170C347.875,170,348.293,170,348.711,170C349.129,170,349.547,170,349.965,170C350.383,170,350.801,170,351.22,170C351.638,170,352.056,170,352.474,170C352.892,170,353.31,170,353.728,170C354.146,170,354.564,170,354.983,170C355.401,170,355.819,170,356.237,170C356.655,170,357.073,170,357.491,170C357.909,170,358.328,170,358.746,170C359.164,170,359.582,170,360,170C360.418,170,360.836,170,361.254,170C361.672,170,362.091,170,362.509,170C362.927,170,363.345,170,363.763,170C364.181,170,364.599,170,365.017,170C365.436,170,365.854,170,366.272,170C366.69,170,367.108,170,367.526,170C367.944,170,368.362,170,368.78,170C369.199,170,369.617,170,370.035,170C370.453,170,370.871,170,371.289,170C371.707,170,372.125,170,372.544,170C372.962,170,373.38,170,373.798,170C374.216,170,374.634,170,375.052,170C375.47,170,375.889,170,376.307,170C376.725,170,377.143,170,377.561,170C377.979,170,378.397,170,378.815,170C379.233,170,379.652,170,380.07,170C380.488,170,380.906,170,381.324,170C381.742,170,382.16,170,382.578,170C382.997,170,383.415,170,383.833,170C384.251,170,384.669,170,385.087,170C385.505,170,385.923,170,386.341,170C386.76,170,387.178,170,387.596,170C388.014,170,388.432,170,388.85,170C389.268,170,389.686,170,390.105,170C390.523,170,390.941,170,391.359,170C391.777,170,392.195,170,392.613,170C393.031,170,393.449,170,393.868,170C394.286,170,394.704,170,395.122,170C395.54,170,395.958,170,396.376,170C396.794,170,397.213,170,397.631,170C398.049,170,398.467,170,398.885,170C399.303,170,399.721,170,400.139,170C400.557,170,400.976,170,401.394,170C401.812,170,402.23,170,402.648,170C403.066,170,403.484,170,403.902,170C404.321,170,404.739,170,405.157,170C405.575,170,405.993,170,406.411,170C406.829,170,407.247,170,407.666,170C408.084,170,408.502,170,408.92,170C409.338,170,409.756,170,410.174,170C410.592,170,411.01,170,411.429,170C411.847,170,412.265,170,412.683,170C413.101,170,413.519,170,413.937,170C414.355,170,414.774,170,415.192,170C415.61,170,416.028,170,416.446,170C416.864,170,417.282,170,417.7,170C418.118,170,418.537,170,418.955,170C419.373,170,419.791,170,420.209,170C420.627,170,421.045,170,421.463,170C421.882,170,422.3,170,422.718,170C423.136,170,423.554,170,423.972,170C424.39,170,424.808,170,425.226,170C425.645,170,426.063,170,426.481,170C426.899,170,427.317,170,427.735,170C428.153,170,428.571,170,428.99,170C429.408,170,429.826,170,430.244,170C430.662,170,431.08,170,431.498,170C431.916,170,432.334,170,432.753,170C433.171,170,433.589,170,434.007,170C434.425,170,434.843,170,435.261,170C435.679,170,436.098,170,436.516,170C436.934,170,437.352,170,437.77,170C438.188,170,438.606,170,439.024,170C439.443,170,439.861,170,440.279,170C440.697,170,441.115,170,441.533,170C441.951,170,442.369,170,442.787,170C443.206,170,443.624,170,444.042,170C444.46,170,444.878,170,445.296,170C445.714,170,446.132,170,446.551,170C446.969,170,447.387,170,447.805,170C448.223,170,448.641,170,449.059,170C449.477,170,449.895,170,450.314,170C450.732,170,451.15,170,451.568,170C451.986,170,452.404,170,452.822,170C453.24,170,453.659,170,454.077,170C454.495,170,454.913,170,455.331,170C455.749,170,456.167,170,456.585,170C457.003,170,457.422,170,457.84,170C458.258,170,458.676,170,459.094,170C459.512,170,459.93,170,460.348,170C460.767,170,461.185,170,461.603,170C462.021,170,462.439,170,462.857,170C463.275,170,463.693,170,464.111,170C464.53,170,464.948,170,465.366,170C465.784,170,466.202,170,466.62,170C467.038,170,467.456,170,467.875,170C468.293,170,468.711,170,469.129,170C469.547,170,469.965,170,470.383,170C470.801,170,471.22,170,471.638,170C472.056,170,472.474,170,472.892,170C473.31,170,473.728,170,474.146,170C474.564,170,474.983,170,475.401,170C475.819,170,476.237,170,476.655,170C477.073,170,477.491,170,477.909,170C478.328,170,478.746,170,479.164,170C479.582,170,480,170,480.418,170C480.836,170,481.254,170,481.672,170C482.091,170,482.509,170,482.927,170C483.345,170,483.763,170,484.181,170C484.599,170,485.017,170,485.436,170C485.854,170,486.272,170,486.69,170C487.108,170,487.526,170,487.944,170C488.362,170,488.78,170,489.199,170C489.617,170,490.035,170,490.453,170C490.871,170,491.289,170,491.707,170C492.125,170,492.544,170,492.962,170C493.38,170,493.798,170,494.216,170C494.634,170,495.052,170,495.47,170C495.889,170,496.307,170,496.725,170C497.143,170,497.561,170,497.979,170C498.397,170,498.815,170,499.233,170C499.652,170,500.07,170,500.488,170C500.906,170,501.324,170,501.742,170C502.16,170,502.578,170,502.997,170C503.415,170,503.833,170,504.251,170C504.669,170,505.087,170,505.505,170C505.923,170,506.341,170,506.76,170C507.178,170,507.596,170,508.014,170C508.432,170,508.85,170,509.268,170C509.686,170,510.105,170,510.523,170C510.941,170,511.359,170,511.777,170C512.195,170,512.613,170,513.031,170C513.449,170,513.868,170,514.286,170C514.704,170,515.122,170,515.54,170C515.958,170,516.376,170,516.794,170C517.213,170,517.631,170,518.049,170C518.467,170,518.885,170,519.303,170C519.721,170,520.139,170,520.557,170C520.976,170,521.394,170,521.812,170C522.23,170,522.648,170,523.066,170C523.484,170,523.902,170,524.321,170C524.739,170,525.157,170,525.575,170C525.993,170,526.411,170,526.829,170C527.247,170,527.666,170,528.084,170C528.502,170,528.92,170,529.338,170C529.756,170,530.174,170,530.592,170C531.01,170,531.429,170,531.847,170C532.265,170,532.683,170,533.101,170C533.519,170,533.937,170,534.355,170C534.774,170,535.192,170,535.61,170C536.028,170,536.446,170,536.864,170C537.282,170,537.7,170,538.118,170C538.537,170,538.955,170,539.373,170C539.791,170,540.209,170,540.627,170C541.045,170,541.463,170,541.882,170C542.3,170,542.718,170,543.136,170C543.554,170,543.972,170,544.39,170C544.808,170,545.226,170,545.645,170C546.063,170,546.481,170,546.899,170C547.317,170,547.735,170,548.153,170C548.571,170,548.99,170,549.408,170C549.826,170,550.244,170,550.662,170C551.08,170,551.498,170,551.916,170C552.334,170,552.753,170,553.171,170C553.589,170,554.007,170,554.425,170C554.843,170,555.261,170,555.679,170C556.098,170,556.516,170,556.934,170C557.352,170,557.77,170,558.188,170C558.606,170,559.024,170,559.443,170C559.861,170,560.279,170,560.697,170C561.115,170,561.533,170,561.951,170C562.369,170,562.787,170,563.206,170C563.624,170,564.042,170,564.46,170C564.878,170,565.296,170,565.714,170C566.132,170,566.551,170,566.969,170C567.387,170,567.805,170,568.223,170C568.641,170,569.059,170,569.477,170C569.895,170,570.314,170,570.732,170C571.15,170,571.568,170,571.986,170C572.404,170,572.822,170,573.24,170C573.659,170,574.077,170,574.495,170C574.913,170,575.331,170,575.749,170C576.167,170,576.585,170,577.003,170C577.422,170,577.84,170,578.258,170C578.676,170,579.094,170,579.512,170C579.93,170,580.348,170,580.767,170C581.185,170,581.603,170,582.021,170C582.439,170,582.857,170,583.275,170C583.693,170,584.111,170,584.53,170C584.948,170,585.366,170,585.784,170C586.202,170,586.62,170,587.038,170C587.456,170,587.875,170,588.293,170C588.711,170,589.129,170,589.547,170C589.965,170,590.383,170,590.801,170C591.22,170,591.638,170,592.056,170C592.474,170,592.892,170,593.31,170C593.728,170,594.146,170,594.564,170C594.983,170,595.401,170,595.819,170C596.237,170,596.655,170,597.073,170C597.491,170,597.909,170,598.328,170C598.746,170,599.164,170,599.582,170C600,170,600.418,170,600.836,170C601.254,170,601.672,170,602.091,170C602.509,170,602.927,170,603.345,170C603.763,170,604.181,170,604.599,170C605.017,170,605.436,170,605.854,170C606.272,170,606.69,170,607.108,170C607.526,170,607.944,170,608.362,170C608.78,170,609.199,170,609.617,170C610.035,170,610.453,170,610.871,170C611.289,170,611.707,170,612.125,170C612.544,170,612.962,170,613.38,170C613.798,170,614.216,170,614.634,170C615.052,170,615.47,170,615.889,170C616.307,170,616.725,170,617.143,170C617.561,170,617.979,170,618.397,170C618.815,170,619.233,170,619.652,170C620.07,170,620.488,170,620.906,170C621.324,170,621.742,170,622.16,170C622.578,170,622.997,170,623.415,170C623.833,170,624.251,170,624.669,170C625.087,170,625.505,170,625.923,170C626.341,170,626.76,170,627.178,170C627.596,170,628.014,170,628.432,170C628.85,170,629.268,170,629.686,170C630.105,170,630.523,170,630.941,170C631.359,170,631.777,170,632.195,170C632.613,170,633.031,170,633.449,170C633.868,170,634.286,170,634.704,170C635.122,170,635.54,170,635.958,170C636.376,170,636.794,170,637.213,170C637.631,170,638.049,170,638.467,170C638.885,170,639.303,170,639.721,170C640.139,170,640.557,170,640.976,170C641.394,170,641.812,170,642.23,170C642.648,170,643.066,170,643.484,170C643.902,170,644.321,170,644.739,170C645.157,170,645.575,170,645.993,170C646.411,170,646.829,170,647.247,170C647.666,170,648.084,170,648.502,170C648.92,170,649.338,170,649.756,170C650.174,170,650.592,170,651.01,170C651.429,170,651.847,170,652.265,170C652.683,170,653.101,170,653.519,170C653.937,170,654.355,170,654.774,170C655.192,170,655.61,170,656.028,170C656.446,170,656.864,170,657.282,170C657.7,170,658.118,170,658.537,170C658.955,170,659.373,170,659.791,170C660.209,170,660.627,170,661.045,170C661.463,170,661.882,170,662.3,170C662.718,170,663.136,170,663.554,170C663.972,170,664.39,170,664.808,170C665.226,170,665.645,170,666.063,170C666.481,170,666.899,170,667.317,170C667.735,170,668.153,170,668.571,170C668.99,170,669.408,170,669.826,170C670.244,170,670.662,170,671.08,170C671.498,170,671.916,170,672.334,170C672.753,170,673.171,170,673.589,170C674.007,170,674.425,170,674.843,170C675.261,170,675.679,170,676.098,170C676.516,170,676.934,170,677.352,170C677.77,170,678.188,170,678.606,170C679.024,170,679.443,170,679.861,170C680.279,170,680.697,170,681.115,170C681.533,170,681.951,170,682.369,170C682.787,170,683.206,170,683.624,170C684.042,170,684.46,170,684.878,170C685.296,170,685.714,170,686.132,170C686.551,170,686.969,170,687.387,170C687.805,170,688.223,170,688.641,170C689.059,170,689.477,170,689.895,170C690.314,170,690.732,170,691.15,170C691.568,170,691.986,170,692.404,170C692.822,170,693.24,170,693.659,170C694.077,170,694.495,170,694.913,170C695.331,170,695.749,170,696.167,170C696.585,170,697.003,170,697.422,170C697.84,170,698.258,170,698.676,170C699.094,170,699.512,170,699.93,170C700.348,170,700.767,170,701.185,170C701.603,170,702.021,170,702.439,170C702.857,170,703.275,170,703.693,170C704.111,170,704.53,170,704.948,170C705.366,170,705.784,170,706.202,170C706.62,170,707.038,170,707.456,170C707.875,170,708.293,170,708.711,170C709.129,170,709.547,170,709.965,170C710.383,170,710.801,170,711.22,170C711.638,170,712.056,170,712.474,170C712.892,170,713.31,170,713.728,170C714.146,170,714.564,170,714.983,170C715.401,170,715.819,170,716.237,170C716.655,170,717.073,170,717.491,170C717.909,170,718.328,170,718.746,170C719.164,170,719.582,170,720,170"></path><circle class="dot" cx="0" cy="170" r="3" fill="#2563eb"></circle><circle class="dot" cx="1.254355400696864" cy="170" r="3" fill="#2563eb"></circle><circle class="dot" cx="2.508710801393728" cy="170" r="3" fill="#2563eb"></circle><circle class="dot" cx="3.7630662020905925" cy="170" r="3" fill="#2563eb"></circle><circle class="dot" cx="5.017421602787456" cy="170" r="3" fill="#2563eb"></circle><circle class="dot" cx="6.2717770034843205" cy="170" r="3" fill="#2563eb"></circle><circle class="dot" cx="7.526132404181185" cy="170" r="3" fill="#2563eb"></circle><circle class="dot" cx="8.78048780487805" cy="170" r="3" fill="#2563eb"></circle><circle class="dot" cx="10.034843205574912" cy="170" r="3" fill="#2563eb"></circle><circle class="dot" cx="11.289198606271777" cy="170" r="3" fill="#2563eb"></circle><circle class="dot" cx="12.543554006968641" cy="170" r="3" fill="#2563eb"></circle><circle class="dot" cx="13.797909407665504" cy="170" r="3" fill="#2563eb"></circle><circle class="dot" cx="15.05226480836237" cy="170" r="3" fill="#2563eb"></circle><circle class="dot" cx="16.306620209059233" cy="170" r="3" fill="#2563eb"></circle><circle class="dot" cx="17.5609756097561" cy="170" r="3" fill="#2563eb"></circle><circle class="dot" cx="18.81533101045296" cy="170" r="3" fill="#2563eb"></circle><circle class="dot" cx="20.069686411149824" cy="170" r="3" fill="#2563eb"></circle><circle class="dot" cx="21.32404181184669" cy="170" r="3" fill="#2563eb"></circle><circle class="dot" cx="22.578397212543553" cy="170" r="3" fill="#2563eb"></circle><circle class="dot" cx="23.832752613240416" cy="170" r="3" fill="#2563eb"></circle><circle class="dot" cx="25.087108013937282" cy="170" r="3" fill="#2563eb"></circle><circle class="dot" cx="26.341463414634145" cy="170" r="3" fill="#2563eb"></circle><circle class="dot" cx="27.595818815331008" cy="170" r="3" fill="#2563eb"></circle><circle class="dot" cx="28.850174216027874" cy="170" r="3" fill="#2563eb"></circle><circle class="dot" cx="30.10452961672474" cy="170" r="3" fill="#2563eb"></circle><circle class="dot" cx="31.358885017421606" cy="170" r="3" fill="#2563eb"></circle><circle class="dot" cx="32.613240418118465" cy="170" r="3" fill="#2563eb"></circle><circle class="dot" cx="33.86759581881533" cy="170" r="3" fill="#2563eb"></circle><circle class="dot" cx="35.1219512195122" cy="170" r="3" fill="#2563eb"></circle><circle class="dot" cx="36.37630662020906" cy="170" r="3" fill="#2563eb"></circle><circle class="dot" cx="37.63066202090592" cy="170" r="3" fill="#2563eb"></circle><circle class="dot" cx="38.88501742160279" cy="170" r="3" fill="#2563eb"></circle><circle class="dot" cx="40.13937282229965" cy="170" r="3" fill="#2563eb"></circle><circle class="dot" cx="41.393728222996515" cy="170" r="3" fill="#2563eb"></circle><circle class="dot" cx="42.64808362369338" cy="170" r="3" fill="#2563eb"></circle><circle class="dot" cx="43.90243902439024" cy="170" r="3" fill="#2563eb"></circle><circle class="dot" cx="45.15679442508711" cy="170" r="3" fill="#2563eb"></circle><circle class="dot" cx="46.41114982578397" cy="170" r="3" fill="#2563eb"></circle><circle class="dot" cx="47.66550522648083" cy="170" r="3" fill="#2563eb"></circle><circle class="dot" cx="48.9198606271777" cy="170" r="3" fill="#2563eb"></circle><circle class="dot" cx="50.174216027874564" cy="170" r="3" fill="#2563eb"></circle><circle class="dot" cx="51.42857142857142" cy="170" r="3" fill="#2563eb"></circle><circle class="dot" cx="52.68292682926829" cy="170" r="3" fill="#2563eb"></circle><circle class="dot" cx="53.937282229965156" cy="170" r="3" fill="#2563eb"></circle><circle class="dot" cx="55.191637630662015" cy="170" r="3" fill="#2563eb"></circle><circle class="dot" cx="56.44599303135888" cy="170" r="3" fill="#2563eb"></circle><circle class="dot" cx="57.70034843205575" cy="170" r="3" fill="#2563eb"></circle><circle class="dot" cx="58.95470383275261" cy="170" r="3" fill="#2563eb"></circle><circle class="dot" cx="60.20905923344948" cy="170" r="3" fill="#2563eb"></circle><circle class="dot" cx="61.463414634146346" cy="170" r="3" fill="#2563eb"></circle><circle class="dot" cx="62.71777003484321" cy="170" r="3" fill="#2563eb"></circle><circle class="dot" cx="63.97212543554007" cy="170" r="3" fill="#2563eb"></circle><circle class="dot" cx="65.22648083623693" cy="170" r="3" fill="#2563eb"></circle><circle class="dot" cx="66.4808362369338" cy="170" r="3" fill="#2563eb"></circle><circle class="dot" cx="67.73519163763066" cy="170" r="3" fill="#2563eb"></circle><circle class="dot" cx="68.98954703832753" cy="170" r="3" fill="#2563eb"></circle><circle class="dot" cx="70.2439024390244" cy="170" r="3" fill="#2563eb"></circle><circle class="dot" cx="71.49825783972126" cy="170" r="3" fill="#2563eb"></circle><circle class="dot" cx="72.75261324041811" cy="170" r="3" fill="#2563eb"></circle><circle class="dot" cx="74.00696864111498" cy="170" r="3" fill="#2563eb"></circle><circle class="dot" cx="75.26132404181185" cy="170" r="3" fill="#2563eb"></circle><circle class="dot" cx="76.51567944250871" cy="170" r="3" fill="#2563eb"></circle><circle class="dot" cx="77.77003484320558" cy="170" r="3" fill="#2563eb"></circle><circle class="dot" cx="79.02439024390245" cy="170" r="3" fill="#2563eb"></circle><circle class="dot" cx="80.2787456445993" cy="170" r="3" fill="#2563eb"></circle><circle class="dot" cx="81.53310104529616" cy="170" r="3" fill="#2563eb"></circle><circle class="dot" cx="82.78745644599303" cy="170" r="3" fill="#2563eb"></circle><circle class="dot" cx="84.0418118466899" cy="170" r="3" fill="#2563eb"></circle><circle class="dot" cx="85.29616724738676" cy="170" r="3" fill="#2563eb"></circle><circle class="dot" cx="86.55052264808363" cy="170" r="3" fill="#2563eb"></circle><circle class="dot" cx="87.80487804878048" cy="170" r="3" fill="#2563eb"></circle><circle class="dot" cx="89.05923344947735" cy="170" r="3" fill="#2563eb"></circle><circle class="dot" cx="90.31358885017421" cy="170" r="3" fill="#2563eb"></circle><circle class="dot" cx="91.5679442508711" cy="170" r="3" fill="#2563eb"></circle><circle class="dot" cx="92.82229965156795" cy="170" r="3" fill="#2563eb"></circle><circle class="dot" cx="94.07665505226481" cy="170" r="3" fill="#2563eb"></circle><circle class="dot" cx="95.33101045296166" cy="170" r="3" fill="#2563eb"></circle><circle class="dot" cx="96.58536585365854" cy="170" r="3" fill="#2563eb"></circle><circle class="dot" cx="97.8397212543554" cy="170" r="3" fill="#2563eb"></circle><circle class="dot" cx="99.09407665505228" cy="170" r="3" fill="#2563eb"></circle><circle class="dot" cx="100.34843205574913" cy="170" r="3" fill="#2563eb"></circle><circle class="dot" cx="101.602787456446" cy="170" r="3" fill="#2563eb"></circle><circle class="dot" cx="102.85714285714285" cy="170" r="3" fill="#2563eb"></circle><circle class="dot" cx="104.11149825783973" cy="170" r="3" fill="#2563eb"></circle><circle class="dot" cx="105.36585365853658" cy="170" r="3" fill="#2563eb"></circle><circle class="dot" cx="106.62020905923345" cy="170" r="3" fill="#2563eb"></circle><circle class="dot" cx="107.87456445993031" cy="170" r="3" fill="#2563eb"></circle><circle class="dot" cx="109.12891986062718" cy="170" r="3" fill="#2563eb"></circle><circle class="dot" cx="110.38327526132403" cy="170" r="3" fill="#2563eb"></circle><circle class="dot" cx="111.63763066202091" cy="170" r="3" fill="#2563eb"></circle><circle class="dot" cx="112.89198606271776" cy="170" r="3" fill="#2563eb"></circle><circle class="dot" cx="114.14634146341463" cy="170" r="3" fill="#2563eb"></circle><circle class="dot" cx="115.4006968641115" cy="170" r="3" fill="#2563eb"></circle><circle class="dot" cx="116.65505226480836" cy="170" r="3" fill="#2563eb"></circle><circle class="dot" cx="117.90940766550521" cy="170" r="3" fill="#2563eb"></circle><circle class="dot" cx="119.1637630662021" cy="170" r="3" fill="#2563eb"></circle><circle class="dot" cx="120.41811846689896" cy="170" r="3" fill="#2563eb"></circle><circle class="dot" cx="121.67247386759581" cy="170" r="3" fill="#2563eb"></circle><circle class="dot" cx="122.92682926829269" cy="170" r="3" fill="#2563eb"></circle><circle class="dot" cx="124.18118466898954" cy="170" r="3" fill="#2563eb"></circle><circle class="dot" cx="125.43554006968643" cy="170" r="3" fill="#2563eb"></circle><circle class="dot" cx="126.68989547038328" cy="170" r="3" fill="#2563eb"></circle><circle class="dot" cx="127.94425087108014" cy="170" r="3" fill="#2563eb"></circle><circle class="dot" cx="129.198606271777" cy="170" r="3" fill="#2563eb"></circle><circle class="dot" cx="130.45296167247386" cy="170" r="3" fill="#2563eb"></circle><circle class="dot" cx="131.70731707317074" cy="170" r="3" fill="#2563eb"></circle><circle class="dot" cx="132.9616724738676" cy="170" r="3" fill="#2563eb"></circle><circle class="dot" cx="134.21602787456445" cy="170" r="3" fill="#2563eb"></circle><circle class="dot" cx="135.47038327526133" cy="170" r="3" fill="#2563eb"></circle><circle class="dot" cx="136.72473867595818" cy="170" r="3" fill="#2563eb"></circle><circle class="dot" cx="137.97909407665506" cy="170" r="3" fill="#2563eb"></circle><circle class="dot" cx="139.2334494773519" cy="170" r="3" fill="#2563eb"></circle><circle class="dot" cx="140.4878048780488" cy="170" r="3" fill="#2563eb"></circle><circle class="dot" cx="141.74216027874564" cy="170" r="3" fill="#2563eb"></circle><circle class="dot" cx="142.99651567944252" cy="170" r="3" fill="#2563eb"></circle><circle class="dot" cx="144.25087108013938" cy="170" r="3" fill="#2563eb"></circle><circle class="dot" cx="145.50522648083623" cy="170" r="3" fill="#2563eb"></circle><circle class="dot" cx="146.7595818815331" cy="170" r="3" fill="#2563eb"></circle><circle class="dot" cx="148.01393728222996" cy="170" r="3" fill="#2563eb"></circle><circle class="dot" cx="149.2682926829268" cy="170" r="3" fill="#2563eb"></circle><circle class="dot" cx="150.5226480836237" cy="170" r="3" fill="#2563eb"></circle><circle class="dot" cx="151.77700348432055" cy="170" r="3" fill="#2563eb"></circle><circle class="dot" cx="153.03135888501743" cy="170" r="3" fill="#2563eb"></circle><circle class="dot" cx="154.28571428571428" cy="170" r="3" fill="#2563eb"></circle><circle class="dot" cx="155.54006968641116" cy="170" r="3" fill="#2563eb"></circle><circle class="dot" cx="156.794425087108" cy="170" r="3" fill="#2563eb"></circle><circle class="dot" cx="158.0487804878049" cy="170" r="3" fill="#2563eb"></circle><circle class="dot" cx="159.30313588850174" cy="170" r="3" fill="#2563eb"></circle><circle class="dot" cx="160.5574912891986" cy="170" r="3" fill="#2563eb"></circle><circle class="dot" cx="161.81184668989548" cy="170" r="3" fill="#2563eb"></circle><circle class="dot" cx="163.06620209059233" cy="170" r="3" fill="#2563eb"></circle><circle class="dot" cx="164.3205574912892" cy="170" r="3" fill="#2563eb"></circle><circle class="dot" cx="165.57491289198606" cy="170" r="3" fill="#2563eb"></circle><circle class="dot" cx="166.82926829268294" cy="170" r="3" fill="#2563eb"></circle><circle class="dot" cx="168.0836236933798" cy="170" r="3" fill="#2563eb"></circle><circle class="dot" cx="169.33797909407667" cy="170" r="3" fill="#2563eb"></circle><circle class="dot" cx="170.59233449477352" cy="170" r="3" fill="#2563eb"></circle><circle class="dot" cx="171.84668989547038" cy="170" r="3" fill="#2563eb"></circle><circle class="dot" cx="173.10104529616726" cy="170" r="3" fill="#2563eb"></circle><circle class="dot" cx="174.3554006968641" cy="170" r="3" fill="#2563eb"></circle><circle class="dot" cx="175.60975609756096" cy="170" r="3" fill="#2563eb"></circle><circle class="dot" cx="176.86411149825784" cy="170" r="3" fill="#2563eb"></circle><circle class="dot" cx="178.1184668989547" cy="170" r="3" fill="#2563eb"></circle><circle class="dot" cx="179.37282229965157" cy="170" r="3" fill="#2563eb"></circle><circle class="dot" cx="180.62717770034843" cy="170" r="3" fill="#2563eb"></circle><circle class="dot" cx="181.88153310104528" cy="170" r="3" fill="#2563eb"></circle><circle class="dot" cx="183.1358885017422" cy="170" r="3" fill="#2563eb"></circle><circle class="dot" cx="184.39024390243904" cy="170" r="3" fill="#2563eb"></circle><circle class="dot" cx="185.6445993031359" cy="170" r="3" fill="#2563eb"></circle><circle class="dot" cx="186.89895470383274" cy="170" r="3" fill="#2563eb"></circle><circle class="dot" cx="188.15331010452962" cy="170" r="3" fill="#2563eb"></circle><circle class="dot" cx="189.40766550522648" cy="170" r="3" fill="#2563eb"></circle><circle class="dot" cx="190.66202090592333" cy="170" r="3" fill="#2563eb"></circle><circle class="dot" cx="191.91637630662018" cy="170" r="3" fill="#2563eb"></circle><circle class="dot" cx="193.1707317073171" cy="170" r="3" fill="#2563eb"></circle><circle class="dot" cx="194.42508710801394" cy="170" r="3" fill="#2563eb"></circle><circle class="dot" cx="195.6794425087108" cy="170" r="3" fill="#2563eb"></circle><circle class="dot" cx="196.93379790940764" cy="170" r="3" fill="#2563eb"></circle><circle class="dot" cx="198.18815331010455" cy="170" r="3" fill="#2563eb"></circle><circle class="dot" cx="199.4425087108014" cy="170" r="3" fill="#2563eb"></circle><circle class="dot" cx="200.69686411149826" cy="170" r="3" fill="#2563eb"></circle><circle class="dot" cx="201.95121951219514" cy="170" r="3" fill="#2563eb"></circle><circle class="dot" cx="203.205574912892" cy="170" r="3" fill="#2563eb"></circle><circle class="dot" cx="204.45993031358884" cy="170" r="3" fill="#2563eb"></circle><circle class="dot" cx="205.7142857142857" cy="170" r="3" fill="#2563eb"></circle><circle class="dot" cx="206.9686411149826" cy="170" r="3" fill="#2563eb"></circle><circle class="dot" cx="208.22299651567945" cy="170" r="3" fill="#2563eb"></circle><circle class="dot" cx="209.4773519163763" cy="170" r="3" fill="#2563eb"></circle><circle class="dot" cx="210.73170731707316" cy="170" r="3" fill="#2563eb"></circle><circle class="dot" cx="211.98606271777004" cy="170" r="3" fill="#2563eb"></circle><circle class="dot" cx="213.2404181184669" cy="170" r="3" fill="#2563eb"></circle><circle class="dot" cx="214.49477351916377" cy="170" r="3" fill="#2563eb"></circle><circle class="dot" cx="215.74912891986062" cy="170" r="3" fill="#2563eb"></circle><circle class="dot" cx="217.0034843205575" cy="170" r="3" fill="#2563eb"></circle><circle class="dot" cx="218.25783972125436" cy="170" r="3" fill="#2563eb"></circle><circle class="dot" cx="219.5121951219512" cy="170" r="3" fill="#2563eb"></circle><circle class="dot" cx="220.76655052264806" cy="170" r="3" fill="#2563eb"></circle><circle class="dot" cx="222.02090592334497" cy="170" r="3" fill="#2563eb"></circle><circle class="dot" cx="223.27526132404182" cy="170" r="3" fill="#2563eb"></circle><circle class="dot" cx="224.52961672473867" cy="170" r="3" fill="#2563eb"></circle><circle class="dot" cx="225.78397212543553" cy="170" r="3" fill="#2563eb"></circle><circle class="dot" cx="227.0383275261324" cy="170" r="3" fill="#2563eb"></circle><circle class="dot" cx="228.29268292682926" cy="170" r="3" fill="#2563eb"></circle><circle class="dot" cx="229.54703832752614" cy="170" r="3" fill="#2563eb"></circle><circle class="dot" cx="230.801393728223" cy="170" r="3" fill="#2563eb"></circle><circle class="dot" cx="232.05574912891987" cy="170" r="3" fill="#2563eb"></circle><circle class="dot" cx="233.31010452961672" cy="170" r="3" fill="#2563eb"></circle><circle class="dot" cx="234.56445993031357" cy="170" r="3" fill="#2563eb"></circle><circle class="dot" cx="235.81881533101043" cy="170" r="3" fill="#2563eb"></circle><circle class="dot" cx="237.07317073170734" cy="170" r="3" fill="#2563eb"></circle><circle class="dot" cx="238.3275261324042" cy="170" r="3" fill="#2563eb"></circle><circle class="dot" cx="239.58188153310104" cy="170" r="3" fill="#2563eb"></circle><circle class="dot" cx="240.83623693379792" cy="170" r="3" fill="#2563eb"></circle><circle class="dot" cx="242.09059233449477" cy="170" r="3" fill="#2563eb"></circle><circle class="dot" cx="243.34494773519162" cy="170" r="3" fill="#2563eb"></circle><circle class="dot" cx="244.59930313588848" cy="170" r="3" fill="#2563eb"></circle><circle class="dot" cx="245.85365853658539" cy="170" r="3" fill="#2563eb"></circle><circle class="dot" cx="247.10801393728224" cy="170" r="3" fill="#2563eb"></circle><circle class="dot" cx="248.3623693379791" cy="170" r="3" fill="#2563eb"></circle><circle class="dot" cx="249.61672473867594" cy="170" r="3" fill="#2563eb"></circle><circle class="dot" cx="250.87108013937285" cy="170" r="3" fill="#2563eb"></circle><circle class="dot" cx="252.1254355400697" cy="170" r="3" fill="#2563eb"></circle><circle class="dot" cx="253.37979094076655" cy="170" r="3" fill="#2563eb"></circle><circle class="dot" cx="254.6341463414634" cy="170" r="3" fill="#2563eb"></circle><circle class="dot" cx="255.8885017421603" cy="170" r="3" fill="#2563eb"></circle><circle class="dot" cx="257.14285714285717" cy="170" r="3" fill="#2563eb"></circle><circle class="dot" cx="258.397212543554" cy="170" r="3" fill="#2563eb"></circle><circle class="dot" cx="259.65156794425087" cy="170" r="3" fill="#2563eb"></circle><circle class="dot" cx="260.9059233449477" cy="170" r="3" fill="#2563eb"></circle><circle class="dot" cx="262.16027874564463" cy="170" r="3" fill="#2563eb"></circle><circle class="dot" cx="263.4146341463415" cy="170" r="3" fill="#2563eb"></circle><circle class="dot" cx="264.66898954703834" cy="170" r="3" fill="#2563eb"></circle><circle class="dot" cx="265.9233449477352" cy="170" r="3" fill="#2563eb"></circle><circle class="dot" cx="267.17770034843204" cy="170" r="3" fill="#2563eb"></circle><circle class="dot" cx="268.4320557491289" cy="170" r="3" fill="#2563eb"></circle><circle class="dot" cx="269.68641114982574" cy="170" r="3" fill="#2563eb"></circle><circle class="dot" cx="270.94076655052265" cy="170" r="3" fill="#2563eb"></circle><circle class="dot" cx="272.1951219512195" cy="170" r="3" fill="#2563eb"></circle><circle class="dot" cx="273.44947735191636" cy="170" r="3" fill="#2563eb"></circle><circle class="dot" cx="274.7038327526132" cy="170" r="3" fill="#2563eb"></circle><circle class="dot" cx="275.9581881533101" cy="170" r="3" fill="#2563eb"></circle><circle class="dot" cx="277.21254355400697" cy="170" r="3" fill="#2563eb"></circle><circle class="dot" cx="278.4668989547038" cy="170" r="3" fill="#2563eb"></circle><circle class="dot" cx="279.7212543554007" cy="170" r="3" fill="#2563eb"></circle><circle class="dot" cx="280.9756097560976" cy="170" r="3" fill="#2563eb"></circle><circle class="dot" cx="282.22996515679444" cy="170" r="3" fill="#2563eb"></circle><circle class="dot" cx="283.4843205574913" cy="170" r="3" fill="#2563eb"></circle><circle class="dot" cx="284.7386759581882" cy="170" r="3" fill="#2563eb"></circle><circle class="dot" cx="285.99303135888505" cy="170" r="3" fill="#2563eb"></circle><circle class="dot" cx="287.2473867595819" cy="170" r="3" fill="#2563eb"></circle><circle class="dot" cx="288.50174216027875" cy="170" r="3" fill="#2563eb"></circle><circle class="dot" cx="289.7560975609756" cy="170" r="3" fill="#2563eb"></circle><circle class="dot" cx="291.01045296167246" cy="170" r="3" fill="#2563eb"></circle><circle class="dot" cx="292.2648083623693" cy="170" r="3" fill="#2563eb"></circle><circle class="dot" cx="293.5191637630662" cy="170" r="3" fill="#2563eb"></circle><circle class="dot" cx="294.77351916376307" cy="170" r="3" fill="#2563eb"></circle><circle class="dot" cx="296.0278745644599" cy="170" r="3" fill="#2563eb"></circle><circle class="dot" cx="297.2822299651568" cy="170" r="3" fill="#2563eb"></circle><circle class="dot" cx="298.5365853658536" cy="170" r="3" fill="#2563eb"></circle><circle class="dot" cx="299.79094076655053" cy="170" r="3" fill="#2563eb"></circle><circle class="dot" cx="301.0452961672474" cy="170" r="3" fill="#2563eb"></circle><circle class="dot" cx="302.29965156794424" cy="170" r="3" fill="#2563eb"></circle><circle class="dot" cx="303.5540069686411" cy="170" r="3" fill="#2563eb"></circle><circle class="dot" cx="304.808362369338" cy="170" r="3" fill="#2563eb"></circle><circle class="dot" cx="306.06271777003485" cy="170" r="3" fill="#2563eb"></circle><circle class="dot" cx="307.3170731707317" cy="170" r="3" fill="#2563eb"></circle><circle class="dot" cx="308.57142857142856" cy="170" r="3" fill="#2563eb"></circle><circle class="dot" cx="309.82578397212546" cy="170" r="3" fill="#2563eb"></circle><circle class="dot" cx="311.0801393728223" cy="170" r="3" fill="#2563eb"></circle><circle class="dot" cx="312.33449477351917" cy="170" r="3" fill="#2563eb"></circle><circle class="dot" cx="313.588850174216" cy="170" r="3" fill="#2563eb"></circle><circle class="dot" cx="314.84320557491293" cy="170" r="3" fill="#2563eb"></circle><circle class="dot" cx="316.0975609756098" cy="170" r="3" fill="#2563eb"></circle><circle class="dot" cx="317.35191637630663" cy="170" r="3" fill="#2563eb"></circle><circle class="dot" cx="318.6062717770035" cy="170" r="3" fill="#2563eb"></circle><circle class="dot" cx="319.86062717770034" cy="170" r="3" fill="#2563eb"></circle><circle class="dot" cx="321.1149825783972" cy="170" r="3" fill="#2563eb"></circle><circle class="dot" cx="322.36933797909404" cy="170" r="3" fill="#2563eb"></circle><circle class="dot" cx="323.62369337979095" cy="170" r="3" fill="#2563eb"></circle><circle class="dot" cx="324.8780487804878" cy="170" r="3" fill="#2563eb"></circle><circle class="dot" cx="326.13240418118465" cy="170" r="3" fill="#2563eb"></circle><circle class="dot" cx="327.3867595818815" cy="170" r="3" fill="#2563eb"></circle><circle class="dot" cx="328.6411149825784" cy="170" r="3" fill="#2563eb"></circle><circle class="dot" cx="329.89547038327527" cy="170" r="3" fill="#2563eb"></circle><circle class="dot" cx="331.1498257839721" cy="170" r="3" fill="#2563eb"></circle><circle class="dot" cx="332.40418118466897" cy="170" r="3" fill="#2563eb"></circle><circle class="dot" cx="333.6585365853659" cy="170" r="3" fill="#2563eb"></circle><circle class="dot" cx="334.91289198606273" cy="170" r="3" fill="#2563eb"></circle><circle class="dot" cx="336.1672473867596" cy="170" r="3" fill="#2563eb"></circle><circle class="dot" cx="337.42160278745644" cy="170" r="3" fill="#2563eb"></circle><circle class="dot" cx="338.67595818815334" cy="170" r="3" fill="#2563eb"></circle><circle class="dot" cx="339.9303135888502" cy="170" r="3" fill="#2563eb"></circle><circle class="dot" cx="341.18466898954705" cy="170" r="3" fill="#2563eb"></circle><circle class="dot" cx="342.4390243902439" cy="170" r="3" fill="#2563eb"></circle><circle class="dot" cx="343.69337979094075" cy="170" r="3" fill="#2563eb"></circle><circle class="dot" cx="344.94773519163766" cy="170" r="3" fill="#2563eb"></circle><circle class="dot" cx="346.2020905923345" cy="170" r="3" fill="#2563eb"></circle><circle class="dot" cx="347.45644599303137" cy="170" r="3" fill="#2563eb"></circle><circle class="dot" cx="348.7108013937282" cy="170" r="3" fill="#2563eb"></circle><circle class="dot" cx="349.96515679442507" cy="170" r="3" fill="#2563eb"></circle><circle class="dot" cx="351.2195121951219" cy="170" r="3" fill="#2563eb"></circle><circle class="dot" cx="352.4738675958188" cy="170" r="3" fill="#2563eb"></circle><circle class="dot" cx="353.7282229965157" cy="170" r="3" fill="#2563eb"></circle><circle class="dot" cx="354.98257839721254" cy="170" r="3" fill="#2563eb"></circle><circle class="dot" cx="356.2369337979094" cy="170" r="3" fill="#2563eb"></circle><circle class="dot" cx="357.49128919860624" cy="170" r="3" fill="#2563eb"></circle><circle class="dot" cx="358.74564459930315" cy="170" r="3" fill="#2563eb"></circle><circle class="dot" cx="360" cy="170" r="3" fill="#2563eb"></circle><circle class="dot" cx="361.25435540069685" cy="170" r="3" fill="#2563eb"></circle><circle class="dot" cx="362.5087108013937" cy="170" r="3" fill="#2563eb"></circle><circle class="dot" cx="363.76306620209056" cy="170" r="3" fill="#2563eb"></circle><circle class="dot" cx="365.0174216027875" cy="170" r="3" fill="#2563eb"></circle><circle class="dot" cx="366.2717770034844" cy="170" r="3" fill="#2563eb"></circle><circle class="dot" cx="367.5261324041812" cy="170" r="3" fill="#2563eb"></circle><circle class="dot" cx="368.7804878048781" cy="170" r="3" fill="#2563eb"></circle><circle class="dot" cx="370.03484320557493" cy="170" r="3" fill="#2563eb"></circle><circle class="dot" cx="371.2891986062718" cy="170" r="3" fill="#2563eb"></circle><circle class="dot" cx="372.54355400696863" cy="170" r="3" fill="#2563eb"></circle><circle class="dot" cx="373.7979094076655" cy="170" r="3" fill="#2563eb"></circle><circle class="dot" cx="375.0522648083624" cy="170" r="3" fill="#2563eb"></circle><circle class="dot" cx="376.30662020905925" cy="170" r="3" fill="#2563eb"></circle><circle class="dot" cx="377.5609756097561" cy="170" r="3" fill="#2563eb"></circle><circle class="dot" cx="378.81533101045295" cy="170" r="3" fill="#2563eb"></circle><circle class="dot" cx="380.0696864111498" cy="170" r="3" fill="#2563eb"></circle><circle class="dot" cx="381.32404181184666" cy="170" r="3" fill="#2563eb"></circle><circle class="dot" cx="382.5783972125435" cy="170" r="3" fill="#2563eb"></circle><circle class="dot" cx="383.83275261324036" cy="170" r="3" fill="#2563eb"></circle><circle class="dot" cx="385.0871080139373" cy="170" r="3" fill="#2563eb"></circle><circle class="dot" cx="386.3414634146342" cy="170" r="3" fill="#2563eb"></circle><circle class="dot" cx="387.59581881533103" cy="170" r="3" fill="#2563eb"></circle><circle class="dot" cx="388.8501742160279" cy="170" r="3" fill="#2563eb"></circle><circle class="dot" cx="390.10452961672473" cy="170" r="3" fill="#2563eb"></circle><circle class="dot" cx="391.3588850174216" cy="170" r="3" fill="#2563eb"></circle><circle class="dot" cx="392.61324041811844" cy="170" r="3" fill="#2563eb"></circle><circle class="dot" cx="393.8675958188153" cy="170" r="3" fill="#2563eb"></circle><circle class="dot" cx="395.1219512195122" cy="170" r="3" fill="#2563eb"></circle><circle class="dot" cx="396.3763066202091" cy="170" r="3" fill="#2563eb"></circle><circle class="dot" cx="397.63066202090596" cy="170" r="3" fill="#2563eb"></circle><circle class="dot" cx="398.8850174216028" cy="170" r="3" fill="#2563eb"></circle><circle class="dot" cx="400.13937282229966" cy="170" r="3" fill="#2563eb"></circle><circle class="dot" cx="401.3937282229965" cy="170" r="3" fill="#2563eb"></circle><circle class="dot" cx="402.64808362369337" cy="170" r="3" fill="#2563eb"></circle><circle class="dot" cx="403.9024390243903" cy="170" r="3" fill="#2563eb"></circle><circle class="dot" cx="405.1567944250871" cy="170" r="3" fill="#2563eb"></circle><circle class="dot" cx="406.411149825784" cy="170" r="3" fill="#2563eb"></circle><circle class="dot" cx="407.66550522648083" cy="170" r="3" fill="#2563eb"></circle><circle class="dot" cx="408.9198606271777" cy="170" r="3" fill="#2563eb"></circle><circle class="dot" cx="410.17421602787454" cy="170" r="3" fill="#2563eb"></circle><circle class="dot" cx="411.4285714285714" cy="170" r="3" fill="#2563eb"></circle><circle class="dot" cx="412.68292682926824" cy="170" r="3" fill="#2563eb"></circle><circle class="dot" cx="413.9372822299652" cy="170" r="3" fill="#2563eb"></circle><circle class="dot" cx="415.19163763066206" cy="170" r="3" fill="#2563eb"></circle><circle class="dot" cx="416.4459930313589" cy="170" r="3" fill="#2563eb"></circle><circle class="dot" cx="417.70034843205576" cy="170" r="3" fill="#2563eb"></circle><circle class="dot" cx="418.9547038327526" cy="170" r="3" fill="#2563eb"></circle><circle class="dot" cx="420.20905923344947" cy="170" r="3" fill="#2563eb"></circle><circle class="dot" cx="421.4634146341463" cy="170" r="3" fill="#2563eb"></circle><circle class="dot" cx="422.71777003484317" cy="170" r="3" fill="#2563eb"></circle><circle class="dot" cx="423.9721254355401" cy="170" r="3" fill="#2563eb"></circle><circle class="dot" cx="425.22648083623693" cy="170" r="3" fill="#2563eb"></circle><circle class="dot" cx="426.4808362369338" cy="170" r="3" fill="#2563eb"></circle><circle class="dot" cx="427.7351916376307" cy="170" r="3" fill="#2563eb"></circle><circle class="dot" cx="428.98954703832754" cy="170" r="3" fill="#2563eb"></circle><circle class="dot" cx="430.2439024390244" cy="170" r="3" fill="#2563eb"></circle><circle class="dot" cx="431.49825783972125" cy="170" r="3" fill="#2563eb"></circle><circle class="dot" cx="432.7526132404181" cy="170" r="3" fill="#2563eb"></circle><circle class="dot" cx="434.006968641115" cy="170" r="3" fill="#2563eb"></circle><circle class="dot" cx="435.26132404181186" cy="170" r="3" fill="#2563eb"></circle><circle class="dot" cx="436.5156794425087" cy="170" r="3" fill="#2563eb"></circle><circle class="dot" cx="437.77003484320556" cy="170" r="3" fill="#2563eb"></circle><circle class="dot" cx="439.0243902439024" cy="170" r="3" fill="#2563eb"></circle><circle class="dot" cx="440.27874564459927" cy="170" r="3" fill="#2563eb"></circle><circle class="dot" cx="441.5331010452961" cy="170" r="3" fill="#2563eb"></circle><circle class="dot" cx="442.7874564459931" cy="170" r="3" fill="#2563eb"></circle><circle class="dot" cx="444.04181184668994" cy="170" r="3" fill="#2563eb"></circle><circle class="dot" cx="445.2961672473868" cy="170" r="3" fill="#2563eb"></circle><circle class="dot" cx="446.55052264808364" cy="170" r="3" fill="#2563eb"></circle><circle class="dot" cx="447.8048780487805" cy="170" r="3" fill="#2563eb"></circle><circle class="dot" cx="449.05923344947735" cy="170" r="3" fill="#2563eb"></circle><circle class="dot" cx="450.3135888501742" cy="170" r="3" fill="#2563eb"></circle><circle class="dot" cx="451.56794425087105" cy="170" r="3" fill="#2563eb"></circle><circle class="dot" cx="452.82229965156796" cy="170" r="3" fill="#2563eb"></circle><circle class="dot" cx="454.0766550522648" cy="170" r="3" fill="#2563eb"></circle><circle class="dot" cx="455.33101045296166" cy="170" r="3" fill="#2563eb"></circle><circle class="dot" cx="456.5853658536585" cy="170" r="3" fill="#2563eb"></circle><circle class="dot" cx="457.83972125435537" cy="170" r="3" fill="#2563eb"></circle><circle class="dot" cx="459.0940766550523" cy="170" r="3" fill="#2563eb"></circle><circle class="dot" cx="460.34843205574913" cy="170" r="3" fill="#2563eb"></circle><circle class="dot" cx="461.602787456446" cy="170" r="3" fill="#2563eb"></circle><circle class="dot" cx="462.8571428571429" cy="170" r="3" fill="#2563eb"></circle><circle class="dot" cx="464.11149825783974" cy="170" r="3" fill="#2563eb"></circle><circle class="dot" cx="465.3658536585366" cy="170" r="3" fill="#2563eb"></circle><circle class="dot" cx="466.62020905923345" cy="170" r="3" fill="#2563eb"></circle><circle class="dot" cx="467.8745644599303" cy="170" r="3" fill="#2563eb"></circle><circle class="dot" cx="469.12891986062715" cy="170" r="3" fill="#2563eb"></circle><circle class="dot" cx="470.383275261324" cy="170" r="3" fill="#2563eb"></circle><circle class="dot" cx="471.63763066202085" cy="170" r="3" fill="#2563eb"></circle><circle class="dot" cx="472.8919860627178" cy="170" r="3" fill="#2563eb"></circle><circle class="dot" cx="474.1463414634147" cy="170" r="3" fill="#2563eb"></circle><circle class="dot" cx="475.4006968641115" cy="170" r="3" fill="#2563eb"></circle><circle class="dot" cx="476.6550522648084" cy="170" r="3" fill="#2563eb"></circle><circle class="dot" cx="477.9094076655052" cy="170" r="3" fill="#2563eb"></circle><circle class="dot" cx="479.1637630662021" cy="170" r="3" fill="#2563eb"></circle><circle class="dot" cx="480.41811846689893" cy="170" r="3" fill="#2563eb"></circle><circle class="dot" cx="481.67247386759584" cy="170" r="3" fill="#2563eb"></circle><circle class="dot" cx="482.9268292682927" cy="170" r="3" fill="#2563eb"></circle><circle class="dot" cx="484.18118466898954" cy="170" r="3" fill="#2563eb"></circle><circle class="dot" cx="485.4355400696864" cy="170" r="3" fill="#2563eb"></circle><circle class="dot" cx="486.68989547038325" cy="170" r="3" fill="#2563eb"></circle><circle class="dot" cx="487.9442508710801" cy="170" r="3" fill="#2563eb"></circle><circle class="dot" cx="489.19860627177695" cy="170" r="3" fill="#2563eb"></circle><circle class="dot" cx="490.45296167247386" cy="170" r="3" fill="#2563eb"></circle><circle class="dot" cx="491.70731707317077" cy="170" r="3" fill="#2563eb"></circle><circle class="dot" cx="492.9616724738676" cy="170" r="3" fill="#2563eb"></circle><circle class="dot" cx="494.2160278745645" cy="170" r="3" fill="#2563eb"></circle><circle class="dot" cx="495.4703832752613" cy="170" r="3" fill="#2563eb"></circle><circle class="dot" cx="496.7247386759582" cy="170" r="3" fill="#2563eb"></circle><circle class="dot" cx="497.97909407665503" cy="170" r="3" fill="#2563eb"></circle><circle class="dot" cx="499.2334494773519" cy="170" r="3" fill="#2563eb"></circle><circle class="dot" cx="500.48780487804873" cy="170" r="3" fill="#2563eb"></circle><circle class="dot" cx="501.7421602787457" cy="170" r="3" fill="#2563eb"></circle><circle class="dot" cx="502.99651567944255" cy="170" r="3" fill="#2563eb"></circle><circle class="dot" cx="504.2508710801394" cy="170" r="3" fill="#2563eb"></circle><circle class="dot" cx="505.50522648083626" cy="170" r="3" fill="#2563eb"></circle><circle class="dot" cx="506.7595818815331" cy="170" r="3" fill="#2563eb"></circle><circle class="dot" cx="508.01393728222996" cy="170" r="3" fill="#2563eb"></circle><circle class="dot" cx="509.2682926829268" cy="170" r="3" fill="#2563eb"></circle><circle class="dot" cx="510.52264808362366" cy="170" r="3" fill="#2563eb"></circle><circle class="dot" cx="511.7770034843206" cy="170" r="3" fill="#2563eb"></circle><circle class="dot" cx="513.0313588850174" cy="170" r="3" fill="#2563eb"></circle><circle class="dot" cx="514.2857142857143" cy="170" r="3" fill="#2563eb"></circle><circle class="dot" cx="515.5400696864111" cy="170" r="3" fill="#2563eb"></circle><circle class="dot" cx="516.794425087108" cy="170" r="3" fill="#2563eb"></circle><circle class="dot" cx="518.0487804878048" cy="170" r="3" fill="#2563eb"></circle><circle class="dot" cx="519.3031358885017" cy="170" r="3" fill="#2563eb"></circle><circle class="dot" cx="520.5574912891987" cy="170" r="3" fill="#2563eb"></circle><circle class="dot" cx="521.8118466898954" cy="170" r="3" fill="#2563eb"></circle><circle class="dot" cx="523.0662020905924" cy="170" r="3" fill="#2563eb"></circle><circle class="dot" cx="524.3205574912893" cy="170" r="3" fill="#2563eb"></circle><circle class="dot" cx="525.5749128919861" cy="170" r="3" fill="#2563eb"></circle><circle class="dot" cx="526.829268292683" cy="170" r="3" fill="#2563eb"></circle><circle class="dot" cx="528.0836236933798" cy="170" r="3" fill="#2563eb"></circle><circle class="dot" cx="529.3379790940767" cy="170" r="3" fill="#2563eb"></circle><circle class="dot" cx="530.5923344947736" cy="170" r="3" fill="#2563eb"></circle><circle class="dot" cx="531.8466898954704" cy="170" r="3" fill="#2563eb"></circle><circle class="dot" cx="533.1010452961673" cy="170" r="3" fill="#2563eb"></circle><circle class="dot" cx="534.3554006968641" cy="170" r="3" fill="#2563eb"></circle><circle class="dot" cx="535.609756097561" cy="170" r="3" fill="#2563eb"></circle><circle class="dot" cx="536.8641114982578" cy="170" r="3" fill="#2563eb"></circle><circle class="dot" cx="538.1184668989547" cy="170" r="3" fill="#2563eb"></circle><circle class="dot" cx="539.3728222996515" cy="170" r="3" fill="#2563eb"></circle><circle class="dot" cx="540.6271777003485" cy="170" r="3" fill="#2563eb"></circle><circle class="dot" cx="541.8815331010453" cy="170" r="3" fill="#2563eb"></circle><circle class="dot" cx="543.1358885017422" cy="170" r="3" fill="#2563eb"></circle><circle class="dot" cx="544.390243902439" cy="170" r="3" fill="#2563eb"></circle><circle class="dot" cx="545.6445993031359" cy="170" r="3" fill="#2563eb"></circle><circle class="dot" cx="546.8989547038327" cy="170" r="3" fill="#2563eb"></circle><circle class="dot" cx="548.1533101045296" cy="170" r="3" fill="#2563eb"></circle><circle class="dot" cx="549.4076655052264" cy="170" r="3" fill="#2563eb"></circle><circle class="dot" cx="550.6620209059233" cy="170" r="3" fill="#2563eb"></circle><circle class="dot" cx="551.9163763066202" cy="170" r="3" fill="#2563eb"></circle><circle class="dot" cx="553.170731707317" cy="170" r="3" fill="#2563eb"></circle><circle class="dot" cx="554.4250871080139" cy="170" r="3" fill="#2563eb"></circle><circle class="dot" cx="555.6794425087107" cy="170" r="3" fill="#2563eb"></circle><circle class="dot" cx="556.9337979094076" cy="170" r="3" fill="#2563eb"></circle><circle class="dot" cx="558.1881533101046" cy="170" r="3" fill="#2563eb"></circle><circle class="dot" cx="559.4425087108013" cy="170" r="3" fill="#2563eb"></circle><circle class="dot" cx="560.6968641114983" cy="170" r="3" fill="#2563eb"></circle><circle class="dot" cx="561.9512195121952" cy="170" r="3" fill="#2563eb"></circle><circle class="dot" cx="563.205574912892" cy="170" r="3" fill="#2563eb"></circle><circle class="dot" cx="564.4599303135889" cy="170" r="3" fill="#2563eb"></circle><circle class="dot" cx="565.7142857142857" cy="170" r="3" fill="#2563eb"></circle><circle class="dot" cx="566.9686411149826" cy="170" r="3" fill="#2563eb"></circle><circle class="dot" cx="568.2229965156794" cy="170" r="3" fill="#2563eb"></circle><circle class="dot" cx="569.4773519163764" cy="170" r="3" fill="#2563eb"></circle><circle class="dot" cx="570.7317073170732" cy="170" r="3" fill="#2563eb"></circle><circle class="dot" cx="571.9860627177701" cy="170" r="3" fill="#2563eb"></circle><circle class="dot" cx="573.2404181184669" cy="170" r="3" fill="#2563eb"></circle><circle class="dot" cx="574.4947735191638" cy="170" r="3" fill="#2563eb"></circle><circle class="dot" cx="575.7491289198606" cy="170" r="3" fill="#2563eb"></circle><circle class="dot" cx="577.0034843205575" cy="170" r="3" fill="#2563eb"></circle><circle class="dot" cx="578.2578397212543" cy="170" r="3" fill="#2563eb"></circle><circle class="dot" cx="579.5121951219512" cy="170" r="3" fill="#2563eb"></circle><circle class="dot" cx="580.7665505226481" cy="170" r="3" fill="#2563eb"></circle><circle class="dot" cx="582.0209059233449" cy="170" r="3" fill="#2563eb"></circle><circle class="dot" cx="583.2752613240418" cy="170" r="3" fill="#2563eb"></circle><circle class="dot" cx="584.5296167247386" cy="170" r="3" fill="#2563eb"></circle><circle class="dot" cx="585.7839721254355" cy="170" r="3" fill="#2563eb"></circle><circle class="dot" cx="587.0383275261324" cy="170" r="3" fill="#2563eb"></circle><circle class="dot" cx="588.2926829268292" cy="170" r="3" fill="#2563eb"></circle><circle class="dot" cx="589.5470383275261" cy="170" r="3" fill="#2563eb"></circle><circle class="dot" cx="590.801393728223" cy="170" r="3" fill="#2563eb"></circle><circle class="dot" cx="592.0557491289198" cy="170" r="3" fill="#2563eb"></circle><circle class="dot" cx="593.3101045296168" cy="170" r="3" fill="#2563eb"></circle><circle class="dot" cx="594.5644599303135" cy="170" r="3" fill="#2563eb"></circle><circle class="dot" cx="595.8188153310105" cy="170" r="3" fill="#2563eb"></circle><circle class="dot" cx="597.0731707317073" cy="170" r="3" fill="#2563eb"></circle><circle class="dot" cx="598.3275261324042" cy="170" r="3" fill="#2563eb"></circle><circle class="dot" cx="599.5818815331011" cy="170" r="3" fill="#2563eb"></circle><circle class="dot" cx="600.836236933798" cy="170" r="3" fill="#2563eb"></circle><circle class="dot" cx="602.0905923344948" cy="170" r="3" fill="#2563eb"></circle><circle class="dot" cx="603.3449477351917" cy="170" r="3" fill="#2563eb"></circle><circle class="dot" cx="604.5993031358885" cy="170" r="3" fill="#2563eb"></circle><circle class="dot" cx="605.8536585365854" cy="170" r="3" fill="#2563eb"></circle><circle class="dot" cx="607.1080139372822" cy="170" r="3" fill="#2563eb"></circle><circle class="dot" cx="608.3623693379791" cy="170" r="3" fill="#2563eb"></circle><circle class="dot" cx="609.616724738676" cy="170" r="3" fill="#2563eb"></circle><circle class="dot" cx="610.8710801393728" cy="170" r="3" fill="#2563eb"></circle><circle class="dot" cx="612.1254355400697" cy="170" r="3" fill="#2563eb"></circle><circle class="dot" cx="613.3797909407665" cy="170" r="3" fill="#2563eb"></circle><circle class="dot" cx="614.6341463414634" cy="170" r="3" fill="#2563eb"></circle><circle class="dot" cx="615.8885017421602" cy="170" r="3" fill="#2563eb"></circle><circle class="dot" cx="617.1428571428571" cy="170" r="3" fill="#2563eb"></circle><circle class="dot" cx="618.397212543554" cy="170" r="3" fill="#2563eb"></circle><circle class="dot" cx="619.6515679442509" cy="170" r="3" fill="#2563eb"></circle><circle class="dot" cx="620.9059233449477" cy="170" r="3" fill="#2563eb"></circle><circle class="dot" cx="622.1602787456446" cy="170" r="3" fill="#2563eb"></circle><circle class="dot" cx="623.4146341463414" cy="170" r="3" fill="#2563eb"></circle><circle class="dot" cx="624.6689895470383" cy="170" r="3" fill="#2563eb"></circle><circle class="dot" cx="625.9233449477351" cy="170" r="3" fill="#2563eb"></circle><circle class="dot" cx="627.177700348432" cy="170" r="3" fill="#2563eb"></circle><circle class="dot" cx="628.432055749129" cy="170" r="3" fill="#2563eb"></circle><circle class="dot" cx="629.6864111498259" cy="170" r="3" fill="#2563eb"></circle><circle class="dot" cx="630.9407665505227" cy="170" r="3" fill="#2563eb"></circle><circle class="dot" cx="632.1951219512196" cy="170" r="3" fill="#2563eb"></circle><circle class="dot" cx="633.4494773519164" cy="170" r="3" fill="#2563eb"></circle><circle class="dot" cx="634.7038327526133" cy="170" r="3" fill="#2563eb"></circle><circle class="dot" cx="635.9581881533101" cy="170" r="3" fill="#2563eb"></circle><circle class="dot" cx="637.212543554007" cy="170" r="3" fill="#2563eb"></circle><circle class="dot" cx="638.4668989547039" cy="170" r="3" fill="#2563eb"></circle><circle class="dot" cx="639.7212543554007" cy="170" r="3" fill="#2563eb"></circle><circle class="dot" cx="640.9756097560976" cy="170" r="3" fill="#2563eb"></circle><circle class="dot" cx="642.2299651567944" cy="170" r="3" fill="#2563eb"></circle><circle class="dot" cx="643.4843205574913" cy="170" r="3" fill="#2563eb"></circle><circle class="dot" cx="644.7386759581881" cy="170" r="3" fill="#2563eb"></circle><circle class="dot" cx="645.993031358885" cy="170" r="3" fill="#2563eb"></circle><circle class="dot" cx="647.2473867595819" cy="170" r="3" fill="#2563eb"></circle><circle class="dot" cx="648.5017421602788" cy="170" r="3" fill="#2563eb"></circle><circle class="dot" cx="649.7560975609756" cy="170" r="3" fill="#2563eb"></circle><circle class="dot" cx="651.0104529616725" cy="170" r="3" fill="#2563eb"></circle><circle class="dot" cx="652.2648083623693" cy="170" r="3" fill="#2563eb"></circle><circle class="dot" cx="653.5191637630662" cy="170" r="3" fill="#2563eb"></circle><circle class="dot" cx="654.773519163763" cy="170" r="3" fill="#2563eb"></circle><circle class="dot" cx="656.0278745644599" cy="170" r="3" fill="#2563eb"></circle><circle class="dot" cx="657.2822299651568" cy="170" r="3" fill="#2563eb"></circle><circle class="dot" cx="658.5365853658537" cy="170" r="3" fill="#2563eb"></circle><circle class="dot" cx="659.7909407665505" cy="170" r="3" fill="#2563eb"></circle><circle class="dot" cx="661.0452961672474" cy="170" r="3" fill="#2563eb"></circle><circle class="dot" cx="662.2996515679442" cy="170" r="3" fill="#2563eb"></circle><circle class="dot" cx="663.5540069686411" cy="170" r="3" fill="#2563eb"></circle><circle class="dot" cx="664.8083623693379" cy="170" r="3" fill="#2563eb"></circle><circle class="dot" cx="666.0627177700349" cy="170" r="3" fill="#2563eb"></circle><circle class="dot" cx="667.3170731707318" cy="170" r="3" fill="#2563eb"></circle><circle class="dot" cx="668.5714285714286" cy="170" r="3" fill="#2563eb"></circle><circle class="dot" cx="669.8257839721255" cy="170" r="3" fill="#2563eb"></circle><circle class="dot" cx="671.0801393728223" cy="170" r="3" fill="#2563eb"></circle><circle class="dot" cx="672.3344947735192" cy="170" r="3" fill="#2563eb"></circle><circle class="dot" cx="673.588850174216" cy="170" r="3" fill="#2563eb"></circle><circle class="dot" cx="674.8432055749129" cy="170" r="3" fill="#2563eb"></circle><circle class="dot" cx="676.0975609756097" cy="170" r="3" fill="#2563eb"></circle><circle class="dot" cx="677.3519163763067" cy="170" r="3" fill="#2563eb"></circle><circle class="dot" cx="678.6062717770035" cy="170" r="3" fill="#2563eb"></circle><circle class="dot" cx="679.8606271777004" cy="170" r="3" fill="#2563eb"></circle><circle class="dot" cx="681.1149825783972" cy="170" r="3" fill="#2563eb"></circle><circle class="dot" cx="682.3693379790941" cy="170" r="3" fill="#2563eb"></circle><circle class="dot" cx="683.6236933797909" cy="170" r="3" fill="#2563eb"></circle><circle class="dot" cx="684.8780487804878" cy="170" r="3" fill="#2563eb"></circle><circle class="dot" cx="686.1324041811847" cy="170" r="3" fill="#2563eb"></circle><circle class="dot" cx="687.3867595818815" cy="170" r="3" fill="#2563eb"></circle><circle class="dot" cx="688.6411149825784" cy="170" r="3" fill="#2563eb"></circle><circle class="dot" cx="689.8954703832753" cy="170" r="3" fill="#2563eb"></circle><circle class="dot" cx="691.1498257839721" cy="170" r="3" fill="#2563eb"></circle><circle class="dot" cx="692.404181184669" cy="170" r="3" fill="#2563eb"></circle><circle class="dot" cx="693.6585365853658" cy="170" r="3" fill="#2563eb"></circle><circle class="dot" cx="694.9128919860627" cy="170" r="3" fill="#2563eb"></circle><circle class="dot" cx="696.1672473867596" cy="170" r="3" fill="#2563eb"></circle><circle class="dot" cx="697.4216027874564" cy="170" r="3" fill="#2563eb"></circle><circle class="dot" cx="698.6759581881533" cy="170" r="3" fill="#2563eb"></circle><circle class="dot" cx="699.9303135888501" cy="170" r="3" fill="#2563eb"></circle><circle class="dot" cx="701.184668989547" cy="170" r="3" fill="#2563eb"></circle><circle class="dot" cx="702.4390243902438" cy="170" r="3" fill="#2563eb"></circle><circle class="dot" cx="703.6933797909408" cy="170" r="3" fill="#2563eb"></circle><circle class="dot" cx="704.9477351916375" cy="170" r="3" fill="#2563eb"></circle><circle class="dot" cx="706.2020905923346" cy="170" r="3" fill="#2563eb"></circle><circle class="dot" cx="707.4564459930314" cy="170" r="3" fill="#2563eb"></circle><circle class="dot" cx="708.7108013937283" cy="170" r="3" fill="#2563eb"></circle><circle class="dot" cx="709.9651567944251" cy="170" r="3" fill="#2563eb"></circle><circle class="dot" cx="711.219512195122" cy="170" r="3" fill="#2563eb"></circle><circle class="dot" cx="712.4738675958188" cy="170" r="3" fill="#2563eb"></circle><circle class="dot" cx="713.7282229965157" cy="170" r="3" fill="#2563eb"></circle><circle class="dot" cx="714.9825783972125" cy="170" r="3" fill="#2563eb"></circle><circle class="dot" cx="716.2369337979094" cy="170" r="3" fill="#2563eb"></circle><circle class="dot" cx="717.4912891986063" cy="170" r="3" fill="#2563eb"></circle><circle class="dot" cx="718.7456445993031" cy="170" r="3" fill="#2563eb"></circle><circle class="dot" cx="720" cy="170" r="3" fill="#2563eb"></circle><g class="grid" transform="translate(0,340)" fill="none" font-size="10" font-family="sans-serif" text-anchor="middle" style="stroke-dasharray: 3,3; opacity: 0.3;"><path class="domain" stroke="currentColor" d="M0.5,-340V0.5H720.5V-340"></path><g class="tick" opacity="1" transform="translate(0.5,0)"><line stroke="currentColor" y2="-340"></line><text fill="currentColor" y="3" dy="0.71em"></text></g><g class="tick" opacity="1" transform="translate(30.60452961672474,0)"><line stroke="currentColor" y2="-340"></line><text fill="currentColor" y="3" dy="0.71em"></text></g><g class="tick" opacity="1" transform="translate(60.70905923344948,0)"><line stroke="currentColor" y2="-340"></line><text fill="currentColor" y="3" dy="0.71em"></text></g><g class="tick" opacity="1" transform="translate(90.81358885017421,0)"><line stroke="currentColor" y2="-340"></line><text fill="currentColor" y="3" dy="0.71em"></text></g><g class="tick" opacity="1" transform="translate(120.91811846689896,0)"><line stroke="currentColor" y2="-340"></line><text fill="currentColor" y="3" dy="0.71em"></text></g><g class="tick" opacity="1" transform="translate(151.0226480836237,0)"><line stroke="currentColor" y2="-340"></line><text fill="currentColor" y="3" dy="0.71em"></text></g><g class="tick" opacity="1" transform="translate(181.12717770034843,0)"><line stroke="currentColor" y2="-340"></line><text fill="currentColor" y="3" dy="0.71em"></text></g><g class="tick" opacity="1" transform="translate(211.23170731707316,0)"><line stroke="currentColor" y2="-340"></line><text fill="currentColor" y="3" dy="0.71em"></text></g><g class="tick" opacity="1" transform="translate(241.33623693379792,0)"><line stroke="currentColor" y2="-340"></line><text fill="currentColor" y="3" dy="0.71em"></text></g><g class="tick" opacity="1" transform="translate(271.44076655052265,0)"><line stroke="currentColor" y2="-340"></line><text fill="currentColor" y="3" dy="0.71em"></text></g><g class="tick" opacity="1" transform="translate(301.5452961672474,0)"><line stroke="currentColor" y2="-340"></line><text fill="currentColor" y="3" dy="0.71em"></text></g><g class="tick" opacity="1" transform="translate(331.6498257839721,0)"><line stroke="currentColor" y2="-340"></line><text fill="currentColor" y="3" dy="0.71em"></text></g><g class="tick" opacity="1" transform="translate(361.75435540069685,0)"><line stroke="currentColor" y2="-340"></line><text fill="currentColor" y="3" dy="0.71em"></text></g><g class="tick" opacity="1" transform="translate(391.8588850174216,0)"><line stroke="currentColor" y2="-340"></line><text fill="currentColor" y="3" dy="0.71em"></text></g><g class="tick" opacity="1" transform="translate(421.9634146341463,0)"><line stroke="currentColor" y2="-340"></line><text fill="currentColor" y="3" dy="0.71em"></text></g><g class="tick" opacity="1" transform="translate(452.06794425087105,0)"><line stroke="currentColor" y2="-340"></line><text fill="currentColor" y="3" dy="0.71em"></text></g><g class="tick" opacity="1" transform="translate(482.17247386759584,0)"><line stroke="currentColor" y2="-340"></line><text fill="currentColor" y="3" dy="0.71em"></text></g><g class="tick" opacity="1" transform="translate(512.2770034843206,0)"><line stroke="currentColor" y2="-340"></line><text fill="currentColor" y="3" dy="0.71em"></text></g><g class="tick" opacity="1" transform="translate(542.3815331010453,0)"><line stroke="currentColor" y2="-340"></line><text fill="currentColor" y="3" dy="0.71em"></text></g><g class="tick" opacity="1" transform="translate(572.4860627177701,0)"><line stroke="currentColor" y2="-340"></line><text fill="currentColor" y="3" dy="0.71em"></text></g><g class="tick" opacity="1" transform="translate(602.5905923344948,0)"><line stroke="currentColor" y2="-340"></line><text fill="currentColor" y="3" dy="0.71em"></text></g><g class="tick" opacity="1" transform="translate(632.6951219512196,0)"><line stroke="currentColor" y2="-340"></line><text fill="currentColor" y="3" dy="0.71em"></text></g><g class="tick" opacity="1" transform="translate(662.7996515679442,0)"><line stroke="currentColor" y2="-340"></line><text fill="currentColor" y="3" dy="0.71em"></text></g><g class="tick" opacity="1" transform="translate(692.904181184669,0)"><line stroke="currentColor" y2="-340"></line><text fill="currentColor" y="3" dy="0.71em"></text></g></g><g class="grid" fill="none" font-size="10" font-family="sans-serif" text-anchor="end" style="stroke-dasharray: 3,3; opacity: 0.3;"><path class="domain" stroke="currentColor" d="M720,340.5H0.5V0.5H720"></path><g class="tick" opacity="1" transform="translate(0,170.5)"><line stroke="currentColor" x2="720"></line><text fill="currentColor" x="-3" dy="0.32em"></text></g></g></g><text x="400" y="10" text-anchor="middle" style="font-size: 16px; font-weight: bold; fill: #333;">OKX USDT Lending Rate - Current Month</text></svg>