<svg width="800" height="400" xmlns="http://www.w3.org/2000/svg"><g transform="translate(50,20)"><g transform="translate(0,340)" fill="none" font-size="10" font-family="sans-serif" text-anchor="middle"><path class="domain" stroke="currentColor" d="M0.5,6V0.5H720.5V6"></path><g class="tick" opacity="1" transform="translate(0.5,0)"><line stroke="currentColor" y2="6"></line><text fill="currentColor" y="9" dy=".15em" style="text-anchor: end;" dx="-.8em" transform="rotate(-45)">12/01</text></g><g class="tick" opacity="1" transform="translate(28.103833865814696,0)"><line stroke="currentColor" y2="6"></line><text fill="currentColor" y="9" dy=".15em" style="text-anchor: end;" dx="-.8em" transform="rotate(-45)">12/02</text></g><g class="tick" opacity="1" transform="translate(55.70766773162939,0)"><line stroke="currentColor" y2="6"></line><text fill="currentColor" y="9" dy=".15em" style="text-anchor: end;" dx="-.8em" transform="rotate(-45)">12/03</text></g><g class="tick" opacity="1" transform="translate(83.31150159744409,0)"><line stroke="currentColor" y2="6"></line><text fill="currentColor" y="9" dy=".15em" style="text-anchor: end;" dx="-.8em" transform="rotate(-45)">12/04</text></g><g class="tick" opacity="1" transform="translate(110.91533546325878,0)"><line stroke="currentColor" y2="6"></line><text fill="currentColor" y="9" dy=".15em" style="text-anchor: end;" dx="-.8em" transform="rotate(-45)">12/05</text></g><g class="tick" opacity="1" transform="translate(138.51916932907346,0)"><line stroke="currentColor" y2="6"></line><text fill="currentColor" y="9" dy=".15em" style="text-anchor: end;" dx="-.8em" transform="rotate(-45)">12/06</text></g><g class="tick" opacity="1" transform="translate(166.12300319488818,0)"><line stroke="currentColor" y2="6"></line><text fill="currentColor" y="9" dy=".15em" style="text-anchor: end;" dx="-.8em" transform="rotate(-45)">12/07</text></g><g class="tick" opacity="1" transform="translate(193.72683706070288,0)"><line stroke="currentColor" y2="6"></line><text fill="currentColor" y="9" dy=".15em" style="text-anchor: end;" dx="-.8em" transform="rotate(-45)">12/08</text></g><g class="tick" opacity="1" transform="translate(221.33067092651757,0)"><line stroke="currentColor" y2="6"></line><text fill="currentColor" y="9" dy=".15em" style="text-anchor: end;" dx="-.8em" transform="rotate(-45)">12/09</text></g><g class="tick" opacity="1" transform="translate(248.93450479233226,0)"><line stroke="currentColor" y2="6"></line><text fill="currentColor" y="9" dy=".15em" style="text-anchor: end;" dx="-.8em" transform="rotate(-45)">12/10</text></g><g class="tick" opacity="1" transform="translate(276.5383386581469,0)"><line stroke="currentColor" y2="6"></line><text fill="currentColor" y="9" dy=".15em" style="text-anchor: end;" dx="-.8em" transform="rotate(-45)">12/11</text></g><g class="tick" opacity="1" transform="translate(304.1421725239617,0)"><line stroke="currentColor" y2="6"></line><text fill="currentColor" y="9" dy=".15em" style="text-anchor: end;" dx="-.8em" transform="rotate(-45)">12/12</text></g><g class="tick" opacity="1" transform="translate(331.74600638977637,0)"><line stroke="currentColor" y2="6"></line><text fill="currentColor" y="9" dy=".15em" style="text-anchor: end;" dx="-.8em" transform="rotate(-45)">12/13</text></g><g class="tick" opacity="1" transform="translate(359.34984025559106,0)"><line stroke="currentColor" y2="6"></line><text fill="currentColor" y="9" dy=".15em" style="text-anchor: end;" dx="-.8em" transform="rotate(-45)">12/14</text></g><g class="tick" opacity="1" transform="translate(386.95367412140575,0)"><line stroke="currentColor" y2="6"></line><text fill="currentColor" y="9" dy=".15em" style="text-anchor: end;" dx="-.8em" transform="rotate(-45)">12/15</text></g><g class="tick" opacity="1" transform="translate(414.55750798722045,0)"><line stroke="currentColor" y2="6"></line><text fill="currentColor" y="9" dy=".15em" style="text-anchor: end;" dx="-.8em" transform="rotate(-45)">12/16</text></g><g class="tick" opacity="1" transform="translate(442.16134185303514,0)"><line stroke="currentColor" y2="6"></line><text fill="currentColor" y="9" dy=".15em" style="text-anchor: end;" dx="-.8em" transform="rotate(-45)">12/17</text></g><g class="tick" opacity="1" transform="translate(469.76517571884983,0)"><line stroke="currentColor" y2="6"></line><text fill="currentColor" y="9" dy=".15em" style="text-anchor: end;" dx="-.8em" transform="rotate(-45)">12/18</text></g><g class="tick" opacity="1" transform="translate(497.3690095846645,0)"><line stroke="currentColor" y2="6"></line><text fill="currentColor" y="9" dy=".15em" style="text-anchor: end;" dx="-.8em" transform="rotate(-45)">12/19</text></g><g class="tick" opacity="1" transform="translate(524.9728434504792,0)"><line stroke="currentColor" y2="6"></line><text fill="currentColor" y="9" dy=".15em" style="text-anchor: end;" dx="-.8em" transform="rotate(-45)">12/20</text></g><g class="tick" opacity="1" transform="translate(552.5766773162939,0)"><line stroke="currentColor" y2="6"></line><text fill="currentColor" y="9" dy=".15em" style="text-anchor: end;" dx="-.8em" transform="rotate(-45)">12/21</text></g><g class="tick" opacity="1" transform="translate(580.1805111821086,0)"><line stroke="currentColor" y2="6"></line><text fill="currentColor" y="9" dy=".15em" style="text-anchor: end;" dx="-.8em" transform="rotate(-45)">12/22</text></g><g class="tick" opacity="1" transform="translate(607.7843450479234,0)"><line stroke="currentColor" y2="6"></line><text fill="currentColor" y="9" dy=".15em" style="text-anchor: end;" dx="-.8em" transform="rotate(-45)">12/23</text></g><g class="tick" opacity="1" transform="translate(635.388178913738,0)"><line stroke="currentColor" y2="6"></line><text fill="currentColor" y="9" dy=".15em" style="text-anchor: end;" dx="-.8em" transform="rotate(-45)">12/24</text></g><g class="tick" opacity="1" transform="translate(662.9920127795527,0)"><line stroke="currentColor" y2="6"></line><text fill="currentColor" y="9" dy=".15em" style="text-anchor: end;" dx="-.8em" transform="rotate(-45)">12/25</text></g><g class="tick" opacity="1" transform="translate(690.5958466453674,0)"><line stroke="currentColor" y2="6"></line><text fill="currentColor" y="9" dy=".15em" style="text-anchor: end;" dx="-.8em" transform="rotate(-45)">12/26</text></g><g class="tick" opacity="1" transform="translate(718.1996805111821,0)"><line stroke="currentColor" y2="6"></line><text fill="currentColor" y="9" dy=".15em" style="text-anchor: end;" dx="-.8em" transform="rotate(-45)">12/27</text></g></g><g fill="none" font-size="10" font-family="sans-serif" text-anchor="end"><path class="domain" stroke="currentColor" d="M-6,340.5H0.5V0.5H-6"></path><g class="tick" opacity="1" transform="translate(0,340.5)"><line stroke="currentColor" x2="-6"></line><text fill="currentColor" x="-9" dy="0.32em">3.20%</text></g><g class="tick" opacity="1" transform="translate(0,291.92857142857133)"><line stroke="currentColor" x2="-6"></line><text fill="currentColor" x="-9" dy="0.32em">3.25%</text></g><g class="tick" opacity="1" transform="translate(0,243.35714285714266)"><line stroke="currentColor" x2="-6"></line><text fill="currentColor" x="-9" dy="0.32em">3.30%</text></g><g class="tick" opacity="1" transform="translate(0,194.78571428571396)"><line stroke="currentColor" x2="-6"></line><text fill="currentColor" x="-9" dy="0.32em">3.35%</text></g><g class="tick" opacity="1" transform="translate(0,146.21428571428535)"><line stroke="currentColor" x2="-6"></line><text fill="currentColor" x="-9" dy="0.32em">3.40%</text></g><g class="tick" opacity="1" transform="translate(0,97.64285714285664)"><line stroke="currentColor" x2="-6"></line><text fill="currentColor" x="-9" dy="0.32em">3.45%</text></g><g class="tick" opacity="1" transform="translate(0,49.07142857142799)"><line stroke="currentColor" x2="-6"></line><text fill="currentColor" x="-9" dy="0.32em">3.50%</text></g><g class="tick" opacity="1" transform="translate(0,0.5)"><line stroke="currentColor" x2="-6"></line><text fill="currentColor" x="-9" dy="0.32em">3.55%</text></g></g><text transform="rotate(-90)" y="-50" x="-170" dy="1em" style="text-anchor: middle; font-size: 12px; fill: #666;">Pre Rate (%)</text><text transform="translate(360, 380)" style="text-anchor: middle; font-size: 12px; fill: #666;">Time (UTC)</text><path fill="none" stroke="#2563eb" stroke-width="2" d="M0,48.571C0.383,48.571,0.767,48.571,1.15,48.571C1.534,48.571,1.917,48.571,2.3,48.571C2.684,48.571,3.067,48.571,3.45,48.571C3.834,48.571,4.217,48.571,4.601,48.571C4.984,48.571,5.367,48.571,5.751,48.571C6.134,48.571,6.518,48.571,6.901,48.571C7.284,48.571,7.668,48.571,8.051,48.571C8.435,48.571,8.818,48.571,9.201,48.571C9.585,48.571,9.968,48.571,10.351,48.571C10.735,48.571,11.118,48.571,11.502,48.571C11.885,48.571,12.268,48.571,12.652,48.571C13.035,48.571,13.419,48.571,13.802,48.571C14.185,48.571,14.569,48.571,14.952,48.571C15.335,48.571,15.719,48.571,16.102,48.571C16.486,48.571,16.869,48.571,17.252,48.571C17.636,48.571,18.019,48.571,18.403,48.571C18.786,48.571,19.169,48.571,19.553,48.571C19.936,48.571,20.319,48.571,20.703,48.571C21.086,48.571,21.47,48.571,21.853,48.571C22.236,48.571,22.62,48.571,23.003,48.571C23.387,48.571,23.77,48.571,24.153,48.571C24.537,48.571,24.92,48.571,25.304,48.571C25.687,48.571,26.07,48.571,26.454,48.571C26.837,48.571,27.22,48.571,27.604,48.571C27.987,48.571,28.371,48.571,28.754,48.571C29.137,48.571,29.521,48.571,29.904,48.571C30.288,48.571,30.671,48.571,31.054,48.571C31.438,48.571,31.821,48.571,32.204,48.571C32.588,48.571,32.971,48.571,33.355,48.571C33.738,48.571,34.121,48.571,34.505,48.571C34.888,48.571,35.272,48.571,35.655,48.571C36.038,48.571,36.422,48.571,36.805,48.571C37.188,48.571,37.572,48.571,37.955,48.571C38.339,48.571,38.722,48.571,39.105,48.571C39.489,48.571,39.872,48.571,40.256,48.571C40.639,48.571,41.022,48.571,41.406,48.571C41.789,48.571,42.173,48.571,42.556,48.571C42.939,48.571,43.323,48.571,43.706,48.571C44.089,48.571,44.473,48.571,44.856,48.571C45.24,48.571,45.623,48.571,46.006,48.571C46.39,48.571,46.773,48.571,47.157,48.571C47.54,48.571,47.923,48.571,48.307,48.571C48.69,48.571,49.073,48.571,49.457,48.571C49.84,48.571,50.224,48.571,50.607,48.571C50.99,48.571,51.374,48.571,51.757,48.571C52.141,48.571,52.524,48.571,52.907,48.571C53.291,48.571,53.674,48.571,54.058,48.571C54.441,48.571,54.824,48.571,55.208,48.571C55.591,48.571,55.974,48.571,56.358,48.571C56.741,48.571,57.125,48.571,57.508,48.571C57.891,48.571,58.275,48.571,58.658,48.571C59.042,48.571,59.425,48.571,59.808,48.571C60.192,48.571,60.575,48.571,60.958,48.571C61.342,48.571,61.725,48.571,62.109,48.571C62.492,48.571,62.875,48.571,63.259,48.571C63.642,48.571,64.026,48.571,64.409,48.571C64.792,48.571,65.176,48.571,65.559,48.571C65.942,48.571,66.326,48.571,66.709,48.571C67.093,48.571,67.476,48.571,67.859,48.571C68.243,48.571,68.626,48.571,69.01,48.571C69.393,48.571,69.776,48.571,70.16,48.571C70.543,48.571,70.927,48.571,71.31,48.571C71.693,48.571,72.077,48.571,72.46,48.571C72.843,48.571,73.227,48.571,73.61,48.571C73.994,48.571,74.377,48.571,74.76,48.571C75.144,48.571,75.527,48.571,75.911,48.571C76.294,48.571,76.677,48.571,77.061,48.571C77.444,48.571,77.827,48.571,78.211,48.571C78.594,48.571,78.978,48.571,79.361,48.571C79.744,48.571,80.128,48.571,80.511,48.571C80.895,48.571,81.278,48.571,81.661,48.571C82.045,48.571,82.428,48.571,82.812,48.571C83.195,48.571,83.578,48.571,83.962,48.571C84.345,48.571,84.728,48.571,85.112,48.571C85.495,48.571,85.879,48.571,86.262,48.571C86.645,48.571,87.029,48.571,87.412,48.571C87.796,48.571,88.179,48.571,88.562,48.571C88.946,48.571,89.329,48.571,89.712,48.571C90.096,48.571,90.479,48.571,90.863,48.571C91.246,48.571,91.629,48.571,92.013,48.571C92.396,48.571,92.78,48.571,93.163,48.571C93.546,48.571,93.93,48.571,94.313,48.571C94.696,48.571,95.08,48.571,95.463,48.571C95.847,48.571,96.23,48.571,96.613,48.571C96.997,48.571,97.38,48.571,97.764,48.571C98.147,48.571,98.53,48.571,98.914,48.571C99.297,48.571,99.681,48.571,100.064,48.571C100.447,48.571,100.831,48.571,101.214,48.571C101.597,48.571,101.981,48.571,102.364,48.571C102.748,48.571,103.131,48.571,103.514,48.571C103.898,48.571,104.281,48.571,104.665,48.571C105.048,48.571,105.431,48.571,105.815,48.571C106.198,48.571,106.581,48.571,106.965,48.571C107.348,48.571,107.732,48.571,108.115,48.571C108.498,48.571,108.882,48.571,109.265,48.571C109.649,48.571,110.032,48.571,110.415,48.571C110.799,48.571,111.182,48.571,111.565,48.571C111.949,48.571,112.332,48.571,112.716,48.571C113.099,48.571,113.482,48.571,113.866,48.571C114.249,48.571,114.633,48.571,115.016,48.571C115.399,48.571,115.783,48.571,116.166,48.571C116.55,48.571,116.933,48.571,117.316,48.571C117.7,48.571,118.083,48.571,118.466,48.571C118.85,48.571,119.233,48.571,119.617,48.571C120,48.571,120.383,48.571,120.767,48.571C121.15,48.571,121.534,48.571,121.917,48.571C122.3,48.571,122.684,48.571,123.067,48.571C123.45,48.571,123.834,48.571,124.217,48.571C124.601,48.571,124.984,48.571,125.367,48.571C125.751,48.571,126.134,48.571,126.518,48.571C126.901,48.571,127.284,48.571,127.668,48.571C128.051,48.571,128.435,48.571,128.818,48.571C129.201,48.571,129.585,48.571,129.968,48.571C130.351,48.571,130.735,48.571,131.118,48.571C131.502,48.571,131.885,48.571,132.268,48.571C132.652,48.571,133.035,48.571,133.419,48.571C133.802,48.571,134.185,48.571,134.569,48.571C134.952,48.571,135.335,48.571,135.719,48.571C136.102,48.571,136.486,48.571,136.869,48.571C137.252,48.571,137.636,48.571,138.019,48.571C138.403,48.571,138.786,48.571,139.169,48.571C139.553,48.571,139.936,48.571,140.319,48.571C140.703,48.571,141.086,48.571,141.47,48.571C141.853,48.571,142.236,48.571,142.62,48.571C143.003,48.571,143.387,48.571,143.77,48.571C144.153,48.571,144.537,48.571,144.92,48.571C145.304,48.571,145.687,48.571,146.07,48.571C146.454,48.571,146.837,48.571,147.22,48.571C147.604,48.571,147.987,48.571,148.371,48.571C148.754,48.571,149.137,48.571,149.521,48.571C149.904,48.571,150.288,48.571,150.671,48.571C151.054,48.571,151.438,48.571,151.821,48.571C152.204,48.571,152.588,48.571,152.971,48.571C153.355,48.571,153.738,48.571,154.121,48.571C154.505,48.571,154.888,48.571,155.272,48.571C155.655,48.571,156.038,48.571,156.422,48.571C156.805,48.571,157.188,48.571,157.572,48.571C157.955,48.571,158.339,48.571,158.722,48.571C159.105,48.571,159.489,48.571,159.872,48.571C160.256,48.571,160.639,48.571,161.022,48.571C161.406,48.571,161.789,48.571,162.173,48.571C162.556,48.571,162.939,48.571,163.323,48.571C163.706,48.571,164.089,48.571,164.473,48.571C164.856,48.571,165.24,48.571,165.623,48.571C166.006,48.571,166.39,48.571,166.773,48.571C167.157,48.571,167.54,48.571,167.923,48.571C168.307,48.571,168.69,48.571,169.073,48.571C169.457,48.571,169.84,48.571,170.224,48.571C170.607,48.571,170.99,48.571,171.374,48.571C171.757,48.571,172.141,48.571,172.524,48.571C172.907,48.571,173.291,48.571,173.674,48.571C174.058,48.571,174.441,48.571,174.824,48.571C175.208,48.571,175.591,48.571,175.974,48.571C176.358,48.571,176.741,48.571,177.125,48.571C177.508,48.571,177.891,48.571,178.275,48.571C178.658,48.571,179.042,48.571,179.425,48.571C179.808,48.571,180.192,48.571,180.575,48.571C180.958,48.571,181.342,48.571,181.725,48.571C182.109,48.571,182.492,48.571,182.875,48.571C183.259,48.571,183.642,48.571,184.026,48.571C184.409,48.571,184.792,48.571,185.176,48.571C185.559,48.571,185.942,48.571,186.326,48.571C186.709,48.571,187.093,48.571,187.476,48.571C187.859,48.571,188.243,48.571,188.626,48.571C189.01,48.571,189.393,48.571,189.776,48.571C190.16,48.571,190.543,48.571,190.927,48.571C191.31,48.571,191.693,48.571,192.077,48.571C192.46,48.571,192.843,48.571,193.227,48.571C193.61,48.571,193.994,48.571,194.377,48.571C194.76,48.571,195.144,48.571,195.527,48.571C195.911,48.571,196.294,48.571,196.677,48.571C197.061,48.571,197.444,48.571,197.827,48.571C198.211,48.571,198.594,48.571,198.978,48.571C199.361,48.571,199.744,48.571,200.128,48.571C200.511,48.571,200.895,48.571,201.278,48.571C201.661,48.571,202.045,48.571,202.428,48.571C202.812,48.571,203.195,48.571,203.578,48.571C203.962,48.571,204.345,48.571,204.728,48.571C205.112,48.571,205.495,48.571,205.879,48.571C206.262,48.571,206.645,48.571,207.029,48.571C207.412,48.571,207.796,48.571,208.179,48.571C208.562,48.571,208.946,48.571,209.329,48.571C209.712,48.571,210.096,48.571,210.479,48.571C210.863,48.571,211.246,48.571,211.629,48.571C212.013,48.571,212.396,48.571,212.78,48.571C213.163,48.571,213.546,48.571,213.93,48.571C214.313,48.571,214.696,48.571,215.08,48.571C215.463,48.571,215.847,48.571,216.23,48.571C216.613,48.571,216.997,48.571,217.38,48.571C217.764,48.571,218.147,48.571,218.53,48.571C218.914,48.571,219.297,48.571,219.681,48.571C220.064,48.571,220.447,48.571,220.831,48.571C221.214,48.571,221.597,48.571,221.981,48.571C222.364,48.571,222.748,48.571,223.131,48.571C223.514,48.571,223.898,48.571,224.281,48.571C224.665,48.571,225.048,48.571,225.431,48.571C225.815,48.571,226.198,48.571,226.581,48.571C226.965,48.571,227.348,48.571,227.732,48.571C228.115,48.571,228.498,48.571,228.882,48.571C229.265,48.571,229.649,48.571,230.032,48.571C230.415,48.571,230.799,48.571,231.182,48.571C231.565,48.571,231.949,48.571,232.332,48.571C232.716,48.571,233.099,48.571,233.482,48.571C233.866,48.571,234.249,48.571,234.633,48.571C235.016,48.571,235.399,48.571,235.783,48.571C236.166,48.571,236.55,48.571,236.933,48.571C237.316,48.571,237.7,48.571,238.083,48.571C238.466,48.571,238.85,48.571,239.233,48.571C239.617,48.571,240,48.571,240.383,48.571C240.767,48.571,241.15,48.571,241.534,48.571C241.917,48.571,242.3,48.571,242.684,48.571C243.067,48.571,243.45,48.571,243.834,48.571C244.217,48.571,244.601,48.571,244.984,48.571C245.367,48.571,245.751,48.571,246.134,48.571C246.518,48.571,246.901,48.571,247.284,48.571C247.668,48.571,248.051,48.571,248.435,48.571C248.818,48.571,249.201,48.571,249.585,48.571C249.968,48.571,250.351,48.571,250.735,48.571C251.118,48.571,251.502,48.571,251.885,48.571C252.268,48.571,252.652,48.571,253.035,48.571C253.419,48.571,253.802,48.571,254.185,48.571C254.569,48.571,254.952,48.571,255.335,48.571C255.719,48.571,256.102,48.571,256.486,48.571C256.869,48.571,257.252,48.571,257.636,48.571C258.019,48.571,258.403,48.571,258.786,48.571C259.169,48.571,259.553,48.571,259.936,48.571C260.319,48.571,260.703,48.571,261.086,48.571C261.47,48.571,261.853,48.571,262.236,48.571C262.62,48.571,263.003,48.571,263.387,48.571C263.77,48.571,264.153,48.571,264.537,48.571C264.92,48.571,265.304,48.571,265.687,48.571C266.07,48.571,266.454,48.571,266.837,48.571C267.22,48.571,267.604,48.571,267.987,48.571C268.371,48.571,268.754,48.571,269.137,48.571C269.521,48.571,269.904,48.571,270.288,48.571C270.671,48.571,271.054,48.571,271.438,48.571C271.821,48.571,272.204,48.571,272.588,48.571C272.971,48.571,273.355,48.571,273.738,48.571C274.121,48.571,274.505,48.571,274.888,48.571C275.272,48.571,275.655,48.571,276.038,48.571C276.422,48.571,276.805,48.571,277.188,48.571C277.572,48.571,277.955,48.571,278.339,48.571C278.722,48.571,279.105,48.571,279.489,48.571C279.872,48.571,280.256,48.571,280.639,48.571C281.022,48.571,281.406,48.571,281.789,48.571C282.173,48.571,282.556,48.571,282.939,48.571C283.323,48.571,283.706,48.571,284.089,48.571C284.473,48.571,284.856,48.571,285.24,48.571C285.623,48.571,286.006,48.571,286.39,48.571C286.773,48.571,287.157,48.571,287.54,48.571C287.923,48.571,288.307,48.571,288.69,48.571C289.073,48.571,289.457,48.571,289.84,48.571C290.224,48.571,290.607,48.571,290.99,48.571C291.374,48.571,291.757,48.571,292.141,48.571C292.524,48.571,292.907,48.571,293.291,48.571C293.674,48.571,294.058,48.571,294.441,48.571C294.824,48.571,295.208,48.571,295.591,48.571C295.974,48.571,296.358,48.571,296.741,48.571C297.125,48.571,297.508,48.571,297.891,48.571C298.275,48.571,298.658,48.571,299.042,48.571C299.425,48.571,299.808,48.571,300.192,48.571C300.575,48.571,300.958,48.571,301.342,48.571C301.725,48.571,302.109,48.571,302.492,48.571C302.875,48.571,303.259,48.571,303.642,48.571C304.026,48.571,304.409,48.571,304.792,48.571C305.176,48.571,305.559,48.571,305.942,48.571C306.326,48.571,306.709,48.571,307.093,48.571C307.476,48.571,307.859,48.571,308.243,48.571C308.626,48.571,309.01,48.571,309.393,48.571C309.776,48.571,310.16,48.571,310.543,48.571C310.927,48.571,311.31,48.571,311.693,48.571C312.077,48.571,312.46,48.571,312.843,48.571C313.227,48.571,313.61,48.571,313.994,48.571C314.377,48.571,314.76,48.571,315.144,48.571C315.527,48.571,315.911,48.571,316.294,48.571C316.677,48.571,317.061,48.571,317.444,48.571C317.827,48.571,318.211,48.571,318.594,48.571C318.978,48.571,319.361,48.571,319.744,48.571C320.128,48.571,320.511,48.571,320.895,48.571C321.278,48.571,321.661,48.571,322.045,48.571C322.428,48.571,322.812,48.571,323.195,48.571C323.578,48.571,323.962,48.571,324.345,48.571C324.728,48.571,325.112,48.571,325.495,48.571C325.879,48.571,326.262,48.571,326.645,48.571C327.029,48.571,327.412,48.571,327.796,48.571C328.179,48.571,328.562,48.571,328.946,48.571C329.329,48.571,329.712,48.571,330.096,48.571C330.479,48.571,330.863,48.571,331.246,48.571C331.629,48.571,332.013,48.571,332.396,48.571C332.78,48.571,333.163,48.571,333.546,48.571C333.93,48.571,334.313,48.571,334.696,48.571C335.08,48.571,335.463,48.571,335.847,48.571C336.23,48.571,336.613,48.571,336.997,48.571C337.38,48.571,337.764,48.571,338.147,48.571C338.53,48.571,338.914,48.571,339.297,48.571C339.681,48.571,340.064,48.571,340.447,48.571C340.831,48.571,341.214,48.571,341.597,48.571C341.981,48.571,342.364,48.571,342.748,48.571C343.131,48.571,343.514,48.571,343.898,48.571C344.281,48.571,344.665,48.571,345.048,48.571C345.431,48.571,345.815,48.571,346.198,48.571C346.581,48.571,346.965,48.571,347.348,48.571C347.732,48.571,348.115,48.571,348.498,48.571C348.882,48.571,349.265,48.571,349.649,48.571C350.032,48.571,350.415,48.571,350.799,48.571C351.182,48.571,351.565,48.571,351.949,48.571C352.332,48.571,352.716,48.571,353.099,48.571C353.482,48.571,353.866,48.571,354.249,48.571C354.633,48.571,355.016,48.571,355.399,48.571C355.783,48.571,356.166,48.571,356.55,48.571C356.933,48.571,357.316,48.571,357.7,48.571C358.083,48.571,358.466,48.571,358.85,48.571C359.233,48.571,359.617,48.571,360,48.571C360.383,48.571,360.767,48.571,361.15,48.571C361.534,48.571,361.917,48.571,362.3,48.571C362.684,48.571,363.067,48.571,363.45,48.571C363.834,48.571,364.217,48.571,364.601,48.571C364.984,48.571,365.367,48.571,365.751,48.571C366.134,48.571,366.518,48.571,366.901,48.571C367.284,48.571,367.668,48.571,368.051,48.571C368.435,48.571,368.818,48.571,369.201,48.571C369.585,48.571,369.968,48.571,370.351,48.571C370.735,48.571,371.118,48.571,371.502,48.571C371.885,48.571,372.268,48.571,372.652,48.571C373.035,48.571,373.419,48.571,373.802,48.571C374.185,48.571,374.569,48.571,374.952,48.571C375.335,48.571,375.719,48.571,376.102,48.571C376.486,48.571,376.869,48.571,377.252,48.571C377.636,48.571,378.019,48.571,378.403,48.571C378.786,48.571,379.169,48.571,379.553,48.571C379.936,48.571,380.319,48.571,380.703,48.571C381.086,48.571,381.47,48.571,381.853,48.571C382.236,48.571,382.62,48.571,383.003,48.571C383.387,48.571,383.77,48.571,384.153,48.571C384.537,48.571,384.92,48.571,385.304,48.571C385.687,48.571,386.07,48.571,386.454,48.571C386.837,48.571,387.22,48.571,387.604,48.571C387.987,48.571,388.371,48.571,388.754,48.571C389.137,48.571,389.521,48.571,389.904,48.571C390.288,48.571,390.671,48.571,391.054,48.571C391.438,48.571,391.821,48.571,392.204,48.571C392.588,48.571,392.971,48.571,393.355,48.571C393.738,48.571,394.121,48.571,394.505,48.571C394.888,48.571,395.272,48.571,395.655,48.571C396.038,48.571,396.422,48.571,396.805,48.571C397.188,48.571,397.572,48.571,397.955,48.571C398.339,48.571,398.722,48.571,399.105,48.571C399.489,48.571,399.872,48.571,400.256,48.571C400.639,48.571,401.022,48.571,401.406,48.571C401.789,48.571,402.173,48.571,402.556,48.571C402.939,48.571,403.323,48.571,403.706,48.571C404.089,48.571,404.473,48.571,404.856,48.571C405.24,48.571,405.623,48.571,406.006,48.571C406.39,48.571,406.773,48.571,407.157,48.571C407.54,48.571,407.923,48.571,408.307,48.571C408.69,48.571,409.073,48.571,409.457,48.571C409.84,48.571,410.224,48.571,410.607,48.571C410.99,48.571,411.374,48.571,411.757,48.571C412.141,48.571,412.524,48.571,412.907,48.571C413.291,48.571,413.674,48.571,414.058,48.571C414.441,48.571,414.824,48.571,415.208,48.571C415.591,48.571,415.974,48.571,416.358,48.571C416.741,48.571,417.125,48.571,417.508,48.571C417.891,48.571,418.275,48.571,418.658,48.571C419.042,48.571,419.425,48.571,419.808,48.571C420.192,48.571,420.575,48.571,420.958,48.571C421.342,48.571,421.725,48.571,422.109,48.571C422.492,48.571,422.875,48.571,423.259,48.571C423.642,48.571,424.026,48.571,424.409,48.571C424.792,48.571,425.176,48.571,425.559,48.571C425.942,48.571,426.326,48.571,426.709,48.571C427.093,48.571,427.476,48.571,427.859,48.571C428.243,48.571,428.626,48.571,429.01,48.571C429.393,48.571,429.776,48.571,430.16,48.571C430.543,48.571,430.927,48.571,431.31,48.571C431.693,48.571,432.077,48.571,432.46,48.571C432.843,48.571,433.227,48.571,433.61,48.571C433.994,48.571,434.377,48.571,434.76,48.571C435.144,48.571,435.527,48.571,435.911,48.571C436.294,48.571,436.677,48.571,437.061,48.571C437.444,48.571,437.827,48.571,438.211,48.571C438.594,48.571,438.978,48.571,439.361,48.571C439.744,48.571,440.128,48.571,440.511,48.571C440.895,48.571,441.278,48.571,441.661,48.571C442.045,48.571,442.428,48.571,442.812,48.571C443.195,48.571,443.578,48.571,443.962,48.571C444.345,48.571,444.728,48.571,445.112,48.571C445.495,48.571,445.879,48.571,446.262,48.571C446.645,48.571,447.029,48.571,447.412,48.571C447.796,48.571,448.179,48.571,448.562,48.571C448.946,48.571,449.329,48.571,449.712,48.571C450.096,48.571,450.479,48.571,450.863,48.571C451.246,48.571,451.629,48.571,452.013,48.571C452.396,48.571,452.78,48.571,453.163,48.571C453.546,48.571,453.93,48.571,454.313,48.571C454.696,48.571,455.08,48.571,455.463,48.571C455.847,48.571,456.23,48.571,456.613,48.571C456.997,48.571,457.38,48.571,457.764,48.571C458.147,48.571,458.53,48.571,458.914,48.571C459.297,48.571,459.681,48.571,460.064,48.571C460.447,48.571,460.831,48.571,461.214,48.571C461.597,48.571,461.981,48.571,462.364,48.571C462.748,48.571,463.131,48.571,463.514,48.571C463.898,48.571,464.281,48.571,464.665,48.571C465.048,48.571,465.431,48.571,465.815,48.571C466.198,48.571,466.581,48.571,466.965,48.571C467.348,48.571,467.732,48.571,468.115,48.571C468.498,48.571,468.882,48.571,469.265,48.571C469.649,48.571,470.032,48.571,470.415,48.571C470.799,48.571,471.182,48.571,471.565,48.571C471.949,48.571,472.332,48.571,472.716,48.571C473.099,48.571,473.482,48.571,473.866,48.571C474.249,48.571,474.633,48.571,475.016,48.571C475.399,48.571,475.783,48.571,476.166,48.571C476.55,48.571,476.933,48.571,477.316,48.571C477.7,48.571,478.083,340,478.466,340C478.85,340,479.233,340,479.617,340C480,340,480.383,340,480.767,340C481.15,340,481.534,340,481.917,340C482.3,340,482.684,340,483.067,340C483.45,340,483.834,340,484.217,340C484.601,340,484.984,340,485.367,340C485.751,340,486.134,340,486.518,340C486.901,340,487.284,340,487.668,340C488.051,340,488.435,340,488.818,340C489.201,340,489.585,340,489.968,340C490.351,340,490.735,340,491.118,340C491.502,340,491.885,340,492.268,340C492.652,340,493.035,340,493.419,340C493.802,340,494.185,340,494.569,340C494.952,340,495.335,340,495.719,340C496.102,340,496.486,340,496.869,340C497.252,340,497.636,340,498.019,340C498.403,340,498.786,340,499.169,340C499.553,340,499.936,340,500.319,340C500.703,340,501.086,340,501.47,340C501.853,340,502.236,340,502.62,340C503.003,340,503.387,340,503.77,340C504.153,340,504.537,340,504.92,340C505.304,340,505.687,340,506.07,340C506.454,340,506.837,340,507.22,340C507.604,340,507.987,340,508.371,340C508.754,340,509.137,340,509.521,340C509.904,340,510.288,340,510.671,340C511.054,340,511.438,340,511.821,340C512.204,340,512.588,340,512.971,340C513.355,340,513.738,340,514.121,340C514.505,340,514.888,340,515.272,340C515.655,340,516.038,340,516.422,340C516.805,340,517.188,340,517.572,340C517.955,340,518.339,340,518.722,340C519.105,340,519.489,340,519.872,340C520.256,340,520.639,340,521.022,340C521.406,340,521.789,340,522.173,340C522.556,340,522.939,340,523.323,340C523.706,340,524.089,340,524.473,340C524.856,340,525.24,340,525.623,340C526.006,340,526.39,340,526.773,340C527.157,340,527.54,340,527.923,340C528.307,340,528.69,340,529.073,340C529.457,340,529.84,340,530.224,340C530.607,340,530.99,340,531.374,340C531.757,340,532.141,340,532.524,340C532.907,340,533.291,340,533.674,340C534.058,340,534.441,340,534.824,340C535.208,340,535.591,340,535.974,340C536.358,340,536.741,340,537.125,340C537.508,340,537.891,340,538.275,340C538.658,340,539.042,340,539.425,340C539.808,340,540.192,340,540.575,340C540.958,340,541.342,340,541.725,340C542.109,340,542.492,340,542.875,340C543.259,340,543.642,340,544.026,340C544.409,340,544.792,340,545.176,340C545.559,340,545.942,340,546.326,340C546.709,340,547.093,340,547.476,340C547.859,340,548.243,340,548.626,340C549.01,340,549.393,340,549.776,340C550.16,340,550.543,340,550.927,340C551.31,340,551.693,340,552.077,340C552.46,340,552.843,340,553.227,340C553.61,340,553.994,340,554.377,340C554.76,340,555.144,340,555.527,340C555.911,340,556.294,340,556.677,340C557.061,340,557.444,340,557.827,340C558.211,340,558.594,340,558.978,340C559.361,340,559.744,340,560.128,340C560.511,340,560.895,340,561.278,340C561.661,340,562.045,340,562.428,340C562.812,340,563.195,340,563.578,340C563.962,340,564.345,340,564.728,340C565.112,340,565.495,340,565.879,340C566.262,340,566.645,340,567.029,340C567.412,340,567.796,340,568.179,340C568.562,340,568.946,340,569.329,340C569.712,340,570.096,340,570.479,340C570.863,340,571.246,340,571.629,340C572.013,340,572.396,340,572.78,340C573.163,340,573.546,340,573.93,340C574.313,340,574.696,340,575.08,340C575.463,340,575.847,340,576.23,340C576.613,340,576.997,340,577.38,340C577.764,340,578.147,340,578.53,340C578.914,340,579.297,340,579.681,340C580.064,340,580.447,340,580.831,340C581.214,340,581.597,340,581.981,340C582.364,340,582.748,340,583.131,340C583.514,340,583.898,340,584.281,340C584.665,340,585.048,340,585.431,340C585.815,340,586.198,340,586.581,340C586.965,340,587.348,340,587.732,340C588.115,340,588.498,340,588.882,340C589.265,340,589.649,340,590.032,340C590.415,340,590.799,340,591.182,340C591.565,340,591.949,340,592.332,340C592.716,340,593.099,340,593.482,340C593.866,340,594.249,340,594.633,340C595.016,340,595.399,340,595.783,340C596.166,340,596.55,340,596.933,340C597.316,340,597.7,340,598.083,340C598.466,340,598.85,340,599.233,340C599.617,340,600,340,600.383,340C600.767,340,601.15,340,601.534,340C601.917,340,602.3,340,602.684,340C603.067,340,603.45,340,603.834,340C604.217,340,604.601,340,604.984,340C605.367,340,605.751,340,606.134,340C606.518,340,606.901,340,607.284,340C607.668,340,608.051,340,608.435,340C608.818,340,609.201,340,609.585,340C609.968,340,610.351,340,610.735,340C611.118,340,611.502,340,611.885,340C612.268,340,612.652,340,613.035,340C613.419,340,613.802,340,614.185,340C614.569,340,614.952,340,615.335,340C615.719,340,616.102,340,616.486,340C616.869,340,617.252,340,617.636,340C618.019,340,618.403,340,618.786,340C619.169,340,619.553,340,619.936,340C620.319,340,620.703,340,621.086,340C621.47,340,621.853,340,622.236,340C622.62,340,623.003,340,623.387,340C623.77,340,624.153,340,624.537,340C624.92,340,625.304,340,625.687,340C626.07,340,626.454,340,626.837,340C627.22,340,627.604,340,627.987,340C628.371,340,628.754,340,629.137,340C629.521,340,629.904,340,630.288,340C630.671,340,631.054,340,631.438,340C631.821,340,632.204,340,632.588,340C632.971,340,633.355,340,633.738,340C634.121,340,634.505,340,634.888,340C635.272,340,635.655,340,636.038,340C636.422,340,636.805,340,637.188,340C637.572,340,637.955,340,638.339,340C638.722,340,639.105,340,639.489,340C639.872,340,640.256,340,640.639,340C641.022,340,641.406,340,641.789,340C642.173,340,642.556,340,642.939,340C643.323,340,643.706,340,644.089,340C644.473,340,644.856,340,645.24,340C645.623,340,646.006,340,646.39,340C646.773,340,647.157,340,647.54,340C647.923,340,648.307,340,648.69,340C649.073,340,649.457,340,649.84,340C650.224,340,650.607,340,650.99,340C651.374,340,651.757,340,652.141,340C652.524,340,652.907,340,653.291,340C653.674,340,654.058,340,654.441,340C654.824,340,655.208,340,655.591,340C655.974,340,656.358,340,656.741,340C657.125,340,657.508,340,657.891,340C658.275,340,658.658,340,659.042,340C659.425,340,659.808,340,660.192,340C660.575,340,660.958,340,661.342,340C661.725,340,662.109,340,662.492,340C662.875,340,663.259,340,663.642,340C664.026,340,664.409,340,664.792,340C665.176,340,665.559,340,665.942,340C666.326,340,666.709,340,667.093,340C667.476,340,667.859,340,668.243,340C668.626,340,669.01,340,669.393,340C669.776,340,670.16,340,670.543,340C670.927,340,671.31,340,671.693,340C672.077,340,672.46,340,672.843,340C673.227,340,673.61,340,673.994,340C674.377,340,674.76,340,675.144,340C675.527,340,675.911,340,676.294,340C676.677,340,677.061,340,677.444,340C677.827,340,678.211,340,678.594,340C678.978,340,679.361,340,679.744,340C680.128,340,680.511,340,680.895,340C681.278,340,681.661,340,682.045,340C682.428,340,682.812,340,683.195,340C683.578,340,683.962,340,684.345,340C684.728,340,685.112,340,685.495,340C685.879,340,686.262,340,686.645,340C687.029,340,687.412,340,687.796,340C688.179,340,688.562,340,688.946,340C689.329,340,689.712,340,690.096,340C690.479,340,690.863,340,691.246,340C691.629,340,692.013,340,692.396,340C692.78,340,693.163,340,693.546,340C693.93,340,694.313,340,694.696,340C695.08,340,695.463,340,695.847,340C696.23,340,696.613,340,696.997,340C697.38,340,697.764,340,698.147,340C698.53,340,698.914,340,699.297,340C699.681,340,700.064,340,700.447,340C700.831,340,701.214,340,701.597,340C701.981,340,702.364,340,702.748,340C703.131,340,703.514,340,703.898,340C704.281,340,704.665,340,705.048,340C705.431,340,705.815,340,706.198,340C706.581,340,706.965,340,707.348,340C707.732,340,708.115,340,708.498,340C708.882,340,709.265,340,709.649,340C710.032,340,710.415,340,710.799,340C711.182,340,711.565,340,711.949,340C712.332,340,712.716,340,713.099,340C713.482,340,713.866,340,714.249,340C714.633,340,715.016,340,715.399,340C715.783,340,716.166,340,716.55,340C716.933,340,717.316,340,717.7,340C718.083,340,718.466,340,718.85,340C719.233,340,719.617,340,720,340"></path><circle class="dot" cx="0" cy="48.57142857142799" r="3" fill="#2563eb"></circle><circle class="dot" cx="1.1501597444089455" cy="48.57142857142799" r="3" fill="#2563eb"></circle><circle class="dot" cx="2.300319488817891" cy="48.57142857142799" r="3" fill="#2563eb"></circle><circle class="dot" cx="3.450479233226837" cy="48.57142857142799" r="3" fill="#2563eb"></circle><circle class="dot" cx="4.600638977635782" cy="48.57142857142799" r="3" fill="#2563eb"></circle><circle class="dot" cx="5.7507987220447285" cy="48.57142857142799" r="3" fill="#2563eb"></circle><circle class="dot" cx="6.900958466453674" cy="48.57142857142799" r="3" fill="#2563eb"></circle><circle class="dot" cx="8.051118210862619" cy="48.57142857142799" r="3" fill="#2563eb"></circle><circle class="dot" cx="9.201277955271564" cy="48.57142857142799" r="3" fill="#2563eb"></circle><circle class="dot" cx="10.351437699680512" cy="48.57142857142799" r="3" fill="#2563eb"></circle><circle class="dot" cx="11.501597444089457" cy="48.57142857142799" r="3" fill="#2563eb"></circle><circle class="dot" cx="12.651757188498403" cy="48.57142857142799" r="3" fill="#2563eb"></circle><circle class="dot" cx="13.801916932907348" cy="48.57142857142799" r="3" fill="#2563eb"></circle><circle class="dot" cx="14.952076677316294" cy="48.57142857142799" r="3" fill="#2563eb"></circle><circle class="dot" cx="16.102236421725237" cy="48.57142857142799" r="3" fill="#2563eb"></circle><circle class="dot" cx="17.252396166134183" cy="48.57142857142799" r="3" fill="#2563eb"></circle><circle class="dot" cx="18.40255591054313" cy="48.57142857142799" r="3" fill="#2563eb"></circle><circle class="dot" cx="19.552715654952078" cy="48.57142857142799" r="3" fill="#2563eb"></circle><circle class="dot" cx="20.702875399361023" cy="48.57142857142799" r="3" fill="#2563eb"></circle><circle class="dot" cx="21.85303514376997" cy="48.57142857142799" r="3" fill="#2563eb"></circle><circle class="dot" cx="23.003194888178914" cy="48.57142857142799" r="3" fill="#2563eb"></circle><circle class="dot" cx="24.15335463258786" cy="48.57142857142799" r="3" fill="#2563eb"></circle><circle class="dot" cx="25.303514376996805" cy="48.57142857142799" r="3" fill="#2563eb"></circle><circle class="dot" cx="26.45367412140575" cy="48.57142857142799" r="3" fill="#2563eb"></circle><circle class="dot" cx="27.603833865814696" cy="48.57142857142799" r="3" fill="#2563eb"></circle><circle class="dot" cx="28.75399361022364" cy="48.57142857142799" r="3" fill="#2563eb"></circle><circle class="dot" cx="29.904153354632587" cy="48.57142857142799" r="3" fill="#2563eb"></circle><circle class="dot" cx="31.054313099041533" cy="48.57142857142799" r="3" fill="#2563eb"></circle><circle class="dot" cx="32.204472843450475" cy="48.57142857142799" r="3" fill="#2563eb"></circle><circle class="dot" cx="33.35463258785942" cy="48.57142857142799" r="3" fill="#2563eb"></circle><circle class="dot" cx="34.504792332268366" cy="48.57142857142799" r="3" fill="#2563eb"></circle><circle class="dot" cx="35.65495207667731" cy="48.57142857142799" r="3" fill="#2563eb"></circle><circle class="dot" cx="36.80511182108626" cy="48.57142857142799" r="3" fill="#2563eb"></circle><circle class="dot" cx="37.95527156549521" cy="48.57142857142799" r="3" fill="#2563eb"></circle><circle class="dot" cx="39.105431309904155" cy="48.57142857142799" r="3" fill="#2563eb"></circle><circle class="dot" cx="40.2555910543131" cy="48.57142857142799" r="3" fill="#2563eb"></circle><circle class="dot" cx="41.405750798722046" cy="48.57142857142799" r="3" fill="#2563eb"></circle><circle class="dot" cx="42.55591054313099" cy="48.57142857142799" r="3" fill="#2563eb"></circle><circle class="dot" cx="43.70607028753994" cy="48.57142857142799" r="3" fill="#2563eb"></circle><circle class="dot" cx="44.85623003194888" cy="48.57142857142799" r="3" fill="#2563eb"></circle><circle class="dot" cx="46.00638977635783" cy="48.57142857142799" r="3" fill="#2563eb"></circle><circle class="dot" cx="47.156549520766774" cy="48.57142857142799" r="3" fill="#2563eb"></circle><circle class="dot" cx="48.30670926517572" cy="48.57142857142799" r="3" fill="#2563eb"></circle><circle class="dot" cx="49.456869009584665" cy="48.57142857142799" r="3" fill="#2563eb"></circle><circle class="dot" cx="50.60702875399361" cy="48.57142857142799" r="3" fill="#2563eb"></circle><circle class="dot" cx="51.757188498402556" cy="48.57142857142799" r="3" fill="#2563eb"></circle><circle class="dot" cx="52.9073482428115" cy="48.57142857142799" r="3" fill="#2563eb"></circle><circle class="dot" cx="54.05750798722045" cy="48.57142857142799" r="3" fill="#2563eb"></circle><circle class="dot" cx="55.20766773162939" cy="48.57142857142799" r="3" fill="#2563eb"></circle><circle class="dot" cx="56.35782747603834" cy="48.57142857142799" r="3" fill="#2563eb"></circle><circle class="dot" cx="57.50798722044728" cy="48.57142857142799" r="3" fill="#2563eb"></circle><circle class="dot" cx="58.65814696485623" cy="48.57142857142799" r="3" fill="#2563eb"></circle><circle class="dot" cx="59.808306709265175" cy="48.57142857142799" r="3" fill="#2563eb"></circle><circle class="dot" cx="60.95846645367413" cy="48.57142857142799" r="3" fill="#2563eb"></circle><circle class="dot" cx="62.108626198083066" cy="48.57142857142799" r="3" fill="#2563eb"></circle><circle class="dot" cx="63.25878594249202" cy="48.57142857142799" r="3" fill="#2563eb"></circle><circle class="dot" cx="64.40894568690095" cy="48.57142857142799" r="3" fill="#2563eb"></circle><circle class="dot" cx="65.5591054313099" cy="48.57142857142799" r="3" fill="#2563eb"></circle><circle class="dot" cx="66.70926517571884" cy="48.57142857142799" r="3" fill="#2563eb"></circle><circle class="dot" cx="67.8594249201278" cy="48.57142857142799" r="3" fill="#2563eb"></circle><circle class="dot" cx="69.00958466453673" cy="48.57142857142799" r="3" fill="#2563eb"></circle><circle class="dot" cx="70.15974440894568" cy="48.57142857142799" r="3" fill="#2563eb"></circle><circle class="dot" cx="71.30990415335462" cy="48.57142857142799" r="3" fill="#2563eb"></circle><circle class="dot" cx="72.46006389776358" cy="48.57142857142799" r="3" fill="#2563eb"></circle><circle class="dot" cx="73.61022364217251" cy="48.57142857142799" r="3" fill="#2563eb"></circle><circle class="dot" cx="74.76038338658147" cy="48.57142857142799" r="3" fill="#2563eb"></circle><circle class="dot" cx="75.91054313099042" cy="48.57142857142799" r="3" fill="#2563eb"></circle><circle class="dot" cx="77.06070287539936" cy="48.57142857142799" r="3" fill="#2563eb"></circle><circle class="dot" cx="78.21086261980831" cy="48.57142857142799" r="3" fill="#2563eb"></circle><circle class="dot" cx="79.36102236421725" cy="48.57142857142799" r="3" fill="#2563eb"></circle><circle class="dot" cx="80.5111821086262" cy="48.57142857142799" r="3" fill="#2563eb"></circle><circle class="dot" cx="81.66134185303514" cy="48.57142857142799" r="3" fill="#2563eb"></circle><circle class="dot" cx="82.81150159744409" cy="48.57142857142799" r="3" fill="#2563eb"></circle><circle class="dot" cx="83.96166134185303" cy="48.57142857142799" r="3" fill="#2563eb"></circle><circle class="dot" cx="85.11182108626198" cy="48.57142857142799" r="3" fill="#2563eb"></circle><circle class="dot" cx="86.26198083067092" cy="48.57142857142799" r="3" fill="#2563eb"></circle><circle class="dot" cx="87.41214057507987" cy="48.57142857142799" r="3" fill="#2563eb"></circle><circle class="dot" cx="88.56230031948881" cy="48.57142857142799" r="3" fill="#2563eb"></circle><circle class="dot" cx="89.71246006389777" cy="48.57142857142799" r="3" fill="#2563eb"></circle><circle class="dot" cx="90.8626198083067" cy="48.57142857142799" r="3" fill="#2563eb"></circle><circle class="dot" cx="92.01277955271566" cy="48.57142857142799" r="3" fill="#2563eb"></circle><circle class="dot" cx="93.1629392971246" cy="48.57142857142799" r="3" fill="#2563eb"></circle><circle class="dot" cx="94.31309904153355" cy="48.57142857142799" r="3" fill="#2563eb"></circle><circle class="dot" cx="95.46325878594249" cy="48.57142857142799" r="3" fill="#2563eb"></circle><circle class="dot" cx="96.61341853035144" cy="48.57142857142799" r="3" fill="#2563eb"></circle><circle class="dot" cx="97.76357827476038" cy="48.57142857142799" r="3" fill="#2563eb"></circle><circle class="dot" cx="98.91373801916933" cy="48.57142857142799" r="3" fill="#2563eb"></circle><circle class="dot" cx="100.06389776357828" cy="48.57142857142799" r="3" fill="#2563eb"></circle><circle class="dot" cx="101.21405750798722" cy="48.57142857142799" r="3" fill="#2563eb"></circle><circle class="dot" cx="102.36421725239616" cy="48.57142857142799" r="3" fill="#2563eb"></circle><circle class="dot" cx="103.51437699680511" cy="48.57142857142799" r="3" fill="#2563eb"></circle><circle class="dot" cx="104.66453674121406" cy="48.57142857142799" r="3" fill="#2563eb"></circle><circle class="dot" cx="105.814696485623" cy="48.57142857142799" r="3" fill="#2563eb"></circle><circle class="dot" cx="106.96485623003194" cy="48.57142857142799" r="3" fill="#2563eb"></circle><circle class="dot" cx="108.1150159744409" cy="48.57142857142799" r="3" fill="#2563eb"></circle><circle class="dot" cx="109.26517571884985" cy="48.57142857142799" r="3" fill="#2563eb"></circle><circle class="dot" cx="110.41533546325878" cy="48.57142857142799" r="3" fill="#2563eb"></circle><circle class="dot" cx="111.56549520766772" cy="48.57142857142799" r="3" fill="#2563eb"></circle><circle class="dot" cx="112.71565495207668" cy="48.57142857142799" r="3" fill="#2563eb"></circle><circle class="dot" cx="113.86581469648563" cy="48.57142857142799" r="3" fill="#2563eb"></circle><circle class="dot" cx="115.01597444089457" cy="48.57142857142799" r="3" fill="#2563eb"></circle><circle class="dot" cx="116.1661341853035" cy="48.57142857142799" r="3" fill="#2563eb"></circle><circle class="dot" cx="117.31629392971246" cy="48.57142857142799" r="3" fill="#2563eb"></circle><circle class="dot" cx="118.46645367412141" cy="48.57142857142799" r="3" fill="#2563eb"></circle><circle class="dot" cx="119.61661341853035" cy="48.57142857142799" r="3" fill="#2563eb"></circle><circle class="dot" cx="120.7667731629393" cy="48.57142857142799" r="3" fill="#2563eb"></circle><circle class="dot" cx="121.91693290734825" cy="48.57142857142799" r="3" fill="#2563eb"></circle><circle class="dot" cx="123.06709265175719" cy="48.57142857142799" r="3" fill="#2563eb"></circle><circle class="dot" cx="124.21725239616613" cy="48.57142857142799" r="3" fill="#2563eb"></circle><circle class="dot" cx="125.36741214057508" cy="48.57142857142799" r="3" fill="#2563eb"></circle><circle class="dot" cx="126.51757188498404" cy="48.57142857142799" r="3" fill="#2563eb"></circle><circle class="dot" cx="127.66773162939297" cy="48.57142857142799" r="3" fill="#2563eb"></circle><circle class="dot" cx="128.8178913738019" cy="48.57142857142799" r="3" fill="#2563eb"></circle><circle class="dot" cx="129.96805111821087" cy="48.57142857142799" r="3" fill="#2563eb"></circle><circle class="dot" cx="131.1182108626198" cy="48.57142857142799" r="3" fill="#2563eb"></circle><circle class="dot" cx="132.26837060702874" cy="48.57142857142799" r="3" fill="#2563eb"></circle><circle class="dot" cx="133.41853035143768" cy="48.57142857142799" r="3" fill="#2563eb"></circle><circle class="dot" cx="134.56869009584665" cy="48.57142857142799" r="3" fill="#2563eb"></circle><circle class="dot" cx="135.7188498402556" cy="48.57142857142799" r="3" fill="#2563eb"></circle><circle class="dot" cx="136.86900958466452" cy="48.57142857142799" r="3" fill="#2563eb"></circle><circle class="dot" cx="138.01916932907346" cy="48.57142857142799" r="3" fill="#2563eb"></circle><circle class="dot" cx="139.16932907348243" cy="48.57142857142799" r="3" fill="#2563eb"></circle><circle class="dot" cx="140.31948881789137" cy="48.57142857142799" r="3" fill="#2563eb"></circle><circle class="dot" cx="141.4696485623003" cy="48.57142857142799" r="3" fill="#2563eb"></circle><circle class="dot" cx="142.61980830670925" cy="48.57142857142799" r="3" fill="#2563eb"></circle><circle class="dot" cx="143.7699680511182" cy="48.57142857142799" r="3" fill="#2563eb"></circle><circle class="dot" cx="144.92012779552715" cy="48.57142857142799" r="3" fill="#2563eb"></circle><circle class="dot" cx="146.0702875399361" cy="48.57142857142799" r="3" fill="#2563eb"></circle><circle class="dot" cx="147.22044728434503" cy="48.57142857142799" r="3" fill="#2563eb"></circle><circle class="dot" cx="148.370607028754" cy="48.57142857142799" r="3" fill="#2563eb"></circle><circle class="dot" cx="149.52076677316293" cy="48.57142857142799" r="3" fill="#2563eb"></circle><circle class="dot" cx="150.67092651757187" cy="48.57142857142799" r="3" fill="#2563eb"></circle><circle class="dot" cx="151.82108626198084" cy="48.57142857142799" r="3" fill="#2563eb"></circle><circle class="dot" cx="152.97124600638978" cy="48.57142857142799" r="3" fill="#2563eb"></circle><circle class="dot" cx="154.12140575079871" cy="48.57142857142799" r="3" fill="#2563eb"></circle><circle class="dot" cx="155.27156549520765" cy="48.57142857142799" r="3" fill="#2563eb"></circle><circle class="dot" cx="156.42172523961662" cy="48.57142857142799" r="3" fill="#2563eb"></circle><circle class="dot" cx="157.57188498402556" cy="48.57142857142799" r="3" fill="#2563eb"></circle><circle class="dot" cx="158.7220447284345" cy="48.57142857142799" r="3" fill="#2563eb"></circle><circle class="dot" cx="159.87220447284344" cy="48.57142857142799" r="3" fill="#2563eb"></circle><circle class="dot" cx="161.0223642172524" cy="48.57142857142799" r="3" fill="#2563eb"></circle><circle class="dot" cx="162.17252396166134" cy="48.57142857142799" r="3" fill="#2563eb"></circle><circle class="dot" cx="163.32268370607028" cy="48.57142857142799" r="3" fill="#2563eb"></circle><circle class="dot" cx="164.47284345047922" cy="48.57142857142799" r="3" fill="#2563eb"></circle><circle class="dot" cx="165.62300319488818" cy="48.57142857142799" r="3" fill="#2563eb"></circle><circle class="dot" cx="166.77316293929712" cy="48.57142857142799" r="3" fill="#2563eb"></circle><circle class="dot" cx="167.92332268370606" cy="48.57142857142799" r="3" fill="#2563eb"></circle><circle class="dot" cx="169.07348242811503" cy="48.57142857142799" r="3" fill="#2563eb"></circle><circle class="dot" cx="170.22364217252397" cy="48.57142857142799" r="3" fill="#2563eb"></circle><circle class="dot" cx="171.3738019169329" cy="48.57142857142799" r="3" fill="#2563eb"></circle><circle class="dot" cx="172.52396166134184" cy="48.57142857142799" r="3" fill="#2563eb"></circle><circle class="dot" cx="173.6741214057508" cy="48.57142857142799" r="3" fill="#2563eb"></circle><circle class="dot" cx="174.82428115015975" cy="48.57142857142799" r="3" fill="#2563eb"></circle><circle class="dot" cx="175.9744408945687" cy="48.57142857142799" r="3" fill="#2563eb"></circle><circle class="dot" cx="177.12460063897763" cy="48.57142857142799" r="3" fill="#2563eb"></circle><circle class="dot" cx="178.2747603833866" cy="48.57142857142799" r="3" fill="#2563eb"></circle><circle class="dot" cx="179.42492012779553" cy="48.57142857142799" r="3" fill="#2563eb"></circle><circle class="dot" cx="180.57507987220447" cy="48.57142857142799" r="3" fill="#2563eb"></circle><circle class="dot" cx="181.7252396166134" cy="48.57142857142799" r="3" fill="#2563eb"></circle><circle class="dot" cx="182.87539936102237" cy="48.57142857142799" r="3" fill="#2563eb"></circle><circle class="dot" cx="184.0255591054313" cy="48.57142857142799" r="3" fill="#2563eb"></circle><circle class="dot" cx="185.17571884984025" cy="48.57142857142799" r="3" fill="#2563eb"></circle><circle class="dot" cx="186.3258785942492" cy="48.57142857142799" r="3" fill="#2563eb"></circle><circle class="dot" cx="187.47603833865816" cy="48.57142857142799" r="3" fill="#2563eb"></circle><circle class="dot" cx="188.6261980830671" cy="48.57142857142799" r="3" fill="#2563eb"></circle><circle class="dot" cx="189.77635782747603" cy="48.57142857142799" r="3" fill="#2563eb"></circle><circle class="dot" cx="190.92651757188497" cy="48.57142857142799" r="3" fill="#2563eb"></circle><circle class="dot" cx="192.07667731629394" cy="48.57142857142799" r="3" fill="#2563eb"></circle><circle class="dot" cx="193.22683706070288" cy="48.57142857142799" r="3" fill="#2563eb"></circle><circle class="dot" cx="194.37699680511182" cy="48.57142857142799" r="3" fill="#2563eb"></circle><circle class="dot" cx="195.52715654952075" cy="48.57142857142799" r="3" fill="#2563eb"></circle><circle class="dot" cx="196.67731629392972" cy="48.57142857142799" r="3" fill="#2563eb"></circle><circle class="dot" cx="197.82747603833866" cy="48.57142857142799" r="3" fill="#2563eb"></circle><circle class="dot" cx="198.9776357827476" cy="48.57142857142799" r="3" fill="#2563eb"></circle><circle class="dot" cx="200.12779552715656" cy="48.57142857142799" r="3" fill="#2563eb"></circle><circle class="dot" cx="201.2779552715655" cy="48.57142857142799" r="3" fill="#2563eb"></circle><circle class="dot" cx="202.42811501597444" cy="48.57142857142799" r="3" fill="#2563eb"></circle><circle class="dot" cx="203.57827476038338" cy="48.57142857142799" r="3" fill="#2563eb"></circle><circle class="dot" cx="204.72843450479232" cy="48.57142857142799" r="3" fill="#2563eb"></circle><circle class="dot" cx="205.87859424920129" cy="48.57142857142799" r="3" fill="#2563eb"></circle><circle class="dot" cx="207.02875399361022" cy="48.57142857142799" r="3" fill="#2563eb"></circle><circle class="dot" cx="208.17891373801916" cy="48.57142857142799" r="3" fill="#2563eb"></circle><circle class="dot" cx="209.32907348242813" cy="48.57142857142799" r="3" fill="#2563eb"></circle><circle class="dot" cx="210.47923322683707" cy="48.57142857142799" r="3" fill="#2563eb"></circle><circle class="dot" cx="211.629392971246" cy="48.57142857142799" r="3" fill="#2563eb"></circle><circle class="dot" cx="212.77955271565497" cy="48.57142857142799" r="3" fill="#2563eb"></circle><circle class="dot" cx="213.92971246006388" cy="48.57142857142799" r="3" fill="#2563eb"></circle><circle class="dot" cx="215.07987220447285" cy="48.57142857142799" r="3" fill="#2563eb"></circle><circle class="dot" cx="216.2300319488818" cy="48.57142857142799" r="3" fill="#2563eb"></circle><circle class="dot" cx="217.38019169329073" cy="48.57142857142799" r="3" fill="#2563eb"></circle><circle class="dot" cx="218.5303514376997" cy="48.57142857142799" r="3" fill="#2563eb"></circle><circle class="dot" cx="219.68051118210863" cy="48.57142857142799" r="3" fill="#2563eb"></circle><circle class="dot" cx="220.83067092651757" cy="48.57142857142799" r="3" fill="#2563eb"></circle><circle class="dot" cx="221.98083067092654" cy="48.57142857142799" r="3" fill="#2563eb"></circle><circle class="dot" cx="223.13099041533545" cy="48.57142857142799" r="3" fill="#2563eb"></circle><circle class="dot" cx="224.2811501597444" cy="48.57142857142799" r="3" fill="#2563eb"></circle><circle class="dot" cx="225.43130990415335" cy="48.57142857142799" r="3" fill="#2563eb"></circle><circle class="dot" cx="226.5814696485623" cy="48.57142857142799" r="3" fill="#2563eb"></circle><circle class="dot" cx="227.73162939297126" cy="48.57142857142799" r="3" fill="#2563eb"></circle><circle class="dot" cx="228.8817891373802" cy="48.57142857142799" r="3" fill="#2563eb"></circle><circle class="dot" cx="230.03194888178913" cy="48.57142857142799" r="3" fill="#2563eb"></circle><circle class="dot" cx="231.1821086261981" cy="48.57142857142799" r="3" fill="#2563eb"></circle><circle class="dot" cx="232.332268370607" cy="48.57142857142799" r="3" fill="#2563eb"></circle><circle class="dot" cx="233.48242811501598" cy="48.57142857142799" r="3" fill="#2563eb"></circle><circle class="dot" cx="234.63258785942492" cy="48.57142857142799" r="3" fill="#2563eb"></circle><circle class="dot" cx="235.78274760383385" cy="48.57142857142799" r="3" fill="#2563eb"></circle><circle class="dot" cx="236.93290734824282" cy="48.57142857142799" r="3" fill="#2563eb"></circle><circle class="dot" cx="238.08306709265176" cy="48.57142857142799" r="3" fill="#2563eb"></circle><circle class="dot" cx="239.2332268370607" cy="48.57142857142799" r="3" fill="#2563eb"></circle><circle class="dot" cx="240.38338658146967" cy="48.57142857142799" r="3" fill="#2563eb"></circle><circle class="dot" cx="241.5335463258786" cy="48.57142857142799" r="3" fill="#2563eb"></circle><circle class="dot" cx="242.68370607028754" cy="48.57142857142799" r="3" fill="#2563eb"></circle><circle class="dot" cx="243.8338658146965" cy="48.57142857142799" r="3" fill="#2563eb"></circle><circle class="dot" cx="244.98402555910542" cy="48.57142857142799" r="3" fill="#2563eb"></circle><circle class="dot" cx="246.13418530351439" cy="48.57142857142799" r="3" fill="#2563eb"></circle><circle class="dot" cx="247.28434504792332" cy="48.57142857142799" r="3" fill="#2563eb"></circle><circle class="dot" cx="248.43450479233226" cy="48.57142857142799" r="3" fill="#2563eb"></circle><circle class="dot" cx="249.58466453674123" cy="48.57142857142799" r="3" fill="#2563eb"></circle><circle class="dot" cx="250.73482428115017" cy="48.57142857142799" r="3" fill="#2563eb"></circle><circle class="dot" cx="251.8849840255591" cy="48.57142857142799" r="3" fill="#2563eb"></circle><circle class="dot" cx="253.03514376996807" cy="48.57142857142799" r="3" fill="#2563eb"></circle><circle class="dot" cx="254.18530351437698" cy="48.57142857142799" r="3" fill="#2563eb"></circle><circle class="dot" cx="255.33546325878595" cy="48.57142857142799" r="3" fill="#2563eb"></circle><circle class="dot" cx="256.4856230031949" cy="48.57142857142799" r="3" fill="#2563eb"></circle><circle class="dot" cx="257.6357827476038" cy="48.57142857142799" r="3" fill="#2563eb"></circle><circle class="dot" cx="258.7859424920128" cy="48.57142857142799" r="3" fill="#2563eb"></circle><circle class="dot" cx="259.93610223642173" cy="48.57142857142799" r="3" fill="#2563eb"></circle><circle class="dot" cx="261.08626198083067" cy="48.57142857142799" r="3" fill="#2563eb"></circle><circle class="dot" cx="262.2364217252396" cy="48.57142857142799" r="3" fill="#2563eb"></circle><circle class="dot" cx="263.38658146964855" cy="48.57142857142799" r="3" fill="#2563eb"></circle><circle class="dot" cx="264.5367412140575" cy="48.57142857142799" r="3" fill="#2563eb"></circle><circle class="dot" cx="265.6869009584665" cy="48.57142857142799" r="3" fill="#2563eb"></circle><circle class="dot" cx="266.83706070287536" cy="48.57142857142799" r="3" fill="#2563eb"></circle><circle class="dot" cx="267.98722044728436" cy="48.57142857142799" r="3" fill="#2563eb"></circle><circle class="dot" cx="269.1373801916933" cy="48.57142857142799" r="3" fill="#2563eb"></circle><circle class="dot" cx="270.28753993610223" cy="48.57142857142799" r="3" fill="#2563eb"></circle><circle class="dot" cx="271.4376996805112" cy="48.57142857142799" r="3" fill="#2563eb"></circle><circle class="dot" cx="272.5878594249201" cy="48.57142857142799" r="3" fill="#2563eb"></circle><circle class="dot" cx="273.73801916932905" cy="48.57142857142799" r="3" fill="#2563eb"></circle><circle class="dot" cx="274.88817891373805" cy="48.57142857142799" r="3" fill="#2563eb"></circle><circle class="dot" cx="276.0383386581469" cy="48.57142857142799" r="3" fill="#2563eb"></circle><circle class="dot" cx="277.1884984025559" cy="48.57142857142799" r="3" fill="#2563eb"></circle><circle class="dot" cx="278.33865814696486" cy="48.57142857142799" r="3" fill="#2563eb"></circle><circle class="dot" cx="279.4888178913738" cy="48.57142857142799" r="3" fill="#2563eb"></circle><circle class="dot" cx="280.63897763578274" cy="48.57142857142799" r="3" fill="#2563eb"></circle><circle class="dot" cx="281.7891373801917" cy="48.57142857142799" r="3" fill="#2563eb"></circle><circle class="dot" cx="282.9392971246006" cy="48.57142857142799" r="3" fill="#2563eb"></circle><circle class="dot" cx="284.0894568690096" cy="48.57142857142799" r="3" fill="#2563eb"></circle><circle class="dot" cx="285.2396166134185" cy="48.57142857142799" r="3" fill="#2563eb"></circle><circle class="dot" cx="286.3897763578275" cy="48.57142857142799" r="3" fill="#2563eb"></circle><circle class="dot" cx="287.5399361022364" cy="48.57142857142799" r="3" fill="#2563eb"></circle><circle class="dot" cx="288.69009584664536" cy="48.57142857142799" r="3" fill="#2563eb"></circle><circle class="dot" cx="289.8402555910543" cy="48.57142857142799" r="3" fill="#2563eb"></circle><circle class="dot" cx="290.99041533546324" cy="48.57142857142799" r="3" fill="#2563eb"></circle><circle class="dot" cx="292.1405750798722" cy="48.57142857142799" r="3" fill="#2563eb"></circle><circle class="dot" cx="293.2907348242812" cy="48.57142857142799" r="3" fill="#2563eb"></circle><circle class="dot" cx="294.44089456869006" cy="48.57142857142799" r="3" fill="#2563eb"></circle><circle class="dot" cx="295.59105431309905" cy="48.57142857142799" r="3" fill="#2563eb"></circle><circle class="dot" cx="296.741214057508" cy="48.57142857142799" r="3" fill="#2563eb"></circle><circle class="dot" cx="297.8913738019169" cy="48.57142857142799" r="3" fill="#2563eb"></circle><circle class="dot" cx="299.04153354632587" cy="48.57142857142799" r="3" fill="#2563eb"></circle><circle class="dot" cx="300.1916932907348" cy="48.57142857142799" r="3" fill="#2563eb"></circle><circle class="dot" cx="301.34185303514374" cy="48.57142857142799" r="3" fill="#2563eb"></circle><circle class="dot" cx="302.49201277955274" cy="48.57142857142799" r="3" fill="#2563eb"></circle><circle class="dot" cx="303.6421725239617" cy="48.57142857142799" r="3" fill="#2563eb"></circle><circle class="dot" cx="304.7923322683706" cy="48.57142857142799" r="3" fill="#2563eb"></circle><circle class="dot" cx="305.94249201277955" cy="48.57142857142799" r="3" fill="#2563eb"></circle><circle class="dot" cx="307.0926517571885" cy="48.57142857142799" r="3" fill="#2563eb"></circle><circle class="dot" cx="308.24281150159743" cy="48.57142857142799" r="3" fill="#2563eb"></circle><circle class="dot" cx="309.39297124600637" cy="48.57142857142799" r="3" fill="#2563eb"></circle><circle class="dot" cx="310.5431309904153" cy="48.57142857142799" r="3" fill="#2563eb"></circle><circle class="dot" cx="311.6932907348243" cy="48.57142857142799" r="3" fill="#2563eb"></circle><circle class="dot" cx="312.84345047923324" cy="48.57142857142799" r="3" fill="#2563eb"></circle><circle class="dot" cx="313.9936102236422" cy="48.57142857142799" r="3" fill="#2563eb"></circle><circle class="dot" cx="315.1437699680511" cy="48.57142857142799" r="3" fill="#2563eb"></circle><circle class="dot" cx="316.29392971246006" cy="48.57142857142799" r="3" fill="#2563eb"></circle><circle class="dot" cx="317.444089456869" cy="48.57142857142799" r="3" fill="#2563eb"></circle><circle class="dot" cx="318.59424920127793" cy="48.57142857142799" r="3" fill="#2563eb"></circle><circle class="dot" cx="319.74440894568687" cy="48.57142857142799" r="3" fill="#2563eb"></circle><circle class="dot" cx="320.89456869009587" cy="48.57142857142799" r="3" fill="#2563eb"></circle><circle class="dot" cx="322.0447284345048" cy="48.57142857142799" r="3" fill="#2563eb"></circle><circle class="dot" cx="323.19488817891374" cy="48.57142857142799" r="3" fill="#2563eb"></circle><circle class="dot" cx="324.3450479233227" cy="48.57142857142799" r="3" fill="#2563eb"></circle><circle class="dot" cx="325.4952076677316" cy="48.57142857142799" r="3" fill="#2563eb"></circle><circle class="dot" cx="326.64536741214056" cy="48.57142857142799" r="3" fill="#2563eb"></circle><circle class="dot" cx="327.7955271565495" cy="48.57142857142799" r="3" fill="#2563eb"></circle><circle class="dot" cx="328.94568690095844" cy="48.57142857142799" r="3" fill="#2563eb"></circle><circle class="dot" cx="330.09584664536743" cy="48.57142857142799" r="3" fill="#2563eb"></circle><circle class="dot" cx="331.24600638977637" cy="48.57142857142799" r="3" fill="#2563eb"></circle><circle class="dot" cx="332.3961661341853" cy="48.57142857142799" r="3" fill="#2563eb"></circle><circle class="dot" cx="333.54632587859425" cy="48.57142857142799" r="3" fill="#2563eb"></circle><circle class="dot" cx="334.6964856230032" cy="48.57142857142799" r="3" fill="#2563eb"></circle><circle class="dot" cx="335.8466453674121" cy="48.57142857142799" r="3" fill="#2563eb"></circle><circle class="dot" cx="336.99680511182106" cy="48.57142857142799" r="3" fill="#2563eb"></circle><circle class="dot" cx="338.14696485623006" cy="48.57142857142799" r="3" fill="#2563eb"></circle><circle class="dot" cx="339.297124600639" cy="48.57142857142799" r="3" fill="#2563eb"></circle><circle class="dot" cx="340.44728434504793" cy="48.57142857142799" r="3" fill="#2563eb"></circle><circle class="dot" cx="341.59744408945687" cy="48.57142857142799" r="3" fill="#2563eb"></circle><circle class="dot" cx="342.7476038338658" cy="48.57142857142799" r="3" fill="#2563eb"></circle><circle class="dot" cx="343.89776357827475" cy="48.57142857142799" r="3" fill="#2563eb"></circle><circle class="dot" cx="345.0479233226837" cy="48.57142857142799" r="3" fill="#2563eb"></circle><circle class="dot" cx="346.1980830670926" cy="48.57142857142799" r="3" fill="#2563eb"></circle><circle class="dot" cx="347.3482428115016" cy="48.57142857142799" r="3" fill="#2563eb"></circle><circle class="dot" cx="348.49840255591056" cy="48.57142857142799" r="3" fill="#2563eb"></circle><circle class="dot" cx="349.6485623003195" cy="48.57142857142799" r="3" fill="#2563eb"></circle><circle class="dot" cx="350.79872204472844" cy="48.57142857142799" r="3" fill="#2563eb"></circle><circle class="dot" cx="351.9488817891374" cy="48.57142857142799" r="3" fill="#2563eb"></circle><circle class="dot" cx="353.0990415335463" cy="48.57142857142799" r="3" fill="#2563eb"></circle><circle class="dot" cx="354.24920127795525" cy="48.57142857142799" r="3" fill="#2563eb"></circle><circle class="dot" cx="355.3993610223642" cy="48.57142857142799" r="3" fill="#2563eb"></circle><circle class="dot" cx="356.5495207667732" cy="48.57142857142799" r="3" fill="#2563eb"></circle><circle class="dot" cx="357.6996805111821" cy="48.57142857142799" r="3" fill="#2563eb"></circle><circle class="dot" cx="358.84984025559106" cy="48.57142857142799" r="3" fill="#2563eb"></circle><circle class="dot" cx="360" cy="48.57142857142799" r="3" fill="#2563eb"></circle><circle class="dot" cx="361.15015974440894" cy="48.57142857142799" r="3" fill="#2563eb"></circle><circle class="dot" cx="362.30031948881793" cy="48.57142857142799" r="3" fill="#2563eb"></circle><circle class="dot" cx="363.4504792332268" cy="48.57142857142799" r="3" fill="#2563eb"></circle><circle class="dot" cx="364.60063897763575" cy="48.57142857142799" r="3" fill="#2563eb"></circle><circle class="dot" cx="365.75079872204475" cy="48.57142857142799" r="3" fill="#2563eb"></circle><circle class="dot" cx="366.9009584664537" cy="48.57142857142799" r="3" fill="#2563eb"></circle><circle class="dot" cx="368.0511182108626" cy="48.57142857142799" r="3" fill="#2563eb"></circle><circle class="dot" cx="369.2012779552716" cy="48.57142857142799" r="3" fill="#2563eb"></circle><circle class="dot" cx="370.3514376996805" cy="48.57142857142799" r="3" fill="#2563eb"></circle><circle class="dot" cx="371.50159744408944" cy="48.57142857142799" r="3" fill="#2563eb"></circle><circle class="dot" cx="372.6517571884984" cy="48.57142857142799" r="3" fill="#2563eb"></circle><circle class="dot" cx="373.8019169329074" cy="48.57142857142799" r="3" fill="#2563eb"></circle><circle class="dot" cx="374.9520766773163" cy="48.57142857142799" r="3" fill="#2563eb"></circle><circle class="dot" cx="376.1022364217252" cy="48.57142857142799" r="3" fill="#2563eb"></circle><circle class="dot" cx="377.2523961661342" cy="48.57142857142799" r="3" fill="#2563eb"></circle><circle class="dot" cx="378.40255591054313" cy="48.57142857142799" r="3" fill="#2563eb"></circle><circle class="dot" cx="379.55271565495207" cy="48.57142857142799" r="3" fill="#2563eb"></circle><circle class="dot" cx="380.70287539936106" cy="48.57142857142799" r="3" fill="#2563eb"></circle><circle class="dot" cx="381.85303514376994" cy="48.57142857142799" r="3" fill="#2563eb"></circle><circle class="dot" cx="383.0031948881789" cy="48.57142857142799" r="3" fill="#2563eb"></circle><circle class="dot" cx="384.1533546325879" cy="48.57142857142799" r="3" fill="#2563eb"></circle><circle class="dot" cx="385.3035143769968" cy="48.57142857142799" r="3" fill="#2563eb"></circle><circle class="dot" cx="386.45367412140575" cy="48.57142857142799" r="3" fill="#2563eb"></circle><circle class="dot" cx="387.60383386581475" cy="48.57142857142799" r="3" fill="#2563eb"></circle><circle class="dot" cx="388.75399361022363" cy="48.57142857142799" r="3" fill="#2563eb"></circle><circle class="dot" cx="389.90415335463257" cy="48.57142857142799" r="3" fill="#2563eb"></circle><circle class="dot" cx="391.0543130990415" cy="48.57142857142799" r="3" fill="#2563eb"></circle><circle class="dot" cx="392.2044728434505" cy="48.57142857142799" r="3" fill="#2563eb"></circle><circle class="dot" cx="393.35463258785944" cy="48.57142857142799" r="3" fill="#2563eb"></circle><circle class="dot" cx="394.5047923322683" cy="48.57142857142799" r="3" fill="#2563eb"></circle><circle class="dot" cx="395.6549520766773" cy="48.57142857142799" r="3" fill="#2563eb"></circle><circle class="dot" cx="396.80511182108626" cy="48.57142857142799" r="3" fill="#2563eb"></circle><circle class="dot" cx="397.9552715654952" cy="48.57142857142799" r="3" fill="#2563eb"></circle><circle class="dot" cx="399.1054313099042" cy="48.57142857142799" r="3" fill="#2563eb"></circle><circle class="dot" cx="400.25559105431313" cy="48.57142857142799" r="3" fill="#2563eb"></circle><circle class="dot" cx="401.405750798722" cy="48.57142857142799" r="3" fill="#2563eb"></circle><circle class="dot" cx="402.555910543131" cy="48.57142857142799" r="3" fill="#2563eb"></circle><circle class="dot" cx="403.70607028753994" cy="48.57142857142799" r="3" fill="#2563eb"></circle><circle class="dot" cx="404.8562300319489" cy="48.57142857142799" r="3" fill="#2563eb"></circle><circle class="dot" cx="406.0063897763579" cy="48.57142857142799" r="3" fill="#2563eb"></circle><circle class="dot" cx="407.15654952076676" cy="48.57142857142799" r="3" fill="#2563eb"></circle><circle class="dot" cx="408.3067092651757" cy="48.57142857142799" r="3" fill="#2563eb"></circle><circle class="dot" cx="409.45686900958464" cy="48.57142857142799" r="3" fill="#2563eb"></circle><circle class="dot" cx="410.60702875399363" cy="48.57142857142799" r="3" fill="#2563eb"></circle><circle class="dot" cx="411.75718849840257" cy="48.57142857142799" r="3" fill="#2563eb"></circle><circle class="dot" cx="412.90734824281145" cy="48.57142857142799" r="3" fill="#2563eb"></circle><circle class="dot" cx="414.05750798722045" cy="48.57142857142799" r="3" fill="#2563eb"></circle><circle class="dot" cx="415.2076677316294" cy="48.57142857142799" r="3" fill="#2563eb"></circle><circle class="dot" cx="416.3578274760383" cy="48.57142857142799" r="3" fill="#2563eb"></circle><circle class="dot" cx="417.5079872204473" cy="48.57142857142799" r="3" fill="#2563eb"></circle><circle class="dot" cx="418.65814696485626" cy="48.57142857142799" r="3" fill="#2563eb"></circle><circle class="dot" cx="419.80830670926514" cy="48.57142857142799" r="3" fill="#2563eb"></circle><circle class="dot" cx="420.95846645367413" cy="48.57142857142799" r="3" fill="#2563eb"></circle><circle class="dot" cx="422.1086261980831" cy="48.57142857142799" r="3" fill="#2563eb"></circle><circle class="dot" cx="423.258785942492" cy="48.57142857142799" r="3" fill="#2563eb"></circle><circle class="dot" cx="424.408945686901" cy="48.57142857142799" r="3" fill="#2563eb"></circle><circle class="dot" cx="425.55910543130994" cy="48.57142857142799" r="3" fill="#2563eb"></circle><circle class="dot" cx="426.7092651757188" cy="48.57142857142799" r="3" fill="#2563eb"></circle><circle class="dot" cx="427.85942492012776" cy="48.57142857142799" r="3" fill="#2563eb"></circle><circle class="dot" cx="429.00958466453676" cy="48.57142857142799" r="3" fill="#2563eb"></circle><circle class="dot" cx="430.1597444089457" cy="48.57142857142799" r="3" fill="#2563eb"></circle><circle class="dot" cx="431.3099041533546" cy="48.57142857142799" r="3" fill="#2563eb"></circle><circle class="dot" cx="432.4600638977636" cy="48.57142857142799" r="3" fill="#2563eb"></circle><circle class="dot" cx="433.6102236421725" cy="48.57142857142799" r="3" fill="#2563eb"></circle><circle class="dot" cx="434.76038338658145" cy="48.57142857142799" r="3" fill="#2563eb"></circle><circle class="dot" cx="435.91054313099045" cy="48.57142857142799" r="3" fill="#2563eb"></circle><circle class="dot" cx="437.0607028753994" cy="48.57142857142799" r="3" fill="#2563eb"></circle><circle class="dot" cx="438.21086261980827" cy="48.57142857142799" r="3" fill="#2563eb"></circle><circle class="dot" cx="439.36102236421726" cy="48.57142857142799" r="3" fill="#2563eb"></circle><circle class="dot" cx="440.5111821086262" cy="48.57142857142799" r="3" fill="#2563eb"></circle><circle class="dot" cx="441.66134185303514" cy="48.57142857142799" r="3" fill="#2563eb"></circle><circle class="dot" cx="442.81150159744413" cy="48.57142857142799" r="3" fill="#2563eb"></circle><circle class="dot" cx="443.9616613418531" cy="48.57142857142799" r="3" fill="#2563eb"></circle><circle class="dot" cx="445.11182108626195" cy="48.57142857142799" r="3" fill="#2563eb"></circle><circle class="dot" cx="446.2619808306709" cy="48.57142857142799" r="3" fill="#2563eb"></circle><circle class="dot" cx="447.4121405750799" cy="48.57142857142799" r="3" fill="#2563eb"></circle><circle class="dot" cx="448.5623003194888" cy="48.57142857142799" r="3" fill="#2563eb"></circle><circle class="dot" cx="449.7124600638977" cy="48.57142857142799" r="3" fill="#2563eb"></circle><circle class="dot" cx="450.8626198083067" cy="48.57142857142799" r="3" fill="#2563eb"></circle><circle class="dot" cx="452.01277955271564" cy="48.57142857142799" r="3" fill="#2563eb"></circle><circle class="dot" cx="453.1629392971246" cy="48.57142857142799" r="3" fill="#2563eb"></circle><circle class="dot" cx="454.3130990415336" cy="48.57142857142799" r="3" fill="#2563eb"></circle><circle class="dot" cx="455.4632587859425" cy="48.57142857142799" r="3" fill="#2563eb"></circle><circle class="dot" cx="456.6134185303514" cy="48.57142857142799" r="3" fill="#2563eb"></circle><circle class="dot" cx="457.7635782747604" cy="48.57142857142799" r="3" fill="#2563eb"></circle><circle class="dot" cx="458.91373801916933" cy="48.57142857142799" r="3" fill="#2563eb"></circle><circle class="dot" cx="460.06389776357827" cy="48.57142857142799" r="3" fill="#2563eb"></circle><circle class="dot" cx="461.21405750798726" cy="48.57142857142799" r="3" fill="#2563eb"></circle><circle class="dot" cx="462.3642172523962" cy="48.57142857142799" r="3" fill="#2563eb"></circle><circle class="dot" cx="463.5143769968051" cy="48.57142857142799" r="3" fill="#2563eb"></circle><circle class="dot" cx="464.664536741214" cy="48.57142857142799" r="3" fill="#2563eb"></circle><circle class="dot" cx="465.814696485623" cy="48.57142857142799" r="3" fill="#2563eb"></circle><circle class="dot" cx="466.96485623003196" cy="48.57142857142799" r="3" fill="#2563eb"></circle><circle class="dot" cx="468.11501597444084" cy="48.57142857142799" r="3" fill="#2563eb"></circle><circle class="dot" cx="469.26517571884983" cy="48.57142857142799" r="3" fill="#2563eb"></circle><circle class="dot" cx="470.41533546325877" cy="48.57142857142799" r="3" fill="#2563eb"></circle><circle class="dot" cx="471.5654952076677" cy="48.57142857142799" r="3" fill="#2563eb"></circle><circle class="dot" cx="472.7156549520767" cy="48.57142857142799" r="3" fill="#2563eb"></circle><circle class="dot" cx="473.86581469648564" cy="48.57142857142799" r="3" fill="#2563eb"></circle><circle class="dot" cx="475.0159744408945" cy="48.57142857142799" r="3" fill="#2563eb"></circle><circle class="dot" cx="476.1661341853035" cy="48.57142857142799" r="3" fill="#2563eb"></circle><circle class="dot" cx="477.31629392971246" cy="48.57142857142799" r="3" fill="#2563eb"></circle><circle class="dot" cx="478.4664536741214" cy="340" r="3" fill="#2563eb"></circle><circle class="dot" cx="479.6166134185304" cy="340" r="3" fill="#2563eb"></circle><circle class="dot" cx="480.76677316293933" cy="340" r="3" fill="#2563eb"></circle><circle class="dot" cx="481.9169329073482" cy="340" r="3" fill="#2563eb"></circle><circle class="dot" cx="483.0670926517572" cy="340" r="3" fill="#2563eb"></circle><circle class="dot" cx="484.21725239616615" cy="340" r="3" fill="#2563eb"></circle><circle class="dot" cx="485.3674121405751" cy="340" r="3" fill="#2563eb"></circle><circle class="dot" cx="486.51757188498397" cy="340" r="3" fill="#2563eb"></circle><circle class="dot" cx="487.667731629393" cy="340" r="3" fill="#2563eb"></circle><circle class="dot" cx="488.8178913738019" cy="340" r="3" fill="#2563eb"></circle><circle class="dot" cx="489.96805111821084" cy="340" r="3" fill="#2563eb"></circle><circle class="dot" cx="491.11821086261983" cy="340" r="3" fill="#2563eb"></circle><circle class="dot" cx="492.26837060702877" cy="340" r="3" fill="#2563eb"></circle><circle class="dot" cx="493.41853035143765" cy="340" r="3" fill="#2563eb"></circle><circle class="dot" cx="494.56869009584665" cy="340" r="3" fill="#2563eb"></circle><circle class="dot" cx="495.7188498402556" cy="340" r="3" fill="#2563eb"></circle><circle class="dot" cx="496.8690095846645" cy="340" r="3" fill="#2563eb"></circle><circle class="dot" cx="498.0191693290735" cy="340" r="3" fill="#2563eb"></circle><circle class="dot" cx="499.16932907348246" cy="340" r="3" fill="#2563eb"></circle><circle class="dot" cx="500.31948881789134" cy="340" r="3" fill="#2563eb"></circle><circle class="dot" cx="501.46964856230034" cy="340" r="3" fill="#2563eb"></circle><circle class="dot" cx="502.6198083067093" cy="340" r="3" fill="#2563eb"></circle><circle class="dot" cx="503.7699680511182" cy="340" r="3" fill="#2563eb"></circle><circle class="dot" cx="504.9201277955271" cy="340" r="3" fill="#2563eb"></circle><circle class="dot" cx="506.07028753993615" cy="340" r="3" fill="#2563eb"></circle><circle class="dot" cx="507.220447284345" cy="340" r="3" fill="#2563eb"></circle><circle class="dot" cx="508.37060702875397" cy="340" r="3" fill="#2563eb"></circle><circle class="dot" cx="509.52076677316296" cy="340" r="3" fill="#2563eb"></circle><circle class="dot" cx="510.6709265175719" cy="340" r="3" fill="#2563eb"></circle><circle class="dot" cx="511.8210862619808" cy="340" r="3" fill="#2563eb"></circle><circle class="dot" cx="512.9712460063898" cy="340" r="3" fill="#2563eb"></circle><circle class="dot" cx="514.1214057507988" cy="340" r="3" fill="#2563eb"></circle><circle class="dot" cx="515.2715654952076" cy="340" r="3" fill="#2563eb"></circle><circle class="dot" cx="516.4217252396166" cy="340" r="3" fill="#2563eb"></circle><circle class="dot" cx="517.5718849840256" cy="340" r="3" fill="#2563eb"></circle><circle class="dot" cx="518.7220447284345" cy="340" r="3" fill="#2563eb"></circle><circle class="dot" cx="519.8722044728435" cy="340" r="3" fill="#2563eb"></circle><circle class="dot" cx="521.0223642172524" cy="340" r="3" fill="#2563eb"></circle><circle class="dot" cx="522.1725239616613" cy="340" r="3" fill="#2563eb"></circle><circle class="dot" cx="523.3226837060703" cy="340" r="3" fill="#2563eb"></circle><circle class="dot" cx="524.4728434504792" cy="340" r="3" fill="#2563eb"></circle><circle class="dot" cx="525.6230031948882" cy="340" r="3" fill="#2563eb"></circle><circle class="dot" cx="526.7731629392971" cy="340" r="3" fill="#2563eb"></circle><circle class="dot" cx="527.9233226837061" cy="340" r="3" fill="#2563eb"></circle><circle class="dot" cx="529.073482428115" cy="340" r="3" fill="#2563eb"></circle><circle class="dot" cx="530.2236421725239" cy="340" r="3" fill="#2563eb"></circle><circle class="dot" cx="531.373801916933" cy="340" r="3" fill="#2563eb"></circle><circle class="dot" cx="532.5239616613419" cy="340" r="3" fill="#2563eb"></circle><circle class="dot" cx="533.6741214057507" cy="340" r="3" fill="#2563eb"></circle><circle class="dot" cx="534.8242811501598" cy="340" r="3" fill="#2563eb"></circle><circle class="dot" cx="535.9744408945687" cy="340" r="3" fill="#2563eb"></circle><circle class="dot" cx="537.1246006389777" cy="340" r="3" fill="#2563eb"></circle><circle class="dot" cx="538.2747603833866" cy="340" r="3" fill="#2563eb"></circle><circle class="dot" cx="539.4249201277955" cy="340" r="3" fill="#2563eb"></circle><circle class="dot" cx="540.5750798722045" cy="340" r="3" fill="#2563eb"></circle><circle class="dot" cx="541.7252396166134" cy="340" r="3" fill="#2563eb"></circle><circle class="dot" cx="542.8753993610223" cy="340" r="3" fill="#2563eb"></circle><circle class="dot" cx="544.0255591054313" cy="340" r="3" fill="#2563eb"></circle><circle class="dot" cx="545.1757188498402" cy="340" r="3" fill="#2563eb"></circle><circle class="dot" cx="546.3258785942493" cy="340" r="3" fill="#2563eb"></circle><circle class="dot" cx="547.4760383386581" cy="340" r="3" fill="#2563eb"></circle><circle class="dot" cx="548.626198083067" cy="340" r="3" fill="#2563eb"></circle><circle class="dot" cx="549.7763578274761" cy="340" r="3" fill="#2563eb"></circle><circle class="dot" cx="550.926517571885" cy="340" r="3" fill="#2563eb"></circle><circle class="dot" cx="552.0766773162939" cy="340" r="3" fill="#2563eb"></circle><circle class="dot" cx="553.2268370607029" cy="340" r="3" fill="#2563eb"></circle><circle class="dot" cx="554.3769968051118" cy="340" r="3" fill="#2563eb"></circle><circle class="dot" cx="555.5271565495208" cy="340" r="3" fill="#2563eb"></circle><circle class="dot" cx="556.6773162939297" cy="340" r="3" fill="#2563eb"></circle><circle class="dot" cx="557.8274760383387" cy="340" r="3" fill="#2563eb"></circle><circle class="dot" cx="558.9776357827476" cy="340" r="3" fill="#2563eb"></circle><circle class="dot" cx="560.1277955271565" cy="340" r="3" fill="#2563eb"></circle><circle class="dot" cx="561.2779552715655" cy="340" r="3" fill="#2563eb"></circle><circle class="dot" cx="562.4281150159744" cy="340" r="3" fill="#2563eb"></circle><circle class="dot" cx="563.5782747603834" cy="340" r="3" fill="#2563eb"></circle><circle class="dot" cx="564.7284345047924" cy="340" r="3" fill="#2563eb"></circle><circle class="dot" cx="565.8785942492012" cy="340" r="3" fill="#2563eb"></circle><circle class="dot" cx="567.0287539936102" cy="340" r="3" fill="#2563eb"></circle><circle class="dot" cx="568.1789137380192" cy="340" r="3" fill="#2563eb"></circle><circle class="dot" cx="569.3290734824282" cy="340" r="3" fill="#2563eb"></circle><circle class="dot" cx="570.479233226837" cy="340" r="3" fill="#2563eb"></circle><circle class="dot" cx="571.629392971246" cy="340" r="3" fill="#2563eb"></circle><circle class="dot" cx="572.779552715655" cy="340" r="3" fill="#2563eb"></circle><circle class="dot" cx="573.9297124600639" cy="340" r="3" fill="#2563eb"></circle><circle class="dot" cx="575.0798722044728" cy="340" r="3" fill="#2563eb"></circle><circle class="dot" cx="576.2300319488818" cy="340" r="3" fill="#2563eb"></circle><circle class="dot" cx="577.3801916932907" cy="340" r="3" fill="#2563eb"></circle><circle class="dot" cx="578.5303514376997" cy="340" r="3" fill="#2563eb"></circle><circle class="dot" cx="579.6805111821086" cy="340" r="3" fill="#2563eb"></circle><circle class="dot" cx="580.8306709265175" cy="340" r="3" fill="#2563eb"></circle><circle class="dot" cx="581.9808306709265" cy="340" r="3" fill="#2563eb"></circle><circle class="dot" cx="583.1309904153355" cy="340" r="3" fill="#2563eb"></circle><circle class="dot" cx="584.2811501597444" cy="340" r="3" fill="#2563eb"></circle><circle class="dot" cx="585.4313099041533" cy="340" r="3" fill="#2563eb"></circle><circle class="dot" cx="586.5814696485623" cy="340" r="3" fill="#2563eb"></circle><circle class="dot" cx="587.7316293929713" cy="340" r="3" fill="#2563eb"></circle><circle class="dot" cx="588.8817891373801" cy="340" r="3" fill="#2563eb"></circle><circle class="dot" cx="590.0319488817892" cy="340" r="3" fill="#2563eb"></circle><circle class="dot" cx="591.1821086261981" cy="340" r="3" fill="#2563eb"></circle><circle class="dot" cx="592.332268370607" cy="340" r="3" fill="#2563eb"></circle><circle class="dot" cx="593.482428115016" cy="340" r="3" fill="#2563eb"></circle><circle class="dot" cx="594.6325878594249" cy="340" r="3" fill="#2563eb"></circle><circle class="dot" cx="595.7827476038339" cy="340" r="3" fill="#2563eb"></circle><circle class="dot" cx="596.9329073482428" cy="340" r="3" fill="#2563eb"></circle><circle class="dot" cx="598.0830670926517" cy="340" r="3" fill="#2563eb"></circle><circle class="dot" cx="599.2332268370607" cy="340" r="3" fill="#2563eb"></circle><circle class="dot" cx="600.3833865814696" cy="340" r="3" fill="#2563eb"></circle><circle class="dot" cx="601.5335463258787" cy="340" r="3" fill="#2563eb"></circle><circle class="dot" cx="602.6837060702875" cy="340" r="3" fill="#2563eb"></circle><circle class="dot" cx="603.8338658146964" cy="340" r="3" fill="#2563eb"></circle><circle class="dot" cx="604.9840255591055" cy="340" r="3" fill="#2563eb"></circle><circle class="dot" cx="606.1341853035144" cy="340" r="3" fill="#2563eb"></circle><circle class="dot" cx="607.2843450479234" cy="340" r="3" fill="#2563eb"></circle><circle class="dot" cx="608.4345047923323" cy="340" r="3" fill="#2563eb"></circle><circle class="dot" cx="609.5846645367412" cy="340" r="3" fill="#2563eb"></circle><circle class="dot" cx="610.7348242811502" cy="340" r="3" fill="#2563eb"></circle><circle class="dot" cx="611.8849840255591" cy="340" r="3" fill="#2563eb"></circle><circle class="dot" cx="613.035143769968" cy="340" r="3" fill="#2563eb"></circle><circle class="dot" cx="614.185303514377" cy="340" r="3" fill="#2563eb"></circle><circle class="dot" cx="615.335463258786" cy="340" r="3" fill="#2563eb"></circle><circle class="dot" cx="616.4856230031949" cy="340" r="3" fill="#2563eb"></circle><circle class="dot" cx="617.6357827476038" cy="340" r="3" fill="#2563eb"></circle><circle class="dot" cx="618.7859424920127" cy="340" r="3" fill="#2563eb"></circle><circle class="dot" cx="619.9361022364218" cy="340" r="3" fill="#2563eb"></circle><circle class="dot" cx="621.0862619808306" cy="340" r="3" fill="#2563eb"></circle><circle class="dot" cx="622.2364217252396" cy="340" r="3" fill="#2563eb"></circle><circle class="dot" cx="623.3865814696486" cy="340" r="3" fill="#2563eb"></circle><circle class="dot" cx="624.5367412140575" cy="340" r="3" fill="#2563eb"></circle><circle class="dot" cx="625.6869009584665" cy="340" r="3" fill="#2563eb"></circle><circle class="dot" cx="626.8370607028754" cy="340" r="3" fill="#2563eb"></circle><circle class="dot" cx="627.9872204472844" cy="340" r="3" fill="#2563eb"></circle><circle class="dot" cx="629.1373801916933" cy="340" r="3" fill="#2563eb"></circle><circle class="dot" cx="630.2875399361022" cy="340" r="3" fill="#2563eb"></circle><circle class="dot" cx="631.4376996805112" cy="340" r="3" fill="#2563eb"></circle><circle class="dot" cx="632.5878594249201" cy="340" r="3" fill="#2563eb"></circle><circle class="dot" cx="633.7380191693292" cy="340" r="3" fill="#2563eb"></circle><circle class="dot" cx="634.888178913738" cy="340" r="3" fill="#2563eb"></circle><circle class="dot" cx="636.0383386581469" cy="340" r="3" fill="#2563eb"></circle><circle class="dot" cx="637.1884984025559" cy="340" r="3" fill="#2563eb"></circle><circle class="dot" cx="638.3386581469649" cy="340" r="3" fill="#2563eb"></circle><circle class="dot" cx="639.4888178913737" cy="340" r="3" fill="#2563eb"></circle><circle class="dot" cx="640.6389776357827" cy="340" r="3" fill="#2563eb"></circle><circle class="dot" cx="641.7891373801917" cy="340" r="3" fill="#2563eb"></circle><circle class="dot" cx="642.9392971246007" cy="340" r="3" fill="#2563eb"></circle><circle class="dot" cx="644.0894568690096" cy="340" r="3" fill="#2563eb"></circle><circle class="dot" cx="645.2396166134185" cy="340" r="3" fill="#2563eb"></circle><circle class="dot" cx="646.3897763578275" cy="340" r="3" fill="#2563eb"></circle><circle class="dot" cx="647.5399361022364" cy="340" r="3" fill="#2563eb"></circle><circle class="dot" cx="648.6900958466454" cy="340" r="3" fill="#2563eb"></circle><circle class="dot" cx="649.8402555910543" cy="340" r="3" fill="#2563eb"></circle><circle class="dot" cx="650.9904153354632" cy="340" r="3" fill="#2563eb"></circle><circle class="dot" cx="652.1405750798723" cy="340" r="3" fill="#2563eb"></circle><circle class="dot" cx="653.2907348242811" cy="340" r="3" fill="#2563eb"></circle><circle class="dot" cx="654.44089456869" cy="340" r="3" fill="#2563eb"></circle><circle class="dot" cx="655.591054313099" cy="340" r="3" fill="#2563eb"></circle><circle class="dot" cx="656.741214057508" cy="340" r="3" fill="#2563eb"></circle><circle class="dot" cx="657.8913738019169" cy="340" r="3" fill="#2563eb"></circle><circle class="dot" cx="659.0415335463258" cy="340" r="3" fill="#2563eb"></circle><circle class="dot" cx="660.1916932907349" cy="340" r="3" fill="#2563eb"></circle><circle class="dot" cx="661.3418530351438" cy="340" r="3" fill="#2563eb"></circle><circle class="dot" cx="662.4920127795527" cy="340" r="3" fill="#2563eb"></circle><circle class="dot" cx="663.6421725239617" cy="340" r="3" fill="#2563eb"></circle><circle class="dot" cx="664.7923322683706" cy="340" r="3" fill="#2563eb"></circle><circle class="dot" cx="665.9424920127796" cy="340" r="3" fill="#2563eb"></circle><circle class="dot" cx="667.0926517571885" cy="340" r="3" fill="#2563eb"></circle><circle class="dot" cx="668.2428115015974" cy="340" r="3" fill="#2563eb"></circle><circle class="dot" cx="669.3929712460064" cy="340" r="3" fill="#2563eb"></circle><circle class="dot" cx="670.5431309904154" cy="340" r="3" fill="#2563eb"></circle><circle class="dot" cx="671.6932907348242" cy="340" r="3" fill="#2563eb"></circle><circle class="dot" cx="672.8434504792332" cy="340" r="3" fill="#2563eb"></circle><circle class="dot" cx="673.9936102236421" cy="340" r="3" fill="#2563eb"></circle><circle class="dot" cx="675.1437699680512" cy="340" r="3" fill="#2563eb"></circle><circle class="dot" cx="676.2939297124601" cy="340" r="3" fill="#2563eb"></circle><circle class="dot" cx="677.4440894568689" cy="340" r="3" fill="#2563eb"></circle><circle class="dot" cx="678.594249201278" cy="340" r="3" fill="#2563eb"></circle><circle class="dot" cx="679.7444089456869" cy="340" r="3" fill="#2563eb"></circle><circle class="dot" cx="680.8945686900959" cy="340" r="3" fill="#2563eb"></circle><circle class="dot" cx="682.0447284345048" cy="340" r="3" fill="#2563eb"></circle><circle class="dot" cx="683.1948881789137" cy="340" r="3" fill="#2563eb"></circle><circle class="dot" cx="684.3450479233227" cy="340" r="3" fill="#2563eb"></circle><circle class="dot" cx="685.4952076677316" cy="340" r="3" fill="#2563eb"></circle><circle class="dot" cx="686.6453674121406" cy="340" r="3" fill="#2563eb"></circle><circle class="dot" cx="687.7955271565495" cy="340" r="3" fill="#2563eb"></circle><circle class="dot" cx="688.9456869009585" cy="340" r="3" fill="#2563eb"></circle><circle class="dot" cx="690.0958466453674" cy="340" r="3" fill="#2563eb"></circle><circle class="dot" cx="691.2460063897763" cy="340" r="3" fill="#2563eb"></circle><circle class="dot" cx="692.3961661341853" cy="340" r="3" fill="#2563eb"></circle><circle class="dot" cx="693.5463258785943" cy="340" r="3" fill="#2563eb"></circle><circle class="dot" cx="694.6964856230032" cy="340" r="3" fill="#2563eb"></circle><circle class="dot" cx="695.8466453674121" cy="340" r="3" fill="#2563eb"></circle><circle class="dot" cx="696.9968051118211" cy="340" r="3" fill="#2563eb"></circle><circle class="dot" cx="698.14696485623" cy="340" r="3" fill="#2563eb"></circle><circle class="dot" cx="699.297124600639" cy="340" r="3" fill="#2563eb"></circle><circle class="dot" cx="700.4472843450479" cy="340" r="3" fill="#2563eb"></circle><circle class="dot" cx="701.5974440894569" cy="340" r="3" fill="#2563eb"></circle><circle class="dot" cx="702.7476038338658" cy="340" r="3" fill="#2563eb"></circle><circle class="dot" cx="703.8977635782747" cy="340" r="3" fill="#2563eb"></circle><circle class="dot" cx="705.0479233226837" cy="340" r="3" fill="#2563eb"></circle><circle class="dot" cx="706.1980830670926" cy="340" r="3" fill="#2563eb"></circle><circle class="dot" cx="707.3482428115017" cy="340" r="3" fill="#2563eb"></circle><circle class="dot" cx="708.4984025559105" cy="340" r="3" fill="#2563eb"></circle><circle class="dot" cx="709.6485623003194" cy="340" r="3" fill="#2563eb"></circle><circle class="dot" cx="710.7987220447284" cy="340" r="3" fill="#2563eb"></circle><circle class="dot" cx="711.9488817891374" cy="340" r="3" fill="#2563eb"></circle><circle class="dot" cx="713.0990415335464" cy="340" r="3" fill="#2563eb"></circle><circle class="dot" cx="714.2492012779552" cy="340" r="3" fill="#2563eb"></circle><circle class="dot" cx="715.3993610223642" cy="340" r="3" fill="#2563eb"></circle><circle class="dot" cx="716.5495207667732" cy="340" r="3" fill="#2563eb"></circle><circle class="dot" cx="717.6996805111821" cy="340" r="3" fill="#2563eb"></circle><circle class="dot" cx="718.8498402555911" cy="340" r="3" fill="#2563eb"></circle><circle class="dot" cx="720" cy="340" r="3" fill="#2563eb"></circle><g class="grid" transform="translate(0,340)" fill="none" font-size="10" font-family="sans-serif" text-anchor="middle" style="stroke-dasharray: 3,3; opacity: 0.3;"><path class="domain" stroke="currentColor" d="M0.5,-340V0.5H720.5V-340"></path><g class="tick" opacity="1" transform="translate(0.5,0)"><line stroke="currentColor" y2="-340"></line><text fill="currentColor" y="3" dy="0.71em"></text></g><g class="tick" opacity="1" transform="translate(28.103833865814696,0)"><line stroke="currentColor" y2="-340"></line><text fill="currentColor" y="3" dy="0.71em"></text></g><g class="tick" opacity="1" transform="translate(55.70766773162939,0)"><line stroke="currentColor" y2="-340"></line><text fill="currentColor" y="3" dy="0.71em"></text></g><g class="tick" opacity="1" transform="translate(83.31150159744409,0)"><line stroke="currentColor" y2="-340"></line><text fill="currentColor" y="3" dy="0.71em"></text></g><g class="tick" opacity="1" transform="translate(110.91533546325878,0)"><line stroke="currentColor" y2="-340"></line><text fill="currentColor" y="3" dy="0.71em"></text></g><g class="tick" opacity="1" transform="translate(138.51916932907346,0)"><line stroke="currentColor" y2="-340"></line><text fill="currentColor" y="3" dy="0.71em"></text></g><g class="tick" opacity="1" transform="translate(166.12300319488818,0)"><line stroke="currentColor" y2="-340"></line><text fill="currentColor" y="3" dy="0.71em"></text></g><g class="tick" opacity="1" transform="translate(193.72683706070288,0)"><line stroke="currentColor" y2="-340"></line><text fill="currentColor" y="3" dy="0.71em"></text></g><g class="tick" opacity="1" transform="translate(221.33067092651757,0)"><line stroke="currentColor" y2="-340"></line><text fill="currentColor" y="3" dy="0.71em"></text></g><g class="tick" opacity="1" transform="translate(248.93450479233226,0)"><line stroke="currentColor" y2="-340"></line><text fill="currentColor" y="3" dy="0.71em"></text></g><g class="tick" opacity="1" transform="translate(276.5383386581469,0)"><line stroke="currentColor" y2="-340"></line><text fill="currentColor" y="3" dy="0.71em"></text></g><g class="tick" opacity="1" transform="translate(304.1421725239617,0)"><line stroke="currentColor" y2="-340"></line><text fill="currentColor" y="3" dy="0.71em"></text></g><g class="tick" opacity="1" transform="translate(331.74600638977637,0)"><line stroke="currentColor" y2="-340"></line><text fill="currentColor" y="3" dy="0.71em"></text></g><g class="tick" opacity="1" transform="translate(359.34984025559106,0)"><line stroke="currentColor" y2="-340"></line><text fill="currentColor" y="3" dy="0.71em"></text></g><g class="tick" opacity="1" transform="translate(386.95367412140575,0)"><line stroke="currentColor" y2="-340"></line><text fill="currentColor" y="3" dy="0.71em"></text></g><g class="tick" opacity="1" transform="translate(414.55750798722045,0)"><line stroke="currentColor" y2="-340"></line><text fill="currentColor" y="3" dy="0.71em"></text></g><g class="tick" opacity="1" transform="translate(442.16134185303514,0)"><line stroke="currentColor" y2="-340"></line><text fill="currentColor" y="3" dy="0.71em"></text></g><g class="tick" opacity="1" transform="translate(469.76517571884983,0)"><line stroke="currentColor" y2="-340"></line><text fill="currentColor" y="3" dy="0.71em"></text></g><g class="tick" opacity="1" transform="translate(497.3690095846645,0)"><line stroke="currentColor" y2="-340"></line><text fill="currentColor" y="3" dy="0.71em"></text></g><g class="tick" opacity="1" transform="translate(524.9728434504792,0)"><line stroke="currentColor" y2="-340"></line><text fill="currentColor" y="3" dy="0.71em"></text></g><g class="tick" opacity="1" transform="translate(552.5766773162939,0)"><line stroke="currentColor" y2="-340"></line><text fill="currentColor" y="3" dy="0.71em"></text></g><g class="tick" opacity="1" transform="translate(580.1805111821086,0)"><line stroke="currentColor" y2="-340"></line><text fill="currentColor" y="3" dy="0.71em"></text></g><g class="tick" opacity="1" transform="translate(607.7843450479234,0)"><line stroke="currentColor" y2="-340"></line><text fill="currentColor" y="3" dy="0.71em"></text></g><g class="tick" opacity="1" transform="translate(635.388178913738,0)"><line stroke="currentColor" y2="-340"></line><text fill="currentColor" y="3" dy="0.71em"></text></g><g class="tick" opacity="1" transform="translate(662.9920127795527,0)"><line stroke="currentColor" y2="-340"></line><text fill="currentColor" y="3" dy="0.71em"></text></g><g class="tick" opacity="1" transform="translate(690.5958466453674,0)"><line stroke="currentColor" y2="-340"></line><text fill="currentColor" y="3" dy="0.71em"></text></g><g class="tick" opacity="1" transform="translate(718.1996805111821,0)"><line stroke="currentColor" y2="-340"></line><text fill="currentColor" y="3" dy="0.71em"></text></g></g><g class="grid" fill="none" font-size="10" font-family="sans-serif" text-anchor="end" style="stroke-dasharray: 3,3; opacity: 0.3;"><path class="domain" stroke="currentColor" d="M720,340.5H0.5V0.5H720"></path><g class="tick" opacity="1" transform="translate(0,340.5)"><line stroke="currentColor" x2="720"></line><text fill="currentColor" x="-3" dy="0.32em"></text></g><g class="tick" opacity="1" transform="translate(0,291.92857142857133)"><line stroke="currentColor" x2="720"></line><text fill="currentColor" x="-3" dy="0.32em"></text></g><g class="tick" opacity="1" transform="translate(0,243.35714285714266)"><line stroke="currentColor" x2="720"></line><text fill="currentColor" x="-3" dy="0.32em"></text></g><g class="tick" opacity="1" transform="translate(0,194.78571428571396)"><line stroke="currentColor" x2="720"></line><text fill="currentColor" x="-3" dy="0.32em"></text></g><g class="tick" opacity="1" transform="translate(0,146.21428571428535)"><line stroke="currentColor" x2="720"></line><text fill="currentColor" x="-3" dy="0.32em"></text></g><g class="tick" opacity="1" transform="translate(0,97.64285714285664)"><line stroke="currentColor" x2="720"></line><text fill="currentColor" x="-3" dy="0.32em"></text></g><g class="tick" opacity="1" transform="translate(0,49.07142857142799)"><line stroke="currentColor" x2="720"></line><text fill="currentColor" x="-3" dy="0.32em"></text></g><g class="tick" opacity="1" transform="translate(0,0.5)"><line stroke="currentColor" x2="720"></line><text fill="currentColor" x="-3" dy="0.32em"></text></g></g></g><text x="400" y="10" text-anchor="middle" style="font-size: 16px; font-weight: bold; fill: #333;">OKX USDT Lending Rate - Current Month</text></svg>