<svg width="800" height="400" xmlns="http://www.w3.org/2000/svg"><g transform="translate(50,20)"><g transform="translate(0,340)" fill="none" font-size="10" font-family="sans-serif" text-anchor="middle"><path class="domain" stroke="currentColor" d="M0.5,6V0.5H720.5V6"></path><g class="tick" opacity="1" transform="translate(0.5,0)"><line stroke="currentColor" y2="6"></line><text fill="currentColor" y="9" dy=".15em" style="text-anchor: end;" dx="-.8em" transform="rotate(-45)">11/01</text></g><g class="tick" opacity="1" transform="translate(100.3843930635838,0)"><line stroke="currentColor" y2="6"></line><text fill="currentColor" y="9" dy=".15em" style="text-anchor: end;" dx="-.8em" transform="rotate(-45)">11/02</text></g><g class="tick" opacity="1" transform="translate(200.2687861271676,0)"><line stroke="currentColor" y2="6"></line><text fill="currentColor" y="9" dy=".15em" style="text-anchor: end;" dx="-.8em" transform="rotate(-45)">11/03</text></g><g class="tick" opacity="1" transform="translate(300.1531791907515,0)"><line stroke="currentColor" y2="6"></line><text fill="currentColor" y="9" dy=".15em" style="text-anchor: end;" dx="-.8em" transform="rotate(-45)">11/04</text></g><g class="tick" opacity="1" transform="translate(400.0375722543352,0)"><line stroke="currentColor" y2="6"></line><text fill="currentColor" y="9" dy=".15em" style="text-anchor: end;" dx="-.8em" transform="rotate(-45)">11/05</text></g><g class="tick" opacity="1" transform="translate(499.92196531791905,0)"><line stroke="currentColor" y2="6"></line><text fill="currentColor" y="9" dy=".15em" style="text-anchor: end;" dx="-.8em" transform="rotate(-45)">11/06</text></g><g class="tick" opacity="1" transform="translate(599.806358381503,0)"><line stroke="currentColor" y2="6"></line><text fill="currentColor" y="9" dy=".15em" style="text-anchor: end;" dx="-.8em" transform="rotate(-45)">11/07</text></g><g class="tick" opacity="1" transform="translate(699.6907514450867,0)"><line stroke="currentColor" y2="6"></line><text fill="currentColor" y="9" dy=".15em" style="text-anchor: end;" dx="-.8em" transform="rotate(-45)">11/08</text></g></g><g fill="none" font-size="10" font-family="sans-serif" text-anchor="end"><path class="domain" stroke="currentColor" d="M-6,340.5H0.5V0.5H-6"></path><g class="tick" opacity="1" transform="translate(0,340.5)"><line stroke="currentColor" x2="-6"></line><text fill="currentColor" x="-9" dy="0.32em">1.00%</text></g><g class="tick" opacity="1" transform="translate(0,306.5)"><line stroke="currentColor" x2="-6"></line><text fill="currentColor" x="-9" dy="0.32em">1.20%</text></g><g class="tick" opacity="1" transform="translate(0,272.5)"><line stroke="currentColor" x2="-6"></line><text fill="currentColor" x="-9" dy="0.32em">1.40%</text></g><g class="tick" opacity="1" transform="translate(0,238.49999999999997)"><line stroke="currentColor" x2="-6"></line><text fill="currentColor" x="-9" dy="0.32em">1.60%</text></g><g class="tick" opacity="1" transform="translate(0,204.50000000000003)"><line stroke="currentColor" x2="-6"></line><text fill="currentColor" x="-9" dy="0.32em">1.80%</text></g><g class="tick" opacity="1" transform="translate(0,170.49999999999997)"><line stroke="currentColor" x2="-6"></line><text fill="currentColor" x="-9" dy="0.32em">2.00%</text></g><g class="tick" opacity="1" transform="translate(0,136.5)"><line stroke="currentColor" x2="-6"></line><text fill="currentColor" x="-9" dy="0.32em">2.20%</text></g><g class="tick" opacity="1" transform="translate(0,102.49999999999997)"><line stroke="currentColor" x2="-6"></line><text fill="currentColor" x="-9" dy="0.32em">2.40%</text></g><g class="tick" opacity="1" transform="translate(0,68.49999999999994)"><line stroke="currentColor" x2="-6"></line><text fill="currentColor" x="-9" dy="0.32em">2.60%</text></g><g class="tick" opacity="1" transform="translate(0,34.499999999999915)"><line stroke="currentColor" x2="-6"></line><text fill="currentColor" x="-9" dy="0.32em">2.80%</text></g><g class="tick" opacity="1" transform="translate(0,0.5)"><line stroke="currentColor" x2="-6"></line><text fill="currentColor" x="-9" dy="0.32em">3.00%</text></g></g><text transform="rotate(-90)" y="-50" x="-170" dy="1em" style="text-anchor: middle; font-size: 12px; fill: #666;">Pre Rate (%)</text><text transform="translate(360, 380)" style="text-anchor: middle; font-size: 12px; fill: #666;">Time (UTC)</text><path fill="none" stroke="#2563eb" stroke-width="2" d="M0,0C1.387,0,2.775,0,4.162,0C5.549,0,6.936,0,8.324,0C9.711,0,11.098,0,12.486,0C13.873,0,15.26,0,16.647,0C18.035,0,19.422,0,20.809,0C22.197,0,23.584,0,24.971,0C26.358,0,27.746,0,29.133,0C30.52,0,31.908,0,33.295,0C34.682,0,36.069,0,37.457,0C38.844,0,40.231,0,41.618,0C43.006,0,44.393,0,45.78,0C47.168,0,48.555,0,49.942,0C51.329,0,52.717,0,54.104,0C55.491,0,56.879,0,58.266,0C59.653,0,61.04,0,62.428,0C63.815,0,65.202,0,66.59,0C67.977,0,69.364,0,70.751,0C72.139,0,73.526,0,74.913,0C76.301,0,77.688,0,79.075,0C80.462,0,81.85,0,83.237,0C84.624,0,86.012,0,87.399,0C88.786,0,90.173,0,91.561,0C92.948,0,94.335,0,95.723,0C97.11,0,98.497,0,99.884,0C101.272,0,102.659,0,104.046,0C105.434,0,106.821,0,108.208,0C109.595,0,110.983,0,112.37,0C113.757,0,115.145,0,116.532,0C117.919,0,119.306,0,120.694,0C122.081,0,123.468,0,124.855,0C126.243,0,127.63,0,129.017,0C130.405,0,131.792,0,133.179,0C134.566,0,135.954,0,137.341,0C138.728,0,140.116,0,141.503,0C142.89,0,144.277,0,145.665,0C147.052,0,148.439,0,149.827,0C151.214,0,152.601,0,153.988,0C155.376,0,156.763,0,158.15,0C159.538,0,160.925,0,162.312,0C163.699,0,165.087,0,166.474,0C167.861,0,169.249,0,170.636,0C172.023,0,173.41,0,174.798,0C176.185,0,177.572,0,178.96,0C180.347,0,181.734,0,183.121,0C184.509,0,185.896,0,187.283,0C188.671,0,190.058,0,191.445,0C192.832,0,194.22,0,195.607,0C196.994,0,198.382,0,199.769,0C201.156,0,202.543,0,203.931,0C205.318,0,206.705,0,208.092,0C209.48,0,210.867,0,212.254,0C213.642,0,215.029,0,216.416,0C217.803,0,219.191,0,220.578,0C221.965,0,223.353,0,224.74,0C226.127,0,227.514,0,228.902,0C230.289,0,231.676,0,233.064,0C234.451,0,235.838,0,237.225,0C238.613,0,240,0,241.387,0C242.775,0,244.162,0,245.549,0C246.936,0,248.324,0,249.711,0C251.098,0,252.486,0,253.873,0C255.26,0,256.647,0,258.035,0C259.422,0,260.809,0,262.197,0C263.584,0,264.971,0,266.358,0C267.746,0,269.133,0,270.52,0C271.908,0,273.295,0,274.682,0C276.069,0,277.457,0,278.844,0C280.231,0,281.618,0,283.006,0C284.393,0,285.78,0,287.168,0C288.555,0,289.942,0,291.329,0C292.717,0,294.104,0,295.491,0C296.879,0,298.266,0,299.653,0C301.04,0,302.428,0,303.815,0C305.202,0,306.59,0,307.977,0C309.364,0,310.751,0,312.139,0C313.526,0,314.913,0,316.301,0C317.688,0,319.075,0,320.462,0C321.85,0,323.237,0,324.624,0C326.012,0,327.399,0,328.786,0C330.173,0,331.561,0,332.948,0C334.335,0,335.723,0,337.11,0C338.497,0,339.884,0,341.272,0C342.659,0,344.046,0,345.434,0C346.821,0,348.208,0,349.595,0C350.983,0,352.37,0,353.757,0C355.145,0,356.532,0,357.919,0C359.306,0,360.694,0,362.081,0C363.468,0,364.855,0,366.243,0C367.63,0,369.017,0,370.405,0C371.792,0,373.179,0,374.566,0C375.954,0,377.341,0,378.728,0C380.116,0,381.503,0,382.89,0C384.277,0,385.665,0,387.052,0C388.439,0,389.827,0,391.214,0C392.601,0,393.988,0,395.376,0C396.763,0,398.15,0,399.538,0C400.925,0,402.312,340,403.699,340C405.087,340,406.474,340,407.861,340C409.249,340,410.636,340,412.023,340C413.41,340,414.798,340,416.185,340C417.572,340,418.96,340,420.347,340C421.734,340,423.121,340,424.509,340C425.896,340,427.283,340,428.671,340C430.058,340,431.445,340,432.832,340C434.22,340,435.607,0,436.994,0C438.382,0,439.769,0,441.156,0C442.543,0,443.931,0,445.318,0C446.705,0,448.092,0,449.48,0C450.867,0,452.254,0,453.642,0C455.029,0,456.416,0,457.803,0C459.191,0,460.578,0,461.965,0C463.353,0,464.74,0,466.127,0C467.514,0,468.902,0,470.289,0C471.676,0,473.064,0,474.451,0C475.838,0,477.225,0,478.613,0C480,0,481.387,0,482.775,0C484.162,0,485.549,0,486.936,0C488.324,0,489.711,0,491.098,0C492.486,0,493.873,0,495.26,0C496.647,0,498.035,0,499.422,0C500.809,0,502.197,0,503.584,0C504.971,0,506.358,0,507.746,0C509.133,0,510.52,0,511.908,0C513.295,0,514.682,0,516.069,0C517.457,0,518.844,0,520.231,0C521.618,0,523.006,0,524.393,0C525.78,0,527.168,0,528.555,0C529.942,0,531.329,0,532.717,0C534.104,0,535.491,0,536.879,0C538.266,0,539.653,0,541.04,0C542.428,0,543.815,0,545.202,0C546.59,0,547.977,0,549.364,0C550.751,0,552.139,0,553.526,0C554.913,0,556.301,0,557.688,0C559.075,0,560.462,0,561.85,0C563.237,0,564.624,0,566.012,0C567.399,0,568.786,0,570.173,0C571.561,0,572.948,0,574.335,0C575.723,0,577.11,0,578.497,0C579.884,0,581.272,0,582.659,0C584.046,0,585.434,0,586.821,0C588.208,0,589.595,0,590.983,0C592.37,0,593.757,0,595.145,0C596.532,0,597.919,0,599.306,0C600.694,0,602.081,0,603.468,0C604.855,0,606.243,0,607.63,0C609.017,0,610.405,0,611.792,0C613.179,0,614.566,0,615.954,0C617.341,0,618.728,0,620.116,0C621.503,0,622.89,0,624.277,0C625.665,0,627.052,0,628.439,0C629.827,0,631.214,0,632.601,0C633.988,0,635.376,0,636.763,0C638.15,0,639.538,0,640.925,0C642.312,0,643.699,0,645.087,0C646.474,0,647.861,0,649.249,0C650.636,0,652.023,0,653.41,0C654.798,0,656.185,0,657.572,0C658.96,0,660.347,0,661.734,0C663.121,0,664.509,0,665.896,0C667.283,0,668.671,0,670.058,0C671.445,0,672.832,0,674.22,0C675.607,0,676.994,0,678.382,0C679.769,0,681.156,0,682.543,0C683.931,0,685.318,0,686.705,0C688.092,0,689.48,0,690.867,0C692.254,0,693.642,0,695.029,0C696.416,0,697.803,0,699.191,0C700.578,0,701.965,0,703.353,0C704.74,0,706.127,0,707.514,0C708.902,0,710.289,0,711.676,0C713.064,0,714.451,0,715.838,0C717.225,0,718.613,0,720,0"></path><circle class="dot" cx="0" cy="0" r="3" fill="#2563eb"></circle><circle class="dot" cx="4.161849710982659" cy="0" r="3" fill="#2563eb"></circle><circle class="dot" cx="8.323699421965317" cy="0" r="3" fill="#2563eb"></circle><circle class="dot" cx="12.485549132947975" cy="0" r="3" fill="#2563eb"></circle><circle class="dot" cx="16.647398843930635" cy="0" r="3" fill="#2563eb"></circle><circle class="dot" cx="20.809248554913296" cy="0" r="3" fill="#2563eb"></circle><circle class="dot" cx="24.97109826589595" cy="0" r="3" fill="#2563eb"></circle><circle class="dot" cx="29.13294797687861" cy="0" r="3" fill="#2563eb"></circle><circle class="dot" cx="33.29479768786127" cy="0" r="3" fill="#2563eb"></circle><circle class="dot" cx="37.456647398843934" cy="0" r="3" fill="#2563eb"></circle><circle class="dot" cx="41.61849710982659" cy="0" r="3" fill="#2563eb"></circle><circle class="dot" cx="45.78034682080924" cy="0" r="3" fill="#2563eb"></circle><circle class="dot" cx="49.9421965317919" cy="0" r="3" fill="#2563eb"></circle><circle class="dot" cx="54.10404624277457" cy="0" r="3" fill="#2563eb"></circle><circle class="dot" cx="58.26589595375722" cy="0" r="3" fill="#2563eb"></circle><circle class="dot" cx="62.42774566473988" cy="0" r="3" fill="#2563eb"></circle><circle class="dot" cx="66.58959537572254" cy="0" r="3" fill="#2563eb"></circle><circle class="dot" cx="70.7514450867052" cy="0" r="3" fill="#2563eb"></circle><circle class="dot" cx="74.91329479768787" cy="0" r="3" fill="#2563eb"></circle><circle class="dot" cx="79.07514450867052" cy="0" r="3" fill="#2563eb"></circle><circle class="dot" cx="83.23699421965318" cy="0" r="3" fill="#2563eb"></circle><circle class="dot" cx="87.39884393063583" cy="0" r="3" fill="#2563eb"></circle><circle class="dot" cx="91.56069364161849" cy="0" r="3" fill="#2563eb"></circle><circle class="dot" cx="95.72254335260115" cy="0" r="3" fill="#2563eb"></circle><circle class="dot" cx="99.8843930635838" cy="0" r="3" fill="#2563eb"></circle><circle class="dot" cx="104.04624277456648" cy="0" r="3" fill="#2563eb"></circle><circle class="dot" cx="108.20809248554914" cy="0" r="3" fill="#2563eb"></circle><circle class="dot" cx="112.3699421965318" cy="0" r="3" fill="#2563eb"></circle><circle class="dot" cx="116.53179190751445" cy="0" r="3" fill="#2563eb"></circle><circle class="dot" cx="120.69364161849711" cy="0" r="3" fill="#2563eb"></circle><circle class="dot" cx="124.85549132947976" cy="0" r="3" fill="#2563eb"></circle><circle class="dot" cx="129.0173410404624" cy="0" r="3" fill="#2563eb"></circle><circle class="dot" cx="133.17919075144508" cy="0" r="3" fill="#2563eb"></circle><circle class="dot" cx="137.34104046242774" cy="0" r="3" fill="#2563eb"></circle><circle class="dot" cx="141.5028901734104" cy="0" r="3" fill="#2563eb"></circle><circle class="dot" cx="145.66473988439307" cy="0" r="3" fill="#2563eb"></circle><circle class="dot" cx="149.82658959537574" cy="0" r="3" fill="#2563eb"></circle><circle class="dot" cx="153.98843930635837" cy="0" r="3" fill="#2563eb"></circle><circle class="dot" cx="158.15028901734104" cy="0" r="3" fill="#2563eb"></circle><circle class="dot" cx="162.3121387283237" cy="0" r="3" fill="#2563eb"></circle><circle class="dot" cx="166.47398843930637" cy="0" r="3" fill="#2563eb"></circle><circle class="dot" cx="170.635838150289" cy="0" r="3" fill="#2563eb"></circle><circle class="dot" cx="174.79768786127167" cy="0" r="3" fill="#2563eb"></circle><circle class="dot" cx="178.95953757225433" cy="0" r="3" fill="#2563eb"></circle><circle class="dot" cx="183.12138728323697" cy="0" r="3" fill="#2563eb"></circle><circle class="dot" cx="187.28323699421964" cy="0" r="3" fill="#2563eb"></circle><circle class="dot" cx="191.4450867052023" cy="0" r="3" fill="#2563eb"></circle><circle class="dot" cx="195.60693641618496" cy="0" r="3" fill="#2563eb"></circle><circle class="dot" cx="199.7687861271676" cy="0" r="3" fill="#2563eb"></circle><circle class="dot" cx="203.9306358381503" cy="0" r="3" fill="#2563eb"></circle><circle class="dot" cx="208.09248554913296" cy="0" r="3" fill="#2563eb"></circle><circle class="dot" cx="212.25433526011562" cy="0" r="3" fill="#2563eb"></circle><circle class="dot" cx="216.4161849710983" cy="0" r="3" fill="#2563eb"></circle><circle class="dot" cx="220.57803468208093" cy="0" r="3" fill="#2563eb"></circle><circle class="dot" cx="224.7398843930636" cy="0" r="3" fill="#2563eb"></circle><circle class="dot" cx="228.90173410404626" cy="0" r="3" fill="#2563eb"></circle><circle class="dot" cx="233.0635838150289" cy="0" r="3" fill="#2563eb"></circle><circle class="dot" cx="237.22543352601156" cy="0" r="3" fill="#2563eb"></circle><circle class="dot" cx="241.38728323699422" cy="0" r="3" fill="#2563eb"></circle><circle class="dot" cx="245.5491329479769" cy="0" r="3" fill="#2563eb"></circle><circle class="dot" cx="249.71098265895952" cy="0" r="3" fill="#2563eb"></circle><circle class="dot" cx="253.8728323699422" cy="0" r="3" fill="#2563eb"></circle><circle class="dot" cx="258.0346820809248" cy="0" r="3" fill="#2563eb"></circle><circle class="dot" cx="262.1965317919075" cy="0" r="3" fill="#2563eb"></circle><circle class="dot" cx="266.35838150289015" cy="0" r="3" fill="#2563eb"></circle><circle class="dot" cx="270.5202312138728" cy="0" r="3" fill="#2563eb"></circle><circle class="dot" cx="274.6820809248555" cy="0" r="3" fill="#2563eb"></circle><circle class="dot" cx="278.84393063583815" cy="0" r="3" fill="#2563eb"></circle><circle class="dot" cx="283.0057803468208" cy="0" r="3" fill="#2563eb"></circle><circle class="dot" cx="287.1676300578035" cy="0" r="3" fill="#2563eb"></circle><circle class="dot" cx="291.32947976878614" cy="0" r="3" fill="#2563eb"></circle><circle class="dot" cx="295.4913294797688" cy="0" r="3" fill="#2563eb"></circle><circle class="dot" cx="299.6531791907515" cy="0" r="3" fill="#2563eb"></circle><circle class="dot" cx="303.81502890173414" cy="0" r="3" fill="#2563eb"></circle><circle class="dot" cx="307.97687861271675" cy="0" r="3" fill="#2563eb"></circle><circle class="dot" cx="312.1387283236994" cy="0" r="3" fill="#2563eb"></circle><circle class="dot" cx="316.3005780346821" cy="0" r="3" fill="#2563eb"></circle><circle class="dot" cx="320.46242774566474" cy="0" r="3" fill="#2563eb"></circle><circle class="dot" cx="324.6242774566474" cy="0" r="3" fill="#2563eb"></circle><circle class="dot" cx="328.78612716763007" cy="0" r="3" fill="#2563eb"></circle><circle class="dot" cx="332.94797687861274" cy="0" r="3" fill="#2563eb"></circle><circle class="dot" cx="337.10982658959534" cy="0" r="3" fill="#2563eb"></circle><circle class="dot" cx="341.271676300578" cy="0" r="3" fill="#2563eb"></circle><circle class="dot" cx="345.4335260115607" cy="0" r="3" fill="#2563eb"></circle><circle class="dot" cx="349.59537572254334" cy="0" r="3" fill="#2563eb"></circle><circle class="dot" cx="353.757225433526" cy="0" r="3" fill="#2563eb"></circle><circle class="dot" cx="357.91907514450867" cy="0" r="3" fill="#2563eb"></circle><circle class="dot" cx="362.08092485549133" cy="0" r="3" fill="#2563eb"></circle><circle class="dot" cx="366.24277456647394" cy="0" r="3" fill="#2563eb"></circle><circle class="dot" cx="370.40462427745666" cy="0" r="3" fill="#2563eb"></circle><circle class="dot" cx="374.56647398843927" cy="0" r="3" fill="#2563eb"></circle><circle class="dot" cx="378.728323699422" cy="0" r="3" fill="#2563eb"></circle><circle class="dot" cx="382.8901734104046" cy="0" r="3" fill="#2563eb"></circle><circle class="dot" cx="387.05202312138726" cy="0" r="3" fill="#2563eb"></circle><circle class="dot" cx="391.21387283236993" cy="0" r="3" fill="#2563eb"></circle><circle class="dot" cx="395.3757225433526" cy="0" r="3" fill="#2563eb"></circle><circle class="dot" cx="399.5375722543352" cy="0" r="3" fill="#2563eb"></circle><circle class="dot" cx="403.6994219653179" cy="340" r="3" fill="#2563eb"></circle><circle class="dot" cx="407.8612716763006" cy="340" r="3" fill="#2563eb"></circle><circle class="dot" cx="412.02312138728325" cy="340" r="3" fill="#2563eb"></circle><circle class="dot" cx="416.1849710982659" cy="340" r="3" fill="#2563eb"></circle><circle class="dot" cx="420.3468208092485" cy="340" r="3" fill="#2563eb"></circle><circle class="dot" cx="424.50867052023125" cy="340" r="3" fill="#2563eb"></circle><circle class="dot" cx="428.67052023121386" cy="340" r="3" fill="#2563eb"></circle><circle class="dot" cx="432.8323699421966" cy="340" r="3" fill="#2563eb"></circle><circle class="dot" cx="436.9942196531792" cy="0" r="3" fill="#2563eb"></circle><circle class="dot" cx="441.15606936416185" cy="0" r="3" fill="#2563eb"></circle><circle class="dot" cx="445.31791907514446" cy="0" r="3" fill="#2563eb"></circle><circle class="dot" cx="449.4797687861272" cy="0" r="3" fill="#2563eb"></circle><circle class="dot" cx="453.6416184971098" cy="0" r="3" fill="#2563eb"></circle><circle class="dot" cx="457.8034682080925" cy="0" r="3" fill="#2563eb"></circle><circle class="dot" cx="461.9653179190751" cy="0" r="3" fill="#2563eb"></circle><circle class="dot" cx="466.1271676300578" cy="0" r="3" fill="#2563eb"></circle><circle class="dot" cx="470.28901734104045" cy="0" r="3" fill="#2563eb"></circle><circle class="dot" cx="474.4508670520231" cy="0" r="3" fill="#2563eb"></circle><circle class="dot" cx="478.6127167630057" cy="0" r="3" fill="#2563eb"></circle><circle class="dot" cx="482.77456647398844" cy="0" r="3" fill="#2563eb"></circle><circle class="dot" cx="486.9364161849711" cy="0" r="3" fill="#2563eb"></circle><circle class="dot" cx="491.0982658959538" cy="0" r="3" fill="#2563eb"></circle><circle class="dot" cx="495.26011560693644" cy="0" r="3" fill="#2563eb"></circle><circle class="dot" cx="499.42196531791905" cy="0" r="3" fill="#2563eb"></circle><circle class="dot" cx="503.58381502890177" cy="0" r="3" fill="#2563eb"></circle><circle class="dot" cx="507.7456647398844" cy="0" r="3" fill="#2563eb"></circle><circle class="dot" cx="511.9075144508671" cy="0" r="3" fill="#2563eb"></circle><circle class="dot" cx="516.0693641618496" cy="0" r="3" fill="#2563eb"></circle><circle class="dot" cx="520.2312138728324" cy="0" r="3" fill="#2563eb"></circle><circle class="dot" cx="524.393063583815" cy="0" r="3" fill="#2563eb"></circle><circle class="dot" cx="528.5549132947978" cy="0" r="3" fill="#2563eb"></circle><circle class="dot" cx="532.7167630057803" cy="0" r="3" fill="#2563eb"></circle><circle class="dot" cx="536.878612716763" cy="0" r="3" fill="#2563eb"></circle><circle class="dot" cx="541.0404624277456" cy="0" r="3" fill="#2563eb"></circle><circle class="dot" cx="545.2023121387283" cy="0" r="3" fill="#2563eb"></circle><circle class="dot" cx="549.364161849711" cy="0" r="3" fill="#2563eb"></circle><circle class="dot" cx="553.5260115606936" cy="0" r="3" fill="#2563eb"></circle><circle class="dot" cx="557.6878612716763" cy="0" r="3" fill="#2563eb"></circle><circle class="dot" cx="561.849710982659" cy="0" r="3" fill="#2563eb"></circle><circle class="dot" cx="566.0115606936416" cy="0" r="3" fill="#2563eb"></circle><circle class="dot" cx="570.1734104046243" cy="0" r="3" fill="#2563eb"></circle><circle class="dot" cx="574.335260115607" cy="0" r="3" fill="#2563eb"></circle><circle class="dot" cx="578.4971098265896" cy="0" r="3" fill="#2563eb"></circle><circle class="dot" cx="582.6589595375723" cy="0" r="3" fill="#2563eb"></circle><circle class="dot" cx="586.820809248555" cy="0" r="3" fill="#2563eb"></circle><circle class="dot" cx="590.9826589595376" cy="0" r="3" fill="#2563eb"></circle><circle class="dot" cx="595.1445086705202" cy="0" r="3" fill="#2563eb"></circle><circle class="dot" cx="599.306358381503" cy="0" r="3" fill="#2563eb"></circle><circle class="dot" cx="603.4682080924855" cy="0" r="3" fill="#2563eb"></circle><circle class="dot" cx="607.6300578034683" cy="0" r="3" fill="#2563eb"></circle><circle class="dot" cx="611.7919075144508" cy="0" r="3" fill="#2563eb"></circle><circle class="dot" cx="615.9537572254335" cy="0" r="3" fill="#2563eb"></circle><circle class="dot" cx="620.1156069364162" cy="0" r="3" fill="#2563eb"></circle><circle class="dot" cx="624.2774566473988" cy="0" r="3" fill="#2563eb"></circle><circle class="dot" cx="628.4393063583815" cy="0" r="3" fill="#2563eb"></circle><circle class="dot" cx="632.6011560693642" cy="0" r="3" fill="#2563eb"></circle><circle class="dot" cx="636.7630057803468" cy="0" r="3" fill="#2563eb"></circle><circle class="dot" cx="640.9248554913295" cy="0" r="3" fill="#2563eb"></circle><circle class="dot" cx="645.0867052023121" cy="0" r="3" fill="#2563eb"></circle><circle class="dot" cx="649.2485549132948" cy="0" r="3" fill="#2563eb"></circle><circle class="dot" cx="653.4104046242775" cy="0" r="3" fill="#2563eb"></circle><circle class="dot" cx="657.5722543352601" cy="0" r="3" fill="#2563eb"></circle><circle class="dot" cx="661.7341040462428" cy="0" r="3" fill="#2563eb"></circle><circle class="dot" cx="665.8959537572255" cy="0" r="3" fill="#2563eb"></circle><circle class="dot" cx="670.0578034682081" cy="0" r="3" fill="#2563eb"></circle><circle class="dot" cx="674.2196531791907" cy="0" r="3" fill="#2563eb"></circle><circle class="dot" cx="678.3815028901735" cy="0" r="3" fill="#2563eb"></circle><circle class="dot" cx="682.543352601156" cy="0" r="3" fill="#2563eb"></circle><circle class="dot" cx="686.7052023121388" cy="0" r="3" fill="#2563eb"></circle><circle class="dot" cx="690.8670520231213" cy="0" r="3" fill="#2563eb"></circle><circle class="dot" cx="695.028901734104" cy="0" r="3" fill="#2563eb"></circle><circle class="dot" cx="699.1907514450867" cy="0" r="3" fill="#2563eb"></circle><circle class="dot" cx="703.3526011560693" cy="0" r="3" fill="#2563eb"></circle><circle class="dot" cx="707.514450867052" cy="0" r="3" fill="#2563eb"></circle><circle class="dot" cx="711.6763005780347" cy="0" r="3" fill="#2563eb"></circle><circle class="dot" cx="715.8381502890173" cy="0" r="3" fill="#2563eb"></circle><circle class="dot" cx="720" cy="0" r="3" fill="#2563eb"></circle><g class="grid" transform="translate(0,340)" fill="none" font-size="10" font-family="sans-serif" text-anchor="middle" style="stroke-dasharray: 3,3; opacity: 0.3;"><path class="domain" stroke="currentColor" d="M0.5,-340V0.5H720.5V-340"></path><g class="tick" opacity="1" transform="translate(0.5,0)"><line stroke="currentColor" y2="-340"></line><text fill="currentColor" y="3" dy="0.71em"></text></g><g class="tick" opacity="1" transform="translate(100.3843930635838,0)"><line stroke="currentColor" y2="-340"></line><text fill="currentColor" y="3" dy="0.71em"></text></g><g class="tick" opacity="1" transform="translate(200.2687861271676,0)"><line stroke="currentColor" y2="-340"></line><text fill="currentColor" y="3" dy="0.71em"></text></g><g class="tick" opacity="1" transform="translate(300.1531791907515,0)"><line stroke="currentColor" y2="-340"></line><text fill="currentColor" y="3" dy="0.71em"></text></g><g class="tick" opacity="1" transform="translate(400.0375722543352,0)"><line stroke="currentColor" y2="-340"></line><text fill="currentColor" y="3" dy="0.71em"></text></g><g class="tick" opacity="1" transform="translate(499.92196531791905,0)"><line stroke="currentColor" y2="-340"></line><text fill="currentColor" y="3" dy="0.71em"></text></g><g class="tick" opacity="1" transform="translate(599.806358381503,0)"><line stroke="currentColor" y2="-340"></line><text fill="currentColor" y="3" dy="0.71em"></text></g><g class="tick" opacity="1" transform="translate(699.6907514450867,0)"><line stroke="currentColor" y2="-340"></line><text fill="currentColor" y="3" dy="0.71em"></text></g></g><g class="grid" fill="none" font-size="10" font-family="sans-serif" text-anchor="end" style="stroke-dasharray: 3,3; opacity: 0.3;"><path class="domain" stroke="currentColor" d="M720,340.5H0.5V0.5H720"></path><g class="tick" opacity="1" transform="translate(0,340.5)"><line stroke="currentColor" x2="720"></line><text fill="currentColor" x="-3" dy="0.32em"></text></g><g class="tick" opacity="1" transform="translate(0,306.5)"><line stroke="currentColor" x2="720"></line><text fill="currentColor" x="-3" dy="0.32em"></text></g><g class="tick" opacity="1" transform="translate(0,272.5)"><line stroke="currentColor" x2="720"></line><text fill="currentColor" x="-3" dy="0.32em"></text></g><g class="tick" opacity="1" transform="translate(0,238.49999999999997)"><line stroke="currentColor" x2="720"></line><text fill="currentColor" x="-3" dy="0.32em"></text></g><g class="tick" opacity="1" transform="translate(0,204.50000000000003)"><line stroke="currentColor" x2="720"></line><text fill="currentColor" x="-3" dy="0.32em"></text></g><g class="tick" opacity="1" transform="translate(0,170.49999999999997)"><line stroke="currentColor" x2="720"></line><text fill="currentColor" x="-3" dy="0.32em"></text></g><g class="tick" opacity="1" transform="translate(0,136.5)"><line stroke="currentColor" x2="720"></line><text fill="currentColor" x="-3" dy="0.32em"></text></g><g class="tick" opacity="1" transform="translate(0,102.49999999999997)"><line stroke="currentColor" x2="720"></line><text fill="currentColor" x="-3" dy="0.32em"></text></g><g class="tick" opacity="1" transform="translate(0,68.49999999999994)"><line stroke="currentColor" x2="720"></line><text fill="currentColor" x="-3" dy="0.32em"></text></g><g class="tick" opacity="1" transform="translate(0,34.499999999999915)"><line stroke="currentColor" x2="720"></line><text fill="currentColor" x="-3" dy="0.32em"></text></g><g class="tick" opacity="1" transform="translate(0,0.5)"><line stroke="currentColor" x2="720"></line><text fill="currentColor" x="-3" dy="0.32em"></text></g></g></g><text x="400" y="10" text-anchor="middle" style="font-size: 16px; font-weight: bold; fill: #333;">OKX USDT Lending Rate - Current Month</text></svg>