<svg width="800" height="400" xmlns="http://www.w3.org/2000/svg"><g transform="translate(50,20)"><g transform="translate(0,340)" fill="none" font-size="10" font-family="sans-serif" text-anchor="middle"><path class="domain" stroke="currentColor" d="M0.5,6V0.5H720.5V6"></path><g class="tick" opacity="1" transform="translate(0.5,0)"><line stroke="currentColor" y2="6"></line><text fill="currentColor" y="9" dy=".15em" style="text-anchor: end;" dx="-.8em" transform="rotate(-45)">11/01</text></g><g class="tick" opacity="1" transform="translate(44.46946564885496,0)"><line stroke="currentColor" y2="6"></line><text fill="currentColor" y="9" dy=".15em" style="text-anchor: end;" dx="-.8em" transform="rotate(-45)">11/02</text></g><g class="tick" opacity="1" transform="translate(88.43893129770991,0)"><line stroke="currentColor" y2="6"></line><text fill="currentColor" y="9" dy=".15em" style="text-anchor: end;" dx="-.8em" transform="rotate(-45)">11/03</text></g><g class="tick" opacity="1" transform="translate(132.4083969465649,0)"><line stroke="currentColor" y2="6"></line><text fill="currentColor" y="9" dy=".15em" style="text-anchor: end;" dx="-.8em" transform="rotate(-45)">11/04</text></g><g class="tick" opacity="1" transform="translate(176.37786259541983,0)"><line stroke="currentColor" y2="6"></line><text fill="currentColor" y="9" dy=".15em" style="text-anchor: end;" dx="-.8em" transform="rotate(-45)">11/05</text></g><g class="tick" opacity="1" transform="translate(220.34732824427482,0)"><line stroke="currentColor" y2="6"></line><text fill="currentColor" y="9" dy=".15em" style="text-anchor: end;" dx="-.8em" transform="rotate(-45)">11/06</text></g><g class="tick" opacity="1" transform="translate(264.3167938931298,0)"><line stroke="currentColor" y2="6"></line><text fill="currentColor" y="9" dy=".15em" style="text-anchor: end;" dx="-.8em" transform="rotate(-45)">11/07</text></g><g class="tick" opacity="1" transform="translate(308.28625954198475,0)"><line stroke="currentColor" y2="6"></line><text fill="currentColor" y="9" dy=".15em" style="text-anchor: end;" dx="-.8em" transform="rotate(-45)">11/08</text></g><g class="tick" opacity="1" transform="translate(352.25572519083966,0)"><line stroke="currentColor" y2="6"></line><text fill="currentColor" y="9" dy=".15em" style="text-anchor: end;" dx="-.8em" transform="rotate(-45)">11/09</text></g><g class="tick" opacity="1" transform="translate(396.2251908396947,0)"><line stroke="currentColor" y2="6"></line><text fill="currentColor" y="9" dy=".15em" style="text-anchor: end;" dx="-.8em" transform="rotate(-45)">11/10</text></g><g class="tick" opacity="1" transform="translate(440.19465648854964,0)"><line stroke="currentColor" y2="6"></line><text fill="currentColor" y="9" dy=".15em" style="text-anchor: end;" dx="-.8em" transform="rotate(-45)">11/11</text></g><g class="tick" opacity="1" transform="translate(484.1641221374046,0)"><line stroke="currentColor" y2="6"></line><text fill="currentColor" y="9" dy=".15em" style="text-anchor: end;" dx="-.8em" transform="rotate(-45)">11/12</text></g><g class="tick" opacity="1" transform="translate(528.1335877862596,0)"><line stroke="currentColor" y2="6"></line><text fill="currentColor" y="9" dy=".15em" style="text-anchor: end;" dx="-.8em" transform="rotate(-45)">11/13</text></g><g class="tick" opacity="1" transform="translate(572.1030534351145,0)"><line stroke="currentColor" y2="6"></line><text fill="currentColor" y="9" dy=".15em" style="text-anchor: end;" dx="-.8em" transform="rotate(-45)">11/14</text></g><g class="tick" opacity="1" transform="translate(616.0725190839695,0)"><line stroke="currentColor" y2="6"></line><text fill="currentColor" y="9" dy=".15em" style="text-anchor: end;" dx="-.8em" transform="rotate(-45)">11/15</text></g><g class="tick" opacity="1" transform="translate(660.0419847328244,0)"><line stroke="currentColor" y2="6"></line><text fill="currentColor" y="9" dy=".15em" style="text-anchor: end;" dx="-.8em" transform="rotate(-45)">11/16</text></g><g class="tick" opacity="1" transform="translate(704.0114503816793,0)"><line stroke="currentColor" y2="6"></line><text fill="currentColor" y="9" dy=".15em" style="text-anchor: end;" dx="-.8em" transform="rotate(-45)">11/17</text></g></g><g fill="none" font-size="10" font-family="sans-serif" text-anchor="end"><path class="domain" stroke="currentColor" d="M-6,340.5H0.5V0.5H-6"></path><g class="tick" opacity="1" transform="translate(0,340.5)"><line stroke="currentColor" x2="-6"></line><text fill="currentColor" x="-9" dy="0.32em">1.00%</text></g><g class="tick" opacity="1" transform="translate(0,306.5)"><line stroke="currentColor" x2="-6"></line><text fill="currentColor" x="-9" dy="0.32em">1.20%</text></g><g class="tick" opacity="1" transform="translate(0,272.5)"><line stroke="currentColor" x2="-6"></line><text fill="currentColor" x="-9" dy="0.32em">1.40%</text></g><g class="tick" opacity="1" transform="translate(0,238.49999999999997)"><line stroke="currentColor" x2="-6"></line><text fill="currentColor" x="-9" dy="0.32em">1.60%</text></g><g class="tick" opacity="1" transform="translate(0,204.50000000000003)"><line stroke="currentColor" x2="-6"></line><text fill="currentColor" x="-9" dy="0.32em">1.80%</text></g><g class="tick" opacity="1" transform="translate(0,170.49999999999997)"><line stroke="currentColor" x2="-6"></line><text fill="currentColor" x="-9" dy="0.32em">2.00%</text></g><g class="tick" opacity="1" transform="translate(0,136.5)"><line stroke="currentColor" x2="-6"></line><text fill="currentColor" x="-9" dy="0.32em">2.20%</text></g><g class="tick" opacity="1" transform="translate(0,102.49999999999997)"><line stroke="currentColor" x2="-6"></line><text fill="currentColor" x="-9" dy="0.32em">2.40%</text></g><g class="tick" opacity="1" transform="translate(0,68.49999999999994)"><line stroke="currentColor" x2="-6"></line><text fill="currentColor" x="-9" dy="0.32em">2.60%</text></g><g class="tick" opacity="1" transform="translate(0,34.499999999999915)"><line stroke="currentColor" x2="-6"></line><text fill="currentColor" x="-9" dy="0.32em">2.80%</text></g><g class="tick" opacity="1" transform="translate(0,0.5)"><line stroke="currentColor" x2="-6"></line><text fill="currentColor" x="-9" dy="0.32em">3.00%</text></g></g><text transform="rotate(-90)" y="-50" x="-170" dy="1em" style="text-anchor: middle; font-size: 12px; fill: #666;">Pre Rate (%)</text><text transform="translate(360, 380)" style="text-anchor: middle; font-size: 12px; fill: #666;">Time (UTC)</text><path fill="none" stroke="#2563eb" stroke-width="2" d="M0,0C0.611,0,1.221,0,1.832,0C2.443,0,3.053,0,3.664,0C4.275,0,4.885,0,5.496,0C6.107,0,6.718,0,7.328,0C7.939,0,8.55,0,9.16,0C9.771,0,10.382,0,10.992,0C11.603,0,12.214,0,12.824,0C13.435,0,14.046,0,14.656,0C15.267,0,15.878,0,16.489,0C17.099,0,17.71,0,18.321,0C18.931,0,19.542,0,20.153,0C20.763,0,21.374,0,21.985,0C22.595,0,23.206,0,23.817,0C24.427,0,25.038,0,25.649,0C26.26,0,26.87,0,27.481,0C28.092,0,28.702,0,29.313,0C29.924,0,30.534,0,31.145,0C31.756,0,32.366,0,32.977,0C33.588,0,34.198,0,34.809,0C35.42,0,36.031,0,36.641,0C37.252,0,37.863,0,38.473,0C39.084,0,39.695,0,40.305,0C40.916,0,41.527,0,42.137,0C42.748,0,43.359,0,43.969,0C44.58,0,45.191,0,45.802,0C46.412,0,47.023,0,47.634,0C48.244,0,48.855,0,49.466,0C50.076,0,50.687,0,51.298,0C51.908,0,52.519,0,53.13,0C53.74,0,54.351,0,54.962,0C55.573,0,56.183,0,56.794,0C57.405,0,58.015,0,58.626,0C59.237,0,59.847,0,60.458,0C61.069,0,61.679,0,62.29,0C62.901,0,63.511,0,64.122,0C64.733,0,65.344,0,65.954,0C66.565,0,67.176,0,67.786,0C68.397,0,69.008,0,69.618,0C70.229,0,70.84,0,71.45,0C72.061,0,72.672,0,73.282,0C73.893,0,74.504,0,75.115,0C75.725,0,76.336,0,76.947,0C77.557,0,78.168,0,78.779,0C79.389,0,80,0,80.611,0C81.221,0,81.832,0,82.443,0C83.053,0,83.664,0,84.275,0C84.885,0,85.496,0,86.107,0C86.718,0,87.328,0,87.939,0C88.55,0,89.16,0,89.771,0C90.382,0,90.992,0,91.603,0C92.214,0,92.824,0,93.435,0C94.046,0,94.656,0,95.267,0C95.878,0,96.489,0,97.099,0C97.71,0,98.321,0,98.931,0C99.542,0,100.153,0,100.763,0C101.374,0,101.985,0,102.595,0C103.206,0,103.817,0,104.427,0C105.038,0,105.649,0,106.26,0C106.87,0,107.481,0,108.092,0C108.702,0,109.313,0,109.924,0C110.534,0,111.145,0,111.756,0C112.366,0,112.977,0,113.588,0C114.198,0,114.809,0,115.42,0C116.031,0,116.641,0,117.252,0C117.863,0,118.473,0,119.084,0C119.695,0,120.305,0,120.916,0C121.527,0,122.137,0,122.748,0C123.359,0,123.969,0,124.58,0C125.191,0,125.802,0,126.412,0C127.023,0,127.634,0,128.244,0C128.855,0,129.466,0,130.076,0C130.687,0,131.298,0,131.908,0C132.519,0,133.13,0,133.74,0C134.351,0,134.962,0,135.573,0C136.183,0,136.794,0,137.405,0C138.015,0,138.626,0,139.237,0C139.847,0,140.458,0,141.069,0C141.679,0,142.29,0,142.901,0C143.511,0,144.122,0,144.733,0C145.344,0,145.954,0,146.565,0C147.176,0,147.786,0,148.397,0C149.008,0,149.618,0,150.229,0C150.84,0,151.45,0,152.061,0C152.672,0,153.282,0,153.893,0C154.504,0,155.115,0,155.725,0C156.336,0,156.947,0,157.557,0C158.168,0,158.779,0,159.389,0C160,0,160.611,0,161.221,0C161.832,0,162.443,0,163.053,0C163.664,0,164.275,0,164.885,0C165.496,0,166.107,0,166.718,0C167.328,0,167.939,0,168.55,0C169.16,0,169.771,0,170.382,0C170.992,0,171.603,0,172.214,0C172.824,0,173.435,0,174.046,0C174.656,0,175.267,0,175.878,0C176.489,0,177.099,340,177.71,340C178.321,340,178.931,340,179.542,340C180.153,340,180.763,340,181.374,340C181.985,340,182.595,340,183.206,340C183.817,340,184.427,340,185.038,340C185.649,340,186.26,340,186.87,340C187.481,340,188.092,340,188.702,340C189.313,340,189.924,340,190.534,340C191.145,340,191.756,0,192.366,0C192.977,0,193.588,0,194.198,0C194.809,0,195.42,0,196.031,0C196.641,0,197.252,0,197.863,0C198.473,0,199.084,0,199.695,0C200.305,0,200.916,0,201.527,0C202.137,0,202.748,0,203.359,0C203.969,0,204.58,0,205.191,0C205.802,0,206.412,0,207.023,0C207.634,0,208.244,0,208.855,0C209.466,0,210.076,0,210.687,0C211.298,0,211.908,0,212.519,0C213.13,0,213.74,0,214.351,0C214.962,0,215.573,0,216.183,0C216.794,0,217.405,0,218.015,0C218.626,0,219.237,0,219.847,0C220.458,0,221.069,0,221.679,0C222.29,0,222.901,0,223.511,0C224.122,0,224.733,0,225.344,0C225.954,0,226.565,0,227.176,0C227.786,0,228.397,0,229.008,0C229.618,0,230.229,0,230.84,0C231.45,0,232.061,0,232.672,0C233.282,0,233.893,0,234.504,0C235.115,0,235.725,0,236.336,0C236.947,0,237.557,0,238.168,0C238.779,0,239.389,0,240,0C240.611,0,241.221,0,241.832,0C242.443,0,243.053,0,243.664,0C244.275,0,244.885,0,245.496,0C246.107,0,246.718,0,247.328,0C247.939,0,248.55,0,249.16,0C249.771,0,250.382,0,250.992,0C251.603,0,252.214,0,252.824,0C253.435,0,254.046,0,254.656,0C255.267,0,255.878,0,256.489,0C257.099,0,257.71,0,258.321,0C258.931,0,259.542,0,260.153,0C260.763,0,261.374,0,261.985,0C262.595,0,263.206,0,263.817,0C264.427,0,265.038,0,265.649,0C266.26,0,266.87,0,267.481,0C268.092,0,268.702,0,269.313,0C269.924,0,270.534,0,271.145,0C271.756,0,272.366,0,272.977,0C273.588,0,274.198,0,274.809,0C275.42,0,276.031,0,276.641,0C277.252,0,277.863,0,278.473,0C279.084,0,279.695,0,280.305,0C280.916,0,281.527,0,282.137,0C282.748,0,283.359,0,283.969,0C284.58,0,285.191,0,285.802,0C286.412,0,287.023,0,287.634,0C288.244,0,288.855,0,289.466,0C290.076,0,290.687,0,291.298,0C291.908,0,292.519,0,293.13,0C293.74,0,294.351,0,294.962,0C295.573,0,296.183,0,296.794,0C297.405,0,298.015,0,298.626,0C299.237,0,299.847,0,300.458,0C301.069,0,301.679,0,302.29,0C302.901,0,303.511,0,304.122,0C304.733,0,305.344,0,305.954,0C306.565,0,307.176,0,307.786,0C308.397,0,309.008,0,309.618,0C310.229,0,310.84,0,311.45,0C312.061,0,312.672,0,313.282,0C313.893,0,314.504,0,315.115,0C315.725,0,316.336,0,316.947,0C317.557,0,318.168,0,318.779,0C319.389,0,320,0,320.611,0C321.221,0,321.832,0,322.443,0C323.053,0,323.664,0,324.275,0C324.885,0,325.496,0,326.107,0C326.718,0,327.328,0,327.939,0C328.55,0,329.16,0,329.771,0C330.382,0,330.992,0,331.603,0C332.214,0,332.824,0,333.435,0C334.046,0,334.656,0,335.267,0C335.878,0,336.489,0,337.099,0C337.71,0,338.321,0,338.931,0C339.542,0,340.153,0,340.763,0C341.374,0,341.985,0,342.595,0C343.206,0,343.817,0,344.427,0C345.038,0,345.649,0,346.26,0C346.87,0,347.481,0,348.092,0C348.702,0,349.313,0,349.924,0C350.534,0,351.145,0,351.756,0C352.366,0,352.977,0,353.588,0C354.198,0,354.809,0,355.42,0C356.031,0,356.641,0,357.252,0C357.863,0,358.473,0,359.084,0C359.695,0,360.305,0,360.916,0C361.527,0,362.137,0,362.748,0C363.359,0,363.969,0,364.58,0C365.191,0,365.802,0,366.412,0C367.023,0,367.634,0,368.244,0C368.855,0,369.466,0,370.076,0C370.687,0,371.298,0,371.908,0C372.519,0,373.13,0,373.74,0C374.351,0,374.962,0,375.573,0C376.183,0,376.794,0,377.405,0C378.015,0,378.626,0,379.237,0C379.847,0,380.458,0,381.069,0C381.679,0,382.29,0,382.901,0C383.511,0,384.122,0,384.733,0C385.344,0,385.954,0,386.565,0C387.176,0,387.786,0,388.397,0C389.008,0,389.618,0,390.229,0C390.84,0,391.45,0,392.061,0C392.672,0,393.282,0,393.893,0C394.504,0,395.115,0,395.725,0C396.336,0,396.947,0,397.557,0C398.168,0,398.779,0,399.389,0C400,0,400.611,0,401.221,0C401.832,0,402.443,0,403.053,0C403.664,0,404.275,0,404.885,0C405.496,0,406.107,0,406.718,0C407.328,0,407.939,0,408.55,0C409.16,0,409.771,0,410.382,0C410.992,0,411.603,0,412.214,0C412.824,0,413.435,0,414.046,0C414.656,0,415.267,0,415.878,0C416.489,0,417.099,0,417.71,0C418.321,0,418.931,0,419.542,0C420.153,0,420.763,0,421.374,0C421.985,0,422.595,0,423.206,0C423.817,0,424.427,0,425.038,0C425.649,0,426.26,0,426.87,0C427.481,0,428.092,0,428.702,0C429.313,0,429.924,0,430.534,0C431.145,0,431.756,0,432.366,0C432.977,0,433.588,0,434.198,0C434.809,0,435.42,0,436.031,0C436.641,0,437.252,0,437.863,0C438.473,0,439.084,0,439.695,0C440.305,0,440.916,0,441.527,0C442.137,0,442.748,0,443.359,0C443.969,0,444.58,0,445.191,0C445.802,0,446.412,0,447.023,0C447.634,0,448.244,0,448.855,0C449.466,0,450.076,0,450.687,0C451.298,0,451.908,0,452.519,0C453.13,0,453.74,0,454.351,0C454.962,0,455.573,0,456.183,0C456.794,0,457.405,0,458.015,0C458.626,0,459.237,0,459.847,0C460.458,0,461.069,0,461.679,0C462.29,0,462.901,0,463.511,0C464.122,0,464.733,0,465.344,0C465.954,0,466.565,0,467.176,0C467.786,0,468.397,0,469.008,0C469.618,0,470.229,0,470.84,0C471.45,0,472.061,0,472.672,0C473.282,0,473.893,0,474.504,0C475.115,0,475.725,0,476.336,0C476.947,0,477.557,0,478.168,0C478.779,0,479.389,0,480,0C480.611,0,481.221,0,481.832,0C482.443,0,483.053,0,483.664,0C484.275,0,484.885,0,485.496,0C486.107,0,486.718,0,487.328,0C487.939,0,488.55,0,489.16,0C489.771,0,490.382,0,490.992,0C491.603,0,492.214,0,492.824,0C493.435,0,494.046,0,494.656,0C495.267,0,495.878,0,496.489,0C497.099,0,497.71,0,498.321,0C498.931,0,499.542,0,500.153,0C500.763,0,501.374,0,501.985,0C502.595,0,503.206,0,503.817,0C504.427,0,505.038,0,505.649,0C506.26,0,506.87,0,507.481,0C508.092,0,508.702,0,509.313,0C509.924,0,510.534,0,511.145,0C511.756,0,512.366,0,512.977,0C513.588,0,514.198,0,514.809,0C515.42,0,516.031,0,516.641,0C517.252,0,517.863,0,518.473,0C519.084,0,519.695,0,520.305,0C520.916,0,521.527,0,522.137,0C522.748,0,523.359,0,523.969,0C524.58,0,525.191,0,525.802,0C526.412,0,527.023,0,527.634,0C528.244,0,528.855,0,529.466,0C530.076,0,530.687,0,531.298,0C531.908,0,532.519,0,533.13,0C533.74,0,534.351,0,534.962,0C535.573,0,536.183,0,536.794,0C537.405,0,538.015,0,538.626,0C539.237,0,539.847,0,540.458,0C541.069,0,541.679,0,542.29,0C542.901,0,543.511,0,544.122,0C544.733,0,545.344,0,545.954,0C546.565,0,547.176,0,547.786,0C548.397,0,549.008,0,549.618,0C550.229,0,550.84,0,551.45,0C552.061,0,552.672,0,553.282,0C553.893,0,554.504,0,555.115,0C555.725,0,556.336,0,556.947,0C557.557,0,558.168,0,558.779,0C559.389,0,560,0,560.611,0C561.221,0,561.832,0,562.443,0C563.053,0,563.664,0,564.275,0C564.885,0,565.496,0,566.107,0C566.718,0,567.328,0,567.939,0C568.55,0,569.16,0,569.771,0C570.382,0,570.992,0,571.603,0C572.214,0,572.824,0,573.435,0C574.046,0,574.656,0,575.267,0C575.878,0,576.489,0,577.099,0C577.71,0,578.321,0,578.931,0C579.542,0,580.153,0,580.763,0C581.374,0,581.985,0,582.595,0C583.206,0,583.817,0,584.427,0C585.038,0,585.649,0,586.26,0C586.87,0,587.481,0,588.092,0C588.702,0,589.313,0,589.924,0C590.534,0,591.145,0,591.756,0C592.366,0,592.977,0,593.588,0C594.198,0,594.809,0,595.42,0C596.031,0,596.641,0,597.252,0C597.863,0,598.473,0,599.084,0C599.695,0,600.305,0,600.916,0C601.527,0,602.137,0,602.748,0C603.359,0,603.969,0,604.58,0C605.191,0,605.802,0,606.412,0C607.023,0,607.634,0,608.244,0C608.855,0,609.466,0,610.076,0C610.687,0,611.298,0,611.908,0C612.519,0,613.13,0,613.74,0C614.351,0,614.962,0,615.573,0C616.183,0,616.794,0,617.405,0C618.015,0,618.626,0,619.237,0C619.847,0,620.458,0,621.069,0C621.679,0,622.29,0,622.901,0C623.511,0,624.122,0,624.733,0C625.344,0,625.954,0,626.565,0C627.176,0,627.786,0,628.397,0C629.008,0,629.618,0,630.229,0C630.84,0,631.45,0,632.061,0C632.672,0,633.282,0,633.893,0C634.504,0,635.115,0,635.725,0C636.336,0,636.947,0,637.557,0C638.168,0,638.779,0,639.389,0C640,0,640.611,0,641.221,0C641.832,0,642.443,0,643.053,0C643.664,0,644.275,0,644.885,0C645.496,0,646.107,0,646.718,0C647.328,0,647.939,0,648.55,0C649.16,0,649.771,0,650.382,0C650.992,0,651.603,0,652.214,0C652.824,0,653.435,0,654.046,0C654.656,0,655.267,0,655.878,0C656.489,0,657.099,0,657.71,0C658.321,0,658.931,0,659.542,0C660.153,0,660.763,0,661.374,0C661.985,0,662.595,0,663.206,0C663.817,0,664.427,0,665.038,0C665.649,0,666.26,0,666.87,0C667.481,0,668.092,0,668.702,0C669.313,0,669.924,0,670.534,0C671.145,0,671.756,0,672.366,0C672.977,0,673.588,0,674.198,0C674.809,0,675.42,0,676.031,0C676.641,0,677.252,0,677.863,0C678.473,0,679.084,0,679.695,0C680.305,0,680.916,0,681.527,0C682.137,0,682.748,0,683.359,0C683.969,0,684.58,0,685.191,0C685.802,0,686.412,0,687.023,0C687.634,0,688.244,0,688.855,0C689.466,0,690.076,0,690.687,0C691.298,0,691.908,0,692.519,0C693.13,0,693.74,0,694.351,0C694.962,0,695.573,0,696.183,0C696.794,0,697.405,0,698.015,0C698.626,0,699.237,0,699.847,0C700.458,0,701.069,0,701.679,0C702.29,0,702.901,0,703.511,0C704.122,0,704.733,0,705.344,0C705.954,0,706.565,0,707.176,0C707.786,0,708.397,0,709.008,0C709.618,0,710.229,0,710.84,0C711.45,0,712.061,0,712.672,0C713.282,0,713.893,0,714.504,0C715.115,0,715.725,0,716.336,0C716.947,0,717.557,0,718.168,0C718.779,0,719.389,0,720,0"></path><circle class="dot" cx="0" cy="0" r="3" fill="#2563eb"></circle><circle class="dot" cx="1.8320610687022902" cy="0" r="3" fill="#2563eb"></circle><circle class="dot" cx="3.6641221374045805" cy="0" r="3" fill="#2563eb"></circle><circle class="dot" cx="5.49618320610687" cy="0" r="3" fill="#2563eb"></circle><circle class="dot" cx="7.328244274809161" cy="0" r="3" fill="#2563eb"></circle><circle class="dot" cx="9.16030534351145" cy="0" r="3" fill="#2563eb"></circle><circle class="dot" cx="10.99236641221374" cy="0" r="3" fill="#2563eb"></circle><circle class="dot" cx="12.82442748091603" cy="0" r="3" fill="#2563eb"></circle><circle class="dot" cx="14.656488549618322" cy="0" r="3" fill="#2563eb"></circle><circle class="dot" cx="16.48854961832061" cy="0" r="3" fill="#2563eb"></circle><circle class="dot" cx="18.3206106870229" cy="0" r="3" fill="#2563eb"></circle><circle class="dot" cx="20.15267175572519" cy="0" r="3" fill="#2563eb"></circle><circle class="dot" cx="21.98473282442748" cy="0" r="3" fill="#2563eb"></circle><circle class="dot" cx="23.81679389312977" cy="0" r="3" fill="#2563eb"></circle><circle class="dot" cx="25.64885496183206" cy="0" r="3" fill="#2563eb"></circle><circle class="dot" cx="27.480916030534353" cy="0" r="3" fill="#2563eb"></circle><circle class="dot" cx="29.312977099236644" cy="0" r="3" fill="#2563eb"></circle><circle class="dot" cx="31.145038167938928" cy="0" r="3" fill="#2563eb"></circle><circle class="dot" cx="32.97709923664122" cy="0" r="3" fill="#2563eb"></circle><circle class="dot" cx="34.80916030534351" cy="0" r="3" fill="#2563eb"></circle><circle class="dot" cx="36.6412213740458" cy="0" r="3" fill="#2563eb"></circle><circle class="dot" cx="38.47328244274809" cy="0" r="3" fill="#2563eb"></circle><circle class="dot" cx="40.30534351145038" cy="0" r="3" fill="#2563eb"></circle><circle class="dot" cx="42.137404580152676" cy="0" r="3" fill="#2563eb"></circle><circle class="dot" cx="43.96946564885496" cy="0" r="3" fill="#2563eb"></circle><circle class="dot" cx="45.80152671755725" cy="0" r="3" fill="#2563eb"></circle><circle class="dot" cx="47.63358778625954" cy="0" r="3" fill="#2563eb"></circle><circle class="dot" cx="49.465648854961835" cy="0" r="3" fill="#2563eb"></circle><circle class="dot" cx="51.29770992366412" cy="0" r="3" fill="#2563eb"></circle><circle class="dot" cx="53.12977099236641" cy="0" r="3" fill="#2563eb"></circle><circle class="dot" cx="54.961832061068705" cy="0" r="3" fill="#2563eb"></circle><circle class="dot" cx="56.79389312977099" cy="0" r="3" fill="#2563eb"></circle><circle class="dot" cx="58.62595419847329" cy="0" r="3" fill="#2563eb"></circle><circle class="dot" cx="60.458015267175576" cy="0" r="3" fill="#2563eb"></circle><circle class="dot" cx="62.290076335877856" cy="0" r="3" fill="#2563eb"></circle><circle class="dot" cx="64.12213740458016" cy="0" r="3" fill="#2563eb"></circle><circle class="dot" cx="65.95419847328245" cy="0" r="3" fill="#2563eb"></circle><circle class="dot" cx="67.78625954198473" cy="0" r="3" fill="#2563eb"></circle><circle class="dot" cx="69.61832061068702" cy="0" r="3" fill="#2563eb"></circle><circle class="dot" cx="71.45038167938931" cy="0" r="3" fill="#2563eb"></circle><circle class="dot" cx="73.2824427480916" cy="0" r="3" fill="#2563eb"></circle><circle class="dot" cx="75.1145038167939" cy="0" r="3" fill="#2563eb"></circle><circle class="dot" cx="76.94656488549619" cy="0" r="3" fill="#2563eb"></circle><circle class="dot" cx="78.77862595419847" cy="0" r="3" fill="#2563eb"></circle><circle class="dot" cx="80.61068702290076" cy="0" r="3" fill="#2563eb"></circle><circle class="dot" cx="82.44274809160305" cy="0" r="3" fill="#2563eb"></circle><circle class="dot" cx="84.27480916030535" cy="0" r="3" fill="#2563eb"></circle><circle class="dot" cx="86.10687022900764" cy="0" r="3" fill="#2563eb"></circle><circle class="dot" cx="87.93893129770991" cy="0" r="3" fill="#2563eb"></circle><circle class="dot" cx="89.77099236641222" cy="0" r="3" fill="#2563eb"></circle><circle class="dot" cx="91.6030534351145" cy="0" r="3" fill="#2563eb"></circle><circle class="dot" cx="93.43511450381679" cy="0" r="3" fill="#2563eb"></circle><circle class="dot" cx="95.26717557251908" cy="0" r="3" fill="#2563eb"></circle><circle class="dot" cx="97.09923664122138" cy="0" r="3" fill="#2563eb"></circle><circle class="dot" cx="98.93129770992367" cy="0" r="3" fill="#2563eb"></circle><circle class="dot" cx="100.76335877862596" cy="0" r="3" fill="#2563eb"></circle><circle class="dot" cx="102.59541984732824" cy="0" r="3" fill="#2563eb"></circle><circle class="dot" cx="104.42748091603053" cy="0" r="3" fill="#2563eb"></circle><circle class="dot" cx="106.25954198473282" cy="0" r="3" fill="#2563eb"></circle><circle class="dot" cx="108.09160305343512" cy="0" r="3" fill="#2563eb"></circle><circle class="dot" cx="109.92366412213741" cy="0" r="3" fill="#2563eb"></circle><circle class="dot" cx="111.7557251908397" cy="0" r="3" fill="#2563eb"></circle><circle class="dot" cx="113.58778625954199" cy="0" r="3" fill="#2563eb"></circle><circle class="dot" cx="115.41984732824427" cy="0" r="3" fill="#2563eb"></circle><circle class="dot" cx="117.25190839694658" cy="0" r="3" fill="#2563eb"></circle><circle class="dot" cx="119.08396946564886" cy="0" r="3" fill="#2563eb"></circle><circle class="dot" cx="120.91603053435115" cy="0" r="3" fill="#2563eb"></circle><circle class="dot" cx="122.74809160305344" cy="0" r="3" fill="#2563eb"></circle><circle class="dot" cx="124.58015267175571" cy="0" r="3" fill="#2563eb"></circle><circle class="dot" cx="126.412213740458" cy="0" r="3" fill="#2563eb"></circle><circle class="dot" cx="128.24427480916032" cy="0" r="3" fill="#2563eb"></circle><circle class="dot" cx="130.0763358778626" cy="0" r="3" fill="#2563eb"></circle><circle class="dot" cx="131.9083969465649" cy="0" r="3" fill="#2563eb"></circle><circle class="dot" cx="133.74045801526717" cy="0" r="3" fill="#2563eb"></circle><circle class="dot" cx="135.57251908396947" cy="0" r="3" fill="#2563eb"></circle><circle class="dot" cx="137.40458015267177" cy="0" r="3" fill="#2563eb"></circle><circle class="dot" cx="139.23664122137404" cy="0" r="3" fill="#2563eb"></circle><circle class="dot" cx="141.06870229007635" cy="0" r="3" fill="#2563eb"></circle><circle class="dot" cx="142.90076335877862" cy="0" r="3" fill="#2563eb"></circle><circle class="dot" cx="144.73282442748092" cy="0" r="3" fill="#2563eb"></circle><circle class="dot" cx="146.5648854961832" cy="0" r="3" fill="#2563eb"></circle><circle class="dot" cx="148.3969465648855" cy="0" r="3" fill="#2563eb"></circle><circle class="dot" cx="150.2290076335878" cy="0" r="3" fill="#2563eb"></circle><circle class="dot" cx="152.06106870229007" cy="0" r="3" fill="#2563eb"></circle><circle class="dot" cx="153.89312977099237" cy="0" r="3" fill="#2563eb"></circle><circle class="dot" cx="155.72519083969465" cy="0" r="3" fill="#2563eb"></circle><circle class="dot" cx="157.55725190839695" cy="0" r="3" fill="#2563eb"></circle><circle class="dot" cx="159.38931297709925" cy="0" r="3" fill="#2563eb"></circle><circle class="dot" cx="161.22137404580153" cy="0" r="3" fill="#2563eb"></circle><circle class="dot" cx="163.05343511450383" cy="0" r="3" fill="#2563eb"></circle><circle class="dot" cx="164.8854961832061" cy="0" r="3" fill="#2563eb"></circle><circle class="dot" cx="166.71755725190837" cy="0" r="3" fill="#2563eb"></circle><circle class="dot" cx="168.5496183206107" cy="0" r="3" fill="#2563eb"></circle><circle class="dot" cx="170.38167938931298" cy="0" r="3" fill="#2563eb"></circle><circle class="dot" cx="172.21374045801528" cy="0" r="3" fill="#2563eb"></circle><circle class="dot" cx="174.04580152671755" cy="0" r="3" fill="#2563eb"></circle><circle class="dot" cx="175.87786259541983" cy="0" r="3" fill="#2563eb"></circle><circle class="dot" cx="177.70992366412216" cy="340" r="3" fill="#2563eb"></circle><circle class="dot" cx="179.54198473282443" cy="340" r="3" fill="#2563eb"></circle><circle class="dot" cx="181.3740458015267" cy="340" r="3" fill="#2563eb"></circle><circle class="dot" cx="183.206106870229" cy="340" r="3" fill="#2563eb"></circle><circle class="dot" cx="185.0381679389313" cy="340" r="3" fill="#2563eb"></circle><circle class="dot" cx="186.87022900763358" cy="340" r="3" fill="#2563eb"></circle><circle class="dot" cx="188.70229007633588" cy="340" r="3" fill="#2563eb"></circle><circle class="dot" cx="190.53435114503816" cy="340" r="3" fill="#2563eb"></circle><circle class="dot" cx="192.36641221374046" cy="0" r="3" fill="#2563eb"></circle><circle class="dot" cx="194.19847328244276" cy="0" r="3" fill="#2563eb"></circle><circle class="dot" cx="196.03053435114504" cy="0" r="3" fill="#2563eb"></circle><circle class="dot" cx="197.86259541984734" cy="0" r="3" fill="#2563eb"></circle><circle class="dot" cx="199.6946564885496" cy="0" r="3" fill="#2563eb"></circle><circle class="dot" cx="201.5267175572519" cy="0" r="3" fill="#2563eb"></circle><circle class="dot" cx="203.35877862595422" cy="0" r="3" fill="#2563eb"></circle><circle class="dot" cx="205.1908396946565" cy="0" r="3" fill="#2563eb"></circle><circle class="dot" cx="207.0229007633588" cy="0" r="3" fill="#2563eb"></circle><circle class="dot" cx="208.85496183206106" cy="0" r="3" fill="#2563eb"></circle><circle class="dot" cx="210.68702290076337" cy="0" r="3" fill="#2563eb"></circle><circle class="dot" cx="212.51908396946564" cy="0" r="3" fill="#2563eb"></circle><circle class="dot" cx="214.35114503816794" cy="0" r="3" fill="#2563eb"></circle><circle class="dot" cx="216.18320610687024" cy="0" r="3" fill="#2563eb"></circle><circle class="dot" cx="218.01526717557252" cy="0" r="3" fill="#2563eb"></circle><circle class="dot" cx="219.84732824427482" cy="0" r="3" fill="#2563eb"></circle><circle class="dot" cx="221.6793893129771" cy="0" r="3" fill="#2563eb"></circle><circle class="dot" cx="223.5114503816794" cy="0" r="3" fill="#2563eb"></circle><circle class="dot" cx="225.3435114503817" cy="0" r="3" fill="#2563eb"></circle><circle class="dot" cx="227.17557251908397" cy="0" r="3" fill="#2563eb"></circle><circle class="dot" cx="229.00763358778627" cy="0" r="3" fill="#2563eb"></circle><circle class="dot" cx="230.83969465648855" cy="0" r="3" fill="#2563eb"></circle><circle class="dot" cx="232.67175572519085" cy="0" r="3" fill="#2563eb"></circle><circle class="dot" cx="234.50381679389315" cy="0" r="3" fill="#2563eb"></circle><circle class="dot" cx="236.33587786259542" cy="0" r="3" fill="#2563eb"></circle><circle class="dot" cx="238.16793893129773" cy="0" r="3" fill="#2563eb"></circle><circle class="dot" cx="240" cy="0" r="3" fill="#2563eb"></circle><circle class="dot" cx="241.8320610687023" cy="0" r="3" fill="#2563eb"></circle><circle class="dot" cx="243.6641221374046" cy="0" r="3" fill="#2563eb"></circle><circle class="dot" cx="245.49618320610688" cy="0" r="3" fill="#2563eb"></circle><circle class="dot" cx="247.32824427480918" cy="0" r="3" fill="#2563eb"></circle><circle class="dot" cx="249.16030534351142" cy="0" r="3" fill="#2563eb"></circle><circle class="dot" cx="250.99236641221376" cy="0" r="3" fill="#2563eb"></circle><circle class="dot" cx="252.824427480916" cy="0" r="3" fill="#2563eb"></circle><circle class="dot" cx="254.65648854961833" cy="0" r="3" fill="#2563eb"></circle><circle class="dot" cx="256.48854961832063" cy="0" r="3" fill="#2563eb"></circle><circle class="dot" cx="258.3206106870229" cy="0" r="3" fill="#2563eb"></circle><circle class="dot" cx="260.1526717557252" cy="0" r="3" fill="#2563eb"></circle><circle class="dot" cx="261.98473282442745" cy="0" r="3" fill="#2563eb"></circle><circle class="dot" cx="263.8167938931298" cy="0" r="3" fill="#2563eb"></circle><circle class="dot" cx="265.64885496183206" cy="0" r="3" fill="#2563eb"></circle><circle class="dot" cx="267.48091603053433" cy="0" r="3" fill="#2563eb"></circle><circle class="dot" cx="269.31297709923666" cy="0" r="3" fill="#2563eb"></circle><circle class="dot" cx="271.14503816793894" cy="0" r="3" fill="#2563eb"></circle><circle class="dot" cx="272.9770992366412" cy="0" r="3" fill="#2563eb"></circle><circle class="dot" cx="274.80916030534354" cy="0" r="3" fill="#2563eb"></circle><circle class="dot" cx="276.6412213740458" cy="0" r="3" fill="#2563eb"></circle><circle class="dot" cx="278.4732824427481" cy="0" r="3" fill="#2563eb"></circle><circle class="dot" cx="280.30534351145036" cy="0" r="3" fill="#2563eb"></circle><circle class="dot" cx="282.1374045801527" cy="0" r="3" fill="#2563eb"></circle><circle class="dot" cx="283.96946564885496" cy="0" r="3" fill="#2563eb"></circle><circle class="dot" cx="285.80152671755724" cy="0" r="3" fill="#2563eb"></circle><circle class="dot" cx="287.63358778625957" cy="0" r="3" fill="#2563eb"></circle><circle class="dot" cx="289.46564885496184" cy="0" r="3" fill="#2563eb"></circle><circle class="dot" cx="291.2977099236641" cy="0" r="3" fill="#2563eb"></circle><circle class="dot" cx="293.1297709923664" cy="0" r="3" fill="#2563eb"></circle><circle class="dot" cx="294.9618320610687" cy="0" r="3" fill="#2563eb"></circle><circle class="dot" cx="296.793893129771" cy="0" r="3" fill="#2563eb"></circle><circle class="dot" cx="298.62595419847327" cy="0" r="3" fill="#2563eb"></circle><circle class="dot" cx="300.4580152671756" cy="0" r="3" fill="#2563eb"></circle><circle class="dot" cx="302.29007633587787" cy="0" r="3" fill="#2563eb"></circle><circle class="dot" cx="304.12213740458014" cy="0" r="3" fill="#2563eb"></circle><circle class="dot" cx="305.9541984732825" cy="0" r="3" fill="#2563eb"></circle><circle class="dot" cx="307.78625954198475" cy="0" r="3" fill="#2563eb"></circle><circle class="dot" cx="309.618320610687" cy="0" r="3" fill="#2563eb"></circle><circle class="dot" cx="311.4503816793893" cy="0" r="3" fill="#2563eb"></circle><circle class="dot" cx="313.2824427480916" cy="0" r="3" fill="#2563eb"></circle><circle class="dot" cx="315.1145038167939" cy="0" r="3" fill="#2563eb"></circle><circle class="dot" cx="316.9465648854962" cy="0" r="3" fill="#2563eb"></circle><circle class="dot" cx="318.7786259541985" cy="0" r="3" fill="#2563eb"></circle><circle class="dot" cx="320.6106870229008" cy="0" r="3" fill="#2563eb"></circle><circle class="dot" cx="322.44274809160305" cy="0" r="3" fill="#2563eb"></circle><circle class="dot" cx="324.2748091603053" cy="0" r="3" fill="#2563eb"></circle><circle class="dot" cx="326.10687022900765" cy="0" r="3" fill="#2563eb"></circle><circle class="dot" cx="327.9389312977099" cy="0" r="3" fill="#2563eb"></circle><circle class="dot" cx="329.7709923664122" cy="0" r="3" fill="#2563eb"></circle><circle class="dot" cx="331.60305343511453" cy="0" r="3" fill="#2563eb"></circle><circle class="dot" cx="333.43511450381675" cy="0" r="3" fill="#2563eb"></circle><circle class="dot" cx="335.2671755725191" cy="0" r="3" fill="#2563eb"></circle><circle class="dot" cx="337.0992366412214" cy="0" r="3" fill="#2563eb"></circle><circle class="dot" cx="338.9312977099237" cy="0" r="3" fill="#2563eb"></circle><circle class="dot" cx="340.76335877862596" cy="0" r="3" fill="#2563eb"></circle><circle class="dot" cx="342.59541984732823" cy="0" r="3" fill="#2563eb"></circle><circle class="dot" cx="344.42748091603056" cy="0" r="3" fill="#2563eb"></circle><circle class="dot" cx="346.25954198473283" cy="0" r="3" fill="#2563eb"></circle><circle class="dot" cx="348.0916030534351" cy="0" r="3" fill="#2563eb"></circle><circle class="dot" cx="349.92366412213744" cy="0" r="3" fill="#2563eb"></circle><circle class="dot" cx="351.75572519083966" cy="0" r="3" fill="#2563eb"></circle><circle class="dot" cx="353.587786259542" cy="0" r="3" fill="#2563eb"></circle><circle class="dot" cx="355.4198473282443" cy="0" r="3" fill="#2563eb"></circle><circle class="dot" cx="357.25190839694653" cy="0" r="3" fill="#2563eb"></circle><circle class="dot" cx="359.08396946564886" cy="0" r="3" fill="#2563eb"></circle><circle class="dot" cx="360.91603053435114" cy="0" r="3" fill="#2563eb"></circle><circle class="dot" cx="362.7480916030534" cy="0" r="3" fill="#2563eb"></circle><circle class="dot" cx="364.58015267175574" cy="0" r="3" fill="#2563eb"></circle><circle class="dot" cx="366.412213740458" cy="0" r="3" fill="#2563eb"></circle><circle class="dot" cx="368.2442748091603" cy="0" r="3" fill="#2563eb"></circle><circle class="dot" cx="370.0763358778626" cy="0" r="3" fill="#2563eb"></circle><circle class="dot" cx="371.9083969465649" cy="0" r="3" fill="#2563eb"></circle><circle class="dot" cx="373.74045801526717" cy="0" r="3" fill="#2563eb"></circle><circle class="dot" cx="375.5725190839695" cy="0" r="3" fill="#2563eb"></circle><circle class="dot" cx="377.40458015267177" cy="0" r="3" fill="#2563eb"></circle><circle class="dot" cx="379.23664122137404" cy="0" r="3" fill="#2563eb"></circle><circle class="dot" cx="381.0687022900763" cy="0" r="3" fill="#2563eb"></circle><circle class="dot" cx="382.90076335877865" cy="0" r="3" fill="#2563eb"></circle><circle class="dot" cx="384.7328244274809" cy="0" r="3" fill="#2563eb"></circle><circle class="dot" cx="386.5648854961832" cy="0" r="3" fill="#2563eb"></circle><circle class="dot" cx="388.3969465648855" cy="0" r="3" fill="#2563eb"></circle><circle class="dot" cx="390.2290076335878" cy="0" r="3" fill="#2563eb"></circle><circle class="dot" cx="392.0610687022901" cy="0" r="3" fill="#2563eb"></circle><circle class="dot" cx="393.89312977099235" cy="0" r="3" fill="#2563eb"></circle><circle class="dot" cx="395.7251908396947" cy="0" r="3" fill="#2563eb"></circle><circle class="dot" cx="397.55725190839695" cy="0" r="3" fill="#2563eb"></circle><circle class="dot" cx="399.3893129770992" cy="0" r="3" fill="#2563eb"></circle><circle class="dot" cx="401.22137404580155" cy="0" r="3" fill="#2563eb"></circle><circle class="dot" cx="403.0534351145038" cy="0" r="3" fill="#2563eb"></circle><circle class="dot" cx="404.8854961832061" cy="0" r="3" fill="#2563eb"></circle><circle class="dot" cx="406.71755725190843" cy="0" r="3" fill="#2563eb"></circle><circle class="dot" cx="408.5496183206107" cy="0" r="3" fill="#2563eb"></circle><circle class="dot" cx="410.381679389313" cy="0" r="3" fill="#2563eb"></circle><circle class="dot" cx="412.21374045801525" cy="0" r="3" fill="#2563eb"></circle><circle class="dot" cx="414.0458015267176" cy="0" r="3" fill="#2563eb"></circle><circle class="dot" cx="415.87786259541986" cy="0" r="3" fill="#2563eb"></circle><circle class="dot" cx="417.70992366412213" cy="0" r="3" fill="#2563eb"></circle><circle class="dot" cx="419.54198473282446" cy="0" r="3" fill="#2563eb"></circle><circle class="dot" cx="421.37404580152673" cy="0" r="3" fill="#2563eb"></circle><circle class="dot" cx="423.206106870229" cy="0" r="3" fill="#2563eb"></circle><circle class="dot" cx="425.0381679389313" cy="0" r="3" fill="#2563eb"></circle><circle class="dot" cx="426.8702290076336" cy="0" r="3" fill="#2563eb"></circle><circle class="dot" cx="428.7022900763359" cy="0" r="3" fill="#2563eb"></circle><circle class="dot" cx="430.53435114503816" cy="0" r="3" fill="#2563eb"></circle><circle class="dot" cx="432.3664122137405" cy="0" r="3" fill="#2563eb"></circle><circle class="dot" cx="434.19847328244276" cy="0" r="3" fill="#2563eb"></circle><circle class="dot" cx="436.03053435114504" cy="0" r="3" fill="#2563eb"></circle><circle class="dot" cx="437.86259541984737" cy="0" r="3" fill="#2563eb"></circle><circle class="dot" cx="439.69465648854964" cy="0" r="3" fill="#2563eb"></circle><circle class="dot" cx="441.5267175572519" cy="0" r="3" fill="#2563eb"></circle><circle class="dot" cx="443.3587786259542" cy="0" r="3" fill="#2563eb"></circle><circle class="dot" cx="445.1908396946565" cy="0" r="3" fill="#2563eb"></circle><circle class="dot" cx="447.0229007633588" cy="0" r="3" fill="#2563eb"></circle><circle class="dot" cx="448.85496183206106" cy="0" r="3" fill="#2563eb"></circle><circle class="dot" cx="450.6870229007634" cy="0" r="3" fill="#2563eb"></circle><circle class="dot" cx="452.51908396946567" cy="0" r="3" fill="#2563eb"></circle><circle class="dot" cx="454.35114503816794" cy="0" r="3" fill="#2563eb"></circle><circle class="dot" cx="456.1832061068702" cy="0" r="3" fill="#2563eb"></circle><circle class="dot" cx="458.01526717557255" cy="0" r="3" fill="#2563eb"></circle><circle class="dot" cx="459.8473282442748" cy="0" r="3" fill="#2563eb"></circle><circle class="dot" cx="461.6793893129771" cy="0" r="3" fill="#2563eb"></circle><circle class="dot" cx="463.5114503816794" cy="0" r="3" fill="#2563eb"></circle><circle class="dot" cx="465.3435114503817" cy="0" r="3" fill="#2563eb"></circle><circle class="dot" cx="467.17557251908397" cy="0" r="3" fill="#2563eb"></circle><circle class="dot" cx="469.0076335877863" cy="0" r="3" fill="#2563eb"></circle><circle class="dot" cx="470.8396946564886" cy="0" r="3" fill="#2563eb"></circle><circle class="dot" cx="472.67175572519085" cy="0" r="3" fill="#2563eb"></circle><circle class="dot" cx="474.50381679389307" cy="0" r="3" fill="#2563eb"></circle><circle class="dot" cx="476.33587786259545" cy="0" r="3" fill="#2563eb"></circle><circle class="dot" cx="478.1679389312977" cy="0" r="3" fill="#2563eb"></circle><circle class="dot" cx="480" cy="0" r="3" fill="#2563eb"></circle><circle class="dot" cx="481.83206106870233" cy="0" r="3" fill="#2563eb"></circle><circle class="dot" cx="483.6641221374046" cy="0" r="3" fill="#2563eb"></circle><circle class="dot" cx="485.4961832061069" cy="0" r="3" fill="#2563eb"></circle><circle class="dot" cx="487.3282442748092" cy="0" r="3" fill="#2563eb"></circle><circle class="dot" cx="489.1603053435115" cy="0" r="3" fill="#2563eb"></circle><circle class="dot" cx="490.99236641221376" cy="0" r="3" fill="#2563eb"></circle><circle class="dot" cx="492.824427480916" cy="0" r="3" fill="#2563eb"></circle><circle class="dot" cx="494.65648854961836" cy="0" r="3" fill="#2563eb"></circle><circle class="dot" cx="496.48854961832063" cy="0" r="3" fill="#2563eb"></circle><circle class="dot" cx="498.32061068702285" cy="0" r="3" fill="#2563eb"></circle><circle class="dot" cx="500.15267175572524" cy="0" r="3" fill="#2563eb"></circle><circle class="dot" cx="501.9847328244275" cy="0" r="3" fill="#2563eb"></circle><circle class="dot" cx="503.8167938931298" cy="0" r="3" fill="#2563eb"></circle><circle class="dot" cx="505.648854961832" cy="0" r="3" fill="#2563eb"></circle><circle class="dot" cx="507.4809160305344" cy="0" r="3" fill="#2563eb"></circle><circle class="dot" cx="509.31297709923666" cy="0" r="3" fill="#2563eb"></circle><circle class="dot" cx="511.1450381679389" cy="0" r="3" fill="#2563eb"></circle><circle class="dot" cx="512.9770992366413" cy="0" r="3" fill="#2563eb"></circle><circle class="dot" cx="514.8091603053435" cy="0" r="3" fill="#2563eb"></circle><circle class="dot" cx="516.6412213740458" cy="0" r="3" fill="#2563eb"></circle><circle class="dot" cx="518.4732824427481" cy="0" r="3" fill="#2563eb"></circle><circle class="dot" cx="520.3053435114504" cy="0" r="3" fill="#2563eb"></circle><circle class="dot" cx="522.1374045801526" cy="0" r="3" fill="#2563eb"></circle><circle class="dot" cx="523.9694656488549" cy="0" r="3" fill="#2563eb"></circle><circle class="dot" cx="525.8015267175573" cy="0" r="3" fill="#2563eb"></circle><circle class="dot" cx="527.6335877862596" cy="0" r="3" fill="#2563eb"></circle><circle class="dot" cx="529.4656488549618" cy="0" r="3" fill="#2563eb"></circle><circle class="dot" cx="531.2977099236641" cy="0" r="3" fill="#2563eb"></circle><circle class="dot" cx="533.1297709923664" cy="0" r="3" fill="#2563eb"></circle><circle class="dot" cx="534.9618320610687" cy="0" r="3" fill="#2563eb"></circle><circle class="dot" cx="536.7938931297709" cy="0" r="3" fill="#2563eb"></circle><circle class="dot" cx="538.6259541984733" cy="0" r="3" fill="#2563eb"></circle><circle class="dot" cx="540.4580152671756" cy="0" r="3" fill="#2563eb"></circle><circle class="dot" cx="542.2900763358779" cy="0" r="3" fill="#2563eb"></circle><circle class="dot" cx="544.1221374045801" cy="0" r="3" fill="#2563eb"></circle><circle class="dot" cx="545.9541984732824" cy="0" r="3" fill="#2563eb"></circle><circle class="dot" cx="547.7862595419847" cy="0" r="3" fill="#2563eb"></circle><circle class="dot" cx="549.6183206106871" cy="0" r="3" fill="#2563eb"></circle><circle class="dot" cx="551.4503816793894" cy="0" r="3" fill="#2563eb"></circle><circle class="dot" cx="553.2824427480916" cy="0" r="3" fill="#2563eb"></circle><circle class="dot" cx="555.1145038167939" cy="0" r="3" fill="#2563eb"></circle><circle class="dot" cx="556.9465648854962" cy="0" r="3" fill="#2563eb"></circle><circle class="dot" cx="558.7786259541984" cy="0" r="3" fill="#2563eb"></circle><circle class="dot" cx="560.6106870229007" cy="0" r="3" fill="#2563eb"></circle><circle class="dot" cx="562.4427480916031" cy="0" r="3" fill="#2563eb"></circle><circle class="dot" cx="564.2748091603054" cy="0" r="3" fill="#2563eb"></circle><circle class="dot" cx="566.1068702290077" cy="0" r="3" fill="#2563eb"></circle><circle class="dot" cx="567.9389312977099" cy="0" r="3" fill="#2563eb"></circle><circle class="dot" cx="569.7709923664122" cy="0" r="3" fill="#2563eb"></circle><circle class="dot" cx="571.6030534351145" cy="0" r="3" fill="#2563eb"></circle><circle class="dot" cx="573.4351145038167" cy="0" r="3" fill="#2563eb"></circle><circle class="dot" cx="575.2671755725191" cy="0" r="3" fill="#2563eb"></circle><circle class="dot" cx="577.0992366412214" cy="0" r="3" fill="#2563eb"></circle><circle class="dot" cx="578.9312977099237" cy="0" r="3" fill="#2563eb"></circle><circle class="dot" cx="580.763358778626" cy="0" r="3" fill="#2563eb"></circle><circle class="dot" cx="582.5954198473282" cy="0" r="3" fill="#2563eb"></circle><circle class="dot" cx="584.4274809160305" cy="0" r="3" fill="#2563eb"></circle><circle class="dot" cx="586.2595419847328" cy="0" r="3" fill="#2563eb"></circle><circle class="dot" cx="588.0916030534352" cy="0" r="3" fill="#2563eb"></circle><circle class="dot" cx="589.9236641221374" cy="0" r="3" fill="#2563eb"></circle><circle class="dot" cx="591.7557251908397" cy="0" r="3" fill="#2563eb"></circle><circle class="dot" cx="593.587786259542" cy="0" r="3" fill="#2563eb"></circle><circle class="dot" cx="595.4198473282443" cy="0" r="3" fill="#2563eb"></circle><circle class="dot" cx="597.2519083969465" cy="0" r="3" fill="#2563eb"></circle><circle class="dot" cx="599.0839694656489" cy="0" r="3" fill="#2563eb"></circle><circle class="dot" cx="600.9160305343512" cy="0" r="3" fill="#2563eb"></circle><circle class="dot" cx="602.7480916030535" cy="0" r="3" fill="#2563eb"></circle><circle class="dot" cx="604.5801526717557" cy="0" r="3" fill="#2563eb"></circle><circle class="dot" cx="606.412213740458" cy="0" r="3" fill="#2563eb"></circle><circle class="dot" cx="608.2442748091603" cy="0" r="3" fill="#2563eb"></circle><circle class="dot" cx="610.0763358778626" cy="0" r="3" fill="#2563eb"></circle><circle class="dot" cx="611.908396946565" cy="0" r="3" fill="#2563eb"></circle><circle class="dot" cx="613.7404580152672" cy="0" r="3" fill="#2563eb"></circle><circle class="dot" cx="615.5725190839695" cy="0" r="3" fill="#2563eb"></circle><circle class="dot" cx="617.4045801526718" cy="0" r="3" fill="#2563eb"></circle><circle class="dot" cx="619.236641221374" cy="0" r="3" fill="#2563eb"></circle><circle class="dot" cx="621.0687022900763" cy="0" r="3" fill="#2563eb"></circle><circle class="dot" cx="622.9007633587786" cy="0" r="3" fill="#2563eb"></circle><circle class="dot" cx="624.732824427481" cy="0" r="3" fill="#2563eb"></circle><circle class="dot" cx="626.5648854961833" cy="0" r="3" fill="#2563eb"></circle><circle class="dot" cx="628.3969465648855" cy="0" r="3" fill="#2563eb"></circle><circle class="dot" cx="630.2290076335878" cy="0" r="3" fill="#2563eb"></circle><circle class="dot" cx="632.0610687022901" cy="0" r="3" fill="#2563eb"></circle><circle class="dot" cx="633.8931297709923" cy="0" r="3" fill="#2563eb"></circle><circle class="dot" cx="635.7251908396946" cy="0" r="3" fill="#2563eb"></circle><circle class="dot" cx="637.557251908397" cy="0" r="3" fill="#2563eb"></circle><circle class="dot" cx="639.3893129770993" cy="0" r="3" fill="#2563eb"></circle><circle class="dot" cx="641.2213740458016" cy="0" r="3" fill="#2563eb"></circle><circle class="dot" cx="643.0534351145038" cy="0" r="3" fill="#2563eb"></circle><circle class="dot" cx="644.8854961832061" cy="0" r="3" fill="#2563eb"></circle><circle class="dot" cx="646.7175572519084" cy="0" r="3" fill="#2563eb"></circle><circle class="dot" cx="648.5496183206106" cy="0" r="3" fill="#2563eb"></circle><circle class="dot" cx="650.381679389313" cy="0" r="3" fill="#2563eb"></circle><circle class="dot" cx="652.2137404580153" cy="0" r="3" fill="#2563eb"></circle><circle class="dot" cx="654.0458015267176" cy="0" r="3" fill="#2563eb"></circle><circle class="dot" cx="655.8778625954199" cy="0" r="3" fill="#2563eb"></circle><circle class="dot" cx="657.7099236641221" cy="0" r="3" fill="#2563eb"></circle><circle class="dot" cx="659.5419847328244" cy="0" r="3" fill="#2563eb"></circle><circle class="dot" cx="661.3740458015268" cy="0" r="3" fill="#2563eb"></circle><circle class="dot" cx="663.2061068702291" cy="0" r="3" fill="#2563eb"></circle><circle class="dot" cx="665.0381679389313" cy="0" r="3" fill="#2563eb"></circle><circle class="dot" cx="666.8702290076335" cy="0" r="3" fill="#2563eb"></circle><circle class="dot" cx="668.7022900763359" cy="0" r="3" fill="#2563eb"></circle><circle class="dot" cx="670.5343511450382" cy="0" r="3" fill="#2563eb"></circle><circle class="dot" cx="672.3664122137404" cy="0" r="3" fill="#2563eb"></circle><circle class="dot" cx="674.1984732824428" cy="0" r="3" fill="#2563eb"></circle><circle class="dot" cx="676.0305343511451" cy="0" r="3" fill="#2563eb"></circle><circle class="dot" cx="677.8625954198474" cy="0" r="3" fill="#2563eb"></circle><circle class="dot" cx="679.6946564885496" cy="0" r="3" fill="#2563eb"></circle><circle class="dot" cx="681.5267175572519" cy="0" r="3" fill="#2563eb"></circle><circle class="dot" cx="683.3587786259542" cy="0" r="3" fill="#2563eb"></circle><circle class="dot" cx="685.1908396946565" cy="0" r="3" fill="#2563eb"></circle><circle class="dot" cx="687.0229007633588" cy="0" r="3" fill="#2563eb"></circle><circle class="dot" cx="688.8549618320611" cy="0" r="3" fill="#2563eb"></circle><circle class="dot" cx="690.6870229007633" cy="0" r="3" fill="#2563eb"></circle><circle class="dot" cx="692.5190839694657" cy="0" r="3" fill="#2563eb"></circle><circle class="dot" cx="694.3511450381679" cy="0" r="3" fill="#2563eb"></circle><circle class="dot" cx="696.1832061068702" cy="0" r="3" fill="#2563eb"></circle><circle class="dot" cx="698.0152671755725" cy="0" r="3" fill="#2563eb"></circle><circle class="dot" cx="699.8473282442749" cy="0" r="3" fill="#2563eb"></circle><circle class="dot" cx="701.6793893129772" cy="0" r="3" fill="#2563eb"></circle><circle class="dot" cx="703.5114503816793" cy="0" r="3" fill="#2563eb"></circle><circle class="dot" cx="705.3435114503817" cy="0" r="3" fill="#2563eb"></circle><circle class="dot" cx="707.175572519084" cy="0" r="3" fill="#2563eb"></circle><circle class="dot" cx="709.0076335877862" cy="0" r="3" fill="#2563eb"></circle><circle class="dot" cx="710.8396946564886" cy="0" r="3" fill="#2563eb"></circle><circle class="dot" cx="712.6717557251909" cy="0" r="3" fill="#2563eb"></circle><circle class="dot" cx="714.5038167938931" cy="0" r="3" fill="#2563eb"></circle><circle class="dot" cx="716.3358778625953" cy="0" r="3" fill="#2563eb"></circle><circle class="dot" cx="718.1679389312977" cy="0" r="3" fill="#2563eb"></circle><circle class="dot" cx="720" cy="0" r="3" fill="#2563eb"></circle><g class="grid" transform="translate(0,340)" fill="none" font-size="10" font-family="sans-serif" text-anchor="middle" style="stroke-dasharray: 3,3; opacity: 0.3;"><path class="domain" stroke="currentColor" d="M0.5,-340V0.5H720.5V-340"></path><g class="tick" opacity="1" transform="translate(0.5,0)"><line stroke="currentColor" y2="-340"></line><text fill="currentColor" y="3" dy="0.71em"></text></g><g class="tick" opacity="1" transform="translate(44.46946564885496,0)"><line stroke="currentColor" y2="-340"></line><text fill="currentColor" y="3" dy="0.71em"></text></g><g class="tick" opacity="1" transform="translate(88.43893129770991,0)"><line stroke="currentColor" y2="-340"></line><text fill="currentColor" y="3" dy="0.71em"></text></g><g class="tick" opacity="1" transform="translate(132.4083969465649,0)"><line stroke="currentColor" y2="-340"></line><text fill="currentColor" y="3" dy="0.71em"></text></g><g class="tick" opacity="1" transform="translate(176.37786259541983,0)"><line stroke="currentColor" y2="-340"></line><text fill="currentColor" y="3" dy="0.71em"></text></g><g class="tick" opacity="1" transform="translate(220.34732824427482,0)"><line stroke="currentColor" y2="-340"></line><text fill="currentColor" y="3" dy="0.71em"></text></g><g class="tick" opacity="1" transform="translate(264.3167938931298,0)"><line stroke="currentColor" y2="-340"></line><text fill="currentColor" y="3" dy="0.71em"></text></g><g class="tick" opacity="1" transform="translate(308.28625954198475,0)"><line stroke="currentColor" y2="-340"></line><text fill="currentColor" y="3" dy="0.71em"></text></g><g class="tick" opacity="1" transform="translate(352.25572519083966,0)"><line stroke="currentColor" y2="-340"></line><text fill="currentColor" y="3" dy="0.71em"></text></g><g class="tick" opacity="1" transform="translate(396.2251908396947,0)"><line stroke="currentColor" y2="-340"></line><text fill="currentColor" y="3" dy="0.71em"></text></g><g class="tick" opacity="1" transform="translate(440.19465648854964,0)"><line stroke="currentColor" y2="-340"></line><text fill="currentColor" y="3" dy="0.71em"></text></g><g class="tick" opacity="1" transform="translate(484.1641221374046,0)"><line stroke="currentColor" y2="-340"></line><text fill="currentColor" y="3" dy="0.71em"></text></g><g class="tick" opacity="1" transform="translate(528.1335877862596,0)"><line stroke="currentColor" y2="-340"></line><text fill="currentColor" y="3" dy="0.71em"></text></g><g class="tick" opacity="1" transform="translate(572.1030534351145,0)"><line stroke="currentColor" y2="-340"></line><text fill="currentColor" y="3" dy="0.71em"></text></g><g class="tick" opacity="1" transform="translate(616.0725190839695,0)"><line stroke="currentColor" y2="-340"></line><text fill="currentColor" y="3" dy="0.71em"></text></g><g class="tick" opacity="1" transform="translate(660.0419847328244,0)"><line stroke="currentColor" y2="-340"></line><text fill="currentColor" y="3" dy="0.71em"></text></g><g class="tick" opacity="1" transform="translate(704.0114503816793,0)"><line stroke="currentColor" y2="-340"></line><text fill="currentColor" y="3" dy="0.71em"></text></g></g><g class="grid" fill="none" font-size="10" font-family="sans-serif" text-anchor="end" style="stroke-dasharray: 3,3; opacity: 0.3;"><path class="domain" stroke="currentColor" d="M720,340.5H0.5V0.5H720"></path><g class="tick" opacity="1" transform="translate(0,340.5)"><line stroke="currentColor" x2="720"></line><text fill="currentColor" x="-3" dy="0.32em"></text></g><g class="tick" opacity="1" transform="translate(0,306.5)"><line stroke="currentColor" x2="720"></line><text fill="currentColor" x="-3" dy="0.32em"></text></g><g class="tick" opacity="1" transform="translate(0,272.5)"><line stroke="currentColor" x2="720"></line><text fill="currentColor" x="-3" dy="0.32em"></text></g><g class="tick" opacity="1" transform="translate(0,238.49999999999997)"><line stroke="currentColor" x2="720"></line><text fill="currentColor" x="-3" dy="0.32em"></text></g><g class="tick" opacity="1" transform="translate(0,204.50000000000003)"><line stroke="currentColor" x2="720"></line><text fill="currentColor" x="-3" dy="0.32em"></text></g><g class="tick" opacity="1" transform="translate(0,170.49999999999997)"><line stroke="currentColor" x2="720"></line><text fill="currentColor" x="-3" dy="0.32em"></text></g><g class="tick" opacity="1" transform="translate(0,136.5)"><line stroke="currentColor" x2="720"></line><text fill="currentColor" x="-3" dy="0.32em"></text></g><g class="tick" opacity="1" transform="translate(0,102.49999999999997)"><line stroke="currentColor" x2="720"></line><text fill="currentColor" x="-3" dy="0.32em"></text></g><g class="tick" opacity="1" transform="translate(0,68.49999999999994)"><line stroke="currentColor" x2="720"></line><text fill="currentColor" x="-3" dy="0.32em"></text></g><g class="tick" opacity="1" transform="translate(0,34.499999999999915)"><line stroke="currentColor" x2="720"></line><text fill="currentColor" x="-3" dy="0.32em"></text></g><g class="tick" opacity="1" transform="translate(0,0.5)"><line stroke="currentColor" x2="720"></line><text fill="currentColor" x="-3" dy="0.32em"></text></g></g></g><text x="400" y="10" text-anchor="middle" style="font-size: 16px; font-weight: bold; fill: #333;">OKX USDT Lending Rate - Current Month</text></svg>