<svg width="800" height="400" xmlns="http://www.w3.org/2000/svg"><g transform="translate(50,20)"><g transform="translate(0,340)" fill="none" font-size="10" font-family="sans-serif" text-anchor="middle"><path class="domain" stroke="currentColor" d="M0.5,6V0.5H720.5V6"></path><g class="tick" opacity="1" transform="translate(0.5,0)"><line stroke="currentColor" y2="6"></line><text fill="currentColor" y="9" dy=".15em" style="text-anchor: end;" dx="-.8em" transform="rotate(-45)">01/01</text></g><g class="tick" opacity="1" transform="translate(109.17924528301886,0)"><line stroke="currentColor" y2="6"></line><text fill="currentColor" y="9" dy=".15em" style="text-anchor: end;" dx="-.8em" transform="rotate(-45)">01/02</text></g><g class="tick" opacity="1" transform="translate(217.85849056603772,0)"><line stroke="currentColor" y2="6"></line><text fill="currentColor" y="9" dy=".15em" style="text-anchor: end;" dx="-.8em" transform="rotate(-45)">01/03</text></g><g class="tick" opacity="1" transform="translate(326.5377358490566,0)"><line stroke="currentColor" y2="6"></line><text fill="currentColor" y="9" dy=".15em" style="text-anchor: end;" dx="-.8em" transform="rotate(-45)">01/04</text></g><g class="tick" opacity="1" transform="translate(435.21698113207543,0)"><line stroke="currentColor" y2="6"></line><text fill="currentColor" y="9" dy=".15em" style="text-anchor: end;" dx="-.8em" transform="rotate(-45)">01/05</text></g><g class="tick" opacity="1" transform="translate(543.8962264150944,0)"><line stroke="currentColor" y2="6"></line><text fill="currentColor" y="9" dy=".15em" style="text-anchor: end;" dx="-.8em" transform="rotate(-45)">01/06</text></g><g class="tick" opacity="1" transform="translate(652.5754716981132,0)"><line stroke="currentColor" y2="6"></line><text fill="currentColor" y="9" dy=".15em" style="text-anchor: end;" dx="-.8em" transform="rotate(-45)">01/07</text></g></g><g fill="none" font-size="10" font-family="sans-serif" text-anchor="end"><path class="domain" stroke="currentColor" d="M-6,340.5H0.5V0.5H-6"></path><g class="tick" opacity="1" transform="translate(0,170.5)"><line stroke="currentColor" x2="-6"></line><text fill="currentColor" x="-9" dy="0.32em">3.20%</text></g></g><text transform="rotate(-90)" y="-50" x="-170" dy="1em" style="text-anchor: middle; font-size: 12px; fill: #666;">Pre Rate (%)</text><text transform="translate(360, 380)" style="text-anchor: middle; font-size: 12px; fill: #666;">Time (UTC)</text><path fill="none" stroke="#2563eb" stroke-width="2" d="M0,170C1.509,170,3.019,170,4.528,170C6.038,170,7.547,170,9.057,170C10.566,170,12.075,170,13.585,170C15.094,170,16.604,170,18.113,170C19.623,170,21.132,170,22.642,170C24.151,170,25.66,170,27.17,170C28.679,170,30.189,170,31.698,170C33.208,170,34.717,170,36.226,170C37.736,170,39.245,170,40.755,170C42.264,170,43.774,170,45.283,170C46.792,170,48.302,170,49.811,170C51.321,170,52.83,170,54.34,170C55.849,170,57.358,170,58.868,170C60.377,170,61.887,170,63.396,170C64.906,170,66.415,170,67.925,170C69.434,170,70.943,170,72.453,170C73.962,170,75.472,170,76.981,170C78.491,170,80,170,81.509,170C83.019,170,84.528,170,86.038,170C87.547,170,89.057,170,90.566,170C92.075,170,93.585,170,95.094,170C96.604,170,98.113,170,99.623,170C101.132,170,102.642,170,104.151,170C105.66,170,107.17,170,108.679,170C110.189,170,111.698,170,113.208,170C114.717,170,116.226,170,117.736,170C119.245,170,120.755,170,122.264,170C123.774,170,125.283,170,126.792,170C128.302,170,129.811,170,131.321,170C132.83,170,134.34,170,135.849,170C137.358,170,138.868,170,140.377,170C141.887,170,143.396,170,144.906,170C146.415,170,147.925,170,149.434,170C150.943,170,152.453,170,153.962,170C155.472,170,156.981,170,158.491,170C160,170,161.509,170,163.019,170C164.528,170,166.038,170,167.547,170C169.057,170,170.566,170,172.075,170C173.585,170,175.094,170,176.604,170C178.113,170,179.623,170,181.132,170C182.642,170,184.151,170,185.66,170C187.17,170,188.679,170,190.189,170C191.698,170,193.208,170,194.717,170C196.226,170,197.736,170,199.245,170C200.755,170,202.264,170,203.774,170C205.283,170,206.792,170,208.302,170C209.811,170,211.321,170,212.83,170C214.34,170,215.849,170,217.358,170C218.868,170,220.377,170,221.887,170C223.396,170,224.906,170,226.415,170C227.925,170,229.434,170,230.943,170C232.453,170,233.962,170,235.472,170C236.981,170,238.491,170,240,170C241.509,170,243.019,170,244.528,170C246.038,170,247.547,170,249.057,170C250.566,170,252.075,170,253.585,170C255.094,170,256.604,170,258.113,170C259.623,170,261.132,170,262.642,170C264.151,170,265.66,170,267.17,170C268.679,170,270.189,170,271.698,170C273.208,170,274.717,170,276.226,170C277.736,170,279.245,170,280.755,170C282.264,170,283.774,170,285.283,170C286.792,170,288.302,170,289.811,170C291.321,170,292.83,170,294.34,170C295.849,170,297.358,170,298.868,170C300.377,170,301.887,170,303.396,170C304.906,170,306.415,170,307.925,170C309.434,170,310.943,170,312.453,170C313.962,170,315.472,170,316.981,170C318.491,170,320,170,321.509,170C323.019,170,324.528,170,326.038,170C327.547,170,329.057,170,330.566,170C332.075,170,333.585,170,335.094,170C336.604,170,338.113,170,339.623,170C341.132,170,342.642,170,344.151,170C345.66,170,347.17,170,348.679,170C350.189,170,351.698,170,353.208,170C354.717,170,356.226,170,357.736,170C359.245,170,360.755,170,362.264,170C363.774,170,365.283,170,366.792,170C368.302,170,369.811,170,371.321,170C372.83,170,374.34,170,375.849,170C377.358,170,378.868,170,380.377,170C381.887,170,383.396,170,384.906,170C386.415,170,387.925,170,389.434,170C390.943,170,392.453,170,393.962,170C395.472,170,396.981,170,398.491,170C400,170,401.509,170,403.019,170C404.528,170,406.038,170,407.547,170C409.057,170,410.566,170,412.075,170C413.585,170,415.094,170,416.604,170C418.113,170,419.623,170,421.132,170C422.642,170,424.151,170,425.66,170C427.17,170,428.679,170,430.189,170C431.698,170,433.208,170,434.717,170C436.226,170,437.736,170,439.245,170C440.755,170,442.264,170,443.774,170C445.283,170,446.792,170,448.302,170C449.811,170,451.321,170,452.83,170C454.34,170,455.849,170,457.358,170C458.868,170,460.377,170,461.887,170C463.396,170,464.906,170,466.415,170C467.925,170,469.434,170,470.943,170C472.453,170,473.962,170,475.472,170C476.981,170,478.491,170,480,170C481.509,170,483.019,170,484.528,170C486.038,170,487.547,170,489.057,170C490.566,170,492.075,170,493.585,170C495.094,170,496.604,170,498.113,170C499.623,170,501.132,170,502.642,170C504.151,170,505.66,170,507.17,170C508.679,170,510.189,170,511.698,170C513.208,170,514.717,170,516.226,170C517.736,170,519.245,170,520.755,170C522.264,170,523.774,170,525.283,170C526.792,170,528.302,170,529.811,170C531.321,170,532.83,170,534.34,170C535.849,170,537.358,170,538.868,170C540.377,170,541.887,170,543.396,170C544.906,170,546.415,170,547.925,170C549.434,170,550.943,170,552.453,170C553.962,170,555.472,170,556.981,170C558.491,170,560,170,561.509,170C563.019,170,564.528,170,566.038,170C567.547,170,569.057,170,570.566,170C572.075,170,573.585,170,575.094,170C576.604,170,578.113,170,579.623,170C581.132,170,582.642,170,584.151,170C585.66,170,587.17,170,588.679,170C590.189,170,591.698,170,593.208,170C594.717,170,596.226,170,597.736,170C599.245,170,600.755,170,602.264,170C603.774,170,605.283,170,606.792,170C608.302,170,609.811,170,611.321,170C612.83,170,614.34,170,615.849,170C617.358,170,618.868,170,620.377,170C621.887,170,623.396,170,624.906,170C626.415,170,627.925,170,629.434,170C630.943,170,632.453,170,633.962,170C635.472,170,636.981,170,638.491,170C640,170,641.509,170,643.019,170C644.528,170,646.038,170,647.547,170C649.057,170,650.566,170,652.075,170C653.585,170,655.094,170,656.604,170C658.113,170,659.623,170,661.132,170C662.642,170,664.151,170,665.66,170C667.17,170,668.679,170,670.189,170C671.698,170,673.208,170,674.717,170C676.226,170,677.736,170,679.245,170C680.755,170,682.264,170,683.774,170C685.283,170,686.792,170,688.302,170C689.811,170,691.321,170,692.83,170C694.34,170,695.849,170,697.358,170C698.868,170,700.377,170,701.887,170C703.396,170,704.906,170,706.415,170C707.925,170,709.434,170,710.943,170C712.453,170,713.962,170,715.472,170C716.981,170,718.491,170,720,170"></path><circle class="dot" cx="0" cy="170" r="3" fill="#2563eb"></circle><circle class="dot" cx="4.528301886792453" cy="170" r="3" fill="#2563eb"></circle><circle class="dot" cx="9.056603773584905" cy="170" r="3" fill="#2563eb"></circle><circle class="dot" cx="13.584905660377357" cy="170" r="3" fill="#2563eb"></circle><circle class="dot" cx="18.11320754716981" cy="170" r="3" fill="#2563eb"></circle><circle class="dot" cx="22.641509433962263" cy="170" r="3" fill="#2563eb"></circle><circle class="dot" cx="27.169811320754715" cy="170" r="3" fill="#2563eb"></circle><circle class="dot" cx="31.698113207547166" cy="170" r="3" fill="#2563eb"></circle><circle class="dot" cx="36.22641509433962" cy="170" r="3" fill="#2563eb"></circle><circle class="dot" cx="40.75471698113208" cy="170" r="3" fill="#2563eb"></circle><circle class="dot" cx="45.283018867924525" cy="170" r="3" fill="#2563eb"></circle><circle class="dot" cx="49.81132075471698" cy="170" r="3" fill="#2563eb"></circle><circle class="dot" cx="54.33962264150943" cy="170" r="3" fill="#2563eb"></circle><circle class="dot" cx="58.867924528301884" cy="170" r="3" fill="#2563eb"></circle><circle class="dot" cx="63.39622641509433" cy="170" r="3" fill="#2563eb"></circle><circle class="dot" cx="67.9245283018868" cy="170" r="3" fill="#2563eb"></circle><circle class="dot" cx="72.45283018867924" cy="170" r="3" fill="#2563eb"></circle><circle class="dot" cx="76.9811320754717" cy="170" r="3" fill="#2563eb"></circle><circle class="dot" cx="81.50943396226415" cy="170" r="3" fill="#2563eb"></circle><circle class="dot" cx="86.0377358490566" cy="170" r="3" fill="#2563eb"></circle><circle class="dot" cx="90.56603773584905" cy="170" r="3" fill="#2563eb"></circle><circle class="dot" cx="95.09433962264151" cy="170" r="3" fill="#2563eb"></circle><circle class="dot" cx="99.62264150943396" cy="170" r="3" fill="#2563eb"></circle><circle class="dot" cx="104.15094339622641" cy="170" r="3" fill="#2563eb"></circle><circle class="dot" cx="108.67924528301886" cy="170" r="3" fill="#2563eb"></circle><circle class="dot" cx="113.20754716981132" cy="170" r="3" fill="#2563eb"></circle><circle class="dot" cx="117.73584905660377" cy="170" r="3" fill="#2563eb"></circle><circle class="dot" cx="122.26415094339622" cy="170" r="3" fill="#2563eb"></circle><circle class="dot" cx="126.79245283018867" cy="170" r="3" fill="#2563eb"></circle><circle class="dot" cx="131.32075471698113" cy="170" r="3" fill="#2563eb"></circle><circle class="dot" cx="135.8490566037736" cy="170" r="3" fill="#2563eb"></circle><circle class="dot" cx="140.37735849056605" cy="170" r="3" fill="#2563eb"></circle><circle class="dot" cx="144.9056603773585" cy="170" r="3" fill="#2563eb"></circle><circle class="dot" cx="149.43396226415095" cy="170" r="3" fill="#2563eb"></circle><circle class="dot" cx="153.9622641509434" cy="170" r="3" fill="#2563eb"></circle><circle class="dot" cx="158.49056603773585" cy="170" r="3" fill="#2563eb"></circle><circle class="dot" cx="163.0188679245283" cy="170" r="3" fill="#2563eb"></circle><circle class="dot" cx="167.54716981132077" cy="170" r="3" fill="#2563eb"></circle><circle class="dot" cx="172.0754716981132" cy="170" r="3" fill="#2563eb"></circle><circle class="dot" cx="176.60377358490567" cy="170" r="3" fill="#2563eb"></circle><circle class="dot" cx="181.1320754716981" cy="170" r="3" fill="#2563eb"></circle><circle class="dot" cx="185.66037735849056" cy="170" r="3" fill="#2563eb"></circle><circle class="dot" cx="190.18867924528303" cy="170" r="3" fill="#2563eb"></circle><circle class="dot" cx="194.71698113207546" cy="170" r="3" fill="#2563eb"></circle><circle class="dot" cx="199.24528301886792" cy="170" r="3" fill="#2563eb"></circle><circle class="dot" cx="203.77358490566039" cy="170" r="3" fill="#2563eb"></circle><circle class="dot" cx="208.30188679245282" cy="170" r="3" fill="#2563eb"></circle><circle class="dot" cx="212.83018867924528" cy="170" r="3" fill="#2563eb"></circle><circle class="dot" cx="217.35849056603772" cy="170" r="3" fill="#2563eb"></circle><circle class="dot" cx="221.88679245283018" cy="170" r="3" fill="#2563eb"></circle><circle class="dot" cx="226.41509433962264" cy="170" r="3" fill="#2563eb"></circle><circle class="dot" cx="230.94339622641508" cy="170" r="3" fill="#2563eb"></circle><circle class="dot" cx="235.47169811320754" cy="170" r="3" fill="#2563eb"></circle><circle class="dot" cx="240" cy="170" r="3" fill="#2563eb"></circle><circle class="dot" cx="244.52830188679243" cy="170" r="3" fill="#2563eb"></circle><circle class="dot" cx="249.0566037735849" cy="170" r="3" fill="#2563eb"></circle><circle class="dot" cx="253.58490566037733" cy="170" r="3" fill="#2563eb"></circle><circle class="dot" cx="258.1132075471698" cy="170" r="3" fill="#2563eb"></circle><circle class="dot" cx="262.64150943396226" cy="170" r="3" fill="#2563eb"></circle><circle class="dot" cx="267.1698113207547" cy="170" r="3" fill="#2563eb"></circle><circle class="dot" cx="271.6981132075472" cy="170" r="3" fill="#2563eb"></circle><circle class="dot" cx="276.22641509433964" cy="170" r="3" fill="#2563eb"></circle><circle class="dot" cx="280.7547169811321" cy="170" r="3" fill="#2563eb"></circle><circle class="dot" cx="285.28301886792457" cy="170" r="3" fill="#2563eb"></circle><circle class="dot" cx="289.811320754717" cy="170" r="3" fill="#2563eb"></circle><circle class="dot" cx="294.33962264150944" cy="170" r="3" fill="#2563eb"></circle><circle class="dot" cx="298.8679245283019" cy="170" r="3" fill="#2563eb"></circle><circle class="dot" cx="303.39622641509436" cy="170" r="3" fill="#2563eb"></circle><circle class="dot" cx="307.9245283018868" cy="170" r="3" fill="#2563eb"></circle><circle class="dot" cx="312.45283018867923" cy="170" r="3" fill="#2563eb"></circle><circle class="dot" cx="316.9811320754717" cy="170" r="3" fill="#2563eb"></circle><circle class="dot" cx="321.50943396226415" cy="170" r="3" fill="#2563eb"></circle><circle class="dot" cx="326.0377358490566" cy="170" r="3" fill="#2563eb"></circle><circle class="dot" cx="330.5660377358491" cy="170" r="3" fill="#2563eb"></circle><circle class="dot" cx="335.09433962264154" cy="170" r="3" fill="#2563eb"></circle><circle class="dot" cx="339.62264150943395" cy="170" r="3" fill="#2563eb"></circle><circle class="dot" cx="344.1509433962264" cy="170" r="3" fill="#2563eb"></circle><circle class="dot" cx="348.6792452830189" cy="170" r="3" fill="#2563eb"></circle><circle class="dot" cx="353.20754716981133" cy="170" r="3" fill="#2563eb"></circle><circle class="dot" cx="357.7358490566038" cy="170" r="3" fill="#2563eb"></circle><circle class="dot" cx="362.2641509433962" cy="170" r="3" fill="#2563eb"></circle><circle class="dot" cx="366.79245283018867" cy="170" r="3" fill="#2563eb"></circle><circle class="dot" cx="371.3207547169811" cy="170" r="3" fill="#2563eb"></circle><circle class="dot" cx="375.8490566037736" cy="170" r="3" fill="#2563eb"></circle><circle class="dot" cx="380.37735849056605" cy="170" r="3" fill="#2563eb"></circle><circle class="dot" cx="384.90566037735846" cy="170" r="3" fill="#2563eb"></circle><circle class="dot" cx="389.4339622641509" cy="170" r="3" fill="#2563eb"></circle><circle class="dot" cx="393.9622641509434" cy="170" r="3" fill="#2563eb"></circle><circle class="dot" cx="398.49056603773585" cy="170" r="3" fill="#2563eb"></circle><circle class="dot" cx="403.0188679245283" cy="170" r="3" fill="#2563eb"></circle><circle class="dot" cx="407.54716981132077" cy="170" r="3" fill="#2563eb"></circle><circle class="dot" cx="412.0754716981132" cy="170" r="3" fill="#2563eb"></circle><circle class="dot" cx="416.60377358490564" cy="170" r="3" fill="#2563eb"></circle><circle class="dot" cx="421.1320754716981" cy="170" r="3" fill="#2563eb"></circle><circle class="dot" cx="425.66037735849056" cy="170" r="3" fill="#2563eb"></circle><circle class="dot" cx="430.188679245283" cy="170" r="3" fill="#2563eb"></circle><circle class="dot" cx="434.71698113207543" cy="170" r="3" fill="#2563eb"></circle><circle class="dot" cx="439.2452830188679" cy="170" r="3" fill="#2563eb"></circle><circle class="dot" cx="443.77358490566036" cy="170" r="3" fill="#2563eb"></circle><circle class="dot" cx="448.3018867924528" cy="170" r="3" fill="#2563eb"></circle><circle class="dot" cx="452.8301886792453" cy="170" r="3" fill="#2563eb"></circle><circle class="dot" cx="457.3584905660377" cy="170" r="3" fill="#2563eb"></circle><circle class="dot" cx="461.88679245283015" cy="170" r="3" fill="#2563eb"></circle><circle class="dot" cx="466.4150943396226" cy="170" r="3" fill="#2563eb"></circle><circle class="dot" cx="470.9433962264151" cy="170" r="3" fill="#2563eb"></circle><circle class="dot" cx="475.47169811320754" cy="170" r="3" fill="#2563eb"></circle><circle class="dot" cx="480" cy="170" r="3" fill="#2563eb"></circle><circle class="dot" cx="484.5283018867924" cy="170" r="3" fill="#2563eb"></circle><circle class="dot" cx="489.05660377358487" cy="170" r="3" fill="#2563eb"></circle><circle class="dot" cx="493.58490566037733" cy="170" r="3" fill="#2563eb"></circle><circle class="dot" cx="498.1132075471698" cy="170" r="3" fill="#2563eb"></circle><circle class="dot" cx="502.64150943396226" cy="170" r="3" fill="#2563eb"></circle><circle class="dot" cx="507.16981132075466" cy="170" r="3" fill="#2563eb"></circle><circle class="dot" cx="511.6981132075471" cy="170" r="3" fill="#2563eb"></circle><circle class="dot" cx="516.2264150943396" cy="170" r="3" fill="#2563eb"></circle><circle class="dot" cx="520.754716981132" cy="170" r="3" fill="#2563eb"></circle><circle class="dot" cx="525.2830188679245" cy="170" r="3" fill="#2563eb"></circle><circle class="dot" cx="529.8113207547169" cy="170" r="3" fill="#2563eb"></circle><circle class="dot" cx="534.3396226415094" cy="170" r="3" fill="#2563eb"></circle><circle class="dot" cx="538.8679245283018" cy="170" r="3" fill="#2563eb"></circle><circle class="dot" cx="543.3962264150944" cy="170" r="3" fill="#2563eb"></circle><circle class="dot" cx="547.9245283018869" cy="170" r="3" fill="#2563eb"></circle><circle class="dot" cx="552.4528301886793" cy="170" r="3" fill="#2563eb"></circle><circle class="dot" cx="556.9811320754717" cy="170" r="3" fill="#2563eb"></circle><circle class="dot" cx="561.5094339622642" cy="170" r="3" fill="#2563eb"></circle><circle class="dot" cx="566.0377358490566" cy="170" r="3" fill="#2563eb"></circle><circle class="dot" cx="570.5660377358491" cy="170" r="3" fill="#2563eb"></circle><circle class="dot" cx="575.0943396226415" cy="170" r="3" fill="#2563eb"></circle><circle class="dot" cx="579.622641509434" cy="170" r="3" fill="#2563eb"></circle><circle class="dot" cx="584.1509433962265" cy="170" r="3" fill="#2563eb"></circle><circle class="dot" cx="588.6792452830189" cy="170" r="3" fill="#2563eb"></circle><circle class="dot" cx="593.2075471698114" cy="170" r="3" fill="#2563eb"></circle><circle class="dot" cx="597.7358490566038" cy="170" r="3" fill="#2563eb"></circle><circle class="dot" cx="602.2641509433962" cy="170" r="3" fill="#2563eb"></circle><circle class="dot" cx="606.7924528301887" cy="170" r="3" fill="#2563eb"></circle><circle class="dot" cx="611.3207547169811" cy="170" r="3" fill="#2563eb"></circle><circle class="dot" cx="615.8490566037736" cy="170" r="3" fill="#2563eb"></circle><circle class="dot" cx="620.377358490566" cy="170" r="3" fill="#2563eb"></circle><circle class="dot" cx="624.9056603773585" cy="170" r="3" fill="#2563eb"></circle><circle class="dot" cx="629.433962264151" cy="170" r="3" fill="#2563eb"></circle><circle class="dot" cx="633.9622641509434" cy="170" r="3" fill="#2563eb"></circle><circle class="dot" cx="638.4905660377359" cy="170" r="3" fill="#2563eb"></circle><circle class="dot" cx="643.0188679245283" cy="170" r="3" fill="#2563eb"></circle><circle class="dot" cx="647.5471698113208" cy="170" r="3" fill="#2563eb"></circle><circle class="dot" cx="652.0754716981132" cy="170" r="3" fill="#2563eb"></circle><circle class="dot" cx="656.6037735849056" cy="170" r="3" fill="#2563eb"></circle><circle class="dot" cx="661.1320754716982" cy="170" r="3" fill="#2563eb"></circle><circle class="dot" cx="665.6603773584906" cy="170" r="3" fill="#2563eb"></circle><circle class="dot" cx="670.1886792452831" cy="170" r="3" fill="#2563eb"></circle><circle class="dot" cx="674.7169811320755" cy="170" r="3" fill="#2563eb"></circle><circle class="dot" cx="679.2452830188679" cy="170" r="3" fill="#2563eb"></circle><circle class="dot" cx="683.7735849056604" cy="170" r="3" fill="#2563eb"></circle><circle class="dot" cx="688.3018867924528" cy="170" r="3" fill="#2563eb"></circle><circle class="dot" cx="692.8301886792453" cy="170" r="3" fill="#2563eb"></circle><circle class="dot" cx="697.3584905660377" cy="170" r="3" fill="#2563eb"></circle><circle class="dot" cx="701.8867924528302" cy="170" r="3" fill="#2563eb"></circle><circle class="dot" cx="706.4150943396227" cy="170" r="3" fill="#2563eb"></circle><circle class="dot" cx="710.9433962264151" cy="170" r="3" fill="#2563eb"></circle><circle class="dot" cx="715.4716981132076" cy="170" r="3" fill="#2563eb"></circle><circle class="dot" cx="720" cy="170" r="3" fill="#2563eb"></circle><g class="grid" transform="translate(0,340)" fill="none" font-size="10" font-family="sans-serif" text-anchor="middle" style="stroke-dasharray: 3,3; opacity: 0.3;"><path class="domain" stroke="currentColor" d="M0.5,-340V0.5H720.5V-340"></path><g class="tick" opacity="1" transform="translate(0.5,0)"><line stroke="currentColor" y2="-340"></line><text fill="currentColor" y="3" dy="0.71em"></text></g><g class="tick" opacity="1" transform="translate(109.17924528301886,0)"><line stroke="currentColor" y2="-340"></line><text fill="currentColor" y="3" dy="0.71em"></text></g><g class="tick" opacity="1" transform="translate(217.85849056603772,0)"><line stroke="currentColor" y2="-340"></line><text fill="currentColor" y="3" dy="0.71em"></text></g><g class="tick" opacity="1" transform="translate(326.5377358490566,0)"><line stroke="currentColor" y2="-340"></line><text fill="currentColor" y="3" dy="0.71em"></text></g><g class="tick" opacity="1" transform="translate(435.21698113207543,0)"><line stroke="currentColor" y2="-340"></line><text fill="currentColor" y="3" dy="0.71em"></text></g><g class="tick" opacity="1" transform="translate(543.8962264150944,0)"><line stroke="currentColor" y2="-340"></line><text fill="currentColor" y="3" dy="0.71em"></text></g><g class="tick" opacity="1" transform="translate(652.5754716981132,0)"><line stroke="currentColor" y2="-340"></line><text fill="currentColor" y="3" dy="0.71em"></text></g></g><g class="grid" fill="none" font-size="10" font-family="sans-serif" text-anchor="end" style="stroke-dasharray: 3,3; opacity: 0.3;"><path class="domain" stroke="currentColor" d="M720,340.5H0.5V0.5H720"></path><g class="tick" opacity="1" transform="translate(0,170.5)"><line stroke="currentColor" x2="720"></line><text fill="currentColor" x="-3" dy="0.32em"></text></g></g></g><text x="400" y="10" text-anchor="middle" style="font-size: 16px; font-weight: bold; fill: #333;">OKX USDT Lending Rate - Current Month</text></svg>