<svg width="800" height="400" xmlns="http://www.w3.org/2000/svg"><g transform="translate(50,20)"><g transform="translate(0,340)" fill="none" font-size="10" font-family="sans-serif" text-anchor="middle"><path class="domain" stroke="currentColor" d="M0.5,6V0.5H720.5V6"></path><g class="tick" opacity="1" transform="translate(0.5,0)"><line stroke="currentColor" y2="6"></line><text fill="currentColor" y="9" dy=".15em" style="text-anchor: end;" dx="-.8em" transform="rotate(-45)">10/01</text></g><g class="tick" opacity="1" transform="translate(309.07142857142856,0)"><line stroke="currentColor" y2="6"></line><text fill="currentColor" y="9" dy=".15em" style="text-anchor: end;" dx="-.8em" transform="rotate(-45)">10/02</text></g><g class="tick" opacity="1" transform="translate(617.6428571428571,0)"><line stroke="currentColor" y2="6"></line><text fill="currentColor" y="9" dy=".15em" style="text-anchor: end;" dx="-.8em" transform="rotate(-45)">10/03</text></g></g><g fill="none" font-size="10" font-family="sans-serif" text-anchor="end"><path class="domain" stroke="currentColor" d="M-6,340.5H0.5V0.5H-6"></path><g class="tick" opacity="1" transform="translate(0,340.5)"><line stroke="currentColor" x2="-6"></line><text fill="currentColor" x="-9" dy="0.32em">0.00%</text></g><g class="tick" opacity="1" transform="translate(0,309.59090909090907)"><line stroke="currentColor" x2="-6"></line><text fill="currentColor" x="-9" dy="0.32em">10.00%</text></g><g class="tick" opacity="1" transform="translate(0,278.6818181818182)"><line stroke="currentColor" x2="-6"></line><text fill="currentColor" x="-9" dy="0.32em">20.00%</text></g><g class="tick" opacity="1" transform="translate(0,247.77272727272728)"><line stroke="currentColor" x2="-6"></line><text fill="currentColor" x="-9" dy="0.32em">30.00%</text></g><g class="tick" opacity="1" transform="translate(0,216.86363636363637)"><line stroke="currentColor" x2="-6"></line><text fill="currentColor" x="-9" dy="0.32em">40.00%</text></g><g class="tick" opacity="1" transform="translate(0,185.95454545454544)"><line stroke="currentColor" x2="-6"></line><text fill="currentColor" x="-9" dy="0.32em">50.00%</text></g><g class="tick" opacity="1" transform="translate(0,155.04545454545456)"><line stroke="currentColor" x2="-6"></line><text fill="currentColor" x="-9" dy="0.32em">60.00%</text></g><g class="tick" opacity="1" transform="translate(0,124.13636363636368)"><line stroke="currentColor" x2="-6"></line><text fill="currentColor" x="-9" dy="0.32em">70.00%</text></g><g class="tick" opacity="1" transform="translate(0,93.22727272727272)"><line stroke="currentColor" x2="-6"></line><text fill="currentColor" x="-9" dy="0.32em">80.00%</text></g><g class="tick" opacity="1" transform="translate(0,62.31818181818184)"><line stroke="currentColor" x2="-6"></line><text fill="currentColor" x="-9" dy="0.32em">90.00%</text></g><g class="tick" opacity="1" transform="translate(0,31.40909090909092)"><line stroke="currentColor" x2="-6"></line><text fill="currentColor" x="-9" dy="0.32em">100.00%</text></g><g class="tick" opacity="1" transform="translate(0,0.5)"><line stroke="currentColor" x2="-6"></line><text fill="currentColor" x="-9" dy="0.32em">110.00%</text></g></g><text transform="rotate(-90)" y="-50" x="-170" dy="1em" style="text-anchor: middle; font-size: 12px; fill: #666;">Pre Rate (%)</text><text transform="translate(360, 380)" style="text-anchor: middle; font-size: 12px; fill: #666;">Time (UTC)</text><path fill="none" stroke="#2563eb" stroke-width="2" d="M0,327.636C4.286,327.636,8.571,327.636,12.857,327.636C17.143,327.636,21.429,327.636,25.714,327.636C30,327.636,34.286,327.636,38.571,327.636C42.857,327.636,47.143,327.636,51.429,327.636C55.714,327.636,60,327.636,64.286,327.636C68.571,327.636,72.857,327.636,77.143,327.636C81.429,327.636,85.714,327.636,90,327.636C94.286,327.636,98.571,327.636,102.857,327.636C107.143,327.636,111.429,327.636,115.714,327.636C120,327.636,124.286,327.636,128.571,327.636C132.857,327.636,137.143,327.636,141.429,327.636C145.714,327.636,150,327.636,154.286,327.636C158.571,327.636,162.857,327.636,167.143,327.636C171.429,327.636,175.714,327.636,180,327.636C184.286,327.636,188.571,327.636,192.857,327.636C197.143,327.636,201.429,327.636,205.714,327.636C210,327.636,214.286,327.636,218.571,327.636C222.857,327.636,227.143,327.636,231.429,327.636C235.714,327.636,240,327.636,244.286,327.636C248.571,327.636,252.857,327.636,257.143,327.636C261.429,327.636,265.714,327.636,270,327.636C274.286,327.636,278.571,327.636,282.857,327.636C287.143,327.636,291.429,327.636,295.714,327.636C300,327.636,304.286,327.636,308.571,327.636C312.857,327.636,317.143,327.636,321.429,327.636C325.714,327.636,330,327.636,334.286,327.636C338.571,327.636,342.857,327.636,347.143,327.636C351.429,327.636,355.714,327.636,360,327.636C364.286,327.636,368.571,327.636,372.857,327.636C377.143,327.636,381.429,327.636,385.714,327.636C390,327.636,394.286,327.636,398.571,327.636C402.857,327.636,407.143,327.636,411.429,327.636C415.714,327.636,420,327.636,424.286,327.636C428.571,327.636,432.857,327.636,437.143,327.636C441.429,327.636,445.714,327.636,450,327.636C454.286,327.636,458.571,327.636,462.857,327.636C467.143,327.636,471.429,18.545,475.714,18.545C480,18.545,484.286,293.636,488.571,306C492.857,318.364,497.143,324.545,501.429,324.545C505.714,324.545,510,324.545,514.286,324.545C518.571,324.545,522.857,324.545,527.143,324.545C531.429,324.545,535.714,324.545,540,324.545C544.286,324.545,548.571,324.545,552.857,324.545C557.143,324.545,561.429,324.545,565.714,324.545C570,324.545,574.286,324.545,578.571,324.545C582.857,324.545,587.143,324.545,591.429,324.545C595.714,324.545,600,324.545,604.286,324.545C608.571,324.545,612.857,324.545,617.143,324.545C621.429,324.545,625.714,324.545,630,324.545C634.286,324.545,638.571,324.545,642.857,324.545C647.143,324.545,651.429,324.545,655.714,324.545C660,324.545,664.286,324.545,668.571,324.545C672.857,324.545,677.143,324.545,681.429,324.545C685.714,324.545,690,324.545,694.286,324.545C698.571,324.545,702.857,324.545,707.143,324.545C711.429,324.545,715.714,324.545,720,324.545"></path><circle class="dot" cx="0" cy="327.6363636363636" r="3" fill="#2563eb"></circle><circle class="dot" cx="12.857142857142856" cy="327.6363636363636" r="3" fill="#2563eb"></circle><circle class="dot" cx="25.71428571428571" cy="327.6363636363636" r="3" fill="#2563eb"></circle><circle class="dot" cx="38.57142857142857" cy="327.6363636363636" r="3" fill="#2563eb"></circle><circle class="dot" cx="51.42857142857142" cy="327.6363636363636" r="3" fill="#2563eb"></circle><circle class="dot" cx="64.28571428571429" cy="327.6363636363636" r="3" fill="#2563eb"></circle><circle class="dot" cx="77.14285714285714" cy="327.6363636363636" r="3" fill="#2563eb"></circle><circle class="dot" cx="90" cy="327.6363636363636" r="3" fill="#2563eb"></circle><circle class="dot" cx="102.85714285714285" cy="327.6363636363636" r="3" fill="#2563eb"></circle><circle class="dot" cx="115.71428571428572" cy="327.6363636363636" r="3" fill="#2563eb"></circle><circle class="dot" cx="128.57142857142858" cy="327.6363636363636" r="3" fill="#2563eb"></circle><circle class="dot" cx="141.42857142857142" cy="327.6363636363636" r="3" fill="#2563eb"></circle><circle class="dot" cx="154.28571428571428" cy="327.6363636363636" r="3" fill="#2563eb"></circle><circle class="dot" cx="167.14285714285714" cy="327.6363636363636" r="3" fill="#2563eb"></circle><circle class="dot" cx="180" cy="327.6363636363636" r="3" fill="#2563eb"></circle><circle class="dot" cx="192.85714285714286" cy="327.6363636363636" r="3" fill="#2563eb"></circle><circle class="dot" cx="205.7142857142857" cy="327.6363636363636" r="3" fill="#2563eb"></circle><circle class="dot" cx="218.57142857142856" cy="327.6363636363636" r="3" fill="#2563eb"></circle><circle class="dot" cx="231.42857142857144" cy="327.6363636363636" r="3" fill="#2563eb"></circle><circle class="dot" cx="244.2857142857143" cy="327.6363636363636" r="3" fill="#2563eb"></circle><circle class="dot" cx="257.14285714285717" cy="327.6363636363636" r="3" fill="#2563eb"></circle><circle class="dot" cx="270" cy="327.6363636363636" r="3" fill="#2563eb"></circle><circle class="dot" cx="282.85714285714283" cy="327.6363636363636" r="3" fill="#2563eb"></circle><circle class="dot" cx="295.7142857142857" cy="327.6363636363636" r="3" fill="#2563eb"></circle><circle class="dot" cx="308.57142857142856" cy="327.6363636363636" r="3" fill="#2563eb"></circle><circle class="dot" cx="321.42857142857144" cy="327.6363636363636" r="3" fill="#2563eb"></circle><circle class="dot" cx="334.2857142857143" cy="327.6363636363636" r="3" fill="#2563eb"></circle><circle class="dot" cx="347.14285714285717" cy="327.6363636363636" r="3" fill="#2563eb"></circle><circle class="dot" cx="360" cy="327.6363636363636" r="3" fill="#2563eb"></circle><circle class="dot" cx="372.8571428571429" cy="327.6363636363636" r="3" fill="#2563eb"></circle><circle class="dot" cx="385.7142857142857" cy="327.6363636363636" r="3" fill="#2563eb"></circle><circle class="dot" cx="398.5714285714286" cy="327.6363636363636" r="3" fill="#2563eb"></circle><circle class="dot" cx="411.4285714285714" cy="327.6363636363636" r="3" fill="#2563eb"></circle><circle class="dot" cx="424.2857142857143" cy="327.6363636363636" r="3" fill="#2563eb"></circle><circle class="dot" cx="437.1428571428571" cy="327.6363636363636" r="3" fill="#2563eb"></circle><circle class="dot" cx="450" cy="327.6363636363636" r="3" fill="#2563eb"></circle><circle class="dot" cx="462.8571428571429" cy="327.6363636363636" r="3" fill="#2563eb"></circle><circle class="dot" cx="475.7142857142857" cy="18.54545454545455" r="3" fill="#2563eb"></circle><circle class="dot" cx="488.5714285714286" cy="306" r="3" fill="#2563eb"></circle><circle class="dot" cx="501.4285714285714" cy="324.54545454545456" r="3" fill="#2563eb"></circle><circle class="dot" cx="514.2857142857143" cy="324.54545454545456" r="3" fill="#2563eb"></circle><circle class="dot" cx="527.1428571428571" cy="324.54545454545456" r="3" fill="#2563eb"></circle><circle class="dot" cx="540" cy="324.54545454545456" r="3" fill="#2563eb"></circle><circle class="dot" cx="552.8571428571429" cy="324.54545454545456" r="3" fill="#2563eb"></circle><circle class="dot" cx="565.7142857142857" cy="324.54545454545456" r="3" fill="#2563eb"></circle><circle class="dot" cx="578.5714285714286" cy="324.54545454545456" r="3" fill="#2563eb"></circle><circle class="dot" cx="591.4285714285714" cy="324.54545454545456" r="3" fill="#2563eb"></circle><circle class="dot" cx="604.2857142857143" cy="324.54545454545456" r="3" fill="#2563eb"></circle><circle class="dot" cx="617.1428571428571" cy="324.54545454545456" r="3" fill="#2563eb"></circle><circle class="dot" cx="630" cy="324.54545454545456" r="3" fill="#2563eb"></circle><circle class="dot" cx="642.8571428571429" cy="324.54545454545456" r="3" fill="#2563eb"></circle><circle class="dot" cx="655.7142857142857" cy="324.54545454545456" r="3" fill="#2563eb"></circle><circle class="dot" cx="668.5714285714286" cy="324.54545454545456" r="3" fill="#2563eb"></circle><circle class="dot" cx="681.4285714285714" cy="324.54545454545456" r="3" fill="#2563eb"></circle><circle class="dot" cx="694.2857142857143" cy="324.54545454545456" r="3" fill="#2563eb"></circle><circle class="dot" cx="707.1428571428571" cy="324.54545454545456" r="3" fill="#2563eb"></circle><circle class="dot" cx="720" cy="324.54545454545456" r="3" fill="#2563eb"></circle><g class="grid" transform="translate(0,340)" fill="none" font-size="10" font-family="sans-serif" text-anchor="middle" style="stroke-dasharray: 3,3; opacity: 0.3;"><path class="domain" stroke="currentColor" d="M0.5,-340V0.5H720.5V-340"></path><g class="tick" opacity="1" transform="translate(0.5,0)"><line stroke="currentColor" y2="-340"></line><text fill="currentColor" y="3" dy="0.71em"></text></g><g class="tick" opacity="1" transform="translate(309.07142857142856,0)"><line stroke="currentColor" y2="-340"></line><text fill="currentColor" y="3" dy="0.71em"></text></g><g class="tick" opacity="1" transform="translate(617.6428571428571,0)"><line stroke="currentColor" y2="-340"></line><text fill="currentColor" y="3" dy="0.71em"></text></g></g><g class="grid" fill="none" font-size="10" font-family="sans-serif" text-anchor="end" style="stroke-dasharray: 3,3; opacity: 0.3;"><path class="domain" stroke="currentColor" d="M720,340.5H0.5V0.5H720"></path><g class="tick" opacity="1" transform="translate(0,340.5)"><line stroke="currentColor" x2="720"></line><text fill="currentColor" x="-3" dy="0.32em"></text></g><g class="tick" opacity="1" transform="translate(0,309.59090909090907)"><line stroke="currentColor" x2="720"></line><text fill="currentColor" x="-3" dy="0.32em"></text></g><g class="tick" opacity="1" transform="translate(0,278.6818181818182)"><line stroke="currentColor" x2="720"></line><text fill="currentColor" x="-3" dy="0.32em"></text></g><g class="tick" opacity="1" transform="translate(0,247.77272727272728)"><line stroke="currentColor" x2="720"></line><text fill="currentColor" x="-3" dy="0.32em"></text></g><g class="tick" opacity="1" transform="translate(0,216.86363636363637)"><line stroke="currentColor" x2="720"></line><text fill="currentColor" x="-3" dy="0.32em"></text></g><g class="tick" opacity="1" transform="translate(0,185.95454545454544)"><line stroke="currentColor" x2="720"></line><text fill="currentColor" x="-3" dy="0.32em"></text></g><g class="tick" opacity="1" transform="translate(0,155.04545454545456)"><line stroke="currentColor" x2="720"></line><text fill="currentColor" x="-3" dy="0.32em"></text></g><g class="tick" opacity="1" transform="translate(0,124.13636363636368)"><line stroke="currentColor" x2="720"></line><text fill="currentColor" x="-3" dy="0.32em"></text></g><g class="tick" opacity="1" transform="translate(0,93.22727272727272)"><line stroke="currentColor" x2="720"></line><text fill="currentColor" x="-3" dy="0.32em"></text></g><g class="tick" opacity="1" transform="translate(0,62.31818181818184)"><line stroke="currentColor" x2="720"></line><text fill="currentColor" x="-3" dy="0.32em"></text></g><g class="tick" opacity="1" transform="translate(0,31.40909090909092)"><line stroke="currentColor" x2="720"></line><text fill="currentColor" x="-3" dy="0.32em"></text></g><g class="tick" opacity="1" transform="translate(0,0.5)"><line stroke="currentColor" x2="720"></line><text fill="currentColor" x="-3" dy="0.32em"></text></g></g></g><text x="400" y="10" text-anchor="middle" style="font-size: 16px; font-weight: bold; fill: #333;">OKX USDT Lending Rate - Current Month</text></svg>