<svg width="800" height="400" xmlns="http://www.w3.org/2000/svg"><g transform="translate(50,20)"><g transform="translate(0,340)" fill="none" font-size="10" font-family="sans-serif" text-anchor="middle"><path class="domain" stroke="currentColor" d="M0.5,6V0.5H720.5V6"></path><g class="tick" opacity="1" transform="translate(0.5,0)"><line stroke="currentColor" y2="6"></line><text fill="currentColor" y="9" dy=".15em" style="text-anchor: end;" dx="-.8em" transform="rotate(-45)">03/01</text></g><g class="tick" opacity="1" transform="translate(30.08904109589041,0)"><line stroke="currentColor" y2="6"></line><text fill="currentColor" y="9" dy=".15em" style="text-anchor: end;" dx="-.8em" transform="rotate(-45)">03/02</text></g><g class="tick" opacity="1" transform="translate(59.67808219178082,0)"><line stroke="currentColor" y2="6"></line><text fill="currentColor" y="9" dy=".15em" style="text-anchor: end;" dx="-.8em" transform="rotate(-45)">03/03</text></g><g class="tick" opacity="1" transform="translate(89.26712328767123,0)"><line stroke="currentColor" y2="6"></line><text fill="currentColor" y="9" dy=".15em" style="text-anchor: end;" dx="-.8em" transform="rotate(-45)">03/04</text></g><g class="tick" opacity="1" transform="translate(118.85616438356163,0)"><line stroke="currentColor" y2="6"></line><text fill="currentColor" y="9" dy=".15em" style="text-anchor: end;" dx="-.8em" transform="rotate(-45)">03/05</text></g><g class="tick" opacity="1" transform="translate(148.44520547945206,0)"><line stroke="currentColor" y2="6"></line><text fill="currentColor" y="9" dy=".15em" style="text-anchor: end;" dx="-.8em" transform="rotate(-45)">03/06</text></g><g class="tick" opacity="1" transform="translate(178.03424657534245,0)"><line stroke="currentColor" y2="6"></line><text fill="currentColor" y="9" dy=".15em" style="text-anchor: end;" dx="-.8em" transform="rotate(-45)">03/07</text></g><g class="tick" opacity="1" transform="translate(207.62328767123287,0)"><line stroke="currentColor" y2="6"></line><text fill="currentColor" y="9" dy=".15em" style="text-anchor: end;" dx="-.8em" transform="rotate(-45)">03/08</text></g><g class="tick" opacity="1" transform="translate(237.21232876712327,0)"><line stroke="currentColor" y2="6"></line><text fill="currentColor" y="9" dy=".15em" style="text-anchor: end;" dx="-.8em" transform="rotate(-45)">03/09</text></g><g class="tick" opacity="1" transform="translate(266.8013698630137,0)"><line stroke="currentColor" y2="6"></line><text fill="currentColor" y="9" dy=".15em" style="text-anchor: end;" dx="-.8em" transform="rotate(-45)">03/10</text></g><g class="tick" opacity="1" transform="translate(296.3904109589041,0)"><line stroke="currentColor" y2="6"></line><text fill="currentColor" y="9" dy=".15em" style="text-anchor: end;" dx="-.8em" transform="rotate(-45)">03/11</text></g><g class="tick" opacity="1" transform="translate(325.9794520547945,0)"><line stroke="currentColor" y2="6"></line><text fill="currentColor" y="9" dy=".15em" style="text-anchor: end;" dx="-.8em" transform="rotate(-45)">03/12</text></g><g class="tick" opacity="1" transform="translate(355.5684931506849,0)"><line stroke="currentColor" y2="6"></line><text fill="currentColor" y="9" dy=".15em" style="text-anchor: end;" dx="-.8em" transform="rotate(-45)">03/13</text></g><g class="tick" opacity="1" transform="translate(385.1575342465754,0)"><line stroke="currentColor" y2="6"></line><text fill="currentColor" y="9" dy=".15em" style="text-anchor: end;" dx="-.8em" transform="rotate(-45)">03/14</text></g><g class="tick" opacity="1" transform="translate(414.74657534246575,0)"><line stroke="currentColor" y2="6"></line><text fill="currentColor" y="9" dy=".15em" style="text-anchor: end;" dx="-.8em" transform="rotate(-45)">03/15</text></g><g class="tick" opacity="1" transform="translate(444.33561643835617,0)"><line stroke="currentColor" y2="6"></line><text fill="currentColor" y="9" dy=".15em" style="text-anchor: end;" dx="-.8em" transform="rotate(-45)">03/16</text></g><g class="tick" opacity="1" transform="translate(473.92465753424653,0)"><line stroke="currentColor" y2="6"></line><text fill="currentColor" y="9" dy=".15em" style="text-anchor: end;" dx="-.8em" transform="rotate(-45)">03/17</text></g><g class="tick" opacity="1" transform="translate(503.513698630137,0)"><line stroke="currentColor" y2="6"></line><text fill="currentColor" y="9" dy=".15em" style="text-anchor: end;" dx="-.8em" transform="rotate(-45)">03/18</text></g><g class="tick" opacity="1" transform="translate(533.1027397260274,0)"><line stroke="currentColor" y2="6"></line><text fill="currentColor" y="9" dy=".15em" style="text-anchor: end;" dx="-.8em" transform="rotate(-45)">03/19</text></g><g class="tick" opacity="1" transform="translate(562.6917808219179,0)"><line stroke="currentColor" y2="6"></line><text fill="currentColor" y="9" dy=".15em" style="text-anchor: end;" dx="-.8em" transform="rotate(-45)">03/20</text></g><g class="tick" opacity="1" transform="translate(592.2808219178082,0)"><line stroke="currentColor" y2="6"></line><text fill="currentColor" y="9" dy=".15em" style="text-anchor: end;" dx="-.8em" transform="rotate(-45)">03/21</text></g><g class="tick" opacity="1" transform="translate(621.8698630136986,0)"><line stroke="currentColor" y2="6"></line><text fill="currentColor" y="9" dy=".15em" style="text-anchor: end;" dx="-.8em" transform="rotate(-45)">03/22</text></g><g class="tick" opacity="1" transform="translate(651.458904109589,0)"><line stroke="currentColor" y2="6"></line><text fill="currentColor" y="9" dy=".15em" style="text-anchor: end;" dx="-.8em" transform="rotate(-45)">03/23</text></g><g class="tick" opacity="1" transform="translate(681.0479452054794,0)"><line stroke="currentColor" y2="6"></line><text fill="currentColor" y="9" dy=".15em" style="text-anchor: end;" dx="-.8em" transform="rotate(-45)">03/24</text></g><g class="tick" opacity="1" transform="translate(710.6369863013698,0)"><line stroke="currentColor" y2="6"></line><text fill="currentColor" y="9" dy=".15em" style="text-anchor: end;" dx="-.8em" transform="rotate(-45)">03/25</text></g></g><g fill="none" font-size="10" font-family="sans-serif" text-anchor="end"><path class="domain" stroke="currentColor" d="M-6,340.5H0.5V0.5H-6"></path><g class="tick" opacity="1" transform="translate(0,170.5)"><line stroke="currentColor" x2="-6"></line><text fill="currentColor" x="-9" dy="0.32em">2.50%</text></g></g><text transform="rotate(-90)" y="-50" x="-170" dy="1em" style="text-anchor: middle; font-size: 12px; fill: #666;">Pre Rate (%)</text><text transform="translate(360, 380)" style="text-anchor: middle; font-size: 12px; fill: #666;">Time (UTC)</text><path fill="none" stroke="#2563eb" stroke-width="2" d="M0,170C0.411,170,0.822,170,1.233,170C1.644,170,2.055,170,2.466,170C2.877,170,3.288,170,3.699,170C4.11,170,4.521,170,4.932,170C5.342,170,5.753,170,6.164,170C6.575,170,6.986,170,7.397,170C7.808,170,8.219,170,8.63,170C9.041,170,9.452,170,9.863,170C10.274,170,10.685,170,11.096,170C11.507,170,11.918,170,12.329,170C12.74,170,13.151,170,13.562,170C13.973,170,14.384,170,14.795,170C15.205,170,15.616,170,16.027,170C16.438,170,16.849,170,17.26,170C17.671,170,18.082,170,18.493,170C18.904,170,19.315,170,19.726,170C20.137,170,20.548,170,20.959,170C21.37,170,21.781,170,22.192,170C22.603,170,23.014,170,23.425,170C23.836,170,24.247,170,24.658,170C25.068,170,25.479,170,25.89,170C26.301,170,26.712,170,27.123,170C27.534,170,27.945,170,28.356,170C28.767,170,29.178,170,29.589,170C30,170,30.411,170,30.822,170C31.233,170,31.644,170,32.055,170C32.466,170,32.877,170,33.288,170C33.699,170,34.11,170,34.521,170C34.932,170,35.342,170,35.753,170C36.164,170,36.575,170,36.986,170C37.397,170,37.808,170,38.219,170C38.63,170,39.041,170,39.452,170C39.863,170,40.274,170,40.685,170C41.096,170,41.507,170,41.918,170C42.329,170,42.74,170,43.151,170C43.562,170,43.973,170,44.384,170C44.795,170,45.205,170,45.616,170C46.027,170,46.438,170,46.849,170C47.26,170,47.671,170,48.082,170C48.493,170,48.904,170,49.315,170C49.726,170,50.137,170,50.548,170C50.959,170,51.37,170,51.781,170C52.192,170,52.603,170,53.014,170C53.425,170,53.836,170,54.247,170C54.658,170,55.068,170,55.479,170C55.89,170,56.301,170,56.712,170C57.123,170,57.534,170,57.945,170C58.356,170,58.767,170,59.178,170C59.589,170,60,170,60.411,170C60.822,170,61.233,170,61.644,170C62.055,170,62.466,170,62.877,170C63.288,170,63.699,170,64.11,170C64.521,170,64.932,170,65.342,170C65.753,170,66.164,170,66.575,170C66.986,170,67.397,170,67.808,170C68.219,170,68.63,170,69.041,170C69.452,170,69.863,170,70.274,170C70.685,170,71.096,170,71.507,170C71.918,170,72.329,170,72.74,170C73.151,170,73.562,170,73.973,170C74.384,170,74.795,170,75.205,170C75.616,170,76.027,170,76.438,170C76.849,170,77.26,170,77.671,170C78.082,170,78.493,170,78.904,170C79.315,170,79.726,170,80.137,170C80.548,170,80.959,170,81.37,170C81.781,170,82.192,170,82.603,170C83.014,170,83.425,170,83.836,170C84.247,170,84.658,170,85.068,170C85.479,170,85.89,170,86.301,170C86.712,170,87.123,170,87.534,170C87.945,170,88.356,170,88.767,170C89.178,170,89.589,170,90,170C90.411,170,90.822,170,91.233,170C91.644,170,92.055,170,92.466,170C92.877,170,93.288,170,93.699,170C94.11,170,94.521,170,94.932,170C95.342,170,95.753,170,96.164,170C96.575,170,96.986,170,97.397,170C97.808,170,98.219,170,98.63,170C99.041,170,99.452,170,99.863,170C100.274,170,100.685,170,101.096,170C101.507,170,101.918,170,102.329,170C102.74,170,103.151,170,103.562,170C103.973,170,104.384,170,104.795,170C105.205,170,105.616,170,106.027,170C106.438,170,106.849,170,107.26,170C107.671,170,108.082,170,108.493,170C108.904,170,109.315,170,109.726,170C110.137,170,110.548,170,110.959,170C111.37,170,111.781,170,112.192,170C112.603,170,113.014,170,113.425,170C113.836,170,114.247,170,114.658,170C115.068,170,115.479,170,115.89,170C116.301,170,116.712,170,117.123,170C117.534,170,117.945,170,118.356,170C118.767,170,119.178,170,119.589,170C120,170,120.411,170,120.822,170C121.233,170,121.644,170,122.055,170C122.466,170,122.877,170,123.288,170C123.699,170,124.11,170,124.521,170C124.932,170,125.342,170,125.753,170C126.164,170,126.575,170,126.986,170C127.397,170,127.808,170,128.219,170C128.63,170,129.041,170,129.452,170C129.863,170,130.274,170,130.685,170C131.096,170,131.507,170,131.918,170C132.329,170,132.74,170,133.151,170C133.562,170,133.973,170,134.384,170C134.795,170,135.205,170,135.616,170C136.027,170,136.438,170,136.849,170C137.26,170,137.671,170,138.082,170C138.493,170,138.904,170,139.315,170C139.726,170,140.137,170,140.548,170C140.959,170,141.37,170,141.781,170C142.192,170,142.603,170,143.014,170C143.425,170,143.836,170,144.247,170C144.658,170,145.068,170,145.479,170C145.89,170,146.301,170,146.712,170C147.123,170,147.534,170,147.945,170C148.356,170,148.767,170,149.178,170C149.589,170,150,170,150.411,170C150.822,170,151.233,170,151.644,170C152.055,170,152.466,170,152.877,170C153.288,170,153.699,170,154.11,170C154.521,170,154.932,170,155.342,170C155.753,170,156.164,170,156.575,170C156.986,170,157.397,170,157.808,170C158.219,170,158.63,170,159.041,170C159.452,170,159.863,170,160.274,170C160.685,170,161.096,170,161.507,170C161.918,170,162.329,170,162.74,170C163.151,170,163.562,170,163.973,170C164.384,170,164.795,170,165.205,170C165.616,170,166.027,170,166.438,170C166.849,170,167.26,170,167.671,170C168.082,170,168.493,170,168.904,170C169.315,170,169.726,170,170.137,170C170.548,170,170.959,170,171.37,170C171.781,170,172.192,170,172.603,170C173.014,170,173.425,170,173.836,170C174.247,170,174.658,170,175.068,170C175.479,170,175.89,170,176.301,170C176.712,170,177.123,170,177.534,170C177.945,170,178.356,170,178.767,170C179.178,170,179.589,170,180,170C180.411,170,180.822,170,181.233,170C181.644,170,182.055,170,182.466,170C182.877,170,183.288,170,183.699,170C184.11,170,184.521,170,184.932,170C185.342,170,185.753,170,186.164,170C186.575,170,186.986,170,187.397,170C187.808,170,188.219,170,188.63,170C189.041,170,189.452,170,189.863,170C190.274,170,190.685,170,191.096,170C191.507,170,191.918,170,192.329,170C192.74,170,193.151,170,193.562,170C193.973,170,194.384,170,194.795,170C195.205,170,195.616,170,196.027,170C196.438,170,196.849,170,197.26,170C197.671,170,198.082,170,198.493,170C198.904,170,199.315,170,199.726,170C200.137,170,200.548,170,200.959,170C201.37,170,201.781,170,202.192,170C202.603,170,203.014,170,203.425,170C203.836,170,204.247,170,204.658,170C205.068,170,205.479,170,205.89,170C206.301,170,206.712,170,207.123,170C207.534,170,207.945,170,208.356,170C208.767,170,209.178,170,209.589,170C210,170,210.411,170,210.822,170C211.233,170,211.644,170,212.055,170C212.466,170,212.877,170,213.288,170C213.699,170,214.11,170,214.521,170C214.932,170,215.342,170,215.753,170C216.164,170,216.575,170,216.986,170C217.397,170,217.808,170,218.219,170C218.63,170,219.041,170,219.452,170C219.863,170,220.274,170,220.685,170C221.096,170,221.507,170,221.918,170C222.329,170,222.74,170,223.151,170C223.562,170,223.973,170,224.384,170C224.795,170,225.205,170,225.616,170C226.027,170,226.438,170,226.849,170C227.26,170,227.671,170,228.082,170C228.493,170,228.904,170,229.315,170C229.726,170,230.137,170,230.548,170C230.959,170,231.37,170,231.781,170C232.192,170,232.603,170,233.014,170C233.425,170,233.836,170,234.247,170C234.658,170,235.068,170,235.479,170C235.89,170,236.301,170,236.712,170C237.123,170,237.534,170,237.945,170C238.356,170,238.767,170,239.178,170C239.589,170,240,170,240.411,170C240.822,170,241.233,170,241.644,170C242.055,170,242.466,170,242.877,170C243.288,170,243.699,170,244.11,170C244.521,170,244.932,170,245.342,170C245.753,170,246.164,170,246.575,170C246.986,170,247.397,170,247.808,170C248.219,170,248.63,170,249.041,170C249.452,170,249.863,170,250.274,170C250.685,170,251.096,170,251.507,170C251.918,170,252.329,170,252.74,170C253.151,170,253.562,170,253.973,170C254.384,170,254.795,170,255.205,170C255.616,170,256.027,170,256.438,170C256.849,170,257.26,170,257.671,170C258.082,170,258.493,170,258.904,170C259.315,170,259.726,170,260.137,170C260.548,170,260.959,170,261.37,170C261.781,170,262.192,170,262.603,170C263.014,170,263.425,170,263.836,170C264.247,170,264.658,170,265.068,170C265.479,170,265.89,170,266.301,170C266.712,170,267.123,170,267.534,170C267.945,170,268.356,170,268.767,170C269.178,170,269.589,170,270,170C270.411,170,270.822,170,271.233,170C271.644,170,272.055,170,272.466,170C272.877,170,273.288,170,273.699,170C274.11,170,274.521,170,274.932,170C275.342,170,275.753,170,276.164,170C276.575,170,276.986,170,277.397,170C277.808,170,278.219,170,278.63,170C279.041,170,279.452,170,279.863,170C280.274,170,280.685,170,281.096,170C281.507,170,281.918,170,282.329,170C282.74,170,283.151,170,283.562,170C283.973,170,284.384,170,284.795,170C285.205,170,285.616,170,286.027,170C286.438,170,286.849,170,287.26,170C287.671,170,288.082,170,288.493,170C288.904,170,289.315,170,289.726,170C290.137,170,290.548,170,290.959,170C291.37,170,291.781,170,292.192,170C292.603,170,293.014,170,293.425,170C293.836,170,294.247,170,294.658,170C295.068,170,295.479,170,295.89,170C296.301,170,296.712,170,297.123,170C297.534,170,297.945,170,298.356,170C298.767,170,299.178,170,299.589,170C300,170,300.411,170,300.822,170C301.233,170,301.644,170,302.055,170C302.466,170,302.877,170,303.288,170C303.699,170,304.11,170,304.521,170C304.932,170,305.342,170,305.753,170C306.164,170,306.575,170,306.986,170C307.397,170,307.808,170,308.219,170C308.63,170,309.041,170,309.452,170C309.863,170,310.274,170,310.685,170C311.096,170,311.507,170,311.918,170C312.329,170,312.74,170,313.151,170C313.562,170,313.973,170,314.384,170C314.795,170,315.205,170,315.616,170C316.027,170,316.438,170,316.849,170C317.26,170,317.671,170,318.082,170C318.493,170,318.904,170,319.315,170C319.726,170,320.137,170,320.548,170C320.959,170,321.37,170,321.781,170C322.192,170,322.603,170,323.014,170C323.425,170,323.836,170,324.247,170C324.658,170,325.068,170,325.479,170C325.89,170,326.301,170,326.712,170C327.123,170,327.534,170,327.945,170C328.356,170,328.767,170,329.178,170C329.589,170,330,170,330.411,170C330.822,170,331.233,170,331.644,170C332.055,170,332.466,170,332.877,170C333.288,170,333.699,170,334.11,170C334.521,170,334.932,170,335.342,170C335.753,170,336.164,170,336.575,170C336.986,170,337.397,170,337.808,170C338.219,170,338.63,170,339.041,170C339.452,170,339.863,170,340.274,170C340.685,170,341.096,170,341.507,170C341.918,170,342.329,170,342.74,170C343.151,170,343.562,170,343.973,170C344.384,170,344.795,170,345.205,170C345.616,170,346.027,170,346.438,170C346.849,170,347.26,170,347.671,170C348.082,170,348.493,170,348.904,170C349.315,170,349.726,170,350.137,170C350.548,170,350.959,170,351.37,170C351.781,170,352.192,170,352.603,170C353.014,170,353.425,170,353.836,170C354.247,170,354.658,170,355.068,170C355.479,170,355.89,170,356.301,170C356.712,170,357.123,170,357.534,170C357.945,170,358.356,170,358.767,170C359.178,170,359.589,170,360,170C360.411,170,360.822,170,361.233,170C361.644,170,362.055,170,362.466,170C362.877,170,363.288,170,363.699,170C364.11,170,364.521,170,364.932,170C365.342,170,365.753,170,366.164,170C366.575,170,366.986,170,367.397,170C367.808,170,368.219,170,368.63,170C369.041,170,369.452,170,369.863,170C370.274,170,370.685,170,371.096,170C371.507,170,371.918,170,372.329,170C372.74,170,373.151,170,373.562,170C373.973,170,374.384,170,374.795,170C375.205,170,375.616,170,376.027,170C376.438,170,376.849,170,377.26,170C377.671,170,378.082,170,378.493,170C378.904,170,379.315,170,379.726,170C380.137,170,380.548,170,380.959,170C381.37,170,381.781,170,382.192,170C382.603,170,383.014,170,383.425,170C383.836,170,384.247,170,384.658,170C385.068,170,385.479,170,385.89,170C386.301,170,386.712,170,387.123,170C387.534,170,387.945,170,388.356,170C388.767,170,389.178,170,389.589,170C390,170,390.411,170,390.822,170C391.233,170,391.644,170,392.055,170C392.466,170,392.877,170,393.288,170C393.699,170,394.11,170,394.521,170C394.932,170,395.342,170,395.753,170C396.164,170,396.575,170,396.986,170C397.397,170,397.808,170,398.219,170C398.63,170,399.041,170,399.452,170C399.863,170,400.274,170,400.685,170C401.096,170,401.507,170,401.918,170C402.329,170,402.74,170,403.151,170C403.562,170,403.973,170,404.384,170C404.795,170,405.205,170,405.616,170C406.027,170,406.438,170,406.849,170C407.26,170,407.671,170,408.082,170C408.493,170,408.904,170,409.315,170C409.726,170,410.137,170,410.548,170C410.959,170,411.37,170,411.781,170C412.192,170,412.603,170,413.014,170C413.425,170,413.836,170,414.247,170C414.658,170,415.068,170,415.479,170C415.89,170,416.301,170,416.712,170C417.123,170,417.534,170,417.945,170C418.356,170,418.767,170,419.178,170C419.589,170,420,170,420.411,170C420.822,170,421.233,170,421.644,170C422.055,170,422.466,170,422.877,170C423.288,170,423.699,170,424.11,170C424.521,170,424.932,170,425.342,170C425.753,170,426.164,170,426.575,170C426.986,170,427.397,170,427.808,170C428.219,170,428.63,170,429.041,170C429.452,170,429.863,170,430.274,170C430.685,170,431.096,170,431.507,170C431.918,170,432.329,170,432.74,170C433.151,170,433.562,170,433.973,170C434.384,170,434.795,170,435.205,170C435.616,170,436.027,170,436.438,170C436.849,170,437.26,170,437.671,170C438.082,170,438.493,170,438.904,170C439.315,170,439.726,170,440.137,170C440.548,170,440.959,170,441.37,170C441.781,170,442.192,170,442.603,170C443.014,170,443.425,170,443.836,170C444.247,170,444.658,170,445.068,170C445.479,170,445.89,170,446.301,170C446.712,170,447.123,170,447.534,170C447.945,170,448.356,170,448.767,170C449.178,170,449.589,170,450,170C450.411,170,450.822,170,451.233,170C451.644,170,452.055,170,452.466,170C452.877,170,453.288,170,453.699,170C454.11,170,454.521,170,454.932,170C455.342,170,455.753,170,456.164,170C456.575,170,456.986,170,457.397,170C457.808,170,458.219,170,458.63,170C459.041,170,459.452,170,459.863,170C460.274,170,460.685,170,461.096,170C461.507,170,461.918,170,462.329,170C462.74,170,463.151,170,463.562,170C463.973,170,464.384,170,464.795,170C465.205,170,465.616,170,466.027,170C466.438,170,466.849,170,467.26,170C467.671,170,468.082,170,468.493,170C468.904,170,469.315,170,469.726,170C470.137,170,470.548,170,470.959,170C471.37,170,471.781,170,472.192,170C472.603,170,473.014,170,473.425,170C473.836,170,474.247,170,474.658,170C475.068,170,475.479,170,475.89,170C476.301,170,476.712,170,477.123,170C477.534,170,477.945,170,478.356,170C478.767,170,479.178,170,479.589,170C480,170,480.411,170,480.822,170C481.233,170,481.644,170,482.055,170C482.466,170,482.877,170,483.288,170C483.699,170,484.11,170,484.521,170C484.932,170,485.342,170,485.753,170C486.164,170,486.575,170,486.986,170C487.397,170,487.808,170,488.219,170C488.63,170,489.041,170,489.452,170C489.863,170,490.274,170,490.685,170C491.096,170,491.507,170,491.918,170C492.329,170,492.74,170,493.151,170C493.562,170,493.973,170,494.384,170C494.795,170,495.205,170,495.616,170C496.027,170,496.438,170,496.849,170C497.26,170,497.671,170,498.082,170C498.493,170,498.904,170,499.315,170C499.726,170,500.137,170,500.548,170C500.959,170,501.37,170,501.781,170C502.192,170,502.603,170,503.014,170C503.425,170,503.836,170,504.247,170C504.658,170,505.068,170,505.479,170C505.89,170,506.301,170,506.712,170C507.123,170,507.534,170,507.945,170C508.356,170,508.767,170,509.178,170C509.589,170,510,170,510.411,170C510.822,170,511.233,170,511.644,170C512.055,170,512.466,170,512.877,170C513.288,170,513.699,170,514.11,170C514.521,170,514.932,170,515.342,170C515.753,170,516.164,170,516.575,170C516.986,170,517.397,170,517.808,170C518.219,170,518.63,170,519.041,170C519.452,170,519.863,170,520.274,170C520.685,170,521.096,170,521.507,170C521.918,170,522.329,170,522.74,170C523.151,170,523.562,170,523.973,170C524.384,170,524.795,170,525.205,170C525.616,170,526.027,170,526.438,170C526.849,170,527.26,170,527.671,170C528.082,170,528.493,170,528.904,170C529.315,170,529.726,170,530.137,170C530.548,170,530.959,170,531.37,170C531.781,170,532.192,170,532.603,170C533.014,170,533.425,170,533.836,170C534.247,170,534.658,170,535.068,170C535.479,170,535.89,170,536.301,170C536.712,170,537.123,170,537.534,170C537.945,170,538.356,170,538.767,170C539.178,170,539.589,170,540,170C540.411,170,540.822,170,541.233,170C541.644,170,542.055,170,542.466,170C542.877,170,543.288,170,543.699,170C544.11,170,544.521,170,544.932,170C545.342,170,545.753,170,546.164,170C546.575,170,546.986,170,547.397,170C547.808,170,548.219,170,548.63,170C549.041,170,549.452,170,549.863,170C550.274,170,550.685,170,551.096,170C551.507,170,551.918,170,552.329,170C552.74,170,553.151,170,553.562,170C553.973,170,554.384,170,554.795,170C555.205,170,555.616,170,556.027,170C556.438,170,556.849,170,557.26,170C557.671,170,558.082,170,558.493,170C558.904,170,559.315,170,559.726,170C560.137,170,560.548,170,560.959,170C561.37,170,561.781,170,562.192,170C562.603,170,563.014,170,563.425,170C563.836,170,564.247,170,564.658,170C565.068,170,565.479,170,565.89,170C566.301,170,566.712,170,567.123,170C567.534,170,567.945,170,568.356,170C568.767,170,569.178,170,569.589,170C570,170,570.411,170,570.822,170C571.233,170,571.644,170,572.055,170C572.466,170,572.877,170,573.288,170C573.699,170,574.11,170,574.521,170C574.932,170,575.342,170,575.753,170C576.164,170,576.575,170,576.986,170C577.397,170,577.808,170,578.219,170C578.63,170,579.041,170,579.452,170C579.863,170,580.274,170,580.685,170C581.096,170,581.507,170,581.918,170C582.329,170,582.74,170,583.151,170C583.562,170,583.973,170,584.384,170C584.795,170,585.205,170,585.616,170C586.027,170,586.438,170,586.849,170C587.26,170,587.671,170,588.082,170C588.493,170,588.904,170,589.315,170C589.726,170,590.137,170,590.548,170C590.959,170,591.37,170,591.781,170C592.192,170,592.603,170,593.014,170C593.425,170,593.836,170,594.247,170C594.658,170,595.068,170,595.479,170C595.89,170,596.301,170,596.712,170C597.123,170,597.534,170,597.945,170C598.356,170,598.767,170,599.178,170C599.589,170,600,170,600.411,170C600.822,170,601.233,170,601.644,170C602.055,170,602.466,170,602.877,170C603.288,170,603.699,170,604.11,170C604.521,170,604.932,170,605.342,170C605.753,170,606.164,170,606.575,170C606.986,170,607.397,170,607.808,170C608.219,170,608.63,170,609.041,170C609.452,170,609.863,170,610.274,170C610.685,170,611.096,170,611.507,170C611.918,170,612.329,170,612.74,170C613.151,170,613.562,170,613.973,170C614.384,170,614.795,170,615.205,170C615.616,170,616.027,170,616.438,170C616.849,170,617.26,170,617.671,170C618.082,170,618.493,170,618.904,170C619.315,170,619.726,170,620.137,170C620.548,170,620.959,170,621.37,170C621.781,170,622.192,170,622.603,170C623.014,170,623.425,170,623.836,170C624.247,170,624.658,170,625.068,170C625.479,170,625.89,170,626.301,170C626.712,170,627.123,170,627.534,170C627.945,170,628.356,170,628.767,170C629.178,170,629.589,170,630,170C630.411,170,630.822,170,631.233,170C631.644,170,632.055,170,632.466,170C632.877,170,633.288,170,633.699,170C634.11,170,634.521,170,634.932,170C635.342,170,635.753,170,636.164,170C636.575,170,636.986,170,637.397,170C637.808,170,638.219,170,638.63,170C639.041,170,639.452,170,639.863,170C640.274,170,640.685,170,641.096,170C641.507,170,641.918,170,642.329,170C642.74,170,643.151,170,643.562,170C643.973,170,644.384,170,644.795,170C645.205,170,645.616,170,646.027,170C646.438,170,646.849,170,647.26,170C647.671,170,648.082,170,648.493,170C648.904,170,649.315,170,649.726,170C650.137,170,650.548,170,650.959,170C651.37,170,651.781,170,652.192,170C652.603,170,653.014,170,653.425,170C653.836,170,654.247,170,654.658,170C655.068,170,655.479,170,655.89,170C656.301,170,656.712,170,657.123,170C657.534,170,657.945,170,658.356,170C658.767,170,659.178,170,659.589,170C660,170,660.411,170,660.822,170C661.233,170,661.644,170,662.055,170C662.466,170,662.877,170,663.288,170C663.699,170,664.11,170,664.521,170C664.932,170,665.342,170,665.753,170C666.164,170,666.575,170,666.986,170C667.397,170,667.808,170,668.219,170C668.63,170,669.041,170,669.452,170C669.863,170,670.274,170,670.685,170C671.096,170,671.507,170,671.918,170C672.329,170,672.74,170,673.151,170C673.562,170,673.973,170,674.384,170C674.795,170,675.205,170,675.616,170C676.027,170,676.438,170,676.849,170C677.26,170,677.671,170,678.082,170C678.493,170,678.904,170,679.315,170C679.726,170,680.137,170,680.548,170C680.959,170,681.37,170,681.781,170C682.192,170,682.603,170,683.014,170C683.425,170,683.836,170,684.247,170C684.658,170,685.068,170,685.479,170C685.89,170,686.301,170,686.712,170C687.123,170,687.534,170,687.945,170C688.356,170,688.767,170,689.178,170C689.589,170,690,170,690.411,170C690.822,170,691.233,170,691.644,170C692.055,170,692.466,170,692.877,170C693.288,170,693.699,170,694.11,170C694.521,170,694.932,170,695.342,170C695.753,170,696.164,170,696.575,170C696.986,170,697.397,170,697.808,170C698.219,170,698.63,170,699.041,170C699.452,170,699.863,170,700.274,170C700.685,170,701.096,170,701.507,170C701.918,170,702.329,170,702.74,170C703.151,170,703.562,170,703.973,170C704.384,170,704.795,170,705.205,170C705.616,170,706.027,170,706.438,170C706.849,170,707.26,170,707.671,170C708.082,170,708.493,170,708.904,170C709.315,170,709.726,170,710.137,170C710.548,170,710.959,170,711.37,170C711.781,170,712.192,170,712.603,170C713.014,170,713.425,170,713.836,170C714.247,170,714.658,170,715.068,170C715.479,170,715.89,170,716.301,170C716.712,170,717.123,170,717.534,170C717.945,170,718.356,170,718.767,170C719.178,170,719.589,170,720,170"></path><circle class="dot" cx="0" cy="170" r="3" fill="#2563eb"></circle><circle class="dot" cx="1.2328767123287672" cy="170" r="3" fill="#2563eb"></circle><circle class="dot" cx="2.4657534246575343" cy="170" r="3" fill="#2563eb"></circle><circle class="dot" cx="3.698630136986301" cy="170" r="3" fill="#2563eb"></circle><circle class="dot" cx="4.931506849315069" cy="170" r="3" fill="#2563eb"></circle><circle class="dot" cx="6.164383561643835" cy="170" r="3" fill="#2563eb"></circle><circle class="dot" cx="7.397260273972602" cy="170" r="3" fill="#2563eb"></circle><circle class="dot" cx="8.63013698630137" cy="170" r="3" fill="#2563eb"></circle><circle class="dot" cx="9.863013698630137" cy="170" r="3" fill="#2563eb"></circle><circle class="dot" cx="11.095890410958903" cy="170" r="3" fill="#2563eb"></circle><circle class="dot" cx="12.32876712328767" cy="170" r="3" fill="#2563eb"></circle><circle class="dot" cx="13.561643835616438" cy="170" r="3" fill="#2563eb"></circle><circle class="dot" cx="14.794520547945204" cy="170" r="3" fill="#2563eb"></circle><circle class="dot" cx="16.027397260273972" cy="170" r="3" fill="#2563eb"></circle><circle class="dot" cx="17.26027397260274" cy="170" r="3" fill="#2563eb"></circle><circle class="dot" cx="18.493150684931507" cy="170" r="3" fill="#2563eb"></circle><circle class="dot" cx="19.726027397260275" cy="170" r="3" fill="#2563eb"></circle><circle class="dot" cx="20.95890410958904" cy="170" r="3" fill="#2563eb"></circle><circle class="dot" cx="22.191780821917806" cy="170" r="3" fill="#2563eb"></circle><circle class="dot" cx="23.424657534246574" cy="170" r="3" fill="#2563eb"></circle><circle class="dot" cx="24.65753424657534" cy="170" r="3" fill="#2563eb"></circle><circle class="dot" cx="25.89041095890411" cy="170" r="3" fill="#2563eb"></circle><circle class="dot" cx="27.123287671232877" cy="170" r="3" fill="#2563eb"></circle><circle class="dot" cx="28.35616438356164" cy="170" r="3" fill="#2563eb"></circle><circle class="dot" cx="29.58904109589041" cy="170" r="3" fill="#2563eb"></circle><circle class="dot" cx="30.821917808219176" cy="170" r="3" fill="#2563eb"></circle><circle class="dot" cx="32.054794520547944" cy="170" r="3" fill="#2563eb"></circle><circle class="dot" cx="33.28767123287671" cy="170" r="3" fill="#2563eb"></circle><circle class="dot" cx="34.52054794520548" cy="170" r="3" fill="#2563eb"></circle><circle class="dot" cx="35.75342465753425" cy="170" r="3" fill="#2563eb"></circle><circle class="dot" cx="36.986301369863014" cy="170" r="3" fill="#2563eb"></circle><circle class="dot" cx="38.21917808219178" cy="170" r="3" fill="#2563eb"></circle><circle class="dot" cx="39.45205479452055" cy="170" r="3" fill="#2563eb"></circle><circle class="dot" cx="40.68493150684931" cy="170" r="3" fill="#2563eb"></circle><circle class="dot" cx="41.91780821917808" cy="170" r="3" fill="#2563eb"></circle><circle class="dot" cx="43.150684931506845" cy="170" r="3" fill="#2563eb"></circle><circle class="dot" cx="44.38356164383561" cy="170" r="3" fill="#2563eb"></circle><circle class="dot" cx="45.61643835616439" cy="170" r="3" fill="#2563eb"></circle><circle class="dot" cx="46.84931506849315" cy="170" r="3" fill="#2563eb"></circle><circle class="dot" cx="48.08219178082192" cy="170" r="3" fill="#2563eb"></circle><circle class="dot" cx="49.31506849315068" cy="170" r="3" fill="#2563eb"></circle><circle class="dot" cx="50.54794520547945" cy="170" r="3" fill="#2563eb"></circle><circle class="dot" cx="51.78082191780822" cy="170" r="3" fill="#2563eb"></circle><circle class="dot" cx="53.013698630136986" cy="170" r="3" fill="#2563eb"></circle><circle class="dot" cx="54.24657534246575" cy="170" r="3" fill="#2563eb"></circle><circle class="dot" cx="55.47945205479452" cy="170" r="3" fill="#2563eb"></circle><circle class="dot" cx="56.71232876712328" cy="170" r="3" fill="#2563eb"></circle><circle class="dot" cx="57.945205479452056" cy="170" r="3" fill="#2563eb"></circle><circle class="dot" cx="59.17808219178082" cy="170" r="3" fill="#2563eb"></circle><circle class="dot" cx="60.41095890410959" cy="170" r="3" fill="#2563eb"></circle><circle class="dot" cx="61.64383561643835" cy="170" r="3" fill="#2563eb"></circle><circle class="dot" cx="62.87671232876713" cy="170" r="3" fill="#2563eb"></circle><circle class="dot" cx="64.10958904109589" cy="170" r="3" fill="#2563eb"></circle><circle class="dot" cx="65.34246575342466" cy="170" r="3" fill="#2563eb"></circle><circle class="dot" cx="66.57534246575342" cy="170" r="3" fill="#2563eb"></circle><circle class="dot" cx="67.8082191780822" cy="170" r="3" fill="#2563eb"></circle><circle class="dot" cx="69.04109589041096" cy="170" r="3" fill="#2563eb"></circle><circle class="dot" cx="70.27397260273973" cy="170" r="3" fill="#2563eb"></circle><circle class="dot" cx="71.5068493150685" cy="170" r="3" fill="#2563eb"></circle><circle class="dot" cx="72.73972602739727" cy="170" r="3" fill="#2563eb"></circle><circle class="dot" cx="73.97260273972603" cy="170" r="3" fill="#2563eb"></circle><circle class="dot" cx="75.20547945205479" cy="170" r="3" fill="#2563eb"></circle><circle class="dot" cx="76.43835616438356" cy="170" r="3" fill="#2563eb"></circle><circle class="dot" cx="77.67123287671232" cy="170" r="3" fill="#2563eb"></circle><circle class="dot" cx="78.9041095890411" cy="170" r="3" fill="#2563eb"></circle><circle class="dot" cx="80.13698630136986" cy="170" r="3" fill="#2563eb"></circle><circle class="dot" cx="81.36986301369862" cy="170" r="3" fill="#2563eb"></circle><circle class="dot" cx="82.6027397260274" cy="170" r="3" fill="#2563eb"></circle><circle class="dot" cx="83.83561643835615" cy="170" r="3" fill="#2563eb"></circle><circle class="dot" cx="85.06849315068493" cy="170" r="3" fill="#2563eb"></circle><circle class="dot" cx="86.30136986301369" cy="170" r="3" fill="#2563eb"></circle><circle class="dot" cx="87.53424657534246" cy="170" r="3" fill="#2563eb"></circle><circle class="dot" cx="88.76712328767123" cy="170" r="3" fill="#2563eb"></circle><circle class="dot" cx="90" cy="170" r="3" fill="#2563eb"></circle><circle class="dot" cx="91.23287671232877" cy="170" r="3" fill="#2563eb"></circle><circle class="dot" cx="92.46575342465755" cy="170" r="3" fill="#2563eb"></circle><circle class="dot" cx="93.6986301369863" cy="170" r="3" fill="#2563eb"></circle><circle class="dot" cx="94.93150684931507" cy="170" r="3" fill="#2563eb"></circle><circle class="dot" cx="96.16438356164385" cy="170" r="3" fill="#2563eb"></circle><circle class="dot" cx="97.3972602739726" cy="170" r="3" fill="#2563eb"></circle><circle class="dot" cx="98.63013698630137" cy="170" r="3" fill="#2563eb"></circle><circle class="dot" cx="99.86301369863014" cy="170" r="3" fill="#2563eb"></circle><circle class="dot" cx="101.0958904109589" cy="170" r="3" fill="#2563eb"></circle><circle class="dot" cx="102.32876712328768" cy="170" r="3" fill="#2563eb"></circle><circle class="dot" cx="103.56164383561644" cy="170" r="3" fill="#2563eb"></circle><circle class="dot" cx="104.79452054794521" cy="170" r="3" fill="#2563eb"></circle><circle class="dot" cx="106.02739726027397" cy="170" r="3" fill="#2563eb"></circle><circle class="dot" cx="107.26027397260275" cy="170" r="3" fill="#2563eb"></circle><circle class="dot" cx="108.4931506849315" cy="170" r="3" fill="#2563eb"></circle><circle class="dot" cx="109.72602739726027" cy="170" r="3" fill="#2563eb"></circle><circle class="dot" cx="110.95890410958904" cy="170" r="3" fill="#2563eb"></circle><circle class="dot" cx="112.19178082191782" cy="170" r="3" fill="#2563eb"></circle><circle class="dot" cx="113.42465753424656" cy="170" r="3" fill="#2563eb"></circle><circle class="dot" cx="114.65753424657534" cy="170" r="3" fill="#2563eb"></circle><circle class="dot" cx="115.89041095890411" cy="170" r="3" fill="#2563eb"></circle><circle class="dot" cx="117.12328767123289" cy="170" r="3" fill="#2563eb"></circle><circle class="dot" cx="118.35616438356163" cy="170" r="3" fill="#2563eb"></circle><circle class="dot" cx="119.58904109589041" cy="170" r="3" fill="#2563eb"></circle><circle class="dot" cx="120.82191780821918" cy="170" r="3" fill="#2563eb"></circle><circle class="dot" cx="122.05479452054796" cy="170" r="3" fill="#2563eb"></circle><circle class="dot" cx="123.2876712328767" cy="170" r="3" fill="#2563eb"></circle><circle class="dot" cx="124.52054794520548" cy="170" r="3" fill="#2563eb"></circle><circle class="dot" cx="125.75342465753425" cy="170" r="3" fill="#2563eb"></circle><circle class="dot" cx="126.98630136986303" cy="170" r="3" fill="#2563eb"></circle><circle class="dot" cx="128.21917808219177" cy="170" r="3" fill="#2563eb"></circle><circle class="dot" cx="129.45205479452054" cy="170" r="3" fill="#2563eb"></circle><circle class="dot" cx="130.68493150684932" cy="170" r="3" fill="#2563eb"></circle><circle class="dot" cx="131.91780821917808" cy="170" r="3" fill="#2563eb"></circle><circle class="dot" cx="133.15068493150685" cy="170" r="3" fill="#2563eb"></circle><circle class="dot" cx="134.3835616438356" cy="170" r="3" fill="#2563eb"></circle><circle class="dot" cx="135.6164383561644" cy="170" r="3" fill="#2563eb"></circle><circle class="dot" cx="136.84931506849315" cy="170" r="3" fill="#2563eb"></circle><circle class="dot" cx="138.08219178082192" cy="170" r="3" fill="#2563eb"></circle><circle class="dot" cx="139.31506849315068" cy="170" r="3" fill="#2563eb"></circle><circle class="dot" cx="140.54794520547946" cy="170" r="3" fill="#2563eb"></circle><circle class="dot" cx="141.78082191780823" cy="170" r="3" fill="#2563eb"></circle><circle class="dot" cx="143.013698630137" cy="170" r="3" fill="#2563eb"></circle><circle class="dot" cx="144.24657534246575" cy="170" r="3" fill="#2563eb"></circle><circle class="dot" cx="145.47945205479454" cy="170" r="3" fill="#2563eb"></circle><circle class="dot" cx="146.7123287671233" cy="170" r="3" fill="#2563eb"></circle><circle class="dot" cx="147.94520547945206" cy="170" r="3" fill="#2563eb"></circle><circle class="dot" cx="149.17808219178082" cy="170" r="3" fill="#2563eb"></circle><circle class="dot" cx="150.41095890410958" cy="170" r="3" fill="#2563eb"></circle><circle class="dot" cx="151.64383561643837" cy="170" r="3" fill="#2563eb"></circle><circle class="dot" cx="152.87671232876713" cy="170" r="3" fill="#2563eb"></circle><circle class="dot" cx="154.1095890410959" cy="170" r="3" fill="#2563eb"></circle><circle class="dot" cx="155.34246575342465" cy="170" r="3" fill="#2563eb"></circle><circle class="dot" cx="156.57534246575344" cy="170" r="3" fill="#2563eb"></circle><circle class="dot" cx="157.8082191780822" cy="170" r="3" fill="#2563eb"></circle><circle class="dot" cx="159.04109589041096" cy="170" r="3" fill="#2563eb"></circle><circle class="dot" cx="160.27397260273972" cy="170" r="3" fill="#2563eb"></circle><circle class="dot" cx="161.5068493150685" cy="170" r="3" fill="#2563eb"></circle><circle class="dot" cx="162.73972602739724" cy="170" r="3" fill="#2563eb"></circle><circle class="dot" cx="163.97260273972603" cy="170" r="3" fill="#2563eb"></circle><circle class="dot" cx="165.2054794520548" cy="170" r="3" fill="#2563eb"></circle><circle class="dot" cx="166.43835616438358" cy="170" r="3" fill="#2563eb"></circle><circle class="dot" cx="167.6712328767123" cy="170" r="3" fill="#2563eb"></circle><circle class="dot" cx="168.9041095890411" cy="170" r="3" fill="#2563eb"></circle><circle class="dot" cx="170.13698630136986" cy="170" r="3" fill="#2563eb"></circle><circle class="dot" cx="171.36986301369865" cy="170" r="3" fill="#2563eb"></circle><circle class="dot" cx="172.60273972602738" cy="170" r="3" fill="#2563eb"></circle><circle class="dot" cx="173.83561643835617" cy="170" r="3" fill="#2563eb"></circle><circle class="dot" cx="175.06849315068493" cy="170" r="3" fill="#2563eb"></circle><circle class="dot" cx="176.3013698630137" cy="170" r="3" fill="#2563eb"></circle><circle class="dot" cx="177.53424657534245" cy="170" r="3" fill="#2563eb"></circle><circle class="dot" cx="178.76712328767124" cy="170" r="3" fill="#2563eb"></circle><circle class="dot" cx="180" cy="170" r="3" fill="#2563eb"></circle><circle class="dot" cx="181.23287671232876" cy="170" r="3" fill="#2563eb"></circle><circle class="dot" cx="182.46575342465755" cy="170" r="3" fill="#2563eb"></circle><circle class="dot" cx="183.6986301369863" cy="170" r="3" fill="#2563eb"></circle><circle class="dot" cx="184.9315068493151" cy="170" r="3" fill="#2563eb"></circle><circle class="dot" cx="186.16438356164383" cy="170" r="3" fill="#2563eb"></circle><circle class="dot" cx="187.3972602739726" cy="170" r="3" fill="#2563eb"></circle><circle class="dot" cx="188.63013698630135" cy="170" r="3" fill="#2563eb"></circle><circle class="dot" cx="189.86301369863014" cy="170" r="3" fill="#2563eb"></circle><circle class="dot" cx="191.0958904109589" cy="170" r="3" fill="#2563eb"></circle><circle class="dot" cx="192.3287671232877" cy="170" r="3" fill="#2563eb"></circle><circle class="dot" cx="193.56164383561645" cy="170" r="3" fill="#2563eb"></circle><circle class="dot" cx="194.7945205479452" cy="170" r="3" fill="#2563eb"></circle><circle class="dot" cx="196.02739726027394" cy="170" r="3" fill="#2563eb"></circle><circle class="dot" cx="197.26027397260273" cy="170" r="3" fill="#2563eb"></circle><circle class="dot" cx="198.4931506849315" cy="170" r="3" fill="#2563eb"></circle><circle class="dot" cx="199.72602739726028" cy="170" r="3" fill="#2563eb"></circle><circle class="dot" cx="200.95890410958904" cy="170" r="3" fill="#2563eb"></circle><circle class="dot" cx="202.1917808219178" cy="170" r="3" fill="#2563eb"></circle><circle class="dot" cx="203.4246575342466" cy="170" r="3" fill="#2563eb"></circle><circle class="dot" cx="204.65753424657535" cy="170" r="3" fill="#2563eb"></circle><circle class="dot" cx="205.89041095890408" cy="170" r="3" fill="#2563eb"></circle><circle class="dot" cx="207.12328767123287" cy="170" r="3" fill="#2563eb"></circle><circle class="dot" cx="208.35616438356163" cy="170" r="3" fill="#2563eb"></circle><circle class="dot" cx="209.58904109589042" cy="170" r="3" fill="#2563eb"></circle><circle class="dot" cx="210.82191780821918" cy="170" r="3" fill="#2563eb"></circle><circle class="dot" cx="212.05479452054794" cy="170" r="3" fill="#2563eb"></circle><circle class="dot" cx="213.28767123287673" cy="170" r="3" fill="#2563eb"></circle><circle class="dot" cx="214.5205479452055" cy="170" r="3" fill="#2563eb"></circle><circle class="dot" cx="215.75342465753423" cy="170" r="3" fill="#2563eb"></circle><circle class="dot" cx="216.986301369863" cy="170" r="3" fill="#2563eb"></circle><circle class="dot" cx="218.21917808219177" cy="170" r="3" fill="#2563eb"></circle><circle class="dot" cx="219.45205479452054" cy="170" r="3" fill="#2563eb"></circle><circle class="dot" cx="220.68493150684932" cy="170" r="3" fill="#2563eb"></circle><circle class="dot" cx="221.91780821917808" cy="170" r="3" fill="#2563eb"></circle><circle class="dot" cx="223.15068493150687" cy="170" r="3" fill="#2563eb"></circle><circle class="dot" cx="224.38356164383563" cy="170" r="3" fill="#2563eb"></circle><circle class="dot" cx="225.61643835616437" cy="170" r="3" fill="#2563eb"></circle><circle class="dot" cx="226.84931506849313" cy="170" r="3" fill="#2563eb"></circle><circle class="dot" cx="228.08219178082192" cy="170" r="3" fill="#2563eb"></circle><circle class="dot" cx="229.31506849315068" cy="170" r="3" fill="#2563eb"></circle><circle class="dot" cx="230.54794520547946" cy="170" r="3" fill="#2563eb"></circle><circle class="dot" cx="231.78082191780823" cy="170" r="3" fill="#2563eb"></circle><circle class="dot" cx="233.013698630137" cy="170" r="3" fill="#2563eb"></circle><circle class="dot" cx="234.24657534246577" cy="170" r="3" fill="#2563eb"></circle><circle class="dot" cx="235.4794520547945" cy="170" r="3" fill="#2563eb"></circle><circle class="dot" cx="236.71232876712327" cy="170" r="3" fill="#2563eb"></circle><circle class="dot" cx="237.94520547945206" cy="170" r="3" fill="#2563eb"></circle><circle class="dot" cx="239.17808219178082" cy="170" r="3" fill="#2563eb"></circle><circle class="dot" cx="240.41095890410958" cy="170" r="3" fill="#2563eb"></circle><circle class="dot" cx="241.64383561643837" cy="170" r="3" fill="#2563eb"></circle><circle class="dot" cx="242.87671232876713" cy="170" r="3" fill="#2563eb"></circle><circle class="dot" cx="244.10958904109592" cy="170" r="3" fill="#2563eb"></circle><circle class="dot" cx="245.34246575342465" cy="170" r="3" fill="#2563eb"></circle><circle class="dot" cx="246.5753424657534" cy="170" r="3" fill="#2563eb"></circle><circle class="dot" cx="247.8082191780822" cy="170" r="3" fill="#2563eb"></circle><circle class="dot" cx="249.04109589041096" cy="170" r="3" fill="#2563eb"></circle><circle class="dot" cx="250.27397260273972" cy="170" r="3" fill="#2563eb"></circle><circle class="dot" cx="251.5068493150685" cy="170" r="3" fill="#2563eb"></circle><circle class="dot" cx="252.73972602739727" cy="170" r="3" fill="#2563eb"></circle><circle class="dot" cx="253.97260273972606" cy="170" r="3" fill="#2563eb"></circle><circle class="dot" cx="255.2054794520548" cy="170" r="3" fill="#2563eb"></circle><circle class="dot" cx="256.43835616438355" cy="170" r="3" fill="#2563eb"></circle><circle class="dot" cx="257.67123287671234" cy="170" r="3" fill="#2563eb"></circle><circle class="dot" cx="258.90410958904107" cy="170" r="3" fill="#2563eb"></circle><circle class="dot" cx="260.13698630136986" cy="170" r="3" fill="#2563eb"></circle><circle class="dot" cx="261.36986301369865" cy="170" r="3" fill="#2563eb"></circle><circle class="dot" cx="262.6027397260274" cy="170" r="3" fill="#2563eb"></circle><circle class="dot" cx="263.83561643835617" cy="170" r="3" fill="#2563eb"></circle><circle class="dot" cx="265.0684931506849" cy="170" r="3" fill="#2563eb"></circle><circle class="dot" cx="266.3013698630137" cy="170" r="3" fill="#2563eb"></circle><circle class="dot" cx="267.5342465753425" cy="170" r="3" fill="#2563eb"></circle><circle class="dot" cx="268.7671232876712" cy="170" r="3" fill="#2563eb"></circle><circle class="dot" cx="270" cy="170" r="3" fill="#2563eb"></circle><circle class="dot" cx="271.2328767123288" cy="170" r="3" fill="#2563eb"></circle><circle class="dot" cx="272.4657534246575" cy="170" r="3" fill="#2563eb"></circle><circle class="dot" cx="273.6986301369863" cy="170" r="3" fill="#2563eb"></circle><circle class="dot" cx="274.9315068493151" cy="170" r="3" fill="#2563eb"></circle><circle class="dot" cx="276.16438356164383" cy="170" r="3" fill="#2563eb"></circle><circle class="dot" cx="277.3972602739726" cy="170" r="3" fill="#2563eb"></circle><circle class="dot" cx="278.63013698630135" cy="170" r="3" fill="#2563eb"></circle><circle class="dot" cx="279.86301369863014" cy="170" r="3" fill="#2563eb"></circle><circle class="dot" cx="281.09589041095893" cy="170" r="3" fill="#2563eb"></circle><circle class="dot" cx="282.32876712328766" cy="170" r="3" fill="#2563eb"></circle><circle class="dot" cx="283.56164383561645" cy="170" r="3" fill="#2563eb"></circle><circle class="dot" cx="284.79452054794524" cy="170" r="3" fill="#2563eb"></circle><circle class="dot" cx="286.027397260274" cy="170" r="3" fill="#2563eb"></circle><circle class="dot" cx="287.2602739726027" cy="170" r="3" fill="#2563eb"></circle><circle class="dot" cx="288.4931506849315" cy="170" r="3" fill="#2563eb"></circle><circle class="dot" cx="289.7260273972603" cy="170" r="3" fill="#2563eb"></circle><circle class="dot" cx="290.95890410958907" cy="170" r="3" fill="#2563eb"></circle><circle class="dot" cx="292.1917808219178" cy="170" r="3" fill="#2563eb"></circle><circle class="dot" cx="293.4246575342466" cy="170" r="3" fill="#2563eb"></circle><circle class="dot" cx="294.6575342465754" cy="170" r="3" fill="#2563eb"></circle><circle class="dot" cx="295.8904109589041" cy="170" r="3" fill="#2563eb"></circle><circle class="dot" cx="297.12328767123284" cy="170" r="3" fill="#2563eb"></circle><circle class="dot" cx="298.35616438356163" cy="170" r="3" fill="#2563eb"></circle><circle class="dot" cx="299.5890410958904" cy="170" r="3" fill="#2563eb"></circle><circle class="dot" cx="300.82191780821915" cy="170" r="3" fill="#2563eb"></circle><circle class="dot" cx="302.05479452054794" cy="170" r="3" fill="#2563eb"></circle><circle class="dot" cx="303.28767123287673" cy="170" r="3" fill="#2563eb"></circle><circle class="dot" cx="304.5205479452055" cy="170" r="3" fill="#2563eb"></circle><circle class="dot" cx="305.75342465753425" cy="170" r="3" fill="#2563eb"></circle><circle class="dot" cx="306.986301369863" cy="170" r="3" fill="#2563eb"></circle><circle class="dot" cx="308.2191780821918" cy="170" r="3" fill="#2563eb"></circle><circle class="dot" cx="309.45205479452056" cy="170" r="3" fill="#2563eb"></circle><circle class="dot" cx="310.6849315068493" cy="170" r="3" fill="#2563eb"></circle><circle class="dot" cx="311.9178082191781" cy="170" r="3" fill="#2563eb"></circle><circle class="dot" cx="313.1506849315069" cy="170" r="3" fill="#2563eb"></circle><circle class="dot" cx="314.3835616438356" cy="170" r="3" fill="#2563eb"></circle><circle class="dot" cx="315.6164383561644" cy="170" r="3" fill="#2563eb"></circle><circle class="dot" cx="316.8493150684931" cy="170" r="3" fill="#2563eb"></circle><circle class="dot" cx="318.0821917808219" cy="170" r="3" fill="#2563eb"></circle><circle class="dot" cx="319.3150684931507" cy="170" r="3" fill="#2563eb"></circle><circle class="dot" cx="320.54794520547944" cy="170" r="3" fill="#2563eb"></circle><circle class="dot" cx="321.7808219178082" cy="170" r="3" fill="#2563eb"></circle><circle class="dot" cx="323.013698630137" cy="170" r="3" fill="#2563eb"></circle><circle class="dot" cx="324.24657534246575" cy="170" r="3" fill="#2563eb"></circle><circle class="dot" cx="325.4794520547945" cy="170" r="3" fill="#2563eb"></circle><circle class="dot" cx="326.71232876712327" cy="170" r="3" fill="#2563eb"></circle><circle class="dot" cx="327.94520547945206" cy="170" r="3" fill="#2563eb"></circle><circle class="dot" cx="329.17808219178085" cy="170" r="3" fill="#2563eb"></circle><circle class="dot" cx="330.4109589041096" cy="170" r="3" fill="#2563eb"></circle><circle class="dot" cx="331.64383561643837" cy="170" r="3" fill="#2563eb"></circle><circle class="dot" cx="332.87671232876716" cy="170" r="3" fill="#2563eb"></circle><circle class="dot" cx="334.1095890410959" cy="170" r="3" fill="#2563eb"></circle><circle class="dot" cx="335.3424657534246" cy="170" r="3" fill="#2563eb"></circle><circle class="dot" cx="336.5753424657534" cy="170" r="3" fill="#2563eb"></circle><circle class="dot" cx="337.8082191780822" cy="170" r="3" fill="#2563eb"></circle><circle class="dot" cx="339.04109589041093" cy="170" r="3" fill="#2563eb"></circle><circle class="dot" cx="340.2739726027397" cy="170" r="3" fill="#2563eb"></circle><circle class="dot" cx="341.5068493150685" cy="170" r="3" fill="#2563eb"></circle><circle class="dot" cx="342.7397260273973" cy="170" r="3" fill="#2563eb"></circle><circle class="dot" cx="343.972602739726" cy="170" r="3" fill="#2563eb"></circle><circle class="dot" cx="345.20547945205476" cy="170" r="3" fill="#2563eb"></circle><circle class="dot" cx="346.43835616438355" cy="170" r="3" fill="#2563eb"></circle><circle class="dot" cx="347.67123287671234" cy="170" r="3" fill="#2563eb"></circle><circle class="dot" cx="348.90410958904107" cy="170" r="3" fill="#2563eb"></circle><circle class="dot" cx="350.13698630136986" cy="170" r="3" fill="#2563eb"></circle><circle class="dot" cx="351.36986301369865" cy="170" r="3" fill="#2563eb"></circle><circle class="dot" cx="352.6027397260274" cy="170" r="3" fill="#2563eb"></circle><circle class="dot" cx="353.83561643835617" cy="170" r="3" fill="#2563eb"></circle><circle class="dot" cx="355.0684931506849" cy="170" r="3" fill="#2563eb"></circle><circle class="dot" cx="356.3013698630137" cy="170" r="3" fill="#2563eb"></circle><circle class="dot" cx="357.5342465753425" cy="170" r="3" fill="#2563eb"></circle><circle class="dot" cx="358.7671232876712" cy="170" r="3" fill="#2563eb"></circle><circle class="dot" cx="360" cy="170" r="3" fill="#2563eb"></circle><circle class="dot" cx="361.23287671232873" cy="170" r="3" fill="#2563eb"></circle><circle class="dot" cx="362.4657534246575" cy="170" r="3" fill="#2563eb"></circle><circle class="dot" cx="363.69863013698625" cy="170" r="3" fill="#2563eb"></circle><circle class="dot" cx="364.9315068493151" cy="170" r="3" fill="#2563eb"></circle><circle class="dot" cx="366.16438356164383" cy="170" r="3" fill="#2563eb"></circle><circle class="dot" cx="367.3972602739726" cy="170" r="3" fill="#2563eb"></circle><circle class="dot" cx="368.63013698630135" cy="170" r="3" fill="#2563eb"></circle><circle class="dot" cx="369.8630136986302" cy="170" r="3" fill="#2563eb"></circle><circle class="dot" cx="371.09589041095893" cy="170" r="3" fill="#2563eb"></circle><circle class="dot" cx="372.32876712328766" cy="170" r="3" fill="#2563eb"></circle><circle class="dot" cx="373.56164383561645" cy="170" r="3" fill="#2563eb"></circle><circle class="dot" cx="374.7945205479452" cy="170" r="3" fill="#2563eb"></circle><circle class="dot" cx="376.027397260274" cy="170" r="3" fill="#2563eb"></circle><circle class="dot" cx="377.2602739726027" cy="170" r="3" fill="#2563eb"></circle><circle class="dot" cx="378.49315068493155" cy="170" r="3" fill="#2563eb"></circle><circle class="dot" cx="379.7260273972603" cy="170" r="3" fill="#2563eb"></circle><circle class="dot" cx="380.958904109589" cy="170" r="3" fill="#2563eb"></circle><circle class="dot" cx="382.1917808219178" cy="170" r="3" fill="#2563eb"></circle><circle class="dot" cx="383.42465753424653" cy="170" r="3" fill="#2563eb"></circle><circle class="dot" cx="384.6575342465754" cy="170" r="3" fill="#2563eb"></circle><circle class="dot" cx="385.8904109589041" cy="170" r="3" fill="#2563eb"></circle><circle class="dot" cx="387.1232876712329" cy="170" r="3" fill="#2563eb"></circle><circle class="dot" cx="388.35616438356163" cy="170" r="3" fill="#2563eb"></circle><circle class="dot" cx="389.5890410958904" cy="170" r="3" fill="#2563eb"></circle><circle class="dot" cx="390.82191780821915" cy="170" r="3" fill="#2563eb"></circle><circle class="dot" cx="392.0547945205479" cy="170" r="3" fill="#2563eb"></circle><circle class="dot" cx="393.28767123287673" cy="170" r="3" fill="#2563eb"></circle><circle class="dot" cx="394.52054794520546" cy="170" r="3" fill="#2563eb"></circle><circle class="dot" cx="395.75342465753425" cy="170" r="3" fill="#2563eb"></circle><circle class="dot" cx="396.986301369863" cy="170" r="3" fill="#2563eb"></circle><circle class="dot" cx="398.21917808219183" cy="170" r="3" fill="#2563eb"></circle><circle class="dot" cx="399.45205479452056" cy="170" r="3" fill="#2563eb"></circle><circle class="dot" cx="400.6849315068493" cy="170" r="3" fill="#2563eb"></circle><circle class="dot" cx="401.9178082191781" cy="170" r="3" fill="#2563eb"></circle><circle class="dot" cx="403.1506849315068" cy="170" r="3" fill="#2563eb"></circle><circle class="dot" cx="404.3835616438356" cy="170" r="3" fill="#2563eb"></circle><circle class="dot" cx="405.6164383561644" cy="170" r="3" fill="#2563eb"></circle><circle class="dot" cx="406.8493150684932" cy="170" r="3" fill="#2563eb"></circle><circle class="dot" cx="408.0821917808219" cy="170" r="3" fill="#2563eb"></circle><circle class="dot" cx="409.3150684931507" cy="170" r="3" fill="#2563eb"></circle><circle class="dot" cx="410.54794520547944" cy="170" r="3" fill="#2563eb"></circle><circle class="dot" cx="411.78082191780817" cy="170" r="3" fill="#2563eb"></circle><circle class="dot" cx="413.013698630137" cy="170" r="3" fill="#2563eb"></circle><circle class="dot" cx="414.24657534246575" cy="170" r="3" fill="#2563eb"></circle><circle class="dot" cx="415.47945205479454" cy="170" r="3" fill="#2563eb"></circle><circle class="dot" cx="416.71232876712327" cy="170" r="3" fill="#2563eb"></circle><circle class="dot" cx="417.9452054794521" cy="170" r="3" fill="#2563eb"></circle><circle class="dot" cx="419.17808219178085" cy="170" r="3" fill="#2563eb"></circle><circle class="dot" cx="420.4109589041096" cy="170" r="3" fill="#2563eb"></circle><circle class="dot" cx="421.64383561643837" cy="170" r="3" fill="#2563eb"></circle><circle class="dot" cx="422.8767123287671" cy="170" r="3" fill="#2563eb"></circle><circle class="dot" cx="424.1095890410959" cy="170" r="3" fill="#2563eb"></circle><circle class="dot" cx="425.3424657534246" cy="170" r="3" fill="#2563eb"></circle><circle class="dot" cx="426.57534246575347" cy="170" r="3" fill="#2563eb"></circle><circle class="dot" cx="427.8082191780822" cy="170" r="3" fill="#2563eb"></circle><circle class="dot" cx="429.041095890411" cy="170" r="3" fill="#2563eb"></circle><circle class="dot" cx="430.2739726027397" cy="170" r="3" fill="#2563eb"></circle><circle class="dot" cx="431.50684931506845" cy="170" r="3" fill="#2563eb"></circle><circle class="dot" cx="432.7397260273973" cy="170" r="3" fill="#2563eb"></circle><circle class="dot" cx="433.972602739726" cy="170" r="3" fill="#2563eb"></circle><circle class="dot" cx="435.2054794520548" cy="170" r="3" fill="#2563eb"></circle><circle class="dot" cx="436.43835616438355" cy="170" r="3" fill="#2563eb"></circle><circle class="dot" cx="437.67123287671234" cy="170" r="3" fill="#2563eb"></circle><circle class="dot" cx="438.90410958904107" cy="170" r="3" fill="#2563eb"></circle><circle class="dot" cx="440.1369863013698" cy="170" r="3" fill="#2563eb"></circle><circle class="dot" cx="441.36986301369865" cy="170" r="3" fill="#2563eb"></circle><circle class="dot" cx="442.6027397260274" cy="170" r="3" fill="#2563eb"></circle><circle class="dot" cx="443.83561643835617" cy="170" r="3" fill="#2563eb"></circle><circle class="dot" cx="445.0684931506849" cy="170" r="3" fill="#2563eb"></circle><circle class="dot" cx="446.30136986301375" cy="170" r="3" fill="#2563eb"></circle><circle class="dot" cx="447.5342465753425" cy="170" r="3" fill="#2563eb"></circle><circle class="dot" cx="448.76712328767127" cy="170" r="3" fill="#2563eb"></circle><circle class="dot" cx="450" cy="170" r="3" fill="#2563eb"></circle><circle class="dot" cx="451.23287671232873" cy="170" r="3" fill="#2563eb"></circle><circle class="dot" cx="452.4657534246575" cy="170" r="3" fill="#2563eb"></circle><circle class="dot" cx="453.69863013698625" cy="170" r="3" fill="#2563eb"></circle><circle class="dot" cx="454.9315068493151" cy="170" r="3" fill="#2563eb"></circle><circle class="dot" cx="456.16438356164383" cy="170" r="3" fill="#2563eb"></circle><circle class="dot" cx="457.3972602739726" cy="170" r="3" fill="#2563eb"></circle><circle class="dot" cx="458.63013698630135" cy="170" r="3" fill="#2563eb"></circle><circle class="dot" cx="459.8630136986302" cy="170" r="3" fill="#2563eb"></circle><circle class="dot" cx="461.09589041095893" cy="170" r="3" fill="#2563eb"></circle><circle class="dot" cx="462.32876712328766" cy="170" r="3" fill="#2563eb"></circle><circle class="dot" cx="463.56164383561645" cy="170" r="3" fill="#2563eb"></circle><circle class="dot" cx="464.7945205479452" cy="170" r="3" fill="#2563eb"></circle><circle class="dot" cx="466.027397260274" cy="170" r="3" fill="#2563eb"></circle><circle class="dot" cx="467.2602739726027" cy="170" r="3" fill="#2563eb"></circle><circle class="dot" cx="468.49315068493155" cy="170" r="3" fill="#2563eb"></circle><circle class="dot" cx="469.7260273972603" cy="170" r="3" fill="#2563eb"></circle><circle class="dot" cx="470.958904109589" cy="170" r="3" fill="#2563eb"></circle><circle class="dot" cx="472.1917808219178" cy="170" r="3" fill="#2563eb"></circle><circle class="dot" cx="473.42465753424653" cy="170" r="3" fill="#2563eb"></circle><circle class="dot" cx="474.6575342465754" cy="170" r="3" fill="#2563eb"></circle><circle class="dot" cx="475.8904109589041" cy="170" r="3" fill="#2563eb"></circle><circle class="dot" cx="477.1232876712329" cy="170" r="3" fill="#2563eb"></circle><circle class="dot" cx="478.35616438356163" cy="170" r="3" fill="#2563eb"></circle><circle class="dot" cx="479.5890410958904" cy="170" r="3" fill="#2563eb"></circle><circle class="dot" cx="480.82191780821915" cy="170" r="3" fill="#2563eb"></circle><circle class="dot" cx="482.0547945205479" cy="170" r="3" fill="#2563eb"></circle><circle class="dot" cx="483.28767123287673" cy="170" r="3" fill="#2563eb"></circle><circle class="dot" cx="484.52054794520546" cy="170" r="3" fill="#2563eb"></circle><circle class="dot" cx="485.75342465753425" cy="170" r="3" fill="#2563eb"></circle><circle class="dot" cx="486.986301369863" cy="170" r="3" fill="#2563eb"></circle><circle class="dot" cx="488.21917808219183" cy="170" r="3" fill="#2563eb"></circle><circle class="dot" cx="489.45205479452056" cy="170" r="3" fill="#2563eb"></circle><circle class="dot" cx="490.6849315068493" cy="170" r="3" fill="#2563eb"></circle><circle class="dot" cx="491.9178082191781" cy="170" r="3" fill="#2563eb"></circle><circle class="dot" cx="493.1506849315068" cy="170" r="3" fill="#2563eb"></circle><circle class="dot" cx="494.3835616438356" cy="170" r="3" fill="#2563eb"></circle><circle class="dot" cx="495.6164383561644" cy="170" r="3" fill="#2563eb"></circle><circle class="dot" cx="496.8493150684932" cy="170" r="3" fill="#2563eb"></circle><circle class="dot" cx="498.0821917808219" cy="170" r="3" fill="#2563eb"></circle><circle class="dot" cx="499.3150684931507" cy="170" r="3" fill="#2563eb"></circle><circle class="dot" cx="500.54794520547944" cy="170" r="3" fill="#2563eb"></circle><circle class="dot" cx="501.78082191780817" cy="170" r="3" fill="#2563eb"></circle><circle class="dot" cx="503.013698630137" cy="170" r="3" fill="#2563eb"></circle><circle class="dot" cx="504.24657534246575" cy="170" r="3" fill="#2563eb"></circle><circle class="dot" cx="505.47945205479454" cy="170" r="3" fill="#2563eb"></circle><circle class="dot" cx="506.71232876712327" cy="170" r="3" fill="#2563eb"></circle><circle class="dot" cx="507.9452054794521" cy="170" r="3" fill="#2563eb"></circle><circle class="dot" cx="509.17808219178085" cy="170" r="3" fill="#2563eb"></circle><circle class="dot" cx="510.4109589041096" cy="170" r="3" fill="#2563eb"></circle><circle class="dot" cx="511.64383561643837" cy="170" r="3" fill="#2563eb"></circle><circle class="dot" cx="512.8767123287671" cy="170" r="3" fill="#2563eb"></circle><circle class="dot" cx="514.1095890410959" cy="170" r="3" fill="#2563eb"></circle><circle class="dot" cx="515.3424657534247" cy="170" r="3" fill="#2563eb"></circle><circle class="dot" cx="516.5753424657535" cy="170" r="3" fill="#2563eb"></circle><circle class="dot" cx="517.8082191780821" cy="170" r="3" fill="#2563eb"></circle><circle class="dot" cx="519.041095890411" cy="170" r="3" fill="#2563eb"></circle><circle class="dot" cx="520.2739726027397" cy="170" r="3" fill="#2563eb"></circle><circle class="dot" cx="521.5068493150685" cy="170" r="3" fill="#2563eb"></circle><circle class="dot" cx="522.7397260273973" cy="170" r="3" fill="#2563eb"></circle><circle class="dot" cx="523.972602739726" cy="170" r="3" fill="#2563eb"></circle><circle class="dot" cx="525.2054794520548" cy="170" r="3" fill="#2563eb"></circle><circle class="dot" cx="526.4383561643835" cy="170" r="3" fill="#2563eb"></circle><circle class="dot" cx="527.6712328767123" cy="170" r="3" fill="#2563eb"></circle><circle class="dot" cx="528.9041095890411" cy="170" r="3" fill="#2563eb"></circle><circle class="dot" cx="530.1369863013698" cy="170" r="3" fill="#2563eb"></circle><circle class="dot" cx="531.3698630136986" cy="170" r="3" fill="#2563eb"></circle><circle class="dot" cx="532.6027397260274" cy="170" r="3" fill="#2563eb"></circle><circle class="dot" cx="533.8356164383562" cy="170" r="3" fill="#2563eb"></circle><circle class="dot" cx="535.068493150685" cy="170" r="3" fill="#2563eb"></circle><circle class="dot" cx="536.3013698630137" cy="170" r="3" fill="#2563eb"></circle><circle class="dot" cx="537.5342465753424" cy="170" r="3" fill="#2563eb"></circle><circle class="dot" cx="538.7671232876712" cy="170" r="3" fill="#2563eb"></circle><circle class="dot" cx="540" cy="170" r="3" fill="#2563eb"></circle><circle class="dot" cx="541.2328767123288" cy="170" r="3" fill="#2563eb"></circle><circle class="dot" cx="542.4657534246576" cy="170" r="3" fill="#2563eb"></circle><circle class="dot" cx="543.6986301369863" cy="170" r="3" fill="#2563eb"></circle><circle class="dot" cx="544.931506849315" cy="170" r="3" fill="#2563eb"></circle><circle class="dot" cx="546.1643835616438" cy="170" r="3" fill="#2563eb"></circle><circle class="dot" cx="547.3972602739726" cy="170" r="3" fill="#2563eb"></circle><circle class="dot" cx="548.6301369863014" cy="170" r="3" fill="#2563eb"></circle><circle class="dot" cx="549.8630136986302" cy="170" r="3" fill="#2563eb"></circle><circle class="dot" cx="551.0958904109589" cy="170" r="3" fill="#2563eb"></circle><circle class="dot" cx="552.3287671232877" cy="170" r="3" fill="#2563eb"></circle><circle class="dot" cx="553.5616438356165" cy="170" r="3" fill="#2563eb"></circle><circle class="dot" cx="554.7945205479452" cy="170" r="3" fill="#2563eb"></circle><circle class="dot" cx="556.027397260274" cy="170" r="3" fill="#2563eb"></circle><circle class="dot" cx="557.2602739726027" cy="170" r="3" fill="#2563eb"></circle><circle class="dot" cx="558.4931506849315" cy="170" r="3" fill="#2563eb"></circle><circle class="dot" cx="559.7260273972603" cy="170" r="3" fill="#2563eb"></circle><circle class="dot" cx="560.958904109589" cy="170" r="3" fill="#2563eb"></circle><circle class="dot" cx="562.1917808219179" cy="170" r="3" fill="#2563eb"></circle><circle class="dot" cx="563.4246575342465" cy="170" r="3" fill="#2563eb"></circle><circle class="dot" cx="564.6575342465753" cy="170" r="3" fill="#2563eb"></circle><circle class="dot" cx="565.8904109589041" cy="170" r="3" fill="#2563eb"></circle><circle class="dot" cx="567.1232876712329" cy="170" r="3" fill="#2563eb"></circle><circle class="dot" cx="568.3561643835617" cy="170" r="3" fill="#2563eb"></circle><circle class="dot" cx="569.5890410958905" cy="170" r="3" fill="#2563eb"></circle><circle class="dot" cx="570.8219178082192" cy="170" r="3" fill="#2563eb"></circle><circle class="dot" cx="572.054794520548" cy="170" r="3" fill="#2563eb"></circle><circle class="dot" cx="573.2876712328767" cy="170" r="3" fill="#2563eb"></circle><circle class="dot" cx="574.5205479452054" cy="170" r="3" fill="#2563eb"></circle><circle class="dot" cx="575.7534246575343" cy="170" r="3" fill="#2563eb"></circle><circle class="dot" cx="576.986301369863" cy="170" r="3" fill="#2563eb"></circle><circle class="dot" cx="578.2191780821918" cy="170" r="3" fill="#2563eb"></circle><circle class="dot" cx="579.4520547945206" cy="170" r="3" fill="#2563eb"></circle><circle class="dot" cx="580.6849315068492" cy="170" r="3" fill="#2563eb"></circle><circle class="dot" cx="581.9178082191781" cy="170" r="3" fill="#2563eb"></circle><circle class="dot" cx="583.1506849315068" cy="170" r="3" fill="#2563eb"></circle><circle class="dot" cx="584.3835616438356" cy="170" r="3" fill="#2563eb"></circle><circle class="dot" cx="585.6164383561644" cy="170" r="3" fill="#2563eb"></circle><circle class="dot" cx="586.8493150684932" cy="170" r="3" fill="#2563eb"></circle><circle class="dot" cx="588.0821917808219" cy="170" r="3" fill="#2563eb"></circle><circle class="dot" cx="589.3150684931508" cy="170" r="3" fill="#2563eb"></circle><circle class="dot" cx="590.5479452054794" cy="170" r="3" fill="#2563eb"></circle><circle class="dot" cx="591.7808219178082" cy="170" r="3" fill="#2563eb"></circle><circle class="dot" cx="593.013698630137" cy="170" r="3" fill="#2563eb"></circle><circle class="dot" cx="594.2465753424657" cy="170" r="3" fill="#2563eb"></circle><circle class="dot" cx="595.4794520547946" cy="170" r="3" fill="#2563eb"></circle><circle class="dot" cx="596.7123287671233" cy="170" r="3" fill="#2563eb"></circle><circle class="dot" cx="597.945205479452" cy="170" r="3" fill="#2563eb"></circle><circle class="dot" cx="599.1780821917808" cy="170" r="3" fill="#2563eb"></circle><circle class="dot" cx="600.4109589041095" cy="170" r="3" fill="#2563eb"></circle><circle class="dot" cx="601.6438356164383" cy="170" r="3" fill="#2563eb"></circle><circle class="dot" cx="602.8767123287671" cy="170" r="3" fill="#2563eb"></circle><circle class="dot" cx="604.1095890410959" cy="170" r="3" fill="#2563eb"></circle><circle class="dot" cx="605.3424657534247" cy="170" r="3" fill="#2563eb"></circle><circle class="dot" cx="606.5753424657535" cy="170" r="3" fill="#2563eb"></circle><circle class="dot" cx="607.8082191780821" cy="170" r="3" fill="#2563eb"></circle><circle class="dot" cx="609.041095890411" cy="170" r="3" fill="#2563eb"></circle><circle class="dot" cx="610.2739726027397" cy="170" r="3" fill="#2563eb"></circle><circle class="dot" cx="611.5068493150685" cy="170" r="3" fill="#2563eb"></circle><circle class="dot" cx="612.7397260273973" cy="170" r="3" fill="#2563eb"></circle><circle class="dot" cx="613.972602739726" cy="170" r="3" fill="#2563eb"></circle><circle class="dot" cx="615.2054794520548" cy="170" r="3" fill="#2563eb"></circle><circle class="dot" cx="616.4383561643835" cy="170" r="3" fill="#2563eb"></circle><circle class="dot" cx="617.6712328767123" cy="170" r="3" fill="#2563eb"></circle><circle class="dot" cx="618.9041095890411" cy="170" r="3" fill="#2563eb"></circle><circle class="dot" cx="620.1369863013698" cy="170" r="3" fill="#2563eb"></circle><circle class="dot" cx="621.3698630136986" cy="170" r="3" fill="#2563eb"></circle><circle class="dot" cx="622.6027397260274" cy="170" r="3" fill="#2563eb"></circle><circle class="dot" cx="623.8356164383562" cy="170" r="3" fill="#2563eb"></circle><circle class="dot" cx="625.068493150685" cy="170" r="3" fill="#2563eb"></circle><circle class="dot" cx="626.3013698630137" cy="170" r="3" fill="#2563eb"></circle><circle class="dot" cx="627.5342465753424" cy="170" r="3" fill="#2563eb"></circle><circle class="dot" cx="628.7671232876712" cy="170" r="3" fill="#2563eb"></circle><circle class="dot" cx="630" cy="170" r="3" fill="#2563eb"></circle><circle class="dot" cx="631.2328767123288" cy="170" r="3" fill="#2563eb"></circle><circle class="dot" cx="632.4657534246576" cy="170" r="3" fill="#2563eb"></circle><circle class="dot" cx="633.6986301369863" cy="170" r="3" fill="#2563eb"></circle><circle class="dot" cx="634.931506849315" cy="170" r="3" fill="#2563eb"></circle><circle class="dot" cx="636.1643835616438" cy="170" r="3" fill="#2563eb"></circle><circle class="dot" cx="637.3972602739726" cy="170" r="3" fill="#2563eb"></circle><circle class="dot" cx="638.6301369863014" cy="170" r="3" fill="#2563eb"></circle><circle class="dot" cx="639.8630136986302" cy="170" r="3" fill="#2563eb"></circle><circle class="dot" cx="641.0958904109589" cy="170" r="3" fill="#2563eb"></circle><circle class="dot" cx="642.3287671232877" cy="170" r="3" fill="#2563eb"></circle><circle class="dot" cx="643.5616438356165" cy="170" r="3" fill="#2563eb"></circle><circle class="dot" cx="644.7945205479452" cy="170" r="3" fill="#2563eb"></circle><circle class="dot" cx="646.027397260274" cy="170" r="3" fill="#2563eb"></circle><circle class="dot" cx="647.2602739726027" cy="170" r="3" fill="#2563eb"></circle><circle class="dot" cx="648.4931506849315" cy="170" r="3" fill="#2563eb"></circle><circle class="dot" cx="649.7260273972603" cy="170" r="3" fill="#2563eb"></circle><circle class="dot" cx="650.958904109589" cy="170" r="3" fill="#2563eb"></circle><circle class="dot" cx="652.1917808219179" cy="170" r="3" fill="#2563eb"></circle><circle class="dot" cx="653.4246575342465" cy="170" r="3" fill="#2563eb"></circle><circle class="dot" cx="654.6575342465753" cy="170" r="3" fill="#2563eb"></circle><circle class="dot" cx="655.8904109589041" cy="170" r="3" fill="#2563eb"></circle><circle class="dot" cx="657.1232876712329" cy="170" r="3" fill="#2563eb"></circle><circle class="dot" cx="658.3561643835617" cy="170" r="3" fill="#2563eb"></circle><circle class="dot" cx="659.5890410958905" cy="170" r="3" fill="#2563eb"></circle><circle class="dot" cx="660.8219178082192" cy="170" r="3" fill="#2563eb"></circle><circle class="dot" cx="662.054794520548" cy="170" r="3" fill="#2563eb"></circle><circle class="dot" cx="663.2876712328767" cy="170" r="3" fill="#2563eb"></circle><circle class="dot" cx="664.5205479452054" cy="170" r="3" fill="#2563eb"></circle><circle class="dot" cx="665.7534246575343" cy="170" r="3" fill="#2563eb"></circle><circle class="dot" cx="666.986301369863" cy="170" r="3" fill="#2563eb"></circle><circle class="dot" cx="668.2191780821918" cy="170" r="3" fill="#2563eb"></circle><circle class="dot" cx="669.4520547945206" cy="170" r="3" fill="#2563eb"></circle><circle class="dot" cx="670.6849315068492" cy="170" r="3" fill="#2563eb"></circle><circle class="dot" cx="671.9178082191781" cy="170" r="3" fill="#2563eb"></circle><circle class="dot" cx="673.1506849315068" cy="170" r="3" fill="#2563eb"></circle><circle class="dot" cx="674.3835616438356" cy="170" r="3" fill="#2563eb"></circle><circle class="dot" cx="675.6164383561644" cy="170" r="3" fill="#2563eb"></circle><circle class="dot" cx="676.8493150684932" cy="170" r="3" fill="#2563eb"></circle><circle class="dot" cx="678.0821917808219" cy="170" r="3" fill="#2563eb"></circle><circle class="dot" cx="679.3150684931508" cy="170" r="3" fill="#2563eb"></circle><circle class="dot" cx="680.5479452054794" cy="170" r="3" fill="#2563eb"></circle><circle class="dot" cx="681.7808219178082" cy="170" r="3" fill="#2563eb"></circle><circle class="dot" cx="683.013698630137" cy="170" r="3" fill="#2563eb"></circle><circle class="dot" cx="684.2465753424657" cy="170" r="3" fill="#2563eb"></circle><circle class="dot" cx="685.4794520547946" cy="170" r="3" fill="#2563eb"></circle><circle class="dot" cx="686.7123287671233" cy="170" r="3" fill="#2563eb"></circle><circle class="dot" cx="687.945205479452" cy="170" r="3" fill="#2563eb"></circle><circle class="dot" cx="689.1780821917808" cy="170" r="3" fill="#2563eb"></circle><circle class="dot" cx="690.4109589041095" cy="170" r="3" fill="#2563eb"></circle><circle class="dot" cx="691.6438356164383" cy="170" r="3" fill="#2563eb"></circle><circle class="dot" cx="692.8767123287671" cy="170" r="3" fill="#2563eb"></circle><circle class="dot" cx="694.1095890410959" cy="170" r="3" fill="#2563eb"></circle><circle class="dot" cx="695.3424657534247" cy="170" r="3" fill="#2563eb"></circle><circle class="dot" cx="696.5753424657535" cy="170" r="3" fill="#2563eb"></circle><circle class="dot" cx="697.8082191780821" cy="170" r="3" fill="#2563eb"></circle><circle class="dot" cx="699.041095890411" cy="170" r="3" fill="#2563eb"></circle><circle class="dot" cx="700.2739726027397" cy="170" r="3" fill="#2563eb"></circle><circle class="dot" cx="701.5068493150685" cy="170" r="3" fill="#2563eb"></circle><circle class="dot" cx="702.7397260273973" cy="170" r="3" fill="#2563eb"></circle><circle class="dot" cx="703.972602739726" cy="170" r="3" fill="#2563eb"></circle><circle class="dot" cx="705.2054794520548" cy="170" r="3" fill="#2563eb"></circle><circle class="dot" cx="706.4383561643835" cy="170" r="3" fill="#2563eb"></circle><circle class="dot" cx="707.6712328767123" cy="170" r="3" fill="#2563eb"></circle><circle class="dot" cx="708.9041095890411" cy="170" r="3" fill="#2563eb"></circle><circle class="dot" cx="710.1369863013698" cy="170" r="3" fill="#2563eb"></circle><circle class="dot" cx="711.3698630136986" cy="170" r="3" fill="#2563eb"></circle><circle class="dot" cx="712.6027397260274" cy="170" r="3" fill="#2563eb"></circle><circle class="dot" cx="713.8356164383562" cy="170" r="3" fill="#2563eb"></circle><circle class="dot" cx="715.068493150685" cy="170" r="3" fill="#2563eb"></circle><circle class="dot" cx="716.3013698630137" cy="170" r="3" fill="#2563eb"></circle><circle class="dot" cx="717.5342465753424" cy="170" r="3" fill="#2563eb"></circle><circle class="dot" cx="718.7671232876712" cy="170" r="3" fill="#2563eb"></circle><circle class="dot" cx="720" cy="170" r="3" fill="#2563eb"></circle><g class="grid" transform="translate(0,340)" fill="none" font-size="10" font-family="sans-serif" text-anchor="middle" style="stroke-dasharray: 3,3; opacity: 0.3;"><path class="domain" stroke="currentColor" d="M0.5,-340V0.5H720.5V-340"></path><g class="tick" opacity="1" transform="translate(0.5,0)"><line stroke="currentColor" y2="-340"></line><text fill="currentColor" y="3" dy="0.71em"></text></g><g class="tick" opacity="1" transform="translate(30.08904109589041,0)"><line stroke="currentColor" y2="-340"></line><text fill="currentColor" y="3" dy="0.71em"></text></g><g class="tick" opacity="1" transform="translate(59.67808219178082,0)"><line stroke="currentColor" y2="-340"></line><text fill="currentColor" y="3" dy="0.71em"></text></g><g class="tick" opacity="1" transform="translate(89.26712328767123,0)"><line stroke="currentColor" y2="-340"></line><text fill="currentColor" y="3" dy="0.71em"></text></g><g class="tick" opacity="1" transform="translate(118.85616438356163,0)"><line stroke="currentColor" y2="-340"></line><text fill="currentColor" y="3" dy="0.71em"></text></g><g class="tick" opacity="1" transform="translate(148.44520547945206,0)"><line stroke="currentColor" y2="-340"></line><text fill="currentColor" y="3" dy="0.71em"></text></g><g class="tick" opacity="1" transform="translate(178.03424657534245,0)"><line stroke="currentColor" y2="-340"></line><text fill="currentColor" y="3" dy="0.71em"></text></g><g class="tick" opacity="1" transform="translate(207.62328767123287,0)"><line stroke="currentColor" y2="-340"></line><text fill="currentColor" y="3" dy="0.71em"></text></g><g class="tick" opacity="1" transform="translate(237.21232876712327,0)"><line stroke="currentColor" y2="-340"></line><text fill="currentColor" y="3" dy="0.71em"></text></g><g class="tick" opacity="1" transform="translate(266.8013698630137,0)"><line stroke="currentColor" y2="-340"></line><text fill="currentColor" y="3" dy="0.71em"></text></g><g class="tick" opacity="1" transform="translate(296.3904109589041,0)"><line stroke="currentColor" y2="-340"></line><text fill="currentColor" y="3" dy="0.71em"></text></g><g class="tick" opacity="1" transform="translate(325.9794520547945,0)"><line stroke="currentColor" y2="-340"></line><text fill="currentColor" y="3" dy="0.71em"></text></g><g class="tick" opacity="1" transform="translate(355.5684931506849,0)"><line stroke="currentColor" y2="-340"></line><text fill="currentColor" y="3" dy="0.71em"></text></g><g class="tick" opacity="1" transform="translate(385.1575342465754,0)"><line stroke="currentColor" y2="-340"></line><text fill="currentColor" y="3" dy="0.71em"></text></g><g class="tick" opacity="1" transform="translate(414.74657534246575,0)"><line stroke="currentColor" y2="-340"></line><text fill="currentColor" y="3" dy="0.71em"></text></g><g class="tick" opacity="1" transform="translate(444.33561643835617,0)"><line stroke="currentColor" y2="-340"></line><text fill="currentColor" y="3" dy="0.71em"></text></g><g class="tick" opacity="1" transform="translate(473.92465753424653,0)"><line stroke="currentColor" y2="-340"></line><text fill="currentColor" y="3" dy="0.71em"></text></g><g class="tick" opacity="1" transform="translate(503.513698630137,0)"><line stroke="currentColor" y2="-340"></line><text fill="currentColor" y="3" dy="0.71em"></text></g><g class="tick" opacity="1" transform="translate(533.1027397260274,0)"><line stroke="currentColor" y2="-340"></line><text fill="currentColor" y="3" dy="0.71em"></text></g><g class="tick" opacity="1" transform="translate(562.6917808219179,0)"><line stroke="currentColor" y2="-340"></line><text fill="currentColor" y="3" dy="0.71em"></text></g><g class="tick" opacity="1" transform="translate(592.2808219178082,0)"><line stroke="currentColor" y2="-340"></line><text fill="currentColor" y="3" dy="0.71em"></text></g><g class="tick" opacity="1" transform="translate(621.8698630136986,0)"><line stroke="currentColor" y2="-340"></line><text fill="currentColor" y="3" dy="0.71em"></text></g><g class="tick" opacity="1" transform="translate(651.458904109589,0)"><line stroke="currentColor" y2="-340"></line><text fill="currentColor" y="3" dy="0.71em"></text></g><g class="tick" opacity="1" transform="translate(681.0479452054794,0)"><line stroke="currentColor" y2="-340"></line><text fill="currentColor" y="3" dy="0.71em"></text></g><g class="tick" opacity="1" transform="translate(710.6369863013698,0)"><line stroke="currentColor" y2="-340"></line><text fill="currentColor" y="3" dy="0.71em"></text></g></g><g class="grid" fill="none" font-size="10" font-family="sans-serif" text-anchor="end" style="stroke-dasharray: 3,3; opacity: 0.3;"><path class="domain" stroke="currentColor" d="M720,340.5H0.5V0.5H720"></path><g class="tick" opacity="1" transform="translate(0,170.5)"><line stroke="currentColor" x2="720"></line><text fill="currentColor" x="-3" dy="0.32em"></text></g></g></g><text x="400" y="10" text-anchor="middle" style="font-size: 16px; font-weight: bold; fill: #333;">OKX USDT Lending Rate - Current Month</text></svg>