<svg width="800" height="400" xmlns="http://www.w3.org/2000/svg"><g transform="translate(50,20)"><g transform="translate(0,340)" fill="none" font-size="10" font-family="sans-serif" text-anchor="middle"><path class="domain" stroke="currentColor" d="M0.5,6V0.5H720.5V6"></path><g class="tick" opacity="1" transform="translate(0.5,0)"><line stroke="currentColor" y2="6"></line><text fill="currentColor" y="9" dy=".15em" style="text-anchor: end;" dx="-.8em" transform="rotate(-45)">12/01</text></g><g class="tick" opacity="1" transform="translate(85.6231527093596,0)"><line stroke="currentColor" y2="6"></line><text fill="currentColor" y="9" dy=".15em" style="text-anchor: end;" dx="-.8em" transform="rotate(-45)">12/02</text></g><g class="tick" opacity="1" transform="translate(170.7463054187192,0)"><line stroke="currentColor" y2="6"></line><text fill="currentColor" y="9" dy=".15em" style="text-anchor: end;" dx="-.8em" transform="rotate(-45)">12/03</text></g><g class="tick" opacity="1" transform="translate(255.86945812807883,0)"><line stroke="currentColor" y2="6"></line><text fill="currentColor" y="9" dy=".15em" style="text-anchor: end;" dx="-.8em" transform="rotate(-45)">12/04</text></g><g class="tick" opacity="1" transform="translate(340.9926108374384,0)"><line stroke="currentColor" y2="6"></line><text fill="currentColor" y="9" dy=".15em" style="text-anchor: end;" dx="-.8em" transform="rotate(-45)">12/05</text></g><g class="tick" opacity="1" transform="translate(426.11576354679806,0)"><line stroke="currentColor" y2="6"></line><text fill="currentColor" y="9" dy=".15em" style="text-anchor: end;" dx="-.8em" transform="rotate(-45)">12/06</text></g><g class="tick" opacity="1" transform="translate(511.23891625615767,0)"><line stroke="currentColor" y2="6"></line><text fill="currentColor" y="9" dy=".15em" style="text-anchor: end;" dx="-.8em" transform="rotate(-45)">12/07</text></g><g class="tick" opacity="1" transform="translate(596.3620689655172,0)"><line stroke="currentColor" y2="6"></line><text fill="currentColor" y="9" dy=".15em" style="text-anchor: end;" dx="-.8em" transform="rotate(-45)">12/08</text></g><g class="tick" opacity="1" transform="translate(681.4852216748768,0)"><line stroke="currentColor" y2="6"></line><text fill="currentColor" y="9" dy=".15em" style="text-anchor: end;" dx="-.8em" transform="rotate(-45)">12/09</text></g></g><g fill="none" font-size="10" font-family="sans-serif" text-anchor="end"><path class="domain" stroke="currentColor" d="M-6,340.5H0.5V0.5H-6"></path><g class="tick" opacity="1" transform="translate(0,170.5)"><line stroke="currentColor" x2="-6"></line><text fill="currentColor" x="-9" dy="0.32em">3.50%</text></g></g><text transform="rotate(-90)" y="-50" x="-170" dy="1em" style="text-anchor: middle; font-size: 12px; fill: #666;">Pre Rate (%)</text><text transform="translate(360, 380)" style="text-anchor: middle; font-size: 12px; fill: #666;">Time (UTC)</text><path fill="none" stroke="#2563eb" stroke-width="2" d="M0,170C1.182,170,2.365,170,3.547,170C4.729,170,5.911,170,7.094,170C8.276,170,9.458,170,10.64,170C11.823,170,13.005,170,14.187,170C15.369,170,16.552,170,17.734,170C18.916,170,20.099,170,21.281,170C22.463,170,23.645,170,24.828,170C26.01,170,27.192,170,28.374,170C29.557,170,30.739,170,31.921,170C33.103,170,34.286,170,35.468,170C36.65,170,37.833,170,39.015,170C40.197,170,41.379,170,42.562,170C43.744,170,44.926,170,46.108,170C47.291,170,48.473,170,49.655,170C50.837,170,52.02,170,53.202,170C54.384,170,55.567,170,56.749,170C57.931,170,59.113,170,60.296,170C61.478,170,62.66,170,63.842,170C65.025,170,66.207,170,67.389,170C68.571,170,69.754,170,70.936,170C72.118,170,73.3,170,74.483,170C75.665,170,76.847,170,78.03,170C79.212,170,80.394,170,81.576,170C82.759,170,83.941,170,85.123,170C86.305,170,87.488,170,88.67,170C89.852,170,91.034,170,92.217,170C93.399,170,94.581,170,95.764,170C96.946,170,98.128,170,99.31,170C100.493,170,101.675,170,102.857,170C104.039,170,105.222,170,106.404,170C107.586,170,108.768,170,109.951,170C111.133,170,112.315,170,113.498,170C114.68,170,115.862,170,117.044,170C118.227,170,119.409,170,120.591,170C121.773,170,122.956,170,124.138,170C125.32,170,126.502,170,127.685,170C128.867,170,130.049,170,131.232,170C132.414,170,133.596,170,134.778,170C135.961,170,137.143,170,138.325,170C139.507,170,140.69,170,141.872,170C143.054,170,144.236,170,145.419,170C146.601,170,147.783,170,148.966,170C150.148,170,151.33,170,152.512,170C153.695,170,154.877,170,156.059,170C157.241,170,158.424,170,159.606,170C160.788,170,161.97,170,163.153,170C164.335,170,165.517,170,166.7,170C167.882,170,169.064,170,170.246,170C171.429,170,172.611,170,173.793,170C174.975,170,176.158,170,177.34,170C178.522,170,179.704,170,180.887,170C182.069,170,183.251,170,184.433,170C185.616,170,186.798,170,187.98,170C189.163,170,190.345,170,191.527,170C192.709,170,193.892,170,195.074,170C196.256,170,197.438,170,198.621,170C199.803,170,200.985,170,202.167,170C203.35,170,204.532,170,205.714,170C206.897,170,208.079,170,209.261,170C210.443,170,211.626,170,212.808,170C213.99,170,215.172,170,216.355,170C217.537,170,218.719,170,219.901,170C221.084,170,222.266,170,223.448,170C224.631,170,225.813,170,226.995,170C228.177,170,229.36,170,230.542,170C231.724,170,232.906,170,234.089,170C235.271,170,236.453,170,237.635,170C238.818,170,240,170,241.182,170C242.365,170,243.547,170,244.729,170C245.911,170,247.094,170,248.276,170C249.458,170,250.64,170,251.823,170C253.005,170,254.187,170,255.369,170C256.552,170,257.734,170,258.916,170C260.099,170,261.281,170,262.463,170C263.645,170,264.828,170,266.01,170C267.192,170,268.374,170,269.557,170C270.739,170,271.921,170,273.103,170C274.286,170,275.468,170,276.65,170C277.833,170,279.015,170,280.197,170C281.379,170,282.562,170,283.744,170C284.926,170,286.108,170,287.291,170C288.473,170,289.655,170,290.837,170C292.02,170,293.202,170,294.384,170C295.567,170,296.749,170,297.931,170C299.113,170,300.296,170,301.478,170C302.66,170,303.842,170,305.025,170C306.207,170,307.389,170,308.571,170C309.754,170,310.936,170,312.118,170C313.3,170,314.483,170,315.665,170C316.847,170,318.03,170,319.212,170C320.394,170,321.576,170,322.759,170C323.941,170,325.123,170,326.305,170C327.488,170,328.67,170,329.852,170C331.034,170,332.217,170,333.399,170C334.581,170,335.764,170,336.946,170C338.128,170,339.31,170,340.493,170C341.675,170,342.857,170,344.039,170C345.222,170,346.404,170,347.586,170C348.768,170,349.951,170,351.133,170C352.315,170,353.498,170,354.68,170C355.862,170,357.044,170,358.227,170C359.409,170,360.591,170,361.773,170C362.956,170,364.138,170,365.32,170C366.502,170,367.685,170,368.867,170C370.049,170,371.232,170,372.414,170C373.596,170,374.778,170,375.961,170C377.143,170,378.325,170,379.507,170C380.69,170,381.872,170,383.054,170C384.236,170,385.419,170,386.601,170C387.783,170,388.966,170,390.148,170C391.33,170,392.512,170,393.695,170C394.877,170,396.059,170,397.241,170C398.424,170,399.606,170,400.788,170C401.97,170,403.153,170,404.335,170C405.517,170,406.7,170,407.882,170C409.064,170,410.246,170,411.429,170C412.611,170,413.793,170,414.975,170C416.158,170,417.34,170,418.522,170C419.704,170,420.887,170,422.069,170C423.251,170,424.433,170,425.616,170C426.798,170,427.98,170,429.163,170C430.345,170,431.527,170,432.709,170C433.892,170,435.074,170,436.256,170C437.438,170,438.621,170,439.803,170C440.985,170,442.167,170,443.35,170C444.532,170,445.714,170,446.897,170C448.079,170,449.261,170,450.443,170C451.626,170,452.808,170,453.99,170C455.172,170,456.355,170,457.537,170C458.719,170,459.901,170,461.084,170C462.266,170,463.448,170,464.631,170C465.813,170,466.995,170,468.177,170C469.36,170,470.542,170,471.724,170C472.906,170,474.089,170,475.271,170C476.453,170,477.635,170,478.818,170C480,170,481.182,170,482.365,170C483.547,170,484.729,170,485.911,170C487.094,170,488.276,170,489.458,170C490.64,170,491.823,170,493.005,170C494.187,170,495.369,170,496.552,170C497.734,170,498.916,170,500.099,170C501.281,170,502.463,170,503.645,170C504.828,170,506.01,170,507.192,170C508.374,170,509.557,170,510.739,170C511.921,170,513.103,170,514.286,170C515.468,170,516.65,170,517.833,170C519.015,170,520.197,170,521.379,170C522.562,170,523.744,170,524.926,170C526.108,170,527.291,170,528.473,170C529.655,170,530.837,170,532.02,170C533.202,170,534.384,170,535.567,170C536.749,170,537.931,170,539.113,170C540.296,170,541.478,170,542.66,170C543.842,170,545.025,170,546.207,170C547.389,170,548.571,170,549.754,170C550.936,170,552.118,170,553.3,170C554.483,170,555.665,170,556.847,170C558.03,170,559.212,170,560.394,170C561.576,170,562.759,170,563.941,170C565.123,170,566.305,170,567.488,170C568.67,170,569.852,170,571.034,170C572.217,170,573.399,170,574.581,170C575.764,170,576.946,170,578.128,170C579.31,170,580.493,170,581.675,170C582.857,170,584.039,170,585.222,170C586.404,170,587.586,170,588.768,170C589.951,170,591.133,170,592.315,170C593.498,170,594.68,170,595.862,170C597.044,170,598.227,170,599.409,170C600.591,170,601.773,170,602.956,170C604.138,170,605.32,170,606.502,170C607.685,170,608.867,170,610.049,170C611.232,170,612.414,170,613.596,170C614.778,170,615.961,170,617.143,170C618.325,170,619.507,170,620.69,170C621.872,170,623.054,170,624.236,170C625.419,170,626.601,170,627.783,170C628.966,170,630.148,170,631.33,170C632.512,170,633.695,170,634.877,170C636.059,170,637.241,170,638.424,170C639.606,170,640.788,170,641.97,170C643.153,170,644.335,170,645.517,170C646.7,170,647.882,170,649.064,170C650.246,170,651.429,170,652.611,170C653.793,170,654.975,170,656.158,170C657.34,170,658.522,170,659.704,170C660.887,170,662.069,170,663.251,170C664.433,170,665.616,170,666.798,170C667.98,170,669.163,170,670.345,170C671.527,170,672.709,170,673.892,170C675.074,170,676.256,170,677.438,170C678.621,170,679.803,170,680.985,170C682.167,170,683.35,170,684.532,170C685.714,170,686.897,170,688.079,170C689.261,170,690.443,170,691.626,170C692.808,170,693.99,170,695.172,170C696.355,170,697.537,170,698.719,170C699.901,170,701.084,170,702.266,170C703.448,170,704.631,170,705.813,170C706.995,170,708.177,170,709.36,170C710.542,170,711.724,170,712.906,170C714.089,170,715.271,170,716.453,170C717.635,170,718.818,170,720,170"></path><circle class="dot" cx="0" cy="170" r="3" fill="#2563eb"></circle><circle class="dot" cx="3.5467980295566504" cy="170" r="3" fill="#2563eb"></circle><circle class="dot" cx="7.093596059113301" cy="170" r="3" fill="#2563eb"></circle><circle class="dot" cx="10.64039408866995" cy="170" r="3" fill="#2563eb"></circle><circle class="dot" cx="14.187192118226601" cy="170" r="3" fill="#2563eb"></circle><circle class="dot" cx="17.733990147783253" cy="170" r="3" fill="#2563eb"></circle><circle class="dot" cx="21.2807881773399" cy="170" r="3" fill="#2563eb"></circle><circle class="dot" cx="24.82758620689655" cy="170" r="3" fill="#2563eb"></circle><circle class="dot" cx="28.374384236453203" cy="170" r="3" fill="#2563eb"></circle><circle class="dot" cx="31.921182266009854" cy="170" r="3" fill="#2563eb"></circle><circle class="dot" cx="35.467980295566505" cy="170" r="3" fill="#2563eb"></circle><circle class="dot" cx="39.01477832512315" cy="170" r="3" fill="#2563eb"></circle><circle class="dot" cx="42.5615763546798" cy="170" r="3" fill="#2563eb"></circle><circle class="dot" cx="46.108374384236456" cy="170" r="3" fill="#2563eb"></circle><circle class="dot" cx="49.6551724137931" cy="170" r="3" fill="#2563eb"></circle><circle class="dot" cx="53.20197044334976" cy="170" r="3" fill="#2563eb"></circle><circle class="dot" cx="56.748768472906406" cy="170" r="3" fill="#2563eb"></circle><circle class="dot" cx="60.29556650246305" cy="170" r="3" fill="#2563eb"></circle><circle class="dot" cx="63.84236453201971" cy="170" r="3" fill="#2563eb"></circle><circle class="dot" cx="67.38916256157636" cy="170" r="3" fill="#2563eb"></circle><circle class="dot" cx="70.93596059113301" cy="170" r="3" fill="#2563eb"></circle><circle class="dot" cx="74.48275862068965" cy="170" r="3" fill="#2563eb"></circle><circle class="dot" cx="78.0295566502463" cy="170" r="3" fill="#2563eb"></circle><circle class="dot" cx="81.57635467980296" cy="170" r="3" fill="#2563eb"></circle><circle class="dot" cx="85.1231527093596" cy="170" r="3" fill="#2563eb"></circle><circle class="dot" cx="88.66995073891626" cy="170" r="3" fill="#2563eb"></circle><circle class="dot" cx="92.21674876847291" cy="170" r="3" fill="#2563eb"></circle><circle class="dot" cx="95.76354679802957" cy="170" r="3" fill="#2563eb"></circle><circle class="dot" cx="99.3103448275862" cy="170" r="3" fill="#2563eb"></circle><circle class="dot" cx="102.85714285714285" cy="170" r="3" fill="#2563eb"></circle><circle class="dot" cx="106.40394088669952" cy="170" r="3" fill="#2563eb"></circle><circle class="dot" cx="109.95073891625616" cy="170" r="3" fill="#2563eb"></circle><circle class="dot" cx="113.49753694581281" cy="170" r="3" fill="#2563eb"></circle><circle class="dot" cx="117.04433497536945" cy="170" r="3" fill="#2563eb"></circle><circle class="dot" cx="120.5911330049261" cy="170" r="3" fill="#2563eb"></circle><circle class="dot" cx="124.13793103448276" cy="170" r="3" fill="#2563eb"></circle><circle class="dot" cx="127.68472906403942" cy="170" r="3" fill="#2563eb"></circle><circle class="dot" cx="131.23152709359607" cy="170" r="3" fill="#2563eb"></circle><circle class="dot" cx="134.7783251231527" cy="170" r="3" fill="#2563eb"></circle><circle class="dot" cx="138.32512315270935" cy="170" r="3" fill="#2563eb"></circle><circle class="dot" cx="141.87192118226602" cy="170" r="3" fill="#2563eb"></circle><circle class="dot" cx="145.41871921182266" cy="170" r="3" fill="#2563eb"></circle><circle class="dot" cx="148.9655172413793" cy="170" r="3" fill="#2563eb"></circle><circle class="dot" cx="152.51231527093594" cy="170" r="3" fill="#2563eb"></circle><circle class="dot" cx="156.0591133004926" cy="170" r="3" fill="#2563eb"></circle><circle class="dot" cx="159.60591133004925" cy="170" r="3" fill="#2563eb"></circle><circle class="dot" cx="163.15270935960592" cy="170" r="3" fill="#2563eb"></circle><circle class="dot" cx="166.69950738916256" cy="170" r="3" fill="#2563eb"></circle><circle class="dot" cx="170.2463054187192" cy="170" r="3" fill="#2563eb"></circle><circle class="dot" cx="173.79310344827587" cy="170" r="3" fill="#2563eb"></circle><circle class="dot" cx="177.3399014778325" cy="170" r="3" fill="#2563eb"></circle><circle class="dot" cx="180.88669950738918" cy="170" r="3" fill="#2563eb"></circle><circle class="dot" cx="184.43349753694582" cy="170" r="3" fill="#2563eb"></circle><circle class="dot" cx="187.98029556650246" cy="170" r="3" fill="#2563eb"></circle><circle class="dot" cx="191.52709359605913" cy="170" r="3" fill="#2563eb"></circle><circle class="dot" cx="195.07389162561577" cy="170" r="3" fill="#2563eb"></circle><circle class="dot" cx="198.6206896551724" cy="170" r="3" fill="#2563eb"></circle><circle class="dot" cx="202.16748768472905" cy="170" r="3" fill="#2563eb"></circle><circle class="dot" cx="205.7142857142857" cy="170" r="3" fill="#2563eb"></circle><circle class="dot" cx="209.26108374384233" cy="170" r="3" fill="#2563eb"></circle><circle class="dot" cx="212.80788177339903" cy="170" r="3" fill="#2563eb"></circle><circle class="dot" cx="216.35467980295567" cy="170" r="3" fill="#2563eb"></circle><circle class="dot" cx="219.9014778325123" cy="170" r="3" fill="#2563eb"></circle><circle class="dot" cx="223.44827586206898" cy="170" r="3" fill="#2563eb"></circle><circle class="dot" cx="226.99507389162562" cy="170" r="3" fill="#2563eb"></circle><circle class="dot" cx="230.54187192118226" cy="170" r="3" fill="#2563eb"></circle><circle class="dot" cx="234.0886699507389" cy="170" r="3" fill="#2563eb"></circle><circle class="dot" cx="237.63546798029554" cy="170" r="3" fill="#2563eb"></circle><circle class="dot" cx="241.1822660098522" cy="170" r="3" fill="#2563eb"></circle><circle class="dot" cx="244.72906403940885" cy="170" r="3" fill="#2563eb"></circle><circle class="dot" cx="248.27586206896552" cy="170" r="3" fill="#2563eb"></circle><circle class="dot" cx="251.8226600985222" cy="170" r="3" fill="#2563eb"></circle><circle class="dot" cx="255.36945812807883" cy="170" r="3" fill="#2563eb"></circle><circle class="dot" cx="258.9162561576355" cy="170" r="3" fill="#2563eb"></circle><circle class="dot" cx="262.46305418719214" cy="170" r="3" fill="#2563eb"></circle><circle class="dot" cx="266.00985221674875" cy="170" r="3" fill="#2563eb"></circle><circle class="dot" cx="269.5566502463054" cy="170" r="3" fill="#2563eb"></circle><circle class="dot" cx="273.10344827586204" cy="170" r="3" fill="#2563eb"></circle><circle class="dot" cx="276.6502463054187" cy="170" r="3" fill="#2563eb"></circle><circle class="dot" cx="280.1970443349754" cy="170" r="3" fill="#2563eb"></circle><circle class="dot" cx="283.74384236453204" cy="170" r="3" fill="#2563eb"></circle><circle class="dot" cx="287.29064039408865" cy="170" r="3" fill="#2563eb"></circle><circle class="dot" cx="290.8374384236453" cy="170" r="3" fill="#2563eb"></circle><circle class="dot" cx="294.384236453202" cy="170" r="3" fill="#2563eb"></circle><circle class="dot" cx="297.9310344827586" cy="170" r="3" fill="#2563eb"></circle><circle class="dot" cx="301.4778325123153" cy="170" r="3" fill="#2563eb"></circle><circle class="dot" cx="305.0246305418719" cy="170" r="3" fill="#2563eb"></circle><circle class="dot" cx="308.57142857142856" cy="170" r="3" fill="#2563eb"></circle><circle class="dot" cx="312.1182266009852" cy="170" r="3" fill="#2563eb"></circle><circle class="dot" cx="315.6650246305419" cy="170" r="3" fill="#2563eb"></circle><circle class="dot" cx="319.2118226600985" cy="170" r="3" fill="#2563eb"></circle><circle class="dot" cx="322.7586206896552" cy="170" r="3" fill="#2563eb"></circle><circle class="dot" cx="326.30541871921184" cy="170" r="3" fill="#2563eb"></circle><circle class="dot" cx="329.85221674876846" cy="170" r="3" fill="#2563eb"></circle><circle class="dot" cx="333.3990147783251" cy="170" r="3" fill="#2563eb"></circle><circle class="dot" cx="336.94581280788174" cy="170" r="3" fill="#2563eb"></circle><circle class="dot" cx="340.4926108374384" cy="170" r="3" fill="#2563eb"></circle><circle class="dot" cx="344.0394088669951" cy="170" r="3" fill="#2563eb"></circle><circle class="dot" cx="347.58620689655174" cy="170" r="3" fill="#2563eb"></circle><circle class="dot" cx="351.1330049261084" cy="170" r="3" fill="#2563eb"></circle><circle class="dot" cx="354.679802955665" cy="170" r="3" fill="#2563eb"></circle><circle class="dot" cx="358.2266009852217" cy="170" r="3" fill="#2563eb"></circle><circle class="dot" cx="361.77339901477836" cy="170" r="3" fill="#2563eb"></circle><circle class="dot" cx="365.32019704433503" cy="170" r="3" fill="#2563eb"></circle><circle class="dot" cx="368.86699507389164" cy="170" r="3" fill="#2563eb"></circle><circle class="dot" cx="372.4137931034483" cy="170" r="3" fill="#2563eb"></circle><circle class="dot" cx="375.9605911330049" cy="170" r="3" fill="#2563eb"></circle><circle class="dot" cx="379.5073891625616" cy="170" r="3" fill="#2563eb"></circle><circle class="dot" cx="383.05418719211826" cy="170" r="3" fill="#2563eb"></circle><circle class="dot" cx="386.6009852216749" cy="170" r="3" fill="#2563eb"></circle><circle class="dot" cx="390.14778325123154" cy="170" r="3" fill="#2563eb"></circle><circle class="dot" cx="393.69458128078816" cy="170" r="3" fill="#2563eb"></circle><circle class="dot" cx="397.2413793103448" cy="170" r="3" fill="#2563eb"></circle><circle class="dot" cx="400.7881773399015" cy="170" r="3" fill="#2563eb"></circle><circle class="dot" cx="404.3349753694581" cy="170" r="3" fill="#2563eb"></circle><circle class="dot" cx="407.8817733990148" cy="170" r="3" fill="#2563eb"></circle><circle class="dot" cx="411.4285714285714" cy="170" r="3" fill="#2563eb"></circle><circle class="dot" cx="414.97536945812806" cy="170" r="3" fill="#2563eb"></circle><circle class="dot" cx="418.52216748768467" cy="170" r="3" fill="#2563eb"></circle><circle class="dot" cx="422.06896551724134" cy="170" r="3" fill="#2563eb"></circle><circle class="dot" cx="425.61576354679806" cy="170" r="3" fill="#2563eb"></circle><circle class="dot" cx="429.16256157635473" cy="170" r="3" fill="#2563eb"></circle><circle class="dot" cx="432.70935960591135" cy="170" r="3" fill="#2563eb"></circle><circle class="dot" cx="436.256157635468" cy="170" r="3" fill="#2563eb"></circle><circle class="dot" cx="439.8029556650246" cy="170" r="3" fill="#2563eb"></circle><circle class="dot" cx="443.3497536945813" cy="170" r="3" fill="#2563eb"></circle><circle class="dot" cx="446.89655172413796" cy="170" r="3" fill="#2563eb"></circle><circle class="dot" cx="450.4433497536946" cy="170" r="3" fill="#2563eb"></circle><circle class="dot" cx="453.99014778325125" cy="170" r="3" fill="#2563eb"></circle><circle class="dot" cx="457.53694581280786" cy="170" r="3" fill="#2563eb"></circle><circle class="dot" cx="461.0837438423645" cy="170" r="3" fill="#2563eb"></circle><circle class="dot" cx="464.6305418719212" cy="170" r="3" fill="#2563eb"></circle><circle class="dot" cx="468.1773399014778" cy="170" r="3" fill="#2563eb"></circle><circle class="dot" cx="471.7241379310345" cy="170" r="3" fill="#2563eb"></circle><circle class="dot" cx="475.2709359605911" cy="170" r="3" fill="#2563eb"></circle><circle class="dot" cx="478.81773399014776" cy="170" r="3" fill="#2563eb"></circle><circle class="dot" cx="482.3645320197044" cy="170" r="3" fill="#2563eb"></circle><circle class="dot" cx="485.91133004926104" cy="170" r="3" fill="#2563eb"></circle><circle class="dot" cx="489.4581280788177" cy="170" r="3" fill="#2563eb"></circle><circle class="dot" cx="493.00492610837443" cy="170" r="3" fill="#2563eb"></circle><circle class="dot" cx="496.55172413793105" cy="170" r="3" fill="#2563eb"></circle><circle class="dot" cx="500.0985221674877" cy="170" r="3" fill="#2563eb"></circle><circle class="dot" cx="503.6453201970444" cy="170" r="3" fill="#2563eb"></circle><circle class="dot" cx="507.192118226601" cy="170" r="3" fill="#2563eb"></circle><circle class="dot" cx="510.73891625615767" cy="170" r="3" fill="#2563eb"></circle><circle class="dot" cx="514.2857142857143" cy="170" r="3" fill="#2563eb"></circle><circle class="dot" cx="517.832512315271" cy="170" r="3" fill="#2563eb"></circle><circle class="dot" cx="521.3793103448276" cy="170" r="3" fill="#2563eb"></circle><circle class="dot" cx="524.9261083743843" cy="170" r="3" fill="#2563eb"></circle><circle class="dot" cx="528.4729064039409" cy="170" r="3" fill="#2563eb"></circle><circle class="dot" cx="532.0197044334975" cy="170" r="3" fill="#2563eb"></circle><circle class="dot" cx="535.5665024630541" cy="170" r="3" fill="#2563eb"></circle><circle class="dot" cx="539.1133004926108" cy="170" r="3" fill="#2563eb"></circle><circle class="dot" cx="542.6600985221675" cy="170" r="3" fill="#2563eb"></circle><circle class="dot" cx="546.2068965517241" cy="170" r="3" fill="#2563eb"></circle><circle class="dot" cx="549.7536945812808" cy="170" r="3" fill="#2563eb"></circle><circle class="dot" cx="553.3004926108374" cy="170" r="3" fill="#2563eb"></circle><circle class="dot" cx="556.8472906403941" cy="170" r="3" fill="#2563eb"></circle><circle class="dot" cx="560.3940886699507" cy="170" r="3" fill="#2563eb"></circle><circle class="dot" cx="563.9408866995075" cy="170" r="3" fill="#2563eb"></circle><circle class="dot" cx="567.4876847290641" cy="170" r="3" fill="#2563eb"></circle><circle class="dot" cx="571.0344827586207" cy="170" r="3" fill="#2563eb"></circle><circle class="dot" cx="574.5812807881773" cy="170" r="3" fill="#2563eb"></circle><circle class="dot" cx="578.128078817734" cy="170" r="3" fill="#2563eb"></circle><circle class="dot" cx="581.6748768472906" cy="170" r="3" fill="#2563eb"></circle><circle class="dot" cx="585.2216748768473" cy="170" r="3" fill="#2563eb"></circle><circle class="dot" cx="588.768472906404" cy="170" r="3" fill="#2563eb"></circle><circle class="dot" cx="592.3152709359606" cy="170" r="3" fill="#2563eb"></circle><circle class="dot" cx="595.8620689655172" cy="170" r="3" fill="#2563eb"></circle><circle class="dot" cx="599.4088669950738" cy="170" r="3" fill="#2563eb"></circle><circle class="dot" cx="602.9556650246305" cy="170" r="3" fill="#2563eb"></circle><circle class="dot" cx="606.5024630541872" cy="170" r="3" fill="#2563eb"></circle><circle class="dot" cx="610.0492610837438" cy="170" r="3" fill="#2563eb"></circle><circle class="dot" cx="613.5960591133005" cy="170" r="3" fill="#2563eb"></circle><circle class="dot" cx="617.1428571428571" cy="170" r="3" fill="#2563eb"></circle><circle class="dot" cx="620.6896551724137" cy="170" r="3" fill="#2563eb"></circle><circle class="dot" cx="624.2364532019704" cy="170" r="3" fill="#2563eb"></circle><circle class="dot" cx="627.7832512315272" cy="170" r="3" fill="#2563eb"></circle><circle class="dot" cx="631.3300492610838" cy="170" r="3" fill="#2563eb"></circle><circle class="dot" cx="634.8768472906404" cy="170" r="3" fill="#2563eb"></circle><circle class="dot" cx="638.423645320197" cy="170" r="3" fill="#2563eb"></circle><circle class="dot" cx="641.9704433497537" cy="170" r="3" fill="#2563eb"></circle><circle class="dot" cx="645.5172413793103" cy="170" r="3" fill="#2563eb"></circle><circle class="dot" cx="649.064039408867" cy="170" r="3" fill="#2563eb"></circle><circle class="dot" cx="652.6108374384237" cy="170" r="3" fill="#2563eb"></circle><circle class="dot" cx="656.1576354679803" cy="170" r="3" fill="#2563eb"></circle><circle class="dot" cx="659.7044334975369" cy="170" r="3" fill="#2563eb"></circle><circle class="dot" cx="663.2512315270936" cy="170" r="3" fill="#2563eb"></circle><circle class="dot" cx="666.7980295566502" cy="170" r="3" fill="#2563eb"></circle><circle class="dot" cx="670.3448275862069" cy="170" r="3" fill="#2563eb"></circle><circle class="dot" cx="673.8916256157635" cy="170" r="3" fill="#2563eb"></circle><circle class="dot" cx="677.4384236453202" cy="170" r="3" fill="#2563eb"></circle><circle class="dot" cx="680.9852216748768" cy="170" r="3" fill="#2563eb"></circle><circle class="dot" cx="684.5320197044334" cy="170" r="3" fill="#2563eb"></circle><circle class="dot" cx="688.0788177339901" cy="170" r="3" fill="#2563eb"></circle><circle class="dot" cx="691.6256157635469" cy="170" r="3" fill="#2563eb"></circle><circle class="dot" cx="695.1724137931035" cy="170" r="3" fill="#2563eb"></circle><circle class="dot" cx="698.7192118226601" cy="170" r="3" fill="#2563eb"></circle><circle class="dot" cx="702.2660098522168" cy="170" r="3" fill="#2563eb"></circle><circle class="dot" cx="705.8128078817734" cy="170" r="3" fill="#2563eb"></circle><circle class="dot" cx="709.35960591133" cy="170" r="3" fill="#2563eb"></circle><circle class="dot" cx="712.9064039408867" cy="170" r="3" fill="#2563eb"></circle><circle class="dot" cx="716.4532019704434" cy="170" r="3" fill="#2563eb"></circle><circle class="dot" cx="720" cy="170" r="3" fill="#2563eb"></circle><g class="grid" transform="translate(0,340)" fill="none" font-size="10" font-family="sans-serif" text-anchor="middle" style="stroke-dasharray: 3,3; opacity: 0.3;"><path class="domain" stroke="currentColor" d="M0.5,-340V0.5H720.5V-340"></path><g class="tick" opacity="1" transform="translate(0.5,0)"><line stroke="currentColor" y2="-340"></line><text fill="currentColor" y="3" dy="0.71em"></text></g><g class="tick" opacity="1" transform="translate(85.6231527093596,0)"><line stroke="currentColor" y2="-340"></line><text fill="currentColor" y="3" dy="0.71em"></text></g><g class="tick" opacity="1" transform="translate(170.7463054187192,0)"><line stroke="currentColor" y2="-340"></line><text fill="currentColor" y="3" dy="0.71em"></text></g><g class="tick" opacity="1" transform="translate(255.86945812807883,0)"><line stroke="currentColor" y2="-340"></line><text fill="currentColor" y="3" dy="0.71em"></text></g><g class="tick" opacity="1" transform="translate(340.9926108374384,0)"><line stroke="currentColor" y2="-340"></line><text fill="currentColor" y="3" dy="0.71em"></text></g><g class="tick" opacity="1" transform="translate(426.11576354679806,0)"><line stroke="currentColor" y2="-340"></line><text fill="currentColor" y="3" dy="0.71em"></text></g><g class="tick" opacity="1" transform="translate(511.23891625615767,0)"><line stroke="currentColor" y2="-340"></line><text fill="currentColor" y="3" dy="0.71em"></text></g><g class="tick" opacity="1" transform="translate(596.3620689655172,0)"><line stroke="currentColor" y2="-340"></line><text fill="currentColor" y="3" dy="0.71em"></text></g><g class="tick" opacity="1" transform="translate(681.4852216748768,0)"><line stroke="currentColor" y2="-340"></line><text fill="currentColor" y="3" dy="0.71em"></text></g></g><g class="grid" fill="none" font-size="10" font-family="sans-serif" text-anchor="end" style="stroke-dasharray: 3,3; opacity: 0.3;"><path class="domain" stroke="currentColor" d="M720,340.5H0.5V0.5H720"></path><g class="tick" opacity="1" transform="translate(0,170.5)"><line stroke="currentColor" x2="720"></line><text fill="currentColor" x="-3" dy="0.32em"></text></g></g></g><text x="400" y="10" text-anchor="middle" style="font-size: 16px; font-weight: bold; fill: #333;">OKX USDT Lending Rate - Current Month</text></svg>