<svg width="800" height="400" xmlns="http://www.w3.org/2000/svg"><g transform="translate(50,20)"><g transform="translate(0,340)" fill="none" font-size="10" font-family="sans-serif" text-anchor="middle"><path class="domain" stroke="currentColor" d="M0.5,6V0.5H720.5V6"></path><g class="tick" opacity="1" transform="translate(0.5,0)"><line stroke="currentColor" y2="6"></line><text fill="currentColor" y="9" dy=".15em" style="text-anchor: end;" dx="-.8em" transform="rotate(-45)">11/01</text></g><g class="tick" opacity="1" transform="translate(30.70979020979021,0)"><line stroke="currentColor" y2="6"></line><text fill="currentColor" y="9" dy=".15em" style="text-anchor: end;" dx="-.8em" transform="rotate(-45)">11/02</text></g><g class="tick" opacity="1" transform="translate(60.91958041958042,0)"><line stroke="currentColor" y2="6"></line><text fill="currentColor" y="9" dy=".15em" style="text-anchor: end;" dx="-.8em" transform="rotate(-45)">11/03</text></g><g class="tick" opacity="1" transform="translate(91.12937062937064,0)"><line stroke="currentColor" y2="6"></line><text fill="currentColor" y="9" dy=".15em" style="text-anchor: end;" dx="-.8em" transform="rotate(-45)">11/04</text></g><g class="tick" opacity="1" transform="translate(121.33916083916084,0)"><line stroke="currentColor" y2="6"></line><text fill="currentColor" y="9" dy=".15em" style="text-anchor: end;" dx="-.8em" transform="rotate(-45)">11/05</text></g><g class="tick" opacity="1" transform="translate(151.54895104895104,0)"><line stroke="currentColor" y2="6"></line><text fill="currentColor" y="9" dy=".15em" style="text-anchor: end;" dx="-.8em" transform="rotate(-45)">11/06</text></g><g class="tick" opacity="1" transform="translate(181.75874125874128,0)"><line stroke="currentColor" y2="6"></line><text fill="currentColor" y="9" dy=".15em" style="text-anchor: end;" dx="-.8em" transform="rotate(-45)">11/07</text></g><g class="tick" opacity="1" transform="translate(211.96853146853147,0)"><line stroke="currentColor" y2="6"></line><text fill="currentColor" y="9" dy=".15em" style="text-anchor: end;" dx="-.8em" transform="rotate(-45)">11/08</text></g><g class="tick" opacity="1" transform="translate(242.17832167832168,0)"><line stroke="currentColor" y2="6"></line><text fill="currentColor" y="9" dy=".15em" style="text-anchor: end;" dx="-.8em" transform="rotate(-45)">11/09</text></g><g class="tick" opacity="1" transform="translate(272.3881118881119,0)"><line stroke="currentColor" y2="6"></line><text fill="currentColor" y="9" dy=".15em" style="text-anchor: end;" dx="-.8em" transform="rotate(-45)">11/10</text></g><g class="tick" opacity="1" transform="translate(302.5979020979021,0)"><line stroke="currentColor" y2="6"></line><text fill="currentColor" y="9" dy=".15em" style="text-anchor: end;" dx="-.8em" transform="rotate(-45)">11/11</text></g><g class="tick" opacity="1" transform="translate(332.8076923076923,0)"><line stroke="currentColor" y2="6"></line><text fill="currentColor" y="9" dy=".15em" style="text-anchor: end;" dx="-.8em" transform="rotate(-45)">11/12</text></g><g class="tick" opacity="1" transform="translate(363.01748251748256,0)"><line stroke="currentColor" y2="6"></line><text fill="currentColor" y="9" dy=".15em" style="text-anchor: end;" dx="-.8em" transform="rotate(-45)">11/13</text></g><g class="tick" opacity="1" transform="translate(393.2272727272727,0)"><line stroke="currentColor" y2="6"></line><text fill="currentColor" y="9" dy=".15em" style="text-anchor: end;" dx="-.8em" transform="rotate(-45)">11/14</text></g><g class="tick" opacity="1" transform="translate(423.43706293706293,0)"><line stroke="currentColor" y2="6"></line><text fill="currentColor" y="9" dy=".15em" style="text-anchor: end;" dx="-.8em" transform="rotate(-45)">11/15</text></g><g class="tick" opacity="1" transform="translate(453.6468531468532,0)"><line stroke="currentColor" y2="6"></line><text fill="currentColor" y="9" dy=".15em" style="text-anchor: end;" dx="-.8em" transform="rotate(-45)">11/16</text></g><g class="tick" opacity="1" transform="translate(483.85664335664336,0)"><line stroke="currentColor" y2="6"></line><text fill="currentColor" y="9" dy=".15em" style="text-anchor: end;" dx="-.8em" transform="rotate(-45)">11/17</text></g><g class="tick" opacity="1" transform="translate(514.0664335664336,0)"><line stroke="currentColor" y2="6"></line><text fill="currentColor" y="9" dy=".15em" style="text-anchor: end;" dx="-.8em" transform="rotate(-45)">11/18</text></g><g class="tick" opacity="1" transform="translate(544.2762237762238,0)"><line stroke="currentColor" y2="6"></line><text fill="currentColor" y="9" dy=".15em" style="text-anchor: end;" dx="-.8em" transform="rotate(-45)">11/19</text></g><g class="tick" opacity="1" transform="translate(574.486013986014,0)"><line stroke="currentColor" y2="6"></line><text fill="currentColor" y="9" dy=".15em" style="text-anchor: end;" dx="-.8em" transform="rotate(-45)">11/20</text></g><g class="tick" opacity="1" transform="translate(604.6958041958042,0)"><line stroke="currentColor" y2="6"></line><text fill="currentColor" y="9" dy=".15em" style="text-anchor: end;" dx="-.8em" transform="rotate(-45)">11/21</text></g><g class="tick" opacity="1" transform="translate(634.9055944055945,0)"><line stroke="currentColor" y2="6"></line><text fill="currentColor" y="9" dy=".15em" style="text-anchor: end;" dx="-.8em" transform="rotate(-45)">11/22</text></g><g class="tick" opacity="1" transform="translate(665.1153846153846,0)"><line stroke="currentColor" y2="6"></line><text fill="currentColor" y="9" dy=".15em" style="text-anchor: end;" dx="-.8em" transform="rotate(-45)">11/23</text></g><g class="tick" opacity="1" transform="translate(695.3251748251748,0)"><line stroke="currentColor" y2="6"></line><text fill="currentColor" y="9" dy=".15em" style="text-anchor: end;" dx="-.8em" transform="rotate(-45)">11/24</text></g></g><g fill="none" font-size="10" font-family="sans-serif" text-anchor="end"><path class="domain" stroke="currentColor" d="M-6,340.5H0.5V0.5H-6"></path><g class="tick" opacity="1" transform="translate(0,340.5)"><line stroke="currentColor" x2="-6"></line><text fill="currentColor" x="-9" dy="0.32em">1.00%</text></g><g class="tick" opacity="1" transform="translate(0,314.3461538461538)"><line stroke="currentColor" x2="-6"></line><text fill="currentColor" x="-9" dy="0.32em">1.20%</text></g><g class="tick" opacity="1" transform="translate(0,288.1923076923077)"><line stroke="currentColor" x2="-6"></line><text fill="currentColor" x="-9" dy="0.32em">1.40%</text></g><g class="tick" opacity="1" transform="translate(0,262.0384615384615)"><line stroke="currentColor" x2="-6"></line><text fill="currentColor" x="-9" dy="0.32em">1.60%</text></g><g class="tick" opacity="1" transform="translate(0,235.8846153846154)"><line stroke="currentColor" x2="-6"></line><text fill="currentColor" x="-9" dy="0.32em">1.80%</text></g><g class="tick" opacity="1" transform="translate(0,209.7307692307692)"><line stroke="currentColor" x2="-6"></line><text fill="currentColor" x="-9" dy="0.32em">2.00%</text></g><g class="tick" opacity="1" transform="translate(0,183.57692307692307)"><line stroke="currentColor" x2="-6"></line><text fill="currentColor" x="-9" dy="0.32em">2.20%</text></g><g class="tick" opacity="1" transform="translate(0,157.4230769230769)"><line stroke="currentColor" x2="-6"></line><text fill="currentColor" x="-9" dy="0.32em">2.40%</text></g><g class="tick" opacity="1" transform="translate(0,131.26923076923072)"><line stroke="currentColor" x2="-6"></line><text fill="currentColor" x="-9" dy="0.32em">2.60%</text></g><g class="tick" opacity="1" transform="translate(0,105.11538461538454)"><line stroke="currentColor" x2="-6"></line><text fill="currentColor" x="-9" dy="0.32em">2.80%</text></g><g class="tick" opacity="1" transform="translate(0,78.96153846153845)"><line stroke="currentColor" x2="-6"></line><text fill="currentColor" x="-9" dy="0.32em">3.00%</text></g><g class="tick" opacity="1" transform="translate(0,52.80769230769227)"><line stroke="currentColor" x2="-6"></line><text fill="currentColor" x="-9" dy="0.32em">3.20%</text></g><g class="tick" opacity="1" transform="translate(0,26.6538461538461)"><line stroke="currentColor" x2="-6"></line><text fill="currentColor" x="-9" dy="0.32em">3.40%</text></g><g class="tick" opacity="1" transform="translate(0,0.5)"><line stroke="currentColor" x2="-6"></line><text fill="currentColor" x="-9" dy="0.32em">3.60%</text></g></g><text transform="rotate(-90)" y="-50" x="-170" dy="1em" style="text-anchor: middle; font-size: 12px; fill: #666;">Pre Rate (%)</text><text transform="translate(360, 380)" style="text-anchor: middle; font-size: 12px; fill: #666;">Time (UTC)</text><path fill="none" stroke="#2563eb" stroke-width="2" d="M0,78.462C0.42,78.462,0.839,78.462,1.259,78.462C1.678,78.462,2.098,78.462,2.517,78.462C2.937,78.462,3.357,78.462,3.776,78.462C4.196,78.462,4.615,78.462,5.035,78.462C5.455,78.462,5.874,78.462,6.294,78.462C6.713,78.462,7.133,78.462,7.552,78.462C7.972,78.462,8.392,78.462,8.811,78.462C9.231,78.462,9.65,78.462,10.07,78.462C10.49,78.462,10.909,78.462,11.329,78.462C11.748,78.462,12.168,78.462,12.587,78.462C13.007,78.462,13.427,78.462,13.846,78.462C14.266,78.462,14.685,78.462,15.105,78.462C15.524,78.462,15.944,78.462,16.364,78.462C16.783,78.462,17.203,78.462,17.622,78.462C18.042,78.462,18.462,78.462,18.881,78.462C19.301,78.462,19.72,78.462,20.14,78.462C20.559,78.462,20.979,78.462,21.399,78.462C21.818,78.462,22.238,78.462,22.657,78.462C23.077,78.462,23.497,78.462,23.916,78.462C24.336,78.462,24.755,78.462,25.175,78.462C25.594,78.462,26.014,78.462,26.434,78.462C26.853,78.462,27.273,78.462,27.692,78.462C28.112,78.462,28.531,78.462,28.951,78.462C29.371,78.462,29.79,78.462,30.21,78.462C30.629,78.462,31.049,78.462,31.469,78.462C31.888,78.462,32.308,78.462,32.727,78.462C33.147,78.462,33.566,78.462,33.986,78.462C34.406,78.462,34.825,78.462,35.245,78.462C35.664,78.462,36.084,78.462,36.503,78.462C36.923,78.462,37.343,78.462,37.762,78.462C38.182,78.462,38.601,78.462,39.021,78.462C39.441,78.462,39.86,78.462,40.28,78.462C40.699,78.462,41.119,78.462,41.538,78.462C41.958,78.462,42.378,78.462,42.797,78.462C43.217,78.462,43.636,78.462,44.056,78.462C44.476,78.462,44.895,78.462,45.315,78.462C45.734,78.462,46.154,78.462,46.573,78.462C46.993,78.462,47.413,78.462,47.832,78.462C48.252,78.462,48.671,78.462,49.091,78.462C49.51,78.462,49.93,78.462,50.35,78.462C50.769,78.462,51.189,78.462,51.608,78.462C52.028,78.462,52.448,78.462,52.867,78.462C53.287,78.462,53.706,78.462,54.126,78.462C54.545,78.462,54.965,78.462,55.385,78.462C55.804,78.462,56.224,78.462,56.643,78.462C57.063,78.462,57.483,78.462,57.902,78.462C58.322,78.462,58.741,78.462,59.161,78.462C59.58,78.462,60,78.462,60.42,78.462C60.839,78.462,61.259,78.462,61.678,78.462C62.098,78.462,62.517,78.462,62.937,78.462C63.357,78.462,63.776,78.462,64.196,78.462C64.615,78.462,65.035,78.462,65.455,78.462C65.874,78.462,66.294,78.462,66.713,78.462C67.133,78.462,67.552,78.462,67.972,78.462C68.392,78.462,68.811,78.462,69.231,78.462C69.65,78.462,70.07,78.462,70.49,78.462C70.909,78.462,71.329,78.462,71.748,78.462C72.168,78.462,72.587,78.462,73.007,78.462C73.427,78.462,73.846,78.462,74.266,78.462C74.685,78.462,75.105,78.462,75.524,78.462C75.944,78.462,76.364,78.462,76.783,78.462C77.203,78.462,77.622,78.462,78.042,78.462C78.462,78.462,78.881,78.462,79.301,78.462C79.72,78.462,80.14,78.462,80.559,78.462C80.979,78.462,81.399,78.462,81.818,78.462C82.238,78.462,82.657,78.462,83.077,78.462C83.497,78.462,83.916,78.462,84.336,78.462C84.755,78.462,85.175,78.462,85.594,78.462C86.014,78.462,86.434,78.462,86.853,78.462C87.273,78.462,87.692,78.462,88.112,78.462C88.531,78.462,88.951,78.462,89.371,78.462C89.79,78.462,90.21,78.462,90.629,78.462C91.049,78.462,91.469,78.462,91.888,78.462C92.308,78.462,92.727,78.462,93.147,78.462C93.566,78.462,93.986,78.462,94.406,78.462C94.825,78.462,95.245,78.462,95.664,78.462C96.084,78.462,96.503,78.462,96.923,78.462C97.343,78.462,97.762,78.462,98.182,78.462C98.601,78.462,99.021,78.462,99.441,78.462C99.86,78.462,100.28,78.462,100.699,78.462C101.119,78.462,101.538,78.462,101.958,78.462C102.378,78.462,102.797,78.462,103.217,78.462C103.636,78.462,104.056,78.462,104.476,78.462C104.895,78.462,105.315,78.462,105.734,78.462C106.154,78.462,106.573,78.462,106.993,78.462C107.413,78.462,107.832,78.462,108.252,78.462C108.671,78.462,109.091,78.462,109.51,78.462C109.93,78.462,110.35,78.462,110.769,78.462C111.189,78.462,111.608,78.462,112.028,78.462C112.448,78.462,112.867,78.462,113.287,78.462C113.706,78.462,114.126,78.462,114.545,78.462C114.965,78.462,115.385,78.462,115.804,78.462C116.224,78.462,116.643,78.462,117.063,78.462C117.483,78.462,117.902,78.462,118.322,78.462C118.741,78.462,119.161,78.462,119.58,78.462C120,78.462,120.42,78.462,120.839,78.462C121.259,78.462,121.678,340,122.098,340C122.517,340,122.937,340,123.357,340C123.776,340,124.196,340,124.615,340C125.035,340,125.455,340,125.874,340C126.294,340,126.713,340,127.133,340C127.552,340,127.972,340,128.392,340C128.811,340,129.231,340,129.65,340C130.07,340,130.49,340,130.909,340C131.329,340,131.748,78.462,132.168,78.462C132.587,78.462,133.007,78.462,133.427,78.462C133.846,78.462,134.266,78.462,134.685,78.462C135.105,78.462,135.524,78.462,135.944,78.462C136.364,78.462,136.783,78.462,137.203,78.462C137.622,78.462,138.042,78.462,138.462,78.462C138.881,78.462,139.301,78.462,139.72,78.462C140.14,78.462,140.559,78.462,140.979,78.462C141.399,78.462,141.818,78.462,142.238,78.462C142.657,78.462,143.077,78.462,143.497,78.462C143.916,78.462,144.336,78.462,144.755,78.462C145.175,78.462,145.594,78.462,146.014,78.462C146.434,78.462,146.853,78.462,147.273,78.462C147.692,78.462,148.112,78.462,148.531,78.462C148.951,78.462,149.371,78.462,149.79,78.462C150.21,78.462,150.629,78.462,151.049,78.462C151.469,78.462,151.888,78.462,152.308,78.462C152.727,78.462,153.147,78.462,153.566,78.462C153.986,78.462,154.406,78.462,154.825,78.462C155.245,78.462,155.664,78.462,156.084,78.462C156.503,78.462,156.923,78.462,157.343,78.462C157.762,78.462,158.182,78.462,158.601,78.462C159.021,78.462,159.441,78.462,159.86,78.462C160.28,78.462,160.699,78.462,161.119,78.462C161.538,78.462,161.958,78.462,162.378,78.462C162.797,78.462,163.217,78.462,163.636,78.462C164.056,78.462,164.476,78.462,164.895,78.462C165.315,78.462,165.734,78.462,166.154,78.462C166.573,78.462,166.993,78.462,167.413,78.462C167.832,78.462,168.252,78.462,168.671,78.462C169.091,78.462,169.51,78.462,169.93,78.462C170.35,78.462,170.769,78.462,171.189,78.462C171.608,78.462,172.028,78.462,172.448,78.462C172.867,78.462,173.287,78.462,173.706,78.462C174.126,78.462,174.545,78.462,174.965,78.462C175.385,78.462,175.804,78.462,176.224,78.462C176.643,78.462,177.063,78.462,177.483,78.462C177.902,78.462,178.322,78.462,178.741,78.462C179.161,78.462,179.58,78.462,180,78.462C180.42,78.462,180.839,78.462,181.259,78.462C181.678,78.462,182.098,78.462,182.517,78.462C182.937,78.462,183.357,78.462,183.776,78.462C184.196,78.462,184.615,78.462,185.035,78.462C185.455,78.462,185.874,78.462,186.294,78.462C186.713,78.462,187.133,78.462,187.552,78.462C187.972,78.462,188.392,78.462,188.811,78.462C189.231,78.462,189.65,78.462,190.07,78.462C190.49,78.462,190.909,78.462,191.329,78.462C191.748,78.462,192.168,78.462,192.587,78.462C193.007,78.462,193.427,78.462,193.846,78.462C194.266,78.462,194.685,78.462,195.105,78.462C195.524,78.462,195.944,78.462,196.364,78.462C196.783,78.462,197.203,78.462,197.622,78.462C198.042,78.462,198.462,78.462,198.881,78.462C199.301,78.462,199.72,78.462,200.14,78.462C200.559,78.462,200.979,78.462,201.399,78.462C201.818,78.462,202.238,78.462,202.657,78.462C203.077,78.462,203.497,78.462,203.916,78.462C204.336,78.462,204.755,78.462,205.175,78.462C205.594,78.462,206.014,78.462,206.434,78.462C206.853,78.462,207.273,78.462,207.692,78.462C208.112,78.462,208.531,78.462,208.951,78.462C209.371,78.462,209.79,78.462,210.21,78.462C210.629,78.462,211.049,78.462,211.469,78.462C211.888,78.462,212.308,78.462,212.727,78.462C213.147,78.462,213.566,78.462,213.986,78.462C214.406,78.462,214.825,78.462,215.245,78.462C215.664,78.462,216.084,78.462,216.503,78.462C216.923,78.462,217.343,78.462,217.762,78.462C218.182,78.462,218.601,78.462,219.021,78.462C219.441,78.462,219.86,78.462,220.28,78.462C220.699,78.462,221.119,78.462,221.538,78.462C221.958,78.462,222.378,78.462,222.797,78.462C223.217,78.462,223.636,78.462,224.056,78.462C224.476,78.462,224.895,78.462,225.315,78.462C225.734,78.462,226.154,78.462,226.573,78.462C226.993,78.462,227.413,78.462,227.832,78.462C228.252,78.462,228.671,78.462,229.091,78.462C229.51,78.462,229.93,78.462,230.35,78.462C230.769,78.462,231.189,78.462,231.608,78.462C232.028,78.462,232.448,78.462,232.867,78.462C233.287,78.462,233.706,78.462,234.126,78.462C234.545,78.462,234.965,78.462,235.385,78.462C235.804,78.462,236.224,78.462,236.643,78.462C237.063,78.462,237.483,78.462,237.902,78.462C238.322,78.462,238.741,78.462,239.161,78.462C239.58,78.462,240,78.462,240.42,78.462C240.839,78.462,241.259,78.462,241.678,78.462C242.098,78.462,242.517,78.462,242.937,78.462C243.357,78.462,243.776,78.462,244.196,78.462C244.615,78.462,245.035,78.462,245.455,78.462C245.874,78.462,246.294,78.462,246.713,78.462C247.133,78.462,247.552,78.462,247.972,78.462C248.392,78.462,248.811,78.462,249.231,78.462C249.65,78.462,250.07,78.462,250.49,78.462C250.909,78.462,251.329,78.462,251.748,78.462C252.168,78.462,252.587,78.462,253.007,78.462C253.427,78.462,253.846,78.462,254.266,78.462C254.685,78.462,255.105,78.462,255.524,78.462C255.944,78.462,256.364,78.462,256.783,78.462C257.203,78.462,257.622,78.462,258.042,78.462C258.462,78.462,258.881,78.462,259.301,78.462C259.72,78.462,260.14,78.462,260.559,78.462C260.979,78.462,261.399,78.462,261.818,78.462C262.238,78.462,262.657,78.462,263.077,78.462C263.497,78.462,263.916,78.462,264.336,78.462C264.755,78.462,265.175,78.462,265.594,78.462C266.014,78.462,266.434,78.462,266.853,78.462C267.273,78.462,267.692,78.462,268.112,78.462C268.531,78.462,268.951,78.462,269.371,78.462C269.79,78.462,270.21,78.462,270.629,78.462C271.049,78.462,271.469,78.462,271.888,78.462C272.308,78.462,272.727,78.462,273.147,78.462C273.566,78.462,273.986,78.462,274.406,78.462C274.825,78.462,275.245,78.462,275.664,78.462C276.084,78.462,276.503,78.462,276.923,78.462C277.343,78.462,277.762,78.462,278.182,78.462C278.601,78.462,279.021,78.462,279.441,78.462C279.86,78.462,280.28,78.462,280.699,78.462C281.119,78.462,281.538,78.462,281.958,78.462C282.378,78.462,282.797,78.462,283.217,78.462C283.636,78.462,284.056,78.462,284.476,78.462C284.895,78.462,285.315,78.462,285.734,78.462C286.154,78.462,286.573,78.462,286.993,78.462C287.413,78.462,287.832,78.462,288.252,78.462C288.671,78.462,289.091,78.462,289.51,78.462C289.93,78.462,290.35,78.462,290.769,78.462C291.189,78.462,291.608,78.462,292.028,78.462C292.448,78.462,292.867,78.462,293.287,78.462C293.706,78.462,294.126,78.462,294.545,78.462C294.965,78.462,295.385,78.462,295.804,78.462C296.224,78.462,296.643,78.462,297.063,78.462C297.483,78.462,297.902,78.462,298.322,78.462C298.741,78.462,299.161,78.462,299.58,78.462C300,78.462,300.42,78.462,300.839,78.462C301.259,78.462,301.678,78.462,302.098,78.462C302.517,78.462,302.937,78.462,303.357,78.462C303.776,78.462,304.196,78.462,304.615,78.462C305.035,78.462,305.455,78.462,305.874,78.462C306.294,78.462,306.713,78.462,307.133,78.462C307.552,78.462,307.972,78.462,308.392,78.462C308.811,78.462,309.231,78.462,309.65,78.462C310.07,78.462,310.49,78.462,310.909,78.462C311.329,78.462,311.748,78.462,312.168,78.462C312.587,78.462,313.007,78.462,313.427,78.462C313.846,78.462,314.266,78.462,314.685,78.462C315.105,78.462,315.524,78.462,315.944,78.462C316.364,78.462,316.783,78.462,317.203,78.462C317.622,78.462,318.042,78.462,318.462,78.462C318.881,78.462,319.301,78.462,319.72,78.462C320.14,78.462,320.559,78.462,320.979,78.462C321.399,78.462,321.818,78.462,322.238,78.462C322.657,78.462,323.077,78.462,323.497,78.462C323.916,78.462,324.336,78.462,324.755,78.462C325.175,78.462,325.594,78.462,326.014,78.462C326.434,78.462,326.853,78.462,327.273,78.462C327.692,78.462,328.112,78.462,328.531,78.462C328.951,78.462,329.371,78.462,329.79,78.462C330.21,78.462,330.629,78.462,331.049,78.462C331.469,78.462,331.888,78.462,332.308,78.462C332.727,78.462,333.147,78.462,333.566,78.462C333.986,78.462,334.406,78.462,334.825,78.462C335.245,78.462,335.664,78.462,336.084,78.462C336.503,78.462,336.923,78.462,337.343,78.462C337.762,78.462,338.182,78.462,338.601,78.462C339.021,78.462,339.441,78.462,339.86,78.462C340.28,78.462,340.699,78.462,341.119,78.462C341.538,78.462,341.958,78.462,342.378,78.462C342.797,78.462,343.217,78.462,343.636,78.462C344.056,78.462,344.476,78.462,344.895,78.462C345.315,78.462,345.734,78.462,346.154,78.462C346.573,78.462,346.993,78.462,347.413,78.462C347.832,78.462,348.252,78.462,348.671,78.462C349.091,78.462,349.51,78.462,349.93,78.462C350.35,78.462,350.769,78.462,351.189,78.462C351.608,78.462,352.028,78.462,352.448,78.462C352.867,78.462,353.287,78.462,353.706,78.462C354.126,78.462,354.545,78.462,354.965,78.462C355.385,78.462,355.804,78.462,356.224,78.462C356.643,78.462,357.063,78.462,357.483,78.462C357.902,78.462,358.322,78.462,358.741,78.462C359.161,78.462,359.58,78.462,360,78.462C360.42,78.462,360.839,78.462,361.259,78.462C361.678,78.462,362.098,78.462,362.517,78.462C362.937,78.462,363.357,78.462,363.776,78.462C364.196,78.462,364.615,78.462,365.035,78.462C365.455,78.462,365.874,78.462,366.294,78.462C366.713,78.462,367.133,78.462,367.552,78.462C367.972,78.462,368.392,78.462,368.811,78.462C369.231,78.462,369.65,78.462,370.07,78.462C370.49,78.462,370.909,78.462,371.329,78.462C371.748,78.462,372.168,78.462,372.587,78.462C373.007,78.462,373.427,78.462,373.846,78.462C374.266,78.462,374.685,78.462,375.105,78.462C375.524,78.462,375.944,78.462,376.364,78.462C376.783,78.462,377.203,78.462,377.622,78.462C378.042,78.462,378.462,78.462,378.881,78.462C379.301,78.462,379.72,78.462,380.14,78.462C380.559,78.462,380.979,78.462,381.399,78.462C381.818,78.462,382.238,78.462,382.657,78.462C383.077,78.462,383.497,78.462,383.916,78.462C384.336,78.462,384.755,78.462,385.175,78.462C385.594,78.462,386.014,78.462,386.434,78.462C386.853,78.462,387.273,78.462,387.692,78.462C388.112,78.462,388.531,78.462,388.951,78.462C389.371,78.462,389.79,78.462,390.21,78.462C390.629,78.462,391.049,78.462,391.469,78.462C391.888,78.462,392.308,78.462,392.727,78.462C393.147,78.462,393.566,78.462,393.986,78.462C394.406,78.462,394.825,78.462,395.245,78.462C395.664,78.462,396.084,78.462,396.503,78.462C396.923,78.462,397.343,78.462,397.762,78.462C398.182,78.462,398.601,78.462,399.021,78.462C399.441,78.462,399.86,78.462,400.28,78.462C400.699,78.462,401.119,78.462,401.538,78.462C401.958,78.462,402.378,78.462,402.797,78.462C403.217,78.462,403.636,78.462,404.056,78.462C404.476,78.462,404.895,78.462,405.315,78.462C405.734,78.462,406.154,78.462,406.573,78.462C406.993,78.462,407.413,78.462,407.832,78.462C408.252,78.462,408.671,78.462,409.091,78.462C409.51,78.462,409.93,78.462,410.35,78.462C410.769,78.462,411.189,78.462,411.608,78.462C412.028,78.462,412.448,78.462,412.867,78.462C413.287,78.462,413.706,78.462,414.126,78.462C414.545,78.462,414.965,78.462,415.385,78.462C415.804,78.462,416.224,78.462,416.643,78.462C417.063,78.462,417.483,78.462,417.902,78.462C418.322,78.462,418.741,78.462,419.161,78.462C419.58,78.462,420,78.462,420.42,78.462C420.839,78.462,421.259,78.462,421.678,78.462C422.098,78.462,422.517,78.462,422.937,78.462C423.357,78.462,423.776,78.462,424.196,78.462C424.615,78.462,425.035,78.462,425.455,78.462C425.874,78.462,426.294,78.462,426.713,78.462C427.133,78.462,427.552,78.462,427.972,78.462C428.392,78.462,428.811,78.462,429.231,78.462C429.65,78.462,430.07,78.462,430.49,78.462C430.909,78.462,431.329,78.462,431.748,78.462C432.168,78.462,432.587,78.462,433.007,78.462C433.427,78.462,433.846,78.462,434.266,78.462C434.685,78.462,435.105,78.462,435.524,78.462C435.944,78.462,436.364,78.462,436.783,78.462C437.203,78.462,437.622,78.462,438.042,78.462C438.462,78.462,438.881,78.462,439.301,78.462C439.72,78.462,440.14,78.462,440.559,78.462C440.979,78.462,441.399,78.462,441.818,78.462C442.238,78.462,442.657,78.462,443.077,78.462C443.497,78.462,443.916,78.462,444.336,78.462C444.755,78.462,445.175,78.462,445.594,78.462C446.014,78.462,446.434,78.462,446.853,78.462C447.273,78.462,447.692,78.462,448.112,78.462C448.531,78.462,448.951,78.462,449.371,78.462C449.79,78.462,450.21,78.462,450.629,78.462C451.049,78.462,451.469,78.462,451.888,78.462C452.308,78.462,452.727,78.462,453.147,78.462C453.566,78.462,453.986,78.462,454.406,78.462C454.825,78.462,455.245,78.462,455.664,78.462C456.084,78.462,456.503,78.462,456.923,78.462C457.343,78.462,457.762,78.462,458.182,78.462C458.601,78.462,459.021,78.462,459.441,78.462C459.86,78.462,460.28,78.462,460.699,78.462C461.119,78.462,461.538,78.462,461.958,78.462C462.378,78.462,462.797,78.462,463.217,78.462C463.636,78.462,464.056,78.462,464.476,78.462C464.895,78.462,465.315,78.462,465.734,78.462C466.154,78.462,466.573,78.462,466.993,78.462C467.413,78.462,467.832,78.462,468.252,78.462C468.671,78.462,469.091,78.462,469.51,78.462C469.93,78.462,470.35,78.462,470.769,78.462C471.189,78.462,471.608,78.462,472.028,78.462C472.448,78.462,472.867,78.462,473.287,78.462C473.706,78.462,474.126,78.462,474.545,78.462C474.965,78.462,475.385,78.462,475.804,78.462C476.224,78.462,476.643,78.462,477.063,78.462C477.483,78.462,477.902,78.462,478.322,78.462C478.741,78.462,479.161,78.462,479.58,78.462C480,78.462,480.42,78.462,480.839,78.462C481.259,78.462,481.678,78.462,482.098,78.462C482.517,78.462,482.937,78.462,483.357,78.462C483.776,78.462,484.196,78.462,484.615,78.462C485.035,78.462,485.455,78.462,485.874,78.462C486.294,78.462,486.713,78.462,487.133,78.462C487.552,78.462,487.972,78.462,488.392,78.462C488.811,78.462,489.231,78.462,489.65,78.462C490.07,78.462,490.49,78.462,490.909,78.462C491.329,78.462,491.748,78.462,492.168,78.462C492.587,78.462,493.007,78.462,493.427,78.462C493.846,78.462,494.266,78.462,494.685,78.462C495.105,78.462,495.524,78.462,495.944,78.462C496.364,78.462,496.783,78.462,497.203,78.462C497.622,78.462,498.042,78.462,498.462,78.462C498.881,78.462,499.301,78.462,499.72,78.462C500.14,78.462,500.559,78.462,500.979,78.462C501.399,78.462,501.818,78.462,502.238,78.462C502.657,78.462,503.077,78.462,503.497,78.462C503.916,78.462,504.336,78.462,504.755,78.462C505.175,78.462,505.594,78.462,506.014,78.462C506.434,78.462,506.853,78.462,507.273,78.462C507.692,78.462,508.112,78.462,508.531,78.462C508.951,78.462,509.371,78.462,509.79,78.462C510.21,78.462,510.629,78.462,511.049,78.462C511.469,78.462,511.888,78.462,512.308,78.462C512.727,78.462,513.147,78.462,513.566,78.462C513.986,78.462,514.406,78.462,514.825,78.462C515.245,78.462,515.664,13.077,516.084,13.077C516.503,13.077,516.923,13.077,517.343,13.077C517.762,13.077,518.182,13.077,518.601,13.077C519.021,13.077,519.441,13.077,519.86,13.077C520.28,13.077,520.699,13.077,521.119,13.077C521.538,13.077,521.958,13.077,522.378,13.077C522.797,13.077,523.217,13.077,523.636,13.077C524.056,13.077,524.476,13.077,524.895,13.077C525.315,13.077,525.734,13.077,526.154,13.077C526.573,13.077,526.993,13.077,527.413,13.077C527.832,13.077,528.252,13.077,528.671,13.077C529.091,13.077,529.51,13.077,529.93,13.077C530.35,13.077,530.769,13.077,531.189,13.077C531.608,13.077,532.028,13.077,532.448,13.077C532.867,13.077,533.287,13.077,533.706,13.077C534.126,13.077,534.545,13.077,534.965,13.077C535.385,13.077,535.804,13.077,536.224,13.077C536.643,13.077,537.063,13.077,537.483,13.077C537.902,13.077,538.322,13.077,538.741,13.077C539.161,13.077,539.58,13.077,540,13.077C540.42,13.077,540.839,13.077,541.259,13.077C541.678,13.077,542.098,13.077,542.517,13.077C542.937,13.077,543.357,13.077,543.776,13.077C544.196,13.077,544.615,13.077,545.035,13.077C545.455,13.077,545.874,13.077,546.294,13.077C546.713,13.077,547.133,13.077,547.552,13.077C547.972,13.077,548.392,13.077,548.811,13.077C549.231,13.077,549.65,13.077,550.07,13.077C550.49,13.077,550.909,13.077,551.329,13.077C551.748,13.077,552.168,13.077,552.587,13.077C553.007,13.077,553.427,13.077,553.846,13.077C554.266,13.077,554.685,13.077,555.105,13.077C555.524,13.077,555.944,13.077,556.364,13.077C556.783,13.077,557.203,13.077,557.622,13.077C558.042,13.077,558.462,13.077,558.881,13.077C559.301,13.077,559.72,13.077,560.14,13.077C560.559,13.077,560.979,13.077,561.399,13.077C561.818,13.077,562.238,13.077,562.657,13.077C563.077,13.077,563.497,13.077,563.916,13.077C564.336,13.077,564.755,13.077,565.175,13.077C565.594,13.077,566.014,13.077,566.434,13.077C566.853,13.077,567.273,13.077,567.692,13.077C568.112,13.077,568.531,13.077,568.951,13.077C569.371,13.077,569.79,13.077,570.21,13.077C570.629,13.077,571.049,13.077,571.469,13.077C571.888,13.077,572.308,13.077,572.727,13.077C573.147,13.077,573.566,13.077,573.986,13.077C574.406,13.077,574.825,13.077,575.245,13.077C575.664,13.077,576.084,13.077,576.503,13.077C576.923,13.077,577.343,13.077,577.762,13.077C578.182,13.077,578.601,13.077,579.021,13.077C579.441,13.077,579.86,13.077,580.28,13.077C580.699,13.077,581.119,13.077,581.538,13.077C581.958,13.077,582.378,13.077,582.797,13.077C583.217,13.077,583.636,13.077,584.056,13.077C584.476,13.077,584.895,13.077,585.315,13.077C585.734,13.077,586.154,13.077,586.573,13.077C586.993,13.077,587.413,13.077,587.832,13.077C588.252,13.077,588.671,13.077,589.091,13.077C589.51,13.077,589.93,13.077,590.35,13.077C590.769,13.077,591.189,13.077,591.608,13.077C592.028,13.077,592.448,13.077,592.867,13.077C593.287,13.077,593.706,13.077,594.126,13.077C594.545,13.077,594.965,13.077,595.385,13.077C595.804,13.077,596.224,13.077,596.643,13.077C597.063,13.077,597.483,13.077,597.902,13.077C598.322,13.077,598.741,13.077,599.161,13.077C599.58,13.077,600,13.077,600.42,13.077C600.839,13.077,601.259,13.077,601.678,13.077C602.098,13.077,602.517,13.077,602.937,13.077C603.357,13.077,603.776,13.077,604.196,13.077C604.615,13.077,605.035,13.077,605.455,13.077C605.874,13.077,606.294,13.077,606.713,13.077C607.133,13.077,607.552,13.077,607.972,13.077C608.392,13.077,608.811,13.077,609.231,13.077C609.65,13.077,610.07,13.077,610.49,13.077C610.909,13.077,611.329,13.077,611.748,13.077C612.168,13.077,612.587,13.077,613.007,13.077C613.427,13.077,613.846,13.077,614.266,13.077C614.685,13.077,615.105,13.077,615.524,13.077C615.944,13.077,616.364,13.077,616.783,13.077C617.203,13.077,617.622,13.077,618.042,13.077C618.462,13.077,618.881,13.077,619.301,13.077C619.72,13.077,620.14,13.077,620.559,13.077C620.979,13.077,621.399,13.077,621.818,13.077C622.238,13.077,622.657,13.077,623.077,13.077C623.497,13.077,623.916,13.077,624.336,13.077C624.755,13.077,625.175,13.077,625.594,13.077C626.014,13.077,626.434,13.077,626.853,13.077C627.273,13.077,627.692,13.077,628.112,13.077C628.531,13.077,628.951,13.077,629.371,13.077C629.79,13.077,630.21,13.077,630.629,13.077C631.049,13.077,631.469,13.077,631.888,13.077C632.308,13.077,632.727,13.077,633.147,13.077C633.566,13.077,633.986,13.077,634.406,13.077C634.825,13.077,635.245,13.077,635.664,13.077C636.084,13.077,636.503,13.077,636.923,13.077C637.343,13.077,637.762,13.077,638.182,13.077C638.601,13.077,639.021,13.077,639.441,13.077C639.86,13.077,640.28,13.077,640.699,13.077C641.119,13.077,641.538,13.077,641.958,13.077C642.378,13.077,642.797,13.077,643.217,13.077C643.636,13.077,644.056,13.077,644.476,13.077C644.895,13.077,645.315,13.077,645.734,13.077C646.154,13.077,646.573,13.077,646.993,13.077C647.413,13.077,647.832,13.077,648.252,13.077C648.671,13.077,649.091,13.077,649.51,13.077C649.93,13.077,650.35,13.077,650.769,13.077C651.189,13.077,651.608,13.077,652.028,13.077C652.448,13.077,652.867,13.077,653.287,13.077C653.706,13.077,654.126,13.077,654.545,13.077C654.965,13.077,655.385,13.077,655.804,13.077C656.224,13.077,656.643,13.077,657.063,13.077C657.483,13.077,657.902,13.077,658.322,13.077C658.741,13.077,659.161,13.077,659.58,13.077C660,13.077,660.42,13.077,660.839,13.077C661.259,13.077,661.678,13.077,662.098,13.077C662.517,13.077,662.937,13.077,663.357,13.077C663.776,13.077,664.196,13.077,664.615,13.077C665.035,13.077,665.455,13.077,665.874,13.077C666.294,13.077,666.713,13.077,667.133,13.077C667.552,13.077,667.972,13.077,668.392,13.077C668.811,13.077,669.231,13.077,669.65,13.077C670.07,13.077,670.49,13.077,670.909,13.077C671.329,13.077,671.748,13.077,672.168,13.077C672.587,13.077,673.007,13.077,673.427,13.077C673.846,13.077,674.266,13.077,674.685,13.077C675.105,13.077,675.524,13.077,675.944,13.077C676.364,13.077,676.783,13.077,677.203,13.077C677.622,13.077,678.042,13.077,678.462,13.077C678.881,13.077,679.301,13.077,679.72,13.077C680.14,13.077,680.559,13.077,680.979,13.077C681.399,13.077,681.818,13.077,682.238,13.077C682.657,13.077,683.077,13.077,683.497,13.077C683.916,13.077,684.336,13.077,684.755,13.077C685.175,13.077,685.594,13.077,686.014,13.077C686.434,13.077,686.853,13.077,687.273,13.077C687.692,13.077,688.112,13.077,688.531,13.077C688.951,13.077,689.371,13.077,689.79,13.077C690.21,13.077,690.629,13.077,691.049,13.077C691.469,13.077,691.888,13.077,692.308,13.077C692.727,13.077,693.147,13.077,693.566,13.077C693.986,13.077,694.406,13.077,694.825,13.077C695.245,13.077,695.664,13.077,696.084,13.077C696.503,13.077,696.923,13.077,697.343,13.077C697.762,13.077,698.182,13.077,698.601,13.077C699.021,13.077,699.441,13.077,699.86,13.077C700.28,13.077,700.699,13.077,701.119,13.077C701.538,13.077,701.958,13.077,702.378,13.077C702.797,13.077,703.217,13.077,703.636,13.077C704.056,13.077,704.476,13.077,704.895,13.077C705.315,13.077,705.734,13.077,706.154,13.077C706.573,13.077,706.993,13.077,707.413,13.077C707.832,13.077,708.252,13.077,708.671,13.077C709.091,13.077,709.51,13.077,709.93,13.077C710.35,13.077,710.769,13.077,711.189,13.077C711.608,13.077,712.028,13.077,712.448,13.077C712.867,13.077,713.287,13.077,713.706,13.077C714.126,13.077,714.545,13.077,714.965,13.077C715.385,13.077,715.804,13.077,716.224,13.077C716.643,13.077,717.063,13.077,717.483,13.077C717.902,13.077,718.322,13.077,718.741,13.077C719.161,13.077,719.58,13.077,720,13.077"></path><circle class="dot" cx="0" cy="78.46153846153845" r="3" fill="#2563eb"></circle><circle class="dot" cx="1.2587412587412588" cy="78.46153846153845" r="3" fill="#2563eb"></circle><circle class="dot" cx="2.5174825174825175" cy="78.46153846153845" r="3" fill="#2563eb"></circle><circle class="dot" cx="3.7762237762237763" cy="78.46153846153845" r="3" fill="#2563eb"></circle><circle class="dot" cx="5.034965034965035" cy="78.46153846153845" r="3" fill="#2563eb"></circle><circle class="dot" cx="6.293706293706294" cy="78.46153846153845" r="3" fill="#2563eb"></circle><circle class="dot" cx="7.5524475524475525" cy="78.46153846153845" r="3" fill="#2563eb"></circle><circle class="dot" cx="8.811188811188812" cy="78.46153846153845" r="3" fill="#2563eb"></circle><circle class="dot" cx="10.06993006993007" cy="78.46153846153845" r="3" fill="#2563eb"></circle><circle class="dot" cx="11.32867132867133" cy="78.46153846153845" r="3" fill="#2563eb"></circle><circle class="dot" cx="12.587412587412588" cy="78.46153846153845" r="3" fill="#2563eb"></circle><circle class="dot" cx="13.846153846153847" cy="78.46153846153845" r="3" fill="#2563eb"></circle><circle class="dot" cx="15.104895104895105" cy="78.46153846153845" r="3" fill="#2563eb"></circle><circle class="dot" cx="16.363636363636363" cy="78.46153846153845" r="3" fill="#2563eb"></circle><circle class="dot" cx="17.622377622377623" cy="78.46153846153845" r="3" fill="#2563eb"></circle><circle class="dot" cx="18.88111888111888" cy="78.46153846153845" r="3" fill="#2563eb"></circle><circle class="dot" cx="20.13986013986014" cy="78.46153846153845" r="3" fill="#2563eb"></circle><circle class="dot" cx="21.3986013986014" cy="78.46153846153845" r="3" fill="#2563eb"></circle><circle class="dot" cx="22.65734265734266" cy="78.46153846153845" r="3" fill="#2563eb"></circle><circle class="dot" cx="23.916083916083917" cy="78.46153846153845" r="3" fill="#2563eb"></circle><circle class="dot" cx="25.174825174825177" cy="78.46153846153845" r="3" fill="#2563eb"></circle><circle class="dot" cx="26.433566433566433" cy="78.46153846153845" r="3" fill="#2563eb"></circle><circle class="dot" cx="27.692307692307693" cy="78.46153846153845" r="3" fill="#2563eb"></circle><circle class="dot" cx="28.95104895104895" cy="78.46153846153845" r="3" fill="#2563eb"></circle><circle class="dot" cx="30.20979020979021" cy="78.46153846153845" r="3" fill="#2563eb"></circle><circle class="dot" cx="31.468531468531467" cy="78.46153846153845" r="3" fill="#2563eb"></circle><circle class="dot" cx="32.72727272727273" cy="78.46153846153845" r="3" fill="#2563eb"></circle><circle class="dot" cx="33.98601398601399" cy="78.46153846153845" r="3" fill="#2563eb"></circle><circle class="dot" cx="35.24475524475525" cy="78.46153846153845" r="3" fill="#2563eb"></circle><circle class="dot" cx="36.5034965034965" cy="78.46153846153845" r="3" fill="#2563eb"></circle><circle class="dot" cx="37.76223776223776" cy="78.46153846153845" r="3" fill="#2563eb"></circle><circle class="dot" cx="39.02097902097902" cy="78.46153846153845" r="3" fill="#2563eb"></circle><circle class="dot" cx="40.27972027972028" cy="78.46153846153845" r="3" fill="#2563eb"></circle><circle class="dot" cx="41.53846153846154" cy="78.46153846153845" r="3" fill="#2563eb"></circle><circle class="dot" cx="42.7972027972028" cy="78.46153846153845" r="3" fill="#2563eb"></circle><circle class="dot" cx="44.05594405594406" cy="78.46153846153845" r="3" fill="#2563eb"></circle><circle class="dot" cx="45.31468531468532" cy="78.46153846153845" r="3" fill="#2563eb"></circle><circle class="dot" cx="46.57342657342657" cy="78.46153846153845" r="3" fill="#2563eb"></circle><circle class="dot" cx="47.83216783216783" cy="78.46153846153845" r="3" fill="#2563eb"></circle><circle class="dot" cx="49.090909090909086" cy="78.46153846153845" r="3" fill="#2563eb"></circle><circle class="dot" cx="50.349650349650354" cy="78.46153846153845" r="3" fill="#2563eb"></circle><circle class="dot" cx="51.60839160839161" cy="78.46153846153845" r="3" fill="#2563eb"></circle><circle class="dot" cx="52.86713286713287" cy="78.46153846153845" r="3" fill="#2563eb"></circle><circle class="dot" cx="54.12587412587412" cy="78.46153846153845" r="3" fill="#2563eb"></circle><circle class="dot" cx="55.38461538461539" cy="78.46153846153845" r="3" fill="#2563eb"></circle><circle class="dot" cx="56.64335664335665" cy="78.46153846153845" r="3" fill="#2563eb"></circle><circle class="dot" cx="57.9020979020979" cy="78.46153846153845" r="3" fill="#2563eb"></circle><circle class="dot" cx="59.16083916083915" cy="78.46153846153845" r="3" fill="#2563eb"></circle><circle class="dot" cx="60.41958041958042" cy="78.46153846153845" r="3" fill="#2563eb"></circle><circle class="dot" cx="61.67832167832168" cy="78.46153846153845" r="3" fill="#2563eb"></circle><circle class="dot" cx="62.93706293706293" cy="78.46153846153845" r="3" fill="#2563eb"></circle><circle class="dot" cx="64.1958041958042" cy="78.46153846153845" r="3" fill="#2563eb"></circle><circle class="dot" cx="65.45454545454545" cy="78.46153846153845" r="3" fill="#2563eb"></circle><circle class="dot" cx="66.7132867132867" cy="78.46153846153845" r="3" fill="#2563eb"></circle><circle class="dot" cx="67.97202797202797" cy="78.46153846153845" r="3" fill="#2563eb"></circle><circle class="dot" cx="69.23076923076924" cy="78.46153846153845" r="3" fill="#2563eb"></circle><circle class="dot" cx="70.4895104895105" cy="78.46153846153845" r="3" fill="#2563eb"></circle><circle class="dot" cx="71.74825174825175" cy="78.46153846153845" r="3" fill="#2563eb"></circle><circle class="dot" cx="73.006993006993" cy="78.46153846153845" r="3" fill="#2563eb"></circle><circle class="dot" cx="74.26573426573427" cy="78.46153846153845" r="3" fill="#2563eb"></circle><circle class="dot" cx="75.52447552447552" cy="78.46153846153845" r="3" fill="#2563eb"></circle><circle class="dot" cx="76.78321678321679" cy="78.46153846153845" r="3" fill="#2563eb"></circle><circle class="dot" cx="78.04195804195804" cy="78.46153846153845" r="3" fill="#2563eb"></circle><circle class="dot" cx="79.3006993006993" cy="78.46153846153845" r="3" fill="#2563eb"></circle><circle class="dot" cx="80.55944055944056" cy="78.46153846153845" r="3" fill="#2563eb"></circle><circle class="dot" cx="81.81818181818181" cy="78.46153846153845" r="3" fill="#2563eb"></circle><circle class="dot" cx="83.07692307692308" cy="78.46153846153845" r="3" fill="#2563eb"></circle><circle class="dot" cx="84.33566433566433" cy="78.46153846153845" r="3" fill="#2563eb"></circle><circle class="dot" cx="85.5944055944056" cy="78.46153846153845" r="3" fill="#2563eb"></circle><circle class="dot" cx="86.85314685314685" cy="78.46153846153845" r="3" fill="#2563eb"></circle><circle class="dot" cx="88.11188811188812" cy="78.46153846153845" r="3" fill="#2563eb"></circle><circle class="dot" cx="89.37062937062937" cy="78.46153846153845" r="3" fill="#2563eb"></circle><circle class="dot" cx="90.62937062937064" cy="78.46153846153845" r="3" fill="#2563eb"></circle><circle class="dot" cx="91.8881118881119" cy="78.46153846153845" r="3" fill="#2563eb"></circle><circle class="dot" cx="93.14685314685315" cy="78.46153846153845" r="3" fill="#2563eb"></circle><circle class="dot" cx="94.4055944055944" cy="78.46153846153845" r="3" fill="#2563eb"></circle><circle class="dot" cx="95.66433566433567" cy="78.46153846153845" r="3" fill="#2563eb"></circle><circle class="dot" cx="96.92307692307692" cy="78.46153846153845" r="3" fill="#2563eb"></circle><circle class="dot" cx="98.18181818181817" cy="78.46153846153845" r="3" fill="#2563eb"></circle><circle class="dot" cx="99.44055944055943" cy="78.46153846153845" r="3" fill="#2563eb"></circle><circle class="dot" cx="100.69930069930071" cy="78.46153846153845" r="3" fill="#2563eb"></circle><circle class="dot" cx="101.95804195804196" cy="78.46153846153845" r="3" fill="#2563eb"></circle><circle class="dot" cx="103.21678321678321" cy="78.46153846153845" r="3" fill="#2563eb"></circle><circle class="dot" cx="104.47552447552448" cy="78.46153846153845" r="3" fill="#2563eb"></circle><circle class="dot" cx="105.73426573426573" cy="78.46153846153845" r="3" fill="#2563eb"></circle><circle class="dot" cx="106.99300699300699" cy="78.46153846153845" r="3" fill="#2563eb"></circle><circle class="dot" cx="108.25174825174824" cy="78.46153846153845" r="3" fill="#2563eb"></circle><circle class="dot" cx="109.51048951048952" cy="78.46153846153845" r="3" fill="#2563eb"></circle><circle class="dot" cx="110.76923076923077" cy="78.46153846153845" r="3" fill="#2563eb"></circle><circle class="dot" cx="112.02797202797203" cy="78.46153846153845" r="3" fill="#2563eb"></circle><circle class="dot" cx="113.2867132867133" cy="78.46153846153845" r="3" fill="#2563eb"></circle><circle class="dot" cx="114.54545454545455" cy="78.46153846153845" r="3" fill="#2563eb"></circle><circle class="dot" cx="115.8041958041958" cy="78.46153846153845" r="3" fill="#2563eb"></circle><circle class="dot" cx="117.06293706293705" cy="78.46153846153845" r="3" fill="#2563eb"></circle><circle class="dot" cx="118.3216783216783" cy="78.46153846153845" r="3" fill="#2563eb"></circle><circle class="dot" cx="119.58041958041959" cy="78.46153846153845" r="3" fill="#2563eb"></circle><circle class="dot" cx="120.83916083916084" cy="78.46153846153845" r="3" fill="#2563eb"></circle><circle class="dot" cx="122.09790209790211" cy="340" r="3" fill="#2563eb"></circle><circle class="dot" cx="123.35664335664336" cy="340" r="3" fill="#2563eb"></circle><circle class="dot" cx="124.61538461538461" cy="340" r="3" fill="#2563eb"></circle><circle class="dot" cx="125.87412587412587" cy="340" r="3" fill="#2563eb"></circle><circle class="dot" cx="127.13286713286712" cy="340" r="3" fill="#2563eb"></circle><circle class="dot" cx="128.3916083916084" cy="340" r="3" fill="#2563eb"></circle><circle class="dot" cx="129.65034965034965" cy="340" r="3" fill="#2563eb"></circle><circle class="dot" cx="130.9090909090909" cy="340" r="3" fill="#2563eb"></circle><circle class="dot" cx="132.16783216783216" cy="78.46153846153845" r="3" fill="#2563eb"></circle><circle class="dot" cx="133.4265734265734" cy="78.46153846153845" r="3" fill="#2563eb"></circle><circle class="dot" cx="134.6853146853147" cy="78.46153846153845" r="3" fill="#2563eb"></circle><circle class="dot" cx="135.94405594405595" cy="78.46153846153845" r="3" fill="#2563eb"></circle><circle class="dot" cx="137.2027972027972" cy="78.46153846153845" r="3" fill="#2563eb"></circle><circle class="dot" cx="138.46153846153848" cy="78.46153846153845" r="3" fill="#2563eb"></circle><circle class="dot" cx="139.72027972027973" cy="78.46153846153845" r="3" fill="#2563eb"></circle><circle class="dot" cx="140.979020979021" cy="78.46153846153845" r="3" fill="#2563eb"></circle><circle class="dot" cx="142.23776223776224" cy="78.46153846153845" r="3" fill="#2563eb"></circle><circle class="dot" cx="143.4965034965035" cy="78.46153846153845" r="3" fill="#2563eb"></circle><circle class="dot" cx="144.75524475524475" cy="78.46153846153845" r="3" fill="#2563eb"></circle><circle class="dot" cx="146.013986013986" cy="78.46153846153845" r="3" fill="#2563eb"></circle><circle class="dot" cx="147.27272727272728" cy="78.46153846153845" r="3" fill="#2563eb"></circle><circle class="dot" cx="148.53146853146853" cy="78.46153846153845" r="3" fill="#2563eb"></circle><circle class="dot" cx="149.7902097902098" cy="78.46153846153845" r="3" fill="#2563eb"></circle><circle class="dot" cx="151.04895104895104" cy="78.46153846153845" r="3" fill="#2563eb"></circle><circle class="dot" cx="152.3076923076923" cy="78.46153846153845" r="3" fill="#2563eb"></circle><circle class="dot" cx="153.56643356643357" cy="78.46153846153845" r="3" fill="#2563eb"></circle><circle class="dot" cx="154.82517482517483" cy="78.46153846153845" r="3" fill="#2563eb"></circle><circle class="dot" cx="156.08391608391608" cy="78.46153846153845" r="3" fill="#2563eb"></circle><circle class="dot" cx="157.34265734265736" cy="78.46153846153845" r="3" fill="#2563eb"></circle><circle class="dot" cx="158.6013986013986" cy="78.46153846153845" r="3" fill="#2563eb"></circle><circle class="dot" cx="159.86013986013987" cy="78.46153846153845" r="3" fill="#2563eb"></circle><circle class="dot" cx="161.11888111888112" cy="78.46153846153845" r="3" fill="#2563eb"></circle><circle class="dot" cx="162.37762237762237" cy="78.46153846153845" r="3" fill="#2563eb"></circle><circle class="dot" cx="163.63636363636363" cy="78.46153846153845" r="3" fill="#2563eb"></circle><circle class="dot" cx="164.89510489510488" cy="78.46153846153845" r="3" fill="#2563eb"></circle><circle class="dot" cx="166.15384615384616" cy="78.46153846153845" r="3" fill="#2563eb"></circle><circle class="dot" cx="167.4125874125874" cy="78.46153846153845" r="3" fill="#2563eb"></circle><circle class="dot" cx="168.67132867132867" cy="78.46153846153845" r="3" fill="#2563eb"></circle><circle class="dot" cx="169.93006993006992" cy="78.46153846153845" r="3" fill="#2563eb"></circle><circle class="dot" cx="171.1888111888112" cy="78.46153846153845" r="3" fill="#2563eb"></circle><circle class="dot" cx="172.44755244755245" cy="78.46153846153845" r="3" fill="#2563eb"></circle><circle class="dot" cx="173.7062937062937" cy="78.46153846153845" r="3" fill="#2563eb"></circle><circle class="dot" cx="174.96503496503496" cy="78.46153846153845" r="3" fill="#2563eb"></circle><circle class="dot" cx="176.22377622377624" cy="78.46153846153845" r="3" fill="#2563eb"></circle><circle class="dot" cx="177.4825174825175" cy="78.46153846153845" r="3" fill="#2563eb"></circle><circle class="dot" cx="178.74125874125875" cy="78.46153846153845" r="3" fill="#2563eb"></circle><circle class="dot" cx="180" cy="78.46153846153845" r="3" fill="#2563eb"></circle><circle class="dot" cx="181.25874125874128" cy="78.46153846153845" r="3" fill="#2563eb"></circle><circle class="dot" cx="182.5174825174825" cy="78.46153846153845" r="3" fill="#2563eb"></circle><circle class="dot" cx="183.7762237762238" cy="78.46153846153845" r="3" fill="#2563eb"></circle><circle class="dot" cx="185.034965034965" cy="78.46153846153845" r="3" fill="#2563eb"></circle><circle class="dot" cx="186.2937062937063" cy="78.46153846153845" r="3" fill="#2563eb"></circle><circle class="dot" cx="187.55244755244755" cy="78.46153846153845" r="3" fill="#2563eb"></circle><circle class="dot" cx="188.8111888111888" cy="78.46153846153845" r="3" fill="#2563eb"></circle><circle class="dot" cx="190.06993006993008" cy="78.46153846153845" r="3" fill="#2563eb"></circle><circle class="dot" cx="191.32867132867133" cy="78.46153846153845" r="3" fill="#2563eb"></circle><circle class="dot" cx="192.5874125874126" cy="78.46153846153845" r="3" fill="#2563eb"></circle><circle class="dot" cx="193.84615384615384" cy="78.46153846153845" r="3" fill="#2563eb"></circle><circle class="dot" cx="195.10489510489512" cy="78.46153846153845" r="3" fill="#2563eb"></circle><circle class="dot" cx="196.36363636363635" cy="78.46153846153845" r="3" fill="#2563eb"></circle><circle class="dot" cx="197.62237762237763" cy="78.46153846153845" r="3" fill="#2563eb"></circle><circle class="dot" cx="198.88111888111885" cy="78.46153846153845" r="3" fill="#2563eb"></circle><circle class="dot" cx="200.13986013986013" cy="78.46153846153845" r="3" fill="#2563eb"></circle><circle class="dot" cx="201.39860139860141" cy="78.46153846153845" r="3" fill="#2563eb"></circle><circle class="dot" cx="202.65734265734264" cy="78.46153846153845" r="3" fill="#2563eb"></circle><circle class="dot" cx="203.91608391608392" cy="78.46153846153845" r="3" fill="#2563eb"></circle><circle class="dot" cx="205.17482517482517" cy="78.46153846153845" r="3" fill="#2563eb"></circle><circle class="dot" cx="206.43356643356643" cy="78.46153846153845" r="3" fill="#2563eb"></circle><circle class="dot" cx="207.69230769230768" cy="78.46153846153845" r="3" fill="#2563eb"></circle><circle class="dot" cx="208.95104895104896" cy="78.46153846153845" r="3" fill="#2563eb"></circle><circle class="dot" cx="210.2097902097902" cy="78.46153846153845" r="3" fill="#2563eb"></circle><circle class="dot" cx="211.46853146853147" cy="78.46153846153845" r="3" fill="#2563eb"></circle><circle class="dot" cx="212.72727272727275" cy="78.46153846153845" r="3" fill="#2563eb"></circle><circle class="dot" cx="213.98601398601397" cy="78.46153846153845" r="3" fill="#2563eb"></circle><circle class="dot" cx="215.24475524475525" cy="78.46153846153845" r="3" fill="#2563eb"></circle><circle class="dot" cx="216.50349650349648" cy="78.46153846153845" r="3" fill="#2563eb"></circle><circle class="dot" cx="217.76223776223776" cy="78.46153846153845" r="3" fill="#2563eb"></circle><circle class="dot" cx="219.02097902097904" cy="78.46153846153845" r="3" fill="#2563eb"></circle><circle class="dot" cx="220.27972027972027" cy="78.46153846153845" r="3" fill="#2563eb"></circle><circle class="dot" cx="221.53846153846155" cy="78.46153846153845" r="3" fill="#2563eb"></circle><circle class="dot" cx="222.7972027972028" cy="78.46153846153845" r="3" fill="#2563eb"></circle><circle class="dot" cx="224.05594405594405" cy="78.46153846153845" r="3" fill="#2563eb"></circle><circle class="dot" cx="225.3146853146853" cy="78.46153846153845" r="3" fill="#2563eb"></circle><circle class="dot" cx="226.5734265734266" cy="78.46153846153845" r="3" fill="#2563eb"></circle><circle class="dot" cx="227.83216783216784" cy="78.46153846153845" r="3" fill="#2563eb"></circle><circle class="dot" cx="229.0909090909091" cy="78.46153846153845" r="3" fill="#2563eb"></circle><circle class="dot" cx="230.34965034965037" cy="78.46153846153845" r="3" fill="#2563eb"></circle><circle class="dot" cx="231.6083916083916" cy="78.46153846153845" r="3" fill="#2563eb"></circle><circle class="dot" cx="232.86713286713288" cy="78.46153846153845" r="3" fill="#2563eb"></circle><circle class="dot" cx="234.1258741258741" cy="78.46153846153845" r="3" fill="#2563eb"></circle><circle class="dot" cx="235.3846153846154" cy="78.46153846153845" r="3" fill="#2563eb"></circle><circle class="dot" cx="236.6433566433566" cy="78.46153846153845" r="3" fill="#2563eb"></circle><circle class="dot" cx="237.9020979020979" cy="78.46153846153845" r="3" fill="#2563eb"></circle><circle class="dot" cx="239.16083916083917" cy="78.46153846153845" r="3" fill="#2563eb"></circle><circle class="dot" cx="240.4195804195804" cy="78.46153846153845" r="3" fill="#2563eb"></circle><circle class="dot" cx="241.67832167832168" cy="78.46153846153845" r="3" fill="#2563eb"></circle><circle class="dot" cx="242.93706293706293" cy="78.46153846153845" r="3" fill="#2563eb"></circle><circle class="dot" cx="244.19580419580421" cy="78.46153846153845" r="3" fill="#2563eb"></circle><circle class="dot" cx="245.45454545454544" cy="78.46153846153845" r="3" fill="#2563eb"></circle><circle class="dot" cx="246.71328671328672" cy="78.46153846153845" r="3" fill="#2563eb"></circle><circle class="dot" cx="247.972027972028" cy="78.46153846153845" r="3" fill="#2563eb"></circle><circle class="dot" cx="249.23076923076923" cy="78.46153846153845" r="3" fill="#2563eb"></circle><circle class="dot" cx="250.4895104895105" cy="78.46153846153845" r="3" fill="#2563eb"></circle><circle class="dot" cx="251.74825174825173" cy="78.46153846153845" r="3" fill="#2563eb"></circle><circle class="dot" cx="253.006993006993" cy="78.46153846153845" r="3" fill="#2563eb"></circle><circle class="dot" cx="254.26573426573424" cy="78.46153846153845" r="3" fill="#2563eb"></circle><circle class="dot" cx="255.52447552447552" cy="78.46153846153845" r="3" fill="#2563eb"></circle><circle class="dot" cx="256.7832167832168" cy="78.46153846153845" r="3" fill="#2563eb"></circle><circle class="dot" cx="258.041958041958" cy="78.46153846153845" r="3" fill="#2563eb"></circle><circle class="dot" cx="259.3006993006993" cy="78.46153846153845" r="3" fill="#2563eb"></circle><circle class="dot" cx="260.55944055944053" cy="78.46153846153845" r="3" fill="#2563eb"></circle><circle class="dot" cx="261.8181818181818" cy="78.46153846153845" r="3" fill="#2563eb"></circle><circle class="dot" cx="263.07692307692304" cy="78.46153846153845" r="3" fill="#2563eb"></circle><circle class="dot" cx="264.3356643356643" cy="78.46153846153845" r="3" fill="#2563eb"></circle><circle class="dot" cx="265.5944055944056" cy="78.46153846153845" r="3" fill="#2563eb"></circle><circle class="dot" cx="266.8531468531468" cy="78.46153846153845" r="3" fill="#2563eb"></circle><circle class="dot" cx="268.1118881118881" cy="78.46153846153845" r="3" fill="#2563eb"></circle><circle class="dot" cx="269.3706293706294" cy="78.46153846153845" r="3" fill="#2563eb"></circle><circle class="dot" cx="270.6293706293706" cy="78.46153846153845" r="3" fill="#2563eb"></circle><circle class="dot" cx="271.8881118881119" cy="78.46153846153845" r="3" fill="#2563eb"></circle><circle class="dot" cx="273.1468531468532" cy="78.46153846153845" r="3" fill="#2563eb"></circle><circle class="dot" cx="274.4055944055944" cy="78.46153846153845" r="3" fill="#2563eb"></circle><circle class="dot" cx="275.6643356643357" cy="78.46153846153845" r="3" fill="#2563eb"></circle><circle class="dot" cx="276.92307692307696" cy="78.46153846153845" r="3" fill="#2563eb"></circle><circle class="dot" cx="278.1818181818182" cy="78.46153846153845" r="3" fill="#2563eb"></circle><circle class="dot" cx="279.44055944055947" cy="78.46153846153845" r="3" fill="#2563eb"></circle><circle class="dot" cx="280.6993006993007" cy="78.46153846153845" r="3" fill="#2563eb"></circle><circle class="dot" cx="281.958041958042" cy="78.46153846153845" r="3" fill="#2563eb"></circle><circle class="dot" cx="283.2167832167832" cy="78.46153846153845" r="3" fill="#2563eb"></circle><circle class="dot" cx="284.4755244755245" cy="78.46153846153845" r="3" fill="#2563eb"></circle><circle class="dot" cx="285.73426573426576" cy="78.46153846153845" r="3" fill="#2563eb"></circle><circle class="dot" cx="286.993006993007" cy="78.46153846153845" r="3" fill="#2563eb"></circle><circle class="dot" cx="288.25174825174827" cy="78.46153846153845" r="3" fill="#2563eb"></circle><circle class="dot" cx="289.5104895104895" cy="78.46153846153845" r="3" fill="#2563eb"></circle><circle class="dot" cx="290.7692307692308" cy="78.46153846153845" r="3" fill="#2563eb"></circle><circle class="dot" cx="292.027972027972" cy="78.46153846153845" r="3" fill="#2563eb"></circle><circle class="dot" cx="293.2867132867133" cy="78.46153846153845" r="3" fill="#2563eb"></circle><circle class="dot" cx="294.54545454545456" cy="78.46153846153845" r="3" fill="#2563eb"></circle><circle class="dot" cx="295.8041958041958" cy="78.46153846153845" r="3" fill="#2563eb"></circle><circle class="dot" cx="297.06293706293707" cy="78.46153846153845" r="3" fill="#2563eb"></circle><circle class="dot" cx="298.3216783216783" cy="78.46153846153845" r="3" fill="#2563eb"></circle><circle class="dot" cx="299.5804195804196" cy="78.46153846153845" r="3" fill="#2563eb"></circle><circle class="dot" cx="300.8391608391608" cy="78.46153846153845" r="3" fill="#2563eb"></circle><circle class="dot" cx="302.0979020979021" cy="78.46153846153845" r="3" fill="#2563eb"></circle><circle class="dot" cx="303.35664335664336" cy="78.46153846153845" r="3" fill="#2563eb"></circle><circle class="dot" cx="304.6153846153846" cy="78.46153846153845" r="3" fill="#2563eb"></circle><circle class="dot" cx="305.87412587412587" cy="78.46153846153845" r="3" fill="#2563eb"></circle><circle class="dot" cx="307.13286713286715" cy="78.46153846153845" r="3" fill="#2563eb"></circle><circle class="dot" cx="308.39160839160843" cy="78.46153846153845" r="3" fill="#2563eb"></circle><circle class="dot" cx="309.65034965034965" cy="78.46153846153845" r="3" fill="#2563eb"></circle><circle class="dot" cx="310.90909090909093" cy="78.46153846153845" r="3" fill="#2563eb"></circle><circle class="dot" cx="312.16783216783216" cy="78.46153846153845" r="3" fill="#2563eb"></circle><circle class="dot" cx="313.42657342657344" cy="78.46153846153845" r="3" fill="#2563eb"></circle><circle class="dot" cx="314.6853146853147" cy="78.46153846153845" r="3" fill="#2563eb"></circle><circle class="dot" cx="315.94405594405595" cy="78.46153846153845" r="3" fill="#2563eb"></circle><circle class="dot" cx="317.2027972027972" cy="78.46153846153845" r="3" fill="#2563eb"></circle><circle class="dot" cx="318.46153846153845" cy="78.46153846153845" r="3" fill="#2563eb"></circle><circle class="dot" cx="319.72027972027973" cy="78.46153846153845" r="3" fill="#2563eb"></circle><circle class="dot" cx="320.97902097902096" cy="78.46153846153845" r="3" fill="#2563eb"></circle><circle class="dot" cx="322.23776223776224" cy="78.46153846153845" r="3" fill="#2563eb"></circle><circle class="dot" cx="323.4965034965035" cy="78.46153846153845" r="3" fill="#2563eb"></circle><circle class="dot" cx="324.75524475524475" cy="78.46153846153845" r="3" fill="#2563eb"></circle><circle class="dot" cx="326.013986013986" cy="78.46153846153845" r="3" fill="#2563eb"></circle><circle class="dot" cx="327.27272727272725" cy="78.46153846153845" r="3" fill="#2563eb"></circle><circle class="dot" cx="328.53146853146853" cy="78.46153846153845" r="3" fill="#2563eb"></circle><circle class="dot" cx="329.79020979020976" cy="78.46153846153845" r="3" fill="#2563eb"></circle><circle class="dot" cx="331.04895104895104" cy="78.46153846153845" r="3" fill="#2563eb"></circle><circle class="dot" cx="332.3076923076923" cy="78.46153846153845" r="3" fill="#2563eb"></circle><circle class="dot" cx="333.56643356643355" cy="78.46153846153845" r="3" fill="#2563eb"></circle><circle class="dot" cx="334.8251748251748" cy="78.46153846153845" r="3" fill="#2563eb"></circle><circle class="dot" cx="336.08391608391605" cy="78.46153846153845" r="3" fill="#2563eb"></circle><circle class="dot" cx="337.34265734265733" cy="78.46153846153845" r="3" fill="#2563eb"></circle><circle class="dot" cx="338.6013986013986" cy="78.46153846153845" r="3" fill="#2563eb"></circle><circle class="dot" cx="339.86013986013984" cy="78.46153846153845" r="3" fill="#2563eb"></circle><circle class="dot" cx="341.1188811188811" cy="78.46153846153845" r="3" fill="#2563eb"></circle><circle class="dot" cx="342.3776223776224" cy="78.46153846153845" r="3" fill="#2563eb"></circle><circle class="dot" cx="343.6363636363636" cy="78.46153846153845" r="3" fill="#2563eb"></circle><circle class="dot" cx="344.8951048951049" cy="78.46153846153845" r="3" fill="#2563eb"></circle><circle class="dot" cx="346.1538461538462" cy="78.46153846153845" r="3" fill="#2563eb"></circle><circle class="dot" cx="347.4125874125874" cy="78.46153846153845" r="3" fill="#2563eb"></circle><circle class="dot" cx="348.6713286713287" cy="78.46153846153845" r="3" fill="#2563eb"></circle><circle class="dot" cx="349.9300699300699" cy="78.46153846153845" r="3" fill="#2563eb"></circle><circle class="dot" cx="351.1888111888112" cy="78.46153846153845" r="3" fill="#2563eb"></circle><circle class="dot" cx="352.4475524475525" cy="78.46153846153845" r="3" fill="#2563eb"></circle><circle class="dot" cx="353.7062937062937" cy="78.46153846153845" r="3" fill="#2563eb"></circle><circle class="dot" cx="354.965034965035" cy="78.46153846153845" r="3" fill="#2563eb"></circle><circle class="dot" cx="356.2237762237762" cy="78.46153846153845" r="3" fill="#2563eb"></circle><circle class="dot" cx="357.4825174825175" cy="78.46153846153845" r="3" fill="#2563eb"></circle><circle class="dot" cx="358.7412587412587" cy="78.46153846153845" r="3" fill="#2563eb"></circle><circle class="dot" cx="360" cy="78.46153846153845" r="3" fill="#2563eb"></circle><circle class="dot" cx="361.2587412587413" cy="78.46153846153845" r="3" fill="#2563eb"></circle><circle class="dot" cx="362.51748251748256" cy="78.46153846153845" r="3" fill="#2563eb"></circle><circle class="dot" cx="363.77622377622373" cy="78.46153846153845" r="3" fill="#2563eb"></circle><circle class="dot" cx="365.034965034965" cy="78.46153846153845" r="3" fill="#2563eb"></circle><circle class="dot" cx="366.2937062937063" cy="78.46153846153845" r="3" fill="#2563eb"></circle><circle class="dot" cx="367.5524475524476" cy="78.46153846153845" r="3" fill="#2563eb"></circle><circle class="dot" cx="368.8111888111888" cy="78.46153846153845" r="3" fill="#2563eb"></circle><circle class="dot" cx="370.06993006993" cy="78.46153846153845" r="3" fill="#2563eb"></circle><circle class="dot" cx="371.3286713286713" cy="78.46153846153845" r="3" fill="#2563eb"></circle><circle class="dot" cx="372.5874125874126" cy="78.46153846153845" r="3" fill="#2563eb"></circle><circle class="dot" cx="373.84615384615387" cy="78.46153846153845" r="3" fill="#2563eb"></circle><circle class="dot" cx="375.1048951048951" cy="78.46153846153845" r="3" fill="#2563eb"></circle><circle class="dot" cx="376.3636363636364" cy="78.46153846153845" r="3" fill="#2563eb"></circle><circle class="dot" cx="377.6223776223776" cy="78.46153846153845" r="3" fill="#2563eb"></circle><circle class="dot" cx="378.8811188811189" cy="78.46153846153845" r="3" fill="#2563eb"></circle><circle class="dot" cx="380.13986013986016" cy="78.46153846153845" r="3" fill="#2563eb"></circle><circle class="dot" cx="381.3986013986014" cy="78.46153846153845" r="3" fill="#2563eb"></circle><circle class="dot" cx="382.65734265734267" cy="78.46153846153845" r="3" fill="#2563eb"></circle><circle class="dot" cx="383.91608391608395" cy="78.46153846153845" r="3" fill="#2563eb"></circle><circle class="dot" cx="385.1748251748252" cy="78.46153846153845" r="3" fill="#2563eb"></circle><circle class="dot" cx="386.4335664335664" cy="78.46153846153845" r="3" fill="#2563eb"></circle><circle class="dot" cx="387.6923076923077" cy="78.46153846153845" r="3" fill="#2563eb"></circle><circle class="dot" cx="388.95104895104896" cy="78.46153846153845" r="3" fill="#2563eb"></circle><circle class="dot" cx="390.20979020979024" cy="78.46153846153845" r="3" fill="#2563eb"></circle><circle class="dot" cx="391.4685314685315" cy="78.46153846153845" r="3" fill="#2563eb"></circle><circle class="dot" cx="392.7272727272727" cy="78.46153846153845" r="3" fill="#2563eb"></circle><circle class="dot" cx="393.986013986014" cy="78.46153846153845" r="3" fill="#2563eb"></circle><circle class="dot" cx="395.24475524475525" cy="78.46153846153845" r="3" fill="#2563eb"></circle><circle class="dot" cx="396.50349650349654" cy="78.46153846153845" r="3" fill="#2563eb"></circle><circle class="dot" cx="397.7622377622377" cy="78.46153846153845" r="3" fill="#2563eb"></circle><circle class="dot" cx="399.020979020979" cy="78.46153846153845" r="3" fill="#2563eb"></circle><circle class="dot" cx="400.27972027972027" cy="78.46153846153845" r="3" fill="#2563eb"></circle><circle class="dot" cx="401.53846153846155" cy="78.46153846153845" r="3" fill="#2563eb"></circle><circle class="dot" cx="402.79720279720283" cy="78.46153846153845" r="3" fill="#2563eb"></circle><circle class="dot" cx="404.055944055944" cy="78.46153846153845" r="3" fill="#2563eb"></circle><circle class="dot" cx="405.3146853146853" cy="78.46153846153845" r="3" fill="#2563eb"></circle><circle class="dot" cx="406.57342657342656" cy="78.46153846153845" r="3" fill="#2563eb"></circle><circle class="dot" cx="407.83216783216784" cy="78.46153846153845" r="3" fill="#2563eb"></circle><circle class="dot" cx="409.0909090909091" cy="78.46153846153845" r="3" fill="#2563eb"></circle><circle class="dot" cx="410.34965034965035" cy="78.46153846153845" r="3" fill="#2563eb"></circle><circle class="dot" cx="411.60839160839157" cy="78.46153846153845" r="3" fill="#2563eb"></circle><circle class="dot" cx="412.86713286713285" cy="78.46153846153845" r="3" fill="#2563eb"></circle><circle class="dot" cx="414.12587412587413" cy="78.46153846153845" r="3" fill="#2563eb"></circle><circle class="dot" cx="415.38461538461536" cy="78.46153846153845" r="3" fill="#2563eb"></circle><circle class="dot" cx="416.64335664335664" cy="78.46153846153845" r="3" fill="#2563eb"></circle><circle class="dot" cx="417.9020979020979" cy="78.46153846153845" r="3" fill="#2563eb"></circle><circle class="dot" cx="419.1608391608392" cy="78.46153846153845" r="3" fill="#2563eb"></circle><circle class="dot" cx="420.4195804195804" cy="78.46153846153845" r="3" fill="#2563eb"></circle><circle class="dot" cx="421.67832167832165" cy="78.46153846153845" r="3" fill="#2563eb"></circle><circle class="dot" cx="422.93706293706293" cy="78.46153846153845" r="3" fill="#2563eb"></circle><circle class="dot" cx="424.1958041958042" cy="78.46153846153845" r="3" fill="#2563eb"></circle><circle class="dot" cx="425.4545454545455" cy="78.46153846153845" r="3" fill="#2563eb"></circle><circle class="dot" cx="426.7132867132868" cy="78.46153846153845" r="3" fill="#2563eb"></circle><circle class="dot" cx="427.97202797202794" cy="78.46153846153845" r="3" fill="#2563eb"></circle><circle class="dot" cx="429.2307692307692" cy="78.46153846153845" r="3" fill="#2563eb"></circle><circle class="dot" cx="430.4895104895105" cy="78.46153846153845" r="3" fill="#2563eb"></circle><circle class="dot" cx="431.7482517482518" cy="78.46153846153845" r="3" fill="#2563eb"></circle><circle class="dot" cx="433.00699300699296" cy="78.46153846153845" r="3" fill="#2563eb"></circle><circle class="dot" cx="434.26573426573424" cy="78.46153846153845" r="3" fill="#2563eb"></circle><circle class="dot" cx="435.5244755244755" cy="78.46153846153845" r="3" fill="#2563eb"></circle><circle class="dot" cx="436.7832167832168" cy="78.46153846153845" r="3" fill="#2563eb"></circle><circle class="dot" cx="438.0419580419581" cy="78.46153846153845" r="3" fill="#2563eb"></circle><circle class="dot" cx="439.30069930069925" cy="78.46153846153845" r="3" fill="#2563eb"></circle><circle class="dot" cx="440.55944055944053" cy="78.46153846153845" r="3" fill="#2563eb"></circle><circle class="dot" cx="441.8181818181818" cy="78.46153846153845" r="3" fill="#2563eb"></circle><circle class="dot" cx="443.0769230769231" cy="78.46153846153845" r="3" fill="#2563eb"></circle><circle class="dot" cx="444.3356643356643" cy="78.46153846153845" r="3" fill="#2563eb"></circle><circle class="dot" cx="445.5944055944056" cy="78.46153846153845" r="3" fill="#2563eb"></circle><circle class="dot" cx="446.8531468531468" cy="78.46153846153845" r="3" fill="#2563eb"></circle><circle class="dot" cx="448.1118881118881" cy="78.46153846153845" r="3" fill="#2563eb"></circle><circle class="dot" cx="449.3706293706294" cy="78.46153846153845" r="3" fill="#2563eb"></circle><circle class="dot" cx="450.6293706293706" cy="78.46153846153845" r="3" fill="#2563eb"></circle><circle class="dot" cx="451.8881118881119" cy="78.46153846153845" r="3" fill="#2563eb"></circle><circle class="dot" cx="453.1468531468532" cy="78.46153846153845" r="3" fill="#2563eb"></circle><circle class="dot" cx="454.4055944055944" cy="78.46153846153845" r="3" fill="#2563eb"></circle><circle class="dot" cx="455.6643356643357" cy="78.46153846153845" r="3" fill="#2563eb"></circle><circle class="dot" cx="456.9230769230769" cy="78.46153846153845" r="3" fill="#2563eb"></circle><circle class="dot" cx="458.1818181818182" cy="78.46153846153845" r="3" fill="#2563eb"></circle><circle class="dot" cx="459.44055944055947" cy="78.46153846153845" r="3" fill="#2563eb"></circle><circle class="dot" cx="460.69930069930075" cy="78.46153846153845" r="3" fill="#2563eb"></circle><circle class="dot" cx="461.9580419580419" cy="78.46153846153845" r="3" fill="#2563eb"></circle><circle class="dot" cx="463.2167832167832" cy="78.46153846153845" r="3" fill="#2563eb"></circle><circle class="dot" cx="464.4755244755245" cy="78.46153846153845" r="3" fill="#2563eb"></circle><circle class="dot" cx="465.73426573426576" cy="78.46153846153845" r="3" fill="#2563eb"></circle><circle class="dot" cx="466.99300699300704" cy="78.46153846153845" r="3" fill="#2563eb"></circle><circle class="dot" cx="468.2517482517482" cy="78.46153846153845" r="3" fill="#2563eb"></circle><circle class="dot" cx="469.5104895104895" cy="78.46153846153845" r="3" fill="#2563eb"></circle><circle class="dot" cx="470.7692307692308" cy="78.46153846153845" r="3" fill="#2563eb"></circle><circle class="dot" cx="472.02797202797206" cy="78.46153846153845" r="3" fill="#2563eb"></circle><circle class="dot" cx="473.2867132867132" cy="78.46153846153845" r="3" fill="#2563eb"></circle><circle class="dot" cx="474.5454545454545" cy="78.46153846153845" r="3" fill="#2563eb"></circle><circle class="dot" cx="475.8041958041958" cy="78.46153846153845" r="3" fill="#2563eb"></circle><circle class="dot" cx="477.06293706293707" cy="78.46153846153845" r="3" fill="#2563eb"></circle><circle class="dot" cx="478.32167832167835" cy="78.46153846153845" r="3" fill="#2563eb"></circle><circle class="dot" cx="479.5804195804196" cy="78.46153846153845" r="3" fill="#2563eb"></circle><circle class="dot" cx="480.8391608391608" cy="78.46153846153845" r="3" fill="#2563eb"></circle><circle class="dot" cx="482.0979020979021" cy="78.46153846153845" r="3" fill="#2563eb"></circle><circle class="dot" cx="483.35664335664336" cy="78.46153846153845" r="3" fill="#2563eb"></circle><circle class="dot" cx="484.61538461538464" cy="78.46153846153845" r="3" fill="#2563eb"></circle><circle class="dot" cx="485.87412587412587" cy="78.46153846153845" r="3" fill="#2563eb"></circle><circle class="dot" cx="487.13286713286715" cy="78.46153846153845" r="3" fill="#2563eb"></circle><circle class="dot" cx="488.39160839160843" cy="78.46153846153845" r="3" fill="#2563eb"></circle><circle class="dot" cx="489.65034965034965" cy="78.46153846153845" r="3" fill="#2563eb"></circle><circle class="dot" cx="490.9090909090909" cy="78.46153846153845" r="3" fill="#2563eb"></circle><circle class="dot" cx="492.16783216783216" cy="78.46153846153845" r="3" fill="#2563eb"></circle><circle class="dot" cx="493.42657342657344" cy="78.46153846153845" r="3" fill="#2563eb"></circle><circle class="dot" cx="494.6853146853147" cy="78.46153846153845" r="3" fill="#2563eb"></circle><circle class="dot" cx="495.944055944056" cy="78.46153846153845" r="3" fill="#2563eb"></circle><circle class="dot" cx="497.20279720279717" cy="78.46153846153845" r="3" fill="#2563eb"></circle><circle class="dot" cx="498.46153846153845" cy="78.46153846153845" r="3" fill="#2563eb"></circle><circle class="dot" cx="499.72027972027973" cy="78.46153846153845" r="3" fill="#2563eb"></circle><circle class="dot" cx="500.979020979021" cy="78.46153846153845" r="3" fill="#2563eb"></circle><circle class="dot" cx="502.2377622377623" cy="78.46153846153845" r="3" fill="#2563eb"></circle><circle class="dot" cx="503.49650349650346" cy="78.46153846153845" r="3" fill="#2563eb"></circle><circle class="dot" cx="504.75524475524475" cy="78.46153846153845" r="3" fill="#2563eb"></circle><circle class="dot" cx="506.013986013986" cy="78.46153846153845" r="3" fill="#2563eb"></circle><circle class="dot" cx="507.2727272727273" cy="78.46153846153845" r="3" fill="#2563eb"></circle><circle class="dot" cx="508.5314685314685" cy="78.46153846153845" r="3" fill="#2563eb"></circle><circle class="dot" cx="509.79020979020976" cy="78.46153846153845" r="3" fill="#2563eb"></circle><circle class="dot" cx="511.04895104895104" cy="78.46153846153845" r="3" fill="#2563eb"></circle><circle class="dot" cx="512.3076923076924" cy="78.46153846153845" r="3" fill="#2563eb"></circle><circle class="dot" cx="513.5664335664336" cy="78.46153846153845" r="3" fill="#2563eb"></circle><circle class="dot" cx="514.8251748251748" cy="78.46153846153845" r="3" fill="#2563eb"></circle><circle class="dot" cx="516.083916083916" cy="13.076923076922993" r="3" fill="#2563eb"></circle><circle class="dot" cx="517.3426573426574" cy="13.076923076922993" r="3" fill="#2563eb"></circle><circle class="dot" cx="518.6013986013986" cy="13.076923076922993" r="3" fill="#2563eb"></circle><circle class="dot" cx="519.8601398601398" cy="13.076923076922993" r="3" fill="#2563eb"></circle><circle class="dot" cx="521.1188811188811" cy="13.076923076922993" r="3" fill="#2563eb"></circle><circle class="dot" cx="522.3776223776224" cy="13.076923076922993" r="3" fill="#2563eb"></circle><circle class="dot" cx="523.6363636363636" cy="13.076923076922993" r="3" fill="#2563eb"></circle><circle class="dot" cx="524.895104895105" cy="13.076923076922993" r="3" fill="#2563eb"></circle><circle class="dot" cx="526.1538461538461" cy="13.076923076922993" r="3" fill="#2563eb"></circle><circle class="dot" cx="527.4125874125874" cy="13.076923076922993" r="3" fill="#2563eb"></circle><circle class="dot" cx="528.6713286713286" cy="13.076923076922993" r="3" fill="#2563eb"></circle><circle class="dot" cx="529.93006993007" cy="13.076923076922993" r="3" fill="#2563eb"></circle><circle class="dot" cx="531.1888111888112" cy="13.076923076922993" r="3" fill="#2563eb"></circle><circle class="dot" cx="532.4475524475524" cy="13.076923076922993" r="3" fill="#2563eb"></circle><circle class="dot" cx="533.7062937062936" cy="13.076923076922993" r="3" fill="#2563eb"></circle><circle class="dot" cx="534.965034965035" cy="13.076923076922993" r="3" fill="#2563eb"></circle><circle class="dot" cx="536.2237762237762" cy="13.076923076922993" r="3" fill="#2563eb"></circle><circle class="dot" cx="537.4825174825174" cy="13.076923076922993" r="3" fill="#2563eb"></circle><circle class="dot" cx="538.7412587412588" cy="13.076923076922993" r="3" fill="#2563eb"></circle><circle class="dot" cx="540" cy="13.076923076922993" r="3" fill="#2563eb"></circle><circle class="dot" cx="541.2587412587412" cy="13.076923076922993" r="3" fill="#2563eb"></circle><circle class="dot" cx="542.5174825174826" cy="13.076923076922993" r="3" fill="#2563eb"></circle><circle class="dot" cx="543.7762237762238" cy="13.076923076922993" r="3" fill="#2563eb"></circle><circle class="dot" cx="545.034965034965" cy="13.076923076922993" r="3" fill="#2563eb"></circle><circle class="dot" cx="546.2937062937064" cy="13.076923076922993" r="3" fill="#2563eb"></circle><circle class="dot" cx="547.5524475524476" cy="13.076923076922993" r="3" fill="#2563eb"></circle><circle class="dot" cx="548.8111888111888" cy="13.076923076922993" r="3" fill="#2563eb"></circle><circle class="dot" cx="550.06993006993" cy="13.076923076922993" r="3" fill="#2563eb"></circle><circle class="dot" cx="551.3286713286714" cy="13.076923076922993" r="3" fill="#2563eb"></circle><circle class="dot" cx="552.5874125874126" cy="13.076923076922993" r="3" fill="#2563eb"></circle><circle class="dot" cx="553.8461538461539" cy="13.076923076922993" r="3" fill="#2563eb"></circle><circle class="dot" cx="555.104895104895" cy="13.076923076922993" r="3" fill="#2563eb"></circle><circle class="dot" cx="556.3636363636364" cy="13.076923076922993" r="3" fill="#2563eb"></circle><circle class="dot" cx="557.6223776223776" cy="13.076923076922993" r="3" fill="#2563eb"></circle><circle class="dot" cx="558.8811188811189" cy="13.076923076922993" r="3" fill="#2563eb"></circle><circle class="dot" cx="560.1398601398602" cy="13.076923076922993" r="3" fill="#2563eb"></circle><circle class="dot" cx="561.3986013986014" cy="13.076923076922993" r="3" fill="#2563eb"></circle><circle class="dot" cx="562.6573426573426" cy="13.076923076922993" r="3" fill="#2563eb"></circle><circle class="dot" cx="563.916083916084" cy="13.076923076922993" r="3" fill="#2563eb"></circle><circle class="dot" cx="565.1748251748252" cy="13.076923076922993" r="3" fill="#2563eb"></circle><circle class="dot" cx="566.4335664335664" cy="13.076923076922993" r="3" fill="#2563eb"></circle><circle class="dot" cx="567.6923076923076" cy="13.076923076922993" r="3" fill="#2563eb"></circle><circle class="dot" cx="568.951048951049" cy="13.076923076922993" r="3" fill="#2563eb"></circle><circle class="dot" cx="570.2097902097902" cy="13.076923076922993" r="3" fill="#2563eb"></circle><circle class="dot" cx="571.4685314685315" cy="13.076923076922993" r="3" fill="#2563eb"></circle><circle class="dot" cx="572.7272727272727" cy="13.076923076922993" r="3" fill="#2563eb"></circle><circle class="dot" cx="573.986013986014" cy="13.076923076922993" r="3" fill="#2563eb"></circle><circle class="dot" cx="575.2447552447552" cy="13.076923076922993" r="3" fill="#2563eb"></circle><circle class="dot" cx="576.5034965034965" cy="13.076923076922993" r="3" fill="#2563eb"></circle><circle class="dot" cx="577.7622377622378" cy="13.076923076922993" r="3" fill="#2563eb"></circle><circle class="dot" cx="579.020979020979" cy="13.076923076922993" r="3" fill="#2563eb"></circle><circle class="dot" cx="580.2797202797203" cy="13.076923076922993" r="3" fill="#2563eb"></circle><circle class="dot" cx="581.5384615384615" cy="13.076923076922993" r="3" fill="#2563eb"></circle><circle class="dot" cx="582.7972027972028" cy="13.076923076922993" r="3" fill="#2563eb"></circle><circle class="dot" cx="584.055944055944" cy="13.076923076922993" r="3" fill="#2563eb"></circle><circle class="dot" cx="585.3146853146853" cy="13.076923076922993" r="3" fill="#2563eb"></circle><circle class="dot" cx="586.5734265734266" cy="13.076923076922993" r="3" fill="#2563eb"></circle><circle class="dot" cx="587.8321678321679" cy="13.076923076922993" r="3" fill="#2563eb"></circle><circle class="dot" cx="589.0909090909091" cy="13.076923076922993" r="3" fill="#2563eb"></circle><circle class="dot" cx="590.3496503496503" cy="13.076923076922993" r="3" fill="#2563eb"></circle><circle class="dot" cx="591.6083916083916" cy="13.076923076922993" r="3" fill="#2563eb"></circle><circle class="dot" cx="592.8671328671329" cy="13.076923076922993" r="3" fill="#2563eb"></circle><circle class="dot" cx="594.1258741258741" cy="13.076923076922993" r="3" fill="#2563eb"></circle><circle class="dot" cx="595.3846153846154" cy="13.076923076922993" r="3" fill="#2563eb"></circle><circle class="dot" cx="596.6433566433566" cy="13.076923076922993" r="3" fill="#2563eb"></circle><circle class="dot" cx="597.9020979020979" cy="13.076923076922993" r="3" fill="#2563eb"></circle><circle class="dot" cx="599.1608391608391" cy="13.076923076922993" r="3" fill="#2563eb"></circle><circle class="dot" cx="600.4195804195805" cy="13.076923076922993" r="3" fill="#2563eb"></circle><circle class="dot" cx="601.6783216783216" cy="13.076923076922993" r="3" fill="#2563eb"></circle><circle class="dot" cx="602.9370629370629" cy="13.076923076922993" r="3" fill="#2563eb"></circle><circle class="dot" cx="604.1958041958042" cy="13.076923076922993" r="3" fill="#2563eb"></circle><circle class="dot" cx="605.4545454545455" cy="13.076923076922993" r="3" fill="#2563eb"></circle><circle class="dot" cx="606.7132867132867" cy="13.076923076922993" r="3" fill="#2563eb"></circle><circle class="dot" cx="607.972027972028" cy="13.076923076922993" r="3" fill="#2563eb"></circle><circle class="dot" cx="609.2307692307692" cy="13.076923076922993" r="3" fill="#2563eb"></circle><circle class="dot" cx="610.4895104895105" cy="13.076923076922993" r="3" fill="#2563eb"></circle><circle class="dot" cx="611.7482517482517" cy="13.076923076922993" r="3" fill="#2563eb"></circle><circle class="dot" cx="613.006993006993" cy="13.076923076922993" r="3" fill="#2563eb"></circle><circle class="dot" cx="614.2657342657343" cy="13.076923076922993" r="3" fill="#2563eb"></circle><circle class="dot" cx="615.5244755244755" cy="13.076923076922993" r="3" fill="#2563eb"></circle><circle class="dot" cx="616.7832167832169" cy="13.076923076922993" r="3" fill="#2563eb"></circle><circle class="dot" cx="618.0419580419581" cy="13.076923076922993" r="3" fill="#2563eb"></circle><circle class="dot" cx="619.3006993006993" cy="13.076923076922993" r="3" fill="#2563eb"></circle><circle class="dot" cx="620.5594405594405" cy="13.076923076922993" r="3" fill="#2563eb"></circle><circle class="dot" cx="621.8181818181819" cy="13.076923076922993" r="3" fill="#2563eb"></circle><circle class="dot" cx="623.0769230769231" cy="13.076923076922993" r="3" fill="#2563eb"></circle><circle class="dot" cx="624.3356643356643" cy="13.076923076922993" r="3" fill="#2563eb"></circle><circle class="dot" cx="625.5944055944055" cy="13.076923076922993" r="3" fill="#2563eb"></circle><circle class="dot" cx="626.8531468531469" cy="13.076923076922993" r="3" fill="#2563eb"></circle><circle class="dot" cx="628.1118881118881" cy="13.076923076922993" r="3" fill="#2563eb"></circle><circle class="dot" cx="629.3706293706294" cy="13.076923076922993" r="3" fill="#2563eb"></circle><circle class="dot" cx="630.6293706293706" cy="13.076923076922993" r="3" fill="#2563eb"></circle><circle class="dot" cx="631.8881118881119" cy="13.076923076922993" r="3" fill="#2563eb"></circle><circle class="dot" cx="633.1468531468531" cy="13.076923076922993" r="3" fill="#2563eb"></circle><circle class="dot" cx="634.4055944055945" cy="13.076923076922993" r="3" fill="#2563eb"></circle><circle class="dot" cx="635.6643356643357" cy="13.076923076922993" r="3" fill="#2563eb"></circle><circle class="dot" cx="636.9230769230769" cy="13.076923076922993" r="3" fill="#2563eb"></circle><circle class="dot" cx="638.1818181818181" cy="13.076923076922993" r="3" fill="#2563eb"></circle><circle class="dot" cx="639.4405594405595" cy="13.076923076922993" r="3" fill="#2563eb"></circle><circle class="dot" cx="640.6993006993007" cy="13.076923076922993" r="3" fill="#2563eb"></circle><circle class="dot" cx="641.9580419580419" cy="13.076923076922993" r="3" fill="#2563eb"></circle><circle class="dot" cx="643.2167832167831" cy="13.076923076922993" r="3" fill="#2563eb"></circle><circle class="dot" cx="644.4755244755245" cy="13.076923076922993" r="3" fill="#2563eb"></circle><circle class="dot" cx="645.7342657342657" cy="13.076923076922993" r="3" fill="#2563eb"></circle><circle class="dot" cx="646.993006993007" cy="13.076923076922993" r="3" fill="#2563eb"></circle><circle class="dot" cx="648.2517482517483" cy="13.076923076922993" r="3" fill="#2563eb"></circle><circle class="dot" cx="649.5104895104895" cy="13.076923076922993" r="3" fill="#2563eb"></circle><circle class="dot" cx="650.7692307692308" cy="13.076923076922993" r="3" fill="#2563eb"></circle><circle class="dot" cx="652.027972027972" cy="13.076923076922993" r="3" fill="#2563eb"></circle><circle class="dot" cx="653.2867132867133" cy="13.076923076922993" r="3" fill="#2563eb"></circle><circle class="dot" cx="654.5454545454545" cy="13.076923076922993" r="3" fill="#2563eb"></circle><circle class="dot" cx="655.8041958041958" cy="13.076923076922993" r="3" fill="#2563eb"></circle><circle class="dot" cx="657.0629370629371" cy="13.076923076922993" r="3" fill="#2563eb"></circle><circle class="dot" cx="658.3216783216784" cy="13.076923076922993" r="3" fill="#2563eb"></circle><circle class="dot" cx="659.5804195804195" cy="13.076923076922993" r="3" fill="#2563eb"></circle><circle class="dot" cx="660.8391608391609" cy="13.076923076922993" r="3" fill="#2563eb"></circle><circle class="dot" cx="662.0979020979021" cy="13.076923076922993" r="3" fill="#2563eb"></circle><circle class="dot" cx="663.3566433566434" cy="13.076923076922993" r="3" fill="#2563eb"></circle><circle class="dot" cx="664.6153846153846" cy="13.076923076922993" r="3" fill="#2563eb"></circle><circle class="dot" cx="665.8741258741259" cy="13.076923076922993" r="3" fill="#2563eb"></circle><circle class="dot" cx="667.1328671328671" cy="13.076923076922993" r="3" fill="#2563eb"></circle><circle class="dot" cx="668.3916083916084" cy="13.076923076922993" r="3" fill="#2563eb"></circle><circle class="dot" cx="669.6503496503497" cy="13.076923076922993" r="3" fill="#2563eb"></circle><circle class="dot" cx="670.9090909090909" cy="13.076923076922993" r="3" fill="#2563eb"></circle><circle class="dot" cx="672.1678321678321" cy="13.076923076922993" r="3" fill="#2563eb"></circle><circle class="dot" cx="673.4265734265734" cy="13.076923076922993" r="3" fill="#2563eb"></circle><circle class="dot" cx="674.6853146853147" cy="13.076923076922993" r="3" fill="#2563eb"></circle><circle class="dot" cx="675.944055944056" cy="13.076923076922993" r="3" fill="#2563eb"></circle><circle class="dot" cx="677.2027972027972" cy="13.076923076922993" r="3" fill="#2563eb"></circle><circle class="dot" cx="678.4615384615385" cy="13.076923076922993" r="3" fill="#2563eb"></circle><circle class="dot" cx="679.7202797202797" cy="13.076923076922993" r="3" fill="#2563eb"></circle><circle class="dot" cx="680.979020979021" cy="13.076923076922993" r="3" fill="#2563eb"></circle><circle class="dot" cx="682.2377622377622" cy="13.076923076922993" r="3" fill="#2563eb"></circle><circle class="dot" cx="683.4965034965035" cy="13.076923076922993" r="3" fill="#2563eb"></circle><circle class="dot" cx="684.7552447552448" cy="13.076923076922993" r="3" fill="#2563eb"></circle><circle class="dot" cx="686.013986013986" cy="13.076923076922993" r="3" fill="#2563eb"></circle><circle class="dot" cx="687.2727272727273" cy="13.076923076922993" r="3" fill="#2563eb"></circle><circle class="dot" cx="688.5314685314685" cy="13.076923076922993" r="3" fill="#2563eb"></circle><circle class="dot" cx="689.7902097902098" cy="13.076923076922993" r="3" fill="#2563eb"></circle><circle class="dot" cx="691.048951048951" cy="13.076923076922993" r="3" fill="#2563eb"></circle><circle class="dot" cx="692.3076923076924" cy="13.076923076922993" r="3" fill="#2563eb"></circle><circle class="dot" cx="693.5664335664336" cy="13.076923076922993" r="3" fill="#2563eb"></circle><circle class="dot" cx="694.8251748251748" cy="13.076923076922993" r="3" fill="#2563eb"></circle><circle class="dot" cx="696.083916083916" cy="13.076923076922993" r="3" fill="#2563eb"></circle><circle class="dot" cx="697.3426573426574" cy="13.076923076922993" r="3" fill="#2563eb"></circle><circle class="dot" cx="698.6013986013986" cy="13.076923076922993" r="3" fill="#2563eb"></circle><circle class="dot" cx="699.8601398601398" cy="13.076923076922993" r="3" fill="#2563eb"></circle><circle class="dot" cx="701.1188811188811" cy="13.076923076922993" r="3" fill="#2563eb"></circle><circle class="dot" cx="702.3776223776224" cy="13.076923076922993" r="3" fill="#2563eb"></circle><circle class="dot" cx="703.6363636363636" cy="13.076923076922993" r="3" fill="#2563eb"></circle><circle class="dot" cx="704.895104895105" cy="13.076923076922993" r="3" fill="#2563eb"></circle><circle class="dot" cx="706.1538461538461" cy="13.076923076922993" r="3" fill="#2563eb"></circle><circle class="dot" cx="707.4125874125874" cy="13.076923076922993" r="3" fill="#2563eb"></circle><circle class="dot" cx="708.6713286713286" cy="13.076923076922993" r="3" fill="#2563eb"></circle><circle class="dot" cx="709.93006993007" cy="13.076923076922993" r="3" fill="#2563eb"></circle><circle class="dot" cx="711.1888111888112" cy="13.076923076922993" r="3" fill="#2563eb"></circle><circle class="dot" cx="712.4475524475524" cy="13.076923076922993" r="3" fill="#2563eb"></circle><circle class="dot" cx="713.7062937062936" cy="13.076923076922993" r="3" fill="#2563eb"></circle><circle class="dot" cx="714.965034965035" cy="13.076923076922993" r="3" fill="#2563eb"></circle><circle class="dot" cx="716.2237762237762" cy="13.076923076922993" r="3" fill="#2563eb"></circle><circle class="dot" cx="717.4825174825174" cy="13.076923076922993" r="3" fill="#2563eb"></circle><circle class="dot" cx="718.7412587412588" cy="13.076923076922993" r="3" fill="#2563eb"></circle><circle class="dot" cx="720" cy="13.076923076922993" r="3" fill="#2563eb"></circle><g class="grid" transform="translate(0,340)" fill="none" font-size="10" font-family="sans-serif" text-anchor="middle" style="stroke-dasharray: 3,3; opacity: 0.3;"><path class="domain" stroke="currentColor" d="M0.5,-340V0.5H720.5V-340"></path><g class="tick" opacity="1" transform="translate(0.5,0)"><line stroke="currentColor" y2="-340"></line><text fill="currentColor" y="3" dy="0.71em"></text></g><g class="tick" opacity="1" transform="translate(30.70979020979021,0)"><line stroke="currentColor" y2="-340"></line><text fill="currentColor" y="3" dy="0.71em"></text></g><g class="tick" opacity="1" transform="translate(60.91958041958042,0)"><line stroke="currentColor" y2="-340"></line><text fill="currentColor" y="3" dy="0.71em"></text></g><g class="tick" opacity="1" transform="translate(91.12937062937064,0)"><line stroke="currentColor" y2="-340"></line><text fill="currentColor" y="3" dy="0.71em"></text></g><g class="tick" opacity="1" transform="translate(121.33916083916084,0)"><line stroke="currentColor" y2="-340"></line><text fill="currentColor" y="3" dy="0.71em"></text></g><g class="tick" opacity="1" transform="translate(151.54895104895104,0)"><line stroke="currentColor" y2="-340"></line><text fill="currentColor" y="3" dy="0.71em"></text></g><g class="tick" opacity="1" transform="translate(181.75874125874128,0)"><line stroke="currentColor" y2="-340"></line><text fill="currentColor" y="3" dy="0.71em"></text></g><g class="tick" opacity="1" transform="translate(211.96853146853147,0)"><line stroke="currentColor" y2="-340"></line><text fill="currentColor" y="3" dy="0.71em"></text></g><g class="tick" opacity="1" transform="translate(242.17832167832168,0)"><line stroke="currentColor" y2="-340"></line><text fill="currentColor" y="3" dy="0.71em"></text></g><g class="tick" opacity="1" transform="translate(272.3881118881119,0)"><line stroke="currentColor" y2="-340"></line><text fill="currentColor" y="3" dy="0.71em"></text></g><g class="tick" opacity="1" transform="translate(302.5979020979021,0)"><line stroke="currentColor" y2="-340"></line><text fill="currentColor" y="3" dy="0.71em"></text></g><g class="tick" opacity="1" transform="translate(332.8076923076923,0)"><line stroke="currentColor" y2="-340"></line><text fill="currentColor" y="3" dy="0.71em"></text></g><g class="tick" opacity="1" transform="translate(363.01748251748256,0)"><line stroke="currentColor" y2="-340"></line><text fill="currentColor" y="3" dy="0.71em"></text></g><g class="tick" opacity="1" transform="translate(393.2272727272727,0)"><line stroke="currentColor" y2="-340"></line><text fill="currentColor" y="3" dy="0.71em"></text></g><g class="tick" opacity="1" transform="translate(423.43706293706293,0)"><line stroke="currentColor" y2="-340"></line><text fill="currentColor" y="3" dy="0.71em"></text></g><g class="tick" opacity="1" transform="translate(453.6468531468532,0)"><line stroke="currentColor" y2="-340"></line><text fill="currentColor" y="3" dy="0.71em"></text></g><g class="tick" opacity="1" transform="translate(483.85664335664336,0)"><line stroke="currentColor" y2="-340"></line><text fill="currentColor" y="3" dy="0.71em"></text></g><g class="tick" opacity="1" transform="translate(514.0664335664336,0)"><line stroke="currentColor" y2="-340"></line><text fill="currentColor" y="3" dy="0.71em"></text></g><g class="tick" opacity="1" transform="translate(544.2762237762238,0)"><line stroke="currentColor" y2="-340"></line><text fill="currentColor" y="3" dy="0.71em"></text></g><g class="tick" opacity="1" transform="translate(574.486013986014,0)"><line stroke="currentColor" y2="-340"></line><text fill="currentColor" y="3" dy="0.71em"></text></g><g class="tick" opacity="1" transform="translate(604.6958041958042,0)"><line stroke="currentColor" y2="-340"></line><text fill="currentColor" y="3" dy="0.71em"></text></g><g class="tick" opacity="1" transform="translate(634.9055944055945,0)"><line stroke="currentColor" y2="-340"></line><text fill="currentColor" y="3" dy="0.71em"></text></g><g class="tick" opacity="1" transform="translate(665.1153846153846,0)"><line stroke="currentColor" y2="-340"></line><text fill="currentColor" y="3" dy="0.71em"></text></g><g class="tick" opacity="1" transform="translate(695.3251748251748,0)"><line stroke="currentColor" y2="-340"></line><text fill="currentColor" y="3" dy="0.71em"></text></g></g><g class="grid" fill="none" font-size="10" font-family="sans-serif" text-anchor="end" style="stroke-dasharray: 3,3; opacity: 0.3;"><path class="domain" stroke="currentColor" d="M720,340.5H0.5V0.5H720"></path><g class="tick" opacity="1" transform="translate(0,340.5)"><line stroke="currentColor" x2="720"></line><text fill="currentColor" x="-3" dy="0.32em"></text></g><g class="tick" opacity="1" transform="translate(0,314.3461538461538)"><line stroke="currentColor" x2="720"></line><text fill="currentColor" x="-3" dy="0.32em"></text></g><g class="tick" opacity="1" transform="translate(0,288.1923076923077)"><line stroke="currentColor" x2="720"></line><text fill="currentColor" x="-3" dy="0.32em"></text></g><g class="tick" opacity="1" transform="translate(0,262.0384615384615)"><line stroke="currentColor" x2="720"></line><text fill="currentColor" x="-3" dy="0.32em"></text></g><g class="tick" opacity="1" transform="translate(0,235.8846153846154)"><line stroke="currentColor" x2="720"></line><text fill="currentColor" x="-3" dy="0.32em"></text></g><g class="tick" opacity="1" transform="translate(0,209.7307692307692)"><line stroke="currentColor" x2="720"></line><text fill="currentColor" x="-3" dy="0.32em"></text></g><g class="tick" opacity="1" transform="translate(0,183.57692307692307)"><line stroke="currentColor" x2="720"></line><text fill="currentColor" x="-3" dy="0.32em"></text></g><g class="tick" opacity="1" transform="translate(0,157.4230769230769)"><line stroke="currentColor" x2="720"></line><text fill="currentColor" x="-3" dy="0.32em"></text></g><g class="tick" opacity="1" transform="translate(0,131.26923076923072)"><line stroke="currentColor" x2="720"></line><text fill="currentColor" x="-3" dy="0.32em"></text></g><g class="tick" opacity="1" transform="translate(0,105.11538461538454)"><line stroke="currentColor" x2="720"></line><text fill="currentColor" x="-3" dy="0.32em"></text></g><g class="tick" opacity="1" transform="translate(0,78.96153846153845)"><line stroke="currentColor" x2="720"></line><text fill="currentColor" x="-3" dy="0.32em"></text></g><g class="tick" opacity="1" transform="translate(0,52.80769230769227)"><line stroke="currentColor" x2="720"></line><text fill="currentColor" x="-3" dy="0.32em"></text></g><g class="tick" opacity="1" transform="translate(0,26.6538461538461)"><line stroke="currentColor" x2="720"></line><text fill="currentColor" x="-3" dy="0.32em"></text></g><g class="tick" opacity="1" transform="translate(0,0.5)"><line stroke="currentColor" x2="720"></line><text fill="currentColor" x="-3" dy="0.32em"></text></g></g></g><text x="400" y="10" text-anchor="middle" style="font-size: 16px; font-weight: bold; fill: #333;">OKX USDT Lending Rate - Current Month</text></svg>