<svg width="800" height="400" xmlns="http://www.w3.org/2000/svg"><g transform="translate(50,20)"><g transform="translate(0,340)" fill="none" font-size="10" font-family="sans-serif" text-anchor="middle"><path class="domain" stroke="currentColor" d="M0.5,6V0.5H720.5V6"></path><g class="tick" opacity="1" transform="translate(0.5,0)"><line stroke="currentColor" y2="6"></line><text fill="currentColor" y="9" dy=".15em" style="text-anchor: end;" dx="-.8em" transform="rotate(-45)">01/01</text></g><g class="tick" opacity="1" transform="translate(86.89999999999999,0)"><line stroke="currentColor" y2="6"></line><text fill="currentColor" y="9" dy=".15em" style="text-anchor: end;" dx="-.8em" transform="rotate(-45)">01/02</text></g><g class="tick" opacity="1" transform="translate(173.29999999999998,0)"><line stroke="currentColor" y2="6"></line><text fill="currentColor" y="9" dy=".15em" style="text-anchor: end;" dx="-.8em" transform="rotate(-45)">01/03</text></g><g class="tick" opacity="1" transform="translate(259.7,0)"><line stroke="currentColor" y2="6"></line><text fill="currentColor" y="9" dy=".15em" style="text-anchor: end;" dx="-.8em" transform="rotate(-45)">01/04</text></g><g class="tick" opacity="1" transform="translate(346.09999999999997,0)"><line stroke="currentColor" y2="6"></line><text fill="currentColor" y="9" dy=".15em" style="text-anchor: end;" dx="-.8em" transform="rotate(-45)">01/05</text></g><g class="tick" opacity="1" transform="translate(432.5,0)"><line stroke="currentColor" y2="6"></line><text fill="currentColor" y="9" dy=".15em" style="text-anchor: end;" dx="-.8em" transform="rotate(-45)">01/06</text></g><g class="tick" opacity="1" transform="translate(518.9,0)"><line stroke="currentColor" y2="6"></line><text fill="currentColor" y="9" dy=".15em" style="text-anchor: end;" dx="-.8em" transform="rotate(-45)">01/07</text></g><g class="tick" opacity="1" transform="translate(605.3,0)"><line stroke="currentColor" y2="6"></line><text fill="currentColor" y="9" dy=".15em" style="text-anchor: end;" dx="-.8em" transform="rotate(-45)">01/08</text></g><g class="tick" opacity="1" transform="translate(691.6999999999999,0)"><line stroke="currentColor" y2="6"></line><text fill="currentColor" y="9" dy=".15em" style="text-anchor: end;" dx="-.8em" transform="rotate(-45)">01/09</text></g></g><g fill="none" font-size="10" font-family="sans-serif" text-anchor="end"><path class="domain" stroke="currentColor" d="M-6,340.5H0.5V0.5H-6"></path><g class="tick" opacity="1" transform="translate(0,170.5)"><line stroke="currentColor" x2="-6"></line><text fill="currentColor" x="-9" dy="0.32em">3.20%</text></g></g><text transform="rotate(-90)" y="-50" x="-170" dy="1em" style="text-anchor: middle; font-size: 12px; fill: #666;">Pre Rate (%)</text><text transform="translate(360, 380)" style="text-anchor: middle; font-size: 12px; fill: #666;">Time (UTC)</text><path fill="none" stroke="#2563eb" stroke-width="2" d="M0,170C1.2,170,2.4,170,3.6,170C4.8,170,6,170,7.2,170C8.4,170,9.6,170,10.8,170C12,170,13.2,170,14.4,170C15.6,170,16.8,170,18,170C19.2,170,20.4,170,21.6,170C22.8,170,24,170,25.2,170C26.4,170,27.6,170,28.8,170C30,170,31.2,170,32.4,170C33.6,170,34.8,170,36,170C37.2,170,38.4,170,39.6,170C40.8,170,42,170,43.2,170C44.4,170,45.6,170,46.8,170C48,170,49.2,170,50.4,170C51.6,170,52.8,170,54,170C55.2,170,56.4,170,57.6,170C58.8,170,60,170,61.2,170C62.4,170,63.6,170,64.8,170C66,170,67.2,170,68.4,170C69.6,170,70.8,170,72,170C73.2,170,74.4,170,75.6,170C76.8,170,78,170,79.2,170C80.4,170,81.6,170,82.8,170C84,170,85.2,170,86.4,170C87.6,170,88.8,170,90,170C91.2,170,92.4,170,93.6,170C94.8,170,96,170,97.2,170C98.4,170,99.6,170,100.8,170C102,170,103.2,170,104.4,170C105.6,170,106.8,170,108,170C109.2,170,110.4,170,111.6,170C112.8,170,114,170,115.2,170C116.4,170,117.6,170,118.8,170C120,170,121.2,170,122.4,170C123.6,170,124.8,170,126,170C127.2,170,128.4,170,129.6,170C130.8,170,132,170,133.2,170C134.4,170,135.6,170,136.8,170C138,170,139.2,170,140.4,170C141.6,170,142.8,170,144,170C145.2,170,146.4,170,147.6,170C148.8,170,150,170,151.2,170C152.4,170,153.6,170,154.8,170C156,170,157.2,170,158.4,170C159.6,170,160.8,170,162,170C163.2,170,164.4,170,165.6,170C166.8,170,168,170,169.2,170C170.4,170,171.6,170,172.8,170C174,170,175.2,170,176.4,170C177.6,170,178.8,170,180,170C181.2,170,182.4,170,183.6,170C184.8,170,186,170,187.2,170C188.4,170,189.6,170,190.8,170C192,170,193.2,170,194.4,170C195.6,170,196.8,170,198,170C199.2,170,200.4,170,201.6,170C202.8,170,204,170,205.2,170C206.4,170,207.6,170,208.8,170C210,170,211.2,170,212.4,170C213.6,170,214.8,170,216,170C217.2,170,218.4,170,219.6,170C220.8,170,222,170,223.2,170C224.4,170,225.6,170,226.8,170C228,170,229.2,170,230.4,170C231.6,170,232.8,170,234,170C235.2,170,236.4,170,237.6,170C238.8,170,240,170,241.2,170C242.4,170,243.6,170,244.8,170C246,170,247.2,170,248.4,170C249.6,170,250.8,170,252,170C253.2,170,254.4,170,255.6,170C256.8,170,258,170,259.2,170C260.4,170,261.6,170,262.8,170C264,170,265.2,170,266.4,170C267.6,170,268.8,170,270,170C271.2,170,272.4,170,273.6,170C274.8,170,276,170,277.2,170C278.4,170,279.6,170,280.8,170C282,170,283.2,170,284.4,170C285.6,170,286.8,170,288,170C289.2,170,290.4,170,291.6,170C292.8,170,294,170,295.2,170C296.4,170,297.6,170,298.8,170C300,170,301.2,170,302.4,170C303.6,170,304.8,170,306,170C307.2,170,308.4,170,309.6,170C310.8,170,312,170,313.2,170C314.4,170,315.6,170,316.8,170C318,170,319.2,170,320.4,170C321.6,170,322.8,170,324,170C325.2,170,326.4,170,327.6,170C328.8,170,330,170,331.2,170C332.4,170,333.6,170,334.8,170C336,170,337.2,170,338.4,170C339.6,170,340.8,170,342,170C343.2,170,344.4,170,345.6,170C346.8,170,348,170,349.2,170C350.4,170,351.6,170,352.8,170C354,170,355.2,170,356.4,170C357.6,170,358.8,170,360,170C361.2,170,362.4,170,363.6,170C364.8,170,366,170,367.2,170C368.4,170,369.6,170,370.8,170C372,170,373.2,170,374.4,170C375.6,170,376.8,170,378,170C379.2,170,380.4,170,381.6,170C382.8,170,384,170,385.2,170C386.4,170,387.6,170,388.8,170C390,170,391.2,170,392.4,170C393.6,170,394.8,170,396,170C397.2,170,398.4,170,399.6,170C400.8,170,402,170,403.2,170C404.4,170,405.6,170,406.8,170C408,170,409.2,170,410.4,170C411.6,170,412.8,170,414,170C415.2,170,416.4,170,417.6,170C418.8,170,420,170,421.2,170C422.4,170,423.6,170,424.8,170C426,170,427.2,170,428.4,170C429.6,170,430.8,170,432,170C433.2,170,434.4,170,435.6,170C436.8,170,438,170,439.2,170C440.4,170,441.6,170,442.8,170C444,170,445.2,170,446.4,170C447.6,170,448.8,170,450,170C451.2,170,452.4,170,453.6,170C454.8,170,456,170,457.2,170C458.4,170,459.6,170,460.8,170C462,170,463.2,170,464.4,170C465.6,170,466.8,170,468,170C469.2,170,470.4,170,471.6,170C472.8,170,474,170,475.2,170C476.4,170,477.6,170,478.8,170C480,170,481.2,170,482.4,170C483.6,170,484.8,170,486,170C487.2,170,488.4,170,489.6,170C490.8,170,492,170,493.2,170C494.4,170,495.6,170,496.8,170C498,170,499.2,170,500.4,170C501.6,170,502.8,170,504,170C505.2,170,506.4,170,507.6,170C508.8,170,510,170,511.2,170C512.4,170,513.6,170,514.8,170C516,170,517.2,170,518.4,170C519.6,170,520.8,170,522,170C523.2,170,524.4,170,525.6,170C526.8,170,528,170,529.2,170C530.4,170,531.6,170,532.8,170C534,170,535.2,170,536.4,170C537.6,170,538.8,170,540,170C541.2,170,542.4,170,543.6,170C544.8,170,546,170,547.2,170C548.4,170,549.6,170,550.8,170C552,170,553.2,170,554.4,170C555.6,170,556.8,170,558,170C559.2,170,560.4,170,561.6,170C562.8,170,564,170,565.2,170C566.4,170,567.6,170,568.8,170C570,170,571.2,170,572.4,170C573.6,170,574.8,170,576,170C577.2,170,578.4,170,579.6,170C580.8,170,582,170,583.2,170C584.4,170,585.6,170,586.8,170C588,170,589.2,170,590.4,170C591.6,170,592.8,170,594,170C595.2,170,596.4,170,597.6,170C598.8,170,600,170,601.2,170C602.4,170,603.6,170,604.8,170C606,170,607.2,170,608.4,170C609.6,170,610.8,170,612,170C613.2,170,614.4,170,615.6,170C616.8,170,618,170,619.2,170C620.4,170,621.6,170,622.8,170C624,170,625.2,170,626.4,170C627.6,170,628.8,170,630,170C631.2,170,632.4,170,633.6,170C634.8,170,636,170,637.2,170C638.4,170,639.6,170,640.8,170C642,170,643.2,170,644.4,170C645.6,170,646.8,170,648,170C649.2,170,650.4,170,651.6,170C652.8,170,654,170,655.2,170C656.4,170,657.6,170,658.8,170C660,170,661.2,170,662.4,170C663.6,170,664.8,170,666,170C667.2,170,668.4,170,669.6,170C670.8,170,672,170,673.2,170C674.4,170,675.6,170,676.8,170C678,170,679.2,170,680.4,170C681.6,170,682.8,170,684,170C685.2,170,686.4,170,687.6,170C688.8,170,690,170,691.2,170C692.4,170,693.6,170,694.8,170C696,170,697.2,170,698.4,170C699.6,170,700.8,170,702,170C703.2,170,704.4,170,705.6,170C706.8,170,708,170,709.2,170C710.4,170,711.6,170,712.8,170C714,170,715.2,170,716.4,170C717.6,170,718.8,170,720,170"></path><circle class="dot" cx="0" cy="170" r="3" fill="#2563eb"></circle><circle class="dot" cx="3.6" cy="170" r="3" fill="#2563eb"></circle><circle class="dot" cx="7.2" cy="170" r="3" fill="#2563eb"></circle><circle class="dot" cx="10.799999999999999" cy="170" r="3" fill="#2563eb"></circle><circle class="dot" cx="14.4" cy="170" r="3" fill="#2563eb"></circle><circle class="dot" cx="18" cy="170" r="3" fill="#2563eb"></circle><circle class="dot" cx="21.599999999999998" cy="170" r="3" fill="#2563eb"></circle><circle class="dot" cx="25.200000000000003" cy="170" r="3" fill="#2563eb"></circle><circle class="dot" cx="28.8" cy="170" r="3" fill="#2563eb"></circle><circle class="dot" cx="32.4" cy="170" r="3" fill="#2563eb"></circle><circle class="dot" cx="36" cy="170" r="3" fill="#2563eb"></circle><circle class="dot" cx="39.6" cy="170" r="3" fill="#2563eb"></circle><circle class="dot" cx="43.199999999999996" cy="170" r="3" fill="#2563eb"></circle><circle class="dot" cx="46.800000000000004" cy="170" r="3" fill="#2563eb"></circle><circle class="dot" cx="50.400000000000006" cy="170" r="3" fill="#2563eb"></circle><circle class="dot" cx="54" cy="170" r="3" fill="#2563eb"></circle><circle class="dot" cx="57.6" cy="170" r="3" fill="#2563eb"></circle><circle class="dot" cx="61.2" cy="170" r="3" fill="#2563eb"></circle><circle class="dot" cx="64.8" cy="170" r="3" fill="#2563eb"></circle><circle class="dot" cx="68.4" cy="170" r="3" fill="#2563eb"></circle><circle class="dot" cx="72" cy="170" r="3" fill="#2563eb"></circle><circle class="dot" cx="75.6" cy="170" r="3" fill="#2563eb"></circle><circle class="dot" cx="79.2" cy="170" r="3" fill="#2563eb"></circle><circle class="dot" cx="82.8" cy="170" r="3" fill="#2563eb"></circle><circle class="dot" cx="86.39999999999999" cy="170" r="3" fill="#2563eb"></circle><circle class="dot" cx="90" cy="170" r="3" fill="#2563eb"></circle><circle class="dot" cx="93.60000000000001" cy="170" r="3" fill="#2563eb"></circle><circle class="dot" cx="97.2" cy="170" r="3" fill="#2563eb"></circle><circle class="dot" cx="100.80000000000001" cy="170" r="3" fill="#2563eb"></circle><circle class="dot" cx="104.39999999999999" cy="170" r="3" fill="#2563eb"></circle><circle class="dot" cx="108" cy="170" r="3" fill="#2563eb"></circle><circle class="dot" cx="111.6" cy="170" r="3" fill="#2563eb"></circle><circle class="dot" cx="115.2" cy="170" r="3" fill="#2563eb"></circle><circle class="dot" cx="118.80000000000001" cy="170" r="3" fill="#2563eb"></circle><circle class="dot" cx="122.4" cy="170" r="3" fill="#2563eb"></circle><circle class="dot" cx="125.99999999999999" cy="170" r="3" fill="#2563eb"></circle><circle class="dot" cx="129.6" cy="170" r="3" fill="#2563eb"></circle><circle class="dot" cx="133.2" cy="170" r="3" fill="#2563eb"></circle><circle class="dot" cx="136.8" cy="170" r="3" fill="#2563eb"></circle><circle class="dot" cx="140.4" cy="170" r="3" fill="#2563eb"></circle><circle class="dot" cx="144" cy="170" r="3" fill="#2563eb"></circle><circle class="dot" cx="147.6" cy="170" r="3" fill="#2563eb"></circle><circle class="dot" cx="151.2" cy="170" r="3" fill="#2563eb"></circle><circle class="dot" cx="154.8" cy="170" r="3" fill="#2563eb"></circle><circle class="dot" cx="158.4" cy="170" r="3" fill="#2563eb"></circle><circle class="dot" cx="162" cy="170" r="3" fill="#2563eb"></circle><circle class="dot" cx="165.6" cy="170" r="3" fill="#2563eb"></circle><circle class="dot" cx="169.2" cy="170" r="3" fill="#2563eb"></circle><circle class="dot" cx="172.79999999999998" cy="170" r="3" fill="#2563eb"></circle><circle class="dot" cx="176.4" cy="170" r="3" fill="#2563eb"></circle><circle class="dot" cx="180" cy="170" r="3" fill="#2563eb"></circle><circle class="dot" cx="183.6" cy="170" r="3" fill="#2563eb"></circle><circle class="dot" cx="187.20000000000002" cy="170" r="3" fill="#2563eb"></circle><circle class="dot" cx="190.8" cy="170" r="3" fill="#2563eb"></circle><circle class="dot" cx="194.4" cy="170" r="3" fill="#2563eb"></circle><circle class="dot" cx="198.00000000000003" cy="170" r="3" fill="#2563eb"></circle><circle class="dot" cx="201.60000000000002" cy="170" r="3" fill="#2563eb"></circle><circle class="dot" cx="205.2" cy="170" r="3" fill="#2563eb"></circle><circle class="dot" cx="208.79999999999998" cy="170" r="3" fill="#2563eb"></circle><circle class="dot" cx="212.39999999999998" cy="170" r="3" fill="#2563eb"></circle><circle class="dot" cx="216" cy="170" r="3" fill="#2563eb"></circle><circle class="dot" cx="219.6" cy="170" r="3" fill="#2563eb"></circle><circle class="dot" cx="223.2" cy="170" r="3" fill="#2563eb"></circle><circle class="dot" cx="226.8" cy="170" r="3" fill="#2563eb"></circle><circle class="dot" cx="230.4" cy="170" r="3" fill="#2563eb"></circle><circle class="dot" cx="234" cy="170" r="3" fill="#2563eb"></circle><circle class="dot" cx="237.60000000000002" cy="170" r="3" fill="#2563eb"></circle><circle class="dot" cx="241.20000000000002" cy="170" r="3" fill="#2563eb"></circle><circle class="dot" cx="244.8" cy="170" r="3" fill="#2563eb"></circle><circle class="dot" cx="248.39999999999998" cy="170" r="3" fill="#2563eb"></circle><circle class="dot" cx="251.99999999999997" cy="170" r="3" fill="#2563eb"></circle><circle class="dot" cx="255.6" cy="170" r="3" fill="#2563eb"></circle><circle class="dot" cx="259.2" cy="170" r="3" fill="#2563eb"></circle><circle class="dot" cx="262.8" cy="170" r="3" fill="#2563eb"></circle><circle class="dot" cx="266.4" cy="170" r="3" fill="#2563eb"></circle><circle class="dot" cx="270" cy="170" r="3" fill="#2563eb"></circle><circle class="dot" cx="273.6" cy="170" r="3" fill="#2563eb"></circle><circle class="dot" cx="277.2" cy="170" r="3" fill="#2563eb"></circle><circle class="dot" cx="280.8" cy="170" r="3" fill="#2563eb"></circle><circle class="dot" cx="284.40000000000003" cy="170" r="3" fill="#2563eb"></circle><circle class="dot" cx="288" cy="170" r="3" fill="#2563eb"></circle><circle class="dot" cx="291.6" cy="170" r="3" fill="#2563eb"></circle><circle class="dot" cx="295.2" cy="170" r="3" fill="#2563eb"></circle><circle class="dot" cx="298.8" cy="170" r="3" fill="#2563eb"></circle><circle class="dot" cx="302.4" cy="170" r="3" fill="#2563eb"></circle><circle class="dot" cx="306" cy="170" r="3" fill="#2563eb"></circle><circle class="dot" cx="309.6" cy="170" r="3" fill="#2563eb"></circle><circle class="dot" cx="313.2" cy="170" r="3" fill="#2563eb"></circle><circle class="dot" cx="316.8" cy="170" r="3" fill="#2563eb"></circle><circle class="dot" cx="320.4" cy="170" r="3" fill="#2563eb"></circle><circle class="dot" cx="324" cy="170" r="3" fill="#2563eb"></circle><circle class="dot" cx="327.6" cy="170" r="3" fill="#2563eb"></circle><circle class="dot" cx="331.2" cy="170" r="3" fill="#2563eb"></circle><circle class="dot" cx="334.8" cy="170" r="3" fill="#2563eb"></circle><circle class="dot" cx="338.4" cy="170" r="3" fill="#2563eb"></circle><circle class="dot" cx="342" cy="170" r="3" fill="#2563eb"></circle><circle class="dot" cx="345.59999999999997" cy="170" r="3" fill="#2563eb"></circle><circle class="dot" cx="349.2" cy="170" r="3" fill="#2563eb"></circle><circle class="dot" cx="352.8" cy="170" r="3" fill="#2563eb"></circle><circle class="dot" cx="356.4" cy="170" r="3" fill="#2563eb"></circle><circle class="dot" cx="360" cy="170" r="3" fill="#2563eb"></circle><circle class="dot" cx="363.6" cy="170" r="3" fill="#2563eb"></circle><circle class="dot" cx="367.2" cy="170" r="3" fill="#2563eb"></circle><circle class="dot" cx="370.8" cy="170" r="3" fill="#2563eb"></circle><circle class="dot" cx="374.40000000000003" cy="170" r="3" fill="#2563eb"></circle><circle class="dot" cx="378" cy="170" r="3" fill="#2563eb"></circle><circle class="dot" cx="381.6" cy="170" r="3" fill="#2563eb"></circle><circle class="dot" cx="385.20000000000005" cy="170" r="3" fill="#2563eb"></circle><circle class="dot" cx="388.8" cy="170" r="3" fill="#2563eb"></circle><circle class="dot" cx="392.40000000000003" cy="170" r="3" fill="#2563eb"></circle><circle class="dot" cx="396.00000000000006" cy="170" r="3" fill="#2563eb"></circle><circle class="dot" cx="399.6" cy="170" r="3" fill="#2563eb"></circle><circle class="dot" cx="403.20000000000005" cy="170" r="3" fill="#2563eb"></circle><circle class="dot" cx="406.79999999999995" cy="170" r="3" fill="#2563eb"></circle><circle class="dot" cx="410.4" cy="170" r="3" fill="#2563eb"></circle><circle class="dot" cx="413.99999999999994" cy="170" r="3" fill="#2563eb"></circle><circle class="dot" cx="417.59999999999997" cy="170" r="3" fill="#2563eb"></circle><circle class="dot" cx="421.2" cy="170" r="3" fill="#2563eb"></circle><circle class="dot" cx="424.79999999999995" cy="170" r="3" fill="#2563eb"></circle><circle class="dot" cx="428.4" cy="170" r="3" fill="#2563eb"></circle><circle class="dot" cx="432" cy="170" r="3" fill="#2563eb"></circle><circle class="dot" cx="435.59999999999997" cy="170" r="3" fill="#2563eb"></circle><circle class="dot" cx="439.2" cy="170" r="3" fill="#2563eb"></circle><circle class="dot" cx="442.8" cy="170" r="3" fill="#2563eb"></circle><circle class="dot" cx="446.4" cy="170" r="3" fill="#2563eb"></circle><circle class="dot" cx="450" cy="170" r="3" fill="#2563eb"></circle><circle class="dot" cx="453.6" cy="170" r="3" fill="#2563eb"></circle><circle class="dot" cx="457.2" cy="170" r="3" fill="#2563eb"></circle><circle class="dot" cx="460.8" cy="170" r="3" fill="#2563eb"></circle><circle class="dot" cx="464.40000000000003" cy="170" r="3" fill="#2563eb"></circle><circle class="dot" cx="468" cy="170" r="3" fill="#2563eb"></circle><circle class="dot" cx="471.6" cy="170" r="3" fill="#2563eb"></circle><circle class="dot" cx="475.20000000000005" cy="170" r="3" fill="#2563eb"></circle><circle class="dot" cx="478.8" cy="170" r="3" fill="#2563eb"></circle><circle class="dot" cx="482.40000000000003" cy="170" r="3" fill="#2563eb"></circle><circle class="dot" cx="486.00000000000006" cy="170" r="3" fill="#2563eb"></circle><circle class="dot" cx="489.6" cy="170" r="3" fill="#2563eb"></circle><circle class="dot" cx="493.20000000000005" cy="170" r="3" fill="#2563eb"></circle><circle class="dot" cx="496.79999999999995" cy="170" r="3" fill="#2563eb"></circle><circle class="dot" cx="500.4" cy="170" r="3" fill="#2563eb"></circle><circle class="dot" cx="503.99999999999994" cy="170" r="3" fill="#2563eb"></circle><circle class="dot" cx="507.59999999999997" cy="170" r="3" fill="#2563eb"></circle><circle class="dot" cx="511.2" cy="170" r="3" fill="#2563eb"></circle><circle class="dot" cx="514.8" cy="170" r="3" fill="#2563eb"></circle><circle class="dot" cx="518.4" cy="170" r="3" fill="#2563eb"></circle><circle class="dot" cx="522" cy="170" r="3" fill="#2563eb"></circle><circle class="dot" cx="525.6" cy="170" r="3" fill="#2563eb"></circle><circle class="dot" cx="529.2" cy="170" r="3" fill="#2563eb"></circle><circle class="dot" cx="532.8" cy="170" r="3" fill="#2563eb"></circle><circle class="dot" cx="536.4" cy="170" r="3" fill="#2563eb"></circle><circle class="dot" cx="540" cy="170" r="3" fill="#2563eb"></circle><circle class="dot" cx="543.6" cy="170" r="3" fill="#2563eb"></circle><circle class="dot" cx="547.2" cy="170" r="3" fill="#2563eb"></circle><circle class="dot" cx="550.8" cy="170" r="3" fill="#2563eb"></circle><circle class="dot" cx="554.4" cy="170" r="3" fill="#2563eb"></circle><circle class="dot" cx="558" cy="170" r="3" fill="#2563eb"></circle><circle class="dot" cx="561.6" cy="170" r="3" fill="#2563eb"></circle><circle class="dot" cx="565.2" cy="170" r="3" fill="#2563eb"></circle><circle class="dot" cx="568.8000000000001" cy="170" r="3" fill="#2563eb"></circle><circle class="dot" cx="572.4" cy="170" r="3" fill="#2563eb"></circle><circle class="dot" cx="576" cy="170" r="3" fill="#2563eb"></circle><circle class="dot" cx="579.6" cy="170" r="3" fill="#2563eb"></circle><circle class="dot" cx="583.2" cy="170" r="3" fill="#2563eb"></circle><circle class="dot" cx="586.8" cy="170" r="3" fill="#2563eb"></circle><circle class="dot" cx="590.4" cy="170" r="3" fill="#2563eb"></circle><circle class="dot" cx="594" cy="170" r="3" fill="#2563eb"></circle><circle class="dot" cx="597.6" cy="170" r="3" fill="#2563eb"></circle><circle class="dot" cx="601.1999999999999" cy="170" r="3" fill="#2563eb"></circle><circle class="dot" cx="604.8" cy="170" r="3" fill="#2563eb"></circle><circle class="dot" cx="608.4" cy="170" r="3" fill="#2563eb"></circle><circle class="dot" cx="612" cy="170" r="3" fill="#2563eb"></circle><circle class="dot" cx="615.6" cy="170" r="3" fill="#2563eb"></circle><circle class="dot" cx="619.2" cy="170" r="3" fill="#2563eb"></circle><circle class="dot" cx="622.8" cy="170" r="3" fill="#2563eb"></circle><circle class="dot" cx="626.4" cy="170" r="3" fill="#2563eb"></circle><circle class="dot" cx="630" cy="170" r="3" fill="#2563eb"></circle><circle class="dot" cx="633.6" cy="170" r="3" fill="#2563eb"></circle><circle class="dot" cx="637.2" cy="170" r="3" fill="#2563eb"></circle><circle class="dot" cx="640.8" cy="170" r="3" fill="#2563eb"></circle><circle class="dot" cx="644.4" cy="170" r="3" fill="#2563eb"></circle><circle class="dot" cx="648" cy="170" r="3" fill="#2563eb"></circle><circle class="dot" cx="651.6" cy="170" r="3" fill="#2563eb"></circle><circle class="dot" cx="655.2" cy="170" r="3" fill="#2563eb"></circle><circle class="dot" cx="658.8000000000001" cy="170" r="3" fill="#2563eb"></circle><circle class="dot" cx="662.4" cy="170" r="3" fill="#2563eb"></circle><circle class="dot" cx="666" cy="170" r="3" fill="#2563eb"></circle><circle class="dot" cx="669.6" cy="170" r="3" fill="#2563eb"></circle><circle class="dot" cx="673.2" cy="170" r="3" fill="#2563eb"></circle><circle class="dot" cx="676.8" cy="170" r="3" fill="#2563eb"></circle><circle class="dot" cx="680.4" cy="170" r="3" fill="#2563eb"></circle><circle class="dot" cx="684" cy="170" r="3" fill="#2563eb"></circle><circle class="dot" cx="687.6" cy="170" r="3" fill="#2563eb"></circle><circle class="dot" cx="691.1999999999999" cy="170" r="3" fill="#2563eb"></circle><circle class="dot" cx="694.8" cy="170" r="3" fill="#2563eb"></circle><circle class="dot" cx="698.4" cy="170" r="3" fill="#2563eb"></circle><circle class="dot" cx="702" cy="170" r="3" fill="#2563eb"></circle><circle class="dot" cx="705.6" cy="170" r="3" fill="#2563eb"></circle><circle class="dot" cx="709.2" cy="170" r="3" fill="#2563eb"></circle><circle class="dot" cx="712.8" cy="170" r="3" fill="#2563eb"></circle><circle class="dot" cx="716.4" cy="170" r="3" fill="#2563eb"></circle><circle class="dot" cx="720" cy="170" r="3" fill="#2563eb"></circle><g class="grid" transform="translate(0,340)" fill="none" font-size="10" font-family="sans-serif" text-anchor="middle" style="stroke-dasharray: 3,3; opacity: 0.3;"><path class="domain" stroke="currentColor" d="M0.5,-340V0.5H720.5V-340"></path><g class="tick" opacity="1" transform="translate(0.5,0)"><line stroke="currentColor" y2="-340"></line><text fill="currentColor" y="3" dy="0.71em"></text></g><g class="tick" opacity="1" transform="translate(86.89999999999999,0)"><line stroke="currentColor" y2="-340"></line><text fill="currentColor" y="3" dy="0.71em"></text></g><g class="tick" opacity="1" transform="translate(173.29999999999998,0)"><line stroke="currentColor" y2="-340"></line><text fill="currentColor" y="3" dy="0.71em"></text></g><g class="tick" opacity="1" transform="translate(259.7,0)"><line stroke="currentColor" y2="-340"></line><text fill="currentColor" y="3" dy="0.71em"></text></g><g class="tick" opacity="1" transform="translate(346.09999999999997,0)"><line stroke="currentColor" y2="-340"></line><text fill="currentColor" y="3" dy="0.71em"></text></g><g class="tick" opacity="1" transform="translate(432.5,0)"><line stroke="currentColor" y2="-340"></line><text fill="currentColor" y="3" dy="0.71em"></text></g><g class="tick" opacity="1" transform="translate(518.9,0)"><line stroke="currentColor" y2="-340"></line><text fill="currentColor" y="3" dy="0.71em"></text></g><g class="tick" opacity="1" transform="translate(605.3,0)"><line stroke="currentColor" y2="-340"></line><text fill="currentColor" y="3" dy="0.71em"></text></g><g class="tick" opacity="1" transform="translate(691.6999999999999,0)"><line stroke="currentColor" y2="-340"></line><text fill="currentColor" y="3" dy="0.71em"></text></g></g><g class="grid" fill="none" font-size="10" font-family="sans-serif" text-anchor="end" style="stroke-dasharray: 3,3; opacity: 0.3;"><path class="domain" stroke="currentColor" d="M720,340.5H0.5V0.5H720"></path><g class="tick" opacity="1" transform="translate(0,170.5)"><line stroke="currentColor" x2="720"></line><text fill="currentColor" x="-3" dy="0.32em"></text></g></g></g><text x="400" y="10" text-anchor="middle" style="font-size: 16px; font-weight: bold; fill: #333;">OKX USDT Lending Rate - Current Month</text></svg>