<svg width="800" height="400" xmlns="http://www.w3.org/2000/svg"><g transform="translate(50,20)"><g transform="translate(0,340)" fill="none" font-size="10" font-family="sans-serif" text-anchor="middle"><path class="domain" stroke="currentColor" d="M0.5,6V0.5H720.5V6"></path><g class="tick" opacity="1" transform="translate(0.5,0)"><line stroke="currentColor" y2="6"></line><text fill="currentColor" y="9" dy=".15em" style="text-anchor: end;" dx="-.8em" transform="rotate(-45)">04/01</text></g><g class="tick" opacity="1" transform="translate(32.381918819188186,0)"><line stroke="currentColor" y2="6"></line><text fill="currentColor" y="9" dy=".15em" style="text-anchor: end;" dx="-.8em" transform="rotate(-45)">04/02</text></g><g class="tick" opacity="1" transform="translate(64.26383763837637,0)"><line stroke="currentColor" y2="6"></line><text fill="currentColor" y="9" dy=".15em" style="text-anchor: end;" dx="-.8em" transform="rotate(-45)">04/03</text></g><g class="tick" opacity="1" transform="translate(96.14575645756457,0)"><line stroke="currentColor" y2="6"></line><text fill="currentColor" y="9" dy=".15em" style="text-anchor: end;" dx="-.8em" transform="rotate(-45)">04/04</text></g><g class="tick" opacity="1" transform="translate(128.02767527675275,0)"><line stroke="currentColor" y2="6"></line><text fill="currentColor" y="9" dy=".15em" style="text-anchor: end;" dx="-.8em" transform="rotate(-45)">04/05</text></g><g class="tick" opacity="1" transform="translate(159.90959409594095,0)"><line stroke="currentColor" y2="6"></line><text fill="currentColor" y="9" dy=".15em" style="text-anchor: end;" dx="-.8em" transform="rotate(-45)">04/06</text></g><g class="tick" opacity="1" transform="translate(191.79151291512915,0)"><line stroke="currentColor" y2="6"></line><text fill="currentColor" y="9" dy=".15em" style="text-anchor: end;" dx="-.8em" transform="rotate(-45)">04/07</text></g><g class="tick" opacity="1" transform="translate(223.67343173431735,0)"><line stroke="currentColor" y2="6"></line><text fill="currentColor" y="9" dy=".15em" style="text-anchor: end;" dx="-.8em" transform="rotate(-45)">04/08</text></g><g class="tick" opacity="1" transform="translate(255.55535055350552,0)"><line stroke="currentColor" y2="6"></line><text fill="currentColor" y="9" dy=".15em" style="text-anchor: end;" dx="-.8em" transform="rotate(-45)">04/09</text></g><g class="tick" opacity="1" transform="translate(287.4372693726937,0)"><line stroke="currentColor" y2="6"></line><text fill="currentColor" y="9" dy=".15em" style="text-anchor: end;" dx="-.8em" transform="rotate(-45)">04/10</text></g><g class="tick" opacity="1" transform="translate(319.3191881918819,0)"><line stroke="currentColor" y2="6"></line><text fill="currentColor" y="9" dy=".15em" style="text-anchor: end;" dx="-.8em" transform="rotate(-45)">04/11</text></g><g class="tick" opacity="1" transform="translate(351.2011070110701,0)"><line stroke="currentColor" y2="6"></line><text fill="currentColor" y="9" dy=".15em" style="text-anchor: end;" dx="-.8em" transform="rotate(-45)">04/12</text></g><g class="tick" opacity="1" transform="translate(383.0830258302583,0)"><line stroke="currentColor" y2="6"></line><text fill="currentColor" y="9" dy=".15em" style="text-anchor: end;" dx="-.8em" transform="rotate(-45)">04/13</text></g><g class="tick" opacity="1" transform="translate(414.96494464944647,0)"><line stroke="currentColor" y2="6"></line><text fill="currentColor" y="9" dy=".15em" style="text-anchor: end;" dx="-.8em" transform="rotate(-45)">04/14</text></g><g class="tick" opacity="1" transform="translate(446.8468634686347,0)"><line stroke="currentColor" y2="6"></line><text fill="currentColor" y="9" dy=".15em" style="text-anchor: end;" dx="-.8em" transform="rotate(-45)">04/15</text></g><g class="tick" opacity="1" transform="translate(478.72878228782287,0)"><line stroke="currentColor" y2="6"></line><text fill="currentColor" y="9" dy=".15em" style="text-anchor: end;" dx="-.8em" transform="rotate(-45)">04/16</text></g><g class="tick" opacity="1" transform="translate(510.61070110701104,0)"><line stroke="currentColor" y2="6"></line><text fill="currentColor" y="9" dy=".15em" style="text-anchor: end;" dx="-.8em" transform="rotate(-45)">04/17</text></g><g class="tick" opacity="1" transform="translate(542.4926199261993,0)"><line stroke="currentColor" y2="6"></line><text fill="currentColor" y="9" dy=".15em" style="text-anchor: end;" dx="-.8em" transform="rotate(-45)">04/18</text></g><g class="tick" opacity="1" transform="translate(574.3745387453874,0)"><line stroke="currentColor" y2="6"></line><text fill="currentColor" y="9" dy=".15em" style="text-anchor: end;" dx="-.8em" transform="rotate(-45)">04/19</text></g><g class="tick" opacity="1" transform="translate(606.2564575645757,0)"><line stroke="currentColor" y2="6"></line><text fill="currentColor" y="9" dy=".15em" style="text-anchor: end;" dx="-.8em" transform="rotate(-45)">04/20</text></g><g class="tick" opacity="1" transform="translate(638.1383763837638,0)"><line stroke="currentColor" y2="6"></line><text fill="currentColor" y="9" dy=".15em" style="text-anchor: end;" dx="-.8em" transform="rotate(-45)">04/21</text></g><g class="tick" opacity="1" transform="translate(670.020295202952,0)"><line stroke="currentColor" y2="6"></line><text fill="currentColor" y="9" dy=".15em" style="text-anchor: end;" dx="-.8em" transform="rotate(-45)">04/22</text></g><g class="tick" opacity="1" transform="translate(701.9022140221402,0)"><line stroke="currentColor" y2="6"></line><text fill="currentColor" y="9" dy=".15em" style="text-anchor: end;" dx="-.8em" transform="rotate(-45)">04/23</text></g></g><g fill="none" font-size="10" font-family="sans-serif" text-anchor="end"><path class="domain" stroke="currentColor" d="M-6,340.5H0.5V0.5H-6"></path><g class="tick" opacity="1" transform="translate(0,170.5)"><line stroke="currentColor" x2="-6"></line><text fill="currentColor" x="-9" dy="0.32em">2.50%</text></g></g><text transform="rotate(-90)" y="-50" x="-170" dy="1em" style="text-anchor: middle; font-size: 12px; fill: #666;">Pre Rate (%)</text><text transform="translate(360, 380)" style="text-anchor: middle; font-size: 12px; fill: #666;">Time (UTC)</text><path fill="none" stroke="#2563eb" stroke-width="2" d="M0,170C0.443,170,0.886,170,1.328,170C1.771,170,2.214,170,2.657,170C3.1,170,3.542,170,3.985,170C4.428,170,4.871,170,5.314,170C5.756,170,6.199,170,6.642,170C7.085,170,7.528,170,7.97,170C8.413,170,8.856,170,9.299,170C9.742,170,10.185,170,10.627,170C11.07,170,11.513,170,11.956,170C12.399,170,12.841,170,13.284,170C13.727,170,14.17,170,14.613,170C15.055,170,15.498,170,15.941,170C16.384,170,16.827,170,17.269,170C17.712,170,18.155,170,18.598,170C19.041,170,19.483,170,19.926,170C20.369,170,20.812,170,21.255,170C21.697,170,22.14,170,22.583,170C23.026,170,23.469,170,23.911,170C24.354,170,24.797,170,25.24,170C25.683,170,26.125,170,26.568,170C27.011,170,27.454,170,27.897,170C28.339,170,28.782,170,29.225,170C29.668,170,30.111,170,30.554,170C30.996,170,31.439,170,31.882,170C32.325,170,32.768,170,33.21,170C33.653,170,34.096,170,34.539,170C34.982,170,35.424,170,35.867,170C36.31,170,36.753,170,37.196,170C37.638,170,38.081,170,38.524,170C38.967,170,39.41,170,39.852,170C40.295,170,40.738,170,41.181,170C41.624,170,42.066,170,42.509,170C42.952,170,43.395,170,43.838,170C44.28,170,44.723,170,45.166,170C45.609,170,46.052,170,46.494,170C46.937,170,47.38,170,47.823,170C48.266,170,48.708,170,49.151,170C49.594,170,50.037,170,50.48,170C50.923,170,51.365,170,51.808,170C52.251,170,52.694,170,53.137,170C53.579,170,54.022,170,54.465,170C54.908,170,55.351,170,55.793,170C56.236,170,56.679,170,57.122,170C57.565,170,58.007,170,58.45,170C58.893,170,59.336,170,59.779,170C60.221,170,60.664,170,61.107,170C61.55,170,61.993,170,62.435,170C62.878,170,63.321,170,63.764,170C64.207,170,64.649,170,65.092,170C65.535,170,65.978,170,66.421,170C66.863,170,67.306,170,67.749,170C68.192,170,68.635,170,69.077,170C69.52,170,69.963,170,70.406,170C70.849,170,71.292,170,71.734,170C72.177,170,72.62,170,73.063,170C73.506,170,73.948,170,74.391,170C74.834,170,75.277,170,75.72,170C76.162,170,76.605,170,77.048,170C77.491,170,77.934,170,78.376,170C78.819,170,79.262,170,79.705,170C80.148,170,80.59,170,81.033,170C81.476,170,81.919,170,82.362,170C82.804,170,83.247,170,83.69,170C84.133,170,84.576,170,85.018,170C85.461,170,85.904,170,86.347,170C86.79,170,87.232,170,87.675,170C88.118,170,88.561,170,89.004,170C89.446,170,89.889,170,90.332,170C90.775,170,91.218,170,91.661,170C92.103,170,92.546,170,92.989,170C93.432,170,93.875,170,94.317,170C94.76,170,95.203,170,95.646,170C96.089,170,96.531,170,96.974,170C97.417,170,97.86,170,98.303,170C98.745,170,99.188,170,99.631,170C100.074,170,100.517,170,100.959,170C101.402,170,101.845,170,102.288,170C102.731,170,103.173,170,103.616,170C104.059,170,104.502,170,104.945,170C105.387,170,105.83,170,106.273,170C106.716,170,107.159,170,107.601,170C108.044,170,108.487,170,108.93,170C109.373,170,109.815,170,110.258,170C110.701,170,111.144,170,111.587,170C112.03,170,112.472,170,112.915,170C113.358,170,113.801,170,114.244,170C114.686,170,115.129,170,115.572,170C116.015,170,116.458,170,116.9,170C117.343,170,117.786,170,118.229,170C118.672,170,119.114,170,119.557,170C120,170,120.443,170,120.886,170C121.328,170,121.771,170,122.214,170C122.657,170,123.1,170,123.542,170C123.985,170,124.428,170,124.871,170C125.314,170,125.756,170,126.199,170C126.642,170,127.085,170,127.528,170C127.97,170,128.413,170,128.856,170C129.299,170,129.742,170,130.185,170C130.627,170,131.07,170,131.513,170C131.956,170,132.399,170,132.841,170C133.284,170,133.727,170,134.17,170C134.613,170,135.055,170,135.498,170C135.941,170,136.384,170,136.827,170C137.269,170,137.712,170,138.155,170C138.598,170,139.041,170,139.483,170C139.926,170,140.369,170,140.812,170C141.255,170,141.697,170,142.14,170C142.583,170,143.026,170,143.469,170C143.911,170,144.354,170,144.797,170C145.24,170,145.683,170,146.125,170C146.568,170,147.011,170,147.454,170C147.897,170,148.339,170,148.782,170C149.225,170,149.668,170,150.111,170C150.554,170,150.996,170,151.439,170C151.882,170,152.325,170,152.768,170C153.21,170,153.653,170,154.096,170C154.539,170,154.982,170,155.424,170C155.867,170,156.31,170,156.753,170C157.196,170,157.638,170,158.081,170C158.524,170,158.967,170,159.41,170C159.852,170,160.295,170,160.738,170C161.181,170,161.624,170,162.066,170C162.509,170,162.952,170,163.395,170C163.838,170,164.28,170,164.723,170C165.166,170,165.609,170,166.052,170C166.494,170,166.937,170,167.38,170C167.823,170,168.266,170,168.708,170C169.151,170,169.594,170,170.037,170C170.48,170,170.923,170,171.365,170C171.808,170,172.251,170,172.694,170C173.137,170,173.579,170,174.022,170C174.465,170,174.908,170,175.351,170C175.793,170,176.236,170,176.679,170C177.122,170,177.565,170,178.007,170C178.45,170,178.893,170,179.336,170C179.779,170,180.221,170,180.664,170C181.107,170,181.55,170,181.993,170C182.435,170,182.878,170,183.321,170C183.764,170,184.207,170,184.649,170C185.092,170,185.535,170,185.978,170C186.421,170,186.863,170,187.306,170C187.749,170,188.192,170,188.635,170C189.077,170,189.52,170,189.963,170C190.406,170,190.849,170,191.292,170C191.734,170,192.177,170,192.62,170C193.063,170,193.506,170,193.948,170C194.391,170,194.834,170,195.277,170C195.72,170,196.162,170,196.605,170C197.048,170,197.491,170,197.934,170C198.376,170,198.819,170,199.262,170C199.705,170,200.148,170,200.59,170C201.033,170,201.476,170,201.919,170C202.362,170,202.804,170,203.247,170C203.69,170,204.133,170,204.576,170C205.018,170,205.461,170,205.904,170C206.347,170,206.79,170,207.232,170C207.675,170,208.118,170,208.561,170C209.004,170,209.446,170,209.889,170C210.332,170,210.775,170,211.218,170C211.661,170,212.103,170,212.546,170C212.989,170,213.432,170,213.875,170C214.317,170,214.76,170,215.203,170C215.646,170,216.089,170,216.531,170C216.974,170,217.417,170,217.86,170C218.303,170,218.745,170,219.188,170C219.631,170,220.074,170,220.517,170C220.959,170,221.402,170,221.845,170C222.288,170,222.731,170,223.173,170C223.616,170,224.059,170,224.502,170C224.945,170,225.387,170,225.83,170C226.273,170,226.716,170,227.159,170C227.601,170,228.044,170,228.487,170C228.93,170,229.373,170,229.815,170C230.258,170,230.701,170,231.144,170C231.587,170,232.03,170,232.472,170C232.915,170,233.358,170,233.801,170C234.244,170,234.686,170,235.129,170C235.572,170,236.015,170,236.458,170C236.9,170,237.343,170,237.786,170C238.229,170,238.672,170,239.114,170C239.557,170,240,170,240.443,170C240.886,170,241.328,170,241.771,170C242.214,170,242.657,170,243.1,170C243.542,170,243.985,170,244.428,170C244.871,170,245.314,170,245.756,170C246.199,170,246.642,170,247.085,170C247.528,170,247.97,170,248.413,170C248.856,170,249.299,170,249.742,170C250.185,170,250.627,170,251.07,170C251.513,170,251.956,170,252.399,170C252.841,170,253.284,170,253.727,170C254.17,170,254.613,170,255.055,170C255.498,170,255.941,170,256.384,170C256.827,170,257.269,170,257.712,170C258.155,170,258.598,170,259.041,170C259.483,170,259.926,170,260.369,170C260.812,170,261.255,170,261.697,170C262.14,170,262.583,170,263.026,170C263.469,170,263.911,170,264.354,170C264.797,170,265.24,170,265.683,170C266.125,170,266.568,170,267.011,170C267.454,170,267.897,170,268.339,170C268.782,170,269.225,170,269.668,170C270.111,170,270.554,170,270.996,170C271.439,170,271.882,170,272.325,170C272.768,170,273.21,170,273.653,170C274.096,170,274.539,170,274.982,170C275.424,170,275.867,170,276.31,170C276.753,170,277.196,170,277.638,170C278.081,170,278.524,170,278.967,170C279.41,170,279.852,170,280.295,170C280.738,170,281.181,170,281.624,170C282.066,170,282.509,170,282.952,170C283.395,170,283.838,170,284.28,170C284.723,170,285.166,170,285.609,170C286.052,170,286.494,170,286.937,170C287.38,170,287.823,170,288.266,170C288.708,170,289.151,170,289.594,170C290.037,170,290.48,170,290.923,170C291.365,170,291.808,170,292.251,170C292.694,170,293.137,170,293.579,170C294.022,170,294.465,170,294.908,170C295.351,170,295.793,170,296.236,170C296.679,170,297.122,170,297.565,170C298.007,170,298.45,170,298.893,170C299.336,170,299.779,170,300.221,170C300.664,170,301.107,170,301.55,170C301.993,170,302.435,170,302.878,170C303.321,170,303.764,170,304.207,170C304.649,170,305.092,170,305.535,170C305.978,170,306.421,170,306.863,170C307.306,170,307.749,170,308.192,170C308.635,170,309.077,170,309.52,170C309.963,170,310.406,170,310.849,170C311.292,170,311.734,170,312.177,170C312.62,170,313.063,170,313.506,170C313.948,170,314.391,170,314.834,170C315.277,170,315.72,170,316.162,170C316.605,170,317.048,170,317.491,170C317.934,170,318.376,170,318.819,170C319.262,170,319.705,170,320.148,170C320.59,170,321.033,170,321.476,170C321.919,170,322.362,170,322.804,170C323.247,170,323.69,170,324.133,170C324.576,170,325.018,170,325.461,170C325.904,170,326.347,170,326.79,170C327.232,170,327.675,170,328.118,170C328.561,170,329.004,170,329.446,170C329.889,170,330.332,170,330.775,170C331.218,170,331.661,170,332.103,170C332.546,170,332.989,170,333.432,170C333.875,170,334.317,170,334.76,170C335.203,170,335.646,170,336.089,170C336.531,170,336.974,170,337.417,170C337.86,170,338.303,170,338.745,170C339.188,170,339.631,170,340.074,170C340.517,170,340.959,170,341.402,170C341.845,170,342.288,170,342.731,170C343.173,170,343.616,170,344.059,170C344.502,170,344.945,170,345.387,170C345.83,170,346.273,170,346.716,170C347.159,170,347.601,170,348.044,170C348.487,170,348.93,170,349.373,170C349.815,170,350.258,170,350.701,170C351.144,170,351.587,170,352.03,170C352.472,170,352.915,170,353.358,170C353.801,170,354.244,170,354.686,170C355.129,170,355.572,170,356.015,170C356.458,170,356.9,170,357.343,170C357.786,170,358.229,170,358.672,170C359.114,170,359.557,170,360,170C360.443,170,360.886,170,361.328,170C361.771,170,362.214,170,362.657,170C363.1,170,363.542,170,363.985,170C364.428,170,364.871,170,365.314,170C365.756,170,366.199,170,366.642,170C367.085,170,367.528,170,367.97,170C368.413,170,368.856,170,369.299,170C369.742,170,370.185,170,370.627,170C371.07,170,371.513,170,371.956,170C372.399,170,372.841,170,373.284,170C373.727,170,374.17,170,374.613,170C375.055,170,375.498,170,375.941,170C376.384,170,376.827,170,377.269,170C377.712,170,378.155,170,378.598,170C379.041,170,379.483,170,379.926,170C380.369,170,380.812,170,381.255,170C381.697,170,382.14,170,382.583,170C383.026,170,383.469,170,383.911,170C384.354,170,384.797,170,385.24,170C385.683,170,386.125,170,386.568,170C387.011,170,387.454,170,387.897,170C388.339,170,388.782,170,389.225,170C389.668,170,390.111,170,390.554,170C390.996,170,391.439,170,391.882,170C392.325,170,392.768,170,393.21,170C393.653,170,394.096,170,394.539,170C394.982,170,395.424,170,395.867,170C396.31,170,396.753,170,397.196,170C397.638,170,398.081,170,398.524,170C398.967,170,399.41,170,399.852,170C400.295,170,400.738,170,401.181,170C401.624,170,402.066,170,402.509,170C402.952,170,403.395,170,403.838,170C404.28,170,404.723,170,405.166,170C405.609,170,406.052,170,406.494,170C406.937,170,407.38,170,407.823,170C408.266,170,408.708,170,409.151,170C409.594,170,410.037,170,410.48,170C410.923,170,411.365,170,411.808,170C412.251,170,412.694,170,413.137,170C413.579,170,414.022,170,414.465,170C414.908,170,415.351,170,415.793,170C416.236,170,416.679,170,417.122,170C417.565,170,418.007,170,418.45,170C418.893,170,419.336,170,419.779,170C420.221,170,420.664,170,421.107,170C421.55,170,421.993,170,422.435,170C422.878,170,423.321,170,423.764,170C424.207,170,424.649,170,425.092,170C425.535,170,425.978,170,426.421,170C426.863,170,427.306,170,427.749,170C428.192,170,428.635,170,429.077,170C429.52,170,429.963,170,430.406,170C430.849,170,431.292,170,431.734,170C432.177,170,432.62,170,433.063,170C433.506,170,433.948,170,434.391,170C434.834,170,435.277,170,435.72,170C436.162,170,436.605,170,437.048,170C437.491,170,437.934,170,438.376,170C438.819,170,439.262,170,439.705,170C440.148,170,440.59,170,441.033,170C441.476,170,441.919,170,442.362,170C442.804,170,443.247,170,443.69,170C444.133,170,444.576,170,445.018,170C445.461,170,445.904,170,446.347,170C446.79,170,447.232,170,447.675,170C448.118,170,448.561,170,449.004,170C449.446,170,449.889,170,450.332,170C450.775,170,451.218,170,451.661,170C452.103,170,452.546,170,452.989,170C453.432,170,453.875,170,454.317,170C454.76,170,455.203,170,455.646,170C456.089,170,456.531,170,456.974,170C457.417,170,457.86,170,458.303,170C458.745,170,459.188,170,459.631,170C460.074,170,460.517,170,460.959,170C461.402,170,461.845,170,462.288,170C462.731,170,463.173,170,463.616,170C464.059,170,464.502,170,464.945,170C465.387,170,465.83,170,466.273,170C466.716,170,467.159,170,467.601,170C468.044,170,468.487,170,468.93,170C469.373,170,469.815,170,470.258,170C470.701,170,471.144,170,471.587,170C472.03,170,472.472,170,472.915,170C473.358,170,473.801,170,474.244,170C474.686,170,475.129,170,475.572,170C476.015,170,476.458,170,476.9,170C477.343,170,477.786,170,478.229,170C478.672,170,479.114,170,479.557,170C480,170,480.443,170,480.886,170C481.328,170,481.771,170,482.214,170C482.657,170,483.1,170,483.542,170C483.985,170,484.428,170,484.871,170C485.314,170,485.756,170,486.199,170C486.642,170,487.085,170,487.528,170C487.97,170,488.413,170,488.856,170C489.299,170,489.742,170,490.185,170C490.627,170,491.07,170,491.513,170C491.956,170,492.399,170,492.841,170C493.284,170,493.727,170,494.17,170C494.613,170,495.055,170,495.498,170C495.941,170,496.384,170,496.827,170C497.269,170,497.712,170,498.155,170C498.598,170,499.041,170,499.483,170C499.926,170,500.369,170,500.812,170C501.255,170,501.697,170,502.14,170C502.583,170,503.026,170,503.469,170C503.911,170,504.354,170,504.797,170C505.24,170,505.683,170,506.125,170C506.568,170,507.011,170,507.454,170C507.897,170,508.339,170,508.782,170C509.225,170,509.668,170,510.111,170C510.554,170,510.996,170,511.439,170C511.882,170,512.325,170,512.768,170C513.21,170,513.653,170,514.096,170C514.539,170,514.982,170,515.424,170C515.867,170,516.31,170,516.753,170C517.196,170,517.638,170,518.081,170C518.524,170,518.967,170,519.41,170C519.852,170,520.295,170,520.738,170C521.181,170,521.624,170,522.066,170C522.509,170,522.952,170,523.395,170C523.838,170,524.28,170,524.723,170C525.166,170,525.609,170,526.052,170C526.494,170,526.937,170,527.38,170C527.823,170,528.266,170,528.708,170C529.151,170,529.594,170,530.037,170C530.48,170,530.923,170,531.365,170C531.808,170,532.251,170,532.694,170C533.137,170,533.579,170,534.022,170C534.465,170,534.908,170,535.351,170C535.793,170,536.236,170,536.679,170C537.122,170,537.565,170,538.007,170C538.45,170,538.893,170,539.336,170C539.779,170,540.221,170,540.664,170C541.107,170,541.55,170,541.993,170C542.435,170,542.878,170,543.321,170C543.764,170,544.207,170,544.649,170C545.092,170,545.535,170,545.978,170C546.421,170,546.863,170,547.306,170C547.749,170,548.192,170,548.635,170C549.077,170,549.52,170,549.963,170C550.406,170,550.849,170,551.292,170C551.734,170,552.177,170,552.62,170C553.063,170,553.506,170,553.948,170C554.391,170,554.834,170,555.277,170C555.72,170,556.162,170,556.605,170C557.048,170,557.491,170,557.934,170C558.376,170,558.819,170,559.262,170C559.705,170,560.148,170,560.59,170C561.033,170,561.476,170,561.919,170C562.362,170,562.804,170,563.247,170C563.69,170,564.133,170,564.576,170C565.018,170,565.461,170,565.904,170C566.347,170,566.79,170,567.232,170C567.675,170,568.118,170,568.561,170C569.004,170,569.446,170,569.889,170C570.332,170,570.775,170,571.218,170C571.661,170,572.103,170,572.546,170C572.989,170,573.432,170,573.875,170C574.317,170,574.76,170,575.203,170C575.646,170,576.089,170,576.531,170C576.974,170,577.417,170,577.86,170C578.303,170,578.745,170,579.188,170C579.631,170,580.074,170,580.517,170C580.959,170,581.402,170,581.845,170C582.288,170,582.731,170,583.173,170C583.616,170,584.059,170,584.502,170C584.945,170,585.387,170,585.83,170C586.273,170,586.716,170,587.159,170C587.601,170,588.044,170,588.487,170C588.93,170,589.373,170,589.815,170C590.258,170,590.701,170,591.144,170C591.587,170,592.03,170,592.472,170C592.915,170,593.358,170,593.801,170C594.244,170,594.686,170,595.129,170C595.572,170,596.015,170,596.458,170C596.9,170,597.343,170,597.786,170C598.229,170,598.672,170,599.114,170C599.557,170,600,170,600.443,170C600.886,170,601.328,170,601.771,170C602.214,170,602.657,170,603.1,170C603.542,170,603.985,170,604.428,170C604.871,170,605.314,170,605.756,170C606.199,170,606.642,170,607.085,170C607.528,170,607.97,170,608.413,170C608.856,170,609.299,170,609.742,170C610.185,170,610.627,170,611.07,170C611.513,170,611.956,170,612.399,170C612.841,170,613.284,170,613.727,170C614.17,170,614.613,170,615.055,170C615.498,170,615.941,170,616.384,170C616.827,170,617.269,170,617.712,170C618.155,170,618.598,170,619.041,170C619.483,170,619.926,170,620.369,170C620.812,170,621.255,170,621.697,170C622.14,170,622.583,170,623.026,170C623.469,170,623.911,170,624.354,170C624.797,170,625.24,170,625.683,170C626.125,170,626.568,170,627.011,170C627.454,170,627.897,170,628.339,170C628.782,170,629.225,170,629.668,170C630.111,170,630.554,170,630.996,170C631.439,170,631.882,170,632.325,170C632.768,170,633.21,170,633.653,170C634.096,170,634.539,170,634.982,170C635.424,170,635.867,170,636.31,170C636.753,170,637.196,170,637.638,170C638.081,170,638.524,170,638.967,170C639.41,170,639.852,170,640.295,170C640.738,170,641.181,170,641.624,170C642.066,170,642.509,170,642.952,170C643.395,170,643.838,170,644.28,170C644.723,170,645.166,170,645.609,170C646.052,170,646.494,170,646.937,170C647.38,170,647.823,170,648.266,170C648.708,170,649.151,170,649.594,170C650.037,170,650.48,170,650.923,170C651.365,170,651.808,170,652.251,170C652.694,170,653.137,170,653.579,170C654.022,170,654.465,170,654.908,170C655.351,170,655.793,170,656.236,170C656.679,170,657.122,170,657.565,170C658.007,170,658.45,170,658.893,170C659.336,170,659.779,170,660.221,170C660.664,170,661.107,170,661.55,170C661.993,170,662.435,170,662.878,170C663.321,170,663.764,170,664.207,170C664.649,170,665.092,170,665.535,170C665.978,170,666.421,170,666.863,170C667.306,170,667.749,170,668.192,170C668.635,170,669.077,170,669.52,170C669.963,170,670.406,170,670.849,170C671.292,170,671.734,170,672.177,170C672.62,170,673.063,170,673.506,170C673.948,170,674.391,170,674.834,170C675.277,170,675.72,170,676.162,170C676.605,170,677.048,170,677.491,170C677.934,170,678.376,170,678.819,170C679.262,170,679.705,170,680.148,170C680.59,170,681.033,170,681.476,170C681.919,170,682.362,170,682.804,170C683.247,170,683.69,170,684.133,170C684.576,170,685.018,170,685.461,170C685.904,170,686.347,170,686.79,170C687.232,170,687.675,170,688.118,170C688.561,170,689.004,170,689.446,170C689.889,170,690.332,170,690.775,170C691.218,170,691.661,170,692.103,170C692.546,170,692.989,170,693.432,170C693.875,170,694.317,170,694.76,170C695.203,170,695.646,170,696.089,170C696.531,170,696.974,170,697.417,170C697.86,170,698.303,170,698.745,170C699.188,170,699.631,170,700.074,170C700.517,170,700.959,170,701.402,170C701.845,170,702.288,170,702.731,170C703.173,170,703.616,170,704.059,170C704.502,170,704.945,170,705.387,170C705.83,170,706.273,170,706.716,170C707.159,170,707.601,170,708.044,170C708.487,170,708.93,170,709.373,170C709.815,170,710.258,170,710.701,170C711.144,170,711.587,170,712.03,170C712.472,170,712.915,170,713.358,170C713.801,170,714.244,170,714.686,170C715.129,170,715.572,170,716.015,170C716.458,170,716.9,170,717.343,170C717.786,170,718.229,170,718.672,170C719.114,170,719.557,170,720,170"></path><circle class="dot" cx="0" cy="170" r="3" fill="#2563eb"></circle><circle class="dot" cx="1.3284132841328413" cy="170" r="3" fill="#2563eb"></circle><circle class="dot" cx="2.6568265682656826" cy="170" r="3" fill="#2563eb"></circle><circle class="dot" cx="3.9852398523985237" cy="170" r="3" fill="#2563eb"></circle><circle class="dot" cx="5.313653136531365" cy="170" r="3" fill="#2563eb"></circle><circle class="dot" cx="6.642066420664206" cy="170" r="3" fill="#2563eb"></circle><circle class="dot" cx="7.9704797047970475" cy="170" r="3" fill="#2563eb"></circle><circle class="dot" cx="9.29889298892989" cy="170" r="3" fill="#2563eb"></circle><circle class="dot" cx="10.62730627306273" cy="170" r="3" fill="#2563eb"></circle><circle class="dot" cx="11.955719557195572" cy="170" r="3" fill="#2563eb"></circle><circle class="dot" cx="13.284132841328413" cy="170" r="3" fill="#2563eb"></circle><circle class="dot" cx="14.612546125461254" cy="170" r="3" fill="#2563eb"></circle><circle class="dot" cx="15.940959409594095" cy="170" r="3" fill="#2563eb"></circle><circle class="dot" cx="17.26937269372694" cy="170" r="3" fill="#2563eb"></circle><circle class="dot" cx="18.59778597785978" cy="170" r="3" fill="#2563eb"></circle><circle class="dot" cx="19.92619926199262" cy="170" r="3" fill="#2563eb"></circle><circle class="dot" cx="21.25461254612546" cy="170" r="3" fill="#2563eb"></circle><circle class="dot" cx="22.5830258302583" cy="170" r="3" fill="#2563eb"></circle><circle class="dot" cx="23.911439114391143" cy="170" r="3" fill="#2563eb"></circle><circle class="dot" cx="25.239852398523983" cy="170" r="3" fill="#2563eb"></circle><circle class="dot" cx="26.568265682656826" cy="170" r="3" fill="#2563eb"></circle><circle class="dot" cx="27.89667896678967" cy="170" r="3" fill="#2563eb"></circle><circle class="dot" cx="29.225092250922508" cy="170" r="3" fill="#2563eb"></circle><circle class="dot" cx="30.55350553505535" cy="170" r="3" fill="#2563eb"></circle><circle class="dot" cx="31.88191881918819" cy="170" r="3" fill="#2563eb"></circle><circle class="dot" cx="33.210332103321036" cy="170" r="3" fill="#2563eb"></circle><circle class="dot" cx="34.53874538745388" cy="170" r="3" fill="#2563eb"></circle><circle class="dot" cx="35.867158671586715" cy="170" r="3" fill="#2563eb"></circle><circle class="dot" cx="37.19557195571956" cy="170" r="3" fill="#2563eb"></circle><circle class="dot" cx="38.523985239852394" cy="170" r="3" fill="#2563eb"></circle><circle class="dot" cx="39.85239852398524" cy="170" r="3" fill="#2563eb"></circle><circle class="dot" cx="41.18081180811808" cy="170" r="3" fill="#2563eb"></circle><circle class="dot" cx="42.50922509225092" cy="170" r="3" fill="#2563eb"></circle><circle class="dot" cx="43.837638376383765" cy="170" r="3" fill="#2563eb"></circle><circle class="dot" cx="45.1660516605166" cy="170" r="3" fill="#2563eb"></circle><circle class="dot" cx="46.494464944649444" cy="170" r="3" fill="#2563eb"></circle><circle class="dot" cx="47.82287822878229" cy="170" r="3" fill="#2563eb"></circle><circle class="dot" cx="49.15129151291513" cy="170" r="3" fill="#2563eb"></circle><circle class="dot" cx="50.479704797047965" cy="170" r="3" fill="#2563eb"></circle><circle class="dot" cx="51.80811808118081" cy="170" r="3" fill="#2563eb"></circle><circle class="dot" cx="53.13653136531365" cy="170" r="3" fill="#2563eb"></circle><circle class="dot" cx="54.464944649446494" cy="170" r="3" fill="#2563eb"></circle><circle class="dot" cx="55.79335793357934" cy="170" r="3" fill="#2563eb"></circle><circle class="dot" cx="57.12177121771217" cy="170" r="3" fill="#2563eb"></circle><circle class="dot" cx="58.450184501845015" cy="170" r="3" fill="#2563eb"></circle><circle class="dot" cx="59.77859778597786" cy="170" r="3" fill="#2563eb"></circle><circle class="dot" cx="61.1070110701107" cy="170" r="3" fill="#2563eb"></circle><circle class="dot" cx="62.435424354243544" cy="170" r="3" fill="#2563eb"></circle><circle class="dot" cx="63.76383763837638" cy="170" r="3" fill="#2563eb"></circle><circle class="dot" cx="65.09225092250922" cy="170" r="3" fill="#2563eb"></circle><circle class="dot" cx="66.42066420664207" cy="170" r="3" fill="#2563eb"></circle><circle class="dot" cx="67.74907749077491" cy="170" r="3" fill="#2563eb"></circle><circle class="dot" cx="69.07749077490776" cy="170" r="3" fill="#2563eb"></circle><circle class="dot" cx="70.40590405904058" cy="170" r="3" fill="#2563eb"></circle><circle class="dot" cx="71.73431734317343" cy="170" r="3" fill="#2563eb"></circle><circle class="dot" cx="73.06273062730627" cy="170" r="3" fill="#2563eb"></circle><circle class="dot" cx="74.39114391143912" cy="170" r="3" fill="#2563eb"></circle><circle class="dot" cx="75.71955719557197" cy="170" r="3" fill="#2563eb"></circle><circle class="dot" cx="77.04797047970479" cy="170" r="3" fill="#2563eb"></circle><circle class="dot" cx="78.37638376383764" cy="170" r="3" fill="#2563eb"></circle><circle class="dot" cx="79.70479704797047" cy="170" r="3" fill="#2563eb"></circle><circle class="dot" cx="81.03321033210332" cy="170" r="3" fill="#2563eb"></circle><circle class="dot" cx="82.36162361623616" cy="170" r="3" fill="#2563eb"></circle><circle class="dot" cx="83.690036900369" cy="170" r="3" fill="#2563eb"></circle><circle class="dot" cx="85.01845018450184" cy="170" r="3" fill="#2563eb"></circle><circle class="dot" cx="86.34686346863468" cy="170" r="3" fill="#2563eb"></circle><circle class="dot" cx="87.67527675276753" cy="170" r="3" fill="#2563eb"></circle><circle class="dot" cx="89.00369003690037" cy="170" r="3" fill="#2563eb"></circle><circle class="dot" cx="90.3321033210332" cy="170" r="3" fill="#2563eb"></circle><circle class="dot" cx="91.66051660516605" cy="170" r="3" fill="#2563eb"></circle><circle class="dot" cx="92.98892988929889" cy="170" r="3" fill="#2563eb"></circle><circle class="dot" cx="94.31734317343174" cy="170" r="3" fill="#2563eb"></circle><circle class="dot" cx="95.64575645756457" cy="170" r="3" fill="#2563eb"></circle><circle class="dot" cx="96.97416974169742" cy="170" r="3" fill="#2563eb"></circle><circle class="dot" cx="98.30258302583026" cy="170" r="3" fill="#2563eb"></circle><circle class="dot" cx="99.63099630996311" cy="170" r="3" fill="#2563eb"></circle><circle class="dot" cx="100.95940959409593" cy="170" r="3" fill="#2563eb"></circle><circle class="dot" cx="102.28782287822878" cy="170" r="3" fill="#2563eb"></circle><circle class="dot" cx="103.61623616236162" cy="170" r="3" fill="#2563eb"></circle><circle class="dot" cx="104.94464944649447" cy="170" r="3" fill="#2563eb"></circle><circle class="dot" cx="106.2730627306273" cy="170" r="3" fill="#2563eb"></circle><circle class="dot" cx="107.60147601476015" cy="170" r="3" fill="#2563eb"></circle><circle class="dot" cx="108.92988929889299" cy="170" r="3" fill="#2563eb"></circle><circle class="dot" cx="110.25830258302584" cy="170" r="3" fill="#2563eb"></circle><circle class="dot" cx="111.58671586715867" cy="170" r="3" fill="#2563eb"></circle><circle class="dot" cx="112.91512915129152" cy="170" r="3" fill="#2563eb"></circle><circle class="dot" cx="114.24354243542435" cy="170" r="3" fill="#2563eb"></circle><circle class="dot" cx="115.5719557195572" cy="170" r="3" fill="#2563eb"></circle><circle class="dot" cx="116.90036900369003" cy="170" r="3" fill="#2563eb"></circle><circle class="dot" cx="118.22878228782288" cy="170" r="3" fill="#2563eb"></circle><circle class="dot" cx="119.55719557195572" cy="170" r="3" fill="#2563eb"></circle><circle class="dot" cx="120.88560885608857" cy="170" r="3" fill="#2563eb"></circle><circle class="dot" cx="122.2140221402214" cy="170" r="3" fill="#2563eb"></circle><circle class="dot" cx="123.54243542435425" cy="170" r="3" fill="#2563eb"></circle><circle class="dot" cx="124.87084870848709" cy="170" r="3" fill="#2563eb"></circle><circle class="dot" cx="126.19926199261994" cy="170" r="3" fill="#2563eb"></circle><circle class="dot" cx="127.52767527675276" cy="170" r="3" fill="#2563eb"></circle><circle class="dot" cx="128.8560885608856" cy="170" r="3" fill="#2563eb"></circle><circle class="dot" cx="130.18450184501845" cy="170" r="3" fill="#2563eb"></circle><circle class="dot" cx="131.51291512915128" cy="170" r="3" fill="#2563eb"></circle><circle class="dot" cx="132.84132841328415" cy="170" r="3" fill="#2563eb"></circle><circle class="dot" cx="134.16974169741698" cy="170" r="3" fill="#2563eb"></circle><circle class="dot" cx="135.49815498154982" cy="170" r="3" fill="#2563eb"></circle><circle class="dot" cx="136.82656826568265" cy="170" r="3" fill="#2563eb"></circle><circle class="dot" cx="138.15498154981552" cy="170" r="3" fill="#2563eb"></circle><circle class="dot" cx="139.48339483394835" cy="170" r="3" fill="#2563eb"></circle><circle class="dot" cx="140.81180811808116" cy="170" r="3" fill="#2563eb"></circle><circle class="dot" cx="142.14022140221402" cy="170" r="3" fill="#2563eb"></circle><circle class="dot" cx="143.46863468634686" cy="170" r="3" fill="#2563eb"></circle><circle class="dot" cx="144.7970479704797" cy="170" r="3" fill="#2563eb"></circle><circle class="dot" cx="146.12546125461253" cy="170" r="3" fill="#2563eb"></circle><circle class="dot" cx="147.4538745387454" cy="170" r="3" fill="#2563eb"></circle><circle class="dot" cx="148.78228782287823" cy="170" r="3" fill="#2563eb"></circle><circle class="dot" cx="150.11070110701107" cy="170" r="3" fill="#2563eb"></circle><circle class="dot" cx="151.43911439114393" cy="170" r="3" fill="#2563eb"></circle><circle class="dot" cx="152.76752767527677" cy="170" r="3" fill="#2563eb"></circle><circle class="dot" cx="154.09594095940957" cy="170" r="3" fill="#2563eb"></circle><circle class="dot" cx="155.42435424354244" cy="170" r="3" fill="#2563eb"></circle><circle class="dot" cx="156.75276752767527" cy="170" r="3" fill="#2563eb"></circle><circle class="dot" cx="158.0811808118081" cy="170" r="3" fill="#2563eb"></circle><circle class="dot" cx="159.40959409594095" cy="170" r="3" fill="#2563eb"></circle><circle class="dot" cx="160.7380073800738" cy="170" r="3" fill="#2563eb"></circle><circle class="dot" cx="162.06642066420665" cy="170" r="3" fill="#2563eb"></circle><circle class="dot" cx="163.39483394833948" cy="170" r="3" fill="#2563eb"></circle><circle class="dot" cx="164.72324723247232" cy="170" r="3" fill="#2563eb"></circle><circle class="dot" cx="166.05166051660518" cy="170" r="3" fill="#2563eb"></circle><circle class="dot" cx="167.380073800738" cy="170" r="3" fill="#2563eb"></circle><circle class="dot" cx="168.70848708487085" cy="170" r="3" fill="#2563eb"></circle><circle class="dot" cx="170.0369003690037" cy="170" r="3" fill="#2563eb"></circle><circle class="dot" cx="171.36531365313652" cy="170" r="3" fill="#2563eb"></circle><circle class="dot" cx="172.69372693726936" cy="170" r="3" fill="#2563eb"></circle><circle class="dot" cx="174.02214022140222" cy="170" r="3" fill="#2563eb"></circle><circle class="dot" cx="175.35055350553506" cy="170" r="3" fill="#2563eb"></circle><circle class="dot" cx="176.6789667896679" cy="170" r="3" fill="#2563eb"></circle><circle class="dot" cx="178.00738007380073" cy="170" r="3" fill="#2563eb"></circle><circle class="dot" cx="179.3357933579336" cy="170" r="3" fill="#2563eb"></circle><circle class="dot" cx="180.6642066420664" cy="170" r="3" fill="#2563eb"></circle><circle class="dot" cx="181.99261992619927" cy="170" r="3" fill="#2563eb"></circle><circle class="dot" cx="183.3210332103321" cy="170" r="3" fill="#2563eb"></circle><circle class="dot" cx="184.64944649446497" cy="170" r="3" fill="#2563eb"></circle><circle class="dot" cx="185.97785977859778" cy="170" r="3" fill="#2563eb"></circle><circle class="dot" cx="187.3062730627306" cy="170" r="3" fill="#2563eb"></circle><circle class="dot" cx="188.63468634686348" cy="170" r="3" fill="#2563eb"></circle><circle class="dot" cx="189.96309963099628" cy="170" r="3" fill="#2563eb"></circle><circle class="dot" cx="191.29151291512915" cy="170" r="3" fill="#2563eb"></circle><circle class="dot" cx="192.61992619926198" cy="170" r="3" fill="#2563eb"></circle><circle class="dot" cx="193.94833948339485" cy="170" r="3" fill="#2563eb"></circle><circle class="dot" cx="195.27675276752768" cy="170" r="3" fill="#2563eb"></circle><circle class="dot" cx="196.60516605166052" cy="170" r="3" fill="#2563eb"></circle><circle class="dot" cx="197.93357933579335" cy="170" r="3" fill="#2563eb"></circle><circle class="dot" cx="199.26199261992622" cy="170" r="3" fill="#2563eb"></circle><circle class="dot" cx="200.59040590405905" cy="170" r="3" fill="#2563eb"></circle><circle class="dot" cx="201.91881918819186" cy="170" r="3" fill="#2563eb"></circle><circle class="dot" cx="203.24723247232473" cy="170" r="3" fill="#2563eb"></circle><circle class="dot" cx="204.57564575645756" cy="170" r="3" fill="#2563eb"></circle><circle class="dot" cx="205.90405904059043" cy="170" r="3" fill="#2563eb"></circle><circle class="dot" cx="207.23247232472323" cy="170" r="3" fill="#2563eb"></circle><circle class="dot" cx="208.5608856088561" cy="170" r="3" fill="#2563eb"></circle><circle class="dot" cx="209.88929889298893" cy="170" r="3" fill="#2563eb"></circle><circle class="dot" cx="211.2177121771218" cy="170" r="3" fill="#2563eb"></circle><circle class="dot" cx="212.5461254612546" cy="170" r="3" fill="#2563eb"></circle><circle class="dot" cx="213.87453874538744" cy="170" r="3" fill="#2563eb"></circle><circle class="dot" cx="215.2029520295203" cy="170" r="3" fill="#2563eb"></circle><circle class="dot" cx="216.5313653136531" cy="170" r="3" fill="#2563eb"></circle><circle class="dot" cx="217.85977859778598" cy="170" r="3" fill="#2563eb"></circle><circle class="dot" cx="219.1881918819188" cy="170" r="3" fill="#2563eb"></circle><circle class="dot" cx="220.51660516605168" cy="170" r="3" fill="#2563eb"></circle><circle class="dot" cx="221.84501845018448" cy="170" r="3" fill="#2563eb"></circle><circle class="dot" cx="223.17343173431735" cy="170" r="3" fill="#2563eb"></circle><circle class="dot" cx="224.50184501845018" cy="170" r="3" fill="#2563eb"></circle><circle class="dot" cx="225.83025830258305" cy="170" r="3" fill="#2563eb"></circle><circle class="dot" cx="227.15867158671585" cy="170" r="3" fill="#2563eb"></circle><circle class="dot" cx="228.4870848708487" cy="170" r="3" fill="#2563eb"></circle><circle class="dot" cx="229.81549815498155" cy="170" r="3" fill="#2563eb"></circle><circle class="dot" cx="231.1439114391144" cy="170" r="3" fill="#2563eb"></circle><circle class="dot" cx="232.47232472324725" cy="170" r="3" fill="#2563eb"></circle><circle class="dot" cx="233.80073800738006" cy="170" r="3" fill="#2563eb"></circle><circle class="dot" cx="235.12915129151293" cy="170" r="3" fill="#2563eb"></circle><circle class="dot" cx="236.45756457564576" cy="170" r="3" fill="#2563eb"></circle><circle class="dot" cx="237.78597785977863" cy="170" r="3" fill="#2563eb"></circle><circle class="dot" cx="239.11439114391143" cy="170" r="3" fill="#2563eb"></circle><circle class="dot" cx="240.44280442804427" cy="170" r="3" fill="#2563eb"></circle><circle class="dot" cx="241.77121771217713" cy="170" r="3" fill="#2563eb"></circle><circle class="dot" cx="243.09963099630994" cy="170" r="3" fill="#2563eb"></circle><circle class="dot" cx="244.4280442804428" cy="170" r="3" fill="#2563eb"></circle><circle class="dot" cx="245.75645756457564" cy="170" r="3" fill="#2563eb"></circle><circle class="dot" cx="247.0848708487085" cy="170" r="3" fill="#2563eb"></circle><circle class="dot" cx="248.4132841328413" cy="170" r="3" fill="#2563eb"></circle><circle class="dot" cx="249.74169741697418" cy="170" r="3" fill="#2563eb"></circle><circle class="dot" cx="251.070110701107" cy="170" r="3" fill="#2563eb"></circle><circle class="dot" cx="252.39852398523988" cy="170" r="3" fill="#2563eb"></circle><circle class="dot" cx="253.72693726937268" cy="170" r="3" fill="#2563eb"></circle><circle class="dot" cx="255.05535055350552" cy="170" r="3" fill="#2563eb"></circle><circle class="dot" cx="256.38376383763836" cy="170" r="3" fill="#2563eb"></circle><circle class="dot" cx="257.7121771217712" cy="170" r="3" fill="#2563eb"></circle><circle class="dot" cx="259.0405904059041" cy="170" r="3" fill="#2563eb"></circle><circle class="dot" cx="260.3690036900369" cy="170" r="3" fill="#2563eb"></circle><circle class="dot" cx="261.69741697416976" cy="170" r="3" fill="#2563eb"></circle><circle class="dot" cx="263.02583025830256" cy="170" r="3" fill="#2563eb"></circle><circle class="dot" cx="264.3542435424354" cy="170" r="3" fill="#2563eb"></circle><circle class="dot" cx="265.6826568265683" cy="170" r="3" fill="#2563eb"></circle><circle class="dot" cx="267.0110701107011" cy="170" r="3" fill="#2563eb"></circle><circle class="dot" cx="268.33948339483396" cy="170" r="3" fill="#2563eb"></circle><circle class="dot" cx="269.66789667896677" cy="170" r="3" fill="#2563eb"></circle><circle class="dot" cx="270.99630996309963" cy="170" r="3" fill="#2563eb"></circle><circle class="dot" cx="272.32472324723244" cy="170" r="3" fill="#2563eb"></circle><circle class="dot" cx="273.6531365313653" cy="170" r="3" fill="#2563eb"></circle><circle class="dot" cx="274.98154981549817" cy="170" r="3" fill="#2563eb"></circle><circle class="dot" cx="276.30996309963103" cy="170" r="3" fill="#2563eb"></circle><circle class="dot" cx="277.63837638376384" cy="170" r="3" fill="#2563eb"></circle><circle class="dot" cx="278.9667896678967" cy="170" r="3" fill="#2563eb"></circle><circle class="dot" cx="280.2952029520295" cy="170" r="3" fill="#2563eb"></circle><circle class="dot" cx="281.6236162361623" cy="170" r="3" fill="#2563eb"></circle><circle class="dot" cx="282.9520295202952" cy="170" r="3" fill="#2563eb"></circle><circle class="dot" cx="284.28044280442805" cy="170" r="3" fill="#2563eb"></circle><circle class="dot" cx="285.6088560885609" cy="170" r="3" fill="#2563eb"></circle><circle class="dot" cx="286.9372693726937" cy="170" r="3" fill="#2563eb"></circle><circle class="dot" cx="288.2656826568266" cy="170" r="3" fill="#2563eb"></circle><circle class="dot" cx="289.5940959409594" cy="170" r="3" fill="#2563eb"></circle><circle class="dot" cx="290.92250922509226" cy="170" r="3" fill="#2563eb"></circle><circle class="dot" cx="292.25092250922506" cy="170" r="3" fill="#2563eb"></circle><circle class="dot" cx="293.5793357933579" cy="170" r="3" fill="#2563eb"></circle><circle class="dot" cx="294.9077490774908" cy="170" r="3" fill="#2563eb"></circle><circle class="dot" cx="296.2361623616236" cy="170" r="3" fill="#2563eb"></circle><circle class="dot" cx="297.56457564575646" cy="170" r="3" fill="#2563eb"></circle><circle class="dot" cx="298.89298892988927" cy="170" r="3" fill="#2563eb"></circle><circle class="dot" cx="300.22140221402213" cy="170" r="3" fill="#2563eb"></circle><circle class="dot" cx="301.549815498155" cy="170" r="3" fill="#2563eb"></circle><circle class="dot" cx="302.87822878228786" cy="170" r="3" fill="#2563eb"></circle><circle class="dot" cx="304.20664206642067" cy="170" r="3" fill="#2563eb"></circle><circle class="dot" cx="305.53505535055353" cy="170" r="3" fill="#2563eb"></circle><circle class="dot" cx="306.86346863468634" cy="170" r="3" fill="#2563eb"></circle><circle class="dot" cx="308.19188191881915" cy="170" r="3" fill="#2563eb"></circle><circle class="dot" cx="309.520295202952" cy="170" r="3" fill="#2563eb"></circle><circle class="dot" cx="310.8487084870849" cy="170" r="3" fill="#2563eb"></circle><circle class="dot" cx="312.17712177121774" cy="170" r="3" fill="#2563eb"></circle><circle class="dot" cx="313.50553505535055" cy="170" r="3" fill="#2563eb"></circle><circle class="dot" cx="314.8339483394834" cy="170" r="3" fill="#2563eb"></circle><circle class="dot" cx="316.1623616236162" cy="170" r="3" fill="#2563eb"></circle><circle class="dot" cx="317.4907749077491" cy="170" r="3" fill="#2563eb"></circle><circle class="dot" cx="318.8191881918819" cy="170" r="3" fill="#2563eb"></circle><circle class="dot" cx="320.14760147601476" cy="170" r="3" fill="#2563eb"></circle><circle class="dot" cx="321.4760147601476" cy="170" r="3" fill="#2563eb"></circle><circle class="dot" cx="322.8044280442804" cy="170" r="3" fill="#2563eb"></circle><circle class="dot" cx="324.1328413284133" cy="170" r="3" fill="#2563eb"></circle><circle class="dot" cx="325.4612546125461" cy="170" r="3" fill="#2563eb"></circle><circle class="dot" cx="326.78966789667896" cy="170" r="3" fill="#2563eb"></circle><circle class="dot" cx="328.1180811808118" cy="170" r="3" fill="#2563eb"></circle><circle class="dot" cx="329.44649446494464" cy="170" r="3" fill="#2563eb"></circle><circle class="dot" cx="330.7749077490775" cy="170" r="3" fill="#2563eb"></circle><circle class="dot" cx="332.10332103321036" cy="170" r="3" fill="#2563eb"></circle><circle class="dot" cx="333.43173431734317" cy="170" r="3" fill="#2563eb"></circle><circle class="dot" cx="334.760147601476" cy="170" r="3" fill="#2563eb"></circle><circle class="dot" cx="336.08856088560884" cy="170" r="3" fill="#2563eb"></circle><circle class="dot" cx="337.4169741697417" cy="170" r="3" fill="#2563eb"></circle><circle class="dot" cx="338.74538745387457" cy="170" r="3" fill="#2563eb"></circle><circle class="dot" cx="340.0738007380074" cy="170" r="3" fill="#2563eb"></circle><circle class="dot" cx="341.40221402214024" cy="170" r="3" fill="#2563eb"></circle><circle class="dot" cx="342.73062730627305" cy="170" r="3" fill="#2563eb"></circle><circle class="dot" cx="344.0590405904059" cy="170" r="3" fill="#2563eb"></circle><circle class="dot" cx="345.3874538745387" cy="170" r="3" fill="#2563eb"></circle><circle class="dot" cx="346.7158671586716" cy="170" r="3" fill="#2563eb"></circle><circle class="dot" cx="348.04428044280445" cy="170" r="3" fill="#2563eb"></circle><circle class="dot" cx="349.37269372693726" cy="170" r="3" fill="#2563eb"></circle><circle class="dot" cx="350.7011070110701" cy="170" r="3" fill="#2563eb"></circle><circle class="dot" cx="352.02952029520293" cy="170" r="3" fill="#2563eb"></circle><circle class="dot" cx="353.3579335793358" cy="170" r="3" fill="#2563eb"></circle><circle class="dot" cx="354.6863468634686" cy="170" r="3" fill="#2563eb"></circle><circle class="dot" cx="356.01476014760146" cy="170" r="3" fill="#2563eb"></circle><circle class="dot" cx="357.34317343173433" cy="170" r="3" fill="#2563eb"></circle><circle class="dot" cx="358.6715867158672" cy="170" r="3" fill="#2563eb"></circle><circle class="dot" cx="360" cy="170" r="3" fill="#2563eb"></circle><circle class="dot" cx="361.3284132841328" cy="170" r="3" fill="#2563eb"></circle><circle class="dot" cx="362.65682656826567" cy="170" r="3" fill="#2563eb"></circle><circle class="dot" cx="363.98523985239854" cy="170" r="3" fill="#2563eb"></circle><circle class="dot" cx="365.3136531365314" cy="170" r="3" fill="#2563eb"></circle><circle class="dot" cx="366.6420664206642" cy="170" r="3" fill="#2563eb"></circle><circle class="dot" cx="367.970479704797" cy="170" r="3" fill="#2563eb"></circle><circle class="dot" cx="369.29889298892994" cy="170" r="3" fill="#2563eb"></circle><circle class="dot" cx="370.62730627306274" cy="170" r="3" fill="#2563eb"></circle><circle class="dot" cx="371.95571955719555" cy="170" r="3" fill="#2563eb"></circle><circle class="dot" cx="373.2841328413284" cy="170" r="3" fill="#2563eb"></circle><circle class="dot" cx="374.6125461254612" cy="170" r="3" fill="#2563eb"></circle><circle class="dot" cx="375.94095940959414" cy="170" r="3" fill="#2563eb"></circle><circle class="dot" cx="377.26937269372695" cy="170" r="3" fill="#2563eb"></circle><circle class="dot" cx="378.59778597785976" cy="170" r="3" fill="#2563eb"></circle><circle class="dot" cx="379.92619926199256" cy="170" r="3" fill="#2563eb"></circle><circle class="dot" cx="381.2546125461255" cy="170" r="3" fill="#2563eb"></circle><circle class="dot" cx="382.5830258302583" cy="170" r="3" fill="#2563eb"></circle><circle class="dot" cx="383.91143911439116" cy="170" r="3" fill="#2563eb"></circle><circle class="dot" cx="385.23985239852396" cy="170" r="3" fill="#2563eb"></circle><circle class="dot" cx="386.5682656826569" cy="170" r="3" fill="#2563eb"></circle><circle class="dot" cx="387.8966789667897" cy="170" r="3" fill="#2563eb"></circle><circle class="dot" cx="389.2250922509225" cy="170" r="3" fill="#2563eb"></circle><circle class="dot" cx="390.55350553505536" cy="170" r="3" fill="#2563eb"></circle><circle class="dot" cx="391.8819188191882" cy="170" r="3" fill="#2563eb"></circle><circle class="dot" cx="393.21033210332104" cy="170" r="3" fill="#2563eb"></circle><circle class="dot" cx="394.5387453874539" cy="170" r="3" fill="#2563eb"></circle><circle class="dot" cx="395.8671586715867" cy="170" r="3" fill="#2563eb"></circle><circle class="dot" cx="397.1955719557195" cy="170" r="3" fill="#2563eb"></circle><circle class="dot" cx="398.52398523985244" cy="170" r="3" fill="#2563eb"></circle><circle class="dot" cx="399.85239852398524" cy="170" r="3" fill="#2563eb"></circle><circle class="dot" cx="401.1808118081181" cy="170" r="3" fill="#2563eb"></circle><circle class="dot" cx="402.5092250922509" cy="170" r="3" fill="#2563eb"></circle><circle class="dot" cx="403.8376383763837" cy="170" r="3" fill="#2563eb"></circle><circle class="dot" cx="405.16605166051664" cy="170" r="3" fill="#2563eb"></circle><circle class="dot" cx="406.49446494464945" cy="170" r="3" fill="#2563eb"></circle><circle class="dot" cx="407.82287822878226" cy="170" r="3" fill="#2563eb"></circle><circle class="dot" cx="409.1512915129151" cy="170" r="3" fill="#2563eb"></circle><circle class="dot" cx="410.479704797048" cy="170" r="3" fill="#2563eb"></circle><circle class="dot" cx="411.80811808118085" cy="170" r="3" fill="#2563eb"></circle><circle class="dot" cx="413.13653136531366" cy="170" r="3" fill="#2563eb"></circle><circle class="dot" cx="414.46494464944647" cy="170" r="3" fill="#2563eb"></circle><circle class="dot" cx="415.7933579335793" cy="170" r="3" fill="#2563eb"></circle><circle class="dot" cx="417.1217712177122" cy="170" r="3" fill="#2563eb"></circle><circle class="dot" cx="418.450184501845" cy="170" r="3" fill="#2563eb"></circle><circle class="dot" cx="419.77859778597787" cy="170" r="3" fill="#2563eb"></circle><circle class="dot" cx="421.1070110701107" cy="170" r="3" fill="#2563eb"></circle><circle class="dot" cx="422.4354243542436" cy="170" r="3" fill="#2563eb"></circle><circle class="dot" cx="423.7638376383764" cy="170" r="3" fill="#2563eb"></circle><circle class="dot" cx="425.0922509225092" cy="170" r="3" fill="#2563eb"></circle><circle class="dot" cx="426.4206642066421" cy="170" r="3" fill="#2563eb"></circle><circle class="dot" cx="427.7490774907749" cy="170" r="3" fill="#2563eb"></circle><circle class="dot" cx="429.0774907749078" cy="170" r="3" fill="#2563eb"></circle><circle class="dot" cx="430.4059040590406" cy="170" r="3" fill="#2563eb"></circle><circle class="dot" cx="431.7343173431734" cy="170" r="3" fill="#2563eb"></circle><circle class="dot" cx="433.0627306273062" cy="170" r="3" fill="#2563eb"></circle><circle class="dot" cx="434.39114391143914" cy="170" r="3" fill="#2563eb"></circle><circle class="dot" cx="435.71955719557195" cy="170" r="3" fill="#2563eb"></circle><circle class="dot" cx="437.0479704797048" cy="170" r="3" fill="#2563eb"></circle><circle class="dot" cx="438.3763837638376" cy="170" r="3" fill="#2563eb"></circle><circle class="dot" cx="439.70479704797054" cy="170" r="3" fill="#2563eb"></circle><circle class="dot" cx="441.03321033210335" cy="170" r="3" fill="#2563eb"></circle><circle class="dot" cx="442.36162361623616" cy="170" r="3" fill="#2563eb"></circle><circle class="dot" cx="443.69003690036897" cy="170" r="3" fill="#2563eb"></circle><circle class="dot" cx="445.01845018450183" cy="170" r="3" fill="#2563eb"></circle><circle class="dot" cx="446.3468634686347" cy="170" r="3" fill="#2563eb"></circle><circle class="dot" cx="447.67527675276756" cy="170" r="3" fill="#2563eb"></circle><circle class="dot" cx="449.00369003690037" cy="170" r="3" fill="#2563eb"></circle><circle class="dot" cx="450.3321033210332" cy="170" r="3" fill="#2563eb"></circle><circle class="dot" cx="451.6605166051661" cy="170" r="3" fill="#2563eb"></circle><circle class="dot" cx="452.9889298892989" cy="170" r="3" fill="#2563eb"></circle><circle class="dot" cx="454.3173431734317" cy="170" r="3" fill="#2563eb"></circle><circle class="dot" cx="455.6457564575646" cy="170" r="3" fill="#2563eb"></circle><circle class="dot" cx="456.9741697416974" cy="170" r="3" fill="#2563eb"></circle><circle class="dot" cx="458.3025830258303" cy="170" r="3" fill="#2563eb"></circle><circle class="dot" cx="459.6309963099631" cy="170" r="3" fill="#2563eb"></circle><circle class="dot" cx="460.9594095940959" cy="170" r="3" fill="#2563eb"></circle><circle class="dot" cx="462.2878228782288" cy="170" r="3" fill="#2563eb"></circle><circle class="dot" cx="463.61623616236164" cy="170" r="3" fill="#2563eb"></circle><circle class="dot" cx="464.9446494464945" cy="170" r="3" fill="#2563eb"></circle><circle class="dot" cx="466.2730627306273" cy="170" r="3" fill="#2563eb"></circle><circle class="dot" cx="467.6014760147601" cy="170" r="3" fill="#2563eb"></circle><circle class="dot" cx="468.92988929889293" cy="170" r="3" fill="#2563eb"></circle><circle class="dot" cx="470.25830258302585" cy="170" r="3" fill="#2563eb"></circle><circle class="dot" cx="471.58671586715866" cy="170" r="3" fill="#2563eb"></circle><circle class="dot" cx="472.9151291512915" cy="170" r="3" fill="#2563eb"></circle><circle class="dot" cx="474.24354243542433" cy="170" r="3" fill="#2563eb"></circle><circle class="dot" cx="475.57195571955725" cy="170" r="3" fill="#2563eb"></circle><circle class="dot" cx="476.90036900369006" cy="170" r="3" fill="#2563eb"></circle><circle class="dot" cx="478.22878228782287" cy="170" r="3" fill="#2563eb"></circle><circle class="dot" cx="479.5571955719557" cy="170" r="3" fill="#2563eb"></circle><circle class="dot" cx="480.88560885608854" cy="170" r="3" fill="#2563eb"></circle><circle class="dot" cx="482.2140221402214" cy="170" r="3" fill="#2563eb"></circle><circle class="dot" cx="483.54243542435427" cy="170" r="3" fill="#2563eb"></circle><circle class="dot" cx="484.8708487084871" cy="170" r="3" fill="#2563eb"></circle><circle class="dot" cx="486.1992619926199" cy="170" r="3" fill="#2563eb"></circle><circle class="dot" cx="487.5276752767528" cy="170" r="3" fill="#2563eb"></circle><circle class="dot" cx="488.8560885608856" cy="170" r="3" fill="#2563eb"></circle><circle class="dot" cx="490.1845018450184" cy="170" r="3" fill="#2563eb"></circle><circle class="dot" cx="491.5129151291513" cy="170" r="3" fill="#2563eb"></circle><circle class="dot" cx="492.84132841328415" cy="170" r="3" fill="#2563eb"></circle><circle class="dot" cx="494.169741697417" cy="170" r="3" fill="#2563eb"></circle><circle class="dot" cx="495.4981549815498" cy="170" r="3" fill="#2563eb"></circle><circle class="dot" cx="496.8265682656826" cy="170" r="3" fill="#2563eb"></circle><circle class="dot" cx="498.1549815498155" cy="170" r="3" fill="#2563eb"></circle><circle class="dot" cx="499.48339483394835" cy="170" r="3" fill="#2563eb"></circle><circle class="dot" cx="500.8118081180812" cy="170" r="3" fill="#2563eb"></circle><circle class="dot" cx="502.140221402214" cy="170" r="3" fill="#2563eb"></circle><circle class="dot" cx="503.46863468634683" cy="170" r="3" fill="#2563eb"></circle><circle class="dot" cx="504.79704797047975" cy="170" r="3" fill="#2563eb"></circle><circle class="dot" cx="506.12546125461256" cy="170" r="3" fill="#2563eb"></circle><circle class="dot" cx="507.45387453874537" cy="170" r="3" fill="#2563eb"></circle><circle class="dot" cx="508.78228782287823" cy="170" r="3" fill="#2563eb"></circle><circle class="dot" cx="510.11070110701104" cy="170" r="3" fill="#2563eb"></circle><circle class="dot" cx="511.43911439114396" cy="170" r="3" fill="#2563eb"></circle><circle class="dot" cx="512.7675276752767" cy="170" r="3" fill="#2563eb"></circle><circle class="dot" cx="514.0959409594096" cy="170" r="3" fill="#2563eb"></circle><circle class="dot" cx="515.4243542435424" cy="170" r="3" fill="#2563eb"></circle><circle class="dot" cx="516.7527675276754" cy="170" r="3" fill="#2563eb"></circle><circle class="dot" cx="518.0811808118082" cy="170" r="3" fill="#2563eb"></circle><circle class="dot" cx="519.409594095941" cy="170" r="3" fill="#2563eb"></circle><circle class="dot" cx="520.7380073800738" cy="170" r="3" fill="#2563eb"></circle><circle class="dot" cx="522.0664206642066" cy="170" r="3" fill="#2563eb"></circle><circle class="dot" cx="523.3948339483395" cy="170" r="3" fill="#2563eb"></circle><circle class="dot" cx="524.7232472324723" cy="170" r="3" fill="#2563eb"></circle><circle class="dot" cx="526.0516605166051" cy="170" r="3" fill="#2563eb"></circle><circle class="dot" cx="527.3800738007379" cy="170" r="3" fill="#2563eb"></circle><circle class="dot" cx="528.7084870848709" cy="170" r="3" fill="#2563eb"></circle><circle class="dot" cx="530.0369003690037" cy="170" r="3" fill="#2563eb"></circle><circle class="dot" cx="531.3653136531366" cy="170" r="3" fill="#2563eb"></circle><circle class="dot" cx="532.6937269372694" cy="170" r="3" fill="#2563eb"></circle><circle class="dot" cx="534.0221402214022" cy="170" r="3" fill="#2563eb"></circle><circle class="dot" cx="535.3505535055351" cy="170" r="3" fill="#2563eb"></circle><circle class="dot" cx="536.6789667896679" cy="170" r="3" fill="#2563eb"></circle><circle class="dot" cx="538.0073800738007" cy="170" r="3" fill="#2563eb"></circle><circle class="dot" cx="539.3357933579335" cy="170" r="3" fill="#2563eb"></circle><circle class="dot" cx="540.6642066420665" cy="170" r="3" fill="#2563eb"></circle><circle class="dot" cx="541.9926199261993" cy="170" r="3" fill="#2563eb"></circle><circle class="dot" cx="543.3210332103321" cy="170" r="3" fill="#2563eb"></circle><circle class="dot" cx="544.6494464944649" cy="170" r="3" fill="#2563eb"></circle><circle class="dot" cx="545.9778597785978" cy="170" r="3" fill="#2563eb"></circle><circle class="dot" cx="547.3062730627306" cy="170" r="3" fill="#2563eb"></circle><circle class="dot" cx="548.6346863468634" cy="170" r="3" fill="#2563eb"></circle><circle class="dot" cx="549.9630996309963" cy="170" r="3" fill="#2563eb"></circle><circle class="dot" cx="551.2915129151291" cy="170" r="3" fill="#2563eb"></circle><circle class="dot" cx="552.6199261992621" cy="170" r="3" fill="#2563eb"></circle><circle class="dot" cx="553.9483394833949" cy="170" r="3" fill="#2563eb"></circle><circle class="dot" cx="555.2767527675277" cy="170" r="3" fill="#2563eb"></circle><circle class="dot" cx="556.6051660516605" cy="170" r="3" fill="#2563eb"></circle><circle class="dot" cx="557.9335793357934" cy="170" r="3" fill="#2563eb"></circle><circle class="dot" cx="559.2619926199262" cy="170" r="3" fill="#2563eb"></circle><circle class="dot" cx="560.590405904059" cy="170" r="3" fill="#2563eb"></circle><circle class="dot" cx="561.9188191881918" cy="170" r="3" fill="#2563eb"></circle><circle class="dot" cx="563.2472324723246" cy="170" r="3" fill="#2563eb"></circle><circle class="dot" cx="564.5756457564576" cy="170" r="3" fill="#2563eb"></circle><circle class="dot" cx="565.9040590405904" cy="170" r="3" fill="#2563eb"></circle><circle class="dot" cx="567.2324723247233" cy="170" r="3" fill="#2563eb"></circle><circle class="dot" cx="568.5608856088561" cy="170" r="3" fill="#2563eb"></circle><circle class="dot" cx="569.889298892989" cy="170" r="3" fill="#2563eb"></circle><circle class="dot" cx="571.2177121771218" cy="170" r="3" fill="#2563eb"></circle><circle class="dot" cx="572.5461254612546" cy="170" r="3" fill="#2563eb"></circle><circle class="dot" cx="573.8745387453874" cy="170" r="3" fill="#2563eb"></circle><circle class="dot" cx="575.2029520295202" cy="170" r="3" fill="#2563eb"></circle><circle class="dot" cx="576.5313653136532" cy="170" r="3" fill="#2563eb"></circle><circle class="dot" cx="577.859778597786" cy="170" r="3" fill="#2563eb"></circle><circle class="dot" cx="579.1881918819188" cy="170" r="3" fill="#2563eb"></circle><circle class="dot" cx="580.5166051660516" cy="170" r="3" fill="#2563eb"></circle><circle class="dot" cx="581.8450184501845" cy="170" r="3" fill="#2563eb"></circle><circle class="dot" cx="583.1734317343173" cy="170" r="3" fill="#2563eb"></circle><circle class="dot" cx="584.5018450184501" cy="170" r="3" fill="#2563eb"></circle><circle class="dot" cx="585.830258302583" cy="170" r="3" fill="#2563eb"></circle><circle class="dot" cx="587.1586715867159" cy="170" r="3" fill="#2563eb"></circle><circle class="dot" cx="588.4870848708488" cy="170" r="3" fill="#2563eb"></circle><circle class="dot" cx="589.8154981549816" cy="170" r="3" fill="#2563eb"></circle><circle class="dot" cx="591.1439114391144" cy="170" r="3" fill="#2563eb"></circle><circle class="dot" cx="592.4723247232472" cy="170" r="3" fill="#2563eb"></circle><circle class="dot" cx="593.8007380073801" cy="170" r="3" fill="#2563eb"></circle><circle class="dot" cx="595.1291512915129" cy="170" r="3" fill="#2563eb"></circle><circle class="dot" cx="596.4575645756457" cy="170" r="3" fill="#2563eb"></circle><circle class="dot" cx="597.7859778597785" cy="170" r="3" fill="#2563eb"></circle><circle class="dot" cx="599.1143911439115" cy="170" r="3" fill="#2563eb"></circle><circle class="dot" cx="600.4428044280443" cy="170" r="3" fill="#2563eb"></circle><circle class="dot" cx="601.7712177121771" cy="170" r="3" fill="#2563eb"></circle><circle class="dot" cx="603.09963099631" cy="170" r="3" fill="#2563eb"></circle><circle class="dot" cx="604.4280442804428" cy="170" r="3" fill="#2563eb"></circle><circle class="dot" cx="605.7564575645757" cy="170" r="3" fill="#2563eb"></circle><circle class="dot" cx="607.0848708487085" cy="170" r="3" fill="#2563eb"></circle><circle class="dot" cx="608.4132841328413" cy="170" r="3" fill="#2563eb"></circle><circle class="dot" cx="609.7416974169741" cy="170" r="3" fill="#2563eb"></circle><circle class="dot" cx="611.0701107011071" cy="170" r="3" fill="#2563eb"></circle><circle class="dot" cx="612.3985239852399" cy="170" r="3" fill="#2563eb"></circle><circle class="dot" cx="613.7269372693727" cy="170" r="3" fill="#2563eb"></circle><circle class="dot" cx="615.0553505535055" cy="170" r="3" fill="#2563eb"></circle><circle class="dot" cx="616.3837638376383" cy="170" r="3" fill="#2563eb"></circle><circle class="dot" cx="617.7121771217712" cy="170" r="3" fill="#2563eb"></circle><circle class="dot" cx="619.040590405904" cy="170" r="3" fill="#2563eb"></circle><circle class="dot" cx="620.3690036900368" cy="170" r="3" fill="#2563eb"></circle><circle class="dot" cx="621.6974169741698" cy="170" r="3" fill="#2563eb"></circle><circle class="dot" cx="623.0258302583026" cy="170" r="3" fill="#2563eb"></circle><circle class="dot" cx="624.3542435424355" cy="170" r="3" fill="#2563eb"></circle><circle class="dot" cx="625.6826568265683" cy="170" r="3" fill="#2563eb"></circle><circle class="dot" cx="627.0110701107011" cy="170" r="3" fill="#2563eb"></circle><circle class="dot" cx="628.3394833948339" cy="170" r="3" fill="#2563eb"></circle><circle class="dot" cx="629.6678966789668" cy="170" r="3" fill="#2563eb"></circle><circle class="dot" cx="630.9963099630996" cy="170" r="3" fill="#2563eb"></circle><circle class="dot" cx="632.3247232472324" cy="170" r="3" fill="#2563eb"></circle><circle class="dot" cx="633.6531365313652" cy="170" r="3" fill="#2563eb"></circle><circle class="dot" cx="634.9815498154982" cy="170" r="3" fill="#2563eb"></circle><circle class="dot" cx="636.309963099631" cy="170" r="3" fill="#2563eb"></circle><circle class="dot" cx="637.6383763837638" cy="170" r="3" fill="#2563eb"></circle><circle class="dot" cx="638.9667896678967" cy="170" r="3" fill="#2563eb"></circle><circle class="dot" cx="640.2952029520295" cy="170" r="3" fill="#2563eb"></circle><circle class="dot" cx="641.6236162361624" cy="170" r="3" fill="#2563eb"></circle><circle class="dot" cx="642.9520295202952" cy="170" r="3" fill="#2563eb"></circle><circle class="dot" cx="644.280442804428" cy="170" r="3" fill="#2563eb"></circle><circle class="dot" cx="645.6088560885609" cy="170" r="3" fill="#2563eb"></circle><circle class="dot" cx="646.9372693726938" cy="170" r="3" fill="#2563eb"></circle><circle class="dot" cx="648.2656826568266" cy="170" r="3" fill="#2563eb"></circle><circle class="dot" cx="649.5940959409594" cy="170" r="3" fill="#2563eb"></circle><circle class="dot" cx="650.9225092250922" cy="170" r="3" fill="#2563eb"></circle><circle class="dot" cx="652.2509225092251" cy="170" r="3" fill="#2563eb"></circle><circle class="dot" cx="653.5793357933579" cy="170" r="3" fill="#2563eb"></circle><circle class="dot" cx="654.9077490774907" cy="170" r="3" fill="#2563eb"></circle><circle class="dot" cx="656.2361623616237" cy="170" r="3" fill="#2563eb"></circle><circle class="dot" cx="657.5645756457565" cy="170" r="3" fill="#2563eb"></circle><circle class="dot" cx="658.8929889298893" cy="170" r="3" fill="#2563eb"></circle><circle class="dot" cx="660.2214022140222" cy="170" r="3" fill="#2563eb"></circle><circle class="dot" cx="661.549815498155" cy="170" r="3" fill="#2563eb"></circle><circle class="dot" cx="662.8782287822878" cy="170" r="3" fill="#2563eb"></circle><circle class="dot" cx="664.2066420664207" cy="170" r="3" fill="#2563eb"></circle><circle class="dot" cx="665.5350553505535" cy="170" r="3" fill="#2563eb"></circle><circle class="dot" cx="666.8634686346863" cy="170" r="3" fill="#2563eb"></circle><circle class="dot" cx="668.1918819188191" cy="170" r="3" fill="#2563eb"></circle><circle class="dot" cx="669.520295202952" cy="170" r="3" fill="#2563eb"></circle><circle class="dot" cx="670.8487084870849" cy="170" r="3" fill="#2563eb"></circle><circle class="dot" cx="672.1771217712177" cy="170" r="3" fill="#2563eb"></circle><circle class="dot" cx="673.5055350553505" cy="170" r="3" fill="#2563eb"></circle><circle class="dot" cx="674.8339483394834" cy="170" r="3" fill="#2563eb"></circle><circle class="dot" cx="676.1623616236162" cy="170" r="3" fill="#2563eb"></circle><circle class="dot" cx="677.4907749077491" cy="170" r="3" fill="#2563eb"></circle><circle class="dot" cx="678.819188191882" cy="170" r="3" fill="#2563eb"></circle><circle class="dot" cx="680.1476014760148" cy="170" r="3" fill="#2563eb"></circle><circle class="dot" cx="681.4760147601476" cy="170" r="3" fill="#2563eb"></circle><circle class="dot" cx="682.8044280442805" cy="170" r="3" fill="#2563eb"></circle><circle class="dot" cx="684.1328413284133" cy="170" r="3" fill="#2563eb"></circle><circle class="dot" cx="685.4612546125461" cy="170" r="3" fill="#2563eb"></circle><circle class="dot" cx="686.7896678966789" cy="170" r="3" fill="#2563eb"></circle><circle class="dot" cx="688.1180811808118" cy="170" r="3" fill="#2563eb"></circle><circle class="dot" cx="689.4464944649446" cy="170" r="3" fill="#2563eb"></circle><circle class="dot" cx="690.7749077490774" cy="170" r="3" fill="#2563eb"></circle><circle class="dot" cx="692.1033210332104" cy="170" r="3" fill="#2563eb"></circle><circle class="dot" cx="693.4317343173432" cy="170" r="3" fill="#2563eb"></circle><circle class="dot" cx="694.7601476014761" cy="170" r="3" fill="#2563eb"></circle><circle class="dot" cx="696.0885608856089" cy="170" r="3" fill="#2563eb"></circle><circle class="dot" cx="697.4169741697417" cy="170" r="3" fill="#2563eb"></circle><circle class="dot" cx="698.7453874538745" cy="170" r="3" fill="#2563eb"></circle><circle class="dot" cx="700.0738007380074" cy="170" r="3" fill="#2563eb"></circle><circle class="dot" cx="701.4022140221402" cy="170" r="3" fill="#2563eb"></circle><circle class="dot" cx="702.730627306273" cy="170" r="3" fill="#2563eb"></circle><circle class="dot" cx="704.0590405904059" cy="170" r="3" fill="#2563eb"></circle><circle class="dot" cx="705.3874538745388" cy="170" r="3" fill="#2563eb"></circle><circle class="dot" cx="706.7158671586716" cy="170" r="3" fill="#2563eb"></circle><circle class="dot" cx="708.0442804428044" cy="170" r="3" fill="#2563eb"></circle><circle class="dot" cx="709.3726937269372" cy="170" r="3" fill="#2563eb"></circle><circle class="dot" cx="710.7011070110701" cy="170" r="3" fill="#2563eb"></circle><circle class="dot" cx="712.0295202952029" cy="170" r="3" fill="#2563eb"></circle><circle class="dot" cx="713.3579335793358" cy="170" r="3" fill="#2563eb"></circle><circle class="dot" cx="714.6863468634687" cy="170" r="3" fill="#2563eb"></circle><circle class="dot" cx="716.0147601476015" cy="170" r="3" fill="#2563eb"></circle><circle class="dot" cx="717.3431734317344" cy="170" r="3" fill="#2563eb"></circle><circle class="dot" cx="718.6715867158672" cy="170" r="3" fill="#2563eb"></circle><circle class="dot" cx="720" cy="170" r="3" fill="#2563eb"></circle><g class="grid" transform="translate(0,340)" fill="none" font-size="10" font-family="sans-serif" text-anchor="middle" style="stroke-dasharray: 3,3; opacity: 0.3;"><path class="domain" stroke="currentColor" d="M0.5,-340V0.5H720.5V-340"></path><g class="tick" opacity="1" transform="translate(0.5,0)"><line stroke="currentColor" y2="-340"></line><text fill="currentColor" y="3" dy="0.71em"></text></g><g class="tick" opacity="1" transform="translate(32.381918819188186,0)"><line stroke="currentColor" y2="-340"></line><text fill="currentColor" y="3" dy="0.71em"></text></g><g class="tick" opacity="1" transform="translate(64.26383763837637,0)"><line stroke="currentColor" y2="-340"></line><text fill="currentColor" y="3" dy="0.71em"></text></g><g class="tick" opacity="1" transform="translate(96.14575645756457,0)"><line stroke="currentColor" y2="-340"></line><text fill="currentColor" y="3" dy="0.71em"></text></g><g class="tick" opacity="1" transform="translate(128.02767527675275,0)"><line stroke="currentColor" y2="-340"></line><text fill="currentColor" y="3" dy="0.71em"></text></g><g class="tick" opacity="1" transform="translate(159.90959409594095,0)"><line stroke="currentColor" y2="-340"></line><text fill="currentColor" y="3" dy="0.71em"></text></g><g class="tick" opacity="1" transform="translate(191.79151291512915,0)"><line stroke="currentColor" y2="-340"></line><text fill="currentColor" y="3" dy="0.71em"></text></g><g class="tick" opacity="1" transform="translate(223.67343173431735,0)"><line stroke="currentColor" y2="-340"></line><text fill="currentColor" y="3" dy="0.71em"></text></g><g class="tick" opacity="1" transform="translate(255.55535055350552,0)"><line stroke="currentColor" y2="-340"></line><text fill="currentColor" y="3" dy="0.71em"></text></g><g class="tick" opacity="1" transform="translate(287.4372693726937,0)"><line stroke="currentColor" y2="-340"></line><text fill="currentColor" y="3" dy="0.71em"></text></g><g class="tick" opacity="1" transform="translate(319.3191881918819,0)"><line stroke="currentColor" y2="-340"></line><text fill="currentColor" y="3" dy="0.71em"></text></g><g class="tick" opacity="1" transform="translate(351.2011070110701,0)"><line stroke="currentColor" y2="-340"></line><text fill="currentColor" y="3" dy="0.71em"></text></g><g class="tick" opacity="1" transform="translate(383.0830258302583,0)"><line stroke="currentColor" y2="-340"></line><text fill="currentColor" y="3" dy="0.71em"></text></g><g class="tick" opacity="1" transform="translate(414.96494464944647,0)"><line stroke="currentColor" y2="-340"></line><text fill="currentColor" y="3" dy="0.71em"></text></g><g class="tick" opacity="1" transform="translate(446.8468634686347,0)"><line stroke="currentColor" y2="-340"></line><text fill="currentColor" y="3" dy="0.71em"></text></g><g class="tick" opacity="1" transform="translate(478.72878228782287,0)"><line stroke="currentColor" y2="-340"></line><text fill="currentColor" y="3" dy="0.71em"></text></g><g class="tick" opacity="1" transform="translate(510.61070110701104,0)"><line stroke="currentColor" y2="-340"></line><text fill="currentColor" y="3" dy="0.71em"></text></g><g class="tick" opacity="1" transform="translate(542.4926199261993,0)"><line stroke="currentColor" y2="-340"></line><text fill="currentColor" y="3" dy="0.71em"></text></g><g class="tick" opacity="1" transform="translate(574.3745387453874,0)"><line stroke="currentColor" y2="-340"></line><text fill="currentColor" y="3" dy="0.71em"></text></g><g class="tick" opacity="1" transform="translate(606.2564575645757,0)"><line stroke="currentColor" y2="-340"></line><text fill="currentColor" y="3" dy="0.71em"></text></g><g class="tick" opacity="1" transform="translate(638.1383763837638,0)"><line stroke="currentColor" y2="-340"></line><text fill="currentColor" y="3" dy="0.71em"></text></g><g class="tick" opacity="1" transform="translate(670.020295202952,0)"><line stroke="currentColor" y2="-340"></line><text fill="currentColor" y="3" dy="0.71em"></text></g><g class="tick" opacity="1" transform="translate(701.9022140221402,0)"><line stroke="currentColor" y2="-340"></line><text fill="currentColor" y="3" dy="0.71em"></text></g></g><g class="grid" fill="none" font-size="10" font-family="sans-serif" text-anchor="end" style="stroke-dasharray: 3,3; opacity: 0.3;"><path class="domain" stroke="currentColor" d="M720,340.5H0.5V0.5H720"></path><g class="tick" opacity="1" transform="translate(0,170.5)"><line stroke="currentColor" x2="720"></line><text fill="currentColor" x="-3" dy="0.32em"></text></g></g></g><text x="400" y="10" text-anchor="middle" style="font-size: 16px; font-weight: bold; fill: #333;">OKX USDT Lending Rate - Current Month</text></svg>