<svg width="800" height="400" xmlns="http://www.w3.org/2000/svg"><g transform="translate(50,20)"><g transform="translate(0,340)" fill="none" font-size="10" font-family="sans-serif" text-anchor="middle"><path class="domain" stroke="currentColor" d="M0.5,6V0.5H720.5V6"></path><g class="tick" opacity="1" transform="translate(0.5,0)"><line stroke="currentColor" y2="6"></line><text fill="currentColor" y="9" dy=".15em" style="text-anchor: end;" dx="-.8em" transform="rotate(-45)">10/01</text></g><g class="tick" opacity="1" transform="translate(55.70766773162939,0)"><line stroke="currentColor" y2="6"></line><text fill="currentColor" y="9" dy=".15em" style="text-anchor: end;" dx="-.8em" transform="rotate(-45)">10/02</text></g><g class="tick" opacity="1" transform="translate(110.91533546325878,0)"><line stroke="currentColor" y2="6"></line><text fill="currentColor" y="9" dy=".15em" style="text-anchor: end;" dx="-.8em" transform="rotate(-45)">10/03</text></g><g class="tick" opacity="1" transform="translate(166.12300319488818,0)"><line stroke="currentColor" y2="6"></line><text fill="currentColor" y="9" dy=".15em" style="text-anchor: end;" dx="-.8em" transform="rotate(-45)">10/04</text></g><g class="tick" opacity="1" transform="translate(221.33067092651757,0)"><line stroke="currentColor" y2="6"></line><text fill="currentColor" y="9" dy=".15em" style="text-anchor: end;" dx="-.8em" transform="rotate(-45)">10/05</text></g><g class="tick" opacity="1" transform="translate(276.5383386581469,0)"><line stroke="currentColor" y2="6"></line><text fill="currentColor" y="9" dy=".15em" style="text-anchor: end;" dx="-.8em" transform="rotate(-45)">10/06</text></g><g class="tick" opacity="1" transform="translate(331.74600638977637,0)"><line stroke="currentColor" y2="6"></line><text fill="currentColor" y="9" dy=".15em" style="text-anchor: end;" dx="-.8em" transform="rotate(-45)">10/07</text></g><g class="tick" opacity="1" transform="translate(386.95367412140575,0)"><line stroke="currentColor" y2="6"></line><text fill="currentColor" y="9" dy=".15em" style="text-anchor: end;" dx="-.8em" transform="rotate(-45)">10/08</text></g><g class="tick" opacity="1" transform="translate(442.16134185303514,0)"><line stroke="currentColor" y2="6"></line><text fill="currentColor" y="9" dy=".15em" style="text-anchor: end;" dx="-.8em" transform="rotate(-45)">10/09</text></g><g class="tick" opacity="1" transform="translate(497.3690095846645,0)"><line stroke="currentColor" y2="6"></line><text fill="currentColor" y="9" dy=".15em" style="text-anchor: end;" dx="-.8em" transform="rotate(-45)">10/10</text></g><g class="tick" opacity="1" transform="translate(552.5766773162939,0)"><line stroke="currentColor" y2="6"></line><text fill="currentColor" y="9" dy=".15em" style="text-anchor: end;" dx="-.8em" transform="rotate(-45)">10/11</text></g><g class="tick" opacity="1" transform="translate(607.7843450479234,0)"><line stroke="currentColor" y2="6"></line><text fill="currentColor" y="9" dy=".15em" style="text-anchor: end;" dx="-.8em" transform="rotate(-45)">10/12</text></g><g class="tick" opacity="1" transform="translate(662.9920127795527,0)"><line stroke="currentColor" y2="6"></line><text fill="currentColor" y="9" dy=".15em" style="text-anchor: end;" dx="-.8em" transform="rotate(-45)">10/13</text></g><g class="tick" opacity="1" transform="translate(718.1996805111821,0)"><line stroke="currentColor" y2="6"></line><text fill="currentColor" y="9" dy=".15em" style="text-anchor: end;" dx="-.8em" transform="rotate(-45)">10/14</text></g></g><g fill="none" font-size="10" font-family="sans-serif" text-anchor="end"><path class="domain" stroke="currentColor" d="M-6,340.5H0.5V0.5H-6"></path><g class="tick" opacity="1" transform="translate(0,340.5)"><line stroke="currentColor" x2="-6"></line><text fill="currentColor" x="-9" dy="0.32em">0.00%</text></g><g class="tick" opacity="1" transform="translate(0,309.59090909090907)"><line stroke="currentColor" x2="-6"></line><text fill="currentColor" x="-9" dy="0.32em">10.00%</text></g><g class="tick" opacity="1" transform="translate(0,278.6818181818182)"><line stroke="currentColor" x2="-6"></line><text fill="currentColor" x="-9" dy="0.32em">20.00%</text></g><g class="tick" opacity="1" transform="translate(0,247.77272727272728)"><line stroke="currentColor" x2="-6"></line><text fill="currentColor" x="-9" dy="0.32em">30.00%</text></g><g class="tick" opacity="1" transform="translate(0,216.86363636363637)"><line stroke="currentColor" x2="-6"></line><text fill="currentColor" x="-9" dy="0.32em">40.00%</text></g><g class="tick" opacity="1" transform="translate(0,185.95454545454544)"><line stroke="currentColor" x2="-6"></line><text fill="currentColor" x="-9" dy="0.32em">50.00%</text></g><g class="tick" opacity="1" transform="translate(0,155.04545454545456)"><line stroke="currentColor" x2="-6"></line><text fill="currentColor" x="-9" dy="0.32em">60.00%</text></g><g class="tick" opacity="1" transform="translate(0,124.13636363636368)"><line stroke="currentColor" x2="-6"></line><text fill="currentColor" x="-9" dy="0.32em">70.00%</text></g><g class="tick" opacity="1" transform="translate(0,93.22727272727272)"><line stroke="currentColor" x2="-6"></line><text fill="currentColor" x="-9" dy="0.32em">80.00%</text></g><g class="tick" opacity="1" transform="translate(0,62.31818181818184)"><line stroke="currentColor" x2="-6"></line><text fill="currentColor" x="-9" dy="0.32em">90.00%</text></g><g class="tick" opacity="1" transform="translate(0,31.40909090909092)"><line stroke="currentColor" x2="-6"></line><text fill="currentColor" x="-9" dy="0.32em">100.00%</text></g><g class="tick" opacity="1" transform="translate(0,0.5)"><line stroke="currentColor" x2="-6"></line><text fill="currentColor" x="-9" dy="0.32em">110.00%</text></g></g><text transform="rotate(-90)" y="-50" x="-170" dy="1em" style="text-anchor: middle; font-size: 12px; fill: #666;">Pre Rate (%)</text><text transform="translate(360, 380)" style="text-anchor: middle; font-size: 12px; fill: #666;">Time (UTC)</text><path fill="none" stroke="#2563eb" stroke-width="2" d="M0,327.636C0.767,327.636,1.534,327.636,2.3,327.636C3.067,327.636,3.834,327.636,4.601,327.636C5.367,327.636,6.134,327.636,6.901,327.636C7.668,327.636,8.435,327.636,9.201,327.636C9.968,327.636,10.735,327.636,11.502,327.636C12.268,327.636,13.035,327.636,13.802,327.636C14.569,327.636,15.335,327.636,16.102,327.636C16.869,327.636,17.636,327.636,18.403,327.636C19.169,327.636,19.936,327.636,20.703,327.636C21.47,327.636,22.236,327.636,23.003,327.636C23.77,327.636,24.537,327.636,25.304,327.636C26.07,327.636,26.837,327.636,27.604,327.636C28.371,327.636,29.137,327.636,29.904,327.636C30.671,327.636,31.438,327.636,32.204,327.636C32.971,327.636,33.738,327.636,34.505,327.636C35.272,327.636,36.038,327.636,36.805,327.636C37.572,327.636,38.339,327.636,39.105,327.636C39.872,327.636,40.639,327.636,41.406,327.636C42.173,327.636,42.939,327.636,43.706,327.636C44.473,327.636,45.24,327.636,46.006,327.636C46.773,327.636,47.54,327.636,48.307,327.636C49.073,327.636,49.84,327.636,50.607,327.636C51.374,327.636,52.141,327.636,52.907,327.636C53.674,327.636,54.441,327.636,55.208,327.636C55.974,327.636,56.741,327.636,57.508,327.636C58.275,327.636,59.042,327.636,59.808,327.636C60.575,327.636,61.342,327.636,62.109,327.636C62.875,327.636,63.642,327.636,64.409,327.636C65.176,327.636,65.942,327.636,66.709,327.636C67.476,327.636,68.243,327.636,69.01,327.636C69.776,327.636,70.543,327.636,71.31,327.636C72.077,327.636,72.843,327.636,73.61,327.636C74.377,327.636,75.144,327.636,75.911,327.636C76.677,327.636,77.444,327.636,78.211,327.636C78.978,327.636,79.744,327.636,80.511,327.636C81.278,327.636,82.045,327.636,82.812,327.636C83.578,327.636,84.345,18.545,85.112,18.545C85.879,18.545,86.645,293.636,87.412,306C88.179,318.364,88.946,324.545,89.712,324.545C90.479,324.545,91.246,324.545,92.013,324.545C92.78,324.545,93.546,324.545,94.313,324.545C95.08,324.545,95.847,324.545,96.613,324.545C97.38,324.545,98.147,324.545,98.914,324.545C99.681,324.545,100.447,324.545,101.214,324.545C101.981,324.545,102.748,324.545,103.514,324.545C104.281,324.545,105.048,324.545,105.815,324.545C106.581,324.545,107.348,324.545,108.115,324.545C108.882,324.545,109.649,324.545,110.415,324.545C111.182,324.545,111.949,324.545,112.716,324.545C113.482,324.545,114.249,324.545,115.016,324.545C115.783,324.545,116.55,324.545,117.316,324.545C118.083,324.545,118.85,324.545,119.617,324.545C120.383,324.545,121.15,324.545,121.917,324.545C122.684,324.545,123.45,324.545,124.217,324.545C124.984,324.545,125.751,324.545,126.518,324.545C127.284,324.545,128.051,324.545,128.818,324.545C129.585,324.545,130.351,324.545,131.118,324.545C131.885,324.545,132.652,324.545,133.419,324.545C134.185,324.545,134.952,324.545,135.719,324.545C136.486,324.545,137.252,324.545,138.019,324.545C138.786,324.545,139.553,324.545,140.319,324.545C141.086,324.545,141.853,324.545,142.62,324.545C143.387,324.545,144.153,324.545,144.92,324.545C145.687,324.545,146.454,324.545,147.22,324.545C147.987,324.545,148.754,324.545,149.521,324.545C150.288,324.545,151.054,324.545,151.821,324.545C152.588,324.545,153.355,324.545,154.121,324.545C154.888,324.545,155.655,324.545,156.422,324.545C157.188,324.545,157.955,324.545,158.722,324.545C159.489,324.545,160.256,324.545,161.022,324.545C161.789,324.545,162.556,324.545,163.323,324.545C164.089,324.545,164.856,324.545,165.623,324.545C166.39,324.545,167.157,324.545,167.923,324.545C168.69,324.545,169.457,324.545,170.224,324.545C170.99,324.545,171.757,324.545,172.524,324.545C173.291,324.545,174.058,324.545,174.824,324.545C175.591,324.545,176.358,324.545,177.125,324.545C177.891,324.545,178.658,324.545,179.425,324.545C180.192,324.545,180.958,324.545,181.725,324.545C182.492,324.545,183.259,324.545,184.026,324.545C184.792,324.545,185.559,324.545,186.326,324.545C187.093,324.545,187.859,324.545,188.626,324.545C189.393,324.545,190.16,324.545,190.927,324.545C191.693,324.545,192.46,324.545,193.227,324.545C193.994,324.545,194.76,324.545,195.527,324.545C196.294,324.545,197.061,324.545,197.827,324.545C198.594,324.545,199.361,324.545,200.128,324.545C200.895,324.545,201.661,324.545,202.428,324.545C203.195,324.545,203.962,324.545,204.728,324.545C205.495,324.545,206.262,324.545,207.029,324.545C207.796,324.545,208.562,324.545,209.329,324.545C210.096,324.545,210.863,324.545,211.629,324.545C212.396,324.545,213.163,324.545,213.93,324.545C214.696,324.545,215.463,324.545,216.23,324.545C216.997,324.545,217.764,324.545,218.53,324.545C219.297,324.545,220.064,324.545,220.831,324.545C221.597,324.545,222.364,324.545,223.131,324.545C223.898,324.545,224.665,324.545,225.431,324.545C226.198,324.545,226.965,324.545,227.732,324.545C228.498,324.545,229.265,324.545,230.032,324.545C230.799,324.545,231.565,321.455,232.332,321.455C233.099,321.455,233.866,324.545,234.633,324.545C235.399,324.545,236.166,324.545,236.933,324.545C237.7,324.545,238.466,309.091,239.233,309.091C240,309.091,240.767,312.697,241.534,315.273C242.3,317.848,243.067,324.545,243.834,324.545C244.601,324.545,245.367,324.545,246.134,324.545C246.901,324.545,247.668,321.455,248.435,321.455C249.201,321.455,249.968,324.545,250.735,324.545C251.502,324.545,252.268,318.364,253.035,318.364C253.802,318.364,254.569,318.364,255.335,318.364C256.102,318.364,256.869,316.303,257.636,315.273C258.403,314.242,259.169,312.182,259.936,312.182C260.703,312.182,261.47,316.303,262.236,318.364C263.003,320.424,263.77,324.545,264.537,324.545C265.304,324.545,266.07,324.545,266.837,324.545C267.604,324.545,268.371,324.545,269.137,324.545C269.904,324.545,270.671,324.545,271.438,324.545C272.204,324.545,272.971,324.545,273.738,324.545C274.505,324.545,275.272,315.273,276.038,315.273C276.805,315.273,277.572,318.364,278.339,318.364C279.105,318.364,279.872,316.818,280.639,315.273C281.406,313.727,282.173,309.091,282.939,309.091C283.706,309.091,284.473,310.636,285.24,312.182C286.006,313.727,286.773,318.364,287.54,318.364C288.307,318.364,289.073,315.788,289.84,312.182C290.607,308.576,291.374,296.727,292.141,296.727C292.907,296.727,293.674,312.182,294.441,312.182C295.208,312.182,295.974,299.818,296.741,299.818C297.508,299.818,298.275,306,299.042,306C299.808,306,300.575,306,301.342,306C302.109,306,302.875,309.091,303.642,309.091C304.409,309.091,305.176,307.03,305.942,302.909C306.709,298.788,307.476,284.364,308.243,284.364C309.01,284.364,309.776,284.364,310.543,284.364C311.31,284.364,312.077,287.455,312.843,290.545C313.61,293.636,314.377,302.909,315.144,302.909C315.911,302.909,316.677,296.727,317.444,296.727C318.211,296.727,318.978,296.727,319.744,296.727C320.511,296.727,321.278,299.303,322.045,302.909C322.812,306.515,323.578,318.364,324.345,318.364C325.112,318.364,325.879,312.182,326.645,312.182C327.412,312.182,328.179,312.182,328.946,312.182C329.712,312.182,330.479,321.455,331.246,321.455C332.013,321.455,332.78,318.364,333.546,318.364C334.313,318.364,335.08,324.545,335.847,324.545C336.613,324.545,337.38,324.545,338.147,324.545C338.914,324.545,339.681,324.545,340.447,324.545C341.214,324.545,341.981,321.455,342.748,321.455C343.514,321.455,344.281,324.545,345.048,324.545C345.815,324.545,346.581,324.545,347.348,324.545C348.115,324.545,348.882,324.545,349.649,324.545C350.415,324.545,351.182,324.545,351.949,324.545C352.716,324.545,353.482,324.545,354.249,324.545C355.016,324.545,355.783,324.545,356.55,324.545C357.316,324.545,358.083,324.545,358.85,324.545C359.617,324.545,360.383,324.545,361.15,324.545C361.917,324.545,362.684,324.545,363.45,324.545C364.217,324.545,364.984,324.545,365.751,324.545C366.518,324.545,367.284,324.545,368.051,324.545C368.818,324.545,369.585,324.545,370.351,324.545C371.118,324.545,371.885,324.545,372.652,324.545C373.419,324.545,374.185,324.545,374.952,324.545C375.719,324.545,376.486,324.545,377.252,324.545C378.019,324.545,378.786,324.545,379.553,324.545C380.319,324.545,381.086,324.545,381.853,324.545C382.62,324.545,383.387,324.545,384.153,324.545C384.92,324.545,385.687,324.545,386.454,324.545C387.22,324.545,387.987,324.545,388.754,324.545C389.521,324.545,390.288,324.545,391.054,324.545C391.821,324.545,392.588,324.545,393.355,324.545C394.121,324.545,394.888,324.545,395.655,324.545C396.422,324.545,397.188,324.545,397.955,324.545C398.722,324.545,399.489,324.545,400.256,324.545C401.022,324.545,401.789,324.545,402.556,324.545C403.323,324.545,404.089,324.545,404.856,324.545C405.623,324.545,406.39,324.545,407.157,324.545C407.923,324.545,408.69,324.545,409.457,324.545C410.224,324.545,410.99,324.545,411.757,324.545C412.524,324.545,413.291,324.545,414.058,324.545C414.824,324.545,415.591,324.545,416.358,324.545C417.125,324.545,417.891,324.545,418.658,324.545C419.425,324.545,420.192,324.545,420.958,324.545C421.725,324.545,422.492,324.545,423.259,324.545C424.026,324.545,424.792,324.545,425.559,324.545C426.326,324.545,427.093,324.545,427.859,324.545C428.626,324.545,429.393,324.545,430.16,324.545C430.927,324.545,431.693,324.545,432.46,324.545C433.227,324.545,433.994,324.545,434.76,324.545C435.527,324.545,436.294,324.545,437.061,324.545C437.827,324.545,438.594,324.545,439.361,324.545C440.128,324.545,440.895,324.545,441.661,324.545C442.428,324.545,443.195,324.545,443.962,324.545C444.728,324.545,445.495,324.545,446.262,324.545C447.029,324.545,447.796,324.545,448.562,324.545C449.329,324.545,450.096,324.545,450.863,324.545C451.629,324.545,452.396,324.545,453.163,324.545C453.93,324.545,454.696,324.545,455.463,324.545C456.23,324.545,456.997,324.545,457.764,324.545C458.53,324.545,459.297,324.545,460.064,324.545C460.831,324.545,461.597,324.545,462.364,324.545C463.131,324.545,463.898,324.545,464.665,324.545C465.431,324.545,466.198,324.545,466.965,324.545C467.732,324.545,468.498,324.545,469.265,324.545C470.032,324.545,470.799,324.545,471.565,324.545C472.332,324.545,473.099,324.545,473.866,324.545C474.633,324.545,475.399,324.545,476.166,324.545C476.933,324.545,477.7,324.545,478.466,324.545C479.233,324.545,480,324.545,480.767,324.545C481.534,324.545,482.3,324.545,483.067,324.545C483.834,324.545,484.601,324.545,485.367,324.545C486.134,324.545,486.901,324.545,487.668,324.545C488.435,324.545,489.201,324.545,489.968,324.545C490.735,324.545,491.502,324.545,492.268,324.545C493.035,324.545,493.802,324.545,494.569,324.545C495.335,324.545,496.102,324.545,496.869,324.545C497.636,324.545,498.403,324.545,499.169,324.545C499.936,324.545,500.703,324.545,501.47,324.545C502.236,324.545,503.003,324.545,503.77,324.545C504.537,324.545,505.304,324.545,506.07,324.545C506.837,324.545,507.604,324.545,508.371,324.545C509.137,324.545,509.904,324.545,510.671,324.545C511.438,324.545,512.204,324.545,512.971,324.545C513.738,324.545,514.505,324.545,515.272,324.545C516.038,324.545,516.805,324.545,517.572,324.545C518.339,324.545,519.105,324.545,519.872,324.545C520.639,324.545,521.406,324.545,522.173,324.545C522.939,324.545,523.706,324.545,524.473,324.545C525.24,324.545,526.006,324.545,526.773,324.545C527.54,324.545,528.307,324.545,529.073,324.545C529.84,324.545,530.607,324.545,531.374,324.545C532.141,324.545,532.907,324.545,533.674,324.545C534.441,324.545,535.208,324.545,535.974,324.545C536.741,324.545,537.508,324.545,538.275,324.545C539.042,324.545,539.808,324.545,540.575,324.545C541.342,324.545,542.109,324.545,542.875,324.545C543.642,324.545,544.409,324.545,545.176,324.545C545.942,324.545,546.709,336.909,547.476,336.909C548.243,336.909,549.01,336.909,549.776,336.909C550.543,336.909,551.31,336.909,552.077,336.909C552.843,336.909,553.61,336.909,554.377,336.909C555.144,336.909,555.911,336.909,556.677,336.909C557.444,336.909,558.211,336.909,558.978,336.909C559.744,336.909,560.511,336.909,561.278,336.909C562.045,336.909,562.812,336.909,563.578,336.909C564.345,336.909,565.112,336.909,565.879,336.909C566.645,336.909,567.412,336.909,568.179,336.909C568.946,336.909,569.712,336.909,570.479,336.909C571.246,336.909,572.013,336.909,572.78,336.909C573.546,336.909,574.313,336.909,575.08,336.909C575.847,336.909,576.613,336.909,577.38,336.909C578.147,336.909,578.914,336.909,579.681,336.909C580.447,336.909,581.214,336.909,581.981,336.909C582.748,336.909,583.514,336.909,584.281,336.909C585.048,336.909,585.815,336.909,586.581,336.909C587.348,336.909,588.115,336.909,588.882,336.909C589.649,336.909,590.415,336.909,591.182,336.909C591.949,336.909,592.716,336.909,593.482,336.909C594.249,336.909,595.016,336.909,595.783,336.909C596.55,336.909,597.316,336.909,598.083,336.909C598.85,336.909,599.617,336.909,600.383,336.909C601.15,336.909,601.917,336.909,602.684,336.909C603.45,336.909,604.217,336.909,604.984,336.909C605.751,336.909,606.518,336.909,607.284,336.909C608.051,336.909,608.818,336.909,609.585,336.909C610.351,336.909,611.118,336.909,611.885,336.909C612.652,336.909,613.419,336.909,614.185,336.909C614.952,336.909,615.719,336.909,616.486,336.909C617.252,336.909,618.019,336.909,618.786,336.909C619.553,336.909,620.319,336.909,621.086,336.909C621.853,336.909,622.62,336.909,623.387,336.909C624.153,336.909,624.92,336.909,625.687,336.909C626.454,336.909,627.22,336.909,627.987,336.909C628.754,336.909,629.521,336.909,630.288,336.909C631.054,336.909,631.821,336.909,632.588,336.909C633.355,336.909,634.121,336.909,634.888,336.909C635.655,336.909,636.422,336.909,637.188,336.909C637.955,336.909,638.722,336.909,639.489,336.909C640.256,336.909,641.022,336.909,641.789,336.909C642.556,336.909,643.323,336.909,644.089,336.909C644.856,336.909,645.623,336.909,646.39,336.909C647.157,336.909,647.923,336.909,648.69,336.909C649.457,336.909,650.224,336.909,650.99,336.909C651.757,336.909,652.524,336.909,653.291,336.909C654.058,336.909,654.824,336.909,655.591,336.909C656.358,336.909,657.125,336.909,657.891,336.909C658.658,336.909,659.425,336.909,660.192,336.909C660.958,336.909,661.725,336.909,662.492,336.909C663.259,336.909,664.026,336.909,664.792,336.909C665.559,336.909,666.326,336.909,667.093,336.909C667.859,336.909,668.626,336.909,669.393,336.909C670.16,336.909,670.927,336.909,671.693,336.909C672.46,336.909,673.227,336.909,673.994,336.909C674.76,336.909,675.527,336.909,676.294,336.909C677.061,336.909,677.827,336.909,678.594,336.909C679.361,336.909,680.128,336.909,680.895,336.909C681.661,336.909,682.428,336.909,683.195,336.909C683.962,336.909,684.728,336.909,685.495,336.909C686.262,336.909,687.029,336.909,687.796,336.909C688.562,336.909,689.329,336.909,690.096,336.909C690.863,336.909,691.629,336.909,692.396,336.909C693.163,336.909,693.93,336.909,694.696,336.909C695.463,336.909,696.23,336.909,696.997,336.909C697.764,336.909,698.53,336.909,699.297,336.909C700.064,336.909,700.831,336.909,701.597,336.909C702.364,336.909,703.131,336.909,703.898,336.909C704.665,336.909,705.431,336.909,706.198,336.909C706.965,336.909,707.732,336.909,708.498,336.909C709.265,336.909,710.032,336.909,710.799,336.909C711.565,336.909,712.332,336.909,713.099,336.909C713.866,336.909,714.633,336.909,715.399,336.909C716.166,336.909,716.933,336.909,717.7,336.909C718.466,336.909,719.233,336.909,720,336.909"></path><circle class="dot" cx="0" cy="327.6363636363636" r="3" fill="#2563eb"></circle><circle class="dot" cx="2.300319488817891" cy="327.6363636363636" r="3" fill="#2563eb"></circle><circle class="dot" cx="4.600638977635782" cy="327.6363636363636" r="3" fill="#2563eb"></circle><circle class="dot" cx="6.900958466453674" cy="327.6363636363636" r="3" fill="#2563eb"></circle><circle class="dot" cx="9.201277955271564" cy="327.6363636363636" r="3" fill="#2563eb"></circle><circle class="dot" cx="11.501597444089457" cy="327.6363636363636" r="3" fill="#2563eb"></circle><circle class="dot" cx="13.801916932907348" cy="327.6363636363636" r="3" fill="#2563eb"></circle><circle class="dot" cx="16.102236421725237" cy="327.6363636363636" r="3" fill="#2563eb"></circle><circle class="dot" cx="18.40255591054313" cy="327.6363636363636" r="3" fill="#2563eb"></circle><circle class="dot" cx="20.702875399361023" cy="327.6363636363636" r="3" fill="#2563eb"></circle><circle class="dot" cx="23.003194888178914" cy="327.6363636363636" r="3" fill="#2563eb"></circle><circle class="dot" cx="25.303514376996805" cy="327.6363636363636" r="3" fill="#2563eb"></circle><circle class="dot" cx="27.603833865814696" cy="327.6363636363636" r="3" fill="#2563eb"></circle><circle class="dot" cx="29.904153354632587" cy="327.6363636363636" r="3" fill="#2563eb"></circle><circle class="dot" cx="32.204472843450475" cy="327.6363636363636" r="3" fill="#2563eb"></circle><circle class="dot" cx="34.504792332268366" cy="327.6363636363636" r="3" fill="#2563eb"></circle><circle class="dot" cx="36.80511182108626" cy="327.6363636363636" r="3" fill="#2563eb"></circle><circle class="dot" cx="39.105431309904155" cy="327.6363636363636" r="3" fill="#2563eb"></circle><circle class="dot" cx="41.405750798722046" cy="327.6363636363636" r="3" fill="#2563eb"></circle><circle class="dot" cx="43.70607028753994" cy="327.6363636363636" r="3" fill="#2563eb"></circle><circle class="dot" cx="46.00638977635783" cy="327.6363636363636" r="3" fill="#2563eb"></circle><circle class="dot" cx="48.30670926517572" cy="327.6363636363636" r="3" fill="#2563eb"></circle><circle class="dot" cx="50.60702875399361" cy="327.6363636363636" r="3" fill="#2563eb"></circle><circle class="dot" cx="52.9073482428115" cy="327.6363636363636" r="3" fill="#2563eb"></circle><circle class="dot" cx="55.20766773162939" cy="327.6363636363636" r="3" fill="#2563eb"></circle><circle class="dot" cx="57.50798722044728" cy="327.6363636363636" r="3" fill="#2563eb"></circle><circle class="dot" cx="59.808306709265175" cy="327.6363636363636" r="3" fill="#2563eb"></circle><circle class="dot" cx="62.108626198083066" cy="327.6363636363636" r="3" fill="#2563eb"></circle><circle class="dot" cx="64.40894568690095" cy="327.6363636363636" r="3" fill="#2563eb"></circle><circle class="dot" cx="66.70926517571884" cy="327.6363636363636" r="3" fill="#2563eb"></circle><circle class="dot" cx="69.00958466453673" cy="327.6363636363636" r="3" fill="#2563eb"></circle><circle class="dot" cx="71.30990415335462" cy="327.6363636363636" r="3" fill="#2563eb"></circle><circle class="dot" cx="73.61022364217251" cy="327.6363636363636" r="3" fill="#2563eb"></circle><circle class="dot" cx="75.91054313099042" cy="327.6363636363636" r="3" fill="#2563eb"></circle><circle class="dot" cx="78.21086261980831" cy="327.6363636363636" r="3" fill="#2563eb"></circle><circle class="dot" cx="80.5111821086262" cy="327.6363636363636" r="3" fill="#2563eb"></circle><circle class="dot" cx="82.81150159744409" cy="327.6363636363636" r="3" fill="#2563eb"></circle><circle class="dot" cx="85.11182108626198" cy="18.54545454545455" r="3" fill="#2563eb"></circle><circle class="dot" cx="87.41214057507987" cy="306" r="3" fill="#2563eb"></circle><circle class="dot" cx="89.71246006389777" cy="324.54545454545456" r="3" fill="#2563eb"></circle><circle class="dot" cx="92.01277955271566" cy="324.54545454545456" r="3" fill="#2563eb"></circle><circle class="dot" cx="94.31309904153355" cy="324.54545454545456" r="3" fill="#2563eb"></circle><circle class="dot" cx="96.61341853035144" cy="324.54545454545456" r="3" fill="#2563eb"></circle><circle class="dot" cx="98.91373801916933" cy="324.54545454545456" r="3" fill="#2563eb"></circle><circle class="dot" cx="101.21405750798722" cy="324.54545454545456" r="3" fill="#2563eb"></circle><circle class="dot" cx="103.51437699680511" cy="324.54545454545456" r="3" fill="#2563eb"></circle><circle class="dot" cx="105.814696485623" cy="324.54545454545456" r="3" fill="#2563eb"></circle><circle class="dot" cx="108.1150159744409" cy="324.54545454545456" r="3" fill="#2563eb"></circle><circle class="dot" cx="110.41533546325878" cy="324.54545454545456" r="3" fill="#2563eb"></circle><circle class="dot" cx="112.71565495207668" cy="324.54545454545456" r="3" fill="#2563eb"></circle><circle class="dot" cx="115.01597444089457" cy="324.54545454545456" r="3" fill="#2563eb"></circle><circle class="dot" cx="117.31629392971246" cy="324.54545454545456" r="3" fill="#2563eb"></circle><circle class="dot" cx="119.61661341853035" cy="324.54545454545456" r="3" fill="#2563eb"></circle><circle class="dot" cx="121.91693290734825" cy="324.54545454545456" r="3" fill="#2563eb"></circle><circle class="dot" cx="124.21725239616613" cy="324.54545454545456" r="3" fill="#2563eb"></circle><circle class="dot" cx="126.51757188498404" cy="324.54545454545456" r="3" fill="#2563eb"></circle><circle class="dot" cx="128.8178913738019" cy="324.54545454545456" r="3" fill="#2563eb"></circle><circle class="dot" cx="131.1182108626198" cy="324.54545454545456" r="3" fill="#2563eb"></circle><circle class="dot" cx="133.41853035143768" cy="324.54545454545456" r="3" fill="#2563eb"></circle><circle class="dot" cx="135.7188498402556" cy="324.54545454545456" r="3" fill="#2563eb"></circle><circle class="dot" cx="138.01916932907346" cy="324.54545454545456" r="3" fill="#2563eb"></circle><circle class="dot" cx="140.31948881789137" cy="324.54545454545456" r="3" fill="#2563eb"></circle><circle class="dot" cx="142.61980830670925" cy="324.54545454545456" r="3" fill="#2563eb"></circle><circle class="dot" cx="144.92012779552715" cy="324.54545454545456" r="3" fill="#2563eb"></circle><circle class="dot" cx="147.22044728434503" cy="324.54545454545456" r="3" fill="#2563eb"></circle><circle class="dot" cx="149.52076677316293" cy="324.54545454545456" r="3" fill="#2563eb"></circle><circle class="dot" cx="151.82108626198084" cy="324.54545454545456" r="3" fill="#2563eb"></circle><circle class="dot" cx="154.12140575079871" cy="324.54545454545456" r="3" fill="#2563eb"></circle><circle class="dot" cx="156.42172523961662" cy="324.54545454545456" r="3" fill="#2563eb"></circle><circle class="dot" cx="158.7220447284345" cy="324.54545454545456" r="3" fill="#2563eb"></circle><circle class="dot" cx="161.0223642172524" cy="324.54545454545456" r="3" fill="#2563eb"></circle><circle class="dot" cx="163.32268370607028" cy="324.54545454545456" r="3" fill="#2563eb"></circle><circle class="dot" cx="165.62300319488818" cy="324.54545454545456" r="3" fill="#2563eb"></circle><circle class="dot" cx="167.92332268370606" cy="324.54545454545456" r="3" fill="#2563eb"></circle><circle class="dot" cx="170.22364217252397" cy="324.54545454545456" r="3" fill="#2563eb"></circle><circle class="dot" cx="172.52396166134184" cy="324.54545454545456" r="3" fill="#2563eb"></circle><circle class="dot" cx="174.82428115015975" cy="324.54545454545456" r="3" fill="#2563eb"></circle><circle class="dot" cx="177.12460063897763" cy="324.54545454545456" r="3" fill="#2563eb"></circle><circle class="dot" cx="179.42492012779553" cy="324.54545454545456" r="3" fill="#2563eb"></circle><circle class="dot" cx="181.7252396166134" cy="324.54545454545456" r="3" fill="#2563eb"></circle><circle class="dot" cx="184.0255591054313" cy="324.54545454545456" r="3" fill="#2563eb"></circle><circle class="dot" cx="186.3258785942492" cy="324.54545454545456" r="3" fill="#2563eb"></circle><circle class="dot" cx="188.6261980830671" cy="324.54545454545456" r="3" fill="#2563eb"></circle><circle class="dot" cx="190.92651757188497" cy="324.54545454545456" r="3" fill="#2563eb"></circle><circle class="dot" cx="193.22683706070288" cy="324.54545454545456" r="3" fill="#2563eb"></circle><circle class="dot" cx="195.52715654952075" cy="324.54545454545456" r="3" fill="#2563eb"></circle><circle class="dot" cx="197.82747603833866" cy="324.54545454545456" r="3" fill="#2563eb"></circle><circle class="dot" cx="200.12779552715656" cy="324.54545454545456" r="3" fill="#2563eb"></circle><circle class="dot" cx="202.42811501597444" cy="324.54545454545456" r="3" fill="#2563eb"></circle><circle class="dot" cx="204.72843450479232" cy="324.54545454545456" r="3" fill="#2563eb"></circle><circle class="dot" cx="207.02875399361022" cy="324.54545454545456" r="3" fill="#2563eb"></circle><circle class="dot" cx="209.32907348242813" cy="324.54545454545456" r="3" fill="#2563eb"></circle><circle class="dot" cx="211.629392971246" cy="324.54545454545456" r="3" fill="#2563eb"></circle><circle class="dot" cx="213.92971246006388" cy="324.54545454545456" r="3" fill="#2563eb"></circle><circle class="dot" cx="216.2300319488818" cy="324.54545454545456" r="3" fill="#2563eb"></circle><circle class="dot" cx="218.5303514376997" cy="324.54545454545456" r="3" fill="#2563eb"></circle><circle class="dot" cx="220.83067092651757" cy="324.54545454545456" r="3" fill="#2563eb"></circle><circle class="dot" cx="223.13099041533545" cy="324.54545454545456" r="3" fill="#2563eb"></circle><circle class="dot" cx="225.43130990415335" cy="324.54545454545456" r="3" fill="#2563eb"></circle><circle class="dot" cx="227.73162939297126" cy="324.54545454545456" r="3" fill="#2563eb"></circle><circle class="dot" cx="230.03194888178913" cy="324.54545454545456" r="3" fill="#2563eb"></circle><circle class="dot" cx="232.332268370607" cy="321.45454545454544" r="3" fill="#2563eb"></circle><circle class="dot" cx="234.63258785942492" cy="324.54545454545456" r="3" fill="#2563eb"></circle><circle class="dot" cx="236.93290734824282" cy="324.54545454545456" r="3" fill="#2563eb"></circle><circle class="dot" cx="239.2332268370607" cy="309.09090909090907" r="3" fill="#2563eb"></circle><circle class="dot" cx="241.5335463258786" cy="315.27272727272725" r="3" fill="#2563eb"></circle><circle class="dot" cx="243.8338658146965" cy="324.54545454545456" r="3" fill="#2563eb"></circle><circle class="dot" cx="246.13418530351439" cy="324.54545454545456" r="3" fill="#2563eb"></circle><circle class="dot" cx="248.43450479233226" cy="321.45454545454544" r="3" fill="#2563eb"></circle><circle class="dot" cx="250.73482428115017" cy="324.54545454545456" r="3" fill="#2563eb"></circle><circle class="dot" cx="253.03514376996807" cy="318.3636363636364" r="3" fill="#2563eb"></circle><circle class="dot" cx="255.33546325878595" cy="318.3636363636364" r="3" fill="#2563eb"></circle><circle class="dot" cx="257.6357827476038" cy="315.27272727272725" r="3" fill="#2563eb"></circle><circle class="dot" cx="259.93610223642173" cy="312.1818181818182" r="3" fill="#2563eb"></circle><circle class="dot" cx="262.2364217252396" cy="318.3636363636364" r="3" fill="#2563eb"></circle><circle class="dot" cx="264.5367412140575" cy="324.54545454545456" r="3" fill="#2563eb"></circle><circle class="dot" cx="266.83706070287536" cy="324.54545454545456" r="3" fill="#2563eb"></circle><circle class="dot" cx="269.1373801916933" cy="324.54545454545456" r="3" fill="#2563eb"></circle><circle class="dot" cx="271.4376996805112" cy="324.54545454545456" r="3" fill="#2563eb"></circle><circle class="dot" cx="273.73801916932905" cy="324.54545454545456" r="3" fill="#2563eb"></circle><circle class="dot" cx="276.0383386581469" cy="315.27272727272725" r="3" fill="#2563eb"></circle><circle class="dot" cx="278.33865814696486" cy="318.3636363636364" r="3" fill="#2563eb"></circle><circle class="dot" cx="280.63897763578274" cy="315.27272727272725" r="3" fill="#2563eb"></circle><circle class="dot" cx="282.9392971246006" cy="309.09090909090907" r="3" fill="#2563eb"></circle><circle class="dot" cx="285.2396166134185" cy="312.1818181818182" r="3" fill="#2563eb"></circle><circle class="dot" cx="287.5399361022364" cy="318.3636363636364" r="3" fill="#2563eb"></circle><circle class="dot" cx="289.8402555910543" cy="312.1818181818182" r="3" fill="#2563eb"></circle><circle class="dot" cx="292.1405750798722" cy="296.7272727272727" r="3" fill="#2563eb"></circle><circle class="dot" cx="294.44089456869006" cy="312.1818181818182" r="3" fill="#2563eb"></circle><circle class="dot" cx="296.741214057508" cy="299.8181818181818" r="3" fill="#2563eb"></circle><circle class="dot" cx="299.04153354632587" cy="306" r="3" fill="#2563eb"></circle><circle class="dot" cx="301.34185303514374" cy="306" r="3" fill="#2563eb"></circle><circle class="dot" cx="303.6421725239617" cy="309.09090909090907" r="3" fill="#2563eb"></circle><circle class="dot" cx="305.94249201277955" cy="302.9090909090909" r="3" fill="#2563eb"></circle><circle class="dot" cx="308.24281150159743" cy="284.3636363636364" r="3" fill="#2563eb"></circle><circle class="dot" cx="310.5431309904153" cy="284.3636363636364" r="3" fill="#2563eb"></circle><circle class="dot" cx="312.84345047923324" cy="290.5454545454545" r="3" fill="#2563eb"></circle><circle class="dot" cx="315.1437699680511" cy="302.9090909090909" r="3" fill="#2563eb"></circle><circle class="dot" cx="317.444089456869" cy="296.7272727272727" r="3" fill="#2563eb"></circle><circle class="dot" cx="319.74440894568687" cy="296.7272727272727" r="3" fill="#2563eb"></circle><circle class="dot" cx="322.0447284345048" cy="302.9090909090909" r="3" fill="#2563eb"></circle><circle class="dot" cx="324.3450479233227" cy="318.3636363636364" r="3" fill="#2563eb"></circle><circle class="dot" cx="326.64536741214056" cy="312.1818181818182" r="3" fill="#2563eb"></circle><circle class="dot" cx="328.94568690095844" cy="312.1818181818182" r="3" fill="#2563eb"></circle><circle class="dot" cx="331.24600638977637" cy="321.45454545454544" r="3" fill="#2563eb"></circle><circle class="dot" cx="333.54632587859425" cy="318.3636363636364" r="3" fill="#2563eb"></circle><circle class="dot" cx="335.8466453674121" cy="324.54545454545456" r="3" fill="#2563eb"></circle><circle class="dot" cx="338.14696485623006" cy="324.54545454545456" r="3" fill="#2563eb"></circle><circle class="dot" cx="340.44728434504793" cy="324.54545454545456" r="3" fill="#2563eb"></circle><circle class="dot" cx="342.7476038338658" cy="321.45454545454544" r="3" fill="#2563eb"></circle><circle class="dot" cx="345.0479233226837" cy="324.54545454545456" r="3" fill="#2563eb"></circle><circle class="dot" cx="347.3482428115016" cy="324.54545454545456" r="3" fill="#2563eb"></circle><circle class="dot" cx="349.6485623003195" cy="324.54545454545456" r="3" fill="#2563eb"></circle><circle class="dot" cx="351.9488817891374" cy="324.54545454545456" r="3" fill="#2563eb"></circle><circle class="dot" cx="354.24920127795525" cy="324.54545454545456" r="3" fill="#2563eb"></circle><circle class="dot" cx="356.5495207667732" cy="324.54545454545456" r="3" fill="#2563eb"></circle><circle class="dot" cx="358.84984025559106" cy="324.54545454545456" r="3" fill="#2563eb"></circle><circle class="dot" cx="361.15015974440894" cy="324.54545454545456" r="3" fill="#2563eb"></circle><circle class="dot" cx="363.4504792332268" cy="324.54545454545456" r="3" fill="#2563eb"></circle><circle class="dot" cx="365.75079872204475" cy="324.54545454545456" r="3" fill="#2563eb"></circle><circle class="dot" cx="368.0511182108626" cy="324.54545454545456" r="3" fill="#2563eb"></circle><circle class="dot" cx="370.3514376996805" cy="324.54545454545456" r="3" fill="#2563eb"></circle><circle class="dot" cx="372.6517571884984" cy="324.54545454545456" r="3" fill="#2563eb"></circle><circle class="dot" cx="374.9520766773163" cy="324.54545454545456" r="3" fill="#2563eb"></circle><circle class="dot" cx="377.2523961661342" cy="324.54545454545456" r="3" fill="#2563eb"></circle><circle class="dot" cx="379.55271565495207" cy="324.54545454545456" r="3" fill="#2563eb"></circle><circle class="dot" cx="381.85303514376994" cy="324.54545454545456" r="3" fill="#2563eb"></circle><circle class="dot" cx="384.1533546325879" cy="324.54545454545456" r="3" fill="#2563eb"></circle><circle class="dot" cx="386.45367412140575" cy="324.54545454545456" r="3" fill="#2563eb"></circle><circle class="dot" cx="388.75399361022363" cy="324.54545454545456" r="3" fill="#2563eb"></circle><circle class="dot" cx="391.0543130990415" cy="324.54545454545456" r="3" fill="#2563eb"></circle><circle class="dot" cx="393.35463258785944" cy="324.54545454545456" r="3" fill="#2563eb"></circle><circle class="dot" cx="395.6549520766773" cy="324.54545454545456" r="3" fill="#2563eb"></circle><circle class="dot" cx="397.9552715654952" cy="324.54545454545456" r="3" fill="#2563eb"></circle><circle class="dot" cx="400.25559105431313" cy="324.54545454545456" r="3" fill="#2563eb"></circle><circle class="dot" cx="402.555910543131" cy="324.54545454545456" r="3" fill="#2563eb"></circle><circle class="dot" cx="404.8562300319489" cy="324.54545454545456" r="3" fill="#2563eb"></circle><circle class="dot" cx="407.15654952076676" cy="324.54545454545456" r="3" fill="#2563eb"></circle><circle class="dot" cx="409.45686900958464" cy="324.54545454545456" r="3" fill="#2563eb"></circle><circle class="dot" cx="411.75718849840257" cy="324.54545454545456" r="3" fill="#2563eb"></circle><circle class="dot" cx="414.05750798722045" cy="324.54545454545456" r="3" fill="#2563eb"></circle><circle class="dot" cx="416.3578274760383" cy="324.54545454545456" r="3" fill="#2563eb"></circle><circle class="dot" cx="418.65814696485626" cy="324.54545454545456" r="3" fill="#2563eb"></circle><circle class="dot" cx="420.95846645367413" cy="324.54545454545456" r="3" fill="#2563eb"></circle><circle class="dot" cx="423.258785942492" cy="324.54545454545456" r="3" fill="#2563eb"></circle><circle class="dot" cx="425.55910543130994" cy="324.54545454545456" r="3" fill="#2563eb"></circle><circle class="dot" cx="427.85942492012776" cy="324.54545454545456" r="3" fill="#2563eb"></circle><circle class="dot" cx="430.1597444089457" cy="324.54545454545456" r="3" fill="#2563eb"></circle><circle class="dot" cx="432.4600638977636" cy="324.54545454545456" r="3" fill="#2563eb"></circle><circle class="dot" cx="434.76038338658145" cy="324.54545454545456" r="3" fill="#2563eb"></circle><circle class="dot" cx="437.0607028753994" cy="324.54545454545456" r="3" fill="#2563eb"></circle><circle class="dot" cx="439.36102236421726" cy="324.54545454545456" r="3" fill="#2563eb"></circle><circle class="dot" cx="441.66134185303514" cy="324.54545454545456" r="3" fill="#2563eb"></circle><circle class="dot" cx="443.9616613418531" cy="324.54545454545456" r="3" fill="#2563eb"></circle><circle class="dot" cx="446.2619808306709" cy="324.54545454545456" r="3" fill="#2563eb"></circle><circle class="dot" cx="448.5623003194888" cy="324.54545454545456" r="3" fill="#2563eb"></circle><circle class="dot" cx="450.8626198083067" cy="324.54545454545456" r="3" fill="#2563eb"></circle><circle class="dot" cx="453.1629392971246" cy="324.54545454545456" r="3" fill="#2563eb"></circle><circle class="dot" cx="455.4632587859425" cy="324.54545454545456" r="3" fill="#2563eb"></circle><circle class="dot" cx="457.7635782747604" cy="324.54545454545456" r="3" fill="#2563eb"></circle><circle class="dot" cx="460.06389776357827" cy="324.54545454545456" r="3" fill="#2563eb"></circle><circle class="dot" cx="462.3642172523962" cy="324.54545454545456" r="3" fill="#2563eb"></circle><circle class="dot" cx="464.664536741214" cy="324.54545454545456" r="3" fill="#2563eb"></circle><circle class="dot" cx="466.96485623003196" cy="324.54545454545456" r="3" fill="#2563eb"></circle><circle class="dot" cx="469.26517571884983" cy="324.54545454545456" r="3" fill="#2563eb"></circle><circle class="dot" cx="471.5654952076677" cy="324.54545454545456" r="3" fill="#2563eb"></circle><circle class="dot" cx="473.86581469648564" cy="324.54545454545456" r="3" fill="#2563eb"></circle><circle class="dot" cx="476.1661341853035" cy="324.54545454545456" r="3" fill="#2563eb"></circle><circle class="dot" cx="478.4664536741214" cy="324.54545454545456" r="3" fill="#2563eb"></circle><circle class="dot" cx="480.76677316293933" cy="324.54545454545456" r="3" fill="#2563eb"></circle><circle class="dot" cx="483.0670926517572" cy="324.54545454545456" r="3" fill="#2563eb"></circle><circle class="dot" cx="485.3674121405751" cy="324.54545454545456" r="3" fill="#2563eb"></circle><circle class="dot" cx="487.667731629393" cy="324.54545454545456" r="3" fill="#2563eb"></circle><circle class="dot" cx="489.96805111821084" cy="324.54545454545456" r="3" fill="#2563eb"></circle><circle class="dot" cx="492.26837060702877" cy="324.54545454545456" r="3" fill="#2563eb"></circle><circle class="dot" cx="494.56869009584665" cy="324.54545454545456" r="3" fill="#2563eb"></circle><circle class="dot" cx="496.8690095846645" cy="324.54545454545456" r="3" fill="#2563eb"></circle><circle class="dot" cx="499.16932907348246" cy="324.54545454545456" r="3" fill="#2563eb"></circle><circle class="dot" cx="501.46964856230034" cy="324.54545454545456" r="3" fill="#2563eb"></circle><circle class="dot" cx="503.7699680511182" cy="324.54545454545456" r="3" fill="#2563eb"></circle><circle class="dot" cx="506.07028753993615" cy="324.54545454545456" r="3" fill="#2563eb"></circle><circle class="dot" cx="508.37060702875397" cy="324.54545454545456" r="3" fill="#2563eb"></circle><circle class="dot" cx="510.6709265175719" cy="324.54545454545456" r="3" fill="#2563eb"></circle><circle class="dot" cx="512.9712460063898" cy="324.54545454545456" r="3" fill="#2563eb"></circle><circle class="dot" cx="515.2715654952076" cy="324.54545454545456" r="3" fill="#2563eb"></circle><circle class="dot" cx="517.5718849840256" cy="324.54545454545456" r="3" fill="#2563eb"></circle><circle class="dot" cx="519.8722044728435" cy="324.54545454545456" r="3" fill="#2563eb"></circle><circle class="dot" cx="522.1725239616613" cy="324.54545454545456" r="3" fill="#2563eb"></circle><circle class="dot" cx="524.4728434504792" cy="324.54545454545456" r="3" fill="#2563eb"></circle><circle class="dot" cx="526.7731629392971" cy="324.54545454545456" r="3" fill="#2563eb"></circle><circle class="dot" cx="529.073482428115" cy="324.54545454545456" r="3" fill="#2563eb"></circle><circle class="dot" cx="531.373801916933" cy="324.54545454545456" r="3" fill="#2563eb"></circle><circle class="dot" cx="533.6741214057507" cy="324.54545454545456" r="3" fill="#2563eb"></circle><circle class="dot" cx="535.9744408945687" cy="324.54545454545456" r="3" fill="#2563eb"></circle><circle class="dot" cx="538.2747603833866" cy="324.54545454545456" r="3" fill="#2563eb"></circle><circle class="dot" cx="540.5750798722045" cy="324.54545454545456" r="3" fill="#2563eb"></circle><circle class="dot" cx="542.8753993610223" cy="324.54545454545456" r="3" fill="#2563eb"></circle><circle class="dot" cx="545.1757188498402" cy="324.54545454545456" r="3" fill="#2563eb"></circle><circle class="dot" cx="547.4760383386581" cy="336.90909090909093" r="3" fill="#2563eb"></circle><circle class="dot" cx="549.7763578274761" cy="336.90909090909093" r="3" fill="#2563eb"></circle><circle class="dot" cx="552.0766773162939" cy="336.90909090909093" r="3" fill="#2563eb"></circle><circle class="dot" cx="554.3769968051118" cy="336.90909090909093" r="3" fill="#2563eb"></circle><circle class="dot" cx="556.6773162939297" cy="336.90909090909093" r="3" fill="#2563eb"></circle><circle class="dot" cx="558.9776357827476" cy="336.90909090909093" r="3" fill="#2563eb"></circle><circle class="dot" cx="561.2779552715655" cy="336.90909090909093" r="3" fill="#2563eb"></circle><circle class="dot" cx="563.5782747603834" cy="336.90909090909093" r="3" fill="#2563eb"></circle><circle class="dot" cx="565.8785942492012" cy="336.90909090909093" r="3" fill="#2563eb"></circle><circle class="dot" cx="568.1789137380192" cy="336.90909090909093" r="3" fill="#2563eb"></circle><circle class="dot" cx="570.479233226837" cy="336.90909090909093" r="3" fill="#2563eb"></circle><circle class="dot" cx="572.779552715655" cy="336.90909090909093" r="3" fill="#2563eb"></circle><circle class="dot" cx="575.0798722044728" cy="336.90909090909093" r="3" fill="#2563eb"></circle><circle class="dot" cx="577.3801916932907" cy="336.90909090909093" r="3" fill="#2563eb"></circle><circle class="dot" cx="579.6805111821086" cy="336.90909090909093" r="3" fill="#2563eb"></circle><circle class="dot" cx="581.9808306709265" cy="336.90909090909093" r="3" fill="#2563eb"></circle><circle class="dot" cx="584.2811501597444" cy="336.90909090909093" r="3" fill="#2563eb"></circle><circle class="dot" cx="586.5814696485623" cy="336.90909090909093" r="3" fill="#2563eb"></circle><circle class="dot" cx="588.8817891373801" cy="336.90909090909093" r="3" fill="#2563eb"></circle><circle class="dot" cx="591.1821086261981" cy="336.90909090909093" r="3" fill="#2563eb"></circle><circle class="dot" cx="593.482428115016" cy="336.90909090909093" r="3" fill="#2563eb"></circle><circle class="dot" cx="595.7827476038339" cy="336.90909090909093" r="3" fill="#2563eb"></circle><circle class="dot" cx="598.0830670926517" cy="336.90909090909093" r="3" fill="#2563eb"></circle><circle class="dot" cx="600.3833865814696" cy="336.90909090909093" r="3" fill="#2563eb"></circle><circle class="dot" cx="602.6837060702875" cy="336.90909090909093" r="3" fill="#2563eb"></circle><circle class="dot" cx="604.9840255591055" cy="336.90909090909093" r="3" fill="#2563eb"></circle><circle class="dot" cx="607.2843450479234" cy="336.90909090909093" r="3" fill="#2563eb"></circle><circle class="dot" cx="609.5846645367412" cy="336.90909090909093" r="3" fill="#2563eb"></circle><circle class="dot" cx="611.8849840255591" cy="336.90909090909093" r="3" fill="#2563eb"></circle><circle class="dot" cx="614.185303514377" cy="336.90909090909093" r="3" fill="#2563eb"></circle><circle class="dot" cx="616.4856230031949" cy="336.90909090909093" r="3" fill="#2563eb"></circle><circle class="dot" cx="618.7859424920127" cy="336.90909090909093" r="3" fill="#2563eb"></circle><circle class="dot" cx="621.0862619808306" cy="336.90909090909093" r="3" fill="#2563eb"></circle><circle class="dot" cx="623.3865814696486" cy="336.90909090909093" r="3" fill="#2563eb"></circle><circle class="dot" cx="625.6869009584665" cy="336.90909090909093" r="3" fill="#2563eb"></circle><circle class="dot" cx="627.9872204472844" cy="336.90909090909093" r="3" fill="#2563eb"></circle><circle class="dot" cx="630.2875399361022" cy="336.90909090909093" r="3" fill="#2563eb"></circle><circle class="dot" cx="632.5878594249201" cy="336.90909090909093" r="3" fill="#2563eb"></circle><circle class="dot" cx="634.888178913738" cy="336.90909090909093" r="3" fill="#2563eb"></circle><circle class="dot" cx="637.1884984025559" cy="336.90909090909093" r="3" fill="#2563eb"></circle><circle class="dot" cx="639.4888178913737" cy="336.90909090909093" r="3" fill="#2563eb"></circle><circle class="dot" cx="641.7891373801917" cy="336.90909090909093" r="3" fill="#2563eb"></circle><circle class="dot" cx="644.0894568690096" cy="336.90909090909093" r="3" fill="#2563eb"></circle><circle class="dot" cx="646.3897763578275" cy="336.90909090909093" r="3" fill="#2563eb"></circle><circle class="dot" cx="648.6900958466454" cy="336.90909090909093" r="3" fill="#2563eb"></circle><circle class="dot" cx="650.9904153354632" cy="336.90909090909093" r="3" fill="#2563eb"></circle><circle class="dot" cx="653.2907348242811" cy="336.90909090909093" r="3" fill="#2563eb"></circle><circle class="dot" cx="655.591054313099" cy="336.90909090909093" r="3" fill="#2563eb"></circle><circle class="dot" cx="657.8913738019169" cy="336.90909090909093" r="3" fill="#2563eb"></circle><circle class="dot" cx="660.1916932907349" cy="336.90909090909093" r="3" fill="#2563eb"></circle><circle class="dot" cx="662.4920127795527" cy="336.90909090909093" r="3" fill="#2563eb"></circle><circle class="dot" cx="664.7923322683706" cy="336.90909090909093" r="3" fill="#2563eb"></circle><circle class="dot" cx="667.0926517571885" cy="336.90909090909093" r="3" fill="#2563eb"></circle><circle class="dot" cx="669.3929712460064" cy="336.90909090909093" r="3" fill="#2563eb"></circle><circle class="dot" cx="671.6932907348242" cy="336.90909090909093" r="3" fill="#2563eb"></circle><circle class="dot" cx="673.9936102236421" cy="336.90909090909093" r="3" fill="#2563eb"></circle><circle class="dot" cx="676.2939297124601" cy="336.90909090909093" r="3" fill="#2563eb"></circle><circle class="dot" cx="678.594249201278" cy="336.90909090909093" r="3" fill="#2563eb"></circle><circle class="dot" cx="680.8945686900959" cy="336.90909090909093" r="3" fill="#2563eb"></circle><circle class="dot" cx="683.1948881789137" cy="336.90909090909093" r="3" fill="#2563eb"></circle><circle class="dot" cx="685.4952076677316" cy="336.90909090909093" r="3" fill="#2563eb"></circle><circle class="dot" cx="687.7955271565495" cy="336.90909090909093" r="3" fill="#2563eb"></circle><circle class="dot" cx="690.0958466453674" cy="336.90909090909093" r="3" fill="#2563eb"></circle><circle class="dot" cx="692.3961661341853" cy="336.90909090909093" r="3" fill="#2563eb"></circle><circle class="dot" cx="694.6964856230032" cy="336.90909090909093" r="3" fill="#2563eb"></circle><circle class="dot" cx="696.9968051118211" cy="336.90909090909093" r="3" fill="#2563eb"></circle><circle class="dot" cx="699.297124600639" cy="336.90909090909093" r="3" fill="#2563eb"></circle><circle class="dot" cx="701.5974440894569" cy="336.90909090909093" r="3" fill="#2563eb"></circle><circle class="dot" cx="703.8977635782747" cy="336.90909090909093" r="3" fill="#2563eb"></circle><circle class="dot" cx="706.1980830670926" cy="336.90909090909093" r="3" fill="#2563eb"></circle><circle class="dot" cx="708.4984025559105" cy="336.90909090909093" r="3" fill="#2563eb"></circle><circle class="dot" cx="710.7987220447284" cy="336.90909090909093" r="3" fill="#2563eb"></circle><circle class="dot" cx="713.0990415335464" cy="336.90909090909093" r="3" fill="#2563eb"></circle><circle class="dot" cx="715.3993610223642" cy="336.90909090909093" r="3" fill="#2563eb"></circle><circle class="dot" cx="717.6996805111821" cy="336.90909090909093" r="3" fill="#2563eb"></circle><circle class="dot" cx="720" cy="336.90909090909093" r="3" fill="#2563eb"></circle><g class="grid" transform="translate(0,340)" fill="none" font-size="10" font-family="sans-serif" text-anchor="middle" style="stroke-dasharray: 3,3; opacity: 0.3;"><path class="domain" stroke="currentColor" d="M0.5,-340V0.5H720.5V-340"></path><g class="tick" opacity="1" transform="translate(0.5,0)"><line stroke="currentColor" y2="-340"></line><text fill="currentColor" y="3" dy="0.71em"></text></g><g class="tick" opacity="1" transform="translate(55.70766773162939,0)"><line stroke="currentColor" y2="-340"></line><text fill="currentColor" y="3" dy="0.71em"></text></g><g class="tick" opacity="1" transform="translate(110.91533546325878,0)"><line stroke="currentColor" y2="-340"></line><text fill="currentColor" y="3" dy="0.71em"></text></g><g class="tick" opacity="1" transform="translate(166.12300319488818,0)"><line stroke="currentColor" y2="-340"></line><text fill="currentColor" y="3" dy="0.71em"></text></g><g class="tick" opacity="1" transform="translate(221.33067092651757,0)"><line stroke="currentColor" y2="-340"></line><text fill="currentColor" y="3" dy="0.71em"></text></g><g class="tick" opacity="1" transform="translate(276.5383386581469,0)"><line stroke="currentColor" y2="-340"></line><text fill="currentColor" y="3" dy="0.71em"></text></g><g class="tick" opacity="1" transform="translate(331.74600638977637,0)"><line stroke="currentColor" y2="-340"></line><text fill="currentColor" y="3" dy="0.71em"></text></g><g class="tick" opacity="1" transform="translate(386.95367412140575,0)"><line stroke="currentColor" y2="-340"></line><text fill="currentColor" y="3" dy="0.71em"></text></g><g class="tick" opacity="1" transform="translate(442.16134185303514,0)"><line stroke="currentColor" y2="-340"></line><text fill="currentColor" y="3" dy="0.71em"></text></g><g class="tick" opacity="1" transform="translate(497.3690095846645,0)"><line stroke="currentColor" y2="-340"></line><text fill="currentColor" y="3" dy="0.71em"></text></g><g class="tick" opacity="1" transform="translate(552.5766773162939,0)"><line stroke="currentColor" y2="-340"></line><text fill="currentColor" y="3" dy="0.71em"></text></g><g class="tick" opacity="1" transform="translate(607.7843450479234,0)"><line stroke="currentColor" y2="-340"></line><text fill="currentColor" y="3" dy="0.71em"></text></g><g class="tick" opacity="1" transform="translate(662.9920127795527,0)"><line stroke="currentColor" y2="-340"></line><text fill="currentColor" y="3" dy="0.71em"></text></g><g class="tick" opacity="1" transform="translate(718.1996805111821,0)"><line stroke="currentColor" y2="-340"></line><text fill="currentColor" y="3" dy="0.71em"></text></g></g><g class="grid" fill="none" font-size="10" font-family="sans-serif" text-anchor="end" style="stroke-dasharray: 3,3; opacity: 0.3;"><path class="domain" stroke="currentColor" d="M720,340.5H0.5V0.5H720"></path><g class="tick" opacity="1" transform="translate(0,340.5)"><line stroke="currentColor" x2="720"></line><text fill="currentColor" x="-3" dy="0.32em"></text></g><g class="tick" opacity="1" transform="translate(0,309.59090909090907)"><line stroke="currentColor" x2="720"></line><text fill="currentColor" x="-3" dy="0.32em"></text></g><g class="tick" opacity="1" transform="translate(0,278.6818181818182)"><line stroke="currentColor" x2="720"></line><text fill="currentColor" x="-3" dy="0.32em"></text></g><g class="tick" opacity="1" transform="translate(0,247.77272727272728)"><line stroke="currentColor" x2="720"></line><text fill="currentColor" x="-3" dy="0.32em"></text></g><g class="tick" opacity="1" transform="translate(0,216.86363636363637)"><line stroke="currentColor" x2="720"></line><text fill="currentColor" x="-3" dy="0.32em"></text></g><g class="tick" opacity="1" transform="translate(0,185.95454545454544)"><line stroke="currentColor" x2="720"></line><text fill="currentColor" x="-3" dy="0.32em"></text></g><g class="tick" opacity="1" transform="translate(0,155.04545454545456)"><line stroke="currentColor" x2="720"></line><text fill="currentColor" x="-3" dy="0.32em"></text></g><g class="tick" opacity="1" transform="translate(0,124.13636363636368)"><line stroke="currentColor" x2="720"></line><text fill="currentColor" x="-3" dy="0.32em"></text></g><g class="tick" opacity="1" transform="translate(0,93.22727272727272)"><line stroke="currentColor" x2="720"></line><text fill="currentColor" x="-3" dy="0.32em"></text></g><g class="tick" opacity="1" transform="translate(0,62.31818181818184)"><line stroke="currentColor" x2="720"></line><text fill="currentColor" x="-3" dy="0.32em"></text></g><g class="tick" opacity="1" transform="translate(0,31.40909090909092)"><line stroke="currentColor" x2="720"></line><text fill="currentColor" x="-3" dy="0.32em"></text></g><g class="tick" opacity="1" transform="translate(0,0.5)"><line stroke="currentColor" x2="720"></line><text fill="currentColor" x="-3" dy="0.32em"></text></g></g></g><text x="400" y="10" text-anchor="middle" style="font-size: 16px; font-weight: bold; fill: #333;">OKX USDT Lending Rate - Current Month</text></svg>