<svg width="800" height="400" xmlns="http://www.w3.org/2000/svg"><g transform="translate(50,20)"><g transform="translate(0,340)" fill="none" font-size="10" font-family="sans-serif" text-anchor="middle"><path class="domain" stroke="currentColor" d="M0.5,6V0.5H720.5V6"></path><g class="tick" opacity="1" transform="translate(0.5,0)"><line stroke="currentColor" y2="6"></line><text fill="currentColor" y="9" dy=".15em" style="text-anchor: end;" dx="-.8em" transform="rotate(-45)">10/01</text></g><g class="tick" opacity="1" transform="translate(230.9,0)"><line stroke="currentColor" y2="6"></line><text fill="currentColor" y="9" dy=".15em" style="text-anchor: end;" dx="-.8em" transform="rotate(-45)">10/02</text></g><g class="tick" opacity="1" transform="translate(461.3,0)"><line stroke="currentColor" y2="6"></line><text fill="currentColor" y="9" dy=".15em" style="text-anchor: end;" dx="-.8em" transform="rotate(-45)">10/03</text></g><g class="tick" opacity="1" transform="translate(691.6999999999999,0)"><line stroke="currentColor" y2="6"></line><text fill="currentColor" y="9" dy=".15em" style="text-anchor: end;" dx="-.8em" transform="rotate(-45)">10/04</text></g></g><g fill="none" font-size="10" font-family="sans-serif" text-anchor="end"><path class="domain" stroke="currentColor" d="M-6,340.5H0.5V0.5H-6"></path><g class="tick" opacity="1" transform="translate(0,340.5)"><line stroke="currentColor" x2="-6"></line><text fill="currentColor" x="-9" dy="0.32em">0.00%</text></g><g class="tick" opacity="1" transform="translate(0,309.59090909090907)"><line stroke="currentColor" x2="-6"></line><text fill="currentColor" x="-9" dy="0.32em">10.00%</text></g><g class="tick" opacity="1" transform="translate(0,278.6818181818182)"><line stroke="currentColor" x2="-6"></line><text fill="currentColor" x="-9" dy="0.32em">20.00%</text></g><g class="tick" opacity="1" transform="translate(0,247.77272727272728)"><line stroke="currentColor" x2="-6"></line><text fill="currentColor" x="-9" dy="0.32em">30.00%</text></g><g class="tick" opacity="1" transform="translate(0,216.86363636363637)"><line stroke="currentColor" x2="-6"></line><text fill="currentColor" x="-9" dy="0.32em">40.00%</text></g><g class="tick" opacity="1" transform="translate(0,185.95454545454544)"><line stroke="currentColor" x2="-6"></line><text fill="currentColor" x="-9" dy="0.32em">50.00%</text></g><g class="tick" opacity="1" transform="translate(0,155.04545454545456)"><line stroke="currentColor" x2="-6"></line><text fill="currentColor" x="-9" dy="0.32em">60.00%</text></g><g class="tick" opacity="1" transform="translate(0,124.13636363636368)"><line stroke="currentColor" x2="-6"></line><text fill="currentColor" x="-9" dy="0.32em">70.00%</text></g><g class="tick" opacity="1" transform="translate(0,93.22727272727272)"><line stroke="currentColor" x2="-6"></line><text fill="currentColor" x="-9" dy="0.32em">80.00%</text></g><g class="tick" opacity="1" transform="translate(0,62.31818181818184)"><line stroke="currentColor" x2="-6"></line><text fill="currentColor" x="-9" dy="0.32em">90.00%</text></g><g class="tick" opacity="1" transform="translate(0,31.40909090909092)"><line stroke="currentColor" x2="-6"></line><text fill="currentColor" x="-9" dy="0.32em">100.00%</text></g><g class="tick" opacity="1" transform="translate(0,0.5)"><line stroke="currentColor" x2="-6"></line><text fill="currentColor" x="-9" dy="0.32em">110.00%</text></g></g><text transform="rotate(-90)" y="-50" x="-170" dy="1em" style="text-anchor: middle; font-size: 12px; fill: #666;">Pre Rate (%)</text><text transform="translate(360, 380)" style="text-anchor: middle; font-size: 12px; fill: #666;">Time (UTC)</text><path fill="none" stroke="#2563eb" stroke-width="2" d="M0,327.636C3.2,327.636,6.4,327.636,9.6,327.636C12.8,327.636,16,327.636,19.2,327.636C22.4,327.636,25.6,327.636,28.8,327.636C32,327.636,35.2,327.636,38.4,327.636C41.6,327.636,44.8,327.636,48,327.636C51.2,327.636,54.4,327.636,57.6,327.636C60.8,327.636,64,327.636,67.2,327.636C70.4,327.636,73.6,327.636,76.8,327.636C80,327.636,83.2,327.636,86.4,327.636C89.6,327.636,92.8,327.636,96,327.636C99.2,327.636,102.4,327.636,105.6,327.636C108.8,327.636,112,327.636,115.2,327.636C118.4,327.636,121.6,327.636,124.8,327.636C128,327.636,131.2,327.636,134.4,327.636C137.6,327.636,140.8,327.636,144,327.636C147.2,327.636,150.4,327.636,153.6,327.636C156.8,327.636,160,327.636,163.2,327.636C166.4,327.636,169.6,327.636,172.8,327.636C176,327.636,179.2,327.636,182.4,327.636C185.6,327.636,188.8,327.636,192,327.636C195.2,327.636,198.4,327.636,201.6,327.636C204.8,327.636,208,327.636,211.2,327.636C214.4,327.636,217.6,327.636,220.8,327.636C224,327.636,227.2,327.636,230.4,327.636C233.6,327.636,236.8,327.636,240,327.636C243.2,327.636,246.4,327.636,249.6,327.636C252.8,327.636,256,327.636,259.2,327.636C262.4,327.636,265.6,327.636,268.8,327.636C272,327.636,275.2,327.636,278.4,327.636C281.6,327.636,284.8,327.636,288,327.636C291.2,327.636,294.4,327.636,297.6,327.636C300.8,327.636,304,327.636,307.2,327.636C310.4,327.636,313.6,327.636,316.8,327.636C320,327.636,323.2,327.636,326.4,327.636C329.6,327.636,332.8,327.636,336,327.636C339.2,327.636,342.4,327.636,345.6,327.636C348.8,327.636,352,18.545,355.2,18.545C358.4,18.545,361.6,293.636,364.8,306C368,318.364,371.2,324.545,374.4,324.545C377.6,324.545,380.8,324.545,384,324.545C387.2,324.545,390.4,324.545,393.6,324.545C396.8,324.545,400,324.545,403.2,324.545C406.4,324.545,409.6,324.545,412.8,324.545C416,324.545,419.2,324.545,422.4,324.545C425.6,324.545,428.8,324.545,432,324.545C435.2,324.545,438.4,324.545,441.6,324.545C444.8,324.545,448,324.545,451.2,324.545C454.4,324.545,457.6,324.545,460.8,324.545C464,324.545,467.2,324.545,470.4,324.545C473.6,324.545,476.8,324.545,480,324.545C483.2,324.545,486.4,324.545,489.6,324.545C492.8,324.545,496,324.545,499.2,324.545C502.4,324.545,505.6,324.545,508.8,324.545C512,324.545,515.2,324.545,518.4,324.545C521.6,324.545,524.8,324.545,528,324.545C531.2,324.545,534.4,324.545,537.6,324.545C540.8,324.545,544,324.545,547.2,324.545C550.4,324.545,553.6,324.545,556.8,324.545C560,324.545,563.2,324.545,566.4,324.545C569.6,324.545,572.8,324.545,576,324.545C579.2,324.545,582.4,324.545,585.6,324.545C588.8,324.545,592,324.545,595.2,324.545C598.4,324.545,601.6,324.545,604.8,324.545C608,324.545,611.2,324.545,614.4,324.545C617.6,324.545,620.8,324.545,624,324.545C627.2,324.545,630.4,324.545,633.6,324.545C636.8,324.545,640,324.545,643.2,324.545C646.4,324.545,649.6,324.545,652.8,324.545C656,324.545,659.2,324.545,662.4,324.545C665.6,324.545,668.8,324.545,672,324.545C675.2,324.545,678.4,324.545,681.6,324.545C684.8,324.545,688,324.545,691.2,324.545C694.4,324.545,697.6,324.545,700.8,324.545C704,324.545,707.2,324.545,710.4,324.545C713.6,324.545,716.8,324.545,720,324.545"></path><circle class="dot" cx="0" cy="327.6363636363636" r="3" fill="#2563eb"></circle><circle class="dot" cx="9.600000000000001" cy="327.6363636363636" r="3" fill="#2563eb"></circle><circle class="dot" cx="19.200000000000003" cy="327.6363636363636" r="3" fill="#2563eb"></circle><circle class="dot" cx="28.8" cy="327.6363636363636" r="3" fill="#2563eb"></circle><circle class="dot" cx="38.400000000000006" cy="327.6363636363636" r="3" fill="#2563eb"></circle><circle class="dot" cx="48" cy="327.6363636363636" r="3" fill="#2563eb"></circle><circle class="dot" cx="57.6" cy="327.6363636363636" r="3" fill="#2563eb"></circle><circle class="dot" cx="67.2" cy="327.6363636363636" r="3" fill="#2563eb"></circle><circle class="dot" cx="76.80000000000001" cy="327.6363636363636" r="3" fill="#2563eb"></circle><circle class="dot" cx="86.39999999999999" cy="327.6363636363636" r="3" fill="#2563eb"></circle><circle class="dot" cx="96" cy="327.6363636363636" r="3" fill="#2563eb"></circle><circle class="dot" cx="105.6" cy="327.6363636363636" r="3" fill="#2563eb"></circle><circle class="dot" cx="115.2" cy="327.6363636363636" r="3" fill="#2563eb"></circle><circle class="dot" cx="124.80000000000001" cy="327.6363636363636" r="3" fill="#2563eb"></circle><circle class="dot" cx="134.4" cy="327.6363636363636" r="3" fill="#2563eb"></circle><circle class="dot" cx="144" cy="327.6363636363636" r="3" fill="#2563eb"></circle><circle class="dot" cx="153.60000000000002" cy="327.6363636363636" r="3" fill="#2563eb"></circle><circle class="dot" cx="163.2" cy="327.6363636363636" r="3" fill="#2563eb"></circle><circle class="dot" cx="172.79999999999998" cy="327.6363636363636" r="3" fill="#2563eb"></circle><circle class="dot" cx="182.4" cy="327.6363636363636" r="3" fill="#2563eb"></circle><circle class="dot" cx="192" cy="327.6363636363636" r="3" fill="#2563eb"></circle><circle class="dot" cx="201.60000000000002" cy="327.6363636363636" r="3" fill="#2563eb"></circle><circle class="dot" cx="211.2" cy="327.6363636363636" r="3" fill="#2563eb"></circle><circle class="dot" cx="220.79999999999998" cy="327.6363636363636" r="3" fill="#2563eb"></circle><circle class="dot" cx="230.4" cy="327.6363636363636" r="3" fill="#2563eb"></circle><circle class="dot" cx="240" cy="327.6363636363636" r="3" fill="#2563eb"></circle><circle class="dot" cx="249.60000000000002" cy="327.6363636363636" r="3" fill="#2563eb"></circle><circle class="dot" cx="259.2" cy="327.6363636363636" r="3" fill="#2563eb"></circle><circle class="dot" cx="268.8" cy="327.6363636363636" r="3" fill="#2563eb"></circle><circle class="dot" cx="278.4" cy="327.6363636363636" r="3" fill="#2563eb"></circle><circle class="dot" cx="288" cy="327.6363636363636" r="3" fill="#2563eb"></circle><circle class="dot" cx="297.6" cy="327.6363636363636" r="3" fill="#2563eb"></circle><circle class="dot" cx="307.20000000000005" cy="327.6363636363636" r="3" fill="#2563eb"></circle><circle class="dot" cx="316.8" cy="327.6363636363636" r="3" fill="#2563eb"></circle><circle class="dot" cx="326.4" cy="327.6363636363636" r="3" fill="#2563eb"></circle><circle class="dot" cx="336" cy="327.6363636363636" r="3" fill="#2563eb"></circle><circle class="dot" cx="345.59999999999997" cy="327.6363636363636" r="3" fill="#2563eb"></circle><circle class="dot" cx="355.2" cy="18.54545454545455" r="3" fill="#2563eb"></circle><circle class="dot" cx="364.8" cy="306" r="3" fill="#2563eb"></circle><circle class="dot" cx="374.40000000000003" cy="324.54545454545456" r="3" fill="#2563eb"></circle><circle class="dot" cx="384" cy="324.54545454545456" r="3" fill="#2563eb"></circle><circle class="dot" cx="393.59999999999997" cy="324.54545454545456" r="3" fill="#2563eb"></circle><circle class="dot" cx="403.20000000000005" cy="324.54545454545456" r="3" fill="#2563eb"></circle><circle class="dot" cx="412.8" cy="324.54545454545456" r="3" fill="#2563eb"></circle><circle class="dot" cx="422.4" cy="324.54545454545456" r="3" fill="#2563eb"></circle><circle class="dot" cx="432" cy="324.54545454545456" r="3" fill="#2563eb"></circle><circle class="dot" cx="441.59999999999997" cy="324.54545454545456" r="3" fill="#2563eb"></circle><circle class="dot" cx="451.20000000000005" cy="324.54545454545456" r="3" fill="#2563eb"></circle><circle class="dot" cx="460.8" cy="324.54545454545456" r="3" fill="#2563eb"></circle><circle class="dot" cx="470.4" cy="324.54545454545456" r="3" fill="#2563eb"></circle><circle class="dot" cx="480" cy="324.54545454545456" r="3" fill="#2563eb"></circle><circle class="dot" cx="489.6" cy="324.54545454545456" r="3" fill="#2563eb"></circle><circle class="dot" cx="499.20000000000005" cy="324.54545454545456" r="3" fill="#2563eb"></circle><circle class="dot" cx="508.8" cy="324.54545454545456" r="3" fill="#2563eb"></circle><circle class="dot" cx="518.4" cy="324.54545454545456" r="3" fill="#2563eb"></circle><circle class="dot" cx="528" cy="324.54545454545456" r="3" fill="#2563eb"></circle><circle class="dot" cx="537.6" cy="324.54545454545456" r="3" fill="#2563eb"></circle><circle class="dot" cx="547.2" cy="324.54545454545456" r="3" fill="#2563eb"></circle><circle class="dot" cx="556.8" cy="324.54545454545456" r="3" fill="#2563eb"></circle><circle class="dot" cx="566.4" cy="324.54545454545456" r="3" fill="#2563eb"></circle><circle class="dot" cx="576" cy="324.54545454545456" r="3" fill="#2563eb"></circle><circle class="dot" cx="585.6" cy="324.54545454545456" r="3" fill="#2563eb"></circle><circle class="dot" cx="595.2" cy="324.54545454545456" r="3" fill="#2563eb"></circle><circle class="dot" cx="604.8" cy="324.54545454545456" r="3" fill="#2563eb"></circle><circle class="dot" cx="614.4000000000001" cy="324.54545454545456" r="3" fill="#2563eb"></circle><circle class="dot" cx="624" cy="324.54545454545456" r="3" fill="#2563eb"></circle><circle class="dot" cx="633.6" cy="324.54545454545456" r="3" fill="#2563eb"></circle><circle class="dot" cx="643.1999999999999" cy="324.54545454545456" r="3" fill="#2563eb"></circle><circle class="dot" cx="652.8" cy="324.54545454545456" r="3" fill="#2563eb"></circle><circle class="dot" cx="662.4" cy="324.54545454545456" r="3" fill="#2563eb"></circle><circle class="dot" cx="672" cy="324.54545454545456" r="3" fill="#2563eb"></circle><circle class="dot" cx="681.6" cy="324.54545454545456" r="3" fill="#2563eb"></circle><circle class="dot" cx="691.1999999999999" cy="324.54545454545456" r="3" fill="#2563eb"></circle><circle class="dot" cx="700.8000000000001" cy="324.54545454545456" r="3" fill="#2563eb"></circle><circle class="dot" cx="710.4" cy="324.54545454545456" r="3" fill="#2563eb"></circle><circle class="dot" cx="720" cy="324.54545454545456" r="3" fill="#2563eb"></circle><g class="grid" transform="translate(0,340)" fill="none" font-size="10" font-family="sans-serif" text-anchor="middle" style="stroke-dasharray: 3,3; opacity: 0.3;"><path class="domain" stroke="currentColor" d="M0.5,-340V0.5H720.5V-340"></path><g class="tick" opacity="1" transform="translate(0.5,0)"><line stroke="currentColor" y2="-340"></line><text fill="currentColor" y="3" dy="0.71em"></text></g><g class="tick" opacity="1" transform="translate(230.9,0)"><line stroke="currentColor" y2="-340"></line><text fill="currentColor" y="3" dy="0.71em"></text></g><g class="tick" opacity="1" transform="translate(461.3,0)"><line stroke="currentColor" y2="-340"></line><text fill="currentColor" y="3" dy="0.71em"></text></g><g class="tick" opacity="1" transform="translate(691.6999999999999,0)"><line stroke="currentColor" y2="-340"></line><text fill="currentColor" y="3" dy="0.71em"></text></g></g><g class="grid" fill="none" font-size="10" font-family="sans-serif" text-anchor="end" style="stroke-dasharray: 3,3; opacity: 0.3;"><path class="domain" stroke="currentColor" d="M720,340.5H0.5V0.5H720"></path><g class="tick" opacity="1" transform="translate(0,340.5)"><line stroke="currentColor" x2="720"></line><text fill="currentColor" x="-3" dy="0.32em"></text></g><g class="tick" opacity="1" transform="translate(0,309.59090909090907)"><line stroke="currentColor" x2="720"></line><text fill="currentColor" x="-3" dy="0.32em"></text></g><g class="tick" opacity="1" transform="translate(0,278.6818181818182)"><line stroke="currentColor" x2="720"></line><text fill="currentColor" x="-3" dy="0.32em"></text></g><g class="tick" opacity="1" transform="translate(0,247.77272727272728)"><line stroke="currentColor" x2="720"></line><text fill="currentColor" x="-3" dy="0.32em"></text></g><g class="tick" opacity="1" transform="translate(0,216.86363636363637)"><line stroke="currentColor" x2="720"></line><text fill="currentColor" x="-3" dy="0.32em"></text></g><g class="tick" opacity="1" transform="translate(0,185.95454545454544)"><line stroke="currentColor" x2="720"></line><text fill="currentColor" x="-3" dy="0.32em"></text></g><g class="tick" opacity="1" transform="translate(0,155.04545454545456)"><line stroke="currentColor" x2="720"></line><text fill="currentColor" x="-3" dy="0.32em"></text></g><g class="tick" opacity="1" transform="translate(0,124.13636363636368)"><line stroke="currentColor" x2="720"></line><text fill="currentColor" x="-3" dy="0.32em"></text></g><g class="tick" opacity="1" transform="translate(0,93.22727272727272)"><line stroke="currentColor" x2="720"></line><text fill="currentColor" x="-3" dy="0.32em"></text></g><g class="tick" opacity="1" transform="translate(0,62.31818181818184)"><line stroke="currentColor" x2="720"></line><text fill="currentColor" x="-3" dy="0.32em"></text></g><g class="tick" opacity="1" transform="translate(0,31.40909090909092)"><line stroke="currentColor" x2="720"></line><text fill="currentColor" x="-3" dy="0.32em"></text></g><g class="tick" opacity="1" transform="translate(0,0.5)"><line stroke="currentColor" x2="720"></line><text fill="currentColor" x="-3" dy="0.32em"></text></g></g></g><text x="400" y="10" text-anchor="middle" style="font-size: 16px; font-weight: bold; fill: #333;">OKX USDT Lending Rate - Current Month</text></svg>