<svg width="800" height="400" xmlns="http://www.w3.org/2000/svg"><g transform="translate(50,20)"><g transform="translate(0,340)" fill="none" font-size="10" font-family="sans-serif" text-anchor="middle"><path class="domain" stroke="currentColor" d="M0.5,6V0.5H720.5V6"></path><g class="tick" opacity="1" transform="translate(0.5,0)"><line stroke="currentColor" y2="6"></line><text fill="currentColor" y="9" dy=".15em" style="text-anchor: end;" dx="-.8em" transform="rotate(-45)">09/01</text></g><g class="tick" opacity="1" transform="translate(47.45652173913043,0)"><line stroke="currentColor" y2="6"></line><text fill="currentColor" y="9" dy=".15em" style="text-anchor: end;" dx="-.8em" transform="rotate(-45)">09/02</text></g><g class="tick" opacity="1" transform="translate(94.41304347826086,0)"><line stroke="currentColor" y2="6"></line><text fill="currentColor" y="9" dy=".15em" style="text-anchor: end;" dx="-.8em" transform="rotate(-45)">09/03</text></g><g class="tick" opacity="1" transform="translate(141.3695652173913,0)"><line stroke="currentColor" y2="6"></line><text fill="currentColor" y="9" dy=".15em" style="text-anchor: end;" dx="-.8em" transform="rotate(-45)">09/04</text></g><g class="tick" opacity="1" transform="translate(188.32608695652172,0)"><line stroke="currentColor" y2="6"></line><text fill="currentColor" y="9" dy=".15em" style="text-anchor: end;" dx="-.8em" transform="rotate(-45)">09/05</text></g><g class="tick" opacity="1" transform="translate(235.2826086956522,0)"><line stroke="currentColor" y2="6"></line><text fill="currentColor" y="9" dy=".15em" style="text-anchor: end;" dx="-.8em" transform="rotate(-45)">09/06</text></g><g class="tick" opacity="1" transform="translate(282.2391304347826,0)"><line stroke="currentColor" y2="6"></line><text fill="currentColor" y="9" dy=".15em" style="text-anchor: end;" dx="-.8em" transform="rotate(-45)">09/07</text></g><g class="tick" opacity="1" transform="translate(329.195652173913,0)"><line stroke="currentColor" y2="6"></line><text fill="currentColor" y="9" dy=".15em" style="text-anchor: end;" dx="-.8em" transform="rotate(-45)">09/08</text></g><g class="tick" opacity="1" transform="translate(376.15217391304344,0)"><line stroke="currentColor" y2="6"></line><text fill="currentColor" y="9" dy=".15em" style="text-anchor: end;" dx="-.8em" transform="rotate(-45)">09/09</text></g><g class="tick" opacity="1" transform="translate(423.10869565217394,0)"><line stroke="currentColor" y2="6"></line><text fill="currentColor" y="9" dy=".15em" style="text-anchor: end;" dx="-.8em" transform="rotate(-45)">09/10</text></g><g class="tick" opacity="1" transform="translate(470.0652173913044,0)"><line stroke="currentColor" y2="6"></line><text fill="currentColor" y="9" dy=".15em" style="text-anchor: end;" dx="-.8em" transform="rotate(-45)">09/11</text></g><g class="tick" opacity="1" transform="translate(517.0217391304348,0)"><line stroke="currentColor" y2="6"></line><text fill="currentColor" y="9" dy=".15em" style="text-anchor: end;" dx="-.8em" transform="rotate(-45)">09/12</text></g><g class="tick" opacity="1" transform="translate(563.9782608695652,0)"><line stroke="currentColor" y2="6"></line><text fill="currentColor" y="9" dy=".15em" style="text-anchor: end;" dx="-.8em" transform="rotate(-45)">09/13</text></g><g class="tick" opacity="1" transform="translate(610.9347826086956,0)"><line stroke="currentColor" y2="6"></line><text fill="currentColor" y="9" dy=".15em" style="text-anchor: end;" dx="-.8em" transform="rotate(-45)">09/14</text></g><g class="tick" opacity="1" transform="translate(657.891304347826,0)"><line stroke="currentColor" y2="6"></line><text fill="currentColor" y="9" dy=".15em" style="text-anchor: end;" dx="-.8em" transform="rotate(-45)">09/15</text></g><g class="tick" opacity="1" transform="translate(704.8478260869565,0)"><line stroke="currentColor" y2="6"></line><text fill="currentColor" y="9" dy=".15em" style="text-anchor: end;" dx="-.8em" transform="rotate(-45)">09/16</text></g></g><g fill="none" font-size="10" font-family="sans-serif" text-anchor="end"><path class="domain" stroke="currentColor" d="M-6,340.5H0.5V0.5H-6"></path><g class="tick" opacity="1" transform="translate(0,340.5)"><line stroke="currentColor" x2="-6"></line><text fill="currentColor" x="-9" dy="0.32em">4.00%</text></g><g class="tick" opacity="1" transform="translate(0,314.34615384615387)"><line stroke="currentColor" x2="-6"></line><text fill="currentColor" x="-9" dy="0.32em">6.00%</text></g><g class="tick" opacity="1" transform="translate(0,288.1923076923077)"><line stroke="currentColor" x2="-6"></line><text fill="currentColor" x="-9" dy="0.32em">8.00%</text></g><g class="tick" opacity="1" transform="translate(0,262.0384615384615)"><line stroke="currentColor" x2="-6"></line><text fill="currentColor" x="-9" dy="0.32em">10.00%</text></g><g class="tick" opacity="1" transform="translate(0,235.8846153846154)"><line stroke="currentColor" x2="-6"></line><text fill="currentColor" x="-9" dy="0.32em">12.00%</text></g><g class="tick" opacity="1" transform="translate(0,209.73076923076925)"><line stroke="currentColor" x2="-6"></line><text fill="currentColor" x="-9" dy="0.32em">14.00%</text></g><g class="tick" opacity="1" transform="translate(0,183.5769230769231)"><line stroke="currentColor" x2="-6"></line><text fill="currentColor" x="-9" dy="0.32em">16.00%</text></g><g class="tick" opacity="1" transform="translate(0,157.42307692307693)"><line stroke="currentColor" x2="-6"></line><text fill="currentColor" x="-9" dy="0.32em">18.00%</text></g><g class="tick" opacity="1" transform="translate(0,131.26923076923075)"><line stroke="currentColor" x2="-6"></line><text fill="currentColor" x="-9" dy="0.32em">20.00%</text></g><g class="tick" opacity="1" transform="translate(0,105.11538461538463)"><line stroke="currentColor" x2="-6"></line><text fill="currentColor" x="-9" dy="0.32em">22.00%</text></g><g class="tick" opacity="1" transform="translate(0,78.96153846153848)"><line stroke="currentColor" x2="-6"></line><text fill="currentColor" x="-9" dy="0.32em">24.00%</text></g><g class="tick" opacity="1" transform="translate(0,52.807692307692314)"><line stroke="currentColor" x2="-6"></line><text fill="currentColor" x="-9" dy="0.32em">26.00%</text></g><g class="tick" opacity="1" transform="translate(0,26.653846153846136)"><line stroke="currentColor" x2="-6"></line><text fill="currentColor" x="-9" dy="0.32em">28.00%</text></g><g class="tick" opacity="1" transform="translate(0,0.5)"><line stroke="currentColor" x2="-6"></line><text fill="currentColor" x="-9" dy="0.32em">30.00%</text></g></g><text transform="rotate(-90)" y="-50" x="-170" dy="1em" style="text-anchor: middle; font-size: 12px; fill: #666;">Pre Rate (%)</text><text transform="translate(360, 380)" style="text-anchor: middle; font-size: 12px; fill: #666;">Time (UTC)</text><path fill="none" stroke="#2563eb" stroke-width="2" d="M0,340C0.652,340,1.304,340,1.957,340C2.609,340,3.261,340,3.913,340C4.565,340,5.217,340,5.87,340C6.522,340,7.174,340,7.826,340C8.478,340,9.13,340,9.783,340C10.435,340,11.087,340,11.739,340C12.391,340,13.043,340,13.696,340C14.348,340,15,296.41,15.652,287.692C16.304,278.974,16.957,274.615,17.609,274.615C18.261,274.615,18.913,292.051,19.565,300.769C20.217,309.487,20.87,326.923,21.522,326.923C22.174,326.923,22.826,322.564,23.478,313.846C24.13,305.128,24.783,274.615,25.435,274.615C26.087,274.615,26.739,300.769,27.391,300.769C28.043,300.769,28.696,300.769,29.348,300.769C30,300.769,30.652,300.769,31.304,300.769C31.957,300.769,32.609,300.769,33.261,300.769C33.913,300.769,34.565,326.923,35.217,326.923C35.87,326.923,36.522,318.205,37.174,313.846C37.826,309.487,38.478,300.769,39.13,300.769C39.783,300.769,40.435,340,41.087,340C41.739,340,42.391,340,43.043,340C43.696,340,44.348,340,45,340C45.652,340,46.304,313.846,46.957,313.846C47.609,313.846,48.261,326.923,48.913,326.923C49.565,326.923,50.217,322.564,50.87,313.846C51.522,305.128,52.174,283.333,52.826,274.615C53.478,265.897,54.13,261.538,54.783,261.538C55.435,261.538,56.087,270.256,56.739,274.615C57.391,278.974,58.043,287.692,58.696,287.692C59.348,287.692,60,235.385,60.652,235.385C61.304,235.385,61.957,252.821,62.609,261.538C63.261,270.256,63.913,287.692,64.565,287.692C65.217,287.692,65.87,287.692,66.522,287.692C67.174,287.692,67.826,287.692,68.478,287.692C69.13,287.692,69.783,296.41,70.435,300.769C71.087,305.128,71.739,313.846,72.391,313.846C73.043,313.846,73.696,235.385,74.348,235.385C75,235.385,75.652,248.462,76.304,261.538C76.957,274.615,77.609,313.846,78.261,313.846C78.913,313.846,79.565,287.692,80.217,287.692C80.87,287.692,81.522,300.769,82.174,300.769C82.826,300.769,83.478,300.769,84.13,300.769C84.783,300.769,85.435,313.846,86.087,313.846C86.739,313.846,87.391,261.538,88.043,261.538C88.696,261.538,89.348,261.538,90,261.538C90.652,261.538,91.304,248.462,91.957,248.462C92.609,248.462,93.261,248.462,93.913,248.462C94.565,248.462,95.217,261.538,95.87,261.538C96.522,261.538,97.174,248.462,97.826,248.462C98.478,248.462,99.13,248.462,99.783,248.462C100.435,248.462,101.087,268.077,101.739,274.615C102.391,281.154,103.043,281.154,103.696,287.692C104.348,294.231,105,307.308,105.652,313.846C106.304,320.385,106.957,326.923,107.609,326.923C108.261,326.923,108.913,313.846,109.565,313.846C110.217,313.846,110.87,340,111.522,340C112.174,340,112.826,326.923,113.478,326.923C114.13,326.923,114.783,326.923,115.435,326.923C116.087,326.923,116.739,326.923,117.391,326.923C118.043,326.923,118.696,340,119.348,340C120,340,120.652,292.051,121.304,274.615C121.957,257.179,122.609,235.385,123.261,235.385C123.913,235.385,124.565,241.923,125.217,248.462C125.87,255,126.522,265.897,127.174,274.615C127.826,283.333,128.478,294.231,129.13,300.769C129.783,307.308,130.435,313.846,131.087,313.846C131.739,313.846,132.391,305.128,133.043,300.769C133.696,296.41,134.348,287.692,135,287.692C135.652,287.692,136.304,287.692,136.957,287.692C137.609,287.692,138.261,287.692,138.913,287.692C139.565,287.692,140.217,287.692,140.87,287.692C141.522,287.692,142.174,261.538,142.826,261.538C143.478,261.538,144.13,265.897,144.783,274.615C145.435,283.333,146.087,313.846,146.739,313.846C147.391,313.846,148.043,313.846,148.696,313.846C149.348,313.846,150,313.846,150.652,313.846C151.304,313.846,151.957,313.846,152.609,313.846C153.261,313.846,153.913,326.923,154.565,326.923C155.217,326.923,155.87,300.769,156.522,300.769C157.174,300.769,157.826,300.769,158.478,300.769C159.13,300.769,159.783,287.692,160.435,287.692C161.087,287.692,161.739,300.769,162.391,300.769C163.043,300.769,163.696,300.769,164.348,300.769C165,300.769,165.652,307.308,166.304,313.846C166.957,320.385,167.609,340,168.261,340C168.913,340,169.565,340,170.217,340C170.87,340,171.522,340,172.174,340C172.826,340,173.478,340,174.13,340C174.783,340,175.435,340,176.087,340C176.739,340,177.391,340,178.043,340C178.696,340,179.348,340,180,340C180.652,340,181.304,340,181.957,340C182.609,340,183.261,340,183.913,340C184.565,340,185.217,340,185.87,340C186.522,340,187.174,340,187.826,340C188.478,340,189.13,340,189.783,340C190.435,340,191.087,340,191.739,340C192.391,340,193.043,340,193.696,340C194.348,340,195,340,195.652,340C196.304,340,196.957,340,197.609,340C198.261,340,198.913,340,199.565,340C200.217,340,200.87,340,201.522,340C202.174,340,202.826,274.615,203.478,274.615C204.13,274.615,204.783,340,205.435,340C206.087,340,206.739,340,207.391,340C208.043,340,208.696,340,209.348,340C210,340,210.652,335.641,211.304,326.923C211.957,318.205,212.609,248.462,213.261,248.462C213.913,248.462,214.565,252.821,215.217,261.538C215.87,270.256,216.522,340,217.174,340C217.826,340,218.478,331.282,219.13,326.923C219.783,322.564,220.435,313.846,221.087,313.846C221.739,313.846,222.391,326.923,223.043,326.923C223.696,326.923,224.348,313.846,225,313.846C225.652,313.846,226.304,313.846,226.957,313.846C227.609,313.846,228.261,313.846,228.913,313.846C229.565,313.846,230.217,340,230.87,340C231.522,340,232.174,340,232.826,340C233.478,340,234.13,340,234.783,340C235.435,340,236.087,326.923,236.739,326.923C237.391,326.923,238.043,340,238.696,340C239.348,340,240,340,240.652,340C241.304,340,241.957,340,242.609,340C243.261,340,243.913,340,244.565,340C245.217,340,245.87,340,246.522,340C247.174,340,247.826,340,248.478,340C249.13,340,249.783,340,250.435,340C251.087,340,251.739,340,252.391,340C253.043,340,253.696,340,254.348,340C255,340,255.652,340,256.304,340C256.957,340,257.609,340,258.261,340C258.913,340,259.565,340,260.217,340C260.87,340,261.522,340,262.174,340C262.826,340,263.478,340,264.13,340C264.783,340,265.435,340,266.087,340C266.739,340,267.391,340,268.043,340C268.696,340,269.348,340,270,340C270.652,340,271.304,340,271.957,340C272.609,340,273.261,340,273.913,340C274.565,340,275.217,340,275.87,340C276.522,340,277.174,340,277.826,340C278.478,340,279.13,340,279.783,340C280.435,340,281.087,340,281.739,340C282.391,340,283.043,340,283.696,340C284.348,340,285,340,285.652,340C286.304,340,286.957,340,287.609,340C288.261,340,288.913,340,289.565,340C290.217,340,290.87,340,291.522,340C292.174,340,292.826,340,293.478,340C294.13,340,294.783,340,295.435,340C296.087,340,296.739,313.846,297.391,313.846C298.043,313.846,298.696,322.564,299.348,326.923C300,331.282,300.652,340,301.304,340C301.957,340,302.609,331.282,303.261,326.923C303.913,322.564,304.565,313.846,305.217,313.846C305.87,313.846,306.522,313.846,307.174,313.846C307.826,313.846,308.478,307.308,309.13,300.769C309.783,294.231,310.435,274.615,311.087,274.615C311.739,274.615,312.391,274.615,313.043,274.615C313.696,274.615,314.348,283.333,315,287.692C315.652,292.051,316.304,300.769,316.957,300.769C317.609,300.769,318.261,300.769,318.913,300.769C319.565,300.769,320.217,287.692,320.87,287.692C321.522,287.692,322.174,300.769,322.826,300.769C323.478,300.769,324.13,300.769,324.783,300.769C325.435,300.769,326.087,274.615,326.739,274.615C327.391,274.615,328.043,274.615,328.696,274.615C329.348,274.615,330,261.538,330.652,261.538C331.304,261.538,331.957,261.538,332.609,261.538C333.261,261.538,333.913,248.462,334.565,248.462C335.217,248.462,335.87,257.179,336.522,261.538C337.174,265.897,337.826,274.615,338.478,274.615C339.13,274.615,339.783,274.615,340.435,274.615C341.087,274.615,341.739,287.692,342.391,287.692C343.043,287.692,343.696,287.692,344.348,287.692C345,287.692,345.652,281.154,346.304,274.615C346.957,268.077,347.609,255,348.261,248.462C348.913,241.923,349.565,235.385,350.217,235.385C350.87,235.385,351.522,235.385,352.174,235.385C352.826,235.385,353.478,235.385,354.13,235.385C354.783,235.385,355.435,248.462,356.087,248.462C356.739,248.462,357.391,231.026,358.043,222.308C358.696,213.59,359.348,196.154,360,196.154C360.652,196.154,361.304,202.692,361.957,209.231C362.609,215.769,363.261,235.385,363.913,235.385C364.565,235.385,365.217,209.231,365.87,209.231C366.522,209.231,367.174,248.462,367.826,248.462C368.478,248.462,369.13,248.462,369.783,248.462C370.435,248.462,371.087,222.308,371.739,222.308C372.391,222.308,373.043,231.026,373.696,235.385C374.348,239.744,375,248.462,375.652,248.462C376.304,248.462,376.957,248.462,377.609,248.462C378.261,248.462,378.913,196.154,379.565,196.154C380.217,196.154,380.87,196.154,381.522,196.154C382.174,196.154,382.826,183.077,383.478,183.077C384.13,183.077,384.783,248.462,385.435,248.462C386.087,248.462,386.739,248.462,387.391,248.462C388.043,248.462,388.696,204.872,389.348,196.154C390,187.436,390.652,183.077,391.304,183.077C391.957,183.077,392.609,183.077,393.261,183.077C393.913,183.077,394.565,183.077,395.217,183.077C395.87,183.077,396.522,191.795,397.174,196.154C397.826,200.513,398.478,209.231,399.13,209.231C399.783,209.231,400.435,200.513,401.087,196.154C401.739,191.795,402.391,183.077,403.043,183.077C403.696,183.077,404.348,224.487,405,248.462C405.652,272.436,406.304,326.923,406.957,326.923C407.609,326.923,408.261,326.923,408.913,326.923C409.565,326.923,410.217,318.205,410.87,313.846C411.522,309.487,412.174,305.128,412.826,300.769C413.478,296.41,414.13,287.692,414.783,287.692C415.435,287.692,416.087,287.692,416.739,287.692C417.391,287.692,418.043,300.769,418.696,300.769C419.348,300.769,420,287.692,420.652,287.692C421.304,287.692,421.957,287.692,422.609,287.692C423.261,287.692,423.913,313.846,424.565,313.846C425.217,313.846,425.87,307.308,426.522,300.769C427.174,294.231,427.826,274.615,428.478,274.615C429.13,274.615,429.783,274.615,430.435,274.615C431.087,274.615,431.739,283.333,432.391,287.692C433.043,292.051,433.696,300.769,434.348,300.769C435,300.769,435.652,239.744,436.304,222.308C436.957,204.872,437.609,196.154,438.261,196.154C438.913,196.154,439.565,222.308,440.217,222.308C440.87,222.308,441.522,222.308,442.174,222.308C442.826,222.308,443.478,226.667,444.13,235.385C444.783,244.103,445.435,326.923,446.087,326.923C446.739,326.923,447.391,292.051,448.043,274.615C448.696,257.179,449.348,222.308,450,222.308C450.652,222.308,451.304,237.564,451.957,248.462C452.609,259.359,453.261,278.974,453.913,287.692C454.565,296.41,455.217,296.41,455.87,300.769C456.522,305.128,457.174,307.308,457.826,313.846C458.478,320.385,459.13,340,459.783,340C460.435,340,461.087,340,461.739,340C462.391,340,463.043,340,463.696,340C464.348,340,465,340,465.652,340C466.304,340,466.957,340,467.609,340C468.261,340,468.913,340,469.565,340C470.217,340,470.87,340,471.522,340C472.174,340,472.826,340,473.478,340C474.13,340,474.783,340,475.435,340C476.087,340,476.739,326.923,477.391,326.923C478.043,326.923,478.696,326.923,479.348,326.923C480,326.923,480.652,326.923,481.304,326.923C481.957,326.923,482.609,313.846,483.261,313.846C483.913,313.846,484.565,313.846,485.217,313.846C485.87,313.846,486.522,340,487.174,340C487.826,340,488.478,340,489.13,340C489.783,340,490.435,326.923,491.087,326.923C491.739,326.923,492.391,326.923,493.043,326.923C493.696,326.923,494.348,296.41,495,287.692C495.652,278.974,496.304,274.615,496.957,274.615C497.609,274.615,498.261,281.154,498.913,287.692C499.565,294.231,500.217,313.846,500.87,313.846C501.522,313.846,502.174,313.846,502.826,313.846C503.478,313.846,504.13,340,504.783,340C505.435,340,506.087,340,506.739,340C507.391,340,508.043,340,508.696,340C509.348,340,510,340,510.652,340C511.304,340,511.957,340,512.609,340C513.261,340,513.913,333.462,514.565,326.923C515.217,320.385,515.87,316.026,516.522,300.769C517.174,285.513,517.826,235.385,518.478,235.385C519.13,235.385,519.783,261.538,520.435,261.538C521.087,261.538,521.739,248.462,522.391,248.462C523.043,248.462,523.696,248.462,524.348,248.462C525,248.462,525.652,244.103,526.304,235.385C526.957,226.667,527.609,213.59,528.261,196.154C528.913,178.718,529.565,130.769,530.217,130.769C530.87,130.769,531.522,148.205,532.174,156.923C532.826,165.641,533.478,170,534.13,183.077C534.783,196.154,535.435,235.385,536.087,235.385C536.739,235.385,537.391,235.385,538.043,235.385C538.696,235.385,539.348,235.385,540,235.385C540.652,235.385,541.304,235.385,541.957,235.385C542.609,235.385,543.261,235.385,543.913,235.385C544.565,235.385,545.217,222.308,545.87,222.308C546.522,222.308,547.174,248.462,547.826,248.462C548.478,248.462,549.13,241.923,549.783,235.385C550.435,228.846,551.087,217.949,551.739,209.231C552.391,200.513,553.043,196.154,553.696,183.077C554.348,170,555,130.769,555.652,130.769C556.304,130.769,556.957,130.769,557.609,130.769C558.261,130.769,558.913,156.923,559.565,156.923C560.217,156.923,560.87,100.256,561.522,91.538C562.174,82.821,562.826,78.462,563.478,78.462C564.13,78.462,564.783,78.462,565.435,78.462C566.087,78.462,566.739,104.615,567.391,104.615C568.043,104.615,568.696,100.256,569.348,91.538C570,82.821,570.652,52.308,571.304,52.308C571.957,52.308,572.609,52.308,573.261,52.308C573.913,52.308,574.565,65.385,575.217,65.385C575.87,65.385,576.522,65.385,577.174,65.385C577.826,65.385,578.478,56.667,579.13,52.308C579.783,47.949,580.435,45.769,581.087,39.231C581.739,32.692,582.391,13.077,583.043,13.077C583.696,13.077,584.348,54.487,585,78.462C585.652,102.436,586.304,113.333,586.957,156.923C587.609,200.513,588.261,340,588.913,340C589.565,340,590.217,340,590.87,340C591.522,340,592.174,340,592.826,340C593.478,340,594.13,340,594.783,340C595.435,340,596.087,340,596.739,340C597.391,340,598.043,340,598.696,340C599.348,340,600,340,600.652,340C601.304,340,601.957,340,602.609,340C603.261,340,603.913,340,604.565,340C605.217,340,605.87,340,606.522,340C607.174,340,607.826,340,608.478,340C609.13,340,609.783,313.846,610.435,313.846C611.087,313.846,611.739,313.846,612.391,313.846C613.043,313.846,613.696,289.872,614.348,274.615C615,259.359,615.652,222.308,616.304,222.308C616.957,222.308,617.609,287.692,618.261,287.692C618.913,287.692,619.565,283.333,620.217,274.615C620.87,265.897,621.522,222.308,622.174,222.308C622.826,222.308,623.478,248.462,624.13,248.462C624.783,248.462,625.435,248.462,626.087,248.462C626.739,248.462,627.391,248.462,628.043,248.462C628.696,248.462,629.348,235.385,630,235.385C630.652,235.385,631.304,239.744,631.957,248.462C632.609,257.179,633.261,326.923,633.913,326.923C634.565,326.923,635.217,326.923,635.87,326.923C636.522,326.923,637.174,340,637.826,340C638.478,340,639.13,340,639.783,340C640.435,340,641.087,340,641.739,340C642.391,340,643.043,307.308,643.696,287.692C644.348,268.077,645,222.308,645.652,222.308C646.304,222.308,646.957,261.538,647.609,274.615C648.261,287.692,648.913,300.769,649.565,300.769C650.217,300.769,650.87,294.231,651.522,287.692C652.174,281.154,652.826,261.538,653.478,261.538C654.13,261.538,654.783,274.615,655.435,287.692C656.087,300.769,656.739,340,657.391,340C658.043,340,658.696,331.282,659.348,326.923C660,322.564,660.652,313.846,661.304,313.846C661.957,313.846,662.609,340,663.261,340C663.913,340,664.565,340,665.217,340C665.87,340,666.522,340,667.174,340C667.826,340,668.478,340,669.13,340C669.783,340,670.435,340,671.087,340C671.739,340,672.391,340,673.043,340C673.696,340,674.348,340,675,340C675.652,340,676.304,340,676.957,340C677.609,340,678.261,340,678.913,340C679.565,340,680.217,340,680.87,340C681.522,340,682.174,340,682.826,340C683.478,340,684.13,340,684.783,340C685.435,340,686.087,340,686.739,340C687.391,340,688.043,340,688.696,340C689.348,340,690,340,690.652,340C691.304,340,691.957,340,692.609,340C693.261,340,693.913,340,694.565,340C695.217,340,695.87,340,696.522,340C697.174,340,697.826,340,698.478,340C699.13,340,699.783,340,700.435,340C701.087,340,701.739,340,702.391,340C703.043,340,703.696,340,704.348,340C705,340,705.652,340,706.304,340C706.957,340,707.609,340,708.261,340C708.913,340,709.565,340,710.217,340C710.87,340,711.522,340,712.174,340C712.826,340,713.478,340,714.13,340C714.783,340,715.435,340,716.087,340C716.739,340,717.391,340,718.043,340C718.696,340,719.348,340,720,340"></path><circle class="dot" cx="0" cy="340" r="3" fill="#2563eb"></circle><circle class="dot" cx="1.9565217391304348" cy="340" r="3" fill="#2563eb"></circle><circle class="dot" cx="3.9130434782608696" cy="340" r="3" fill="#2563eb"></circle><circle class="dot" cx="5.869565217391304" cy="340" r="3" fill="#2563eb"></circle><circle class="dot" cx="7.826086956521739" cy="340" r="3" fill="#2563eb"></circle><circle class="dot" cx="9.782608695652174" cy="340" r="3" fill="#2563eb"></circle><circle class="dot" cx="11.739130434782608" cy="340" r="3" fill="#2563eb"></circle><circle class="dot" cx="13.695652173913045" cy="340" r="3" fill="#2563eb"></circle><circle class="dot" cx="15.652173913043478" cy="287.6923076923077" r="3" fill="#2563eb"></circle><circle class="dot" cx="17.608695652173914" cy="274.61538461538464" r="3" fill="#2563eb"></circle><circle class="dot" cx="19.565217391304348" cy="300.7692307692308" r="3" fill="#2563eb"></circle><circle class="dot" cx="21.521739130434785" cy="326.9230769230769" r="3" fill="#2563eb"></circle><circle class="dot" cx="23.478260869565215" cy="313.84615384615387" r="3" fill="#2563eb"></circle><circle class="dot" cx="25.43478260869565" cy="274.61538461538464" r="3" fill="#2563eb"></circle><circle class="dot" cx="27.39130434782609" cy="300.7692307692308" r="3" fill="#2563eb"></circle><circle class="dot" cx="29.347826086956523" cy="300.7692307692308" r="3" fill="#2563eb"></circle><circle class="dot" cx="31.304347826086957" cy="300.7692307692308" r="3" fill="#2563eb"></circle><circle class="dot" cx="33.26086956521739" cy="300.7692307692308" r="3" fill="#2563eb"></circle><circle class="dot" cx="35.21739130434783" cy="326.9230769230769" r="3" fill="#2563eb"></circle><circle class="dot" cx="37.17391304347826" cy="313.84615384615387" r="3" fill="#2563eb"></circle><circle class="dot" cx="39.130434782608695" cy="300.7692307692308" r="3" fill="#2563eb"></circle><circle class="dot" cx="41.086956521739125" cy="340" r="3" fill="#2563eb"></circle><circle class="dot" cx="43.04347826086957" cy="340" r="3" fill="#2563eb"></circle><circle class="dot" cx="45" cy="340" r="3" fill="#2563eb"></circle><circle class="dot" cx="46.95652173913043" cy="313.84615384615387" r="3" fill="#2563eb"></circle><circle class="dot" cx="48.91304347826087" cy="326.9230769230769" r="3" fill="#2563eb"></circle><circle class="dot" cx="50.8695652173913" cy="313.84615384615387" r="3" fill="#2563eb"></circle><circle class="dot" cx="52.82608695652174" cy="274.61538461538464" r="3" fill="#2563eb"></circle><circle class="dot" cx="54.78260869565218" cy="261.5384615384615" r="3" fill="#2563eb"></circle><circle class="dot" cx="56.73913043478261" cy="274.61538461538464" r="3" fill="#2563eb"></circle><circle class="dot" cx="58.69565217391305" cy="287.6923076923077" r="3" fill="#2563eb"></circle><circle class="dot" cx="60.65217391304348" cy="235.3846153846154" r="3" fill="#2563eb"></circle><circle class="dot" cx="62.608695652173914" cy="261.5384615384615" r="3" fill="#2563eb"></circle><circle class="dot" cx="64.56521739130434" cy="287.6923076923077" r="3" fill="#2563eb"></circle><circle class="dot" cx="66.52173913043478" cy="287.6923076923077" r="3" fill="#2563eb"></circle><circle class="dot" cx="68.47826086956522" cy="287.6923076923077" r="3" fill="#2563eb"></circle><circle class="dot" cx="70.43478260869566" cy="300.7692307692308" r="3" fill="#2563eb"></circle><circle class="dot" cx="72.3913043478261" cy="313.84615384615387" r="3" fill="#2563eb"></circle><circle class="dot" cx="74.34782608695652" cy="235.3846153846154" r="3" fill="#2563eb"></circle><circle class="dot" cx="76.30434782608695" cy="261.5384615384615" r="3" fill="#2563eb"></circle><circle class="dot" cx="78.26086956521739" cy="313.84615384615387" r="3" fill="#2563eb"></circle><circle class="dot" cx="80.21739130434783" cy="287.6923076923077" r="3" fill="#2563eb"></circle><circle class="dot" cx="82.17391304347825" cy="300.7692307692308" r="3" fill="#2563eb"></circle><circle class="dot" cx="84.1304347826087" cy="300.7692307692308" r="3" fill="#2563eb"></circle><circle class="dot" cx="86.08695652173914" cy="313.84615384615387" r="3" fill="#2563eb"></circle><circle class="dot" cx="88.04347826086956" cy="261.5384615384615" r="3" fill="#2563eb"></circle><circle class="dot" cx="90" cy="261.5384615384615" r="3" fill="#2563eb"></circle><circle class="dot" cx="91.95652173913044" cy="248.46153846153845" r="3" fill="#2563eb"></circle><circle class="dot" cx="93.91304347826086" cy="248.46153846153845" r="3" fill="#2563eb"></circle><circle class="dot" cx="95.86956521739131" cy="261.5384615384615" r="3" fill="#2563eb"></circle><circle class="dot" cx="97.82608695652173" cy="248.46153846153845" r="3" fill="#2563eb"></circle><circle class="dot" cx="99.78260869565217" cy="248.46153846153845" r="3" fill="#2563eb"></circle><circle class="dot" cx="101.7391304347826" cy="274.61538461538464" r="3" fill="#2563eb"></circle><circle class="dot" cx="103.69565217391305" cy="287.6923076923077" r="3" fill="#2563eb"></circle><circle class="dot" cx="105.65217391304348" cy="313.84615384615387" r="3" fill="#2563eb"></circle><circle class="dot" cx="107.6086956521739" cy="326.9230769230769" r="3" fill="#2563eb"></circle><circle class="dot" cx="109.56521739130436" cy="313.84615384615387" r="3" fill="#2563eb"></circle><circle class="dot" cx="111.52173913043478" cy="340" r="3" fill="#2563eb"></circle><circle class="dot" cx="113.47826086956522" cy="326.9230769230769" r="3" fill="#2563eb"></circle><circle class="dot" cx="115.43478260869564" cy="326.9230769230769" r="3" fill="#2563eb"></circle><circle class="dot" cx="117.3913043478261" cy="326.9230769230769" r="3" fill="#2563eb"></circle><circle class="dot" cx="119.34782608695652" cy="340" r="3" fill="#2563eb"></circle><circle class="dot" cx="121.30434782608695" cy="274.61538461538464" r="3" fill="#2563eb"></circle><circle class="dot" cx="123.2608695652174" cy="235.3846153846154" r="3" fill="#2563eb"></circle><circle class="dot" cx="125.21739130434783" cy="248.46153846153845" r="3" fill="#2563eb"></circle><circle class="dot" cx="127.17391304347827" cy="274.61538461538464" r="3" fill="#2563eb"></circle><circle class="dot" cx="129.1304347826087" cy="300.7692307692308" r="3" fill="#2563eb"></circle><circle class="dot" cx="131.08695652173913" cy="313.84615384615387" r="3" fill="#2563eb"></circle><circle class="dot" cx="133.04347826086956" cy="300.7692307692308" r="3" fill="#2563eb"></circle><circle class="dot" cx="135" cy="287.6923076923077" r="3" fill="#2563eb"></circle><circle class="dot" cx="136.95652173913044" cy="287.6923076923077" r="3" fill="#2563eb"></circle><circle class="dot" cx="138.91304347826087" cy="287.6923076923077" r="3" fill="#2563eb"></circle><circle class="dot" cx="140.8695652173913" cy="287.6923076923077" r="3" fill="#2563eb"></circle><circle class="dot" cx="142.82608695652172" cy="261.5384615384615" r="3" fill="#2563eb"></circle><circle class="dot" cx="144.7826086956522" cy="274.61538461538464" r="3" fill="#2563eb"></circle><circle class="dot" cx="146.7391304347826" cy="313.84615384615387" r="3" fill="#2563eb"></circle><circle class="dot" cx="148.69565217391303" cy="313.84615384615387" r="3" fill="#2563eb"></circle><circle class="dot" cx="150.6521739130435" cy="313.84615384615387" r="3" fill="#2563eb"></circle><circle class="dot" cx="152.6086956521739" cy="313.84615384615387" r="3" fill="#2563eb"></circle><circle class="dot" cx="154.56521739130434" cy="326.9230769230769" r="3" fill="#2563eb"></circle><circle class="dot" cx="156.52173913043478" cy="300.7692307692308" r="3" fill="#2563eb"></circle><circle class="dot" cx="158.47826086956522" cy="300.7692307692308" r="3" fill="#2563eb"></circle><circle class="dot" cx="160.43478260869566" cy="287.6923076923077" r="3" fill="#2563eb"></circle><circle class="dot" cx="162.3913043478261" cy="300.7692307692308" r="3" fill="#2563eb"></circle><circle class="dot" cx="164.3478260869565" cy="300.7692307692308" r="3" fill="#2563eb"></circle><circle class="dot" cx="166.30434782608697" cy="313.84615384615387" r="3" fill="#2563eb"></circle><circle class="dot" cx="168.2608695652174" cy="340" r="3" fill="#2563eb"></circle><circle class="dot" cx="170.2173913043478" cy="340" r="3" fill="#2563eb"></circle><circle class="dot" cx="172.17391304347828" cy="340" r="3" fill="#2563eb"></circle><circle class="dot" cx="174.1304347826087" cy="340" r="3" fill="#2563eb"></circle><circle class="dot" cx="176.08695652173913" cy="340" r="3" fill="#2563eb"></circle><circle class="dot" cx="178.04347826086956" cy="340" r="3" fill="#2563eb"></circle><circle class="dot" cx="180" cy="340" r="3" fill="#2563eb"></circle><circle class="dot" cx="181.95652173913044" cy="340" r="3" fill="#2563eb"></circle><circle class="dot" cx="183.91304347826087" cy="340" r="3" fill="#2563eb"></circle><circle class="dot" cx="185.86956521739128" cy="340" r="3" fill="#2563eb"></circle><circle class="dot" cx="187.82608695652172" cy="340" r="3" fill="#2563eb"></circle><circle class="dot" cx="189.7826086956522" cy="340" r="3" fill="#2563eb"></circle><circle class="dot" cx="191.73913043478262" cy="340" r="3" fill="#2563eb"></circle><circle class="dot" cx="193.69565217391303" cy="340" r="3" fill="#2563eb"></circle><circle class="dot" cx="195.65217391304347" cy="340" r="3" fill="#2563eb"></circle><circle class="dot" cx="197.6086956521739" cy="340" r="3" fill="#2563eb"></circle><circle class="dot" cx="199.56521739130434" cy="340" r="3" fill="#2563eb"></circle><circle class="dot" cx="201.5217391304348" cy="340" r="3" fill="#2563eb"></circle><circle class="dot" cx="203.4782608695652" cy="274.61538461538464" r="3" fill="#2563eb"></circle><circle class="dot" cx="205.43478260869566" cy="340" r="3" fill="#2563eb"></circle><circle class="dot" cx="207.3913043478261" cy="340" r="3" fill="#2563eb"></circle><circle class="dot" cx="209.34782608695653" cy="340" r="3" fill="#2563eb"></circle><circle class="dot" cx="211.30434782608697" cy="326.9230769230769" r="3" fill="#2563eb"></circle><circle class="dot" cx="213.26086956521738" cy="248.46153846153845" r="3" fill="#2563eb"></circle><circle class="dot" cx="215.2173913043478" cy="261.5384615384615" r="3" fill="#2563eb"></circle><circle class="dot" cx="217.17391304347828" cy="340" r="3" fill="#2563eb"></circle><circle class="dot" cx="219.13043478260872" cy="326.9230769230769" r="3" fill="#2563eb"></circle><circle class="dot" cx="221.08695652173913" cy="313.84615384615387" r="3" fill="#2563eb"></circle><circle class="dot" cx="223.04347826086956" cy="326.9230769230769" r="3" fill="#2563eb"></circle><circle class="dot" cx="225" cy="313.84615384615387" r="3" fill="#2563eb"></circle><circle class="dot" cx="226.95652173913044" cy="313.84615384615387" r="3" fill="#2563eb"></circle><circle class="dot" cx="228.91304347826087" cy="313.84615384615387" r="3" fill="#2563eb"></circle><circle class="dot" cx="230.86956521739128" cy="340" r="3" fill="#2563eb"></circle><circle class="dot" cx="232.82608695652172" cy="340" r="3" fill="#2563eb"></circle><circle class="dot" cx="234.7826086956522" cy="340" r="3" fill="#2563eb"></circle><circle class="dot" cx="236.73913043478262" cy="326.9230769230769" r="3" fill="#2563eb"></circle><circle class="dot" cx="238.69565217391303" cy="340" r="3" fill="#2563eb"></circle><circle class="dot" cx="240.65217391304347" cy="340" r="3" fill="#2563eb"></circle><circle class="dot" cx="242.6086956521739" cy="340" r="3" fill="#2563eb"></circle><circle class="dot" cx="244.56521739130434" cy="340" r="3" fill="#2563eb"></circle><circle class="dot" cx="246.5217391304348" cy="340" r="3" fill="#2563eb"></circle><circle class="dot" cx="248.4782608695652" cy="340" r="3" fill="#2563eb"></circle><circle class="dot" cx="250.43478260869566" cy="340" r="3" fill="#2563eb"></circle><circle class="dot" cx="252.3913043478261" cy="340" r="3" fill="#2563eb"></circle><circle class="dot" cx="254.34782608695653" cy="340" r="3" fill="#2563eb"></circle><circle class="dot" cx="256.304347826087" cy="340" r="3" fill="#2563eb"></circle><circle class="dot" cx="258.2608695652174" cy="340" r="3" fill="#2563eb"></circle><circle class="dot" cx="260.2173913043478" cy="340" r="3" fill="#2563eb"></circle><circle class="dot" cx="262.17391304347825" cy="340" r="3" fill="#2563eb"></circle><circle class="dot" cx="264.1304347826087" cy="340" r="3" fill="#2563eb"></circle><circle class="dot" cx="266.0869565217391" cy="340" r="3" fill="#2563eb"></circle><circle class="dot" cx="268.04347826086956" cy="340" r="3" fill="#2563eb"></circle><circle class="dot" cx="270" cy="340" r="3" fill="#2563eb"></circle><circle class="dot" cx="271.95652173913044" cy="340" r="3" fill="#2563eb"></circle><circle class="dot" cx="273.9130434782609" cy="340" r="3" fill="#2563eb"></circle><circle class="dot" cx="275.8695652173913" cy="340" r="3" fill="#2563eb"></circle><circle class="dot" cx="277.82608695652175" cy="340" r="3" fill="#2563eb"></circle><circle class="dot" cx="279.7826086956522" cy="340" r="3" fill="#2563eb"></circle><circle class="dot" cx="281.7391304347826" cy="340" r="3" fill="#2563eb"></circle><circle class="dot" cx="283.695652173913" cy="340" r="3" fill="#2563eb"></circle><circle class="dot" cx="285.65217391304344" cy="340" r="3" fill="#2563eb"></circle><circle class="dot" cx="287.60869565217394" cy="340" r="3" fill="#2563eb"></circle><circle class="dot" cx="289.5652173913044" cy="340" r="3" fill="#2563eb"></circle><circle class="dot" cx="291.5217391304348" cy="340" r="3" fill="#2563eb"></circle><circle class="dot" cx="293.4782608695652" cy="340" r="3" fill="#2563eb"></circle><circle class="dot" cx="295.4347826086956" cy="340" r="3" fill="#2563eb"></circle><circle class="dot" cx="297.39130434782606" cy="313.84615384615387" r="3" fill="#2563eb"></circle><circle class="dot" cx="299.34782608695656" cy="326.9230769230769" r="3" fill="#2563eb"></circle><circle class="dot" cx="301.304347826087" cy="340" r="3" fill="#2563eb"></circle><circle class="dot" cx="303.2608695652174" cy="326.9230769230769" r="3" fill="#2563eb"></circle><circle class="dot" cx="305.2173913043478" cy="313.84615384615387" r="3" fill="#2563eb"></circle><circle class="dot" cx="307.17391304347825" cy="313.84615384615387" r="3" fill="#2563eb"></circle><circle class="dot" cx="309.1304347826087" cy="300.7692307692308" r="3" fill="#2563eb"></circle><circle class="dot" cx="311.0869565217391" cy="274.61538461538464" r="3" fill="#2563eb"></circle><circle class="dot" cx="313.04347826086956" cy="274.61538461538464" r="3" fill="#2563eb"></circle><circle class="dot" cx="315" cy="287.6923076923077" r="3" fill="#2563eb"></circle><circle class="dot" cx="316.95652173913044" cy="300.7692307692308" r="3" fill="#2563eb"></circle><circle class="dot" cx="318.9130434782609" cy="300.7692307692308" r="3" fill="#2563eb"></circle><circle class="dot" cx="320.8695652173913" cy="287.6923076923077" r="3" fill="#2563eb"></circle><circle class="dot" cx="322.82608695652175" cy="300.7692307692308" r="3" fill="#2563eb"></circle><circle class="dot" cx="324.7826086956522" cy="300.7692307692308" r="3" fill="#2563eb"></circle><circle class="dot" cx="326.7391304347826" cy="274.61538461538464" r="3" fill="#2563eb"></circle><circle class="dot" cx="328.695652173913" cy="274.61538461538464" r="3" fill="#2563eb"></circle><circle class="dot" cx="330.65217391304344" cy="261.5384615384615" r="3" fill="#2563eb"></circle><circle class="dot" cx="332.60869565217394" cy="261.5384615384615" r="3" fill="#2563eb"></circle><circle class="dot" cx="334.5652173913044" cy="248.46153846153845" r="3" fill="#2563eb"></circle><circle class="dot" cx="336.5217391304348" cy="261.5384615384615" r="3" fill="#2563eb"></circle><circle class="dot" cx="338.4782608695652" cy="274.61538461538464" r="3" fill="#2563eb"></circle><circle class="dot" cx="340.4347826086956" cy="274.61538461538464" r="3" fill="#2563eb"></circle><circle class="dot" cx="342.39130434782606" cy="287.6923076923077" r="3" fill="#2563eb"></circle><circle class="dot" cx="344.34782608695656" cy="287.6923076923077" r="3" fill="#2563eb"></circle><circle class="dot" cx="346.304347826087" cy="274.61538461538464" r="3" fill="#2563eb"></circle><circle class="dot" cx="348.2608695652174" cy="248.46153846153845" r="3" fill="#2563eb"></circle><circle class="dot" cx="350.2173913043478" cy="235.3846153846154" r="3" fill="#2563eb"></circle><circle class="dot" cx="352.17391304347825" cy="235.3846153846154" r="3" fill="#2563eb"></circle><circle class="dot" cx="354.1304347826087" cy="235.3846153846154" r="3" fill="#2563eb"></circle><circle class="dot" cx="356.0869565217391" cy="248.46153846153845" r="3" fill="#2563eb"></circle><circle class="dot" cx="358.04347826086956" cy="222.30769230769232" r="3" fill="#2563eb"></circle><circle class="dot" cx="360" cy="196.15384615384616" r="3" fill="#2563eb"></circle><circle class="dot" cx="361.9565217391304" cy="209.23076923076925" r="3" fill="#2563eb"></circle><circle class="dot" cx="363.9130434782609" cy="235.3846153846154" r="3" fill="#2563eb"></circle><circle class="dot" cx="365.8695652173913" cy="209.23076923076925" r="3" fill="#2563eb"></circle><circle class="dot" cx="367.82608695652175" cy="248.46153846153845" r="3" fill="#2563eb"></circle><circle class="dot" cx="369.7826086956522" cy="248.46153846153845" r="3" fill="#2563eb"></circle><circle class="dot" cx="371.73913043478257" cy="222.30769230769232" r="3" fill="#2563eb"></circle><circle class="dot" cx="373.69565217391306" cy="235.3846153846154" r="3" fill="#2563eb"></circle><circle class="dot" cx="375.65217391304344" cy="248.46153846153845" r="3" fill="#2563eb"></circle><circle class="dot" cx="377.60869565217394" cy="248.46153846153845" r="3" fill="#2563eb"></circle><circle class="dot" cx="379.5652173913044" cy="196.15384615384616" r="3" fill="#2563eb"></circle><circle class="dot" cx="381.52173913043475" cy="196.15384615384616" r="3" fill="#2563eb"></circle><circle class="dot" cx="383.47826086956525" cy="183.0769230769231" r="3" fill="#2563eb"></circle><circle class="dot" cx="385.4347826086956" cy="248.46153846153845" r="3" fill="#2563eb"></circle><circle class="dot" cx="387.39130434782606" cy="248.46153846153845" r="3" fill="#2563eb"></circle><circle class="dot" cx="389.34782608695656" cy="196.15384615384616" r="3" fill="#2563eb"></circle><circle class="dot" cx="391.30434782608694" cy="183.0769230769231" r="3" fill="#2563eb"></circle><circle class="dot" cx="393.26086956521743" cy="183.0769230769231" r="3" fill="#2563eb"></circle><circle class="dot" cx="395.2173913043478" cy="183.0769230769231" r="3" fill="#2563eb"></circle><circle class="dot" cx="397.17391304347825" cy="196.15384615384616" r="3" fill="#2563eb"></circle><circle class="dot" cx="399.1304347826087" cy="209.23076923076925" r="3" fill="#2563eb"></circle><circle class="dot" cx="401.0869565217391" cy="196.15384615384616" r="3" fill="#2563eb"></circle><circle class="dot" cx="403.0434782608696" cy="183.0769230769231" r="3" fill="#2563eb"></circle><circle class="dot" cx="405" cy="248.46153846153845" r="3" fill="#2563eb"></circle><circle class="dot" cx="406.9565217391304" cy="326.9230769230769" r="3" fill="#2563eb"></circle><circle class="dot" cx="408.9130434782609" cy="326.9230769230769" r="3" fill="#2563eb"></circle><circle class="dot" cx="410.8695652173913" cy="313.84615384615387" r="3" fill="#2563eb"></circle><circle class="dot" cx="412.82608695652175" cy="300.7692307692308" r="3" fill="#2563eb"></circle><circle class="dot" cx="414.7826086956522" cy="287.6923076923077" r="3" fill="#2563eb"></circle><circle class="dot" cx="416.73913043478257" cy="287.6923076923077" r="3" fill="#2563eb"></circle><circle class="dot" cx="418.69565217391306" cy="300.7692307692308" r="3" fill="#2563eb"></circle><circle class="dot" cx="420.65217391304344" cy="287.6923076923077" r="3" fill="#2563eb"></circle><circle class="dot" cx="422.60869565217394" cy="287.6923076923077" r="3" fill="#2563eb"></circle><circle class="dot" cx="424.5652173913044" cy="313.84615384615387" r="3" fill="#2563eb"></circle><circle class="dot" cx="426.52173913043475" cy="300.7692307692308" r="3" fill="#2563eb"></circle><circle class="dot" cx="428.47826086956525" cy="274.61538461538464" r="3" fill="#2563eb"></circle><circle class="dot" cx="430.4347826086956" cy="274.61538461538464" r="3" fill="#2563eb"></circle><circle class="dot" cx="432.39130434782606" cy="287.6923076923077" r="3" fill="#2563eb"></circle><circle class="dot" cx="434.34782608695656" cy="300.7692307692308" r="3" fill="#2563eb"></circle><circle class="dot" cx="436.30434782608694" cy="222.30769230769232" r="3" fill="#2563eb"></circle><circle class="dot" cx="438.26086956521743" cy="196.15384615384616" r="3" fill="#2563eb"></circle><circle class="dot" cx="440.2173913043478" cy="222.30769230769232" r="3" fill="#2563eb"></circle><circle class="dot" cx="442.17391304347825" cy="222.30769230769232" r="3" fill="#2563eb"></circle><circle class="dot" cx="444.1304347826087" cy="235.3846153846154" r="3" fill="#2563eb"></circle><circle class="dot" cx="446.0869565217391" cy="326.9230769230769" r="3" fill="#2563eb"></circle><circle class="dot" cx="448.0434782608696" cy="274.61538461538464" r="3" fill="#2563eb"></circle><circle class="dot" cx="450" cy="222.30769230769232" r="3" fill="#2563eb"></circle><circle class="dot" cx="451.9565217391304" cy="248.46153846153845" r="3" fill="#2563eb"></circle><circle class="dot" cx="453.9130434782609" cy="287.6923076923077" r="3" fill="#2563eb"></circle><circle class="dot" cx="455.8695652173913" cy="300.7692307692308" r="3" fill="#2563eb"></circle><circle class="dot" cx="457.82608695652175" cy="313.84615384615387" r="3" fill="#2563eb"></circle><circle class="dot" cx="459.7826086956522" cy="340" r="3" fill="#2563eb"></circle><circle class="dot" cx="461.73913043478257" cy="340" r="3" fill="#2563eb"></circle><circle class="dot" cx="463.69565217391306" cy="340" r="3" fill="#2563eb"></circle><circle class="dot" cx="465.65217391304344" cy="340" r="3" fill="#2563eb"></circle><circle class="dot" cx="467.60869565217394" cy="340" r="3" fill="#2563eb"></circle><circle class="dot" cx="469.5652173913044" cy="340" r="3" fill="#2563eb"></circle><circle class="dot" cx="471.52173913043475" cy="340" r="3" fill="#2563eb"></circle><circle class="dot" cx="473.47826086956525" cy="340" r="3" fill="#2563eb"></circle><circle class="dot" cx="475.4347826086956" cy="340" r="3" fill="#2563eb"></circle><circle class="dot" cx="477.39130434782606" cy="326.9230769230769" r="3" fill="#2563eb"></circle><circle class="dot" cx="479.34782608695656" cy="326.9230769230769" r="3" fill="#2563eb"></circle><circle class="dot" cx="481.30434782608694" cy="326.9230769230769" r="3" fill="#2563eb"></circle><circle class="dot" cx="483.26086956521743" cy="313.84615384615387" r="3" fill="#2563eb"></circle><circle class="dot" cx="485.2173913043478" cy="313.84615384615387" r="3" fill="#2563eb"></circle><circle class="dot" cx="487.17391304347825" cy="340" r="3" fill="#2563eb"></circle><circle class="dot" cx="489.1304347826087" cy="340" r="3" fill="#2563eb"></circle><circle class="dot" cx="491.0869565217391" cy="326.9230769230769" r="3" fill="#2563eb"></circle><circle class="dot" cx="493.0434782608696" cy="326.9230769230769" r="3" fill="#2563eb"></circle><circle class="dot" cx="495" cy="287.6923076923077" r="3" fill="#2563eb"></circle><circle class="dot" cx="496.9565217391304" cy="274.61538461538464" r="3" fill="#2563eb"></circle><circle class="dot" cx="498.9130434782609" cy="287.6923076923077" r="3" fill="#2563eb"></circle><circle class="dot" cx="500.8695652173913" cy="313.84615384615387" r="3" fill="#2563eb"></circle><circle class="dot" cx="502.82608695652175" cy="313.84615384615387" r="3" fill="#2563eb"></circle><circle class="dot" cx="504.7826086956522" cy="340" r="3" fill="#2563eb"></circle><circle class="dot" cx="506.73913043478257" cy="340" r="3" fill="#2563eb"></circle><circle class="dot" cx="508.69565217391306" cy="340" r="3" fill="#2563eb"></circle><circle class="dot" cx="510.65217391304344" cy="340" r="3" fill="#2563eb"></circle><circle class="dot" cx="512.608695652174" cy="340" r="3" fill="#2563eb"></circle><circle class="dot" cx="514.5652173913044" cy="326.9230769230769" r="3" fill="#2563eb"></circle><circle class="dot" cx="516.5217391304348" cy="300.7692307692308" r="3" fill="#2563eb"></circle><circle class="dot" cx="518.4782608695652" cy="235.3846153846154" r="3" fill="#2563eb"></circle><circle class="dot" cx="520.4347826086956" cy="261.5384615384615" r="3" fill="#2563eb"></circle><circle class="dot" cx="522.391304347826" cy="248.46153846153845" r="3" fill="#2563eb"></circle><circle class="dot" cx="524.3478260869565" cy="248.46153846153845" r="3" fill="#2563eb"></circle><circle class="dot" cx="526.3043478260869" cy="235.3846153846154" r="3" fill="#2563eb"></circle><circle class="dot" cx="528.2608695652174" cy="196.15384615384616" r="3" fill="#2563eb"></circle><circle class="dot" cx="530.2173913043479" cy="130.76923076923075" r="3" fill="#2563eb"></circle><circle class="dot" cx="532.1739130434783" cy="156.92307692307693" r="3" fill="#2563eb"></circle><circle class="dot" cx="534.1304347826087" cy="183.0769230769231" r="3" fill="#2563eb"></circle><circle class="dot" cx="536.0869565217391" cy="235.3846153846154" r="3" fill="#2563eb"></circle><circle class="dot" cx="538.0434782608696" cy="235.3846153846154" r="3" fill="#2563eb"></circle><circle class="dot" cx="540" cy="235.3846153846154" r="3" fill="#2563eb"></circle><circle class="dot" cx="541.9565217391304" cy="235.3846153846154" r="3" fill="#2563eb"></circle><circle class="dot" cx="543.9130434782609" cy="235.3846153846154" r="3" fill="#2563eb"></circle><circle class="dot" cx="545.8695652173913" cy="222.30769230769232" r="3" fill="#2563eb"></circle><circle class="dot" cx="547.8260869565217" cy="248.46153846153845" r="3" fill="#2563eb"></circle><circle class="dot" cx="549.7826086956521" cy="235.3846153846154" r="3" fill="#2563eb"></circle><circle class="dot" cx="551.7391304347826" cy="209.23076923076925" r="3" fill="#2563eb"></circle><circle class="dot" cx="553.6956521739131" cy="183.0769230769231" r="3" fill="#2563eb"></circle><circle class="dot" cx="555.6521739130435" cy="130.76923076923075" r="3" fill="#2563eb"></circle><circle class="dot" cx="557.608695652174" cy="130.76923076923075" r="3" fill="#2563eb"></circle><circle class="dot" cx="559.5652173913044" cy="156.92307692307693" r="3" fill="#2563eb"></circle><circle class="dot" cx="561.5217391304348" cy="91.53846153846155" r="3" fill="#2563eb"></circle><circle class="dot" cx="563.4782608695652" cy="78.46153846153848" r="3" fill="#2563eb"></circle><circle class="dot" cx="565.4347826086956" cy="78.46153846153848" r="3" fill="#2563eb"></circle><circle class="dot" cx="567.391304347826" cy="104.61538461538463" r="3" fill="#2563eb"></circle><circle class="dot" cx="569.3478260869565" cy="91.53846153846155" r="3" fill="#2563eb"></circle><circle class="dot" cx="571.3043478260869" cy="52.307692307692314" r="3" fill="#2563eb"></circle><circle class="dot" cx="573.2608695652174" cy="52.307692307692314" r="3" fill="#2563eb"></circle><circle class="dot" cx="575.2173913043479" cy="65.38461538461542" r="3" fill="#2563eb"></circle><circle class="dot" cx="577.1739130434783" cy="65.38461538461542" r="3" fill="#2563eb"></circle><circle class="dot" cx="579.1304347826087" cy="52.307692307692314" r="3" fill="#2563eb"></circle><circle class="dot" cx="581.0869565217391" cy="39.23076923076924" r="3" fill="#2563eb"></circle><circle class="dot" cx="583.0434782608696" cy="13.076923076923105" r="3" fill="#2563eb"></circle><circle class="dot" cx="585" cy="78.46153846153848" r="3" fill="#2563eb"></circle><circle class="dot" cx="586.9565217391304" cy="156.92307692307693" r="3" fill="#2563eb"></circle><circle class="dot" cx="588.9130434782609" cy="340" r="3" fill="#2563eb"></circle><circle class="dot" cx="590.8695652173913" cy="340" r="3" fill="#2563eb"></circle><circle class="dot" cx="592.8260869565217" cy="340" r="3" fill="#2563eb"></circle><circle class="dot" cx="594.7826086956521" cy="340" r="3" fill="#2563eb"></circle><circle class="dot" cx="596.7391304347826" cy="340" r="3" fill="#2563eb"></circle><circle class="dot" cx="598.6956521739131" cy="340" r="3" fill="#2563eb"></circle><circle class="dot" cx="600.6521739130435" cy="340" r="3" fill="#2563eb"></circle><circle class="dot" cx="602.608695652174" cy="340" r="3" fill="#2563eb"></circle><circle class="dot" cx="604.5652173913044" cy="340" r="3" fill="#2563eb"></circle><circle class="dot" cx="606.5217391304348" cy="340" r="3" fill="#2563eb"></circle><circle class="dot" cx="608.4782608695652" cy="340" r="3" fill="#2563eb"></circle><circle class="dot" cx="610.4347826086956" cy="313.84615384615387" r="3" fill="#2563eb"></circle><circle class="dot" cx="612.391304347826" cy="313.84615384615387" r="3" fill="#2563eb"></circle><circle class="dot" cx="614.3478260869565" cy="274.61538461538464" r="3" fill="#2563eb"></circle><circle class="dot" cx="616.3043478260869" cy="222.30769230769232" r="3" fill="#2563eb"></circle><circle class="dot" cx="618.2608695652174" cy="287.6923076923077" r="3" fill="#2563eb"></circle><circle class="dot" cx="620.2173913043479" cy="274.61538461538464" r="3" fill="#2563eb"></circle><circle class="dot" cx="622.1739130434783" cy="222.30769230769232" r="3" fill="#2563eb"></circle><circle class="dot" cx="624.1304347826087" cy="248.46153846153845" r="3" fill="#2563eb"></circle><circle class="dot" cx="626.0869565217391" cy="248.46153846153845" r="3" fill="#2563eb"></circle><circle class="dot" cx="628.0434782608696" cy="248.46153846153845" r="3" fill="#2563eb"></circle><circle class="dot" cx="630" cy="235.3846153846154" r="3" fill="#2563eb"></circle><circle class="dot" cx="631.9565217391304" cy="248.46153846153845" r="3" fill="#2563eb"></circle><circle class="dot" cx="633.9130434782609" cy="326.9230769230769" r="3" fill="#2563eb"></circle><circle class="dot" cx="635.8695652173913" cy="326.9230769230769" r="3" fill="#2563eb"></circle><circle class="dot" cx="637.8260869565217" cy="340" r="3" fill="#2563eb"></circle><circle class="dot" cx="639.7826086956521" cy="340" r="3" fill="#2563eb"></circle><circle class="dot" cx="641.7391304347826" cy="340" r="3" fill="#2563eb"></circle><circle class="dot" cx="643.6956521739131" cy="287.6923076923077" r="3" fill="#2563eb"></circle><circle class="dot" cx="645.6521739130435" cy="222.30769230769232" r="3" fill="#2563eb"></circle><circle class="dot" cx="647.608695652174" cy="274.61538461538464" r="3" fill="#2563eb"></circle><circle class="dot" cx="649.5652173913044" cy="300.7692307692308" r="3" fill="#2563eb"></circle><circle class="dot" cx="651.5217391304348" cy="287.6923076923077" r="3" fill="#2563eb"></circle><circle class="dot" cx="653.4782608695652" cy="261.5384615384615" r="3" fill="#2563eb"></circle><circle class="dot" cx="655.4347826086956" cy="287.6923076923077" r="3" fill="#2563eb"></circle><circle class="dot" cx="657.391304347826" cy="340" r="3" fill="#2563eb"></circle><circle class="dot" cx="659.3478260869565" cy="326.9230769230769" r="3" fill="#2563eb"></circle><circle class="dot" cx="661.3043478260869" cy="313.84615384615387" r="3" fill="#2563eb"></circle><circle class="dot" cx="663.2608695652174" cy="340" r="3" fill="#2563eb"></circle><circle class="dot" cx="665.2173913043479" cy="340" r="3" fill="#2563eb"></circle><circle class="dot" cx="667.1739130434783" cy="340" r="3" fill="#2563eb"></circle><circle class="dot" cx="669.1304347826087" cy="340" r="3" fill="#2563eb"></circle><circle class="dot" cx="671.0869565217391" cy="340" r="3" fill="#2563eb"></circle><circle class="dot" cx="673.0434782608696" cy="340" r="3" fill="#2563eb"></circle><circle class="dot" cx="675" cy="340" r="3" fill="#2563eb"></circle><circle class="dot" cx="676.9565217391304" cy="340" r="3" fill="#2563eb"></circle><circle class="dot" cx="678.9130434782609" cy="340" r="3" fill="#2563eb"></circle><circle class="dot" cx="680.8695652173913" cy="340" r="3" fill="#2563eb"></circle><circle class="dot" cx="682.8260869565217" cy="340" r="3" fill="#2563eb"></circle><circle class="dot" cx="684.7826086956521" cy="340" r="3" fill="#2563eb"></circle><circle class="dot" cx="686.7391304347826" cy="340" r="3" fill="#2563eb"></circle><circle class="dot" cx="688.6956521739131" cy="340" r="3" fill="#2563eb"></circle><circle class="dot" cx="690.6521739130435" cy="340" r="3" fill="#2563eb"></circle><circle class="dot" cx="692.608695652174" cy="340" r="3" fill="#2563eb"></circle><circle class="dot" cx="694.5652173913044" cy="340" r="3" fill="#2563eb"></circle><circle class="dot" cx="696.5217391304348" cy="340" r="3" fill="#2563eb"></circle><circle class="dot" cx="698.4782608695652" cy="340" r="3" fill="#2563eb"></circle><circle class="dot" cx="700.4347826086956" cy="340" r="3" fill="#2563eb"></circle><circle class="dot" cx="702.391304347826" cy="340" r="3" fill="#2563eb"></circle><circle class="dot" cx="704.3478260869565" cy="340" r="3" fill="#2563eb"></circle><circle class="dot" cx="706.3043478260869" cy="340" r="3" fill="#2563eb"></circle><circle class="dot" cx="708.2608695652174" cy="340" r="3" fill="#2563eb"></circle><circle class="dot" cx="710.2173913043479" cy="340" r="3" fill="#2563eb"></circle><circle class="dot" cx="712.1739130434783" cy="340" r="3" fill="#2563eb"></circle><circle class="dot" cx="714.1304347826087" cy="340" r="3" fill="#2563eb"></circle><circle class="dot" cx="716.0869565217391" cy="340" r="3" fill="#2563eb"></circle><circle class="dot" cx="718.0434782608696" cy="340" r="3" fill="#2563eb"></circle><circle class="dot" cx="720" cy="340" r="3" fill="#2563eb"></circle><g class="grid" transform="translate(0,340)" fill="none" font-size="10" font-family="sans-serif" text-anchor="middle" style="stroke-dasharray: 3,3; opacity: 0.3;"><path class="domain" stroke="currentColor" d="M0.5,-340V0.5H720.5V-340"></path><g class="tick" opacity="1" transform="translate(0.5,0)"><line stroke="currentColor" y2="-340"></line><text fill="currentColor" y="3" dy="0.71em"></text></g><g class="tick" opacity="1" transform="translate(47.45652173913043,0)"><line stroke="currentColor" y2="-340"></line><text fill="currentColor" y="3" dy="0.71em"></text></g><g class="tick" opacity="1" transform="translate(94.41304347826086,0)"><line stroke="currentColor" y2="-340"></line><text fill="currentColor" y="3" dy="0.71em"></text></g><g class="tick" opacity="1" transform="translate(141.3695652173913,0)"><line stroke="currentColor" y2="-340"></line><text fill="currentColor" y="3" dy="0.71em"></text></g><g class="tick" opacity="1" transform="translate(188.32608695652172,0)"><line stroke="currentColor" y2="-340"></line><text fill="currentColor" y="3" dy="0.71em"></text></g><g class="tick" opacity="1" transform="translate(235.2826086956522,0)"><line stroke="currentColor" y2="-340"></line><text fill="currentColor" y="3" dy="0.71em"></text></g><g class="tick" opacity="1" transform="translate(282.2391304347826,0)"><line stroke="currentColor" y2="-340"></line><text fill="currentColor" y="3" dy="0.71em"></text></g><g class="tick" opacity="1" transform="translate(329.195652173913,0)"><line stroke="currentColor" y2="-340"></line><text fill="currentColor" y="3" dy="0.71em"></text></g><g class="tick" opacity="1" transform="translate(376.15217391304344,0)"><line stroke="currentColor" y2="-340"></line><text fill="currentColor" y="3" dy="0.71em"></text></g><g class="tick" opacity="1" transform="translate(423.10869565217394,0)"><line stroke="currentColor" y2="-340"></line><text fill="currentColor" y="3" dy="0.71em"></text></g><g class="tick" opacity="1" transform="translate(470.0652173913044,0)"><line stroke="currentColor" y2="-340"></line><text fill="currentColor" y="3" dy="0.71em"></text></g><g class="tick" opacity="1" transform="translate(517.0217391304348,0)"><line stroke="currentColor" y2="-340"></line><text fill="currentColor" y="3" dy="0.71em"></text></g><g class="tick" opacity="1" transform="translate(563.9782608695652,0)"><line stroke="currentColor" y2="-340"></line><text fill="currentColor" y="3" dy="0.71em"></text></g><g class="tick" opacity="1" transform="translate(610.9347826086956,0)"><line stroke="currentColor" y2="-340"></line><text fill="currentColor" y="3" dy="0.71em"></text></g><g class="tick" opacity="1" transform="translate(657.891304347826,0)"><line stroke="currentColor" y2="-340"></line><text fill="currentColor" y="3" dy="0.71em"></text></g><g class="tick" opacity="1" transform="translate(704.8478260869565,0)"><line stroke="currentColor" y2="-340"></line><text fill="currentColor" y="3" dy="0.71em"></text></g></g><g class="grid" fill="none" font-size="10" font-family="sans-serif" text-anchor="end" style="stroke-dasharray: 3,3; opacity: 0.3;"><path class="domain" stroke="currentColor" d="M720,340.5H0.5V0.5H720"></path><g class="tick" opacity="1" transform="translate(0,340.5)"><line stroke="currentColor" x2="720"></line><text fill="currentColor" x="-3" dy="0.32em"></text></g><g class="tick" opacity="1" transform="translate(0,314.34615384615387)"><line stroke="currentColor" x2="720"></line><text fill="currentColor" x="-3" dy="0.32em"></text></g><g class="tick" opacity="1" transform="translate(0,288.1923076923077)"><line stroke="currentColor" x2="720"></line><text fill="currentColor" x="-3" dy="0.32em"></text></g><g class="tick" opacity="1" transform="translate(0,262.0384615384615)"><line stroke="currentColor" x2="720"></line><text fill="currentColor" x="-3" dy="0.32em"></text></g><g class="tick" opacity="1" transform="translate(0,235.8846153846154)"><line stroke="currentColor" x2="720"></line><text fill="currentColor" x="-3" dy="0.32em"></text></g><g class="tick" opacity="1" transform="translate(0,209.73076923076925)"><line stroke="currentColor" x2="720"></line><text fill="currentColor" x="-3" dy="0.32em"></text></g><g class="tick" opacity="1" transform="translate(0,183.5769230769231)"><line stroke="currentColor" x2="720"></line><text fill="currentColor" x="-3" dy="0.32em"></text></g><g class="tick" opacity="1" transform="translate(0,157.42307692307693)"><line stroke="currentColor" x2="720"></line><text fill="currentColor" x="-3" dy="0.32em"></text></g><g class="tick" opacity="1" transform="translate(0,131.26923076923075)"><line stroke="currentColor" x2="720"></line><text fill="currentColor" x="-3" dy="0.32em"></text></g><g class="tick" opacity="1" transform="translate(0,105.11538461538463)"><line stroke="currentColor" x2="720"></line><text fill="currentColor" x="-3" dy="0.32em"></text></g><g class="tick" opacity="1" transform="translate(0,78.96153846153848)"><line stroke="currentColor" x2="720"></line><text fill="currentColor" x="-3" dy="0.32em"></text></g><g class="tick" opacity="1" transform="translate(0,52.807692307692314)"><line stroke="currentColor" x2="720"></line><text fill="currentColor" x="-3" dy="0.32em"></text></g><g class="tick" opacity="1" transform="translate(0,26.653846153846136)"><line stroke="currentColor" x2="720"></line><text fill="currentColor" x="-3" dy="0.32em"></text></g><g class="tick" opacity="1" transform="translate(0,0.5)"><line stroke="currentColor" x2="720"></line><text fill="currentColor" x="-3" dy="0.32em"></text></g></g></g><text x="400" y="10" text-anchor="middle" style="font-size: 16px; font-weight: bold; fill: #333;">OKX USDT Lending Rate - Current Month</text></svg>