<svg width="800" height="400" xmlns="http://www.w3.org/2000/svg"><g transform="translate(50,20)"><g transform="translate(0,340)" fill="none" font-size="10" font-family="sans-serif" text-anchor="middle"><path class="domain" stroke="currentColor" d="M0.5,6V0.5H720.5V6"></path><g class="tick" opacity="1" transform="translate(0.5,0)"><line stroke="currentColor" y2="6"></line><text fill="currentColor" y="9" dy=".15em" style="text-anchor: end;" dx="-.8em" transform="rotate(-45)">08/01</text></g><g class="tick" opacity="1" transform="translate(29.06198347107438,0)"><line stroke="currentColor" y2="6"></line><text fill="currentColor" y="9" dy=".15em" style="text-anchor: end;" dx="-.8em" transform="rotate(-45)">08/02</text></g><g class="tick" opacity="1" transform="translate(57.62396694214876,0)"><line stroke="currentColor" y2="6"></line><text fill="currentColor" y="9" dy=".15em" style="text-anchor: end;" dx="-.8em" transform="rotate(-45)">08/03</text></g><g class="tick" opacity="1" transform="translate(86.18595041322314,0)"><line stroke="currentColor" y2="6"></line><text fill="currentColor" y="9" dy=".15em" style="text-anchor: end;" dx="-.8em" transform="rotate(-45)">08/04</text></g><g class="tick" opacity="1" transform="translate(114.74793388429752,0)"><line stroke="currentColor" y2="6"></line><text fill="currentColor" y="9" dy=".15em" style="text-anchor: end;" dx="-.8em" transform="rotate(-45)">08/05</text></g><g class="tick" opacity="1" transform="translate(143.3099173553719,0)"><line stroke="currentColor" y2="6"></line><text fill="currentColor" y="9" dy=".15em" style="text-anchor: end;" dx="-.8em" transform="rotate(-45)">08/06</text></g><g class="tick" opacity="1" transform="translate(171.87190082644628,0)"><line stroke="currentColor" y2="6"></line><text fill="currentColor" y="9" dy=".15em" style="text-anchor: end;" dx="-.8em" transform="rotate(-45)">08/07</text></g><g class="tick" opacity="1" transform="translate(200.43388429752065,0)"><line stroke="currentColor" y2="6"></line><text fill="currentColor" y="9" dy=".15em" style="text-anchor: end;" dx="-.8em" transform="rotate(-45)">08/08</text></g><g class="tick" opacity="1" transform="translate(228.99586776859505,0)"><line stroke="currentColor" y2="6"></line><text fill="currentColor" y="9" dy=".15em" style="text-anchor: end;" dx="-.8em" transform="rotate(-45)">08/09</text></g><g class="tick" opacity="1" transform="translate(257.5578512396694,0)"><line stroke="currentColor" y2="6"></line><text fill="currentColor" y="9" dy=".15em" style="text-anchor: end;" dx="-.8em" transform="rotate(-45)">08/10</text></g><g class="tick" opacity="1" transform="translate(286.1198347107438,0)"><line stroke="currentColor" y2="6"></line><text fill="currentColor" y="9" dy=".15em" style="text-anchor: end;" dx="-.8em" transform="rotate(-45)">08/11</text></g><g class="tick" opacity="1" transform="translate(314.6818181818182,0)"><line stroke="currentColor" y2="6"></line><text fill="currentColor" y="9" dy=".15em" style="text-anchor: end;" dx="-.8em" transform="rotate(-45)">08/12</text></g><g class="tick" opacity="1" transform="translate(343.24380165289256,0)"><line stroke="currentColor" y2="6"></line><text fill="currentColor" y="9" dy=".15em" style="text-anchor: end;" dx="-.8em" transform="rotate(-45)">08/13</text></g><g class="tick" opacity="1" transform="translate(371.8057851239669,0)"><line stroke="currentColor" y2="6"></line><text fill="currentColor" y="9" dy=".15em" style="text-anchor: end;" dx="-.8em" transform="rotate(-45)">08/14</text></g><g class="tick" opacity="1" transform="translate(400.3677685950413,0)"><line stroke="currentColor" y2="6"></line><text fill="currentColor" y="9" dy=".15em" style="text-anchor: end;" dx="-.8em" transform="rotate(-45)">08/15</text></g><g class="tick" opacity="1" transform="translate(428.9297520661157,0)"><line stroke="currentColor" y2="6"></line><text fill="currentColor" y="9" dy=".15em" style="text-anchor: end;" dx="-.8em" transform="rotate(-45)">08/16</text></g><g class="tick" opacity="1" transform="translate(457.4917355371901,0)"><line stroke="currentColor" y2="6"></line><text fill="currentColor" y="9" dy=".15em" style="text-anchor: end;" dx="-.8em" transform="rotate(-45)">08/17</text></g><g class="tick" opacity="1" transform="translate(486.0537190082644,0)"><line stroke="currentColor" y2="6"></line><text fill="currentColor" y="9" dy=".15em" style="text-anchor: end;" dx="-.8em" transform="rotate(-45)">08/18</text></g><g class="tick" opacity="1" transform="translate(514.6157024793388,0)"><line stroke="currentColor" y2="6"></line><text fill="currentColor" y="9" dy=".15em" style="text-anchor: end;" dx="-.8em" transform="rotate(-45)">08/19</text></g><g class="tick" opacity="1" transform="translate(543.1776859504132,0)"><line stroke="currentColor" y2="6"></line><text fill="currentColor" y="9" dy=".15em" style="text-anchor: end;" dx="-.8em" transform="rotate(-45)">08/20</text></g><g class="tick" opacity="1" transform="translate(571.7396694214876,0)"><line stroke="currentColor" y2="6"></line><text fill="currentColor" y="9" dy=".15em" style="text-anchor: end;" dx="-.8em" transform="rotate(-45)">08/21</text></g><g class="tick" opacity="1" transform="translate(600.3016528925621,0)"><line stroke="currentColor" y2="6"></line><text fill="currentColor" y="9" dy=".15em" style="text-anchor: end;" dx="-.8em" transform="rotate(-45)">08/22</text></g><g class="tick" opacity="1" transform="translate(628.8636363636364,0)"><line stroke="currentColor" y2="6"></line><text fill="currentColor" y="9" dy=".15em" style="text-anchor: end;" dx="-.8em" transform="rotate(-45)">08/23</text></g><g class="tick" opacity="1" transform="translate(657.4256198347107,0)"><line stroke="currentColor" y2="6"></line><text fill="currentColor" y="9" dy=".15em" style="text-anchor: end;" dx="-.8em" transform="rotate(-45)">08/24</text></g><g class="tick" opacity="1" transform="translate(685.9876033057851,0)"><line stroke="currentColor" y2="6"></line><text fill="currentColor" y="9" dy=".15em" style="text-anchor: end;" dx="-.8em" transform="rotate(-45)">08/25</text></g><g class="tick" opacity="1" transform="translate(714.5495867768595,0)"><line stroke="currentColor" y2="6"></line><text fill="currentColor" y="9" dy=".15em" style="text-anchor: end;" dx="-.8em" transform="rotate(-45)">08/26</text></g></g><g fill="none" font-size="10" font-family="sans-serif" text-anchor="end"><path class="domain" stroke="currentColor" d="M-6,340.5H0.5V0.5H-6"></path><g class="tick" opacity="1" transform="translate(0,340.5)"><line stroke="currentColor" x2="-6"></line><text fill="currentColor" x="-9" dy="0.32em">2.50%</text></g><g class="tick" opacity="1" transform="translate(0,302.72222222222223)"><line stroke="currentColor" x2="-6"></line><text fill="currentColor" x="-9" dy="0.32em">3.00%</text></g><g class="tick" opacity="1" transform="translate(0,264.94444444444446)"><line stroke="currentColor" x2="-6"></line><text fill="currentColor" x="-9" dy="0.32em">3.50%</text></g><g class="tick" opacity="1" transform="translate(0,227.16666666666669)"><line stroke="currentColor" x2="-6"></line><text fill="currentColor" x="-9" dy="0.32em">4.00%</text></g><g class="tick" opacity="1" transform="translate(0,189.38888888888894)"><line stroke="currentColor" x2="-6"></line><text fill="currentColor" x="-9" dy="0.32em">4.50%</text></g><g class="tick" opacity="1" transform="translate(0,151.61111111111114)"><line stroke="currentColor" x2="-6"></line><text fill="currentColor" x="-9" dy="0.32em">5.00%</text></g><g class="tick" opacity="1" transform="translate(0,113.83333333333339)"><line stroke="currentColor" x2="-6"></line><text fill="currentColor" x="-9" dy="0.32em">5.50%</text></g><g class="tick" opacity="1" transform="translate(0,76.05555555555563)"><line stroke="currentColor" x2="-6"></line><text fill="currentColor" x="-9" dy="0.32em">6.00%</text></g><g class="tick" opacity="1" transform="translate(0,38.27777777777779)"><line stroke="currentColor" x2="-6"></line><text fill="currentColor" x="-9" dy="0.32em">6.50%</text></g><g class="tick" opacity="1" transform="translate(0,0.5)"><line stroke="currentColor" x2="-6"></line><text fill="currentColor" x="-9" dy="0.32em">7.00%</text></g></g><text transform="rotate(-90)" y="-50" x="-170" dy="1em" style="text-anchor: middle; font-size: 12px; fill: #666;">Pre Rate (%)</text><text transform="translate(360, 380)" style="text-anchor: middle; font-size: 12px; fill: #666;">Time (UTC)</text><path fill="none" stroke="#2563eb" stroke-width="2" d="M0,340C0.397,340,0.793,340,1.19,340C1.587,340,1.983,340,2.38,340C2.777,340,3.174,340,3.57,340C3.967,340,4.364,340,4.76,340C5.157,340,5.554,340,5.95,340C6.347,340,6.744,340,7.14,340C7.537,340,7.934,340,8.331,340C8.727,340,9.124,340,9.521,340C9.917,340,10.314,340,10.711,340C11.107,340,11.504,340,11.901,340C12.298,340,12.694,340,13.091,340C13.488,340,13.884,340,14.281,340C14.678,340,15.074,340,15.471,340C15.868,340,16.264,340,16.661,340C17.058,340,17.455,340,17.851,340C18.248,340,18.645,340,19.041,340C19.438,340,19.835,340,20.231,340C20.628,340,21.025,340,21.421,340C21.818,340,22.215,340,22.612,340C23.008,340,23.405,340,23.802,340C24.198,340,24.595,340,24.992,340C25.388,340,25.785,340,26.182,340C26.579,340,26.975,340,27.372,340C27.769,340,28.165,340,28.562,340C28.959,340,29.355,340,29.752,340C30.149,340,30.545,340,30.942,340C31.339,340,31.736,340,32.132,340C32.529,340,32.926,340,33.322,340C33.719,340,34.116,340,34.512,340C34.909,340,35.306,340,35.702,340C36.099,340,36.496,340,36.893,340C37.289,340,37.686,340,38.083,340C38.479,340,38.876,340,39.273,340C39.669,340,40.066,340,40.463,340C40.86,340,41.256,340,41.653,340C42.05,340,42.446,340,42.843,340C43.24,340,43.636,340,44.033,340C44.43,340,44.826,340,45.223,340C45.62,340,46.017,340,46.413,340C46.81,340,47.207,340,47.603,340C48,340,48.397,340,48.793,340C49.19,340,49.587,340,49.983,340C50.38,340,50.777,340,51.174,340C51.57,340,51.967,340,52.364,340C52.76,340,53.157,340,53.554,340C53.95,340,54.347,340,54.744,340C55.14,340,55.537,340,55.934,340C56.331,340,56.727,340,57.124,340C57.521,340,57.917,340,58.314,340C58.711,340,59.107,340,59.504,340C59.901,340,60.298,340,60.694,340C61.091,340,61.488,340,61.884,340C62.281,340,62.678,340,63.074,340C63.471,340,63.868,340,64.264,340C64.661,340,65.058,340,65.455,340C65.851,340,66.248,340,66.645,340C67.041,340,67.438,340,67.835,340C68.231,340,68.628,340,69.025,340C69.421,340,69.818,340,70.215,340C70.612,340,71.008,340,71.405,340C71.802,340,72.198,340,72.595,340C72.992,340,73.388,340,73.785,340C74.182,340,74.579,340,74.975,340C75.372,340,75.769,340,76.165,340C76.562,340,76.959,340,77.355,340C77.752,340,78.149,340,78.545,340C78.942,340,79.339,340,79.736,340C80.132,340,80.529,340,80.926,340C81.322,340,81.719,340,82.116,340C82.512,340,82.909,340,83.306,340C83.702,340,84.099,340,84.496,340C84.893,340,85.289,340,85.686,340C86.083,340,86.479,340,86.876,340C87.273,340,87.669,340,88.066,340C88.463,340,88.86,340,89.256,340C89.653,340,90.05,340,90.446,340C90.843,340,91.24,340,91.636,340C92.033,340,92.43,340,92.826,340C93.223,340,93.62,340,94.017,340C94.413,340,94.81,340,95.207,340C95.603,340,96,340,96.397,340C96.793,340,97.19,340,97.587,340C97.983,340,98.38,340,98.777,340C99.174,340,99.57,340,99.967,340C100.364,340,100.76,340,101.157,340C101.554,340,101.95,340,102.347,340C102.744,340,103.14,340,103.537,340C103.934,340,104.331,340,104.727,340C105.124,340,105.521,340,105.917,340C106.314,340,106.711,340,107.107,340C107.504,340,107.901,340,108.298,340C108.694,340,109.091,340,109.488,340C109.884,340,110.281,340,110.678,340C111.074,340,111.471,340,111.868,340C112.264,340,112.661,340,113.058,340C113.455,340,113.851,340,114.248,340C114.645,340,115.041,340,115.438,340C115.835,340,116.231,340,116.628,340C117.025,340,117.421,340,117.818,340C118.215,340,118.612,340,119.008,340C119.405,340,119.802,340,120.198,340C120.595,340,120.992,340,121.388,340C121.785,340,122.182,317.333,122.579,317.333C122.975,317.333,123.372,317.333,123.769,317.333C124.165,317.333,124.562,317.333,124.959,317.333C125.355,317.333,125.752,317.333,126.149,317.333C126.545,317.333,126.942,317.333,127.339,317.333C127.736,317.333,128.132,317.333,128.529,317.333C128.926,317.333,129.322,317.333,129.719,317.333C130.116,317.333,130.512,317.333,130.909,317.333C131.306,317.333,131.702,317.333,132.099,317.333C132.496,317.333,132.893,317.333,133.289,317.333C133.686,317.333,134.083,317.333,134.479,317.333C134.876,317.333,135.273,317.333,135.669,317.333C136.066,317.333,136.463,317.333,136.86,317.333C137.256,317.333,137.653,317.333,138.05,317.333C138.446,317.333,138.843,317.333,139.24,317.333C139.636,317.333,140.033,317.333,140.43,317.333C140.826,317.333,141.223,317.333,141.62,317.333C142.017,317.333,142.413,317.333,142.81,317.333C143.207,317.333,143.603,317.333,144,317.333C144.397,317.333,144.793,317.333,145.19,317.333C145.587,317.333,145.983,317.333,146.38,317.333C146.777,317.333,147.174,317.333,147.57,317.333C147.967,317.333,148.364,317.333,148.76,317.333C149.157,317.333,149.554,317.333,149.95,317.333C150.347,317.333,150.744,317.333,151.14,317.333C151.537,317.333,151.934,317.333,152.331,317.333C152.727,317.333,153.124,317.333,153.521,317.333C153.917,317.333,154.314,317.333,154.711,317.333C155.107,317.333,155.504,317.333,155.901,317.333C156.298,317.333,156.694,317.333,157.091,317.333C157.488,317.333,157.884,317.333,158.281,317.333C158.678,317.333,159.074,317.333,159.471,317.333C159.868,317.333,160.264,317.333,160.661,317.333C161.058,317.333,161.455,317.333,161.851,317.333C162.248,317.333,162.645,317.333,163.041,317.333C163.438,317.333,163.835,317.333,164.231,317.333C164.628,317.333,165.025,317.333,165.421,317.333C165.818,317.333,166.215,317.333,166.612,317.333C167.008,317.333,167.405,317.333,167.802,317.333C168.198,317.333,168.595,317.333,168.992,317.333C169.388,317.333,169.785,317.333,170.182,317.333C170.579,317.333,170.975,317.333,171.372,317.333C171.769,317.333,172.165,317.333,172.562,317.333C172.959,317.333,173.355,317.333,173.752,317.333C174.149,317.333,174.545,317.333,174.942,317.333C175.339,317.333,175.736,317.333,176.132,317.333C176.529,317.333,176.926,317.333,177.322,317.333C177.719,317.333,178.116,317.333,178.512,317.333C178.909,317.333,179.306,317.333,179.702,317.333C180.099,317.333,180.496,317.333,180.893,317.333C181.289,317.333,181.686,317.333,182.083,317.333C182.479,317.333,182.876,317.333,183.273,317.333C183.669,317.333,184.066,317.333,184.463,317.333C184.86,317.333,185.256,317.333,185.653,317.333C186.05,317.333,186.446,317.333,186.843,317.333C187.24,317.333,187.636,317.333,188.033,317.333C188.43,317.333,188.826,317.333,189.223,317.333C189.62,317.333,190.017,317.333,190.413,317.333C190.81,317.333,191.207,317.333,191.603,317.333C192,317.333,192.397,317.333,192.793,317.333C193.19,317.333,193.587,317.333,193.983,317.333C194.38,317.333,194.777,317.333,195.174,317.333C195.57,317.333,195.967,317.333,196.364,317.333C196.76,317.333,197.157,317.333,197.554,317.333C197.95,317.333,198.347,317.333,198.744,317.333C199.14,317.333,199.537,317.333,199.934,317.333C200.331,317.333,200.727,317.333,201.124,317.333C201.521,317.333,201.917,317.333,202.314,317.333C202.711,317.333,203.107,317.333,203.504,317.333C203.901,317.333,204.298,317.333,204.694,317.333C205.091,317.333,205.488,317.333,205.884,317.333C206.281,317.333,206.678,317.333,207.074,317.333C207.471,317.333,207.868,317.333,208.264,317.333C208.661,317.333,209.058,317.333,209.455,317.333C209.851,317.333,210.248,317.333,210.645,317.333C211.041,317.333,211.438,317.333,211.835,317.333C212.231,317.333,212.628,317.333,213.025,317.333C213.421,317.333,213.818,317.333,214.215,317.333C214.612,317.333,215.008,317.333,215.405,317.333C215.802,317.333,216.198,317.333,216.595,317.333C216.992,317.333,217.388,317.333,217.785,317.333C218.182,317.333,218.579,317.333,218.975,317.333C219.372,317.333,219.769,317.333,220.165,317.333C220.562,317.333,220.959,317.333,221.355,317.333C221.752,317.333,222.149,317.333,222.545,317.333C222.942,317.333,223.339,317.333,223.736,317.333C224.132,317.333,224.529,317.333,224.926,317.333C225.322,317.333,225.719,317.333,226.116,317.333C226.512,317.333,226.909,317.333,227.306,317.333C227.702,317.333,228.099,317.333,228.496,317.333C228.893,317.333,229.289,317.333,229.686,317.333C230.083,317.333,230.479,317.333,230.876,317.333C231.273,317.333,231.669,317.333,232.066,317.333C232.463,317.333,232.86,317.333,233.256,317.333C233.653,317.333,234.05,317.333,234.446,317.333C234.843,317.333,235.24,317.333,235.636,317.333C236.033,317.333,236.43,317.333,236.826,317.333C237.223,317.333,237.62,317.333,238.017,317.333C238.413,317.333,238.81,317.333,239.207,317.333C239.603,317.333,240,317.333,240.397,317.333C240.793,317.333,241.19,317.333,241.587,317.333C241.983,317.333,242.38,317.333,242.777,317.333C243.174,317.333,243.57,317.333,243.967,317.333C244.364,317.333,244.76,317.333,245.157,317.333C245.554,317.333,245.95,317.333,246.347,317.333C246.744,317.333,247.14,317.333,247.537,317.333C247.934,317.333,248.331,317.333,248.727,317.333C249.124,317.333,249.521,317.333,249.917,317.333C250.314,317.333,250.711,317.333,251.107,317.333C251.504,317.333,251.901,317.333,252.298,317.333C252.694,317.333,253.091,317.333,253.488,317.333C253.884,317.333,254.281,317.333,254.678,317.333C255.074,317.333,255.471,317.333,255.868,317.333C256.264,317.333,256.661,317.333,257.058,317.333C257.455,317.333,257.851,317.333,258.248,317.333C258.645,317.333,259.041,317.333,259.438,317.333C259.835,317.333,260.231,317.333,260.628,317.333C261.025,317.333,261.421,317.333,261.818,317.333C262.215,317.333,262.612,317.333,263.008,317.333C263.405,317.333,263.802,317.333,264.198,317.333C264.595,317.333,264.992,317.333,265.388,317.333C265.785,317.333,266.182,317.333,266.579,317.333C266.975,317.333,267.372,317.333,267.769,317.333C268.165,317.333,268.562,317.333,268.959,317.333C269.355,317.333,269.752,317.333,270.149,317.333C270.545,317.333,270.942,317.333,271.339,317.333C271.736,317.333,272.132,317.333,272.529,317.333C272.926,317.333,273.322,317.333,273.719,317.333C274.116,317.333,274.512,317.333,274.909,317.333C275.306,317.333,275.702,317.333,276.099,317.333C276.496,317.333,276.893,317.333,277.289,317.333C277.686,317.333,278.083,317.333,278.479,317.333C278.876,317.333,279.273,317.333,279.669,317.333C280.066,317.333,280.463,317.333,280.86,317.333C281.256,317.333,281.653,317.333,282.05,317.333C282.446,317.333,282.843,317.333,283.24,317.333C283.636,317.333,284.033,317.333,284.43,317.333C284.826,317.333,285.223,317.333,285.62,317.333C286.017,317.333,286.413,317.333,286.81,317.333C287.207,317.333,287.603,317.333,288,317.333C288.397,317.333,288.793,317.333,289.19,317.333C289.587,317.333,289.983,317.333,290.38,317.333C290.777,317.333,291.174,317.333,291.57,317.333C291.967,317.333,292.364,317.333,292.76,317.333C293.157,317.333,293.554,317.333,293.95,317.333C294.347,317.333,294.744,317.333,295.14,317.333C295.537,317.333,295.934,317.333,296.331,317.333C296.727,317.333,297.124,317.333,297.521,317.333C297.917,317.333,298.314,317.333,298.711,317.333C299.107,317.333,299.504,317.333,299.901,317.333C300.298,317.333,300.694,317.333,301.091,317.333C301.488,317.333,301.884,317.333,302.281,317.333C302.678,317.333,303.074,317.333,303.471,317.333C303.868,317.333,304.264,317.333,304.661,317.333C305.058,317.333,305.455,317.333,305.851,317.333C306.248,317.333,306.645,317.333,307.041,317.333C307.438,317.333,307.835,317.333,308.231,317.333C308.628,317.333,309.025,317.333,309.421,317.333C309.818,317.333,310.215,317.333,310.612,317.333C311.008,317.333,311.405,317.333,311.802,317.333C312.198,317.333,312.595,317.333,312.992,317.333C313.388,317.333,313.785,317.333,314.182,317.333C314.579,317.333,314.975,317.333,315.372,317.333C315.769,317.333,316.165,317.333,316.562,317.333C316.959,317.333,317.355,317.333,317.752,317.333C318.149,317.333,318.545,317.333,318.942,317.333C319.339,317.333,319.736,317.333,320.132,317.333C320.529,317.333,320.926,317.333,321.322,317.333C321.719,317.333,322.116,317.333,322.512,317.333C322.909,317.333,323.306,317.333,323.702,317.333C324.099,317.333,324.496,317.333,324.893,317.333C325.289,317.333,325.686,317.333,326.083,317.333C326.479,317.333,326.876,317.333,327.273,317.333C327.669,317.333,328.066,317.333,328.463,317.333C328.86,317.333,329.256,317.333,329.653,317.333C330.05,317.333,330.446,317.333,330.843,317.333C331.24,317.333,331.636,317.333,332.033,317.333C332.43,317.333,332.826,317.333,333.223,317.333C333.62,317.333,334.017,317.333,334.413,317.333C334.81,317.333,335.207,317.333,335.603,317.333C336,317.333,336.397,317.333,336.793,317.333C337.19,317.333,337.587,317.333,337.983,317.333C338.38,317.333,338.777,317.333,339.174,317.333C339.57,317.333,339.967,317.333,340.364,317.333C340.76,317.333,341.157,317.333,341.554,317.333C341.95,317.333,342.347,317.333,342.744,317.333C343.14,317.333,343.537,317.333,343.934,317.333C344.331,317.333,344.727,317.333,345.124,317.333C345.521,317.333,345.917,317.333,346.314,317.333C346.711,317.333,347.107,317.333,347.504,317.333C347.901,317.333,348.298,317.333,348.694,317.333C349.091,317.333,349.488,317.333,349.884,317.333C350.281,317.333,350.678,317.333,351.074,317.333C351.471,317.333,351.868,317.333,352.264,317.333C352.661,317.333,353.058,317.333,353.455,317.333C353.851,317.333,354.248,317.333,354.645,317.333C355.041,317.333,355.438,317.333,355.835,317.333C356.231,317.333,356.628,317.333,357.025,317.333C357.421,317.333,357.818,317.333,358.215,317.333C358.612,317.333,359.008,317.333,359.405,317.333C359.802,317.333,360.198,317.333,360.595,317.333C360.992,317.333,361.388,317.333,361.785,317.333C362.182,317.333,362.579,317.333,362.975,317.333C363.372,317.333,363.769,317.333,364.165,317.333C364.562,317.333,364.959,317.333,365.355,317.333C365.752,317.333,366.149,317.333,366.545,317.333C366.942,317.333,367.339,317.333,367.736,317.333C368.132,317.333,368.529,317.333,368.926,317.333C369.322,317.333,369.719,317.333,370.116,317.333C370.512,317.333,370.909,317.333,371.306,317.333C371.702,317.333,372.099,317.333,372.496,317.333C372.893,317.333,373.289,317.333,373.686,317.333C374.083,317.333,374.479,317.333,374.876,317.333C375.273,317.333,375.669,317.333,376.066,317.333C376.463,317.333,376.86,317.333,377.256,317.333C377.653,317.333,378.05,317.333,378.446,317.333C378.843,317.333,379.24,317.333,379.636,317.333C380.033,317.333,380.43,317.333,380.826,317.333C381.223,317.333,381.62,317.333,382.017,317.333C382.413,317.333,382.81,317.333,383.207,317.333C383.603,317.333,384,317.333,384.397,317.333C384.793,317.333,385.19,317.333,385.587,317.333C385.983,317.333,386.38,317.333,386.777,317.333C387.174,317.333,387.57,317.333,387.967,317.333C388.364,317.333,388.76,317.333,389.157,317.333C389.554,317.333,389.95,317.333,390.347,317.333C390.744,317.333,391.14,317.333,391.537,317.333C391.934,317.333,392.331,317.333,392.727,317.333C393.124,317.333,393.521,317.333,393.917,317.333C394.314,317.333,394.711,317.333,395.107,317.333C395.504,317.333,395.901,317.333,396.298,317.333C396.694,317.333,397.091,317.333,397.488,317.333C397.884,317.333,398.281,317.333,398.678,317.333C399.074,317.333,399.471,317.333,399.868,317.333C400.264,317.333,400.661,317.333,401.058,317.333C401.455,317.333,401.851,317.333,402.248,317.333C402.645,317.333,403.041,317.333,403.438,317.333C403.835,317.333,404.231,317.333,404.628,317.333C405.025,317.333,405.421,317.333,405.818,317.333C406.215,317.333,406.612,317.333,407.008,317.333C407.405,317.333,407.802,317.333,408.198,317.333C408.595,317.333,408.992,317.333,409.388,317.333C409.785,317.333,410.182,317.333,410.579,317.333C410.975,317.333,411.372,317.333,411.769,317.333C412.165,317.333,412.562,317.333,412.959,317.333C413.355,317.333,413.752,317.333,414.149,317.333C414.545,317.333,414.942,317.333,415.339,317.333C415.736,317.333,416.132,317.333,416.529,317.333C416.926,317.333,417.322,317.333,417.719,317.333C418.116,317.333,418.512,317.333,418.909,317.333C419.306,317.333,419.702,317.333,420.099,317.333C420.496,317.333,420.893,317.333,421.289,317.333C421.686,317.333,422.083,317.333,422.479,317.333C422.876,317.333,423.273,317.333,423.669,317.333C424.066,317.333,424.463,317.333,424.86,317.333C425.256,317.333,425.653,317.333,426.05,317.333C426.446,317.333,426.843,317.333,427.24,317.333C427.636,317.333,428.033,317.333,428.43,317.333C428.826,317.333,429.223,317.333,429.62,317.333C430.017,317.333,430.413,317.333,430.81,317.333C431.207,317.333,431.603,317.333,432,317.333C432.397,317.333,432.793,317.333,433.19,317.333C433.587,317.333,433.983,317.333,434.38,317.333C434.777,317.333,435.174,317.333,435.57,317.333C435.967,317.333,436.364,317.333,436.76,317.333C437.157,317.333,437.554,317.333,437.95,317.333C438.347,317.333,438.744,317.333,439.14,317.333C439.537,317.333,439.934,317.333,440.331,317.333C440.727,317.333,441.124,317.333,441.521,317.333C441.917,317.333,442.314,317.333,442.711,317.333C443.107,317.333,443.504,317.333,443.901,317.333C444.298,317.333,444.694,317.333,445.091,317.333C445.488,317.333,445.884,317.333,446.281,317.333C446.678,317.333,447.074,317.333,447.471,317.333C447.868,317.333,448.264,317.333,448.661,317.333C449.058,317.333,449.455,317.333,449.851,317.333C450.248,317.333,450.645,317.333,451.041,317.333C451.438,317.333,451.835,317.333,452.231,317.333C452.628,317.333,453.025,317.333,453.421,317.333C453.818,317.333,454.215,317.333,454.612,317.333C455.008,317.333,455.405,317.333,455.802,317.333C456.198,317.333,456.595,317.333,456.992,317.333C457.388,317.333,457.785,317.333,458.182,317.333C458.579,317.333,458.975,317.333,459.372,317.333C459.769,317.333,460.165,317.333,460.562,317.333C460.959,317.333,461.355,317.333,461.752,317.333C462.149,317.333,462.545,317.333,462.942,317.333C463.339,317.333,463.736,317.333,464.132,317.333C464.529,317.333,464.926,317.333,465.322,317.333C465.719,317.333,466.116,317.333,466.512,317.333C466.909,317.333,467.306,317.333,467.702,317.333C468.099,317.333,468.496,317.333,468.893,317.333C469.289,317.333,469.686,317.333,470.083,317.333C470.479,317.333,470.876,317.333,471.273,317.333C471.669,317.333,472.066,317.333,472.463,317.333C472.86,317.333,473.256,317.333,473.653,317.333C474.05,317.333,474.446,317.333,474.843,317.333C475.24,317.333,475.636,317.333,476.033,317.333C476.43,317.333,476.826,317.333,477.223,317.333C477.62,317.333,478.017,317.333,478.413,317.333C478.81,317.333,479.207,317.333,479.603,317.333C480,317.333,480.397,317.333,480.793,317.333C481.19,317.333,481.587,317.333,481.983,317.333C482.38,317.333,482.777,317.333,483.174,317.333C483.57,317.333,483.967,317.333,484.364,317.333C484.76,317.333,485.157,317.333,485.554,317.333C485.95,317.333,486.347,317.333,486.744,317.333C487.14,317.333,487.537,317.333,487.934,317.333C488.331,317.333,488.727,317.333,489.124,317.333C489.521,317.333,489.917,317.333,490.314,317.333C490.711,317.333,491.107,317.333,491.504,317.333C491.901,317.333,492.298,317.333,492.694,317.333C493.091,317.333,493.488,317.333,493.884,317.333C494.281,317.333,494.678,317.333,495.074,317.333C495.471,317.333,495.868,317.333,496.264,317.333C496.661,317.333,497.058,317.333,497.455,317.333C497.851,317.333,498.248,317.333,498.645,317.333C499.041,317.333,499.438,317.333,499.835,317.333C500.231,317.333,500.628,317.333,501.025,317.333C501.421,317.333,501.818,317.333,502.215,317.333C502.612,317.333,503.008,317.333,503.405,317.333C503.802,317.333,504.198,317.333,504.595,317.333C504.992,317.333,505.388,317.333,505.785,317.333C506.182,317.333,506.579,317.333,506.975,317.333C507.372,317.333,507.769,317.333,508.165,317.333C508.562,317.333,508.959,317.333,509.355,317.333C509.752,317.333,510.149,317.333,510.545,317.333C510.942,317.333,511.339,317.333,511.736,317.333C512.132,317.333,512.529,317.333,512.926,317.333C513.322,317.333,513.719,317.333,514.116,317.333C514.512,317.333,514.909,317.333,515.306,317.333C515.702,317.333,516.099,317.333,516.496,317.333C516.893,317.333,517.289,317.333,517.686,317.333C518.083,317.333,518.479,302.222,518.876,302.222C519.273,302.222,519.669,302.222,520.066,302.222C520.463,302.222,520.86,302.222,521.256,302.222C521.653,302.222,522.05,302.222,522.446,302.222C522.843,302.222,523.24,302.222,523.636,302.222C524.033,302.222,524.43,302.222,524.826,302.222C525.223,302.222,525.62,302.222,526.017,302.222C526.413,302.222,526.81,302.222,527.207,302.222C527.603,302.222,528,302.222,528.397,302.222C528.793,302.222,529.19,302.222,529.587,302.222C529.983,302.222,530.38,302.222,530.777,302.222C531.174,302.222,531.57,302.222,531.967,302.222C532.364,302.222,532.76,302.222,533.157,302.222C533.554,302.222,533.95,302.222,534.347,302.222C534.744,302.222,535.14,302.222,535.537,302.222C535.934,302.222,536.331,302.222,536.727,302.222C537.124,302.222,537.521,302.222,537.917,302.222C538.314,302.222,538.711,302.222,539.107,302.222C539.504,302.222,539.901,302.222,540.298,302.222C540.694,302.222,541.091,302.222,541.488,302.222C541.884,302.222,542.281,302.222,542.678,302.222C543.074,302.222,543.471,302.222,543.868,302.222C544.264,302.222,544.661,302.222,545.058,302.222C545.455,302.222,545.851,302.222,546.248,302.222C546.645,302.222,547.041,302.222,547.438,302.222C547.835,302.222,548.231,302.222,548.628,302.222C549.025,302.222,549.421,302.222,549.818,302.222C550.215,302.222,550.612,302.222,551.008,302.222C551.405,302.222,551.802,299.704,552.198,294.667C552.595,289.63,552.992,249.333,553.388,249.333C553.785,249.333,554.182,302.222,554.579,302.222C554.975,302.222,555.372,302.222,555.769,302.222C556.165,302.222,556.562,302.222,556.959,302.222C557.355,302.222,557.752,302.222,558.149,302.222C558.545,302.222,558.942,302.222,559.339,302.222C559.736,302.222,560.132,302.222,560.529,302.222C560.926,302.222,561.322,302.222,561.719,302.222C562.116,302.222,562.512,302.222,562.909,302.222C563.306,302.222,563.702,302.222,564.099,302.222C564.496,302.222,564.893,302.222,565.289,302.222C565.686,302.222,566.083,302.222,566.479,302.222C566.876,302.222,567.273,302.222,567.669,302.222C568.066,302.222,568.463,302.222,568.86,302.222C569.256,302.222,569.653,302.222,570.05,302.222C570.446,302.222,570.843,302.222,571.24,302.222C571.636,302.222,572.033,302.222,572.43,302.222C572.826,302.222,573.223,302.222,573.62,302.222C574.017,302.222,574.413,302.222,574.81,302.222C575.207,302.222,575.603,302.222,576,302.222C576.397,302.222,576.793,302.222,577.19,302.222C577.587,302.222,577.983,302.222,578.38,302.222C578.777,302.222,579.174,302.222,579.57,302.222C579.967,302.222,580.364,185.111,580.76,136C581.157,86.889,581.554,7.556,581.95,7.556C582.347,7.556,582.744,239.259,583.14,264.444C583.537,289.63,583.934,302.222,584.331,302.222C584.727,302.222,585.124,302.222,585.521,302.222C585.917,302.222,586.314,302.222,586.711,302.222C587.107,302.222,587.504,302.222,587.901,302.222C588.298,302.222,588.694,302.222,589.091,302.222C589.488,302.222,589.884,302.222,590.281,302.222C590.678,302.222,591.074,302.222,591.471,302.222C591.868,302.222,592.264,302.222,592.661,302.222C593.058,302.222,593.455,302.222,593.851,302.222C594.248,302.222,594.645,302.222,595.041,302.222C595.438,302.222,595.835,302.222,596.231,302.222C596.628,302.222,597.025,302.222,597.421,302.222C597.818,302.222,598.215,264.444,598.612,264.444C599.008,264.444,599.405,279.556,599.802,279.556C600.198,279.556,600.595,279.556,600.992,279.556C601.388,279.556,601.785,279.556,602.182,279.556C602.579,279.556,602.975,156.148,603.372,151.111C603.769,146.074,604.165,148.593,604.562,143.556C604.959,138.519,605.355,30.222,605.752,30.222C606.149,30.222,606.545,302.222,606.942,302.222C607.339,302.222,607.736,302.222,608.132,302.222C608.529,302.222,608.926,226.667,609.322,226.667C609.719,226.667,610.116,294.667,610.512,294.667C610.909,294.667,611.306,226.667,611.702,226.667C612.099,226.667,612.496,302.222,612.893,302.222C613.289,302.222,613.686,302.222,614.083,302.222C614.479,302.222,614.876,302.222,615.273,302.222C615.669,302.222,616.066,302.222,616.463,302.222C616.86,302.222,617.256,302.222,617.653,302.222C618.05,302.222,618.446,302.222,618.843,302.222C619.24,302.222,619.636,302.222,620.033,302.222C620.43,302.222,620.826,302.222,621.223,302.222C621.62,302.222,622.017,302.222,622.413,302.222C622.81,302.222,623.207,302.222,623.603,302.222C624,302.222,624.397,302.222,624.793,302.222C625.19,302.222,625.587,302.222,625.983,302.222C626.38,302.222,626.777,302.222,627.174,302.222C627.57,302.222,627.967,302.222,628.364,302.222C628.76,302.222,629.157,302.222,629.554,302.222C629.95,302.222,630.347,302.222,630.744,302.222C631.14,302.222,631.537,302.222,631.934,302.222C632.331,302.222,632.727,302.222,633.124,302.222C633.521,302.222,633.917,302.222,634.314,302.222C634.711,302.222,635.107,302.222,635.504,302.222C635.901,302.222,636.298,302.222,636.694,302.222C637.091,302.222,637.488,229.185,637.884,196.444C638.281,163.704,638.678,105.778,639.074,105.778C639.471,105.778,639.868,151.111,640.264,151.111C640.661,151.111,641.058,124.667,641.455,113.333C641.851,102,642.248,83.111,642.645,83.111C643.041,83.111,643.438,136,643.835,136C644.231,136,644.628,90.667,645.025,90.667C645.421,90.667,645.818,129.704,646.215,151.111C646.612,172.519,647.008,219.111,647.405,219.111C647.802,219.111,648.198,196.444,648.595,196.444C648.992,196.444,649.388,234.222,649.785,234.222C650.182,234.222,650.579,204,650.975,204C651.372,204,651.769,259.407,652.165,264.444C652.562,269.481,652.959,272,653.355,272C653.752,272,654.149,188.889,654.545,188.889C654.942,188.889,655.339,226.667,655.736,226.667C656.132,226.667,656.529,226.667,656.926,226.667C657.322,226.667,657.719,229.185,658.116,234.222C658.512,239.259,658.909,302.222,659.306,302.222C659.702,302.222,660.099,287.111,660.496,287.111C660.893,287.111,661.289,302.222,661.686,302.222C662.083,302.222,662.479,302.222,662.876,302.222C663.273,302.222,663.669,234.222,664.066,234.222C664.463,234.222,664.86,238,665.256,241.778C665.653,245.556,666.05,246.815,666.446,256.889C666.843,266.963,667.24,302.222,667.636,302.222C668.033,302.222,668.43,302.222,668.826,302.222C669.223,302.222,669.62,302.222,670.017,302.222C670.413,302.222,670.81,302.222,671.207,302.222C671.603,302.222,672,302.222,672.397,302.222C672.793,302.222,673.19,302.222,673.587,302.222C673.983,302.222,674.38,302.222,674.777,302.222C675.174,302.222,675.57,302.222,675.967,302.222C676.364,302.222,676.76,302.222,677.157,302.222C677.554,302.222,677.95,302.222,678.347,302.222C678.744,302.222,679.14,302.222,679.537,302.222C679.934,302.222,680.331,302.222,680.727,302.222C681.124,302.222,681.521,302.222,681.917,302.222C682.314,302.222,682.711,302.222,683.107,302.222C683.504,302.222,683.901,302.222,684.298,302.222C684.694,302.222,685.091,302.222,685.488,302.222C685.884,302.222,686.281,302.222,686.678,302.222C687.074,302.222,687.471,302.222,687.868,302.222C688.264,302.222,688.661,302.222,689.058,302.222C689.455,302.222,689.851,302.222,690.248,302.222C690.645,302.222,691.041,302.222,691.438,302.222C691.835,302.222,692.231,287.111,692.628,287.111C693.025,287.111,693.421,302.222,693.818,302.222C694.215,302.222,694.612,264.444,695.008,264.444C695.405,264.444,695.802,302.222,696.198,302.222C696.595,302.222,696.992,302.222,697.388,302.222C697.785,302.222,698.182,302.222,698.579,302.222C698.975,302.222,699.372,302.222,699.769,302.222C700.165,302.222,700.562,302.222,700.959,302.222C701.355,302.222,701.752,302.222,702.149,302.222C702.545,302.222,702.942,302.222,703.339,302.222C703.736,302.222,704.132,302.222,704.529,302.222C704.926,302.222,705.322,302.222,705.719,302.222C706.116,302.222,706.512,302.222,706.909,302.222C707.306,302.222,707.702,302.222,708.099,302.222C708.496,302.222,708.893,302.222,709.289,302.222C709.686,302.222,710.083,302.222,710.479,302.222C710.876,302.222,711.273,302.222,711.669,302.222C712.066,302.222,712.463,302.222,712.86,302.222C713.256,302.222,713.653,302.222,714.05,302.222C714.446,302.222,714.843,302.222,715.24,302.222C715.636,302.222,716.033,302.222,716.43,302.222C716.826,302.222,717.223,302.222,717.62,302.222C718.017,302.222,718.413,302.222,718.81,302.222C719.207,302.222,719.603,302.222,720,302.222"></path><circle class="dot" cx="0" cy="340" r="3" fill="#2563eb"></circle><circle class="dot" cx="1.1900826446280992" cy="340" r="3" fill="#2563eb"></circle><circle class="dot" cx="2.3801652892561984" cy="340" r="3" fill="#2563eb"></circle><circle class="dot" cx="3.5702479338842976" cy="340" r="3" fill="#2563eb"></circle><circle class="dot" cx="4.760330578512397" cy="340" r="3" fill="#2563eb"></circle><circle class="dot" cx="5.950413223140496" cy="340" r="3" fill="#2563eb"></circle><circle class="dot" cx="7.140495867768595" cy="340" r="3" fill="#2563eb"></circle><circle class="dot" cx="8.330578512396693" cy="340" r="3" fill="#2563eb"></circle><circle class="dot" cx="9.520661157024794" cy="340" r="3" fill="#2563eb"></circle><circle class="dot" cx="10.710743801652892" cy="340" r="3" fill="#2563eb"></circle><circle class="dot" cx="11.900826446280991" cy="340" r="3" fill="#2563eb"></circle><circle class="dot" cx="13.09090909090909" cy="340" r="3" fill="#2563eb"></circle><circle class="dot" cx="14.28099173553719" cy="340" r="3" fill="#2563eb"></circle><circle class="dot" cx="15.47107438016529" cy="340" r="3" fill="#2563eb"></circle><circle class="dot" cx="16.661157024793386" cy="340" r="3" fill="#2563eb"></circle><circle class="dot" cx="17.85123966942149" cy="340" r="3" fill="#2563eb"></circle><circle class="dot" cx="19.041322314049587" cy="340" r="3" fill="#2563eb"></circle><circle class="dot" cx="20.231404958677686" cy="340" r="3" fill="#2563eb"></circle><circle class="dot" cx="21.421487603305785" cy="340" r="3" fill="#2563eb"></circle><circle class="dot" cx="22.611570247933887" cy="340" r="3" fill="#2563eb"></circle><circle class="dot" cx="23.801652892561982" cy="340" r="3" fill="#2563eb"></circle><circle class="dot" cx="24.99173553719008" cy="340" r="3" fill="#2563eb"></circle><circle class="dot" cx="26.18181818181818" cy="340" r="3" fill="#2563eb"></circle><circle class="dot" cx="27.37190082644628" cy="340" r="3" fill="#2563eb"></circle><circle class="dot" cx="28.56198347107438" cy="340" r="3" fill="#2563eb"></circle><circle class="dot" cx="29.75206611570248" cy="340" r="3" fill="#2563eb"></circle><circle class="dot" cx="30.94214876033058" cy="340" r="3" fill="#2563eb"></circle><circle class="dot" cx="32.132231404958674" cy="340" r="3" fill="#2563eb"></circle><circle class="dot" cx="33.32231404958677" cy="340" r="3" fill="#2563eb"></circle><circle class="dot" cx="34.51239669421488" cy="340" r="3" fill="#2563eb"></circle><circle class="dot" cx="35.70247933884298" cy="340" r="3" fill="#2563eb"></circle><circle class="dot" cx="36.892561983471076" cy="340" r="3" fill="#2563eb"></circle><circle class="dot" cx="38.082644628099175" cy="340" r="3" fill="#2563eb"></circle><circle class="dot" cx="39.27272727272727" cy="340" r="3" fill="#2563eb"></circle><circle class="dot" cx="40.46280991735537" cy="340" r="3" fill="#2563eb"></circle><circle class="dot" cx="41.65289256198347" cy="340" r="3" fill="#2563eb"></circle><circle class="dot" cx="42.84297520661157" cy="340" r="3" fill="#2563eb"></circle><circle class="dot" cx="44.03305785123967" cy="340" r="3" fill="#2563eb"></circle><circle class="dot" cx="45.223140495867774" cy="340" r="3" fill="#2563eb"></circle><circle class="dot" cx="46.413223140495866" cy="340" r="3" fill="#2563eb"></circle><circle class="dot" cx="47.603305785123965" cy="340" r="3" fill="#2563eb"></circle><circle class="dot" cx="48.79338842975206" cy="340" r="3" fill="#2563eb"></circle><circle class="dot" cx="49.98347107438016" cy="340" r="3" fill="#2563eb"></circle><circle class="dot" cx="51.17355371900827" cy="340" r="3" fill="#2563eb"></circle><circle class="dot" cx="52.36363636363636" cy="340" r="3" fill="#2563eb"></circle><circle class="dot" cx="53.553719008264466" cy="340" r="3" fill="#2563eb"></circle><circle class="dot" cx="54.74380165289256" cy="340" r="3" fill="#2563eb"></circle><circle class="dot" cx="55.93388429752066" cy="340" r="3" fill="#2563eb"></circle><circle class="dot" cx="57.12396694214876" cy="340" r="3" fill="#2563eb"></circle><circle class="dot" cx="58.31404958677686" cy="340" r="3" fill="#2563eb"></circle><circle class="dot" cx="59.50413223140496" cy="340" r="3" fill="#2563eb"></circle><circle class="dot" cx="60.69421487603305" cy="340" r="3" fill="#2563eb"></circle><circle class="dot" cx="61.88429752066116" cy="340" r="3" fill="#2563eb"></circle><circle class="dot" cx="63.07438016528926" cy="340" r="3" fill="#2563eb"></circle><circle class="dot" cx="64.26446280991735" cy="340" r="3" fill="#2563eb"></circle><circle class="dot" cx="65.45454545454545" cy="340" r="3" fill="#2563eb"></circle><circle class="dot" cx="66.64462809917354" cy="340" r="3" fill="#2563eb"></circle><circle class="dot" cx="67.83471074380165" cy="340" r="3" fill="#2563eb"></circle><circle class="dot" cx="69.02479338842976" cy="340" r="3" fill="#2563eb"></circle><circle class="dot" cx="70.21487603305785" cy="340" r="3" fill="#2563eb"></circle><circle class="dot" cx="71.40495867768595" cy="340" r="3" fill="#2563eb"></circle><circle class="dot" cx="72.59504132231405" cy="340" r="3" fill="#2563eb"></circle><circle class="dot" cx="73.78512396694215" cy="340" r="3" fill="#2563eb"></circle><circle class="dot" cx="74.97520661157026" cy="340" r="3" fill="#2563eb"></circle><circle class="dot" cx="76.16528925619835" cy="340" r="3" fill="#2563eb"></circle><circle class="dot" cx="77.35537190082646" cy="340" r="3" fill="#2563eb"></circle><circle class="dot" cx="78.54545454545455" cy="340" r="3" fill="#2563eb"></circle><circle class="dot" cx="79.73553719008264" cy="340" r="3" fill="#2563eb"></circle><circle class="dot" cx="80.92561983471074" cy="340" r="3" fill="#2563eb"></circle><circle class="dot" cx="82.11570247933884" cy="340" r="3" fill="#2563eb"></circle><circle class="dot" cx="83.30578512396694" cy="340" r="3" fill="#2563eb"></circle><circle class="dot" cx="84.49586776859503" cy="340" r="3" fill="#2563eb"></circle><circle class="dot" cx="85.68595041322314" cy="340" r="3" fill="#2563eb"></circle><circle class="dot" cx="86.87603305785125" cy="340" r="3" fill="#2563eb"></circle><circle class="dot" cx="88.06611570247934" cy="340" r="3" fill="#2563eb"></circle><circle class="dot" cx="89.25619834710744" cy="340" r="3" fill="#2563eb"></circle><circle class="dot" cx="90.44628099173555" cy="340" r="3" fill="#2563eb"></circle><circle class="dot" cx="91.63636363636363" cy="340" r="3" fill="#2563eb"></circle><circle class="dot" cx="92.82644628099173" cy="340" r="3" fill="#2563eb"></circle><circle class="dot" cx="94.01652892561984" cy="340" r="3" fill="#2563eb"></circle><circle class="dot" cx="95.20661157024793" cy="340" r="3" fill="#2563eb"></circle><circle class="dot" cx="96.39669421487604" cy="340" r="3" fill="#2563eb"></circle><circle class="dot" cx="97.58677685950413" cy="340" r="3" fill="#2563eb"></circle><circle class="dot" cx="98.77685950413223" cy="340" r="3" fill="#2563eb"></circle><circle class="dot" cx="99.96694214876032" cy="340" r="3" fill="#2563eb"></circle><circle class="dot" cx="101.15702479338843" cy="340" r="3" fill="#2563eb"></circle><circle class="dot" cx="102.34710743801654" cy="340" r="3" fill="#2563eb"></circle><circle class="dot" cx="103.53719008264461" cy="340" r="3" fill="#2563eb"></circle><circle class="dot" cx="104.72727272727272" cy="340" r="3" fill="#2563eb"></circle><circle class="dot" cx="105.91735537190083" cy="340" r="3" fill="#2563eb"></circle><circle class="dot" cx="107.10743801652893" cy="340" r="3" fill="#2563eb"></circle><circle class="dot" cx="108.29752066115704" cy="340" r="3" fill="#2563eb"></circle><circle class="dot" cx="109.48760330578511" cy="340" r="3" fill="#2563eb"></circle><circle class="dot" cx="110.67768595041322" cy="340" r="3" fill="#2563eb"></circle><circle class="dot" cx="111.86776859504133" cy="340" r="3" fill="#2563eb"></circle><circle class="dot" cx="113.05785123966942" cy="340" r="3" fill="#2563eb"></circle><circle class="dot" cx="114.24793388429752" cy="340" r="3" fill="#2563eb"></circle><circle class="dot" cx="115.43801652892562" cy="340" r="3" fill="#2563eb"></circle><circle class="dot" cx="116.62809917355372" cy="340" r="3" fill="#2563eb"></circle><circle class="dot" cx="117.81818181818181" cy="340" r="3" fill="#2563eb"></circle><circle class="dot" cx="119.00826446280992" cy="340" r="3" fill="#2563eb"></circle><circle class="dot" cx="120.19834710743802" cy="340" r="3" fill="#2563eb"></circle><circle class="dot" cx="121.3884297520661" cy="340" r="3" fill="#2563eb"></circle><circle class="dot" cx="122.57851239669421" cy="317.3333333333333" r="3" fill="#2563eb"></circle><circle class="dot" cx="123.76859504132231" cy="317.3333333333333" r="3" fill="#2563eb"></circle><circle class="dot" cx="124.95867768595042" cy="317.3333333333333" r="3" fill="#2563eb"></circle><circle class="dot" cx="126.14876033057853" cy="317.3333333333333" r="3" fill="#2563eb"></circle><circle class="dot" cx="127.3388429752066" cy="317.3333333333333" r="3" fill="#2563eb"></circle><circle class="dot" cx="128.5289256198347" cy="317.3333333333333" r="3" fill="#2563eb"></circle><circle class="dot" cx="129.71900826446281" cy="317.3333333333333" r="3" fill="#2563eb"></circle><circle class="dot" cx="130.9090909090909" cy="317.3333333333333" r="3" fill="#2563eb"></circle><circle class="dot" cx="132.09917355371903" cy="317.3333333333333" r="3" fill="#2563eb"></circle><circle class="dot" cx="133.2892561983471" cy="317.3333333333333" r="3" fill="#2563eb"></circle><circle class="dot" cx="134.4793388429752" cy="317.3333333333333" r="3" fill="#2563eb"></circle><circle class="dot" cx="135.6694214876033" cy="317.3333333333333" r="3" fill="#2563eb"></circle><circle class="dot" cx="136.85950413223142" cy="317.3333333333333" r="3" fill="#2563eb"></circle><circle class="dot" cx="138.0495867768595" cy="317.3333333333333" r="3" fill="#2563eb"></circle><circle class="dot" cx="139.2396694214876" cy="317.3333333333333" r="3" fill="#2563eb"></circle><circle class="dot" cx="140.4297520661157" cy="317.3333333333333" r="3" fill="#2563eb"></circle><circle class="dot" cx="141.6198347107438" cy="317.3333333333333" r="3" fill="#2563eb"></circle><circle class="dot" cx="142.8099173553719" cy="317.3333333333333" r="3" fill="#2563eb"></circle><circle class="dot" cx="144" cy="317.3333333333333" r="3" fill="#2563eb"></circle><circle class="dot" cx="145.1900826446281" cy="317.3333333333333" r="3" fill="#2563eb"></circle><circle class="dot" cx="146.38016528925618" cy="317.3333333333333" r="3" fill="#2563eb"></circle><circle class="dot" cx="147.5702479338843" cy="317.3333333333333" r="3" fill="#2563eb"></circle><circle class="dot" cx="148.7603305785124" cy="317.3333333333333" r="3" fill="#2563eb"></circle><circle class="dot" cx="149.95041322314052" cy="317.3333333333333" r="3" fill="#2563eb"></circle><circle class="dot" cx="151.14049586776858" cy="317.3333333333333" r="3" fill="#2563eb"></circle><circle class="dot" cx="152.3305785123967" cy="317.3333333333333" r="3" fill="#2563eb"></circle><circle class="dot" cx="153.5206611570248" cy="317.3333333333333" r="3" fill="#2563eb"></circle><circle class="dot" cx="154.7107438016529" cy="317.3333333333333" r="3" fill="#2563eb"></circle><circle class="dot" cx="155.900826446281" cy="317.3333333333333" r="3" fill="#2563eb"></circle><circle class="dot" cx="157.0909090909091" cy="317.3333333333333" r="3" fill="#2563eb"></circle><circle class="dot" cx="158.28099173553719" cy="317.3333333333333" r="3" fill="#2563eb"></circle><circle class="dot" cx="159.47107438016528" cy="317.3333333333333" r="3" fill="#2563eb"></circle><circle class="dot" cx="160.6611570247934" cy="317.3333333333333" r="3" fill="#2563eb"></circle><circle class="dot" cx="161.8512396694215" cy="317.3333333333333" r="3" fill="#2563eb"></circle><circle class="dot" cx="163.04132231404958" cy="317.3333333333333" r="3" fill="#2563eb"></circle><circle class="dot" cx="164.23140495867767" cy="317.3333333333333" r="3" fill="#2563eb"></circle><circle class="dot" cx="165.4214876033058" cy="317.3333333333333" r="3" fill="#2563eb"></circle><circle class="dot" cx="166.61157024793388" cy="317.3333333333333" r="3" fill="#2563eb"></circle><circle class="dot" cx="167.801652892562" cy="317.3333333333333" r="3" fill="#2563eb"></circle><circle class="dot" cx="168.99173553719007" cy="317.3333333333333" r="3" fill="#2563eb"></circle><circle class="dot" cx="170.1818181818182" cy="317.3333333333333" r="3" fill="#2563eb"></circle><circle class="dot" cx="171.37190082644628" cy="317.3333333333333" r="3" fill="#2563eb"></circle><circle class="dot" cx="172.5619834710744" cy="317.3333333333333" r="3" fill="#2563eb"></circle><circle class="dot" cx="173.7520661157025" cy="317.3333333333333" r="3" fill="#2563eb"></circle><circle class="dot" cx="174.94214876033058" cy="317.3333333333333" r="3" fill="#2563eb"></circle><circle class="dot" cx="176.13223140495867" cy="317.3333333333333" r="3" fill="#2563eb"></circle><circle class="dot" cx="177.32231404958677" cy="317.3333333333333" r="3" fill="#2563eb"></circle><circle class="dot" cx="178.51239669421489" cy="317.3333333333333" r="3" fill="#2563eb"></circle><circle class="dot" cx="179.70247933884298" cy="317.3333333333333" r="3" fill="#2563eb"></circle><circle class="dot" cx="180.8925619834711" cy="317.3333333333333" r="3" fill="#2563eb"></circle><circle class="dot" cx="182.0826446280992" cy="317.3333333333333" r="3" fill="#2563eb"></circle><circle class="dot" cx="183.27272727272725" cy="317.3333333333333" r="3" fill="#2563eb"></circle><circle class="dot" cx="184.46280991735534" cy="317.3333333333333" r="3" fill="#2563eb"></circle><circle class="dot" cx="185.65289256198346" cy="317.3333333333333" r="3" fill="#2563eb"></circle><circle class="dot" cx="186.84297520661156" cy="317.3333333333333" r="3" fill="#2563eb"></circle><circle class="dot" cx="188.03305785123968" cy="317.3333333333333" r="3" fill="#2563eb"></circle><circle class="dot" cx="189.22314049586777" cy="317.3333333333333" r="3" fill="#2563eb"></circle><circle class="dot" cx="190.41322314049586" cy="317.3333333333333" r="3" fill="#2563eb"></circle><circle class="dot" cx="191.60330578512398" cy="317.3333333333333" r="3" fill="#2563eb"></circle><circle class="dot" cx="192.79338842975207" cy="317.3333333333333" r="3" fill="#2563eb"></circle><circle class="dot" cx="193.9834710743802" cy="317.3333333333333" r="3" fill="#2563eb"></circle><circle class="dot" cx="195.17355371900825" cy="317.3333333333333" r="3" fill="#2563eb"></circle><circle class="dot" cx="196.36363636363635" cy="317.3333333333333" r="3" fill="#2563eb"></circle><circle class="dot" cx="197.55371900826447" cy="317.3333333333333" r="3" fill="#2563eb"></circle><circle class="dot" cx="198.74380165289256" cy="317.3333333333333" r="3" fill="#2563eb"></circle><circle class="dot" cx="199.93388429752065" cy="317.3333333333333" r="3" fill="#2563eb"></circle><circle class="dot" cx="201.12396694214877" cy="317.3333333333333" r="3" fill="#2563eb"></circle><circle class="dot" cx="202.31404958677686" cy="317.3333333333333" r="3" fill="#2563eb"></circle><circle class="dot" cx="203.50413223140498" cy="317.3333333333333" r="3" fill="#2563eb"></circle><circle class="dot" cx="204.69421487603307" cy="317.3333333333333" r="3" fill="#2563eb"></circle><circle class="dot" cx="205.88429752066116" cy="317.3333333333333" r="3" fill="#2563eb"></circle><circle class="dot" cx="207.07438016528923" cy="317.3333333333333" r="3" fill="#2563eb"></circle><circle class="dot" cx="208.26446280991735" cy="317.3333333333333" r="3" fill="#2563eb"></circle><circle class="dot" cx="209.45454545454544" cy="317.3333333333333" r="3" fill="#2563eb"></circle><circle class="dot" cx="210.64462809917356" cy="317.3333333333333" r="3" fill="#2563eb"></circle><circle class="dot" cx="211.83471074380165" cy="317.3333333333333" r="3" fill="#2563eb"></circle><circle class="dot" cx="213.02479338842974" cy="317.3333333333333" r="3" fill="#2563eb"></circle><circle class="dot" cx="214.21487603305786" cy="317.3333333333333" r="3" fill="#2563eb"></circle><circle class="dot" cx="215.40495867768595" cy="317.3333333333333" r="3" fill="#2563eb"></circle><circle class="dot" cx="216.59504132231407" cy="317.3333333333333" r="3" fill="#2563eb"></circle><circle class="dot" cx="217.78512396694217" cy="317.3333333333333" r="3" fill="#2563eb"></circle><circle class="dot" cx="218.97520661157023" cy="317.3333333333333" r="3" fill="#2563eb"></circle><circle class="dot" cx="220.16528925619832" cy="317.3333333333333" r="3" fill="#2563eb"></circle><circle class="dot" cx="221.35537190082644" cy="317.3333333333333" r="3" fill="#2563eb"></circle><circle class="dot" cx="222.54545454545453" cy="317.3333333333333" r="3" fill="#2563eb"></circle><circle class="dot" cx="223.73553719008265" cy="317.3333333333333" r="3" fill="#2563eb"></circle><circle class="dot" cx="224.92561983471074" cy="317.3333333333333" r="3" fill="#2563eb"></circle><circle class="dot" cx="226.11570247933884" cy="317.3333333333333" r="3" fill="#2563eb"></circle><circle class="dot" cx="227.30578512396696" cy="317.3333333333333" r="3" fill="#2563eb"></circle><circle class="dot" cx="228.49586776859505" cy="317.3333333333333" r="3" fill="#2563eb"></circle><circle class="dot" cx="229.68595041322317" cy="317.3333333333333" r="3" fill="#2563eb"></circle><circle class="dot" cx="230.87603305785123" cy="317.3333333333333" r="3" fill="#2563eb"></circle><circle class="dot" cx="232.06611570247932" cy="317.3333333333333" r="3" fill="#2563eb"></circle><circle class="dot" cx="233.25619834710744" cy="317.3333333333333" r="3" fill="#2563eb"></circle><circle class="dot" cx="234.44628099173553" cy="317.3333333333333" r="3" fill="#2563eb"></circle><circle class="dot" cx="235.63636363636363" cy="317.3333333333333" r="3" fill="#2563eb"></circle><circle class="dot" cx="236.82644628099175" cy="317.3333333333333" r="3" fill="#2563eb"></circle><circle class="dot" cx="238.01652892561984" cy="317.3333333333333" r="3" fill="#2563eb"></circle><circle class="dot" cx="239.20661157024796" cy="317.3333333333333" r="3" fill="#2563eb"></circle><circle class="dot" cx="240.39669421487605" cy="317.3333333333333" r="3" fill="#2563eb"></circle><circle class="dot" cx="241.58677685950414" cy="317.3333333333333" r="3" fill="#2563eb"></circle><circle class="dot" cx="242.7768595041322" cy="317.3333333333333" r="3" fill="#2563eb"></circle><circle class="dot" cx="243.96694214876032" cy="317.3333333333333" r="3" fill="#2563eb"></circle><circle class="dot" cx="245.15702479338842" cy="317.3333333333333" r="3" fill="#2563eb"></circle><circle class="dot" cx="246.34710743801654" cy="317.3333333333333" r="3" fill="#2563eb"></circle><circle class="dot" cx="247.53719008264463" cy="317.3333333333333" r="3" fill="#2563eb"></circle><circle class="dot" cx="248.72727272727272" cy="317.3333333333333" r="3" fill="#2563eb"></circle><circle class="dot" cx="249.91735537190084" cy="317.3333333333333" r="3" fill="#2563eb"></circle><circle class="dot" cx="251.10743801652893" cy="317.3333333333333" r="3" fill="#2563eb"></circle><circle class="dot" cx="252.29752066115705" cy="317.3333333333333" r="3" fill="#2563eb"></circle><circle class="dot" cx="253.48760330578514" cy="317.3333333333333" r="3" fill="#2563eb"></circle><circle class="dot" cx="254.6776859504132" cy="317.3333333333333" r="3" fill="#2563eb"></circle><circle class="dot" cx="255.8677685950413" cy="317.3333333333333" r="3" fill="#2563eb"></circle><circle class="dot" cx="257.0578512396694" cy="317.3333333333333" r="3" fill="#2563eb"></circle><circle class="dot" cx="258.24793388429754" cy="317.3333333333333" r="3" fill="#2563eb"></circle><circle class="dot" cx="259.43801652892563" cy="317.3333333333333" r="3" fill="#2563eb"></circle><circle class="dot" cx="260.6280991735537" cy="317.3333333333333" r="3" fill="#2563eb"></circle><circle class="dot" cx="261.8181818181818" cy="317.3333333333333" r="3" fill="#2563eb"></circle><circle class="dot" cx="263.0082644628099" cy="317.3333333333333" r="3" fill="#2563eb"></circle><circle class="dot" cx="264.19834710743805" cy="317.3333333333333" r="3" fill="#2563eb"></circle><circle class="dot" cx="265.38842975206614" cy="317.3333333333333" r="3" fill="#2563eb"></circle><circle class="dot" cx="266.5785123966942" cy="317.3333333333333" r="3" fill="#2563eb"></circle><circle class="dot" cx="267.7685950413223" cy="317.3333333333333" r="3" fill="#2563eb"></circle><circle class="dot" cx="268.9586776859504" cy="317.3333333333333" r="3" fill="#2563eb"></circle><circle class="dot" cx="270.1487603305785" cy="317.3333333333333" r="3" fill="#2563eb"></circle><circle class="dot" cx="271.3388429752066" cy="317.3333333333333" r="3" fill="#2563eb"></circle><circle class="dot" cx="272.5289256198347" cy="317.3333333333333" r="3" fill="#2563eb"></circle><circle class="dot" cx="273.71900826446284" cy="317.3333333333333" r="3" fill="#2563eb"></circle><circle class="dot" cx="274.90909090909093" cy="317.3333333333333" r="3" fill="#2563eb"></circle><circle class="dot" cx="276.099173553719" cy="317.3333333333333" r="3" fill="#2563eb"></circle><circle class="dot" cx="277.2892561983471" cy="317.3333333333333" r="3" fill="#2563eb"></circle><circle class="dot" cx="278.4793388429752" cy="317.3333333333333" r="3" fill="#2563eb"></circle><circle class="dot" cx="279.6694214876033" cy="317.3333333333333" r="3" fill="#2563eb"></circle><circle class="dot" cx="280.8595041322314" cy="317.3333333333333" r="3" fill="#2563eb"></circle><circle class="dot" cx="282.0495867768595" cy="317.3333333333333" r="3" fill="#2563eb"></circle><circle class="dot" cx="283.2396694214876" cy="317.3333333333333" r="3" fill="#2563eb"></circle><circle class="dot" cx="284.4297520661157" cy="317.3333333333333" r="3" fill="#2563eb"></circle><circle class="dot" cx="285.6198347107438" cy="317.3333333333333" r="3" fill="#2563eb"></circle><circle class="dot" cx="286.8099173553719" cy="317.3333333333333" r="3" fill="#2563eb"></circle><circle class="dot" cx="288" cy="317.3333333333333" r="3" fill="#2563eb"></circle><circle class="dot" cx="289.1900826446281" cy="317.3333333333333" r="3" fill="#2563eb"></circle><circle class="dot" cx="290.3801652892562" cy="317.3333333333333" r="3" fill="#2563eb"></circle><circle class="dot" cx="291.5702479338843" cy="317.3333333333333" r="3" fill="#2563eb"></circle><circle class="dot" cx="292.76033057851237" cy="317.3333333333333" r="3" fill="#2563eb"></circle><circle class="dot" cx="293.9504132231405" cy="317.3333333333333" r="3" fill="#2563eb"></circle><circle class="dot" cx="295.1404958677686" cy="317.3333333333333" r="3" fill="#2563eb"></circle><circle class="dot" cx="296.3305785123967" cy="317.3333333333333" r="3" fill="#2563eb"></circle><circle class="dot" cx="297.5206611570248" cy="317.3333333333333" r="3" fill="#2563eb"></circle><circle class="dot" cx="298.7107438016529" cy="317.3333333333333" r="3" fill="#2563eb"></circle><circle class="dot" cx="299.90082644628103" cy="317.3333333333333" r="3" fill="#2563eb"></circle><circle class="dot" cx="301.09090909090907" cy="317.3333333333333" r="3" fill="#2563eb"></circle><circle class="dot" cx="302.28099173553716" cy="317.3333333333333" r="3" fill="#2563eb"></circle><circle class="dot" cx="303.4710743801653" cy="317.3333333333333" r="3" fill="#2563eb"></circle><circle class="dot" cx="304.6611570247934" cy="317.3333333333333" r="3" fill="#2563eb"></circle><circle class="dot" cx="305.8512396694215" cy="317.3333333333333" r="3" fill="#2563eb"></circle><circle class="dot" cx="307.0413223140496" cy="317.3333333333333" r="3" fill="#2563eb"></circle><circle class="dot" cx="308.2314049586777" cy="317.3333333333333" r="3" fill="#2563eb"></circle><circle class="dot" cx="309.4214876033058" cy="317.3333333333333" r="3" fill="#2563eb"></circle><circle class="dot" cx="310.6115702479339" cy="317.3333333333333" r="3" fill="#2563eb"></circle><circle class="dot" cx="311.801652892562" cy="317.3333333333333" r="3" fill="#2563eb"></circle><circle class="dot" cx="312.99173553719004" cy="317.3333333333333" r="3" fill="#2563eb"></circle><circle class="dot" cx="314.1818181818182" cy="317.3333333333333" r="3" fill="#2563eb"></circle><circle class="dot" cx="315.3719008264463" cy="317.3333333333333" r="3" fill="#2563eb"></circle><circle class="dot" cx="316.56198347107437" cy="317.3333333333333" r="3" fill="#2563eb"></circle><circle class="dot" cx="317.75206611570246" cy="317.3333333333333" r="3" fill="#2563eb"></circle><circle class="dot" cx="318.94214876033055" cy="317.3333333333333" r="3" fill="#2563eb"></circle><circle class="dot" cx="320.1322314049587" cy="317.3333333333333" r="3" fill="#2563eb"></circle><circle class="dot" cx="321.3223140495868" cy="317.3333333333333" r="3" fill="#2563eb"></circle><circle class="dot" cx="322.5123966942149" cy="317.3333333333333" r="3" fill="#2563eb"></circle><circle class="dot" cx="323.702479338843" cy="317.3333333333333" r="3" fill="#2563eb"></circle><circle class="dot" cx="324.89256198347107" cy="317.3333333333333" r="3" fill="#2563eb"></circle><circle class="dot" cx="326.08264462809916" cy="317.3333333333333" r="3" fill="#2563eb"></circle><circle class="dot" cx="327.27272727272725" cy="317.3333333333333" r="3" fill="#2563eb"></circle><circle class="dot" cx="328.46280991735534" cy="317.3333333333333" r="3" fill="#2563eb"></circle><circle class="dot" cx="329.6528925619835" cy="317.3333333333333" r="3" fill="#2563eb"></circle><circle class="dot" cx="330.8429752066116" cy="317.3333333333333" r="3" fill="#2563eb"></circle><circle class="dot" cx="332.0330578512397" cy="317.3333333333333" r="3" fill="#2563eb"></circle><circle class="dot" cx="333.22314049586777" cy="317.3333333333333" r="3" fill="#2563eb"></circle><circle class="dot" cx="334.41322314049586" cy="317.3333333333333" r="3" fill="#2563eb"></circle><circle class="dot" cx="335.603305785124" cy="317.3333333333333" r="3" fill="#2563eb"></circle><circle class="dot" cx="336.79338842975204" cy="317.3333333333333" r="3" fill="#2563eb"></circle><circle class="dot" cx="337.98347107438013" cy="317.3333333333333" r="3" fill="#2563eb"></circle><circle class="dot" cx="339.1735537190083" cy="317.3333333333333" r="3" fill="#2563eb"></circle><circle class="dot" cx="340.3636363636364" cy="317.3333333333333" r="3" fill="#2563eb"></circle><circle class="dot" cx="341.55371900826447" cy="317.3333333333333" r="3" fill="#2563eb"></circle><circle class="dot" cx="342.74380165289256" cy="317.3333333333333" r="3" fill="#2563eb"></circle><circle class="dot" cx="343.93388429752065" cy="317.3333333333333" r="3" fill="#2563eb"></circle><circle class="dot" cx="345.1239669421488" cy="317.3333333333333" r="3" fill="#2563eb"></circle><circle class="dot" cx="346.3140495867769" cy="317.3333333333333" r="3" fill="#2563eb"></circle><circle class="dot" cx="347.504132231405" cy="317.3333333333333" r="3" fill="#2563eb"></circle><circle class="dot" cx="348.694214876033" cy="317.3333333333333" r="3" fill="#2563eb"></circle><circle class="dot" cx="349.88429752066116" cy="317.3333333333333" r="3" fill="#2563eb"></circle><circle class="dot" cx="351.07438016528926" cy="317.3333333333333" r="3" fill="#2563eb"></circle><circle class="dot" cx="352.26446280991735" cy="317.3333333333333" r="3" fill="#2563eb"></circle><circle class="dot" cx="353.45454545454544" cy="317.3333333333333" r="3" fill="#2563eb"></circle><circle class="dot" cx="354.64462809917353" cy="317.3333333333333" r="3" fill="#2563eb"></circle><circle class="dot" cx="355.8347107438017" cy="317.3333333333333" r="3" fill="#2563eb"></circle><circle class="dot" cx="357.02479338842977" cy="317.3333333333333" r="3" fill="#2563eb"></circle><circle class="dot" cx="358.21487603305786" cy="317.3333333333333" r="3" fill="#2563eb"></circle><circle class="dot" cx="359.40495867768595" cy="317.3333333333333" r="3" fill="#2563eb"></circle><circle class="dot" cx="360.59504132231405" cy="317.3333333333333" r="3" fill="#2563eb"></circle><circle class="dot" cx="361.7851239669422" cy="317.3333333333333" r="3" fill="#2563eb"></circle><circle class="dot" cx="362.97520661157023" cy="317.3333333333333" r="3" fill="#2563eb"></circle><circle class="dot" cx="364.1652892561984" cy="317.3333333333333" r="3" fill="#2563eb"></circle><circle class="dot" cx="365.35537190082647" cy="317.3333333333333" r="3" fill="#2563eb"></circle><circle class="dot" cx="366.5454545454545" cy="317.3333333333333" r="3" fill="#2563eb"></circle><circle class="dot" cx="367.73553719008265" cy="317.3333333333333" r="3" fill="#2563eb"></circle><circle class="dot" cx="368.9256198347107" cy="317.3333333333333" r="3" fill="#2563eb"></circle><circle class="dot" cx="370.11570247933884" cy="317.3333333333333" r="3" fill="#2563eb"></circle><circle class="dot" cx="371.3057851239669" cy="317.3333333333333" r="3" fill="#2563eb"></circle><circle class="dot" cx="372.4958677685951" cy="317.3333333333333" r="3" fill="#2563eb"></circle><circle class="dot" cx="373.6859504132231" cy="317.3333333333333" r="3" fill="#2563eb"></circle><circle class="dot" cx="374.87603305785126" cy="317.3333333333333" r="3" fill="#2563eb"></circle><circle class="dot" cx="376.06611570247935" cy="317.3333333333333" r="3" fill="#2563eb"></circle><circle class="dot" cx="377.2561983471075" cy="317.3333333333333" r="3" fill="#2563eb"></circle><circle class="dot" cx="378.44628099173553" cy="317.3333333333333" r="3" fill="#2563eb"></circle><circle class="dot" cx="379.6363636363636" cy="317.3333333333333" r="3" fill="#2563eb"></circle><circle class="dot" cx="380.8264462809917" cy="317.3333333333333" r="3" fill="#2563eb"></circle><circle class="dot" cx="382.0165289256198" cy="317.3333333333333" r="3" fill="#2563eb"></circle><circle class="dot" cx="383.20661157024796" cy="317.3333333333333" r="3" fill="#2563eb"></circle><circle class="dot" cx="384.396694214876" cy="317.3333333333333" r="3" fill="#2563eb"></circle><circle class="dot" cx="385.58677685950414" cy="317.3333333333333" r="3" fill="#2563eb"></circle><circle class="dot" cx="386.77685950413223" cy="317.3333333333333" r="3" fill="#2563eb"></circle><circle class="dot" cx="387.9669421487604" cy="317.3333333333333" r="3" fill="#2563eb"></circle><circle class="dot" cx="389.1570247933884" cy="317.3333333333333" r="3" fill="#2563eb"></circle><circle class="dot" cx="390.3471074380165" cy="317.3333333333333" r="3" fill="#2563eb"></circle><circle class="dot" cx="391.53719008264466" cy="317.3333333333333" r="3" fill="#2563eb"></circle><circle class="dot" cx="392.7272727272727" cy="317.3333333333333" r="3" fill="#2563eb"></circle><circle class="dot" cx="393.91735537190084" cy="317.3333333333333" r="3" fill="#2563eb"></circle><circle class="dot" cx="395.10743801652893" cy="317.3333333333333" r="3" fill="#2563eb"></circle><circle class="dot" cx="396.297520661157" cy="317.3333333333333" r="3" fill="#2563eb"></circle><circle class="dot" cx="397.4876033057851" cy="317.3333333333333" r="3" fill="#2563eb"></circle><circle class="dot" cx="398.67768595041326" cy="317.3333333333333" r="3" fill="#2563eb"></circle><circle class="dot" cx="399.8677685950413" cy="317.3333333333333" r="3" fill="#2563eb"></circle><circle class="dot" cx="401.05785123966945" cy="317.3333333333333" r="3" fill="#2563eb"></circle><circle class="dot" cx="402.24793388429754" cy="317.3333333333333" r="3" fill="#2563eb"></circle><circle class="dot" cx="403.4380165289256" cy="317.3333333333333" r="3" fill="#2563eb"></circle><circle class="dot" cx="404.6280991735537" cy="317.3333333333333" r="3" fill="#2563eb"></circle><circle class="dot" cx="405.8181818181818" cy="317.3333333333333" r="3" fill="#2563eb"></circle><circle class="dot" cx="407.00826446280996" cy="317.3333333333333" r="3" fill="#2563eb"></circle><circle class="dot" cx="408.198347107438" cy="317.3333333333333" r="3" fill="#2563eb"></circle><circle class="dot" cx="409.38842975206614" cy="317.3333333333333" r="3" fill="#2563eb"></circle><circle class="dot" cx="410.5785123966942" cy="317.3333333333333" r="3" fill="#2563eb"></circle><circle class="dot" cx="411.7685950413223" cy="317.3333333333333" r="3" fill="#2563eb"></circle><circle class="dot" cx="412.9586776859504" cy="317.3333333333333" r="3" fill="#2563eb"></circle><circle class="dot" cx="414.14876033057845" cy="317.3333333333333" r="3" fill="#2563eb"></circle><circle class="dot" cx="415.3388429752066" cy="317.3333333333333" r="3" fill="#2563eb"></circle><circle class="dot" cx="416.5289256198347" cy="317.3333333333333" r="3" fill="#2563eb"></circle><circle class="dot" cx="417.71900826446284" cy="317.3333333333333" r="3" fill="#2563eb"></circle><circle class="dot" cx="418.9090909090909" cy="317.3333333333333" r="3" fill="#2563eb"></circle><circle class="dot" cx="420.099173553719" cy="317.3333333333333" r="3" fill="#2563eb"></circle><circle class="dot" cx="421.2892561983471" cy="317.3333333333333" r="3" fill="#2563eb"></circle><circle class="dot" cx="422.47933884297527" cy="317.3333333333333" r="3" fill="#2563eb"></circle><circle class="dot" cx="423.6694214876033" cy="317.3333333333333" r="3" fill="#2563eb"></circle><circle class="dot" cx="424.85950413223145" cy="317.3333333333333" r="3" fill="#2563eb"></circle><circle class="dot" cx="426.0495867768595" cy="317.3333333333333" r="3" fill="#2563eb"></circle><circle class="dot" cx="427.2396694214876" cy="317.3333333333333" r="3" fill="#2563eb"></circle><circle class="dot" cx="428.4297520661157" cy="317.3333333333333" r="3" fill="#2563eb"></circle><circle class="dot" cx="429.61983471074376" cy="317.3333333333333" r="3" fill="#2563eb"></circle><circle class="dot" cx="430.8099173553719" cy="317.3333333333333" r="3" fill="#2563eb"></circle><circle class="dot" cx="432" cy="317.3333333333333" r="3" fill="#2563eb"></circle><circle class="dot" cx="433.19008264462815" cy="317.3333333333333" r="3" fill="#2563eb"></circle><circle class="dot" cx="434.3801652892562" cy="317.3333333333333" r="3" fill="#2563eb"></circle><circle class="dot" cx="435.57024793388433" cy="317.3333333333333" r="3" fill="#2563eb"></circle><circle class="dot" cx="436.7603305785124" cy="317.3333333333333" r="3" fill="#2563eb"></circle><circle class="dot" cx="437.95041322314046" cy="317.3333333333333" r="3" fill="#2563eb"></circle><circle class="dot" cx="439.1404958677686" cy="317.3333333333333" r="3" fill="#2563eb"></circle><circle class="dot" cx="440.33057851239664" cy="317.3333333333333" r="3" fill="#2563eb"></circle><circle class="dot" cx="441.5206611570248" cy="317.3333333333333" r="3" fill="#2563eb"></circle><circle class="dot" cx="442.7107438016529" cy="317.3333333333333" r="3" fill="#2563eb"></circle><circle class="dot" cx="443.90082644628103" cy="317.3333333333333" r="3" fill="#2563eb"></circle><circle class="dot" cx="445.09090909090907" cy="317.3333333333333" r="3" fill="#2563eb"></circle><circle class="dot" cx="446.2809917355372" cy="317.3333333333333" r="3" fill="#2563eb"></circle><circle class="dot" cx="447.4710743801653" cy="317.3333333333333" r="3" fill="#2563eb"></circle><circle class="dot" cx="448.66115702479334" cy="317.3333333333333" r="3" fill="#2563eb"></circle><circle class="dot" cx="449.8512396694215" cy="317.3333333333333" r="3" fill="#2563eb"></circle><circle class="dot" cx="451.0413223140496" cy="317.3333333333333" r="3" fill="#2563eb"></circle><circle class="dot" cx="452.2314049586777" cy="317.3333333333333" r="3" fill="#2563eb"></circle><circle class="dot" cx="453.42148760330576" cy="317.3333333333333" r="3" fill="#2563eb"></circle><circle class="dot" cx="454.6115702479339" cy="317.3333333333333" r="3" fill="#2563eb"></circle><circle class="dot" cx="455.80165289256195" cy="317.3333333333333" r="3" fill="#2563eb"></circle><circle class="dot" cx="456.9917355371901" cy="317.3333333333333" r="3" fill="#2563eb"></circle><circle class="dot" cx="458.1818181818182" cy="317.3333333333333" r="3" fill="#2563eb"></circle><circle class="dot" cx="459.37190082644634" cy="317.3333333333333" r="3" fill="#2563eb"></circle><circle class="dot" cx="460.56198347107437" cy="317.3333333333333" r="3" fill="#2563eb"></circle><circle class="dot" cx="461.75206611570246" cy="317.3333333333333" r="3" fill="#2563eb"></circle><circle class="dot" cx="462.9421487603306" cy="317.3333333333333" r="3" fill="#2563eb"></circle><circle class="dot" cx="464.13223140495865" cy="317.3333333333333" r="3" fill="#2563eb"></circle><circle class="dot" cx="465.3223140495868" cy="317.3333333333333" r="3" fill="#2563eb"></circle><circle class="dot" cx="466.5123966942149" cy="317.3333333333333" r="3" fill="#2563eb"></circle><circle class="dot" cx="467.702479338843" cy="317.3333333333333" r="3" fill="#2563eb"></circle><circle class="dot" cx="468.89256198347107" cy="317.3333333333333" r="3" fill="#2563eb"></circle><circle class="dot" cx="470.0826446280992" cy="317.3333333333333" r="3" fill="#2563eb"></circle><circle class="dot" cx="471.27272727272725" cy="317.3333333333333" r="3" fill="#2563eb"></circle><circle class="dot" cx="472.46280991735534" cy="317.3333333333333" r="3" fill="#2563eb"></circle><circle class="dot" cx="473.6528925619835" cy="317.3333333333333" r="3" fill="#2563eb"></circle><circle class="dot" cx="474.8429752066115" cy="317.3333333333333" r="3" fill="#2563eb"></circle><circle class="dot" cx="476.0330578512397" cy="317.3333333333333" r="3" fill="#2563eb"></circle><circle class="dot" cx="477.22314049586777" cy="317.3333333333333" r="3" fill="#2563eb"></circle><circle class="dot" cx="478.4132231404959" cy="317.3333333333333" r="3" fill="#2563eb"></circle><circle class="dot" cx="479.60330578512395" cy="317.3333333333333" r="3" fill="#2563eb"></circle><circle class="dot" cx="480.7933884297521" cy="317.3333333333333" r="3" fill="#2563eb"></circle><circle class="dot" cx="481.98347107438013" cy="317.3333333333333" r="3" fill="#2563eb"></circle><circle class="dot" cx="483.1735537190083" cy="317.3333333333333" r="3" fill="#2563eb"></circle><circle class="dot" cx="484.3636363636364" cy="317.3333333333333" r="3" fill="#2563eb"></circle><circle class="dot" cx="485.5537190082644" cy="317.3333333333333" r="3" fill="#2563eb"></circle><circle class="dot" cx="486.74380165289256" cy="317.3333333333333" r="3" fill="#2563eb"></circle><circle class="dot" cx="487.93388429752065" cy="317.3333333333333" r="3" fill="#2563eb"></circle><circle class="dot" cx="489.1239669421488" cy="317.3333333333333" r="3" fill="#2563eb"></circle><circle class="dot" cx="490.31404958677683" cy="317.3333333333333" r="3" fill="#2563eb"></circle><circle class="dot" cx="491.504132231405" cy="317.3333333333333" r="3" fill="#2563eb"></circle><circle class="dot" cx="492.6942148760331" cy="317.3333333333333" r="3" fill="#2563eb"></circle><circle class="dot" cx="493.88429752066116" cy="317.3333333333333" r="3" fill="#2563eb"></circle><circle class="dot" cx="495.07438016528926" cy="317.3333333333333" r="3" fill="#2563eb"></circle><circle class="dot" cx="496.2644628099173" cy="317.3333333333333" r="3" fill="#2563eb"></circle><circle class="dot" cx="497.45454545454544" cy="317.3333333333333" r="3" fill="#2563eb"></circle><circle class="dot" cx="498.64462809917353" cy="317.3333333333333" r="3" fill="#2563eb"></circle><circle class="dot" cx="499.8347107438017" cy="317.3333333333333" r="3" fill="#2563eb"></circle><circle class="dot" cx="501.0247933884297" cy="317.3333333333333" r="3" fill="#2563eb"></circle><circle class="dot" cx="502.21487603305786" cy="317.3333333333333" r="3" fill="#2563eb"></circle><circle class="dot" cx="503.40495867768595" cy="317.3333333333333" r="3" fill="#2563eb"></circle><circle class="dot" cx="504.5950413223141" cy="317.3333333333333" r="3" fill="#2563eb"></circle><circle class="dot" cx="505.78512396694214" cy="317.3333333333333" r="3" fill="#2563eb"></circle><circle class="dot" cx="506.9752066115703" cy="317.3333333333333" r="3" fill="#2563eb"></circle><circle class="dot" cx="508.1652892561983" cy="317.3333333333333" r="3" fill="#2563eb"></circle><circle class="dot" cx="509.3553719008264" cy="317.3333333333333" r="3" fill="#2563eb"></circle><circle class="dot" cx="510.54545454545456" cy="317.3333333333333" r="3" fill="#2563eb"></circle><circle class="dot" cx="511.7355371900826" cy="317.3333333333333" r="3" fill="#2563eb"></circle><circle class="dot" cx="512.9256198347108" cy="317.3333333333333" r="3" fill="#2563eb"></circle><circle class="dot" cx="514.1157024793388" cy="317.3333333333333" r="3" fill="#2563eb"></circle><circle class="dot" cx="515.305785123967" cy="317.3333333333333" r="3" fill="#2563eb"></circle><circle class="dot" cx="516.4958677685951" cy="317.3333333333333" r="3" fill="#2563eb"></circle><circle class="dot" cx="517.6859504132232" cy="317.3333333333333" r="3" fill="#2563eb"></circle><circle class="dot" cx="518.8760330578513" cy="302.22222222222223" r="3" fill="#2563eb"></circle><circle class="dot" cx="520.0661157024794" cy="302.22222222222223" r="3" fill="#2563eb"></circle><circle class="dot" cx="521.2561983471074" cy="302.22222222222223" r="3" fill="#2563eb"></circle><circle class="dot" cx="522.4462809917355" cy="302.22222222222223" r="3" fill="#2563eb"></circle><circle class="dot" cx="523.6363636363636" cy="302.22222222222223" r="3" fill="#2563eb"></circle><circle class="dot" cx="524.8264462809917" cy="302.22222222222223" r="3" fill="#2563eb"></circle><circle class="dot" cx="526.0165289256198" cy="302.22222222222223" r="3" fill="#2563eb"></circle><circle class="dot" cx="527.2066115702479" cy="302.22222222222223" r="3" fill="#2563eb"></circle><circle class="dot" cx="528.3966942148761" cy="302.22222222222223" r="3" fill="#2563eb"></circle><circle class="dot" cx="529.5867768595041" cy="302.22222222222223" r="3" fill="#2563eb"></circle><circle class="dot" cx="530.7768595041323" cy="302.22222222222223" r="3" fill="#2563eb"></circle><circle class="dot" cx="531.9669421487604" cy="302.22222222222223" r="3" fill="#2563eb"></circle><circle class="dot" cx="533.1570247933884" cy="302.22222222222223" r="3" fill="#2563eb"></circle><circle class="dot" cx="534.3471074380166" cy="302.22222222222223" r="3" fill="#2563eb"></circle><circle class="dot" cx="535.5371900826447" cy="302.22222222222223" r="3" fill="#2563eb"></circle><circle class="dot" cx="536.7272727272727" cy="302.22222222222223" r="3" fill="#2563eb"></circle><circle class="dot" cx="537.9173553719008" cy="302.22222222222223" r="3" fill="#2563eb"></circle><circle class="dot" cx="539.1074380165289" cy="302.22222222222223" r="3" fill="#2563eb"></circle><circle class="dot" cx="540.297520661157" cy="302.22222222222223" r="3" fill="#2563eb"></circle><circle class="dot" cx="541.4876033057851" cy="302.22222222222223" r="3" fill="#2563eb"></circle><circle class="dot" cx="542.6776859504132" cy="302.22222222222223" r="3" fill="#2563eb"></circle><circle class="dot" cx="543.8677685950413" cy="302.22222222222223" r="3" fill="#2563eb"></circle><circle class="dot" cx="545.0578512396694" cy="302.22222222222223" r="3" fill="#2563eb"></circle><circle class="dot" cx="546.2479338842975" cy="302.22222222222223" r="3" fill="#2563eb"></circle><circle class="dot" cx="547.4380165289257" cy="302.22222222222223" r="3" fill="#2563eb"></circle><circle class="dot" cx="548.6280991735537" cy="302.22222222222223" r="3" fill="#2563eb"></circle><circle class="dot" cx="549.8181818181819" cy="302.22222222222223" r="3" fill="#2563eb"></circle><circle class="dot" cx="551.0082644628098" cy="302.22222222222223" r="3" fill="#2563eb"></circle><circle class="dot" cx="552.198347107438" cy="294.6666666666667" r="3" fill="#2563eb"></circle><circle class="dot" cx="553.3884297520661" cy="249.33333333333334" r="3" fill="#2563eb"></circle><circle class="dot" cx="554.5785123966942" cy="302.22222222222223" r="3" fill="#2563eb"></circle><circle class="dot" cx="555.7685950413223" cy="302.22222222222223" r="3" fill="#2563eb"></circle><circle class="dot" cx="556.9586776859504" cy="302.22222222222223" r="3" fill="#2563eb"></circle><circle class="dot" cx="558.1487603305785" cy="302.22222222222223" r="3" fill="#2563eb"></circle><circle class="dot" cx="559.3388429752066" cy="302.22222222222223" r="3" fill="#2563eb"></circle><circle class="dot" cx="560.5289256198347" cy="302.22222222222223" r="3" fill="#2563eb"></circle><circle class="dot" cx="561.7190082644628" cy="302.22222222222223" r="3" fill="#2563eb"></circle><circle class="dot" cx="562.909090909091" cy="302.22222222222223" r="3" fill="#2563eb"></circle><circle class="dot" cx="564.099173553719" cy="302.22222222222223" r="3" fill="#2563eb"></circle><circle class="dot" cx="565.2892561983472" cy="302.22222222222223" r="3" fill="#2563eb"></circle><circle class="dot" cx="566.4793388429752" cy="302.22222222222223" r="3" fill="#2563eb"></circle><circle class="dot" cx="567.6694214876032" cy="302.22222222222223" r="3" fill="#2563eb"></circle><circle class="dot" cx="568.8595041322315" cy="302.22222222222223" r="3" fill="#2563eb"></circle><circle class="dot" cx="570.0495867768594" cy="302.22222222222223" r="3" fill="#2563eb"></circle><circle class="dot" cx="571.2396694214876" cy="302.22222222222223" r="3" fill="#2563eb"></circle><circle class="dot" cx="572.4297520661157" cy="302.22222222222223" r="3" fill="#2563eb"></circle><circle class="dot" cx="573.6198347107438" cy="302.22222222222223" r="3" fill="#2563eb"></circle><circle class="dot" cx="574.8099173553719" cy="302.22222222222223" r="3" fill="#2563eb"></circle><circle class="dot" cx="576" cy="302.22222222222223" r="3" fill="#2563eb"></circle><circle class="dot" cx="577.1900826446281" cy="302.22222222222223" r="3" fill="#2563eb"></circle><circle class="dot" cx="578.3801652892562" cy="302.22222222222223" r="3" fill="#2563eb"></circle><circle class="dot" cx="579.5702479338843" cy="302.22222222222223" r="3" fill="#2563eb"></circle><circle class="dot" cx="580.7603305785124" cy="136.00000000000006" r="3" fill="#2563eb"></circle><circle class="dot" cx="581.9504132231405" cy="7.555555555555566" r="3" fill="#2563eb"></circle><circle class="dot" cx="583.1404958677685" cy="264.44444444444446" r="3" fill="#2563eb"></circle><circle class="dot" cx="584.3305785123968" cy="302.22222222222223" r="3" fill="#2563eb"></circle><circle class="dot" cx="585.5206611570247" cy="302.22222222222223" r="3" fill="#2563eb"></circle><circle class="dot" cx="586.7107438016529" cy="302.22222222222223" r="3" fill="#2563eb"></circle><circle class="dot" cx="587.900826446281" cy="302.22222222222223" r="3" fill="#2563eb"></circle><circle class="dot" cx="589.0909090909091" cy="302.22222222222223" r="3" fill="#2563eb"></circle><circle class="dot" cx="590.2809917355372" cy="302.22222222222223" r="3" fill="#2563eb"></circle><circle class="dot" cx="591.4710743801653" cy="302.22222222222223" r="3" fill="#2563eb"></circle><circle class="dot" cx="592.6611570247934" cy="302.22222222222223" r="3" fill="#2563eb"></circle><circle class="dot" cx="593.8512396694215" cy="302.22222222222223" r="3" fill="#2563eb"></circle><circle class="dot" cx="595.0413223140496" cy="302.22222222222223" r="3" fill="#2563eb"></circle><circle class="dot" cx="596.2314049586777" cy="302.22222222222223" r="3" fill="#2563eb"></circle><circle class="dot" cx="597.4214876033058" cy="302.22222222222223" r="3" fill="#2563eb"></circle><circle class="dot" cx="598.6115702479339" cy="264.44444444444446" r="3" fill="#2563eb"></circle><circle class="dot" cx="599.8016528925621" cy="279.55555555555554" r="3" fill="#2563eb"></circle><circle class="dot" cx="600.99173553719" cy="279.55555555555554" r="3" fill="#2563eb"></circle><circle class="dot" cx="602.1818181818181" cy="279.55555555555554" r="3" fill="#2563eb"></circle><circle class="dot" cx="603.3719008264463" cy="151.11111111111114" r="3" fill="#2563eb"></circle><circle class="dot" cx="604.5619834710743" cy="143.5555555555556" r="3" fill="#2563eb"></circle><circle class="dot" cx="605.7520661157025" cy="30.22222222222223" r="3" fill="#2563eb"></circle><circle class="dot" cx="606.9421487603306" cy="302.22222222222223" r="3" fill="#2563eb"></circle><circle class="dot" cx="608.1322314049587" cy="302.22222222222223" r="3" fill="#2563eb"></circle><circle class="dot" cx="609.3223140495868" cy="226.66666666666669" r="3" fill="#2563eb"></circle><circle class="dot" cx="610.5123966942149" cy="294.6666666666667" r="3" fill="#2563eb"></circle><circle class="dot" cx="611.702479338843" cy="226.66666666666669" r="3" fill="#2563eb"></circle><circle class="dot" cx="612.8925619834711" cy="302.22222222222223" r="3" fill="#2563eb"></circle><circle class="dot" cx="614.0826446280992" cy="302.22222222222223" r="3" fill="#2563eb"></circle><circle class="dot" cx="615.2727272727273" cy="302.22222222222223" r="3" fill="#2563eb"></circle><circle class="dot" cx="616.4628099173553" cy="302.22222222222223" r="3" fill="#2563eb"></circle><circle class="dot" cx="617.6528925619834" cy="302.22222222222223" r="3" fill="#2563eb"></circle><circle class="dot" cx="618.8429752066116" cy="302.22222222222223" r="3" fill="#2563eb"></circle><circle class="dot" cx="620.0330578512396" cy="302.22222222222223" r="3" fill="#2563eb"></circle><circle class="dot" cx="621.2231404958678" cy="302.22222222222223" r="3" fill="#2563eb"></circle><circle class="dot" cx="622.4132231404958" cy="302.22222222222223" r="3" fill="#2563eb"></circle><circle class="dot" cx="623.603305785124" cy="302.22222222222223" r="3" fill="#2563eb"></circle><circle class="dot" cx="624.7933884297521" cy="302.22222222222223" r="3" fill="#2563eb"></circle><circle class="dot" cx="625.9834710743801" cy="302.22222222222223" r="3" fill="#2563eb"></circle><circle class="dot" cx="627.1735537190083" cy="302.22222222222223" r="3" fill="#2563eb"></circle><circle class="dot" cx="628.3636363636364" cy="302.22222222222223" r="3" fill="#2563eb"></circle><circle class="dot" cx="629.5537190082645" cy="302.22222222222223" r="3" fill="#2563eb"></circle><circle class="dot" cx="630.7438016528926" cy="302.22222222222223" r="3" fill="#2563eb"></circle><circle class="dot" cx="631.9338842975206" cy="302.22222222222223" r="3" fill="#2563eb"></circle><circle class="dot" cx="633.1239669421487" cy="302.22222222222223" r="3" fill="#2563eb"></circle><circle class="dot" cx="634.314049586777" cy="302.22222222222223" r="3" fill="#2563eb"></circle><circle class="dot" cx="635.5041322314049" cy="302.22222222222223" r="3" fill="#2563eb"></circle><circle class="dot" cx="636.6942148760331" cy="302.22222222222223" r="3" fill="#2563eb"></circle><circle class="dot" cx="637.8842975206611" cy="196.4444444444445" r="3" fill="#2563eb"></circle><circle class="dot" cx="639.0743801652892" cy="105.77777777777781" r="3" fill="#2563eb"></circle><circle class="dot" cx="640.2644628099174" cy="151.11111111111114" r="3" fill="#2563eb"></circle><circle class="dot" cx="641.4545454545454" cy="113.33333333333339" r="3" fill="#2563eb"></circle><circle class="dot" cx="642.6446280991736" cy="83.1111111111112" r="3" fill="#2563eb"></circle><circle class="dot" cx="643.8347107438017" cy="136.00000000000006" r="3" fill="#2563eb"></circle><circle class="dot" cx="645.0247933884298" cy="90.66666666666669" r="3" fill="#2563eb"></circle><circle class="dot" cx="646.2148760330579" cy="151.11111111111114" r="3" fill="#2563eb"></circle><circle class="dot" cx="647.404958677686" cy="219.11111111111111" r="3" fill="#2563eb"></circle><circle class="dot" cx="648.595041322314" cy="196.4444444444445" r="3" fill="#2563eb"></circle><circle class="dot" cx="649.7851239669421" cy="234.22222222222223" r="3" fill="#2563eb"></circle><circle class="dot" cx="650.9752066115702" cy="204.00000000000003" r="3" fill="#2563eb"></circle><circle class="dot" cx="652.1652892561983" cy="264.44444444444446" r="3" fill="#2563eb"></circle><circle class="dot" cx="653.3553719008264" cy="272" r="3" fill="#2563eb"></circle><circle class="dot" cx="654.5454545454545" cy="188.88888888888894" r="3" fill="#2563eb"></circle><circle class="dot" cx="655.7355371900827" cy="226.66666666666669" r="3" fill="#2563eb"></circle><circle class="dot" cx="656.9256198347107" cy="226.66666666666669" r="3" fill="#2563eb"></circle><circle class="dot" cx="658.1157024793389" cy="234.22222222222223" r="3" fill="#2563eb"></circle><circle class="dot" cx="659.305785123967" cy="302.22222222222223" r="3" fill="#2563eb"></circle><circle class="dot" cx="660.4958677685951" cy="287.1111111111111" r="3" fill="#2563eb"></circle><circle class="dot" cx="661.6859504132232" cy="302.22222222222223" r="3" fill="#2563eb"></circle><circle class="dot" cx="662.8760330578513" cy="302.22222222222223" r="3" fill="#2563eb"></circle><circle class="dot" cx="664.0661157024794" cy="234.22222222222223" r="3" fill="#2563eb"></circle><circle class="dot" cx="665.2561983471074" cy="241.77777777777783" r="3" fill="#2563eb"></circle><circle class="dot" cx="666.4462809917355" cy="256.8888888888889" r="3" fill="#2563eb"></circle><circle class="dot" cx="667.6363636363636" cy="302.22222222222223" r="3" fill="#2563eb"></circle><circle class="dot" cx="668.8264462809917" cy="302.22222222222223" r="3" fill="#2563eb"></circle><circle class="dot" cx="670.0165289256198" cy="302.22222222222223" r="3" fill="#2563eb"></circle><circle class="dot" cx="671.206611570248" cy="302.22222222222223" r="3" fill="#2563eb"></circle><circle class="dot" cx="672.396694214876" cy="302.22222222222223" r="3" fill="#2563eb"></circle><circle class="dot" cx="673.5867768595041" cy="302.22222222222223" r="3" fill="#2563eb"></circle><circle class="dot" cx="674.7768595041323" cy="302.22222222222223" r="3" fill="#2563eb"></circle><circle class="dot" cx="675.9669421487603" cy="302.22222222222223" r="3" fill="#2563eb"></circle><circle class="dot" cx="677.1570247933885" cy="302.22222222222223" r="3" fill="#2563eb"></circle><circle class="dot" cx="678.3471074380166" cy="302.22222222222223" r="3" fill="#2563eb"></circle><circle class="dot" cx="679.5371900826447" cy="302.22222222222223" r="3" fill="#2563eb"></circle><circle class="dot" cx="680.7272727272727" cy="302.22222222222223" r="3" fill="#2563eb"></circle><circle class="dot" cx="681.9173553719008" cy="302.22222222222223" r="3" fill="#2563eb"></circle><circle class="dot" cx="683.1074380165289" cy="302.22222222222223" r="3" fill="#2563eb"></circle><circle class="dot" cx="684.297520661157" cy="302.22222222222223" r="3" fill="#2563eb"></circle><circle class="dot" cx="685.4876033057851" cy="302.22222222222223" r="3" fill="#2563eb"></circle><circle class="dot" cx="686.6776859504132" cy="302.22222222222223" r="3" fill="#2563eb"></circle><circle class="dot" cx="687.8677685950413" cy="302.22222222222223" r="3" fill="#2563eb"></circle><circle class="dot" cx="689.0578512396694" cy="302.22222222222223" r="3" fill="#2563eb"></circle><circle class="dot" cx="690.2479338842976" cy="302.22222222222223" r="3" fill="#2563eb"></circle><circle class="dot" cx="691.4380165289256" cy="302.22222222222223" r="3" fill="#2563eb"></circle><circle class="dot" cx="692.6280991735538" cy="287.1111111111111" r="3" fill="#2563eb"></circle><circle class="dot" cx="693.8181818181818" cy="302.22222222222223" r="3" fill="#2563eb"></circle><circle class="dot" cx="695.00826446281" cy="264.44444444444446" r="3" fill="#2563eb"></circle><circle class="dot" cx="696.198347107438" cy="302.22222222222223" r="3" fill="#2563eb"></circle><circle class="dot" cx="697.388429752066" cy="302.22222222222223" r="3" fill="#2563eb"></circle><circle class="dot" cx="698.5785123966942" cy="302.22222222222223" r="3" fill="#2563eb"></circle><circle class="dot" cx="699.7685950413223" cy="302.22222222222223" r="3" fill="#2563eb"></circle><circle class="dot" cx="700.9586776859504" cy="302.22222222222223" r="3" fill="#2563eb"></circle><circle class="dot" cx="702.1487603305785" cy="302.22222222222223" r="3" fill="#2563eb"></circle><circle class="dot" cx="703.3388429752066" cy="302.22222222222223" r="3" fill="#2563eb"></circle><circle class="dot" cx="704.5289256198347" cy="302.22222222222223" r="3" fill="#2563eb"></circle><circle class="dot" cx="705.7190082644628" cy="302.22222222222223" r="3" fill="#2563eb"></circle><circle class="dot" cx="706.9090909090909" cy="302.22222222222223" r="3" fill="#2563eb"></circle><circle class="dot" cx="708.0991735537191" cy="302.22222222222223" r="3" fill="#2563eb"></circle><circle class="dot" cx="709.2892561983471" cy="302.22222222222223" r="3" fill="#2563eb"></circle><circle class="dot" cx="710.4793388429752" cy="302.22222222222223" r="3" fill="#2563eb"></circle><circle class="dot" cx="711.6694214876034" cy="302.22222222222223" r="3" fill="#2563eb"></circle><circle class="dot" cx="712.8595041322313" cy="302.22222222222223" r="3" fill="#2563eb"></circle><circle class="dot" cx="714.0495867768595" cy="302.22222222222223" r="3" fill="#2563eb"></circle><circle class="dot" cx="715.2396694214876" cy="302.22222222222223" r="3" fill="#2563eb"></circle><circle class="dot" cx="716.4297520661157" cy="302.22222222222223" r="3" fill="#2563eb"></circle><circle class="dot" cx="717.6198347107438" cy="302.22222222222223" r="3" fill="#2563eb"></circle><circle class="dot" cx="718.8099173553719" cy="302.22222222222223" r="3" fill="#2563eb"></circle><circle class="dot" cx="720" cy="302.22222222222223" r="3" fill="#2563eb"></circle><g class="grid" transform="translate(0,340)" fill="none" font-size="10" font-family="sans-serif" text-anchor="middle" style="stroke-dasharray: 3,3; opacity: 0.3;"><path class="domain" stroke="currentColor" d="M0.5,-340V0.5H720.5V-340"></path><g class="tick" opacity="1" transform="translate(0.5,0)"><line stroke="currentColor" y2="-340"></line><text fill="currentColor" y="3" dy="0.71em"></text></g><g class="tick" opacity="1" transform="translate(29.06198347107438,0)"><line stroke="currentColor" y2="-340"></line><text fill="currentColor" y="3" dy="0.71em"></text></g><g class="tick" opacity="1" transform="translate(57.62396694214876,0)"><line stroke="currentColor" y2="-340"></line><text fill="currentColor" y="3" dy="0.71em"></text></g><g class="tick" opacity="1" transform="translate(86.18595041322314,0)"><line stroke="currentColor" y2="-340"></line><text fill="currentColor" y="3" dy="0.71em"></text></g><g class="tick" opacity="1" transform="translate(114.74793388429752,0)"><line stroke="currentColor" y2="-340"></line><text fill="currentColor" y="3" dy="0.71em"></text></g><g class="tick" opacity="1" transform="translate(143.3099173553719,0)"><line stroke="currentColor" y2="-340"></line><text fill="currentColor" y="3" dy="0.71em"></text></g><g class="tick" opacity="1" transform="translate(171.87190082644628,0)"><line stroke="currentColor" y2="-340"></line><text fill="currentColor" y="3" dy="0.71em"></text></g><g class="tick" opacity="1" transform="translate(200.43388429752065,0)"><line stroke="currentColor" y2="-340"></line><text fill="currentColor" y="3" dy="0.71em"></text></g><g class="tick" opacity="1" transform="translate(228.99586776859505,0)"><line stroke="currentColor" y2="-340"></line><text fill="currentColor" y="3" dy="0.71em"></text></g><g class="tick" opacity="1" transform="translate(257.5578512396694,0)"><line stroke="currentColor" y2="-340"></line><text fill="currentColor" y="3" dy="0.71em"></text></g><g class="tick" opacity="1" transform="translate(286.1198347107438,0)"><line stroke="currentColor" y2="-340"></line><text fill="currentColor" y="3" dy="0.71em"></text></g><g class="tick" opacity="1" transform="translate(314.6818181818182,0)"><line stroke="currentColor" y2="-340"></line><text fill="currentColor" y="3" dy="0.71em"></text></g><g class="tick" opacity="1" transform="translate(343.24380165289256,0)"><line stroke="currentColor" y2="-340"></line><text fill="currentColor" y="3" dy="0.71em"></text></g><g class="tick" opacity="1" transform="translate(371.8057851239669,0)"><line stroke="currentColor" y2="-340"></line><text fill="currentColor" y="3" dy="0.71em"></text></g><g class="tick" opacity="1" transform="translate(400.3677685950413,0)"><line stroke="currentColor" y2="-340"></line><text fill="currentColor" y="3" dy="0.71em"></text></g><g class="tick" opacity="1" transform="translate(428.9297520661157,0)"><line stroke="currentColor" y2="-340"></line><text fill="currentColor" y="3" dy="0.71em"></text></g><g class="tick" opacity="1" transform="translate(457.4917355371901,0)"><line stroke="currentColor" y2="-340"></line><text fill="currentColor" y="3" dy="0.71em"></text></g><g class="tick" opacity="1" transform="translate(486.0537190082644,0)"><line stroke="currentColor" y2="-340"></line><text fill="currentColor" y="3" dy="0.71em"></text></g><g class="tick" opacity="1" transform="translate(514.6157024793388,0)"><line stroke="currentColor" y2="-340"></line><text fill="currentColor" y="3" dy="0.71em"></text></g><g class="tick" opacity="1" transform="translate(543.1776859504132,0)"><line stroke="currentColor" y2="-340"></line><text fill="currentColor" y="3" dy="0.71em"></text></g><g class="tick" opacity="1" transform="translate(571.7396694214876,0)"><line stroke="currentColor" y2="-340"></line><text fill="currentColor" y="3" dy="0.71em"></text></g><g class="tick" opacity="1" transform="translate(600.3016528925621,0)"><line stroke="currentColor" y2="-340"></line><text fill="currentColor" y="3" dy="0.71em"></text></g><g class="tick" opacity="1" transform="translate(628.8636363636364,0)"><line stroke="currentColor" y2="-340"></line><text fill="currentColor" y="3" dy="0.71em"></text></g><g class="tick" opacity="1" transform="translate(657.4256198347107,0)"><line stroke="currentColor" y2="-340"></line><text fill="currentColor" y="3" dy="0.71em"></text></g><g class="tick" opacity="1" transform="translate(685.9876033057851,0)"><line stroke="currentColor" y2="-340"></line><text fill="currentColor" y="3" dy="0.71em"></text></g><g class="tick" opacity="1" transform="translate(714.5495867768595,0)"><line stroke="currentColor" y2="-340"></line><text fill="currentColor" y="3" dy="0.71em"></text></g></g><g class="grid" fill="none" font-size="10" font-family="sans-serif" text-anchor="end" style="stroke-dasharray: 3,3; opacity: 0.3;"><path class="domain" stroke="currentColor" d="M720,340.5H0.5V0.5H720"></path><g class="tick" opacity="1" transform="translate(0,340.5)"><line stroke="currentColor" x2="720"></line><text fill="currentColor" x="-3" dy="0.32em"></text></g><g class="tick" opacity="1" transform="translate(0,302.72222222222223)"><line stroke="currentColor" x2="720"></line><text fill="currentColor" x="-3" dy="0.32em"></text></g><g class="tick" opacity="1" transform="translate(0,264.94444444444446)"><line stroke="currentColor" x2="720"></line><text fill="currentColor" x="-3" dy="0.32em"></text></g><g class="tick" opacity="1" transform="translate(0,227.16666666666669)"><line stroke="currentColor" x2="720"></line><text fill="currentColor" x="-3" dy="0.32em"></text></g><g class="tick" opacity="1" transform="translate(0,189.38888888888894)"><line stroke="currentColor" x2="720"></line><text fill="currentColor" x="-3" dy="0.32em"></text></g><g class="tick" opacity="1" transform="translate(0,151.61111111111114)"><line stroke="currentColor" x2="720"></line><text fill="currentColor" x="-3" dy="0.32em"></text></g><g class="tick" opacity="1" transform="translate(0,113.83333333333339)"><line stroke="currentColor" x2="720"></line><text fill="currentColor" x="-3" dy="0.32em"></text></g><g class="tick" opacity="1" transform="translate(0,76.05555555555563)"><line stroke="currentColor" x2="720"></line><text fill="currentColor" x="-3" dy="0.32em"></text></g><g class="tick" opacity="1" transform="translate(0,38.27777777777779)"><line stroke="currentColor" x2="720"></line><text fill="currentColor" x="-3" dy="0.32em"></text></g><g class="tick" opacity="1" transform="translate(0,0.5)"><line stroke="currentColor" x2="720"></line><text fill="currentColor" x="-3" dy="0.32em"></text></g></g></g><text x="400" y="10" text-anchor="middle" style="font-size: 16px; font-weight: bold; fill: #333;">OKX USDT Lending Rate - Current Month</text></svg>