<svg width="800" height="400" xmlns="http://www.w3.org/2000/svg"><g transform="translate(50,20)"><g transform="translate(0,340)" fill="none" font-size="10" font-family="sans-serif" text-anchor="middle"><path class="domain" stroke="currentColor" d="M0.5,6V0.5H720.5V6"></path><g class="tick" opacity="1" transform="translate(0.5,0)"><line stroke="currentColor" y2="6"></line><text fill="currentColor" y="9" dy=".15em" style="text-anchor: end;" dx="-.8em" transform="rotate(-45)">12/01</text></g><g class="tick" opacity="1" transform="translate(29.590909090909093,0)"><line stroke="currentColor" y2="6"></line><text fill="currentColor" y="9" dy=".15em" style="text-anchor: end;" dx="-.8em" transform="rotate(-45)">12/02</text></g><g class="tick" opacity="1" transform="translate(58.68181818181819,0)"><line stroke="currentColor" y2="6"></line><text fill="currentColor" y="9" dy=".15em" style="text-anchor: end;" dx="-.8em" transform="rotate(-45)">12/03</text></g><g class="tick" opacity="1" transform="translate(87.77272727272728,0)"><line stroke="currentColor" y2="6"></line><text fill="currentColor" y="9" dy=".15em" style="text-anchor: end;" dx="-.8em" transform="rotate(-45)">12/04</text></g><g class="tick" opacity="1" transform="translate(116.86363636363637,0)"><line stroke="currentColor" y2="6"></line><text fill="currentColor" y="9" dy=".15em" style="text-anchor: end;" dx="-.8em" transform="rotate(-45)">12/05</text></g><g class="tick" opacity="1" transform="translate(145.95454545454544,0)"><line stroke="currentColor" y2="6"></line><text fill="currentColor" y="9" dy=".15em" style="text-anchor: end;" dx="-.8em" transform="rotate(-45)">12/06</text></g><g class="tick" opacity="1" transform="translate(175.04545454545456,0)"><line stroke="currentColor" y2="6"></line><text fill="currentColor" y="9" dy=".15em" style="text-anchor: end;" dx="-.8em" transform="rotate(-45)">12/07</text></g><g class="tick" opacity="1" transform="translate(204.13636363636363,0)"><line stroke="currentColor" y2="6"></line><text fill="currentColor" y="9" dy=".15em" style="text-anchor: end;" dx="-.8em" transform="rotate(-45)">12/08</text></g><g class="tick" opacity="1" transform="translate(233.22727272727275,0)"><line stroke="currentColor" y2="6"></line><text fill="currentColor" y="9" dy=".15em" style="text-anchor: end;" dx="-.8em" transform="rotate(-45)">12/09</text></g><g class="tick" opacity="1" transform="translate(262.3181818181818,0)"><line stroke="currentColor" y2="6"></line><text fill="currentColor" y="9" dy=".15em" style="text-anchor: end;" dx="-.8em" transform="rotate(-45)">12/10</text></g><g class="tick" opacity="1" transform="translate(291.4090909090909,0)"><line stroke="currentColor" y2="6"></line><text fill="currentColor" y="9" dy=".15em" style="text-anchor: end;" dx="-.8em" transform="rotate(-45)">12/11</text></g><g class="tick" opacity="1" transform="translate(320.5,0)"><line stroke="currentColor" y2="6"></line><text fill="currentColor" y="9" dy=".15em" style="text-anchor: end;" dx="-.8em" transform="rotate(-45)">12/12</text></g><g class="tick" opacity="1" transform="translate(349.5909090909091,0)"><line stroke="currentColor" y2="6"></line><text fill="currentColor" y="9" dy=".15em" style="text-anchor: end;" dx="-.8em" transform="rotate(-45)">12/13</text></g><g class="tick" opacity="1" transform="translate(378.68181818181824,0)"><line stroke="currentColor" y2="6"></line><text fill="currentColor" y="9" dy=".15em" style="text-anchor: end;" dx="-.8em" transform="rotate(-45)">12/14</text></g><g class="tick" opacity="1" transform="translate(407.77272727272725,0)"><line stroke="currentColor" y2="6"></line><text fill="currentColor" y="9" dy=".15em" style="text-anchor: end;" dx="-.8em" transform="rotate(-45)">12/15</text></g><g class="tick" opacity="1" transform="translate(436.8636363636364,0)"><line stroke="currentColor" y2="6"></line><text fill="currentColor" y="9" dy=".15em" style="text-anchor: end;" dx="-.8em" transform="rotate(-45)">12/16</text></g><g class="tick" opacity="1" transform="translate(465.9545454545455,0)"><line stroke="currentColor" y2="6"></line><text fill="currentColor" y="9" dy=".15em" style="text-anchor: end;" dx="-.8em" transform="rotate(-45)">12/17</text></g><g class="tick" opacity="1" transform="translate(495.0454545454545,0)"><line stroke="currentColor" y2="6"></line><text fill="currentColor" y="9" dy=".15em" style="text-anchor: end;" dx="-.8em" transform="rotate(-45)">12/18</text></g><g class="tick" opacity="1" transform="translate(524.1363636363636,0)"><line stroke="currentColor" y2="6"></line><text fill="currentColor" y="9" dy=".15em" style="text-anchor: end;" dx="-.8em" transform="rotate(-45)">12/19</text></g><g class="tick" opacity="1" transform="translate(553.2272727272726,0)"><line stroke="currentColor" y2="6"></line><text fill="currentColor" y="9" dy=".15em" style="text-anchor: end;" dx="-.8em" transform="rotate(-45)">12/20</text></g><g class="tick" opacity="1" transform="translate(582.3181818181818,0)"><line stroke="currentColor" y2="6"></line><text fill="currentColor" y="9" dy=".15em" style="text-anchor: end;" dx="-.8em" transform="rotate(-45)">12/21</text></g><g class="tick" opacity="1" transform="translate(611.4090909090909,0)"><line stroke="currentColor" y2="6"></line><text fill="currentColor" y="9" dy=".15em" style="text-anchor: end;" dx="-.8em" transform="rotate(-45)">12/22</text></g><g class="tick" opacity="1" transform="translate(640.5,0)"><line stroke="currentColor" y2="6"></line><text fill="currentColor" y="9" dy=".15em" style="text-anchor: end;" dx="-.8em" transform="rotate(-45)">12/23</text></g><g class="tick" opacity="1" transform="translate(669.5909090909091,0)"><line stroke="currentColor" y2="6"></line><text fill="currentColor" y="9" dy=".15em" style="text-anchor: end;" dx="-.8em" transform="rotate(-45)">12/24</text></g><g class="tick" opacity="1" transform="translate(698.6818181818182,0)"><line stroke="currentColor" y2="6"></line><text fill="currentColor" y="9" dy=".15em" style="text-anchor: end;" dx="-.8em" transform="rotate(-45)">12/25</text></g></g><g fill="none" font-size="10" font-family="sans-serif" text-anchor="end"><path class="domain" stroke="currentColor" d="M-6,340.5H0.5V0.5H-6"></path><g class="tick" opacity="1" transform="translate(0,340.5)"><line stroke="currentColor" x2="-6"></line><text fill="currentColor" x="-9" dy="0.32em">3.20%</text></g><g class="tick" opacity="1" transform="translate(0,291.92857142857133)"><line stroke="currentColor" x2="-6"></line><text fill="currentColor" x="-9" dy="0.32em">3.25%</text></g><g class="tick" opacity="1" transform="translate(0,243.35714285714266)"><line stroke="currentColor" x2="-6"></line><text fill="currentColor" x="-9" dy="0.32em">3.30%</text></g><g class="tick" opacity="1" transform="translate(0,194.78571428571396)"><line stroke="currentColor" x2="-6"></line><text fill="currentColor" x="-9" dy="0.32em">3.35%</text></g><g class="tick" opacity="1" transform="translate(0,146.21428571428535)"><line stroke="currentColor" x2="-6"></line><text fill="currentColor" x="-9" dy="0.32em">3.40%</text></g><g class="tick" opacity="1" transform="translate(0,97.64285714285664)"><line stroke="currentColor" x2="-6"></line><text fill="currentColor" x="-9" dy="0.32em">3.45%</text></g><g class="tick" opacity="1" transform="translate(0,49.07142857142799)"><line stroke="currentColor" x2="-6"></line><text fill="currentColor" x="-9" dy="0.32em">3.50%</text></g><g class="tick" opacity="1" transform="translate(0,0.5)"><line stroke="currentColor" x2="-6"></line><text fill="currentColor" x="-9" dy="0.32em">3.55%</text></g></g><text transform="rotate(-90)" y="-50" x="-170" dy="1em" style="text-anchor: middle; font-size: 12px; fill: #666;">Pre Rate (%)</text><text transform="translate(360, 380)" style="text-anchor: middle; font-size: 12px; fill: #666;">Time (UTC)</text><path fill="none" stroke="#2563eb" stroke-width="2" d="M0,48.571C0.404,48.571,0.808,48.571,1.212,48.571C1.616,48.571,2.02,48.571,2.424,48.571C2.828,48.571,3.232,48.571,3.636,48.571C4.04,48.571,4.444,48.571,4.848,48.571C5.253,48.571,5.657,48.571,6.061,48.571C6.465,48.571,6.869,48.571,7.273,48.571C7.677,48.571,8.081,48.571,8.485,48.571C8.889,48.571,9.293,48.571,9.697,48.571C10.101,48.571,10.505,48.571,10.909,48.571C11.313,48.571,11.717,48.571,12.121,48.571C12.525,48.571,12.929,48.571,13.333,48.571C13.737,48.571,14.141,48.571,14.545,48.571C14.949,48.571,15.354,48.571,15.758,48.571C16.162,48.571,16.566,48.571,16.97,48.571C17.374,48.571,17.778,48.571,18.182,48.571C18.586,48.571,18.99,48.571,19.394,48.571C19.798,48.571,20.202,48.571,20.606,48.571C21.01,48.571,21.414,48.571,21.818,48.571C22.222,48.571,22.626,48.571,23.03,48.571C23.434,48.571,23.838,48.571,24.242,48.571C24.646,48.571,25.051,48.571,25.455,48.571C25.859,48.571,26.263,48.571,26.667,48.571C27.071,48.571,27.475,48.571,27.879,48.571C28.283,48.571,28.687,48.571,29.091,48.571C29.495,48.571,29.899,48.571,30.303,48.571C30.707,48.571,31.111,48.571,31.515,48.571C31.919,48.571,32.323,48.571,32.727,48.571C33.131,48.571,33.535,48.571,33.939,48.571C34.343,48.571,34.747,48.571,35.152,48.571C35.556,48.571,35.96,48.571,36.364,48.571C36.768,48.571,37.172,48.571,37.576,48.571C37.98,48.571,38.384,48.571,38.788,48.571C39.192,48.571,39.596,48.571,40,48.571C40.404,48.571,40.808,48.571,41.212,48.571C41.616,48.571,42.02,48.571,42.424,48.571C42.828,48.571,43.232,48.571,43.636,48.571C44.04,48.571,44.444,48.571,44.848,48.571C45.253,48.571,45.657,48.571,46.061,48.571C46.465,48.571,46.869,48.571,47.273,48.571C47.677,48.571,48.081,48.571,48.485,48.571C48.889,48.571,49.293,48.571,49.697,48.571C50.101,48.571,50.505,48.571,50.909,48.571C51.313,48.571,51.717,48.571,52.121,48.571C52.525,48.571,52.929,48.571,53.333,48.571C53.737,48.571,54.141,48.571,54.545,48.571C54.949,48.571,55.354,48.571,55.758,48.571C56.162,48.571,56.566,48.571,56.97,48.571C57.374,48.571,57.778,48.571,58.182,48.571C58.586,48.571,58.99,48.571,59.394,48.571C59.798,48.571,60.202,48.571,60.606,48.571C61.01,48.571,61.414,48.571,61.818,48.571C62.222,48.571,62.626,48.571,63.03,48.571C63.434,48.571,63.838,48.571,64.242,48.571C64.646,48.571,65.051,48.571,65.455,48.571C65.859,48.571,66.263,48.571,66.667,48.571C67.071,48.571,67.475,48.571,67.879,48.571C68.283,48.571,68.687,48.571,69.091,48.571C69.495,48.571,69.899,48.571,70.303,48.571C70.707,48.571,71.111,48.571,71.515,48.571C71.919,48.571,72.323,48.571,72.727,48.571C73.131,48.571,73.535,48.571,73.939,48.571C74.343,48.571,74.747,48.571,75.152,48.571C75.556,48.571,75.96,48.571,76.364,48.571C76.768,48.571,77.172,48.571,77.576,48.571C77.98,48.571,78.384,48.571,78.788,48.571C79.192,48.571,79.596,48.571,80,48.571C80.404,48.571,80.808,48.571,81.212,48.571C81.616,48.571,82.02,48.571,82.424,48.571C82.828,48.571,83.232,48.571,83.636,48.571C84.04,48.571,84.444,48.571,84.848,48.571C85.253,48.571,85.657,48.571,86.061,48.571C86.465,48.571,86.869,48.571,87.273,48.571C87.677,48.571,88.081,48.571,88.485,48.571C88.889,48.571,89.293,48.571,89.697,48.571C90.101,48.571,90.505,48.571,90.909,48.571C91.313,48.571,91.717,48.571,92.121,48.571C92.525,48.571,92.929,48.571,93.333,48.571C93.737,48.571,94.141,48.571,94.545,48.571C94.949,48.571,95.354,48.571,95.758,48.571C96.162,48.571,96.566,48.571,96.97,48.571C97.374,48.571,97.778,48.571,98.182,48.571C98.586,48.571,98.99,48.571,99.394,48.571C99.798,48.571,100.202,48.571,100.606,48.571C101.01,48.571,101.414,48.571,101.818,48.571C102.222,48.571,102.626,48.571,103.03,48.571C103.434,48.571,103.838,48.571,104.242,48.571C104.646,48.571,105.051,48.571,105.455,48.571C105.859,48.571,106.263,48.571,106.667,48.571C107.071,48.571,107.475,48.571,107.879,48.571C108.283,48.571,108.687,48.571,109.091,48.571C109.495,48.571,109.899,48.571,110.303,48.571C110.707,48.571,111.111,48.571,111.515,48.571C111.919,48.571,112.323,48.571,112.727,48.571C113.131,48.571,113.535,48.571,113.939,48.571C114.343,48.571,114.747,48.571,115.152,48.571C115.556,48.571,115.96,48.571,116.364,48.571C116.768,48.571,117.172,48.571,117.576,48.571C117.98,48.571,118.384,48.571,118.788,48.571C119.192,48.571,119.596,48.571,120,48.571C120.404,48.571,120.808,48.571,121.212,48.571C121.616,48.571,122.02,48.571,122.424,48.571C122.828,48.571,123.232,48.571,123.636,48.571C124.04,48.571,124.444,48.571,124.848,48.571C125.253,48.571,125.657,48.571,126.061,48.571C126.465,48.571,126.869,48.571,127.273,48.571C127.677,48.571,128.081,48.571,128.485,48.571C128.889,48.571,129.293,48.571,129.697,48.571C130.101,48.571,130.505,48.571,130.909,48.571C131.313,48.571,131.717,48.571,132.121,48.571C132.525,48.571,132.929,48.571,133.333,48.571C133.737,48.571,134.141,48.571,134.545,48.571C134.949,48.571,135.354,48.571,135.758,48.571C136.162,48.571,136.566,48.571,136.97,48.571C137.374,48.571,137.778,48.571,138.182,48.571C138.586,48.571,138.99,48.571,139.394,48.571C139.798,48.571,140.202,48.571,140.606,48.571C141.01,48.571,141.414,48.571,141.818,48.571C142.222,48.571,142.626,48.571,143.03,48.571C143.434,48.571,143.838,48.571,144.242,48.571C144.646,48.571,145.051,48.571,145.455,48.571C145.859,48.571,146.263,48.571,146.667,48.571C147.071,48.571,147.475,48.571,147.879,48.571C148.283,48.571,148.687,48.571,149.091,48.571C149.495,48.571,149.899,48.571,150.303,48.571C150.707,48.571,151.111,48.571,151.515,48.571C151.919,48.571,152.323,48.571,152.727,48.571C153.131,48.571,153.535,48.571,153.939,48.571C154.343,48.571,154.747,48.571,155.152,48.571C155.556,48.571,155.96,48.571,156.364,48.571C156.768,48.571,157.172,48.571,157.576,48.571C157.98,48.571,158.384,48.571,158.788,48.571C159.192,48.571,159.596,48.571,160,48.571C160.404,48.571,160.808,48.571,161.212,48.571C161.616,48.571,162.02,48.571,162.424,48.571C162.828,48.571,163.232,48.571,163.636,48.571C164.04,48.571,164.444,48.571,164.848,48.571C165.253,48.571,165.657,48.571,166.061,48.571C166.465,48.571,166.869,48.571,167.273,48.571C167.677,48.571,168.081,48.571,168.485,48.571C168.889,48.571,169.293,48.571,169.697,48.571C170.101,48.571,170.505,48.571,170.909,48.571C171.313,48.571,171.717,48.571,172.121,48.571C172.525,48.571,172.929,48.571,173.333,48.571C173.737,48.571,174.141,48.571,174.545,48.571C174.949,48.571,175.354,48.571,175.758,48.571C176.162,48.571,176.566,48.571,176.97,48.571C177.374,48.571,177.778,48.571,178.182,48.571C178.586,48.571,178.99,48.571,179.394,48.571C179.798,48.571,180.202,48.571,180.606,48.571C181.01,48.571,181.414,48.571,181.818,48.571C182.222,48.571,182.626,48.571,183.03,48.571C183.434,48.571,183.838,48.571,184.242,48.571C184.646,48.571,185.051,48.571,185.455,48.571C185.859,48.571,186.263,48.571,186.667,48.571C187.071,48.571,187.475,48.571,187.879,48.571C188.283,48.571,188.687,48.571,189.091,48.571C189.495,48.571,189.899,48.571,190.303,48.571C190.707,48.571,191.111,48.571,191.515,48.571C191.919,48.571,192.323,48.571,192.727,48.571C193.131,48.571,193.535,48.571,193.939,48.571C194.343,48.571,194.747,48.571,195.152,48.571C195.556,48.571,195.96,48.571,196.364,48.571C196.768,48.571,197.172,48.571,197.576,48.571C197.98,48.571,198.384,48.571,198.788,48.571C199.192,48.571,199.596,48.571,200,48.571C200.404,48.571,200.808,48.571,201.212,48.571C201.616,48.571,202.02,48.571,202.424,48.571C202.828,48.571,203.232,48.571,203.636,48.571C204.04,48.571,204.444,48.571,204.848,48.571C205.253,48.571,205.657,48.571,206.061,48.571C206.465,48.571,206.869,48.571,207.273,48.571C207.677,48.571,208.081,48.571,208.485,48.571C208.889,48.571,209.293,48.571,209.697,48.571C210.101,48.571,210.505,48.571,210.909,48.571C211.313,48.571,211.717,48.571,212.121,48.571C212.525,48.571,212.929,48.571,213.333,48.571C213.737,48.571,214.141,48.571,214.545,48.571C214.949,48.571,215.354,48.571,215.758,48.571C216.162,48.571,216.566,48.571,216.97,48.571C217.374,48.571,217.778,48.571,218.182,48.571C218.586,48.571,218.99,48.571,219.394,48.571C219.798,48.571,220.202,48.571,220.606,48.571C221.01,48.571,221.414,48.571,221.818,48.571C222.222,48.571,222.626,48.571,223.03,48.571C223.434,48.571,223.838,48.571,224.242,48.571C224.646,48.571,225.051,48.571,225.455,48.571C225.859,48.571,226.263,48.571,226.667,48.571C227.071,48.571,227.475,48.571,227.879,48.571C228.283,48.571,228.687,48.571,229.091,48.571C229.495,48.571,229.899,48.571,230.303,48.571C230.707,48.571,231.111,48.571,231.515,48.571C231.919,48.571,232.323,48.571,232.727,48.571C233.131,48.571,233.535,48.571,233.939,48.571C234.343,48.571,234.747,48.571,235.152,48.571C235.556,48.571,235.96,48.571,236.364,48.571C236.768,48.571,237.172,48.571,237.576,48.571C237.98,48.571,238.384,48.571,238.788,48.571C239.192,48.571,239.596,48.571,240,48.571C240.404,48.571,240.808,48.571,241.212,48.571C241.616,48.571,242.02,48.571,242.424,48.571C242.828,48.571,243.232,48.571,243.636,48.571C244.04,48.571,244.444,48.571,244.848,48.571C245.253,48.571,245.657,48.571,246.061,48.571C246.465,48.571,246.869,48.571,247.273,48.571C247.677,48.571,248.081,48.571,248.485,48.571C248.889,48.571,249.293,48.571,249.697,48.571C250.101,48.571,250.505,48.571,250.909,48.571C251.313,48.571,251.717,48.571,252.121,48.571C252.525,48.571,252.929,48.571,253.333,48.571C253.737,48.571,254.141,48.571,254.545,48.571C254.949,48.571,255.354,48.571,255.758,48.571C256.162,48.571,256.566,48.571,256.97,48.571C257.374,48.571,257.778,48.571,258.182,48.571C258.586,48.571,258.99,48.571,259.394,48.571C259.798,48.571,260.202,48.571,260.606,48.571C261.01,48.571,261.414,48.571,261.818,48.571C262.222,48.571,262.626,48.571,263.03,48.571C263.434,48.571,263.838,48.571,264.242,48.571C264.646,48.571,265.051,48.571,265.455,48.571C265.859,48.571,266.263,48.571,266.667,48.571C267.071,48.571,267.475,48.571,267.879,48.571C268.283,48.571,268.687,48.571,269.091,48.571C269.495,48.571,269.899,48.571,270.303,48.571C270.707,48.571,271.111,48.571,271.515,48.571C271.919,48.571,272.323,48.571,272.727,48.571C273.131,48.571,273.535,48.571,273.939,48.571C274.343,48.571,274.747,48.571,275.152,48.571C275.556,48.571,275.96,48.571,276.364,48.571C276.768,48.571,277.172,48.571,277.576,48.571C277.98,48.571,278.384,48.571,278.788,48.571C279.192,48.571,279.596,48.571,280,48.571C280.404,48.571,280.808,48.571,281.212,48.571C281.616,48.571,282.02,48.571,282.424,48.571C282.828,48.571,283.232,48.571,283.636,48.571C284.04,48.571,284.444,48.571,284.848,48.571C285.253,48.571,285.657,48.571,286.061,48.571C286.465,48.571,286.869,48.571,287.273,48.571C287.677,48.571,288.081,48.571,288.485,48.571C288.889,48.571,289.293,48.571,289.697,48.571C290.101,48.571,290.505,48.571,290.909,48.571C291.313,48.571,291.717,48.571,292.121,48.571C292.525,48.571,292.929,48.571,293.333,48.571C293.737,48.571,294.141,48.571,294.545,48.571C294.949,48.571,295.354,48.571,295.758,48.571C296.162,48.571,296.566,48.571,296.97,48.571C297.374,48.571,297.778,48.571,298.182,48.571C298.586,48.571,298.99,48.571,299.394,48.571C299.798,48.571,300.202,48.571,300.606,48.571C301.01,48.571,301.414,48.571,301.818,48.571C302.222,48.571,302.626,48.571,303.03,48.571C303.434,48.571,303.838,48.571,304.242,48.571C304.646,48.571,305.051,48.571,305.455,48.571C305.859,48.571,306.263,48.571,306.667,48.571C307.071,48.571,307.475,48.571,307.879,48.571C308.283,48.571,308.687,48.571,309.091,48.571C309.495,48.571,309.899,48.571,310.303,48.571C310.707,48.571,311.111,48.571,311.515,48.571C311.919,48.571,312.323,48.571,312.727,48.571C313.131,48.571,313.535,48.571,313.939,48.571C314.343,48.571,314.747,48.571,315.152,48.571C315.556,48.571,315.96,48.571,316.364,48.571C316.768,48.571,317.172,48.571,317.576,48.571C317.98,48.571,318.384,48.571,318.788,48.571C319.192,48.571,319.596,48.571,320,48.571C320.404,48.571,320.808,48.571,321.212,48.571C321.616,48.571,322.02,48.571,322.424,48.571C322.828,48.571,323.232,48.571,323.636,48.571C324.04,48.571,324.444,48.571,324.848,48.571C325.253,48.571,325.657,48.571,326.061,48.571C326.465,48.571,326.869,48.571,327.273,48.571C327.677,48.571,328.081,48.571,328.485,48.571C328.889,48.571,329.293,48.571,329.697,48.571C330.101,48.571,330.505,48.571,330.909,48.571C331.313,48.571,331.717,48.571,332.121,48.571C332.525,48.571,332.929,48.571,333.333,48.571C333.737,48.571,334.141,48.571,334.545,48.571C334.949,48.571,335.354,48.571,335.758,48.571C336.162,48.571,336.566,48.571,336.97,48.571C337.374,48.571,337.778,48.571,338.182,48.571C338.586,48.571,338.99,48.571,339.394,48.571C339.798,48.571,340.202,48.571,340.606,48.571C341.01,48.571,341.414,48.571,341.818,48.571C342.222,48.571,342.626,48.571,343.03,48.571C343.434,48.571,343.838,48.571,344.242,48.571C344.646,48.571,345.051,48.571,345.455,48.571C345.859,48.571,346.263,48.571,346.667,48.571C347.071,48.571,347.475,48.571,347.879,48.571C348.283,48.571,348.687,48.571,349.091,48.571C349.495,48.571,349.899,48.571,350.303,48.571C350.707,48.571,351.111,48.571,351.515,48.571C351.919,48.571,352.323,48.571,352.727,48.571C353.131,48.571,353.535,48.571,353.939,48.571C354.343,48.571,354.747,48.571,355.152,48.571C355.556,48.571,355.96,48.571,356.364,48.571C356.768,48.571,357.172,48.571,357.576,48.571C357.98,48.571,358.384,48.571,358.788,48.571C359.192,48.571,359.596,48.571,360,48.571C360.404,48.571,360.808,48.571,361.212,48.571C361.616,48.571,362.02,48.571,362.424,48.571C362.828,48.571,363.232,48.571,363.636,48.571C364.04,48.571,364.444,48.571,364.848,48.571C365.253,48.571,365.657,48.571,366.061,48.571C366.465,48.571,366.869,48.571,367.273,48.571C367.677,48.571,368.081,48.571,368.485,48.571C368.889,48.571,369.293,48.571,369.697,48.571C370.101,48.571,370.505,48.571,370.909,48.571C371.313,48.571,371.717,48.571,372.121,48.571C372.525,48.571,372.929,48.571,373.333,48.571C373.737,48.571,374.141,48.571,374.545,48.571C374.949,48.571,375.354,48.571,375.758,48.571C376.162,48.571,376.566,48.571,376.97,48.571C377.374,48.571,377.778,48.571,378.182,48.571C378.586,48.571,378.99,48.571,379.394,48.571C379.798,48.571,380.202,48.571,380.606,48.571C381.01,48.571,381.414,48.571,381.818,48.571C382.222,48.571,382.626,48.571,383.03,48.571C383.434,48.571,383.838,48.571,384.242,48.571C384.646,48.571,385.051,48.571,385.455,48.571C385.859,48.571,386.263,48.571,386.667,48.571C387.071,48.571,387.475,48.571,387.879,48.571C388.283,48.571,388.687,48.571,389.091,48.571C389.495,48.571,389.899,48.571,390.303,48.571C390.707,48.571,391.111,48.571,391.515,48.571C391.919,48.571,392.323,48.571,392.727,48.571C393.131,48.571,393.535,48.571,393.939,48.571C394.343,48.571,394.747,48.571,395.152,48.571C395.556,48.571,395.96,48.571,396.364,48.571C396.768,48.571,397.172,48.571,397.576,48.571C397.98,48.571,398.384,48.571,398.788,48.571C399.192,48.571,399.596,48.571,400,48.571C400.404,48.571,400.808,48.571,401.212,48.571C401.616,48.571,402.02,48.571,402.424,48.571C402.828,48.571,403.232,48.571,403.636,48.571C404.04,48.571,404.444,48.571,404.848,48.571C405.253,48.571,405.657,48.571,406.061,48.571C406.465,48.571,406.869,48.571,407.273,48.571C407.677,48.571,408.081,48.571,408.485,48.571C408.889,48.571,409.293,48.571,409.697,48.571C410.101,48.571,410.505,48.571,410.909,48.571C411.313,48.571,411.717,48.571,412.121,48.571C412.525,48.571,412.929,48.571,413.333,48.571C413.737,48.571,414.141,48.571,414.545,48.571C414.949,48.571,415.354,48.571,415.758,48.571C416.162,48.571,416.566,48.571,416.97,48.571C417.374,48.571,417.778,48.571,418.182,48.571C418.586,48.571,418.99,48.571,419.394,48.571C419.798,48.571,420.202,48.571,420.606,48.571C421.01,48.571,421.414,48.571,421.818,48.571C422.222,48.571,422.626,48.571,423.03,48.571C423.434,48.571,423.838,48.571,424.242,48.571C424.646,48.571,425.051,48.571,425.455,48.571C425.859,48.571,426.263,48.571,426.667,48.571C427.071,48.571,427.475,48.571,427.879,48.571C428.283,48.571,428.687,48.571,429.091,48.571C429.495,48.571,429.899,48.571,430.303,48.571C430.707,48.571,431.111,48.571,431.515,48.571C431.919,48.571,432.323,48.571,432.727,48.571C433.131,48.571,433.535,48.571,433.939,48.571C434.343,48.571,434.747,48.571,435.152,48.571C435.556,48.571,435.96,48.571,436.364,48.571C436.768,48.571,437.172,48.571,437.576,48.571C437.98,48.571,438.384,48.571,438.788,48.571C439.192,48.571,439.596,48.571,440,48.571C440.404,48.571,440.808,48.571,441.212,48.571C441.616,48.571,442.02,48.571,442.424,48.571C442.828,48.571,443.232,48.571,443.636,48.571C444.04,48.571,444.444,48.571,444.848,48.571C445.253,48.571,445.657,48.571,446.061,48.571C446.465,48.571,446.869,48.571,447.273,48.571C447.677,48.571,448.081,48.571,448.485,48.571C448.889,48.571,449.293,48.571,449.697,48.571C450.101,48.571,450.505,48.571,450.909,48.571C451.313,48.571,451.717,48.571,452.121,48.571C452.525,48.571,452.929,48.571,453.333,48.571C453.737,48.571,454.141,48.571,454.545,48.571C454.949,48.571,455.354,48.571,455.758,48.571C456.162,48.571,456.566,48.571,456.97,48.571C457.374,48.571,457.778,48.571,458.182,48.571C458.586,48.571,458.99,48.571,459.394,48.571C459.798,48.571,460.202,48.571,460.606,48.571C461.01,48.571,461.414,48.571,461.818,48.571C462.222,48.571,462.626,48.571,463.03,48.571C463.434,48.571,463.838,48.571,464.242,48.571C464.646,48.571,465.051,48.571,465.455,48.571C465.859,48.571,466.263,48.571,466.667,48.571C467.071,48.571,467.475,48.571,467.879,48.571C468.283,48.571,468.687,48.571,469.091,48.571C469.495,48.571,469.899,48.571,470.303,48.571C470.707,48.571,471.111,48.571,471.515,48.571C471.919,48.571,472.323,48.571,472.727,48.571C473.131,48.571,473.535,48.571,473.939,48.571C474.343,48.571,474.747,48.571,475.152,48.571C475.556,48.571,475.96,48.571,476.364,48.571C476.768,48.571,477.172,48.571,477.576,48.571C477.98,48.571,478.384,48.571,478.788,48.571C479.192,48.571,479.596,48.571,480,48.571C480.404,48.571,480.808,48.571,481.212,48.571C481.616,48.571,482.02,48.571,482.424,48.571C482.828,48.571,483.232,48.571,483.636,48.571C484.04,48.571,484.444,48.571,484.848,48.571C485.253,48.571,485.657,48.571,486.061,48.571C486.465,48.571,486.869,48.571,487.273,48.571C487.677,48.571,488.081,48.571,488.485,48.571C488.889,48.571,489.293,48.571,489.697,48.571C490.101,48.571,490.505,48.571,490.909,48.571C491.313,48.571,491.717,48.571,492.121,48.571C492.525,48.571,492.929,48.571,493.333,48.571C493.737,48.571,494.141,48.571,494.545,48.571C494.949,48.571,495.354,48.571,495.758,48.571C496.162,48.571,496.566,48.571,496.97,48.571C497.374,48.571,497.778,48.571,498.182,48.571C498.586,48.571,498.99,48.571,499.394,48.571C499.798,48.571,500.202,48.571,500.606,48.571C501.01,48.571,501.414,48.571,501.818,48.571C502.222,48.571,502.626,48.571,503.03,48.571C503.434,48.571,503.838,340,504.242,340C504.646,340,505.051,340,505.455,340C505.859,340,506.263,340,506.667,340C507.071,340,507.475,340,507.879,340C508.283,340,508.687,340,509.091,340C509.495,340,509.899,340,510.303,340C510.707,340,511.111,340,511.515,340C511.919,340,512.323,340,512.727,340C513.131,340,513.535,340,513.939,340C514.343,340,514.747,340,515.152,340C515.556,340,515.96,340,516.364,340C516.768,340,517.172,340,517.576,340C517.98,340,518.384,340,518.788,340C519.192,340,519.596,340,520,340C520.404,340,520.808,340,521.212,340C521.616,340,522.02,340,522.424,340C522.828,340,523.232,340,523.636,340C524.04,340,524.444,340,524.848,340C525.253,340,525.657,340,526.061,340C526.465,340,526.869,340,527.273,340C527.677,340,528.081,340,528.485,340C528.889,340,529.293,340,529.697,340C530.101,340,530.505,340,530.909,340C531.313,340,531.717,340,532.121,340C532.525,340,532.929,340,533.333,340C533.737,340,534.141,340,534.545,340C534.949,340,535.354,340,535.758,340C536.162,340,536.566,340,536.97,340C537.374,340,537.778,340,538.182,340C538.586,340,538.99,340,539.394,340C539.798,340,540.202,340,540.606,340C541.01,340,541.414,340,541.818,340C542.222,340,542.626,340,543.03,340C543.434,340,543.838,340,544.242,340C544.646,340,545.051,340,545.455,340C545.859,340,546.263,340,546.667,340C547.071,340,547.475,340,547.879,340C548.283,340,548.687,340,549.091,340C549.495,340,549.899,340,550.303,340C550.707,340,551.111,340,551.515,340C551.919,340,552.323,340,552.727,340C553.131,340,553.535,340,553.939,340C554.343,340,554.747,340,555.152,340C555.556,340,555.96,340,556.364,340C556.768,340,557.172,340,557.576,340C557.98,340,558.384,340,558.788,340C559.192,340,559.596,340,560,340C560.404,340,560.808,340,561.212,340C561.616,340,562.02,340,562.424,340C562.828,340,563.232,340,563.636,340C564.04,340,564.444,340,564.848,340C565.253,340,565.657,340,566.061,340C566.465,340,566.869,340,567.273,340C567.677,340,568.081,340,568.485,340C568.889,340,569.293,340,569.697,340C570.101,340,570.505,340,570.909,340C571.313,340,571.717,340,572.121,340C572.525,340,572.929,340,573.333,340C573.737,340,574.141,340,574.545,340C574.949,340,575.354,340,575.758,340C576.162,340,576.566,340,576.97,340C577.374,340,577.778,340,578.182,340C578.586,340,578.99,340,579.394,340C579.798,340,580.202,340,580.606,340C581.01,340,581.414,340,581.818,340C582.222,340,582.626,340,583.03,340C583.434,340,583.838,340,584.242,340C584.646,340,585.051,340,585.455,340C585.859,340,586.263,340,586.667,340C587.071,340,587.475,340,587.879,340C588.283,340,588.687,340,589.091,340C589.495,340,589.899,340,590.303,340C590.707,340,591.111,340,591.515,340C591.919,340,592.323,340,592.727,340C593.131,340,593.535,340,593.939,340C594.343,340,594.747,340,595.152,340C595.556,340,595.96,340,596.364,340C596.768,340,597.172,340,597.576,340C597.98,340,598.384,340,598.788,340C599.192,340,599.596,340,600,340C600.404,340,600.808,340,601.212,340C601.616,340,602.02,340,602.424,340C602.828,340,603.232,340,603.636,340C604.04,340,604.444,340,604.848,340C605.253,340,605.657,340,606.061,340C606.465,340,606.869,340,607.273,340C607.677,340,608.081,340,608.485,340C608.889,340,609.293,340,609.697,340C610.101,340,610.505,340,610.909,340C611.313,340,611.717,340,612.121,340C612.525,340,612.929,340,613.333,340C613.737,340,614.141,340,614.545,340C614.949,340,615.354,340,615.758,340C616.162,340,616.566,340,616.97,340C617.374,340,617.778,340,618.182,340C618.586,340,618.99,340,619.394,340C619.798,340,620.202,340,620.606,340C621.01,340,621.414,340,621.818,340C622.222,340,622.626,340,623.03,340C623.434,340,623.838,340,624.242,340C624.646,340,625.051,340,625.455,340C625.859,340,626.263,340,626.667,340C627.071,340,627.475,340,627.879,340C628.283,340,628.687,340,629.091,340C629.495,340,629.899,340,630.303,340C630.707,340,631.111,340,631.515,340C631.919,340,632.323,340,632.727,340C633.131,340,633.535,340,633.939,340C634.343,340,634.747,340,635.152,340C635.556,340,635.96,340,636.364,340C636.768,340,637.172,340,637.576,340C637.98,340,638.384,340,638.788,340C639.192,340,639.596,340,640,340C640.404,340,640.808,340,641.212,340C641.616,340,642.02,340,642.424,340C642.828,340,643.232,340,643.636,340C644.04,340,644.444,340,644.848,340C645.253,340,645.657,340,646.061,340C646.465,340,646.869,340,647.273,340C647.677,340,648.081,340,648.485,340C648.889,340,649.293,340,649.697,340C650.101,340,650.505,340,650.909,340C651.313,340,651.717,340,652.121,340C652.525,340,652.929,340,653.333,340C653.737,340,654.141,340,654.545,340C654.949,340,655.354,340,655.758,340C656.162,340,656.566,340,656.97,340C657.374,340,657.778,340,658.182,340C658.586,340,658.99,340,659.394,340C659.798,340,660.202,340,660.606,340C661.01,340,661.414,340,661.818,340C662.222,340,662.626,340,663.03,340C663.434,340,663.838,340,664.242,340C664.646,340,665.051,340,665.455,340C665.859,340,666.263,340,666.667,340C667.071,340,667.475,340,667.879,340C668.283,340,668.687,340,669.091,340C669.495,340,669.899,340,670.303,340C670.707,340,671.111,340,671.515,340C671.919,340,672.323,340,672.727,340C673.131,340,673.535,340,673.939,340C674.343,340,674.747,340,675.152,340C675.556,340,675.96,340,676.364,340C676.768,340,677.172,340,677.576,340C677.98,340,678.384,340,678.788,340C679.192,340,679.596,340,680,340C680.404,340,680.808,340,681.212,340C681.616,340,682.02,340,682.424,340C682.828,340,683.232,340,683.636,340C684.04,340,684.444,340,684.848,340C685.253,340,685.657,340,686.061,340C686.465,340,686.869,340,687.273,340C687.677,340,688.081,340,688.485,340C688.889,340,689.293,340,689.697,340C690.101,340,690.505,340,690.909,340C691.313,340,691.717,340,692.121,340C692.525,340,692.929,340,693.333,340C693.737,340,694.141,340,694.545,340C694.949,340,695.354,340,695.758,340C696.162,340,696.566,340,696.97,340C697.374,340,697.778,340,698.182,340C698.586,340,698.99,340,699.394,340C699.798,340,700.202,340,700.606,340C701.01,340,701.414,340,701.818,340C702.222,340,702.626,340,703.03,340C703.434,340,703.838,340,704.242,340C704.646,340,705.051,340,705.455,340C705.859,340,706.263,340,706.667,340C707.071,340,707.475,340,707.879,340C708.283,340,708.687,340,709.091,340C709.495,340,709.899,340,710.303,340C710.707,340,711.111,340,711.515,340C711.919,340,712.323,340,712.727,340C713.131,340,713.535,340,713.939,340C714.343,340,714.747,340,715.152,340C715.556,340,715.96,340,716.364,340C716.768,340,717.172,340,717.576,340C717.98,340,718.384,340,718.788,340C719.192,340,719.596,340,720,340"></path><circle class="dot" cx="0" cy="48.57142857142799" r="3" fill="#2563eb"></circle><circle class="dot" cx="1.2121212121212122" cy="48.57142857142799" r="3" fill="#2563eb"></circle><circle class="dot" cx="2.4242424242424243" cy="48.57142857142799" r="3" fill="#2563eb"></circle><circle class="dot" cx="3.6363636363636367" cy="48.57142857142799" r="3" fill="#2563eb"></circle><circle class="dot" cx="4.848484848484849" cy="48.57142857142799" r="3" fill="#2563eb"></circle><circle class="dot" cx="6.0606060606060606" cy="48.57142857142799" r="3" fill="#2563eb"></circle><circle class="dot" cx="7.272727272727273" cy="48.57142857142799" r="3" fill="#2563eb"></circle><circle class="dot" cx="8.484848484848484" cy="48.57142857142799" r="3" fill="#2563eb"></circle><circle class="dot" cx="9.696969696969697" cy="48.57142857142799" r="3" fill="#2563eb"></circle><circle class="dot" cx="10.90909090909091" cy="48.57142857142799" r="3" fill="#2563eb"></circle><circle class="dot" cx="12.121212121212121" cy="48.57142857142799" r="3" fill="#2563eb"></circle><circle class="dot" cx="13.333333333333332" cy="48.57142857142799" r="3" fill="#2563eb"></circle><circle class="dot" cx="14.545454545454547" cy="48.57142857142799" r="3" fill="#2563eb"></circle><circle class="dot" cx="15.757575757575758" cy="48.57142857142799" r="3" fill="#2563eb"></circle><circle class="dot" cx="16.96969696969697" cy="48.57142857142799" r="3" fill="#2563eb"></circle><circle class="dot" cx="18.18181818181818" cy="48.57142857142799" r="3" fill="#2563eb"></circle><circle class="dot" cx="19.393939393939394" cy="48.57142857142799" r="3" fill="#2563eb"></circle><circle class="dot" cx="20.606060606060606" cy="48.57142857142799" r="3" fill="#2563eb"></circle><circle class="dot" cx="21.81818181818182" cy="48.57142857142799" r="3" fill="#2563eb"></circle><circle class="dot" cx="23.03030303030303" cy="48.57142857142799" r="3" fill="#2563eb"></circle><circle class="dot" cx="24.242424242424242" cy="48.57142857142799" r="3" fill="#2563eb"></circle><circle class="dot" cx="25.454545454545453" cy="48.57142857142799" r="3" fill="#2563eb"></circle><circle class="dot" cx="26.666666666666664" cy="48.57142857142799" r="3" fill="#2563eb"></circle><circle class="dot" cx="27.878787878787875" cy="48.57142857142799" r="3" fill="#2563eb"></circle><circle class="dot" cx="29.090909090909093" cy="48.57142857142799" r="3" fill="#2563eb"></circle><circle class="dot" cx="30.303030303030305" cy="48.57142857142799" r="3" fill="#2563eb"></circle><circle class="dot" cx="31.515151515151516" cy="48.57142857142799" r="3" fill="#2563eb"></circle><circle class="dot" cx="32.72727272727273" cy="48.57142857142799" r="3" fill="#2563eb"></circle><circle class="dot" cx="33.93939393939394" cy="48.57142857142799" r="3" fill="#2563eb"></circle><circle class="dot" cx="35.15151515151515" cy="48.57142857142799" r="3" fill="#2563eb"></circle><circle class="dot" cx="36.36363636363636" cy="48.57142857142799" r="3" fill="#2563eb"></circle><circle class="dot" cx="37.57575757575758" cy="48.57142857142799" r="3" fill="#2563eb"></circle><circle class="dot" cx="38.78787878787879" cy="48.57142857142799" r="3" fill="#2563eb"></circle><circle class="dot" cx="40" cy="48.57142857142799" r="3" fill="#2563eb"></circle><circle class="dot" cx="41.21212121212121" cy="48.57142857142799" r="3" fill="#2563eb"></circle><circle class="dot" cx="42.42424242424243" cy="48.57142857142799" r="3" fill="#2563eb"></circle><circle class="dot" cx="43.63636363636364" cy="48.57142857142799" r="3" fill="#2563eb"></circle><circle class="dot" cx="44.84848484848485" cy="48.57142857142799" r="3" fill="#2563eb"></circle><circle class="dot" cx="46.06060606060606" cy="48.57142857142799" r="3" fill="#2563eb"></circle><circle class="dot" cx="47.27272727272728" cy="48.57142857142799" r="3" fill="#2563eb"></circle><circle class="dot" cx="48.484848484848484" cy="48.57142857142799" r="3" fill="#2563eb"></circle><circle class="dot" cx="49.6969696969697" cy="48.57142857142799" r="3" fill="#2563eb"></circle><circle class="dot" cx="50.90909090909091" cy="48.57142857142799" r="3" fill="#2563eb"></circle><circle class="dot" cx="52.121212121212125" cy="48.57142857142799" r="3" fill="#2563eb"></circle><circle class="dot" cx="53.33333333333333" cy="48.57142857142799" r="3" fill="#2563eb"></circle><circle class="dot" cx="54.54545454545455" cy="48.57142857142799" r="3" fill="#2563eb"></circle><circle class="dot" cx="55.75757575757575" cy="48.57142857142799" r="3" fill="#2563eb"></circle><circle class="dot" cx="56.96969696969697" cy="48.57142857142799" r="3" fill="#2563eb"></circle><circle class="dot" cx="58.18181818181819" cy="48.57142857142799" r="3" fill="#2563eb"></circle><circle class="dot" cx="59.39393939393939" cy="48.57142857142799" r="3" fill="#2563eb"></circle><circle class="dot" cx="60.60606060606061" cy="48.57142857142799" r="3" fill="#2563eb"></circle><circle class="dot" cx="61.81818181818181" cy="48.57142857142799" r="3" fill="#2563eb"></circle><circle class="dot" cx="63.03030303030303" cy="48.57142857142799" r="3" fill="#2563eb"></circle><circle class="dot" cx="64.24242424242424" cy="48.57142857142799" r="3" fill="#2563eb"></circle><circle class="dot" cx="65.45454545454545" cy="48.57142857142799" r="3" fill="#2563eb"></circle><circle class="dot" cx="66.66666666666666" cy="48.57142857142799" r="3" fill="#2563eb"></circle><circle class="dot" cx="67.87878787878788" cy="48.57142857142799" r="3" fill="#2563eb"></circle><circle class="dot" cx="69.09090909090908" cy="48.57142857142799" r="3" fill="#2563eb"></circle><circle class="dot" cx="70.3030303030303" cy="48.57142857142799" r="3" fill="#2563eb"></circle><circle class="dot" cx="71.51515151515152" cy="48.57142857142799" r="3" fill="#2563eb"></circle><circle class="dot" cx="72.72727272727272" cy="48.57142857142799" r="3" fill="#2563eb"></circle><circle class="dot" cx="73.93939393939394" cy="48.57142857142799" r="3" fill="#2563eb"></circle><circle class="dot" cx="75.15151515151516" cy="48.57142857142799" r="3" fill="#2563eb"></circle><circle class="dot" cx="76.36363636363636" cy="48.57142857142799" r="3" fill="#2563eb"></circle><circle class="dot" cx="77.57575757575758" cy="48.57142857142799" r="3" fill="#2563eb"></circle><circle class="dot" cx="78.78787878787878" cy="48.57142857142799" r="3" fill="#2563eb"></circle><circle class="dot" cx="80" cy="48.57142857142799" r="3" fill="#2563eb"></circle><circle class="dot" cx="81.21212121212122" cy="48.57142857142799" r="3" fill="#2563eb"></circle><circle class="dot" cx="82.42424242424242" cy="48.57142857142799" r="3" fill="#2563eb"></circle><circle class="dot" cx="83.63636363636364" cy="48.57142857142799" r="3" fill="#2563eb"></circle><circle class="dot" cx="84.84848484848486" cy="48.57142857142799" r="3" fill="#2563eb"></circle><circle class="dot" cx="86.06060606060606" cy="48.57142857142799" r="3" fill="#2563eb"></circle><circle class="dot" cx="87.27272727272728" cy="48.57142857142799" r="3" fill="#2563eb"></circle><circle class="dot" cx="88.48484848484848" cy="48.57142857142799" r="3" fill="#2563eb"></circle><circle class="dot" cx="89.6969696969697" cy="48.57142857142799" r="3" fill="#2563eb"></circle><circle class="dot" cx="90.90909090909092" cy="48.57142857142799" r="3" fill="#2563eb"></circle><circle class="dot" cx="92.12121212121212" cy="48.57142857142799" r="3" fill="#2563eb"></circle><circle class="dot" cx="93.33333333333333" cy="48.57142857142799" r="3" fill="#2563eb"></circle><circle class="dot" cx="94.54545454545456" cy="48.57142857142799" r="3" fill="#2563eb"></circle><circle class="dot" cx="95.75757575757576" cy="48.57142857142799" r="3" fill="#2563eb"></circle><circle class="dot" cx="96.96969696969697" cy="48.57142857142799" r="3" fill="#2563eb"></circle><circle class="dot" cx="98.18181818181817" cy="48.57142857142799" r="3" fill="#2563eb"></circle><circle class="dot" cx="99.3939393939394" cy="48.57142857142799" r="3" fill="#2563eb"></circle><circle class="dot" cx="100.60606060606061" cy="48.57142857142799" r="3" fill="#2563eb"></circle><circle class="dot" cx="101.81818181818181" cy="48.57142857142799" r="3" fill="#2563eb"></circle><circle class="dot" cx="103.03030303030302" cy="48.57142857142799" r="3" fill="#2563eb"></circle><circle class="dot" cx="104.24242424242425" cy="48.57142857142799" r="3" fill="#2563eb"></circle><circle class="dot" cx="105.45454545454545" cy="48.57142857142799" r="3" fill="#2563eb"></circle><circle class="dot" cx="106.66666666666666" cy="48.57142857142799" r="3" fill="#2563eb"></circle><circle class="dot" cx="107.87878787878789" cy="48.57142857142799" r="3" fill="#2563eb"></circle><circle class="dot" cx="109.0909090909091" cy="48.57142857142799" r="3" fill="#2563eb"></circle><circle class="dot" cx="110.3030303030303" cy="48.57142857142799" r="3" fill="#2563eb"></circle><circle class="dot" cx="111.5151515151515" cy="48.57142857142799" r="3" fill="#2563eb"></circle><circle class="dot" cx="112.72727272727273" cy="48.57142857142799" r="3" fill="#2563eb"></circle><circle class="dot" cx="113.93939393939394" cy="48.57142857142799" r="3" fill="#2563eb"></circle><circle class="dot" cx="115.15151515151514" cy="48.57142857142799" r="3" fill="#2563eb"></circle><circle class="dot" cx="116.36363636363637" cy="48.57142857142799" r="3" fill="#2563eb"></circle><circle class="dot" cx="117.57575757575758" cy="48.57142857142799" r="3" fill="#2563eb"></circle><circle class="dot" cx="118.78787878787878" cy="48.57142857142799" r="3" fill="#2563eb"></circle><circle class="dot" cx="120" cy="48.57142857142799" r="3" fill="#2563eb"></circle><circle class="dot" cx="121.21212121212122" cy="48.57142857142799" r="3" fill="#2563eb"></circle><circle class="dot" cx="122.42424242424242" cy="48.57142857142799" r="3" fill="#2563eb"></circle><circle class="dot" cx="123.63636363636363" cy="48.57142857142799" r="3" fill="#2563eb"></circle><circle class="dot" cx="124.84848484848484" cy="48.57142857142799" r="3" fill="#2563eb"></circle><circle class="dot" cx="126.06060606060606" cy="48.57142857142799" r="3" fill="#2563eb"></circle><circle class="dot" cx="127.27272727272727" cy="48.57142857142799" r="3" fill="#2563eb"></circle><circle class="dot" cx="128.48484848484847" cy="48.57142857142799" r="3" fill="#2563eb"></circle><circle class="dot" cx="129.69696969696972" cy="48.57142857142799" r="3" fill="#2563eb"></circle><circle class="dot" cx="130.9090909090909" cy="48.57142857142799" r="3" fill="#2563eb"></circle><circle class="dot" cx="132.12121212121212" cy="48.57142857142799" r="3" fill="#2563eb"></circle><circle class="dot" cx="133.33333333333331" cy="48.57142857142799" r="3" fill="#2563eb"></circle><circle class="dot" cx="134.54545454545456" cy="48.57142857142799" r="3" fill="#2563eb"></circle><circle class="dot" cx="135.75757575757575" cy="48.57142857142799" r="3" fill="#2563eb"></circle><circle class="dot" cx="136.96969696969697" cy="48.57142857142799" r="3" fill="#2563eb"></circle><circle class="dot" cx="138.18181818181816" cy="48.57142857142799" r="3" fill="#2563eb"></circle><circle class="dot" cx="139.3939393939394" cy="48.57142857142799" r="3" fill="#2563eb"></circle><circle class="dot" cx="140.6060606060606" cy="48.57142857142799" r="3" fill="#2563eb"></circle><circle class="dot" cx="141.8181818181818" cy="48.57142857142799" r="3" fill="#2563eb"></circle><circle class="dot" cx="143.03030303030303" cy="48.57142857142799" r="3" fill="#2563eb"></circle><circle class="dot" cx="144.24242424242425" cy="48.57142857142799" r="3" fill="#2563eb"></circle><circle class="dot" cx="145.45454545454544" cy="48.57142857142799" r="3" fill="#2563eb"></circle><circle class="dot" cx="146.66666666666666" cy="48.57142857142799" r="3" fill="#2563eb"></circle><circle class="dot" cx="147.87878787878788" cy="48.57142857142799" r="3" fill="#2563eb"></circle><circle class="dot" cx="149.0909090909091" cy="48.57142857142799" r="3" fill="#2563eb"></circle><circle class="dot" cx="150.3030303030303" cy="48.57142857142799" r="3" fill="#2563eb"></circle><circle class="dot" cx="151.51515151515153" cy="48.57142857142799" r="3" fill="#2563eb"></circle><circle class="dot" cx="152.72727272727272" cy="48.57142857142799" r="3" fill="#2563eb"></circle><circle class="dot" cx="153.93939393939394" cy="48.57142857142799" r="3" fill="#2563eb"></circle><circle class="dot" cx="155.15151515151516" cy="48.57142857142799" r="3" fill="#2563eb"></circle><circle class="dot" cx="156.36363636363637" cy="48.57142857142799" r="3" fill="#2563eb"></circle><circle class="dot" cx="157.57575757575756" cy="48.57142857142799" r="3" fill="#2563eb"></circle><circle class="dot" cx="158.78787878787878" cy="48.57142857142799" r="3" fill="#2563eb"></circle><circle class="dot" cx="160" cy="48.57142857142799" r="3" fill="#2563eb"></circle><circle class="dot" cx="161.21212121212122" cy="48.57142857142799" r="3" fill="#2563eb"></circle><circle class="dot" cx="162.42424242424244" cy="48.57142857142799" r="3" fill="#2563eb"></circle><circle class="dot" cx="163.63636363636363" cy="48.57142857142799" r="3" fill="#2563eb"></circle><circle class="dot" cx="164.84848484848484" cy="48.57142857142799" r="3" fill="#2563eb"></circle><circle class="dot" cx="166.06060606060606" cy="48.57142857142799" r="3" fill="#2563eb"></circle><circle class="dot" cx="167.27272727272728" cy="48.57142857142799" r="3" fill="#2563eb"></circle><circle class="dot" cx="168.48484848484847" cy="48.57142857142799" r="3" fill="#2563eb"></circle><circle class="dot" cx="169.69696969696972" cy="48.57142857142799" r="3" fill="#2563eb"></circle><circle class="dot" cx="170.9090909090909" cy="48.57142857142799" r="3" fill="#2563eb"></circle><circle class="dot" cx="172.12121212121212" cy="48.57142857142799" r="3" fill="#2563eb"></circle><circle class="dot" cx="173.33333333333331" cy="48.57142857142799" r="3" fill="#2563eb"></circle><circle class="dot" cx="174.54545454545456" cy="48.57142857142799" r="3" fill="#2563eb"></circle><circle class="dot" cx="175.75757575757575" cy="48.57142857142799" r="3" fill="#2563eb"></circle><circle class="dot" cx="176.96969696969697" cy="48.57142857142799" r="3" fill="#2563eb"></circle><circle class="dot" cx="178.1818181818182" cy="48.57142857142799" r="3" fill="#2563eb"></circle><circle class="dot" cx="179.3939393939394" cy="48.57142857142799" r="3" fill="#2563eb"></circle><circle class="dot" cx="180.60606060606062" cy="48.57142857142799" r="3" fill="#2563eb"></circle><circle class="dot" cx="181.81818181818184" cy="48.57142857142799" r="3" fill="#2563eb"></circle><circle class="dot" cx="183.03030303030303" cy="48.57142857142799" r="3" fill="#2563eb"></circle><circle class="dot" cx="184.24242424242425" cy="48.57142857142799" r="3" fill="#2563eb"></circle><circle class="dot" cx="185.45454545454544" cy="48.57142857142799" r="3" fill="#2563eb"></circle><circle class="dot" cx="186.66666666666666" cy="48.57142857142799" r="3" fill="#2563eb"></circle><circle class="dot" cx="187.87878787878788" cy="48.57142857142799" r="3" fill="#2563eb"></circle><circle class="dot" cx="189.09090909090912" cy="48.57142857142799" r="3" fill="#2563eb"></circle><circle class="dot" cx="190.3030303030303" cy="48.57142857142799" r="3" fill="#2563eb"></circle><circle class="dot" cx="191.51515151515153" cy="48.57142857142799" r="3" fill="#2563eb"></circle><circle class="dot" cx="192.72727272727272" cy="48.57142857142799" r="3" fill="#2563eb"></circle><circle class="dot" cx="193.93939393939394" cy="48.57142857142799" r="3" fill="#2563eb"></circle><circle class="dot" cx="195.15151515151516" cy="48.57142857142799" r="3" fill="#2563eb"></circle><circle class="dot" cx="196.36363636363635" cy="48.57142857142799" r="3" fill="#2563eb"></circle><circle class="dot" cx="197.5757575757576" cy="48.57142857142799" r="3" fill="#2563eb"></circle><circle class="dot" cx="198.7878787878788" cy="48.57142857142799" r="3" fill="#2563eb"></circle><circle class="dot" cx="200" cy="48.57142857142799" r="3" fill="#2563eb"></circle><circle class="dot" cx="201.21212121212122" cy="48.57142857142799" r="3" fill="#2563eb"></circle><circle class="dot" cx="202.42424242424244" cy="48.57142857142799" r="3" fill="#2563eb"></circle><circle class="dot" cx="203.63636363636363" cy="48.57142857142799" r="3" fill="#2563eb"></circle><circle class="dot" cx="204.84848484848484" cy="48.57142857142799" r="3" fill="#2563eb"></circle><circle class="dot" cx="206.06060606060603" cy="48.57142857142799" r="3" fill="#2563eb"></circle><circle class="dot" cx="207.27272727272728" cy="48.57142857142799" r="3" fill="#2563eb"></circle><circle class="dot" cx="208.4848484848485" cy="48.57142857142799" r="3" fill="#2563eb"></circle><circle class="dot" cx="209.6969696969697" cy="48.57142857142799" r="3" fill="#2563eb"></circle><circle class="dot" cx="210.9090909090909" cy="48.57142857142799" r="3" fill="#2563eb"></circle><circle class="dot" cx="212.12121212121212" cy="48.57142857142799" r="3" fill="#2563eb"></circle><circle class="dot" cx="213.33333333333331" cy="48.57142857142799" r="3" fill="#2563eb"></circle><circle class="dot" cx="214.54545454545453" cy="48.57142857142799" r="3" fill="#2563eb"></circle><circle class="dot" cx="215.75757575757578" cy="48.57142857142799" r="3" fill="#2563eb"></circle><circle class="dot" cx="216.96969696969697" cy="48.57142857142799" r="3" fill="#2563eb"></circle><circle class="dot" cx="218.1818181818182" cy="48.57142857142799" r="3" fill="#2563eb"></circle><circle class="dot" cx="219.3939393939394" cy="48.57142857142799" r="3" fill="#2563eb"></circle><circle class="dot" cx="220.6060606060606" cy="48.57142857142799" r="3" fill="#2563eb"></circle><circle class="dot" cx="221.8181818181818" cy="48.57142857142799" r="3" fill="#2563eb"></circle><circle class="dot" cx="223.030303030303" cy="48.57142857142799" r="3" fill="#2563eb"></circle><circle class="dot" cx="224.24242424242425" cy="48.57142857142799" r="3" fill="#2563eb"></circle><circle class="dot" cx="225.45454545454547" cy="48.57142857142799" r="3" fill="#2563eb"></circle><circle class="dot" cx="226.66666666666669" cy="48.57142857142799" r="3" fill="#2563eb"></circle><circle class="dot" cx="227.87878787878788" cy="48.57142857142799" r="3" fill="#2563eb"></circle><circle class="dot" cx="229.0909090909091" cy="48.57142857142799" r="3" fill="#2563eb"></circle><circle class="dot" cx="230.30303030303028" cy="48.57142857142799" r="3" fill="#2563eb"></circle><circle class="dot" cx="231.5151515151515" cy="48.57142857142799" r="3" fill="#2563eb"></circle><circle class="dot" cx="232.72727272727275" cy="48.57142857142799" r="3" fill="#2563eb"></circle><circle class="dot" cx="233.93939393939397" cy="48.57142857142799" r="3" fill="#2563eb"></circle><circle class="dot" cx="235.15151515151516" cy="48.57142857142799" r="3" fill="#2563eb"></circle><circle class="dot" cx="236.36363636363637" cy="48.57142857142799" r="3" fill="#2563eb"></circle><circle class="dot" cx="237.57575757575756" cy="48.57142857142799" r="3" fill="#2563eb"></circle><circle class="dot" cx="238.78787878787878" cy="48.57142857142799" r="3" fill="#2563eb"></circle><circle class="dot" cx="240" cy="48.57142857142799" r="3" fill="#2563eb"></circle><circle class="dot" cx="241.2121212121212" cy="48.57142857142799" r="3" fill="#2563eb"></circle><circle class="dot" cx="242.42424242424244" cy="48.57142857142799" r="3" fill="#2563eb"></circle><circle class="dot" cx="243.63636363636365" cy="48.57142857142799" r="3" fill="#2563eb"></circle><circle class="dot" cx="244.84848484848484" cy="48.57142857142799" r="3" fill="#2563eb"></circle><circle class="dot" cx="246.06060606060606" cy="48.57142857142799" r="3" fill="#2563eb"></circle><circle class="dot" cx="247.27272727272725" cy="48.57142857142799" r="3" fill="#2563eb"></circle><circle class="dot" cx="248.48484848484847" cy="48.57142857142799" r="3" fill="#2563eb"></circle><circle class="dot" cx="249.6969696969697" cy="48.57142857142799" r="3" fill="#2563eb"></circle><circle class="dot" cx="250.90909090909093" cy="48.57142857142799" r="3" fill="#2563eb"></circle><circle class="dot" cx="252.12121212121212" cy="48.57142857142799" r="3" fill="#2563eb"></circle><circle class="dot" cx="253.33333333333334" cy="48.57142857142799" r="3" fill="#2563eb"></circle><circle class="dot" cx="254.54545454545453" cy="48.57142857142799" r="3" fill="#2563eb"></circle><circle class="dot" cx="255.75757575757575" cy="48.57142857142799" r="3" fill="#2563eb"></circle><circle class="dot" cx="256.96969696969694" cy="48.57142857142799" r="3" fill="#2563eb"></circle><circle class="dot" cx="258.1818181818182" cy="48.57142857142799" r="3" fill="#2563eb"></circle><circle class="dot" cx="259.39393939393943" cy="48.57142857142799" r="3" fill="#2563eb"></circle><circle class="dot" cx="260.6060606060606" cy="48.57142857142799" r="3" fill="#2563eb"></circle><circle class="dot" cx="261.8181818181818" cy="48.57142857142799" r="3" fill="#2563eb"></circle><circle class="dot" cx="263.03030303030306" cy="48.57142857142799" r="3" fill="#2563eb"></circle><circle class="dot" cx="264.24242424242425" cy="48.57142857142799" r="3" fill="#2563eb"></circle><circle class="dot" cx="265.45454545454544" cy="48.57142857142799" r="3" fill="#2563eb"></circle><circle class="dot" cx="266.66666666666663" cy="48.57142857142799" r="3" fill="#2563eb"></circle><circle class="dot" cx="267.8787878787879" cy="48.57142857142799" r="3" fill="#2563eb"></circle><circle class="dot" cx="269.0909090909091" cy="48.57142857142799" r="3" fill="#2563eb"></circle><circle class="dot" cx="270.3030303030303" cy="48.57142857142799" r="3" fill="#2563eb"></circle><circle class="dot" cx="271.5151515151515" cy="48.57142857142799" r="3" fill="#2563eb"></circle><circle class="dot" cx="272.72727272727275" cy="48.57142857142799" r="3" fill="#2563eb"></circle><circle class="dot" cx="273.93939393939394" cy="48.57142857142799" r="3" fill="#2563eb"></circle><circle class="dot" cx="275.1515151515151" cy="48.57142857142799" r="3" fill="#2563eb"></circle><circle class="dot" cx="276.3636363636363" cy="48.57142857142799" r="3" fill="#2563eb"></circle><circle class="dot" cx="277.57575757575756" cy="48.57142857142799" r="3" fill="#2563eb"></circle><circle class="dot" cx="278.7878787878788" cy="48.57142857142799" r="3" fill="#2563eb"></circle><circle class="dot" cx="280" cy="48.57142857142799" r="3" fill="#2563eb"></circle><circle class="dot" cx="281.2121212121212" cy="48.57142857142799" r="3" fill="#2563eb"></circle><circle class="dot" cx="282.42424242424244" cy="48.57142857142799" r="3" fill="#2563eb"></circle><circle class="dot" cx="283.6363636363636" cy="48.57142857142799" r="3" fill="#2563eb"></circle><circle class="dot" cx="284.8484848484848" cy="48.57142857142799" r="3" fill="#2563eb"></circle><circle class="dot" cx="286.06060606060606" cy="48.57142857142799" r="3" fill="#2563eb"></circle><circle class="dot" cx="287.2727272727273" cy="48.57142857142799" r="3" fill="#2563eb"></circle><circle class="dot" cx="288.4848484848485" cy="48.57142857142799" r="3" fill="#2563eb"></circle><circle class="dot" cx="289.6969696969697" cy="48.57142857142799" r="3" fill="#2563eb"></circle><circle class="dot" cx="290.9090909090909" cy="48.57142857142799" r="3" fill="#2563eb"></circle><circle class="dot" cx="292.1212121212121" cy="48.57142857142799" r="3" fill="#2563eb"></circle><circle class="dot" cx="293.3333333333333" cy="48.57142857142799" r="3" fill="#2563eb"></circle><circle class="dot" cx="294.54545454545456" cy="48.57142857142799" r="3" fill="#2563eb"></circle><circle class="dot" cx="295.75757575757575" cy="48.57142857142799" r="3" fill="#2563eb"></circle><circle class="dot" cx="296.969696969697" cy="48.57142857142799" r="3" fill="#2563eb"></circle><circle class="dot" cx="298.1818181818182" cy="48.57142857142799" r="3" fill="#2563eb"></circle><circle class="dot" cx="299.3939393939394" cy="48.57142857142799" r="3" fill="#2563eb"></circle><circle class="dot" cx="300.6060606060606" cy="48.57142857142799" r="3" fill="#2563eb"></circle><circle class="dot" cx="301.8181818181818" cy="48.57142857142799" r="3" fill="#2563eb"></circle><circle class="dot" cx="303.03030303030306" cy="48.57142857142799" r="3" fill="#2563eb"></circle><circle class="dot" cx="304.24242424242425" cy="48.57142857142799" r="3" fill="#2563eb"></circle><circle class="dot" cx="305.45454545454544" cy="48.57142857142799" r="3" fill="#2563eb"></circle><circle class="dot" cx="306.6666666666667" cy="48.57142857142799" r="3" fill="#2563eb"></circle><circle class="dot" cx="307.8787878787879" cy="48.57142857142799" r="3" fill="#2563eb"></circle><circle class="dot" cx="309.09090909090907" cy="48.57142857142799" r="3" fill="#2563eb"></circle><circle class="dot" cx="310.3030303030303" cy="48.57142857142799" r="3" fill="#2563eb"></circle><circle class="dot" cx="311.5151515151515" cy="48.57142857142799" r="3" fill="#2563eb"></circle><circle class="dot" cx="312.72727272727275" cy="48.57142857142799" r="3" fill="#2563eb"></circle><circle class="dot" cx="313.93939393939394" cy="48.57142857142799" r="3" fill="#2563eb"></circle><circle class="dot" cx="315.1515151515151" cy="48.57142857142799" r="3" fill="#2563eb"></circle><circle class="dot" cx="316.3636363636364" cy="48.57142857142799" r="3" fill="#2563eb"></circle><circle class="dot" cx="317.57575757575756" cy="48.57142857142799" r="3" fill="#2563eb"></circle><circle class="dot" cx="318.78787878787875" cy="48.57142857142799" r="3" fill="#2563eb"></circle><circle class="dot" cx="320" cy="48.57142857142799" r="3" fill="#2563eb"></circle><circle class="dot" cx="321.21212121212125" cy="48.57142857142799" r="3" fill="#2563eb"></circle><circle class="dot" cx="322.42424242424244" cy="48.57142857142799" r="3" fill="#2563eb"></circle><circle class="dot" cx="323.6363636363636" cy="48.57142857142799" r="3" fill="#2563eb"></circle><circle class="dot" cx="324.8484848484849" cy="48.57142857142799" r="3" fill="#2563eb"></circle><circle class="dot" cx="326.06060606060606" cy="48.57142857142799" r="3" fill="#2563eb"></circle><circle class="dot" cx="327.27272727272725" cy="48.57142857142799" r="3" fill="#2563eb"></circle><circle class="dot" cx="328.48484848484844" cy="48.57142857142799" r="3" fill="#2563eb"></circle><circle class="dot" cx="329.6969696969697" cy="48.57142857142799" r="3" fill="#2563eb"></circle><circle class="dot" cx="330.90909090909093" cy="48.57142857142799" r="3" fill="#2563eb"></circle><circle class="dot" cx="332.1212121212121" cy="48.57142857142799" r="3" fill="#2563eb"></circle><circle class="dot" cx="333.3333333333333" cy="48.57142857142799" r="3" fill="#2563eb"></circle><circle class="dot" cx="334.54545454545456" cy="48.57142857142799" r="3" fill="#2563eb"></circle><circle class="dot" cx="335.75757575757575" cy="48.57142857142799" r="3" fill="#2563eb"></circle><circle class="dot" cx="336.96969696969694" cy="48.57142857142799" r="3" fill="#2563eb"></circle><circle class="dot" cx="338.1818181818182" cy="48.57142857142799" r="3" fill="#2563eb"></circle><circle class="dot" cx="339.39393939393943" cy="48.57142857142799" r="3" fill="#2563eb"></circle><circle class="dot" cx="340.6060606060606" cy="48.57142857142799" r="3" fill="#2563eb"></circle><circle class="dot" cx="341.8181818181818" cy="48.57142857142799" r="3" fill="#2563eb"></circle><circle class="dot" cx="343.030303030303" cy="48.57142857142799" r="3" fill="#2563eb"></circle><circle class="dot" cx="344.24242424242425" cy="48.57142857142799" r="3" fill="#2563eb"></circle><circle class="dot" cx="345.45454545454544" cy="48.57142857142799" r="3" fill="#2563eb"></circle><circle class="dot" cx="346.66666666666663" cy="48.57142857142799" r="3" fill="#2563eb"></circle><circle class="dot" cx="347.8787878787879" cy="48.57142857142799" r="3" fill="#2563eb"></circle><circle class="dot" cx="349.0909090909091" cy="48.57142857142799" r="3" fill="#2563eb"></circle><circle class="dot" cx="350.3030303030303" cy="48.57142857142799" r="3" fill="#2563eb"></circle><circle class="dot" cx="351.5151515151515" cy="48.57142857142799" r="3" fill="#2563eb"></circle><circle class="dot" cx="352.72727272727275" cy="48.57142857142799" r="3" fill="#2563eb"></circle><circle class="dot" cx="353.93939393939394" cy="48.57142857142799" r="3" fill="#2563eb"></circle><circle class="dot" cx="355.1515151515151" cy="48.57142857142799" r="3" fill="#2563eb"></circle><circle class="dot" cx="356.3636363636364" cy="48.57142857142799" r="3" fill="#2563eb"></circle><circle class="dot" cx="357.57575757575756" cy="48.57142857142799" r="3" fill="#2563eb"></circle><circle class="dot" cx="358.7878787878788" cy="48.57142857142799" r="3" fill="#2563eb"></circle><circle class="dot" cx="360" cy="48.57142857142799" r="3" fill="#2563eb"></circle><circle class="dot" cx="361.21212121212125" cy="48.57142857142799" r="3" fill="#2563eb"></circle><circle class="dot" cx="362.42424242424244" cy="48.57142857142799" r="3" fill="#2563eb"></circle><circle class="dot" cx="363.6363636363637" cy="48.57142857142799" r="3" fill="#2563eb"></circle><circle class="dot" cx="364.8484848484848" cy="48.57142857142799" r="3" fill="#2563eb"></circle><circle class="dot" cx="366.06060606060606" cy="48.57142857142799" r="3" fill="#2563eb"></circle><circle class="dot" cx="367.27272727272725" cy="48.57142857142799" r="3" fill="#2563eb"></circle><circle class="dot" cx="368.4848484848485" cy="48.57142857142799" r="3" fill="#2563eb"></circle><circle class="dot" cx="369.69696969696975" cy="48.57142857142799" r="3" fill="#2563eb"></circle><circle class="dot" cx="370.9090909090909" cy="48.57142857142799" r="3" fill="#2563eb"></circle><circle class="dot" cx="372.1212121212121" cy="48.57142857142799" r="3" fill="#2563eb"></circle><circle class="dot" cx="373.3333333333333" cy="48.57142857142799" r="3" fill="#2563eb"></circle><circle class="dot" cx="374.54545454545456" cy="48.57142857142799" r="3" fill="#2563eb"></circle><circle class="dot" cx="375.75757575757575" cy="48.57142857142799" r="3" fill="#2563eb"></circle><circle class="dot" cx="376.969696969697" cy="48.57142857142799" r="3" fill="#2563eb"></circle><circle class="dot" cx="378.18181818181824" cy="48.57142857142799" r="3" fill="#2563eb"></circle><circle class="dot" cx="379.3939393939394" cy="48.57142857142799" r="3" fill="#2563eb"></circle><circle class="dot" cx="380.6060606060606" cy="48.57142857142799" r="3" fill="#2563eb"></circle><circle class="dot" cx="381.8181818181818" cy="48.57142857142799" r="3" fill="#2563eb"></circle><circle class="dot" cx="383.03030303030306" cy="48.57142857142799" r="3" fill="#2563eb"></circle><circle class="dot" cx="384.2424242424242" cy="48.57142857142799" r="3" fill="#2563eb"></circle><circle class="dot" cx="385.45454545454544" cy="48.57142857142799" r="3" fill="#2563eb"></circle><circle class="dot" cx="386.6666666666667" cy="48.57142857142799" r="3" fill="#2563eb"></circle><circle class="dot" cx="387.8787878787879" cy="48.57142857142799" r="3" fill="#2563eb"></circle><circle class="dot" cx="389.0909090909091" cy="48.57142857142799" r="3" fill="#2563eb"></circle><circle class="dot" cx="390.3030303030303" cy="48.57142857142799" r="3" fill="#2563eb"></circle><circle class="dot" cx="391.51515151515156" cy="48.57142857142799" r="3" fill="#2563eb"></circle><circle class="dot" cx="392.7272727272727" cy="48.57142857142799" r="3" fill="#2563eb"></circle><circle class="dot" cx="393.93939393939394" cy="48.57142857142799" r="3" fill="#2563eb"></circle><circle class="dot" cx="395.1515151515152" cy="48.57142857142799" r="3" fill="#2563eb"></circle><circle class="dot" cx="396.3636363636364" cy="48.57142857142799" r="3" fill="#2563eb"></circle><circle class="dot" cx="397.5757575757576" cy="48.57142857142799" r="3" fill="#2563eb"></circle><circle class="dot" cx="398.78787878787875" cy="48.57142857142799" r="3" fill="#2563eb"></circle><circle class="dot" cx="400" cy="48.57142857142799" r="3" fill="#2563eb"></circle><circle class="dot" cx="401.2121212121212" cy="48.57142857142799" r="3" fill="#2563eb"></circle><circle class="dot" cx="402.42424242424244" cy="48.57142857142799" r="3" fill="#2563eb"></circle><circle class="dot" cx="403.6363636363636" cy="48.57142857142799" r="3" fill="#2563eb"></circle><circle class="dot" cx="404.8484848484849" cy="48.57142857142799" r="3" fill="#2563eb"></circle><circle class="dot" cx="406.0606060606061" cy="48.57142857142799" r="3" fill="#2563eb"></circle><circle class="dot" cx="407.27272727272725" cy="48.57142857142799" r="3" fill="#2563eb"></circle><circle class="dot" cx="408.4848484848485" cy="48.57142857142799" r="3" fill="#2563eb"></circle><circle class="dot" cx="409.6969696969697" cy="48.57142857142799" r="3" fill="#2563eb"></circle><circle class="dot" cx="410.90909090909093" cy="48.57142857142799" r="3" fill="#2563eb"></circle><circle class="dot" cx="412.12121212121207" cy="48.57142857142799" r="3" fill="#2563eb"></circle><circle class="dot" cx="413.3333333333333" cy="48.57142857142799" r="3" fill="#2563eb"></circle><circle class="dot" cx="414.54545454545456" cy="48.57142857142799" r="3" fill="#2563eb"></circle><circle class="dot" cx="415.75757575757575" cy="48.57142857142799" r="3" fill="#2563eb"></circle><circle class="dot" cx="416.969696969697" cy="48.57142857142799" r="3" fill="#2563eb"></circle><circle class="dot" cx="418.18181818181813" cy="48.57142857142799" r="3" fill="#2563eb"></circle><circle class="dot" cx="419.3939393939394" cy="48.57142857142799" r="3" fill="#2563eb"></circle><circle class="dot" cx="420.60606060606057" cy="48.57142857142799" r="3" fill="#2563eb"></circle><circle class="dot" cx="421.8181818181818" cy="48.57142857142799" r="3" fill="#2563eb"></circle><circle class="dot" cx="423.03030303030306" cy="48.57142857142799" r="3" fill="#2563eb"></circle><circle class="dot" cx="424.24242424242425" cy="48.57142857142799" r="3" fill="#2563eb"></circle><circle class="dot" cx="425.4545454545455" cy="48.57142857142799" r="3" fill="#2563eb"></circle><circle class="dot" cx="426.66666666666663" cy="48.57142857142799" r="3" fill="#2563eb"></circle><circle class="dot" cx="427.8787878787879" cy="48.57142857142799" r="3" fill="#2563eb"></circle><circle class="dot" cx="429.09090909090907" cy="48.57142857142799" r="3" fill="#2563eb"></circle><circle class="dot" cx="430.3030303030303" cy="48.57142857142799" r="3" fill="#2563eb"></circle><circle class="dot" cx="431.51515151515156" cy="48.57142857142799" r="3" fill="#2563eb"></circle><circle class="dot" cx="432.7272727272727" cy="48.57142857142799" r="3" fill="#2563eb"></circle><circle class="dot" cx="433.93939393939394" cy="48.57142857142799" r="3" fill="#2563eb"></circle><circle class="dot" cx="435.1515151515151" cy="48.57142857142799" r="3" fill="#2563eb"></circle><circle class="dot" cx="436.3636363636364" cy="48.57142857142799" r="3" fill="#2563eb"></circle><circle class="dot" cx="437.57575757575756" cy="48.57142857142799" r="3" fill="#2563eb"></circle><circle class="dot" cx="438.7878787878788" cy="48.57142857142799" r="3" fill="#2563eb"></circle><circle class="dot" cx="440.00000000000006" cy="48.57142857142799" r="3" fill="#2563eb"></circle><circle class="dot" cx="441.2121212121212" cy="48.57142857142799" r="3" fill="#2563eb"></circle><circle class="dot" cx="442.42424242424244" cy="48.57142857142799" r="3" fill="#2563eb"></circle><circle class="dot" cx="443.6363636363636" cy="48.57142857142799" r="3" fill="#2563eb"></circle><circle class="dot" cx="444.8484848484849" cy="48.57142857142799" r="3" fill="#2563eb"></circle><circle class="dot" cx="446.060606060606" cy="48.57142857142799" r="3" fill="#2563eb"></circle><circle class="dot" cx="447.27272727272725" cy="48.57142857142799" r="3" fill="#2563eb"></circle><circle class="dot" cx="448.4848484848485" cy="48.57142857142799" r="3" fill="#2563eb"></circle><circle class="dot" cx="449.6969696969697" cy="48.57142857142799" r="3" fill="#2563eb"></circle><circle class="dot" cx="450.90909090909093" cy="48.57142857142799" r="3" fill="#2563eb"></circle><circle class="dot" cx="452.1212121212121" cy="48.57142857142799" r="3" fill="#2563eb"></circle><circle class="dot" cx="453.33333333333337" cy="48.57142857142799" r="3" fill="#2563eb"></circle><circle class="dot" cx="454.5454545454545" cy="48.57142857142799" r="3" fill="#2563eb"></circle><circle class="dot" cx="455.75757575757575" cy="48.57142857142799" r="3" fill="#2563eb"></circle><circle class="dot" cx="456.969696969697" cy="48.57142857142799" r="3" fill="#2563eb"></circle><circle class="dot" cx="458.1818181818182" cy="48.57142857142799" r="3" fill="#2563eb"></circle><circle class="dot" cx="459.39393939393943" cy="48.57142857142799" r="3" fill="#2563eb"></circle><circle class="dot" cx="460.60606060606057" cy="48.57142857142799" r="3" fill="#2563eb"></circle><circle class="dot" cx="461.8181818181818" cy="48.57142857142799" r="3" fill="#2563eb"></circle><circle class="dot" cx="463.030303030303" cy="48.57142857142799" r="3" fill="#2563eb"></circle><circle class="dot" cx="464.24242424242425" cy="48.57142857142799" r="3" fill="#2563eb"></circle><circle class="dot" cx="465.4545454545455" cy="48.57142857142799" r="3" fill="#2563eb"></circle><circle class="dot" cx="466.6666666666667" cy="48.57142857142799" r="3" fill="#2563eb"></circle><circle class="dot" cx="467.87878787878793" cy="48.57142857142799" r="3" fill="#2563eb"></circle><circle class="dot" cx="469.09090909090907" cy="48.57142857142799" r="3" fill="#2563eb"></circle><circle class="dot" cx="470.3030303030303" cy="48.57142857142799" r="3" fill="#2563eb"></circle><circle class="dot" cx="471.5151515151515" cy="48.57142857142799" r="3" fill="#2563eb"></circle><circle class="dot" cx="472.72727272727275" cy="48.57142857142799" r="3" fill="#2563eb"></circle><circle class="dot" cx="473.9393939393939" cy="48.57142857142799" r="3" fill="#2563eb"></circle><circle class="dot" cx="475.1515151515151" cy="48.57142857142799" r="3" fill="#2563eb"></circle><circle class="dot" cx="476.3636363636364" cy="48.57142857142799" r="3" fill="#2563eb"></circle><circle class="dot" cx="477.57575757575756" cy="48.57142857142799" r="3" fill="#2563eb"></circle><circle class="dot" cx="478.7878787878788" cy="48.57142857142799" r="3" fill="#2563eb"></circle><circle class="dot" cx="480" cy="48.57142857142799" r="3" fill="#2563eb"></circle><circle class="dot" cx="481.21212121212125" cy="48.57142857142799" r="3" fill="#2563eb"></circle><circle class="dot" cx="482.4242424242424" cy="48.57142857142799" r="3" fill="#2563eb"></circle><circle class="dot" cx="483.6363636363636" cy="48.57142857142799" r="3" fill="#2563eb"></circle><circle class="dot" cx="484.8484848484849" cy="48.57142857142799" r="3" fill="#2563eb"></circle><circle class="dot" cx="486.06060606060606" cy="48.57142857142799" r="3" fill="#2563eb"></circle><circle class="dot" cx="487.2727272727273" cy="48.57142857142799" r="3" fill="#2563eb"></circle><circle class="dot" cx="488.48484848484844" cy="48.57142857142799" r="3" fill="#2563eb"></circle><circle class="dot" cx="489.6969696969697" cy="48.57142857142799" r="3" fill="#2563eb"></circle><circle class="dot" cx="490.9090909090909" cy="48.57142857142799" r="3" fill="#2563eb"></circle><circle class="dot" cx="492.1212121212121" cy="48.57142857142799" r="3" fill="#2563eb"></circle><circle class="dot" cx="493.33333333333337" cy="48.57142857142799" r="3" fill="#2563eb"></circle><circle class="dot" cx="494.5454545454545" cy="48.57142857142799" r="3" fill="#2563eb"></circle><circle class="dot" cx="495.75757575757575" cy="48.57142857142799" r="3" fill="#2563eb"></circle><circle class="dot" cx="496.96969696969694" cy="48.57142857142799" r="3" fill="#2563eb"></circle><circle class="dot" cx="498.1818181818182" cy="48.57142857142799" r="3" fill="#2563eb"></circle><circle class="dot" cx="499.3939393939394" cy="48.57142857142799" r="3" fill="#2563eb"></circle><circle class="dot" cx="500.6060606060606" cy="48.57142857142799" r="3" fill="#2563eb"></circle><circle class="dot" cx="501.81818181818187" cy="48.57142857142799" r="3" fill="#2563eb"></circle><circle class="dot" cx="503.030303030303" cy="48.57142857142799" r="3" fill="#2563eb"></circle><circle class="dot" cx="504.24242424242425" cy="340" r="3" fill="#2563eb"></circle><circle class="dot" cx="505.45454545454544" cy="340" r="3" fill="#2563eb"></circle><circle class="dot" cx="506.6666666666667" cy="340" r="3" fill="#2563eb"></circle><circle class="dot" cx="507.8787878787878" cy="340" r="3" fill="#2563eb"></circle><circle class="dot" cx="509.09090909090907" cy="340" r="3" fill="#2563eb"></circle><circle class="dot" cx="510.3030303030303" cy="340" r="3" fill="#2563eb"></circle><circle class="dot" cx="511.5151515151515" cy="340" r="3" fill="#2563eb"></circle><circle class="dot" cx="512.7272727272727" cy="340" r="3" fill="#2563eb"></circle><circle class="dot" cx="513.9393939393939" cy="340" r="3" fill="#2563eb"></circle><circle class="dot" cx="515.1515151515151" cy="340" r="3" fill="#2563eb"></circle><circle class="dot" cx="516.3636363636364" cy="340" r="3" fill="#2563eb"></circle><circle class="dot" cx="517.5757575757576" cy="340" r="3" fill="#2563eb"></circle><circle class="dot" cx="518.7878787878789" cy="340" r="3" fill="#2563eb"></circle><circle class="dot" cx="520" cy="340" r="3" fill="#2563eb"></circle><circle class="dot" cx="521.2121212121212" cy="340" r="3" fill="#2563eb"></circle><circle class="dot" cx="522.4242424242424" cy="340" r="3" fill="#2563eb"></circle><circle class="dot" cx="523.6363636363636" cy="340" r="3" fill="#2563eb"></circle><circle class="dot" cx="524.8484848484849" cy="340" r="3" fill="#2563eb"></circle><circle class="dot" cx="526.0606060606061" cy="340" r="3" fill="#2563eb"></circle><circle class="dot" cx="527.2727272727274" cy="340" r="3" fill="#2563eb"></circle><circle class="dot" cx="528.4848484848485" cy="340" r="3" fill="#2563eb"></circle><circle class="dot" cx="529.6969696969697" cy="340" r="3" fill="#2563eb"></circle><circle class="dot" cx="530.9090909090909" cy="340" r="3" fill="#2563eb"></circle><circle class="dot" cx="532.1212121212121" cy="340" r="3" fill="#2563eb"></circle><circle class="dot" cx="533.3333333333333" cy="340" r="3" fill="#2563eb"></circle><circle class="dot" cx="534.5454545454545" cy="340" r="3" fill="#2563eb"></circle><circle class="dot" cx="535.7575757575758" cy="340" r="3" fill="#2563eb"></circle><circle class="dot" cx="536.969696969697" cy="340" r="3" fill="#2563eb"></circle><circle class="dot" cx="538.1818181818182" cy="340" r="3" fill="#2563eb"></circle><circle class="dot" cx="539.3939393939394" cy="340" r="3" fill="#2563eb"></circle><circle class="dot" cx="540.6060606060606" cy="340" r="3" fill="#2563eb"></circle><circle class="dot" cx="541.8181818181818" cy="340" r="3" fill="#2563eb"></circle><circle class="dot" cx="543.030303030303" cy="340" r="3" fill="#2563eb"></circle><circle class="dot" cx="544.2424242424242" cy="340" r="3" fill="#2563eb"></circle><circle class="dot" cx="545.4545454545455" cy="340" r="3" fill="#2563eb"></circle><circle class="dot" cx="546.6666666666667" cy="340" r="3" fill="#2563eb"></circle><circle class="dot" cx="547.8787878787879" cy="340" r="3" fill="#2563eb"></circle><circle class="dot" cx="549.0909090909091" cy="340" r="3" fill="#2563eb"></circle><circle class="dot" cx="550.3030303030303" cy="340" r="3" fill="#2563eb"></circle><circle class="dot" cx="551.5151515151515" cy="340" r="3" fill="#2563eb"></circle><circle class="dot" cx="552.7272727272726" cy="340" r="3" fill="#2563eb"></circle><circle class="dot" cx="553.9393939393939" cy="340" r="3" fill="#2563eb"></circle><circle class="dot" cx="555.1515151515151" cy="340" r="3" fill="#2563eb"></circle><circle class="dot" cx="556.3636363636364" cy="340" r="3" fill="#2563eb"></circle><circle class="dot" cx="557.5757575757576" cy="340" r="3" fill="#2563eb"></circle><circle class="dot" cx="558.7878787878788" cy="340" r="3" fill="#2563eb"></circle><circle class="dot" cx="560" cy="340" r="3" fill="#2563eb"></circle><circle class="dot" cx="561.2121212121211" cy="340" r="3" fill="#2563eb"></circle><circle class="dot" cx="562.4242424242424" cy="340" r="3" fill="#2563eb"></circle><circle class="dot" cx="563.6363636363636" cy="340" r="3" fill="#2563eb"></circle><circle class="dot" cx="564.8484848484849" cy="340" r="3" fill="#2563eb"></circle><circle class="dot" cx="566.0606060606061" cy="340" r="3" fill="#2563eb"></circle><circle class="dot" cx="567.2727272727273" cy="340" r="3" fill="#2563eb"></circle><circle class="dot" cx="568.4848484848485" cy="340" r="3" fill="#2563eb"></circle><circle class="dot" cx="569.6969696969696" cy="340" r="3" fill="#2563eb"></circle><circle class="dot" cx="570.9090909090909" cy="340" r="3" fill="#2563eb"></circle><circle class="dot" cx="572.1212121212121" cy="340" r="3" fill="#2563eb"></circle><circle class="dot" cx="573.3333333333334" cy="340" r="3" fill="#2563eb"></circle><circle class="dot" cx="574.5454545454546" cy="340" r="3" fill="#2563eb"></circle><circle class="dot" cx="575.7575757575758" cy="340" r="3" fill="#2563eb"></circle><circle class="dot" cx="576.969696969697" cy="340" r="3" fill="#2563eb"></circle><circle class="dot" cx="578.1818181818181" cy="340" r="3" fill="#2563eb"></circle><circle class="dot" cx="579.3939393939394" cy="340" r="3" fill="#2563eb"></circle><circle class="dot" cx="580.6060606060606" cy="340" r="3" fill="#2563eb"></circle><circle class="dot" cx="581.8181818181818" cy="340" r="3" fill="#2563eb"></circle><circle class="dot" cx="583.030303030303" cy="340" r="3" fill="#2563eb"></circle><circle class="dot" cx="584.2424242424242" cy="340" r="3" fill="#2563eb"></circle><circle class="dot" cx="585.4545454545455" cy="340" r="3" fill="#2563eb"></circle><circle class="dot" cx="586.6666666666666" cy="340" r="3" fill="#2563eb"></circle><circle class="dot" cx="587.8787878787879" cy="340" r="3" fill="#2563eb"></circle><circle class="dot" cx="589.0909090909091" cy="340" r="3" fill="#2563eb"></circle><circle class="dot" cx="590.3030303030303" cy="340" r="3" fill="#2563eb"></circle><circle class="dot" cx="591.5151515151515" cy="340" r="3" fill="#2563eb"></circle><circle class="dot" cx="592.7272727272727" cy="340" r="3" fill="#2563eb"></circle><circle class="dot" cx="593.939393939394" cy="340" r="3" fill="#2563eb"></circle><circle class="dot" cx="595.1515151515151" cy="340" r="3" fill="#2563eb"></circle><circle class="dot" cx="596.3636363636364" cy="340" r="3" fill="#2563eb"></circle><circle class="dot" cx="597.5757575757576" cy="340" r="3" fill="#2563eb"></circle><circle class="dot" cx="598.7878787878788" cy="340" r="3" fill="#2563eb"></circle><circle class="dot" cx="600" cy="340" r="3" fill="#2563eb"></circle><circle class="dot" cx="601.2121212121212" cy="340" r="3" fill="#2563eb"></circle><circle class="dot" cx="602.4242424242425" cy="340" r="3" fill="#2563eb"></circle><circle class="dot" cx="603.6363636363636" cy="340" r="3" fill="#2563eb"></circle><circle class="dot" cx="604.8484848484849" cy="340" r="3" fill="#2563eb"></circle><circle class="dot" cx="606.0606060606061" cy="340" r="3" fill="#2563eb"></circle><circle class="dot" cx="607.2727272727273" cy="340" r="3" fill="#2563eb"></circle><circle class="dot" cx="608.4848484848485" cy="340" r="3" fill="#2563eb"></circle><circle class="dot" cx="609.6969696969696" cy="340" r="3" fill="#2563eb"></circle><circle class="dot" cx="610.9090909090909" cy="340" r="3" fill="#2563eb"></circle><circle class="dot" cx="612.1212121212121" cy="340" r="3" fill="#2563eb"></circle><circle class="dot" cx="613.3333333333334" cy="340" r="3" fill="#2563eb"></circle><circle class="dot" cx="614.5454545454545" cy="340" r="3" fill="#2563eb"></circle><circle class="dot" cx="615.7575757575758" cy="340" r="3" fill="#2563eb"></circle><circle class="dot" cx="616.969696969697" cy="340" r="3" fill="#2563eb"></circle><circle class="dot" cx="618.1818181818181" cy="340" r="3" fill="#2563eb"></circle><circle class="dot" cx="619.3939393939394" cy="340" r="3" fill="#2563eb"></circle><circle class="dot" cx="620.6060606060606" cy="340" r="3" fill="#2563eb"></circle><circle class="dot" cx="621.8181818181819" cy="340" r="3" fill="#2563eb"></circle><circle class="dot" cx="623.030303030303" cy="340" r="3" fill="#2563eb"></circle><circle class="dot" cx="624.2424242424242" cy="340" r="3" fill="#2563eb"></circle><circle class="dot" cx="625.4545454545455" cy="340" r="3" fill="#2563eb"></circle><circle class="dot" cx="626.6666666666666" cy="340" r="3" fill="#2563eb"></circle><circle class="dot" cx="627.8787878787879" cy="340" r="3" fill="#2563eb"></circle><circle class="dot" cx="629.090909090909" cy="340" r="3" fill="#2563eb"></circle><circle class="dot" cx="630.3030303030303" cy="340" r="3" fill="#2563eb"></circle><circle class="dot" cx="631.5151515151515" cy="340" r="3" fill="#2563eb"></circle><circle class="dot" cx="632.7272727272727" cy="340" r="3" fill="#2563eb"></circle><circle class="dot" cx="633.939393939394" cy="340" r="3" fill="#2563eb"></circle><circle class="dot" cx="635.1515151515151" cy="340" r="3" fill="#2563eb"></circle><circle class="dot" cx="636.3636363636364" cy="340" r="3" fill="#2563eb"></circle><circle class="dot" cx="637.5757575757575" cy="340" r="3" fill="#2563eb"></circle><circle class="dot" cx="638.7878787878788" cy="340" r="3" fill="#2563eb"></circle><circle class="dot" cx="640" cy="340" r="3" fill="#2563eb"></circle><circle class="dot" cx="641.2121212121212" cy="340" r="3" fill="#2563eb"></circle><circle class="dot" cx="642.4242424242425" cy="340" r="3" fill="#2563eb"></circle><circle class="dot" cx="643.6363636363636" cy="340" r="3" fill="#2563eb"></circle><circle class="dot" cx="644.8484848484849" cy="340" r="3" fill="#2563eb"></circle><circle class="dot" cx="646.060606060606" cy="340" r="3" fill="#2563eb"></circle><circle class="dot" cx="647.2727272727273" cy="340" r="3" fill="#2563eb"></circle><circle class="dot" cx="648.4848484848485" cy="340" r="3" fill="#2563eb"></circle><circle class="dot" cx="649.6969696969697" cy="340" r="3" fill="#2563eb"></circle><circle class="dot" cx="650.909090909091" cy="340" r="3" fill="#2563eb"></circle><circle class="dot" cx="652.1212121212121" cy="340" r="3" fill="#2563eb"></circle><circle class="dot" cx="653.3333333333334" cy="340" r="3" fill="#2563eb"></circle><circle class="dot" cx="654.5454545454545" cy="340" r="3" fill="#2563eb"></circle><circle class="dot" cx="655.7575757575758" cy="340" r="3" fill="#2563eb"></circle><circle class="dot" cx="656.9696969696969" cy="340" r="3" fill="#2563eb"></circle><circle class="dot" cx="658.1818181818181" cy="340" r="3" fill="#2563eb"></circle><circle class="dot" cx="659.3939393939394" cy="340" r="3" fill="#2563eb"></circle><circle class="dot" cx="660.6060606060606" cy="340" r="3" fill="#2563eb"></circle><circle class="dot" cx="661.8181818181819" cy="340" r="3" fill="#2563eb"></circle><circle class="dot" cx="663.030303030303" cy="340" r="3" fill="#2563eb"></circle><circle class="dot" cx="664.2424242424242" cy="340" r="3" fill="#2563eb"></circle><circle class="dot" cx="665.4545454545454" cy="340" r="3" fill="#2563eb"></circle><circle class="dot" cx="666.6666666666666" cy="340" r="3" fill="#2563eb"></circle><circle class="dot" cx="667.8787878787879" cy="340" r="3" fill="#2563eb"></circle><circle class="dot" cx="669.0909090909091" cy="340" r="3" fill="#2563eb"></circle><circle class="dot" cx="670.3030303030304" cy="340" r="3" fill="#2563eb"></circle><circle class="dot" cx="671.5151515151515" cy="340" r="3" fill="#2563eb"></circle><circle class="dot" cx="672.7272727272727" cy="340" r="3" fill="#2563eb"></circle><circle class="dot" cx="673.9393939393939" cy="340" r="3" fill="#2563eb"></circle><circle class="dot" cx="675.1515151515151" cy="340" r="3" fill="#2563eb"></circle><circle class="dot" cx="676.3636363636364" cy="340" r="3" fill="#2563eb"></circle><circle class="dot" cx="677.5757575757576" cy="340" r="3" fill="#2563eb"></circle><circle class="dot" cx="678.7878787878789" cy="340" r="3" fill="#2563eb"></circle><circle class="dot" cx="680" cy="340" r="3" fill="#2563eb"></circle><circle class="dot" cx="681.2121212121212" cy="340" r="3" fill="#2563eb"></circle><circle class="dot" cx="682.4242424242424" cy="340" r="3" fill="#2563eb"></circle><circle class="dot" cx="683.6363636363636" cy="340" r="3" fill="#2563eb"></circle><circle class="dot" cx="684.8484848484848" cy="340" r="3" fill="#2563eb"></circle><circle class="dot" cx="686.060606060606" cy="340" r="3" fill="#2563eb"></circle><circle class="dot" cx="687.2727272727273" cy="340" r="3" fill="#2563eb"></circle><circle class="dot" cx="688.4848484848485" cy="340" r="3" fill="#2563eb"></circle><circle class="dot" cx="689.6969696969697" cy="340" r="3" fill="#2563eb"></circle><circle class="dot" cx="690.9090909090909" cy="340" r="3" fill="#2563eb"></circle><circle class="dot" cx="692.1212121212121" cy="340" r="3" fill="#2563eb"></circle><circle class="dot" cx="693.3333333333333" cy="340" r="3" fill="#2563eb"></circle><circle class="dot" cx="694.5454545454545" cy="340" r="3" fill="#2563eb"></circle><circle class="dot" cx="695.7575757575758" cy="340" r="3" fill="#2563eb"></circle><circle class="dot" cx="696.969696969697" cy="340" r="3" fill="#2563eb"></circle><circle class="dot" cx="698.1818181818182" cy="340" r="3" fill="#2563eb"></circle><circle class="dot" cx="699.3939393939394" cy="340" r="3" fill="#2563eb"></circle><circle class="dot" cx="700.6060606060606" cy="340" r="3" fill="#2563eb"></circle><circle class="dot" cx="701.8181818181818" cy="340" r="3" fill="#2563eb"></circle><circle class="dot" cx="703.030303030303" cy="340" r="3" fill="#2563eb"></circle><circle class="dot" cx="704.2424242424242" cy="340" r="3" fill="#2563eb"></circle><circle class="dot" cx="705.4545454545455" cy="340" r="3" fill="#2563eb"></circle><circle class="dot" cx="706.6666666666667" cy="340" r="3" fill="#2563eb"></circle><circle class="dot" cx="707.8787878787879" cy="340" r="3" fill="#2563eb"></circle><circle class="dot" cx="709.0909090909091" cy="340" r="3" fill="#2563eb"></circle><circle class="dot" cx="710.3030303030303" cy="340" r="3" fill="#2563eb"></circle><circle class="dot" cx="711.5151515151515" cy="340" r="3" fill="#2563eb"></circle><circle class="dot" cx="712.7272727272727" cy="340" r="3" fill="#2563eb"></circle><circle class="dot" cx="713.9393939393939" cy="340" r="3" fill="#2563eb"></circle><circle class="dot" cx="715.1515151515151" cy="340" r="3" fill="#2563eb"></circle><circle class="dot" cx="716.3636363636364" cy="340" r="3" fill="#2563eb"></circle><circle class="dot" cx="717.5757575757576" cy="340" r="3" fill="#2563eb"></circle><circle class="dot" cx="718.7878787878788" cy="340" r="3" fill="#2563eb"></circle><circle class="dot" cx="720" cy="340" r="3" fill="#2563eb"></circle><g class="grid" transform="translate(0,340)" fill="none" font-size="10" font-family="sans-serif" text-anchor="middle" style="stroke-dasharray: 3,3; opacity: 0.3;"><path class="domain" stroke="currentColor" d="M0.5,-340V0.5H720.5V-340"></path><g class="tick" opacity="1" transform="translate(0.5,0)"><line stroke="currentColor" y2="-340"></line><text fill="currentColor" y="3" dy="0.71em"></text></g><g class="tick" opacity="1" transform="translate(29.590909090909093,0)"><line stroke="currentColor" y2="-340"></line><text fill="currentColor" y="3" dy="0.71em"></text></g><g class="tick" opacity="1" transform="translate(58.68181818181819,0)"><line stroke="currentColor" y2="-340"></line><text fill="currentColor" y="3" dy="0.71em"></text></g><g class="tick" opacity="1" transform="translate(87.77272727272728,0)"><line stroke="currentColor" y2="-340"></line><text fill="currentColor" y="3" dy="0.71em"></text></g><g class="tick" opacity="1" transform="translate(116.86363636363637,0)"><line stroke="currentColor" y2="-340"></line><text fill="currentColor" y="3" dy="0.71em"></text></g><g class="tick" opacity="1" transform="translate(145.95454545454544,0)"><line stroke="currentColor" y2="-340"></line><text fill="currentColor" y="3" dy="0.71em"></text></g><g class="tick" opacity="1" transform="translate(175.04545454545456,0)"><line stroke="currentColor" y2="-340"></line><text fill="currentColor" y="3" dy="0.71em"></text></g><g class="tick" opacity="1" transform="translate(204.13636363636363,0)"><line stroke="currentColor" y2="-340"></line><text fill="currentColor" y="3" dy="0.71em"></text></g><g class="tick" opacity="1" transform="translate(233.22727272727275,0)"><line stroke="currentColor" y2="-340"></line><text fill="currentColor" y="3" dy="0.71em"></text></g><g class="tick" opacity="1" transform="translate(262.3181818181818,0)"><line stroke="currentColor" y2="-340"></line><text fill="currentColor" y="3" dy="0.71em"></text></g><g class="tick" opacity="1" transform="translate(291.4090909090909,0)"><line stroke="currentColor" y2="-340"></line><text fill="currentColor" y="3" dy="0.71em"></text></g><g class="tick" opacity="1" transform="translate(320.5,0)"><line stroke="currentColor" y2="-340"></line><text fill="currentColor" y="3" dy="0.71em"></text></g><g class="tick" opacity="1" transform="translate(349.5909090909091,0)"><line stroke="currentColor" y2="-340"></line><text fill="currentColor" y="3" dy="0.71em"></text></g><g class="tick" opacity="1" transform="translate(378.68181818181824,0)"><line stroke="currentColor" y2="-340"></line><text fill="currentColor" y="3" dy="0.71em"></text></g><g class="tick" opacity="1" transform="translate(407.77272727272725,0)"><line stroke="currentColor" y2="-340"></line><text fill="currentColor" y="3" dy="0.71em"></text></g><g class="tick" opacity="1" transform="translate(436.8636363636364,0)"><line stroke="currentColor" y2="-340"></line><text fill="currentColor" y="3" dy="0.71em"></text></g><g class="tick" opacity="1" transform="translate(465.9545454545455,0)"><line stroke="currentColor" y2="-340"></line><text fill="currentColor" y="3" dy="0.71em"></text></g><g class="tick" opacity="1" transform="translate(495.0454545454545,0)"><line stroke="currentColor" y2="-340"></line><text fill="currentColor" y="3" dy="0.71em"></text></g><g class="tick" opacity="1" transform="translate(524.1363636363636,0)"><line stroke="currentColor" y2="-340"></line><text fill="currentColor" y="3" dy="0.71em"></text></g><g class="tick" opacity="1" transform="translate(553.2272727272726,0)"><line stroke="currentColor" y2="-340"></line><text fill="currentColor" y="3" dy="0.71em"></text></g><g class="tick" opacity="1" transform="translate(582.3181818181818,0)"><line stroke="currentColor" y2="-340"></line><text fill="currentColor" y="3" dy="0.71em"></text></g><g class="tick" opacity="1" transform="translate(611.4090909090909,0)"><line stroke="currentColor" y2="-340"></line><text fill="currentColor" y="3" dy="0.71em"></text></g><g class="tick" opacity="1" transform="translate(640.5,0)"><line stroke="currentColor" y2="-340"></line><text fill="currentColor" y="3" dy="0.71em"></text></g><g class="tick" opacity="1" transform="translate(669.5909090909091,0)"><line stroke="currentColor" y2="-340"></line><text fill="currentColor" y="3" dy="0.71em"></text></g><g class="tick" opacity="1" transform="translate(698.6818181818182,0)"><line stroke="currentColor" y2="-340"></line><text fill="currentColor" y="3" dy="0.71em"></text></g></g><g class="grid" fill="none" font-size="10" font-family="sans-serif" text-anchor="end" style="stroke-dasharray: 3,3; opacity: 0.3;"><path class="domain" stroke="currentColor" d="M720,340.5H0.5V0.5H720"></path><g class="tick" opacity="1" transform="translate(0,340.5)"><line stroke="currentColor" x2="720"></line><text fill="currentColor" x="-3" dy="0.32em"></text></g><g class="tick" opacity="1" transform="translate(0,291.92857142857133)"><line stroke="currentColor" x2="720"></line><text fill="currentColor" x="-3" dy="0.32em"></text></g><g class="tick" opacity="1" transform="translate(0,243.35714285714266)"><line stroke="currentColor" x2="720"></line><text fill="currentColor" x="-3" dy="0.32em"></text></g><g class="tick" opacity="1" transform="translate(0,194.78571428571396)"><line stroke="currentColor" x2="720"></line><text fill="currentColor" x="-3" dy="0.32em"></text></g><g class="tick" opacity="1" transform="translate(0,146.21428571428535)"><line stroke="currentColor" x2="720"></line><text fill="currentColor" x="-3" dy="0.32em"></text></g><g class="tick" opacity="1" transform="translate(0,97.64285714285664)"><line stroke="currentColor" x2="720"></line><text fill="currentColor" x="-3" dy="0.32em"></text></g><g class="tick" opacity="1" transform="translate(0,49.07142857142799)"><line stroke="currentColor" x2="720"></line><text fill="currentColor" x="-3" dy="0.32em"></text></g><g class="tick" opacity="1" transform="translate(0,0.5)"><line stroke="currentColor" x2="720"></line><text fill="currentColor" x="-3" dy="0.32em"></text></g></g></g><text x="400" y="10" text-anchor="middle" style="font-size: 16px; font-weight: bold; fill: #333;">OKX USDT Lending Rate - Current Month</text></svg>