<svg width="800" height="400" xmlns="http://www.w3.org/2000/svg"><g transform="translate(50,20)"><g transform="translate(0,340)" fill="none" font-size="10" font-family="sans-serif" text-anchor="middle"><path class="domain" stroke="currentColor" d="M0.5,6V0.5H720.5V6"></path><g class="tick" opacity="1" transform="translate(0.5,0)"><line stroke="currentColor" y2="6"></line><text fill="currentColor" y="9" dy=".15em" style="text-anchor: end;" dx="-.8em" transform="rotate(-45)">01/01</text></g><g class="tick" opacity="1" transform="translate(34.85387673956262,0)"><line stroke="currentColor" y2="6"></line><text fill="currentColor" y="9" dy=".15em" style="text-anchor: end;" dx="-.8em" transform="rotate(-45)">01/02</text></g><g class="tick" opacity="1" transform="translate(69.20775347912524,0)"><line stroke="currentColor" y2="6"></line><text fill="currentColor" y="9" dy=".15em" style="text-anchor: end;" dx="-.8em" transform="rotate(-45)">01/03</text></g><g class="tick" opacity="1" transform="translate(103.56163021868787,0)"><line stroke="currentColor" y2="6"></line><text fill="currentColor" y="9" dy=".15em" style="text-anchor: end;" dx="-.8em" transform="rotate(-45)">01/04</text></g><g class="tick" opacity="1" transform="translate(137.9155069582505,0)"><line stroke="currentColor" y2="6"></line><text fill="currentColor" y="9" dy=".15em" style="text-anchor: end;" dx="-.8em" transform="rotate(-45)">01/05</text></g><g class="tick" opacity="1" transform="translate(172.2693836978131,0)"><line stroke="currentColor" y2="6"></line><text fill="currentColor" y="9" dy=".15em" style="text-anchor: end;" dx="-.8em" transform="rotate(-45)">01/06</text></g><g class="tick" opacity="1" transform="translate(206.62326043737573,0)"><line stroke="currentColor" y2="6"></line><text fill="currentColor" y="9" dy=".15em" style="text-anchor: end;" dx="-.8em" transform="rotate(-45)">01/07</text></g><g class="tick" opacity="1" transform="translate(240.97713717693836,0)"><line stroke="currentColor" y2="6"></line><text fill="currentColor" y="9" dy=".15em" style="text-anchor: end;" dx="-.8em" transform="rotate(-45)">01/08</text></g><g class="tick" opacity="1" transform="translate(275.331013916501,0)"><line stroke="currentColor" y2="6"></line><text fill="currentColor" y="9" dy=".15em" style="text-anchor: end;" dx="-.8em" transform="rotate(-45)">01/09</text></g><g class="tick" opacity="1" transform="translate(309.6848906560636,0)"><line stroke="currentColor" y2="6"></line><text fill="currentColor" y="9" dy=".15em" style="text-anchor: end;" dx="-.8em" transform="rotate(-45)">01/10</text></g><g class="tick" opacity="1" transform="translate(344.0387673956262,0)"><line stroke="currentColor" y2="6"></line><text fill="currentColor" y="9" dy=".15em" style="text-anchor: end;" dx="-.8em" transform="rotate(-45)">01/11</text></g><g class="tick" opacity="1" transform="translate(378.3926441351889,0)"><line stroke="currentColor" y2="6"></line><text fill="currentColor" y="9" dy=".15em" style="text-anchor: end;" dx="-.8em" transform="rotate(-45)">01/12</text></g><g class="tick" opacity="1" transform="translate(412.74652087475147,0)"><line stroke="currentColor" y2="6"></line><text fill="currentColor" y="9" dy=".15em" style="text-anchor: end;" dx="-.8em" transform="rotate(-45)">01/13</text></g><g class="tick" opacity="1" transform="translate(447.10039761431415,0)"><line stroke="currentColor" y2="6"></line><text fill="currentColor" y="9" dy=".15em" style="text-anchor: end;" dx="-.8em" transform="rotate(-45)">01/14</text></g><g class="tick" opacity="1" transform="translate(481.4542743538767,0)"><line stroke="currentColor" y2="6"></line><text fill="currentColor" y="9" dy=".15em" style="text-anchor: end;" dx="-.8em" transform="rotate(-45)">01/15</text></g><g class="tick" opacity="1" transform="translate(515.8081510934394,0)"><line stroke="currentColor" y2="6"></line><text fill="currentColor" y="9" dy=".15em" style="text-anchor: end;" dx="-.8em" transform="rotate(-45)">01/16</text></g><g class="tick" opacity="1" transform="translate(550.162027833002,0)"><line stroke="currentColor" y2="6"></line><text fill="currentColor" y="9" dy=".15em" style="text-anchor: end;" dx="-.8em" transform="rotate(-45)">01/17</text></g><g class="tick" opacity="1" transform="translate(584.5159045725646,0)"><line stroke="currentColor" y2="6"></line><text fill="currentColor" y="9" dy=".15em" style="text-anchor: end;" dx="-.8em" transform="rotate(-45)">01/18</text></g><g class="tick" opacity="1" transform="translate(618.8697813121272,0)"><line stroke="currentColor" y2="6"></line><text fill="currentColor" y="9" dy=".15em" style="text-anchor: end;" dx="-.8em" transform="rotate(-45)">01/19</text></g><g class="tick" opacity="1" transform="translate(653.2236580516899,0)"><line stroke="currentColor" y2="6"></line><text fill="currentColor" y="9" dy=".15em" style="text-anchor: end;" dx="-.8em" transform="rotate(-45)">01/20</text></g><g class="tick" opacity="1" transform="translate(687.5775347912524,0)"><line stroke="currentColor" y2="6"></line><text fill="currentColor" y="9" dy=".15em" style="text-anchor: end;" dx="-.8em" transform="rotate(-45)">01/21</text></g></g><g fill="none" font-size="10" font-family="sans-serif" text-anchor="end"><path class="domain" stroke="currentColor" d="M-6,340.5H0.5V0.5H-6"></path><g class="tick" opacity="1" transform="translate(0,340.5)"><line stroke="currentColor" x2="-6"></line><text fill="currentColor" x="-9" dy="0.32em">3.20%</text></g><g class="tick" opacity="1" transform="translate(0,312.16666666666663)"><line stroke="currentColor" x2="-6"></line><text fill="currentColor" x="-9" dy="0.32em">3.25%</text></g><g class="tick" opacity="1" transform="translate(0,283.83333333333326)"><line stroke="currentColor" x2="-6"></line><text fill="currentColor" x="-9" dy="0.32em">3.30%</text></g><g class="tick" opacity="1" transform="translate(0,255.49999999999991)"><line stroke="currentColor" x2="-6"></line><text fill="currentColor" x="-9" dy="0.32em">3.35%</text></g><g class="tick" opacity="1" transform="translate(0,227.16666666666654)"><line stroke="currentColor" x2="-6"></line><text fill="currentColor" x="-9" dy="0.32em">3.40%</text></g><g class="tick" opacity="1" transform="translate(0,198.83333333333314)"><line stroke="currentColor" x2="-6"></line><text fill="currentColor" x="-9" dy="0.32em">3.45%</text></g><g class="tick" opacity="1" transform="translate(0,170.4999999999998)"><line stroke="currentColor" x2="-6"></line><text fill="currentColor" x="-9" dy="0.32em">3.50%</text></g><g class="tick" opacity="1" transform="translate(0,142.16666666666686)"><line stroke="currentColor" x2="-6"></line><text fill="currentColor" x="-9" dy="0.32em">3.55%</text></g><g class="tick" opacity="1" transform="translate(0,113.83333333333346)"><line stroke="currentColor" x2="-6"></line><text fill="currentColor" x="-9" dy="0.32em">3.60%</text></g><g class="tick" opacity="1" transform="translate(0,85.50000000000011)"><line stroke="currentColor" x2="-6"></line><text fill="currentColor" x="-9" dy="0.32em">3.65%</text></g><g class="tick" opacity="1" transform="translate(0,57.16666666666673)"><line stroke="currentColor" x2="-6"></line><text fill="currentColor" x="-9" dy="0.32em">3.70%</text></g><g class="tick" opacity="1" transform="translate(0,28.833333333333385)"><line stroke="currentColor" x2="-6"></line><text fill="currentColor" x="-9" dy="0.32em">3.75%</text></g><g class="tick" opacity="1" transform="translate(0,0.5)"><line stroke="currentColor" x2="-6"></line><text fill="currentColor" x="-9" dy="0.32em">3.80%</text></g></g><text transform="rotate(-90)" y="-50" x="-170" dy="1em" style="text-anchor: middle; font-size: 12px; fill: #666;">Pre Rate (%)</text><text transform="translate(360, 380)" style="text-anchor: middle; font-size: 12px; fill: #666;">Time (UTC)</text><path fill="none" stroke="#2563eb" stroke-width="2" d="M0,340C0.477,340,0.954,340,1.431,340C1.909,340,2.386,340,2.863,340C3.34,340,3.817,340,4.294,340C4.771,340,5.249,340,5.726,340C6.203,340,6.68,340,7.157,340C7.634,340,8.111,340,8.588,340C9.066,340,9.543,340,10.02,340C10.497,340,10.974,340,11.451,340C11.928,340,12.406,340,12.883,340C13.36,340,13.837,340,14.314,340C14.791,340,15.268,340,15.746,340C16.223,340,16.7,340,17.177,340C17.654,340,18.131,340,18.608,340C19.085,340,19.563,340,20.04,340C20.517,340,20.994,340,21.471,340C21.948,340,22.425,340,22.903,340C23.38,340,23.857,340,24.334,340C24.811,340,25.288,340,25.765,340C26.243,340,26.72,340,27.197,340C27.674,340,28.151,340,28.628,340C29.105,340,29.583,340,30.06,340C30.537,340,31.014,340,31.491,340C31.968,340,32.445,340,32.922,340C33.4,340,33.877,340,34.354,340C34.831,340,35.308,340,35.785,340C36.262,340,36.74,340,37.217,340C37.694,340,38.171,340,38.648,340C39.125,340,39.602,340,40.08,340C40.557,340,41.034,340,41.511,340C41.988,340,42.465,340,42.942,340C43.419,340,43.897,340,44.374,340C44.851,340,45.328,340,45.805,340C46.282,340,46.759,340,47.237,340C47.714,340,48.191,340,48.668,340C49.145,340,49.622,340,50.099,340C50.577,340,51.054,340,51.531,340C52.008,340,52.485,340,52.962,340C53.439,340,53.917,340,54.394,340C54.871,340,55.348,340,55.825,340C56.302,340,56.779,340,57.256,340C57.734,340,58.211,340,58.688,340C59.165,340,59.642,340,60.119,340C60.596,340,61.074,340,61.551,340C62.028,340,62.505,340,62.982,340C63.459,340,63.936,340,64.414,340C64.891,340,65.368,340,65.845,340C66.322,340,66.799,340,67.276,340C67.753,340,68.231,340,68.708,340C69.185,340,69.662,340,70.139,340C70.616,340,71.093,340,71.571,340C72.048,340,72.525,340,73.002,340C73.479,340,73.956,340,74.433,340C74.911,340,75.388,340,75.865,340C76.342,340,76.819,340,77.296,340C77.773,340,78.25,340,78.728,340C79.205,340,79.682,340,80.159,340C80.636,340,81.113,340,81.59,340C82.068,340,82.545,340,83.022,340C83.499,340,83.976,340,84.453,340C84.93,340,85.408,340,85.885,340C86.362,340,86.839,340,87.316,340C87.793,340,88.27,340,88.748,340C89.225,340,89.702,340,90.179,340C90.656,340,91.133,340,91.61,340C92.087,340,92.565,340,93.042,340C93.519,340,93.996,340,94.473,340C94.95,340,95.427,340,95.905,340C96.382,340,96.859,340,97.336,340C97.813,340,98.29,340,98.767,340C99.245,340,99.722,340,100.199,340C100.676,340,101.153,340,101.63,340C102.107,340,102.584,340,103.062,340C103.539,340,104.016,340,104.493,340C104.97,340,105.447,340,105.924,340C106.402,340,106.879,340,107.356,340C107.833,340,108.31,340,108.787,340C109.264,340,109.742,340,110.219,340C110.696,340,111.173,340,111.65,340C112.127,340,112.604,340,113.082,340C113.559,340,114.036,340,114.513,340C114.99,340,115.467,340,115.944,340C116.421,340,116.899,340,117.376,340C117.853,340,118.33,340,118.807,340C119.284,340,119.761,340,120.239,340C120.716,340,121.193,340,121.67,340C122.147,340,122.624,340,123.101,340C123.579,340,124.056,340,124.533,340C125.01,340,125.487,340,125.964,340C126.441,340,126.918,340,127.396,340C127.873,340,128.35,340,128.827,340C129.304,340,129.781,340,130.258,340C130.736,340,131.213,340,131.69,340C132.167,340,132.644,340,133.121,340C133.598,340,134.076,340,134.553,340C135.03,340,135.507,340,135.984,340C136.461,340,136.938,340,137.416,340C137.893,340,138.37,340,138.847,340C139.324,340,139.801,340,140.278,340C140.755,340,141.233,340,141.71,340C142.187,340,142.664,340,143.141,340C143.618,340,144.095,340,144.573,340C145.05,340,145.527,340,146.004,340C146.481,340,146.958,340,147.435,340C147.913,340,148.39,340,148.867,340C149.344,340,149.821,340,150.298,340C150.775,340,151.252,340,151.73,340C152.207,340,152.684,340,153.161,340C153.638,340,154.115,340,154.592,340C155.07,340,155.547,340,156.024,340C156.501,340,156.978,340,157.455,340C157.932,340,158.41,340,158.887,340C159.364,340,159.841,340,160.318,340C160.795,340,161.272,340,161.75,340C162.227,340,162.704,340,163.181,340C163.658,340,164.135,340,164.612,340C165.089,340,165.567,340,166.044,340C166.521,340,166.998,340,167.475,340C167.952,340,168.429,340,168.907,340C169.384,340,169.861,340,170.338,340C170.815,340,171.292,340,171.769,340C172.247,340,172.724,340,173.201,340C173.678,340,174.155,340,174.632,340C175.109,340,175.586,340,176.064,340C176.541,340,177.018,340,177.495,340C177.972,340,178.449,340,178.926,340C179.404,340,179.881,340,180.358,340C180.835,340,181.312,340,181.789,340C182.266,340,182.744,340,183.221,340C183.698,340,184.175,340,184.652,340C185.129,340,185.606,340,186.083,340C186.561,340,187.038,340,187.515,340C187.992,340,188.469,340,188.946,340C189.423,340,189.901,340,190.378,340C190.855,340,191.332,340,191.809,340C192.286,340,192.763,340,193.241,340C193.718,340,194.195,340,194.672,340C195.149,340,195.626,340,196.103,340C196.581,340,197.058,340,197.535,340C198.012,340,198.489,340,198.966,340C199.443,340,199.92,340,200.398,340C200.875,340,201.352,340,201.829,340C202.306,340,202.783,340,203.26,340C203.738,340,204.215,340,204.692,340C205.169,340,205.646,340,206.123,340C206.6,340,207.078,340,207.555,340C208.032,340,208.509,340,208.986,340C209.463,340,209.94,340,210.417,340C210.895,340,211.372,340,211.849,340C212.326,340,212.803,340,213.28,340C213.757,340,214.235,340,214.712,340C215.189,340,215.666,340,216.143,340C216.62,340,217.097,340,217.575,340C218.052,340,218.529,340,219.006,340C219.483,340,219.96,340,220.437,340C220.915,340,221.392,340,221.869,340C222.346,340,222.823,340,223.3,340C223.777,340,224.254,340,224.732,340C225.209,340,225.686,340,226.163,340C226.64,340,227.117,340,227.594,340C228.072,340,228.549,340,229.026,340C229.503,340,229.98,340,230.457,340C230.934,340,231.412,340,231.889,340C232.366,340,232.843,340,233.32,340C233.797,340,234.274,340,234.751,340C235.229,340,235.706,340,236.183,340C236.66,340,237.137,340,237.614,340C238.091,340,238.569,340,239.046,340C239.523,340,240,340,240.477,340C240.954,340,241.431,340,241.909,340C242.386,340,242.863,340,243.34,340C243.817,340,244.294,340,244.771,340C245.249,340,245.726,340,246.203,340C246.68,340,247.157,340,247.634,340C248.111,340,248.588,340,249.066,340C249.543,340,250.02,340,250.497,340C250.974,340,251.451,340,251.928,340C252.406,340,252.883,340,253.36,340C253.837,340,254.314,340,254.791,340C255.268,340,255.746,340,256.223,340C256.7,340,257.177,340,257.654,340C258.131,340,258.608,340,259.085,340C259.563,340,260.04,340,260.517,340C260.994,340,261.471,340,261.948,340C262.425,340,262.903,340,263.38,340C263.857,340,264.334,340,264.811,340C265.288,340,265.765,340,266.243,340C266.72,340,267.197,340,267.674,340C268.151,340,268.628,340,269.105,340C269.583,340,270.06,340,270.537,340C271.014,340,271.491,340,271.968,340C272.445,340,272.922,340,273.4,340C273.877,340,274.354,340,274.831,340C275.308,340,275.785,340,276.262,340C276.74,340,277.217,340,277.694,340C278.171,340,278.648,340,279.125,340C279.602,340,280.08,340,280.557,340C281.034,340,281.511,340,281.988,340C282.465,340,282.942,340,283.419,340C283.897,340,284.374,340,284.851,340C285.328,340,285.805,340,286.282,340C286.759,340,287.237,340,287.714,340C288.191,340,288.668,340,289.145,340C289.622,340,290.099,340,290.577,340C291.054,340,291.531,340,292.008,340C292.485,340,292.962,340,293.439,340C293.917,340,294.394,340,294.871,340C295.348,340,295.825,340,296.302,340C296.779,340,297.256,340,297.734,340C298.211,340,298.688,340,299.165,340C299.642,340,300.119,340,300.596,340C301.074,340,301.551,340,302.028,340C302.505,340,302.982,340,303.459,340C303.936,340,304.414,340,304.891,340C305.368,340,305.845,340,306.322,340C306.799,340,307.276,340,307.753,340C308.231,340,308.708,340,309.185,340C309.662,340,310.139,340,310.616,340C311.093,340,311.571,340,312.048,340C312.525,340,313.002,340,313.479,340C313.956,340,314.433,340,314.911,340C315.388,340,315.865,340,316.342,340C316.819,340,317.296,340,317.773,340C318.25,340,318.728,340,319.205,340C319.682,340,320.159,340,320.636,340C321.113,340,321.59,340,322.068,340C322.545,340,323.022,340,323.499,340C323.976,340,324.453,340,324.93,340C325.408,340,325.885,340,326.362,340C326.839,340,327.316,340,327.793,340C328.27,340,328.748,340,329.225,340C329.702,340,330.179,340,330.656,340C331.133,340,331.61,340,332.087,340C332.565,340,333.042,340,333.519,340C333.996,340,334.473,340,334.95,340C335.427,340,335.905,340,336.382,340C336.859,340,337.336,340,337.813,340C338.29,340,338.767,340,339.245,340C339.722,340,340.199,340,340.676,340C341.153,340,341.63,340,342.107,340C342.584,340,343.062,340,343.539,340C344.016,340,344.493,340,344.97,340C345.447,340,345.924,340,346.402,340C346.879,340,347.356,340,347.833,340C348.31,340,348.787,340,349.264,340C349.742,340,350.219,340,350.696,340C351.173,340,351.65,340,352.127,340C352.604,340,353.082,340,353.559,340C354.036,340,354.513,340,354.99,340C355.467,340,355.944,340,356.421,340C356.899,340,357.376,340,357.853,340C358.33,340,358.807,340,359.284,340C359.761,340,360.239,340,360.716,340C361.193,340,361.67,340,362.147,340C362.624,340,363.101,340,363.579,340C364.056,340,364.533,340,365.01,340C365.487,340,365.964,340,366.441,340C366.918,340,367.396,340,367.873,340C368.35,340,368.827,340,369.304,340C369.781,340,370.258,340,370.736,340C371.213,340,371.69,340,372.167,340C372.644,340,373.121,340,373.598,340C374.076,340,374.553,340,375.03,340C375.507,340,375.984,340,376.461,340C376.938,340,377.416,340,377.893,340C378.37,340,378.847,340,379.324,340C379.801,340,380.278,340,380.755,340C381.233,340,381.71,340,382.187,340C382.664,340,383.141,340,383.618,340C384.095,340,384.573,340,385.05,340C385.527,340,386.004,340,386.481,340C386.958,340,387.435,340,387.913,340C388.39,340,388.867,340,389.344,340C389.821,340,390.298,340,390.775,340C391.252,340,391.73,340,392.207,340C392.684,340,393.161,340,393.638,340C394.115,340,394.592,340,395.07,340C395.547,340,396.024,340,396.501,340C396.978,340,397.455,340,397.932,340C398.41,340,398.887,340,399.364,340C399.841,340,400.318,340,400.795,340C401.272,340,401.75,340,402.227,340C402.704,340,403.181,340,403.658,340C404.135,340,404.612,340,405.089,340C405.567,340,406.044,340,406.521,340C406.998,340,407.475,340,407.952,340C408.429,340,408.907,340,409.384,340C409.861,340,410.338,340,410.815,340C411.292,340,411.769,340,412.247,340C412.724,340,413.201,340,413.678,340C414.155,340,414.632,340,415.109,340C415.586,340,416.064,340,416.541,340C417.018,340,417.495,340,417.972,340C418.449,340,418.926,340,419.404,340C419.881,340,420.358,340,420.835,340C421.312,340,421.789,340,422.266,340C422.744,340,423.221,340,423.698,340C424.175,340,424.652,340,425.129,340C425.606,340,426.083,340,426.561,340C427.038,340,427.515,340,427.992,340C428.469,340,428.946,340,429.423,340C429.901,340,430.378,340,430.855,340C431.332,340,431.809,340,432.286,340C432.763,340,433.241,340,433.718,340C434.195,340,434.672,340,435.149,340C435.626,340,436.103,340,436.581,340C437.058,340,437.535,340,438.012,340C438.489,340,438.966,340,439.443,340C439.92,340,440.398,340,440.875,340C441.352,340,441.829,340,442.306,340C442.783,340,443.26,340,443.738,340C444.215,340,444.692,340,445.169,340C445.646,340,446.123,340,446.6,340C447.078,340,447.555,340,448.032,340C448.509,340,448.986,340,449.463,340C449.94,340,450.417,340,450.895,340C451.372,340,451.849,340,452.326,340C452.803,340,453.28,340,453.757,340C454.235,340,454.712,340,455.189,340C455.666,340,456.143,340,456.62,340C457.097,340,457.575,340,458.052,340C458.529,340,459.006,340,459.483,340C459.96,340,460.437,340,460.915,340C461.392,340,461.869,340,462.346,340C462.823,340,463.3,340,463.777,340C464.254,340,464.732,340,465.209,340C465.686,340,466.163,340,466.64,340C467.117,340,467.594,340,468.072,340C468.549,340,469.026,340,469.503,340C469.98,340,470.457,340,470.934,340C471.412,340,471.889,340,472.366,340C472.843,340,473.32,340,473.797,340C474.274,340,474.751,340,475.229,340C475.706,340,476.183,340,476.66,340C477.137,340,477.614,340,478.091,340C478.569,340,479.046,340,479.523,340C480,340,480.477,340,480.954,340C481.431,340,481.909,340,482.386,340C482.863,340,483.34,0,483.817,0C484.294,0,484.771,0,485.249,0C485.726,0,486.203,0,486.68,0C487.157,0,487.634,0,488.111,0C488.588,0,489.066,0,489.543,0C490.02,0,490.497,0,490.974,0C491.451,0,491.928,0,492.406,0C492.883,0,493.36,0,493.837,0C494.314,0,494.791,0,495.268,0C495.746,0,496.223,0,496.7,0C497.177,0,497.654,0,498.131,0C498.608,0,499.085,0,499.563,0C500.04,0,500.517,0,500.994,0C501.471,0,501.948,0,502.425,0C502.903,0,503.38,0,503.857,0C504.334,0,504.811,0,505.288,0C505.765,0,506.243,0,506.72,0C507.197,0,507.674,0,508.151,0C508.628,0,509.105,0,509.583,0C510.06,0,510.537,0,511.014,0C511.491,0,511.968,0,512.445,0C512.922,0,513.4,0,513.877,0C514.354,0,514.831,0,515.308,0C515.785,0,516.262,0,516.74,0C517.217,0,517.694,0,518.171,0C518.648,0,519.125,0,519.602,0C520.08,0,520.557,0,521.034,0C521.511,0,521.988,0,522.465,0C522.942,0,523.419,0,523.897,0C524.374,0,524.851,0,525.328,0C525.805,0,526.282,0,526.759,0C527.237,0,527.714,0,528.191,0C528.668,0,529.145,0,529.622,0C530.099,0,530.577,0,531.054,0C531.531,0,532.008,0,532.485,0C532.962,0,533.439,0,533.917,0C534.394,0,534.871,0,535.348,0C535.825,0,536.302,0,536.779,0C537.256,0,537.734,0,538.211,0C538.688,0,539.165,0,539.642,0C540.119,0,540.596,0,541.074,0C541.551,0,542.028,0,542.505,0C542.982,0,543.459,0,543.936,0C544.414,0,544.891,0,545.368,0C545.845,0,546.322,0,546.799,0C547.276,0,547.753,0,548.231,0C548.708,0,549.185,0,549.662,0C550.139,0,550.616,0,551.093,0C551.571,0,552.048,0,552.525,0C553.002,0,553.479,0,553.956,0C554.433,0,554.911,0,555.388,0C555.865,0,556.342,0,556.819,0C557.296,0,557.773,0,558.25,0C558.728,0,559.205,0,559.682,0C560.159,0,560.636,0,561.113,0C561.59,0,562.068,0,562.545,0C563.022,0,563.499,0,563.976,0C564.453,0,564.93,0,565.408,0C565.885,0,566.362,0,566.839,0C567.316,0,567.793,0,568.27,0C568.748,0,569.225,0,569.702,0C570.179,0,570.656,0,571.133,0C571.61,0,572.087,0,572.565,0C573.042,0,573.519,0,573.996,0C574.473,0,574.95,0,575.427,0C575.905,0,576.382,0,576.859,0C577.336,0,577.813,0,578.29,0C578.767,0,579.245,0,579.722,0C580.199,0,580.676,0,581.153,0C581.63,0,582.107,0,582.584,0C583.062,0,583.539,0,584.016,0C584.493,0,584.97,0,585.447,0C585.924,0,586.402,0,586.879,0C587.356,0,587.833,0,588.31,0C588.787,0,589.264,0,589.742,0C590.219,0,590.696,0,591.173,0C591.65,0,592.127,0,592.604,0C593.082,0,593.559,0,594.036,0C594.513,0,594.99,0,595.467,0C595.944,0,596.421,0,596.899,0C597.376,0,597.853,0,598.33,0C598.807,0,599.284,0,599.761,0C600.239,0,600.716,0,601.193,0C601.67,0,602.147,0,602.624,0C603.101,0,603.579,0,604.056,0C604.533,0,605.01,0,605.487,0C605.964,0,606.441,0,606.918,0C607.396,0,607.873,0,608.35,0C608.827,0,609.304,0,609.781,0C610.258,0,610.736,0,611.213,0C611.69,0,612.167,0,612.644,0C613.121,0,613.598,0,614.076,0C614.553,0,615.03,0,615.507,0C615.984,0,616.461,0,616.938,0C617.416,0,617.893,0,618.37,0C618.847,0,619.324,0,619.801,0C620.278,0,620.755,0,621.233,0C621.71,0,622.187,0,622.664,0C623.141,0,623.618,0,624.095,0C624.573,0,625.05,0,625.527,0C626.004,0,626.481,0,626.958,0C627.435,0,627.913,0,628.39,0C628.867,0,629.344,0,629.821,0C630.298,0,630.775,0,631.252,0C631.73,0,632.207,0,632.684,0C633.161,0,633.638,0,634.115,0C634.592,0,635.07,0,635.547,0C636.024,0,636.501,0,636.978,0C637.455,0,637.932,0,638.41,0C638.887,0,639.364,0,639.841,0C640.318,0,640.795,0,641.272,0C641.75,0,642.227,0,642.704,0C643.181,0,643.658,0,644.135,0C644.612,0,645.089,0,645.567,0C646.044,0,646.521,0,646.998,0C647.475,0,647.952,0,648.429,0C648.907,0,649.384,0,649.861,0C650.338,0,650.815,0,651.292,0C651.769,0,652.247,0,652.724,0C653.201,0,653.678,0,654.155,0C654.632,0,655.109,0,655.586,0C656.064,0,656.541,0,657.018,0C657.495,0,657.972,0,658.449,0C658.926,0,659.404,0,659.881,0C660.358,0,660.835,0,661.312,0C661.789,0,662.266,0,662.744,0C663.221,0,663.698,0,664.175,0C664.652,0,665.129,0,665.606,0C666.083,0,666.561,0,667.038,0C667.515,0,667.992,0,668.469,0C668.946,0,669.423,0,669.901,0C670.378,0,670.855,0,671.332,0C671.809,0,672.286,0,672.763,0C673.241,0,673.718,0,674.195,0C674.672,0,675.149,0,675.626,0C676.103,0,676.581,0,677.058,0C677.535,0,678.012,0,678.489,0C678.966,0,679.443,0,679.92,0C680.398,0,680.875,0,681.352,0C681.829,0,682.306,0,682.783,0C683.26,0,683.738,0,684.215,0C684.692,0,685.169,0,685.646,0C686.123,0,686.6,0,687.078,0C687.555,0,688.032,0,688.509,0C688.986,0,689.463,0,689.94,0C690.417,0,690.895,0,691.372,0C691.849,0,692.326,0,692.803,0C693.28,0,693.757,0,694.235,0C694.712,0,695.189,0,695.666,0C696.143,0,696.62,0,697.097,0C697.575,0,698.052,0,698.529,0C699.006,0,699.483,0,699.96,0C700.437,0,700.915,0,701.392,0C701.869,0,702.346,0,702.823,0C703.3,0,703.777,0,704.254,0C704.732,0,705.209,0,705.686,0C706.163,0,706.64,0,707.117,0C707.594,0,708.072,0,708.549,0C709.026,0,709.503,0,709.98,0C710.457,0,710.934,0,711.412,0C711.889,0,712.366,0,712.843,0C713.32,0,713.797,0,714.274,0C714.751,0,715.229,0,715.706,0C716.183,0,716.66,0,717.137,0C717.614,0,718.091,0,718.569,0C719.046,0,719.523,0,720,0"></path><circle class="dot" cx="0" cy="340" r="3" fill="#2563eb"></circle><circle class="dot" cx="1.4314115308151092" cy="340" r="3" fill="#2563eb"></circle><circle class="dot" cx="2.8628230616302184" cy="340" r="3" fill="#2563eb"></circle><circle class="dot" cx="4.294234592445328" cy="340" r="3" fill="#2563eb"></circle><circle class="dot" cx="5.725646123260437" cy="340" r="3" fill="#2563eb"></circle><circle class="dot" cx="7.157057654075547" cy="340" r="3" fill="#2563eb"></circle><circle class="dot" cx="8.588469184890656" cy="340" r="3" fill="#2563eb"></circle><circle class="dot" cx="10.019880715705765" cy="340" r="3" fill="#2563eb"></circle><circle class="dot" cx="11.451292246520874" cy="340" r="3" fill="#2563eb"></circle><circle class="dot" cx="12.882703777335983" cy="340" r="3" fill="#2563eb"></circle><circle class="dot" cx="14.314115308151093" cy="340" r="3" fill="#2563eb"></circle><circle class="dot" cx="15.745526838966203" cy="340" r="3" fill="#2563eb"></circle><circle class="dot" cx="17.17693836978131" cy="340" r="3" fill="#2563eb"></circle><circle class="dot" cx="18.608349900596423" cy="340" r="3" fill="#2563eb"></circle><circle class="dot" cx="20.03976143141153" cy="340" r="3" fill="#2563eb"></circle><circle class="dot" cx="21.47117296222664" cy="340" r="3" fill="#2563eb"></circle><circle class="dot" cx="22.902584493041747" cy="340" r="3" fill="#2563eb"></circle><circle class="dot" cx="24.33399602385686" cy="340" r="3" fill="#2563eb"></circle><circle class="dot" cx="25.765407554671967" cy="340" r="3" fill="#2563eb"></circle><circle class="dot" cx="27.196819085487075" cy="340" r="3" fill="#2563eb"></circle><circle class="dot" cx="28.628230616302186" cy="340" r="3" fill="#2563eb"></circle><circle class="dot" cx="30.059642147117295" cy="340" r="3" fill="#2563eb"></circle><circle class="dot" cx="31.491053677932406" cy="340" r="3" fill="#2563eb"></circle><circle class="dot" cx="32.92246520874752" cy="340" r="3" fill="#2563eb"></circle><circle class="dot" cx="34.35387673956262" cy="340" r="3" fill="#2563eb"></circle><circle class="dot" cx="35.785288270377734" cy="340" r="3" fill="#2563eb"></circle><circle class="dot" cx="37.216699801192846" cy="340" r="3" fill="#2563eb"></circle><circle class="dot" cx="38.64811133200795" cy="340" r="3" fill="#2563eb"></circle><circle class="dot" cx="40.07952286282306" cy="340" r="3" fill="#2563eb"></circle><circle class="dot" cx="41.51093439363817" cy="340" r="3" fill="#2563eb"></circle><circle class="dot" cx="42.94234592445328" cy="340" r="3" fill="#2563eb"></circle><circle class="dot" cx="44.37375745526839" cy="340" r="3" fill="#2563eb"></circle><circle class="dot" cx="45.805168986083494" cy="340" r="3" fill="#2563eb"></circle><circle class="dot" cx="47.23658051689861" cy="340" r="3" fill="#2563eb"></circle><circle class="dot" cx="48.66799204771372" cy="340" r="3" fill="#2563eb"></circle><circle class="dot" cx="50.09940357852883" cy="340" r="3" fill="#2563eb"></circle><circle class="dot" cx="51.53081510934393" cy="340" r="3" fill="#2563eb"></circle><circle class="dot" cx="52.962226640159045" cy="340" r="3" fill="#2563eb"></circle><circle class="dot" cx="54.39363817097415" cy="340" r="3" fill="#2563eb"></circle><circle class="dot" cx="55.82504970178927" cy="340" r="3" fill="#2563eb"></circle><circle class="dot" cx="57.25646123260437" cy="340" r="3" fill="#2563eb"></circle><circle class="dot" cx="58.687872763419485" cy="340" r="3" fill="#2563eb"></circle><circle class="dot" cx="60.11928429423459" cy="340" r="3" fill="#2563eb"></circle><circle class="dot" cx="61.5506958250497" cy="340" r="3" fill="#2563eb"></circle><circle class="dot" cx="62.98210735586481" cy="340" r="3" fill="#2563eb"></circle><circle class="dot" cx="64.41351888667992" cy="340" r="3" fill="#2563eb"></circle><circle class="dot" cx="65.84493041749504" cy="340" r="3" fill="#2563eb"></circle><circle class="dot" cx="67.27634194831013" cy="340" r="3" fill="#2563eb"></circle><circle class="dot" cx="68.70775347912524" cy="340" r="3" fill="#2563eb"></circle><circle class="dot" cx="70.13916500994036" cy="340" r="3" fill="#2563eb"></circle><circle class="dot" cx="71.57057654075547" cy="340" r="3" fill="#2563eb"></circle><circle class="dot" cx="73.00198807157058" cy="340" r="3" fill="#2563eb"></circle><circle class="dot" cx="74.43339960238569" cy="340" r="3" fill="#2563eb"></circle><circle class="dot" cx="75.86481113320079" cy="340" r="3" fill="#2563eb"></circle><circle class="dot" cx="77.2962226640159" cy="340" r="3" fill="#2563eb"></circle><circle class="dot" cx="78.72763419483101" cy="340" r="3" fill="#2563eb"></circle><circle class="dot" cx="80.15904572564612" cy="340" r="3" fill="#2563eb"></circle><circle class="dot" cx="81.59045725646124" cy="340" r="3" fill="#2563eb"></circle><circle class="dot" cx="83.02186878727635" cy="340" r="3" fill="#2563eb"></circle><circle class="dot" cx="84.45328031809144" cy="340" r="3" fill="#2563eb"></circle><circle class="dot" cx="85.88469184890656" cy="340" r="3" fill="#2563eb"></circle><circle class="dot" cx="87.31610337972167" cy="340" r="3" fill="#2563eb"></circle><circle class="dot" cx="88.74751491053678" cy="340" r="3" fill="#2563eb"></circle><circle class="dot" cx="90.17892644135188" cy="340" r="3" fill="#2563eb"></circle><circle class="dot" cx="91.61033797216699" cy="340" r="3" fill="#2563eb"></circle><circle class="dot" cx="93.04174950298211" cy="340" r="3" fill="#2563eb"></circle><circle class="dot" cx="94.47316103379723" cy="340" r="3" fill="#2563eb"></circle><circle class="dot" cx="95.90457256461234" cy="340" r="3" fill="#2563eb"></circle><circle class="dot" cx="97.33598409542743" cy="340" r="3" fill="#2563eb"></circle><circle class="dot" cx="98.76739562624255" cy="340" r="3" fill="#2563eb"></circle><circle class="dot" cx="100.19880715705766" cy="340" r="3" fill="#2563eb"></circle><circle class="dot" cx="101.63021868787276" cy="340" r="3" fill="#2563eb"></circle><circle class="dot" cx="103.06163021868787" cy="340" r="3" fill="#2563eb"></circle><circle class="dot" cx="104.49304174950298" cy="340" r="3" fill="#2563eb"></circle><circle class="dot" cx="105.92445328031809" cy="340" r="3" fill="#2563eb"></circle><circle class="dot" cx="107.35586481113319" cy="340" r="3" fill="#2563eb"></circle><circle class="dot" cx="108.7872763419483" cy="340" r="3" fill="#2563eb"></circle><circle class="dot" cx="110.21868787276343" cy="340" r="3" fill="#2563eb"></circle><circle class="dot" cx="111.65009940357854" cy="340" r="3" fill="#2563eb"></circle><circle class="dot" cx="113.08151093439365" cy="340" r="3" fill="#2563eb"></circle><circle class="dot" cx="114.51292246520875" cy="340" r="3" fill="#2563eb"></circle><circle class="dot" cx="115.94433399602386" cy="340" r="3" fill="#2563eb"></circle><circle class="dot" cx="117.37574552683897" cy="340" r="3" fill="#2563eb"></circle><circle class="dot" cx="118.80715705765408" cy="340" r="3" fill="#2563eb"></circle><circle class="dot" cx="120.23856858846918" cy="340" r="3" fill="#2563eb"></circle><circle class="dot" cx="121.66998011928429" cy="340" r="3" fill="#2563eb"></circle><circle class="dot" cx="123.1013916500994" cy="340" r="3" fill="#2563eb"></circle><circle class="dot" cx="124.5328031809145" cy="340" r="3" fill="#2563eb"></circle><circle class="dot" cx="125.96421471172962" cy="340" r="3" fill="#2563eb"></circle><circle class="dot" cx="127.39562624254474" cy="340" r="3" fill="#2563eb"></circle><circle class="dot" cx="128.82703777335985" cy="340" r="3" fill="#2563eb"></circle><circle class="dot" cx="130.25844930417495" cy="340" r="3" fill="#2563eb"></circle><circle class="dot" cx="131.68986083499007" cy="340" r="3" fill="#2563eb"></circle><circle class="dot" cx="133.12127236580517" cy="340" r="3" fill="#2563eb"></circle><circle class="dot" cx="134.55268389662027" cy="340" r="3" fill="#2563eb"></circle><circle class="dot" cx="135.9840954274354" cy="340" r="3" fill="#2563eb"></circle><circle class="dot" cx="137.4155069582505" cy="340" r="3" fill="#2563eb"></circle><circle class="dot" cx="138.8469184890656" cy="340" r="3" fill="#2563eb"></circle><circle class="dot" cx="140.2783300198807" cy="340" r="3" fill="#2563eb"></circle><circle class="dot" cx="141.7097415506958" cy="340" r="3" fill="#2563eb"></circle><circle class="dot" cx="143.14115308151094" cy="340" r="3" fill="#2563eb"></circle><circle class="dot" cx="144.57256461232606" cy="340" r="3" fill="#2563eb"></circle><circle class="dot" cx="146.00397614314116" cy="340" r="3" fill="#2563eb"></circle><circle class="dot" cx="147.43538767395626" cy="340" r="3" fill="#2563eb"></circle><circle class="dot" cx="148.86679920477138" cy="340" r="3" fill="#2563eb"></circle><circle class="dot" cx="150.29821073558648" cy="340" r="3" fill="#2563eb"></circle><circle class="dot" cx="151.72962226640158" cy="340" r="3" fill="#2563eb"></circle><circle class="dot" cx="153.1610337972167" cy="340" r="3" fill="#2563eb"></circle><circle class="dot" cx="154.5924453280318" cy="340" r="3" fill="#2563eb"></circle><circle class="dot" cx="156.0238568588469" cy="340" r="3" fill="#2563eb"></circle><circle class="dot" cx="157.45526838966202" cy="340" r="3" fill="#2563eb"></circle><circle class="dot" cx="158.88667992047712" cy="340" r="3" fill="#2563eb"></circle><circle class="dot" cx="160.31809145129225" cy="340" r="3" fill="#2563eb"></circle><circle class="dot" cx="161.74950298210737" cy="340" r="3" fill="#2563eb"></circle><circle class="dot" cx="163.18091451292247" cy="340" r="3" fill="#2563eb"></circle><circle class="dot" cx="164.61232604373757" cy="340" r="3" fill="#2563eb"></circle><circle class="dot" cx="166.0437375745527" cy="340" r="3" fill="#2563eb"></circle><circle class="dot" cx="167.4751491053678" cy="340" r="3" fill="#2563eb"></circle><circle class="dot" cx="168.9065606361829" cy="340" r="3" fill="#2563eb"></circle><circle class="dot" cx="170.33797216699801" cy="340" r="3" fill="#2563eb"></circle><circle class="dot" cx="171.7693836978131" cy="340" r="3" fill="#2563eb"></circle><circle class="dot" cx="173.20079522862824" cy="340" r="3" fill="#2563eb"></circle><circle class="dot" cx="174.63220675944333" cy="340" r="3" fill="#2563eb"></circle><circle class="dot" cx="176.06361829025846" cy="340" r="3" fill="#2563eb"></circle><circle class="dot" cx="177.49502982107356" cy="340" r="3" fill="#2563eb"></circle><circle class="dot" cx="178.92644135188868" cy="340" r="3" fill="#2563eb"></circle><circle class="dot" cx="180.35785288270375" cy="340" r="3" fill="#2563eb"></circle><circle class="dot" cx="181.78926441351888" cy="340" r="3" fill="#2563eb"></circle><circle class="dot" cx="183.22067594433398" cy="340" r="3" fill="#2563eb"></circle><circle class="dot" cx="184.6520874751491" cy="340" r="3" fill="#2563eb"></circle><circle class="dot" cx="186.08349900596423" cy="340" r="3" fill="#2563eb"></circle><circle class="dot" cx="187.51491053677933" cy="340" r="3" fill="#2563eb"></circle><circle class="dot" cx="188.94632206759445" cy="340" r="3" fill="#2563eb"></circle><circle class="dot" cx="190.37773359840955" cy="340" r="3" fill="#2563eb"></circle><circle class="dot" cx="191.80914512922467" cy="340" r="3" fill="#2563eb"></circle><circle class="dot" cx="193.24055666003974" cy="340" r="3" fill="#2563eb"></circle><circle class="dot" cx="194.67196819085487" cy="340" r="3" fill="#2563eb"></circle><circle class="dot" cx="196.10337972166997" cy="340" r="3" fill="#2563eb"></circle><circle class="dot" cx="197.5347912524851" cy="340" r="3" fill="#2563eb"></circle><circle class="dot" cx="198.9662027833002" cy="340" r="3" fill="#2563eb"></circle><circle class="dot" cx="200.39761431411532" cy="340" r="3" fill="#2563eb"></circle><circle class="dot" cx="201.82902584493044" cy="340" r="3" fill="#2563eb"></circle><circle class="dot" cx="203.2604373757455" cy="340" r="3" fill="#2563eb"></circle><circle class="dot" cx="204.69184890656067" cy="340" r="3" fill="#2563eb"></circle><circle class="dot" cx="206.12326043737573" cy="340" r="3" fill="#2563eb"></circle><circle class="dot" cx="207.55467196819086" cy="340" r="3" fill="#2563eb"></circle><circle class="dot" cx="208.98608349900596" cy="340" r="3" fill="#2563eb"></circle><circle class="dot" cx="210.41749502982108" cy="340" r="3" fill="#2563eb"></circle><circle class="dot" cx="211.84890656063618" cy="340" r="3" fill="#2563eb"></circle><circle class="dot" cx="213.2803180914513" cy="340" r="3" fill="#2563eb"></circle><circle class="dot" cx="214.71172962226638" cy="340" r="3" fill="#2563eb"></circle><circle class="dot" cx="216.1431411530815" cy="340" r="3" fill="#2563eb"></circle><circle class="dot" cx="217.5745526838966" cy="340" r="3" fill="#2563eb"></circle><circle class="dot" cx="219.00596421471172" cy="340" r="3" fill="#2563eb"></circle><circle class="dot" cx="220.43737574552685" cy="340" r="3" fill="#2563eb"></circle><circle class="dot" cx="221.86878727634195" cy="340" r="3" fill="#2563eb"></circle><circle class="dot" cx="223.30019880715707" cy="340" r="3" fill="#2563eb"></circle><circle class="dot" cx="224.73161033797217" cy="340" r="3" fill="#2563eb"></circle><circle class="dot" cx="226.1630218687873" cy="340" r="3" fill="#2563eb"></circle><circle class="dot" cx="227.59443339960237" cy="340" r="3" fill="#2563eb"></circle><circle class="dot" cx="229.0258449304175" cy="340" r="3" fill="#2563eb"></circle><circle class="dot" cx="230.4572564612326" cy="340" r="3" fill="#2563eb"></circle><circle class="dot" cx="231.88866799204771" cy="340" r="3" fill="#2563eb"></circle><circle class="dot" cx="233.3200795228628" cy="340" r="3" fill="#2563eb"></circle><circle class="dot" cx="234.75149105367794" cy="340" r="3" fill="#2563eb"></circle><circle class="dot" cx="236.18290258449306" cy="340" r="3" fill="#2563eb"></circle><circle class="dot" cx="237.61431411530816" cy="340" r="3" fill="#2563eb"></circle><circle class="dot" cx="239.0457256461233" cy="340" r="3" fill="#2563eb"></circle><circle class="dot" cx="240.47713717693836" cy="340" r="3" fill="#2563eb"></circle><circle class="dot" cx="241.90854870775348" cy="340" r="3" fill="#2563eb"></circle><circle class="dot" cx="243.33996023856858" cy="340" r="3" fill="#2563eb"></circle><circle class="dot" cx="244.7713717693837" cy="340" r="3" fill="#2563eb"></circle><circle class="dot" cx="246.2027833001988" cy="340" r="3" fill="#2563eb"></circle><circle class="dot" cx="247.63419483101393" cy="340" r="3" fill="#2563eb"></circle><circle class="dot" cx="249.065606361829" cy="340" r="3" fill="#2563eb"></circle><circle class="dot" cx="250.49701789264412" cy="340" r="3" fill="#2563eb"></circle><circle class="dot" cx="251.92842942345925" cy="340" r="3" fill="#2563eb"></circle><circle class="dot" cx="253.35984095427435" cy="340" r="3" fill="#2563eb"></circle><circle class="dot" cx="254.79125248508947" cy="340" r="3" fill="#2563eb"></circle><circle class="dot" cx="256.22266401590457" cy="340" r="3" fill="#2563eb"></circle><circle class="dot" cx="257.6540755467197" cy="340" r="3" fill="#2563eb"></circle><circle class="dot" cx="259.08548707753476" cy="340" r="3" fill="#2563eb"></circle><circle class="dot" cx="260.5168986083499" cy="340" r="3" fill="#2563eb"></circle><circle class="dot" cx="261.948310139165" cy="340" r="3" fill="#2563eb"></circle><circle class="dot" cx="263.37972166998014" cy="340" r="3" fill="#2563eb"></circle><circle class="dot" cx="264.8111332007952" cy="340" r="3" fill="#2563eb"></circle><circle class="dot" cx="266.24254473161034" cy="340" r="3" fill="#2563eb"></circle><circle class="dot" cx="267.6739562624254" cy="340" r="3" fill="#2563eb"></circle><circle class="dot" cx="269.10536779324053" cy="340" r="3" fill="#2563eb"></circle><circle class="dot" cx="270.53677932405566" cy="340" r="3" fill="#2563eb"></circle><circle class="dot" cx="271.9681908548708" cy="340" r="3" fill="#2563eb"></circle><circle class="dot" cx="273.3996023856859" cy="340" r="3" fill="#2563eb"></circle><circle class="dot" cx="274.831013916501" cy="340" r="3" fill="#2563eb"></circle><circle class="dot" cx="276.2624254473161" cy="340" r="3" fill="#2563eb"></circle><circle class="dot" cx="277.6938369781312" cy="340" r="3" fill="#2563eb"></circle><circle class="dot" cx="279.12524850894636" cy="340" r="3" fill="#2563eb"></circle><circle class="dot" cx="280.5566600397614" cy="340" r="3" fill="#2563eb"></circle><circle class="dot" cx="281.98807157057655" cy="340" r="3" fill="#2563eb"></circle><circle class="dot" cx="283.4194831013916" cy="340" r="3" fill="#2563eb"></circle><circle class="dot" cx="284.85089463220675" cy="340" r="3" fill="#2563eb"></circle><circle class="dot" cx="286.2823061630219" cy="340" r="3" fill="#2563eb"></circle><circle class="dot" cx="287.713717693837" cy="340" r="3" fill="#2563eb"></circle><circle class="dot" cx="289.1451292246521" cy="340" r="3" fill="#2563eb"></circle><circle class="dot" cx="290.5765407554672" cy="340" r="3" fill="#2563eb"></circle><circle class="dot" cx="292.0079522862823" cy="340" r="3" fill="#2563eb"></circle><circle class="dot" cx="293.4393638170974" cy="340" r="3" fill="#2563eb"></circle><circle class="dot" cx="294.8707753479125" cy="340" r="3" fill="#2563eb"></circle><circle class="dot" cx="296.30218687872764" cy="340" r="3" fill="#2563eb"></circle><circle class="dot" cx="297.73359840954276" cy="340" r="3" fill="#2563eb"></circle><circle class="dot" cx="299.16500994035783" cy="340" r="3" fill="#2563eb"></circle><circle class="dot" cx="300.59642147117296" cy="340" r="3" fill="#2563eb"></circle><circle class="dot" cx="302.0278330019881" cy="340" r="3" fill="#2563eb"></circle><circle class="dot" cx="303.45924453280315" cy="340" r="3" fill="#2563eb"></circle><circle class="dot" cx="304.8906560636183" cy="340" r="3" fill="#2563eb"></circle><circle class="dot" cx="306.3220675944334" cy="340" r="3" fill="#2563eb"></circle><circle class="dot" cx="307.75347912524853" cy="340" r="3" fill="#2563eb"></circle><circle class="dot" cx="309.1848906560636" cy="340" r="3" fill="#2563eb"></circle><circle class="dot" cx="310.6163021868787" cy="340" r="3" fill="#2563eb"></circle><circle class="dot" cx="312.0477137176938" cy="340" r="3" fill="#2563eb"></circle><circle class="dot" cx="313.479125248509" cy="340" r="3" fill="#2563eb"></circle><circle class="dot" cx="314.91053677932405" cy="340" r="3" fill="#2563eb"></circle><circle class="dot" cx="316.3419483101392" cy="340" r="3" fill="#2563eb"></circle><circle class="dot" cx="317.77335984095424" cy="340" r="3" fill="#2563eb"></circle><circle class="dot" cx="319.20477137176937" cy="340" r="3" fill="#2563eb"></circle><circle class="dot" cx="320.6361829025845" cy="340" r="3" fill="#2563eb"></circle><circle class="dot" cx="322.0675944333996" cy="340" r="3" fill="#2563eb"></circle><circle class="dot" cx="323.49900596421475" cy="340" r="3" fill="#2563eb"></circle><circle class="dot" cx="324.9304174950298" cy="340" r="3" fill="#2563eb"></circle><circle class="dot" cx="326.36182902584494" cy="340" r="3" fill="#2563eb"></circle><circle class="dot" cx="327.79324055666" cy="340" r="3" fill="#2563eb"></circle><circle class="dot" cx="329.22465208747514" cy="340" r="3" fill="#2563eb"></circle><circle class="dot" cx="330.65606361829026" cy="340" r="3" fill="#2563eb"></circle><circle class="dot" cx="332.0874751491054" cy="340" r="3" fill="#2563eb"></circle><circle class="dot" cx="333.51888667992046" cy="340" r="3" fill="#2563eb"></circle><circle class="dot" cx="334.9502982107356" cy="340" r="3" fill="#2563eb"></circle><circle class="dot" cx="336.3817097415507" cy="340" r="3" fill="#2563eb"></circle><circle class="dot" cx="337.8131212723658" cy="340" r="3" fill="#2563eb"></circle><circle class="dot" cx="339.2445328031809" cy="340" r="3" fill="#2563eb"></circle><circle class="dot" cx="340.67594433399603" cy="340" r="3" fill="#2563eb"></circle><circle class="dot" cx="342.10735586481115" cy="340" r="3" fill="#2563eb"></circle><circle class="dot" cx="343.5387673956262" cy="340" r="3" fill="#2563eb"></circle><circle class="dot" cx="344.97017892644135" cy="340" r="3" fill="#2563eb"></circle><circle class="dot" cx="346.4015904572565" cy="340" r="3" fill="#2563eb"></circle><circle class="dot" cx="347.8330019880716" cy="340" r="3" fill="#2563eb"></circle><circle class="dot" cx="349.26441351888667" cy="340" r="3" fill="#2563eb"></circle><circle class="dot" cx="350.6958250497018" cy="340" r="3" fill="#2563eb"></circle><circle class="dot" cx="352.1272365805169" cy="340" r="3" fill="#2563eb"></circle><circle class="dot" cx="353.558648111332" cy="340" r="3" fill="#2563eb"></circle><circle class="dot" cx="354.9900596421471" cy="340" r="3" fill="#2563eb"></circle><circle class="dot" cx="356.42147117296224" cy="340" r="3" fill="#2563eb"></circle><circle class="dot" cx="357.85288270377737" cy="340" r="3" fill="#2563eb"></circle><circle class="dot" cx="359.28429423459244" cy="340" r="3" fill="#2563eb"></circle><circle class="dot" cx="360.7157057654075" cy="340" r="3" fill="#2563eb"></circle><circle class="dot" cx="362.14711729622263" cy="340" r="3" fill="#2563eb"></circle><circle class="dot" cx="363.57852882703776" cy="340" r="3" fill="#2563eb"></circle><circle class="dot" cx="365.0099403578529" cy="340" r="3" fill="#2563eb"></circle><circle class="dot" cx="366.44135188866795" cy="340" r="3" fill="#2563eb"></circle><circle class="dot" cx="367.8727634194831" cy="340" r="3" fill="#2563eb"></circle><circle class="dot" cx="369.3041749502982" cy="340" r="3" fill="#2563eb"></circle><circle class="dot" cx="370.73558648111333" cy="340" r="3" fill="#2563eb"></circle><circle class="dot" cx="372.16699801192846" cy="340" r="3" fill="#2563eb"></circle><circle class="dot" cx="373.5984095427435" cy="340" r="3" fill="#2563eb"></circle><circle class="dot" cx="375.02982107355865" cy="340" r="3" fill="#2563eb"></circle><circle class="dot" cx="376.4612326043738" cy="340" r="3" fill="#2563eb"></circle><circle class="dot" cx="377.8926441351889" cy="340" r="3" fill="#2563eb"></circle><circle class="dot" cx="379.3240556660039" cy="340" r="3" fill="#2563eb"></circle><circle class="dot" cx="380.7554671968191" cy="340" r="3" fill="#2563eb"></circle><circle class="dot" cx="382.1868787276342" cy="340" r="3" fill="#2563eb"></circle><circle class="dot" cx="383.61829025844935" cy="340" r="3" fill="#2563eb"></circle><circle class="dot" cx="385.04970178926436" cy="340" r="3" fill="#2563eb"></circle><circle class="dot" cx="386.4811133200795" cy="340" r="3" fill="#2563eb"></circle><circle class="dot" cx="387.9125248508946" cy="340" r="3" fill="#2563eb"></circle><circle class="dot" cx="389.34393638170974" cy="340" r="3" fill="#2563eb"></circle><circle class="dot" cx="390.77534791252486" cy="340" r="3" fill="#2563eb"></circle><circle class="dot" cx="392.20675944333993" cy="340" r="3" fill="#2563eb"></circle><circle class="dot" cx="393.63817097415506" cy="340" r="3" fill="#2563eb"></circle><circle class="dot" cx="395.0695825049702" cy="340" r="3" fill="#2563eb"></circle><circle class="dot" cx="396.5009940357853" cy="340" r="3" fill="#2563eb"></circle><circle class="dot" cx="397.9324055666004" cy="340" r="3" fill="#2563eb"></circle><circle class="dot" cx="399.3638170974155" cy="340" r="3" fill="#2563eb"></circle><circle class="dot" cx="400.79522862823063" cy="340" r="3" fill="#2563eb"></circle><circle class="dot" cx="402.22664015904576" cy="340" r="3" fill="#2563eb"></circle><circle class="dot" cx="403.6580516898609" cy="340" r="3" fill="#2563eb"></circle><circle class="dot" cx="405.0894632206759" cy="340" r="3" fill="#2563eb"></circle><circle class="dot" cx="406.520874751491" cy="340" r="3" fill="#2563eb"></circle><circle class="dot" cx="407.9522862823062" cy="340" r="3" fill="#2563eb"></circle><circle class="dot" cx="409.38369781312133" cy="340" r="3" fill="#2563eb"></circle><circle class="dot" cx="410.81510934393634" cy="340" r="3" fill="#2563eb"></circle><circle class="dot" cx="412.24652087475147" cy="340" r="3" fill="#2563eb"></circle><circle class="dot" cx="413.6779324055666" cy="340" r="3" fill="#2563eb"></circle><circle class="dot" cx="415.1093439363817" cy="340" r="3" fill="#2563eb"></circle><circle class="dot" cx="416.5407554671968" cy="340" r="3" fill="#2563eb"></circle><circle class="dot" cx="417.9721669980119" cy="340" r="3" fill="#2563eb"></circle><circle class="dot" cx="419.40357852882704" cy="340" r="3" fill="#2563eb"></circle><circle class="dot" cx="420.83499005964217" cy="340" r="3" fill="#2563eb"></circle><circle class="dot" cx="422.2664015904573" cy="340" r="3" fill="#2563eb"></circle><circle class="dot" cx="423.69781312127236" cy="340" r="3" fill="#2563eb"></circle><circle class="dot" cx="425.1292246520875" cy="340" r="3" fill="#2563eb"></circle><circle class="dot" cx="426.5606361829026" cy="340" r="3" fill="#2563eb"></circle><circle class="dot" cx="427.99204771371774" cy="340" r="3" fill="#2563eb"></circle><circle class="dot" cx="429.42345924453275" cy="340" r="3" fill="#2563eb"></circle><circle class="dot" cx="430.8548707753479" cy="340" r="3" fill="#2563eb"></circle><circle class="dot" cx="432.286282306163" cy="340" r="3" fill="#2563eb"></circle><circle class="dot" cx="433.7176938369781" cy="340" r="3" fill="#2563eb"></circle><circle class="dot" cx="435.1491053677932" cy="340" r="3" fill="#2563eb"></circle><circle class="dot" cx="436.5805168986083" cy="340" r="3" fill="#2563eb"></circle><circle class="dot" cx="438.01192842942345" cy="340" r="3" fill="#2563eb"></circle><circle class="dot" cx="439.4433399602386" cy="340" r="3" fill="#2563eb"></circle><circle class="dot" cx="440.8747514910537" cy="340" r="3" fill="#2563eb"></circle><circle class="dot" cx="442.30616302186877" cy="340" r="3" fill="#2563eb"></circle><circle class="dot" cx="443.7375745526839" cy="340" r="3" fill="#2563eb"></circle><circle class="dot" cx="445.168986083499" cy="340" r="3" fill="#2563eb"></circle><circle class="dot" cx="446.60039761431415" cy="340" r="3" fill="#2563eb"></circle><circle class="dot" cx="448.0318091451292" cy="340" r="3" fill="#2563eb"></circle><circle class="dot" cx="449.46322067594434" cy="340" r="3" fill="#2563eb"></circle><circle class="dot" cx="450.89463220675947" cy="340" r="3" fill="#2563eb"></circle><circle class="dot" cx="452.3260437375746" cy="340" r="3" fill="#2563eb"></circle><circle class="dot" cx="453.7574552683897" cy="340" r="3" fill="#2563eb"></circle><circle class="dot" cx="455.18886679920473" cy="340" r="3" fill="#2563eb"></circle><circle class="dot" cx="456.62027833001986" cy="340" r="3" fill="#2563eb"></circle><circle class="dot" cx="458.051689860835" cy="340" r="3" fill="#2563eb"></circle><circle class="dot" cx="459.4831013916501" cy="340" r="3" fill="#2563eb"></circle><circle class="dot" cx="460.9145129224652" cy="340" r="3" fill="#2563eb"></circle><circle class="dot" cx="462.3459244532803" cy="340" r="3" fill="#2563eb"></circle><circle class="dot" cx="463.77733598409543" cy="340" r="3" fill="#2563eb"></circle><circle class="dot" cx="465.20874751491056" cy="340" r="3" fill="#2563eb"></circle><circle class="dot" cx="466.6401590457256" cy="340" r="3" fill="#2563eb"></circle><circle class="dot" cx="468.07157057654075" cy="340" r="3" fill="#2563eb"></circle><circle class="dot" cx="469.5029821073559" cy="340" r="3" fill="#2563eb"></circle><circle class="dot" cx="470.934393638171" cy="340" r="3" fill="#2563eb"></circle><circle class="dot" cx="472.3658051689861" cy="340" r="3" fill="#2563eb"></circle><circle class="dot" cx="473.79721669980114" cy="340" r="3" fill="#2563eb"></circle><circle class="dot" cx="475.2286282306163" cy="340" r="3" fill="#2563eb"></circle><circle class="dot" cx="476.66003976143145" cy="340" r="3" fill="#2563eb"></circle><circle class="dot" cx="478.0914512922466" cy="340" r="3" fill="#2563eb"></circle><circle class="dot" cx="479.5228628230616" cy="340" r="3" fill="#2563eb"></circle><circle class="dot" cx="480.9542743538767" cy="340" r="3" fill="#2563eb"></circle><circle class="dot" cx="482.38568588469184" cy="340" r="3" fill="#2563eb"></circle><circle class="dot" cx="483.81709741550696" cy="0" r="3" fill="#2563eb"></circle><circle class="dot" cx="485.24850894632203" cy="0" r="3" fill="#2563eb"></circle><circle class="dot" cx="486.67992047713716" cy="0" r="3" fill="#2563eb"></circle><circle class="dot" cx="488.1113320079523" cy="0" r="3" fill="#2563eb"></circle><circle class="dot" cx="489.5427435387674" cy="0" r="3" fill="#2563eb"></circle><circle class="dot" cx="490.97415506958254" cy="0" r="3" fill="#2563eb"></circle><circle class="dot" cx="492.4055666003976" cy="0" r="3" fill="#2563eb"></circle><circle class="dot" cx="493.83697813121273" cy="0" r="3" fill="#2563eb"></circle><circle class="dot" cx="495.26838966202786" cy="0" r="3" fill="#2563eb"></circle><circle class="dot" cx="496.699801192843" cy="0" r="3" fill="#2563eb"></circle><circle class="dot" cx="498.131212723658" cy="0" r="3" fill="#2563eb"></circle><circle class="dot" cx="499.5626242544731" cy="0" r="3" fill="#2563eb"></circle><circle class="dot" cx="500.99403578528825" cy="0" r="3" fill="#2563eb"></circle><circle class="dot" cx="502.4254473161034" cy="0" r="3" fill="#2563eb"></circle><circle class="dot" cx="503.8568588469185" cy="0" r="3" fill="#2563eb"></circle><circle class="dot" cx="505.28827037773357" cy="0" r="3" fill="#2563eb"></circle><circle class="dot" cx="506.7196819085487" cy="0" r="3" fill="#2563eb"></circle><circle class="dot" cx="508.1510934393638" cy="0" r="3" fill="#2563eb"></circle><circle class="dot" cx="509.58250497017895" cy="0" r="3" fill="#2563eb"></circle><circle class="dot" cx="511.013916500994" cy="0" r="3" fill="#2563eb"></circle><circle class="dot" cx="512.4453280318091" cy="0" r="3" fill="#2563eb"></circle><circle class="dot" cx="513.8767395626243" cy="0" r="3" fill="#2563eb"></circle><circle class="dot" cx="515.3081510934394" cy="0" r="3" fill="#2563eb"></circle><circle class="dot" cx="516.7395626242544" cy="0" r="3" fill="#2563eb"></circle><circle class="dot" cx="518.1709741550695" cy="0" r="3" fill="#2563eb"></circle><circle class="dot" cx="519.6023856858847" cy="0" r="3" fill="#2563eb"></circle><circle class="dot" cx="521.0337972166998" cy="0" r="3" fill="#2563eb"></circle><circle class="dot" cx="522.4652087475149" cy="0" r="3" fill="#2563eb"></circle><circle class="dot" cx="523.89662027833" cy="0" r="3" fill="#2563eb"></circle><circle class="dot" cx="525.3280318091452" cy="0" r="3" fill="#2563eb"></circle><circle class="dot" cx="526.7594433399603" cy="0" r="3" fill="#2563eb"></circle><circle class="dot" cx="528.1908548707754" cy="0" r="3" fill="#2563eb"></circle><circle class="dot" cx="529.6222664015904" cy="0" r="3" fill="#2563eb"></circle><circle class="dot" cx="531.0536779324055" cy="0" r="3" fill="#2563eb"></circle><circle class="dot" cx="532.4850894632207" cy="0" r="3" fill="#2563eb"></circle><circle class="dot" cx="533.9165009940358" cy="0" r="3" fill="#2563eb"></circle><circle class="dot" cx="535.3479125248508" cy="0" r="3" fill="#2563eb"></circle><circle class="dot" cx="536.7793240556659" cy="0" r="3" fill="#2563eb"></circle><circle class="dot" cx="538.2107355864811" cy="0" r="3" fill="#2563eb"></circle><circle class="dot" cx="539.6421471172962" cy="0" r="3" fill="#2563eb"></circle><circle class="dot" cx="541.0735586481113" cy="0" r="3" fill="#2563eb"></circle><circle class="dot" cx="542.5049701789264" cy="0" r="3" fill="#2563eb"></circle><circle class="dot" cx="543.9363817097416" cy="0" r="3" fill="#2563eb"></circle><circle class="dot" cx="545.3677932405567" cy="0" r="3" fill="#2563eb"></circle><circle class="dot" cx="546.7992047713718" cy="0" r="3" fill="#2563eb"></circle><circle class="dot" cx="548.2306163021868" cy="0" r="3" fill="#2563eb"></circle><circle class="dot" cx="549.662027833002" cy="0" r="3" fill="#2563eb"></circle><circle class="dot" cx="551.0934393638171" cy="0" r="3" fill="#2563eb"></circle><circle class="dot" cx="552.5248508946322" cy="0" r="3" fill="#2563eb"></circle><circle class="dot" cx="553.9562624254473" cy="0" r="3" fill="#2563eb"></circle><circle class="dot" cx="555.3876739562623" cy="0" r="3" fill="#2563eb"></circle><circle class="dot" cx="556.8190854870775" cy="0" r="3" fill="#2563eb"></circle><circle class="dot" cx="558.2504970178927" cy="0" r="3" fill="#2563eb"></circle><circle class="dot" cx="559.6819085487078" cy="0" r="3" fill="#2563eb"></circle><circle class="dot" cx="561.1133200795229" cy="0" r="3" fill="#2563eb"></circle><circle class="dot" cx="562.544731610338" cy="0" r="3" fill="#2563eb"></circle><circle class="dot" cx="563.9761431411531" cy="0" r="3" fill="#2563eb"></circle><circle class="dot" cx="565.4075546719682" cy="0" r="3" fill="#2563eb"></circle><circle class="dot" cx="566.8389662027832" cy="0" r="3" fill="#2563eb"></circle><circle class="dot" cx="568.2703777335984" cy="0" r="3" fill="#2563eb"></circle><circle class="dot" cx="569.7017892644135" cy="0" r="3" fill="#2563eb"></circle><circle class="dot" cx="571.1332007952286" cy="0" r="3" fill="#2563eb"></circle><circle class="dot" cx="572.5646123260437" cy="0" r="3" fill="#2563eb"></circle><circle class="dot" cx="573.9960238568589" cy="0" r="3" fill="#2563eb"></circle><circle class="dot" cx="575.427435387674" cy="0" r="3" fill="#2563eb"></circle><circle class="dot" cx="576.8588469184891" cy="0" r="3" fill="#2563eb"></circle><circle class="dot" cx="578.2902584493042" cy="0" r="3" fill="#2563eb"></circle><circle class="dot" cx="579.7216699801193" cy="0" r="3" fill="#2563eb"></circle><circle class="dot" cx="581.1530815109344" cy="0" r="3" fill="#2563eb"></circle><circle class="dot" cx="582.5844930417495" cy="0" r="3" fill="#2563eb"></circle><circle class="dot" cx="584.0159045725646" cy="0" r="3" fill="#2563eb"></circle><circle class="dot" cx="585.4473161033796" cy="0" r="3" fill="#2563eb"></circle><circle class="dot" cx="586.8787276341948" cy="0" r="3" fill="#2563eb"></circle><circle class="dot" cx="588.3101391650099" cy="0" r="3" fill="#2563eb"></circle><circle class="dot" cx="589.741550695825" cy="0" r="3" fill="#2563eb"></circle><circle class="dot" cx="591.1729622266402" cy="0" r="3" fill="#2563eb"></circle><circle class="dot" cx="592.6043737574553" cy="0" r="3" fill="#2563eb"></circle><circle class="dot" cx="594.0357852882704" cy="0" r="3" fill="#2563eb"></circle><circle class="dot" cx="595.4671968190855" cy="0" r="3" fill="#2563eb"></circle><circle class="dot" cx="596.8986083499007" cy="0" r="3" fill="#2563eb"></circle><circle class="dot" cx="598.3300198807157" cy="0" r="3" fill="#2563eb"></circle><circle class="dot" cx="599.7614314115308" cy="0" r="3" fill="#2563eb"></circle><circle class="dot" cx="601.1928429423459" cy="0" r="3" fill="#2563eb"></circle><circle class="dot" cx="602.624254473161" cy="0" r="3" fill="#2563eb"></circle><circle class="dot" cx="604.0556660039762" cy="0" r="3" fill="#2563eb"></circle><circle class="dot" cx="605.4870775347912" cy="0" r="3" fill="#2563eb"></circle><circle class="dot" cx="606.9184890656063" cy="0" r="3" fill="#2563eb"></circle><circle class="dot" cx="608.3499005964214" cy="0" r="3" fill="#2563eb"></circle><circle class="dot" cx="609.7813121272366" cy="0" r="3" fill="#2563eb"></circle><circle class="dot" cx="611.2127236580517" cy="0" r="3" fill="#2563eb"></circle><circle class="dot" cx="612.6441351888668" cy="0" r="3" fill="#2563eb"></circle><circle class="dot" cx="614.0755467196819" cy="0" r="3" fill="#2563eb"></circle><circle class="dot" cx="615.5069582504971" cy="0" r="3" fill="#2563eb"></circle><circle class="dot" cx="616.9383697813121" cy="0" r="3" fill="#2563eb"></circle><circle class="dot" cx="618.3697813121272" cy="0" r="3" fill="#2563eb"></circle><circle class="dot" cx="619.8011928429423" cy="0" r="3" fill="#2563eb"></circle><circle class="dot" cx="621.2326043737575" cy="0" r="3" fill="#2563eb"></circle><circle class="dot" cx="622.6640159045726" cy="0" r="3" fill="#2563eb"></circle><circle class="dot" cx="624.0954274353876" cy="0" r="3" fill="#2563eb"></circle><circle class="dot" cx="625.5268389662028" cy="0" r="3" fill="#2563eb"></circle><circle class="dot" cx="626.958250497018" cy="0" r="3" fill="#2563eb"></circle><circle class="dot" cx="628.3896620278331" cy="0" r="3" fill="#2563eb"></circle><circle class="dot" cx="629.8210735586481" cy="0" r="3" fill="#2563eb"></circle><circle class="dot" cx="631.2524850894632" cy="0" r="3" fill="#2563eb"></circle><circle class="dot" cx="632.6838966202783" cy="0" r="3" fill="#2563eb"></circle><circle class="dot" cx="634.1153081510935" cy="0" r="3" fill="#2563eb"></circle><circle class="dot" cx="635.5467196819085" cy="0" r="3" fill="#2563eb"></circle><circle class="dot" cx="636.9781312127236" cy="0" r="3" fill="#2563eb"></circle><circle class="dot" cx="638.4095427435387" cy="0" r="3" fill="#2563eb"></circle><circle class="dot" cx="639.8409542743539" cy="0" r="3" fill="#2563eb"></circle><circle class="dot" cx="641.272365805169" cy="0" r="3" fill="#2563eb"></circle><circle class="dot" cx="642.7037773359841" cy="0" r="3" fill="#2563eb"></circle><circle class="dot" cx="644.1351888667992" cy="0" r="3" fill="#2563eb"></circle><circle class="dot" cx="645.5666003976144" cy="0" r="3" fill="#2563eb"></circle><circle class="dot" cx="646.9980119284295" cy="0" r="3" fill="#2563eb"></circle><circle class="dot" cx="648.4294234592445" cy="0" r="3" fill="#2563eb"></circle><circle class="dot" cx="649.8608349900596" cy="0" r="3" fill="#2563eb"></circle><circle class="dot" cx="651.2922465208748" cy="0" r="3" fill="#2563eb"></circle><circle class="dot" cx="652.7236580516899" cy="0" r="3" fill="#2563eb"></circle><circle class="dot" cx="654.155069582505" cy="0" r="3" fill="#2563eb"></circle><circle class="dot" cx="655.58648111332" cy="0" r="3" fill="#2563eb"></circle><circle class="dot" cx="657.0178926441351" cy="0" r="3" fill="#2563eb"></circle><circle class="dot" cx="658.4493041749503" cy="0" r="3" fill="#2563eb"></circle><circle class="dot" cx="659.8807157057654" cy="0" r="3" fill="#2563eb"></circle><circle class="dot" cx="661.3121272365805" cy="0" r="3" fill="#2563eb"></circle><circle class="dot" cx="662.7435387673956" cy="0" r="3" fill="#2563eb"></circle><circle class="dot" cx="664.1749502982108" cy="0" r="3" fill="#2563eb"></circle><circle class="dot" cx="665.6063618290259" cy="0" r="3" fill="#2563eb"></circle><circle class="dot" cx="667.0377733598409" cy="0" r="3" fill="#2563eb"></circle><circle class="dot" cx="668.469184890656" cy="0" r="3" fill="#2563eb"></circle><circle class="dot" cx="669.9005964214712" cy="0" r="3" fill="#2563eb"></circle><circle class="dot" cx="671.3320079522863" cy="0" r="3" fill="#2563eb"></circle><circle class="dot" cx="672.7634194831014" cy="0" r="3" fill="#2563eb"></circle><circle class="dot" cx="674.1948310139164" cy="0" r="3" fill="#2563eb"></circle><circle class="dot" cx="675.6262425447316" cy="0" r="3" fill="#2563eb"></circle><circle class="dot" cx="677.0576540755467" cy="0" r="3" fill="#2563eb"></circle><circle class="dot" cx="678.4890656063618" cy="0" r="3" fill="#2563eb"></circle><circle class="dot" cx="679.9204771371769" cy="0" r="3" fill="#2563eb"></circle><circle class="dot" cx="681.3518886679921" cy="0" r="3" fill="#2563eb"></circle><circle class="dot" cx="682.7833001988072" cy="0" r="3" fill="#2563eb"></circle><circle class="dot" cx="684.2147117296223" cy="0" r="3" fill="#2563eb"></circle><circle class="dot" cx="685.6461232604373" cy="0" r="3" fill="#2563eb"></circle><circle class="dot" cx="687.0775347912524" cy="0" r="3" fill="#2563eb"></circle><circle class="dot" cx="688.5089463220676" cy="0" r="3" fill="#2563eb"></circle><circle class="dot" cx="689.9403578528827" cy="0" r="3" fill="#2563eb"></circle><circle class="dot" cx="691.3717693836978" cy="0" r="3" fill="#2563eb"></circle><circle class="dot" cx="692.803180914513" cy="0" r="3" fill="#2563eb"></circle><circle class="dot" cx="694.2345924453281" cy="0" r="3" fill="#2563eb"></circle><circle class="dot" cx="695.6660039761432" cy="0" r="3" fill="#2563eb"></circle><circle class="dot" cx="697.0974155069583" cy="0" r="3" fill="#2563eb"></circle><circle class="dot" cx="698.5288270377733" cy="0" r="3" fill="#2563eb"></circle><circle class="dot" cx="699.9602385685885" cy="0" r="3" fill="#2563eb"></circle><circle class="dot" cx="701.3916500994036" cy="0" r="3" fill="#2563eb"></circle><circle class="dot" cx="702.8230616302187" cy="0" r="3" fill="#2563eb"></circle><circle class="dot" cx="704.2544731610338" cy="0" r="3" fill="#2563eb"></circle><circle class="dot" cx="705.6858846918489" cy="0" r="3" fill="#2563eb"></circle><circle class="dot" cx="707.117296222664" cy="0" r="3" fill="#2563eb"></circle><circle class="dot" cx="708.5487077534791" cy="0" r="3" fill="#2563eb"></circle><circle class="dot" cx="709.9801192842942" cy="0" r="3" fill="#2563eb"></circle><circle class="dot" cx="711.4115308151094" cy="0" r="3" fill="#2563eb"></circle><circle class="dot" cx="712.8429423459245" cy="0" r="3" fill="#2563eb"></circle><circle class="dot" cx="714.2743538767396" cy="0" r="3" fill="#2563eb"></circle><circle class="dot" cx="715.7057654075547" cy="0" r="3" fill="#2563eb"></circle><circle class="dot" cx="717.1371769383697" cy="0" r="3" fill="#2563eb"></circle><circle class="dot" cx="718.5685884691849" cy="0" r="3" fill="#2563eb"></circle><circle class="dot" cx="720" cy="0" r="3" fill="#2563eb"></circle><g class="grid" transform="translate(0,340)" fill="none" font-size="10" font-family="sans-serif" text-anchor="middle" style="stroke-dasharray: 3,3; opacity: 0.3;"><path class="domain" stroke="currentColor" d="M0.5,-340V0.5H720.5V-340"></path><g class="tick" opacity="1" transform="translate(0.5,0)"><line stroke="currentColor" y2="-340"></line><text fill="currentColor" y="3" dy="0.71em"></text></g><g class="tick" opacity="1" transform="translate(34.85387673956262,0)"><line stroke="currentColor" y2="-340"></line><text fill="currentColor" y="3" dy="0.71em"></text></g><g class="tick" opacity="1" transform="translate(69.20775347912524,0)"><line stroke="currentColor" y2="-340"></line><text fill="currentColor" y="3" dy="0.71em"></text></g><g class="tick" opacity="1" transform="translate(103.56163021868787,0)"><line stroke="currentColor" y2="-340"></line><text fill="currentColor" y="3" dy="0.71em"></text></g><g class="tick" opacity="1" transform="translate(137.9155069582505,0)"><line stroke="currentColor" y2="-340"></line><text fill="currentColor" y="3" dy="0.71em"></text></g><g class="tick" opacity="1" transform="translate(172.2693836978131,0)"><line stroke="currentColor" y2="-340"></line><text fill="currentColor" y="3" dy="0.71em"></text></g><g class="tick" opacity="1" transform="translate(206.62326043737573,0)"><line stroke="currentColor" y2="-340"></line><text fill="currentColor" y="3" dy="0.71em"></text></g><g class="tick" opacity="1" transform="translate(240.97713717693836,0)"><line stroke="currentColor" y2="-340"></line><text fill="currentColor" y="3" dy="0.71em"></text></g><g class="tick" opacity="1" transform="translate(275.331013916501,0)"><line stroke="currentColor" y2="-340"></line><text fill="currentColor" y="3" dy="0.71em"></text></g><g class="tick" opacity="1" transform="translate(309.6848906560636,0)"><line stroke="currentColor" y2="-340"></line><text fill="currentColor" y="3" dy="0.71em"></text></g><g class="tick" opacity="1" transform="translate(344.0387673956262,0)"><line stroke="currentColor" y2="-340"></line><text fill="currentColor" y="3" dy="0.71em"></text></g><g class="tick" opacity="1" transform="translate(378.3926441351889,0)"><line stroke="currentColor" y2="-340"></line><text fill="currentColor" y="3" dy="0.71em"></text></g><g class="tick" opacity="1" transform="translate(412.74652087475147,0)"><line stroke="currentColor" y2="-340"></line><text fill="currentColor" y="3" dy="0.71em"></text></g><g class="tick" opacity="1" transform="translate(447.10039761431415,0)"><line stroke="currentColor" y2="-340"></line><text fill="currentColor" y="3" dy="0.71em"></text></g><g class="tick" opacity="1" transform="translate(481.4542743538767,0)"><line stroke="currentColor" y2="-340"></line><text fill="currentColor" y="3" dy="0.71em"></text></g><g class="tick" opacity="1" transform="translate(515.8081510934394,0)"><line stroke="currentColor" y2="-340"></line><text fill="currentColor" y="3" dy="0.71em"></text></g><g class="tick" opacity="1" transform="translate(550.162027833002,0)"><line stroke="currentColor" y2="-340"></line><text fill="currentColor" y="3" dy="0.71em"></text></g><g class="tick" opacity="1" transform="translate(584.5159045725646,0)"><line stroke="currentColor" y2="-340"></line><text fill="currentColor" y="3" dy="0.71em"></text></g><g class="tick" opacity="1" transform="translate(618.8697813121272,0)"><line stroke="currentColor" y2="-340"></line><text fill="currentColor" y="3" dy="0.71em"></text></g><g class="tick" opacity="1" transform="translate(653.2236580516899,0)"><line stroke="currentColor" y2="-340"></line><text fill="currentColor" y="3" dy="0.71em"></text></g><g class="tick" opacity="1" transform="translate(687.5775347912524,0)"><line stroke="currentColor" y2="-340"></line><text fill="currentColor" y="3" dy="0.71em"></text></g></g><g class="grid" fill="none" font-size="10" font-family="sans-serif" text-anchor="end" style="stroke-dasharray: 3,3; opacity: 0.3;"><path class="domain" stroke="currentColor" d="M720,340.5H0.5V0.5H720"></path><g class="tick" opacity="1" transform="translate(0,340.5)"><line stroke="currentColor" x2="720"></line><text fill="currentColor" x="-3" dy="0.32em"></text></g><g class="tick" opacity="1" transform="translate(0,312.16666666666663)"><line stroke="currentColor" x2="720"></line><text fill="currentColor" x="-3" dy="0.32em"></text></g><g class="tick" opacity="1" transform="translate(0,283.83333333333326)"><line stroke="currentColor" x2="720"></line><text fill="currentColor" x="-3" dy="0.32em"></text></g><g class="tick" opacity="1" transform="translate(0,255.49999999999991)"><line stroke="currentColor" x2="720"></line><text fill="currentColor" x="-3" dy="0.32em"></text></g><g class="tick" opacity="1" transform="translate(0,227.16666666666654)"><line stroke="currentColor" x2="720"></line><text fill="currentColor" x="-3" dy="0.32em"></text></g><g class="tick" opacity="1" transform="translate(0,198.83333333333314)"><line stroke="currentColor" x2="720"></line><text fill="currentColor" x="-3" dy="0.32em"></text></g><g class="tick" opacity="1" transform="translate(0,170.4999999999998)"><line stroke="currentColor" x2="720"></line><text fill="currentColor" x="-3" dy="0.32em"></text></g><g class="tick" opacity="1" transform="translate(0,142.16666666666686)"><line stroke="currentColor" x2="720"></line><text fill="currentColor" x="-3" dy="0.32em"></text></g><g class="tick" opacity="1" transform="translate(0,113.83333333333346)"><line stroke="currentColor" x2="720"></line><text fill="currentColor" x="-3" dy="0.32em"></text></g><g class="tick" opacity="1" transform="translate(0,85.50000000000011)"><line stroke="currentColor" x2="720"></line><text fill="currentColor" x="-3" dy="0.32em"></text></g><g class="tick" opacity="1" transform="translate(0,57.16666666666673)"><line stroke="currentColor" x2="720"></line><text fill="currentColor" x="-3" dy="0.32em"></text></g><g class="tick" opacity="1" transform="translate(0,28.833333333333385)"><line stroke="currentColor" x2="720"></line><text fill="currentColor" x="-3" dy="0.32em"></text></g><g class="tick" opacity="1" transform="translate(0,0.5)"><line stroke="currentColor" x2="720"></line><text fill="currentColor" x="-3" dy="0.32em"></text></g></g></g><text x="400" y="10" text-anchor="middle" style="font-size: 16px; font-weight: bold; fill: #333;">OKX USDT Lending Rate - Current Month</text></svg>