<svg width="800" height="400" xmlns="http://www.w3.org/2000/svg"><g transform="translate(50,20)"><g transform="translate(0,340)" fill="none" font-size="10" font-family="sans-serif" text-anchor="middle"><path class="domain" stroke="currentColor" d="M0.5,6V0.5H720.5V6"></path><g class="tick" opacity="1" transform="translate(0.5,0)"><line stroke="currentColor" y2="6"></line><text fill="currentColor" y="9" dy=".15em" style="text-anchor: end;" dx="-.8em" transform="rotate(-45)">04/01</text></g><g class="tick" opacity="1" transform="translate(33.04237288135593,0)"><line stroke="currentColor" y2="6"></line><text fill="currentColor" y="9" dy=".15em" style="text-anchor: end;" dx="-.8em" transform="rotate(-45)">04/02</text></g><g class="tick" opacity="1" transform="translate(65.58474576271186,0)"><line stroke="currentColor" y2="6"></line><text fill="currentColor" y="9" dy=".15em" style="text-anchor: end;" dx="-.8em" transform="rotate(-45)">04/03</text></g><g class="tick" opacity="1" transform="translate(98.12711864406779,0)"><line stroke="currentColor" y2="6"></line><text fill="currentColor" y="9" dy=".15em" style="text-anchor: end;" dx="-.8em" transform="rotate(-45)">04/04</text></g><g class="tick" opacity="1" transform="translate(130.66949152542372,0)"><line stroke="currentColor" y2="6"></line><text fill="currentColor" y="9" dy=".15em" style="text-anchor: end;" dx="-.8em" transform="rotate(-45)">04/05</text></g><g class="tick" opacity="1" transform="translate(163.21186440677965,0)"><line stroke="currentColor" y2="6"></line><text fill="currentColor" y="9" dy=".15em" style="text-anchor: end;" dx="-.8em" transform="rotate(-45)">04/06</text></g><g class="tick" opacity="1" transform="translate(195.75423728813558,0)"><line stroke="currentColor" y2="6"></line><text fill="currentColor" y="9" dy=".15em" style="text-anchor: end;" dx="-.8em" transform="rotate(-45)">04/07</text></g><g class="tick" opacity="1" transform="translate(228.29661016949154,0)"><line stroke="currentColor" y2="6"></line><text fill="currentColor" y="9" dy=".15em" style="text-anchor: end;" dx="-.8em" transform="rotate(-45)">04/08</text></g><g class="tick" opacity="1" transform="translate(260.83898305084745,0)"><line stroke="currentColor" y2="6"></line><text fill="currentColor" y="9" dy=".15em" style="text-anchor: end;" dx="-.8em" transform="rotate(-45)">04/09</text></g><g class="tick" opacity="1" transform="translate(293.3813559322034,0)"><line stroke="currentColor" y2="6"></line><text fill="currentColor" y="9" dy=".15em" style="text-anchor: end;" dx="-.8em" transform="rotate(-45)">04/10</text></g><g class="tick" opacity="1" transform="translate(325.9237288135593,0)"><line stroke="currentColor" y2="6"></line><text fill="currentColor" y="9" dy=".15em" style="text-anchor: end;" dx="-.8em" transform="rotate(-45)">04/11</text></g><g class="tick" opacity="1" transform="translate(358.46610169491527,0)"><line stroke="currentColor" y2="6"></line><text fill="currentColor" y="9" dy=".15em" style="text-anchor: end;" dx="-.8em" transform="rotate(-45)">04/12</text></g><g class="tick" opacity="1" transform="translate(391.00847457627117,0)"><line stroke="currentColor" y2="6"></line><text fill="currentColor" y="9" dy=".15em" style="text-anchor: end;" dx="-.8em" transform="rotate(-45)">04/13</text></g><g class="tick" opacity="1" transform="translate(423.5508474576271,0)"><line stroke="currentColor" y2="6"></line><text fill="currentColor" y="9" dy=".15em" style="text-anchor: end;" dx="-.8em" transform="rotate(-45)">04/14</text></g><g class="tick" opacity="1" transform="translate(456.0932203389831,0)"><line stroke="currentColor" y2="6"></line><text fill="currentColor" y="9" dy=".15em" style="text-anchor: end;" dx="-.8em" transform="rotate(-45)">04/15</text></g><g class="tick" opacity="1" transform="translate(488.63559322033893,0)"><line stroke="currentColor" y2="6"></line><text fill="currentColor" y="9" dy=".15em" style="text-anchor: end;" dx="-.8em" transform="rotate(-45)">04/16</text></g><g class="tick" opacity="1" transform="translate(521.1779661016949,0)"><line stroke="currentColor" y2="6"></line><text fill="currentColor" y="9" dy=".15em" style="text-anchor: end;" dx="-.8em" transform="rotate(-45)">04/17</text></g><g class="tick" opacity="1" transform="translate(553.7203389830509,0)"><line stroke="currentColor" y2="6"></line><text fill="currentColor" y="9" dy=".15em" style="text-anchor: end;" dx="-.8em" transform="rotate(-45)">04/18</text></g><g class="tick" opacity="1" transform="translate(586.2627118644068,0)"><line stroke="currentColor" y2="6"></line><text fill="currentColor" y="9" dy=".15em" style="text-anchor: end;" dx="-.8em" transform="rotate(-45)">04/19</text></g><g class="tick" opacity="1" transform="translate(618.8050847457627,0)"><line stroke="currentColor" y2="6"></line><text fill="currentColor" y="9" dy=".15em" style="text-anchor: end;" dx="-.8em" transform="rotate(-45)">04/20</text></g><g class="tick" opacity="1" transform="translate(651.3474576271186,0)"><line stroke="currentColor" y2="6"></line><text fill="currentColor" y="9" dy=".15em" style="text-anchor: end;" dx="-.8em" transform="rotate(-45)">04/21</text></g><g class="tick" opacity="1" transform="translate(683.8898305084746,0)"><line stroke="currentColor" y2="6"></line><text fill="currentColor" y="9" dy=".15em" style="text-anchor: end;" dx="-.8em" transform="rotate(-45)">04/22</text></g><g class="tick" opacity="1" transform="translate(716.4322033898305,0)"><line stroke="currentColor" y2="6"></line><text fill="currentColor" y="9" dy=".15em" style="text-anchor: end;" dx="-.8em" transform="rotate(-45)">04/23</text></g></g><g fill="none" font-size="10" font-family="sans-serif" text-anchor="end"><path class="domain" stroke="currentColor" d="M-6,340.5H0.5V0.5H-6"></path><g class="tick" opacity="1" transform="translate(0,170.5)"><line stroke="currentColor" x2="-6"></line><text fill="currentColor" x="-9" dy="0.32em">2.50%</text></g></g><text transform="rotate(-90)" y="-50" x="-170" dy="1em" style="text-anchor: middle; font-size: 12px; fill: #666;">Pre Rate (%)</text><text transform="translate(360, 380)" style="text-anchor: middle; font-size: 12px; fill: #666;">Time (UTC)</text><path fill="none" stroke="#2563eb" stroke-width="2" d="M0,170C0.452,170,0.904,170,1.356,170C1.808,170,2.26,170,2.712,170C3.164,170,3.616,170,4.068,170C4.52,170,4.972,170,5.424,170C5.876,170,6.328,170,6.78,170C7.232,170,7.684,170,8.136,170C8.588,170,9.04,170,9.492,170C9.944,170,10.395,170,10.847,170C11.299,170,11.751,170,12.203,170C12.655,170,13.107,170,13.559,170C14.011,170,14.463,170,14.915,170C15.367,170,15.819,170,16.271,170C16.723,170,17.175,170,17.627,170C18.079,170,18.531,170,18.983,170C19.435,170,19.887,170,20.339,170C20.791,170,21.243,170,21.695,170C22.147,170,22.599,170,23.051,170C23.503,170,23.955,170,24.407,170C24.859,170,25.311,170,25.763,170C26.215,170,26.667,170,27.119,170C27.571,170,28.023,170,28.475,170C28.927,170,29.379,170,29.831,170C30.282,170,30.734,170,31.186,170C31.638,170,32.09,170,32.542,170C32.994,170,33.446,170,33.898,170C34.35,170,34.802,170,35.254,170C35.706,170,36.158,170,36.61,170C37.062,170,37.514,170,37.966,170C38.418,170,38.87,170,39.322,170C39.774,170,40.226,170,40.678,170C41.13,170,41.582,170,42.034,170C42.486,170,42.938,170,43.39,170C43.842,170,44.294,170,44.746,170C45.198,170,45.65,170,46.102,170C46.554,170,47.006,170,47.458,170C47.91,170,48.362,170,48.814,170C49.266,170,49.718,170,50.169,170C50.621,170,51.073,170,51.525,170C51.977,170,52.429,170,52.881,170C53.333,170,53.785,170,54.237,170C54.689,170,55.141,170,55.593,170C56.045,170,56.497,170,56.949,170C57.401,170,57.853,170,58.305,170C58.757,170,59.209,170,59.661,170C60.113,170,60.565,170,61.017,170C61.469,170,61.921,170,62.373,170C62.825,170,63.277,170,63.729,170C64.181,170,64.633,170,65.085,170C65.537,170,65.989,170,66.441,170C66.893,170,67.345,170,67.797,170C68.249,170,68.701,170,69.153,170C69.605,170,70.056,170,70.508,170C70.96,170,71.412,170,71.864,170C72.316,170,72.768,170,73.22,170C73.672,170,74.124,170,74.576,170C75.028,170,75.48,170,75.932,170C76.384,170,76.836,170,77.288,170C77.74,170,78.192,170,78.644,170C79.096,170,79.548,170,80,170C80.452,170,80.904,170,81.356,170C81.808,170,82.26,170,82.712,170C83.164,170,83.616,170,84.068,170C84.52,170,84.972,170,85.424,170C85.876,170,86.328,170,86.78,170C87.232,170,87.684,170,88.136,170C88.588,170,89.04,170,89.492,170C89.944,170,90.395,170,90.847,170C91.299,170,91.751,170,92.203,170C92.655,170,93.107,170,93.559,170C94.011,170,94.463,170,94.915,170C95.367,170,95.819,170,96.271,170C96.723,170,97.175,170,97.627,170C98.079,170,98.531,170,98.983,170C99.435,170,99.887,170,100.339,170C100.791,170,101.243,170,101.695,170C102.147,170,102.599,170,103.051,170C103.503,170,103.955,170,104.407,170C104.859,170,105.311,170,105.763,170C106.215,170,106.667,170,107.119,170C107.571,170,108.023,170,108.475,170C108.927,170,109.379,170,109.831,170C110.282,170,110.734,170,111.186,170C111.638,170,112.09,170,112.542,170C112.994,170,113.446,170,113.898,170C114.35,170,114.802,170,115.254,170C115.706,170,116.158,170,116.61,170C117.062,170,117.514,170,117.966,170C118.418,170,118.87,170,119.322,170C119.774,170,120.226,170,120.678,170C121.13,170,121.582,170,122.034,170C122.486,170,122.938,170,123.39,170C123.842,170,124.294,170,124.746,170C125.198,170,125.65,170,126.102,170C126.554,170,127.006,170,127.458,170C127.91,170,128.362,170,128.814,170C129.266,170,129.718,170,130.169,170C130.621,170,131.073,170,131.525,170C131.977,170,132.429,170,132.881,170C133.333,170,133.785,170,134.237,170C134.689,170,135.141,170,135.593,170C136.045,170,136.497,170,136.949,170C137.401,170,137.853,170,138.305,170C138.757,170,139.209,170,139.661,170C140.113,170,140.565,170,141.017,170C141.469,170,141.921,170,142.373,170C142.825,170,143.277,170,143.729,170C144.181,170,144.633,170,145.085,170C145.537,170,145.989,170,146.441,170C146.893,170,147.345,170,147.797,170C148.249,170,148.701,170,149.153,170C149.605,170,150.056,170,150.508,170C150.96,170,151.412,170,151.864,170C152.316,170,152.768,170,153.22,170C153.672,170,154.124,170,154.576,170C155.028,170,155.48,170,155.932,170C156.384,170,156.836,170,157.288,170C157.74,170,158.192,170,158.644,170C159.096,170,159.548,170,160,170C160.452,170,160.904,170,161.356,170C161.808,170,162.26,170,162.712,170C163.164,170,163.616,170,164.068,170C164.52,170,164.972,170,165.424,170C165.876,170,166.328,170,166.78,170C167.232,170,167.684,170,168.136,170C168.588,170,169.04,170,169.492,170C169.944,170,170.395,170,170.847,170C171.299,170,171.751,170,172.203,170C172.655,170,173.107,170,173.559,170C174.011,170,174.463,170,174.915,170C175.367,170,175.819,170,176.271,170C176.723,170,177.175,170,177.627,170C178.079,170,178.531,170,178.983,170C179.435,170,179.887,170,180.339,170C180.791,170,181.243,170,181.695,170C182.147,170,182.599,170,183.051,170C183.503,170,183.955,170,184.407,170C184.859,170,185.311,170,185.763,170C186.215,170,186.667,170,187.119,170C187.571,170,188.023,170,188.475,170C188.927,170,189.379,170,189.831,170C190.282,170,190.734,170,191.186,170C191.638,170,192.09,170,192.542,170C192.994,170,193.446,170,193.898,170C194.35,170,194.802,170,195.254,170C195.706,170,196.158,170,196.61,170C197.062,170,197.514,170,197.966,170C198.418,170,198.87,170,199.322,170C199.774,170,200.226,170,200.678,170C201.13,170,201.582,170,202.034,170C202.486,170,202.938,170,203.39,170C203.842,170,204.294,170,204.746,170C205.198,170,205.65,170,206.102,170C206.554,170,207.006,170,207.458,170C207.91,170,208.362,170,208.814,170C209.266,170,209.718,170,210.169,170C210.621,170,211.073,170,211.525,170C211.977,170,212.429,170,212.881,170C213.333,170,213.785,170,214.237,170C214.689,170,215.141,170,215.593,170C216.045,170,216.497,170,216.949,170C217.401,170,217.853,170,218.305,170C218.757,170,219.209,170,219.661,170C220.113,170,220.565,170,221.017,170C221.469,170,221.921,170,222.373,170C222.825,170,223.277,170,223.729,170C224.181,170,224.633,170,225.085,170C225.537,170,225.989,170,226.441,170C226.893,170,227.345,170,227.797,170C228.249,170,228.701,170,229.153,170C229.605,170,230.056,170,230.508,170C230.96,170,231.412,170,231.864,170C232.316,170,232.768,170,233.22,170C233.672,170,234.124,170,234.576,170C235.028,170,235.48,170,235.932,170C236.384,170,236.836,170,237.288,170C237.74,170,238.192,170,238.644,170C239.096,170,239.548,170,240,170C240.452,170,240.904,170,241.356,170C241.808,170,242.26,170,242.712,170C243.164,170,243.616,170,244.068,170C244.52,170,244.972,170,245.424,170C245.876,170,246.328,170,246.78,170C247.232,170,247.684,170,248.136,170C248.588,170,249.04,170,249.492,170C249.944,170,250.395,170,250.847,170C251.299,170,251.751,170,252.203,170C252.655,170,253.107,170,253.559,170C254.011,170,254.463,170,254.915,170C255.367,170,255.819,170,256.271,170C256.723,170,257.175,170,257.627,170C258.079,170,258.531,170,258.983,170C259.435,170,259.887,170,260.339,170C260.791,170,261.243,170,261.695,170C262.147,170,262.599,170,263.051,170C263.503,170,263.955,170,264.407,170C264.859,170,265.311,170,265.763,170C266.215,170,266.667,170,267.119,170C267.571,170,268.023,170,268.475,170C268.927,170,269.379,170,269.831,170C270.282,170,270.734,170,271.186,170C271.638,170,272.09,170,272.542,170C272.994,170,273.446,170,273.898,170C274.35,170,274.802,170,275.254,170C275.706,170,276.158,170,276.61,170C277.062,170,277.514,170,277.966,170C278.418,170,278.87,170,279.322,170C279.774,170,280.226,170,280.678,170C281.13,170,281.582,170,282.034,170C282.486,170,282.938,170,283.39,170C283.842,170,284.294,170,284.746,170C285.198,170,285.65,170,286.102,170C286.554,170,287.006,170,287.458,170C287.91,170,288.362,170,288.814,170C289.266,170,289.718,170,290.169,170C290.621,170,291.073,170,291.525,170C291.977,170,292.429,170,292.881,170C293.333,170,293.785,170,294.237,170C294.689,170,295.141,170,295.593,170C296.045,170,296.497,170,296.949,170C297.401,170,297.853,170,298.305,170C298.757,170,299.209,170,299.661,170C300.113,170,300.565,170,301.017,170C301.469,170,301.921,170,302.373,170C302.825,170,303.277,170,303.729,170C304.181,170,304.633,170,305.085,170C305.537,170,305.989,170,306.441,170C306.893,170,307.345,170,307.797,170C308.249,170,308.701,170,309.153,170C309.605,170,310.056,170,310.508,170C310.96,170,311.412,170,311.864,170C312.316,170,312.768,170,313.22,170C313.672,170,314.124,170,314.576,170C315.028,170,315.48,170,315.932,170C316.384,170,316.836,170,317.288,170C317.74,170,318.192,170,318.644,170C319.096,170,319.548,170,320,170C320.452,170,320.904,170,321.356,170C321.808,170,322.26,170,322.712,170C323.164,170,323.616,170,324.068,170C324.52,170,324.972,170,325.424,170C325.876,170,326.328,170,326.78,170C327.232,170,327.684,170,328.136,170C328.588,170,329.04,170,329.492,170C329.944,170,330.395,170,330.847,170C331.299,170,331.751,170,332.203,170C332.655,170,333.107,170,333.559,170C334.011,170,334.463,170,334.915,170C335.367,170,335.819,170,336.271,170C336.723,170,337.175,170,337.627,170C338.079,170,338.531,170,338.983,170C339.435,170,339.887,170,340.339,170C340.791,170,341.243,170,341.695,170C342.147,170,342.599,170,343.051,170C343.503,170,343.955,170,344.407,170C344.859,170,345.311,170,345.763,170C346.215,170,346.667,170,347.119,170C347.571,170,348.023,170,348.475,170C348.927,170,349.379,170,349.831,170C350.282,170,350.734,170,351.186,170C351.638,170,352.09,170,352.542,170C352.994,170,353.446,170,353.898,170C354.35,170,354.802,170,355.254,170C355.706,170,356.158,170,356.61,170C357.062,170,357.514,170,357.966,170C358.418,170,358.87,170,359.322,170C359.774,170,360.226,170,360.678,170C361.13,170,361.582,170,362.034,170C362.486,170,362.938,170,363.39,170C363.842,170,364.294,170,364.746,170C365.198,170,365.65,170,366.102,170C366.554,170,367.006,170,367.458,170C367.91,170,368.362,170,368.814,170C369.266,170,369.718,170,370.169,170C370.621,170,371.073,170,371.525,170C371.977,170,372.429,170,372.881,170C373.333,170,373.785,170,374.237,170C374.689,170,375.141,170,375.593,170C376.045,170,376.497,170,376.949,170C377.401,170,377.853,170,378.305,170C378.757,170,379.209,170,379.661,170C380.113,170,380.565,170,381.017,170C381.469,170,381.921,170,382.373,170C382.825,170,383.277,170,383.729,170C384.181,170,384.633,170,385.085,170C385.537,170,385.989,170,386.441,170C386.893,170,387.345,170,387.797,170C388.249,170,388.701,170,389.153,170C389.605,170,390.056,170,390.508,170C390.96,170,391.412,170,391.864,170C392.316,170,392.768,170,393.22,170C393.672,170,394.124,170,394.576,170C395.028,170,395.48,170,395.932,170C396.384,170,396.836,170,397.288,170C397.74,170,398.192,170,398.644,170C399.096,170,399.548,170,400,170C400.452,170,400.904,170,401.356,170C401.808,170,402.26,170,402.712,170C403.164,170,403.616,170,404.068,170C404.52,170,404.972,170,405.424,170C405.876,170,406.328,170,406.78,170C407.232,170,407.684,170,408.136,170C408.588,170,409.04,170,409.492,170C409.944,170,410.395,170,410.847,170C411.299,170,411.751,170,412.203,170C412.655,170,413.107,170,413.559,170C414.011,170,414.463,170,414.915,170C415.367,170,415.819,170,416.271,170C416.723,170,417.175,170,417.627,170C418.079,170,418.531,170,418.983,170C419.435,170,419.887,170,420.339,170C420.791,170,421.243,170,421.695,170C422.147,170,422.599,170,423.051,170C423.503,170,423.955,170,424.407,170C424.859,170,425.311,170,425.763,170C426.215,170,426.667,170,427.119,170C427.571,170,428.023,170,428.475,170C428.927,170,429.379,170,429.831,170C430.282,170,430.734,170,431.186,170C431.638,170,432.09,170,432.542,170C432.994,170,433.446,170,433.898,170C434.35,170,434.802,170,435.254,170C435.706,170,436.158,170,436.61,170C437.062,170,437.514,170,437.966,170C438.418,170,438.87,170,439.322,170C439.774,170,440.226,170,440.678,170C441.13,170,441.582,170,442.034,170C442.486,170,442.938,170,443.39,170C443.842,170,444.294,170,444.746,170C445.198,170,445.65,170,446.102,170C446.554,170,447.006,170,447.458,170C447.91,170,448.362,170,448.814,170C449.266,170,449.718,170,450.169,170C450.621,170,451.073,170,451.525,170C451.977,170,452.429,170,452.881,170C453.333,170,453.785,170,454.237,170C454.689,170,455.141,170,455.593,170C456.045,170,456.497,170,456.949,170C457.401,170,457.853,170,458.305,170C458.757,170,459.209,170,459.661,170C460.113,170,460.565,170,461.017,170C461.469,170,461.921,170,462.373,170C462.825,170,463.277,170,463.729,170C464.181,170,464.633,170,465.085,170C465.537,170,465.989,170,466.441,170C466.893,170,467.345,170,467.797,170C468.249,170,468.701,170,469.153,170C469.605,170,470.056,170,470.508,170C470.96,170,471.412,170,471.864,170C472.316,170,472.768,170,473.22,170C473.672,170,474.124,170,474.576,170C475.028,170,475.48,170,475.932,170C476.384,170,476.836,170,477.288,170C477.74,170,478.192,170,478.644,170C479.096,170,479.548,170,480,170C480.452,170,480.904,170,481.356,170C481.808,170,482.26,170,482.712,170C483.164,170,483.616,170,484.068,170C484.52,170,484.972,170,485.424,170C485.876,170,486.328,170,486.78,170C487.232,170,487.684,170,488.136,170C488.588,170,489.04,170,489.492,170C489.944,170,490.395,170,490.847,170C491.299,170,491.751,170,492.203,170C492.655,170,493.107,170,493.559,170C494.011,170,494.463,170,494.915,170C495.367,170,495.819,170,496.271,170C496.723,170,497.175,170,497.627,170C498.079,170,498.531,170,498.983,170C499.435,170,499.887,170,500.339,170C500.791,170,501.243,170,501.695,170C502.147,170,502.599,170,503.051,170C503.503,170,503.955,170,504.407,170C504.859,170,505.311,170,505.763,170C506.215,170,506.667,170,507.119,170C507.571,170,508.023,170,508.475,170C508.927,170,509.379,170,509.831,170C510.282,170,510.734,170,511.186,170C511.638,170,512.09,170,512.542,170C512.994,170,513.446,170,513.898,170C514.35,170,514.802,170,515.254,170C515.706,170,516.158,170,516.61,170C517.062,170,517.514,170,517.966,170C518.418,170,518.87,170,519.322,170C519.774,170,520.226,170,520.678,170C521.13,170,521.582,170,522.034,170C522.486,170,522.938,170,523.39,170C523.842,170,524.294,170,524.746,170C525.198,170,525.65,170,526.102,170C526.554,170,527.006,170,527.458,170C527.91,170,528.362,170,528.814,170C529.266,170,529.718,170,530.169,170C530.621,170,531.073,170,531.525,170C531.977,170,532.429,170,532.881,170C533.333,170,533.785,170,534.237,170C534.689,170,535.141,170,535.593,170C536.045,170,536.497,170,536.949,170C537.401,170,537.853,170,538.305,170C538.757,170,539.209,170,539.661,170C540.113,170,540.565,170,541.017,170C541.469,170,541.921,170,542.373,170C542.825,170,543.277,170,543.729,170C544.181,170,544.633,170,545.085,170C545.537,170,545.989,170,546.441,170C546.893,170,547.345,170,547.797,170C548.249,170,548.701,170,549.153,170C549.605,170,550.056,170,550.508,170C550.96,170,551.412,170,551.864,170C552.316,170,552.768,170,553.22,170C553.672,170,554.124,170,554.576,170C555.028,170,555.48,170,555.932,170C556.384,170,556.836,170,557.288,170C557.74,170,558.192,170,558.644,170C559.096,170,559.548,170,560,170C560.452,170,560.904,170,561.356,170C561.808,170,562.26,170,562.712,170C563.164,170,563.616,170,564.068,170C564.52,170,564.972,170,565.424,170C565.876,170,566.328,170,566.78,170C567.232,170,567.684,170,568.136,170C568.588,170,569.04,170,569.492,170C569.944,170,570.395,170,570.847,170C571.299,170,571.751,170,572.203,170C572.655,170,573.107,170,573.559,170C574.011,170,574.463,170,574.915,170C575.367,170,575.819,170,576.271,170C576.723,170,577.175,170,577.627,170C578.079,170,578.531,170,578.983,170C579.435,170,579.887,170,580.339,170C580.791,170,581.243,170,581.695,170C582.147,170,582.599,170,583.051,170C583.503,170,583.955,170,584.407,170C584.859,170,585.311,170,585.763,170C586.215,170,586.667,170,587.119,170C587.571,170,588.023,170,588.475,170C588.927,170,589.379,170,589.831,170C590.282,170,590.734,170,591.186,170C591.638,170,592.09,170,592.542,170C592.994,170,593.446,170,593.898,170C594.35,170,594.802,170,595.254,170C595.706,170,596.158,170,596.61,170C597.062,170,597.514,170,597.966,170C598.418,170,598.87,170,599.322,170C599.774,170,600.226,170,600.678,170C601.13,170,601.582,170,602.034,170C602.486,170,602.938,170,603.39,170C603.842,170,604.294,170,604.746,170C605.198,170,605.65,170,606.102,170C606.554,170,607.006,170,607.458,170C607.91,170,608.362,170,608.814,170C609.266,170,609.718,170,610.169,170C610.621,170,611.073,170,611.525,170C611.977,170,612.429,170,612.881,170C613.333,170,613.785,170,614.237,170C614.689,170,615.141,170,615.593,170C616.045,170,616.497,170,616.949,170C617.401,170,617.853,170,618.305,170C618.757,170,619.209,170,619.661,170C620.113,170,620.565,170,621.017,170C621.469,170,621.921,170,622.373,170C622.825,170,623.277,170,623.729,170C624.181,170,624.633,170,625.085,170C625.537,170,625.989,170,626.441,170C626.893,170,627.345,170,627.797,170C628.249,170,628.701,170,629.153,170C629.605,170,630.056,170,630.508,170C630.96,170,631.412,170,631.864,170C632.316,170,632.768,170,633.22,170C633.672,170,634.124,170,634.576,170C635.028,170,635.48,170,635.932,170C636.384,170,636.836,170,637.288,170C637.74,170,638.192,170,638.644,170C639.096,170,639.548,170,640,170C640.452,170,640.904,170,641.356,170C641.808,170,642.26,170,642.712,170C643.164,170,643.616,170,644.068,170C644.52,170,644.972,170,645.424,170C645.876,170,646.328,170,646.78,170C647.232,170,647.684,170,648.136,170C648.588,170,649.04,170,649.492,170C649.944,170,650.395,170,650.847,170C651.299,170,651.751,170,652.203,170C652.655,170,653.107,170,653.559,170C654.011,170,654.463,170,654.915,170C655.367,170,655.819,170,656.271,170C656.723,170,657.175,170,657.627,170C658.079,170,658.531,170,658.983,170C659.435,170,659.887,170,660.339,170C660.791,170,661.243,170,661.695,170C662.147,170,662.599,170,663.051,170C663.503,170,663.955,170,664.407,170C664.859,170,665.311,170,665.763,170C666.215,170,666.667,170,667.119,170C667.571,170,668.023,170,668.475,170C668.927,170,669.379,170,669.831,170C670.282,170,670.734,170,671.186,170C671.638,170,672.09,170,672.542,170C672.994,170,673.446,170,673.898,170C674.35,170,674.802,170,675.254,170C675.706,170,676.158,170,676.61,170C677.062,170,677.514,170,677.966,170C678.418,170,678.87,170,679.322,170C679.774,170,680.226,170,680.678,170C681.13,170,681.582,170,682.034,170C682.486,170,682.938,170,683.39,170C683.842,170,684.294,170,684.746,170C685.198,170,685.65,170,686.102,170C686.554,170,687.006,170,687.458,170C687.91,170,688.362,170,688.814,170C689.266,170,689.718,170,690.169,170C690.621,170,691.073,170,691.525,170C691.977,170,692.429,170,692.881,170C693.333,170,693.785,170,694.237,170C694.689,170,695.141,170,695.593,170C696.045,170,696.497,170,696.949,170C697.401,170,697.853,170,698.305,170C698.757,170,699.209,170,699.661,170C700.113,170,700.565,170,701.017,170C701.469,170,701.921,170,702.373,170C702.825,170,703.277,170,703.729,170C704.181,170,704.633,170,705.085,170C705.537,170,705.989,170,706.441,170C706.893,170,707.345,170,707.797,170C708.249,170,708.701,170,709.153,170C709.605,170,710.056,170,710.508,170C710.96,170,711.412,170,711.864,170C712.316,170,712.768,170,713.22,170C713.672,170,714.124,170,714.576,170C715.028,170,715.48,170,715.932,170C716.384,170,716.836,170,717.288,170C717.74,170,718.192,170,718.644,170C719.096,170,719.548,170,720,170"></path><circle class="dot" cx="0" cy="170" r="3" fill="#2563eb"></circle><circle class="dot" cx="1.3559322033898304" cy="170" r="3" fill="#2563eb"></circle><circle class="dot" cx="2.711864406779661" cy="170" r="3" fill="#2563eb"></circle><circle class="dot" cx="4.067796610169491" cy="170" r="3" fill="#2563eb"></circle><circle class="dot" cx="5.423728813559322" cy="170" r="3" fill="#2563eb"></circle><circle class="dot" cx="6.779661016949152" cy="170" r="3" fill="#2563eb"></circle><circle class="dot" cx="8.135593220338983" cy="170" r="3" fill="#2563eb"></circle><circle class="dot" cx="9.491525423728813" cy="170" r="3" fill="#2563eb"></circle><circle class="dot" cx="10.847457627118644" cy="170" r="3" fill="#2563eb"></circle><circle class="dot" cx="12.203389830508474" cy="170" r="3" fill="#2563eb"></circle><circle class="dot" cx="13.559322033898304" cy="170" r="3" fill="#2563eb"></circle><circle class="dot" cx="14.915254237288137" cy="170" r="3" fill="#2563eb"></circle><circle class="dot" cx="16.271186440677965" cy="170" r="3" fill="#2563eb"></circle><circle class="dot" cx="17.627118644067796" cy="170" r="3" fill="#2563eb"></circle><circle class="dot" cx="18.983050847457626" cy="170" r="3" fill="#2563eb"></circle><circle class="dot" cx="20.338983050847457" cy="170" r="3" fill="#2563eb"></circle><circle class="dot" cx="21.694915254237287" cy="170" r="3" fill="#2563eb"></circle><circle class="dot" cx="23.05084745762712" cy="170" r="3" fill="#2563eb"></circle><circle class="dot" cx="24.406779661016948" cy="170" r="3" fill="#2563eb"></circle><circle class="dot" cx="25.76271186440678" cy="170" r="3" fill="#2563eb"></circle><circle class="dot" cx="27.11864406779661" cy="170" r="3" fill="#2563eb"></circle><circle class="dot" cx="28.474576271186443" cy="170" r="3" fill="#2563eb"></circle><circle class="dot" cx="29.830508474576273" cy="170" r="3" fill="#2563eb"></circle><circle class="dot" cx="31.186440677966104" cy="170" r="3" fill="#2563eb"></circle><circle class="dot" cx="32.54237288135593" cy="170" r="3" fill="#2563eb"></circle><circle class="dot" cx="33.898305084745765" cy="170" r="3" fill="#2563eb"></circle><circle class="dot" cx="35.25423728813559" cy="170" r="3" fill="#2563eb"></circle><circle class="dot" cx="36.610169491525426" cy="170" r="3" fill="#2563eb"></circle><circle class="dot" cx="37.96610169491525" cy="170" r="3" fill="#2563eb"></circle><circle class="dot" cx="39.32203389830509" cy="170" r="3" fill="#2563eb"></circle><circle class="dot" cx="40.67796610169491" cy="170" r="3" fill="#2563eb"></circle><circle class="dot" cx="42.03389830508475" cy="170" r="3" fill="#2563eb"></circle><circle class="dot" cx="43.389830508474574" cy="170" r="3" fill="#2563eb"></circle><circle class="dot" cx="44.74576271186441" cy="170" r="3" fill="#2563eb"></circle><circle class="dot" cx="46.10169491525424" cy="170" r="3" fill="#2563eb"></circle><circle class="dot" cx="47.45762711864406" cy="170" r="3" fill="#2563eb"></circle><circle class="dot" cx="48.813559322033896" cy="170" r="3" fill="#2563eb"></circle><circle class="dot" cx="50.16949152542373" cy="170" r="3" fill="#2563eb"></circle><circle class="dot" cx="51.52542372881356" cy="170" r="3" fill="#2563eb"></circle><circle class="dot" cx="52.88135593220339" cy="170" r="3" fill="#2563eb"></circle><circle class="dot" cx="54.23728813559322" cy="170" r="3" fill="#2563eb"></circle><circle class="dot" cx="55.59322033898305" cy="170" r="3" fill="#2563eb"></circle><circle class="dot" cx="56.949152542372886" cy="170" r="3" fill="#2563eb"></circle><circle class="dot" cx="58.30508474576271" cy="170" r="3" fill="#2563eb"></circle><circle class="dot" cx="59.66101694915255" cy="170" r="3" fill="#2563eb"></circle><circle class="dot" cx="61.01694915254237" cy="170" r="3" fill="#2563eb"></circle><circle class="dot" cx="62.37288135593221" cy="170" r="3" fill="#2563eb"></circle><circle class="dot" cx="63.72881355932203" cy="170" r="3" fill="#2563eb"></circle><circle class="dot" cx="65.08474576271186" cy="170" r="3" fill="#2563eb"></circle><circle class="dot" cx="66.4406779661017" cy="170" r="3" fill="#2563eb"></circle><circle class="dot" cx="67.79661016949153" cy="170" r="3" fill="#2563eb"></circle><circle class="dot" cx="69.15254237288136" cy="170" r="3" fill="#2563eb"></circle><circle class="dot" cx="70.50847457627118" cy="170" r="3" fill="#2563eb"></circle><circle class="dot" cx="71.86440677966102" cy="170" r="3" fill="#2563eb"></circle><circle class="dot" cx="73.22033898305085" cy="170" r="3" fill="#2563eb"></circle><circle class="dot" cx="74.57627118644068" cy="170" r="3" fill="#2563eb"></circle><circle class="dot" cx="75.9322033898305" cy="170" r="3" fill="#2563eb"></circle><circle class="dot" cx="77.28813559322033" cy="170" r="3" fill="#2563eb"></circle><circle class="dot" cx="78.64406779661017" cy="170" r="3" fill="#2563eb"></circle><circle class="dot" cx="80" cy="170" r="3" fill="#2563eb"></circle><circle class="dot" cx="81.35593220338983" cy="170" r="3" fill="#2563eb"></circle><circle class="dot" cx="82.71186440677967" cy="170" r="3" fill="#2563eb"></circle><circle class="dot" cx="84.0677966101695" cy="170" r="3" fill="#2563eb"></circle><circle class="dot" cx="85.42372881355932" cy="170" r="3" fill="#2563eb"></circle><circle class="dot" cx="86.77966101694915" cy="170" r="3" fill="#2563eb"></circle><circle class="dot" cx="88.13559322033899" cy="170" r="3" fill="#2563eb"></circle><circle class="dot" cx="89.49152542372882" cy="170" r="3" fill="#2563eb"></circle><circle class="dot" cx="90.84745762711866" cy="170" r="3" fill="#2563eb"></circle><circle class="dot" cx="92.20338983050848" cy="170" r="3" fill="#2563eb"></circle><circle class="dot" cx="93.5593220338983" cy="170" r="3" fill="#2563eb"></circle><circle class="dot" cx="94.91525423728812" cy="170" r="3" fill="#2563eb"></circle><circle class="dot" cx="96.27118644067797" cy="170" r="3" fill="#2563eb"></circle><circle class="dot" cx="97.62711864406779" cy="170" r="3" fill="#2563eb"></circle><circle class="dot" cx="98.98305084745762" cy="170" r="3" fill="#2563eb"></circle><circle class="dot" cx="100.33898305084746" cy="170" r="3" fill="#2563eb"></circle><circle class="dot" cx="101.69491525423729" cy="170" r="3" fill="#2563eb"></circle><circle class="dot" cx="103.05084745762711" cy="170" r="3" fill="#2563eb"></circle><circle class="dot" cx="104.40677966101694" cy="170" r="3" fill="#2563eb"></circle><circle class="dot" cx="105.76271186440678" cy="170" r="3" fill="#2563eb"></circle><circle class="dot" cx="107.11864406779661" cy="170" r="3" fill="#2563eb"></circle><circle class="dot" cx="108.47457627118644" cy="170" r="3" fill="#2563eb"></circle><circle class="dot" cx="109.83050847457628" cy="170" r="3" fill="#2563eb"></circle><circle class="dot" cx="111.1864406779661" cy="170" r="3" fill="#2563eb"></circle><circle class="dot" cx="112.54237288135593" cy="170" r="3" fill="#2563eb"></circle><circle class="dot" cx="113.89830508474577" cy="170" r="3" fill="#2563eb"></circle><circle class="dot" cx="115.2542372881356" cy="170" r="3" fill="#2563eb"></circle><circle class="dot" cx="116.61016949152543" cy="170" r="3" fill="#2563eb"></circle><circle class="dot" cx="117.96610169491525" cy="170" r="3" fill="#2563eb"></circle><circle class="dot" cx="119.3220338983051" cy="170" r="3" fill="#2563eb"></circle><circle class="dot" cx="120.67796610169492" cy="170" r="3" fill="#2563eb"></circle><circle class="dot" cx="122.03389830508473" cy="170" r="3" fill="#2563eb"></circle><circle class="dot" cx="123.38983050847459" cy="170" r="3" fill="#2563eb"></circle><circle class="dot" cx="124.74576271186442" cy="170" r="3" fill="#2563eb"></circle><circle class="dot" cx="126.10169491525423" cy="170" r="3" fill="#2563eb"></circle><circle class="dot" cx="127.45762711864406" cy="170" r="3" fill="#2563eb"></circle><circle class="dot" cx="128.8135593220339" cy="170" r="3" fill="#2563eb"></circle><circle class="dot" cx="130.16949152542372" cy="170" r="3" fill="#2563eb"></circle><circle class="dot" cx="131.52542372881356" cy="170" r="3" fill="#2563eb"></circle><circle class="dot" cx="132.8813559322034" cy="170" r="3" fill="#2563eb"></circle><circle class="dot" cx="134.23728813559322" cy="170" r="3" fill="#2563eb"></circle><circle class="dot" cx="135.59322033898306" cy="170" r="3" fill="#2563eb"></circle><circle class="dot" cx="136.94915254237287" cy="170" r="3" fill="#2563eb"></circle><circle class="dot" cx="138.3050847457627" cy="170" r="3" fill="#2563eb"></circle><circle class="dot" cx="139.66101694915255" cy="170" r="3" fill="#2563eb"></circle><circle class="dot" cx="141.01694915254237" cy="170" r="3" fill="#2563eb"></circle><circle class="dot" cx="142.3728813559322" cy="170" r="3" fill="#2563eb"></circle><circle class="dot" cx="143.72881355932205" cy="170" r="3" fill="#2563eb"></circle><circle class="dot" cx="145.08474576271186" cy="170" r="3" fill="#2563eb"></circle><circle class="dot" cx="146.4406779661017" cy="170" r="3" fill="#2563eb"></circle><circle class="dot" cx="147.79661016949152" cy="170" r="3" fill="#2563eb"></circle><circle class="dot" cx="149.15254237288136" cy="170" r="3" fill="#2563eb"></circle><circle class="dot" cx="150.50847457627117" cy="170" r="3" fill="#2563eb"></circle><circle class="dot" cx="151.864406779661" cy="170" r="3" fill="#2563eb"></circle><circle class="dot" cx="153.22033898305085" cy="170" r="3" fill="#2563eb"></circle><circle class="dot" cx="154.57627118644066" cy="170" r="3" fill="#2563eb"></circle><circle class="dot" cx="155.9322033898305" cy="170" r="3" fill="#2563eb"></circle><circle class="dot" cx="157.28813559322035" cy="170" r="3" fill="#2563eb"></circle><circle class="dot" cx="158.64406779661016" cy="170" r="3" fill="#2563eb"></circle><circle class="dot" cx="160" cy="170" r="3" fill="#2563eb"></circle><circle class="dot" cx="161.35593220338984" cy="170" r="3" fill="#2563eb"></circle><circle class="dot" cx="162.71186440677965" cy="170" r="3" fill="#2563eb"></circle><circle class="dot" cx="164.0677966101695" cy="170" r="3" fill="#2563eb"></circle><circle class="dot" cx="165.42372881355934" cy="170" r="3" fill="#2563eb"></circle><circle class="dot" cx="166.77966101694915" cy="170" r="3" fill="#2563eb"></circle><circle class="dot" cx="168.135593220339" cy="170" r="3" fill="#2563eb"></circle><circle class="dot" cx="169.4915254237288" cy="170" r="3" fill="#2563eb"></circle><circle class="dot" cx="170.84745762711864" cy="170" r="3" fill="#2563eb"></circle><circle class="dot" cx="172.20338983050848" cy="170" r="3" fill="#2563eb"></circle><circle class="dot" cx="173.5593220338983" cy="170" r="3" fill="#2563eb"></circle><circle class="dot" cx="174.91525423728814" cy="170" r="3" fill="#2563eb"></circle><circle class="dot" cx="176.27118644067798" cy="170" r="3" fill="#2563eb"></circle><circle class="dot" cx="177.6271186440678" cy="170" r="3" fill="#2563eb"></circle><circle class="dot" cx="178.98305084745763" cy="170" r="3" fill="#2563eb"></circle><circle class="dot" cx="180.33898305084747" cy="170" r="3" fill="#2563eb"></circle><circle class="dot" cx="181.69491525423732" cy="170" r="3" fill="#2563eb"></circle><circle class="dot" cx="183.0508474576271" cy="170" r="3" fill="#2563eb"></circle><circle class="dot" cx="184.40677966101697" cy="170" r="3" fill="#2563eb"></circle><circle class="dot" cx="185.76271186440675" cy="170" r="3" fill="#2563eb"></circle><circle class="dot" cx="187.1186440677966" cy="170" r="3" fill="#2563eb"></circle><circle class="dot" cx="188.47457627118644" cy="170" r="3" fill="#2563eb"></circle><circle class="dot" cx="189.83050847457625" cy="170" r="3" fill="#2563eb"></circle><circle class="dot" cx="191.1864406779661" cy="170" r="3" fill="#2563eb"></circle><circle class="dot" cx="192.54237288135593" cy="170" r="3" fill="#2563eb"></circle><circle class="dot" cx="193.89830508474574" cy="170" r="3" fill="#2563eb"></circle><circle class="dot" cx="195.25423728813558" cy="170" r="3" fill="#2563eb"></circle><circle class="dot" cx="196.61016949152543" cy="170" r="3" fill="#2563eb"></circle><circle class="dot" cx="197.96610169491524" cy="170" r="3" fill="#2563eb"></circle><circle class="dot" cx="199.32203389830508" cy="170" r="3" fill="#2563eb"></circle><circle class="dot" cx="200.67796610169492" cy="170" r="3" fill="#2563eb"></circle><circle class="dot" cx="202.03389830508473" cy="170" r="3" fill="#2563eb"></circle><circle class="dot" cx="203.38983050847457" cy="170" r="3" fill="#2563eb"></circle><circle class="dot" cx="204.74576271186442" cy="170" r="3" fill="#2563eb"></circle><circle class="dot" cx="206.10169491525423" cy="170" r="3" fill="#2563eb"></circle><circle class="dot" cx="207.45762711864407" cy="170" r="3" fill="#2563eb"></circle><circle class="dot" cx="208.81355932203388" cy="170" r="3" fill="#2563eb"></circle><circle class="dot" cx="210.16949152542372" cy="170" r="3" fill="#2563eb"></circle><circle class="dot" cx="211.52542372881356" cy="170" r="3" fill="#2563eb"></circle><circle class="dot" cx="212.88135593220338" cy="170" r="3" fill="#2563eb"></circle><circle class="dot" cx="214.23728813559322" cy="170" r="3" fill="#2563eb"></circle><circle class="dot" cx="215.59322033898306" cy="170" r="3" fill="#2563eb"></circle><circle class="dot" cx="216.94915254237287" cy="170" r="3" fill="#2563eb"></circle><circle class="dot" cx="218.3050847457627" cy="170" r="3" fill="#2563eb"></circle><circle class="dot" cx="219.66101694915255" cy="170" r="3" fill="#2563eb"></circle><circle class="dot" cx="221.01694915254237" cy="170" r="3" fill="#2563eb"></circle><circle class="dot" cx="222.3728813559322" cy="170" r="3" fill="#2563eb"></circle><circle class="dot" cx="223.72881355932205" cy="170" r="3" fill="#2563eb"></circle><circle class="dot" cx="225.08474576271186" cy="170" r="3" fill="#2563eb"></circle><circle class="dot" cx="226.4406779661017" cy="170" r="3" fill="#2563eb"></circle><circle class="dot" cx="227.79661016949154" cy="170" r="3" fill="#2563eb"></circle><circle class="dot" cx="229.15254237288136" cy="170" r="3" fill="#2563eb"></circle><circle class="dot" cx="230.5084745762712" cy="170" r="3" fill="#2563eb"></circle><circle class="dot" cx="231.864406779661" cy="170" r="3" fill="#2563eb"></circle><circle class="dot" cx="233.22033898305085" cy="170" r="3" fill="#2563eb"></circle><circle class="dot" cx="234.5762711864407" cy="170" r="3" fill="#2563eb"></circle><circle class="dot" cx="235.9322033898305" cy="170" r="3" fill="#2563eb"></circle><circle class="dot" cx="237.28813559322035" cy="170" r="3" fill="#2563eb"></circle><circle class="dot" cx="238.6440677966102" cy="170" r="3" fill="#2563eb"></circle><circle class="dot" cx="240" cy="170" r="3" fill="#2563eb"></circle><circle class="dot" cx="241.35593220338984" cy="170" r="3" fill="#2563eb"></circle><circle class="dot" cx="242.71186440677968" cy="170" r="3" fill="#2563eb"></circle><circle class="dot" cx="244.06779661016947" cy="170" r="3" fill="#2563eb"></circle><circle class="dot" cx="245.42372881355934" cy="170" r="3" fill="#2563eb"></circle><circle class="dot" cx="246.77966101694918" cy="170" r="3" fill="#2563eb"></circle><circle class="dot" cx="248.13559322033896" cy="170" r="3" fill="#2563eb"></circle><circle class="dot" cx="249.49152542372883" cy="170" r="3" fill="#2563eb"></circle><circle class="dot" cx="250.84745762711867" cy="170" r="3" fill="#2563eb"></circle><circle class="dot" cx="252.20338983050846" cy="170" r="3" fill="#2563eb"></circle><circle class="dot" cx="253.55932203389833" cy="170" r="3" fill="#2563eb"></circle><circle class="dot" cx="254.9152542372881" cy="170" r="3" fill="#2563eb"></circle><circle class="dot" cx="256.271186440678" cy="170" r="3" fill="#2563eb"></circle><circle class="dot" cx="257.6271186440678" cy="170" r="3" fill="#2563eb"></circle><circle class="dot" cx="258.9830508474576" cy="170" r="3" fill="#2563eb"></circle><circle class="dot" cx="260.33898305084745" cy="170" r="3" fill="#2563eb"></circle><circle class="dot" cx="261.6949152542373" cy="170" r="3" fill="#2563eb"></circle><circle class="dot" cx="263.0508474576271" cy="170" r="3" fill="#2563eb"></circle><circle class="dot" cx="264.40677966101697" cy="170" r="3" fill="#2563eb"></circle><circle class="dot" cx="265.7627118644068" cy="170" r="3" fill="#2563eb"></circle><circle class="dot" cx="267.1186440677966" cy="170" r="3" fill="#2563eb"></circle><circle class="dot" cx="268.47457627118644" cy="170" r="3" fill="#2563eb"></circle><circle class="dot" cx="269.8305084745763" cy="170" r="3" fill="#2563eb"></circle><circle class="dot" cx="271.1864406779661" cy="170" r="3" fill="#2563eb"></circle><circle class="dot" cx="272.54237288135596" cy="170" r="3" fill="#2563eb"></circle><circle class="dot" cx="273.89830508474574" cy="170" r="3" fill="#2563eb"></circle><circle class="dot" cx="275.2542372881356" cy="170" r="3" fill="#2563eb"></circle><circle class="dot" cx="276.6101694915254" cy="170" r="3" fill="#2563eb"></circle><circle class="dot" cx="277.9661016949152" cy="170" r="3" fill="#2563eb"></circle><circle class="dot" cx="279.3220338983051" cy="170" r="3" fill="#2563eb"></circle><circle class="dot" cx="280.67796610169495" cy="170" r="3" fill="#2563eb"></circle><circle class="dot" cx="282.03389830508473" cy="170" r="3" fill="#2563eb"></circle><circle class="dot" cx="283.3898305084746" cy="170" r="3" fill="#2563eb"></circle><circle class="dot" cx="284.7457627118644" cy="170" r="3" fill="#2563eb"></circle><circle class="dot" cx="286.1016949152542" cy="170" r="3" fill="#2563eb"></circle><circle class="dot" cx="287.4576271186441" cy="170" r="3" fill="#2563eb"></circle><circle class="dot" cx="288.81355932203394" cy="170" r="3" fill="#2563eb"></circle><circle class="dot" cx="290.1694915254237" cy="170" r="3" fill="#2563eb"></circle><circle class="dot" cx="291.52542372881356" cy="170" r="3" fill="#2563eb"></circle><circle class="dot" cx="292.8813559322034" cy="170" r="3" fill="#2563eb"></circle><circle class="dot" cx="294.2372881355932" cy="170" r="3" fill="#2563eb"></circle><circle class="dot" cx="295.59322033898303" cy="170" r="3" fill="#2563eb"></circle><circle class="dot" cx="296.9491525423729" cy="170" r="3" fill="#2563eb"></circle><circle class="dot" cx="298.3050847457627" cy="170" r="3" fill="#2563eb"></circle><circle class="dot" cx="299.66101694915255" cy="170" r="3" fill="#2563eb"></circle><circle class="dot" cx="301.01694915254234" cy="170" r="3" fill="#2563eb"></circle><circle class="dot" cx="302.3728813559322" cy="170" r="3" fill="#2563eb"></circle><circle class="dot" cx="303.728813559322" cy="170" r="3" fill="#2563eb"></circle><circle class="dot" cx="305.08474576271186" cy="170" r="3" fill="#2563eb"></circle><circle class="dot" cx="306.4406779661017" cy="170" r="3" fill="#2563eb"></circle><circle class="dot" cx="307.79661016949154" cy="170" r="3" fill="#2563eb"></circle><circle class="dot" cx="309.1525423728813" cy="170" r="3" fill="#2563eb"></circle><circle class="dot" cx="310.50847457627117" cy="170" r="3" fill="#2563eb"></circle><circle class="dot" cx="311.864406779661" cy="170" r="3" fill="#2563eb"></circle><circle class="dot" cx="313.22033898305085" cy="170" r="3" fill="#2563eb"></circle><circle class="dot" cx="314.5762711864407" cy="170" r="3" fill="#2563eb"></circle><circle class="dot" cx="315.93220338983053" cy="170" r="3" fill="#2563eb"></circle><circle class="dot" cx="317.2881355932203" cy="170" r="3" fill="#2563eb"></circle><circle class="dot" cx="318.64406779661016" cy="170" r="3" fill="#2563eb"></circle><circle class="dot" cx="320" cy="170" r="3" fill="#2563eb"></circle><circle class="dot" cx="321.35593220338984" cy="170" r="3" fill="#2563eb"></circle><circle class="dot" cx="322.7118644067797" cy="170" r="3" fill="#2563eb"></circle><circle class="dot" cx="324.06779661016947" cy="170" r="3" fill="#2563eb"></circle><circle class="dot" cx="325.4237288135593" cy="170" r="3" fill="#2563eb"></circle><circle class="dot" cx="326.77966101694915" cy="170" r="3" fill="#2563eb"></circle><circle class="dot" cx="328.135593220339" cy="170" r="3" fill="#2563eb"></circle><circle class="dot" cx="329.49152542372883" cy="170" r="3" fill="#2563eb"></circle><circle class="dot" cx="330.8474576271187" cy="170" r="3" fill="#2563eb"></circle><circle class="dot" cx="332.20338983050846" cy="170" r="3" fill="#2563eb"></circle><circle class="dot" cx="333.5593220338983" cy="170" r="3" fill="#2563eb"></circle><circle class="dot" cx="334.91525423728814" cy="170" r="3" fill="#2563eb"></circle><circle class="dot" cx="336.271186440678" cy="170" r="3" fill="#2563eb"></circle><circle class="dot" cx="337.6271186440678" cy="170" r="3" fill="#2563eb"></circle><circle class="dot" cx="338.9830508474576" cy="170" r="3" fill="#2563eb"></circle><circle class="dot" cx="340.33898305084745" cy="170" r="3" fill="#2563eb"></circle><circle class="dot" cx="341.6949152542373" cy="170" r="3" fill="#2563eb"></circle><circle class="dot" cx="343.0508474576271" cy="170" r="3" fill="#2563eb"></circle><circle class="dot" cx="344.40677966101697" cy="170" r="3" fill="#2563eb"></circle><circle class="dot" cx="345.7627118644068" cy="170" r="3" fill="#2563eb"></circle><circle class="dot" cx="347.1186440677966" cy="170" r="3" fill="#2563eb"></circle><circle class="dot" cx="348.47457627118644" cy="170" r="3" fill="#2563eb"></circle><circle class="dot" cx="349.8305084745763" cy="170" r="3" fill="#2563eb"></circle><circle class="dot" cx="351.18644067796606" cy="170" r="3" fill="#2563eb"></circle><circle class="dot" cx="352.54237288135596" cy="170" r="3" fill="#2563eb"></circle><circle class="dot" cx="353.8983050847458" cy="170" r="3" fill="#2563eb"></circle><circle class="dot" cx="355.2542372881356" cy="170" r="3" fill="#2563eb"></circle><circle class="dot" cx="356.6101694915254" cy="170" r="3" fill="#2563eb"></circle><circle class="dot" cx="357.96610169491527" cy="170" r="3" fill="#2563eb"></circle><circle class="dot" cx="359.32203389830505" cy="170" r="3" fill="#2563eb"></circle><circle class="dot" cx="360.67796610169495" cy="170" r="3" fill="#2563eb"></circle><circle class="dot" cx="362.0338983050848" cy="170" r="3" fill="#2563eb"></circle><circle class="dot" cx="363.38983050847463" cy="170" r="3" fill="#2563eb"></circle><circle class="dot" cx="364.74576271186436" cy="170" r="3" fill="#2563eb"></circle><circle class="dot" cx="366.1016949152542" cy="170" r="3" fill="#2563eb"></circle><circle class="dot" cx="367.45762711864404" cy="170" r="3" fill="#2563eb"></circle><circle class="dot" cx="368.81355932203394" cy="170" r="3" fill="#2563eb"></circle><circle class="dot" cx="370.1694915254238" cy="170" r="3" fill="#2563eb"></circle><circle class="dot" cx="371.5254237288135" cy="170" r="3" fill="#2563eb"></circle><circle class="dot" cx="372.88135593220335" cy="170" r="3" fill="#2563eb"></circle><circle class="dot" cx="374.2372881355932" cy="170" r="3" fill="#2563eb"></circle><circle class="dot" cx="375.59322033898303" cy="170" r="3" fill="#2563eb"></circle><circle class="dot" cx="376.9491525423729" cy="170" r="3" fill="#2563eb"></circle><circle class="dot" cx="378.30508474576277" cy="170" r="3" fill="#2563eb"></circle><circle class="dot" cx="379.6610169491525" cy="170" r="3" fill="#2563eb"></circle><circle class="dot" cx="381.01694915254234" cy="170" r="3" fill="#2563eb"></circle><circle class="dot" cx="382.3728813559322" cy="170" r="3" fill="#2563eb"></circle><circle class="dot" cx="383.728813559322" cy="170" r="3" fill="#2563eb"></circle><circle class="dot" cx="385.08474576271186" cy="170" r="3" fill="#2563eb"></circle><circle class="dot" cx="386.4406779661017" cy="170" r="3" fill="#2563eb"></circle><circle class="dot" cx="387.7966101694915" cy="170" r="3" fill="#2563eb"></circle><circle class="dot" cx="389.1525423728813" cy="170" r="3" fill="#2563eb"></circle><circle class="dot" cx="390.50847457627117" cy="170" r="3" fill="#2563eb"></circle><circle class="dot" cx="391.864406779661" cy="170" r="3" fill="#2563eb"></circle><circle class="dot" cx="393.22033898305085" cy="170" r="3" fill="#2563eb"></circle><circle class="dot" cx="394.57627118644064" cy="170" r="3" fill="#2563eb"></circle><circle class="dot" cx="395.9322033898305" cy="170" r="3" fill="#2563eb"></circle><circle class="dot" cx="397.2881355932203" cy="170" r="3" fill="#2563eb"></circle><circle class="dot" cx="398.64406779661016" cy="170" r="3" fill="#2563eb"></circle><circle class="dot" cx="400" cy="170" r="3" fill="#2563eb"></circle><circle class="dot" cx="401.35593220338984" cy="170" r="3" fill="#2563eb"></circle><circle class="dot" cx="402.7118644067796" cy="170" r="3" fill="#2563eb"></circle><circle class="dot" cx="404.06779661016947" cy="170" r="3" fill="#2563eb"></circle><circle class="dot" cx="405.4237288135593" cy="170" r="3" fill="#2563eb"></circle><circle class="dot" cx="406.77966101694915" cy="170" r="3" fill="#2563eb"></circle><circle class="dot" cx="408.135593220339" cy="170" r="3" fill="#2563eb"></circle><circle class="dot" cx="409.49152542372883" cy="170" r="3" fill="#2563eb"></circle><circle class="dot" cx="410.8474576271186" cy="170" r="3" fill="#2563eb"></circle><circle class="dot" cx="412.20338983050846" cy="170" r="3" fill="#2563eb"></circle><circle class="dot" cx="413.5593220338983" cy="170" r="3" fill="#2563eb"></circle><circle class="dot" cx="414.91525423728814" cy="170" r="3" fill="#2563eb"></circle><circle class="dot" cx="416.271186440678" cy="170" r="3" fill="#2563eb"></circle><circle class="dot" cx="417.62711864406776" cy="170" r="3" fill="#2563eb"></circle><circle class="dot" cx="418.9830508474576" cy="170" r="3" fill="#2563eb"></circle><circle class="dot" cx="420.33898305084745" cy="170" r="3" fill="#2563eb"></circle><circle class="dot" cx="421.6949152542373" cy="170" r="3" fill="#2563eb"></circle><circle class="dot" cx="423.0508474576271" cy="170" r="3" fill="#2563eb"></circle><circle class="dot" cx="424.40677966101697" cy="170" r="3" fill="#2563eb"></circle><circle class="dot" cx="425.76271186440675" cy="170" r="3" fill="#2563eb"></circle><circle class="dot" cx="427.1186440677966" cy="170" r="3" fill="#2563eb"></circle><circle class="dot" cx="428.47457627118644" cy="170" r="3" fill="#2563eb"></circle><circle class="dot" cx="429.8305084745763" cy="170" r="3" fill="#2563eb"></circle><circle class="dot" cx="431.1864406779661" cy="170" r="3" fill="#2563eb"></circle><circle class="dot" cx="432.54237288135596" cy="170" r="3" fill="#2563eb"></circle><circle class="dot" cx="433.89830508474574" cy="170" r="3" fill="#2563eb"></circle><circle class="dot" cx="435.2542372881356" cy="170" r="3" fill="#2563eb"></circle><circle class="dot" cx="436.6101694915254" cy="170" r="3" fill="#2563eb"></circle><circle class="dot" cx="437.96610169491527" cy="170" r="3" fill="#2563eb"></circle><circle class="dot" cx="439.3220338983051" cy="170" r="3" fill="#2563eb"></circle><circle class="dot" cx="440.6779661016949" cy="170" r="3" fill="#2563eb"></circle><circle class="dot" cx="442.03389830508473" cy="170" r="3" fill="#2563eb"></circle><circle class="dot" cx="443.3898305084746" cy="170" r="3" fill="#2563eb"></circle><circle class="dot" cx="444.7457627118644" cy="170" r="3" fill="#2563eb"></circle><circle class="dot" cx="446.10169491525426" cy="170" r="3" fill="#2563eb"></circle><circle class="dot" cx="447.4576271186441" cy="170" r="3" fill="#2563eb"></circle><circle class="dot" cx="448.8135593220339" cy="170" r="3" fill="#2563eb"></circle><circle class="dot" cx="450.1694915254237" cy="170" r="3" fill="#2563eb"></circle><circle class="dot" cx="451.52542372881356" cy="170" r="3" fill="#2563eb"></circle><circle class="dot" cx="452.8813559322034" cy="170" r="3" fill="#2563eb"></circle><circle class="dot" cx="454.23728813559325" cy="170" r="3" fill="#2563eb"></circle><circle class="dot" cx="455.5932203389831" cy="170" r="3" fill="#2563eb"></circle><circle class="dot" cx="456.9491525423729" cy="170" r="3" fill="#2563eb"></circle><circle class="dot" cx="458.3050847457627" cy="170" r="3" fill="#2563eb"></circle><circle class="dot" cx="459.66101694915255" cy="170" r="3" fill="#2563eb"></circle><circle class="dot" cx="461.0169491525424" cy="170" r="3" fill="#2563eb"></circle><circle class="dot" cx="462.37288135593224" cy="170" r="3" fill="#2563eb"></circle><circle class="dot" cx="463.728813559322" cy="170" r="3" fill="#2563eb"></circle><circle class="dot" cx="465.08474576271186" cy="170" r="3" fill="#2563eb"></circle><circle class="dot" cx="466.4406779661017" cy="170" r="3" fill="#2563eb"></circle><circle class="dot" cx="467.79661016949154" cy="170" r="3" fill="#2563eb"></circle><circle class="dot" cx="469.1525423728814" cy="170" r="3" fill="#2563eb"></circle><circle class="dot" cx="470.5084745762712" cy="170" r="3" fill="#2563eb"></circle><circle class="dot" cx="471.864406779661" cy="170" r="3" fill="#2563eb"></circle><circle class="dot" cx="473.22033898305085" cy="170" r="3" fill="#2563eb"></circle><circle class="dot" cx="474.5762711864407" cy="170" r="3" fill="#2563eb"></circle><circle class="dot" cx="475.93220338983053" cy="170" r="3" fill="#2563eb"></circle><circle class="dot" cx="477.2881355932204" cy="170" r="3" fill="#2563eb"></circle><circle class="dot" cx="478.6440677966102" cy="170" r="3" fill="#2563eb"></circle><circle class="dot" cx="480" cy="170" r="3" fill="#2563eb"></circle><circle class="dot" cx="481.35593220338984" cy="170" r="3" fill="#2563eb"></circle><circle class="dot" cx="482.7118644067797" cy="170" r="3" fill="#2563eb"></circle><circle class="dot" cx="484.0677966101695" cy="170" r="3" fill="#2563eb"></circle><circle class="dot" cx="485.42372881355936" cy="170" r="3" fill="#2563eb"></circle><circle class="dot" cx="486.7796610169491" cy="170" r="3" fill="#2563eb"></circle><circle class="dot" cx="488.13559322033893" cy="170" r="3" fill="#2563eb"></circle><circle class="dot" cx="489.49152542372883" cy="170" r="3" fill="#2563eb"></circle><circle class="dot" cx="490.8474576271187" cy="170" r="3" fill="#2563eb"></circle><circle class="dot" cx="492.2033898305085" cy="170" r="3" fill="#2563eb"></circle><circle class="dot" cx="493.55932203389835" cy="170" r="3" fill="#2563eb"></circle><circle class="dot" cx="494.9152542372881" cy="170" r="3" fill="#2563eb"></circle><circle class="dot" cx="496.2711864406779" cy="170" r="3" fill="#2563eb"></circle><circle class="dot" cx="497.6271186440678" cy="170" r="3" fill="#2563eb"></circle><circle class="dot" cx="498.98305084745766" cy="170" r="3" fill="#2563eb"></circle><circle class="dot" cx="500.3389830508475" cy="170" r="3" fill="#2563eb"></circle><circle class="dot" cx="501.69491525423734" cy="170" r="3" fill="#2563eb"></circle><circle class="dot" cx="503.05084745762707" cy="170" r="3" fill="#2563eb"></circle><circle class="dot" cx="504.4067796610169" cy="170" r="3" fill="#2563eb"></circle><circle class="dot" cx="505.7627118644068" cy="170" r="3" fill="#2563eb"></circle><circle class="dot" cx="507.11864406779665" cy="170" r="3" fill="#2563eb"></circle><circle class="dot" cx="508.4745762711865" cy="170" r="3" fill="#2563eb"></circle><circle class="dot" cx="509.8305084745762" cy="170" r="3" fill="#2563eb"></circle><circle class="dot" cx="511.18644067796606" cy="170" r="3" fill="#2563eb"></circle><circle class="dot" cx="512.542372881356" cy="170" r="3" fill="#2563eb"></circle><circle class="dot" cx="513.8983050847457" cy="170" r="3" fill="#2563eb"></circle><circle class="dot" cx="515.2542372881356" cy="170" r="3" fill="#2563eb"></circle><circle class="dot" cx="516.6101694915254" cy="170" r="3" fill="#2563eb"></circle><circle class="dot" cx="517.9661016949152" cy="170" r="3" fill="#2563eb"></circle><circle class="dot" cx="519.3220338983051" cy="170" r="3" fill="#2563eb"></circle><circle class="dot" cx="520.6779661016949" cy="170" r="3" fill="#2563eb"></circle><circle class="dot" cx="522.0338983050848" cy="170" r="3" fill="#2563eb"></circle><circle class="dot" cx="523.3898305084746" cy="170" r="3" fill="#2563eb"></circle><circle class="dot" cx="524.7457627118644" cy="170" r="3" fill="#2563eb"></circle><circle class="dot" cx="526.1016949152543" cy="170" r="3" fill="#2563eb"></circle><circle class="dot" cx="527.457627118644" cy="170" r="3" fill="#2563eb"></circle><circle class="dot" cx="528.8135593220339" cy="170" r="3" fill="#2563eb"></circle><circle class="dot" cx="530.1694915254237" cy="170" r="3" fill="#2563eb"></circle><circle class="dot" cx="531.5254237288136" cy="170" r="3" fill="#2563eb"></circle><circle class="dot" cx="532.8813559322034" cy="170" r="3" fill="#2563eb"></circle><circle class="dot" cx="534.2372881355932" cy="170" r="3" fill="#2563eb"></circle><circle class="dot" cx="535.5932203389831" cy="170" r="3" fill="#2563eb"></circle><circle class="dot" cx="536.9491525423729" cy="170" r="3" fill="#2563eb"></circle><circle class="dot" cx="538.3050847457628" cy="170" r="3" fill="#2563eb"></circle><circle class="dot" cx="539.6610169491526" cy="170" r="3" fill="#2563eb"></circle><circle class="dot" cx="541.0169491525423" cy="170" r="3" fill="#2563eb"></circle><circle class="dot" cx="542.3728813559322" cy="170" r="3" fill="#2563eb"></circle><circle class="dot" cx="543.728813559322" cy="170" r="3" fill="#2563eb"></circle><circle class="dot" cx="545.0847457627119" cy="170" r="3" fill="#2563eb"></circle><circle class="dot" cx="546.4406779661017" cy="170" r="3" fill="#2563eb"></circle><circle class="dot" cx="547.7966101694915" cy="170" r="3" fill="#2563eb"></circle><circle class="dot" cx="549.1525423728814" cy="170" r="3" fill="#2563eb"></circle><circle class="dot" cx="550.5084745762712" cy="170" r="3" fill="#2563eb"></circle><circle class="dot" cx="551.8644067796611" cy="170" r="3" fill="#2563eb"></circle><circle class="dot" cx="553.2203389830509" cy="170" r="3" fill="#2563eb"></circle><circle class="dot" cx="554.5762711864407" cy="170" r="3" fill="#2563eb"></circle><circle class="dot" cx="555.9322033898304" cy="170" r="3" fill="#2563eb"></circle><circle class="dot" cx="557.2881355932203" cy="170" r="3" fill="#2563eb"></circle><circle class="dot" cx="558.6440677966102" cy="170" r="3" fill="#2563eb"></circle><circle class="dot" cx="560" cy="170" r="3" fill="#2563eb"></circle><circle class="dot" cx="561.3559322033899" cy="170" r="3" fill="#2563eb"></circle><circle class="dot" cx="562.7118644067797" cy="170" r="3" fill="#2563eb"></circle><circle class="dot" cx="564.0677966101695" cy="170" r="3" fill="#2563eb"></circle><circle class="dot" cx="565.4237288135594" cy="170" r="3" fill="#2563eb"></circle><circle class="dot" cx="566.7796610169491" cy="170" r="3" fill="#2563eb"></circle><circle class="dot" cx="568.135593220339" cy="170" r="3" fill="#2563eb"></circle><circle class="dot" cx="569.4915254237288" cy="170" r="3" fill="#2563eb"></circle><circle class="dot" cx="570.8474576271186" cy="170" r="3" fill="#2563eb"></circle><circle class="dot" cx="572.2033898305084" cy="170" r="3" fill="#2563eb"></circle><circle class="dot" cx="573.5593220338983" cy="170" r="3" fill="#2563eb"></circle><circle class="dot" cx="574.9152542372882" cy="170" r="3" fill="#2563eb"></circle><circle class="dot" cx="576.271186440678" cy="170" r="3" fill="#2563eb"></circle><circle class="dot" cx="577.6271186440679" cy="170" r="3" fill="#2563eb"></circle><circle class="dot" cx="578.9830508474575" cy="170" r="3" fill="#2563eb"></circle><circle class="dot" cx="580.3389830508474" cy="170" r="3" fill="#2563eb"></circle><circle class="dot" cx="581.6949152542372" cy="170" r="3" fill="#2563eb"></circle><circle class="dot" cx="583.0508474576271" cy="170" r="3" fill="#2563eb"></circle><circle class="dot" cx="584.406779661017" cy="170" r="3" fill="#2563eb"></circle><circle class="dot" cx="585.7627118644068" cy="170" r="3" fill="#2563eb"></circle><circle class="dot" cx="587.1186440677966" cy="170" r="3" fill="#2563eb"></circle><circle class="dot" cx="588.4745762711864" cy="170" r="3" fill="#2563eb"></circle><circle class="dot" cx="589.8305084745763" cy="170" r="3" fill="#2563eb"></circle><circle class="dot" cx="591.1864406779661" cy="170" r="3" fill="#2563eb"></circle><circle class="dot" cx="592.542372881356" cy="170" r="3" fill="#2563eb"></circle><circle class="dot" cx="593.8983050847457" cy="170" r="3" fill="#2563eb"></circle><circle class="dot" cx="595.2542372881355" cy="170" r="3" fill="#2563eb"></circle><circle class="dot" cx="596.6101694915254" cy="170" r="3" fill="#2563eb"></circle><circle class="dot" cx="597.9661016949152" cy="170" r="3" fill="#2563eb"></circle><circle class="dot" cx="599.3220338983051" cy="170" r="3" fill="#2563eb"></circle><circle class="dot" cx="600.6779661016949" cy="170" r="3" fill="#2563eb"></circle><circle class="dot" cx="602.0338983050847" cy="170" r="3" fill="#2563eb"></circle><circle class="dot" cx="603.3898305084746" cy="170" r="3" fill="#2563eb"></circle><circle class="dot" cx="604.7457627118644" cy="170" r="3" fill="#2563eb"></circle><circle class="dot" cx="606.1016949152543" cy="170" r="3" fill="#2563eb"></circle><circle class="dot" cx="607.457627118644" cy="170" r="3" fill="#2563eb"></circle><circle class="dot" cx="608.8135593220339" cy="170" r="3" fill="#2563eb"></circle><circle class="dot" cx="610.1694915254237" cy="170" r="3" fill="#2563eb"></circle><circle class="dot" cx="611.5254237288135" cy="170" r="3" fill="#2563eb"></circle><circle class="dot" cx="612.8813559322034" cy="170" r="3" fill="#2563eb"></circle><circle class="dot" cx="614.2372881355932" cy="170" r="3" fill="#2563eb"></circle><circle class="dot" cx="615.5932203389831" cy="170" r="3" fill="#2563eb"></circle><circle class="dot" cx="616.9491525423729" cy="170" r="3" fill="#2563eb"></circle><circle class="dot" cx="618.3050847457627" cy="170" r="3" fill="#2563eb"></circle><circle class="dot" cx="619.6610169491526" cy="170" r="3" fill="#2563eb"></circle><circle class="dot" cx="621.0169491525423" cy="170" r="3" fill="#2563eb"></circle><circle class="dot" cx="622.3728813559322" cy="170" r="3" fill="#2563eb"></circle><circle class="dot" cx="623.728813559322" cy="170" r="3" fill="#2563eb"></circle><circle class="dot" cx="625.0847457627118" cy="170" r="3" fill="#2563eb"></circle><circle class="dot" cx="626.4406779661017" cy="170" r="3" fill="#2563eb"></circle><circle class="dot" cx="627.7966101694915" cy="170" r="3" fill="#2563eb"></circle><circle class="dot" cx="629.1525423728814" cy="170" r="3" fill="#2563eb"></circle><circle class="dot" cx="630.5084745762712" cy="170" r="3" fill="#2563eb"></circle><circle class="dot" cx="631.8644067796611" cy="170" r="3" fill="#2563eb"></circle><circle class="dot" cx="633.2203389830509" cy="170" r="3" fill="#2563eb"></circle><circle class="dot" cx="634.5762711864406" cy="170" r="3" fill="#2563eb"></circle><circle class="dot" cx="635.9322033898305" cy="170" r="3" fill="#2563eb"></circle><circle class="dot" cx="637.2881355932203" cy="170" r="3" fill="#2563eb"></circle><circle class="dot" cx="638.6440677966102" cy="170" r="3" fill="#2563eb"></circle><circle class="dot" cx="640" cy="170" r="3" fill="#2563eb"></circle><circle class="dot" cx="641.3559322033898" cy="170" r="3" fill="#2563eb"></circle><circle class="dot" cx="642.7118644067797" cy="170" r="3" fill="#2563eb"></circle><circle class="dot" cx="644.0677966101695" cy="170" r="3" fill="#2563eb"></circle><circle class="dot" cx="645.4237288135594" cy="170" r="3" fill="#2563eb"></circle><circle class="dot" cx="646.7796610169491" cy="170" r="3" fill="#2563eb"></circle><circle class="dot" cx="648.1355932203389" cy="170" r="3" fill="#2563eb"></circle><circle class="dot" cx="649.4915254237288" cy="170" r="3" fill="#2563eb"></circle><circle class="dot" cx="650.8474576271186" cy="170" r="3" fill="#2563eb"></circle><circle class="dot" cx="652.2033898305085" cy="170" r="3" fill="#2563eb"></circle><circle class="dot" cx="653.5593220338983" cy="170" r="3" fill="#2563eb"></circle><circle class="dot" cx="654.9152542372881" cy="170" r="3" fill="#2563eb"></circle><circle class="dot" cx="656.271186440678" cy="170" r="3" fill="#2563eb"></circle><circle class="dot" cx="657.6271186440678" cy="170" r="3" fill="#2563eb"></circle><circle class="dot" cx="658.9830508474577" cy="170" r="3" fill="#2563eb"></circle><circle class="dot" cx="660.3389830508474" cy="170" r="3" fill="#2563eb"></circle><circle class="dot" cx="661.6949152542373" cy="170" r="3" fill="#2563eb"></circle><circle class="dot" cx="663.0508474576271" cy="170" r="3" fill="#2563eb"></circle><circle class="dot" cx="664.4067796610169" cy="170" r="3" fill="#2563eb"></circle><circle class="dot" cx="665.7627118644068" cy="170" r="3" fill="#2563eb"></circle><circle class="dot" cx="667.1186440677966" cy="170" r="3" fill="#2563eb"></circle><circle class="dot" cx="668.4745762711865" cy="170" r="3" fill="#2563eb"></circle><circle class="dot" cx="669.8305084745763" cy="170" r="3" fill="#2563eb"></circle><circle class="dot" cx="671.1864406779661" cy="170" r="3" fill="#2563eb"></circle><circle class="dot" cx="672.542372881356" cy="170" r="3" fill="#2563eb"></circle><circle class="dot" cx="673.8983050847457" cy="170" r="3" fill="#2563eb"></circle><circle class="dot" cx="675.2542372881356" cy="170" r="3" fill="#2563eb"></circle><circle class="dot" cx="676.6101694915254" cy="170" r="3" fill="#2563eb"></circle><circle class="dot" cx="677.9661016949152" cy="170" r="3" fill="#2563eb"></circle><circle class="dot" cx="679.3220338983051" cy="170" r="3" fill="#2563eb"></circle><circle class="dot" cx="680.6779661016949" cy="170" r="3" fill="#2563eb"></circle><circle class="dot" cx="682.0338983050848" cy="170" r="3" fill="#2563eb"></circle><circle class="dot" cx="683.3898305084746" cy="170" r="3" fill="#2563eb"></circle><circle class="dot" cx="684.7457627118645" cy="170" r="3" fill="#2563eb"></circle><circle class="dot" cx="686.1016949152543" cy="170" r="3" fill="#2563eb"></circle><circle class="dot" cx="687.457627118644" cy="170" r="3" fill="#2563eb"></circle><circle class="dot" cx="688.8135593220339" cy="170" r="3" fill="#2563eb"></circle><circle class="dot" cx="690.1694915254237" cy="170" r="3" fill="#2563eb"></circle><circle class="dot" cx="691.5254237288136" cy="170" r="3" fill="#2563eb"></circle><circle class="dot" cx="692.8813559322034" cy="170" r="3" fill="#2563eb"></circle><circle class="dot" cx="694.2372881355932" cy="170" r="3" fill="#2563eb"></circle><circle class="dot" cx="695.5932203389831" cy="170" r="3" fill="#2563eb"></circle><circle class="dot" cx="696.9491525423729" cy="170" r="3" fill="#2563eb"></circle><circle class="dot" cx="698.3050847457628" cy="170" r="3" fill="#2563eb"></circle><circle class="dot" cx="699.6610169491526" cy="170" r="3" fill="#2563eb"></circle><circle class="dot" cx="701.0169491525423" cy="170" r="3" fill="#2563eb"></circle><circle class="dot" cx="702.3728813559321" cy="170" r="3" fill="#2563eb"></circle><circle class="dot" cx="703.728813559322" cy="170" r="3" fill="#2563eb"></circle><circle class="dot" cx="705.0847457627119" cy="170" r="3" fill="#2563eb"></circle><circle class="dot" cx="706.4406779661017" cy="170" r="3" fill="#2563eb"></circle><circle class="dot" cx="707.7966101694916" cy="170" r="3" fill="#2563eb"></circle><circle class="dot" cx="709.1525423728813" cy="170" r="3" fill="#2563eb"></circle><circle class="dot" cx="710.5084745762712" cy="170" r="3" fill="#2563eb"></circle><circle class="dot" cx="711.8644067796611" cy="170" r="3" fill="#2563eb"></circle><circle class="dot" cx="713.2203389830509" cy="170" r="3" fill="#2563eb"></circle><circle class="dot" cx="714.5762711864407" cy="170" r="3" fill="#2563eb"></circle><circle class="dot" cx="715.9322033898305" cy="170" r="3" fill="#2563eb"></circle><circle class="dot" cx="717.2881355932203" cy="170" r="3" fill="#2563eb"></circle><circle class="dot" cx="718.6440677966101" cy="170" r="3" fill="#2563eb"></circle><circle class="dot" cx="720" cy="170" r="3" fill="#2563eb"></circle><g class="grid" transform="translate(0,340)" fill="none" font-size="10" font-family="sans-serif" text-anchor="middle" style="stroke-dasharray: 3,3; opacity: 0.3;"><path class="domain" stroke="currentColor" d="M0.5,-340V0.5H720.5V-340"></path><g class="tick" opacity="1" transform="translate(0.5,0)"><line stroke="currentColor" y2="-340"></line><text fill="currentColor" y="3" dy="0.71em"></text></g><g class="tick" opacity="1" transform="translate(33.04237288135593,0)"><line stroke="currentColor" y2="-340"></line><text fill="currentColor" y="3" dy="0.71em"></text></g><g class="tick" opacity="1" transform="translate(65.58474576271186,0)"><line stroke="currentColor" y2="-340"></line><text fill="currentColor" y="3" dy="0.71em"></text></g><g class="tick" opacity="1" transform="translate(98.12711864406779,0)"><line stroke="currentColor" y2="-340"></line><text fill="currentColor" y="3" dy="0.71em"></text></g><g class="tick" opacity="1" transform="translate(130.66949152542372,0)"><line stroke="currentColor" y2="-340"></line><text fill="currentColor" y="3" dy="0.71em"></text></g><g class="tick" opacity="1" transform="translate(163.21186440677965,0)"><line stroke="currentColor" y2="-340"></line><text fill="currentColor" y="3" dy="0.71em"></text></g><g class="tick" opacity="1" transform="translate(195.75423728813558,0)"><line stroke="currentColor" y2="-340"></line><text fill="currentColor" y="3" dy="0.71em"></text></g><g class="tick" opacity="1" transform="translate(228.29661016949154,0)"><line stroke="currentColor" y2="-340"></line><text fill="currentColor" y="3" dy="0.71em"></text></g><g class="tick" opacity="1" transform="translate(260.83898305084745,0)"><line stroke="currentColor" y2="-340"></line><text fill="currentColor" y="3" dy="0.71em"></text></g><g class="tick" opacity="1" transform="translate(293.3813559322034,0)"><line stroke="currentColor" y2="-340"></line><text fill="currentColor" y="3" dy="0.71em"></text></g><g class="tick" opacity="1" transform="translate(325.9237288135593,0)"><line stroke="currentColor" y2="-340"></line><text fill="currentColor" y="3" dy="0.71em"></text></g><g class="tick" opacity="1" transform="translate(358.46610169491527,0)"><line stroke="currentColor" y2="-340"></line><text fill="currentColor" y="3" dy="0.71em"></text></g><g class="tick" opacity="1" transform="translate(391.00847457627117,0)"><line stroke="currentColor" y2="-340"></line><text fill="currentColor" y="3" dy="0.71em"></text></g><g class="tick" opacity="1" transform="translate(423.5508474576271,0)"><line stroke="currentColor" y2="-340"></line><text fill="currentColor" y="3" dy="0.71em"></text></g><g class="tick" opacity="1" transform="translate(456.0932203389831,0)"><line stroke="currentColor" y2="-340"></line><text fill="currentColor" y="3" dy="0.71em"></text></g><g class="tick" opacity="1" transform="translate(488.63559322033893,0)"><line stroke="currentColor" y2="-340"></line><text fill="currentColor" y="3" dy="0.71em"></text></g><g class="tick" opacity="1" transform="translate(521.1779661016949,0)"><line stroke="currentColor" y2="-340"></line><text fill="currentColor" y="3" dy="0.71em"></text></g><g class="tick" opacity="1" transform="translate(553.7203389830509,0)"><line stroke="currentColor" y2="-340"></line><text fill="currentColor" y="3" dy="0.71em"></text></g><g class="tick" opacity="1" transform="translate(586.2627118644068,0)"><line stroke="currentColor" y2="-340"></line><text fill="currentColor" y="3" dy="0.71em"></text></g><g class="tick" opacity="1" transform="translate(618.8050847457627,0)"><line stroke="currentColor" y2="-340"></line><text fill="currentColor" y="3" dy="0.71em"></text></g><g class="tick" opacity="1" transform="translate(651.3474576271186,0)"><line stroke="currentColor" y2="-340"></line><text fill="currentColor" y="3" dy="0.71em"></text></g><g class="tick" opacity="1" transform="translate(683.8898305084746,0)"><line stroke="currentColor" y2="-340"></line><text fill="currentColor" y="3" dy="0.71em"></text></g><g class="tick" opacity="1" transform="translate(716.4322033898305,0)"><line stroke="currentColor" y2="-340"></line><text fill="currentColor" y="3" dy="0.71em"></text></g></g><g class="grid" fill="none" font-size="10" font-family="sans-serif" text-anchor="end" style="stroke-dasharray: 3,3; opacity: 0.3;"><path class="domain" stroke="currentColor" d="M720,340.5H0.5V0.5H720"></path><g class="tick" opacity="1" transform="translate(0,170.5)"><line stroke="currentColor" x2="720"></line><text fill="currentColor" x="-3" dy="0.32em"></text></g></g></g><text x="400" y="10" text-anchor="middle" style="font-size: 16px; font-weight: bold; fill: #333;">OKX USDT Lending Rate - Current Month</text></svg>