<svg width="800" height="400" xmlns="http://www.w3.org/2000/svg"><g transform="translate(50,20)"><g transform="translate(0,340)" fill="none" font-size="10" font-family="sans-serif" text-anchor="middle"><path class="domain" stroke="currentColor" d="M0.5,6V0.5H720.5V6"></path><g class="tick" opacity="1" transform="translate(0.5,0)"><line stroke="currentColor" y2="6"></line><text fill="currentColor" y="9" dy=".15em" style="text-anchor: end;" dx="-.8em" transform="rotate(-45)">04/01</text></g><g class="tick" opacity="1" transform="translate(35.26861167002012,0)"><line stroke="currentColor" y2="6"></line><text fill="currentColor" y="9" dy=".15em" style="text-anchor: end;" dx="-.8em" transform="rotate(-45)">04/02</text></g><g class="tick" opacity="1" transform="translate(70.03722334004024,0)"><line stroke="currentColor" y2="6"></line><text fill="currentColor" y="9" dy=".15em" style="text-anchor: end;" dx="-.8em" transform="rotate(-45)">04/03</text></g><g class="tick" opacity="1" transform="translate(104.80583501006036,0)"><line stroke="currentColor" y2="6"></line><text fill="currentColor" y="9" dy=".15em" style="text-anchor: end;" dx="-.8em" transform="rotate(-45)">04/04</text></g><g class="tick" opacity="1" transform="translate(139.57444668008048,0)"><line stroke="currentColor" y2="6"></line><text fill="currentColor" y="9" dy=".15em" style="text-anchor: end;" dx="-.8em" transform="rotate(-45)">04/05</text></g><g class="tick" opacity="1" transform="translate(174.3430583501006,0)"><line stroke="currentColor" y2="6"></line><text fill="currentColor" y="9" dy=".15em" style="text-anchor: end;" dx="-.8em" transform="rotate(-45)">04/06</text></g><g class="tick" opacity="1" transform="translate(209.11167002012073,0)"><line stroke="currentColor" y2="6"></line><text fill="currentColor" y="9" dy=".15em" style="text-anchor: end;" dx="-.8em" transform="rotate(-45)">04/07</text></g><g class="tick" opacity="1" transform="translate(243.88028169014083,0)"><line stroke="currentColor" y2="6"></line><text fill="currentColor" y="9" dy=".15em" style="text-anchor: end;" dx="-.8em" transform="rotate(-45)">04/08</text></g><g class="tick" opacity="1" transform="translate(278.64889336016097,0)"><line stroke="currentColor" y2="6"></line><text fill="currentColor" y="9" dy=".15em" style="text-anchor: end;" dx="-.8em" transform="rotate(-45)">04/09</text></g><g class="tick" opacity="1" transform="translate(313.4175050301811,0)"><line stroke="currentColor" y2="6"></line><text fill="currentColor" y="9" dy=".15em" style="text-anchor: end;" dx="-.8em" transform="rotate(-45)">04/10</text></g><g class="tick" opacity="1" transform="translate(348.1861167002012,0)"><line stroke="currentColor" y2="6"></line><text fill="currentColor" y="9" dy=".15em" style="text-anchor: end;" dx="-.8em" transform="rotate(-45)">04/11</text></g><g class="tick" opacity="1" transform="translate(382.95472837022135,0)"><line stroke="currentColor" y2="6"></line><text fill="currentColor" y="9" dy=".15em" style="text-anchor: end;" dx="-.8em" transform="rotate(-45)">04/12</text></g><g class="tick" opacity="1" transform="translate(417.72334004024145,0)"><line stroke="currentColor" y2="6"></line><text fill="currentColor" y="9" dy=".15em" style="text-anchor: end;" dx="-.8em" transform="rotate(-45)">04/13</text></g><g class="tick" opacity="1" transform="translate(452.49195171026156,0)"><line stroke="currentColor" y2="6"></line><text fill="currentColor" y="9" dy=".15em" style="text-anchor: end;" dx="-.8em" transform="rotate(-45)">04/14</text></g><g class="tick" opacity="1" transform="translate(487.26056338028167,0)"><line stroke="currentColor" y2="6"></line><text fill="currentColor" y="9" dy=".15em" style="text-anchor: end;" dx="-.8em" transform="rotate(-45)">04/15</text></g><g class="tick" opacity="1" transform="translate(522.0291750503018,0)"><line stroke="currentColor" y2="6"></line><text fill="currentColor" y="9" dy=".15em" style="text-anchor: end;" dx="-.8em" transform="rotate(-45)">04/16</text></g><g class="tick" opacity="1" transform="translate(556.7977867203219,0)"><line stroke="currentColor" y2="6"></line><text fill="currentColor" y="9" dy=".15em" style="text-anchor: end;" dx="-.8em" transform="rotate(-45)">04/17</text></g><g class="tick" opacity="1" transform="translate(591.5663983903421,0)"><line stroke="currentColor" y2="6"></line><text fill="currentColor" y="9" dy=".15em" style="text-anchor: end;" dx="-.8em" transform="rotate(-45)">04/18</text></g><g class="tick" opacity="1" transform="translate(626.3350100603622,0)"><line stroke="currentColor" y2="6"></line><text fill="currentColor" y="9" dy=".15em" style="text-anchor: end;" dx="-.8em" transform="rotate(-45)">04/19</text></g><g class="tick" opacity="1" transform="translate(661.1036217303823,0)"><line stroke="currentColor" y2="6"></line><text fill="currentColor" y="9" dy=".15em" style="text-anchor: end;" dx="-.8em" transform="rotate(-45)">04/20</text></g><g class="tick" opacity="1" transform="translate(695.8722334004024,0)"><line stroke="currentColor" y2="6"></line><text fill="currentColor" y="9" dy=".15em" style="text-anchor: end;" dx="-.8em" transform="rotate(-45)">04/21</text></g></g><g fill="none" font-size="10" font-family="sans-serif" text-anchor="end"><path class="domain" stroke="currentColor" d="M-6,340.5H0.5V0.5H-6"></path><g class="tick" opacity="1" transform="translate(0,170.5)"><line stroke="currentColor" x2="-6"></line><text fill="currentColor" x="-9" dy="0.32em">2.50%</text></g></g><text transform="rotate(-90)" y="-50" x="-170" dy="1em" style="text-anchor: middle; font-size: 12px; fill: #666;">Pre Rate (%)</text><text transform="translate(360, 380)" style="text-anchor: middle; font-size: 12px; fill: #666;">Time (UTC)</text><path fill="none" stroke="#2563eb" stroke-width="2" d="M0,170C0.483,170,0.966,170,1.449,170C1.932,170,2.414,170,2.897,170C3.38,170,3.863,170,4.346,170C4.829,170,5.312,170,5.795,170C6.278,170,6.761,170,7.243,170C7.726,170,8.209,170,8.692,170C9.175,170,9.658,170,10.141,170C10.624,170,11.107,170,11.59,170C12.072,170,12.555,170,13.038,170C13.521,170,14.004,170,14.487,170C14.97,170,15.453,170,15.936,170C16.419,170,16.901,170,17.384,170C17.867,170,18.35,170,18.833,170C19.316,170,19.799,170,20.282,170C20.765,170,21.247,170,21.73,170C22.213,170,22.696,170,23.179,170C23.662,170,24.145,170,24.628,170C25.111,170,25.594,170,26.076,170C26.559,170,27.042,170,27.525,170C28.008,170,28.491,170,28.974,170C29.457,170,29.94,170,30.423,170C30.905,170,31.388,170,31.871,170C32.354,170,32.837,170,33.32,170C33.803,170,34.286,170,34.769,170C35.252,170,35.734,170,36.217,170C36.7,170,37.183,170,37.666,170C38.149,170,38.632,170,39.115,170C39.598,170,40.08,170,40.563,170C41.046,170,41.529,170,42.012,170C42.495,170,42.978,170,43.461,170C43.944,170,44.427,170,44.909,170C45.392,170,45.875,170,46.358,170C46.841,170,47.324,170,47.807,170C48.29,170,48.773,170,49.256,170C49.738,170,50.221,170,50.704,170C51.187,170,51.67,170,52.153,170C52.636,170,53.119,170,53.602,170C54.085,170,54.567,170,55.05,170C55.533,170,56.016,170,56.499,170C56.982,170,57.465,170,57.948,170C58.431,170,58.913,170,59.396,170C59.879,170,60.362,170,60.845,170C61.328,170,61.811,170,62.294,170C62.777,170,63.26,170,63.742,170C64.225,170,64.708,170,65.191,170C65.674,170,66.157,170,66.64,170C67.123,170,67.606,170,68.089,170C68.571,170,69.054,170,69.537,170C70.02,170,70.503,170,70.986,170C71.469,170,71.952,170,72.435,170C72.918,170,73.4,170,73.883,170C74.366,170,74.849,170,75.332,170C75.815,170,76.298,170,76.781,170C77.264,170,77.746,170,78.229,170C78.712,170,79.195,170,79.678,170C80.161,170,80.644,170,81.127,170C81.61,170,82.093,170,82.575,170C83.058,170,83.541,170,84.024,170C84.507,170,84.99,170,85.473,170C85.956,170,86.439,170,86.922,170C87.404,170,87.887,170,88.37,170C88.853,170,89.336,170,89.819,170C90.302,170,90.785,170,91.268,170C91.751,170,92.233,170,92.716,170C93.199,170,93.682,170,94.165,170C94.648,170,95.131,170,95.614,170C96.097,170,96.579,170,97.062,170C97.545,170,98.028,170,98.511,170C98.994,170,99.477,170,99.96,170C100.443,170,100.926,170,101.408,170C101.891,170,102.374,170,102.857,170C103.34,170,103.823,170,104.306,170C104.789,170,105.272,170,105.755,170C106.237,170,106.72,170,107.203,170C107.686,170,108.169,170,108.652,170C109.135,170,109.618,170,110.101,170C110.584,170,111.066,170,111.549,170C112.032,170,112.515,170,112.998,170C113.481,170,113.964,170,114.447,170C114.93,170,115.412,170,115.895,170C116.378,170,116.861,170,117.344,170C117.827,170,118.31,170,118.793,170C119.276,170,119.759,170,120.241,170C120.724,170,121.207,170,121.69,170C122.173,170,122.656,170,123.139,170C123.622,170,124.105,170,124.588,170C125.07,170,125.553,170,126.036,170C126.519,170,127.002,170,127.485,170C127.968,170,128.451,170,128.934,170C129.416,170,129.899,170,130.382,170C130.865,170,131.348,170,131.831,170C132.314,170,132.797,170,133.28,170C133.763,170,134.245,170,134.728,170C135.211,170,135.694,170,136.177,170C136.66,170,137.143,170,137.626,170C138.109,170,138.592,170,139.074,170C139.557,170,140.04,170,140.523,170C141.006,170,141.489,170,141.972,170C142.455,170,142.938,170,143.421,170C143.903,170,144.386,170,144.869,170C145.352,170,145.835,170,146.318,170C146.801,170,147.284,170,147.767,170C148.249,170,148.732,170,149.215,170C149.698,170,150.181,170,150.664,170C151.147,170,151.63,170,152.113,170C152.596,170,153.078,170,153.561,170C154.044,170,154.527,170,155.01,170C155.493,170,155.976,170,156.459,170C156.942,170,157.425,170,157.907,170C158.39,170,158.873,170,159.356,170C159.839,170,160.322,170,160.805,170C161.288,170,161.771,170,162.254,170C162.736,170,163.219,170,163.702,170C164.185,170,164.668,170,165.151,170C165.634,170,166.117,170,166.6,170C167.082,170,167.565,170,168.048,170C168.531,170,169.014,170,169.497,170C169.98,170,170.463,170,170.946,170C171.429,170,171.911,170,172.394,170C172.877,170,173.36,170,173.843,170C174.326,170,174.809,170,175.292,170C175.775,170,176.258,170,176.74,170C177.223,170,177.706,170,178.189,170C178.672,170,179.155,170,179.638,170C180.121,170,180.604,170,181.087,170C181.569,170,182.052,170,182.535,170C183.018,170,183.501,170,183.984,170C184.467,170,184.95,170,185.433,170C185.915,170,186.398,170,186.881,170C187.364,170,187.847,170,188.33,170C188.813,170,189.296,170,189.779,170C190.262,170,190.744,170,191.227,170C191.71,170,192.193,170,192.676,170C193.159,170,193.642,170,194.125,170C194.608,170,195.091,170,195.573,170C196.056,170,196.539,170,197.022,170C197.505,170,197.988,170,198.471,170C198.954,170,199.437,170,199.92,170C200.402,170,200.885,170,201.368,170C201.851,170,202.334,170,202.817,170C203.3,170,203.783,170,204.266,170C204.748,170,205.231,170,205.714,170C206.197,170,206.68,170,207.163,170C207.646,170,208.129,170,208.612,170C209.095,170,209.577,170,210.06,170C210.543,170,211.026,170,211.509,170C211.992,170,212.475,170,212.958,170C213.441,170,213.924,170,214.406,170C214.889,170,215.372,170,215.855,170C216.338,170,216.821,170,217.304,170C217.787,170,218.27,170,218.753,170C219.235,170,219.718,170,220.201,170C220.684,170,221.167,170,221.65,170C222.133,170,222.616,170,223.099,170C223.581,170,224.064,170,224.547,170C225.03,170,225.513,170,225.996,170C226.479,170,226.962,170,227.445,170C227.928,170,228.41,170,228.893,170C229.376,170,229.859,170,230.342,170C230.825,170,231.308,170,231.791,170C232.274,170,232.757,170,233.239,170C233.722,170,234.205,170,234.688,170C235.171,170,235.654,170,236.137,170C236.62,170,237.103,170,237.586,170C238.068,170,238.551,170,239.034,170C239.517,170,240,170,240.483,170C240.966,170,241.449,170,241.932,170C242.414,170,242.897,170,243.38,170C243.863,170,244.346,170,244.829,170C245.312,170,245.795,170,246.278,170C246.761,170,247.243,170,247.726,170C248.209,170,248.692,170,249.175,170C249.658,170,250.141,170,250.624,170C251.107,170,251.59,170,252.072,170C252.555,170,253.038,170,253.521,170C254.004,170,254.487,170,254.97,170C255.453,170,255.936,170,256.419,170C256.901,170,257.384,170,257.867,170C258.35,170,258.833,170,259.316,170C259.799,170,260.282,170,260.765,170C261.247,170,261.73,170,262.213,170C262.696,170,263.179,170,263.662,170C264.145,170,264.628,170,265.111,170C265.594,170,266.076,170,266.559,170C267.042,170,267.525,170,268.008,170C268.491,170,268.974,170,269.457,170C269.94,170,270.423,170,270.905,170C271.388,170,271.871,170,272.354,170C272.837,170,273.32,170,273.803,170C274.286,170,274.769,170,275.252,170C275.734,170,276.217,170,276.7,170C277.183,170,277.666,170,278.149,170C278.632,170,279.115,170,279.598,170C280.08,170,280.563,170,281.046,170C281.529,170,282.012,170,282.495,170C282.978,170,283.461,170,283.944,170C284.427,170,284.909,170,285.392,170C285.875,170,286.358,170,286.841,170C287.324,170,287.807,170,288.29,170C288.773,170,289.256,170,289.738,170C290.221,170,290.704,170,291.187,170C291.67,170,292.153,170,292.636,170C293.119,170,293.602,170,294.085,170C294.567,170,295.05,170,295.533,170C296.016,170,296.499,170,296.982,170C297.465,170,297.948,170,298.431,170C298.913,170,299.396,170,299.879,170C300.362,170,300.845,170,301.328,170C301.811,170,302.294,170,302.777,170C303.26,170,303.742,170,304.225,170C304.708,170,305.191,170,305.674,170C306.157,170,306.64,170,307.123,170C307.606,170,308.089,170,308.571,170C309.054,170,309.537,170,310.02,170C310.503,170,310.986,170,311.469,170C311.952,170,312.435,170,312.918,170C313.4,170,313.883,170,314.366,170C314.849,170,315.332,170,315.815,170C316.298,170,316.781,170,317.264,170C317.746,170,318.229,170,318.712,170C319.195,170,319.678,170,320.161,170C320.644,170,321.127,170,321.61,170C322.093,170,322.575,170,323.058,170C323.541,170,324.024,170,324.507,170C324.99,170,325.473,170,325.956,170C326.439,170,326.922,170,327.404,170C327.887,170,328.37,170,328.853,170C329.336,170,329.819,170,330.302,170C330.785,170,331.268,170,331.751,170C332.233,170,332.716,170,333.199,170C333.682,170,334.165,170,334.648,170C335.131,170,335.614,170,336.097,170C336.579,170,337.062,170,337.545,170C338.028,170,338.511,170,338.994,170C339.477,170,339.96,170,340.443,170C340.926,170,341.408,170,341.891,170C342.374,170,342.857,170,343.34,170C343.823,170,344.306,170,344.789,170C345.272,170,345.755,170,346.237,170C346.72,170,347.203,170,347.686,170C348.169,170,348.652,170,349.135,170C349.618,170,350.101,170,350.584,170C351.066,170,351.549,170,352.032,170C352.515,170,352.998,170,353.481,170C353.964,170,354.447,170,354.93,170C355.412,170,355.895,170,356.378,170C356.861,170,357.344,170,357.827,170C358.31,170,358.793,170,359.276,170C359.759,170,360.241,170,360.724,170C361.207,170,361.69,170,362.173,170C362.656,170,363.139,170,363.622,170C364.105,170,364.588,170,365.07,170C365.553,170,366.036,170,366.519,170C367.002,170,367.485,170,367.968,170C368.451,170,368.934,170,369.416,170C369.899,170,370.382,170,370.865,170C371.348,170,371.831,170,372.314,170C372.797,170,373.28,170,373.763,170C374.245,170,374.728,170,375.211,170C375.694,170,376.177,170,376.66,170C377.143,170,377.626,170,378.109,170C378.592,170,379.074,170,379.557,170C380.04,170,380.523,170,381.006,170C381.489,170,381.972,170,382.455,170C382.938,170,383.421,170,383.903,170C384.386,170,384.869,170,385.352,170C385.835,170,386.318,170,386.801,170C387.284,170,387.767,170,388.249,170C388.732,170,389.215,170,389.698,170C390.181,170,390.664,170,391.147,170C391.63,170,392.113,170,392.596,170C393.078,170,393.561,170,394.044,170C394.527,170,395.01,170,395.493,170C395.976,170,396.459,170,396.942,170C397.425,170,397.907,170,398.39,170C398.873,170,399.356,170,399.839,170C400.322,170,400.805,170,401.288,170C401.771,170,402.254,170,402.736,170C403.219,170,403.702,170,404.185,170C404.668,170,405.151,170,405.634,170C406.117,170,406.6,170,407.082,170C407.565,170,408.048,170,408.531,170C409.014,170,409.497,170,409.98,170C410.463,170,410.946,170,411.429,170C411.911,170,412.394,170,412.877,170C413.36,170,413.843,170,414.326,170C414.809,170,415.292,170,415.775,170C416.258,170,416.74,170,417.223,170C417.706,170,418.189,170,418.672,170C419.155,170,419.638,170,420.121,170C420.604,170,421.087,170,421.569,170C422.052,170,422.535,170,423.018,170C423.501,170,423.984,170,424.467,170C424.95,170,425.433,170,425.915,170C426.398,170,426.881,170,427.364,170C427.847,170,428.33,170,428.813,170C429.296,170,429.779,170,430.262,170C430.744,170,431.227,170,431.71,170C432.193,170,432.676,170,433.159,170C433.642,170,434.125,170,434.608,170C435.091,170,435.573,170,436.056,170C436.539,170,437.022,170,437.505,170C437.988,170,438.471,170,438.954,170C439.437,170,439.92,170,440.402,170C440.885,170,441.368,170,441.851,170C442.334,170,442.817,170,443.3,170C443.783,170,444.266,170,444.748,170C445.231,170,445.714,170,446.197,170C446.68,170,447.163,170,447.646,170C448.129,170,448.612,170,449.095,170C449.577,170,450.06,170,450.543,170C451.026,170,451.509,170,451.992,170C452.475,170,452.958,170,453.441,170C453.924,170,454.406,170,454.889,170C455.372,170,455.855,170,456.338,170C456.821,170,457.304,170,457.787,170C458.27,170,458.753,170,459.235,170C459.718,170,460.201,170,460.684,170C461.167,170,461.65,170,462.133,170C462.616,170,463.099,170,463.581,170C464.064,170,464.547,170,465.03,170C465.513,170,465.996,170,466.479,170C466.962,170,467.445,170,467.928,170C468.41,170,468.893,170,469.376,170C469.859,170,470.342,170,470.825,170C471.308,170,471.791,170,472.274,170C472.757,170,473.239,170,473.722,170C474.205,170,474.688,170,475.171,170C475.654,170,476.137,170,476.62,170C477.103,170,477.586,170,478.068,170C478.551,170,479.034,170,479.517,170C480,170,480.483,170,480.966,170C481.449,170,481.932,170,482.414,170C482.897,170,483.38,170,483.863,170C484.346,170,484.829,170,485.312,170C485.795,170,486.278,170,486.761,170C487.243,170,487.726,170,488.209,170C488.692,170,489.175,170,489.658,170C490.141,170,490.624,170,491.107,170C491.59,170,492.072,170,492.555,170C493.038,170,493.521,170,494.004,170C494.487,170,494.97,170,495.453,170C495.936,170,496.419,170,496.901,170C497.384,170,497.867,170,498.35,170C498.833,170,499.316,170,499.799,170C500.282,170,500.765,170,501.247,170C501.73,170,502.213,170,502.696,170C503.179,170,503.662,170,504.145,170C504.628,170,505.111,170,505.594,170C506.076,170,506.559,170,507.042,170C507.525,170,508.008,170,508.491,170C508.974,170,509.457,170,509.94,170C510.423,170,510.905,170,511.388,170C511.871,170,512.354,170,512.837,170C513.32,170,513.803,170,514.286,170C514.769,170,515.252,170,515.734,170C516.217,170,516.7,170,517.183,170C517.666,170,518.149,170,518.632,170C519.115,170,519.598,170,520.08,170C520.563,170,521.046,170,521.529,170C522.012,170,522.495,170,522.978,170C523.461,170,523.944,170,524.427,170C524.909,170,525.392,170,525.875,170C526.358,170,526.841,170,527.324,170C527.807,170,528.29,170,528.773,170C529.256,170,529.738,170,530.221,170C530.704,170,531.187,170,531.67,170C532.153,170,532.636,170,533.119,170C533.602,170,534.085,170,534.567,170C535.05,170,535.533,170,536.016,170C536.499,170,536.982,170,537.465,170C537.948,170,538.431,170,538.913,170C539.396,170,539.879,170,540.362,170C540.845,170,541.328,170,541.811,170C542.294,170,542.777,170,543.26,170C543.742,170,544.225,170,544.708,170C545.191,170,545.674,170,546.157,170C546.64,170,547.123,170,547.606,170C548.089,170,548.571,170,549.054,170C549.537,170,550.02,170,550.503,170C550.986,170,551.469,170,551.952,170C552.435,170,552.918,170,553.4,170C553.883,170,554.366,170,554.849,170C555.332,170,555.815,170,556.298,170C556.781,170,557.264,170,557.746,170C558.229,170,558.712,170,559.195,170C559.678,170,560.161,170,560.644,170C561.127,170,561.61,170,562.093,170C562.575,170,563.058,170,563.541,170C564.024,170,564.507,170,564.99,170C565.473,170,565.956,170,566.439,170C566.922,170,567.404,170,567.887,170C568.37,170,568.853,170,569.336,170C569.819,170,570.302,170,570.785,170C571.268,170,571.751,170,572.233,170C572.716,170,573.199,170,573.682,170C574.165,170,574.648,170,575.131,170C575.614,170,576.097,170,576.579,170C577.062,170,577.545,170,578.028,170C578.511,170,578.994,170,579.477,170C579.96,170,580.443,170,580.926,170C581.408,170,581.891,170,582.374,170C582.857,170,583.34,170,583.823,170C584.306,170,584.789,170,585.272,170C585.755,170,586.237,170,586.72,170C587.203,170,587.686,170,588.169,170C588.652,170,589.135,170,589.618,170C590.101,170,590.584,170,591.066,170C591.549,170,592.032,170,592.515,170C592.998,170,593.481,170,593.964,170C594.447,170,594.93,170,595.412,170C595.895,170,596.378,170,596.861,170C597.344,170,597.827,170,598.31,170C598.793,170,599.276,170,599.759,170C600.241,170,600.724,170,601.207,170C601.69,170,602.173,170,602.656,170C603.139,170,603.622,170,604.105,170C604.588,170,605.07,170,605.553,170C606.036,170,606.519,170,607.002,170C607.485,170,607.968,170,608.451,170C608.934,170,609.416,170,609.899,170C610.382,170,610.865,170,611.348,170C611.831,170,612.314,170,612.797,170C613.28,170,613.763,170,614.245,170C614.728,170,615.211,170,615.694,170C616.177,170,616.66,170,617.143,170C617.626,170,618.109,170,618.592,170C619.074,170,619.557,170,620.04,170C620.523,170,621.006,170,621.489,170C621.972,170,622.455,170,622.938,170C623.421,170,623.903,170,624.386,170C624.869,170,625.352,170,625.835,170C626.318,170,626.801,170,627.284,170C627.767,170,628.249,170,628.732,170C629.215,170,629.698,170,630.181,170C630.664,170,631.147,170,631.63,170C632.113,170,632.596,170,633.078,170C633.561,170,634.044,170,634.527,170C635.01,170,635.493,170,635.976,170C636.459,170,636.942,170,637.425,170C637.907,170,638.39,170,638.873,170C639.356,170,639.839,170,640.322,170C640.805,170,641.288,170,641.771,170C642.254,170,642.736,170,643.219,170C643.702,170,644.185,170,644.668,170C645.151,170,645.634,170,646.117,170C646.6,170,647.082,170,647.565,170C648.048,170,648.531,170,649.014,170C649.497,170,649.98,170,650.463,170C650.946,170,651.429,170,651.911,170C652.394,170,652.877,170,653.36,170C653.843,170,654.326,170,654.809,170C655.292,170,655.775,170,656.258,170C656.74,170,657.223,170,657.706,170C658.189,170,658.672,170,659.155,170C659.638,170,660.121,170,660.604,170C661.087,170,661.569,170,662.052,170C662.535,170,663.018,170,663.501,170C663.984,170,664.467,170,664.95,170C665.433,170,665.915,170,666.398,170C666.881,170,667.364,170,667.847,170C668.33,170,668.813,170,669.296,170C669.779,170,670.262,170,670.744,170C671.227,170,671.71,170,672.193,170C672.676,170,673.159,170,673.642,170C674.125,170,674.608,170,675.091,170C675.573,170,676.056,170,676.539,170C677.022,170,677.505,170,677.988,170C678.471,170,678.954,170,679.437,170C679.92,170,680.402,170,680.885,170C681.368,170,681.851,170,682.334,170C682.817,170,683.3,170,683.783,170C684.266,170,684.748,170,685.231,170C685.714,170,686.197,170,686.68,170C687.163,170,687.646,170,688.129,170C688.612,170,689.095,170,689.577,170C690.06,170,690.543,170,691.026,170C691.509,170,691.992,170,692.475,170C692.958,170,693.441,170,693.924,170C694.406,170,694.889,170,695.372,170C695.855,170,696.338,170,696.821,170C697.304,170,697.787,170,698.27,170C698.753,170,699.235,170,699.718,170C700.201,170,700.684,170,701.167,170C701.65,170,702.133,170,702.616,170C703.099,170,703.581,170,704.064,170C704.547,170,705.03,170,705.513,170C705.996,170,706.479,170,706.962,170C707.445,170,707.928,170,708.41,170C708.893,170,709.376,170,709.859,170C710.342,170,710.825,170,711.308,170C711.791,170,712.274,170,712.757,170C713.239,170,713.722,170,714.205,170C714.688,170,715.171,170,715.654,170C716.137,170,716.62,170,717.103,170C717.586,170,718.068,170,718.551,170C719.034,170,719.517,170,720,170"></path><circle class="dot" cx="0" cy="170" r="3" fill="#2563eb"></circle><circle class="dot" cx="1.4486921529175052" cy="170" r="3" fill="#2563eb"></circle><circle class="dot" cx="2.8973843058350104" cy="170" r="3" fill="#2563eb"></circle><circle class="dot" cx="4.346076458752515" cy="170" r="3" fill="#2563eb"></circle><circle class="dot" cx="5.794768611670021" cy="170" r="3" fill="#2563eb"></circle><circle class="dot" cx="7.2434607645875255" cy="170" r="3" fill="#2563eb"></circle><circle class="dot" cx="8.69215291750503" cy="170" r="3" fill="#2563eb"></circle><circle class="dot" cx="10.140845070422536" cy="170" r="3" fill="#2563eb"></circle><circle class="dot" cx="11.589537223340042" cy="170" r="3" fill="#2563eb"></circle><circle class="dot" cx="13.038229376257545" cy="170" r="3" fill="#2563eb"></circle><circle class="dot" cx="14.486921529175051" cy="170" r="3" fill="#2563eb"></circle><circle class="dot" cx="15.935613682092555" cy="170" r="3" fill="#2563eb"></circle><circle class="dot" cx="17.38430583501006" cy="170" r="3" fill="#2563eb"></circle><circle class="dot" cx="18.832997987927566" cy="170" r="3" fill="#2563eb"></circle><circle class="dot" cx="20.281690140845072" cy="170" r="3" fill="#2563eb"></circle><circle class="dot" cx="21.730382293762574" cy="170" r="3" fill="#2563eb"></circle><circle class="dot" cx="23.179074446680083" cy="170" r="3" fill="#2563eb"></circle><circle class="dot" cx="24.627766599597585" cy="170" r="3" fill="#2563eb"></circle><circle class="dot" cx="26.07645875251509" cy="170" r="3" fill="#2563eb"></circle><circle class="dot" cx="27.525150905432596" cy="170" r="3" fill="#2563eb"></circle><circle class="dot" cx="28.973843058350102" cy="170" r="3" fill="#2563eb"></circle><circle class="dot" cx="30.422535211267604" cy="170" r="3" fill="#2563eb"></circle><circle class="dot" cx="31.87122736418511" cy="170" r="3" fill="#2563eb"></circle><circle class="dot" cx="33.31991951710261" cy="170" r="3" fill="#2563eb"></circle><circle class="dot" cx="34.76861167002012" cy="170" r="3" fill="#2563eb"></circle><circle class="dot" cx="36.21730382293763" cy="170" r="3" fill="#2563eb"></circle><circle class="dot" cx="37.66599597585513" cy="170" r="3" fill="#2563eb"></circle><circle class="dot" cx="39.114688128772634" cy="170" r="3" fill="#2563eb"></circle><circle class="dot" cx="40.563380281690144" cy="170" r="3" fill="#2563eb"></circle><circle class="dot" cx="42.012072434607646" cy="170" r="3" fill="#2563eb"></circle><circle class="dot" cx="43.46076458752515" cy="170" r="3" fill="#2563eb"></circle><circle class="dot" cx="44.90945674044266" cy="170" r="3" fill="#2563eb"></circle><circle class="dot" cx="46.358148893360166" cy="170" r="3" fill="#2563eb"></circle><circle class="dot" cx="47.80684104627767" cy="170" r="3" fill="#2563eb"></circle><circle class="dot" cx="49.25553319919517" cy="170" r="3" fill="#2563eb"></circle><circle class="dot" cx="50.70422535211268" cy="170" r="3" fill="#2563eb"></circle><circle class="dot" cx="52.15291750503018" cy="170" r="3" fill="#2563eb"></circle><circle class="dot" cx="53.60160965794769" cy="170" r="3" fill="#2563eb"></circle><circle class="dot" cx="55.05030181086519" cy="170" r="3" fill="#2563eb"></circle><circle class="dot" cx="56.498993963782695" cy="170" r="3" fill="#2563eb"></circle><circle class="dot" cx="57.947686116700204" cy="170" r="3" fill="#2563eb"></circle><circle class="dot" cx="59.396378269617706" cy="170" r="3" fill="#2563eb"></circle><circle class="dot" cx="60.84507042253521" cy="170" r="3" fill="#2563eb"></circle><circle class="dot" cx="62.29376257545272" cy="170" r="3" fill="#2563eb"></circle><circle class="dot" cx="63.74245472837022" cy="170" r="3" fill="#2563eb"></circle><circle class="dot" cx="65.19114688128772" cy="170" r="3" fill="#2563eb"></circle><circle class="dot" cx="66.63983903420522" cy="170" r="3" fill="#2563eb"></circle><circle class="dot" cx="68.08853118712273" cy="170" r="3" fill="#2563eb"></circle><circle class="dot" cx="69.53722334004024" cy="170" r="3" fill="#2563eb"></circle><circle class="dot" cx="70.98591549295774" cy="170" r="3" fill="#2563eb"></circle><circle class="dot" cx="72.43460764587526" cy="170" r="3" fill="#2563eb"></circle><circle class="dot" cx="73.88329979879276" cy="170" r="3" fill="#2563eb"></circle><circle class="dot" cx="75.33199195171026" cy="170" r="3" fill="#2563eb"></circle><circle class="dot" cx="76.78068410462777" cy="170" r="3" fill="#2563eb"></circle><circle class="dot" cx="78.22937625754527" cy="170" r="3" fill="#2563eb"></circle><circle class="dot" cx="79.67806841046279" cy="170" r="3" fill="#2563eb"></circle><circle class="dot" cx="81.12676056338029" cy="170" r="3" fill="#2563eb"></circle><circle class="dot" cx="82.57545271629779" cy="170" r="3" fill="#2563eb"></circle><circle class="dot" cx="84.02414486921529" cy="170" r="3" fill="#2563eb"></circle><circle class="dot" cx="85.4728370221328" cy="170" r="3" fill="#2563eb"></circle><circle class="dot" cx="86.9215291750503" cy="170" r="3" fill="#2563eb"></circle><circle class="dot" cx="88.37022132796781" cy="170" r="3" fill="#2563eb"></circle><circle class="dot" cx="89.81891348088531" cy="170" r="3" fill="#2563eb"></circle><circle class="dot" cx="91.26760563380282" cy="170" r="3" fill="#2563eb"></circle><circle class="dot" cx="92.71629778672033" cy="170" r="3" fill="#2563eb"></circle><circle class="dot" cx="94.16498993963782" cy="170" r="3" fill="#2563eb"></circle><circle class="dot" cx="95.61368209255534" cy="170" r="3" fill="#2563eb"></circle><circle class="dot" cx="97.06237424547284" cy="170" r="3" fill="#2563eb"></circle><circle class="dot" cx="98.51106639839034" cy="170" r="3" fill="#2563eb"></circle><circle class="dot" cx="99.95975855130784" cy="170" r="3" fill="#2563eb"></circle><circle class="dot" cx="101.40845070422536" cy="170" r="3" fill="#2563eb"></circle><circle class="dot" cx="102.85714285714285" cy="170" r="3" fill="#2563eb"></circle><circle class="dot" cx="104.30583501006036" cy="170" r="3" fill="#2563eb"></circle><circle class="dot" cx="105.75452716297787" cy="170" r="3" fill="#2563eb"></circle><circle class="dot" cx="107.20321931589538" cy="170" r="3" fill="#2563eb"></circle><circle class="dot" cx="108.65191146881287" cy="170" r="3" fill="#2563eb"></circle><circle class="dot" cx="110.10060362173039" cy="170" r="3" fill="#2563eb"></circle><circle class="dot" cx="111.54929577464787" cy="170" r="3" fill="#2563eb"></circle><circle class="dot" cx="112.99798792756539" cy="170" r="3" fill="#2563eb"></circle><circle class="dot" cx="114.44668008048289" cy="170" r="3" fill="#2563eb"></circle><circle class="dot" cx="115.89537223340041" cy="170" r="3" fill="#2563eb"></circle><circle class="dot" cx="117.34406438631791" cy="170" r="3" fill="#2563eb"></circle><circle class="dot" cx="118.79275653923541" cy="170" r="3" fill="#2563eb"></circle><circle class="dot" cx="120.24144869215293" cy="170" r="3" fill="#2563eb"></circle><circle class="dot" cx="121.69014084507042" cy="170" r="3" fill="#2563eb"></circle><circle class="dot" cx="123.13883299798793" cy="170" r="3" fill="#2563eb"></circle><circle class="dot" cx="124.58752515090544" cy="170" r="3" fill="#2563eb"></circle><circle class="dot" cx="126.03621730382294" cy="170" r="3" fill="#2563eb"></circle><circle class="dot" cx="127.48490945674044" cy="170" r="3" fill="#2563eb"></circle><circle class="dot" cx="128.93360160965796" cy="170" r="3" fill="#2563eb"></circle><circle class="dot" cx="130.38229376257544" cy="170" r="3" fill="#2563eb"></circle><circle class="dot" cx="131.83098591549296" cy="170" r="3" fill="#2563eb"></circle><circle class="dot" cx="133.27967806841045" cy="170" r="3" fill="#2563eb"></circle><circle class="dot" cx="134.72837022132796" cy="170" r="3" fill="#2563eb"></circle><circle class="dot" cx="136.17706237424545" cy="170" r="3" fill="#2563eb"></circle><circle class="dot" cx="137.62575452716297" cy="170" r="3" fill="#2563eb"></circle><circle class="dot" cx="139.07444668008048" cy="170" r="3" fill="#2563eb"></circle><circle class="dot" cx="140.523138832998" cy="170" r="3" fill="#2563eb"></circle><circle class="dot" cx="141.9718309859155" cy="170" r="3" fill="#2563eb"></circle><circle class="dot" cx="143.420523138833" cy="170" r="3" fill="#2563eb"></circle><circle class="dot" cx="144.86921529175052" cy="170" r="3" fill="#2563eb"></circle><circle class="dot" cx="146.317907444668" cy="170" r="3" fill="#2563eb"></circle><circle class="dot" cx="147.76659959758553" cy="170" r="3" fill="#2563eb"></circle><circle class="dot" cx="149.215291750503" cy="170" r="3" fill="#2563eb"></circle><circle class="dot" cx="150.66398390342053" cy="170" r="3" fill="#2563eb"></circle><circle class="dot" cx="152.11267605633802" cy="170" r="3" fill="#2563eb"></circle><circle class="dot" cx="153.56136820925553" cy="170" r="3" fill="#2563eb"></circle><circle class="dot" cx="155.01006036217302" cy="170" r="3" fill="#2563eb"></circle><circle class="dot" cx="156.45875251509054" cy="170" r="3" fill="#2563eb"></circle><circle class="dot" cx="157.90744466800805" cy="170" r="3" fill="#2563eb"></circle><circle class="dot" cx="159.35613682092557" cy="170" r="3" fill="#2563eb"></circle><circle class="dot" cx="160.80482897384306" cy="170" r="3" fill="#2563eb"></circle><circle class="dot" cx="162.25352112676057" cy="170" r="3" fill="#2563eb"></circle><circle class="dot" cx="163.70221327967806" cy="170" r="3" fill="#2563eb"></circle><circle class="dot" cx="165.15090543259558" cy="170" r="3" fill="#2563eb"></circle><circle class="dot" cx="166.59959758551307" cy="170" r="3" fill="#2563eb"></circle><circle class="dot" cx="168.04828973843058" cy="170" r="3" fill="#2563eb"></circle><circle class="dot" cx="169.49698189134807" cy="170" r="3" fill="#2563eb"></circle><circle class="dot" cx="170.9456740442656" cy="170" r="3" fill="#2563eb"></circle><circle class="dot" cx="172.39436619718307" cy="170" r="3" fill="#2563eb"></circle><circle class="dot" cx="173.8430583501006" cy="170" r="3" fill="#2563eb"></circle><circle class="dot" cx="175.2917505030181" cy="170" r="3" fill="#2563eb"></circle><circle class="dot" cx="176.74044265593562" cy="170" r="3" fill="#2563eb"></circle><circle class="dot" cx="178.18913480885314" cy="170" r="3" fill="#2563eb"></circle><circle class="dot" cx="179.63782696177063" cy="170" r="3" fill="#2563eb"></circle><circle class="dot" cx="181.08651911468812" cy="170" r="3" fill="#2563eb"></circle><circle class="dot" cx="182.53521126760563" cy="170" r="3" fill="#2563eb"></circle><circle class="dot" cx="183.98390342052315" cy="170" r="3" fill="#2563eb"></circle><circle class="dot" cx="185.43259557344066" cy="170" r="3" fill="#2563eb"></circle><circle class="dot" cx="186.88128772635812" cy="170" r="3" fill="#2563eb"></circle><circle class="dot" cx="188.32997987927564" cy="170" r="3" fill="#2563eb"></circle><circle class="dot" cx="189.77867203219316" cy="170" r="3" fill="#2563eb"></circle><circle class="dot" cx="191.22736418511067" cy="170" r="3" fill="#2563eb"></circle><circle class="dot" cx="192.67605633802816" cy="170" r="3" fill="#2563eb"></circle><circle class="dot" cx="194.12474849094568" cy="170" r="3" fill="#2563eb"></circle><circle class="dot" cx="195.5734406438632" cy="170" r="3" fill="#2563eb"></circle><circle class="dot" cx="197.02213279678068" cy="170" r="3" fill="#2563eb"></circle><circle class="dot" cx="198.47082494969817" cy="170" r="3" fill="#2563eb"></circle><circle class="dot" cx="199.91951710261569" cy="170" r="3" fill="#2563eb"></circle><circle class="dot" cx="201.3682092555332" cy="170" r="3" fill="#2563eb"></circle><circle class="dot" cx="202.81690140845072" cy="170" r="3" fill="#2563eb"></circle><circle class="dot" cx="204.26559356136823" cy="170" r="3" fill="#2563eb"></circle><circle class="dot" cx="205.7142857142857" cy="170" r="3" fill="#2563eb"></circle><circle class="dot" cx="207.1629778672032" cy="170" r="3" fill="#2563eb"></circle><circle class="dot" cx="208.61167002012073" cy="170" r="3" fill="#2563eb"></circle><circle class="dot" cx="210.06036217303824" cy="170" r="3" fill="#2563eb"></circle><circle class="dot" cx="211.50905432595573" cy="170" r="3" fill="#2563eb"></circle><circle class="dot" cx="212.95774647887325" cy="170" r="3" fill="#2563eb"></circle><circle class="dot" cx="214.40643863179076" cy="170" r="3" fill="#2563eb"></circle><circle class="dot" cx="215.85513078470825" cy="170" r="3" fill="#2563eb"></circle><circle class="dot" cx="217.30382293762574" cy="170" r="3" fill="#2563eb"></circle><circle class="dot" cx="218.75251509054326" cy="170" r="3" fill="#2563eb"></circle><circle class="dot" cx="220.20120724346077" cy="170" r="3" fill="#2563eb"></circle><circle class="dot" cx="221.6498993963783" cy="170" r="3" fill="#2563eb"></circle><circle class="dot" cx="223.09859154929575" cy="170" r="3" fill="#2563eb"></circle><circle class="dot" cx="224.54728370221326" cy="170" r="3" fill="#2563eb"></circle><circle class="dot" cx="225.99597585513078" cy="170" r="3" fill="#2563eb"></circle><circle class="dot" cx="227.4446680080483" cy="170" r="3" fill="#2563eb"></circle><circle class="dot" cx="228.89336016096578" cy="170" r="3" fill="#2563eb"></circle><circle class="dot" cx="230.3420523138833" cy="170" r="3" fill="#2563eb"></circle><circle class="dot" cx="231.79074446680082" cy="170" r="3" fill="#2563eb"></circle><circle class="dot" cx="233.23943661971833" cy="170" r="3" fill="#2563eb"></circle><circle class="dot" cx="234.68812877263582" cy="170" r="3" fill="#2563eb"></circle><circle class="dot" cx="236.1368209255533" cy="170" r="3" fill="#2563eb"></circle><circle class="dot" cx="237.58551307847083" cy="170" r="3" fill="#2563eb"></circle><circle class="dot" cx="239.03420523138834" cy="170" r="3" fill="#2563eb"></circle><circle class="dot" cx="240.48289738430586" cy="170" r="3" fill="#2563eb"></circle><circle class="dot" cx="241.93158953722332" cy="170" r="3" fill="#2563eb"></circle><circle class="dot" cx="243.38028169014083" cy="170" r="3" fill="#2563eb"></circle><circle class="dot" cx="244.82897384305835" cy="170" r="3" fill="#2563eb"></circle><circle class="dot" cx="246.27766599597587" cy="170" r="3" fill="#2563eb"></circle><circle class="dot" cx="247.72635814889335" cy="170" r="3" fill="#2563eb"></circle><circle class="dot" cx="249.17505030181087" cy="170" r="3" fill="#2563eb"></circle><circle class="dot" cx="250.6237424547284" cy="170" r="3" fill="#2563eb"></circle><circle class="dot" cx="252.07243460764587" cy="170" r="3" fill="#2563eb"></circle><circle class="dot" cx="253.52112676056336" cy="170" r="3" fill="#2563eb"></circle><circle class="dot" cx="254.96981891348088" cy="170" r="3" fill="#2563eb"></circle><circle class="dot" cx="256.41851106639837" cy="170" r="3" fill="#2563eb"></circle><circle class="dot" cx="257.8672032193159" cy="170" r="3" fill="#2563eb"></circle><circle class="dot" cx="259.3158953722334" cy="170" r="3" fill="#2563eb"></circle><circle class="dot" cx="260.7645875251509" cy="170" r="3" fill="#2563eb"></circle><circle class="dot" cx="262.21327967806843" cy="170" r="3" fill="#2563eb"></circle><circle class="dot" cx="263.6619718309859" cy="170" r="3" fill="#2563eb"></circle><circle class="dot" cx="265.11066398390346" cy="170" r="3" fill="#2563eb"></circle><circle class="dot" cx="266.5593561368209" cy="170" r="3" fill="#2563eb"></circle><circle class="dot" cx="268.00804828973844" cy="170" r="3" fill="#2563eb"></circle><circle class="dot" cx="269.4567404426559" cy="170" r="3" fill="#2563eb"></circle><circle class="dot" cx="270.9054325955735" cy="170" r="3" fill="#2563eb"></circle><circle class="dot" cx="272.3541247484909" cy="170" r="3" fill="#2563eb"></circle><circle class="dot" cx="273.80281690140845" cy="170" r="3" fill="#2563eb"></circle><circle class="dot" cx="275.25150905432594" cy="170" r="3" fill="#2563eb"></circle><circle class="dot" cx="276.7002012072435" cy="170" r="3" fill="#2563eb"></circle><circle class="dot" cx="278.14889336016097" cy="170" r="3" fill="#2563eb"></circle><circle class="dot" cx="279.59758551307846" cy="170" r="3" fill="#2563eb"></circle><circle class="dot" cx="281.046277665996" cy="170" r="3" fill="#2563eb"></circle><circle class="dot" cx="282.4949698189135" cy="170" r="3" fill="#2563eb"></circle><circle class="dot" cx="283.943661971831" cy="170" r="3" fill="#2563eb"></circle><circle class="dot" cx="285.39235412474846" cy="170" r="3" fill="#2563eb"></circle><circle class="dot" cx="286.841046277666" cy="170" r="3" fill="#2563eb"></circle><circle class="dot" cx="288.2897384305835" cy="170" r="3" fill="#2563eb"></circle><circle class="dot" cx="289.73843058350104" cy="170" r="3" fill="#2563eb"></circle><circle class="dot" cx="291.1871227364185" cy="170" r="3" fill="#2563eb"></circle><circle class="dot" cx="292.635814889336" cy="170" r="3" fill="#2563eb"></circle><circle class="dot" cx="294.0845070422535" cy="170" r="3" fill="#2563eb"></circle><circle class="dot" cx="295.53319919517105" cy="170" r="3" fill="#2563eb"></circle><circle class="dot" cx="296.98189134808854" cy="170" r="3" fill="#2563eb"></circle><circle class="dot" cx="298.430583501006" cy="170" r="3" fill="#2563eb"></circle><circle class="dot" cx="299.87927565392357" cy="170" r="3" fill="#2563eb"></circle><circle class="dot" cx="301.32796780684106" cy="170" r="3" fill="#2563eb"></circle><circle class="dot" cx="302.77665995975855" cy="170" r="3" fill="#2563eb"></circle><circle class="dot" cx="304.22535211267603" cy="170" r="3" fill="#2563eb"></circle><circle class="dot" cx="305.6740442655936" cy="170" r="3" fill="#2563eb"></circle><circle class="dot" cx="307.12273641851107" cy="170" r="3" fill="#2563eb"></circle><circle class="dot" cx="308.57142857142856" cy="170" r="3" fill="#2563eb"></circle><circle class="dot" cx="310.02012072434604" cy="170" r="3" fill="#2563eb"></circle><circle class="dot" cx="311.4688128772636" cy="170" r="3" fill="#2563eb"></circle><circle class="dot" cx="312.9175050301811" cy="170" r="3" fill="#2563eb"></circle><circle class="dot" cx="314.36619718309856" cy="170" r="3" fill="#2563eb"></circle><circle class="dot" cx="315.8148893360161" cy="170" r="3" fill="#2563eb"></circle><circle class="dot" cx="317.2635814889336" cy="170" r="3" fill="#2563eb"></circle><circle class="dot" cx="318.71227364185114" cy="170" r="3" fill="#2563eb"></circle><circle class="dot" cx="320.16096579476863" cy="170" r="3" fill="#2563eb"></circle><circle class="dot" cx="321.6096579476861" cy="170" r="3" fill="#2563eb"></circle><circle class="dot" cx="323.0583501006036" cy="170" r="3" fill="#2563eb"></circle><circle class="dot" cx="324.50704225352115" cy="170" r="3" fill="#2563eb"></circle><circle class="dot" cx="325.95573440643864" cy="170" r="3" fill="#2563eb"></circle><circle class="dot" cx="327.4044265593561" cy="170" r="3" fill="#2563eb"></circle><circle class="dot" cx="328.8531187122736" cy="170" r="3" fill="#2563eb"></circle><circle class="dot" cx="330.30181086519116" cy="170" r="3" fill="#2563eb"></circle><circle class="dot" cx="331.75050301810865" cy="170" r="3" fill="#2563eb"></circle><circle class="dot" cx="333.19919517102613" cy="170" r="3" fill="#2563eb"></circle><circle class="dot" cx="334.6478873239437" cy="170" r="3" fill="#2563eb"></circle><circle class="dot" cx="336.09657947686117" cy="170" r="3" fill="#2563eb"></circle><circle class="dot" cx="337.5452716297787" cy="170" r="3" fill="#2563eb"></circle><circle class="dot" cx="338.99396378269614" cy="170" r="3" fill="#2563eb"></circle><circle class="dot" cx="340.4426559356137" cy="170" r="3" fill="#2563eb"></circle><circle class="dot" cx="341.8913480885312" cy="170" r="3" fill="#2563eb"></circle><circle class="dot" cx="343.3400402414487" cy="170" r="3" fill="#2563eb"></circle><circle class="dot" cx="344.78873239436615" cy="170" r="3" fill="#2563eb"></circle><circle class="dot" cx="346.2374245472837" cy="170" r="3" fill="#2563eb"></circle><circle class="dot" cx="347.6861167002012" cy="170" r="3" fill="#2563eb"></circle><circle class="dot" cx="349.1348088531187" cy="170" r="3" fill="#2563eb"></circle><circle class="dot" cx="350.5835010060362" cy="170" r="3" fill="#2563eb"></circle><circle class="dot" cx="352.0321931589537" cy="170" r="3" fill="#2563eb"></circle><circle class="dot" cx="353.48088531187125" cy="170" r="3" fill="#2563eb"></circle><circle class="dot" cx="354.92957746478874" cy="170" r="3" fill="#2563eb"></circle><circle class="dot" cx="356.3782696177063" cy="170" r="3" fill="#2563eb"></circle><circle class="dot" cx="357.8269617706237" cy="170" r="3" fill="#2563eb"></circle><circle class="dot" cx="359.27565392354126" cy="170" r="3" fill="#2563eb"></circle><circle class="dot" cx="360.72434607645874" cy="170" r="3" fill="#2563eb"></circle><circle class="dot" cx="362.17303822937623" cy="170" r="3" fill="#2563eb"></circle><circle class="dot" cx="363.6217303822937" cy="170" r="3" fill="#2563eb"></circle><circle class="dot" cx="365.07042253521126" cy="170" r="3" fill="#2563eb"></circle><circle class="dot" cx="366.51911468812875" cy="170" r="3" fill="#2563eb"></circle><circle class="dot" cx="367.9678068410463" cy="170" r="3" fill="#2563eb"></circle><circle class="dot" cx="369.4164989939638" cy="170" r="3" fill="#2563eb"></circle><circle class="dot" cx="370.86519114688133" cy="170" r="3" fill="#2563eb"></circle><circle class="dot" cx="372.31388329979876" cy="170" r="3" fill="#2563eb"></circle><circle class="dot" cx="373.76257545271625" cy="170" r="3" fill="#2563eb"></circle><circle class="dot" cx="375.2112676056338" cy="170" r="3" fill="#2563eb"></circle><circle class="dot" cx="376.6599597585513" cy="170" r="3" fill="#2563eb"></circle><circle class="dot" cx="378.1086519114688" cy="170" r="3" fill="#2563eb"></circle><circle class="dot" cx="379.5573440643863" cy="170" r="3" fill="#2563eb"></circle><circle class="dot" cx="381.00603621730386" cy="170" r="3" fill="#2563eb"></circle><circle class="dot" cx="382.45472837022135" cy="170" r="3" fill="#2563eb"></circle><circle class="dot" cx="383.9034205231389" cy="170" r="3" fill="#2563eb"></circle><circle class="dot" cx="385.3521126760563" cy="170" r="3" fill="#2563eb"></circle><circle class="dot" cx="386.8008048289738" cy="170" r="3" fill="#2563eb"></circle><circle class="dot" cx="388.24949698189135" cy="170" r="3" fill="#2563eb"></circle><circle class="dot" cx="389.69818913480884" cy="170" r="3" fill="#2563eb"></circle><circle class="dot" cx="391.1468812877264" cy="170" r="3" fill="#2563eb"></circle><circle class="dot" cx="392.5955734406439" cy="170" r="3" fill="#2563eb"></circle><circle class="dot" cx="394.04426559356136" cy="170" r="3" fill="#2563eb"></circle><circle class="dot" cx="395.4929577464789" cy="170" r="3" fill="#2563eb"></circle><circle class="dot" cx="396.94164989939634" cy="170" r="3" fill="#2563eb"></circle><circle class="dot" cx="398.3903420523138" cy="170" r="3" fill="#2563eb"></circle><circle class="dot" cx="399.83903420523137" cy="170" r="3" fill="#2563eb"></circle><circle class="dot" cx="401.28772635814886" cy="170" r="3" fill="#2563eb"></circle><circle class="dot" cx="402.7364185110664" cy="170" r="3" fill="#2563eb"></circle><circle class="dot" cx="404.1851106639839" cy="170" r="3" fill="#2563eb"></circle><circle class="dot" cx="405.63380281690144" cy="170" r="3" fill="#2563eb"></circle><circle class="dot" cx="407.0824949698189" cy="170" r="3" fill="#2563eb"></circle><circle class="dot" cx="408.53118712273647" cy="170" r="3" fill="#2563eb"></circle><circle class="dot" cx="409.9798792756539" cy="170" r="3" fill="#2563eb"></circle><circle class="dot" cx="411.4285714285714" cy="170" r="3" fill="#2563eb"></circle><circle class="dot" cx="412.87726358148893" cy="170" r="3" fill="#2563eb"></circle><circle class="dot" cx="414.3259557344064" cy="170" r="3" fill="#2563eb"></circle><circle class="dot" cx="415.77464788732397" cy="170" r="3" fill="#2563eb"></circle><circle class="dot" cx="417.22334004024145" cy="170" r="3" fill="#2563eb"></circle><circle class="dot" cx="418.672032193159" cy="170" r="3" fill="#2563eb"></circle><circle class="dot" cx="420.1207243460765" cy="170" r="3" fill="#2563eb"></circle><circle class="dot" cx="421.5694164989939" cy="170" r="3" fill="#2563eb"></circle><circle class="dot" cx="423.01810865191146" cy="170" r="3" fill="#2563eb"></circle><circle class="dot" cx="424.46680080482895" cy="170" r="3" fill="#2563eb"></circle><circle class="dot" cx="425.9154929577465" cy="170" r="3" fill="#2563eb"></circle><circle class="dot" cx="427.364185110664" cy="170" r="3" fill="#2563eb"></circle><circle class="dot" cx="428.8128772635815" cy="170" r="3" fill="#2563eb"></circle><circle class="dot" cx="430.261569416499" cy="170" r="3" fill="#2563eb"></circle><circle class="dot" cx="431.7102615694165" cy="170" r="3" fill="#2563eb"></circle><circle class="dot" cx="433.15895372233405" cy="170" r="3" fill="#2563eb"></circle><circle class="dot" cx="434.6076458752515" cy="170" r="3" fill="#2563eb"></circle><circle class="dot" cx="436.05633802816897" cy="170" r="3" fill="#2563eb"></circle><circle class="dot" cx="437.5050301810865" cy="170" r="3" fill="#2563eb"></circle><circle class="dot" cx="438.953722334004" cy="170" r="3" fill="#2563eb"></circle><circle class="dot" cx="440.40241448692154" cy="170" r="3" fill="#2563eb"></circle><circle class="dot" cx="441.85110663983903" cy="170" r="3" fill="#2563eb"></circle><circle class="dot" cx="443.2997987927566" cy="170" r="3" fill="#2563eb"></circle><circle class="dot" cx="444.74849094567406" cy="170" r="3" fill="#2563eb"></circle><circle class="dot" cx="446.1971830985915" cy="170" r="3" fill="#2563eb"></circle><circle class="dot" cx="447.64587525150904" cy="170" r="3" fill="#2563eb"></circle><circle class="dot" cx="449.0945674044265" cy="170" r="3" fill="#2563eb"></circle><circle class="dot" cx="450.5432595573441" cy="170" r="3" fill="#2563eb"></circle><circle class="dot" cx="451.99195171026156" cy="170" r="3" fill="#2563eb"></circle><circle class="dot" cx="453.4406438631791" cy="170" r="3" fill="#2563eb"></circle><circle class="dot" cx="454.8893360160966" cy="170" r="3" fill="#2563eb"></circle><circle class="dot" cx="456.33802816901414" cy="170" r="3" fill="#2563eb"></circle><circle class="dot" cx="457.78672032193157" cy="170" r="3" fill="#2563eb"></circle><circle class="dot" cx="459.23541247484906" cy="170" r="3" fill="#2563eb"></circle><circle class="dot" cx="460.6841046277666" cy="170" r="3" fill="#2563eb"></circle><circle class="dot" cx="462.1327967806841" cy="170" r="3" fill="#2563eb"></circle><circle class="dot" cx="463.58148893360163" cy="170" r="3" fill="#2563eb"></circle><circle class="dot" cx="465.0301810865191" cy="170" r="3" fill="#2563eb"></circle><circle class="dot" cx="466.47887323943667" cy="170" r="3" fill="#2563eb"></circle><circle class="dot" cx="467.92756539235415" cy="170" r="3" fill="#2563eb"></circle><circle class="dot" cx="469.37625754527164" cy="170" r="3" fill="#2563eb"></circle><circle class="dot" cx="470.82494969818913" cy="170" r="3" fill="#2563eb"></circle><circle class="dot" cx="472.2736418511066" cy="170" r="3" fill="#2563eb"></circle><circle class="dot" cx="473.7223340040241" cy="170" r="3" fill="#2563eb"></circle><circle class="dot" cx="475.17102615694165" cy="170" r="3" fill="#2563eb"></circle><circle class="dot" cx="476.61971830985914" cy="170" r="3" fill="#2563eb"></circle><circle class="dot" cx="478.0684104627767" cy="170" r="3" fill="#2563eb"></circle><circle class="dot" cx="479.51710261569417" cy="170" r="3" fill="#2563eb"></circle><circle class="dot" cx="480.9657947686117" cy="170" r="3" fill="#2563eb"></circle><circle class="dot" cx="482.41448692152915" cy="170" r="3" fill="#2563eb"></circle><circle class="dot" cx="483.86317907444663" cy="170" r="3" fill="#2563eb"></circle><circle class="dot" cx="485.3118712273642" cy="170" r="3" fill="#2563eb"></circle><circle class="dot" cx="486.76056338028167" cy="170" r="3" fill="#2563eb"></circle><circle class="dot" cx="488.2092555331992" cy="170" r="3" fill="#2563eb"></circle><circle class="dot" cx="489.6579476861167" cy="170" r="3" fill="#2563eb"></circle><circle class="dot" cx="491.10663983903424" cy="170" r="3" fill="#2563eb"></circle><circle class="dot" cx="492.55533199195173" cy="170" r="3" fill="#2563eb"></circle><circle class="dot" cx="494.0040241448693" cy="170" r="3" fill="#2563eb"></circle><circle class="dot" cx="495.4527162977867" cy="170" r="3" fill="#2563eb"></circle><circle class="dot" cx="496.9014084507042" cy="170" r="3" fill="#2563eb"></circle><circle class="dot" cx="498.35010060362174" cy="170" r="3" fill="#2563eb"></circle><circle class="dot" cx="499.7987927565392" cy="170" r="3" fill="#2563eb"></circle><circle class="dot" cx="501.2474849094568" cy="170" r="3" fill="#2563eb"></circle><circle class="dot" cx="502.69617706237426" cy="170" r="3" fill="#2563eb"></circle><circle class="dot" cx="504.14486921529175" cy="170" r="3" fill="#2563eb"></circle><circle class="dot" cx="505.5935613682093" cy="170" r="3" fill="#2563eb"></circle><circle class="dot" cx="507.0422535211267" cy="170" r="3" fill="#2563eb"></circle><circle class="dot" cx="508.4909456740442" cy="170" r="3" fill="#2563eb"></circle><circle class="dot" cx="509.93963782696176" cy="170" r="3" fill="#2563eb"></circle><circle class="dot" cx="511.38832997987925" cy="170" r="3" fill="#2563eb"></circle><circle class="dot" cx="512.8370221327967" cy="170" r="3" fill="#2563eb"></circle><circle class="dot" cx="514.2857142857143" cy="170" r="3" fill="#2563eb"></circle><circle class="dot" cx="515.7344064386318" cy="170" r="3" fill="#2563eb"></circle><circle class="dot" cx="517.1830985915493" cy="170" r="3" fill="#2563eb"></circle><circle class="dot" cx="518.6317907444668" cy="170" r="3" fill="#2563eb"></circle><circle class="dot" cx="520.0804828973843" cy="170" r="3" fill="#2563eb"></circle><circle class="dot" cx="521.5291750503018" cy="170" r="3" fill="#2563eb"></circle><circle class="dot" cx="522.9778672032193" cy="170" r="3" fill="#2563eb"></circle><circle class="dot" cx="524.4265593561369" cy="170" r="3" fill="#2563eb"></circle><circle class="dot" cx="525.8752515090544" cy="170" r="3" fill="#2563eb"></circle><circle class="dot" cx="527.3239436619718" cy="170" r="3" fill="#2563eb"></circle><circle class="dot" cx="528.7726358148893" cy="170" r="3" fill="#2563eb"></circle><circle class="dot" cx="530.2213279678069" cy="170" r="3" fill="#2563eb"></circle><circle class="dot" cx="531.6700201207243" cy="170" r="3" fill="#2563eb"></circle><circle class="dot" cx="533.1187122736418" cy="170" r="3" fill="#2563eb"></circle><circle class="dot" cx="534.5674044265594" cy="170" r="3" fill="#2563eb"></circle><circle class="dot" cx="536.0160965794769" cy="170" r="3" fill="#2563eb"></circle><circle class="dot" cx="537.4647887323944" cy="170" r="3" fill="#2563eb"></circle><circle class="dot" cx="538.9134808853119" cy="170" r="3" fill="#2563eb"></circle><circle class="dot" cx="540.3621730382293" cy="170" r="3" fill="#2563eb"></circle><circle class="dot" cx="541.810865191147" cy="170" r="3" fill="#2563eb"></circle><circle class="dot" cx="543.2595573440643" cy="170" r="3" fill="#2563eb"></circle><circle class="dot" cx="544.7082494969818" cy="170" r="3" fill="#2563eb"></circle><circle class="dot" cx="546.1569416498994" cy="170" r="3" fill="#2563eb"></circle><circle class="dot" cx="547.6056338028169" cy="170" r="3" fill="#2563eb"></circle><circle class="dot" cx="549.0543259557344" cy="170" r="3" fill="#2563eb"></circle><circle class="dot" cx="550.5030181086519" cy="170" r="3" fill="#2563eb"></circle><circle class="dot" cx="551.9517102615695" cy="170" r="3" fill="#2563eb"></circle><circle class="dot" cx="553.400402414487" cy="170" r="3" fill="#2563eb"></circle><circle class="dot" cx="554.8490945674044" cy="170" r="3" fill="#2563eb"></circle><circle class="dot" cx="556.2977867203219" cy="170" r="3" fill="#2563eb"></circle><circle class="dot" cx="557.7464788732394" cy="170" r="3" fill="#2563eb"></circle><circle class="dot" cx="559.1951710261569" cy="170" r="3" fill="#2563eb"></circle><circle class="dot" cx="560.6438631790744" cy="170" r="3" fill="#2563eb"></circle><circle class="dot" cx="562.092555331992" cy="170" r="3" fill="#2563eb"></circle><circle class="dot" cx="563.5412474849095" cy="170" r="3" fill="#2563eb"></circle><circle class="dot" cx="564.989939637827" cy="170" r="3" fill="#2563eb"></circle><circle class="dot" cx="566.4386317907445" cy="170" r="3" fill="#2563eb"></circle><circle class="dot" cx="567.887323943662" cy="170" r="3" fill="#2563eb"></circle><circle class="dot" cx="569.3360160965794" cy="170" r="3" fill="#2563eb"></circle><circle class="dot" cx="570.7847082494969" cy="170" r="3" fill="#2563eb"></circle><circle class="dot" cx="572.2334004024145" cy="170" r="3" fill="#2563eb"></circle><circle class="dot" cx="573.682092555332" cy="170" r="3" fill="#2563eb"></circle><circle class="dot" cx="575.1307847082495" cy="170" r="3" fill="#2563eb"></circle><circle class="dot" cx="576.579476861167" cy="170" r="3" fill="#2563eb"></circle><circle class="dot" cx="578.0281690140845" cy="170" r="3" fill="#2563eb"></circle><circle class="dot" cx="579.4768611670021" cy="170" r="3" fill="#2563eb"></circle><circle class="dot" cx="580.9255533199195" cy="170" r="3" fill="#2563eb"></circle><circle class="dot" cx="582.374245472837" cy="170" r="3" fill="#2563eb"></circle><circle class="dot" cx="583.8229376257545" cy="170" r="3" fill="#2563eb"></circle><circle class="dot" cx="585.271629778672" cy="170" r="3" fill="#2563eb"></circle><circle class="dot" cx="586.7203219315895" cy="170" r="3" fill="#2563eb"></circle><circle class="dot" cx="588.169014084507" cy="170" r="3" fill="#2563eb"></circle><circle class="dot" cx="589.6177062374246" cy="170" r="3" fill="#2563eb"></circle><circle class="dot" cx="591.0663983903421" cy="170" r="3" fill="#2563eb"></circle><circle class="dot" cx="592.5150905432595" cy="170" r="3" fill="#2563eb"></circle><circle class="dot" cx="593.9637826961771" cy="170" r="3" fill="#2563eb"></circle><circle class="dot" cx="595.4124748490946" cy="170" r="3" fill="#2563eb"></circle><circle class="dot" cx="596.861167002012" cy="170" r="3" fill="#2563eb"></circle><circle class="dot" cx="598.3098591549295" cy="170" r="3" fill="#2563eb"></circle><circle class="dot" cx="599.7585513078471" cy="170" r="3" fill="#2563eb"></circle><circle class="dot" cx="601.2072434607646" cy="170" r="3" fill="#2563eb"></circle><circle class="dot" cx="602.6559356136821" cy="170" r="3" fill="#2563eb"></circle><circle class="dot" cx="604.1046277665996" cy="170" r="3" fill="#2563eb"></circle><circle class="dot" cx="605.5533199195171" cy="170" r="3" fill="#2563eb"></circle><circle class="dot" cx="607.0020120724346" cy="170" r="3" fill="#2563eb"></circle><circle class="dot" cx="608.4507042253521" cy="170" r="3" fill="#2563eb"></circle><circle class="dot" cx="609.8993963782697" cy="170" r="3" fill="#2563eb"></circle><circle class="dot" cx="611.3480885311872" cy="170" r="3" fill="#2563eb"></circle><circle class="dot" cx="612.7967806841046" cy="170" r="3" fill="#2563eb"></circle><circle class="dot" cx="614.2454728370221" cy="170" r="3" fill="#2563eb"></circle><circle class="dot" cx="615.6941649899396" cy="170" r="3" fill="#2563eb"></circle><circle class="dot" cx="617.1428571428571" cy="170" r="3" fill="#2563eb"></circle><circle class="dot" cx="618.5915492957746" cy="170" r="3" fill="#2563eb"></circle><circle class="dot" cx="620.0402414486921" cy="170" r="3" fill="#2563eb"></circle><circle class="dot" cx="621.4889336016097" cy="170" r="3" fill="#2563eb"></circle><circle class="dot" cx="622.9376257545272" cy="170" r="3" fill="#2563eb"></circle><circle class="dot" cx="624.3863179074447" cy="170" r="3" fill="#2563eb"></circle><circle class="dot" cx="625.8350100603622" cy="170" r="3" fill="#2563eb"></circle><circle class="dot" cx="627.2837022132798" cy="170" r="3" fill="#2563eb"></circle><circle class="dot" cx="628.7323943661971" cy="170" r="3" fill="#2563eb"></circle><circle class="dot" cx="630.1810865191146" cy="170" r="3" fill="#2563eb"></circle><circle class="dot" cx="631.6297786720322" cy="170" r="3" fill="#2563eb"></circle><circle class="dot" cx="633.0784708249497" cy="170" r="3" fill="#2563eb"></circle><circle class="dot" cx="634.5271629778672" cy="170" r="3" fill="#2563eb"></circle><circle class="dot" cx="635.9758551307847" cy="170" r="3" fill="#2563eb"></circle><circle class="dot" cx="637.4245472837023" cy="170" r="3" fill="#2563eb"></circle><circle class="dot" cx="638.8732394366198" cy="170" r="3" fill="#2563eb"></circle><circle class="dot" cx="640.3219315895373" cy="170" r="3" fill="#2563eb"></circle><circle class="dot" cx="641.7706237424547" cy="170" r="3" fill="#2563eb"></circle><circle class="dot" cx="643.2193158953722" cy="170" r="3" fill="#2563eb"></circle><circle class="dot" cx="644.6680080482897" cy="170" r="3" fill="#2563eb"></circle><circle class="dot" cx="646.1167002012072" cy="170" r="3" fill="#2563eb"></circle><circle class="dot" cx="647.5653923541247" cy="170" r="3" fill="#2563eb"></circle><circle class="dot" cx="649.0140845070423" cy="170" r="3" fill="#2563eb"></circle><circle class="dot" cx="650.4627766599598" cy="170" r="3" fill="#2563eb"></circle><circle class="dot" cx="651.9114688128773" cy="170" r="3" fill="#2563eb"></circle><circle class="dot" cx="653.3601609657948" cy="170" r="3" fill="#2563eb"></circle><circle class="dot" cx="654.8088531187122" cy="170" r="3" fill="#2563eb"></circle><circle class="dot" cx="656.2575452716297" cy="170" r="3" fill="#2563eb"></circle><circle class="dot" cx="657.7062374245472" cy="170" r="3" fill="#2563eb"></circle><circle class="dot" cx="659.1549295774648" cy="170" r="3" fill="#2563eb"></circle><circle class="dot" cx="660.6036217303823" cy="170" r="3" fill="#2563eb"></circle><circle class="dot" cx="662.0523138832998" cy="170" r="3" fill="#2563eb"></circle><circle class="dot" cx="663.5010060362173" cy="170" r="3" fill="#2563eb"></circle><circle class="dot" cx="664.9496981891349" cy="170" r="3" fill="#2563eb"></circle><circle class="dot" cx="666.3983903420523" cy="170" r="3" fill="#2563eb"></circle><circle class="dot" cx="667.8470824949698" cy="170" r="3" fill="#2563eb"></circle><circle class="dot" cx="669.2957746478874" cy="170" r="3" fill="#2563eb"></circle><circle class="dot" cx="670.7444668008048" cy="170" r="3" fill="#2563eb"></circle><circle class="dot" cx="672.1931589537223" cy="170" r="3" fill="#2563eb"></circle><circle class="dot" cx="673.6418511066398" cy="170" r="3" fill="#2563eb"></circle><circle class="dot" cx="675.0905432595574" cy="170" r="3" fill="#2563eb"></circle><circle class="dot" cx="676.5392354124749" cy="170" r="3" fill="#2563eb"></circle><circle class="dot" cx="677.9879275653923" cy="170" r="3" fill="#2563eb"></circle><circle class="dot" cx="679.4366197183099" cy="170" r="3" fill="#2563eb"></circle><circle class="dot" cx="680.8853118712274" cy="170" r="3" fill="#2563eb"></circle><circle class="dot" cx="682.3340040241449" cy="170" r="3" fill="#2563eb"></circle><circle class="dot" cx="683.7826961770623" cy="170" r="3" fill="#2563eb"></circle><circle class="dot" cx="685.2313883299798" cy="170" r="3" fill="#2563eb"></circle><circle class="dot" cx="686.6800804828974" cy="170" r="3" fill="#2563eb"></circle><circle class="dot" cx="688.1287726358149" cy="170" r="3" fill="#2563eb"></circle><circle class="dot" cx="689.5774647887323" cy="170" r="3" fill="#2563eb"></circle><circle class="dot" cx="691.0261569416499" cy="170" r="3" fill="#2563eb"></circle><circle class="dot" cx="692.4748490945674" cy="170" r="3" fill="#2563eb"></circle><circle class="dot" cx="693.9235412474849" cy="170" r="3" fill="#2563eb"></circle><circle class="dot" cx="695.3722334004024" cy="170" r="3" fill="#2563eb"></circle><circle class="dot" cx="696.82092555332" cy="170" r="3" fill="#2563eb"></circle><circle class="dot" cx="698.2696177062375" cy="170" r="3" fill="#2563eb"></circle><circle class="dot" cx="699.7183098591549" cy="170" r="3" fill="#2563eb"></circle><circle class="dot" cx="701.1670020120724" cy="170" r="3" fill="#2563eb"></circle><circle class="dot" cx="702.6156941649899" cy="170" r="3" fill="#2563eb"></circle><circle class="dot" cx="704.0643863179074" cy="170" r="3" fill="#2563eb"></circle><circle class="dot" cx="705.5130784708249" cy="170" r="3" fill="#2563eb"></circle><circle class="dot" cx="706.9617706237425" cy="170" r="3" fill="#2563eb"></circle><circle class="dot" cx="708.41046277666" cy="170" r="3" fill="#2563eb"></circle><circle class="dot" cx="709.8591549295775" cy="170" r="3" fill="#2563eb"></circle><circle class="dot" cx="711.307847082495" cy="170" r="3" fill="#2563eb"></circle><circle class="dot" cx="712.7565392354126" cy="170" r="3" fill="#2563eb"></circle><circle class="dot" cx="714.2052313883299" cy="170" r="3" fill="#2563eb"></circle><circle class="dot" cx="715.6539235412474" cy="170" r="3" fill="#2563eb"></circle><circle class="dot" cx="717.102615694165" cy="170" r="3" fill="#2563eb"></circle><circle class="dot" cx="718.5513078470825" cy="170" r="3" fill="#2563eb"></circle><circle class="dot" cx="720" cy="170" r="3" fill="#2563eb"></circle><g class="grid" transform="translate(0,340)" fill="none" font-size="10" font-family="sans-serif" text-anchor="middle" style="stroke-dasharray: 3,3; opacity: 0.3;"><path class="domain" stroke="currentColor" d="M0.5,-340V0.5H720.5V-340"></path><g class="tick" opacity="1" transform="translate(0.5,0)"><line stroke="currentColor" y2="-340"></line><text fill="currentColor" y="3" dy="0.71em"></text></g><g class="tick" opacity="1" transform="translate(35.26861167002012,0)"><line stroke="currentColor" y2="-340"></line><text fill="currentColor" y="3" dy="0.71em"></text></g><g class="tick" opacity="1" transform="translate(70.03722334004024,0)"><line stroke="currentColor" y2="-340"></line><text fill="currentColor" y="3" dy="0.71em"></text></g><g class="tick" opacity="1" transform="translate(104.80583501006036,0)"><line stroke="currentColor" y2="-340"></line><text fill="currentColor" y="3" dy="0.71em"></text></g><g class="tick" opacity="1" transform="translate(139.57444668008048,0)"><line stroke="currentColor" y2="-340"></line><text fill="currentColor" y="3" dy="0.71em"></text></g><g class="tick" opacity="1" transform="translate(174.3430583501006,0)"><line stroke="currentColor" y2="-340"></line><text fill="currentColor" y="3" dy="0.71em"></text></g><g class="tick" opacity="1" transform="translate(209.11167002012073,0)"><line stroke="currentColor" y2="-340"></line><text fill="currentColor" y="3" dy="0.71em"></text></g><g class="tick" opacity="1" transform="translate(243.88028169014083,0)"><line stroke="currentColor" y2="-340"></line><text fill="currentColor" y="3" dy="0.71em"></text></g><g class="tick" opacity="1" transform="translate(278.64889336016097,0)"><line stroke="currentColor" y2="-340"></line><text fill="currentColor" y="3" dy="0.71em"></text></g><g class="tick" opacity="1" transform="translate(313.4175050301811,0)"><line stroke="currentColor" y2="-340"></line><text fill="currentColor" y="3" dy="0.71em"></text></g><g class="tick" opacity="1" transform="translate(348.1861167002012,0)"><line stroke="currentColor" y2="-340"></line><text fill="currentColor" y="3" dy="0.71em"></text></g><g class="tick" opacity="1" transform="translate(382.95472837022135,0)"><line stroke="currentColor" y2="-340"></line><text fill="currentColor" y="3" dy="0.71em"></text></g><g class="tick" opacity="1" transform="translate(417.72334004024145,0)"><line stroke="currentColor" y2="-340"></line><text fill="currentColor" y="3" dy="0.71em"></text></g><g class="tick" opacity="1" transform="translate(452.49195171026156,0)"><line stroke="currentColor" y2="-340"></line><text fill="currentColor" y="3" dy="0.71em"></text></g><g class="tick" opacity="1" transform="translate(487.26056338028167,0)"><line stroke="currentColor" y2="-340"></line><text fill="currentColor" y="3" dy="0.71em"></text></g><g class="tick" opacity="1" transform="translate(522.0291750503018,0)"><line stroke="currentColor" y2="-340"></line><text fill="currentColor" y="3" dy="0.71em"></text></g><g class="tick" opacity="1" transform="translate(556.7977867203219,0)"><line stroke="currentColor" y2="-340"></line><text fill="currentColor" y="3" dy="0.71em"></text></g><g class="tick" opacity="1" transform="translate(591.5663983903421,0)"><line stroke="currentColor" y2="-340"></line><text fill="currentColor" y="3" dy="0.71em"></text></g><g class="tick" opacity="1" transform="translate(626.3350100603622,0)"><line stroke="currentColor" y2="-340"></line><text fill="currentColor" y="3" dy="0.71em"></text></g><g class="tick" opacity="1" transform="translate(661.1036217303823,0)"><line stroke="currentColor" y2="-340"></line><text fill="currentColor" y="3" dy="0.71em"></text></g><g class="tick" opacity="1" transform="translate(695.8722334004024,0)"><line stroke="currentColor" y2="-340"></line><text fill="currentColor" y="3" dy="0.71em"></text></g></g><g class="grid" fill="none" font-size="10" font-family="sans-serif" text-anchor="end" style="stroke-dasharray: 3,3; opacity: 0.3;"><path class="domain" stroke="currentColor" d="M720,340.5H0.5V0.5H720"></path><g class="tick" opacity="1" transform="translate(0,170.5)"><line stroke="currentColor" x2="720"></line><text fill="currentColor" x="-3" dy="0.32em"></text></g></g></g><text x="400" y="10" text-anchor="middle" style="font-size: 16px; font-weight: bold; fill: #333;">OKX USDT Lending Rate - Current Month</text></svg>