<svg width="800" height="400" xmlns="http://www.w3.org/2000/svg"><g transform="translate(50,20)"><g transform="translate(0,340)" fill="none" font-size="10" font-family="sans-serif" text-anchor="middle"><path class="domain" stroke="currentColor" d="M0.5,6V0.5H720.5V6"></path><g class="tick" opacity="1" transform="translate(87.53296703296704,0)"><line stroke="currentColor" y2="6"></line><text fill="currentColor" y="9" dy="0.71em">08/10 12:00</text></g><g class="tick" opacity="1" transform="translate(182.47802197802196,0)"><line stroke="currentColor" y2="6"></line><text fill="currentColor" y="9" dy="0.71em">08/11 00:00</text></g><g class="tick" opacity="1" transform="translate(277.42307692307696,0)"><line stroke="currentColor" y2="6"></line><text fill="currentColor" y="9" dy="0.71em">08/11 12:00</text></g><g class="tick" opacity="1" transform="translate(372.3681318681319,0)"><line stroke="currentColor" y2="6"></line><text fill="currentColor" y="9" dy="0.71em">08/12 00:00</text></g><g class="tick" opacity="1" transform="translate(467.31318681318686,0)"><line stroke="currentColor" y2="6"></line><text fill="currentColor" y="9" dy="0.71em">08/12 12:00</text></g><g class="tick" opacity="1" transform="translate(562.2582417582418,0)"><line stroke="currentColor" y2="6"></line><text fill="currentColor" y="9" dy="0.71em">08/13 00:00</text></g><g class="tick" opacity="1" transform="translate(657.2032967032967,0)"><line stroke="currentColor" y2="6"></line><text fill="currentColor" y="9" dy="0.71em">08/13 12:00</text></g></g><g fill="none" font-size="10" font-family="sans-serif" text-anchor="end"><path class="domain" stroke="currentColor" d="M-6,340.5H0.5V0.5H-6"></path><g class="tick" opacity="1" transform="translate(0,340.5)"><line stroke="currentColor" x2="-6"></line><text fill="currentColor" x="-9" dy="0.32em">5.00%</text></g><g class="tick" opacity="1" transform="translate(0,302.72222222222223)"><line stroke="currentColor" x2="-6"></line><text fill="currentColor" x="-9" dy="0.32em">10.00%</text></g><g class="tick" opacity="1" transform="translate(0,264.94444444444446)"><line stroke="currentColor" x2="-6"></line><text fill="currentColor" x="-9" dy="0.32em">15.00%</text></g><g class="tick" opacity="1" transform="translate(0,227.16666666666666)"><line stroke="currentColor" x2="-6"></line><text fill="currentColor" x="-9" dy="0.32em">20.00%</text></g><g class="tick" opacity="1" transform="translate(0,189.38888888888889)"><line stroke="currentColor" x2="-6"></line><text fill="currentColor" x="-9" dy="0.32em">25.00%</text></g><g class="tick" opacity="1" transform="translate(0,151.61111111111111)"><line stroke="currentColor" x2="-6"></line><text fill="currentColor" x="-9" dy="0.32em">30.00%</text></g><g class="tick" opacity="1" transform="translate(0,113.83333333333334)"><line stroke="currentColor" x2="-6"></line><text fill="currentColor" x="-9" dy="0.32em">35.00%</text></g><g class="tick" opacity="1" transform="translate(0,76.05555555555556)"><line stroke="currentColor" x2="-6"></line><text fill="currentColor" x="-9" dy="0.32em">40.00%</text></g><g class="tick" opacity="1" transform="translate(0,38.27777777777776)"><line stroke="currentColor" x2="-6"></line><text fill="currentColor" x="-9" dy="0.32em">45.00%</text></g><g class="tick" opacity="1" transform="translate(0,0.5)"><line stroke="currentColor" x2="-6"></line><text fill="currentColor" x="-9" dy="0.32em">50.00%</text></g></g><text transform="rotate(-90)" y="-50" x="-170" dy="1em" style="text-anchor: middle; font-size: 12px; fill: #666;">Pre Rate (%)</text><text transform="translate(360, 380)" style="text-anchor: middle; font-size: 12px; fill: #666;">Time (UTC)</text><path fill="none" stroke="#2563eb" stroke-width="2" d="M0,75.556C2.637,207.778,5.275,340,7.912,340C10.549,340,13.187,340,15.824,340C18.462,340,21.099,75.556,23.736,75.556C26.374,75.556,29.011,78.074,31.648,83.111C34.286,88.148,36.923,340,39.56,340C42.198,340,44.835,340,47.473,340C50.11,340,52.747,340,55.385,340C58.022,340,60.659,340,63.297,340C65.934,340,68.571,340,71.209,340C73.846,340,76.484,340,79.121,340C81.758,340,84.396,340,87.033,340C89.67,340,92.308,340,94.945,340C97.582,340,100.22,340,102.857,340C105.495,340,108.132,340,110.769,340C113.407,340,116.044,340,118.681,340C121.319,340,123.956,340,126.593,340C129.231,340,131.868,340,134.505,340C137.143,340,139.78,340,142.418,340C145.055,340,147.692,340,150.33,340C152.967,340,155.604,340,158.242,340C160.879,340,163.516,340,166.154,340C168.791,340,171.429,340,174.066,340C181.978,340,189.89,340,197.802,340C203.077,340,208.352,90.667,213.626,90.667C216.264,90.667,218.901,340,221.538,340C224.176,340,226.813,340,229.451,340C232.088,340,234.725,340,237.363,340C240,340,242.637,340,245.275,340C247.912,340,250.549,340,253.187,340C255.824,340,258.462,340,261.099,340C263.736,340,266.374,340,269.011,340C274.286,340,279.56,340,284.835,340C287.473,340,290.11,340,292.747,340C295.385,340,298.022,340,300.659,340C303.297,340,305.934,340,308.571,340C311.209,340,313.846,340,316.484,340C319.121,340,321.758,340,324.396,340C327.033,340,329.67,340,332.308,340C334.945,340,337.582,340,340.22,340C342.857,340,345.495,340,348.132,340C350.769,340,353.407,340,356.044,340C358.681,340,361.319,340,363.956,340C371.868,340,379.78,340,387.692,340C390.33,340,392.967,340,395.604,340C398.242,340,400.879,340,403.516,340C406.154,340,408.791,340,411.429,340C414.066,340,416.703,340,419.341,340C421.978,340,424.615,340,427.253,340C429.89,340,432.527,340,435.165,340C437.802,340,440.44,340,443.077,340C445.714,340,448.352,340,450.989,340C453.626,340,456.264,340,458.901,340C461.538,340,464.176,340,466.813,340C469.451,340,472.088,90.667,474.725,90.667C477.363,90.667,480,340,482.637,340C485.275,340,487.912,340,490.549,340C493.187,340,495.824,68,498.462,68C501.099,68,503.736,78.074,506.374,98.222C509.011,118.37,511.648,340,514.286,340C516.923,340,519.56,340,522.198,340C524.835,340,527.473,118.37,530.11,83.111C532.747,47.852,535.385,30.222,538.022,30.222C540.659,30.222,543.297,55.407,545.934,60.444C548.571,65.481,551.209,62.963,553.846,68C561.758,83.111,569.67,340,577.582,340C580.22,340,582.857,83.111,585.495,83.111C588.132,83.111,590.769,98.222,593.407,98.222C596.044,98.222,598.681,98.222,601.319,98.222C603.956,98.222,606.593,332.444,609.231,332.444C611.868,332.444,614.505,332.444,617.143,332.444C619.78,332.444,622.418,52.889,625.055,52.889C627.692,52.889,630.33,75.556,632.967,75.556C635.604,75.556,638.242,68,640.879,68C643.516,68,646.154,332.444,648.791,332.444C651.429,332.444,654.066,332.444,656.703,332.444C659.341,332.444,661.978,332.444,664.615,332.444C667.253,332.444,669.89,332.444,672.527,332.444C675.165,332.444,677.802,332.444,680.44,332.444C683.077,332.444,685.714,332.444,688.352,332.444C690.989,332.444,693.626,332.444,696.264,332.444C698.901,332.444,701.538,332.444,704.176,332.444C706.813,332.444,709.451,332.444,712.088,332.444C714.725,332.444,717.363,332.444,720,332.444"></path><circle class="dot" cx="0" cy="75.55555555555556" r="3" fill="#2563eb"></circle><circle class="dot" cx="7.912087912087912" cy="340" r="3" fill="#2563eb"></circle><circle class="dot" cx="15.824175824175825" cy="340" r="3" fill="#2563eb"></circle><circle class="dot" cx="23.736263736263737" cy="75.55555555555556" r="3" fill="#2563eb"></circle><circle class="dot" cx="31.64835164835165" cy="83.11111111111111" r="3" fill="#2563eb"></circle><circle class="dot" cx="39.56043956043956" cy="340" r="3" fill="#2563eb"></circle><circle class="dot" cx="47.472527472527474" cy="340" r="3" fill="#2563eb"></circle><circle class="dot" cx="55.38461538461539" cy="340" r="3" fill="#2563eb"></circle><circle class="dot" cx="63.2967032967033" cy="340" r="3" fill="#2563eb"></circle><circle class="dot" cx="71.20879120879121" cy="340" r="3" fill="#2563eb"></circle><circle class="dot" cx="79.12087912087912" cy="340" r="3" fill="#2563eb"></circle><circle class="dot" cx="87.03296703296704" cy="340" r="3" fill="#2563eb"></circle><circle class="dot" cx="94.94505494505495" cy="340" r="3" fill="#2563eb"></circle><circle class="dot" cx="102.85714285714285" cy="340" r="3" fill="#2563eb"></circle><circle class="dot" cx="110.76923076923077" cy="340" r="3" fill="#2563eb"></circle><circle class="dot" cx="118.68131868131869" cy="340" r="3" fill="#2563eb"></circle><circle class="dot" cx="126.5934065934066" cy="340" r="3" fill="#2563eb"></circle><circle class="dot" cx="134.5054945054945" cy="340" r="3" fill="#2563eb"></circle><circle class="dot" cx="142.41758241758242" cy="340" r="3" fill="#2563eb"></circle><circle class="dot" cx="150.32967032967034" cy="340" r="3" fill="#2563eb"></circle><circle class="dot" cx="158.24175824175825" cy="340" r="3" fill="#2563eb"></circle><circle class="dot" cx="166.15384615384616" cy="340" r="3" fill="#2563eb"></circle><circle class="dot" cx="174.06593406593407" cy="340" r="3" fill="#2563eb"></circle><circle class="dot" cx="197.8021978021978" cy="340" r="3" fill="#2563eb"></circle><circle class="dot" cx="213.62637362637363" cy="90.66666666666664" r="3" fill="#2563eb"></circle><circle class="dot" cx="221.53846153846155" cy="340" r="3" fill="#2563eb"></circle><circle class="dot" cx="229.45054945054943" cy="340" r="3" fill="#2563eb"></circle><circle class="dot" cx="237.36263736263737" cy="340" r="3" fill="#2563eb"></circle><circle class="dot" cx="245.27472527472528" cy="340" r="3" fill="#2563eb"></circle><circle class="dot" cx="253.1868131868132" cy="340" r="3" fill="#2563eb"></circle><circle class="dot" cx="261.0989010989011" cy="340" r="3" fill="#2563eb"></circle><circle class="dot" cx="269.010989010989" cy="340" r="3" fill="#2563eb"></circle><circle class="dot" cx="284.83516483516485" cy="340" r="3" fill="#2563eb"></circle><circle class="dot" cx="292.74725274725273" cy="340" r="3" fill="#2563eb"></circle><circle class="dot" cx="300.65934065934067" cy="340" r="3" fill="#2563eb"></circle><circle class="dot" cx="308.57142857142856" cy="340" r="3" fill="#2563eb"></circle><circle class="dot" cx="316.4835164835165" cy="340" r="3" fill="#2563eb"></circle><circle class="dot" cx="324.3956043956044" cy="340" r="3" fill="#2563eb"></circle><circle class="dot" cx="332.3076923076923" cy="340" r="3" fill="#2563eb"></circle><circle class="dot" cx="340.2197802197802" cy="340" r="3" fill="#2563eb"></circle><circle class="dot" cx="348.13186813186815" cy="340" r="3" fill="#2563eb"></circle><circle class="dot" cx="356.0439560439561" cy="340" r="3" fill="#2563eb"></circle><circle class="dot" cx="363.9560439560439" cy="340" r="3" fill="#2563eb"></circle><circle class="dot" cx="387.6923076923077" cy="340" r="3" fill="#2563eb"></circle><circle class="dot" cx="395.6043956043956" cy="340" r="3" fill="#2563eb"></circle><circle class="dot" cx="403.5164835164835" cy="340" r="3" fill="#2563eb"></circle><circle class="dot" cx="411.4285714285714" cy="340" r="3" fill="#2563eb"></circle><circle class="dot" cx="419.3406593406594" cy="340" r="3" fill="#2563eb"></circle><circle class="dot" cx="427.25274725274727" cy="340" r="3" fill="#2563eb"></circle><circle class="dot" cx="435.16483516483515" cy="340" r="3" fill="#2563eb"></circle><circle class="dot" cx="443.0769230769231" cy="340" r="3" fill="#2563eb"></circle><circle class="dot" cx="450.989010989011" cy="340" r="3" fill="#2563eb"></circle><circle class="dot" cx="458.90109890109886" cy="340" r="3" fill="#2563eb"></circle><circle class="dot" cx="466.81318681318686" cy="340" r="3" fill="#2563eb"></circle><circle class="dot" cx="474.72527472527474" cy="90.66666666666664" r="3" fill="#2563eb"></circle><circle class="dot" cx="482.6373626373626" cy="340" r="3" fill="#2563eb"></circle><circle class="dot" cx="490.54945054945057" cy="340" r="3" fill="#2563eb"></circle><circle class="dot" cx="498.46153846153845" cy="68.00000000000003" r="3" fill="#2563eb"></circle><circle class="dot" cx="506.3736263736264" cy="98.22222222222221" r="3" fill="#2563eb"></circle><circle class="dot" cx="514.2857142857143" cy="340" r="3" fill="#2563eb"></circle><circle class="dot" cx="522.1978021978022" cy="340" r="3" fill="#2563eb"></circle><circle class="dot" cx="530.1098901098901" cy="83.11111111111111" r="3" fill="#2563eb"></circle><circle class="dot" cx="538.021978021978" cy="30.22222222222219" r="3" fill="#2563eb"></circle><circle class="dot" cx="545.9340659340659" cy="60.44444444444446" r="3" fill="#2563eb"></circle><circle class="dot" cx="553.8461538461539" cy="68.00000000000003" r="3" fill="#2563eb"></circle><circle class="dot" cx="577.5824175824176" cy="340" r="3" fill="#2563eb"></circle><circle class="dot" cx="585.4945054945055" cy="83.11111111111111" r="3" fill="#2563eb"></circle><circle class="dot" cx="593.4065934065934" cy="98.22222222222221" r="3" fill="#2563eb"></circle><circle class="dot" cx="601.3186813186813" cy="98.22222222222221" r="3" fill="#2563eb"></circle><circle class="dot" cx="609.2307692307692" cy="332.44444444444446" r="3" fill="#2563eb"></circle><circle class="dot" cx="617.1428571428571" cy="332.44444444444446" r="3" fill="#2563eb"></circle><circle class="dot" cx="625.054945054945" cy="52.88888888888889" r="3" fill="#2563eb"></circle><circle class="dot" cx="632.967032967033" cy="75.55555555555556" r="3" fill="#2563eb"></circle><circle class="dot" cx="640.8791208791208" cy="68.00000000000003" r="3" fill="#2563eb"></circle><circle class="dot" cx="648.7912087912088" cy="332.44444444444446" r="3" fill="#2563eb"></circle><circle class="dot" cx="656.7032967032967" cy="332.44444444444446" r="3" fill="#2563eb"></circle><circle class="dot" cx="664.6153846153846" cy="332.44444444444446" r="3" fill="#2563eb"></circle><circle class="dot" cx="672.5274725274726" cy="332.44444444444446" r="3" fill="#2563eb"></circle><circle class="dot" cx="680.4395604395604" cy="332.44444444444446" r="3" fill="#2563eb"></circle><circle class="dot" cx="688.3516483516484" cy="332.44444444444446" r="3" fill="#2563eb"></circle><circle class="dot" cx="696.2637362637363" cy="332.44444444444446" r="3" fill="#2563eb"></circle><circle class="dot" cx="704.1758241758241" cy="332.44444444444446" r="3" fill="#2563eb"></circle><circle class="dot" cx="712.0879120879122" cy="332.44444444444446" r="3" fill="#2563eb"></circle><circle class="dot" cx="720" cy="332.44444444444446" r="3" fill="#2563eb"></circle><g class="grid" transform="translate(0,340)" fill="none" font-size="10" font-family="sans-serif" text-anchor="middle" style="stroke-dasharray: 3,3; opacity: 0.3;"><path class="domain" stroke="currentColor" d="M0.5,-340V0.5H720.5V-340"></path><g class="tick" opacity="1" transform="translate(87.53296703296704,0)"><line stroke="currentColor" y2="-340"></line><text fill="currentColor" y="3" dy="0.71em"></text></g><g class="tick" opacity="1" transform="translate(182.47802197802196,0)"><line stroke="currentColor" y2="-340"></line><text fill="currentColor" y="3" dy="0.71em"></text></g><g class="tick" opacity="1" transform="translate(277.42307692307696,0)"><line stroke="currentColor" y2="-340"></line><text fill="currentColor" y="3" dy="0.71em"></text></g><g class="tick" opacity="1" transform="translate(372.3681318681319,0)"><line stroke="currentColor" y2="-340"></line><text fill="currentColor" y="3" dy="0.71em"></text></g><g class="tick" opacity="1" transform="translate(467.31318681318686,0)"><line stroke="currentColor" y2="-340"></line><text fill="currentColor" y="3" dy="0.71em"></text></g><g class="tick" opacity="1" transform="translate(562.2582417582418,0)"><line stroke="currentColor" y2="-340"></line><text fill="currentColor" y="3" dy="0.71em"></text></g><g class="tick" opacity="1" transform="translate(657.2032967032967,0)"><line stroke="currentColor" y2="-340"></line><text fill="currentColor" y="3" dy="0.71em"></text></g></g><g class="grid" fill="none" font-size="10" font-family="sans-serif" text-anchor="end" style="stroke-dasharray: 3,3; opacity: 0.3;"><path class="domain" stroke="currentColor" d="M720,340.5H0.5V0.5H720"></path><g class="tick" opacity="1" transform="translate(0,340.5)"><line stroke="currentColor" x2="720"></line><text fill="currentColor" x="-3" dy="0.32em"></text></g><g class="tick" opacity="1" transform="translate(0,302.72222222222223)"><line stroke="currentColor" x2="720"></line><text fill="currentColor" x="-3" dy="0.32em"></text></g><g class="tick" opacity="1" transform="translate(0,264.94444444444446)"><line stroke="currentColor" x2="720"></line><text fill="currentColor" x="-3" dy="0.32em"></text></g><g class="tick" opacity="1" transform="translate(0,227.16666666666666)"><line stroke="currentColor" x2="720"></line><text fill="currentColor" x="-3" dy="0.32em"></text></g><g class="tick" opacity="1" transform="translate(0,189.38888888888889)"><line stroke="currentColor" x2="720"></line><text fill="currentColor" x="-3" dy="0.32em"></text></g><g class="tick" opacity="1" transform="translate(0,151.61111111111111)"><line stroke="currentColor" x2="720"></line><text fill="currentColor" x="-3" dy="0.32em"></text></g><g class="tick" opacity="1" transform="translate(0,113.83333333333334)"><line stroke="currentColor" x2="720"></line><text fill="currentColor" x="-3" dy="0.32em"></text></g><g class="tick" opacity="1" transform="translate(0,76.05555555555556)"><line stroke="currentColor" x2="720"></line><text fill="currentColor" x="-3" dy="0.32em"></text></g><g class="tick" opacity="1" transform="translate(0,38.27777777777776)"><line stroke="currentColor" x2="720"></line><text fill="currentColor" x="-3" dy="0.32em"></text></g><g class="tick" opacity="1" transform="translate(0,0.5)"><line stroke="currentColor" x2="720"></line><text fill="currentColor" x="-3" dy="0.32em"></text></g></g></g><text x="400" y="10" text-anchor="middle" style="font-size: 16px; font-weight: bold; fill: #333;">OKX USDT Lending Rate (preRate)</text></svg>