<svg width="800" height="400" xmlns="http://www.w3.org/2000/svg"><g transform="translate(50,20)"><g transform="translate(0,340)" fill="none" font-size="10" font-family="sans-serif" text-anchor="middle"><path class="domain" stroke="currentColor" d="M0.5,6V0.5H720.5V6"></path><g class="tick" opacity="1" transform="translate(0.5,0)"><line stroke="currentColor" y2="6"></line><text fill="currentColor" y="9" dy=".15em" style="text-anchor: end;" dx="-.8em" transform="rotate(-45)">10/01</text></g><g class="tick" opacity="1" transform="translate(94.41304347826086,0)"><line stroke="currentColor" y2="6"></line><text fill="currentColor" y="9" dy=".15em" style="text-anchor: end;" dx="-.8em" transform="rotate(-45)">10/02</text></g><g class="tick" opacity="1" transform="translate(188.32608695652172,0)"><line stroke="currentColor" y2="6"></line><text fill="currentColor" y="9" dy=".15em" style="text-anchor: end;" dx="-.8em" transform="rotate(-45)">10/03</text></g><g class="tick" opacity="1" transform="translate(282.2391304347826,0)"><line stroke="currentColor" y2="6"></line><text fill="currentColor" y="9" dy=".15em" style="text-anchor: end;" dx="-.8em" transform="rotate(-45)">10/04</text></g><g class="tick" opacity="1" transform="translate(376.15217391304344,0)"><line stroke="currentColor" y2="6"></line><text fill="currentColor" y="9" dy=".15em" style="text-anchor: end;" dx="-.8em" transform="rotate(-45)">10/05</text></g><g class="tick" opacity="1" transform="translate(470.0652173913044,0)"><line stroke="currentColor" y2="6"></line><text fill="currentColor" y="9" dy=".15em" style="text-anchor: end;" dx="-.8em" transform="rotate(-45)">10/06</text></g><g class="tick" opacity="1" transform="translate(563.9782608695652,0)"><line stroke="currentColor" y2="6"></line><text fill="currentColor" y="9" dy=".15em" style="text-anchor: end;" dx="-.8em" transform="rotate(-45)">10/07</text></g><g class="tick" opacity="1" transform="translate(657.891304347826,0)"><line stroke="currentColor" y2="6"></line><text fill="currentColor" y="9" dy=".15em" style="text-anchor: end;" dx="-.8em" transform="rotate(-45)">10/08</text></g></g><g fill="none" font-size="10" font-family="sans-serif" text-anchor="end"><path class="domain" stroke="currentColor" d="M-6,340.5H0.5V0.5H-6"></path><g class="tick" opacity="1" transform="translate(0,340.5)"><line stroke="currentColor" x2="-6"></line><text fill="currentColor" x="-9" dy="0.32em">3.40%</text></g><g class="tick" opacity="1" transform="translate(0,302.72222222222234)"><line stroke="currentColor" x2="-6"></line><text fill="currentColor" x="-9" dy="0.32em">3.60%</text></g><g class="tick" opacity="1" transform="translate(0,264.9444444444445)"><line stroke="currentColor" x2="-6"></line><text fill="currentColor" x="-9" dy="0.32em">3.80%</text></g><g class="tick" opacity="1" transform="translate(0,227.16666666666669)"><line stroke="currentColor" x2="-6"></line><text fill="currentColor" x="-9" dy="0.32em">4.00%</text></g><g class="tick" opacity="1" transform="translate(0,189.38888888888883)"><line stroke="currentColor" x2="-6"></line><text fill="currentColor" x="-9" dy="0.32em">4.20%</text></g><g class="tick" opacity="1" transform="translate(0,151.61111111111114)"><line stroke="currentColor" x2="-6"></line><text fill="currentColor" x="-9" dy="0.32em">4.40%</text></g><g class="tick" opacity="1" transform="translate(0,113.83333333333334)"><line stroke="currentColor" x2="-6"></line><text fill="currentColor" x="-9" dy="0.32em">4.60%</text></g><g class="tick" opacity="1" transform="translate(0,76.05555555555551)"><line stroke="currentColor" x2="-6"></line><text fill="currentColor" x="-9" dy="0.32em">4.80%</text></g><g class="tick" opacity="1" transform="translate(0,38.27777777777768)"><line stroke="currentColor" x2="-6"></line><text fill="currentColor" x="-9" dy="0.32em">5.00%</text></g><g class="tick" opacity="1" transform="translate(0,0.5)"><line stroke="currentColor" x2="-6"></line><text fill="currentColor" x="-9" dy="0.32em">5.20%</text></g></g><text transform="rotate(-90)" y="-50" x="-170" dy="1em" style="text-anchor: middle; font-size: 12px; fill: #666;">Pre Rate (%)</text><text transform="translate(360, 380)" style="text-anchor: middle; font-size: 12px; fill: #666;">Time (UTC)</text><path fill="none" stroke="#2563eb" stroke-width="2" d="M0,321.111C1.304,321.111,2.609,321.111,3.913,321.111C5.217,321.111,6.522,321.111,7.826,321.111C9.13,321.111,10.435,321.111,11.739,321.111C13.043,321.111,14.348,321.111,15.652,321.111C16.957,321.111,18.261,321.111,19.565,321.111C20.87,321.111,22.174,321.111,23.478,321.111C24.783,321.111,26.087,321.111,27.391,321.111C28.696,321.111,30,321.111,31.304,321.111C32.609,321.111,33.913,321.111,35.217,321.111C36.522,321.111,37.826,321.111,39.13,321.111C40.435,321.111,41.739,321.111,43.043,321.111C44.348,321.111,45.652,321.111,46.957,321.111C48.261,321.111,49.565,321.111,50.87,321.111C52.174,321.111,53.478,321.111,54.783,321.111C56.087,321.111,57.391,321.111,58.696,321.111C60,321.111,61.304,321.111,62.609,321.111C63.913,321.111,65.217,321.111,66.522,321.111C67.826,321.111,69.13,321.111,70.435,321.111C71.739,321.111,73.043,321.111,74.348,321.111C75.652,321.111,76.957,321.111,78.261,321.111C79.565,321.111,80.87,321.111,82.174,321.111C83.478,321.111,84.783,321.111,86.087,321.111C87.391,321.111,88.696,321.111,90,321.111C91.304,321.111,92.609,321.111,93.913,321.111C95.217,321.111,96.522,321.111,97.826,321.111C99.13,321.111,100.435,321.111,101.739,321.111C103.043,321.111,104.348,321.111,105.652,321.111C106.957,321.111,108.261,321.111,109.565,321.111C110.87,321.111,112.174,321.111,113.478,321.111C114.783,321.111,116.087,321.111,117.391,321.111C118.696,321.111,120,321.111,121.304,321.111C122.609,321.111,123.913,18.889,125.217,18.889C126.522,18.889,127.826,207.778,129.13,207.778C130.435,207.778,131.739,207.778,133.043,207.778C134.348,207.778,135.652,321.111,136.957,321.111C138.261,321.111,139.565,321.111,140.87,321.111C142.174,321.111,143.478,321.111,144.783,321.111C146.087,321.111,147.391,321.111,148.696,321.111C150,321.111,151.304,321.111,152.609,321.111C153.913,321.111,155.217,321.111,156.522,321.111C157.826,321.111,159.13,321.111,160.435,321.111C161.739,321.111,163.043,321.111,164.348,321.111C165.652,321.111,166.957,321.111,168.261,321.111C169.565,321.111,170.87,321.111,172.174,321.111C173.478,321.111,174.783,321.111,176.087,321.111C177.391,321.111,178.696,321.111,180,321.111C181.304,321.111,182.609,321.111,183.913,321.111C185.217,321.111,186.522,321.111,187.826,321.111C189.13,321.111,190.435,321.111,191.739,321.111C193.043,321.111,194.348,321.111,195.652,321.111C196.957,321.111,198.261,321.111,199.565,321.111C200.87,321.111,202.174,321.111,203.478,321.111C204.783,321.111,206.087,321.111,207.391,321.111C208.696,321.111,210,321.111,211.304,321.111C212.609,321.111,213.913,321.111,215.217,321.111C216.522,321.111,217.826,321.111,219.13,321.111C220.435,321.111,221.739,321.111,223.043,321.111C224.348,321.111,225.652,321.111,226.957,321.111C228.261,321.111,229.565,321.111,230.87,321.111C232.174,321.111,233.478,321.111,234.783,321.111C236.087,321.111,237.391,321.111,238.696,321.111C240,321.111,241.304,321.111,242.609,321.111C243.913,321.111,245.217,321.111,246.522,321.111C247.826,321.111,249.13,321.111,250.435,321.111C251.739,321.111,253.043,321.111,254.348,321.111C255.652,321.111,256.957,321.111,258.261,321.111C259.565,321.111,260.87,321.111,262.174,321.111C263.478,321.111,264.783,321.111,266.087,321.111C267.391,321.111,268.696,321.111,270,321.111C271.304,321.111,272.609,321.111,273.913,321.111C275.217,321.111,276.522,321.111,277.826,321.111C279.13,321.111,280.435,321.111,281.739,321.111C283.043,321.111,284.348,321.111,285.652,321.111C286.957,321.111,288.261,321.111,289.565,321.111C290.87,321.111,292.174,321.111,293.478,321.111C294.783,321.111,296.087,321.111,297.391,321.111C298.696,321.111,300,321.111,301.304,321.111C302.609,321.111,303.913,321.111,305.217,321.111C306.522,321.111,307.826,321.111,309.13,321.111C310.435,321.111,311.739,321.111,313.043,321.111C314.348,321.111,315.652,321.111,316.957,321.111C318.261,321.111,319.565,321.111,320.87,321.111C322.174,321.111,323.478,321.111,324.783,321.111C326.087,321.111,327.391,321.111,328.696,321.111C330,321.111,331.304,321.111,332.609,321.111C333.913,321.111,335.217,321.111,336.522,321.111C337.826,321.111,339.13,321.111,340.435,321.111C341.739,321.111,343.043,321.111,344.348,321.111C345.652,321.111,346.957,321.111,348.261,321.111C349.565,321.111,350.87,321.111,352.174,321.111C353.478,321.111,354.783,321.111,356.087,321.111C357.391,321.111,358.696,321.111,360,321.111C361.304,321.111,362.609,321.111,363.913,321.111C365.217,321.111,366.522,321.111,367.826,321.111C369.13,321.111,370.435,321.111,371.739,321.111C373.043,321.111,374.348,321.111,375.652,321.111C376.957,321.111,378.261,321.111,379.565,321.111C380.87,321.111,382.174,321.111,383.478,321.111C384.783,321.111,386.087,321.111,387.391,321.111C388.696,321.111,390,321.111,391.304,321.111C392.609,321.111,393.913,321.111,395.217,321.111C396.522,321.111,397.826,321.111,399.13,321.111C400.435,321.111,401.739,321.111,403.043,321.111C404.348,321.111,405.652,151.111,406.957,151.111C408.261,151.111,409.565,173.148,410.87,188.889C412.174,204.63,413.478,223.519,414.783,245.556C416.087,267.593,417.391,321.111,418.696,321.111C420,321.111,421.304,321.111,422.609,321.111C423.913,321.111,425.217,321.111,426.522,321.111C427.826,321.111,429.13,321.111,430.435,321.111C431.739,321.111,433.043,321.111,434.348,321.111C435.652,321.111,436.957,321.111,438.261,321.111C439.565,321.111,440.87,321.111,442.174,321.111C443.478,321.111,444.783,321.111,446.087,321.111C447.391,321.111,448.696,321.111,450,321.111C451.304,321.111,452.609,321.111,453.913,321.111C455.217,321.111,456.522,321.111,457.826,321.111C459.13,321.111,460.435,321.111,461.739,321.111C463.043,321.111,464.348,321.111,465.652,321.111C466.957,321.111,468.261,321.111,469.565,321.111C470.87,321.111,472.174,321.111,473.478,321.111C474.783,321.111,476.087,321.111,477.391,321.111C478.696,321.111,480,321.111,481.304,321.111C482.609,321.111,483.913,321.111,485.217,321.111C486.522,321.111,487.826,321.111,489.13,321.111C490.435,321.111,491.739,321.111,493.043,321.111C494.348,321.111,495.652,321.111,496.957,321.111C498.261,321.111,499.565,277.037,500.87,264.444C502.174,251.852,503.478,245.556,504.783,245.556C506.087,245.556,507.391,321.111,508.696,321.111C510,321.111,511.304,321.111,512.609,321.111C513.913,321.111,515.217,321.111,516.522,321.111C517.826,321.111,519.13,321.111,520.435,321.111C521.739,321.111,523.043,321.111,524.348,321.111C525.652,321.111,526.957,321.111,528.261,321.111C529.565,321.111,530.87,321.111,532.174,321.111C533.478,321.111,534.783,321.111,536.087,321.111C537.391,321.111,538.696,321.111,540,321.111C541.304,321.111,542.609,321.111,543.913,321.111C545.217,321.111,546.522,321.111,547.826,321.111C549.13,321.111,550.435,321.111,551.739,321.111C553.043,321.111,554.348,321.111,555.652,321.111C556.957,321.111,558.261,321.111,559.565,321.111C560.87,321.111,562.174,321.111,563.478,321.111C564.783,321.111,566.087,321.111,567.391,321.111C568.696,321.111,570,321.111,571.304,321.111C572.609,321.111,573.913,321.111,575.217,321.111C576.522,321.111,577.826,321.111,579.13,321.111C580.435,321.111,581.739,321.111,583.043,321.111C584.348,321.111,585.652,321.111,586.957,321.111C588.261,321.111,589.565,321.111,590.87,321.111C592.174,321.111,593.478,321.111,594.783,321.111C596.087,321.111,597.391,321.111,598.696,321.111C600,321.111,601.304,321.111,602.609,321.111C603.913,321.111,605.217,321.111,606.522,321.111C607.826,321.111,609.13,321.111,610.435,321.111C611.739,321.111,613.043,321.111,614.348,321.111C615.652,321.111,616.957,321.111,618.261,321.111C619.565,321.111,620.87,321.111,622.174,321.111C623.478,321.111,624.783,321.111,626.087,321.111C627.391,321.111,628.696,321.111,630,321.111C631.304,321.111,632.609,321.111,633.913,321.111C635.217,321.111,636.522,321.111,637.826,321.111C639.13,321.111,640.435,321.111,641.739,321.111C643.043,321.111,644.348,321.111,645.652,321.111C646.957,321.111,648.261,321.111,649.565,321.111C650.87,321.111,652.174,321.111,653.478,321.111C654.783,321.111,656.087,321.111,657.391,321.111C658.696,321.111,660,321.111,661.304,321.111C662.609,321.111,663.913,321.111,665.217,321.111C666.522,321.111,667.826,321.111,669.13,321.111C670.435,321.111,671.739,321.111,673.043,321.111C674.348,321.111,675.652,321.111,676.957,321.111C678.261,321.111,679.565,321.111,680.87,321.111C682.174,321.111,683.478,321.111,684.783,321.111C686.087,321.111,687.391,321.111,688.696,321.111C690,321.111,691.304,321.111,692.609,321.111C693.913,321.111,695.217,321.111,696.522,321.111C697.826,321.111,699.13,321.111,700.435,321.111C701.739,321.111,703.043,321.111,704.348,321.111C705.652,321.111,706.957,321.111,708.261,321.111C709.565,321.111,710.87,321.111,712.174,321.111C713.478,321.111,714.783,321.111,716.087,321.111C717.391,321.111,718.696,321.111,720,321.111"></path><circle class="dot" cx="0" cy="321.1111111111111" r="3" fill="#2563eb"></circle><circle class="dot" cx="3.9130434782608696" cy="321.1111111111111" r="3" fill="#2563eb"></circle><circle class="dot" cx="7.826086956521739" cy="321.1111111111111" r="3" fill="#2563eb"></circle><circle class="dot" cx="11.739130434782608" cy="321.1111111111111" r="3" fill="#2563eb"></circle><circle class="dot" cx="15.652173913043478" cy="321.1111111111111" r="3" fill="#2563eb"></circle><circle class="dot" cx="19.565217391304348" cy="321.1111111111111" r="3" fill="#2563eb"></circle><circle class="dot" cx="23.478260869565215" cy="321.1111111111111" r="3" fill="#2563eb"></circle><circle class="dot" cx="27.39130434782609" cy="321.1111111111111" r="3" fill="#2563eb"></circle><circle class="dot" cx="31.304347826086957" cy="321.1111111111111" r="3" fill="#2563eb"></circle><circle class="dot" cx="35.21739130434783" cy="321.1111111111111" r="3" fill="#2563eb"></circle><circle class="dot" cx="39.130434782608695" cy="321.1111111111111" r="3" fill="#2563eb"></circle><circle class="dot" cx="43.04347826086957" cy="321.1111111111111" r="3" fill="#2563eb"></circle><circle class="dot" cx="46.95652173913043" cy="321.1111111111111" r="3" fill="#2563eb"></circle><circle class="dot" cx="50.8695652173913" cy="321.1111111111111" r="3" fill="#2563eb"></circle><circle class="dot" cx="54.78260869565218" cy="321.1111111111111" r="3" fill="#2563eb"></circle><circle class="dot" cx="58.69565217391305" cy="321.1111111111111" r="3" fill="#2563eb"></circle><circle class="dot" cx="62.608695652173914" cy="321.1111111111111" r="3" fill="#2563eb"></circle><circle class="dot" cx="66.52173913043478" cy="321.1111111111111" r="3" fill="#2563eb"></circle><circle class="dot" cx="70.43478260869566" cy="321.1111111111111" r="3" fill="#2563eb"></circle><circle class="dot" cx="74.34782608695652" cy="321.1111111111111" r="3" fill="#2563eb"></circle><circle class="dot" cx="78.26086956521739" cy="321.1111111111111" r="3" fill="#2563eb"></circle><circle class="dot" cx="82.17391304347825" cy="321.1111111111111" r="3" fill="#2563eb"></circle><circle class="dot" cx="86.08695652173914" cy="321.1111111111111" r="3" fill="#2563eb"></circle><circle class="dot" cx="90" cy="321.1111111111111" r="3" fill="#2563eb"></circle><circle class="dot" cx="93.91304347826086" cy="321.1111111111111" r="3" fill="#2563eb"></circle><circle class="dot" cx="97.82608695652173" cy="321.1111111111111" r="3" fill="#2563eb"></circle><circle class="dot" cx="101.7391304347826" cy="321.1111111111111" r="3" fill="#2563eb"></circle><circle class="dot" cx="105.65217391304348" cy="321.1111111111111" r="3" fill="#2563eb"></circle><circle class="dot" cx="109.56521739130436" cy="321.1111111111111" r="3" fill="#2563eb"></circle><circle class="dot" cx="113.47826086956522" cy="321.1111111111111" r="3" fill="#2563eb"></circle><circle class="dot" cx="117.3913043478261" cy="321.1111111111111" r="3" fill="#2563eb"></circle><circle class="dot" cx="121.30434782608695" cy="321.1111111111111" r="3" fill="#2563eb"></circle><circle class="dot" cx="125.21739130434783" cy="18.888888888888896" r="3" fill="#2563eb"></circle><circle class="dot" cx="129.1304347826087" cy="207.77777777777774" r="3" fill="#2563eb"></circle><circle class="dot" cx="133.04347826086956" cy="207.77777777777774" r="3" fill="#2563eb"></circle><circle class="dot" cx="136.95652173913044" cy="321.1111111111111" r="3" fill="#2563eb"></circle><circle class="dot" cx="140.8695652173913" cy="321.1111111111111" r="3" fill="#2563eb"></circle><circle class="dot" cx="144.7826086956522" cy="321.1111111111111" r="3" fill="#2563eb"></circle><circle class="dot" cx="148.69565217391303" cy="321.1111111111111" r="3" fill="#2563eb"></circle><circle class="dot" cx="152.6086956521739" cy="321.1111111111111" r="3" fill="#2563eb"></circle><circle class="dot" cx="156.52173913043478" cy="321.1111111111111" r="3" fill="#2563eb"></circle><circle class="dot" cx="160.43478260869566" cy="321.1111111111111" r="3" fill="#2563eb"></circle><circle class="dot" cx="164.3478260869565" cy="321.1111111111111" r="3" fill="#2563eb"></circle><circle class="dot" cx="168.2608695652174" cy="321.1111111111111" r="3" fill="#2563eb"></circle><circle class="dot" cx="172.17391304347828" cy="321.1111111111111" r="3" fill="#2563eb"></circle><circle class="dot" cx="176.08695652173913" cy="321.1111111111111" r="3" fill="#2563eb"></circle><circle class="dot" cx="180" cy="321.1111111111111" r="3" fill="#2563eb"></circle><circle class="dot" cx="183.91304347826087" cy="321.1111111111111" r="3" fill="#2563eb"></circle><circle class="dot" cx="187.82608695652172" cy="321.1111111111111" r="3" fill="#2563eb"></circle><circle class="dot" cx="191.73913043478262" cy="321.1111111111111" r="3" fill="#2563eb"></circle><circle class="dot" cx="195.65217391304347" cy="321.1111111111111" r="3" fill="#2563eb"></circle><circle class="dot" cx="199.56521739130434" cy="321.1111111111111" r="3" fill="#2563eb"></circle><circle class="dot" cx="203.4782608695652" cy="321.1111111111111" r="3" fill="#2563eb"></circle><circle class="dot" cx="207.3913043478261" cy="321.1111111111111" r="3" fill="#2563eb"></circle><circle class="dot" cx="211.30434782608697" cy="321.1111111111111" r="3" fill="#2563eb"></circle><circle class="dot" cx="215.2173913043478" cy="321.1111111111111" r="3" fill="#2563eb"></circle><circle class="dot" cx="219.13043478260872" cy="321.1111111111111" r="3" fill="#2563eb"></circle><circle class="dot" cx="223.04347826086956" cy="321.1111111111111" r="3" fill="#2563eb"></circle><circle class="dot" cx="226.95652173913044" cy="321.1111111111111" r="3" fill="#2563eb"></circle><circle class="dot" cx="230.86956521739128" cy="321.1111111111111" r="3" fill="#2563eb"></circle><circle class="dot" cx="234.7826086956522" cy="321.1111111111111" r="3" fill="#2563eb"></circle><circle class="dot" cx="238.69565217391303" cy="321.1111111111111" r="3" fill="#2563eb"></circle><circle class="dot" cx="242.6086956521739" cy="321.1111111111111" r="3" fill="#2563eb"></circle><circle class="dot" cx="246.5217391304348" cy="321.1111111111111" r="3" fill="#2563eb"></circle><circle class="dot" cx="250.43478260869566" cy="321.1111111111111" r="3" fill="#2563eb"></circle><circle class="dot" cx="254.34782608695653" cy="321.1111111111111" r="3" fill="#2563eb"></circle><circle class="dot" cx="258.2608695652174" cy="321.1111111111111" r="3" fill="#2563eb"></circle><circle class="dot" cx="262.17391304347825" cy="321.1111111111111" r="3" fill="#2563eb"></circle><circle class="dot" cx="266.0869565217391" cy="321.1111111111111" r="3" fill="#2563eb"></circle><circle class="dot" cx="270" cy="321.1111111111111" r="3" fill="#2563eb"></circle><circle class="dot" cx="273.9130434782609" cy="321.1111111111111" r="3" fill="#2563eb"></circle><circle class="dot" cx="277.82608695652175" cy="321.1111111111111" r="3" fill="#2563eb"></circle><circle class="dot" cx="281.7391304347826" cy="321.1111111111111" r="3" fill="#2563eb"></circle><circle class="dot" cx="285.65217391304344" cy="321.1111111111111" r="3" fill="#2563eb"></circle><circle class="dot" cx="289.5652173913044" cy="321.1111111111111" r="3" fill="#2563eb"></circle><circle class="dot" cx="293.4782608695652" cy="321.1111111111111" r="3" fill="#2563eb"></circle><circle class="dot" cx="297.39130434782606" cy="321.1111111111111" r="3" fill="#2563eb"></circle><circle class="dot" cx="301.304347826087" cy="321.1111111111111" r="3" fill="#2563eb"></circle><circle class="dot" cx="305.2173913043478" cy="321.1111111111111" r="3" fill="#2563eb"></circle><circle class="dot" cx="309.1304347826087" cy="321.1111111111111" r="3" fill="#2563eb"></circle><circle class="dot" cx="313.04347826086956" cy="321.1111111111111" r="3" fill="#2563eb"></circle><circle class="dot" cx="316.95652173913044" cy="321.1111111111111" r="3" fill="#2563eb"></circle><circle class="dot" cx="320.8695652173913" cy="321.1111111111111" r="3" fill="#2563eb"></circle><circle class="dot" cx="324.7826086956522" cy="321.1111111111111" r="3" fill="#2563eb"></circle><circle class="dot" cx="328.695652173913" cy="321.1111111111111" r="3" fill="#2563eb"></circle><circle class="dot" cx="332.60869565217394" cy="321.1111111111111" r="3" fill="#2563eb"></circle><circle class="dot" cx="336.5217391304348" cy="321.1111111111111" r="3" fill="#2563eb"></circle><circle class="dot" cx="340.4347826086956" cy="321.1111111111111" r="3" fill="#2563eb"></circle><circle class="dot" cx="344.34782608695656" cy="321.1111111111111" r="3" fill="#2563eb"></circle><circle class="dot" cx="348.2608695652174" cy="321.1111111111111" r="3" fill="#2563eb"></circle><circle class="dot" cx="352.17391304347825" cy="321.1111111111111" r="3" fill="#2563eb"></circle><circle class="dot" cx="356.0869565217391" cy="321.1111111111111" r="3" fill="#2563eb"></circle><circle class="dot" cx="360" cy="321.1111111111111" r="3" fill="#2563eb"></circle><circle class="dot" cx="363.9130434782609" cy="321.1111111111111" r="3" fill="#2563eb"></circle><circle class="dot" cx="367.82608695652175" cy="321.1111111111111" r="3" fill="#2563eb"></circle><circle class="dot" cx="371.73913043478257" cy="321.1111111111111" r="3" fill="#2563eb"></circle><circle class="dot" cx="375.65217391304344" cy="321.1111111111111" r="3" fill="#2563eb"></circle><circle class="dot" cx="379.5652173913044" cy="321.1111111111111" r="3" fill="#2563eb"></circle><circle class="dot" cx="383.47826086956525" cy="321.1111111111111" r="3" fill="#2563eb"></circle><circle class="dot" cx="387.39130434782606" cy="321.1111111111111" r="3" fill="#2563eb"></circle><circle class="dot" cx="391.30434782608694" cy="321.1111111111111" r="3" fill="#2563eb"></circle><circle class="dot" cx="395.2173913043478" cy="321.1111111111111" r="3" fill="#2563eb"></circle><circle class="dot" cx="399.1304347826087" cy="321.1111111111111" r="3" fill="#2563eb"></circle><circle class="dot" cx="403.0434782608696" cy="321.1111111111111" r="3" fill="#2563eb"></circle><circle class="dot" cx="406.9565217391304" cy="151.11111111111114" r="3" fill="#2563eb"></circle><circle class="dot" cx="410.8695652173913" cy="188.88888888888883" r="3" fill="#2563eb"></circle><circle class="dot" cx="414.7826086956522" cy="245.5555555555556" r="3" fill="#2563eb"></circle><circle class="dot" cx="418.69565217391306" cy="321.1111111111111" r="3" fill="#2563eb"></circle><circle class="dot" cx="422.60869565217394" cy="321.1111111111111" r="3" fill="#2563eb"></circle><circle class="dot" cx="426.52173913043475" cy="321.1111111111111" r="3" fill="#2563eb"></circle><circle class="dot" cx="430.4347826086956" cy="321.1111111111111" r="3" fill="#2563eb"></circle><circle class="dot" cx="434.34782608695656" cy="321.1111111111111" r="3" fill="#2563eb"></circle><circle class="dot" cx="438.26086956521743" cy="321.1111111111111" r="3" fill="#2563eb"></circle><circle class="dot" cx="442.17391304347825" cy="321.1111111111111" r="3" fill="#2563eb"></circle><circle class="dot" cx="446.0869565217391" cy="321.1111111111111" r="3" fill="#2563eb"></circle><circle class="dot" cx="450" cy="321.1111111111111" r="3" fill="#2563eb"></circle><circle class="dot" cx="453.9130434782609" cy="321.1111111111111" r="3" fill="#2563eb"></circle><circle class="dot" cx="457.82608695652175" cy="321.1111111111111" r="3" fill="#2563eb"></circle><circle class="dot" cx="461.73913043478257" cy="321.1111111111111" r="3" fill="#2563eb"></circle><circle class="dot" cx="465.65217391304344" cy="321.1111111111111" r="3" fill="#2563eb"></circle><circle class="dot" cx="469.5652173913044" cy="321.1111111111111" r="3" fill="#2563eb"></circle><circle class="dot" cx="473.47826086956525" cy="321.1111111111111" r="3" fill="#2563eb"></circle><circle class="dot" cx="477.39130434782606" cy="321.1111111111111" r="3" fill="#2563eb"></circle><circle class="dot" cx="481.30434782608694" cy="321.1111111111111" r="3" fill="#2563eb"></circle><circle class="dot" cx="485.2173913043478" cy="321.1111111111111" r="3" fill="#2563eb"></circle><circle class="dot" cx="489.1304347826087" cy="321.1111111111111" r="3" fill="#2563eb"></circle><circle class="dot" cx="493.0434782608696" cy="321.1111111111111" r="3" fill="#2563eb"></circle><circle class="dot" cx="496.9565217391304" cy="321.1111111111111" r="3" fill="#2563eb"></circle><circle class="dot" cx="500.8695652173913" cy="264.4444444444445" r="3" fill="#2563eb"></circle><circle class="dot" cx="504.7826086956522" cy="245.5555555555556" r="3" fill="#2563eb"></circle><circle class="dot" cx="508.69565217391306" cy="321.1111111111111" r="3" fill="#2563eb"></circle><circle class="dot" cx="512.608695652174" cy="321.1111111111111" r="3" fill="#2563eb"></circle><circle class="dot" cx="516.5217391304348" cy="321.1111111111111" r="3" fill="#2563eb"></circle><circle class="dot" cx="520.4347826086956" cy="321.1111111111111" r="3" fill="#2563eb"></circle><circle class="dot" cx="524.3478260869565" cy="321.1111111111111" r="3" fill="#2563eb"></circle><circle class="dot" cx="528.2608695652174" cy="321.1111111111111" r="3" fill="#2563eb"></circle><circle class="dot" cx="532.1739130434783" cy="321.1111111111111" r="3" fill="#2563eb"></circle><circle class="dot" cx="536.0869565217391" cy="321.1111111111111" r="3" fill="#2563eb"></circle><circle class="dot" cx="540" cy="321.1111111111111" r="3" fill="#2563eb"></circle><circle class="dot" cx="543.9130434782609" cy="321.1111111111111" r="3" fill="#2563eb"></circle><circle class="dot" cx="547.8260869565217" cy="321.1111111111111" r="3" fill="#2563eb"></circle><circle class="dot" cx="551.7391304347826" cy="321.1111111111111" r="3" fill="#2563eb"></circle><circle class="dot" cx="555.6521739130435" cy="321.1111111111111" r="3" fill="#2563eb"></circle><circle class="dot" cx="559.5652173913044" cy="321.1111111111111" r="3" fill="#2563eb"></circle><circle class="dot" cx="563.4782608695652" cy="321.1111111111111" r="3" fill="#2563eb"></circle><circle class="dot" cx="567.391304347826" cy="321.1111111111111" r="3" fill="#2563eb"></circle><circle class="dot" cx="571.3043478260869" cy="321.1111111111111" r="3" fill="#2563eb"></circle><circle class="dot" cx="575.2173913043479" cy="321.1111111111111" r="3" fill="#2563eb"></circle><circle class="dot" cx="579.1304347826087" cy="321.1111111111111" r="3" fill="#2563eb"></circle><circle class="dot" cx="583.0434782608696" cy="321.1111111111111" r="3" fill="#2563eb"></circle><circle class="dot" cx="586.9565217391304" cy="321.1111111111111" r="3" fill="#2563eb"></circle><circle class="dot" cx="590.8695652173913" cy="321.1111111111111" r="3" fill="#2563eb"></circle><circle class="dot" cx="594.7826086956521" cy="321.1111111111111" r="3" fill="#2563eb"></circle><circle class="dot" cx="598.6956521739131" cy="321.1111111111111" r="3" fill="#2563eb"></circle><circle class="dot" cx="602.608695652174" cy="321.1111111111111" r="3" fill="#2563eb"></circle><circle class="dot" cx="606.5217391304348" cy="321.1111111111111" r="3" fill="#2563eb"></circle><circle class="dot" cx="610.4347826086956" cy="321.1111111111111" r="3" fill="#2563eb"></circle><circle class="dot" cx="614.3478260869565" cy="321.1111111111111" r="3" fill="#2563eb"></circle><circle class="dot" cx="618.2608695652174" cy="321.1111111111111" r="3" fill="#2563eb"></circle><circle class="dot" cx="622.1739130434783" cy="321.1111111111111" r="3" fill="#2563eb"></circle><circle class="dot" cx="626.0869565217391" cy="321.1111111111111" r="3" fill="#2563eb"></circle><circle class="dot" cx="630" cy="321.1111111111111" r="3" fill="#2563eb"></circle><circle class="dot" cx="633.9130434782609" cy="321.1111111111111" r="3" fill="#2563eb"></circle><circle class="dot" cx="637.8260869565217" cy="321.1111111111111" r="3" fill="#2563eb"></circle><circle class="dot" cx="641.7391304347826" cy="321.1111111111111" r="3" fill="#2563eb"></circle><circle class="dot" cx="645.6521739130435" cy="321.1111111111111" r="3" fill="#2563eb"></circle><circle class="dot" cx="649.5652173913044" cy="321.1111111111111" r="3" fill="#2563eb"></circle><circle class="dot" cx="653.4782608695652" cy="321.1111111111111" r="3" fill="#2563eb"></circle><circle class="dot" cx="657.391304347826" cy="321.1111111111111" r="3" fill="#2563eb"></circle><circle class="dot" cx="661.3043478260869" cy="321.1111111111111" r="3" fill="#2563eb"></circle><circle class="dot" cx="665.2173913043479" cy="321.1111111111111" r="3" fill="#2563eb"></circle><circle class="dot" cx="669.1304347826087" cy="321.1111111111111" r="3" fill="#2563eb"></circle><circle class="dot" cx="673.0434782608696" cy="321.1111111111111" r="3" fill="#2563eb"></circle><circle class="dot" cx="676.9565217391304" cy="321.1111111111111" r="3" fill="#2563eb"></circle><circle class="dot" cx="680.8695652173913" cy="321.1111111111111" r="3" fill="#2563eb"></circle><circle class="dot" cx="684.7826086956521" cy="321.1111111111111" r="3" fill="#2563eb"></circle><circle class="dot" cx="688.6956521739131" cy="321.1111111111111" r="3" fill="#2563eb"></circle><circle class="dot" cx="692.608695652174" cy="321.1111111111111" r="3" fill="#2563eb"></circle><circle class="dot" cx="696.5217391304348" cy="321.1111111111111" r="3" fill="#2563eb"></circle><circle class="dot" cx="700.4347826086956" cy="321.1111111111111" r="3" fill="#2563eb"></circle><circle class="dot" cx="704.3478260869565" cy="321.1111111111111" r="3" fill="#2563eb"></circle><circle class="dot" cx="708.2608695652174" cy="321.1111111111111" r="3" fill="#2563eb"></circle><circle class="dot" cx="712.1739130434783" cy="321.1111111111111" r="3" fill="#2563eb"></circle><circle class="dot" cx="716.0869565217391" cy="321.1111111111111" r="3" fill="#2563eb"></circle><circle class="dot" cx="720" cy="321.1111111111111" r="3" fill="#2563eb"></circle><g class="grid" transform="translate(0,340)" fill="none" font-size="10" font-family="sans-serif" text-anchor="middle" style="stroke-dasharray: 3,3; opacity: 0.3;"><path class="domain" stroke="currentColor" d="M0.5,-340V0.5H720.5V-340"></path><g class="tick" opacity="1" transform="translate(0.5,0)"><line stroke="currentColor" y2="-340"></line><text fill="currentColor" y="3" dy="0.71em"></text></g><g class="tick" opacity="1" transform="translate(94.41304347826086,0)"><line stroke="currentColor" y2="-340"></line><text fill="currentColor" y="3" dy="0.71em"></text></g><g class="tick" opacity="1" transform="translate(188.32608695652172,0)"><line stroke="currentColor" y2="-340"></line><text fill="currentColor" y="3" dy="0.71em"></text></g><g class="tick" opacity="1" transform="translate(282.2391304347826,0)"><line stroke="currentColor" y2="-340"></line><text fill="currentColor" y="3" dy="0.71em"></text></g><g class="tick" opacity="1" transform="translate(376.15217391304344,0)"><line stroke="currentColor" y2="-340"></line><text fill="currentColor" y="3" dy="0.71em"></text></g><g class="tick" opacity="1" transform="translate(470.0652173913044,0)"><line stroke="currentColor" y2="-340"></line><text fill="currentColor" y="3" dy="0.71em"></text></g><g class="tick" opacity="1" transform="translate(563.9782608695652,0)"><line stroke="currentColor" y2="-340"></line><text fill="currentColor" y="3" dy="0.71em"></text></g><g class="tick" opacity="1" transform="translate(657.891304347826,0)"><line stroke="currentColor" y2="-340"></line><text fill="currentColor" y="3" dy="0.71em"></text></g></g><g class="grid" fill="none" font-size="10" font-family="sans-serif" text-anchor="end" style="stroke-dasharray: 3,3; opacity: 0.3;"><path class="domain" stroke="currentColor" d="M720,340.5H0.5V0.5H720"></path><g class="tick" opacity="1" transform="translate(0,340.5)"><line stroke="currentColor" x2="720"></line><text fill="currentColor" x="-3" dy="0.32em"></text></g><g class="tick" opacity="1" transform="translate(0,302.72222222222234)"><line stroke="currentColor" x2="720"></line><text fill="currentColor" x="-3" dy="0.32em"></text></g><g class="tick" opacity="1" transform="translate(0,264.9444444444445)"><line stroke="currentColor" x2="720"></line><text fill="currentColor" x="-3" dy="0.32em"></text></g><g class="tick" opacity="1" transform="translate(0,227.16666666666669)"><line stroke="currentColor" x2="720"></line><text fill="currentColor" x="-3" dy="0.32em"></text></g><g class="tick" opacity="1" transform="translate(0,189.38888888888883)"><line stroke="currentColor" x2="720"></line><text fill="currentColor" x="-3" dy="0.32em"></text></g><g class="tick" opacity="1" transform="translate(0,151.61111111111114)"><line stroke="currentColor" x2="720"></line><text fill="currentColor" x="-3" dy="0.32em"></text></g><g class="tick" opacity="1" transform="translate(0,113.83333333333334)"><line stroke="currentColor" x2="720"></line><text fill="currentColor" x="-3" dy="0.32em"></text></g><g class="tick" opacity="1" transform="translate(0,76.05555555555551)"><line stroke="currentColor" x2="720"></line><text fill="currentColor" x="-3" dy="0.32em"></text></g><g class="tick" opacity="1" transform="translate(0,38.27777777777768)"><line stroke="currentColor" x2="720"></line><text fill="currentColor" x="-3" dy="0.32em"></text></g><g class="tick" opacity="1" transform="translate(0,0.5)"><line stroke="currentColor" x2="720"></line><text fill="currentColor" x="-3" dy="0.32em"></text></g></g></g><text x="400" y="10" text-anchor="middle" style="font-size: 16px; font-weight: bold; fill: #333;">OKX USDT Lending Rate - Current Month</text></svg>