<svg width="800" height="400" xmlns="http://www.w3.org/2000/svg"><g transform="translate(50,20)"><g transform="translate(0,340)" fill="none" font-size="10" font-family="sans-serif" text-anchor="middle"><path class="domain" stroke="currentColor" d="M0.5,6V0.5H720.5V6"></path><g class="tick" opacity="1" transform="translate(0.5,0)"><line stroke="currentColor" y2="6"></line><text fill="currentColor" y="9" dy=".15em" style="text-anchor: end;" dx="-.8em" transform="rotate(-45)">11/01</text></g><g class="tick" opacity="1" transform="translate(35.479757085020246,0)"><line stroke="currentColor" y2="6"></line><text fill="currentColor" y="9" dy=".15em" style="text-anchor: end;" dx="-.8em" transform="rotate(-45)">11/02</text></g><g class="tick" opacity="1" transform="translate(70.45951417004049,0)"><line stroke="currentColor" y2="6"></line><text fill="currentColor" y="9" dy=".15em" style="text-anchor: end;" dx="-.8em" transform="rotate(-45)">11/03</text></g><g class="tick" opacity="1" transform="translate(105.43927125506072,0)"><line stroke="currentColor" y2="6"></line><text fill="currentColor" y="9" dy=".15em" style="text-anchor: end;" dx="-.8em" transform="rotate(-45)">11/04</text></g><g class="tick" opacity="1" transform="translate(140.41902834008098,0)"><line stroke="currentColor" y2="6"></line><text fill="currentColor" y="9" dy=".15em" style="text-anchor: end;" dx="-.8em" transform="rotate(-45)">11/05</text></g><g class="tick" opacity="1" transform="translate(175.3987854251012,0)"><line stroke="currentColor" y2="6"></line><text fill="currentColor" y="9" dy=".15em" style="text-anchor: end;" dx="-.8em" transform="rotate(-45)">11/06</text></g><g class="tick" opacity="1" transform="translate(210.37854251012143,0)"><line stroke="currentColor" y2="6"></line><text fill="currentColor" y="9" dy=".15em" style="text-anchor: end;" dx="-.8em" transform="rotate(-45)">11/07</text></g><g class="tick" opacity="1" transform="translate(245.3582995951417,0)"><line stroke="currentColor" y2="6"></line><text fill="currentColor" y="9" dy=".15em" style="text-anchor: end;" dx="-.8em" transform="rotate(-45)">11/08</text></g><g class="tick" opacity="1" transform="translate(280.33805668016197,0)"><line stroke="currentColor" y2="6"></line><text fill="currentColor" y="9" dy=".15em" style="text-anchor: end;" dx="-.8em" transform="rotate(-45)">11/09</text></g><g class="tick" opacity="1" transform="translate(315.3178137651822,0)"><line stroke="currentColor" y2="6"></line><text fill="currentColor" y="9" dy=".15em" style="text-anchor: end;" dx="-.8em" transform="rotate(-45)">11/10</text></g><g class="tick" opacity="1" transform="translate(350.2975708502024,0)"><line stroke="currentColor" y2="6"></line><text fill="currentColor" y="9" dy=".15em" style="text-anchor: end;" dx="-.8em" transform="rotate(-45)">11/11</text></g><g class="tick" opacity="1" transform="translate(385.27732793522273,0)"><line stroke="currentColor" y2="6"></line><text fill="currentColor" y="9" dy=".15em" style="text-anchor: end;" dx="-.8em" transform="rotate(-45)">11/12</text></g><g class="tick" opacity="1" transform="translate(420.25708502024287,0)"><line stroke="currentColor" y2="6"></line><text fill="currentColor" y="9" dy=".15em" style="text-anchor: end;" dx="-.8em" transform="rotate(-45)">11/13</text></g><g class="tick" opacity="1" transform="translate(455.2368421052631,0)"><line stroke="currentColor" y2="6"></line><text fill="currentColor" y="9" dy=".15em" style="text-anchor: end;" dx="-.8em" transform="rotate(-45)">11/14</text></g><g class="tick" opacity="1" transform="translate(490.2165991902834,0)"><line stroke="currentColor" y2="6"></line><text fill="currentColor" y="9" dy=".15em" style="text-anchor: end;" dx="-.8em" transform="rotate(-45)">11/15</text></g><g class="tick" opacity="1" transform="translate(525.1963562753036,0)"><line stroke="currentColor" y2="6"></line><text fill="currentColor" y="9" dy=".15em" style="text-anchor: end;" dx="-.8em" transform="rotate(-45)">11/16</text></g><g class="tick" opacity="1" transform="translate(560.1761133603239,0)"><line stroke="currentColor" y2="6"></line><text fill="currentColor" y="9" dy=".15em" style="text-anchor: end;" dx="-.8em" transform="rotate(-45)">11/17</text></g><g class="tick" opacity="1" transform="translate(595.1558704453441,0)"><line stroke="currentColor" y2="6"></line><text fill="currentColor" y="9" dy=".15em" style="text-anchor: end;" dx="-.8em" transform="rotate(-45)">11/18</text></g><g class="tick" opacity="1" transform="translate(630.1356275303644,0)"><line stroke="currentColor" y2="6"></line><text fill="currentColor" y="9" dy=".15em" style="text-anchor: end;" dx="-.8em" transform="rotate(-45)">11/19</text></g><g class="tick" opacity="1" transform="translate(665.1153846153846,0)"><line stroke="currentColor" y2="6"></line><text fill="currentColor" y="9" dy=".15em" style="text-anchor: end;" dx="-.8em" transform="rotate(-45)">11/20</text></g><g class="tick" opacity="1" transform="translate(700.0951417004048,0)"><line stroke="currentColor" y2="6"></line><text fill="currentColor" y="9" dy=".15em" style="text-anchor: end;" dx="-.8em" transform="rotate(-45)">11/21</text></g></g><g fill="none" font-size="10" font-family="sans-serif" text-anchor="end"><path class="domain" stroke="currentColor" d="M-6,340.5H0.5V0.5H-6"></path><g class="tick" opacity="1" transform="translate(0,340.5)"><line stroke="currentColor" x2="-6"></line><text fill="currentColor" x="-9" dy="0.32em">1.00%</text></g><g class="tick" opacity="1" transform="translate(0,314.3461538461538)"><line stroke="currentColor" x2="-6"></line><text fill="currentColor" x="-9" dy="0.32em">1.20%</text></g><g class="tick" opacity="1" transform="translate(0,288.1923076923077)"><line stroke="currentColor" x2="-6"></line><text fill="currentColor" x="-9" dy="0.32em">1.40%</text></g><g class="tick" opacity="1" transform="translate(0,262.0384615384615)"><line stroke="currentColor" x2="-6"></line><text fill="currentColor" x="-9" dy="0.32em">1.60%</text></g><g class="tick" opacity="1" transform="translate(0,235.8846153846154)"><line stroke="currentColor" x2="-6"></line><text fill="currentColor" x="-9" dy="0.32em">1.80%</text></g><g class="tick" opacity="1" transform="translate(0,209.7307692307692)"><line stroke="currentColor" x2="-6"></line><text fill="currentColor" x="-9" dy="0.32em">2.00%</text></g><g class="tick" opacity="1" transform="translate(0,183.57692307692307)"><line stroke="currentColor" x2="-6"></line><text fill="currentColor" x="-9" dy="0.32em">2.20%</text></g><g class="tick" opacity="1" transform="translate(0,157.4230769230769)"><line stroke="currentColor" x2="-6"></line><text fill="currentColor" x="-9" dy="0.32em">2.40%</text></g><g class="tick" opacity="1" transform="translate(0,131.26923076923072)"><line stroke="currentColor" x2="-6"></line><text fill="currentColor" x="-9" dy="0.32em">2.60%</text></g><g class="tick" opacity="1" transform="translate(0,105.11538461538454)"><line stroke="currentColor" x2="-6"></line><text fill="currentColor" x="-9" dy="0.32em">2.80%</text></g><g class="tick" opacity="1" transform="translate(0,78.96153846153845)"><line stroke="currentColor" x2="-6"></line><text fill="currentColor" x="-9" dy="0.32em">3.00%</text></g><g class="tick" opacity="1" transform="translate(0,52.80769230769227)"><line stroke="currentColor" x2="-6"></line><text fill="currentColor" x="-9" dy="0.32em">3.20%</text></g><g class="tick" opacity="1" transform="translate(0,26.6538461538461)"><line stroke="currentColor" x2="-6"></line><text fill="currentColor" x="-9" dy="0.32em">3.40%</text></g><g class="tick" opacity="1" transform="translate(0,0.5)"><line stroke="currentColor" x2="-6"></line><text fill="currentColor" x="-9" dy="0.32em">3.60%</text></g></g><text transform="rotate(-90)" y="-50" x="-170" dy="1em" style="text-anchor: middle; font-size: 12px; fill: #666;">Pre Rate (%)</text><text transform="translate(360, 380)" style="text-anchor: middle; font-size: 12px; fill: #666;">Time (UTC)</text><path fill="none" stroke="#2563eb" stroke-width="2" d="M0,78.462C0.486,78.462,0.972,78.462,1.457,78.462C1.943,78.462,2.429,78.462,2.915,78.462C3.401,78.462,3.887,78.462,4.372,78.462C4.858,78.462,5.344,78.462,5.83,78.462C6.316,78.462,6.802,78.462,7.287,78.462C7.773,78.462,8.259,78.462,8.745,78.462C9.231,78.462,9.717,78.462,10.202,78.462C10.688,78.462,11.174,78.462,11.66,78.462C12.146,78.462,12.632,78.462,13.117,78.462C13.603,78.462,14.089,78.462,14.575,78.462C15.061,78.462,15.547,78.462,16.032,78.462C16.518,78.462,17.004,78.462,17.49,78.462C17.976,78.462,18.462,78.462,18.947,78.462C19.433,78.462,19.919,78.462,20.405,78.462C20.891,78.462,21.377,78.462,21.862,78.462C22.348,78.462,22.834,78.462,23.32,78.462C23.806,78.462,24.291,78.462,24.777,78.462C25.263,78.462,25.749,78.462,26.235,78.462C26.721,78.462,27.206,78.462,27.692,78.462C28.178,78.462,28.664,78.462,29.15,78.462C29.636,78.462,30.121,78.462,30.607,78.462C31.093,78.462,31.579,78.462,32.065,78.462C32.551,78.462,33.036,78.462,33.522,78.462C34.008,78.462,34.494,78.462,34.98,78.462C35.466,78.462,35.951,78.462,36.437,78.462C36.923,78.462,37.409,78.462,37.895,78.462C38.381,78.462,38.866,78.462,39.352,78.462C39.838,78.462,40.324,78.462,40.81,78.462C41.296,78.462,41.781,78.462,42.267,78.462C42.753,78.462,43.239,78.462,43.725,78.462C44.211,78.462,44.696,78.462,45.182,78.462C45.668,78.462,46.154,78.462,46.64,78.462C47.126,78.462,47.611,78.462,48.097,78.462C48.583,78.462,49.069,78.462,49.555,78.462C50.04,78.462,50.526,78.462,51.012,78.462C51.498,78.462,51.984,78.462,52.47,78.462C52.955,78.462,53.441,78.462,53.927,78.462C54.413,78.462,54.899,78.462,55.385,78.462C55.87,78.462,56.356,78.462,56.842,78.462C57.328,78.462,57.814,78.462,58.3,78.462C58.785,78.462,59.271,78.462,59.757,78.462C60.243,78.462,60.729,78.462,61.215,78.462C61.7,78.462,62.186,78.462,62.672,78.462C63.158,78.462,63.644,78.462,64.13,78.462C64.615,78.462,65.101,78.462,65.587,78.462C66.073,78.462,66.559,78.462,67.045,78.462C67.53,78.462,68.016,78.462,68.502,78.462C68.988,78.462,69.474,78.462,69.96,78.462C70.445,78.462,70.931,78.462,71.417,78.462C71.903,78.462,72.389,78.462,72.874,78.462C73.36,78.462,73.846,78.462,74.332,78.462C74.818,78.462,75.304,78.462,75.789,78.462C76.275,78.462,76.761,78.462,77.247,78.462C77.733,78.462,78.219,78.462,78.704,78.462C79.19,78.462,79.676,78.462,80.162,78.462C80.648,78.462,81.134,78.462,81.619,78.462C82.105,78.462,82.591,78.462,83.077,78.462C83.563,78.462,84.049,78.462,84.534,78.462C85.02,78.462,85.506,78.462,85.992,78.462C86.478,78.462,86.964,78.462,87.449,78.462C87.935,78.462,88.421,78.462,88.907,78.462C89.393,78.462,89.879,78.462,90.364,78.462C90.85,78.462,91.336,78.462,91.822,78.462C92.308,78.462,92.794,78.462,93.279,78.462C93.765,78.462,94.251,78.462,94.737,78.462C95.223,78.462,95.709,78.462,96.194,78.462C96.68,78.462,97.166,78.462,97.652,78.462C98.138,78.462,98.623,78.462,99.109,78.462C99.595,78.462,100.081,78.462,100.567,78.462C101.053,78.462,101.538,78.462,102.024,78.462C102.51,78.462,102.996,78.462,103.482,78.462C103.968,78.462,104.453,78.462,104.939,78.462C105.425,78.462,105.911,78.462,106.397,78.462C106.883,78.462,107.368,78.462,107.854,78.462C108.34,78.462,108.826,78.462,109.312,78.462C109.798,78.462,110.283,78.462,110.769,78.462C111.255,78.462,111.741,78.462,112.227,78.462C112.713,78.462,113.198,78.462,113.684,78.462C114.17,78.462,114.656,78.462,115.142,78.462C115.628,78.462,116.113,78.462,116.599,78.462C117.085,78.462,117.571,78.462,118.057,78.462C118.543,78.462,119.028,78.462,119.514,78.462C120,78.462,120.486,78.462,120.972,78.462C121.457,78.462,121.943,78.462,122.429,78.462C122.915,78.462,123.401,78.462,123.887,78.462C124.372,78.462,124.858,78.462,125.344,78.462C125.83,78.462,126.316,78.462,126.802,78.462C127.287,78.462,127.773,78.462,128.259,78.462C128.745,78.462,129.231,78.462,129.717,78.462C130.202,78.462,130.688,78.462,131.174,78.462C131.66,78.462,132.146,78.462,132.632,78.462C133.117,78.462,133.603,78.462,134.089,78.462C134.575,78.462,135.061,78.462,135.547,78.462C136.032,78.462,136.518,78.462,137.004,78.462C137.49,78.462,137.976,78.462,138.462,78.462C138.947,78.462,139.433,78.462,139.919,78.462C140.405,78.462,140.891,340,141.377,340C141.862,340,142.348,340,142.834,340C143.32,340,143.806,340,144.291,340C144.777,340,145.263,340,145.749,340C146.235,340,146.721,340,147.206,340C147.692,340,148.178,340,148.664,340C149.15,340,149.636,340,150.121,340C150.607,340,151.093,340,151.579,340C152.065,340,152.551,78.462,153.036,78.462C153.522,78.462,154.008,78.462,154.494,78.462C154.98,78.462,155.466,78.462,155.951,78.462C156.437,78.462,156.923,78.462,157.409,78.462C157.895,78.462,158.381,78.462,158.866,78.462C159.352,78.462,159.838,78.462,160.324,78.462C160.81,78.462,161.296,78.462,161.781,78.462C162.267,78.462,162.753,78.462,163.239,78.462C163.725,78.462,164.211,78.462,164.696,78.462C165.182,78.462,165.668,78.462,166.154,78.462C166.64,78.462,167.126,78.462,167.611,78.462C168.097,78.462,168.583,78.462,169.069,78.462C169.555,78.462,170.04,78.462,170.526,78.462C171.012,78.462,171.498,78.462,171.984,78.462C172.47,78.462,172.955,78.462,173.441,78.462C173.927,78.462,174.413,78.462,174.899,78.462C175.385,78.462,175.87,78.462,176.356,78.462C176.842,78.462,177.328,78.462,177.814,78.462C178.3,78.462,178.785,78.462,179.271,78.462C179.757,78.462,180.243,78.462,180.729,78.462C181.215,78.462,181.7,78.462,182.186,78.462C182.672,78.462,183.158,78.462,183.644,78.462C184.13,78.462,184.615,78.462,185.101,78.462C185.587,78.462,186.073,78.462,186.559,78.462C187.045,78.462,187.53,78.462,188.016,78.462C188.502,78.462,188.988,78.462,189.474,78.462C189.96,78.462,190.445,78.462,190.931,78.462C191.417,78.462,191.903,78.462,192.389,78.462C192.874,78.462,193.36,78.462,193.846,78.462C194.332,78.462,194.818,78.462,195.304,78.462C195.789,78.462,196.275,78.462,196.761,78.462C197.247,78.462,197.733,78.462,198.219,78.462C198.704,78.462,199.19,78.462,199.676,78.462C200.162,78.462,200.648,78.462,201.134,78.462C201.619,78.462,202.105,78.462,202.591,78.462C203.077,78.462,203.563,78.462,204.049,78.462C204.534,78.462,205.02,78.462,205.506,78.462C205.992,78.462,206.478,78.462,206.964,78.462C207.449,78.462,207.935,78.462,208.421,78.462C208.907,78.462,209.393,78.462,209.879,78.462C210.364,78.462,210.85,78.462,211.336,78.462C211.822,78.462,212.308,78.462,212.794,78.462C213.279,78.462,213.765,78.462,214.251,78.462C214.737,78.462,215.223,78.462,215.709,78.462C216.194,78.462,216.68,78.462,217.166,78.462C217.652,78.462,218.138,78.462,218.623,78.462C219.109,78.462,219.595,78.462,220.081,78.462C220.567,78.462,221.053,78.462,221.538,78.462C222.024,78.462,222.51,78.462,222.996,78.462C223.482,78.462,223.968,78.462,224.453,78.462C224.939,78.462,225.425,78.462,225.911,78.462C226.397,78.462,226.883,78.462,227.368,78.462C227.854,78.462,228.34,78.462,228.826,78.462C229.312,78.462,229.798,78.462,230.283,78.462C230.769,78.462,231.255,78.462,231.741,78.462C232.227,78.462,232.713,78.462,233.198,78.462C233.684,78.462,234.17,78.462,234.656,78.462C235.142,78.462,235.628,78.462,236.113,78.462C236.599,78.462,237.085,78.462,237.571,78.462C238.057,78.462,238.543,78.462,239.028,78.462C239.514,78.462,240,78.462,240.486,78.462C240.972,78.462,241.457,78.462,241.943,78.462C242.429,78.462,242.915,78.462,243.401,78.462C243.887,78.462,244.372,78.462,244.858,78.462C245.344,78.462,245.83,78.462,246.316,78.462C246.802,78.462,247.287,78.462,247.773,78.462C248.259,78.462,248.745,78.462,249.231,78.462C249.717,78.462,250.202,78.462,250.688,78.462C251.174,78.462,251.66,78.462,252.146,78.462C252.632,78.462,253.117,78.462,253.603,78.462C254.089,78.462,254.575,78.462,255.061,78.462C255.547,78.462,256.032,78.462,256.518,78.462C257.004,78.462,257.49,78.462,257.976,78.462C258.462,78.462,258.947,78.462,259.433,78.462C259.919,78.462,260.405,78.462,260.891,78.462C261.377,78.462,261.862,78.462,262.348,78.462C262.834,78.462,263.32,78.462,263.806,78.462C264.291,78.462,264.777,78.462,265.263,78.462C265.749,78.462,266.235,78.462,266.721,78.462C267.206,78.462,267.692,78.462,268.178,78.462C268.664,78.462,269.15,78.462,269.636,78.462C270.121,78.462,270.607,78.462,271.093,78.462C271.579,78.462,272.065,78.462,272.551,78.462C273.036,78.462,273.522,78.462,274.008,78.462C274.494,78.462,274.98,78.462,275.466,78.462C275.951,78.462,276.437,78.462,276.923,78.462C277.409,78.462,277.895,78.462,278.381,78.462C278.866,78.462,279.352,78.462,279.838,78.462C280.324,78.462,280.81,78.462,281.296,78.462C281.781,78.462,282.267,78.462,282.753,78.462C283.239,78.462,283.725,78.462,284.211,78.462C284.696,78.462,285.182,78.462,285.668,78.462C286.154,78.462,286.64,78.462,287.126,78.462C287.611,78.462,288.097,78.462,288.583,78.462C289.069,78.462,289.555,78.462,290.04,78.462C290.526,78.462,291.012,78.462,291.498,78.462C291.984,78.462,292.47,78.462,292.955,78.462C293.441,78.462,293.927,78.462,294.413,78.462C294.899,78.462,295.385,78.462,295.87,78.462C296.356,78.462,296.842,78.462,297.328,78.462C297.814,78.462,298.3,78.462,298.785,78.462C299.271,78.462,299.757,78.462,300.243,78.462C300.729,78.462,301.215,78.462,301.7,78.462C302.186,78.462,302.672,78.462,303.158,78.462C303.644,78.462,304.13,78.462,304.615,78.462C305.101,78.462,305.587,78.462,306.073,78.462C306.559,78.462,307.045,78.462,307.53,78.462C308.016,78.462,308.502,78.462,308.988,78.462C309.474,78.462,309.96,78.462,310.445,78.462C310.931,78.462,311.417,78.462,311.903,78.462C312.389,78.462,312.874,78.462,313.36,78.462C313.846,78.462,314.332,78.462,314.818,78.462C315.304,78.462,315.789,78.462,316.275,78.462C316.761,78.462,317.247,78.462,317.733,78.462C318.219,78.462,318.704,78.462,319.19,78.462C319.676,78.462,320.162,78.462,320.648,78.462C321.134,78.462,321.619,78.462,322.105,78.462C322.591,78.462,323.077,78.462,323.563,78.462C324.049,78.462,324.534,78.462,325.02,78.462C325.506,78.462,325.992,78.462,326.478,78.462C326.964,78.462,327.449,78.462,327.935,78.462C328.421,78.462,328.907,78.462,329.393,78.462C329.879,78.462,330.364,78.462,330.85,78.462C331.336,78.462,331.822,78.462,332.308,78.462C332.794,78.462,333.279,78.462,333.765,78.462C334.251,78.462,334.737,78.462,335.223,78.462C335.709,78.462,336.194,78.462,336.68,78.462C337.166,78.462,337.652,78.462,338.138,78.462C338.623,78.462,339.109,78.462,339.595,78.462C340.081,78.462,340.567,78.462,341.053,78.462C341.538,78.462,342.024,78.462,342.51,78.462C342.996,78.462,343.482,78.462,343.968,78.462C344.453,78.462,344.939,78.462,345.425,78.462C345.911,78.462,346.397,78.462,346.883,78.462C347.368,78.462,347.854,78.462,348.34,78.462C348.826,78.462,349.312,78.462,349.798,78.462C350.283,78.462,350.769,78.462,351.255,78.462C351.741,78.462,352.227,78.462,352.713,78.462C353.198,78.462,353.684,78.462,354.17,78.462C354.656,78.462,355.142,78.462,355.628,78.462C356.113,78.462,356.599,78.462,357.085,78.462C357.571,78.462,358.057,78.462,358.543,78.462C359.028,78.462,359.514,78.462,360,78.462C360.486,78.462,360.972,78.462,361.457,78.462C361.943,78.462,362.429,78.462,362.915,78.462C363.401,78.462,363.887,78.462,364.372,78.462C364.858,78.462,365.344,78.462,365.83,78.462C366.316,78.462,366.802,78.462,367.287,78.462C367.773,78.462,368.259,78.462,368.745,78.462C369.231,78.462,369.717,78.462,370.202,78.462C370.688,78.462,371.174,78.462,371.66,78.462C372.146,78.462,372.632,78.462,373.117,78.462C373.603,78.462,374.089,78.462,374.575,78.462C375.061,78.462,375.547,78.462,376.032,78.462C376.518,78.462,377.004,78.462,377.49,78.462C377.976,78.462,378.462,78.462,378.947,78.462C379.433,78.462,379.919,78.462,380.405,78.462C380.891,78.462,381.377,78.462,381.862,78.462C382.348,78.462,382.834,78.462,383.32,78.462C383.806,78.462,384.291,78.462,384.777,78.462C385.263,78.462,385.749,78.462,386.235,78.462C386.721,78.462,387.206,78.462,387.692,78.462C388.178,78.462,388.664,78.462,389.15,78.462C389.636,78.462,390.121,78.462,390.607,78.462C391.093,78.462,391.579,78.462,392.065,78.462C392.551,78.462,393.036,78.462,393.522,78.462C394.008,78.462,394.494,78.462,394.98,78.462C395.466,78.462,395.951,78.462,396.437,78.462C396.923,78.462,397.409,78.462,397.895,78.462C398.381,78.462,398.866,78.462,399.352,78.462C399.838,78.462,400.324,78.462,400.81,78.462C401.296,78.462,401.781,78.462,402.267,78.462C402.753,78.462,403.239,78.462,403.725,78.462C404.211,78.462,404.696,78.462,405.182,78.462C405.668,78.462,406.154,78.462,406.64,78.462C407.126,78.462,407.611,78.462,408.097,78.462C408.583,78.462,409.069,78.462,409.555,78.462C410.04,78.462,410.526,78.462,411.012,78.462C411.498,78.462,411.984,78.462,412.47,78.462C412.955,78.462,413.441,78.462,413.927,78.462C414.413,78.462,414.899,78.462,415.385,78.462C415.87,78.462,416.356,78.462,416.842,78.462C417.328,78.462,417.814,78.462,418.3,78.462C418.785,78.462,419.271,78.462,419.757,78.462C420.243,78.462,420.729,78.462,421.215,78.462C421.7,78.462,422.186,78.462,422.672,78.462C423.158,78.462,423.644,78.462,424.13,78.462C424.615,78.462,425.101,78.462,425.587,78.462C426.073,78.462,426.559,78.462,427.045,78.462C427.53,78.462,428.016,78.462,428.502,78.462C428.988,78.462,429.474,78.462,429.96,78.462C430.445,78.462,430.931,78.462,431.417,78.462C431.903,78.462,432.389,78.462,432.874,78.462C433.36,78.462,433.846,78.462,434.332,78.462C434.818,78.462,435.304,78.462,435.789,78.462C436.275,78.462,436.761,78.462,437.247,78.462C437.733,78.462,438.219,78.462,438.704,78.462C439.19,78.462,439.676,78.462,440.162,78.462C440.648,78.462,441.134,78.462,441.619,78.462C442.105,78.462,442.591,78.462,443.077,78.462C443.563,78.462,444.049,78.462,444.534,78.462C445.02,78.462,445.506,78.462,445.992,78.462C446.478,78.462,446.964,78.462,447.449,78.462C447.935,78.462,448.421,78.462,448.907,78.462C449.393,78.462,449.879,78.462,450.364,78.462C450.85,78.462,451.336,78.462,451.822,78.462C452.308,78.462,452.794,78.462,453.279,78.462C453.765,78.462,454.251,78.462,454.737,78.462C455.223,78.462,455.709,78.462,456.194,78.462C456.68,78.462,457.166,78.462,457.652,78.462C458.138,78.462,458.623,78.462,459.109,78.462C459.595,78.462,460.081,78.462,460.567,78.462C461.053,78.462,461.538,78.462,462.024,78.462C462.51,78.462,462.996,78.462,463.482,78.462C463.968,78.462,464.453,78.462,464.939,78.462C465.425,78.462,465.911,78.462,466.397,78.462C466.883,78.462,467.368,78.462,467.854,78.462C468.34,78.462,468.826,78.462,469.312,78.462C469.798,78.462,470.283,78.462,470.769,78.462C471.255,78.462,471.741,78.462,472.227,78.462C472.713,78.462,473.198,78.462,473.684,78.462C474.17,78.462,474.656,78.462,475.142,78.462C475.628,78.462,476.113,78.462,476.599,78.462C477.085,78.462,477.571,78.462,478.057,78.462C478.543,78.462,479.028,78.462,479.514,78.462C480,78.462,480.486,78.462,480.972,78.462C481.457,78.462,481.943,78.462,482.429,78.462C482.915,78.462,483.401,78.462,483.887,78.462C484.372,78.462,484.858,78.462,485.344,78.462C485.83,78.462,486.316,78.462,486.802,78.462C487.287,78.462,487.773,78.462,488.259,78.462C488.745,78.462,489.231,78.462,489.717,78.462C490.202,78.462,490.688,78.462,491.174,78.462C491.66,78.462,492.146,78.462,492.632,78.462C493.117,78.462,493.603,78.462,494.089,78.462C494.575,78.462,495.061,78.462,495.547,78.462C496.032,78.462,496.518,78.462,497.004,78.462C497.49,78.462,497.976,78.462,498.462,78.462C498.947,78.462,499.433,78.462,499.919,78.462C500.405,78.462,500.891,78.462,501.377,78.462C501.862,78.462,502.348,78.462,502.834,78.462C503.32,78.462,503.806,78.462,504.291,78.462C504.777,78.462,505.263,78.462,505.749,78.462C506.235,78.462,506.721,78.462,507.206,78.462C507.692,78.462,508.178,78.462,508.664,78.462C509.15,78.462,509.636,78.462,510.121,78.462C510.607,78.462,511.093,78.462,511.579,78.462C512.065,78.462,512.551,78.462,513.036,78.462C513.522,78.462,514.008,78.462,514.494,78.462C514.98,78.462,515.466,78.462,515.951,78.462C516.437,78.462,516.923,78.462,517.409,78.462C517.895,78.462,518.381,78.462,518.866,78.462C519.352,78.462,519.838,78.462,520.324,78.462C520.81,78.462,521.296,78.462,521.781,78.462C522.267,78.462,522.753,78.462,523.239,78.462C523.725,78.462,524.211,78.462,524.696,78.462C525.182,78.462,525.668,78.462,526.154,78.462C526.64,78.462,527.126,78.462,527.611,78.462C528.097,78.462,528.583,78.462,529.069,78.462C529.555,78.462,530.04,78.462,530.526,78.462C531.012,78.462,531.498,78.462,531.984,78.462C532.47,78.462,532.955,78.462,533.441,78.462C533.927,78.462,534.413,78.462,534.899,78.462C535.385,78.462,535.87,78.462,536.356,78.462C536.842,78.462,537.328,78.462,537.814,78.462C538.3,78.462,538.785,78.462,539.271,78.462C539.757,78.462,540.243,78.462,540.729,78.462C541.215,78.462,541.7,78.462,542.186,78.462C542.672,78.462,543.158,78.462,543.644,78.462C544.13,78.462,544.615,78.462,545.101,78.462C545.587,78.462,546.073,78.462,546.559,78.462C547.045,78.462,547.53,78.462,548.016,78.462C548.502,78.462,548.988,78.462,549.474,78.462C549.96,78.462,550.445,78.462,550.931,78.462C551.417,78.462,551.903,78.462,552.389,78.462C552.874,78.462,553.36,78.462,553.846,78.462C554.332,78.462,554.818,78.462,555.304,78.462C555.789,78.462,556.275,78.462,556.761,78.462C557.247,78.462,557.733,78.462,558.219,78.462C558.704,78.462,559.19,78.462,559.676,78.462C560.162,78.462,560.648,78.462,561.134,78.462C561.619,78.462,562.105,78.462,562.591,78.462C563.077,78.462,563.563,78.462,564.049,78.462C564.534,78.462,565.02,78.462,565.506,78.462C565.992,78.462,566.478,78.462,566.964,78.462C567.449,78.462,567.935,78.462,568.421,78.462C568.907,78.462,569.393,78.462,569.879,78.462C570.364,78.462,570.85,78.462,571.336,78.462C571.822,78.462,572.308,78.462,572.794,78.462C573.279,78.462,573.765,78.462,574.251,78.462C574.737,78.462,575.223,78.462,575.709,78.462C576.194,78.462,576.68,78.462,577.166,78.462C577.652,78.462,578.138,78.462,578.623,78.462C579.109,78.462,579.595,78.462,580.081,78.462C580.567,78.462,581.053,78.462,581.538,78.462C582.024,78.462,582.51,78.462,582.996,78.462C583.482,78.462,583.968,78.462,584.453,78.462C584.939,78.462,585.425,78.462,585.911,78.462C586.397,78.462,586.883,78.462,587.368,78.462C587.854,78.462,588.34,78.462,588.826,78.462C589.312,78.462,589.798,78.462,590.283,78.462C590.769,78.462,591.255,78.462,591.741,78.462C592.227,78.462,592.713,78.462,593.198,78.462C593.684,78.462,594.17,78.462,594.656,78.462C595.142,78.462,595.628,78.462,596.113,78.462C596.599,78.462,597.085,13.077,597.571,13.077C598.057,13.077,598.543,13.077,599.028,13.077C599.514,13.077,600,13.077,600.486,13.077C600.972,13.077,601.457,13.077,601.943,13.077C602.429,13.077,602.915,13.077,603.401,13.077C603.887,13.077,604.372,13.077,604.858,13.077C605.344,13.077,605.83,13.077,606.316,13.077C606.802,13.077,607.287,13.077,607.773,13.077C608.259,13.077,608.745,13.077,609.231,13.077C609.717,13.077,610.202,13.077,610.688,13.077C611.174,13.077,611.66,13.077,612.146,13.077C612.632,13.077,613.117,13.077,613.603,13.077C614.089,13.077,614.575,13.077,615.061,13.077C615.547,13.077,616.032,13.077,616.518,13.077C617.004,13.077,617.49,13.077,617.976,13.077C618.462,13.077,618.947,13.077,619.433,13.077C619.919,13.077,620.405,13.077,620.891,13.077C621.377,13.077,621.862,13.077,622.348,13.077C622.834,13.077,623.32,13.077,623.806,13.077C624.291,13.077,624.777,13.077,625.263,13.077C625.749,13.077,626.235,13.077,626.721,13.077C627.206,13.077,627.692,13.077,628.178,13.077C628.664,13.077,629.15,13.077,629.636,13.077C630.121,13.077,630.607,13.077,631.093,13.077C631.579,13.077,632.065,13.077,632.551,13.077C633.036,13.077,633.522,13.077,634.008,13.077C634.494,13.077,634.98,13.077,635.466,13.077C635.951,13.077,636.437,13.077,636.923,13.077C637.409,13.077,637.895,13.077,638.381,13.077C638.866,13.077,639.352,13.077,639.838,13.077C640.324,13.077,640.81,13.077,641.296,13.077C641.781,13.077,642.267,13.077,642.753,13.077C643.239,13.077,643.725,13.077,644.211,13.077C644.696,13.077,645.182,13.077,645.668,13.077C646.154,13.077,646.64,13.077,647.126,13.077C647.611,13.077,648.097,13.077,648.583,13.077C649.069,13.077,649.555,13.077,650.04,13.077C650.526,13.077,651.012,13.077,651.498,13.077C651.984,13.077,652.47,13.077,652.955,13.077C653.441,13.077,653.927,13.077,654.413,13.077C654.899,13.077,655.385,13.077,655.87,13.077C656.356,13.077,656.842,13.077,657.328,13.077C657.814,13.077,658.3,13.077,658.785,13.077C659.271,13.077,659.757,13.077,660.243,13.077C660.729,13.077,661.215,13.077,661.7,13.077C662.186,13.077,662.672,13.077,663.158,13.077C663.644,13.077,664.13,13.077,664.615,13.077C665.101,13.077,665.587,13.077,666.073,13.077C666.559,13.077,667.045,13.077,667.53,13.077C668.016,13.077,668.502,13.077,668.988,13.077C669.474,13.077,669.96,13.077,670.445,13.077C670.931,13.077,671.417,13.077,671.903,13.077C672.389,13.077,672.874,13.077,673.36,13.077C673.846,13.077,674.332,13.077,674.818,13.077C675.304,13.077,675.789,13.077,676.275,13.077C676.761,13.077,677.247,13.077,677.733,13.077C678.219,13.077,678.704,13.077,679.19,13.077C679.676,13.077,680.162,13.077,680.648,13.077C681.134,13.077,681.619,13.077,682.105,13.077C682.591,13.077,683.077,13.077,683.563,13.077C684.049,13.077,684.534,13.077,685.02,13.077C685.506,13.077,685.992,13.077,686.478,13.077C686.964,13.077,687.449,13.077,687.935,13.077C688.421,13.077,688.907,13.077,689.393,13.077C689.879,13.077,690.364,13.077,690.85,13.077C691.336,13.077,691.822,13.077,692.308,13.077C692.794,13.077,693.279,13.077,693.765,13.077C694.251,13.077,694.737,13.077,695.223,13.077C695.709,13.077,696.194,13.077,696.68,13.077C697.166,13.077,697.652,13.077,698.138,13.077C698.623,13.077,699.109,13.077,699.595,13.077C700.081,13.077,700.567,13.077,701.053,13.077C701.538,13.077,702.024,13.077,702.51,13.077C702.996,13.077,703.482,13.077,703.968,13.077C704.453,13.077,704.939,13.077,705.425,13.077C705.911,13.077,706.397,13.077,706.883,13.077C707.368,13.077,707.854,13.077,708.34,13.077C708.826,13.077,709.312,13.077,709.798,13.077C710.283,13.077,710.769,13.077,711.255,13.077C711.741,13.077,712.227,13.077,712.713,13.077C713.198,13.077,713.684,13.077,714.17,13.077C714.656,13.077,715.142,13.077,715.628,13.077C716.113,13.077,716.599,13.077,717.085,13.077C717.571,13.077,718.057,13.077,718.543,13.077C719.028,13.077,719.514,13.077,720,13.077"></path><circle class="dot" cx="0" cy="78.46153846153845" r="3" fill="#2563eb"></circle><circle class="dot" cx="1.45748987854251" cy="78.46153846153845" r="3" fill="#2563eb"></circle><circle class="dot" cx="2.91497975708502" cy="78.46153846153845" r="3" fill="#2563eb"></circle><circle class="dot" cx="4.372469635627531" cy="78.46153846153845" r="3" fill="#2563eb"></circle><circle class="dot" cx="5.82995951417004" cy="78.46153846153845" r="3" fill="#2563eb"></circle><circle class="dot" cx="7.287449392712551" cy="78.46153846153845" r="3" fill="#2563eb"></circle><circle class="dot" cx="8.744939271255062" cy="78.46153846153845" r="3" fill="#2563eb"></circle><circle class="dot" cx="10.20242914979757" cy="78.46153846153845" r="3" fill="#2563eb"></circle><circle class="dot" cx="11.65991902834008" cy="78.46153846153845" r="3" fill="#2563eb"></circle><circle class="dot" cx="13.11740890688259" cy="78.46153846153845" r="3" fill="#2563eb"></circle><circle class="dot" cx="14.574898785425102" cy="78.46153846153845" r="3" fill="#2563eb"></circle><circle class="dot" cx="16.03238866396761" cy="78.46153846153845" r="3" fill="#2563eb"></circle><circle class="dot" cx="17.489878542510123" cy="78.46153846153845" r="3" fill="#2563eb"></circle><circle class="dot" cx="18.94736842105263" cy="78.46153846153845" r="3" fill="#2563eb"></circle><circle class="dot" cx="20.40485829959514" cy="78.46153846153845" r="3" fill="#2563eb"></circle><circle class="dot" cx="21.86234817813765" cy="78.46153846153845" r="3" fill="#2563eb"></circle><circle class="dot" cx="23.31983805668016" cy="78.46153846153845" r="3" fill="#2563eb"></circle><circle class="dot" cx="24.777327935222672" cy="78.46153846153845" r="3" fill="#2563eb"></circle><circle class="dot" cx="26.23481781376518" cy="78.46153846153845" r="3" fill="#2563eb"></circle><circle class="dot" cx="27.692307692307693" cy="78.46153846153845" r="3" fill="#2563eb"></circle><circle class="dot" cx="29.149797570850204" cy="78.46153846153845" r="3" fill="#2563eb"></circle><circle class="dot" cx="30.60728744939271" cy="78.46153846153845" r="3" fill="#2563eb"></circle><circle class="dot" cx="32.06477732793522" cy="78.46153846153845" r="3" fill="#2563eb"></circle><circle class="dot" cx="33.522267206477736" cy="78.46153846153845" r="3" fill="#2563eb"></circle><circle class="dot" cx="34.979757085020246" cy="78.46153846153845" r="3" fill="#2563eb"></circle><circle class="dot" cx="36.43724696356275" cy="78.46153846153845" r="3" fill="#2563eb"></circle><circle class="dot" cx="37.89473684210526" cy="78.46153846153845" r="3" fill="#2563eb"></circle><circle class="dot" cx="39.35222672064778" cy="78.46153846153845" r="3" fill="#2563eb"></circle><circle class="dot" cx="40.80971659919028" cy="78.46153846153845" r="3" fill="#2563eb"></circle><circle class="dot" cx="42.26720647773279" cy="78.46153846153845" r="3" fill="#2563eb"></circle><circle class="dot" cx="43.7246963562753" cy="78.46153846153845" r="3" fill="#2563eb"></circle><circle class="dot" cx="45.18218623481781" cy="78.46153846153845" r="3" fill="#2563eb"></circle><circle class="dot" cx="46.63967611336032" cy="78.46153846153845" r="3" fill="#2563eb"></circle><circle class="dot" cx="48.09716599190284" cy="78.46153846153845" r="3" fill="#2563eb"></circle><circle class="dot" cx="49.554655870445345" cy="78.46153846153845" r="3" fill="#2563eb"></circle><circle class="dot" cx="51.012145748987855" cy="78.46153846153845" r="3" fill="#2563eb"></circle><circle class="dot" cx="52.46963562753036" cy="78.46153846153845" r="3" fill="#2563eb"></circle><circle class="dot" cx="53.927125506072876" cy="78.46153846153845" r="3" fill="#2563eb"></circle><circle class="dot" cx="55.38461538461539" cy="78.46153846153845" r="3" fill="#2563eb"></circle><circle class="dot" cx="56.84210526315789" cy="78.46153846153845" r="3" fill="#2563eb"></circle><circle class="dot" cx="58.29959514170041" cy="78.46153846153845" r="3" fill="#2563eb"></circle><circle class="dot" cx="59.75708502024292" cy="78.46153846153845" r="3" fill="#2563eb"></circle><circle class="dot" cx="61.21457489878542" cy="78.46153846153845" r="3" fill="#2563eb"></circle><circle class="dot" cx="62.67206477732794" cy="78.46153846153845" r="3" fill="#2563eb"></circle><circle class="dot" cx="64.12955465587044" cy="78.46153846153845" r="3" fill="#2563eb"></circle><circle class="dot" cx="65.58704453441295" cy="78.46153846153845" r="3" fill="#2563eb"></circle><circle class="dot" cx="67.04453441295547" cy="78.46153846153845" r="3" fill="#2563eb"></circle><circle class="dot" cx="68.50202429149797" cy="78.46153846153845" r="3" fill="#2563eb"></circle><circle class="dot" cx="69.95951417004049" cy="78.46153846153845" r="3" fill="#2563eb"></circle><circle class="dot" cx="71.417004048583" cy="78.46153846153845" r="3" fill="#2563eb"></circle><circle class="dot" cx="72.8744939271255" cy="78.46153846153845" r="3" fill="#2563eb"></circle><circle class="dot" cx="74.33198380566802" cy="78.46153846153845" r="3" fill="#2563eb"></circle><circle class="dot" cx="75.78947368421052" cy="78.46153846153845" r="3" fill="#2563eb"></circle><circle class="dot" cx="77.24696356275304" cy="78.46153846153845" r="3" fill="#2563eb"></circle><circle class="dot" cx="78.70445344129556" cy="78.46153846153845" r="3" fill="#2563eb"></circle><circle class="dot" cx="80.16194331983806" cy="78.46153846153845" r="3" fill="#2563eb"></circle><circle class="dot" cx="81.61943319838056" cy="78.46153846153845" r="3" fill="#2563eb"></circle><circle class="dot" cx="83.07692307692308" cy="78.46153846153845" r="3" fill="#2563eb"></circle><circle class="dot" cx="84.53441295546558" cy="78.46153846153845" r="3" fill="#2563eb"></circle><circle class="dot" cx="85.9919028340081" cy="78.46153846153845" r="3" fill="#2563eb"></circle><circle class="dot" cx="87.4493927125506" cy="78.46153846153845" r="3" fill="#2563eb"></circle><circle class="dot" cx="88.90688259109312" cy="78.46153846153845" r="3" fill="#2563eb"></circle><circle class="dot" cx="90.36437246963563" cy="78.46153846153845" r="3" fill="#2563eb"></circle><circle class="dot" cx="91.82186234817814" cy="78.46153846153845" r="3" fill="#2563eb"></circle><circle class="dot" cx="93.27935222672065" cy="78.46153846153845" r="3" fill="#2563eb"></circle><circle class="dot" cx="94.73684210526315" cy="78.46153846153845" r="3" fill="#2563eb"></circle><circle class="dot" cx="96.19433198380568" cy="78.46153846153845" r="3" fill="#2563eb"></circle><circle class="dot" cx="97.65182186234819" cy="78.46153846153845" r="3" fill="#2563eb"></circle><circle class="dot" cx="99.10931174089069" cy="78.46153846153845" r="3" fill="#2563eb"></circle><circle class="dot" cx="100.5668016194332" cy="78.46153846153845" r="3" fill="#2563eb"></circle><circle class="dot" cx="102.02429149797571" cy="78.46153846153845" r="3" fill="#2563eb"></circle><circle class="dot" cx="103.48178137651821" cy="78.46153846153845" r="3" fill="#2563eb"></circle><circle class="dot" cx="104.93927125506072" cy="78.46153846153845" r="3" fill="#2563eb"></circle><circle class="dot" cx="106.39676113360325" cy="78.46153846153845" r="3" fill="#2563eb"></circle><circle class="dot" cx="107.85425101214575" cy="78.46153846153845" r="3" fill="#2563eb"></circle><circle class="dot" cx="109.31174089068826" cy="78.46153846153845" r="3" fill="#2563eb"></circle><circle class="dot" cx="110.76923076923077" cy="78.46153846153845" r="3" fill="#2563eb"></circle><circle class="dot" cx="112.22672064777328" cy="78.46153846153845" r="3" fill="#2563eb"></circle><circle class="dot" cx="113.68421052631578" cy="78.46153846153845" r="3" fill="#2563eb"></circle><circle class="dot" cx="115.14170040485831" cy="78.46153846153845" r="3" fill="#2563eb"></circle><circle class="dot" cx="116.59919028340082" cy="78.46153846153845" r="3" fill="#2563eb"></circle><circle class="dot" cx="118.05668016194332" cy="78.46153846153845" r="3" fill="#2563eb"></circle><circle class="dot" cx="119.51417004048584" cy="78.46153846153845" r="3" fill="#2563eb"></circle><circle class="dot" cx="120.97165991902834" cy="78.46153846153845" r="3" fill="#2563eb"></circle><circle class="dot" cx="122.42914979757084" cy="78.46153846153845" r="3" fill="#2563eb"></circle><circle class="dot" cx="123.88663967611335" cy="78.46153846153845" r="3" fill="#2563eb"></circle><circle class="dot" cx="125.34412955465588" cy="78.46153846153845" r="3" fill="#2563eb"></circle><circle class="dot" cx="126.80161943319838" cy="78.46153846153845" r="3" fill="#2563eb"></circle><circle class="dot" cx="128.25910931174087" cy="78.46153846153845" r="3" fill="#2563eb"></circle><circle class="dot" cx="129.7165991902834" cy="78.46153846153845" r="3" fill="#2563eb"></circle><circle class="dot" cx="131.1740890688259" cy="78.46153846153845" r="3" fill="#2563eb"></circle><circle class="dot" cx="132.6315789473684" cy="78.46153846153845" r="3" fill="#2563eb"></circle><circle class="dot" cx="134.08906882591094" cy="78.46153846153845" r="3" fill="#2563eb"></circle><circle class="dot" cx="135.54655870445345" cy="78.46153846153845" r="3" fill="#2563eb"></circle><circle class="dot" cx="137.00404858299595" cy="78.46153846153845" r="3" fill="#2563eb"></circle><circle class="dot" cx="138.46153846153848" cy="78.46153846153845" r="3" fill="#2563eb"></circle><circle class="dot" cx="139.91902834008098" cy="78.46153846153845" r="3" fill="#2563eb"></circle><circle class="dot" cx="141.3765182186235" cy="340" r="3" fill="#2563eb"></circle><circle class="dot" cx="142.834008097166" cy="340" r="3" fill="#2563eb"></circle><circle class="dot" cx="144.2914979757085" cy="340" r="3" fill="#2563eb"></circle><circle class="dot" cx="145.748987854251" cy="340" r="3" fill="#2563eb"></circle><circle class="dot" cx="147.2064777327935" cy="340" r="3" fill="#2563eb"></circle><circle class="dot" cx="148.66396761133603" cy="340" r="3" fill="#2563eb"></circle><circle class="dot" cx="150.12145748987854" cy="340" r="3" fill="#2563eb"></circle><circle class="dot" cx="151.57894736842104" cy="340" r="3" fill="#2563eb"></circle><circle class="dot" cx="153.03643724696357" cy="78.46153846153845" r="3" fill="#2563eb"></circle><circle class="dot" cx="154.49392712550608" cy="78.46153846153845" r="3" fill="#2563eb"></circle><circle class="dot" cx="155.95141700404858" cy="78.46153846153845" r="3" fill="#2563eb"></circle><circle class="dot" cx="157.4089068825911" cy="78.46153846153845" r="3" fill="#2563eb"></circle><circle class="dot" cx="158.86639676113361" cy="78.46153846153845" r="3" fill="#2563eb"></circle><circle class="dot" cx="160.32388663967612" cy="78.46153846153845" r="3" fill="#2563eb"></circle><circle class="dot" cx="161.78137651821862" cy="78.46153846153845" r="3" fill="#2563eb"></circle><circle class="dot" cx="163.23886639676113" cy="78.46153846153845" r="3" fill="#2563eb"></circle><circle class="dot" cx="164.69635627530363" cy="78.46153846153845" r="3" fill="#2563eb"></circle><circle class="dot" cx="166.15384615384616" cy="78.46153846153845" r="3" fill="#2563eb"></circle><circle class="dot" cx="167.61133603238866" cy="78.46153846153845" r="3" fill="#2563eb"></circle><circle class="dot" cx="169.06882591093117" cy="78.46153846153845" r="3" fill="#2563eb"></circle><circle class="dot" cx="170.52631578947367" cy="78.46153846153845" r="3" fill="#2563eb"></circle><circle class="dot" cx="171.9838056680162" cy="78.46153846153845" r="3" fill="#2563eb"></circle><circle class="dot" cx="173.4412955465587" cy="78.46153846153845" r="3" fill="#2563eb"></circle><circle class="dot" cx="174.8987854251012" cy="78.46153846153845" r="3" fill="#2563eb"></circle><circle class="dot" cx="176.35627530364374" cy="78.46153846153845" r="3" fill="#2563eb"></circle><circle class="dot" cx="177.81376518218624" cy="78.46153846153845" r="3" fill="#2563eb"></circle><circle class="dot" cx="179.27125506072875" cy="78.46153846153845" r="3" fill="#2563eb"></circle><circle class="dot" cx="180.72874493927125" cy="78.46153846153845" r="3" fill="#2563eb"></circle><circle class="dot" cx="182.18623481781376" cy="78.46153846153845" r="3" fill="#2563eb"></circle><circle class="dot" cx="183.6437246963563" cy="78.46153846153845" r="3" fill="#2563eb"></circle><circle class="dot" cx="185.10121457489876" cy="78.46153846153845" r="3" fill="#2563eb"></circle><circle class="dot" cx="186.5587044534413" cy="78.46153846153845" r="3" fill="#2563eb"></circle><circle class="dot" cx="188.01619433198383" cy="78.46153846153845" r="3" fill="#2563eb"></circle><circle class="dot" cx="189.4736842105263" cy="78.46153846153845" r="3" fill="#2563eb"></circle><circle class="dot" cx="190.93117408906883" cy="78.46153846153845" r="3" fill="#2563eb"></circle><circle class="dot" cx="192.38866396761136" cy="78.46153846153845" r="3" fill="#2563eb"></circle><circle class="dot" cx="193.84615384615384" cy="78.46153846153845" r="3" fill="#2563eb"></circle><circle class="dot" cx="195.30364372469637" cy="78.46153846153845" r="3" fill="#2563eb"></circle><circle class="dot" cx="196.76113360323887" cy="78.46153846153845" r="3" fill="#2563eb"></circle><circle class="dot" cx="198.21862348178138" cy="78.46153846153845" r="3" fill="#2563eb"></circle><circle class="dot" cx="199.67611336032388" cy="78.46153846153845" r="3" fill="#2563eb"></circle><circle class="dot" cx="201.1336032388664" cy="78.46153846153845" r="3" fill="#2563eb"></circle><circle class="dot" cx="202.5910931174089" cy="78.46153846153845" r="3" fill="#2563eb"></circle><circle class="dot" cx="204.04858299595142" cy="78.46153846153845" r="3" fill="#2563eb"></circle><circle class="dot" cx="205.5060728744939" cy="78.46153846153845" r="3" fill="#2563eb"></circle><circle class="dot" cx="206.96356275303643" cy="78.46153846153845" r="3" fill="#2563eb"></circle><circle class="dot" cx="208.42105263157896" cy="78.46153846153845" r="3" fill="#2563eb"></circle><circle class="dot" cx="209.87854251012143" cy="78.46153846153845" r="3" fill="#2563eb"></circle><circle class="dot" cx="211.33603238866397" cy="78.46153846153845" r="3" fill="#2563eb"></circle><circle class="dot" cx="212.7935222672065" cy="78.46153846153845" r="3" fill="#2563eb"></circle><circle class="dot" cx="214.25101214574897" cy="78.46153846153845" r="3" fill="#2563eb"></circle><circle class="dot" cx="215.7085020242915" cy="78.46153846153845" r="3" fill="#2563eb"></circle><circle class="dot" cx="217.165991902834" cy="78.46153846153845" r="3" fill="#2563eb"></circle><circle class="dot" cx="218.6234817813765" cy="78.46153846153845" r="3" fill="#2563eb"></circle><circle class="dot" cx="220.08097165991902" cy="78.46153846153845" r="3" fill="#2563eb"></circle><circle class="dot" cx="221.53846153846155" cy="78.46153846153845" r="3" fill="#2563eb"></circle><circle class="dot" cx="222.99595141700402" cy="78.46153846153845" r="3" fill="#2563eb"></circle><circle class="dot" cx="224.45344129554655" cy="78.46153846153845" r="3" fill="#2563eb"></circle><circle class="dot" cx="225.9109311740891" cy="78.46153846153845" r="3" fill="#2563eb"></circle><circle class="dot" cx="227.36842105263156" cy="78.46153846153845" r="3" fill="#2563eb"></circle><circle class="dot" cx="228.8259109311741" cy="78.46153846153845" r="3" fill="#2563eb"></circle><circle class="dot" cx="230.28340080971662" cy="78.46153846153845" r="3" fill="#2563eb"></circle><circle class="dot" cx="231.7408906882591" cy="78.46153846153845" r="3" fill="#2563eb"></circle><circle class="dot" cx="233.19838056680163" cy="78.46153846153845" r="3" fill="#2563eb"></circle><circle class="dot" cx="234.65587044534414" cy="78.46153846153845" r="3" fill="#2563eb"></circle><circle class="dot" cx="236.11336032388664" cy="78.46153846153845" r="3" fill="#2563eb"></circle><circle class="dot" cx="237.57085020242914" cy="78.46153846153845" r="3" fill="#2563eb"></circle><circle class="dot" cx="239.02834008097167" cy="78.46153846153845" r="3" fill="#2563eb"></circle><circle class="dot" cx="240.48582995951415" cy="78.46153846153845" r="3" fill="#2563eb"></circle><circle class="dot" cx="241.94331983805668" cy="78.46153846153845" r="3" fill="#2563eb"></circle><circle class="dot" cx="243.4008097165992" cy="78.46153846153845" r="3" fill="#2563eb"></circle><circle class="dot" cx="244.8582995951417" cy="78.46153846153845" r="3" fill="#2563eb"></circle><circle class="dot" cx="246.31578947368422" cy="78.46153846153845" r="3" fill="#2563eb"></circle><circle class="dot" cx="247.7732793522267" cy="78.46153846153845" r="3" fill="#2563eb"></circle><circle class="dot" cx="249.23076923076923" cy="78.46153846153845" r="3" fill="#2563eb"></circle><circle class="dot" cx="250.68825910931176" cy="78.46153846153845" r="3" fill="#2563eb"></circle><circle class="dot" cx="252.14574898785423" cy="78.46153846153845" r="3" fill="#2563eb"></circle><circle class="dot" cx="253.60323886639677" cy="78.46153846153845" r="3" fill="#2563eb"></circle><circle class="dot" cx="255.06072874493927" cy="78.46153846153845" r="3" fill="#2563eb"></circle><circle class="dot" cx="256.51821862348174" cy="78.46153846153845" r="3" fill="#2563eb"></circle><circle class="dot" cx="257.9757085020243" cy="78.46153846153845" r="3" fill="#2563eb"></circle><circle class="dot" cx="259.4331983805668" cy="78.46153846153845" r="3" fill="#2563eb"></circle><circle class="dot" cx="260.8906882591093" cy="78.46153846153845" r="3" fill="#2563eb"></circle><circle class="dot" cx="262.3481781376518" cy="78.46153846153845" r="3" fill="#2563eb"></circle><circle class="dot" cx="263.8056680161943" cy="78.46153846153845" r="3" fill="#2563eb"></circle><circle class="dot" cx="265.2631578947368" cy="78.46153846153845" r="3" fill="#2563eb"></circle><circle class="dot" cx="266.7206477732793" cy="78.46153846153845" r="3" fill="#2563eb"></circle><circle class="dot" cx="268.1781376518219" cy="78.46153846153845" r="3" fill="#2563eb"></circle><circle class="dot" cx="269.63562753036433" cy="78.46153846153845" r="3" fill="#2563eb"></circle><circle class="dot" cx="271.0931174089069" cy="78.46153846153845" r="3" fill="#2563eb"></circle><circle class="dot" cx="272.5506072874494" cy="78.46153846153845" r="3" fill="#2563eb"></circle><circle class="dot" cx="274.0080971659919" cy="78.46153846153845" r="3" fill="#2563eb"></circle><circle class="dot" cx="275.4655870445344" cy="78.46153846153845" r="3" fill="#2563eb"></circle><circle class="dot" cx="276.92307692307696" cy="78.46153846153845" r="3" fill="#2563eb"></circle><circle class="dot" cx="278.3805668016194" cy="78.46153846153845" r="3" fill="#2563eb"></circle><circle class="dot" cx="279.83805668016197" cy="78.46153846153845" r="3" fill="#2563eb"></circle><circle class="dot" cx="281.2955465587045" cy="78.46153846153845" r="3" fill="#2563eb"></circle><circle class="dot" cx="282.753036437247" cy="78.46153846153845" r="3" fill="#2563eb"></circle><circle class="dot" cx="284.2105263157895" cy="78.46153846153845" r="3" fill="#2563eb"></circle><circle class="dot" cx="285.668016194332" cy="78.46153846153845" r="3" fill="#2563eb"></circle><circle class="dot" cx="287.1255060728745" cy="78.46153846153845" r="3" fill="#2563eb"></circle><circle class="dot" cx="288.582995951417" cy="78.46153846153845" r="3" fill="#2563eb"></circle><circle class="dot" cx="290.04048582995955" cy="78.46153846153845" r="3" fill="#2563eb"></circle><circle class="dot" cx="291.497975708502" cy="78.46153846153845" r="3" fill="#2563eb"></circle><circle class="dot" cx="292.95546558704456" cy="78.46153846153845" r="3" fill="#2563eb"></circle><circle class="dot" cx="294.412955465587" cy="78.46153846153845" r="3" fill="#2563eb"></circle><circle class="dot" cx="295.87044534412956" cy="78.46153846153845" r="3" fill="#2563eb"></circle><circle class="dot" cx="297.32793522267207" cy="78.46153846153845" r="3" fill="#2563eb"></circle><circle class="dot" cx="298.78542510121457" cy="78.46153846153845" r="3" fill="#2563eb"></circle><circle class="dot" cx="300.2429149797571" cy="78.46153846153845" r="3" fill="#2563eb"></circle><circle class="dot" cx="301.7004048582996" cy="78.46153846153845" r="3" fill="#2563eb"></circle><circle class="dot" cx="303.1578947368421" cy="78.46153846153845" r="3" fill="#2563eb"></circle><circle class="dot" cx="304.6153846153846" cy="78.46153846153845" r="3" fill="#2563eb"></circle><circle class="dot" cx="306.07287449392715" cy="78.46153846153845" r="3" fill="#2563eb"></circle><circle class="dot" cx="307.53036437246965" cy="78.46153846153845" r="3" fill="#2563eb"></circle><circle class="dot" cx="308.98785425101215" cy="78.46153846153845" r="3" fill="#2563eb"></circle><circle class="dot" cx="310.44534412955466" cy="78.46153846153845" r="3" fill="#2563eb"></circle><circle class="dot" cx="311.90283400809716" cy="78.46153846153845" r="3" fill="#2563eb"></circle><circle class="dot" cx="313.36032388663966" cy="78.46153846153845" r="3" fill="#2563eb"></circle><circle class="dot" cx="314.8178137651822" cy="78.46153846153845" r="3" fill="#2563eb"></circle><circle class="dot" cx="316.27530364372467" cy="78.46153846153845" r="3" fill="#2563eb"></circle><circle class="dot" cx="317.73279352226723" cy="78.46153846153845" r="3" fill="#2563eb"></circle><circle class="dot" cx="319.19028340080973" cy="78.46153846153845" r="3" fill="#2563eb"></circle><circle class="dot" cx="320.64777327935224" cy="78.46153846153845" r="3" fill="#2563eb"></circle><circle class="dot" cx="322.10526315789474" cy="78.46153846153845" r="3" fill="#2563eb"></circle><circle class="dot" cx="323.56275303643724" cy="78.46153846153845" r="3" fill="#2563eb"></circle><circle class="dot" cx="325.02024291497975" cy="78.46153846153845" r="3" fill="#2563eb"></circle><circle class="dot" cx="326.47773279352225" cy="78.46153846153845" r="3" fill="#2563eb"></circle><circle class="dot" cx="327.9352226720648" cy="78.46153846153845" r="3" fill="#2563eb"></circle><circle class="dot" cx="329.39271255060726" cy="78.46153846153845" r="3" fill="#2563eb"></circle><circle class="dot" cx="330.8502024291498" cy="78.46153846153845" r="3" fill="#2563eb"></circle><circle class="dot" cx="332.3076923076923" cy="78.46153846153845" r="3" fill="#2563eb"></circle><circle class="dot" cx="333.7651821862348" cy="78.46153846153845" r="3" fill="#2563eb"></circle><circle class="dot" cx="335.2226720647773" cy="78.46153846153845" r="3" fill="#2563eb"></circle><circle class="dot" cx="336.68016194331983" cy="78.46153846153845" r="3" fill="#2563eb"></circle><circle class="dot" cx="338.13765182186233" cy="78.46153846153845" r="3" fill="#2563eb"></circle><circle class="dot" cx="339.59514170040484" cy="78.46153846153845" r="3" fill="#2563eb"></circle><circle class="dot" cx="341.05263157894734" cy="78.46153846153845" r="3" fill="#2563eb"></circle><circle class="dot" cx="342.51012145748984" cy="78.46153846153845" r="3" fill="#2563eb"></circle><circle class="dot" cx="343.9676113360324" cy="78.46153846153845" r="3" fill="#2563eb"></circle><circle class="dot" cx="345.4251012145749" cy="78.46153846153845" r="3" fill="#2563eb"></circle><circle class="dot" cx="346.8825910931174" cy="78.46153846153845" r="3" fill="#2563eb"></circle><circle class="dot" cx="348.3400809716599" cy="78.46153846153845" r="3" fill="#2563eb"></circle><circle class="dot" cx="349.7975708502024" cy="78.46153846153845" r="3" fill="#2563eb"></circle><circle class="dot" cx="351.2550607287449" cy="78.46153846153845" r="3" fill="#2563eb"></circle><circle class="dot" cx="352.7125506072875" cy="78.46153846153845" r="3" fill="#2563eb"></circle><circle class="dot" cx="354.17004048582993" cy="78.46153846153845" r="3" fill="#2563eb"></circle><circle class="dot" cx="355.6275303643725" cy="78.46153846153845" r="3" fill="#2563eb"></circle><circle class="dot" cx="357.085020242915" cy="78.46153846153845" r="3" fill="#2563eb"></circle><circle class="dot" cx="358.5425101214575" cy="78.46153846153845" r="3" fill="#2563eb"></circle><circle class="dot" cx="360" cy="78.46153846153845" r="3" fill="#2563eb"></circle><circle class="dot" cx="361.4574898785425" cy="78.46153846153845" r="3" fill="#2563eb"></circle><circle class="dot" cx="362.91497975708506" cy="78.46153846153845" r="3" fill="#2563eb"></circle><circle class="dot" cx="364.3724696356275" cy="78.46153846153845" r="3" fill="#2563eb"></circle><circle class="dot" cx="365.82995951417" cy="78.46153846153845" r="3" fill="#2563eb"></circle><circle class="dot" cx="367.2874493927126" cy="78.46153846153845" r="3" fill="#2563eb"></circle><circle class="dot" cx="368.7449392712551" cy="78.46153846153845" r="3" fill="#2563eb"></circle><circle class="dot" cx="370.2024291497975" cy="78.46153846153845" r="3" fill="#2563eb"></circle><circle class="dot" cx="371.6599190283401" cy="78.46153846153845" r="3" fill="#2563eb"></circle><circle class="dot" cx="373.1174089068826" cy="78.46153846153845" r="3" fill="#2563eb"></circle><circle class="dot" cx="374.5748987854251" cy="78.46153846153845" r="3" fill="#2563eb"></circle><circle class="dot" cx="376.03238866396765" cy="78.46153846153845" r="3" fill="#2563eb"></circle><circle class="dot" cx="377.48987854251016" cy="78.46153846153845" r="3" fill="#2563eb"></circle><circle class="dot" cx="378.9473684210526" cy="78.46153846153845" r="3" fill="#2563eb"></circle><circle class="dot" cx="380.40485829959516" cy="78.46153846153845" r="3" fill="#2563eb"></circle><circle class="dot" cx="381.86234817813767" cy="78.46153846153845" r="3" fill="#2563eb"></circle><circle class="dot" cx="383.31983805668017" cy="78.46153846153845" r="3" fill="#2563eb"></circle><circle class="dot" cx="384.77732793522273" cy="78.46153846153845" r="3" fill="#2563eb"></circle><circle class="dot" cx="386.2348178137652" cy="78.46153846153845" r="3" fill="#2563eb"></circle><circle class="dot" cx="387.6923076923077" cy="78.46153846153845" r="3" fill="#2563eb"></circle><circle class="dot" cx="389.14979757085024" cy="78.46153846153845" r="3" fill="#2563eb"></circle><circle class="dot" cx="390.60728744939274" cy="78.46153846153845" r="3" fill="#2563eb"></circle><circle class="dot" cx="392.0647773279352" cy="78.46153846153845" r="3" fill="#2563eb"></circle><circle class="dot" cx="393.52226720647775" cy="78.46153846153845" r="3" fill="#2563eb"></circle><circle class="dot" cx="394.97975708502025" cy="78.46153846153845" r="3" fill="#2563eb"></circle><circle class="dot" cx="396.43724696356276" cy="78.46153846153845" r="3" fill="#2563eb"></circle><circle class="dot" cx="397.8947368421053" cy="78.46153846153845" r="3" fill="#2563eb"></circle><circle class="dot" cx="399.35222672064776" cy="78.46153846153845" r="3" fill="#2563eb"></circle><circle class="dot" cx="400.80971659919027" cy="78.46153846153845" r="3" fill="#2563eb"></circle><circle class="dot" cx="402.2672064777328" cy="78.46153846153845" r="3" fill="#2563eb"></circle><circle class="dot" cx="403.72469635627533" cy="78.46153846153845" r="3" fill="#2563eb"></circle><circle class="dot" cx="405.1821862348178" cy="78.46153846153845" r="3" fill="#2563eb"></circle><circle class="dot" cx="406.6396761133603" cy="78.46153846153845" r="3" fill="#2563eb"></circle><circle class="dot" cx="408.09716599190284" cy="78.46153846153845" r="3" fill="#2563eb"></circle><circle class="dot" cx="409.55465587044534" cy="78.46153846153845" r="3" fill="#2563eb"></circle><circle class="dot" cx="411.0121457489878" cy="78.46153846153845" r="3" fill="#2563eb"></circle><circle class="dot" cx="412.46963562753035" cy="78.46153846153845" r="3" fill="#2563eb"></circle><circle class="dot" cx="413.92712550607285" cy="78.46153846153845" r="3" fill="#2563eb"></circle><circle class="dot" cx="415.38461538461536" cy="78.46153846153845" r="3" fill="#2563eb"></circle><circle class="dot" cx="416.8421052631579" cy="78.46153846153845" r="3" fill="#2563eb"></circle><circle class="dot" cx="418.2995951417004" cy="78.46153846153845" r="3" fill="#2563eb"></circle><circle class="dot" cx="419.75708502024287" cy="78.46153846153845" r="3" fill="#2563eb"></circle><circle class="dot" cx="421.21457489878543" cy="78.46153846153845" r="3" fill="#2563eb"></circle><circle class="dot" cx="422.67206477732793" cy="78.46153846153845" r="3" fill="#2563eb"></circle><circle class="dot" cx="424.12955465587044" cy="78.46153846153845" r="3" fill="#2563eb"></circle><circle class="dot" cx="425.587044534413" cy="78.46153846153845" r="3" fill="#2563eb"></circle><circle class="dot" cx="427.04453441295544" cy="78.46153846153845" r="3" fill="#2563eb"></circle><circle class="dot" cx="428.50202429149795" cy="78.46153846153845" r="3" fill="#2563eb"></circle><circle class="dot" cx="429.9595141700405" cy="78.46153846153845" r="3" fill="#2563eb"></circle><circle class="dot" cx="431.417004048583" cy="78.46153846153845" r="3" fill="#2563eb"></circle><circle class="dot" cx="432.87449392712546" cy="78.46153846153845" r="3" fill="#2563eb"></circle><circle class="dot" cx="434.331983805668" cy="78.46153846153845" r="3" fill="#2563eb"></circle><circle class="dot" cx="435.7894736842105" cy="78.46153846153845" r="3" fill="#2563eb"></circle><circle class="dot" cx="437.246963562753" cy="78.46153846153845" r="3" fill="#2563eb"></circle><circle class="dot" cx="438.7044534412956" cy="78.46153846153845" r="3" fill="#2563eb"></circle><circle class="dot" cx="440.16194331983803" cy="78.46153846153845" r="3" fill="#2563eb"></circle><circle class="dot" cx="441.61943319838053" cy="78.46153846153845" r="3" fill="#2563eb"></circle><circle class="dot" cx="443.0769230769231" cy="78.46153846153845" r="3" fill="#2563eb"></circle><circle class="dot" cx="444.5344129554656" cy="78.46153846153845" r="3" fill="#2563eb"></circle><circle class="dot" cx="445.99190283400804" cy="78.46153846153845" r="3" fill="#2563eb"></circle><circle class="dot" cx="447.44939271255066" cy="78.46153846153845" r="3" fill="#2563eb"></circle><circle class="dot" cx="448.9068825910931" cy="78.46153846153845" r="3" fill="#2563eb"></circle><circle class="dot" cx="450.3643724696356" cy="78.46153846153845" r="3" fill="#2563eb"></circle><circle class="dot" cx="451.8218623481782" cy="78.46153846153845" r="3" fill="#2563eb"></circle><circle class="dot" cx="453.2793522267207" cy="78.46153846153845" r="3" fill="#2563eb"></circle><circle class="dot" cx="454.7368421052631" cy="78.46153846153845" r="3" fill="#2563eb"></circle><circle class="dot" cx="456.1943319838057" cy="78.46153846153845" r="3" fill="#2563eb"></circle><circle class="dot" cx="457.6518218623482" cy="78.46153846153845" r="3" fill="#2563eb"></circle><circle class="dot" cx="459.1093117408907" cy="78.46153846153845" r="3" fill="#2563eb"></circle><circle class="dot" cx="460.56680161943325" cy="78.46153846153845" r="3" fill="#2563eb"></circle><circle class="dot" cx="462.0242914979757" cy="78.46153846153845" r="3" fill="#2563eb"></circle><circle class="dot" cx="463.4817813765182" cy="78.46153846153845" r="3" fill="#2563eb"></circle><circle class="dot" cx="464.93927125506076" cy="78.46153846153845" r="3" fill="#2563eb"></circle><circle class="dot" cx="466.39676113360326" cy="78.46153846153845" r="3" fill="#2563eb"></circle><circle class="dot" cx="467.8542510121457" cy="78.46153846153845" r="3" fill="#2563eb"></circle><circle class="dot" cx="469.31174089068827" cy="78.46153846153845" r="3" fill="#2563eb"></circle><circle class="dot" cx="470.7692307692308" cy="78.46153846153845" r="3" fill="#2563eb"></circle><circle class="dot" cx="472.2267206477733" cy="78.46153846153845" r="3" fill="#2563eb"></circle><circle class="dot" cx="473.68421052631584" cy="78.46153846153845" r="3" fill="#2563eb"></circle><circle class="dot" cx="475.1417004048583" cy="78.46153846153845" r="3" fill="#2563eb"></circle><circle class="dot" cx="476.5991902834008" cy="78.46153846153845" r="3" fill="#2563eb"></circle><circle class="dot" cx="478.05668016194335" cy="78.46153846153845" r="3" fill="#2563eb"></circle><circle class="dot" cx="479.51417004048585" cy="78.46153846153845" r="3" fill="#2563eb"></circle><circle class="dot" cx="480.9716599190283" cy="78.46153846153845" r="3" fill="#2563eb"></circle><circle class="dot" cx="482.42914979757086" cy="78.46153846153845" r="3" fill="#2563eb"></circle><circle class="dot" cx="483.88663967611336" cy="78.46153846153845" r="3" fill="#2563eb"></circle><circle class="dot" cx="485.34412955465586" cy="78.46153846153845" r="3" fill="#2563eb"></circle><circle class="dot" cx="486.8016194331984" cy="78.46153846153845" r="3" fill="#2563eb"></circle><circle class="dot" cx="488.25910931174093" cy="78.46153846153845" r="3" fill="#2563eb"></circle><circle class="dot" cx="489.7165991902834" cy="78.46153846153845" r="3" fill="#2563eb"></circle><circle class="dot" cx="491.17408906882594" cy="78.46153846153845" r="3" fill="#2563eb"></circle><circle class="dot" cx="492.63157894736844" cy="78.46153846153845" r="3" fill="#2563eb"></circle><circle class="dot" cx="494.08906882591094" cy="78.46153846153845" r="3" fill="#2563eb"></circle><circle class="dot" cx="495.5465587044534" cy="78.46153846153845" r="3" fill="#2563eb"></circle><circle class="dot" cx="497.00404858299595" cy="78.46153846153845" r="3" fill="#2563eb"></circle><circle class="dot" cx="498.46153846153845" cy="78.46153846153845" r="3" fill="#2563eb"></circle><circle class="dot" cx="499.91902834008096" cy="78.46153846153845" r="3" fill="#2563eb"></circle><circle class="dot" cx="501.3765182186235" cy="78.46153846153845" r="3" fill="#2563eb"></circle><circle class="dot" cx="502.83400809716596" cy="78.46153846153845" r="3" fill="#2563eb"></circle><circle class="dot" cx="504.29149797570847" cy="78.46153846153845" r="3" fill="#2563eb"></circle><circle class="dot" cx="505.748987854251" cy="78.46153846153845" r="3" fill="#2563eb"></circle><circle class="dot" cx="507.20647773279353" cy="78.46153846153845" r="3" fill="#2563eb"></circle><circle class="dot" cx="508.663967611336" cy="78.46153846153845" r="3" fill="#2563eb"></circle><circle class="dot" cx="510.12145748987854" cy="78.46153846153845" r="3" fill="#2563eb"></circle><circle class="dot" cx="511.57894736842104" cy="78.46153846153845" r="3" fill="#2563eb"></circle><circle class="dot" cx="513.0364372469635" cy="78.46153846153845" r="3" fill="#2563eb"></circle><circle class="dot" cx="514.493927125506" cy="78.46153846153845" r="3" fill="#2563eb"></circle><circle class="dot" cx="515.9514170040486" cy="78.46153846153845" r="3" fill="#2563eb"></circle><circle class="dot" cx="517.408906882591" cy="78.46153846153845" r="3" fill="#2563eb"></circle><circle class="dot" cx="518.8663967611336" cy="78.46153846153845" r="3" fill="#2563eb"></circle><circle class="dot" cx="520.3238866396761" cy="78.46153846153845" r="3" fill="#2563eb"></circle><circle class="dot" cx="521.7813765182186" cy="78.46153846153845" r="3" fill="#2563eb"></circle><circle class="dot" cx="523.2388663967612" cy="78.46153846153845" r="3" fill="#2563eb"></circle><circle class="dot" cx="524.6963562753036" cy="78.46153846153845" r="3" fill="#2563eb"></circle><circle class="dot" cx="526.1538461538461" cy="78.46153846153845" r="3" fill="#2563eb"></circle><circle class="dot" cx="527.6113360323886" cy="78.46153846153845" r="3" fill="#2563eb"></circle><circle class="dot" cx="529.0688259109312" cy="78.46153846153845" r="3" fill="#2563eb"></circle><circle class="dot" cx="530.5263157894736" cy="78.46153846153845" r="3" fill="#2563eb"></circle><circle class="dot" cx="531.9838056680162" cy="78.46153846153845" r="3" fill="#2563eb"></circle><circle class="dot" cx="533.4412955465586" cy="78.46153846153845" r="3" fill="#2563eb"></circle><circle class="dot" cx="534.8987854251012" cy="78.46153846153845" r="3" fill="#2563eb"></circle><circle class="dot" cx="536.3562753036438" cy="78.46153846153845" r="3" fill="#2563eb"></circle><circle class="dot" cx="537.8137651821862" cy="78.46153846153845" r="3" fill="#2563eb"></circle><circle class="dot" cx="539.2712550607287" cy="78.46153846153845" r="3" fill="#2563eb"></circle><circle class="dot" cx="540.7287449392713" cy="78.46153846153845" r="3" fill="#2563eb"></circle><circle class="dot" cx="542.1862348178138" cy="78.46153846153845" r="3" fill="#2563eb"></circle><circle class="dot" cx="543.6437246963562" cy="78.46153846153845" r="3" fill="#2563eb"></circle><circle class="dot" cx="545.1012145748988" cy="78.46153846153845" r="3" fill="#2563eb"></circle><circle class="dot" cx="546.5587044534414" cy="78.46153846153845" r="3" fill="#2563eb"></circle><circle class="dot" cx="548.0161943319838" cy="78.46153846153845" r="3" fill="#2563eb"></circle><circle class="dot" cx="549.4736842105264" cy="78.46153846153845" r="3" fill="#2563eb"></circle><circle class="dot" cx="550.9311740890688" cy="78.46153846153845" r="3" fill="#2563eb"></circle><circle class="dot" cx="552.3886639676114" cy="78.46153846153845" r="3" fill="#2563eb"></circle><circle class="dot" cx="553.8461538461539" cy="78.46153846153845" r="3" fill="#2563eb"></circle><circle class="dot" cx="555.3036437246964" cy="78.46153846153845" r="3" fill="#2563eb"></circle><circle class="dot" cx="556.7611336032388" cy="78.46153846153845" r="3" fill="#2563eb"></circle><circle class="dot" cx="558.2186234817814" cy="78.46153846153845" r="3" fill="#2563eb"></circle><circle class="dot" cx="559.6761133603239" cy="78.46153846153845" r="3" fill="#2563eb"></circle><circle class="dot" cx="561.1336032388664" cy="78.46153846153845" r="3" fill="#2563eb"></circle><circle class="dot" cx="562.591093117409" cy="78.46153846153845" r="3" fill="#2563eb"></circle><circle class="dot" cx="564.0485829959514" cy="78.46153846153845" r="3" fill="#2563eb"></circle><circle class="dot" cx="565.506072874494" cy="78.46153846153845" r="3" fill="#2563eb"></circle><circle class="dot" cx="566.9635627530365" cy="78.46153846153845" r="3" fill="#2563eb"></circle><circle class="dot" cx="568.421052631579" cy="78.46153846153845" r="3" fill="#2563eb"></circle><circle class="dot" cx="569.8785425101214" cy="78.46153846153845" r="3" fill="#2563eb"></circle><circle class="dot" cx="571.336032388664" cy="78.46153846153845" r="3" fill="#2563eb"></circle><circle class="dot" cx="572.7935222672065" cy="78.46153846153845" r="3" fill="#2563eb"></circle><circle class="dot" cx="574.251012145749" cy="78.46153846153845" r="3" fill="#2563eb"></circle><circle class="dot" cx="575.7085020242915" cy="78.46153846153845" r="3" fill="#2563eb"></circle><circle class="dot" cx="577.165991902834" cy="78.46153846153845" r="3" fill="#2563eb"></circle><circle class="dot" cx="578.6234817813765" cy="78.46153846153845" r="3" fill="#2563eb"></circle><circle class="dot" cx="580.0809716599191" cy="78.46153846153845" r="3" fill="#2563eb"></circle><circle class="dot" cx="581.5384615384615" cy="78.46153846153845" r="3" fill="#2563eb"></circle><circle class="dot" cx="582.995951417004" cy="78.46153846153845" r="3" fill="#2563eb"></circle><circle class="dot" cx="584.4534412955466" cy="78.46153846153845" r="3" fill="#2563eb"></circle><circle class="dot" cx="585.9109311740891" cy="78.46153846153845" r="3" fill="#2563eb"></circle><circle class="dot" cx="587.3684210526316" cy="78.46153846153845" r="3" fill="#2563eb"></circle><circle class="dot" cx="588.825910931174" cy="78.46153846153845" r="3" fill="#2563eb"></circle><circle class="dot" cx="590.2834008097166" cy="78.46153846153845" r="3" fill="#2563eb"></circle><circle class="dot" cx="591.7408906882591" cy="78.46153846153845" r="3" fill="#2563eb"></circle><circle class="dot" cx="593.1983805668016" cy="78.46153846153845" r="3" fill="#2563eb"></circle><circle class="dot" cx="594.6558704453441" cy="78.46153846153845" r="3" fill="#2563eb"></circle><circle class="dot" cx="596.1133603238866" cy="78.46153846153845" r="3" fill="#2563eb"></circle><circle class="dot" cx="597.5708502024291" cy="13.076923076922993" r="3" fill="#2563eb"></circle><circle class="dot" cx="599.0283400809717" cy="13.076923076922993" r="3" fill="#2563eb"></circle><circle class="dot" cx="600.4858299595141" cy="13.076923076922993" r="3" fill="#2563eb"></circle><circle class="dot" cx="601.9433198380566" cy="13.076923076922993" r="3" fill="#2563eb"></circle><circle class="dot" cx="603.4008097165992" cy="13.076923076922993" r="3" fill="#2563eb"></circle><circle class="dot" cx="604.8582995951417" cy="13.076923076922993" r="3" fill="#2563eb"></circle><circle class="dot" cx="606.3157894736842" cy="13.076923076922993" r="3" fill="#2563eb"></circle><circle class="dot" cx="607.7732793522267" cy="13.076923076922993" r="3" fill="#2563eb"></circle><circle class="dot" cx="609.2307692307692" cy="13.076923076922993" r="3" fill="#2563eb"></circle><circle class="dot" cx="610.6882591093117" cy="13.076923076922993" r="3" fill="#2563eb"></circle><circle class="dot" cx="612.1457489878543" cy="13.076923076922993" r="3" fill="#2563eb"></circle><circle class="dot" cx="613.6032388663967" cy="13.076923076922993" r="3" fill="#2563eb"></circle><circle class="dot" cx="615.0607287449393" cy="13.076923076922993" r="3" fill="#2563eb"></circle><circle class="dot" cx="616.5182186234819" cy="13.076923076922993" r="3" fill="#2563eb"></circle><circle class="dot" cx="617.9757085020243" cy="13.076923076922993" r="3" fill="#2563eb"></circle><circle class="dot" cx="619.4331983805668" cy="13.076923076922993" r="3" fill="#2563eb"></circle><circle class="dot" cx="620.8906882591093" cy="13.076923076922993" r="3" fill="#2563eb"></circle><circle class="dot" cx="622.3481781376519" cy="13.076923076922993" r="3" fill="#2563eb"></circle><circle class="dot" cx="623.8056680161943" cy="13.076923076922993" r="3" fill="#2563eb"></circle><circle class="dot" cx="625.2631578947369" cy="13.076923076922993" r="3" fill="#2563eb"></circle><circle class="dot" cx="626.7206477732793" cy="13.076923076922993" r="3" fill="#2563eb"></circle><circle class="dot" cx="628.1781376518219" cy="13.076923076922993" r="3" fill="#2563eb"></circle><circle class="dot" cx="629.6356275303644" cy="13.076923076922993" r="3" fill="#2563eb"></circle><circle class="dot" cx="631.0931174089069" cy="13.076923076922993" r="3" fill="#2563eb"></circle><circle class="dot" cx="632.5506072874493" cy="13.076923076922993" r="3" fill="#2563eb"></circle><circle class="dot" cx="634.0080971659919" cy="13.076923076922993" r="3" fill="#2563eb"></circle><circle class="dot" cx="635.4655870445345" cy="13.076923076922993" r="3" fill="#2563eb"></circle><circle class="dot" cx="636.9230769230769" cy="13.076923076922993" r="3" fill="#2563eb"></circle><circle class="dot" cx="638.3805668016195" cy="13.076923076922993" r="3" fill="#2563eb"></circle><circle class="dot" cx="639.8380566801619" cy="13.076923076922993" r="3" fill="#2563eb"></circle><circle class="dot" cx="641.2955465587045" cy="13.076923076922993" r="3" fill="#2563eb"></circle><circle class="dot" cx="642.753036437247" cy="13.076923076922993" r="3" fill="#2563eb"></circle><circle class="dot" cx="644.2105263157895" cy="13.076923076922993" r="3" fill="#2563eb"></circle><circle class="dot" cx="645.6680161943319" cy="13.076923076922993" r="3" fill="#2563eb"></circle><circle class="dot" cx="647.1255060728745" cy="13.076923076922993" r="3" fill="#2563eb"></circle><circle class="dot" cx="648.582995951417" cy="13.076923076922993" r="3" fill="#2563eb"></circle><circle class="dot" cx="650.0404858299595" cy="13.076923076922993" r="3" fill="#2563eb"></circle><circle class="dot" cx="651.497975708502" cy="13.076923076922993" r="3" fill="#2563eb"></circle><circle class="dot" cx="652.9554655870445" cy="13.076923076922993" r="3" fill="#2563eb"></circle><circle class="dot" cx="654.4129554655871" cy="13.076923076922993" r="3" fill="#2563eb"></circle><circle class="dot" cx="655.8704453441296" cy="13.076923076922993" r="3" fill="#2563eb"></circle><circle class="dot" cx="657.3279352226721" cy="13.076923076922993" r="3" fill="#2563eb"></circle><circle class="dot" cx="658.7854251012145" cy="13.076923076922993" r="3" fill="#2563eb"></circle><circle class="dot" cx="660.2429149797571" cy="13.076923076922993" r="3" fill="#2563eb"></circle><circle class="dot" cx="661.7004048582996" cy="13.076923076922993" r="3" fill="#2563eb"></circle><circle class="dot" cx="663.1578947368421" cy="13.076923076922993" r="3" fill="#2563eb"></circle><circle class="dot" cx="664.6153846153846" cy="13.076923076922993" r="3" fill="#2563eb"></circle><circle class="dot" cx="666.0728744939271" cy="13.076923076922993" r="3" fill="#2563eb"></circle><circle class="dot" cx="667.5303643724696" cy="13.076923076922993" r="3" fill="#2563eb"></circle><circle class="dot" cx="668.9878542510122" cy="13.076923076922993" r="3" fill="#2563eb"></circle><circle class="dot" cx="670.4453441295547" cy="13.076923076922993" r="3" fill="#2563eb"></circle><circle class="dot" cx="671.9028340080971" cy="13.076923076922993" r="3" fill="#2563eb"></circle><circle class="dot" cx="673.3603238866397" cy="13.076923076922993" r="3" fill="#2563eb"></circle><circle class="dot" cx="674.8178137651822" cy="13.076923076922993" r="3" fill="#2563eb"></circle><circle class="dot" cx="676.2753036437247" cy="13.076923076922993" r="3" fill="#2563eb"></circle><circle class="dot" cx="677.7327935222671" cy="13.076923076922993" r="3" fill="#2563eb"></circle><circle class="dot" cx="679.1902834008097" cy="13.076923076922993" r="3" fill="#2563eb"></circle><circle class="dot" cx="680.6477732793522" cy="13.076923076922993" r="3" fill="#2563eb"></circle><circle class="dot" cx="682.1052631578947" cy="13.076923076922993" r="3" fill="#2563eb"></circle><circle class="dot" cx="683.5627530364372" cy="13.076923076922993" r="3" fill="#2563eb"></circle><circle class="dot" cx="685.0202429149797" cy="13.076923076922993" r="3" fill="#2563eb"></circle><circle class="dot" cx="686.4777327935223" cy="13.076923076922993" r="3" fill="#2563eb"></circle><circle class="dot" cx="687.9352226720648" cy="13.076923076922993" r="3" fill="#2563eb"></circle><circle class="dot" cx="689.3927125506073" cy="13.076923076922993" r="3" fill="#2563eb"></circle><circle class="dot" cx="690.8502024291498" cy="13.076923076922993" r="3" fill="#2563eb"></circle><circle class="dot" cx="692.3076923076924" cy="13.076923076922993" r="3" fill="#2563eb"></circle><circle class="dot" cx="693.7651821862348" cy="13.076923076922993" r="3" fill="#2563eb"></circle><circle class="dot" cx="695.2226720647773" cy="13.076923076922993" r="3" fill="#2563eb"></circle><circle class="dot" cx="696.6801619433198" cy="13.076923076922993" r="3" fill="#2563eb"></circle><circle class="dot" cx="698.1376518218624" cy="13.076923076922993" r="3" fill="#2563eb"></circle><circle class="dot" cx="699.5951417004048" cy="13.076923076922993" r="3" fill="#2563eb"></circle><circle class="dot" cx="701.0526315789474" cy="13.076923076922993" r="3" fill="#2563eb"></circle><circle class="dot" cx="702.5101214574898" cy="13.076923076922993" r="3" fill="#2563eb"></circle><circle class="dot" cx="703.9676113360324" cy="13.076923076922993" r="3" fill="#2563eb"></circle><circle class="dot" cx="705.425101214575" cy="13.076923076922993" r="3" fill="#2563eb"></circle><circle class="dot" cx="706.8825910931174" cy="13.076923076922993" r="3" fill="#2563eb"></circle><circle class="dot" cx="708.3400809716599" cy="13.076923076922993" r="3" fill="#2563eb"></circle><circle class="dot" cx="709.7975708502024" cy="13.076923076922993" r="3" fill="#2563eb"></circle><circle class="dot" cx="711.255060728745" cy="13.076923076922993" r="3" fill="#2563eb"></circle><circle class="dot" cx="712.7125506072874" cy="13.076923076922993" r="3" fill="#2563eb"></circle><circle class="dot" cx="714.17004048583" cy="13.076923076922993" r="3" fill="#2563eb"></circle><circle class="dot" cx="715.6275303643724" cy="13.076923076922993" r="3" fill="#2563eb"></circle><circle class="dot" cx="717.085020242915" cy="13.076923076922993" r="3" fill="#2563eb"></circle><circle class="dot" cx="718.5425101214576" cy="13.076923076922993" r="3" fill="#2563eb"></circle><circle class="dot" cx="720" cy="13.076923076922993" r="3" fill="#2563eb"></circle><g class="grid" transform="translate(0,340)" fill="none" font-size="10" font-family="sans-serif" text-anchor="middle" style="stroke-dasharray: 3,3; opacity: 0.3;"><path class="domain" stroke="currentColor" d="M0.5,-340V0.5H720.5V-340"></path><g class="tick" opacity="1" transform="translate(0.5,0)"><line stroke="currentColor" y2="-340"></line><text fill="currentColor" y="3" dy="0.71em"></text></g><g class="tick" opacity="1" transform="translate(35.479757085020246,0)"><line stroke="currentColor" y2="-340"></line><text fill="currentColor" y="3" dy="0.71em"></text></g><g class="tick" opacity="1" transform="translate(70.45951417004049,0)"><line stroke="currentColor" y2="-340"></line><text fill="currentColor" y="3" dy="0.71em"></text></g><g class="tick" opacity="1" transform="translate(105.43927125506072,0)"><line stroke="currentColor" y2="-340"></line><text fill="currentColor" y="3" dy="0.71em"></text></g><g class="tick" opacity="1" transform="translate(140.41902834008098,0)"><line stroke="currentColor" y2="-340"></line><text fill="currentColor" y="3" dy="0.71em"></text></g><g class="tick" opacity="1" transform="translate(175.3987854251012,0)"><line stroke="currentColor" y2="-340"></line><text fill="currentColor" y="3" dy="0.71em"></text></g><g class="tick" opacity="1" transform="translate(210.37854251012143,0)"><line stroke="currentColor" y2="-340"></line><text fill="currentColor" y="3" dy="0.71em"></text></g><g class="tick" opacity="1" transform="translate(245.3582995951417,0)"><line stroke="currentColor" y2="-340"></line><text fill="currentColor" y="3" dy="0.71em"></text></g><g class="tick" opacity="1" transform="translate(280.33805668016197,0)"><line stroke="currentColor" y2="-340"></line><text fill="currentColor" y="3" dy="0.71em"></text></g><g class="tick" opacity="1" transform="translate(315.3178137651822,0)"><line stroke="currentColor" y2="-340"></line><text fill="currentColor" y="3" dy="0.71em"></text></g><g class="tick" opacity="1" transform="translate(350.2975708502024,0)"><line stroke="currentColor" y2="-340"></line><text fill="currentColor" y="3" dy="0.71em"></text></g><g class="tick" opacity="1" transform="translate(385.27732793522273,0)"><line stroke="currentColor" y2="-340"></line><text fill="currentColor" y="3" dy="0.71em"></text></g><g class="tick" opacity="1" transform="translate(420.25708502024287,0)"><line stroke="currentColor" y2="-340"></line><text fill="currentColor" y="3" dy="0.71em"></text></g><g class="tick" opacity="1" transform="translate(455.2368421052631,0)"><line stroke="currentColor" y2="-340"></line><text fill="currentColor" y="3" dy="0.71em"></text></g><g class="tick" opacity="1" transform="translate(490.2165991902834,0)"><line stroke="currentColor" y2="-340"></line><text fill="currentColor" y="3" dy="0.71em"></text></g><g class="tick" opacity="1" transform="translate(525.1963562753036,0)"><line stroke="currentColor" y2="-340"></line><text fill="currentColor" y="3" dy="0.71em"></text></g><g class="tick" opacity="1" transform="translate(560.1761133603239,0)"><line stroke="currentColor" y2="-340"></line><text fill="currentColor" y="3" dy="0.71em"></text></g><g class="tick" opacity="1" transform="translate(595.1558704453441,0)"><line stroke="currentColor" y2="-340"></line><text fill="currentColor" y="3" dy="0.71em"></text></g><g class="tick" opacity="1" transform="translate(630.1356275303644,0)"><line stroke="currentColor" y2="-340"></line><text fill="currentColor" y="3" dy="0.71em"></text></g><g class="tick" opacity="1" transform="translate(665.1153846153846,0)"><line stroke="currentColor" y2="-340"></line><text fill="currentColor" y="3" dy="0.71em"></text></g><g class="tick" opacity="1" transform="translate(700.0951417004048,0)"><line stroke="currentColor" y2="-340"></line><text fill="currentColor" y="3" dy="0.71em"></text></g></g><g class="grid" fill="none" font-size="10" font-family="sans-serif" text-anchor="end" style="stroke-dasharray: 3,3; opacity: 0.3;"><path class="domain" stroke="currentColor" d="M720,340.5H0.5V0.5H720"></path><g class="tick" opacity="1" transform="translate(0,340.5)"><line stroke="currentColor" x2="720"></line><text fill="currentColor" x="-3" dy="0.32em"></text></g><g class="tick" opacity="1" transform="translate(0,314.3461538461538)"><line stroke="currentColor" x2="720"></line><text fill="currentColor" x="-3" dy="0.32em"></text></g><g class="tick" opacity="1" transform="translate(0,288.1923076923077)"><line stroke="currentColor" x2="720"></line><text fill="currentColor" x="-3" dy="0.32em"></text></g><g class="tick" opacity="1" transform="translate(0,262.0384615384615)"><line stroke="currentColor" x2="720"></line><text fill="currentColor" x="-3" dy="0.32em"></text></g><g class="tick" opacity="1" transform="translate(0,235.8846153846154)"><line stroke="currentColor" x2="720"></line><text fill="currentColor" x="-3" dy="0.32em"></text></g><g class="tick" opacity="1" transform="translate(0,209.7307692307692)"><line stroke="currentColor" x2="720"></line><text fill="currentColor" x="-3" dy="0.32em"></text></g><g class="tick" opacity="1" transform="translate(0,183.57692307692307)"><line stroke="currentColor" x2="720"></line><text fill="currentColor" x="-3" dy="0.32em"></text></g><g class="tick" opacity="1" transform="translate(0,157.4230769230769)"><line stroke="currentColor" x2="720"></line><text fill="currentColor" x="-3" dy="0.32em"></text></g><g class="tick" opacity="1" transform="translate(0,131.26923076923072)"><line stroke="currentColor" x2="720"></line><text fill="currentColor" x="-3" dy="0.32em"></text></g><g class="tick" opacity="1" transform="translate(0,105.11538461538454)"><line stroke="currentColor" x2="720"></line><text fill="currentColor" x="-3" dy="0.32em"></text></g><g class="tick" opacity="1" transform="translate(0,78.96153846153845)"><line stroke="currentColor" x2="720"></line><text fill="currentColor" x="-3" dy="0.32em"></text></g><g class="tick" opacity="1" transform="translate(0,52.80769230769227)"><line stroke="currentColor" x2="720"></line><text fill="currentColor" x="-3" dy="0.32em"></text></g><g class="tick" opacity="1" transform="translate(0,26.6538461538461)"><line stroke="currentColor" x2="720"></line><text fill="currentColor" x="-3" dy="0.32em"></text></g><g class="tick" opacity="1" transform="translate(0,0.5)"><line stroke="currentColor" x2="720"></line><text fill="currentColor" x="-3" dy="0.32em"></text></g></g></g><text x="400" y="10" text-anchor="middle" style="font-size: 16px; font-weight: bold; fill: #333;">OKX USDT Lending Rate - Current Month</text></svg>