<svg width="800" height="400" xmlns="http://www.w3.org/2000/svg"><g transform="translate(50,20)"><g transform="translate(0,340)" fill="none" font-size="10" font-family="sans-serif" text-anchor="middle"><path class="domain" stroke="currentColor" d="M0.5,6V0.5H720.5V6"></path><g class="tick" opacity="1" transform="translate(0.5,0)"><line stroke="currentColor" y2="6"></line><text fill="currentColor" y="9" dy=".15em" style="text-anchor: end;" dx="-.8em" transform="rotate(-45)">01/01</text></g><g class="tick" opacity="1" transform="translate(30.29310344827586,0)"><line stroke="currentColor" y2="6"></line><text fill="currentColor" y="9" dy=".15em" style="text-anchor: end;" dx="-.8em" transform="rotate(-45)">01/02</text></g><g class="tick" opacity="1" transform="translate(60.08620689655172,0)"><line stroke="currentColor" y2="6"></line><text fill="currentColor" y="9" dy=".15em" style="text-anchor: end;" dx="-.8em" transform="rotate(-45)">01/03</text></g><g class="tick" opacity="1" transform="translate(89.87931034482759,0)"><line stroke="currentColor" y2="6"></line><text fill="currentColor" y="9" dy=".15em" style="text-anchor: end;" dx="-.8em" transform="rotate(-45)">01/04</text></g><g class="tick" opacity="1" transform="translate(119.67241379310344,0)"><line stroke="currentColor" y2="6"></line><text fill="currentColor" y="9" dy=".15em" style="text-anchor: end;" dx="-.8em" transform="rotate(-45)">01/05</text></g><g class="tick" opacity="1" transform="translate(149.4655172413793,0)"><line stroke="currentColor" y2="6"></line><text fill="currentColor" y="9" dy=".15em" style="text-anchor: end;" dx="-.8em" transform="rotate(-45)">01/06</text></g><g class="tick" opacity="1" transform="translate(179.25862068965517,0)"><line stroke="currentColor" y2="6"></line><text fill="currentColor" y="9" dy=".15em" style="text-anchor: end;" dx="-.8em" transform="rotate(-45)">01/07</text></g><g class="tick" opacity="1" transform="translate(209.05172413793105,0)"><line stroke="currentColor" y2="6"></line><text fill="currentColor" y="9" dy=".15em" style="text-anchor: end;" dx="-.8em" transform="rotate(-45)">01/08</text></g><g class="tick" opacity="1" transform="translate(238.8448275862069,0)"><line stroke="currentColor" y2="6"></line><text fill="currentColor" y="9" dy=".15em" style="text-anchor: end;" dx="-.8em" transform="rotate(-45)">01/09</text></g><g class="tick" opacity="1" transform="translate(268.6379310344828,0)"><line stroke="currentColor" y2="6"></line><text fill="currentColor" y="9" dy=".15em" style="text-anchor: end;" dx="-.8em" transform="rotate(-45)">01/10</text></g><g class="tick" opacity="1" transform="translate(298.4310344827586,0)"><line stroke="currentColor" y2="6"></line><text fill="currentColor" y="9" dy=".15em" style="text-anchor: end;" dx="-.8em" transform="rotate(-45)">01/11</text></g><g class="tick" opacity="1" transform="translate(328.2241379310345,0)"><line stroke="currentColor" y2="6"></line><text fill="currentColor" y="9" dy=".15em" style="text-anchor: end;" dx="-.8em" transform="rotate(-45)">01/12</text></g><g class="tick" opacity="1" transform="translate(358.01724137931035,0)"><line stroke="currentColor" y2="6"></line><text fill="currentColor" y="9" dy=".15em" style="text-anchor: end;" dx="-.8em" transform="rotate(-45)">01/13</text></g><g class="tick" opacity="1" transform="translate(387.81034482758616,0)"><line stroke="currentColor" y2="6"></line><text fill="currentColor" y="9" dy=".15em" style="text-anchor: end;" dx="-.8em" transform="rotate(-45)">01/14</text></g><g class="tick" opacity="1" transform="translate(417.6034482758621,0)"><line stroke="currentColor" y2="6"></line><text fill="currentColor" y="9" dy=".15em" style="text-anchor: end;" dx="-.8em" transform="rotate(-45)">01/15</text></g><g class="tick" opacity="1" transform="translate(447.39655172413796,0)"><line stroke="currentColor" y2="6"></line><text fill="currentColor" y="9" dy=".15em" style="text-anchor: end;" dx="-.8em" transform="rotate(-45)">01/16</text></g><g class="tick" opacity="1" transform="translate(477.1896551724138,0)"><line stroke="currentColor" y2="6"></line><text fill="currentColor" y="9" dy=".15em" style="text-anchor: end;" dx="-.8em" transform="rotate(-45)">01/17</text></g><g class="tick" opacity="1" transform="translate(506.98275862068965,0)"><line stroke="currentColor" y2="6"></line><text fill="currentColor" y="9" dy=".15em" style="text-anchor: end;" dx="-.8em" transform="rotate(-45)">01/18</text></g><g class="tick" opacity="1" transform="translate(536.7758620689656,0)"><line stroke="currentColor" y2="6"></line><text fill="currentColor" y="9" dy=".15em" style="text-anchor: end;" dx="-.8em" transform="rotate(-45)">01/19</text></g><g class="tick" opacity="1" transform="translate(566.5689655172414,0)"><line stroke="currentColor" y2="6"></line><text fill="currentColor" y="9" dy=".15em" style="text-anchor: end;" dx="-.8em" transform="rotate(-45)">01/20</text></g><g class="tick" opacity="1" transform="translate(596.3620689655172,0)"><line stroke="currentColor" y2="6"></line><text fill="currentColor" y="9" dy=".15em" style="text-anchor: end;" dx="-.8em" transform="rotate(-45)">01/21</text></g><g class="tick" opacity="1" transform="translate(626.155172413793,0)"><line stroke="currentColor" y2="6"></line><text fill="currentColor" y="9" dy=".15em" style="text-anchor: end;" dx="-.8em" transform="rotate(-45)">01/22</text></g><g class="tick" opacity="1" transform="translate(655.948275862069,0)"><line stroke="currentColor" y2="6"></line><text fill="currentColor" y="9" dy=".15em" style="text-anchor: end;" dx="-.8em" transform="rotate(-45)">01/23</text></g><g class="tick" opacity="1" transform="translate(685.7413793103449,0)"><line stroke="currentColor" y2="6"></line><text fill="currentColor" y="9" dy=".15em" style="text-anchor: end;" dx="-.8em" transform="rotate(-45)">01/24</text></g><g class="tick" opacity="1" transform="translate(715.5344827586207,0)"><line stroke="currentColor" y2="6"></line><text fill="currentColor" y="9" dy=".15em" style="text-anchor: end;" dx="-.8em" transform="rotate(-45)">01/25</text></g></g><g fill="none" font-size="10" font-family="sans-serif" text-anchor="end"><path class="domain" stroke="currentColor" d="M-6,340.5H0.5V0.5H-6"></path><g class="tick" opacity="1" transform="translate(0,340.5)"><line stroke="currentColor" x2="-6"></line><text fill="currentColor" x="-9" dy="0.32em">3.20%</text></g><g class="tick" opacity="1" transform="translate(0,312.16666666666663)"><line stroke="currentColor" x2="-6"></line><text fill="currentColor" x="-9" dy="0.32em">3.25%</text></g><g class="tick" opacity="1" transform="translate(0,283.83333333333326)"><line stroke="currentColor" x2="-6"></line><text fill="currentColor" x="-9" dy="0.32em">3.30%</text></g><g class="tick" opacity="1" transform="translate(0,255.49999999999991)"><line stroke="currentColor" x2="-6"></line><text fill="currentColor" x="-9" dy="0.32em">3.35%</text></g><g class="tick" opacity="1" transform="translate(0,227.16666666666654)"><line stroke="currentColor" x2="-6"></line><text fill="currentColor" x="-9" dy="0.32em">3.40%</text></g><g class="tick" opacity="1" transform="translate(0,198.83333333333314)"><line stroke="currentColor" x2="-6"></line><text fill="currentColor" x="-9" dy="0.32em">3.45%</text></g><g class="tick" opacity="1" transform="translate(0,170.4999999999998)"><line stroke="currentColor" x2="-6"></line><text fill="currentColor" x="-9" dy="0.32em">3.50%</text></g><g class="tick" opacity="1" transform="translate(0,142.16666666666686)"><line stroke="currentColor" x2="-6"></line><text fill="currentColor" x="-9" dy="0.32em">3.55%</text></g><g class="tick" opacity="1" transform="translate(0,113.83333333333346)"><line stroke="currentColor" x2="-6"></line><text fill="currentColor" x="-9" dy="0.32em">3.60%</text></g><g class="tick" opacity="1" transform="translate(0,85.50000000000011)"><line stroke="currentColor" x2="-6"></line><text fill="currentColor" x="-9" dy="0.32em">3.65%</text></g><g class="tick" opacity="1" transform="translate(0,57.16666666666673)"><line stroke="currentColor" x2="-6"></line><text fill="currentColor" x="-9" dy="0.32em">3.70%</text></g><g class="tick" opacity="1" transform="translate(0,28.833333333333385)"><line stroke="currentColor" x2="-6"></line><text fill="currentColor" x="-9" dy="0.32em">3.75%</text></g><g class="tick" opacity="1" transform="translate(0,0.5)"><line stroke="currentColor" x2="-6"></line><text fill="currentColor" x="-9" dy="0.32em">3.80%</text></g></g><text transform="rotate(-90)" y="-50" x="-170" dy="1em" style="text-anchor: middle; font-size: 12px; fill: #666;">Pre Rate (%)</text><text transform="translate(360, 380)" style="text-anchor: middle; font-size: 12px; fill: #666;">Time (UTC)</text><path fill="none" stroke="#2563eb" stroke-width="2" d="M0,340C0.414,340,0.828,340,1.241,340C1.655,340,2.069,340,2.483,340C2.897,340,3.31,340,3.724,340C4.138,340,4.552,340,4.966,340C5.379,340,5.793,340,6.207,340C6.621,340,7.034,340,7.448,340C7.862,340,8.276,340,8.69,340C9.103,340,9.517,340,9.931,340C10.345,340,10.759,340,11.172,340C11.586,340,12,340,12.414,340C12.828,340,13.241,340,13.655,340C14.069,340,14.483,340,14.897,340C15.31,340,15.724,340,16.138,340C16.552,340,16.966,340,17.379,340C17.793,340,18.207,340,18.621,340C19.034,340,19.448,340,19.862,340C20.276,340,20.69,340,21.103,340C21.517,340,21.931,340,22.345,340C22.759,340,23.172,340,23.586,340C24,340,24.414,340,24.828,340C25.241,340,25.655,340,26.069,340C26.483,340,26.897,340,27.31,340C27.724,340,28.138,340,28.552,340C28.966,340,29.379,340,29.793,340C30.207,340,30.621,340,31.034,340C31.448,340,31.862,340,32.276,340C32.69,340,33.103,340,33.517,340C33.931,340,34.345,340,34.759,340C35.172,340,35.586,340,36,340C36.414,340,36.828,340,37.241,340C37.655,340,38.069,340,38.483,340C38.897,340,39.31,340,39.724,340C40.138,340,40.552,340,40.966,340C41.379,340,41.793,340,42.207,340C42.621,340,43.034,340,43.448,340C43.862,340,44.276,340,44.69,340C45.103,340,45.517,340,45.931,340C46.345,340,46.759,340,47.172,340C47.586,340,48,340,48.414,340C48.828,340,49.241,340,49.655,340C50.069,340,50.483,340,50.897,340C51.31,340,51.724,340,52.138,340C52.552,340,52.966,340,53.379,340C53.793,340,54.207,340,54.621,340C55.034,340,55.448,340,55.862,340C56.276,340,56.69,340,57.103,340C57.517,340,57.931,340,58.345,340C58.759,340,59.172,340,59.586,340C60,340,60.414,340,60.828,340C61.241,340,61.655,340,62.069,340C62.483,340,62.897,340,63.31,340C63.724,340,64.138,340,64.552,340C64.966,340,65.379,340,65.793,340C66.207,340,66.621,340,67.034,340C67.448,340,67.862,340,68.276,340C68.69,340,69.103,340,69.517,340C69.931,340,70.345,340,70.759,340C71.172,340,71.586,340,72,340C72.414,340,72.828,340,73.241,340C73.655,340,74.069,340,74.483,340C74.897,340,75.31,340,75.724,340C76.138,340,76.552,340,76.966,340C77.379,340,77.793,340,78.207,340C78.621,340,79.034,340,79.448,340C79.862,340,80.276,340,80.69,340C81.103,340,81.517,340,81.931,340C82.345,340,82.759,340,83.172,340C83.586,340,84,340,84.414,340C84.828,340,85.241,340,85.655,340C86.069,340,86.483,340,86.897,340C87.31,340,87.724,340,88.138,340C88.552,340,88.966,340,89.379,340C89.793,340,90.207,340,90.621,340C91.034,340,91.448,340,91.862,340C92.276,340,92.69,340,93.103,340C93.517,340,93.931,340,94.345,340C94.759,340,95.172,340,95.586,340C96,340,96.414,340,96.828,340C97.241,340,97.655,340,98.069,340C98.483,340,98.897,340,99.31,340C99.724,340,100.138,340,100.552,340C100.966,340,101.379,340,101.793,340C102.207,340,102.621,340,103.034,340C103.448,340,103.862,340,104.276,340C104.69,340,105.103,340,105.517,340C105.931,340,106.345,340,106.759,340C107.172,340,107.586,340,108,340C108.414,340,108.828,340,109.241,340C109.655,340,110.069,340,110.483,340C110.897,340,111.31,340,111.724,340C112.138,340,112.552,340,112.966,340C113.379,340,113.793,340,114.207,340C114.621,340,115.034,340,115.448,340C115.862,340,116.276,340,116.69,340C117.103,340,117.517,340,117.931,340C118.345,340,118.759,340,119.172,340C119.586,340,120,340,120.414,340C120.828,340,121.241,340,121.655,340C122.069,340,122.483,340,122.897,340C123.31,340,123.724,340,124.138,340C124.552,340,124.966,340,125.379,340C125.793,340,126.207,340,126.621,340C127.034,340,127.448,340,127.862,340C128.276,340,128.69,340,129.103,340C129.517,340,129.931,340,130.345,340C130.759,340,131.172,340,131.586,340C132,340,132.414,340,132.828,340C133.241,340,133.655,340,134.069,340C134.483,340,134.897,340,135.31,340C135.724,340,136.138,340,136.552,340C136.966,340,137.379,340,137.793,340C138.207,340,138.621,340,139.034,340C139.448,340,139.862,340,140.276,340C140.69,340,141.103,340,141.517,340C141.931,340,142.345,340,142.759,340C143.172,340,143.586,340,144,340C144.414,340,144.828,340,145.241,340C145.655,340,146.069,340,146.483,340C146.897,340,147.31,340,147.724,340C148.138,340,148.552,340,148.966,340C149.379,340,149.793,340,150.207,340C150.621,340,151.034,340,151.448,340C151.862,340,152.276,340,152.69,340C153.103,340,153.517,340,153.931,340C154.345,340,154.759,340,155.172,340C155.586,340,156,340,156.414,340C156.828,340,157.241,340,157.655,340C158.069,340,158.483,340,158.897,340C159.31,340,159.724,340,160.138,340C160.552,340,160.966,340,161.379,340C161.793,340,162.207,340,162.621,340C163.034,340,163.448,340,163.862,340C164.276,340,164.69,340,165.103,340C165.517,340,165.931,340,166.345,340C166.759,340,167.172,340,167.586,340C168,340,168.414,340,168.828,340C169.241,340,169.655,340,170.069,340C170.483,340,170.897,340,171.31,340C171.724,340,172.138,340,172.552,340C172.966,340,173.379,340,173.793,340C174.207,340,174.621,340,175.034,340C175.448,340,175.862,340,176.276,340C176.69,340,177.103,340,177.517,340C177.931,340,178.345,340,178.759,340C179.172,340,179.586,340,180,340C180.414,340,180.828,340,181.241,340C181.655,340,182.069,340,182.483,340C182.897,340,183.31,340,183.724,340C184.138,340,184.552,340,184.966,340C185.379,340,185.793,340,186.207,340C186.621,340,187.034,340,187.448,340C187.862,340,188.276,340,188.69,340C189.103,340,189.517,340,189.931,340C190.345,340,190.759,340,191.172,340C191.586,340,192,340,192.414,340C192.828,340,193.241,340,193.655,340C194.069,340,194.483,340,194.897,340C195.31,340,195.724,340,196.138,340C196.552,340,196.966,340,197.379,340C197.793,340,198.207,340,198.621,340C199.034,340,199.448,340,199.862,340C200.276,340,200.69,340,201.103,340C201.517,340,201.931,340,202.345,340C202.759,340,203.172,340,203.586,340C204,340,204.414,340,204.828,340C205.241,340,205.655,340,206.069,340C206.483,340,206.897,340,207.31,340C207.724,340,208.138,340,208.552,340C208.966,340,209.379,340,209.793,340C210.207,340,210.621,340,211.034,340C211.448,340,211.862,340,212.276,340C212.69,340,213.103,340,213.517,340C213.931,340,214.345,340,214.759,340C215.172,340,215.586,340,216,340C216.414,340,216.828,340,217.241,340C217.655,340,218.069,340,218.483,340C218.897,340,219.31,340,219.724,340C220.138,340,220.552,340,220.966,340C221.379,340,221.793,340,222.207,340C222.621,340,223.034,340,223.448,340C223.862,340,224.276,340,224.69,340C225.103,340,225.517,340,225.931,340C226.345,340,226.759,340,227.172,340C227.586,340,228,340,228.414,340C228.828,340,229.241,340,229.655,340C230.069,340,230.483,340,230.897,340C231.31,340,231.724,340,232.138,340C232.552,340,232.966,340,233.379,340C233.793,340,234.207,340,234.621,340C235.034,340,235.448,340,235.862,340C236.276,340,236.69,340,237.103,340C237.517,340,237.931,340,238.345,340C238.759,340,239.172,340,239.586,340C240,340,240.414,340,240.828,340C241.241,340,241.655,340,242.069,340C242.483,340,242.897,340,243.31,340C243.724,340,244.138,340,244.552,340C244.966,340,245.379,340,245.793,340C246.207,340,246.621,340,247.034,340C247.448,340,247.862,340,248.276,340C248.69,340,249.103,340,249.517,340C249.931,340,250.345,340,250.759,340C251.172,340,251.586,340,252,340C252.414,340,252.828,340,253.241,340C253.655,340,254.069,340,254.483,340C254.897,340,255.31,340,255.724,340C256.138,340,256.552,340,256.966,340C257.379,340,257.793,340,258.207,340C258.621,340,259.034,340,259.448,340C259.862,340,260.276,340,260.69,340C261.103,340,261.517,340,261.931,340C262.345,340,262.759,340,263.172,340C263.586,340,264,340,264.414,340C264.828,340,265.241,340,265.655,340C266.069,340,266.483,340,266.897,340C267.31,340,267.724,340,268.138,340C268.552,340,268.966,340,269.379,340C269.793,340,270.207,340,270.621,340C271.034,340,271.448,340,271.862,340C272.276,340,272.69,340,273.103,340C273.517,340,273.931,340,274.345,340C274.759,340,275.172,340,275.586,340C276,340,276.414,340,276.828,340C277.241,340,277.655,340,278.069,340C278.483,340,278.897,340,279.31,340C279.724,340,280.138,340,280.552,340C280.966,340,281.379,340,281.793,340C282.207,340,282.621,340,283.034,340C283.448,340,283.862,340,284.276,340C284.69,340,285.103,340,285.517,340C285.931,340,286.345,340,286.759,340C287.172,340,287.586,340,288,340C288.414,340,288.828,340,289.241,340C289.655,340,290.069,340,290.483,340C290.897,340,291.31,340,291.724,340C292.138,340,292.552,340,292.966,340C293.379,340,293.793,340,294.207,340C294.621,340,295.034,340,295.448,340C295.862,340,296.276,340,296.69,340C297.103,340,297.517,340,297.931,340C298.345,340,298.759,340,299.172,340C299.586,340,300,340,300.414,340C300.828,340,301.241,340,301.655,340C302.069,340,302.483,340,302.897,340C303.31,340,303.724,340,304.138,340C304.552,340,304.966,340,305.379,340C305.793,340,306.207,340,306.621,340C307.034,340,307.448,340,307.862,340C308.276,340,308.69,340,309.103,340C309.517,340,309.931,340,310.345,340C310.759,340,311.172,340,311.586,340C312,340,312.414,340,312.828,340C313.241,340,313.655,340,314.069,340C314.483,340,314.897,340,315.31,340C315.724,340,316.138,340,316.552,340C316.966,340,317.379,340,317.793,340C318.207,340,318.621,340,319.034,340C319.448,340,319.862,340,320.276,340C320.69,340,321.103,340,321.517,340C321.931,340,322.345,340,322.759,340C323.172,340,323.586,340,324,340C324.414,340,324.828,340,325.241,340C325.655,340,326.069,340,326.483,340C326.897,340,327.31,340,327.724,340C328.138,340,328.552,340,328.966,340C329.379,340,329.793,340,330.207,340C330.621,340,331.034,340,331.448,340C331.862,340,332.276,340,332.69,340C333.103,340,333.517,340,333.931,340C334.345,340,334.759,340,335.172,340C335.586,340,336,340,336.414,340C336.828,340,337.241,340,337.655,340C338.069,340,338.483,340,338.897,340C339.31,340,339.724,340,340.138,340C340.552,340,340.966,340,341.379,340C341.793,340,342.207,340,342.621,340C343.034,340,343.448,340,343.862,340C344.276,340,344.69,340,345.103,340C345.517,340,345.931,340,346.345,340C346.759,340,347.172,340,347.586,340C348,340,348.414,340,348.828,340C349.241,340,349.655,340,350.069,340C350.483,340,350.897,340,351.31,340C351.724,340,352.138,340,352.552,340C352.966,340,353.379,340,353.793,340C354.207,340,354.621,340,355.034,340C355.448,340,355.862,340,356.276,340C356.69,340,357.103,340,357.517,340C357.931,340,358.345,340,358.759,340C359.172,340,359.586,340,360,340C360.414,340,360.828,340,361.241,340C361.655,340,362.069,340,362.483,340C362.897,340,363.31,340,363.724,340C364.138,340,364.552,340,364.966,340C365.379,340,365.793,340,366.207,340C366.621,340,367.034,340,367.448,340C367.862,340,368.276,340,368.69,340C369.103,340,369.517,340,369.931,340C370.345,340,370.759,340,371.172,340C371.586,340,372,340,372.414,340C372.828,340,373.241,340,373.655,340C374.069,340,374.483,340,374.897,340C375.31,340,375.724,340,376.138,340C376.552,340,376.966,340,377.379,340C377.793,340,378.207,340,378.621,340C379.034,340,379.448,340,379.862,340C380.276,340,380.69,340,381.103,340C381.517,340,381.931,340,382.345,340C382.759,340,383.172,340,383.586,340C384,340,384.414,340,384.828,340C385.241,340,385.655,340,386.069,340C386.483,340,386.897,340,387.31,340C387.724,340,388.138,340,388.552,340C388.966,340,389.379,340,389.793,340C390.207,340,390.621,340,391.034,340C391.448,340,391.862,340,392.276,340C392.69,340,393.103,340,393.517,340C393.931,340,394.345,340,394.759,340C395.172,340,395.586,340,396,340C396.414,340,396.828,340,397.241,340C397.655,340,398.069,340,398.483,340C398.897,340,399.31,340,399.724,340C400.138,340,400.552,340,400.966,340C401.379,340,401.793,340,402.207,340C402.621,340,403.034,340,403.448,340C403.862,340,404.276,340,404.69,340C405.103,340,405.517,340,405.931,340C406.345,340,406.759,340,407.172,340C407.586,340,408,340,408.414,340C408.828,340,409.241,340,409.655,340C410.069,340,410.483,340,410.897,340C411.31,340,411.724,340,412.138,340C412.552,340,412.966,340,413.379,340C413.793,340,414.207,340,414.621,340C415.034,340,415.448,340,415.862,340C416.276,340,416.69,340,417.103,340C417.517,340,417.931,340,418.345,340C418.759,340,419.172,0,419.586,0C420,0,420.414,0,420.828,0C421.241,0,421.655,0,422.069,0C422.483,0,422.897,0,423.31,0C423.724,0,424.138,0,424.552,0C424.966,0,425.379,0,425.793,0C426.207,0,426.621,0,427.034,0C427.448,0,427.862,0,428.276,0C428.69,0,429.103,0,429.517,0C429.931,0,430.345,0,430.759,0C431.172,0,431.586,0,432,0C432.414,0,432.828,0,433.241,0C433.655,0,434.069,0,434.483,0C434.897,0,435.31,0,435.724,0C436.138,0,436.552,0,436.966,0C437.379,0,437.793,0,438.207,0C438.621,0,439.034,0,439.448,0C439.862,0,440.276,0,440.69,0C441.103,0,441.517,0,441.931,0C442.345,0,442.759,0,443.172,0C443.586,0,444,0,444.414,0C444.828,0,445.241,0,445.655,0C446.069,0,446.483,0,446.897,0C447.31,0,447.724,0,448.138,0C448.552,0,448.966,0,449.379,0C449.793,0,450.207,0,450.621,0C451.034,0,451.448,0,451.862,0C452.276,0,452.69,0,453.103,0C453.517,0,453.931,0,454.345,0C454.759,0,455.172,0,455.586,0C456,0,456.414,0,456.828,0C457.241,0,457.655,0,458.069,0C458.483,0,458.897,0,459.31,0C459.724,0,460.138,0,460.552,0C460.966,0,461.379,0,461.793,0C462.207,0,462.621,0,463.034,0C463.448,0,463.862,0,464.276,0C464.69,0,465.103,0,465.517,0C465.931,0,466.345,0,466.759,0C467.172,0,467.586,0,468,0C468.414,0,468.828,0,469.241,0C469.655,0,470.069,0,470.483,0C470.897,0,471.31,0,471.724,0C472.138,0,472.552,0,472.966,0C473.379,0,473.793,0,474.207,0C474.621,0,475.034,0,475.448,0C475.862,0,476.276,0,476.69,0C477.103,0,477.517,0,477.931,0C478.345,0,478.759,0,479.172,0C479.586,0,480,0,480.414,0C480.828,0,481.241,0,481.655,0C482.069,0,482.483,0,482.897,0C483.31,0,483.724,0,484.138,0C484.552,0,484.966,0,485.379,0C485.793,0,486.207,0,486.621,0C487.034,0,487.448,0,487.862,0C488.276,0,488.69,0,489.103,0C489.517,0,489.931,0,490.345,0C490.759,0,491.172,0,491.586,0C492,0,492.414,0,492.828,0C493.241,0,493.655,0,494.069,0C494.483,0,494.897,0,495.31,0C495.724,0,496.138,0,496.552,0C496.966,0,497.379,0,497.793,0C498.207,0,498.621,0,499.034,0C499.448,0,499.862,0,500.276,0C500.69,0,501.103,0,501.517,0C501.931,0,502.345,0,502.759,0C503.172,0,503.586,0,504,0C504.414,0,504.828,0,505.241,0C505.655,0,506.069,0,506.483,0C506.897,0,507.31,0,507.724,0C508.138,0,508.552,0,508.966,0C509.379,0,509.793,0,510.207,0C510.621,0,511.034,0,511.448,0C511.862,0,512.276,0,512.69,0C513.103,0,513.517,0,513.931,0C514.345,0,514.759,0,515.172,0C515.586,0,516,0,516.414,0C516.828,0,517.241,0,517.655,0C518.069,0,518.483,0,518.897,0C519.31,0,519.724,0,520.138,0C520.552,0,520.966,0,521.379,0C521.793,0,522.207,0,522.621,0C523.034,0,523.448,0,523.862,0C524.276,0,524.69,0,525.103,0C525.517,0,525.931,0,526.345,0C526.759,0,527.172,0,527.586,0C528,0,528.414,0,528.828,0C529.241,0,529.655,0,530.069,0C530.483,0,530.897,0,531.31,0C531.724,0,532.138,0,532.552,0C532.966,0,533.379,0,533.793,0C534.207,0,534.621,0,535.034,0C535.448,0,535.862,0,536.276,0C536.69,0,537.103,0,537.517,0C537.931,0,538.345,0,538.759,0C539.172,0,539.586,0,540,0C540.414,0,540.828,0,541.241,0C541.655,0,542.069,0,542.483,0C542.897,0,543.31,0,543.724,0C544.138,0,544.552,0,544.966,0C545.379,0,545.793,0,546.207,0C546.621,0,547.034,0,547.448,0C547.862,0,548.276,0,548.69,0C549.103,0,549.517,0,549.931,0C550.345,0,550.759,0,551.172,0C551.586,0,552,0,552.414,0C552.828,0,553.241,0,553.655,0C554.069,0,554.483,0,554.897,0C555.31,0,555.724,0,556.138,0C556.552,0,556.966,0,557.379,0C557.793,0,558.207,0,558.621,0C559.034,0,559.448,0,559.862,0C560.276,0,560.69,0,561.103,0C561.517,0,561.931,0,562.345,0C562.759,0,563.172,0,563.586,0C564,0,564.414,0,564.828,0C565.241,0,565.655,0,566.069,0C566.483,0,566.897,0,567.31,0C567.724,0,568.138,0,568.552,0C568.966,0,569.379,0,569.793,0C570.207,0,570.621,0,571.034,0C571.448,0,571.862,0,572.276,0C572.69,0,573.103,0,573.517,0C573.931,0,574.345,0,574.759,0C575.172,0,575.586,0,576,0C576.414,0,576.828,0,577.241,0C577.655,0,578.069,0,578.483,0C578.897,0,579.31,0,579.724,0C580.138,0,580.552,0,580.966,0C581.379,0,581.793,0,582.207,0C582.621,0,583.034,0,583.448,0C583.862,0,584.276,0,584.69,0C585.103,0,585.517,0,585.931,0C586.345,0,586.759,0,587.172,0C587.586,0,588,0,588.414,0C588.828,0,589.241,0,589.655,0C590.069,0,590.483,0,590.897,0C591.31,0,591.724,0,592.138,0C592.552,0,592.966,0,593.379,0C593.793,0,594.207,0,594.621,0C595.034,0,595.448,0,595.862,0C596.276,0,596.69,0,597.103,0C597.517,0,597.931,0,598.345,0C598.759,0,599.172,0,599.586,0C600,0,600.414,0,600.828,0C601.241,0,601.655,0,602.069,0C602.483,0,602.897,0,603.31,0C603.724,0,604.138,0,604.552,0C604.966,0,605.379,0,605.793,0C606.207,0,606.621,0,607.034,0C607.448,0,607.862,0,608.276,0C608.69,0,609.103,0,609.517,0C609.931,0,610.345,0,610.759,0C611.172,0,611.586,0,612,0C612.414,0,612.828,0,613.241,0C613.655,0,614.069,0,614.483,0C614.897,0,615.31,0,615.724,0C616.138,0,616.552,0,616.966,0C617.379,0,617.793,0,618.207,0C618.621,0,619.034,0,619.448,0C619.862,0,620.276,0,620.69,0C621.103,0,621.517,0,621.931,0C622.345,0,622.759,0,623.172,0C623.586,0,624,0,624.414,0C624.828,0,625.241,0,625.655,0C626.069,0,626.483,0,626.897,0C627.31,0,627.724,0,628.138,0C628.552,0,628.966,0,629.379,0C629.793,0,630.207,0,630.621,0C631.034,0,631.448,0,631.862,0C632.276,0,632.69,0,633.103,0C633.517,0,633.931,0,634.345,0C634.759,0,635.172,0,635.586,0C636,0,636.414,0,636.828,0C637.241,0,637.655,0,638.069,0C638.483,0,638.897,0,639.31,0C639.724,0,640.138,0,640.552,0C640.966,0,641.379,0,641.793,0C642.207,0,642.621,0,643.034,0C643.448,0,643.862,0,644.276,0C644.69,0,645.103,0,645.517,0C645.931,0,646.345,0,646.759,0C647.172,0,647.586,0,648,0C648.414,0,648.828,0,649.241,0C649.655,0,650.069,0,650.483,0C650.897,0,651.31,0,651.724,0C652.138,0,652.552,0,652.966,0C653.379,0,653.793,0,654.207,0C654.621,0,655.034,0,655.448,0C655.862,0,656.276,0,656.69,0C657.103,0,657.517,0,657.931,0C658.345,0,658.759,0,659.172,0C659.586,0,660,0,660.414,0C660.828,0,661.241,0,661.655,0C662.069,0,662.483,0,662.897,0C663.31,0,663.724,0,664.138,0C664.552,0,664.966,0,665.379,0C665.793,0,666.207,0,666.621,0C667.034,0,667.448,0,667.862,0C668.276,0,668.69,0,669.103,0C669.517,0,669.931,0,670.345,0C670.759,0,671.172,0,671.586,0C672,0,672.414,0,672.828,0C673.241,0,673.655,0,674.069,0C674.483,0,674.897,0,675.31,0C675.724,0,676.138,0,676.552,0C676.966,0,677.379,0,677.793,0C678.207,0,678.621,0,679.034,0C679.448,0,679.862,0,680.276,0C680.69,0,681.103,0,681.517,0C681.931,0,682.345,0,682.759,0C683.172,0,683.586,0,684,0C684.414,0,684.828,0,685.241,0C685.655,0,686.069,0,686.483,0C686.897,0,687.31,0,687.724,0C688.138,0,688.552,0,688.966,0C689.379,0,689.793,0,690.207,0C690.621,0,691.034,0,691.448,0C691.862,0,692.276,0,692.69,0C693.103,0,693.517,0,693.931,0C694.345,0,694.759,0,695.172,0C695.586,0,696,0,696.414,0C696.828,0,697.241,0,697.655,0C698.069,0,698.483,0,698.897,0C699.31,0,699.724,0,700.138,0C700.552,0,700.966,0,701.379,0C701.793,0,702.207,0,702.621,0C703.034,0,703.448,0,703.862,0C704.276,0,704.69,0,705.103,0C705.517,0,705.931,0,706.345,0C706.759,0,707.172,0,707.586,0C708,0,708.414,0,708.828,0C709.241,0,709.655,0,710.069,0C710.483,0,710.897,0,711.31,0C711.724,0,712.138,0,712.552,0C712.966,0,713.379,0,713.793,0C714.207,0,714.621,0,715.034,0C715.448,0,715.862,0,716.276,0C716.69,0,717.103,0,717.517,0C717.931,0,718.345,0,718.759,0C719.172,0,719.586,0,720,0"></path><circle class="dot" cx="0" cy="340" r="3" fill="#2563eb"></circle><circle class="dot" cx="1.2413793103448276" cy="340" r="3" fill="#2563eb"></circle><circle class="dot" cx="2.4827586206896552" cy="340" r="3" fill="#2563eb"></circle><circle class="dot" cx="3.7241379310344827" cy="340" r="3" fill="#2563eb"></circle><circle class="dot" cx="4.9655172413793105" cy="340" r="3" fill="#2563eb"></circle><circle class="dot" cx="6.206896551724138" cy="340" r="3" fill="#2563eb"></circle><circle class="dot" cx="7.448275862068965" cy="340" r="3" fill="#2563eb"></circle><circle class="dot" cx="8.689655172413794" cy="340" r="3" fill="#2563eb"></circle><circle class="dot" cx="9.931034482758621" cy="340" r="3" fill="#2563eb"></circle><circle class="dot" cx="11.172413793103448" cy="340" r="3" fill="#2563eb"></circle><circle class="dot" cx="12.413793103448276" cy="340" r="3" fill="#2563eb"></circle><circle class="dot" cx="13.655172413793103" cy="340" r="3" fill="#2563eb"></circle><circle class="dot" cx="14.89655172413793" cy="340" r="3" fill="#2563eb"></circle><circle class="dot" cx="16.137931034482758" cy="340" r="3" fill="#2563eb"></circle><circle class="dot" cx="17.379310344827587" cy="340" r="3" fill="#2563eb"></circle><circle class="dot" cx="18.620689655172413" cy="340" r="3" fill="#2563eb"></circle><circle class="dot" cx="19.862068965517242" cy="340" r="3" fill="#2563eb"></circle><circle class="dot" cx="21.103448275862068" cy="340" r="3" fill="#2563eb"></circle><circle class="dot" cx="22.344827586206897" cy="340" r="3" fill="#2563eb"></circle><circle class="dot" cx="23.586206896551726" cy="340" r="3" fill="#2563eb"></circle><circle class="dot" cx="24.82758620689655" cy="340" r="3" fill="#2563eb"></circle><circle class="dot" cx="26.06896551724138" cy="340" r="3" fill="#2563eb"></circle><circle class="dot" cx="27.310344827586206" cy="340" r="3" fill="#2563eb"></circle><circle class="dot" cx="28.551724137931036" cy="340" r="3" fill="#2563eb"></circle><circle class="dot" cx="29.79310344827586" cy="340" r="3" fill="#2563eb"></circle><circle class="dot" cx="31.03448275862069" cy="340" r="3" fill="#2563eb"></circle><circle class="dot" cx="32.275862068965516" cy="340" r="3" fill="#2563eb"></circle><circle class="dot" cx="33.51724137931035" cy="340" r="3" fill="#2563eb"></circle><circle class="dot" cx="34.758620689655174" cy="340" r="3" fill="#2563eb"></circle><circle class="dot" cx="36" cy="340" r="3" fill="#2563eb"></circle><circle class="dot" cx="37.241379310344826" cy="340" r="3" fill="#2563eb"></circle><circle class="dot" cx="38.48275862068966" cy="340" r="3" fill="#2563eb"></circle><circle class="dot" cx="39.724137931034484" cy="340" r="3" fill="#2563eb"></circle><circle class="dot" cx="40.96551724137931" cy="340" r="3" fill="#2563eb"></circle><circle class="dot" cx="42.206896551724135" cy="340" r="3" fill="#2563eb"></circle><circle class="dot" cx="43.44827586206897" cy="340" r="3" fill="#2563eb"></circle><circle class="dot" cx="44.689655172413794" cy="340" r="3" fill="#2563eb"></circle><circle class="dot" cx="45.93103448275862" cy="340" r="3" fill="#2563eb"></circle><circle class="dot" cx="47.17241379310345" cy="340" r="3" fill="#2563eb"></circle><circle class="dot" cx="48.41379310344827" cy="340" r="3" fill="#2563eb"></circle><circle class="dot" cx="49.6551724137931" cy="340" r="3" fill="#2563eb"></circle><circle class="dot" cx="50.896551724137936" cy="340" r="3" fill="#2563eb"></circle><circle class="dot" cx="52.13793103448276" cy="340" r="3" fill="#2563eb"></circle><circle class="dot" cx="53.37931034482758" cy="340" r="3" fill="#2563eb"></circle><circle class="dot" cx="54.62068965517241" cy="340" r="3" fill="#2563eb"></circle><circle class="dot" cx="55.862068965517246" cy="340" r="3" fill="#2563eb"></circle><circle class="dot" cx="57.10344827586207" cy="340" r="3" fill="#2563eb"></circle><circle class="dot" cx="58.34482758620689" cy="340" r="3" fill="#2563eb"></circle><circle class="dot" cx="59.58620689655172" cy="340" r="3" fill="#2563eb"></circle><circle class="dot" cx="60.827586206896555" cy="340" r="3" fill="#2563eb"></circle><circle class="dot" cx="62.06896551724138" cy="340" r="3" fill="#2563eb"></circle><circle class="dot" cx="63.310344827586206" cy="340" r="3" fill="#2563eb"></circle><circle class="dot" cx="64.55172413793103" cy="340" r="3" fill="#2563eb"></circle><circle class="dot" cx="65.79310344827586" cy="340" r="3" fill="#2563eb"></circle><circle class="dot" cx="67.0344827586207" cy="340" r="3" fill="#2563eb"></circle><circle class="dot" cx="68.27586206896551" cy="340" r="3" fill="#2563eb"></circle><circle class="dot" cx="69.51724137931035" cy="340" r="3" fill="#2563eb"></circle><circle class="dot" cx="70.75862068965517" cy="340" r="3" fill="#2563eb"></circle><circle class="dot" cx="72" cy="340" r="3" fill="#2563eb"></circle><circle class="dot" cx="73.24137931034483" cy="340" r="3" fill="#2563eb"></circle><circle class="dot" cx="74.48275862068965" cy="340" r="3" fill="#2563eb"></circle><circle class="dot" cx="75.72413793103449" cy="340" r="3" fill="#2563eb"></circle><circle class="dot" cx="76.96551724137932" cy="340" r="3" fill="#2563eb"></circle><circle class="dot" cx="78.20689655172413" cy="340" r="3" fill="#2563eb"></circle><circle class="dot" cx="79.44827586206897" cy="340" r="3" fill="#2563eb"></circle><circle class="dot" cx="80.6896551724138" cy="340" r="3" fill="#2563eb"></circle><circle class="dot" cx="81.93103448275862" cy="340" r="3" fill="#2563eb"></circle><circle class="dot" cx="83.17241379310344" cy="340" r="3" fill="#2563eb"></circle><circle class="dot" cx="84.41379310344827" cy="340" r="3" fill="#2563eb"></circle><circle class="dot" cx="85.65517241379311" cy="340" r="3" fill="#2563eb"></circle><circle class="dot" cx="86.89655172413794" cy="340" r="3" fill="#2563eb"></circle><circle class="dot" cx="88.13793103448276" cy="340" r="3" fill="#2563eb"></circle><circle class="dot" cx="89.37931034482759" cy="340" r="3" fill="#2563eb"></circle><circle class="dot" cx="90.62068965517241" cy="340" r="3" fill="#2563eb"></circle><circle class="dot" cx="91.86206896551724" cy="340" r="3" fill="#2563eb"></circle><circle class="dot" cx="93.10344827586208" cy="340" r="3" fill="#2563eb"></circle><circle class="dot" cx="94.3448275862069" cy="340" r="3" fill="#2563eb"></circle><circle class="dot" cx="95.58620689655172" cy="340" r="3" fill="#2563eb"></circle><circle class="dot" cx="96.82758620689654" cy="340" r="3" fill="#2563eb"></circle><circle class="dot" cx="98.06896551724138" cy="340" r="3" fill="#2563eb"></circle><circle class="dot" cx="99.3103448275862" cy="340" r="3" fill="#2563eb"></circle><circle class="dot" cx="100.55172413793103" cy="340" r="3" fill="#2563eb"></circle><circle class="dot" cx="101.79310344827587" cy="340" r="3" fill="#2563eb"></circle><circle class="dot" cx="103.0344827586207" cy="340" r="3" fill="#2563eb"></circle><circle class="dot" cx="104.27586206896552" cy="340" r="3" fill="#2563eb"></circle><circle class="dot" cx="105.51724137931033" cy="340" r="3" fill="#2563eb"></circle><circle class="dot" cx="106.75862068965516" cy="340" r="3" fill="#2563eb"></circle><circle class="dot" cx="108" cy="340" r="3" fill="#2563eb"></circle><circle class="dot" cx="109.24137931034483" cy="340" r="3" fill="#2563eb"></circle><circle class="dot" cx="110.48275862068965" cy="340" r="3" fill="#2563eb"></circle><circle class="dot" cx="111.72413793103449" cy="340" r="3" fill="#2563eb"></circle><circle class="dot" cx="112.96551724137932" cy="340" r="3" fill="#2563eb"></circle><circle class="dot" cx="114.20689655172414" cy="340" r="3" fill="#2563eb"></circle><circle class="dot" cx="115.44827586206895" cy="340" r="3" fill="#2563eb"></circle><circle class="dot" cx="116.68965517241378" cy="340" r="3" fill="#2563eb"></circle><circle class="dot" cx="117.93103448275862" cy="340" r="3" fill="#2563eb"></circle><circle class="dot" cx="119.17241379310344" cy="340" r="3" fill="#2563eb"></circle><circle class="dot" cx="120.41379310344827" cy="340" r="3" fill="#2563eb"></circle><circle class="dot" cx="121.65517241379311" cy="340" r="3" fill="#2563eb"></circle><circle class="dot" cx="122.89655172413794" cy="340" r="3" fill="#2563eb"></circle><circle class="dot" cx="124.13793103448276" cy="340" r="3" fill="#2563eb"></circle><circle class="dot" cx="125.37931034482757" cy="340" r="3" fill="#2563eb"></circle><circle class="dot" cx="126.62068965517241" cy="340" r="3" fill="#2563eb"></circle><circle class="dot" cx="127.86206896551724" cy="340" r="3" fill="#2563eb"></circle><circle class="dot" cx="129.10344827586206" cy="340" r="3" fill="#2563eb"></circle><circle class="dot" cx="130.3448275862069" cy="340" r="3" fill="#2563eb"></circle><circle class="dot" cx="131.58620689655172" cy="340" r="3" fill="#2563eb"></circle><circle class="dot" cx="132.82758620689657" cy="340" r="3" fill="#2563eb"></circle><circle class="dot" cx="134.0689655172414" cy="340" r="3" fill="#2563eb"></circle><circle class="dot" cx="135.3103448275862" cy="340" r="3" fill="#2563eb"></circle><circle class="dot" cx="136.55172413793102" cy="340" r="3" fill="#2563eb"></circle><circle class="dot" cx="137.79310344827587" cy="340" r="3" fill="#2563eb"></circle><circle class="dot" cx="139.0344827586207" cy="340" r="3" fill="#2563eb"></circle><circle class="dot" cx="140.27586206896552" cy="340" r="3" fill="#2563eb"></circle><circle class="dot" cx="141.51724137931035" cy="340" r="3" fill="#2563eb"></circle><circle class="dot" cx="142.75862068965517" cy="340" r="3" fill="#2563eb"></circle><circle class="dot" cx="144" cy="340" r="3" fill="#2563eb"></circle><circle class="dot" cx="145.24137931034483" cy="340" r="3" fill="#2563eb"></circle><circle class="dot" cx="146.48275862068965" cy="340" r="3" fill="#2563eb"></circle><circle class="dot" cx="147.72413793103448" cy="340" r="3" fill="#2563eb"></circle><circle class="dot" cx="148.9655172413793" cy="340" r="3" fill="#2563eb"></circle><circle class="dot" cx="150.20689655172413" cy="340" r="3" fill="#2563eb"></circle><circle class="dot" cx="151.44827586206898" cy="340" r="3" fill="#2563eb"></circle><circle class="dot" cx="152.6896551724138" cy="340" r="3" fill="#2563eb"></circle><circle class="dot" cx="153.93103448275863" cy="340" r="3" fill="#2563eb"></circle><circle class="dot" cx="155.17241379310343" cy="340" r="3" fill="#2563eb"></circle><circle class="dot" cx="156.41379310344826" cy="340" r="3" fill="#2563eb"></circle><circle class="dot" cx="157.6551724137931" cy="340" r="3" fill="#2563eb"></circle><circle class="dot" cx="158.89655172413794" cy="340" r="3" fill="#2563eb"></circle><circle class="dot" cx="160.13793103448276" cy="340" r="3" fill="#2563eb"></circle><circle class="dot" cx="161.3793103448276" cy="340" r="3" fill="#2563eb"></circle><circle class="dot" cx="162.6206896551724" cy="340" r="3" fill="#2563eb"></circle><circle class="dot" cx="163.86206896551724" cy="340" r="3" fill="#2563eb"></circle><circle class="dot" cx="165.10344827586206" cy="340" r="3" fill="#2563eb"></circle><circle class="dot" cx="166.3448275862069" cy="340" r="3" fill="#2563eb"></circle><circle class="dot" cx="167.58620689655172" cy="340" r="3" fill="#2563eb"></circle><circle class="dot" cx="168.82758620689654" cy="340" r="3" fill="#2563eb"></circle><circle class="dot" cx="170.06896551724137" cy="340" r="3" fill="#2563eb"></circle><circle class="dot" cx="171.31034482758622" cy="340" r="3" fill="#2563eb"></circle><circle class="dot" cx="172.55172413793105" cy="340" r="3" fill="#2563eb"></circle><circle class="dot" cx="173.79310344827587" cy="340" r="3" fill="#2563eb"></circle><circle class="dot" cx="175.03448275862067" cy="340" r="3" fill="#2563eb"></circle><circle class="dot" cx="176.27586206896552" cy="340" r="3" fill="#2563eb"></circle><circle class="dot" cx="177.51724137931035" cy="340" r="3" fill="#2563eb"></circle><circle class="dot" cx="178.75862068965517" cy="340" r="3" fill="#2563eb"></circle><circle class="dot" cx="180" cy="340" r="3" fill="#2563eb"></circle><circle class="dot" cx="181.24137931034483" cy="340" r="3" fill="#2563eb"></circle><circle class="dot" cx="182.48275862068965" cy="340" r="3" fill="#2563eb"></circle><circle class="dot" cx="183.72413793103448" cy="340" r="3" fill="#2563eb"></circle><circle class="dot" cx="184.96551724137933" cy="340" r="3" fill="#2563eb"></circle><circle class="dot" cx="186.20689655172416" cy="340" r="3" fill="#2563eb"></circle><circle class="dot" cx="187.44827586206898" cy="340" r="3" fill="#2563eb"></circle><circle class="dot" cx="188.6896551724138" cy="340" r="3" fill="#2563eb"></circle><circle class="dot" cx="189.93103448275863" cy="340" r="3" fill="#2563eb"></circle><circle class="dot" cx="191.17241379310343" cy="340" r="3" fill="#2563eb"></circle><circle class="dot" cx="192.41379310344826" cy="340" r="3" fill="#2563eb"></circle><circle class="dot" cx="193.65517241379308" cy="340" r="3" fill="#2563eb"></circle><circle class="dot" cx="194.8965517241379" cy="340" r="3" fill="#2563eb"></circle><circle class="dot" cx="196.13793103448276" cy="340" r="3" fill="#2563eb"></circle><circle class="dot" cx="197.3793103448276" cy="340" r="3" fill="#2563eb"></circle><circle class="dot" cx="198.6206896551724" cy="340" r="3" fill="#2563eb"></circle><circle class="dot" cx="199.86206896551724" cy="340" r="3" fill="#2563eb"></circle><circle class="dot" cx="201.10344827586206" cy="340" r="3" fill="#2563eb"></circle><circle class="dot" cx="202.3448275862069" cy="340" r="3" fill="#2563eb"></circle><circle class="dot" cx="203.58620689655174" cy="340" r="3" fill="#2563eb"></circle><circle class="dot" cx="204.82758620689657" cy="340" r="3" fill="#2563eb"></circle><circle class="dot" cx="206.0689655172414" cy="340" r="3" fill="#2563eb"></circle><circle class="dot" cx="207.31034482758622" cy="340" r="3" fill="#2563eb"></circle><circle class="dot" cx="208.55172413793105" cy="340" r="3" fill="#2563eb"></circle><circle class="dot" cx="209.79310344827587" cy="340" r="3" fill="#2563eb"></circle><circle class="dot" cx="211.03448275862067" cy="340" r="3" fill="#2563eb"></circle><circle class="dot" cx="212.2758620689655" cy="340" r="3" fill="#2563eb"></circle><circle class="dot" cx="213.51724137931032" cy="340" r="3" fill="#2563eb"></circle><circle class="dot" cx="214.75862068965517" cy="340" r="3" fill="#2563eb"></circle><circle class="dot" cx="216" cy="340" r="3" fill="#2563eb"></circle><circle class="dot" cx="217.24137931034483" cy="340" r="3" fill="#2563eb"></circle><circle class="dot" cx="218.48275862068965" cy="340" r="3" fill="#2563eb"></circle><circle class="dot" cx="219.72413793103448" cy="340" r="3" fill="#2563eb"></circle><circle class="dot" cx="220.9655172413793" cy="340" r="3" fill="#2563eb"></circle><circle class="dot" cx="222.20689655172413" cy="340" r="3" fill="#2563eb"></circle><circle class="dot" cx="223.44827586206898" cy="340" r="3" fill="#2563eb"></circle><circle class="dot" cx="224.6896551724138" cy="340" r="3" fill="#2563eb"></circle><circle class="dot" cx="225.93103448275863" cy="340" r="3" fill="#2563eb"></circle><circle class="dot" cx="227.17241379310346" cy="340" r="3" fill="#2563eb"></circle><circle class="dot" cx="228.41379310344828" cy="340" r="3" fill="#2563eb"></circle><circle class="dot" cx="229.6551724137931" cy="340" r="3" fill="#2563eb"></circle><circle class="dot" cx="230.8965517241379" cy="340" r="3" fill="#2563eb"></circle><circle class="dot" cx="232.13793103448273" cy="340" r="3" fill="#2563eb"></circle><circle class="dot" cx="233.37931034482756" cy="340" r="3" fill="#2563eb"></circle><circle class="dot" cx="234.6206896551724" cy="340" r="3" fill="#2563eb"></circle><circle class="dot" cx="235.86206896551724" cy="340" r="3" fill="#2563eb"></circle><circle class="dot" cx="237.10344827586206" cy="340" r="3" fill="#2563eb"></circle><circle class="dot" cx="238.3448275862069" cy="340" r="3" fill="#2563eb"></circle><circle class="dot" cx="239.58620689655172" cy="340" r="3" fill="#2563eb"></circle><circle class="dot" cx="240.82758620689654" cy="340" r="3" fill="#2563eb"></circle><circle class="dot" cx="242.0689655172414" cy="340" r="3" fill="#2563eb"></circle><circle class="dot" cx="243.31034482758622" cy="340" r="3" fill="#2563eb"></circle><circle class="dot" cx="244.55172413793105" cy="340" r="3" fill="#2563eb"></circle><circle class="dot" cx="245.79310344827587" cy="340" r="3" fill="#2563eb"></circle><circle class="dot" cx="247.0344827586207" cy="340" r="3" fill="#2563eb"></circle><circle class="dot" cx="248.27586206896552" cy="340" r="3" fill="#2563eb"></circle><circle class="dot" cx="249.51724137931038" cy="340" r="3" fill="#2563eb"></circle><circle class="dot" cx="250.75862068965515" cy="340" r="3" fill="#2563eb"></circle><circle class="dot" cx="251.99999999999997" cy="340" r="3" fill="#2563eb"></circle><circle class="dot" cx="253.24137931034483" cy="340" r="3" fill="#2563eb"></circle><circle class="dot" cx="254.48275862068965" cy="340" r="3" fill="#2563eb"></circle><circle class="dot" cx="255.72413793103448" cy="340" r="3" fill="#2563eb"></circle><circle class="dot" cx="256.9655172413793" cy="340" r="3" fill="#2563eb"></circle><circle class="dot" cx="258.2068965517241" cy="340" r="3" fill="#2563eb"></circle><circle class="dot" cx="259.44827586206895" cy="340" r="3" fill="#2563eb"></circle><circle class="dot" cx="260.6896551724138" cy="340" r="3" fill="#2563eb"></circle><circle class="dot" cx="261.9310344827586" cy="340" r="3" fill="#2563eb"></circle><circle class="dot" cx="263.17241379310343" cy="340" r="3" fill="#2563eb"></circle><circle class="dot" cx="264.41379310344826" cy="340" r="3" fill="#2563eb"></circle><circle class="dot" cx="265.65517241379314" cy="340" r="3" fill="#2563eb"></circle><circle class="dot" cx="266.89655172413796" cy="340" r="3" fill="#2563eb"></circle><circle class="dot" cx="268.1379310344828" cy="340" r="3" fill="#2563eb"></circle><circle class="dot" cx="269.3793103448276" cy="340" r="3" fill="#2563eb"></circle><circle class="dot" cx="270.6206896551724" cy="340" r="3" fill="#2563eb"></circle><circle class="dot" cx="271.8620689655172" cy="340" r="3" fill="#2563eb"></circle><circle class="dot" cx="273.10344827586204" cy="340" r="3" fill="#2563eb"></circle><circle class="dot" cx="274.34482758620686" cy="340" r="3" fill="#2563eb"></circle><circle class="dot" cx="275.58620689655174" cy="340" r="3" fill="#2563eb"></circle><circle class="dot" cx="276.82758620689657" cy="340" r="3" fill="#2563eb"></circle><circle class="dot" cx="278.0689655172414" cy="340" r="3" fill="#2563eb"></circle><circle class="dot" cx="279.3103448275862" cy="340" r="3" fill="#2563eb"></circle><circle class="dot" cx="280.55172413793105" cy="340" r="3" fill="#2563eb"></circle><circle class="dot" cx="281.7931034482759" cy="340" r="3" fill="#2563eb"></circle><circle class="dot" cx="283.0344827586207" cy="340" r="3" fill="#2563eb"></circle><circle class="dot" cx="284.2758620689655" cy="340" r="3" fill="#2563eb"></circle><circle class="dot" cx="285.51724137931035" cy="340" r="3" fill="#2563eb"></circle><circle class="dot" cx="286.7586206896552" cy="340" r="3" fill="#2563eb"></circle><circle class="dot" cx="288" cy="340" r="3" fill="#2563eb"></circle><circle class="dot" cx="289.2413793103448" cy="340" r="3" fill="#2563eb"></circle><circle class="dot" cx="290.48275862068965" cy="340" r="3" fill="#2563eb"></circle><circle class="dot" cx="291.7241379310345" cy="340" r="3" fill="#2563eb"></circle><circle class="dot" cx="292.9655172413793" cy="340" r="3" fill="#2563eb"></circle><circle class="dot" cx="294.2068965517241" cy="340" r="3" fill="#2563eb"></circle><circle class="dot" cx="295.44827586206895" cy="340" r="3" fill="#2563eb"></circle><circle class="dot" cx="296.6896551724138" cy="340" r="3" fill="#2563eb"></circle><circle class="dot" cx="297.9310344827586" cy="340" r="3" fill="#2563eb"></circle><circle class="dot" cx="299.17241379310343" cy="340" r="3" fill="#2563eb"></circle><circle class="dot" cx="300.41379310344826" cy="340" r="3" fill="#2563eb"></circle><circle class="dot" cx="301.6551724137931" cy="340" r="3" fill="#2563eb"></circle><circle class="dot" cx="302.89655172413796" cy="340" r="3" fill="#2563eb"></circle><circle class="dot" cx="304.1379310344828" cy="340" r="3" fill="#2563eb"></circle><circle class="dot" cx="305.3793103448276" cy="340" r="3" fill="#2563eb"></circle><circle class="dot" cx="306.62068965517244" cy="340" r="3" fill="#2563eb"></circle><circle class="dot" cx="307.86206896551727" cy="340" r="3" fill="#2563eb"></circle><circle class="dot" cx="309.1034482758621" cy="340" r="3" fill="#2563eb"></circle><circle class="dot" cx="310.34482758620686" cy="340" r="3" fill="#2563eb"></circle><circle class="dot" cx="311.5862068965517" cy="340" r="3" fill="#2563eb"></circle><circle class="dot" cx="312.8275862068965" cy="340" r="3" fill="#2563eb"></circle><circle class="dot" cx="314.0689655172414" cy="340" r="3" fill="#2563eb"></circle><circle class="dot" cx="315.3103448275862" cy="340" r="3" fill="#2563eb"></circle><circle class="dot" cx="316.55172413793105" cy="340" r="3" fill="#2563eb"></circle><circle class="dot" cx="317.7931034482759" cy="340" r="3" fill="#2563eb"></circle><circle class="dot" cx="319.0344827586207" cy="340" r="3" fill="#2563eb"></circle><circle class="dot" cx="320.2758620689655" cy="340" r="3" fill="#2563eb"></circle><circle class="dot" cx="321.51724137931035" cy="340" r="3" fill="#2563eb"></circle><circle class="dot" cx="322.7586206896552" cy="340" r="3" fill="#2563eb"></circle><circle class="dot" cx="324" cy="340" r="3" fill="#2563eb"></circle><circle class="dot" cx="325.2413793103448" cy="340" r="3" fill="#2563eb"></circle><circle class="dot" cx="326.48275862068965" cy="340" r="3" fill="#2563eb"></circle><circle class="dot" cx="327.7241379310345" cy="340" r="3" fill="#2563eb"></circle><circle class="dot" cx="328.9655172413793" cy="340" r="3" fill="#2563eb"></circle><circle class="dot" cx="330.2068965517241" cy="340" r="3" fill="#2563eb"></circle><circle class="dot" cx="331.44827586206895" cy="340" r="3" fill="#2563eb"></circle><circle class="dot" cx="332.6896551724138" cy="340" r="3" fill="#2563eb"></circle><circle class="dot" cx="333.9310344827586" cy="340" r="3" fill="#2563eb"></circle><circle class="dot" cx="335.17241379310343" cy="340" r="3" fill="#2563eb"></circle><circle class="dot" cx="336.41379310344826" cy="340" r="3" fill="#2563eb"></circle><circle class="dot" cx="337.6551724137931" cy="340" r="3" fill="#2563eb"></circle><circle class="dot" cx="338.8965517241379" cy="340" r="3" fill="#2563eb"></circle><circle class="dot" cx="340.13793103448273" cy="340" r="3" fill="#2563eb"></circle><circle class="dot" cx="341.3793103448276" cy="340" r="3" fill="#2563eb"></circle><circle class="dot" cx="342.62068965517244" cy="340" r="3" fill="#2563eb"></circle><circle class="dot" cx="343.86206896551727" cy="340" r="3" fill="#2563eb"></circle><circle class="dot" cx="345.1034482758621" cy="340" r="3" fill="#2563eb"></circle><circle class="dot" cx="346.3448275862069" cy="340" r="3" fill="#2563eb"></circle><circle class="dot" cx="347.58620689655174" cy="340" r="3" fill="#2563eb"></circle><circle class="dot" cx="348.82758620689657" cy="340" r="3" fill="#2563eb"></circle><circle class="dot" cx="350.06896551724134" cy="340" r="3" fill="#2563eb"></circle><circle class="dot" cx="351.31034482758616" cy="340" r="3" fill="#2563eb"></circle><circle class="dot" cx="352.55172413793105" cy="340" r="3" fill="#2563eb"></circle><circle class="dot" cx="353.7931034482759" cy="340" r="3" fill="#2563eb"></circle><circle class="dot" cx="355.0344827586207" cy="340" r="3" fill="#2563eb"></circle><circle class="dot" cx="356.2758620689655" cy="340" r="3" fill="#2563eb"></circle><circle class="dot" cx="357.51724137931035" cy="340" r="3" fill="#2563eb"></circle><circle class="dot" cx="358.7586206896552" cy="340" r="3" fill="#2563eb"></circle><circle class="dot" cx="360" cy="340" r="3" fill="#2563eb"></circle><circle class="dot" cx="361.24137931034477" cy="340" r="3" fill="#2563eb"></circle><circle class="dot" cx="362.48275862068965" cy="340" r="3" fill="#2563eb"></circle><circle class="dot" cx="363.7241379310345" cy="340" r="3" fill="#2563eb"></circle><circle class="dot" cx="364.9655172413793" cy="340" r="3" fill="#2563eb"></circle><circle class="dot" cx="366.2068965517241" cy="340" r="3" fill="#2563eb"></circle><circle class="dot" cx="367.44827586206895" cy="340" r="3" fill="#2563eb"></circle><circle class="dot" cx="368.6896551724138" cy="340" r="3" fill="#2563eb"></circle><circle class="dot" cx="369.93103448275866" cy="340" r="3" fill="#2563eb"></circle><circle class="dot" cx="371.17241379310343" cy="340" r="3" fill="#2563eb"></circle><circle class="dot" cx="372.4137931034483" cy="340" r="3" fill="#2563eb"></circle><circle class="dot" cx="373.6551724137931" cy="340" r="3" fill="#2563eb"></circle><circle class="dot" cx="374.89655172413796" cy="340" r="3" fill="#2563eb"></circle><circle class="dot" cx="376.13793103448273" cy="340" r="3" fill="#2563eb"></circle><circle class="dot" cx="377.3793103448276" cy="340" r="3" fill="#2563eb"></circle><circle class="dot" cx="378.6206896551724" cy="340" r="3" fill="#2563eb"></circle><circle class="dot" cx="379.86206896551727" cy="340" r="3" fill="#2563eb"></circle><circle class="dot" cx="381.1034482758621" cy="340" r="3" fill="#2563eb"></circle><circle class="dot" cx="382.34482758620686" cy="340" r="3" fill="#2563eb"></circle><circle class="dot" cx="383.58620689655174" cy="340" r="3" fill="#2563eb"></circle><circle class="dot" cx="384.8275862068965" cy="340" r="3" fill="#2563eb"></circle><circle class="dot" cx="386.0689655172414" cy="340" r="3" fill="#2563eb"></circle><circle class="dot" cx="387.31034482758616" cy="340" r="3" fill="#2563eb"></circle><circle class="dot" cx="388.55172413793105" cy="340" r="3" fill="#2563eb"></circle><circle class="dot" cx="389.7931034482758" cy="340" r="3" fill="#2563eb"></circle><circle class="dot" cx="391.0344827586207" cy="340" r="3" fill="#2563eb"></circle><circle class="dot" cx="392.2758620689655" cy="340" r="3" fill="#2563eb"></circle><circle class="dot" cx="393.51724137931035" cy="340" r="3" fill="#2563eb"></circle><circle class="dot" cx="394.7586206896552" cy="340" r="3" fill="#2563eb"></circle><circle class="dot" cx="396.00000000000006" cy="340" r="3" fill="#2563eb"></circle><circle class="dot" cx="397.2413793103448" cy="340" r="3" fill="#2563eb"></circle><circle class="dot" cx="398.4827586206897" cy="340" r="3" fill="#2563eb"></circle><circle class="dot" cx="399.7241379310345" cy="340" r="3" fill="#2563eb"></circle><circle class="dot" cx="400.96551724137925" cy="340" r="3" fill="#2563eb"></circle><circle class="dot" cx="402.2068965517241" cy="340" r="3" fill="#2563eb"></circle><circle class="dot" cx="403.44827586206895" cy="340" r="3" fill="#2563eb"></circle><circle class="dot" cx="404.6896551724138" cy="340" r="3" fill="#2563eb"></circle><circle class="dot" cx="405.9310344827586" cy="340" r="3" fill="#2563eb"></circle><circle class="dot" cx="407.1724137931035" cy="340" r="3" fill="#2563eb"></circle><circle class="dot" cx="408.41379310344826" cy="340" r="3" fill="#2563eb"></circle><circle class="dot" cx="409.65517241379314" cy="340" r="3" fill="#2563eb"></circle><circle class="dot" cx="410.8965517241379" cy="340" r="3" fill="#2563eb"></circle><circle class="dot" cx="412.1379310344828" cy="340" r="3" fill="#2563eb"></circle><circle class="dot" cx="413.37931034482756" cy="340" r="3" fill="#2563eb"></circle><circle class="dot" cx="414.62068965517244" cy="340" r="3" fill="#2563eb"></circle><circle class="dot" cx="415.8620689655172" cy="340" r="3" fill="#2563eb"></circle><circle class="dot" cx="417.1034482758621" cy="340" r="3" fill="#2563eb"></circle><circle class="dot" cx="418.3448275862069" cy="340" r="3" fill="#2563eb"></circle><circle class="dot" cx="419.58620689655174" cy="0" r="3" fill="#2563eb"></circle><circle class="dot" cx="420.82758620689657" cy="0" r="3" fill="#2563eb"></circle><circle class="dot" cx="422.06896551724134" cy="0" r="3" fill="#2563eb"></circle><circle class="dot" cx="423.3103448275862" cy="0" r="3" fill="#2563eb"></circle><circle class="dot" cx="424.551724137931" cy="0" r="3" fill="#2563eb"></circle><circle class="dot" cx="425.7931034482759" cy="0" r="3" fill="#2563eb"></circle><circle class="dot" cx="427.03448275862064" cy="0" r="3" fill="#2563eb"></circle><circle class="dot" cx="428.2758620689655" cy="0" r="3" fill="#2563eb"></circle><circle class="dot" cx="429.51724137931035" cy="0" r="3" fill="#2563eb"></circle><circle class="dot" cx="430.7586206896552" cy="0" r="3" fill="#2563eb"></circle><circle class="dot" cx="432" cy="0" r="3" fill="#2563eb"></circle><circle class="dot" cx="433.2413793103449" cy="0" r="3" fill="#2563eb"></circle><circle class="dot" cx="434.48275862068965" cy="0" r="3" fill="#2563eb"></circle><circle class="dot" cx="435.72413793103453" cy="0" r="3" fill="#2563eb"></circle><circle class="dot" cx="436.9655172413793" cy="0" r="3" fill="#2563eb"></circle><circle class="dot" cx="438.2068965517242" cy="0" r="3" fill="#2563eb"></circle><circle class="dot" cx="439.44827586206895" cy="0" r="3" fill="#2563eb"></circle><circle class="dot" cx="440.6896551724138" cy="0" r="3" fill="#2563eb"></circle><circle class="dot" cx="441.9310344827586" cy="0" r="3" fill="#2563eb"></circle><circle class="dot" cx="443.17241379310343" cy="0" r="3" fill="#2563eb"></circle><circle class="dot" cx="444.41379310344826" cy="0" r="3" fill="#2563eb"></circle><circle class="dot" cx="445.6551724137931" cy="0" r="3" fill="#2563eb"></circle><circle class="dot" cx="446.89655172413796" cy="0" r="3" fill="#2563eb"></circle><circle class="dot" cx="448.13793103448273" cy="0" r="3" fill="#2563eb"></circle><circle class="dot" cx="449.3793103448276" cy="0" r="3" fill="#2563eb"></circle><circle class="dot" cx="450.6206896551724" cy="0" r="3" fill="#2563eb"></circle><circle class="dot" cx="451.86206896551727" cy="0" r="3" fill="#2563eb"></circle><circle class="dot" cx="453.10344827586204" cy="0" r="3" fill="#2563eb"></circle><circle class="dot" cx="454.3448275862069" cy="0" r="3" fill="#2563eb"></circle><circle class="dot" cx="455.58620689655174" cy="0" r="3" fill="#2563eb"></circle><circle class="dot" cx="456.82758620689657" cy="0" r="3" fill="#2563eb"></circle><circle class="dot" cx="458.0689655172414" cy="0" r="3" fill="#2563eb"></circle><circle class="dot" cx="459.3103448275862" cy="0" r="3" fill="#2563eb"></circle><circle class="dot" cx="460.55172413793105" cy="0" r="3" fill="#2563eb"></circle><circle class="dot" cx="461.7931034482758" cy="0" r="3" fill="#2563eb"></circle><circle class="dot" cx="463.0344827586207" cy="0" r="3" fill="#2563eb"></circle><circle class="dot" cx="464.27586206896547" cy="0" r="3" fill="#2563eb"></circle><circle class="dot" cx="465.51724137931035" cy="0" r="3" fill="#2563eb"></circle><circle class="dot" cx="466.7586206896551" cy="0" r="3" fill="#2563eb"></circle><circle class="dot" cx="468" cy="0" r="3" fill="#2563eb"></circle><circle class="dot" cx="469.2413793103448" cy="0" r="3" fill="#2563eb"></circle><circle class="dot" cx="470.48275862068965" cy="0" r="3" fill="#2563eb"></circle><circle class="dot" cx="471.7241379310345" cy="0" r="3" fill="#2563eb"></circle><circle class="dot" cx="472.96551724137936" cy="0" r="3" fill="#2563eb"></circle><circle class="dot" cx="474.2068965517241" cy="0" r="3" fill="#2563eb"></circle><circle class="dot" cx="475.448275862069" cy="0" r="3" fill="#2563eb"></circle><circle class="dot" cx="476.6896551724138" cy="0" r="3" fill="#2563eb"></circle><circle class="dot" cx="477.93103448275866" cy="0" r="3" fill="#2563eb"></circle><circle class="dot" cx="479.17241379310343" cy="0" r="3" fill="#2563eb"></circle><circle class="dot" cx="480.41379310344826" cy="0" r="3" fill="#2563eb"></circle><circle class="dot" cx="481.6551724137931" cy="0" r="3" fill="#2563eb"></circle><circle class="dot" cx="482.8965517241379" cy="0" r="3" fill="#2563eb"></circle><circle class="dot" cx="484.1379310344828" cy="0" r="3" fill="#2563eb"></circle><circle class="dot" cx="485.37931034482756" cy="0" r="3" fill="#2563eb"></circle><circle class="dot" cx="486.62068965517244" cy="0" r="3" fill="#2563eb"></circle><circle class="dot" cx="487.8620689655172" cy="0" r="3" fill="#2563eb"></circle><circle class="dot" cx="489.1034482758621" cy="0" r="3" fill="#2563eb"></circle><circle class="dot" cx="490.34482758620686" cy="0" r="3" fill="#2563eb"></circle><circle class="dot" cx="491.58620689655174" cy="0" r="3" fill="#2563eb"></circle><circle class="dot" cx="492.8275862068965" cy="0" r="3" fill="#2563eb"></circle><circle class="dot" cx="494.0689655172414" cy="0" r="3" fill="#2563eb"></circle><circle class="dot" cx="495.3103448275862" cy="0" r="3" fill="#2563eb"></circle><circle class="dot" cx="496.55172413793105" cy="0" r="3" fill="#2563eb"></circle><circle class="dot" cx="497.7931034482759" cy="0" r="3" fill="#2563eb"></circle><circle class="dot" cx="499.03448275862075" cy="0" r="3" fill="#2563eb"></circle><circle class="dot" cx="500.2758620689655" cy="0" r="3" fill="#2563eb"></circle><circle class="dot" cx="501.5172413793103" cy="0" r="3" fill="#2563eb"></circle><circle class="dot" cx="502.7586206896552" cy="0" r="3" fill="#2563eb"></circle><circle class="dot" cx="503.99999999999994" cy="0" r="3" fill="#2563eb"></circle><circle class="dot" cx="505.2413793103448" cy="0" r="3" fill="#2563eb"></circle><circle class="dot" cx="506.48275862068965" cy="0" r="3" fill="#2563eb"></circle><circle class="dot" cx="507.7241379310345" cy="0" r="3" fill="#2563eb"></circle><circle class="dot" cx="508.9655172413793" cy="0" r="3" fill="#2563eb"></circle><circle class="dot" cx="510.2068965517242" cy="0" r="3" fill="#2563eb"></circle><circle class="dot" cx="511.44827586206895" cy="0" r="3" fill="#2563eb"></circle><circle class="dot" cx="512.6896551724138" cy="0" r="3" fill="#2563eb"></circle><circle class="dot" cx="513.9310344827586" cy="0" r="3" fill="#2563eb"></circle><circle class="dot" cx="515.1724137931035" cy="0" r="3" fill="#2563eb"></circle><circle class="dot" cx="516.4137931034483" cy="0" r="3" fill="#2563eb"></circle><circle class="dot" cx="517.6551724137931" cy="0" r="3" fill="#2563eb"></circle><circle class="dot" cx="518.8965517241379" cy="0" r="3" fill="#2563eb"></circle><circle class="dot" cx="520.1379310344827" cy="0" r="3" fill="#2563eb"></circle><circle class="dot" cx="521.3793103448276" cy="0" r="3" fill="#2563eb"></circle><circle class="dot" cx="522.6206896551723" cy="0" r="3" fill="#2563eb"></circle><circle class="dot" cx="523.8620689655172" cy="0" r="3" fill="#2563eb"></circle><circle class="dot" cx="525.1034482758621" cy="0" r="3" fill="#2563eb"></circle><circle class="dot" cx="526.3448275862069" cy="0" r="3" fill="#2563eb"></circle><circle class="dot" cx="527.5862068965517" cy="0" r="3" fill="#2563eb"></circle><circle class="dot" cx="528.8275862068965" cy="0" r="3" fill="#2563eb"></circle><circle class="dot" cx="530.0689655172414" cy="0" r="3" fill="#2563eb"></circle><circle class="dot" cx="531.3103448275863" cy="0" r="3" fill="#2563eb"></circle><circle class="dot" cx="532.551724137931" cy="0" r="3" fill="#2563eb"></circle><circle class="dot" cx="533.7931034482759" cy="0" r="3" fill="#2563eb"></circle><circle class="dot" cx="535.0344827586207" cy="0" r="3" fill="#2563eb"></circle><circle class="dot" cx="536.2758620689656" cy="0" r="3" fill="#2563eb"></circle><circle class="dot" cx="537.5172413793103" cy="0" r="3" fill="#2563eb"></circle><circle class="dot" cx="538.7586206896552" cy="0" r="3" fill="#2563eb"></circle><circle class="dot" cx="540" cy="0" r="3" fill="#2563eb"></circle><circle class="dot" cx="541.2413793103448" cy="0" r="3" fill="#2563eb"></circle><circle class="dot" cx="542.4827586206897" cy="0" r="3" fill="#2563eb"></circle><circle class="dot" cx="543.7241379310344" cy="0" r="3" fill="#2563eb"></circle><circle class="dot" cx="544.9655172413793" cy="0" r="3" fill="#2563eb"></circle><circle class="dot" cx="546.2068965517241" cy="0" r="3" fill="#2563eb"></circle><circle class="dot" cx="547.448275862069" cy="0" r="3" fill="#2563eb"></circle><circle class="dot" cx="548.6896551724137" cy="0" r="3" fill="#2563eb"></circle><circle class="dot" cx="549.9310344827586" cy="0" r="3" fill="#2563eb"></circle><circle class="dot" cx="551.1724137931035" cy="0" r="3" fill="#2563eb"></circle><circle class="dot" cx="552.4137931034483" cy="0" r="3" fill="#2563eb"></circle><circle class="dot" cx="553.6551724137931" cy="0" r="3" fill="#2563eb"></circle><circle class="dot" cx="554.8965517241379" cy="0" r="3" fill="#2563eb"></circle><circle class="dot" cx="556.1379310344828" cy="0" r="3" fill="#2563eb"></circle><circle class="dot" cx="557.3793103448277" cy="0" r="3" fill="#2563eb"></circle><circle class="dot" cx="558.6206896551724" cy="0" r="3" fill="#2563eb"></circle><circle class="dot" cx="559.8620689655173" cy="0" r="3" fill="#2563eb"></circle><circle class="dot" cx="561.1034482758621" cy="0" r="3" fill="#2563eb"></circle><circle class="dot" cx="562.3448275862069" cy="0" r="3" fill="#2563eb"></circle><circle class="dot" cx="563.5862068965517" cy="0" r="3" fill="#2563eb"></circle><circle class="dot" cx="564.8275862068965" cy="0" r="3" fill="#2563eb"></circle><circle class="dot" cx="566.0689655172414" cy="0" r="3" fill="#2563eb"></circle><circle class="dot" cx="567.3103448275862" cy="0" r="3" fill="#2563eb"></circle><circle class="dot" cx="568.551724137931" cy="0" r="3" fill="#2563eb"></circle><circle class="dot" cx="569.7931034482758" cy="0" r="3" fill="#2563eb"></circle><circle class="dot" cx="571.0344827586207" cy="0" r="3" fill="#2563eb"></circle><circle class="dot" cx="572.2758620689655" cy="0" r="3" fill="#2563eb"></circle><circle class="dot" cx="573.5172413793103" cy="0" r="3" fill="#2563eb"></circle><circle class="dot" cx="574.7586206896551" cy="0" r="3" fill="#2563eb"></circle><circle class="dot" cx="576" cy="0" r="3" fill="#2563eb"></circle><circle class="dot" cx="577.2413793103448" cy="0" r="3" fill="#2563eb"></circle><circle class="dot" cx="578.4827586206897" cy="0" r="3" fill="#2563eb"></circle><circle class="dot" cx="579.7241379310345" cy="0" r="3" fill="#2563eb"></circle><circle class="dot" cx="580.9655172413793" cy="0" r="3" fill="#2563eb"></circle><circle class="dot" cx="582.2068965517242" cy="0" r="3" fill="#2563eb"></circle><circle class="dot" cx="583.448275862069" cy="0" r="3" fill="#2563eb"></circle><circle class="dot" cx="584.6896551724138" cy="0" r="3" fill="#2563eb"></circle><circle class="dot" cx="585.9310344827586" cy="0" r="3" fill="#2563eb"></circle><circle class="dot" cx="587.1724137931035" cy="0" r="3" fill="#2563eb"></circle><circle class="dot" cx="588.4137931034483" cy="0" r="3" fill="#2563eb"></circle><circle class="dot" cx="589.6551724137931" cy="0" r="3" fill="#2563eb"></circle><circle class="dot" cx="590.8965517241379" cy="0" r="3" fill="#2563eb"></circle><circle class="dot" cx="592.1379310344828" cy="0" r="3" fill="#2563eb"></circle><circle class="dot" cx="593.3793103448276" cy="0" r="3" fill="#2563eb"></circle><circle class="dot" cx="594.6206896551724" cy="0" r="3" fill="#2563eb"></circle><circle class="dot" cx="595.8620689655172" cy="0" r="3" fill="#2563eb"></circle><circle class="dot" cx="597.1034482758621" cy="0" r="3" fill="#2563eb"></circle><circle class="dot" cx="598.3448275862069" cy="0" r="3" fill="#2563eb"></circle><circle class="dot" cx="599.5862068965517" cy="0" r="3" fill="#2563eb"></circle><circle class="dot" cx="600.8275862068965" cy="0" r="3" fill="#2563eb"></circle><circle class="dot" cx="602.0689655172414" cy="0" r="3" fill="#2563eb"></circle><circle class="dot" cx="603.3103448275862" cy="0" r="3" fill="#2563eb"></circle><circle class="dot" cx="604.551724137931" cy="0" r="3" fill="#2563eb"></circle><circle class="dot" cx="605.7931034482759" cy="0" r="3" fill="#2563eb"></circle><circle class="dot" cx="607.0344827586207" cy="0" r="3" fill="#2563eb"></circle><circle class="dot" cx="608.2758620689656" cy="0" r="3" fill="#2563eb"></circle><circle class="dot" cx="609.5172413793103" cy="0" r="3" fill="#2563eb"></circle><circle class="dot" cx="610.7586206896552" cy="0" r="3" fill="#2563eb"></circle><circle class="dot" cx="612" cy="0" r="3" fill="#2563eb"></circle><circle class="dot" cx="613.2413793103449" cy="0" r="3" fill="#2563eb"></circle><circle class="dot" cx="614.4827586206897" cy="0" r="3" fill="#2563eb"></circle><circle class="dot" cx="615.7241379310345" cy="0" r="3" fill="#2563eb"></circle><circle class="dot" cx="616.9655172413793" cy="0" r="3" fill="#2563eb"></circle><circle class="dot" cx="618.2068965517242" cy="0" r="3" fill="#2563eb"></circle><circle class="dot" cx="619.448275862069" cy="0" r="3" fill="#2563eb"></circle><circle class="dot" cx="620.6896551724137" cy="0" r="3" fill="#2563eb"></circle><circle class="dot" cx="621.9310344827586" cy="0" r="3" fill="#2563eb"></circle><circle class="dot" cx="623.1724137931034" cy="0" r="3" fill="#2563eb"></circle><circle class="dot" cx="624.4137931034483" cy="0" r="3" fill="#2563eb"></circle><circle class="dot" cx="625.655172413793" cy="0" r="3" fill="#2563eb"></circle><circle class="dot" cx="626.8965517241379" cy="0" r="3" fill="#2563eb"></circle><circle class="dot" cx="628.1379310344828" cy="0" r="3" fill="#2563eb"></circle><circle class="dot" cx="629.3793103448276" cy="0" r="3" fill="#2563eb"></circle><circle class="dot" cx="630.6206896551724" cy="0" r="3" fill="#2563eb"></circle><circle class="dot" cx="631.8620689655172" cy="0" r="3" fill="#2563eb"></circle><circle class="dot" cx="633.1034482758621" cy="0" r="3" fill="#2563eb"></circle><circle class="dot" cx="634.344827586207" cy="0" r="3" fill="#2563eb"></circle><circle class="dot" cx="635.5862068965517" cy="0" r="3" fill="#2563eb"></circle><circle class="dot" cx="636.8275862068966" cy="0" r="3" fill="#2563eb"></circle><circle class="dot" cx="638.0689655172414" cy="0" r="3" fill="#2563eb"></circle><circle class="dot" cx="639.3103448275863" cy="0" r="3" fill="#2563eb"></circle><circle class="dot" cx="640.551724137931" cy="0" r="3" fill="#2563eb"></circle><circle class="dot" cx="641.7931034482758" cy="0" r="3" fill="#2563eb"></circle><circle class="dot" cx="643.0344827586207" cy="0" r="3" fill="#2563eb"></circle><circle class="dot" cx="644.2758620689655" cy="0" r="3" fill="#2563eb"></circle><circle class="dot" cx="645.5172413793103" cy="0" r="3" fill="#2563eb"></circle><circle class="dot" cx="646.7586206896551" cy="0" r="3" fill="#2563eb"></circle><circle class="dot" cx="648" cy="0" r="3" fill="#2563eb"></circle><circle class="dot" cx="649.2413793103448" cy="0" r="3" fill="#2563eb"></circle><circle class="dot" cx="650.4827586206897" cy="0" r="3" fill="#2563eb"></circle><circle class="dot" cx="651.7241379310344" cy="0" r="3" fill="#2563eb"></circle><circle class="dot" cx="652.9655172413793" cy="0" r="3" fill="#2563eb"></circle><circle class="dot" cx="654.2068965517241" cy="0" r="3" fill="#2563eb"></circle><circle class="dot" cx="655.448275862069" cy="0" r="3" fill="#2563eb"></circle><circle class="dot" cx="656.6896551724138" cy="0" r="3" fill="#2563eb"></circle><circle class="dot" cx="657.9310344827586" cy="0" r="3" fill="#2563eb"></circle><circle class="dot" cx="659.1724137931035" cy="0" r="3" fill="#2563eb"></circle><circle class="dot" cx="660.4137931034483" cy="0" r="3" fill="#2563eb"></circle><circle class="dot" cx="661.6551724137931" cy="0" r="3" fill="#2563eb"></circle><circle class="dot" cx="662.8965517241379" cy="0" r="3" fill="#2563eb"></circle><circle class="dot" cx="664.1379310344828" cy="0" r="3" fill="#2563eb"></circle><circle class="dot" cx="665.3793103448276" cy="0" r="3" fill="#2563eb"></circle><circle class="dot" cx="666.6206896551724" cy="0" r="3" fill="#2563eb"></circle><circle class="dot" cx="667.8620689655172" cy="0" r="3" fill="#2563eb"></circle><circle class="dot" cx="669.1034482758621" cy="0" r="3" fill="#2563eb"></circle><circle class="dot" cx="670.3448275862069" cy="0" r="3" fill="#2563eb"></circle><circle class="dot" cx="671.5862068965517" cy="0" r="3" fill="#2563eb"></circle><circle class="dot" cx="672.8275862068965" cy="0" r="3" fill="#2563eb"></circle><circle class="dot" cx="674.0689655172414" cy="0" r="3" fill="#2563eb"></circle><circle class="dot" cx="675.3103448275862" cy="0" r="3" fill="#2563eb"></circle><circle class="dot" cx="676.551724137931" cy="0" r="3" fill="#2563eb"></circle><circle class="dot" cx="677.7931034482758" cy="0" r="3" fill="#2563eb"></circle><circle class="dot" cx="679.0344827586207" cy="0" r="3" fill="#2563eb"></circle><circle class="dot" cx="680.2758620689655" cy="0" r="3" fill="#2563eb"></circle><circle class="dot" cx="681.5172413793103" cy="0" r="3" fill="#2563eb"></circle><circle class="dot" cx="682.7586206896552" cy="0" r="3" fill="#2563eb"></circle><circle class="dot" cx="684" cy="0" r="3" fill="#2563eb"></circle><circle class="dot" cx="685.2413793103449" cy="0" r="3" fill="#2563eb"></circle><circle class="dot" cx="686.4827586206897" cy="0" r="3" fill="#2563eb"></circle><circle class="dot" cx="687.7241379310345" cy="0" r="3" fill="#2563eb"></circle><circle class="dot" cx="688.9655172413793" cy="0" r="3" fill="#2563eb"></circle><circle class="dot" cx="690.2068965517242" cy="0" r="3" fill="#2563eb"></circle><circle class="dot" cx="691.448275862069" cy="0" r="3" fill="#2563eb"></circle><circle class="dot" cx="692.6896551724138" cy="0" r="3" fill="#2563eb"></circle><circle class="dot" cx="693.9310344827586" cy="0" r="3" fill="#2563eb"></circle><circle class="dot" cx="695.1724137931035" cy="0" r="3" fill="#2563eb"></circle><circle class="dot" cx="696.4137931034483" cy="0" r="3" fill="#2563eb"></circle><circle class="dot" cx="697.6551724137931" cy="0" r="3" fill="#2563eb"></circle><circle class="dot" cx="698.8965517241379" cy="0" r="3" fill="#2563eb"></circle><circle class="dot" cx="700.1379310344827" cy="0" r="3" fill="#2563eb"></circle><circle class="dot" cx="701.3793103448276" cy="0" r="3" fill="#2563eb"></circle><circle class="dot" cx="702.6206896551723" cy="0" r="3" fill="#2563eb"></circle><circle class="dot" cx="703.8620689655172" cy="0" r="3" fill="#2563eb"></circle><circle class="dot" cx="705.1034482758621" cy="0" r="3" fill="#2563eb"></circle><circle class="dot" cx="706.3448275862069" cy="0" r="3" fill="#2563eb"></circle><circle class="dot" cx="707.5862068965517" cy="0" r="3" fill="#2563eb"></circle><circle class="dot" cx="708.8275862068965" cy="0" r="3" fill="#2563eb"></circle><circle class="dot" cx="710.0689655172414" cy="0" r="3" fill="#2563eb"></circle><circle class="dot" cx="711.3103448275863" cy="0" r="3" fill="#2563eb"></circle><circle class="dot" cx="712.551724137931" cy="0" r="3" fill="#2563eb"></circle><circle class="dot" cx="713.7931034482759" cy="0" r="3" fill="#2563eb"></circle><circle class="dot" cx="715.0344827586207" cy="0" r="3" fill="#2563eb"></circle><circle class="dot" cx="716.2758620689656" cy="0" r="3" fill="#2563eb"></circle><circle class="dot" cx="717.5172413793103" cy="0" r="3" fill="#2563eb"></circle><circle class="dot" cx="718.7586206896552" cy="0" r="3" fill="#2563eb"></circle><circle class="dot" cx="720" cy="0" r="3" fill="#2563eb"></circle><g class="grid" transform="translate(0,340)" fill="none" font-size="10" font-family="sans-serif" text-anchor="middle" style="stroke-dasharray: 3,3; opacity: 0.3;"><path class="domain" stroke="currentColor" d="M0.5,-340V0.5H720.5V-340"></path><g class="tick" opacity="1" transform="translate(0.5,0)"><line stroke="currentColor" y2="-340"></line><text fill="currentColor" y="3" dy="0.71em"></text></g><g class="tick" opacity="1" transform="translate(30.29310344827586,0)"><line stroke="currentColor" y2="-340"></line><text fill="currentColor" y="3" dy="0.71em"></text></g><g class="tick" opacity="1" transform="translate(60.08620689655172,0)"><line stroke="currentColor" y2="-340"></line><text fill="currentColor" y="3" dy="0.71em"></text></g><g class="tick" opacity="1" transform="translate(89.87931034482759,0)"><line stroke="currentColor" y2="-340"></line><text fill="currentColor" y="3" dy="0.71em"></text></g><g class="tick" opacity="1" transform="translate(119.67241379310344,0)"><line stroke="currentColor" y2="-340"></line><text fill="currentColor" y="3" dy="0.71em"></text></g><g class="tick" opacity="1" transform="translate(149.4655172413793,0)"><line stroke="currentColor" y2="-340"></line><text fill="currentColor" y="3" dy="0.71em"></text></g><g class="tick" opacity="1" transform="translate(179.25862068965517,0)"><line stroke="currentColor" y2="-340"></line><text fill="currentColor" y="3" dy="0.71em"></text></g><g class="tick" opacity="1" transform="translate(209.05172413793105,0)"><line stroke="currentColor" y2="-340"></line><text fill="currentColor" y="3" dy="0.71em"></text></g><g class="tick" opacity="1" transform="translate(238.8448275862069,0)"><line stroke="currentColor" y2="-340"></line><text fill="currentColor" y="3" dy="0.71em"></text></g><g class="tick" opacity="1" transform="translate(268.6379310344828,0)"><line stroke="currentColor" y2="-340"></line><text fill="currentColor" y="3" dy="0.71em"></text></g><g class="tick" opacity="1" transform="translate(298.4310344827586,0)"><line stroke="currentColor" y2="-340"></line><text fill="currentColor" y="3" dy="0.71em"></text></g><g class="tick" opacity="1" transform="translate(328.2241379310345,0)"><line stroke="currentColor" y2="-340"></line><text fill="currentColor" y="3" dy="0.71em"></text></g><g class="tick" opacity="1" transform="translate(358.01724137931035,0)"><line stroke="currentColor" y2="-340"></line><text fill="currentColor" y="3" dy="0.71em"></text></g><g class="tick" opacity="1" transform="translate(387.81034482758616,0)"><line stroke="currentColor" y2="-340"></line><text fill="currentColor" y="3" dy="0.71em"></text></g><g class="tick" opacity="1" transform="translate(417.6034482758621,0)"><line stroke="currentColor" y2="-340"></line><text fill="currentColor" y="3" dy="0.71em"></text></g><g class="tick" opacity="1" transform="translate(447.39655172413796,0)"><line stroke="currentColor" y2="-340"></line><text fill="currentColor" y="3" dy="0.71em"></text></g><g class="tick" opacity="1" transform="translate(477.1896551724138,0)"><line stroke="currentColor" y2="-340"></line><text fill="currentColor" y="3" dy="0.71em"></text></g><g class="tick" opacity="1" transform="translate(506.98275862068965,0)"><line stroke="currentColor" y2="-340"></line><text fill="currentColor" y="3" dy="0.71em"></text></g><g class="tick" opacity="1" transform="translate(536.7758620689656,0)"><line stroke="currentColor" y2="-340"></line><text fill="currentColor" y="3" dy="0.71em"></text></g><g class="tick" opacity="1" transform="translate(566.5689655172414,0)"><line stroke="currentColor" y2="-340"></line><text fill="currentColor" y="3" dy="0.71em"></text></g><g class="tick" opacity="1" transform="translate(596.3620689655172,0)"><line stroke="currentColor" y2="-340"></line><text fill="currentColor" y="3" dy="0.71em"></text></g><g class="tick" opacity="1" transform="translate(626.155172413793,0)"><line stroke="currentColor" y2="-340"></line><text fill="currentColor" y="3" dy="0.71em"></text></g><g class="tick" opacity="1" transform="translate(655.948275862069,0)"><line stroke="currentColor" y2="-340"></line><text fill="currentColor" y="3" dy="0.71em"></text></g><g class="tick" opacity="1" transform="translate(685.7413793103449,0)"><line stroke="currentColor" y2="-340"></line><text fill="currentColor" y="3" dy="0.71em"></text></g><g class="tick" opacity="1" transform="translate(715.5344827586207,0)"><line stroke="currentColor" y2="-340"></line><text fill="currentColor" y="3" dy="0.71em"></text></g></g><g class="grid" fill="none" font-size="10" font-family="sans-serif" text-anchor="end" style="stroke-dasharray: 3,3; opacity: 0.3;"><path class="domain" stroke="currentColor" d="M720,340.5H0.5V0.5H720"></path><g class="tick" opacity="1" transform="translate(0,340.5)"><line stroke="currentColor" x2="720"></line><text fill="currentColor" x="-3" dy="0.32em"></text></g><g class="tick" opacity="1" transform="translate(0,312.16666666666663)"><line stroke="currentColor" x2="720"></line><text fill="currentColor" x="-3" dy="0.32em"></text></g><g class="tick" opacity="1" transform="translate(0,283.83333333333326)"><line stroke="currentColor" x2="720"></line><text fill="currentColor" x="-3" dy="0.32em"></text></g><g class="tick" opacity="1" transform="translate(0,255.49999999999991)"><line stroke="currentColor" x2="720"></line><text fill="currentColor" x="-3" dy="0.32em"></text></g><g class="tick" opacity="1" transform="translate(0,227.16666666666654)"><line stroke="currentColor" x2="720"></line><text fill="currentColor" x="-3" dy="0.32em"></text></g><g class="tick" opacity="1" transform="translate(0,198.83333333333314)"><line stroke="currentColor" x2="720"></line><text fill="currentColor" x="-3" dy="0.32em"></text></g><g class="tick" opacity="1" transform="translate(0,170.4999999999998)"><line stroke="currentColor" x2="720"></line><text fill="currentColor" x="-3" dy="0.32em"></text></g><g class="tick" opacity="1" transform="translate(0,142.16666666666686)"><line stroke="currentColor" x2="720"></line><text fill="currentColor" x="-3" dy="0.32em"></text></g><g class="tick" opacity="1" transform="translate(0,113.83333333333346)"><line stroke="currentColor" x2="720"></line><text fill="currentColor" x="-3" dy="0.32em"></text></g><g class="tick" opacity="1" transform="translate(0,85.50000000000011)"><line stroke="currentColor" x2="720"></line><text fill="currentColor" x="-3" dy="0.32em"></text></g><g class="tick" opacity="1" transform="translate(0,57.16666666666673)"><line stroke="currentColor" x2="720"></line><text fill="currentColor" x="-3" dy="0.32em"></text></g><g class="tick" opacity="1" transform="translate(0,28.833333333333385)"><line stroke="currentColor" x2="720"></line><text fill="currentColor" x="-3" dy="0.32em"></text></g><g class="tick" opacity="1" transform="translate(0,0.5)"><line stroke="currentColor" x2="720"></line><text fill="currentColor" x="-3" dy="0.32em"></text></g></g></g><text x="400" y="10" text-anchor="middle" style="font-size: 16px; font-weight: bold; fill: #333;">OKX USDT Lending Rate - Current Month</text></svg>