<svg width="800" height="400" xmlns="http://www.w3.org/2000/svg"><g transform="translate(50,20)"><g transform="translate(0,340)" fill="none" font-size="10" font-family="sans-serif" text-anchor="middle"><path class="domain" stroke="currentColor" d="M0.5,6V0.5H720.5V6"></path><g class="tick" opacity="1" transform="translate(0.5,0)"><line stroke="currentColor" y2="6"></line><text fill="currentColor" y="9" dy=".15em" style="text-anchor: end;" dx="-.8em" transform="rotate(-45)">12/01</text></g><g class="tick" opacity="1" transform="translate(127.55882352941177,0)"><line stroke="currentColor" y2="6"></line><text fill="currentColor" y="9" dy=".15em" style="text-anchor: end;" dx="-.8em" transform="rotate(-45)">12/02</text></g><g class="tick" opacity="1" transform="translate(254.61764705882354,0)"><line stroke="currentColor" y2="6"></line><text fill="currentColor" y="9" dy=".15em" style="text-anchor: end;" dx="-.8em" transform="rotate(-45)">12/03</text></g><g class="tick" opacity="1" transform="translate(381.6764705882353,0)"><line stroke="currentColor" y2="6"></line><text fill="currentColor" y="9" dy=".15em" style="text-anchor: end;" dx="-.8em" transform="rotate(-45)">12/04</text></g><g class="tick" opacity="1" transform="translate(508.7352941176471,0)"><line stroke="currentColor" y2="6"></line><text fill="currentColor" y="9" dy=".15em" style="text-anchor: end;" dx="-.8em" transform="rotate(-45)">12/05</text></g><g class="tick" opacity="1" transform="translate(635.7941176470588,0)"><line stroke="currentColor" y2="6"></line><text fill="currentColor" y="9" dy=".15em" style="text-anchor: end;" dx="-.8em" transform="rotate(-45)">12/06</text></g></g><g fill="none" font-size="10" font-family="sans-serif" text-anchor="end"><path class="domain" stroke="currentColor" d="M-6,340.5H0.5V0.5H-6"></path><g class="tick" opacity="1" transform="translate(0,170.5)"><line stroke="currentColor" x2="-6"></line><text fill="currentColor" x="-9" dy="0.32em">3.50%</text></g></g><text transform="rotate(-90)" y="-50" x="-170" dy="1em" style="text-anchor: middle; font-size: 12px; fill: #666;">Pre Rate (%)</text><text transform="translate(360, 380)" style="text-anchor: middle; font-size: 12px; fill: #666;">Time (UTC)</text><path fill="none" stroke="#2563eb" stroke-width="2" d="M0,170C1.765,170,3.529,170,5.294,170C7.059,170,8.824,170,10.588,170C12.353,170,14.118,170,15.882,170C17.647,170,19.412,170,21.176,170C22.941,170,24.706,170,26.471,170C28.235,170,30,170,31.765,170C33.529,170,35.294,170,37.059,170C38.824,170,40.588,170,42.353,170C44.118,170,45.882,170,47.647,170C49.412,170,51.176,170,52.941,170C54.706,170,56.471,170,58.235,170C60,170,61.765,170,63.529,170C65.294,170,67.059,170,68.824,170C70.588,170,72.353,170,74.118,170C75.882,170,77.647,170,79.412,170C81.176,170,82.941,170,84.706,170C86.471,170,88.235,170,90,170C91.765,170,93.529,170,95.294,170C97.059,170,98.824,170,100.588,170C102.353,170,104.118,170,105.882,170C107.647,170,109.412,170,111.176,170C112.941,170,114.706,170,116.471,170C118.235,170,120,170,121.765,170C123.529,170,125.294,170,127.059,170C128.824,170,130.588,170,132.353,170C134.118,170,135.882,170,137.647,170C139.412,170,141.176,170,142.941,170C144.706,170,146.471,170,148.235,170C150,170,151.765,170,153.529,170C155.294,170,157.059,170,158.824,170C160.588,170,162.353,170,164.118,170C165.882,170,167.647,170,169.412,170C171.176,170,172.941,170,174.706,170C176.471,170,178.235,170,180,170C181.765,170,183.529,170,185.294,170C187.059,170,188.824,170,190.588,170C192.353,170,194.118,170,195.882,170C197.647,170,199.412,170,201.176,170C202.941,170,204.706,170,206.471,170C208.235,170,210,170,211.765,170C213.529,170,215.294,170,217.059,170C218.824,170,220.588,170,222.353,170C224.118,170,225.882,170,227.647,170C229.412,170,231.176,170,232.941,170C234.706,170,236.471,170,238.235,170C240,170,241.765,170,243.529,170C245.294,170,247.059,170,248.824,170C250.588,170,252.353,170,254.118,170C255.882,170,257.647,170,259.412,170C261.176,170,262.941,170,264.706,170C266.471,170,268.235,170,270,170C271.765,170,273.529,170,275.294,170C277.059,170,278.824,170,280.588,170C282.353,170,284.118,170,285.882,170C287.647,170,289.412,170,291.176,170C292.941,170,294.706,170,296.471,170C298.235,170,300,170,301.765,170C303.529,170,305.294,170,307.059,170C308.824,170,310.588,170,312.353,170C314.118,170,315.882,170,317.647,170C319.412,170,321.176,170,322.941,170C324.706,170,326.471,170,328.235,170C330,170,331.765,170,333.529,170C335.294,170,337.059,170,338.824,170C340.588,170,342.353,170,344.118,170C345.882,170,347.647,170,349.412,170C351.176,170,352.941,170,354.706,170C356.471,170,358.235,170,360,170C361.765,170,363.529,170,365.294,170C367.059,170,368.824,170,370.588,170C372.353,170,374.118,170,375.882,170C377.647,170,379.412,170,381.176,170C382.941,170,384.706,170,386.471,170C388.235,170,390,170,391.765,170C393.529,170,395.294,170,397.059,170C398.824,170,400.588,170,402.353,170C404.118,170,405.882,170,407.647,170C409.412,170,411.176,170,412.941,170C414.706,170,416.471,170,418.235,170C420,170,421.765,170,423.529,170C425.294,170,427.059,170,428.824,170C430.588,170,432.353,170,434.118,170C435.882,170,437.647,170,439.412,170C441.176,170,442.941,170,444.706,170C446.471,170,448.235,170,450,170C451.765,170,453.529,170,455.294,170C457.059,170,458.824,170,460.588,170C462.353,170,464.118,170,465.882,170C467.647,170,469.412,170,471.176,170C472.941,170,474.706,170,476.471,170C478.235,170,480,170,481.765,170C483.529,170,485.294,170,487.059,170C488.824,170,490.588,170,492.353,170C494.118,170,495.882,170,497.647,170C499.412,170,501.176,170,502.941,170C504.706,170,506.471,170,508.235,170C510,170,511.765,170,513.529,170C515.294,170,517.059,170,518.824,170C520.588,170,522.353,170,524.118,170C525.882,170,527.647,170,529.412,170C531.176,170,532.941,170,534.706,170C536.471,170,538.235,170,540,170C541.765,170,543.529,170,545.294,170C547.059,170,548.824,170,550.588,170C552.353,170,554.118,170,555.882,170C557.647,170,559.412,170,561.176,170C562.941,170,564.706,170,566.471,170C568.235,170,570,170,571.765,170C573.529,170,575.294,170,577.059,170C578.824,170,580.588,170,582.353,170C584.118,170,585.882,170,587.647,170C589.412,170,591.176,170,592.941,170C594.706,170,596.471,170,598.235,170C600,170,601.765,170,603.529,170C605.294,170,607.059,170,608.824,170C610.588,170,612.353,170,614.118,170C615.882,170,617.647,170,619.412,170C621.176,170,622.941,170,624.706,170C626.471,170,628.235,170,630,170C631.765,170,633.529,170,635.294,170C637.059,170,638.824,170,640.588,170C642.353,170,644.118,170,645.882,170C647.647,170,649.412,170,651.176,170C652.941,170,654.706,170,656.471,170C658.235,170,660,170,661.765,170C663.529,170,665.294,170,667.059,170C668.824,170,670.588,170,672.353,170C674.118,170,675.882,170,677.647,170C679.412,170,681.176,170,682.941,170C684.706,170,686.471,170,688.235,170C690,170,691.765,170,693.529,170C695.294,170,697.059,170,698.824,170C700.588,170,702.353,170,704.118,170C705.882,170,707.647,170,709.412,170C711.176,170,712.941,170,714.706,170C716.471,170,718.235,170,720,170"></path><circle class="dot" cx="0" cy="170" r="3" fill="#2563eb"></circle><circle class="dot" cx="5.294117647058823" cy="170" r="3" fill="#2563eb"></circle><circle class="dot" cx="10.588235294117647" cy="170" r="3" fill="#2563eb"></circle><circle class="dot" cx="15.882352941176471" cy="170" r="3" fill="#2563eb"></circle><circle class="dot" cx="21.176470588235293" cy="170" r="3" fill="#2563eb"></circle><circle class="dot" cx="26.47058823529412" cy="170" r="3" fill="#2563eb"></circle><circle class="dot" cx="31.764705882352942" cy="170" r="3" fill="#2563eb"></circle><circle class="dot" cx="37.05882352941176" cy="170" r="3" fill="#2563eb"></circle><circle class="dot" cx="42.35294117647059" cy="170" r="3" fill="#2563eb"></circle><circle class="dot" cx="47.64705882352941" cy="170" r="3" fill="#2563eb"></circle><circle class="dot" cx="52.94117647058824" cy="170" r="3" fill="#2563eb"></circle><circle class="dot" cx="58.235294117647065" cy="170" r="3" fill="#2563eb"></circle><circle class="dot" cx="63.529411764705884" cy="170" r="3" fill="#2563eb"></circle><circle class="dot" cx="68.8235294117647" cy="170" r="3" fill="#2563eb"></circle><circle class="dot" cx="74.11764705882352" cy="170" r="3" fill="#2563eb"></circle><circle class="dot" cx="79.41176470588235" cy="170" r="3" fill="#2563eb"></circle><circle class="dot" cx="84.70588235294117" cy="170" r="3" fill="#2563eb"></circle><circle class="dot" cx="90" cy="170" r="3" fill="#2563eb"></circle><circle class="dot" cx="95.29411764705883" cy="170" r="3" fill="#2563eb"></circle><circle class="dot" cx="100.58823529411765" cy="170" r="3" fill="#2563eb"></circle><circle class="dot" cx="105.88235294117648" cy="170" r="3" fill="#2563eb"></circle><circle class="dot" cx="111.1764705882353" cy="170" r="3" fill="#2563eb"></circle><circle class="dot" cx="116.47058823529413" cy="170" r="3" fill="#2563eb"></circle><circle class="dot" cx="121.76470588235294" cy="170" r="3" fill="#2563eb"></circle><circle class="dot" cx="127.05882352941177" cy="170" r="3" fill="#2563eb"></circle><circle class="dot" cx="132.3529411764706" cy="170" r="3" fill="#2563eb"></circle><circle class="dot" cx="137.6470588235294" cy="170" r="3" fill="#2563eb"></circle><circle class="dot" cx="142.94117647058823" cy="170" r="3" fill="#2563eb"></circle><circle class="dot" cx="148.23529411764704" cy="170" r="3" fill="#2563eb"></circle><circle class="dot" cx="153.52941176470588" cy="170" r="3" fill="#2563eb"></circle><circle class="dot" cx="158.8235294117647" cy="170" r="3" fill="#2563eb"></circle><circle class="dot" cx="164.11764705882354" cy="170" r="3" fill="#2563eb"></circle><circle class="dot" cx="169.41176470588235" cy="170" r="3" fill="#2563eb"></circle><circle class="dot" cx="174.7058823529412" cy="170" r="3" fill="#2563eb"></circle><circle class="dot" cx="180" cy="170" r="3" fill="#2563eb"></circle><circle class="dot" cx="185.2941176470588" cy="170" r="3" fill="#2563eb"></circle><circle class="dot" cx="190.58823529411765" cy="170" r="3" fill="#2563eb"></circle><circle class="dot" cx="195.88235294117646" cy="170" r="3" fill="#2563eb"></circle><circle class="dot" cx="201.1764705882353" cy="170" r="3" fill="#2563eb"></circle><circle class="dot" cx="206.47058823529412" cy="170" r="3" fill="#2563eb"></circle><circle class="dot" cx="211.76470588235296" cy="170" r="3" fill="#2563eb"></circle><circle class="dot" cx="217.05882352941174" cy="170" r="3" fill="#2563eb"></circle><circle class="dot" cx="222.3529411764706" cy="170" r="3" fill="#2563eb"></circle><circle class="dot" cx="227.6470588235294" cy="170" r="3" fill="#2563eb"></circle><circle class="dot" cx="232.94117647058826" cy="170" r="3" fill="#2563eb"></circle><circle class="dot" cx="238.23529411764704" cy="170" r="3" fill="#2563eb"></circle><circle class="dot" cx="243.52941176470588" cy="170" r="3" fill="#2563eb"></circle><circle class="dot" cx="248.8235294117647" cy="170" r="3" fill="#2563eb"></circle><circle class="dot" cx="254.11764705882354" cy="170" r="3" fill="#2563eb"></circle><circle class="dot" cx="259.4117647058824" cy="170" r="3" fill="#2563eb"></circle><circle class="dot" cx="264.7058823529412" cy="170" r="3" fill="#2563eb"></circle><circle class="dot" cx="270" cy="170" r="3" fill="#2563eb"></circle><circle class="dot" cx="275.2941176470588" cy="170" r="3" fill="#2563eb"></circle><circle class="dot" cx="280.5882352941176" cy="170" r="3" fill="#2563eb"></circle><circle class="dot" cx="285.88235294117646" cy="170" r="3" fill="#2563eb"></circle><circle class="dot" cx="291.1764705882353" cy="170" r="3" fill="#2563eb"></circle><circle class="dot" cx="296.4705882352941" cy="170" r="3" fill="#2563eb"></circle><circle class="dot" cx="301.7647058823529" cy="170" r="3" fill="#2563eb"></circle><circle class="dot" cx="307.05882352941177" cy="170" r="3" fill="#2563eb"></circle><circle class="dot" cx="312.3529411764706" cy="170" r="3" fill="#2563eb"></circle><circle class="dot" cx="317.6470588235294" cy="170" r="3" fill="#2563eb"></circle><circle class="dot" cx="322.94117647058823" cy="170" r="3" fill="#2563eb"></circle><circle class="dot" cx="328.2352941176471" cy="170" r="3" fill="#2563eb"></circle><circle class="dot" cx="333.5294117647059" cy="170" r="3" fill="#2563eb"></circle><circle class="dot" cx="338.8235294117647" cy="170" r="3" fill="#2563eb"></circle><circle class="dot" cx="344.11764705882354" cy="170" r="3" fill="#2563eb"></circle><circle class="dot" cx="349.4117647058824" cy="170" r="3" fill="#2563eb"></circle><circle class="dot" cx="354.7058823529412" cy="170" r="3" fill="#2563eb"></circle><circle class="dot" cx="360" cy="170" r="3" fill="#2563eb"></circle><circle class="dot" cx="365.2941176470588" cy="170" r="3" fill="#2563eb"></circle><circle class="dot" cx="370.5882352941176" cy="170" r="3" fill="#2563eb"></circle><circle class="dot" cx="375.8823529411765" cy="170" r="3" fill="#2563eb"></circle><circle class="dot" cx="381.1764705882353" cy="170" r="3" fill="#2563eb"></circle><circle class="dot" cx="386.4705882352941" cy="170" r="3" fill="#2563eb"></circle><circle class="dot" cx="391.7647058823529" cy="170" r="3" fill="#2563eb"></circle><circle class="dot" cx="397.05882352941177" cy="170" r="3" fill="#2563eb"></circle><circle class="dot" cx="402.3529411764706" cy="170" r="3" fill="#2563eb"></circle><circle class="dot" cx="407.6470588235294" cy="170" r="3" fill="#2563eb"></circle><circle class="dot" cx="412.94117647058823" cy="170" r="3" fill="#2563eb"></circle><circle class="dot" cx="418.2352941176471" cy="170" r="3" fill="#2563eb"></circle><circle class="dot" cx="423.5294117647059" cy="170" r="3" fill="#2563eb"></circle><circle class="dot" cx="428.8235294117647" cy="170" r="3" fill="#2563eb"></circle><circle class="dot" cx="434.1176470588235" cy="170" r="3" fill="#2563eb"></circle><circle class="dot" cx="439.4117647058824" cy="170" r="3" fill="#2563eb"></circle><circle class="dot" cx="444.7058823529412" cy="170" r="3" fill="#2563eb"></circle><circle class="dot" cx="450" cy="170" r="3" fill="#2563eb"></circle><circle class="dot" cx="455.2941176470588" cy="170" r="3" fill="#2563eb"></circle><circle class="dot" cx="460.5882352941176" cy="170" r="3" fill="#2563eb"></circle><circle class="dot" cx="465.8823529411765" cy="170" r="3" fill="#2563eb"></circle><circle class="dot" cx="471.1764705882353" cy="170" r="3" fill="#2563eb"></circle><circle class="dot" cx="476.4705882352941" cy="170" r="3" fill="#2563eb"></circle><circle class="dot" cx="481.7647058823529" cy="170" r="3" fill="#2563eb"></circle><circle class="dot" cx="487.05882352941177" cy="170" r="3" fill="#2563eb"></circle><circle class="dot" cx="492.3529411764706" cy="170" r="3" fill="#2563eb"></circle><circle class="dot" cx="497.6470588235294" cy="170" r="3" fill="#2563eb"></circle><circle class="dot" cx="502.94117647058823" cy="170" r="3" fill="#2563eb"></circle><circle class="dot" cx="508.2352941176471" cy="170" r="3" fill="#2563eb"></circle><circle class="dot" cx="513.5294117647059" cy="170" r="3" fill="#2563eb"></circle><circle class="dot" cx="518.8235294117648" cy="170" r="3" fill="#2563eb"></circle><circle class="dot" cx="524.1176470588235" cy="170" r="3" fill="#2563eb"></circle><circle class="dot" cx="529.4117647058824" cy="170" r="3" fill="#2563eb"></circle><circle class="dot" cx="534.7058823529412" cy="170" r="3" fill="#2563eb"></circle><circle class="dot" cx="540" cy="170" r="3" fill="#2563eb"></circle><circle class="dot" cx="545.2941176470588" cy="170" r="3" fill="#2563eb"></circle><circle class="dot" cx="550.5882352941176" cy="170" r="3" fill="#2563eb"></circle><circle class="dot" cx="555.8823529411765" cy="170" r="3" fill="#2563eb"></circle><circle class="dot" cx="561.1764705882352" cy="170" r="3" fill="#2563eb"></circle><circle class="dot" cx="566.4705882352941" cy="170" r="3" fill="#2563eb"></circle><circle class="dot" cx="571.7647058823529" cy="170" r="3" fill="#2563eb"></circle><circle class="dot" cx="577.0588235294118" cy="170" r="3" fill="#2563eb"></circle><circle class="dot" cx="582.3529411764706" cy="170" r="3" fill="#2563eb"></circle><circle class="dot" cx="587.6470588235294" cy="170" r="3" fill="#2563eb"></circle><circle class="dot" cx="592.9411764705882" cy="170" r="3" fill="#2563eb"></circle><circle class="dot" cx="598.2352941176471" cy="170" r="3" fill="#2563eb"></circle><circle class="dot" cx="603.5294117647059" cy="170" r="3" fill="#2563eb"></circle><circle class="dot" cx="608.8235294117648" cy="170" r="3" fill="#2563eb"></circle><circle class="dot" cx="614.1176470588235" cy="170" r="3" fill="#2563eb"></circle><circle class="dot" cx="619.4117647058824" cy="170" r="3" fill="#2563eb"></circle><circle class="dot" cx="624.7058823529412" cy="170" r="3" fill="#2563eb"></circle><circle class="dot" cx="630" cy="170" r="3" fill="#2563eb"></circle><circle class="dot" cx="635.2941176470588" cy="170" r="3" fill="#2563eb"></circle><circle class="dot" cx="640.5882352941176" cy="170" r="3" fill="#2563eb"></circle><circle class="dot" cx="645.8823529411765" cy="170" r="3" fill="#2563eb"></circle><circle class="dot" cx="651.1764705882352" cy="170" r="3" fill="#2563eb"></circle><circle class="dot" cx="656.4705882352941" cy="170" r="3" fill="#2563eb"></circle><circle class="dot" cx="661.7647058823529" cy="170" r="3" fill="#2563eb"></circle><circle class="dot" cx="667.0588235294118" cy="170" r="3" fill="#2563eb"></circle><circle class="dot" cx="672.3529411764706" cy="170" r="3" fill="#2563eb"></circle><circle class="dot" cx="677.6470588235294" cy="170" r="3" fill="#2563eb"></circle><circle class="dot" cx="682.9411764705882" cy="170" r="3" fill="#2563eb"></circle><circle class="dot" cx="688.2352941176471" cy="170" r="3" fill="#2563eb"></circle><circle class="dot" cx="693.5294117647059" cy="170" r="3" fill="#2563eb"></circle><circle class="dot" cx="698.8235294117648" cy="170" r="3" fill="#2563eb"></circle><circle class="dot" cx="704.1176470588235" cy="170" r="3" fill="#2563eb"></circle><circle class="dot" cx="709.4117647058824" cy="170" r="3" fill="#2563eb"></circle><circle class="dot" cx="714.7058823529412" cy="170" r="3" fill="#2563eb"></circle><circle class="dot" cx="720" cy="170" r="3" fill="#2563eb"></circle><g class="grid" transform="translate(0,340)" fill="none" font-size="10" font-family="sans-serif" text-anchor="middle" style="stroke-dasharray: 3,3; opacity: 0.3;"><path class="domain" stroke="currentColor" d="M0.5,-340V0.5H720.5V-340"></path><g class="tick" opacity="1" transform="translate(0.5,0)"><line stroke="currentColor" y2="-340"></line><text fill="currentColor" y="3" dy="0.71em"></text></g><g class="tick" opacity="1" transform="translate(127.55882352941177,0)"><line stroke="currentColor" y2="-340"></line><text fill="currentColor" y="3" dy="0.71em"></text></g><g class="tick" opacity="1" transform="translate(254.61764705882354,0)"><line stroke="currentColor" y2="-340"></line><text fill="currentColor" y="3" dy="0.71em"></text></g><g class="tick" opacity="1" transform="translate(381.6764705882353,0)"><line stroke="currentColor" y2="-340"></line><text fill="currentColor" y="3" dy="0.71em"></text></g><g class="tick" opacity="1" transform="translate(508.7352941176471,0)"><line stroke="currentColor" y2="-340"></line><text fill="currentColor" y="3" dy="0.71em"></text></g><g class="tick" opacity="1" transform="translate(635.7941176470588,0)"><line stroke="currentColor" y2="-340"></line><text fill="currentColor" y="3" dy="0.71em"></text></g></g><g class="grid" fill="none" font-size="10" font-family="sans-serif" text-anchor="end" style="stroke-dasharray: 3,3; opacity: 0.3;"><path class="domain" stroke="currentColor" d="M720,340.5H0.5V0.5H720"></path><g class="tick" opacity="1" transform="translate(0,170.5)"><line stroke="currentColor" x2="720"></line><text fill="currentColor" x="-3" dy="0.32em"></text></g></g></g><text x="400" y="10" text-anchor="middle" style="font-size: 16px; font-weight: bold; fill: #333;">OKX USDT Lending Rate - Current Month</text></svg>